<svg width="16" height="16" viewBox="0 0 16 16" fill="none" xmlns="http://www.w3.org/2000/svg">
<path fill-rule="evenodd" clip-rule="evenodd" d="M13.9655 6.63664C10.8785 3.12112 5.1215 3.12112 2.03452 6.63664L13.9655 6.63664ZM13.9655 6.63664L14.8755 7.67151C15.0415 7.86032 15.0415 8.14305 14.8755 8.33186L13.9655 9.36673C10.8741 12.8772 5.12163 12.8779 2.0345 9.36671L1.12452 8.33186C0.958493 8.14305 0.958493 7.86032 1.12452 7.67151L2.03452 6.63664M13.2143 7.29671C10.5256 4.23443 5.47444 4.23443 2.78573 7.29671L2.16581 8.00169L2.78548 8.70638C5.47405 11.7643 10.5211 11.7648 13.2147 8.70616C13.2147 8.70618 13.2147 8.70615 13.2147 8.70616L13.8342 8.00169L13.2143 7.29671Z" fill="black"/>
<path fill-rule="evenodd" clip-rule="evenodd" d="M8 7C7.44772 7 7 7.44772 7 8C7 8.55228 7.44772 9 8 9C8.55228 9 9 8.55228 9 8C9 7.44772 8.55228 7 8 7ZM6 8C6 6.89543 6.89543 6 8 6C9.10457 6 10 6.89543 10 8C10 9.10457 9.10457 10 8 10C6.89543 10 6 9.10457 6 8Z" fill="black"/>
</svg>
