<svg width="16" height="16" viewBox="0 0 16 16" fill="none" xmlns="http://www.w3.org/2000/svg">
<path fill-rule="evenodd" clip-rule="evenodd" d="M10.6664 1.13602C10.667 1.13636 10.6676 1.1367 10.6681 1.13705L12.3477 2.15444C12.348 2.15466 12.3484 2.15488 12.3488 2.1551C12.7991 2.42593 12.9389 3.01112 12.6913 3.46096C12.6912 3.46113 12.6911 3.4613 12.691 3.46148L12.1205 4.50195C12.4675 4.95173 12.7504 5.46042 12.9535 6.01178H14.0545C14.6026 6.01178 15 6.47233 15 6.97969V9.02031C15 9.53566 14.5948 9.98822 14.0545 9.98822H12.9535C12.7513 10.5374 12.472 11.0465 12.1205 11.4981L12.6907 12.5379C12.9421 12.9901 12.7939 13.5712 12.3525 13.8426L12.3496 13.8444L10.6653 14.8647L10.6633 14.8659C10.1994 15.144 9.61834 14.9686 9.3635 14.5062L8.80637 13.4933C8.54436 13.5341 8.27549 13.5561 8 13.5561C7.72451 13.5561 7.45564 13.5341 7.19363 13.4933L6.63772 14.5039C6.3874 14.9669 5.80046 15.1498 5.33358 14.864C5.33301 14.8637 5.33244 14.8633 5.33188 14.863L3.65234 13.8456C3.65199 13.8454 3.65164 13.8451 3.65129 13.8449C3.20096 13.5742 3.06115 12.989 3.30861 12.5392C3.30873 12.539 3.30885 12.5387 3.30897 12.5385L3.87952 11.4981C3.53245 11.0483 3.24961 10.5396 3.04648 9.98822H1.94547C1.39739 9.98822 1 9.52767 1 9.02031V6.97969C1 6.46434 1.40516 6.01178 1.94547 6.01178H3.04647C3.24866 5.46261 3.52796 4.95349 3.87948 4.50186L3.30929 3.46206C3.0579 3.00986 3.20614 2.4288 3.64754 2.15736L3.65039 2.1556L5.33668 1.13413C5.80055 0.855995 6.38166 1.03141 6.6365 1.49385L7.19363 2.50668C7.45564 2.46589 7.72451 2.44395 8 2.44395C8.27549 2.44395 8.54436 2.46589 8.80637 2.50668L9.36227 1.49607C9.61259 1.03309 10.1995 0.8502 10.6664 1.13602ZM7.21236 13.4593C7.21233 13.4593 7.21242 13.4592 7.21236 13.4593V13.4593ZM12.1158 11.4895C12.1157 11.4894 12.1159 11.4897 12.1158 11.4895V11.4895ZM10.2105 2.02896L9.66408 3.02224C9.48367 3.35042 9.11047 3.57504 8.6954 3.50167C8.46876 3.46408 8.23706 3.44395 8 3.44395C7.76195 3.44395 7.5293 3.46425 7.30175 3.50214L7.3003 3.50238C6.89615 3.56847 6.5209 3.35872 6.33604 3.02246L5.78955 2.02896L4.19394 2.99552L4.76063 4.02894C4.94375 4.36257 4.92157 4.78433 4.68446 5.09575L4.6822 5.0987L4.67991 5.10163C4.38277 5.48007 4.14474 5.91354 3.97337 6.3889L3.97286 6.39031C3.83697 6.76376 3.48532 7.01178 3.0933 7.01178H2V8.98822H3.0933C3.48366 8.98822 3.84062 9.23211 3.97426 9.61356C4.14496 10.0863 4.3857 10.5199 4.68122 10.9001C4.92394 11.2119 4.94267 11.6394 4.76082 11.9707C4.76076 11.9708 4.76088 11.9706 4.76082 11.9707L4.19394 13.0045L5.78955 13.971L6.33592 12.9778C6.33588 12.9778 6.33596 12.9777 6.33592 12.9778C6.51634 12.6496 6.88955 12.425 7.30464 12.4983C7.53127 12.5359 7.76296 12.5561 8 12.5561C8.23805 12.5561 8.4707 12.5358 8.69824 12.4979L8.6997 12.4976C9.10883 12.4307 9.47997 12.6492 9.66204 12.9741L9.66397 12.9775L10.2105 13.971L11.8061 13.0045L11.2394 11.9711C11.2393 11.9709 11.2394 11.9712 11.2394 11.9711C11.0563 11.6374 11.0784 11.2157 11.3155 10.9043L11.3178 10.9013L11.3201 10.8984C11.6172 10.5199 11.8553 10.0865 12.0266 9.6111L12.0271 9.60969C12.163 9.23624 12.5147 8.98822 12.9067 8.98822H14V7.01178H12.9067C12.5163 7.01178 12.1594 6.76788 12.0257 6.3864C11.855 5.91372 11.6143 5.48009 11.3188 5.09996C11.076 4.78802 11.0573 4.36042 11.2393 4.02907C11.2393 4.02911 11.2393 4.02903 11.2393 4.02907L11.8061 2.99552L10.2105 2.02896ZM2 6.97968C2 6.97968 2 6.97967 2 6.97968V6.97968ZM8.34294 6.02803C6.96957 5.80347 5.80316 6.96966 6.02812 8.34257C6.16231 9.16455 6.83301 9.83577 7.65671 9.97192M8.34294 6.02803C9.1668 6.16405 9.83762 6.83505 9.97183 7.65715C10.1968 9.03016 9.0302 10.1967 7.65671 9.97192M5.04123 8.50397C4.7058 6.45568 6.45721 4.70606 8.50483 5.04122L8.50544 5.04132C9.75145 5.24686 10.7552 6.24897 10.9588 7.49603C11.2942 9.54432 9.54279 11.2939 7.49517 10.9588L7.49456 10.9587C6.24865 10.7532 5.24493 9.75091 5.04123 8.50397Z" fill="black"/>
</svg>
