<svg width="16" height="16" viewBox="0 0 16 16" fill="none" xmlns="http://www.w3.org/2000/svg">
<path fill-rule="evenodd" clip-rule="evenodd" d="M6.74759 4.04443C6.90286 3.95527 7.09396 3.95594 7.2486 4.04619L10.2633 5.80552C10.4168 5.89514 10.5112 6.05956 10.5112 6.23736C10.5112 6.41516 10.4168 6.57958 10.2633 6.6692L7.2486 8.42854C7.09396 8.51878 6.90286 8.51945 6.74759 8.43029C6.59232 8.34113 6.49658 8.17574 6.49658 7.99669V4.47803C6.49658 4.29898 6.59232 4.1336 6.74759 4.04443ZM7.49658 5.34874V7.12598L9.01926 6.23736L7.49658 5.34874Z" fill="black"/>
<path fill-rule="evenodd" clip-rule="evenodd" d="M1 3.75831C1 2.77508 1.8103 2 2.78607 2H13.2186C14.1909 2 15 2.77625 15 3.75831V10.7417C15 11.7226 14.1967 12.5 13.2186 12.5H2.78607C1.8103 12.5 1 11.7249 1 10.7417V3.75831ZM2.78607 3C2.34113 3 2 3.34857 2 3.75831V10.7417C2 11.1514 2.34113 11.5 2.78607 11.5H13.2186C13.6611 11.5 14 11.1538 14 10.7417V3.75831C14 3.34741 13.6577 3 13.2186 3H2.78607Z" fill="black"/>
<path fill-rule="evenodd" clip-rule="evenodd" d="M8 11.538C8.27614 11.538 8.5 11.7619 8.5 12.038V14.2174C8.5 14.4935 8.27614 14.7174 8 14.7174C7.72386 14.7174 7.5 14.4935 7.5 14.2174V12.038C7.5 11.7619 7.72386 11.538 8 11.538Z" fill="black"/>
<path fill-rule="evenodd" clip-rule="evenodd" d="M4.5 14.5C4.5 14.2239 4.72386 14 5 14H11C11.2761 14 11.5 14.2239 11.5 14.5C11.5 14.7761 11.2761 15 11 15H5C4.72386 15 4.5 14.7761 4.5 14.5Z" fill="black"/>
<path fill-rule="evenodd" clip-rule="evenodd" d="M0.966553 10.0034C0.966553 9.72721 1.19041 9.50336 1.46655 9.50336H14.2019C14.478 9.50336 14.7019 9.72721 14.7019 10.0034C14.7019 10.2795 14.478 10.5034 14.2019 10.5034H1.46655C1.19041 10.5034 0.966553 10.2795 0.966553 10.0034Z" fill="black"/>
</svg>
