<svg width="16" height="16" viewBox="0 0 16 16" fill="none" xmlns="http://www.w3.org/2000/svg">
<path fill-rule="evenodd" clip-rule="evenodd" d="M11.7739 2.38241C11.7739 2.38245 11.7739 2.38237 11.7739 2.38241L5.48606 8.67191L5.0109 10.5629C5.01086 10.5631 5.01081 10.5633 5.01077 10.5635C4.94798 10.8181 5.18136 11.0522 5.43706 10.9892C5.43725 10.9892 5.43744 10.9891 5.43763 10.9891L7.32957 10.5141L13.6175 4.22913C14.1275 3.71938 14.1275 2.89216 13.6175 2.38241L13.6163 2.38123C13.1118 1.87362 12.2847 1.87201 11.7739 2.38241ZM14.325 1.67573C13.4281 0.773911 11.9667 0.7758 11.067 1.67514L4.6812 8.06259C4.61729 8.12652 4.5719 8.20658 4.54987 8.29425L4.0407 10.3206L4.04036 10.322C3.79535 11.309 4.69188 12.2043 5.67834 11.9597L5.67972 11.9593L7.70706 11.4504C7.79475 11.4284 7.87484 11.383 7.93879 11.3191L14.3244 4.93641C15.225 4.03629 15.2252 2.57609 14.325 1.67573Z" fill="black"/>
<path fill-rule="evenodd" clip-rule="evenodd" d="M1 3.56131C1 2.42147 1.92147 1.5 3.06131 1.5H6.97172C7.24786 1.5 7.47172 1.72386 7.47172 2C7.47172 2.27614 7.24786 2.5 6.97172 2.5H3.06131C2.47375 2.5 2 2.97375 2 3.56131V12.9387C2 13.5262 2.47375 14 3.06131 14H12.4387C13.0262 14 13.5 13.5262 13.5 12.9387V9.02828C13.5 8.75214 13.7239 8.52828 14 8.52828C14.2761 8.52828 14.5 8.75214 14.5 9.02828V12.9387C14.5 14.0785 13.5785 15 12.4387 15H3.06131C1.92147 15 1 14.0785 1 12.9387V3.56131Z" fill="black"/>
</svg>
