<svg width="16" height="16" viewBox="0 0 16 16" fill="none" xmlns="http://www.w3.org/2000/svg">
<path fill-rule="evenodd" clip-rule="evenodd" d="M3.125 2C2.50507 2 2 2.50507 2 3.125V12.875C2 13.4949 2.50507 14 3.125 14H12.875C13.4949 14 14 13.4949 14 12.875V5.42321C14 5.13019 13.882 4.84371 13.6682 4.62998L11.3673 2.32907C11.1604 2.11895 10.8759 2 10.5768 2H3.125ZM1 3.125C1 1.95279 1.95279 1 3.125 1H10.5768C11.1406 1 11.6819 1.22409 12.0784 1.62591C12.0789 1.6264 12.0793 1.62688 12.0798 1.62737L14.3753 3.92288C14.7745 4.322 15 4.86196 15 5.42321V12.875C15 14.0472 14.0472 15 12.875 15H3.125C1.95279 15 1 14.0472 1 12.875V3.125Z" fill="black"/>
<path fill-rule="evenodd" clip-rule="evenodd" d="M5 1C5.27614 1 5.5 1.22386 5.5 1.5V5.42857C5.5 6.05677 5.91642 6.5 6.5 6.5H9.5C9.8262 6.5 10.0691 6.38707 10.23 6.22387C10.392 6.05962 10.5 5.81487 10.5 5.5V2C10.5 1.72386 10.7239 1.5 11 1.5C11.2761 1.5 11.5 1.72386 11.5 2V5.5C11.5 6.05166 11.306 6.55691 10.942 6.92603C10.577 7.2962 10.0699 7.5 9.5 7.5H6.5C5.29144 7.5 4.5 6.53344 4.5 5.42857V1.5C4.5 1.22386 4.72386 1 5 1Z" fill="black"/>
<path fill-rule="evenodd" clip-rule="evenodd" d="M6.5 12C5.949 12 5.5 12.449 5.5 13V14.5C5.5 14.7761 5.27614 15 5 15C4.72386 15 4.5 14.7761 4.5 14.5V13C4.5 11.8967 5.39671 11 6.5 11H9.5C10.6033 11 11.5 11.8967 11.5 13V14.5C11.5 14.7761 11.2761 15 11 15C10.7239 15 10.5 14.7761 10.5 14.5V13C10.5 12.449 10.051 12 9.5 12H6.5Z" fill="black"/>
</svg>
