<svg width="16" height="16" viewBox="0 0 16 16" fill="none" xmlns="http://www.w3.org/2000/svg">
<path fill-rule="evenodd" clip-rule="evenodd" d="M13 8C13 7.72386 13.2239 7.5 13.5 7.5H14.5C14.7761 7.5 15 7.72386 15 8C15 8.27614 14.7761 8.5 14.5 8.5H13.5C13.2239 8.5 13 8.27614 13 8Z" fill="black"/>
<path fill-rule="evenodd" clip-rule="evenodd" d="M1 8C1 7.72386 1.22386 7.5 1.5 7.5H2.5C2.77614 7.5 3 7.72386 3 8C3 8.27614 2.77614 8.5 2.5 8.5H1.5C1.22386 8.5 1 8.27614 1 8Z" fill="black"/>
<path fill-rule="evenodd" clip-rule="evenodd" d="M7.99939 1C8.27553 1 8.49939 1.22386 8.49939 1.5V2.5C8.49939 2.77614 8.27553 3 7.99939 3C7.72325 3 7.49939 2.77614 7.49939 2.5V1.5C7.49939 1.22386 7.72325 1 7.99939 1Z" fill="black"/>
<path fill-rule="evenodd" clip-rule="evenodd" d="M13.079 3.15267C13.2708 3.35131 13.2653 3.66784 13.0667 3.85967L12.3473 4.55433C12.1487 4.74615 11.8322 4.74063 11.6403 4.54199C11.4485 4.34335 11.454 4.02681 11.6527 3.83499L12.372 3.14033C12.5707 2.9485 12.8872 2.95403 13.079 3.15267Z" fill="black"/>
<path fill-rule="evenodd" clip-rule="evenodd" d="M13.079 12.542C13.2708 12.3433 13.2653 12.0268 13.0667 11.835L12.3473 11.1403C12.1487 10.9485 11.8322 10.954 11.6403 11.1527C11.4485 11.3513 11.454 11.6678 11.6527 11.8597L12.372 12.5543C12.5707 12.7462 12.8872 12.7406 13.079 12.542Z" fill="black"/>
<path fill-rule="evenodd" clip-rule="evenodd" d="M2.64034 3.15267C2.44852 3.35131 2.45404 3.66784 2.65268 3.85967L3.37202 4.55433C3.57066 4.74615 3.8872 4.74063 4.07902 4.54199C4.27085 4.34335 4.26532 4.02681 4.06668 3.83499L3.34734 3.14033C3.1487 2.9485 2.83217 2.95403 2.64034 3.15267Z" fill="black"/>
<path fill-rule="evenodd" clip-rule="evenodd" d="M2.64034 12.542C2.44852 12.3433 2.45404 12.0268 2.65268 11.835L3.37202 11.1403C3.57066 10.9485 3.8872 10.954 4.07902 11.1527C4.27085 11.3513 4.26532 11.6678 4.06668 11.8597L3.34734 12.5543C3.1487 12.7462 2.83217 12.7406 2.64034 12.542Z" fill="black"/>
<path fill-rule="evenodd" clip-rule="evenodd" d="M7.96879 3.50013C10.1761 3.48252 12 5.21578 12 7.38874C12 8.55692 11.4666 9.59808 10.6403 10.3065C10.2613 10.6328 10.049 11.0944 10.049 11.5749C10.049 12.1018 9.61455 12.5 9.11008 12.5H6.88354C6.37906 12.5 5.94464 12.1018 5.94464 11.5749C5.94464 11.0944 5.73235 10.6328 5.35327 10.3065C4.52894 9.60009 4.00376 8.56209 4.00002 7.40288M7.97677 4.5001C6.31755 4.51354 4.99461 5.83113 5.00002 7.39943L5.00002 7.39956C5.00273 8.25095 5.38721 9.01877 6.00426 9.54739L6.00505 9.54807C6.58056 10.0432 6.92224 10.7487 6.94357 11.5H9.05004C9.07137 10.7487 9.41305 10.0432 9.98857 9.54807L9.98924 9.54749C10.6109 9.01463 11 8.24367 11 7.38874C11 5.80072 9.65872 4.48671 7.97682 4.5001M7.96879 3.50013L7.96874 3.50013L7.96879 3.50013ZM7.96874 3.50013C5.79004 3.51775 3.99269 5.25357 4.00002 7.40275L7.96874 3.50013Z" fill="black"/>
<path fill-rule="evenodd" clip-rule="evenodd" d="M6.5 11.5C6.77614 11.5 7 11.7239 7 12V13.5828C7 13.7988 7.18465 14 7.44662 14H8.55338C8.81535 14 9 13.7988 9 13.5828V12C9 11.7239 9.22386 11.5 9.5 11.5C9.77614 11.5 10 11.7239 10 12V13.5828C10 14.3805 9.33768 15 8.55338 15H7.44662C6.66232 15 6 14.3805 6 13.5828V12C6 11.7239 6.22386 11.5 6.5 11.5Z" fill="black"/>
</svg>
