<svg width="16" height="16" viewBox="0 0 16 16" fill="none" xmlns="http://www.w3.org/2000/svg">
<path fill-rule="evenodd" clip-rule="evenodd" d="M6.5 7C6.5 6.72386 6.72386 6.5 7 6.5H8.90126C9.78604 6.5 10.4989 7.22167 10.4989 8.10185V10C10.4989 10.0935 10.5728 10.1667 10.6648 10.1667H11C11.2761 10.1667 11.5 10.3905 11.5 10.6667V12C11.5 12.2761 11.2761 12.5 11 12.5H7C6.72386 12.5 6.5 12.2761 6.5 12V10.6667C6.5 10.3905 6.72386 10.1667 7 10.1667H7.50115V9C7.50115 8.90648 7.42721 8.83333 7.33525 8.83333H7C6.72386 8.83333 6.5 8.60948 6.5 8.33333V7ZM9.49893 10.0133C9.49888 10.0104 9.49885 10.0075 9.49885 10.0046V8.10185C9.49885 7.76907 9.22888 7.5 8.90126 7.5H7.5V7.84486C8.06511 7.92466 8.50115 8.40907 8.50115 9V10.6667C8.50115 10.9428 8.27729 11.1667 8.00115 11.1667H7.5V11.5H10.5V11.1551C9.93914 11.0759 9.50541 10.5982 9.49893 10.0133Z" fill="black"/>
<path fill-rule="evenodd" clip-rule="evenodd" d="M7 4.50231C7 3.67977 7.66556 3 8.5 3C9.32385 3 10 3.66453 10 4.49769C10 5.32023 9.33444 6 8.5 6C7.67464 6 7 5.32935 7 4.50231ZM8.5 4C8.22435 4 8 4.22554 8 4.50231C8 4.77458 8.22444 5 8.5 5C8.77565 5 9 4.77446 9 4.49769C9 4.22231 8.77707 4 8.5 4Z" fill="black"/>
<path fill-rule="evenodd" clip-rule="evenodd" d="M2 4.5C2 4.22386 2.22386 4 2.5 4H4.5C4.77614 4 5 4.22386 5 4.5C5 4.77614 4.77614 5 4.5 5H2.5C2.22386 5 2 4.77614 2 4.5Z" fill="black"/>
<path fill-rule="evenodd" clip-rule="evenodd" d="M2 8C2 7.72386 2.22386 7.5 2.5 7.5H4.5C4.77614 7.5 5 7.72386 5 8C5 8.27614 4.77614 8.5 4.5 8.5H2.5C2.22386 8.5 2 8.27614 2 8Z" fill="black"/>
<path fill-rule="evenodd" clip-rule="evenodd" d="M3.5 5.5C3.77614 5.5 4 5.72386 4 6V8C4 8.27614 3.77614 8.5 3.5 8.5C3.22386 8.5 3 8.27614 3 8V6C3 5.72386 3.22386 5.5 3.5 5.5Z" fill="black"/>
<path fill-rule="evenodd" clip-rule="evenodd" d="M2 11.5C2 11.2239 2.22386 11 2.5 11H4.5C4.77614 11 5 11.2239 5 11.5C5 11.7761 4.77614 12 4.5 12H2.5C2.22386 12 2 11.7761 2 11.5Z" fill="black"/>
<path fill-rule="evenodd" clip-rule="evenodd" d="M3.5 9C3.77614 9 4 9.22386 4 9.5V11C4 11.2761 3.77614 11.5 3.5 11.5C3.22386 11.5 3 11.2761 3 11V9.5C3 9.22386 3.22386 9 3.5 9Z" fill="black"/>
<path fill-rule="evenodd" clip-rule="evenodd" d="M4.72108 2C4.33649 2 4 2.32806 4 2.748V4.41687C4 4.69301 3.77614 4.91687 3.5 4.91687C3.22386 4.91687 3 4.69301 3 4.41687V2.748C3 1.79644 3.76376 1 4.72108 1H12.7789C13.7362 1 14.5 1.79644 14.5 2.748V13.252C14.5 14.2036 13.7362 15 12.7789 15H4.72108C3.76376 15 3 14.2036 3 13.252V12.9748C3 12.6986 3.22386 12.4748 3.5 12.4748C3.77614 12.4748 4 12.6986 4 12.9748V13.252C4 13.6719 4.33649 14 4.72108 14H12.7789C13.1635 14 13.5 13.6719 13.5 13.252V2.748C13.5 2.32806 13.1635 2 12.7789 2H4.72108Z" fill="black"/>
</svg>
