<svg width="16" height="16" viewBox="0 0 16 16" fill="none" xmlns="http://www.w3.org/2000/svg">
<g clip-path="url(#clip0_437_6510)">
<path fill-rule="evenodd" clip-rule="evenodd" d="M8.00001 1.96667C4.66789 1.96667 1.96667 4.66789 1.96667 8.00001C1.96667 11.3321 4.66789 14.0333 8.00001 14.0333C11.3321 14.0333 14.0333 11.3321 14.0333 8.00001C14.0333 4.66789 11.3321 1.96667 8.00001 1.96667ZM0.966675 8.00001C0.966675 4.11561 4.11561 0.966675 8.00001 0.966675C11.8844 0.966675 15.0333 4.11561 15.0333 8.00001C15.0333 11.8844 11.8844 15.0333 8.00001 15.0333C4.11561 15.0333 0.966675 11.8844 0.966675 8.00001Z" fill="black"/>
<path fill-rule="evenodd" clip-rule="evenodd" d="M10.9342 6.16711C11.1295 6.36237 11.1295 6.67895 10.9342 6.87421L7.3222 10.4862C7.12694 10.6815 6.81035 10.6815 6.61509 10.4862L5.06576 8.93688C4.8705 8.74162 4.8705 8.42504 5.06576 8.22977C5.26102 8.03451 5.5776 8.03451 5.77286 8.22977L6.96864 9.42555L10.2271 6.16711C10.4224 5.97184 10.7389 5.97184 10.9342 6.16711Z" fill="black"/>
</g>
<defs>
<clipPath id="clip0_437_6510">
<rect width="16" height="16" fill="white"/>
</clipPath>
</defs>
</svg>
