<svg width="16" height="16" viewBox="0 0 16 16" fill="none" xmlns="http://www.w3.org/2000/svg">
<path fill-rule="evenodd" clip-rule="evenodd" d="M2.1 2C2.04477 2 2 2.04477 2 2.1V3.9C2 3.95523 2.04477 4 2.1 4H3.9C3.95523 4 4 3.95523 4 3.9V2.1C4 2.04477 3.95523 2 3.9 2H2.1ZM1 2.1C1 1.49249 1.49249 1 2.1 1H3.9C4.50751 1 5 1.49249 5 2.1V3.9C5 4.50751 4.50751 5 3.9 5H2.1C1.49249 5 1 4.50751 1 3.9V2.1Z" fill="black"/>
<path fill-rule="evenodd" clip-rule="evenodd" d="M2.1 12C2.04477 12 2 12.0448 2 12.1V13.9C2 13.9552 2.04477 14 2.1 14H3.9C3.95523 14 4 13.9552 4 13.9V12.1C4 12.0448 3.95523 12 3.9 12H2.1ZM1 12.1C1 11.4925 1.49249 11 2.1 11H3.9C4.50751 11 5 11.4925 5 12.1V13.9C5 14.5075 4.50751 15 3.9 15H2.1C1.49249 15 1 14.5075 1 13.9V12.1Z" fill="black"/>
<path fill-rule="evenodd" clip-rule="evenodd" d="M2.51697 8C2.51697 7.72386 2.74083 7.5 3.01697 7.5H8.83053C9.10667 7.5 9.33053 7.72386 9.33053 8C9.33053 8.27614 9.10667 8.5 8.83053 8.5H3.01697C2.74083 8.5 2.51697 8.27614 2.51697 8Z" fill="black"/>
<path fill-rule="evenodd" clip-rule="evenodd" d="M3.01697 4.17798C3.29311 4.17798 3.51697 4.40184 3.51697 4.67798V11.322C3.51697 11.5982 3.29311 11.822 3.01697 11.822C2.74083 11.822 2.51697 11.5982 2.51697 11.322V4.67798C2.51697 4.40184 2.74083 4.17798 3.01697 4.17798Z" fill="black"/>
<path fill-rule="evenodd" clip-rule="evenodd" d="M9.62857 2C9.57323 2 9.5 2.05123 9.5 2.15V13.85C9.5 13.9488 9.57323 14 9.62857 14H13.8714C13.9268 14 14 13.9488 14 13.85V2.15C14 2.05123 13.9268 2 13.8714 2H9.62857ZM8.5 2.15C8.5 1.5308 8.98961 1 9.62857 1H13.8714C14.5104 1 15 1.5308 15 2.15V13.85C15 14.4692 14.5104 15 13.8714 15H9.62857C8.98961 15 8.5 14.4692 8.5 13.85V2.15Z" fill="black"/>
<path fill-rule="evenodd" clip-rule="evenodd" d="M10.5 4C10.5 3.72386 10.7239 3.5 11 3.5H12.5C12.7761 3.5 13 3.72386 13 4C13 4.27614 12.7761 4.5 12.5 4.5H11C10.7239 4.5 10.5 4.27614 10.5 4Z" fill="black"/>
<path fill-rule="evenodd" clip-rule="evenodd" d="M10.5 6C10.5 5.72386 10.7239 5.5 11 5.5H12.5C12.7761 5.5 13 5.72386 13 6C13 6.27614 12.7761 6.5 12.5 6.5H11C10.7239 6.5 10.5 6.27614 10.5 6Z" fill="black"/>
</svg>
