<svg width="16" height="16" viewBox="0 0 16 16" fill="none" xmlns="http://www.w3.org/2000/svg">
<rect width="16" height="16" fill="white"/>
<path fill-rule="evenodd" clip-rule="evenodd" d="M12 2H4V4H12V2ZM4 1C3.44772 1 3 1.44772 3 2V4C3 4.55228 3.44772 5 4 5H12C12.5523 5 13 4.55228 13 4V2C13 1.44772 12.5523 1 12 1H4Z" fill="black"/>
<path fill-rule="evenodd" clip-rule="evenodd" d="M12 7H4V9H12V7ZM4 6C3.44772 6 3 6.44772 3 7V9C3 9.55228 3.44772 10 4 10H12C12.5523 10 13 9.55228 13 9V7C13 6.44772 12.5523 6 12 6H4Z" fill="black"/>
<path fill-rule="evenodd" clip-rule="evenodd" d="M12 12H4V14H12V12ZM4 11C3.44772 11 3 11.4477 3 12V14C3 14.5523 3.44772 15 4 15H12C12.5523 15 13 14.5523 13 14V12C13 11.4477 12.5523 11 12 11H4Z" fill="black"/>
<path fill-rule="evenodd" clip-rule="evenodd" d="M5 3C5 2.72386 5.22386 2.5 5.5 2.5H6C6.27614 2.5 6.5 2.72386 6.5 3C6.5 3.27614 6.27614 3.5 6 3.5H5.5C5.22386 3.5 5 3.27614 5 3Z" fill="black"/>
<path fill-rule="evenodd" clip-rule="evenodd" d="M7.5 3C7.5 2.72386 7.72386 2.5 8 2.5H10.5C10.7761 2.5 11 2.72386 11 3C11 3.27614 10.7761 3.5 10.5 3.5H8C7.72386 3.5 7.5 3.27614 7.5 3Z" fill="black"/>
<path fill-rule="evenodd" clip-rule="evenodd" d="M5 8C5 7.72386 5.22386 7.5 5.5 7.5H6C6.27614 7.5 6.5 7.72386 6.5 8C6.5 8.27614 6.27614 8.5 6 8.5H5.5C5.22386 8.5 5 8.27614 5 8Z" fill="black"/>
<path fill-rule="evenodd" clip-rule="evenodd" d="M7.5 8C7.5 7.72386 7.72386 7.5 8 7.5H10.5C10.7761 7.5 11 7.72386 11 8C11 8.27614 10.7761 8.5 10.5 8.5H8C7.72386 8.5 7.5 8.27614 7.5 8Z" fill="black"/>
<path fill-rule="evenodd" clip-rule="evenodd" d="M5 13C5 12.7239 5.22386 12.5 5.5 12.5H6C6.27614 12.5 6.5 12.7239 6.5 13C6.5 13.2761 6.27614 13.5 6 13.5H5.5C5.22386 13.5 5 13.2761 5 13Z" fill="black"/>
<path fill-rule="evenodd" clip-rule="evenodd" d="M7.5 13C7.5 12.7239 7.72386 12.5 8 12.5H10.5C10.7761 12.5 11 12.7239 11 13C11 13.2761 10.7761 13.5 10.5 13.5H8C7.72386 13.5 7.5 13.2761 7.5 13Z" fill="black"/>
</svg>
