<svg width="16" height="16" viewBox="0 0 16 16" fill="none" xmlns="http://www.w3.org/2000/svg">
<g clip-path="url(#clip0_437_6673)">
<path fill-rule="evenodd" clip-rule="evenodd" d="M8.00001 1.96667C4.66789 1.96667 1.96667 4.66789 1.96667 8.00001C1.96667 11.3321 4.66789 14.0333 8.00001 14.0333C11.3321 14.0333 14.0333 11.3321 14.0333 8.00001C14.0333 4.66789 11.3321 1.96667 8.00001 1.96667ZM0.966675 8.00001C0.966675 4.11561 4.11561 0.966675 8.00001 0.966675C11.8844 0.966675 15.0333 4.11561 15.0333 8.00001C15.0333 11.8844 11.8844 15.0333 8.00001 15.0333C4.11561 15.0333 0.966675 11.8844 0.966675 8.00001Z" fill="black"/>
<path fill-rule="evenodd" clip-rule="evenodd" d="M11.3216 4.67843C11.466 4.82289 11.5081 5.04072 11.4277 5.22857L9.64974 9.38657C9.58448 9.53918 9.44773 9.64947 9.28476 9.68092C9.12178 9.71238 8.95382 9.6609 8.83645 9.54353L6.45645 7.16353C6.33908 7.04617 6.28761 6.8782 6.31907 6.71523C6.35052 6.55225 6.4608 6.41551 6.61342 6.35025L10.7714 4.57225C10.9593 4.49192 11.1771 4.53396 11.3216 4.67843ZM7.68623 6.9791L9.02089 8.31376L10.018 5.98202L7.68623 6.9791Z" fill="black"/>
<path fill-rule="evenodd" clip-rule="evenodd" d="M6.71524 6.31906C6.87822 6.2876 7.04618 6.33908 7.16355 6.45644L9.54355 8.83644C9.66092 8.95381 9.71239 9.12177 9.68094 9.28475C9.64948 9.44773 9.5392 9.58447 9.38658 9.64973L5.22858 11.4277C5.04073 11.5081 4.82291 11.466 4.67844 11.3216C4.53398 11.1771 4.49194 10.9593 4.57226 10.7714L6.35026 6.61341C6.41552 6.4608 6.55227 6.35051 6.71524 6.31906ZM6.97911 7.68622L5.98204 10.018L8.31378 9.02088L6.97911 7.68622Z" fill="black"/>
</g>
<defs>
<clipPath id="clip0_437_6673">
<rect width="16" height="16" fill="white"/>
</clipPath>
</defs>
</svg>
