<svg width="16" height="16" viewBox="0 0 16 16" fill="none" xmlns="http://www.w3.org/2000/svg">
<path fill-rule="evenodd" clip-rule="evenodd" d="M0.966675 2.51201C0.966675 1.66187 1.66187 0.966675 2.51201 0.966675H10.352C11.2022 0.966675 11.8973 1.66187 11.8973 2.51201V6.17068C11.8973 6.44682 11.6735 6.67068 11.3973 6.67068C11.1212 6.67068 10.8973 6.44682 10.8973 6.17068V2.51201C10.8973 2.21415 10.6499 1.96667 10.352 1.96667H2.51201C2.21415 1.96667 1.96667 2.21415 1.96667 2.51201V6.69334C1.96667 6.9912 2.21415 7.23868 2.51201 7.23868C2.78815 7.23868 3.01201 7.46253 3.01201 7.73868V8.89508L3.80266 8.36798C4.03242 8.21481 4.34286 8.27689 4.49603 8.50666C4.64921 8.73642 4.58712 9.04686 4.35736 9.20003L2.78936 10.2454C2.63593 10.3477 2.43866 10.3572 2.27608 10.2702C2.1135 10.1832 2.01201 10.0137 2.01201 9.82934V8.15522C1.4054 7.94628 0.966675 7.3687 0.966675 6.69334V2.51201Z" fill="black"/>
<path fill-rule="evenodd" clip-rule="evenodd" d="M5.12541 6.67067C4.82289 6.67067 4.58008 6.91348 4.58008 7.216V11.3973C4.58008 11.6999 4.82289 11.9427 5.12541 11.9427H9.82941C9.92812 11.9427 10.0246 11.9719 10.1068 12.0266L12.4654 13.5991V12.4427C12.4654 12.1665 12.6893 11.9427 12.9654 11.9427C13.2679 11.9427 13.5107 11.6999 13.5107 11.3973V7.216C13.5107 6.91348 13.2679 6.67067 12.9654 6.67067H5.12541ZM3.58008 7.216C3.58008 6.36119 4.2706 5.67067 5.12541 5.67067H12.9654C13.8202 5.67067 14.5107 6.36119 14.5107 7.216V11.3973C14.5107 12.0771 14.0741 12.6529 13.4654 12.8603V14.5333C13.4654 14.7177 13.3639 14.8872 13.2013 14.9742C13.0388 15.0612 12.8415 15.0516 12.6881 14.9494L9.67802 12.9427H5.12541C4.2706 12.9427 3.58008 12.2521 3.58008 11.3973V7.216Z" fill="black"/>
</svg>
