<svg width="16" height="16" viewBox="0 0 16 16" fill="none" xmlns="http://www.w3.org/2000/svg">
<path d="M8.12814 11H7.87186C7.66583 11 7.5 11.155 7.5 11.345V11.655C7.5 11.845 7.66583 12 7.87186 12H8.12814C8.33417 12 8.5 11.845 8.5 11.655V11.345C8.5 11.155 8.33417 11 8.12814 11Z" fill="black"/>
<path fill-rule="evenodd" clip-rule="evenodd" d="M8.07183 5.00241C7.497 4.96279 7 5.43146 7 6.03563C7 6.31177 6.77614 6.53563 6.5 6.53563C6.22386 6.53563 6 6.31177 6 6.03563C6 4.88163 6.95894 3.92284 8.1414 4.00484L8.14218 4.00489C9.13334 4.07518 9.92802 4.88828 9.99487 5.8883C10.0496 6.66836 9.66325 7.37193 9.06127 7.75457L9.06097 7.75475C8.71042 7.97723 8.49802 8.35835 8.49802 8.77754V9.50001C8.49802 9.77615 8.27416 10 7.99802 10C7.72187 10 7.49802 9.77615 7.49802 9.50001V8.77754C7.49802 8.01303 7.88805 7.31489 8.52484 6.91062M8.07183 5.00241C8.55305 5.03674 8.96305 5.44162 8.99713 5.95555L8.99712 5.95555L8.99728 5.95773C9.02579 6.36103 8.82641 6.71892 8.52486 6.9106" fill="black"/>
<path fill-rule="evenodd" clip-rule="evenodd" d="M8 14C11.3137 14 14 11.3137 14 8C14 4.68629 11.3137 2 8 2C4.68629 2 2 4.68629 2 8C2 11.3137 4.68629 14 8 14ZM8 15C11.866 15 15 11.866 15 8C15 4.13401 11.866 1 8 1C4.13401 1 1 4.13401 1 8C1 11.866 4.13401 15 8 15Z" fill="black"/>
</svg>
