<svg width="16" height="16" viewBox="0 0 16 16" fill="none" xmlns="http://www.w3.org/2000/svg">
<path fill-rule="evenodd" clip-rule="evenodd" d="M6.2963 1.86138C6.2963 1.38803 6.68351 1 7.15741 1H7.5C7.77614 1 8 1.22386 8 1.5C8 1.77614 7.77614 2 7.5 2H7.2963V3.09007C7.2963 3.31989 7.13963 3.52011 6.91656 3.57539C6.45897 3.68878 6.02994 3.86697 5.64161 4.10446C5.44447 4.22503 5.1904 4.19479 5.02706 4.03133L4.25889 3.26259L3.2661 4.25612L4.0348 5.02538C4.19795 5.18865 4.22813 5.44239 4.10784 5.63938C3.87049 6.02805 3.6924 6.45747 3.57907 6.9155C3.52385 7.13865 3.32359 7.2954 3.0937 7.2954H2V8.7046H3.08889C3.31877 8.7046 3.51904 8.86135 3.57425 9.0845C3.68758 9.54253 3.86568 9.97195 4.10302 10.3606C4.22332 10.5576 4.19313 10.8113 4.02998 10.9746L3.26129 11.7439L4.25407 12.7374L5.02224 11.9687C5.18558 11.8052 5.43965 11.775 5.63679 11.8955C6.02513 12.133 6.45416 12.3112 6.91175 12.4246C7.13482 12.4799 7.29148 12.6801 7.29148 12.9099V14H7.5C7.77614 14 8 14.2239 8 14.5C8 14.7761 7.77614 15 7.5 15H7.15259C6.67869 15 6.29148 14.612 6.29148 14.1386V13.2872C6.00475 13.1947 5.72738 13.0799 5.46189 12.9434L4.86294 13.5428C4.52802 13.878 3.98013 13.878 3.6452 13.5428L2.45595 12.3527C2.12123 12.0177 2.12123 11.4701 2.45595 11.1351L3.05525 10.5353C2.91878 10.2695 2.80399 9.99173 2.71151 9.7046H1.86111C1.38721 9.7046 1 9.31656 1 8.84322V7.15678C1 6.68344 1.38721 6.2954 1.86111 6.2954H2.71633C2.80881 6.00827 2.92359 5.73051 3.06007 5.46467L2.46076 4.86491C2.12604 4.52995 2.12604 3.98228 2.46076 3.64732L3.65002 2.45718C3.98494 2.12201 4.53284 2.12201 4.86776 2.45718L5.4667 3.05657C5.73219 2.92012 6.00956 2.80534 6.2963 2.71285V1.86138Z" fill="black"/>
<path fill-rule="evenodd" clip-rule="evenodd" d="M10.5 4.5C10.5 4.22386 10.7239 4 11 4H12C12.2761 4 12.5 4.22386 12.5 4.5C12.5 4.77614 12.2761 5 12 5H11.5V6.5C11.5 6.77614 11.2761 7 11 7H7.5C7.22386 7 7 6.77614 7 6.5C7 6.22386 7.22386 6 7.5 6H10.5V4.5Z" fill="black"/>
<path fill-rule="evenodd" clip-rule="evenodd" d="M9.5 3.5C9.77614 3.5 10 3.72386 10 4V5C10 5.27614 9.77614 5.5 9.5 5.5H7.5C6.54698 5.5 5.93969 5.91374 5.55625 6.425C5.15687 6.9575 5 7.60051 5 8C5 8.43448 5.11162 9.07328 5.47212 9.58827C5.81239 10.0744 6.40666 10.5 7.5 10.5H9.5C9.77614 10.5 10 10.7239 10 11V12C10 12.2761 9.77614 12.5 9.5 12.5C9.22386 12.5 9 12.2761 9 12V11.5H7.5C6.09334 11.5 5.18761 10.9256 4.65288 10.1617C4.13838 9.42672 4 8.56552 4 8C4 7.39949 4.21813 6.5425 4.75625 5.825C5.31031 5.08626 6.20302 4.5 7.5 4.5H9V4C9 3.72386 9.22386 3.5 9.5 3.5Z" fill="black"/>
<path fill-rule="evenodd" clip-rule="evenodd" d="M5.91006 6.74991C6.25958 6.30347 6.83459 6 7.68 6C7.95614 6 8.18 6.22386 8.18 6.5C8.18 6.77614 7.95614 7 7.68 7C7.09541 7 6.83042 7.19653 6.69744 7.36637C6.54598 7.55983 6.5 7.80485 6.5 7.96512C6.5 8.12765 6.5471 8.39556 6.70548 8.6093C6.8438 8.79597 7.10832 9 7.68 9H11C11.2761 9 11.5 9.22386 11.5 9.5V11H12.5C12.7761 11 13 11.2239 13 11.5C13 11.7761 12.7761 12 12.5 12H11C10.7239 12 10.5 11.7761 10.5 11.5V10H7.68C6.82168 10 6.2462 9.66915 5.90202 9.20465C5.5779 8.76723 5.5 8.2677 5.5 7.96512C5.5 7.66027 5.57902 7.17273 5.91006 6.74991Z" fill="black"/>
<path fill-rule="evenodd" clip-rule="evenodd" d="M7 8C7 7.72386 7.22386 7.5 7.5 7.5H12.25C12.5261 7.5 12.75 7.72386 12.75 8C12.75 8.27614 12.5261 8.5 12.25 8.5H7.5C7.22386 8.5 7 8.27614 7 8Z" fill="black"/>
<path fill-rule="evenodd" clip-rule="evenodd" d="M9.5 2C9.22386 2 9 2.22386 9 2.5C9 2.77614 9.22386 3 9.5 3C9.77614 3 10 2.77614 10 2.5C10 2.22386 9.77614 2 9.5 2ZM8 2.5C8 1.67157 8.67157 1 9.5 1C10.3284 1 11 1.67157 11 2.5C11 3.32843 10.3284 4 9.5 4C8.67157 4 8 3.32843 8 2.5Z" fill="black"/>
<path fill-rule="evenodd" clip-rule="evenodd" d="M13.5 4C13.2239 4 13 4.22386 13 4.5C13 4.77614 13.2239 5 13.5 5C13.7761 5 14 4.77614 14 4.5C14 4.22386 13.7761 4 13.5 4ZM12 4.5C12 3.67157 12.6716 3 13.5 3C14.3284 3 15 3.67157 15 4.5C15 5.32843 14.3284 6 13.5 6C12.6716 6 12 5.32843 12 4.5Z" fill="black"/>
<path fill-rule="evenodd" clip-rule="evenodd" d="M13.5 7.5C13.2239 7.5 13 7.72386 13 8C13 8.27614 13.2239 8.5 13.5 8.5C13.7761 8.5 14 8.27614 14 8C14 7.72386 13.7761 7.5 13.5 7.5ZM12 8C12 7.17157 12.6716 6.5 13.5 6.5C14.3284 6.5 15 7.17157 15 8C15 8.82843 14.3284 9.5 13.5 9.5C12.6716 9.5 12 8.82843 12 8Z" fill="black"/>
<path fill-rule="evenodd" clip-rule="evenodd" d="M9.5 13C9.22386 13 9 13.2239 9 13.5C9 13.7761 9.22386 14 9.5 14C9.77614 14 10 13.7761 10 13.5C10 13.2239 9.77614 13 9.5 13ZM8 13.5C8 12.6716 8.67157 12 9.5 12C10.3284 12 11 12.6716 11 13.5C11 14.3284 10.3284 15 9.5 15C8.67157 15 8 14.3284 8 13.5Z" fill="black"/>
<path fill-rule="evenodd" clip-rule="evenodd" d="M13.5 11C13.2239 11 13 11.2239 13 11.5C13 11.7761 13.2239 12 13.5 12C13.7761 12 14 11.7761 14 11.5C14 11.2239 13.7761 11 13.5 11ZM12 11.5C12 10.6716 12.6716 10 13.5 10C14.3284 10 15 10.6716 15 11.5C15 12.3284 14.3284 13 13.5 13C12.6716 13 12 12.3284 12 11.5Z" fill="black"/>
</svg>
