<svg width="16" height="16" viewBox="0 0 16 16" fill="none" xmlns="http://www.w3.org/2000/svg">
<path fill-rule="evenodd" clip-rule="evenodd" d="M1 5C1 4.72386 1.22386 4.5 1.5 4.5H8C8.27614 4.5 8.5 4.72386 8.5 5C8.5 5.27614 8.27614 5.5 8 5.5H1.5C1.22386 5.5 1 5.27614 1 5Z" fill="black"/>
<path fill-rule="evenodd" clip-rule="evenodd" d="M12 5C12 4.72386 12.2239 4.5 12.5 4.5H14.5C14.7761 4.5 15 4.72386 15 5C15 5.27614 14.7761 5.5 14.5 5.5H12.5C12.2239 5.5 12 5.27614 12 5Z" fill="black"/>
<path fill-rule="evenodd" clip-rule="evenodd" d="M1 11.5C1 11.2239 1.22386 11 1.5 11H2.66858C2.94472 11 3.16858 11.2239 3.16858 11.5C3.16858 11.7761 2.94472 12 2.66858 12H1.5C1.22386 12 1 11.7761 1 11.5Z" fill="black"/>
<path fill-rule="evenodd" clip-rule="evenodd" d="M7 11.5C7 11.2239 7.22386 11 7.5 11H14.5C14.7761 11 15 11.2239 15 11.5C15 11.7761 14.7761 12 14.5 12H7.5C7.22386 12 7 11.7761 7 11.5Z" fill="black"/>
<path fill-rule="evenodd" clip-rule="evenodd" d="M10.25 3C9.2835 3 8.5 3.7835 8.5 4.75C8.5 5.7165 9.2835 6.5 10.25 6.5C11.2165 6.5 12 5.7165 12 4.75C12 3.7835 11.2165 3 10.25 3ZM7.5 4.75C7.5 3.23122 8.73122 2 10.25 2C11.7688 2 13 3.23122 13 4.75C13 6.26878 11.7688 7.5 10.25 7.5C8.73122 7.5 7.5 6.26878 7.5 4.75Z" fill="black"/>
<path fill-rule="evenodd" clip-rule="evenodd" d="M5.25 9.5C4.2835 9.5 3.5 10.2835 3.5 11.25C3.5 12.2165 4.2835 13 5.25 13C6.2165 13 7 12.2165 7 11.25C7 10.2835 6.2165 9.5 5.25 9.5ZM2.5 11.25C2.5 9.73122 3.73122 8.5 5.25 8.5C6.76878 8.5 8 9.73122 8 11.25C8 12.7688 6.76878 14 5.25 14C3.73122 14 2.5 12.7688 2.5 11.25Z" fill="black"/>
</svg>
