<svg width="16" height="16" viewBox="0 0 16 16" fill="none" xmlns="http://www.w3.org/2000/svg">
<path fill-rule="evenodd" clip-rule="evenodd" d="M4.5 2C3.67157 2 3 2.67157 3 3.5C3 4.32843 3.67157 5 4.5 5C5.32843 5 6 4.32843 6 3.5C6 2.67157 5.32843 2 4.5 2ZM2 3.5C2 2.11929 3.11929 1 4.5 1C5.88071 1 7 2.11929 7 3.5C7 4.88071 5.88071 6 4.5 6C3.11929 6 2 4.88071 2 3.5Z" fill="black"/>
<path fill-rule="evenodd" clip-rule="evenodd" d="M11.5 11C10.6716 11 10 11.6716 10 12.5C10 13.3284 10.6716 14 11.5 14C12.3284 14 13 13.3284 13 12.5C13 11.6716 12.3284 11 11.5 11ZM9 12.5C9 11.1193 10.1193 10 11.5 10C12.8807 10 14 11.1193 14 12.5C14 13.8807 12.8807 15 11.5 15C10.1193 15 9 13.8807 9 12.5Z" fill="black"/>
<path fill-rule="evenodd" clip-rule="evenodd" d="M6.33333 3.5C6.33333 3.22386 6.55719 3 6.83333 3H11.1667C12.716 3 14 4.21249 14 5.75C14 7.28751 12.716 8.5 11.1667 8.5H5.83333C4.8017 8.5 4 9.29874 4 10.25C4 11.2013 4.8017 12 5.83333 12H9.5C9.77614 12 10 12.2239 10 12.5C10 12.7761 9.77614 13 9.5 13H5.83333C4.28401 13 3 11.7875 3 10.25C3 8.71249 4.28401 7.5 5.83333 7.5H11.1667C12.1983 7.5 13 6.70126 13 5.75C13 4.79874 12.1983 4 11.1667 4H6.83333C6.55719 4 6.33333 3.77614 6.33333 3.5Z" fill="black"/>
</svg>
