<svg width="16" height="16" viewBox="0 0 16 16" fill="none" xmlns="http://www.w3.org/2000/svg">
<path fill-rule="evenodd" clip-rule="evenodd" d="M3 9.5C3.27614 9.5 3.5 9.72386 3.5 10V12.7991C3.5 12.906 3.58707 13 3.70857 13H7C7.27614 13 7.5 13.2239 7.5 13.5C7.5 13.7761 7.27614 14 7 14H3.70857C3.04378 14 2.5 13.4672 2.5 12.7991V10C2.5 9.72386 2.72386 9.5 3 9.5Z" fill="black"/>
<path fill-rule="evenodd" clip-rule="evenodd" d="M5.64645 12.1464C5.84171 11.9512 6.15829 11.9512 6.35355 12.1464L7.35355 13.1464C7.54882 13.3417 7.54882 13.6583 7.35355 13.8536L6.35355 14.8536C6.15829 15.0488 5.84171 15.0488 5.64645 14.8536C5.45118 14.6583 5.45118 14.3417 5.64645 14.1464L6.29289 13.5L5.64645 12.8536C5.45118 12.6583 5.45118 12.3417 5.64645 12.1464Z" fill="black"/>
<path fill-rule="evenodd" clip-rule="evenodd" d="M8.5 2.5C8.5 2.22386 8.72386 2 9 2H12.225C12.8834 2 13.5 2.49181 13.5 3.20087V6C13.5 6.27614 13.2761 6.5 13 6.5C12.7239 6.5 12.5 6.27614 12.5 6V3.20087C12.5 3.13505 12.4266 3 12.225 3H9C8.72386 3 8.5 2.77614 8.5 2.5Z" fill="black"/>
<path fill-rule="evenodd" clip-rule="evenodd" d="M10.3536 1.14645C10.5488 1.34171 10.5488 1.65829 10.3536 1.85355L9.70711 2.5L10.3536 3.14645C10.5488 3.34171 10.5488 3.65829 10.3536 3.85355C10.1583 4.04882 9.84171 4.04882 9.64645 3.85355L8.64645 2.85355C8.55268 2.75979 8.5 2.63261 8.5 2.5C8.5 2.36739 8.55268 2.24021 8.64645 2.14645L9.64645 1.14645C9.84171 0.951184 10.1583 0.951184 10.3536 1.14645Z" fill="black"/>
<path fill-rule="evenodd" clip-rule="evenodd" d="M4.25 2C3.83579 2 3.5 2.33579 3.5 2.75C3.5 3.16421 3.83579 3.5 4.25 3.5C4.66421 3.5 5 3.16421 5 2.75C5 2.33579 4.66421 2 4.25 2ZM2.5 2.75C2.5 1.7835 3.2835 1 4.25 1C5.2165 1 6 1.7835 6 2.75C6 3.7165 5.2165 4.5 4.25 4.5C3.2835 4.5 2.5 3.7165 2.5 2.75Z" fill="black"/>
<path fill-rule="evenodd" clip-rule="evenodd" d="M1.00006 6.38351C0.993046 5.62618 1.60284 5 2.36371 5H6.13633C6.9019 5 7.5 5.63005 7.5 6.37937V6.38287L7.49999 6.38287L7.49051 7.73971C7.48936 8.15408 7.15556 8.4954 6.73426 8.4954H6.72925L6.72925 8.49537C6.10272 8.4891 4.45461 8.49355 3.17534 8.49701C2.58096 8.49861 2.06621 8.5 1.77053 8.5C1.35536 8.5 1.01071 8.1648 1.00954 7.73974C1.00954 7.73902 1.00953 7.73829 1.00953 7.73757H1.50953L1.00955 7.74106L1.00954 7.73974L1.00007 6.38428L1.50004 6.37937L1.00006 6.38287L1.00006 6.38351ZM2.36371 6C2.16627 6 1.99797 6.16529 2.00002 6.37447L2.00003 6.37588L2.00788 7.49979C2.3021 7.49935 2.70579 7.49826 3.15711 7.49704C4.29714 7.49397 5.74106 7.49008 6.4922 7.4937L6.5 6.37794C6.49925 6.16114 6.32892 6 6.13633 6H2.36371Z" fill="black"/>
<path fill-rule="evenodd" clip-rule="evenodd" d="M11.75 8.5C11.3358 8.5 11 8.83579 11 9.25C11 9.66421 11.3358 10 11.75 10C12.1642 10 12.5 9.66421 12.5 9.25C12.5 8.83579 12.1642 8.5 11.75 8.5ZM10 9.25C10 8.2835 10.7835 7.5 11.75 7.5C12.7165 7.5 13.5 8.2835 13.5 9.25C13.5 10.2165 12.7165 11 11.75 11C10.7835 11 10 10.2165 10 9.25Z" fill="black"/>
<path fill-rule="evenodd" clip-rule="evenodd" d="M8.50006 12.8838C8.49289 12.1259 9.10349 11.5 9.86446 11.5H13.6356C14.4012 11.5 15 12.1296 15 12.8794V12.8814H15L14.9952 14.0646L14.9952 14.0725C14.9851 14.579 14.5732 14.9954 14.0583 14.9954H14.056V14.9954C13.4049 14.9925 12.1249 14.9951 11.0161 14.9975C10.3878 14.9988 9.81449 15 9.44175 15C8.92951 15 8.51082 14.5846 8.50955 14.0696L8.50007 12.8843C8.50007 12.8841 8.50006 12.884 8.50006 12.8838ZM9.86446 12.5C9.66619 12.5 9.49797 12.6657 9.50002 12.8745L9.50003 12.8754L9.50902 14C9.87724 13.9999 10.4165 13.9987 11.0057 13.9975C12.0816 13.9952 13.324 13.9926 13.9955 13.9951L14 12.8794C14 12.8791 14 12.8788 14 12.8785C13.9996 12.6618 13.8292 12.5 13.6356 12.5H9.86446Z" fill="black"/>
</svg>
