<svg width="16" height="16" viewBox="0 0 16 16" fill="none" xmlns="http://www.w3.org/2000/svg">
<g clip-path="url(#clip0_437_6440)">
<path fill-rule="evenodd" clip-rule="evenodd" d="M6.84734 1.96667C4.15182 1.96667 1.96667 4.15182 1.96667 6.84733C1.96667 9.54285 4.15182 11.728 6.84734 11.728C9.54286 11.728 11.728 9.54285 11.728 6.84733C11.728 4.15182 9.54286 1.96667 6.84734 1.96667ZM0.966675 6.84733C0.966675 3.59953 3.59954 0.966667 6.84734 0.966667C10.0951 0.966667 12.728 3.59953 12.728 6.84733C12.728 10.0951 10.0951 12.728 6.84734 12.728C3.59954 12.728 0.966675 10.0951 0.966675 6.84733Z" fill="black"/>
<path fill-rule="evenodd" clip-rule="evenodd" d="M10.3344 10.3345C10.5297 10.1392 10.8463 10.1392 11.0415 10.3345L14.8869 14.1798C15.0821 14.375 15.0821 14.6916 14.8869 14.8869C14.6916 15.0822 14.375 15.0822 14.1798 14.8869L10.3344 11.0416C10.1392 10.8463 10.1392 10.5297 10.3344 10.3345Z" fill="black"/>
</g>
<defs>
<clipPath id="clip0_437_6440">
<rect width="16" height="16" fill="white"/>
</clipPath>
</defs>
</svg>
