<svg width="16" height="16" viewBox="0 0 16 16" fill="none" xmlns="http://www.w3.org/2000/svg">
<path fill-rule="evenodd" clip-rule="evenodd" d="M8 2C7.72386 2 7.5 2.22386 7.5 2.5C7.5 2.77614 7.72386 3 8 3C8.27614 3 8.5 2.77614 8.5 2.5C8.5 2.22386 8.27614 2 8 2ZM6.5 2.5C6.5 1.67157 7.17157 1 8 1C8.82843 1 9.5 1.67157 9.5 2.5C9.5 3.32843 8.82843 4 8 4C7.17157 4 6.5 3.32843 6.5 2.5Z" fill="black"/>
<path fill-rule="evenodd" clip-rule="evenodd" d="M8 13C7.72386 13 7.5 13.2239 7.5 13.5C7.5 13.7761 7.72386 14 8 14C8.27614 14 8.5 13.7761 8.5 13.5C8.5 13.2239 8.27614 13 8 13ZM6.5 13.5C6.5 12.6716 7.17157 12 8 12C8.82843 12 9.5 12.6716 9.5 13.5C9.5 14.3284 8.82843 15 8 15C7.17157 15 6.5 14.3284 6.5 13.5Z" fill="black"/>
<path fill-rule="evenodd" clip-rule="evenodd" d="M2.5 7.5C2.22386 7.5 2 7.72386 2 8C2 8.27614 2.22386 8.5 2.5 8.5C2.77614 8.5 3 8.27614 3 8C3 7.72386 2.77614 7.5 2.5 7.5ZM1 8C1 7.17157 1.67157 6.5 2.5 6.5C3.32843 6.5 4 7.17157 4 8C4 8.82843 3.32843 9.5 2.5 9.5C1.67157 9.5 1 8.82843 1 8Z" fill="black"/>
<path fill-rule="evenodd" clip-rule="evenodd" d="M13.5 7.5C13.2239 7.5 13 7.72386 13 8C13 8.27614 13.2239 8.5 13.5 8.5C13.7761 8.5 14 8.27614 14 8C14 7.72386 13.7761 7.5 13.5 7.5ZM12 8C12 7.17157 12.6716 6.5 13.5 6.5C14.3284 6.5 15 7.17157 15 8C15 8.82843 14.3284 9.5 13.5 9.5C12.6716 9.5 12 8.82843 12 8Z" fill="black"/>
<path fill-rule="evenodd" clip-rule="evenodd" d="M4 3.5C3.72386 3.5 3.5 3.72386 3.5 4C3.5 4.27614 3.72386 4.5 4 4.5C4.27614 4.5 4.5 4.27614 4.5 4C4.5 3.72386 4.27614 3.5 4 3.5ZM2.5 4C2.5 3.17157 3.17157 2.5 4 2.5C4.82843 2.5 5.5 3.17157 5.5 4C5.5 4.82843 4.82843 5.5 4 5.5C3.17157 5.5 2.5 4.82843 2.5 4Z" fill="black"/>
<path fill-rule="evenodd" clip-rule="evenodd" d="M12 3.5C11.7239 3.5 11.5 3.72386 11.5 4C11.5 4.27614 11.7239 4.5 12 4.5C12.2761 4.5 12.5 4.27614 12.5 4C12.5 3.72386 12.2761 3.5 12 3.5ZM10.5 4C10.5 3.17157 11.1716 2.5 12 2.5C12.8284 2.5 13.5 3.17157 13.5 4C13.5 4.82843 12.8284 5.5 12 5.5C11.1716 5.5 10.5 4.82843 10.5 4Z" fill="black"/>
<path fill-rule="evenodd" clip-rule="evenodd" d="M4.01545 11.5103C3.73932 11.5075 3.51316 11.729 3.5103 12.0051C3.50744 12.2813 3.72897 12.5074 4.0051 12.5103C4.28122 12.5131 4.50739 12.2916 4.51025 12.0155C4.5131 11.7394 4.29158 11.5132 4.01545 11.5103ZM2.51035 11.9948C2.51893 11.1664 3.19742 10.5018 4.0258 10.5104C4.85418 10.519 5.51877 11.1974 5.51019 12.0258C5.50162 12.8542 4.82313 13.5188 3.99475 13.5102C3.16636 13.5016 2.50178 12.8232 2.51035 11.9948Z" fill="black"/>
<path fill-rule="evenodd" clip-rule="evenodd" d="M12 11.5C11.7239 11.5 11.5 11.7239 11.5 12C11.5 12.2761 11.7239 12.5 12 12.5C12.2761 12.5 12.5 12.2761 12.5 12C12.5 11.7239 12.2761 11.5 12 11.5ZM10.5 12C10.5 11.1716 11.1716 10.5 12 10.5C12.8284 10.5 13.5 11.1716 13.5 12C13.5 12.8284 12.8284 13.5 12 13.5C11.1716 13.5 10.5 12.8284 10.5 12Z" fill="black"/>
<path fill-rule="evenodd" clip-rule="evenodd" d="M9.15975 9.15975C9.35501 8.96449 9.6716 8.96449 9.86686 9.15975L11.5935 10.8864C11.7888 11.0817 11.7888 11.3983 11.5935 11.5935C11.3983 11.7888 11.0817 11.7888 10.8864 11.5935L9.15975 9.86686C8.96449 9.6716 8.96449 9.35501 9.15975 9.15975Z" fill="black"/>
<path fill-rule="evenodd" clip-rule="evenodd" d="M4.38219 4.35414C4.57874 4.16017 4.89531 4.16226 5.08928 4.35881L6.84261 6.13548C7.03658 6.33203 7.03449 6.6486 6.83794 6.84257C6.64139 7.03654 6.32482 7.03445 6.13085 6.8379L4.37752 5.06123C4.18355 4.86468 4.18564 4.54811 4.38219 4.35414Z" fill="black"/>
<path fill-rule="evenodd" clip-rule="evenodd" d="M11.6099 4.30627C11.8089 4.49767 11.8151 4.81419 11.6237 5.01324L9.87372 6.83324C9.68233 7.03229 9.3658 7.0385 9.16675 6.8471C8.9677 6.65571 8.96149 6.33919 9.15289 6.14013L10.9029 4.32013C11.0943 4.12108 11.4108 4.11487 11.6099 4.30627Z" fill="black"/>
<path fill-rule="evenodd" clip-rule="evenodd" d="M6.84018 9.15975C7.03544 9.35501 7.03544 9.6716 6.84018 9.86686L5.06351 11.6435C4.86825 11.8388 4.55167 11.8388 4.35641 11.6435C4.16115 11.4483 4.16115 11.1317 4.35641 10.9364L6.13307 9.15975C6.32834 8.96449 6.64492 8.96449 6.84018 9.15975Z" fill="black"/>
<path fill-rule="evenodd" clip-rule="evenodd" d="M8 3.25C8.27614 3.25 8.5 3.47386 8.5 3.75V5.85667C8.5 6.13281 8.27614 6.35667 8 6.35667C7.72386 6.35667 7.5 6.13281 7.5 5.85667V3.75C7.5 3.47386 7.72386 3.25 8 3.25Z" fill="black"/>
<path fill-rule="evenodd" clip-rule="evenodd" d="M8 9.64331C8.27614 9.64331 8.5 9.86717 8.5 10.1433V12.25C8.5 12.5261 8.27614 12.75 8 12.75C7.72386 12.75 7.5 12.5261 7.5 12.25V10.1433C7.5 9.86717 7.72386 9.64331 8 9.64331Z" fill="black"/>
<path fill-rule="evenodd" clip-rule="evenodd" d="M9.64331 8C9.64331 7.72386 9.86717 7.5 10.1433 7.5H12.25C12.5261 7.5 12.75 7.72386 12.75 8C12.75 8.27614 12.5261 8.5 12.25 8.5H10.1433C9.86717 8.5 9.64331 8.27614 9.64331 8Z" fill="black"/>
<path fill-rule="evenodd" clip-rule="evenodd" d="M3 8C3 7.72386 3.22386 7.5 3.5 7.5H5.85667C6.13281 7.5 6.35667 7.72386 6.35667 8C6.35667 8.27614 6.13281 8.5 5.85667 8.5H3.5C3.22386 8.5 3 8.27614 3 8Z" fill="black"/>
<path fill-rule="evenodd" clip-rule="evenodd" d="M8 6.5C7.17157 6.5 6.5 7.17157 6.5 8C6.5 8.82843 7.17157 9.5 8 9.5C8.82843 9.5 9.5 8.82843 9.5 8C9.5 7.17157 8.82843 6.5 8 6.5ZM5.5 8C5.5 6.61929 6.61929 5.5 8 5.5C9.38071 5.5 10.5 6.61929 10.5 8C10.5 9.38071 9.38071 10.5 8 10.5C6.61929 10.5 5.5 9.38071 5.5 8Z" fill="black"/>
</svg>
