<svg width="16" height="16" viewBox="0 0 16 16" fill="none" xmlns="http://www.w3.org/2000/svg">
<path fill-rule="evenodd" clip-rule="evenodd" d="M13.5552 1.50307C13.8297 1.53356 14.0274 1.78077 13.9969 2.05522L13.7469 4.30522C13.7164 4.57968 13.4692 4.77744 13.1948 4.74695L10.9448 4.49695C10.6703 4.46646 10.4726 4.21925 10.5031 3.94479C10.5336 3.67034 10.7808 3.47257 11.0552 3.50307L12.8083 3.69785L13.0031 1.94479C13.0336 1.67033 13.2808 1.47257 13.5552 1.50307Z" fill="black"/>
<path fill-rule="evenodd" clip-rule="evenodd" d="M3.04983 3.04909C5.78724 0.317165 10.2179 0.31666 12.9507 3.04944C13.146 3.2447 13.146 3.56128 12.9508 3.75654C12.7555 3.95181 12.4389 3.95181 12.2436 3.75655C9.90177 1.41472 6.10379 1.41417 3.75635 3.75678C1.41471 6.09863 1.41424 9.89635 3.7568 12.2437C6.09873 14.5853 9.89664 14.5858 12.244 12.2431C13.8481 10.6387 14.3528 8.35338 13.7599 6.31771C13.6826 6.05259 13.835 5.77506 14.1001 5.69783C14.3652 5.6206 14.6427 5.77292 14.72 6.03804C15.4108 8.40969 14.8238 11.0775 12.9507 12.9506L12.9504 12.9509C10.213 15.6828 5.7823 15.6833 3.04948 12.9506L3.04912 12.9502C0.317153 10.2128 0.316647 5.78222 3.04948 3.04944L3.04983 3.04909Z" fill="black"/>
<path fill-rule="evenodd" clip-rule="evenodd" d="M8 5.5C7.449 5.5 7 5.949 7 6.5C7 7.051 7.449 7.5 8 7.5C9.10329 7.5 10 8.39671 10 9.5C10 10.6033 9.10329 11.5 8 11.5C6.89765 11.5 6 10.6085 6 9.5C6 9.22386 6.22386 9 6.5 9C6.77614 9 7 9.22386 7 9.5C7 10.051 7.449 10.5 8 10.5C8.551 10.5 9 10.051 9 9.5C9 8.949 8.551 8.5 8 8.5C6.89671 8.5 6 7.60329 6 6.5C6 5.39671 6.89671 4.5 8 4.5C9.10235 4.5 10 5.3915 10 6.5C10 6.77614 9.77614 7 9.5 7C9.22386 7 9 6.77614 9 6.5C9 5.949 8.551 5.5 8 5.5Z" fill="black"/>
<path fill-rule="evenodd" clip-rule="evenodd" d="M8 3C8.27614 3 8.5 3.22386 8.5 3.5V4.5C8.5 4.77614 8.27614 5 8 5C7.72386 5 7.5 4.77614 7.5 4.5V3.5C7.5 3.22386 7.72386 3 8 3Z" fill="black"/>
<path fill-rule="evenodd" clip-rule="evenodd" d="M8 11C8.27614 11 8.5 11.2239 8.5 11.5V12.5C8.5 12.7761 8.27614 13 8 13C7.72386 13 7.5 12.7761 7.5 12.5V11.5C7.5 11.2239 7.72386 11 8 11Z" fill="black"/>
</svg>
