<svg width="16" height="16" viewBox="0 0 16 16" fill="none" xmlns="http://www.w3.org/2000/svg">
<path fill-rule="evenodd" clip-rule="evenodd" d="M7.26546 5.00024C7.47101 5.0066 7.6517 5.13817 7.72087 5.33183L8.85236 8.5H13C13.2761 8.5 13.5 8.72386 13.5 9C13.5 9.27614 13.2761 9.5 13 9.5H8.5C8.28869 9.5 8.1002 9.36717 8.02913 9.16817L7.20767 6.86807L6.20957 9.19696C6.13078 9.3808 5.95001 9.5 5.75 9.5H3C2.72386 9.5 2.5 9.27614 2.5 9C2.5 8.72386 2.72386 8.5 3 8.5H5.4203L6.79043 5.30304C6.87144 5.11402 7.05992 4.99388 7.26546 5.00024Z" fill="black"/>
<path fill-rule="evenodd" clip-rule="evenodd" d="M6.61636 3.1137C6.03427 2.69816 5.30196 2.38335 4.50517 2.51993L4.50476 2.52C3.89453 2.62407 3.38684 2.98558 2.98385 3.43606C2.58084 3.88656 2.31226 4.39411 2.18195 4.71418C1.72543 5.84087 1.99281 7.18438 3.05027 8.7963C4.05897 10.3339 5.73538 12.0315 7.96267 13.8662C10.1938 12.0281 11.8889 10.317 12.9153 8.76596C13.9927 7.13786 14.2732 5.78381 13.8182 4.66071C13.6906 4.34713 13.425 3.86485 13.0242 3.43742C12.6248 3.0116 12.1153 2.66487 11.4956 2.55909C10.6973 2.42402 9.96297 2.73261 9.38083 3.13831C8.80088 3.5425 8.43229 4.0026 8.39844 4.04724C8.30391 4.17189 8.15648 4.24512 8.00003 4.24512C7.84359 4.24512 7.69616 4.17189 7.60163 4.04724C7.56377 3.99731 7.1952 3.52692 6.61636 3.1137ZM8.00403 2.99405C7.80155 2.78679 7.52848 2.53617 7.19737 2.2998C6.50784 1.80756 5.50424 1.33417 4.33646 1.53426C3.43011 1.6889 2.73386 2.21565 2.23855 2.76933C1.74337 3.32287 1.41932 3.93525 1.25559 4.33754L1.25532 4.33821C0.620018 5.90559 1.07603 7.60997 2.21413 9.34483C3.35409 11.0825 5.23499 12.9439 7.64779 14.9003C7.83137 15.0492 8.0941 15.0491 8.27766 14.9003C10.6928 12.9414 12.5916 11.0672 13.7492 9.31782C14.9035 7.57363 15.3815 5.85545 14.7447 4.28452L14.7445 4.28385C14.5781 3.87508 14.251 3.28368 13.7536 2.75333C13.2547 2.22139 12.5603 1.72624 11.6634 1.57328L11.6628 1.57318C10.5013 1.37649 9.4997 1.83658 8.80907 2.31789C8.47966 2.54747 8.20717 2.79115 8.00403 2.99405Z" fill="black"/>
</svg>
