<svg width="16" height="16" viewBox="0 0 16 16" fill="none" xmlns="http://www.w3.org/2000/svg">
<path fill-rule="evenodd" clip-rule="evenodd" d="M7.74831 13C7.74831 13 7.74862 13 7.74926 13L7.74831 13ZM7.99997 13H9.99997L9.99997 14C9.99813 14 9.99627 14 9.99439 14H8.00554C8.00367 14 8.00181 14 7.99997 14L7.99997 13ZM10.2516 13C10.2516 13 10.2513 13 10.2507 13L10.2516 13ZM7.32071 12.1176C7.46578 12.0233 7.62247 12 7.74997 12H10.25C10.3775 12 10.5342 12.0233 10.6792 12.1176C10.8336 12.2178 10.915 12.359 10.9552 12.4827C10.9915 12.5945 10.998 12.7026 11 12.772C11.0013 12.8177 11.0007 12.8767 11.0003 12.9222C11.0001 12.9406 11 12.9568 11 12.969C11 12.969 11 12.969 11 12.969L11 14.25C11 14.3867 10.9696 14.5464 10.8662 14.6902C10.7619 14.8353 10.6228 14.9093 10.5083 14.947C10.4001 14.9826 10.2941 14.9926 10.2176 14.9967C10.1503 15.0002 10.078 15.0001 10.0195 15C10.0108 15 10.0024 15 9.99439 15H8.00554C7.99751 15 7.98911 15 7.9804 15C7.92196 15.0001 7.8496 15.0002 7.78231 14.9967C7.70586 14.9926 7.59978 14.9826 7.49167 14.947C7.37715 14.9093 7.23805 14.8353 7.13375 14.6902C7.03031 14.5464 6.99998 14.3867 6.99998 14.25C6.99998 14.25 6.99998 14.25 6.99998 14.25L6.99997 12.969C6.99997 12.9568 6.99981 12.9406 6.99964 12.9222C6.99921 12.8767 6.99865 12.8177 6.99997 12.772C7.00198 12.7026 7.00844 12.5945 7.04477 12.4827C7.085 12.359 7.16639 12.2178 7.32071 12.1176Z" fill="black"/>
<path fill-rule="evenodd" clip-rule="evenodd" d="M3 8C2.51773 8 2 8.48424 2 9.25C2 10.0158 2.51773 10.5 3 10.5H4V8H3ZM1 9.25C1 8.08155 1.82687 7 3 7H5V11.5H3C1.82687 11.5 1 10.4184 1 9.25Z" fill="black"/>
<path fill-rule="evenodd" clip-rule="evenodd" d="M11 7H13C14.1731 7 15 8.08155 15 9.25C15 10.4184 14.1731 11.5 13 11.5H11V7ZM12 8V10.5H13C13.4823 10.5 14 10.0158 14 9.25C14 8.48424 13.4823 8 13 8H12Z" fill="black"/>
<path fill-rule="evenodd" clip-rule="evenodd" d="M8 2C5.852 2 4 4.01226 4 6.64286V7.5H3V6.64286C3 3.58924 5.17876 1 8 1C10.8212 1 13 3.58924 13 6.64286V7.5H12V6.64286C12 4.01226 10.148 2 8 2Z" fill="black"/>
<path fill-rule="evenodd" clip-rule="evenodd" d="M6.50075 14C5.01938 14 4 12.5478 4 11H5C5 12.2153 5.76839 13 6.50075 13H7.5V14H6.50075Z" fill="black"/>
</svg>
