<svg width="16" height="16" viewBox="0 0 16 16" fill="none" xmlns="http://www.w3.org/2000/svg">
<rect width="16" height="16" fill="white"/>
<path fill-rule="evenodd" clip-rule="evenodd" d="M8.43826 1.11276C10.5841 2.25961 12.554 2.89273 13.3043 3.10953L13.3101 3.11121L13.3101 3.11125C13.6905 3.22614 14 3.56662 14 4.00763V7C14 7.27614 13.7761 7.5 13.5 7.5C13.2239 7.5 13 7.27614 13 7V4.06248C12.1941 3.82814 10.1889 3.17825 7.99781 2.0112C5.8123 3.18458 3.80043 3.8299 3 4.06698V9.57293C3 10.3213 3.56795 11.1181 4.47691 11.8825C5.35999 12.6251 6.44513 13.2369 7.22427 13.6279C7.47108 13.7518 7.57074 14.0523 7.44688 14.2991C7.32302 14.5459 7.02253 14.6456 6.77573 14.5217C5.96845 14.1166 4.80359 13.4638 3.83328 12.6478C2.88884 11.8536 2 10.7975 2 9.57293V4.01227C2 3.58028 2.30076 3.2262 2.69592 3.11409C3.45237 2.89086 5.42382 2.26236 7.55619 1.11326C7.83055 0.962412 8.16378 0.962247 8.43826 1.11276Z" fill="black"/>
<path d="M9.01002 15C8.74502 15 8.49002 14.895 8.30002 14.705C8.04502 14.45 7.94502 14.095 8.03502 13.745H8.03002L8.33502 12.53C8.35502 12.44 8.40502 12.36 8.46502 12.3L12.295 8.46C12.91 7.845 13.915 7.845 14.535 8.46C15.155 9.08 15.155 10.08 14.535 10.7L10.705 14.53C10.64 14.595 10.56 14.64 10.475 14.66L9.26002 14.965C9.17502 14.985 9.09502 14.995 9.01002 14.995V15ZM9.00002 13.985C9.00002 13.985 9.00002 13.985 9.00002 13.99L10.1 13.725L13.83 9.995C14.055 9.77 14.055 9.4 13.83 9.17C13.6 8.94 13.23 8.94 13.005 9.17L9.27002 12.905L9.00002 13.985Z" fill="black"/>
</svg>
