<svg width="16" height="16" viewBox="0 0 16 16" fill="none" xmlns="http://www.w3.org/2000/svg">
<path fill-rule="evenodd" clip-rule="evenodd" d="M8 4.5C7.72386 4.5 7.5 4.72386 7.5 5C7.5 5.27614 7.72386 5.5 8 5.5C8.27614 5.5 8.5 5.27614 8.5 5C8.5 4.72386 8.27614 4.5 8 4.5ZM6.5 5C6.5 4.17157 7.17157 3.5 8 3.5C8.82843 3.5 9.5 4.17157 9.5 5C9.5 5.82843 8.82843 6.5 8 6.5C7.17157 6.5 6.5 5.82843 6.5 5Z" fill="black"/>
<path fill-rule="evenodd" clip-rule="evenodd" d="M7.26031 5.92689L5.48296 7.01086L4.96227 6.15711L6.73962 5.07314L7.26031 5.92689Z" fill="black"/>
<path fill-rule="evenodd" clip-rule="evenodd" d="M8.73969 5.99677L10.517 7.08075L11.0377 6.227L9.26038 5.14302L8.73969 5.99677Z" fill="black"/>
<path fill-rule="evenodd" clip-rule="evenodd" d="M11.5 6.5C11.2239 6.5 11 6.72386 11 7C11 7.27614 11.2239 7.5 11.5 7.5C11.7761 7.5 12 7.27614 12 7C12 6.72386 11.7761 6.5 11.5 6.5ZM10 7C10 6.17157 10.6716 5.5 11.5 5.5C12.3284 5.5 13 6.17157 13 7C13 7.82843 12.3284 8.5 11.5 8.5C10.6716 8.5 10 7.82843 10 7Z" fill="black"/>
<path fill-rule="evenodd" clip-rule="evenodd" d="M4.5 6.5C4.22386 6.5 4 6.72386 4 7C4 7.27614 4.22386 7.5 4.5 7.5C4.77614 7.5 5 7.27614 5 7C5 6.72386 4.77614 6.5 4.5 6.5ZM3 7C3 6.17157 3.67157 5.5 4.5 5.5C5.32843 5.5 6 6.17157 6 7C6 7.82843 5.32843 8.5 4.5 8.5C3.67157 8.5 3 7.82843 3 7Z" fill="black"/>
<path fill-rule="evenodd" clip-rule="evenodd" d="M2.78375 3C2.34192 3 2 3.349 2 3.75965V10.7403C2 11.151 2.34192 11.5 2.78375 11.5H13.2162C13.6581 11.5 14 11.151 14 10.7403V3.75965C14 3.349 13.6581 3 13.2162 3H2.78375ZM1 3.75965C1 2.77893 1.80759 2 2.78375 2H13.2162C14.1924 2 15 2.77893 15 3.75965V10.7403C15 11.7211 14.1924 12.5 13.2162 12.5H2.78375C1.80759 12.5 1 11.7211 1 10.7403V3.75965Z" fill="black"/>
<path fill-rule="evenodd" clip-rule="evenodd" d="M8 11.5216C8.27614 11.5216 8.5 11.7455 8.5 12.0216V14.191C8.5 14.4671 8.27614 14.691 8 14.691C7.72386 14.691 7.5 14.4671 7.5 14.191V12.0216C7.5 11.7455 7.72386 11.5216 8 11.5216Z" fill="black"/>
<path fill-rule="evenodd" clip-rule="evenodd" d="M4.5 14.5C4.5 14.2239 4.72386 14 5 14L11 14C11.2761 14 11.5 14.2239 11.5 14.5C11.5 14.7761 11.2761 15 11 15L5 15C4.72386 15 4.5 14.7761 4.5 14.5Z" fill="black"/>
<path fill-rule="evenodd" clip-rule="evenodd" d="M1 10C1 9.72386 1.22386 9.5 1.5 9.5H14.1688C14.4449 9.5 14.6688 9.72386 14.6688 10C14.6688 10.2761 14.4449 10.5 14.1688 10.5H1.5C1.22386 10.5 1 10.2761 1 10Z" fill="black"/>
</svg>
