<svg width="16" height="16" viewBox="0 0 16 16" fill="none" xmlns="http://www.w3.org/2000/svg">
<path fill-rule="evenodd" clip-rule="evenodd" d="M14 3H2V13H14V3ZM2 2C1.44772 2 1 2.44772 1 3V13C1 13.5523 1.44772 14 2 14H14C14.5523 14 15 13.5523 15 13V3C15 2.44772 14.5523 2 14 2H2Z" fill="black"/>
<path fill-rule="evenodd" clip-rule="evenodd" d="M6 7C6.55228 7 7 6.55228 7 6C7 5.44772 6.55228 5 6 5C5.44772 5 5 5.44772 5 6C5 6.55228 5.44772 7 6 7ZM6 8C7.10457 8 8 7.10457 8 6C8 4.89543 7.10457 4 6 4C4.89543 4 4 4.89543 4 6C4 7.10457 4.89543 8 6 8Z" fill="black"/>
<path fill-rule="evenodd" clip-rule="evenodd" d="M4.14439 9.64933C4.02593 9.73894 3.99946 9.82212 3.99995 9.87301L4 9.87783L3.99997 10.5H7.9999V9.82771C8.00065 9.75074 7.97008 9.68263 7.89255 9.62098C7.80826 9.55395 7.66982 9.5 7.49701 9.5H4.59976C4.43351 9.5 4.26355 9.55919 4.14439 9.64933ZM3.54111 8.8518C3.83618 8.62859 4.21855 8.5 4.59976 8.5H7.49701C8.19845 8.5 9.00679 8.95537 8.9999 9.83473V11C8.9999 11.2761 8.77605 11.5 8.4999 11.5H3.49997C3.22383 11.5 2.99997 11.2761 2.99997 11V9.87992C2.99665 9.42984 3.24593 9.07509 3.54111 8.8518Z" fill="black"/>
<path fill-rule="evenodd" clip-rule="evenodd" d="M9.5 5C9.5 4.72386 9.72386 4.5 10 4.5H12.5C12.7761 4.5 13 4.72386 13 5C13 5.27614 12.7761 5.5 12.5 5.5H10C9.72386 5.5 9.5 5.27614 9.5 5Z" fill="black"/>
<path fill-rule="evenodd" clip-rule="evenodd" d="M9.5 7C9.5 6.72386 9.72386 6.5 10 6.5H12.5C12.7761 6.5 13 6.72386 13 7C13 7.27614 12.7761 7.5 12.5 7.5H10C9.72386 7.5 9.5 7.27614 9.5 7Z" fill="black"/>
</svg>
