<svg width="16" height="16" viewBox="0 0 16 16" fill="none" xmlns="http://www.w3.org/2000/svg">
<g clip-path="url(#clip0_437_6664)">
<path fill-rule="evenodd" clip-rule="evenodd" d="M9.67932 1.46667C9.67932 1.19053 9.90318 0.966675 10.1793 0.966675H14.0333C14.5856 0.966675 15.0333 1.41439 15.0333 1.96667V5.82067C15.0333 6.09682 14.8095 6.32067 14.5333 6.32067C14.2572 6.32067 14.0333 6.09682 14.0333 5.82067L14.0333 1.96667H10.1793C9.90318 1.96667 9.67932 1.74282 9.67932 1.46667Z" fill="black"/>
<path fill-rule="evenodd" clip-rule="evenodd" d="M14.3536 1.64645C14.5488 1.84171 14.5488 2.15829 14.3536 2.35355L10.3536 6.35355C10.1583 6.54882 9.84171 6.54882 9.64645 6.35355C9.45118 6.15829 9.45118 5.84171 9.64645 5.64645L13.6464 1.64645C13.8417 1.45118 14.1583 1.45118 14.3536 1.64645Z" fill="black"/>
<path fill-rule="evenodd" clip-rule="evenodd" d="M1.46667 9.67932C1.74282 9.67932 1.96667 9.90318 1.96667 10.1793V14.0333H5.82067C6.09682 14.0333 6.32067 14.2572 6.32067 14.5333C6.32067 14.8095 6.09682 15.0333 5.82067 15.0333H1.96667C1.41439 15.0333 0.966675 14.5856 0.966675 14.0333V10.1793C0.966675 9.90318 1.19053 9.67932 1.46667 9.67932Z" fill="black"/>
<path fill-rule="evenodd" clip-rule="evenodd" d="M6.35355 9.64645C6.54882 9.84171 6.54882 10.1583 6.35355 10.3536L2.35355 14.3536C2.15829 14.5488 1.84171 14.5488 1.64645 14.3536C1.45118 14.1583 1.45118 13.8417 1.64645 13.6464L5.64645 9.64645C5.84171 9.45118 6.15829 9.45118 6.35355 9.64645Z" fill="black"/>
</g>
<defs>
<clipPath id="clip0_437_6664">
<rect width="16" height="16" fill="white"/>
</clipPath>
</defs>
</svg>
