<svg width="16" height="16" viewBox="0 0 16 16" fill="none" xmlns="http://www.w3.org/2000/svg">
<path fill-rule="evenodd" clip-rule="evenodd" d="M5.3254 7.12037C5.53506 7.30008 5.55934 7.61573 5.37963 7.8254L4.15854 9.25L5.37963 10.6746C5.55934 10.8843 5.53506 11.1999 5.3254 11.3796C5.11573 11.5593 4.80008 11.5351 4.62037 11.3254L3.12037 9.5754C2.95988 9.38815 2.95988 9.11185 3.12037 8.92461L4.62037 7.17461C4.80008 6.96494 5.11573 6.94066 5.3254 7.12037Z" fill="black"/>
<path fill-rule="evenodd" clip-rule="evenodd" d="M10.6746 7.12037C10.8843 6.94066 11.1999 6.96494 11.3796 7.17461L12.8796 8.92461C13.0401 9.11185 13.0401 9.38815 12.8796 9.5754L11.3796 11.3254C11.1999 11.5351 10.8843 11.5593 10.6746 11.3796C10.465 11.1999 10.4407 10.8843 10.6204 10.6746L11.8415 9.25L10.6204 7.8254C10.4407 7.61573 10.465 7.30008 10.6746 7.12037Z" fill="black"/>
<path fill-rule="evenodd" clip-rule="evenodd" d="M8.94391 5.51493C9.21181 5.58191 9.37469 5.85338 9.30772 6.12127L7.80772 12.1213C7.74074 12.3892 7.46927 12.5521 7.20138 12.4851C6.93348 12.4181 6.7706 12.1466 6.83757 11.8787L8.33757 5.87874C8.40455 5.61084 8.67601 5.44796 8.94391 5.51493Z" fill="black"/>
<path fill-rule="evenodd" clip-rule="evenodd" d="M1 4H15V13.0345C15 14.0802 14.2094 15 13.1483 15H2.85166C1.79058 15 1 14.0802 1 13.0345V4ZM2 5V13.0345C2 13.6063 2.41812 14 2.85166 14H13.1483C13.5819 14 14 13.6063 14 13.0345V5H2Z" fill="black"/>
<path fill-rule="evenodd" clip-rule="evenodd" d="M1 2.99505C1 1.94267 1.78192 1 2.852 1H13.148C14.2181 1 15 1.94267 15 2.99505V5H1V2.99505ZM2.852 2C2.42708 2 2 2.39727 2 2.99505V4H14V2.99505C14 2.39727 13.5729 2 13.148 2H2.852Z" fill="black"/>
<path d="M3.62332 2.5H3.37668C3.16865 2.5 3 2.65477 3 2.84568V3.15432C3 3.34523 3.16865 3.5 3.37668 3.5H3.62332C3.83135 3.5 4 3.34523 4 3.15432V2.84568C4 2.65477 3.83135 2.5 3.62332 2.5Z" fill="black"/>
<path d="M5.12332 2.5H4.87668C4.66865 2.5 4.5 2.65477 4.5 2.84568V3.15432C4.5 3.34523 4.66865 3.5 4.87668 3.5H5.12332C5.33135 3.5 5.5 3.34523 5.5 3.15432V2.84568C5.5 2.65477 5.33135 2.5 5.12332 2.5Z" fill="black"/>
<path d="M6.62332 2.5H6.37668C6.16865 2.5 6 2.65477 6 2.84568V3.15432C6 3.34523 6.16865 3.5 6.37668 3.5H6.62332C6.83135 3.5 7 3.34523 7 3.15432V2.84568C7 2.65477 6.83135 2.5 6.62332 2.5Z" fill="black"/>
</svg>
