<svg width="16" height="16" viewBox="0 0 16 16" fill="none" xmlns="http://www.w3.org/2000/svg">
<path d="M2.12619 14H1.87381C1.66736 14 1.5 14.1555 1.5 14.3473V14.6527C1.5 14.8445 1.66736 15 1.87381 15H2.12619C2.33264 15 2.5 14.8445 2.5 14.6527V14.3473C2.5 14.1555 2.33264 14 2.12619 14Z" fill="black"/>
<path d="M3.62619 14H3.37381C3.16736 14 3 14.1555 3 14.3473V14.6527C3 14.8445 3.16736 15 3.37381 15H3.62619C3.83264 15 4 14.8445 4 14.6527V14.3473C4 14.1555 3.83264 14 3.62619 14Z" fill="black"/>
<path d="M5.12619 14H4.87381C4.66736 14 4.5 14.1555 4.5 14.3473V14.6527C4.5 14.8445 4.66736 15 4.87381 15H5.12619C5.33264 15 5.5 14.8445 5.5 14.6527V14.3473C5.5 14.1555 5.33264 14 5.12619 14Z" fill="black"/>
<path d="M6.62619 14H6.37381C6.16736 14 6 14.1555 6 14.3473V14.6527C6 14.8445 6.16736 15 6.37381 15H6.62619C6.83264 15 7 14.8445 7 14.6527V14.3473C7 14.1555 6.83264 14 6.62619 14Z" fill="black"/>
<path d="M8.12619 14H7.87381C7.66736 14 7.5 14.1555 7.5 14.3473V14.6527C7.5 14.8445 7.66736 15 7.87381 15H8.12619C8.33264 15 8.5 14.8445 8.5 14.6527V14.3473C8.5 14.1555 8.33264 14 8.12619 14Z" fill="black"/>
<path d="M9.62619 14H9.37381C9.16736 14 9 14.1555 9 14.3473V14.6527C9 14.8445 9.16736 15 9.37381 15H9.62619C9.83264 15 10 14.8445 10 14.6527V14.3473C10 14.1555 9.83264 14 9.62619 14Z" fill="black"/>
<path d="M11.1262 14H10.8738C10.6674 14 10.5 14.1555 10.5 14.3473V14.6527C10.5 14.8445 10.6674 15 10.8738 15H11.1262C11.3326 15 11.5 14.8445 11.5 14.6527V14.3473C11.5 14.1555 11.3326 14 11.1262 14Z" fill="black"/>
<path d="M12.6262 14H12.3738C12.1674 14 12 14.1555 12 14.3473V14.6527C12 14.8445 12.1674 15 12.3738 15H12.6262C12.8326 15 13 14.8445 13 14.6527V14.3473C13 14.1555 12.8326 14 12.6262 14Z" fill="black"/>
<path d="M14.1262 14H13.8738C13.6674 14 13.5 14.1555 13.5 14.3473V14.6527C13.5 14.8445 13.6674 15 13.8738 15H14.1262C14.3326 15 14.5 14.8445 14.5 14.6527V14.3473C14.5 14.1555 14.3326 14 14.1262 14Z" fill="black"/>
<path d="M2.12619 1H1.87381C1.66736 1 1.5 1.15551 1.5 1.34735V1.65265C1.5 1.84449 1.66736 2 1.87381 2H2.12619C2.33264 2 2.5 1.84449 2.5 1.65265V1.34735C2.5 1.15551 2.33264 1 2.12619 1Z" fill="black"/>
<path d="M3.62619 1H3.37381C3.16736 1 3 1.15551 3 1.34735V1.65265C3 1.84449 3.16736 2 3.37381 2H3.62619C3.83264 2 4 1.84449 4 1.65265V1.34735C4 1.15551 3.83264 1 3.62619 1Z" fill="black"/>
<path d="M5.12619 1H4.87381C4.66736 1 4.5 1.15551 4.5 1.34735V1.65265C4.5 1.84449 4.66736 2 4.87381 2H5.12619C5.33264 2 5.5 1.84449 5.5 1.65265V1.34735C5.5 1.15551 5.33264 1 5.12619 1Z" fill="black"/>
<path d="M6.62619 1H6.37381C6.16736 1 6 1.15551 6 1.34735V1.65265C6 1.84449 6.16736 2 6.37381 2H6.62619C6.83264 2 7 1.84449 7 1.65265V1.34735C7 1.15551 6.83264 1 6.62619 1Z" fill="black"/>
<path d="M8.12619 1H7.87381C7.66736 1 7.5 1.15551 7.5 1.34735V1.65265C7.5 1.84449 7.66736 2 7.87381 2H8.12619C8.33264 2 8.5 1.84449 8.5 1.65265V1.34735C8.5 1.15551 8.33264 1 8.12619 1Z" fill="black"/>
<path d="M9.62619 1H9.37381C9.16736 1 9 1.15551 9 1.34735V1.65265C9 1.84449 9.16736 2 9.37381 2H9.62619C9.83264 2 10 1.84449 10 1.65265V1.34735C10 1.15551 9.83264 1 9.62619 1Z" fill="black"/>
<path d="M11.1262 1H10.8738C10.6674 1 10.5 1.15551 10.5 1.34735V1.65265C10.5 1.84449 10.6674 2 10.8738 2H11.1262C11.3326 2 11.5 1.84449 11.5 1.65265V1.34735C11.5 1.15551 11.3326 1 11.1262 1Z" fill="black"/>
<path d="M12.6262 1H12.3738C12.1674 1 12 1.15551 12 1.34735V1.65265C12 1.84449 12.1674 2 12.3738 2H12.6262C12.8326 2 13 1.84449 13 1.65265V1.34735C13 1.15551 12.8326 1 12.6262 1Z" fill="black"/>
<path d="M14.1262 1H13.8738C13.6674 1 13.5 1.15551 13.5 1.34735V1.65265C13.5 1.84449 13.6674 2 13.8738 2H14.1262C14.3326 2 14.5 1.84449 14.5 1.65265V1.34735C14.5 1.15551 14.3326 1 14.1262 1Z" fill="black"/>
<path d="M1.62619 3H1.37381C1.16736 3 1 3.15551 1 3.34735V3.65265C1 3.84449 1.16736 4 1.37381 4H1.62619C1.83264 4 2 3.84449 2 3.65265V3.34735C2 3.15551 1.83264 3 1.62619 3Z" fill="black"/>
<path d="M1.62619 4.5H1.37381C1.16736 4.5 1 4.65551 1 4.84735V5.15265C1 5.34449 1.16736 5.5 1.37381 5.5H1.62619C1.83264 5.5 2 5.34449 2 5.15265V4.84735C2 4.65551 1.83264 4.5 1.62619 4.5Z" fill="black"/>
<path d="M1.62619 6H1.37381C1.16736 6 1 6.15551 1 6.34735V6.65265C1 6.84449 1.16736 7 1.37381 7H1.62619C1.83264 7 2 6.84449 2 6.65265V6.34735C2 6.15551 1.83264 6 1.62619 6Z" fill="black"/>
<path d="M1.62619 7.5H1.37381C1.16736 7.5 1 7.65551 1 7.84735V8.15265C1 8.34449 1.16736 8.5 1.37381 8.5H1.62619C1.83264 8.5 2 8.34449 2 8.15265V7.84735C2 7.65551 1.83264 7.5 1.62619 7.5Z" fill="black"/>
<path d="M1.62619 9H1.37381C1.16736 9 1 9.15551 1 9.34735V9.65265C1 9.84449 1.16736 10 1.37381 10H1.62619C1.83264 10 2 9.84449 2 9.65265V9.34735C2 9.15551 1.83264 9 1.62619 9Z" fill="black"/>
<path d="M1.62619 10.5H1.37381C1.16736 10.5 1 10.6555 1 10.8473V11.1527C1 11.3445 1.16736 11.5 1.37381 11.5H1.62619C1.83264 11.5 2 11.3445 2 11.1527V10.8473C2 10.6555 1.83264 10.5 1.62619 10.5Z" fill="black"/>
<path d="M1.62619 12H1.37381C1.16736 12 1 12.1555 1 12.3473V12.6527C1 12.8445 1.16736 13 1.37381 13H1.62619C1.83264 13 2 12.8445 2 12.6527V12.3473C2 12.1555 1.83264 12 1.62619 12Z" fill="black"/>
<path d="M14.6262 3H14.3738C14.1674 3 14 3.15551 14 3.34735V3.65265C14 3.84449 14.1674 4 14.3738 4H14.6262C14.8326 4 15 3.84449 15 3.65265V3.34735C15 3.15551 14.8326 3 14.6262 3Z" fill="black"/>
<path d="M14.6262 4.5H14.3738C14.1674 4.5 14 4.65551 14 4.84735V5.15265C14 5.34449 14.1674 5.5 14.3738 5.5H14.6262C14.8326 5.5 15 5.34449 15 5.15265V4.84735C15 4.65551 14.8326 4.5 14.6262 4.5Z" fill="black"/>
<path d="M14.6262 6H14.3738C14.1674 6 14 6.15551 14 6.34735V6.65265C14 6.84449 14.1674 7 14.3738 7H14.6262C14.8326 7 15 6.84449 15 6.65265V6.34735C15 6.15551 14.8326 6 14.6262 6Z" fill="black"/>
<path d="M14.6262 7.5H14.3738C14.1674 7.5 14 7.65551 14 7.84735V8.15265C14 8.34449 14.1674 8.5 14.3738 8.5H14.6262C14.8326 8.5 15 8.34449 15 8.15265V7.84735C15 7.65551 14.8326 7.5 14.6262 7.5Z" fill="black"/>
<path d="M14.6262 9H14.3738C14.1674 9 14 9.15551 14 9.34735V9.65265C14 9.84449 14.1674 10 14.3738 10H14.6262C14.8326 10 15 9.84449 15 9.65265V9.34735C15 9.15551 14.8326 9 14.6262 9Z" fill="black"/>
<path d="M14.6262 10.5H14.3738C14.1674 10.5 14 10.6555 14 10.8473V11.1527C14 11.3445 14.1674 11.5 14.3738 11.5H14.6262C14.8326 11.5 15 11.3445 15 11.1527V10.8473C15 10.6555 14.8326 10.5 14.6262 10.5Z" fill="black"/>
<path d="M14.6262 12H14.3738C14.1674 12 14 12.1555 14 12.3473V12.6527C14 12.8445 14.1674 13 14.3738 13H14.6262C14.8326 13 15 12.8445 15 12.6527V12.3473C15 12.1555 14.8326 12 14.6262 12Z" fill="black"/>
<path fill-rule="evenodd" clip-rule="evenodd" d="M5.68571 5.5C5.58315 5.5 5.5 5.58315 5.5 5.68571V10.3143C5.5 10.4169 5.58315 10.5 5.68571 10.5H10.3143C10.4169 10.5 10.5 10.4169 10.5 10.3143V5.68571C10.5 5.58315 10.4169 5.5 10.3143 5.5H5.68571ZM4.5 5.68571C4.5 5.03086 5.03086 4.5 5.68571 4.5H10.3143C10.9691 4.5 11.5 5.03086 11.5 5.68571V10.3143C11.5 10.9691 10.9691 11.5 10.3143 11.5H5.68571C5.03086 11.5 4.5 10.9691 4.5 10.3143V5.68571Z" fill="black"/>
</svg>
