<svg width="16" height="16" viewBox="0 0 16 16" fill="none" xmlns="http://www.w3.org/2000/svg">
<g clip-path="url(#clip0_437_6686)">
<rect width="16" height="16" fill="white"/>
<path fill-rule="evenodd" clip-rule="evenodd" d="M0.226693 5.45331C-0.00453925 5.60426 -0.0696204 5.91408 0.0813303 6.14532L1.20211 7.86218C1.28081 7.98273 1.40765 8.06351 1.55017 8.08384C1.69269 8.10418 1.83706 8.0621 1.94633 7.96837L3.56829 6.57712C3.77789 6.39733 3.80206 6.08167 3.62227 5.87208C3.44249 5.66248 3.12683 5.63831 2.91723 5.81809L1.7279 6.83825L0.918698 5.59868C0.767747 5.36744 0.457926 5.30236 0.226693 5.45331Z" fill="black"/>
<path fill-rule="evenodd" clip-rule="evenodd" d="M9.69321 1.20674C5.93975 0.274899 2.14165 2.55644 1.20664 6.30639C1.13984 6.57433 1.30289 6.8457 1.57083 6.91251C1.83877 6.97931 2.11013 6.81626 2.17694 6.54832C2.97818 3.33483 6.23341 1.37826 9.45209 2.17724C12.6654 2.97856 14.6218 6.2336 13.8228 9.45216C13.0214 12.6655 9.76617 14.622 6.54753 13.8229C4.34621 13.2739 2.73655 11.5749 2.19638 9.52458C2.12603 9.25755 1.85252 9.09811 1.58549 9.16846C1.31846 9.23881 1.15902 9.51231 1.22938 9.77934C1.8587 12.1681 3.73584 14.1525 6.3061 14.7933L6.30658 14.7934C10.06 15.7253 13.8581 13.4437 14.7931 9.69378L14.7933 9.6933C15.7252 5.93985 13.4437 2.1418 9.69369 1.20686L9.69321 1.20674Z" fill="black"/>
<path fill-rule="evenodd" clip-rule="evenodd" d="M8 4.5C8.27614 4.5 8.5 4.72386 8.5 5V8C8.5 8.27614 8.27614 8.5 8 8.5C7.72386 8.5 7.5 8.27614 7.5 8V5C7.5 4.72386 7.72386 4.5 8 4.5Z" fill="black"/>
<path fill-rule="evenodd" clip-rule="evenodd" d="M11.5 8C11.5 8.27614 11.2761 8.5 11 8.5H8C7.72386 8.5 7.5 8.27614 7.5 8C7.5 7.72386 7.72386 7.5 8 7.5H11C11.2761 7.5 11.5 7.72386 11.5 8Z" fill="black"/>
</g>
<defs>
<clipPath id="clip0_437_6686">
<rect width="16" height="16" fill="white"/>
</clipPath>
</defs>
</svg>
