<svg width="16" height="16" viewBox="0 0 16 16" fill="none" xmlns="http://www.w3.org/2000/svg">
<path fill-rule="evenodd" clip-rule="evenodd" d="M10.833 1.37576C10.84 1.38283 10.8468 1.38974 10.8536 1.39645L11.8536 2.39645C12.132 2.67486 12.3197 2.93134 12.4159 3.24779C12.5004 3.5259 12.5002 3.81744 12.5 4.10405C12.5 4.11782 12.5 4.13159 12.5 4.14533V7.5C12.5 7.77614 12.2761 8 12 8C11.7239 8 11.5 7.77614 11.5 7.5V4.14533C11.5 3.79985 11.4955 3.6584 11.4591 3.53855C11.4303 3.44366 11.368 3.32514 11.1464 3.10355L10.1464 2.10355C10.0921 2.04918 10.0679 2.02595 10.0541 2.01391C10.0354 2.0108 9.99637 2.00633 9.91965 2.00359C9.82132 2.00008 9.69124 2 9.5 2H4.53585C4.46045 2.014 4.32917 2.0612 4.21828 2.1635C4.11182 2.26172 4 2.43134 4 2.75V9C4 9.27614 3.77614 9.5 3.5 9.5C3.22386 9.5 3 9.27614 3 9V2.75C3 2.15399 3.22718 1.71728 3.54022 1.4285C3.83723 1.1545 4.18987 1.03261 4.44241 1.00333L4.47111 1H9.50938C9.68891 0.999999 9.83698 0.999998 9.95535 1.00422C10.0735 1.00844 10.194 1.0175 10.3088 1.04618C10.5709 1.11172 10.7227 1.26464 10.833 1.37576Z" fill="black"/>
<path fill-rule="evenodd" clip-rule="evenodd" d="M1.4178 5.35939C1.68775 5.07023 2.01316 5 2.21985 5H3.2509C3.52704 5 3.7509 5.22386 3.7509 5.5C3.7509 5.77614 3.52704 6 3.2509 6H2.21985C2.22 6 2.22001 5.99999 2.21985 6C2.21757 6.00019 2.18505 6.00293 2.14875 6.04181C2.10927 6.0841 1.99996 6.23922 1.99996 6.68248V13.3081C1.99996 13.5718 2.00958 13.7404 2.06571 13.8514C2.08504 13.8896 2.10734 13.914 2.14413 13.9342C2.18645 13.9574 2.27762 13.9906 2.45671 13.9906H3.37192L4.83958 8.80907C4.85528 8.74798 4.87133 8.68307 4.88703 8.61958C4.90956 8.52847 4.93138 8.44026 4.9504 8.37042C4.98488 8.24385 5.03033 8.09618 5.10581 7.96369C5.19 7.81592 5.31374 7.68237 5.49616 7.59699C5.66338 7.51872 5.84029 7.5 5.99996 7.5H7.14059C7.51551 7.5 7.81435 7.5797 8.06635 7.7177C8.30587 7.84886 8.47787 8.02079 8.60075 8.14368C8.93336 8.4653 9.29384 8.5 9.74996 8.5H14C14.2652 8.5 14.506 8.58864 14.6883 8.76873C14.8595 8.93789 14.9388 9.14781 14.9749 9.32536C15.0449 9.66983 14.9836 10.0413 14.9035 10.2777L14.8992 10.2906L14.8941 10.3033C14.649 10.915 14.0448 12.1076 13.4572 13.2672L13.4412 13.2988C13.1491 13.8776 12.9071 14.3061 12.6304 14.5794C12.4801 14.7279 12.3135 14.8381 12.1189 14.9065C11.9299 14.973 11.7407 14.9906 11.5597 14.9906H2.45671C2.15742 14.9906 1.88982 14.9353 1.66305 14.8108C1.43076 14.6834 1.27367 14.501 1.17341 14.3028C0.99869 13.9575 0.999489 13.5568 0.999924 13.3382C0.999945 13.3277 0.999965 13.3177 0.999965 13.3081V6.68248C0.999965 6.08404 1.14842 5.64792 1.4178 5.35939ZM4.41126 13.9906H11.5597C11.6783 13.9906 11.7439 13.9784 11.7873 13.9631C11.8251 13.9498 11.8683 13.9266 11.9276 13.868C12.0701 13.7273 12.2461 13.4473 12.5485 12.8482L12.5488 12.8475C13.1494 11.6623 13.7297 10.5157 13.9601 9.94561C13.9763 9.89455 13.9925 9.8223 14.0004 9.74249C14.0091 9.65559 14.0061 9.57964 13.9949 9.52449C13.993 9.51482 13.991 9.50672 13.989 9.5H9.74996C9.25044 9.5 8.53433 9.47335 7.90156 8.85863L7.89897 8.85611L7.89641 8.85355C7.76948 8.72662 7.68713 8.65015 7.58605 8.5948C7.49565 8.5453 7.3648 8.5 7.14059 8.5H5.99996C5.98248 8.5 5.96798 8.50047 5.95612 8.50116C5.94591 8.52858 5.93241 8.57025 5.91525 8.63324C5.89744 8.69862 5.88174 8.76248 5.86312 8.83819C5.84736 8.90233 5.82949 8.97498 5.80649 9.06428L5.805 9.07005L4.41126 13.9906Z" fill="black"/>
<path fill-rule="evenodd" clip-rule="evenodd" d="M5.5 3.5C5.5 3.22386 5.72386 3 6 3H9.5C9.77614 3 10 3.22386 10 3.5C10 3.77614 9.77614 4 9.5 4H6C5.72386 4 5.5 3.77614 5.5 3.5ZM5.5 5.5C5.5 5.22386 5.72386 5 6 5H9.5C9.77614 5 10 5.22386 10 5.5C10 5.77614 9.77614 6 9.5 6H6C5.72386 6 5.5 5.77614 5.5 5.5Z" fill="black"/>
</svg>
