<svg xmlns="http://www.w3.org/2000/svg" width="64" height="64" fill="none" viewBox="0 0 64 64">
  <g class="access-management">
    <g fill-rule="evenodd" class="Icon" clip-rule="evenodd">
      <path fill="#3D3C3C" d="M5 31.01C5 16.66 16.645 5 31 5c14.356 0 26 11.64 26 25.99 0 2.24-.292 4.406-.82 6.497a1 1 0 1 0 1.939.49c.566-2.241.881-4.57.881-6.987C59 15.535 46.46 3 31 3S3 15.556 3 31.01C3 46.465 15.54 59 31 59c2.391 0 4.703-.294 6.913-.862a1 1 0 0 0-.498-1.937A25.706 25.706 0 0 1 31 57a25.892 25.892 0 0 1-15.941-5.46L15 42.92c-.017-2.725 2.158-4.92 4.853-4.92H38.5a1 1 0 1 0 0-2H19.853c-3.817 0-6.877 3.11-6.853 6.932l.047 6.875C8.089 45.074 5 38.4 5 31.01ZM30.5 13a7.5 7.5 0 1 0 0 15 7.5 7.5 0 0 0 0-15ZM21 20.5a9.5 9.5 0 1 1 19 0 9.5 9.5 0 0 1-19 0Z" class="primary"/>
      <path fill="#FF462D" d="M35 47c0-6.627 5.373-12 12-12s12 5.373 12 12-5.373 12-12 12-12-5.373-12-12Zm12-14c-7.732 0-14 6.268-14 14s6.268 14 14 14 14-6.268 14-14-6.268-14-14-14Zm6.766 9.643a1 1 0 1 0-1.532-1.286l-7.636 9.089-2.832-3.371a1 1 0 1 0-1.532 1.286l3.598 4.282a1 1 0 0 0 1.531 0l8.403-10Z" class="secondary"/>
    </g>
  </g>
</svg>
