<svg xmlns="http://www.w3.org/2000/svg" width="64" height="64" fill="none" viewBox="0 0 64 64">
  <g class="account">
    <g fill-rule="evenodd" class="Icon" clip-rule="evenodd">
      <path fill="#3D3C3C" d="M58 12H6v40h52V12ZM6 10a2 2 0 0 0-2 2v40a2 2 0 0 0 2 2h52a2 2 0 0 0 2-2V12a2 2 0 0 0-2-2H6Zm17.5 19a4.5 4.5 0 1 0 0-9 4.5 4.5 0 0 0 0 9Zm0 2a6.5 6.5 0 1 0 0-13 6.5 6.5 0 0 0 0 13ZM13 40.38c-.008-.89.44-1.72 1.212-2.355A4.587 4.587 0 0 1 17.059 37h13.328c2.091 0 3.629 1.361 3.613 3.154V45H13v-4.62ZM17.06 35c-1.497 0-2.99.553-4.118 1.48-1.132.931-1.955 2.295-1.942 3.913V46a1 1 0 0 0 1 1h23a1 1 0 0 0 1-1v-5.833C36.026 36.985 33.285 35 30.387 35H17.059Z" class="primary"/>
      <path fill="#FF462D" d="M38 21a1 1 0 0 1 1-1h13a1 1 0 1 1 0 2H39a1 1 0 0 1-1-1Zm0 6a1 1 0 0 1 1-1h13a1 1 0 1 1 0 2H39a1 1 0 0 1-1-1Zm1 5a1 1 0 1 0 0 2h13a1 1 0 1 0 0-2H39Z" class="secondary"/>
    </g>
  </g>
</svg>
