<svg xmlns="http://www.w3.org/2000/svg" width="64" height="64" fill="none" viewBox="0 0 64 64">
  <g class="Size=M">
    <g class="Icon">
      <path fill="#3D3C3C" d="M24.675 17.055a1 1 0 0 1 .65 1.89C20.445 20.622 17 25.007 17 30.4c0 3.153 2.185 6.377 4.45 8.752l.22.242c1.07 1.228 1.641 2.744 1.951 4.267.294 1.446.361 2.959.373 4.339h11.024c.1-1.568.658-3.172 1.406-4.627a19.104 19.104 0 0 1 3.038-4.287c.583-.627 1.124-1.621 1.668-2.58a1 1 0 0 1 1.74.987c-.482.85-1.16 2.113-1.944 2.956l-.006.007a17.098 17.098 0 0 0-2.718 3.831C37.456 45.738 37 47.21 37 48.5v7.565c0 1.216-.69 2.224-1.62 2.89-.93.665-2.164 1.045-3.482 1.045h-4.796c-1.318 0-2.552-.38-3.483-1.046C22.69 58.29 22 57.281 22 56.064V48.5c0-1.486-.051-3.025-.339-4.44-.287-1.414-.797-2.628-1.656-3.526h-.001C17.669 38.085 15 34.368 15 30.4c0-6.31 4.047-11.412 9.675-13.345ZM24 50v6.065c0 .405.228.865.783 1.262.554.396 1.37.673 2.319.673h4.796c.95 0 1.765-.277 2.319-.673.555-.397.783-.857.783-1.262V50H24ZM11 27a1 1 0 1 1 0 2H5a1 1 0 1 1 0-2h6Zm.293-15.707a1 1 0 0 1 1.414 0l4 4 .068.076a1 1 0 0 1-1.406 1.406l-.076-.068-4-4a1 1 0 0 1 0-1.414ZM26 4a1 1 0 0 1 1 1v6l-.005.102a1 1 0 0 1-1.99 0L25 11V5a1 1 0 0 1 1-1Z" class="primary"/>
      <path fill="#FF462D" d="M48.077 4.44a1 1 0 0 1 1.293-.326l5.901 3.094a1 1 0 0 1 .424 1.345l-1.274 2.458a11.954 11.954 0 0 1 1.713 2.83l2.913.138a1 1 0 0 1 .953 1v6.468a1 1 0 0 1-.967 1l-2.652.089c-.182.494-.395.992-.659 1.486-.013.026-.031.048-.047.072a12.23 12.23 0 0 1-.833 1.319l1.55 2.677a1.001 1.001 0 0 1-.375 1.372L49.97 32.87a1.002 1.002 0 0 1-1.386-.426l-1.21-2.429a11.171 11.171 0 0 1-3.145.103l-1.254 2.342a1 1 0 0 1-1.345.414l-5.958-3.116a1.001 1.001 0 0 1-.416-1.362l1.313-2.43a11.949 11.949 0 0 1-1.68-2.766l-2.653.09a1.003 1.003 0 0 1-1.033-.97L31 15.571c-.017-.55.416-1.01.966-1.03l2.65-.09c.182-.496.397-1 .664-1.491a12.4 12.4 0 0 1 .865-1.381l-1.39-2.265a1.001 1.001 0 0 1 .324-1.372l5.699-3.555.087-.047a1.001 1.001 0 0 1 1.294.372l1.396 2.27a11.193 11.193 0 0 1 3.214-.113l1.255-2.342.053-.087Zm.125 3.99a1 1 0 0 1-1.06.512 9.195 9.195 0 0 0-3.832.134 1 1 0 0 1-1.09-.447l-1.238-2.012-4.003 2.497 1.234 2.012a1 1 0 0 1-.092 1.172 9.381 9.381 0 0 0-1.083 1.617 10.271 10.271 0 0 0-.746 1.815 1 1 0 0 1-.92.697l-2.343.08.142 4.75 2.347-.078.16.007c.365.047.68.292.812.646a9.958 9.958 0 0 0 2.021 3.323 1 1 0 0 1 .146 1.155l-1.16 2.146 4.182 2.187 1.118-2.086.087-.134a1 1 0 0 1 .973-.377 9.194 9.194 0 0 0 3.832-.133l.17-.027c.397-.028.781.186.964.552l1.08 2.173 4.25-2.395-1.381-2.386a1.001 1.001 0 0 1 .105-1.15 9.381 9.381 0 0 0 1.084-1.618l.023-.035c.298-.568.529-1.154.724-1.768l.058-.146c.162-.324.49-.54.861-.553L58 20.48v-4.549l-2.6-.123c-.4-.019-.75-.276-.89-.652a9.958 9.958 0 0 0-2.021-3.323 1.001 1.001 0 0 1-.154-1.14l1.126-2.177-4.142-2.17-1.116 2.084ZM45.499 13a5.501 5.501 0 0 1 .001 11 5.502 5.502 0 0 1-5.5-5.5c0-3.036 2.465-5.5 5.5-5.5Zm0 2a3.502 3.502 0 0 0-3.5 3.5c0 1.931 1.569 3.5 3.5 3.5 1.932 0 3.5-1.569 3.5-3.5 0-1.932-1.568-3.5-3.5-3.5Z" class="secondary"/>
    </g>
  </g>
</svg>
