<svg xmlns="http://www.w3.org/2000/svg" width="64" height="64" fill="none" viewBox="0 0 64 64">
  <g class="AIOps">
    <g fill-rule="evenodd" class="Icon" clip-rule="evenodd">
      <path fill="#3D3C3C" d="M18 20.704C18 12.554 24.413 6 32.27 6c6.485 0 12.027 4.318 13.701 11.233a9.987 9.987 0 0 0-3.797 1.616 1 1 0 0 0 1.148 1.638C44.526 19.644 46.138 19 48.397 19c2.418 0 4.82 1.165 6.635 3.047C56.844 23.927 58 26.45 58 29.062c0 2.288-.013 3.752-1.256 5.638a1 1 0 1 0 1.67 1.1C60 33.393 60 31.397 60 29.118v-.056c0-3.198-1.408-6.204-3.529-8.403C54.353 18.46 51.454 17 48.397 17c-.144 0-.285.002-.425.007C46.166 9.1 39.803 4 32.27 4 23.255 4 16 11.503 16 20.704v.524c-1.858-.337-3.412-.19-4.9.382h-.001C6.798 23.267 4 27.307 4 31.631c0 4.569 2.795 8.55 6.836 10.288a1 1 0 0 0 .79-1.838C8.286 38.645 6 35.365 6 31.631c0-3.46 2.253-6.781 5.817-8.154 1.234-.474 2.56-.588 4.38-.166l.051.01 1.494.265a1 1 0 1 0 .35-1.97L18 21.6v-.896ZM21 28a2 2 0 0 0-2 2v28a2 2 0 0 0 2 2h34a2 2 0 0 0 2-2V42.32a2 2 0 0 0-2.54-1.926L41 44.173V30a2 2 0 0 0-2-2H21Zm0 24v6h18v-6H21Zm18-2H21v-9h18v9Zm2 1v7h14V42.32l-14 3.93V51ZM21 39h18v-9H21v9Z" class="primary"/>
      <path fill="#FF462D" d="M24 34a1 1 0 1 0 0 2h4a1 1 0 1 0 0-2h-4Zm0 11a1 1 0 1 0 0 2h4a1 1 0 1 0 0-2h-4Z" class="secondary"/>
    </g>
  </g>
</svg>
