<svg xmlns="http://www.w3.org/2000/svg" width="64" height="64" fill="none" viewBox="0 0 64 64">
  <g class="analytics">
    <g fill-rule="evenodd" class="Icon" clip-rule="evenodd">
      <path fill="#3D3C3C" d="M5 4a1 1 0 0 1 1 1v49.846A3.162 3.162 0 0 0 9.18 58H59a1 1 0 1 1 0 2H9.18C6.32 60 4 57.703 4 54.846V5a1 1 0 0 1 1-1Z" class="primary"/>
      <path fill="#FF462D" d="m52.651 9.268-8.47 1.563a1 1 0 1 1-.362-1.967l9.915-1.83h.003c1.173-.22 2.248.639 2.352 1.802l.907 10.074a1 1 0 0 1-1.992.18l-.772-8.579-14.58 23.237-.002.002c-.64 1.028-2.041 1.263-2.958.413l-10.57-9.843-.002-.002c-.446-.418-1.199-.295-1.445.461v.003l-8.725 26.53a1 1 0 1 1-1.9-.624l8.723-26.527v-.002c.657-2.014 3.098-2.814 4.714-1.302l.001.001 10.5 9.779L52.65 9.268Z" class="secondary"/>
    </g>
  </g>
</svg>
