<svg xmlns="http://www.w3.org/2000/svg" width="64" height="64" fill="none" viewBox="0 0 64 64">
  <g fill-rule="evenodd" class="anomaly" clip-rule="evenodd">
    <path fill="#FF462D" d="M29.354 16a1 1 0 0 1 .908.657L35.492 31H45a1 1 0 1 1 0 2H34.792a1 1 0 0 1-.94-.657L29.24 19.688 23.676 32.4a1 1 0 0 1-.917.599H11a1 1 0 1 1 0-2h11.106l6.3-14.4a1 1 0 0 1 .948-.6Z" class="secondary"/>
    <path fill="#3D3C3C" d="M6 28C6 15.85 15.85 6 28 6s22 9.85 22 22-9.85 22-22 22S6 40.15 6 28ZM28 4C14.745 4 4 14.745 4 28s10.745 24 24 24a23.914 23.914 0 0 0 16.25-6.338l.043.045 14 14a1 1 0 0 0 1.414-1.414l-14-14a1.011 1.011 0 0 0-.045-.043A23.914 23.914 0 0 0 52 28C52 14.745 41.255 4 28 4Z" class="primary"/>
  </g>
</svg>
