<svg xmlns="http://www.w3.org/2000/svg" width="64" height="64" fill="none" viewBox="0 0 64 64">
  <g class="applications-data-&amp;-Ai">
    <g fill-rule="evenodd" class="Icon" clip-rule="evenodd">
      <path fill="#3D3C3C" d="M16 8.5a2.5 2.5 0 1 1 5 0 2.5 2.5 0 0 1-5 0ZM18.5 4a4.5 4.5 0 1 0 2.454 8.273L24 14.857V19a1 1 0 1 0 2 0v-4.606a1 1 0 0 0-.353-.763l-3.298-2.798A4.5 4.5 0 0 0 18.5 4Zm23.151 6.833a4.5 4.5 0 1 1 1.395 1.44L40 14.857V19a1 1 0 1 1-2 0v-4.606a1 1 0 0 1 .353-.763l3.298-2.798ZM48 8.5a2.5 2.5 0 1 0-5 0 2.5 2.5 0 0 0 5 0ZM11.917 21.428a4.5 4.5 0 1 0-1.646 1.21l3.46 3.106A1 1 0 0 0 14.4 26H19a1 1 0 1 0 0-2h-4.217l-2.866-2.572ZM6 18.5a2.5 2.5 0 1 1 5 0 2.5 2.5 0 0 1-5 0Zm7.732 19.756A1 1 0 0 1 14.4 38H19a1 1 0 1 1 0 2h-4.217l-2.866 2.572a4.5 4.5 0 1 1-1.646-1.21l3.46-3.106ZM6 45.5a2.5 2.5 0 1 1 5 0 2.5 2.5 0 0 1-5 0ZM44 39a1 1 0 0 1 1-1h4.605a1 1 0 0 1 .669.256l3.455 3.106a4.5 4.5 0 1 1-1.646 1.21L49.223 40H45a1 1 0 0 1-1-1Zm9 6.5a2.5 2.5 0 1 1 5 0 2.5 2.5 0 0 1-5 0Zm-.917-24.071L49.223 24H45a1 1 0 1 0 0 2h4.605a1 1 0 0 0 .669-.256l3.455-3.106a4.5 4.5 0 1 0-1.646-1.21ZM53 18.5a2.5 2.5 0 1 1 5 0 2.5 2.5 0 0 1-5 0ZM24 45a1 1 0 0 1 1 1v4.09a1 1 0 0 1-.193.59l-2.194 2.993a4.5 4.5 0 1 1-1.265-1.657L23 49.762V46a1 1 0 0 1 1-1Zm-8 10.5a2.5 2.5 0 1 1 5 0 2.5 2.5 0 0 1-5 0ZM39 45a1 1 0 0 1 1 1v3.668l2.523 2.458a4.5 4.5 0 1 1-1.178 1.645l-3.043-2.965A1 1 0 0 1 38 50.09V46a1 1 0 0 1 1-1Zm4 10.5a2.5 2.5 0 1 1 5 0 2.5 2.5 0 0 1-5 0Z" class="primary"/>
      <path fill="#FF462D" d="M22.209 20C21.003 20 20 20.997 20 22.258v19.484C20 43.003 21.003 44 22.209 44h19.582C42.997 44 44 43.003 44 41.742V22.258C44 20.997 42.997 20 41.791 20H22.209ZM18 22.258C18 19.921 19.87 18 22.209 18h19.582C44.13 18 46 19.921 46 22.258v19.484C46 44.079 44.13 46 41.791 46H22.209C19.87 46 18 44.079 18 41.742V22.258Z" class="secondary"/>
    </g>
  </g>
</svg>
