<svg xmlns="http://www.w3.org/2000/svg" width="64" height="64" fill="none" viewBox="0 0 64 64">
  <g fill-rule="evenodd" class="approval-policy" clip-rule="evenodd">
    <path fill="#3D3C3C" d="M33.331 4.329c9.465 4.816 18.15 7.473 21.475 8.388l.01.003c1.21.348 2.184 1.372 2.184 2.696v23.118c0 2.84-1.352 5.483-3.293 7.821-1.946 2.344-4.556 4.472-7.25 6.304-5.388 3.667-11.273 6.262-13.32 7.119l-.019.007a3.016 3.016 0 0 1-2.236 0l-.016-.006c-2.06-.858-7.946-3.453-13.332-7.12-2.691-1.832-5.3-3.96-7.244-6.304C8.35 44.016 7 41.374 7 38.534V15.436c0-1.308.957-2.368 2.195-2.7 3.338-.937 12.036-3.576 21.452-8.406a2.9 2.9 0 0 1 2.684-.001ZM32.404 6.1a.9.9 0 0 0-.829 0l-.01.006c-9.59 4.92-18.439 7.603-21.835 8.556l-.014.004c-.501.133-.716.498-.716.769v23.098c0 2.192 1.046 4.394 2.83 6.544 1.778 2.144 4.219 4.15 6.83 5.928 5.212 3.548 10.943 6.08 12.965 6.922.245.096.504.096.75 0 2.014-.843 7.743-3.374 12.958-6.922 2.612-1.778 5.055-3.784 6.835-5.928C53.953 42.928 55 40.726 55 38.534V15.416c0-.255-.2-.618-.731-.773-3.409-.937-12.23-3.638-21.85-8.535l-.015-.007Z" class="primary"/>
    <path fill="#FF462D" d="M42.707 24.293a1 1 0 0 1 0 1.414l-13.996 14a1 1 0 0 1-1.415 0l-6.003-6.005a1 1 0 1 1 1.414-1.414l5.297 5.298 13.289-13.293a1 1 0 0 1 1.414 0Z" class="secondary"/>
  </g>
</svg>
