<svg xmlns="http://www.w3.org/2000/svg" width="64" height="64" fill="none" viewBox="0 0 64 64">
  <g fill-rule="evenodd" class="assets" clip-rule="evenodd">
    <path fill="#3D3C3C" d="M5 8a3 3 0 0 1 3-3h18a3 3 0 0 1 3 3v18a3 3 0 0 1-3 3H8a3 3 0 0 1-3-3V8Zm3-1a1 1 0 0 0-1 1v18a1 1 0 0 0 1 1h18a1 1 0 0 0 1-1V8a1 1 0 0 0-1-1H8ZM5 38a3 3 0 0 1 3-3h18a3 3 0 0 1 3 3v18a3 3 0 0 1-3 3H8a3 3 0 0 1-3-3V38Zm3-1a1 1 0 0 0-1 1v18a1 1 0 0 0 1 1h18a1 1 0 0 0 1-1V38a1 1 0 0 0-1-1H8Zm30-2a3 3 0 0 0-3 3v18a3 3 0 0 0 3 3h18a3 3 0 0 0 3-3V38a3 3 0 0 0-3-3H38Zm-1 3a1 1 0 0 1 1-1h18a1 1 0 0 1 1 1v18a1 1 0 0 1-1 1H38a1 1 0 0 1-1-1V38Z" class="primary"/>
    <path fill="#FF462D" d="M47 7c-5.523 0-10 4.477-10 10s4.477 10 10 10 10-4.477 10-10S52.523 7 47 7ZM35 17c0-6.627 5.373-12 12-12s12 5.373 12 12-5.373 12-12 12-12-5.373-12-12Z" class="secondary"/>
  </g>
</svg>
