<svg xmlns="http://www.w3.org/2000/svg" width="64" height="64" fill="none" viewBox="0 0 64 64">
  <g class="box-empty">
    <g class="Icon">
      <path fill="#FF462D" d="M52.096 22.095a1 1 0 0 1 1.258.352l6.48 9.779a1 1 0 0 1-.322 1.41L38.992 45.86a1 1 0 0 1-1.345-.306l-6.48-9.779a1 1 0 0 1 .321-1.41l20.52-12.223.088-.046ZM33.413 35.544l5.374 8.108 18.8-11.197-5.375-8.108-18.799 11.197Z" class="secondary"/>
      <path fill="#3D3C3C" d="M53 41a1 1 0 0 1 1 1v5.985a1 1 0 0 1-.535.886L32.479 59.877a.977.977 0 0 1-.249.095l-.033.007-.005.001-.056.009-.012.002c-.007 0-.015.003-.022.004h-.01l-.043.003-.05.002-.049-.002-.043-.003-.015-.001-.01-.002-.023-.004c-.019-.003-.038-.004-.057-.008l-.03-.008a.967.967 0 0 1-.06-.015l-.008-.002-.02-.007-.027-.01-.036-.013a.987.987 0 0 1-.08-.037l-.006-.002-21-11.015a1.001 1.001 0 0 1-.535-.886V42a1 1 0 0 1 2 0v5.38l19 9.964V49a1 1 0 0 1 2 0v8.344l19-9.964V42a1 1 0 0 1 1-1ZM37.822 4.247a1 1 0 0 1 1.096-.147l20.52 10a1.001 1.001 0 0 1 .34 1.53l-6.481 8a1 1 0 0 1-1.215.27L32 14.111l-18.418 8.976 18.93 11.275a1 1 0 0 1 .322 1.411l-6.48 9.779a1 1 0 0 1-1.346.306L4.488 33.636a1 1 0 0 1-.322-1.41l6.074-9.168-6.018-7.428a1.002 1.002 0 0 1 .34-1.53l20.52-10 .16-.061a1 1 0 0 1 1.055.33L32 11.41l5.703-7.04.119-.122ZM6.412 32.455l18.8 11.197 5.374-8.108-18.8-11.197-5.373 8.108Zm.157-17.108 5.187 6.405 18.674-9.1-5.187-6.405-18.674 9.1Zm27-2.696 18.674 9.1 5.186-6.404-18.673-9.1-5.187 6.404Z" class="primary"/>
    </g>
  </g>
</svg>
