<svg xmlns="http://www.w3.org/2000/svg" width="64" height="64" fill="none" viewBox="0 0 64 64">
  <g class="Size=M">
    <g fill-rule="evenodd" class="Icon" clip-rule="evenodd">
      <g fill="#474747" class="primary">
        <path d="M4.487 33.641a1 1 0 0 1 .987-.022l13 7a1 1 0 0 1 .526.88v17a1 1 0 0 1-1.454.892l-13-6.635a1 1 0 0 1-.546-.89V34.5a1 1 0 0 1 .487-.859ZM6 36.174v15.08l11 5.613v-14.77L6 36.174Z"/>
        <path d="M32.55 34.665a1 1 0 0 1 .45.835v17a1 1 0 0 1-.606.919l-14 6a1 1 0 1 1-.788-1.838L31 51.84V37.016L18.394 42.42a1 1 0 1 1-.788-1.838l14-6a1 1 0 0 1 .945.084Z"/>
        <path d="M17.553 27.105a1 1 0 0 1 .894 0l14 7a1 1 0 0 1-.894 1.79L18 29.117 5.447 35.394a1 1 0 1 1-.894-1.789l13-6.5Z"/>
        <path d="M31.107 34.05a1 1 0 0 1 1.343-.443l14 7.059a1 1 0 0 1 .55.893v16.94a1 1 0 0 1-1.42.908l-14-6.5a1 1 0 0 1 .841-1.814l12.58 5.84V42.174L31.55 35.393a1 1 0 0 1-.443-1.343Z"/>
        <path d="M59.524 34.148A1 1 0 0 1 60 35v17a1 1 0 0 1-.553.894l-13 6.5a1 1 0 1 1-.894-1.788L58 51.382V36.624l-11.55 5.828a1 1 0 0 1-.9-1.786l13-6.559a1 1 0 0 1 .974.041Z"/>
        <path d="M45.553 27.105a1 1 0 0 1 .894 0l13 6.5a1 1 0 0 1-.894 1.79L46 29.117l-13.553 6.776a1 1 0 1 1-.894-1.789l14-7Z"/>
        <path d="M17.443 10.67a1 1 0 0 1 .937-.095l14 5.75a1 1 0 0 1 .62.925V34.5a1 1 0 1 1-2 0V17.92l-12-4.928V27.6a1 1 0 1 1-2 0V11.5a1 1 0 0 1 .443-.83Z"/>
        <path d="M46.555 10.668A1 1 0 0 1 47 11.5v16a1 1 0 1 1-2 0V12.998l-12.616 5.243a1 1 0 0 1-.768-1.846l14-5.819a1 1 0 0 1 .94.092Z"/>
        <path d="M31.576 4.581a1 1 0 0 1 .787 0l14.03 6a1 1 0 0 1-.786 1.838L31.971 6.588l-13.576 5.83a1 1 0 1 1-.79-1.837l13.97-6Z"/>
      </g>
      <path fill="#FF462D" d="M38.42 9.408a1 1 0 1 0-.839-1.816l-12.98 5.99a.995.995 0 0 0-.444.38 1.008 1.008 0 0 0-.157.56V21.5a1 1 0 0 0 2 0v-6.36l12.42-5.732ZM22.962 32.386a1 1 0 1 0-.925-1.773l-11.484 5.992a1.003 1.003 0 0 0-.554.918V44.5a1 1 0 0 0 2 0v-6.394l10.963-5.72Z" class="secondary"/>
    </g>
  </g>
</svg>
