<svg xmlns="http://www.w3.org/2000/svg" width="64" height="64" fill="none" viewBox="0 0 64 64">
  <g fill-rule="evenodd" class="calendar" clip-rule="evenodd">
    <path fill="#3D3C3C" d="M23 4a1 1 0 0 1 1 1v3h15V5a1 1 0 1 1 2 0v8a1 1 0 1 1-2 0v-3H24v3a1 1 0 1 1-2 0V5a1 1 0 0 1 1-1ZM6 21v-4.757C6 13.961 7.995 12 10.608 12h4.34a1 1 0 1 0 0-2h-4.34C7.018 10 4 12.733 4 16.243v37.33C4 57.144 6.984 60 10.61 60h42.78c3.624 0 6.61-2.84 6.61-6.427v-37.33C60 12.733 56.982 10 53.392 10h-4.34a1 1 0 1 0 0 2h4.34C56.005 12 58 13.96 58 16.243V21H6Zm52 2H6v30.573C6 55.981 8.03 58 10.61 58h42.78c2.583 0 4.61-2.007 4.61-4.427V23Z" class="primary"/>
    <path fill="#FF462D" d="M13.486 28h1.028c.82 0 1.486.618 1.486 1.38v1.24c0 .762-.665 1.38-1.486 1.38h-1.028c-.82 0-1.486-.618-1.486-1.38v-1.24c0-.762.665-1.38 1.486-1.38Zm0 9.57h1.028c.82 0 1.486.619 1.486 1.381v1.24c0 .762-.665 1.38-1.486 1.38h-1.028c-.82 0-1.486-.618-1.486-1.38v-1.24c0-.762.665-1.38 1.486-1.38ZM14.514 47h-1.028c-.82 0-1.486.618-1.486 1.38v1.24c0 .762.665 1.38 1.486 1.38h1.028c.82 0 1.486-.618 1.486-1.38v-1.24c0-.762-.665-1.38-1.486-1.38Zm10.972-19h1.028c.82 0 1.486.618 1.486 1.38v1.24c0 .762-.665 1.38-1.486 1.38h-1.028c-.82 0-1.486-.618-1.486-1.38v-1.24c0-.762.665-1.38 1.486-1.38Zm1.028 9.57h-1.028c-.82 0-1.486.619-1.486 1.381v1.24c0 .762.665 1.38 1.486 1.38h1.028c.82 0 1.486-.618 1.486-1.38v-1.24c0-.762-.665-1.38-1.486-1.38ZM25.486 47h1.028c.82 0 1.486.618 1.486 1.38v1.24c0 .762-.665 1.38-1.486 1.38h-1.028c-.82 0-1.486-.618-1.486-1.38v-1.24c0-.762.665-1.38 1.486-1.38Zm13.028-19h-1.028c-.82 0-1.486.618-1.486 1.38v1.24c0 .762.665 1.38 1.486 1.38h1.028c.82 0 1.486-.618 1.486-1.38v-1.24c0-.762-.665-1.38-1.486-1.38Zm-1.028 9.57h1.028c.82 0 1.486.619 1.486 1.381v1.24c0 .762-.665 1.38-1.486 1.38h-1.028c-.82 0-1.486-.618-1.486-1.38v-1.24c0-.762.665-1.38 1.486-1.38ZM38.514 47h-1.028c-.82 0-1.486.618-1.486 1.38v1.24c0 .762.665 1.38 1.486 1.38h1.028c.82 0 1.486-.618 1.486-1.38v-1.24c0-.762-.665-1.38-1.486-1.38Zm10.972-19h1.028c.82 0 1.486.618 1.486 1.38v1.24c0 .762-.665 1.38-1.486 1.38h-1.028c-.82 0-1.486-.618-1.486-1.38v-1.24c0-.762.665-1.38 1.486-1.38Zm1.028 9.57h-1.028c-.82 0-1.486.619-1.486 1.381v1.24c0 .762.665 1.38 1.486 1.38h1.028c.82 0 1.486-.618 1.486-1.38v-1.24c0-.762-.665-1.38-1.486-1.38ZM49.486 47h1.028c.82 0 1.486.618 1.486 1.38v1.24c0 .762-.665 1.38-1.486 1.38h-1.028c-.82 0-1.486-.618-1.486-1.38v-1.24c0-.762.665-1.38 1.486-1.38Z" class="secondary"/>
  </g>
</svg>
