<svg xmlns="http://www.w3.org/2000/svg" width="64" height="64" fill="none" viewBox="0 0 64 64">
  <g fill-rule="evenodd" class="catalog-management" clip-rule="evenodd">
    <path fill="#3D3C3C" d="M16 4a1 1 0 1 0 0 2h34.735C53.061 6 55 7.942 55 10.309V55a1 1 0 1 0 2 0V10.309C57 6.852 54.181 4 50.735 4H16Zm.303 9C14.534 13 13 14.538 13 16.515V22h3a1 1 0 1 1 0 2H8a1 1 0 1 1 0-2h3v-5.485C11 13.525 13.34 11 16.303 11h28.394C47.66 11 50 13.525 50 16.515v37.97C50 57.475 47.66 60 44.697 60H16.303C13.473 60 11 58.029 11 54.91a1 1 0 1 1 2 0c0 1.847 1.402 3.09 3.303 3.09h28.394C46.465 58 48 56.462 48 54.485v-37.97C48 14.538 46.465 13 44.697 13H16.303ZM7 36a1 1 0 0 1 1-1h3v-6a1 1 0 1 1 2 0v6h3a1 1 0 1 1 0 2H8a1 1 0 0 1-1-1Zm0 13a1 1 0 0 1 1-1h3v-6a1 1 0 1 1 2 0v6h3a1 1 0 1 1 0 2H8a1 1 0 0 1-1-1Z" class="primary"/>
    <path fill="#FF462D" d="M22 23a1 1 0 0 1 1-1h16a1 1 0 1 1 0 2H23a1 1 0 0 1-1-1Zm0 9a1 1 0 0 1 1-1h16a1 1 0 1 1 0 2H23a1 1 0 0 1-1-1Zm1 8a1 1 0 1 0 0 2h16a1 1 0 1 0 0-2H23Z" class="secondary"/>
  </g>
</svg>
