<svg xmlns="http://www.w3.org/2000/svg" width="64" height="64" fill="none" viewBox="0 0 64 64">
  <g class="Size=M">
    <g class="Icon">
      <path fill="#3D3C3C" d="M58 32C58 17.64 46.36 6 32 6S6 17.64 6 32s11.64 26 26 26 26-11.64 26-26Zm2 0c0 15.464-12.536 28-28 28S4 47.464 4 32 16.536 4 32 4s28 12.536 28 28Z" class="primary"/>
      <path fill="#FF462D" d="M32 4c15.464 0 28 12.536 28 28a1.003 1.003 0 0 1-.094.419.996.996 0 0 1-.067.124l-.023.032a.997.997 0 0 1-.172.188l-.015.013a1.003 1.003 0 0 1-.138.093l-.021.013a.952.952 0 0 1-.052.025c-.012.006-.024.013-.037.018a.998.998 0 0 1-.07.025l-.015.005a.997.997 0 0 1-.194.04L59 33H33a2 2 0 0 1-2-2V5a1 1 0 0 1 1-1Zm1 27h24.978C57.465 17.436 46.564 6.533 33 6.02V31Z" class="secondary"/>
    </g>
  </g>
</svg>
