<svg xmlns="http://www.w3.org/2000/svg" width="64" height="64" fill="none" viewBox="0 0 64 64">
  <g class="Size=M">
    <g class="Icon">
      <path fill="#FF462D" d="M55 19a1 1 0 0 1 1 1v37a1 1 0 0 1-1 1H44a1 1 0 0 1-1-1V20a1 1 0 0 1 1-1h11ZM45 56h9V21h-9v35Z" class="secondary"/>
      <path fill="#3D3C3C" d="M37 33a1 1 0 0 1 1 1v22h20a1 1 0 1 1 0 2H6a1 1 0 1 1 0-2h2V43a1 1 0 0 1 1-1h11a1 1 0 0 1 1 1v13h5V34a1 1 0 0 1 1-1h10ZM10 56h9V44h-9v12Zm18 0h8V35h-8v21ZM44 5c2.771 0 5 2.229 5 5s-2.229 5-5 5a4.991 4.991 0 0 1-2.501-.667l-5.375 7.166c.552.805.876 1.78.876 2.835 0 2.771-2.229 5-5 5a4.986 4.986 0 0 1-4.255-2.366.991.991 0 0 1-.245.032h-8.6a4.986 4.986 0 0 1-4.9 4 4.983 4.983 0 0 1-3.499-1.423l-3.727 4.556a1 1 0 0 1-1.548-1.266l4.119-5.036A5.014 5.014 0 0 1 9 26c0-2.771 2.229-5 5-5a4.986 4.986 0 0 1 4.9 4h8.145A4.987 4.987 0 0 1 32 19.334c.984 0 1.9.282 2.672.768l5.324-7.098A4.986 4.986 0 0 1 39 10c0-2.771 2.229-5 5-5ZM14 23c-1.667 0-3 1.333-3 3s1.333 3 3 3 3-1.333 3-3-1.333-3-3-3Zm18-1.666c-1.667 0-3 1.333-3 3 0 1.666 1.334 3 3 3s3-1.334 3-3c0-1.667-1.333-3-3-3ZM44 7c-1.667 0-3 1.333-3 3s1.333 3 3 3 3-1.333 3-3-1.333-3-3-3Z" class="primary"/>
    </g>
  </g>
</svg>
