<svg xmlns="http://www.w3.org/2000/svg" width="64" height="64" fill="none" viewBox="0 0 64 64">
  <g class="Size=M">
    <g class="Icon">
      <path fill="#3D3C3C" d="M7 6a1 1 0 0 1 1 1v48h49a1 1 0 1 1 0 2H7a1 1 0 0 1-1-1V7a1 1 0 0 1 1-1Zm16 18a5 5 0 0 1 4.809 6.368l7.405 6.017A4.983 4.983 0 0 1 38.667 35c1.015 0 1.96.303 2.748.823l6.847-7.497a1 1 0 1 1 1.476 1.348l-6.905 7.562a5 5 0 1 1-8.765.796l-7.207-5.856A4.99 4.99 0 0 1 23 34c-.994 0-1.92-.29-2.698-.791l-8.528 10.424a1 1 0 0 1-1.548-1.266l8.637-10.557A5 5 0 0 1 23 24Zm15.667 13a3 3 0 1 0 0 6 3 3 0 0 0 0-6ZM23 26a3 3 0 1 0 0 6 3 3 0 0 0 0-6Z" class="primary"/>
      <path fill="#FF462D" d="M55 26a3 3 0 1 0-6 0 3 3 0 0 0 6 0Zm2 0a5 5 0 1 1-10 0 5 5 0 0 1 10 0Z" class="secondary"/>
    </g>
  </g>
</svg>
