<svg xmlns="http://www.w3.org/2000/svg" width="64" height="64" fill="none" viewBox="0 0 64 64">
  <g class="Size=M">
    <g class="Icon">
      <path fill="#3D3C3C" d="M32 4c15.464 0 28 12.536 28 28S47.464 60 32 60 4 47.464 4 32 16.536 4 32 4Zm0 2c-9.033 0-16.99 4.606-21.65 11.598l9.721 5.301A14.972 14.972 0 0 1 32 17c8.29 0 15 6.71 15 15s-6.71 15-15 15c-3.785 0-7.24-1.4-9.878-3.709l-7.785 7.785A25.905 25.905 0 0 0 32 58c14.36 0 26-11.64 26-26S46.36 6 32 6ZM9.306 19.306A25.88 25.88 0 0 0 6 32c0 6.82 2.627 13.025 6.923 17.662l7.785-7.785A14.944 14.944 0 0 1 17 32c0-2.703.713-5.238 1.962-7.428l-9.656-5.266ZM32 19c-7.186 0-13 5.814-13 13 0 7.185 5.814 13 13 13 7.185 0 13-5.815 13-13 0-7.186-5.815-13-13-13Z" class="primary"/>
      <path fill="#FF462D" d="M51.094 12.003a1 1 0 0 1 .8.293A27.916 27.916 0 0 1 60 32c0 15.463-12.536 28-28 28a1 1 0 0 1-.995-.898L31 59V46a.997.997 0 0 1 1-1c7.175 0 13-5.875 13-13.159 0-3.427-1.762-7.07-3.535-8.957l-.172-.177-.068-.076a1.016 1.016 0 0 1-.087-.127c-.007-.011-.015-.022-.02-.033a.992.992 0 0 1-.086-.22l-.008-.031-.005-.03-.004-.023a1.084 1.084 0 0 1-.008-.056l-.004-.04a1.027 1.027 0 0 1 0-.15l.004-.036a.93.93 0 0 1 .007-.047c.003-.018.005-.036.01-.054l.006-.027c.006-.022.011-.043.018-.064l.01-.026.022-.06a.825.825 0 0 1 .014-.03l.026-.053.02-.034a1 1 0 0 1 .086-.123l.002-.004.065-.07 9-9a1 1 0 0 1 .8-.29Zm-7.715 10.031C45.295 24.348 47 28.155 47 31.841c0 8.028-6.168 14.605-14 15.124V57.98C46.896 57.454 58 46.025 58 32c0-6.82-2.626-13.024-6.923-17.663l-7.698 7.698Z" class="secondary"/>
    </g>
  </g>
</svg>
