<svg xmlns="http://www.w3.org/2000/svg" width="64" height="64" fill="none" viewBox="0 0 64 64">
  <g class="chart-bubble">
    <g class="Icon">
      <path fill="#FF462D" d="M44.002 39a5 5 0 1 1 0 10 5 5 0 0 1 0-10Zm0 2a3 3 0 1 0 0 6 3 3 0 0 0 0-6Zm-2-34c6.627 0 12 5.373 12 12 0 6.628-5.373 12-12 12-6.628 0-12-5.372-12-12 0-6.627 5.372-12 12-12Zm0 2c-5.523 0-10 4.477-10 10s4.477 10 10 10c5.522 0 10-4.477 10-10s-4.478-10-10-10Z" class="secondary"/>
      <path fill="#3D3C3C" d="M7.001 6a1 1 0 0 1 1 1v48h49a1 1 0 0 1 0 2h-50a1 1 0 0 1-1-1V7a1 1 0 0 1 1-1Zm17 25c5.523 0 10 4.477 10 10s-4.477 10-10 10c-5.522 0-10-4.477-10-10s4.478-10 10-10Zm0 2a8 8 0 1 0 0 16 8 8 0 0 0 0-16ZM18.67 15a5 5 0 1 1 0 10 5 5 0 0 1 0-10Zm0 2a3 3 0 1 0 0 6 3 3 0 0 0 0-6Z" class="primary"/>
    </g>
  </g>
</svg>
