<svg xmlns="http://www.w3.org/2000/svg" width="64" height="64" fill="none" viewBox="0 0 64 64">
  <g class="Size=M">
    <g class="Icon">
      <path fill="#3D3C3C" d="M30.024 44.951c2.806-1.078 5.672-1.157 8.35-.65 5.097.966 9.615 4.07 12.068 6.699H55v-3a1 1 0 1 1 2 0v8a1 1 0 1 1-2 0v-3h-4.558c-2.453 2.629-6.971 5.732-12.068 6.698-2.678.508-5.544.43-8.35-.648-2.689-1.033-5.259-2.962-7.533-6.05H9v3a1 1 0 1 1-2 0v-8a1 1 0 0 1 2 0v3h13.492c2.274-3.087 4.844-5.016 7.532-6.049ZM35 46.003a12.415 12.415 0 0 0-4.259.814c-2.238.86-4.464 2.475-6.504 5.183 2.04 2.708 4.266 4.323 6.504 5.183 1.404.539 2.835.788 4.259.813V46.003Zm2 11.885c.335-.042.67-.093 1.001-.156 4.377-.83 8.342-3.444 10.624-5.733-2.282-2.289-6.247-4.903-10.624-5.732A15.673 15.673 0 0 0 37 46.11v11.778ZM8 27a1 1 0 0 1 1 1v3h5a1 1 0 1 1 0 2H9v3a1 1 0 1 1-2 0v-8a1 1 0 0 1 1-1Zm48 0a1 1 0 0 1 1 1v8a1 1 0 1 1-2 0v-3H41a1 1 0 1 1 0-2h14v-3a1 1 0 0 1 1-1ZM30.024 4.951c2.806-1.078 5.672-1.157 8.35-.65 5.097.967 9.615 4.07 12.068 6.699H55V8a1 1 0 0 1 2 0v8a1 1 0 1 1-2 0v-3h-4.558c-2.453 2.629-6.971 5.732-12.068 6.698-2.678.508-5.544.43-8.35-.648-2.689-1.033-5.259-2.962-7.533-6.05H9v3a1 1 0 1 1-2 0V8a1 1 0 0 1 2 0v3h13.492c2.274-3.087 4.844-5.016 7.532-6.049ZM35 6.003a12.409 12.409 0 0 0-4.259.814c-2.238.86-4.464 2.475-6.504 5.183 2.04 2.708 4.266 4.323 6.504 5.183 1.404.539 2.835.788 4.259.813V6.003Zm2 11.885c.335-.042.67-.093 1.001-.156 4.378-.83 8.342-3.444 10.624-5.733-2.282-2.289-6.247-4.902-10.624-5.731A15.77 15.77 0 0 0 37 6.11v11.777Z" class="primary"/>
      <path fill="#FF462D" d="M21.024 24.951c2.806-1.078 5.672-1.157 8.35-.65 5.318 1.009 10.007 4.343 12.377 7.038l.059.073c.272.375.252.894-.059 1.248-2.37 2.695-7.059 6.03-12.377 7.038-2.678.508-5.544.43-8.35-.648-2.81-1.08-5.493-3.137-7.841-6.475a1 1 0 0 1 0-1.15c2.348-3.338 5.031-5.394 7.841-6.474ZM26 26.003a12.414 12.414 0 0 0-4.258.814c-2.238.86-4.464 2.475-6.504 5.183 2.04 2.708 4.266 4.323 6.504 5.183 1.403.538 2.834.788 4.258.813V26.003Zm2 11.885c.335-.042.67-.093 1.002-.156 4.377-.83 8.342-3.444 10.624-5.733-2.282-2.289-6.247-4.903-10.624-5.732A15.772 15.772 0 0 0 28 26.11v11.778Z" class="secondary"/>
    </g>
  </g>
</svg>
