<svg xmlns="http://www.w3.org/2000/svg" width="64" height="64" fill="none" viewBox="0 0 64 64">
  <g class="Size=M">
    <g class="Icon">
      <path fill="#3D3C3C" d="M32 17c15.386 0 28 11.561 28 26a1 1 0 0 1-1 1H46.001a1 1 0 0 1-1-1c0-6.543-5.745-11.963-13.001-11.963-7.256 0-13.001 5.42-13.001 11.963a1 1 0 0 1-1 1H5a1 1 0 0 1-1-1c0-14.439 12.614-26 28-26ZM9.155 31.536C7.305 34.672 6.192 38.228 6.025 42h11.012a13.128 13.128 0 0 1 1.475-5.128l-8.997-4.998a.996.996 0 0 1-.36-.338Zm45.689 0a.997.997 0 0 1-.359.338l-8.998 4.998A13.126 13.126 0 0 1 46.963 42h11.013c-.168-3.772-1.282-7.328-3.132-10.464ZM33 29a.753.753 0 0 1-.004.068c4.733.29 8.903 2.63 11.436 6.109a.767.767 0 0 1 .083-.051l9-5a.97.97 0 0 1 .346-.116C49.414 23.64 41.786 19.325 33 19.02V29Zm-2-9.98c-8.786.305-16.415 4.62-20.862 10.99a.998.998 0 0 1 .347.116l9 5 .082.05c2.533-3.478 6.703-5.818 11.436-6.108A1.031 1.031 0 0 1 31 29v-9.98Z" class="primary"/>
      <path fill="#FF462D" d="M41.168 27.445a1 1 0 0 1 1.664 1.11l-8.434 12.648c.377.501.602 1.122.602 1.797a3 3 0 1 1-2.266-2.906l8.434-12.649Z" class="secondary"/>
    </g>
  </g>
</svg>
