<svg xmlns="http://www.w3.org/2000/svg" width="64" height="64" fill="none" viewBox="0 0 64 64">
  <g class="Size=M">
    <g class="Icon">
      <path fill="#3D3C3C" d="M16 7a1 1 0 1 1 0 2h-3v4.558c2.629 2.453 5.732 6.971 6.698 12.068.508 2.678.43 5.544-.648 8.35-1.033 2.688-2.962 5.258-6.05 7.532V55h3a1 1 0 1 1 0 2H8a1 1 0 0 1 0-2h3V41.508c-3.087-2.274-5.016-4.844-6.049-7.532-1.078-2.806-1.157-5.672-.65-8.35.967-5.097 4.07-9.616 6.699-12.07V9H8a1 1 0 0 1 0-2h8Zm16 42a1 1 0 0 1 1 1v5h3a1 1 0 1 1 0 2h-8a1 1 0 1 1 0-2h3v-5a1 1 0 0 1 1-1ZM56 7a1 1 0 1 1 0 2h-3v4.558c2.629 2.453 5.732 6.971 6.698 12.068.148.777.244 1.57.282 2.374H60v2h-.052a14.27 14.27 0 0 1-.898 3.976c-1.033 2.688-2.962 5.258-6.05 7.532V55h3a1 1 0 1 1 0 2h-8a1 1 0 1 1 0-2h3V41.508c-3.087-2.274-5.016-4.844-6.049-7.532-1.078-2.806-1.157-5.672-.65-8.35.967-5.097 4.07-9.616 6.699-12.07V9h-3a1 1 0 0 1 0-2h8ZM6.059 30c.102 1.092.345 2.184.758 3.259.86 2.238 2.475 4.464 5.183 6.504 2.708-2.04 4.323-4.266 5.183-6.504.413-1.075.656-2.167.758-3.259H6.06Zm40 0a12.26 12.26 0 0 0 .758 3.259c.86 2.238 2.475 4.464 5.183 6.504 2.708-2.04 4.323-4.266 5.183-6.504.413-1.075.656-2.167.758-3.259H46.06Zm-34.06-14.625c-2.289 2.282-4.902 6.247-5.731 10.624-.126.661-.208 1.33-.245 2.001h11.954a15.229 15.229 0 0 0-.245-2.001c-.83-4.377-3.444-8.342-5.733-10.624Zm40 0c-2.289 2.282-4.903 6.247-5.732 10.624A15.21 15.21 0 0 0 46.022 28h11.955a15.229 15.229 0 0 0-.245-2.001c-.83-4.377-3.444-8.342-5.733-10.624ZM36 7a1 1 0 1 1 0 2h-3v14a1 1 0 1 1-2 0V9h-3a1 1 0 0 1 0-2h8Z" class="primary"/>
      <path fill="#FF462D" d="M31.412 22.19a1 1 0 0 1 1.248.059c2.695 2.37 6.03 7.059 7.038 12.377.508 2.678.43 5.544-.648 8.35-1.08 2.81-3.137 5.493-6.475 7.841a1 1 0 0 1-1.15 0c-3.338-2.348-5.394-5.031-6.474-7.842-1.078-2.806-1.157-5.67-.65-8.35 1.009-5.317 4.343-10.006 7.038-12.376l.073-.059ZM26.06 39a12.26 12.26 0 0 0 .758 3.259c.86 2.238 2.475 4.464 5.183 6.504 2.708-2.04 4.323-4.266 5.183-6.504a12.22 12.22 0 0 0 .758-3.26H26.06ZM32 24.375c-2.289 2.282-4.903 6.247-5.732 10.624-.126.66-.208 1.33-.244 2h11.954a15.227 15.227 0 0 0-.245-2c-.83-4.378-3.444-8.342-5.733-10.624Z" class="secondary"/>
    </g>
  </g>
</svg>
