<svg xmlns="http://www.w3.org/2000/svg" width="64" height="64" fill="none" viewBox="0 0 64 64">
  <g class="Size=M">
    <g class="Icon">
      <path fill="#FF462D" d="M48.638 15a1 1 0 0 1 .77.33l6.333 7 .066.078a1 1 0 0 1-1.476 1.335l-.072-.072-5.548-6.131-12.932 16.087a1 1 0 0 1-1.537.026l-10.78-12.506L7.52 30.855a1.001 1.001 0 0 1-1.042-1.71l16.667-10.147.08-.044a1 1 0 0 1 1.198.245l10.549 12.237 12.915-16.063.072-.081a1 1 0 0 1 .678-.292Z" class="secondary"/>
      <path fill="#3D3C3C" d="M7 6a1 1 0 0 1 1 1v39.176l9.457-11.672.063-.071a1 1 0 0 1 1.26-.137l15.697 10.247 13.728-12.288.071-.058a1 1 0 0 1 1.229.029l6.127 5 .076.068a1 1 0 0 1-1.258 1.541l-.082-.06-5.466-4.46-13.66 12.23a1 1 0 0 1-1.214.093L18.442 36.463 8 49.355V55h49l.102.005a1 1 0 0 1 0 1.99L57 57H7a1 1 0 0 1-1-1V7a1 1 0 0 1 1-1Z" class="primary"/>
    </g>
  </g>
</svg>
