<svg xmlns="http://www.w3.org/2000/svg" width="64" height="64" fill="none" viewBox="0 0 64 64">
  <g class="Size=M">
    <g class="Icon">
      <path fill="#FF462D" d="M55.082 11.004a1 1 0 0 1 1.085.996v7a1 1 0 0 1-2 0v-4.57c-3.205 3.96-6.73 10.794-7.168 20.228-.17 3.682-.877 6.546-1.915 8.457-1.011 1.86-2.564 3.145-4.415 2.712-1.702-.4-3.027-2.158-3.927-4.641-.928-2.561-1.528-6.209-1.568-10.977V30.2c0-3.916-.775-6.563-1.813-8.118-1.014-1.52-2.221-1.947-3.321-1.718-1.18.245-2.561 1.31-3.67 3.462-1.1 2.131-1.87 5.224-1.87 9.248 0 8.511-2.708 12.84-5.662 14.988a10.234 10.234 0 0 1-4.001 1.759 9.185 9.185 0 0 1-1.336.17c-.165.009-.297.01-.393.01l-.115-.004h-.035l-.013-.002h-.006l.06-.974-.062.974a1 1 0 1 1 .126-1.997h.004l.06.002c.06 0 .152 0 .274-.007a7.2 7.2 0 0 0 1.043-.133 8.236 8.236 0 0 0 3.218-1.416c2.296-1.67 4.838-5.303 4.838-13.37 0-4.263.814-7.686 2.092-10.163 1.266-2.456 3.054-4.092 5.042-4.505 2.068-.43 4.03.526 5.391 2.566 1.338 2.004 2.148 5.091 2.149 9.219l.014.854c.1 4.2.662 7.324 1.435 9.458.853 2.355 1.85 3.223 2.502 3.375.502.118 1.334-.122 2.202-1.72.842-1.548 1.511-4.08 1.674-7.593.455-9.808 4.096-17.008 7.531-21.295l-4.265.429a1 1 0 0 1-.2-1.99l6.653-.67c.118-.034.24-.045.362-.035Z" class="secondary"/>
      <path fill="#3D3C3C" d="M5 7a1 1 0 0 1 2 0v48h50l.102.005a1 1 0 0 1 0 1.99L57 57H6a1 1 0 0 1-1-1V7Z" class="primary"/>
    </g>
  </g>
</svg>
