<svg xmlns="http://www.w3.org/2000/svg" width="64" height="64" fill="none" viewBox="0 0 64 64">
  <g fill-rule="evenodd" class="cloud-services" clip-rule="evenodd">
    <path fill="#FF462D" d="M11 52a1 1 0 1 0 0 2h16.636a1 1 0 0 0 0-2H11Zm27 0a1 1 0 1 0 0 2h15a1 1 0 1 0 0-2H38Z" class="secondary"/>
    <path fill="#3D3C3C" d="M17.024 21.491C17.49 12.866 24.574 6 33.265 6c7.204 0 13.364 4.428 15.484 11.007 2.928.109 5.686 1.55 7.723 3.673C58.593 22.893 60 25.918 60 29.136 60 36.814 54.953 43 47.263 43H34v4.083c2.84.475 5 2.942 5 5.917 0 3.316-2.684 6-6 6s-6-2.684-6-6a5.999 5.999 0 0 1 5-5.917V43H15.387C9.04 43 4 37.873 4 31.714c0-4.325 2.806-8.4 7.1-10.062 1.696-.66 3.796-.652 5.9-.166l.024.005Zm1.976.906C19 14.44 25.393 8 33.265 8c6.187 0 11.43 3.678 13.415 9.14-2.099.331-4.07 1.202-5.258 2.044a1 1 0 1 0 1.157 1.632C43.79 19.956 46.163 19 48.39 19c2.418 0 4.821 1.17 6.637 3.064C56.84 23.956 58 26.5 58 29.136 58 35.936 53.634 41 47.263 41H15.387C10.142 41 6 36.767 6 31.714c0-3.467 2.267-6.822 5.823-8.197l.002-.001c1.178-.459 2.804-.511 4.636-.102l1.115.492a.99.99 0 0 0 .57.084A1 1 0 0 0 19 22.977v-.581ZM33 49c-2.211 0-4 1.789-4 4 0 2.211 1.789 4 4 4 2.211 0 4-1.789 4-4 0-2.211-1.789-4-4-4Z" class="primary"/>
  </g>
</svg>
