<svg xmlns="http://www.w3.org/2000/svg" width="64" height="64" fill="none" viewBox="0 0 64 64">
  <g fill-rule="evenodd" class="cloud-upload" clip-rule="evenodd">
    <path fill="#FF462D" d="M32.747 28.336a1 1 0 0 0-1.494 0l-8 9a1 1 0 0 0 1.494 1.328L31 31.63V56a1 1 0 1 0 2 0V31.63l6.253 7.034a1 1 0 0 0 1.494-1.328l-8-9Z" class="secondary"/>
    <path fill="#3D3C3C" d="M17 24.354C17 15.866 23.849 9 32.291 9c6.973 0 12.855 4.682 14.684 11.08-1.994.233-3.564.944-4.811 1.87a1 1 0 1 0 1.191 1.606C44.551 22.67 46.152 22 48.403 22c2.396 0 4.793 1.215 6.612 3.194C56.831 27.17 58 29.834 58 32.596c0 3.64-.814 6.763-2.372 8.948-1.529 2.144-3.82 3.456-7.01 3.456a1 1 0 1 0 0 2c3.83 0 6.73-1.62 8.638-4.294C59.133 40.073 60 36.496 60 32.596c0-3.318-1.396-6.453-3.512-8.755-1.975-2.149-4.64-3.637-7.488-3.822a1.003 1.003 0 0 0-.035-.245C46.98 12.418 40.27 7 32.291 7c-9.531 0-17.254 7.732-17.29 17.285-1.439-.137-2.704.059-3.92.547l-.003.001C6.768 26.578 4 30.803 4 35.28c0 6.368 5.002 11.706 11.395 11.706a1 1 0 1 0 0-2C10.178 44.986 6 40.617 6 35.28c0-3.668 2.28-7.155 5.827-8.593 1.226-.491 2.549-.614 4.356-.171.018.004.035.008.052.01l1.499.284a1 1 0 1 0 .371-1.965L17 24.635v-.281Z" class="primary"/>
  </g>
</svg>
