<svg xmlns="http://www.w3.org/2000/svg" width="64" height="64" fill="none" viewBox="0 0 64 64">
  <g fill-rule="evenodd" class="cloud-download" clip-rule="evenodd">
    <path fill="#FF462D" d="M33 31a1 1 0 1 0-2 0v22.586l-6.293-6.293a1 1 0 0 0-1.414 1.414l8 8a.997.997 0 0 0 1.414 0l8-8a1 1 0 0 0-1.414-1.414L33 53.586V31Z" class="secondary"/>
    <path fill="#3D3C3C" d="M17 24.363C17 15.873 23.85 9 32.291 9c6.97 0 12.851 4.69 14.682 11.082-1.994.233-3.561.949-4.805 1.86a1 1 0 0 0 1.183 1.614c1.2-.88 2.804-1.556 5.052-1.556 2.396 0 4.793 1.214 6.613 3.192C56.83 27.167 58 29.83 58 32.591c0 3.645-.729 6.515-2.19 8.572-1.44 2.026-3.674 3.379-6.951 3.847a1 1 0 0 0 .282 1.98c3.723-.532 6.49-2.122 8.3-4.669C59.228 39.804 60 36.47 60 32.591c0-3.319-1.396-6.452-3.512-8.753-1.975-2.147-4.64-3.634-7.488-3.819a1.002 1.002 0 0 0-.035-.238C46.98 12.43 40.271 7 32.291 7c-9.532 0-17.254 7.74-17.29 17.295-1.44-.137-2.706.062-3.922.553C6.768 26.585 4 30.814 4 35.298 4 41.658 9.003 47 15.395 47a1 1 0 1 0 0-2C10.178 45 6 40.625 6 35.298c0-3.678 2.282-7.167 5.827-8.596 1.227-.495 2.55-.62 4.356-.178a.965.965 0 0 0 .056.012l1.498.278a1 1 0 1 0 .365-1.967L17 24.643v-.28Z" class="primary"/>
  </g>
</svg>
