<svg xmlns="http://www.w3.org/2000/svg" width="64" height="64" fill="none" viewBox="0 0 64 64">
  <g fill-rule="evenodd" class="collab-drive" clip-rule="evenodd">
    <path fill="#3D3C3C" d="M38.388 4H17.922l-.061.007c-.864.106-2.072.557-3.074 1.556C13.76 6.59 13 8.141 13 10.333v10.684L7.994 21H7.99c-1.173 0-2.318.308-3.075 1.447C4.24 23.46 4 24.976 4 27v27.215c0 .922-.001 2.344.605 3.535.33.647.838 1.23 1.591 1.64.742.405 1.662.61 2.774.61h37.696c.683 0 1.333-.067 1.96-.287.637-.223 1.194-.584 1.72-1.1 1.002-.986 1.936-2.592 3.16-4.995.89-1.746 1.813-3.489 2.679-5.126l.98-1.857c1.114-2.118 2.072-3.988 2.589-5.258l.01-.026.01-.027c.308-.902.366-2.006-.242-2.924-.627-.948-1.764-1.4-3.197-1.4H39.39c-1.562 0-3.466-1.122-5.41-3.039-.139-.136-.243-.265-.378-.43l-.093-.113a3.963 3.963 0 0 0-.71-.705c-.668-.495-1.542-.713-2.879-.713h-5.482c-1.473 0-3.373 1.024-4.485 3.757v.001L10.828 58H8.97c-.872 0-1.441-.16-1.816-.365a1.8 1.8 0 0 1-.766-.793C6.02 56.12 6 55.159 6 54.135V27c0-1.976.258-2.961.58-3.447.24-.36.59-.553 1.409-.553h.001l5.01.017V37a1 1 0 1 0 2 0V10.333c0-1.69.569-2.724 1.2-3.354.632-.631 1.381-.908 1.85-.979h20.338c2.055 0 3.495 1.15 3.817 1.571l.007.01 3.81 4.759c.51.94.742 1.591.856 2.142.119.576.122 1.091.122 1.843V31a1 1 0 1 0 2 0V16.286c0-.714 0-1.418-.164-2.209-.168-.815-.499-1.676-1.103-2.775l-.042-.076-3.903-4.877C43.113 5.472 41.108 4 38.388 4Zm8.278 54H12.991l8.814-21.488C22.672 34.38 23.93 34 24.438 34h5.482c1.143 0 1.515.192 1.69.32.105.08.201.18.354.367l.068.084c.136.168.32.394.543.615C34.591 37.372 36.992 39 39.39 39h16.945c1.047 0 1.406.318 1.53.504.141.214.206.6.025 1.147-.477 1.163-1.379 2.93-2.495 5.053l-.97 1.84a382.223 382.223 0 0 0-2.7 5.165c-1.245 2.444-2.047 3.755-2.781 4.477-.343.337-.655.526-.98.64-.336.118-.74.174-1.298.174Z" class="primary"/>
    <path fill="#FF462D" d="M20 13a1 1 0 0 1 1-1h20a1 1 0 1 1 0 2H21a1 1 0 0 1-1-1Zm0 6a1 1 0 0 1 1-1h20a1 1 0 1 1 0 2H21a1 1 0 0 1-1-1Zm0 6a1 1 0 0 1 1-1h20a1 1 0 1 1 0 2H21a1 1 0 0 1-1-1Z" class="secondary"/>
  </g>
</svg>
