<svg xmlns="http://www.w3.org/2000/svg" width="64" height="64" fill="none" viewBox="0 0 64 64">
  <g class="Size=M">
    <g fill-rule="evenodd" class="Icon" clip-rule="evenodd">
      <path fill="#FF462D" d="M33 18.5C33 11.596 38.596 6 45.5 6S58 11.596 58 18.5 52.404 31 45.5 31 33 25.404 33 18.5ZM45.5 4C37.492 4 31 10.492 31 18.5S37.492 33 45.5 33 60 26.508 60 18.5 53.508 4 45.5 4Zm5.319 10.574a1 1 0 1 0-1.638-1.148l-5.486 7.828-1.874-2.69a1 1 0 0 0-1.641 1.144l2.692 3.864a1 1 0 0 0 1.64.002l6.307-9Z" class="secondary"/>
      <path fill="#3D3C3C" d="M26 4a1 1 0 0 1 1 1v6a1 1 0 1 1-2 0V5a1 1 0 0 1 1-1Zm-14.707 7.293a1 1 0 0 1 1.414 0l4 4a1 1 0 0 1-1.414 1.414l-4-4a1 1 0 0 1 0-1.414Zm14.653 6.382a1 1 0 0 1-.621 1.27C20.445 20.624 17 25.008 17 30.4c0 3.153 2.185 6.377 4.451 8.752 1.213 1.269 1.84 2.885 2.17 4.51.294 1.445.365 2.958.377 4.338h11.018c.1-1.568.66-3.172 1.408-4.627a19.094 19.094 0 0 1 3.041-4.29c.532-.572 1.028-1.45 1.523-2.326l.058-.102.084-.149a1 1 0 0 1 1.74.988 83.03 83.03 0 0 0-.151.267c-.468.832-1.087 1.93-1.793 2.688l-.006.007a17.093 17.093 0 0 0-2.718 3.831C37.456 45.74 37 47.21 37 48.5v7.565c0 1.217-.69 2.224-1.619 2.889-.93.666-2.165 1.046-3.483 1.046h-4.796c-1.318 0-2.552-.38-3.483-1.046-.929-.665-1.619-1.672-1.619-2.89V48.5c0-1.486-.051-3.025-.339-4.44-.288-1.413-.797-2.628-1.656-3.526C17.67 38.085 15 34.368 15 30.4c0-6.31 4.047-11.412 9.675-13.346a1 1 0 0 1 1.27.621ZM24 50v6.065c0 .405.227.865.783 1.262.554.397 1.37.673 2.319.673h4.796c.949 0 1.765-.276 2.32-.673.554-.397.782-.857.782-1.262V50H24ZM5 27a1 1 0 1 0 0 2h6a1 1 0 1 0 0-2H5Z" class="primary"/>
    </g>
  </g>
</svg>
