<svg xmlns="http://www.w3.org/2000/svg" width="64" height="64" fill="none" viewBox="0 0 64 64">
  <g fill-rule="evenodd" class="console" clip-rule="evenodd">
    <path fill="#3D3C3C" d="M4 10.98C4 7.188 6.9 4 10.616 4h42.768C57.1 4 60 7.188 60 10.98v41.865C60 56.705 57.127 60 53.385 60h-42.77C6.873 60 4 56.705 4 52.845V10.98Zm54 0V16H6v-5.02C6 8.171 8.122 6 10.616 6h42.768C55.878 6 58 8.171 58 10.98ZM6 18h52v34.845C58 55.779 55.852 58 53.385 58h-42.77C8.148 58 6 55.779 6 52.845V18Zm5.13-8h.74c.624 0 1.13.464 1.13 1.037v.926c0 .573-.506 1.037-1.13 1.037h-.74c-.624 0-1.13-.464-1.13-1.037v-.926c0-.573.506-1.037 1.13-1.037Zm6.74 0h-.74c-.624 0-1.13.464-1.13 1.037v.926c0 .573.506 1.037 1.13 1.037h.74c.624 0 1.13-.464 1.13-1.037v-.926c0-.573-.506-1.037-1.13-1.037Zm5.26 0h.74c.624 0 1.13.464 1.13 1.037v.926c0 .573-.506 1.037-1.13 1.037h-.74c-.624 0-1.13-.464-1.13-1.037v-.926c0-.573.506-1.037 1.13-1.037Z" class="primary"/>
    <path fill="#FF462D" d="M28.985 36A8.5 8.5 0 1 1 19 27.132V34a2 2 0 0 0 2 2h7.985Zm-.117-2H21v-6.985A8.504 8.504 0 0 1 28.868 34Zm-8.75-8.993A10.8 10.8 0 0 1 20.5 25C26.299 25 31 29.701 31 35.5S26.299 46 20.5 46 10 41.299 10 35.5c0-5.557 4.317-10.106 9.78-10.476a1.004 1.004 0 0 1 .337-.017ZM38 40a1 1 0 0 1 1-1h14a1 1 0 1 1 0 2H39a1 1 0 0 1-1-1Zm1-8a1 1 0 1 0 0 2h14a1 1 0 1 0 0-2H39Z" class="secondary"/>
  </g>
</svg>
