<svg xmlns="http://www.w3.org/2000/svg" width="64" height="64" fill="none" viewBox="0 0 64 64">
  <g fill-rule="evenodd" class="control-tower" clip-rule="evenodd">
    <path fill="#FF462D" d="M53.795 5.376a1.015 1.015 0 0 0-1.414-.16.986.986 0 0 0-.163 1.396A26.083 26.083 0 0 1 57.987 23a26.103 26.103 0 0 1-5.77 16.389.986.986 0 0 0 .165 1.396 1.015 1.015 0 0 0 1.414-.162A28.075 28.075 0 0 0 60 23c0-6.662-2.327-12.8-6.205-17.624ZM11.782 6.612a.986.986 0 0 0-.163-1.396 1.015 1.015 0 0 0-1.414.16A28.087 28.087 0 0 0 4 23.005a28.06 28.06 0 0 0 6.205 17.619c.346.43.979.502 1.414.16a.986.986 0 0 0 .163-1.396 26.087 26.087 0 0 1-5.769-16.383c0-6.19 2.164-11.907 5.769-16.393Zm6.847 5.593c.41.339.493.979.184 1.43-1.862 2.722-2.954 6.144-2.954 9.865s1.092 7.144 2.954 9.865c.309.451.226 1.091-.184 1.43-.41.339-.993.248-1.302-.203C15.224 31.519 14 27.666 14 23.5c0-4.165 1.223-8.018 3.328-11.092.308-.451.89-.542 1.301-.203Zm28.043.203c-.308-.451-.89-.542-1.301-.203-.41.339-.493.979-.184 1.43 1.862 2.722 2.954 6.144 2.954 9.865s-1.092 7.143-2.954 9.865c-.309.451-.226 1.091.184 1.43.41.339.993.248 1.301-.203C48.777 31.518 50 27.665 50 23.5c0-4.165-1.224-8.018-3.328-11.092Z" class="secondary"/>
    <path fill="#3D3C3C" d="M26.133 23a5.867 5.867 0 1 1 11.734 0 5.867 5.867 0 0 1-11.734 0ZM32 15a8 8 0 0 0-1.67 15.825L15.133 57.484a1.01 1.01 0 0 0 .39 1.385 1.035 1.035 0 0 0 1.402-.387L22.33 49h19.376l5.426 9.496a1 1 0 0 0 1.736-.992l-15.24-26.67A8 8 0 0 0 32 15Zm8.563 32-8.557-14.973L23.471 47h17.092Z" class="primary"/>
  </g>
</svg>
