<svg xmlns="http://www.w3.org/2000/svg" width="64" height="64" fill="none" viewBox="0 0 64 64">
  <g fill-rule="evenodd" class="core-services" clip-rule="evenodd">
    <path fill="#3D3C3C" d="M33.017 13.9A5.004 5.004 0 0 0 37.014 9c0-2.728-2.203-5-4.997-5-2.793 0-4.997 2.272-4.997 5a5.004 5.004 0 0 0 3.998 4.9V23a1 1 0 1 0 1.999 0v-9.1ZM29.076 9c0-1.69 1.35-3 2.941-3 1.591 0 2.942 1.31 2.942 3s-1.35 3-2.942 3c-1.59 0-2.941-1.31-2.941-3Zm19.931 1a4.998 4.998 0 0 0-4.25 7.632l-6.473 6.717c-.404.42-.35 1.05.122 1.41.472.36 1.181.311 1.586-.108l6.25-6.486A4.998 4.998 0 0 0 54.004 15c0-2.761-2.237-5-4.997-5Zm-2.998 5a2.999 2.999 0 1 1 2.998 3 2.999 2.999 0 0 1-2.998-3ZM10.03 16a4.998 4.998 0 1 1 9.16 2.766l6.546 6.57a.971.971 0 0 1-.01 1.382.995.995 0 0 1-1.396-.01l-6.527-6.55A4.998 4.998 0 0 1 10.031 16Zm4.998-3a3 3 0 0 0-2.998 3 3 3 0 1 0 2.998-3Zm23.315 25.33c.439-.44 1.15-.44 1.59 0l6.425 6.43A4.998 4.998 0 0 1 54.004 49c0 2.761-2.236 5-4.996 5a4.998 4.998 0 0 1-4.238-7.65l-6.426-6.43a1.126 1.126 0 0 1 0-1.59ZM49.007 46a2.999 2.999 0 0 0-2.998 3 2.999 2.999 0 1 0 2.998-3Zm-23.279-7.707a1 1 0 0 1 0 1.414l-6.531 6.536A4.998 4.998 0 0 1 15.028 54a4.998 4.998 0 0 1-4.997-5 4.998 4.998 0 0 1 7.752-4.172l6.532-6.535a.999.999 0 0 1 1.413 0ZM15.028 46a3 3 0 0 0-2.998 3 3 3 0 1 0 2.998-3Zm16.989-6a1 1 0 0 1 1 1v9.1a5.001 5.001 0 0 1-1 9.9 5.001 5.001 0 0 1-1-9.9V41a1 1 0 0 1 1-1ZM29.02 55a2.999 2.999 0 1 1 2.998 3 2.999 2.999 0 0 1-2.998-3Zm21.086-22A4.998 4.998 0 0 0 60 32a4.998 4.998 0 0 0-9.894-1h-9.094a1 1 0 0 0 0 2h9.094Zm1.899-1a2.999 2.999 0 1 1 2.998 3 2.999 2.999 0 0 1-2.998-3ZM4 32a4.998 4.998 0 0 1 9.894-1h9.129a1 1 0 0 1 0 2h-9.13A4.998 4.998 0 0 1 4 32Zm4.997-3a2.999 2.999 0 0 0-2.998 3 2.999 2.999 0 1 0 2.998-3Z" class="primary"/>
    <path fill="#FF462D" d="M32 24a8 8 0 1 0 0 16 8 8 0 0 0 0-16Zm-10 8c0-5.523 4.477-10 10-10s10 4.477 10 10-4.477 10-10 10-10-4.477-10-10Z" class="secondary"/>
  </g>
</svg>
