<svg xmlns="http://www.w3.org/2000/svg" width="64" height="64" fill="none" viewBox="0 0 64 64">
  <g fill-rule="evenodd" class="core-enterprise-&amp;-zCloud" clip-rule="evenodd">
    <path fill="#FF462D" d="M17 20h-4v11h22.38a1 1 0 1 1 0 2H13v11h4a3 3 0 0 1 3 3v10a3 3 0 0 1-3 3H7a3 3 0 0 1-3-3V47a3 3 0 0 1 3-3h4V20H7a3 3 0 0 1-3-3V7a3 3 0 0 1 3-3h10a3 3 0 0 1 3 3v10a3 3 0 0 1-3 3ZM7 6a1 1 0 0 0-1 1v10a1 1 0 0 0 1 1h10a1 1 0 0 0 1-1V7a1 1 0 0 0-1-1H7Zm0 40a1 1 0 0 0-1 1v10a1 1 0 0 0 1 1h10a1 1 0 0 0 1-1V47a1 1 0 0 0-1-1H7Z" class="secondary"/>
    <path fill="#3D3C3C" d="M39.918 6C38.292 6 37 7.294 37 8.857v46.286C37 56.706 38.292 58 39.918 58h16.164C57.708 58 59 56.706 59 55.143V8.857C59 7.294 57.708 6 56.082 6H39.918ZM35 8.857C35 6.16 37.217 4 39.918 4h16.164C58.783 4 61 6.16 61 8.857v46.286C61 57.84 58.783 60 56.082 60H39.918C37.217 60 35 57.84 35 55.143V8.857ZM43 15a1 1 0 0 1 1-1h8a1 1 0 1 1 0 2h-8a1 1 0 0 1-1-1Zm1 7a1 1 0 1 0 0 2h8a1 1 0 1 0 0-2h-8Z" class="primary"/>
  </g>
</svg>
