<svg xmlns="http://www.w3.org/2000/svg" width="64" height="64" fill="none" viewBox="0 0 64 64">
  <g fill-rule="evenodd" class="cost-&amp;-asset-management" clip-rule="evenodd">
    <path fill="#FF462D" d="M32.035 12.535a1 1 0 0 1 1 1v5.515c3.875.249 7 3.361 7 7.235a1 1 0 1 1-2 0c0-2.861-2.427-5.25-5.5-5.25s-5.5 2.389-5.5 5.25c0 2.86 2.427 5.25 5.5 5.25 4.103 0 7.5 3.21 7.5 7.25 0 3.873-3.125 6.985-7 7.234v4.457a1 1 0 1 1-2 0v-4.587c-3.4-.67-6-3.57-6-7.105a1 1 0 1 1 2 0c0 2.861 2.427 5.25 5.5 5.25s5.5-2.389 5.5-5.25c0-2.86-2.427-5.25-5.5-5.25-4.103 0-7.5-3.21-7.5-7.25 0-3.534 2.6-6.434 6-7.104v-5.645a1 1 0 0 1 1-1Z" class="secondary"/>
    <path fill="#3D3C3C" d="M6 32.035C6 17.66 17.66 6 32.035 6c9.213 0 17.309 4.78 21.931 12l-4.761-.478a1 1 0 0 0-.2 1.99l7.116.715a1 1 0 0 0 1.095-.895l.714-7.116a1 1 0 1 0-1.99-.2l-.465 4.635C50.472 9.031 41.842 4 32.035 4 16.555 4 4 16.555 4 32.035c0 15.479 12.555 28.034 28.035 28.034 15.479 0 28.034-12.555 28.034-28.035a1 1 0 1 0-2 0c0 14.375-11.66 26.035-26.035 26.035C17.66 58.069 6 46.409 6 32.034Z" class="primary"/>
  </g>
</svg>
