<svg xmlns="http://www.w3.org/2000/svg" width="64" height="64" fill="none" viewBox="0 0 64 64">
  <g fill-rule="evenodd" class="cost" clip-rule="evenodd">
    <path fill="#3D3C3C" d="M32 58c14.36 0 26-11.64 26-26S46.36 6 32 6 6 17.64 6 32s11.64 26 26 26Zm0 2c15.464 0 28-12.536 28-28S47.464 4 32 4 4 16.536 4 32s12.536 28 28 28Z" class="primary"/>
    <path fill="#FF462D" d="M32 13a1 1 0 0 1 1 1v5c0 .024 0 .047-.002.07A6.996 6.996 0 0 1 39 26a1 1 0 1 1-2 0c0-2.756-2.244-5-5-5s-5 2.244-5 5 2.244 5 5 5c3.86 0 7 3.14 7 7 0 3.522-2.613 6.444-6.002 6.93A.977.977 0 0 1 33 45v5a1 1 0 1 1-2 0v-5c0-.024 0-.047.002-.07A6.996 6.996 0 0 1 25 38a1 1 0 1 1 2 0c0 2.756 2.244 5 5 5s5-2.244 5-5-2.244-5-5-5c-3.86 0-7-3.14-7-7 0-3.522 2.613-6.444 6.003-6.93A.977.977 0 0 1 31 19v-5a1 1 0 0 1 1-1Z" class="secondary"/>
  </g>
</svg>
