<svg xmlns="http://www.w3.org/2000/svg" width="64" height="64" fill="none" viewBox="0 0 64 64">
  <g fill-rule="evenodd" class="dashboard" clip-rule="evenodd">
    <path fill="#FF462D" d="M6.905 6C6.45 6 6 6.401 6 7v10c0 .599.45 1 .905 1h16.19c.454 0 .905-.401.905-1V7c0-.599-.45-1-.905-1H6.905ZM4 7c0-1.61 1.255-3 2.905-3h16.19C24.745 4 26 5.39 26 7v10c0 1.61-1.255 3-2.905 3H6.905C5.255 20 4 18.61 4 17V7Z" class="secondary"/>
    <path fill="#3D3C3C" d="M58 31.19A2.81 2.81 0 0 1 55.19 34H42.81A2.81 2.81 0 0 1 40 31.19V8.81A2.81 2.81 0 0 1 42.81 6h12.38A2.81 2.81 0 0 1 58 8.81v22.38ZM55.19 36A4.81 4.81 0 0 0 60 31.19V8.81A4.81 4.81 0 0 0 55.19 4H42.81A4.81 4.81 0 0 0 38 8.81v22.38A4.81 4.81 0 0 0 42.81 36h12.38ZM8.81 30A2.81 2.81 0 0 0 6 32.81v22.38A2.81 2.81 0 0 0 8.81 58h12.38A2.81 2.81 0 0 0 24 55.19V32.81A2.81 2.81 0 0 0 21.19 30H8.81ZM4 32.81A4.81 4.81 0 0 1 8.81 28h12.38A4.81 4.81 0 0 1 26 32.81v22.38A4.81 4.81 0 0 1 21.19 60H8.81A4.81 4.81 0 0 1 4 55.19V32.81ZM57.095 58c.455 0 .905-.401.905-1V47c0-.599-.45-1-.905-1h-16.19c-.455 0-.905.401-.905 1v10c0 .599.45 1 .905 1h16.19ZM60 57c0 1.61-1.255 3-2.905 3h-16.19C39.255 60 38 58.61 38 57V47c0-1.61 1.255-3 2.905-3h16.19C58.745 44 60 45.39 60 47v10Z" class="primary"/>
  </g>
</svg>
