<svg xmlns="http://www.w3.org/2000/svg" width="64" height="64" fill="none" viewBox="0 0 64 64">
  <g fill-rule="evenodd" class="database" clip-rule="evenodd">
    <path fill="#3D3C3C" d="M19.169 6C16.323 6 14 8.336 14 11.235V23h35V11.235C49 8.335 46.676 6 43.831 6H19.17ZM14 40V25h35v15H14Zm0 2v10.765c0 2.9 2.323 5.235 5.169 5.235H43.83c2.846 0 5.17-2.336 5.17-5.235V42H14Zm-2-30.765C12 7.252 15.198 4 19.169 4H43.83C47.801 4 51 7.252 51 11.235v41.53C51 56.748 47.802 60 43.831 60H19.17C15.199 60 12 56.748 12 52.765v-41.53Z" class="primary"/>
    <path fill="#FF462D" d="M22 16c0-1.104-.897-2-2-2s-2 .896-2 2 .897 2 2 2 2-.896 2-2Zm0 16c0-1.104-.897-2-2-2s-2 .896-2 2 .897 2 2 2 2-.896 2-2Zm-2 15c1.103 0 2 .896 2 2s-.897 2-2 2-2-.896-2-2 .897-2 2-2Zm8-32a1 1 0 1 0 0 2h14a1 1 0 1 0 0-2H28Zm-1 17a1 1 0 0 1 1-1h14a1 1 0 1 1 0 2H28a1 1 0 0 1-1-1Zm1 16a1 1 0 1 0 0 2h14a1 1 0 1 0 0-2H28Z" class="secondary"/>
  </g>
</svg>
