<svg xmlns="http://www.w3.org/2000/svg" width="64" height="64" fill="none" viewBox="0 0 64 64">
  <g class="data-search">
    <g class="Icon">
      <path fill="#3D3C3C" d="M39 4a5 5 0 0 1 5 5v19.063c0 .552-.448.937-1 .937s-1-.385-1-.938V26H7v13h22a1 1 0 1 1 0 2H7v14a3 3 0 0 0 3 3h20a1 1 0 0 1 0 2H10a5 5 0 0 1-5-5V9a5 5 0 0 1 5-5h29ZM14 48a2 2 0 1 1 0 4 2 2 0 0 1 0-4Zm0-17a2 2 0 1 1 0 4 2 2 0 0 1 0-4ZM10 6a3 3 0 0 0-3 3v15h35V9a3 3 0 0 0-3-3H10Zm4 7a2 2 0 1 1 0 4 2 2 0 0 1 0-4Z" class="primary"/>
      <path fill="#FF462D" d="M45 32c6.12 0 11 5.195 11 11.5 0 3.1-1.181 5.928-3.107 8.006l5.866 6.844a.999.999 0 1 1-1.518 1.3l-5.833-6.805A10.613 10.613 0 0 1 45 55c-6.12 0-11-5.195-11-11.5S38.88 32 45 32Zm0 2c-4.925 0-9 4.207-9 9.5s4.075 9.5 9 9.5 9-4.207 9-9.5-4.075-9.5-9-9.5Z" class="secondary"/>
    </g>
  </g>
</svg>
