<svg xmlns="http://www.w3.org/2000/svg" width="64" height="64" fill="none" viewBox="0 0 64 64">
  <g class="devops-intelligence">
    <path fill="#FF462D" fill-rule="evenodd" d="M17 32.5c0-4.032 2.91-7.5 6.76-7.5 2.914 0 5.227 1.9 6.723 3.586a18.614 18.614 0 0 1 2.362 3.371l.033.064.01.018.002.006.001.002s.001.001-.891.453l-.892.452-.005-.01-.024-.045a15.257 15.257 0 0 0-.516-.877c-.366-.578-.9-1.345-1.576-2.106C27.6 28.35 25.793 27 23.76 27 21.236 27 19 29.339 19 32.5s2.236 5.5 4.76 5.5c1.317 0 2.533-.565 3.63-1.41a1 1 0 0 1 1.22 1.584C27.307 39.18 25.67 40 23.76 40 19.91 40 17 36.532 17 32.5Zm14.108.452L32 32.5l.892-.452.005.01.024.045a15.257 15.257 0 0 0 .516.877c.366.578.9 1.345 1.576 2.106C36.4 36.65 38.207 38 40.24 38c2.512 0 4.76-2.34 4.76-5.5S42.752 27 40.24 27c-1.213 0-2.593.857-3.505 1.845a1 1 0 1 1-1.47-1.357C36.353 26.31 38.227 25 40.24 25c3.834 0 6.76 3.466 6.76 7.5S44.074 40 40.24 40c-2.914 0-5.227-1.9-6.723-3.586a18.614 18.614 0 0 1-2.362-3.371 8.029 8.029 0 0 1-.033-.064l-.01-.018-.002-.006-.001-.002Z" class="secondary" clip-rule="evenodd"/>
    <path fill="#3D3C3C" d="M41.073 59.99c-.24 0-.48-.03-.72-.1-.75-.2-1.39-.71-1.76-1.41l-2.379-4.32c-.17-.31-.51-.5-.79-.44-2.31.38-4.549.38-6.818 0-.31-.05-.64.13-.81.43l-2.39 4.34a2.83 2.83 0 0 1-1.74 1.4c-.74.2-1.5.09-2.16-.31l-7.008-4.24c-1.34-.81-1.8-2.569-1.04-3.989l2.39-4.37c.19-.35.17-.77-.06-1.06-1.41-1.809-2.56-3.889-3.41-6.198-.12-.35-.41-.56-.76-.56H6.85c-1.57 0-2.849-1.32-2.849-2.94v-8.459c0-1.62 1.28-2.94 2.85-2.94h4.769c.33 0 .64-.23.76-.56a22.58 22.58 0 0 1 3.399-6.188c.23-.29.25-.73.07-1.05l-2.4-4.38c-.76-1.44-.3-3.19 1.03-4l7.009-4.239c.65-.4 1.42-.51 2.15-.31.75.2 1.39.71 1.76 1.41l2.379 4.32c.18.31.51.5.79.45a20.59 20.59 0 0 1 6.828 0c.3.06.64-.13.81-.43l2.39-4.34c.37-.69.99-1.19 1.74-1.4.74-.2 1.5-.09 2.17.31l6.998 4.24c1.34.81 1.8 2.57 1.04 3.99l-2.39 4.369c-.19.35-.17.77.06 1.06 1.42 1.81 2.56 3.89 3.41 6.199.12.35.41.56.76.56h4.769c1.57 0 2.849 1.32 2.849 2.94v8.458c0 1.62-1.28 2.94-2.85 2.94h-4.769c-.33 0-.64.23-.76.56a22.73 22.73 0 0 1-3.399 6.189c-.23.29-.25.73-.07 1.05l2.4 4.38c.76 1.439.3 3.189-1.03 3.999l-7.009 4.24c-.44.269-.93.409-1.43.409l-.01-.01ZM6.85 26.814c-.48 0-.85.42-.85.94v8.46c0 .53.37.939.85.939h4.77c1.2 0 2.26.76 2.65 1.89.769 2.09 1.809 3.99 3.089 5.629.72.92.81 2.23.23 3.27l-2.38 4.349c-.25.47-.11 1.06.32 1.32l7.009 4.24c.24.15.46.13.6.09.21-.06.4-.21.51-.42l2.4-4.34c.569-1.06 1.769-1.66 2.909-1.45 2.03.33 4.069.34 6.138 0 1.12-.21 2.29.37 2.89 1.44l2.39 4.34c.12.22.3.37.52.43.2.06.41.02.59-.09l7.008-4.24c.43-.26.57-.85.31-1.34l-2.38-4.35c-.58-1.03-.49-2.34.24-3.259 1.3-1.68 2.35-3.58 3.1-5.65.42-1.12 1.48-1.869 2.64-1.869h4.768c.48 0 .85-.42.85-.94v-8.459c0-.53-.37-.94-.85-.94h-4.769a2.8 2.8 0 0 1-2.65-1.89 20.533 20.533 0 0 0-3.089-5.629c-.72-.92-.81-2.23-.23-3.27l2.38-4.349c.25-.47.11-1.06-.32-1.32l-6.999-4.239a.725.725 0 0 0-.6-.09c-.21.06-.4.21-.51.42l-2.39 4.34c-.569 1.06-1.769 1.65-2.909 1.45-2.03-.33-4.059-.34-6.139 0-1.12.21-2.279-.37-2.879-1.44l-2.39-4.34a.846.846 0 0 0-.52-.43.726.726 0 0 0-.59.09l-7.008 4.24c-.43.26-.57.85-.31 1.34l2.38 4.349c.58 1.03.49 2.34-.24 3.26a20.788 20.788 0 0 0-3.1 5.649c-.42 1.12-1.48 1.87-2.64 1.87H6.85Z" class="primary"/>
  </g>
</svg>
