<svg xmlns="http://www.w3.org/2000/svg" width="64" height="64" fill="none" viewBox="0 0 64 64">
  <g fill-rule="evenodd" class="digital-workplace" clip-rule="evenodd">
    <path fill="#3D3C3C" d="M4 11.436C4 7.9 6.817 5 10.332 5h43.335C57.183 5 60 7.9 60 11.436v30.128C60 45.1 57.183 48 53.667 48H33v8h11a1 1 0 1 1 0 2H20a1 1 0 1 1 0-2h11v-8H10.332C6.817 48 4 45.1 4 41.564V11.436Zm2 0C6 8.968 7.958 7 10.332 7h43.335C56.042 7 58 8.968 58 11.436V37H6V11.436ZM6 39h52v2.564C58 44.032 56.042 46 53.667 46H10.333C7.958 46 6 44.032 6 41.564V39Z" class="primary"/>
    <path fill="#FF462D" d="M29 16.667a3 3 0 1 1 6 0 3 3 0 0 1-6 0Zm3-5a5 5 0 0 0-4.821 6.33l-6.017 3.669a5 5 0 1 0 1.552 1.396l5.376-3.279A4.99 4.99 0 0 0 32 21.667a4.988 4.988 0 0 0 3.755-1.699l5.527 3.371a5 5 0 1 0 1.03-1.715l-5.562-3.392A5 5 0 0 0 32 11.666ZM46 22a3 3 0 1 0 0 6 3 3 0 0 0 0-6Zm-30.334 4a3 3 0 1 1 6 0 3 3 0 0 1-6 0Z" class="secondary"/>
  </g>
</svg>
