<svg xmlns="http://www.w3.org/2000/svg" width="64" height="64" fill="none" viewBox="0 0 64 64">
  <g fill-rule="evenodd" class="document-add" clip-rule="evenodd">
    <g fill="#3D3C3C" class="primary">
      <path d="M12.733 6C10.111 6 8 8.111 8 10.684v42.632C8 55.89 10.111 58 12.733 58h10.034a1 1 0 1 1 0 2H12.733C9.021 60 6 57.008 6 53.316V10.683C6 6.993 9.021 4 12.733 4H36l.707.293 14 14L51 19v5.895a1 1 0 1 1-2 0v-5.48L35.586 6H12.733Z"/>
      <path d="M35 4a1 1 0 0 1 1 1v11.205c0 .929.827 1.795 2 1.795h12a1 1 0 1 1 0 2H38c-2.14 0-4-1.63-4-3.795V5a1 1 0 0 1 1-1Z"/>
    </g>
    <path fill="#FF462D" d="M42 30c-8.297 0-15 6.726-15 15 0 8.274 6.703 15 15 15 8.275 0 15-6.725 15-15 0-8.274-6.703-15-15-15ZM29 45c0-7.171 5.81-13 13-13s13 5.829 13 13c0 7.17-5.83 13-13 13-7.19 0-13-5.829-13-13Zm13-8a1 1 0 0 1 1 1v6h6a1 1 0 1 1 0 2h-6v6a1 1 0 1 1-2 0v-6h-6a1 1 0 1 1 0-2h6v-6a1 1 0 0 1 1-1Z" class="secondary"/>
  </g>
</svg>
