<svg xmlns="http://www.w3.org/2000/svg" width="64" height="64" fill="none" viewBox="0 0 64 64">
  <g fill-rule="evenodd" class="document" clip-rule="evenodd">
    <path fill="#3D3C3C" d="M16.604 4C12.94 4 10 7.007 10 10.687v42.626C10 56.993 12.941 60 16.604 60h30.792C51.06 60 54 56.993 54 53.313V19.209l-.288-.702L39.713 4.299A.997.997 0 0 0 39 4H16.604ZM38 6H16.604C14.074 6 12 8.083 12 10.687v42.626C12 55.917 14.074 58 16.604 58h30.792C49.926 58 52 55.917 52 53.313V21H41.796C39.64 21 38 19.141 38 17.004V6Zm13.39 13L40 7.44v9.564C40 18.17 40.872 19 41.796 19h9.595Z" class="primary"/>
    <path fill="#FF462D" d="M18 30a1 1 0 0 1 1-1h26a1 1 0 1 1 0 2H19a1 1 0 0 1-1-1Zm0 8a1 1 0 0 1 1-1h26a1 1 0 1 1 0 2H19a1 1 0 0 1-1-1Zm1 7a1 1 0 1 0 0 2h17a1 1 0 1 0 0-2H19Z" class="secondary"/>
  </g>
</svg>
