<svg xmlns="http://www.w3.org/2000/svg" width="64" height="64" fill="none" viewBox="0 0 64 64">
  <g class="Size=M">
    <g class="Icon">
      <path fill="#3D3C3C" d="M9 51.664a1 1 0 0 1 1 1V55c0 .953.525 1.667 1.477 2.193.978.54 2.3.807 3.523.807h2a1 1 0 1 1 0 2h-2c-1.46 0-3.139-.31-4.49-1.057C9.133 58.182 8 56.895 8 55v-2.336a1 1 0 0 1 1-1ZM41 23a2 2 0 0 1 2 2v17.286l13.445-3.879A2 2 0 0 1 59 40.33V58a2 2 0 0 1-2 2H26a2 2 0 0 1-2-2V25a2 2 0 0 1 2-2h15ZM26 49v9h15v-9H26Zm17-4.633V58h14V40.33l-14 4.037ZM9 37a1 1 0 0 1 1 1v8h3a1 1 0 1 1 0 2H5a1 1 0 1 1 0-2h3v-8a1 1 0 0 1 1-1Zm17 10h15V37H26v10Zm0-12h15V25H26v10ZM9 19a1 1 0 0 1 1 1v8h3a1 1 0 1 1 0 2H5a1 1 0 1 1 0-2h3v-8a1 1 0 0 1 1-1ZM46.115 4C49.406 4 52 6.84 52 10.184v17.662a1 1 0 1 1-2 0V10.184C50 7.83 48.191 6 46.115 6h-32.23C11.809 6 10 7.83 10 10.184V14h3l.102.005a1 1 0 0 1 0 1.99L13 16H5a1 1 0 1 1 0-2h3v-3.816C8 6.84 10.594 4 13.885 4h32.23Z" class="primary"/>
      <path fill="#FF462D" d="M48 53a1 1 0 1 1 0 2h-3a1 1 0 1 1 0-2h3Zm7 0a1 1 0 1 1 0 2h-3a1 1 0 1 1 0-2h3Zm-7-6a1 1 0 1 1 0 2h-3a1 1 0 1 1 0-2h3Zm7 0a1 1 0 1 1 0 2h-3a1 1 0 1 1 0-2h3Zm-24-6a1 1 0 1 1 0 2h-3a1 1 0 1 1 0-2h3Zm8 0a1 1 0 1 1 0 2h-3a1 1 0 1 1 0-2h3Zm-8-12a1 1 0 1 1 0 2h-3a1 1 0 1 1 0-2h3Zm8 0a1 1 0 1 1 0 2h-3a1 1 0 1 1 0-2h3Z" class="secondary"/>
    </g>
  </g>
</svg>
