<svg xmlns="http://www.w3.org/2000/svg" width="64" height="64" fill="none" viewBox="0 0 64 64">
  <g fill-rule="evenodd" class="enterprise-marketplace" clip-rule="evenodd">
    <path fill="#3D3C3C" d="M18 7a3 3 0 0 1 3-3h32a3 3 0 0 1 3 3v52a1 1 0 0 1-1 1H9a1 1 0 0 1-1-1V28.23a3 3 0 0 1 3.326-2.982l6.674.73V7Zm-8 51h21V30.308a1 1 0 0 0-.891-.994l-19-2.077A1 1 0 0 0 10 28.23V58Zm23 0h21V7a1 1 0 0 0-1-1H21a1 1 0 0 0-1 1v19.197l10.326 1.13A3 3 0 0 1 33 30.307V58Z" class="primary"/>
    <path fill="#FF462D" d="M27 14a1 1 0 0 1 1-1h5a1 1 0 1 1 0 2h-5a1 1 0 0 1-1-1Zm13 0a1 1 0 0 1 1-1h5a1 1 0 1 1 0 2h-5a1 1 0 0 1-1-1Zm0 8a1 1 0 0 1 1-1h5a1 1 0 1 1 0 2h-5a1 1 0 0 1-1-1Zm1 8a1 1 0 1 0 0 2h5a1 1 0 1 0 0-2h-5Zm-1 8a1 1 0 0 1 1-1h5a1 1 0 1 1 0 2h-5a1 1 0 0 1-1-1Zm1 7a1 1 0 1 0 0 2h5a1 1 0 1 0 0-2h-5ZM14 35a1 1 0 1 0 0 2h3a1 1 0 1 0 0-2h-3Zm-1 10a1 1 0 0 1 1-1h3a1 1 0 1 1 0 2h-3a1 1 0 0 1-1-1Zm11-10a1 1 0 1 0 0 2h3a1 1 0 1 0 0-2h-3Zm-1 10a1 1 0 0 1 1-1h3a1 1 0 1 1 0 2h-3a1 1 0 0 1-1-1Zm5-24a1 1 0 1 0 0 2h5a1 1 0 1 0 0-2h-5Z" class="secondary"/>
  </g>
</svg>
