<svg xmlns="http://www.w3.org/2000/svg" width="64" height="64" fill="none" viewBox="0 0 64 64">
  <g fill-rule="evenodd" class="explore" clip-rule="evenodd">
    <path fill="#3D3C3C" d="M32 6C17.64 6 6 17.64 6 32s11.64 26 26 26 26-11.64 26-26S46.36 6 32 6ZM4 32C4 16.536 16.536 4 32 4s28 12.536 28 28-12.536 28-28 28S4 47.464 4 32Z" class="primary"/>
    <path fill="#FF462D" d="M45.92 19.394a1 1 0 0 0-1.314-1.313l-18 7.706a1 1 0 0 0-.445.374 1 1 0 0 0-.374.445l-7.706 18a1 1 0 0 0 1.313 1.313l18-7.706a1 1 0 0 0 .445-.374 1 1 0 0 0 .374-.445l7.706-18Zm-8.964 15.854-8.204-8.204 14.346-6.142-6.142 14.346Zm-16.054 7.85 6.142-14.346 8.204 8.204-14.346 6.142Z" class="secondary"/>
  </g>
</svg>
