<svg xmlns="http://www.w3.org/2000/svg" width="64" height="64" fill="none" viewBox="0 0 64 64">
  <g fill-rule="evenodd" class="finance" clip-rule="evenodd">
    <path fill="#FF462D" d="M11 30a1 1 0 0 1 1 1v28a1 1 0 1 1-2 0V31a1 1 0 0 1 1-1Zm21 0a1 1 0 0 1 1 1v28a1 1 0 1 1-2 0V31a1 1 0 0 1 1-1Zm22 1a1 1 0 1 0-2 0v28a1 1 0 1 0 2 0V31Z" class="secondary"/>
    <path fill="#3D3C3C" d="M35.425 5.193h-.002c-1.973-1.59-4.898-1.59-6.87 0a1 1 0 0 0-.093.086L5.835 23.389l-.002.001c-1.84 1.482-2.216 3.668-1.477 5.467C5.088 30.64 6.89 32 9.255 32h45.481c2.37 0 4.177-1.357 4.91-3.143.739-1.801.357-3.988-1.49-5.469L35.425 5.193Zm-5.606 1.56a.993.993 0 0 0 .086-.077c1.24-.925 3.056-.9 4.264.074l.003.003 22.733 18.196c1.123.9 1.309 2.129.89 3.148-.424 1.035-1.5 1.903-3.059 1.903H9.255c-1.55 0-2.624-.866-3.05-1.903-.418-1.021-.233-2.25.882-3.148v-.001L29.82 6.753ZM5 58a1 1 0 1 0 0 2h54a1 1 0 1 0 0-2H5Z" class="primary"/>
  </g>
</svg>
