<svg xmlns="http://www.w3.org/2000/svg" width="64" height="64" fill="none" viewBox="0 0 64 64">
  <g fill-rule="evenodd" class="go-to-market" clip-rule="evenodd">
    <path fill="#3D3C3C" d="M32.075 4h.001c6.564 0 14.71 2.606 19.523 6.202a1 1 0 0 1-1.198 1.602C45.963 8.487 38.245 6 32.076 6 17.64 6.014 6 17.028 6 30.452c0 2.212.186 4.314.66 6.317a1 1 0 1 1-1.945.462C4.195 35.037 4 32.773 4 30.45 4 15.808 16.655 4.015 32.075 4Zm26.046 21.025a1 1 0 0 1 1.196.755c.535 2.369.683 4.834.683 7.337C60 48.004 47.14 60 31.456 60c-6.694 0-14.076-1.533-19.065-5.36a1 1 0 0 1 1.218-1.587C18.104 56.502 24.977 58 31.456 58 46.155 58 58 46.784 58 33.117c0-2.434-.145-4.733-.634-6.897a1 1 0 0 1 .755-1.195ZM14.027 31c.448-8.12 6.305-14.825 14.018-16.562-.742 1.017-1.388 2.307-1.931 3.783-1.235 3.35-2.012 7.84-2.105 12.779h-9.982Zm0 2c.448 8.117 6.312 14.822 14.017 16.56-.742-1.016-1.387-2.306-1.93-3.78-1.235-3.351-2.012-7.84-2.105-12.78h-9.982Zm11.983 0c.092 4.755.842 9 1.98 12.088.61 1.655 1.312 2.924 2.041 3.762.732.84 1.4 1.15 1.969 1.15.57 0 1.237-.31 1.969-1.15.729-.838 1.43-2.107 2.04-3.762C37.149 42 37.899 37.755 37.99 33H26.01Zm13.98 0c-.092 4.94-.869 9.429-2.104 12.78-.543 1.475-1.189 2.765-1.93 3.782C43.667 47.825 49.525 41.12 49.971 33H39.99Zm9.982-2h-9.981c-.093-4.94-.87-9.429-2.105-12.78-.543-1.475-1.189-2.765-1.93-3.782C43.667 16.175 49.525 22.88 49.971 31ZM52 32c0-11.027-8.973-20-20-20s-20 8.973-20 20c0 11.028 8.988 20 20 20 11.027 0 20-8.973 20-20Zm-14.01-1H26.01c.092-4.755.842-9 1.98-12.088.61-1.655 1.312-2.924 2.041-3.762.732-.84 1.4-1.15 1.969-1.15.57 0 1.237.31 1.969 1.15.729.838 1.43 2.107 2.04 3.762C37.149 22 37.899 26.245 37.99 31Z" class="primary"/>
    <path fill="#FF462D" d="M52.874 10.874a3.02 3.02 0 0 1 4.252 0 3.02 3.02 0 0 1 0 4.252 3.02 3.02 0 0 1-4.252 0 3.02 3.02 0 0 1 0-4.252ZM58.54 9.46a5.02 5.02 0 0 0-7.08 0 5.02 5.02 0 0 0 0 7.08 5.02 5.02 0 0 0 7.08 0 5.02 5.02 0 0 0 0-7.08ZM6.874 48.874a3.02 3.02 0 0 1 4.252 0 3.02 3.02 0 0 1 0 4.252 3.02 3.02 0 0 1-4.251 0 3.02 3.02 0 0 1 0-4.252Zm5.666-1.414a5.02 5.02 0 0 0-7.08 0 5.02 5.02 0 0 0 0 7.08 5.02 5.02 0 0 0 7.08 0 5.02 5.02 0 0 0 0-7.08Z" class="secondary"/>
  </g>
</svg>
