<svg xmlns="http://www.w3.org/2000/svg" width="64" height="64" fill="none" viewBox="0 0 64 64">
  <g fill-rule="evenodd" class="group" clip-rule="evenodd">
    <path fill="#3D3C3C" d="M9 15a6 6 0 1 1 12 0 6 6 0 0 1-12 0Zm6-8a8 8 0 1 0 0 16 8 8 0 0 0 0-16Zm34 2a6 6 0 1 0 0 12 6 6 0 0 0 0-12Zm-8 6a8 8 0 1 1 16 0 8 8 0 0 1-16 0Zm-9 11a6 6 0 1 0 0 12 6 6 0 0 0 0-12Zm-8 6a8 8 0 1 1 16 0 8 8 0 0 1-16 0Zm20-4a1 1 0 0 1 1-1h9.219c3.24 0 5.8 2.695 5.78 5.956l-.043 5.75A1 1 0 0 1 59 40H45a1 1 0 1 1 0-2h12.962L58 32.944C58.012 30.735 56.294 29 54.219 29H45a1 1 0 0 1-1-1Zm-25-1a1 1 0 1 1 0 2H9.781c-2.075 0-3.793 1.736-3.78 3.943v.001L6.037 38H19a1 1 0 1 1 0 2H5a1 1 0 0 1-.956-1.293L4 32.956C3.982 29.695 6.541 27 9.781 27H19Z" class="primary"/>
    <path fill="#FF462D" d="M20 49.943 20.042 55h23.916L44 49.944v-.001c.012-2.12-1.824-3.943-4.247-3.943H24.247c-2.423 0-4.26 1.823-4.247 3.943Zm25.952 5.75L46 49.959v-.002c.02-3.35-2.837-5.957-6.247-5.957H24.247c-3.41 0-6.267 2.608-6.247 5.956v.002l.05 6.05a1 1 0 0 0 1 .992H45a1 1 0 0 0 .952-1.306Z" class="secondary"/>
  </g>
</svg>
