<svg xmlns="http://www.w3.org/2000/svg" width="64" height="64" fill="none" viewBox="0 0 64 64">
  <g fill-rule="evenodd" class="growth-crop" clip-rule="evenodd">
    <path fill="#3D3C3C" d="M54.654 6.967c-11.62.706-18.209 5.737-21.795 11.667-2.865 4.736-3.851 10.11-3.859 14.452v.105c.001.78.034 1.526.094 2.228 12.078-.217 18.76-4.81 22.298-10.447 3.661-5.832 4.065-12.96 3.262-18.005ZM27 37.384h-.037c-5.218-.102-9.133-.974-12.055-2.46-2.944-1.496-4.83-3.59-6.011-6.029-1.17-2.414-1.63-5.13-1.803-7.862-.132-2.096-.097-4.262-.063-6.344.01-.623.02-1.238.026-1.841.01-1.019.822-1.874 1.865-1.938 4.713-.29 8.384.584 11.223 2.255 2.837 1.67 4.76 4.087 6.063 6.748.818 1.674 1.397 3.458 1.805 5.237.653-2.526 1.66-5.096 3.127-7.521 3.94-6.515 11.144-11.886 23.412-12.625.98-.06 1.909.605 2.071 1.615.86 5.344.471 13.013-3.528 19.385C49.132 32.318 41.73 37.19 29 37.387v17.699a.992.992 0 0 1-1 .982c-.552 0-1-.44-1-.982V37.383Zm-7.882-22.532c-2.426-1.428-5.676-2.25-10.06-1.98-.007.633-.017 1.267-.027 1.9-.034 2.068-.068 4.128.06 6.139.165 2.618.6 5.049 1.612 7.14 1 2.066 2.583 3.836 5.124 5.128 2.561 1.302 6.145 2.141 11.171 2.239-.017-3.876-.232-9.824-2.593-14.653-1.172-2.396-2.858-4.483-5.287-5.914Z" class="primary"/>
    <path fill="#FF462D" d="M28 56c-3.857 0-7.776 1.255-13.584 3.91a1 1 0 0 1-.832-1.82C19.445 55.413 23.691 54 28 54c4.31 0 8.557 1.412 14.416 4.09a1 1 0 0 1-.831 1.82C35.776 57.255 31.857 56 28 56Z" class="secondary"/>
  </g>
</svg>
