<svg xmlns="http://www.w3.org/2000/svg" width="64" height="64" fill="none" viewBox="0 0 64 64">
  <g fill-rule="evenodd" class="health" clip-rule="evenodd">
    <path fill="#FF462D" d="M28.877 19a1 1 0 0 1 .905.649L34.791 33H54.5a1 1 0 1 1 0 2H34.099a1 1 0 0 1-.937-.649l-4.4-11.727-5.3 11.786a1 1 0 0 1-.913.59H9a1 1 0 1 1 0-2h12.903l6.03-13.41a1 1 0 0 1 .944-.59Z" class="secondary"/>
    <path fill="#3D3C3C" d="M26.92 10.746c-2.519-1.771-5.838-3.222-9.536-2.599h-.002c-2.845.475-5.147 2.122-6.91 4.063-1.765 1.943-2.933 4.12-3.506 5.506-2.077 5.042-.777 10.883 3.682 17.575 4.36 6.545 11.63 13.721 21.215 21.427 9.587-7.721 16.929-14.955 21.361-21.553 4.536-6.75 5.9-12.635 3.835-17.663-.576-1.376-1.742-3.454-3.5-5.301-1.758-1.846-4.06-3.415-6.918-3.892-3.692-.618-7.015.798-9.536 2.529-2.517 1.727-4.118 3.69-4.301 3.927a1 1 0 0 1-1.584 0c-.191-.248-1.787-2.253-4.3-4.02Zm5.1 1.87a24.15 24.15 0 0 0-3.95-3.506c-2.735-1.924-6.59-3.68-11.017-2.935-3.431.572-6.11 2.542-8.062 4.69-1.95 2.148-3.232 4.535-3.874 6.087v.001C2.672 22.89 4.36 29.463 8.984 36.4 13.61 43.343 21.29 50.84 31.24 58.782a1 1 0 0 0 1.248-.001c9.949-7.954 17.699-15.508 22.397-22.5 4.69-6.982 6.463-13.605 4.022-19.542l-.002-.005c-.653-1.563-1.944-3.86-3.898-5.912-1.959-2.057-4.63-3.917-8.036-4.486-4.407-.738-8.258.973-10.998 2.853a23.938 23.938 0 0 0-3.954 3.427Z" class="primary"/>
  </g>
</svg>
