<svg xmlns="http://www.w3.org/2000/svg" width="64" height="64" fill="none" viewBox="0 0 64 64">
  <g fill-rule="evenodd" class="ID" clip-rule="evenodd">
    <path fill="#3D3C3C" d="M16.8 6C14.114 6 12 8.09 12 10.593v42.814C12 55.91 14.114 58 16.8 58h30.4c2.686 0 4.8-2.09 4.8-4.593V10.593C52 8.09 49.886 6 47.2 6H16.8ZM10 10.593C10 6.918 13.08 4 16.8 4h30.4c3.72 0 6.8 2.918 6.8 6.593v42.814C54 57.082 50.92 60 47.2 60H16.8c-3.72 0-6.8-2.918-6.8-6.593V10.593ZM32 11a4 4 0 1 0 0 8 4 4 0 0 0 0-8Zm-6 4a6 6 0 1 1 12 0 6 6 0 0 1-12 0Zm-3 13.927c-.01-.774.367-1.491 1.017-2.041A3.772 3.772 0 0 1 26.392 26h11.595c1.736 0 3.02 1.16 3.013 2.742V33H23v-4.073ZM26.392 24c-1.332 0-2.664.51-3.667 1.36-1.009.852-1.742 2.103-1.725 3.586V34a1 1 0 0 0 1 1h20a1 1 0 0 0 1-1v-5.251C43.011 25.853 40.612 24 37.986 24H26.392Z" class="primary"/>
    <path fill="#FF462D" d="M22 41a1 1 0 1 0 0 2h20a1 1 0 1 0 0-2H22Zm0 5a1 1 0 1 0 0 2h20a1 1 0 1 0 0-2H22Z" class="secondary"/>
  </g>
</svg>
