<svg xmlns="http://www.w3.org/2000/svg" width="64" height="64" fill="none" viewBox="0 0 64 64">
  <g fill-rule="evenodd" class="integrated-AIOps" clip-rule="evenodd">
    <path fill="#3D3C3C" d="M27.69 5c-.692 0-1.336.307-1.799.725-.462.417-.857 1.052-.857 1.81v4.224c-1.534.418-2.928.95-4.317 1.718l-2.94-2.941a2.44 2.44 0 0 0-3.465.002l-4.776 4.777a2.44 2.44 0 0 0 .002 3.464l2.938 2.937a21.094 21.094 0 0 0-1.873 4.525H6.448A2.446 2.446 0 0 0 4 28.69v6.758a2.446 2.446 0 0 0 2.448 2.449h4.153a20.955 20.955 0 0 0 1.874 4.525l-2.94 2.94a2.44 2.44 0 0 0 .003 3.463l.004.004 4.773 4.773a2.44 2.44 0 0 0 3.464-.002l.003-.004 2.937-2.937c1.399.762 2.793 1.245 4.315 1.652v4.224c0 1.353 1.147 2.5 2.5 2.5h3.5a1 1 0 1 0 0-2h-3.5c-.249 0-.5-.251-.5-.5v-5a1 1 0 0 0-.76-.971c-1.993-.492-3.585-1.022-5.198-2.008a1 1 0 0 0-1.229.147l-3.485 3.485-.006.006a.44.44 0 0 1-.627-.006l-4.78-4.78-.005-.005a.44.44 0 0 1 .006-.627l3.485-3.485a1 1 0 0 0 .147-1.229 18.94 18.94 0 0 1-2.238-5.401 1 1 0 0 0-.972-.764H6.448A.447.447 0 0 1 6 35.448V28.69c0-.25.2-.449.448-.449h4.924a1 1 0 0 0 .971-.76 19.104 19.104 0 0 1 2.239-5.405 1 1 0 0 0-.147-1.229l-3.485-3.485-.006-.006a.44.44 0 0 1 .006-.627l4.78-4.78.005-.005a.44.44 0 0 1 .627.006l3.485 3.485a1 1 0 0 0 1.229.147c1.63-.996 3.242-1.602 5.194-2.076a1 1 0 0 0 .764-.972v-5c0-.044.032-.176.198-.325A.754.754 0 0 1 27.686 7l3.338.034a1 1 0 1 0 .02-2L27.7 5h-.01Zm10.344 8.034a1 1 0 0 1 1 1v5a1 1 0 0 1-1 1h-7c-6.55 0-12 5.483-12 12s5.45 12 12 12h7a1 1 0 0 1 1 1v5a1 1 0 1 1-2 0v-4h-6c-7.659 0-14-6.382-14-14 0-7.617 6.341-14 14-14h6v-4a1 1 0 0 1 1-1Zm-9 19a1 1 0 0 1 1-1h21a1 1 0 1 1 0 2h-21a1 1 0 0 1-1-1Zm15-15a1 1 0 0 0-1 1v6h-12a1.01 1.01 0 0 0-.14.01 1.01 1.01 0 0 0-.14-.01c-4.284 0-7.72 3.522-7.72 7.838 0 4.209 3.117 8.162 7.5 8.162h12.5v6a1 1 0 0 0 1 1h4a1 1 0 1 0 0-2h-3v-6a1 1 0 0 0-1-1h-13.5c-3.047 0-5.5-2.811-5.5-6.162 0-3.244 2.574-5.838 5.72-5.838a.923.923 0 0 0 .14-.01c.046.007.093.01.14.01h13a1 1 0 0 0 1-1v-6h3a1 1 0 1 0 0-2h-4Z" class="primary"/>
    <path fill="#FF462D" d="M38.034 7.034a3 3 0 1 0 0 6 3 3 0 0 0 0-6Zm-5 3a5 5 0 1 1 10 0 5 5 0 0 1-10 0Zm22 19a3 3 0 1 0 0 6 3 3 0 0 0 0-6Zm-5 3a5 5 0 1 1 10 0 5 5 0 0 1-10 0Zm-15 22a3 3 0 1 1 6 0 3 3 0 0 1-6 0Zm3-5a5 5 0 1 0 0 10 5 5 0 0 0 0-10Zm14-34a3 3 0 1 0 0 6 3 3 0 0 0 0-6Zm-5 3a5 5 0 1 1 10 0 5 5 0 0 1-10 0Zm2 28a3 3 0 1 1 6 0 3 3 0 0 1-6 0Zm3-5a5 5 0 1 0 0 10 5 5 0 0 0 0-10Z" class="secondary"/>
  </g>
</svg>
