<svg xmlns="http://www.w3.org/2000/svg" width="64" height="64" fill="none" viewBox="0 0 64 64">
  <g class="Size=M">
    <g class="Icon">
      <path fill="#3D3C3C" d="M38.912 5.49c.766-1.401 2.524-1.925 3.912-1.092l.001-.001 6.679 3.892.085.056a1 1 0 0 1-1.001 1.719l-.092-.047-6.679-3.893-.007-.005-.01-.004a.801.801 0 0 0-1.085.257l-.049.08-2.417 4.354h.001c-.562 1.014-1.69 1.66-2.904 1.447a19.047 19.047 0 0 0-6.215.001h-.003c-1.195.194-2.33-.416-2.901-1.447L23.815 6.46c-.251-.453-.76-.57-1.146-.344v.001l-7.058 4.239a.986.986 0 0 0-.367 1.21l.042.087.005.007 2.411 4.359.099.195c.458.991.35 2.185-.33 3.071l-.01.012a20.177 20.177 0 0 0-3.128 5.647l-.001.003a2.837 2.837 0 0 1-2.655 1.87h-4.81c-.437 0-.867.383-.867.943v8.477c0 .556.425.943.867.943h4.81c1.172 0 2.25.726 2.656 1.873l.146.387a20.501 20.501 0 0 0 2.984 5.262c.692.881.794 2.092.338 3.081l-.099.195-2.412 4.36v.001c-.248.445-.108.987.244 1.251l.073.049.004.002 7.059 4.238.006.004.072.04c.369.174.834.042 1.062-.378l.005-.009 2.412-4.346c.561-1.013 1.69-1.658 2.903-1.447 1.011.167 2.048.257 3.108.257s2.097-.09 3.108-.257h.003l.224-.027c1.044-.081 2.005.45 2.56 1.284l.112.183.004.007 2.411 4.345c.253.455.765.572 1.15.342l.007-.005 6.68-3.891.09-.047a1 1 0 0 1 .917 1.774l-6.679 3.893V59.6c-1.385.817-3.13.313-3.912-1.093l-2.408-4.34-.081-.12c-.202-.262-.497-.372-.754-.33a21.038 21.038 0 0 1-6.865 0h-.007l-.007-.003c-.244-.044-.533.056-.734.321l-.081.125-2.412 4.347h-.002c-.768 1.407-2.537 1.931-3.927 1.084l-7.05-4.233c-1.365-.812-1.816-2.602-1.044-3.99l2.411-4.359.064-.137c.103-.279.077-.59-.052-.824l-.073-.11a22.525 22.525 0 0 1-3.437-6.201l-.005-.013a.812.812 0 0 0-.772-.544h-4.81C5.237 39.181 4 37.814 4 36.238V27.76c0-1.599 1.26-2.943 2.867-2.943h4.81c.328 0 .65-.21.778-.56a22.173 22.173 0 0 1 3.43-6.193.993.993 0 0 0 .13-.942l-.063-.134-2.412-4.36c-.775-1.385-.309-3.164 1.036-3.984l.006-.003 7.059-4.238.003-.002.131-.075c1.275-.67 2.816-.262 3.63.91l.159.254 2.412 4.346.078.121a.79.79 0 0 0 .75.323l.42-.066a20.999 20.999 0 0 1 6.028 0l.419.066h.008l.006.002.108.01c.254.003.533-.141.707-.456l2.412-4.346Zm5.19 31.514A1 1 0 0 1 45 38v7h5l.102.005a1 1 0 0 1 0 1.99L50 47h-6a1 1 0 0 1-1-1v-7H26a1 1 0 1 1 0-2h18l.102.005ZM50 31a1 1 0 0 1 0 2H33a1 1 0 1 1 0-2h17Zm1-14a1 1 0 0 1 0 2h-5.182v7a1 1 0 0 1-1 1H26a1 1 0 1 1 0-2h17.818v-7l.005-.102a1 1 0 0 1 .995-.898H51Z" class="primary"/>
      <path fill="#FF462D" d="M55 41a5 5 0 1 1 0 10 5 5 0 0 1 0-10Zm0 2a3 3 0 1 0 0 6 3 3 0 0 0 0-6Zm0-16a5 5 0 1 1 0 10 5 5 0 0 1 0-10Zm0 2a3 3 0 1 0 0 6 3 3 0 0 0 0-6Zm0-16a5 5 0 1 1 0 10 5 5 0 0 1 0-10Zm0 2a3 3 0 1 0 0 6 3 3 0 0 0 0-6Z" class="secondary"/>
    </g>
  </g>
</svg>
