<svg xmlns="http://www.w3.org/2000/svg" width="64" height="64" fill="none" viewBox="0 0 64 64">
  <g fill-rule="evenodd" class="key" clip-rule="evenodd">
    <path fill="#FF462D" d="M35.765 14.412c2.556-2.91 6.974-3.18 9.88-.632 2.915 2.545 3.183 6.962.634 9.866a6.988 6.988 0 0 1-9.907.62c-2.864-2.553-3.155-6.952-.607-9.854Zm1.879 8.308c.06.042.114.09.163.145a4.988 4.988 0 0 0 6.967-.536l.001-.002c1.828-2.081 1.627-5.232-.446-7.041l-.001-.002c-2.083-1.826-5.238-1.627-7.06.448a5.008 5.008 0 0 0 .376 6.988Z" class="secondary"/>
    <g fill="#3D3C3C" class="primary">
      <path d="M50.401 10.252c-7.108-6.223-17.919-5.536-24.147 1.54-4.413 5.016-5.345 11.872-3 17.657a1 1 0 0 1-.177 1.036L7 48.74v9.34h10.283l.445-6.16a1 1 0 0 1 .905-.923l5.326-.495-.025-5.505a1 1 0 0 1 .885-.998l5.952-.69 3.01-3.419a1 1 0 0 1 1.001-.307c6.053 1.57 12.757-.23 17.17-5.235m-1.55-24.096c7.095 6.22 7.788 17.009 1.55 24.096l-1.55-24.096Zm-25.65.219c6.961-7.908 19.033-8.67 26.967-1.723 7.929 6.95 8.703 19.005 1.734 26.922-4.787 5.43-11.98 7.478-18.57 5.995l-2.865 3.254a1 1 0 0 1-.635.333l-5.445.63.025 5.527a1 1 0 0 1-.908 1l-5.393.5-.45 6.242a1 1 0 0 1-.998.928H6a1 1 0 0 1-1-1V48.362a1 1 0 0 1 .25-.66l15.925-18.084c-2.328-6.332-1.208-13.709 3.578-19.147Z"/>
      <path d="M25.703 34.3a1 1 0 0 1 .057 1.413l-12 13a1 1 0 1 1-1.47-1.356l12-13a1 1 0 0 1 1.413-.057Z"/>
    </g>
  </g>
</svg>
