<svg xmlns="http://www.w3.org/2000/svg" width="64" height="64" fill="none" viewBox="0 0 64 64">
  <g fill-rule="evenodd" class="lightbulb" clip-rule="evenodd">
    <path fill="#3D3C3C" d="M47 27.828h-.05c-.506-8.301-7.278-14.897-15.581-14.827C22.845 13.063 15.97 20.224 16 28.88a15.927 15.927 0 0 0 5.219 11.793l.001.002c1.805 1.63 2.845 3.987 2.845 6.463 0 .837.358 1.601.935 2.129v6.058C25 57.853 26.951 60 29.474 60h4.052C36.049 60 38 57.853 38 55.325v-6.058a2.883 2.883 0 0 0 .935-2.129c0-2.476 1.04-4.833 2.845-6.463l.002-.002A15.948 15.948 0 0 0 47 28.828v-1ZM36 50h-9v5.325C27 56.856 28.16 58 29.474 58h4.052C34.84 58 36 56.856 36 55.325V50Zm8.981-21.172v.74a13.934 13.934 0 0 1-4.541 9.622c-2.232 2.016-3.505 4.916-3.505 7.948 0 .498-.389.862-.82.862h-9.23c-.431 0-.82-.364-.82-.862 0-3.032-1.272-5.931-3.504-7.947a13.927 13.927 0 0 1-4.56-10.316v-.002C17.973 21.276 24.005 15.054 31.383 15h.001c7.477-.063 13.596 6.128 13.596 13.828Z" class="primary"/>
    <path fill="#FF462D" d="M33 5.033C33 4.463 32.552 4 32 4s-1 .463-1 1.033v4.934c0 .57.448 1.033 1 1.033s1-.463 1-1.033V5.033Zm-19.668 8.245a1.085 1.085 0 0 1 1.496.043l2.884 2.956a.998.998 0 0 1-.044 1.445 1.085 1.085 0 0 1-1.496-.043l-2.884-2.956a.998.998 0 0 1 .044-1.445ZM7 32c0-.552.462-1 1.032-1h4.936c.57 0 1.032.448 1.032 1s-.462 1-1.032 1H8.032C7.462 33 7 32.552 7 32Zm43 0c0-.552.462-1 1.032-1h4.936c.57 0 1.032.448 1.032 1s-.462 1-1.032 1h-4.936c-.57 0-1.032-.448-1.032-1Zm-3.26 13.298a1.019 1.019 0 0 0-1.442.003c-.398.4-.397 1.047.002 1.445l2.96 2.956a1.018 1.018 0 0 0 1.442-.003c.398-.4.397-1.047-.002-1.445l-2.96-2.956Zm3.96-30.552c.399-.398.4-1.046.002-1.445a1.018 1.018 0 0 0-1.442-.003l-2.96 2.956a1.024 1.024 0 0 0-.002 1.445c.397.4 1.043.401 1.442.003l2.96-2.956ZM18.7 45.3c.4.4.4 1.047 0 1.446l-2.955 2.956a1.022 1.022 0 1 1-1.446-1.446l2.956-2.956a1.023 1.023 0 0 1 1.446 0Z" class="secondary"/>
  </g>
</svg>
