<svg xmlns="http://www.w3.org/2000/svg" width="64" height="64" fill="none" viewBox="0 0 64 64">
  <g fill-rule="evenodd" class="location" clip-rule="evenodd">
    <path fill="#3D3C3C" d="M32 6c-9.94 0-18 8.024-18 17.9 0 7.77 4.585 16.324 9.318 23.05a97.853 97.853 0 0 0 6.464 8.183A86.282 86.282 0 0 0 32 57.563a86.282 86.282 0 0 0 2.218-2.43 97.853 97.853 0 0 0 6.464-8.184C45.415 40.224 50 31.67 50 23.9 50 14.024 41.94 6 32 6Zm0 53-.706.709v-.002l-.015-.014-.044-.044a57.679 57.679 0 0 1-.778-.805 88.382 88.382 0 0 1-2.177-2.39 99.826 99.826 0 0 1-6.598-8.354C16.915 41.326 12 32.33 12 23.9 12 12.91 20.965 4 32 4s20 8.91 20 19.9c0 8.43-4.915 17.426-9.682 24.2a99.84 99.84 0 0 1-6.598 8.354 88.382 88.382 0 0 1-2.178 2.39 57.679 57.679 0 0 1-.777.805l-.044.044-.014.015h-.001L32 59Zm0 0 .706.709a1.001 1.001 0 0 1-1.412 0L32 59Z" class="primary"/>
    <path fill="#FF462D" d="M32 13a8 8 0 1 0 0 16 8 8 0 0 0 0-16Zm-10 8c0-5.523 4.477-10 10-10s10 4.477 10 10-4.477 10-10 10-10-4.477-10-10Z" class="secondary"/>
  </g>
</svg>
