<svg xmlns="http://www.w3.org/2000/svg" width="64" height="64" fill="none" viewBox="0 0 64 64">
  <g fill-rule="evenodd" class="lock" clip-rule="evenodd">
    <path fill="#FF462D" d="M31.985 9C26.515 9 22 13.624 22 19.394V23.5a1 1 0 1 1-2 0v-4.106C20 12.588 25.342 7 31.985 7c3.326 0 6.337 1.412 8.507 3.653C42.664 12.896 44 15.993 44 19.409V23.5a1 1 0 1 1-2 0v-4.09c0-2.888-1.128-5.488-2.945-7.366C37.235 10.164 34.73 9 31.985 9Z" class="secondary"/>
    <path fill="#3D3C3C" d="M16.646 25.861c-.29.041-.646.364-.646.927v26.424c0 .583.373.894.635.925l.006.001c9.077 1.15 21.635 1.15 30.713 0 .29-.04.646-.363.646-.926V26.788c0-.583-.373-.894-.635-.925l-.006-.001c-9.077-1.15-21.635-1.15-30.713 0Zm30.962-1.983c-9.245-1.17-21.974-1.17-31.218 0h-.01c-1.465.2-2.38 1.542-2.38 2.91v26.424c0 1.379.928 2.732 2.392 2.91 9.245 1.17 21.974 1.17 31.218 0h.01c1.465-.2 2.38-1.542 2.38-2.91V26.788c0-1.379-.928-2.732-2.392-2.91Z" class="primary"/>
  </g>
</svg>
