<svg xmlns="http://www.w3.org/2000/svg" width="64" height="64" fill="none" viewBox="0 0 64 64">
  <g fill-rule="evenodd" class="mail" clip-rule="evenodd">
    <path fill="#FF462D" d="M5.141 14.488a1 1 0 0 1 1.371-.347l24.255 14.466a.966.966 0 0 1 .042.027c.733.488 1.85.488 2.582 0a.904.904 0 0 1 .053-.033L57.5 14.66a1 1 0 0 1 1.002 1.731l-24.03 13.926c-1.395.912-3.356.91-4.75-.004L5.489 15.86a1 1 0 0 1-.347-1.371Z" class="secondary"/>
    <path fill="#3D3C3C" d="M6.967 14a.98.98 0 0 0-.967.99v34.02c0 .558.444.99.967.99h50.066a.98.98 0 0 0 .967-.99V14.99a.98.98 0 0 0-.967-.99H6.967ZM4 14.99C4 13.35 5.317 12 6.967 12h50.066C58.683 12 60 13.35 60 14.99v34.02c0 1.64-1.317 2.99-2.967 2.99H6.967C5.317 52 4 50.65 4 49.01V14.99Z" class="primary"/>
  </g>
</svg>
