<svg xmlns="http://www.w3.org/2000/svg" width="64" height="64" fill="none" viewBox="0 0 64 64">
  <g fill-rule="evenodd" class="map" clip-rule="evenodd">
    <path fill="#FF462D" d="M32 15c-3.314 0-6 2.678-6 6s2.686 6 6 6c3.313 0 6-2.694 6-6 0-3.322-2.686-6-6-6Zm-8 6c0-4.428 3.583-8 8-8s8 3.572 8 8c0 4.41-3.581 8-8 8-4.417 0-8-3.572-8-8Z" class="secondary"/>
    <g fill="#3D3C3C" class="primary">
      <path d="M17 33a1 1 0 0 1 1 1v19.566l14.299 4.48a1 1 0 0 1-.598 1.908l-15-4.7a1 1 0 0 1-.701-.953V34a1 1 0 0 1 1-1Z"/>
      <path d="M17.692 32.06a1 1 0 0 1 .684.001l1.968.722a1 1 0 0 1-.688 1.878l-1.627-.597L6 38.413V57.58l10.807-3.856a1 1 0 0 1 .672 1.883L5.336 59.942A1 1 0 0 1 4 59V37.71a1 1 0 0 1 .66-.94l13.032-4.71Zm28.499-.02a1 1 0 0 1 .633.024l12.528 4.71a1 1 0 0 1 .648.937V59a1 1 0 0 1-1.355.935l-11.428-4.333a1 1 0 0 1 .709-1.87L58 57.552v-19.15l-11.568-4.35-2.151.63a1 1 0 0 1-.562-1.92l2.472-.723Z"/>
      <path d="M47 32.5a1 1 0 0 1 1 1v20.8a1 1 0 0 1-.701.955l-15 4.7A1 1 0 0 1 31 59v-8.47a1 1 0 1 1 2 0v7.109l13-4.073V33.5a1 1 0 0 1 1-1Z"/>
      <path d="M32 6c-8.277 0-15 6.704-15 14.97v.001c-.005 2.88.932 6.085 2.402 9.32 1.465 3.225 3.43 6.414 5.41 9.242A94.176 94.176 0 0 0 32 48.53a94.055 94.055 0 0 0 7.18-8.988c1.98-2.827 3.944-6.015 5.41-9.241 1.47-3.236 2.41-6.445 2.41-9.33C47 12.704 40.277 6 32 6Zm0 44-.722.692-.004-.004-.01-.01-.036-.038a37.704 37.704 0 0 1-.656-.709 96.15 96.15 0 0 1-7.4-9.251c-2.021-2.889-4.058-6.187-5.59-9.561-1.529-3.363-2.587-6.867-2.582-10.15C15 11.594 22.623 4 32 4c9.377 0 17 7.595 17 16.97 0 3.287-1.06 6.793-2.59 10.158-1.533 3.374-3.57 6.672-5.59 9.56a96.086 96.086 0 0 1-7.393 9.244 55.714 55.714 0 0 1-.655.708l-.037.038-.012.013s-.001.001-.723-.691Zm0 0 .722.692a1.002 1.002 0 0 1-1.444 0L32 50Z"/>
    </g>
  </g>
</svg>
