<svg xmlns="http://www.w3.org/2000/svg" width="64" height="64" fill="none" viewBox="0 0 64 64">
  <g fill-rule="evenodd" class="marketplace" clip-rule="evenodd">
    <path fill="#FF462D" d="M25.217 35C23.42 35 22 36.42 22 38.126V58h20V38.126C42 36.42 40.58 35 38.783 35H25.217ZM20 38.126C20 35.274 22.356 33 25.217 33h13.566C41.643 33 44 35.274 44 38.126V59a1 1 0 0 1-1 1H21a1 1 0 0 1-1-1V38.126Z" class="secondary"/>
    <path fill="#3D3C3C" d="M6.001 20.086 7.826 9.95C8.25 7.61 10.139 6 12.26 6h39.48c2.114 0 4.012 1.612 4.435 3.95L58 20.086c-.05 2.1-1.931 3.914-4.4 3.914a4.67 4.67 0 0 1-2.67-.823l-.001-.001a4.749 4.749 0 0 0-5.458 0A4.67 4.67 0 0 1 42.8 24a4.67 4.67 0 0 1-2.67-.823l-.001-.001a4.749 4.749 0 0 0-5.458 0A4.67 4.67 0 0 1 32 24a4.67 4.67 0 0 1-2.67-.823l-.001-.001a4.749 4.749 0 0 0-5.458 0A4.67 4.67 0 0 1 21.2 24a4.67 4.67 0 0 1-2.67-.823l-.001-.001a4.749 4.749 0 0 0-5.458 0A4.67 4.67 0 0 1 10.4 24c-2.47 0-4.35-1.814-4.399-3.914ZM12.261 4c-3.18 0-5.824 2.395-6.403 5.594L4.016 19.825a.999.999 0 0 0-.016.178c0 2.173 1.215 4.03 3 5.079v28.213C7 56.937 9.794 60 13.37 60h37.26c3.575 0 6.37-3.063 6.37-6.705V25.082c1.785-1.05 3-2.906 3-5.08a.963.963 0 0 0-.016-.177l-1.842-10.23v-.001C57.562 6.394 54.91 4 51.74 4H12.26ZM55 25.855a6.784 6.784 0 0 1-1.4.145 6.67 6.67 0 0 1-3.81-1.18 2.75 2.75 0 0 0-3.181 0A6.67 6.67 0 0 1 42.8 26a6.67 6.67 0 0 1-3.809-1.18 2.75 2.75 0 0 0-3.181 0A6.67 6.67 0 0 1 32 26a6.67 6.67 0 0 1-3.81-1.18 2.75 2.75 0 0 0-3.18 0A6.67 6.67 0 0 1 21.2 26a6.67 6.67 0 0 1-3.81-1.18 2.75 2.75 0 0 0-3.18 0A6.67 6.67 0 0 1 10.4 26c-.479 0-.947-.05-1.4-.145v27.44C9 55.95 11.012 58 13.37 58h37.26c2.358 0 4.37-2.05 4.37-4.705v-27.44Z" class="primary"/>
  </g>
</svg>
