<svg xmlns="http://www.w3.org/2000/svg" width="64" height="64" fill="none" viewBox="0 0 64 64">
  <g fill-rule="evenodd" class="network" clip-rule="evenodd">
    <path fill="#FF462D" d="M5.103 24.005a1 1 0 0 0-.206 1.99c13.741 1.418 24.734 12.794 26.108 27.1a1 1 0 1 0 1.99-.19C31.537 37.7 19.841 25.526 5.104 24.004Zm-1.09 12.83a1 1 0 0 1 1.152-.821c8.585 1.435 15.36 8.21 16.821 16.819a1 1 0 1 1-1.972.334c-1.32-7.772-7.438-13.886-15.179-15.18a1 1 0 0 1-.821-1.152Zm.017 11.922a1 1 0 0 1 1.213-.727 6.426 6.426 0 0 1 4.727 4.727 1 1 0 1 1-1.94.486 4.426 4.426 0 0 0-3.272-3.273 1 1 0 0 1-.728-1.212Z" class="secondary"/>
    <path fill="#3D3C3C" d="M10.995 11A4.994 4.994 0 0 0 6 16a1 1 0 1 1-2 0c0-3.875 3.135-7 6.995-7h42.01A6.991 6.991 0 0 1 60 15.996v30.008A6.991 6.991 0 0 1 53.005 53H42a1 1 0 1 1 0-2h11.005A4.99 4.99 0 0 0 58 46.004V15.996A4.991 4.991 0 0 0 53.005 11h-42.01Z" class="primary"/>
  </g>
</svg>
