<svg xmlns="http://www.w3.org/2000/svg" width="64" height="64" fill="none" viewBox="0 0 64 64">
  <g fill-rule="evenodd" class="network-&amp;-edge" clip-rule="evenodd">
    <path fill="#3D3C3C" d="M32 12.118c-10.254 0-19.56 4.42-26.294 11.571a.959.959 0 0 1-1.413.001 1.105 1.105 0 0 1-.001-1.497C11.386 14.66 21.193 10 32 10c10.807 0 20.614 4.66 27.708 12.193.39.413.39 1.084-.001 1.497a.96.96 0 0 1-1.413 0C51.56 16.537 42.255 12.117 32 12.117ZM32 24c-6.737 0-12.838 3.023-17.275 7.689a.975.975 0 0 1-1.43-.002 1.106 1.106 0 0 1 .002-1.507C18.094 25.136 24.7 22 32 22c7.298 0 13.916 3.135 18.704 8.181.395.416.395 1.09 0 1.507a.975.975 0 0 1-1.43 0C44.848 27.023 38.738 24 32 24Zm-9.275 14.712A13.282 13.282 0 0 1 32 34.966c3.613 0 6.89 1.426 9.275 3.746a1.03 1.03 0 0 0 1.43 0 .965.965 0 0 0 0-1.39A15.308 15.308 0 0 0 32 33c-4.172 0-7.967 1.66-10.704 4.322a.965.965 0 0 0 0 1.39 1.03 1.03 0 0 0 1.429 0Z" class="primary"/>
    <path fill="#FF462D" d="M32 44a3.98 3.98 0 0 0-2.827 1.173A3.98 3.98 0 0 0 28 48c0 2.213 1.787 4 4 4s4-1.787 4-4a3.98 3.98 0 0 0-1.173-2.827A3.98 3.98 0 0 0 32 44Zm-4.241-.241A5.98 5.98 0 0 1 32 42a5.98 5.98 0 0 1 4.241 1.759A5.98 5.98 0 0 1 38 48c0 3.317-2.683 6-6 6s-6-2.683-6-6a5.98 5.98 0 0 1 1.759-4.241Z" class="secondary"/>
  </g>
</svg>
