<svg xmlns="http://www.w3.org/2000/svg" width="64" height="64" fill="none" viewBox="0 0 64 64">
  <g class="Size=M">
    <g fill-rule="evenodd" class="Icon" clip-rule="evenodd">
      <path fill="#3D3C3C" d="M22.294 6c-1.69 0-3.235 1.452-3.235 3v22.29c0 .118-.02.232-.059.338V52.35A7.715 7.715 0 0 1 16.558 58h38.538c1.6 0 2.904-1.316 2.904-2.95V8.95C58 7.302 56.683 6 55.096 6H22.294ZM17.06 9v21H5a1 1 0 0 0-1 1v21.349c0 3.947 2.932 7.209 6.714 7.61.09.026.187.041.286.041h44.096C57.829 60 60 57.76 60 55.05V8.95C60 6.213 57.803 4 55.096 4H22.294c-2.643 0-5.235 2.203-5.235 5ZM17 52.349C17 55.485 14.525 58 11.5 58 8.49 58 6 55.5 6 52.349V32h11v20.349ZM29 13a3 3 0 0 0-3 3v10a3 3 0 0 0 3 3h19a3 3 0 0 0 3-3V16a3 3 0 0 0-3-3H29Zm-1 3a1 1 0 0 1 1-1h19a1 1 0 0 1 1 1v10a1 1 0 0 1-1 1H29a1 1 0 0 1-1-1V16Z" class="primary"/>
      <path fill="#FF462D" d="M27 37a1 1 0 1 0 0 2h23a1 1 0 1 0 0-2H27Zm0 11a1 1 0 1 0 0 2h23a1 1 0 1 0 0-2H27Z" class="secondary"/>
    </g>
  </g>
</svg>
