<svg xmlns="http://www.w3.org/2000/svg" width="64" height="64" fill="none" viewBox="0 0 64 64">
  <g fill-rule="evenodd" class="notification" clip-rule="evenodd">
    <path fill="#3D3C3C" d="M32.042 4c-3.25 0-6 2.466-6 5.662v3.741c-4.727 2.328-8.044 7.3-8.044 13.015V37l-6.746 8.381c-1.126 1.416-1.567 3.041-1.014 4.428.57 1.431 2.026 2.191 3.79 2.191h35.847c1.37 0 2.958-.397 3.739-1.66.833-1.348.408-3.078-.904-4.921l-.007-.01-3.006-4.021L46.042 37l-.123-10.555c0-5.716-3.223-10.681-7.877-13.02V9.662c0-3.196-2.75-5.662-6-5.662Zm4 8.614V9.662c0-1.961-1.72-3.662-4-3.662-2.28 0-4 1.7-4 3.662v2.944a13.49 13.49 0 0 1 4-.606c1.39 0 2.733.215 4 .614Zm-16.05 13.804C19.991 19.52 25.55 14 32.041 14c6.517 0 12 5.542 12 12.414V37.5l4.079 5.112 2.973 3.978c1.173 1.651.997 2.419.826 2.695-.224.362-.893.715-2.045.715H14.028c-1.225 0-1.763-.49-1.94-.934-.193-.486-.138-1.358.725-2.441l.005-.006L19.99 37.5V26.418Z" class="primary"/>
    <path fill="#FF462D" d="M24.706 53.058a1 1 0 0 1 1.278.606C26.89 56.202 29.264 58 32.042 58s5.152-1.798 6.058-4.336a1 1 0 0 1 1.884.672C38.811 57.622 35.715 60 32.042 60s-6.768-2.378-7.942-5.664a1 1 0 0 1 .606-1.278Z" class="secondary"/>
  </g>
</svg>
