<svg xmlns="http://www.w3.org/2000/svg" width="64" height="64" fill="none" viewBox="0 0 64 64">
  <g class="open-developer">
    <path fill="#FF462D" d="M27.038 49.007c-.53-.153-.859-.633-.733-1.073l6.978-24.327c.126-.44.658-.674 1.19-.521.53.152.858.632.732 1.072l-6.977 24.328c-.126.44-.659.673-1.19.52Zm-5.411-21.733c.465.393.5 1.063.079 1.496l-7.036 7.235 7.035 7.225a1.009 1.009 0 0 1-.078 1.495 1.196 1.196 0 0 1-1.605-.072l-7.727-7.936a1.006 1.006 0 0 1 0-1.423l7.726-7.946a1.195 1.195 0 0 1 1.606-.074Zm22.107.023a1 1 0 0 0-1.447.026 1.086 1.086 0 0 0 .026 1.498l7.19 7.184-7.19 7.174a1.085 1.085 0 0 0-.026 1.497 1 1 0 0 0 1.447.027l7.953-7.936c.2-.199.313-.474.313-.761 0-.288-.113-.563-.313-.762l-7.953-7.947Z" class="secondary"/>
    <g fill="#3D3C3C" class="primary">
      <path d="M12.13 10h.74c.624 0 1.13.464 1.13 1.037v.926c0 .573-.506 1.037-1.13 1.037h-.74c-.624 0-1.13-.464-1.13-1.037v-.926c0-.573.506-1.037 1.13-1.037Zm6.637 0h-.7c-.589 0-1.067.439-1.067.98v.875c0 .541.478.98 1.068.98h.7c.589 0 1.067-.439 1.067-.98v-.875c0-.541-.478-.98-1.068-.98Zm5.363 0h.74c.624 0 1.13.464 1.13 1.037v.926c0 .573-.506 1.037-1.13 1.037h-.74c-.624 0-1.13-.464-1.13-1.037v-.926c0-.573.506-1.037 1.13-1.037Z"/>
      <path fill-rule="evenodd" d="M4 10.98C4 7.188 6.9 4 10.616 4h42.768C57.1 4 60 7.188 60 10.98v41.865C60 56.705 57.127 60 53.385 60h-42.77C6.873 60 4 56.705 4 52.845V10.98Zm54 0V16H6v-5.02C6 8.171 8.122 6 10.616 6h42.768C55.878 6 58 8.171 58 10.98ZM6 18h52v34.845C58 55.779 55.852 58 53.385 58h-42.77C8.148 58 6 55.779 6 52.845V18Z" clip-rule="evenodd"/>
    </g>
  </g>
</svg>
