<svg xmlns="http://www.w3.org/2000/svg" width="64" height="64" fill="none" viewBox="0 0 64 64">
  <g fill-rule="evenodd" class="operation-policies" clip-rule="evenodd">
    <path fill="#3D3C3C" d="M50.873 12.394C47.69 11.51 39.368 8.96 30.29 4.322a2.8 2.8 0 0 0-2.614.003c-9.026 4.645-17.354 7.183-20.55 8.096C5.924 12.749 5 13.775 5 15.05v22.241c0 3.94 2.793 7.484 6.168 10.383 3.42 2.938 7.683 5.42 11.1 7.21a1 1 0 0 0 .929-1.77c-3.374-1.77-7.478-4.168-10.726-6.957C9.178 43.329 7 40.3 7 37.292V15.051c0-.242.187-.575.656-.702l.013-.004c3.25-.928 11.728-3.51 20.931-8.246l.02-.01a.8.8 0 0 1 .742.005l.013.007c9.237 4.719 17.696 7.314 20.959 8.218.49.142.666.474.666.705v7.67a1 1 0 1 0 2 0v-7.67c0-1.288-.938-2.29-2.119-2.628l-.008-.002ZM45.5 26.114a1 1 0 0 0-1.346.414l-1.545 2.885a13.077 13.077 0 0 0-4.007.14l-1.72-2.797a1 1 0 0 0-1.381-.325l-6.755 4.214a1 1 0 0 0-.323 1.371l1.712 2.79a14.32 14.32 0 0 0-1.085 1.717c-.333.612-.599 1.24-.821 1.86l-3.264.11a1 1 0 0 0-.966 1.03l.24 8a1 1 0 0 0 1.033.97l3.268-.11a13.972 13.972 0 0 0 2.096 3.446l-1.614 2.989a1 1 0 0 0 .416 1.361l7.06 3.694a1 1 0 0 0 1.346-.414l1.545-2.885c1.327.16 2.655.109 3.938-.127l1.493 2.999a1 1 0 0 0 1.386.425l7.167-4.04a1 1 0 0 0 .375-1.372l-1.897-3.276c.386-.516.728-1.062 1.036-1.62.023-.033.045-.068.065-.105.33-.617.594-1.237.816-1.855l3.265-.11a1 1 0 0 0 .966-1v-7.666a1 1 0 0 0-.953-1l-3.565-.169a13.98 13.98 0 0 0-2.128-3.51l1.565-3.022a1 1 0 0 0-.424-1.345L45.5 26.114Zm6.589 20.211a12.94 12.94 0 0 1-.846 2.086 1.025 1.025 0 0 0-.052.085c-.39.717-.818 1.375-1.307 1.948a1 1 0 0 0-.105 1.15l1.731 2.992-5.369 3.026-1.37-2.751a1 1 0 0 0-1.133-.525c-1.498.368-3.074.44-4.619.16a1 1 0 0 0-1.06.512l-1.41 2.634-5.286-2.765 1.463-2.708a1 1 0 0 0-.145-1.155 11.984 11.984 0 0 1-2.434-4 1 1 0 0 0-.972-.654l-2.967.1-.18-6 2.961-.1a1 1 0 0 0 .92-.698c.242-.764.526-1.5.898-2.185.39-.717.818-1.375 1.307-1.948a1 1 0 0 0 .092-1.172l-1.559-2.54 5.058-3.156 1.565 2.543a1 1 0 0 0 1.09.447 11.078 11.078 0 0 1 4.619-.16 1 1 0 0 0 1.06-.512l1.41-2.633 5.235 2.744-1.42 2.743a1 1 0 0 0 .154 1.14 11.986 11.986 0 0 1 2.433 4 1 1 0 0 0 .89.653L56 39.78v5.746l-2.99.101a1 1 0 0 0-.92.698Z" class="primary"/>
    <path fill="#FF462D" d="M41 38c-2.76 0-5 2.24-5 5s2.24 5 5 5 5-2.24 5-5-2.24-5-5-5Zm-7 5c0-3.864 3.136-7 7-7s7 3.136 7 7-3.136 7-7 7-7-3.136-7-7Z" class="secondary"/>
  </g>
</svg>
