<svg xmlns="http://www.w3.org/2000/svg" width="64" height="64" fill="none" viewBox="0 0 64 64">
  <g fill-rule="evenodd" class="ordered-services" clip-rule="evenodd">
    <path fill="#3D3C3C" d="M24.125 4C22.507 4 21 5.213 21 6.926v2.075L20.95 9h-3.954C13.124 9 10 12.193 10 16.122v36.757C10 56.788 13.107 60 16.996 60h30.008C50.876 60 54 56.807 54 52.879V16.12C54 12.211 50.893 9 47.004 9H43V6.926C43 5.217 41.512 4 39.875 4h-15.75ZM41 9.686a.998.998 0 0 0 0 .628v4.76c0 .42-.414.926-1.125.926h-15.75c-.72 0-1.125-.501-1.125-.926V6.926c0-.42.414-.926 1.125-.926h15.75c.72 0 1.125.501 1.125.926v2.76ZM43 11h4.004C49.748 11 52 13.274 52 16.122v36.757C52 55.736 49.737 58 47.004 58H16.996C14.252 58 12 55.726 12 52.879V16.12c0-2.857 2.263-5.12 4.996-5.12h3.954l.05-.001v4.075C21 16.783 22.488 18 24.125 18h15.75C41.493 18 43 16.787 43 15.074V11ZM19 27a1 1 0 1 0 0 2h12a1 1 0 1 0 0-2H19Zm0 15a1 1 0 1 0 0 2h12a1 1 0 1 0 0-2H19Z" class="primary"/>
    <path fill="#FF462D" d="M46.82 24.574a1 1 0 1 0-1.639-1.148l-4.783 6.829-1.578-2.261a1 1 0 0 0-1.64 1.144l2.396 3.434a1 1 0 0 0 1.64.002l5.603-8Zm0 15a1 1 0 1 0-1.639-1.148l-4.783 6.829-1.578-2.261a1 1 0 0 0-1.64 1.144l2.396 3.434a1 1 0 0 0 1.64.002l5.603-8Z" class="secondary"/>
  </g>
</svg>
