<svg xmlns="http://www.w3.org/2000/svg" width="64" height="64" fill="none" viewBox="0 0 64 64">
  <g fill-rule="evenodd" class="overview" clip-rule="evenodd">
    <path fill="#3D3C3C" d="M8.041 27.189c12.398-13.585 35.52-13.585 47.918 0l3.78 4.137a1 1 0 0 1 0 1.349l-3.78 4.136c-12.398 13.585-35.52 13.585-47.918 0l-3.78-4.136a1 1 0 0 1 0-1.35l3.78-4.136Zm46.44 1.348c-11.605-12.716-33.357-12.716-44.962 0L6.355 32l3.163 3.463c11.605 12.715 33.358 12.716 44.963 0L57.645 32l-3.164-3.463Z" class="primary"/>
    <path fill="#FF462D" d="M32 27a5 5 0 1 0 0 10 5 5 0 0 0 0-10Zm-7 5a7 7 0 1 1 14 0 7 7 0 0 1-14 0Z" class="secondary"/>
  </g>
</svg>
