<svg xmlns="http://www.w3.org/2000/svg" width="64" height="64" fill="none" viewBox="0 0 64 64">
  <g class="personalization-policies">
    <path fill="#FF462D" d="M36.134 60c-.82 0-1.62-.32-2.22-.92a3.109 3.109 0 0 1-.84-2.88c0-.03.01-.06.02-.09l1.27-5.06c.04-.17.13-.33.26-.46l15.97-15.98a5.467 5.467 0 0 1 3.9-1.61c1.48 0 2.86.57 3.9 1.61 2.14 2.14 2.15 5.64 0 7.8l-15.97 15.96c-.13.13-.29.22-.46.26l-5.06 1.27c-.25.06-.51.09-.76.09l-.01.01Zm-1.08-3.47s0 .05-.02.07c-.14.55.16.92.3 1.06.14.14.52.44 1.08.3l4.79-1.2L56.974 41a3.53 3.53 0 0 0 0-4.98c-1.33-1.32-3.64-1.33-4.96 0L36.244 51.8l-1.19 4.73Z" class="secondary"/>
    <path fill="#3D3C3C" fill-rule="evenodd" d="M33.332 4.338c9.476 4.923 18.162 7.631 21.484 8.569l.01.002C56.05 13.266 57 14.314 57 15.638V28.11a1 1 0 1 1-2 0V15.638c0-.29-.214-.656-.731-.808-3.403-.96-12.228-3.713-21.864-8.72l-.013-.006a.85.85 0 0 0-.804-.006l-.02.01c-9.599 5.026-18.444 7.765-21.834 8.75l-.013.003c-.497.137-.721.505-.721.805v23.603c0 3.227 2.295 6.46 5.73 9.46 3.394 2.964 7.68 5.511 11.2 7.389a1 1 0 1 1-.94 1.764c-3.565-1.9-8.01-4.532-11.575-7.646C9.892 47.159 7 43.414 7 39.269V15.666c0-1.31.936-2.384 2.182-2.73 3.335-.97 12.028-3.663 21.45-8.595a2.85 2.85 0 0 1 2.7-.003Z" class="primary" clip-rule="evenodd"/>
  </g>
</svg>
