<svg xmlns="http://www.w3.org/2000/svg" width="64" height="64" fill="none" viewBox="0 0 64 64">
  <g fill-rule="evenodd" class="placeholder" clip-rule="evenodd">
    <path fill="#FF462D" d="M23.894 20.929a2.966 2.966 0 0 0-2.965 2.965v16.212a2.966 2.966 0 0 0 2.965 2.965h16.212a2.966 2.966 0 0 0 2.965-2.965V23.894a2.966 2.966 0 0 0-2.965-2.965H23.894ZM19 23.894A4.894 4.894 0 0 1 23.894 19h16.212A4.894 4.894 0 0 1 45 23.894v16.212A4.894 4.894 0 0 1 40.106 45H23.894A4.894 4.894 0 0 1 19 40.106V23.894Z" class="secondary"/>
    <path fill="#3D3C3C" d="M8.121 4h.758C9.498 4 10 4.467 10 5.042v.916C10 6.533 9.498 7 8.879 7H8.12C7.502 7 7 6.533 7 5.958v-.916C7 4.467 7.502 4 8.121 4Zm-3 6h.758C6.498 10 7 10.466 7 11.042v.916C7 12.533 6.498 13 5.879 13H5.12C4.502 13 4 12.534 4 11.958v-.916C4 10.467 4.502 10 5.121 10Zm2 47h.758C8.498 57 9 57.467 9 58.042v.916C9 59.533 8.498 60 7.879 60H7.12C6.502 60 6 59.533 6 58.958v-.916C6 57.467 6.502 57 7.121 57Zm6 0h.758c.619 0 1.121.467 1.121 1.042v.916c0 .575-.502 1.042-1.121 1.042h-.758C12.502 60 12 59.533 12 58.958v-.916c0-.575.502-1.042 1.121-1.042Zm6.758 0h-.758c-.619 0-1.121.467-1.121 1.042v.916c0 .575.502 1.042 1.121 1.042h.758c.619 0 1.121-.467 1.121-1.042v-.916c0-.575-.502-1.042-1.121-1.042Zm5.242 0h.758c.619 0 1.121.467 1.121 1.042v.916c0 .575-.502 1.042-1.121 1.042h-.758C24.502 60 24 59.533 24 58.958v-.916c0-.575.502-1.042 1.121-1.042Zm6.758 0h-.758c-.619 0-1.121.467-1.121 1.042v.916c0 .575.502 1.042 1.121 1.042h.758c.619 0 1.121-.467 1.121-1.042v-.916c0-.575-.502-1.042-1.121-1.042Zm5.242 0h.758c.619 0 1.121.467 1.121 1.042v.916c0 .575-.502 1.042-1.121 1.042h-.758C36.502 60 36 59.533 36 58.958v-.916c0-.575.502-1.042 1.121-1.042Zm6.758 0h-.758c-.619 0-1.121.467-1.121 1.042v.916c0 .575.502 1.042 1.121 1.042h.758c.619 0 1.121-.467 1.121-1.042v-.916c0-.575-.502-1.042-1.121-1.042Zm5.242 0h.758c.619 0 1.121.467 1.121 1.042v.916c0 .575-.502 1.042-1.121 1.042h-.758C48.502 60 48 59.533 48 58.958v-.916c0-.575.502-1.042 1.121-1.042Zm6.758 0h-.758c-.619 0-1.121.467-1.121 1.042v.916c0 .575.502 1.042 1.121 1.042h.758c.619 0 1.121-.467 1.121-1.042v-.916c0-.575-.502-1.042-1.121-1.042Zm-50-41H5.12C4.502 16 4 16.466 4 17.042v.916C4 18.534 4.502 19 5.121 19h.758C6.498 19 7 18.534 7 17.958v-.916C7 16.466 6.498 16 5.879 16Zm-.758 6h.758C6.498 22 7 22.466 7 23.042v.916C7 24.534 6.498 25 5.879 25H5.12C4.502 25 4 24.534 4 23.958v-.916C4 22.466 4.502 22 5.121 22Zm.758 6H5.12C4.502 28 4 28.466 4 29.042v.916C4 30.534 4.502 31 5.121 31h.758C6.498 31 7 30.534 7 29.958v-.916C7 28.466 6.498 28 5.879 28Zm-.758 6h.758C6.498 34 7 34.467 7 35.042v.916C7 36.533 6.498 37 5.879 37H5.12C4.502 37 4 36.533 4 35.958v-.916C4 34.467 4.502 34 5.121 34Zm.758 6H5.12C4.502 40 4 40.467 4 41.042v.916C4 42.533 4.502 43 5.121 43h.758C6.498 43 7 42.533 7 41.958v-.916C7 40.467 6.498 40 5.879 40Zm-.758 6h.758C6.498 46 7 46.467 7 47.042v.916C7 48.533 6.498 49 5.879 49H5.12C4.502 49 4 48.533 4 47.958v-.916C4 46.467 4.502 46 5.121 46Zm.758 6H5.12C4.502 52 4 52.467 4 53.042v.916C4 54.533 4.502 55 5.121 55h.758C6.498 55 7 54.533 7 53.958v-.916C7 52.467 6.498 52 5.879 52ZM58.12 10h.758c.619 0 1.121.466 1.121 1.042v.916c0 .575-.502 1.042-1.121 1.042h-.758c-.618 0-1.12-.466-1.12-1.042v-.916c0-.575.502-1.042 1.121-1.042Zm.758 6h-.758c-.619 0-1.121.466-1.121 1.042v.916c0 .576.502 1.042 1.121 1.042h.758c.619 0 1.121-.466 1.121-1.042v-.916c0-.576-.502-1.042-1.121-1.042Zm-.758 6h.758c.619 0 1.121.466 1.121 1.042v.916c0 .576-.502 1.042-1.121 1.042h-.758c-.618 0-1.12-.466-1.12-1.042v-.916c0-.576.502-1.042 1.121-1.042Zm.758 6h-.758c-.619 0-1.121.466-1.121 1.042v.916c0 .576.502 1.042 1.121 1.042h.758c.619 0 1.121-.466 1.121-1.042v-.916c0-.576-.502-1.042-1.121-1.042Zm-.758 6h.758c.619 0 1.121.467 1.121 1.042v.916c0 .575-.502 1.042-1.121 1.042h-.758c-.618 0-1.12-.467-1.12-1.042v-.916c0-.575.502-1.042 1.121-1.042Zm.758 6h-.758c-.619 0-1.121.467-1.121 1.042v.916c0 .575.502 1.042 1.121 1.042h.758c.619 0 1.121-.467 1.121-1.042v-.916c0-.575-.502-1.042-1.121-1.042Zm-.758 6h.758c.619 0 1.121.467 1.121 1.042v.916c0 .575-.502 1.042-1.121 1.042h-.758c-.618 0-1.12-.467-1.12-1.042v-.916c0-.575.502-1.042 1.121-1.042Zm.758 6h-.758c-.619 0-1.121.467-1.121 1.042v.916c0 .575.502 1.042 1.121 1.042h.758c.619 0 1.121-.467 1.121-1.042v-.916c0-.575-.502-1.042-1.121-1.042Zm-44-48h-.758C13.502 4 13 4.467 13 5.042v.916C13 6.533 13.502 7 14.121 7h.758C15.498 7 16 6.533 16 5.958v-.916C16 4.467 15.498 4 14.879 4Zm5.242 0h.758C21.498 4 22 4.467 22 5.042v.916C22 6.533 21.498 7 20.879 7h-.758C19.502 7 19 6.533 19 5.958v-.916C19 4.467 19.502 4 20.121 4Zm6.758 0h-.758C25.502 4 25 4.467 25 5.042v.916C25 6.533 25.502 7 26.121 7h.758C27.498 7 28 6.533 28 5.958v-.916C28 4.467 27.498 4 26.879 4Zm5.242 0h.758C33.498 4 34 4.467 34 5.042v.916C34 6.533 33.498 7 32.879 7h-.758C31.502 7 31 6.533 31 5.958v-.916C31 4.467 31.502 4 32.121 4Zm6.758 0h-.758C37.502 4 37 4.467 37 5.042v.916C37 6.533 37.502 7 38.121 7h.758C39.498 7 40 6.533 40 5.958v-.916C40 4.467 39.498 4 38.879 4Zm5.242 0h.758C45.498 4 46 4.467 46 5.042v.916C46 6.533 45.498 7 44.879 7h-.758C43.502 7 43 6.533 43 5.958v-.916C43 4.467 43.502 4 44.121 4Zm6.758 0h-.758C49.502 4 49 4.467 49 5.042v.916C49 6.533 49.502 7 50.121 7h.758C51.498 7 52 6.533 52 5.958v-.916C52 4.467 51.498 4 50.879 4Zm5.242 0h.758C57.498 4 58 4.467 58 5.042v.916C58 6.533 57.498 7 56.879 7h-.758C55.502 7 55 6.533 55 5.958v-.916C55 4.467 55.502 4 56.121 4Z" class="primary"/>
  </g>
</svg>
