<svg xmlns="http://www.w3.org/2000/svg" width="64" height="64" fill="none" viewBox="0 0 64 64">
  <g class="police">
    <path fill="#3D3C3C" fill-rule="evenodd" d="M30.674 4.332a2.787 2.787 0 0 1 2.636-.001c9.063 4.816 17.392 7.466 20.574 8.387l.02.006c1.17.364 2.096 1.39 2.096 2.697v23.116c0 2.826-1.29 5.462-3.153 7.802-1.867 2.346-4.37 4.474-6.953 6.308-5.169 3.67-10.813 6.267-12.776 7.127l-.02.01a2.896 2.896 0 0 1-2.195 0l-.016-.008c-1.981-.855-7.625-3.45-12.79-7.119-2.583-1.834-5.084-3.964-6.948-6.31C9.288 44.003 8 41.364 8 38.536V15.434c0-1.275.882-2.36 2.12-2.704 3.206-.937 11.529-3.574 20.556-8.4l.472.883-.474-.881Zm1.691 1.762a.788.788 0 0 0-.744 0h-.002c-9.203 4.92-17.678 7.603-20.945 8.558l-.016.005c-.435.119-.658.462-.658.777v23.103c0 2.208 1.009 4.417 2.715 6.565 1.703 2.144 4.04 4.149 6.54 5.925 4.99 3.545 10.477 6.072 12.415 6.909a.884.884 0 0 0 .658 0c1.932-.846 7.416-3.376 12.408-6.92 2.502-1.776 4.84-3.78 6.546-5.922C52.99 42.947 54 40.741 54 38.537V15.42c0-.286-.209-.634-.682-.785-3.266-.945-11.73-3.64-20.948-8.54l-.005-.002Z" class="primary" clip-rule="evenodd"/>
    <path fill="#FF462D" d="M24.001 45.99c-.42 0-.83-.13-1.19-.39a2.03 2.03 0 0 1-.78-2.2l2.2-8.016-6.458-5.229c-.67-.54-.94-1.41-.67-2.229.27-.82 1-1.37 1.86-1.41l8.217-.37 2.909-7.817c.3-.81 1.05-1.329 1.91-1.329.859 0 1.609.52 1.909 1.33l2.889 7.787 8.257.4c.85.04 1.57.59 1.84 1.4.269.819.02 1.699-.65 2.238l-6.448 5.179 2.189 8.067c.23.83-.07 1.7-.77 2.2-.69.499-1.61.519-2.32.05l-6.867-4.59-6.897 4.59a2.04 2.04 0 0 1-1.13.349v-.01Zm8.007-6.938c.39 0 .78.11 1.12.34l6.867 4.589-2.139-8.078a2.05 2.05 0 0 1 .69-2.139l6.438-5.168-8.247-.45a2.07 2.07 0 0 1-1.82-1.33l-2.929-7.807v.02L29.1 26.817c-.29.79-1.01 1.31-1.829 1.34l-8.207.369 6.418 5.258c.63.5.9 1.34.69 2.13l-2.2 8.027 6.918-4.529c.34-.23.74-.34 1.13-.34l-.01-.02Z" class="secondary"/>
  </g>
</svg>
