<svg xmlns="http://www.w3.org/2000/svg" width="64" height="64" fill="none" viewBox="0 0 64 64">
  <g fill-rule="evenodd" class="portfolio" clip-rule="evenodd">
    <path fill="#FF462D" d="M29.333 11A4.325 4.325 0 0 0 25 15.333V18a1 1 0 1 1-2 0v-2.667A6.325 6.325 0 0 1 29.333 9h5.334A6.325 6.325 0 0 1 41 15.333V18a1 1 0 1 1-2 0v-2.667A4.325 4.325 0 0 0 34.667 11h-5.334Z" class="secondary"/>
    <path fill="#3D3C3C" d="M10.9 17C7.11 17 4 20.024 4 23.81v25.38C4 52.96 7.108 56 10.9 56h42.2c3.79 0 6.9-3.024 6.9-6.81V23.81c0-3.77-3.108-6.81-6.9-6.81H10.9ZM58 31v-7.19c0-2.637-2.184-4.81-4.9-4.81H10.9C8.182 19 6 21.16 6 23.81V31c0 4.428 3.575 8 8.005 8h35.99A8 8 0 0 0 58 31ZM6 37.007A9.985 9.985 0 0 0 14.005 41h35.99A9.993 9.993 0 0 0 58 37.002V49.19c0 2.65-2.182 4.81-4.9 4.81H10.9C8.184 54 6 51.828 6 49.19V37.007Z" class="primary"/>
  </g>
</svg>
