<svg xmlns="http://www.w3.org/2000/svg" width="64" height="64" fill="none" viewBox="0 0 64 64">
  <g fill-rule="evenodd" class="private-catalog" clip-rule="evenodd">
    <path fill="#3D3C3C" d="M12 10.184C12 7.807 13.777 6 15.768 6h31.464C49.222 6 51 7.807 51 10.184V26a1 1 0 1 0 2 0V10.184C53 6.864 50.481 4 47.232 4H15.768C12.518 4 10 6.864 10 10.184V16H7a1 1 0 1 0 0 2h8a1 1 0 1 0 0-2h-3v-5.816Zm0 42.48a1 1 0 1 0-2 0v1.152C10 57.136 12.519 60 15.768 60H31a1 1 0 1 0 0-2H15.768C13.778 58 12 56.193 12 53.816v-1.152ZM12 24a1 1 0 1 0-2 0v7H7a1 1 0 1 0 0 2h8a1 1 0 1 0 0-2h-3v-7ZM6 47a1 1 0 0 1 1-1h3v-8a1 1 0 1 1 2 0v8h3a1 1 0 1 1 0 2H7a1 1 0 0 1-1-1Z" class="primary"/>
    <path fill="#FF462D" d="M42 41.98c0-3.293 2.692-5.98 6-5.98 1.653 0 3.134.656 4.232 1.749C53.32 38.852 54 40.329 54 41.979v2.21a95.769 95.769 0 0 0-12-.001v-2.209Zm-2 2.37v-2.37c0-4.404 3.593-7.98 8-7.98a7.95 7.95 0 0 1 5.647 2.335l.006.006C55.078 37.785 56 39.756 56 41.979v2.371l.31.032.017.002c.9.109 1.673.836 1.673 1.828v11.576c0 1.01-.812 1.72-1.667 1.828l-.023.002c-4.914.51-11.686.51-16.62 0l-.017-.002c-.9-.109-1.673-.836-1.673-1.828V46.212c0-1.01.812-1.72 1.667-1.828l.023-.002.31-.032Zm0 13.29V46.36c4.733-.48 11.246-.48 16 0v11.28c-4.733.48-11.246.48-16 0Z" class="secondary"/>
  </g>
</svg>
