<svg xmlns="http://www.w3.org/2000/svg" width="64" height="64" fill="none" viewBox="0 0 64 64">
  <g fill-rule="evenodd" class="program-management-portal" clip-rule="evenodd">
    <path fill="#FF462D" d="M24.405 47C23.135 47 22 48.116 22 49.627v5.746C22 56.884 23.135 58 24.405 58h16.19C41.865 58 43 56.884 43 55.373v-5.746C43 48.116 41.865 47 40.595 47h-16.19ZM20 49.627C20 47.132 21.914 45 24.405 45h16.19C43.086 45 45 47.132 45 49.627v5.746C45 57.868 43.086 60 40.595 60h-16.19C21.914 60 20 57.868 20 55.373v-5.746Z" class="secondary"/>
    <path fill="#3D3C3C" d="M22 8.627C22 7.116 23.135 6 24.405 6h16.19C41.865 6 43 7.116 43 8.627v5.746C43 15.884 41.865 17 40.595 17h-16.19C23.135 17 22 15.884 22 14.373V8.627Zm-2 5.746V11h-9.1c-.856 0-1.9.949-1.9 2.608v13.784C9 29.043 10.045 30 10.9 30h3.591l-2.245-2.245a1 1 0 1 1 1.414-1.415l3.858 3.858a1 1 0 0 1 .025 1.388l-3.81 4.095a1 1 0 0 1-1.465-1.362L14.426 32H10.9C8.555 32 7 29.717 7 27.392V13.608C7 11.27 8.556 9 10.9 9H20v-.373C20 6.132 21.914 4 24.405 4h16.19C43.086 4 45 6.132 45 8.627v5.746C45 16.868 43.086 19 40.595 19h-16.19C21.914 19 20 16.868 20 14.373Zm2 14.254C22 27.116 23.135 26 24.405 26h16.19C41.865 26 43 27.116 43 28.627v5.746C43 35.884 41.865 37 40.595 37h-16.19C23.135 37 22 35.884 22 34.373v-5.746ZM24.405 24C21.914 24 20 26.132 20 28.627v5.746C20 36.868 21.914 39 24.405 39h16.19C43.086 39 45 36.868 45 34.373V32h8.1c.856 0 1.9.949 1.9 2.608v13.784C55 49.996 53.894 51 53 51h-2.586l2.293-2.293a1 1 0 0 0-1.414-1.414l-4 4a1 1 0 0 0 0 1.414l4 4a1 1 0 0 0 1.414-1.414L50.414 53H53c2.308 0 4-2.236 4-4.608V34.608C57 32.27 55.444 30 53.1 30H45v-1.373C45 26.132 43.086 24 40.595 24h-16.19Z" class="primary"/>
  </g>
</svg>
