<svg xmlns="http://www.w3.org/2000/svg" width="64" height="64" fill="none" viewBox="0 0 64 64">
  <g fill-rule="evenodd" class="question" clip-rule="evenodd">
    <path fill="#3D3C3C" d="M32 58c14.36 0 26-11.64 26-26S46.36 6 32 6 6 17.64 6 32s11.64 26 26 26Zm0 2c15.464 0 28-12.536 28-28S47.464 4 32 4 4 16.536 4 32s12.536 28 28 28Z" class="primary"/>
    <path fill="#FF462D" d="M26 23.002c0-3.629 2.895-6.237 6.427-5.985l2.727 11.744c-2.591 1.692-4.163 4.6-4.163 7.773v3.468a1 1 0 0 0 2 0v-3.468c0-2.508 1.24-4.782 3.257-6.098 2.41-1.576 3.95-4.47 3.731-7.673-.265-4.098-3.44-7.452-7.408-7.741h-.001c-4.67-.333-8.57 3.17-8.57 7.98a1 1 0 1 0 2 0Zm6.427-5.985 2.727 11.744c1.807-1.182 3-3.385 2.83-5.863v-.004c-.205-3.17-2.652-5.665-5.557-5.877Zm-.811 26.985h.768c.618 0 1.116.465 1.116 1.035v.93c0 .57-.498 1.035-1.116 1.035h-.768c-.619 0-1.116-.465-1.116-1.035v-.93c0-.57.497-1.035 1.116-1.035Z" class="secondary"/>
  </g>
</svg>
