<svg xmlns="http://www.w3.org/2000/svg" width="64" height="64" fill="none" viewBox="0 0 64 64">
  <g fill-rule="evenodd" class="quotation" clip-rule="evenodd">
    <path fill="#FF462D" d="M56.92 35.08a3.692 3.692 0 0 0-5.22 0L35.292 51.49l-1.24 4.932-.015.076c-.213.869.583 1.682 1.48 1.466h.003l4.992-1.255 16.406-16.393.002-.001a3.709 3.709 0 0 0 0-5.235Zm-6.634-1.414a5.692 5.692 0 0 1 8.048 0c2.223 2.223 2.22 5.826.003 8.059l-.003.003-16.605 16.59a1 1 0 0 1-.463.263l-5.274 1.326c-2.317.564-4.426-1.5-3.916-3.81a.982.982 0 0 1 .02-.096l1.323-5.267a.999.999 0 0 1 .263-.463l16.604-16.605Z" class="secondary"/>
    <g fill="#3D3C3C" class="primary">
      <path d="M16.603 6C14.075 6 12 8.09 12 10.684v42.632C12 55.91 14.075 58 16.603 58H27.8a1 1 0 1 1 0 2H16.603C12.943 60 10 56.986 10 53.316V10.683C10 7.014 12.942 4 16.603 4H39l.707.293 14 14L54 19v8.737a1 1 0 1 1-2 0v-8.323L38.586 6H16.603Z"/>
      <path d="M39 4a1 1 0 0 1 1 1v11.205c0 .992.81 1.795 1.795 1.795H53a1 1 0 1 1 0 2H41.795A3.799 3.799 0 0 1 38 16.205V5a1 1 0 0 1 1-1ZM18 15a1 1 0 0 1 1-1h13a1 1 0 1 1 0 2H19a1 1 0 0 1-1-1Zm0 9a1 1 0 0 1 1-1h13a1 1 0 1 1 0 2H19a1 1 0 0 1-1-1Zm0 9a1 1 0 0 1 1-1h7.578a1 1 0 0 1 0 2H19a1 1 0 0 1-1-1Z"/>
    </g>
  </g>
</svg>
