<svg xmlns="http://www.w3.org/2000/svg" width="64" height="64" fill="none" viewBox="0 0 64 64">
  <g fill-rule="evenodd" class="roles" clip-rule="evenodd">
    <path fill="#3D3C3C" d="M52.707 13.707a1 1 0 0 0-1.414-1.414l-6.92 6.92A18.439 18.439 0 0 0 31.5 14c-4.749 0-9.08 1.79-12.355 4.73l-6.438-6.437a1 1 0 0 0-1.414 1.414l6.437 6.438A18.432 18.432 0 0 0 13 32.5c0 4.749 1.79 9.08 4.73 12.355l-6.437 6.438a1 1 0 0 0 1.414 1.414l6.438-6.437A18.432 18.432 0 0 0 31.5 51a18.44 18.44 0 0 0 12.873-5.213l6.92 6.92a1 1 0 0 0 1.414-1.414l-6.974-6.974A18.425 18.425 0 0 0 50 32.5c0-4.494-1.602-8.614-4.267-11.819l6.974-6.974ZM15 32.5C15 23.387 22.387 16 31.5 16S48 23.387 48 32.5c0 5.132-2.343 9.718-6.018 12.744L42 42.057c.012-2.74-2.108-5.057-4.836-5.057H25.836c-2.728 0-4.846 2.316-4.836 5.055v3.173A16.466 16.466 0 0 1 15 32.5Zm7.99 14.14A16.424 16.424 0 0 0 31.5 49c3.098 0 5.997-.854 8.473-2.339L40 42.049c.007-1.73-1.311-3.049-2.836-3.049H25.836c-1.525 0-2.843 1.319-2.836 3.049V46.5a1 1 0 0 1-.01.14ZM31.5 23a4.5 4.5 0 1 0 0 9 4.5 4.5 0 0 0 0-9ZM25 27.5a6.5 6.5 0 1 1 13 0 6.5 6.5 0 0 1-13 0Z" class="primary"/>
    <path fill="#FF462D" d="M6 9a3 3 0 1 1 6 0 3 3 0 0 1-6 0Zm3-5a5 5 0 1 0 0 10A5 5 0 0 0 9 4Zm43 5a3 3 0 1 1 6 0 3 3 0 0 1-6 0Zm3-5a5 5 0 1 0 0 10 5 5 0 0 0 0-10ZM9 52c-1.654 0-3 1.345-3 3.01a3.005 3.005 0 0 0 3 3.01c1.655 0 3-1.345 3-3.01A3.005 3.005 0 0 0 9 52Zm-5 3.01A5.005 5.005 0 0 1 9 50c2.764 0 5 2.245 5 5.01a5.005 5.005 0 0 1-5 5.01c-2.764 0-5-2.245-5-5.01ZM52 55a3 3 0 1 1 6 0 3 3 0 0 1-6 0Zm3-5a5 5 0 1 0 0 10 5 5 0 0 0 0-10Z" class="secondary"/>
  </g>
</svg>
