<svg xmlns="http://www.w3.org/2000/svg" width="64" height="64" fill="none" viewBox="0 0 64 64">
  <g class="schedule">
    <g fill="#FF462D" class="secondary">
      <path d="M51.703 40.693a1 1 0 0 0-1.441-1.386l-6.975 7.252-2.585-2.678a1 1 0 0 0-1.44 1.389l3.306 3.424a1 1 0 0 0 1.44 0l7.695-8Z"/>
      <path fill-rule="evenodd" d="M44.982 29c-8.28 0-15 6.72-15 15 0 8.28 6.72 15 15 15 8.291 0 15-6.72 15-15 0-8.28-6.72-15-15-15Zm-13 15c0-7.175 5.825-13 13-13s13 5.825 13 13c0 7.176-5.814 13-13 13-7.175 0-13-5.825-13-13Z" clip-rule="evenodd"/>
    </g>
    <path fill="#3D3C3C" fill-rule="evenodd" d="M20.983 5a1 1 0 1 0-2 0v9a1 1 0 1 0 2 0v-4h16v4a1 1 0 1 0 2 0V5a1 1 0 1 0-2 0v3h-16V5Zm25 4a1 1 0 0 1 1-1h.908c3.291 0 6.092 2.55 6.092 5.803V25a1 1 0 1 1-2 0v-3.02a1.005 1.005 0 0 1-.119.006H6V53.18c0 2.067 1.761 3.81 4.005 3.81H32.75a1 1 0 1 1 0 2H10.005C6.735 58.99 4 56.428 4 53.18V14.196c0-3.247 2.723-5.81 6.005-5.81h.978a1 1 0 1 1 0 2h-.978C7.753 10.386 6 12.127 6 14.196v5.79h45.864c.04 0 .08.002.119.007v-6.19c0-2.037-1.791-3.803-4.092-3.803h-.908a1 1 0 0 1-1-1Zm-32 20.389c0-.767-.669-1.389-1.493-1.389h-1.014c-.825 0-1.493.622-1.493 1.389v1.222c0 .767.668 1.389 1.493 1.389h1.014c.824 0 1.493-.622 1.493-1.389V29.39Zm9.507-1.148h-1.014c-.825 0-1.493.622-1.493 1.39v1.221c0 .767.668 1.39 1.493 1.39h1.014c.824 0 1.493-.623 1.493-1.39V29.63c0-.767-.669-1.389-1.493-1.389ZM9.983 38.39c0-.767.668-1.389 1.493-1.389h1.014c.824 0 1.493.622 1.493 1.389v1.222c0 .767-.669 1.389-1.493 1.389h-1.014c-.825 0-1.493-.622-1.493-1.389V38.39Zm13.507-1.44h-1.014c-.825 0-1.493.623-1.493 1.39v1.221c0 .767.668 1.39 1.493 1.39h1.014c.824 0 1.493-.623 1.493-1.39V38.34c0-.766-.669-1.389-1.493-1.389ZM9.983 47.39c0-.767.668-1.389 1.493-1.389h1.014c.824 0 1.493.622 1.493 1.389v1.222c0 .767-.669 1.389-1.493 1.389h-1.014c-.825 0-1.493-.622-1.493-1.389V47.39ZM23.49 46h-1.014c-.825 0-1.493.622-1.493 1.389v1.222c0 .767.668 1.389 1.493 1.389h1.014c.824 0 1.493-.622 1.493-1.389V47.39c0-.767-.669-1.389-1.493-1.389Z" class="primary" clip-rule="evenodd"/>
  </g>
</svg>
