<svg xmlns="http://www.w3.org/2000/svg" width="64" height="64" fill="none" viewBox="0 0 64 64">
  <g fill-rule="evenodd" class="security-&amp;-resiliency" clip-rule="evenodd">
    <path fill="#3D3C3C" d="M33.35 4.316a2.98 2.98 0 0 0-2.67 0l-.009.004c-9.447 4.844-18.15 7.496-21.485 8.413h-.002C7.956 13.073 7 14.108 7 15.425V38.56c0 2.844 1.352 5.49 3.295 7.832 1.947 2.348 4.558 4.479 7.252 6.314 5.392 3.672 11.28 6.27 13.331 7.13a2.926 2.926 0 0 0 2.272 0c2.057-.86 7.945-3.458 13.336-7.13 2.694-1.836 5.304-3.966 7.25-6.314 1.942-2.342 3.293-4.988 3.293-7.832V15.425c0-1.322-.97-2.352-2.181-2.691l-.005-.001c-3.334-.917-12.038-3.57-21.485-8.413l-.008-.004Zm-2.472 55.518.387-.922-.39.921.003.001ZM9.718 14.661c3.41-.938 12.252-3.633 21.86-8.559a.98.98 0 0 1 .872 0c9.608 4.925 18.45 7.62 21.861 8.559.514.144.718.503.718.764V38.56c0 2.196-1.047 4.402-2.833 6.556-1.78 2.147-4.223 4.156-6.836 5.937-5.225 3.56-10.969 6.097-12.98 6.937l-.004.002a.926.926 0 0 1-.722 0l-.003-.001c-2.008-.841-7.752-3.379-12.978-6.938-2.614-1.78-5.058-3.79-6.839-5.938C10.048 42.961 9 40.755 9 38.56V15.425c0-.266.2-.621.717-.764Zm0 0-.267-.964.265.964h.001Zm44.593 0-.002-.001.27-.963-.266.964h-.002ZM23.818 40.913V30.151c4.837-.472 11.527-.472 16.364 0v10.762c-4.837.472-11.527.472-16.364 0Zm-.188-12.517c4.96-.485 11.78-.485 16.74 0 .865.08 1.63.75 1.63 1.669v10.934c0 .92-.765 1.59-1.63 1.67-4.961.484-11.78.484-16.74 0-.865-.08-1.63-.75-1.63-1.67V30.065c0-.92.765-1.59 1.63-1.67Z" class="primary"/>
    <path fill="#FF462D" d="M32 18.81c-2.406 0-4.286 1.913-4.286 4.178v1.146c0 .491-.383.89-.857.89-.473 0-.857-.399-.857-.89v-1.146c0-3.333 2.732-5.956 6-5.956 1.649 0 3.137.666 4.225 1.732l.003.003A5.917 5.917 0 0 1 38 22.997v1.146c0 .491-.384.889-.857.889-.474 0-.857-.398-.857-.889v-1.147a4.108 4.108 0 0 0-1.24-2.941A4.335 4.335 0 0 0 32 18.81Z" class="secondary"/>
  </g>
</svg>
