<svg xmlns="http://www.w3.org/2000/svg" width="64" height="64" fill="none" viewBox="0 0 64 64">
  <g fill-rule="evenodd" class="services-catalog" clip-rule="evenodd">
    <path fill="#3D3C3C" d="M14.117 6C11.87 6 10 7.875 10 10.184V17h4a1 1 0 1 1 0 2H5a1 1 0 1 1 0-2h3v-6.816C8 6.796 10.74 4 14.117 4h33.766C51.26 4 54 6.796 54 10.184v7.606a1 1 0 1 1-2 0v-7.606C52 7.875 50.13 6 47.883 6H14.117ZM9 52a1 1 0 0 1 1 1v.816C10 56.124 11.87 58 14.117 58H17a1 1 0 1 1 0 2h-2.883C10.74 60 8 57.205 8 53.816V53a1 1 0 0 1 1-1ZM4 32a1 1 0 0 1 1-1h3v-8a1 1 0 1 1 2 0v8h4a1 1 0 1 1 0 2H5a1 1 0 0 1-1-1Zm0 14a1 1 0 0 1 1-1h3v-7a1 1 0 1 1 2 0v7h4a1 1 0 1 1 0 2H5a1 1 0 0 1-1-1Zm42-18.513c0-.821.666-1.487 1.487-1.487h9.026c.821 0 1.487.666 1.487 1.487v9.026c0 .821-.666 1.487-1.487 1.487h-9.026A1.487 1.487 0 0 1 46 36.513v-9.026ZM47.487 24A3.487 3.487 0 0 0 44 27.487v9.026A3.487 3.487 0 0 0 47.487 40h9.026A3.487 3.487 0 0 0 60 36.513v-9.026A3.487 3.487 0 0 0 56.513 24h-9.026Zm0 22c-.821 0-1.487.666-1.487 1.487v9.026c0 .821.666 1.487 1.487 1.487h9.026c.821 0 1.487-.666 1.487-1.487v-9.026c0-.821-.666-1.487-1.487-1.487h-9.026ZM44 47.487A3.487 3.487 0 0 1 47.487 44h9.026A3.487 3.487 0 0 1 60 47.487v9.026A3.487 3.487 0 0 1 56.513 60h-9.026A3.487 3.487 0 0 1 44 56.513v-9.026Zm-18 0c0-.821.666-1.487 1.487-1.487h9.026c.821 0 1.487.666 1.487 1.487v9.026c0 .821-.666 1.487-1.487 1.487h-9.026A1.487 1.487 0 0 1 26 56.513v-9.026ZM27.487 44A3.487 3.487 0 0 0 24 47.487v9.026A3.487 3.487 0 0 0 27.487 60h9.026A3.487 3.487 0 0 0 40 56.513v-9.026A3.487 3.487 0 0 0 36.513 44h-9.026Z" class="primary"/>
    <path fill="#FF462D" d="M24.198 22A2.198 2.198 0 0 0 22 24.198v11.605c0 1.213.984 2.197 2.198 2.197h11.605A2.198 2.198 0 0 0 38 35.803V24.198A2.198 2.198 0 0 0 35.803 22H24.198ZM20 24.198A4.198 4.198 0 0 1 24.198 20h11.605A4.198 4.198 0 0 1 40 24.198v11.605A4.198 4.198 0 0 1 35.803 40H24.198A4.198 4.198 0 0 1 20 35.803V24.198Z" class="secondary"/>
  </g>
</svg>
