<svg xmlns="http://www.w3.org/2000/svg" width="64" height="64" fill="none" viewBox="0 0 64 64">
  <g fill-rule="evenodd" class="services" clip-rule="evenodd">
    <path fill="#FF462D" d="M4 7a3 3 0 0 1 3-3h22a3 3 0 0 1 3 3v22a3 3 0 0 1-3 3H7a3 3 0 0 1-3-3V7Zm3-1a1 1 0 0 0-1 1v22a1 1 0 0 0 1 1h22a1 1 0 0 0 1-1V7a1 1 0 0 0-1-1H7Z" class="secondary"/>
    <path fill="#3D3C3C" d="M38 13a3 3 0 0 1 3-3h16a3 3 0 0 1 3 3v16a3 3 0 0 1-3 3H41a3 3 0 0 1-3-3V13Zm3-1a1 1 0 0 0-1 1v16a1 1 0 0 0 1 1h16a1 1 0 0 0 1-1V13a1 1 0 0 0-1-1H41ZM10 41a3 3 0 0 1 3-3h16a3 3 0 0 1 3 3v16a3 3 0 0 1-3 3H13a3 3 0 0 1-3-3V41Zm3-1a1 1 0 0 0-1 1v16a1 1 0 0 0 1 1h16a1 1 0 0 0 1-1V41a1 1 0 0 0-1-1H13Zm28-2a3 3 0 0 0-3 3v16a3 3 0 0 0 3 3h16a3 3 0 0 0 3-3V41a3 3 0 0 0-3-3H41Zm-1 3a1 1 0 0 1 1-1h16a1 1 0 0 1 1 1v16a1 1 0 0 1-1 1H41a1 1 0 0 1-1-1V41Z" class="primary"/>
  </g>
</svg>
