<svg xmlns="http://www.w3.org/2000/svg" width="64" height="64" fill="none" viewBox="0 0 64 64">
  <g class="settings">
    <path fill="#3D3C3C" d="M22.906 60c-.499 0-.988-.14-1.428-.4l-6.991-4.244c-1.338-.81-1.798-2.597-1.029-3.986l2.387-4.354c.19-.35.16-.78-.07-1.08-1.438-1.827-2.587-3.924-3.415-6.202-.14-.38-.49-.719-.77-.719H6.837C5.218 39.015 4 37.827 4 36.25v-8.48c0-1.558 1.218-2.737 2.836-2.737H11.6c.24 0 .61-.31.77-.749a22.553 22.553 0 0 1 3.415-6.203 1 1 0 0 0 .07-1.078l-2.387-4.355c-.769-1.388-.3-3.176 1.029-3.985l6.981-4.245c.65-.4 1.418-.5 2.147-.31.75.2 1.379.7 1.758 1.389L27.78 9.85c.18.32.49.49.81.44 2.147-.37 4.624-.38 6.81 0 .31.05.63-.12.81-.44l2.397-4.354a2.858 2.858 0 0 1 1.758-1.399c.729-.2 1.498-.09 2.147.31l6.991 4.245c1.338.809 1.798 2.597 1.029 3.985l-2.387 4.355c-.19.35-.17.779.07 1.078a22.553 22.553 0 0 1 3.415 6.203c.15.41.59.74.85.74h4.494c1.488 0 3.026 1.028 3.026 2.736v8.48c0 1.528-1.358 2.766-3.026 2.766h-4.495c-.27 0-.699.31-.849.72a22.552 22.552 0 0 1-3.415 6.202c-.23.3-.26.73-.07 1.079l2.397 4.354c.759 1.389.3 3.177-1.029 3.986l-6.991 4.245a2.757 2.757 0 0 1-2.148.31c-.748-.2-1.378-.7-1.757-1.39l-2.397-4.354c-.18-.32-.49-.5-.81-.44-2.147.38-4.623.38-6.81 0-.31-.05-.63.12-.81.44l-2.387 4.345a2.877 2.877 0 0 1-1.767 1.398c-.24.06-.48.09-.72.09l-.01.02ZM6.836 27.03c-.2 0-.839.05-.839.739v8.48c0 .569.45.769.84.769H11.6c1.118 0 2.207.839 2.646 2.027a20.025 20.025 0 0 0 3.106 5.653c.72.92.82 2.228.25 3.267l-2.387 4.354c-.25.46-.11 1.059.32 1.319l6.99 4.245c.18.11.39.14.6.08.22-.06.41-.21.53-.43l2.386-4.345c.58-1.059 1.738-1.638 2.897-1.448 1.977.34 4.205.34 6.142 0 1.159-.19 2.317.39 2.896 1.448l2.388 4.345a.9.9 0 0 0 .529.43c.2.05.42.02.6-.09l6.99-4.245c.42-.26.57-.86.32-1.319l-2.397-4.364c-.57-1.04-.47-2.348.24-3.267a20.445 20.445 0 0 0 3.106-5.653c.43-1.178 1.578-2.037 2.726-2.037h4.495c.5 0 1.029-.31 1.029-.77v-8.48c0-.508-.62-.738-1.03-.738H52.48c-1.118 0-2.287-.89-2.726-2.058a20.218 20.218 0 0 0-3.106-5.663c-.72-.919-.82-2.227-.24-3.266l2.387-4.355c.25-.46.11-1.058-.32-1.318l-6.99-4.245a.74.74 0 0 0-.6-.08c-.22.06-.41.21-.53.43l-2.386 4.344c-.58 1.059-1.748 1.648-2.897 1.449-1.977-.34-4.205-.34-6.142 0-1.149.19-2.317-.39-2.896-1.449l-2.388-4.344a.863.863 0 0 0-.529-.43.79.79 0 0 0-.6.09l-6.99 4.245c-.43.26-.58.849-.32 1.318l2.397 4.365c.57 1.039.47 2.347-.24 3.266a20.442 20.442 0 0 0-3.106 5.653c-.44 1.219-1.528 2.058-2.646 2.058H6.835v.02Z" class="primary"/>
    <path fill="#FF462D" d="M32.015 43c-.62 0-1.24-.05-1.87-.15-4.55-.75-8.25-4.45-8.99-8.988-.59-3.59.53-7.099 3.07-9.638 2.54-2.54 6.05-3.66 9.63-3.07 4.55.75 8.25 4.45 8.99 8.988.59 3.59-.53 7.1-3.07 9.639A10.911 10.911 0 0 1 32.006 43h.01Zm-.01-19.996c-2.39 0-4.65.92-6.36 2.64-2.08 2.079-3 4.958-2.51 7.898.61 3.71 3.63 6.728 7.34 7.338 2.94.48 5.82-.43 7.89-2.51 2.07-2.079 2.99-4.958 2.51-7.898-.61-3.709-3.62-6.728-7.34-7.338a9.98 9.98 0 0 0-1.53-.13Z" class="secondary"/>
  </g>
</svg>
