<svg xmlns="http://www.w3.org/2000/svg" width="64" height="64" fill="none" viewBox="0 0 64 64">
  <g fill-rule="evenodd" class="shared-services" clip-rule="evenodd">
    <path fill="#3D3C3C" d="M29 17.5C29 23.851 23.851 29 17.5 29S6 23.851 6 17.5 11.149 6 17.5 6 29 11.149 29 17.5Zm2 0C31 24.956 24.956 31 17.5 31S4 24.956 4 17.5 10.044 4 17.5 4 31 10.044 31 17.5ZM37 35h19a2 2 0 0 1 2 2v19a2 2 0 0 1-2 2H37a2 2 0 0 1-2-2V37a2 2 0 0 1 2-2Zm-4 2a4 4 0 0 1 4-4h19a4 4 0 0 1 4 4v19a4 4 0 0 1-4 4H37a4 4 0 0 1-4-4V37Z" class="primary"/>
    <path fill="#FF462D" d="M42.707 5.707a1 1 0 0 0-1.414-1.414l-4 4a1 1 0 0 0 0 1.414l4 4a1 1 0 0 0 1.414-1.414L40.414 10h12.292C54.09 10 55 10.97 55 11.944V30a1 1 0 1 0 2 0V11.944C57 9.663 54.979 8 52.706 8H40.414l2.293-2.293ZM9 34a1 1 0 1 0-2 0v18.056C7 54.256 8.809 56 11.011 56h12.575l-2.293 2.293a1 1 0 0 0 1.414 1.414l4-4a1 1 0 0 0 0-1.414l-4-4a1 1 0 0 0-1.414 1.414L23.586 54H11.01C9.873 54 9 53.111 9 52.056V34Z" class="secondary"/>
  </g>
</svg>
