<svg xmlns="http://www.w3.org/2000/svg" width="64" height="64" fill="none" viewBox="0 0 64 64">
  <g fill-rule="evenodd" class="support" clip-rule="evenodd">
    <path fill="#3D3C3C" d="M32 5.929c-9.242 0-17.026 8.865-17.026 20.19v2.419H18v15.704c0 5.02 3.552 8.834 7.632 8.834H29v1.963h-3.368c-5.14 0-9.154-4.425-9.592-9.815H11c-4.067 0-7-3.946-7-8.343 0-4.388 2.942-8.343 7-8.343h1.974v-2.42c0-12.064 8.359-22.152 19.026-22.152s19.026 10.088 19.026 22.153v2.419H53c4.067 0 7 3.945 7 8.343 0 4.388-2.943 8.343-7 8.343h-1v-.01h-6V28.538h3.026v-2.42c0-11.324-7.784-20.19-17.026-20.19ZM6 36.88c0-3.735 2.44-6.38 5-6.38h5v12.76h-5c-2.57 0-5-2.635-5-6.38Zm52 0c0 3.602-2.27 6.191-4.729 6.37H48V30.5h5c2.57 0 5 2.635 5 6.38Z" class="primary"/>
    <path fill="#FF462D" d="M31.85 50.97a.86.86 0 0 0-.85.87v4.258c0 .49.39.869.85.869h7.3a.86.86 0 0 0 .85-.87V51.84a.86.86 0 0 0-.85-.87h-7.3Zm-2.85.87c0-1.574 1.266-2.868 2.85-2.868h7.3c1.584 0 2.85 1.294 2.85 2.868v4.258c0 1.574-1.266 2.868-2.85 2.868h-7.3c-1.584 0-2.85-1.294-2.85-2.868V51.84Z" class="secondary"/>
  </g>
</svg>
