<svg xmlns="http://www.w3.org/2000/svg" width="64" height="64" fill="none" viewBox="0 0 64 64">
  <g fill-rule="evenodd" class="tags" clip-rule="evenodd">
    <path fill="#3D3C3C" d="M38.826 6.059c-.747-.177-1.476.034-1.947.506L6.247 37.199c-.325.326-.37.965.097 1.432l19.023 19.025c.467.467 1.106.422 1.432.096L57.43 27.118l.005-.005c.476-.47.685-1.192.503-1.934a1.077 1.077 0 0 1-.01-.046l-2.85-14.586a2.277 2.277 0 0 0-1.63-1.63l-14.584-2.85a.999.999 0 0 1-.038-.008Zm.44-1.949c-1.369-.316-2.81.053-3.8 1.042L4.837 35.787c-1.198 1.197-1.057 3.104.096 4.257l19.023 19.024c1.152 1.153 3.059 1.294 4.256.097l30.627-30.63.003-.003c1-.99 1.37-2.433 1.043-3.804l-2.85-14.587a4.272 4.272 0 0 0-3.18-3.18l-14.589-2.85Z" class="primary"/>
    <path fill="#FF462D" d="M44 14a5 5 0 1 0 0 10 5 5 0 0 0 0-10Zm-7 5a7 7 0 1 1 14 0 7 7 0 0 1-14 0Z" class="secondary"/>
  </g>
</svg>
