<svg xmlns="http://www.w3.org/2000/svg" width="64" height="64" fill="none" viewBox="0 0 64 64">
  <g fill-rule="evenodd" class="template" clip-rule="evenodd">
    <path fill="#3D3C3C" d="M10.616 4C6.9 4 4 7.188 4 10.98v41.865C4 56.705 6.873 60 10.615 60h42.77C57.127 60 60 56.705 60 52.845V10.98C60 7.188 57.1 4 53.384 4H10.616ZM58 16v-5.02C58 8.171 55.878 6 53.384 6H10.616C8.122 6 6 8.171 6 10.98V16h52Zm0 2H6v34.845C6 55.779 8.148 58 10.615 58h42.77C55.852 58 58 55.779 58 52.845V18Zm-45.13-8h-.74c-.624 0-1.13.464-1.13 1.037v.926c0 .573.506 1.037 1.13 1.037h.74c.624 0 1.13-.464 1.13-1.037v-.926c0-.573-.506-1.037-1.13-1.037Zm5.198 0h.7c.589 0 1.067.439 1.067.98v.875c0 .541-.478.98-1.068.98h-.7c-.589 0-1.067-.439-1.067-.98v-.875c0-.541.478-.98 1.068-.98Zm6.062 0h.74c.624 0 1.13.464 1.13 1.037v.926c0 .573-.506 1.037-1.13 1.037h-.74c-.624 0-1.13-.464-1.13-1.037v-.926c0-.573.506-1.037 1.13-1.037ZM13 22a3 3 0 0 0-3 3v26a3 3 0 0 0 3 3h13a3 3 0 0 0 3-3V25a3 3 0 0 0-3-3H13Zm-1 3a1 1 0 0 1 1-1h13a1 1 0 0 1 1 1v26a1 1 0 0 1-1 1H13a1 1 0 0 1-1-1V25Zm21-2a1 1 0 0 1 1-1h19a1 1 0 1 1 0 2H34a1 1 0 0 1-1-1Zm1 7a1 1 0 1 0 0 2h19a1 1 0 1 0 0-2H34Z" class="primary"/>
    <path fill="#FF462D" d="M52 41H35v11h17V41Zm-17-2a2 2 0 0 0-2 2v11a2 2 0 0 0 2 2h17a2 2 0 0 0 2-2V41a2 2 0 0 0-2-2H35Z" class="secondary"/>
  </g>
</svg>
