<svg xmlns="http://www.w3.org/2000/svg" width="64" height="64" fill="none" viewBox="0 0 64 64">
  <g fill-rule="evenodd" class="ticket" clip-rule="evenodd">
    <path fill="#3D3C3C" d="M5 11a1 1 0 0 0-1 1v13a1 1 0 0 0 1 1c1.333 0 2.569.7 3.502 1.848C9.437 29 10 30.53 10 32c0 1.47-.563 3-1.498 4.152C7.569 37.3 6.333 38 5 38a1 1 0 0 0-1 1v13a1 1 0 0 0 1 1h54a1 1 0 0 0 1-1V39a1 1 0 0 0-1-1c-1.333 0-2.569-.7-3.502-1.848C54.563 35 54 33.47 54 32c0-1.47.563-3 1.498-4.152C56.431 26.7 57.667 26 59 26a1 1 0 0 0 1-1V12a1 1 0 0 0-1-1H5Zm53 13.086V13H6v11.086c1.642.285 3.04 1.252 4.054 2.502C11.267 28.08 12 30.05 12 32c0 1.949-.733 3.92-1.946 5.413-1.014 1.25-2.412 2.216-4.054 2.5V51h52V39.914c-1.642-.285-3.04-1.252-4.054-2.502C52.733 35.92 52 33.95 52 32c0-1.949.733-3.92 1.946-5.413 1.014-1.25 2.412-2.216 4.054-2.501Z" class="primary"/>
    <path fill="#FF462D" d="M19 16a1 1 0 0 1 1 1v6a1 1 0 1 1-2 0v-6a1 1 0 0 1 1-1Zm0 12a1 1 0 0 1 1 1v6a1 1 0 1 1-2 0v-6a1 1 0 0 1 1-1Zm1 13a1 1 0 1 0-2 0v6a1 1 0 1 0 2 0v-6Z" class="secondary"/>
  </g>
</svg>
