<svg xmlns="http://www.w3.org/2000/svg" width="64" height="64" fill="none" viewBox="0 0 64 64">
  <g class="Size=M">
    <g class="Icon">
      <path fill="#3D3C3C" d="M42.102 51.672a1 1 0 0 1 0 1.99l-.102.005H22a1 1 0 1 1 0-2h20l.102.005ZM32 15a1 1 0 0 1 1 1v13.766a5 5 0 0 1 2.962 1.852l13.702-4.893a1 1 0 1 1 .672 1.883l-13.491 4.817a5.009 5.009 0 0 1-1.11 4.564l.052.06 8.5 10.834.059.084a1 1 0 0 1-1.633 1.15l-8.5-10.833-.059-.084-.01-.017c-.65.31-1.376.484-2.144.484a4.978 4.978 0 0 1-2.145-.484c-.03.05-.064.098-.103.143l-9.5 10.833a1 1 0 0 1-1.504-1.318l9.5-10.833c.005-.007.011-.012.017-.018A4.98 4.98 0 0 1 27 34.667c0-.429.053-.845.154-1.242l-13.49-4.817a1 1 0 0 1 .672-1.883l13.701 4.893A5 5 0 0 1 31 29.766V16a1 1 0 0 1 1-1Zm21.05 15.355a1 1 0 0 1 1.9.623l-6 18.333a1 1 0 0 1-1.9-.622l6-18.334Zm-43.412-.62a1 1 0 0 1 1.294.57l7 18 .032.096a1 1 0 0 1-1.854.722l-.042-.094-7-18a1 1 0 0 1 .57-1.294ZM32 31.667a3 3 0 1 0 0 6 3 3 0 0 0 0-6Zm3.223-19.63a1 1 0 0 1 1.324-.208l.082.06 14 11.333a1.001 1.001 0 0 1-1.176 1.616l-.082-.06-14-11.334-.076-.068a1 1 0 0 1-.072-1.338Zm-7.825-.168a1 1 0 0 1 1.204 1.596l-15 11.333a1 1 0 1 1-1.204-1.596l15-11.333Z" class="primary"/>
      <path fill="#FF462D" d="M17 48a5 5 0 1 1 0 10 5 5 0 0 1 0-10Zm29 0a5 5 0 1 1 0 10 5 5 0 0 1 0-10Zm-29 2a3 3 0 1 0 0 6 3 3 0 0 0 0-6Zm29 0a3 3 0 1 0 0 6 3 3 0 0 0 0-6ZM9 21a5 5 0 1 1 0 10 5 5 0 0 1 0-10Zm45 0a5 5 0 1 1 0 10 5 5 0 0 1 0-10ZM9 23a3 3 0 1 0 0 6 3 3 0 0 0 0-6Zm45 0a3 3 0 1 0 0 6 3 3 0 0 0 0-6ZM32 6a5 5 0 1 1 0 10 5 5 0 0 1 0-10Zm0 2a3 3 0 1 0 0 6 3 3 0 0 0 0-6Z" class="secondary"/>
    </g>
  </g>
</svg>
