<svg xmlns="http://www.w3.org/2000/svg" width="64" height="64" fill="none" viewBox="0 0 64 64">
  <g fill-rule="evenodd" class="track" clip-rule="evenodd">
    <path fill="#3D3C3C" d="M9 13.5a7.5 7.5 0 1 1 15 0 7.5 7.5 0 0 1-15 0ZM16.5 4a9.5 9.5 0 0 0 0 19c4.736 0 8.663-3.466 9.382-8h17.551C48.202 15 52 18.72 52 23.25c0 4.53-3.798 8.25-8.567 8.25H21.567C15.757 31.5 11 36.052 11 41.75S15.757 52 21.567 52h16.98a1 1 0 1 0 0-2h-16.98C16.798 50 13 46.28 13 41.75c0-4.53 3.798-8.25 8.567-8.25h21.866C49.243 33.5 54 28.948 54 23.25S49.243 13 43.433 13H25.987c-.26-5.014-4.408-9-9.487-9Z" class="primary"/>
    <path fill="#FF462D" d="M47.5 43a7.5 7.5 0 1 0 0 15 7.5 7.5 0 0 0 0-15ZM38 50.5a9.5 9.5 0 1 1 19 0 9.5 9.5 0 0 1-19 0Z" class="secondary"/>
  </g>
</svg>
