<svg xmlns="http://www.w3.org/2000/svg" width="64" height="64" fill="none" viewBox="0 0 64 64">
  <g fill-rule="evenodd" class="user" clip-rule="evenodd">
    <path fill="#FF462D" d="m17.998 47.068.048 7.425a.999.999 0 1 1-1.998.013L16 47.08A7.035 7.035 0 0 1 23.036 40h17.84c3.908 0 7.069 3.18 7.035 7.082l-.048 7.424a.999.999 0 1 1-1.998-.013l.049-7.425v-.003a5.03 5.03 0 0 0-5.038-5.067h-17.84a5.037 5.037 0 0 0-5.038 5.07Z" class="secondary"/>
    <path fill="#3D3C3C" d="M5.998 32C5.998 17.64 17.639 5.998 32 5.998c14.36 0 26.002 11.641 26.002 26.002 0 14.36-11.641 26.002-26.002 26.002C17.64 58.002 5.998 46.361 5.998 32ZM32 4C16.536 4 4 16.536 4 32s12.536 28 28 28 28-12.536 28-28S47.464 4 32 4Zm-7 21.5a7.5 7.5 0 1 1 15 0 7.5 7.5 0 0 1-15 0Zm7.5-9.5a9.5 9.5 0 1 0 0 19 9.5 9.5 0 0 0 0-19Z" class="primary"/>
  </g>
</svg>
