<svg xmlns="http://www.w3.org/2000/svg" width="64" height="64" fill="none" viewBox="0 0 64 64">
  <g fill-rule="evenodd" class="user-manual" clip-rule="evenodd">
    <path fill="#3D3C3C" d="M13 10.184C13 7.875 14.87 6 17.117 6h33.766C53.13 6 55 7.875 55 10.184v43.632C55 56.124 53.13 58 50.883 58H17.117C14.87 58 13 56.124 13 53.816V52a1 1 0 1 0-2 0v1.816C11 57.205 13.74 60 17.117 60h33.766C54.26 60 57 57.205 57 53.816V10.184C57 6.796 54.26 4 50.883 4H17.117C13.74 4 11 6.796 11 10.184V17H8a1 1 0 1 0 0 2h8a1 1 0 1 0 0-2h-3v-6.816ZM8 31a1 1 0 1 0 0 2h8a1 1 0 1 0 0-2h-3v-8a1 1 0 1 0-2 0v8H8Zm0 14a1 1 0 1 0 0 2h8a1 1 0 1 0 0-2h-3v-6a1 1 0 1 0-2 0v6H8Z" class="primary"/>
    <path fill="#FF462D" d="M34 22a2 2 0 1 0 0-4 2 2 0 0 0 0 4Zm1 6a1 1 0 1 0-2 0v17a1 1 0 1 0 2 0V28Z" class="secondary"/>
  </g>
</svg>
