<svg xmlns="http://www.w3.org/2000/svg" width="64" height="64" fill="none" viewBox="0 0 64 64">
  <g fill-rule="evenodd" class="video-tutorial" clip-rule="evenodd">
    <path fill="#3D3C3C" d="M6 13.436C6 10.968 7.958 9 10.332 9h43.335C56.042 9 58 10.968 58 13.436V39H6V13.436ZM4 40V13.436C4 9.9 6.817 7 10.332 7h43.335C57.183 7 60 9.9 60 13.436v30.128C60 47.1 57.183 50 53.667 50H33v8h11a1 1 0 1 1 0 2H20a1 1 0 1 1 0-2h11v-8H10.332C6.817 50 4 47.1 4 43.564V40Zm2 1h52v2.564C58 46.032 56.042 48 53.667 48H10.333C7.958 48 6 46.032 6 43.564V41Z" class="primary"/>
    <path fill="#FF462D" d="m28.005 27.775 9.866-4.958a2.027 2.027 0 0 0 0-3.634l-9.866-4.958C26.63 13.534 25 14.519 25 16.042v9.916c0 1.523 1.63 2.508 3.005 1.817ZM37 21l-10 4.846v-9.692L37 21ZM16.494 31h-.988c-.688 0-1.269.423-1.448 1H11a1 1 0 1 0 0 2h3.058c.18.577.76 1 1.448 1h.988c.688 0 1.269-.423 1.448-1H53a1 1 0 1 0 0-2H17.942c-.18-.577-.76-1-1.448-1Z" class="secondary"/>
  </g>
</svg>
