<svg xmlns="http://www.w3.org/2000/svg" width="64" height="64" fill="none" viewBox="0 0 64 64">
  <g fill-rule="evenodd" class="workflow-automation" clip-rule="evenodd">
    <g fill="#3D3C3C" class="primary">
      <path d="M50.977 4.034a1 1 0 0 1 .998 1v7.99a.999.999 0 0 1-.998.998h-7.99a.999.999 0 1 1 0-1.997h6.99V5.033a1 1 0 0 1 1-.999Z"/>
      <path d="M32 5.998C17.643 5.998 5.998 17.643 5.998 32c0 4.724 1.476 9.611 3.877 13.453a.999.999 0 1 1-1.694 1.06C5.59 42.362 4 37.111 4 32 4 16.54 16.54 4 32 4c7.712 0 15.019 3.133 19.72 8.355a.999.999 0 0 1-1.486 1.336C45.946 8.927 39.196 5.998 32 5.998ZM12.024 50.977a1 1 0 0 1 1-1h7.99a.999.999 0 1 1 0 1.998h-6.992v6.992a.999.999 0 0 1-1.998 0v-7.99Z"/>
      <path d="M54.442 17.17a.999.999 0 0 1 1.377.318C58.41 21.636 60 26.888 60 32c0 15.46-12.54 28-28 28-7.744 0-14.635-3.26-19.684-8.318a.999.999 0 0 1 1.414-1.41c4.71 4.719 11.106 7.73 18.27 7.73 14.357 0 26.002-11.645 26.002-26.002 0-4.724-1.476-9.611-3.877-13.453a.999.999 0 0 1 .317-1.377Z"/>
      <path d="M27.19 16.037a1 1 0 0 1 .648.428l1.914 2.88a12.63 12.63 0 0 1 3.707-.127l1.42-2.669a.998.998 0 0 1 1.432-.364l6.383 4.209c.447.295.582.89.305 1.349l-1.207 2.006c.802.998 1.413 2.128 1.878 3.257h3.311a1 1 0 0 1 1 .999v6.991a.999.999 0 0 1-1 .999h-2.785a20.504 20.504 0 0 1-.944 2.086l-.004.009c-.3.553-.629 1.08-.995 1.577l1.586 2.582a.999.999 0 0 1-.308 1.361l-6.493 4.21a.998.998 0 0 1-1.43-.378l-1.44-2.772a12.626 12.626 0 0 1-3.627.111l-1.42 2.67a1 1 0 0 1-1.365.405l-6.227-3.443a.999.999 0 0 1-.438-1.26l1.184-2.82c-.835-1.017-1.467-2.179-1.945-3.34h-3.312a.999.999 0 0 1-.998-.998v-7.99c0-.552.447-.999.998-.999h3.249c.098-.31.216-.599.485-1.096.3-.553.629-1.08.995-1.577l-1.586-2.583a.999.999 0 0 1 .277-1.34l5.994-4.209a.999.999 0 0 1 .759-.164Zm8.937 2.42-1.234 2.32a.999.999 0 0 1-1.054.514 10.65 10.65 0 0 0-4.313.141.999.999 0 0 1-1.063-.418l-1.721-2.59-4.387 3.081 1.458 2.374a.999.999 0 0 1-.084 1.162 11.019 11.019 0 0 0-1.22 1.821 4.19 4.19 0 0 0-.305.649c-.04.114-.068.213-.111.363-.03.106-.069.238-.123.419a.999.999 0 0 1-.956.71h-2.997v5.993h2.997c.42 0 .794.262.938.657.513 1.407 1.232 2.76 2.214 3.81a.999.999 0 0 1 .192 1.069l-1.078 2.567 4.554 2.517 1.273-2.392a.999.999 0 0 1 1.054-.515 10.65 10.65 0 0 0 4.313-.141.999.999 0 0 1 1.118.51l1.282 2.467 4.752-3.08-1.439-2.344a.999.999 0 0 1 .085-1.162c.454-.546.855-1.15 1.217-1.817.363-.686.838-1.761 1.04-2.434a.999.999 0 0 1 .957-.71h2.497v-4.994h-2.996a.999.999 0 0 1-.939-.657c-.513-1.407-1.232-2.76-2.215-3.81a.999.999 0 0 1-.126-1.197l1.087-1.806-4.667-3.078Z"/>
    </g>
    <path fill="#FF462D" d="M32 28c-2.212 0-4 1.788-4 4 0 2.212 1.788 4 4 4 2.212 0 4-1.788 4-4 0-2.212-1.788-4-4-4Zm-6 4c0-3.316 2.684-6 6-6s6 2.684 6 6-2.684 6-6 6-6-2.684-6-6Z" class="secondary"/>
  </g>
</svg>
