<svg xmlns="http://www.w3.org/2000/svg" width="48" height="48" fill="none" viewBox="0 0 48 48">
  <g class="access-management">
    <g fill="#5FBEAC" class="secondary">
      <path d="M40.731 32.682a1 1 0 0 0-1.462-1.364L34.4 36.534l-1.67-1.79a1 1 0 1 0-1.462 1.365l2.4 2.573a1 1 0 0 0 1.463 0l5.6-6Z"/>
      <path fill-rule="evenodd" d="M35.5 25C29.701 25 25 29.701 25 35.5S29.701 46 35.5 46 46 41.299 46 35.5 41.299 25 35.5 25ZM27 35.5a8.5 8.5 0 1 1 17 0 8.5 8.5 0 0 1-17 0Z" clip-rule="evenodd"/>
    </g>
    <g fill="#29707A" class="primary">
      <path fill-rule="evenodd" d="M24 13a5 5 0 1 0 0 10 5 5 0 0 0 0-10Zm-7 5a7 7 0 1 1 14 0 7 7 0 0 1-14 0Z" clip-rule="evenodd"/>
      <path d="M4 24c0 11.022 8.968 20 20 20v-.01c1.666 0 3.322-.2 4.928-.608a.994.994 0 0 0-.489-1.925 18.474 18.474 0 0 1-4.439.548c-4.15 0-7.976-1.412-11.025-3.78A.978.978 0 0 0 13 38v-6c-.008-1.67 1.576-3 3.34-3h12.675c.574 0 .985-.47.985-1 0-.232 0-.356-.042-.465-.053-.14-.176-.253-.458-.535H16.34c-2.941 0-5.353 2.288-5.34 5v4.443A17.942 17.942 0 0 1 5.995 24c0-9.925 8.08-18.005 18.005-18.005 9.925 0 18.005 8.08 18.005 18.005 0 1.516-.19 3.032-.569 4.489a.993.993 0 0 0 .719 1.217c.538.14 1.077-.19 1.217-.718A19.93 19.93 0 0 0 44 24c0-11.032-8.968-20-20-20S4 12.978 4 24Z"/>
    </g>
  </g>
</svg>
