<svg xmlns="http://www.w3.org/2000/svg" width="48" height="48" fill="none" viewBox="0 0 48 48">
  <path fill="#29707A" fill-rule="evenodd" d="M14.5 16.047c0-5.901 4.407-10.547 9.69-10.547 4.41 0 8.197 3.227 9.335 7.722a7.328 7.328 0 0 0-2.53 1.116 1 1 0 1 0 1.138 1.645c.798-.553 1.876-.983 3.405-.983 1.611 0 3.23.77 4.46 2.03C41.227 18.29 42 19.973 42 21.695c0 1.589-.013 2.522-.832 3.75a1 1 0 0 0 1.664 1.11C44 24.802 44 23.332 44 21.748v-.053c0-2.317-1.031-4.483-2.57-6.06C39.893 14.057 37.78 13 35.538 13H35.5a1 1 0 0 0-.03-.248C34.143 7.476 29.637 3.5 24.19 3.5c-6.482 0-11.615 5.608-11.69 12.399-1.227-.179-2.288-.062-3.31.327h-.001C6.057 17.42 4 20.336 4 23.483c0 3.311 2.049 6.186 4.993 7.437a1 1 0 1 0 .783-1.84C7.526 28.124 6 25.946 6 23.483c0-2.269 1.498-4.473 3.9-5.387.807-.307 1.682-.387 2.915-.105a.871.871 0 0 0 .05.01l1.052.185a1 1 0 0 0 .583-1.897v-.242ZM16 20a2 2 0 0 0-2 2v20a2 2 0 0 0 2 2h25a2 2 0 0 0 2-2V31.306a2 2 0 0 0-2.522-1.93L31 31.938V22a2 2 0 0 0-2-2H16Zm0 18v4h13v-4H16Zm13-2H16v-6h13v6Zm2 1v5h10V31.306L31 34.01V37Zm-15-9h13v-6H16v6Z" clip-rule="evenodd"/>
  <path fill="#5FBEAC" fill-rule="evenodd" d="M18 24a1 1 0 1 0 0 2h3a1 1 0 1 0 0-2h-3Zm0 8a1 1 0 1 0 0 2h3a1 1 0 1 0 0-2h-3Z" clip-rule="evenodd"/>
</svg>
