<svg xmlns="http://www.w3.org/2000/svg" width="48" height="48" fill="none" viewBox="0 0 48 48">
  <path fill="#5FBEAC" fill-rule="evenodd" d="M25.113 28.69a1 1 0 0 1 1.348-.426l8 4.154a1 1 0 0 1-.922 1.775l-8-4.154a1 1 0 0 1-.427-1.348Z" clip-rule="evenodd"/>
  <path fill="#5FBEAC" fill-rule="evenodd" d="M42.887 28.69a1 1 0 0 1-.426 1.35l-8 4.153a1 1 0 1 1-.922-1.775l8-4.154a1 1 0 0 1 1.348.427Zm-7.958-4.147a1 1 0 0 1-.436 1.345l-8.038 4.11a1 1 0 0 1-.91-1.781l8.038-4.11a1 1 0 0 1 1.346.436Z" clip-rule="evenodd"/>
  <path fill="#5FBEAC" fill-rule="evenodd" d="M33.112 24.537a1 1 0 0 1 1.349-.427l8 4.154a1 1 0 0 1-.922 1.775l-8-4.154a1 1 0 0 1-.427-1.348ZM26 28.152a1 1 0 0 1 1 1v9.692a1 1 0 1 1-2 0v-9.692a1 1 0 0 1 1-1Z" clip-rule="evenodd"/>
  <path fill="#5FBEAC" fill-rule="evenodd" d="M42 28.152a1 1 0 0 1 1 1v9.692a1 1 0 1 1-2 0v-9.692a1 1 0 0 1 1-1Zm-8 4.154a1 1 0 0 1 1 1v9.692a1 1 0 1 1-2 0v-9.692a1 1 0 0 1 1-1Z" clip-rule="evenodd"/>
  <path fill="#5FBEAC" fill-rule="evenodd" d="M25.113 38.383a1 1 0 0 1 1.348-.427l8 4.154a1 1 0 0 1-.922 1.775l-8-4.154a1 1 0 0 1-.427-1.348Z" clip-rule="evenodd"/>
  <path fill="#5FBEAC" fill-rule="evenodd" d="M42.887 38.383a1 1 0 0 1-.426 1.348l-8 4.154a1 1 0 0 1-.922-1.775l8-4.154a1 1 0 0 1 1.348.427Z" clip-rule="evenodd"/>
  <path fill="#29707A" fill-rule="evenodd" d="M15.81 42.678c.35.21.73.32 1.13.32l.02.03c.19 0 .38-.03.57-.08a2.22 2.22 0 0 0 1.38-1.09l1.59-2.9c.05-.09.12-.14.18-.13.55.09 1.06-.27 1.16-.81.09-.54-.27-1.06-.81-1.16-.91-.17-1.83.29-2.29 1.13l-1.6 2.91c-.05.08-.11.12-.14.12-.05.01-.14-.02-.14-.02l-4.67-2.83c-.12-.06-.18-.26-.09-.42l1.59-2.91c.44-.8.37-1.83-.19-2.54a13.59 13.59 0 0 1-2.01-3.66 2.21 2.21 0 0 0-2.08-1.48H6.23c-.12 0-.23-.14-.23-.3v-5.65c0-.18.12-.3.23-.3h3.18c.93 0 1.76-.59 2.08-1.47.48-1.35 1.16-2.59 2.02-3.68.55-.73.63-1.73.18-2.54l-1.6-2.91c-.07-.14-.03-.34.1-.42l4.66-2.82c.05-.02.09-.03.14-.02.04.01.09.04.14.12l1.59 2.9c.45.82 1.36 1.28 2.27 1.13 1.33-.22 2.68-.22 3.98 0 .91.17 1.83-.29 2.29-1.13l1.6-2.91c.05-.08.11-.12.14-.12.05-.02.14.02.14.02l4.67 2.83c.12.06.18.26.09.42l-1.59 2.9c-.45.8-.38 1.83.18 2.54.85 1.1 1.53 2.34 2.01 3.66a2.21 2.21 0 0 0 2.08 1.48h3.18c.12 0 .23.14.23.3v1.33c0 .55.45 1 1 1s1-.45 1-1v-1.33c0-1.27-1-2.3-2.23-2.3h-3.18c-.06 0-.15-.04-.19-.15-.55-1.54-1.33-2.96-2.32-4.23-.07-.08-.07-.24-.01-.35l1.59-2.91c.6-1.08.23-2.48-.81-3.1l-4.66-2.82a2.12 2.12 0 0 0-1.7-.25c-.58.15-1.08.56-1.37 1.09l-1.59 2.9c-.04.08-.11.13-.19.12-1.54-.26-3.11-.26-4.65 0-.09.02-.16-.05-.2-.12l-1.59-2.9c-.3-.55-.79-.93-1.38-1.09-.57-.16-1.17-.07-1.69.24l-4.69 2.82c-1.04.64-1.4 2.04-.8 3.1l1.59 2.91c.07.12.07.26 0 .35-.98 1.25-1.76 2.68-2.32 4.23-.03.1-.12.15-.19.15H6.23c-1.23 0-2.23 1.03-2.23 2.3v5.65c0 1.27 1 2.3 2.23 2.3h3.18c.08 0 .16.06.19.15.55 1.54 1.33 2.96 2.32 4.23.07.08.07.24.01.35l-1.59 2.9c-.6 1.08-.23 2.48.81 3.1l4.66 2.82Zm6.13-10.19c.05.01.11.01.16.01l-.02.01a1 1 0 0 0 .99-.84.999.999 0 0 0-.82-1.15c-2.38-.39-4.26-2.4-4.68-4.99a5.97 5.97 0 0 1 1.67-5.26c1.39-1.39 3.31-2 5.27-1.68 2.6.43 4.6 2.31 4.99 4.68.09.55.6.92 1.15.83.55-.09.92-.6.83-1.15-.53-3.22-3.19-5.76-6.64-6.33-2.6-.43-5.15.38-7 2.23-1.84 1.84-2.66 4.4-2.23 7 .56 3.44 3.11 6.11 6.33 6.64Z" clip-rule="evenodd"/>
</svg>
