<svg xmlns="http://www.w3.org/2000/svg" width="48" height="48" fill="none" viewBox="0 0 48 48">
  <path fill="#5FBEAC" fill-rule="evenodd" d="M22.282 12a1 1 0 0 1 .904.649L26.693 22H33a1 1 0 1 1 0 2h-7a1 1 0 0 1-.936-.649l-2.898-7.727-3.504 7.786a1 1 0 0 1-.912.59H9a1 1 0 1 1 0-2h8.103l4.235-9.41a1 1 0 0 1 .944-.59Z" clip-rule="evenodd"/>
  <path fill="#29707A" fill-rule="evenodd" d="M6 21c0-8.284 6.716-15 15-15 8.284 0 15 6.716 15 15 0 8.284-6.716 15-15 15-8.284 0-15-6.716-15-15ZM21 4C11.611 4 4 11.611 4 21s7.611 17 17 17c4.335 0 8.29-1.622 11.293-4.293l10 10a1 1 0 0 0 1.414-1.414l-10-10A16.936 16.936 0 0 0 38 21c0-9.389-7.611-17-17-17Z" clip-rule="evenodd"/>
</svg>
