<svg xmlns="http://www.w3.org/2000/svg" width="48" height="48" fill="none" viewBox="0 0 48 48">
  <g fill-rule="evenodd" class="approval-policies" clip-rule="evenodd">
    <path fill="#5FBEAC" d="M31.7 18.286a1 1 0 0 1 .014 1.414l-9.797 10a1 1 0 0 1-1.429 0l-4.202-4.29a1 1 0 1 1 1.428-1.4l3.489 3.561 9.083-9.27a1 1 0 0 1 1.414-.015Z" class="secondary"/>
    <path fill="#29707A" d="M25.074 4.263c6.68 3.377 12.812 5.24 15.156 5.881l.01.003c.952.272 1.76 1.088 1.76 2.183v16.268c0 2.097-1.004 4.022-2.402 5.695-1.403 1.68-3.276 3.194-5.195 4.492-3.841 2.596-8.03 4.43-9.488 5.037l-.017.007a2.437 2.437 0 0 1-1.796 0l-.015-.007c-1.466-.606-5.656-2.44-9.495-5.038-1.918-1.297-3.79-2.812-5.192-4.49-1.397-1.674-2.4-3.6-2.4-5.696V12.344c0-1.079.79-1.925 1.771-2.186C10.127 9.5 16.266 7.65 22.91 4.264a2.354 2.354 0 0 1 2.164 0Zm-.921 1.775a.354.354 0 0 0-.32 0l-.01.006c-6.818 3.475-13.106 5.368-15.52 6.042l-.014.003c-.25.066-.289.223-.289.255v16.254c0 1.444.695 2.928 1.935 4.413 1.235 1.48 2.94 2.874 4.777 4.117 3.665 2.479 7.7 4.25 9.129 4.842.105.04.212.04.317 0 1.425-.593 5.458-2.364 9.124-4.842 1.84-1.243 3.545-2.637 4.781-4.117C39.304 31.525 40 30.042 40 28.598V12.33c0-.02-.006-.057-.048-.106a.526.526 0 0 0-.256-.152c-2.427-.664-8.693-2.57-15.53-6.027l-.013-.007Z" class="primary"/>
  </g>
</svg>
