<svg xmlns="http://www.w3.org/2000/svg" width="48" height="48" fill="none" viewBox="0 0 48 48">
  <g fill-rule="evenodd" class="catalog-management" clip-rule="evenodd">
    <path fill="#5FBEAC" d="M18 18a1 1 0 0 1 1-1h10a1 1 0 1 1 0 2H19a1 1 0 0 1-1-1Zm0 6a1 1 0 0 1 1-1h10a1 1 0 1 1 0 2H19a1 1 0 0 1-1-1Zm1 5a1 1 0 1 0 0 2h10a1 1 0 1 0 0-2H19Z" class="secondary"/>
    <path fill="#29707A" d="M13 4a1 1 0 1 0 0 2h24.315C38.775 6 40 7.223 40 8.716V40a1 1 0 1 0 2 0V8.716C42 6.133 39.895 4 37.315 4H13Zm.024 6C11.985 10 11 10.948 11 12.267v4.361a.995.995 0 0 1-.143.515h1.953a1 1 0 1 1 0 2H6.952a1 1 0 0 1 0-2h2.19A.996.996 0 0 1 9 16.628v-4.361C9 9.992 10.738 8 13.024 8h19.953C35.261 8 37 9.992 37 12.267v27.466C37 42.008 35.262 44 32.977 44H13.024C10.868 44 9 42.447 9 40.041a1 1 0 1 1 2 0c0 1.187.854 1.959 2.024 1.959h19.953C34.014 42 35 41.052 35 39.733V12.267C35 10.948 34.015 10 32.977 10H13.024ZM5.952 26.933a1 1 0 0 1 1-1h1.934v-3.4a1 1 0 1 1 2 0v3.4h1.924a1 1 0 1 1 0 2H6.951a1 1 0 0 1-1-1Zm0 8.79a1 1 0 0 1 1-1h1.934v-3.4a1 1 0 1 1 2 0v3.4h1.924a1 1 0 1 1 0 2H6.952a1 1 0 0 1-1-1Z" class="primary"/>
  </g>
</svg>
