<svg xmlns="http://www.w3.org/2000/svg" width="48" height="48" fill="none" viewBox="0 0 48 48">
  <g fill-rule="evenodd" class="chat" clip-rule="evenodd">
    <path fill="#5FBEAC" d="M15.514 19h-1.028c-.82 0-1.486.618-1.486 1.38v1.24c0 .762.665 1.38 1.486 1.38h1.028c.82 0 1.486-.618 1.486-1.38v-1.24c0-.762-.665-1.38-1.486-1.38Zm9 0h-1.028c-.82 0-1.486.618-1.486 1.38v1.24c0 .762.665 1.38 1.486 1.38h1.028c.82 0 1.486-.618 1.486-1.38v-1.24c0-.762-.665-1.38-1.486-1.38Zm7.972 0h1.028c.82 0 1.486.618 1.486 1.38v1.24c0 .762-.665 1.38-1.486 1.38h-1.028c-.82 0-1.486-.618-1.486-1.38v-1.24c0-.762.665-1.38 1.486-1.38Z" class="secondary"/>
    <path fill="#29707A" d="M4 12.406C4 8.865 6.883 6 10.425 6h27.15C41.117 6 44 8.865 44 12.406v17.585C44 33.646 40.93 36 37.5 36H22.829l-7.574 5.58a2.025 2.025 0 0 1-1.275.388 1.885 1.885 0 0 1-1.126-.458c-.576-.492-.854-1.263-.854-2.01V36h-1.5C7.081 36 4 33.647 4 29.99V12.407ZM10.425 8C7.98 8 6 9.976 6 12.406v17.585C6 32.306 7.934 34 10.5 34H13a1 1 0 0 1 1 1v4.5a.9.9 0 0 0 .063.344.473.473 0 0 0 .048.094l7.796-5.743A1 1 0 0 1 22.5 34h15c2.575 0 4.5-1.693 4.5-4.01V12.407C42 9.976 40.02 8 37.575 8h-27.15Zm3.626 31.973h.002-.002Z" class="primary"/>
  </g>
</svg>
