<svg xmlns="http://www.w3.org/2000/svg" width="48" height="48" fill="none" viewBox="0 0 48 48">
  <path fill="#5FBEAC" fill-rule="evenodd" d="M24.707 21.293a1 1 0 0 0-1.414 0l-6 6a1 1 0 0 0 1.414 1.414L23 24.414V41a1 1 0 1 0 2 0V24.414l4.293 4.293a1 1 0 0 0 1.414-1.414l-6-6Z" clip-rule="evenodd"/>
  <path fill="#29707A" fill-rule="evenodd" d="M14 18.44C14.056 12.633 18.629 8 24.2 8c4.477 0 8.302 2.985 9.66 7.163a7.044 7.044 0 0 0-2.893 1.302 1 1 0 1 0 1.209 1.594C32.968 17.458 34.03 17 35.542 17c1.578 0 3.188.82 4.428 2.201 1.236 1.375 2.03 3.23 2.03 5.148 0 2.588-.567 4.777-1.62 6.29C39.355 32.106 37.833 33 35.693 33a1 1 0 1 0 0 2c2.8 0 4.932-1.218 6.326-3.218 1.364-1.957 1.98-4.593 1.98-7.433 0-2.46-1.01-4.78-2.542-6.485-1.446-1.609-3.421-2.738-5.554-2.854C34.434 9.823 29.767 6 24.2 6c-6.615 0-11.956 5.391-12.192 12.081a5.914 5.914 0 0 0-2.847.421l-.003.001C6.008 19.81 4 22.96 4 26.282c0 4.707 3.621 8.708 8.315 8.708a1 1 0 1 0 0-2C8.839 32.99 6 30 6 26.282c0-2.541 1.545-4.944 3.922-5.93.795-.326 1.656-.414 2.872-.11l.053.012 1.055.203a1 1 0 1 0 .38-1.963L14 18.44Z" clip-rule="evenodd"/>
</svg>
