<svg xmlns="http://www.w3.org/2000/svg" width="48" height="48" fill="none" viewBox="0 0 48 48">
  <path fill="#5FBEAC" fill-rule="evenodd" d="M9 36a1 1 0 1 0 0 2h11a1 1 0 1 0 0-2H9Zm19 0a1 1 0 1 0 0 2h11a1 1 0 1 0 0-2H28Z" clip-rule="evenodd"/>
  <path fill="#29707A" fill-rule="evenodd" d="M24.829 5.943C19.396 5.943 15 10.142 15 15.5v.5c0 .063-.006.125-.017.185a1 1 0 0 1-1.294 1.172l-.684-.23c-1.26-.284-2.343-.243-3.099.053C7.513 18.114 6 20.377 6 22.717A6.298 6.298 0 0 0 12.307 29h22.435C39.02 29 42 25.58 42 20.89c0-1.786-.78-3.519-2.012-4.811C38.755 14.784 37.137 14 35.531 14c-1.47 0-3.113.72-3.952 1.315a1 1 0 0 1-1.158-1.63c.799-.568 2.122-1.217 3.561-1.517-1.391-3.673-4.96-6.225-9.153-6.225Zm11.22 6.076c-1.526-4.751-5.99-8.076-11.22-8.076-6.335 0-11.601 4.819-11.822 11.144-1.35-.245-2.698-.212-3.83.23C6.043 16.542 4 19.527 4 22.717 4 27.243 7.674 31 12.307 31H23v2.1c-2.28.465-4 2.484-4 4.9 0 2.758 2.242 5 5 5s5-2.242 5-5a5.006 5.006 0 0 0-4-4.9V31h9.742C40.35 31 44 26.445 44 20.89c0-2.364-1.025-4.576-2.564-6.19-1.418-1.49-3.33-2.53-5.388-2.681ZM24 35c-1.654 0-3 1.346-3 3s1.346 3 3 3 3-1.346 3-3-1.346-3-3-3Z" clip-rule="evenodd"/>
</svg>
