<svg xmlns="http://www.w3.org/2000/svg" width="48" height="48" fill="none" viewBox="0 0 48 48">
  <path fill="#5FBEAC" fill-rule="evenodd" d="M25 27.5a7.5 7.5 0 1 1-15 0 7.5 7.5 0 0 1 15 0Zm-2.022.5A5.5 5.5 0 1 1 16 22.207V26a2 2 0 0 0 2 2h4.978Zm-.185-2H18v-3.978A5.504 5.504 0 0 1 22.793 26Z" clip-rule="evenodd"/>
  <path fill="#5FBEAC" d="M30 25a1 1 0 1 0 0 2h7a1 1 0 1 0 0-2h-7Zm0 5a1 1 0 1 0 0 2h7a1 1 0 1 0 0-2h-7Z"/>
  <path fill="#29707A" d="M11.13 9h.74c.624 0 1.13.464 1.13 1.037v.926c0 .573-.506 1.037-1.13 1.037h-.74c-.624 0-1.13-.464-1.13-1.037v-.926C10 9.464 10.506 9 11.13 9Zm5.74 0h-.74c-.624 0-1.13.464-1.13 1.037v.926c0 .573.506 1.037 1.13 1.037h.74c.624 0 1.13-.464 1.13-1.037v-.926C18 9.464 17.494 9 16.87 9Zm4.26 0h.74c.624 0 1.13.464 1.13 1.037v.926c0 .573-.506 1.037-1.13 1.037h-.74c-.624 0-1.13-.464-1.13-1.037v-.926C20 9.464 20.506 9 21.13 9Z"/>
  <path fill="#29707A" fill-rule="evenodd" d="M4 10.485C4 7.581 6.099 5 8.952 5h30.096C41.901 5 44 7.581 44 10.485v29.208C44 42.538 41.866 45 39.049 45H8.951C6.134 45 4 42.538 4 39.693V10.485Zm38 0V14H6v-3.515C6 8.44 7.435 7 8.952 7h30.096C40.565 7 42 8.439 42 10.485ZM6 16h36v23.693C42 41.6 40.601 43 39.049 43H8.951C7.399 43 6 41.601 6 39.693V16Z" clip-rule="evenodd"/>
</svg>
