<svg xmlns="http://www.w3.org/2000/svg" width="48" height="48" fill="none" viewBox="0 0 48 48">
  <path fill="#5FBEAC" d="M39.808 5.41a1 1 0 1 0-1.616 1.18C40.568 9.847 42 13.99 42 18.5c0 4.512-1.433 8.663-3.807 11.91a1 1 0 1 0 1.614 1.18C42.433 28 44 23.435 44 18.5c0-4.936-1.568-9.49-4.192-13.09Zm-30 1.18a1 1 0 1 0-1.616-1.18C5.567 9.01 4 13.572 4 18.506c0 4.934 1.568 9.486 4.192 13.084a1 1 0 0 0 1.616-1.178C7.432 27.154 6 23.014 6 18.505c0-4.51 1.433-8.659 3.808-11.916Zm4.71 3.555a1 1 0 0 1 .337 1.373C13.7 13.428 13 15.847 13 18.5c0 2.653.699 5.071 1.855 6.982a1 1 0 0 1-1.71 1.036C11.789 24.278 11 21.499 11 18.5c0-2.999.79-5.778 2.145-8.018a1 1 0 0 1 1.373-.337Zm20.337.337a1 1 0 0 0-1.71 1.036C34.3 13.428 35 15.847 35 18.5c0 2.653-.699 5.071-1.855 6.982a1 1 0 0 0 1.71 1.036C36.212 24.278 37 21.499 37 18.5c0-2.999-.79-5.778-2.145-8.018Z"/>
  <path fill="#29707A" fill-rule="evenodd" d="M22.453 23.799a6 6 0 1 1 3.095 0l10.338 19.737a1 1 0 1 1-1.772.928l-3.399-6.49a1.01 1.01 0 0 1-.215.024H17.273l-3.387 6.466a1 1 0 0 1-1.772-.928l10.339-19.737ZM20 18a4 4 0 1 1 8 0 4 4 0 0 1-8 0Zm4 7.155 5.68 10.843H18.32L24 25.155Z" clip-rule="evenodd"/>
</svg>
