<svg xmlns="http://www.w3.org/2000/svg" width="48" height="48" fill="none" viewBox="0 0 48 48">
  <path fill="#29707A" fill-rule="evenodd" d="M24 4a4 4 0 0 0-1 7.874V18a1 1 0 1 0 2 0v-6.126A4.002 4.002 0 0 0 24 4Zm-2 4a2 2 0 1 1 4 0 2 2 0 0 1-4 0Zm1 28.126A4.002 4.002 0 0 0 24 44a4 4 0 0 0 1-7.874V30a1 1 0 1 0-2 0v6.126ZM22 40a2 2 0 1 1 4 0 2 2 0 0 1-4 0ZM4 24a4 4 0 0 1 7.876-.992c.04-.005.082-.008.124-.008h6a1 1 0 1 1 0 2h-6a1.02 1.02 0 0 1-.124-.008A4.002 4.002 0 0 1 4 24Zm4-2a2 2 0 1 0 0 4 2 2 0 0 0 0-4Zm32-2a4.002 4.002 0 0 0-3.876 3.008A1.017 1.017 0 0 0 36 23h-6a1 1 0 1 0 0 2h6c.042 0 .083-.003.124-.008A4.002 4.002 0 0 0 44 24a4 4 0 0 0-4-4Zm-2 4a2 2 0 1 1 4 0 2 2 0 0 1-4 0ZM8 12a4 4 0 1 1 7.47 1.99l4.918 4.984a1 1 0 1 1-1.424 1.405l-4.891-4.957A4 4 0 0 1 8 12Zm4-2a2 2 0 1 0 0 4 2 2 0 0 0 0-4Zm24-2a4 4 0 0 0-3.618 5.709l-5.094 5.165a1 1 0 1 0 1.424 1.404l4.958-5.026A4 4 0 1 0 36 8Zm-2 4a2 2 0 1 1 4 0 2 2 0 0 1-4 0ZM8 36a4 4 0 0 1 6.032-3.446l4.937-4.937a1 1 0 0 1 1.414 1.414l-4.937 4.937A4 4 0 1 1 8 36Zm4-2a2 2 0 1 0 0 4 2 2 0 0 0 0-4Zm24-2c-.742 0-1.437.202-2.032.554l-.004-.004-4.933-4.933a1 1 0 0 0-1.414 1.414l4.933 4.933.004.004A4 4 0 1 0 36 32Zm-2 4a2 2 0 1 1 4 0 2 2 0 0 1-4 0Z" clip-rule="evenodd"/>
  <path fill="#5FBEAC" fill-rule="evenodd" d="M24 19a5 5 0 1 0 0 10 5 5 0 0 0 0-10Zm-7 5a7 7 0 1 1 14 0 7 7 0 0 1-14 0Z" clip-rule="evenodd"/>
</svg>
