<svg xmlns="http://www.w3.org/2000/svg" width="48" height="48" fill="none" viewBox="0 0 48 48">
  <path fill="#5FBEAC" fill-rule="evenodd" d="M6.867 7C6.452 7 6 7.382 6 8v6c0 .618.452 1 .867 1h10.266c.415 0 .867-.382.867-1V8c0-.618-.452-1-.867-1H6.867ZM4 8c0-1.59 1.22-3 2.867-3h10.266C18.78 5 20 6.41 20 8v6c0 1.59-1.22 3-2.867 3H6.867C5.22 17 4 15.59 4 14V8Z" clip-rule="evenodd"/>
  <path fill="#29707A" fill-rule="evenodd" d="M42 26.044c0 .572-.431.956-.867.956H30.867c-.436 0-.867-.384-.867-.956V7.956c0-.573.431-.956.867-.956h10.266c.436 0 .867.383.867.956v18.088ZM41.133 29C42.76 29 44 27.632 44 26.044V7.956C44 6.368 42.76 5 41.133 5H30.867C29.24 5 28 6.368 28 7.956v18.088C28 27.632 29.24 29 30.867 29h10.266ZM6.867 23c-.436 0-.867.384-.867.956v18.088c0 .573.431.956.867.956h10.266c.436 0 .867-.383.867-.956V23.956c0-.572-.431-.956-.867-.956H6.867ZM4 23.956C4 22.368 5.24 21 6.867 21h10.266C18.76 21 20 22.368 20 23.956v18.088C20 43.632 18.76 45 17.133 45H6.867C5.24 45 4 43.632 4 42.044V23.956ZM41.124 43c.377 0 .83-.362.83-.998V36.01c0-.636-.453-.997-.83-.997H31.063c-.377 0-.83.361-.83.997v5.992c0 .636.453.998.83.998h10.061Zm2.83-.998c0 1.571-1.186 2.998-2.83 2.998H31.063c-1.644 0-2.83-1.427-2.83-2.998V36.01c0-1.57 1.186-2.997 2.83-2.997h10.061c1.644 0 2.83 1.426 2.83 2.997v5.992Z" clip-rule="evenodd"/>
</svg>
