<svg xmlns="http://www.w3.org/2000/svg" width="48" height="48" fill="none" viewBox="0 0 48 48">
  <g fill-rule="evenodd" class="database" clip-rule="evenodd">
    <path fill="#29707A" d="M15.335 6C13.505 6 12 7.506 12 9.388V17h24V9.388C36 7.506 34.496 6 32.665 6h-17.33ZM12 29V19h24v10H12Zm0 2v7.612C12 40.493 13.504 42 15.335 42h17.33C34.495 42 36 40.493 36 38.612V31H12ZM10 9.388C10 6.426 12.376 4 15.335 4h17.33C35.624 4 38 6.426 38 9.388v29.224C38 41.574 35.624 44 32.665 44h-17.33C12.376 44 10 41.574 10 38.612V9.388Z" class="primary"/>
    <path fill="#5FBEAC" d="M18 12.5a1.501 1.501 0 0 0-3 0 1.501 1.501 0 0 0 3 0ZM17.915 24a1.501 1.501 0 1 0-1.5 1.5c.826 0 1.5-.672 1.5-1.5ZM16.5 34a1.501 1.501 0 0 1 0 3 1.501 1.501 0 0 1 0-3ZM22 11.5a1 1 0 1 0 0 2h8a1 1 0 1 0 0-2h-8ZM21 24a1 1 0 0 1 1-1h8a1 1 0 1 1 0 2h-8a1 1 0 0 1-1-1Zm1 10.5a1 1 0 1 0 0 2h8a1 1 0 1 0 0-2h-8Z" class="secondary"/>
  </g>
</svg>
