<svg xmlns="http://www.w3.org/2000/svg" width="48" height="48" fill="none" viewBox="0 0 48 48">
  <g fill-rule="evenodd" class="document-add" clip-rule="evenodd">
    <path fill="#5FBEAC" d="M34 24c-5.532 0-10 4.484-10 10s4.468 10 10 10c5.517 0 10-4.483 10-10 0-5.516-4.468-10-10-10Zm-8 10a8 8 0 0 1 8-8 7.999 7.999 0 1 1 0 16 8 8 0 0 1-8-8Zm8-6a1 1 0 0 1 1 1v4h4a1 1 0 1 1 0 2h-4v4a1 1 0 1 1-2 0v-4h-4a1 1 0 1 1 0-2h4v-4a1 1 0 0 1 1-1Z" class="secondary"/>
    <path fill="#29707A" d="M10.136 4C7.33 4 5 6.208 5 9.002v29.996C5 41.792 7.33 44 10.136 44h9.15a1 1 0 1 0 0-2h-9.15C8.372 42 7 40.626 7 38.998V9.002C7 7.374 8.372 6 10.136 6H26v7.803C26 15.474 27.257 17 28.997 17H36v2.615a1 1 0 1 0 2 0V15l-.293-.708-10-9.998A.997.997 0 0 0 27 4H10.136ZM28 7.414v6.389c0 .75.537 1.197.997 1.197h6.59L28 7.414Z" class="primary"/>
  </g>
</svg>
