<svg width="48" height="48" viewBox="0 0 48 48" fill="none" xmlns="http://www.w3.org/2000/svg">
<path fill-rule="evenodd" clip-rule="evenodd" d="M25.0251 19.0811C20.9098 18.4079 17.4097 21.9067 18.0839 26.0212L18.084 26.0217C18.4875 28.4936 20.499 30.5049 22.9748 30.9135C27.09 31.5866 30.59 28.0878 29.9159 23.9734L29.9158 23.9729C29.5122 21.501 27.5008 19.4897 25.0251 19.0811ZM16.1101 26.344C15.215 20.8788 19.8851 16.2131 25.3488 17.1074L25.35 17.1076C28.67 17.6553 31.3474 20.3288 31.8896 23.6506C32.7848 29.1158 28.1147 33.7815 22.651 32.8871L22.6498 32.8869C19.3299 32.3393 16.6527 29.6661 16.1102 26.3445" fill="#5FBEAC"/>
<path d="M30.4095 44.9973C30.219 44.9973 30.0286 44.9687 29.8381 44.9211C29.2381 44.7592 28.7429 44.3687 28.4476 43.8163L26.7619 40.7496C26.6857 40.6163 26.5619 40.5401 26.4571 40.5592C24.8571 40.8354 23.1524 40.8354 21.5619 40.5592C21.4476 40.5496 21.3238 40.6163 21.2476 40.7496L19.5619 43.8163C19.2571 44.3687 18.7619 44.7592 18.1714 44.9211C17.5905 45.0735 16.981 44.9877 16.4571 44.6735L11.5238 41.683C10.4762 41.0449 10.1048 39.6354 10.7048 38.5401L12.3905 35.4639C12.4762 35.302 12.4667 35.102 12.3714 34.9782C11.3429 33.6544 10.5143 32.1592 9.93333 30.5306C9.88571 30.3973 9.7619 30.302 9.62857 30.302H6.26666C5.02857 30.302 4.00952 29.2639 4.00952 27.9782V21.9973C4.00952 20.7211 5.01905 19.6735 6.26666 19.6735H9.62857C9.7619 19.6735 9.88571 19.5877 9.93333 19.4449C10.5238 17.8163 11.3429 16.3211 12.3714 14.9973C12.4667 14.8735 12.4762 14.6735 12.3905 14.5116L10.7048 11.4354C10.1048 10.3401 10.4762 8.9306 11.5238 8.29251L16.4476 5.32108C16.9714 5.00679 17.5714 4.92108 18.1619 5.07346C18.7524 5.23536 19.2476 5.62584 19.5524 6.17822L21.2381 9.24489C21.3143 9.37822 21.4381 9.45441 21.5524 9.43536C23.1429 9.15917 24.8571 9.15917 26.4476 9.43536C26.5619 9.45441 26.6857 9.37822 26.7524 9.24489L28.4381 6.17822C28.7429 5.62584 29.2381 5.23536 29.8286 5.07346C30.4095 4.92108 31.019 5.00679 31.5429 5.32108L36.4762 8.31155C37.5238 8.94965 37.8952 10.3592 37.2952 11.4544L35.6095 14.5306C35.5238 14.6925 35.5333 14.8925 35.6286 15.0163C36.6571 16.3401 37.4857 17.8354 38.0667 19.4639C38.1143 19.5973 38.2381 19.6925 38.3714 19.6925H41.7333C42.9714 19.6925 43.9905 20.7306 43.9905 22.0163V27.9973C43.9905 29.2735 42.981 30.3211 41.7333 30.3211H38.3714C38.2381 30.3211 38.1143 30.4068 38.0667 30.5496C37.4762 32.1782 36.6571 33.6735 35.6286 34.9973C35.5333 35.1211 35.5238 35.3211 35.6095 35.483L37.2952 38.5592C37.8952 39.6544 37.5238 41.0639 36.4762 41.702L31.5429 44.6925C31.1905 44.902 30.8 45.0163 30.4 45.0163L30.4095 44.9973ZM26.4857 38.6544C27.2762 38.6544 28.0286 39.102 28.4286 39.8354L30.1143 42.902C30.1619 42.9973 30.2381 43.0544 30.3333 43.083C30.3905 43.0925 30.4762 43.102 30.5619 43.0449L35.4952 40.0544C35.6857 39.9401 35.7429 39.6639 35.6286 39.4544L33.9429 36.3782C33.4857 35.5497 33.5619 34.5401 34.1333 33.8068C35.0381 32.6449 35.7619 31.3211 36.2857 29.883C36.6095 28.9973 37.4476 28.3973 38.381 28.3973H41.7429C41.9333 28.3973 42.0952 28.2068 42.0952 27.9782V21.9973C42.0952 21.7687 41.9429 21.5782 41.7429 21.5782H38.381C37.4476 21.5782 36.6 20.9782 36.2857 20.0925C35.7619 18.6544 35.0381 17.3306 34.1333 16.1782C33.5619 15.4449 33.4857 14.4354 33.9429 13.6068L35.6286 10.5306C35.7429 10.3211 35.6762 10.0449 35.4952 9.9306L30.5619 6.94012C30.4667 6.88298 30.3905 6.89251 30.3333 6.90203C30.2476 6.9306 30.1714 6.98774 30.1143 7.08298L28.4286 10.1496C27.9619 10.9973 27.0381 11.4544 26.1238 11.302C24.7429 11.0639 23.2476 11.0639 21.8667 11.302C20.9524 11.4544 20.0286 10.9973 19.5619 10.1496L17.8762 7.08298C17.8286 6.98774 17.7524 6.9306 17.6571 6.90203C17.6 6.89251 17.5143 6.88298 17.4286 6.94012L12.4952 9.9306C12.3048 10.0449 12.2476 10.3211 12.3619 10.5306L14.0476 13.6068C14.5048 14.4354 14.4286 15.4449 13.8571 16.1782C12.9524 17.3401 12.2286 18.6544 11.7048 20.102C11.381 20.9877 10.5429 21.5877 9.60952 21.5877H6.24762C6.05714 21.5877 5.89524 21.7782 5.89524 22.0068V27.9877C5.89524 28.2163 6.04762 28.4068 6.24762 28.4068H9.60952C10.5429 28.4068 11.3905 29.0068 11.7048 29.8925C12.219 31.3306 12.9429 32.6449 13.8571 33.8068C14.4286 34.5401 14.5048 35.5497 14.0476 36.3782L12.3619 39.4544C12.2476 39.6639 12.3143 39.9401 12.4952 40.0544L17.4286 43.0449C17.5238 43.102 17.6 43.0925 17.6571 43.083C17.7429 43.0639 17.819 42.9973 17.8762 42.902L19.5619 39.8354C20.0286 38.9877 20.9524 38.5306 21.8667 38.683C23.2476 38.9211 24.7333 38.9211 26.1238 38.683C26.2381 38.6639 26.3619 38.6544 26.4762 38.6544H26.4857Z" fill="#29707A"/>
</svg>
