<svg width="48" height="48" viewBox="0 0 48 48" fill="none" xmlns="http://www.w3.org/2000/svg">
<path fill-rule="evenodd" clip-rule="evenodd" d="M5.13274 13.502C5.40778 13.0231 6.01899 12.8578 6.49792 13.1328L23.2918 22.777C23.306 22.7851 23.32 22.7937 23.3338 22.8025C23.7441 23.0658 24.4036 23.0658 24.8139 22.8025C24.8267 22.7943 24.8396 22.7865 24.8527 22.7789L41.4986 13.1347C41.9765 12.8579 42.5883 13.0208 42.8652 13.4987C43.1421 13.9766 42.9791 14.5884 42.5012 14.8653L25.8729 24.4992C24.8135 25.1665 23.3365 25.1669 22.2766 24.5003L5.50193 14.8672C5.023 14.5921 4.85771 13.9809 5.13274 13.502Z" fill="#5FBEAC"/>
<path fill-rule="evenodd" clip-rule="evenodd" d="M6.387 14C6.15777 14 6 14.1786 6 14.3645V37.6355C6 37.8214 6.15777 38 6.387 38H41.613C41.8422 38 42 37.8214 42 37.6355V14.3645C42 14.1786 41.8422 14 41.613 14H6.387ZM4 14.3645C4 13.0433 5.08419 12 6.387 12H41.613C42.9158 12 44 13.0433 44 14.3645V37.6355C44 38.9567 42.9158 40 41.613 40H6.387C5.08419 40 4 38.9568 4 37.6355V14.3645Z" fill="#29707A"/>
</svg>
