<svg width="48" height="48" viewBox="0 0 48 48" fill="none" xmlns="http://www.w3.org/2000/svg">
<path fill-rule="evenodd" clip-rule="evenodd" d="M24.0001 5.95239C17.1905 5.95239 11.6667 11.4761 11.6667 18.2857C11.6667 23.6709 14.8368 29.6419 18.1526 34.3789C19.7935 36.723 21.4363 38.7181 22.6693 40.1272C23.2012 40.7351 23.6559 41.2329 24.0001 41.6015C24.3442 41.2329 24.7989 40.7351 25.3308 40.1272C26.5638 38.7181 28.2067 36.723 29.8475 34.3789C33.1634 29.6419 36.3334 23.6709 36.3334 18.2857C36.3334 11.4761 30.8097 5.95239 24.0001 5.95239ZM24.0001 43.0476C23.293 43.7547 23.2928 43.7545 23.2925 43.7543L23.2894 43.7511L23.2809 43.7426L23.2499 43.7113C23.223 43.684 23.1839 43.6442 23.1333 43.5922C23.0323 43.4882 22.8854 43.3356 22.6994 43.1382C22.3273 42.7434 21.7982 42.1688 21.1642 41.4442C19.8972 39.9962 18.2067 37.9437 16.5142 35.5259C13.1634 30.739 9.66675 24.3292 9.66675 18.2857C9.66675 10.3715 16.0859 3.95239 24.0001 3.95239C31.9143 3.95239 38.3334 10.3715 38.3334 18.2857C38.3334 24.3292 34.8368 30.739 31.486 35.5259C29.7935 37.9437 28.103 39.9962 26.836 41.4442C26.202 42.1688 25.6728 42.7434 25.3008 43.1382C25.1147 43.3356 24.9679 43.4882 24.8668 43.5922C24.8163 43.6442 24.7771 43.684 24.7503 43.7113L24.7192 43.7426L24.7108 43.7511L24.7076 43.7543C24.7074 43.7545 24.7072 43.7547 24.0001 43.0476ZM24.0001 43.0476L24.7076 43.7543C24.3171 44.1448 23.6831 44.1448 23.2925 43.7543L24.0001 43.0476Z" fill="#29707A"/>
<path fill-rule="evenodd" clip-rule="evenodd" d="M24 12.0326C20.6863 12.0326 18 14.7189 18 18.0326C18 21.3463 20.6863 24.0326 24 24.0326C27.3137 24.0326 30 21.3463 30 18.0326C30 14.7189 27.3137 12.0326 24 12.0326ZM16 18.0326C16 13.6143 19.5817 10.0326 24 10.0326C28.4183 10.0326 32 13.6143 32 18.0326C32 22.4509 28.4183 26.0326 24 26.0326C19.5817 26.0326 16 22.4509 16 18.0326Z" fill="#5FBEAC"/>
</svg>
