<svg width="48" height="48" viewBox="0 0 48 48" fill="none" xmlns="http://www.w3.org/2000/svg">
<path fill-rule="evenodd" clip-rule="evenodd" d="M6 24C6 14.0589 14.0589 6 24 6C30.1428 6 35.5678 9.07645 38.8171 13.7767L36.0996 13.505C35.55 13.45 35.06 13.851 35.005 14.4005C34.9501 14.9501 35.351 15.4401 35.9006 15.4951L40.9006 15.9951C41.4501 16.05 41.9402 15.6491 41.9951 15.0995L42.4951 10.0995C42.5501 9.54997 42.1491 9.05993 41.5996 9.00498C41.05 8.95002 40.56 9.35097 40.505 9.90051L40.2599 12.3521C36.6318 7.29633 30.7012 4 24 4C12.9543 4 4 12.9543 4 24C4 35.0457 12.9543 44 24 44C35.0457 44 44 35.0457 44 24C44 23.4477 43.5523 23 43 23C42.4477 23 42 23.4477 42 24C42 33.9411 33.9411 42 24 42C14.0589 42 6 33.9411 6 24Z" fill="#29707A"/>
<path fill-rule="evenodd" clip-rule="evenodd" d="M24 10C24.5523 10 25 10.4477 25 11V14.4192C27.7366 14.7011 29.8762 17.0184 29.8762 19.8286C29.8762 20.3809 29.4285 20.8286 28.8762 20.8286C28.3239 20.8286 27.8762 20.3809 27.8762 19.8286C27.8762 17.9332 26.3334 16.3905 24.4381 16.3905C22.5428 16.3905 21 17.9332 21 19.8286C21 21.7239 22.5428 23.2667 24.4381 23.2667C27.438 23.2667 29.8762 25.7049 29.8762 28.7048C29.8762 31.515 27.7366 33.8322 25 34.1141V36.9599C25 37.5122 24.5523 37.9599 24 37.9599C23.4477 37.9599 23 37.5122 23 36.9599V33.9501C20.6963 33.3184 19 31.207 19 28.7048C19 28.1525 19.4477 27.7048 20 27.7048C20.5523 27.7048 21 28.1525 21 28.7048C21 30.6001 22.5428 32.1429 24.4381 32.1429C26.3334 32.1429 27.8762 30.6001 27.8762 28.7048C27.8762 26.8094 26.3334 25.2667 24.4381 25.2667C21.4382 25.2667 19 22.8285 19 19.8286C19 17.3263 20.6963 15.2149 23 14.5832V11C23 10.4477 23.4477 10 24 10Z" fill="#5FBEAC"/>
</svg>
