<svg width="48" height="48" viewBox="0 0 48 48" fill="none" xmlns="http://www.w3.org/2000/svg">
<path fill-rule="evenodd" clip-rule="evenodd" d="M29.4211 14C29.1885 14 29 14.1885 29 14.4211V19.5789C29 19.8115 29.1885 20 29.4211 20H34.5789C34.8115 20 35 19.8115 35 19.5789V14.4211C35 14.1885 34.8115 14 34.5789 14H29.4211ZM27 14.4211C27 13.084 28.084 12 29.4211 12H34.5789C35.916 12 37 13.084 37 14.4211V19.5789C37 20.916 35.916 22 34.5789 22H29.4211C28.084 22 27 20.916 27 19.5789V14.4211Z" fill="#5FBEAC"/>
<path fill-rule="evenodd" clip-rule="evenodd" d="M29.4211 28C29.1885 28 29 28.1885 29 28.4211V33.5789C29 33.8115 29.1885 34 29.4211 34H34.5789C34.8115 34 35 33.8115 35 33.5789V28.4211C35 28.1885 34.8115 28 34.5789 28H29.4211ZM27 28.4211C27 27.084 28.084 26 29.4211 26H34.5789C35.916 26 37 27.084 37 28.4211V33.5789C37 34.916 35.916 36 34.5789 36H29.4211C28.084 36 27 34.916 27 33.5789V28.4211Z" fill="#5FBEAC"/>
<path fill-rule="evenodd" clip-rule="evenodd" d="M17.0191 33.0457C17.0149 32.4935 17.4604 32.0423 18.0142 32.0381L23.0086 31.9999C23.5624 31.9957 24.0147 32.44 24.0189 32.9922C24.0231 33.5445 23.5776 33.9956 23.0239 33.9999L18.0294 34.0381C17.4757 34.0423 17.0233 33.598 17.0191 33.0457Z" fill="#29707A"/>
<path fill-rule="evenodd" clip-rule="evenodd" d="M24 28.9934C24.001 29.543 23.5542 29.9895 23.0019 29.9905L18.0019 30C17.4496 30.001 17.0011 29.5563 17 29.0066C16.999 28.457 17.4458 28.0105 17.9981 28.0095L22.9981 28C23.5504 27.999 23.9989 28.4437 24 28.9934Z" fill="#29707A"/>
<path fill-rule="evenodd" clip-rule="evenodd" d="M17.0078 19.0115C17.0067 18.4592 17.4548 18.0106 18.0086 18.0096L23.0031 18C23.5569 17.999 24.0067 18.4458 24.0078 18.9981C24.0088 19.5504 23.5607 19.9989 23.0069 20L18.0124 20.0096C17.4586 20.0106 17.0088 19.5638 17.0078 19.0115Z" fill="#29707A"/>
<path fill-rule="evenodd" clip-rule="evenodd" d="M17 15C17 14.4477 17.4477 14 18 14H23C23.5523 14 24 14.4477 24 15C24 15.5523 23.5523 16 23 16H18C17.4477 16 17 15.5523 17 15Z" fill="#29707A"/>
<path fill-rule="evenodd" clip-rule="evenodd" d="M10 8.648C10 7.21447 11.21 6 12.7214 6H37.2786C38.79 6 40 7.21447 40 8.648V39.352C40 40.7855 38.79 42 37.2786 42H12.7214C11.21 42 10 40.7855 10 39.352V37C10 36.4477 9.55228 36 9 36C8.44772 36 8 36.4477 8 37V39.352C8 41.9275 10.1431 44 12.7214 44H37.2786C39.8569 44 42 41.9275 42 39.352V8.648C42 6.07253 39.8569 4 37.2786 4H12.7214C10.1431 4 8 6.07253 8 8.648V13H6C5.44772 13 5 13.4477 5 14C5 14.5523 5.44772 15 6 15H12.8684C13.4207 15 13.8684 14.5523 13.8684 14C13.8684 13.4477 13.4207 13 12.8684 13H10V8.648ZM6 23C5.44772 23 5 23.4477 5 24C5 24.5523 5.44772 25 6 25H13C13.5523 25 14 24.5523 14 24C14 23.4477 13.5523 23 13 23H10.0122V17.4476C10.0122 16.8953 9.5645 16.4476 9.01221 16.4476C8.45993 16.4476 8.01221 16.8953 8.01221 17.4476V23H6ZM6 33C5.44772 33 5 33.4477 5 34C5 34.5523 5.44772 35 6 35H13C13.5523 35 14 34.5523 14 34C14 33.4477 13.5523 33 13 33H10.0122V27.1238C10.0122 26.5715 9.5645 26.1238 9.01221 26.1238C8.45993 26.1238 8.01221 26.5715 8.01221 27.1238V33H6Z" fill="#29707A"/>
</svg>
