<svg width="48" height="48" viewBox="0 0 48 48" fill="none" xmlns="http://www.w3.org/2000/svg">
<path fill-rule="evenodd" clip-rule="evenodd" d="M26.2436 11.6974C28.0683 9.62273 31.2288 9.42333 33.3024 11.2459C35.3804 13.0622 35.5762 16.2239 33.7551 18.2958C31.9674 20.3409 28.8698 20.5762 26.794 18.8347C26.7584 18.8106 26.7243 18.7841 26.6918 18.7554C24.6325 16.9333 24.4173 13.7739 26.2436 11.6974ZM31.9828 12.7488C30.7371 11.6532 28.8397 11.7741 27.7454 13.0182C26.6732 14.2373 26.7728 16.0884 27.9476 17.1941C27.9742 17.2132 28 17.2337 28.0249 17.2556C29.2684 18.3493 31.1642 18.2218 32.25 16.9787L32.2522 16.9761C33.349 15.7292 33.2249 13.8338 31.9853 12.751L31.9828 12.7488Z" fill="#5FBEAC"/>
<path fill-rule="evenodd" clip-rule="evenodd" d="M36.0171 8.91212C31.1445 4.64744 23.7333 5.12275 19.4671 9.97052L19.4669 9.97064C16.4398 13.4093 15.8013 18.1074 17.4077 22.0742C17.5498 22.4252 17.4815 22.8263 17.2313 23.1105L6.00049 35.8631L6.00821 42H12.6614L12.9542 37.9494C12.9895 37.4618 13.3721 37.0712 13.8589 37.0258L17.3336 36.7022L17.3185 33.1043C17.3164 32.5947 17.6978 32.165 18.204 32.1066L22.2742 31.6376L24.3125 29.3229C24.5618 29.0398 24.9493 28.9211 25.3144 29.0159C29.4643 30.0937 34.0547 28.8569 37.082 25.4271C41.3577 20.5691 40.8773 13.1742 36.0171 8.91212ZM17.9658 8.64911C22.9635 2.97024 31.6363 2.41931 37.3351 7.40783L37.3358 7.40841C43.0279 12.4 43.5897 21.0611 38.5827 26.7492L38.5819 26.7501C35.1823 30.602 30.1032 32.087 25.4174 31.0944L23.5211 33.2479C23.3576 33.4336 23.131 33.5521 22.8851 33.5805L19.3223 33.991L19.3374 37.6088C19.3396 38.1267 18.9459 38.5606 18.4302 38.6087L14.8879 38.9386L14.5891 43.0721C14.5513 43.595 14.116 44 13.5917 44H5.00947C4.45768 44 4.01017 43.553 4.00947 43.0012L4 35.4766C3.99967 35.2111 4.10488 34.9564 4.29245 34.7686C4.30581 34.7552 4.31952 34.7423 4.33354 34.7297L15.3326 22.2403C13.7414 17.7276 14.5667 12.5103 17.9657 8.64923" fill="#29707A"/>
<path fill-rule="evenodd" clip-rule="evenodd" d="M18.6644 25.2526C19.0772 25.6195 19.1143 26.2516 18.7474 26.6644L10.7474 35.6644C10.3805 36.0772 9.74843 36.1143 9.33565 35.7474C8.92286 35.3805 8.88568 34.7484 9.2526 34.3356L17.2526 25.3356C17.6195 24.9229 18.2516 24.8857 18.6644 25.2526Z" fill="#29707A"/>
</svg>
