<svg width="48" height="48" viewBox="0 0 48 48" fill="none" xmlns="http://www.w3.org/2000/svg">
<path fill-rule="evenodd" clip-rule="evenodd" d="M24 13C21.2386 13 19 15.2386 19 18C19 20.7614 21.2386 23 24 23C26.7614 23 29 20.7614 29 18C29 15.2386 26.7614 13 24 13ZM17 18C17 14.134 20.134 11 24 11C27.866 11 31 14.134 31 18C31 21.866 27.866 25 24 25C20.134 25 17 21.866 17 18Z" fill="#29707A"/>
<path d="M4 24C4 35.0224 12.9676 44 24 44V43.99C25.6658 43.99 27.3217 43.7905 28.9277 43.3815C29.4564 43.2519 29.7855 42.7132 29.6459 42.1746C29.5162 41.6459 28.9776 41.3267 28.4389 41.4564C26.9925 41.8155 25.4963 42.005 24 42.005C19.8508 42.005 16.0241 40.5929 12.9754 38.2243C12.992 38.1516 13.0005 38.0765 13 38V32C12.9925 30.3294 14.5757 29 16.3397 29H29.015C29.5892 29 30 28.5302 30 28C30 27.7683 30 27.6437 29.9583 27.535C29.9045 27.395 29.7815 27.2815 29.5 27H16.3397C13.3986 27 10.9871 29.2884 11 32V36.4428C7.90154 33.2071 5.99501 28.8212 5.99501 24C5.99501 14.0748 14.0748 5.99501 24 5.99501C33.9252 5.99501 42.005 14.0748 42.005 24C42.005 25.5162 41.8155 27.0324 41.4364 28.4888C41.2968 29.0274 41.616 29.5661 42.1546 29.7057C42.6933 29.8454 43.2319 29.5162 43.3716 28.9875C43.7905 27.3716 44 25.6858 44 24C44 12.9676 35.0324 4 24 4C12.9676 4 4 12.9776 4 24Z" fill="#29707A"/>
<path d="M40.7311 32.6823C41.1079 32.2785 41.086 31.6457 40.6823 31.2689C40.2785 30.8921 39.6457 30.914 39.2689 31.3178L34.4011 36.5343L32.7311 34.7447C32.3543 34.3409 31.7215 34.319 31.3178 34.6958C30.914 35.0726 30.8921 35.7054 31.2689 36.1092L33.6699 38.6823C33.8591 38.8849 34.1239 39 34.4011 39C34.6783 39 34.9431 38.8849 35.1322 38.6823L40.7311 32.6823Z" fill="#5FBEAC"/>
<path fill-rule="evenodd" clip-rule="evenodd" d="M35.5 25C29.701 25 25 29.701 25 35.5C25 41.299 29.701 46 35.5 46C41.299 46 46 41.299 46 35.5C46 29.701 41.299 25 35.5 25ZM27 35.5C27 30.8056 30.8056 27 35.5 27C40.1944 27 44 30.8056 44 35.5C44 40.1944 40.1944 44 35.5 44C30.8056 44 27 40.1944 27 35.5Z" fill="#5FBEAC"/>
</svg>
