<svg width="48" height="48" viewBox="0 0 48 48" fill="none" xmlns="http://www.w3.org/2000/svg">
<path fill-rule="evenodd" clip-rule="evenodd" d="M28.7387 6.03251C28.3027 5.92763 27.905 6.04884 27.6443 6.30954L6.08164 27.8742C5.98887 27.9654 5.92139 28.2289 6.15439 28.4619L19.5404 41.8493C19.7651 42.0739 20.0346 42.0155 20.1343 41.9158L41.6907 20.3573C41.9514 20.0966 42.0726 19.6988 41.9677 19.2627C41.9643 19.2487 41.9612 19.2346 41.9585 19.2204L39.9587 8.96482C39.8433 8.51663 39.4838 8.15706 39.0357 8.04165L28.7811 6.04172C28.7669 6.03896 28.7528 6.03588 28.7387 6.03251ZM29.1823 4.08712C28.1241 3.84038 27.0123 4.11985 26.2335 4.89867L4.67984 26.4544C3.6935 27.4276 3.8377 28.9667 4.74365 29.8728L18.1297 43.2601C19.0451 44.1757 20.5807 44.291 21.545 43.3266L43.1014 21.7682C43.8802 20.9893 44.1596 19.8774 43.9129 18.8191L41.9121 8.55808C41.9093 8.54364 41.9061 8.52926 41.9027 8.51495C41.6154 7.32452 40.6758 6.38486 39.4855 6.09752C39.4712 6.09406 39.4568 6.09093 39.4424 6.08811L29.1823 4.08712Z" fill="#29707A"/>
<path fill-rule="evenodd" clip-rule="evenodd" d="M33 12C31.3431 12 30 13.3431 30 15C30 16.6569 31.3431 18 33 18C34.6569 18 36 16.6569 36 15C36 13.3431 34.6569 12 33 12ZM28 15C28 12.2386 30.2386 10 33 10C35.7614 10 38 12.2386 38 15C38 17.7614 35.7614 20 33 20C30.2386 20 28 17.7614 28 15Z" fill="#5FBEAC"/>
</svg>
