<svg width="48" height="48" viewBox="0 0 48 48" fill="none" xmlns="http://www.w3.org/2000/svg">
<path fill-rule="evenodd" clip-rule="evenodd" d="M24.1333 42C34.0744 42 42.1333 33.9411 42.1333 24C42.1333 14.0589 34.0744 6 24.1333 6C14.1922 6 6.1333 14.0589 6.1333 24C6.1333 33.9411 14.1922 42 24.1333 42ZM24.1333 44C35.179 44 44.1333 35.0457 44.1333 24C44.1333 12.9543 35.179 4 24.1333 4C13.0876 4 4.1333 12.9543 4.1333 24C4.1333 35.0457 13.0876 44 24.1333 44Z" fill="#29707A"/>
<path d="M24.3896 32H23.877C23.465 32 23.1333 32.31 23.1333 32.69V33.31C23.1333 33.69 23.465 34 23.877 34H24.3896C24.8016 34 25.1333 33.69 25.1333 33.31V32.69C25.1333 32.31 24.8016 32 24.3896 32Z" fill="black"/>
<path fill-rule="evenodd" clip-rule="evenodd" d="M23.877 32H24.3896C24.8016 32 25.1333 32.31 25.1333 32.69V33.31C25.1333 33.69 24.8016 34 24.3896 34H23.877C23.465 34 23.1333 33.69 23.1333 33.31V32.69C23.1333 32.31 23.465 32 23.877 32Z" fill="#5FBEAC"/>
<path fill-rule="evenodd" clip-rule="evenodd" d="M24.418 13.0098C22.1175 12.8476 20.1333 14.7614 20.1333 17.2211C20.1333 17.7734 19.6856 18.2211 19.1333 18.2211C18.581 18.2211 18.1333 17.7734 18.1333 17.2211C18.1333 13.7029 21.0026 10.7632 24.5599 11.0148L24.5615 11.0149C27.5405 11.2304 29.9189 13.7244 30.1178 16.7694C30.2819 19.148 29.128 21.2982 27.3208 22.4699L27.3202 22.4702C25.9613 23.3499 25.1267 24.8675 25.1267 26.5436V29C25.1267 29.5523 24.679 30 24.1267 30C23.5744 30 23.1267 29.5523 23.1267 29V26.5436C23.1267 24.1947 24.3005 22.0425 26.2334 20.7913C27.4381 20.01 28.2365 18.5506 28.1225 16.9055L28.1222 16.9012L28.1222 16.9012C27.9855 14.7979 26.3476 13.1498 24.418 13.0098Z" fill="#5FBEAC"/>
</svg>
