<svg width="48" height="48" viewBox="0 0 48 48" fill="none" xmlns="http://www.w3.org/2000/svg">
<path fill-rule="evenodd" clip-rule="evenodd" d="M17.3315 16.972C18.087 16.362 19.0816 16 20.0763 16H28.1906C30.1072 16 32.0123 17.3066 32.0002 19.503V23C32.0002 23.5523 31.5525 24 31.0002 24H17.0002C16.4479 24 16.0002 23.5523 16.0002 23V19.6343C15.9884 18.5095 16.5729 17.5845 17.3315 16.972ZM18.5879 18.5281C18.1861 18.8524 17.9953 19.2392 18.0001 19.6159L18.0003 19.6286L18.0002 22H30.0002V19.4936C30.0053 18.7016 29.3207 18 28.1906 18H20.0763C19.5472 18 18.9943 18.2 18.5879 18.5281Z" fill="#29707A"/>
<path fill-rule="evenodd" clip-rule="evenodd" d="M11.9999 26C10.343 26 8.99988 27.3431 8.99988 29C8.99988 30.6569 10.343 32 11.9999 32C13.6567 32 14.9999 30.6569 14.9999 29C14.9999 27.3431 13.6567 26 11.9999 26ZM6.99988 29C6.99988 26.2386 9.23845 24 11.9999 24C14.7613 24 16.9999 26.2386 16.9999 29C16.9999 31.7614 14.7613 34 11.9999 34C9.23845 34 6.99988 31.7614 6.99988 29Z" fill="#29707A"/>
<path fill-rule="evenodd" clip-rule="evenodd" d="M35.9999 26C34.343 26 32.9999 27.3431 32.9999 29C32.9999 30.6569 34.343 32 35.9999 32C37.6567 32 38.9999 30.6569 38.9999 29C38.9999 27.3431 37.6567 26 35.9999 26ZM30.9999 29C30.9999 26.2386 33.2385 24 35.9999 24C38.7613 24 40.9999 26.2386 40.9999 29C40.9999 31.7614 38.7613 34 35.9999 34C33.2385 34 30.9999 31.7614 30.9999 29Z" fill="#29707A"/>
<path fill-rule="evenodd" clip-rule="evenodd" d="M5.33148 36.9719C6.08698 36.3619 7.08158 36 8.07632 36H16.1906C18.1072 36 20.0123 37.3066 20.0002 39.503V43C20.0002 43.5523 19.5525 44 19.0002 44H5.00018C4.44789 44 4.00018 43.5523 4.00018 43V39.6343C3.98837 38.5094 4.57288 37.5844 5.33148 36.9719ZM6.58788 38.528C6.18615 38.8524 5.99533 39.2391 6.0001 39.6159L6.00026 39.6286L6.00018 42H18.0002V39.4936C18.0053 38.7016 17.3207 38 16.1906 38H8.07632C7.54725 38 6.99425 38.1999 6.58788 38.528Z" fill="#29707A"/>
<path fill-rule="evenodd" clip-rule="evenodd" d="M29.3315 36.9719C30.087 36.3619 31.0816 36 32.0763 36H40.1906C42.1072 36 44.0123 37.3066 44.0002 39.503V43C44.0002 43.5523 43.5525 44 43.0002 44H29.0002C28.4479 44 28.0002 43.5523 28.0002 43V39.6343C27.9884 38.5094 28.5729 37.5844 29.3315 36.9719ZM30.5879 38.528C30.1861 38.8524 29.9953 39.2391 30.0001 39.6159L30.0003 39.6286L30.0002 42H42.0002V39.4936C42.0053 38.7016 41.3207 38 40.1906 38H32.0763C31.5472 38 30.9943 38.1999 30.5879 38.528Z" fill="#29707A"/>
<path fill-rule="evenodd" clip-rule="evenodd" d="M24.0001 6C22.3433 6 21.0001 7.34315 21.0001 9C21.0001 10.6569 22.3433 12 24.0001 12C25.657 12 27.0001 10.6569 27.0001 9C27.0001 7.34315 25.657 6 24.0001 6ZM19.0001 9C19.0001 6.23858 21.2387 4 24.0001 4C26.7615 4 29.0001 6.23858 29.0001 9C29.0001 11.7614 26.7615 14 24.0001 14C21.2387 14 19.0001 11.7614 19.0001 9Z" fill="#29707A"/>
<path fill-rule="evenodd" clip-rule="evenodd" d="M25 27C25 26.4477 24.5523 26 24 26C23.4477 26 23 26.4477 23 27V30.8589L18.6626 32.5646C18.1486 32.7667 17.8958 33.3472 18.098 33.8612C18.3001 34.3752 18.8806 34.628 19.3946 34.4259L24.1143 32.5698L28.834 34.4259C29.348 34.628 29.9285 34.3752 30.1306 33.8612C30.3328 33.3472 30.08 32.7667 29.566 32.5646L25 30.769V27Z" fill="#5FBEAC"/>
</svg>
