<svg width="48" height="48" viewBox="0 0 48 48" fill="none" xmlns="http://www.w3.org/2000/svg">
<path d="M10 29C10 28.4477 9.55228 28 9 28C8.44772 28 8 28.4477 8 29V37.7981C8 39.5648 9.43116 41 11.1985 41H19.5836L18.2923 42.2935C17.9021 42.6843 17.9026 43.3175 18.2935 43.7077C18.6843 44.0979 19.3175 44.0974 19.7077 43.7065L22.7077 40.7015C22.8951 40.5139 23.0002 40.2594 23 39.9942C22.9998 39.729 22.8942 39.4747 22.7065 39.2873L19.7065 36.2923C19.3157 35.9021 18.6825 35.9026 18.2923 36.2935C17.9021 36.6843 17.9026 37.3175 18.2935 37.7077L19.5879 39H11.1985C10.5385 39 10 38.463 10 37.7981V29Z" fill="#5FBEAC"/>
<path d="M38 19C38 19.5523 38.4477 20 39 20C39.5523 20 40 19.5523 40 19V10.2019C40 8.43518 38.5688 7 36.8015 7H28.4164L29.7077 5.70652C30.0979 5.31567 30.0974 4.68251 29.7065 4.29231C29.3157 3.90211 28.6825 3.90263 28.2923 4.29348L25.2923 7.29846C25.1049 7.48615 24.9998 7.74059 25 8.00581C25.0002 8.27102 25.1058 8.52529 25.2935 8.71267L28.2935 11.7077C28.6843 12.0979 29.3175 12.0974 29.7077 11.7065C30.0979 11.3157 30.0974 10.6825 29.7065 10.2923L28.4121 9H36.8015C37.4615 9 38 9.53697 38 10.2019V19Z" fill="#5FBEAC"/>
<path fill-rule="evenodd" clip-rule="evenodd" d="M13.5 21C17.6421 21 21 17.6421 21 13.5C21 9.35786 17.6421 6 13.5 6C9.35786 6 6 9.35786 6 13.5C6 17.6421 9.35786 21 13.5 21ZM13.5 23C18.7467 23 23 18.7467 23 13.5C23 8.25329 18.7467 4 13.5 4C8.25329 4 4 8.25329 4 13.5C4 18.7467 8.25329 23 13.5 23Z" fill="#29707A"/>
<path fill-rule="evenodd" clip-rule="evenodd" d="M40 27H29C27.8954 27 27 27.8954 27 29V40C27 41.1046 27.8954 42 29 42H40C41.1046 42 42 41.1046 42 40V29C42 27.8954 41.1046 27 40 27ZM29 25C26.7909 25 25 26.7909 25 29V40C25 42.2091 26.7909 44 29 44H40C42.2091 44 44 42.2091 44 40V29C44 26.7909 42.2091 25 40 25H29Z" fill="#29707A"/>
</svg>
