<svg width="48" height="48" viewBox="0 0 48 48" fill="none" xmlns="http://www.w3.org/2000/svg">
<path fill-rule="evenodd" clip-rule="evenodd" d="M6.86667 7C6.45188 7 6 7.38161 6 8V14C6 14.6184 6.45188 15 6.86667 15H17.1333C17.5481 15 18 14.6184 18 14V8C18 7.38161 17.5481 7 17.1333 7H6.86667ZM4 8C4 6.40925 5.21959 5 6.86667 5H17.1333C18.7804 5 20 6.40925 20 8V14C20 15.5908 18.7804 17 17.1333 17H6.86667C5.21959 17 4 15.5908 4 14V8Z" fill="#5FBEAC"/>
<path fill-rule="evenodd" clip-rule="evenodd" d="M6.86667 23C6.43135 23 6 23.3835 6 23.9556V42.0444C6 42.6165 6.43135 43 6.86667 43H17.1333C17.5687 43 18 42.6165 18 42.0444V23.9556C18 23.3835 17.5687 23 17.1333 23H6.86667ZM4 23.9556C4 22.3676 5.24012 21 6.86667 21H17.1333C18.7599 21 20 22.3676 20 23.9556V42.0444C20 43.6324 18.7599 45 17.1333 45H6.86667C5.24012 45 4 43.6324 4 42.0444V23.9556Z" fill="#29707A"/>
<path fill-rule="evenodd" clip-rule="evenodd" d="M41.124 43C41.5011 43 41.9534 42.638 41.9534 42.0025V36.01C41.9534 35.3745 41.5011 35.0125 41.124 35.0125H31.0627C30.6856 35.0125 30.2334 35.3745 30.2334 36.01V42.0025C30.2334 42.638 30.6856 43 31.0627 43H41.124ZM43.9534 42.0025C43.9534 43.5734 42.7676 45 41.124 45H31.0627C29.4191 45 28.2334 43.5734 28.2334 42.0025V36.01C28.2334 34.4391 29.4191 33.0125 31.0627 33.0125H41.124C42.7676 33.0125 43.9534 34.4391 43.9534 36.01V42.0025Z" fill="#29707A"/>
<path fill-rule="evenodd" clip-rule="evenodd" d="M41.1333 27C41.5687 27 42 26.6165 42 26.0444V7.95555C42 7.38347 41.5687 7 41.1333 7H30.8667C30.4313 7 30 7.38347 30 7.95555V26.0444C30 26.6165 30.4313 27 30.8667 27H41.1333ZM44 26.0444C44 27.6324 42.7599 29 41.1333 29H30.8667C29.2401 29 28 27.6324 28 26.0444L28 7.95555C28 6.3676 29.2401 5 30.8667 5H41.1333C42.7599 5 44 6.3676 44 7.95555V26.0444Z" fill="#29707A"/>
</svg>
