<svg width="48" height="48" viewBox="0 0 48 48" fill="none" xmlns="http://www.w3.org/2000/svg">
<path fill-rule="evenodd" clip-rule="evenodd" d="M25.0713 4.26536C31.7599 7.66138 37.8925 9.5301 40.2352 10.176L40.2436 10.1783L40.2436 10.1783C41.2033 10.452 42 11.274 42 12.3646V18C42 18.5523 41.5523 19 41 19C40.4477 19 40 18.5523 40 18V12.3646C40 12.3393 39.9924 12.3015 39.9515 12.2529C39.9091 12.2026 39.8284 12.1403 39.6985 12.1026C37.2766 11.4346 31.0072 9.52293 24.1604 6.04591L24.1481 6.03967L24.1482 6.03958C24.0437 5.98472 23.9221 5.99062 23.841 6.03438L23.8216 6.04455C16.998 9.53561 10.7128 11.4376 8.30375 12.1216L8.2907 12.1253L8.29067 12.1252C8.0373 12.1934 8 12.348 8 12.3842V28.7249C8 30.8082 9.52607 32.9651 11.9508 35.035C14.3288 37.065 17.3413 38.8165 19.8295 40.1132C20.3193 40.3684 20.5094 40.9724 20.2542 41.4622C19.9989 41.9519 19.395 42.142 18.9052 41.8868C16.3743 40.5678 13.2032 38.7338 10.6523 36.5561C8.14807 34.4184 6 31.7455 6 28.7249V12.3842C6 11.3063 6.78324 10.4631 7.76314 10.196C10.1187 9.527 16.2541 7.6686 22.9024 4.26828C23.5795 3.90783 24.3975 3.91429 25.0713 4.26536Z" fill="#29707A"/>
<path fill-rule="evenodd" clip-rule="evenodd" d="M35.146 20.5278C35.4051 20.044 36.0057 19.8595 36.4918 20.1143L41.7374 22.8643C42.2249 23.1199 42.4142 23.7212 42.1611 24.2099L41.0633 26.3293C41.6638 27.0749 42.1521 27.8917 42.5296 28.7515L45.0475 28.8711C45.5807 28.8965 46 29.3362 46 29.87V35.62C46 36.1592 45.5726 36.6013 45.0337 36.6194L42.7535 36.6963C42.5956 37.1169 42.4104 37.5394 42.1852 37.9611C42.1678 37.9937 42.1487 38.0251 42.1282 38.0551C41.9207 38.4295 41.6924 38.7989 41.4376 39.1532L42.7781 41.4691C42.9119 41.7003 42.9476 41.9755 42.8773 42.2333C42.807 42.4911 42.6364 42.71 42.4036 42.8412L37.0281 45.8712C36.7893 46.0058 36.5057 46.0364 36.2436 45.956C35.9816 45.8755 35.764 45.691 35.6418 45.4456L34.6055 43.3636C33.7324 43.5077 32.8331 43.541 31.9331 43.4478L30.854 45.4622C30.5951 45.9457 29.995 46.1303 29.509 45.8761L24.2134 43.1061C23.9764 42.9821 23.7989 42.7683 23.7207 42.5124C23.6424 42.2566 23.67 41.98 23.7971 41.7447L24.9286 39.6506C24.3445 38.9235 23.8668 38.1289 23.4944 37.2928L21.2134 37.3694C20.9477 37.3784 20.6894 37.2811 20.4956 37.0992C20.3017 36.9173 20.1883 36.6657 20.1803 36.4L20.0005 30.4C19.984 29.8494 20.4158 29.3891 20.9663 29.3706L23.2456 29.2938C23.4036 28.8705 23.5902 28.4423 23.8183 28.0225C24.0369 27.6203 24.2789 27.2227 24.5513 26.8424L23.355 24.893C23.0677 24.4248 23.2119 23.8123 23.6781 23.5216L28.7439 20.3616C28.9698 20.2206 29.2426 20.1756 29.5019 20.2365C29.7611 20.2974 29.9853 20.4592 30.1249 20.686L31.3257 22.638C32.2203 22.4841 33.1432 22.4466 34.0669 22.5423L35.146 20.5278ZM40.4672 36.9311C40.7181 36.4462 40.9125 35.9449 41.0791 35.4183C41.2069 35.0144 41.5754 34.7348 41.9988 34.7206L44 34.6531V30.8236L41.7952 30.7189C41.3943 30.6998 41.0437 30.443 40.9046 30.0666C40.5075 28.9917 39.9148 27.9967 39.1304 27.1493C38.8441 26.84 38.7825 26.3843 38.9763 26.0101L39.9275 24.1737L36.441 22.3459L35.5002 24.1022C35.2953 24.4846 34.8672 24.6914 34.4403 24.614C33.3184 24.4106 32.1718 24.4625 31.0808 24.731C30.6587 24.8349 30.2178 24.6542 29.9901 24.284L28.9486 22.591L25.5789 24.6931L26.6184 26.387C26.845 26.7563 26.808 27.2296 26.5267 27.5592C26.174 27.9724 25.862 28.4504 25.5756 28.9775C25.3065 29.4727 25.0993 30.0081 24.9209 30.5717C24.7931 30.9756 24.4247 31.2552 24.0012 31.2694L22.0294 31.3359L22.1493 35.3369L24.1238 35.2706C24.5545 35.2561 24.9461 35.5192 25.0954 35.9235C25.4925 36.9983 26.0853 37.9933 26.8696 38.8408C27.1603 39.1548 27.2189 39.6189 27.0155 39.9954L26.0385 41.8037L29.5586 43.645L30.4999 41.8878C30.7047 41.5054 31.1328 41.2987 31.5597 41.376C32.6816 41.5794 33.8282 41.5275 34.9192 41.259C35.3737 41.1471 35.8449 41.3654 36.0534 41.7844L36.9631 43.6119L40.5404 41.5955L39.3685 39.571C39.1562 39.2041 39.1982 38.7433 39.4733 38.4208C39.826 38.0076 40.138 37.5296 40.4244 37.0025C40.4378 36.978 40.4521 36.9541 40.4672 36.9311Z" fill="#29707A"/>
<path fill-rule="evenodd" clip-rule="evenodd" d="M33 30C31.3443 30 30 31.3443 30 33C30 34.6557 31.3443 36 33 36C34.6557 36 36 34.6557 36 33C36 31.3443 34.6557 30 33 30ZM28 33C28 30.2397 30.2397 28 33 28C35.7603 28 38 30.2397 38 33C38 35.7603 35.7603 38 33 38C30.2397 38 28 35.7603 28 33Z" fill="#5FBEAC"/>
</svg>
