<svg width="48" height="48" viewBox="0 0 48 48" fill="none" xmlns="http://www.w3.org/2000/svg">
<path d="M29.5 11C29.5 10.4477 29.0523 10 28.5 10C27.9477 10 27.5 10.4477 27.5 11V14H23C17.4919 14 13 18.3417 13 24C13 29.6577 17.4819 34 23 34H27.5V37C27.5 37.5523 27.9477 38 28.5 38C29.0523 38 29.5 37.5523 29.5 37V33C29.5 32.4477 29.0523 32 28.5 32H23C18.5687 32 15 28.5354 15 24C15 19.4653 18.5774 16 23 16H28.5C29.0523 16 29.5 15.5523 29.5 15V11Z" fill="#29707A"/>
<path d="M33 14C32.4477 14 32 14.4477 32 15V19H23C21.4006 19 20.1101 19.6345 19.2394 20.7039C18.389 21.7484 18 23.1289 18 24.5573C18 27.6257 20.3211 30 23.5 30H32V34C32 34.5523 32.4477 35 33 35H36C36.5523 35 37 34.5523 37 34C37 33.4477 36.5523 33 36 33H34V29C34 28.4477 33.5523 28 33 28H23.5C21.4247 28 20 26.5202 20 24.5573C20 23.47 20.2975 22.5719 20.7903 21.9667C21.2628 21.3864 21.9723 21 23 21H33C33.5523 21 34 20.5523 34 20V16H36C36.5523 16 37 15.5523 37 15C37 14.4477 36.5523 14 36 14H33Z" fill="#29707A"/>
<path d="M22.9987 23C22.4464 23.0007 21.9993 23.449 22 24.0013C22.0007 24.5536 22.449 25.0007 23.0013 25L37.6109 24.981C38.1632 24.9802 38.6103 24.5319 38.6096 23.9797C38.6089 23.4274 38.1606 22.9802 37.6083 22.981L22.9987 23Z" fill="#29707A"/>
<path fill-rule="evenodd" clip-rule="evenodd" d="M19.0095 6.10435C19.0095 5.15887 19.6569 4 20.9494 4H23C23.5523 4 24 4.44772 24 5C24 5.55228 23.5523 6 23 6H21.0257L21.025 6.00195C21.0163 6.02769 21.0095 6.06249 21.0095 6.10435V9.79391C21.0095 10.249 20.7022 10.6467 20.2619 10.7615C18.8611 11.1269 17.6482 11.5224 16.5609 12.2176C16.1688 12.4684 15.6555 12.4154 15.3228 12.09L12.788 9.6102C12.7805 9.60285 12.7731 9.59538 12.7658 9.58779L9.41013 13.1365C9.39831 13.149 9.3845 13.1739 9.3845 13.2124C9.3845 13.2509 9.39831 13.2759 9.41013 13.2884C9.41812 13.2968 9.42596 13.3054 9.43365 13.3141L11.7881 15.9846C12.071 16.3056 12.1184 16.7709 11.9061 17.1423C11.2407 18.306 10.8631 19.5942 10.5169 21.0883C10.4119 21.5417 10.008 21.8626 9.54271 21.8626H6.05378C6.03616 21.8626 6.02139 21.8659 6.01018 21.8701C6.00606 21.8717 6.00269 21.8733 6 21.8748V26.8864C6 26.9007 6.00411 26.9456 6.02813 27.0132C6.0515 27.0789 6.08584 27.1436 6.12434 27.1963C6.13769 27.2146 6.15026 27.2297 6.1614 27.2417H9.54271C10.0075 27.2417 10.411 27.562 10.5166 28.0146C10.8634 29.5014 11.241 30.7988 11.9061 31.962C12.1314 32.356 12.0631 32.8523 11.7397 33.1708L9.40551 35.4701C9.39499 35.4838 9.3845 35.507 9.3845 35.5406C9.3845 35.5791 9.39831 35.604 9.41013 35.6165L12.7658 39.1652L15.2988 36.5116C15.629 36.1657 16.1579 36.102 16.5609 36.3596C17.6488 37.0553 18.853 37.4506 20.2603 37.8153C20.7014 37.9296 21.0095 38.3277 21.0095 38.7834V41.9458C21.0095 41.9704 21.0139 41.9863 21.0173 41.995C21.0181 41.9969 21.0195 42 21.0195 42H23C23.5523 42 24 42.4477 24 43C24 43.5523 23.5523 44 23 44H21.0063C19.842 44 19.0095 43.037 19.0095 41.9458V39.5483C18.0564 39.2763 17.1122 38.9456 16.2012 38.4628L14.2139 40.5447L14.2118 40.5469C13.4183 41.3836 12.1103 41.3828 11.3177 40.5447L7.95696 36.9907C7.19367 36.1835 7.19367 34.8977 7.95696 34.0905C7.96509 34.0819 7.97337 34.0734 7.98179 34.0651L9.80843 32.2658C9.33749 31.286 9.01863 30.2663 8.75688 29.2417H6.05378C5.31561 29.2417 4.79048 28.7609 4.50935 28.3761C4.21325 27.9707 4 27.4297 4 26.8864V21.8666C4 20.64 5.02705 19.8626 6.05378 19.8626H8.756C9.02244 18.8163 9.34764 17.7834 9.83168 16.7899L7.94313 14.6477C7.1937 13.8397 7.19831 12.5646 7.95696 11.7623L11.3177 8.2083C12.1058 7.37489 13.4036 7.36944 14.1983 8.19197L16.177 10.1277C17.0967 9.63794 18.0524 9.30392 19.0095 9.02989V6.10435Z" fill="#29707A"/>
<path fill-rule="evenodd" clip-rule="evenodd" d="M28.5 6C27.6716 6 27 6.67157 27 7.5C27 8.32843 27.6716 9 28.5 9C29.3284 9 30 8.32843 30 7.5C30 6.67157 29.3284 6 28.5 6ZM25 7.5C25 5.567 26.567 4 28.5 4C30.433 4 32 5.567 32 7.5C32 9.433 30.433 11 28.5 11C26.567 11 25 9.433 25 7.5ZM38.5 13C37.6716 13 37 13.6716 37 14.5C37 15.3284 37.6716 16 38.5 16C39.3284 16 40 15.3284 40 14.5C40 13.6716 39.3284 13 38.5 13ZM35 14.5C35 12.567 36.567 11 38.5 11C40.433 11 42 12.567 42 14.5C42 16.433 40.433 18 38.5 18C36.567 18 35 16.433 35 14.5ZM39 23.5C39 22.6716 39.6716 22 40.5 22C41.3284 22 42 22.6716 42 23.5C42 24.3284 41.3284 25 40.5 25C39.6716 25 39 24.3284 39 23.5ZM40.5 20C38.567 20 37 21.567 37 23.5C37 25.433 38.567 27 40.5 27C42.433 27 44 25.433 44 23.5C44 21.567 42.433 20 40.5 20ZM28.5 39C27.6716 39 27 39.6716 27 40.5C27 41.3284 27.6716 42 28.5 42C29.3284 42 30 41.3284 30 40.5C30 39.6716 29.3284 39 28.5 39ZM25 40.5C25 38.567 26.567 37 28.5 37C30.433 37 32 38.567 32 40.5C32 42.433 30.433 44 28.5 44C26.567 44 25 42.433 25 40.5ZM37 33.5C37 32.6716 37.6716 32 38.5 32C39.3284 32 40 32.6716 40 33.5C40 34.3284 39.3284 35 38.5 35C37.6716 35 37 34.3284 37 33.5ZM38.5 30C36.567 30 35 31.567 35 33.5C35 35.433 36.567 37 38.5 37C40.433 37 42 35.433 42 33.5C42 31.567 40.433 30 38.5 30Z" fill="#5FBEAC"/>
</svg>
