<svg width="48" height="48" viewBox="0 0 48 48" fill="none" xmlns="http://www.w3.org/2000/svg">
<path fill-rule="evenodd" clip-rule="evenodd" d="M14 32C14 31.4477 14.4477 31 15 31H23C23.5523 31 24 31.4477 24 32C24 32.5523 23.5523 33 23 33H15C14.4477 33 14 32.5523 14 32Z" fill="#29707A"/>
<path fill-rule="evenodd" clip-rule="evenodd" d="M14 22C14 21.4477 14.4477 21 15 21H23C23.5523 21 24 21.4477 24 22C24 22.5523 23.5523 23 23 23H15C14.4477 23 14 22.5523 14 22Z" fill="#29707A"/>
<path fill-rule="evenodd" clip-rule="evenodd" d="M13.2828 10C11.4663 10 10 11.4555 10 13.2476V38.7524C10 40.5379 11.459 42 13.2828 42H34.7172C36.5337 42 38 40.5445 38 38.7524V13.2476C38 11.4621 36.541 10 34.7172 10H31.1069C30.5546 10 30.1069 9.55228 30.1069 9C30.1069 8.44772 30.5546 8 31.1069 8H34.7172C37.6314 8 40 10.3434 40 13.2476V38.7524C40 41.6692 37.618 44 34.7172 44H13.2828C10.3686 44 8 41.6566 8 38.7524V13.2476C8 10.3308 10.382 8 13.2828 8H16.1069C16.6592 8 17.1069 8.44772 17.1069 9C17.1069 9.55228 16.6592 10 16.1069 10H13.2828Z" fill="#29707A"/>
<path fill-rule="evenodd" clip-rule="evenodd" d="M16 6.44469C16 5.06065 17.1521 4 18.4876 4H29.5124C30.8627 4 32 5.06503 32 6.44469V12.5553C32 13.9394 30.8479 15 29.5124 15H18.4876C17.1373 15 16 13.935 16 12.5553V6.44469ZM18.4876 6C18.1929 6 18 6.22786 18 6.44469V12.5553C18 12.7765 18.1873 13 18.4876 13H29.5124C29.8071 13 30 12.7721 30 12.5553V6.44469C30 6.22347 29.8127 6 29.5124 6H18.4876Z" fill="#29707A"/>
<path fill-rule="evenodd" clip-rule="evenodd" d="M34.5738 17.181C35.0262 17.4978 35.136 18.1214 34.8191 18.5737L30.6162 24.5737C30.4288 24.8412 30.1227 25.0003 29.7962 25C29.4697 24.9997 29.1639 24.84 28.977 24.5722L27.18 21.9966C26.864 21.5437 26.9749 20.9203 27.4279 20.6043C27.8808 20.2883 28.5042 20.3992 28.8202 20.8522L29.7988 22.2547L33.181 17.4263C33.4979 16.9739 34.1215 16.8641 34.5738 17.181Z" fill="#5FBEAC"/>
<path fill-rule="evenodd" clip-rule="evenodd" d="M34.5738 27.181C35.0262 27.4978 35.136 28.1214 34.8191 28.5737L30.6162 34.5737C30.4288 34.8412 30.1227 35.0003 29.7962 35C29.4697 34.9997 29.1639 34.84 28.977 34.5722L27.18 31.9966C26.864 31.5437 26.9749 30.9203 27.4279 30.6043C27.8808 30.2883 28.5042 30.3992 28.8202 30.8522L29.7988 32.2547L33.181 27.4263C33.4979 26.9739 34.1215 26.8641 34.5738 27.181Z" fill="#5FBEAC"/>
</svg>
