<svg width="48" height="48" viewBox="0 0 48 48" fill="none" xmlns="http://www.w3.org/2000/svg">
<path d="M10 30C10 29.4477 9.55228 29 9 29C8.44772 29 8 29.4477 8 30V38.7981C8 40.5648 9.43116 42 11.1985 42H19.5836L18.2923 43.2935C17.9021 43.6843 17.9026 44.3175 18.2935 44.7077C18.6843 45.0979 19.3175 45.0974 19.7077 44.7065L22.7077 41.7015C22.8951 41.5139 23.0002 41.2594 23 40.9942C22.9998 40.729 22.8942 40.4747 22.7065 40.2873L19.7065 37.2923C19.3157 36.9021 18.6825 36.9026 18.2923 37.2935C17.9021 37.6843 17.9026 38.3175 18.2935 38.7077L19.5879 40H11.1985C10.5385 40 10 39.463 10 38.7981V30Z" fill="#5FBEAC"/>
<path d="M38 20C38 20.5523 38.4477 21 39 21C39.5523 21 40 20.5523 40 20V11.2019C40 9.43518 38.5688 8 36.8015 8H28.4164L29.7077 6.70652C30.0979 6.31567 30.0974 5.68251 29.7065 5.29231C29.3157 4.90211 28.6825 4.90263 28.2923 5.29348L25.2923 8.29846C25.1049 8.48615 24.9998 8.74059 25 9.00581C25.0002 9.27102 25.1058 9.52529 25.2935 9.71267L28.2935 12.7077C28.6843 13.0979 29.3175 13.0974 29.7077 12.7065C30.0979 12.3157 30.0974 11.6825 29.7065 11.2923L28.4121 10H36.8015C37.4615 10 38 10.537 38 11.2019V20Z" fill="#5FBEAC"/>
<path fill-rule="evenodd" clip-rule="evenodd" d="M35 25C33.3431 25 32 26.3431 32 28C32 29.6569 33.3431 31 35 31C36.6569 31 38 29.6569 38 28C38 26.3431 36.6569 25 35 25ZM30 28C30 25.2386 32.2386 23 35 23C37.7614 23 40 25.2386 40 28C40 30.7614 37.7614 33 35 33C32.2386 33 30 30.7614 30 28Z" fill="#29707A"/>
<path fill-rule="evenodd" clip-rule="evenodd" d="M26 38.8144C26 36.8132 27.4666 35 29.5217 35H40.4783C42.5357 35 44 36.826 44 38.8144L44 38.8196L43.9807 42.5928C43.9803 42.6568 43.974 42.7193 43.9622 42.7799C43.8649 43.9285 42.9808 44.9794 41.7053 44.9794H41.6984C39.0543 44.9611 32.8479 44.9835 29.4162 44.996C28.9944 44.9975 28.6146 44.9989 28.2885 45L28.285 45C26.9546 45 26.0208 43.8481 26.0193 42.6111L26 38.8195L26 38.8144ZM28 38.8121L28.0193 42.6082C28.0193 42.748 28.0703 42.8547 28.1297 42.9198C28.1878 42.9833 28.2436 42.9998 28.2841 43C28.6089 42.9989 28.9874 42.9975 29.4079 42.996C32.8364 42.9835 39.0562 42.961 41.7122 42.9794L41.7053 43.9794V42.9794C41.7441 42.9794 41.7974 42.9647 41.8552 42.9011C41.915 42.8353 41.9692 42.7238 41.9711 42.5751C41.9717 42.5303 41.9752 42.4863 41.9814 42.4431L42 38.8144L42 38.8121C41.9989 37.7091 41.2223 37 40.4783 37H29.5217C28.7755 37 28.0011 37.7013 28 38.8121Z" fill="#29707A"/>
<path fill-rule="evenodd" clip-rule="evenodd" d="M13 7C11.3431 7 10 8.34315 10 10C10 11.6569 11.3431 13 13 13C14.6569 13 16 11.6569 16 10C16 8.34315 14.6569 7 13 7ZM8 10C8 7.23858 10.2386 5 13 5C15.7614 5 18 7.23858 18 10C18 12.7614 15.7614 15 13 15C10.2386 15 8 12.7614 8 10Z" fill="#29707A"/>
<path fill-rule="evenodd" clip-rule="evenodd" d="M4 20.8144C4 18.8126 5.46776 17 7.52326 17H18.4767C20.5345 17 22 18.8254 22 20.8144V20.8211L21.9723 24.9657C21.9855 25.0341 21.9916 25.1043 21.9901 25.1755C21.9713 26.0766 21.2971 26.9794 20.2363 26.9794H20.2286C17.558 26.9588 8.48782 26.9897 5.79659 27L5.79275 27C4.73359 27 4.03102 26.0969 4.02901 25.1689L4.029 25.1649H5.029L4.02903 25.1716L4.02901 25.1689L4 20.8144ZM19.9722 24.9776L20 20.8115C19.9986 19.7094 19.222 19 18.4767 19H7.52326C6.77582 19 6.00141 19.7016 6 20.8114L6.02792 24.9991C8.87905 24.9884 17.0796 24.9612 19.9722 24.9776Z" fill="#29707A"/>
</svg>
