<svg width="48" height="48" viewBox="0 0 48 48" fill="none" xmlns="http://www.w3.org/2000/svg">
<path fill-rule="evenodd" clip-rule="evenodd" d="M10.6667 6C10.2987 6 10 6.29792 10 6.66847V13.3315C10 13.7021 10.2987 14 10.6667 14H37.3333C37.7013 14 38 13.7021 38 13.3315V6.66847C38 6.29792 37.7013 6 37.3333 6H10.6667ZM8 6.66847C8 5.1972 9.19024 4 10.6667 4H37.3333C38.8098 4 40 5.1972 40 6.66847V13.3315C40 14.8028 38.8098 16 37.3333 16H10.6667C9.19024 16 8 14.8028 8 13.3315V6.66847Z" fill="#29707A"/>
<path fill-rule="evenodd" clip-rule="evenodd" d="M10.6667 20C10.2987 20 10 20.2979 10 20.6685V27.3315C10 27.7021 10.2987 28 10.6667 28H37.3333C37.7013 28 38 27.7021 38 27.3315V20.6685C38 20.2979 37.7013 20 37.3333 20H10.6667ZM8 20.6685C8 19.1972 9.19024 18 10.6667 18H37.3333C38.8098 18 40 19.1972 40 20.6685V27.3315C40 28.8028 38.8098 30 37.3333 30H10.6667C9.19024 30 8 28.8028 8 27.3315V20.6685Z" fill="#29707A"/>
<path fill-rule="evenodd" clip-rule="evenodd" d="M10.6667 34C10.2987 34 10 34.2979 10 34.6685V41.3315C10 41.7021 10.2987 42 10.6667 42H37.3333C37.7013 42 38 41.7021 38 41.3315V34.6685C38 34.2979 37.7013 34 37.3333 34H10.6667ZM8 34.6685C8 33.1972 9.19024 32 10.6667 32H37.3333C38.8098 32 40 33.1972 40 34.6685V41.3315C40 42.8028 38.8098 44 37.3333 44H10.6667C9.19024 44 8 42.8028 8 41.3315V34.6685Z" fill="#29707A"/>
<path fill-rule="evenodd" clip-rule="evenodd" d="M13 10C13 9.44772 13.4477 9 14 9H17C17.5523 9 18 9.44772 18 10C18 10.5523 17.5523 11 17 11H14C13.4477 11 13 10.5523 13 10Z" fill="#5FBEAC"/>
<path fill-rule="evenodd" clip-rule="evenodd" d="M23 10C23 9.44772 23.4477 9 24 9H34C34.5523 9 35 9.44772 35 10C35 10.5523 34.5523 11 34 11H24C23.4477 11 23 10.5523 23 10Z" fill="#29707A"/>
<path fill-rule="evenodd" clip-rule="evenodd" d="M13 24C13 23.4477 13.4477 23 14 23H17C17.5523 23 18 23.4477 18 24C18 24.5523 17.5523 25 17 25H14C13.4477 25 13 24.5523 13 24Z" fill="#5FBEAC"/>
<path fill-rule="evenodd" clip-rule="evenodd" d="M23 24C23 23.4477 23.4477 23 24 23H34C34.5523 23 35 23.4477 35 24C35 24.5523 34.5523 25 34 25H24C23.4477 25 23 24.5523 23 24Z" fill="#29707A"/>
<path fill-rule="evenodd" clip-rule="evenodd" d="M13 38C13 37.4477 13.4477 37 14 37H17C17.5523 37 18 37.4477 18 38C18 38.5523 17.5523 39 17 39H14C13.4477 39 13 38.5523 13 38Z" fill="#5FBEAC"/>
<path fill-rule="evenodd" clip-rule="evenodd" d="M22 38C22 37.4477 22.4477 37 23 37H34C34.5523 37 35 37.4477 35 38C35 38.5523 34.5523 39 34 39H23C22.4477 39 22 38.5523 22 38Z" fill="#29707A"/>
</svg>
