<svg width="48" height="48" viewBox="0 0 48 48" fill="none" xmlns="http://www.w3.org/2000/svg">
<path fill-rule="evenodd" clip-rule="evenodd" d="M27.9714 6.95239C27.9714 6.40011 27.5237 5.95239 26.9714 5.95239C26.4192 5.95239 25.9714 6.40011 25.9714 6.95239V9H16V7C16 6.44772 15.5523 6 15 6C14.4477 6 14 6.44772 14 7V12.8667C14 13.419 14.4477 13.8667 15 13.8667C15.5523 13.8667 16 13.419 16 12.8667V11H25.9714V12.8191C25.9714 13.3713 26.4192 13.8191 26.9714 13.8191C27.5237 13.8191 27.9714 13.3713 27.9714 12.8191V6.95239ZM6 13.2654C6 12.0558 7.03807 11 8.42175 11H8.99692C9.54921 11 9.99692 10.5523 9.99692 10C9.99692 9.44772 9.54921 9 8.99692 9H8.42175C6.02298 9 4 10.8638 4 13.2654V39.7346C4 42.138 6.03463 44 8.42175 44H24C24.5523 44 25 43.5523 25 43C25 42.4477 24.5523 42 24 42H8.42175C7.04593 42 6 40.9424 6 39.7346V18H36V21C36 21.5523 36.4477 22 37 22C37.5523 22 38 21.5523 38 21V13.3059C38 10.9051 36.0051 9 33.6049 9H33C32.4477 9 32 9.44772 32 10C32 10.5523 32.4477 11 33 11H33.6049C34.951 11 36 12.0594 36 13.3059V16H6V13.2654Z" fill="#29707A"/>
<path fill-rule="evenodd" clip-rule="evenodd" d="M24 34C24 28.4783 28.4783 24 34 24C39.5217 24 44 28.4783 44 34C44 39.5217 39.5217 44 34 44C28.4783 44 24 39.5217 24 34ZM34 26C29.5828 26 26 29.5828 26 34C26 38.4172 29.5828 42 34 42C38.4172 42 42 38.4172 42 34C42 29.5828 38.4172 26 34 26Z" fill="#5FBEAC"/>
<path fill-rule="evenodd" clip-rule="evenodd" d="M38.6326 30.2255C39.0603 30.5749 39.1239 31.2049 38.7745 31.6326L33.8735 37.6326C33.6835 37.8653 33.3989 38.0002 33.0985 38C32.7981 37.9998 32.5136 37.8646 32.3238 37.6317L30.2248 35.0561C29.8759 34.628 29.9401 33.9981 30.3683 33.6492C30.7964 33.3003 31.4263 33.3645 31.7752 33.7926L33.0999 35.4182L37.2255 30.3674C37.5749 29.9397 38.2049 29.8761 38.6326 30.2255Z" fill="#5FBEAC"/>
<path d="M10.8794 22H10.1206C9.50195 22 9 22.4687 9 23.043V23.957C9 24.5313 9.50195 25 10.1206 25H10.8794C11.4981 25 12 24.5313 12 23.957V23.043C12 22.4687 11.4981 22 10.8794 22Z" fill="#29707A"/>
<path d="M17.8794 22H17.1206C16.5019 22 16 22.4687 16 23.043V23.957C16 24.5313 16.5019 25 17.1206 25H17.8794C18.4981 25 19 24.5313 19 23.957V23.043C19 22.4687 18.4981 22 17.8794 22Z" fill="#29707A"/>
<path d="M10.8794 28H10.1206C9.50195 28 9 28.4687 9 29.043V29.957C9 30.5313 9.50195 31 10.1206 31H10.8794C11.4981 31 12 30.5313 12 29.957V29.043C12 28.4687 11.4981 28 10.8794 28Z" fill="#29707A"/>
<path d="M17.8794 28H17.1206C16.5019 28 16 28.4687 16 29.043V29.957C16 30.5313 16.5019 31 17.1206 31H17.8794C18.4981 31 19 30.5313 19 29.957V29.043C19 28.4687 18.4981 28 17.8794 28Z" fill="#29707A"/>
<path d="M10.8794 34H10.1206C9.50195 34 9 34.4688 9 35.043V35.957C9 36.5312 9.50195 37 10.1206 37H10.8794C11.4981 37 12 36.5312 12 35.957V35.043C12 34.4688 11.4981 34 10.8794 34Z" fill="#29707A"/>
<path d="M17.8794 34H17.1206C16.5019 34 16 34.4688 16 35.043V35.957C16 36.5312 16.5019 37 17.1206 37H17.8794C18.4981 37 19 36.5312 19 35.957V35.043C19 34.4688 18.4981 34 17.8794 34Z" fill="#29707A"/>
</svg>
