<svg width="48" height="48" viewBox="0 0 48 48" fill="none" xmlns="http://www.w3.org/2000/svg">
<path fill-rule="evenodd" clip-rule="evenodd" d="M17.7071 21.4057C18.0976 21.7962 18.0976 22.4294 17.7071 22.8199L13.4142 27.1128L17.7071 31.4057C18.0976 31.7962 18.0976 32.4294 17.7071 32.8199C17.3166 33.2104 16.6834 33.2104 16.2929 32.8199L11.2929 27.8199C11.1054 27.6324 11 27.378 11 27.1128C11 26.8476 11.1054 26.5932 11.2929 26.4057L16.2929 21.4057C16.6834 21.0152 17.3166 21.0152 17.7071 21.4057Z" fill="#5FBEAC"/>
<path fill-rule="evenodd" clip-rule="evenodd" d="M31.2929 21.4057C31.6834 21.0152 32.3166 21.0152 32.7071 21.4057L37.7071 26.4057C37.8946 26.5932 38 26.8476 38 27.1128C38 27.378 37.8946 27.6324 37.7071 27.8199L32.7071 32.8199C32.3166 33.2104 31.6834 33.2104 31.2929 32.8199C30.9024 32.4294 30.9024 31.7962 31.2929 31.4057L35.5858 27.1128L31.2929 22.8199C30.9024 22.4294 30.9024 21.7962 31.2929 21.4057Z" fill="#5FBEAC"/>
<path fill-rule="evenodd" clip-rule="evenodd" d="M26.7345 18.1541C27.2664 18.3026 27.5772 18.8543 27.4286 19.3862L22.9633 35.3749C22.8147 35.9068 22.2631 36.2176 21.7312 36.0691C21.1992 35.9205 20.8885 35.3689 21.037 34.8369L25.5024 18.8482C25.6509 18.3163 26.2026 18.0055 26.7345 18.1541Z" fill="#5FBEAC"/>
<path fill-rule="evenodd" clip-rule="evenodd" d="M4 13H44.1048V38.7333C44.1048 41.584 41.9647 44.0476 39.1429 44.0476H8.9619C6.14001 44.0476 4 41.584 4 38.7333V13ZM6 15V38.7333C6 40.6446 7.40284 42.0476 8.9619 42.0476H39.1429C40.7019 42.0476 42.1048 40.6446 42.1048 38.7333V15H6Z" fill="#29707A"/>
<path fill-rule="evenodd" clip-rule="evenodd" d="M4.04761 9.48515C4.04761 6.58098 6.14655 4 8.99961 4H39.0956C41.9487 4 44.0476 6.58098 44.0476 9.48515V15H4.04761V9.48515ZM8.99961 6C7.48266 6 6.04761 7.43882 6.04761 9.48515V13H42.0476V9.48515C42.0476 7.43882 40.6126 6 39.0956 6H8.99961Z" fill="#29707A"/>
<path d="M11.9176 8H11.1777C10.5535 8 10.0476 8.4643 10.0476 9.03704V9.96296C10.0476 10.5357 10.5535 11 11.1777 11H11.9176C12.5417 11 13.0476 10.5357 13.0476 9.96296V9.03704C13.0476 8.4643 12.5417 8 11.9176 8Z" fill="#29707A"/>
<path d="M16.9176 8H16.1777C15.5535 8 15.0476 8.4643 15.0476 9.03704V9.96296C15.0476 10.5357 15.5535 11 16.1777 11H16.9176C17.5417 11 18.0476 10.5357 18.0476 9.96296V9.03704C18.0476 8.4643 17.5417 8 16.9176 8Z" fill="#29707A"/>
<path d="M21.9176 8H21.1777C20.5535 8 20.0476 8.4643 20.0476 9.03704V9.96296C20.0476 10.5357 20.5535 11 21.1777 11H21.9176C22.5417 11 23.0476 10.5357 23.0476 9.96296V9.03704C23.0476 8.4643 22.5417 8 21.9176 8Z" fill="#29707A"/>
</svg>
