<svg width="48" height="48" viewBox="0 0 48 48" fill="none" xmlns="http://www.w3.org/2000/svg">
<path fill-rule="evenodd" clip-rule="evenodd" d="M8 20C8 18.3431 9.34315 17 11 17H20C21.6569 17 23 18.3431 23 20V37C23 38.6569 21.6569 40 20 40H11C9.34315 40 8 38.6569 8 37V20ZM11 19C10.4477 19 10 19.4477 10 20V37C10 37.5523 10.4477 38 11 38H20C20.5523 38 21 37.5523 21 37V20C21 19.4477 20.5523 19 20 19H11Z" fill="#29707A"/>
<path d="M26 18C26 17.4477 26.4477 17 27 17H39C39.5523 17 40 17.4477 40 18C40 18.5523 39.5523 19 39 19H27C26.4477 19 26 18.5523 26 18Z" fill="#29707A"/>
<path d="M26 22C26 21.4477 26.4477 21 27 21H39C39.5523 21 40 21.4477 40 22C40 22.5523 39.5523 23 39 23H27C26.4477 23 26 22.5523 26 22Z" fill="#29707A"/>
<path d="M11.1777 8H11.9176C12.5417 8 13.0476 8.4643 13.0476 9.03704V9.96296C13.0476 10.5357 12.5417 11 11.9176 11H11.1777C10.5535 11 10.0476 10.5357 10.0476 9.96296V9.03704C10.0476 8.4643 10.5535 8 11.1777 8Z" fill="#29707A"/>
<path d="M16.9176 8H16.1777C15.5535 8 15.0476 8.4643 15.0476 9.03704V9.96296C15.0476 10.5357 15.5535 11 16.1777 11H16.9176C17.5417 11 18.0476 10.5357 18.0476 9.96296V9.03704C18.0476 8.4643 17.5417 8 16.9176 8Z" fill="#29707A"/>
<path d="M21.1777 8H21.9176C22.5417 8 23.0476 8.4643 23.0476 9.03704V9.96296C23.0476 10.5357 22.5417 11 21.9176 11H21.1777C20.5535 11 20.0476 10.5357 20.0476 9.96296V9.03704C20.0476 8.4643 20.5535 8 21.1777 8Z" fill="#29707A"/>
<path fill-rule="evenodd" clip-rule="evenodd" d="M4.04761 9.48515C4.04761 6.58098 6.14655 4 8.99961 4H39.0956C41.9487 4 44.0476 6.58098 44.0476 9.48515V13H44.1048V38.7333C44.1048 41.584 41.9647 44.0476 39.1429 44.0476H8.9619C6.14001 44.0476 4 41.584 4 38.7333V13H4.04761V9.48515ZM6 15H42.1048V38.7333C42.1048 40.6446 40.7019 42.0476 39.1429 42.0476H8.9619C7.40284 42.0476 6 40.6446 6 38.7333V15ZM42.0476 9.48515V13H6.04761V9.48515C6.04761 7.43882 7.48266 6 8.99961 6H39.0956C40.6126 6 42.0476 7.43882 42.0476 9.48515Z" fill="#29707A"/>
<path fill-rule="evenodd" clip-rule="evenodd" d="M25 28C25 26.3431 26.3431 25 28 25H37C38.6569 25 40 26.3431 40 28V37C40 38.6569 38.6569 40 37 40H28C26.3431 40 25 38.6569 25 37V28ZM28 27C27.4477 27 27 27.4477 27 28V37C27 37.5523 27.4477 38 28 38H37C37.5523 38 38 37.5523 38 37V28C38 27.4477 37.5523 27 37 27H28Z" fill="#5FBEAC"/>
</svg>
