<svg width="48" height="48" viewBox="0 0 48 48" fill="none" xmlns="http://www.w3.org/2000/svg">
<path fill-rule="evenodd" clip-rule="evenodd" d="M24.4381 16.3905C22.5428 16.3905 21 17.9333 21 19.8286C21 21.7239 22.5428 23.2667 24.4381 23.2667C27.438 23.2667 29.8762 25.7049 29.8762 28.7048C29.8762 31.7047 27.438 34.1429 24.4381 34.1429C21.4382 34.1429 19 31.7047 19 28.7048C19 28.1525 19.4477 27.7048 20 27.7048C20.5523 27.7048 21 28.1525 21 28.7048C21 30.6001 22.5428 32.1429 24.4381 32.1429C26.3334 32.1429 27.8762 30.6001 27.8762 28.7048C27.8762 26.8095 26.3334 25.2667 24.4381 25.2667C21.4382 25.2667 19 22.8285 19 19.8286C19 16.8287 21.4382 14.3905 24.4381 14.3905C27.438 14.3905 29.8762 16.8287 29.8762 19.8286C29.8762 20.3809 29.4285 20.8286 28.8762 20.8286C28.3239 20.8286 27.8762 20.3809 27.8762 19.8286C27.8762 17.9333 26.3334 16.3905 24.4381 16.3905Z" fill="#5FBEAC"/>
<path fill-rule="evenodd" clip-rule="evenodd" d="M24 10C24.5523 10 25 10.4477 25 11V15.3905C25 15.9428 24.5523 16.3905 24 16.3905C23.4477 16.3905 23 15.9428 23 15.3905V11C23 10.4477 23.4477 10 24 10Z" fill="#5FBEAC"/>
<path fill-rule="evenodd" clip-rule="evenodd" d="M24 32.4599C24.5523 32.4599 25 32.9076 25 33.4599V36.9599C25 37.5122 24.5523 37.9599 24 37.9599C23.4477 37.9599 23 37.5122 23 36.9599V33.4599C23 32.9076 23.4477 32.4599 24 32.4599Z" fill="#5FBEAC"/>
<path fill-rule="evenodd" clip-rule="evenodd" d="M24 42C33.9411 42 42 33.9411 42 24C42 14.0589 33.9411 6 24 6C14.0589 6 6 14.0589 6 24C6 33.9411 14.0589 42 24 42ZM24 44C35.0457 44 44 35.0457 44 24C44 12.9543 35.0457 4 24 4C12.9543 4 4 12.9543 4 24C4 35.0457 12.9543 44 24 44Z" fill="#29707A"/>
</svg>
