<svg width="48" height="48" viewBox="0 0 48 48" fill="none" xmlns="http://www.w3.org/2000/svg">
<path fill-rule="evenodd" clip-rule="evenodd" d="M17 31C16.4477 31 16 31.4477 16 32C16 32.5523 16.4477 33 17 33H31C31.5523 33 32 32.5523 32 32C32 31.4477 31.5523 31 31 31H17ZM17 35C16.4477 35 16 35.4477 16 36C16 36.5523 16.4477 37 17 37H31C31.5523 37 32 36.5523 32 36C32 35.4477 31.5523 35 31 35H17Z" fill="#5FBEAC"/>
<path fill-rule="evenodd" clip-rule="evenodd" d="M10 8.933C10 7.36086 11.3569 6 13.14 6H34.86C36.6431 6 38 7.36086 38 8.933V39.067C38 40.6391 36.6431 42 34.86 42H13.14C11.3569 42 10 40.6391 10 39.067V8.933ZM13.14 4C10.3502 4 8 6.16087 8 8.933V39.067C8 41.8391 10.3502 44 13.14 44H34.86C37.6498 44 40 41.8391 40 39.067V8.933C40 6.16087 37.6498 4 34.86 4H13.14ZM24 10C22.3431 10 21 11.3431 21 13C21 14.6569 22.3431 16 24 16C25.6569 16 27 14.6569 27 13C27 11.3431 25.6569 10 24 10ZM19 13C19 10.2386 21.2386 8 24 8C26.7614 8 29 10.2386 29 13C29 15.7614 26.7614 18 24 18C21.2386 18 19 15.7614 19 13ZM17.3316 19.972C18.0871 19.362 19.0817 19 20.0764 19H28.1907C30.1073 19 32.0124 20.3066 32.0004 22.503V26C32.0004 26.5523 31.5526 27 31.0004 27H17.0003C16.448 27 16.0003 26.5523 16.0003 26V22.6343C15.9885 21.5095 16.573 20.5845 17.3316 19.972ZM18.588 21.5281C18.1863 21.8524 17.9954 22.2392 18.0002 22.6159L18.0004 22.6286L18.0003 25H30.0004V22.4936C30.0054 21.7016 29.3208 21 28.1907 21H20.0764C19.5474 21 18.9944 21.2 18.588 21.5281Z" fill="#29707A"/>
</svg>
