<svg width="48" height="48" viewBox="0 0 48 48" fill="none" xmlns="http://www.w3.org/2000/svg">
<path fill-rule="evenodd" clip-rule="evenodd" d="M22.282 12.0005C22.687 12.0135 23.0441 12.2695 23.1863 12.6489L26.693 22H33C33.5523 22 34 22.4477 34 23C34 23.5523 33.5523 24 33 24H26C25.5832 24 25.21 23.7414 25.0637 23.3511L22.1659 15.6237L18.6619 23.4104C18.5004 23.7692 18.1435 24 17.75 24H9C8.44772 24 8 23.5523 8 23C8 22.4477 8.44772 22 9 22H17.1034L21.3381 12.5896C21.5043 12.2202 21.8771 11.9875 22.282 12.0005Z" fill="#5FBEAC"/>
<path fill-rule="evenodd" clip-rule="evenodd" d="M21 6C12.7157 6 6 12.7157 6 21C6 29.2843 12.7157 36 21 36C29.2843 36 36 29.2843 36 21C36 12.7157 29.2843 6 21 6ZM4 21C4 11.6112 11.6112 4 21 4C30.3888 4 38 11.6112 38 21C38 30.3888 30.3888 38 21 38C11.6112 38 4 30.3888 4 21Z" fill="#29707A"/>
<path fill-rule="evenodd" clip-rule="evenodd" d="M31.7929 31.7929C32.1834 31.4024 32.8166 31.4024 33.2071 31.7929L43.7071 42.2929C44.0976 42.6834 44.0976 43.3166 43.7071 43.7071C43.3166 44.0976 42.6834 44.0976 42.2929 43.7071L31.7929 33.2071C31.4024 32.8166 31.4024 32.1834 31.7929 31.7929Z" fill="#29707A"/>
</svg>
