<svg width="48" height="48" viewBox="0 0 48 48" fill="none" xmlns="http://www.w3.org/2000/svg">
<path fill-rule="evenodd" clip-rule="evenodd" d="M19.6837 27C18.7923 27 18 27.7631 18 28.8053V42H30V28.8053C30 27.7631 29.2077 27 28.3163 27H19.6837ZM16 28.8053C16 26.743 17.6051 25 19.6837 25H28.3163C30.3949 25 32 26.743 32 28.8053V43C32 43.5523 31.5523 44 31 44H17C16.4477 44 16 43.5523 16 43V28.8053Z" fill="#5FBEAC"/>
<path fill-rule="evenodd" clip-rule="evenodd" d="M5.32712 8.16001L4.06873 15.1325C4.02436 15.2456 4 15.3688 4 15.4976C4 17.035 4.80212 18.3489 6 19.1538V38.9733C6 41.6978 8.09958 44 10.8078 44H37.1922C39.9004 44 42 41.6978 42 38.9733V19.1538C43.1979 18.3489 44 17.035 44 15.4976C44 15.438 43.9947 15.3786 43.9841 15.32L42.6919 8.16001C42.2618 5.79342 40.2862 4 37.8985 4H10.1205C7.73281 4 5.75724 5.79342 5.32712 8.16001ZM6.00599 15.6592L7.29488 8.51765C7.568 7.01655 8.78438 6 10.1205 6H37.8985C39.2348 6 40.4512 7.0162 40.7241 8.51765L41.9985 15.5787C41.9511 16.8534 40.7916 18 39.2 18C38.5492 18 37.9599 17.8027 37.4909 17.4766L37.4893 17.4755C36.2158 16.5936 34.5842 16.5936 33.3107 17.4755L33.3091 17.4766C32.8401 17.8027 32.2508 18 31.6 18C30.9492 18 30.3599 17.8027 29.8909 17.4766L29.8893 17.4755C28.6158 16.5936 26.9842 16.5936 25.7107 17.4755L25.7091 17.4766C25.2401 17.8027 24.6508 18 24 18C23.3492 18 22.7599 17.8027 22.2909 17.4766L22.2893 17.4755C21.0158 16.5936 19.3842 16.5936 18.1107 17.4755L18.1091 17.4766C17.6401 17.8027 17.0508 18 16.4 18C15.7492 18 15.1599 17.8027 14.6909 17.4766L14.6893 17.4755C13.4158 16.5936 11.7842 16.5936 10.5107 17.4755L10.5091 17.4766C10.0401 17.8027 9.45081 18 8.8 18C7.24192 18 6.09802 16.9012 6.00599 15.6592ZM40 19.9369C39.7387 19.9784 39.4713 20 39.2 20C38.1412 20 37.1538 19.6779 36.3499 19.1192C35.7618 18.7124 35.0382 18.7124 34.4501 19.1192C33.6462 19.6779 32.6588 20 31.6 20C30.5412 20 29.5538 19.6779 28.7499 19.1192C28.1618 18.7124 27.4382 18.7124 26.8501 19.1192C26.0462 19.6779 25.0588 20 24 20C22.9412 20 21.9538 19.6779 21.1499 19.1192C20.5619 18.7124 19.8384 18.7124 19.2503 19.119C18.4464 19.6779 17.4589 20 16.4 20C15.3411 20 14.3536 19.6779 13.5497 19.119C12.9616 18.7124 12.2381 18.7124 11.6501 19.1192C10.8462 19.6779 9.85882 20 8.8 20C8.52874 20 8.26134 19.9784 8 19.9369V38.9733C8 40.6999 9.30787 42 10.8078 42H37.1922C38.6921 42 40 40.6999 40 38.9733V19.9369Z" fill="#29707A"/>
</svg>
