<svg width="48" height="48" viewBox="0 0 48 48" fill="none" xmlns="http://www.w3.org/2000/svg">
<path fill-rule="evenodd" clip-rule="evenodd" d="M41.1264 20.3543C41.1263 20.3541 41.1265 20.3544 41.1264 20.3543L43.7927 23.333C44.1326 23.7127 44.1326 24.2872 43.7927 24.6669L41.1264 27.6457C41.1263 27.6458 41.1265 27.6456 41.1264 27.6457C32.2623 37.5589 15.7381 37.5593 6.87395 27.6461L4.20729 24.6669C3.86743 24.2872 3.86743 23.7127 4.20729 23.333L6.87359 20.3543C6.87347 20.3544 6.87371 20.3541 6.87359 20.3543C15.7378 10.441 32.2623 10.441 41.1264 20.3543ZM39.6355 21.6874C31.5664 12.6628 16.4337 12.6628 8.36453 21.6874L6.29449 24L8.36416 26.3122C16.4333 35.3368 31.5664 35.3372 39.6355 26.3126L41.7055 24L39.6355 21.6874Z" fill="#29707A"/>
<path fill-rule="evenodd" clip-rule="evenodd" d="M24 21C22.3431 21 21 22.3431 21 24C21 25.6569 22.3431 27 24 27C25.6569 27 27 25.6569 27 24C27 22.3431 25.6569 21 24 21ZM19 24C19 21.2386 21.2386 19 24 19C26.7614 19 29 21.2386 29 24C29 26.7614 26.7614 29 24 29C21.2386 29 19 26.7614 19 24Z" fill="#5FBEAC"/>
</svg>
