<svg width="48" height="48" viewBox="0 0 48 48" fill="none" xmlns="http://www.w3.org/2000/svg">
<path fill-rule="evenodd" clip-rule="evenodd" d="M24 11.9961C21.7908 11.9961 20 13.7863 20 15.9961C20 18.2059 21.7908 19.9961 24 19.9961C26.2092 19.9961 28 18.2059 28 15.9961C28 13.7863 26.2092 11.9961 24 11.9961ZM18 15.9961C18 12.6815 20.6865 9.99609 24 9.99609C27.3135 9.99609 30 12.6815 30 15.9961C30 19.3107 27.3135 21.9961 24 21.9961C20.6865 21.9961 18 19.3107 18 15.9961Z" fill="#5FBEAC"/>
<path fill-rule="evenodd" clip-rule="evenodd" d="M14.4761 25.0498C15.0284 25.0498 15.4761 25.4975 15.4761 26.0498V39.1024L24.3163 42.0514C24.8402 42.2262 25.1233 42.7925 24.9485 43.3164C24.7737 43.8404 24.2073 44.1234 23.6834 43.9486L14.1596 40.7716C13.7514 40.6355 13.4761 40.2534 13.4761 39.823V26.0498C13.4761 25.4975 13.9238 25.0498 14.4761 25.0498Z" fill="#29707A"/>
<path fill-rule="evenodd" clip-rule="evenodd" d="M14.1719 24.5782C14.3981 24.5026 14.644 24.5103 14.865 24.6L17.2354 25.5621C17.7472 25.7698 17.9937 26.353 17.786 26.8647C17.5783 27.3765 16.9951 27.623 16.4833 27.4153L14.4555 26.5922L6.01562 29.4141V41.6112L14.1719 38.8841C14.6957 38.709 15.2622 38.9916 15.4374 39.5154C15.6125 40.0392 15.3299 40.6058 14.8061 40.7809L5.33273 43.9484C5.02772 44.0503 4.69227 43.9994 4.43129 43.8115C4.1703 43.6236 4.01562 43.3216 4.01562 43V28.6941C4.01562 28.264 4.29063 27.8821 4.69853 27.7457L14.1719 24.5782Z" fill="#29707A"/>
<path fill-rule="evenodd" clip-rule="evenodd" d="M33.196 24.5786C33.4019 24.5095 33.6248 24.5093 33.8309 24.5781L43.3168 27.7456C43.7248 27.8818 44 28.2638 44 28.6941V43C44 43.3215 43.8454 43.6234 43.5845 43.8114C43.3236 43.9993 42.9883 44.0503 42.6833 43.9485L33.1974 40.781C32.6736 40.6061 32.3907 40.0396 32.5657 39.5158C32.7406 38.9919 33.307 38.7091 33.8309 38.884L42 41.6118V29.4144L33.515 26.5812L31.8495 27.1402C31.3259 27.3159 30.759 27.0339 30.5833 26.5104C30.4075 25.9868 30.6895 25.4199 31.2131 25.2441L33.196 24.5786Z" fill="#29707A"/>
<path fill-rule="evenodd" clip-rule="evenodd" d="M33.5238 25.0498C34.0761 25.0498 34.5238 25.4975 34.5238 26.0498V39.823C34.5238 40.2534 34.2485 40.6355 33.8403 40.7716L24.3164 43.9486C24.0115 44.0504 23.6762 43.9993 23.4154 43.8113C23.1546 43.6234 23 43.3215 23 43V35.7995C23 35.2472 23.4477 34.7995 24 34.7995C24.5523 34.7995 25 35.2472 25 35.7995V41.6123L32.5238 39.1024V26.0498C32.5238 25.4975 32.9715 25.0498 33.5238 25.0498Z" fill="#29707A"/>
<path fill-rule="evenodd" clip-rule="evenodd" d="M23.9961 5.98976C18.4549 5.98976 13.9922 10.3798 13.9922 15.7454L13.9922 15.7465C13.99 17.6218 14.6146 19.7637 15.6181 21.9717C16.6162 24.1679 17.957 26.3602 19.3129 28.3173C20.6668 30.2715 22.0231 31.9729 23.0417 33.1863C23.4099 33.6249 23.7333 33.999 23.9958 34.2975C24.258 33.9991 24.5811 33.6251 24.9489 33.1866C25.9668 31.9732 27.3222 30.2717 28.6756 28.3174C30.031 26.3603 31.3715 24.1679 32.3701 21.9715C33.3741 19.7634 34 17.6211 34 15.7454C34 10.3798 29.5373 5.98976 23.9961 5.98976ZM23.9961 35.7912C23.2666 36.4743 23.2664 36.4741 23.2662 36.4739L23.2567 36.4637L23.2311 36.4363C23.209 36.4124 23.1767 36.3775 23.135 36.332C23.0516 36.241 22.9303 36.1077 22.7767 35.9358C22.4696 35.592 22.0326 35.0934 21.5091 34.4697C20.4629 33.2234 19.0665 31.4721 17.6682 29.4539C16.272 27.4386 14.8611 25.139 13.7969 22.7974C12.7381 20.4676 11.9897 18.0258 11.9922 15.7448C11.9925 9.23524 17.392 3.99219 23.9961 3.99219C30.6004 3.99219 36 9.23555 36 15.7454C36 18.0261 35.2504 20.4677 34.1912 22.7975C33.1265 25.139 31.7161 27.4385 30.3205 29.4538C28.9229 31.4718 27.5274 33.2232 26.482 34.4694C25.9588 35.0931 25.5222 35.5917 25.2153 35.9355C25.0619 36.1074 24.9407 36.2407 24.8574 36.3317C24.8157 36.3772 24.7835 36.4121 24.7613 36.4359L24.7358 36.4634L24.7269 36.473C24.7267 36.4732 24.7259 36.474 23.9961 35.7912ZM23.9961 35.7912L24.7259 36.474C24.5369 36.6755 24.2728 36.7899 23.9963 36.79C23.7198 36.79 23.4553 36.6754 23.2662 36.4739L23.9961 35.7912Z" fill="#29707A"/>
</svg>
