<svg width="48" height="48" viewBox="0 0 48 48" fill="none" xmlns="http://www.w3.org/2000/svg">
<path fill-rule="evenodd" clip-rule="evenodd" d="M22.9186 4.25896C23.593 3.91362 24.4074 3.91368 25.0818 4.25915C31.7419 7.65545 37.8894 9.50554 40.2355 10.1515L40.239 10.1525C41.1896 10.418 42 11.232 42 12.3316V28.5861C42 30.684 40.9962 32.6103 39.5985 34.2841C38.1958 35.9639 36.3227 37.479 34.4035 38.7768C30.5628 41.3739 26.3729 43.2092 24.9138 43.8164C24.3278 44.0612 23.6722 44.0612 23.0862 43.8164C21.6267 43.209 17.4369 41.3714 13.5963 38.7731C11.6772 37.4748 9.80425 35.9594 8.40156 34.2802C7.00405 32.6071 6 30.682 6 28.5861V12.3316C6 11.232 6.81043 10.418 7.76098 10.1525L7.76454 10.1515L7.76455 10.1515C10.1094 9.50587 16.2575 7.64629 22.9186 4.25896ZM24.1701 6.03928C24.0681 5.98691 23.9319 5.98691 23.8299 6.03928L23.8266 6.04098C17.0029 9.51118 10.7156 11.4133 8.29763 12.0792C8.29691 12.0794 8.29619 12.0795 8.29547 12.0797L8.03001 11.1156L8.29904 12.0788C8.29857 12.0789 8.2981 12.079 8.29763 12.0792C8.16959 12.1152 8.08908 12.1762 8.04684 12.2258C8.00674 12.2729 8 12.3085 8 12.3316V28.5861C8 30.029 8.69523 31.512 9.9365 32.998C11.1726 34.4778 12.8779 35.8724 14.717 37.1166C18.3925 39.6031 22.4379 41.3803 23.8546 41.9699L23.8569 41.9708C23.9497 42.0097 24.0503 42.0097 24.1431 41.9708L24.1454 41.9699C25.5625 41.3801 29.6079 39.6053 33.2832 37.12C35.1222 35.8765 36.8274 34.4822 38.0634 33.0021C39.3045 31.5159 40 30.0317 40 28.5861V12.3316C40 12.3085 39.9933 12.2729 39.9532 12.2258C39.9109 12.1762 39.8304 12.1152 39.7024 12.0792C39.7031 12.0794 39.7038 12.0795 39.7045 12.0797L39.97 11.1156L39.701 12.0788C39.7014 12.0789 39.7019 12.079 39.7024 12.0792C37.2856 11.4136 30.9973 9.5209 24.1724 6.04047L24.1701 6.03928Z" fill="#29707A"/>
<path fill-rule="evenodd" clip-rule="evenodd" d="M18 22.2674V30.7326C21.5856 31.0891 26.4144 31.0891 30 30.7326V22.2674C26.4144 21.9109 21.5856 21.9109 18 22.2674ZM17.5159 20.3067C21.3571 19.8978 26.6429 19.8978 30.4841 20.3067L30.4891 20.3072L30.4891 20.3072C31.2926 20.3969 32 21.0625 32 21.9571V31.0429C32 31.9563 31.283 32.6042 30.4891 32.6928L30.4841 32.6933C26.6429 33.1022 21.3571 33.1022 17.5159 32.6933L17.5109 32.6928C16.7074 32.6031 16 31.9375 16 31.0429V21.9571C16 21.0625 16.7074 20.3969 17.5109 20.3072L17.5159 20.3067L17.5159 20.3067Z" fill="#29707A"/>
<path fill-rule="evenodd" clip-rule="evenodd" d="M24 13C22.3677 13 21 14.3653 21 16.0751V17C21 17.5523 20.5523 18 20 18C19.4477 18 19 17.5523 19 17V16.0751C19 13.2955 21.2287 11 24 11C25.3871 11 26.6377 11.5833 27.5364 12.4911L27.541 12.4957L27.541 12.4958C28.4398 13.4157 29 14.6749 29 16.0751V17C29 17.5523 28.5523 18 28 18C27.4477 18 27 17.5523 27 17V16.0751C27 15.2223 26.6621 14.4592 26.1127 13.8958C25.562 13.3406 24.8136 13 24 13Z" fill="#5FBEAC"/>
</svg>
