<svg width="48" height="48" viewBox="0 0 48 48" fill="none" xmlns="http://www.w3.org/2000/svg">
<path fill-rule="evenodd" clip-rule="evenodd" d="M24 4C21.7909 4 20 5.79086 20 8C20 9.86384 21.2748 11.4299 23 11.874V18C23 18.5523 23.4477 19 24 19C24.5523 19 25 18.5523 25 18V11.874C26.7252 11.4299 28 9.86384 28 8C28 5.79086 26.2091 4 24 4ZM22 8C22 6.89543 22.8954 6 24 6C25.1046 6 26 6.89543 26 8C26 9.10457 25.1046 10 24 10C22.8954 10 22 9.10457 22 8Z" fill="#29707A"/>
<path fill-rule="evenodd" clip-rule="evenodd" d="M23 36.126C21.2748 36.5701 20 38.1362 20 40C20 42.2091 21.7909 44 24 44C26.2091 44 28 42.2091 28 40C28 38.1362 26.7252 36.5701 25 36.126V30C25 29.4477 24.5523 29 24 29C23.4477 29 23 29.4477 23 30V36.126ZM22 40C22 38.8954 22.8954 38 24 38C25.1046 38 26 38.8954 26 40C26 41.1046 25.1046 42 24 42C22.8954 42 22 41.1046 22 40Z" fill="#29707A"/>
<path fill-rule="evenodd" clip-rule="evenodd" d="M4 24C4 21.7909 5.79086 20 8 20C9.86658 20 11.4346 21.2785 11.8759 23.0076C11.9166 23.0026 11.958 23 12 23H18C18.5523 23 19 23.4477 19 24C19 24.5523 18.5523 25 18 25H12C11.958 25 11.9166 24.9974 11.8759 24.9924C11.4346 26.7215 9.86658 28 8 28C5.79086 28 4 26.2091 4 24ZM8 22C6.89543 22 6 22.8954 6 24C6 25.1046 6.89543 26 8 26C9.10457 26 10 25.1046 10 24C10 22.8954 9.10457 22 8 22Z" fill="#29707A"/>
<path fill-rule="evenodd" clip-rule="evenodd" d="M40 20C38.1334 20 36.5654 21.2785 36.1241 23.0076C36.0834 23.0026 36.042 23 36 23H30C29.4477 23 29 23.4477 29 24C29 24.5523 29.4477 25 30 25H36C36.042 25 36.0834 24.9974 36.1241 24.9924C36.5654 26.7215 38.1334 28 40 28C42.2091 28 44 26.2091 44 24C44 21.7909 42.2091 20 40 20ZM38 24C38 22.8954 38.8954 22 40 22C41.1046 22 42 22.8954 42 24C42 25.1046 41.1046 26 40 26C38.8954 26 38 25.1046 38 24Z" fill="#29707A"/>
<path fill-rule="evenodd" clip-rule="evenodd" d="M8 12C8 9.79086 9.79086 8 12 8C14.2091 8 16 9.79086 16 12C16 12.7247 15.8073 13.4044 15.4703 13.9907L20.3879 18.9738C20.7759 19.3669 20.7717 20 20.3786 20.388C19.9855 20.7759 19.3523 20.7717 18.9644 20.3786L14.0727 15.4218C13.4682 15.7887 12.7588 16 12 16C9.79086 16 8 14.2091 8 12ZM12 10C10.8954 10 10 10.8954 10 12C10 13.1046 10.8954 14 12 14C13.1046 14 14 13.1046 14 12C14 10.8954 13.1046 10 12 10Z" fill="#29707A"/>
<path fill-rule="evenodd" clip-rule="evenodd" d="M36 8C33.7909 8 32 9.79086 32 12C32 12.6114 32.1372 13.1908 32.3824 13.709L27.288 18.874C26.9002 19.2672 26.9046 19.9003 27.2978 20.2881C27.691 20.676 28.3241 20.6716 28.712 20.2784L33.67 15.2517C34.3261 15.7227 35.1307 16 36 16C38.2091 16 40 14.2091 40 12C40 9.79086 38.2091 8 36 8ZM34 12C34 10.8954 34.8954 10 36 10C37.1046 10 38 10.8954 38 12C38 13.1046 37.1046 14 36 14C34.8954 14 34 13.1046 34 12Z" fill="#29707A"/>
<path fill-rule="evenodd" clip-rule="evenodd" d="M8 36C8 33.7909 9.79086 32 12 32C12.7418 32 13.4365 32.2019 14.032 32.5538L18.9691 27.6167C19.3596 27.2262 19.9928 27.2262 20.3833 27.6167C20.7738 28.0072 20.7738 28.6404 20.3833 29.0309L15.4462 33.968C15.7981 34.5636 16 35.2582 16 36C16 38.2091 14.2091 40 12 40C9.79086 40 8 38.2091 8 36ZM12 34C10.8954 34 10 34.8954 10 36C10 37.1046 10.8954 38 12 38C13.1046 38 14 37.1046 14 36C14 34.8954 13.1046 34 12 34Z" fill="#29707A"/>
<path fill-rule="evenodd" clip-rule="evenodd" d="M36 32C35.2582 32 34.5635 32.2019 33.968 32.5538L33.9643 32.55L29.0309 27.6167C28.6404 27.2262 28.0072 27.2262 27.6167 27.6167C27.2262 28.0072 27.2262 28.6404 27.6167 29.0309L32.55 33.9643L32.5538 33.968C32.2019 34.5635 32 35.2582 32 36C32 38.2091 33.7909 40 36 40C38.2091 40 40 38.2091 40 36C40 33.7909 38.2091 32 36 32ZM34 36C34 34.8954 34.8954 34 36 34C37.1046 34 38 34.8954 38 36C38 37.1046 37.1046 38 36 38C34.8954 38 34 37.1046 34 36Z" fill="#29707A"/>
<path fill-rule="evenodd" clip-rule="evenodd" d="M24 19C21.2386 19 19 21.2386 19 24C19 26.7614 21.2386 29 24 29C26.7614 29 29 26.7614 29 24C29 21.2386 26.7614 19 24 19ZM17 24C17 20.134 20.134 17 24 17C27.866 17 31 20.134 31 24C31 27.866 27.866 31 24 31C20.134 31 17 27.866 17 24Z" fill="#5FBEAC"/>
</svg>
