<svg width="48" height="48" viewBox="0 0 48 48" fill="none" xmlns="http://www.w3.org/2000/svg">
<path fill-rule="evenodd" clip-rule="evenodd" d="M25.0744 4.26315C31.7548 7.63994 37.8858 9.5038 40.2298 10.1443L40.2409 10.1473L40.2409 10.1474C41.1923 10.4192 42 11.2353 42 12.33V28.5978C42 30.6948 40.9958 32.6204 39.598 34.2934C38.195 35.9726 36.3217 37.4873 34.4025 38.7846C30.5616 41.3811 26.3722 43.2158 24.9152 43.8216L24.8976 43.8287C24.3176 44.0571 23.6824 44.0571 23.1024 43.8287L23.0865 43.8223C21.6206 43.2158 17.4311 41.3811 13.5919 38.7845C11.6735 37.4871 9.80158 35.9723 8.39974 34.2931C7.00297 32.6199 6 30.6945 6 28.5978V12.3436C6 11.2655 6.79029 10.4195 7.77107 10.1576C10.127 9.5002 16.2663 7.64988 22.9095 4.26404C23.5844 3.91228 24.3992 3.91199 25.0744 4.26315ZM24.1526 6.03804C24.056 5.98732 23.9297 5.98732 23.8331 6.03804L23.8224 6.04363L23.8224 6.04356C17.0051 9.51869 10.7173 11.4121 8.30246 12.0857L8.28878 12.0894C8.03833 12.1555 8 12.3119 8 12.3436V28.5978C8 30.0423 8.69487 31.5258 9.93507 33.0114C11.1702 34.4909 12.8743 35.8847 14.7124 37.1278C18.3774 39.6066 22.4119 41.3784 23.841 41.9701C23.9461 42.0099 24.0533 42.01 24.1584 41.9703C25.5828 41.3775 29.6164 39.606 33.2824 37.1277C35.1215 35.8845 36.827 34.4906 38.0632 33.011C39.3045 31.5253 40 30.042 40 28.5978V12.33C40 12.3095 39.994 12.2733 39.952 12.2239C39.9086 12.1727 39.8264 12.1098 39.6959 12.0717C37.2687 11.4081 31.0025 9.50138 24.1662 6.04506L24.1526 6.03804Z" fill="#29707A"/>
<path fill-rule="evenodd" clip-rule="evenodd" d="M31.6998 18.2857C32.0943 18.6722 32.1008 19.3053 31.7143 19.6998L21.9168 29.6998C21.7287 29.8918 21.4713 30 21.2025 30C20.9338 30 20.6763 29.8918 20.4882 29.6998L16.2857 25.4104C15.8992 25.0159 15.9057 24.3828 16.3002 23.9963C16.6947 23.6098 17.3278 23.6163 17.7143 24.0108L21.2025 27.5711L30.2857 18.3002C30.6722 17.9057 31.3053 17.8992 31.6998 18.2857Z" fill="#5FBEAC"/>
</svg>
