<svg width="48" height="48" viewBox="0 0 48 48" fill="none" xmlns="http://www.w3.org/2000/svg">
<path fill-rule="evenodd" clip-rule="evenodd" d="M24.0001 4C21.7609 4 20.0001 5.87438 20.0001 8.10651V10.8218C16.407 12.3833 14 15.9992 14 20.1809V26.9045L8.65996 33.2309L8.65274 33.2399C7.09389 35.1753 8.49358 38 10.9495 38H37.0506C39.4856 38 40.9406 35.1798 39.3641 33.237L39.3575 33.2288L34 26.9035L34 20.1809C34 15.9946 31.5976 12.3729 28.0001 10.8148V8.10651C28.0001 5.87438 26.2392 4 24.0001 4ZM26.0001 10.1928V8.10651C26.0001 6.91261 25.0695 6 24.0001 6C22.9307 6 22.0001 6.91261 22.0001 8.10651V10.1965C22.646 10.0676 23.3176 10 24.0096 10C24.6951 10 25.3603 10.0663 26.0001 10.1928ZM16 20.1809C16 15.632 19.4724 12 24.0096 12C28.544 12 32 15.6292 32 20.1809L32 27.6367L37.8165 34.5039C38.2746 35.0793 37.8774 36 37.0506 36H10.9495C10.1437 36 9.7296 35.103 10.2044 34.5018L16 27.6357V20.1809Z" fill="#29707A"/>
<path fill-rule="evenodd" clip-rule="evenodd" d="M29.3902 39.0793C29.8987 39.2947 30.1362 39.8816 29.9208 40.3902C29.0001 42.5629 26.6439 44 24 44C21.3538 44 19 42.553 18.0799 40.3917C17.8636 39.8836 18.1002 39.2963 18.6083 39.0799C19.1165 38.8636 19.7038 39.1002 19.9201 39.6083C20.4836 40.932 22.0412 42 24 42C25.9611 42 27.5163 40.9385 28.0793 39.6099C28.2947 39.1013 28.8816 38.8638 29.3902 39.0793Z" fill="#5FBEAC"/>
</svg>
