<svg width="48" height="48" viewBox="0 0 48 48" fill="none" xmlns="http://www.w3.org/2000/svg">
<path fill-rule="evenodd" clip-rule="evenodd" d="M38 4C38.5523 4 39 4.44772 39 5V11C39 11.5523 38.5523 12 38 12H32C31.4477 12 31 11.5523 31 11C31 10.4477 31.4477 10 32 10H37V5C37 4.44772 37.4477 4 38 4Z" fill="#29707A"/>
<path fill-rule="evenodd" clip-rule="evenodd" d="M9 37C9 36.4477 9.44772 36 10 36H16C16.5523 36 17 36.4477 17 37C17 37.5523 16.5523 38 16 38H11V43C11 43.5523 10.5523 44 10 44C9.44772 44 9 43.5523 9 43V37Z" fill="#29707A"/>
<path fill-rule="evenodd" clip-rule="evenodd" d="M24 5.95239C14.0285 5.95239 5.95239 14.0285 5.95239 24C5.95239 27.4337 6.38335 30.9358 7.86569 33.4994C8.14215 33.9775 7.97868 34.5892 7.50057 34.8657C7.02246 35.1422 6.41076 34.9787 6.13431 34.5006C4.37856 31.4642 3.95239 27.5187 3.95239 24C3.95239 12.9239 12.9239 3.95239 24 3.95239C29.4998 3.95239 35.0566 6.14237 38.7071 9.79289C39.0976 10.1834 39.0976 10.8166 38.7071 11.2071C38.3166 11.5976 37.6834 11.5976 37.2929 11.2071C34.0482 7.96239 29.0145 5.95239 24 5.95239Z" fill="#29707A"/>
<path fill-rule="evenodd" clip-rule="evenodd" d="M40.4994 14.1343C40.9775 13.8579 41.5892 14.0213 41.8657 14.4994C43.6063 17.5096 44.0476 20.43 44.0476 24C44.0476 35.0794 35.0728 44 24 44C18.5522 44 13.4749 42.3891 9.79289 38.7071C9.40237 38.3166 9.40237 37.6834 9.79289 37.2929C10.1834 36.9024 10.8166 36.9024 11.2071 37.2929C14.4204 40.5062 18.9335 42 24 42C33.9748 42 42.0476 33.9683 42.0476 24C42.0476 20.6176 41.6318 18.0904 40.1343 15.5006C39.8578 15.0225 40.0213 14.4108 40.4994 14.1343Z" fill="#29707A"/>
<path fill-rule="evenodd" clip-rule="evenodd" d="M26.4792 12.0423C26.734 11.9657 27.0088 11.9938 27.2429 12.1204L32.0535 14.7226C32.5376 14.9844 32.7191 15.5882 32.4597 16.0735L31.4927 17.8828C32.0147 18.5344 32.4429 19.245 32.7782 19.9937H35C35.5523 19.9937 36 20.4414 36 20.9937V26.405C36 26.9446 35.5719 27.3869 35.0326 27.4045L33.0061 27.4706C32.864 27.8461 32.6969 28.2196 32.4995 28.5903L32.4958 28.5971L32.4958 28.5971C32.3016 28.9549 32.0877 29.3053 31.8508 29.6414L32.919 31.382C33.2063 31.8502 33.0621 32.4626 32.596 32.7534L27.9516 35.6513C27.7256 35.7922 27.4528 35.8373 27.1936 35.7764C26.9343 35.7155 26.7101 35.5537 26.5705 35.3269L25.5 33.587C24.7076 33.7179 23.8924 33.7482 23.0778 33.6696L22.1148 35.4714C21.9894 35.706 21.7756 35.881 21.5208 35.9577C21.266 36.0343 20.9912 36.0062 20.7571 35.8796L15.9465 33.2774C15.4624 33.0156 15.2809 32.4118 15.5403 31.9265L16.5073 30.1172C15.9853 29.4656 15.5571 28.755 15.2218 28.0063H13C12.4477 28.0063 12 27.5586 12 27.0063V21.5C12 21.2344 12.1057 20.9797 12.2937 20.7921C12.4817 20.6045 12.7367 20.4994 13.0023 20.5L15.0023 20.5046C15.1426 20.1346 15.308 19.7645 15.5042 19.4029C15.6984 19.0451 15.9123 18.6947 16.1492 18.3587L15.081 16.618C14.7937 16.1498 14.9379 15.5374 15.404 15.2466L20.0484 12.3487C20.2744 12.2078 20.5472 12.1627 20.8064 12.2236C21.0657 12.2845 21.2899 12.4463 21.4295 12.6731L22.5 14.413C23.2924 14.2821 24.1076 14.2518 24.9222 14.3304L25.8852 12.5286C26.0106 12.294 26.2244 12.119 26.4792 12.0423ZM27.1753 14.3577L26.3584 15.8862C26.1543 16.2681 25.7276 16.4753 25.3013 16.3994C24.2793 16.2176 23.2378 16.2606 22.2554 16.5038C21.833 16.6084 21.3915 16.4278 21.1634 16.0572L20.2534 14.5782L17.3048 16.4179L18.2132 17.8981C18.4381 18.2645 18.4036 18.7337 18.1275 19.0633C17.8066 19.4464 17.5201 19.8815 17.262 20.357C17.0177 20.8071 16.8267 21.2933 16.6757 21.7946C16.5483 22.2179 16.158 22.5073 15.7159 22.5063L14 22.5023V26.0063H15.8942C16.3138 26.0063 16.6888 26.2682 16.8332 26.6622C17.1907 27.6379 17.7285 28.536 18.4431 29.2998C18.7357 29.6124 18.7967 30.0767 18.5948 30.4543L17.7732 31.9917L20.8247 33.6423L21.6416 32.1138C21.8457 31.7319 22.2724 31.5247 22.6987 31.6006C23.7207 31.7824 24.7622 31.7394 25.7446 31.4962C26.167 31.3916 26.6085 31.5722 26.8366 31.9428L27.7466 33.4218L30.6952 31.5821L29.7868 30.1019C29.5619 29.7355 29.5964 29.2663 29.8725 28.9367C30.1927 28.5545 30.4785 28.1206 30.7362 27.6464C30.9846 27.1796 31.1752 26.7004 31.3243 26.2054C31.448 25.7944 31.8202 25.5083 32.2492 25.4943L34 25.4371V21.9937H32.1058C31.6862 21.9937 31.3112 21.7318 31.1668 21.3378C30.8093 20.3621 30.2715 19.464 29.5569 18.7002C29.2643 18.3876 29.2033 17.9233 29.4052 17.5457L30.2268 16.0083L27.1753 14.3577Z" fill="#29707A"/>
<path fill-rule="evenodd" clip-rule="evenodd" d="M24 21C22.348 21 21 22.348 21 24C21 25.652 22.348 27 24 27C25.6538 27 27 25.661 27 24C27 22.348 25.652 21 24 21ZM19 24C19 21.2434 21.2434 19 24 19C26.7566 19 29 21.2434 29 24C29 26.7691 26.7548 29 24 29C21.2434 29 19 26.7566 19 24Z" fill="#5FBEAC"/>
</svg>
