<svg width="48" height="48" viewBox="0 0 48 48" fill="none" xmlns="http://www.w3.org/2000/svg">
<path fill-rule="evenodd" clip-rule="evenodd" d="M4.05474 10.9922C4.05474 10.4399 4.50245 9.99218 5.05474 9.99218L43 9.99218C43.5523 9.99218 44 10.4399 44.0001 10.9922C44.0001 11.5445 43.5523 11.9922 43.0001 11.9922L5.05474 11.9922C4.50245 11.9922 4.05474 11.5445 4.05474 10.9922Z" fill="#29707A"/>
<path fill-rule="evenodd" clip-rule="evenodd" d="M3.99931 36.9998C3.99942 36.4475 4.44723 35.9999 4.99951 36L42.9456 36.0078C43.4978 36.0079 43.9455 36.4557 43.9454 37.008C43.9452 37.5603 43.4974 38.0079 42.9451 38.0078L4.9991 38C4.44682 37.9999 3.99919 37.5521 3.99931 36.9998Z" fill="#29707A"/>
<path fill-rule="evenodd" clip-rule="evenodd" d="M4.99927 10.0762C5.55155 10.0762 5.99927 10.5239 5.99927 11.0762V20.1238C5.99927 20.6761 5.55155 21.1238 4.99927 21.1238C4.44698 21.1238 3.99927 20.6761 3.99927 20.1238V11.0762C3.99927 10.5239 4.44698 10.0762 4.99927 10.0762Z" fill="#29707A"/>
<path fill-rule="evenodd" clip-rule="evenodd" d="M4.99927 26.8762C5.55155 26.8762 5.99927 27.3239 5.99927 27.8762V36.9238C5.99927 37.4761 5.55155 37.9238 4.99927 37.9238C4.44698 37.9238 3.99927 37.4761 3.99927 36.9238V27.8762C3.99927 27.3239 4.44698 26.8762 4.99927 26.8762Z" fill="#29707A"/>
<path fill-rule="evenodd" clip-rule="evenodd" d="M43 10.0684C43.5523 10.0684 44 10.5161 44 11.0684V20.116C44 20.6683 43.5523 21.116 43 21.116C42.4477 21.116 42 20.6683 42 20.116V11.0684C42 10.5161 42.4477 10.0684 43 10.0684Z" fill="#29707A"/>
<path fill-rule="evenodd" clip-rule="evenodd" d="M43 26.8762C43.5523 26.8762 44 27.3239 44 27.8762V36.9238C44 37.4761 43.5523 37.9238 43 37.9238C42.4477 37.9238 42 37.4761 42 36.9238V27.8762C42 27.3239 42.4477 26.8762 43 26.8762Z" fill="#29707A"/>
<path fill-rule="evenodd" clip-rule="evenodd" d="M3.99927 20.1238C3.99927 19.5715 4.44698 19.1238 4.99927 19.1238C7.73591 19.1238 10.0134 21.272 10.0134 24C10.0134 26.728 7.73591 28.8762 4.99927 28.8762C4.44698 28.8762 3.99927 28.4285 3.99927 27.8762C3.99927 27.3239 4.44698 26.8762 4.99927 26.8762C6.69828 26.8762 8.01343 25.5577 8.01343 24C8.01343 22.4423 6.69828 21.1238 4.99927 21.1238C4.44698 21.1238 3.99927 20.6761 3.99927 20.1238Z" fill="#29707A"/>
<path fill-rule="evenodd" clip-rule="evenodd" d="M43 21.1238C41.3112 21.1238 39.9988 22.4393 39.9988 24C39.9988 25.5607 41.3112 26.8762 43 26.8762C43.5523 26.8762 44 27.3239 44 27.8762C44 28.4285 43.5523 28.8762 43 28.8762C40.2674 28.8762 37.9988 26.725 37.9988 24C37.9988 21.275 40.2674 19.1238 43 19.1238C43.5523 19.1238 44 19.5715 44 20.1238C44 20.6761 43.5523 21.1238 43 21.1238Z" fill="#29707A"/>
<path fill-rule="evenodd" clip-rule="evenodd" d="M15.0059 14.0078C15.5581 14.0068 16.0067 14.4536 16.0078 15.0059L16.0116 17.0059C16.0127 17.5582 15.5658 18.0067 15.0135 18.0078C14.4613 18.0089 14.0127 17.562 14.0116 17.0097L14.0078 15.0097C14.0067 14.4574 14.4536 14.0089 15.0059 14.0078Z" fill="#5FBEAC"/>
<path fill-rule="evenodd" clip-rule="evenodd" d="M14.9893 22C15.5415 22 15.9893 22.4477 15.9893 23V25C15.9893 25.5523 15.5415 26 14.9893 26C14.437 26 13.9893 25.5523 13.9893 25V23C13.9893 22.4477 14.437 22 14.9893 22Z" fill="#5FBEAC"/>
<path fill-rule="evenodd" clip-rule="evenodd" d="M15.0049 29.9979C15.5572 29.9979 16.0049 30.4456 16.0049 30.9979V32.9979C16.0049 33.5502 15.5572 33.9979 15.0049 33.9979C14.4526 33.9979 14.0049 33.5502 14.0049 32.9979V30.9979C14.0049 30.4456 14.4526 29.9979 15.0049 29.9979Z" fill="#5FBEAC"/>
</svg>
