<svg width="48" height="48" viewBox="0 0 48 48" fill="none" xmlns="http://www.w3.org/2000/svg">
<path fill-rule="evenodd" clip-rule="evenodd" d="M13 6C10.2386 6 8 8.23858 8 11C8 13.7614 10.2386 16 13 16C15.7614 16 18 13.7614 18 11C18 8.23858 15.7614 6 13 6ZM6 11C6 7.13401 9.13401 4 13 4C16.866 4 20 7.13401 20 11C20 14.866 16.866 18 13 18C9.13401 18 6 14.866 6 11Z" fill="#29707A"/>
<path fill-rule="evenodd" clip-rule="evenodd" d="M18.5238 11C18.5238 10.4477 18.9715 10 19.5238 10H31.9048C36.1428 10 39.5714 13.4287 39.5714 17.6667C39.5714 21.9047 36.1428 25.3333 31.9048 25.3333H16.6667C13.5332 25.3333 11 27.8666 11 31C11 34.1334 13.5332 36.6667 16.6667 36.6667H28.5C29.0523 36.6667 29.5 37.1144 29.5 37.6667C29.5 38.219 29.0523 38.6667 28.5 38.6667H16.6667C12.4287 38.6667 9 35.238 9 31C9 26.762 12.4287 23.3333 16.6667 23.3333H31.9048C35.0382 23.3333 37.5714 20.8001 37.5714 17.6667C37.5714 14.5332 35.0382 12 31.9048 12H19.5238C18.9715 12 18.5238 11.5523 18.5238 11Z" fill="#29707A"/>
<path fill-rule="evenodd" clip-rule="evenodd" d="M35 32C32.2386 32 30 34.2386 30 37C30 39.7614 32.2386 42 35 42C37.7614 42 40 39.7614 40 37C40 34.2386 37.7614 32 35 32ZM28 37C28 33.134 31.134 30 35 30C38.866 30 42 33.134 42 37C42 40.866 38.866 44 35 44C31.134 44 28 40.866 28 37Z" fill="#5FBEAC"/>
</svg>
