<svg width="48" height="48" viewBox="0 0 48 48" fill="none" xmlns="http://www.w3.org/2000/svg">
<path fill-rule="evenodd" clip-rule="evenodd" d="M41.3424 26.6578C40.4653 25.7807 39.0412 25.7807 38.1642 26.6578L26.8641 37.9579L26.0294 41.2788C26.0257 41.2997 26.0213 41.3204 26.0162 41.341C25.9241 41.7162 26.2702 42.0789 26.668 41.9841C26.6689 41.9839 26.6699 41.9836 26.6708 41.9834L30.0424 41.136L41.3396 29.8484C41.3401 29.8479 41.3406 29.8474 41.341 29.847C42.2217 28.958 42.2174 27.5328 41.3424 26.6578ZM36.75 25.2435C38.408 23.5855 41.0985 23.5855 42.7566 25.2435C44.4161 26.9031 44.4122 29.5915 42.7593 31.2571L42.7563 31.2602L31.2607 42.7459C31.1329 42.8736 30.9729 42.9643 30.7977 43.0084L27.1439 43.9267C25.3235 44.3699 23.6626 42.7526 24.0578 40.9337C24.0624 40.9052 24.0682 40.877 24.0752 40.849L24.9917 37.2024C25.0358 37.027 25.1266 36.8669 25.2545 36.7391L36.75 25.2435Z" fill="#5FBEAC"/>
<path fill-rule="evenodd" clip-rule="evenodd" d="M25.0713 4.26536C31.7599 7.66138 37.8925 9.5301 40.2352 10.176L40.2436 10.1783L40.2436 10.1783C41.2033 10.452 42 11.274 42 12.3646V21C42 21.5523 41.5523 22 41 22C40.4477 22 40 21.5523 40 21V12.3646C40 12.3393 39.9924 12.3015 39.9515 12.2529C39.9091 12.2026 39.8284 12.1403 39.6985 12.1026C37.2766 11.4346 31.0072 9.52293 24.1604 6.04591L24.1481 6.03967L24.1482 6.03958C24.0437 5.98472 23.9221 5.99062 23.841 6.03438L23.8216 6.04455C16.998 9.53561 10.7128 11.4376 8.30375 12.1216L8.2907 12.1253L8.29067 12.1252C8.0373 12.1934 8 12.348 8 12.3842V28.7249C8 30.8082 9.52607 32.9651 11.9508 35.035C14.3288 37.065 17.3413 38.8165 19.8295 40.1132C20.3193 40.3684 20.5094 40.9724 20.2542 41.4622C19.9989 41.9519 19.395 42.142 18.9052 41.8868C16.3743 40.5678 13.2032 38.7338 10.6523 36.5561C8.14807 34.4184 6 31.7455 6 28.7249V12.3842C6 11.3063 6.78324 10.4631 7.76314 10.196C10.1187 9.527 16.2541 7.6686 22.9024 4.26828C23.5795 3.90783 24.3975 3.91429 25.0713 4.26536Z" fill="#29707A"/>
</svg>
