<svg width="48" height="48" viewBox="0 0 48 48" fill="none" xmlns="http://www.w3.org/2000/svg">
<path fill-rule="evenodd" clip-rule="evenodd" d="M21.7784 16.0005C22.1833 16.0134 22.5405 16.2694 22.6828 16.6487L26.1919 26H39C39.5523 26 40 26.4477 40 27C40 27.5523 39.5523 28 39 28H25.499C25.0823 28 24.7092 27.7415 24.5628 27.3513L21.6631 19.6239L18.1615 27.4101C18.0001 27.7691 17.6431 28 17.2495 28H9C8.44772 28 8 27.5523 8 27C8 26.4477 8.44772 26 9 26H16.6028L20.8345 16.5899C21.0007 16.2204 21.3734 15.9876 21.7784 16.0005Z" fill="#5FBEAC"/>
<path fill-rule="evenodd" clip-rule="evenodd" d="M20.2533 9.88376C18.513 8.65639 16.2573 7.67851 13.7642 8.09982L13.7625 8.10009C11.8478 8.42042 10.284 9.53466 9.07051 10.8746C7.85651 12.2152 7.05083 13.7206 6.65739 14.6752C5.24963 18.1042 6.10804 22.1206 9.22163 26.8081C12.2376 31.3485 17.2603 36.3409 23.9032 41.716C30.5494 36.3297 35.6224 31.297 38.6888 26.7185C41.8571 21.9878 42.7587 17.942 41.3597 14.5255C40.9661 13.5815 40.1639 12.1468 38.9547 10.8729C37.7476 9.60121 36.1821 8.53706 34.2535 8.21371L34.2533 8.21368C31.7624 7.7955 29.5029 8.7515 27.7608 9.95066C26.023 11.1469 24.9179 12.5071 24.8007 12.6594C24.6114 12.9054 24.3186 13.0496 24.0082 13.0496C23.6978 13.0496 23.405 12.9054 23.2157 12.6594C23.0901 12.4963 21.9876 11.1069 20.2533 9.88376ZM24.016 10.5304C23.4268 9.90117 22.5355 9.04594 21.406 8.24935C19.4491 6.86922 16.6566 5.58299 13.4318 6.12763C10.9299 6.54642 8.98897 7.98518 7.58806 9.53214C6.18778 11.0784 5.26951 12.7937 4.80797 13.9139L4.80751 13.915C3.03349 18.2353 4.27913 22.9819 7.55567 27.9147C10.8361 32.8533 16.2691 38.1687 23.2787 43.7807C23.6443 44.0733 24.164 44.0731 24.5293 43.7801C31.5389 38.1588 37.02 32.8043 40.3505 27.8314C43.6737 22.8695 44.981 18.0868 43.2091 13.764L43.2069 13.7587C42.7358 12.6279 41.8096 10.9755 40.4053 9.496C38.9978 8.01325 37.0632 6.65693 34.5844 6.24128M24.016 10.5304C24.6088 9.91219 25.5005 9.07859 26.6268 8.30324C28.5869 6.95401 31.3758 5.70268 34.5842 6.24124" fill="#29707A"/>
</svg>
