<svg width="48" height="48" viewBox="0 0 48 48" fill="none" xmlns="http://www.w3.org/2000/svg">
<path fill-rule="evenodd" clip-rule="evenodd" d="M25 27.5C25 31.6421 21.6421 35 17.5 35C13.3579 35 10 31.6421 10 27.5C10 23.3579 13.3579 20 17.5 20C21.6421 20 25 23.3579 25 27.5ZM22.9776 28C22.725 30.8033 20.369 33 17.5 33C14.4624 33 12 30.5376 12 27.5C12 24.9824 13.6915 22.86 16 22.207V26C16 27.1046 16.8954 28 18 28H22.9776ZM22.793 26H18V22.0224C20.2952 22.2292 22.1838 23.846 22.793 26Z" fill="#5FBEAC"/>
<path d="M30 25C29.4477 25 29 25.4477 29 26C29 26.5523 29.4477 27 30 27H37C37.5523 27 38 26.5523 38 26C38 25.4477 37.5523 25 37 25H30Z" fill="#5FBEAC"/>
<path d="M30 30C29.4477 30 29 30.4477 29 31C29 31.5523 29.4477 32 30 32H37C37.5523 32 38 31.5523 38 31C38 30.4477 37.5523 30 37 30H30Z" fill="#5FBEAC"/>
<path d="M11.13 9H11.87C12.4941 9 13 9.4643 13 10.037V10.963C13 11.5357 12.4941 12 11.87 12H11.13C10.5059 12 10 11.5357 10 10.963V10.037C10 9.4643 10.5059 9 11.13 9Z" fill="#29707A"/>
<path d="M16.87 9H16.13C15.5059 9 15 9.4643 15 10.037V10.963C15 11.5357 15.5059 12 16.13 12H16.87C17.4941 12 18 11.5357 18 10.963V10.037C18 9.4643 17.4941 9 16.87 9Z" fill="#29707A"/>
<path d="M21.13 9H21.87C22.4941 9 23 9.4643 23 10.037V10.963C23 11.5357 22.4941 12 21.87 12H21.13C20.5059 12 20 11.5357 20 10.963V10.037C20 9.4643 20.5059 9 21.13 9Z" fill="#29707A"/>
<path fill-rule="evenodd" clip-rule="evenodd" d="M4 10.4851C4 7.58098 6.09894 5 8.952 5H39.048C41.9011 5 44 7.58098 44 10.4851V39.6928C44 42.5384 41.8659 45 39.049 45H8.95101C6.13414 45 4 42.5384 4 39.6928V10.4851ZM42 10.4851V14H6V10.4851C6 8.43882 7.43506 7 8.952 7H39.048C40.5649 7 42 8.43882 42 10.4851ZM6 16H42V39.6928C42 41.6012 40.601 43 39.049 43H8.95101C7.39897 43 6 41.6012 6 39.6928V16Z" fill="#29707A"/>
</svg>
