<svg width="48" height="48" viewBox="0 0 48 48" fill="none" xmlns="http://www.w3.org/2000/svg">
<path d="M14.9695 23.7549C14.8341 23.2195 14.2903 22.8952 13.7549 23.0306C13.2194 23.1659 12.8951 23.7097 13.0305 24.2452L15.5734 34.3023C15.7087 34.8378 16.2525 35.1621 16.788 35.0267C17.3234 34.8913 17.6477 34.3475 17.5123 33.8121L14.9695 23.7549Z" fill="#29707A"/>
<path d="M34.5123 24.2452C34.6477 23.7097 34.3234 23.1659 33.788 23.0306C33.2525 22.8952 32.7087 23.2195 32.5734 23.7549L30.0305 33.8121C29.8951 34.3475 30.2194 34.8913 30.7549 35.0267C31.2903 35.1621 31.8341 34.8378 31.9695 34.3023L34.5123 24.2452Z" fill="#29707A"/>
<path d="M24 23.0001C24.5523 23.0001 25 23.4478 25 24.0001V34.0001C25 34.5523 24.5523 35.0001 24 35.0001C23.4477 35.0001 23 34.5523 23 34.0001V24.0001C23 23.4478 23.4477 23.0001 24 23.0001Z" fill="#29707A"/>
<path fill-rule="evenodd" clip-rule="evenodd" d="M5.00001 17.0001C4.69911 17.0001 4.4142 17.1356 4.2243 17.369C4.03441 17.6024 3.95971 17.9089 4.02092 18.2035L8.19142 38.2754C8.64357 40.4595 10.6179 42.0001 12.8565 42.0001H35.533C37.9836 42.0001 40.1168 40.276 40.5366 37.8746L43.985 18.1725C44.036 17.8815 43.9557 17.5829 43.7656 17.3568C43.5756 17.1306 43.2954 17.0001 43 17.0001H5.00001ZM10.1496 37.8685L6.22914 19.0001H41.8098L38.5664 37.5303C38.3211 38.9344 37.0533 40.0001 35.533 40.0001H12.8565C11.5234 40.0001 10.4008 39.0832 10.1496 37.8685Z" fill="#29707A"/>
<path fill-rule="evenodd" clip-rule="evenodd" d="M30.5939 4.08619C31.0986 3.86189 31.6895 4.08918 31.9138 4.59387L35.9138 13.5939C36.1381 14.0986 35.9108 14.6895 35.4061 14.9138C34.9015 15.1381 34.3105 14.9108 34.0862 14.4061L30.0862 5.40614C29.8619 4.90146 30.0892 4.3105 30.5939 4.08619Z" fill="#5FBEAC"/>
<path fill-rule="evenodd" clip-rule="evenodd" d="M17.4061 4.08619C17.9108 4.3105 18.1381 4.90146 17.9138 5.40614L13.9138 14.4061C13.6895 14.9108 13.0986 15.1381 12.5939 14.9138C12.0892 14.6895 11.8619 14.0986 12.0862 13.5939L16.0862 4.59387C16.3105 4.08918 16.9015 3.86189 17.4061 4.08619Z" fill="#5FBEAC"/>
</svg>
