<svg width="48" height="48" viewBox="0 0 48 48" fill="none" xmlns="http://www.w3.org/2000/svg">
<path fill-rule="evenodd" clip-rule="evenodd" d="M4 7C4 5.34315 5.34315 4 7 4H19C20.6569 4 22 5.34315 22 7V19C22 20.6569 20.6569 22 19 22H7C5.34315 22 4 20.6569 4 19V7ZM7 6C6.44772 6 6 6.44772 6 7V19C6 19.5523 6.44772 20 7 20H19C19.5523 20 20 19.5523 20 19V7C20 6.44772 19.5523 6 19 6H7Z" fill="#29707A"/>
<path fill-rule="evenodd" clip-rule="evenodd" d="M4 29C4 27.3431 5.34315 26 7 26H19C20.6569 26 22 27.3431 22 29V41C22 42.6569 20.6569 44 19 44H7C5.34315 44 4 42.6569 4 41V29ZM7 28C6.44772 28 6 28.4477 6 29V41C6 41.5523 6.44772 42 7 42H19C19.5523 42 20 41.5523 20 41V29C20 28.4477 19.5523 28 19 28H7Z" fill="#29707A"/>
<path fill-rule="evenodd" clip-rule="evenodd" d="M26 29C26 27.3431 27.3431 26 29 26H41C42.6569 26 44 27.3431 44 29V41C44 42.6569 42.6569 44 41 44H29C27.3431 44 26 42.6569 26 41V29ZM29 28C28.4477 28 28 28.4477 28 29V41C28 41.5523 28.4477 42 29 42H41C41.5523 42 42 41.5523 42 41V29C42 28.4477 41.5523 28 41 28H29Z" fill="#29707A"/>
<path fill-rule="evenodd" clip-rule="evenodd" d="M35 6C31.134 6 28 9.13401 28 13C28 16.866 31.134 20 35 20C38.866 20 42 16.866 42 13C42 9.13401 38.866 6 35 6ZM26 13C26 8.02944 30.0294 4 35 4C39.9706 4 44 8.02944 44 13C44 17.9706 39.9706 22 35 22C30.0294 22 26 17.9706 26 13Z" fill="#5FBEAC"/>
</svg>
