<svg width="48" height="48" viewBox="0 0 48 48" fill="none" xmlns="http://www.w3.org/2000/svg">
<path d="M15.5143 19H14.4857C13.6652 19 13 19.6181 13 20.3805V21.6195C13 22.3819 13.6652 23 14.4857 23H15.5143C16.3348 23 17 22.3819 17 21.6195V20.3805C17 19.6181 16.3348 19 15.5143 19Z" fill="#5FBEAC"/>
<path d="M24.5143 19H23.4857C22.6652 19 22 19.6181 22 20.3805V21.6195C22 22.3819 22.6652 23 23.4857 23H24.5143C25.3348 23 26 22.3819 26 21.6195V20.3805C26 19.6181 25.3348 19 24.5143 19Z" fill="#5FBEAC"/>
<path d="M33.5143 19H32.4857C31.6652 19 31 19.6181 31 20.3805V21.6195C31 22.3819 31.6652 23 32.4857 23H33.5143C34.3348 23 35 22.3819 35 21.6195V20.3805C35 19.6181 34.3348 19 33.5143 19Z" fill="#5FBEAC"/>
<path fill-rule="evenodd" clip-rule="evenodd" d="M4 12.4063C4 8.86474 6.88328 6 10.4245 6H37.5755C41.1167 6 44 8.86474 44 12.4063V29.9909C44 33.6458 40.9295 36 37.5 36H22.8286L15.2547 41.5803C15.2423 41.5894 15.2298 41.5982 15.217 41.6067C14.848 41.8533 14.4247 41.9916 13.9799 41.9679C13.5364 41.9442 13.152 41.7636 12.854 41.5095C12.2779 41.018 12 40.247 12 39.5V36H10.5C7.08114 36 4 33.6469 4 29.9909V12.4063ZM10.4245 8C7.98072 8 6 9.97643 6 12.4063V29.9909C6 32.3063 7.93386 34 10.5 34H13C13.5523 34 14 34.4477 14 35V39.5C14 39.6377 14.0262 39.7556 14.0625 39.8443C14.0791 39.885 14.0962 39.9159 14.1112 39.9385L21.9068 34.1949C22.0787 34.0683 22.2865 34 22.5 34H37.5C40.0745 34 42 32.3073 42 29.9909V12.4063C42 9.97643 40.0193 8 37.5755 8H10.4245ZM14.0511 39.9733C14.0511 39.9733 14.0518 39.973 14.0531 39.9727L14.0511 39.9733Z" fill="#29707A"/>
</svg>
