<svg width="48" height="48" viewBox="0 0 48 48" fill="none" xmlns="http://www.w3.org/2000/svg">
<path fill-rule="evenodd" clip-rule="evenodd" d="M40 8H8C6.89543 8 6 8.89543 6 10V38C6 39.1046 6.89543 40 8 40H40C41.1046 40 42 39.1046 42 38V10C42 8.89543 41.1046 8 40 8ZM8 6C5.79086 6 4 7.79086 4 10V38C4 40.2091 5.79086 42 8 42H40C42.2091 42 44 40.2091 44 38V10C44 7.79086 42.2091 6 40 6H8Z" fill="#29707A"/>
<path fill-rule="evenodd" clip-rule="evenodd" d="M26 15C26 14.4477 26.4477 14 27 14H39C39.5523 14 40 14.4477 40 15C40 15.5523 39.5523 16 39 16H27C26.4477 16 26 15.5523 26 15Z" fill="#5FBEAC"/>
<path fill-rule="evenodd" clip-rule="evenodd" d="M26 20C26 19.4477 26.4477 19 27 19H39C39.5523 19 40 19.4477 40 20C40 20.5523 39.5523 21 39 21H27C26.4477 21 26 20.5523 26 20Z" fill="#5FBEAC"/>
<path fill-rule="evenodd" clip-rule="evenodd" d="M26 25C26 24.4477 26.4477 24 27 24H34C34.5523 24 35 24.4477 35 25C35 25.5523 34.5523 26 34 26H27C26.4477 26 26 25.5523 26 25Z" fill="#5FBEAC"/>
<path fill-rule="evenodd" clip-rule="evenodd" d="M10.5875 28.5301C10.1848 28.8557 9.99488 29.2428 9.99986 29.6167L10 29.63L9.99995 32H21.9999V29.4933C22.0052 28.6991 21.319 28 20.1899 28H12.0799C11.5484 28 10.9943 28.2011 10.5875 28.5301ZM9.32993 26.9749C10.0856 26.3639 11.0815 26 12.0799 26H20.1899C22.0998 26 24.0126 27.2995 23.9999 29.5031V33C23.9999 33.5523 23.5522 34 22.9999 34H8.99995C8.44766 34 7.99995 33.5523 7.99995 33V29.636C7.98755 28.5132 8.57175 27.588 9.32993 26.9749Z" fill="#29707A"/>
<path fill-rule="evenodd" clip-rule="evenodd" d="M11 19C11 16.2377 13.2377 14 16 14C18.7623 14 21 16.2377 21 19C21 21.7623 18.7623 24 16 24C13.2377 24 11 21.7623 11 19ZM16 16C14.3423 16 13 17.3423 13 19C13 20.6577 14.3423 22 16 22C17.6577 22 19 20.6577 19 19C19 17.3423 17.6577 16 16 16Z" fill="#29707A"/>
</svg>
