<svg width="48" height="48" viewBox="0 0 48 48" fill="none" xmlns="http://www.w3.org/2000/svg">
<path fill-rule="evenodd" clip-rule="evenodd" d="M13.0019 6C11.3445 6 10 7.3476 10 8.9995V39.0005C10 40.6524 11.3445 42 13.0019 42H21C21.5523 42 22 42.4477 22 43C22 43.5523 21.5523 44 21 44H13.0019C10.2395 44 8 41.7566 8 39.0005V8.9995C8 6.2434 10.2395 4 13.0019 4H29L29.7069 4.29268L39.7069 14.2867L40 14.994V21C40 21.5523 39.5523 22 39 22C38.4477 22 38 21.5523 38 21V15.4084L28.586 6H13.0019Z" fill="#29707A"/>
<path fill-rule="evenodd" clip-rule="evenodd" d="M41.3424 26.6578C40.4653 25.7807 39.0412 25.7807 38.1642 26.6578L26.8641 37.9579L26.0294 41.2788C26.0257 41.2997 26.0213 41.3204 26.0162 41.341C25.9241 41.7162 26.2702 42.0789 26.668 41.9841C26.6689 41.9839 26.6699 41.9836 26.6708 41.9834L30.0424 41.136L41.3396 29.8484C41.3401 29.8479 41.3406 29.8474 41.341 29.847C42.2217 28.958 42.2174 27.5328 41.3424 26.6578ZM36.75 25.2435C38.408 23.5855 41.0985 23.5855 42.7566 25.2435C44.4161 26.9031 44.4122 29.5915 42.7593 31.2571L42.7563 31.2602L31.2607 42.7459C31.1329 42.8736 30.9729 42.9643 30.7977 43.0084L27.1439 43.9267C25.3235 44.3699 23.6626 42.7526 24.0578 40.9337C24.0624 40.9052 24.0682 40.877 24.0752 40.849L24.9917 37.2024C25.0358 37.027 25.1266 36.8669 25.2545 36.7391L36.75 25.2435Z" fill="#5FBEAC"/>
<path fill-rule="evenodd" clip-rule="evenodd" d="M29 4C29.5523 4 30 4.44772 30 5V13.0037C30 13.5533 30.4499 14 30.9963 14H39C39.5523 14 40 14.4477 40 15C40 15.5523 39.5523 16 39 16H30.9963C29.3514 16 28 14.6639 28 13.0037V5C28 4.44772 28.4477 4 29 4Z" fill="#29707A"/>
<path fill-rule="evenodd" clip-rule="evenodd" d="M12 12C12 11.4477 12.4477 11 13 11H25C25.5523 11 26 11.4477 26 12C26 12.5523 25.5523 13 25 13H13C12.4477 13 12 12.5523 12 12ZM12 18C12 17.4477 12.4477 17 13 17H25C25.5523 17 26 17.4477 26 18C26 18.5523 25.5523 19 25 19H13C12.4477 19 12 18.5523 12 18ZM12 24C12 23.4477 12.4477 23 13 23H19.9946C20.5469 23 20.9946 23.4477 20.9946 24C20.9946 24.5523 20.5469 25 19.9946 25H13C12.4477 25 12 24.5523 12 24Z" fill="#29707A"/>
</svg>
