<svg width="48" height="48" viewBox="0 0 48 48" fill="none" xmlns="http://www.w3.org/2000/svg">
<path fill-rule="evenodd" clip-rule="evenodd" d="M8 37C8 36.4477 8.44772 36 9 36H20C20.5523 36 21 36.4477 21 37C21 37.5523 20.5523 38 20 38H9C8.44772 38 8 37.5523 8 37Z" fill="#5FBEAC"/>
<path fill-rule="evenodd" clip-rule="evenodd" d="M27 37C27 36.4477 27.4477 36 28 36H39C39.5523 36 40 36.4477 40 37C40 37.5523 39.5523 38 39 38H28C27.4477 38 27 37.5523 27 37Z" fill="#5FBEAC"/>
<path fill-rule="evenodd" clip-rule="evenodd" d="M24.8286 5.94287C19.3956 5.94287 15 10.1417 15 15.5V16C15 16.0632 14.9941 16.1251 14.9829 16.1851C15.0232 16.3593 15.0172 16.5465 14.956 16.7284C14.7799 17.2519 14.2127 17.5334 13.6893 17.3572L13.0053 17.1271C11.7441 16.8433 10.6619 16.8842 9.90646 17.1797C7.51272 18.1144 6 20.3765 6 22.717C6 26.1469 8.78756 29 12.3073 29H34.7424C39.0187 29 42 25.5804 42 20.8891C42 19.1039 41.2195 17.3711 39.9883 16.0788C38.7546 14.7839 37.1366 14 35.5311 14C34.0617 14 32.4182 14.7191 31.5792 15.3152C31.129 15.6351 30.5047 15.5294 30.1848 15.0792C29.8649 14.629 29.9706 14.0047 30.4208 13.6848C31.2195 13.1173 32.5428 12.4682 33.9823 12.1682C32.5908 8.49475 29.0213 5.94287 24.8286 5.94287ZM36.0481 12.019C34.5234 7.26801 30.0595 3.94287 24.8286 3.94287C18.4939 3.94287 13.2276 8.76161 13.0072 15.087C11.6566 14.842 10.3086 14.8748 9.17781 15.3172C6.04152 16.542 4 19.5268 4 22.717C4 27.2425 7.67405 31 12.3073 31H23V33.1003C20.7196 33.5645 19 35.584 19 38C19 40.7584 21.2416 43 24 43C26.7584 43 29 40.7584 29 38C29 35.584 27.2804 33.5645 25 33.1003V31H34.7424C40.3486 31 44 26.4452 44 20.8891C44 18.5262 42.9751 16.3144 41.4363 14.6992C40.0182 13.2106 38.1057 12.1702 36.0481 12.019ZM24 35C22.3462 35 21 36.3462 21 38C21 39.6538 22.3462 41 24 41C25.6538 41 27 39.6538 27 38C27 36.3462 25.6538 35 24 35Z" fill="#29707A"/>
</svg>
