<svg width="48" height="48" viewBox="0 0 48 48" fill="none" xmlns="http://www.w3.org/2000/svg">
<path fill-rule="evenodd" clip-rule="evenodd" d="M24 5.95239C14.0326 5.95239 5.95239 14.0326 5.95239 24C5.95239 33.9674 14.0326 42.0476 24 42.0476C33.9674 42.0476 42.0476 33.9674 42.0476 24C42.0476 14.0326 33.9674 5.95239 24 5.95239ZM3.95239 24C3.95239 12.928 12.928 3.95239 24 3.95239C35.072 3.95239 44.0476 12.928 44.0476 24C44.0476 35.072 35.072 44.0476 24 44.0476C12.928 44.0476 3.95239 35.072 3.95239 24Z" fill="#29707A"/>
<path fill-rule="evenodd" clip-rule="evenodd" d="M33.3641 14.6358C33.6532 14.9248 33.7372 15.3607 33.5763 15.7364L28.3858 27.8602C28.2552 28.1653 27.9817 28.3858 27.6558 28.4486C27.33 28.5114 26.9941 28.4085 26.7594 28.1738L19.8261 21.2404C19.5914 21.0058 19.4885 20.6699 19.5513 20.344C19.6141 20.0182 19.8345 19.7447 20.1396 19.614L32.2635 14.4236C32.6392 14.2627 33.0751 14.3467 33.3641 14.6358ZM22.2852 20.8711L27.1288 25.7147L30.7549 17.245L22.2852 20.8711Z" fill="#5FBEAC"/>
<path fill-rule="evenodd" clip-rule="evenodd" d="M20.344 19.5514C20.6699 19.4886 21.0057 19.5916 21.2404 19.8262L28.1737 26.7596C28.4084 26.9942 28.5114 27.3301 28.4485 27.656C28.3857 27.9819 28.1653 28.2553 27.8602 28.386L15.7364 33.5764C15.3606 33.7373 14.9247 33.6533 14.6357 33.3643C14.3467 33.0752 14.2626 32.6394 14.4235 32.2636L19.614 20.1398C19.7446 19.8347 20.0181 19.6142 20.344 19.5514ZM20.871 22.2853L17.2449 30.755L25.7147 27.1289L20.871 22.2853Z" fill="#5FBEAC"/>
</svg>
