<svg width="48" height="48" viewBox="0 0 48 48" fill="none" xmlns="http://www.w3.org/2000/svg">
<path fill-rule="evenodd" clip-rule="evenodd" d="M32 8H21C20.4477 8 20 8.44772 20 9V22H13.9C13.4367 19.7178 11.419 18 9 18C6.23858 18 4 20.2386 4 23C4 25.7614 6.23858 28 9 28C11.419 28 13.4367 26.2822 13.9 24H20V39C20 39.5523 20.4477 40 21 40H33C33.5523 40 34 39.5523 34 39C34 38.4477 33.5523 38 33 38H22V24H33C33.5523 24 34 23.5523 34 23C34 22.4477 33.5523 22 33 22H22V10H32C32.5523 10 33 9.55228 33 9C33 8.44772 32.5523 8 32 8ZM12 23C12 21.3431 10.6569 20 9 20C7.34315 20 6 21.3431 6 23C6 24.6569 7.34315 26 9 26C10.6569 26 12 24.6569 12 23Z" fill="#29707A"/>
<path fill-rule="evenodd" clip-rule="evenodd" d="M37 20C35.3431 20 34 21.3431 34 23C34 24.6569 35.3431 26 37 26C38.6569 26 40 24.6569 40 23C40 21.3431 38.6569 20 37 20ZM32 23C32 20.2386 34.2386 18 37 18C39.7614 18 42 20.2386 42 23C42 25.7614 39.7614 28 37 28C34.2386 28 32 25.7614 32 23Z" fill="#5FBEAC"/>
<path fill-rule="evenodd" clip-rule="evenodd" d="M37 6C35.3431 6 34 7.34314 34 9C34 10.6569 35.3431 12 37 12C38.6569 12 40 10.6569 40 9C40 7.34315 38.6569 6 37 6ZM32 9C32 6.23858 34.2386 4 37 4C39.7614 4 42 6.23858 42 9C42 11.7614 39.7614 14 37 14C34.2386 14 32 11.7614 32 9Z" fill="#5FBEAC"/>
<path fill-rule="evenodd" clip-rule="evenodd" d="M37 36C35.3431 36 34 37.3431 34 39C34 40.6569 35.3431 42 37 42C38.6569 42 40 40.6569 40 39C40 37.3431 38.6569 36 37 36ZM32 39C32 36.2386 34.2386 34 37 34C39.7614 34 42 36.2386 42 39C42 41.7614 39.7614 44 37 44C34.2386 44 32 41.7614 32 39Z" fill="#5FBEAC"/>
</svg>
