<svg width="48" height="48" viewBox="0 0 48 48" fill="none" xmlns="http://www.w3.org/2000/svg">
<path fill-rule="evenodd" clip-rule="evenodd" d="M24 10C16.871 10 10.3982 12.9383 5.71289 17.7013C5.32559 18.095 4.69245 18.1002 4.29873 17.7129C3.90501 17.3256 3.89981 16.6924 4.28711 16.2987C9.3298 11.1725 16.309 8 24 8C31.691 8 38.6702 11.1725 43.7129 16.2987C44.1002 16.6924 44.095 17.3256 43.7013 17.7129C43.3076 18.1002 42.6744 18.095 42.2871 17.7013C37.6018 12.9383 31.129 10 24 10Z" fill="#29707A"/>
<path fill-rule="evenodd" clip-rule="evenodd" d="M24 19C19.1799 19 14.832 20.8177 11.679 23.7341C11.2736 24.1091 10.6409 24.0845 10.2659 23.679C9.89087 23.2736 9.91553 22.6409 10.321 22.2659C13.8408 19.0101 18.6728 17 24 17C29.3272 17 34.1592 19.0101 37.679 22.2659C38.0845 22.6409 38.1091 23.2736 37.7341 23.679C37.3591 24.0845 36.7264 24.1091 36.321 23.7341C33.168 20.8177 28.8201 19 24 19Z" fill="#29707A"/>
<path fill-rule="evenodd" clip-rule="evenodd" d="M24 27C21.5582 27 19.3328 28.0264 17.7188 29.6952C17.3349 30.0922 16.7018 30.1028 16.3048 29.7188C15.9078 29.3349 15.8972 28.7018 16.2812 28.3048C18.2486 26.2706 20.9835 25 24 25C27.0165 25 29.7514 26.2706 31.7188 28.3048C32.1028 28.7018 32.0922 29.3349 31.6952 29.7188C31.2982 30.1028 30.6651 30.0922 30.2812 29.6952C28.6672 28.0264 26.4418 27 24 27Z" fill="#29707A"/>
<path fill-rule="evenodd" clip-rule="evenodd" d="M24 34C23.4505 34 22.951 34.2248 22.5879 34.5879L22.5823 34.5936C22.2207 34.9494 22 35.4439 22 36C22 37.1047 22.8953 38 24 38C25.1047 38 26 37.1047 26 36C26 35.4505 25.7752 34.951 25.4121 34.5879L25.4064 34.5823C25.0506 34.2207 24.5561 34 24 34ZM21.1765 33.1709C21.8946 32.4542 22.894 32 24 32C25.0994 32 26.1037 32.441 26.8291 33.1765C27.5458 33.8946 28 34.894 28 36C28 38.2093 26.2093 40 24 40C21.7907 40 20 38.2093 20 36C20 34.9006 20.441 33.8962 21.1765 33.1709Z" fill="#5FBEAC"/>
</svg>
