<svg width="48" height="48" viewBox="0 0 48 48" fill="none" xmlns="http://www.w3.org/2000/svg">
<path fill-rule="evenodd" clip-rule="evenodd" d="M24 15C21.2386 15 19 17.2386 19 20C19 22.7614 21.2386 25 24 25C26.7614 25 29 22.7614 29 20C29 17.2386 26.7614 15 24 15ZM17 20C17 16.134 20.134 13 24 13C27.866 13 31 16.134 31 20C31 23.866 27.866 27 24 27C20.134 27 17 23.866 17 20Z" fill="#29707A"/>
<path fill-rule="evenodd" clip-rule="evenodd" d="M17.4398 32C15.5367 32 13.9847 33.5627 14.0001 35.492L14.0002 35.5L14.0001 40.5C14.0001 41.0523 13.5524 41.5 13.0001 41.5C12.4479 41.5 12.0001 41.0523 12.0001 40.5V35.5038C11.9782 32.475 14.4179 30 17.4398 30H30.5602C33.582 30 36.0218 32.475 35.9999 35.5038V40.5C35.9999 41.0523 35.5521 41.5 34.9999 41.5C34.4476 41.5 33.9999 41.0523 33.9999 40.5V35.492C34.0153 33.5627 32.4633 32 30.5602 32H17.4398Z" fill="#5FBEAC"/>
<path fill-rule="evenodd" clip-rule="evenodd" d="M24 7C14.0589 7 6 15.0589 6 25C6 34.9411 14.0589 43 24 43C33.9411 43 42 34.9411 42 25C42 15.0589 33.9411 7 24 7ZM4 25C4 13.9543 12.9543 5 24 5C35.0457 5 44 13.9543 44 25C44 36.0457 35.0457 45 24 45C12.9543 45 4 36.0457 4 25Z" fill="#29707A"/>
</svg>
