<svg width="48" height="48" viewBox="0 0 48 48" fill="none" xmlns="http://www.w3.org/2000/svg">
<path d="M25 5C25 4.44772 24.5523 4 24 4C23.4477 4 23 4.44772 23 5V8C23 8.55228 23.4477 9 24 9C24.5523 9 25 8.55228 25 8V5Z" fill="#5FBEAC"/>
<path d="M10.2929 10.2929C10.6834 9.90237 11.3166 9.90237 11.7071 10.2929L13.7071 12.2929C14.0976 12.6834 14.0976 13.3166 13.7071 13.7071C13.3166 14.0976 12.6834 14.0976 12.2929 13.7071L10.2929 11.7071C9.90237 11.3166 9.90237 10.6834 10.2929 10.2929Z" fill="#5FBEAC"/>
<path d="M6 24C6 23.4477 6.44772 23 7 23H10C10.5523 23 11 23.4477 11 24C11 24.5523 10.5523 25 10 25H7C6.44772 25 6 24.5523 6 24Z" fill="#5FBEAC"/>
<path d="M37 24C37 23.4477 37.4477 23 38 23H41C41.5523 23 42 23.4477 42 24C42 24.5523 41.5523 25 41 25H38C37.4477 25 37 24.5523 37 24Z" fill="#5FBEAC"/>
<path d="M33.7071 32.2929C33.3166 31.9024 32.6834 31.9024 32.2929 32.2929C31.9024 32.6834 31.9024 33.3166 32.2929 33.7071L34.2929 35.7071C34.6834 36.0976 35.3166 36.0976 35.7071 35.7071C36.0976 35.3166 36.0976 34.6834 35.7071 34.2929L33.7071 32.2929Z" fill="#5FBEAC"/>
<path d="M37.7071 11.7071C38.0976 11.3166 38.0976 10.6834 37.7071 10.2929C37.3166 9.90237 36.6834 9.90237 36.2929 10.2929L34.2929 12.2929C33.9024 12.6834 33.9024 13.3166 34.2929 13.7071C34.6834 14.0976 35.3166 14.0976 35.7071 13.7071L37.7071 11.7071Z" fill="#5FBEAC"/>
<path d="M15.7071 32.2929C16.0976 32.6834 16.0976 33.3166 15.7071 33.7071L13.7071 35.7071C13.3166 36.0976 12.6834 36.0976 12.2929 35.7071C11.9024 35.3166 11.9024 34.6834 12.2929 34.2929L14.2929 32.2929C14.6834 31.9024 15.3166 31.9024 15.7071 32.2929Z" fill="#5FBEAC"/>
<path fill-rule="evenodd" clip-rule="evenodd" d="M24.4104 11.0004C30.772 10.9496 35.9808 15.9421 35.9808 22.1662C35.9808 25.5099 34.4753 28.4997 32.0953 30.5401C30.8502 31.6116 30.1469 33.1337 30.1469 34.7246C30.1469 36.0142 29.0827 37 27.8302 37H21.1506C19.8982 37 18.8339 36.0142 18.8339 34.7246C18.8339 33.1337 18.1306 31.6116 16.8855 30.5401C14.516 28.5098 13.0107 25.5307 13.0001 22.2069M24.4263 13.0003C19.1889 13.0427 14.9828 17.2046 15.0001 22.2C15.0087 24.9082 16.2326 27.3471 18.1875 29.0219L18.1891 29.0232C19.8652 30.4652 20.8339 32.5363 20.8339 34.7246C20.8339 34.85 20.9422 35 21.1506 35H27.8302C28.0387 35 28.1469 34.85 28.1469 34.7246C28.1469 32.5363 29.1156 30.4652 30.7918 29.0232L30.7931 29.0221C32.7569 27.3387 33.9808 24.892 33.9808 22.1662C33.9808 17.1074 29.7323 12.958 24.4263 13.0003ZM24.4104 11.0004C18.134 11.0511 12.979 16.0498 13.0001 22.2069L24.4104 11.0004Z" fill="#29707A"/>
<path fill-rule="evenodd" clip-rule="evenodd" d="M20 35C20.5523 35 21 35.4477 21 36V40.4317C21 41.2066 21.7258 42 22.8399 42H26.1601C27.2742 42 28 41.2066 28 40.4317V36C28 35.4477 28.4477 35 29 35C29.5523 35 30 35.4477 30 36V40.4317C30 42.4955 28.1849 44 26.1601 44H22.8399C20.8151 44 19 42.4955 19 40.4317V36C19 35.4477 19.4477 35 20 35Z" fill="#29707A"/>
</svg>
