<svg width="48" height="48" viewBox="0 0 48 48" fill="none" xmlns="http://www.w3.org/2000/svg">
<path fill-rule="evenodd" clip-rule="evenodd" d="M38 4.0238C38.5523 4.0238 39 4.47152 39 5.0238V11.0238C39 11.5761 38.5523 12.0238 38 12.0238H32C31.4477 12.0238 31 11.5761 31 11.0238C31 10.4715 31.4477 10.0238 32 10.0238H37V5.0238C37 4.47152 37.4477 4.0238 38 4.0238Z" fill="#29707A"/>
<path fill-rule="evenodd" clip-rule="evenodd" d="M9 37.0238C9 36.4715 9.44772 36.0238 10 36.0238H16C16.5523 36.0238 17 36.4715 17 37.0238C17 37.5761 16.5523 38.0238 16 38.0238H11V43.0238C11 43.5761 10.5523 44.0238 10 44.0238C9.44772 44.0238 9 43.5761 9 43.0238V37.0238Z" fill="#29707A"/>
<path fill-rule="evenodd" clip-rule="evenodd" d="M24 5.9762C14.0285 5.9762 5.95239 14.0523 5.95239 24.0238C5.95239 27.4575 6.38335 30.9596 7.86569 33.5232C8.14215 34.0013 7.97868 34.613 7.50057 34.8895C7.02246 35.166 6.41076 35.0025 6.13431 34.5244C4.37856 31.488 3.95239 27.5425 3.95239 24.0238C3.95239 12.9477 12.9239 3.9762 24 3.9762C29.4998 3.9762 35.0566 6.16617 38.7071 9.8167C39.0976 10.2072 39.0976 10.8404 38.7071 11.2309C38.3166 11.6214 37.6834 11.6214 37.2929 11.2309C34.0482 7.9862 29.0145 5.9762 24 5.9762Z" fill="#29707A"/>
<path fill-rule="evenodd" clip-rule="evenodd" d="M40.4994 14.1581C40.9775 13.8816 41.5892 14.0451 41.8657 14.5232C43.6063 17.5334 44.0476 20.4538 44.0476 24.0238C44.0476 35.1032 35.0728 44.0238 24 44.0238C18.5522 44.0238 13.4749 42.4129 9.79289 38.7309C9.40237 38.3404 9.40237 37.7072 9.79289 37.3167C10.1834 36.9262 10.8166 36.9262 11.2071 37.3167C14.4204 40.5299 18.9335 42.0238 24 42.0238C33.9748 42.0238 42.0476 33.9921 42.0476 24.0238C42.0476 20.6414 41.6318 18.1142 40.1343 15.5244C39.8578 15.0463 40.0213 14.4346 40.4994 14.1581Z" fill="#29707A"/>
<path fill-rule="evenodd" clip-rule="evenodd" d="M28 18H20C18.8954 18 18 18.8954 18 20V28C18 29.1046 18.8954 30 20 30H28C29.1046 30 30 29.1046 30 28V20C30 18.8954 29.1046 18 28 18ZM20 16C17.7909 16 16 17.7909 16 20V28C16 30.2091 17.7909 32 20 32H28C30.2091 32 32 30.2091 32 28V20C32 17.7909 30.2091 16 28 16H20Z" fill="#5FBEAC"/>
</svg>
