<svg width="48" height="48" viewBox="0 0 48 48" fill="none" xmlns="http://www.w3.org/2000/svg">
<path fill-rule="evenodd" clip-rule="evenodd" d="M15.5 11C15.9413 11 16.3635 10.9183 16.7524 10.7693L18 12.2769V15C18 15.5523 18.4477 16 19 16C19.5523 16 20 15.5523 20 15V11.9168C20 11.6841 19.9188 11.4586 19.7704 11.2793L18.3382 9.54855C18.7546 8.97265 19 8.26498 19 7.5C19 5.567 17.433 4 15.5 4C13.567 4 12 5.567 12 7.5C12 9.433 13.567 11 15.5 11ZM15.5 6C14.6716 6 14 6.67157 14 7.5C14 8.32843 14.6716 9 15.5 9C15.8335 9 16.1416 8.89115 16.3907 8.70705L16.4094 8.693C16.7684 8.41894 17 7.98652 17 7.5C17 6.67157 16.3284 6 15.5 6Z" fill="#29707A"/>
<path fill-rule="evenodd" clip-rule="evenodd" d="M8.42451 16.8766C8.13001 16.9571 7.82002 17 7.5 17C5.567 17 4 15.433 4 13.5C4 11.567 5.567 10 7.5 10C9.433 10 11 11.567 11 13.5C11 14.3835 10.6726 15.1906 10.1326 15.8065L11.9215 18H14C14.5523 18 15 18.4477 15 19C15 19.5523 14.5523 20 14 20H11.4466C11.1461 20 10.8616 19.8649 10.6717 19.632L8.42451 16.8766ZM6 13.5C6 12.6716 6.67157 12 7.5 12C8.32843 12 9 12.6716 9 13.5C9 14.3284 8.32843 15 7.5 15C6.67157 15 6 14.3284 6 13.5Z" fill="#29707A"/>
<path fill-rule="evenodd" clip-rule="evenodd" d="M20 32C20.5523 32 21 32.4477 21 33V36.0741C21 36.3437 20.8912 36.6018 20.6982 36.79L17.8693 39.5491C17.9544 39.8514 18 40.1704 18 40.5C18 42.433 16.433 44 14.5 44C12.567 44 11 42.433 11 40.5C11 38.567 12.567 37 14.5 37C15.364 37 16.1549 37.3131 16.7654 37.832L19 35.6526V33C19 32.4477 19.4477 32 20 32ZM13 40.5C13 39.6716 13.6716 39 14.5 39C15.3284 39 16 39.6716 16 40.5C16 41.3284 15.3284 42 14.5 42C13.6716 42 13 41.3284 13 40.5Z" fill="#29707A"/>
<path fill-rule="evenodd" clip-rule="evenodd" d="M10.9311 26C10.5911 26 10.2744 26.1728 10.0903 26.4587L8.38226 29.1121C8.10041 29.0389 7.80475 29 7.5 29C5.56701 29 4 30.567 4 32.5C4 34.433 5.567 36 7.5 36C9.433 36 11 34.433 11 32.5C11 31.5952 10.6567 30.7706 10.0932 30.1493L11.4767 28H14C14.5523 28 15 27.5523 15 27C15 26.4477 14.5523 26 14 26H10.9311ZM7.5 31C6.67157 31 6 31.6716 6 32.5C6 33.3284 6.67157 34 7.5 34C8.32843 34 9 33.3284 9 32.5C9 31.6716 8.32843 31 7.5 31Z" fill="#29707A"/>
<path fill-rule="evenodd" clip-rule="evenodd" d="M32.5 11C32.0587 11 31.6365 10.9183 31.2476 10.7693L30 12.2769V15C30 15.5523 29.5523 16 29 16C28.4477 16 28 15.5523 28 15V11.9168C28 11.6841 28.0812 11.4586 28.2296 11.2793L29.6618 9.54855C29.2454 8.97265 29 8.26498 29 7.5C29 5.567 30.567 4 32.5 4C34.433 4 36 5.567 36 7.5C36 9.433 34.433 11 32.5 11ZM31 7.5C31 7.9865 31.2316 8.41891 31.5906 8.69298L31.6093 8.70707C31.8584 8.89116 32.1665 9 32.5 9C33.3284 9 34 8.32843 34 7.5C34 6.67157 33.3284 6 32.5 6C31.6716 6 31 6.67157 31 7.5Z" fill="#29707A"/>
<path fill-rule="evenodd" clip-rule="evenodd" d="M39.5755 16.8766C39.87 16.9571 40.18 17 40.5 17C42.433 17 44 15.433 44 13.5C44 11.567 42.433 10 40.5 10C38.567 10 37 11.567 37 13.5C37 14.3835 37.3274 15.1906 37.8674 15.8065L36.0785 18H34C33.4477 18 33 18.4477 33 19C33 19.5523 33.4477 20 34 20H36.5534C36.8539 20 37.1384 19.8649 37.3283 19.632L39.5755 16.8766ZM42 13.5C42 12.6716 41.3284 12 40.5 12C39.6716 12 39 12.6716 39 13.5C39 14.3284 39.6716 15 40.5 15C41.3284 15 42 14.3284 42 13.5Z" fill="#29707A"/>
<path fill-rule="evenodd" clip-rule="evenodd" d="M28 32C27.4477 32 27 32.4477 27 33V36.0741C27 36.3437 27.1088 36.6018 27.3018 36.79L30.1307 39.5491C30.0456 39.8514 30 40.1704 30 40.5C30 42.433 31.567 44 33.5 44C35.433 44 37 42.433 37 40.5C37 38.567 35.433 37 33.5 37C32.636 37 31.8451 37.3131 31.2346 37.832L29 35.6526V33C29 32.4477 28.5523 32 28 32ZM35 40.5C35 39.6716 34.3284 39 33.5 39C32.6716 39 32 39.6716 32 40.5C32 41.3284 32.6716 42 33.5 42C34.3284 42 35 41.3284 35 40.5Z" fill="#29707A"/>
<path fill-rule="evenodd" clip-rule="evenodd" d="M37.0689 26C37.4089 26 37.7256 26.1728 37.9097 26.4587L39.6177 29.1121C39.8996 29.0389 40.1952 29 40.5 29C42.433 29 44 30.567 44 32.5C44 34.433 42.433 36 40.5 36C38.567 36 37 34.433 37 32.5C37 31.5952 37.3433 30.7706 37.9068 30.1493L36.5233 28H34C33.4477 28 33 27.5523 33 27C33 26.4477 33.4477 26 34 26H37.0689ZM40.5 31C41.3284 31 42 31.6716 42 32.5C42 33.3284 41.3284 34 40.5 34C39.6716 34 39 33.3284 39 32.5C39 31.6716 39.6716 31 40.5 31Z" fill="#29707A"/>
<path fill-rule="evenodd" clip-rule="evenodd" d="M17.2193 16C16.5602 16 16 16.5467 16 17.2535V30.7465C16 31.4533 16.5602 32 17.2193 32H30.7807C31.4398 32 32 31.4533 32 30.7465V17.2535C32 16.5467 31.4398 16 30.7807 16H17.2193ZM14 17.2535C14 15.4711 15.427 14 17.2193 14H30.7807C32.573 14 34 15.4711 34 17.2535V30.7465C34 32.5289 32.573 34 30.7807 34H17.2193C15.427 34 14 32.5289 14 30.7465V17.2535Z" fill="#5FBEAC"/>
</svg>
