<svg width="48" height="48" viewBox="0 0 48 48" fill="none" xmlns="http://www.w3.org/2000/svg">
<path fill-rule="evenodd" clip-rule="evenodd" d="M16 12.0624V10H9.23382C8.62139 10 8 10.559 8 11.4029V20.5971C8 21.441 8.62139 22 9.23382 22H11.586L10.2564 20.6707C9.86637 20.2807 9.88309 19.6643 10.2938 19.2939C10.7044 18.9235 11.3535 18.9394 11.7435 19.3294L14.7438 22.3291C15.1197 22.705 15.1197 23.2945 14.7439 23.6704L11.7436 26.6706C11.3536 27.0606 10.7045 27.0765 10.2938 26.7062C9.88315 26.3358 9.86638 25.7194 10.2564 25.3294L11.5858 24H9.23382C7.38279 24 6 22.4066 6 20.5971V11.4029C6 9.59341 7.38279 8 9.23382 8H16V6.93757C16 5.50342 16.9926 4 18.5991 4H29.4009C31.0074 4 32 5.50342 32 6.93757V12.0624C32 13.4966 31.0074 15 29.4009 15H18.5991C16.9926 15 16 13.4966 16 12.0624ZM18.2396 6.20402C18.1062 6.36563 18 6.62171 18 6.93757V12.0624C18 12.3783 18.1062 12.6344 18.2396 12.796C18.3713 12.9555 18.5031 13 18.5991 13H29.4009C29.4969 13 29.6287 12.9555 29.7604 12.796C29.8938 12.6344 30 12.3783 30 12.0624V6.93757C30 6.62171 29.8938 6.36563 29.7604 6.20402C29.6287 6.04452 29.4969 6 29.4009 6H18.5991C18.5031 6 18.3713 6.04452 18.2396 6.20402Z" fill="#29707A"/>
<path fill-rule="evenodd" clip-rule="evenodd" d="M38.7662 25C39.3786 25 40 25.559 40 26.4029V35.5971C40 36.441 39.3786 37 38.7662 37H36.414L37.7436 35.6707C38.1336 35.2807 38.1169 34.6643 37.7062 34.2939C37.2956 33.9235 36.6465 33.9394 36.2565 34.3294L33.2562 37.3291C32.8803 37.705 32.8803 38.2945 33.2561 38.6704L36.2564 41.6706C36.6464 42.0606 37.2955 42.0765 37.7062 41.7062C38.1169 41.3358 38.1336 40.7194 37.7436 40.3294L36.4142 39H38.7662C40.6172 39 42 37.4066 42 35.5971V26.4029C42 24.5934 40.6172 23 38.7662 23H32V20.9376C32 19.5034 31.0074 18 29.4009 18H18.5991C16.9926 18 16 19.5034 16 20.9376V26.0624C16 27.4966 16.9926 29 18.5991 29H29.4009C31.0074 29 32 27.4966 32 26.0624V25H38.7662ZM30 20.9376C30 20.6217 29.8938 20.3656 29.7604 20.204C29.6287 20.0445 29.4969 20 29.4009 20H18.5991C18.5031 20 18.3713 20.0445 18.2396 20.204C18.1062 20.3656 18 20.6217 18 20.9376V26.0624C18 26.3783 18.1062 26.6344 18.2396 26.796C18.3713 26.9555 18.5031 27 18.5991 27H29.4009C29.4969 27 29.6287 26.9555 29.7604 26.796C29.8938 26.6344 30 26.3783 30 26.0624V20.9376Z" fill="#29707A"/>
<path fill-rule="evenodd" clip-rule="evenodd" d="M18.2396 35.204C18.1062 35.3656 18 35.6217 18 35.9376V41.0624C18 41.3783 18.1062 41.6344 18.2396 41.796C18.3713 41.9555 18.5031 42 18.5991 42H29.4009C29.4969 42 29.6287 41.9555 29.7604 41.796C29.8938 41.6344 30 41.3783 30 41.0624V35.9376C30 35.6217 29.8938 35.3656 29.7604 35.204C29.6287 35.0445 29.4969 35 29.4009 35H18.5991C18.5031 35 18.3713 35.0445 18.2396 35.204ZM16 35.9376C16 34.5034 16.9926 33 18.5991 33H29.4009C31.0074 33 32 34.5034 32 35.9376V41.0624C32 42.4966 31.0074 44 29.4009 44H18.5991C16.9926 44 16 42.4966 16 41.0624V35.9376Z" fill="#5FBEAC"/>
</svg>
