<svg width="48" height="48" viewBox="0 0 48 48" fill="none" xmlns="http://www.w3.org/2000/svg">
<path fill-rule="evenodd" clip-rule="evenodd" d="M24 18C22.3431 18 21 19.3431 21 21C21 22.6569 22.3431 24 24 24C25.6569 24 27 22.6569 27 21C27 19.3431 25.6569 18 24 18ZM19 21C19 18.2386 21.2386 16 24 16C26.7614 16 29 18.2386 29 21C29 23.7614 26.7614 26 24 26C21.2386 26 19 23.7614 19 21Z" fill="#29707A"/>
<path fill-rule="evenodd" clip-rule="evenodd" d="M19.8294 29C18.7574 29 17.9942 29.8069 18 30.6911L18.0196 33.9941C18.0229 34.5463 17.5778 34.9967 17.0256 35C16.4733 35.0033 16.0229 34.5582 16.0197 34.0059L16.0001 30.7043C15.9867 28.612 17.7492 27 19.8294 27H28.1706C30.2389 27 32.0137 28.6095 31.9999 30.7043L31.9803 34.0059C31.9771 34.5582 31.5267 35.0033 30.9744 35C30.4222 34.9967 29.9771 34.5463 29.9804 33.9941L30 30.6917C30.0058 29.8098 29.2352 29 28.1706 29H19.8294Z" fill="#29707A"/>
<path fill-rule="evenodd" clip-rule="evenodd" d="M23.8477 12.7897C17.6182 12.7897 12.562 17.8589 12.562 24.1195C12.562 30.3801 17.6182 35.4492 23.8477 35.4492C30.0773 35.4492 35.1334 30.3801 35.1334 24.1195C35.1334 17.8589 30.0773 12.7897 23.8477 12.7897ZM10.562 24.1195C10.562 16.761 16.5069 10.7897 23.8477 10.7897C31.1886 10.7897 37.1334 16.761 37.1334 24.1195C37.1334 31.4779 31.1886 37.4492 23.8477 37.4492C16.5069 37.4492 10.562 31.4779 10.562 24.1195Z" fill="#29707A"/>
<path fill-rule="evenodd" clip-rule="evenodd" d="M10.2942 10.3167C10.6854 9.92689 11.3185 9.92802 11.7084 10.3192L15.7084 14.3336C16.0982 14.7248 16.0971 15.358 15.7058 15.7478C15.3146 16.1376 14.6815 16.1365 14.2916 15.7453L10.2916 11.7309C9.9018 11.3397 9.90294 10.7065 10.2942 10.3167Z" fill="#29707A"/>
<path fill-rule="evenodd" clip-rule="evenodd" d="M8 6C6.89543 6 6 6.89543 6 8C6 9.10457 6.89543 10 8 10C9.10457 10 10 9.10457 10 8C10 6.89543 9.10457 6 8 6ZM4 8C4 5.79086 5.79086 4 8 4C10.2091 4 12 5.79086 12 8C12 10.2091 10.2091 12 8 12C5.79086 12 4 10.2091 4 8Z" fill="#5FBEAC"/>
<path fill-rule="evenodd" clip-rule="evenodd" d="M37.7058 10.3167C38.0971 10.7065 38.0982 11.3397 37.7084 11.7309L33.7084 15.7453C33.3185 16.1365 32.6854 16.1376 32.2942 15.7478C31.9029 15.358 31.9018 14.7248 32.2916 14.3336L36.2916 10.3192C36.6815 9.92802 37.3146 9.92689 37.7058 10.3167Z" fill="#29707A"/>
<path fill-rule="evenodd" clip-rule="evenodd" d="M40 6C38.8954 6 38 6.89543 38 8C38 9.10457 38.8954 10 40 10C41.1046 10 42 9.10457 42 8C42 6.89543 41.1046 6 40 6ZM36 8C36 5.79086 37.7909 4 40 4C42.2091 4 44 5.79086 44 8C44 10.2091 42.2091 12 40 12C37.7909 12 36 10.2091 36 8Z" fill="#5FBEAC"/>
<path fill-rule="evenodd" clip-rule="evenodd" d="M15.7058 32.3956C16.0971 32.7854 16.0982 33.4186 15.7084 33.8098L11.7084 37.8241C11.3185 38.2153 10.6854 38.2165 10.2942 37.8267C9.90294 37.4368 9.9018 36.8037 10.2916 36.4124L14.2916 32.3981C14.6815 32.0069 15.3146 32.0057 15.7058 32.3956Z" fill="#29707A"/>
<path fill-rule="evenodd" clip-rule="evenodd" d="M8 38C6.89543 38 6 38.8954 6 40C6 41.1046 6.89543 42 8 42C9.10457 42 10 41.1046 10 40C10 38.8954 9.10457 38 8 38ZM4 40C4 37.7909 5.79086 36 8 36C10.2091 36 12 37.7909 12 40C12 42.2091 10.2091 44 8 44C5.79086 44 4 42.2091 4 40Z" fill="#5FBEAC"/>
<path fill-rule="evenodd" clip-rule="evenodd" d="M32.2942 32.3956C32.6854 32.0057 33.3185 32.0069 33.7084 32.3981L37.7084 36.4124C38.0982 36.8037 38.0971 37.4368 37.7058 37.8267C37.3146 38.2165 36.6815 38.2153 36.2916 37.8241L32.2916 33.8098C31.9018 33.4186 31.9029 32.7854 32.2942 32.3956Z" fill="#29707A"/>
<path fill-rule="evenodd" clip-rule="evenodd" d="M40 38C38.8954 38 38 38.8954 38 40C38 41.1046 38.8954 42 40 42C41.1046 42 42 41.1046 42 40C42 38.8954 41.1046 38 40 38ZM36 40C36 37.7909 37.7909 36 40 36C42.2091 36 44 37.7909 44 40C44 42.2091 42.2091 44 40 44C37.7909 44 36 42.2091 36 40Z" fill="#5FBEAC"/>
</svg>
