<svg width="48" height="48" viewBox="0 0 48 48" fill="none" xmlns="http://www.w3.org/2000/svg">
<path d="M7.46367 4H6.93134C6.49589 4 6.14288 4.31102 6.14288 4.69469V5.30531C6.14288 5.68898 6.49589 6 6.93134 6H7.46367C7.89912 6 8.25213 5.68898 8.25213 5.30531V4.69469C8.25213 4.31102 7.89912 4 7.46367 4Z" fill="#29707A"/>
<path d="M11.6821 4H11.1498C10.7144 4 10.3614 4.31102 10.3614 4.69469V5.30531C10.3614 5.68898 10.7144 6 11.1498 6H11.6821C12.1176 6 12.4706 5.68898 12.4706 5.30531V4.69469C12.4706 4.31102 12.1176 4 11.6821 4Z" fill="#29707A"/>
<path d="M15.9006 4H15.3683C14.9328 4 14.5798 4.31102 14.5798 4.69469V5.30531C14.5798 5.68898 14.9328 6 15.3683 6H15.9006C16.3361 6 16.6891 5.68898 16.6891 5.30531V4.69469C16.6891 4.31102 16.3361 4 15.9006 4Z" fill="#29707A"/>
<path d="M20.1191 4H19.5868C19.1513 4 18.7983 4.31102 18.7983 4.69469V5.30531C18.7983 5.68898 19.1513 6 19.5868 6H20.1191C20.5546 6 20.9076 5.68898 20.9076 5.30531V4.69469C20.9076 4.31102 20.5546 4 20.1191 4Z" fill="#29707A"/>
<path d="M24.3376 4H23.8052C23.3698 4 23.0168 4.31102 23.0168 4.69469V5.30531C23.0168 5.68898 23.3698 6 23.8052 6H24.3376C24.773 6 25.126 5.68898 25.126 5.30531V4.69469C25.126 4.31102 24.773 4 24.3376 4Z" fill="#29707A"/>
<path d="M28.5561 4H28.0237C27.5883 4 27.2353 4.31102 27.2353 4.69469V5.30531C27.2353 5.68898 27.5883 6 28.0237 6H28.5561C28.9915 6 29.3445 5.68898 29.3445 5.30531V4.69469C29.3445 4.31102 28.9915 4 28.5561 4Z" fill="#29707A"/>
<path d="M32.7745 4H32.2422C31.8067 4 31.4537 4.31102 31.4537 4.69469V5.30531C31.4537 5.68898 31.8067 6 32.2422 6H32.7745C33.21 6 33.563 5.68898 33.563 5.30531V4.69469C33.563 4.31102 33.21 4 32.7745 4Z" fill="#29707A"/>
<path d="M36.9931 4H36.4607C36.0253 4 35.6723 4.31102 35.6723 4.69469V5.30531C35.6723 5.68898 36.0253 6 36.4607 6H36.9931C37.4285 6 37.7815 5.68898 37.7815 5.30531V4.69469C37.7815 4.31102 37.4285 4 36.9931 4Z" fill="#29707A"/>
<path d="M41.2115 4H40.6792C40.2438 4 39.8908 4.31102 39.8908 4.69469V5.30531C39.8908 5.68898 40.2438 6 40.6792 6H41.2115C41.647 6 42 5.68898 42 5.30531V4.69469C42 4.31102 41.647 4 41.2115 4Z" fill="#29707A"/>
<path d="M8.28395 42H7.76647C7.34316 42 7 42.311 7 42.6947V43.3053C7 43.689 7.34316 44 7.76647 44H8.28395C8.70726 44 9.05042 43.689 9.05042 43.3053V42.6947C9.05042 42.311 8.70726 42 8.28395 42Z" fill="#29707A"/>
<path d="M12.3848 42H11.8673C11.444 42 11.1009 42.311 11.1009 42.6947V43.3053C11.1009 43.689 11.444 44 11.8673 44H12.3848C12.8081 44 13.1513 43.689 13.1513 43.3053V42.6947C13.1513 42.311 12.8081 42 12.3848 42Z" fill="#29707A"/>
<path d="M16.4856 42H15.9681C15.5448 42 15.2017 42.311 15.2017 42.6947V43.3053C15.2017 43.689 15.5448 44 15.9681 44H16.4856C16.9089 44 17.2521 43.689 17.2521 43.3053V42.6947C17.2521 42.311 16.9089 42 16.4856 42Z" fill="#29707A"/>
<path d="M20.5865 42H20.069C19.6457 42 19.3025 42.311 19.3025 42.6947V43.3053C19.3025 43.689 19.6457 44 20.069 44H20.5865C21.0098 44 21.3529 43.689 21.3529 43.3053V42.6947C21.3529 42.311 21.0098 42 20.5865 42Z" fill="#29707A"/>
<path d="M24.6873 42H24.1698C23.7465 42 23.4033 42.311 23.4033 42.6947V43.3053C23.4033 43.689 23.7465 44 24.1698 44H24.6873C25.1106 44 25.4537 43.689 25.4537 43.3053V42.6947C25.4537 42.311 25.1106 42 24.6873 42Z" fill="#29707A"/>
<path d="M28.7881 42H28.2706C27.8473 42 27.5042 42.311 27.5042 42.6947V43.3053C27.5042 43.689 27.8473 44 28.2706 44H28.7881C29.2114 44 29.5546 43.689 29.5546 43.3053V42.6947C29.5546 42.311 29.2114 42 28.7881 42Z" fill="#29707A"/>
<path d="M32.889 42H32.3716C31.9482 42 31.6051 42.311 31.6051 42.6947V43.3053C31.6051 43.689 31.9482 44 32.3716 44H32.889C33.3124 44 33.6555 43.689 33.6555 43.3053V42.6947C33.6555 42.311 33.3124 42 32.889 42Z" fill="#29707A"/>
<path d="M36.9898 42H36.4724C36.049 42 35.7059 42.311 35.7059 42.6947V43.3053C35.7059 43.689 36.049 44 36.4724 44H36.9898C37.4132 44 37.7563 43.689 37.7563 43.3053V42.6947C37.7563 42.311 37.4132 42 36.9898 42Z" fill="#29707A"/>
<path d="M41.0907 42H40.5732C40.1499 42 39.8067 42.311 39.8067 42.6947V43.3053C39.8067 43.689 40.1499 44 40.5732 44H41.0907C41.514 44 41.8572 43.689 41.8572 43.3053V42.6947C41.8572 42.311 41.514 42 41.0907 42Z" fill="#29707A"/>
<path d="M5.25238 8.00001H4.74762C4.33472 8.00001 4 8.31103 4 8.6947V9.30532C4 9.68899 4.33472 10 4.74762 10H5.25238C5.66528 10 6 9.68899 6 9.30532V8.6947C6 8.31103 5.66528 8.00001 5.25238 8.00001Z" fill="#29707A"/>
<path d="M5.25238 12H4.74762C4.33472 12 4 12.311 4 12.6947V13.3053C4 13.689 4.33472 14 4.74762 14H5.25238C5.66528 14 6 13.689 6 13.3053V12.6947C6 12.311 5.66528 12 5.25238 12Z" fill="#29707A"/>
<path d="M5.25238 17H4.74762C4.33472 17 4 17.311 4 17.6947V18.3053C4 18.689 4.33472 19 4.74762 19H5.25238C5.66528 19 6 18.689 6 18.3053V17.6947C6 17.311 5.66528 17 5.25238 17Z" fill="#29707A"/>
<path d="M5.25238 21H4.74762C4.33472 21 4 21.311 4 21.6947V22.3053C4 22.689 4.33472 23 4.74762 23H5.25238C5.66528 23 6 22.689 6 22.3053V21.6947C6 21.311 5.66528 21 5.25238 21Z" fill="#29707A"/>
<path d="M5.25238 25H4.74762C4.33472 25 4 25.311 4 25.6947V26.3053C4 26.689 4.33472 27 4.74762 27H5.25238C5.66528 27 6 26.689 6 26.3053V25.6947C6 25.311 5.66528 25 5.25238 25Z" fill="#29707A"/>
<path d="M5.25238 29H4.74762C4.33472 29 4 29.311 4 29.6947V30.3053C4 30.689 4.33472 31 4.74762 31H5.25238C5.66528 31 6 30.689 6 30.3053V29.6947C6 29.311 5.66528 29 5.25238 29Z" fill="#29707A"/>
<path d="M5.25238 33H4.74762C4.33472 33 4 33.311 4 33.6947V34.3053C4 34.689 4.33472 35 4.74762 35H5.25238C5.66528 35 6 34.689 6 34.3053V33.6947C6 33.311 5.66528 33 5.25238 33Z" fill="#29707A"/>
<path d="M5.25238 37H4.74762C4.33472 37 4 37.311 4 37.6947V38.3053C4 38.689 4.33472 39 4.74762 39H5.25238C5.66528 39 6 38.689 6 38.3053V37.6947C6 37.311 5.66528 37 5.25238 37Z" fill="#29707A"/>
<path d="M43.2524 9H42.7476C42.3347 9 42 9.31547 42 9.70461V10.324C42 10.7131 42.3347 11.0286 42.7476 11.0286H43.2524C43.6653 11.0286 44 10.7131 44 10.324V9.70461C44 9.31547 43.6653 9 43.2524 9Z" fill="#29707A"/>
<path d="M43.2524 13.0572H42.7476C42.3347 13.0572 42 13.3726 42 13.7618V14.3811C42 14.7703 42.3347 15.0857 42.7476 15.0857H43.2524C43.6653 15.0857 44 14.7703 44 14.3811V13.7618C44 13.3726 43.6653 13.0572 43.2524 13.0572Z" fill="#29707A"/>
<path d="M43.2524 17.1143H42.7476C42.3347 17.1143 42 17.4298 42 17.8189V18.4382C42 18.8274 42.3347 19.1429 42.7476 19.1429H43.2524C43.6653 19.1429 44 18.8274 44 18.4382V17.8189C44 17.4298 43.6653 17.1143 43.2524 17.1143Z" fill="#29707A"/>
<path d="M43.2524 21.1714H42.7476C42.3347 21.1714 42 21.4869 42 21.8761V22.4954C42 22.8845 42.3347 23.2 42.7476 23.2H43.2524C43.6653 23.2 44 22.8845 44 22.4954V21.8761C44 21.4869 43.6653 21.1714 43.2524 21.1714Z" fill="#29707A"/>
<path d="M43.2524 25.2286H42.7476C42.3347 25.2286 42 25.544 42 25.9332V26.5525C42 26.9417 42.3347 27.2571 42.7476 27.2571H43.2524C43.6653 27.2571 44 26.9417 44 26.5525V25.9332C44 25.544 43.6653 25.2286 43.2524 25.2286Z" fill="#29707A"/>
<path d="M43.2524 29.2857H42.7476C42.3347 29.2857 42 29.6012 42 29.9903V30.6097C42 30.9988 42.3347 31.3143 42.7476 31.3143H43.2524C43.6653 31.3143 44 30.9988 44 30.6097V29.9903C44 29.6012 43.6653 29.2857 43.2524 29.2857Z" fill="#29707A"/>
<path d="M43.2524 33.3429H42.7476C42.3347 33.3429 42 33.6583 42 34.0475V34.6668C42 35.056 42.3347 35.3714 42.7476 35.3714H43.2524C43.6653 35.3714 44 35.056 44 34.6668V34.0475C44 33.6583 43.6653 33.3429 43.2524 33.3429Z" fill="#29707A"/>
<path d="M43.2524 37.4H42.7476C42.3347 37.4 42 37.7154 42 38.1046V38.7239C42 39.1131 42.3347 39.4286 42.7476 39.4286H43.2524C43.6653 39.4286 44 39.1131 44 38.7239V38.1046C44 37.7154 43.6653 37.4 43.2524 37.4Z" fill="#29707A"/>
<path fill-rule="evenodd" clip-rule="evenodd" d="M17.0769 16.0256C16.4963 16.0256 16.0256 16.4963 16.0256 17.0769V30.9231C16.0256 31.5037 16.4963 31.9744 17.0769 31.9744H30.9231C31.5037 31.9744 31.9744 31.5037 31.9744 30.9231V17.0769C31.9744 16.4963 31.5037 16.0256 30.9231 16.0256H17.0769ZM14.0256 17.0769C14.0256 15.3917 15.3917 14.0256 17.0769 14.0256H30.9231C32.6082 14.0256 33.9744 15.3917 33.9744 17.0769V30.9231C33.9744 32.6082 32.6082 33.9744 30.9231 33.9744H17.0769C15.3917 33.9744 14.0256 32.6082 14.0256 30.9231V17.0769Z" fill="#5FBEAC"/>
</svg>
