<svg width="48" height="48" viewBox="0 0 48 48" fill="none" xmlns="http://www.w3.org/2000/svg">
<path fill-rule="evenodd" clip-rule="evenodd" d="M24 7C17.5279 7 12 13.2875 12 21.4286V23H14V34C14 37.4663 16.373 40 19.0022 40H22V42H19.0022C15.3071 42 12.4786 38.8363 12.055 35H9C6.04427 35 4 32.0963 4 29C4 25.9037 6.04427 23 9 23H10V21.4286C10 12.517 16.1166 5 24 5C31.8834 5 38 12.517 38 21.4286V23H39C41.9557 23 44 25.9037 44 29C44 32.0963 41.9557 35 39 35H34V23H36V21.4286C36 13.2875 30.4721 7 24 7ZM6 29C6 26.5699 7.54131 25 9 25H12V33H9C7.54131 33 6 31.4301 6 29ZM39 33H36V25H39C40.4587 25 42 26.5699 42 29C42 31.4301 40.4587 33 39 33Z" fill="#29707A"/>
<path fill-rule="evenodd" clip-rule="evenodd" d="M23.5167 39C23.1592 39 23 39.2516 23 39.4069V42.5931C23 42.7484 23.1592 43 23.5167 43H29.4833C29.8408 43 30 42.7484 30 42.5931V39.4069C30 39.2516 29.8408 39 29.4833 39H23.5167ZM21 39.4069C21 38.0081 22.1989 37 23.5167 37H29.4833C30.8011 37 32 38.0081 32 39.4069V42.5931C32 43.9919 30.8011 45 29.4833 45H23.5167C22.1989 45 21 43.9919 21 42.5931V39.4069Z" fill="#5FBEAC"/>
</svg>
