<svg width="48" height="48" viewBox="0 0 48 48" fill="none" xmlns="http://www.w3.org/2000/svg">
<path fill-rule="evenodd" clip-rule="evenodd" d="M11 16H13C14.6569 16 16 14.6569 16 13V7C16 5.34315 14.6569 4 13 4H7C5.34315 4 4 5.34315 4 7V13C4 14.6569 5.34315 16 7 16H9V32H7C5.34315 32 4 33.3431 4 35V41C4 42.6569 5.34315 44 7 44H13C14.6569 44 16 42.6569 16 41V35C16 33.3431 14.6569 32 13 32H11V25H26C26.5523 25 27 24.5523 27 24C27 23.4477 26.5523 23 26 23H11V16ZM6 7C6 6.44772 6.44772 6 7 6H13C13.5523 6 14 6.44772 14 7V13C14 13.5523 13.5523 14 13 14H7C6.44772 14 6 13.5523 6 13V7ZM7 34C6.44772 34 6 34.4477 6 35V41C6 41.5523 6.44772 42 7 42H13C13.5523 42 14 41.5523 14 41V35C14 34.4477 13.5523 34 13 34H7Z" fill="#5FBEAC"/>
<path d="M31 12C31 11.4477 31.4477 11 32 11H37C37.5523 11 38 11.4477 38 12C38 12.5523 37.5523 13 37 13H32C31.4477 13 31 12.5523 31 12Z" fill="#29707A"/>
<path d="M32 18C31.4477 18 31 18.4477 31 19C31 19.5523 31.4477 20 32 20H37C37.5523 20 38 19.5523 38 19C38 18.4477 37.5523 18 37 18H32Z" fill="#29707A"/>
<path fill-rule="evenodd" clip-rule="evenodd" d="M25 6.9C25 5.27746 26.3387 4 27.9429 4H41.0571C42.6613 4 44 5.27746 44 6.9V41.1C44 42.7225 42.6613 44 41.0571 44H27.9429C26.3387 44 25 42.7225 25 41.1V6.9ZM27.9429 6C27.401 6 27 6.42385 27 6.9V41.1C27 41.5761 27.401 42 27.9429 42H41.0571C41.599 42 42 41.5761 42 41.1V6.9C42 6.42385 41.599 6 41.0571 6H27.9429Z" fill="#29707A"/>
</svg>
