<svg width="48" height="48" viewBox="0 0 48 48" fill="none" xmlns="http://www.w3.org/2000/svg">
<path fill-rule="evenodd" clip-rule="evenodd" d="M24 42C33.9411 42 42 33.9411 42 24C42 14.0589 33.9411 6 24 6C14.0589 6 6 14.0589 6 24C6 33.9411 14.0589 42 24 42ZM24 44C35.0457 44 44 35.0457 44 24C44 12.9543 35.0457 4 24 4C12.9543 4 4 12.9543 4 24C4 35.0457 12.9543 44 24 44Z" fill="#29707A"/>
<path fill-rule="evenodd" clip-rule="evenodd" d="M17.5 15C16.1193 15 15 16.1193 15 17.5C15 18.8807 16.1193 20 17.5 20C18.8807 20 20 18.8807 20 17.5C20 16.1193 18.8807 15 17.5 15ZM13 17.5C13 15.0147 15.0147 13 17.5 13C19.9853 13 22 15.0147 22 17.5C22 19.9853 19.9853 22 17.5 22C15.0147 22 13 19.9853 13 17.5Z" fill="#5FBEAC"/>
<path fill-rule="evenodd" clip-rule="evenodd" d="M30.5 28C29.1193 28 28 29.1193 28 30.5C28 31.8807 29.1193 33 30.5 33C31.8807 33 33 31.8807 33 30.5C33 29.1193 31.8807 28 30.5 28ZM26 30.5C26 28.0147 28.0147 26 30.5 26C32.9853 26 35 28.0147 35 30.5C35 32.9853 32.9853 35 30.5 35C28.0147 35 26 32.9853 26 30.5Z" fill="#5FBEAC"/>
<path fill-rule="evenodd" clip-rule="evenodd" d="M33.7071 14.2929C34.0976 14.6834 34.0976 15.3166 33.7071 15.7071L15.7071 33.7071C15.3166 34.0976 14.6834 34.0976 14.2929 33.7071C13.9024 33.3166 13.9024 32.6834 14.2929 32.2929L32.2929 14.2929C32.6834 13.9024 33.3166 13.9024 33.7071 14.2929Z" fill="#5FBEAC"/>
</svg>
