<svg width="48" height="48" viewBox="0 0 48 48" fill="none" xmlns="http://www.w3.org/2000/svg">
<path fill-rule="evenodd" clip-rule="evenodd" d="M23.5 11C21.567 11 20 12.567 20 14.5C20 14.6399 20.0082 14.7779 20.0242 14.9136L15.7227 17.7812L15.7127 17.788C15.1097 17.2954 14.3393 17 13.5 17C11.567 17 10 18.567 10 20.5C10 22.433 11.567 24 13.5 24C15.433 24 17 22.433 17 20.5C17 20.1312 16.943 19.7757 16.8372 19.4419L20.8392 16.7739C21.4812 17.5244 22.435 18 23.5 18C24.6982 18 25.7557 17.3979 26.3866 16.4798L31.111 18.622C31.0386 18.9026 31 19.1968 31 19.5C31 21.433 32.567 23 34.5 23C36.433 23 38 21.433 38 19.5C38 17.567 36.433 16 34.5 16C33.5988 16 32.7771 16.3406 32.1567 16.9002L26.9995 14.5617C26.9998 14.5412 27 14.5206 27 14.5C27 12.567 25.433 11 23.5 11ZM22 14.5C22 13.6716 22.6716 13 23.5 13C24.3284 13 25 13.6716 25 14.5C25 15.3284 24.3284 16 23.5 16C22.6716 16 22 15.3284 22 14.5ZM34.5 18C33.6716 18 33 18.6716 33 19.5C33 20.3284 33.6716 21 34.5 21C35.3284 21 36 20.3284 36 19.5C36 18.6716 35.3284 18 34.5 18ZM13.5 19C12.6716 19 12 19.6716 12 20.5C12 21.3284 12.6716 22 13.5 22C14.3284 22 15 21.3284 15 20.5C15 19.6716 14.3284 19 13.5 19Z" fill="#5FBEAC"/>
<path fill-rule="evenodd" clip-rule="evenodd" d="M4 10.7127C4 8.09989 6.13786 6 8.7525 6H39.2475C41.8621 6 44 8.09989 44 10.7127V31.2873C44 33.9001 41.8621 36 39.2475 36H25V42H32C32.5523 42 33 42.4477 33 43C33 43.5523 32.5523 44 32 44H15C14.4477 44 14 43.5523 14 43C14 42.4477 14.4477 42 15 42H23V36H8.7525C6.13786 36 4 33.9001 4 31.2873V10.7127ZM6 10.7127C6 9.22453 7.22224 8 8.7525 8H39.2475C40.7778 8 42 9.22453 42 10.7127V28H6V10.7127ZM6 30H42V31.2873C42 32.7755 40.7778 34 39.2475 34H8.7525C7.22224 34 6 32.7755 6 31.2873V30Z" fill="#29707A"/>
</svg>
