<svg width="48" height="48" viewBox="0 0 48 48" fill="none" xmlns="http://www.w3.org/2000/svg">
<path fill-rule="evenodd" clip-rule="evenodd" d="M4 10.7127C4 8.09989 6.13786 6 8.7525 6H39.2475C41.8621 6 44 8.09989 44 10.7127V31.2873C44 33.9001 41.8621 36 39.2475 36H25V42H33C33.5523 42 34 42.4477 34 43C34 43.5523 33.5523 44 33 44H15C14.4477 44 14 43.5523 14 43C14 42.4477 14.4477 42 15 42H23V36H8.7525C6.13786 36 4 33.9001 4 31.2873V10.7127ZM6 10.7127C6 9.22453 7.22224 8 8.7525 8H39.2475C40.7778 8 42 9.22453 42 10.7127V27.981H6V10.7127ZM6 29.981H42V31.2873C42 32.7755 40.7778 34 39.2475 34H8.7525C7.22224 34 6 32.7755 6 31.2873V29.981Z" fill="#29707A"/>
<path fill-rule="evenodd" clip-rule="evenodd" d="M30 16.5C30 16.8788 29.786 17.225 29.4472 17.3944L20.4472 21.8944C20.1372 22.0494 19.7691 22.0329 19.4743 21.8507C19.1795 21.6684 19 21.3466 19 21L19 12C19 11.6534 19.1795 11.3316 19.4743 11.1494C19.7691 10.9671 20.1372 10.9506 20.4472 11.1056L29.4472 15.6056C29.786 15.775 30 16.1212 30 16.5ZM26.7639 16.5L21 13.618V19.382L26.7639 16.5Z" fill="#5FBEAC"/>
<path fill-rule="evenodd" clip-rule="evenodd" d="M8 25C8 24.4477 8.44772 24 9 24H24H39C39.5523 24 40 24.4477 40 25C40 25.5523 39.5523 26 39 26H9C8.44772 26 8 25.5523 8 25Z" fill="#5FBEAC"/>
<path d="M13.4933 23H12.5067C11.6746 23 11 23.6191 11 24.3827V25.6173C11 26.3809 11.6746 27 12.5067 27H13.4933C14.3254 27 15 26.3809 15 25.6173V24.3827C15 23.6191 14.3254 23 13.4933 23Z" fill="#5FBEAC"/>
</svg>
