<svg width="48" height="48" viewBox="0 0 48 48" fill="none" xmlns="http://www.w3.org/2000/svg">
<path fill-rule="evenodd" clip-rule="evenodd" d="M4 6.94954C4 5.32501 5.32501 4 6.94954 4H20.0505C21.675 4 23 5.32501 23 6.94954V20.0505C23 21.675 21.675 23 20.0505 23H6.94954C5.32501 23 4 21.675 4 20.0505V6.94954ZM6.94954 6C6.42958 6 6 6.42958 6 6.94954V20.0505C6 20.5704 6.42958 21 6.94954 21H20.0505C20.5704 21 21 20.5704 21 20.0505V6.94954C21 6.42958 20.5704 6 20.0505 6H6.94954Z" fill="#5FBEAC"/>
<path fill-rule="evenodd" clip-rule="evenodd" d="M25 6.94954C25 5.32501 26.325 4 27.9495 4H41.0505C42.675 4 44 5.32501 44 6.94954V20.0505C44 21.675 42.675 23 41.0505 23H27.9495C26.325 23 25 21.675 25 20.0505V6.94954ZM27.9495 6C27.4296 6 27 6.42958 27 6.94954V20.0505C27 20.5704 27.4296 21 27.9495 21H41.0505C41.5704 21 42 20.5704 42 20.0505V6.94954C42 6.42958 41.5704 6 41.0505 6H27.9495Z" fill="#29707A"/>
<path fill-rule="evenodd" clip-rule="evenodd" d="M25 27.9495C25 26.325 26.325 25 27.9495 25H41.0505C42.675 25 44 26.325 44 27.9495V41.0505C44 42.675 42.675 44 41.0505 44H27.9495C26.325 44 25 42.675 25 41.0505V27.9495ZM27.9495 27C27.4296 27 27 27.4296 27 27.9495V41.0505C27 41.5704 27.4296 42 27.9495 42H41.0505C41.5704 42 42 41.5704 42 41.0505V27.9495C42 27.4296 41.5704 27 41.0505 27H27.9495Z" fill="#29707A"/>
<path fill-rule="evenodd" clip-rule="evenodd" d="M4 27.9495C4 26.325 5.32501 25 6.94954 25H20.0505C21.675 25 23 26.325 23 27.9495V41.0505C23 42.675 21.675 44 20.0505 44H6.94954C5.32501 44 4 42.675 4 41.0505V27.9495ZM6.94954 27C6.42958 27 6 27.4296 6 27.9495V41.0505C6 41.5704 6.42958 42 6.94954 42H20.0505C20.5704 42 21 41.5704 21 41.0505V27.9495C21 27.4296 20.5704 27 20.0505 27H6.94954Z" fill="#29707A"/>
</svg>
