<svg width="48" height="48" viewBox="0 0 48 48" fill="none" xmlns="http://www.w3.org/2000/svg">
<path fill-rule="evenodd" clip-rule="evenodd" d="M28.4997 4H14.6295L14.5657 4.00826C13.9003 4.09431 13.011 4.45616 12.2827 5.22852C11.5316 6.02512 11.0001 7.2064 11.0001 8.83243V15.0147H7.10106C6.58213 15.0147 5.76271 15.1975 5.08395 15.9471C4.41057 16.6908 4.0001 17.855 4.0001 19.5654L4.00005 39.5211C3.9994 40.1873 3.99834 41.2767 4.45336 42.1995C4.70613 42.7121 5.10051 43.1835 5.69106 43.5162C6.27161 43.8433 6.97695 44 7.80136 44H34.4133C34.9158 44 35.4151 43.949 35.9035 43.7722C36.4028 43.5914 36.8329 43.3003 37.2289 42.8983C37.9733 42.1426 38.6501 40.9296 39.5121 39.1814L39.5414 39.1219C41.2711 35.6142 43.0317 32.0436 43.7474 30.2294L43.758 30.2023L43.7671 30.1747C43.972 29.5515 44.1371 28.6217 43.9132 27.7759C43.7956 27.3317 43.5573 26.8654 43.116 26.5147C42.6703 26.1604 42.1133 26 41.5001 26H29.0001C28.3816 26 27.8553 25.9267 27.3471 25.7258C26.8396 25.5253 26.2928 25.1748 25.6711 24.5444C25.6472 24.5201 25.6343 24.5035 25.6063 24.4672C25.5776 24.4302 25.5331 24.3727 25.4447 24.2655C25.3095 24.1017 25.1213 23.8924 24.8594 23.6935C24.3097 23.2764 23.5622 23 22.5001 23H18.5001C17.1987 23 16.0416 24.0024 15.2756 25.9429L15.2749 25.9448L8.87427 42H7.80136C7.22514 42 6.88 41.8905 6.6727 41.7737C6.4754 41.6625 6.34454 41.5125 6.24715 41.315C6.0186 40.8515 6.0001 40.212 6.0001 39.4493V19.5654C6.0001 18.1512 6.33962 17.5401 6.56648 17.2895C6.78796 17.0449 7.01903 17.0147 7.10104 17.0147H11.0001V28C11.0001 28.5523 11.4478 29 12.0001 29C12.5524 29 13.0001 28.5523 13.0001 28V8.83243C13.0001 7.67123 13.3666 6.99437 13.7379 6.60059C14.1045 6.21177 14.526 6.04554 14.7702 6H28.4997C29.7478 6 30.6296 6.75605 30.8081 7.00228L30.8134 7.00958L33.3741 10.4114C33.7052 11.0587 33.8506 11.4976 33.9217 11.8613C33.9974 12.2481 34.0001 12.5962 34.0001 13.1385V23C34.0001 23.5523 34.4478 24 35.0001 24C35.5524 24 36.0001 23.5523 36.0001 23L36.0001 13.1036C36.0002 12.5952 36.0002 12.0691 35.8845 11.4774C35.7642 10.8622 35.5297 10.2206 35.1111 9.41604L35.0728 9.34248L32.4213 5.82013C31.9207 5.13634 30.476 4 28.4997 4ZM17.1353 26.6787C17.77 25.0698 18.4014 25 18.5001 25H22.5001C23.1888 25 23.4957 25.1693 23.6503 25.2867C23.7404 25.3551 23.8169 25.4352 23.902 25.5384C23.9101 25.5481 23.9221 25.5632 23.9371 25.5822L23.9466 25.5941C24.0188 25.6853 24.1473 25.8475 24.2471 25.9487C25.0259 26.7385 25.7994 27.2647 26.6121 27.5859C27.4241 27.9068 28.218 28 29.0001 28H41.5001C41.7623 28 41.8513 28.0643 41.8715 28.0803C41.896 28.0998 41.9431 28.1493 41.9798 28.2877C42.0626 28.6004 42.0144 29.0886 41.8756 29.524C41.187 31.2601 39.4712 34.7419 37.7183 38.2969C36.8354 40.0875 36.2867 41.0049 35.804 41.4949C35.5865 41.7158 35.4028 41.8264 35.2226 41.8916C35.0317 41.9608 34.7862 42 34.4133 42H11.0273L17.134 26.682L17.1353 26.6787Z" fill="#29707A"/>
<path fill-rule="evenodd" clip-rule="evenodd" d="M17 10C17 9.44772 17.4477 9 18 9H29C29.5523 9 30 9.44772 30 10C30 10.5523 29.5523 11 29 11H18C17.4477 11 17 10.5523 17 10ZM17 14.5C17 13.9477 17.4477 13.5 18 13.5H29C29.5523 13.5 30 13.9477 30 14.5C30 15.0523 29.5523 15.5 29 15.5H18C17.4477 15.5 17 15.0523 17 14.5ZM17 19C17 18.4477 17.4477 18 18 18H29C29.5523 18 30 18.4477 30 19C30 19.5523 29.5523 20 29 20H18C17.4477 20 17 19.5523 17 19Z" fill="#5FBEAC"/>
</svg>
