<svg width="48" height="48" viewBox="0 0 48 48" fill="none" xmlns="http://www.w3.org/2000/svg">
<path d="M10 8.648C10 7.21447 11.21 6 12.7214 6H37.2786C38.79 6 40 7.21447 40 8.648V39.352C40 40.7855 38.79 42 37.2786 42H12.7214C11.21 42 10 40.7855 10 39.352V36.844C10 36.2917 9.55228 35.844 9 35.844C8.44772 35.844 8 36.2917 8 36.844V39.352C8 41.9275 10.1431 44 12.7214 44H37.2786C39.8569 44 42 41.9275 42 39.352V8.648C42 6.07253 39.8569 4 37.2786 4H12.7214C10.1431 4 8 6.07253 8 8.648V13H6C5.44772 13 5 13.4477 5 14C5 14.5523 5.44772 15 6 15H13C13.5523 15 14 14.5523 14 14C14 13.4477 13.5523 13 13 13H10V8.648Z" fill="#29707A"/>
<path d="M6 23C5.44772 23 5 23.4477 5 24C5 24.5523 5.44772 25 6 25H13C13.5523 25 14 24.5523 14 24C14 23.4477 13.5523 23 13 23H10.0122V17.4476C10.0122 16.8953 9.56449 16.4476 9.01221 16.4476C8.45992 16.4476 8.01221 16.8953 8.01221 17.4476V23H6Z" fill="#29707A"/>
<path d="M6 33C5.44772 33 5 33.4477 5 34C5 34.5523 5.44772 35 6 35H13C13.5523 35 14 34.5523 14 34C14 33.4477 13.5523 33 13 33H10.0122V27.1238C10.0122 26.5715 9.56449 26.1238 9.01221 26.1238C8.45992 26.1238 8.01221 26.5715 8.01221 27.1238V33H6Z" fill="#29707A"/>
<path fill-rule="evenodd" clip-rule="evenodd" d="M19 21C19 20.4477 19.4477 20 20 20H25.7056C28.087 20 30.0051 21.9311 30.0051 24.2984V30.002C30.0051 30.0363 30.0033 30.0702 30 30.1036C30.0505 30.6092 30.4747 31.0013 30.9949 31.0013H32C32.5523 31.0013 33 31.4491 33 32.0013V36C33 36.5523 32.5523 37 32 37H20C19.4477 37 19 36.5523 19 36V32.0013C19 31.4491 19.4477 31.0013 20 31.0013H22.0051V26.998C22.0051 26.4443 21.5597 25.9986 21.0051 25.9986H20C19.4477 25.9986 19 25.5509 19 24.9986V21ZM28.0051 29.859V24.2984C28.0051 23.0323 26.979 22 25.7056 22H21V23.9986H21.0051C22.6636 23.9986 24.0051 25.3391 24.0051 26.998V32.0013C24.0051 32.5536 23.5574 33.0013 23.0051 33.0013H21V35H31V33.0013H30.9949C29.3364 33.0013 27.9949 31.6608 27.9949 30.002C27.9949 29.9535 27.9984 29.9057 28.0051 29.859Z" fill="#5FBEAC"/>
<path fill-rule="evenodd" clip-rule="evenodd" d="M23 14.0186C23 15.1231 23.8954 16.0152 25 16.0111C26.1046 16.007 27 15.1083 27 14.0037C27 12.8991 26.1046 12.007 25 12.0111C23.8954 12.0152 23 12.914 23 14.0186ZM25 18.0111C22.7909 18.0194 21 16.2352 21 14.026C21 11.8169 22.7909 10.0193 25 10.0111C27.2091 10.0029 29 11.7871 29 13.9963C29 16.2054 27.2091 18.0029 25 18.0111Z" fill="#5FBEAC"/>
</svg>
