<svg width="48" height="48" viewBox="0 0 48 48" fill="none" xmlns="http://www.w3.org/2000/svg">
<path fill-rule="evenodd" clip-rule="evenodd" d="M12.9994 4C10.2408 4 8 6.25011 8 9.00952V39.0857C8 41.8562 10.2423 44.0952 12.9994 44.0952H35.0006C37.7703 44.0952 40 41.8436 40 39.0857V15.0286C39.9999 14.7531 39.8883 14.5034 39.7081 14.3226L29.7048 4.29379C29.5238 4.11238 29.2733 4.00003 28.9968 4C28.9968 4 28.9969 4 28.9968 4H12.9994ZM27.9967 6H12.9994C11.3501 6 10 7.34989 10 9.00952V39.0857C10 40.7533 11.3486 42.0952 12.9994 42.0952H35.0006C36.6578 42.0952 38 40.7469 38 39.0857V16.0286H31.0011C29.3319 16.0286 27.9967 14.6706 27.9967 13.019V6ZM36.5901 14.0286L29.9967 7.41842V13.019C29.9967 13.577 30.4474 14.0286 31.0011 14.0286H36.5901Z" fill="#29707A"/>
<path fill-rule="evenodd" clip-rule="evenodd" d="M14 21C14 20.4477 14.4477 20 15 20H33C33.5523 20 34 20.4477 34 21C34 21.5523 33.5523 22 33 22H15C14.4477 22 14 21.5523 14 21Z" fill="#5FBEAC"/>
<path fill-rule="evenodd" clip-rule="evenodd" d="M14 27C14 26.4477 14.4477 26 15 26H33C33.5523 26 34 26.4477 34 27C34 27.5523 33.5523 28 33 28H15C14.4477 28 14 27.5523 14 27Z" fill="#5FBEAC"/>
<path fill-rule="evenodd" clip-rule="evenodd" d="M14 33C14 32.4477 14.4477 32 15 32H26C26.5523 32 27 32.4477 27 33C27 33.5523 26.5523 34 26 34H15C14.4477 34 14 33.5523 14 33Z" fill="#5FBEAC"/>
</svg>
