<svg width="48" height="48" viewBox="0 0 48 48" fill="none" xmlns="http://www.w3.org/2000/svg">
<path d="M39.808 5.41087C39.4827 4.96461 38.8571 4.8666 38.4109 5.19198C37.9646 5.51735 37.8666 6.14289 38.192 6.58915C40.5677 9.84752 42 13.9892 42 18.5C42 23.0115 40.5673 27.1624 38.1928 30.4098C37.8668 30.8556 37.9639 31.4812 38.4098 31.8072C38.8556 32.1332 39.4812 32.0361 39.8072 31.5903C42.4328 27.9996 44 23.4351 44 18.5C44 13.5642 42.4323 9.0102 39.808 5.41087Z" fill="#5FBEAC"/>
<path d="M9.80792 6.5893C10.1334 6.1431 10.0355 5.51755 9.58929 5.19209C9.14309 4.86663 8.51754 4.96451 8.19208 5.41072C5.56744 9.00909 4 13.5714 4 18.5049C4 23.439 5.56773 27.9913 8.19208 31.5893C8.51754 32.0355 9.14309 32.1334 9.58929 31.8079C10.0355 31.4825 10.1334 30.8569 9.80792 30.4107C7.43227 27.1537 6 23.0138 6 18.5049C6 13.9956 7.43256 9.84592 9.80792 6.5893Z" fill="#5FBEAC"/>
<path d="M14.5178 10.1445C14.9903 10.4305 15.1415 11.0453 14.8555 11.5178C13.6989 13.4287 13 15.8469 13 18.5C13 21.1531 13.6989 23.5713 14.8555 25.4822C15.1415 25.9547 14.9903 26.5695 14.5178 26.8555C14.0453 27.1415 13.4305 26.9903 13.1445 26.5178C11.7891 24.2785 11 21.4991 11 18.5C11 15.5009 11.7891 12.7215 13.1445 10.4822C13.4305 10.0097 14.0453 9.85852 14.5178 10.1445Z" fill="#5FBEAC"/>
<path d="M34.8555 10.4822C34.5695 10.0097 33.9547 9.85852 33.4822 10.1445C33.0097 10.4305 32.8586 11.0453 33.1445 11.5178C34.3012 13.4287 35 15.8469 35 18.5C35 21.1531 34.3012 23.5713 33.1445 25.4822C32.8586 25.9547 33.0097 26.5695 33.4822 26.8555C33.9547 27.1415 34.5695 26.9903 34.8555 26.5178C36.2109 24.2785 37 21.4991 37 18.5C37 15.5009 36.2109 12.7215 34.8555 10.4822Z" fill="#5FBEAC"/>
<path fill-rule="evenodd" clip-rule="evenodd" d="M22.4527 23.7986C19.8889 23.1163 17.9999 20.7787 17.9999 18C17.9999 14.6863 20.6862 12 23.9999 12C27.3136 12 29.9999 14.6863 29.9999 18C29.9999 20.7787 28.111 23.1163 25.5472 23.7986L35.8858 43.536C36.1421 44.0252 35.9532 44.6296 35.464 44.8858C34.9747 45.1421 34.3704 44.9532 34.1141 44.464L30.7151 37.9749C30.6458 37.99 30.5738 37.998 30.4999 37.998H17.2727L13.8858 44.464C13.6295 44.9532 13.0252 45.1421 12.536 44.8858C12.0467 44.6296 11.8579 44.0252 12.1141 43.536L22.4527 23.7986ZM19.9999 18C19.9999 15.7909 21.7908 14 23.9999 14C26.2091 14 27.9999 15.7909 27.9999 18C27.9999 20.2032 26.2187 21.9904 24.0177 22C24.0054 21.9997 23.9931 21.9997 23.9808 22C21.7805 21.9897 19.9999 20.2028 19.9999 18ZM24 25.1551L29.6796 35.998H18.3203L24 25.1551Z" fill="#29707A"/>
</svg>
