<svg width="48" height="48" viewBox="0 0 48 48" fill="none" xmlns="http://www.w3.org/2000/svg">
<path fill-rule="evenodd" clip-rule="evenodd" d="M5.95239 18.1429C5.95239 17.5906 6.40011 17.1429 6.95239 17.1429H12.8095C13.3618 17.1429 13.8095 17.5906 13.8095 18.1429C13.8095 18.6951 13.3618 19.1429 12.8095 19.1429H6.95239C6.40011 19.1429 5.95239 18.6951 5.95239 18.1429Z" fill="#29707A"/>
<path fill-rule="evenodd" clip-rule="evenodd" d="M5.95239 26.9333C5.95239 26.381 6.40011 25.9333 6.95239 25.9333H12.8095C13.3618 25.9333 13.8095 26.381 13.8095 26.9333C13.8095 27.4856 13.3618 27.9333 12.8095 27.9333H6.95239C6.40011 27.9333 5.95239 27.4856 5.95239 26.9333Z" fill="#29707A"/>
<path fill-rule="evenodd" clip-rule="evenodd" d="M9.88574 21.5333C10.438 21.5333 10.8857 21.981 10.8857 22.5333V26.9333C10.8857 27.4856 10.438 27.9333 9.88574 27.9333C9.33346 27.9333 8.88574 27.4856 8.88574 26.9333V22.5333C8.88574 21.981 9.33346 21.5333 9.88574 21.5333Z" fill="#29707A"/>
<path fill-rule="evenodd" clip-rule="evenodd" d="M5.95239 35.7238C5.95239 35.1715 6.40011 34.7238 6.95239 34.7238H12.8095C13.3618 34.7238 13.8095 35.1715 13.8095 35.7238C13.8095 36.2761 13.3618 36.7238 12.8095 36.7238H6.95239C6.40011 36.7238 5.95239 36.2761 5.95239 35.7238Z" fill="#29707A"/>
<path fill-rule="evenodd" clip-rule="evenodd" d="M9.88574 30.3238C10.438 30.3238 10.8857 30.7715 10.8857 31.3238V35.0476C10.8857 35.5999 10.438 36.0476 9.88574 36.0476C9.33346 36.0476 8.88574 35.5999 8.88574 35.0476V31.3238C8.88574 30.7715 9.33346 30.3238 9.88574 30.3238Z" fill="#29707A"/>
<path fill-rule="evenodd" clip-rule="evenodd" d="M13.0235 10C11.985 10 11 10.9482 11 12.2665V16.6281C11 17.1804 10.5523 17.6281 10 17.6281C9.44772 17.6281 9 17.1804 9 16.6281V12.2665C9 9.99161 10.738 8 13.0235 8H32.9765C35.262 8 37 9.99161 37 12.2665V39.7335C37 42.0084 35.262 44 32.9765 44H13.0235C10.8685 44 9 42.4473 9 40.041C9 39.4887 9.44772 39.041 10 39.041C10.5523 39.041 11 39.4887 11 40.041C11 41.2278 11.8545 42 13.0235 42H32.9765C34.015 42 35 41.0518 35 39.7335V12.2665C35 10.9482 34.015 10 32.9765 10H13.0235Z" fill="#29707A"/>
<path fill-rule="evenodd" clip-rule="evenodd" d="M12 5C12 4.44772 12.4477 4 13 4H37.3146C39.8946 4 42 6.13331 42 8.71614V40C42 40.5523 41.5523 41 41 41C40.4477 41 40 40.5523 40 40V8.71614C40 7.2226 38.7749 6 37.3146 6H13C12.4477 6 12 5.55228 12 5Z" fill="#29707A"/>
<path fill-rule="evenodd" clip-rule="evenodd" d="M18 18C18 17.4477 18.4477 17 19 17H29C29.5523 17 30 17.4477 30 18C30 18.5523 29.5523 19 29 19H19C18.4477 19 18 18.5523 18 18Z" fill="#5FBEAC"/>
<path fill-rule="evenodd" clip-rule="evenodd" d="M18 24C18 23.4477 18.4477 23 19 23L29 23C29.5523 23 30 23.4477 30 24C30 24.5523 29.5523 25 29 25L19 25C18.4477 25 18 24.5523 18 24Z" fill="#5FBEAC"/>
<path fill-rule="evenodd" clip-rule="evenodd" d="M18 30C18 29.4477 18.4477 29 19 29H29C29.5523 29 30 29.4477 30 30C30 30.5523 29.5523 31 29 31H19C18.4477 31 18 30.5523 18 30Z" fill="#5FBEAC"/>
</svg>
