<svg xmlns="http://www.w3.org/2000/svg" width="48" height="48" fill="none" viewBox="0 0 48 48">
  <path fill="#29707A" fill-rule="evenodd" d="M17.331 16.972A4.438 4.438 0 0 1 20.076 16h8.115c1.916 0 3.821 1.307 3.81 3.503V23a1 1 0 0 1-1 1H17a1 1 0 0 1-1-1v-3.366c-.013-1.125.572-2.05 1.33-2.662Zm1.257 1.556c-.402.324-.593.711-.588 1.088V22h12v-2.506c.005-.792-.68-1.494-1.81-1.494h-8.114c-.529 0-1.082.2-1.488.528ZM12 26a3 3 0 1 0 0 6 3 3 0 0 0 0-6Zm-5 3a5 5 0 1 1 10 0 5 5 0 0 1-10 0Zm29-3a3 3 0 1 0 0 6 3 3 0 0 0 0-6Zm-5 3a5 5 0 1 1 10 0 5 5 0 0 1-10 0ZM5.331 36.972A4.438 4.438 0 0 1 8.076 36h8.115c1.916 0 3.821 1.307 3.81 3.503V43a1 1 0 0 1-1 1H5a1 1 0 0 1-1-1v-3.366c-.013-1.125.572-2.05 1.33-2.662Zm1.257 1.556c-.402.324-.593.711-.588 1.088V42h12v-2.506c.005-.792-.68-1.494-1.81-1.494H8.077c-.529 0-1.082.2-1.488.528Zm22.743-1.556A4.438 4.438 0 0 1 32.076 36h8.115c1.916 0 3.821 1.307 3.81 3.503V43a1 1 0 0 1-1 1H29a1 1 0 0 1-1-1v-3.366c-.013-1.125.572-2.05 1.33-2.662Zm1.257 1.556c-.402.324-.593.711-.588 1.088V42h12v-2.506c.005-.792-.68-1.494-1.81-1.494h-8.114c-.529 0-1.082.2-1.488.528ZM24 6a3 3 0 1 0 0 6 3 3 0 0 0 0-6Zm-5 3a5 5 0 1 1 10 0 5 5 0 0 1-10 0Z" clip-rule="evenodd"/>
  <path fill="#5FBEAC" fill-rule="evenodd" d="M25 27a1 1 0 1 0-2 0v3.859l-4.337 1.706a1 1 0 1 0 .732 1.86l4.72-1.855 4.719 1.856a1 1 0 0 0 .732-1.861L25 30.769V27Z" clip-rule="evenodd"/>
</svg>
