<svg xmlns="http://www.w3.org/2000/svg" width="48" height="48" fill="none" viewBox="0 0 48 48">
  <g fill-rule="evenodd" class="health" clip-rule="evenodd">
    <path fill="#5FBEAC" d="M22.778 16a1 1 0 0 1 .905.649L27.192 26H40a1 1 0 1 1 0 2H26.499a1 1 0 0 1-.936-.649l-2.9-7.727-3.502 7.786a1 1 0 0 1-.912.59H10a1 1 0 1 1 0-2h7.603l4.231-9.41a1 1 0 0 1 .944-.59Z" class="secondary"/>
    <path fill="#29707A" d="M20.253 9.884c-1.74-1.228-3.996-2.205-6.489-1.784h-.002c-1.914.32-3.478 1.435-4.691 2.775a13.774 13.774 0 0 0-2.414 3.8c-1.407 3.43-.549 7.446 2.565 12.133 3.016 4.54 8.038 9.533 14.681 14.908 6.646-5.386 11.72-10.419 14.786-14.998 3.168-4.73 4.07-8.776 2.67-12.193-.393-.944-1.195-2.378-2.404-3.652-1.207-1.272-2.773-2.336-4.701-2.66-2.492-.417-4.751.539-6.493 1.738-1.738 1.196-2.843 2.556-2.96 2.708a1 1 0 0 1-1.585 0c-.126-.163-1.228-1.552-2.963-2.775Zm3.763.646a17.271 17.271 0 0 0-2.61-2.28c-1.957-1.38-4.75-2.667-7.974-2.122-2.502.418-4.443 1.857-5.844 3.404a15.766 15.766 0 0 0-2.78 4.382v.001c-1.775 4.32-.529 9.067 2.748 14 3.28 4.938 8.713 10.254 15.723 15.866a1 1 0 0 0 1.25 0c7.01-5.622 12.491-10.977 15.821-15.95 3.324-4.962 4.631-9.744 2.86-14.067l-.003-.005c-.471-1.131-1.397-2.784-2.802-4.263-1.407-1.483-3.342-2.84-5.82-3.255m-10.569 4.29a17.147 17.147 0 0 1 2.61-2.228c1.96-1.349 4.75-2.6 7.958-2.062" class="primary"/>
  </g>
</svg>
