<svg xmlns="http://www.w3.org/2000/svg" width="48" height="48" fill="none" viewBox="0 0 48 48">
  <g fill-rule="evenodd" class="location" clip-rule="evenodd">
    <path fill="#29707A" d="M24 5.952c-6.81 0-12.333 5.524-12.333 12.334 0 5.385 3.17 11.356 6.486 16.093A68.67 68.67 0 0 0 24 41.602a68.65 68.65 0 0 0 5.847-7.223c3.316-4.737 6.486-10.708 6.486-16.093 0-6.81-5.523-12.334-12.333-12.334Zm0 37.096-.707.706-.004-.003-.008-.008-.031-.032a26.274 26.274 0 0 1-.55-.573 70.676 70.676 0 0 1-6.185-7.612c-3.352-4.787-6.848-11.197-6.848-17.24C9.667 10.37 16.086 3.952 24 3.952c7.914 0 14.333 6.42 14.333 14.334 0 6.043-3.496 12.453-6.847 17.24a70.676 70.676 0 0 1-6.185 7.612c-.186.198-.333.35-.434.454l-.117.12-.03.03-.01.01-.002.002-.708-.706Zm0 0 .708.706c-.39.39-1.025.39-1.415 0l.707-.706Z" class="primary"/>
    <path fill="#5FBEAC" d="M24 12.033a6 6 0 1 0 0 12 6 6 0 0 0 0-12Zm-8 6a8 8 0 1 1 16 0 8 8 0 0 1-16 0Z" class="secondary"/>
  </g>
</svg>
