<svg xmlns="http://www.w3.org/2000/svg" width="48" height="48" fill="none" viewBox="0 0 48 48">
  <path fill="#29707A" fill-rule="evenodd" d="M33.898 24.536c-5.848-.715-13.949-.715-19.796 0l-.122-.992.13.991c-.009.001-.03.006-.056.039a.27.27 0 0 0-.054.169v16.514c0 .079.027.139.056.174a.123.123 0 0 0 .032.029c.005.003.007.003.008.003h.006c5.848.716 13.948.716 19.796 0l.122.993-.13-.991c.009-.001.03-.006.056-.039a.27.27 0 0 0 .054-.169V24.743a.276.276 0 0 0-.056-.174.125.125 0 0 0-.032-.029c-.005-.003-.007-.003-.008-.003h-.006Zm.24-1.985c-6.008-.735-14.27-.735-20.279 0l-.008.001c-1.134.149-1.851 1.156-1.851 2.19v16.515c0 1.041.725 2.058 1.862 2.192 6.008.735 14.27.735 20.279 0l.008-.001C35.283 43.3 36 42.292 36 41.258V24.742c0-1.041-.725-2.058-1.861-2.192Z" clip-rule="evenodd"/>
  <path fill="#5FBEAC" fill-rule="evenodd" d="M23.99 8C20.733 8 18 10.79 18 14.325v1.665a1 1 0 0 1-2 0v-1.665C16 9.775 19.54 6 23.99 6c2.226 0 4.236.955 5.679 2.46A8.465 8.465 0 0 1 32 14.335V16a1 1 0 1 1-2 0v-1.666a6.47 6.47 0 0 0-1.775-4.49C27.129 8.701 25.629 8 23.99 8Z" clip-rule="evenodd"/>
</svg>
