<svg xmlns="http://www.w3.org/2000/svg" width="48" height="48" fill="none" viewBox="0 0 48 48">
  <g class="marketplace">
    <g fill="#29707A" class="primary">
      <path d="M14.97 23.755a1 1 0 0 0-1.94.49l2.543 10.057a1 1 0 1 0 1.94-.49l-2.544-10.057Zm19.542.49a1 1 0 1 0-1.939-.49L30.03 33.812a1 1 0 1 0 1.94.49l2.542-10.057ZM24 23a1 1 0 0 1 1 1v10a1 1 0 0 1-2 0V24a1 1 0 0 1 1-1Z"/>
      <path fill-rule="evenodd" d="M5 17a1 1 0 0 0-.98 1.203l4.171 20.072C8.644 40.46 10.618 42 12.856 42h22.677c2.45 0 4.584-1.724 5.004-4.125l3.448-19.703A1 1 0 0 0 43 17H5Zm5.15 20.868L6.23 19h35.58l-3.244 18.53c-.245 1.404-1.513 2.47-3.033 2.47H12.856c-1.333 0-2.455-.917-2.706-2.132Z" clip-rule="evenodd"/>
    </g>
    <path fill="#5FBEAC" fill-rule="evenodd" d="M17.914 5.406a1 1 0 0 0-1.828-.812l-4 9a1 1 0 1 0 1.828.812l4-9Zm14-.812a1 1 0 1 0-1.828.812l4 9a1 1 0 1 0 1.828-.812l-4-9Z" class="secondary" clip-rule="evenodd"/>
  </g>
</svg>
