<svg xmlns="http://www.w3.org/2000/svg" width="48" height="48" fill="none" viewBox="0 0 48 48">
  <path fill="#5FBEAC" fill-rule="evenodd" d="M5.1 18.005a1 1 0 0 0-.199 1.99c10.074 1.003 18.102 9.039 19.104 19.104a1 1 0 0 0 1.99-.198C24.9 27.888 16.121 19.102 5.1 18.005Zm-1.086 9.83a1 1 0 0 1 1.15-.821c6.035 1.009 10.795 5.77 11.822 11.819a1 1 0 1 1-1.972.334c-.885-5.212-4.99-9.313-10.179-10.18a1 1 0 0 1-.821-1.152Zm.133 7.643a1 1 0 0 1 1.375-.33 9.885 9.885 0 0 1 3.335 3.336 1 1 0 0 1-1.714 1.032 7.887 7.887 0 0 0-2.665-2.663 1 1 0 0 1-.33-1.375Z" clip-rule="evenodd"/>
  <path fill="#29707A" fill-rule="evenodd" d="M9.219 10C7.487 10 6 11.563 6 13.35a1 1 0 1 1-2 0C4 10.549 6.295 8 9.219 8h29.562C41.654 8 44 10.287 44 13.14v20.72c0 2.865-2.358 5.14-5.22 5.14h-7.468a1 1 0 1 1 0-2h7.469C40.576 37 42 35.582 42 33.86V13.14c0-1.716-1.417-3.14-3.22-3.14H9.22Z" clip-rule="evenodd"/>
</svg>
