<svg xmlns="http://www.w3.org/2000/svg" width="48" height="48" fill="none" viewBox="0 0 48 48">
  <path fill="#29707A" fill-rule="evenodd" d="M18.488 4C17.152 4 16 5.06 16 6.445V8h-2.717C10.382 8 8 10.33 8 13.248v25.504C8 41.657 10.369 44 13.283 44h21.434C37.618 44 40 41.67 40 38.752V13.248C40 10.343 37.631 8 34.717 8H32V6.445C32 5.065 30.863 4 29.512 4H18.488ZM32 10v2.555C32 13.94 30.848 15 29.512 15H18.488C17.138 15 16 13.935 16 12.555V10h-2.717C11.466 10 10 11.456 10 13.248v25.504C10 40.538 11.459 42 13.283 42h21.434C36.534 42 38 40.544 38 38.752V13.248C38 11.462 36.541 10 34.717 10H32ZM18 6.445c0-.217.193-.445.488-.445h11.024c.3 0 .488.223.488.445v6.11c0 .217-.193.445-.488.445H18.488c-.3 0-.488-.223-.488-.445v-6.11ZM15 21a1 1 0 1 0 0 2h8a1 1 0 1 0 0-2h-8Zm0 10a1 1 0 1 0 0 2h8a1 1 0 1 0 0-2h-8Z" clip-rule="evenodd"/>
  <path fill="#5FBEAC" fill-rule="evenodd" d="M34.82 18.574a1 1 0 1 0-1.639-1.148l-3.382 4.829-.979-1.403a1 1 0 0 0-1.64 1.145l1.797 2.575a1 1 0 0 0 1.64.002l4.202-6Zm0 10a1 1 0 1 0-1.639-1.148l-3.382 4.829-.979-1.403a1 1 0 0 0-1.64 1.145l1.797 2.575a1 1 0 0 0 1.64.002l4.202-6Z" clip-rule="evenodd"/>
</svg>
