<svg xmlns="http://www.w3.org/2000/svg" width="48" height="48" fill="none" viewBox="0 0 48 48">
  <g fill-rule="evenodd" class="overview" clip-rule="evenodd">
    <path fill="#29707A" d="m41.086 20.045 2.66 2.823a.913.913 0 0 1 0 1.264l-2.66 2.822c-8.843 9.394-25.328 9.395-34.171 0l-2.66-2.822a.913.913 0 0 1 0-1.264l2.66-2.823c8.842-9.393 25.328-9.393 34.17 0Zm-1.488 1.263c-8.05-8.551-23.146-8.551-31.196 0L6.337 23.5 8.4 25.69c8.05 8.552 23.147 8.553 31.197.001l2.066-2.191-2.066-2.192Z" class="primary"/>
    <path fill="#5FBEAC" d="M24 20a3 3 0 1 0 0 6 3 3 0 0 0 0-6Zm-5 3a5 5 0 1 1 10 0 5 5 0 0 1-10 0Z" class="secondary"/>
  </g>
</svg>
