<svg xmlns="http://www.w3.org/2000/svg" width="48" height="48" fill="none" viewBox="0 0 48 48">
  <path fill="#5FBEAC" fill-rule="evenodd" d="M41.342 26.658a2.248 2.248 0 0 0-3.178 0l-11.3 11.3-.835 3.32a.942.942 0 0 1-.013.063.539.539 0 0 0 .652.643h.003l3.371-.848L41.34 29.848l.001-.001a2.26 2.26 0 0 0 .001-3.19Zm-4.592-1.415a4.249 4.249 0 0 1 6.007 0 4.26 4.26 0 0 1 .002 6.014l-.003.003-11.495 11.486a1 1 0 0 1-.463.262l-3.654.919c-1.82.443-3.481-1.174-3.086-2.993a.799.799 0 0 1 .017-.085l.917-3.647a1 1 0 0 1 .262-.463L36.75 25.244Z" clip-rule="evenodd"/>
  <path fill="#29707A" fill-rule="evenodd" d="M25.071 4.265c6.689 3.396 12.821 5.265 15.164 5.911l.009.002c.96.274 1.756 1.096 1.756 2.187V21a1 1 0 1 1-2 0v-8.635c0-.026-.008-.063-.048-.112a.515.515 0 0 0-.253-.15c-2.422-.668-8.692-2.58-15.539-6.057l-.012-.006a.338.338 0 0 0-.307-.006l-.02.01c-6.823 3.492-13.108 5.394-15.517 6.078l-.013.003c-.254.068-.291.223-.291.26v16.34c0 2.083 1.526 4.24 3.95 6.31 2.379 2.03 5.391 3.782 7.88 5.078a1 1 0 1 1-.925 1.774c-2.53-1.32-5.702-3.153-8.253-5.33C8.148 34.417 6 31.744 6 28.724v-16.34c0-1.079.783-1.922 1.763-2.189 2.356-.669 8.491-2.527 15.14-5.928a2.337 2.337 0 0 1 2.168-.003Z" clip-rule="evenodd"/>
</svg>
