<svg xmlns="http://www.w3.org/2000/svg" width="48" height="48" fill="none" viewBox="0 0 48 48">
  <path fill="#29707A" fill-rule="evenodd" d="M22.93 4.271a2.23 2.23 0 0 1 2.129-.001c6.278 3.375 12.05 5.233 14.253 5.878l.019.005c.925.291 1.669 1.118 1.669 2.18V28.6c0 2.077-.937 3.994-2.256 5.67-1.322 1.681-3.089 3.198-4.898 4.498-3.621 2.6-7.57 4.438-8.942 5.047l-.021.009a2.3 2.3 0 0 1-1.766 0l-.016-.007c-1.386-.606-5.335-2.441-8.954-5.042-1.809-1.3-3.573-2.818-4.894-4.5C7.935 32.597 7 30.68 7 28.6V12.342c0-1.03.705-1.908 1.693-2.186A76.828 76.828 0 0 0 22.931 4.27l.476.88-.477-.879Zm1.176 1.757a.23.23 0 0 0-.221 0l-.002.001a78.818 78.818 0 0 1-14.63 6.047l-.017.005c-.173.048-.236.174-.236.261V28.6c0 1.466.662 2.958 1.826 4.44 1.16 1.479 2.762 2.87 4.488 4.11 3.443 2.475 7.233 4.242 8.576 4.829.07.028.147.028.218 0 1.342-.595 5.129-2.364 8.571-4.835 1.728-1.241 3.33-2.633 4.493-4.11C38.337 31.553 39 30.063 39 28.6V12.333c0-.058-.045-.199-.262-.27-2.287-.67-8.194-2.573-14.628-6.033l-.004-.002Z" clip-rule="evenodd"/>
  <path fill="#5FBEAC" d="M18.809 32c-.327 0-.655-.1-.936-.308A1.548 1.548 0 0 1 17.282 30l1.382-4.948-4.064-3.194a1.559 1.559 0 0 1-.527-1.71 1.57 1.57 0 0 1 1.445-1.086l5.182-.226 1.355-3.592.454-1.222a1.575 1.575 0 0 1 1.482-1.013c.663 0 1.245.398 1.482 1.013l1.818 4.823 5.19.226a1.568 1.568 0 0 1 1.437 1.086c.21.624 0 1.303-.509 1.71l-4.064 3.194 1.382 4.949a1.554 1.554 0 0 1-.59 1.682 1.563 1.563 0 0 1-1.81.046l-4.336-2.841-4.327 2.832a1.614 1.614 0 0 1-.873.262l.018.009Zm5.19-4.949c.3 0 .61.09.874.262l3.936 2.579-1.255-4.497a1.563 1.563 0 0 1 .537-1.646l3.673-2.896-4.7-.208a1.63 1.63 0 0 1-1.419-1.022L24 15.253l-1.645 4.36a1.582 1.582 0 0 1-1.428 1.023l-4.69.208 3.672 2.896c.49.389.7 1.031.546 1.637l-1.264 4.506 3.936-2.579c.264-.172.573-.262.873-.262v.009Z"/>
</svg>
