<svg xmlns="http://www.w3.org/2000/svg" width="48" height="48" fill="none" viewBox="0 0 48 48">
  <path fill="#5FBEAC" fill-rule="evenodd" d="M22 8c-1.662 0-3 1.339-3 3v2a1 1 0 1 1-2 0v-2c0-2.766 2.233-5 5-5h4c2.767 0 5 2.234 5 5v2a1 1 0 1 1-2 0v-2c0-1.661-1.338-3-3-3h-4Z" clip-rule="evenodd"/>
  <path fill="#29707A" fill-rule="evenodd" d="M9.152 12C6.327 12 4 14.252 4 17.083v17.834C4 37.737 6.326 40 9.152 40h29.697C41.672 40 44 37.748 44 34.917V17.083C44 14.263 41.675 12 38.849 12H9.152ZM42 22v-4.917C42 15.399 40.602 14 38.849 14H9.152C7.396 14 6 15.391 6 17.083V22c0 2.717 2.331 5 5.336 5h25.327C39.66 27 42 24.716 42 22ZM6 26.81C7.345 28.164 9.25 29 11.336 29h25.327A7.51 7.51 0 0 0 42 26.806v8.111C42 36.61 40.603 38 38.849 38H9.152C7.397 38 6 36.6 6 34.917V26.81Z" clip-rule="evenodd"/>
</svg>
