<svg xmlns="http://www.w3.org/2000/svg" width="48" height="48" fill="none" viewBox="0 0 48 48">
  <path fill="#5FBEAC" fill-rule="evenodd" d="M29 14.421c0-.232.189-.421.421-.421h5.158a.42.42 0 0 1 .421.421v5.158a.421.421 0 0 1-.421.421H29.42a.421.421 0 0 1-.421-.421V14.42ZM29.421 12A2.421 2.421 0 0 0 27 14.421v5.158A2.421 2.421 0 0 0 29.421 22h5.158A2.421 2.421 0 0 0 37 19.579V14.42A2.421 2.421 0 0 0 34.579 12H29.42ZM29 28.421c0-.232.189-.421.421-.421h5.158c.233 0 .421.189.421.421v5.158a.421.421 0 0 1-.421.421H29.42a.421.421 0 0 1-.421-.421V28.42ZM29.421 26A2.421 2.421 0 0 0 27 28.421v5.158A2.421 2.421 0 0 0 29.421 36h5.158A2.421 2.421 0 0 0 37 33.579V28.42A2.421 2.421 0 0 0 34.579 26H29.42Z" clip-rule="evenodd"/>
  <path fill="#29707A" fill-rule="evenodd" d="M12.721 6C11.21 6 10 7.214 10 8.648V13h2.868a1 1 0 1 1 0 2H6a1 1 0 1 1 0-2h2V8.648C8 6.073 10.143 4 12.721 4H37.28C39.857 4 42 6.073 42 8.648v30.704C42 41.928 39.857 44 37.279 44H12.72C10.143 44 8 41.928 8 39.352V37a1 1 0 1 1 2 0v2.352C10 40.786 11.21 42 12.721 42H37.28c1.51 0 2.72-1.215 2.72-2.648V8.648C40 7.214 38.79 6 37.279 6H12.72ZM5 24a1 1 0 0 1 1-1h2.012v-5.552a1 1 0 1 1 2 0V23H13a1 1 0 1 1 0 2H6a1 1 0 0 1-1-1Zm0 10a1 1 0 0 1 1-1h2.012v-5.876a1 1 0 1 1 2 0V33H13a1 1 0 1 1 0 2H6a1 1 0 0 1-1-1Zm12-19a1 1 0 0 1 1-1h5a1 1 0 1 1 0 2h-5a1 1 0 0 1-1-1Zm1.009 3.01a1.001 1.001 0 0 0-1.001 1.002 1 1 0 0 0 1.004.998l4.995-.01a1.001 1.001 0 0 0 1-1.002A1 1 0 0 0 23.003 18l-4.994.01ZM24 28.993a.998.998 0 0 1-.998.998l-5 .009A.998.998 0 0 1 17 29.007a.998.998 0 0 1 .998-.998l5-.009a.998.998 0 0 1 1.002.993Zm-6.98 4.053a1.001 1.001 0 0 1 .994-1.008L23.01 32a1.001 1.001 0 0 1 1.01.992A1.001 1.001 0 0 1 23.024 34l-4.995.038a1.001 1.001 0 0 1-1.01-.992Z" clip-rule="evenodd"/>
</svg>
