<svg xmlns="http://www.w3.org/2000/svg" width="48" height="48" fill="none" viewBox="0 0 48 48">
  <g fill-rule="evenodd" class="question" clip-rule="evenodd">
    <path fill="#29707A" d="M24.133 42c9.941 0 18-8.059 18-18s-8.059-18-18-18c-9.94 0-18 8.059-18 18s8.06 18 18 18Zm0 2c11.046 0 20-8.954 20-20s-8.954-20-20-20c-11.045 0-20 8.954-20 20s8.955 20 20 20Z" class="primary"/>
    <path fill="#5FBEAC" d="M20.133 17.221c0-2.46 1.985-4.373 4.285-4.211 1.93.14 3.567 1.788 3.704 3.891v.005c.114 1.645-.684 3.104-1.889 3.885a6.827 6.827 0 0 0-3.106 5.753V29a1 1 0 1 0 2 0v-2.456c0-1.677.834-3.194 2.193-4.074 1.808-1.172 2.962-3.322 2.798-5.7-.2-3.046-2.577-5.54-5.556-5.755h-.002c-3.557-.252-6.427 2.688-6.427 6.206a1 1 0 1 0 2 0ZM24.39 32h-.513c-.412 0-.744.31-.744.69v.62c0 .38.332.69.744.69h.513c.412 0 .743-.31.743-.69v-.62c0-.38-.331-.69-.743-.69Z" class="secondary"/>
  </g>
</svg>
