<svg xmlns="http://www.w3.org/2000/svg" width="48" height="48" fill="none" viewBox="0 0 48 48">
  <path fill="#29707A" fill-rule="evenodd" d="M32 8H21a1 1 0 0 0-1 1v13h-6.1A5.002 5.002 0 0 0 4 23a5 5 0 0 0 9.9 1H20v15a1 1 0 0 0 1 1h12a1 1 0 1 0 0-2H22V24h11a1 1 0 1 0 0-2H22V10h10a1 1 0 1 0 0-2ZM12 23a3 3 0 1 0-6 0 3 3 0 0 0 6 0Z" clip-rule="evenodd"/>
  <path fill="#5FBEAC" fill-rule="evenodd" d="M37 20a3 3 0 1 0 0 6 3 3 0 0 0 0-6Zm-5 3a5 5 0 1 1 10 0 5 5 0 0 1-10 0Zm5-17a3 3 0 1 0 0 6 3 3 0 0 0 0-6Zm-5 3a5 5 0 1 1 10 0 5 5 0 0 1-10 0Zm5 27a3 3 0 1 0 0 6 3 3 0 0 0 0-6Zm-5 3a5 5 0 1 1 10 0 5 5 0 0 1-10 0Z" clip-rule="evenodd"/>
</svg>
