<svg xmlns="http://www.w3.org/2000/svg" width="48" height="48" fill="none" viewBox="0 0 48 48">
  <g fill-rule="evenodd" class="services" clip-rule="evenodd">
    <path fill="#5FBEAC" d="M4 6.95A2.955 2.955 0 0 1 6.95 4h13.1A2.955 2.955 0 0 1 23 6.95v13.1A2.955 2.955 0 0 1 20.05 23H6.95A2.955 2.955 0 0 1 4 20.05V6.95ZM6.95 6c-.52 0-.95.43-.95.95v13.1c0 .52.43.95.95.95h13.1c.52 0 .95-.43.95-.95V6.95c0-.52-.43-.95-.95-.95H6.95Z" class="secondary"/>
    <path fill="#29707A" d="M25 6.95A2.955 2.955 0 0 1 27.95 4h13.1A2.955 2.955 0 0 1 44 6.95v13.1A2.955 2.955 0 0 1 41.05 23h-13.1A2.955 2.955 0 0 1 25 20.05V6.95ZM27.95 6c-.52 0-.95.43-.95.95v13.1c0 .52.43.95.95.95h13.1c.52 0 .95-.43.95-.95V6.95c0-.52-.43-.95-.95-.95h-13.1ZM25 27.95A2.955 2.955 0 0 1 27.95 25h13.1A2.955 2.955 0 0 1 44 27.95v13.1A2.955 2.955 0 0 1 41.05 44h-13.1A2.955 2.955 0 0 1 25 41.05v-13.1Zm2.95-.95c-.52 0-.95.43-.95.95v13.1c0 .52.43.95.95.95h13.1c.52 0 .95-.43.95-.95v-13.1c0-.52-.43-.95-.95-.95h-13.1Zm-21-2A2.955 2.955 0 0 0 4 27.95v13.1A2.955 2.955 0 0 0 6.95 44h13.1A2.955 2.955 0 0 0 23 41.05v-13.1A2.955 2.955 0 0 0 20.05 25H6.95ZM6 27.95c0-.52.43-.95.95-.95h13.1c.52 0 .95.43.95.95v13.1c0 .52-.43.95-.95.95H6.95c-.52 0-.95-.43-.95-.95v-13.1Z" class="primary"/>
  </g>
</svg>
