<svg xmlns="http://www.w3.org/2000/svg" width="48" height="48" fill="none" viewBox="0 0 48 48">
  <path fill="#5FBEAC" fill-rule="evenodd" d="M25.025 19.081a6.012 6.012 0 0 0-6.941 6.94c.404 2.473 2.415 4.484 4.89 4.892a6.012 6.012 0 0 0 6.942-6.94c-.404-2.472-2.415-4.483-4.89-4.892Zm-8.915 7.263a8.012 8.012 0 0 1 9.239-9.237h.001c3.32.548 5.997 3.222 6.54 6.544a8.012 8.012 0 0 1-9.239 9.236h-.001c-3.32-.548-5.997-3.22-6.54-6.543" clip-rule="evenodd"/>
  <path fill="#29707A" d="M30.41 44.997a2.216 2.216 0 0 1-1.962-1.181l-1.686-3.066c-.076-.134-.2-.21-.305-.19-1.6.275-3.305.275-4.895 0-.114-.01-.238.056-.314.19l-1.686 3.066c-.305.553-.8.943-1.39 1.105a2.211 2.211 0 0 1-1.715-.248l-4.933-2.99c-1.048-.638-1.42-2.048-.82-3.143l1.686-3.076c.086-.162.077-.362-.019-.486a16.01 16.01 0 0 1-2.438-4.447.336.336 0 0 0-.304-.229H6.267c-1.238 0-2.257-1.038-2.257-2.324v-5.98c0-1.277 1.01-2.325 2.257-2.325h3.362a.323.323 0 0 0 .304-.228 16.259 16.259 0 0 1 2.438-4.448c.096-.123.105-.323.02-.485l-1.686-3.077c-.6-1.095-.229-2.504.819-3.142l4.924-2.972a2.21 2.21 0 0 1 1.714-.248c.59.162 1.086.553 1.39 1.105l1.686 3.067c.076.133.2.21.314.19a14.564 14.564 0 0 1 4.896 0c.114.02.238-.057.304-.19l1.686-3.067c.305-.552.8-.943 1.39-1.105a2.216 2.216 0 0 1 1.715.248l4.933 2.99c1.048.639 1.42 2.048.82 3.143l-1.687 3.077c-.085.162-.076.361.02.485a16.013 16.013 0 0 1 2.438 4.448.335.335 0 0 0 .304.229h3.362c1.238 0 2.258 1.038 2.258 2.323v5.981c0 1.276-1.01 2.324-2.258 2.324h-3.362a.323.323 0 0 0-.304.229 16.26 16.26 0 0 1-2.438 4.447c-.096.124-.105.324-.02.486l1.686 3.076c.6 1.095.229 2.505-.819 3.143l-4.933 2.99c-.352.21-.743.324-1.143.324l.01-.019Zm-3.924-6.343c.79 0 1.543.448 1.943 1.181l1.685 3.067a.344.344 0 0 0 .22.181.3.3 0 0 0 .228-.038l4.933-2.99c.19-.115.248-.391.134-.6l-1.686-3.077a2.34 2.34 0 0 1 .19-2.571 14.386 14.386 0 0 0 2.153-3.924 2.247 2.247 0 0 1 2.095-1.486h3.362c.19 0 .352-.19.352-.419v-5.98c0-.23-.152-.42-.352-.42H38.38c-.933 0-1.781-.6-2.095-1.485a14.193 14.193 0 0 0-2.153-3.915 2.34 2.34 0 0 1-.19-2.571l1.686-3.076c.114-.21.047-.486-.134-.6l-4.933-2.99a.305.305 0 0 0-.229-.039.398.398 0 0 0-.219.181L28.43 10.15c-.467.847-1.39 1.304-2.305 1.152a12.775 12.775 0 0 0-4.257 0c-.915.152-1.838-.305-2.305-1.152l-1.686-3.067a.344.344 0 0 0-.219-.181.3.3 0 0 0-.228.038l-4.934 2.99c-.19.115-.247.391-.133.6l1.686 3.077a2.34 2.34 0 0 1-.19 2.571 14.25 14.25 0 0 0-2.153 3.924 2.247 2.247 0 0 1-2.095 1.486H6.248c-.19 0-.353.19-.353.419v5.98c0 .23.153.42.353.42H9.61c.933 0 1.78.6 2.095 1.485a13.844 13.844 0 0 0 2.152 3.915 2.34 2.34 0 0 1 .19 2.571l-1.685 3.076c-.114.21-.048.486.133.6l4.934 2.99a.305.305 0 0 0 .228.039c.086-.02.162-.086.22-.181l1.685-3.067c.467-.847 1.39-1.304 2.305-1.152a12.78 12.78 0 0 0 4.257 0 2.09 2.09 0 0 1 .352-.029h.01Z"/>
</svg>
