<svg xmlns="http://www.w3.org/2000/svg" width="48" height="48" fill="none" viewBox="0 0 48 48">
  <path fill="#5FBEAC" fill-rule="evenodd" d="M39 20a1 1 0 0 1-1-1v-8.798A1.2 1.2 0 0 0 36.801 9h-8.389l1.294 1.292a1 1 0 1 1-1.412 1.416l-3-2.995a1 1 0 0 1-.002-1.415l3-3.005a1 1 0 1 1 1.416 1.414L28.416 7h8.385A3.2 3.2 0 0 1 40 10.202V19a1 1 0 0 1-1 1ZM9 28a1 1 0 0 1 1 1v8.798A1.2 1.2 0 0 0 11.198 39h8.39l-1.294-1.292a1 1 0 1 1 1.412-1.416l3 2.995a1 1 0 0 1 .002 1.415l-3 3.005a1 1 0 1 1-1.416-1.413L19.584 41h-8.386A3.2 3.2 0 0 1 8 37.798V29a1 1 0 0 1 1-1Z" clip-rule="evenodd"/>
  <path fill="#29707A" fill-rule="evenodd" d="M21 13.5a7.5 7.5 0 1 1-15 0 7.5 7.5 0 0 1 15 0Zm2 0a9.5 9.5 0 1 1-19 0 9.5 9.5 0 0 1 19 0ZM29 27h11a2 2 0 0 1 2 2v11a2 2 0 0 1-2 2H29a2 2 0 0 1-2-2V29a2 2 0 0 1 2-2Zm-4 2a4 4 0 0 1 4-4h11a4 4 0 0 1 4 4v11a4 4 0 0 1-4 4H29a4 4 0 0 1-4-4V29Z" clip-rule="evenodd"/>
</svg>
