<svg xmlns="http://www.w3.org/2000/svg" width="48" height="48" fill="none" viewBox="0 0 48 48">
  <path fill="#29707A" fill-rule="evenodd" d="M23.952 5.974C14.005 5.974 5.948 14.04 5.948 24c0 3.43.43 6.928 1.908 9.488a.997.997 0 1 1-1.727 1C4.378 31.455 3.952 27.515 3.952 24c0-11.063 8.95-20.024 20-20.024 4.69 0 9.42 1.598 12.97 4.338V5.023a.998.998 0 1 1 1.995 0v5.992a.998.998 0 0 1-.998 1h-5.986a.998.998 0 0 1 0-1.998h3.924c-3.192-2.526-7.556-4.043-11.905-4.043ZM9.986 35.986a.998.998 0 0 0-.998.998v5.993a.998.998 0 1 0 1.995 0v-3.195c3.539 2.906 8.106 4.194 12.97 4.194 11.046 0 20-8.91 20-19.976 0-3.566-.44-6.483-2.177-9.49a.997.997 0 1 0-1.728 1c1.494 2.587 1.91 5.112 1.91 8.49 0 9.956-8.054 17.979-18.006 17.979-4.668 0-8.865-1.273-12.004-3.996h4.023a.998.998 0 0 0 0-1.997H9.986Z" clip-rule="evenodd"/>
  <path fill="#5FBEAC" fill-rule="evenodd" d="M28 18h-8a2 2 0 0 0-2 2v8a2 2 0 0 0 2 2h8a2 2 0 0 0 2-2v-8a2 2 0 0 0-2-2Zm-8-2a4 4 0 0 0-4 4v8a4 4 0 0 0 4 4h8a4 4 0 0 0 4-4v-8a4 4 0 0 0-4-4h-8Z" clip-rule="evenodd"/>
</svg>
