<svg xmlns="http://www.w3.org/2000/svg" width="48" height="48" fill="none" viewBox="0 0 48 48">
  <path fill="#29707A" fill-rule="evenodd" d="M24 7c-6.472 0-12 6.287-12 14.429V23h2v11c0 3.466 2.373 6 5.002 6H22v2h-2.998c-3.695 0-6.523-3.164-6.947-7H9c-2.956 0-5-2.904-5-6s2.044-6 5-6h1v-1.571C10 12.517 16.117 5 24 5s14 7.517 14 16.429V23h1c2.956 0 5 2.904 5 6s-2.044 6-5 6h-5V23h2v-1.571C36 13.288 30.472 7 24 7ZM6 29c0-2.43 1.541-4 3-4h3v8H9c-1.459 0-3-1.57-3-4Zm33 4h-3v-8h3c1.459 0 3 1.57 3 4 0 2.43-1.541 4-3 4Z" clip-rule="evenodd"/>
  <path fill="#5FBEAC" fill-rule="evenodd" d="M23.517 39c-.358 0-.517.252-.517.407v3.186c0 .155.16.407.517.407h5.966c.358 0 .517-.252.517-.407v-3.186c0-.155-.16-.407-.517-.407h-5.966ZM21 39.407C21 38.008 22.199 37 23.517 37h5.966C30.801 37 32 38.008 32 39.407v3.186C32 43.992 30.801 45 29.483 45h-5.966C22.199 45 21 43.992 21 42.593v-3.186Z" clip-rule="evenodd"/>
</svg>
