<svg xmlns="http://www.w3.org/2000/svg" width="48" height="48" fill="none" viewBox="0 0 48 48">
  <path fill="#5FBEAC" fill-rule="evenodd" d="M17.44 32c-1.903 0-3.455 1.563-3.44 3.492V40.5a1 1 0 1 1-2 0v-4.996C11.978 32.475 14.418 30 17.44 30h13.12c3.022 0 5.462 2.475 5.44 5.504V40.5a1 1 0 0 1-2 0v-5.008c.015-1.93-1.537-3.492-3.44-3.492H17.44Z" clip-rule="evenodd"/>
  <path fill="#29707A" fill-rule="evenodd" d="M6 25c0-9.941 8.059-18 18-18s18 8.059 18 18-8.059 18-18 18S6 34.941 6 25ZM24 5C12.954 5 4 13.954 4 25s8.954 20 20 20 20-8.954 20-20S35.046 5 24 5Zm-5 15a5 5 0 1 1 10 0 5 5 0 0 1-10 0Zm5-7a7 7 0 1 0 0 14 7 7 0 0 0 0-14Z" clip-rule="evenodd"/>
</svg>
