<svg xmlns="http://www.w3.org/2000/svg" width="48" height="48" fill="none" viewBox="0 0 48 48">
  <path fill="#29707A" d="M10 8.648C10 7.214 11.21 6 12.721 6H37.28C38.79 6 40 7.214 40 8.648v30.704C40 40.786 38.79 42 37.279 42H12.72C11.21 42 10 40.785 10 39.352v-2.508a1 1 0 1 0-2 0v2.508C8 41.928 10.143 44 12.721 44H37.28c2.577 0 4.72-2.072 4.72-4.648V8.648C42 6.073 39.857 4 37.279 4H12.72C10.143 4 8 6.073 8 8.648V13H6a1 1 0 1 0 0 2h7a1 1 0 1 0 0-2h-3V8.648Z"/>
  <path fill="#29707A" d="M6 23a1 1 0 1 0 0 2h7a1 1 0 1 0 0-2h-2.988v-5.552a1 1 0 1 0-2 0V23H6Zm0 10a1 1 0 1 0 0 2h7a1 1 0 1 0 0-2h-2.988v-5.876a1 1 0 1 0-2 0V33H6Z"/>
  <path fill="#5FBEAC" fill-rule="evenodd" d="M19 21a1 1 0 0 1 1-1h5.706a4.3 4.3 0 0 1 4.3 4.298v5.704c0 .034-.003.068-.006.102.05.505.475.897.995.897H32a1 1 0 0 1 1 1V36a1 1 0 0 1-1 1H20a1 1 0 0 1-1-1v-3.999a1 1 0 0 1 1-1h2.005v-4.003c0-.554-.445-1-1-1H20a1 1 0 0 1-1-1V21Zm9.005 8.859v-5.56a2.299 2.299 0 0 0-2.3-2.299H21v1.999h.005c1.659 0 3 1.34 3 2.999v5.003a1 1 0 0 1-1 1H21V35h10v-1.999h-.005c-1.659 0-3-1.34-3-2.999 0-.049.003-.096.01-.143ZM23 14.019a1.99 1.99 0 0 0 2 1.992c1.105-.004 2-.903 2-2.007a1.991 1.991 0 0 0-2-1.993c-1.105.004-2 .903-2 2.008Zm2 3.992c-2.21.008-4-1.776-4-3.985 0-2.21 1.79-4.007 4-4.015 2.21-.008 4 1.776 4 3.985 0 2.21-1.79 4.007-4 4.015Z" clip-rule="evenodd"/>
</svg>
