<svg xmlns="http://www.w3.org/2000/svg" width="48" height="48" fill="none" viewBox="0 0 48 48">
  <path fill="#29707A" fill-rule="evenodd" d="M4 10.713C4 8.1 6.138 6 8.752 6h30.496C41.861 6 44 8.1 44 10.713v20.574C44 33.9 41.862 36 39.248 36H25v6h8a1 1 0 1 1 0 2H15a1 1 0 1 1 0-2h8v-6H8.752C6.138 36 4 33.9 4 31.287V10.713Zm2 0C6 9.225 7.222 8 8.752 8h30.496C40.778 8 42 9.225 42 10.713V27.98H6V10.713ZM6 29.98h36v1.306C42 32.776 40.778 34 39.248 34H8.753C7.222 34 6 32.776 6 31.287v-1.306Z" clip-rule="evenodd"/>
  <path fill="#5FBEAC" fill-rule="evenodd" d="M30 16.5a1 1 0 0 1-.553.894l-9 4.5A1 1 0 0 1 19 21v-9a1 1 0 0 1 1.447-.894l9 4.5A1 1 0 0 1 30 16.5Zm-3.236 0L21 13.618v5.764l5.764-2.882ZM8 25a1 1 0 0 1 1-1h30a1 1 0 1 1 0 2H9a1 1 0 0 1-1-1Z" clip-rule="evenodd"/>
  <path fill="#5FBEAC" d="M13.493 23h-.986c-.832 0-1.507.62-1.507 1.383v1.234c0 .764.675 1.383 1.507 1.383h.986c.832 0 1.507-.62 1.507-1.383v-1.234c0-.764-.675-1.383-1.507-1.383Z"/>
</svg>
