<svg xmlns="http://www.w3.org/2000/svg" width="48" height="48" fill="none" viewBox="0 0 48 48">
  <path fill="#29707A" fill-rule="evenodd" d="M5.948 23.976c0-9.96 8.057-18.026 18.004-18.026 4.35 0 8.712 1.517 11.905 4.043h-3.924a.998.998 0 0 0 0 1.997h5.986a.998.998 0 0 0 .998-.998V4.999a.998.998 0 1 0-1.996 0V8.29c-3.55-2.74-8.28-4.338-12.969-4.338-11.05 0-20 8.961-20 20.024 0 3.515.426 7.456 2.177 10.488a.997.997 0 1 0 1.727-1c-1.478-2.56-1.908-6.058-1.908-9.488Zm3.04 12.985a1 1 0 0 1 .998-1h5.985a.998.998 0 0 1 0 1.998h-4.023c3.14 2.723 7.337 3.996 12.004 3.996 9.951 0 18.005-8.022 18.005-17.979 0-3.378-.415-5.902-1.909-8.49a.997.997 0 1 1 1.727-1c1.737 3.008 2.177 5.924 2.177 9.49 0 11.066-8.953 19.976-20 19.976-4.863 0-9.43-1.288-12.969-4.194v3.196a.998.998 0 1 1-1.995 0V36.96Zm18.2-24.85a.997.997 0 0 0-1.355.407l-.96 1.8a9.321 9.321 0 0 0-2.417.083l-1.068-1.738a.998.998 0 0 0-1.378-.324l-4.633 2.894a1 1 0 0 0-.322 1.37l1.065 1.738c-.236.336-.45.686-.643 1.043a8.892 8.892 0 0 0-.5 1.1l-1.996-.004a.997.997 0 0 0-1 1v5.499c0 .552.447.999.998.999h2.216a9.719 9.719 0 0 0 1.282 2.108l-.964 1.807a1 1 0 0 0 .405 1.35l4.8 2.599a.996.996 0 0 0 1.354-.408l.96-1.8a9.32 9.32 0 0 0 2.417-.082l1.068 1.738a.998.998 0 0 0 1.378.324l4.633-2.895a1 1 0 0 0 .322-1.37l-1.066-1.738c.237-.336.45-.686.644-1.043l.004-.007c.197-.37.363-.743.505-1.118l2.022-.066a.998.998 0 0 0 .965-.999v-5.404a.998.998 0 0 0-.998-1H32.71a9.73 9.73 0 0 0-1.283-2.108l.965-1.807a1 1 0 0 0-.405-1.35l-4.8-2.598Zm-.883 3.761.815-1.527 3.044 1.649-.82 1.535a1 1 0 0 0 .152 1.154 7.736 7.736 0 0 1 1.606 2.634.998.998 0 0 0 .937.655h1.89v3.44l-1.747.057c-.428.014-.8.3-.923.71a7.89 7.89 0 0 1-.586 1.44 7.797 7.797 0 0 1-.862 1.288 1 1 0 0 0-.085 1.164l.906 1.478-2.942 1.838-.908-1.477a.997.997 0 0 0-1.09-.447 7.32 7.32 0 0 1-3.038.105.997.997 0 0 0-1.054.512l-.815 1.527-3.045-1.649.82-1.535a1 1 0 0 0-.151-1.153 7.735 7.735 0 0 1-1.606-2.635.998.998 0 0 0-.937-.655h-1.89v-3.5l1.712.004a.998.998 0 0 0 .958-.71c.15-.501.34-.987.584-1.437.258-.474.544-.909.864-1.292a1 1 0 0 0 .085-1.164l-.906-1.478 2.942-1.837.908 1.477c.227.37.668.55 1.089.446a7.32 7.32 0 0 1 3.039-.104.997.997 0 0 0 1.054-.513Z" clip-rule="evenodd"/>
  <path fill="#5FBEAC" fill-rule="evenodd" d="M24 21c-1.652 0-3 1.348-3 3s1.348 3 3 3a3 3 0 1 0 0-6Zm-5 3c0-2.757 2.243-5 5-5s5 2.243 5 5a5 5 0 1 1-10 0Z" clip-rule="evenodd"/>
</svg>
