<svg width="32" height="32" viewBox="0 0 32 32" fill="none" xmlns="http://www.w3.org/2000/svg">
<path fill-rule="evenodd" clip-rule="evenodd" d="M21.6659 2.75151C21.68 2.76567 21.6937 2.77948 21.7071 2.79289L23.7071 4.79289C24.2639 5.34973 24.6395 5.86268 24.8318 6.49557C25.0008 7.0518 25.0004 7.63487 25 8.2081C25 8.23565 25 8.26317 25 8.29067V15C25 15.5523 24.5523 16 24 16C23.4477 16 23 15.5523 23 15V8.29067C23 7.59969 22.9911 7.3168 22.9182 7.07709C22.8605 6.88732 22.7361 6.65027 22.2929 6.20711L20.2929 4.20711C20.1841 4.09836 20.1359 4.05189 20.1082 4.02782C20.0707 4.0216 19.9927 4.01266 19.8393 4.00718C19.6426 4.00015 19.3825 4 19 4H9.0717C8.92089 4.02799 8.65835 4.1224 8.43656 4.327C8.22363 4.52344 8 4.86269 8 5.5V18C8 18.5523 7.55228 19 7 19C6.44772 19 6 18.5523 6 18V5.5C6 4.30798 6.45437 3.43456 7.08044 2.857C7.67446 2.309 8.37974 2.06522 8.88483 2.00665L8.94222 2H19.0188C19.3778 2 19.674 2 19.9107 2.00845C20.147 2.01689 20.3881 2.035 20.6175 2.09236C21.1419 2.22344 21.4454 2.52928 21.6659 2.75151Z" fill="black"/>
<path fill-rule="evenodd" clip-rule="evenodd" d="M2.83572 10.7188C3.37563 10.1405 4.02644 10 4.43981 10H6.50192C7.05421 10 7.50192 10.4477 7.50192 11C7.50192 11.5523 7.05421 12 6.50192 12H4.43981C4.44012 12 4.44014 12 4.43981 12C4.43527 12.0004 4.37023 12.0059 4.29762 12.0836C4.21867 12.1682 4.00005 12.4784 4.00005 13.365V26.6163C4.00005 27.1435 4.01928 27.4809 4.13154 27.7027C4.1702 27.7792 4.2148 27.8279 4.28839 27.8683C4.37303 27.9148 4.55537 27.9812 4.91354 27.9812H6.74396L9.67928 17.6181C9.71068 17.496 9.74278 17.3661 9.77419 17.2392C9.81925 17.0569 9.86288 16.8805 9.90093 16.7408C9.96988 16.4877 10.0608 16.1924 10.2117 15.9274C10.3801 15.6318 10.6276 15.3647 10.9924 15.194C11.3269 15.0374 11.6807 15 12.0001 15H14.2813C15.0311 15 15.6288 15.1594 16.1328 15.4354C16.6119 15.6977 16.9559 16.0416 17.2016 16.2874C17.8668 16.9306 18.5878 17 19.5001 17H28.0001C28.5305 17 29.0121 17.1773 29.3767 17.5375C29.7191 17.8758 29.8778 18.2956 29.9499 18.6507C30.0899 19.3397 29.9672 20.0827 29.8072 20.5553L29.7985 20.5812L29.7883 20.6065C29.2981 21.83 28.0897 24.2151 26.9145 26.5345L26.8825 26.5976C26.2983 27.7551 25.8143 28.6122 25.261 29.1589C24.9604 29.4558 24.6272 29.6762 24.238 29.8131C23.86 29.9459 23.4815 29.9812 23.1196 29.9812H4.91354C4.31497 29.9812 3.77975 29.8706 3.32622 29.6217C2.86164 29.3667 2.54747 29.002 2.34694 28.6056C1.9975 27.915 1.9991 27.1136 1.99997 26.6764C2.00001 26.6555 2.00005 26.6354 2.00005 26.6163V13.365C2.00005 12.1681 2.29696 11.2958 2.83572 10.7188ZM8.82264 27.9812H23.1196C23.3567 27.9812 23.488 27.9567 23.5747 27.9262C23.6502 27.8997 23.7368 27.8532 23.8554 27.7361C24.1404 27.4545 24.4923 26.8945 25.0971 25.6964L25.0978 25.6951C26.2988 23.3246 27.4595 21.0314 27.9203 19.8912C27.9527 19.7891 27.985 19.6446 28.001 19.485C28.0184 19.3112 28.0124 19.1593 27.99 19.049C27.9861 19.0296 27.982 19.0134 27.9782 19H19.5001C18.501 19 17.0688 18.9467 15.8032 17.7173L15.7981 17.7122L15.7929 17.7071C15.5391 17.4532 15.3744 17.3003 15.1722 17.1896C14.9914 17.0906 14.7297 17 14.2813 17H12.0001C11.9651 17 11.9361 17.0009 11.9124 17.0023C11.8919 17.0572 11.8649 17.1405 11.8306 17.2665C11.795 17.3972 11.7636 17.525 11.7264 17.6764C11.6948 17.8047 11.6591 17.95 11.6131 18.1286L11.6101 18.1401L8.82264 27.9812Z" fill="black"/>
<path fill-rule="evenodd" clip-rule="evenodd" d="M11 7C11 6.44772 11.4477 6 12 6H19C19.5523 6 20 6.44772 20 7C20 7.55228 19.5523 8 19 8H12C11.4477 8 11 7.55228 11 7ZM11 11C11 10.4477 11.4477 10 12 10H19C19.5523 10 20 10.4477 20 11C20 11.5523 19.5523 12 19 12H12C11.4477 12 11 11.5523 11 11Z" fill="black"/>
</svg>
