<svg width="32" height="32" viewBox="0 0 32 32" fill="none" xmlns="http://www.w3.org/2000/svg">
<path fill-rule="evenodd" clip-rule="evenodd" d="M2 16C2 13.7945 3.79446 12 6 12C8.20554 12 10 13.7945 10 16C10 18.2055 8.20554 20 6 20C3.79446 20 2 18.2055 2 16ZM6 14C4.89903 14 4 14.899 4 16C4 17.101 4.89903 18 6 18C7.10097 18 8 17.101 8 16C8 14.899 7.10097 14 6 14Z" fill="black"/>
<path fill-rule="evenodd" clip-rule="evenodd" d="M8.04431 16C8.04431 15.4477 8.49203 15 9.04431 15H22.9928C23.5451 15 23.9928 15.4477 23.9928 16C23.9928 16.5523 23.5451 17 22.9928 17H9.04431C8.49203 17 8.04431 16.5523 8.04431 16Z" fill="black"/>
<path fill-rule="evenodd" clip-rule="evenodd" d="M13 5.99351C13.0036 5.44124 13.4542 4.99645 14.0064 5.00005L21.9837 5.05205C22.5359 5.05565 22.9807 5.50628 22.9772 6.05855C22.9736 6.61082 22.523 7.05561 21.9707 7.05201L13.9935 7.00001C13.4412 6.99641 12.9964 6.54578 13 5.99351Z" fill="black"/>
<path fill-rule="evenodd" clip-rule="evenodd" d="M13 26C13 25.4477 13.4477 25 14 25H22.0157C22.568 25 23.0157 25.4477 23.0157 26C23.0157 26.5523 22.568 27 22.0157 27H14C13.4477 27 13 26.5523 13 26Z" fill="black"/>
<path fill-rule="evenodd" clip-rule="evenodd" d="M22 16C22 13.7945 23.7945 12 26 12C28.2055 12 30 13.7945 30 16C30 18.2055 28.2055 20 26 20C23.7945 20 22 18.2055 22 16ZM26 14C24.899 14 24 14.899 24 16C24 17.101 24.899 18 26 18C27.101 18 28 17.101 28 16C28 14.899 27.101 14 26 14Z" fill="black"/>
<path fill-rule="evenodd" clip-rule="evenodd" d="M22 6C22 3.79446 23.7945 2 26 2C28.2055 2 30 3.79446 30 6C30 8.20553 28.2055 10 26 10C23.7945 10 22 8.20554 22 6ZM26 4C24.899 4 24 4.89903 24 6C24 7.10097 24.899 8 26 8C27.101 8 28 7.10097 28 6C28 4.89903 27.101 4 26 4Z" fill="black"/>
<path fill-rule="evenodd" clip-rule="evenodd" d="M14.0193 5C14.5716 5 15.0193 5.44772 15.0193 6V26C15.0193 26.5523 14.5716 27 14.0193 27C13.467 27 13.0193 26.5523 13.0193 26V6C13.0193 5.44772 13.467 5 14.0193 5Z" fill="black"/>
<path fill-rule="evenodd" clip-rule="evenodd" d="M22 26C22 23.7945 23.7945 22 26 22C28.2055 22 30 23.7945 30 26C30 28.2055 28.2055 30 26 30C23.7945 30 22 28.2055 22 26ZM26 24C24.899 24 24 24.899 24 26C24 27.101 24.899 28 26 28C27.101 28 28 27.101 28 26C28 24.899 27.101 24 26 24Z" fill="black"/>
</svg>
