<svg width="32" height="32" viewBox="0 0 32 32" fill="none" xmlns="http://www.w3.org/2000/svg">
<path fill-rule="evenodd" clip-rule="evenodd" d="M4.31852 8.33709C4.11426 8.50324 4 8.72469 4 9.02512V26.7693C4 27.3895 4.53542 27.963 5.29014 27.963H15.7168C16.2691 27.963 16.7168 28.4107 16.7168 28.963C16.7168 29.5153 16.2691 29.963 15.7168 29.963H5.29014C3.51267 29.963 2 28.5741 2 26.7693V9.02512C2 8.12225 2.38574 7.33114 3.05648 6.78556C3.71045 6.2536 4.57468 6 5.5 6H6C6.55228 6 7 6.44772 7 7C7 7.55228 6.55228 8 6 8H5.5C4.92532 8 4.53955 8.1573 4.31852 8.33709Z" fill="black"/>
<path fill-rule="evenodd" clip-rule="evenodd" d="M21 7C21 6.44772 21.4477 6 22 6H22.5C24.2977 6 26 7.24144 26 9.1044V14C26 14.5523 25.5523 15 25 15C24.4477 15 24 14.5523 24 14V9.1044C24 8.64284 23.5154 8 22.5 8H22C21.4477 8 21 7.55228 21 7Z" fill="black"/>
<path fill-rule="evenodd" clip-rule="evenodd" d="M2 12C2 11.4477 2.44772 11 3 11H24C24.5523 11 25 11.4477 25 12C25 12.5523 24.5523 13 24 13H3C2.44772 13 2 12.5523 2 12Z" fill="black"/>
<path fill-rule="evenodd" clip-rule="evenodd" d="M9.04858 6.98346C9.04858 6.43117 9.4963 5.98346 10.0486 5.98346H18.0082C18.5605 5.98346 19.0082 6.43117 19.0082 6.98346C19.0082 7.53574 18.5605 7.98346 18.0082 7.98346H10.0486C9.4963 7.98346 9.04858 7.53574 9.04858 6.98346Z" fill="black"/>
<path fill-rule="evenodd" clip-rule="evenodd" d="M10 4C10.5523 4 11 4.4502 11 5.00554V8.99446C11 9.5498 10.5523 10 10 10C9.44772 10 9 9.5498 9 8.99446V5.00554C9 4.4502 9.44772 4 10 4Z" fill="black"/>
<path fill-rule="evenodd" clip-rule="evenodd" d="M18 4C18.5523 4 19 4.4502 19 5.00554V8.99446C19 9.5498 18.5523 10 18 10C17.4477 10 17 9.5498 17 8.99446V5.00554C17 4.4502 17.4477 4 18 4Z" fill="black"/>
<path fill-rule="evenodd" clip-rule="evenodd" d="M16 23C16 19.139 19.1278 16 23 16C26.8722 16 30 19.139 30 23C30 26.862 26.862 30 23 30C19.1278 30 16 26.861 16 23ZM23 18C20.2343 18 18 20.2416 18 23C18 25.7584 20.2343 28 23 28C25.7574 28 28 25.7574 28 23C28 20.2416 25.7657 18 23 18Z" fill="black"/>
<path fill-rule="evenodd" clip-rule="evenodd" d="M25.5739 20.1811C26.0262 20.4981 26.1358 21.1217 25.8189 21.5739L23.0155 25.5739C22.8281 25.8414 22.5219 26.0005 22.1953 26C21.8687 25.9996 21.5629 25.8397 21.3762 25.5718L20.1795 23.8547C19.8638 23.4016 19.9751 22.7783 20.4282 22.4625C20.8813 22.1468 21.5046 22.2581 21.8204 22.7112L22.1989 23.2543L24.1811 20.4261C24.498 19.9738 25.1216 19.8641 25.5739 20.1811Z" fill="black"/>
<path d="M8.25628 16H7.74372C7.33166 16 7 16.31 7 16.69V17.31C7 17.69 7.33166 18 7.74372 18H8.25628C8.66834 18 9 17.69 9 17.31V16.69C9 16.31 8.66834 16 8.25628 16Z" fill="black"/>
<path d="M12.2563 16H11.7437C11.3317 16 11 16.31 11 16.69V17.31C11 17.69 11.3317 18 11.7437 18H12.2563C12.6683 18 13 17.69 13 17.31V16.69C13 16.31 12.6683 16 12.2563 16Z" fill="black"/>
<path d="M8.25628 20H7.74372C7.33166 20 7 20.31 7 20.69V21.31C7 21.69 7.33166 22 7.74372 22H8.25628C8.66834 22 9 21.69 9 21.31V20.69C9 20.31 8.66834 20 8.25628 20Z" fill="black"/>
<path d="M12.2563 20H11.7437C11.3317 20 11 20.31 11 20.69V21.31C11 21.69 11.3317 22 11.7437 22H12.2563C12.6683 22 13 21.69 13 21.31V20.69C13 20.31 12.6683 20 12.2563 20Z" fill="black"/>
<path d="M8.25628 24H7.74372C7.33166 24 7 24.31 7 24.69V25.31C7 25.69 7.33166 26 7.74372 26H8.25628C8.66834 26 9 25.69 9 25.31V24.69C9 24.31 8.66834 24 8.25628 24Z" fill="black"/>
<path d="M12.2563 24H11.7437C11.3317 24 11 24.31 11 24.69V25.31C11 25.69 11.3317 26 11.7437 26H12.2563C12.6683 26 13 25.69 13 25.31V24.69C13 24.31 12.6683 24 12.2563 24Z" fill="black"/>
</svg>
