<svg width="32" height="32" viewBox="0 0 32 32" fill="none" xmlns="http://www.w3.org/2000/svg">
<path fill-rule="evenodd" clip-rule="evenodd" d="M4.90476 4C4.45049 4 4 4.40118 4 5V8C4 8.59882 4.45049 9 4.90476 9H11.0952C11.5495 9 12 8.59882 12 8V5C12 4.40118 11.5495 4 11.0952 4H4.90476ZM2 5C2 3.38968 3.25509 2 4.90476 2H11.0952C12.7449 2 14 3.38968 14 5V8C14 9.61032 12.7449 11 11.0952 11H4.90476C3.25509 11 2 9.61032 2 8V5Z" fill="black"/>
<path fill-rule="evenodd" clip-rule="evenodd" d="M4.90476 15C4.40508 15 4 15.4051 4 15.9048V27.0952C4 27.5949 4.40508 28 4.90476 28H11.0952C11.5949 28 12 27.5949 12 27.0952V15.9048C12 15.4051 11.5949 15 11.0952 15H4.90476ZM2 15.9048C2 14.3005 3.30051 13 4.90476 13H11.0952C12.6995 13 14 14.3005 14 15.9048V27.0952C14 28.6995 12.6995 30 11.0952 30H4.90476C3.30051 30 2 28.6995 2 27.0952V15.9048Z" fill="black"/>
<path fill-rule="evenodd" clip-rule="evenodd" d="M27.0952 28C27.5495 28 28 27.5988 28 27V24C28 23.4012 27.5495 23 27.0952 23H20.9048C20.4505 23 20 23.4012 20 24V27C20 27.5988 20.4505 28 20.9048 28H27.0952ZM30 27C30 28.6103 28.7449 30 27.0952 30H20.9048C19.2551 30 18 28.6103 18 27V24C18 22.3897 19.2551 21 20.9048 21H27.0952C28.7449 21 30 22.3897 30 24V27Z" fill="black"/>
<path fill-rule="evenodd" clip-rule="evenodd" d="M27.0952 17C27.5949 17 28 16.5949 28 16.0952V4.90476C28 4.40508 27.5949 4 27.0952 4L20.9048 4C20.4051 4 20 4.40508 20 4.90476V16.0952C20 16.5949 20.4051 17 20.9048 17H27.0952ZM30 16.0952C30 17.6995 28.6995 19 27.0952 19H20.9048C19.3005 19 18 17.6995 18 16.0952V4.90476C18 3.30051 19.3005 2 20.9048 2H27.0952C28.6995 2 30 3.30051 30 4.90476V16.0952Z" fill="black"/>
</svg>
