<svg width="32" height="32" viewBox="0 0 32 32" fill="none" xmlns="http://www.w3.org/2000/svg">
<path fill-rule="evenodd" clip-rule="evenodd" d="M20.5844 9.03225C21.4085 8.42915 22.4865 8 23.8947 8C25.5484 8 27.0767 8.82297 28.1709 10.0088C29.2684 11.1982 30 12.8255 30 14.5659C30 18.5851 27.4174 22 23.347 22H8.00321C4.62341 22 2 19.1838 2 15.8585C2 13.4946 3.46177 11.2738 5.73626 10.3585L5.73675 10.3583C6.64511 9.99328 7.59096 9.93743 8.70795 10.2033L9.40144 10.3319C9.94448 10.4325 10.3031 10.9543 10.2025 11.4973C10.1018 12.0404 9.58001 12.399 9.03697 12.2984L8.31777 12.1651C8.29996 12.1618 8.28225 12.158 8.26466 12.1537C7.48143 11.9641 6.95904 12.0226 6.48245 12.2141C4.97001 12.823 4 14.3062 4 15.8585C4 18.1474 5.79501 20 8.00321 20H23.347C26.0342 20 28 17.7814 28 14.5659C28 13.3835 27.4971 12.2278 26.701 11.365C25.9015 10.4986 24.8772 10 23.8947 10C22.9266 10 22.2595 10.2847 21.7655 10.6462C21.3198 10.9724 20.6941 10.8755 20.368 10.4298C20.0418 9.98412 20.1387 9.35841 20.5844 9.03225Z" fill="black"/>
<path fill-rule="evenodd" clip-rule="evenodd" d="M16 4.02625C12.3419 4.02625 9.36487 7.016 9.36487 10.7245V11.0262C9.36487 11.5785 8.91715 12.0262 8.36487 12.0262C7.81258 12.0262 7.36487 11.5785 7.36487 11.0262V10.7245C7.36487 5.927 11.2218 2.02625 16 2.02625C19.9909 2.02625 23.3386 4.74871 24.3304 8.43034C24.4741 8.96361 24.1583 9.51238 23.625 9.65605C23.0917 9.79972 22.543 9.48389 22.3993 8.95062C21.6344 6.11157 19.0555 4.02625 16 4.02625Z" fill="black"/>
<path fill-rule="evenodd" clip-rule="evenodd" d="M16 20C16.5523 20 17 20.4477 17 21V24.4067C17 24.959 16.5523 25.4067 16 25.4067C15.4477 25.4067 15 24.959 15 24.4067V21C15 20.4477 15.4477 20 16 20Z" fill="black"/>
<path fill-rule="evenodd" clip-rule="evenodd" d="M6 27C6 26.4477 6.44772 26 7 26H13C13.5523 26 14 26.4477 14 27C14 27.5523 13.5523 28 13 28H7C6.44772 28 6 27.5523 6 27Z" fill="black"/>
<path fill-rule="evenodd" clip-rule="evenodd" d="M18 27C18 26.4477 18.4477 26 19 26H25C25.5523 26 26 26.4477 26 27C26 27.5523 25.5523 28 25 28H19C18.4477 28 18 27.5523 18 27Z" fill="black"/>
<path fill-rule="evenodd" clip-rule="evenodd" d="M16 26C15.4477 26 15 26.4477 15 27C15 27.5523 15.4477 28 16 28C16.5523 28 17 27.5523 17 27C17 26.4477 16.5523 26 16 26ZM19 27C19 28.6569 17.6569 30 16 30C14.3431 30 13 28.6569 13 27C13 25.3431 14.3431 24 16 24C17.6569 24 19 25.3431 19 27Z" fill="black"/>
</svg>
