<svg width="32" height="32" viewBox="0 0 32 32" fill="none" xmlns="http://www.w3.org/2000/svg">
<path fill-rule="evenodd" clip-rule="evenodd" d="M16 11C14.8954 11 14 11.8954 14 13C14 14.1046 14.8954 15 16 15C17.1046 15 18 14.1046 18 13C18 11.8954 17.1046 11 16 11ZM12 13C12 10.7909 13.7909 9 16 9C18.2091 9 20 10.7909 20 13C20 15.2091 18.2091 17 16 17C13.7909 17 12 15.2091 12 13Z" fill="black"/>
<path fill-rule="evenodd" clip-rule="evenodd" d="M12.0001 20.798L12.02 22.9909C12.025 23.5432 11.5814 23.9949 11.0291 24C10.4768 24.005 10.0251 23.5613 10.0201 23.0091L10 20.8013C10 19.1478 11.4563 18 13.018 18H18.982C20.5367 18 22.0161 19.1528 21.9999 20.8104M21.9999 20.8114L21.9799 23.0091C21.9749 23.5613 21.5232 24.005 20.9709 24C20.4186 23.9949 19.975 23.5432 19.98 22.9909L20 20.7912C20.0032 20.4715 19.6648 20 18.982 20H13.018C12.3442 20 12.0023 20.4563 12.0001 20.798" fill="black"/>
<path fill-rule="evenodd" clip-rule="evenodd" d="M16 8C11.5817 8 8 11.5817 8 16C8 20.4183 11.5817 24 16 24C20.4183 24 24 20.4183 24 16C24 11.5817 20.4183 8 16 8ZM6 16C6 10.4772 10.4772 6 16 6C21.5228 6 26 10.4772 26 16C26 21.5228 21.5228 26 16 26C10.4772 26 6 21.5228 6 16Z" fill="black"/>
<path fill-rule="evenodd" clip-rule="evenodd" d="M5.69723 5.70863C6.08717 5.31752 6.72033 5.31657 7.11144 5.70651L10.206 8.79183C10.5972 9.18177 10.5981 9.81493 10.2082 10.206C9.81823 10.5972 9.18507 10.5981 8.79396 10.2082L5.69935 7.12284C5.30824 6.7329 5.30729 6.09974 5.69723 5.70863Z" fill="black"/>
<path fill-rule="evenodd" clip-rule="evenodd" d="M5 4C4.44772 4 4 4.44772 4 5C4 5.55228 4.44772 6 5 6C5.55228 6 6 5.55228 6 5C6 4.44772 5.55228 4 5 4ZM2 5C2 3.34315 3.34315 2 5 2C6.65685 2 8 3.34315 8 5C8 6.65685 6.65685 8 5 8C3.34315 8 2 6.65685 2 5Z" fill="black"/>
<path fill-rule="evenodd" clip-rule="evenodd" d="M26.3354 5.82554C26.7174 6.22434 26.7039 6.85736 26.3051 7.23943L23.1918 10.2221C22.793 10.6042 22.16 10.5906 21.7779 10.1918C21.3958 9.793 21.4094 9.15998 21.8082 8.77791L24.9215 5.79524C25.3203 5.41317 25.9533 5.42674 26.3354 5.82554Z" fill="black"/>
<path fill-rule="evenodd" clip-rule="evenodd" d="M27 4C26.4477 4 26 4.44772 26 5C26 5.55228 26.4477 6 27 6C27.5523 6 28 5.55228 28 5C28 4.44772 27.5523 4 27 4ZM24 5C24 3.34315 25.3431 2 27 2C28.6569 2 30 3.34315 30 5C30 6.65685 28.6569 8 27 8C25.3431 8 24 6.65685 24 5Z" fill="black"/>
<path fill-rule="evenodd" clip-rule="evenodd" d="M10.2071 21.7929C10.5976 22.1834 10.5976 22.8166 10.2071 23.2071L7.20711 26.2071C6.81658 26.5976 6.18342 26.5976 5.79289 26.2071C5.40237 25.8166 5.40237 25.1834 5.79289 24.7929L8.79289 21.7929C9.18342 21.4024 9.81658 21.4024 10.2071 21.7929Z" fill="black"/>
<path fill-rule="evenodd" clip-rule="evenodd" d="M5 26C4.44772 26 4 26.4477 4 27C4 27.5523 4.44772 28 5 28C5.55228 28 6 27.5523 6 27C6 26.4477 5.55228 26 5 26ZM2 27C2 25.3431 3.34315 24 5 24C6.65685 24 8 25.3431 8 27C8 28.6569 6.65685 30 5 30C3.34315 30 2 28.6569 2 27Z" fill="black"/>
<path fill-rule="evenodd" clip-rule="evenodd" d="M21.7929 21.7929C22.1834 21.4024 22.8166 21.4024 23.2071 21.7929L26.2071 24.7929C26.5976 25.1834 26.5976 25.8166 26.2071 26.2071C25.8166 26.5976 25.1834 26.5976 24.7929 26.2071L21.7929 23.2071C21.4024 22.8166 21.4024 22.1834 21.7929 21.7929Z" fill="black"/>
<path fill-rule="evenodd" clip-rule="evenodd" d="M27 26C26.4477 26 26 26.4477 26 27C26 27.5523 26.4477 28 27 28C27.5523 28 28 27.5523 28 27C28 26.4477 27.5523 26 27 26ZM24 27C24 25.3431 25.3431 24 27 24C28.6569 24 30 25.3431 30 27C30 28.6569 28.6569 30 27 30C25.3431 30 24 28.6569 24 27Z" fill="black"/>
</svg>
