<svg width="32" height="32" viewBox="0 0 32 32" fill="none" xmlns="http://www.w3.org/2000/svg">
<path fill-rule="evenodd" clip-rule="evenodd" d="M16 9C15.4477 9 15 9.44772 15 10C15 10.5523 15.4477 11 16 11C16.5523 11 17 10.5523 17 10C17 9.44772 16.5523 9 16 9ZM13 10C13 8.34315 14.3431 7 16 7C17.6569 7 19 8.34315 19 10C19 11.6569 17.6569 13 16 13C14.3431 13 13 11.6569 13 10Z" fill="black"/>
<path fill-rule="evenodd" clip-rule="evenodd" d="M14.5207 11.8538L10.966 14.0218L9.92467 12.3143L13.4794 10.1463L14.5207 11.8538Z" fill="black"/>
<path fill-rule="evenodd" clip-rule="evenodd" d="M17.4793 11.9936L21.034 14.1615L22.0753 12.454L18.5206 10.2861L17.4793 11.9936Z" fill="black"/>
<path fill-rule="evenodd" clip-rule="evenodd" d="M23 13C22.4477 13 22 13.4477 22 14C22 14.5523 22.4477 15 23 15C23.5523 15 24 14.5523 24 14C24 13.4477 23.5523 13 23 13ZM20 14C20 12.3431 21.3431 11 23 11C24.6569 11 26 12.3431 26 14C26 15.6569 24.6569 17 23 17C21.3431 17 20 15.6569 20 14Z" fill="black"/>
<path fill-rule="evenodd" clip-rule="evenodd" d="M9 13C8.44772 13 8 13.4477 8 14C8 14.5523 8.44772 15 9 15C9.55228 15 10 14.5523 10 14C10 13.4477 9.55228 13 9 13ZM6 14C6 12.3431 7.34315 11 9 11C10.6569 11 12 12.3431 12 14C12 15.6569 10.6569 17 9 17C7.34315 17 6 15.6569 6 14Z" fill="black"/>
<path fill-rule="evenodd" clip-rule="evenodd" d="M5.5675 6C4.68384 6 4 6.698 4 7.5193V21.4807C4 22.302 4.68384 23 5.5675 23H26.4325C27.3162 23 28 22.302 28 21.4807V7.5193C28 6.698 27.3162 6 26.4325 6H5.5675ZM2 7.5193C2 5.55786 3.61517 4 5.5675 4H26.4325C28.3848 4 30 5.55786 30 7.5193V21.4807C30 23.4421 28.3848 25 26.4325 25H5.5675C3.61517 25 2 23.4421 2 21.4807V7.5193Z" fill="black"/>
<path fill-rule="evenodd" clip-rule="evenodd" d="M16 23.0432C16.5523 23.0432 17 23.4909 17 24.0432V28.382C17 28.9343 16.5523 29.382 16 29.382C15.4477 29.382 15 28.9343 15 28.382V24.0432C15 23.4909 15.4477 23.0432 16 23.0432Z" fill="black"/>
<path fill-rule="evenodd" clip-rule="evenodd" d="M9 29C9 28.4477 9.44772 28 10 28L22 28C22.5523 28 23 28.4477 23 29C23 29.5523 22.5523 30 22 30L10 30C9.44772 30 9 29.5523 9 29Z" fill="black"/>
<path fill-rule="evenodd" clip-rule="evenodd" d="M2 20C2 19.4477 2.44772 19 3 19H28.3376C28.8898 19 29.3376 19.4477 29.3376 20C29.3376 20.5523 28.8898 21 28.3376 21H3C2.44772 21 2 20.5523 2 20Z" fill="black"/>
</svg>
