<svg width="32" height="32" viewBox="0 0 32 32" fill="none" xmlns="http://www.w3.org/2000/svg">
<path fill-rule="evenodd" clip-rule="evenodd" d="M16 4C15.4477 4 15 4.44772 15 5C15 5.55228 15.4477 6 16 6C16.5523 6 17 5.55228 17 5C17 4.44772 16.5523 4 16 4ZM13 5C13 3.34315 14.3431 2 16 2C17.6569 2 19 3.34315 19 5C19 6.65685 17.6569 8 16 8C14.3431 8 13 6.65685 13 5Z" fill="black"/>
<path fill-rule="evenodd" clip-rule="evenodd" d="M16 26C15.4477 26 15 26.4477 15 27C15 27.5523 15.4477 28 16 28C16.5523 28 17 27.5523 17 27C17 26.4477 16.5523 26 16 26ZM13 27C13 25.3431 14.3431 24 16 24C17.6569 24 19 25.3431 19 27C19 28.6569 17.6569 30 16 30C14.3431 30 13 28.6569 13 27Z" fill="black"/>
<path fill-rule="evenodd" clip-rule="evenodd" d="M5 15C4.44772 15 4 15.4477 4 16C4 16.5523 4.44772 17 5 17C5.55228 17 6 16.5523 6 16C6 15.4477 5.55228 15 5 15ZM2 16C2 14.3431 3.34315 13 5 13C6.65685 13 8 14.3431 8 16C8 17.6569 6.65685 19 5 19C3.34315 19 2 17.6569 2 16Z" fill="black"/>
<path fill-rule="evenodd" clip-rule="evenodd" d="M27 15C26.4477 15 26 15.4477 26 16C26 16.5523 26.4477 17 27 17C27.5523 17 28 16.5523 28 16C28 15.4477 27.5523 15 27 15ZM24 16C24 14.3431 25.3431 13 27 13C28.6569 13 30 14.3431 30 16C30 17.6569 28.6569 19 27 19C25.3431 19 24 17.6569 24 16Z" fill="black"/>
<path fill-rule="evenodd" clip-rule="evenodd" d="M8 7C7.44771 7 7 7.44771 7 8C7 8.55228 7.44772 9 8 9C8.55228 9 9 8.55228 9 8C9 7.44772 8.55228 7 8 7ZM5 8C5 6.34315 6.34315 5 8 5C9.65685 5 11 6.34314 11 8C11 9.65685 9.65685 11 8 11C6.34314 11 5 9.65685 5 8Z" fill="black"/>
<path fill-rule="evenodd" clip-rule="evenodd" d="M24 7C23.4477 7 23 7.44771 23 8C23 8.55228 23.4477 9 24 9C24.5523 9 25 8.55228 25 8C25 7.44772 24.5523 7 24 7ZM21 8C21 6.34315 22.3431 5 24 5C25.6569 5 27 6.34314 27 8C27 9.65685 25.6569 11 24 11C22.3431 11 21 9.65685 21 8Z" fill="black"/>
<path fill-rule="evenodd" clip-rule="evenodd" d="M8.0309 23.0207C7.47864 23.015 7.02632 23.458 7.0206 24.0103C7.01488 24.5625 7.45794 25.0149 8.01019 25.0206C8.56245 25.0263 9.01478 24.5832 9.02049 24.031C9.02621 23.4787 8.58315 23.0264 8.0309 23.0207ZM5.02071 23.9896C5.03786 22.3328 6.39483 21.0036 8.0516 21.0208C9.70836 21.0379 11.0375 22.3949 11.0204 24.0517C11.0032 25.7085 9.64626 27.0376 7.98949 27.0205C6.33273 27.0033 5.00356 25.6463 5.02071 23.9896Z" fill="black"/>
<path fill-rule="evenodd" clip-rule="evenodd" d="M24 23C23.4477 23 23 23.4477 23 24C23 24.5523 23.4477 25 24 25C24.5523 25 25 24.5523 25 24C25 23.4477 24.5523 23 24 23ZM21 24C21 22.3431 22.3431 21 24 21C25.6569 21 27 22.3431 27 24C27 25.6569 25.6569 27 24 27C22.3431 27 21 25.6569 21 24Z" fill="black"/>
<path fill-rule="evenodd" clip-rule="evenodd" d="M18.3195 18.3195C18.71 17.929 19.3432 17.929 19.7337 18.3195L23.1871 21.7728C23.5776 22.1634 23.5776 22.7965 23.1871 23.1871C22.7965 23.5776 22.1634 23.5776 21.7728 23.1871L18.3195 19.7337C17.929 19.3432 17.929 18.71 18.3195 18.3195Z" fill="black"/>
<path fill-rule="evenodd" clip-rule="evenodd" d="M8.76426 8.70828C9.15735 8.32034 9.79051 8.32453 10.1784 8.71763L13.6851 12.271C14.073 12.6641 14.0689 13.2972 13.6758 13.6851C13.2827 14.0731 12.6495 14.0689 12.2616 13.6758L8.75491 10.1225C8.36698 9.72936 8.37116 9.09621 8.76426 8.70828Z" fill="black"/>
<path fill-rule="evenodd" clip-rule="evenodd" d="M23.2197 8.61254C23.6178 8.99534 23.6302 9.62838 23.2474 10.0265L19.7474 13.6665C19.3647 14.0646 18.7316 14.077 18.3335 13.6942C17.9354 13.3114 17.923 12.6784 18.3058 12.2803L21.8058 8.64027C22.1886 8.24216 22.8216 8.22975 23.2197 8.61254Z" fill="black"/>
<path fill-rule="evenodd" clip-rule="evenodd" d="M13.6805 18.3195C14.071 18.71 14.071 19.3432 13.6805 19.7337L10.1272 23.2871C9.73663 23.6776 9.10346 23.6776 8.71294 23.2871C8.32241 22.8965 8.32241 22.2634 8.71294 21.8728L12.2663 18.3195C12.6568 17.929 13.29 17.929 13.6805 18.3195Z" fill="black"/>
<path fill-rule="evenodd" clip-rule="evenodd" d="M16 6.5C16.5523 6.5 17 6.94772 17 7.5V11.7133C17 12.2656 16.5523 12.7133 16 12.7133C15.4477 12.7133 15 12.2656 15 11.7133V7.5C15 6.94772 15.4477 6.5 16 6.5Z" fill="black"/>
<path fill-rule="evenodd" clip-rule="evenodd" d="M16 19.2866C16.5523 19.2866 17 19.7343 17 20.2866V24.5C17 25.0522 16.5523 25.5 16 25.5C15.4477 25.5 15 25.0522 15 24.5V20.2866C15 19.7343 15.4477 19.2866 16 19.2866Z" fill="black"/>
<path fill-rule="evenodd" clip-rule="evenodd" d="M19.2866 16C19.2866 15.4477 19.7343 15 20.2866 15H24.5C25.0522 15 25.5 15.4477 25.5 16C25.5 16.5523 25.0522 17 24.5 17H20.2866C19.7343 17 19.2866 16.5523 19.2866 16Z" fill="black"/>
<path fill-rule="evenodd" clip-rule="evenodd" d="M6 16C6 15.4477 6.44772 15 7 15H11.7133C12.2656 15 12.7133 15.4477 12.7133 16C12.7133 16.5523 12.2656 17 11.7133 17H7C6.44772 17 6 16.5523 6 16Z" fill="black"/>
<path fill-rule="evenodd" clip-rule="evenodd" d="M16 13C14.3431 13 13 14.3431 13 16C13 17.6569 14.3431 19 16 19C17.6569 19 19 17.6569 19 16C19 14.3431 17.6569 13 16 13ZM11 16C11 13.2386 13.2386 11 16 11C18.7614 11 21 13.2386 21 16C21 18.7614 18.7614 21 16 21C13.2386 21 11 18.7614 11 16Z" fill="black"/>
</svg>
