<svg width="32" height="32" viewBox="0 0 32 32" fill="none" xmlns="http://www.w3.org/2000/svg">
<path fill-rule="evenodd" clip-rule="evenodd" d="M28 6H4V26H28V6ZM4 4C2.89543 4 2 4.89543 2 6V26C2 27.1046 2.89543 28 4 28H28C29.1046 28 30 27.1046 30 26V6C30 4.89543 29.1046 4 28 4H4Z" fill="black"/>
<path fill-rule="evenodd" clip-rule="evenodd" d="M12 14C13.1046 14 14 13.1046 14 12C14 10.8954 13.1046 10 12 10C10.8954 10 10 10.8954 10 12C10 13.1046 10.8954 14 12 14ZM12 16C14.2091 16 16 14.2091 16 12C16 9.79086 14.2091 8 12 8C9.79086 8 8 9.79086 8 12C8 14.2091 9.79086 16 12 16Z" fill="black"/>
<path fill-rule="evenodd" clip-rule="evenodd" d="M8.28878 19.2987C8.05186 19.4779 7.99892 19.6442 7.9999 19.746L7.99999 19.7557L7.99994 21H15.9998V19.6554C16.0013 19.5015 15.9402 19.3653 15.7851 19.242C15.6165 19.1079 15.3396 19 14.994 19H9.19953C8.86701 19 8.5271 19.1184 8.28878 19.2987ZM7.08221 17.7036C7.67237 17.2572 8.43709 17 9.19953 17H14.994C16.3969 17 18.0136 17.9107 17.9998 19.6695V22C17.9998 22.5523 17.5521 23 16.9998 23H6.99994C6.44766 23 5.99994 22.5523 5.99994 22V19.7598C5.9933 18.8597 6.49185 18.1502 7.08221 17.7036Z" fill="black"/>
<path fill-rule="evenodd" clip-rule="evenodd" d="M19 10C19 9.44772 19.4477 9 20 9H25C25.5523 9 26 9.44772 26 10C26 10.5523 25.5523 11 25 11H20C19.4477 11 19 10.5523 19 10Z" fill="black"/>
<path fill-rule="evenodd" clip-rule="evenodd" d="M19 14C19 13.4477 19.4477 13 20 13H25C25.5523 13 26 13.4477 26 14C26 14.5523 25.5523 15 25 15H20C19.4477 15 19 14.5523 19 14Z" fill="black"/>
</svg>
