<svg width="32" height="32" viewBox="0 0 32 32" fill="none" xmlns="http://www.w3.org/2000/svg">
<path fill-rule="evenodd" clip-rule="evenodd" d="M6 19C6.55228 19 7 19.4477 7 20V25.5983C7 25.8119 7.17415 26 7.41714 26H14C14.5523 26 15 26.4477 15 27C15 27.5523 14.5523 28 14 28H7.41714C6.08756 28 5 26.9344 5 25.5983V20C5 19.4477 5.44772 19 6 19Z" fill="black"/>
<path fill-rule="evenodd" clip-rule="evenodd" d="M11.2929 24.2929C11.6834 23.9024 12.3166 23.9024 12.7071 24.2929L14.7071 26.2929C15.0976 26.6834 15.0976 27.3166 14.7071 27.7071L12.7071 29.7071C12.3166 30.0976 11.6834 30.0976 11.2929 29.7071C10.9024 29.3166 10.9024 28.6834 11.2929 28.2929L12.5858 27L11.2929 25.7071C10.9024 25.3166 10.9024 24.6834 11.2929 24.2929Z" fill="black"/>
<path fill-rule="evenodd" clip-rule="evenodd" d="M17 5C17 4.44772 17.4477 4 18 4H24.45C25.7667 4 27 4.98362 27 6.40174V12C27 12.5523 26.5523 13 26 13C25.4477 13 25 12.5523 25 12V6.40174C25 6.27011 24.8533 6 24.45 6H18C17.4477 6 17 5.55228 17 5Z" fill="black"/>
<path fill-rule="evenodd" clip-rule="evenodd" d="M20.7071 2.29289C21.0976 2.68342 21.0976 3.31658 20.7071 3.70711L19.4142 5L20.7071 6.29289C21.0976 6.68342 21.0976 7.31658 20.7071 7.70711C20.3166 8.09763 19.6834 8.09763 19.2929 7.70711L17.2929 5.70711C17.1054 5.51957 17 5.26522 17 5C17 4.73478 17.1054 4.48043 17.2929 4.29289L19.2929 2.29289C19.6834 1.90237 20.3166 1.90237 20.7071 2.29289Z" fill="black"/>
<path fill-rule="evenodd" clip-rule="evenodd" d="M8.5 4C7.67157 4 7 4.67157 7 5.5C7 6.32843 7.67157 7 8.5 7C9.32843 7 10 6.32843 10 5.5C10 4.67157 9.32843 4 8.5 4ZM5 5.5C5 3.567 6.567 2 8.5 2C10.433 2 12 3.567 12 5.5C12 7.433 10.433 9 8.5 9C6.567 9 5 7.433 5 5.5Z" fill="black"/>
<path fill-rule="evenodd" clip-rule="evenodd" d="M2.00012 12.767C1.98609 11.2524 3.20567 10 4.72742 10H12.2727C13.8038 10 15 11.2601 15 12.7587V12.7657L15 12.7657L14.981 15.4794C14.9787 16.3082 14.3111 16.9908 13.4685 16.9908H13.4585L13.4585 16.9907C12.2054 16.9782 8.90922 16.9871 6.35067 16.994C5.16193 16.9972 4.13243 17 3.54107 17C2.71071 17 2.02142 16.3296 2.01907 15.4795C2.01907 15.478 2.01907 15.4766 2.01907 15.4751H3.01907L2.01909 15.4821L2.01907 15.4795L2.00013 12.7686L3.00009 12.7587L2.00011 12.7657L2.00012 12.767ZM4.72742 12C4.33254 12 3.99593 12.3306 4.00004 12.7489L4.00007 12.7518L4.01577 14.9996C4.60421 14.9987 5.41159 14.9965 6.31423 14.9941C8.59427 14.9879 11.4821 14.9802 12.9844 14.9874L13 12.7559C12.9985 12.3223 12.6578 12 12.2727 12H4.72742Z" fill="black"/>
<path fill-rule="evenodd" clip-rule="evenodd" d="M23.5 17C22.6716 17 22 17.6716 22 18.5C22 19.3284 22.6716 20 23.5 20C24.3284 20 25 19.3284 25 18.5C25 17.6716 24.3284 17 23.5 17ZM20 18.5C20 16.567 21.567 15 23.5 15C25.433 15 27 16.567 27 18.5C27 20.433 25.433 22 23.5 22C21.567 22 20 20.433 20 18.5Z" fill="black"/>
<path fill-rule="evenodd" clip-rule="evenodd" d="M17.0001 25.7676C16.9858 24.2518 18.207 23 19.7289 23H27.2712C28.8023 23 30 24.2593 30 25.7587V25.7628H30L29.9905 28.1292L29.9903 28.1451C29.9702 29.158 29.1464 29.9908 28.1166 29.9908H28.1121V29.9908C26.8097 29.9849 24.2498 29.9903 22.0323 29.9949C20.7756 29.9976 19.629 30 18.8835 30C17.859 30 17.0216 29.1693 17.0191 28.1392L17.0001 25.7686C17.0001 25.7682 17.0001 25.7679 17.0001 25.7676ZM19.7289 25C19.3324 25 18.9959 25.3314 19 25.7489L19.0001 25.7508L19.018 28C19.7545 27.9997 20.833 27.9975 22.0114 27.995C24.1632 27.9905 26.648 27.9853 27.991 27.9903L28 25.7587C28 25.7582 28 25.7576 28 25.7571C27.9991 25.3237 27.6583 25 27.2712 25H19.7289Z" fill="black"/>
</svg>
