<svg width="32" height="32" viewBox="0 0 32 32" fill="none" xmlns="http://www.w3.org/2000/svg">
<path fill-rule="evenodd" clip-rule="evenodd" d="M9 14C9 13.4477 9.44772 13 10 13H22C22.5523 13 23 13.4477 23 14C23 14.5523 22.5523 15 22 15H10C9.44772 15 9 14.5523 9 14Z" fill="black"/>
<path fill-rule="evenodd" clip-rule="evenodd" d="M9 18C9 17.4477 9.44772 17 10 17H22C22.5523 17 23 17.4477 23 18C23 18.5523 22.5523 19 22 19H10C9.44772 19 9 18.5523 9 18Z" fill="black"/>
<path fill-rule="evenodd" clip-rule="evenodd" d="M9 22C9 21.4477 9.44772 21 10 21H18C18.5523 21 19 21.4477 19 22C19 22.5523 18.5523 23 18 23H10C9.44772 23 9 22.5523 9 22Z" fill="black"/>
<path fill-rule="evenodd" clip-rule="evenodd" d="M5 5.73831C5 3.65147 6.72321 2 8.8019 2H20L20.7071 2.29289L27.7071 9.29289L28 10V26.2617C28 28.3485 26.2768 30 24.1981 30H8.8019C6.72321 30 5 28.3485 5 26.2617V5.73831ZM8.8019 4C7.78425 4 7 4.79908 7 5.73831V26.2617C7 27.2009 7.78425 28 8.8019 28H24.1981C25.2157 28 26 27.2009 26 26.2617V10.4142L19.5858 4H8.8019Z" fill="black"/>
<path fill-rule="evenodd" clip-rule="evenodd" d="M20 2C20.5523 2 21 2.44772 21 3V8.6019C21 8.82 21.18 9 21.3981 9H27C27.5523 9 28 9.44772 28 10C28 10.5523 27.5523 11 27 11H21.3981C20.0754 11 19 9.92457 19 8.6019V3C19 2.44772 19.4477 2 20 2Z" fill="black"/>
</svg>
