<svg width="32" height="32" viewBox="0 0 32 32" fill="none" xmlns="http://www.w3.org/2000/svg">
<path fill-rule="evenodd" clip-rule="evenodd" d="M16 10C14.8954 10 14 10.8954 14 12C14 13.1046 14.8954 14 16 14C17.1046 14 18 13.1046 18 12C18 10.8954 17.1046 10 16 10ZM12 12C12 9.79086 13.7909 8 16 8C18.2091 8 20 9.79086 20 12C20 14.2091 18.2091 16 16 16C13.7909 16 12 14.2091 12 12Z" fill="black"/>
<path fill-rule="evenodd" clip-rule="evenodd" d="M6.47273 2.19861C6.91536 2.52891 7.00642 3.1555 6.67612 3.59812C5.01045 5.83024 4 8.66505 4 11.7558C4 14.8466 5.01045 17.6814 6.67612 19.9135C7.00642 20.3562 6.91536 20.9827 6.47273 21.313C6.0301 21.6433 5.40352 21.5523 5.07322 21.1097C3.15488 18.5389 2 15.2862 2 11.7558C2 8.22543 3.15488 4.9727 5.07322 2.402C5.40352 1.95937 6.0301 1.86831 6.47273 2.19861Z" fill="black"/>
<path fill-rule="evenodd" clip-rule="evenodd" d="M25.3942 2.2045C25.8336 1.86988 26.461 1.9548 26.7956 2.39418C28.8064 5.03443 30.0001 8.37537 30.0001 12.0001C30.0001 15.6247 28.8064 18.9657 26.7956 21.6059C26.461 22.0453 25.8336 22.1302 25.3942 21.7956C24.9548 21.461 24.8699 20.8336 25.2045 20.3942C26.9535 18.0976 28.0001 15.1812 28.0001 12.0001C28.0001 8.81887 26.9535 5.90247 25.2045 3.60593C24.8699 3.16656 24.9548 2.53911 25.3942 2.2045Z" fill="black"/>
<path fill-rule="evenodd" clip-rule="evenodd" d="M10.2105 5.35983C10.6615 5.67858 10.7687 6.3026 10.45 6.75362C9.54311 8.03681 9 9.65337 9 11.424C9 13.1946 9.54311 14.8112 10.45 16.0944C10.7687 16.5454 10.6615 17.1694 10.2105 17.4882C9.75946 17.8069 9.13544 17.6997 8.81669 17.2487C7.67022 15.6265 7 13.6063 7 11.424C7 9.24169 7.67022 7.22155 8.81669 5.59933C9.13544 5.14831 9.75946 5.04108 10.2105 5.35983Z" fill="black"/>
<path fill-rule="evenodd" clip-rule="evenodd" d="M21.4228 5.35983C21.8738 5.04108 22.4979 5.14831 22.8166 5.59933C23.9631 7.22155 24.6333 9.24169 24.6333 11.424C24.6333 13.6063 23.9631 15.6265 22.8166 17.2487C22.4979 17.6997 21.8738 17.8069 21.4228 17.4882C20.9718 17.1694 20.8646 16.5454 21.1833 16.0944C22.0902 14.8112 22.6333 13.1946 22.6333 11.424C22.6333 9.65337 22.0902 8.03681 21.1833 6.75362C20.8646 6.3026 20.9718 5.67858 21.4228 5.35983Z" fill="black"/>
<path fill-rule="evenodd" clip-rule="evenodd" d="M16.4998 15.1339C16.9781 15.4098 17.1422 16.0214 16.8662 16.4998L9.36623 29.4998C9.09024 29.9781 8.4787 30.1422 8.00032 29.8662C7.52194 29.5902 7.35787 28.9787 7.63386 28.5003L15.1339 15.5003C15.4098 15.0219 16.0214 14.8579 16.4998 15.1339Z" fill="black"/>
<path fill-rule="evenodd" clip-rule="evenodd" d="M15.5003 15.1339C15.9787 14.8579 16.5902 15.0219 16.8662 15.5003L24.3662 28.5003C24.6422 28.9787 24.4781 29.5902 23.9998 29.8662C23.5214 30.1422 22.9098 29.9781 22.6339 29.4998L15.1339 16.4998C14.8579 16.0214 15.0219 15.4098 15.5003 15.1339Z" fill="black"/>
<path fill-rule="evenodd" clip-rule="evenodd" d="M10 25C10 24.4477 10.3504 24 10.7826 24H21.2174C21.6496 24 22 24.4477 22 25C22 25.5523 21.6496 26 21.2174 26H10.7826C10.3504 26 10 25.5523 10 25Z" fill="black"/>
</svg>
