<svg width="32" height="32" viewBox="0 0 32 32" fill="none" xmlns="http://www.w3.org/2000/svg">
<path fill-rule="evenodd" clip-rule="evenodd" d="M5 5C5 3.34315 6.34315 2 8 2H24C25.6569 2 27 3.34315 27 5V27C27 28.6569 25.6569 30 24 30H8C6.34315 30 5 28.6569 5 27V5ZM8 4C7.44772 4 7 4.44772 7 5V27C7 27.5523 7.44772 28 8 28H24C24.5523 28 25 27.5523 25 27V5C25 4.44772 24.5523 4 24 4H8Z" fill="black"/>
<path fill-rule="evenodd" clip-rule="evenodd" d="M12 9C12 6.79009 13.7901 5 16 5C18.2099 5 20 6.79009 20 9C20 11.2099 18.2099 13 16 13C13.7901 13 12 11.2099 12 9ZM16 7C14.8947 7 14 7.89466 14 9C14 10.1053 14.8947 11 16 11C17.1053 11 18 10.1053 18 9C18 7.89466 17.1053 7 16 7Z" fill="black"/>
<path fill-rule="evenodd" clip-rule="evenodd" d="M12.2889 16.2987C12.052 16.4779 11.999 16.6442 12 16.746L12.0001 16.7557L12.0001 18H19.9999V16.6554C20.0014 16.5015 19.9403 16.3653 19.7852 16.242C19.6166 16.1079 19.3398 16 18.9941 16H13.1996C12.8671 16 12.5272 16.1184 12.2889 16.2987ZM11.0823 14.7036C11.6725 14.2572 12.4372 14 13.1996 14H18.9941C20.397 14 22.0137 14.9107 21.9999 16.6695V19C21.9999 19.5523 21.5522 20 20.9999 20H11.0001C10.4478 20 10.0001 19.5523 10.0001 19V16.7598C9.99342 15.8597 10.492 15.1502 11.0823 14.7036Z" fill="black"/>
<path fill-rule="evenodd" clip-rule="evenodd" d="M10 23C10 22.4477 10.4477 22 11 22H21C21.5523 22 22 22.4477 22 23C22 23.5523 21.5523 24 21 24H11C10.4477 24 10 23.5523 10 23Z" fill="black"/>
<path fill-rule="evenodd" clip-rule="evenodd" d="M10 26C10 25.4477 10.4477 25 11 25H21C21.5523 25 22 25.4477 22 26C22 26.5523 21.5523 27 21 27H11C10.4477 27 10 26.5523 10 26Z" fill="black"/>
</svg>
