<svg width="32" height="32" viewBox="0 0 32 32" fill="none" xmlns="http://www.w3.org/2000/svg">
<path fill-rule="evenodd" clip-rule="evenodd" d="M2 10C2 9.44772 2.44772 9 3 9H16C16.5523 9 17 9.44772 17 10C17 10.5523 16.5523 11 16 11H3C2.44772 11 2 10.5523 2 10Z" fill="black"/>
<path fill-rule="evenodd" clip-rule="evenodd" d="M24 10C24 9.44772 24.4477 9 25 9H29C29.5523 9 30 9.44772 30 10C30 10.5523 29.5523 11 29 11H25C24.4477 11 24 10.5523 24 10Z" fill="black"/>
<path fill-rule="evenodd" clip-rule="evenodd" d="M2 23C2 22.4477 2.44772 22 3 22H5.33715C5.88944 22 6.33715 22.4477 6.33715 23C6.33715 23.5523 5.88944 24 5.33715 24H3C2.44772 24 2 23.5523 2 23Z" fill="black"/>
<path fill-rule="evenodd" clip-rule="evenodd" d="M14 23C14 22.4477 14.4477 22 15 22H29C29.5523 22 30 22.4477 30 23C30 23.5523 29.5523 24 29 24H15C14.4477 24 14 23.5523 14 23Z" fill="black"/>
<path fill-rule="evenodd" clip-rule="evenodd" d="M20.5 6C18.567 6 17 7.567 17 9.5C17 11.433 18.567 13 20.5 13C22.433 13 24 11.433 24 9.5C24 7.567 22.433 6 20.5 6ZM15 9.5C15 6.46243 17.4624 4 20.5 4C23.5376 4 26 6.46243 26 9.5C26 12.5376 23.5376 15 20.5 15C17.4624 15 15 12.5376 15 9.5Z" fill="black"/>
<path fill-rule="evenodd" clip-rule="evenodd" d="M10.5 19C8.567 19 7 20.567 7 22.5C7 24.433 8.567 26 10.5 26C12.433 26 14 24.433 14 22.5C14 20.567 12.433 19 10.5 19ZM5 22.5C5 19.4624 7.46243 17 10.5 17C13.5376 17 16 19.4624 16 22.5C16 25.5376 13.5376 28 10.5 28C7.46243 28 5 25.5376 5 22.5Z" fill="black"/>
</svg>
