<svg width="32" height="32" viewBox="0 0 32 32" fill="none" xmlns="http://www.w3.org/2000/svg">
<path fill-rule="evenodd" clip-rule="evenodd" d="M16.8765 2.22553C21.1683 4.51922 25.1079 5.78546 26.6087 6.21907L26.6203 6.22243L26.6203 6.2225C27.3809 6.45228 28 7.13325 28 8.01526V12C28 12.5523 27.5523 13 27 13C26.4477 13 26 12.5523 26 12V8.12497C24.3882 7.65627 20.3777 6.35649 15.9956 4.02239C11.6246 6.36915 7.60087 7.6598 6 8.13397V19.1459C6 20.4352 6.9039 21.8248 8.45115 23.2145C9.95975 24.5695 11.8804 25.7459 13.4807 26.6231C13.965 26.8885 14.1424 27.4963 13.8769 27.9807C13.6115 28.465 13.0037 28.6424 12.5193 28.3769C10.8741 27.4751 8.79476 26.2114 7.11473 24.7024C5.47336 23.2282 4 21.3302 4 19.1459V8.02455C4 7.16057 4.60151 6.45241 5.39185 6.22819C6.90474 5.78172 10.8476 4.52471 15.1124 2.22652C15.6611 1.92482 16.3276 1.92449 16.8765 2.22553Z" fill="black"/>
<path fill-rule="evenodd" clip-rule="evenodd" d="M23.1306 13.5285C23.3894 13.0445 23.9898 12.8595 24.4761 13.114L27.9754 14.9451C28.463 15.2003 28.6528 15.8017 28.3999 16.2906L27.7674 17.5134C28.0851 17.9297 28.3535 18.3756 28.5731 18.8419L30.0472 18.9116C30.5806 18.9368 31 19.3765 31 19.9104V23.7446C31 24.2842 30.5719 24.7265 30.0326 24.7441L28.738 24.7863C28.6461 25.0123 28.5415 25.2376 28.422 25.4617L28.4184 25.4686L28.4183 25.4685C28.2982 25.6898 28.1675 25.9081 28.0248 26.1205L28.8144 27.4799C28.9488 27.7113 28.9848 27.9869 28.9144 28.2451C28.844 28.5033 28.6731 28.7225 28.4398 28.8537L24.8516 30.8716C24.6127 31.006 24.329 31.0364 24.067 30.9557C23.8051 30.875 23.5877 30.6902 23.4658 30.4447L22.8835 29.2718C22.4235 29.3309 21.9548 29.3454 21.4852 29.3124L20.8694 30.4641C20.6106 30.9481 20.0102 31.1331 19.5239 30.8786L15.9921 29.0304C15.755 28.9064 15.5776 28.6926 15.4994 28.4367C15.4212 28.1809 15.4487 27.9044 15.5759 27.6691L16.2245 26.4686C15.9223 26.071 15.6649 25.6466 15.452 25.2034L14.1534 25.2456C13.8879 25.2542 13.6299 25.1569 13.4363 24.9751C13.2427 24.7932 13.1294 24.5419 13.1214 24.2764L13.0005 20.2782C12.9838 19.7271 13.4163 19.2665 13.9674 19.2485L15.2609 19.2063C15.3534 18.9777 15.4595 18.749 15.5817 18.5241C15.699 18.308 15.8263 18.0947 15.9651 17.8871L15.2812 16.7731C14.9936 16.3048 15.1379 15.6922 15.6042 15.4013L18.9819 13.2948C19.2078 13.1539 19.4806 13.1089 19.7398 13.1698C19.9989 13.2307 20.2231 13.3924 20.3627 13.6191L21.0466 14.7301C21.529 14.6632 22.0214 14.6455 22.5148 14.6802L23.1306 13.5285ZM24.427 15.3456L23.9556 16.227C23.7515 16.6088 23.3249 16.8158 22.8987 16.74C22.194 16.6147 21.4751 16.6443 20.7967 16.8122C20.3744 16.9167 19.9329 16.7362 19.7049 16.3657L19.1868 15.5241L17.5051 16.5729L18.0238 17.4176C18.2488 17.7841 18.2143 18.2535 17.938 18.5832C17.7184 18.8451 17.52 19.1456 17.3392 19.4785C17.1723 19.786 17.04 20.1214 16.9344 20.472C16.8106 20.8829 16.4384 21.169 16.0095 21.183L15.0297 21.2149L15.0901 23.2141L16.0724 23.1822C16.5037 23.1682 16.8953 23.4323 17.0438 23.8375C17.2919 24.5144 17.6644 25.1352 18.1576 25.6621C18.4514 25.976 18.5117 26.4426 18.3074 26.8209L17.8172 27.7282L19.5731 28.647L20.0444 27.7656C20.2485 27.3838 20.6751 27.1768 21.1013 27.2526C21.806 27.3779 22.525 27.3483 23.2033 27.1804C23.6585 27.0678 24.1308 27.2865 24.3393 27.7065L24.789 28.6123L26.5756 27.6075L25.9637 26.554C25.7522 26.1898 25.7915 25.7322 26.062 25.4094C26.2808 25.1484 26.4786 24.8491 26.6589 24.5176C26.8299 24.1961 26.9619 23.8649 27.0656 23.5206C27.1894 23.1097 27.5616 22.8236 27.9905 22.8096L29 22.7767V20.8643L27.8479 20.8098C27.446 20.7908 27.0947 20.5328 26.9562 20.1551C26.7081 19.4782 26.3356 18.8574 25.8424 18.3305C25.5531 18.0214 25.4897 17.5637 25.6842 17.1876L26.1663 16.2557L24.427 15.3456Z" fill="black"/>
<path fill-rule="evenodd" clip-rule="evenodd" d="M22 23.5C22.8284 23.5 23.5 22.8284 23.5 22C23.5 21.1716 22.8284 20.5 22 20.5C21.1716 20.5 20.5 21.1716 20.5 22C20.5 22.8284 21.1716 23.5 22 23.5ZM22 25.5C23.933 25.5 25.5 23.933 25.5 22C25.5 20.067 23.933 18.5 22 18.5C20.067 18.5 18.5 20.067 18.5 22C18.5 23.933 20.067 25.5 22 25.5Z" fill="black"/>
</svg>
