<svg width="32" height="32" viewBox="0 0 32 32" fill="none" xmlns="http://www.w3.org/2000/svg">
<path fill-rule="evenodd" clip-rule="evenodd" d="M2.22123 11.3727C2.41106 11.137 2.6974 11 3.00001 11H29C29.2968 11 29.5783 11.1319 29.7683 11.3599C29.9583 11.588 30.0372 11.8887 29.9836 12.1806L27.6241 25.0297C27.3 26.7975 25.6774 28 23.891 28H8.37551C6.73659 28 5.22772 26.9212 4.87634 25.3028C4.87631 25.3027 4.87637 25.303 4.87634 25.3028L2.02295 12.213C1.9585 11.9173 2.0314 11.6084 2.22123 11.3727ZM4.24148 13L6.83056 24.8774C6.96036 25.4756 7.57057 26 8.37551 26H23.891C24.8216 26 25.526 25.3832 25.6569 24.6691L27.7997 13H4.24148Z" fill="black"/>
<path fill-rule="evenodd" clip-rule="evenodd" d="M9.73443 15.0359C10.2669 14.8892 10.8174 15.202 10.9641 15.7344L12.617 21.7344C12.7636 22.2669 12.4509 22.8174 11.9184 22.9641C11.386 23.1108 10.8355 22.798 10.6888 22.2656L9.03592 16.2656C8.88924 15.7331 9.20197 15.1826 9.73443 15.0359Z" fill="black"/>
<path fill-rule="evenodd" clip-rule="evenodd" d="M22.9685 15.0359C23.5009 15.1826 23.8137 15.7331 23.667 16.2656L22.0141 22.2656C21.8675 22.798 21.3169 23.1108 20.7845 22.9641C20.252 22.8174 19.9393 22.2669 20.086 21.7344L21.7388 15.7344C21.8855 15.202 22.436 14.8892 22.9685 15.0359Z" fill="black"/>
<path fill-rule="evenodd" clip-rule="evenodd" d="M16.5 15C17.0523 15 17.5 15.4477 17.5 16V22C17.5 22.5523 17.0523 23 16.5 23C15.9477 23 15.5 22.5523 15.5 22V16C15.5 15.4477 15.9477 15 16.5 15Z" fill="black"/>
<path fill-rule="evenodd" clip-rule="evenodd" d="M20.2387 2.11281C20.7287 1.85801 21.3325 2.04867 21.5873 2.53867L24.1873 7.53867C24.442 8.02867 24.2514 8.63244 23.7614 8.88724C23.2714 9.14204 22.6676 8.95137 22.4128 8.46138L19.8128 3.46138C19.558 2.97138 19.7487 2.3676 20.2387 2.11281Z" fill="black"/>
<path fill-rule="evenodd" clip-rule="evenodd" d="M12.0613 2.11281C12.5513 2.3676 12.742 2.97138 12.4872 3.46138L9.88718 8.46138C9.63238 8.95137 9.02861 9.14204 8.53861 8.88724C8.04861 8.63244 7.85795 8.02867 8.11275 7.53867L10.7127 2.53867C10.9675 2.04867 11.5713 1.85801 12.0613 2.11281Z" fill="black"/>
</svg>
