<svg width="32" height="32" viewBox="0 0 32 32" fill="none" xmlns="http://www.w3.org/2000/svg">
<path fill-rule="evenodd" clip-rule="evenodd" d="M9 4C7.34315 4 6 5.34315 6 7C6 8.65685 7.34315 10 9 10C10.6569 10 12 8.65685 12 7C12 5.34315 10.6569 4 9 4ZM4 7C4 4.23858 6.23858 2 9 2C11.7614 2 14 4.23858 14 7C14 9.76142 11.7614 12 9 12C6.23858 12 4 9.76142 4 7Z" fill="black"/>
<path fill-rule="evenodd" clip-rule="evenodd" d="M23 22C21.3431 22 20 23.3431 20 25C20 26.6569 21.3431 28 23 28C24.6569 28 26 26.6569 26 25C26 23.3431 24.6569 22 23 22ZM18 25C18 22.2386 20.2386 20 23 20C25.7614 20 28 22.2386 28 25C28 27.7614 25.7614 30 23 30C20.2386 30 18 27.7614 18 25Z" fill="black"/>
<path fill-rule="evenodd" clip-rule="evenodd" d="M12.6667 7C12.6667 6.44772 13.1144 6 13.6667 6H22.3333C25.432 6 28 8.42497 28 11.5C28 14.575 25.432 17 22.3333 17H11.6667C9.60341 17 8 18.5975 8 20.5C8 22.4025 9.60341 24 11.6667 24H19C19.5523 24 20 24.4477 20 25C20 25.5523 19.5523 26 19 26H11.6667C8.56802 26 6 23.575 6 20.5C6 17.425 8.56802 15 11.6667 15H22.3333C24.3966 15 26 13.4025 26 11.5C26 9.59748 24.3966 8 22.3333 8H13.6667C13.1144 8 12.6667 7.55228 12.6667 7Z" fill="black"/>
</svg>
