<svg width="32" height="32" viewBox="0 0 32 32" fill="none" xmlns="http://www.w3.org/2000/svg">
<path fill-rule="evenodd" clip-rule="evenodd" d="M4.16396 4.96972L12.7165 13.2833C12.9102 13.4715 13.0195 13.7302 13.0195 14.0003V27.4194C13.0195 27.5686 13.1392 27.8435 13.6756 27.963C14.1988 28.0794 14.6753 27.9186 14.8978 27.6353L14.907 27.6238L18.9806 22.5923L18.9806 14.4973C18.9806 14.2372 19.0819 13.9874 19.2631 13.8008L27.8213 4.98463L27.8321 4.97365C27.952 4.85391 27.9872 4.75187 27.9967 4.68176C28.0069 4.60663 27.9941 4.51707 27.9416 4.42019C27.8376 4.2281 27.5628 4 27.0899 4H4.9101C4.43718 4 4.16241 4.2281 4.05838 4.42019C4.00591 4.51707 3.99306 4.60663 4.00324 4.68176C4.01264 4.7511 4.04723 4.85168 4.16396 4.96972ZM27.0899 2C28.2424 2 29.2215 2.58367 29.7003 3.46776C30.1933 4.37808 30.1004 5.52975 29.2515 6.38265L20.9806 14.9029L20.9806 22.9464C20.9806 23.1754 20.902 23.3976 20.7578 23.5756L16.4656 28.8771C15.6381 29.9243 14.2856 30.1477 13.2409 29.9151C12.2073 29.685 11.0195 28.8752 11.0195 27.4194V14.4228L2.75441 6.38874C1.89993 5.53525 1.80556 4.38023 2.29972 3.46776C2.77567 2.58892 3.74602 2.00693 4.88962 2.00006C4.89334 2.00002 4.89708 2 4.90081 2H27.0899Z" fill="black"/>
</svg>
