<svg width="32" height="32" viewBox="0 0 32 32" fill="none" xmlns="http://www.w3.org/2000/svg">
<path fill-rule="evenodd" clip-rule="evenodd" d="M21.3329 2.27203C21.334 2.27272 21.3351 2.27341 21.3362 2.2741L24.6953 4.30889C24.6961 4.30932 24.6968 4.30977 24.6975 4.31021C25.5982 4.85186 25.8777 6.02223 25.3826 6.92191C25.3824 6.92226 25.3823 6.92261 25.3821 6.92296L24.2409 9.0039C24.9351 9.90346 25.5008 10.9208 25.907 12.0236H28.1091C29.2052 12.0236 30 12.9447 30 13.9594V18.0406C30 19.0713 29.1897 19.9764 28.1091 19.9764H25.9071C25.5027 21.0748 24.9441 22.093 24.241 22.9963L25.3813 25.0757C25.8842 25.9802 25.5878 27.1424 24.7049 27.6853L24.6992 27.6888L21.3305 29.7294L21.3266 29.7317C20.3989 30.288 19.2367 29.9372 18.727 29.0123L17.6127 26.9866C17.0887 27.0682 16.551 27.1121 16 27.1121C15.449 27.1121 14.9113 27.0682 14.3873 26.9866L13.2754 29.0079C12.7748 29.9338 11.6009 30.2996 10.6672 29.728C10.666 29.7273 10.6649 29.7266 10.6638 29.7259L7.30467 27.6911C7.30398 27.6907 7.30328 27.6903 7.30259 27.6899C6.40193 27.1483 6.12229 25.978 6.61722 25.0784C6.61746 25.0779 6.6177 25.0775 6.61794 25.0771L7.75905 22.9961C7.0649 22.0966 6.49921 21.0792 6.09295 19.9764H3.89095C2.79479 19.9764 2 19.0553 2 18.0406V13.9594C2 12.9287 2.81032 12.0236 3.89095 12.0236H6.09294C6.49732 10.9252 7.05592 9.90699 7.75895 9.00372L6.61857 6.92412C6.11579 6.01972 6.41229 4.85759 7.29507 4.31471L7.30078 4.3112L10.6734 2.26826C11.6011 1.71199 12.7633 2.06283 13.273 2.98769L14.3873 5.01336C14.9113 4.93178 15.449 4.8879 16 4.8879C16.551 4.8879 17.0887 4.93178 17.6127 5.01336L18.7245 2.99215C19.2252 2.06618 20.3991 1.7004 21.3329 2.27203ZM14.4247 26.9186C14.4247 26.9187 14.4248 26.9184 14.4247 26.9186V26.9186ZM24.2316 22.9791C24.2315 22.9789 24.2317 22.9793 24.2316 22.9791V22.9791ZM20.4209 4.05792L19.3282 6.04447C18.9673 6.70084 18.2209 7.15007 17.3908 7.00334C16.9375 6.92815 16.4741 6.8879 16 6.8879C15.5239 6.8879 15.0586 6.92849 14.6035 7.00429L14.6006 7.00477C13.7923 7.13694 13.0418 6.71744 12.6721 6.04492L11.5791 4.05792L8.38788 5.99104L9.52126 8.05789C9.88749 8.72514 9.84314 9.56865 9.36891 10.1915L9.36441 10.1974L9.35982 10.2033C8.76554 10.9601 8.28948 11.8271 7.94674 12.7778L7.94572 12.7806C7.67393 13.5275 6.97064 14.0236 6.18659 14.0236H4V17.9764H6.18659C6.96732 17.9764 7.68124 18.4642 7.94851 19.2271C8.28991 20.1725 8.7714 21.0398 9.36243 21.8001C9.84789 22.4238 9.88534 23.2788 9.52164 23.9414C9.52152 23.9417 9.52177 23.9412 9.52164 23.9414L8.38787 26.009L11.5791 27.9421L12.6718 25.9555C12.6718 25.9557 12.6719 25.9554 12.6718 25.9555C13.0327 25.2992 13.7791 24.8499 14.6093 24.9967C15.0625 25.0719 15.5259 25.1121 16 25.1121C16.4761 25.1121 16.9414 25.0715 17.3965 24.9957L17.3994 24.9952C18.2177 24.8614 18.9599 25.2984 19.3241 25.9482L19.3279 25.9551L20.4209 27.9421L23.6121 26.009L22.4787 23.9421C22.4786 23.9419 22.4789 23.9424 22.4787 23.9421C22.1125 23.2749 22.1569 22.4314 22.6311 21.8085L22.6356 21.8026L22.6402 21.7968C23.2345 21.0399 23.7105 20.1729 24.0533 19.2222L24.0543 19.2194C24.3261 18.4725 25.0294 17.9764 25.8134 17.9764H28V14.0236H25.8134C25.0327 14.0236 24.3187 13.5358 24.0515 12.7728C23.7101 11.8274 23.2286 10.9602 22.6376 10.1999C22.152 9.57604 22.1146 8.72083 22.4786 8.05814C22.4786 8.05822 22.4786 8.05805 22.4786 8.05814L23.6121 5.99104L20.4209 4.05792ZM4 13.9594C4 13.9594 4 13.9593 4 13.9594V13.9594ZM16.6859 12.0561C13.9391 11.6069 11.6063 13.9393 12.0562 16.6851C12.3246 18.3291 13.666 19.6715 15.3134 19.9438M16.6859 12.0561C18.3336 12.3281 19.6752 13.6701 19.9437 15.3143C20.3936 18.0603 18.0604 20.3934 15.3134 19.9438M10.0825 17.0079C9.41161 12.9114 12.9144 9.41212 17.0097 10.0824L17.0109 10.0826C19.5029 10.4937 21.5104 12.4979 21.9175 14.9921C22.5884 19.0886 19.0856 22.5879 14.9903 21.9176L14.9891 21.9174C12.4973 21.5063 10.4899 19.5018 10.0825 17.0079Z" fill="black"/>
</svg>
