<svg width="32" height="32" viewBox="0 0 32 32" fill="none" xmlns="http://www.w3.org/2000/svg">
<path fill-rule="evenodd" clip-rule="evenodd" d="M15.4968 26.0001C15.4967 26.0001 15.4974 26 15.4986 26L15.4968 26.0001ZM16.0001 26H20.0001L20.0001 28C19.9964 28 19.9927 28 19.9889 28H16.0112C16.0075 28 16.0037 28 16.0001 28L16.0001 26ZM20.5034 26.0001C20.5034 26.0001 20.5027 26.0001 20.5015 26L20.5034 26.0001ZM14.6415 24.2351C14.9317 24.0466 15.2451 24 15.5001 24H20.5001C20.7551 24 21.0685 24.0466 21.3586 24.2352C21.6673 24.4357 21.83 24.7181 21.9105 24.9655C21.9831 25.189 21.996 25.4052 22 25.5439C22.0027 25.6353 22.0016 25.7534 22.0007 25.8444C22.0004 25.8812 22.0001 25.9135 22.0001 25.9379C22.0001 25.9379 22.0001 25.9379 22.0001 25.9379L22.0001 28.5C22.0001 28.7734 21.9394 29.0927 21.7325 29.3805C21.5239 29.6706 21.2457 29.8187 21.0166 29.8941C20.8004 29.9653 20.5883 29.9852 20.4354 29.9933C20.3008 30.0004 20.1561 30.0002 20.0392 30.0001C20.0218 30 20.005 30 19.9889 30H16.0112C15.9951 30 15.9783 30 15.9609 30.0001C15.844 30.0002 15.6993 30.0004 15.5647 29.9933C15.4118 29.9852 15.1997 29.9653 14.9835 29.8941C14.7544 29.8187 14.4762 29.6706 14.2676 29.3805C14.0607 29.0927 14.0001 28.7734 14.0001 28.5C14.0001 28.5 14.0001 28.5 14.0001 28.5L14.0001 25.9379C14.0001 25.9135 13.9997 25.8812 13.9994 25.8444C13.9985 25.7534 13.9974 25.6353 14.0001 25.5439C14.0041 25.4052 14.017 25.1889 14.0897 24.9654C14.1701 24.718 14.3329 24.4357 14.6415 24.2351Z" fill="black"/>
<path fill-rule="evenodd" clip-rule="evenodd" d="M6 16C5.03545 16 4 16.9685 4 18.5C4 20.0315 5.03545 21 6 21H8V16H6ZM2 18.5C2 16.1631 3.65373 14 6 14H10V23H6C3.65373 23 2 20.8369 2 18.5Z" fill="black"/>
<path fill-rule="evenodd" clip-rule="evenodd" d="M22 14H26C28.3463 14 30 16.1631 30 18.5C30 20.8369 28.3463 23 26 23H22V14ZM24 16V21H26C26.9645 21 28 20.0315 28 18.5C28 16.9685 26.9645 16 26 16H24Z" fill="black"/>
<path fill-rule="evenodd" clip-rule="evenodd" d="M16 4C11.704 4 8 8.02452 8 13.2857V15H6V13.2857C6 7.17849 10.3575 2 16 2C21.6425 2 26 7.17848 26 13.2857V15H24V13.2857C24 8.02452 20.296 4 16 4Z" fill="black"/>
<path fill-rule="evenodd" clip-rule="evenodd" d="M13.0015 28C10.0388 28 8 25.0956 8 22H10C10 24.4307 11.5368 26 13.0015 26H15V28H13.0015Z" fill="black"/>
</svg>
