<svg width="32" height="32" viewBox="0 0 32 32" fill="none" xmlns="http://www.w3.org/2000/svg">
<path fill-rule="evenodd" clip-rule="evenodd" d="M16 8C14.8947 8 14 8.89233 14 10C14 11.1077 14.8947 12 16 12C17.1037 12 18 11.1018 18 10C18 8.89233 17.1053 8 16 8ZM12 10C12 7.78597 13.7919 6 16 6C18.2081 6 20 7.78597 20 10C20 12.2049 18.2097 14 16 14C13.7919 14 12 12.214 12 10Z" fill="black"/>
<path fill-rule="evenodd" clip-rule="evenodd" d="M9 16.5C9.55228 16.5 10 16.9477 10 17.5V26.0194L16.3062 28.048C16.832 28.2172 17.1211 28.7805 16.952 29.3062C16.7828 29.832 16.2195 30.1211 15.6938 29.952L8.69377 27.7002C8.28033 27.5672 8 27.1825 8 26.7482V17.5C8 16.9477 8.44772 16.5 9 16.5Z" fill="black"/>
<path fill-rule="evenodd" clip-rule="evenodd" d="M9.06308 16.0534C9.24107 15.9928 9.43254 15.9836 9.61551 16.0268L11.7301 16.5268C12.2676 16.6539 12.6003 17.1926 12.4732 17.7301C12.3461 18.2676 11.8074 18.6003 11.2699 18.4732L9.43533 18.0394L4 19.8901V27.6031L9.06308 25.8792C9.58589 25.7012 10.154 25.9807 10.332 26.5035C10.51 27.0263 10.2305 27.5944 9.70773 27.7724L3.32232 29.9466C3.01696 30.0506 2.68019 30.0009 2.4179 29.8131C2.15561 29.6253 2 29.3226 2 29V19.1742C2 18.7461 2.27246 18.3655 2.67768 18.2276L9.06308 16.0534Z" fill="black"/>
<path fill-rule="evenodd" clip-rule="evenodd" d="M22.3925 16.0267C22.5754 15.9836 22.7667 15.9929 22.9445 16.0535L29.3226 18.2277C29.7277 18.3657 30 18.7462 30 19.1742V29C30 29.3226 29.8443 29.6255 29.5819 29.8132C29.3196 30.001 28.9827 30.0506 28.6773 29.9465L22.2992 27.7723C21.7765 27.5941 21.4971 27.0259 21.6753 26.5032C21.8535 25.9804 22.4218 25.7011 22.9445 25.8793L28 27.6026V19.8898L22.5713 18.0393L20.7293 18.4733C20.1918 18.6 19.6533 18.2669 19.5266 17.7294C19.4 17.1918 19.7331 16.6533 20.2706 16.5267L22.3925 16.0267Z" fill="black"/>
<path fill-rule="evenodd" clip-rule="evenodd" d="M23 16.5C23.5523 16.5 24 16.9477 24 17.5V26.7482C24 27.1825 23.7197 27.5672 23.3062 27.7002L16.3062 29.952C16.002 30.0498 15.6693 29.9964 15.411 29.8082C15.1528 29.6199 15 29.3196 15 29V23C15 22.4477 15.4477 22 16 22C16.5523 22 17 22.4477 17 23V27.6278L22 26.0194V17.5C22 16.9477 22.4477 16.5 23 16.5Z" fill="black"/>
<path fill-rule="evenodd" clip-rule="evenodd" d="M16 4C12.6883 4 10 6.68224 10 9.98678L10 9.9884C9.99815 11.1367 10.3748 12.4761 11.0036 13.8881C11.6273 15.2886 12.4684 16.6933 13.3241 17.9537C14.1779 19.2114 15.034 20.3075 15.6774 21.0897C15.7922 21.2294 15.9002 21.3589 15.9999 21.4773C16.0994 21.3592 16.2069 21.2302 16.3214 21.091C16.964 20.3095 17.8193 19.2142 18.6726 17.9571C19.5278 16.6972 20.3687 15.2927 20.9928 13.8917C21.622 12.4792 22 11.1382 22 9.98678C22 6.68224 19.3117 4 16 4ZM16 23L16.7361 23.6769C16.5467 23.8828 16.2798 24 16 24C15.7203 24 15.4533 23.8828 15.2639 23.6769L16 23ZM8.00001 9.98598C8.00045 5.57283 11.5884 2 16 2C20.4118 2 24 5.57326 24 9.98678C24 11.5358 23.503 13.1716 22.8197 14.7055C22.1313 16.2508 21.2222 17.762 20.3274 19.0803C19.4307 20.4014 18.536 21.5467 17.8661 22.3613C17.5308 22.7692 17.2506 23.0955 17.0533 23.321C16.9546 23.4337 16.8765 23.5214 16.8225 23.5815C16.7955 23.6115 16.7745 23.6347 16.76 23.6507L16.7431 23.6693L16.7383 23.6745L16.7369 23.676C16.7367 23.6762 16.7361 23.6769 16 23C15.2639 23.6769 15.2641 23.6771 15.2639 23.6769L15.2632 23.6761L15.257 23.6693L15.24 23.6507C15.2255 23.6347 15.2044 23.6115 15.1774 23.5814C15.1234 23.5212 15.0452 23.4335 14.9464 23.3206C14.7489 23.0949 14.4684 22.7683 14.1327 22.3602C13.4622 21.5449 12.5666 20.3987 11.6694 19.0771C10.774 17.7583 9.86457 16.2467 9.17657 14.7017C8.4938 13.1685 7.99768 11.5334 8.00001 9.98598Z" fill="black"/>
</svg>
