<svg width="32" height="32" viewBox="0 0 32 32" fill="none" xmlns="http://www.w3.org/2000/svg">
<path fill-rule="evenodd" clip-rule="evenodd" d="M16 3.93335C9.33578 3.93335 3.93335 9.33578 3.93335 16C3.93335 22.6643 9.33578 28.0667 16 28.0667C22.6643 28.0667 28.0667 22.6643 28.0667 16C28.0667 9.33578 22.6643 3.93335 16 3.93335ZM1.93335 16C1.93335 8.23121 8.23121 1.93335 16 1.93335C23.7688 1.93335 30.0667 8.23121 30.0667 16C30.0667 23.7688 23.7688 30.0667 16 30.0667C8.23121 30.0667 1.93335 23.7688 1.93335 16Z" fill="black"/>
<path fill-rule="evenodd" clip-rule="evenodd" d="M21.8684 12.3343C22.2589 12.7248 22.2589 13.358 21.8684 13.7485L14.6444 20.9725C14.2539 21.363 13.6207 21.363 13.2302 20.9725L10.1315 17.8738C9.74099 17.4833 9.74099 16.8501 10.1315 16.4596C10.522 16.0691 11.1552 16.0691 11.5457 16.4596L13.9373 18.8512L20.4542 12.3343C20.8447 11.9438 21.4779 11.9438 21.8684 12.3343Z" fill="black"/>
</svg>
