<svg width="32" height="32" viewBox="0 0 32 32" fill="none" xmlns="http://www.w3.org/2000/svg">
<path fill-rule="evenodd" clip-rule="evenodd" d="M14.5309 10.0005C14.942 10.0132 15.3034 10.2763 15.4417 10.6637L17.7047 17H26C26.5523 17 27 17.4477 27 18C27 18.5523 26.5523 19 26 19H17C16.5774 19 16.2004 18.7343 16.0583 18.3363L14.4153 13.7361L12.4191 18.3939C12.2616 18.7616 11.9 19 11.5 19H6C5.44772 19 5 18.5523 5 18C5 17.4477 5.44772 17 6 17H10.8406L13.5809 10.6061C13.7429 10.228 14.1198 9.98776 14.5309 10.0005Z" fill="black"/>
<path fill-rule="evenodd" clip-rule="evenodd" d="M13.2326 6.22736C12.0684 5.39629 10.6038 4.76666 9.01023 5.03982L9.00941 5.03996C7.78894 5.24812 6.77356 5.97112 5.96758 6.87209C5.16156 7.7731 4.6244 8.78819 4.36377 9.42833C3.45075 11.6817 3.9855 14.3687 6.10041 17.5926C8.11782 20.6678 11.4706 24.063 15.9252 27.7323C20.3876 24.0561 23.7777 20.6339 25.8305 17.5319C27.9853 14.2757 28.5462 11.5676 27.6363 9.32138C27.381 8.69422 26.85 7.72968 26.0482 6.87481C25.2495 6.02316 24.2304 5.3297 22.9911 5.11815C21.3945 4.84801 19.9258 5.46519 18.7615 6.27659C17.6016 7.08496 16.8644 8.00516 16.7967 8.09444C16.6077 8.34375 16.3128 8.49021 15.9999 8.49021C15.6871 8.49021 15.3922 8.34375 15.2031 8.09444C15.1274 7.99458 14.3903 7.05381 13.2326 6.22736ZM16.0079 5.98807C15.603 5.57354 15.0568 5.07231 14.3946 4.59958C13.0156 3.61509 11.0084 2.66832 8.67279 3.06849C6.8601 3.37777 5.4676 4.43127 4.47698 5.53864C3.48661 6.64572 2.83853 7.87046 2.51106 8.67505L2.51051 8.67639C1.23991 11.8112 2.15193 15.2199 4.42814 18.6896C6.70806 22.165 10.4699 25.8877 15.2955 29.8006C15.6626 30.0983 16.1881 30.0982 16.5552 29.8005C21.3854 25.8828 25.1831 22.1343 27.4984 18.6356C29.8069 15.1472 30.7628 11.7109 29.4894 8.56901L29.4888 8.56767C29.1561 7.75014 28.5018 6.56732 27.507 5.50663C26.5092 4.44274 25.1204 3.45245 23.3267 3.14652L23.3256 3.14632C21.0024 2.75294 18.9993 3.67313 17.618 4.63576C16.9592 5.0949 16.4142 5.58227 16.0079 5.98807Z" fill="black"/>
</svg>
