<svg width="32" height="32" viewBox="0 0 32 32" fill="none" xmlns="http://www.w3.org/2000/svg">
<path fill-rule="evenodd" clip-rule="evenodd" d="M18 21C18 19.3431 19.3431 18 21 18H27C28.6569 18 30 19.3431 30 21V27C30 28.6569 28.6569 30 27 30H21C19.3431 30 18 28.6569 18 27V21ZM21 20C20.4477 20 20 20.4477 20 21V27C20 27.5523 20.4477 28 21 28H27C27.5523 28 28 27.5523 28 27V21C28 20.4477 27.5523 20 27 20H21Z" fill="black"/>
<path fill-rule="evenodd" clip-rule="evenodd" d="M6 16C6.55228 16 7 16.4477 7 17V25.5983C7 25.8119 7.17415 26 7.41714 26H14C14.5523 26 15 26.4477 15 27C15 27.5523 14.5523 28 14 28H7.41714C6.08757 28 5 26.9344 5 25.5983V17C5 16.4477 5.44772 16 6 16Z" fill="black"/>
<path fill-rule="evenodd" clip-rule="evenodd" d="M11.2929 24.2929C11.6834 23.9024 12.3166 23.9024 12.7071 24.2929L14.7071 26.2929C14.8946 26.4804 15 26.7348 15 27C15 27.2652 14.8946 27.5196 14.7071 27.7071L12.7071 29.7071C12.3166 30.0976 11.6834 30.0976 11.2929 29.7071C10.9024 29.3166 10.9024 28.6834 11.2929 28.2929L12.5858 27L11.2929 25.7071C10.9024 25.3166 10.9024 24.6834 11.2929 24.2929Z" fill="black"/>
<path fill-rule="evenodd" clip-rule="evenodd" d="M17 5C17 4.44772 17.4477 4 18 4H24.45C25.7667 4 27 4.98362 27 6.40174V15C27 15.5523 26.5523 16 26 16C25.4477 16 25 15.5523 25 15V6.40174C25 6.27011 24.8533 6 24.45 6H18C17.4477 6 17 5.55228 17 5Z" fill="black"/>
<path fill-rule="evenodd" clip-rule="evenodd" d="M20.7071 2.29289C21.0976 2.68342 21.0976 3.31658 20.7071 3.70711L19.4142 5L20.7071 6.29289C21.0976 6.68342 21.0976 7.31658 20.7071 7.70711C20.3166 8.09763 19.6834 8.09763 19.2929 7.70711L17.2929 5.70711C17.1054 5.51957 17 5.26522 17 5C17 4.73478 17.1054 4.48043 17.2929 4.29289L19.2929 2.29289C19.6834 1.90237 20.3166 1.90237 20.7071 2.29289Z" fill="black"/>
<path fill-rule="evenodd" clip-rule="evenodd" d="M8 4C5.79086 4 4 5.79086 4 8C4 10.2091 5.79086 12 8 12C10.2091 12 12 10.2091 12 8C12 5.79086 10.2091 4 8 4ZM2 8C2 4.68629 4.68629 2 8 2C11.3137 2 14 4.68629 14 8C14 11.3137 11.3137 14 8 14C4.68629 14 2 11.3137 2 8Z" fill="black"/>
</svg>
