<svg width="32" height="32" viewBox="0 0 32 32" fill="none" xmlns="http://www.w3.org/2000/svg">
<path fill-rule="evenodd" clip-rule="evenodd" d="M13 5.07101C13 3.40988 14.3123 2 16 2C17.6877 2 19 3.40988 19 5.07101V7C19 7.55229 18.5523 8 18 8C17.4477 8 17 7.55229 17 7V5.07101C17 4.44811 16.518 4 16 4C15.482 4 15 4.44811 15 5.07101V7C15 7.55229 14.5523 8 14 8C13.4477 8 13 7.55229 13 7V5.07101Z" fill="black"/>
<path fill-rule="evenodd" clip-rule="evenodd" d="M9.50004 13C9.50004 9.2175 12.2972 6 16.0012 6C19.7058 6 22.5 9.21808 22.5 13V17.6421L25.5316 21.3355L25.5458 21.3545C26.093 22.0898 26.1077 22.994 25.7911 23.6957C25.4739 24.3986 24.7708 25 23.8218 25H8.16912C7.22041 25 6.51805 24.4001 6.2035 23.6934C5.89003 22.989 5.91361 22.0896 6.45448 21.3574L6.46955 21.337L9.50004 17.6423V13ZM16.0012 8C13.5678 8 11.5 10.1484 11.5 13V18.3577L8.05345 22.5596C7.99054 22.6545 7.98299 22.7729 8.03072 22.8802C8.05475 22.9342 8.08546 22.9661 8.10693 22.9814C8.12356 22.9932 8.14006 23 8.16912 23H23.8218C23.8499 23 23.8676 22.9934 23.8867 22.9799C23.9105 22.963 23.9429 22.9289 23.9681 22.8732C24.0182 22.7619 24.0079 22.6477 23.9503 22.5612L20.5 18.3579V13C20.5 10.1478 18.4341 8 16.0012 8Z" fill="black"/>
<path fill-rule="evenodd" clip-rule="evenodd" d="M19.3563 26.0657C19.8724 26.2625 20.1312 26.8403 19.9344 27.3563C19.3375 28.9214 17.7851 30 16 30C14.2127 30 12.6625 28.9141 12.0662 27.3578C11.8686 26.8421 12.1265 26.2638 12.6422 26.0662C13.158 25.8686 13.7362 26.1265 13.9338 26.6422C14.2277 27.4092 15.0243 28 16 28C16.9779 28 17.7723 27.4129 18.0657 26.6437C18.2625 26.1277 18.8403 25.8689 19.3563 26.0657Z" fill="black"/>
</svg>
