<svg width="32" height="32" viewBox="0 0 32 32" fill="none" xmlns="http://www.w3.org/2000/svg">
<path fill-rule="evenodd" clip-rule="evenodd" d="M3.14366 7.48366C3.42885 7.0107 4.04344 6.85848 4.5164 7.14366L15.7123 13.8946C15.7266 13.9032 15.7408 13.9122 15.7547 13.9216C15.9099 14.0262 16.1888 14.0262 16.344 13.9216C16.3568 13.913 16.3698 13.9046 16.383 13.8966L27.4803 7.14569C27.9521 6.85866 28.5673 7.00847 28.8544 7.4803C29.1414 7.95214 28.9916 8.56733 28.5198 8.85436L17.4395 15.5949C16.6183 16.1347 15.4827 16.1351 14.661 15.5961L3.48366 8.85639C3.0107 8.57121 2.85848 7.95661 3.14366 7.48366Z" fill="black"/>
<path fill-rule="evenodd" clip-rule="evenodd" d="M4 8V24H28V8H4ZM2 7.94464C2 6.86631 2.87694 6 3.949 6H28.051C29.1231 6 30 6.86632 30 7.94464V24.0554C30 25.1337 29.1231 26 28.051 26H3.949C2.87694 26 2 25.1337 2 24.0554V7.94464Z" fill="black"/>
</svg>
