<svg width="32" height="32" viewBox="0 0 32 32" fill="none" xmlns="http://www.w3.org/2000/svg">
<path fill-rule="evenodd" clip-rule="evenodd" d="M4.2 4C4.08954 4 4 4.08954 4 4.2V7.8C4 7.91046 4.08954 8 4.2 8H7.8C7.91046 8 8 7.91046 8 7.8V4.2C8 4.08954 7.91046 4 7.8 4H4.2ZM2 4.2C2 2.98497 2.98497 2 4.2 2H7.8C9.01503 2 10 2.98497 10 4.2V7.8C10 9.01503 9.01503 10 7.8 10H4.2C2.98497 10 2 9.01503 2 7.8V4.2Z" fill="black"/>
<path fill-rule="evenodd" clip-rule="evenodd" d="M4.2 24C4.08954 24 4 24.0895 4 24.2V27.8C4 27.9105 4.08954 28 4.2 28H7.8C7.91046 28 8 27.9105 8 27.8V24.2C8 24.0895 7.91046 24 7.8 24H4.2ZM2 24.2C2 22.985 2.98497 22 4.2 22H7.8C9.01503 22 10 22.985 10 24.2V27.8C10 29.015 9.01503 30 7.8 30H4.2C2.98497 30 2 29.015 2 27.8V24.2Z" fill="black"/>
<path fill-rule="evenodd" clip-rule="evenodd" d="M5.03394 16C5.03394 15.4477 5.48165 15 6.03394 15H17.6611C18.2133 15 18.6611 15.4477 18.6611 16C18.6611 16.5523 18.2133 17 17.6611 17H6.03394C5.48165 17 5.03394 16.5523 5.03394 16Z" fill="black"/>
<path fill-rule="evenodd" clip-rule="evenodd" d="M6.03394 8.35596C6.58622 8.35596 7.03394 8.80367 7.03394 9.35596V22.6441C7.03394 23.1964 6.58622 23.6441 6.03394 23.6441C5.48165 23.6441 5.03394 23.1964 5.03394 22.6441V9.35596C5.03394 8.80367 5.48165 8.35596 6.03394 8.35596Z" fill="black"/>
<path fill-rule="evenodd" clip-rule="evenodd" d="M19.2571 4C19.1465 4 19 4.10245 19 4.3V27.7C19 27.8975 19.1465 28 19.2571 28H27.7429C27.8535 28 28 27.8975 28 27.7V4.3C28 4.10245 27.8535 4 27.7429 4H19.2571ZM17 4.3C17 3.06161 17.9792 2 19.2571 2H27.7429C29.0208 2 30 3.06161 30 4.3V27.7C30 28.9384 29.0208 30 27.7429 30H19.2571C17.9792 30 17 28.9384 17 27.7V4.3Z" fill="black"/>
<path fill-rule="evenodd" clip-rule="evenodd" d="M21 8C21 7.44772 21.4477 7 22 7H25C25.5523 7 26 7.44772 26 8C26 8.55228 25.5523 9 25 9H22C21.4477 9 21 8.55228 21 8Z" fill="black"/>
<path fill-rule="evenodd" clip-rule="evenodd" d="M21 12C21 11.4477 21.4477 11 22 11H25C25.5523 11 26 11.4477 26 12C26 12.5523 25.5523 13 25 13H22C21.4477 13 21 12.5523 21 12Z" fill="black"/>
</svg>
