<svg width="32" height="32" viewBox="0 0 32 32" fill="none" xmlns="http://www.w3.org/2000/svg">
<path fill-rule="evenodd" clip-rule="evenodd" d="M16 10C14.3431 10 13 11.3431 13 13C13 14.6569 14.3431 16 16 16C17.6569 16 19 14.6569 19 13C19 11.3431 17.6569 10 16 10ZM11 13C11 10.2386 13.2386 8 16 8C18.7614 8 21 10.2386 21 13C21 15.7614 18.7614 18 16 18C13.2386 18 11 15.7614 11 13Z" fill="black"/>
<path fill-rule="evenodd" clip-rule="evenodd" d="M10 23.6939C10 23.6936 10 23.6943 10 23.6939L10.0271 26.9918C10.0316 27.5441 9.5876 27.9954 9.03533 28C8.48307 28.0045 8.03169 27.5605 8.02716 27.0082L8.00008 23.7082L8.00007 23.7061C7.9874 21.6122 9.74905 20 11.8253 20H20.1747C22.251 20 24.0126 21.6122 23.9999 23.7061L23.9728 27.0082C23.9683 27.5605 23.5169 28.0045 22.9647 28C22.4124 27.9954 21.9684 27.5441 21.9729 26.9918L22 23.6939C22 23.6943 22 23.6936 22 23.6939C22.0048 22.8053 21.2392 22 20.1747 22H11.8253C10.7608 22 9.99522 22.8053 10 23.6939Z" fill="black"/>
<path fill-rule="evenodd" clip-rule="evenodd" d="M16 3.93335C9.33578 3.93335 3.93335 9.33578 3.93335 16C3.93335 22.6643 9.33578 28.0667 16 28.0667C22.6643 28.0667 28.0667 22.6643 28.0667 16C28.0667 9.33578 22.6643 3.93335 16 3.93335ZM1.93335 16C1.93335 8.23121 8.23121 1.93335 16 1.93335C23.7688 1.93335 30.0667 8.23121 30.0667 16C30.0667 23.7688 23.7688 30.0667 16 30.0667C8.23121 30.0667 1.93335 23.7688 1.93335 16Z" fill="black"/>
</svg>
