<svg width="32" height="32" viewBox="0 0 32 32" fill="none" xmlns="http://www.w3.org/2000/svg">
<path d="M4.25238 28H3.74762C3.33472 28 3 28.311 3 28.6947V29.3053C3 29.689 3.33472 30 3.74762 30H4.25238C4.66528 30 5 29.689 5 29.3053V28.6947C5 28.311 4.66528 28 4.25238 28Z" fill="black"/>
<path d="M7.25238 28H6.74762C6.33472 28 6 28.311 6 28.6947V29.3053C6 29.689 6.33472 30 6.74762 30H7.25238C7.66528 30 8 29.689 8 29.3053V28.6947C8 28.311 7.66528 28 7.25238 28Z" fill="black"/>
<path d="M10.2524 28H9.74762C9.33472 28 9 28.311 9 28.6947V29.3053C9 29.689 9.33472 30 9.74762 30H10.2524C10.6653 30 11 29.689 11 29.3053V28.6947C11 28.311 10.6653 28 10.2524 28Z" fill="black"/>
<path d="M13.2524 28H12.7476C12.3347 28 12 28.311 12 28.6947V29.3053C12 29.689 12.3347 30 12.7476 30H13.2524C13.6653 30 14 29.689 14 29.3053V28.6947C14 28.311 13.6653 28 13.2524 28Z" fill="black"/>
<path d="M16.2524 28H15.7476C15.3347 28 15 28.311 15 28.6947V29.3053C15 29.689 15.3347 30 15.7476 30H16.2524C16.6653 30 17 29.689 17 29.3053V28.6947C17 28.311 16.6653 28 16.2524 28Z" fill="black"/>
<path d="M19.2524 28H18.7476C18.3347 28 18 28.311 18 28.6947V29.3053C18 29.689 18.3347 30 18.7476 30H19.2524C19.6653 30 20 29.689 20 29.3053V28.6947C20 28.311 19.6653 28 19.2524 28Z" fill="black"/>
<path d="M22.2524 28H21.7476C21.3347 28 21 28.311 21 28.6947V29.3053C21 29.689 21.3347 30 21.7476 30H22.2524C22.6653 30 23 29.689 23 29.3053V28.6947C23 28.311 22.6653 28 22.2524 28Z" fill="black"/>
<path d="M25.2524 28H24.7476C24.3347 28 24 28.311 24 28.6947V29.3053C24 29.689 24.3347 30 24.7476 30H25.2524C25.6653 30 26 29.689 26 29.3053V28.6947C26 28.311 25.6653 28 25.2524 28Z" fill="black"/>
<path d="M28.2524 28H27.7476C27.3347 28 27 28.311 27 28.6947V29.3053C27 29.689 27.3347 30 27.7476 30H28.2524C28.6653 30 29 29.689 29 29.3053V28.6947C29 28.311 28.6653 28 28.2524 28Z" fill="black"/>
<path d="M4.25238 2H3.74762C3.33472 2 3 2.31102 3 2.69469V3.30531C3 3.68898 3.33472 4 3.74762 4H4.25238C4.66528 4 5 3.68898 5 3.30531V2.69469C5 2.31102 4.66528 2 4.25238 2Z" fill="black"/>
<path d="M7.25238 2H6.74762C6.33472 2 6 2.31102 6 2.69469V3.30531C6 3.68898 6.33472 4 6.74762 4H7.25238C7.66528 4 8 3.68898 8 3.30531V2.69469C8 2.31102 7.66528 2 7.25238 2Z" fill="black"/>
<path d="M10.2524 2H9.74762C9.33472 2 9 2.31102 9 2.69469V3.30531C9 3.68898 9.33472 4 9.74762 4H10.2524C10.6653 4 11 3.68898 11 3.30531V2.69469C11 2.31102 10.6653 2 10.2524 2Z" fill="black"/>
<path d="M13.2524 2H12.7476C12.3347 2 12 2.31102 12 2.69469V3.30531C12 3.68898 12.3347 4 12.7476 4H13.2524C13.6653 4 14 3.68898 14 3.30531V2.69469C14 2.31102 13.6653 2 13.2524 2Z" fill="black"/>
<path d="M16.2524 2H15.7476C15.3347 2 15 2.31102 15 2.69469V3.30531C15 3.68898 15.3347 4 15.7476 4H16.2524C16.6653 4 17 3.68898 17 3.30531V2.69469C17 2.31102 16.6653 2 16.2524 2Z" fill="black"/>
<path d="M19.2524 2H18.7476C18.3347 2 18 2.31102 18 2.69469V3.30531C18 3.68898 18.3347 4 18.7476 4H19.2524C19.6653 4 20 3.68898 20 3.30531V2.69469C20 2.31102 19.6653 2 19.2524 2Z" fill="black"/>
<path d="M22.2524 2H21.7476C21.3347 2 21 2.31102 21 2.69469V3.30531C21 3.68898 21.3347 4 21.7476 4H22.2524C22.6653 4 23 3.68898 23 3.30531V2.69469C23 2.31102 22.6653 2 22.2524 2Z" fill="black"/>
<path d="M25.2524 2H24.7476C24.3347 2 24 2.31102 24 2.69469V3.30531C24 3.68898 24.3347 4 24.7476 4H25.2524C25.6653 4 26 3.68898 26 3.30531V2.69469C26 2.31102 25.6653 2 25.2524 2Z" fill="black"/>
<path d="M28.2524 2H27.7476C27.3347 2 27 2.31102 27 2.69469V3.30531C27 3.68898 27.3347 4 27.7476 4H28.2524C28.6653 4 29 3.68898 29 3.30531V2.69469C29 2.31102 28.6653 2 28.2524 2Z" fill="black"/>
<path d="M3.25238 6H2.74762C2.33472 6 2 6.31102 2 6.69469V7.30531C2 7.68898 2.33472 8 2.74762 8H3.25238C3.66528 8 4 7.68898 4 7.30531V6.69469C4 6.31102 3.66528 6 3.25238 6Z" fill="black"/>
<path d="M3.25238 9H2.74762C2.33472 9 2 9.31102 2 9.69469V10.3053C2 10.689 2.33472 11 2.74762 11H3.25238C3.66528 11 4 10.689 4 10.3053V9.69469C4 9.31102 3.66528 9 3.25238 9Z" fill="black"/>
<path d="M3.25238 12H2.74762C2.33472 12 2 12.311 2 12.6947V13.3053C2 13.689 2.33472 14 2.74762 14H3.25238C3.66528 14 4 13.689 4 13.3053V12.6947C4 12.311 3.66528 12 3.25238 12Z" fill="black"/>
<path d="M3.25238 15H2.74762C2.33472 15 2 15.311 2 15.6947V16.3053C2 16.689 2.33472 17 2.74762 17H3.25238C3.66528 17 4 16.689 4 16.3053V15.6947C4 15.311 3.66528 15 3.25238 15Z" fill="black"/>
<path d="M3.25238 18H2.74762C2.33472 18 2 18.311 2 18.6947V19.3053C2 19.689 2.33472 20 2.74762 20H3.25238C3.66528 20 4 19.689 4 19.3053V18.6947C4 18.311 3.66528 18 3.25238 18Z" fill="black"/>
<path d="M3.25238 21H2.74762C2.33472 21 2 21.311 2 21.6947V22.3053C2 22.689 2.33472 23 2.74762 23H3.25238C3.66528 23 4 22.689 4 22.3053V21.6947C4 21.311 3.66528 21 3.25238 21Z" fill="black"/>
<path d="M3.25238 24H2.74762C2.33472 24 2 24.311 2 24.6947V25.3053C2 25.689 2.33472 26 2.74762 26H3.25238C3.66528 26 4 25.689 4 25.3053V24.6947C4 24.311 3.66528 24 3.25238 24Z" fill="black"/>
<path d="M29.2524 6H28.7476C28.3347 6 28 6.31102 28 6.69469V7.30531C28 7.68898 28.3347 8 28.7476 8H29.2524C29.6653 8 30 7.68898 30 7.30531V6.69469C30 6.31102 29.6653 6 29.2524 6Z" fill="black"/>
<path d="M29.2524 9H28.7476C28.3347 9 28 9.31102 28 9.69469V10.3053C28 10.689 28.3347 11 28.7476 11H29.2524C29.6653 11 30 10.689 30 10.3053V9.69469C30 9.31102 29.6653 9 29.2524 9Z" fill="black"/>
<path d="M29.2524 12H28.7476C28.3347 12 28 12.311 28 12.6947V13.3053C28 13.689 28.3347 14 28.7476 14H29.2524C29.6653 14 30 13.689 30 13.3053V12.6947C30 12.311 29.6653 12 29.2524 12Z" fill="black"/>
<path d="M29.2524 15H28.7476C28.3347 15 28 15.311 28 15.6947V16.3053C28 16.689 28.3347 17 28.7476 17H29.2524C29.6653 17 30 16.689 30 16.3053V15.6947C30 15.311 29.6653 15 29.2524 15Z" fill="black"/>
<path d="M29.2524 18H28.7476C28.3347 18 28 18.311 28 18.6947V19.3053C28 19.689 28.3347 20 28.7476 20H29.2524C29.6653 20 30 19.689 30 19.3053V18.6947C30 18.311 29.6653 18 29.2524 18Z" fill="black"/>
<path d="M29.2524 21H28.7476C28.3347 21 28 21.311 28 21.6947V22.3053C28 22.689 28.3347 23 28.7476 23H29.2524C29.6653 23 30 22.689 30 22.3053V21.6947C30 21.311 29.6653 21 29.2524 21Z" fill="black"/>
<path d="M29.2524 24H28.7476C28.3347 24 28 24.311 28 24.6947V25.3053C28 25.689 28.3347 26 28.7476 26H29.2524C29.6653 26 30 25.689 30 25.3053V24.6947C30 24.311 29.6653 24 29.2524 24Z" fill="black"/>
<path fill-rule="evenodd" clip-rule="evenodd" d="M11.3714 11C11.1663 11 11 11.1663 11 11.3714V20.6286C11 20.8337 11.1663 21 11.3714 21H20.6286C20.8337 21 21 20.8337 21 20.6286V11.3714C21 11.1663 20.8337 11 20.6286 11H11.3714ZM9 11.3714C9 10.0617 10.0617 9 11.3714 9H20.6286C21.9383 9 23 10.0617 23 11.3714V20.6286C23 21.9383 21.9383 23 20.6286 23H11.3714C10.0617 23 9 21.9383 9 20.6286V11.3714Z" fill="black"/>
</svg>
