<svg width="32" height="32" viewBox="0 0 32 32" fill="none" xmlns="http://www.w3.org/2000/svg">
<path fill-rule="evenodd" clip-rule="evenodd" d="M1.93335 5.02402C1.93335 3.32373 3.32373 1.93335 5.02402 1.93335H20.704C22.4043 1.93335 23.7947 3.32373 23.7947 5.02402V12.3414C23.7947 12.8936 23.347 13.3414 22.7947 13.3414C22.2424 13.3414 21.7947 12.8936 21.7947 12.3414V5.02402C21.7947 4.4283 21.2997 3.93335 20.704 3.93335H5.02402C4.4283 3.93335 3.93335 4.4283 3.93335 5.02402V13.3867C3.93335 13.9824 4.4283 14.4774 5.02402 14.4774C5.5763 14.4774 6.02402 14.9251 6.02402 15.4774V17.7902L7.60532 16.736C8.06484 16.4296 8.68571 16.5538 8.99207 17.0133C9.29842 17.4728 9.17424 18.0937 8.71472 18.4001L5.57872 20.4907C5.27186 20.6953 4.87732 20.7144 4.55216 20.5404C4.227 20.3663 4.02402 20.0275 4.02402 19.6587V16.3104C2.8108 15.8926 1.93335 14.7374 1.93335 13.3867V5.02402Z" fill="black"/>
<path fill-rule="evenodd" clip-rule="evenodd" d="M10.2507 13.3413C9.64565 13.3413 9.16003 13.8269 9.16003 14.432V22.7946C9.16003 23.3997 9.64565 23.8853 10.2507 23.8853H19.6587C19.8561 23.8853 20.0491 23.9437 20.2134 24.0533L24.9307 27.1981V24.8853C24.9307 24.333 25.3784 23.8853 25.9307 23.8853C26.5357 23.8853 27.0214 23.3997 27.0214 22.7946V14.432C27.0214 13.8269 26.5357 13.3413 25.9307 13.3413H10.2507ZM7.16003 14.432C7.16003 12.7224 8.54108 11.3413 10.2507 11.3413H25.9307C27.6403 11.3413 29.0214 12.7224 29.0214 14.432V22.7946C29.0214 24.1541 28.1481 25.3059 26.9307 25.7206V29.0666C26.9307 29.4354 26.7277 29.7743 26.4026 29.9483C26.0774 30.1223 25.6829 30.1033 25.376 29.8987L19.3559 25.8853H10.2507C8.54108 25.8853 7.16003 24.5043 7.16003 22.7946V14.432Z" fill="black"/>
</svg>
