<svg width="32" height="32" viewBox="0 0 32 32" fill="none" xmlns="http://www.w3.org/2000/svg">
<path d="M16.2563 22H15.7437C15.3317 22 15 22.31 15 22.69V23.31C15 23.69 15.3317 24 15.7437 24H16.2563C16.6683 24 17 23.69 17 23.31V22.69C17 22.31 16.6683 22 16.2563 22Z" fill="black"/>
<path fill-rule="evenodd" clip-rule="evenodd" d="M16.1437 10.0048C14.994 9.92558 14 10.8629 14 12.0713C14 12.6235 13.5523 13.0713 13 13.0713C12.4477 13.0713 12 12.6235 12 12.0713C12 9.76326 13.9179 7.84569 16.2828 8.00967L16.2844 8.00978C18.2667 8.15036 19.856 9.77657 19.9897 11.7766C20.0992 13.3367 19.3265 14.7439 18.1225 15.5091L18.1219 15.5095C17.4208 15.9545 16.996 16.7167 16.996 17.5551V19C16.996 19.5523 16.5483 20 15.996 20C15.4437 20 14.996 19.5523 14.996 19V17.5551C14.996 16.0261 15.7761 14.6298 17.0497 13.8212M16.1437 10.0048C17.1061 10.0735 17.9261 10.8832 17.9943 11.9111L17.9942 11.9111L17.9946 11.9155C18.0516 12.7221 17.6528 13.4378 17.0497 13.8212" fill="black"/>
<path fill-rule="evenodd" clip-rule="evenodd" d="M16 28C22.6274 28 28 22.6274 28 16C28 9.37258 22.6274 4 16 4C9.37258 4 4 9.37258 4 16C4 22.6274 9.37258 28 16 28ZM16 30C23.732 30 30 23.732 30 16C30 8.26801 23.732 2 16 2C8.26801 2 2 8.26801 2 16C2 23.732 8.26801 30 16 30Z" fill="black"/>
</svg>
