<svg width="32" height="32" viewBox="0 0 32 32" fill="none" xmlns="http://www.w3.org/2000/svg">
<path fill-rule="evenodd" clip-rule="evenodd" d="M26 16C26 15.4477 26.4477 15 27 15H29C29.5523 15 30 15.4477 30 16C30 16.5523 29.5523 17 29 17H27C26.4477 17 26 16.5523 26 16Z" fill="black"/>
<path fill-rule="evenodd" clip-rule="evenodd" d="M2 16C2 15.4477 2.44772 15 3 15H5C5.55228 15 6 15.4477 6 16C6 16.5523 5.55228 17 5 17H3C2.44772 17 2 16.5523 2 16Z" fill="black"/>
<path fill-rule="evenodd" clip-rule="evenodd" d="M15.9988 2C16.5511 2 16.9988 2.44772 16.9988 3V5C16.9988 5.55229 16.5511 6 15.9988 6C15.4465 6 14.9988 5.55229 14.9988 5V3C14.9988 2.44772 15.4465 2 15.9988 2Z" fill="black"/>
<path fill-rule="evenodd" clip-rule="evenodd" d="M26.158 6.30534C26.5417 6.70262 26.5306 7.33569 26.1334 7.71934L24.6947 9.10865C24.2974 9.4923 23.6643 9.48125 23.2807 9.08397C22.897 8.68669 22.9081 8.05362 23.3054 7.66997L24.744 6.28066C25.1413 5.89701 25.7744 5.90806 26.158 6.30534Z" fill="black"/>
<path fill-rule="evenodd" clip-rule="evenodd" d="M26.158 25.0839C26.5417 24.6867 26.5306 24.0536 26.1334 23.6699L24.6947 22.2806C24.2974 21.897 23.6643 21.908 23.2807 22.3053C22.897 22.7026 22.9081 23.3357 23.3054 23.7193L24.744 25.1086C25.1413 25.4923 25.7744 25.4812 26.158 25.0839Z" fill="black"/>
<path fill-rule="evenodd" clip-rule="evenodd" d="M5.28068 6.30534C4.89703 6.70262 4.90808 7.33569 5.30536 7.71934L6.74405 9.10865C7.14133 9.4923 7.77439 9.48125 8.15804 9.08397C8.54169 8.68669 8.53064 8.05362 8.13336 7.66997L6.69468 6.28066C6.2974 5.89701 5.66433 5.90806 5.28068 6.30534Z" fill="black"/>
<path fill-rule="evenodd" clip-rule="evenodd" d="M5.28068 25.0839C4.89703 24.6867 4.90808 24.0536 5.30536 23.6699L6.74405 22.2806C7.14133 21.897 7.77439 21.908 8.15804 22.3053C8.54169 22.7026 8.53064 23.3357 8.13336 23.7193L6.69468 25.1086C6.2974 25.4923 5.66433 25.4812 5.28068 25.0839Z" fill="black"/>
<path fill-rule="evenodd" clip-rule="evenodd" d="M15.9376 7.00027C20.3522 6.96504 24 10.4316 24 14.7775C24 17.1138 22.9332 19.1962 21.2807 20.613C20.5225 21.2656 20.098 22.1887 20.098 23.1497C20.098 24.2035 19.2291 25 18.2202 25H13.7671C12.7581 25 11.8893 24.2035 11.8893 23.1497C11.8893 22.1887 11.4647 21.2656 10.7065 20.613C9.05787 19.2002 8.00751 17.1242 8.00005 14.8058M15.9535 9.0002C12.6351 9.02709 9.98922 11.6623 10 14.7989L10 14.7991C10.0055 16.5019 10.7744 18.0375 12.0085 19.0948L12.0101 19.0961C13.1611 20.0863 13.8445 21.4973 13.8871 23H18.1001C18.1427 21.4973 18.8261 20.0863 19.9771 19.0961L19.9785 19.095C21.2217 18.0293 22 16.4873 22 14.7775C22 11.6014 19.3174 8.97342 15.9536 9.0002M15.9376 7.00027L15.9375 7.00027L15.9376 7.00027ZM15.9375 7.00027C11.5801 7.0355 7.98537 10.5071 8.00004 14.8055L15.9375 7.00027Z" fill="black"/>
<path fill-rule="evenodd" clip-rule="evenodd" d="M13 23C13.5523 23 14 23.4477 14 24V27.1655C14 27.5975 14.3693 28 14.8932 28H17.1068C17.6307 28 18 27.5975 18 27.1655V24C18 23.4477 18.4477 23 19 23C19.5523 23 20 23.4477 20 24V27.1655C20 28.7611 18.6754 30 17.1068 30H14.8932C13.3246 30 12 28.7611 12 27.1655V24C12 23.4477 12.4477 23 13 23Z" fill="black"/>
</svg>
