<svg width="32" height="32" viewBox="0 0 32 32" fill="none" xmlns="http://www.w3.org/2000/svg">
<path d="M18.02 30C17.49 30 16.98 29.79 16.6 29.41C16.09 28.9 15.89 28.19 16.07 27.49H16.06L16.67 25.06C16.71 24.88 16.81 24.72 16.93 24.6L24.59 16.92C25.82 15.69 27.83 15.69 29.07 16.92C30.31 18.16 30.31 20.16 29.07 21.4L21.41 29.06C21.28 29.19 21.12 29.28 20.95 29.32L18.52 29.93C18.35 29.97 18.19 29.99 18.02 29.99V30ZM18 27.97C18 27.97 18 27.97 18 27.98L20.2 27.45L27.66 19.99C28.11 19.54 28.11 18.8 27.66 18.34C27.2 17.88 26.46 17.88 26.01 18.34L18.54 25.81L18 27.97Z" fill="black"/>
<path fill-rule="evenodd" clip-rule="evenodd" d="M4 5.73831C4 3.65147 5.72321 2 7.8019 2H19L19.6989 2.28482L26.6989 9.12595L27 9.84113V13.5C27 14.0523 26.5523 14.5 26 14.5C25.4477 14.5 25 14.0523 25 13.5V10.2621L18.5925 4H7.8019C6.78425 4 6 4.79908 6 5.73831V26.2617C6 27.2009 6.78425 28 7.8019 28H13C13.5523 28 14 28.4477 14 29C14 29.5523 13.5523 30 13 30H7.8019C5.72321 30 4 28.3485 4 26.2617V5.73831Z" fill="black"/>
<path fill-rule="evenodd" clip-rule="evenodd" d="M19 2C19.5523 2 20 2.44772 20 3V8.6019C20 8.82 20.18 9 20.3981 9H26C26.5523 9 27 9.44772 27 10C27 10.5523 26.5523 11 26 11H20.3981C19.0754 11 18 9.92457 18 8.6019V3C18 2.44772 18.4477 2 19 2Z" fill="black"/>
<path fill-rule="evenodd" clip-rule="evenodd" d="M8 8C8 7.44772 8.44772 7 9 7H15C15.5523 7 16 7.44772 16 8C16 8.55228 15.5523 9 15 9H9C8.44772 9 8 8.55228 8 8ZM8 12C8 11.4477 8.44772 11 9 11H15C15.5523 11 16 11.4477 16 12C16 12.5523 15.5523 13 15 13H9C8.44772 13 8 12.5523 8 12ZM8 16C8 15.4477 8.44772 15 9 15H12.5C13.0523 15 13.5 15.4477 13.5 16C13.5 16.5523 13.0523 17 12.5 17H9C8.44772 17 8 16.5523 8 16Z" fill="black"/>
</svg>
