<svg width="32" height="32" viewBox="0 0 32 32" fill="none" xmlns="http://www.w3.org/2000/svg">
<path fill-rule="evenodd" clip-rule="evenodd" d="M10.6508 14.2408C11.0701 14.6002 11.1187 15.2315 10.7593 15.6508L8.31708 18.5L10.7593 21.3492C11.1187 21.7686 11.0701 22.3999 10.6508 22.7593C10.2315 23.1187 9.60017 23.0701 9.24074 22.6508L6.24074 19.1508C5.91975 18.7763 5.91975 18.2237 6.24074 17.8492L9.24074 14.3492C9.60017 13.9299 10.2315 13.8813 10.6508 14.2408Z" fill="black"/>
<path fill-rule="evenodd" clip-rule="evenodd" d="M21.3492 14.2408C21.7686 13.8813 22.3999 13.9299 22.7593 14.3492L25.7593 17.8492C26.0803 18.2237 26.0803 18.7763 25.7593 19.1508L22.7593 22.6508C22.3999 23.0701 21.7686 23.1187 21.3492 22.7593C20.9299 22.3999 20.8813 21.7686 21.2408 21.3492L23.6829 18.5L21.2408 15.6508C20.8813 15.2315 20.9299 14.6002 21.3492 14.2408Z" fill="black"/>
<path fill-rule="evenodd" clip-rule="evenodd" d="M17.8878 11.0299C18.4236 11.1638 18.7494 11.7068 18.6154 12.2425L15.6154 24.2425C15.4815 24.7783 14.9385 25.1041 14.4028 24.9702C13.867 24.8362 13.5412 24.2933 13.6751 23.7575L16.6751 11.7575C16.8091 11.2217 17.352 10.8959 17.8878 11.0299Z" fill="black"/>
<path fill-rule="evenodd" clip-rule="evenodd" d="M2 8H30V26.0689C30 28.1604 28.4188 30 26.2967 30H5.70332C3.58116 30 2 28.1604 2 26.0689V8ZM4 10V26.0689C4 27.2126 4.83623 28 5.70332 28H26.2967C27.1638 28 28 27.2126 28 26.0689V10H4Z" fill="black"/>
<path fill-rule="evenodd" clip-rule="evenodd" d="M2 5.9901C2 3.88533 3.56385 2 5.704 2H26.296C28.4362 2 30 3.88533 30 5.9901V10H2V5.9901ZM5.704 4C4.85415 4 4 4.79453 4 5.9901V8H28V5.9901C28 4.79453 27.1458 4 26.296 4H5.704Z" fill="black"/>
<path d="M7.24664 5H6.75336C6.33729 5 6 5.30953 6 5.69136V6.30864C6 6.69047 6.33729 7 6.75336 7H7.24664C7.66271 7 8 6.69047 8 6.30864V5.69136C8 5.30953 7.66271 5 7.24664 5Z" fill="black"/>
<path d="M10.2466 5H9.75336C9.33729 5 9 5.30953 9 5.69136V6.30864C9 6.69047 9.33729 7 9.75336 7H10.2466C10.6627 7 11 6.69047 11 6.30864V5.69136C11 5.30953 10.6627 5 10.2466 5Z" fill="black"/>
<path d="M13.2466 5H12.7534C12.3373 5 12 5.30953 12 5.69136V6.30864C12 6.69047 12.3373 7 12.7534 7H13.2466C13.6627 7 14 6.69047 14 6.30864V5.69136C14 5.30953 13.6627 5 13.2466 5Z" fill="black"/>
</svg>
