<svg width="32" height="32" viewBox="0 0 32 32" fill="none" xmlns="http://www.w3.org/2000/svg">
<path fill-rule="evenodd" clip-rule="evenodd" d="M19.3586 2.93335C19.3586 2.38106 19.8064 1.93335 20.3586 1.93335H28.0666C29.1712 1.93335 30.0666 2.82878 30.0666 3.93335V11.6413C30.0666 12.1936 29.6189 12.6413 29.0666 12.6413C28.5144 12.6413 28.0666 12.1936 28.0666 11.6413L28.0666 3.93335H20.3586C19.8064 3.93335 19.3586 3.48563 19.3586 2.93335Z" fill="black"/>
<path fill-rule="evenodd" clip-rule="evenodd" d="M28.7071 3.29289C29.0976 3.68342 29.0976 4.31658 28.7071 4.70711L20.7071 12.7071C20.3166 13.0976 19.6834 13.0976 19.2929 12.7071C18.9024 12.3166 18.9024 11.6834 19.2929 11.2929L27.2929 3.29289C27.6834 2.90237 28.3166 2.90237 28.7071 3.29289Z" fill="black"/>
<path fill-rule="evenodd" clip-rule="evenodd" d="M2.93335 19.3586C3.48563 19.3586 3.93335 19.8064 3.93335 20.3586V28.0666H11.6413C12.1936 28.0666 12.6413 28.5144 12.6413 29.0666C12.6413 29.6189 12.1936 30.0666 11.6413 30.0666H3.93335C2.82878 30.0666 1.93335 29.1712 1.93335 28.0666V20.3586C1.93335 19.8064 2.38106 19.3586 2.93335 19.3586Z" fill="black"/>
<path fill-rule="evenodd" clip-rule="evenodd" d="M12.7071 19.2929C13.0976 19.6834 13.0976 20.3166 12.7071 20.7071L4.70711 28.7071C4.31658 29.0976 3.68342 29.0976 3.29289 28.7071C2.90237 28.3166 2.90237 27.6834 3.29289 27.2929L11.2929 19.2929C11.6834 18.9024 12.3166 18.9024 12.7071 19.2929Z" fill="black"/>
</svg>
