<svg width="32" height="32" viewBox="0 0 32 32" fill="none" xmlns="http://www.w3.org/2000/svg">
<path d="M9.25628 13H8.74372C8.33166 13 8 13.31 8 13.69V14.31C8 14.69 8.33166 15 8.74372 15H9.25628C9.66834 15 10 14.69 10 14.31V13.69C10 13.31 9.66834 13 9.25628 13Z" fill="black"/>
<path d="M16.2563 13H15.7437C15.3317 13 15 13.31 15 13.69V14.31C15 14.69 15.3317 15 15.7437 15H16.2563C16.6683 15 17 14.69 17 14.31V13.69C17 13.31 16.6683 13 16.2563 13Z" fill="black"/>
<path d="M23.2563 13H22.7437C22.3317 13 22 13.31 22 13.69V14.31C22 14.69 22.3317 15 22.7437 15H23.2563C23.6683 15 24 14.69 24 14.31V13.69C24 13.31 23.6683 13 23.2563 13Z" fill="black"/>
<path fill-rule="evenodd" clip-rule="evenodd" d="M2 8.50247C2 5.96164 4.16582 4 6.71429 4H25.2857C27.8342 4 30 5.96164 30 8.50247V19.8811C30 21.1159 29.5285 22.1787 28.6758 22.9204C27.8381 23.6491 26.7128 24 25.5 24H15.3218L10.1946 27.681C10.1792 27.692 10.1636 27.7026 10.1476 27.7128C9.45713 28.1513 8.66054 28.0239 8.12924 27.756C7.60744 27.493 7 26.9147 7 26.0603V24H6.5C5.28904 24 4.16401 23.6523 3.32569 22.9261C2.4718 22.1864 2 21.125 2 19.8898V8.50247ZM6.71429 6C5.15847 6 4 7.1749 4 8.50247V19.8898C4 20.5889 4.25213 21.0826 4.6352 21.4144C5.03385 21.7597 5.65881 22 6.5 22H8C8.55228 22 9 22.4477 9 23V25.9532C9.00866 25.9588 9.01853 25.9646 9.02951 25.9701C9.04997 25.9804 9.07083 25.9882 9.09015 25.9933C9.09754 25.9952 9.10416 25.9966 9.10995 25.9976L14.4168 22.1877C14.5868 22.0656 14.7908 22 15 22H25.5C26.3394 22 26.9641 21.7586 27.3633 21.4114C27.7475 21.0771 28 20.5805 28 19.8811V8.50247C28 7.1749 26.8415 6 25.2857 6H6.71429Z" fill="black"/>
</svg>
