<svg width="32" height="32" viewBox="0 0 32 32" fill="none" xmlns="http://www.w3.org/2000/svg">
<path fill-rule="evenodd" clip-rule="evenodd" d="M16 3.93335C11.5398 3.93335 7.90906 7.57722 7.90906 12.08C7.90906 15.6728 10.0203 19.7009 12.2754 22.9422C13.3861 24.5387 14.4987 25.8983 15.3341 26.8588C15.5838 27.1459 15.8083 27.3969 16 27.6073C16.1917 27.3969 16.4162 27.1459 16.6659 26.8588C17.5012 25.8983 18.6138 24.5387 19.7245 22.9422C21.9796 19.7009 24.0909 15.6728 24.0909 12.08C24.0909 7.57722 20.4601 3.93335 16 3.93335ZM16 29.0667C15.2907 29.7716 15.2905 29.7714 15.2903 29.7712L15.2879 29.7688L15.2817 29.7626L15.2598 29.7403C15.241 29.721 15.2138 29.6932 15.1787 29.6569C15.1087 29.5845 15.0075 29.4786 14.8795 29.3419C14.6235 29.0686 14.26 28.6715 13.8249 28.1712C12.9557 27.1718 11.7957 25.7547 10.6336 24.0845C8.34327 20.7924 5.90906 16.3273 5.90906 12.08C5.90906 6.48415 10.4238 1.93335 16 1.93335C21.5762 1.93335 26.0909 6.48415 26.0909 12.08C26.0909 16.3273 23.6567 20.7924 21.3663 24.0845C20.2043 25.7547 19.0442 27.1718 18.175 28.1712C17.7399 28.6715 17.3765 29.0686 17.1205 29.3419C16.9924 29.4786 16.8912 29.5845 16.8212 29.6569C16.7862 29.6932 16.759 29.721 16.7401 29.7403L16.7182 29.7626L16.7121 29.7688L16.7102 29.7706C16.71 29.7708 16.7092 29.7716 16 29.0667ZM16 29.0667L16.7092 29.7716C16.5215 29.9605 16.2662 30.0667 16 30.0667C15.7337 30.0667 15.478 29.9601 15.2903 29.7712L16 29.0667Z" fill="black"/>
<path fill-rule="evenodd" clip-rule="evenodd" d="M16 8C14.3431 8 13 9.34315 13 11C13 12.6569 14.3431 14 16 14C17.6569 14 19 12.6569 19 11C19 9.34315 17.6569 8 16 8ZM11 11C11 8.23858 13.2386 6 16 6C18.7614 6 21 8.23858 21 11C21 13.7614 18.7614 16 16 16C13.2386 16 11 13.7614 11 11Z" fill="black"/>
</svg>
