<svg width="32" height="32" viewBox="0 0 32 32" fill="none" xmlns="http://www.w3.org/2000/svg">
<path fill-rule="evenodd" clip-rule="evenodd" d="M16 3.93335C9.33578 3.93335 3.93335 9.33578 3.93335 16C3.93335 22.6643 9.33578 28.0667 16 28.0667C22.6643 28.0667 28.0667 22.6643 28.0667 16C28.0667 9.33578 22.6643 3.93335 16 3.93335ZM1.93335 16C1.93335 8.23121 8.23121 1.93335 16 1.93335C23.7688 1.93335 30.0667 8.23121 30.0667 16C30.0667 23.7688 23.7688 30.0667 16 30.0667C8.23121 30.0667 1.93335 23.7688 1.93335 16Z" fill="black"/>
<path fill-rule="evenodd" clip-rule="evenodd" d="M16 11C14.898 11 14 11.898 14 13C14 14.102 14.898 15 16 15C18.2066 15 20 16.7934 20 19C20 21.2066 18.2066 23 16 23C13.7953 23 12 21.217 12 19C12 18.4477 12.4477 18 13 18C13.5523 18 14 18.4477 14 19C14 20.102 14.898 21 16 21C17.102 21 18 20.102 18 19C18 17.898 17.102 17 16 17C13.7934 17 12 15.2066 12 13C12 10.7934 13.7934 9 16 9C18.2047 9 20 10.783 20 13C20 13.5523 19.5523 14 19 14C18.4477 14 18 13.5523 18 13C18 11.898 17.102 11 16 11Z" fill="black"/>
<path fill-rule="evenodd" clip-rule="evenodd" d="M16 6C16.5523 6 17 6.44772 17 7V9C17 9.55228 16.5523 10 16 10C15.4477 10 15 9.55228 15 9V7C15 6.44772 15.4477 6 16 6Z" fill="black"/>
<path fill-rule="evenodd" clip-rule="evenodd" d="M16 22C16.5523 22 17 22.4477 17 23V25C17 25.5523 16.5523 26 16 26C15.4477 26 15 25.5523 15 25V23C15 22.4477 15.4477 22 16 22Z" fill="black"/>
</svg>
