<svg width="32" height="32" viewBox="0 0 32 32" fill="none" xmlns="http://www.w3.org/2000/svg">
<path fill-rule="evenodd" clip-rule="evenodd" d="M22.6342 6.9984C24.3045 8.44508 24.461 10.9822 23.0026 12.6363C21.6033 14.2457 19.1726 14.4585 17.5157 13.126C17.4615 13.0942 17.4096 13.0568 17.3607 13.0139C15.7099 11.5636 15.5288 9.02853 16.994 7.36702C18.4462 5.69843 20.9792 5.53562 22.6342 6.9984ZM21.3122 8.49921C20.4875 7.76788 19.2238 7.84967 18.5012 8.68168L18.4956 8.68822L18.4955 8.68819C17.7984 9.47703 17.8462 10.6769 18.58 11.4166C18.6196 11.4427 18.6579 11.4719 18.6944 11.5043C19.5169 12.2336 20.7805 12.1458 21.4948 11.3223L21.5009 11.3153L21.5009 11.3153C22.2338 10.486 22.1472 9.2201 21.3223 8.50798L21.3122 8.49928L21.3122 8.49921Z" fill="black"/>
<path fill-rule="evenodd" clip-rule="evenodd" d="M24.0581 5.86C20.8411 3.03993 15.9377 3.35593 13.1204 6.56151C11.1214 8.8331 10.6978 11.9395 11.7566 14.5616C11.8982 14.9123 11.8298 15.3129 11.5799 15.5967L3.94263 24.2734V28.076H7.90283L8.08666 25.5773C8.12249 25.0902 8.50491 24.7003 8.99119 24.655L11.0893 24.4595V22.2627C11.0893 21.7549 11.4698 21.3278 11.9742 21.2693L14.6539 20.9589L15.9773 19.4553C16.2265 19.1722 16.6137 19.0534 16.9787 19.148C19.7279 19.8601 22.7613 19.0391 24.7605 16.7761C27.5874 13.5596 27.2717 8.67709 24.0581 5.86ZM11.6182 5.24121C15.1662 1.20412 21.3322 0.810784 25.3765 4.35605C29.4239 7.90401 29.8178 14.0527 26.2616 18.0976L26.2601 18.0993C23.8897 20.7833 20.3683 21.8505 17.0872 21.2214L15.9013 22.5687C15.7378 22.7544 15.5114 22.8729 15.2657 22.9014L13.0893 23.1535V25.3707C13.0893 25.887 12.6962 26.3185 12.1821 26.3664L10.0192 26.5679L9.82927 29.1494C9.79083 29.6718 9.35578 30.076 8.83196 30.076H2.94263C2.39034 30.076 1.94263 29.6283 1.94263 29.076V23.896C1.94263 23.6528 2.03128 23.4179 2.19199 23.2353L9.68605 14.7213C8.6408 11.5575 9.24869 7.93414 11.6182 5.24121Z" fill="black"/>
<path fill-rule="evenodd" clip-rule="evenodd" d="M11.669 18.2567C12.0795 18.6262 12.1128 19.2585 11.7433 19.669L7.2433 24.669C6.87384 25.0795 6.24155 25.1128 5.83104 24.7433C5.42053 24.3738 5.38726 23.7416 5.75671 23.331L10.2567 18.331C10.6262 17.9205 11.2585 17.8873 11.669 18.2567Z" fill="black"/>
</svg>
