<svg width="32" height="32" viewBox="0 0 32 32" fill="none" xmlns="http://www.w3.org/2000/svg">
<path fill-rule="evenodd" clip-rule="evenodd" d="M13 14C13 13.4477 13.4477 13 14 13H17.8025C19.5721 13 20.9977 14.4433 20.9977 16.2037V20C20.9977 20.187 21.1456 20.3333 21.3295 20.3333H22C22.5523 20.3333 23 20.781 23 21.3333V24C23 24.5523 22.5523 25 22 25H14C13.4477 25 13 24.5523 13 24V21.3333C13 20.781 13.4477 20.3333 14 20.3333H15.0023V18C15.0023 17.813 14.8544 17.6667 14.6705 17.6667H14C13.4477 17.6667 13 17.219 13 16.6667V14ZM18.9979 20.0266C18.9978 20.0208 18.9977 20.0151 18.9977 20.0093V16.2037C18.9977 15.5381 18.4578 15 17.8025 15H15V15.6897C16.1302 15.8493 17.0023 16.8181 17.0023 18V21.3333C17.0023 21.8856 16.5546 22.3333 16.0023 22.3333H15V23H21V22.3103C19.8783 22.1519 19.0108 21.1964 18.9979 20.0266Z" fill="black"/>
<path fill-rule="evenodd" clip-rule="evenodd" d="M14 9.00462C14 7.35955 15.3311 6 17 6C18.6477 6 20 7.32906 20 8.99538C20 10.6405 18.6689 12 17 12C15.3493 12 14 10.6587 14 9.00462ZM17 8C16.4487 8 16 8.45108 16 9.00462C16 9.54916 16.4489 10 17 10C17.5513 10 18 9.54892 18 8.99538C18 8.44461 17.5541 8 17 8Z" fill="black"/>
<path fill-rule="evenodd" clip-rule="evenodd" d="M4 9C4 8.44772 4.44772 8 5 8H9C9.55228 8 10 8.44772 10 9C10 9.55228 9.55228 10 9 10H5C4.44772 10 4 9.55228 4 9Z" fill="black"/>
<path fill-rule="evenodd" clip-rule="evenodd" d="M4 16C4 15.4477 4.44772 15 5 15H9C9.55228 15 10 15.4477 10 16C10 16.5523 9.55228 17 9 17H5C4.44772 17 4 16.5523 4 16Z" fill="black"/>
<path fill-rule="evenodd" clip-rule="evenodd" d="M7 11C7.55228 11 8 11.4477 8 12V16C8 16.5523 7.55228 17 7 17C6.44772 17 6 16.5523 6 16V12C6 11.4477 6.44772 11 7 11Z" fill="black"/>
<path fill-rule="evenodd" clip-rule="evenodd" d="M4 23C4 22.4477 4.44772 22 5 22H9C9.55228 22 10 22.4477 10 23C10 23.5523 9.55228 24 9 24H5C4.44772 24 4 23.5523 4 23Z" fill="black"/>
<path fill-rule="evenodd" clip-rule="evenodd" d="M7 18C7.55228 18 8 18.4477 8 19V22C8 22.5523 7.55228 23 7 23C6.44772 23 6 22.5523 6 22V19C6 18.4477 6.44772 18 7 18Z" fill="black"/>
<path fill-rule="evenodd" clip-rule="evenodd" d="M9.44216 4C8.67297 4 8 4.65611 8 5.496V8.83374C8 9.38603 7.55228 9.83374 7 9.83374C6.44772 9.83374 6 9.38603 6 8.83374V5.496C6 3.59289 7.52751 2 9.44216 2H25.5578C27.4725 2 29 3.59289 29 5.496V26.504C29 28.4071 27.4725 30 25.5578 30H9.44216C7.52751 30 6 28.4071 6 26.504V25.9496C6 25.3973 6.44772 24.9496 7 24.9496C7.55228 24.9496 8 25.3973 8 25.9496V26.504C8 27.3439 8.67297 28 9.44216 28H25.5578C26.327 28 27 27.3439 27 26.504V5.496C27 4.65611 26.327 4 25.5578 4H9.44216Z" fill="black"/>
</svg>
