<svg width="32" height="32" viewBox="0 0 32 32" fill="none" xmlns="http://www.w3.org/2000/svg">
<path fill-rule="evenodd" clip-rule="evenodd" d="M8 4H4V8H8V4ZM4 2C2.89543 2 2 2.89543 2 4V8C2 9.10457 2.89543 10 4 10H8C9.10457 10 10 9.10457 10 8V4C10 2.89543 9.10457 2 8 2H4Z" fill="black"/>
<path fill-rule="evenodd" clip-rule="evenodd" d="M18 4H14V8H18V4ZM14 2C12.8954 2 12 2.89543 12 4V8C12 9.10457 12.8954 10 14 10H18C19.1046 10 20 9.10457 20 8V4C20 2.89543 19.1046 2 18 2H14Z" fill="black"/>
<path fill-rule="evenodd" clip-rule="evenodd" d="M28 4H24V8H28V4ZM24 2C22.8954 2 22 2.89543 22 4V8C22 9.10457 22.8954 10 24 10H28C29.1046 10 30 9.10457 30 8V4C30 2.89543 29.1046 2 28 2H24Z" fill="black"/>
<path fill-rule="evenodd" clip-rule="evenodd" d="M8 14H4V18H8V14ZM4 12C2.89543 12 2 12.8954 2 14V18C2 19.1046 2.89543 20 4 20H8C9.10457 20 10 19.1046 10 18V14C10 12.8954 9.10457 12 8 12H4Z" fill="black"/>
<path fill-rule="evenodd" clip-rule="evenodd" d="M18 14H14V18H18V14ZM14 12C12.8954 12 12 12.8954 12 14V18C12 19.1046 12.8954 20 14 20H18C19.1046 20 20 19.1046 20 18V14C20 12.8954 19.1046 12 18 12H14Z" fill="black"/>
<path fill-rule="evenodd" clip-rule="evenodd" d="M28 14H24V18H28V14ZM24 12C22.8954 12 22 12.8954 22 14V18C22 19.1046 22.8954 20 24 20H28C29.1046 20 30 19.1046 30 18V14C30 12.8954 29.1046 12 28 12H24Z" fill="black"/>
<path fill-rule="evenodd" clip-rule="evenodd" d="M8 24H4V28H8V24ZM4 22C2.89543 22 2 22.8954 2 24V28C2 29.1046 2.89543 30 4 30H8C9.10457 30 10 29.1046 10 28V24C10 22.8954 9.10457 22 8 22H4Z" fill="black"/>
<path fill-rule="evenodd" clip-rule="evenodd" d="M18 24H14V28H18V24ZM14 22C12.8954 22 12 22.8954 12 24V28C12 29.1046 12.8954 30 14 30H18C19.1046 30 20 29.1046 20 28V24C20 22.8954 19.1046 22 18 22H14Z" fill="black"/>
<path fill-rule="evenodd" clip-rule="evenodd" d="M28 24H24V28H28V24ZM24 22C22.8954 22 22 22.8954 22 24V28C22 29.1046 22.8954 30 24 30H28C29.1046 30 30 29.1046 30 28V24C30 22.8954 29.1046 22 28 22H24Z" fill="black"/>
</svg>
