<svg width="32" height="32" viewBox="0 0 32 32" fill="none" xmlns="http://www.w3.org/2000/svg">
<path fill-rule="evenodd" clip-rule="evenodd" d="M2 5C2 3.34315 3.34315 2 5 2H12C13.6569 2 15 3.34315 15 5V12C15 13.6569 13.6569 15 12 15H5C3.34315 15 2 13.6569 2 12V5ZM5 4C4.44772 4 4 4.44772 4 5V12C4 12.5523 4.44772 13 5 13H12C12.5523 13 13 12.5523 13 12V5C13 4.44772 12.5523 4 12 4H5Z" fill="black"/>
<path fill-rule="evenodd" clip-rule="evenodd" d="M2 20C2 18.3431 3.34315 17 5 17H12C13.6569 17 15 18.3431 15 20V27C15 28.6569 13.6569 30 12 30H5C3.34315 30 2 28.6569 2 27V20ZM5 19C4.44772 19 4 19.4477 4 20V27C4 27.5523 4.44772 28 5 28H12C12.5523 28 13 27.5523 13 27V20C13 19.4477 12.5523 19 12 19H5Z" fill="black"/>
<path fill-rule="evenodd" clip-rule="evenodd" d="M17 5C17 3.34315 18.3431 2 20 2H27C28.6569 2 30 3.34315 30 5V12C30 13.6569 28.6569 15 27 15H20C18.3431 15 17 13.6569 17 12V5ZM20 4C19.4477 4 19 4.44772 19 5V12C19 12.5523 19.4477 13 20 13H27C27.5523 13 28 12.5523 28 12V5C28 4.44772 27.5523 4 27 4H20Z" fill="black"/>
<path fill-rule="evenodd" clip-rule="evenodd" d="M17 20C17 18.3431 18.3431 17 20 17H27C28.6569 17 30 18.3431 30 20V27C30 28.6569 28.6569 30 27 30H20C18.3431 30 17 28.6569 17 27V20ZM20 19C19.4477 19 19 19.4477 19 20V27C19 27.5523 19.4477 28 20 28H27C27.5523 28 28 27.5523 28 27V20C28 19.4477 27.5523 19 27 19H20Z" fill="black"/>
</svg>
