<svg width="32" height="32" viewBox="0 0 32 32" fill="none" xmlns="http://www.w3.org/2000/svg">
<path fill-rule="evenodd" clip-rule="evenodd" d="M19.1767 3.95316C18.9788 3.90641 18.8172 3.96637 18.7231 4.06042L3.942 18.8322C3.94375 18.8345 3.94587 18.837 3.94846 18.8395L13.145 28.0454C13.1502 28.0503 13.1552 28.054 13.1596 28.0569L27.9396 13.2769C28.0336 13.1828 28.0936 13.0212 28.0468 12.8233C28.0438 12.8106 28.0411 12.7978 28.0386 12.7849L26.663 5.73989C26.6087 5.54594 26.4541 5.39132 26.2601 5.337L19.2151 3.96145C19.2022 3.95894 19.1894 3.95618 19.1767 3.95316ZM19.6153 2.00182C18.7928 1.81473 17.9191 2.03617 17.3091 2.64598C17.3091 2.64606 17.3092 2.64591 17.3091 2.64598L2.4878 17.458L2.47869 17.4672C1.69868 18.2672 1.79058 19.5097 2.53389 20.2534L11.7366 29.4654L11.7453 29.474C12.4857 30.1972 13.7311 30.3138 14.5325 29.5124L29.3538 14.6911C29.9638 14.0811 30.1853 13.2073 29.9982 12.3847L28.6202 5.32701C28.6171 5.31121 28.6136 5.29549 28.6098 5.27986C28.3809 4.3492 27.6508 3.61909 26.7201 3.39024C26.7045 3.3864 26.6888 3.38293 26.673 3.37985L19.6153 2.00182Z" fill="black"/>
<path fill-rule="evenodd" clip-rule="evenodd" d="M22 8C20.8954 8 20 8.89543 20 10C20 11.1046 20.8954 12 22 12C23.1046 12 24 11.1046 24 10C24 8.89543 23.1046 8 22 8ZM18 10C18 7.79086 19.7909 6 22 6C24.2091 6 26 7.79086 26 10C26 12.2091 24.2091 14 22 14C19.7909 14 18 12.2091 18 10Z" fill="black"/>
</svg>
