<svg width="32" height="32" viewBox="0 0 32 32" fill="none" xmlns="http://www.w3.org/2000/svg">
<g clip-path="url(#clip0_404_2238)">
<rect width="32" height="32" fill="white"/>
<path fill-rule="evenodd" clip-rule="evenodd" d="M0.453388 10.9067C-0.00907761 11.2086 -0.13924 11.8282 0.162661 12.2907L2.40423 15.7244C2.56162 15.9655 2.8153 16.127 3.10033 16.1677C3.38537 16.2084 3.67411 16.1242 3.89265 15.9368L7.13658 13.1543C7.55578 12.7947 7.60412 12.1634 7.24454 11.7442C6.88497 11.325 6.25366 11.2766 5.83446 11.6362L3.4558 13.6765L1.8374 11.1974C1.53549 10.7349 0.915852 10.6048 0.453388 10.9067Z" fill="black"/>
<path fill-rule="evenodd" clip-rule="evenodd" d="M19.3864 2.41348C11.8795 0.549797 4.2833 5.11287 2.41329 12.6128C2.27968 13.1487 2.60578 13.6914 3.14165 13.825C3.67753 13.9586 4.22026 13.6325 4.35388 13.0966C5.95637 6.66965 12.4668 2.75651 18.9042 4.35448C25.3308 5.95712 29.2436 12.4672 27.6456 18.9043C26.0428 25.3311 19.5323 29.2439 13.0951 27.6458C8.69242 26.5478 5.47311 23.1498 4.39276 19.0492C4.25206 18.5151 3.70505 18.1962 3.17099 18.3369C2.63693 18.4776 2.31805 19.0246 2.45875 19.5587C3.71741 24.3361 7.47168 28.305 12.6122 29.5866L12.6132 29.5869C20.1201 31.4506 27.7163 26.8875 29.5863 19.3876L29.5865 19.3866C31.4504 11.8797 26.8873 4.2836 19.3874 2.41372L19.3864 2.41348Z" fill="black"/>
<path fill-rule="evenodd" clip-rule="evenodd" d="M16 9C16.5523 9 17 9.44772 17 10V16C17 16.5523 16.5523 17 16 17C15.4477 17 15 16.5523 15 16V10C15 9.44772 15.4477 9 16 9Z" fill="black"/>
<path fill-rule="evenodd" clip-rule="evenodd" d="M23 16C23 16.5523 22.5523 17 22 17H16C15.4477 17 15 16.5523 15 16C15 15.4477 15.4477 15 16 15H22C22.5523 15 23 15.4477 23 16Z" fill="black"/>
</g>
<defs>
<clipPath id="clip0_404_2238">
<rect width="32" height="32" fill="white"/>
</clipPath>
</defs>
</svg>
