<svg xmlns="http://www.w3.org/2000/svg" width="96" height="96" fill="none" viewBox="0 0 96 96">
  <g class="access-management">
    <g fill-rule="evenodd" class="Icon" clip-rule="evenodd">
      <path fill="#3D3C3C" d="M8.5 46.515C8.5 25.54 25.52 8.5 46.5 8.5c20.981 0 38 17.013 38 37.985 0 3.276-.427 6.44-1.198 9.495a1 1 0 0 0 1.939.49 40.654 40.654 0 0 0 1.259-9.985C86.5 24.407 68.585 6.5 46.5 6.5c-22.086 0-40 17.938-40 40.015 0 22.078 17.915 39.985 40 39.985 3.418 0 6.72-.42 9.875-1.23a1 1 0 0 0-.498-1.938A37.578 37.578 0 0 1 46.5 84.5a37.847 37.847 0 0 1-23.912-8.466L22.5 63.79c-.026-3.988 3.33-7.289 7.6-7.289H56a1 1 0 1 0 0-2H30.1c-5.298 0-9.634 4.125-9.6 9.303l.075 10.48C13.145 67.35 8.5 57.473 8.5 46.515ZM46 20.5c-6.39 0-11.5 4.963-11.5 11s5.11 11 11.5 11 11.5-4.963 11.5-11-5.11-11-11.5-11Zm-13.5 11c0-7.218 6.083-13 13.5-13s13.5 5.782 13.5 13-6.083 13-13.5 13-13.5-5.782-13.5-13Z" class="primary"/>
      <path fill="#FF462D" d="M51.5 69.5c0-9.941 8.059-18 18-18s18 8.059 18 18-8.059 18-18 18-18-8.059-18-18Zm18-20c-11.046 0-20 8.954-20 20s8.954 20 20 20 20-8.954 20-20-8.954-20-20-20Zm9.786 12.619a1 1 0 0 0-1.572-1.238L65.898 75.884l-4.611-5.854a1 1 0 0 0-1.572 1.238l5.397 6.85a1 1 0 0 0 1.571 0l12.604-16Z" class="secondary"/>
    </g>
  </g>
</svg>
