<svg xmlns="http://www.w3.org/2000/svg" width="96" height="96" fill="none" viewBox="0 0 96 96">
  <g class="account">
    <g fill-rule="evenodd" class="Icon" clip-rule="evenodd">
      <path fill="#3D3C3C" d="M86 18H10v60h76V18Zm-76-2a2 2 0 0 0-2 2v60a2 2 0 0 0 2 2h76a2 2 0 0 0 2-2V18a2 2 0 0 0-2-2H10Zm26 28a7 7 0 1 0 0-14 7 7 0 0 0 0 14Zm0 2a9 9 0 1 0 0-18 9 9 0 0 0 0 18ZM21 60.136c-.012-1.396.686-2.664 1.831-3.612A6.746 6.746 0 0 1 27.04 55h18.54c3.062 0 5.444 2.026 5.419 4.82V67H21v-6.864ZM27.04 53c-1.99 0-3.982.742-5.483 1.983-1.504 1.245-2.573 3.048-2.556 5.166V68a1 1 0 0 0 1 1h32a1 1 0 0 0 1-1v-8.167C53.034 55.66 49.463 53 45.58 53H27.04Z" class="primary"/>
      <path fill="#FF462D" d="M56 33a1 1 0 0 1 1-1h20a1 1 0 1 1 0 2H57a1 1 0 0 1-1-1Zm0 9a1 1 0 0 1 1-1h20a1 1 0 1 1 0 2H57a1 1 0 0 1-1-1Zm1 8a1 1 0 1 0 0 2h20a1 1 0 1 0 0-2H57Z" class="secondary"/>
    </g>
  </g>
</svg>
