<svg xmlns="http://www.w3.org/2000/svg" width="96" height="96" fill="none" viewBox="0 0 96 96">
  <g class="Size=L">
    <g class="Icon">
      <path fill="#3D3C3C" d="M37.669 27.057a1 1 0 0 1 .662 1.886C31.22 31.436 26 37.967 26 46c0 4.768 3.22 9.561 6.458 13.023l.3.336c1.455 1.705 2.242 3.822 2.674 5.985.44 2.21.523 4.542.529 6.656h17.05c.174-4.566 2.683-9.853 5.686-13.083a18.175 18.175 0 0 0 2.429-3.403 1 1 0 0 1 1.748.972 20.163 20.163 0 0 1-2.705 3.787l-.007.006C57.324 63.331 55 68.423 55 72.5v10.39c0 1.561-.922 2.863-2.19 3.732-1.27.872-2.973 1.378-4.805 1.378h-7.01c-1.832 0-3.534-.506-4.805-1.378-1.268-.869-2.19-2.17-2.19-3.731v-9.622a.999.999 0 0 1-.038-.269v-.726c0-2.162-.073-4.436-.492-6.539-.42-2.102-1.17-3.956-2.471-5.343l-.001-.001C27.688 56.85 24 51.57 24 46c0-8.956 5.827-16.195 13.669-18.943ZM36 74v8.89c0 .71.419 1.463 1.32 2.082.898.615 2.194 1.028 3.675 1.028h7.01c1.481 0 2.777-.413 3.675-1.028.9-.618 1.32-1.372 1.32-2.082V74H36ZM18.102 41.005a1 1 0 0 1 0 1.99L18 43H9a1 1 0 1 1 0-2h9l.102.005Zm.191-22.712a1 1 0 0 1 1.414 0l6 6 .068.076a1 1 0 0 1-1.406 1.406l-.076-.068-6-6a1 1 0 0 1 0-1.414ZM39 8a1 1 0 0 1 1 1v9a1 1 0 1 1-2 0V9a1 1 0 0 1 1-1Z" class="primary"/>
      <path fill="#FF462D" d="M71.216 8.44a1 1 0 0 1 1.293-.326l8.743 4.583a1 1 0 0 1 .424 1.346l-2.034 3.925a17.23 17.23 0 0 1 2.79 4.596l4.615.22a1 1 0 0 1 .953 1v9.582a1 1 0 0 1-.967 1l-4.253.144a17.327 17.327 0 0 1-1.06 2.444c-.02.038-.045.072-.07.106-.41.744-.866 1.469-1.386 2.148l2.455 4.241a1 1 0 0 1-.374 1.372l-8.96 5.05A1 1 0 0 1 72 49.445l-1.95-3.919c-1.692.33-3.45.402-5.2.17l-2.014 3.759a1 1 0 0 1-1.345.414l-8.825-4.616a1.002 1.002 0 0 1-.417-1.361l2.1-3.887a17.22 17.22 0 0 1-2.759-4.533l-4.256.144a1.002 1.002 0 0 1-1.034-.97l-.3-10c-.016-.55.417-1.01.967-1.029l4.251-.145a16.51 16.51 0 0 1 1.066-2.45c.423-.78.897-1.54 1.44-2.25l-2.23-3.632a1 1 0 0 1 .323-1.372l8.442-5.266a1.003 1.003 0 0 1 1.382.324l2.24 3.643a16.102 16.102 0 0 1 5.27-.183l2.014-3.759.052-.087Zm-.637 5.415a1 1 0 0 1-1.06.512 14.1 14.1 0 0 0-5.878.204 1.001 1.001 0 0 1-1.09-.447l-2.089-3.394-6.746 4.21 2.08 3.387a1 1 0 0 1-.092 1.172c-.626.733-1.172 1.571-1.664 2.478-.476.875-.836 1.811-1.141 2.775a1 1 0 0 1-.92.697l-3.95.133.24 8 3.959-.132a1 1 0 0 1 .972.653 15.232 15.232 0 0 0 3.092 5.084 1 1 0 0 1 .147 1.155l-1.95 3.607 7.05 3.689 1.881-3.51.087-.135a1 1 0 0 1 .973-.377c1.968.357 3.974.264 5.878-.204l.17-.026a1 1 0 0 1 .964.551l1.828 3.674 7.162-4.036-2.291-3.958a1 1 0 0 1 .104-1.15c.626-.733 1.172-1.57 1.665-2.478.01-.02.025-.04.038-.06.458-.873.808-1.768 1.102-2.698a1 1 0 0 1 .92-.697L86 32.4v-7.663l-4.31-.204a1 1 0 0 1-.89-.652 15.232 15.232 0 0 0-3.093-5.084 1 1 0 0 1-.155-1.139l1.89-3.651-6.983-3.66-1.88 3.51ZM66.999 20c4.969 0 9 4.032 9 9s-4.031 9-9 9c-4.968 0-9-4.032-9-9s4.032-9 9-9Zm0 2c-3.863 0-7 3.136-7 7 0 3.863 3.137 7 7 7 3.864 0 7-3.136 7-7s-3.136-7-7-7Z" class="secondary"/>
    </g>
  </g>
</svg>
