<svg xmlns="http://www.w3.org/2000/svg" width="96" height="96" fill="none" viewBox="0 0 96 96">
  <g class="AIOps">
    <g fill-rule="evenodd" class="Icon" clip-rule="evenodd">
      <path fill="#3D3C3C" d="M27 32.095C27 19.859 36.604 10 48.396 10c9.834 0 18.212 6.64 20.623 17.194-2.48.375-4.461 1.262-6.065 2.378a1 1 0 1 0 1.142 1.642C65.908 29.954 68.327 29 71.684 29c3.637 0 7.219 1.738 9.906 4.507C84.276 36.273 86 40 86 43.872c0 3.285-.013 5.502-1.886 8.325a1 1 0 0 0 1.667 1.106C88 49.958 88 47.205 88 43.93v-.058c0-4.463-1.98-8.672-4.975-11.758C80.032 29.03 75.955 27 71.684 27c-.231 0-.46.004-.684.012a.992.992 0 0 0-.025-.234C68.377 15.348 59.223 8 48.396 8 35.442 8 25 18.813 25 32.095v1c-2.7-.516-4.914-.317-7.028.49C11.923 35.898 8 41.538 8 47.558c0 6.377 3.928 11.936 9.607 14.362a1 1 0 1 0 .786-1.84C13.41 57.953 10 53.093 10 47.558c0-5.148 3.371-10.072 8.686-12.105l1.148-.362c1.562-.388 3.28-.392 5.442.105a.972.972 0 0 0 .05.01l2.158.38a1 1 0 0 0 .347-1.969L27 33.471v-1.376Zm-7.166 2.996a9.992 9.992 0 0 0-1.148.362l1.148-.362ZM31 42a2 2 0 0 0-2 2v42a2 2 0 0 0 2 2h51a2 2 0 0 0 2-2V62.321a2 2 0 0 0-2.543-1.925L61 66.168V44a2 2 0 0 0-2-2H31Zm0 34v10h28V76H31Zm28-2H31V60h28v14Zm2 1v11h21V62.321l-21 5.925V75ZM31 58h28V44H31v14Z" class="primary"/>
      <path fill="#FF462D" d="M36 50a1 1 0 1 0 0 2h6a1 1 0 1 0 0-2h-6Zm0 16a1 1 0 1 0 0 2h6a1 1 0 1 0 0-2h-6Z" class="secondary"/>
    </g>
  </g>
</svg>
