<svg xmlns="http://www.w3.org/2000/svg" width="98" height="96" fill="none" viewBox="0 0 98 96">
  <g class="analytics">
    <g fill-rule="evenodd" class="Icon" clip-rule="evenodd">
      <path fill="#3D3C3C" d="M9.75 8a1 1 0 0 1 1 1v72c0 2.756 2.255 5 5.077 5H88.25a1 1 0 1 1 0 2H15.827c-3.903 0-7.077-3.116-7.077-7V9a1 1 0 0 1 1-1Z" class="primary"/>
      <path fill="#FF462D" d="m79.933 15.194-13.008 2.31a1 1 0 1 1-.35-1.97l14.05-2.495h.002c1.37-.248 2.703.715 2.834 2.13l1.285 13.738a1 1 0 0 1-1.992.186l-1.19-12.738-21.88 33.785v.002c-.801 1.245-2.504 1.503-3.618.502l-.002-.002-15.58-14.06-.002-.002c-.956-.867-2.473-.497-2.921.838l-.001.003-12.863 37.9a1 1 0 1 1-1.894-.642l12.862-37.897v-.002c.883-2.623 4.076-3.572 6.16-1.681h.001l15.576 14.057c.178.159.45.137.6-.096l.001-.004 21.93-33.862Z" class="secondary"/>
    </g>
  </g>
</svg>
