<svg xmlns="http://www.w3.org/2000/svg" width="96" height="96" fill="none" viewBox="0 0 96 96">
  <g fill-rule="evenodd" class="anomaly" clip-rule="evenodd">
    <path fill="#FF462D" d="M44.189 25a1 1 0 0 1 .902.645L52.815 46H67a1 1 0 1 1 0 2H52.125a1 1 0 0 1-.935-.645l-7.118-18.758-8.568 18.817a1 1 0 0 1-.91.586H16a1 1 0 1 1 0-2h17.95l9.296-20.414A1 1 0 0 1 44.19 25Z" class="secondary"/>
    <path fill="#3D3C3C" d="M10 42c0-17.673 14.327-32 32-32 17.673 0 32 14.327 32 32 0 17.673-14.327 32-32 32-17.673 0-32-14.327-32-32ZM42 8C23.222 8 8 23.222 8 42s15.222 34 34 34a33.876 33.876 0 0 0 22.804-8.781l21.489 21.488a1 1 0 0 0 1.414-1.414l-21.46-21.46C72.28 59.699 76 51.284 76 42 76 23.222 60.778 8 42 8Z" class="primary"/>
  </g>
</svg>
