<svg xmlns="http://www.w3.org/2000/svg" width="96" height="96" fill="none" viewBox="0 0 96 96">
  <g class="applications-data-&amp;-Ai">
    <g fill-rule="evenodd" class="Icon" clip-rule="evenodd">
      <path fill="#3D3C3C" d="M24 13.5a3.5 3.5 0 1 1 7 0 3.5 3.5 0 0 1-7 0ZM27.5 8a5.5 5.5 0 1 0 3.122 10.029L36 23.287V29a1 1 0 1 0 2 0v-6.134a1 1 0 0 0-.3-.715l-5.665-5.538A5.5 5.5 0 0 0 27.5 8Zm36.465 8.613a5.5 5.5 0 1 1 1.413 1.416L60 23.287V29a1 1 0 1 1-2 0v-6.134a1 1 0 0 1 .3-.715l5.665-5.538ZM72 13.5a3.5 3.5 0 1 0-7 0 3.5 3.5 0 0 0 7 0ZM18.029 31.622a5.5 5.5 0 1 0-1.416 1.413l5.534 5.664a1 1 0 0 0 .715.301H29a1 1 0 1 0 0-2h-5.717l-5.254-5.378ZM10 28.5a3.5 3.5 0 1 1 7 0 3.5 3.5 0 0 1-7 0Zm12.208 29.74a1 1 0 0 1 .65-.24H29a1 1 0 1 1 0 2h-5.774l-5.172 4.415a5.5 5.5 0 1 1-1.408-1.427l5.562-4.749ZM10 67.5a3.5 3.5 0 1 1 7 0 3.5 3.5 0 0 1-7 0Zm56.317-8.72a1 1 0 0 1 1-1h6.088a1 1 0 0 1 .69.277l5.21 4.965a5.5 5.5 0 1 1-1.39 1.438l-4.91-4.68h-5.688a1 1 0 0 1-1-1ZM79 67.5a3.5 3.5 0 1 1 7 0 3.5 3.5 0 0 1-7 0Zm-1.029-35.878L72.721 37H67a1 1 0 1 0 0 2h6.143a1 1 0 0 0 .715-.301l5.53-5.664a5.5 5.5 0 1 0-1.416-1.413ZM79 28.5a3.5 3.5 0 1 1 7 0 3.5 3.5 0 0 1-7 0ZM37 67a1 1 0 0 1 1 1v6.139a1 1 0 0 1-.302.716l-5.291 5.158a5.5 5.5 0 1 1-1.225-1.599L36 73.717V68a1 1 0 0 1 1-1ZM24 82.5a3.5 3.5 0 1 1 7 0 3.5 3.5 0 0 1-7 0ZM59 67a1 1 0 0 1 1 1v5.717l4.818 4.697a5.5 5.5 0 1 1-1.225 1.599l-5.291-5.158a1 1 0 0 1-.302-.716V68a1 1 0 0 1 1-1Zm6 15.5a3.5 3.5 0 1 1 7 0 3.5 3.5 0 0 1-7 0Z" class="primary"/>
      <path fill="#FF462D" d="M33.695 30C31.668 30 30 31.672 30 33.766v28.468C30 64.328 31.668 66 33.695 66h28.61C64.332 66 66 64.328 66 62.234V33.766C66 31.672 64.332 30 62.305 30h-28.61ZM28 33.766C28 30.596 30.535 28 33.695 28h28.61C65.465 28 68 30.596 68 33.766v28.468C68 65.404 65.465 68 62.305 68h-28.61C30.535 68 28 65.404 28 62.234V33.766Z" class="secondary"/>
    </g>
  </g>
</svg>
