<svg xmlns="http://www.w3.org/2000/svg" width="96" height="96" fill="none" viewBox="0 0 96 96">
  <g fill-rule="evenodd" class="approval-policy" clip-rule="evenodd">
    <path fill="#3D3C3C" d="M49.702 8.429c13.442 6.974 25.774 10.822 30.5 12.147l.012.004c1.582.464 2.786 1.803 2.786 3.466v33.392c0 3.952-1.846 7.668-4.563 11.006-2.721 3.342-6.383 6.389-10.182 9.025-7.6 5.272-15.907 9.007-18.8 10.242l-.018.007a3.807 3.807 0 0 1-2.874 0l-.016-.006c-2.91-1.236-11.217-4.971-18.813-10.244-3.797-2.635-7.456-5.682-10.175-9.025C14.844 65.106 13 61.39 13 57.438V24.074c0-1.647 1.188-3.03 2.799-3.47 4.739-1.357 17.093-5.177 30.47-12.174a3.647 3.647 0 0 1 3.433-.001Zm-.941 1.765a1.647 1.647 0 0 0-1.55 0l-.01.005H47.2c-13.552 7.09-26.058 10.956-30.857 12.33l-.014.003c-.855.232-1.329.907-1.329 1.542v33.364c0 3.316 1.551 6.597 4.11 9.743 2.556 3.142 6.049 6.065 9.765 8.644 7.422 5.152 15.574 8.823 18.444 10.042.444.177.917.177 1.36 0 2.86-1.22 11.01-4.89 18.436-10.042 3.718-2.58 7.213-5.503 9.77-8.644C79.448 64.035 81 60.754 81 57.438V24.046c0-.62-.46-1.284-1.344-1.546-4.811-1.35-17.281-5.242-30.882-12.3l-.014-.006Z" class="primary"/>
    <path fill="#FF462D" d="M62.7 37.286a1 1 0 0 1 .014 1.414l-19.595 20a1 1 0 0 1-1.428 0l-8.405-8.579a1 1 0 1 1 1.428-1.4l7.691 7.85 18.88-19.27a1 1 0 0 1 1.415-.015Z" class="secondary"/>
  </g>
</svg>
