<svg xmlns="http://www.w3.org/2000/svg" width="96" height="96" fill="none" viewBox="0 0 96 96">
  <g class="Size=L">
    <g fill-rule="evenodd" class="Icon" clip-rule="evenodd">
      <g fill="#474747" class="primary">
        <path d="M8.474 51.15a1 1 0 0 1 .973-.044l19 9.5A1 1 0 0 1 29 61.5V86a1 1 0 0 1-1.453.891l-19-9.675a1 1 0 0 1-.547-.89V52a1 1 0 0 1 .474-.85ZM10 53.617v22.094l17 8.657v-22.25l-17-8.5Z"/>
        <path d="M48.533 51.154A1 1 0 0 1 49 52v24.5a1 1 0 0 1-.57.903l-20 9.5a1 1 0 0 1-.859-1.806l19.43-9.23V53.59l-17.616 8.457a1 1 0 1 1-.865-1.803l19.047-9.145a1 1 0 0 1 .966.056Z"/>
        <path d="M27.553 41.106a1 1 0 0 1 .894 0l20 10a1 1 0 1 1-.894 1.788L28 43.118 9.447 52.394a1 1 0 1 1-.894-1.788l19-9.5Z"/>
        <path d="M47.108 51.55a1 1 0 0 1 1.343-.443l20 10.102a1 1 0 0 1 .55.892V86a1 1 0 0 1-1.424.906l-20-9.342a1 1 0 1 1 .846-1.812L67 84.43V62.717l-19.45-9.824a1 1 0 0 1-.442-1.344Z"/>
        <path d="M87.52 51.146A1 1 0 0 1 88 52v24.863a1 1 0 0 1-.566.9l-19 9.138a1 1 0 1 1-.867-1.802L86 76.234v-22.59l-17.54 9.089a1 1 0 0 1-.92-1.776l19-9.845a1 1 0 0 1 .98.034Z"/>
        <path d="M67.571 41.597a1 1 0 0 1 .857 0l19 9a1 1 0 1 1-.856 1.807l-18.571-8.797-19.572 9.296a1 1 0 0 1-.858-1.806l20-9.5Z"/>
        <path d="M27.44 17.172a1 1 0 0 1 .932-.1l20 8A1 1 0 0 1 49 26v25a1 1 0 1 1-2 0V26.677l-18-7.2V42a1 1 0 1 1-2 0V18a1 1 0 0 1 .44-.828Z"/>
        <path d="M68.56 17.172A1 1 0 0 1 69 18v24a1 1 0 1 1-2 0V19.477l-18.628 7.451a1 1 0 0 1-.743-1.857l20-8a1 1 0 0 1 .932.1Z"/>
        <path d="M47.629 9.072a1 1 0 0 1 .743 0l20 8a1 1 0 0 1-.743 1.857L48 11.076l-19.628 7.851a1 1 0 0 1-.743-1.857l20-8Z"/>
      </g>
      <path fill="#FF462D" d="M53.377 15.927a1 1 0 0 0-.753-1.853l-16 6.5a1 1 0 0 0-.592 1.176c-.02.08-.032.164-.032.25v11a1 1 0 0 0 2 0V22.173l15.377-6.246ZM31.96 49.388a1 1 0 1 0-.92-1.776l-14.483 7.491a1 1 0 0 0-.557.92V67a1 1 0 0 0 2 0V56.609l13.96-7.22Z" class="secondary"/>
    </g>
  </g>
</svg>
