<svg xmlns="http://www.w3.org/2000/svg" width="96" height="96" fill="none" viewBox="0 0 96 96">
  <g class="box-empty">
    <g class="Icon">
      <path fill="#FF462D" d="M77.213 34.096a1 1 0 0 1 1.263.354l9.36 14.223a1 1 0 0 1-.321 1.407l-29.64 17.777a1 1 0 0 1-1.35-.307l-9.36-14.223a1 1 0 0 1 .32-1.407l29.641-17.777.087-.047ZM49.408 53.1l8.26 12.548L85.591 48.9l-8.26-12.55L49.408 53.1Z" class="secondary"/>
      <path fill="#3D3C3C" d="M78 61a1 1 0 0 1 1 1v8.802a1 1 0 0 1-.525.88L48.498 87.865l-.031.018-.035.016-.052.025-.01.002a.967.967 0 0 1-.127.041l-.045.011-.018.003c-.026.005-.052.01-.079.013-.02.002-.04.001-.06.002l-.037.002h-.007l-.04-.002a.985.985 0 0 1-.156-.018c-.008-.001-.015-.004-.022-.006-.025-.005-.05-.01-.074-.018a.913.913 0 0 1-.071-.026l-.014-.004a1.065 1.065 0 0 1-.089-.042l-.021-.012-29.986-16.19A1 1 0 0 1 17 70.8V62a1 1 0 0 1 2 0v8.204l28 15.119V73a1 1 0 0 1 2 0v12.323l28-15.12V62a1 1 0 0 1 1-1ZM56.702 8.247a1 1 0 0 1 1.096-.147l29.64 14.446a1 1 0 0 1 .34 1.528L78.416 35.63a1 1 0 0 1-1.215.27L48 21.666 20.455 35.09l28.06 16.829a1 1 0 0 1 .32 1.407l-9.36 14.223a1 1 0 0 1-1.35.307L8.486 50.08a1.001 1.001 0 0 1-.32-1.407l8.957-13.613-8.9-10.986a1.002 1.002 0 0 1 .34-1.528L38.201 8.1l.16-.061c.38-.11.798.015 1.055.33L48 18.967 56.583 8.37l.119-.123ZM10.408 48.9l27.923 16.748L46.59 53.1 18.668 36.35l-8.26 12.55Zm.16-25.108 8.068 9.96L46.43 20.207l-8.067-9.96-27.795 13.545Zm39-3.585 27.795 13.545 8.067-9.96-27.795-13.545-8.067 9.96Z" class="primary"/>
    </g>
  </g>
</svg>
