<svg xmlns="http://www.w3.org/2000/svg" width="96" height="96" fill="none" viewBox="0 0 96 96">
  <g fill-rule="evenodd" class="calendar" clip-rule="evenodd">
    <path fill="#3D3C3C" d="M35 8a1 1 0 0 1 1 1v5h23V9a1 1 0 1 1 2 0v12a1 1 0 1 1-2 0v-5H36v5a1 1 0 1 1-2 0V9a1 1 0 0 1 1-1ZM10 34v-8.42c0-4.243 3.226-7.58 7.1-7.58h6.268a1 1 0 1 0 0-2H17.1C12.014 16 8 20.343 8 25.58v53.793C8 84.181 12.125 88 17.102 88h61.796C83.873 88 88 84.203 88 79.373V25.58c0-5.237-4.014-9.58-9.1-9.58h-6.268a1 1 0 1 0 0 2H78.9c3.874 0 7.1 3.337 7.1 7.58V34H10Zm76 2H10v43.373C10 82.967 13.117 86 17.102 86h61.796C82.885 86 86 82.986 86 79.373V36Z" class="primary"/>
    <path fill="#FF462D" d="M20.486 44h1.028c.82 0 1.486.618 1.486 1.38v1.24c0 .762-.665 1.38-1.486 1.38h-1.028c-.82 0-1.486-.618-1.486-1.38v-1.24c0-.762.665-1.38 1.486-1.38Zm0 14h1.028c.82 0 1.486.618 1.486 1.38v1.24c0 .762-.665 1.38-1.486 1.38h-1.028c-.82 0-1.486-.618-1.486-1.38v-1.24c0-.762.665-1.38 1.486-1.38Zm1.028 14h-1.028c-.82 0-1.486.618-1.486 1.38v1.24c0 .762.665 1.38 1.486 1.38h1.028c.82 0 1.486-.618 1.486-1.38v-1.24c0-.762-.665-1.38-1.486-1.38Zm16.972-28h1.028c.82 0 1.486.618 1.486 1.38v1.24c0 .762-.665 1.38-1.486 1.38h-1.028c-.82 0-1.486-.618-1.486-1.38v-1.24c0-.762.665-1.38 1.486-1.38Zm1.028 14h-1.028c-.82 0-1.486.618-1.486 1.38v1.24c0 .762.665 1.38 1.486 1.38h1.028c.82 0 1.486-.618 1.486-1.38v-1.24c0-.762-.665-1.38-1.486-1.38Zm-1.028 14h1.028c.82 0 1.486.618 1.486 1.38v1.24c0 .762-.665 1.38-1.486 1.38h-1.028c-.82 0-1.486-.618-1.486-1.38v-1.24c0-.762.665-1.38 1.486-1.38Zm19.028-28h-1.028c-.82 0-1.486.618-1.486 1.38v1.24c0 .762.665 1.38 1.486 1.38h1.028c.82 0 1.486-.618 1.486-1.38v-1.24c0-.762-.665-1.38-1.486-1.38Zm-1.028 14h1.028c.82 0 1.486.618 1.486 1.38v1.24c0 .762-.665 1.38-1.486 1.38h-1.028c-.82 0-1.486-.618-1.486-1.38v-1.24c0-.762.665-1.38 1.486-1.38Zm1.028 14h-1.028c-.82 0-1.486.618-1.486 1.38v1.24c0 .762.665 1.38 1.486 1.38h1.028c.82 0 1.486-.618 1.486-1.38v-1.24c0-.762-.665-1.38-1.486-1.38Zm16.972-28h1.028c.82 0 1.486.618 1.486 1.38v1.24c0 .762-.665 1.38-1.486 1.38h-1.028c-.82 0-1.486-.618-1.486-1.38v-1.24c0-.762.665-1.38 1.486-1.38Zm1.028 14h-1.028c-.82 0-1.486.618-1.486 1.38v1.24c0 .762.665 1.38 1.486 1.38h1.028c.82 0 1.486-.618 1.486-1.38v-1.24c0-.762-.665-1.38-1.486-1.38Zm-1.028 14h1.028c.82 0 1.486.618 1.486 1.38v1.24c0 .762-.665 1.38-1.486 1.38h-1.028c-.82 0-1.486-.618-1.486-1.38v-1.24c0-.762.665-1.38 1.486-1.38Z" class="secondary"/>
  </g>
</svg>
