<svg xmlns="http://www.w3.org/2000/svg" width="96" height="96" fill="none" viewBox="0 0 96 96">
  <g fill-rule="evenodd" class="catalog-management" clip-rule="evenodd">
    <path fill="#3D3C3C" d="M23 8a1 1 0 1 0 0 2h51.234C77.954 10 81 13.019 81 16.645V81a1 1 0 1 0 2 0V16.645C83 11.885 79.028 8 74.234 8H23Zm1.163 12C21.381 20 19 22.437 19 25.533V35h4a1 1 0 1 1 0 2H13a1 1 0 1 1 0-2h4v-9.467C17 21.443 20.17 18 24.163 18h40.674C68.83 18 72 21.443 72 25.533v54.934C72 84.557 68.83 88 64.837 88H24.163C20.301 88 17 85.302 17 81.082a1 1 0 0 1 2 0C19 84.048 21.25 86 24.163 86h40.674C67.618 86 70 83.563 70 80.467V25.533C70 22.437 67.618 20 64.837 20H24.163ZM12 53a1 1 0 0 1 1-1h4v-7a1 1 0 1 1 2 0v7h4a1 1 0 1 1 0 2H13a1 1 0 0 1-1-1Zm0 19a1 1 0 0 1 1-1h4v-9a1 1 0 1 1 2 0v9h4a1 1 0 1 1 0 2H13a1 1 0 0 1-1-1Z" class="primary"/>
    <path fill="#FF462D" d="M33 36a1 1 0 0 1 1-1h22a1 1 0 1 1 0 2H34a1 1 0 0 1-1-1Zm0 12a1 1 0 0 1 1-1h22a1 1 0 1 1 0 2H34a1 1 0 0 1-1-1Zm1 11a1 1 0 1 0 0 2h22a1 1 0 1 0 0-2H34Z" class="secondary"/>
  </g>
</svg>
