<svg xmlns="http://www.w3.org/2000/svg" width="96" height="96" fill="none" viewBox="0 0 96 96">
  <g class="Size=L">
    <g class="Icon">
      <path fill="#FF462D" d="M81.05 18.002c.02 0 .04.002.06.004l.043.007c.02.003.04.005.06.01l.028.007c.018.005.036.008.054.014l.023.008.018.007c.025.008.05.018.073.029l.013.006a.987.987 0 0 1 .078.04l.015.01c.023.014.047.029.07.045l.019.015c.02.015.038.03.057.047l.013.01.012.014.029.026.02.023.012.012.035.04.016.022c.01.013.018.026.027.04a.58.58 0 0 1 .034.052l.014.026a.973.973 0 0 1 .08.184.668.668 0 0 1 .017.064l.01.047c.004.015.006.031.008.047l.006.045a.948.948 0 0 1 .004.068L82 19v10a1 1 0 1 1-2 0v-7.486C74.791 27.44 68.785 38.187 68.07 53.27c-.262 5.53-1.345 9.782-2.901 12.583-1.533 2.76-3.74 4.41-6.219 3.842-2.34-.536-4.305-2.959-5.688-6.692-1.41-3.806-2.335-9.266-2.398-16.45v-.008c0-5.979-1.207-10.096-2.89-12.563-1.66-2.431-3.737-3.228-5.718-2.826-2.055.418-4.3 2.185-6.057 5.516-1.746 3.312-2.949 8.075-2.949 14.225 0 12.775-4.152 19.149-8.546 22.273a15.458 15.458 0 0 1-5.973 2.57c-.815.16-1.498.223-1.984.247a9.935 9.935 0 0 1-.784.007h-.023c0-.001 0-.024.059-.975l-.06.974a1 1 0 1 1 .144-1.996l.11.003c.1.001.255 0 .456-.01.403-.02.99-.075 1.698-.214a13.459 13.459 0 0 0 5.199-2.236c3.73-2.652 7.704-8.329 7.704-20.644 0-6.395 1.249-11.494 3.18-15.157 1.92-3.643 4.58-5.964 7.427-6.543 2.923-.594 5.75.703 7.768 3.66 1.993 2.92 3.238 7.483 3.24 13.68l.02 1.299c.156 6.39 1.03 11.176 2.252 14.473 1.33 3.588 2.958 5.14 4.26 5.438 1.162.266 2.648-.387 4.024-2.864 1.353-2.435 2.397-6.35 2.651-11.707.736-15.531 6.91-26.687 12.389-32.94l-8.37.766a1 1 0 0 1-.182-1.992l11-1.005a.802.802 0 0 1 .07-.003L81.01 18h.003l.037.002Z" class="secondary"/>
      <path fill="#3D3C3C" d="M10 11a1 1 0 1 1 2 0v72h72l.103.005a1 1 0 0 1 0 1.99L84 85H11a1 1 0 0 1-1-1V11Z" class="primary"/>
    </g>
  </g>
</svg>
