<svg xmlns="http://www.w3.org/2000/svg" width="96" height="96" fill="none" viewBox="0 0 96 96">
  <g class="Size=L">
    <g class="Icon">
      <path fill="#3D3C3C" d="M47.994 8c22.088 0 39.993 17.906 39.993 39.994S70.082 87.987 47.994 87.987 8 70.082 8 47.994c0-7.76 2.212-15.005 6.038-21.138a1 1 0 0 1 .383-.602C21.549 15.268 33.923 8 47.994 8Zm0 2c-13.131 0-24.707 6.662-31.531 16.79l14.08 8.978c3.794-5.436 10.095-8.99 17.232-8.99 11.605 0 20.997 9.393 20.997 20.997s-9.393 20.996-20.997 20.997a20.916 20.916 0 0 1-13.498-4.91v.001L22.334 76.012c6.76 6.194 15.768 9.975 25.66 9.975 20.983 0 37.993-17.01 37.993-37.993S68.977 10 47.994 10ZM15.391 28.479A37.815 37.815 0 0 0 10 47.993c0 10.372 4.159 19.771 10.896 26.627l11.912-12.116a20.927 20.927 0 0 1-6.03-14.73c0-3.75.981-7.268 2.7-10.314l-14.087-8.982Zm32.384.3c-10.5 0-18.997 8.497-18.997 18.996 0 10.5 8.498 18.997 18.997 18.997 10.5 0 18.996-8.497 18.997-18.997 0-10.5-8.497-18.996-18.997-18.997Z" class="primary"/>
      <path fill="#FF462D" d="M75.574 19.565c.3-.04.617.054.847.286C83.578 27.078 88 37.023 88 48c0 22.092-17.909 40-40 40a1 1 0 0 1-.995-.897L47 87V68.222c0-.077.008-.153.025-.225a1 1 0 0 1 .956-1.226c10.47-.196 18.828-8.313 18.828-19.11 0-5.844-2.283-9.509-5.307-13.182a1 1 0 0 1-.081-1.495l13.32-13.14a.997.997 0 0 1 .833-.279ZM63.489 33.753c2.956 3.685 5.32 7.707 5.32 13.909 0 11.579-8.743 20.379-19.81 21.07v17.254C69.525 85.456 86 68.652 86 48c0-10.136-3.968-19.342-10.436-26.156L63.49 33.753Z" class="secondary"/>
    </g>
  </g>
</svg>
