<svg xmlns="http://www.w3.org/2000/svg" width="96" height="96" fill="none" viewBox="0 0 96 96">
  <g class="Size=L">
    <g class="Icon">
      <path fill="#3D3C3C" d="M44.309 67.328c3.96-1.505 8.011-1.617 11.813-.904C63.466 67.8 69.983 72.272 73.442 76H81v-5a1 1 0 1 1 2 0v12a1 1 0 1 1-2 0v-5h-7.559c-3.459 3.728-9.976 8.2-17.319 9.576A24.724 24.724 0 0 1 53 87.96V88h-2v-.01a20.512 20.512 0 0 1-6.691-1.318C40.463 85.21 36.765 82.46 33.489 78H14v5a1 1 0 1 1-2 0V71a1 1 0 1 1 2 0v5h19.49c3.275-4.46 6.973-7.21 10.819-8.672Zm6.691.684a18.51 18.51 0 0 0-5.98 1.186c-3.393 1.289-6.742 3.725-9.782 7.802 3.04 4.077 6.39 6.513 9.782 7.802A18.51 18.51 0 0 0 51 85.987V68.012Zm2 17.944a22.795 22.795 0 0 0 2.753-.346c6.622-1.24 12.586-5.219 15.882-8.611-3.296-3.392-9.26-7.368-15.882-8.61A22.776 22.776 0 0 0 53 68.044v17.913ZM13 41a1 1 0 0 1 1 1v5h8a1 1 0 1 1 0 2h-8v5a1 1 0 1 1-2 0V42a1 1 0 0 1 1-1Zm69 0a1 1 0 0 1 1 1v12a1 1 0 1 1-2 0v-5H61a1 1 0 1 1 0-2h20v-5a1 1 0 0 1 1-1ZM44.309 9.328c3.96-1.504 8.011-1.617 11.813-.904C63.466 9.8 69.983 14.272 73.442 18H81v-5a1 1 0 1 1 2 0v12a1 1 0 1 1-2 0v-5h-7.559c-3.459 3.728-9.976 8.2-17.319 9.576-3.802.713-7.853.6-11.813-.904-3.846-1.461-7.544-4.212-10.82-8.672H14v5a1 1 0 1 1-2 0V13a1 1 0 1 1 2 0v5h19.49c3.275-4.46 6.973-7.21 10.819-8.672Zm6.691.684a18.51 18.51 0 0 0-5.98 1.186c-3.393 1.289-6.742 3.725-9.782 7.802 3.04 4.077 6.39 6.513 9.782 7.802A18.51 18.51 0 0 0 51 27.987V10.012Zm2 17.944a22.795 22.795 0 0 0 2.753-.346c6.622-1.24 12.586-5.219 15.882-8.611-3.296-3.392-9.26-7.368-15.882-8.61A22.776 22.776 0 0 0 53 10.044v17.913Z" class="primary"/>
      <path fill="#FF462D" d="M32.309 38.328c3.96-1.504 8.012-1.617 11.813-.904 7.565 1.418 14.254 6.12 17.625 9.91a1 1 0 0 1 0 1.33c-3.371 3.79-10.06 8.494-17.625 9.912-3.801.713-7.853.6-11.813-.904-3.965-1.507-7.774-4.384-11.123-9.092a1 1 0 0 1 0-1.16c3.35-4.708 7.157-7.585 11.123-9.092ZM40 56.994a22.274 22.274 0 0 0 3.753-.384c6.621-1.24 12.586-5.22 15.882-8.61-3.296-3.392-9.26-7.369-15.882-8.61A22.275 22.275 0 0 0 40 39.006v17.99Zm-2-17.92c-1.666.141-3.336.5-4.98 1.124-3.393 1.289-6.742 3.725-9.782 7.802 3.04 4.077 6.39 6.513 9.782 7.802A18.35 18.35 0 0 0 38 56.926V39.073Z" class="secondary"/>
    </g>
  </g>
</svg>
