<svg xmlns="http://www.w3.org/2000/svg" width="96" height="96" fill="none" viewBox="0 0 96 96">
  <g class="chart-bubble">
    <g class="Icon">
      <path fill="#FF462D" d="M65.001 60a7 7 0 1 1 0 14 7 7 0 0 1 0-14Zm0 2a5 5 0 1 0 0 10 5 5 0 0 0 0-10Zm-4-48c9.39 0 17 7.611 17 17 0 9.39-7.61 17-17 17-9.388 0-17-7.61-17-17 0-9.389 7.612-17 17-17Zm0 2c-8.284 0-15 6.716-15 15 0 8.285 6.716 15 15 15 8.285 0 15-6.715 15-15 0-8.284-6.715-15-15-15Z" class="secondary"/>
      <path fill="#3D3C3C" d="M11.002 10a1 1 0 0 1 1 1v72h72a1 1 0 0 1 0 2h-73a1 1 0 0 1-1-1V11a1 1 0 0 1 1-1Zm23.5 38c8.008 0 14.5 6.492 14.5 14.5S42.51 77 34.502 77c-8.009 0-14.5-6.492-14.5-14.5s6.49-14.5 14.5-14.5Zm0 2c-6.904 0-12.5 5.597-12.5 12.5 0 6.904 5.596 12.5 12.5 12.5 6.903 0 12.5-5.596 12.5-12.5 0-6.903-5.597-12.5-12.5-12.5Zm-8.5-26a7 7 0 1 1 0 14 7 7 0 0 1 0-14Zm0 2a5 5 0 1 0 0 10 5 5 0 0 0 0-10Z" class="primary"/>
    </g>
  </g>
</svg>
