<svg xmlns="http://www.w3.org/2000/svg" width="96" height="96" fill="none" viewBox="0 0 96 96">
  <g class="Size=L">
    <g class="Icon">
      <path fill="#3D3C3C" d="M48 27c22.009 0 40 16.48 40 37a1 1 0 0 1-1 1H68.225a1 1 0 0 1-1-1c0-9.693-8.53-17.667-19.225-17.667-10.696 0-19.225 7.974-19.225 17.667a1 1 0 0 1-1 1H9a1 1 0 0 1-1-1c0-20.52 17.991-37 40-37ZM16.293 44.706C12.501 49.984 10.223 56.26 10.017 63h16.786c.146-2.727.89-5.3 2.106-7.613L16.355 44.764l-.062-.058Zm63.352.058L67.09 55.387A18.425 18.425 0 0 1 69.197 63h16.786c-.205-6.74-2.485-13.015-6.277-18.294-.02.02-.039.04-.06.058ZM49 44a.996.996 0 0 1-.065.352c7.202.29 13.518 3.916 17.118 9.293l12.302-10.409a1.01 1.01 0 0 1 .15-.104C71.776 34.796 61.113 29.299 49 29.012V44Zm-2-14.988c-12.113.287-22.777 5.783-29.506 14.119.024.014.047.028.07.044l.081.061 12.301 10.409c3.6-5.377 9.916-9.003 17.119-9.293A.996.996 0 0 1 47 44V29.012Z" class="primary"/>
      <path fill="#FF462D" d="M61.168 41.445a1 1 0 0 1 1.664 1.11L50.98 60.332a4 4 0 1 1-1.664-1.11l11.852-17.777Z" class="secondary"/>
    </g>
  </g>
</svg>
