<svg xmlns="http://www.w3.org/2000/svg" width="96" height="96" fill="none" viewBox="0 0 96 96">
  <g class="Size=L">
    <g class="Icon">
      <path fill="#3D3C3C" d="M41 8a5 5 0 0 1 5 5v70a5 5 0 0 1-5 5H13a5 5 0 0 1-5-5V13a5 5 0 0 1 5-5h28Zm-28 2a3 3 0 0 0-3 3v70a3 3 0 0 0 3 3h28a3 3 0 0 0 3-3V13a3 3 0 0 0-3-3H13Zm70-2a5 5 0 0 1 5 5v27a5 5 0 0 1-5 5H57a5 5 0 0 1-5-5V13a5 5 0 0 1 5-5h26ZM69 43h14a3 3 0 0 0 3-3V13a3 3 0 0 0-3-3H69v33ZM57 10a3 3 0 0 0-3 3v27a3 3 0 0 0 3 3h10V10H57Z" class="primary"/>
      <path fill="#FF462D" d="M83 51a5 5 0 0 1 5 5v27a5 5 0 0 1-5 5H57a5 5 0 0 1-5-5V56a5 5 0 0 1 5-5h26ZM54 77v6a3 3 0 0 0 3 3h26a3 3 0 0 0 3-3v-6H54Zm3-24a3 3 0 0 0-3 3v19h32V56a3 3 0 0 0-3-3H57Z" class="secondary"/>
    </g>
  </g>
</svg>
