<svg xmlns="http://www.w3.org/2000/svg" width="96" height="96" fill="none" viewBox="0 0 96 96">
  <g class="Size=L">
    <g class="Icon">
      <path fill="#FF462D" d="M82.5 28.5a1 1 0 0 1 1 1V85a1 1 0 0 1-1 1H66a1 1 0 0 1-1-1V29.5a1 1 0 0 1 1-1h16.5ZM67 84h14.5V30.5H67V84Z" class="secondary"/>
      <path fill="#3D3C3C" d="M55.5 49.5a1 1 0 0 1 1 1V84H87a1 1 0 1 1 0 2H9a1 1 0 1 1 0-2h3.5V64a1 1 0 0 1 1-1H30a1 1 0 0 1 1 1v20h8.5V50.5a1 1 0 0 1 1-1h15ZM14.5 84H29V65H14.5v19Zm27 0h13V51.5h-13V84ZM67 9c3.88 0 7 3.12 7 7s-3.12 7-7 7a6.981 6.981 0 0 1-4.177-1.374L52.596 32.783A6.98 6.98 0 0 1 54 37c0 3.88-3.12 7-7 7a6.978 6.978 0 0 1-6.929-6H27.93A6.978 6.978 0 0 1 21 44a6.977 6.977 0 0 1-4.6-1.716l-6.626 8.099a1 1 0 0 1-1.548-1.266l6.75-8.25a.996.996 0 0 1 .109-.113A6.985 6.985 0 0 1 14 37c0-3.88 3.12-7 7-7a6.978 6.978 0 0 1 6.929 6H40.07A6.978 6.978 0 0 1 47 30c1.568 0 3.012.51 4.176 1.373l10.227-11.157A6.98 6.98 0 0 1 60 16c0-3.88 3.12-7 7-7ZM21 32c-2.776 0-5 2.224-5 5s2.224 5 5 5 5-2.224 5-5-2.224-5-5-5Zm26 0c-2.776 0-5 2.224-5 5s2.224 5 5 5 5-2.224 5-5-2.224-5-5-5Zm20-21c-2.776 0-5 2.224-5 5s2.224 5 5 5 5-2.224 5-5-2.224-5-5-5Z" class="primary"/>
    </g>
  </g>
</svg>
