<svg xmlns="http://www.w3.org/2000/svg" width="96" height="96" fill="none" viewBox="0 0 96 96">
  <g class="Size=L">
    <g class="Icon">
      <path fill="#3D3C3C" d="M25 12a1 1 0 1 1 0 2h-5v7.559c3.728 3.459 8.2 9.976 9.576 17.319.713 3.802.6 7.853-.904 11.813C27.21 54.537 24.46 58.234 20 61.51V81h5a1 1 0 1 1 0 2H13a1 1 0 1 1 0-2h5V61.51c-4.46-3.276-7.21-6.973-8.672-10.819-1.504-3.96-1.617-8.011-.904-11.813C9.8 31.534 14.272 25.017 18 21.558V14h-5a1 1 0 1 1 0-2h12Zm23 60a1 1 0 0 1 1 1v8h5a1 1 0 1 1 0 2H42a1 1 0 1 1 0-2h5v-8a1 1 0 0 1 1-1Zm35-60a1 1 0 1 1 0 2h-5v7.559c3.728 3.459 8.2 9.976 9.576 17.319.192 1.025.322 2.068.383 3.122H88v2h-.01a20.512 20.512 0 0 1-1.318 6.691C85.21 54.537 82.46 58.235 78 61.511V81h5a1 1 0 1 1 0 2H71a1 1 0 1 1 0-2h5V61.51c-4.46-3.275-7.21-6.973-8.672-10.819-1.505-3.96-1.617-8.011-.904-11.813C67.8 31.534 72.272 25.017 76 21.558V14h-5a1 1 0 1 1 0-2h12ZM10.013 44a18.506 18.506 0 0 0 1.185 5.98c1.289 3.393 3.725 6.742 7.802 9.782 4.077-3.04 6.513-6.39 7.802-9.782A18.51 18.51 0 0 0 27.987 44H10.013Zm58 0a18.507 18.507 0 0 0 1.185 5.98c1.289 3.393 3.725 6.742 7.802 9.782 4.077-3.04 6.513-6.39 7.802-9.782A18.51 18.51 0 0 0 85.987 44H68.013ZM18.999 23.365c-3.392 3.296-7.368 9.26-8.61 15.882-.17.909-.286 1.828-.345 2.753h17.912a22.795 22.795 0 0 0-.346-2.753c-1.24-6.622-5.219-12.586-8.61-15.882Zm58 0c-3.392 3.296-7.368 9.26-8.61 15.882-.17.909-.286 1.828-.345 2.753h17.912a22.795 22.795 0 0 0-.346-2.753c-1.24-6.622-5.219-12.586-8.61-15.882ZM54 12a1 1 0 1 1 0 2h-5v20a1 1 0 1 1-2 0V14h-5a1 1 0 1 1 0-2h12Z" class="primary"/>
      <path fill="#FF462D" d="M47.335 33.253a1 1 0 0 1 1.33 0c3.79 3.371 8.493 10.06 9.911 17.625.713 3.802.6 7.853-.904 11.814-1.506 3.965-4.384 7.773-9.092 11.123a1 1 0 0 1-1.16 0c-4.708-3.35-7.585-7.158-9.092-11.123-1.505-3.96-1.617-8.012-.904-11.814 1.418-7.565 6.12-14.253 9.911-17.625ZM39.073 57c.142 1.667.5 3.336 1.125 4.98 1.289 3.393 3.725 6.742 7.802 9.782 4.077-3.04 6.513-6.39 7.802-9.781A18.355 18.355 0 0 0 56.927 57H39.073ZM48 35.365c-3.392 3.297-7.369 9.261-8.61 15.882A22.274 22.274 0 0 0 39.006 55h17.99a22.264 22.264 0 0 0-.385-3.753C55.37 44.626 51.391 38.661 48 35.365Z" class="secondary"/>
    </g>
  </g>
</svg>
