<svg xmlns="http://www.w3.org/2000/svg" width="96" height="96" fill="none" viewBox="0 0 96 96">
  <g class="chart-bar-stacked-vertical">
    <g class="Icon">
      <path fill="#FF462D" d="M65.002 12a1 1 0 0 1 1-1h16a1 1 0 0 1 1 1v72a1 1 0 0 1-1 1h-16a1 1 0 0 1-1-1V12Zm16 71V13h-14v70h14Zm-42-52a1 1 0 0 1 1-1h16a1 1 0 0 1 1 1v17a1 1 0 0 1-1 1h-16a1 1 0 0 1-1-1V31Zm16 16V32h-14v15h14Zm-42-6.25a1 1 0 0 1 1-1h16a1 1 0 0 1 1 1v21a1 1 0 0 1-1 1h-16a1 1 0 0 1-1-1v-21Zm16 20v-19h-14v19h14Z" class="secondary"/>
      <path fill="#3D3C3C" d="M8.002 84a1 1 0 0 1 1-1h4V61.75a1 1 0 0 1 1-1h16a1 1 0 0 1 1 1V83h8V48a1 1 0 0 1 1-1h16a1 1 0 0 1 1 1v35h8V63a1 1 0 0 1 1-1h16a1 1 0 0 1 1 1v20h4a1 1 0 1 1 0 2h-78a1 1 0 0 1-1-1Zm73-1V64h-14v19h14Zm-26 0V49h-14v34h14Zm-26-.25v-20h-14v20h14Z" class="primary"/>
    </g>
  </g>
</svg>
