<svg xmlns="http://www.w3.org/2000/svg" width="96" height="96" fill="none" viewBox="0 0 96 96">
  <g class="Size=L">
    <g class="Icon">
      <path fill="#FF462D" d="M82 11a1 1 0 0 1 1 1v72a1 1 0 0 1-1 1H66a1 1 0 0 1-1-1V12a1 1 0 0 1 1-1h16ZM67 83h14V13H67v70Z" class="secondary"/>
      <path fill="#3D3C3C" d="M56 25a1 1 0 0 1 1 1v57h30a1 1 0 1 1 0 2H9a1 1 0 1 1 0-2h4V40a1 1 0 0 1 1-1h16a1 1 0 0 1 1 1v43h8V26a1 1 0 0 1 1-1h16ZM15 83h14V41H15v42Zm26 0h14V27H41v56Z" class="primary"/>
    </g>
  </g>
</svg>
