<svg xmlns="http://www.w3.org/2000/svg" width="96" height="96" fill="none" viewBox="0 0 96 96">
  <g class="chart-sorted-bar-vertical">
    <g class="Icon">
      <path fill="#FF462D" d="M82.002 11a1 1 0 0 1 1 1v72a1 1 0 0 1-1 1h-16a1 1 0 0 1-1-1V12a1 1 0 0 1 1-1h16Zm-15 72h14V13h-14v70Z" class="secondary"/>
      <path fill="#3D3C3C" d="M8.002 84a1 1 0 0 1 1-1h4V40a1 1 0 0 1 1-1h16a1 1 0 0 1 1 1v43h8V26a1 1 0 0 1 1-1h16a1 1 0 0 1 1 1v57h30a1 1 0 0 1 0 2h-78a1 1 0 0 1-1-1Zm47-1V27h-14v56h14Zm-26 0V41h-14v42h14Z" class="primary"/>
    </g>
  </g>
</svg>
