<svg xmlns="http://www.w3.org/2000/svg" width="96" height="96" fill="none" viewBox="0 0 96 96">
  <g class="Size=L">
    <g class="Icon">
      <path fill="#3D3C3C" d="M11 10a1 1 0 0 1 1 1v72h72l.103.005a1 1 0 0 1 0 1.99L84 85H11a1 1 0 0 1-1-1V11a1 1 0 0 1 1-1Zm21.5 27.5a7 7 0 0 1 6.636 9.227l11.721 9.524A6.981 6.981 0 0 1 56 54c1.576 0 3.03.52 4.2 1.4.018-.026.04-.05.062-.075l10.5-11.499a1 1 0 1 1 1.476 1.348l-10.5 11.5a.964.964 0 0 1-.14.124 7 7 0 1 1-11.879 1.107l-11.512-9.354A6.99 6.99 0 0 1 32.5 51.5a6.98 6.98 0 0 1-5.111-2.219l-10.535 17.24a1 1 0 0 1-1.707-1.043l11-18 .01-.016A7 7 0 0 1 32.5 37.5ZM56 56a5 5 0 1 0 0 10 5 5 0 0 0 0-10ZM32.5 39.5a5 5 0 1 0 0 10 5 5 0 0 0 0-10Z" class="primary"/>
      <path fill="#FF462D" d="M81 40a5 5 0 1 0-10 0 5 5 0 0 0 10 0Zm2 0a7 7 0 1 1-14 0 7 7 0 0 1 14 0Z" class="secondary"/>
    </g>
  </g>
</svg>
