<svg xmlns="http://www.w3.org/2000/svg" width="96" height="96" fill="none" viewBox="0 0 96 96">
  <g class="chart-histogram">
    <g class="Icon">
      <path fill="#FF462D" d="M62 11a1 1 0 0 1 1 1v72a1 1 0 0 1-1 1H48a1 1 0 0 1-1-1V12a1 1 0 0 1 1-1h14ZM49 83h12V13H49v70Z" class="secondary"/>
      <path fill="#3D3C3C" d="M47 34H35v49h40V58H63v-2h13a1 1 0 0 1 1 1v26h10a1 1 0 1 1 0 2H9a1 1 0 1 1 0-2h10V57a1 1 0 0 1 1-1h13V33a1 1 0 0 1 1-1h13v2ZM21 83h12V58H21v25Z" class="primary"/>
    </g>
  </g>
</svg>
