<svg xmlns="http://www.w3.org/2000/svg" width="96" height="96" fill="none" viewBox="0 0 96 96">
  <g class="chart-grouped-bar-vertical">
    <g class="Icon">
      <path fill="#FF462D" d="M69 13a1 1 0 0 1 1 1v68a1 1 0 0 1-1 1H54a1 1 0 0 1-1-1V14a1 1 0 0 1 1-1h15Zm-40 7.72a1 1 0 0 1 1 1v60a1 1 0 0 1-1 1H14a1 1 0 0 1-1-1v-60a1 1 0 0 1 1-1h15ZM55 15v66h13V15H55ZM15 80.72h13v-58H15v58Z" class="secondary"/>
      <path fill="#3D3C3C" d="M82 34a1 1 0 0 1 1 1v45.75h4a1 1 0 1 1 0 2h-4.34A.995.995 0 0 1 82 83H69a.995.995 0 0 1-.66-.25H9a1 1 0 1 1 0-2h19V52.72a1 1 0 0 1 1-1h13a1 1 0 0 1 1 1v28.03h25V35a1 1 0 0 1 1-1h13ZM70 80.75h11V36H70v44.75Zm-40-.03h11v-27H30v27Z" class="primary"/>
    </g>
  </g>
</svg>
