<svg xmlns="http://www.w3.org/2000/svg" width="96" height="96" fill="none" viewBox="0 0 96 96">
  <g class="chart-sorted-bar-horizontal">
    <g class="Icon">
      <path fill="#FF462D" d="M85.001 82a1 1 0 0 1-1 1h-72a1 1 0 0 1-1-1V66a1 1 0 0 1 1-1h72a1 1 0 0 1 1 1v16Zm-72-15v14h70V67h-70Z" class="secondary"/>
      <path fill="#3D3C3C" d="M12.002 8a1 1 0 0 1 1 1v4h43a1 1 0 0 1 1 1v16a1 1 0 0 1-1 1h-43v8h57a1 1 0 0 1 1 1v16a1 1 0 0 1-1 1h-57v30a1 1 0 0 1-2 0V9a1 1 0 0 1 1-1Zm1 47h56V41h-56v14Zm0-26h42V15h-42v14Z" class="primary"/>
    </g>
  </g>
</svg>
