<svg xmlns="http://www.w3.org/2000/svg" width="96" height="96" fill="none" viewBox="0 0 96 96">
  <g class="Size=L">
    <g class="Icon">
      <path fill="#FF462D" d="M71.867 24a.999.999 0 0 1 .778.338l9.104 10.294a1 1 0 0 1-1.498 1.325l-8.31-9.396-18.905 24.057a1 1 0 0 1-1.55.026L35.747 31.968 11.523 46.852a1 1 0 1 1-1.046-1.704l24.958-15.336.08-.044c.41-.203.91-.102 1.209.252l15.499 18.395 18.886-24.033.074-.083c.18-.183.425-.291.684-.299Z" class="secondary"/>
      <path fill="#3D3C3C" d="M11 10a1 1 0 0 1 1 1v60.186l15.139-18.617.065-.072a1 1 0 0 1 1.28-.12l22.48 15.538 19.667-18.64a1 1 0 0 1 1.342-.032l8.68 7.5a1 1 0 0 1-1.226 1.576l-.08-.062-7.997-6.91-19.598 18.579a1 1 0 0 1-1.257.096L28.106 54.548 12 74.354V83h72l.103.005a1 1 0 0 1 0 1.99L84 85H11a1 1 0 0 1-1-1V11a1 1 0 0 1 1-1Z" class="primary"/>
    </g>
  </g>
</svg>
