<svg xmlns="http://www.w3.org/2000/svg" width="96" height="96" fill="none" viewBox="0 0 96 96">
  <g class="chat">
    <path fill="#3D3C3C" d="M27.373 86a3.68 3.68 0 0 1-1.789-.463C24.331 84.853 24.01 83.47 24.01 82v-8l-3.782.022C13.482 74.022 8 68.314 8 61.299V23.723C8.01 16.707 13.492 11 20.238 11h55.543c6.746 0 12.229 5.707 12.229 12.723V61.3c0 7.015-5.483 12.723-12.229 12.723L45.01 74 29.52 85.316a3.709 3.709 0 0 1-2.138.684h-.01ZM20.01 13c-5.512 0-10 4.762-10 10.5v38c0 5.737 4.488 10.5 10 10.5h5c.622 0 1 .366 1 1v10c0 .614.5 1 1 1s1.014-.158 1.5-.5l15.5-11s.776-.5 1-.5h31c5.511 0 10-4.763 10-10.5v-38c0-5.738-4.489-10.5-10-10.5h-56Z" class="primary"/>
    <path fill="#FF462D" fill-rule="evenodd" d="M29.757 39h-1.514C27.004 39 26 39.933 26 41.084v1.832C26 44.066 27.004 45 28.243 45h1.514C30.996 45 32 44.067 32 42.916v-1.832C32 39.934 30.996 39 29.757 39Zm19 0h-1.514C46.004 39 45 39.933 45 41.084v1.832C45 44.066 46.004 45 47.243 45h1.514C49.996 45 51 44.067 51 42.916v-1.832C51 39.934 49.996 39 48.757 39Zm17.486 0h1.514c1.239 0 2.243.933 2.243 2.084v1.832C70 44.066 68.996 45 67.757 45h-1.514C65.004 45 64 44.067 64 42.916v-1.832C64 39.934 65.004 39 66.243 39Z" class="secondary" clip-rule="evenodd"/>
  </g>
</svg>
