<svg xmlns="http://www.w3.org/2000/svg" width="96" height="96" fill="none" viewBox="0 0 96 96">
  <g fill-rule="evenodd" class="cloud-upload" clip-rule="evenodd">
    <path fill="#FF462D" d="M48.678 44.265a1 1 0 0 0-1.356 0l-13 12a1 1 0 0 0 1.356 1.47L47 47.284V82a1 1 0 1 0 2 0V47.284l11.322 10.45a1 1 0 0 0 1.356-1.469l-13-12Z" class="secondary"/>
    <path fill="#3D3C3C" d="M25 38.05C25 25.327 35.476 15 48.437 15c10.498 0 19.431 7.555 22.38 17.02-3.345.157-5.89 1.207-7.86 2.622a1 1 0 0 0 1.168 1.624C65.927 34.971 68.336 34 71.692 34c3.623 0 7.2 1.777 9.89 4.613C84.27 41.447 86 45.266 86 49.235c0 5.172-.984 9.37-3.182 12.375-2.17 2.967-5.627 4.914-10.904 5.394a1 1 0 0 0 .181 1.992c5.719-.52 9.759-2.679 12.338-6.206C86.983 59.301 88 54.616 88 49.235c0-4.545-1.974-8.843-4.967-11.998-2.703-2.851-6.295-4.828-10.119-5.18C69.94 21.56 60.143 13 48.437 13 34.43 13 23.046 24.148 23 37.966c-1.842-.117-3.473.156-5.042.766l-.002.001C11.909 41.107 8 46.868 8 52.992c0 8.74 7.072 15.99 16.015 15.99a1 1 0 1 0 0-2C16.188 66.981 10 60.638 10 52.991c0-5.278 3.383-10.315 8.685-12.397 1.873-.728 3.886-.899 6.581-.26a.986.986 0 0 0 .05.01l2.165.397a1 1 0 1 0 .36-1.967l-2.139-.392A18.838 18.838 0 0 0 25 38.23v-.182Z" class="primary"/>
  </g>
</svg>
