<svg xmlns="http://www.w3.org/2000/svg" width="96" height="96" fill="none" viewBox="0 0 96 96">
  <g fill-rule="evenodd" class="cloud-services" clip-rule="evenodd">
    <path fill="#FF462D" d="M18 77a1 1 0 1 0 0 2h24a1 1 0 1 0 0-2H18Zm38 0a1 1 0 1 0 0 2h22a1 1 0 1 0 0-2H56Z" class="secondary"/>
    <path fill="#3D3C3C" d="M28.64 34.041C28.64 22.422 38.063 13 49.697 13c9.309 0 17.208 5.843 19.998 14.168-3.006.446-5.584 1.821-7.28 3.039a1 1 0 1 0 1.167 1.624c1.863-1.338 4.816-2.811 8.09-2.811 3.633 0 7.216 1.774 9.907 4.608C84.27 36.459 86 40.279 86 44.258c0 10.121-6.473 17.75-15.955 17.75h-46.04c-7.814 0-14.005-6.365-14.005-14 0-5.266 3.393-10.316 8.694-12.385h.001c1.826-.715 4.304-.773 7.033-.143l1.456.485a1 1 0 0 0 .953-.178 1 1 0 0 0 .521-.912 23.8 23.8 0 0 1-.019-.834Zm41.405 29.966H50v6.055A8.001 8.001 0 0 1 49 86a8 8 0 0 1-1-15.938v-6.055H24.005C15.07 64.007 8 56.731 8 48.008c0-6.111 3.92-11.887 9.967-14.247l.364.93-.364-.93c2.337-.915 5.274-.915 8.26-.218.03.007.06.016.09.025l.325.109C26.837 21.12 37.082 11 49.698 11c10.344 0 19.136 6.616 22.052 16.02 4.255.024 8.306 2.097 11.28 5.23C86.027 35.406 88 39.705 88 44.258c0 10.98-7.138 19.75-17.955 19.75ZM48.91 72.001a6 6 0 1 0 .178 0 1.007 1.007 0 0 1-.178 0Z" class="primary"/>
  </g>
</svg>
