<svg xmlns="http://www.w3.org/2000/svg" width="96" height="96" fill="none" viewBox="0 0 96 96">
  <g fill-rule="evenodd" class="collab-drive" clip-rule="evenodd">
    <path fill="#3D3C3C" d="M56.124 8c4.42 0 6.67 2.252 7.727 3.314l.028.028 6.015 6.542a.977.977 0 0 1 .046.054c2.224 2.79 2.224 5.432 2.224 7.149v21.655a1 1 0 1 1-2 0V25.103c0-1.632-.008-3.669-1.766-5.892l-5.978-6.5C61.468 11.756 59.708 10 56.124 10H28.1c-.754.078-2.037.459-3.121 1.367C23.913 12.259 23 13.69 23 16v40.258a1 1 0 0 1-2 0V33h-7.5c-1.274 0-2.107.69-2.677 1.776C10.234 35.901 10 37.353 10 38.5v42.461c0 1.424.607 2.626 1.917 3.513 1.254.849 3.199 1.435 5.944 1.516l13.28-32.092c.735-1.723 1.409-3.231 2.42-4.271C34.656 48.503 36.052 48 38 48h8c1.59 0 2.938.79 3.966 1.639.908.75 1.669 1.635 2.2 2.253l.142.165c1.572 1.25 2.625 1.696 3.57 1.87.734.134 1.404.117 2.299.094A49.5 49.5 0 0 1 59.5 54H83c1.889 0 3.405.49 4.271 1.62.877 1.142.848 2.617.383 4.018a1.02 1.02 0 0 1-.037.094L78.593 79.86l-.004.008c-1.535 3.34-3.036 5.384-4.545 6.59C72.495 87.7 71.007 88 69.66 88H18.525c-3.319 0-5.924-.647-7.73-1.87C8.947 84.878 8 83.06 8 80.96V38.5c0-1.353.266-3.151 1.052-4.651C9.857 32.31 11.274 31 13.5 31H21V16c0-2.925 1.193-4.91 2.694-6.166 1.461-1.225 3.175-1.73 4.265-1.83A.91.91 0 0 1 28.05 8h28.074ZM83 56H59.5c-.36 0-.717.01-1.072.018-.99.025-1.96.05-2.91-.124-1.385-.254-2.754-.907-4.532-2.334a1.002 1.002 0 0 1-.129-.124l-.213-.247c-.54-.626-1.184-1.374-1.952-2.008C47.82 50.461 46.916 50 46 50h-8c-1.56 0-2.382.38-3.005 1.021-.704.724-1.245 1.86-2.012 3.657l-.003.005L20.021 86H69.66c.992 0 2.01-.202 3.135-1.102 1.165-.931 2.504-2.66 3.975-5.86l.002-.004 8.999-20.073c.342-1.06.214-1.732-.086-2.124C85.37 56.427 84.62 56 83 56Z" class="primary"/>
    <path fill="#FF462D" d="M31 21a1 1 0 0 1 1-1h29a1 1 0 1 1 0 2H32a1 1 0 0 1-1-1Zm0 8a1 1 0 0 1 1-1h29a1 1 0 1 1 0 2H32a1 1 0 0 1-1-1Zm1 7a1 1 0 1 0 0 2h29a1 1 0 1 0 0-2H32Z" class="secondary"/>
  </g>
</svg>
