<svg xmlns="http://www.w3.org/2000/svg" width="96" height="96" fill="none" viewBox="0 0 96 96">
  <g class="Size=L">
    <g fill-rule="evenodd" class="Icon" clip-rule="evenodd">
      <path fill="#FF462D" d="M49 28.5C49 18.283 57.283 10 67.5 10S86 18.283 86 28.5 77.717 47 67.5 47 49 38.717 49 28.5ZM67.5 8C56.178 8 47 17.178 47 28.5S56.178 49 67.5 49 88 39.822 88 28.5 78.822 8 67.5 8Zm7.319 14.574a1 1 0 1 0-1.638-1.148l-8.29 11.828-3.07-4.406a1 1 0 1 0-1.641 1.143l3.889 5.58a1 1 0 0 0 1.64.003l9.11-13Z" class="secondary"/>
      <path fill="#3D3C3C" d="M39 8a1 1 0 0 1 1 1v9a1 1 0 1 1-2 0V9a1 1 0 0 1 1-1ZM18.293 18.293a1 1 0 0 1 1.414 0l6 6a1 1 0 0 1-1.414 1.414l-6-6a1 1 0 0 1 0-1.414Zm20.65 9.376a1 1 0 0 1-.612 1.275C31.218 31.437 26 37.968 26 46c0 4.768 3.221 9.562 6.458 13.024 1.648 1.758 2.513 4.013 2.973 6.32.441 2.21.524 4.542.53 6.656H53.01c.174-4.564 2.683-9.849 5.684-13.079a18.165 18.165 0 0 0 2.432-3.407 1 1 0 0 1 1.748.972 20.165 20.165 0 0 1-2.706 3.787l-.006.006C57.324 63.331 55 68.423 55 72.5v10.39c0 1.561-.922 2.863-2.19 3.732-1.272.871-2.973 1.378-4.805 1.378h-7.01c-1.832 0-3.533-.507-4.805-1.378-1.267-.869-2.19-2.17-2.19-3.731v-9.615a1.002 1.002 0 0 1-.038-.276v-.726c0-2.163-.073-4.436-.492-6.539-.42-2.102-1.171-3.956-2.471-5.343l-.001-.001C27.688 56.85 24 51.57 24 46c0-8.956 5.827-16.195 13.67-18.944a1 1 0 0 1 1.274.613ZM36 74v8.89c0 .711.419 1.464 1.32 2.082.898.615 2.194 1.028 3.675 1.028h7.01c1.481 0 2.777-.413 3.674-1.028.902-.618 1.321-1.37 1.321-2.081V74H36ZM9 41a1 1 0 1 0 0 2h9a1 1 0 1 0 0-2H9Z" class="primary"/>
    </g>
  </g>
</svg>
