<svg xmlns="http://www.w3.org/2000/svg" width="96" height="96" fill="none" viewBox="0 0 96 96">
  <g fill-rule="evenodd" class="console" clip-rule="evenodd">
    <path fill="#3D3C3C" d="M8 17.472C8 12.302 12.009 8 17.093 8h61.814C83.991 8 88 12.303 88 17.472v60.602C88 83.464 84.018 88 78.91 88H17.09C11.983 88 8 83.465 8 78.074V17.472Zm78.049 0V25H9.95v-7.528c0-4.225 3.25-7.55 7.142-7.55h61.814c3.892 0 7.142 3.325 7.142 7.55Zm0 9.528H9.95v51.074c0 4.482 3.275 7.964 7.14 7.964h61.818c3.865 0 7.14-3.482 7.14-7.964V27ZM20.507 16h.986c.832 0 1.507.62 1.507 1.383v1.234c0 .764-.675 1.383-1.507 1.383h-.986C19.675 20 19 19.38 19 18.617v-1.234c0-.764.675-1.383 1.507-1.383Zm9.986 0h-.986c-.832 0-1.507.62-1.507 1.383v1.234c0 .764.675 1.383 1.507 1.383h.986c.832 0 1.507-.62 1.507-1.383v-1.234c0-.764-.675-1.383-1.507-1.383Zm8.014 0h.986c.832 0 1.507.62 1.507 1.383v1.234c0 .764-.675 1.383-1.507 1.383h-.986C37.675 20 37 19.38 37 18.617v-1.234c0-.764.675-1.383 1.507-1.383Z" class="primary"/>
    <path fill="#FF462D" d="M45.998 54c-.263 7.228-6.206 13.007-13.498 13.007-7.46 0-13.507-6.047-13.507-13.507 0-6.953 5.253-12.679 12.007-13.425V52c0 1.105.868 2 1.94 2h13.058Zm-.073-2H32.939V40c6.754.216 12.255 5.389 12.986 12Zm-13.85-13.994c.14-.004.283-.006.425-.006C41.06 38 48 44.94 48 53.5 48 62.06 41.06 69 32.5 69 23.94 69 17 62.06 17 53.5c0-8.325 6.563-15.117 14.798-15.484a.952.952 0 0 1 .276-.01ZM59 60a1 1 0 0 1 1-1h15a1 1 0 1 1 0 2H60a1 1 0 0 1-1-1Zm1-11a1 1 0 1 0 0 2h15a1 1 0 1 0 0-2H60Z" class="secondary"/>
  </g>
</svg>
