<svg xmlns="http://www.w3.org/2000/svg" width="96" height="96" fill="none" viewBox="0 0 96 96">
  <g fill-rule="evenodd" class="control-tower" clip-rule="evenodd">
    <path fill="#FF462D" d="M18.369 10.622a1 1 0 0 0-1.567-1.244A40.637 40.637 0 0 0 8 34.693c0 9.56 3.3 18.372 8.802 25.314a1 1 0 1 0 1.567-1.243A38.657 38.657 0 0 1 10 34.693a38.636 38.636 0 0 1 8.369-24.071Zm60.878-1.244a1 1 0 1 0-1.567 1.244 38.615 38.615 0 0 1 8.369 24.07 38.637 38.637 0 0 1-8.37 24.072 1 1 0 0 0 1.568 1.242 40.636 40.636 0 0 0 8.802-25.313c0-9.57-3.3-18.383-8.802-25.315Zm-49.745 9.846a1 1 0 0 1 .2 1.4c-2.944 3.927-4.678 8.858-4.678 14.21s1.734 10.284 4.678 14.21a1 1 0 0 1-1.6 1.2c-3.201-4.269-5.078-9.62-5.078-15.41 0-5.789 1.877-11.14 5.078-15.41a1 1 0 0 1 1.4-.2Zm38.436.216a1 1 0 0 0-1.6 1.2c2.944 3.926 4.678 8.857 4.678 14.21 0 5.352-1.734 10.283-4.678 14.21a1 1 0 1 0 1.6 1.2c3.201-4.27 5.078-9.621 5.078-15.41 0-5.79-1.877-11.14-5.078-15.41Z" class="secondary"/>
    <path fill="#3D3C3C" d="M39.024 35.024a9 9 0 1 1 18 0 9 9 0 0 1-18 0Zm9-11c-6.075 0-11 4.925-11 11 0 5.614 4.205 10.245 9.636 10.917L25.146 85.547a1 1 0 1 0 1.757.955l7.321-13.478h27.6l7.322 13.478a1 1 0 1 0 1.757-.955L49.39 45.941c5.431-.672 9.635-5.303 9.635-10.917 0-6.075-4.925-11-11-11Zm0 23.596L35.312 71.023h25.427L48.025 47.62Z" class="primary"/>
  </g>
</svg>
