<svg xmlns="http://www.w3.org/2000/svg" width="96" height="96" fill="none" viewBox="0 0 96 96">
  <g class="core-enterprise-&amp;-zCloud">
    <path fill="#FF462D" fill-rule="evenodd" d="M20 30h5a5 5 0 0 0 5-5V13a5 5 0 0 0-5-5H13a5 5 0 0 0-5 5v12a5 5 0 0 0 5 5h5v36h-5a5 5 0 0 0-5 5v12a5 5 0 0 0 5 5h12a5 5 0 0 0 5-5V71a5 5 0 0 0-5-5h-5V49h32.878a1 1 0 1 0 0-2H20V30ZM10 13a3 3 0 0 1 3-3h12a3 3 0 0 1 3 3v12a3 3 0 0 1-3 3H13a3 3 0 0 1-3-3V13Zm3 55a3 3 0 0 0-3 3v12a3 3 0 0 0 3 3h12a3 3 0 0 0 3-3V71a3 3 0 0 0-3-3H13Z" class="secondary" clip-rule="evenodd"/>
    <g fill="#3D3C3C" class="primary">
      <path d="M63 24a1 1 0 0 1 1-1h12a1 1 0 1 1 0 2H64a1 1 0 0 1-1-1Zm1 9a1 1 0 1 0 0 2h12a1 1 0 1 0 0-2H64Z"/>
      <path fill-rule="evenodd" d="M52 15.425C52 11.328 55.31 8 59.402 8h21.196C84.69 8 88 11.328 88 15.425v65.15C88 84.672 84.69 88 80.598 88H59.402C55.31 88 52 84.672 52 80.575v-65.15ZM59.402 10C56.422 10 54 12.425 54 15.425v65.15c0 3 2.422 5.425 5.402 5.425h21.196C83.578 86 86 83.575 86 80.575v-65.15c0-3-2.422-5.425-5.402-5.425H59.402Z" clip-rule="evenodd"/>
    </g>
  </g>
</svg>
