<svg xmlns="http://www.w3.org/2000/svg" width="96" height="96" fill="none" viewBox="0 0 96 96">
  <g fill-rule="evenodd" class="core-services" clip-rule="evenodd">
    <path fill="#3D3C3C" d="M48 10a5 5 0 1 0 0 10 5 5 0 0 0 0-10Zm1 11.93A7.001 7.001 0 0 0 48 8a7 7 0 0 0-1 13.93V35a1 1 0 1 0 2 0V21.93ZM25 19a5 5 0 1 0 0 10 5 5 0 0 0 0-10Zm-7 5a7 7 0 1 1 12.15 4.74c.02.017.039.035.057.053l9 9a1 1 0 0 1-1.414 1.414l-9-9a1 1 0 0 1-.166-.219A7 7 0 0 1 18 24Zm40.224 32.31a1 1 0 0 0-1.448 1.38l9.75 10.237a7 7 0 1 0 1.416-1.413L58.224 56.31Zm8.903 15.817a5 5 0 1 1 10 0 5 5 0 0 1-10 0ZM71 19a5 5 0 1 0 0 10 5 5 0 0 0 0-10Zm-7 5a7 7 0 1 1 3.12 5.827l-8.895 9.362a1 1 0 0 1-1.45-1.378l8.855-9.32A6.972 6.972 0 0 1 64 24ZM25 67a5 5 0 1 0 0 10 5 5 0 0 0 0-10Zm-7 5a7 7 0 0 1 10.594-6.008l9.199-9.2a1 1 0 0 1 1.414 1.415l-9.055 9.054A7 7 0 1 1 18 72Zm30 4a5 5 0 1 0 0 10 5 5 0 0 0 0-10Zm-1-1.93A7.001 7.001 0 0 0 48 88a7 7 0 0 0 1-13.93V61a1 1 0 1 0-2 0v13.07ZM81 43a5 5 0 1 0 0 10 5 5 0 0 0 0-10Zm-6.93 6A7.001 7.001 0 0 0 88 48a7 7 0 0 0-13.93-1H61a1 1 0 1 0 0 2h13.07ZM15 43a5 5 0 1 0 0 10 5 5 0 0 0 0-10Zm-7 5a7 7 0 0 1 13.93-1h12.82a1 1 0 1 1 0 2H21.93A7.001 7.001 0 0 1 8 48Z" class="primary"/>
    <path fill="#FF462D" d="M48 36c-6.627 0-12 5.373-12 12s5.373 12 12 12 12-5.373 12-12-5.373-12-12-12ZM34 48c0-7.732 6.268-14 14-14s14 6.268 14 14-6.268 14-14 14-14-6.268-14-14Z" class="secondary"/>
  </g>
</svg>
