<svg xmlns="http://www.w3.org/2000/svg" width="96" height="96" fill="none" viewBox="0 0 96 96">
  <g fill-rule="evenodd" class="cost-&amp;-asset-management" clip-rule="evenodd">
    <path fill="#FF462D" d="M48.024 20.024a1 1 0 0 1 1 1v8c5.54 0 10 4.624 10 10.25a1 1 0 1 1-2 0c0-4.574-3.615-8.25-8-8.25-4.384 0-8 3.676-8 8.25 0 4.575 3.616 8.25 8 8.25 5.54 0 10 4.624 10 10.25 0 5.627-4.46 10.25-10 10.25v6.19a1 1 0 0 1-2 0V67.82c-4.575-.954-8-5.114-8-10.045a1 1 0 1 1 2 0c0 4.575 3.616 8.25 8 8.25 4.385 0 8-3.675 8-8.25 0-4.574-3.615-8.25-8-8.25-5.54 0-10-4.623-10-10.25 0-4.93 3.425-9.09 8-10.044v-8.206a1 1 0 0 1 1-1Z" class="secondary"/>
    <path fill="#3D3C3C" d="M10 48.024C10 27.026 27.026 10 48.024 10c13.568 0 26.27 7.628 33.02 18.342l-8.277-.825a1 1 0 0 0-.198 1.99l10.273 1.025a1 1 0 0 0 1.094-.896l1.025-10.273a1 1 0 1 0-1.99-.199l-.733 7.343C75.028 15.648 61.988 8 48.024 8 25.921 8 8 25.92 8 48.024S25.92 88.05 48.024 88.05 88.05 70.128 88.05 48.024a1 1 0 1 0-2 0c0 21-17.026 38.025-38.025 38.025S10 69.023 10 48.024Z" class="primary"/>
  </g>
</svg>
