<svg xmlns="http://www.w3.org/2000/svg" width="96" height="96" fill="none" viewBox="0 0 96 96">
  <g fill-rule="evenodd" class="cost" clip-rule="evenodd">
    <path fill="#3D3C3C" d="M48 86c20.987 0 38-17.013 38-38S68.987 10 48 10 10 27.013 10 48s17.013 38 38 38Zm0 2c22.091 0 40-17.909 40-40S70.091 8 48 8 8 25.909 8 48s17.909 40 40 40Z" class="primary"/>
    <path fill="#FF462D" d="M48 22a1 1 0 0 1 1 1v7c0 .02 0 .038-.002.057C53.536 30.582 57 34.643 57 39.5a1 1 0 1 1-2 0c0-4.193-3.197-7.5-7-7.5s-7 3.307-7 7.5c0 4.104 3.04 7.054 7.11 7.506C53.04 47.554 57 51.23 57 56.5c0 4.833-3.462 8.915-8.002 9.442.002.02.002.039.002.058v7a1 1 0 1 1-2 0v-7c0-.02 0-.038.002-.057C42.464 65.418 39 61.357 39 56.5a1 1 0 1 1 2 0c0 4.193 3.197 7.5 7 7.5s7-3.307 7-7.5c0-4.104-3.04-7.054-7.11-7.506C42.96 48.446 39 44.77 39 39.5c0-4.833 3.462-8.915 8.002-9.442A1.002 1.002 0 0 1 47 30v-7a1 1 0 0 1 1-1Z" class="secondary"/>
  </g>
</svg>
