<svg xmlns="http://www.w3.org/2000/svg" width="96" height="96" fill="none" viewBox="0 0 96 96">
  <g fill-rule="evenodd" class="customer-engagement" clip-rule="evenodd">
    <path fill="#FF462D" d="M59.3 21.69a.986.986 0 0 0 1.41-1.376l-4.224-4.328H74.11c1.62 0 2.916 1.313 2.916 3.357v17.662a.985.985 0 0 0 1.97 0V19.343c0-2.915-1.973-5.327-4.886-5.327H56.271l4.421-4.31a.985.985 0 1 0-1.376-1.411l-6.002 5.852a.985.985 0 0 0-.017 1.393l6.002 6.15ZM18.973 59.01a.985.985 0 0 0-1.97 0v17.662c0 2.935 2.025 5.327 4.968 5.327h17.757l-4.421 4.31a.985.985 0 1 0 1.376 1.411l6.002-5.852a.985.985 0 0 0 .017-1.394l-6.002-6.15a.986.986 0 0 0-1.41 1.377l4.224 4.328H21.971c-1.686 0-2.998-1.333-2.998-3.357V59.01Z" class="secondary"/>
    <path fill="#3D3C3C" d="M18.989 16.502A6.502 6.502 0 0 1 25.491 10a6.502 6.502 0 1 1 0 13.003 6.502 6.502 0 0 1-6.502-6.501ZM25.491 8a8.502 8.502 0 1 0 0 17.003 8.502 8.502 0 1 0 0-17.003ZM9.971 35.928c0-2.746 2.174-4.939 4.8-4.939h21.442c2.625 0 4.8 2.193 4.8 4.94v9.103c0 .565-.45.99-.944.99H10.914c-.495 0-.943-.425-.943-.99V35.93Zm4.8-6.91c-3.759 0-6.771 3.12-6.771 6.91v9.104c0 1.608 1.287 2.96 2.914 2.96h29.155c1.627 0 2.914-1.352 2.914-2.96V35.93c0-3.79-3.012-6.91-6.77-6.91H14.77Zm55.737 20.99a6.502 6.502 0 1 0 0 13.002 6.502 6.502 0 1 0 0-13.002Zm-8.503 6.501a8.502 8.502 0 0 1 8.503-8.502 8.502 8.502 0 1 1 0 17.004 8.502 8.502 0 0 1-8.503-8.502Zm-7.017 19.427c0-2.747 2.174-4.94 4.8-4.94H81.23c2.625 0 4.8 2.193 4.8 4.94v9.104c0 .564-.45.99-.944.99H55.931c-.495 0-.943-.425-.943-.99v-9.104Zm4.8-6.91c-3.759 0-6.771 3.12-6.771 6.91v9.104c0 1.608 1.287 2.96 2.913 2.96h29.156C86.713 88 88 86.648 88 85.04v-9.104c0-3.79-3.013-6.91-6.77-6.91H59.787Z" class="primary"/>
  </g>
</svg>
