<svg xmlns="http://www.w3.org/2000/svg" width="96" height="96" fill="none" viewBox="0 0 96 96">
  <g fill-rule="evenodd" class="dashboard" clip-rule="evenodd">
    <path fill="#FF462D" d="M12.867 10C11.267 10 10 11.27 10 12.8v11.4c0 1.53 1.267 2.8 2.867 2.8h21.266c1.6 0 2.867-1.27 2.867-2.8V12.8c0-1.53-1.267-2.8-2.867-2.8H12.867ZM8 12.8C8 10.133 10.195 8 12.867 8h21.266C36.805 8 39 10.133 39 12.8v11.4c0 2.667-2.195 4.8-4.867 4.8H12.867C10.195 29 8 26.867 8 24.2V12.8Z" class="secondary"/>
    <path fill="#3D3C3C" d="M86 47.133C86 49.832 83.84 52 81.2 52H63.8c-2.64 0-4.8-2.168-4.8-4.867V14.867C59 12.168 61.16 10 63.8 10h17.4c2.64 0 4.8 2.168 4.8 4.867v32.266ZM81.2 54c3.766 0 6.8-3.085 6.8-6.867V14.867C88 11.085 84.966 8 81.2 8H63.8c-3.766 0-6.8 3.085-6.8 6.867v32.266C57 50.915 60.034 54 63.8 54h17.4ZM14.8 44c-2.64 0-4.8 2.168-4.8 4.867v32.266C10 83.832 12.16 86 14.8 86h17.4c2.64 0 4.8-2.168 4.8-4.867V48.867C37 46.168 34.84 44 32.2 44H14.8ZM8 48.867C8 45.085 11.034 42 14.8 42h17.4c3.766 0 6.8 3.085 6.8 6.867v32.266C39 84.915 35.966 88 32.2 88H14.8C11.034 88 8 84.915 8 81.133V48.867ZM83.133 86c1.6 0 2.867-1.27 2.867-2.8V71.8c0-1.53-1.267-2.8-2.867-2.8H61.867C60.267 69 59 70.27 59 71.8v11.4c0 1.53 1.267 2.8 2.867 2.8h21.266ZM88 83.2c0 2.667-2.195 4.8-4.867 4.8H61.867C59.195 88 57 85.867 57 83.2V71.8c0-2.667 2.195-4.8 4.867-4.8h21.266C85.805 67 88 69.133 88 71.8v11.4Z" class="primary"/>
  </g>
</svg>
