<svg xmlns="http://www.w3.org/2000/svg" width="96" height="96" fill="none" viewBox="0 0 96 96">
  <g class="data-search">
    <g class="Icon">
      <path fill="#3D3C3C" d="M60 8a5 5 0 0 1 5 5v29a1 1 0 1 1-2 0v-3H11v20h33a1 1 0 1 1 0 2H11v22a3 3 0 0 0 3 3h31a1 1 0 1 1 0 2H14a5 5 0 0 1-5-5V13a5 5 0 0 1 5-5h46ZM21 72a2 2 0 1 1 0 4 2 2 0 0 1 0-4Zm0-25a2 2 0 1 1 0 4 2 2 0 0 1 0-4Zm-7-37a3 3 0 0 0-3 3v24h52V13a3 3 0 0 0-3-3H14Zm7 11a2 2 0 1 1 0 4 2 2 0 0 1 0-4Z" class="primary"/>
      <path fill="#FF462D" d="M67 48c8.867 0 16 7.419 16 16.5 0 4.741-1.945 9.028-5.065 12.044l8.808 9.787a1 1 0 0 1-1.486 1.338l-8.844-9.826A15.596 15.596 0 0 1 67 81c-8.867 0-16-7.418-16-16.5C51 55.419 58.133 48 67 48Zm0 2c-7.701 0-14 6.46-14 14.5S59.299 79 67 79s14-6.46 14-14.5S74.701 50 67 50Z" class="secondary"/>
    </g>
  </g>
</svg>
