<svg xmlns="http://www.w3.org/2000/svg" width="96" height="96" fill="none" viewBox="0 0 96 96">
  <g fill-rule="evenodd" class="database" clip-rule="evenodd">
    <path fill="#3D3C3C" d="M30.003 10A8.006 8.006 0 0 0 22 18.007V35h52V18.007A8.006 8.006 0 0 0 65.997 10H30.003ZM20 35v42.993C20 83.516 24.476 88 30.003 88h35.994C71.524 88 76 83.516 76 77.993V18.007C76 12.484 71.524 8 65.997 8H30.003C24.476 8 20 12.484 20 18.007V35Zm2 28v14.993A8.006 8.006 0 0 0 30.003 86h35.994A8.006 8.006 0 0 0 74 77.993V63H22Zm52-2V37H22v24h52Z" class="primary"/>
    <path fill="#FF462D" d="M33 23c0-1.104-.897-2-2-2s-2 .896-2 2 .897 2 2 2 2-.896 2-2Zm0 26c0-1.104-.897-2-2-2s-2 .896-2 2 .897 2 2 2 2-.896 2-2Zm-2 23c1.103 0 2 .896 2 2s-.897 2-2 2-2-.896-2-2 .897-2 2-2Zm11.5-50a1 1 0 1 0 0 2h21a1 1 0 1 0 0-2h-21ZM42 49a1 1 0 0 1 1-1h21a1 1 0 1 1 0 2H43a1 1 0 0 1-1-1Zm.5 24a1 1 0 1 0 0 2h21a1 1 0 1 0 0-2h-21Z" class="secondary"/>
  </g>
</svg>
