<svg xmlns="http://www.w3.org/2000/svg" width="96" height="96" fill="none" viewBox="0 0 96 96">
  <g class="devops-intelligence">
    <path fill="#FF462D" fill-rule="evenodd" d="M26 48.5c0-5.718 4.22-10.5 9.64-10.5 4.14 0 7.48 2.637 9.702 5.077a26.823 26.823 0 0 1 3.298 4.516 16.463 16.463 0 0 1 .228.41l.013.024.004.008.001.002s.001.002-.886.463l-.887.462-.002-.003-.008-.016a22.5 22.5 0 0 0-.83-1.382c-.558-.86-1.374-2-2.41-3.138C41.76 42.113 38.92 40 35.64 40 31.5 40 28 43.704 28 48.5c0 4.796 3.5 8.5 7.64 8.5 2.131 0 4.064-.892 5.76-2.164a1 1 0 1 1 1.2 1.6C40.696 57.864 38.35 59 35.64 59 30.22 59 26 54.218 26 48.5ZM60.36 40c-2.03 0-4.225 1.367-5.634 2.854a1 1 0 0 1-1.452-1.375C54.865 39.799 57.55 38 60.36 38 65.758 38 70 42.78 70 48.5S65.758 59 60.36 59c-4.14 0-7.48-2.637-9.702-5.077a26.823 26.823 0 0 1-3.298-4.516 16.463 16.463 0 0 1-.228-.41l-.013-.024-.004-.008-.001-.002s-.001-.002.886-.463l.887-.462.002.003.008.016c.008.015.02.039.038.07a22.5 22.5 0 0 0 .791 1.312c.559.86 1.375 2 2.41 3.138C54.242 54.887 57.08 57 60.36 57c4.122 0 7.64-3.706 7.64-8.5 0-4.794-3.518-8.5-7.64-8.5Z" class="secondary" clip-rule="evenodd"/>
    <path fill="#3D3C3C" d="M34.883 88c-.64 0-1.28-.18-1.84-.53l-10.101-6.12c-1.73-1.04-2.33-3.35-1.33-5.16l3.45-6.289c.36-.65.3-1.49-.13-2.04-2.07-2.66-3.7-5.63-4.85-8.83a1.61 1.61 0 0 0-1.52-1.089H11.67c-2.03 0-3.67-1.71-3.67-3.81V41.893c0-2.1 1.65-3.81 3.67-3.81h6.891c.67 0 1.28-.44 1.52-1.1 1.17-3.25 2.81-6.22 4.851-8.829.43-.56.48-1.39.12-2.04l-3.45-6.3c-.99-1.78-.4-4.09 1.33-5.15l10.111-6.139c.84-.51 1.82-.64 2.76-.39.96.26 1.77.9 2.26 1.8l3.451 6.28c.35.63.99.96 1.64.86 3.21-.54 6.471-.54 9.692 0 .65.11 1.28-.22 1.63-.86l3.45-6.28c.48-.89 1.3-1.55 2.26-1.81.95-.26 1.93-.11 2.77.4l10.102 6.12c1.73 1.04 2.33 3.35 1.33 5.16l-3.45 6.3c-.36.65-.3 1.489.13 2.039 2.06 2.65 3.7 5.63 4.85 8.83.23.66.84 1.09 1.52 1.09h6.891c2.03 0 3.671 1.71 3.671 3.81v12.238c0 2.1-1.65 3.81-3.67 3.81h-6.891c-.67 0-1.28.44-1.52 1.1-1.17 3.25-2.81 6.22-4.861 8.83-.43.56-.48 1.39-.12 2.04l3.45 6.299c.99 1.78.4 4.09-1.33 5.15L62.947 87.46c-.85.51-1.83.64-2.76.39-.96-.26-1.77-.9-2.26-1.8l-3.451-6.28c-.35-.63-1-.96-1.63-.86-3.21.53-6.491.53-9.692 0-.65-.12-1.28.22-1.63.86l-3.45 6.28c-.48.89-1.3 1.55-2.26 1.81-.31.08-.62.12-.92.12l-.01.02ZM11.67 40.073c-.92 0-1.67.81-1.67 1.81v12.24c0 1 .75 1.81 1.67 1.81h6.891c1.53 0 2.9.98 3.4 2.429a30.052 30.052 0 0 0 4.551 8.27c.92 1.18 1.04 2.88.3 4.23l-3.45 6.299c-.48.86-.19 2 .61 2.48l10.111 6.12c.37.23.8.29 1.21.18.44-.12.8-.41 1.02-.83l3.461-6.29c.76-1.38 2.26-2.13 3.73-1.87 2.96.49 6.031.5 9.022 0 1.46-.24 2.95.51 3.71 1.86l3.46 6.28c.23.42.6.71 1.03.83.41.11.84.05 1.21-.17l10.102-6.12c.81-.5 1.09-1.63.62-2.48l-3.46-6.3c-.74-1.35-.63-3.01.3-4.22 1.93-2.45 3.46-5.24 4.56-8.289.52-1.45 1.89-2.42 3.4-2.42h6.892c.92 0 1.67-.81 1.67-1.81V41.873c0-1-.75-1.81-1.67-1.81h-6.891c-1.53 0-2.9-.98-3.4-2.43-1.08-3-2.611-5.78-4.551-8.27-.92-1.179-1.04-2.889-.3-4.229l3.45-6.3c.48-.86.19-2-.61-2.48l-10.111-6.119c-.37-.23-.8-.29-1.21-.18-.44.12-.8.41-1.02.83l-3.461 6.29c-.76 1.38-2.26 2.13-3.73 1.87-2.97-.5-6.021-.5-9.022 0-1.5.24-2.96-.49-3.71-1.87l-3.45-6.28c-.23-.42-.6-.71-1.03-.83a1.56 1.56 0 0 0-1.21.17l-10.102 6.12c-.81.5-1.09 1.63-.62 2.48l3.46 6.3c.74 1.35.63 3.009-.3 4.229-1.93 2.45-3.46 5.24-4.56 8.29-.53 1.45-1.89 2.42-3.4 2.42H11.67Z" class="primary"/>
  </g>
</svg>
