<svg xmlns="http://www.w3.org/2000/svg" width="96" height="96" fill="none" viewBox="0 0 96 96">
  <g fill-rule="evenodd" class="digital-workplace" clip-rule="evenodd">
    <path fill="#3D3C3C" d="M49.001 70h30.2C84.054 70 88 66.063 88 61.225v-42.45C88 13.937 84.053 10 79.202 10H16.798C11.947 10 8 13.937 8 18.775v42.45C8 66.063 11.947 70 16.798 70h30.21a1.215 1.215 0 0 0-.003.094v12.812c0 .032.001.063.003.094h-16.86c-.638 0-1.146.452-1.146 1s.508 1 1.145 1h35.715c.637 0 1.145-.452 1.145-1s-.508-1-1.145-1h-16.86c.002-.031.003-.062.003-.094V70.094a.971.971 0 0 0-.004-.094Zm-39-51.521a6.46 6.46 0 0 1 6.5-6.484h62.508c3.616 0 7 3.376 7 6.982v36.028a1.27 1.27 0 0 0-.107-.005H10.107c-.036 0-.071.002-.107.005V18.479Zm0 38.516c.035.003.07.005.106.005h75.795a1.3 1.3 0 0 0 .108-.005v4.376c0 3.607-3.192 6.629-6.808 6.629H16.798C13.182 68 10 64.978 10 61.371v-4.376Z" class="primary"/>
    <path fill="#FF462D" d="M43 25a5 5 0 1 1 10 0 5 5 0 0 1-10 0Zm5-7a7 7 0 0 0-6.64 9.22l-9.616 5.864a7 7 0 1 0 1.585 1.376l8.934-5.449A6.992 6.992 0 0 0 48 32a6.988 6.988 0 0 0 5.524-2.7l9.016 5.499a7 7 0 1 0 1.029-1.715l-9.048-5.519-.017.027A7 7 0 0 0 48 18Zm21 14.5a5 5 0 1 0 0 10 5 5 0 0 0 0-10ZM23 39a5 5 0 1 1 10 0 5 5 0 0 1-10 0Z" class="secondary"/>
  </g>
</svg>
