<svg xmlns="http://www.w3.org/2000/svg" width="96" height="96" fill="none" viewBox="0 0 96 96">
  <g fill-rule="evenodd" class="discount" clip-rule="evenodd">
    <path fill="#3D3C3C" d="M48 86c20.987 0 38-17.013 38-38S68.987 10 48 10 10 27.013 10 48s17.013 38 38 38Zm0 2c22.091 0 40-17.909 40-40S70.091 8 48 8 8 25.909 8 48s17.909 40 40 40Z" class="primary"/>
    <path fill="#FF462D" d="M35 29a6 6 0 1 0 0 12 6 6 0 0 0 0-12Zm-8 6a8 8 0 1 1 16 0 8 8 0 0 1-16 0Zm34 20a6 6 0 1 0 0 12 6 6 0 0 0 0-12Zm-8 6a8 8 0 1 1 16 0 8 8 0 0 1-16 0Zm14.707-31.293a1 1 0 0 0-1.414-1.414l-38 38a1 1 0 0 0 1.414 1.414l38-38Z" class="secondary"/>
  </g>
</svg>
