<svg xmlns="http://www.w3.org/2000/svg" width="96" height="96" fill="none" viewBox="0 0 96 96">
  <g fill-rule="evenodd" class="document-add" clip-rule="evenodd">
    <path fill="#3D3C3C" d="M14 17.21c0-3.967 3.247-7.21 7.267-7.21h31.5v15.007c0 2.81 2.376 4.993 5.2 4.993H74v12a1 1 0 1 0 2 0V29.078l-.295-.709L55.52 8.291 54.814 8H21.267C16.154 8 12 12.127 12 17.21v61.58c0 5.082 4.154 9.21 9.267 9.21h14.466a1 1 0 1 0 0-2H21.267C17.247 86 14 82.757 14 78.79V17.21Zm40.767-6.847v14.644c0 1.61 1.383 2.993 3.2 2.993h14.531L54.767 10.363Z" class="primary"/>
    <path fill="#FF462D" d="M63.767 46c-11.617 0-21 9.416-21 21s9.383 21 21 21c11.584 0 21-9.415 21-21 0-11.584-9.384-21-21-21Zm-19 21c0-10.481 8.49-19 19-19s19 8.519 19 19c0 10.48-8.52 19-19 19-10.51 0-19-8.519-19-19Zm19-11a1 1 0 0 1 1 1v9h9a1 1 0 1 1 0 2h-9v9a1 1 0 1 1-2 0v-9h-9a1 1 0 1 1 0-2h9v-9a1 1 0 0 1 1-1Z" class="secondary"/>
  </g>
</svg>
