<svg xmlns="http://www.w3.org/2000/svg" width="96" height="96" fill="none" viewBox="0 0 96 96">
  <g fill-rule="evenodd" class="document" clip-rule="evenodd">
    <path fill="#3D3C3C" d="M25.998 8C21.013 8 17 12.137 17 17.215v61.57C17 83.863 21.013 88 25.998 88h44.004C74.987 88 79 83.862 79 78.785V29.523l-.285-.701L58.708 8.297A.981.981 0 0 0 58.004 8H25.997Zm31.016 2H25.998c-3.865 0-7.02 3.214-7.02 7.215v61.57c0 4 3.155 7.215 7.02 7.215h44.004c3.865 0 7.02-3.214 7.02-7.215V31.667H61.998c-2.811 0-4.985-2.457-4.985-5.328V10Zm19.747 19.667L58.993 11.44v14.9c0 1.898 1.414 3.327 3.006 3.327h14.762Z" class="primary"/>
    <path fill="#FF462D" d="M28 46a1 1 0 0 1 1-1h38a1 1 0 1 1 0 2H29a1 1 0 0 1-1-1Zm0 11.111a1 1 0 0 1 1-1h38a1 1 0 1 1 0 2H29a1 1 0 0 1-1-1ZM29 67a1 1 0 1 0 0 2h24a1 1 0 1 0 0-2H29Z" class="secondary"/>
  </g>
</svg>
