<svg xmlns="http://www.w3.org/2000/svg" width="96" height="96" fill="none" viewBox="0 0 96 96">
  <g fill-rule="evenodd" class="document-task" clip-rule="evenodd">
    <path fill="#FF462D" d="M63 46c-11.617 0-21 9.416-21 21s9.383 21 21 21c11.585 0 21-9.415 21-21 0-11.584-9.383-21-21-21ZM44 67c0-10.481 8.49-19 19-19s19 8.519 19 19c0 10.48-8.52 19-19 19-10.51 0-19-8.519-19-19Zm28.765-6.356a1 1 0 0 0-1.53-1.288L59.387 73.444l-4.62-5.525a1 1 0 1 0-1.534 1.284l5.385 6.438a1 1 0 0 0 1.532.003l12.615-15Z" class="secondary"/>
    <path fill="#3D3C3C" d="M13 17.21c0-3.967 3.247-7.21 7.267-7.21H52v15.007C52 27.817 54.377 30 57.2 30H73v12a1 1 0 1 0 2 0V29a.997.997 0 0 0-.293-.707l-20-20L54 8H20.267C15.154 8 11 12.127 11 17.21v61.58c0 5.082 4.154 9.21 9.267 9.21h14.466a1 1 0 1 0 0-2H20.267C16.247 86 13 82.757 13 78.79V17.21Zm41-6.796v14.593C54 26.617 55.383 28 57.2 28h14.386L54 10.414Z" class="primary"/>
  </g>
</svg>
