<svg xmlns="http://www.w3.org/2000/svg" width="96" height="96" fill="none" viewBox="0 0 96 96">
  <g fill-rule="evenodd" class="enterprise-marketplace" clip-rule="evenodd">
    <path fill="#3D3C3C" d="M28 11a3 3 0 0 1 3-3h49a3 3 0 0 1 3 3v76a1 1 0 0 1-1.5.866.995.995 0 0 1-.5.134H15a.995.995 0 0 1-.5-.134A1 1 0 0 1 13 87V41.227a3 3 0 0 1 3.32-2.983L28 39.501V11ZM15 86h32V44.455a1 1 0 0 0-.893-.994l-30-3.228a1 1 0 0 0-1.107.994V86Zm34 0h32V11a1 1 0 0 0-1-1H31a1 1 0 0 0-1 1v28.716l16.321 1.756A3 3 0 0 1 49 44.455V86Z" class="primary"/>
    <path fill="#FF462D" d="M41 22a1 1 0 0 1 1-1h7a1 1 0 1 1 0 2h-7a1 1 0 0 1-1-1Zm19 0a1 1 0 0 1 1-1h7a1 1 0 1 1 0 2h-7a1 1 0 0 1-1-1Zm0 12a1 1 0 0 1 1-1h7a1 1 0 1 1 0 2h-7a1 1 0 0 1-1-1Zm1 12a1 1 0 1 0 0 2h7a1 1 0 1 0 0-2h-7Zm-1 11a1 1 0 0 1 1-1h7a1 1 0 1 1 0 2h-7a1 1 0 0 1-1-1Zm1 10a1 1 0 1 0 0 2h7a1 1 0 1 0 0-2h-7ZM22 53a1 1 0 1 0 0 2h4a1 1 0 1 0 0-2h-4Zm-1 14a1 1 0 0 1 1-1h4a1 1 0 1 1 0 2h-4a1 1 0 0 1-1-1Zm15-14a1 1 0 1 0 0 2h5a1 1 0 1 0 0-2h-5Zm-1 14a1 1 0 0 1 1-1h5a1 1 0 1 1 0 2h-5a1 1 0 0 1-1-1Zm7-34a1 1 0 1 0 0 2h7a1 1 0 1 0 0-2h-7Z" class="secondary"/>
  </g>
</svg>
