<svg xmlns="http://www.w3.org/2000/svg" width="96" height="96" fill="none" viewBox="0 0 96 96">
  <g class="error">
    <g class="Icon">
      <path fill="#3D3C3C" d="M86 48c0-20.987-17.013-38-38-38S10 27.013 10 48s17.013 38 38 38 38-17.013 38-38Zm2 0c0 22.091-17.909 40-40 40S8 70.091 8 48 25.909 8 48 8s40 17.909 40 40Z" class="primary"/>
      <path fill="#FF462D" d="M48 62a3 3 0 1 1 0 6 3 3 0 0 1 0-6Zm0-36.5a1.5 1.5 0 0 1 1.5 1.5v25a1.5 1.5 0 0 1-3 0V27a1.5 1.5 0 0 1 1.5-1.5Z" class="secondary"/>
    </g>
  </g>
</svg>
