<svg xmlns="http://www.w3.org/2000/svg" width="96" height="96" fill="none" viewBox="0 0 96 96">
  <g fill-rule="evenodd" class="explore" clip-rule="evenodd">
    <path fill="#3D3C3C" d="M48 10c-20.987 0-38 17.013-38 38s17.013 38 38 38 38-17.013 38-38-17.013-38-38-38ZM8 48C8 25.909 25.909 8 48 8s40 17.909 40 40-17.909 40-40 40S8 70.091 8 48Z" class="primary"/>
    <path fill="#FF462D" d="M66.921 30.39a1 1 0 0 0-1.31-1.31L39.616 40.075a.999.999 0 0 0-.54.54L28.078 66.61a1 1 0 0 0 1.31 1.311l25.995-10.998a1 1 0 0 0 .54-.54L66.92 30.39ZM54.657 54.243l9.46-22.36-22.36 9.46 12.9 12.9Zm-1.414 1.414-12.9-12.9-9.46 22.36 22.36-9.46Z" class="secondary"/>
  </g>
</svg>
