<svg xmlns="http://www.w3.org/2000/svg" width="96" height="96" fill="none" viewBox="0 0 96 96">
  <g fill-rule="evenodd" class="finance" clip-rule="evenodd">
    <path fill="#FF462D" d="M18 46a1 1 0 0 1 1 1v40a1 1 0 1 1-2 0V47a1 1 0 0 1 1-1Zm30 0a1 1 0 0 1 1 1v40a1 1 0 1 1-2 0V47a1 1 0 0 1 1-1Zm31 1a1 1 0 1 0-2 0v40a1 1 0 1 0 2 0V47Z" class="secondary"/>
    <path fill="#3D3C3C" d="m52.672 9.646-.001-.001c-2.689-2.194-6.687-2.193-9.376 0-.04.033-.077.069-.11.106L10.48 36.24l-.002.002c-2.496 2.033-2.99 5.004-2 7.448.988 2.43 3.427 4.31 6.669 4.31H80.84c3.25 0 5.695-1.878 6.682-4.311.992-2.447.49-5.418-2.016-7.45L52.672 9.646Zm-8.095 1.551a.999.999 0 0 0 .105-.099c1.952-1.496 4.813-1.463 6.725.097l.003.002 32.838 26.596c1.784 1.448 2.101 3.468 1.421 5.144C84.985 44.625 83.266 46 80.841 46H15.146c-2.414 0-4.128-1.373-4.814-3.063-.68-1.678-.366-3.699 1.408-5.145l32.837-26.595ZM9 86a1 1 0 1 0 0 2h78a1 1 0 1 0 0-2H9Z" class="primary"/>
  </g>
</svg>
