<svg xmlns="http://www.w3.org/2000/svg" width="96" height="96" fill="none" viewBox="0 0 96 96">
  <g fill-rule="evenodd" class="go-to-market" clip-rule="evenodd">
    <path fill="#3D3C3C" d="M47.847 8h.001c9.333 0 20.929 3.72 27.751 8.828a1 1 0 1 1-1.198 1.601C67.952 13.601 56.785 10 47.849 10 26.923 10.02 10 26.022 10 45.587c0 3.204.269 6.26.96 9.183a1 1 0 1 1-1.946.46C8.277 52.118 8 48.9 8 45.587 8 24.804 25.935 8.02 47.847 8Zm37.99 30.024a1 1 0 0 1 1.194.758c.758 3.399.969 6.945.969 10.57C88 70.716 69.783 88 47.48 88c-9.56 0-20.043-2.223-27.094-7.707a1 1 0 0 1 1.228-1.579C28.17 83.814 38.14 86 47.48 86 68.77 86 86 69.52 86 49.352c0-3.557-.209-6.94-.92-10.134a1 1 0 0 1 .758-1.194ZM22.02 47c.469-12.32 9.556-22.476 21.39-24.594l-.051.058c-1.305 1.49-2.435 3.59-3.364 6.099-1.78 4.8-2.892 11.29-2.987 18.437H22.019Zm0 2c.47 12.317 9.569 22.472 21.389 24.593l-.05-.057c-1.305-1.49-2.435-3.59-3.364-6.099-1.78-4.8-2.892-11.29-2.987-18.437H22.019Zm16.988 0c.095 6.965 1.182 13.21 2.862 17.743.881 2.378 1.906 4.234 2.994 5.476C45.952 73.464 47.015 74 48 74c.985 0 2.048-.537 3.137-1.781 1.088-1.242 2.113-3.098 2.994-5.476 1.68-4.534 2.767-10.778 2.862-17.743H39.007Zm19.986 0c-.095 7.147-1.208 13.636-2.986 18.437-.93 2.508-2.06 4.608-3.365 6.1l-.05.057C64.424 71.476 73.511 61.32 73.98 49H58.993Zm14.988-2H58.993c-.095-7.147-1.208-13.636-2.986-18.437-.93-2.508-2.06-4.608-3.365-6.1l-.05-.057C64.424 24.524 73.511 34.68 73.98 47ZM76 48c0-15.438-12.562-28-28-28S20 32.562 20 48s12.584 28 28 28c15.438 0 28-12.562 28-28Zm-19.007-1H39.007c.095-6.965 1.182-13.21 2.862-17.743.881-2.378 1.906-4.234 2.994-5.476C45.952 22.537 47.015 22 48 22c.985 0 2.048.537 3.137 1.781 1.088 1.242 2.113 3.098 2.994 5.476 1.68 4.534 2.767 10.778 2.862 17.743Z" class="primary"/>
    <path fill="#FF462D" d="M77.458 17.458c1.945-1.944 5.14-1.944 7.084 0 1.944 1.945 1.944 5.14 0 7.084-1.945 1.944-5.14 1.944-7.084 0-1.944-1.945-1.944-5.14 0-7.084Zm8.498-1.414c-2.725-2.725-7.187-2.725-9.912 0-2.725 2.725-2.725 7.187 0 9.912 2.725 2.725 7.187 2.725 9.912 0 2.725-2.725 2.725-7.187 0-9.912ZM11.458 71.458c1.944-1.944 5.14-1.944 7.084 0 1.944 1.945 1.944 5.14 0 7.084-1.945 1.944-5.14 1.944-7.084 0-1.944-1.945-1.944-5.14 0-7.084Zm8.498-1.414c-2.725-2.725-7.187-2.725-9.912 0-2.725 2.725-2.725 7.187 0 9.912 2.725 2.725 7.187 2.725 9.912 0 2.725-2.725 2.725-7.187 0-9.912Z" class="secondary"/>
  </g>
</svg>
