<svg xmlns="http://www.w3.org/2000/svg" width="96" height="96" fill="none" viewBox="0 0 96 96">
  <g fill-rule="evenodd" class="group" clip-rule="evenodd">
    <path fill="#3D3C3C" d="M15 24a9 9 0 1 1 18 0 9 9 0 0 1-18 0Zm9-11c-6.075 0-11 4.925-11 11s4.925 11 11 11 11-4.925 11-11-4.925-11-11-11Zm48 2a9 9 0 1 0 0 18 9 9 0 0 0 0-18Zm-11 9c0-6.075 4.925-11 11-11s11 4.925 11 11-4.925 11-11 11-11-4.925-11-11ZM48 39a9 9 0 1 0 0 18 9 9 0 0 0 0-18Zm-11 9c0-6.075 4.925-11 11-11s11 4.925 11 11-4.925 11-11 11-11-4.925-11-11Zm29-6a1 1 0 0 1 1-1h13.17c4.395 0 7.855 3.72 7.83 8.206l-.063 8.444A1 1 0 0 1 87 59H67a1 1 0 1 1 0-2h18.942L86 49.194C86.019 45.727 83.368 43 80.17 43H67a1 1 0 0 1-1-1Zm-37-1a1 1 0 1 1 0 2H15.83c-3.198 0-5.849 2.727-5.83 6.194L10.058 57H29a1 1 0 1 1 0 2H9a1 1 0 0 1-.937-1.35L8 49.206C7.976 44.718 11.435 41 15.83 41H29Z" class="primary"/>
    <path fill="#FF462D" d="M31 73.193v.001L31.062 81h33.876L65 73.194C65.02 69.785 62.233 67 58.735 67h-21.47c-3.498 0-6.284 2.785-6.265 6.193Zm35.933 8.447L67 73.208v-.002C67.026 68.66 63.314 65 58.735 65h-21.47c-4.58 0-8.291 3.66-8.265 8.206v.002l.07 8.8a1 1 0 0 0 1 .992H66a1 1 0 0 0 .933-1.36Z" class="secondary"/>
  </g>
</svg>
