<svg xmlns="http://www.w3.org/2000/svg" width="96" height="96" fill="none" viewBox="0 0 96 96">
  <g fill-rule="evenodd" class="growth-crop" clip-rule="evenodd">
    <path fill="#3D3C3C" d="M79.422 10c-17.364.95-27.258 8.458-32.646 17.375-4.293 7.104-5.765 15.17-5.776 21.68v.144a40.39 40.39 0 0 0 .177 3.755c18.25-.222 28.331-7.23 33.612-15.878C80.193 28.225 80.683 17.47 79.422 10ZM39 54.952a1.5 1.5 0 0 1-.037 0c-7.712-.106-13.438-1.405-17.673-3.62-4.257-2.227-6.951-5.352-8.628-8.99-1.664-3.612-2.31-7.697-2.543-11.845-.17-3.044-.121-6.186-.073-9.23.017-1.089.034-2.165.04-3.22a2.005 2.005 0 0 1 1.855-1.977c6.958-.514 12.318.788 16.424 3.29 4.104 2.502 6.868 6.148 8.728 10.177 1.446 3.13 2.356 6.514 2.93 9.819.915-4.337 2.51-8.828 5.04-13.016 5.75-9.513 16.263-17.355 34.257-18.337.963-.053 1.894.601 2.068 1.627 1.32 7.778.85 19.085-4.892 28.488C70.78 47.48 59.95 54.776 41 54.956v26.003a1 1 0 0 1-2 0V54.952ZM27.325 21.07c-3.684-2.245-8.61-3.493-15.235-3.004l-.004.003c-.007 1.094-.024 2.194-.041 3.295-.048 3.022-.096 6.055.071 9.022.227 4.038.85 7.836 2.363 11.12 1.501 3.259 3.894 6.043 7.738 8.054 3.867 2.023 9.255 3.29 16.774 3.393h.004l.002-.002H39c-.012-5.756-.23-15.014-3.721-22.574-1.737-3.76-4.266-7.06-7.953-9.307Z" class="primary"/>
    <path fill="#FF462D" d="M40 82c-5.596 0-11.259 1.913-19.567 5.901a1 1 0 0 1-.866-1.802C27.926 82.085 33.93 80 40 80s12.075 2.087 20.433 6.099a1 1 0 0 1-.865 1.802C51.259 83.915 45.597 82 40 82Z" class="secondary"/>
  </g>
</svg>
