<svg xmlns="http://www.w3.org/2000/svg" width="96" height="96" fill="none" viewBox="0 0 96 96">
  <g fill-rule="evenodd" class="health" clip-rule="evenodd">
    <path fill="#FF462D" d="M43.381 29a1 1 0 0 1 .911.663L51.56 50H81a1 1 0 1 1 0 2H50.855a1 1 0 0 1-.941-.663l-6.648-18.6-7.99 18.657a1 1 0 0 1-.92.606H15a1 1 0 1 1 0-2h18.697l8.734-20.394a1 1 0 0 1 .95-.606Z" class="secondary"/>
    <path fill="#3D3C3C" d="M40.916 16.065c-3.687-2.604-8.6-4.776-14.101-3.845h-.002c-4.239.71-7.647 3.172-10.237 6.035-2.59 2.865-4.303 6.07-5.147 8.12-3.083 7.52-1.117 16.161 5.36 25.926 6.379 9.616 17.02 20.139 31.013 31.415C61.8 72.42 72.542 61.814 79.025 52.12c6.586-9.847 8.65-18.554 5.58-26.056-.848-2.04-2.56-5.103-5.145-7.83-2.584-2.726-5.991-5.067-10.24-5.78-5.49-.923-10.406 1.197-14.096 3.741-3.687 2.541-6.032 5.427-6.314 5.794a1 1 0 0 1-1.586 0c-.29-.378-2.628-3.325-6.308-5.924Zm7.108 3.755a34.449 34.449 0 0 0-5.954-5.389c-3.903-2.756-9.353-5.238-15.588-4.183-4.827.809-8.613 3.595-11.39 6.666-2.776 3.07-4.601 6.485-5.513 8.7v.002c-3.449 8.41-1.096 17.78 5.544 27.79 6.643 10.017 17.695 20.862 32.054 32.374a1 1 0 0 0 1.252 0C62.787 74.248 73.94 63.32 80.688 53.232c6.74-10.078 9.209-19.52 5.768-27.927l-.002-.006c-.926-2.226-2.762-5.508-5.543-8.441-2.783-2.937-6.56-5.57-11.359-6.377M48.024 19.82a34.102 34.102 0 0 1 5.965-5.271c3.908-2.695 9.354-5.111 15.563-4.068" class="primary"/>
  </g>
</svg>
