<svg xmlns="http://www.w3.org/2000/svg" width="96" height="96" fill="none" viewBox="0 0 96 96">
  <g fill-rule="evenodd" class="ID" clip-rule="evenodd">
    <path fill="#3D3C3C" d="M26.28 10C22.235 10 19 13.19 19 17.073v61.854C19 82.81 22.235 86 26.28 86h43.44c4.045 0 7.28-3.19 7.28-7.073V17.073C77 13.19 73.765 10 69.72 10H26.28ZM17 17.073C17 12.038 21.179 8 26.28 8h43.44C74.821 8 79 12.038 79 17.073v61.854C79 83.962 74.821 88 69.72 88H26.28C21.179 88 17 83.962 17 78.927V17.073ZM47.5 20a6.5 6.5 0 1 0 0 13 6.5 6.5 0 0 0 0-13ZM39 26.5a8.5 8.5 0 1 1 17 0 8.5 8.5 0 0 1-17 0Zm-5 19.18c-.015-1.274.61-2.43 1.634-3.293 1.03-.869 2.408-1.387 3.743-1.387h16.807c2.719 0 4.832 1.838 4.816 4.408V52H34v-6.32ZM39.377 39c-1.824 0-3.654.696-5.032 1.858-1.383 1.166-2.366 2.854-2.345 4.84V53a1 1 0 0 0 1 1h29a1 1 0 0 0 1-1v-7.583C63.022 41.524 59.782 39 56.184 39H39.377Z" class="primary"/>
    <path fill="#FF462D" d="M33 62a1 1 0 1 0 0 2h29a1 1 0 1 0 0-2H33Zm0 8a1 1 0 1 0 0 2h29a1 1 0 1 0 0-2H33Z" class="secondary"/>
  </g>
</svg>
