<svg xmlns="http://www.w3.org/2000/svg" width="96" height="96" fill="none" viewBox="0 0 96 96">
  <g fill-rule="evenodd" class="integrated-AIOps" clip-rule="evenodd">
    <path fill="#3D3C3C" d="M41.74 8.01c-1.735 0-3.086 1.453-3.086 3.165v6.6a29.404 29.404 0 0 0-7.04 3.017l-4.466-4.63a3.032 3.032 0 0 0-4.394 0l-6.896 7.148a3.217 3.217 0 0 0 0 4.452l4.504 4.668a31.787 31.787 0 0 0-2.937 7.347h-6.338C9.35 39.777 8 41.229 8 42.94v10.11c0 1.712 1.35 3.164 3.087 3.164h6.327a31.649 31.649 0 0 0 2.938 7.347l-4.503 4.668a3.217 3.217 0 0 0 0 4.452l6.895 7.148a3.032 3.032 0 0 0 4.394 0l4.467-4.63a29.537 29.537 0 0 0 7.04 3.015v6.602c0 1.712 1.35 3.164 3.086 3.164h4.877a1 1 0 0 0 0-2H41.73c-.565 0-1.087-.49-1.087-1.164v-7.37a1 1 0 0 0-.756-.97 27.53 27.53 0 0 1-7.914-3.395 1 1 0 0 0-1.252.152L25.7 78.44a1.033 1.033 0 0 1-1.516 0l-6.896-7.148a1.216 1.216 0 0 1 0-1.674l5.023-5.207a1 1 0 0 0 .143-1.2 29.645 29.645 0 0 1-3.283-8.225 1 1 0 0 0-.973-.772h-7.11c-.566 0-1.088-.49-1.088-1.164V42.94c0-.674.522-1.163 1.088-1.163h7.12a1 1 0 0 0 .973-.772 29.768 29.768 0 0 1 3.283-8.225 1 1 0 0 0-.143-1.2l-5.023-5.207a1.216 1.216 0 0 1 0-1.674l6.896-7.148a1.033 1.033 0 0 1 1.516 0l5.023 5.207a1 1 0 0 0 1.252.152 27.413 27.413 0 0 1 7.913-3.395 1 1 0 0 0 .756-.97v-7.37c0-.675.522-1.164 1.088-1.164h4.877a1 1 0 0 0 0-2H41.74Zm15.27 11.992a1 1 0 0 1 1 1v8a1 1 0 0 1-1 1H46.512c-9.725 0-17.495 7.929-17.495 18.003 0 10.075 7.779 18.003 17.495 18.003h10.496a1 1 0 0 1 1 1v8.001a1 1 0 1 1-2 0v-7h-9.496c-10.868 0-19.494-8.873-19.494-20.004 0-11.13 8.616-20.002 19.494-20.002h9.497v-7.001a1 1 0 0 1 1-1Zm7.997 7a1 1 0 0 1 1-1h5.498a1 1 0 0 1 0 2h-4.498v10.002a1 1 0 0 1-1 1H46.506c-4.775.004-8.491 3.92-8.491 9.001 0 5.084 3.72 9.002 8.497 9.002h19.495a1 1 0 0 1 1 1v10.001h4.498a1 1 0 0 1 0 2h-5.498a1 1 0 0 1-1-1V59.007H46.512c-5.989 0-10.496-4.923-10.496-11.002 0-6.078 4.507-11.001 10.496-11.001h18.495V27.003ZM44.014 47.006a1 1 0 0 1 1-1h30.653a1 1 0 0 1 0 2H45.013a1 1 0 0 1-1-1Z" class="primary"/>
    <path fill="#FF462D" d="M57.002 10.011a4.5 4.5 0 0 0-4.499 4.5 4.5 4.5 0 1 0 4.499-4.5Zm-6.498 4.5a6.5 6.5 0 0 1 6.498-6.5 6.5 6.5 0 0 1 6.498 6.5 6.5 6.5 0 0 1-6.498 6.502 6.5 6.5 0 0 1-6.498-6.501Zm26.994 7.49a4.5 4.5 0 0 0-4.499 4.5 4.5 4.5 0 1 0 4.499-4.5ZM71 26.5a6.5 6.5 0 0 1 6.498-6.5 6.5 6.5 0 0 1 6.498 6.5 6.5 6.5 0 0 1-6.498 6.502A6.5 6.5 0 0 1 71 26.5Zm6.003 20.004a4.5 4.5 0 1 1 4.499 4.5 4.5 4.5 0 0 1-4.499-4.5Zm4.499-6.5a6.5 6.5 0 0 0-6.498 6.5 6.5 6.5 0 0 0 6.498 6.501 6.5 6.5 0 0 0 6.498-6.5 6.5 6.5 0 0 0-6.498-6.502Zm-24.5 37.004a4.5 4.5 0 0 0-4.499 4.501 4.5 4.5 0 1 0 4.499-4.5Zm-6.498 4.501a6.5 6.5 0 0 1 6.498-6.5 6.5 6.5 0 0 1 6.498 6.5 6.5 6.5 0 0 1-6.498 6.5 6.5 6.5 0 0 1-6.498-6.5ZM72.999 68.5a4.5 4.5 0 1 1 4.499 4.501 4.5 4.5 0 0 1-4.499-4.5Zm4.499-6.5A6.5 6.5 0 0 0 71 68.5a6.5 6.5 0 0 0 6.498 6.502 6.5 6.5 0 0 0 6.498-6.501A6.5 6.5 0 0 0 77.498 62Z" class="secondary"/>
  </g>
</svg>
