<svg xmlns="http://www.w3.org/2000/svg" width="96" height="94" fill="none" viewBox="0 0 96 94">
  <g class="Size=L">
    <g class="Icon">
      <path fill="#3D3C3C" d="M57.938 9.882c.988-1.782 3.235-2.423 4.996-1.381V8.5l9.563 5.478a1 1 0 0 1-.994 1.736l-9.563-5.479-.017-.01c-.77-.461-1.783-.194-2.238.632l-.005.009-3.454 6.115v.001c-.73 1.296-2.176 2.09-3.703 1.825v.001A28.187 28.187 0 0 0 48 18.441c-1.544 0-3.052.129-4.523.367h-.002c-1.508.24-2.961-.512-3.702-1.826l-3.453-6.116v-.001c-.47-.83-1.472-1.089-2.25-.637l.001.001-10.106 5.965a1.77 1.77 0 0 0-.695 2.209l.079.155.003.007 3.454 6.136.129.249a3.777 3.777 0 0 1-.261 3.685l-.166.23-.01.013c-1.92 2.381-3.446 5.097-4.542 8.058v.003a3.63 3.63 0 0 1-3.396 2.36h-6.887c-.895 0-1.673.752-1.673 1.736v11.93c0 .974.768 1.735 1.673 1.735h6.887c1.49 0 2.874.907 3.396 2.363l.21.552a29.124 29.124 0 0 0 4.335 7.51l.168.228c.737 1.09.819 2.515.265 3.696l-.128.25-3.454 6.135-.08.162c-.334.76-.087 1.649.547 2.115l.142.092.004.002L34.07 83.77l.006.004.147.078a1.613 1.613 0 0 0 2.091-.71l.005-.009 3.454-6.117c.734-1.3 2.186-2.094 3.718-1.823a28.18 28.18 0 0 0 4.508.365c1.544 0 3.052-.128 4.523-.367h.002l.284-.034c1.317-.101 2.549.556 3.267 1.619l.146.233.004.007 3.453 6.116.094.15c.502.713 1.43.913 2.16.486l.007-.004 9.563-5.478a1 1 0 0 1 .994 1.735L62.935 85.5l-.001-.001c-1.702.988-3.847.44-4.898-1.218l-.099-.164-3.449-6.11-.07-.114c-.37-.546-.987-.821-1.576-.728a30.177 30.177 0 0 1-4.842.393c-1.656 0-3.27-.137-4.843-.392l-.007-.002-.006-.001c-.614-.109-1.269.199-1.628.836l-3.453 6.118-.002-.001c-.99 1.788-3.25 2.43-5.012 1.374v-.001l-10.1-5.961v-.001c-1.747-1.023-2.343-3.3-1.339-5.076l3.454-6.134v-.001l.061-.12c.284-.609.203-1.334-.186-1.822v-.001a31.142 31.142 0 0 1-4.859-8.617l-.005-.012A1.592 1.592 0 0 0 18.56 56.7h-6.887C9.613 56.7 8 54.99 8 52.964v-11.93C8 38.98 9.64 37.3 11.673 37.3h6.887a1.63 1.63 0 0 0 1.521-1.06c1.166-3.149 2.795-6.051 4.85-8.605l.077-.105a1.779 1.779 0 0 0 .056-1.846l-3.455-6.136v-.002c-1.009-1.768-.394-4.034 1.333-5.07l.006-.004 10.107-5.965.004-.001.166-.092c1.73-.896 3.857-.263 4.837 1.47L41.517 16l.069.114c.364.547.975.814 1.572.72l.592-.09a30.096 30.096 0 0 1 8.502 0l.592.09.007.002h.006c.614.11 1.269-.198 1.628-.835V16l3.453-6.118Zm6.915 43.123a1 1 0 0 1 .897.995v12H75a1 1 0 1 1 0 2H64.75a1 1 0 0 1-1-1V55H40a1 1 0 1 1 0-2h24.75l.103.005ZM75 45a1 1 0 1 1 0 2H49a1 1 0 1 1 0-2h26Zm.103-20.995a1 1 0 0 1 0 1.99L75 26h-7.654v12a1 1 0 0 1-1 1H40a1 1 0 1 1 0-2h25.346V25l.005-.103a1 1 0 0 1 .995-.897H75l.103.005Z" class="primary"/>
      <path fill="#FF462D" d="M81 60a7 7 0 1 1 0 14 7 7 0 0 1 0-14Zm0 2a5 5 0 1 0 0 10 5 5 0 0 0 0-10Zm0-23a7 7 0 1 1 0 14 7 7 0 0 1 0-14Zm0 2a5 5 0 1 0 0 10 5 5 0 0 0 0-10Zm0-23a7 7 0 1 1 0 14 7 7 0 0 1 0-14Zm0 2a5 5 0 1 0 0 10 5 5 0 0 0 0-10Z" class="secondary"/>
    </g>
  </g>
</svg>
