<svg xmlns="http://www.w3.org/2000/svg" width="96" height="96" fill="none" viewBox="0 0 96 96">
  <g fill-rule="evenodd" class="key" clip-rule="evenodd">
    <path fill="#FF462D" d="M54.51 22.415c3.647-4.158 9.974-4.548 14.116-.905 4.16 3.627 4.547 9.956.906 14.097-3.59 4.117-9.832 4.563-13.977 1.03a1.004 1.004 0 0 1-.142-.106c-4.131-3.644-4.548-9.97-.902-14.116Zm12.797.598c-3.316-2.918-8.379-2.602-11.293.72l-.001.002c-2.883 3.278-2.59 8.269.616 11.2.044.029.087.06.127.096 3.314 2.915 8.375 2.582 11.27-.74l.003-.003c2.918-3.319 2.6-8.38-.718-11.272l-.004-.003Z" class="secondary"/>
    <path fill="#3D3C3C" d="M39.926 18.512c9.147-10.394 25.033-11.41 35.478-2.27 10.423 9.138 11.446 24.993 2.28 35.407-6.492 7.354-16.334 10.002-25.223 7.693a1 1 0 0 0-1.001.307L47 64.707l-8.76 1.01a1 1 0 0 0-.885.997l.035 8.353-8.093.755a1 1 0 0 0-.905.923l-.674 9.296h-15.7L12 71.987l23.33-26.49a1 1 0 0 0 .176-1.036c-3.443-8.501-2.072-18.575 4.42-25.949Zm-6.499 26.121L10.373 70.81a1 1 0 0 0-.373.78l.02 15.454a1 1 0 0 0 1 .998h17.629a1 1 0 0 0 .997-.927l.68-9.38 8.162-.76a1 1 0 0 0 .907-1L39.36 67.6l8.252-.951a1 1 0 0 0 .636-.333l4.31-4.89c9.43 2.22 19.761-.678 26.626-8.455v-.002c9.898-11.243 8.794-28.364-2.461-38.232h-.001C65.451 4.874 48.303 5.965 38.425 17.19c-6.864 7.796-8.424 18.39-4.998 27.442Zm5.343 8.051a1 1 0 0 0-1.49-1.334l-17 19a1 1 0 1 0 1.49 1.334l17-19Z" class="primary"/>
  </g>
</svg>
