<svg xmlns="http://www.w3.org/2000/svg" width="96" height="96" fill="none" viewBox="0 0 96 96">
  <g fill-rule="evenodd" class="lightbulb" clip-rule="evenodd">
    <g fill="#3D3C3C" class="primary">
      <path d="M48.325 22C60.822 21.91 71 31.867 71 44.186v1h-.032c-.28 6.212-3.154 11.762-7.572 15.615-2.777 2.43-4.361 5.9-4.361 9.544 0 2.03-1.672 3.656-3.696 3.656H41.652c-2.022 0-3.697-1.614-3.697-3.656 0-3.646-1.585-7.124-4.36-9.543V60.8C28.961 56.753 26.02 50.842 26 44.256m22.34-20.255c11.199-.082 20.31 8.662 20.65 19.553L48.34 24.001Zm20.65 19.553v.631c0 6.008-2.668 11.41-6.909 15.108l-.001.001c-3.206 2.805-5.045 6.82-5.045 11.05 0 .897-.749 1.656-1.696 1.656H41.652c-.95 0-1.697-.751-1.697-1.656 0-4.228-1.838-8.254-5.045-11.05-4.223-3.69-6.891-9.064-6.91-15.044C27.963 33.2 37.09 24.084 48.34 24m-.015-2C36 22.093 25.96 32.078 26 44.257l22.325-22.255Z"/>
      <path d="M40 72a1 1 0 0 1 1 1v8.854C41 84.109 42.918 86 45.368 86h6.264C54.09 86 56 84.102 56 81.854V73a1 1 0 1 1 2 0v8.854C58 85.283 55.116 88 51.632 88h-6.264C41.896 88 39 85.295 39 81.854V73a1 1 0 0 1 1-1Z"/>
    </g>
    <path fill="#FF462D" d="M49 9a1 1 0 1 0-2 0v6a1 1 0 1 0 2 0V9ZM20.293 20.293a1 1 0 0 1 1.414 0l4 4a1 1 0 0 1-1.414 1.414l-4-4a1 1 0 0 1 0-1.414ZM13 48a1 1 0 0 1 1-1h6a1 1 0 1 1 0 2h-6a1 1 0 0 1-1-1Zm62 0a1 1 0 0 1 1-1h6a1 1 0 1 1 0 2h-6a1 1 0 0 1-1-1Zm-7.293 18.293a1 1 0 0 0-1.414 1.414l4 4a1 1 0 0 0 1.414-1.414l-4-4Zm8-44.586a1 1 0 0 0-1.414-1.414l-4 4a1 1 0 0 0 1.414 1.414l4-4Zm-46 44.586a1 1 0 0 1 0 1.414l-4 4a1 1 0 0 1-1.414-1.414l4-4a1 1 0 0 1 1.414 0Z" class="secondary"/>
  </g>
</svg>
