<svg xmlns="http://www.w3.org/2000/svg" width="96" height="96" fill="none" viewBox="0 0 96 96">
  <g class="lock">
    <path fill="#FF462D" fill-rule="evenodd" d="M47.979 15C39.773 15 33 22.075 33 30.907V37a1 1 0 1 1-2 0v-6.093C31 21.078 38.563 13 47.979 13c4.712 0 8.979 2.04 12.053 5.28C63.108 21.522 65 25.995 65 30.93V37a1 1 0 1 1-2 0v-6.07c0-4.419-1.692-8.4-4.419-11.273C55.853 16.781 52.098 15 47.98 15Z" class="secondary" clip-rule="evenodd"/>
    <path fill="#3D3C3C" d="M48 82.99c-7.76 0-15.51-.41-21.99-1.22-1.72-.21-3.01-1.79-3.01-3.69V40.91c0-1.87 1.29-3.45 3.01-3.69 12.95-1.63 31.04-1.63 43.98 0 1.72.21 3.01 1.79 3.01 3.69v37.16c0 1.87-1.29 3.46-3 3.69-6.47.82-14.23 1.22-21.99 1.22l-.01.01ZM48 38c-7.67 0-15.34.4-21.73 1.21-.72.1-1.26.83-1.26 1.71v37.16c0 .87.55 1.62 1.26 1.7 12.8 1.62 30.68 1.62 43.47 0 .72-.1 1.27-.83 1.27-1.71V40.91c0-.87-.55-1.62-1.26-1.71-6.4-.81-14.07-1.21-21.74-1.21L48 38Z" class="primary"/>
  </g>
</svg>
