<svg xmlns="http://www.w3.org/2000/svg" width="96" height="96" fill="none" viewBox="0 0 96 96">
  <g fill-rule="evenodd" class="mail" clip-rule="evenodd">
    <path fill="#FF462D" d="M9.142 22.487a1 1 0 0 1 1.372-.345L45.967 43.36a.982.982 0 0 1 .043.027c1.224.819 3.058.819 4.283 0a.584.584 0 0 1 .053-.033l35.151-20.448a1 1 0 0 1 1.006 1.729L51.377 45.066c-1.888 1.247-4.57 1.245-6.457-.003L9.487 23.858a1 1 0 0 1-.345-1.371Z" class="secondary"/>
    <path fill="#3D3C3C" d="M11.847 22A1.84 1.84 0 0 0 10 23.834v48.332A1.84 1.84 0 0 0 11.847 74h72.306A1.84 1.84 0 0 0 86 72.166V23.834A1.84 1.84 0 0 0 84.153 22H11.847ZM8 23.834A3.84 3.84 0 0 1 11.847 20h72.306A3.84 3.84 0 0 1 88 23.834v48.332A3.84 3.84 0 0 1 84.153 76H11.847A3.84 3.84 0 0 1 8 72.166V23.834Z" class="primary"/>
  </g>
</svg>
