<svg xmlns="http://www.w3.org/2000/svg" width="96" height="96" fill="none" viewBox="0 0 96 96">
  <g fill-rule="evenodd" class="map" clip-rule="evenodd">
    <path fill="#FF462D" d="M48 23c-4.971 0-9 4.017-9 9s4.029 9 9 9c4.97 0 9-4.04 9-9 0-4.983-4.029-9-9-9Zm-11 9c0-6.09 4.926-11 11-11s11 4.91 11 11c0 6.063-4.925 11-11 11-6.074 0-11-4.91-11-11Z" class="secondary"/>
    <path fill="#3D3C3C" d="M26 32.068C26 19.877 35.866 10 48 10s22 9.877 22 22.068c0 4.258-1.378 8.959-3.505 13.662-2.123 4.693-4.962 9.322-7.816 13.419A136.206 136.206 0 0 1 48 72.529l-.249-.272A136.331 136.331 0 0 1 37.31 59.138c-2.855-4.099-5.695-8.729-7.816-13.42-2.126-4.702-3.5-9.399-3.493-13.649v-.002Zm21.038 42.368a.999.999 0 0 0-.038.273v10.906l-19-6.292V50.36l1.642.63c.092.035.186.055.279.063 1.764 3.246 3.759 6.374 5.748 9.228a138.354 138.354 0 0 0 10.6 13.319 83.756 83.756 0 0 0 .769.836Zm-18.473-26-.963-.37a1 1 0 0 0-.711-.002L8.647 54.95a1 1 0 0 0-.647.936V87a1 1 0 0 0 1.362.932l17.603-6.845 20.719 6.862.011.004c.207.066.42.061.612-.001l21.837-6.768a1 1 0 0 0 .488.413l16 6.333A1 1 0 0 0 88 87V55.885a1 1 0 0 0-.635-.93l-17.54-6.886a1 1 0 0 0-.657-.026l-1.82.556c.336-.679.66-1.36.97-2.045C70.502 41.724 72 36.725 72 32.068 72 18.777 61.243 8 48 8S24 18.776 24 32.067c-.007 4.65 1.487 9.645 3.67 14.475.287.633.585 1.264.895 1.893Zm37.508 2.617c-1.765 3.25-3.762 6.382-5.752 9.24A138.234 138.234 0 0 1 49.729 73.6c-.317.35-.568.621-.739.805l-.028.03a1 1 0 0 1 .038.273v10.934l20-6.199V50.186l-2.708.826a1.002 1.002 0 0 1-.219.041ZM71 79.666V50.68l15 5.888V85.53l-14.632-5.792a.996.996 0 0 0-.368-.07Zm-61-23.09 16-6.038v28.778l-16 6.222V56.576Z" class="primary"/>
  </g>
</svg>
