<svg xmlns="http://www.w3.org/2000/svg" width="96" height="96" fill="none" viewBox="0 0 96 96">
  <g fill-rule="evenodd" class="marketplace" clip-rule="evenodd">
    <path fill="#FF462D" d="M38.75 53C36.136 53 34 55.138 34 57.776V86h28V57.776C62 55.138 59.865 53 57.25 53h-18.5ZM32 57.776C32 54.04 35.022 51 38.75 51h18.5c3.728 0 6.75 3.041 6.75 6.776V87a1 1 0 0 1-1 1H33a1 1 0 0 1-1-1V57.776Z" class="secondary"/>
    <path fill="#3D3C3C" d="m10.01 31.532 2.637-15.204c.65-3.75 3.568-6.328 6.843-6.328h57.02c3.266 0 6.193 2.579 6.843 6.328L86 31.586C85.953 35.105 82.965 38 79.2 38a6.997 6.997 0 0 1-4.096-1.307c-2.251-1.624-5.148-1.621-7.406 0A6.997 6.997 0 0 1 63.603 38a6.996 6.996 0 0 1-4.095-1.307c-2.251-1.624-5.149-1.621-7.407 0A6.997 6.997 0 0 1 48.005 38a6.996 6.996 0 0 1-4.095-1.307c-2.251-1.624-5.15-1.621-7.407 0A6.997 6.997 0 0 1 32.407 38a6.996 6.996 0 0 1-4.095-1.307c-2.251-1.624-5.15-1.621-7.407 0A6.996 6.996 0 0 1 16.809 38c-3.783 0-6.783-2.934-6.8-6.468Zm.996 6.357c-1.797-1.522-2.95-3.742-2.995-6.238a1 1 0 0 1 .004-.32l2.661-15.345C11.468 11.424 15.102 8 19.49 8h57.02c4.378 0 8.022 3.423 8.814 7.986l2.661 15.346c.01.056.015.113.015.17 0 2.567-1.168 4.847-3.005 6.398.003.033.005.066.005.1v40.94c0 5.007-4.055 9.06-9.054 9.06H20.054c-5 0-9.054-4.064-9.054-9.06V38c0-.038.002-.075.006-.111ZM13 39.163V78.94c0 3.894 3.161 7.06 7.054 7.06h55.892A7.056 7.056 0 0 0 83 78.94V39.17a9.035 9.035 0 0 1-3.799.83c-1.97 0-3.79-.626-5.263-1.683l-.002-.001c-1.55-1.12-3.507-1.121-5.07 0A8.996 8.996 0 0 1 63.603 40a8.996 8.996 0 0 1-5.263-1.683l-.002-.001c-1.55-1.12-3.507-1.121-5.07.001A8.996 8.996 0 0 1 48.004 40c-1.97 0-3.79-.626-5.263-1.683l-.002-.001c-1.55-1.12-3.508-1.121-5.07.001A8.996 8.996 0 0 1 32.406 40a8.996 8.996 0 0 1-5.263-1.683l-.002-.001c-1.55-1.12-3.508-1.121-5.07.001A8.996 8.996 0 0 1 16.808 40c-1.36 0-2.654-.3-3.809-.837Z" class="primary"/>
  </g>
</svg>
