<svg xmlns="http://www.w3.org/2000/svg" width="96" height="96" fill="none" viewBox="0 0 96 96">
  <g fill-rule="evenodd" class="network-&amp;-edge" clip-rule="evenodd">
    <path fill="#3D3C3C" d="M48 17.98c-14.934 0-28.48 6.019-38.294 15.73a1.006 1.006 0 0 1-1.414 0 .983.983 0 0 1 .001-1.4C18.466 22.244 32.513 16 48 16c15.487 0 29.534 6.244 39.707 16.31a.983.983 0 0 1 0 1.4 1.006 1.006 0 0 1-1.413 0C76.48 24 62.934 17.98 48 17.98Zm-.5 18.073c-9.673 0-18.444 4.08-24.805 10.647a.97.97 0 0 1-1.405-.001 1.051 1.051 0 0 1 .001-1.452C28.007 38.314 37.275 34 47.5 34c10.224 0 19.502 4.303 26.21 11.248a1.051 1.051 0 0 1-.001 1.452.97.97 0 0 1-1.405-.001c-6.35-6.576-15.13-10.646-24.804-10.646ZM34.734 57.704A19.468 19.468 0 0 1 48.5 52.02a19.45 19.45 0 0 1 13.766 5.683 1.02 1.02 0 0 0 1.436.002 1.006 1.006 0 0 0 .002-1.428A21.487 21.487 0 0 0 48.5 50c-5.928 0-11.306 2.4-15.203 6.276a1.006 1.006 0 0 0 0 1.428 1.02 1.02 0 0 0 1.437 0Z" class="primary"/>
    <path fill="#FF462D" d="M48 65a5.94 5.94 0 0 0-4.235 1.76l-.005.005A5.94 5.94 0 0 0 42 71a6 6 0 1 0 12 0 5.94 5.94 0 0 0-1.76-4.235l-.005-.005A5.94 5.94 0 0 0 48 65Zm-5.652.348A7.94 7.94 0 0 1 48 63a7.94 7.94 0 0 1 5.652 2.348A7.94 7.94 0 0 1 56 71a8 8 0 0 1-8 8 8 8 0 0 1-8-8 7.94 7.94 0 0 1 2.348-5.652Z" class="secondary"/>
  </g>
</svg>
