<svg xmlns="http://www.w3.org/2000/svg" width="96" height="96" fill="none" viewBox="0 0 96 96">
  <g fill-rule="evenodd" class="network" clip-rule="evenodd">
    <path fill="#FF462D" d="M9.127 38.008a1 1 0 0 0-.254 1.984c11.613 1.482 20.638 5.174 27.125 11.357 6.48 6.177 10.53 14.94 12.01 26.775a1 1 0 1 0 1.984-.248c-1.52-12.166-5.72-21.402-12.614-27.975-6.889-6.567-16.364-10.376-28.251-11.893ZM8.013 54.842a1 1 0 0 1 1.145-.83c6.27 1.005 11.715 3.322 15.984 7.237 4.273 3.918 7.3 9.375 8.836 16.541a1 1 0 0 1-1.956.42c-1.464-6.834-4.315-11.896-8.231-15.487-3.92-3.595-8.976-5.778-14.95-6.736a1 1 0 0 1-.828-1.145Zm.017 16.915a1 1 0 0 1 1.213-.727c3.358.84 5.888 3.37 6.727 6.727a1 1 0 1 1-1.94.486c-.66-2.642-2.63-4.612-5.272-5.273a1 1 0 0 1-.728-1.213Z" class="secondary"/>
    <path fill="#3D3C3C" d="M17.66 19C13.407 19 10 22.34 10 26.429a1 1 0 1 1-2 0C8 21.183 12.356 17 17.66 17h60.68c5.325 0 9.66 4.2 9.66 9.423v42.154C88 73.823 83.643 78 78.34 78H62.444a1 1 0 0 1 0-2H78.34c4.254 0 7.66-3.336 7.66-7.423V26.423C86 22.353 82.61 19 78.34 19H17.66Z" class="primary"/>
  </g>
</svg>
