<svg xmlns="http://www.w3.org/2000/svg" width="96" height="96" fill="none" viewBox="0 0 96 96">
  <g class="Size=L">
    <g fill-rule="evenodd" class="Icon" clip-rule="evenodd">
      <path fill="#3D3C3C" d="M30.593 11.339C29.603 12.17 29 13.282 29 14.5v62.999c0 3.49-1.704 6.59-4.332 8.501h56.72C83.932 86 86 83.899 86 81.294V14.706C86 12.079 83.91 10 81.388 10H34.235a5.776 5.776 0 0 0-3.642 1.339ZM27 14.5V46H9a1 1 0 0 0-1 1v30.499c0 5.573 4.329 10.107 9.78 10.477.07.016.144.024.22.024h63.388C85.074 88 88 84.966 88 81.294V14.706C88 10.999 85.04 8 81.388 8H34.235c-1.8 0-3.585.678-4.929 1.808C27.957 10.94 27 12.58 27 14.5Zm0 62.999C27 82.184 23.208 86 18.5 86a8.498 8.498 0 0 1-8.5-8.501V48h17v29.499ZM43 21a3 3 0 0 0-3 3v16a3 3 0 0 0 3 3h29a3 3 0 0 0 3-3V24a3 3 0 0 0-3-3H43Zm-1 3a1 1 0 0 1 1-1h29a1 1 0 0 1 1 1v16a1 1 0 0 1-1 1H43a1 1 0 0 1-1-1V24Z" class="primary"/>
      <path fill="#FF462D" d="M41 56a1 1 0 1 0 0 2h33a1 1 0 1 0 0-2H41Zm0 16a1 1 0 1 0 0 2h33a1 1 0 1 0 0-2H41Z" class="secondary"/>
    </g>
  </g>
</svg>
