<svg xmlns="http://www.w3.org/2000/svg" width="96" height="96" fill="none" viewBox="0 0 96 96">
  <g fill-rule="evenodd" class="notification" clip-rule="evenodd">
    <path fill="#3D3C3C" d="M47.997 8c-4.386 0-8 3.431-8 7.73v6.03c-6.791 3.144-11.502 10.166-11.502 18.295v14.378l-10.432 13.44C15.556 71.106 17.745 76 21.898 76h52.197c4.154 0 6.34-4.882 3.837-8.126l-10.424-13.44v-14.38c0-8.131-4.715-15.156-11.511-18.299v-6.024c0-4.311-3.626-7.731-8-7.731Zm6 12.964V15.73c0-3.132-2.654-5.731-6-5.731-3.355 0-6 2.607-6 5.73v5.237A19.016 19.016 0 0 1 48 20c2.093 0 4.108.338 5.996.964Zm-23.502 19.09c0-10 7.864-18.054 17.506-18.054 9.643 0 17.507 8.055 17.507 18.055v15.063l10.84 13.978C77.91 71.119 76.47 74 74.095 74H21.898c-2.376 0-3.814-2.89-2.254-4.903l10.851-13.979V40.055Z" class="primary"/>
    <path fill="#FF462D" d="M37.655 79.06a1 1 0 0 1 1.282.599A9.636 9.636 0 0 0 47.997 86a9.636 9.636 0 0 0 9.06-6.341 1 1 0 0 1 1.88.683C57.313 84.805 53.035 88 47.996 88c-5.04 0-9.317-3.195-10.94-7.658a1 1 0 0 1 .598-1.281Z" class="secondary"/>
  </g>
</svg>
