<svg xmlns="http://www.w3.org/2000/svg" width="96" height="96" fill="none" viewBox="0 0 96 96">
  <g fill-rule="evenodd" class="open-developer" clip-rule="evenodd">
    <path fill="#FF462D" d="M51.963 37.27a1 1 0 0 0-1.926-.539l-9.5 34a1 1 0 0 0 1.926.538l9.5-34Zm-19.271 5.019a.998.998 0 0 1 .015 1.428L22.464 54l10.243 10.283a.998.998 0 0 1-.015 1.428 1.039 1.039 0 0 1-1.452-.014l-10.947-10.99a.998.998 0 0 1 0-1.414l10.947-10.99a1.039 1.039 0 0 1 1.452-.014Zm28.616 0a1.038 1.038 0 0 1 1.45.014l10.949 10.99a1 1 0 0 1 0 1.414l-10.948 10.99a1.038 1.038 0 0 1-1.451.014 1 1 0 0 1-.014-1.428L71.537 54 61.293 43.717a1 1 0 0 1 .015-1.428Z" class="secondary"/>
    <path fill="#3D3C3C" d="M8 17.472C8 12.302 12.009 8 17.093 8h61.814C83.991 8 88 12.303 88 17.472v60.602C88 83.464 84.018 88 78.91 88H17.09C11.983 88 8 83.465 8 78.074V17.472Zm78.049 0V25H9.95v-7.528c0-4.225 3.25-7.55 7.142-7.55h61.814c3.892 0 7.142 3.325 7.142 7.55Zm0 9.528H9.95v51.074c0 4.482 3.275 7.964 7.14 7.964h61.818c3.865 0 7.14-3.482 7.14-7.964V27ZM20.507 17h.986c.832 0 1.507.62 1.507 1.383v1.234c0 .764-.675 1.383-1.507 1.383h-.986C19.675 21 19 20.38 19 19.617v-1.234c0-.764.675-1.383 1.507-1.383Zm9.986 0h-.986c-.832 0-1.507.62-1.507 1.383v1.234c0 .764.675 1.383 1.507 1.383h.986c.832 0 1.507-.62 1.507-1.383v-1.234c0-.764-.675-1.383-1.507-1.383Zm8.014 0h.986c.832 0 1.507.62 1.507 1.383v1.234c0 .764-.675 1.383-1.507 1.383h-.986C37.675 21 37 20.38 37 19.617v-1.234c0-.764.675-1.383 1.507-1.383Z" class="primary"/>
  </g>
</svg>
