<svg xmlns="http://www.w3.org/2000/svg" width="96" height="96" fill="none" viewBox="0 0 96 96">
  <g fill-rule="evenodd" class="operation-policies" clip-rule="evenodd">
    <path fill="#3D3C3C" d="M75.27 20.146c-4.584-1.283-16.555-4.99-29.615-11.727a3.56 3.56 0 0 0-3.355.003C29.309 15.173 17.326 18.86 12.73 20.186c-1.57.432-2.73 1.767-2.73 3.377v32.228c0 5.495 3.869 10.514 8.695 14.7 4.87 4.224 10.951 7.802 15.844 10.393a1 1 0 0 0 .936-1.768c-4.85-2.568-10.772-6.061-15.47-10.136C15.264 64.868 12 60.362 12 55.79V23.564c0-.59.437-1.224 1.264-1.45l.014-.004c4.65-1.342 16.785-5.073 29.953-11.917l.02-.01c.436-.24.998-.246 1.468.005l.013.006c13.22 6.821 25.33 10.572 29.993 11.878.849.247 1.275.875 1.275 1.454V34.64a1 1 0 1 0 2 0V23.525c0-1.623-1.173-2.927-2.722-3.376l-.009-.003Zm-8.003 19.968a1 1 0 0 0-1.346.414l-2.364 4.413a18.366 18.366 0 0 0-6.216.216l-2.633-4.278a1 1 0 0 0-1.38-.325l-9.71 6.057a1 1 0 0 0-.323 1.371l2.617 4.265a19.699 19.699 0 0 0-1.705 2.65 18.997 18.997 0 0 0-1.25 2.895l-4.99.168A1 1 0 0 0 37 58.99l.344 11.5a1 1 0 0 0 1.033.969l5-.168a19.657 19.657 0 0 0 3.252 5.347l-2.462 4.558a1 1 0 0 0 .416 1.362l10.15 5.309a1 1 0 0 0 1.345-.414l2.364-4.413c2.07.286 4.15.2 6.147-.202l2.294 4.608a1 1 0 0 0 1.386.425l10.303-5.807a1 1 0 0 0 .375-1.372l-2.872-4.962a19.432 19.432 0 0 0 1.642-2.53 1 1 0 0 0 .078-.123 19.9 19.9 0 0 0 1.247-2.888l4.99-.168a1 1 0 0 0 .967-1v-11.02a1 1 0 0 0-.953-1l-5.402-.256a19.665 19.665 0 0 0-3.284-5.412l2.384-4.602a1 1 0 0 0-.424-1.346l-10.054-5.27Zm10.092 28.798a18.996 18.996 0 0 1-1.259 3.093 1.02 1.02 0 0 0-.064.104c-.57 1.05-1.203 2.023-1.931 2.876a1 1 0 0 0-.105 1.15l2.71 4.683-8.505 4.794-2.173-4.367a1 1 0 0 0-1.134-.525 16.36 16.36 0 0 1-6.822.236 1 1 0 0 0-1.06.512l-2.233 4.168-8.374-4.38 2.314-4.284a1 1 0 0 0-.146-1.155c-1.59-1.718-2.787-3.73-3.587-5.896a1 1 0 0 0-.972-.653l-4.704.158-.285-9.501 4.692-.158a1 1 0 0 0 .92-.698c.352-1.114.77-2.199 1.323-3.217.57-1.05 1.203-2.022 1.931-2.875a1 1 0 0 0 .092-1.173l-2.468-4.022 8.013-4.998 2.48 4.03a1 1 0 0 0 1.09.447 16.363 16.363 0 0 1 6.822-.236 1 1 0 0 0 1.06-.512l2.232-4.167 8.295 4.348-2.242 4.33a1 1 0 0 0 .154 1.14c1.59 1.718 2.787 3.73 3.587 5.896a1 1 0 0 0 .89.652l5.1.242v9.1l-4.721.16a1 1 0 0 0-.92.698Z" class="primary"/>
    <path fill="#FF462D" d="M61 56c-4.416 0-8 3.584-8 8s3.584 8 8 8 8-3.584 8-8-3.584-8-8-8Zm-10 8c0-5.52 4.48-10 10-10s10 4.48 10 10-4.48 10-10 10-10-4.48-10-10Z" class="secondary"/>
  </g>
</svg>
