<svg xmlns="http://www.w3.org/2000/svg" width="96" height="96" fill="none" viewBox="0 0 96 96">
  <g fill-rule="evenodd" class="ordered-services" clip-rule="evenodd">
    <path fill="#3D3C3C" d="M36.188 8C33.988 8 32 9.642 32 11.89V15h-5.434C21.265 15 17 19.432 17 24.87v53.26c0 5.415 4.242 9.87 9.566 9.87h42.868c5.3 0 9.566-4.432 9.566-9.87V24.87c0-5.415-4.242-9.87-9.566-9.87H64v-3.11C64 9.645 62.039 8 59.812 8H36.188ZM62 16v-4.11c0-.96-.877-1.89-2.188-1.89H36.188C34.894 10 34 10.935 34 11.89v12.22c0 .96.877 1.89 2.188 1.89h23.624C61.106 26 62 25.065 62 24.11V16Zm2 1h5.434C73.588 17 77 20.492 77 24.87v53.26c0 4.395-3.43 7.87-7.566 7.87H26.566C22.413 86 19 82.508 19 78.13V24.87c0-4.395 3.43-7.87 7.566-7.87H32v7.11c0 2.244 1.961 3.89 4.188 3.89h23.624c2.2 0 4.188-1.642 4.188-3.89V17ZM29 41a1 1 0 1 0 0 2h18a1 1 0 1 0 0-2H29Zm0 22a1 1 0 1 0 0 2h18a1 1 0 1 0 0-2H29Z" class="primary"/>
    <path fill="#FF462D" d="M69.82 36.574a1 1 0 1 0-1.639-1.148l-7.585 10.829-2.776-3.979a1 1 0 0 0-1.64 1.145l3.594 5.151a1 1 0 0 0 1.64.002l8.405-12Zm0 22a1 1 0 1 0-1.639-1.148l-7.585 10.829-2.776-3.978a1 1 0 0 0-1.64 1.144l3.594 5.151a1 1 0 0 0 1.64.002l8.405-12Z" class="secondary"/>
  </g>
</svg>
