<svg xmlns="http://www.w3.org/2000/svg" width="96" height="96" fill="none" viewBox="0 0 96 96">
  <g fill-rule="evenodd" class="overview" clip-rule="evenodd">
    <path fill="#3D3C3C" d="M13.725 41.411c17.732-19.215 50.818-19.215 68.55 0l5.46 5.91a1 1 0 0 1 0 1.358l-5.46 5.91c-17.732 19.215-50.818 19.215-68.55 0l-5.46-5.91a1 1 0 0 1 0-1.358l5.46-5.91Zm67.08 1.357c-16.94-18.357-48.67-18.357-65.61 0L10.36 48l4.833 5.232c16.94 18.357 48.672 18.357 65.611 0L85.64 48l-4.834-5.232Z" class="primary"/>
    <path fill="#FF462D" d="M48 40a8 8 0 1 0 0 16 8 8 0 0 0 0-16Zm-10 8c0-5.523 4.477-10 10-10s10 4.477 10 10-4.477 10-10 10-10-4.477-10-10Z" class="secondary"/>
  </g>
</svg>
