<svg xmlns="http://www.w3.org/2000/svg" width="96" height="96" fill="none" viewBox="0 0 96 96">
  <g fill-rule="evenodd" class="personalization-policies" clip-rule="evenodd">
    <path fill="#FF462D" d="M82.348 53.618c-2.217-2.157-5.828-2.157-8.045 0L50.874 76.414l-1.794 6.944a.712.712 0 0 1-.018.092c-.363 1.438.994 2.872 2.625 2.488l.003-.001 7.224-1.767 23.432-22.779.001-.001c2.206-2.164 2.201-5.632.001-7.772Zm-9.44-1.433c2.994-2.913 7.841-2.913 10.835 0 3.01 2.929 3.007 7.69.003 10.635l-.003.002-23.63 22.972a.999.999 0 0 1-.46.254l-7.495 1.833-.007.002c-2.95.699-5.734-1.867-5.049-4.838a.978.978 0 0 1 .022-.11l1.884-7.293c.046-.177.14-.339.27-.466l23.63-22.991Z" class="secondary"/>
    <path fill="#3D3C3C" d="M47.705 8.447c13.457 7.214 25.792 11.181 30.513 12.555l.009.003c1.604.483 2.773 1.867 2.773 3.543v18.23a1 1 0 1 1-2 0v-18.23c0-.682-.479-1.364-1.346-1.627-4.804-1.398-17.28-5.413-30.9-12.714l-.012-.007a1.55 1.55 0 0 0-1.515-.005l-.02.01c-13.565 7.327-26.067 11.32-30.859 12.757l-.013.003c-.845.24-1.335.93-1.335 1.624v34.497c0 4.941 3.391 9.785 8.273 14.184 4.843 4.364 10.947 8.105 15.944 10.854a1 1 0 0 1-.964 1.752c-5.042-2.773-11.305-6.602-16.32-11.12C14.958 70.272 11 64.919 11 59.086V24.589c0-1.662 1.156-3.08 2.78-3.545 4.736-1.42 17.082-5.366 30.468-12.593a3.55 3.55 0 0 1 3.457-.004Z" class="primary"/>
  </g>
</svg>
