<svg xmlns="http://www.w3.org/2000/svg" width="96" height="96" fill="none" viewBox="0 0 96 96">
  <g fill-rule="evenodd" class="placeholder" clip-rule="evenodd">
    <path fill="#FF462D" d="M36.498 31.999a4.5 4.5 0 0 0-4.5 4.499v23.004a4.5 4.5 0 0 0 4.5 4.5h23.004a4.5 4.5 0 0 0 4.5-4.5V36.498a4.5 4.5 0 0 0-4.5-4.5H36.498ZM30 36.498A6.498 6.498 0 0 1 36.498 30h23.004A6.498 6.498 0 0 1 66 36.498v23.004A6.498 6.498 0 0 1 59.502 66H36.498A6.498 6.498 0 0 1 30 59.502V36.498Z" class="secondary"/>
    <path fill="#3D3C3C" d="M14.495 8h1.01C16.33 8 17 8.622 17 9.39v1.22c0 .768-.67 1.39-1.495 1.39h-1.01C13.67 12 13 11.378 13 10.61V9.39c0-.768.67-1.39 1.495-1.39Zm0 75h1.01c.826 0 1.495.622 1.495 1.39v1.22c0 .768-.67 1.39-1.495 1.39h-1.01C13.67 87 13 86.378 13 85.61v-1.22c0-.768.67-1.39 1.495-1.39Zm9 0h1.01c.826 0 1.495.622 1.495 1.39v1.22c0 .768-.67 1.39-1.495 1.39h-1.01C22.67 87 22 86.378 22 85.61v-1.22c0-.768.67-1.39 1.495-1.39Zm9.01 0h-1.01C30.67 83 30 83.622 30 84.39v1.22c0 .768.67 1.39 1.495 1.39h1.01C33.33 87 34 86.378 34 85.61v-1.22c0-.768-.67-1.39-1.495-1.39Zm6.99 0h1.01c.826 0 1.495.622 1.495 1.39v1.22c0 .768-.67 1.39-1.495 1.39h-1.01C38.67 87 38 86.378 38 85.61v-1.22c0-.768.67-1.39 1.495-1.39Zm9.01 0h-1.01C46.67 83 46 83.622 46 84.39v1.22c0 .768.67 1.39 1.495 1.39h1.01C49.33 87 50 86.378 50 85.61v-1.22c0-.768-.67-1.39-1.495-1.39Zm6.99 0h1.01c.826 0 1.495.622 1.495 1.39v1.22c0 .768-.67 1.39-1.495 1.39h-1.01C54.67 87 54 86.378 54 85.61v-1.22c0-.768.67-1.39 1.495-1.39Zm9.01 0h-1.01C62.67 83 62 83.622 62 84.39v1.22c0 .768.67 1.39 1.495 1.39h1.01C65.33 87 66 86.378 66 85.61v-1.22c0-.768-.67-1.39-1.495-1.39Zm6.99 0h1.01c.826 0 1.495.622 1.495 1.39v1.22c0 .768-.67 1.39-1.495 1.39h-1.01C70.67 87 70 86.378 70 85.61v-1.22c0-.768.67-1.39 1.495-1.39Zm9.01 0h-1.01C78.67 83 78 83.622 78 84.39v1.22c0 .768.67 1.39 1.495 1.39h1.01C81.33 87 82 86.378 82 85.61v-1.22c0-.768-.67-1.39-1.495-1.39Zm-57-75h-1.01C21.67 8 21 8.622 21 9.39v1.22c0 .768.67 1.39 1.495 1.39h1.01C24.33 12 25 11.378 25 10.61V9.39C25 8.621 24.33 8 23.505 8Zm6.99 0h1.01C32.33 8 33 8.622 33 9.39v1.22c0 .768-.67 1.39-1.495 1.39h-1.01C29.67 12 29 11.378 29 10.61V9.39c0-.768.67-1.39 1.495-1.39Zm9.01 0h-1.01C37.67 8 37 8.622 37 9.39v1.22c0 .768.67 1.39 1.495 1.39h1.01C40.33 12 41 11.378 41 10.61V9.39C41 8.621 40.33 8 39.505 8Zm6.99 0h1.01C48.33 8 49 8.622 49 9.39v1.22c0 .768-.67 1.39-1.495 1.39h-1.01C45.67 12 45 11.378 45 10.61V9.39c0-.768.67-1.39 1.495-1.39Zm9.01 0h-1.01C53.67 8 53 8.622 53 9.39v1.22c0 .768.67 1.39 1.495 1.39h1.01C56.33 12 57 11.378 57 10.61V9.39C57 8.621 56.33 8 55.505 8Zm6.99 0h1.01C64.33 8 65 8.622 65 9.39v1.22c0 .768-.67 1.39-1.495 1.39h-1.01C61.67 12 61 11.378 61 10.61V9.39c0-.768.67-1.39 1.495-1.39Zm9.01 0h-1.01C69.67 8 69 8.622 69 9.39v1.22c0 .768.67 1.39 1.495 1.39h1.01C72.33 12 73 11.378 73 10.61V9.39C73 8.621 72.33 8 71.505 8Zm6.99 0h1.01C80.33 8 81 8.622 81 9.39v1.22c0 .768-.67 1.39-1.495 1.39h-1.01C77.67 12 77 11.378 77 10.61V9.39c0-.768.67-1.39 1.495-1.39Zm7.01 6h-1.01C83.67 14 83 14.622 83 15.39v1.22c0 .768.67 1.39 1.495 1.39h1.01C86.33 18 87 17.378 87 16.61v-1.22c0-.768-.67-1.39-1.495-1.39Zm-1.01 9h1.01c.826 0 1.495.622 1.495 1.39v1.22c0 .768-.67 1.39-1.495 1.39h-1.01C83.67 27 83 26.378 83 25.61v-1.22c0-.768.67-1.39 1.495-1.39Zm1.01 9h-1.01C83.67 32 83 32.622 83 33.39v1.22c0 .768.67 1.39 1.495 1.39h1.01C86.33 36 87 35.378 87 34.61v-1.22c0-.768-.67-1.39-1.495-1.39Zm-1.01 9h1.01c.826 0 1.495.622 1.495 1.39v1.22c0 .768-.67 1.39-1.495 1.39h-1.01C83.67 45 83 44.378 83 43.61v-1.22c0-.768.67-1.39 1.495-1.39Zm1.01 9h-1.01C83.67 50 83 50.622 83 51.39v1.22c0 .768.67 1.39 1.495 1.39h1.01C86.33 54 87 53.378 87 52.61v-1.22c0-.768-.67-1.39-1.495-1.39Zm-1.01 9h1.01c.826 0 1.495.622 1.495 1.39v1.22c0 .768-.67 1.39-1.495 1.39h-1.01C83.67 63 83 62.378 83 61.61v-1.22c0-.768.67-1.39 1.495-1.39Zm1.01 9h-1.01C83.67 68 83 68.622 83 69.39v1.22c0 .768.67 1.39 1.495 1.39h1.01C86.33 72 87 71.378 87 70.61v-1.22c0-.768-.67-1.39-1.495-1.39Zm-1.01 9h1.01c.826 0 1.495.622 1.495 1.39v1.22c0 .768-.67 1.39-1.495 1.39h-1.01C83.67 81 83 80.378 83 79.61v-1.22c0-.768.67-1.39 1.495-1.39Zm-73.99-63h-1.01C8.67 14 8 14.622 8 15.39v1.22c0 .768.67 1.39 1.495 1.39h1.01C11.33 18 12 17.378 12 16.61v-1.22c0-.768-.67-1.39-1.495-1.39Zm-1.01 9h1.01c.826 0 1.495.622 1.495 1.39v1.22c0 .768-.67 1.39-1.495 1.39h-1.01C8.67 27 8 26.378 8 25.61v-1.22c0-.768.67-1.39 1.495-1.39Zm1.01 9h-1.01C8.67 32 8 32.622 8 33.39v1.22c0 .768.67 1.39 1.495 1.39h1.01C11.33 36 12 35.378 12 34.61v-1.22c0-.768-.67-1.39-1.495-1.39Zm-1.01 9h1.01c.826 0 1.495.622 1.495 1.39v1.22c0 .768-.67 1.39-1.495 1.39h-1.01C8.67 45 8 44.378 8 43.61v-1.22c0-.768.67-1.39 1.495-1.39Zm1.01 9h-1.01C8.67 50 8 50.622 8 51.39v1.22c0 .768.67 1.39 1.495 1.39h1.01C11.33 54 12 53.378 12 52.61v-1.22c0-.768-.67-1.39-1.495-1.39Zm-1.01 9h1.01c.826 0 1.495.622 1.495 1.39v1.22c0 .768-.67 1.39-1.495 1.39h-1.01C8.67 63 8 62.378 8 61.61v-1.22c0-.768.67-1.39 1.495-1.39Zm1.01 9h-1.01C8.67 68 8 68.622 8 69.39v1.22c0 .768.67 1.39 1.495 1.39h1.01C11.33 72 12 71.378 12 70.61v-1.22c0-.768-.67-1.39-1.495-1.39Zm-1.01 9h1.01c.826 0 1.495.622 1.495 1.39v1.22c0 .768-.67 1.39-1.495 1.39h-1.01C8.67 81 8 80.378 8 79.61v-1.22c0-.768.67-1.39 1.495-1.39Z" class="primary"/>
  </g>
</svg>
