<svg xmlns="http://www.w3.org/2000/svg" width="96" height="96" fill="none" viewBox="0 0 96 96">
  <g fill-rule="evenodd" class="platform" clip-rule="evenodd">
    <path fill="#3D3C3C" d="m49.929 8.594-.003-.002a3.86 3.86 0 0 0-4.104-.003L14.989 27.82c-2.652 1.645-2.651 5.698.001 7.344l31.063 19.243.003.002a3.86 3.86 0 0 0 4.104.003l.005-.003 30.846-19.226c2.652-1.647 2.652-5.699 0-7.344a.999.999 0 0 0-.124-.066L49.93 8.595Zm-3.06 1.699.003-.002a1.86 1.86 0 0 1 1.994-.003l.005.003 31.068 19.247c.034.02.068.04.104.056 1.304.9 1.276 3.043-.087 3.888l-.001.002-30.843 19.223-.002.002a1.86 1.86 0 0 1-1.994.003l-.005-.003-31.067-19.246c-1.392-.864-1.392-3.082 0-3.945l.002-.002L46.87 10.293ZM18.242 61.855a1 1 0 1 0-1.036-1.71L15 61.48c-2.665 1.61-2.665 5.598.001 7.208l31.064 18.736.002.002a3.926 3.926 0 0 0 4.084.003l.005-.003 30.846-18.72c2.666-1.61 2.665-5.597 0-7.207l-2.205-1.335a1 1 0 1 0-1.036 1.71l2.207 1.337c1.378.832 1.378 2.951 0 3.784h-.002L49.123 85.714l-.003.001c-.642.384-1.4.378-2.014.003l-.005-.003-31.067-18.739c-1.378-.832-1.378-2.95 0-3.783l2.207-1.337Z" class="primary"/>
    <path fill="#FF462D" d="M77.124 43.518a1 1 0 0 1 1.358-.394l2.472 1.36a1 1 0 0 1 .047.028c2.644 1.65 2.67 5.692.046 7.371l-.003.002-30.743 19.506h-.002c-1.25.79-2.84.826-4.114.024l-31.186-19.19c-2.64-1.648-2.67-5.68-.058-7.364l2.499-1.69a1 1 0 0 1 1.12 1.657l-2.508 1.696-.021.014c-1.383.885-1.374 3.113.024 3.988l.003.002L47.247 69.72c.599.378 1.36.374 1.983-.019h.002l30.737-19.503h.003c1.374-.883 1.37-3.093-.009-3.976l-2.445-1.346a1 1 0 0 1-.394-1.358Z" class="secondary"/>
  </g>
</svg>
