<svg xmlns="http://www.w3.org/2000/svg" width="96" height="96" fill="none" viewBox="0 0 96 96">
  <g class="police">
    <path fill="#3D3C3C" fill-rule="evenodd" d="M46.328 8.433a3.406 3.406 0 0 1 3.324 0c12.64 6.974 24.256 10.811 28.697 12.145l.02.006c1.51.488 2.631 1.832 2.631 3.468v33.39c0 3.932-1.73 7.64-4.29 10.98-2.564 3.343-6.013 6.391-9.592 9.029-7.159 5.276-14.983 9.016-17.706 10.255l-.022.009c-.89.38-1.89.38-2.78 0l-.017-.007c-2.746-1.231-10.571-4.966-17.725-10.243-3.577-2.638-7.023-5.688-9.583-9.033C16.727 65.089 15 61.378 15 57.442v-33.37c0-1.604 1.073-3.022 2.656-3.476 4.47-1.357 16.078-5.174 28.672-12.163Zm2.352 1.748a1.406 1.406 0 0 0-1.379 0H47.3c-12.773 7.09-24.536 10.956-29.07 12.331l-.017.005c-.745.212-1.212.86-1.212 1.554v33.371c0 3.34 1.468 6.63 3.873 9.774 2.403 3.141 5.688 6.063 9.182 8.64 6.979 5.147 14.646 8.811 17.347 10.023.384.161.81.161 1.194 0 2.69-1.224 10.354-4.892 17.335-10.038 3.497-2.577 6.785-5.498 9.19-8.636 2.41-3.142 3.879-6.43 3.879-9.763v-33.39c0-.663-.457-1.306-1.237-1.561-4.527-1.36-16.28-5.246-29.08-12.308l-.003-.002Z" class="primary" clip-rule="evenodd"/>
    <path fill="#FF462D" d="M36.566 68.998c-.49 0-.98-.15-1.4-.45-.89-.62-1.28-1.71-1-2.77l3.14-11.876c.06-.23 0-.46-.17-.6l-9.21-7.668a2.57 2.57 0 0 1-.79-2.809c.33-1 1.22-1.67 2.25-1.72l11.74-.549c.19 0 .36-.15.43-.35l3.64-10.197.46-1.34c.36-1.01 1.28-1.669 2.33-1.669s1.96.65 2.33 1.67l4.12 11.536c.07.21.25.34.46.35l11.73.55c1.02.05 1.89.71 2.23 1.71.35 1.029.05 2.129-.77 2.818l-9.21 7.668c-.16.13-.23.38-.17.6l3.14 11.876c.28 1.06-.11 2.15-.99 2.77-.84.6-1.94.6-2.8.02l-9.81-6.798a.42.42 0 0 0-.5 0l-9.8 6.788c-.42.29-.9.44-1.39.44h.01Zm11.44-9.308c.48 0 .96.14 1.38.43l9.8 6.788c.21.14.39.08.51 0 .07-.05.31-.25.21-.62l-3.14-11.876c-.26-.97.07-2.01.83-2.65l9.21-7.667c.21-.18.22-.45.16-.64-.04-.13-.16-.34-.43-.35l-11.75-.55a2.537 2.537 0 0 1-2.22-1.67l-4.12-11.536c-.11-.3-.32-.34-.44-.34-.1 0-.26.03-.38.2l-4.17 11.677c-.35.99-1.23 1.64-2.24 1.68l-11.73.55c-.29.01-.4.23-.45.35-.03.09-.11.399.17.629l9.21 7.668c.76.64 1.08 1.65.83 2.639l-3.14 11.886c-.1.37.14.57.21.62a.4.4 0 0 0 .5 0l9.8-6.788c.42-.29.91-.44 1.39-.44v.01Z" class="secondary"/>
  </g>
</svg>
