<svg xmlns="http://www.w3.org/2000/svg" width="96" height="96" fill="none" viewBox="0 0 96 96">
  <g fill-rule="evenodd" class="portfolio" clip-rule="evenodd">
    <path fill="#FF462D" d="M44 17c-3.877 0-7 3.125-7 7v4a1 1 0 1 1-2 0v-4c0-4.98 4.018-9 9-9h8c4.982 0 9 4.02 9 9v4a1 1 0 1 1-2 0v-4c0-3.875-3.123-7-7-7h-8Z" class="secondary"/>
    <path fill="#3D3C3C" d="M17.521 27C12.311 27 8 31.05 8 36.165v35.67C8 76.93 12.31 81 17.521 81h60.957C83.688 81 88 76.95 88 71.835v-35.67C88 31.07 83.69 27 78.478 27H17.522ZM86 46v-9.835C86 32.255 82.666 29 78.478 29H17.522C13.332 29 10 32.237 10 36.165V46c0 6.641 5.363 12 12.006 12h51.987C80.62 58 86 52.64 86 46Zm-76 7.225A13.986 13.986 0 0 0 22.006 60h51.987A14 14 0 0 0 86 53.217v18.618C86 75.763 82.668 79 78.478 79H17.522C13.334 79 10 75.746 10 71.835v-18.61Z" class="primary"/>
  </g>
</svg>
