<svg xmlns="http://www.w3.org/2000/svg" width="96" height="96" fill="none" viewBox="0 0 96 96">
  <g fill-rule="evenodd" class="private-catalog" clip-rule="evenodd">
    <path fill="#3D3C3C" d="M18 16.488C18 12.842 20.724 10 23.861 10H69.14c3.136 0 5.86 2.842 5.86 6.488V39a1 1 0 1 0 2 0V16.488C77 11.905 73.542 8 69.139 8H23.86C19.458 8 16 11.905 16 16.488V26h-4a1 1 0 1 0 0 2h11a1 1 0 1 0 0-2h-5v-9.512ZM18 78a1 1 0 1 0-2 0v1.512C16 84.095 19.458 88 23.861 88H46a1 1 0 1 0 0-2H23.861C20.724 86 18 83.158 18 79.512V78Zm0-42a1 1 0 1 0-2 0v11h-4a1 1 0 1 0 0 2h11a1 1 0 1 0 0-2h-5V36Zm-7 33a1 1 0 0 1 1-1h4V57a1 1 0 1 1 2 0v11h5a1 1 0 1 1 0 2H12a1 1 0 0 1-1-1Z" class="primary"/>
    <path fill="#FF462D" d="M62 62.469C62 57.206 66.084 53 71 53c2.463 0 4.683 1.028 6.333 2.753A9.766 9.766 0 0 1 80 62.469v3.824c-5.656-.39-12.36-.39-18-.001v-3.823Zm-2 3.982v-3.982C60 56.189 64.894 51 71 51c3.046 0 5.78 1.28 7.782 3.374l.005.006A11.766 11.766 0 0 1 82 62.47v3.982c.323.03.642.06.955.092l.018.002c1.096.131 2.027 1.003 2.027 2.187v16.536c0 1.202-.98 2.056-2.021 2.187l-.023.002c-7.066.724-16.816.724-23.911 0l-.018-.002C57.931 87.324 57 86.452 57 85.268V68.732c0-1.202.98-2.056 2.021-2.187l.023-.002c.314-.032.633-.063.956-.092Zm-.949 2.183a.376.376 0 0 1 .212-.103c6.925-.708 16.524-.708 23.478 0a.356.356 0 0 1 .213.097.145.145 0 0 1 .046.104v16.536c0 .015-.005.05-.051.098a.376.376 0 0 1-.212.103c-6.925.708-16.524.708-23.478 0a.356.356 0 0 1-.213-.097.145.145 0 0 1-.046-.104V68.732c0-.015.005-.05.051-.098Z" class="secondary"/>
  </g>
</svg>
