<svg xmlns="http://www.w3.org/2000/svg" width="96" height="96" fill="none" viewBox="0 0 96 96">
  <g fill-rule="evenodd" class="program-management-portal" clip-rule="evenodd">
    <path fill="#FF462D" d="M34.63 70C31.964 70 30 71.907 30 74.028v7.944C30 84.093 31.964 86 34.63 86h26.74c2.666 0 4.63-1.907 4.63-4.028v-7.944C66 71.907 64.036 70 61.37 70H34.63ZM28 74.028C28 70.595 31.078 68 34.63 68h26.74c3.552 0 6.63 2.596 6.63 6.028v7.944C68 85.405 64.922 88 61.37 88H34.63C31.078 88 28 85.404 28 81.972v-7.944Z" class="secondary"/>
    <path fill="#3D3C3C" d="M30 14.028C30 11.907 31.964 10 34.63 10h26.74c2.666 0 4.63 1.907 4.63 4.028v7.944C66 24.093 64.036 26 61.37 26H34.63C31.964 26 30 24.093 30 21.972v-7.944ZM28 19v2.972C28 25.404 31.078 28 34.63 28h26.74c3.552 0 6.63-2.596 6.63-6.028v-7.944C68 10.595 64.922 8 61.37 8H34.63C31.078 8 28 10.595 28 14.028V17h-9.977C15.025 17 13 20.01 13 23.157v19.686C13 46.003 15.036 49 18.023 49h3.563l-4.293 4.293a1 1 0 0 0 1.414 1.414l6-6a1 1 0 0 0 0-1.414l-6-6a1 1 0 0 0-1.414 1.414L21.586 47h-3.563C16.573 47 15 45.387 15 42.843V23.157C15 20.62 16.566 19 18.023 19H28Zm2 25.028C30 41.883 31.924 40 34.482 40h26.036C63.077 40 65 41.883 65 44.028v7.944C65 54.117 63.077 56 60.518 56H34.482C31.924 56 30 54.117 30 51.972v-7.944ZM34.482 38C30.985 38 28 40.62 28 44.028v7.944C28 55.381 30.985 58 34.482 58h26.036C64.015 58 67 55.38 67 51.972V49h10.977C79.485 49 81 50.543 81 52.843v18.485c0 2.307-1.522 3.843-3.023 3.843h-3.513l4.253-4.131a.966.966 0 0 0 0-1.394 1.036 1.036 0 0 0-1.434 0l-6 5.829a.966.966 0 0 0 0 1.393l6 5.829a1.036 1.036 0 0 0 1.434 0 .966.966 0 0 0 0-1.394l-4.253-4.132h3.513c2.935 0 5.023-2.793 5.023-5.843V52.843C83 49.805 80.924 47 77.977 47H67v-2.972C67 40.619 64.015 38 60.518 38H34.482Z" class="primary"/>
  </g>
</svg>
