<svg xmlns="http://www.w3.org/2000/svg" width="96" height="96" fill="none" viewBox="0 0 96 96">
  <g fill-rule="evenodd" class="question" clip-rule="evenodd">
    <path fill="#3D3C3C" d="M48 86c20.987 0 38-17.013 38-38S68.987 10 48 10 10 27.013 10 48s17.013 38 38 38Zm0 2c22.091 0 40-17.909 40-40S70.091 8 48 8 8 25.909 8 48s17.909 40 40 40Z" class="primary"/>
    <path fill="#FF462D" d="M38 37c0-5.639 5.21-10.373 10.952-9.979 4.77.336 8.695 4.261 9.022 9.146v.004a9.907 9.907 0 0 1-4.57 9.097C49.648 47.631 47 51.375 47 56v6a1 1 0 0 0 2 0v-6c0-3.782 2.15-6.951 5.469-9.04a11.906 11.906 0 0 0 5.5-10.928c-.393-5.87-5.1-10.6-10.878-11.006h-.002C42.243 24.556 36 30.152 36 37a1 1 0 1 0 2 0Zm8 31.38c0-.76.663-1.38 1.487-1.38h1.026c.824 0 1.487.62 1.487 1.38v1.24c0 .76-.663 1.38-1.487 1.38h-1.026C46.663 71 46 70.38 46 69.62v-1.24Z" class="secondary"/>
  </g>
</svg>
