<svg xmlns="http://www.w3.org/2000/svg" width="96" height="96" fill="none" viewBox="0 0 96 96">
  <g fill-rule="evenodd" class="quotation" clip-rule="evenodd">
    <path fill="#FF462D" d="M84.33 51.705a5.554 5.554 0 0 0-8.007 0l-23.44 24.073-1.8 7.357a.994.994 0 0 1-.018.092c-.396 1.657 1.076 3.09 2.61 2.709l.003-.001 7.217-1.863 23.432-24.044.001-.002c2.231-2.31 2.227-6.036.001-8.322Zm-9.44-1.396a7.554 7.554 0 0 1 10.872 0c2.985 3.066 2.982 8.026.003 11.108l-.003.003-23.63 24.248a1 1 0 0 1-.466.27l-7.496 1.935-.007.002c-3.046.762-5.72-2.027-5.062-5.03a1.06 1.06 0 0 1 .02-.11l1.884-7.698a1 1 0 0 1 .255-.46L74.89 50.31Z" class="secondary"/>
    <path fill="#3D3C3C" d="M26.137 10C22.205 10 19 13.229 19 17.21v61.58c0 3.981 3.205 7.21 7.137 7.21H42.4a1 1 0 1 1 0 2H26.137C21.082 88 17 83.858 17 78.79V17.21C17 12.141 21.082 8 26.137 8h32.53l.705.291 20.333 20.222.295.71v12.62a1 1 0 1 1-2 0V30H61.993A4.998 4.998 0 0 1 57 25.007V10H26.137ZM59 25.007V10.742L76.353 28h-14.36A2.998 2.998 0 0 1 59 25.007ZM29 22a1 1 0 1 0 0 2h19a1 1 0 1 0 0-2H29Zm0 13a1 1 0 1 0 0 2h19a1 1 0 1 0 0-2H29Zm0 13a1 1 0 1 0 0 2h11.075a1 1 0 0 0 0-2H29Z" class="primary"/>
  </g>
</svg>
