<svg xmlns="http://www.w3.org/2000/svg" width="96" height="96" fill="none" viewBox="0 0 96 96">
  <g fill-rule="evenodd" class="reference-architecture" clip-rule="evenodd">
    <path fill="#3D3C3C" d="M45.002 79.938a1.33 1.33 0 0 1-.002-.073V50H30.776c-.911 4.001-4.497 7.002-8.776 7.002-4.966 0-9-4.043-9-9C13 43.043 17.034 39 22 39s9 4.043 9 9h14V17.135c0-.025 0-.049.002-.073a.996.996 0 0 1 .56-.948.9.9 0 0 1 .488-.114h19.9c.584 0 1.05.452 1.05 1s-.466 1-1.05 1H47v30h17.946c.587 0 1.054.452 1.054 1s-.467 1-1.054 1H47v29h18.95c.584 0 1.05.452 1.05 1s-.466 1-1.05 1h-19.9a1.147 1.147 0 0 1-.05 0 .899.899 0 0 1-.437-.114.996.996 0 0 1-.561-.948ZM22 41c-3.732 0-7 3.267-7 7s3.268 7 7 7 7-3.267 7-7-3.268-7-7-7Z" class="primary"/>
    <path fill="#FF462D" d="M74 26.002c-4.966 0-9-4.043-9-9C65 12.043 69.034 8 74 8s9 4.044 9 9.001c0 4.958-4.034 9.001-9 9.001ZM74 10c-3.732 0-7 3.267-7 7s3.268 7 7 7 7-3.267 7-7-3.268-7-7-7Zm0 47.002c-4.966 0-9-4.043-9-9C65 43.043 69.034 39 74 39s9 4.044 9 9.001c0 4.958-4.034 9.001-9 9.001ZM74 41c-3.732 0-7 3.267-7 7s3.268 7 7 7 7-3.267 7-7-3.268-7-7-7Zm-9 38.001c0 4.958 4.034 9.001 9 9.001s9-4.043 9-9C83 74.043 78.966 70 74 70s-9 4.044-9 9.001ZM67 79c0-3.733 3.268-7 7-7s7 3.267 7 7-3.268 7-7 7-7-3.267-7-7Z" class="secondary"/>
  </g>
</svg>
