<svg xmlns="http://www.w3.org/2000/svg" width="96" height="96" fill="none" viewBox="0 0 96 96">
  <g fill-rule="evenodd" class="roles" clip-rule="evenodd">
    <path fill="#3D3C3C" d="M18.63 18.668a1 1 0 0 1 1.415.002L30.3 28.953A25.908 25.908 0 0 1 48 22a25.912 25.912 0 0 1 17.975 7.215L76.29 18.797a1 1 0 0 1 1.422 1.406l-10.344 10.45A25.904 25.904 0 0 1 74 48c0 6.8-2.61 12.991-6.885 17.624L77.763 76.32a1 1 0 0 1-1.418 1.411l-10.641-10.69A25.908 25.908 0 0 1 48 74a25.909 25.909 0 0 1-17.704-6.959L19.899 77.477a1 1 0 1 1-1.417-1.412l10.402-10.441A25.907 25.907 0 0 1 22 48a25.907 25.907 0 0 1 6.889-17.629l-10.26-10.29a1 1 0 0 1 .001-1.413ZM24 48c0-13.255 10.745-24 24-24s24 10.745 24 24c0 7.58-3.513 14.338-9 18.736v-4.33C63.022 58.83 59.988 56 56.349 56H39.651c-3.639 0-6.673 2.83-6.65 6.406v4.33C27.512 62.338 24 55.58 24 48Zm11 20.178A23.888 23.888 0 0 0 48 72c4.79 0 9.254-1.404 13-3.822v-5.782C61.016 60.024 58.977 58 56.349 58H39.651c-2.628 0-4.667 2.024-4.65 4.396v5.782ZM48 35a7 7 0 1 0 0 14 7 7 0 0 0 0-14Zm-9 7a9 9 0 1 1 18 0 9 9 0 0 1-18 0Z" class="primary"/>
    <path fill="#FF462D" d="M10 14.5a4.5 4.5 0 1 1 9 0 4.5 4.5 0 0 1-9 0ZM14.5 8a6.5 6.5 0 1 0 0 13 6.5 6.5 0 0 0 0-13ZM77 14.5a4.5 4.5 0 1 1 9 0 4.5 4.5 0 0 1-9 0ZM81.5 8a6.5 6.5 0 1 0 0 13 6.5 6.5 0 0 0 0-13Zm-67 69a4.5 4.5 0 1 0 0 9 4.5 4.5 0 0 0 0-9ZM8 81.5a6.5 6.5 0 1 1 13 0 6.5 6.5 0 0 1-13 0Zm69 0a4.5 4.5 0 1 1 9 0 4.5 4.5 0 0 1-9 0Zm4.5-6.5a6.5 6.5 0 1 0 0 13 6.5 6.5 0 0 0 0-13Z" class="secondary"/>
  </g>
</svg>
