<svg xmlns="http://www.w3.org/2000/svg" width="96" height="96" fill="none" viewBox="0 0 96 96">
  <g fill-rule="evenodd" class="schedule" clip-rule="evenodd">
    <path fill="#3D3C3C" d="M28.995 10a1 1 0 0 1 1 1v5.024h22.84a.98.98 0 0 1 .243.03V11a1 1 0 1 1 2 0v12.02a1 1 0 1 1-2 0v-5.026a.982.982 0 0 1-.244.03H29.995v4.995a1 1 0 1 1-2 0V11a1 1 0 0 1 1-1ZM10 23.655c0-3.077 2.59-5.63 5.846-5.63H17a1 1 0 1 0 0-2h-1.154c-4.3 0-7.846 3.39-7.846 7.63v53.74c0 4.24 3.556 7.63 7.846 7.63H47a1 1 0 1 0 0-2H15.846c-3.248 0-5.846-2.556-5.846-5.63v-43.37h63v5a1 1 0 1 0 2 0V23.63c0-4.22-3.527-7.607-7.791-7.607H66a1 1 0 1 0 0 2h1.209c3.213 0 5.791 2.543 5.791 5.607v8.393H10v-8.37ZM20.505 44h-1.01C18.67 44 18 44.622 18 45.39v1.22c0 .768.67 1.39 1.495 1.39h1.01C21.33 48 22 47.378 22 46.61v-1.22c0-.768-.67-1.39-1.495-1.39Zm13.99 0h1.01c.826 0 1.495.622 1.495 1.39v1.22c0 .768-.67 1.39-1.495 1.39h-1.01C33.67 48 33 47.378 33 46.61v-1.22c0-.768.67-1.39 1.495-1.39Zm-13.99 12h-1.01C18.67 56 18 56.622 18 57.39v1.22c0 .768.67 1.39 1.495 1.39h1.01C21.33 60 22 59.378 22 58.61v-1.22c0-.768-.67-1.39-1.495-1.39Zm13.99 0h1.01c.826 0 1.495.622 1.495 1.39v1.22c0 .768-.67 1.39-1.495 1.39h-1.01C33.67 60 33 59.378 33 58.61v-1.22c0-.768.67-1.39 1.495-1.39Zm-13.99 13h-1.01C18.67 69 18 69.622 18 70.39v1.22c0 .768.67 1.39 1.495 1.39h1.01C21.33 73 22 72.378 22 71.61v-1.22c0-.768-.67-1.39-1.495-1.39Zm13.99 0h1.01c.826 0 1.495.622 1.495 1.39v1.22c0 .768-.67 1.39-1.495 1.39h-1.01C33.67 73 33 72.378 33 71.61v-1.22c0-.768.67-1.39 1.495-1.39Z" class="primary"/>
    <path fill="#FF462D" d="M68.5 46.024c-10.77 0-19.5 8.73-19.5 19.5s8.73 19.5 19.5 19.5 19.5-8.73 19.5-19.5-8.73-19.5-19.5-19.5ZM51 65.524c0-9.665 7.834-17.5 17.5-17.5S86 55.86 86 65.524c0 9.666-7.834 17.5-17.5 17.5S51 75.19 51 65.524Zm25.775-5.867a1 1 0 1 0-1.55-1.265l-9.023 11.051-3.427-4.195a1 1 0 0 0-1.55 1.265l4.203 5.144a1 1 0 0 0 1.549 0l9.798-12Z" class="secondary"/>
  </g>
</svg>
