<svg xmlns="http://www.w3.org/2000/svg" width="96" height="96" fill="none" viewBox="0 0 96 96">
  <g fill-rule="evenodd" class="security-&amp;-resiliency" clip-rule="evenodd">
    <path fill="#3D3C3C" d="M49.71 8.42a3.711 3.711 0 0 0-3.43 0h-.001c-13.402 7.006-25.757 10.834-30.49 12.17h-.003c-1.593.453-2.786 1.8-2.786 3.457v33.37c0 3.952 1.846 7.668 4.562 11.006 2.72 3.343 6.38 6.39 10.179 9.027 7.598 5.274 15.905 9.013 18.802 10.25.931.4 1.983.4 2.914 0 2.897-1.237 11.204-4.976 18.802-10.25 3.798-2.636 7.459-5.684 10.18-9.027C81.153 65.085 83 61.37 83 57.417v-33.37c0-1.657-1.193-3.004-2.786-3.457h-.002c-4.734-1.336-17.089-5.164-30.5-12.17h-.002ZM16.333 22.514c4.807-1.356 17.304-5.23 30.871-12.32a1.711 1.711 0 0 1 1.582 0c13.577 7.09 26.073 10.963 30.881 12.32.874.248 1.333.909 1.333 1.533v33.37c0 3.316-1.552 6.597-4.113 9.744-2.557 3.141-6.051 6.066-9.768 8.646-7.433 5.16-15.594 8.835-18.448 10.054l-.002.001a1.69 1.69 0 0 1-1.338 0l-.002-.001c-2.854-1.22-11.015-4.895-18.448-10.054-3.717-2.58-7.211-5.505-9.768-8.646C16.553 64.014 15 60.733 15 57.417v-33.37c0-.624.459-1.284 1.332-1.533ZM35 46.828c0-.078.08-.24.306-.266 7.212-.75 17.187-.75 24.389 0 .228.025.305.182.305.266v17.344c0 .078-.08.24-.306.266-7.212.75-17.187.75-24.388 0-.23-.025-.306-.182-.306-.266V46.828Zm24.904-2.255c-7.34-.764-17.458-.764-24.808 0h-.007C33.964 44.698 33 45.618 33 46.828v17.344c0 1.205.948 2.13 2.091 2.255h.005c7.34.764 17.458.764 24.808 0h.007C61.036 66.302 62 65.382 62 64.172V46.828c0-1.205-.948-2.13-2.091-2.255h-.005Z" class="primary"/>
    <path fill="#FF462D" d="M47.5 29c-4.18 0-7.5 3.243-7.5 7.15V38a1 1 0 1 1-2 0v-1.85c0-5.09 4.295-9.15 9.5-9.15a9.66 9.66 0 0 1 6.7 2.667l.002.002C55.919 31.326 57 33.603 57 36.15V38a1 1 0 1 1-2 0v-1.85c0-1.96-.827-3.73-2.185-5.04A7.66 7.66 0 0 0 47.5 29Z" class="secondary"/>
  </g>
</svg>
