<svg xmlns="http://www.w3.org/2000/svg" width="96" height="96" fill="none" viewBox="0 0 96 96">
  <g fill-rule="evenodd" class="services-catalog" clip-rule="evenodd">
    <path fill="#3D3C3C" d="M22.326 10C18.873 10 16 12.905 16 16.488V26h6a1 1 0 1 1 0 2H9a1 1 0 1 1 0-2h5v-9.512C14 11.842 17.728 8 22.326 8h48.348C75.272 8 79 11.842 79 16.488v10.986a1 1 0 1 1-2 0V16.488C77 12.905 74.126 10 70.674 10H22.326ZM15 77.333a1 1 0 0 1 1 1v1.179C16 83.095 18.873 86 22.326 86h4.128a1 1 0 1 1 0 2h-4.128C17.729 88 14 84.158 14 79.512v-1.179a1 1 0 0 1 1-1ZM8 49a1 1 0 0 1 1-1h5V34a1 1 0 1 1 2 0v14h6a1 1 0 1 1 0 2H9a1 1 0 0 1-1-1Zm0 20a1 1 0 0 1 1-1h13a1 1 0 1 1 0 2H9a1 1 0 0 1-1-1Zm8-2a1 1 0 1 1-2 0V57a1 1 0 1 1 2 0v10Zm51-26.092C67 39.258 68.266 38 69.73 38h13.54c1.464 0 2.73 1.258 2.73 2.908v14.184C86 56.742 84.734 58 83.27 58H69.73C68.266 58 67 56.742 67 55.092V40.908ZM69.73 36C67.075 36 65 38.242 65 40.908v14.184C65 57.758 67.075 60 69.73 60h13.54c2.655 0 4.73-2.242 4.73-4.908V40.908C88 38.242 85.925 36 83.27 36H69.73Zm0 32C68.176 68 67 69.188 67 70.553v12.894C67 84.812 68.176 86 69.73 86h13.54c1.554 0 2.73-1.188 2.73-2.553V70.553C86 69.188 84.824 68 83.27 68H69.73ZM65 70.553C65 67.993 67.164 66 69.73 66h13.54c2.566 0 4.73 1.993 4.73 4.553v12.894C88 86.007 85.836 88 83.27 88H69.73C67.164 88 65 86.007 65 83.447V70.553Zm-27 0C38 69.188 39.176 68 40.73 68h13.54c1.554 0 2.73 1.188 2.73 2.553v12.894C57 84.812 55.824 86 54.27 86H40.73C39.176 86 38 84.812 38 83.447V70.553ZM40.73 66C38.164 66 36 67.993 36 70.553v12.894C36 86.007 38.164 88 40.73 88h13.54c2.566 0 4.73-1.993 4.73-4.553V70.553C59 67.993 56.836 66 54.27 66H40.73Z" class="primary"/>
    <path fill="#FF462D" d="M36.619 33C34.655 33 33 34.664 33 36.796v17.408C33 56.336 34.655 58 36.619 58H53.38c1.965 0 3.62-1.664 3.62-3.796V36.796C57 34.664 55.345 33 53.381 33H36.62ZM31 36.796C31 33.631 33.48 31 36.619 31H53.38c3.14 0 5.62 2.631 5.62 5.796v17.408C59 57.369 56.52 60 53.381 60H36.62C33.48 60 31 57.369 31 54.204V36.796Z" class="secondary"/>
  </g>
</svg>
