<svg xmlns="http://www.w3.org/2000/svg" width="96" height="96" fill="none" viewBox="0 0 96 96">
  <g fill-rule="evenodd" class="services" clip-rule="evenodd">
    <path fill="#FF462D" d="M8 13a5 5 0 0 1 5-5h28a5 5 0 0 1 5 5v28a5 5 0 0 1-5 5H13a5 5 0 0 1-5-5V13Zm5-3a3 3 0 0 0-3 3v28a3 3 0 0 0 3 3h28a3 3 0 0 0 3-3V13a3 3 0 0 0-3-3H13Z" class="secondary"/>
    <path fill="#3D3C3C" d="M58 21a5 5 0 0 1 5-5h20a5 5 0 0 1 5 5v20a5 5 0 0 1-5 5H63a5 5 0 0 1-5-5V21Zm5-3a3 3 0 0 0-3 3v20a3 3 0 0 0 3 3h20a3 3 0 0 0 3-3V21a3 3 0 0 0-3-3H63ZM16 63a5 5 0 0 1 5-5h20a5 5 0 0 1 5 5v20a5 5 0 0 1-5 5H21a5 5 0 0 1-5-5V63Zm5-3a3 3 0 0 0-3 3v20a3 3 0 0 0 3 3h20a3 3 0 0 0 3-3V63a3 3 0 0 0-3-3H21Zm42-2a5 5 0 0 0-5 5v20a5 5 0 0 0 5 5h20a5 5 0 0 0 5-5V63a5 5 0 0 0-5-5H63Zm-3 5a3 3 0 0 1 3-3h20a3 3 0 0 1 3 3v20a3 3 0 0 1-3 3H63a3 3 0 0 1-3-3V63Z" class="primary"/>
  </g>
</svg>
