<svg xmlns="http://www.w3.org/2000/svg" width="96" height="96" fill="none" viewBox="0 0 96 96">
  <g class="settings">
    <path fill="#3D3C3C" d="M34.88 88c-.64 0-1.28-.18-1.84-.53l-10.1-6.12c-1.73-1.04-2.33-3.35-1.33-5.16l3.45-6.29c.36-.65.3-1.49-.13-2.04-2.07-2.66-3.7-5.63-4.85-8.83a1.61 1.61 0 0 0-1.52-1.09h-6.89C9.64 57.94 8 56.23 8 54.13V41.89c0-2.1 1.65-3.81 3.67-3.81h6.89c.67 0 1.28-.44 1.52-1.1 1.17-3.25 2.81-6.22 4.85-8.83.43-.56.48-1.39.12-2.04l-3.45-6.3c-.99-1.78-.4-4.09 1.33-5.15l10.11-6.14c.84-.51 1.82-.64 2.76-.39.96.26 1.77.9 2.26 1.8l3.45 6.28c.35.63.99.96 1.64.86 3.21-.54 6.47-.54 9.69 0 .65.11 1.28-.22 1.63-.86l3.45-6.28c.48-.89 1.3-1.55 2.26-1.81.95-.26 1.93-.11 2.77.4l10.1 6.12c1.73 1.04 2.33 3.35 1.33 5.16l-3.45 6.3c-.36.65-.3 1.49.13 2.04 2.06 2.65 3.7 5.63 4.85 8.83.23.66.84 1.09 1.52 1.09h6.89c2.03 0 3.67 1.71 3.67 3.81v12.24c0 2.1-1.65 3.81-3.67 3.81h-6.89c-.67 0-1.28.44-1.52 1.1-1.17 3.25-2.81 6.22-4.86 8.83-.43.56-.48 1.39-.12 2.04l3.45 6.3c.99 1.78.4 4.09-1.33 5.15l-10.11 6.12c-.85.51-1.83.64-2.76.39-.96-.26-1.77-.9-2.26-1.8l-3.45-6.28c-.35-.63-1-.96-1.63-.86-3.21.53-6.49.53-9.69 0-.65-.12-1.28.22-1.63.86l-3.45 6.28c-.48.89-1.3 1.55-2.26 1.81-.31.08-.62.12-.92.12l-.01.02ZM11.67 40.07c-.92 0-1.67.81-1.67 1.81v12.24c0 1 .75 1.81 1.67 1.81h6.89c1.53 0 2.9.98 3.4 2.43 1.08 2.99 2.61 5.78 4.55 8.27.92 1.18 1.04 2.88.3 4.23l-3.45 6.3c-.48.86-.19 2 .61 2.48l10.11 6.12c.37.23.8.29 1.21.18.44-.12.8-.41 1.02-.83l3.46-6.29c.76-1.38 2.26-2.13 3.73-1.87 2.96.49 6.03.5 9.02 0 1.46-.24 2.95.51 3.71 1.86l3.46 6.28c.23.42.6.71 1.03.83.41.11.84.05 1.21-.17l10.1-6.12c.81-.5 1.09-1.63.62-2.48l-3.46-6.3c-.74-1.35-.63-3.01.3-4.22 1.93-2.45 3.46-5.24 4.56-8.29.52-1.45 1.89-2.42 3.4-2.42h6.89c.92 0 1.67-.81 1.67-1.81V41.87c0-1-.75-1.81-1.67-1.81h-6.89c-1.53 0-2.9-.98-3.4-2.43-1.08-3-2.61-5.78-4.55-8.27-.92-1.18-1.04-2.89-.3-4.23l3.45-6.3c.48-.86.19-2-.61-2.48l-10.11-6.12c-.37-.23-.8-.29-1.21-.18-.44.12-.8.41-1.02.83l-3.46 6.29c-.76 1.38-2.26 2.13-3.73 1.87-2.97-.5-6.02-.5-9.02 0-1.5.24-2.96-.49-3.71-1.87l-3.45-6.28c-.23-.42-.6-.71-1.03-.83a1.56 1.56 0 0 0-1.21.17l-10.1 6.12c-.81.5-1.09 1.63-.62 2.48l3.46 6.3c.74 1.35.63 3.01-.3 4.23-1.93 2.45-3.46 5.24-4.56 8.29-.53 1.45-1.89 2.42-3.4 2.42h-6.9Z" class="primary"/>
    <path fill="#FF462D" d="M48.01 64c-.9 0-1.8-.07-2.71-.22-6.62-1.09-11.99-6.47-13.07-13.08-.85-5.21.77-10.32 4.47-14.01 3.69-3.69 8.81-5.32 14.02-4.47 6.62 1.09 11.99 6.47 13.07 13.08.85 5.21-.77 10.32-4.47 14.01A15.863 15.863 0 0 1 48.01 64ZM48 34c-3.72 0-7.23 1.44-9.9 4.1-3.23 3.23-4.65 7.71-3.91 12.27.94 5.77 5.64 10.47 11.42 11.43 4.57.74 9.05-.68 12.28-3.91 3.23-3.23 4.65-7.71 3.91-12.27-.94-5.77-5.64-10.47-11.42-11.43-.8-.13-1.59-.2-2.38-.2V34Z" class="secondary"/>
  </g>
</svg>
