<svg xmlns="http://www.w3.org/2000/svg" width="96" height="96" fill="none" viewBox="0 0 96 96">
  <g fill-rule="evenodd" class="shared-services" clip-rule="evenodd">
    <path fill="#3D3C3C" d="M45 27.5C45 37.165 37.165 45 27.5 45S10 37.165 10 27.5 17.835 10 27.5 10 45 17.835 45 27.5Zm2 0C47 38.27 38.27 47 27.5 47S8 38.27 8 27.5 16.73 8 27.5 8 47 16.73 47 27.5ZM53 51h31a2 2 0 0 1 2 2v31a2 2 0 0 1-2 2H53a2 2 0 0 1-2-2V53a2 2 0 0 1 2-2Zm-4 2a4 4 0 0 1 4-4h31a4 4 0 0 1 4 4v31a4 4 0 0 1-4 4H53a4 4 0 0 1-4-4V53Z" class="primary"/>
    <path fill="#FF462D" d="M62.707 9.707a1 1 0 0 0-1.414-1.414l-6 6a1 1 0 0 0 0 1.414l6 6a1 1 0 0 0 1.414-1.414L58.414 16H77.35c2.124 0 3.65 1.524 3.65 3.205V45a1 1 0 0 0 2 0V19.205C83 16.237 80.387 14 77.35 14H58.415l4.292-4.293ZM14 49.857a1 1 0 0 1 1 1v25.795c0 1.763 1.436 3.205 3.254 3.205h19.189l-4.15-4.15a1 1 0 0 1 1.414-1.414l6 6a1 1 0 0 1 0 1.414l-6 6a1 1 0 0 1-1.414-1.414l4.436-4.436H18.254c-2.903 0-5.254-2.319-5.254-5.205V50.857a1 1 0 0 1 1-1Z" class="secondary"/>
  </g>
</svg>
