<svg xmlns="http://www.w3.org/2000/svg" width="96" height="96" fill="none" viewBox="0 0 96 96">
  <g fill-rule="evenodd" class="subscription" clip-rule="evenodd">
    <path fill="#3D3C3C" d="M48.032 10C27.011 10 10 26.874 10 47.688c0 7.018.88 14.358 4.06 19.808a1 1 0 0 1-1.728 1.008C8.876 62.579 8 54.792 8 47.688 8 25.752 25.923 8 48.032 8 58.726 8 68.796 12.33 76 19.122V9a1 1 0 1 1 2 0v13a1 1 0 0 1-1 1H64a1 1 0 1 1 0-2h11.07c-6.875-6.698-16.654-11-27.038-11ZM19 73a1 1 0 0 0-1 1v13a1 1 0 1 0 2 0V76.417C27.176 83.625 37.56 88 48.375 88 70.285 88 88 69.978 88 47.643c0-7.292-.881-13.128-4.282-19.136a1 1 0 1 0-1.74.985C85.143 35.084 86 40.534 86 47.642 86 68.908 69.146 86 48.375 86c-10.297 0-20.17-4.173-26.963-11H32a1 1 0 1 0 0-2H19Z" class="primary"/>
    <path fill="#FF462D" d="M60 34H36a2 2 0 0 0-2 2v24a2 2 0 0 0 2 2h24a2 2 0 0 0 2-2V36a2 2 0 0 0-2-2Zm-24-2a4 4 0 0 0-4 4v24a4 4 0 0 0 4 4h24a4 4 0 0 0 4-4V36a4 4 0 0 0-4-4H36Z" class="secondary"/>
  </g>
</svg>
