<svg xmlns="http://www.w3.org/2000/svg" width="96" height="96" fill="none" viewBox="0 0 96 96">
  <g fill-rule="evenodd" class="tags" clip-rule="evenodd">
    <path fill="#3D3C3C" d="m54.734 10.95-44.25 44.252c-.655.654-.683 1.863.146 2.691L38.12 85.37c.824.83 2.03.801 2.689.143l44.133-44.126a.992.992 0 0 1 .107-.126c.803-.803 1.14-2.01.847-3.222a.932.932 0 0 1-.01-.043l-4.12-21.074a3.737 3.737 0 0 0-2.69-2.69l-21.078-4.12a1.083 1.083 0 0 1-.044-.01c-1.211-.293-2.419.045-3.221.848ZM86.59 42.541a.995.995 0 0 1-.118.142l-44.25 44.243c-1.525 1.525-4.003 1.38-5.52-.148l-.001-.002-27.485-27.47c-1.512-1.512-1.676-3.989-.147-5.518L53.32 9.536c1.318-1.317 3.24-1.82 5.083-1.381l21.08 4.12.045.01a5.735 5.735 0 0 1 4.197 4.23l4.12 21.077c.424 1.782-.032 3.638-1.254 4.95Z" class="primary"/>
    <path fill="#FF462D" d="M66 22a7 7 0 1 0 0 14 7 7 0 0 0 0-14Zm-9 7a9 9 0 1 1 18 0 9 9 0 0 1-18 0Z" class="secondary"/>
  </g>
</svg>
