<svg xmlns="http://www.w3.org/2000/svg" width="96" height="96" fill="none" viewBox="0 0 96 96">
  <g fill-rule="evenodd" class="template" clip-rule="evenodd">
    <path fill="#3D3C3C" d="M17.093 8C12.009 8 8 12.303 8 17.472v60.602C8 83.464 11.982 88 17.09 88h61.82c5.108 0 9.09-4.535 9.09-9.926V17.472C88 12.302 83.991 8 78.907 8H17.093Zm68.956 17v-7.528c0-4.225-3.25-7.55-7.142-7.55H17.093c-3.892 0-7.142 3.325-7.142 7.55V25H86.05ZM9.95 27h76.1v51.074c0 4.482-3.275 7.964-7.14 7.964H17.091c-3.865 0-7.14-3.482-7.14-7.964V27Zm11.542-10h-.986c-.832 0-1.507.62-1.507 1.383v1.234c0 .764.675 1.383 1.507 1.383h.986c.832 0 1.507-.62 1.507-1.383v-1.234c0-.764-.675-1.383-1.507-1.383Zm8.014 0h.986c.832 0 1.507.62 1.507 1.383v1.234c0 .764-.675 1.383-1.507 1.383h-.986C28.675 21 28 20.38 28 19.617v-1.234c0-.764.675-1.383 1.507-1.383Zm9.986 0h-.986c-.832 0-1.507.62-1.507 1.383v1.234c0 .764.675 1.383 1.507 1.383h.986c.832 0 1.507-.62 1.507-1.383v-1.234c0-.764-.675-1.383-1.507-1.383Zm-19.6 16C18.295 33 17 34.343 17 36v40c0 1.657 1.295 3 2.893 3h21.214C42.705 79 44 77.657 44 76V36c0-1.657-1.295-3-2.893-3H19.893Zm-.964 3c0-.552.431-1 .964-1h21.214c.533 0 .964.448.964 1v40c0 .552-.431 1-.964 1H19.893c-.533 0-.964-.448-.964-1V36ZM48 34a1 1 0 0 1 1-1h29a1 1 0 1 1 0 2H49a1 1 0 0 1-1-1Zm1 9a1 1 0 1 0 0 2h29a1 1 0 1 0 0-2H49Z" class="primary"/>
    <path fill="#FF462D" d="M48 55.375C48 53.511 49.343 52 51 52h25c1.657 0 3 1.511 3 3.375v20.25C79 77.489 77.657 79 76 79H51c-1.657 0-3-1.511-3-3.375v-20.25Zm3-1.125c-.552 0-1 .504-1 1.125v20.25c0 .621.448 1.125 1 1.125h25c.552 0 1-.504 1-1.125v-20.25c0-.621-.448-1.125-1-1.125H51Z" class="secondary"/>
  </g>
</svg>
