<svg xmlns="http://www.w3.org/2000/svg" width="96" height="96" fill="none" viewBox="0 0 96 96">
  <g fill-rule="evenodd" class="ticket" clip-rule="evenodd">
    <path fill="#3D3C3C" d="M9 18a1 1 0 0 0-1 1v19a1 1 0 0 0 1 1c2.205 0 4.194 1.102 5.656 2.817C16.123 43.537 17 45.811 17 48c0 2.19-.877 4.462-2.344 6.183C13.194 55.898 11.205 57 9 57a1 1 0 0 0-1 1v19a1 1 0 0 0 1 1h78a1 1 0 0 0 1-1V58a1 1 0 0 0-1-1c-2.205 0-4.194-1.102-5.656-2.817C79.877 52.463 79 50.189 79 48c0-2.19.877-4.462 2.344-6.183C82.806 40.102 84.795 39 87 39a1 1 0 0 0 1-1V19a1 1 0 0 0-1-1H9Zm77 19.058V20H10v17.058c2.483.29 4.624 1.639 6.178 3.462C17.933 42.578 19 45.305 19 48c0 2.695-1.067 5.422-2.822 7.48-1.554 1.824-3.695 3.172-6.178 3.462V76h76V58.942c-2.483-.29-4.624-1.639-6.178-3.462C78.067 53.422 77 50.695 77 48c0-2.695 1.067-5.422 2.822-7.48 1.554-1.824 3.695-3.172 6.178-3.462Z" class="primary"/>
    <path fill="#FF462D" d="M29 25a1 1 0 0 1 1 1v9a1 1 0 1 1-2 0v-9a1 1 0 0 1 1-1Zm0 18a1 1 0 0 1 1 1v8a1 1 0 1 1-2 0v-8a1 1 0 0 1 1-1Zm1 18a1 1 0 1 0-2 0v9a1 1 0 1 0 2 0v-9Z" class="secondary"/>
  </g>
</svg>
