<svg xmlns="http://www.w3.org/2000/svg" width="96" height="96" fill="none" viewBox="0 0 96 96">
  <g class="Size=L">
    <g fill-rule="evenodd" class="Icon" clip-rule="evenodd">
      <path fill="#3D3C3C" d="M8 48C8 25.9 25.9 8 48 8s40 17.9 40 40-17.9 40-40 40S8 70.1 8 48Zm40-38c-20.995 0-38 17.005-38 38s17.005 38 38 38 38-17.005 38-38-17.005-38-38-38Z" class="primary"/>
      <path fill="#FF462D" d="M49 22a1 1 0 1 0-2 0v26c0 .042.002.084.008.124a1 1 0 0 0 .437.958l13.125 8.75a1 1 0 0 0 1.11-1.664L49 47.715V22Z" class="secondary"/>
    </g>
  </g>
</svg>
