<svg xmlns="http://www.w3.org/2000/svg" width="96" height="96" fill="none" viewBox="0 0 96 96">
  <g class="Size=L">
    <g class="Icon">
      <path fill="#3D3C3C" d="M63 78a1 1 0 0 1 0 2H33a1 1 0 0 1 0-2h30Zm15.044-32.294a1 1 0 0 1 1.912.588l-8 26a1 1 0 0 1-1.912-.588l8-26ZM48 23a1 1 0 0 1 1 1v19.072a7.006 7.006 0 0 1 5.605 4.608l19.024-7.609a1.001 1.001 0 0 1 .742 1.858l-19.38 7.75c.005.107.01.213.01.32 0 1.814-.69 3.465-1.821 4.709l13.717 16.656a1 1 0 0 1-1.543 1.271L51.638 55.981A6.967 6.967 0 0 1 48 57a6.967 6.967 0 0 1-3.47-.921L30.898 72.635a1 1 0 0 1-1.543-1.271l13.6-16.516a6.975 6.975 0 0 1-1.947-5.169L21.63 41.93l-.094-.044a1 1 0 0 1 .74-1.847l.096.033 19.024 7.61A7.006 7.006 0 0 1 47 43.071V24a1 1 0 0 1 1-1ZM15.81 44.05a1 1 0 0 1 1.227.538l.037.094 9 27a1 1 0 0 1-1.859.728l-.037-.095-9-27-.028-.099a1 1 0 0 1 .66-1.166ZM48 45a5 5 0 1 0 0 10 5 5 0 0 0 0-10Zm-6.647-26.762a1 1 0 0 1 1.295 1.524l-20 17a1 1 0 1 1-1.295-1.524l20-17Zm11.866.137a1.001 1.001 0 0 1 1.323-.216l.083.06 20 16 .076.068a1 1 0 0 1-1.243 1.554l-.083-.06-20-16-.076-.068a1 1 0 0 1-.08-1.338Z" class="primary"/>
      <path fill="#FF462D" d="M26.125 71a7 7 0 1 1 0 14 7 7 0 0 1 0-14Zm44 0a7 7 0 1 1 0 14 7 7 0 0 1 0-14Zm-44 2a5 5 0 1 0 0 10 5 5 0 0 0 0-10Zm44 0a5 5 0 1 0 0 10 5 5 0 0 0 0-10ZM16 32a7 7 0 1 1 0 14 7 7 0 0 1 0-14Zm64 0a7 7 0 1 1 0 14 7 7 0 0 1 0-14Zm-64 2a5 5 0 1 0 0 10 5 5 0 0 0 0-10Zm64 0a5 5 0 1 0 0 10 5 5 0 0 0 0-10ZM48 10a7 7 0 1 1 0 14 7 7 0 0 1 0-14Zm0 2a5 5 0 1 0 0 10 5 5 0 0 0 0-10Z" class="secondary"/>
    </g>
  </g>
</svg>
