<svg xmlns="http://www.w3.org/2000/svg" width="96" height="96" fill="none" viewBox="0 0 96 96">
  <g fill-rule="evenodd" class="track" clip-rule="evenodd">
    <path fill="#3D3C3C" d="M14 21.5C14 15.149 19.149 10 25.5 10S37 15.149 37 21.5 31.851 33 25.5 33 14 27.851 14 21.5ZM25.5 8C18.044 8 12 14.044 12 21.5S18.044 35 25.5 35c6.95 0 12.673-5.252 13.418-12.003.027.002.054.003.082.003h26c7.222 0 13 5.623 13 12.5S72.222 48 65 48H33c-8.258 0-15 6.45-15 14.5S24.742 77 33 77h24.85a1 1 0 1 0 0-2H33c-7.222 0-13-5.623-13-12.5S25.778 50 33 50h32c8.258 0 15-6.45 15-14.5S73.258 21 65 21H38.99c-.262-7.224-6.202-13-13.49-13Z" class="primary"/>
    <path fill="#FF462D" d="M70.5 63C64.149 63 59 68.149 59 74.5S64.149 86 70.5 86 82 80.851 82 74.5 76.851 63 70.5 63ZM57 74.5C57 67.044 63.044 61 70.5 61S84 67.044 84 74.5 77.956 88 70.5 88 57 81.956 57 74.5Z" class="secondary"/>
  </g>
</svg>
