<svg xmlns="http://www.w3.org/2000/svg" width="96" height="96" fill="none" viewBox="0 0 96 96">
  <g fill-rule="evenodd" class="user" clip-rule="evenodd">
    <path fill="#FF462D" d="M34.908 62.013c-4.37 0-7.91 3.568-7.883 7.956v9.937a.997.997 0 0 1-1 .994c-.553 0-1-.445-1-.994v-9.928c-.032-5.472 4.388-9.954 9.883-9.954H61.14c5.484 0 9.914 4.47 9.883 9.954V80.03a.997.997 0 0 1-1 .994c-.552 0-1-.445-1-.994V69.97c.027-4.396-3.522-7.956-7.883-7.956H34.908Z" class="secondary"/>
    <path fill="#3D3C3C" d="M10 48.012C10 27.018 27.017 10 48.011 10s38.013 17.02 38.013 38.013c0 20.994-17.019 38.013-38.013 38.013S10 69.006 10 48.012ZM48.011 8C25.914 8 8 25.914 8 48.012s17.914 40.012 40.012 40.012S88.024 70.11 88.024 48.012 70.11 8 48.012 8ZM37.024 38.524c0-6.35 5.15-11.5 11.5-11.5 6.352 0 11.5 5.15 11.5 11.5 0 6.352-5.148 11.5-11.5 11.5-6.35 0-11.5-5.148-11.5-11.5Zm11.5-13.5c-7.455 0-13.5 6.045-13.5 13.5 0 7.456 6.045 13.5 13.5 13.5 7.456 0 13.5-6.044 13.5-13.5 0-7.455-6.044-13.5-13.5-13.5Z" class="primary"/>
  </g>
</svg>
