<svg xmlns="http://www.w3.org/2000/svg" width="96" height="96" fill="none" viewBox="0 0 96 96">
  <g fill-rule="evenodd" class="user-manual" clip-rule="evenodd">
    <path fill="#3D3C3C" d="M20 16.488C20 12.89 22.836 10 26.21 10h47.58c3.374 0 6.21 2.89 6.21 6.488v63.024C80 83.11 77.164 86 73.79 86H26.21C22.836 86 20 83.11 20 79.512v-2.623a1 1 0 1 0-2 0v2.623C18 84.142 21.66 88 26.21 88h47.58c4.55 0 8.21-3.857 8.21-8.488V16.488C82 11.858 78.34 8 73.79 8H26.21C21.66 8 18 11.857 18 16.488v10.013c0 .182.048.352.133.499H14a1 1 0 1 0 0 2h10a1 1 0 1 0 0-2h-4.133a.995.995 0 0 0 .133-.499V16.488ZM14 47a1 1 0 1 0 0 2h10a1 1 0 1 0 0-2h-4V35a1 1 0 1 0-2 0v12h-4Zm0 20a1 1 0 1 0 0 2h10a1 1 0 1 0 0-2h-4v-8a1 1 0 1 0-2 0v8h-4Z" class="primary"/>
    <path fill="#FF462D" d="M50 35a2 2 0 1 0 0-4 2 2 0 0 0 0 4Zm1 5a1 1 0 1 0-2 0v25a1 1 0 1 0 2 0V40Z" class="secondary"/>
  </g>
</svg>
