<svg xmlns="http://www.w3.org/2000/svg" width="96" height="96" fill="none" viewBox="0 0 96 96">
  <g fill-rule="evenodd" class="video-tutorial" clip-rule="evenodd">
    <path fill="#3D3C3C" d="M49.005 70.15h30.197c4.851 0 8.798-3.946 8.798-8.796V18.797C88 13.947 84.053 10 79.202 10H16.798C11.947 10 8 13.947 8 18.797v42.557c0 4.85 3.947 8.797 8.798 8.797h30.207v12.755c0 .032 0 .063.003.094h-16.86c-.638 0-1.146.452-1.146 1s.508 1 1.145 1h35.715c.637 0 1.145-.452 1.145-1s-.508-1-1.145-1H49.001c.002-.031.004-.062.004-.094V70.151ZM10 18.5c0-3.616 2.885-6.5 6.501-6.5h62.508c3.616 0 7 3.384 7 7v36.005a1.27 1.27 0 0 0-.107-.005H10.107c-.036 0-.071.002-.107.005V18.5Zm0 38.495c.036.003.071.005.107.005h75.795a1.3 1.3 0 0 0 .108-.005V61.5c0 3.616-3.192 6.415-6.808 6.415H16.798C13.182 67.915 10 65.116 10 61.5v-4.505Z" class="primary"/>
    <path fill="#FF462D" d="M58.312 27.823c2.25 1.147 2.25 4.207 0 5.354l-16.589 8.456C39.588 42.722 37 41.255 37 38.956V22.044c0-2.3 2.588-3.766 4.723-2.678l16.59 8.457Zm-1.012 3.57a.99.99 0 0 0 0-1.785L40.711 21.15c-.712-.362-1.717.083-1.717.849v17c0 .766 1.005 1.211 1.717.849l16.59-8.456ZM17 49a1 1 0 0 1 1-1h8.06c.18-.578.755-1 1.435-1h1.01c.68 0 1.254.422 1.436 1H78a1 1 0 0 1 0 2H29.94c-.182.578-.756 1-1.436 1h-1.01c-.68 0-1.254-.422-1.436-1H18a1 1 0 0 1-1-1Z" class="secondary"/>
  </g>
</svg>
