<svg xmlns="http://www.w3.org/2000/svg" width="96" height="96" fill="none" viewBox="0 0 96 96">
  <g fill-rule="evenodd" class="workflow-automation" clip-rule="evenodd">
    <path fill="#3D3C3C" d="M10 48.321C10 27.156 27.125 10 48.244 10c9.938 0 18.978 3.775 25.769 9.996h-10.03a1 1 0 0 0 0 2h11.996a1 1 0 0 0 1-1V9a1 1 0 1 0-2 0v9.174C67.877 11.834 58.514 8 48.244 8 26.017 8 8 26.056 8 48.321c0 7.322 1.7 14.212 5.132 20.16a1 1 0 0 0 1.733-1C11.626 61.872 10 55.333 10 48.322Zm72.843-20.328a1 1 0 0 0-1.731 1.001C84.332 34.565 86 41.04 86 47.988 86 68.98 68.98 86 47.988 86c-9.915 0-18.931-3.803-25.691-10.02h9.696a1 1 0 1 0 0-2H19.997a1 1 0 0 0-1 1v11.995a1 1 0 1 0 2 0V77.5c7.107 6.514 16.58 10.5 26.99 10.5C70.086 88 88 70.085 88 47.988c0-7.272-1.746-14.096-5.157-19.995Zm-40.994-2.51a1 1 0 0 0-1.414-.32l-8.997 5.998a1 1 0 0 0-.317 1.321l2.388 4.253c-.603.79-1.15 1.638-1.634 2.539-.478.889-.87 1.802-1.186 2.723l-4.693-.008a1 1 0 0 0-1.001 1v11.013a1 1 0 0 0 1 1h5.109a18.363 18.363 0 0 0 3.133 5.108l-2.142 4.367a1 1 0 0 0 .427 1.322l9.484 5.064a1 1 0 0 0 1.354-.413l2.237-4.21c1.977.26 3.964.19 5.886-.191l2.643 4.443a1 1 0 0 0 1.414.32l8.997-5.997a1 1 0 0 0 .318-1.322l-2.389-4.253a18.936 18.936 0 0 0 1.635-2.538c.478-.89.87-1.803 1.186-2.724h4.694a1 1 0 0 0 1-1V41.99a1 1 0 0 0-.997-1l-5.111-.015a18.366 18.366 0 0 0-3.134-5.11L63.88 31.5a1 1 0 0 0-.427-1.323l-9.485-5.063a1 1 0 0 0-1.354.413l-2.237 4.21a18.067 18.067 0 0 0-5.886.19l-2.643-4.442Zm9.963 5.818 2.1-3.952 7.748 4.136-2.015 4.108a1 1 0 0 0 .17 1.125 16.368 16.368 0 0 1 3.433 5.6 1 1 0 0 0 .936.656l4.797.013v8.99h-4.423a1 1 0 0 0-.957.712 16.537 16.537 0 0 1-1.262 3.066 16.81 16.81 0 0 1-1.844 2.752 1 1 0 0 0-.101 1.127l2.263 4.03-7.35 4.9-2.474-4.158a1 1 0 0 0-1.093-.46 16.07 16.07 0 0 1-6.522.213 1 1 0 0 0-1.054.516l-2.1 3.952-7.748-4.137 2.015-4.107a1 1 0 0 0-.17-1.126 16.368 16.368 0 0 1-3.434-5.599 1 1 0 0 0-.938-.656h-4.794v-9.011l4.42.007a1 1 0 0 0 .96-.712c.314-1.045.73-2.075 1.261-3.065a16.81 16.81 0 0 1 1.845-2.753 1 1 0 0 0 .1-1.127l-2.263-4.03 7.35-4.9 2.474 4.158a1 1 0 0 0 1.094.461 16.071 16.071 0 0 1 6.522-.213 1 1 0 0 0 1.054-.516Z" class="primary"/>
    <path fill="#FF462D" d="M47.988 40.99a6.99 6.99 0 0 0-6.998 6.998 6.99 6.99 0 0 0 6.998 6.997 6.997 6.997 0 0 0 6.997-6.997 6.99 6.99 0 0 0-6.997-6.998Zm-8.998 6.998a8.99 8.99 0 0 1 8.998-8.998 8.99 8.99 0 0 1 8.997 8.998 8.997 8.997 0 0 1-8.997 8.997 8.99 8.99 0 0 1-8.998-8.997Z" class="secondary"/>
  </g>
</svg>
