<svg width="20" height="20" viewBox="0 0 20 20" fill="none" xmlns="http://www.w3.org/2000/svg">
<path fill-rule="evenodd" clip-rule="evenodd" d="M3.75 11.875C4.09518 11.875 4.375 12.1548 4.375 12.5V15.9989C4.375 16.1324 4.48384 16.25 4.63571 16.25H8.75C9.09518 16.25 9.375 16.5298 9.375 16.875C9.375 17.2202 9.09518 17.5 8.75 17.5H4.63571C3.80473 17.5 3.125 16.834 3.125 15.9989V12.5C3.125 12.1548 3.40482 11.875 3.75 11.875Z" fill="black"/>
<path fill-rule="evenodd" clip-rule="evenodd" d="M7.05806 15.1831C7.30214 14.939 7.69786 14.939 7.94194 15.1831L9.19194 16.4331C9.43602 16.6771 9.43602 17.0729 9.19194 17.3169L7.94194 18.5669C7.69786 18.811 7.30214 18.811 7.05806 18.5669C6.81398 18.3229 6.81398 17.9271 7.05806 17.6831L7.86612 16.875L7.05806 16.0669C6.81398 15.8229 6.81398 15.4271 7.05806 15.1831Z" fill="black"/>
<path fill-rule="evenodd" clip-rule="evenodd" d="M10.625 3.125C10.625 2.77982 10.9048 2.5 11.25 2.5H15.2813C16.1042 2.5 16.875 3.11476 16.875 4.00109V7.5C16.875 7.84518 16.5952 8.125 16.25 8.125C15.9048 8.125 15.625 7.84518 15.625 7.5V4.00109C15.625 3.91882 15.5333 3.75 15.2813 3.75H11.25C10.9048 3.75 10.625 3.47018 10.625 3.125Z" fill="black"/>
<path fill-rule="evenodd" clip-rule="evenodd" d="M12.9419 1.43306C13.186 1.67714 13.186 2.07286 12.9419 2.31694L12.1339 3.125L12.9419 3.93306C13.186 4.17714 13.186 4.57286 12.9419 4.81694C12.6979 5.06102 12.3021 5.06102 12.0581 4.81694L10.8081 3.56694C10.6908 3.44973 10.625 3.29076 10.625 3.125C10.625 2.95924 10.6908 2.80027 10.8081 2.68306L12.0581 1.43306C12.3021 1.18898 12.6979 1.18898 12.9419 1.43306Z" fill="black"/>
<path fill-rule="evenodd" clip-rule="evenodd" d="M5.3125 2.5C4.79473 2.5 4.375 2.91973 4.375 3.4375C4.375 3.95527 4.79473 4.375 5.3125 4.375C5.83027 4.375 6.25 3.95527 6.25 3.4375C6.25 2.91973 5.83027 2.5 5.3125 2.5ZM3.125 3.4375C3.125 2.22938 4.10438 1.25 5.3125 1.25C6.52062 1.25 7.5 2.22938 7.5 3.4375C7.5 4.64562 6.52062 5.625 5.3125 5.625C4.10438 5.625 3.125 4.64562 3.125 3.4375Z" fill="black"/>
<path fill-rule="evenodd" clip-rule="evenodd" d="M1.25007 7.97938C1.24131 7.03273 2.00355 6.25 2.95464 6.25H7.67041C8.62737 6.25 9.375 7.03756 9.375 7.97422V7.97859L9.37498 7.97859L9.36313 9.67464C9.3617 10.1926 8.94445 10.6192 8.41782 10.6192H8.41157L8.41157 10.6192C7.62841 10.6114 5.56826 10.6169 3.96917 10.6213C3.22621 10.6233 2.58277 10.625 2.21317 10.625C1.6942 10.625 1.26339 10.206 1.26192 9.67468C1.26192 9.67377 1.26192 9.67287 1.26192 9.67196H1.88692L1.26193 9.67633L1.26192 9.67468L1.25008 7.98035L1.87505 7.97422L1.25007 7.97859L1.25007 7.97938ZM2.95464 7.5C2.70784 7.5 2.49746 7.70661 2.50002 7.96808L2.50004 7.96985L2.50986 9.37474C2.87763 9.37418 3.38224 9.37282 3.94639 9.3713C5.37142 9.36746 7.17633 9.3626 8.11525 9.36712L8.125 7.97243C8.12406 7.70142 7.91115 7.5 7.67041 7.5H2.95464Z" fill="black"/>
<path fill-rule="evenodd" clip-rule="evenodd" d="M14.6875 10.625C14.1697 10.625 13.75 11.0447 13.75 11.5625C13.75 12.0803 14.1697 12.5 14.6875 12.5C15.2053 12.5 15.625 12.0803 15.625 11.5625C15.625 11.0447 15.2053 10.625 14.6875 10.625ZM12.5 11.5625C12.5 10.3544 13.4794 9.375 14.6875 9.375C15.8956 9.375 16.875 10.3544 16.875 11.5625C16.875 12.7706 15.8956 13.75 14.6875 13.75C13.4794 13.75 12.5 12.7706 12.5 11.5625Z" fill="black"/>
<path fill-rule="evenodd" clip-rule="evenodd" d="M10.6251 16.1047C10.6161 15.1574 11.3794 14.375 12.3306 14.375H17.0445C18.0015 14.375 18.75 15.162 18.75 16.0992V16.1017H18.75L18.7441 17.5808L18.7439 17.5907C18.7314 18.2238 18.2165 18.7442 17.5729 18.7442H17.57V18.7442C16.7561 18.7406 15.1561 18.7439 13.7702 18.7468C12.9848 18.7485 12.2681 18.75 11.8022 18.75C11.1619 18.75 10.6385 18.2308 10.6369 17.587L10.6251 16.1054C10.6251 16.1051 10.6251 16.1049 10.6251 16.1047ZM12.3306 15.625C12.0827 15.625 11.8725 15.8321 11.875 16.0931L11.875 16.0942L11.8863 17.5C12.3465 17.4998 13.0206 17.4984 13.7571 17.4969C15.102 17.494 16.655 17.4908 17.4944 17.4939L17.5 16.0992C17.5 16.0989 17.5 16.0985 17.5 16.0982C17.4994 15.8273 17.2865 15.625 17.0445 15.625H12.3306Z" fill="black"/>
</svg>
