<svg width="20" height="20" viewBox="0 0 20 20" fill="none" xmlns="http://www.w3.org/2000/svg">
<path fill-rule="evenodd" clip-rule="evenodd" d="M10 2.45834C5.83489 2.45834 2.45837 5.83486 2.45837 10C2.45837 14.1652 5.83489 17.5417 10 17.5417C14.1652 17.5417 17.5417 14.1652 17.5417 10C17.5417 5.83486 14.1652 2.45834 10 2.45834ZM1.20837 10C1.20837 5.14451 5.14454 1.20834 10 1.20834C14.8555 1.20834 18.7917 5.14451 18.7917 10C18.7917 14.8555 14.8555 18.7917 10 18.7917C5.14454 18.7917 1.20837 14.8555 1.20837 10Z" fill="black"/>
<path fill-rule="evenodd" clip-rule="evenodd" d="M10 6.875C9.31125 6.875 8.75 7.43625 8.75 8.125C8.75 8.81375 9.31125 9.375 10 9.375C11.3791 9.375 12.5 10.4959 12.5 11.875C12.5 13.2541 11.3791 14.375 10 14.375C8.62206 14.375 7.5 13.2606 7.5 11.875C7.5 11.5298 7.77982 11.25 8.125 11.25C8.47018 11.25 8.75 11.5298 8.75 11.875C8.75 12.5638 9.31125 13.125 10 13.125C10.6888 13.125 11.25 12.5638 11.25 11.875C11.25 11.1862 10.6888 10.625 10 10.625C8.62089 10.625 7.5 9.50411 7.5 8.125C7.5 6.74589 8.62089 5.625 10 5.625C11.3779 5.625 12.5 6.73937 12.5 8.125C12.5 8.47018 12.2202 8.75 11.875 8.75C11.5298 8.75 11.25 8.47018 11.25 8.125C11.25 7.43625 10.6888 6.875 10 6.875Z" fill="black"/>
<path fill-rule="evenodd" clip-rule="evenodd" d="M10 3.75C10.3452 3.75 10.625 4.02982 10.625 4.375V5.625C10.625 5.97018 10.3452 6.25 10 6.25C9.65482 6.25 9.375 5.97018 9.375 5.625V4.375C9.375 4.02982 9.65482 3.75 10 3.75Z" fill="black"/>
<path fill-rule="evenodd" clip-rule="evenodd" d="M10 13.75C10.3452 13.75 10.625 14.0298 10.625 14.375V15.625C10.625 15.9702 10.3452 16.25 10 16.25C9.65482 16.25 9.375 15.9702 9.375 15.625V14.375C9.375 14.0298 9.65482 13.75 10 13.75Z" fill="black"/>
</svg>
