<svg width="20" height="20" viewBox="0 0 20 20" fill="none" xmlns="http://www.w3.org/2000/svg">
<path d="M5.78518 8.125H5.46482C5.20729 8.125 5 8.31875 5 8.55625V8.94375C5 9.18125 5.20729 9.375 5.46482 9.375H5.78518C6.04271 9.375 6.25 9.18125 6.25 8.94375V8.55625C6.25 8.31875 6.04271 8.125 5.78518 8.125Z" fill="black"/>
<path d="M10.1602 8.125H9.83982C9.58229 8.125 9.375 8.31875 9.375 8.55625V8.94375C9.375 9.18125 9.58229 9.375 9.83982 9.375H10.1602C10.4177 9.375 10.625 9.18125 10.625 8.94375V8.55625C10.625 8.31875 10.4177 8.125 10.1602 8.125Z" fill="black"/>
<path d="M14.5352 8.125H14.2148C13.9573 8.125 13.75 8.31875 13.75 8.55625V8.94375C13.75 9.18125 13.9573 9.375 14.2148 9.375H14.5352C14.7927 9.375 15 9.18125 15 8.94375V8.55625C15 8.31875 14.7927 8.125 14.5352 8.125Z" fill="black"/>
<path fill-rule="evenodd" clip-rule="evenodd" d="M1.25 5.31404C1.25 3.72602 2.60364 2.5 4.19643 2.5H15.8036C17.3964 2.5 18.75 3.72602 18.75 5.31404V12.4257C18.75 13.1974 18.4553 13.8617 17.9224 14.3253C17.3988 14.7807 16.6955 15 15.9375 15H9.57612L6.37164 17.3006C6.36203 17.3075 6.35222 17.3141 6.34223 17.3205C5.91071 17.5946 5.41284 17.5149 5.08077 17.3475C4.75465 17.1831 4.375 16.8217 4.375 16.2877V15H4.0625C3.30565 15 2.6025 14.7827 2.07856 14.3288C1.54488 13.8665 1.25 13.2031 1.25 12.4311V5.31404ZM4.19643 3.75C3.22404 3.75 2.5 4.48431 2.5 5.31404V12.4311C2.5 12.8681 2.65758 13.1766 2.897 13.384C3.14616 13.5998 3.53676 13.75 4.0625 13.75H5C5.34518 13.75 5.625 14.0298 5.625 14.375V16.2207C5.63041 16.2243 5.63658 16.2279 5.64345 16.2313C5.65623 16.2378 5.66927 16.2426 5.68135 16.2458C5.68596 16.247 5.6901 16.2479 5.69372 16.2485L9.0105 13.8673C9.11674 13.791 9.24422 13.75 9.375 13.75H15.9375C16.4621 13.75 16.8526 13.5991 17.1021 13.3821C17.3422 13.1732 17.5 12.8628 17.5 12.4257V5.31404C17.5 4.48431 16.776 3.75 15.8036 3.75H4.19643Z" fill="black"/>
</svg>
