<svg width="20" height="20" viewBox="0 0 20 20" fill="none" xmlns="http://www.w3.org/2000/svg">
<path d="M11.2625 18.75C10.9312 18.75 10.6125 18.6188 10.375 18.3813C10.0562 18.0625 9.93124 17.6188 10.0437 17.1813H10.0375L10.4187 15.6625C10.4437 15.55 10.5062 15.45 10.5812 15.375L15.3687 10.575C16.1375 9.80626 17.3937 9.80626 18.1687 10.575C18.9437 11.35 18.9437 12.6 18.1687 13.375L13.3812 18.1625C13.3 18.2438 13.2 18.3 13.0937 18.325L11.575 18.7063C11.4687 18.7313 11.3687 18.7438 11.2625 18.7438V18.75ZM11.25 17.4813C11.25 17.4813 11.25 17.4813 11.25 17.4875L12.625 17.1563L17.2875 12.4938C17.5687 12.2125 17.5687 11.75 17.2875 11.4625C17 11.175 16.5375 11.175 16.2562 11.4625L11.5875 16.1313L11.25 17.4813Z" fill="black"/>
<path fill-rule="evenodd" clip-rule="evenodd" d="M2.5 3.58644C2.5 2.28217 3.57701 1.25 4.87619 1.25H11.875L12.3118 1.42801L16.6868 5.70372L16.875 6.1507V8.4375C16.875 8.78268 16.5952 9.0625 16.25 9.0625C15.9048 9.0625 15.625 8.78268 15.625 8.4375V6.4138L11.6203 2.5H4.87619C4.24016 2.5 3.75 2.99942 3.75 3.58644V16.4136C3.75 17.0006 4.24016 17.5 4.87619 17.5H8.125C8.47018 17.5 8.75 17.7798 8.75 18.125C8.75 18.4702 8.47018 18.75 8.125 18.75H4.87619C3.57701 18.75 2.5 17.7178 2.5 16.4136V3.58644Z" fill="black"/>
<path fill-rule="evenodd" clip-rule="evenodd" d="M11.875 1.25C12.2202 1.25 12.5 1.52982 12.5 1.875V5.37619C12.5 5.5125 12.6125 5.625 12.7488 5.625H16.25C16.5952 5.625 16.875 5.90482 16.875 6.25C16.875 6.59518 16.5952 6.875 16.25 6.875H12.7488C11.9221 6.875 11.25 6.20285 11.25 5.37619V1.875C11.25 1.52982 11.5298 1.25 11.875 1.25Z" fill="black"/>
<path fill-rule="evenodd" clip-rule="evenodd" d="M5 5C5 4.65482 5.27982 4.375 5.625 4.375H9.375C9.72018 4.375 10 4.65482 10 5C10 5.34518 9.72018 5.625 9.375 5.625H5.625C5.27982 5.625 5 5.34518 5 5ZM5 7.5C5 7.15482 5.27982 6.875 5.625 6.875H9.375C9.72018 6.875 10 7.15482 10 7.5C10 7.84518 9.72018 8.125 9.375 8.125H5.625C5.27982 8.125 5 7.84518 5 7.5ZM5 10C5 9.65482 5.27982 9.375 5.625 9.375H7.8125C8.15768 9.375 8.4375 9.65482 8.4375 10C8.4375 10.3452 8.15768 10.625 7.8125 10.625H5.625C5.27982 10.625 5 10.3452 5 10Z" fill="black"/>
</svg>
