<svg width="20" height="20" viewBox="0 0 20 20" fill="none" xmlns="http://www.w3.org/2000/svg">
<path fill-rule="evenodd" clip-rule="evenodd" d="M2.625 2.5C2.55596 2.5 2.5 2.55596 2.5 2.625V4.875C2.5 4.94404 2.55596 5 2.625 5H4.875C4.94404 5 5 4.94404 5 4.875V2.625C5 2.55596 4.94404 2.5 4.875 2.5H2.625ZM1.25 2.625C1.25 1.86561 1.86561 1.25 2.625 1.25H4.875C5.63439 1.25 6.25 1.86561 6.25 2.625V4.875C6.25 5.63439 5.63439 6.25 4.875 6.25H2.625C1.86561 6.25 1.25 5.63439 1.25 4.875V2.625Z" fill="black"/>
<path fill-rule="evenodd" clip-rule="evenodd" d="M2.625 15C2.55596 15 2.5 15.056 2.5 15.125V17.375C2.5 17.444 2.55596 17.5 2.625 17.5H4.875C4.94404 17.5 5 17.444 5 17.375V15.125C5 15.056 4.94404 15 4.875 15H2.625ZM1.25 15.125C1.25 14.3656 1.86561 13.75 2.625 13.75H4.875C5.63439 13.75 6.25 14.3656 6.25 15.125V17.375C6.25 18.1344 5.63439 18.75 4.875 18.75H2.625C1.86561 18.75 1.25 18.1344 1.25 17.375V15.125Z" fill="black"/>
<path fill-rule="evenodd" clip-rule="evenodd" d="M3.14624 10C3.14624 9.65482 3.42606 9.375 3.77124 9.375H11.0382C11.3834 9.375 11.6632 9.65482 11.6632 10C11.6632 10.3452 11.3834 10.625 11.0382 10.625H3.77124C3.42606 10.625 3.14624 10.3452 3.14624 10Z" fill="black"/>
<path fill-rule="evenodd" clip-rule="evenodd" d="M3.77124 5.22247C4.11642 5.22247 4.39624 5.5023 4.39624 5.84747V14.1526C4.39624 14.4977 4.11642 14.7776 3.77124 14.7776C3.42606 14.7776 3.14624 14.4977 3.14624 14.1526V5.84747C3.14624 5.5023 3.42606 5.22247 3.77124 5.22247Z" fill="black"/>
<path fill-rule="evenodd" clip-rule="evenodd" d="M12.0357 2.5C11.9665 2.5 11.875 2.56403 11.875 2.6875V17.3125C11.875 17.436 11.9665 17.5 12.0357 17.5H17.3393C17.4085 17.5 17.5 17.436 17.5 17.3125V2.6875C17.5 2.56403 17.4085 2.5 17.3393 2.5H12.0357ZM10.625 2.6875C10.625 1.91351 11.237 1.25 12.0357 1.25H17.3393C18.138 1.25 18.75 1.91351 18.75 2.6875V17.3125C18.75 18.0865 18.138 18.75 17.3393 18.75H12.0357C11.237 18.75 10.625 18.0865 10.625 17.3125V2.6875Z" fill="black"/>
<path fill-rule="evenodd" clip-rule="evenodd" d="M13.125 5C13.125 4.65482 13.4048 4.375 13.75 4.375H15.625C15.9702 4.375 16.25 4.65482 16.25 5C16.25 5.34518 15.9702 5.625 15.625 5.625H13.75C13.4048 5.625 13.125 5.34518 13.125 5Z" fill="black"/>
<path fill-rule="evenodd" clip-rule="evenodd" d="M13.125 7.5C13.125 7.15482 13.4048 6.875 13.75 6.875H15.625C15.9702 6.875 16.25 7.15482 16.25 7.5C16.25 7.84518 15.9702 8.125 15.625 8.125H13.75C13.4048 8.125 13.125 7.84518 13.125 7.5Z" fill="black"/>
</svg>
