<svg width="20" height="20" viewBox="0 0 20 20" fill="none" xmlns="http://www.w3.org/2000/svg">
<path fill-rule="evenodd" clip-rule="evenodd" d="M10 3.75C6.98926 3.75 4.26811 4.88425 2.29984 6.7084C2.04667 6.94304 1.65123 6.92801 1.4166 6.67484C1.18196 6.42167 1.19699 6.02623 1.45016 5.7916C3.64886 3.75387 6.67325 2.5 10 2.5C13.3268 2.5 16.3511 3.75387 18.5498 5.7916C18.803 6.02623 18.818 6.42167 18.5834 6.67484C18.3488 6.92801 17.9533 6.94304 17.7002 6.7084C15.7319 4.88425 13.0107 3.75 10 3.75Z" fill="black"/>
<path fill-rule="evenodd" clip-rule="evenodd" d="M10 7.5C7.99116 7.5 6.16373 8.37279 4.83217 9.80117C4.5968 10.0537 4.20131 10.0675 3.94883 9.83216C3.69634 9.59679 3.68247 9.20131 3.91784 8.94882C5.46588 7.28821 7.61621 6.25 10 6.25C12.3838 6.25 14.5341 7.28821 16.0822 8.94882C16.3175 9.20131 16.3037 9.59679 16.0512 9.83216C15.7987 10.0675 15.4032 10.0537 15.1678 9.80117C13.8363 8.37279 12.0088 7.5 10 7.5Z" fill="black"/>
<path fill-rule="evenodd" clip-rule="evenodd" d="M10 11.25C8.94463 11.25 7.99468 11.6624 7.30924 12.3245C7.06099 12.5643 6.66532 12.5575 6.42549 12.3092C6.18567 12.061 6.1925 11.6653 6.44076 11.4255C7.35445 10.5428 8.61397 10 10 10C11.386 10 12.6456 10.5428 13.5592 11.4255C13.8075 11.6653 13.8143 12.061 13.5745 12.3092C13.3347 12.5575 12.939 12.5643 12.6908 12.3245C12.0053 11.6624 11.0554 11.25 10 11.25Z" fill="black"/>
<path fill-rule="evenodd" clip-rule="evenodd" d="M10 13.75C9.83243 13.75 9.67772 13.8177 9.5602 13.9352L9.55512 13.9403L9.55509 13.9402C9.44438 14.0484 9.375 14.1996 9.375 14.375C9.375 14.7197 9.65534 15 10 15C10.3447 15 10.625 14.7197 10.625 14.375C10.625 14.2074 10.5573 14.0527 10.4398 13.9352L10.4347 13.9301L10.4348 13.9301C10.3276 13.8204 10.1716 13.75 10 13.75ZM8.67885 13.0488C9.01755 12.7114 9.48421 12.5 10 12.5C10.5118 12.5 10.9875 12.7086 11.3262 13.0538C11.6637 13.3926 11.875 13.8592 11.875 14.375C11.875 15.41 11.035 16.25 10 16.25C8.96499 16.25 8.125 15.41 8.125 14.375C8.125 13.8566 8.33466 13.3865 8.67885 13.0488Z" fill="black"/>
</svg>
