<svg width="20" height="20" viewBox="0 0 20 20" fill="none" xmlns="http://www.w3.org/2000/svg">
<path fill-rule="evenodd" clip-rule="evenodd" d="M5 2.5H2.5V5H5V2.5ZM2.5 1.25C1.80964 1.25 1.25 1.80964 1.25 2.5V5C1.25 5.69036 1.80964 6.25 2.5 6.25H5C5.69036 6.25 6.25 5.69036 6.25 5V2.5C6.25 1.80964 5.69036 1.25 5 1.25H2.5Z" fill="black"/>
<path fill-rule="evenodd" clip-rule="evenodd" d="M11.25 2.5H8.75V5H11.25V2.5ZM8.75 1.25C8.05964 1.25 7.5 1.80964 7.5 2.5V5C7.5 5.69036 8.05964 6.25 8.75 6.25H11.25C11.9404 6.25 12.5 5.69036 12.5 5V2.5C12.5 1.80964 11.9404 1.25 11.25 1.25H8.75Z" fill="black"/>
<path fill-rule="evenodd" clip-rule="evenodd" d="M17.5 2.5H15V5H17.5V2.5ZM15 1.25C14.3096 1.25 13.75 1.80964 13.75 2.5V5C13.75 5.69036 14.3096 6.25 15 6.25H17.5C18.1904 6.25 18.75 5.69036 18.75 5V2.5C18.75 1.80964 18.1904 1.25 17.5 1.25H15Z" fill="black"/>
<path fill-rule="evenodd" clip-rule="evenodd" d="M5 8.75H2.5V11.25H5V8.75ZM2.5 7.5C1.80964 7.5 1.25 8.05964 1.25 8.75V11.25C1.25 11.9404 1.80964 12.5 2.5 12.5H5C5.69036 12.5 6.25 11.9404 6.25 11.25V8.75C6.25 8.05964 5.69036 7.5 5 7.5H2.5Z" fill="black"/>
<path fill-rule="evenodd" clip-rule="evenodd" d="M11.25 8.75H8.75V11.25H11.25V8.75ZM8.75 7.5C8.05964 7.5 7.5 8.05964 7.5 8.75V11.25C7.5 11.9404 8.05964 12.5 8.75 12.5H11.25C11.9404 12.5 12.5 11.9404 12.5 11.25V8.75C12.5 8.05964 11.9404 7.5 11.25 7.5H8.75Z" fill="black"/>
<path fill-rule="evenodd" clip-rule="evenodd" d="M17.5 8.75H15V11.25H17.5V8.75ZM15 7.5C14.3096 7.5 13.75 8.05964 13.75 8.75V11.25C13.75 11.9404 14.3096 12.5 15 12.5H17.5C18.1904 12.5 18.75 11.9404 18.75 11.25V8.75C18.75 8.05964 18.1904 7.5 17.5 7.5H15Z" fill="black"/>
<path fill-rule="evenodd" clip-rule="evenodd" d="M5 15H2.5V17.5H5V15ZM2.5 13.75C1.80964 13.75 1.25 14.3096 1.25 15V17.5C1.25 18.1904 1.80964 18.75 2.5 18.75H5C5.69036 18.75 6.25 18.1904 6.25 17.5V15C6.25 14.3096 5.69036 13.75 5 13.75H2.5Z" fill="black"/>
<path fill-rule="evenodd" clip-rule="evenodd" d="M11.25 15H8.75V17.5H11.25V15ZM8.75 13.75C8.05964 13.75 7.5 14.3096 7.5 15V17.5C7.5 18.1904 8.05964 18.75 8.75 18.75H11.25C11.9404 18.75 12.5 18.1904 12.5 17.5V15C12.5 14.3096 11.9404 13.75 11.25 13.75H8.75Z" fill="black"/>
<path fill-rule="evenodd" clip-rule="evenodd" d="M17.5 15H15V17.5H17.5V15ZM15 13.75C14.3096 13.75 13.75 14.3096 13.75 15V17.5C13.75 18.1904 14.3096 18.75 15 18.75H17.5C18.1904 18.75 18.75 18.1904 18.75 17.5V15C18.75 14.3096 18.1904 13.75 17.5 13.75H15Z" fill="black"/>
</svg>
