<svg width="20" height="20" viewBox="0 0 20 20" fill="none" xmlns="http://www.w3.org/2000/svg">
<path fill-rule="evenodd" clip-rule="evenodd" d="M9.99993 2.45834C7.21233 2.45834 4.94312 4.73576 4.94312 7.55001C4.94312 9.79548 6.26264 12.3131 7.67207 14.3389C8.36627 15.3367 9.06167 16.1864 9.58375 16.7867C9.73982 16.9662 9.88012 17.123 9.99993 17.2546C10.1197 17.123 10.2601 16.9662 10.4161 16.7867C10.9382 16.1864 11.6336 15.3367 12.3278 14.3389C13.7372 12.3131 15.0568 9.79548 15.0568 7.55001C15.0568 4.73576 12.7875 2.45834 9.99993 2.45834ZM9.99993 18.1667C9.55664 18.6073 9.55653 18.6072 9.55639 18.607L9.55487 18.6055L9.55103 18.6016L9.53733 18.5877C9.52555 18.5757 9.50855 18.5582 9.48667 18.5356C9.44292 18.4903 9.37964 18.4241 9.29962 18.3387C9.13962 18.1679 8.91247 17.9197 8.64054 17.607C8.09729 16.9824 7.37224 16.0967 6.64598 15.0528C5.2145 12.9953 3.69312 10.2045 3.69312 7.55001C3.69312 4.05259 6.51481 1.20834 9.99993 1.20834C13.4851 1.20834 16.3068 4.05259 16.3068 7.55001C16.3068 10.2045 14.7854 12.9953 13.3539 15.0528C12.6276 16.0967 11.9026 16.9824 11.3593 17.607C11.0874 17.9197 10.8602 18.1679 10.7002 18.3387C10.6202 18.4241 10.5569 18.4903 10.5132 18.5356C10.4913 18.5582 10.4743 18.5757 10.4625 18.5877L10.4488 18.6016L10.445 18.6055L10.4439 18.6066C10.4437 18.6068 10.4432 18.6073 9.99993 18.1667ZM9.99993 18.1667L10.4432 18.6073C10.3259 18.7253 10.1664 18.7917 9.99993 18.7917C9.83351 18.7917 9.67371 18.7251 9.55639 18.607L9.99993 18.1667Z" fill="black"/>
<path fill-rule="evenodd" clip-rule="evenodd" d="M10 5C8.96447 5 8.125 5.83947 8.125 6.875C8.125 7.91053 8.96447 8.75 10 8.75C11.0355 8.75 11.875 7.91053 11.875 6.875C11.875 5.83947 11.0355 5 10 5ZM6.875 6.875C6.875 5.14911 8.27411 3.75 10 3.75C11.7259 3.75 13.125 5.14911 13.125 6.875C13.125 8.60089 11.7259 10 10 10C8.27411 10 6.875 8.60089 6.875 6.875Z" fill="black"/>
</svg>
