<svg width="20" height="20" viewBox="0 0 20 20" fill="none" xmlns="http://www.w3.org/2000/svg">
<path d="M2.65774 17.5H2.34226C2.0842 17.5 1.875 17.6944 1.875 17.9342V18.3158C1.875 18.5556 2.0842 18.75 2.34226 18.75H2.65774C2.9158 18.75 3.125 18.5556 3.125 18.3158V17.9342C3.125 17.6944 2.9158 17.5 2.65774 17.5Z" fill="black"/>
<path d="M4.53274 17.5H4.21726C3.9592 17.5 3.75 17.6944 3.75 17.9342V18.3158C3.75 18.5556 3.9592 18.75 4.21726 18.75H4.53274C4.7908 18.75 5 18.5556 5 18.3158V17.9342C5 17.6944 4.7908 17.5 4.53274 17.5Z" fill="black"/>
<path d="M6.40774 17.5H6.09226C5.8342 17.5 5.625 17.6944 5.625 17.9342V18.3158C5.625 18.5556 5.8342 18.75 6.09226 18.75H6.40774C6.6658 18.75 6.875 18.5556 6.875 18.3158V17.9342C6.875 17.6944 6.6658 17.5 6.40774 17.5Z" fill="black"/>
<path d="M8.28274 17.5H7.96726C7.7092 17.5 7.5 17.6944 7.5 17.9342V18.3158C7.5 18.5556 7.7092 18.75 7.96726 18.75H8.28274C8.5408 18.75 8.75 18.5556 8.75 18.3158V17.9342C8.75 17.6944 8.5408 17.5 8.28274 17.5Z" fill="black"/>
<path d="M10.1577 17.5H9.84226C9.5842 17.5 9.375 17.6944 9.375 17.9342V18.3158C9.375 18.5556 9.5842 18.75 9.84226 18.75H10.1577C10.4158 18.75 10.625 18.5556 10.625 18.3158V17.9342C10.625 17.6944 10.4158 17.5 10.1577 17.5Z" fill="black"/>
<path d="M12.0327 17.5H11.7173C11.4592 17.5 11.25 17.6944 11.25 17.9342V18.3158C11.25 18.5556 11.4592 18.75 11.7173 18.75H12.0327C12.2908 18.75 12.5 18.5556 12.5 18.3158V17.9342C12.5 17.6944 12.2908 17.5 12.0327 17.5Z" fill="black"/>
<path d="M13.9077 17.5H13.5923C13.3342 17.5 13.125 17.6944 13.125 17.9342V18.3158C13.125 18.5556 13.3342 18.75 13.5923 18.75H13.9077C14.1658 18.75 14.375 18.5556 14.375 18.3158V17.9342C14.375 17.6944 14.1658 17.5 13.9077 17.5Z" fill="black"/>
<path d="M15.7827 17.5H15.4673C15.2092 17.5 15 17.6944 15 17.9342V18.3158C15 18.5556 15.2092 18.75 15.4673 18.75H15.7827C16.0408 18.75 16.25 18.5556 16.25 18.3158V17.9342C16.25 17.6944 16.0408 17.5 15.7827 17.5Z" fill="black"/>
<path d="M17.6577 17.5H17.3423C17.0842 17.5 16.875 17.6944 16.875 17.9342V18.3158C16.875 18.5556 17.0842 18.75 17.3423 18.75H17.6577C17.9158 18.75 18.125 18.5556 18.125 18.3158V17.9342C18.125 17.6944 17.9158 17.5 17.6577 17.5Z" fill="black"/>
<path d="M2.65774 1.25H2.34226C2.0842 1.25 1.875 1.44439 1.875 1.68418V2.06582C1.875 2.30561 2.0842 2.5 2.34226 2.5H2.65774C2.9158 2.5 3.125 2.30561 3.125 2.06582V1.68418C3.125 1.44439 2.9158 1.25 2.65774 1.25Z" fill="black"/>
<path d="M4.53274 1.25H4.21726C3.9592 1.25 3.75 1.44439 3.75 1.68418V2.06582C3.75 2.30561 3.9592 2.5 4.21726 2.5H4.53274C4.7908 2.5 5 2.30561 5 2.06582V1.68418C5 1.44439 4.7908 1.25 4.53274 1.25Z" fill="black"/>
<path d="M6.40774 1.25H6.09226C5.8342 1.25 5.625 1.44439 5.625 1.68418V2.06582C5.625 2.30561 5.8342 2.5 6.09226 2.5H6.40774C6.6658 2.5 6.875 2.30561 6.875 2.06582V1.68418C6.875 1.44439 6.6658 1.25 6.40774 1.25Z" fill="black"/>
<path d="M8.28274 1.25H7.96726C7.7092 1.25 7.5 1.44439 7.5 1.68418V2.06582C7.5 2.30561 7.7092 2.5 7.96726 2.5H8.28274C8.5408 2.5 8.75 2.30561 8.75 2.06582V1.68418C8.75 1.44439 8.5408 1.25 8.28274 1.25Z" fill="black"/>
<path d="M10.1577 1.25H9.84226C9.5842 1.25 9.375 1.44439 9.375 1.68418V2.06582C9.375 2.30561 9.5842 2.5 9.84226 2.5H10.1577C10.4158 2.5 10.625 2.30561 10.625 2.06582V1.68418C10.625 1.44439 10.4158 1.25 10.1577 1.25Z" fill="black"/>
<path d="M12.0327 1.25H11.7173C11.4592 1.25 11.25 1.44439 11.25 1.68418V2.06582C11.25 2.30561 11.4592 2.5 11.7173 2.5H12.0327C12.2908 2.5 12.5 2.30561 12.5 2.06582V1.68418C12.5 1.44439 12.2908 1.25 12.0327 1.25Z" fill="black"/>
<path d="M13.9077 1.25H13.5923C13.3342 1.25 13.125 1.44439 13.125 1.68418V2.06582C13.125 2.30561 13.3342 2.5 13.5923 2.5H13.9077C14.1658 2.5 14.375 2.30561 14.375 2.06582V1.68418C14.375 1.44439 14.1658 1.25 13.9077 1.25Z" fill="black"/>
<path d="M15.7827 1.25H15.4673C15.2092 1.25 15 1.44439 15 1.68418V2.06582C15 2.30561 15.2092 2.5 15.4673 2.5H15.7827C16.0408 2.5 16.25 2.30561 16.25 2.06582V1.68418C16.25 1.44439 16.0408 1.25 15.7827 1.25Z" fill="black"/>
<path d="M17.6577 1.25H17.3423C17.0842 1.25 16.875 1.44439 16.875 1.68418V2.06582C16.875 2.30561 17.0842 2.5 17.3423 2.5H17.6577C17.9158 2.5 18.125 2.30561 18.125 2.06582V1.68418C18.125 1.44439 17.9158 1.25 17.6577 1.25Z" fill="black"/>
<path d="M2.03274 3.75H1.71726C1.4592 3.75 1.25 3.94439 1.25 4.18418V4.56582C1.25 4.80561 1.4592 5 1.71726 5H2.03274C2.2908 5 2.5 4.80561 2.5 4.56582V4.18418C2.5 3.94439 2.2908 3.75 2.03274 3.75Z" fill="black"/>
<path d="M2.03274 5.625H1.71726C1.4592 5.625 1.25 5.81939 1.25 6.05918V6.44082C1.25 6.68061 1.4592 6.875 1.71726 6.875H2.03274C2.2908 6.875 2.5 6.68061 2.5 6.44082V6.05918C2.5 5.81939 2.2908 5.625 2.03274 5.625Z" fill="black"/>
<path d="M2.03274 7.5H1.71726C1.4592 7.5 1.25 7.69439 1.25 7.93418V8.31582C1.25 8.55561 1.4592 8.75 1.71726 8.75H2.03274C2.2908 8.75 2.5 8.55561 2.5 8.31582V7.93418C2.5 7.69439 2.2908 7.5 2.03274 7.5Z" fill="black"/>
<path d="M2.03274 9.375H1.71726C1.4592 9.375 1.25 9.56939 1.25 9.80918V10.1908C1.25 10.4306 1.4592 10.625 1.71726 10.625H2.03274C2.2908 10.625 2.5 10.4306 2.5 10.1908V9.80918C2.5 9.56939 2.2908 9.375 2.03274 9.375Z" fill="black"/>
<path d="M2.03274 11.25H1.71726C1.4592 11.25 1.25 11.4444 1.25 11.6842V12.0658C1.25 12.3056 1.4592 12.5 1.71726 12.5H2.03274C2.2908 12.5 2.5 12.3056 2.5 12.0658V11.6842C2.5 11.4444 2.2908 11.25 2.03274 11.25Z" fill="black"/>
<path d="M2.03274 13.125H1.71726C1.4592 13.125 1.25 13.3194 1.25 13.5592V13.9408C1.25 14.1806 1.4592 14.375 1.71726 14.375H2.03274C2.2908 14.375 2.5 14.1806 2.5 13.9408V13.5592C2.5 13.3194 2.2908 13.125 2.03274 13.125Z" fill="black"/>
<path d="M2.03274 15H1.71726C1.4592 15 1.25 15.1944 1.25 15.4342V15.8158C1.25 16.0556 1.4592 16.25 1.71726 16.25H2.03274C2.2908 16.25 2.5 16.0556 2.5 15.8158V15.4342C2.5 15.1944 2.2908 15 2.03274 15Z" fill="black"/>
<path d="M18.2827 3.75H17.9673C17.7092 3.75 17.5 3.94439 17.5 4.18418V4.56582C17.5 4.80561 17.7092 5 17.9673 5H18.2827C18.5408 5 18.75 4.80561 18.75 4.56582V4.18418C18.75 3.94439 18.5408 3.75 18.2827 3.75Z" fill="black"/>
<path d="M18.2827 5.625H17.9673C17.7092 5.625 17.5 5.81939 17.5 6.05918V6.44082C17.5 6.68061 17.7092 6.875 17.9673 6.875H18.2827C18.5408 6.875 18.75 6.68061 18.75 6.44082V6.05918C18.75 5.81939 18.5408 5.625 18.2827 5.625Z" fill="black"/>
<path d="M18.2827 7.5H17.9673C17.7092 7.5 17.5 7.69439 17.5 7.93418V8.31582C17.5 8.55561 17.7092 8.75 17.9673 8.75H18.2827C18.5408 8.75 18.75 8.55561 18.75 8.31582V7.93418C18.75 7.69439 18.5408 7.5 18.2827 7.5Z" fill="black"/>
<path d="M18.2827 9.375H17.9673C17.7092 9.375 17.5 9.56939 17.5 9.80918V10.1908C17.5 10.4306 17.7092 10.625 17.9673 10.625H18.2827C18.5408 10.625 18.75 10.4306 18.75 10.1908V9.80918C18.75 9.56939 18.5408 9.375 18.2827 9.375Z" fill="black"/>
<path d="M18.2827 11.25H17.9673C17.7092 11.25 17.5 11.4444 17.5 11.6842V12.0658C17.5 12.3056 17.7092 12.5 17.9673 12.5H18.2827C18.5408 12.5 18.75 12.3056 18.75 12.0658V11.6842C18.75 11.4444 18.5408 11.25 18.2827 11.25Z" fill="black"/>
<path d="M18.2827 13.125H17.9673C17.7092 13.125 17.5 13.3194 17.5 13.5592V13.9408C17.5 14.1806 17.7092 14.375 17.9673 14.375H18.2827C18.5408 14.375 18.75 14.1806 18.75 13.9408V13.5592C18.75 13.3194 18.5408 13.125 18.2827 13.125Z" fill="black"/>
<path d="M18.2827 15H17.9673C17.7092 15 17.5 15.1944 17.5 15.4342V15.8158C17.5 16.0556 17.7092 16.25 17.9673 16.25H18.2827C18.5408 16.25 18.75 16.0556 18.75 15.8158V15.4342C18.75 15.1944 18.5408 15 18.2827 15Z" fill="black"/>
<path fill-rule="evenodd" clip-rule="evenodd" d="M7.10714 6.875C6.97893 6.875 6.875 6.97893 6.875 7.10714V12.8929C6.875 13.0211 6.97893 13.125 7.10714 13.125H12.8929C13.0211 13.125 13.125 13.0211 13.125 12.8929V7.10714C13.125 6.97893 13.0211 6.875 12.8929 6.875H7.10714ZM5.625 7.10714C5.625 6.28858 6.28858 5.625 7.10714 5.625H12.8929C13.7114 5.625 14.375 6.28858 14.375 7.10714V12.8929C14.375 13.7114 13.7114 14.375 12.8929 14.375H7.10714C6.28858 14.375 5.625 13.7114 5.625 12.8929V7.10714Z" fill="black"/>
</svg>
