<svg width="20" height="20" viewBox="0 0 20 20" fill="none" xmlns="http://www.w3.org/2000/svg">
<path fill-rule="evenodd" clip-rule="evenodd" d="M11.9853 2.47075C11.8617 2.44153 11.7607 2.479 11.7019 2.53778L2.46367 11.7702C2.46476 11.7716 2.46609 11.7731 2.46771 11.7747L8.21554 17.5284C8.21882 17.5315 8.2219 17.5338 8.22466 17.5356L17.4622 8.29807C17.5209 8.23928 17.5584 8.13824 17.5292 8.01461C17.5273 8.00665 17.5256 7.99864 17.524 7.99061L16.6643 3.58745C16.6303 3.46624 16.5337 3.3696 16.4125 3.33565L12.0093 2.47593C12.0013 2.47436 11.9933 2.47263 11.9853 2.47075ZM12.2595 1.25116C11.7454 1.13423 11.1994 1.27263 10.8181 1.65376C10.8181 1.65381 10.8182 1.65372 10.8181 1.65376L1.5548 10.9113L1.5491 10.917C1.0616 11.417 1.11904 12.1936 1.5836 12.6584L7.33527 18.4159L7.34072 18.4213C7.80348 18.8733 8.58183 18.9462 9.08271 18.4453L18.346 9.18195C18.7273 8.80071 18.8657 8.25461 18.7488 7.74047L17.8875 3.32941C17.8856 3.31953 17.8834 3.3097 17.881 3.29993C17.738 2.71827 17.2817 2.26195 16.7 2.11892C16.6902 2.11652 16.6804 2.11435 16.6705 2.11243L12.2595 1.25116Z" fill="black"/>
<path fill-rule="evenodd" clip-rule="evenodd" d="M13.75 5C13.0596 5 12.5 5.55964 12.5 6.25C12.5 6.94036 13.0596 7.5 13.75 7.5C14.4404 7.5 15 6.94036 15 6.25C15 5.55964 14.4404 5 13.75 5ZM11.25 6.25C11.25 4.86929 12.3693 3.75 13.75 3.75C15.1307 3.75 16.25 4.86929 16.25 6.25C16.25 7.63071 15.1307 8.75 13.75 8.75C12.3693 8.75 11.25 7.63071 11.25 6.25Z" fill="black"/>
</svg>
