<svg width="20" height="20" viewBox="0 0 20 20" fill="none" xmlns="http://www.w3.org/2000/svg">
<path fill-rule="evenodd" clip-rule="evenodd" d="M3.75 4.375C3.75 2.64911 5.14911 1.25 6.875 1.25H13.125C14.8509 1.25 16.25 2.64911 16.25 4.375V5C16.25 5.34518 15.9702 5.625 15.625 5.625C15.2798 5.625 15 5.34518 15 5V4.375C15 3.33947 14.1605 2.5 13.125 2.5H6.875C5.83947 2.5 5 3.33947 5 4.375V15.625C5 16.6605 5.83947 17.5 6.875 17.5H13.125C14.1605 17.5 15 16.6605 15 15.625V15C15 14.6548 15.2798 14.375 15.625 14.375C15.9702 14.375 16.25 14.6548 16.25 15V15.625C16.25 17.3509 14.8509 18.75 13.125 18.75H6.875C5.14911 18.75 3.75 17.3509 3.75 15.625V4.375Z" fill="black"/>
<path fill-rule="evenodd" clip-rule="evenodd" d="M10 10.028C10 9.68284 10.2798 9.40302 10.625 9.40302H17.4266C17.7718 9.40302 18.0516 9.68284 18.0516 10.028C18.0516 10.3732 17.7718 10.653 17.4266 10.653H10.625C10.2798 10.653 10 10.3732 10 10.028Z" fill="black"/>
<path fill-rule="evenodd" clip-rule="evenodd" d="M14.5798 6.41238C14.8353 6.18029 15.2305 6.19926 15.4626 6.45476L18.3035 9.58222C18.5202 9.82069 18.52 10.1848 18.3032 10.4231L15.4623 13.5456C15.23 13.8009 14.8347 13.8196 14.5794 13.5873C14.3241 13.355 14.3054 12.9597 14.5377 12.7044L16.9962 10.0021L14.5374 7.29524C14.3053 7.03974 14.3243 6.64447 14.5798 6.41238Z" fill="black"/>
</svg>
