<svg width="20" height="20" viewBox="0 0 20 20" fill="none" xmlns="http://www.w3.org/2000/svg">
<rect width="20" height="20" fill="white"/>
<path fill-rule="evenodd" clip-rule="evenodd" d="M15.625 1.25C15.9702 1.25 16.25 1.52982 16.25 1.875V4.375C16.25 4.72018 15.9702 5 15.625 5H13.125C12.7798 5 12.5 4.72018 12.5 4.375C12.5 4.02982 12.7798 3.75 13.125 3.75H15V1.875C15 1.52982 15.2798 1.25 15.625 1.25Z" fill="black"/>
<path fill-rule="evenodd" clip-rule="evenodd" d="M3.75 15.625C3.75 15.2798 4.02982 15 4.375 15H6.875C7.22018 15 7.5 15.2798 7.5 15.625C7.5 15.9702 7.22018 16.25 6.875 16.25H5V18.125C5 18.4702 4.72018 18.75 4.375 18.75C4.02982 18.75 3.75 18.4702 3.75 18.125V15.625Z" fill="black"/>
<path fill-rule="evenodd" clip-rule="evenodd" d="M10 2.5C5.85612 2.5 2.5 5.85612 2.5 10C2.5 11.3693 2.8673 12.6471 3.50481 13.7496C3.6776 14.0485 3.57543 14.4308 3.27661 14.6036C2.97779 14.7763 2.59548 14.6742 2.42269 14.3754C1.67895 13.0891 1.25 11.5964 1.25 10C1.25 5.16576 5.16576 1.25 10 1.25C12.3851 1.25 14.4637 2.01733 16.0669 3.62056C16.311 3.86464 16.311 4.26036 16.0669 4.50444C15.8229 4.74852 15.4271 4.74852 15.1831 4.50444C13.845 3.16642 12.0999 2.5 10 2.5Z" fill="black"/>
<path fill-rule="evenodd" clip-rule="evenodd" d="M16.7234 5.39642C17.0222 5.22364 17.4045 5.32581 17.5773 5.62462C18.321 6.91085 18.75 8.40363 18.75 9.99998C18.75 14.8342 14.8342 18.75 9.99999 18.75C7.61485 18.75 5.53628 17.9826 3.93306 16.3794C3.68898 16.1353 3.68898 15.7396 3.93306 15.4955C4.17714 15.2515 4.57286 15.2515 4.81694 15.4955C6.15497 16.8336 7.90014 17.5 9.99999 17.5C14.1439 17.5 17.5 14.1439 17.5 9.99998C17.5 8.63071 17.1327 7.35286 16.4952 6.25034C16.3224 5.95152 16.4246 5.56921 16.7234 5.39642Z" fill="black"/>
</svg>
