<svg width="20" height="20" viewBox="0 0 20 20" fill="none" xmlns="http://www.w3.org/2000/svg">
<path fill-rule="evenodd" clip-rule="evenodd" d="M2.5 10C2.5 9.65482 2.77982 9.375 3.125 9.375H5.625C5.97018 9.375 6.25 9.65482 6.25 10C6.25 10.3452 5.97018 10.625 5.625 10.625H3.125C2.77982 10.625 2.5 10.3452 2.5 10Z" fill="black"/>
<path fill-rule="evenodd" clip-rule="evenodd" d="M4.375 6.875C4.72018 6.875 5 7.15482 5 7.5V10C5 10.3452 4.72018 10.625 4.375 10.625C4.02982 10.625 3.75 10.3452 3.75 10V7.5C3.75 7.15482 4.02982 6.875 4.375 6.875Z" fill="black"/>
<path fill-rule="evenodd" clip-rule="evenodd" d="M2.5 5.625C2.5 5.27982 2.77982 5 3.125 5H5.625C5.97018 5 6.25 5.27982 6.25 5.625C6.25 5.97018 5.97018 6.25 5.625 6.25H3.125C2.77982 6.25 2.5 5.97018 2.5 5.625Z" fill="black"/>
<path fill-rule="evenodd" clip-rule="evenodd" d="M2.5 14.375C2.5 14.0298 2.77982 13.75 3.125 13.75H5.625C5.97018 13.75 6.25 14.0298 6.25 14.375C6.25 14.7202 5.97018 15 5.625 15H3.125C2.77982 15 2.5 14.7202 2.5 14.375Z" fill="black"/>
<path fill-rule="evenodd" clip-rule="evenodd" d="M4.375 11.25C4.72018 11.25 5 11.5298 5 11.875V13.75C5 14.0952 4.72018 14.375 4.375 14.375C4.02982 14.375 3.75 14.0952 3.75 13.75V11.875C3.75 11.5298 4.02982 11.25 4.375 11.25Z" fill="black"/>
<path fill-rule="evenodd" clip-rule="evenodd" d="M6.875 8.125C6.875 7.77982 7.15482 7.5 7.5 7.5H9.375C9.72018 7.5 10 7.77982 10 8.125C10 8.47018 9.72018 8.75 9.375 8.75H7.5C7.15482 8.75 6.875 8.47018 6.875 8.125Z" fill="black"/>
<path fill-rule="evenodd" clip-rule="evenodd" d="M6.875 13.75C6.875 13.4048 7.15482 13.125 7.5 13.125H9.375C9.72018 13.125 10 13.4048 10 13.75C10 14.0952 9.72018 14.375 9.375 14.375H7.5C7.15482 14.375 6.875 14.0952 6.875 13.75Z" fill="black"/>
<path fill-rule="evenodd" clip-rule="evenodd" d="M6.875 11.875C6.875 11.5298 7.15482 11.25 7.5 11.25H9.375C9.72018 11.25 10 11.5298 10 11.875C10 12.2202 9.72018 12.5 9.375 12.5H7.5C7.15482 12.5 6.875 12.2202 6.875 11.875Z" fill="black"/>
<path fill-rule="evenodd" clip-rule="evenodd" d="M6.875 6.25C6.875 5.90482 7.15482 5.625 7.5 5.625L9.375 5.62501C9.72018 5.62501 10 5.90483 10 6.25001C10 6.59518 9.72017 6.87501 9.375 6.87501L7.5 6.875C7.15482 6.875 6.875 6.59518 6.875 6.25Z" fill="black"/>
<path fill-rule="evenodd" clip-rule="evenodd" d="M5.90135 2.5C5.42061 2.5 5 2.91007 5 3.435V5.52109C5 5.86627 4.72018 6.14609 4.375 6.14609C4.02982 6.14609 3.75 5.86627 3.75 5.52109V3.435C3.75 2.24555 4.70469 1.25 5.90135 1.25H15.9737C17.1703 1.25 18.125 2.24555 18.125 3.435V16.565C18.125 17.7544 17.1703 18.75 15.9737 18.75H5.90135C4.70469 18.75 3.75 17.7544 3.75 16.565V16.2185C3.75 15.8733 4.02982 15.5935 4.375 15.5935C4.72018 15.5935 5 15.8733 5 16.2185V16.565C5 17.0899 5.42061 17.5 5.90135 17.5H15.9737C16.4544 17.5 16.875 17.0899 16.875 16.565V3.435C16.875 2.91007 16.4544 2.5 15.9737 2.5H5.90135Z" fill="black"/>
<path fill-rule="evenodd" clip-rule="evenodd" d="M11.9161 5.625C11.8934 5.625 11.875 5.64342 11.875 5.66615V8.08385C11.875 8.10658 11.8934 8.125 11.9161 8.125H14.3339C14.3566 8.125 14.375 8.10658 14.375 8.08385V5.66615C14.375 5.64342 14.3566 5.625 14.3339 5.625H11.9161ZM10.625 5.66615C10.625 4.95307 11.2031 4.375 11.9161 4.375H14.3339C15.0469 4.375 15.625 4.95307 15.625 5.66615V8.08385C15.625 8.79693 15.0469 9.375 14.3339 9.375H11.9161C11.2031 9.375 10.625 8.79693 10.625 8.08385V5.66615Z" fill="black"/>
<path fill-rule="evenodd" clip-rule="evenodd" d="M11.9161 11.875C11.8934 11.875 11.875 11.8934 11.875 11.9161V14.3339C11.875 14.3566 11.8934 14.375 11.9161 14.375H14.3339C14.3566 14.375 14.375 14.3566 14.375 14.3339V11.9161C14.375 11.8934 14.3566 11.875 14.3339 11.875H11.9161ZM10.625 11.9161C10.625 11.2031 11.2031 10.625 11.9161 10.625H14.3339C15.0469 10.625 15.625 11.2031 15.625 11.9161V14.3339C15.625 15.0469 15.0469 15.625 14.3339 15.625H11.9161C11.2031 15.625 10.625 15.0469 10.625 14.3339V11.9161Z" fill="black"/>
</svg>
