<svg width="20" height="20" viewBox="0 0 20 20" fill="none" xmlns="http://www.w3.org/2000/svg">
<path fill-rule="evenodd" clip-rule="evenodd" d="M10.5478 1.39096C13.2302 2.82451 15.6924 3.61591 16.6304 3.88692L16.6377 3.88902L16.6377 3.88906C17.1131 4.03268 17.5 4.45828 17.5 5.00954V11.9662C17.5 12.9161 17.0698 13.7788 16.4881 14.5151C15.9042 15.254 15.1294 15.9151 14.3439 16.4766C12.772 17.6002 11.061 18.3922 10.4664 18.6536L10.4551 18.6585C10.162 18.7805 9.83804 18.7805 9.54493 18.6585L9.53466 18.6541C8.93606 18.3922 7.22508 17.6002 5.65384 16.4765C4.86866 15.9149 4.09434 15.2538 3.51097 14.5149C2.92965 13.7785 2.5 12.9159 2.5 11.9662V5.01534C2.5 4.47536 2.87594 4.03275 3.3699 3.89262C4.31546 3.61358 6.77977 2.82795 9.44524 1.39157C9.78818 1.20301 10.2047 1.20281 10.5478 1.39096ZM9.99727 2.514C7.26537 3.98072 4.75054 4.78738 3.75 5.08373V11.9662C3.75 12.5307 4.00698 13.1259 4.49207 13.7403C4.97512 14.3522 5.64701 14.9348 6.38097 15.4597C7.81838 16.4877 9.40175 17.2297 9.99991 17.4932C10.5971 17.2289 12.1796 16.4871 13.617 15.4596C14.3513 14.9347 15.0238 14.352 15.5073 13.7401C15.9928 13.1256 16.25 12.5305 16.25 11.9662V5.0781C15.2426 4.78517 12.7361 3.97281 9.99727 2.514Z" fill="black"/>
<path fill-rule="evenodd" clip-rule="evenodd" d="M13.5669 7.058C13.811 7.30205 13.811 7.69778 13.567 7.94188L9.19313 12.3169C9.07591 12.4341 8.91692 12.5 8.75113 12.5C8.58534 12.5 8.42635 12.4341 8.30913 12.3169L6.433 10.4403C6.18896 10.1962 6.18901 9.80043 6.43312 9.55639C6.67722 9.31234 7.07295 9.31239 7.317 9.5565L8.75113 10.991L12.683 7.05812C12.927 6.81401 13.3228 6.81396 13.5669 7.058Z" fill="black"/>
</svg>
