<svg width="20" height="20" viewBox="0 0 20 20" fill="none" xmlns="http://www.w3.org/2000/svg">
<path fill-rule="evenodd" clip-rule="evenodd" d="M8.125 8.75C8.125 8.40482 8.40482 8.125 8.75 8.125H11.1266C12.2326 8.125 13.1236 9.02709 13.1236 10.1273V12.5C13.1236 12.6169 13.216 12.7083 13.3309 12.7083H13.75C14.0952 12.7083 14.375 12.9882 14.375 13.3333V15C14.375 15.3452 14.0952 15.625 13.75 15.625H8.75C8.40482 15.625 8.125 15.3452 8.125 15V13.3333C8.125 12.9882 8.40482 12.7083 8.75 12.7083H9.37644V11.25C9.37644 11.1331 9.28401 11.0417 9.16906 11.0417H8.75C8.40482 11.0417 8.125 10.7618 8.125 10.4167V8.75ZM11.8737 12.5166C11.8736 12.513 11.8736 12.5094 11.8736 12.5058V10.1273C11.8736 9.71134 11.5361 9.375 11.1266 9.375H9.375V9.80608C10.0814 9.90583 10.6264 10.5113 10.6264 11.25V13.3333C10.6264 13.6785 10.3466 13.9583 10.0014 13.9583H9.375V14.375H13.125V13.9439C12.4239 13.8449 11.8818 13.2477 11.8737 12.5166Z" fill="black"/>
<path fill-rule="evenodd" clip-rule="evenodd" d="M8.75 5.62789C8.75 4.59972 9.58195 3.75 10.625 3.75C11.6548 3.75 12.5 4.58066 12.5 5.62211C12.5 6.65028 11.668 7.5 10.625 7.5C9.5933 7.5 8.75 6.66168 8.75 5.62789ZM10.625 5C10.2804 5 10 5.28192 10 5.62789C10 5.96822 10.2806 6.25 10.625 6.25C10.9696 6.25 11.25 5.96808 11.25 5.62211C11.25 5.27788 10.9713 5 10.625 5Z" fill="black"/>
<path fill-rule="evenodd" clip-rule="evenodd" d="M2.5 5.625C2.5 5.27982 2.77982 5 3.125 5H5.625C5.97018 5 6.25 5.27982 6.25 5.625C6.25 5.97018 5.97018 6.25 5.625 6.25H3.125C2.77982 6.25 2.5 5.97018 2.5 5.625Z" fill="black"/>
<path fill-rule="evenodd" clip-rule="evenodd" d="M2.5 10C2.5 9.65482 2.77982 9.375 3.125 9.375H5.625C5.97018 9.375 6.25 9.65482 6.25 10C6.25 10.3452 5.97018 10.625 5.625 10.625H3.125C2.77982 10.625 2.5 10.3452 2.5 10Z" fill="black"/>
<path fill-rule="evenodd" clip-rule="evenodd" d="M4.375 6.875C4.72018 6.875 5 7.15482 5 7.5V10C5 10.3452 4.72018 10.625 4.375 10.625C4.02982 10.625 3.75 10.3452 3.75 10V7.5C3.75 7.15482 4.02982 6.875 4.375 6.875Z" fill="black"/>
<path fill-rule="evenodd" clip-rule="evenodd" d="M2.5 14.375C2.5 14.0298 2.77982 13.75 3.125 13.75H5.625C5.97018 13.75 6.25 14.0298 6.25 14.375C6.25 14.7202 5.97018 15 5.625 15H3.125C2.77982 15 2.5 14.7202 2.5 14.375Z" fill="black"/>
<path fill-rule="evenodd" clip-rule="evenodd" d="M4.375 11.25C4.72018 11.25 5 11.5298 5 11.875V13.75C5 14.0952 4.72018 14.375 4.375 14.375C4.02982 14.375 3.75 14.0952 3.75 13.75V11.875C3.75 11.5298 4.02982 11.25 4.375 11.25Z" fill="black"/>
<path fill-rule="evenodd" clip-rule="evenodd" d="M5.90135 2.5C5.42061 2.5 5 2.91007 5 3.435V5.52109C5 5.86627 4.72018 6.14609 4.375 6.14609C4.02982 6.14609 3.75 5.86627 3.75 5.52109V3.435C3.75 2.24555 4.70469 1.25 5.90135 1.25H15.9737C17.1703 1.25 18.125 2.24555 18.125 3.435V16.565C18.125 17.7544 17.1703 18.75 15.9737 18.75H5.90135C4.70469 18.75 3.75 17.7544 3.75 16.565V16.2185C3.75 15.8733 4.02982 15.5935 4.375 15.5935C4.72018 15.5935 5 15.8733 5 16.2185V16.565C5 17.0899 5.42061 17.5 5.90135 17.5H15.9737C16.4544 17.5 16.875 17.0899 16.875 16.565V3.435C16.875 2.91007 16.4544 2.5 15.9737 2.5H5.90135Z" fill="black"/>
</svg>
