<svg width="20" height="20" viewBox="0 0 20 20" fill="none" xmlns="http://www.w3.org/2000/svg">
<path fill-rule="evenodd" clip-rule="evenodd" d="M1.38827 7.10794C1.50691 6.96064 1.68587 6.875 1.87501 6.875H18.125C18.3105 6.875 18.4865 6.95742 18.6052 7.09995C18.7239 7.24249 18.7732 7.43041 18.7397 7.61288L17.2651 15.6436C17.0625 16.7484 16.0484 17.5 14.9319 17.5H5.23469C4.21037 17.5 3.26733 16.8258 3.04771 15.8143C3.04769 15.8142 3.04773 15.8144 3.04771 15.8143L1.26435 7.63311C1.22406 7.44832 1.26963 7.25523 1.38827 7.10794ZM2.65092 8.125L4.2691 15.5484C4.35023 15.9222 4.73161 16.25 5.23469 16.25H14.9319C15.5135 16.25 15.9537 15.8645 16.0356 15.4182L17.3748 8.125H2.65092Z" fill="black"/>
<path fill-rule="evenodd" clip-rule="evenodd" d="M6.08405 9.39745C6.41683 9.30578 6.76092 9.50123 6.85259 9.83402L7.88563 13.584C7.9773 13.9168 7.78184 14.2609 7.44906 14.3526C7.11628 14.4442 6.77219 14.2488 6.68052 13.916L5.64748 10.166C5.55581 9.83321 5.75126 9.48912 6.08405 9.39745Z" fill="black"/>
<path fill-rule="evenodd" clip-rule="evenodd" d="M14.3553 9.39745C14.6881 9.48912 14.8835 9.83321 14.7919 10.166L13.7588 13.916C13.6672 14.2488 13.3231 14.4442 12.9903 14.3526C12.6575 14.2609 12.4621 13.9168 12.5537 13.584L13.5868 9.83402C13.6784 9.50123 14.0225 9.30578 14.3553 9.39745Z" fill="black"/>
<path fill-rule="evenodd" clip-rule="evenodd" d="M10.3125 9.375C10.6577 9.375 10.9375 9.65482 10.9375 10V13.75C10.9375 14.0952 10.6577 14.375 10.3125 14.375C9.96732 14.375 9.6875 14.0952 9.6875 13.75V10C9.6875 9.65482 9.96732 9.375 10.3125 9.375Z" fill="black"/>
<path fill-rule="evenodd" clip-rule="evenodd" d="M12.6492 1.3205C12.9554 1.16125 13.3328 1.28041 13.492 1.58666L15.117 4.71166C15.2763 5.01791 15.1571 5.39527 14.8509 5.55452C14.5446 5.71377 14.1672 5.5946 14.008 5.28835L12.383 2.16335C12.2237 1.8571 12.3429 1.47975 12.6492 1.3205Z" fill="black"/>
<path fill-rule="evenodd" clip-rule="evenodd" d="M7.53835 1.3205C7.8446 1.47975 7.96377 1.8571 7.80452 2.16335L6.17952 5.28835C6.02027 5.5946 5.64291 5.71377 5.33666 5.55452C5.03041 5.39527 4.91125 5.01791 5.0705 4.71166L6.6955 1.58666C6.85475 1.28041 7.2321 1.16125 7.53835 1.3205Z" fill="black"/>
</svg>
