<svg width="20" height="20" viewBox="0 0 20 20" fill="none" xmlns="http://www.w3.org/2000/svg">
<path fill-rule="evenodd" clip-rule="evenodd" d="M2.83995 4.33824C2.61537 4.33824 2.45536 4.51486 2.45536 4.70339V8.42162C2.45536 8.61014 2.61537 8.78677 2.83995 8.78677H4.0625C4.39535 8.78677 4.66518 9.05836 4.66518 9.39338C4.66518 9.72841 4.39535 10 4.0625 10H2.83995C1.97576 10 1.25 9.30616 1.25 8.42162V4.70339C1.25 3.81884 1.97576 3.125 2.83995 3.125H6.27232C6.60517 3.125 6.875 3.39659 6.875 3.73162C6.875 4.06664 6.60517 4.33824 6.27232 4.33824H2.83995Z" fill="black"/>
<path fill-rule="evenodd" clip-rule="evenodd" d="M3.16022 7.7224C3.42494 7.50535 3.84335 7.51466 4.09477 7.74319L5.45342 8.97813C5.69572 9.19836 5.69573 9.54385 5.45346 9.7641L4.09482 10.9992C3.84342 11.2278 3.42501 11.2371 3.16027 11.0201C2.89554 10.803 2.88472 10.4418 3.13613 10.2133L4.06246 9.37116L3.13615 8.52919C2.88473 8.30067 2.89551 7.93945 3.16022 7.7224Z" fill="black"/>
<path fill-rule="evenodd" clip-rule="evenodd" d="M17.1477 10.5882C17.3275 10.5882 17.5 10.7383 17.5 10.9534V14.6716C17.5 14.8867 17.3275 15.0368 17.1477 15.0368H15.9375C15.5923 15.0368 15.3125 15.3084 15.3125 15.6434C15.3125 15.9784 15.5923 16.25 15.9375 16.25H17.1477C18.0456 16.25 18.75 15.5296 18.75 14.6716V10.9534C18.75 10.0954 18.0456 9.375 17.1477 9.375H13.75C13.4048 9.375 13.125 9.64659 13.125 9.98162C13.125 10.3166 13.4048 10.5882 13.75 10.5882H17.1477Z" fill="black"/>
<path fill-rule="evenodd" clip-rule="evenodd" d="M16.8122 13.952C16.5487 13.7257 16.1322 13.7354 15.882 13.9737L14.5645 15.2282C14.3234 15.4578 14.3234 15.8181 14.5645 16.0477L15.8819 17.3024C16.1322 17.5407 16.5486 17.5505 16.8121 17.3242C17.0756 17.0979 17.0864 16.7212 16.8362 16.4829L15.949 15.638L16.8361 14.7933C17.0864 14.555 17.0756 14.1783 16.8122 13.952Z" fill="black"/>
<path fill-rule="evenodd" clip-rule="evenodd" d="M6.25 2.5C6.25 1.80964 6.80964 1.25 7.5 1.25H12.5C13.1904 1.25 13.75 1.80964 13.75 2.5V5C13.75 5.69036 13.1904 6.25 12.5 6.25H7.5C6.80964 6.25 6.25 5.69036 6.25 5V2.5ZM12.5 2.5H7.5V5H12.5V2.5Z" fill="black"/>
<path fill-rule="evenodd" clip-rule="evenodd" d="M6.25 8.75C6.25 8.05964 6.80964 7.5 7.5 7.5H12.5C13.1904 7.5 13.75 8.05964 13.75 8.75V11.25C13.75 11.9404 13.1904 12.5 12.5 12.5H7.5C6.80964 12.5 6.25 11.9404 6.25 11.25V8.75ZM12.5 8.75H7.5V11.25H12.5V8.75Z" fill="black"/>
<path fill-rule="evenodd" clip-rule="evenodd" d="M6.25 15C6.25 14.3096 6.80964 13.75 7.5 13.75H12.5C13.1904 13.75 13.75 14.3096 13.75 15V17.5C13.75 18.1904 13.1904 18.75 12.5 18.75H7.5C6.80964 18.75 6.25 18.1904 6.25 17.5V15ZM12.5 15H7.5V17.5H12.5V15Z" fill="black"/>
</svg>
