<svg width="20" height="20" viewBox="0 0 20 20" fill="none" xmlns="http://www.w3.org/2000/svg">
<path d="M4.52915 3.125H4.22085C3.96081 3.125 3.75 3.31846 3.75 3.5571V3.9429C3.75 4.18154 3.96081 4.375 4.22085 4.375H4.52915C4.78919 4.375 5 4.18154 5 3.9429V3.5571C5 3.31846 4.78919 3.125 4.52915 3.125Z" fill="black"/>
<path d="M6.40415 3.125H6.09585C5.83581 3.125 5.625 3.31846 5.625 3.5571V3.9429C5.625 4.18154 5.83581 4.375 6.09585 4.375H6.40415C6.66419 4.375 6.875 4.18154 6.875 3.9429V3.5571C6.875 3.31846 6.66419 3.125 6.40415 3.125Z" fill="black"/>
<path d="M8.27915 3.125H7.97085C7.71081 3.125 7.5 3.31846 7.5 3.5571V3.9429C7.5 4.18154 7.71081 4.375 7.97085 4.375H8.27915C8.53919 4.375 8.75 4.18154 8.75 3.9429V3.5571C8.75 3.31846 8.53919 3.125 8.27915 3.125Z" fill="black"/>
<path fill-rule="evenodd" clip-rule="evenodd" d="M1.20837 4.91833H18.7917V16.3175C18.7917 17.6316 17.8033 18.7917 16.4692 18.7917H3.53087C2.19678 18.7917 1.20837 17.6316 1.20837 16.3175V4.91833ZM2.45837 6.16833V16.3175C2.45837 17.0451 2.98663 17.5417 3.53087 17.5417H16.4692C17.0135 17.5417 17.5417 17.0451 17.5417 16.3175V6.16833H2.45837Z" fill="black"/>
<path fill-rule="evenodd" clip-rule="evenodd" d="M1.20837 3.68251C1.20837 2.36844 2.19678 1.20834 3.53087 1.20834H16.4692C17.8033 1.20834 18.7917 2.36844 18.7917 3.68251V6.16834H1.20837V3.68251ZM3.53087 2.45834C2.98663 2.45834 2.45837 2.95491 2.45837 3.68251V4.91834H17.5417V3.68251C17.5417 2.95491 17.0135 2.45834 16.4692 2.45834H3.53087Z" fill="black"/>
<path fill-rule="evenodd" clip-rule="evenodd" d="M7.5 13.75C8.88071 13.75 10 12.6307 10 11.25C10 9.86929 8.88071 8.75 7.5 8.75C6.11929 8.75 5 9.86929 5 11.25C5 12.6307 6.11929 13.75 7.5 13.75ZM7.5 15C9.57107 15 11.25 13.3211 11.25 11.25C11.25 9.17893 9.57107 7.5 7.5 7.5C5.42893 7.5 3.75 9.17893 3.75 11.25C3.75 13.3211 5.42893 15 7.5 15Z" fill="black"/>
<path fill-rule="evenodd" clip-rule="evenodd" d="M7.5 8.125C7.84518 8.125 8.125 8.40482 8.125 8.75V10.625H10C10.3452 10.625 10.625 10.9048 10.625 11.25C10.625 11.5952 10.3452 11.875 10 11.875H8.125C7.43464 11.875 6.875 11.3154 6.875 10.625V8.75C6.875 8.40482 7.15482 8.125 7.5 8.125Z" fill="black"/>
<path fill-rule="evenodd" clip-rule="evenodd" d="M12.5 12.5C12.5 12.1548 12.7798 11.875 13.125 11.875H15.625C15.9702 11.875 16.25 12.1548 16.25 12.5C16.25 12.8452 15.9702 13.125 15.625 13.125H13.125C12.7798 13.125 12.5 12.8452 12.5 12.5Z" fill="black"/>
<path fill-rule="evenodd" clip-rule="evenodd" d="M12.5 10C12.5 9.65482 12.7798 9.375 13.125 9.375H15.625C15.9702 9.375 16.25 9.65482 16.25 10C16.25 10.3452 15.9702 10.625 15.625 10.625H13.125C12.7798 10.625 12.5 10.3452 12.5 10Z" fill="black"/>
</svg>
