<svg width="20" height="20" viewBox="0 0 20 20" fill="none" xmlns="http://www.w3.org/2000/svg">
<path fill-rule="evenodd" clip-rule="evenodd" d="M12.0991 1.83334C12.0991 1.48817 12.3789 1.20834 12.7241 1.20834H17.5416C18.232 1.20834 18.7916 1.76799 18.7916 2.45834V7.27584C18.7916 7.62102 18.5118 7.90084 18.1666 7.90084C17.8214 7.90084 17.5416 7.62102 17.5416 7.27584L17.5416 2.45834H12.7241C12.3789 2.45834 12.0991 2.17852 12.0991 1.83334Z" fill="black"/>
<path fill-rule="evenodd" clip-rule="evenodd" d="M17.9419 2.05806C18.186 2.30214 18.186 2.69786 17.9419 2.94194L12.9419 7.94194C12.6979 8.18602 12.3021 8.18602 12.0581 7.94194C11.814 7.69786 11.814 7.30214 12.0581 7.05806L17.0581 2.05806C17.3021 1.81398 17.6979 1.81398 17.9419 2.05806Z" fill="black"/>
<path fill-rule="evenodd" clip-rule="evenodd" d="M1.83337 12.0992C2.17855 12.0992 2.45837 12.379 2.45837 12.7242V17.5417H7.27587C7.62105 17.5417 7.90087 17.8215 7.90087 18.1667C7.90087 18.5118 7.62105 18.7917 7.27587 18.7917H2.45837C1.76802 18.7917 1.20837 18.232 1.20837 17.5417V12.7242C1.20837 12.379 1.4882 12.0992 1.83337 12.0992Z" fill="black"/>
<path fill-rule="evenodd" clip-rule="evenodd" d="M7.94194 12.0581C8.18602 12.3021 8.18602 12.6979 7.94194 12.9419L2.94194 17.9419C2.69786 18.186 2.30214 18.186 2.05806 17.9419C1.81398 17.6979 1.81398 17.3021 2.05806 17.0581L7.05806 12.0581C7.30214 11.814 7.69786 11.814 7.94194 12.0581Z" fill="black"/>
</svg>
