<svg width="20" height="20" viewBox="0 0 20 20" fill="none" xmlns="http://www.w3.org/2000/svg">
<path fill-rule="evenodd" clip-rule="evenodd" d="M6.25 14.375C6.25 14.0299 6.52982 13.75 6.875 13.75L8.75 13.75C9.09518 13.75 9.375 14.0299 9.375 14.375C9.375 14.7202 9.09518 15 8.75 15L6.875 15C6.52982 15 6.25 14.7202 6.25 14.375Z" fill="black"/>
<path fill-rule="evenodd" clip-rule="evenodd" d="M6.25 10C6.25 9.65485 6.52982 9.37503 6.875 9.37503H8.75C9.09518 9.37503 9.375 9.65485 9.375 10C9.375 10.3452 9.09518 10.625 8.75 10.625H6.875C6.52982 10.625 6.25 10.3452 6.25 10Z" fill="black"/>
<path fill-rule="evenodd" clip-rule="evenodd" d="M6.07066 4.375C5.51419 4.375 5 4.86444 5 5.54615V16.3288C5 17.0119 5.51005 17.5 6.07066 17.5H14.5543C15.1108 17.5 15.625 17.0106 15.625 16.3288V5.54615C15.625 4.86311 15.115 4.375 14.5543 4.375H13.125C12.7798 4.375 12.5 4.09518 12.5 3.75C12.5 3.40482 12.7798 3.125 13.125 3.125H14.5543C15.873 3.125 16.875 4.24245 16.875 5.54615V16.3288C16.875 17.6339 15.8663 18.75 14.5543 18.75H6.07066C4.752 18.75 3.75 17.6325 3.75 16.3288V5.54615C3.75 4.24112 4.75866 3.125 6.07066 3.125H7.1875C7.53268 3.125 7.8125 3.40482 7.8125 3.75C7.8125 4.09518 7.53268 4.375 7.1875 4.375H6.07066Z" fill="black"/>
<path fill-rule="evenodd" clip-rule="evenodd" d="M8.125 2.5V5H12.5V2.5H8.125ZM6.875 2.47789C6.875 1.80605 7.41562 1.25 8.0965 1.25H12.5285C13.2094 1.25 13.75 1.80605 13.75 2.47789V5.02211C13.75 5.69395 13.2094 6.25 12.5285 6.25H8.0965C7.41562 6.25 6.875 5.69395 6.875 5.02211V2.47789Z" fill="black"/>
<path fill-rule="evenodd" clip-rule="evenodd" d="M14.1086 7.61323C14.3913 7.81134 14.4599 8.20109 14.2618 8.48375L12.5097 10.9838C12.3925 11.1509 12.2011 11.2503 11.997 11.2501C11.7929 11.2498 11.6018 11.1499 11.4851 10.9824L10.7372 9.90923C10.5398 9.62604 10.6094 9.23648 10.8926 9.03912C11.1758 8.84176 11.5653 8.91134 11.7627 9.19453L11.9993 9.534L13.2381 7.76635C13.4362 7.48368 13.826 7.41513 14.1086 7.61323Z" fill="black"/>
<path fill-rule="evenodd" clip-rule="evenodd" d="M14.1086 11.9882C14.3913 12.1863 14.4599 12.5761 14.2618 12.8588L12.5097 15.3588C12.3925 15.5259 12.2011 15.6253 11.997 15.6251C11.7929 15.6248 11.6018 15.5249 11.4851 15.3574L10.7372 14.2842C10.5398 14.001 10.6094 13.6115 10.8926 13.4141C11.1758 13.2168 11.5653 13.2863 11.7627 13.5695L11.9993 13.909L13.2381 12.1414C13.4362 11.8587 13.826 11.7901 14.1086 11.9882Z" fill="black"/>
</svg>
