<svg width="20" height="20" viewBox="0 0 20 20" fill="none" xmlns="http://www.w3.org/2000/svg">
<path fill-rule="evenodd" clip-rule="evenodd" d="M16.9441 1.87881C17.2872 1.91693 17.5344 2.22595 17.4962 2.56901L17.1837 5.38151C17.1456 5.72458 16.8366 5.97178 16.4935 5.93367L13.681 5.62117C13.338 5.58305 13.0908 5.27404 13.1289 4.93097C13.167 4.5879 13.476 4.3407 13.8191 4.37881L16.0104 4.62229L16.2539 2.43097C16.292 2.0879 16.601 1.84069 16.9441 1.87881Z" fill="black"/>
<path fill-rule="evenodd" clip-rule="evenodd" d="M3.81228 3.81136C7.23405 0.396457 12.7724 0.395825 16.1884 3.8118C16.4325 4.05587 16.4325 4.4516 16.1884 4.69568C15.9444 4.93976 15.5486 4.93976 15.3046 4.69569C12.3772 1.7684 7.62974 1.76771 4.69543 4.69598C1.76839 7.62328 1.7678 12.3704 4.696 15.3046C7.62342 18.2317 12.3708 18.2322 15.305 15.3039C17.3102 13.2984 17.941 10.4417 17.1998 7.89714C17.1033 7.56573 17.2937 7.21882 17.6251 7.12229C17.9565 7.02575 18.3034 7.21615 18.4 7.54756C19.2635 10.5121 18.5298 13.8469 16.1884 16.1882L16.188 16.1886C12.7662 19.6035 7.22787 19.6042 3.81185 16.1882L3.81141 16.1878C0.396441 12.7661 0.395809 7.22777 3.81185 3.8118L3.81228 3.81136Z" fill="black"/>
<path fill-rule="evenodd" clip-rule="evenodd" d="M10 6.875C9.31125 6.875 8.75 7.43625 8.75 8.125C8.75 8.81375 9.31125 9.375 10 9.375C11.3791 9.375 12.5 10.4959 12.5 11.875C12.5 13.2541 11.3791 14.375 10 14.375C8.62206 14.375 7.5 13.2606 7.5 11.875C7.5 11.5298 7.77982 11.25 8.125 11.25C8.47018 11.25 8.75 11.5298 8.75 11.875C8.75 12.5638 9.31125 13.125 10 13.125C10.6888 13.125 11.25 12.5638 11.25 11.875C11.25 11.1862 10.6888 10.625 10 10.625C8.62089 10.625 7.5 9.50411 7.5 8.125C7.5 6.74589 8.62089 5.625 10 5.625C11.3779 5.625 12.5 6.73937 12.5 8.125C12.5 8.47018 12.2202 8.75 11.875 8.75C11.5298 8.75 11.25 8.47018 11.25 8.125C11.25 7.43625 10.6888 6.875 10 6.875Z" fill="black"/>
<path fill-rule="evenodd" clip-rule="evenodd" d="M10 3.75C10.3452 3.75 10.625 4.02982 10.625 4.375V5.625C10.625 5.97018 10.3452 6.25 10 6.25C9.65482 6.25 9.375 5.97018 9.375 5.625V4.375C9.375 4.02982 9.65482 3.75 10 3.75Z" fill="black"/>
<path fill-rule="evenodd" clip-rule="evenodd" d="M10 13.75C10.3452 13.75 10.625 14.0298 10.625 14.375V15.625C10.625 15.9702 10.3452 16.25 10 16.25C9.65482 16.25 9.375 15.9702 9.375 15.625V14.375C9.375 14.0298 9.65482 13.75 10 13.75Z" fill="black"/>
</svg>
