<svg width="20" height="20" viewBox="0 0 20 20" fill="none" xmlns="http://www.w3.org/2000/svg">
<path fill-rule="evenodd" clip-rule="evenodd" d="M1.20837 3.14001C1.20837 2.07733 2.07736 1.20834 3.14004 1.20834H12.94C14.0027 1.20834 14.8717 2.07733 14.8717 3.14001V7.71334C14.8717 8.05852 14.5919 8.33834 14.2467 8.33834C13.9015 8.33834 13.6217 8.05852 13.6217 7.71334V3.14001C13.6217 2.76769 13.3124 2.45834 12.94 2.45834H3.14004C2.76772 2.45834 2.45837 2.76769 2.45837 3.14001V8.36668C2.45837 8.739 2.76772 9.04834 3.14004 9.04834C3.48522 9.04834 3.76504 9.32817 3.76504 9.67334V11.1189L4.75335 10.46C5.04056 10.2685 5.4286 10.3461 5.62007 10.6333C5.81154 10.9205 5.73393 11.3086 5.44673 11.5L3.48673 12.8067C3.29494 12.9346 3.04835 12.9465 2.84513 12.8377C2.64191 12.729 2.51504 12.5172 2.51504 12.2867V10.194C1.75678 9.93285 1.20837 9.21088 1.20837 8.36668V3.14001Z" fill="black"/>
<path fill-rule="evenodd" clip-rule="evenodd" d="M6.40664 8.33835C6.02849 8.33835 5.72498 8.64186 5.72498 9.02002V14.2467C5.72498 14.6248 6.02849 14.9283 6.40664 14.9283H12.2866C12.41 14.9283 12.5307 14.9649 12.6333 15.0333L15.5816 16.9989V15.5533C15.5816 15.2082 15.8615 14.9283 16.2066 14.9283C16.5848 14.9283 16.8883 14.6248 16.8883 14.2467V9.02002C16.8883 8.64186 16.5848 8.33835 16.2066 8.33835H6.40664ZM4.47498 9.02002C4.47498 7.9515 5.33813 7.08835 6.40664 7.08835H16.2066C17.2752 7.08835 18.1383 7.9515 18.1383 9.02002V14.2467C18.1383 15.0964 17.5925 15.8162 16.8316 16.0754V18.1667C16.8316 18.3972 16.7048 18.609 16.5016 18.7177C16.2983 18.8265 16.0517 18.8146 15.86 18.6867L12.0974 16.1783H6.40664C5.33813 16.1783 4.47498 15.3152 4.47498 14.2467V9.02002Z" fill="black"/>
</svg>
