<svg width="20" height="20" viewBox="0 0 20 20" fill="none" xmlns="http://www.w3.org/2000/svg">
<path fill-rule="evenodd" clip-rule="evenodd" d="M10 2.45834C5.83489 2.45834 2.45837 5.83486 2.45837 10C2.45837 14.1652 5.83489 17.5417 10 17.5417C14.1652 17.5417 17.5417 14.1652 17.5417 10C17.5417 5.83486 14.1652 2.45834 10 2.45834ZM1.20837 10C1.20837 5.14451 5.14454 1.20834 10 1.20834C14.8555 1.20834 18.7917 5.14451 18.7917 10C18.7917 14.8555 14.8555 18.7917 10 18.7917C5.14454 18.7917 1.20837 14.8555 1.20837 10Z" fill="black"/>
<path fill-rule="evenodd" clip-rule="evenodd" d="M5.62506 10C5.62506 9.65482 5.90488 9.375 6.25006 9.375L13.7501 9.375C14.0952 9.375 14.3751 9.65482 14.3751 10C14.3751 10.3452 14.0952 10.625 13.7501 10.625L6.25006 10.625C5.90488 10.625 5.62506 10.3452 5.62506 10Z" fill="black"/>
<path fill-rule="evenodd" clip-rule="evenodd" d="M10.0001 5.625C10.3452 5.625 10.6251 5.90482 10.6251 6.25V13.75C10.6251 14.0952 10.3452 14.375 10.0001 14.375C9.65488 14.375 9.37506 14.0952 9.37506 13.75V6.25C9.37506 5.90482 9.65488 5.625 10.0001 5.625Z" fill="black"/>
</svg>
