<svg width="20" height="20" viewBox="0 0 20 20" fill="none" xmlns="http://www.w3.org/2000/svg">
<path fill-rule="evenodd" clip-rule="evenodd" d="M8.55921 2.45834C5.18981 2.45834 2.45837 5.18978 2.45837 8.55918C2.45837 11.9286 5.18981 14.66 8.55921 14.66C11.9286 14.66 14.66 11.9286 14.66 8.55918C14.66 5.18978 11.9286 2.45834 8.55921 2.45834ZM1.20837 8.55918C1.20837 4.49942 4.49945 1.20834 8.55921 1.20834C12.619 1.20834 15.91 4.49942 15.91 8.55918C15.91 12.6189 12.619 15.91 8.55921 15.91C4.49945 15.91 1.20837 12.6189 1.20837 8.55918Z" fill="black"/>
<path fill-rule="evenodd" clip-rule="evenodd" d="M12.918 12.9181C13.1621 12.674 13.5578 12.674 13.8019 12.9181L18.6086 17.7247C18.8527 17.9688 18.8527 18.3645 18.6086 18.6086C18.3645 18.8527 17.9688 18.8527 17.7247 18.6086L12.918 13.802C12.674 13.5579 12.674 13.1622 12.918 12.9181Z" fill="black"/>
<path fill-rule="evenodd" clip-rule="evenodd" d="M9.08183 5.0003C9.33877 5.00825 9.56463 5.17271 9.65109 5.41479L11.0654 9.375H13.125C13.4702 9.375 13.75 9.65482 13.75 10C13.75 10.3452 13.4702 10.625 13.125 10.625H10.625C10.3609 10.625 10.1252 10.459 10.0364 10.2102L9.00958 7.33509L7.76197 10.2462C7.66348 10.476 7.43752 10.625 7.1875 10.625H4.375C4.02982 10.625 3.75 10.3452 3.75 10C3.75 9.65482 4.02982 9.375 4.375 9.375H6.77538L8.48803 5.3788C8.58929 5.14253 8.8249 4.99235 9.08183 5.0003Z" fill="black"/>
</svg>
