<svg width="20" height="20" viewBox="0 0 20 20" fill="none" xmlns="http://www.w3.org/2000/svg">
<path fill-rule="evenodd" clip-rule="evenodd" d="M1.20837 4.97665H18.7917V16.3233C18.7917 17.6401 17.8008 18.7917 16.4692 18.7917H3.53087C2.19801 18.7917 1.20837 17.6329 1.20837 16.3233V4.97665ZM2.45837 6.22665V16.3233C2.45837 17.0437 2.98541 17.5417 3.53087 17.5417H16.4692C17.0159 17.5417 17.5417 17.0482 17.5417 16.3233V6.22665H2.45837Z" fill="black"/>
<path fill-rule="evenodd" clip-rule="evenodd" d="M1.20837 3.63001C1.20837 2.32762 2.21305 1.20834 3.53087 1.20834H16.4692C17.787 1.20834 18.7917 2.32762 18.7917 3.63001V6.22668H1.20837V3.63001ZM3.53087 2.45834C2.97036 2.45834 2.45837 2.94906 2.45837 3.63001V4.97668H17.5417V3.63001C17.5417 2.94906 17.0297 2.45834 16.4692 2.45834H3.53087Z" fill="black"/>
<path d="M4.4992 3.08749H4.19003C3.92753 3.08749 3.71753 3.27999 3.71753 3.51916V3.90416C3.71753 4.14333 3.92753 4.33583 4.19003 4.33583H4.4992C4.7617 4.33583 4.9717 4.14333 4.9717 3.90416V3.51916C4.9717 3.27999 4.7617 3.08749 4.4992 3.08749Z" fill="black"/>
<path d="M6.40667 3.125H6.0975C5.835 3.125 5.625 3.3175 5.625 3.55667V3.94167C5.625 4.18083 5.835 4.37333 6.0975 4.37333H6.40667C6.66917 4.37333 6.87917 4.18083 6.87917 3.94167V3.55667C6.87917 3.3175 6.66917 3.125 6.40667 3.125Z" fill="black"/>
<path d="M8.28167 3.125H7.9725C7.71 3.125 7.5 3.3175 7.5 3.55667V3.94167C7.5 4.18083 7.71 4.37333 7.9725 4.37333H8.28167C8.54417 4.37333 8.75417 4.18083 8.75417 3.94167V3.55667C8.75417 3.3175 8.54417 3.125 8.28167 3.125Z" fill="black"/>
<path fill-rule="evenodd" clip-rule="evenodd" d="M5.00003 8.75112C5.00001 8.75131 5 8.75158 5 8.75193V14.9981C5 14.9984 5.00001 14.9987 5.00002 14.9989C5.00013 14.999 5.00031 14.9993 5.00058 14.9995C5.00079 14.9997 5.00097 14.9999 5.0011 15C5.00125 15 5.00143 15 5.00166 15H8.12334C8.12357 15 8.12375 15 8.1239 15C8.12403 14.9999 8.12421 14.9997 8.12442 14.9995C8.12469 14.9993 8.12487 14.999 8.12497 14.9989C8.12499 14.9987 8.125 14.9984 8.125 14.9981V8.75193C8.125 8.75158 8.12499 8.75131 8.12497 8.75112C8.12487 8.75097 8.12469 8.75074 8.12442 8.75047C8.12421 8.75026 8.12403 8.75012 8.1239 8.75001C8.12375 8.75001 8.12357 8.75 8.12334 8.75H5.00166C5.00143 8.75 5.00125 8.75001 5.0011 8.75001C5.00097 8.75012 5.00079 8.75026 5.00058 8.75047C5.00031 8.75074 5.00013 8.75097 5.00003 8.75112ZM3.75 8.75193C3.75 8.06077 4.31013 7.5 5.00166 7.5H8.12334C8.81487 7.5 9.375 8.06077 9.375 8.75193V14.9981C9.375 15.6892 8.81487 16.25 8.12334 16.25H5.00166C4.31013 16.25 3.75 15.6892 3.75 14.9981V8.75193Z" fill="black"/>
<path fill-rule="evenodd" clip-rule="evenodd" d="M11.8793 13.1425C11.8793 13.1425 11.8792 13.143 11.8792 13.1442V15.0225C11.8792 15.0237 11.8793 15.0241 11.8793 15.0242L11.8793 15.0242C11.8793 15.0244 11.8797 15.0251 11.8806 15.026C11.8815 15.0269 11.8822 15.0273 11.8824 15.0274L11.8825 15.0274C11.8825 15.0274 11.883 15.0275 11.8842 15.0275H15.0225C15.0236 15.0275 15.0241 15.0274 15.0242 15.0274L15.0242 15.0274C15.0244 15.0273 15.0251 15.0269 15.026 15.026C15.0269 15.0251 15.0273 15.0244 15.0273 15.0242L15.0274 15.0242L15.0274 15.0242C15.0274 15.0241 15.0275 15.0236 15.0275 15.0225V13.1442C15.0275 13.143 15.0274 13.1425 15.0274 13.1425L15.0274 13.1425L15.0273 13.1424C15.0273 13.1423 15.0269 13.1415 15.026 13.1406C15.0251 13.1397 15.0244 13.1394 15.0242 13.1393L15.0242 13.1393C15.0241 13.1393 15.0236 13.1392 15.0225 13.1392H11.8842C11.883 13.1392 11.8825 13.1393 11.8825 13.1393L11.8824 13.1393C11.8822 13.1394 11.8815 13.1397 11.8806 13.1406C11.8797 13.1415 11.8793 13.1423 11.8793 13.1424L11.8793 13.1425ZM10.6292 13.1442C10.6292 12.451 11.191 11.8892 11.8842 11.8892H15.0225C15.7156 11.8892 16.2775 12.451 16.2775 13.1442V15.0225C16.2775 15.7156 15.7156 16.2775 15.0225 16.2775H11.8842C11.191 16.2775 10.6292 15.7156 10.6292 15.0225V13.1442Z" fill="black"/>
<path fill-rule="evenodd" clip-rule="evenodd" d="M10.6292 8.11584C10.6292 7.77067 10.909 7.49084 11.2542 7.49084H15.6642C16.0093 7.49084 16.2892 7.77067 16.2892 8.11584C16.2892 8.46102 16.0093 8.74084 15.6642 8.74084H11.2542C10.909 8.74084 10.6292 8.46102 10.6292 8.11584ZM10.625 10C10.625 9.65483 10.9048 9.37501 11.25 9.37501H15.66C16.0052 9.37501 16.285 9.65483 16.285 10C16.285 10.3452 16.0052 10.625 15.66 10.625H11.25C10.9048 10.625 10.625 10.3452 10.625 10Z" fill="black"/>
</svg>
