<svg width="20" height="20" viewBox="0 0 20 20" fill="none" xmlns="http://www.w3.org/2000/svg">
<path fill-rule="evenodd" clip-rule="evenodd" d="M9.68548 16.25C9.68548 16.25 9.68586 16.25 9.68667 16.25L9.68548 16.25ZM10 16.25H12.5L12.5001 17.5C12.4978 17.5 12.4954 17.5 12.4931 17.5H10.007C10.0047 17.5 10.0024 17.5 10.0001 17.5L10 16.25ZM12.8146 16.25C12.8146 16.25 12.8142 16.25 12.8135 16.25L12.8146 16.25ZM9.15098 15.147C9.33232 15.0292 9.52817 15 9.68756 15H12.8126C12.9719 15 13.1678 15.0292 13.3491 15.147C13.5421 15.2723 13.6438 15.4488 13.6941 15.6034C13.7395 15.7431 13.7475 15.8783 13.75 15.965C13.7517 16.0221 13.751 16.0959 13.7505 16.1527C13.7502 16.1757 13.75 16.1959 13.75 16.2112C13.75 16.2112 13.75 16.2112 13.75 16.2112L13.7501 17.8125C13.7501 17.9834 13.7121 18.183 13.5828 18.3628C13.4524 18.5441 13.2786 18.6367 13.1354 18.6838C13.0003 18.7283 12.8677 18.7408 12.7721 18.7458C12.688 18.7503 12.5976 18.7501 12.5245 18.75C12.5136 18.75 12.5031 18.75 12.4931 18.75H10.007C9.99698 18.75 9.98648 18.75 9.9756 18.75C9.90254 18.7501 9.81209 18.7503 9.72798 18.7458C9.63242 18.7408 9.49982 18.7283 9.36468 18.6838C9.22153 18.6367 9.04766 18.5441 8.91728 18.3628C8.78797 18.183 8.75006 17.9834 8.75006 17.8125C8.75006 17.8125 8.75006 17.8125 8.75006 17.8125L8.75005 16.2112C8.75005 16.196 8.74986 16.1757 8.74964 16.1528C8.7491 16.0959 8.7484 16.0221 8.75006 15.9649C8.75257 15.8782 8.76064 15.7431 8.80606 15.6034C8.85635 15.4488 8.95808 15.2723 9.15098 15.147Z" fill="black"/>
<path fill-rule="evenodd" clip-rule="evenodd" d="M3.75 10C3.14716 10 2.5 10.6053 2.5 11.5625C2.5 12.5197 3.14716 13.125 3.75 13.125H5V10H3.75ZM1.25 11.5625C1.25 10.1019 2.28358 8.75 3.75 8.75H6.25V14.375H3.75C2.28358 14.375 1.25 13.0231 1.25 11.5625Z" fill="black"/>
<path fill-rule="evenodd" clip-rule="evenodd" d="M13.75 8.75H16.25C17.7164 8.75 18.75 10.1019 18.75 11.5625C18.75 13.0231 17.7164 14.375 16.25 14.375H13.75V8.75ZM15 10V13.125H16.25C16.8528 13.125 17.5 12.5197 17.5 11.5625C17.5 10.6053 16.8528 10 16.25 10H15Z" fill="black"/>
<path fill-rule="evenodd" clip-rule="evenodd" d="M10 2.5C7.315 2.5 5 5.01533 5 8.30357V9.375H3.75V8.30357C3.75 4.48655 6.47345 1.25 10 1.25C13.5266 1.25 16.25 4.48655 16.25 8.30357V9.375H15V8.30357C15 5.01533 12.685 2.5 10 2.5Z" fill="black"/>
<path fill-rule="evenodd" clip-rule="evenodd" d="M8.12594 17.5C6.27423 17.5 5 15.6848 5 13.75H6.25C6.25 15.2692 7.21049 16.25 8.12594 16.25H9.375V17.5H8.12594Z" fill="black"/>
</svg>
