<svg width="20" height="20" viewBox="0 0 20 20" fill="none" xmlns="http://www.w3.org/2000/svg">
<g clip-path="url(#clip0_437_6167)">
<rect width="20" height="20" fill="white"/>
<path fill-rule="evenodd" clip-rule="evenodd" d="M0.283306 6.81666C-0.00573505 7.00535 -0.0870864 7.39262 0.101602 7.68166L1.50258 9.82774C1.60095 9.97843 1.7595 10.0794 1.93765 10.1048C2.1158 10.1302 2.29626 10.0776 2.43285 9.96048L4.4603 8.22142C4.7223 7.99669 4.75251 7.60211 4.52778 7.34011C4.30305 7.07811 3.90847 7.0479 3.64648 7.27264L2.15982 8.54783L1.14831 6.99836C0.959623 6.70932 0.572347 6.62797 0.283306 6.81666Z" fill="black"/>
<path fill-rule="evenodd" clip-rule="evenodd" d="M12.1165 1.50841C7.42472 0.343607 2.67709 3.19553 1.50834 7.88298C1.42483 8.2179 1.62864 8.55711 1.96357 8.64061C2.29849 8.72412 2.6377 8.52031 2.72121 8.18539C3.72276 4.16852 7.79179 1.7228 11.8151 2.72153C15.8318 3.72318 18.2773 7.79199 17.2785 11.8152C16.2768 15.8319 12.2077 18.2774 8.18445 17.2786C5.4328 16.5923 3.42072 14.4686 2.74551 11.9057C2.65757 11.5719 2.31569 11.3726 1.9819 11.4606C1.64811 11.5485 1.44881 11.8904 1.53675 12.2242C2.32341 15.21 4.66983 17.6906 7.88266 18.4916L7.88326 18.4918C12.5751 19.6566 17.3227 16.8047 18.4915 12.1172L18.4916 12.1166C19.6565 7.4248 16.8046 2.67724 12.1171 1.50856L12.1165 1.50841Z" fill="black"/>
<path fill-rule="evenodd" clip-rule="evenodd" d="M10 5.625C10.3452 5.625 10.625 5.90482 10.625 6.25V10C10.625 10.3452 10.3452 10.625 10 10.625C9.65482 10.625 9.375 10.3452 9.375 10V6.25C9.375 5.90482 9.65482 5.625 10 5.625Z" fill="black"/>
<path fill-rule="evenodd" clip-rule="evenodd" d="M14.375 10C14.375 10.3452 14.0952 10.625 13.75 10.625H10C9.65482 10.625 9.375 10.3452 9.375 10C9.375 9.65482 9.65482 9.375 10 9.375H13.75C14.0952 9.375 14.375 9.65482 14.375 10Z" fill="black"/>
</g>
<defs>
<clipPath id="clip0_437_6167">
<rect width="20" height="20" fill="white"/>
</clipPath>
</defs>
</svg>
