<svg width="20" height="20" viewBox="0 0 20 20" fill="none" xmlns="http://www.w3.org/2000/svg">
<path fill-rule="evenodd" clip-rule="evenodd" d="M10 2.5C9.65482 2.5 9.375 2.77982 9.375 3.125C9.375 3.47018 9.65482 3.75 10 3.75C10.3452 3.75 10.625 3.47018 10.625 3.125C10.625 2.77982 10.3452 2.5 10 2.5ZM8.125 3.125C8.125 2.08947 8.96447 1.25 10 1.25C11.0355 1.25 11.875 2.08947 11.875 3.125C11.875 4.16053 11.0355 5 10 5C8.96447 5 8.125 4.16053 8.125 3.125Z" fill="black"/>
<path fill-rule="evenodd" clip-rule="evenodd" d="M10 16.25C9.65482 16.25 9.375 16.5298 9.375 16.875C9.375 17.2202 9.65482 17.5 10 17.5C10.3452 17.5 10.625 17.2202 10.625 16.875C10.625 16.5298 10.3452 16.25 10 16.25ZM8.125 16.875C8.125 15.8395 8.96447 15 10 15C11.0355 15 11.875 15.8395 11.875 16.875C11.875 17.9105 11.0355 18.75 10 18.75C8.96447 18.75 8.125 17.9105 8.125 16.875Z" fill="black"/>
<path fill-rule="evenodd" clip-rule="evenodd" d="M3.125 9.375C2.77982 9.375 2.5 9.65482 2.5 10C2.5 10.3452 2.77982 10.625 3.125 10.625C3.47018 10.625 3.75 10.3452 3.75 10C3.75 9.65482 3.47018 9.375 3.125 9.375ZM1.25 10C1.25 8.96447 2.08947 8.125 3.125 8.125C4.16053 8.125 5 8.96447 5 10C5 11.0355 4.16053 11.875 3.125 11.875C2.08947 11.875 1.25 11.0355 1.25 10Z" fill="black"/>
<path fill-rule="evenodd" clip-rule="evenodd" d="M16.875 9.375C16.5298 9.375 16.25 9.65482 16.25 10C16.25 10.3452 16.5298 10.625 16.875 10.625C17.2202 10.625 17.5 10.3452 17.5 10C17.5 9.65482 17.2202 9.375 16.875 9.375ZM15 10C15 8.96447 15.8395 8.125 16.875 8.125C17.9105 8.125 18.75 8.96447 18.75 10C18.75 11.0355 17.9105 11.875 16.875 11.875C15.8395 11.875 15 11.0355 15 10Z" fill="black"/>
<path fill-rule="evenodd" clip-rule="evenodd" d="M5 4.375C4.65482 4.375 4.375 4.65482 4.375 5C4.375 5.34518 4.65482 5.625 5 5.625C5.34518 5.625 5.625 5.34518 5.625 5C5.625 4.65482 5.34518 4.375 5 4.375ZM3.125 5C3.125 3.96447 3.96447 3.125 5 3.125C6.03553 3.125 6.875 3.96447 6.875 5C6.875 6.03553 6.03553 6.875 5 6.875C3.96447 6.875 3.125 6.03553 3.125 5Z" fill="black"/>
<path fill-rule="evenodd" clip-rule="evenodd" d="M15 4.375C14.6548 4.375 14.375 4.65482 14.375 5C14.375 5.34518 14.6548 5.625 15 5.625C15.3452 5.625 15.625 5.34518 15.625 5C15.625 4.65482 15.3452 4.375 15 4.375ZM13.125 5C13.125 3.96447 13.9645 3.125 15 3.125C16.0355 3.125 16.875 3.96447 16.875 5C16.875 6.03553 16.0355 6.875 15 6.875C13.9645 6.875 13.125 6.03553 13.125 5Z" fill="black"/>
<path fill-rule="evenodd" clip-rule="evenodd" d="M5.01931 14.3879C4.67415 14.3843 4.39145 14.6612 4.38787 15.0064C4.3843 15.3516 4.66121 15.6343 5.00637 15.6378C5.35153 15.6414 5.63423 15.3645 5.63781 15.0193C5.64138 14.6742 5.36447 14.3915 5.01931 14.3879ZM3.13794 14.9935C3.14866 13.958 3.99677 13.1272 5.03225 13.138C6.06773 13.1487 6.89846 13.9968 6.88774 15.0323C6.87702 16.0678 6.02891 16.8985 4.99343 16.8878C3.95795 16.877 3.12722 16.0289 3.13794 14.9935Z" fill="black"/>
<path fill-rule="evenodd" clip-rule="evenodd" d="M15 14.375C14.6548 14.375 14.375 14.6548 14.375 15C14.375 15.3452 14.6548 15.625 15 15.625C15.3452 15.625 15.625 15.3452 15.625 15C15.625 14.6548 15.3452 14.375 15 14.375ZM13.125 15C13.125 13.9645 13.9645 13.125 15 13.125C16.0355 13.125 16.875 13.9645 16.875 15C16.875 16.0355 16.0355 16.875 15 16.875C13.9645 16.875 13.125 16.0355 13.125 15Z" fill="black"/>
<path fill-rule="evenodd" clip-rule="evenodd" d="M11.4497 11.4497C11.6937 11.2056 12.0895 11.2056 12.3335 11.4497L14.4919 13.608C14.736 13.8521 14.736 14.2478 14.4919 14.4919C14.2478 14.736 13.8521 14.736 13.608 14.4919L11.4497 12.3336C11.2056 12.0895 11.2056 11.6938 11.4497 11.4497Z" fill="black"/>
<path fill-rule="evenodd" clip-rule="evenodd" d="M5.47762 5.44266C5.7233 5.2002 6.11902 5.20282 6.36148 5.4485L8.55315 7.66933C8.7956 7.91502 8.79299 8.31074 8.5473 8.5532C8.30162 8.79566 7.9059 8.79304 7.66344 8.54736L5.47177 6.32652C5.22931 6.08084 5.23193 5.68512 5.47762 5.44266Z" fill="black"/>
<path fill-rule="evenodd" clip-rule="evenodd" d="M14.5123 5.38282C14.7611 5.62207 14.7689 6.01772 14.5296 6.26654L12.3421 8.54154C12.1029 8.79035 11.7072 8.79811 11.4584 8.55886C11.2096 8.31962 11.2018 7.92397 11.4411 7.67515L13.6286 5.40015C13.8678 5.15134 14.2635 5.14358 14.5123 5.38282Z" fill="black"/>
<path fill-rule="evenodd" clip-rule="evenodd" d="M8.55035 11.4497C8.79443 11.6938 8.79443 12.0895 8.55035 12.3336L6.32951 14.5544C6.08544 14.7985 5.68971 14.7985 5.44563 14.5544C5.20155 14.3103 5.20155 13.9146 5.44563 13.6705L7.66646 11.4497C7.91054 11.2056 8.30627 11.2056 8.55035 11.4497Z" fill="black"/>
<path fill-rule="evenodd" clip-rule="evenodd" d="M10 4.0625C10.3452 4.0625 10.625 4.34232 10.625 4.6875V7.32083C10.625 7.66601 10.3452 7.94583 10 7.94583C9.65482 7.94583 9.375 7.66601 9.375 7.32083V4.6875C9.375 4.34232 9.65482 4.0625 10 4.0625Z" fill="black"/>
<path fill-rule="evenodd" clip-rule="evenodd" d="M10 12.0541C10.3452 12.0541 10.625 12.334 10.625 12.6791V15.3125C10.625 15.6576 10.3452 15.9375 10 15.9375C9.65482 15.9375 9.375 15.6576 9.375 15.3125V12.6791C9.375 12.334 9.65482 12.0541 10 12.0541Z" fill="black"/>
<path fill-rule="evenodd" clip-rule="evenodd" d="M12.0542 10C12.0542 9.65482 12.334 9.375 12.6792 9.375H15.3125C15.6577 9.375 15.9375 9.65482 15.9375 10C15.9375 10.3452 15.6577 10.625 15.3125 10.625H12.6792C12.334 10.625 12.0542 10.3452 12.0542 10Z" fill="black"/>
<path fill-rule="evenodd" clip-rule="evenodd" d="M3.75 10C3.75 9.65482 4.02982 9.375 4.375 9.375H7.32083C7.66601 9.375 7.94583 9.65482 7.94583 10C7.94583 10.3452 7.66601 10.625 7.32083 10.625H4.375C4.02982 10.625 3.75 10.3452 3.75 10Z" fill="black"/>
<path fill-rule="evenodd" clip-rule="evenodd" d="M10 8.125C8.96447 8.125 8.125 8.96447 8.125 10C8.125 11.0355 8.96447 11.875 10 11.875C11.0355 11.875 11.875 11.0355 11.875 10C11.875 8.96447 11.0355 8.125 10 8.125ZM6.875 10C6.875 8.27411 8.27411 6.875 10 6.875C11.7259 6.875 13.125 8.27411 13.125 10C13.125 11.7259 11.7259 13.125 10 13.125C8.27411 13.125 6.875 11.7259 6.875 10Z" fill="black"/>
</svg>
