<svg width="20" height="20" viewBox="0 0 20 20" fill="none" xmlns="http://www.w3.org/2000/svg">
<path fill-rule="evenodd" clip-rule="evenodd" d="M12.8652 5.64515C13.3803 5.26822 14.054 5 14.9342 5C15.9677 5 16.923 5.51436 17.6068 6.25548C18.2927 6.99889 18.75 8.01597 18.75 9.1037C18.75 11.6157 17.1359 13.75 14.5919 13.75H5.00201C2.88963 13.75 1.25 11.9899 1.25 9.91158C1.25 8.43414 2.16361 7.04614 3.58517 6.47405L3.58547 6.47393C4.15319 6.2458 4.74435 6.21089 5.44247 6.37708L5.8759 6.45741C6.2153 6.52031 6.43944 6.84644 6.37654 7.18584C6.31364 7.52524 5.98751 7.74938 5.64811 7.68648L5.19861 7.60317C5.18748 7.60111 5.17641 7.59874 5.16541 7.59608C4.67589 7.47755 4.3494 7.5141 4.05153 7.63379C3.10625 8.01435 2.5 8.94137 2.5 9.91158C2.5 11.3421 3.62188 12.5 5.00201 12.5H14.5919C16.2714 12.5 17.5 11.1134 17.5 9.1037C17.5 8.36466 17.1857 7.64238 16.6881 7.10314C16.1884 6.56161 15.5482 6.25 14.9342 6.25C14.3291 6.25 13.9122 6.42793 13.6034 6.65388C13.3249 6.85774 12.9338 6.79718 12.73 6.51863C12.5261 6.24008 12.5867 5.84901 12.8652 5.64515Z" fill="black"/>
<path fill-rule="evenodd" clip-rule="evenodd" d="M9.99999 2.51639C7.71367 2.51639 5.85303 4.38499 5.85303 6.70282V6.89139C5.85303 7.23657 5.57321 7.51639 5.22803 7.51639C4.88285 7.51639 4.60303 7.23657 4.60303 6.89139V6.70282C4.60303 3.70436 7.01363 1.26639 9.99999 1.26639C12.4943 1.26639 14.5866 2.96793 15.2065 5.26895C15.2963 5.60224 15.0989 5.94522 14.7656 6.03502C14.4323 6.12481 14.0893 5.92741 13.9995 5.59412C13.5215 3.81971 11.9097 2.51639 9.99999 2.51639Z" fill="black"/>
<path fill-rule="evenodd" clip-rule="evenodd" d="M10 12.5C10.3452 12.5 10.625 12.7798 10.625 13.125V15.2542C10.625 15.5993 10.3452 15.8792 10 15.8792C9.65482 15.8792 9.375 15.5993 9.375 15.2542V13.125C9.375 12.7798 9.65482 12.5 10 12.5Z" fill="black"/>
<path fill-rule="evenodd" clip-rule="evenodd" d="M3.75 16.875C3.75 16.5298 4.02982 16.25 4.375 16.25H8.125C8.47018 16.25 8.75 16.5298 8.75 16.875C8.75 17.2202 8.47018 17.5 8.125 17.5H4.375C4.02982 17.5 3.75 17.2202 3.75 16.875Z" fill="black"/>
<path fill-rule="evenodd" clip-rule="evenodd" d="M11.25 16.875C11.25 16.5298 11.5298 16.25 11.875 16.25H15.625C15.9702 16.25 16.25 16.5298 16.25 16.875C16.25 17.2202 15.9702 17.5 15.625 17.5H11.875C11.5298 17.5 11.25 17.2202 11.25 16.875Z" fill="black"/>
<path fill-rule="evenodd" clip-rule="evenodd" d="M10 16.25C9.65482 16.25 9.375 16.5298 9.375 16.875C9.375 17.2202 9.65482 17.5 10 17.5C10.3452 17.5 10.625 17.2202 10.625 16.875C10.625 16.5298 10.3452 16.25 10 16.25ZM11.875 16.875C11.875 17.9105 11.0355 18.75 10 18.75C8.96447 18.75 8.125 17.9105 8.125 16.875C8.125 15.8395 8.96447 15 10 15C11.0355 15 11.875 15.8395 11.875 16.875Z" fill="black"/>
</svg>
