<svg width="20" height="20" viewBox="0 0 20 20" fill="none" xmlns="http://www.w3.org/2000/svg">
<path fill-rule="evenodd" clip-rule="evenodd" d="M10 6.25C8.96447 6.25 8.125 7.08947 8.125 8.125C8.125 9.16053 8.96447 10 10 10C11.0355 10 11.875 9.16053 11.875 8.125C11.875 7.08947 11.0355 6.25 10 6.25ZM6.875 8.125C6.875 6.39911 8.27411 5 10 5C11.7259 5 13.125 6.39911 13.125 8.125C13.125 9.85089 11.7259 11.25 10 11.25C8.27411 11.25 6.875 9.85089 6.875 8.125Z" fill="black"/>
<path fill-rule="evenodd" clip-rule="evenodd" d="M6.25002 14.8087C6.25002 14.8085 6.25002 14.8089 6.25002 14.8087L6.26693 16.8699C6.26977 17.215 5.99225 17.4971 5.64708 17.5C5.30192 17.5028 5.01981 17.2253 5.01698 16.8801L5.00005 14.8176L5.00004 14.8163C4.99212 13.5076 6.09316 12.5 7.39082 12.5H12.6092C13.9068 12.5 15.0079 13.5076 15 14.8163L14.983 16.8801C14.9802 17.2253 14.6981 17.5028 14.3529 17.5C14.0078 17.4971 13.7302 17.215 13.7331 16.8699L13.75 14.8087C13.75 14.8089 13.75 14.8085 13.75 14.8087C13.753 14.2533 13.2745 13.75 12.6092 13.75H7.39082C6.72548 13.75 6.24701 14.2533 6.25002 14.8087Z" fill="black"/>
<path fill-rule="evenodd" clip-rule="evenodd" d="M10 2.45834C5.83489 2.45834 2.45837 5.83486 2.45837 10C2.45837 14.1652 5.83489 17.5417 10 17.5417C14.1652 17.5417 17.5417 14.1652 17.5417 10C17.5417 5.83486 14.1652 2.45834 10 2.45834ZM1.20837 10C1.20837 5.14451 5.14454 1.20834 10 1.20834C14.8555 1.20834 18.7917 5.14451 18.7917 10C18.7917 14.8555 14.8555 18.7917 10 18.7917C5.14454 18.7917 1.20837 14.8555 1.20837 10Z" fill="black"/>
</svg>
