<svg width="20" height="20" viewBox="0 0 20 20" fill="none" xmlns="http://www.w3.org/2000/svg">
<path fill-rule="evenodd" clip-rule="evenodd" d="M9.08183 6.2503C9.33877 6.25825 9.56463 6.42271 9.65109 6.66479L11.0654 10.625H16.25C16.5952 10.625 16.875 10.9048 16.875 11.25C16.875 11.5952 16.5952 11.875 16.25 11.875H10.625C10.3609 11.875 10.1252 11.709 10.0364 11.4602L9.00958 8.58509L7.76197 11.4962C7.66348 11.726 7.43752 11.875 7.1875 11.875H3.75C3.40482 11.875 3.125 11.5952 3.125 11.25C3.125 10.9048 3.40482 10.625 3.75 10.625H6.77538L8.48803 6.6288C8.58929 6.39253 8.82489 6.24235 9.08183 6.2503Z" fill="black"/>
<path fill-rule="evenodd" clip-rule="evenodd" d="M8.27042 3.89212C7.54281 3.3727 6.62742 2.97918 5.63144 3.1499L5.63092 3.14999C4.86813 3.28009 4.23352 3.73197 3.72978 4.29507C3.22602 4.8582 2.8903 5.49263 2.7274 5.89272C2.15676 7.30108 2.49098 8.98047 3.8128 10.9954C5.07368 12.9174 7.1692 15.0394 9.9533 17.3327C12.7423 15.0351 14.8611 12.8962 16.1441 10.9574C17.4909 8.92232 17.8414 7.22976 17.2727 5.82588C17.1132 5.4339 16.7813 4.83106 16.2802 4.29677C15.781 3.76449 15.1441 3.33108 14.3695 3.19886C13.3716 3.03002 12.4537 3.41576 11.726 3.92289C11.0011 4.42812 10.5403 5.00324 10.498 5.05904C10.3799 5.21486 10.1956 5.30639 10 5.30639C9.80445 5.30639 9.62017 5.21486 9.50201 5.05904C9.45468 4.99663 8.99398 4.40865 8.27042 3.89212ZM10.005 3.74256C9.75191 3.48348 9.41056 3.17021 8.99669 2.87475C8.13477 2.25945 6.88027 1.66771 5.42054 1.91782C4.28761 2.11112 3.41729 2.76956 2.79816 3.46166C2.17918 4.15359 1.77413 4.91906 1.56946 5.42192L1.56912 5.42276C0.774992 7.38199 1.345 9.51246 2.76763 11.681C4.19258 13.8531 6.54371 16.1799 9.55971 18.6254C9.78918 18.8114 10.1176 18.8114 10.347 18.6253C13.3659 16.1768 15.7395 13.834 17.1865 11.6473C18.6293 9.46703 19.2268 7.31931 18.4309 5.35565L18.4306 5.35481C18.2226 4.84385 17.8137 4.10459 17.1919 3.44166C16.5683 2.77673 15.7003 2.1578 14.5793 1.96659L14.5785 1.96647C13.1266 1.7206 11.8746 2.29572 11.0113 2.89736C10.5995 3.18433 10.2589 3.48893 10.005 3.74256Z" fill="black"/>
</svg>
