<svg width="20" height="20" viewBox="0 0 20 20" fill="none" xmlns="http://www.w3.org/2000/svg">
<rect width="20" height="20" fill="white"/>
<path fill-rule="evenodd" clip-rule="evenodd" d="M10.5478 1.39096C13.2302 2.82451 15.6924 3.61591 16.6304 3.88692L16.6377 3.88902L16.6377 3.88906C17.1131 4.03268 17.5 4.45828 17.5 5.00954V8.75C17.5 9.09518 17.2202 9.375 16.875 9.375C16.5298 9.375 16.25 9.09518 16.25 8.75V5.0781C15.2426 4.78517 12.7361 3.97281 9.99727 2.514C7.26537 3.98072 4.75054 4.78738 3.75 5.08373V11.9662C3.75 12.9016 4.45994 13.8976 5.59614 14.8531C6.69999 15.7814 8.05642 16.5462 9.03034 17.0349C9.33885 17.1898 9.46343 17.5654 9.3086 17.8739C9.15377 18.1824 8.77816 18.307 8.46966 18.1521C7.46056 17.6457 6.00449 16.8298 4.79159 15.8098C3.61105 14.8169 2.5 13.4969 2.5 11.9662V5.01534C2.5 4.47536 2.87594 4.03275 3.3699 3.89262C4.31546 3.61358 6.77977 2.82795 9.44524 1.39157C9.78818 1.20302 10.2047 1.20281 10.5478 1.39096Z" fill="black"/>
<path d="M11.2625 18.75C10.9312 18.75 10.6125 18.6188 10.375 18.3813C10.0562 18.0625 9.93124 17.6188 10.0437 17.1813H10.0375L10.4187 15.6625C10.4437 15.55 10.5062 15.45 10.5812 15.375L15.3687 10.575C16.1375 9.80626 17.3937 9.80626 18.1687 10.575C18.9437 11.35 18.9437 12.6 18.1687 13.375L13.3812 18.1625C13.3 18.2438 13.2 18.3 13.0937 18.325L11.575 18.7063C11.4687 18.7313 11.3687 18.7438 11.2625 18.7438V18.75ZM11.25 17.4813C11.25 17.4813 11.25 17.4813 11.25 17.4875L12.625 17.1563L17.2875 12.4938C17.5687 12.2125 17.5687 11.75 17.2875 11.4625C17 11.175 16.5375 11.175 16.2562 11.4625L11.5875 16.1313L11.25 17.4813Z" fill="black"/>
</svg>
