<svg width="20" height="20" viewBox="0 0 20 20" fill="none" xmlns="http://www.w3.org/2000/svg">
<path fill-rule="evenodd" clip-rule="evenodd" d="M8.125 3.16938C8.125 2.13117 8.94516 1.25 10 1.25C11.0548 1.25 11.875 2.13117 11.875 3.16938V4.375C11.875 4.72018 11.5952 5 11.25 5C10.9048 5 10.625 4.72018 10.625 4.375V3.16938C10.625 2.78007 10.3237 2.5 10 2.5C9.67627 2.5 9.375 2.78007 9.375 3.16938V4.375C9.375 4.72018 9.09518 5 8.75 5C8.40482 5 8.125 4.72018 8.125 4.375V3.16938Z" fill="black"/>
<path fill-rule="evenodd" clip-rule="evenodd" d="M5.93749 8.125C5.93749 5.76094 7.6857 3.75 10.0007 3.75C12.3161 3.75 14.0625 5.7613 14.0625 8.125V11.0263L15.9572 13.3347L15.9661 13.3466C16.3081 13.8061 16.3173 14.3712 16.1194 14.8098C15.9212 15.2491 15.4817 15.625 14.8886 15.625H5.10567C4.51272 15.625 4.07375 15.2501 3.87716 14.8084C3.68124 14.3681 3.69598 13.806 4.03402 13.3484L4.04344 13.3356L5.93749 11.0265V8.125ZM10.0007 5C8.47985 5 7.18749 6.34272 7.18749 8.125V11.4735L5.03338 14.0998C4.99406 14.1591 4.98934 14.2331 5.01917 14.3001C5.03419 14.3339 5.05338 14.3538 5.0668 14.3634C5.07719 14.3707 5.08751 14.375 5.10567 14.375H14.8886C14.9062 14.375 14.9172 14.3709 14.9291 14.3624C14.944 14.3519 14.9643 14.3306 14.98 14.2957C15.0114 14.2262 15.0049 14.1548 14.9689 14.1008L12.8125 11.4737V8.125C12.8125 6.34236 11.5213 5 10.0007 5Z" fill="black"/>
<path fill-rule="evenodd" clip-rule="evenodd" d="M12.0977 16.291C12.4203 16.414 12.582 16.7752 12.459 17.0977C12.086 18.0759 11.1157 18.75 10 18.75C8.88299 18.75 7.9141 18.0713 7.54142 17.0986C7.41792 16.7763 7.5791 16.4149 7.90143 16.2914C8.22376 16.1679 8.58517 16.329 8.70867 16.6514C8.89235 17.1307 9.39023 17.5 10 17.5C10.6112 17.5 11.1077 17.133 11.2911 16.6523C11.4141 16.3298 11.7752 16.168 12.0977 16.291Z" fill="black"/>
</svg>
