<svg width="20" height="20" viewBox="0 0 20 20" fill="none" xmlns="http://www.w3.org/2000/svg">
<path fill-rule="evenodd" clip-rule="evenodd" d="M16.25 10C16.25 9.65482 16.5298 9.375 16.875 9.375H18.125C18.4702 9.375 18.75 9.65482 18.75 10C18.75 10.3452 18.4702 10.625 18.125 10.625H16.875C16.5298 10.625 16.25 10.3452 16.25 10Z" fill="black"/>
<path fill-rule="evenodd" clip-rule="evenodd" d="M1.25 10C1.25 9.65482 1.52982 9.375 1.875 9.375H3.125C3.47018 9.375 3.75 9.65482 3.75 10C3.75 10.3452 3.47018 10.625 3.125 10.625H1.875C1.52982 10.625 1.25 10.3452 1.25 10Z" fill="black"/>
<path fill-rule="evenodd" clip-rule="evenodd" d="M9.99927 1.25C10.3444 1.25 10.6243 1.52982 10.6243 1.875V3.125C10.6243 3.47018 10.3444 3.75 9.99927 3.75C9.65409 3.75 9.37427 3.47018 9.37427 3.125V1.875C9.37427 1.52982 9.65409 1.25 9.99927 1.25Z" fill="black"/>
<path fill-rule="evenodd" clip-rule="evenodd" d="M16.3488 3.94083C16.5886 4.18913 16.5817 4.5848 16.3334 4.82458L15.4342 5.6929C15.1859 5.93268 14.7903 5.92578 14.5505 5.67748C14.3107 5.42918 14.3176 5.03351 14.5659 4.79373L15.4651 3.9254C15.7134 3.68562 16.1091 3.69253 16.3488 3.94083Z" fill="black"/>
<path fill-rule="evenodd" clip-rule="evenodd" d="M16.3488 15.6775C16.5886 15.4292 16.5817 15.0335 16.3334 14.7937L15.4342 13.9254C15.1859 13.6856 14.7903 13.6925 14.5505 13.9408C14.3107 14.1891 14.3176 14.5848 14.5659 14.8246L15.4651 15.6929C15.7134 15.9327 16.1091 15.9258 16.3488 15.6775Z" fill="black"/>
<path fill-rule="evenodd" clip-rule="evenodd" d="M3.30046 3.94083C3.06068 4.18913 3.06758 4.5848 3.31588 4.82458L4.21506 5.6929C4.46336 5.93268 4.85903 5.92578 5.09881 5.67748C5.33859 5.42918 5.33168 5.03351 5.08338 4.79373L4.18421 3.9254C3.93591 3.68562 3.54024 3.69253 3.30046 3.94083Z" fill="black"/>
<path fill-rule="evenodd" clip-rule="evenodd" d="M3.30046 15.6775C3.06068 15.4292 3.06758 15.0335 3.31588 14.7937L4.21506 13.9254C4.46336 13.6856 4.85903 13.6925 5.09881 13.9408C5.33859 14.1891 5.33168 14.5848 5.08338 14.8246L4.18421 15.6929C3.93591 15.9327 3.54024 15.9258 3.30046 15.6775Z" fill="black"/>
<path fill-rule="evenodd" clip-rule="evenodd" d="M9.96099 4.37517C12.7201 4.35315 15 6.51972 15 9.23593C15 10.6962 14.3333 11.9976 13.3004 12.8831C12.8266 13.291 12.5612 13.868 12.5612 14.4686C12.5612 15.1272 12.0182 15.625 11.3876 15.625H8.60442C7.97383 15.625 7.4308 15.1272 7.4308 14.4686C7.4308 13.868 7.16543 13.291 6.69159 12.8831C5.66117 12.0001 5.00469 10.7026 5.00003 9.2536M9.97096 5.62513C7.89694 5.64193 6.24326 7.28891 6.25002 9.24929L6.25002 9.24945C6.25341 10.3137 6.73401 11.2735 7.50533 11.9342L7.50631 11.9351C8.2257 12.554 8.6528 13.4358 8.67947 14.375H11.3125C11.3392 13.4358 11.7663 12.554 12.4857 11.9351L12.4866 11.9344C13.2636 11.2683 13.75 10.3046 13.75 9.23593C13.75 7.25091 12.0734 5.60839 9.97103 5.62513M9.96099 4.37517L9.96092 4.37517L9.96099 4.37517ZM9.96092 4.37517C7.23755 4.39719 4.99086 6.56696 5.00003 9.25343L9.96092 4.37517Z" fill="black"/>
<path fill-rule="evenodd" clip-rule="evenodd" d="M8.125 14.375C8.47018 14.375 8.75 14.6548 8.75 15V16.9784C8.75 17.2485 8.98082 17.5 9.30827 17.5H10.6917C11.0192 17.5 11.25 17.2485 11.25 16.9784V15C11.25 14.6548 11.5298 14.375 11.875 14.375C12.2202 14.375 12.5 14.6548 12.5 15V16.9784C12.5 17.9757 11.6721 18.75 10.6917 18.75H9.30827C8.3279 18.75 7.5 17.9757 7.5 16.9784V15C7.5 14.6548 7.77982 14.375 8.125 14.375Z" fill="black"/>
</svg>
