<svg width="20" height="20" viewBox="0 0 20 20" fill="none" xmlns="http://www.w3.org/2000/svg">
<path fill-rule="evenodd" clip-rule="evenodd" d="M9.69683 1.39618C9.93133 1.19946 10.2738 1.2015 10.5059 1.40102L18.5324 8.3C18.7318 8.47134 18.8026 8.74909 18.7097 8.99496C18.6167 9.24084 18.3799 9.40229 18.117 9.39893L16.875 9.38304L16.875 18.125C16.875 18.2908 16.8092 18.4497 16.692 18.5669C16.5748 18.6842 16.4158 18.75 16.25 18.75H3.75003C3.40485 18.75 3.12503 18.4702 3.12503 18.125L3.12503 9.38304L1.88302 9.39893C1.61882 9.4023 1.38104 9.23917 1.28909 8.99146C1.19715 8.74375 1.27091 8.46498 1.47334 8.29516L9.69683 1.39618ZM3.61911 8.12662L3.74204 8.12505C3.90917 8.12291 4.0702 8.18781 4.18914 8.30524C4.30808 8.42267 4.37503 8.58285 4.37503 8.75L4.37503 17.5H15.625L15.625 8.75C15.625 8.58285 15.692 8.42267 15.8109 8.30524C15.9299 8.18781 16.0909 8.12291 16.258 8.12505L16.4135 8.12704L10.0936 2.69493L3.61911 8.12662Z" fill="black"/>
<path fill-rule="evenodd" clip-rule="evenodd" d="M8.41241 12.5C8.29819 12.5 8.125 12.618 8.125 12.8569V17.5H11.875V12.8569C11.875 12.618 11.7018 12.5 11.5876 12.5H8.41241ZM6.875 12.8569C6.875 12.0157 7.52298 11.25 8.41241 11.25H11.5876C12.477 11.25 13.125 12.0157 13.125 12.8569V18.125C13.125 18.4702 12.8452 18.75 12.5 18.75H7.5C7.15482 18.75 6.875 18.4702 6.875 18.125V12.8569Z" fill="black"/>
</svg>
