<svg width="20" height="20" viewBox="0 0 20 20" fill="none" xmlns="http://www.w3.org/2000/svg">
<path fill-rule="evenodd" clip-rule="evenodd" d="M5.625 2.5C4.58947 2.5 3.75 3.33947 3.75 4.375C3.75 5.41053 4.58947 6.25 5.625 6.25C6.66053 6.25 7.5 5.41053 7.5 4.375C7.5 3.33947 6.66053 2.5 5.625 2.5ZM2.5 4.375C2.5 2.64911 3.89911 1.25 5.625 1.25C7.35089 1.25 8.75 2.64911 8.75 4.375C8.75 6.10089 7.35089 7.5 5.625 7.5C3.89911 7.5 2.5 6.10089 2.5 4.375Z" fill="black"/>
<path fill-rule="evenodd" clip-rule="evenodd" d="M14.375 13.75C13.3395 13.75 12.5 14.5895 12.5 15.625C12.5 16.6605 13.3395 17.5 14.375 17.5C15.4105 17.5 16.25 16.6605 16.25 15.625C16.25 14.5895 15.4105 13.75 14.375 13.75ZM11.25 15.625C11.25 13.8991 12.6491 12.5 14.375 12.5C16.1009 12.5 17.5 13.8991 17.5 15.625C17.5 17.3509 16.1009 18.75 14.375 18.75C12.6491 18.75 11.25 17.3509 11.25 15.625Z" fill="black"/>
<path fill-rule="evenodd" clip-rule="evenodd" d="M7.91667 4.375C7.91667 4.02982 8.19649 3.75 8.54167 3.75H13.9583C15.895 3.75 17.5 5.26561 17.5 7.1875C17.5 9.10939 15.895 10.625 13.9583 10.625H7.29167C6.00213 10.625 5 11.6234 5 12.8125C5 14.0016 6.00213 15 7.29167 15H11.875C12.2202 15 12.5 15.2798 12.5 15.625C12.5 15.9702 12.2202 16.25 11.875 16.25H7.29167C5.35501 16.25 3.75 14.7344 3.75 12.8125C3.75 10.8906 5.35501 9.375 7.29167 9.375H13.9583C15.2479 9.375 16.25 8.37658 16.25 7.1875C16.25 5.99842 15.2479 5 13.9583 5H8.54167C8.19649 5 7.91667 4.72018 7.91667 4.375Z" fill="black"/>
</svg>
