<svg width="20" height="20" viewBox="0 0 20 20" fill="none" xmlns="http://www.w3.org/2000/svg">
<path fill-rule="evenodd" clip-rule="evenodd" d="M6.43021 2.5C5.27986 2.5 4.375 3.40714 4.375 4.48663V16.3783C4.375 17.3081 5.52243 17.8713 6.29908 17.222L8.41344 15.4565C8.58409 15.2834 9.14442 14.7957 10 14.7957C10.876 14.7957 11.4368 15.3092 11.5816 15.4523L13.7006 17.2217C14.4757 17.8697 15.625 17.3043 15.625 16.3783V4.48663C15.625 3.40714 14.7201 2.5 13.5698 2.5H6.43021ZM3.125 4.48663C3.125 2.68752 4.61913 1.25 6.43021 1.25H13.5698C15.3809 1.25 16.875 2.68752 16.875 4.48663V16.3783C16.875 18.4237 14.4427 19.4714 12.8992 18.181L10.7587 16.3937C10.7435 16.381 10.7289 16.3676 10.7149 16.3534C10.6641 16.3021 10.4011 16.0457 10 16.0457C9.80126 16.0457 9.63541 16.1076 9.50815 16.1808C9.4446 16.2173 9.39344 16.2552 9.35673 16.2857C9.31935 16.3168 9.30059 16.3372 9.30228 16.3353C9.28328 16.3561 9.2629 16.3757 9.24127 16.3937L7.10083 18.181C5.55884 19.4701 3.125 18.4315 3.125 16.3783V4.48663Z" fill="black"/>
</svg>
