<svg width="20" height="20" viewBox="0 0 20 20" fill="none" xmlns="http://www.w3.org/2000/svg">
<path fill-rule="evenodd" clip-rule="evenodd" d="M10 6.25C9.30964 6.25 8.75 6.80964 8.75 7.5C8.75 8.19036 9.30964 8.75 10 8.75C10.6904 8.75 11.25 8.19036 11.25 7.5C11.25 6.80964 10.6904 6.25 10 6.25ZM7.5 7.5C7.5 6.11929 8.61929 5 10 5C11.3807 5 12.5 6.11929 12.5 7.5C12.5 8.88071 11.3807 10 10 10C8.61929 10 7.5 8.88071 7.5 7.5Z" fill="black"/>
<path fill-rule="evenodd" clip-rule="evenodd" d="M4.04546 1.3741C4.3221 1.58054 4.37901 1.97215 4.17257 2.2488C3.13153 3.64387 2.5 5.41562 2.5 7.34736C2.5 9.2791 3.13153 11.0509 4.17257 12.4459C4.37901 12.7226 4.3221 13.1142 4.04546 13.3206C3.76881 13.5271 3.3772 13.4701 3.17076 13.1935C1.9718 11.5868 1.25 9.55386 1.25 7.34736C1.25 5.14086 1.9718 3.10791 3.17076 1.50122C3.3772 1.22458 3.76881 1.16766 4.04546 1.3741Z" fill="black"/>
<path fill-rule="evenodd" clip-rule="evenodd" d="M15.8714 1.37778C16.146 1.16864 16.5381 1.22172 16.7473 1.49633C18.004 3.14649 18.75 5.23458 18.75 7.5C18.75 9.76543 18.004 11.8535 16.7473 13.5037C16.5381 13.7783 16.146 13.8314 15.8714 13.6222C15.5968 13.4131 15.5437 13.0209 15.7528 12.7463C16.8459 11.311 17.5 9.48824 17.5 7.5C17.5 5.51176 16.8459 3.68902 15.7528 2.25368C15.5437 1.97907 15.5968 1.58691 15.8714 1.37778Z" fill="black"/>
<path fill-rule="evenodd" clip-rule="evenodd" d="M6.38155 3.34988C6.66343 3.5491 6.73045 3.93911 6.53123 4.221C5.96444 5.02299 5.625 6.03334 5.625 7.13999C5.625 8.24663 5.96444 9.25698 6.53123 10.059C6.73045 10.3409 6.66343 10.7309 6.38155 10.9301C6.09966 11.1293 5.70965 11.0623 5.51043 10.7804C4.79389 9.76652 4.375 8.50393 4.375 7.13999C4.375 5.77604 4.79389 4.51345 5.51043 3.49957C5.70965 3.21768 6.09966 3.15066 6.38155 3.34988Z" fill="black"/>
<path fill-rule="evenodd" clip-rule="evenodd" d="M13.3893 3.34988C13.6712 3.15066 14.0612 3.21768 14.2605 3.49957C14.977 4.51345 15.3959 5.77604 15.3959 7.13999C15.3959 8.50393 14.977 9.76652 14.2605 10.7804C14.0612 11.0623 13.6712 11.1293 13.3893 10.9301C13.1074 10.7309 13.0404 10.3409 13.2396 10.059C13.8064 9.25698 14.1459 8.24663 14.1459 7.13999C14.1459 6.03334 13.8064 5.02299 13.2396 4.221C13.0404 3.93911 13.1074 3.5491 13.3893 3.34988Z" fill="black"/>
<path fill-rule="evenodd" clip-rule="evenodd" d="M10.3123 9.45865C10.6113 9.63114 10.7138 10.0134 10.5413 10.3123L5.85385 18.4373C5.68136 18.7363 5.29914 18.8389 5.00016 18.6664C4.70117 18.4939 4.59862 18.1117 4.77112 17.8127L9.45862 9.68769C9.63111 9.3887 10.0133 9.28615 10.3123 9.45865Z" fill="black"/>
<path fill-rule="evenodd" clip-rule="evenodd" d="M9.68766 9.45865C9.98664 9.28615 10.3689 9.3887 10.5413 9.68769L15.2288 17.8127C15.4013 18.1117 15.2988 18.4939 14.9998 18.6664C14.7008 18.8389 14.3186 18.7363 14.1461 18.4373L9.45862 10.3123C9.28612 10.0134 9.38867 9.63114 9.68766 9.45865Z" fill="black"/>
<path fill-rule="evenodd" clip-rule="evenodd" d="M6.25 15.625C6.25 15.2798 6.46899 15 6.73913 15H13.2609C13.531 15 13.75 15.2798 13.75 15.625C13.75 15.9702 13.531 16.25 13.2609 16.25H6.73913C6.46899 16.25 6.25 15.9702 6.25 15.625Z" fill="black"/>
</svg>
