<svg xmlns="http://www.w3.org/2000/svg" width="48" height="48" fill="none" viewBox="0 0 48 48">
  <g class="account">
    <g fill-rule="evenodd" class="Icon" clip-rule="evenodd">
      <path fill="#FF462D" d="M27 14a1 1 0 1 0 0 2h12a1 1 0 1 0 0-2H27Zm0 5a1 1 0 1 0 0 2h12a1 1 0 1 0 0-2H27Z" class="secondary"/>
      <path fill="#3D3C3C" d="M40 8H8a2 2 0 0 0-2 2v28a2 2 0 0 0 2 2h32a2 2 0 0 0 2-2V10a2 2 0 0 0-2-2ZM8 6a4 4 0 0 0-4 4v28a4 4 0 0 0 4 4h32a4 4 0 0 0 4-4V10a4 4 0 0 0-4-4H8Zm2.588 22.53c-.403.326-.593.713-.588 1.087V32h12v-2.507C22.005 28.7 21.319 28 20.19 28h-8.11c-.532 0-1.086.201-1.492.53ZM9.33 26.975A4.442 4.442 0 0 1 12.08 26h8.11c1.91 0 3.823 1.3 3.81 3.503V33a1 1 0 0 1-1 1H9a1 1 0 0 1-1-1v-3.364c-.012-1.123.572-2.048 1.33-2.661ZM16 14c-2.762 0-5 2.238-5 5s2.238 5 5 5 5-2.238 5-5-2.238-5-5-5Zm-3 5c0-1.658 1.342-3 3-3s3 1.342 3 3-1.342 3-3 3-3-1.342-3-3Z" class="primary"/>
    </g>
  </g>
</svg>
