<svg xmlns="http://www.w3.org/2000/svg" width="48" height="48" fill="none" viewBox="0 0 48 48">
  <g class="Size=S">
    <g class="Icon">
      <path fill="#FF462D" d="M35.694 3.44a1 1 0 0 1 1.293-.326l4.37 2.292a1 1 0 0 1 .425 1.346l-.867 1.673a9.113 9.113 0 0 1 1.132 1.872l2 .095a1 1 0 0 1 .953 1v4.791a1 1 0 0 1-.967 1l-1.791.059a8.82 8.82 0 0 1-.44.97c-.012.021-.027.04-.04.06a9.55 9.55 0 0 1-.536.862l1.066 1.84a1.001 1.001 0 0 1-.375 1.372l-4.479 2.525a1 1 0 0 1-1.386-.426l-.81-1.627c-.667.1-1.35.123-2.036.062l-.848 1.584a1 1 0 0 1-1.345.414L26.6 22.569a1.002 1.002 0 0 1-.416-1.361l.892-1.651a9.106 9.106 0 0 1-1.1-1.81l-1.793.06a1.001 1.001 0 0 1-1.033-.97l-.15-5a1 1 0 0 1 .966-1.029l1.79-.06c.125-.324.27-.653.446-.976.167-.307.353-.612.558-.907l-.94-1.534a1 1 0 0 1 .323-1.371l4.222-2.634.087-.048a1.001 1.001 0 0 1 1.294.373l.943 1.532a8.55 8.55 0 0 1 2.103-.073l.85-1.583.052-.087Zm.536 3.224a1 1 0 0 1-1.06.512 6.552 6.552 0 0 0-2.73.095 1.001 1.001 0 0 1-1.09-.447l-.781-1.269-2.525 1.576.78 1.271a1 1 0 0 1-.092 1.172 6.69 6.69 0 0 0-.773 1.153c-.218.4-.386.836-.533 1.3a1 1 0 0 1-.92.697l-1.477.05.09 3 1.478-.049.16.007c.365.046.681.293.812.647a7.117 7.117 0 0 0 1.444 2.375 1 1 0 0 1 .146 1.154l-.735 1.358 2.638 1.38.707-1.318.087-.136a1 1 0 0 1 .973-.376 6.55 6.55 0 0 0 2.73-.095l.171-.027a1 1 0 0 1 .963.552l.68 1.365 2.681-1.512-.891-1.54a1.001 1.001 0 0 1 .104-1.15c.284-.333.539-.721.773-1.153l.014-.023a7.68 7.68 0 0 0 .519-1.268 1 1 0 0 1 .92-.698l1.506-.051v-2.871l-1.678-.08a1 1 0 0 1-.89-.652 7.117 7.117 0 0 0-1.445-2.376 1 1 0 0 1-.154-1.139l.715-1.383-2.612-1.37-.705 1.319ZM34 10a4.001 4.001 0 1 1-4 4 4 4 0 0 1 4-4Zm0 2a2 2 0 0 0-2 2 2.001 2.001 0 1 0 2-2Z" class="secondary"/>
      <path fill="#3D3C3C" d="M19.246 13.027a1 1 0 0 1 .567 1.916l-.307.115C16.36 16.294 14 19.246 14 22.8c0 2.127 1.448 4.347 3.004 6.02 1.587 1.7 1.944 4.127 1.99 6.18h7.026c.178-2.33 1.56-4.68 2.996-6.231a8.215 8.215 0 0 0 1.109-1.543 1 1 0 0 1 1.75.968 10.207 10.207 0 0 1-1.385 1.926l-.007.007C29.126 31.594 28 33.711 28 35.5v5.445c0 .969-.544 1.757-1.245 2.264-.703.508-1.623.791-2.595.791h-3.32c-.972 0-1.892-.283-2.595-.791-.701-.508-1.245-1.295-1.245-2.264V35.5c0-2.104-.307-4.082-1.458-5.316l-.001-.001C13.912 28.432 12 25.726 12 22.8c0-4.637 3.17-8.342 7.148-9.743l.098-.03ZM19 37v3.945c0 .167.092.407.418.643.325.235.824.412 1.422.412h3.32c.598 0 1.097-.177 1.422-.412.326-.236.418-.476.418-.643V37h-7ZM9 20a1 1 0 1 1 0 2H5a1 1 0 1 1 0-2h4Zm.293-10.707a1 1 0 0 1 1.414 0l3 3 .068.076a1 1 0 0 1-1.406 1.406l-.076-.068-3-3a1 1 0 0 1 0-1.414ZM20 4a1 1 0 0 1 1 1v4a1 1 0 1 1-2 0V5a1 1 0 0 1 1-1Z" class="primary"/>
    </g>
  </g>
</svg>
