<svg xmlns="http://www.w3.org/2000/svg" width="48" height="49" fill="none" viewBox="0 0 48 49">
  <g class="AIOps">
    <g fill-rule="evenodd" class="Icon" clip-rule="evenodd">
      <path fill="#3D3C3C" d="M14.5 16.547C14.5 10.646 18.907 6 24.19 6c4.41 0 8.197 3.227 9.335 7.722a7.328 7.328 0 0 0-2.53 1.116 1 1 0 1 0 1.138 1.645c.798-.553 1.876-.983 3.405-.983 1.611 0 3.23.77 4.46 2.03C41.227 18.79 42 20.473 42 22.195c0 1.589-.013 2.522-.832 3.75a1 1 0 0 0 1.664 1.11C44 25.302 44 23.832 44 22.248v-.053c0-2.317-1.031-4.483-2.57-6.06-1.537-1.577-3.65-2.635-5.892-2.635H35.5a1 1 0 0 0-.03-.248C34.143 7.976 29.637 4 24.19 4 17.707 4 12.574 9.608 12.5 16.398c-1.227-.178-2.288-.06-3.31.328h-.001C6.057 17.92 4 20.836 4 23.983c0 3.311 2.049 6.186 4.993 7.437a1 1 0 1 0 .783-1.84C7.526 28.624 6 26.446 6 23.983c0-2.269 1.498-4.473 3.9-5.387.807-.307 1.682-.387 2.915-.105a.871.871 0 0 0 .05.01l1.052.185a1 1 0 0 0 .583-1.897v-.242ZM16 20.5a2 2 0 0 0-2 2v20a2 2 0 0 0 2 2h25a2 2 0 0 0 2-2V31.806a2 2 0 0 0-2.522-1.93L31 32.438V22.5a2 2 0 0 0-2-2H16Zm0 18v4h13v-4H16Zm13-2H16v-6h13v6Zm2 1v5h10V31.806L31 34.51v2.99Zm-15-9h13v-6H16v6Z" class="primary"/>
      <path fill="#FF462D" d="M18 24.5a1 1 0 1 0 0 2h3a1 1 0 1 0 0-2h-3Zm0 8a1 1 0 1 0 0 2h3a1 1 0 1 0 0-2h-3Z" class="secondary"/>
    </g>
  </g>
</svg>
