<svg xmlns="http://www.w3.org/2000/svg" width="48" height="47" fill="none" viewBox="0 0 48 47">
  <g class="analytics">
    <g fill-rule="evenodd" class="Icon" clip-rule="evenodd">
      <path fill="#3D3C3C" d="M5 3a1 1 0 0 1 1 1v36c0 1.132.882 2 1.923 2H43a1 1 0 1 1 0 2H7.923C5.73 44 4 42.188 4 40V4a1 1 0 0 1 1-1Z" class="primary"/>
      <g fill="#FF462D" class="secondary">
        <path d="M40.555 6.168a1 1 0 0 1 .277 1.387L29.683 24.283a1.728 1.728 0 0 1-2.55.346l-.002-.002-7.927-6.795-.002-.002a.447.447 0 0 0-.715.185v.003l-6.545 18.318a1 1 0 0 1-1.883-.672l6.543-18.316v-.001c.575-1.622 2.6-2.156 3.905-1.033l.001.001 7.689 6.592L39.168 6.445a1 1 0 0 1 1.387-.277Z"/>
        <path d="M39.398 7.659v.001-.001Zm.02.236.585 7.262c.04.501.52.877 1.07.84.551-.036.965-.472.925-.973l-.605-7.492a1.66 1.66 0 0 0-2.002-1.496L32.78 7.397c-.539.11-.877.598-.755 1.087.122.49.658.797 1.196.686l6.196-1.275Z"/>
      </g>
    </g>
  </g>
</svg>
