<svg xmlns="http://www.w3.org/2000/svg" width="48" height="48" fill="none" viewBox="0 0 48 48">
  <g class="applications-data-&amp;-Ai">
    <g fill-rule="evenodd" class="Icon" clip-rule="evenodd">
      <path fill="#3D3C3C" d="M15.5 11c.441 0 .863-.082 1.252-.23L18 12.276V15a1 1 0 1 0 2 0v-3.083a1 1 0 0 0-.23-.638l-1.432-1.73A3.5 3.5 0 1 0 15.5 11Zm0-5a1.5 1.5 0 1 0 .89 2.707l.02-.014A1.5 1.5 0 0 0 15.5 6ZM8.425 16.877a3.5 3.5 0 1 1 1.708-1.07L11.922 18H14a1 1 0 1 1 0 2h-2.553a1 1 0 0 1-.775-.368l-2.247-2.755ZM6 13.5a1.5 1.5 0 1 1 3 0 1.5 1.5 0 0 1-3 0ZM20 32a1 1 0 0 1 1 1v3.074a1 1 0 0 1-.302.716l-2.829 2.76A3.505 3.505 0 0 1 14.5 44a3.5 3.5 0 1 1 2.265-6.168L19 35.652V33a1 1 0 0 1 1-1Zm-7 8.5a1.5 1.5 0 1 1 3 0 1.5 1.5 0 0 1-3 0ZM10.931 26a1 1 0 0 0-.84.459l-1.709 2.653a3.5 3.5 0 1 0 1.71 1.037L11.478 28H14a1 1 0 1 0 0-2h-3.069ZM7.5 31a1.5 1.5 0 1 0 0 3 1.5 1.5 0 0 0 0-3Zm25-20c-.441 0-.863-.082-1.252-.23L30 12.276V15a1 1 0 1 1-2 0v-3.083a1 1 0 0 1 .23-.638l1.432-1.73A3.5 3.5 0 1 1 32.5 11ZM31 7.5c0 .487.232.919.59 1.193l.02.014A1.5 1.5 0 1 0 31 7.5Zm8.575 9.377a3.5 3.5 0 1 0-1.708-1.07L36.08 18H34a1 1 0 1 0 0 2h2.553a1 1 0 0 0 .775-.368l2.247-2.755ZM42 13.5a1.5 1.5 0 1 0-3 0 1.5 1.5 0 0 0 3 0ZM28 32a1 1 0 0 0-1 1v3.074a1 1 0 0 0 .302.716l2.829 2.76A3.505 3.505 0 0 0 33.5 44a3.5 3.5 0 1 0-2.265-6.168L29 35.652V33a1 1 0 0 0-1-1Zm7 8.5a1.5 1.5 0 1 0-3 0 1.5 1.5 0 0 0 3 0ZM37.069 26a1 1 0 0 1 .84.459l1.709 2.653a3.5 3.5 0 1 1-1.71 1.037L36.522 28H34a1 1 0 1 1 0-2h3.069Zm3.431 5a1.5 1.5 0 1 1 0 3 1.5 1.5 0 0 1 0-3Z" class="primary"/>
      <path fill="#FF462D" d="M17.22 16c-.66 0-1.22.547-1.22 1.253v13.494c0 .706.56 1.253 1.22 1.253h13.56c.66 0 1.22-.547 1.22-1.253V17.253c0-.706-.56-1.253-1.22-1.253H17.22ZM14 17.253C14 15.471 15.427 14 17.22 14h13.56c1.793 0 3.22 1.471 3.22 3.253v13.494C34 32.529 32.573 34 30.78 34H17.22C15.426 34 14 32.529 14 30.747V17.253Z" class="secondary"/>
    </g>
  </g>
</svg>
