<svg xmlns="http://www.w3.org/2000/svg" width="48" height="48" fill="none" viewBox="0 0 48 48">
  <g class="Size=S">
    <g fill-rule="evenodd" class="Icon" clip-rule="evenodd">
      <g fill="#3D3C3C" class="primary">
        <path d="M4.465 24.999a1 1 0 0 1 .963-.06l9 4.261a1 1 0 0 1 .572.904V42.5a1 1 0 0 1-1.455.89l-9-4.604a1 1 0 0 1-.545-.89V25.844a1 1 0 0 1 .465-.845ZM6 27.423v9.861l7 3.581V30.737l-7-3.314Z"/>
        <path d="M24.538 24.657A1 1 0 0 1 25 25.5v12.396a1 1 0 0 1-.582.908l-10 4.604a1 1 0 1 1-.836-1.816L23 37.255v-10.19l-8.58 3.979a1 1 0 0 1-.84-1.815l10-4.636a1 1 0 0 1 .958.064Z"/>
        <path d="M13.553 20.105a1 1 0 0 1 .858-.017l10 4.5a1 1 0 1 1-.821 1.824l-9.567-4.305-8.576 4.287a1 1 0 1 1-.894-1.789l9-4.5Z"/>
        <path d="M23.106 25.053a1 1 0 0 1 1.341-.448l10 5A1 1 0 0 1 35 30.5v12a1 1 0 0 1-1.418.908l-10-4.604a1 1 0 0 1 .836-1.817L33 40.94v-9.821l-9.447-4.724a1 1 0 0 1-.447-1.341Z"/>
        <path d="M43.507 24.638A1 1 0 0 1 44 25.5v12.396a1 1 0 0 1-.544.89l-9 4.604a1 1 0 1 1-.911-1.78L42 37.284V27.199l-7.514 4.175a1 1 0 1 1-.971-1.748l9-5a1 1 0 0 1 .992.012Z"/>
        <path d="M33.59 20.088a1 1 0 0 1 .857.017l9 4.5a1 1 0 0 1-.894 1.79l-8.575-4.288-9.567 4.305a1 1 0 1 1-.821-1.824l10-4.5Z"/>
        <path d="M13.44 8.672a1 1 0 0 1 .932-.1l10 4A1 1 0 0 1 25 13.5v12a1 1 0 1 1-2 0V14.177l-8-3.2V20.7a1 1 0 1 1-2 0V9.5a1 1 0 0 1 .44-.828Z"/>
        <path d="M34.56 8.672A1 1 0 0 1 35 9.5v11a1 1 0 1 1-2 0v-9.523l-8.628 3.451a1 1 0 0 1-.743-1.857l10-4a1 1 0 0 1 .932.1Z"/>
        <path d="M23.607 4.572a1 1 0 0 1 .742 0l10.022 4a1 1 0 1 1-.742 1.857l-9.65-3.852-9.607 3.851a1 1 0 0 1-.744-1.856l9.979-4Z"/>
      </g>
      <path fill="#FF462D" d="M28.406 8.414a1 1 0 1 0-.812-1.828l-8.979 3.99a1.004 1.004 0 0 0-.615.947V16.5a1 1 0 0 0 2 0v-4.35l8.406-3.736ZM16.971 25.382a1 1 0 0 0-.941-1.765L8.545 27.61a1 1 0 0 0-.545.913V32.5a1 1 0 1 0 2 0v-3.4l6.97-3.718Z" class="secondary"/>
    </g>
  </g>
</svg>
