<svg xmlns="http://www.w3.org/2000/svg" width="48" height="48" fill="none" viewBox="0 0 48 48">
  <g class="box-empty">
    <g class="Icon">
      <path fill="#FF462D" d="M38.026 17.09a1 1 0 0 1 1.24.346l4.56 6.667a1 1 0 0 1-.326 1.43l-14.44 8.333a1 1 0 0 1-1.326-.301l-4.56-6.667a1 1 0 0 1 .326-1.431l14.44-8.333.086-.044Zm-12.591 9.57 3.427 5.01 12.703-7.33-3.428-5.01-12.702 7.33Z" class="secondary"/>
      <path fill="#3D3C3C" d="M39 30a1 1 0 0 1 1 1v4.224a1 1 0 0 1-.54.888l-14.975 7.763c-.037.02-.076.037-.115.053l-.027.01a.926.926 0 0 1-.061.02c-.017.006-.034.01-.05.014a.906.906 0 0 1-.048.01l-.024.003a.96.96 0 0 1-.099.012h-.027l-.025.002h-.019l-.026-.001-.025-.001a.902.902 0 0 1-.028-.002c-.024-.002-.047-.006-.07-.01l-.027-.004a.87.87 0 0 1-.098-.023l-.051-.018-.038-.013a.99.99 0 0 1-.118-.056L8.541 36.112a1 1 0 0 1-.54-.888V31a1 1 0 0 1 2 0v3.616l13 6.738V36a1 1 0 0 1 2 0v5.354l13-6.738V31a1 1 0 0 1 1-1ZM27.835 4.313c.3-.318.777-.406 1.174-.208l14.44 7.223a1 1 0 0 1 .338 1.514l-4.56 5.777a1 1 0 0 1-1.233.275L24 11.895l-12.33 6.167 12.83 7.405a1 1 0 0 1 .326 1.43l-4.56 6.667a1 1 0 0 1-1.325.302l-14.44-8.333a1 1 0 0 1-.326-1.43L8.32 18.04l-4.105-5.2a1 1 0 0 1 .338-1.513l14.44-7.223.08-.036a1 1 0 0 1 1.152.312l3.776 4.782 3.775-4.782.058-.068ZM6.435 24.34l12.702 7.33 3.428-5.011-12.702-7.33-3.428 5.01Zm.111-11.774 3.294 4.175 12.614-6.309-3.294-4.174-12.614 6.308Zm19-2.134 12.614 6.31 3.294-4.176L28.84 6.258l-3.293 4.174Z" class="primary"/>
    </g>
  </g>
</svg>
