<svg xmlns="http://www.w3.org/2000/svg" width="48" height="48" fill="none" viewBox="0 0 48 48">
  <g fill-rule="evenodd" class="calendar" clip-rule="evenodd">
    <path fill="#FF462D" d="M14.514 21h-1.028c-.82 0-1.486.618-1.486 1.38v1.24c0 .762.665 1.38 1.486 1.38h1.028c.82 0 1.486-.618 1.486-1.38v-1.24c0-.762-.665-1.38-1.486-1.38Zm0 7h-1.028c-.82 0-1.486.618-1.486 1.38v1.24c0 .762.665 1.38 1.486 1.38h1.028c.82 0 1.486-.618 1.486-1.38v-1.24c0-.762-.665-1.38-1.486-1.38Zm-1.028 7h1.028c.82 0 1.486.618 1.486 1.38v1.24c0 .762-.665 1.38-1.486 1.38h-1.028c-.82 0-1.486-.618-1.486-1.38v-1.24c0-.762.665-1.38 1.486-1.38Zm11.028-14h-1.028c-.82 0-1.486.618-1.486 1.38v1.24c0 .762.665 1.38 1.486 1.38h1.028c.82 0 1.486-.618 1.486-1.38v-1.24c0-.762-.665-1.38-1.486-1.38Zm-1.028 7h1.028c.82 0 1.486.618 1.486 1.38v1.24c0 .762-.665 1.38-1.486 1.38h-1.028c-.82 0-1.486-.618-1.486-1.38v-1.24c0-.762.665-1.38 1.486-1.38Zm1.028 7h-1.028c-.82 0-1.486.618-1.486 1.38v1.24c0 .762.665 1.38 1.486 1.38h1.028c.82 0 1.486-.618 1.486-1.38v-1.24c0-.762-.665-1.38-1.486-1.38Zm8.972-14h1.028c.82 0 1.486.618 1.486 1.38v1.24c0 .762-.665 1.38-1.486 1.38h-1.028c-.82 0-1.486-.618-1.486-1.38v-1.24c0-.762.665-1.38 1.486-1.38Zm1.028 7h-1.028c-.82 0-1.486.618-1.486 1.38v1.24c0 .762.665 1.38 1.486 1.38h1.028c.82 0 1.486-.618 1.486-1.38v-1.24c0-.762-.665-1.38-1.486-1.38Zm-1.028 7h1.028c.82 0 1.486.618 1.486 1.38v1.24c0 .762-.665 1.38-1.486 1.38h-1.028c-.82 0-1.486-.618-1.486-1.38v-1.24c0-.762.665-1.38 1.486-1.38Z" class="secondary"/>
    <path fill="#3D3C3C" d="M18 4a1 1 0 0 1 1 1v2h10V5a1 1 0 1 1 2 0v6a1 1 0 1 1-2 0V9H19v2a1 1 0 1 1-2 0V5a1 1 0 0 1 1-1ZM6 17v-3.71C6 11.392 7.393 10 8.946 10H12a1 1 0 1 0 0-2H8.946C6.134 8 4 10.448 4 13.29v26.043C4 41.972 6.28 44 8.947 44h30.106C41.717 44 44 41.983 44 39.333V13.29C44 10.448 41.866 8 39.054 8H36a1 1 0 1 0 0 2h3.054C40.607 10 42 11.392 42 13.29V17H6Zm36 2H6v20.333C6 40.733 7.247 42 8.947 42h30.106C40.755 42 42 40.742 42 39.333V19Z" class="primary"/>
  </g>
</svg>
