<svg xmlns="http://www.w3.org/2000/svg" width="48" height="48" fill="none" viewBox="0 0 48 48">
  <g fill-rule="evenodd" class="catalog-management" clip-rule="evenodd">
    <path fill="#3D3C3C" d="M13 4a1 1 0 1 0 0 2h24.315C38.775 6 40 7.223 40 8.716V40a1 1 0 1 0 2 0V8.716C42 6.133 39.895 4 37.315 4H13Zm.024 7C11.957 11 11 11.934 11 13.17V17h2a1 1 0 1 1 0 2H7a1 1 0 1 1 0-2h2v-3.83C9 10.92 10.765 9 13.024 9h19.953C35.235 9 37 10.92 37 13.17v26.66c0 2.25-1.765 4.17-4.023 4.17H13.024C10.897 44 9 42.508 9 40.128a1 1 0 1 1 2 0c0 1.107.825 1.872 2.024 1.872h19.953C34.041 42 35 41.066 35 39.83V13.17c0-1.236-.958-2.17-2.023-2.17H13.024ZM6 27a1 1 0 0 1 1-1h2v-4a1 1 0 1 1 2 0v4h2a1 1 0 1 1 0 2H7a1 1 0 0 1-1-1Zm0 9a1 1 0 0 1 1-1h2.039A1 1 0 0 1 9 34.724V31a1 1 0 1 1 2 0v3.724c0 .096-.014.188-.039.276H13a1 1 0 1 1 0 2H7a1 1 0 0 1-1-1Z" class="primary"/>
    <path fill="#FF462D" d="M17 18a1 1 0 0 1 1-1h11a1 1 0 1 1 0 2H18a1 1 0 0 1-1-1Zm0 6a1 1 0 0 1 1-1h11a1 1 0 1 1 0 2H18a1 1 0 0 1-1-1Zm1 5a1 1 0 1 0 0 2h11a1 1 0 1 0 0-2H18Z" class="secondary"/>
  </g>
</svg>
