<svg xmlns="http://www.w3.org/2000/svg" width="48" height="48" fill="none" viewBox="0 0 48 48">
  <g class="Size=S">
    <g class="Icon">
      <path fill="#3D3C3C" d="M24 4c11.046 0 20 8.954 20 20s-8.954 20-20 20S4 35.046 4 24 12.954 4 24 4Zm0 2c-6.065 0-11.43 3-14.69 7.597l6.125 3.5A10.975 10.975 0 0 1 24 13c6.08 0 11 4.92 11 11s-4.92 11-11 11a10.96 10.96 0 0 1-7.014-2.523l-4.96 4.96A17.931 17.931 0 0 0 24 42c9.941 0 18-8.059 18-18S33.941 6 24 6ZM8.244 15.291A17.918 17.918 0 0 0 6 24c0 4.623 1.744 8.839 4.608 12.026l4.96-4.96A10.956 10.956 0 0 1 13 24c0-1.896.479-3.68 1.322-5.236L8.244 15.29ZM24 15c-4.975 0-9 4.025-9 9s4.025 9 9 9 9-4.025 9-9-4.025-9-9-9Z" class="primary"/>
      <path fill="#FF462D" d="M36.796 9.84a1 1 0 0 1 1.608.286l.138.143A19.936 19.936 0 0 1 44 24c0 11.046-8.954 20-20 20a1.003 1.003 0 0 1-1-1v-9a1.002 1.002 0 0 1 1-1l.464-.012A8.995 8.995 0 0 0 33 24c0-2.34-.891-4.465-2.352-6.065a1 1 0 0 1-.352-1.645l6.5-6.45Zm-4.34 7.124A10.96 10.96 0 0 1 35 24c0 5.742-4.39 10.447-10 10.952v7.02c9.476-.52 17-8.367 17-17.972 0-4.6-1.726-8.795-4.565-11.977l-4.98 4.94Z" class="secondary"/>
    </g>
  </g>
</svg>
