<svg xmlns="http://www.w3.org/2000/svg" width="48" height="48" fill="none" viewBox="0 0 48 48">
  <g class="Size=S">
    <g class="Icon">
      <path fill="#3D3C3C" d="M5 5a1 1 0 0 1 1 1v35h36a1 1 0 1 1 0 2H5a1 1 0 0 1-1-1V6a1 1 0 0 1 1-1Zm13 13a4 4 0 0 1 3.773 5.328l4.755 3.527A3.982 3.982 0 0 1 29 26c.736 0 1.424.2 2.017.546l5.246-5.722a1 1 0 0 1 1.474 1.352l-5.299 5.78a4 4 0 1 1-7.125.488l-4.657-3.455A3.984 3.984 0 0 1 18 26a3.98 3.98 0 0 1-1.977-.523l-6.258 7.418a1 1 0 0 1-1.53-1.29l6.348-7.524A4 4 0 0 1 18 18Zm11 10a2 2 0 1 0 0 4 2 2 0 0 0 0-4Zm-11-8a2 2 0 1 0 0 4 2 2 0 0 0 0-4Z" class="primary"/>
      <path fill="#FF462D" d="M41 19a2 2 0 1 0-4 0 2 2 0 0 0 4 0Zm2 0a4 4 0 1 1-8 0 4 4 0 0 1 8 0Z" class="secondary"/>
    </g>
  </g>
</svg>
