<svg xmlns="http://www.w3.org/2000/svg" width="48" height="48" fill="none" viewBox="0 0 48 48">
  <g class="Size=S">
    <g class="Icon">
      <path fill="#FF462D" d="M41 14a1 1 0 0 1 1 1v27a1 1 0 0 1-1 1h-8a1 1 0 0 1-1-1V15a1 1 0 0 1 1-1h8Zm-7 27h6V16h-6v25Z" class="secondary"/>
      <path fill="#3D3C3C" d="M4 42a1 1 0 0 1 1-1h1v-9a1 1 0 0 1 1-1h8a1 1 0 0 1 1 1v9h3V25a1 1 0 0 1 1-1h8a1 1 0 0 1 1 1v16h14l.102.005a1 1 0 0 1 0 1.99L43 43H5a1 1 0 0 1-1-1Zm1.485-16.143a1 1 0 0 1-.342-1.372l2.882-4.804A3.988 3.988 0 0 1 7 17c0-2.216 1.783-4 4-4a3.989 3.989 0 0 1 3.914 3.174l5.151 1.103A3.99 3.99 0 0 1 24 14c.594 0 1.157.13 1.663.36l3.828-4.432A3.995 3.995 0 0 1 29 8c0-2.217 1.784-4 4-4 2.217 0 4 1.783 4 4 0 2.216-1.783 4-4 4a3.991 3.991 0 0 1-2.13-.61l-3.652 4.23c.49.664.782 1.487.782 2.38 0 2.216-1.784 4-4 4a3.99 3.99 0 0 1-3.765-2.64l-5.417-1.162A3.99 3.99 0 0 1 11 21c-.457 0-.895-.077-1.304-.217l-2.839 4.732a1 1 0 0 1-1.372.342ZM31 8c0 1.112.888 2 2 2s2-.888 2-2-.888-2-2-2-2 .888-2 2Zm-4 33V26h-6v15h6Zm-5-23c0 1.112.888 2 2 2s2-.888 2-2-.888-2-2-2-2 .888-2 2Zm-8 23v-8H8v8h6ZM9 17c0 1.112.888 2 2 2s2-.888 2-2-.888-2-2-2-2 .888-2 2Z" class="primary"/>
    </g>
  </g>
</svg>
