<svg xmlns="http://www.w3.org/2000/svg" width="48" height="48" fill="none" viewBox="0 0 48 48">
  <g class="Size=S">
    <g class="Icon">
      <path fill="#3D3C3C" d="M22.541 32.707c1.95-.803 3.938-.858 5.783-.484 3.424.695 6.444 2.886 8.135 4.777H40v-2a1 1 0 0 1 2 0v6a1 1 0 0 1-2 0v-2h-3.541c-1.691 1.89-4.711 4.08-8.135 4.776-1.845.375-3.834.319-5.783-.483-1.827-.752-3.552-2.132-5.07-4.293H8v2a1 1 0 0 1-2 0v-6a1 1 0 0 1 2 0v2h9.47c1.519-2.161 3.244-3.541 5.071-4.293ZM26 34.003a7.421 7.421 0 0 0-2.697.553c-1.383.57-2.783 1.635-4.087 3.444 1.304 1.808 2.704 2.874 4.087 3.443a7.421 7.421 0 0 0 2.697.554v-7.994Zm2 7.795c2.696-.569 5.164-2.26 6.658-3.8-1.494-1.538-3.963-3.23-6.658-3.798v7.598ZM7 20a1 1 0 0 1 1 1v2h4a1 1 0 0 1 0 2H8v2a1 1 0 0 1-2 0v-6a1 1 0 0 1 1-1Zm34 0a1 1 0 0 1 1 1v6a1 1 0 0 1-2 0v-2H30a1 1 0 0 1 0-2h10v-2a1 1 0 0 1 1-1ZM22.541 4.707c1.95-.803 3.938-.858 5.783-.484 3.424.696 6.445 2.887 8.136 4.779L36.5 9H40V7a1 1 0 0 1 2 0v6a1 1 0 0 1-2 0v-2h-3.5l-.04-.002c-1.69 1.891-4.711 4.083-8.136 4.778-1.845.375-3.834.319-5.783-.483-1.827-.752-3.553-2.132-5.071-4.293H8v2a1 1 0 0 1-2 0V7a1 1 0 0 1 2 0v2h9.47c1.519-2.161 3.244-3.541 5.071-4.293ZM26 6.003a7.421 7.421 0 0 0-2.697.553c-1.383.57-2.783 1.635-4.087 3.444 1.304 1.808 2.704 2.874 4.087 3.443a7.421 7.421 0 0 0 2.697.554V6.003Zm2 7.796c2.696-.57 5.164-2.261 6.658-3.8-1.494-1.54-3.963-3.23-6.658-3.8v7.6Z" class="primary"/>
      <path fill="#FF462D" d="M16.541 18.707c1.95-.803 3.938-.858 5.783-.484 3.647.74 6.836 3.177 8.449 5.142a1 1 0 0 1 0 1.268c-1.613 1.965-4.802 4.402-8.449 5.143-1.845.375-3.833.319-5.783-.483-1.951-.803-3.786-2.322-5.377-4.744a1 1 0 0 1 0-1.098c1.59-2.422 3.426-3.941 5.377-4.744Zm3.46 1.296a7.421 7.421 0 0 0-2.698.553c-1.383.57-2.783 1.635-4.087 3.444 1.304 1.808 2.704 2.874 4.087 3.443a7.421 7.421 0 0 0 2.697.554v-7.994Zm2 7.796c2.695-.57 5.163-2.261 6.657-3.8-1.494-1.54-3.962-3.23-6.658-3.8v7.6Z" class="secondary"/>
    </g>
  </g>
</svg>
