<svg xmlns="http://www.w3.org/2000/svg" width="48" height="48" fill="none" viewBox="0 0 48 48">
  <g class="Size=S">
    <g class="Icon">
      <path fill="#FF462D" d="M36.475 11c.294-.007.577.116.772.335l4.5 5.056.064.08a1 1 0 0 1-1.486 1.322l-.072-.072-3.717-4.176-9.758 12.083a1.001 1.001 0 0 1-1.552.004l-7.695-9.43-12.002 7.48a1 1 0 0 1-1.058-1.698l12.75-7.944a1 1 0 0 1 1.303.217l7.471 9.156 9.727-12.04a.995.995 0 0 1 .753-.373Z" class="secondary"/>
      <path fill="#3D3C3C" d="M5 5a1 1 0 0 1 1 1v28.176l6.648-8.205.064-.072a1 1 0 0 1 1.26-.136l11.612 7.58 10.153-9.088.073-.06a1 1 0 0 1 1.25.051l4.596 4 .075.07a1 1 0 0 1-1.307 1.501l-.08-.063-3.93-3.421-10.066 9.012a1 1 0 0 1-1.214.093l-11.5-7.508L6 37.355V41h36a1 1 0 1 1 0 2H5a1 1 0 0 1-1-1V6a1 1 0 0 1 1-1Z" class="primary"/>
    </g>
  </g>
</svg>
