<svg xmlns="http://www.w3.org/2000/svg" width="48" height="48" fill="none" viewBox="0 0 48 48">
  <g class="Size=S">
    <g class="Icon">
      <path fill="#3D3C3C" d="M24 13c10.991 0 20 8.45 20 19a1 1 0 0 1-1 1h-9.148a1 1 0 0 1-1-1c0-4.557-3.91-8.333-8.852-8.333S15.148 27.443 15.148 32a1 1 0 0 1-1 1H5a1 1 0 0 1-1-1c0-10.55 9.009-19 20-19ZM8.025 24.166A16.2 16.2 0 0 0 6.032 31H13.2a9.879 9.879 0 0 1 .947-3.337l-6.12-3.497Zm25.828 3.497A9.88 9.88 0 0 1 34.801 31h7.167a16.2 16.2 0 0 0-1.994-6.834l-6.12 3.497ZM23 15.026c-5.806.3-10.853 3.189-13.907 7.447l6.101 3.486c1.794-2.365 4.61-3.97 7.806-4.248v-6.685Zm2 6.685c3.196.279 6.01 1.883 7.805 4.248l6.101-3.486c-3.054-4.258-8.1-7.147-13.906-7.447v6.685Z" class="primary"/>
      <path fill="#FF462D" d="M30.156 20.463a1 1 0 0 1 1.688 1.074l-6.072 9.539A2 2 0 1 1 24 30c.03 0 .057.003.085.004l6.072-9.541Z" class="secondary"/>
    </g>
  </g>
</svg>
