<svg xmlns="http://www.w3.org/2000/svg" width="48" height="48" fill="none" viewBox="0 0 48 48">
  <g class="Size=S">
    <g class="Icon">
      <path fill="#3D3C3C" d="M13 6a1 1 0 1 1 0 2h-2v3.5l-.002.04c1.891 1.691 4.083 4.712 4.778 8.136.375 1.845.32 3.834-.483 5.783-.752 1.827-2.132 3.552-4.293 5.07V40h2a1 1 0 1 1 0 2H7a1 1 0 1 1 0-2h2v-9.47c-2.161-1.519-3.541-3.244-4.293-5.071-.802-1.95-.858-3.938-.483-5.783C4.919 16.25 7.11 13.23 9 11.539V8H7a1 1 0 0 1 0-2h6Zm11 29a1 1 0 0 1 1 1v4h2a1 1 0 1 1 0 2h-6a1 1 0 1 1 0-2h2v-4a1 1 0 0 1 1-1ZM41 6a1 1 0 1 1 0 2h-2v3.541c1.89 1.691 4.081 4.712 4.776 8.135.375 1.845.32 3.834-.483 5.783-.752 1.827-2.132 3.552-4.293 5.07V40h2a1 1 0 1 1 0 2h-6a1 1 0 1 1 0-2h2v-9.47c-2.161-1.519-3.541-3.244-4.293-5.071-.802-1.95-.858-3.938-.483-5.783.695-3.424 2.885-6.444 4.776-8.135V8h-2a1 1 0 1 1 0-2h6ZM6.003 22c.018.905.189 1.81.554 2.697.569 1.383 1.635 2.783 3.443 4.087 1.808-1.304 2.874-2.704 3.443-4.087A7.421 7.421 0 0 0 13.997 22H6.003Zm28 0a7.42 7.42 0 0 0 .554 2.697c.569 1.383 1.635 2.783 3.443 4.087 1.808-1.304 2.874-2.704 3.443-4.087A7.421 7.421 0 0 0 41.997 22h-7.994ZM9.999 13.342C8.46 14.836 6.77 17.305 6.201 20H13.8c-.57-2.696-2.261-5.164-3.8-6.658Zm28 0C36.46 14.836 34.77 17.305 34.2 20h7.6c-.57-2.696-2.261-5.164-3.8-6.658ZM26.999 6a1 1 0 1 1 0 2h-2v10a1 1 0 1 1-2 0V8h-2a1 1 0 1 1 0-2h6Z" class="primary"/>
      <path fill="#FF462D" d="M23.365 17.228a1 1 0 0 1 1.268 0c1.965 1.612 4.402 4.801 5.143 8.448.375 1.845.319 3.834-.483 5.783-.803 1.951-2.323 3.787-4.744 5.377a1 1 0 0 1-1.098 0c-2.422-1.59-3.941-3.426-4.744-5.377-.803-1.95-.858-3.938-.484-5.783.74-3.646 3.177-6.835 5.142-8.448ZM20.087 29c.086.57.239 1.138.47 1.698.568 1.382 1.634 2.782 3.443 4.086 1.808-1.304 2.874-2.704 3.443-4.086a7.33 7.33 0 0 0 .47-1.698h-7.826Zm3.912-9.658c-1.553 1.508-3.263 4.008-3.816 6.732a9.326 9.326 0 0 0-.14.926h7.914a9.3 9.3 0 0 0-.141-.926c-.553-2.725-2.264-5.224-3.817-6.732Z" class="secondary"/>
    </g>
  </g>
</svg>
