<svg xmlns="http://www.w3.org/2000/svg" width="48" height="48" fill="none" viewBox="0 0 48 48">
  <g class="Size=S">
    <g class="Icon">
      <path fill="#3D3C3C" d="M19 4a3 3 0 0 1 3 3v34a3 3 0 0 1-3 3H7a3 3 0 0 1-3-3V7a3 3 0 0 1 3-3h12ZM7 6a1 1 0 0 0-1 1v34a1 1 0 0 0 1 1h12a1 1 0 0 0 1-1V7a1 1 0 0 0-1-1H7Zm34-2a3 3 0 0 1 3 3v12a3 3 0 0 1-3 3H29a3 3 0 0 1-3-3V7a3 3 0 0 1 3-3h12Zm-6 16h6a1 1 0 0 0 1-1V7a1 1 0 0 0-1-1h-6v14ZM29 6a1 1 0 0 0-1 1v12a1 1 0 0 0 1 1h4V6h-4Z" class="primary"/>
      <path fill="#FF462D" d="M41 26a3 3 0 0 1 3 3v12a3 3 0 0 1-3 3H29a3 3 0 0 1-3-3V29a3 3 0 0 1 3-3h12ZM28 38v3a1 1 0 0 0 1 1h12a1 1 0 0 0 1-1v-3H28Zm1-10a1 1 0 0 0-1 1v7h14v-7a1 1 0 0 0-1-1H29Z" class="secondary"/>
    </g>
  </g>
</svg>
