<svg xmlns="http://www.w3.org/2000/svg" width="48" height="48" fill="none" viewBox="0 0 48 48">
  <g class="Size=S">
    <g class="Icon">
      <path fill="#FF462D" d="M9.002 36.936a1 1 0 0 1 1.06-.937h-.002l.037.001c.038 0 .101 0 .186-.005.17-.008.425-.031.734-.092a5.855 5.855 0 0 0 2.274-.99c1.607-1.155 3.459-3.711 3.459-9.534 0-3.146.607-5.69 1.575-7.546.957-1.835 2.332-3.101 3.9-3.424 1.647-.338 3.193.423 4.247 1.984 1.03 1.525 1.633 3.841 1.633 6.887 0 3.36.411 5.801.996 7.412.61 1.683 1.298 2.187 1.643 2.264.216.048.748-.015 1.377-1.135.604-1.075 1.105-2.863 1.237-5.374.36-6.85 2.798-11.983 5.237-15.2l-2.495.25a1 1 0 1 1-.2-1.989l5-.503a1.005 1.005 0 0 1 .356.03l.043.012.042.015.06.023.029.014a.996.996 0 0 1 .148.088l.02.013a.986.986 0 0 1 .062.051c.003.003.008.005.01.008l.015.016.026.022.017.02.03.034a1.034 1.034 0 0 1 .142.219l.019.04a.89.89 0 0 1 .021.055l.015.042a.668.668 0 0 1 .017.064c.002.01.005.018.006.028.006.029.01.058.014.087l.002.01c.003.03.005.061.005.091L42 10v5a1 1 0 0 1-2 0v-2.294c-2.146 2.928-4.316 7.594-4.645 13.847-.14 2.686-.682 4.81-1.49 6.248-.782 1.393-2.028 2.448-3.556 2.107-1.4-.312-2.424-1.705-3.088-3.535-.69-1.903-1.116-4.594-1.116-8.093 0-2.825-.567-4.696-1.29-5.768-.7-1.037-1.494-1.286-2.186-1.144-.77.158-1.734.863-2.53 2.39-.786 1.507-1.349 3.718-1.349 6.621 0 6.275-2.023 9.528-4.291 11.158a7.856 7.856 0 0 1-3.054 1.327 7.094 7.094 0 0 1-1.022.13 5.172 5.172 0 0 1-.398.004l-.029-.002H9.94s0-.026.061-.999l.037-.608-.099 1.606a1 1 0 0 1-.936-1.06Z" class="secondary"/>
      <path fill="#3D3C3C" d="M4 6a1 1 0 0 1 2 0v34h36l.102.005a1 1 0 0 1 0 1.99L42 42H5a1 1 0 0 1-1-1V6Z" class="primary"/>
    </g>
  </g>
</svg>
