<svg xmlns="http://www.w3.org/2000/svg" width="48" height="48" fill="none" viewBox="0 0 48 48">
  <g class="Size=S">
    <g class="Icon">
      <path fill="#3D3C3C" d="M42 24c0-9.941-8.059-18-18-18S6 14.059 6 24s8.059 18 18 18 18-8.059 18-18Zm2 0c0 11.046-8.954 20-20 20S4 35.046 4 24 12.954 4 24 4s20 8.954 20 20Z" class="primary"/>
      <path fill="#FF462D" d="M24 4c11.046 0 20 8.954 20 20a1 1 0 0 1-1 1H25a2 2 0 0 1-2-2V5a1 1 0 0 1 1-1Zm1 19h16.972C41.47 13.855 34.145 6.528 25 6.027V23Z" class="secondary"/>
    </g>
  </g>
</svg>
