<svg xmlns="http://www.w3.org/2000/svg" width="48" height="49" fill="none" viewBox="0 0 48 49">
  <g class="chart-scatter">
    <g class="Icon">
      <path fill="#3D3C3C" d="M5.001 5.325a1 1 0 0 1 1 1v35h36a1 1 0 1 1 0 2h-37a1 1 0 0 1-1-1v-36a1 1 0 0 1 1-1Zm28 24a4 4 0 1 1 0 8 4 4 0 0 1 0-8Zm0 2a2 2 0 1 0 0 4 2 2 0 0 0 0-4Zm-6-13a4 4 0 1 1 0 8 4 4 0 0 1 0-8Zm0 2a2 2 0 1 0 0 4 2 2 0 0 0 0-4Zm-13-6a4 4 0 1 1 0 8 4 4 0 0 1 0-8Zm0 2a2 2 0 1 0 0 4 2 2 0 0 0 0-4Z" class="primary"/>
      <path fill="#FF462D" d="M14.001 30.325a4 4 0 1 1 0 8 4 4 0 0 1 0-8Zm0 2a2 2 0 1 0 0 4 2 2 0 0 0 0-4Zm24-24a4 4 0 1 1 0 8 4 4 0 0 1 0-8Zm0 2a2 2 0 1 0 0 4 2 2 0 0 0 0-4Z" class="secondary"/>
    </g>
  </g>
</svg>
