<svg xmlns="http://www.w3.org/2000/svg" width="48" height="48" fill="none" viewBox="0 0 48 48">
  <g fill-rule="evenodd" class="cloud-download" clip-rule="evenodd">
    <g fill="#FF462D" class="secondary">
      <path d="M24 22a1 1 0 0 1 1 1v18a1 1 0 1 1-2 0V23a1 1 0 0 1 1-1Z"/>
      <path d="M17.293 34.293a1 1 0 0 1 1.414 0L24 39.586l5.293-5.293a1 1 0 0 1 1.414 1.414l-6 6a1 1 0 0 1-1.414 0l-6-6a1 1 0 0 1 0-1.414Z"/>
    </g>
    <g fill="#3D3C3C" class="primary">
      <path d="M30.971 16.46c1.123-.843 2.604-1.46 4.571-1.46 2.27 0 4.389 1.164 5.916 2.863C42.989 19.566 44 21.885 44 24.345c0 2.835-.616 5.47-1.98 7.426-1.394 2-3.525 3.219-6.326 3.219a1 1 0 1 1 0-2c2.14 0 3.661-.894 4.685-2.363 1.054-1.512 1.621-3.7 1.621-6.282 0-1.917-.794-3.77-2.03-5.145-1.24-1.38-2.85-2.2-4.428-2.2-1.51 0-2.574.462-3.37 1.06a1 1 0 0 1-1.2-1.6Zm-17.72 1.84 1.027.196a1 1 0 1 1-.373 1.965l-1.054-.2a.99.99 0 0 1-.057-.013c-1.215-.304-2.076-.214-2.871.114C7.547 21.342 6 23.746 6 26.294 6 30.008 8.839 33 12.315 33a1 1 0 1 1 0 2C7.621 35 4 30.996 4 26.294c0-3.328 2.007-6.48 5.16-7.78m4.091-.213c-1.565-.387-2.862-.295-4.092.213l4.092-.213Z"/>
      <path d="M24.2 8C18.595 8 14 12.693 14 18.55V19a1 1 0 1 1-2 0v-.45C12 11.647 17.433 6 24.2 6c5.65 0 10.372 3.945 11.767 9.245a1 1 0 0 1-1.934.51C32.854 11.274 28.883 8 24.2 8Z"/>
    </g>
  </g>
</svg>
