<svg xmlns="http://www.w3.org/2000/svg" width="48" height="48" fill="none" viewBox="0 0 48 48">
  <g fill-rule="evenodd" class="cloud-services" clip-rule="evenodd">
    <path fill="#FF462D" d="M9 36.057a1 1 0 1 0 0 2h11a1 1 0 1 0 0-2H9Zm19 0a1 1 0 1 0 0 2h11a1 1 0 1 0 0-2H28Z" class="secondary"/>
    <path fill="#3D3C3C" d="M24.829 6C19.396 6 15 10.199 15 15.557v.5c0 .063-.006.125-.017.185a1 1 0 0 1-1.294 1.172l-.684-.23c-1.26-.284-2.343-.243-3.099.053C7.513 18.172 6 20.434 6 22.774a6.298 6.298 0 0 0 6.307 6.283h22.435c4.277 0 7.258-3.42 7.258-8.11 0-1.786-.78-3.519-2.012-4.811-1.233-1.295-2.851-2.079-4.457-2.079-1.47 0-3.113.72-3.952 1.315a1 1 0 0 1-1.158-1.63c.799-.568 2.122-1.217 3.561-1.517C32.591 8.552 29.022 6 24.83 6Zm11.22 6.076C34.522 7.326 30.058 4 24.828 4c-6.335 0-11.601 4.819-11.822 11.144-1.35-.245-2.698-.212-3.83.23C6.043 16.6 4 19.584 4 22.774c0 4.526 3.674 8.283 8.307 8.283H23v2.1c-2.28.465-4 2.484-4 4.9 0 2.758 2.242 5 5 5s5-2.242 5-5a5.006 5.006 0 0 0-4-4.9v-2.1h9.742c5.607 0 9.258-4.555 9.258-10.11 0-2.364-1.025-4.575-2.564-6.19-1.418-1.49-3.33-2.53-5.388-2.68ZM24 35.057c-1.654 0-3 1.346-3 3s1.346 3 3 3 3-1.346 3-3-1.346-3-3-3Z" class="primary"/>
  </g>
</svg>
