<svg xmlns="http://www.w3.org/2000/svg" width="48" height="48" fill="none" viewBox="0 0 48 48">
  <g fill-rule="evenodd" class="collab-drive" clip-rule="evenodd">
    <path fill="#5FBEAC" d="M17 10a1 1 0 0 1 1-1h11a1 1 0 1 1 0 2H18a1 1 0 0 1-1-1Zm0 4.5a1 1 0 0 1 1-1h11a1 1 0 1 1 0 2H18a1 1 0 0 1-1-1Zm0 4.5a1 1 0 0 1 1-1h11a1 1 0 1 1 0 2H18a1 1 0 0 1-1-1Z" class="secondary"/>
    <path fill="#29707A" d="M28.5 4H14.63l-.064.008c-.666.086-1.555.448-2.283 1.22C11.532 6.026 11 7.207 11 8.833v6.183H7.101c-.519 0-1.338.182-2.017.932C4.41 16.691 4 17.855 4 19.565v19.956c0 .666-.002 1.756.453 2.678.253.513.648.985 1.238 1.317.58.327 1.286.484 2.11.484h26.612c.503 0 1.002-.051 1.49-.228.5-.18.93-.472 1.326-.874.744-.755 1.421-1.968 2.283-3.717l.03-.06c1.73-3.507 3.49-7.077 4.205-8.892l.011-.027.01-.027c.204-.623.37-1.553.145-2.4a2.35 2.35 0 0 0-.797-1.26C42.67 26.16 42.113 26 41.5 26H29c-.618 0-1.145-.073-1.653-.274-.507-.2-1.054-.551-1.676-1.182a.735.735 0 0 1-.065-.077 6.688 6.688 0 0 0-.161-.201 3.491 3.491 0 0 0-.586-.572C24.31 23.276 23.562 23 22.5 23h-4c-1.301 0-2.458 1.002-3.224 2.943l-.001.002L8.875 42H7.8c-.576 0-.921-.11-1.128-.226a1.014 1.014 0 0 1-.426-.459C6.02 40.852 6 40.212 6 39.449V19.565c0-1.414.34-2.025.566-2.276.222-.244.453-.274.535-.274h3.9V28a1 1 0 1 0 2 0V8.832c0-1.16.366-1.838.737-2.231.367-.39.788-.555 1.032-.601H28.5c1.248 0 2.13.756 2.308 1.002l.005.008 2.561 3.401c.331.648.477 1.087.548 1.45.075.387.078.735.078 1.277V23a1 1 0 1 0 2 0v-9.896c0-.509 0-1.035-.115-1.627-.12-.615-.355-1.256-.774-2.061l-.038-.074L32.42 5.82C31.921 5.136 30.476 4 28.5 4ZM17.135 26.679C17.77 25.069 18.401 25 18.5 25h4c.689 0 .996.17 1.15.287a1.503 1.503 0 0 1 .287.295l.01.012c.072.091.2.253.3.355.779.79 1.552 1.316 2.365 1.637.812.32 1.606.414 2.388.414h12.5c.262 0 .351.064.371.08.025.02.072.07.109.208.083.312.034.8-.104 1.236-.689 1.736-2.405 5.218-4.158 8.773-.883 1.79-1.431 2.708-1.914 3.198-.218.22-.401.331-.581.397-.191.069-.437.108-.81.108H11.027l6.107-15.318.001-.003Z" class="primary"/>
  </g>
</svg>
