<svg xmlns="http://www.w3.org/2000/svg" width="48" height="48" fill="none" viewBox="0 0 48 48">
  <g class="Size=S">
    <g fill-rule="evenodd" class="Icon" clip-rule="evenodd">
      <path fill="#FF462D" d="M25 14.5a8.5 8.5 0 1 1 17 0 8.5 8.5 0 0 1-17 0ZM33.5 4C27.701 4 23 8.701 23 14.5S27.701 25 33.5 25 44 20.299 44 14.5 39.299 4 33.5 4Zm4.319 7.574a1 1 0 1 0-1.638-1.148l-4.084 5.828-1.277-1.83a1 1 0 1 0-1.64 1.143l2.094 3.005a1 1 0 0 0 1.64.002l4.905-7Z" class="secondary"/>
      <path fill="#3D3C3C" d="M20 4a1 1 0 0 1 1 1v4a1 1 0 1 1-2 0V5a1 1 0 0 1 1-1ZM9.293 9.293a1 1 0 0 1 1.414 0l3 3a1 1 0 0 1-1.414 1.414l-3-3a1 1 0 0 1 0-1.414Zm11.13 4.375a1 1 0 0 1-.61 1.275C16.514 16.105 14 19.131 14 22.8c0 2.128 1.449 4.347 3.005 6.02l-.732.681.732-.68v-.001c1.586 1.7 1.944 4.127 1.99 6.18h7.024c.179-2.328 1.56-4.677 2.994-6.228a8.214 8.214 0 0 0 1.112-1.547 1 1 0 0 1 1.75.97 10.217 10.217 0 0 1-1.385 1.925l-.006.007C29.126 31.595 28 33.711 28 35.5v5.445c0 .969-.544 1.756-1.245 2.264-.703.508-1.623.791-2.595.791h-3.32c-.972 0-1.892-.283-2.595-.791C17.544 42.7 17 41.914 17 40.945V35.5c0-2.104-.307-4.082-1.458-5.316v-.001C13.911 28.433 12 25.726 12 22.8c0-4.637 3.17-8.342 7.148-9.743a1 1 0 0 1 1.275.61ZM19 37v3.945c0 .167.091.407.418.643.325.236.824.412 1.422.412h3.32c.598 0 1.097-.176 1.422-.412.327-.236.418-.476.418-.643V37h-7ZM5 20a1 1 0 1 0 0 2h4a1 1 0 1 0 0-2H5Z" class="primary"/>
    </g>
  </g>
</svg>
