<svg xmlns="http://www.w3.org/2000/svg" width="48" height="48" fill="none" viewBox="0 0 48 48">
  <g class="core-enterprise-&amp;-zCloud">
    <path fill="#5FBEAC" fill-rule="evenodd" d="M11 16h2a3 3 0 0 0 3-3V7a3 3 0 0 0-3-3H7a3 3 0 0 0-3 3v6a3 3 0 0 0 3 3h2v16H7a3 3 0 0 0-3 3v6a3 3 0 0 0 3 3h6a3 3 0 0 0 3-3v-6a3 3 0 0 0-3-3h-2v-7h15a1 1 0 1 0 0-2H11v-7ZM6 7a1 1 0 0 1 1-1h6a1 1 0 0 1 1 1v6a1 1 0 0 1-1 1H7a1 1 0 0 1-1-1V7Zm1 27a1 1 0 0 0-1 1v6a1 1 0 0 0 1 1h6a1 1 0 0 0 1-1v-6a1 1 0 0 0-1-1H7Z" class="secondary" clip-rule="evenodd"/>
    <g fill="#29707A" class="primary">
      <path d="M31 12a1 1 0 0 1 1-1h5a1 1 0 1 1 0 2h-5a1 1 0 0 1-1-1Zm1 6a1 1 0 1 0 0 2h5a1 1 0 1 0 0-2h-5Z"/>
      <path fill-rule="evenodd" d="M25 6.9C25 5.277 26.339 4 27.943 4h13.114C42.661 4 44 5.277 44 6.9v34.2c0 1.622-1.339 2.9-2.943 2.9H27.943C26.339 44 25 42.722 25 41.1V6.9Zm2.943-.9C27.4 6 27 6.424 27 6.9v34.2c0 .476.401.9.943.9h13.114c.542 0 .943-.424.943-.9V6.9c0-.476-.401-.9-.943-.9H27.943Z" clip-rule="evenodd"/>
    </g>
  </g>
</svg>
