<svg xmlns="http://www.w3.org/2000/svg" width="48" height="48" fill="none" viewBox="0 0 48 48">
  <g fill-rule="evenodd" class="cost" clip-rule="evenodd">
    <path fill="#FF462D" d="M24 10a1 1 0 0 1 1 1v3.42a5.444 5.444 0 0 1 4.876 5.409 1 1 0 1 1-2 0 3.443 3.443 0 0 0-3.438-3.439A3.443 3.443 0 0 0 21 19.83a3.443 3.443 0 0 0 3.438 3.438c3 0 5.438 2.438 5.438 5.438 0 2.81-2.14 5.127-4.876 5.41v2.845a1 1 0 1 1-2 0v-3.01a5.446 5.446 0 0 1-4-5.245 1 1 0 1 1 2 0 3.443 3.443 0 0 0 3.438 3.438 3.443 3.443 0 0 0 3.438-3.438 3.443 3.443 0 0 0-3.438-3.438c-3 0-5.438-2.439-5.438-5.438a5.446 5.446 0 0 1 4-5.246V11a1 1 0 0 1 1-1Z" class="secondary"/>
    <path fill="#3D3C3C" d="M24 42c9.941 0 18-8.059 18-18S33.941 6 24 6 6 14.059 6 24s8.059 18 18 18Zm0 2c11.046 0 20-8.954 20-20S35.046 4 24 4 4 12.954 4 24s8.954 20 20 20Z" class="primary"/>
  </g>
</svg>
