<svg xmlns="http://www.w3.org/2000/svg" width="48" height="48" fill="none" viewBox="0 0 48 48">
  <g fill-rule="evenodd" class="cost-&amp;-asset-management" clip-rule="evenodd">
    <path fill="#29707A" d="M6 24c0-9.941 8.059-18 18-18 6.143 0 11.568 3.076 14.817 7.777l-2.717-.272a1 1 0 1 0-.2 1.99l5 .5a1 1 0 0 0 1.095-.895l.5-5a1 1 0 1 0-1.99-.2l-.245 2.452C36.632 7.296 30.7 4 24 4 12.954 4 4 12.954 4 24s8.954 20 20 20 20-8.954 20-20a1 1 0 1 0-2 0c0 9.941-8.059 18-18 18S6 33.941 6 24Z" class="primary"/>
    <path fill="#5FBEAC" d="M24 10a1 1 0 0 1 1 1v3.42a5.444 5.444 0 0 1 4.876 5.409 1 1 0 1 1-2 0 3.443 3.443 0 0 0-3.438-3.439A3.443 3.443 0 0 0 21 19.83a3.443 3.443 0 0 0 3.438 3.438c3 0 5.438 2.438 5.438 5.438 0 2.81-2.14 5.127-4.876 5.41v2.845a1 1 0 1 1-2 0v-3.01a5.446 5.446 0 0 1-4-5.245 1 1 0 1 1 2 0 3.443 3.443 0 0 0 3.438 3.438 3.443 3.443 0 0 0 3.438-3.438 3.443 3.443 0 0 0-3.438-3.438c-3 0-5.438-2.439-5.438-5.438a5.446 5.446 0 0 1 4-5.246V11a1 1 0 0 1 1-1Z" class="secondary"/>
  </g>
</svg>
