<svg xmlns="http://www.w3.org/2000/svg" width="48" height="48" fill="none" viewBox="0 0 48 48">
  <g fill-rule="evenodd" class="customer-engagement" clip-rule="evenodd">
    <path fill="#FF462D" d="M39 21a1 1 0 0 1-1-1v-8.798A1.2 1.2 0 0 0 36.801 10h-8.389l1.294 1.292a1 1 0 1 1-1.412 1.416l-3-2.995a1 1 0 0 1-.002-1.415l3-3.005a1 1 0 1 1 1.416 1.414L28.416 8h8.385A3.2 3.2 0 0 1 40 11.202V20a1 1 0 0 1-1 1ZM9 29a1 1 0 0 1 1 1v8.798A1.2 1.2 0 0 0 11.198 40h8.39l-1.294-1.292a1 1 0 1 1 1.412-1.416l3 2.995a1 1 0 0 1 .002 1.415l-3 3.005a1 1 0 1 1-1.416-1.413L19.584 42h-8.386A3.2 3.2 0 0 1 8 38.798V30a1 1 0 0 1 1-1Z" class="secondary"/>
    <path fill="#3D3C3C" d="M10 10a3 3 0 1 1 6 0 3 3 0 0 1-6 0Zm3-5a5 5 0 1 0 0 10 5 5 0 0 0 0-10ZM7.523 17C5.468 17 4 18.813 4 20.814l.029 4.35h1l-1 .008v-.003c.002.928.705 1.831 1.764 1.831h.004c2.69-.01 11.761-.041 14.432-.02h.007c1.061 0 1.735-.903 1.754-1.805a.996.996 0 0 0-.018-.21L22 20.822v-.007C22 18.825 20.535 17 18.477 17H7.523ZM20 20.811l-.028 4.167c-2.892-.017-11.093.01-13.944.021L6 20.811C6.001 19.701 6.776 19 7.523 19h10.954c.745 0 1.522.71 1.523 1.811ZM32 28a3 3 0 1 1 6 0 3 3 0 0 1-6 0Zm3-5a5 5 0 1 0 0 10 5 5 0 0 0 0-10Zm-5.478 12C27.467 35 26 36.813 26 38.814v.005l.02 3.792c0 1.237.935 2.389 2.265 2.389h.003l1.128-.004c3.432-.013 9.638-.035 12.282-.017h.007c1.276 0 2.16-1.05 2.257-2.2.012-.06.018-.122.019-.186L44 38.82v-.006C44 36.826 42.536 35 40.478 35H29.522Zm-1.503 7.608L28 38.812c.001-1.11.776-1.812 1.522-1.812h10.956c.744 0 1.52.71 1.522 1.812v.002l-.019 3.63a.927.927 0 0 0-.01.131.493.493 0 0 1-.116.326c-.057.063-.11.078-.148.078-2.657-.018-8.867.005-12.294.017h-.005L28.284 43c-.04 0-.096-.017-.154-.08a.46.46 0 0 1-.11-.312Zm13.688.371h.005l-.007 1v-1h.002Z" class="primary"/>
  </g>
</svg>
