<svg xmlns="http://www.w3.org/2000/svg" width="48" height="48" fill="none" viewBox="0 0 48 48">
  <g class="devops-intelligence">
    <path fill="#FF462D" fill-rule="evenodd" d="M13 24.5c0-2.956 2.203-5.5 5.114-5.5 2.195 0 3.916 1.385 5.006 2.575a13.23 13.23 0 0 1 1.755 2.44l.007.014.003.005v.001s.001.002-.885.465l-.886.464-.002-.005-.016-.028a10.195 10.195 0 0 0-.356-.587c-.255-.39-.627-.907-1.095-1.419-.97-1.06-2.192-1.925-3.53-1.925C16.472 21 15 22.476 15 24.5s1.473 3.5 3.114 3.5c.865 0 1.678-.36 2.43-.921a1 1 0 1 1 1.197 1.602C20.78 29.4 19.554 30 18.114 30 15.204 30 13 27.456 13 24.5Zm10.114.464L24 24.5c.886-.463.886-.465.886-.465l.002.006.016.028c.015.027.038.069.07.123a11.231 11.231 0 0 0 1.382 1.882c.97 1.06 2.19 1.926 3.53 1.926C31.519 28 33 26.522 33 24.5c0-2.022-1.48-3.5-3.114-3.5-.765 0-1.682.536-2.305 1.19a1 1 0 0 1-1.448-1.38c.806-.846 2.212-1.81 3.753-1.81 2.9 0 5.114 2.542 5.114 5.5S32.786 30 29.886 30c-2.195 0-3.916-1.385-5.006-2.575a13.23 13.23 0 0 1-1.755-2.44l-.007-.014-.003-.005-.001-.002Z" class="secondary" clip-rule="evenodd"/>
    <path fill="#3D3C3C" d="M30.413 43.981a2.216 2.216 0 0 1-1.963-1.18l-1.687-3.066c-.076-.133-.2-.21-.305-.19-1.6.276-3.306.276-4.897 0-.115-.01-.238.057-.315.19l-1.686 3.066c-.305.552-.8.942-1.391 1.104a2.219 2.219 0 0 1-1.716-.248l-4.935-2.989c-1.048-.638-1.42-2.047-.82-3.142l1.687-3.075c.086-.161.076-.361-.02-.485a16 16 0 0 1-2.438-4.446.336.336 0 0 0-.305-.228H6.258C5.02 29.292 4 28.254 4 26.969V20.99c0-1.275 1.01-2.322 2.258-2.322h3.364a.323.323 0 0 0 .305-.229 16.247 16.247 0 0 1 2.439-4.446c.095-.124.105-.324.019-.485l-1.687-3.075c-.6-1.095-.228-2.504.82-3.142l4.926-2.97a2.213 2.213 0 0 1 1.715-.248 2.27 2.27 0 0 1 1.391 1.105l1.687 3.065c.076.133.2.21.314.19a14.584 14.584 0 0 1 4.898 0c.114.02.238-.057.305-.19l1.686-3.065c.305-.552.8-.943 1.391-1.105a2.218 2.218 0 0 1 1.715.248l4.936 2.99c1.048.637 1.42 2.046.82 3.14l-1.687 3.076c-.086.162-.076.362.02.485a16 16 0 0 1 2.438 4.446.336.336 0 0 0 .305.229h3.364c1.239 0 2.258 1.037 2.258 2.322v5.979c0 1.276-1.01 2.323-2.258 2.323h-3.364a.323.323 0 0 0-.305.228 16.246 16.246 0 0 1-2.439 4.446c-.095.124-.105.324-.019.486l1.687 3.075c.6 1.094.228 2.503-.82 3.141l-4.936 2.99a2.236 2.236 0 0 1-1.143.323l.01-.019Zm-3.926-6.34c.79 0 1.544.447 1.944 1.18l1.686 3.066a.345.345 0 0 0 .22.18.3.3 0 0 0 .228-.038l4.936-2.989c.19-.114.248-.39.133-.6l-1.686-3.075a2.337 2.337 0 0 1 .19-2.57 14.378 14.378 0 0 0 2.154-3.922 2.248 2.248 0 0 1 2.096-1.485h3.363c.19 0 .353-.19.353-.42V20.99c0-.228-.153-.418-.353-.418h-3.363c-.934 0-1.782-.6-2.096-1.486a14.184 14.184 0 0 0-2.154-3.912 2.337 2.337 0 0 1-.19-2.57l1.686-3.076c.114-.21.048-.485-.133-.6L30.565 5.94a.306.306 0 0 0-.229-.038.399.399 0 0 0-.219.181l-1.686 3.066c-.467.847-1.392 1.304-2.306 1.152a12.792 12.792 0 0 0-4.26 0c-.914.152-1.838-.305-2.305-1.152l-1.687-3.066a.345.345 0 0 0-.219-.18.3.3 0 0 0-.229.037L12.49 8.93c-.19.114-.248.39-.134.6l1.687 3.074a2.337 2.337 0 0 1-.19 2.57 14.239 14.239 0 0 0-2.154 3.923 2.248 2.248 0 0 1-2.096 1.485H6.239c-.19 0-.352.19-.352.419v5.978c0 .229.152.42.352.42h3.364a2.24 2.24 0 0 1 2.096 1.484 13.834 13.834 0 0 0 2.153 3.913c.572.733.648 1.742.19 2.57l-1.686 3.075c-.114.21-.047.486.134.6l4.935 2.99a.306.306 0 0 0 .23.038.367.367 0 0 0 .218-.181l1.687-3.066c.467-.847 1.39-1.304 2.306-1.152 1.381.238 2.868.238 4.259 0 .114-.019.238-.028.352-.028h.01Z" class="primary"/>
  </g>
</svg>
