<svg xmlns="http://www.w3.org/2000/svg" width="48" height="48" fill="none" viewBox="0 0 48 48">
  <g fill-rule="evenodd" class="digital-workplace" clip-rule="evenodd">
    <path fill="#5FBEAC" d="M23.5 11a3.5 3.5 0 0 0-3.476 3.914l-4.301 2.867-.01.007a3.5 3.5 0 1 0 1.124 1.654l4.002-2.668A3.492 3.492 0 0 0 23.5 18a3.496 3.496 0 0 0 2.887-1.52l4.724 2.142a3.5 3.5 0 1 0 1.046-1.722L27 14.562V14.5a3.5 3.5 0 0 0-3.5-3.5ZM22 14.5a1.5 1.5 0 1 1 3 0 1.5 1.5 0 0 1-3 0ZM34.5 18a1.5 1.5 0 1 0 0 3 1.5 1.5 0 0 0 0-3Zm-21 1a1.5 1.5 0 1 0 0 3 1.5 1.5 0 0 0 0-3Z" class="secondary"/>
    <path fill="#29707A" d="M4 10.713C4 8.1 6.138 6 8.752 6h30.496C41.861 6 44 8.1 44 10.713v20.574C44 33.9 41.862 36 39.248 36H25v6h7a1 1 0 1 1 0 2H15a1 1 0 1 1 0-2h8v-6H8.752C6.138 36 4 33.9 4 31.287V10.713Zm2 0C6 9.225 7.222 8 8.752 8h30.496C40.778 8 42 9.225 42 10.713V28H6V10.713ZM6 30h36v1.287C42 32.776 40.778 34 39.248 34H8.753C7.222 34 6 32.776 6 31.287V30Z" class="primary"/>
  </g>
</svg>
