<svg xmlns="http://www.w3.org/2000/svg" width="48" height="48" fill="none" viewBox="0 0 48 48">
  <g fill-rule="evenodd" class="discount" clip-rule="evenodd">
    <path fill="#3D3C3C" d="M24 42c9.941 0 18-8.059 18-18S33.941 6 24 6 6 14.059 6 24s8.059 18 18 18Zm0 2c11.046 0 20-8.954 20-20S35.046 4 24 4 4 12.954 4 24s8.954 20 20 20Z" class="primary"/>
    <path fill="#FF462D" d="M17.5 15a2.5 2.5 0 1 0 0 5 2.5 2.5 0 0 0 0-5ZM13 17.5a4.5 4.5 0 1 1 9 0 4.5 4.5 0 0 1-9 0ZM30.5 28a2.5 2.5 0 1 0 0 5 2.5 2.5 0 0 0 0-5ZM26 30.5a4.5 4.5 0 1 1 9 0 4.5 4.5 0 0 1-9 0Zm7.707-14.793a1 1 0 0 0-1.414-1.414l-18 18a1 1 0 0 0 1.414 1.414l18-18Z" class="secondary"/>
  </g>
</svg>
