<svg xmlns="http://www.w3.org/2000/svg" width="48" height="48" fill="none" viewBox="0 0 48 48">
  <g class="Size=S">
    <g class="Icon">
      <path fill="#3D3C3C" d="M8 37.542a1 1 0 0 1 .995.898l.005.102v.81l.004.112c.042.564.399 1.169 1.042 1.68.683.544 1.541.856 2.24.856H14a1 1 0 1 1 0 2h-1.714c-1.218 0-2.504-.51-3.484-1.29-.916-.729-1.698-1.804-1.792-3.097L7 39.352v-.81a1 1 0 0 1 1-1ZM31 19a2 2 0 0 1 2 2v10.69l8.474-2.31A2 2 0 0 1 44 31.31V42a2 2 0 0 1-2 2H20a2 2 0 0 1-2-2V21a2 2 0 0 1 2-2h11ZM20 37v5h11v-5H20Zm13-3.236V42h9V31.31l-9 2.454ZM8 28a1 1 0 0 1 1 1v5h2a1 1 0 1 1 0 2H5a1 1 0 1 1 0-2h2v-5a1 1 0 0 1 1-1Zm12 7h11v-6H20v6Zm0-8h11v-6H20v6ZM8 16a1 1 0 0 1 1 1v5h2a1 1 0 1 1 0 2H5a1 1 0 1 1 0-2h2v-5a1 1 0 0 1 1-1ZM34.51 4C37.023 4 39 6.134 39 8.648v12.43a1 1 0 0 1-2 0V8.647C37 7.154 35.834 6 34.51 6H11.49C10.165 6 9 7.154 9 8.648V12h2l.102.005a1 1 0 0 1 0 1.99L11 14H5a1 1 0 1 1 0-2h2V8.648C7 6.134 8.978 4 11.49 4h23.02Z" class="primary"/>
      <path fill="#FF462D" d="M40 38a1 1 0 1 1 0 2h-2a1 1 0 1 1 0-2h2Zm0-4a1 1 0 1 1 0 2h-2a1 1 0 1 1 0-2h2Zm-16-3a1 1 0 1 1 0 2h-2a1 1 0 1 1 0-2h2Zm5 0a1 1 0 1 1 0 2h-2a1 1 0 1 1 0-2h2Zm-5-8a1 1 0 1 1 0 2h-2a1 1 0 1 1 0-2h2Zm5 0a1 1 0 1 1 0 2h-2a1 1 0 1 1 0-2h2Z" class="secondary"/>
    </g>
  </g>
</svg>
