<svg xmlns="http://www.w3.org/2000/svg" width="48" height="48" fill="none" viewBox="0 0 48 48">
  <g fill-rule="evenodd" class="enterprise-marketplace" clip-rule="evenodd">
    <g fill="#3D3C3C" class="primary">
      <path d="M14 7a3 3 0 0 1 3-3h21a3 3 0 0 1 3 3v36a1 1 0 1 1-2 0V7a1 1 0 0 0-1-1H17a1 1 0 0 0-1 1v13.113a1 1 0 1 1-2 0V7Z"/>
      <path d="M7 22.231a3 3 0 0 1 3.327-2.982l12 1.315A3 3 0 0 1 25 23.546V43a1 1 0 1 1-2 0V23.546a1 1 0 0 0-.891-.994l-12-1.315A1 1 0 0 0 9 22.231V43a1 1 0 1 1-2 0V22.231Z"/>
      <path d="M7 43a1 1 0 0 1 1-1h32a1 1 0 1 1 0 2H8a1 1 0 0 1-1-1Z"/>
    </g>
    <path fill="#FF462D" d="M20 11a1 1 0 0 1 1-1h4a1 1 0 1 1 0 2h-4a1 1 0 0 1-1-1Zm9 0a1 1 0 0 1 1-1h4a1 1 0 1 1 0 2h-4a1 1 0 0 1-1-1Zm0 6a1 1 0 0 1 1-1h4a1 1 0 1 1 0 2h-4a1 1 0 0 1-1-1Zm1 5a1 1 0 1 0 0 2h4a1 1 0 1 0 0-2h-4Zm-1 6a1 1 0 0 1 1-1h4a1 1 0 1 1 0 2h-4a1 1 0 0 1-1-1Zm1 5a1 1 0 1 0 0 2h4a1 1 0 1 0 0-2h-4Zm-18-7a1 1 0 1 0 0 2h2a1 1 0 1 0 0-2h-2Zm-1 7a1 1 0 0 1 1-1h2a1 1 0 1 1 0 2h-2a1 1 0 0 1-1-1Zm7-7a1 1 0 1 0 0 2h2a1 1 0 1 0 0-2h-2Zm-1 7a1 1 0 0 1 1-1h2a1 1 0 1 1 0 2h-2a1 1 0 0 1-1-1Zm4-17a1 1 0 1 0 0 2h4a1 1 0 1 0 0-2h-4Z" class="secondary"/>
  </g>
</svg>
