<svg xmlns="http://www.w3.org/2000/svg" width="48" height="48" fill="none" viewBox="0 0 48 48">
  <g class="error">
    <g class="Icon">
      <path fill="#3D3C3C" d="M42 24c0-9.941-8.059-18-18-18S6 14.059 6 24s8.059 18 18 18 18-8.059 18-18Zm2 0c0 11.046-8.954 20-20 20S4 35.046 4 24 12.954 4 24 4s20 8.954 20 20Z" class="primary"/>
      <path fill="#FF462D" d="M24 30a2 2 0 1 1 0 4 2 2 0 0 1 0-4Zm0-17.5a1.5 1.5 0 0 1 1.5 1.5v12a1.5 1.5 0 0 1-3 0V14a1.5 1.5 0 0 1 1.5-1.5Z" class="secondary"/>
    </g>
  </g>
</svg>
