<svg xmlns="http://www.w3.org/2000/svg" width="48" height="48" fill="none" viewBox="0 0 48 48">
  <g fill-rule="evenodd" class="explore" clip-rule="evenodd">
    <path fill="#3D3C3C" d="M24 5.995C14.056 5.995 5.995 14.056 5.995 24c0 9.944 8.061 18.005 18.005 18.005 9.944 0 18.005-8.061 18.005-18.005 0-9.944-8.061-18.005-18.005-18.005ZM4 24C4 12.954 12.954 4 24 4s20 8.954 20 20-8.954 20-20 20S4 35.046 4 24Z" class="primary"/>
    <path fill="#FF462D" d="M33.917 15.443c.165-.389.079-.84-.218-1.14a1.02 1.02 0 0 0-1.13-.22l-12.446 5.375a1.036 1.036 0 0 0-.547.561l-5.322 12.538c-.165.389-.079.84.218 1.14.297.299.744.386 1.13.22l12.447-5.375c.25-.109.445-.312.547-.561l5.321-12.538Zm-13.044 6.781 4.973 5.016-8.695 3.755 3.723-8.77Zm6.425 3.552 3.723-8.77-8.696 3.754 4.973 5.015Z" class="secondary"/>
  </g>
</svg>
