<svg xmlns="http://www.w3.org/2000/svg" width="48" height="48" fill="none" viewBox="0 0 48 48">
  <g fill-rule="evenodd" class="finance" clip-rule="evenodd">
    <path fill="#FF462D" d="M9 22a1 1 0 0 1 1 1v20a1 1 0 1 1-2 0V23a1 1 0 0 1 1-1Zm15 0a1 1 0 0 1 1 1v20a1 1 0 1 1-2 0V23a1 1 0 0 1 1-1Zm16 1a1 1 0 1 0-2 0v20a1 1 0 1 0 2 0V23Z" class="secondary"/>
    <path fill="#3D3C3C" d="m26.59 4.89-.002-.002c-1.495-1.184-3.7-1.184-5.194.001a1.01 1.01 0 0 0-.079.07L5.41 17.485l-.003.002c-1.405 1.113-1.704 2.779-1.132 4.151C4.84 22.993 6.22 24 7.994 24h32.005c1.778 0 3.161-1.006 3.727-2.362.573-1.374.269-3.04-1.142-4.153L26.59 4.89Zm-3.946 1.568a.998.998 0 0 0 .068-.058c.766-.551 1.892-.533 2.634.056l.003.002 15.998 12.599c.68.535.774 1.234.533 1.811C41.631 21.465 40.986 22 40 22H7.993c-.98 0-1.624-.533-1.874-1.132-.242-.58-.147-1.278.527-1.812l.001-.001L22.644 6.458ZM5 42a1 1 0 1 0 0 2h38a1 1 0 1 0 0-2H5Z" class="primary"/>
  </g>
</svg>
