<svg xmlns="http://www.w3.org/2000/svg" width="48" height="48" fill="none" viewBox="0 0 48 48">
  <g fill-rule="evenodd" class="go-to-market" clip-rule="evenodd">
    <path fill="#3D3C3C" d="M23.834 4h.002c4.634 0 10.37 1.894 13.775 4.523a1 1 0 1 1-1.222 1.583C33.359 7.766 28.059 6 23.836 6 13.974 6.01 6 13.787 6 23.293c0 1.577.128 3.067.453 4.483a1 1 0 0 1-1.95.448C4.137 26.623 4 24.975 4 23.294 4 12.625 12.927 4.01 23.834 4Zm18.488 15.024a1 1 0 0 1 1.195.756c.38 1.682.483 3.426.483 5.18C44 35.52 34.902 44 23.839 44c-4.69 0-9.903-1.074-13.448-3.799a1 1 0 1 1 1.218-1.586C14.662 40.961 19.365 42 23.84 42 33.912 42 42 34.303 42 24.96c0-1.686-.1-3.263-.434-4.74a1 1 0 0 1 .756-1.195ZM12.042 23c.409-4.938 3.824-9.04 8.405-10.463-.341.57-.646 1.215-.915 1.912-.872 2.267-1.424 5.262-1.518 8.551h-5.973Zm0 2c.41 4.936 3.828 9.036 8.404 10.461a12.385 12.385 0 0 1-.914-1.91c-.872-2.267-1.424-5.262-1.518-8.551h-5.973Zm7.973 0c.093 3.091.615 5.834 1.384 7.832.427 1.11.91 1.939 1.396 2.474.486.534.894.694 1.205.694.31 0 .72-.16 1.205-.694.486-.535.97-1.364 1.396-2.474.769-1.998 1.29-4.741 1.384-7.832h-7.97Zm9.97 0c-.093 3.289-.645 6.284-1.517 8.55a12.381 12.381 0 0 1-.915 1.913c4.58-1.424 7.996-5.525 8.406-10.463h-5.973Zm5.974-2h-5.973c-.094-3.289-.646-6.284-1.518-8.55a12.381 12.381 0 0 0-.915-1.913c4.58 1.424 7.996 5.525 8.406 10.463ZM38 24c0-7.72-6.28-14-14-14s-14 6.28-14 14 6.291 14 14 14c7.72 0 14-6.28 14-14Zm-10.015-1h-7.97c.093-3.091.615-5.834 1.384-7.832.427-1.11.91-1.939 1.396-2.473C23.281 12.16 23.69 12 24 12c.31 0 .72.16 1.205.694.486.535.97 1.364 1.396 2.474.769 1.998 1.29 4.741 1.384 7.832Z" class="primary"/>
    <path fill="#FF462D" d="M38.583 9.583a2.015 2.015 0 0 1 2.834 0 2.015 2.015 0 0 1 0 2.834 2.015 2.015 0 0 1-2.834 0 2.015 2.015 0 0 1 0-2.834Zm4.249-1.415a4.015 4.015 0 0 0-5.664 0 4.015 4.015 0 0 0 0 5.664 4.015 4.015 0 0 0 5.664 0 4.015 4.015 0 0 0 0-5.664ZM6.582 35.583a2.015 2.015 0 0 1 2.835 0 2.015 2.015 0 0 1 0 2.834 2.015 2.015 0 0 1-2.834 0 2.015 2.015 0 0 1 0-2.834Zm4.25-1.415a4.015 4.015 0 0 0-5.664 0 4.015 4.015 0 0 0 0 5.664 4.015 4.015 0 0 0 5.664 0 4.015 4.015 0 0 0 0-5.664Z" class="secondary"/>
  </g>
</svg>
