<svg xmlns="http://www.w3.org/2000/svg" width="48" height="48" fill="none" viewBox="0 0 48 48">
  <g fill-rule="evenodd" class="group" clip-rule="evenodd">
    <path fill="#3D3C3C" d="M9 12a4 4 0 1 1 8 0 4 4 0 0 1-8 0Zm4-6a6 6 0 1 0 0 12 6 6 0 0 0 0-12Zm22 2a4 4 0 1 0 0 8 4 4 0 0 0 0-8Zm-6 4a6 6 0 1 1 12 0 6 6 0 0 1-12 0Zm-5 8a4 4 0 1 0 0 8 4 4 0 0 0 0-8Zm-6 4a6 6 0 1 1 12 0 6 6 0 0 1-12 0Zm14-3a1 1 0 0 1 1-1h6.585c2.497 0 4.429 2.108 4.415 4.605l-.03 4.147A1.001 1.001 0 0 1 43 30H33a1 1 0 1 1 0-2h8.975L42 24.595v-.002C42.008 23.114 40.884 22 39.585 22H33a1 1 0 0 1-1-1Zm-17-1a1 1 0 1 1 0 2H8.415c-1.3 0-2.423 1.114-2.415 2.593v.002L6.025 28H15a1 1 0 1 1 0 2H5a1 1 0 0 1-.97-1.248L4 24.606C3.986 22.107 5.918 20 8.415 20H15Z" class="primary"/>
    <path fill="#FF462D" d="M16 36.594 16.027 40h15.946L32 36.594v-.001c.008-1.42-1.154-2.593-2.633-2.593H18.633c-1.478 0-2.64 1.174-2.632 2.594Zm17.967 4.15L34 36.607C34.015 34.049 31.927 32 29.367 32H18.633c-2.56 0-4.647 2.049-4.632 4.606v.002l.035 4.4a1 1 0 0 0 1 .992H33a1 1 0 0 0 .967-1.255Z" class="secondary"/>
  </g>
</svg>
