<svg xmlns="http://www.w3.org/2000/svg" width="48" height="48" fill="none" viewBox="0 0 48 48">
  <g fill-rule="evenodd" class="growth-crop" clip-rule="evenodd">
    <path fill="#29707A" d="M39.796 6.048c-8.088.566-12.641 4.15-15.118 8.329-1.985 3.35-2.672 7.147-2.678 10.217v.086c0 .454.017.891.045 1.308 8.285-.216 12.878-3.4 15.338-7.268 2.58-4.056 2.93-9.048 2.413-12.672ZM20 27.986h-.04c-3.568-.105-6.285-.757-8.336-1.865-2.071-1.119-3.41-2.674-4.252-4.474-.832-1.777-1.166-3.763-1.296-5.742-.105-1.595-.079-3.246-.054-4.82.006-.37.012-.737.016-1.097.01-1.02.804-1.91 1.87-1.963 3.235-.164 5.792.493 7.789 1.732 1.993 1.237 3.35 3.005 4.272 4.938.456.956.81 1.96 1.084 2.975a20.357 20.357 0 0 1 1.905-4.313c2.829-4.773 7.996-8.706 16.738-9.307.987-.068 1.92.618 2.07 1.652.574 3.928.236 9.482-2.695 14.092C36.186 24.329 30.9 27.78 22 27.99V39a1 1 0 1 1-2 0V27.986Zm-5.358-16.53c-1.587-.985-3.716-1.576-6.605-1.435-.004.378-.01.755-.016 1.131-.024 1.568-.048 3.116.05 4.622.123 1.864.43 3.568 1.112 5.025.671 1.435 1.72 2.66 3.391 3.562 1.688.912 4.064 1.523 7.423 1.624-.022-2.87-.223-7.054-1.833-10.429-.798-1.671-1.926-3.109-3.522-4.1Z" class="primary"/>
    <path fill="#5FBEAC" d="M20.5 41c-2.522 0-5.114.904-9.05 2.892a1 1 0 1 1-.901-1.785C14.531 40.096 17.48 39 20.5 39c3.02 0 5.969 1.096 9.95 3.108a1 1 0 1 1-.901 1.785C25.614 41.904 23.022 41 20.5 41Z" class="secondary"/>
  </g>
</svg>
