<svg xmlns="http://www.w3.org/2000/svg" width="48" height="48" fill="none" viewBox="0 0 48 48">
  <g fill-rule="evenodd" class="health" clip-rule="evenodd">
    <path fill="#FF462D" d="M21.778 16a1 1 0 0 1 .905.649L26.192 26H39a1 1 0 1 1 0 2H25.499a1 1 0 0 1-.936-.649l-2.9-7.727-3.502 7.786a1 1 0 0 1-.912.59H9a1 1 0 1 1 0-2h7.603l4.231-9.41a1 1 0 0 1 .944-.59Z" class="secondary"/>
    <path fill="#3D3C3C" d="M20.254 9.884c-1.74-1.228-3.997-2.206-6.49-1.784h-.001c-1.915.32-3.479 1.435-4.692 2.775a13.773 13.773 0 0 0-2.413 3.8c-1.408 3.43-.55 7.445 2.564 12.133 3.016 4.54 8.039 9.533 14.681 14.908 6.647-5.386 11.72-10.42 14.786-14.998 3.168-4.73 4.07-8.776 2.671-12.193-.394-.944-1.196-2.378-2.405-3.652-1.207-1.272-2.773-2.336-4.701-2.66-2.491-.418-4.75.538-6.493 1.738-1.738 1.196-2.843 2.556-2.96 2.708a1 1 0 0 1-1.585 0c-.126-.163-1.228-1.552-2.962-2.775Zm3.762.646a17.221 17.221 0 0 0-2.61-2.28c-1.957-1.38-4.75-2.667-7.974-2.122-2.502.418-4.443 1.857-5.844 3.404a15.767 15.767 0 0 0-2.78 4.382c-1.774 4.321-.529 9.068 2.748 14 3.28 4.94 8.713 10.255 15.723 15.867a1 1 0 0 0 1.25 0c7.01-5.622 12.491-10.977 15.822-15.95 3.323-4.962 4.63-9.744 2.858-14.067l-.002-.005c-.471-1.131-1.397-2.784-2.801-4.263-1.408-1.483-3.343-2.84-5.821-3.255m-10.569 4.29a17.146 17.146 0 0 1 2.611-2.228c1.96-1.35 4.75-2.6 7.957-2.062" class="primary"/>
  </g>
</svg>
