<svg xmlns="http://www.w3.org/2000/svg" width="48" height="48" fill="none" viewBox="0 0 48 48">
  <g fill-rule="evenodd" class="ID" clip-rule="evenodd">
    <path fill="#5FBEAC" d="M17 31a1 1 0 1 0 0 2h14a1 1 0 1 0 0-2H17Zm0 4a1 1 0 1 0 0 2h14a1 1 0 1 0 0-2H17Z" class="secondary"/>
    <path fill="#29707A" d="M10 8.933C10 7.361 11.357 6 13.14 6h21.72C36.643 6 38 7.36 38 8.933v30.134C38 40.639 36.643 42 34.86 42H13.14C11.357 42 10 40.64 10 39.067V8.933ZM13.14 4C10.35 4 8 6.16 8 8.933v30.134C8 41.839 10.35 44 13.14 44h21.72c2.79 0 5.14-2.16 5.14-4.933V8.933C40 6.161 37.65 4 34.86 4H13.14ZM24 10a3 3 0 1 0 0 6 3 3 0 0 0 0-6Zm-5 3a5 5 0 1 1 10 0 5 5 0 0 1-10 0Zm-1.668 6.972A4.438 4.438 0 0 1 20.076 19h8.115c1.916 0 3.821 1.307 3.81 3.503V26a1 1 0 0 1-1 1H17a1 1 0 0 1-1-1v-3.366c-.013-1.125.572-2.05 1.33-2.662Zm1.256 1.556c-.402.324-.593.711-.588 1.088V25h12v-2.506c.005-.792-.68-1.494-1.81-1.494h-8.114c-.529 0-1.082.2-1.488.528Z" class="primary"/>
  </g>
</svg>
