<svg xmlns="http://www.w3.org/2000/svg" width="48" height="48" fill="none" viewBox="0 0 48 48">
  <g class="Size=S">
    <g class="Icon">
      <path fill="#3D3C3C" d="M28.635 5.202c.616-1.126 2.036-1.553 3.162-.88v-.003l4.706 2.74.086.055a1 1 0 0 1-1.001 1.72l-.09-.047-4.707-2.74-.008-.004-.009-.005c-.116-.07-.293-.046-.386.126L28.684 9.23v.001c-.449.81-1.36 1.337-2.352 1.165a13.136 13.136 0 0 0-3.757-.075l-.526.077h-.003c-.912.147-1.775-.28-2.258-1.016l-.09-.15-1.7-3.06c-.098-.176-.273-.202-.397-.13l-4.97 2.98a.399.399 0 0 0-.156.446l.029.068.005.008 1.698 3.066.08.158a2.404 2.404 0 0 1-.268 2.467l-.003.006-.005.006a13.894 13.894 0 0 0-2.157 3.89l-.002.003a2.295 2.295 0 0 1-2.148 1.51H6.315c-.136 0-.315.128-.315.368v5.964c0 .24.179.369.315.369h3.39c.945 0 1.818.584 2.147 1.512a14.143 14.143 0 0 0 2.162 3.894l.105.145a2.41 2.41 0 0 1 .088 2.486h.001l-1.7 3.068v.002a.4.4 0 0 0 .065.477l.051.039.004.002 4.973 2.982.005.004.046.022c.114.041.26.002.341-.148l1.704-3.067.09-.149c.474-.724 1.332-1.178 2.26-1.017a13.146 13.146 0 0 0 4.285 0h.003l.183-.023c.85-.067 1.627.366 2.072 1.035l.09.147.004.007 1.698 3.057c.1.178.277.204.402.13l.007-.004 4.706-2.74a1 1 0 1 1 1.006 1.73l-4.705 2.739-.001-.002c-1.122.66-2.533.25-3.162-.88l-1.696-3.052-.033-.05c-.08-.106-.185-.13-.25-.12a15.137 15.137 0 0 1-4.932 0l-.007-.002-.008-.002c-.058-.01-.178.011-.264.166l-1.699 3.059c-.619 1.13-2.046 1.557-3.174.875L11.6 40.69c-1.102-.656-1.459-2.094-.84-3.206l1.698-3.065.026-.059a.4.4 0 0 0-.043-.368 16.144 16.144 0 0 1-2.467-4.446l-.004-.012a.277.277 0 0 0-.266-.184H6.315C4.993 29.35 4 28.244 4 26.982v-5.964c0-1.28 1.012-2.369 2.315-2.369h3.39c.107 0 .222-.07.27-.199a15.894 15.894 0 0 1 2.46-4.436.405.405 0 0 0 .023-.433l-1.7-3.068a2.396 2.396 0 0 1 .836-3.2l.006-.004 4.972-2.983.004-.002.214-.112a2.28 2.28 0 0 1 2.83.785l.126.204 1.7 3.059.03.049c.076.1.175.126.248.115a15.14 15.14 0 0 1 4.329-.087l.611.088.008.002h.054c.062-.01.145-.05.21-.166l1.699-3.059Zm4.217 21.803a1 1 0 0 1 .898.995v5H37l.102.005a1 1 0 0 1 0 1.99L37 35h-4.25a1 1 0 0 1-1-1v-5H20a1 1 0 0 1 0-2h12.75l.102.005ZM37 23a1 1 0 1 1 0 2H25a1 1 0 0 1 0-2h12Zm-.898-9.995a1 1 0 0 1 0 1.99L36 15h-1.91v5a1 1 0 0 1-1 1H20a1 1 0 0 1 0-2h12.09v-5l.006-.102A1 1 0 0 1 33.09 13H36l.102.005Z" class="primary"/>
      <path fill="#FF462D" d="M40 30a4 4 0 1 1 0 8 4 4 0 0 1 0-8Zm0 2a2 2 0 1 0 0 4 2 2 0 0 0 0-4Zm0-12a4 4 0 1 1 0 8 4 4 0 0 1 0-8Zm0 2a2 2 0 1 0 0 4 2 2 0 0 0 0-4Zm0-12a4 4 0 1 1 0 8 4 4 0 0 1 0-8Zm0 2a2 2 0 1 0 0 4 2 2 0 0 0 0-4Z" class="secondary"/>
    </g>
  </g>
</svg>
