<svg xmlns="http://www.w3.org/2000/svg" width="48" height="48" fill="none" viewBox="0 0 48 48">
  <g class="integrated-AIOps">
    <g fill="#29707A" class="primary">
      <path d="M29.5 11a1 1 0 1 0-2 0v3H23c-5.508 0-10 4.342-10 10s4.482 10 10 10h4.5v3a1 1 0 1 0 2 0v-4a1 1 0 0 0-1-1H23c-4.431 0-8-3.465-8-8s3.577-8 8-8h5.5a1 1 0 0 0 1-1v-4Z"/>
      <path d="M33 14a1 1 0 0 0-1 1v4h-9c-1.6 0-2.89.634-3.76 1.704-.851 1.044-1.24 2.425-1.24 3.853C18 27.626 20.321 30 23.5 30H32v4a1 1 0 0 0 1 1h3a1 1 0 1 0 0-2h-2v-4a1 1 0 0 0-1-1h-9.5c-2.075 0-3.5-1.48-3.5-3.443 0-1.087.297-1.985.79-2.59.473-.58 1.182-.967 2.21-.967h10a1 1 0 0 0 1-1v-4h2a1 1 0 1 0 0-2h-3Z"/>
      <path d="M22.999 23A1 1 0 1 0 23 25l14.61-.019a1 1 0 0 0-.003-2L22.998 23Z"/>
      <path fill-rule="evenodd" d="M19.01 6.104c0-.945.647-2.104 1.94-2.104H23a1 1 0 1 1 0 2h-1.974l-.001.002a.323.323 0 0 0-.015.102v3.69a1 1 0 0 1-.748.967c-1.4.366-2.614.761-3.701 1.457a1 1 0 0 1-1.238-.128l-2.535-2.48a1.067 1.067 0 0 1-.022-.022L9.41 13.137a.11.11 0 0 0-.026.075.11.11 0 0 0 .026.076.955.955 0 0 1 .024.026l2.354 2.67a1 1 0 0 1 .118 1.158c-.665 1.164-1.043 2.452-1.39 3.946a1 1 0 0 1-.973.775h-3.49a.125.125 0 0 0-.053.012v5.011c0 .015.004.06.028.127a.737.737 0 0 0 .133.229h3.382a1 1 0 0 1 .974.773c.346 1.486.724 2.784 1.39 3.947a1 1 0 0 1-.167 1.209l-2.334 2.3a.114.114 0 0 0-.022.07.11.11 0 0 0 .026.076l3.356 3.548 2.533-2.653a1 1 0 0 1 1.262-.152c1.088.695 2.292 1.09 3.7 1.455a1 1 0 0 1 .748.968v3.163a.135.135 0 0 0 .01.054H23a1 1 0 1 1 0 2h-1.994c-1.164 0-1.997-.963-1.997-2.054v-2.398c-.953-.272-1.897-.602-2.808-1.085l-1.987 2.082-.002.002a1.981 1.981 0 0 1-2.894-.002L7.957 36.99a2.123 2.123 0 0 1 .025-2.926l1.826-1.8c-.47-.979-.79-1.999-1.051-3.023H6.054c-.738 0-1.264-.481-1.545-.866-.296-.405-.509-.946-.509-1.49v-5.02c0-1.226 1.027-2.003 2.054-2.003h2.702c.266-1.047.592-2.08 1.076-3.073l-1.889-2.142a2.123 2.123 0 0 1 .014-2.886l3.36-3.554a1.98 1.98 0 0 1 2.881-.016l1.979 1.936c.92-.49 1.875-.824 2.832-1.098V6.104Z" clip-rule="evenodd"/>
    </g>
    <path fill="#5FBEAC" fill-rule="evenodd" d="M28.5 6a1.5 1.5 0 1 0 0 3 1.5 1.5 0 0 0 0-3ZM25 7.5a3.5 3.5 0 1 1 7 0 3.5 3.5 0 0 1-7 0ZM38.5 13a1.5 1.5 0 1 0 0 3 1.5 1.5 0 0 0 0-3ZM35 14.5a3.5 3.5 0 1 1 7 0 3.5 3.5 0 0 1-7 0Zm4 9a1.5 1.5 0 1 1 3 0 1.5 1.5 0 0 1-3 0Zm1.5-3.5a3.5 3.5 0 1 0 0 7 3.5 3.5 0 0 0 0-7Zm-12 19a1.5 1.5 0 1 0 0 3 1.5 1.5 0 0 0 0-3ZM25 40.5a3.5 3.5 0 1 1 7 0 3.5 3.5 0 0 1-7 0Zm12-7a1.5 1.5 0 1 1 3 0 1.5 1.5 0 0 1-3 0Zm1.5-3.5a3.5 3.5 0 1 0 0 7 3.5 3.5 0 0 0 0-7Z" class="secondary" clip-rule="evenodd"/>
  </g>
</svg>
