<svg xmlns="http://www.w3.org/2000/svg" width="48" height="48" fill="none" viewBox="0 0 48 48">
  <g fill-rule="evenodd" class="key" clip-rule="evenodd">
    <path fill="#5FBEAC" d="M26.244 11.697a5.003 5.003 0 0 1 7.058-.451c2.078 1.816 2.274 4.978.453 7.05a4.99 4.99 0 0 1-6.961.539 1.009 1.009 0 0 1-.102-.08c-2.06-1.822-2.275-4.981-.448-7.058Zm5.739 1.052a3.003 3.003 0 0 0-4.238.27 3.011 3.011 0 0 0 .203 4.175c.026.02.052.04.077.062a2.99 2.99 0 0 0 4.225-.277l.002-.003a2.99 2.99 0 0 0-.267-4.225l-.002-.002Z" class="secondary"/>
    <path fill="#29707A" d="M19.467 9.97c4.266-4.847 11.678-5.323 16.55-1.058 4.86 4.262 5.34 11.657 1.065 16.515-3.027 3.43-7.618 4.667-11.768 3.589a1 1 0 0 0-1.002.307l-2.038 2.315-4.07.469a1 1 0 0 0-.886.997l.016 3.598-3.475.324a1 1 0 0 0-.905.923L12.661 42H6.008L6 35.863 17.231 23.11a1 1 0 0 0 .177-1.036 11.661 11.661 0 0 1 2.059-12.103Zm17.868-2.562c-5.699-4.989-14.372-4.438-19.37 1.241a13.657 13.657 0 0 0-2.632 13.591l-11 12.49a1 1 0 0 0-.334.747L4.01 43a1 1 0 0 0 1 .999h8.583a1 1 0 0 0 .997-.928l.299-4.133 3.542-.33a1 1 0 0 0 .907-1l-.015-3.618 3.563-.41a1 1 0 0 0 .636-.333l1.896-2.154c4.686.993 9.765-.492 13.165-4.344 5.008-5.689 4.446-14.35-1.246-19.342ZM18.747 26.664a1 1 0 0 0-1.494-1.328l-8 9a1 1 0 0 0 1.494 1.328l8-9Z" class="primary"/>
  </g>
</svg>
