<svg xmlns="http://www.w3.org/2000/svg" width="48" height="48" fill="none" viewBox="0 0 48 48">
  <g class="lightbulb">
    <path fill="#5FBEAC" d="M25 5a1 1 0 1 0-2 0v3a1 1 0 1 0 2 0V5Zm-14.707 5.293a1 1 0 0 1 1.414 0l2 2a1 1 0 0 1-1.414 1.414l-2-2a1 1 0 0 1 0-1.414ZM6 24a1 1 0 0 1 1-1h3a1 1 0 1 1 0 2H7a1 1 0 0 1-1-1Zm31 0a1 1 0 0 1 1-1h3a1 1 0 1 1 0 2h-3a1 1 0 0 1-1-1Zm-3.293 8.293a1 1 0 0 0-1.414 1.414l2 2a1 1 0 0 0 1.414-1.414l-2-2Zm4-20.586a1 1 0 0 0-1.414-1.414l-2 2a1 1 0 0 0 1.414 1.414l2-2Zm-22 20.586a1 1 0 0 1 0 1.414l-2 2a1 1 0 0 1-1.414-1.414l2-2a1 1 0 0 1 1.414 0Z" class="secondary"/>
    <g fill="#29707A" fill-rule="evenodd" class="primary" clip-rule="evenodd">
      <path d="M24.41 11c6.362-.05 11.57 4.942 11.57 11.166 0 3.344-1.505 6.334-3.885 8.374-1.245 1.072-1.948 2.594-1.948 4.185 0 1.29-1.064 2.275-2.317 2.275h-6.68c-1.252 0-2.316-.986-2.316-2.275 0-1.591-.703-3.113-1.948-4.185-2.37-2.03-3.875-5.01-3.886-8.333M24.426 13c-5.237.043-9.443 4.205-9.426 9.2.009 2.708 1.233 5.147 3.188 6.822l.001.001c1.676 1.442 2.645 3.513 2.645 5.702 0 .125.108.275.317.275h6.68c.208 0 .316-.15.316-.275 0-2.189.969-4.26 2.645-5.702h.001c1.964-1.684 3.188-4.131 3.188-6.857 0-5.059-4.249-9.208-9.555-9.166Zm-.016-2c-6.276.051-11.431 5.05-11.41 11.207L24.41 11Z"/>
      <path d="M20 35a1 1 0 0 1 1 1v4.432c0 .775.726 1.568 1.84 1.568h3.32c1.114 0 1.84-.793 1.84-1.568V36a1 1 0 1 1 2 0v4.432C30 42.495 28.185 44 26.16 44h-3.32C20.815 44 19 42.495 19 40.432V36a1 1 0 0 1 1-1Z"/>
    </g>
  </g>
</svg>
