<svg xmlns="http://www.w3.org/2000/svg" width="48" height="48" fill="none" viewBox="0 0 48 48">
  <g fill-rule="evenodd" class="lock" clip-rule="evenodd">
    <path fill="#FF462D" d="M23.99 8C20.152 8 17 11.182 17 15.139v1.85a1 1 0 1 1-2 0v-1.85C15 10.111 19.015 6 23.99 6c2.491 0 4.749 1.04 6.376 2.69A9.173 9.173 0 0 1 33 15.15V17a1 1 0 1 1-2 0v-1.85a7.17 7.17 0 0 0-2.059-5.056C27.667 8.8 25.914 8 23.99 8Z" class="secondary"/>
    <path fill="#3D3C3C" d="M13.204 19.616c-.02.003-.06.017-.109.08a.51.51 0 0 0-.095.308v18.992c0 .138.046.247.097.314.05.066.09.072.094.072l.006.001c6.38.822 15.217.823 21.599 0 .02-.002.06-.016.109-.079a.51.51 0 0 0 .095-.308V20.004a.519.519 0 0 0-.097-.314c-.05-.066-.09-.072-.094-.072l-.006-.001c-6.38-.822-15.217-.823-21.599 0Zm21.852-1.983c-6.552-.844-15.563-.844-22.114 0l-.01.002C11.715 17.803 11 18.923 11 20.004v18.992c0 1.088.723 2.22 1.944 2.37 6.552.845 15.563.845 22.114 0h.01c1.218-.169 1.932-1.289 1.932-2.37V20.004c0-1.088-.723-2.22-1.944-2.37Z" class="primary"/>
  </g>
</svg>
