<svg xmlns="http://www.w3.org/2000/svg" width="48" height="48" fill="none" viewBox="0 0 48 48">
  <g fill-rule="evenodd" class="mail" clip-rule="evenodd">
    <path fill="#FF462D" d="M5.133 13.502a1 1 0 0 1 1.365-.37l16.794 9.645a1 1 0 0 1 .042.025c.41.264 1.07.264 1.48 0a.953.953 0 0 1 .039-.023l16.646-9.644a1 1 0 1 1 1.002 1.73L25.873 24.5c-1.06.668-2.536.668-3.596.001L5.502 14.867a1 1 0 0 1-.369-1.365Z" class="secondary"/>
    <path fill="#3D3C3C" d="M6.387 14a.376.376 0 0 0-.387.364v23.271c0 .186.158.365.387.365h35.226c.23 0 .387-.179.387-.364V14.364a.376.376 0 0 0-.387-.364H6.387ZM4 14.364C4 13.044 5.084 12 6.387 12h35.226C42.916 12 44 13.043 44 14.364v23.271C44 38.958 42.916 40 41.613 40H6.387C5.084 40 4 38.957 4 37.636V14.364Z" class="primary"/>
  </g>
</svg>
