<svg xmlns="http://www.w3.org/2000/svg" width="48" height="48" fill="none" viewBox="0 0 48 48">
  <g fill-rule="evenodd" class="map" clip-rule="evenodd">
    <path fill="#FF462D" d="M23.984 11.996a4 4 0 1 0 0 8 4 4 0 0 0 0-8Zm-6 4a6 6 0 1 1 12 0 6 6 0 1 1-12 0Z" class="secondary"/>
    <path fill="#3D3C3C" d="M13.98 15.75c0-5.364 4.465-9.753 10.008-9.753 5.544 0 10.008 4.39 10.008 9.754 0 1.875-.626 4.017-1.63 6.225-1 2.196-2.34 4.388-3.696 6.344a67.573 67.573 0 0 1-4.682 5.98 67.435 67.435 0 0 1-4.685-5.98c-1.356-1.957-2.697-4.148-3.696-6.344-1.004-2.208-1.629-4.35-1.627-6.224v-.001Zm9.012 20.435a63.525 63.525 0 0 1-1.492-1.714 69.485 69.485 0 0 1-3.842-5.014 55.213 55.213 0 0 1-1.405-2.128l-.788-.32v12.094l7.527 2.51v-5.428Zm-8.35-11.641a33.257 33.257 0 0 1-.857-1.743c-1.06-2.329-1.808-4.77-1.805-7.05C11.98 9.241 17.382 4 23.988 4c6.607 0 12.009 5.242 12.009 11.75 0 2.281-.75 4.722-1.81 7.052a33.33 33.33 0 0 1-.858 1.745c.165-.03.337-.019.498.035l9.49 3.167a1 1 0 0 1 .683.948V43a1 1 0 0 1-1.317.948L33.5 40.884l-9.187 3.063a.996.996 0 0 1-.639.001l-9.19-3.063-9.167 3.063A1 1 0 0 1 4 43V28.697a1 1 0 0 1 .683-.948l9.477-3.167a1 1 0 0 1 .482-.038Zm17.191 2.603c-.496.8-1.008 1.574-1.518 2.31a69.546 69.546 0 0 1-5.322 6.72v5.435l7.526-2.509V26.917l-.674.226-.012.004Zm2.687 11.97V26.92L42 29.417v12.195l-7.48-2.496ZM6 29.416l7.464-2.494v12.195L6.001 41.61V29.417Z" class="primary"/>
  </g>
</svg>
