<svg xmlns="http://www.w3.org/2000/svg" width="48" height="48" fill="none" viewBox="0 0 48 48">
  <g fill-rule="evenodd" class="marketplace" clip-rule="evenodd">
    <path fill="#5FBEAC" d="M19.684 27c-.892 0-1.684.763-1.684 1.805V42h12V28.805C30 27.763 29.208 27 28.316 27h-8.632ZM16 28.805C16 26.743 17.605 25 19.684 25h8.632C30.395 25 32 26.743 32 28.805V43a1 1 0 0 1-1 1H17a1 1 0 0 1-1-1V28.805Z" class="secondary"/>
    <path fill="#29707A" d="M5.327 8.16 4.07 15.133a.998.998 0 0 0-.069.365c0 1.537.802 2.85 2 3.656v19.82C6 41.697 8.1 44 10.808 44h26.384C39.9 44 42 41.698 42 38.973v-19.82c1.198-.804 2-2.118 2-3.655a.997.997 0 0 0-.016-.178l-1.292-7.16C42.262 5.793 40.286 4 37.898 4H10.12C7.733 4 5.757 5.793 5.327 8.16Zm.679 7.5 1.289-7.142C7.568 7.017 8.785 6 10.12 6H37.9c1.336 0 2.552 1.016 2.825 2.518L42 15.578C41.95 16.854 40.791 18 39.2 18a2.99 2.99 0 0 1-1.71-.523v-.002a3.63 3.63 0 0 0-4.18 0v.002A2.983 2.983 0 0 1 31.6 18a2.99 2.99 0 0 1-1.71-.523v-.002a3.63 3.63 0 0 0-4.18 0v.002A2.983 2.983 0 0 1 24 18a2.99 2.99 0 0 1-1.71-.523v-.002a3.63 3.63 0 0 0-4.18 0v.002A2.983 2.983 0 0 1 16.4 18a2.99 2.99 0 0 1-1.71-.523v-.002a3.63 3.63 0 0 0-4.18 0v.002A2.983 2.983 0 0 1 8.8 18c-1.558 0-2.702-1.099-2.794-2.34ZM40 19.936a5.1 5.1 0 0 1-.8.063 4.983 4.983 0 0 1-2.85-.88 1.631 1.631 0 0 0-1.9 0 4.983 4.983 0 0 1-2.85.88 4.983 4.983 0 0 1-2.85-.88 1.631 1.631 0 0 0-1.9 0A4.983 4.983 0 0 1 24 20a4.983 4.983 0 0 1-2.85-.88 1.631 1.631 0 0 0-1.9-.001A4.982 4.982 0 0 1 16.4 20a4.982 4.982 0 0 1-2.85-.881 1.631 1.631 0 0 0-1.9 0A4.983 4.983 0 0 1 8.8 20a5.1 5.1 0 0 1-.8-.063v19.036C8 40.7 9.308 42 10.808 42h26.384c1.5 0 2.808-1.3 2.808-3.027V19.937Z" class="primary"/>
  </g>
</svg>
