<svg xmlns="http://www.w3.org/2000/svg" width="48" height="48" fill="none" viewBox="0 0 48 48">
  <g fill-rule="evenodd" class="network-&amp;-edge" clip-rule="evenodd">
    <path fill="#29707A" d="M24 10c-7.129 0-13.602 2.941-18.287 7.701A1 1 0 0 1 4.287 16.3C9.33 11.175 16.31 8 24 8c7.691 0 14.67 3.176 19.713 8.299a1 1 0 0 1-1.426 1.402C37.602 12.941 31.13 10 24 10Zm0 9c-4.759 0-9.088 2.153-12.257 5.67a1 1 0 1 1-1.486-1.34C13.761 19.443 18.612 17 24 17s10.239 2.442 13.743 6.33a1 1 0 1 1-1.486 1.34C33.088 21.152 28.76 19 24 19Zm-6.28 10.695C19.332 28.025 21.557 27 24 27s4.667 1.025 6.28 2.695a1 1 0 1 0 1.44-1.39C29.75 26.27 27.015 25 24 25s-5.751 1.269-7.72 3.305a1 1 0 1 0 1.44 1.39Z" class="primary"/>
    <path fill="#5FBEAC" d="M24 34c-.552 0-1.05.223-1.41.586l-.005.006A1.998 1.998 0 0 0 24 38a1.998 1.998 0 0 0 1.41-3.414A1.977 1.977 0 0 0 24 34Zm-2.826-.825A3.977 3.977 0 0 1 24 32c1.105 0 2.108.451 2.829 1.177A3.995 3.995 0 0 1 24 40a3.998 3.998 0 0 1-2.826-6.825Z" class="secondary"/>
  </g>
</svg>
