<svg xmlns="http://www.w3.org/2000/svg" width="48" height="48" fill="none" viewBox="0 0 48 48">
  <g class="Size=S">
    <g fill-rule="evenodd" class="Icon" clip-rule="evenodd">
      <path fill="#3D3C3C" d="M15.632 6.633C15.222 7.043 15 7.551 15 8v30.25A5.91 5.91 0 0 1 13.67 42h26.565c.974 0 1.765-.795 1.765-1.78V7.78C42 6.788 41.202 6 40.235 6H17c-.451 0-.959.223-1.368.633ZM13 8v14H5a1 1 0 0 0-1 1v15.25c0 2.831 1.975 5.24 4.629 5.679.115.046.24.071.371.071h31.235C42.33 44 44 42.293 44 40.22V7.78C44 5.686 42.31 4 40.235 4H17c-1.083 0-2.076.512-2.783 1.22C13.51 5.928 13 6.92 13 8Zm0 30.25C13 40.367 11.388 42 9.5 42 7.621 42 6 40.378 6 38.25V24h7v14.25ZM22 10a3 3 0 0 0-3 3v6a3 3 0 0 0 3 3h13a3 3 0 0 0 3-3v-6a3 3 0 0 0-3-3H22Zm-1 3a1 1 0 0 1 1-1h13a1 1 0 0 1 1 1v6a1 1 0 0 1-1 1H22a1 1 0 0 1-1-1v-6Z" class="primary"/>
      <path fill="#FF462D" d="M20 27a1 1 0 1 0 0 2h17a1 1 0 1 0 0-2H20Zm0 8a1 1 0 1 0 0 2h17a1 1 0 1 0 0-2H20Z" class="secondary"/>
    </g>
  </g>
</svg>
