<svg xmlns="http://www.w3.org/2000/svg" width="48" height="48" fill="none" viewBox="0 0 48 48">
  <g fill-rule="evenodd" class="notification" clip-rule="evenodd">
    <path fill="#3D3C3C" d="M23.991 4c-2.237 0-3.997 1.874-3.997 4.107v2.715C16.404 12.383 14 15.999 14 20.18v6.723L8.664 33.23l-.007.009C7.098 35.175 8.496 38 10.95 38h26.08c2.434 0 3.888-2.82 2.313-4.763l-.007-.008-5.353-6.325V20.18c0-4.186-2.4-7.808-5.996-9.366V8.107C27.987 5.874 26.227 4 23.99 4Zm1.999 6.193V8.107c0-1.194-.93-2.107-2-2.107-1.068 0-1.998.913-1.998 2.107v2.09A10.242 10.242 0 0 1 24 10c.685 0 1.35.066 1.989.193Zm-9.993 9.988c0-4.549 3.47-8.181 8.004-8.181 4.53 0 7.984 3.63 7.984 8.18v7.457l5.812 6.867c.458.575.061 1.496-.765 1.496H10.95a.925.925 0 0 1-.745-1.498l5.791-6.866V20.18Z" class="primary"/>
    <path fill="#FF462D" d="M29.39 39.08a1 1 0 0 1 .531 1.31c-.92 2.173-3.277 3.61-5.92 3.61-2.647 0-5-1.447-5.92-3.608a1 1 0 1 1 1.84-.784C20.483 40.932 22.04 42 24 42s3.515-1.062 4.078-2.39a1 1 0 0 1 1.311-.53Z" class="secondary"/>
  </g>
</svg>
