<svg xmlns="http://www.w3.org/2000/svg" width="48" height="48" fill="none" viewBox="0 0 48 48">
  <g fill-rule="evenodd" class="open-developer" clip-rule="evenodd">
    <path fill="#5FBEAC" d="M27.429 19.386a1 1 0 1 0-1.927-.538l-4.465 15.989a1 1 0 0 0 1.926.538l4.466-15.989Zm-9.722 2.02a1 1 0 0 1 0 1.414l-4.293 4.293 4.293 4.293a1 1 0 0 1-1.414 1.414l-5-5a1 1 0 0 1 0-1.414l5-5a1 1 0 0 1 1.414 0Zm13.586 0a1 1 0 0 1 1.414 0l5 5a1 1 0 0 1 0 1.414l-5 5a1 1 0 0 1-1.414-1.414l4.293-4.293-4.293-4.293a1 1 0 0 1 0-1.414Z" class="secondary"/>
    <path fill="#29707A" d="M4.047 9.479C4.047 6.578 6.141 4 8.987 4h30.017c2.846 0 4.939 2.578 4.939 5.479v3.51H44v25.703C44 41.539 41.866 44 39.051 44H8.95C6.134 44 4 41.54 4 38.692V12.989h.047V9.48Zm1.948 5.508h36.01v23.705c0 1.909-1.399 3.31-2.954 3.31H8.95c-1.555 0-2.954-1.401-2.954-3.31V14.987Zm35.953-5.508v3.51H6.042V9.48c0-2.044 1.432-3.481 2.945-3.481h30.017c1.513 0 2.944 1.437 2.944 3.48ZM11.13 8h.74c.624 0 1.13.464 1.13 1.037v.926c0 .573-.506 1.037-1.13 1.037h-.74c-.624 0-1.13-.464-1.13-1.037v-.926C10 8.464 10.506 8 11.13 8Zm5.74 0h-.74C15.506 8 15 8.464 15 9.037v.926c0 .573.506 1.037 1.13 1.037h.74c.624 0 1.13-.464 1.13-1.037v-.926C18 8.464 17.494 8 16.87 8Zm4.26 0h.74c.624 0 1.13.464 1.13 1.037v.926c0 .573-.506 1.037-1.13 1.037h-.74c-.624 0-1.13-.464-1.13-1.037v-.926C20 8.464 20.506 8 21.13 8Z" class="primary"/>
  </g>
</svg>
