<svg xmlns="http://www.w3.org/2000/svg" width="48" height="48" fill="none" viewBox="0 0 48 48">
  <g fill-rule="evenodd" class="operation-policies" clip-rule="evenodd">
    <path fill="#3D3C3C" d="M38.235 9.176c-2.343-.646-8.475-2.515-15.164-5.91a2.337 2.337 0 0 0-2.169.002C14.254 6.668 8.12 8.527 5.763 9.196 4.783 9.463 4 10.306 4 11.384v16.34c0 3.021 2.148 5.694 4.652 7.832 2.551 2.178 5.722 4.012 8.253 5.33a1 1 0 0 0 .924-1.773c-2.488-1.297-5.5-3.048-7.878-5.078C7.526 31.965 6 29.808 6 27.725v-16.34c0-.037.037-.192.29-.26l.014-.003c2.409-.684 8.694-2.586 15.518-6.077l.019-.01a.338.338 0 0 1 .307.005l.012.006c6.847 3.477 13.117 5.389 15.539 6.057.13.037.21.1.253.15.04.049.048.086.048.112V17a1 1 0 1 0 2 0v-5.635c0-1.091-.797-1.913-1.756-2.187l-.009-.002Zm-3.743 9.938a1 1 0 0 0-1.346.414l-1.08 2.014a10.06 10.06 0 0 0-2.74.096l-1.201-1.952a1 1 0 0 0-1.381-.324l-5.066 3.16a1 1 0 0 0-.323 1.371l1.196 1.95c-.272.38-.514.777-.733 1.18-.228.42-.414.848-.572 1.27l-2.28.078A1 1 0 0 0 18 29.4l.18 6a1 1 0 0 0 1.033.97l2.281-.077c.373.836.85 1.63 1.435 2.358l-1.132 2.094a1 1 0 0 0 .416 1.361l5.296 2.77a1 1 0 0 0 1.345-.414l1.08-2.014c.9.093 1.798.06 2.671-.084l1.037 2.082a1 1 0 0 0 1.386.425l5.376-3.03a1 1 0 0 0 .374-1.372l-1.34-2.316c.254-.354.483-.724.69-1.098.02-.03.04-.061.057-.094.225-.422.41-.844.569-1.265l2.28-.077A1 1 0 0 0 44 34.62v-5.75a1 1 0 0 0-.953-.999l-2.517-.12a10.74 10.74 0 0 0-1.467-2.422l1.098-2.12a1 1 0 0 0-.424-1.345l-5.245-2.75Zm4.587 15.304a9.485 9.485 0 0 1-.612 1.513.855.855 0 0 0-.043.072 8.22 8.22 0 0 1-.95 1.418 1 1 0 0 0-.105 1.15l1.171 2.025-3.577 2.016-.91-1.828a1 1 0 0 0-1.134-.525 8.057 8.057 0 0 1-3.36.117 1 1 0 0 0-1.06.512l-.94 1.757-3.52-1.841.976-1.809a1 1 0 0 0-.145-1.154 8.74 8.74 0 0 1-1.775-2.918 1 1 0 0 0-.971-.652l-1.975.066-.12-4.001 1.972-.067a1 1 0 0 0 .92-.697 9.029 9.029 0 0 1 .655-1.595 8.22 8.22 0 0 1 .95-1.418 1 1 0 0 0 .092-1.172l-1.04-1.694 3.37-2.102 1.042 1.693a1 1 0 0 0 1.09.447 8.057 8.057 0 0 1 3.36-.117 1 1 0 0 0 1.06-.512l.941-1.756 3.486 1.828-.95 1.836a1 1 0 0 0 .153 1.14 8.737 8.737 0 0 1 1.775 2.917 1 1 0 0 0 .89.652l2.205.105v3.83l-2.001.067a1 1 0 0 0-.92.697Z" class="primary"/>
    <path fill="#FF462D" d="M31 29a3.001 3.001 0 0 0 0 6 3.001 3.001 0 0 0 0-6Zm-5 3c0-2.76 2.24-5 5-5s5 2.24 5 5-2.24 5-5 5-5-2.24-5-5Z" class="secondary"/>
  </g>
</svg>
