<svg xmlns="http://www.w3.org/2000/svg" width="48" height="48" fill="none" viewBox="0 0 48 48">
  <g class="placeholder">
    <path fill="#3D3C3C" d="M7.464 4H6.93c-.435 0-.788.311-.788.695v.61c0 .384.353.695.788.695h.533c.435 0 .788-.311.788-.695v-.61C8.252 4.31 7.9 4 7.464 4Zm4.218 0h-.532c-.436 0-.789.311-.789.695v.61c0 .384.353.695.789.695h.532c.436 0 .789-.311.789-.695v-.61c0-.384-.353-.695-.789-.695ZM15.9 4h-.532c-.435 0-.788.311-.788.695v.61c0 .384.353.695.788.695h.533c.435 0 .788-.311.788-.695v-.61c0-.384-.353-.695-.788-.695Zm4.22 0h-.533c-.436 0-.789.311-.789.695v.61c0 .384.353.695.789.695h.532c.436 0 .789-.311.789-.695v-.61c0-.384-.353-.695-.789-.695Zm4.218 0h-.533c-.435 0-.788.311-.788.695v.61c0 .384.353.695.788.695h.533c.435 0 .788-.311.788-.695v-.61c0-.384-.353-.695-.788-.695Zm4.218 0h-.532c-.436 0-.789.311-.789.695v.61c0 .384.353.695.789.695h.532c.435 0 .788-.311.788-.695v-.61c0-.384-.353-.695-.788-.695Zm4.219 0h-.533c-.435 0-.788.311-.788.695v.61c0 .384.353.695.788.695h.533c.435 0 .788-.311.788-.695v-.61c0-.384-.353-.695-.788-.695Zm4.218 0h-.532c-.436 0-.789.311-.789.695v.61c0 .384.353.695.789.695h.532c.435 0 .788-.311.788-.695v-.61c0-.384-.352-.695-.788-.695Zm4.219 0h-.533c-.435 0-.788.311-.788.695v.61c0 .384.353.695.788.695h.532c.436 0 .789-.311.789-.695v-.61C42 4.31 41.647 4 41.212 4ZM8.284 42h-.518c-.423 0-.766.311-.766.695v.61c0 .384.343.695.766.695h.518c.423 0 .766-.311.766-.695v-.61c0-.384-.343-.695-.766-.695Zm4.101 0h-.518c-.423 0-.766.311-.766.695v.61c0 .384.343.695.766.695h.518c.423 0 .766-.311.766-.695v-.61c0-.384-.343-.695-.766-.695Zm4.101 0h-.518c-.423 0-.766.311-.766.695v.61c0 .384.343.695.766.695h.518c.423 0 .766-.311.766-.695v-.61c0-.384-.343-.695-.766-.695Zm4.101 0h-.518c-.423 0-.767.311-.767.695v.61c0 .384.344.695.767.695h.518c.423 0 .766-.311.766-.695v-.61c0-.384-.343-.695-.767-.695Zm4.1 0h-.517c-.424 0-.767.311-.767.695v.61c0 .384.344.695.767.695h.517c.424 0 .767-.311.767-.695v-.61c0-.384-.343-.695-.767-.695Zm4.101 0h-.517c-.424 0-.767.311-.767.695v.61c0 .384.343.695.767.695h.517c.423 0 .767-.311.767-.695v-.61c0-.384-.344-.695-.767-.695Zm4.101 0h-.517c-.424 0-.767.311-.767.695v.61c0 .384.343.695.767.695h.517c.423 0 .767-.311.767-.695v-.61c0-.384-.344-.695-.767-.695Zm4.101 0h-.518c-.423 0-.766.311-.766.695v.61c0 .384.343.695.766.695h.518c.423 0 .766-.311.766-.695v-.61c0-.384-.343-.695-.766-.695Zm4.1 0h-.517c-.423 0-.766.311-.766.695v.61c0 .384.343.695.766.695h.518c.423 0 .766-.311.766-.695v-.61c0-.384-.343-.695-.766-.695ZM5.252 8h-.504C4.335 8 4 8.311 4 8.695v.61c0 .384.335.695.748.695h.504C5.665 10 6 9.689 6 9.305v-.61C6 8.31 5.665 8 5.252 8Zm0 4h-.504c-.413 0-.748.311-.748.695v.61c0 .384.335.695.748.695h.504c.413 0 .748-.311.748-.695v-.61C6 12.31 5.665 12 5.252 12Zm0 5h-.504c-.413 0-.748.311-.748.695v.61c0 .384.335.695.748.695h.504c.413 0 .748-.311.748-.695v-.61C6 17.31 5.665 17 5.252 17Zm0 4h-.504c-.413 0-.748.311-.748.695v.61c0 .384.335.695.748.695h.504c.413 0 .748-.311.748-.695v-.61C6 21.31 5.665 21 5.252 21Zm0 4h-.504c-.413 0-.748.311-.748.695v.61c0 .384.335.695.748.695h.504c.413 0 .748-.311.748-.695v-.61C6 25.31 5.665 25 5.252 25Zm0 4h-.504c-.413 0-.748.311-.748.695v.61c0 .384.335.695.748.695h.504c.413 0 .748-.311.748-.695v-.61C6 29.31 5.665 29 5.252 29Zm0 4h-.504c-.413 0-.748.311-.748.695v.61c0 .384.335.695.748.695h.504c.413 0 .748-.311.748-.695v-.61C6 33.31 5.665 33 5.252 33Zm0 4h-.504c-.413 0-.748.311-.748.695v.61c0 .384.335.695.748.695h.504c.413 0 .748-.311.748-.695v-.61C6 37.31 5.665 37 5.252 37Zm38-28h-.504c-.413 0-.748.315-.748.705v.619c0 .39.335.705.748.705h.504c.413 0 .748-.316.748-.705v-.62c0-.389-.335-.704-.748-.704Zm0 4.057h-.504c-.413 0-.748.316-.748.705v.62c0 .388.335.704.748.704h.504c.413 0 .748-.316.748-.705v-.62c0-.388-.335-.704-.748-.704Zm0 4.057h-.504c-.413 0-.748.316-.748.705v.62c0 .388.335.704.748.704h.504c.413 0 .748-.316.748-.705v-.62c0-.388-.335-.704-.748-.704Zm0 4.057h-.504c-.413 0-.748.316-.748.705v.62c0 .389.335.704.748.704h.504c.413 0 .748-.316.748-.705v-.619c0-.39-.335-.705-.748-.705Zm0 4.058h-.504c-.413 0-.748.315-.748.704v.62c0 .389.335.704.748.704h.504c.413 0 .748-.315.748-.705v-.619c0-.389-.335-.704-.748-.704Zm0 4.057h-.504c-.413 0-.748.315-.748.704v.62c0 .389.335.704.748.704h.504c.413 0 .748-.315.748-.704v-.62c0-.389-.335-.704-.748-.704Zm0 4.057h-.504c-.413 0-.748.315-.748.704v.62c0 .389.335.704.748.704h.504c.413 0 .748-.315.748-.704v-.62c0-.389-.335-.704-.748-.704Zm0 4.057h-.504c-.413 0-.748.315-.748.705v.619c0 .39.335.705.748.705h.504c.413 0 .748-.316.748-.705v-.62c0-.389-.335-.704-.748-.704Z" class="primary"/>
    <path fill="#FF462D" fill-rule="evenodd" d="M17.06 16.005c-.583 0-1.055.472-1.055 1.054v13.882c0 .582.472 1.054 1.054 1.054h13.882c.582 0 1.054-.472 1.054-1.054V17.059c0-.582-.472-1.054-1.054-1.054H17.059ZM14 17.06A3.06 3.06 0 0 1 17.06 14h13.88A3.06 3.06 0 0 1 34 17.06v13.88A3.06 3.06 0 0 1 30.94 34H17.06A3.06 3.06 0 0 1 14 30.94V17.06Z" class="secondary" clip-rule="evenodd"/>
  </g>
</svg>
