<svg xmlns="http://www.w3.org/2000/svg" width="48" height="48" fill="none" viewBox="0 0 48 48">
  <g fill-rule="evenodd" class="platform" clip-rule="evenodd">
    <path fill="#3D3C3C" d="m25.221 4.363-.003-.001a2.458 2.458 0 0 0-2.56-.003L7.238 13.76v.001c-1.652 1.003-1.652 3.467.001 4.47l15.53 9.406.002.002c.792.484 1.77.478 2.561.002l15.428-9.402c1.652-1.003 1.652-3.467-.001-4.469a1.043 1.043 0 0 0-.086-.047L25.22 4.363Zm-1.533 1.71.002-.002a.458.458 0 0 1 .486-.003l.004.003 15.534 9.41.055.03a.603.603 0 0 1 .23.494c0 .23-.104.42-.276.525h-.002l-15.419 9.397-.002.002a.458.458 0 0 1-.485.003l-.005-.003-15.533-9.41A.596.596 0 0 1 8 15.996c0-.23.105-.42.277-.524l.002-.002 15.409-9.396ZM9.379 30.855a1 1 0 0 0-1.036-1.71l-1.102.667c-1.655 1-1.654 3.46 0 4.46l15.53 9.367.002.001a2.463 2.463 0 0 0 2.559.003l15.426-9.362h.002c1.654-1 1.653-3.46-.002-4.46l-1.102-.667a1 1 0 0 0-1.035 1.71l1.103.67a.588.588 0 0 1 .276.517.588.588 0 0 1-.276.518l-15.42 9.358-.002.002a.463.463 0 0 1-.489.003l-.005-.003-15.533-9.37A.588.588 0 0 1 8 32.043c0-.226.103-.414.275-.518l1.104-.669Z" class="primary"/>
    <path fill="#FF462D" d="M38.117 21.532a1 1 0 0 1 1.352-.416l1.235.656.047.026c1.651.993 1.67 3.432.028 4.443l-.004.002-15.373 9.393a2.47 2.47 0 0 1-2.56.013L7.25 26.409c-1.647-.99-1.67-3.42-.04-4.436l1.245-.811a1 1 0 1 1 1.092 1.676l-1.254.817a.905.905 0 0 1-.022.013c-.36.222-.362.801.007 1.025l.002.001 15.597 9.242a.47.47 0 0 0 .487-.009L39.73 24.54v-.001c.356-.22.361-.785.008-1.015l-1.206-.64a1 1 0 0 1-.415-1.351Z" class="secondary"/>
  </g>
</svg>
