<svg xmlns="http://www.w3.org/2000/svg" width="48" height="48" fill="none" viewBox="0 0 48 48">
  <g fill-rule="evenodd" class="platform" clip-rule="evenodd">
    <path fill="#29707A" d="m25.221 4.363-.002-.001a2.457 2.457 0 0 0-2.562-.003L7.24 13.76l-.001.001c-1.652 1.003-1.651 3.467.001 4.47l15.53 9.406.002.002a2.46 2.46 0 0 0 2.562.002L40.76 18.24c1.652-1.003 1.652-3.467 0-4.469a1.03 1.03 0 0 0-.087-.047L25.22 4.363Zm-1.533 1.71.002-.002a.458.458 0 0 1 .486-.003l.005.003 15.533 9.41.055.03a.604.604 0 0 1 .231.494c0 .23-.105.42-.277.525h-.002l-15.418 9.397-.002.002a.458.458 0 0 1-.486.003l-.005-.003-15.533-9.41A.596.596 0 0 1 8 15.996c0-.23.105-.42.277-.524l.002-.002 15.41-9.396ZM9.38 30.855a1 1 0 0 0-1.036-1.71l-1.102.667c-1.655 1-1.654 3.46 0 4.46l15.53 9.367.003.001a2.463 2.463 0 0 0 2.558.003l15.427-9.362c1.655-1 1.654-3.46 0-4.46l-1.102-.667a1 1 0 0 0-1.036 1.71l1.104.67a.588.588 0 0 1 .275.517.588.588 0 0 1-.275.518l-15.42 9.358-.003.002a.463.463 0 0 1-.489.003l-.004-.003-15.534-9.37A.588.588 0 0 1 8 32.043c0-.226.103-.414.275-.518l1.104-.669Z" class="primary"/>
    <path fill="#5FBEAC" d="M38.117 21.532a1 1 0 0 1 1.352-.416l1.235.656.047.026c1.651.993 1.67 3.432.028 4.444l-.004.001-15.373 9.393a2.47 2.47 0 0 1-2.56.013L7.25 26.409c-1.647-.99-1.67-3.42-.04-4.436l1.245-.811a1 1 0 0 1 1.092 1.676l-1.254.817a1.414 1.414 0 0 1-.022.013c-.36.223-.362.801.007 1.025l.002.001 15.597 9.242a.47.47 0 0 0 .487-.009L39.73 24.54v-.001c.356-.22.361-.785.008-1.015l-1.206-.64a1 1 0 0 1-.415-1.351Z" class="secondary"/>
  </g>
</svg>
