<svg xmlns="http://www.w3.org/2000/svg" width="48" height="48" fill="none" viewBox="0 0 48 48">
  <g fill-rule="evenodd" class="private-catalog" clip-rule="evenodd">
    <path fill="#29707A" d="M11 8.648C11 7.12 12.144 6 13.373 6h22.254C36.856 6 38 7.12 38 8.648V20a1 1 0 1 0 2 0V8.648C40 6.167 38.105 4 35.627 4H13.372C10.896 4 9 6.167 9 8.648V13H7a1 1 0 1 0 0 2h6a1 1 0 1 0 0-2h-2V8.648Zm0 29.894a1 1 0 1 0-2 0v.81C9 41.833 10.895 44 13.373 44h10.739a1 1 0 1 0 0-2h-10.74C12.145 42 11 40.88 11 39.352v-.81ZM11 18a1 1 0 1 0-2 0v5H7a1 1 0 1 0 0 2h6a1 1 0 1 0 0-2h-2v-5ZM6 34a1 1 0 0 1 1-1h2v-5a1 1 0 1 1 2 0v5h2a1 1 0 1 1 0 2H7a1 1 0 0 1-1-1Z" class="primary"/>
    <path fill="#5FBEAC" d="M32 30.885C32 28.766 33.775 27 36 27c1.108 0 2.096.43 2.828 1.143.726.723 1.172 1.68 1.172 2.742v1.249a59.992 59.992 0 0 0-8 0v-1.249Zm-2 1.5v-1.5C30 27.618 32.714 25 36 25c1.646 0 3.133.646 4.228 1.715l.006.006C41.301 27.78 42 29.237 42 30.885v1.497c.59.239 1 .813 1 1.484v8.268a1.611 1.611 0 0 1-1.419 1.591c-3.303.367-7.845.367-11.162 0l-.019-.002a1.6 1.6 0 0 1-1.4-1.589v-8.268c0-.684.427-1.245 1-1.481Zm1 9.39v-7.55c3.002-.3 6.985-.3 10 0v7.55c-3.002.3-6.985.3-10 0Z" class="secondary"/>
  </g>
</svg>
