<svg xmlns="http://www.w3.org/2000/svg" width="48" height="48" fill="none" viewBox="0 0 48 48">
  <g fill-rule="evenodd" class="program-management-portal" clip-rule="evenodd">
    <g fill="#3D3C3C" class="primary">
      <path d="M16 12.062V10H9.234C8.62 10 8 10.559 8 11.403v9.194C8 21.441 8.621 22 9.234 22h2.352l-1.33-1.33a.94.94 0 0 1 .038-1.376c.41-.37 1.06-.355 1.45.035l3 3a.939.939 0 0 1 0 1.341l-3 3c-.39.39-1.04.406-1.45.036a.94.94 0 0 1-.038-1.377L11.586 24H9.234C7.383 24 6 22.407 6 20.597v-9.194C6 9.593 7.383 8 9.234 8H16V6.938C16 5.503 16.993 4 18.6 4h10.8C31.008 4 32 5.503 32 6.938v5.124C32 13.497 31.007 15 29.4 15H18.6c-1.607 0-2.6-1.503-2.6-2.938Zm2.24-5.858c-.134.162-.24.418-.24.734v5.124c0 .316.106.572.24.734.131.16.263.204.36.204h10.8c.097 0 .229-.044.36-.204.134-.162.24-.418.24-.734V6.938c0-.316-.106-.572-.24-.734-.131-.16-.263-.204-.36-.204H18.6c-.097 0-.229.045-.36.204Z"/>
      <path d="M38.766 25c.613 0 1.234.559 1.234 1.403v9.194c0 .844-.621 1.403-1.234 1.403h-2.352l1.33-1.33a.94.94 0 0 0-.038-1.376 1.064 1.064 0 0 0-1.45.035l-3 3a.939.939 0 0 0 0 1.341l3 3c.39.39 1.04.407 1.45.036a.94.94 0 0 0 .038-1.377L36.414 39h2.352C40.617 39 42 37.407 42 35.597v-9.194C42 24.593 40.617 23 38.766 23H32v-2.062C32 19.503 31.007 18 29.4 18H18.6c-1.607 0-2.6 1.503-2.6 2.938v5.124c0 1.435.993 2.938 2.6 2.938h10.8c1.607 0 2.6-1.503 2.6-2.938V25h6.766ZM30 20.938c0-.316-.106-.572-.24-.734-.131-.16-.263-.204-.36-.204H18.6c-.097 0-.229.044-.36.204-.134.162-.24.418-.24.734v5.124c0 .316.106.572.24.734.131.16.263.204.36.204h10.8c.097 0 .229-.044.36-.204.134-.162.24-.418.24-.734v-5.124Z"/>
    </g>
    <path fill="#FF462D" d="M18.24 35.204c-.134.162-.24.418-.24.734v5.124c0 .316.106.572.24.734.131.16.263.204.36.204h10.8c.097 0 .229-.044.36-.204.134-.162.24-.418.24-.734v-5.124c0-.316-.106-.572-.24-.734-.131-.16-.263-.204-.36-.204H18.6c-.097 0-.229.044-.36.204Zm-2.24.734c0-1.435.993-2.938 2.6-2.938h10.8c1.607 0 2.6 1.503 2.6 2.938v5.124C32 42.497 31.007 44 29.4 44H18.6c-1.607 0-2.6-1.503-2.6-2.938v-5.124Z" class="secondary"/>
  </g>
</svg>
