<svg xmlns="http://www.w3.org/2000/svg" width="48" height="48" fill="none" viewBox="0 0 48 48">
  <g fill-rule="evenodd" class="quotation" clip-rule="evenodd">
    <path fill="#5FBEAC" d="M41.342 26.658a2.248 2.248 0 0 0-3.178 0l-11.3 11.3-.835 3.32a.942.942 0 0 1-.013.063.539.539 0 0 0 .652.643h.003l3.371-.848L41.34 29.848l.001-.001a2.26 2.26 0 0 0 .001-3.19Zm-4.592-1.415a4.249 4.249 0 0 1 6.007 0 4.26 4.26 0 0 1 .002 6.014l-.003.003-11.495 11.486a1 1 0 0 1-.463.262l-3.654.919c-1.82.443-3.481-1.174-3.086-2.993a.799.799 0 0 1 .017-.085l.917-3.647a1 1 0 0 1 .262-.463L36.75 25.244Z" class="secondary"/>
    <path fill="#29707A" d="M13.002 6A3.004 3.004 0 0 0 10 9v30c0 1.652 1.345 3 3.002 3H21a1 1 0 1 1 0 2h-7.998A5.004 5.004 0 0 1 8 39V9c0-2.757 2.24-5 5.002-5H29c.276 0 .526.112.707.293l10 9.994.004.01a1 1 0 0 1 .289.697V21a1 1 0 1 1-2 0v-5h-7.004A3 3 0 0 1 28 13.004V6H13.002ZM30 13.004v-5.59L36.59 14h-5.594a1 1 0 0 1-.996-.996ZM13 11a1 1 0 1 0 0 2h12a1 1 0 1 0 0-2H13Zm0 6a1 1 0 1 0 0 2h12a1 1 0 1 0 0-2H13Zm0 6a1 1 0 1 0 0 2h6.995a1 1 0 1 0 0-2H13Z" class="primary"/>
  </g>
</svg>
