<svg xmlns="http://www.w3.org/2000/svg" width="48" height="48" fill="none" viewBox="0 0 48 48">
  <g fill-rule="evenodd" class="roles" clip-rule="evenodd">
    <path fill="#29707A" d="M10.294 10.317a1 1 0 0 1 1.414.002l3.587 3.6a13.205 13.205 0 0 1 8.553-3.13c3.336 0 6.384 1.234 8.717 3.27l3.727-3.74a1 1 0 0 1 1.416 1.412l-3.74 3.753a13.305 13.305 0 0 1 3.165 8.635c0 3.27-1.173 6.265-3.12 8.584l3.695 3.71a1 1 0 0 1-1.416 1.411l-3.677-3.69a13.208 13.208 0 0 1-8.767 3.315 13.206 13.206 0 0 1-8.605-3.172l-3.535 3.547a1 1 0 0 1-1.416-1.412l3.531-3.544a13.305 13.305 0 0 1-3.261-8.749c0-3.37 1.248-6.45 3.306-8.799l-3.576-3.59a1 1 0 0 1 .002-1.413Zm2.268 13.802c0-6.26 5.056-11.33 11.286-11.33 6.23 0 11.285 5.07 11.285 11.33 0 3.045-1.195 5.808-3.14 7.843L32 30.704C32.014 28.61 30.239 27 28.17 27h-8.34c-2.08 0-3.843 1.612-3.83 3.704l.01 1.567a11.316 11.316 0 0 1-3.448-8.152Zm5.457 9.704a11.201 11.201 0 0 0 5.829 1.626 11.21 11.21 0 0 0 6.135-1.818L30 30.69c.006-.881-.765-1.691-1.83-1.691h-8.34c-1.073 0-1.836.807-1.83 1.691l.019 3.132ZM24 18a3 3 0 1 0 0 6 3 3 0 0 0 0-6Zm-5 3a5 5 0 1 1 10 0 5 5 0 0 1-10 0Z" class="primary"/>
    <path fill="#5FBEAC" d="M6 8a2 2 0 1 1 4 0 2 2 0 0 1-4 0Zm2-4a4 4 0 1 0 0 8 4 4 0 0 0 0-8Zm30 4a2 2 0 1 1 4 0 2 2 0 0 1-4 0Zm2-4a4 4 0 1 0 0 8 4 4 0 0 0 0-8ZM8 38a2 2 0 1 0 0 4 2 2 0 0 0 0-4Zm-4 2a4 4 0 1 1 8 0 4 4 0 0 1-8 0Zm34 0a2 2 0 1 1 4 0 2 2 0 0 1-4 0Zm2-4a4 4 0 1 0 0 8 4 4 0 0 0 0-8Z" class="secondary"/>
  </g>
</svg>
