<svg xmlns="http://www.w3.org/2000/svg" width="48" height="48" fill="none" viewBox="0 0 48 48">
  <g fill-rule="evenodd" class="schedule" clip-rule="evenodd">
    <g fill="#FF462D" class="secondary">
      <path d="M24 34c0-5.522 4.478-10 10-10s10 4.478 10 10-4.478 10-10 10-10-4.478-10-10Zm10-8c-4.417 0-8 3.583-8 8s3.583 8 8 8 8-3.583 8-8-3.583-8-8-8Z"/>
      <path d="M38.633 30.226a1 1 0 0 1 .142 1.407l-4.901 6a1 1 0 0 1-1.55-.001l-2.1-2.576a1 1 0 1 1 1.551-1.263l1.325 1.625 4.125-5.05a1 1 0 0 1 1.408-.142Z"/>
    </g>
    <path fill="#3D3C3C" d="M26.971 5.952a1 1 0 0 1 1 1v5.867a1 1 0 0 1-2 0V11H16v1.867a1 1 0 1 1-2 0V7a1 1 0 1 1 2 0v2h9.971V6.952a1 1 0 0 1 1-1ZM8.421 11C7.039 11 6 12.056 6 13.265V16h30v-2.694C36 12.059 34.951 11 33.605 11H33a1 1 0 1 1 0-2h.605C36.005 9 38 10.905 38 13.306V21a1 1 0 1 1-2 0v-3H6v21.735C6 40.942 7.046 42 8.422 42H24a1 1 0 1 1 0 2H8.422C6.035 44 4 42.138 4 39.735v-26.47C4 10.864 6.023 9 8.422 9h.575a1 1 0 1 1 0 2h-.575Zm1.7 11h.758c.62 0 1.121.469 1.121 1.043v.914c0 .574-.502 1.043-1.12 1.043h-.76C9.503 25 9 24.531 9 23.957v-.914C9 22.469 9.502 22 10.12 22Zm7 0h.758c.62 0 1.121.469 1.121 1.043v.914c0 .574-.502 1.043-1.12 1.043h-.76c-.618 0-1.12-.469-1.12-1.043v-.914c0-.574.502-1.043 1.12-1.043Zm-6.242 6h-.758C9.502 28 9 28.469 9 29.043v.914C9 30.531 9.502 31 10.12 31h.76c.618 0 1.12-.469 1.12-1.043v-.914c0-.574-.502-1.043-1.12-1.043Zm6.242 0h.758c.62 0 1.121.469 1.121 1.043v.914c0 .574-.502 1.043-1.12 1.043h-.76c-.618 0-1.12-.469-1.12-1.043v-.914c0-.574.502-1.043 1.12-1.043Zm-6.242 6h-.758C9.502 34 9 34.469 9 35.043v.914C9 36.531 9.502 37 10.12 37h.76c.618 0 1.12-.469 1.12-1.043v-.914c0-.574-.502-1.043-1.12-1.043Zm6.242 0h.758c.62 0 1.121.469 1.121 1.043v.914c0 .574-.502 1.043-1.12 1.043h-.76c-.618 0-1.12-.469-1.12-1.043v-.914c0-.574.502-1.043 1.12-1.043Z" class="primary"/>
  </g>
</svg>
