<svg xmlns="http://www.w3.org/2000/svg" width="48" height="48" fill="none" viewBox="0 0 48 48">
  <g fill-rule="evenodd" class="security-&amp;-resiliency" clip-rule="evenodd">
    <path fill="#3D3C3C" d="M25.082 4.26a2.387 2.387 0 0 0-2.163-.001c-6.662 3.387-12.81 5.247-15.154 5.893H7.76c-.95.266-1.761 1.08-1.761 2.18v16.254c0 2.096 1.004 4.021 2.402 5.694 1.402 1.68 3.275 3.195 5.194 4.493 3.84 2.598 8.03 4.436 9.49 5.043a2.366 2.366 0 0 0 1.828 0c1.459-.607 5.649-2.442 9.49-5.04 1.919-1.297 3.792-2.812 5.194-4.492 1.4-1.674 2.403-3.6 2.403-5.698V12.332c0-1.1-.81-1.914-1.761-2.18h-.003c-2.347-.646-8.494-2.497-15.154-5.893ZM23.83 6.04a.388.388 0 0 1 .34 0h.002c6.825 3.48 13.114 5.374 15.53 6.04a.507.507 0 0 1 .251.146c.04.047.047.082.047.106v16.254c0 1.446-.696 2.93-1.937 4.416-1.236 1.48-2.94 2.874-4.78 4.118-3.675 2.485-7.72 4.26-9.138 4.85h-.002a.366.366 0 0 1-.286 0h-.002c-1.417-.59-5.463-2.367-9.138-4.853-1.84-1.245-3.544-2.64-4.78-4.119C8.695 31.512 8 30.029 8 28.586V12.332c0-.024.007-.06.047-.106a.507.507 0 0 1 .25-.147c2.419-.666 8.706-2.568 15.53-6.038l.003-.002ZM8.298 12.08l.001-.001-.269-.963.265.964h.003Zm31.404 0-.001-.001.269-.963-.265.964h-.003ZM18 30.732v-8.466c3.586-.356 8.414-.356 12 0v8.466c-3.586.356-8.414.356-12 0Zm12.484-10.426c-3.841-.41-9.127-.41-12.968 0h-.005c-.804.09-1.511.756-1.511 1.65v9.086c0 .895.707 1.56 1.51 1.65h.006c3.841.41 9.127.41 12.968 0h.005c.794-.089 1.511-.737 1.511-1.65v-9.086c0-.895-.707-1.56-1.51-1.65h-.006Z" class="primary"/>
    <path fill="#FF462D" d="M24 13c-1.632 0-3 1.365-3 3.075V17a1 1 0 1 1-2 0v-.925C19 13.295 21.229 11 24 11c1.387 0 2.638.583 3.536 1.491l.005.005A5.101 5.101 0 0 1 29 16.076V17a1 1 0 1 1-2 0v-.925c0-.853-.338-1.616-.887-2.18A2.975 2.975 0 0 0 24 13Z" class="secondary"/>
  </g>
</svg>
