<svg xmlns="http://www.w3.org/2000/svg" width="48" height="48" fill="none" viewBox="0 0 48 48">
  <g fill-rule="evenodd" class="services-catalog" clip-rule="evenodd">
    <path fill="#29707A" d="M11.605 6C10.188 6 9 7.185 9 8.648V13h2a1 1 0 1 1 0 2H5a1 1 0 1 1 0-2h2V8.648C7 6.102 9.06 4 11.605 4h23.79C37.939 4 40 6.102 40 8.648V14a1 1 0 1 1-2 0V8.648C38 7.185 36.812 6 35.395 6h-23.79ZM8 37.542a1 1 0 0 1 1 1v.81C9 40.815 10.188 42 11.605 42h2.3a1 1 0 0 1 0 2h-2.3C9.061 44 7 41.898 7 39.352v-.81a1 1 0 0 1 1-1ZM4 24a1 1 0 0 1 1-1h2v-5a1 1 0 1 1 2 0v5h2a1 1 0 1 1 0 2H5a1 1 0 0 1-1-1Zm0 10a1 1 0 0 1 1-1h2v-5a1 1 0 1 1 2 0v5h2a1 1 0 1 1 0 2H5a1 1 0 0 1-1-1Zm30-13.224c0-.428.348-.776.776-.776h6.448c.428 0 .776.348.776.776v6.448a.776.776 0 0 1-.776.776h-6.448a.776.776 0 0 1-.776-.776v-6.448ZM34.776 18A2.776 2.776 0 0 0 32 20.776v6.448A2.776 2.776 0 0 0 34.776 30h6.448A2.776 2.776 0 0 0 44 27.224v-6.448A2.776 2.776 0 0 0 41.224 18h-6.448Zm0 16a.776.776 0 0 0-.776.776v6.448c0 .428.348.776.776.776h6.448a.776.776 0 0 0 .776-.776v-6.448a.776.776 0 0 0-.776-.776h-6.448ZM32 34.776A2.776 2.776 0 0 1 34.776 32h6.448A2.776 2.776 0 0 1 44 34.776v6.448A2.776 2.776 0 0 1 41.224 44h-6.448A2.776 2.776 0 0 1 32 41.224v-6.448Zm-12 0c0-.428.348-.776.776-.776h6.448c.428 0 .776.348.776.776v6.448a.776.776 0 0 1-.776.776h-6.448a.776.776 0 0 1-.776-.776v-6.448ZM20.776 32A2.776 2.776 0 0 0 18 34.776v6.448A2.776 2.776 0 0 0 20.776 44h6.448A2.776 2.776 0 0 0 30 41.224v-6.448A2.776 2.776 0 0 0 27.224 32h-6.448Z" class="primary"/>
    <path fill="#5FBEAC" d="M18.31 16c-.655 0-1.31.595-1.31 1.487v9.026c0 .892.655 1.487 1.31 1.487h8.38c.655 0 1.31-.595 1.31-1.487v-9.026c0-.892-.655-1.487-1.31-1.487h-8.38ZM15 17.487C15 15.632 16.413 14 18.31 14h8.38c1.897 0 3.31 1.632 3.31 3.487v9.026C30 28.368 28.587 30 26.69 30h-8.38C16.412 30 15 28.368 15 26.513v-9.026Z" class="secondary"/>
  </g>
</svg>
