<svg xmlns="http://www.w3.org/2000/svg" width="48" height="48" fill="none" viewBox="0 0 48 48">
  <g class="settings">
    <path fill="#FF462D" fill-rule="evenodd" d="M25.025 19.081a6.012 6.012 0 0 0-6.941 6.94c.404 2.473 2.415 4.484 4.89 4.893a6.012 6.012 0 0 0 6.942-6.94v-.001c-.404-2.472-2.415-4.483-4.89-4.892Zm-8.915 7.263a8.012 8.012 0 0 1 9.239-9.236h.001c3.32.547 5.997 3.22 6.54 6.543a8.012 8.012 0 0 1-9.239 9.236h-.001c-3.32-.548-5.997-3.22-6.54-6.542" class="secondary" clip-rule="evenodd"/>
    <path fill="#3D3C3C" d="M30.41 44.997a2.215 2.215 0 0 1-1.962-1.181l-1.686-3.066c-.076-.134-.2-.21-.305-.19-1.6.275-3.304.275-4.895 0-.114-.01-.238.056-.314.19l-1.686 3.066c-.305.553-.8.943-1.39 1.105a2.216 2.216 0 0 1-1.715-.248l-4.933-2.99c-1.048-.638-1.419-2.048-.819-3.143l1.686-3.076c.085-.162.076-.362-.02-.486a16.007 16.007 0 0 1-2.437-4.447.336.336 0 0 0-.305-.229H6.267c-1.238 0-2.257-1.038-2.257-2.324v-5.98c0-1.277 1.01-2.325 2.257-2.325h3.362a.323.323 0 0 0 .305-.228 16.258 16.258 0 0 1 2.438-4.448c.095-.123.104-.323.019-.485l-1.686-3.077c-.6-1.095-.229-2.504.82-3.142l4.923-2.972a2.21 2.21 0 0 1 1.714-.248c.59.162 1.086.553 1.39 1.105l1.686 3.067c.076.133.2.21.315.19a14.565 14.565 0 0 1 4.895 0c.114.02.238-.057.305-.19l1.685-3.067c.305-.552.8-.943 1.39-1.105a2.216 2.216 0 0 1 1.715.248l4.933 2.99c1.048.639 1.42 2.048.82 3.143l-1.686 3.077c-.086.162-.076.361.019.485a16.008 16.008 0 0 1 2.438 4.448.335.335 0 0 0 .305.229h3.362c1.238 0 2.257 1.038 2.257 2.323v5.981c0 1.276-1.01 2.324-2.257 2.324h-3.362a.323.323 0 0 0-.305.229 16.258 16.258 0 0 1-2.438 4.447c-.095.124-.105.324-.02.486l1.686 3.076c.6 1.095.23 2.505-.819 3.143l-4.933 2.99c-.352.21-.743.324-1.143.324l.01-.019Zm-3.924-6.343c.79 0 1.543.448 1.943 1.181l1.686 3.067a.344.344 0 0 0 .219.181.3.3 0 0 0 .228-.038l4.933-2.99c.191-.115.248-.391.134-.6l-1.686-3.077a2.34 2.34 0 0 1 .19-2.571 14.389 14.389 0 0 0 2.153-3.924 2.247 2.247 0 0 1 2.095-1.486h3.362c.19 0 .352-.19.352-.419v-5.98c0-.23-.152-.42-.352-.42h-3.362c-.933 0-1.78-.6-2.095-1.485a14.196 14.196 0 0 0-2.152-3.915 2.34 2.34 0 0 1-.19-2.571l1.685-3.076c.114-.21.047-.486-.133-.6l-4.934-2.99a.305.305 0 0 0-.228-.039.399.399 0 0 0-.22.181L28.43 10.15c-.467.847-1.39 1.304-2.305 1.152a12.776 12.776 0 0 0-4.257 0c-.914.152-1.838-.305-2.305-1.152l-1.686-3.067a.344.344 0 0 0-.219-.181.3.3 0 0 0-.228.038l-4.933 2.99c-.191.115-.248.391-.134.6l1.686 3.077a2.34 2.34 0 0 1-.19 2.571 14.248 14.248 0 0 0-2.153 3.924 2.247 2.247 0 0 1-2.095 1.486H6.248c-.19 0-.353.19-.353.419v5.98c0 .23.153.42.353.42H9.61c.933 0 1.78.6 2.095 1.485a13.844 13.844 0 0 0 2.152 3.915 2.34 2.34 0 0 1 .19 2.571l-1.685 3.076c-.114.21-.047.486.133.6l4.934 2.99a.306.306 0 0 0 .228.039c.086-.02.162-.086.22-.181l1.685-3.067c.467-.847 1.39-1.304 2.305-1.152a12.78 12.78 0 0 0 4.257 0 2.19 2.19 0 0 1 .352-.029h.01Z" class="primary"/>
  </g>
</svg>
