<svg xmlns="http://www.w3.org/2000/svg" width="48" height="48" fill="none" viewBox="0 0 48 48">
  <g fill-rule="evenodd" class="subscription" clip-rule="evenodd">
    <path fill="#3D3C3C" d="M23.952 5.974C14.004 5.974 5.947 14.04 5.947 24c0 3.43.43 6.927 1.91 9.488a.997.997 0 1 1-1.727 1C4.376 31.455 3.95 27.514 3.95 24c0-11.063 8.95-20.024 20-20.024 4.69 0 9.42 1.598 12.97 4.338V5.022a.998.998 0 1 1 1.995 0v5.993a.998.998 0 0 1-.998 1h-5.986a.998.998 0 0 1 0-1.998h3.924c-3.193-2.526-7.556-4.043-11.905-4.043ZM9.985 35.986a.998.998 0 0 0-.997.998v5.993a.998.998 0 1 0 1.995 0v-3.195c3.539 2.906 8.106 4.194 12.97 4.194 11.046 0 20-8.91 20-19.976 0-3.566-.441-6.483-2.178-9.49a.997.997 0 1 0-1.727 1c1.494 2.587 1.909 5.112 1.909 8.49 0 9.956-8.054 17.978-18.005 17.978-4.668 0-8.865-1.272-12.005-3.995h4.024a.998.998 0 0 0 0-1.997H9.985Z" class="primary"/>
    <path fill="#FF462D" d="M28 18h-8a2 2 0 0 0-2 2v8a2 2 0 0 0 2 2h8a2 2 0 0 0 2-2v-8a2 2 0 0 0-2-2Zm-8-2a4 4 0 0 0-4 4v8a4 4 0 0 0 4 4h8a4 4 0 0 0 4-4v-8a4 4 0 0 0-4-4h-8Z" class="secondary"/>
  </g>
</svg>
