<svg xmlns="http://www.w3.org/2000/svg" width="48" height="48" fill="none" viewBox="0 0 48 48">
  <g fill-rule="evenodd" class="tags" clip-rule="evenodd">
    <path fill="#3D3C3C" d="M28.739 6.033c-.436-.105-.834.016-1.095.277L6.082 27.874c-.093.091-.16.355.072.588L19.54 41.849c.225.225.495.167.594.067l21.557-21.559c.26-.26.382-.658.277-1.094a.86.86 0 0 1-.01-.043l-2-10.255a1.295 1.295 0 0 0-.922-.923l-10.255-2a1.017 1.017 0 0 1-.042-.01Zm.443-1.946c-1.058-.247-2.17.033-2.948.812L4.68 26.454c-.986.974-.842 2.513.064 3.419L18.13 43.26c.915.916 2.45 1.031 3.415.067l21.556-21.559c.78-.779 1.059-1.89.812-2.949l-2-10.26a3.29 3.29 0 0 0-2.47-2.47l-10.26-2.002Z" class="primary"/>
    <path fill="#FF462D" d="M33 12a3 3 0 1 0 0 6 3 3 0 0 0 0-6Zm-5 3a5 5 0 1 1 10 0 5 5 0 0 1-10 0Z" class="secondary"/>
  </g>
</svg>
