<svg xmlns="http://www.w3.org/2000/svg" width="48" height="48" fill="none" viewBox="0 0 48 48">
  <g class="template">
    <g fill="#3D3C3C" class="primary">
      <path fill-rule="evenodd" d="M7.99 19.981a2.994 2.994 0 0 1 2.992-2.997h8.976a2.994 2.994 0 0 1 2.992 2.997v16.98a2.994 2.994 0 0 1-2.992 2.996h-8.976a2.994 2.994 0 0 1-2.992-2.996V19.98Zm2.992-.999a.998.998 0 0 0-.998.999v16.98a1 1 0 0 0 .998.999h8.976a1 1 0 0 0 .998-1V19.982a.998.998 0 0 0-.998-.999h-8.976Z" clip-rule="evenodd"/>
      <path d="M25.942 17.983c0-.551.447-.998.998-.998h11.969a.998.998 0 0 1 0 1.997h-11.97a.998.998 0 0 1-.997-.999Zm0 3.996a1 1 0 0 1 .998-1h11.969a.998.998 0 0 1 0 1.998h-11.97a.998.998 0 0 1-.997-.998ZM11.159 7.995h.738c.622 0 1.127.464 1.127 1.036v.925c0 .572-.505 1.036-1.127 1.036h-.738c-.623 0-1.127-.464-1.127-1.036V9.03c0-.572.504-1.036 1.127-1.036Zm5.725 0h-.738c-.623 0-1.127.464-1.127 1.036v.925c0 .572.504 1.036 1.127 1.036h.738c.622 0 1.127-.464 1.127-1.036V9.03c0-.572-.505-1.036-1.127-1.036Zm4.249 0h.738c.622 0 1.127.464 1.127 1.036v.925c0 .572-.505 1.036-1.127 1.036h-.738c-.623 0-1.127-.464-1.127-1.036V9.03c0-.572.504-1.036 1.127-1.036Z"/>
      <path fill-rule="evenodd" d="M4.047 9.479C4.047 6.578 6.141 4 8.987 4h30.017c2.846 0 4.939 2.578 4.939 5.479v3.51H44v25.703C44 41.539 41.866 44 39.051 44H8.95C6.134 44 4 41.54 4 38.692V12.989h.047V9.48Zm1.948 5.508h36.01v23.705c0 1.909-1.399 3.31-2.954 3.31H8.95c-1.555 0-2.954-1.401-2.954-3.31V14.987Zm35.953-5.508v3.51H6.042V9.48c0-2.044 1.432-3.481 2.945-3.481h30.017c1.513 0 2.944 1.437 2.944 3.48Z" clip-rule="evenodd"/>
    </g>
    <path fill="#FF462D" fill-rule="evenodd" d="M25 28a3 3 0 0 1 3-3h9a3 3 0 0 1 3 3v9a3 3 0 0 1-3 3h-9a3 3 0 0 1-3-3v-9Zm3-1a1 1 0 0 0-1 1v9a1 1 0 0 0 1 1h9a1 1 0 0 0 1-1v-9a1 1 0 0 0-1-1h-9Z" class="secondary" clip-rule="evenodd"/>
  </g>
</svg>
