<svg xmlns="http://www.w3.org/2000/svg" width="48" height="48" fill="none" viewBox="0 0 48 48">
  <g fill-rule="evenodd" class="ticket" clip-rule="evenodd">
    <path fill="#3D3C3C" d="M5.054 9.992a1 1 0 0 0-.861.493.995.995 0 0 0-.194.591v9.048a.998.998 0 0 0 1 1c1.699 0 3.014 1.318 3.014 2.876 0 1.558-1.315 2.876-3.014 2.876a1 1 0 0 0-1 1V37a1 1 0 0 0 1 1l37.946.008a1 1 0 0 0 .865-.498.996.996 0 0 0 .19-.586v-9.048a1 1 0 0 0-1-1c-1.689 0-3.002-1.315-3.002-2.876 0-1.56 1.313-2.876 3.002-2.876a1 1 0 0 0 1-1V11.03a1 1 0 0 0-1-1.039H5.054ZM42 19.222v-7.23H5.999v7.23c2.27.447 4.014 2.39 4.014 4.778 0 2.387-1.744 4.33-4.014 4.779V36l36 .008v-7.23c-2.264-.449-4-2.394-4-4.778 0-2.384 1.736-4.33 4-4.778Z" class="primary"/>
    <path fill="#FF462D" d="M15.006 14.008a1 1 0 0 1 1.002.998l.004 2a1 1 0 1 1-2 .004l-.004-2a1 1 0 0 1 .998-1.002ZM14.989 22a1 1 0 0 1 1 1v2a1 1 0 0 1-2 0v-2a1 1 0 0 1 1-1Zm1.016 8.998a1 1 0 1 0-2 0v2a1 1 0 1 0 2 0v-2Z" class="secondary"/>
  </g>
</svg>
