<svg xmlns="http://www.w3.org/2000/svg" width="48" height="48" fill="none" viewBox="0 0 48 48">
  <g class="Size=S">
    <g class="Icon">
      <path fill="#3D3C3C" d="M31.102 37.004a1 1 0 0 1 0 1.99L31 39H17a1 1 0 1 1 0-2h14l.102.005ZM24 11a1 1 0 0 1 1 1v9.126a4.01 4.01 0 0 1 2.35 1.69l9.32-3.26a1.001 1.001 0 0 1 .66 1.889l-9.342 3.268a3.984 3.984 0 0 1-1 2.943l5.319 7.253.055.086a1 1 0 0 1-1.604 1.176l-.065-.079-5.367-7.318a3.99 3.99 0 0 1-2.675-.007l-6.419 6.914a1 1 0 0 1-1.464-1.361l6.214-6.695a3.985 3.985 0 0 1-.971-2.912l-9.341-3.268-.095-.04a1 1 0 0 1 .657-1.877l.098.028 9.318 3.26A4.007 4.007 0 0 1 23 21.126V12a1 1 0 0 1 1-1ZM8.706 21.044a1 1 0 0 1 1.215.565l.035.097 4 13 .024.098a1 1 0 0 1-1.936.49l-4-13-.024-.1a1 1 0 0 1 .686-1.15Zm29.32.732a1 1 0 0 1 1.949.45l-3 13a1.001 1.001 0 0 1-1.95-.45l3-13ZM24 23a2 2 0 1 0 0 4 2 2 0 0 0 0-4ZM20.375 9.218a1.001 1.001 0 0 1 1.25 1.563l-10 8a1 1 0 0 1-1.25-1.563l10-8Zm5.844.157a1 1 0 0 1 1.323-.216l.083.06 10 8 .076.068a1 1 0 0 1-1.243 1.553l-.083-.06-10-8-.076-.068a1 1 0 0 1-.08-1.337Z" class="primary"/>
      <path fill="#FF462D" d="M14 34a4 4 0 1 1 0 8 4 4 0 0 1 0-8Zm20 0a4 4 0 1 1 0 8 4 4 0 0 1 0-8Zm-20 2a2 2 0 1 0 0 4 2 2 0 0 0 0-4Zm20 0a2 2 0 1 0 0 4 2 2 0 0 0 0-4ZM8 15a4 4 0 1 1 0 8 4 4 0 0 1 0-8Zm32 0a4 4 0 1 1 0 8 4 4 0 0 1 0-8ZM8 17a2 2 0 1 0 0 4 2 2 0 0 0 0-4Zm32 0a2 2 0 1 0 0 4 2 2 0 0 0 0-4ZM24 5a4 4 0 1 1 0 8 4 4 0 0 1 0-8Zm0 2a2 2 0 1 0 0 4 2 2 0 0 0 0-4Z" class="secondary"/>
    </g>
  </g>
</svg>
