<svg xmlns="http://www.w3.org/2000/svg" width="48" height="48" fill="none" viewBox="0 0 48 48">
  <g fill-rule="evenodd" class="track" clip-rule="evenodd">
    <path fill="#3D3C3C" d="M8 11a5 5 0 1 1 10 0 5 5 0 0 1-10 0Zm5-7a7 7 0 1 0 6.93 8h11.975a5.662 5.662 0 0 1 5.666 5.667 5.662 5.662 0 0 1-5.666 5.666H16.667A7.662 7.662 0 0 0 9 31a7.662 7.662 0 0 0 7.667 7.667H28.5a1 1 0 0 0 0-2H16.667A5.662 5.662 0 0 1 11 31a5.662 5.662 0 0 1 5.667-5.667h15.238a7.662 7.662 0 0 0 7.666-7.666A7.662 7.662 0 0 0 31.905 10H19.929A7.001 7.001 0 0 0 13 4Z" class="primary"/>
    <path fill="#FF462D" d="M35 32a5 5 0 1 0 0 10 5 5 0 0 0 0-10Zm-7 5a7 7 0 1 1 14 0 7 7 0 0 1-14 0Z" class="secondary"/>
  </g>
</svg>
