<svg xmlns="http://www.w3.org/2000/svg" width="48" height="48" fill="none" viewBox="0 0 48 48">
  <g fill-rule="evenodd" class="user-manual" clip-rule="evenodd">
    <path fill="#3D3C3C" d="M11 8.648C11 7.185 12.188 6 13.605 6h23.79C38.812 6 40 7.185 40 8.648v30.704C40 40.815 38.812 42 37.395 42h-23.79C12.188 42 11 40.815 11 39.352v-1.224a1 1 0 1 0-2 0v1.224C9 41.898 11.06 44 13.605 44h23.79C39.939 44 42 41.898 42 39.352V8.648C42 6.102 39.94 4 37.395 4h-23.79C11.061 4 9 6.102 9 8.648V13H7a1 1 0 1 0 0 2h6a1 1 0 1 0 0-2h-2V8.648ZM7 23a1 1 0 1 0 0 2h6a1 1 0 1 0 0-2h-2v-5a1 1 0 1 0-2 0v5H7Zm0 10a1 1 0 1 0 0 2h6a1 1 0 1 0 0-2h-2v-4a1 1 0 1 0-2 0v4H7Z" class="primary"/>
    <path fill="#FF462D" d="M26 17.085a1.5 1.5 0 1 0 0-3 1.5 1.5 0 0 0 0 3Zm1 3.83a1 1 0 1 0-2 0v12a1 1 0 1 0 2 0v-12Z" class="secondary"/>
  </g>
</svg>
