<svg xmlns="http://www.w3.org/2000/svg" width="24" height="24" fill="currentColor" viewBox="0 0 24 24">
  <path fill-rule="evenodd" d="M3 12.004C3 7.036 7.031 3 12 3c4.97 0 9 4.03 9 8.996 0 .366-.023.726-.065 1.08A5.6 5.6 0 0 0 17.625 12c-1.477 0-2.82.57-3.824 1.5H8.138c-1.58 0-2.898 1.242-2.888 2.83l.012 1.636A8.96 8.96 0 0 1 3 12.004Zm19.5-.008c0 .825-.098 1.622-.275 2.39a5.625 5.625 0 0 1-7.836 7.84A10.43 10.43 0 0 1 12 22.5c-5.797 0-10.5-4.7-10.5-10.496C1.5 6.209 6.202 1.5 12 1.5c5.797 0 10.5 4.7 10.5 10.496ZM12 17.625a5.6 5.6 0 0 0 1.078 3.312A9.139 9.139 0 0 1 12 21a8.96 8.96 0 0 1-5.229-1.674L6.75 16.32c-.004-.705.589-1.32 1.388-1.32h4.51A5.6 5.6 0 0 0 12 17.625ZM12 6a2.25 2.25 0 1 0 0 4.5A2.25 2.25 0 0 0 12 6ZM8.25 8.25a3.75 3.75 0 1 1 7.5 0 3.75 3.75 0 0 1-7.5 0Zm9.375 5.25a4.125 4.125 0 1 0 0 8.25 4.125 4.125 0 0 0 0-8.25Zm2.44 3.494a.75.75 0 1 0-1.13-.988l-2.06 2.355-.56-.64a.75.75 0 0 0-1.13.988l1.125 1.285a.75.75 0 0 0 1.129 0l2.625-3Z" clip-rule="evenodd"/>
</svg>
