<svg xmlns="http://www.w3.org/2000/svg" width="24" height="24" fill="currentColor" viewBox="0 0 24 24">
  <path fill-rule="evenodd" d="M12 6a2.25 2.25 0 1 0 0 4.5A2.25 2.25 0 0 0 12 6ZM8.25 8.25a3.75 3.75 0 1 1 7.5 0 3.75 3.75 0 0 1-7.5 0Zm-1.5 8.069.023 3.176a.75.75 0 0 1-1.5.01L5.25 16.33c-.01-1.588 1.31-2.83 2.888-2.83h5.737a.75.75 0 0 1 0 1.5H8.138c-.8 0-1.392.615-1.388 1.319Z" clip-rule="evenodd"/>
  <path fill-rule="evenodd" d="M12 3c-4.969 0-9 4.036-9 9.004C3 16.97 7.03 21 12 21a8.89 8.89 0 0 0 2.22-.276.75.75 0 1 1 .373 1.453c-.83.213-1.697.323-2.593.323-5.797 0-10.5-4.7-10.5-10.496C1.5 6.209 6.202 1.5 12 1.5c5.797 0 10.5 4.7 10.5 10.496 0 .907-.118 1.78-.33 2.619a.75.75 0 0 1-1.454-.367A9.162 9.162 0 0 0 21 11.995C21 7.03 16.97 3 12 3Z" clip-rule="evenodd"/>
  <path fill-rule="evenodd" d="M17.625 13.5a4.125 4.125 0 1 0 0 8.25 4.125 4.125 0 0 0 0-8.25ZM12 17.625a5.625 5.625 0 1 1 11.25 0 5.625 5.625 0 0 1-11.25 0Z" clip-rule="evenodd"/>
  <path fill-rule="evenodd" d="M19.994 15.936a.75.75 0 0 1 .07 1.058l-2.625 3a.75.75 0 0 1-1.13 0l-1.123-1.285a.75.75 0 0 1 1.128-.988l.56.64 2.062-2.355a.75.75 0 0 1 1.058-.07Z" clip-rule="evenodd"/>
</svg>
