<svg xmlns="http://www.w3.org/2000/svg" width="24" height="24" fill="currentColor" viewBox="0 0 24 24">
  <path d="M15.75 12a.72.72 0 0 1 .132.012l.016.003c.018.003.034.01.051.015.028.008.057.015.084.026.025.01.047.023.07.036.021.01.043.02.062.033.012.008.021.018.032.026a.74.74 0 0 1 .172.176l.006.01a.742.742 0 0 1 .061.113l.008.018a.746.746 0 0 1 .056.282v2.69l.75.75.75-.75v-2.69a.752.752 0 0 1 1.032-.694c1.652.672 2.718 2.166 2.718 4.069 0 1.511-.697 2.936-1.875 3.78l.004 1.843a.751.751 0 0 1-1.5.003l-.004-2.25a.75.75 0 0 1 .382-.655c.893-.502 1.493-1.54 1.493-2.721 0-.808-.273-1.486-.75-1.988v1.613a.75.75 0 0 1-.22.53l-1.5 1.5a.748.748 0 0 1-1.004.052l-.056-.052-1.5-1.5a.75.75 0 0 1-.22-.53v-1.587c-.469.504-.75 1.175-.75 1.962 0 1.165.636 2.218 1.505 2.727a.75.75 0 0 1 .37.648v2.25a.75.75 0 0 1-1.5 0V19.9c-1.133-.838-1.875-2.252-1.875-3.775 0-1.915 1.132-3.395 2.701-4.063A.747.747 0 0 1 15.75 12ZM19.5 1.5a2.25 2.25 0 0 1 2.25 2.25v6.375a.75.75 0 0 1-1.5 0V3.75A.75.75 0 0 0 19.5 3H3.75a.75.75 0 0 0-.75.75V16.5c0 .414.336.75.75.75h5.352a.75.75 0 0 1 0 1.5H3.75A2.25 2.25 0 0 1 1.5 16.5V3.75A2.25 2.25 0 0 1 3.75 1.5H19.5Zm-8.854 9c1.05 0 2.111.749 2.104 1.999v1.751A.75.75 0 0 1 12 15H5.25a.75.75 0 0 1-.75-.75v-1.683c-.003-.64.317-1.168.73-1.515.41-.345.953-.552 1.504-.552h3.912ZM6.734 12a.87.87 0 0 0-.539.2c-.144.122-.196.25-.195.36v.94h5.25v-1.008a.42.42 0 0 0-.146-.335.693.693 0 0 0-.458-.157H6.734Zm1.891-7.5a2.625 2.625 0 1 1 0 5.25 2.625 2.625 0 0 1 0-5.25Zm8.625 3a.75.75 0 0 1 0 1.5h-3a.75.75 0 0 1 0-1.5h3ZM8.625 6a1.125 1.125 0 1 0 0 2.25 1.125 1.125 0 0 0 0-2.25Zm8.625-.75a.75.75 0 0 1 0 1.5h-3a.75.75 0 0 1 0-1.5h3Z"/>
</svg>
