<svg xmlns="http://www.w3.org/2000/svg" width="24" height="24" fill="currentColor" viewBox="0 0 24 24">
  <path fill-rule="evenodd" d="M21 4.5H3v15h18v-15ZM3 3a1.5 1.5 0 0 0-1.5 1.5v15A1.5 1.5 0 0 0 3 21h18a1.5 1.5 0 0 0 1.5-1.5v-15A1.5 1.5 0 0 0 21 3H3Zm6 7.5a1.5 1.5 0 1 0 0-3 1.5 1.5 0 0 0 0 3ZM9 12a3 3 0 1 0 0-6 3 3 0 0 0 0 6Zm-3 2.81c0-.077.039-.202.217-.336a1.17 1.17 0 0 1 .683-.224h4.345c.26 0 .467.08.594.181.116.093.162.195.16.31v1.009H6v-.941Zm.9-2.06a2.67 2.67 0 0 0-1.588.528c-.443.335-.817.867-.812 1.542v1.68c0 .414.336.75.75.75h7.5a.75.75 0 0 0 .75-.75v-1.748c.01-1.319-1.202-2.002-2.255-2.002H6.9Zm7.35-5.25a.75.75 0 0 1 .75-.75h3.75a.75.75 0 0 1 0 1.5H15a.75.75 0 0 1-.75-.75ZM15 9.75a.75.75 0 0 0 0 1.5h3.75a.75.75 0 0 0 0-1.5H15Z" clip-rule="evenodd"/>
</svg>
