<svg xmlns="http://www.w3.org/2000/svg" width="24" height="24" fill="currentColor" viewBox="0 0 24 24">
  <path fill-rule="evenodd" d="M21 4.5H3v15h18v-15ZM3 3a1.5 1.5 0 0 0-1.5 1.5v15A1.5 1.5 0 0 0 3 21h18a1.5 1.5 0 0 0 1.5-1.5v-15A1.5 1.5 0 0 0 21 3H3Z" clip-rule="evenodd"/>
  <path fill-rule="evenodd" d="M9 10.5a1.5 1.5 0 1 0 0-3 1.5 1.5 0 0 0 0 3ZM9 12a3 3 0 1 0 0-6 3 3 0 0 0 0 6Zm-2.783 2.474c-.178.134-.218.26-.217.335v.941h6v-1.008a.377.377 0 0 0-.161-.31.963.963 0 0 0-.594-.182H6.9c-.25 0-.505.089-.683.224Zm-.905-1.196A2.67 2.67 0 0 1 6.9 12.75h4.345c1.053 0 2.265.683 2.255 2.002V16.5a.75.75 0 0 1-.75.75h-7.5a.75.75 0 0 1-.75-.75v-1.68c-.005-.675.369-1.207.812-1.542ZM14.25 7.5a.75.75 0 0 1 .75-.75h3.75a.75.75 0 0 1 0 1.5H15a.75.75 0 0 1-.75-.75Zm0 3a.75.75 0 0 1 .75-.75h3.75a.75.75 0 0 1 0 1.5H15a.75.75 0 0 1-.75-.75Z" clip-rule="evenodd"/>
</svg>
