<svg xmlns="http://www.w3.org/2000/svg" width="24" height="24" fill="none" viewBox="0 0 24 24">
  <path fill="#3D3C3C" fill-rule="evenodd" d="M3.75 3.75v4.5h16.5v-4.5H3.75ZM3 2.25a.75.75 0 0 0-.75.75v6c0 .414.336.75.75.75h18a.75.75 0 0 0 .75-.75V3a.75.75 0 0 0-.75-.75H3Zm.75 10.5v1.5h16.5v-1.5H3.75ZM3 11.25a.75.75 0 0 0-.75.75v3c0 .414.336.75.75.75h18a.75.75 0 0 0 .75-.75v-3a.75.75 0 0 0-.75-.75H3Zm.75 9v-1.5h16.5v1.5H3.75ZM2.25 18a.75.75 0 0 1 .75-.75h18a.75.75 0 0 1 .75.75v3a.75.75 0 0 1-.75.75H3a.75.75 0 0 1-.75-.75v-3Z" clip-rule="evenodd"/>
</svg>
