<svg xmlns="http://www.w3.org/2000/svg" width="24" height="24" fill="currentColor" viewBox="0 0 24 24">
  <path d="M7.5 3a.75.75 0 0 1 0 1.5H4.176C3.513 4.5 3 5.024 3 5.64v8.61h18V5.64c0-.616-.513-1.14-1.176-1.14H16.5a.75.75 0 0 1 0-1.5h3.324C21.288 3 22.5 4.169 22.5 5.64v10.47c0 1.471-1.212 2.64-2.676 2.64H12.75V21h3.75a.75.75 0 0 1 0 1.5h-9a.75.75 0 0 1 0-1.5h3.75v-2.25H4.176c-1.464 0-2.676-1.169-2.676-2.64V5.64C1.5 4.169 2.712 3 4.176 3H7.5ZM3 16.11c0 .616.513 1.14 1.176 1.14h15.648c.663 0 1.176-.524 1.176-1.14v-.36H3v.36ZM14.86 7.5c1.149 0 2.046.945 2.046 2.07v.004l-.014 2.038a1.135 1.135 0 0 1-1.134 1.131h-.009c-1.377-.014-6.04.007-7.437.007a1.142 1.142 0 0 1-1.142-1.144l-.014-2.032A2.053 2.053 0 0 1 9.201 7.5h5.66ZM9.201 9a.552.552 0 0 0-.543.504l-.002.058v.002l.011 1.685c1.556-.002 5.155-.014 6.728-.007l.011-1.673-.003-.06A.556.556 0 0 0 14.86 9H9.201ZM12 1.5a2.625 2.625 0 1 1 0 5.25 2.625 2.625 0 0 1 0-5.25ZM12 3a1.125 1.125 0 1 0 0 2.25A1.125 1.125 0 0 0 12 3Z"/>
</svg>
