<svg xmlns="http://www.w3.org/2000/svg" width="24" height="24" fill="currentColor" viewBox="0 0 24 24">
  <path fill-rule="evenodd" d="M8.625 10.875a2.625 2.625 0 1 1 5.25 0 2.625 2.625 0 0 1-5.25 0ZM11.25 9.75a1.125 1.125 0 1 0 0 2.25 1.125 1.125 0 0 0 0-2.25Zm-1.68 4.537c-1.027 0-2.077.857-2.07 2.07v1.68c0 .415.336.75.75.75h6a.75.75 0 0 0 .75-.75V16.29c.007-1.171-.897-2.002-1.954-2.002H9.57ZM9 16.35c-.002-.293.283-.562.57-.562h3.476c.245 0 .457.173.454.494v1.007H9v-.94Z" clip-rule="evenodd"/>
  <path d="M15 9.75a.75.75 0 0 1 .75-.75h3a.75.75 0 0 1 0 1.5h-3a.75.75 0 0 1-.75-.75Zm.75 1.5a.75.75 0 0 0 0 1.5h3a.75.75 0 0 0 0-1.5h-3Z"/>
  <path fill-rule="evenodd" d="M3.75 1.5A2.25 2.25 0 0 0 1.5 3.75v12A2.25 2.25 0 0 0 3.75 18h.75v1.5a2.25 2.25 0 0 0 2.25 2.25h13.5a2.25 2.25 0 0 0 2.25-2.25v-12a2.25 2.25 0 0 0-2.25-2.25h-.75v-1.5a2.25 2.25 0 0 0-2.25-2.25H3.75ZM18 5.25v-1.5a.75.75 0 0 0-.75-.75H3.75a.75.75 0 0 0-.75.75v12c0 .414.336.75.75.75h.75v-9a2.25 2.25 0 0 1 2.25-2.25H18ZM6 7.5a.75.75 0 0 1 .75-.75h13.5a.75.75 0 0 1 .75.75v12a.75.75 0 0 1-.75.75H6.75A.75.75 0 0 1 6 19.5v-12Z" clip-rule="evenodd"/>
</svg>
