<svg xmlns="http://www.w3.org/2000/svg" width="24" height="24" fill="currentColor" viewBox="0 0 24 24">
  <path d="M9.505 6.295a.75.75 0 0 1 .509 1.41c-1.557.56-2.745 2.024-2.745 3.795 0 .999.673 2.078 1.441 2.922l.164.194c.658.846.843 1.941.885 2.884h3.385c.06-1.096.396-2.22 1.189-3.099l.146-.174c.142-.177.27-.368.38-.574a.75.75 0 0 1 1.32.714 5.47 5.47 0 0 1-.725 1.031l-.004.005c-.56.62-.817 1.497-.817 2.472v.375a.75.75 0 0 1-.614.737V20.9c0 1.073-.918 1.85-1.934 1.85h-1.383c-1.016 0-1.933-.777-1.933-1.85v-1.945a.748.748 0 0 1-.5-.704v-.256c0-1.072-.159-2.003-.668-2.563-.825-.906-1.832-2.346-1.832-3.931 0-2.476 1.656-4.456 3.736-5.205Zm.764 14.604c0 .144.142.35.433.35h1.383c.292 0 .433-.206.434-.35V19h-2.25v1.9ZM17.722 1.33a.75.75 0 0 1 .97-.244l2.294 1.203a.75.75 0 0 1 .319 1.01l-.39.75c.184.25.343.514.477.789l.913.044a.75.75 0 0 1 .714.749v2.515a.75.75 0 0 1-.725.75l-.795.026a4.98 4.98 0 0 1-.185.395c-.005.01-.013.017-.018.026a5.485 5.485 0 0 1-.217.362l.488.844a.75.75 0 0 1-.28 1.029l-2.352 1.325a.752.752 0 0 1-1.04-.32l-.355-.71a4.74 4.74 0 0 1-.809.024l-.376.704a.75.75 0 0 1-1.008.309l-2.317-1.212a.751.751 0 0 1-.312-1.02l.398-.74a5.014 5.014 0 0 1-.451-.74l-.792.026a.75.75 0 0 1-.775-.727l-.08-2.625a.75.75 0 0 1 .726-.772l.793-.027a4.525 4.525 0 0 1 .413-.775l-.417-.68a.75.75 0 0 1 .242-1.03l2.216-1.382.066-.037a.75.75 0 0 1 .97.28l.417.679a4.67 4.67 0 0 1 .862-.03l.377-.703.039-.065ZM4 10a.75.75 0 0 1 0 1.5H1.75a.75.75 0 0 1 0-1.5H4Zm14.389-6.745a.752.752 0 0 1-.796.384 3.215 3.215 0 0 0-1.34.046.75.75 0 0 1-.816-.335l-.292-.473-.945.589.293.477a.75.75 0 0 1-.068.88c-.137.16-.262.35-.38.567a3.65 3.65 0 0 0-.263.642.75.75 0 0 1-.69.524l-.551.018.033 1.125.551-.017.12.004c.274.035.512.22.61.485.16.434.398.833.711 1.172a.75.75 0 0 1 .11.866l-.278.513.986.514.265-.495.066-.101a.751.751 0 0 1 .73-.284c.444.08.901.061 1.338-.046a.752.752 0 0 1 .852.394l.25.505 1.004-.566-.354-.612a.75.75 0 0 1 .078-.862 3.3 3.3 0 0 0 .38-.568c.001-.004.005-.007.007-.011a3.87 3.87 0 0 0 .256-.626l.044-.11a.75.75 0 0 1 .645-.414l.574-.02V6.347l-.667-.032a.751.751 0 0 1-.668-.489 3.513 3.513 0 0 0-.712-1.173.75.75 0 0 1-.116-.854l.273-.528-.976-.51-.264.495Zm-1.37 1.495a2.25 2.25 0 1 1-.002 4.501 2.25 2.25 0 0 1 .002-4.501Zm0 1.5a.751.751 0 0 0 0 1.5.75.75 0 0 0 0-1.5ZM4.489 4.97a.75.75 0 0 1 1.06 0l1.5 1.5.052.057a.75.75 0 0 1-1.055 1.055l-.058-.052-1.5-1.5a.75.75 0 0 1 0-1.06ZM10 1.75a.75.75 0 0 1 .75.75v2.25l-.003.077a.751.751 0 0 1-1.493 0L9.25 4.75V2.5a.75.75 0 0 1 .75-.75Z"/>
</svg>
