<svg xmlns="http://www.w3.org/2000/svg" width="24" height="24" fill="currentColor" viewBox="0 0 24 24">
  <path fill-rule="evenodd" d="M12 2.95a9.05 9.05 0 1 0 0 18.1 9.05 9.05 0 0 0 0-18.1ZM1.45 12C1.45 6.173 6.173 1.45 12 1.45c5.827 0 10.55 4.723 10.55 10.55 0 5.827-4.723 10.55-10.55 10.55-5.827 0-10.55-4.723-10.55-10.55Zm5.3 0a.75.75 0 0 1 .75-.75h3.75V7.5a.75.75 0 0 1 1.5 0v3.75h3.75a.75.75 0 1 1 0 1.5h-3.75v3.75a.75.75 0 1 1-1.5 0v-3.75H7.5a.75.75 0 0 1-.75-.75Z" clip-rule="evenodd"/>
</svg>
