<svg xmlns="http://www.w3.org/2000/svg" width="24" height="24" fill="currentColor" viewBox="0 0 24 24">
  <path fill-rule="evenodd" d="M11.25 3a8.25 8.25 0 0 0-5.243 14.62L6 16.693v-.001a2.433 2.433 0 0 1 2.444-2.442H12a.75.75 0 0 1 0 1.5H8.444a.933.933 0 0 0-.944.933l.015 1.925a8.22 8.22 0 0 0 3.735.892.75.75 0 0 1 0 1.5c-5.385 0-9.75-4.365-9.75-9.75S5.865 1.5 11.25 1.5c4.832 0 8.841 3.514 9.615 8.126a.75.75 0 1 1-1.48.248A8.252 8.252 0 0 0 11.25 3Zm-1.5 6.375a1.875 1.875 0 1 1 3.75 0 1.875 1.875 0 0 1-3.75 0ZM11.625 6a3.375 3.375 0 1 0 0 6.75 3.375 3.375 0 0 0 0-6.75Zm4.125 9.75v-1.587c-.469.504-.75 1.175-.75 1.962 0 1.165.635 2.219 1.504 2.728.23.134.371.38.371.647v2.25a.75.75 0 0 1-1.5 0v-1.848c-1.133-.837-1.875-2.253-1.875-3.777 0-1.91 1.127-3.387 2.69-4.058a.741.741 0 0 1 .418-.06.75.75 0 0 1 .642.76v2.672l.75.75.75-.75V12.75a.75.75 0 0 1 1.033-.695c1.652.673 2.717 2.167 2.717 4.07 0 1.512-.695 2.94-1.874 3.785l.003 1.839a.75.75 0 0 1-1.5.002l-.004-2.25a.75.75 0 0 1 .383-.655C20.4 18.344 21 17.306 21 16.125c0-.809-.273-1.486-.75-1.988v1.613a.75.75 0 0 1-.22.53l-1.5 1.5a.75.75 0 0 1-1.06 0l-.002-.001-1.498-1.499a.75.75 0 0 1-.22-.53Z" clip-rule="evenodd"/>
</svg>
