<svg xmlns="http://www.w3.org/2000/svg" width="24" height="24" fill="currentColor" viewBox="0 0 24 24">
  <path d="M10.589 2.25a.75.75 0 0 1 0 1.5c-3.802 0-6.864 3.033-6.864 6.75s3.062 6.75 6.864 6.75c3.219 0 5.913-2.177 6.659-5.102a.75.75 0 0 1 1.453.37 8.19 8.19 0 0 1-1.806 3.4c.016.014.035.026.051.042l5.32 5.318a.716.716 0 0 1-1.012 1.012l-5.32-5.318a.795.795 0 0 1-.063-.078 8.402 8.402 0 0 1-5.282 1.856c-4.609 0-8.364-3.683-8.364-8.25s3.755-8.25 8.364-8.25Zm7.386 5.25a.75.75 0 0 1 0 1.5h-4.5a.75.75 0 0 1 0-1.5h4.5Zm3.75-3a.75.75 0 0 1 0 1.5h-8.25a.75.75 0 0 1 0-1.5h8.25Zm0-3a.75.75 0 0 1 0 1.5h-8.25a.75.75 0 0 1 0-1.5h8.25Z"/>
</svg>
