<svg xmlns="http://www.w3.org/2000/svg" width="24" height="24" fill="currentColor" viewBox="0 0 24 24">
  <path fill-rule="evenodd" d="M18.209 13.29c.778-.15 1.605-.186 2.177-.134.107.01.206.017.295.021a2.01 2.01 0 0 1 1.216.52c.317.285.603.726.603 1.265v5.26c0 .828-.677 1.51-1.525 1.48-.568-.019-1.272-.047-1.89-.054a15.038 15.038 0 0 0-.805.01 3.981 3.981 0 0 0-.347.03 1.124 1.124 0 0 0-.591.407 1.006 1.006 0 0 0-.124.22l-.001.001-.01.026-.008.026-.019.041a.832.832 0 0 1-.1.162.756.756 0 0 1-.071.075l-.008.007a.746.746 0 0 1-.097.074l-.005.003a.742.742 0 0 1-.212.092l-.017.004-.043.008-.023.005H16.6a.752.752 0 0 1-.201 0h-.003c-.008 0-.016-.003-.023-.005l-.044-.008-.01-.003a.688.688 0 0 1-.214-.09l-.013-.008a.755.755 0 0 1-.194-.181l-.014-.02a.751.751 0 0 1-.055-.093l-.01-.022-.019-.041-.008-.026-.009-.026v-.001a1.006 1.006 0 0 0-.124-.22 1.13 1.13 0 0 0-.592-.407 3.981 3.981 0 0 0-.347-.03c-.22-.01-.497-.013-.805-.01-.618.007-1.322.035-1.89.055a1.476 1.476 0 0 1-1.525-1.481v-5.26c0-.54.286-.98.603-1.265a2.01 2.01 0 0 1 1.216-.52 7.53 7.53 0 0 0 .295-.021c.572-.052 1.4-.015 2.177.135a5.95 5.95 0 0 1 1.156.335c.186.078.375.174.553.291.178-.117.367-.213.553-.29.362-.152.764-.26 1.156-.336Zm-3.702 1.474c-.655-.127-1.34-.152-1.757-.114a9.16 9.16 0 0 1-.355.025.522.522 0 0 0-.29.138c-.095.085-.104.146-.105.15v5.239c.552-.02 1.268-.047 1.898-.054.32-.003.629-.001.89.01.233.011.513.032.723.097.083.026.163.055.239.086v-5.117a1.612 1.612 0 0 0-.382-.214 4.47 4.47 0 0 0-.86-.246Zm5.743-.114c-.418-.038-1.102-.013-1.757.114a4.47 4.47 0 0 0-.86.246c-.181.075-.304.15-.383.214v5.117c.076-.031.156-.06.24-.086.21-.065.49-.086.722-.096.261-.012.57-.014.89-.01.63.006 1.346.034 1.898.053v-5.24c0 .004-.005-.059-.105-.15a.522.522 0 0 0-.29-.137 9.16 9.16 0 0 1-.355-.025Z" clip-rule="evenodd"/>
  <path fill-rule="evenodd" d="M4.857.9a.75.75 0 0 1 1.05.15l1.305 1.74 1.303-1.74a.75.75 0 0 1 1.2.899L8.669 3.347H13.5a3 3 0 0 1 3 3v.75l.116.003a2.25 2.25 0 0 1-.116 4.497l-.004.076A.75.75 0 0 1 15 11.597v-5.25a1.5 1.5 0 0 0-1.5-1.5H6a1.5 1.5 0 0 0-1.5 1.5v6.75a1.5 1.5 0 0 0 1.5 1.5h3a.75.75 0 0 1 0 1.5H6a3 3 0 0 1-3-3v-1.5l-.116-.003a2.25 2.25 0 0 1 0-4.494L3 7.097v-.75a3 3 0 0 1 2.762-2.99L4.707 1.95A.75.75 0 0 1 4.857.9ZM2.923 8.6a.75.75 0 0 0 0 1.492l.077.005v-1.5l-.077.003ZM16.5 10.097l.077-.005a.75.75 0 0 0-.077-1.495v1.5Z" clip-rule="evenodd"/>
  <path d="M11.378 10.427a.75.75 0 0 1 1.244.84c-.75 1.11-1.739 1.83-2.872 1.83-1.133 0-2.122-.72-2.872-1.83a.75.75 0 0 1 1.244-.84c.6.889 1.186 1.17 1.628 1.17.442 0 1.028-.281 1.628-1.17Zm-4.253-4.08a1.125 1.125 0 1 1 0 2.25 1.125 1.125 0 0 1 0-2.25Zm5.25 0a1.125 1.125 0 1 1 0 2.25 1.125 1.125 0 0 1 0-2.25Z"/>
</svg>
