<svg xmlns="http://www.w3.org/2000/svg" width="24" height="24" fill="currentColor" viewBox="0 0 24 24">
  <path d="M21 11.95a9 9 0 1 0-18 0 9 9 0 0 0 18 0Zm1.5 0c0 5.799-4.701 10.5-10.5 10.5S1.5 17.749 1.5 11.95 6.201 1.45 12 1.45s10.5 4.701 10.5 10.5Z"/>
  <path d="M15.71 5.386c.012-.037.068-.037.08 0 .11.365.447 1.374.948 1.875.502.502 1.512.84 1.876.95.037.011.037.067 0 .078-.364.11-1.374.448-1.876.95-.501.501-.839 1.51-.949 1.875-.011.037-.067.037-.078 0-.11-.365-.448-1.374-.95-1.875-.501-.502-1.51-.84-1.875-.95-.037-.011-.037-.067 0-.078.365-.11 1.374-.448 1.876-.95.5-.501.839-1.51.949-1.875Zm.375 8.249c.011-.037.068-.037.08 0 .082.26.285.83.578 1.122.293.293.862.496 1.122.578.037.012.037.068 0 .08-.26.082-.83.285-1.122.578-.293.292-.496.862-.578 1.122-.012.037-.069.037-.08 0-.082-.26-.285-.83-.578-1.122-.293-.293-.862-.496-1.122-.578-.037-.012-.037-.068 0-.08.26-.082.83-.285 1.122-.578.293-.293.496-.862.578-1.122ZM9.34 7.578a.038.038 0 0 1 .07 0c.172.382.962 2.071 1.826 2.936.865.864 2.554 1.654 2.936 1.826.03.014.03.056 0 .07-.382.172-2.071.962-2.936 1.826-.864.865-1.654 2.554-1.826 2.936a.038.038 0 0 1-.07 0c-.172-.382-.962-2.071-1.826-2.936-.865-.864-2.554-1.654-2.936-1.826a.038.038 0 0 1 0-.07c.382-.172 2.071-.962 2.936-1.826.864-.865 1.654-2.554 1.826-2.936Z"/>
</svg>
