<svg xmlns="http://www.w3.org/2000/svg" width="24" height="24" fill="currentColor" viewBox="0 0 24 24">
  <path fill-rule="evenodd" d="M18.44 12.691a2.388 2.388 0 0 1 3.362 0c.93.93.93 2.43 0 3.36l-5.747 5.744a.727.727 0 0 1-.345.195l-1.823.457a1.61 1.61 0 0 1-.375.046v.007c-.398 0-.78-.157-1.066-.442a1.486 1.486 0 0 1-.398-1.44h-.007l.458-1.823a.718.718 0 0 1 .195-.345l5.747-5.759Zm2.304 1.065a.87.87 0 0 0-1.237 0l-5.605 5.602-.405 1.62v.007l1.65-.397 5.597-5.594a.883.883 0 0 0 0-1.238Z" clip-rule="evenodd"/>
  <path d="M17.25 1.5a2.25 2.25 0 0 1 2.25 2.25v1.5a.75.75 0 0 1-1.5 0v-1.5a.75.75 0 0 0-.75-.75H3.75a.75.75 0 0 0-.75.75v13.5c0 .414.336.75.75.75h6.75a.75.75 0 0 1 0 1.5H3.75a2.25 2.25 0 0 1-2.25-2.25V3.75A2.25 2.25 0 0 1 3.75 1.5h13.5Z"/>
  <path d="M12.375 12a.75.75 0 0 1 .75.75v.375h.375a.75.75 0 0 1 0 1.5h-.375V15a.75.75 0 0 1-1.5 0v-.375h-.375a.75.75 0 0 1 0-1.5h.375v-.375a.75.75 0 0 1 .75-.75Zm4.875-1.5a.75.75 0 0 1 .75.75V12a.75.75 0 0 1-1.5 0v-.75a.75.75 0 0 1 .75-.75Z"/>
  <path fill-rule="evenodd" d="M10.693 3.75a.751.751 0 0 1 .627.354c.457.738.837 1.24 1.267 1.668.432.43.94.809 1.678 1.277a.75.75 0 0 1 .02 1.254c-1.447.98-2.06 1.622-2.982 2.982a.75.75 0 0 1-1.243-.002c-.906-1.346-1.558-1.965-2.996-2.991a.75.75 0 0 1 .015-1.23c1.49-1.01 2.1-1.645 2.977-2.975a.75.75 0 0 1 .637-.337Zm-.027 2.072a9.416 9.416 0 0 1-1.895 1.874c.764.597 1.333 1.143 1.91 1.883a9.644 9.644 0 0 1 1.873-1.878 8.825 8.825 0 0 1-1.024-.865 8.45 8.45 0 0 1-.864-1.014Z" clip-rule="evenodd"/>
  <path d="M15.75 9a.75.75 0 0 1 0 1.5H15A.75.75 0 0 1 15 9h.75Zm3.75 0a.75.75 0 0 1 0 1.5h-.75a.75.75 0 0 1 0-1.5h.75Zm-2.25-2.25a.75.75 0 0 1 .75.75v.75a.75.75 0 0 1-1.5 0V7.5a.75.75 0 0 1 .75-.75Z"/>
</svg>
