<svg xmlns="http://www.w3.org/2000/svg" width="24" height="24" fill="currentColor" viewBox="0 0 24 24">
  <path fill-rule="evenodd" d="M3 10.875a7.874 7.874 0 0 0 7.875 7.875c.412 0 .75.337.75.75s-.338.75-.75.75c-5.183 0-9.375-4.207-9.375-9.375S5.692 1.5 10.875 1.5s9.375 4.207 9.375 9.375c0 .412-.337.75-.75.75a.752.752 0 0 1-.75-.75A7.874 7.874 0 0 0 10.875 3 7.874 7.874 0 0 0 3 10.875ZM17.25 12a5.222 5.222 0 0 0-3 .945V7.44a.65.65 0 0 0-.225-.487.808.808 0 0 0-1.058 0 .648.648 0 0 0-.217.495v6.112c0 .188.075.36.21.495l.015.015s.053.03.075.045A5.209 5.209 0 0 0 12 17.258a5.251 5.251 0 0 0 10.5 0 5.251 5.251 0 0 0-5.25-5.25V12Zm0 9a3.747 3.747 0 0 1-3.75-3.75c0-2.07 1.672-3.75 3.75-3.75 2.078 0 3.75 1.68 3.75 3.75 0 2.07-1.68 3.75-3.75 3.75Zm2.94-4.035a.753.753 0 0 0-.165-.247l-1.5-1.5a.747.747 0 1 0-1.057 1.057l.217.218h-2.692a.752.752 0 0 0-.75.75c0 .412.337.75.75.75h2.692l-.217.217a.747.747 0 1 0 1.057 1.057l1.5-1.5a.75.75 0 0 0 .165-.817v.015ZM9.832 7.335a.842.842 0 0 0-.33-.42.844.844 0 0 0-.997 0 .862.862 0 0 0-.323.42l-2.145 6.157v.015a.542.542 0 0 0 .075.51.52.52 0 0 0 .443.233c.18 0 .33-.045.473-.143a.87.87 0 0 0 .3-.412l.48-1.455h2.385l.465 1.44a.91.91 0 0 0 .285.412l.022.015a.88.88 0 0 0 .495.158.523.523 0 0 0 .45-.232.587.587 0 0 0 .075-.533L9.848 7.343l-.016-.008ZM8.19 11.04 9 8.573l.81 2.467H8.19Zm5.835-4.087v-.008l.008.008h-.008Z" clip-rule="evenodd"/>
</svg>
