<svg xmlns="http://www.w3.org/2000/svg" width="24" height="24" fill="currentColor" viewBox="0 0 24 24">
  <path d="M12.968 6.95a.809.809 0 0 1 1.056 0 .65.65 0 0 1 .226.487v5.503a5.225 5.225 0 0 1 3-.944v.008a5.25 5.25 0 0 1 5.25 5.248 5.25 5.25 0 0 1-10.5 0 5.21 5.21 0 0 1 1.05-3.142c-.023-.015-.075-.045-.075-.045l-.015-.014a.693.693 0 0 1-.21-.495v-6.11c0-.196.075-.368.218-.496Zm4.282 6.546a3.746 3.746 0 0 0-3.75 3.748 3.751 3.751 0 0 0 7.5 0 3.746 3.746 0 0 0-3.75-3.748ZM10.875 1.5c5.182 0 9.375 4.206 9.375 9.372a.752.752 0 0 1-.75.75.752.752 0 0 1-.75-.75A7.874 7.874 0 0 0 10.875 3a7.873 7.873 0 1 0 0 15.745c.412 0 .75.337.75.75 0 .412-.338.75-.75.75-5.182 0-9.375-4.206-9.375-9.372C1.5 5.706 5.692 1.5 10.875 1.5Zm5.1 13.727a.747.747 0 1 1 1.057 1.058l-.218.217h2.693c.412 0 .75.338.75.75s-.338.75-.75.75h-2.693l.218.217a.747.747 0 1 1-1.057 1.057l-1.5-1.5a.753.753 0 0 1-.165-.247v.015a.75.75 0 0 1 .165-.817l1.5-1.5Zm-7.47-8.314a.844.844 0 0 1 .997 0c.15.098.263.24.33.42l.016.008 2.136 6.155a.587.587 0 0 1-.074.532.524.524 0 0 1-.45.233.883.883 0 0 1-.495-.159l-.023-.014a.909.909 0 0 1-.285-.412l-.465-1.44H7.808l-.48 1.454a.868.868 0 0 1-.3.412.8.8 0 0 1-.473.143.52.52 0 0 1-.443-.232.542.542 0 0 1-.075-.51v-.015l2.146-6.155a.861.861 0 0 1 .322-.42Zm-.316 4.123h1.62L9 8.57l-.81 2.466Zm5.843-4.086h-.008v-.007l.008.007Z"/>
</svg>
