<svg xmlns="http://www.w3.org/2000/svg" width="24" height="24" fill="currentColor" viewBox="0 0 24 24">
  <path d="M8.286 2.25a.75.75 0 0 0-1.5 0v2.975a.75.75 0 1 0 1.5 0v-.737h4.485v.737a.75.75 0 0 0 1.5 0V2.25a.75.75 0 1 0-1.5 0v.738H8.286V2.25Z"/>
  <path d="M3 5.269c0-.225.086-.392.239-.516.166-.135.455-.253.886-.253H4.5a.75.75 0 0 0 0-1.5h-.375c-.694 0-1.342.19-1.833.59A2.126 2.126 0 0 0 1.5 5.268v13.308c0 1.353 1.133 2.394 2.465 2.395h.003L8.245 21a.75.75 0 1 0 .01-1.5l-4.283-.028h-.004c-.566 0-.968-.43-.968-.895V8.25h15a.75.75 0 0 0 1.5 0V5.328C19.5 3.931 18.223 3 16.875 3H16.5a.75.75 0 0 0 0 1.5h.375c.762 0 1.125.482 1.125.828V6.75H3V5.269Z"/>
  <path fill-rule="evenodd" d="M15.45 13.642c.121.076.22.197.273.333l1.5 4.107a.48.48 0 0 1-.067.439.507.507 0 0 1-.44.22.807.807 0 0 1-.44-.13.72.72 0 0 1-.265-.348l-.296-.87h-1.448l-.303.886a.721.721 0 0 1-.258.34c-.25.19-.66.182-.856-.083a.442.442 0 0 1-.069-.44l1.509-4.113a.707.707 0 0 1 .273-.341.764.764 0 0 1 .887 0Zm-.463 1.644-.371 1.091h.743l-.372-1.091Z" clip-rule="evenodd"/>
  <path d="M18.574 13.5c.158 0 .291.053.401.16.11.105.15.242.15.386v4.159c0 .144-.055.28-.165.386a.584.584 0 0 1-.795.008l-.008-.016a.535.535 0 0 1-.157-.378v-4.16a.53.53 0 0 1 .165-.386.61.61 0 0 1 .41-.159Z"/>
  <path fill-rule="evenodd" d="M16.125 9.75a6.374 6.374 0 0 0-6.375 6.375 6.374 6.374 0 1 0 12.75 0 6.374 6.374 0 0 0-6.375-6.375Zm-4.875 6.375a4.874 4.874 0 0 1 4.875-4.875 4.874 4.874 0 1 1 0 9.75 4.874 4.874 0 0 1-4.875-4.875Z" clip-rule="evenodd"/>
</svg>
