<svg xmlns="http://www.w3.org/2000/svg" width="24" height="24" fill="currentColor" viewBox="0 0 24 24">
  <path d="M13.25 2c.203 0 .386.082.521.213h.003l5.25 5.132.105.248c.046.07.078.15.098.234l.023.054V9.5a.75.75 0 0 1-1.5 0v-.75h-3.451A1.8 1.8 0 0 1 12.5 6.951V3.5H4.852c-.764 0-1.352.6-1.352 1.304v15.392c0 .705.588 1.304 1.352 1.304H8.75a.75.75 0 0 1 0 1.5H4.852C3.292 23 2 21.761 2 20.196V4.804C2 3.239 3.293 2 4.852 2h8.398Zm2.625 8.25a6.374 6.374 0 1 1 0 12.75A6.374 6.374 0 0 1 9.5 16.625a6.374 6.374 0 0 1 6.375-6.375Zm0 1.5A4.874 4.874 0 0 0 11 16.625a4.874 4.874 0 1 0 9.75 0 4.874 4.874 0 0 0-4.875-4.875Zm2.45 2.25c.157 0 .29.053.4.16h-.015a.53.53 0 0 1 .165.386v4.158a.53.53 0 0 1-.165.387.585.585 0 0 1-.795.008l-.008-.016a.536.536 0 0 1-.157-.379v-4.158a.53.53 0 0 1 .165-.387.61.61 0 0 1 .41-.159Zm-4.012.142a.764.764 0 0 1 .887 0c.122.075.22.197.273.334l1.5 4.106a.48.48 0 0 1-.068.44.507.507 0 0 1-.44.218.807.807 0 0 1-.439-.128.721.721 0 0 1-.265-.348l-.296-.871h-1.447l-.304.885a.722.722 0 0 1-.258.341c-.25.19-.66.182-.856-.083-.099-.136-.13-.295-.069-.44l1.509-4.113a.707.707 0 0 1 .273-.341Zm.053 2.735h.742l-.37-1.09-.372 1.09ZM14 6.951a.3.3 0 0 0 .299.299h2.482L14 4.531v2.42Z"/>
</svg>
