<svg xmlns="http://www.w3.org/2000/svg" width="24" height="24" fill="none" viewBox="0 0 24 24">
  <path fill="#3D3C3C" fill-rule="evenodd" d="M7.5 7.933C7.546 5.146 9.637 3 12.096 3c1.937 0 3.638 1.325 4.3 3.25a3.958 3.958 0 0 0-.942.483.75.75 0 0 0 .857 1.231c.37-.258.876-.464 1.611-.464.75 0 1.523.362 2.118.975.594.612.961 1.423.961 2.243 0 .723-.104 1.181-.326 1.765a.75.75 0 0 0 1.402.534c.28-.737.424-1.376.424-2.3 0-1.262-.559-2.436-1.385-3.287C20.29 6.58 19.147 6 17.921 6h-.031c-.783-2.578-3.053-4.5-5.795-4.5-3.245 0-5.818 2.678-6.074 5.982a3.482 3.482 0 0 0-1.706.197C2.618 8.328 1.5 9.916 1.5 11.64c0 1.805 1.111 3.37 2.705 4.05a.75.75 0 1 0 .59-1.379C3.724 13.853 3 12.812 3 11.64c0-1.07.705-2.122 1.85-2.56.364-.138.763-.18 1.357-.044a.75.75 0 0 0 .038.008l.54.095A.75.75 0 0 0 7.5 7.933Zm.75 1.817a1.5 1.5 0 0 0-1.5 1.5V21a1.5 1.5 0 0 0 1.5 1.5h12a1.5 1.5 0 0 0 1.5-1.5v-5.247c0-1-.96-1.72-1.92-1.44l-4.08 1.188V11.25a1.5 1.5 0 0 0-1.5-1.5h-6Zm7.5 7.313V21h4.5v-5.247l-4.5 1.31Zm-1.5-1.126V15h-6v2.25h6v-1.313Zm0 2.813h-6V21h6v-2.25Zm0-7.5v2.25h-6v-2.25h6Z" clip-rule="evenodd"/>
</svg>
