<svg xmlns="http://www.w3.org/2000/svg" width="24" height="24" fill="none" viewBox="0 0 24 24">
  <path fill="#3D3C3C" fill-rule="evenodd" d="M12.83 14.49a.75.75 0 0 1 1.007-.333l4.125 2.077a.75.75 0 0 1-.674 1.34l-4.125-2.077a.75.75 0 0 1-.333-1.007Z" clip-rule="evenodd"/>
  <path fill="#3D3C3C" fill-rule="evenodd" d="M22.42 14.49a.75.75 0 0 1-.333 1.007l-4.125 2.077a.75.75 0 1 1-.674-1.34l4.125-2.077a.75.75 0 0 1 1.007.333Zm-4.103-2.073a.75.75 0 0 1-.34 1.005l-4.144 2.055a.75.75 0 1 1-.666-1.344l4.145-2.055a.75.75 0 0 1 1.005.339Z" clip-rule="evenodd"/>
  <path fill="#3D3C3C" fill-rule="evenodd" d="M16.955 12.413a.75.75 0 0 1 1.007-.333l4.125 2.077a.75.75 0 0 1-.674 1.34l-4.125-2.077a.75.75 0 0 1-.333-1.007ZM13.5 14.077a.75.75 0 0 1 .75.75v4.846a.75.75 0 0 1-1.5 0v-4.846a.75.75 0 0 1 .75-.75Z" clip-rule="evenodd"/>
  <path fill="#3D3C3C" fill-rule="evenodd" d="M21.75 14.077a.75.75 0 0 1 .75.75v4.846a.75.75 0 0 1-1.5 0v-4.846a.75.75 0 0 1 .75-.75Zm-4.125 2.077a.75.75 0 0 1 .75.75v4.846a.75.75 0 0 1-1.5 0v-4.846a.75.75 0 0 1 .75-.75Z" clip-rule="evenodd"/>
  <path fill="#3D3C3C" fill-rule="evenodd" d="M12.83 19.336a.75.75 0 0 1 1.007-.333l4.125 2.077a.75.75 0 1 1-.674 1.34l-4.125-2.077a.75.75 0 0 1-.333-1.007Z" clip-rule="evenodd"/>
  <path fill="#3D3C3C" fill-rule="evenodd" d="M22.42 19.336a.75.75 0 0 1-.333 1.007l-4.125 2.077a.75.75 0 1 1-.674-1.34l4.125-2.077a.75.75 0 0 1 1.007.333ZM14.972 1.697l.003.001 2.324 1.409h.002c.651.392.852 1.237.496 1.885m-.001.002L17.024 6.4a7.94 7.94 0 0 1 1.125 2.038h1.484c.794 0 1.367.667 1.367 1.398v.663a.75.75 0 0 1-1.5 0v-.56h-1.456c-.565 0-1.08-.353-1.274-.905a6.441 6.441 0 0 0-.97-1.765 1.42 1.42 0 0 1-.116-1.546l.759-1.383-2.11-1.278-.728 1.322c-.26.474-.8.8-1.402.693a5.815 5.815 0 0 0-1.91.001h-.002a1.346 1.346 0 0 1-1.395-.693l-.728-1.323-2.11 1.278.757 1.383a1.42 1.42 0 0 1-.11 1.54l-.003.004-.004.005a6.325 6.325 0 0 0-.97 1.766v.002c-.196.54-.704.898-1.272.898H3v2.622h1.456c.565 0 1.08.352 1.274.904.235.649.565 1.244.97 1.765a1.42 1.42 0 0 1 .116 1.546l-.759 1.383 2.11 1.278.728-1.323c.261-.474.804-.801 1.409-.691a.75.75 0 0 1-.135 1.488l-.755 1.372a1.344 1.344 0 0 1-1.886.52l-.003-.001L5.2 19.393c-.651-.392-.852-1.237-.495-1.886l.772-1.408a7.939 7.939 0 0 1-1.125-2.038H2.867c-.794 0-1.367-.667-1.367-1.398V9.837c0-.743.584-1.398 1.367-1.398H4.35a7.82 7.82 0 0 1 1.125-2.038l-.771-1.406a1.415 1.415 0 0 1 .488-1.884l.005-.003 2.335-1.414a1.348 1.348 0 0 1 1.88.52l.752 1.367a7.3 7.3 0 0 1 2.17 0l.75-1.364a1.344 1.344 0 0 1 1.887-.52m-4.762 17.14Zm0-15.174Z" clip-rule="evenodd"/>
  <path fill="#3D3C3C" fill-rule="evenodd" d="M11.716 8.577a2.718 2.718 0 0 0-3.14 3.138c.19 1.162 1.033 2.08 2.104 2.257a.75.75 0 0 1-.244 1.48c-1.796-.297-3.061-1.792-3.34-3.495m4.62-3.38c1.165.192 2.081 1.034 2.255 2.101a.75.75 0 0 0 1.48-.241c-.293-1.798-1.791-3.06-3.492-3.34a4.218 4.218 0 0 0-4.863 4.86" clip-rule="evenodd"/>
</svg>
