<svg xmlns="http://www.w3.org/2000/svg" width="24" height="24" fill="currentColor" viewBox="0 0 24 24">
  <path d="M20.25 9.75a1.5 1.5 0 0 1 1.5 1.5V21a1.5 1.5 0 0 1-1.5 1.5h-12a1.5 1.5 0 0 1-1.5-1.5v-5.247c0-1 .96-1.72 1.919-1.44L12.75 15.5v-4.25a1.5 1.5 0 0 1 1.5-1.5h6ZM8.25 21h4.5v-3.938l-4.5-1.31V21Zm6 0h6v-9.75h-6V21Zm1.5-4.5a.75.75 0 0 1 .75.75v1.5a.75.75 0 0 1-1.5 0v-1.5a.75.75 0 0 1 .75-.75Zm3 0a.75.75 0 0 1 .75.75v1.5a.75.75 0 0 1-1.5 0v-1.5a.75.75 0 0 1 .75-.75Zm-6.655-15c2.742 0 5.011 1.923 5.794 4.501L17.92 6c1.048 0 2.035.425 2.81 1.074a.75.75 0 0 1-.962 1.15c-.552-.461-1.208-.724-1.848-.724-.735 0-1.24.206-1.611.464a.75.75 0 1 1-.857-1.232c.275-.19.588-.355.942-.48C15.734 4.326 14.033 3 12.095 3 9.635 3 7.543 5.149 7.5 7.938a.75.75 0 0 1 .152.592.751.751 0 0 1-.869.61l-.539-.096-.038-.007c-.52-.12-.89-.103-1.219-.004l-.137.048C3.705 9.52 3 10.571 3 11.64c0 1.173.724 2.213 1.795 2.67a.751.751 0 0 1-.589 1.38C2.612 15.01 1.5 13.444 1.5 11.64c0-1.723 1.12-3.312 2.814-3.96l.253-.086a3.518 3.518 0 0 1 1.455-.109C6.277 4.18 8.85 1.5 12.095 1.5Zm3.655 11.25a.75.75 0 0 1 .75.75V15a.75.75 0 0 1-1.5 0v-1.5a.75.75 0 0 1 .75-.75Zm3 0a.75.75 0 0 1 .75.75V15a.75.75 0 0 1-1.5 0v-1.5a.75.75 0 0 1 .75-.75Z"/>
</svg>
