<svg xmlns="http://www.w3.org/2000/svg" width="24" height="24" fill="currentColor" viewBox="0 0 24 24">
  <path fill-rule="evenodd" d="M2.25 1.5a.75.75 0 0 1 .75.75v18c0 .414.336.75.75.75h18a.75.75 0 0 1 0 1.5h-18a2.25 2.25 0 0 1-2.25-2.25v-18a.75.75 0 0 1 .75-.75Zm17.788 3.92.21 2.15a.75.75 0 0 0 1.494-.147l-.355-3.607a1.125 1.125 0 0 0-1.254-1.007l-3.724.449a.75.75 0 1 0 .18 1.489l2.278-.275-4.772 7.158-3.78-3.24a1.5 1.5 0 0 0-2.388.634l-3.383 9.474a.75.75 0 0 0 1.412.504L9.34 9.53l4.1 3.515c.513.44 1.294.332 1.669-.23l4.929-7.394Z" clip-rule="evenodd"/>
</svg>
