<svg xmlns="http://www.w3.org/2000/svg" width="24" height="24" fill="currentColor" viewBox="0 0 24 24">
  <path fill-rule="evenodd" d="M10.271 2.95a7.321 7.321 0 1 0 0 14.642 7.321 7.321 0 0 0 0-14.642ZM1.45 10.271a8.821 8.821 0 1 1 15.566 5.685l5.314 5.314a.75.75 0 1 1-1.06 1.06l-5.314-5.314A8.821 8.821 0 0 1 1.45 10.271Zm10.131-3.773a.75.75 0 0 0-1.395-.043L8.13 11.25H5.25a.75.75 0 0 0 0 1.5h3.375a.75.75 0 0 0 .69-.455l1.497-3.493 1.232 3.45a.75.75 0 0 0 .706.498h3a.75.75 0 0 0 0-1.5h-2.472l-1.697-4.752Z" clip-rule="evenodd"/>
</svg>
