<svg xmlns="http://www.w3.org/2000/svg" width="24" height="24" fill="currentColor" viewBox="0 0 24 24">
  <path fill-rule="evenodd" d="M10.271 2.95a7.321 7.321 0 1 0 0 14.642 7.321 7.321 0 0 0 0-14.642ZM1.45 10.271a8.821 8.821 0 1 1 17.642 0 8.821 8.821 0 0 1-17.642 0Z" clip-rule="evenodd"/>
  <path fill-rule="evenodd" d="M15.502 15.502a.75.75 0 0 1 1.06 0l5.768 5.768a.75.75 0 1 1-1.06 1.06l-5.768-5.768a.75.75 0 0 1 0-1.06ZM10.898 6a.75.75 0 0 1 .683.498l1.697 4.752h2.472a.75.75 0 0 1 0 1.5h-3a.75.75 0 0 1-.706-.498l-1.232-3.45-1.498 3.493a.75.75 0 0 1-.689.455H5.25a.75.75 0 0 1 0-1.5h2.88l2.056-4.795A.75.75 0 0 1 10.898 6Z" clip-rule="evenodd"/>
</svg>
