<svg xmlns="http://www.w3.org/2000/svg" width="24" height="24" fill="none" viewBox="0 0 24 24">
  <path fill="#3D3C3C" fill-rule="evenodd" d="M10.449 3.133a9.008 9.008 0 0 0-6.194 4.28h8.655l-2.461-4.28ZM2.428 7.678a.747.747 0 0 0-.174.407A10.471 10.471 0 0 0 1.5 12c0 2.29.733 4.409 1.977 6.134.05.164.157.31.311.41A10.48 10.48 0 0 0 12 22.5c4.258 0 7.925-2.535 9.572-6.178a.747.747 0 0 0 .174-.407A10.48 10.48 0 0 0 22.5 12c0-2.29-.733-4.409-1.977-6.134a.747.747 0 0 0-.311-.41A10.48 10.48 0 0 0 12 1.5a10.502 10.502 0 0 0-9.572 6.178Zm16.45-1.482A8.98 8.98 0 0 0 12.103 3l.547.951 3.76 6.537 2.468-4.293Zm.95 1.359-2.723 4.733a.75.75 0 0 1-.096.167l-1.513 2.632h4.96A8.984 8.984 0 0 0 21 12a8.958 8.958 0 0 0-1.173-4.445Zm-.083 9.032h-8.648l1.564 2.72.743 1.326c.044.078.072.16.086.244a9.007 9.007 0 0 0 6.255-4.29Zm-7.855 4.412-.535-.955-2.159-3.754a.75.75 0 0 1-.095-.166l-1.507-2.62-1.556 2.707-.916 1.593A8.98 8.98 0 0 0 11.89 21Zm-7.717-4.553 4.331-7.533h-4.96A8.983 8.983 0 0 0 3 12a8.96 8.96 0 0 0 1.173 4.445Zm6.062-7.533h3.538l1.771 3.08-1.779 3.094h-3.53L8.459 12l1.776-3.087Z" clip-rule="evenodd"/>
</svg>
