<svg xmlns="http://www.w3.org/2000/svg" width="24" height="24" fill="currentColor" viewBox="0 0 24 24">
  <path fill-rule="evenodd" d="M1.5 4.493C1.5 2.914 2.673 1.5 4.278 1.5h15.444c1.605 0 2.778 1.414 2.778 2.993v15.059c0 1.568-1.186 2.948-2.777 2.948H4.277c-1.591 0-2.777-1.38-2.777-2.948V4.493Zm19.5 0V6H3V4.493C3 3.596 3.64 3 4.278 3h15.444C20.359 3 21 3.596 21 4.493ZM3 7.5h18v12.052C21 20.41 20.373 21 19.723 21H15.75v-4.273l1.168-1.751a2.25 2.25 0 1 0-1.33-.71l-1.207 1.81a.746.746 0 0 0-.131.435V21h-1.5v-7.628a2.251 2.251 0 1 0-1.5 0V21h-1.5v-3.737a.746.746 0 0 0-.108-.401l-.906-1.554a2.25 2.25 0 1 0-1.138 1.027l.652 1.117V21H4.277C3.627 21 3 20.41 3 19.552V7.5Zm9 4.5a.75.75 0 1 0 0-1.5.75.75 0 0 0 0 1.5ZM5.065 3.75h.37c.312 0 .565.232.565.519v.462c0 .287-.253.519-.565.519h-.37c-.312 0-.565-.232-.565-.519V4.27c0-.287.253-.519.565-.519Zm2.62 0h-.37c-.312 0-.565.232-.565.519v.462c0 .287.253.519.565.519h.37c.312 0 .565-.232.565-.519V4.27c0-.287-.253-.519-.565-.519Zm1.88 0h.37c.312 0 .565.232.565.519v.462c0 .287-.253.519-.565.519h-.37C9.253 5.25 9 5.018 9 4.731V4.27c0-.287.253-.519.565-.519ZM17.25 12a.75.75 0 1 0 0 1.5.75.75 0 0 0 0-1.5Zm-10.5 1.5a.75.75 0 1 0 0 1.5.75.75 0 0 0 0-1.5Z" clip-rule="evenodd"/>
</svg>
