<svg xmlns="http://www.w3.org/2000/svg" width="24" height="24" fill="currentColor" viewBox="0 0 24 24">
  <path fill-rule="evenodd" d="M6 3H3v3h3V3ZM3 1.5A1.5 1.5 0 0 0 1.5 3v3A1.5 1.5 0 0 0 3 7.5h3A1.5 1.5 0 0 0 7.5 6V3A1.5 1.5 0 0 0 6 1.5H3ZM13.5 3h-3v3h3V3Zm-3-1.5A1.5 1.5 0 0 0 9 3v3a1.5 1.5 0 0 0 1.5 1.5h3A1.5 1.5 0 0 0 15 6V3a1.5 1.5 0 0 0-1.5-1.5h-3ZM18 3h3v3h-3V3Zm-1.5 0A1.5 1.5 0 0 1 18 1.5h3A1.5 1.5 0 0 1 22.5 3v3A1.5 1.5 0 0 1 21 7.5h-3A1.5 1.5 0 0 1 16.5 6V3ZM6 10.5H3v3h3v-3ZM3 9a1.5 1.5 0 0 0-1.5 1.5v3A1.5 1.5 0 0 0 3 15h3a1.5 1.5 0 0 0 1.5-1.5v-3A1.5 1.5 0 0 0 6 9H3Zm7.5 1.5h3v3h-3v-3Zm-1.5 0A1.5 1.5 0 0 1 10.5 9h3a1.5 1.5 0 0 1 1.5 1.5v3a1.5 1.5 0 0 1-1.5 1.5h-3A1.5 1.5 0 0 1 9 13.5v-3Zm12 0h-3v3h3v-3ZM18 9a1.5 1.5 0 0 0-1.5 1.5v3A1.5 1.5 0 0 0 18 15h3a1.5 1.5 0 0 0 1.5-1.5v-3A1.5 1.5 0 0 0 21 9h-3ZM3 18h3v3H3v-3Zm-1.5 0A1.5 1.5 0 0 1 3 16.5h3A1.5 1.5 0 0 1 7.5 18v3A1.5 1.5 0 0 1 6 22.5H3A1.5 1.5 0 0 1 1.5 21v-3Zm12 0h-3v3h3v-3Zm-3-1.5A1.5 1.5 0 0 0 9 18v3a1.5 1.5 0 0 0 1.5 1.5h3A1.5 1.5 0 0 0 15 21v-3a1.5 1.5 0 0 0-1.5-1.5h-3ZM18 18h3v3h-3v-3Zm-1.5 0a1.5 1.5 0 0 1 1.5-1.5h3a1.5 1.5 0 0 1 1.5 1.5v3a1.5 1.5 0 0 1-1.5 1.5h-3a1.5 1.5 0 0 1-1.5-1.5v-3Z" clip-rule="evenodd"/>
</svg>
