<svg xmlns="http://www.w3.org/2000/svg" width="24" height="24" fill="currentColor" viewBox="0 0 24 24">
  <g clip-path="url(#a)">
    <path fill-rule="evenodd" d="M6.75 3a.75.75 0 1 1 1.5 0 .75.75 0 0 1-1.5 0ZM7.5.75a2.25 2.25 0 1 0 .407 4.463L9 6.281v.469h-.389A1.87 1.87 0 0 0 6.75 8.627V9h-.472l-1.24-1.273-.007-.007a2.25 2.25 0 1 0-1.06 1.06l1.453 1.493a.75.75 0 0 0 .537.227h.789v2.25h-.789a.75.75 0 0 0-.537.227L3.97 14.469a2.25 2.25 0 1 0 1.06 1.06l.007-.006 1.24-1.273h.473v1.123a1.87 1.87 0 0 0 1.861 1.877H9v1.22l-.816.796a2.25 2.25 0 1 0 .78 1.334l1.31-1.278a.75.75 0 0 0 .226-.537V17.25h3v1.535a.75.75 0 0 0 .226.537l1.31 1.279a2.25 2.25 0 1 0 .78-1.334L15 18.47v-1.22h.389a1.87 1.87 0 0 0 1.861-1.877V14.25h1.222l.795.815a2.25 2.25 0 1 0 1.334-.78l-1.275-1.308a.75.75 0 0 0-.537-.227H17.25V10.5h1.539a.75.75 0 0 0 .537-.227L20.6 8.965a2.25 2.25 0 1 0-1.334-.78L18.472 9H17.25v-.373a1.87 1.87 0 0 0-1.861-1.877H15v-.47l1.093-1.067a2.25 2.25 0 1 0-1.337-.791l-1.03 1.006a.75.75 0 0 0-.226.537v.785h-3v-.785a.75.75 0 0 0-.226-.537l-1.03-1.006A2.25 2.25 0 0 0 7.5.75Zm6.75 7.5H8.611a.37.37 0 0 0-.361.377v6.746a.37.37 0 0 0 .361.377h6.778a.37.37 0 0 0 .361-.377V8.627a.37.37 0 0 0-.361-.377H14.25Zm-12 8.25a.75.75 0 1 1 1.5 0 .75.75 0 0 1-1.5 0ZM21 15.75a.75.75 0 1 0 0 1.5.75.75 0 0 0 0-1.5ZM6 21a.75.75 0 1 1 1.5 0A.75.75 0 0 1 6 21Zm11.25-.75a.75.75 0 1 0 0 1.5.75.75 0 0 0 0-1.5Zm-15-13.5a.75.75 0 1 1 1.5 0 .75.75 0 0 1-1.5 0ZM21 6a.75.75 0 1 0 0 1.5.75.75 0 0 0 0-1.5Zm-4.5-3.75a.75.75 0 1 0 0 1.5.75.75 0 0 0 0-1.5Z" clip-rule="evenodd"/>
  </g>
  <defs>
    <clipPath id="a">
      <path d="M0 0h24v24H0z"/>
    </clipPath>
  </defs>
</svg>
