<svg xmlns="http://www.w3.org/2000/svg" width="24" height="24" fill="currentColor" viewBox="0 0 24 24">
  <path fill-rule="evenodd" d="M6 3H3v3h3V3ZM3 1.5A1.5 1.5 0 0 0 1.5 3v3A1.5 1.5 0 0 0 3 7.5h3A1.5 1.5 0 0 0 7.5 6V3A1.5 1.5 0 0 0 6 1.5H3ZM13.5 3h-3v3h3V3Zm-3-1.5A1.5 1.5 0 0 0 9 3v3a1.5 1.5 0 0 0 1.5 1.5h3A1.5 1.5 0 0 0 15 6V3a1.5 1.5 0 0 0-1.5-1.5h-3ZM21 3h-3v3h3V3Zm-3-1.5A1.5 1.5 0 0 0 16.5 3v3A1.5 1.5 0 0 0 18 7.5h3A1.5 1.5 0 0 0 22.5 6V3A1.5 1.5 0 0 0 21 1.5h-3Zm-12 9H3v3h3v-3ZM3 9a1.5 1.5 0 0 0-1.5 1.5v3A1.5 1.5 0 0 0 3 15h3a1.5 1.5 0 0 0 1.5-1.5v-3A1.5 1.5 0 0 0 6 9H3Zm10.5 1.5h-3v3h3v-3Zm-3-1.5A1.5 1.5 0 0 0 9 10.5v3a1.5 1.5 0 0 0 1.5 1.5h3a1.5 1.5 0 0 0 1.5-1.5v-3A1.5 1.5 0 0 0 13.5 9h-3ZM21 10.5h-3v3h3v-3ZM18 9a1.5 1.5 0 0 0-1.5 1.5v3A1.5 1.5 0 0 0 18 15h3a1.5 1.5 0 0 0 1.5-1.5v-3A1.5 1.5 0 0 0 21 9h-3ZM6 18H3v3h3v-3Zm-3-1.5A1.5 1.5 0 0 0 1.5 18v3A1.5 1.5 0 0 0 3 22.5h3A1.5 1.5 0 0 0 7.5 21v-3A1.5 1.5 0 0 0 6 16.5H3ZM13.5 18h-3v3h3v-3Zm-3-1.5A1.5 1.5 0 0 0 9 18v3a1.5 1.5 0 0 0 1.5 1.5h3A1.5 1.5 0 0 0 15 21v-3a1.5 1.5 0 0 0-1.5-1.5h-3ZM21 18h-3v3h3v-3Zm-3-1.5a1.5 1.5 0 0 0-1.5 1.5v3a1.5 1.5 0 0 0 1.5 1.5h3a1.5 1.5 0 0 0 1.5-1.5v-3a1.5 1.5 0 0 0-1.5-1.5h-3Z" clip-rule="evenodd"/>
</svg>
