<svg xmlns="http://www.w3.org/2000/svg" width="24" height="24" fill="currentColor" viewBox="0 0 24 24">
  <g clip-path="url(#a)">
    <path fill-rule="evenodd" d="M7.713 3.976a.75.75 0 0 1 1.061-.013l1.5 1.465a.75.75 0 0 1 .226.537V7.5a.75.75 0 0 1-1.5 0V6.28L7.726 5.038a.75.75 0 0 1-.013-1.061Zm8.574 0a.75.75 0 0 0-1.061-.013l-1.5 1.465a.75.75 0 0 0-.226.537V7.5a.75.75 0 0 0 1.5 0V6.28l1.274-1.243a.75.75 0 0 0 .013-1.061ZM3.977 7.713a.75.75 0 0 1 1.06.014L6.277 9H7.5a.75.75 0 0 1 0 1.5H5.961a.75.75 0 0 1-.537-.227l-1.461-1.5a.75.75 0 0 1 .014-1.06Zm16.796 0a.75.75 0 0 0-1.06.014L18.473 9H17.25a.75.75 0 0 0 0 1.5h1.539a.75.75 0 0 0 .537-.227l1.461-1.5a.75.75 0 0 0-.014-1.06ZM9.75 16.5a.75.75 0 0 1 .75.75v1.535a.75.75 0 0 1-.226.537l-1.5 1.465a.75.75 0 0 1-1.048-1.074L9 18.47v-1.22a.75.75 0 0 1 .75-.75Zm4.5 0a.75.75 0 0 0-.75.75v1.535a.75.75 0 0 0 .226.537l1.5 1.465a.75.75 0 0 0 1.048-1.074L15 18.47v-1.22a.75.75 0 0 0-.75-.75Zm-8.826-3.523a.75.75 0 0 1 .537-.227H7.5a.75.75 0 0 1 0 1.5H6.278l-1.24 1.273a.75.75 0 1 1-1.075-1.046l1.461-1.5Zm13.902 0a.75.75 0 0 0-.537-.227H17.25a.75.75 0 0 0 0 1.5h1.222l1.24 1.273a.75.75 0 1 0 1.075-1.046l-1.461-1.5Z" clip-rule="evenodd"/>
    <path fill-rule="evenodd" d="M3 15.75a.75.75 0 1 0 0 1.5.75.75 0 0 0 0-1.5Zm-2.25.75a2.25 2.25 0 1 1 4.5 0 2.25 2.25 0 0 1-4.5 0ZM21 15.75a.75.75 0 1 0 0 1.5.75.75 0 0 0 0-1.5Zm-2.25.75a2.25 2.25 0 1 1 4.5 0 2.25 2.25 0 0 1-4.5 0Zm-12 3.75a.75.75 0 1 0 0 1.5.75.75 0 0 0 0-1.5ZM4.5 21A2.25 2.25 0 1 1 9 21a2.25 2.25 0 0 1-4.5 0Zm12.75-.75a.75.75 0 1 0 0 1.5.75.75 0 0 0 0-1.5ZM15 21a2.25 2.25 0 1 1 4.5 0 2.25 2.25 0 0 1-4.5 0ZM3 6a.75.75 0 1 0 0 1.5A.75.75 0 0 0 3 6Zm-2.25.75a2.25 2.25 0 1 1 4.5 0 2.25 2.25 0 0 1-4.5 0ZM21 6a.75.75 0 1 0 0 1.5.75.75 0 0 0 0-1.5Zm-2.25.75a2.25 2.25 0 1 1 4.5 0 2.25 2.25 0 0 1-4.5 0ZM7.5 2.25a.75.75 0 1 0 0 1.5.75.75 0 0 0 0-1.5ZM5.25 3a2.25 2.25 0 1 1 4.5 0 2.25 2.25 0 0 1-4.5 0Zm11.25-.75a.75.75 0 1 0 0 1.5.75.75 0 0 0 0-1.5ZM14.25 3a2.25 2.25 0 1 1 4.5 0 2.25 2.25 0 0 1-4.5 0ZM8.611 8.25a.37.37 0 0 0-.361.377v6.745a.37.37 0 0 0 .361.378h6.778a.37.37 0 0 0 .361-.377V8.627a.37.37 0 0 0-.361-.377H8.61Zm-1.861.377A1.87 1.87 0 0 1 8.611 6.75h6.778a1.87 1.87 0 0 1 1.861 1.877v6.745a1.87 1.87 0 0 1-1.861 1.878H8.61a1.87 1.87 0 0 1-1.861-1.877V8.627Z" clip-rule="evenodd"/>
  </g>
  <defs>
    <clipPath id="a">
      <path d="M0 0h24v24H0z"/>
    </clipPath>
  </defs>
</svg>
