<svg xmlns="http://www.w3.org/2000/svg" width="24" height="24" fill="currentColor" viewBox="0 0 24 24">
  <path d="M12 1.5a2.248 2.248 0 0 1 .737 4.373.748.748 0 0 1 .013.127v.75H15l.116.003A2.25 2.25 0 0 1 17.25 9v2.25h.88a2.248 2.248 0 0 1 4.37.75 2.25 2.25 0 0 1-4.37.75h-.88V15A2.25 2.25 0 0 1 15 17.25h-2.25v.88A2.248 2.248 0 0 1 12 22.5a2.25 2.25 0 0 1-.75-4.37v-.88H9a2.25 2.25 0 0 1-2.247-2.134L6.75 15v-2.25h-.88A2.249 2.249 0 0 1 1.5 12a2.25 2.25 0 0 1 4.37-.75h.88V9A2.25 2.25 0 0 1 9 6.75h2.25V6a.76.76 0 0 1 .012-.127A2.248 2.248 0 0 1 12 1.5Zm0 18a.75.75 0 1 0 0 1.5.75.75 0 0 0 0-1.5ZM9 8.25a.75.75 0 0 0-.75.75v6l.004.077A.75.75 0 0 0 9 15.75h6a.75.75 0 0 0 .75-.75V9a.75.75 0 0 0-.673-.746L15 8.25H9Zm4.653.758A1.5 1.5 0 0 1 15 10.5v3a1.5 1.5 0 0 1-1.5 1.5h-3a1.5 1.5 0 0 1-1.492-1.347L9 13.5v-3A1.5 1.5 0 0 1 10.5 9h3l.153.008ZM10.5 13.5h3v-3h-3v3Zm-6.75-2.25a.75.75 0 1 0 0 1.5.75.75 0 0 0 0-1.5Zm16.5 0a.75.75 0 1 0 0 1.5.75.75 0 0 0 0-1.5ZM12 3a.75.75 0 1 0 0 1.5.75.75 0 0 0 0-1.5Z"/>
</svg>
