<svg xmlns="http://www.w3.org/2000/svg" width="24" height="24" fill="currentColor" viewBox="0 0 24 24">
  <path d="M20.25 1.5a1.5 1.5 0 0 1 1.5 1.5v6a1.5 1.5 0 0 1-1.5 1.5h-4.5a1.5 1.5 0 0 1-1.5-1.5V5.25h-7.5V7.5h1.5A1.5 1.5 0 0 1 9.75 9v6a1.5 1.5 0 0 1-1.5 1.5h-1.5v2.25h7.5V15a1.5 1.5 0 0 1 1.5-1.5h4.5a1.5 1.5 0 0 1 1.5 1.5v6a1.5 1.5 0 0 1-1.5 1.5h-4.5a1.5 1.5 0 0 1-1.5-1.5v-.75h-7.5a1.5 1.5 0 0 1-1.5-1.5V16.5h-1.5a1.5 1.5 0 0 1-1.5-1.5V9a1.5 1.5 0 0 1 1.5-1.5h1.5V5.25a1.5 1.5 0 0 1 1.5-1.5h7.5V3a1.5 1.5 0 0 1 1.5-1.5h4.5ZM15.75 18v3h4.5v-3h-4.5Zm0-1.5h4.5V15h-4.5v1.5Zm-12-1.5h4.5v-3h-4.5v3Zm0-4.5h4.5V9h-4.5v1.5Zm12-1.5h4.5V6h-4.5v3Zm0-4.5h4.5V3h-4.5v1.5Z"/>
</svg>
