<svg xmlns="http://www.w3.org/2000/svg" width="24" height="24" fill="currentColor" viewBox="0 0 24 24">
  <path fill-rule="evenodd" d="M12.657 1.67c3.22 1.72 6.174 2.67 7.3 2.994l.008.003C20.535 4.839 21 5.35 21 6.01v8.348c0 1.14-.516 2.176-1.214 3.06-.7.886-1.63 1.68-2.573 2.353-1.887 1.348-3.94 2.299-4.653 2.612l-.014.006c-.352.147-.74.147-1.092 0l-.012-.005c-.719-.314-2.772-1.265-4.657-2.613-.943-.674-1.872-1.467-2.572-2.354C3.516 16.534 3 15.499 3 14.359V6.02c0-.649.451-1.18 1.044-1.348a39.428 39.428 0 0 0 7.29-3.001 1.376 1.376 0 0 1 1.323 0Zm-.66 1.347A40.956 40.956 0 0 1 4.5 6.1v8.26c0 .677.308 1.391.89 2.128.58.735 1.386 1.434 2.267 2.064 1.725 1.233 3.625 2.124 4.343 2.44.716-.317 2.616-1.207 4.34-2.44.882-.63 1.689-1.33 2.269-2.064.582-.737.891-1.451.891-2.129V6.094c-1.209-.352-4.217-1.327-7.503-3.077Z" clip-rule="evenodd"/>
  <path fill-rule="evenodd" d="M16.28 8.47a.75.75 0 0 1 0 1.06l-5.248 5.25a.75.75 0 0 1-1.061 0L7.72 12.528a.75.75 0 1 1 1.06-1.06l1.721 1.721 4.719-4.72a.75.75 0 0 1 1.06 0Z" clip-rule="evenodd"/>
</svg>
