<svg xmlns="http://www.w3.org/2000/svg" width="24" height="24" fill="currentColor" viewBox="0 0 24 24">
  <path fill-rule="evenodd" d="M19.956 4.664c-1.125-.325-4.08-1.275-7.299-2.995a1.376 1.376 0 0 0-1.323 0 39.428 39.428 0 0 1-7.29 3.002C3.45 4.84 3 5.371 3 6.018v8.341c0 1.14.516 2.175 1.213 3.059.7.887 1.63 1.68 2.572 2.354 1.885 1.348 3.938 2.299 4.657 2.613l.012.005c.352.147.74.147 1.092 0l.014-.006c.713-.313 2.766-1.264 4.653-2.612.942-.674 1.872-1.467 2.573-2.354C20.484 16.535 21 15.5 21 14.36V6.011c0-.661-.464-1.172-1.035-1.344l-.009-.003ZM4.5 6.1a40.956 40.956 0 0 0 7.497-3.083c3.286 1.75 6.294 2.725 7.503 3.077v8.265c0 .678-.309 1.392-.891 2.13-.58.733-1.387 1.433-2.269 2.063-1.724 1.233-3.623 2.123-4.34 2.44-.718-.316-2.618-1.207-4.343-2.44-.88-.63-1.687-1.33-2.267-2.064-.582-.737-.89-1.451-.89-2.129V6.1Zm11.78 3.43a.75.75 0 1 0-1.06-1.06l-4.72 4.72-1.72-1.722a.75.75 0 0 0-1.061 1.06L9.97 14.78a.75.75 0 0 0 1.06 0l5.25-5.25Z" clip-rule="evenodd"/>
</svg>
