<svg xmlns="http://www.w3.org/2000/svg" width="25" height="24" fill="currentColor" viewBox="0 0 25 24">
  <path d="M13.998 1.508A1.5 1.5 0 0 1 15.345 3v.75h2.25A2.25 2.25 0 0 1 19.845 6v4.5a.75.75 0 0 1-1.5 0V6a.75.75 0 0 0-.75-.75h-2.25V6l-.009.153a1.5 1.5 0 0 1-1.338 1.34l-.153.007h-4.5l-.153-.008A1.5 1.5 0 0 1 7.845 6v-.75h-2.25a.75.75 0 0 0-.75.75v14.25c0 .414.335.75.75.75h4.5a.75.75 0 0 1 0 1.5h-4.5a2.25 2.25 0 0 1-2.25-2.25V6a2.25 2.25 0 0 1 2.25-2.25h2.25V3a1.5 1.5 0 0 1 1.347-1.492l.153-.008h4.5l.153.008ZM16.845 12a5.25 5.25 0 1 1 0 10.5 5.25 5.25 0 0 1 0-10.5Zm0 1.5a3.75 3.75 0 1 0-.001 7.499 3.75 3.75 0 0 0 .001-7.499Zm.933 1.76a.75.75 0 0 1 1.222.855l-.04.066-2.103 3a.75.75 0 0 1-1.23-.002l-.897-1.288a.749.749 0 1 1 1.23-.858l.284.407 1.486-2.12.048-.06ZM9.345 6h4.5V3h-4.5v3Z"/>
</svg>
