<svg xmlns="http://www.w3.org/2000/svg" width="25" height="25" fill="currentColor" viewBox="0 0 25 25">
  <path d="m12.866 3.16.072.003.044.005.051.007.053.01c.2.044.393.143.55.3l6.723 6.75.077.086a1.133 1.133 0 0 1-.073 1.506 1.11 1.11 0 0 1-1.494.08l-.085-.076-4.82-4.84v13.792c0 .622-.5 1.125-1.117 1.125a1.12 1.12 0 0 1-1.115-1.125V6.99l-4.821 4.841a1.11 1.11 0 0 1-1.578-.004 1.133 1.133 0 0 1 .004-1.591l6.723-6.75.085-.077a1.105 1.105 0 0 1 .422-.214l.041-.01.057-.01.053-.008.043-.004a1.12 1.12 0 0 1 .068-.004h.037Z"/>
</svg>
