<svg xmlns="http://www.w3.org/2000/svg" width="25" height="24" fill="currentColor" viewBox="0 0 25 24">
  <path d="M10.74 4.376a1.11 1.11 0 0 1 1.495.08c.407.412.43 1.064.072 1.505l-.076.086-4.809 4.828h13.734A1.12 1.12 0 0 1 22.27 12c0 .62-.5 1.124-1.115 1.125H7.42l4.81 4.828c.436.438.438 1.15.004 1.59a1.11 1.11 0 0 1-1.58.004l-6.723-6.75-.074-.083a1.108 1.108 0 0 1-.135-.213c-.008-.016-.017-.032-.024-.05l-.014-.034a1.137 1.137 0 0 1-.026-.073l-.006-.021a1.115 1.115 0 0 1 .006-.667c.054-.17.146-.325.273-.453l6.724-6.75.085-.077Z"/>
</svg>
