<svg xmlns="http://www.w3.org/2000/svg" width="24" height="24" fill="currentColor" viewBox="0 0 24 24">
  <path d="M12 3a.75.75 0 0 1 .75.75v14.69l5.47-5.47a.75.75 0 0 1 1.06 1.06l-6.75 6.75a.743.743 0 0 1-.16.118c-.028.016-.055.032-.084.044-.032.014-.065.022-.098.03-.014.004-.026.01-.04.012l-.016.003a.755.755 0 0 1-.264 0 .047.047 0 0 1-.017-.003c-.014-.002-.026-.008-.04-.011-.033-.009-.066-.017-.098-.03a.75.75 0 0 1-.243-.163l-6.75-6.75a.75.75 0 0 1 1.06-1.06l5.47 5.47V3.75A.75.75 0 0 1 12 3Z"/>
</svg>
