<svg xmlns="http://www.w3.org/2000/svg" width="24" height="24" fill="currentColor" viewBox="0 0 24 24">
  <g clip-path="url(#a)">
    <path fill-rule="evenodd" d="M18.894 4.356a.75.75 0 0 1 .75.75v11.667a.75.75 0 0 1-1.5 0V5.856H7.227a.75.75 0 1 1 0-1.5h11.667Z" clip-rule="evenodd"/>
    <path fill-rule="evenodd" d="M19.425 4.575a.75.75 0 0 1 0 1.061L5.636 19.425a.75.75 0 0 1-1.06-1.061L18.363 4.575a.75.75 0 0 1 1.06 0Z" clip-rule="evenodd"/>
  </g>
  <defs>
    <clipPath id="a">
      <path d="M0 0h24v24H0z"/>
    </clipPath>
  </defs>
</svg>
