<svg xmlns="http://www.w3.org/2000/svg" width="24" height="24" fill="currentColor" viewBox="0 0 24 24">
  <path d="m12 3 .076.004c.023.002.045.006.067.01l.005.002c.025.005.049.014.073.021.023.007.046.012.068.022.026.01.05.025.074.039.018.01.037.018.054.03.019.013.035.028.053.042.02.016.042.031.06.05l6.75 6.75.051.057a.75.75 0 0 1-1.055 1.055l-.056-.052-5.47-5.47v14.69a.75.75 0 0 1-1.5 0V5.56l-5.47 5.47a.75.75 0 0 1-1.06-1.06l6.75-6.75.054-.05c.01-.008.022-.014.033-.022a.77.77 0 0 1 .261-.123c.014-.003.027-.008.04-.01l.03-.005A.752.752 0 0 1 12 3Z"/>
</svg>
