<svg xmlns="http://www.w3.org/2000/svg" width="24" height="24" fill="currentColor" viewBox="0 0 24 24">
  <path fill-rule="evenodd" d="M3.75 1.5A2.25 2.25 0 0 0 1.5 3.75V9a2.25 2.25 0 0 0 2.25 2.25H9A2.25 2.25 0 0 0 11.25 9V3.75A2.25 2.25 0 0 0 9 1.5H3.75ZM3 3.75A.75.75 0 0 1 3.75 3H9a.75.75 0 0 1 .75.75V9a.75.75 0 0 1-.75.75H3.75A.75.75 0 0 1 3 9V3.75Zm.75 9A2.25 2.25 0 0 0 1.5 15v5.25a2.25 2.25 0 0 0 2.25 2.25H9a2.25 2.25 0 0 0 2.25-2.25V15A2.25 2.25 0 0 0 9 12.75H3.75ZM3 15a.75.75 0 0 1 .75-.75H9a.75.75 0 0 1 .75.75v5.25A.75.75 0 0 1 9 21H3.75a.75.75 0 0 1-.75-.75V15Zm9.75 0A2.25 2.25 0 0 1 15 12.75h5.25A2.25 2.25 0 0 1 22.5 15v5.25a2.25 2.25 0 0 1-2.25 2.25H15a2.25 2.25 0 0 1-2.25-2.25V15Zm2.25-.75a.75.75 0 0 0-.75.75v5.25c0 .414.336.75.75.75h5.25a.75.75 0 0 0 .75-.75V15a.75.75 0 0 0-.75-.75H15Zm-.75-7.875a3.375 3.375 0 1 1 6.75 0 3.375 3.375 0 0 1-6.75 0ZM17.625 1.5a4.875 4.875 0 1 0 0 9.75 4.875 4.875 0 0 0 0-9.75Z" clip-rule="evenodd"/>
</svg>
