<svg xmlns="http://www.w3.org/2000/svg" width="24" height="24" fill="currentColor" viewBox="0 0 24 24">
  <path d="M13.5 15.75V5.25c0-.713-.319-1.247-.842-1.627C12.116 3.23 11.342 3 10.5 3c-.841 0-1.614.23-2.156.623-.521.38-.841.915-.844 1.63V16.43C7.5 18.964 9.524 21 12 21s4.5-2.036 4.5-4.569V7.57a.75.75 0 0 1 1.5 0v8.862c0 3.343-2.677 6.069-6 6.069s-6-2.726-6-6.069V5.247l.007-.23c.072-1.13.641-2.015 1.456-2.607.848-.617 1.948-.91 3.037-.91 1.09 0 2.19.293 3.04.91.87.631 1.46 1.597 1.46 2.84v10.5c0 .721-.33 1.374-.795 1.837-.464.462-1.116.788-1.83.788-1.349 0-2.625-1.137-2.625-2.566v-8.24a.75.75 0 0 1 1.5 0v8.24c0 .534.536 1.066 1.125 1.066.255 0 .541-.121.772-.35.23-.23.353-.515.353-.775Z"/>
</svg>
