<svg xmlns="http://www.w3.org/2000/svg" width="24" height="24" fill="currentColor" viewBox="0 0 24 24">
  <path fill-rule="evenodd" d="M20.766 3.208c-2.303-2.273-6.058-2.278-8.36-.01l-1.16 1.052a.75.75 0 1 0 1.008 1.111l1.172-1.064a.777.777 0 0 0 .024-.022c1.715-1.7 4.538-1.7 6.262 0a4.319 4.319 0 0 1 0 6.154l-2.58 2.543a4.413 4.413 0 0 1-6.121.087.75.75 0 1 0-1.022 1.098 5.913 5.913 0 0 0 8.197-.117l2.58-2.543a5.818 5.818 0 0 0 0-8.289ZM14.01 9.843a5.913 5.913 0 0 0-8.197.117l-2.58 2.543a5.818 5.818 0 0 0 0 8.289c2.303 2.273 6.058 2.278 8.36.01l1.16-1.052a.75.75 0 0 0-1.008-1.111l-1.172 1.064a.72.72 0 0 0-.024.022c-1.715 1.7-4.539 1.7-6.262 0a4.319 4.319 0 0 1 0-6.154l2.58-2.543a4.413 4.413 0 0 1 6.121-.087.75.75 0 1 0 1.022-1.098Z" clip-rule="evenodd"/>
</svg>
