<svg xmlns="http://www.w3.org/2000/svg" width="24" height="24" fill="currentColor" viewBox="0 0 24 24">
  <path fill-rule="evenodd" d="M6.601 1.5C5.042 1.5 3.75 2.739 3.75 4.304v15.392c0 1.565 1.292 2.804 2.851 2.804H18.15c1.559 0 2.851-1.239 2.851-2.804V7.38l-.017-.04a.746.746 0 0 0-.106-.252l-.103-.244-5.25-5.13L15 1.5H6.601ZM14.25 3H6.601c-.763 0-1.351.6-1.351 1.304v15.392c0 .705.588 1.304 1.351 1.304H18.15c.763 0 1.351-.6 1.351-1.304V8.25H16.05a1.8 1.8 0 0 1-1.799-1.799V3Zm4.282 3.75L15.75 4.032v2.42a.3.3 0 0 0 .299.298h2.483ZM9 7.5a.752.752 0 0 0-.75.75c0 .413.337.75.75.75a2.252 2.252 0 0 1 .74 4.375c.006.04.01.082.01.125v.75a.75.75 0 0 1-1.5 0v-.75c0-.042.004-.084.01-.124a2.25 2.25 0 0 1-1.51-2.126.75.75 0 0 1 1.5 0c0 .413.337.75.75.75s.75-.337.75-.75A.752.752 0 0 0 9 10.5a2.252 2.252 0 0 1-.74-4.375A.755.755 0 0 1 8.25 6v-.75a.75.75 0 0 1 1.5 0V6a.755.755 0 0 1-.01.124 2.249 2.249 0 0 1 1.51 2.126.75.75 0 0 1-1.5 0A.752.752 0 0 0 9 7.5Zm3.754 7.5a.75.75 0 0 0 0 1.5h4.496a.75.75 0 0 0 0-1.5h-4.496Zm-.004 3a.75.75 0 0 0 0 1.5h4.496a.75.75 0 0 0 0-1.5H12.75Z" clip-rule="evenodd"/>
</svg>
