<svg xmlns="http://www.w3.org/2000/svg" width="24" height="24" fill="currentColor" viewBox="0 0 24 24">
  <path fill-rule="evenodd" d="M14.17 1.46c.41.064.69.447.625.856L13.67 9.4l4.01-1.095a.75.75 0 0 1 1.066.623l.002.03v.022a.746.746 0 0 1-.18.5l-8.19 12.628-.005.007-.02.03-.024.03-.005.007a.756.756 0 0 1-.457.257l-.038.006h-.014c-.02.003-.04.004-.06.005l-.024-.001c-.017 0-.033 0-.05-.002h-.006c-.006 0-.011-.003-.016-.003a.742.742 0 0 1-.127-.026l-.02-.006a.75.75 0 0 1-.049-.019c-.009-.003-.017-.008-.026-.012-.013-.006-.027-.012-.04-.02l-.025-.013-.03-.018-.01-.006-.027-.02c-.01-.008-.022-.015-.032-.024l-.016-.014a.743.743 0 0 1-.255-.63v-.008l.66-6.624-3.589.36a.75.75 0 0 1-.824-.762.743.743 0 0 1 .117-.41l7.875-12.347a.748.748 0 0 1 .523-.338.748.748 0 0 1 .406-.049ZM7.444 13.724l2.982-.3a.753.753 0 0 1 .821.82l-.445 4.457 5.491-8.465-3.345.914a.748.748 0 0 1-.938-.839l.789-4.983-5.355 8.396Z" clip-rule="evenodd"/>
</svg>
