<svg xmlns="http://www.w3.org/2000/svg" width="24" height="24" fill="currentColor" viewBox="0 0 24 24">
  <path fill-rule="evenodd" d="M7.716 3C6.336 3 5.25 4.089 5.25 5.384v14.27c0 1.116 1.377 1.791 2.309 1.012l2.537-2.118A2.729 2.729 0 0 1 12 17.755c1.051 0 1.724.616 1.898.788l2.543 2.123c.93.778 2.309.1 2.309-1.012V5.384C18.75 4.089 17.664 3 16.284 3H7.716ZM3.75 5.384C3.75 3.225 5.543 1.5 7.716 1.5h8.568c2.173 0 3.966 1.725 3.966 3.884v14.27c0 2.454-2.919 3.712-4.771 2.163l-2.568-2.145a.752.752 0 0 1-.053-.048 1.244 1.244 0 0 0-.858-.37 1.17 1.17 0 0 0-.59.163 1.39 1.39 0 0 0-.182.126c-.045.037-.067.062-.065.06a.746.746 0 0 1-.074.07l-2.568 2.144c-1.85 1.547-4.771.3-4.771-2.163V5.384Z" clip-rule="evenodd"/>
</svg>
