<svg xmlns="http://www.w3.org/2000/svg" width="24" height="24" fill="none" viewBox="0 0 24 24">
  <path fill="#3D3C3C" fill-rule="evenodd" d="M6 1.5a2.25 2.25 0 0 0-2.25 2.25v16.5A2.25 2.25 0 0 0 6 22.5h12.75a1.5 1.5 0 0 0 1.5-1.5V3a1.5 1.5 0 0 0-1.5-1.5H6ZM6.802 3H6a.75.75 0 0 0-.75.75v16.5c0 .414.336.75.75.75h12.75V3h-5.302c.034.148.052.3.052.455v5.489c0 .634-.355 1.156-.855 1.403a1.451 1.451 0 0 1-1.641-.24l-.879-.806-.879.806a1.452 1.452 0 0 1-1.64.24 1.548 1.548 0 0 1-.856-1.403V3.455c0-.155.018-.307.052-.455Zm4.822 0H8.626c-.16 0-.376.155-.376.455v5.489a.13.13 0 0 0 .004.036v.001l.851-.78c.13-.14.48-.45 1.02-.45.559 0 .913.337 1.018.448l.852.782v-.003A.125.125 0 0 0 12 8.944V3.455c0-.3-.216-.455-.376-.455Zm-.374 12a.75.75 0 0 1 .75-.75h4.5a.75.75 0 0 1 0 1.5H12a.75.75 0 0 1-.75-.75Zm.75 2.25a.75.75 0 0 0 0 1.5h4.5a.75.75 0 0 0 0-1.5H12Z" clip-rule="evenodd"/>
</svg>
