<svg xmlns="http://www.w3.org/2000/svg" width="24" height="24" fill="currentColor" viewBox="0 0 24 24">
  <path d="M20.75 2a.75.75 0 0 1 .75.75v19.5a.75.75 0 0 1-.75.75H7.216C5.983 23 5 21.98 5 20.75V4.463C5 3.188 5.933 2 7.272 2H20.75ZM7.148 20.003a.74.74 0 0 0-.648.747c0 .43.34.75.716.75H20v-1.492H7.216c-.023 0-.045-.003-.068-.005ZM7.272 3.5c-.348 0-.772.344-.772.963V18.62c.224-.077.464-.121.716-.121.034 0 .068.003.1.008h.582A.756.756 0 0 1 8 18.5h12v-15H7.272Zm8.305 4.504a.75.75 0 0 1 0 1.492L15.5 9.5H11A.75.75 0 0 1 11 8h4.5l.077.004Zm1.5-2.25a.75.75 0 0 1 0 1.492L17 7.25H9.5a.75.75 0 0 1 0-1.5H17l.077.004Z"/>
</svg>
