<svg xmlns="http://www.w3.org/2000/svg" width="24" height="24" fill="currentColor" viewBox="0 0 24 24">
  <path fill-rule="evenodd" d="M10.42 1.56a.75.75 0 0 0-.59 0L1.955 4.937a.75.75 0 0 0-.455.689v8.896a.75.75 0 0 0 .446.685l7.84 3.48a.75.75 0 0 0 .321.064h.018a.75.75 0 0 0 .75-.75V9.495l6.375-2.733v3.739a.75.75 0 0 0 1.5 0V6a.75.75 0 0 0-.024-.188.751.751 0 0 0-.43-.876L10.42 1.56ZM9.375 9.496v7.367L3 14.033v-7.27l2.25.964V10.5a.75.75 0 0 0 1.5 0V8.37l2.625 1.125ZM5.901 6.374l-1.747-.749 5.971-2.559 1.577.676-5.801 2.632Zm1.867.8 2.357 1.01 5.971-2.559-2.527-1.083-5.801 2.632ZM16.5 13.5a3 3 0 1 0 0 6 3 3 0 0 0 0-6Zm-4.5 3a4.5 4.5 0 1 1 8.168 2.607l2.112 2.113a.75.75 0 1 1-1.06 1.06l-2.113-2.112A4.5 4.5 0 0 1 12 16.5Z" clip-rule="evenodd"/>
</svg>
