<svg xmlns="http://www.w3.org/2000/svg" width="24" height="24" fill="currentColor" viewBox="0 0 24 24">
  <path fill-rule="evenodd" d="M13.749 1.789a.75.75 0 0 1 .93-.208l7.41 3.75a.75.75 0 0 1 .252 1.13l-1.998 2.562 2.02 2.88a.75.75 0 0 1-.245 1.084l-7.41 4.167a.75.75 0 0 1-.982-.223L12 14.472l-1.726 2.459a.75.75 0 0 1-.982.223l-7.41-4.167a.75.75 0 0 1-.246-1.085l2.021-2.879L1.66 6.461a.75.75 0 0 1 .252-1.13l7.41-3.75a.75.75 0 0 1 .93.208L12 4.03l1.749-2.242ZM12 12.306 6.182 9.035 12 6.09l5.818 2.944L12 12.306Zm2.552-9.108-1.4 1.794 6.046 3.06 1.4-1.794-6.046-3.06ZM13.09 13.414l1.474 2.1 6.096-3.428-1.474-2.1-6.096 3.428Zm-9.75-1.328 1.474-2.1 6.096 3.428-1.474 2.1-6.096-3.428Zm16.21 2.964a.75.75 0 0 1 .75.75v2.112a.75.75 0 0 1-.405.666l-7.49 3.883a.75.75 0 0 1-.709 0l-7.491-3.883a.75.75 0 0 1-.405-.666V15.8a.75.75 0 0 1 1.5 0v1.656l5.95 3.085V18a.75.75 0 0 1 1.5 0v2.592l6.05-3.136V15.8a.75.75 0 0 1 .75-.75ZM3.402 6.258l1.4 1.794 6.046-3.06-1.4-1.794-6.046 3.06Z" clip-rule="evenodd"/>
</svg>
