<svg xmlns="http://www.w3.org/2000/svg" width="24" height="24" fill="currentColor" viewBox="0 0 24 24">
  <path fill-rule="evenodd" d="M1.855 12.113a.75.75 0 0 1 .729-.035l4.5 2.235a.75.75 0 0 1 .416.671V21a.75.75 0 0 1-1.084.672l-4.5-2.235a.75.75 0 0 1-.416-.671V12.75c0-.26.134-.5.355-.637ZM3 13.96v4.34l3 1.49v-4.34l-3-1.49Z" clip-rule="evenodd"/>
  <path fill-rule="evenodd" d="M12.413 12.124a.75.75 0 0 1 .337.626v6.016c0 .3-.18.572-.456.69l-5.25 2.234a.75.75 0 0 1-.588-1.38l4.794-2.04v-4.383L7.045 15.69a.75.75 0 0 1-.59-1.378l5.25-2.25a.75.75 0 0 1 .708.063Z" clip-rule="evenodd"/>
  <path fill-rule="evenodd" d="M6.415 9.83a.75.75 0 0 1 .63-.02l5.25 2.25a.75.75 0 0 1-.59 1.38l-4.93-2.114-4.19 2.095a.75.75 0 1 1-.67-1.342l4.5-2.25Z" clip-rule="evenodd"/>
  <path fill-rule="evenodd" d="M11.31 12.456a.75.75 0 0 1 .984-.396l5.25 2.234a.75.75 0 0 1 .456.69V21a.75.75 0 0 1-1.044.69l-5.25-2.234a.75.75 0 0 1 .588-1.38l4.206 1.79V15.48l-4.794-2.04a.75.75 0 0 1-.396-.984Z" clip-rule="evenodd"/>
  <path fill-rule="evenodd" d="M22.145 12.113a.75.75 0 0 1 .355.637v6.016a.75.75 0 0 1-.416.671l-4.5 2.235a.75.75 0 0 1-.668-1.344L21 18.301V13.96l-3.416 1.696a.75.75 0 0 1-.668-1.343l4.5-2.235a.75.75 0 0 1 .73.035Z" clip-rule="evenodd"/>
  <path fill-rule="evenodd" d="M16.955 9.81a.75.75 0 0 1 .63.02l4.5 2.25a.75.75 0 1 1-.67 1.34l-4.19-2.094-4.93 2.113a.75.75 0 0 1-.59-1.378l5.25-2.25Z" clip-rule="evenodd"/>
  <path fill-rule="evenodd" d="M6.336 3.874a.75.75 0 0 1 .708-.064l5.25 2.234a.75.75 0 0 1 .456.69v6.016a.75.75 0 0 1-1.5 0V7.23L7.5 5.634v4.641a.75.75 0 0 1-1.5 0V4.5a.75.75 0 0 1 .336-.626Z" clip-rule="evenodd"/>
  <path fill-rule="evenodd" d="M17.664 3.875A.75.75 0 0 1 18 4.5v6a.75.75 0 0 1-1.5 0V5.633L12.293 7.42a.75.75 0 0 1-.586-1.38l5.25-2.23a.75.75 0 0 1 .707.066Z" clip-rule="evenodd"/>
  <path fill-rule="evenodd" d="M11.693 1.56a.75.75 0 0 1 .59 0l5.262 2.25a.75.75 0 1 1-.59 1.38L11.99 3.066 7.046 5.189a.75.75 0 0 1-.592-1.378l5.239-2.25Z" clip-rule="evenodd"/>
</svg>
