<svg xmlns="http://www.w3.org/2000/svg" width="24" height="24" fill="currentColor" viewBox="0 0 24 24">
  <path fill-rule="evenodd" d="M9.83 1.56a.75.75 0 0 1 .59 0l7.875 3.376a.75.75 0 0 1 .431.876.75.75 0 0 1 .024.188v4.501a.75.75 0 0 1-1.5 0V6.762l-6.375 2.733V18a.75.75 0 0 1-.75.75h-.018a.75.75 0 0 1-.321-.064l-7.84-3.48a.75.75 0 0 1-.446-.685V5.625c0-.3.179-.571.455-.69L9.83 1.562Zm-.455 15.302V9.495L6.75 8.37v2.13a.75.75 0 0 1-1.5 0V7.727L3 6.762v7.271l6.375 2.83ZM4.154 5.625l1.747.749 5.801-2.632-1.577-.676-5.971 2.559Zm5.971 2.559-2.357-1.01 5.801-2.632 2.527 1.083-5.971 2.559ZM18 15a.75.75 0 0 0-1.5 0v1.5H15a.75.75 0 0 0 0 1.5h1.5v1.5a.75.75 0 0 0 1.5 0V18h1.5a.75.75 0 0 0 0-1.5H18V15Zm-.75-3A5.25 5.25 0 0 0 12 17.25a5.25 5.25 0 1 0 10.5 0A5.25 5.25 0 0 0 17.25 12Zm-3.75 5.25a3.75 3.75 0 1 1 7.499-.001 3.75 3.75 0 0 1-7.499.001Z" clip-rule="evenodd"/>
</svg>
