<svg xmlns="http://www.w3.org/2000/svg" width="24" height="24" fill="currentColor" viewBox="0 0 24 24">
  <path fill-rule="evenodd" d="M11.708 1.56a.75.75 0 0 1 .584 0l9.75 4.128a.75.75 0 0 1 0 1.381l-9.75 4.122a.75.75 0 0 1-.584 0l-9.75-4.122a.75.75 0 0 1 0-1.381l9.75-4.129ZM4.175 6.377 12 9.686l7.825-3.308L12 3.064 4.175 6.378Z" clip-rule="evenodd"/>
  <path fill-rule="evenodd" d="M17.2 4.23a.75.75 0 0 1-.43.97L7.02 8.95a.75.75 0 0 1-.54-1.4l9.75-3.75a.75.75 0 0 1 .97.43Z" clip-rule="evenodd"/>
  <path fill-rule="evenodd" d="M2.25 6a.75.75 0 0 1 .75.75v10.336l9 3.848 9-3.848V6.75a.75.75 0 0 1 1.5 0v10.83c0 .3-.18.572-.455.69l-9.75 4.17a.75.75 0 0 1-.59 0l-9.75-4.17a.75.75 0 0 1-.455-.69V6.75A.75.75 0 0 1 2.25 6Z" clip-rule="evenodd"/>
  <path fill-rule="evenodd" d="M12 9.75a.75.75 0 0 1 .75.75v11.25a.75.75 0 0 1-1.5 0V10.5a.75.75 0 0 1 .75-.75ZM6.75 7.5a.75.75 0 0 1 .75.75V12A.75.75 0 0 1 6 12V8.25a.75.75 0 0 1 .75-.75Z" clip-rule="evenodd"/>
</svg>
