<svg xmlns="http://www.w3.org/2000/svg" width="24" height="24" fill="none" viewBox="0 0 24 24">
  <path fill="#3D3C3C" fill-rule="evenodd" d="M3 7.5a1.5 1.5 0 1 1 3 0 1.5 1.5 0 0 1-3 0Zm1.5-3a3 3 0 1 0 2.855 3.924l.713.179c.672.168 1.052.387 1.278.605.217.209.346.468.418.833.076.384.08.851.057 1.45-.006.163-.015.337-.024.519-.022.456-.047.966-.047 1.49 0 .66.24 1.596.943 2.377.724.804 1.876 1.373 3.557 1.373h2.345a3.001 3.001 0 0 0 5.905-.75 3 3 0 0 0-5.905-.75H14.25c-1.319 0-2.042-.431-2.443-.877-.422-.469-.557-1.032-.557-1.373 0-.486.022-.935.044-1.378l.026-.573c.023-.606.028-1.226-.084-1.797-.106-.54-.32-1.058-.73-1.502h6.088a3.001 3.001 0 1 0 0-1.5H7.405A3.001 3.001 0 0 0 4.5 4.5Zm13.5 3a1.5 1.5 0 1 1 3 0 1.5 1.5 0 0 1-3 0Zm1.5 7.5a1.5 1.5 0 1 0 0 3 1.5 1.5 0 0 0 0-3Z" clip-rule="evenodd"/>
</svg>
