<svg xmlns="http://www.w3.org/2000/svg" width="24" height="24" fill="currentColor" viewBox="0 0 24 24">
  <path d="M11.25 2.25c2.132 0 4.095.301 5.55.81.725.254 1.365.574 1.839.965.468.388.861.925.861 1.6 0 .08-.006.158-.017.233a.75.75 0 0 1 .013.223l-.51 4.697c.64.541 1.123 1.024 1.45 1.457.328.433.597.935.561 1.456-.044.636-.496.999-.941 1.159-.416.149-.92.17-1.424.134-.033-.002-.066-.007-.1-.01l-.536 4.95a.75.75 0 0 1-.474.618c-5.623 2.181-10.694.927-12.607-.027a.75.75 0 0 1-.41-.591L3.005 6.08a.752.752 0 0 1 .01-.23A1.712 1.712 0 0 1 3 5.626c0-.675.393-1.212.861-1.6.474-.391 1.114-.71 1.838-.964 1.456-.51 3.419-.811 5.551-.811Zm6.554 5.513a7.85 7.85 0 0 1-1.003.426c-1.286.45-2.966.736-4.809.797a15.785 15.785 0 0 1-3.47-.162c-1.058-.138-2.018-.353-2.823-.635a7.85 7.85 0 0 1-1.004-.426L5.95 19.337c1.8.75 5.95 1.625 10.606-.036l.495-4.583c-1.56-.38-3.428-1.128-5.117-2.134a1.5 1.5 0 1 1 .817-1.334c0 .024-.003.048-.004.071 1.498.887 3.128 1.543 4.467 1.892l.59-5.45Zm.89 5.72.046.005c.33.024.56.006.705-.024a2.004 2.004 0 0 0-.204-.323 5.44 5.44 0 0 0-.455-.513l-.093.855ZM11.25 3.75c-2.01 0-3.796.286-5.055.727-.632.221-1.09.468-1.377.705-.29.24-.318.393-.318.443v.004c1.292.946 2.786 1.475 4.313 1.72a19.645 19.645 0 0 0 3.101.14c.44-.027.875-.069 1.297-.128 1.456-.202 2.739-.572 3.648-.949a5.767 5.767 0 0 0 1-.513c.125-.144.141-.237.141-.274 0-.05-.027-.203-.317-.443-.286-.237-.745-.484-1.377-.705-1.259-.44-3.047-.727-5.056-.727Z"/>
</svg>
