<svg xmlns="http://www.w3.org/2000/svg" width="24" height="24" fill="currentColor" viewBox="0 0 24 24">
  <path fill-rule="evenodd" d="M7.12 2.353a.75.75 0 0 1 1.027.268l.766 1.308.617.341c.066-.076.133-.15.202-.22C10.344 3.422 11.117 3 12 3c.883 0 1.656.423 2.268 1.05.07.07.137.144.203.22l.619-.341.762-1.307a.75.75 0 1 1 1.296.756l-.867 1.485a.75.75 0 0 1-.285.278l-.7.388c.118.236.227.484.326.742a7.749 7.749 0 0 1 2.25 2.098l1.654-2.755a.75.75 0 0 1 .643-.364h1.581a.75.75 0 0 1 0 1.5h-1.157L18.73 9.857a8.91 8.91 0 0 1 .77 3.643c0 .771-.097 1.521-.28 2.235l2.142 1.182a.75.75 0 0 1 .388.657v2.676a.75.75 0 1 1-1.5 0v-2.233l-1.533-.847C17.5 19.862 14.983 21.75 12 21.75c-2.983 0-5.5-1.888-6.717-4.58l-1.533.847v2.233a.75.75 0 1 1-1.5 0v-2.676a.75.75 0 0 1 .388-.657l2.142-1.182A9.008 9.008 0 0 1 4.5 13.5a8.91 8.91 0 0 1 .771-3.643L3.407 6.75H2.25a.75.75 0 0 1 0-1.5h1.581a.75.75 0 0 1 .644.364L6.128 8.37a7.749 7.749 0 0 1 2.25-2.099c.099-.257.208-.505.327-.742l-.699-.387a.75.75 0 0 1-.283-.277l-.87-1.485a.75.75 0 0 1 .268-1.026Zm5.63 17.844c2.906-.412 5.25-3.19 5.25-6.697a7.48 7.48 0 0 0-.434-2.531c-1.705 1.116-3.336 1.62-4.816 1.747v7.481Zm-1.5-7.475v7.475C8.344 19.785 6 17.007 6 13.5c0-.889.15-1.73.423-2.499a10.455 10.455 0 0 0 2.958 1.383c.574.164 1.2.286 1.869.338Zm.76-1.472h-.028a7.886 7.886 0 0 1-2.191-.308 8.954 8.954 0 0 1-2.71-1.31C8.177 7.875 9.996 6.75 12 6.75c1.993 0 3.804 1.114 4.903 2.857-1.79 1.215-3.453 1.634-4.894 1.643Zm-1.47-5.845c.086-.112.175-.215.265-.307.414-.423.822-.598 1.195-.598.373 0 .781.175 1.195.598.09.092.18.195.266.307a6.923 6.923 0 0 0-2.922 0Z" clip-rule="evenodd"/>
</svg>
