<svg xmlns="http://www.w3.org/2000/svg" width="24" height="24" fill="currentColor" viewBox="0 0 24 24">
  <path fill-rule="evenodd" d="M14.036 1.5C12.896 1.5 12 2.438 12 3.563V7.83c0 .503.146 1 .503 1.374.363.38.857.546 1.372.546h.054v.428c0 .238.066.605.372.86a.91.91 0 0 0 .62.211 1.022 1.022 0 0 0 .581-.214l1.633-1.285h3.49c.517 0 1.011-.168 1.373-.548.357-.376.502-.873.502-1.375V3.563c0-1.125-.896-2.063-2.036-2.063h-6.428ZM13.5 3.563A.55.55 0 0 1 14.036 3h6.428a.55.55 0 0 1 .536.563v4.264c0 .222-.062.312-.09.342-.023.024-.092.081-.285.081h-3.75a.75.75 0 0 0-.464.16l-.982.774V9a.75.75 0 0 0-.75-.75h-.804c-.195 0-.263-.057-.286-.08-.027-.03-.089-.118-.089-.34V3.563Z" clip-rule="evenodd"/>
  <path d="M3 5.64c0-.616.513-1.14 1.176-1.14H9.75a.75.75 0 0 0 0-1.5H4.176C2.71 3 1.5 4.168 1.5 5.64v10.47c0 1.472 1.211 2.64 2.676 2.64h7.074V21H7.5a.75.75 0 0 0 0 1.5h9a.75.75 0 0 0 0-1.5h-3.75v-2.25h7.074c1.465 0 2.676-1.168 2.676-2.64V12a.75.75 0 0 0-1.5 0v4.11c0 .617-.513 1.14-1.176 1.14H4.176C3.513 17.25 3 16.727 3 16.11V5.64Z"/>
  <path fill-rule="evenodd" d="M8.25 5.25a2.625 2.625 0 1 0 0 5.25 2.625 2.625 0 0 0 0-5.25ZM7.125 7.875a1.125 1.125 0 1 1 2.25 0 1.125 1.125 0 0 1-2.25 0ZM4.5 13.357c-.007-1.213 1.043-2.07 2.07-2.07h3.476c1.057 0 1.961.83 1.954 2.002v1.748a.75.75 0 0 1-.75.75h-6a.75.75 0 0 1-.75-.75v-1.68Zm2.07-.57c-.287 0-.572.269-.57.561v.94h4.5V13.28c.002-.32-.21-.494-.454-.494H6.57Z" clip-rule="evenodd"/>
</svg>
