<svg xmlns="http://www.w3.org/2000/svg" width="24" height="24" fill="currentColor" viewBox="0 0 24 24">
  <path fill-rule="evenodd" d="M7.536 1.5a.75.75 0 0 1 .75.75v.738h4.485V2.25a.75.75 0 0 1 1.5 0v2.975a.75.75 0 1 1-1.5 0v-.737H8.286v.737a.75.75 0 0 1-1.5 0V2.25a.75.75 0 0 1 .75-.75ZM3 5.269c0-.225.086-.392.239-.516.166-.135.455-.253.886-.253H4.5a.75.75 0 0 0 0-1.5h-.375c-.694 0-1.342.19-1.833.59A2.126 2.126 0 0 0 1.5 5.268v13.308c0 1.354 1.135 2.395 2.468 2.395H9.75a.75.75 0 0 0 0-1.5H3.968c-.566 0-.968-.43-.968-.895V8.25h15v1.5a.75.75 0 0 0 1.5 0V5.328C19.5 3.931 18.223 3 16.875 3H16.5a.75.75 0 0 0 0 1.5h.375c.762 0 1.125.482 1.125.828V6.75H3V5.269ZM20.25 17.25a.75.75 0 0 1-.75.75H15a.75.75 0 0 1 0-1.5h4.5a.75.75 0 0 1 .75.75Zm-3-5.25A5.25 5.25 0 0 0 12 17.25a5.25 5.25 0 1 0 10.5 0A5.25 5.25 0 0 0 17.25 12Zm-3.75 5.25a3.75 3.75 0 1 1 7.499-.001 3.75 3.75 0 0 1-7.499.001Z" clip-rule="evenodd"/>
</svg>
