<svg xmlns="http://www.w3.org/2000/svg" width="24" height="24" fill="currentColor" viewBox="0 0 24 24">
  <path fill-rule="evenodd" d="M9 1.5a.75.75 0 0 1 .75.75v.738h4.485V2.25a.75.75 0 0 1 1.5 0v2.975a.75.75 0 0 1-1.5 0v-.737H9.75v.737a.75.75 0 0 1-1.5 0V2.25A.75.75 0 0 1 9 1.5ZM3 8.25V6.646c0-.812.61-1.396 1.277-1.396H6a.75.75 0 0 0 0-1.5H4.277C2.7 3.75 1.5 5.089 1.5 6.646V19.88c0 1.498 1.298 2.62 2.777 2.62h15.446c1.478 0 2.777-1.115 2.777-2.62V6.645c0-1.557-1.2-2.896-2.777-2.896H18a.75.75 0 0 0 0 1.5h1.723c.667 0 1.277.584 1.277 1.396V8.25H3Zm18 1.5H3v10.13c0 .56.513 1.12 1.277 1.12h15.446c.765 0 1.277-.555 1.277-1.12V9.75Z" clip-rule="evenodd"/>
</svg>
