<svg xmlns="http://www.w3.org/2000/svg" width="24" height="24" fill="currentColor" viewBox="0 0 24 24">
  <path fill-rule="evenodd" d="M8.25 3.738a.75.75 0 0 1 .75-.75h5.97a.75.75 0 0 1 0 1.5H9a.75.75 0 0 1-.75-.75Z" clip-rule="evenodd"/>
  <path fill-rule="evenodd" d="M9 1.5a.75.75 0 0 1 .75.75v2.975a.75.75 0 0 1-1.5 0V2.25A.75.75 0 0 1 9 1.5Zm5.985 0a.75.75 0 0 1 .75.75v2.975a.75.75 0 1 1-1.5 0V2.25a.75.75 0 0 1 .75-.75ZM1.5 8.25h21v11.63c0 1.505-1.3 2.62-2.777 2.62H4.277c-1.48 0-2.777-1.122-2.777-2.62V8.25ZM3 9.75v10.13c0 .56.513 1.12 1.277 1.12h15.446c.765 0 1.277-.555 1.277-1.12V9.75H3Z" clip-rule="evenodd"/>
  <path fill-rule="evenodd" d="M1.5 6.646c0-1.557 1.2-2.896 2.777-2.896H6a.75.75 0 0 1 0 1.5H4.277C3.61 5.25 3 5.834 3 6.646V8.25h18V6.646c0-.812-.61-1.396-1.277-1.396H18a.75.75 0 0 1 0-1.5h1.723c1.576 0 2.777 1.339 2.777 2.896V9.75h-21V6.646Z" clip-rule="evenodd"/>
</svg>
