<svg xmlns="http://www.w3.org/2000/svg" width="24" height="24" fill="none" viewBox="0 0 24 24">
  <path fill="#3D3C3C" fill-rule="evenodd" d="M8.286 2.25a.75.75 0 0 0-1.5 0v2.975a.75.75 0 1 0 1.5 0v-.737h4.485v.737a.75.75 0 0 0 1.5 0V2.25a.75.75 0 1 0-1.5 0v.738H8.286V2.25ZM3.24 4.753a.628.628 0 0 0-.24.516V6.75h15V5.328c0-.346-.363-.828-1.125-.828H16.5a.75.75 0 0 1 0-1.5h.375c1.348 0 2.625.931 2.625 2.328V9.75a.75.75 0 0 1-1.5 0v-1.5H3v10.327c0 .465.402.895.968.895H9.75a.75.75 0 0 1 0 1.5H3.968c-1.333 0-2.468-1.041-2.468-2.395V5.269c0-.677.29-1.27.792-1.68C2.782 3.19 3.431 3 4.125 3H4.5a.75.75 0 0 1 0 1.5h-.375c-.431 0-.72.118-.886.253ZM18 15a.75.75 0 0 0-1.5 0v1.5H15a.75.75 0 0 0 0 1.5h1.5v1.5a.75.75 0 0 0 1.5 0V18h1.5a.75.75 0 0 0 0-1.5H18V15Zm-.75-3A5.25 5.25 0 0 0 12 17.25a5.25 5.25 0 1 0 10.5 0A5.25 5.25 0 0 0 17.25 12Zm-3.75 5.25a3.75 3.75 0 1 1 7.499-.001 3.75 3.75 0 0 1-7.499.001Z" clip-rule="evenodd"/>
</svg>
