<svg xmlns="http://www.w3.org/2000/svg" width="24" height="24" fill="none" viewBox="0 0 24 24">
  <path fill="#3D3C3C" d="M18.65 9.7a.7.7 0 1 1-1.4 0 .7.7 0 0 1 1.4 0Z"/>
  <path fill="#3D3C3C" fill-rule="evenodd" d="M7.119 3.905a.75.75 0 0 1 .457-.155h5.319a.75.75 0 0 1 .556.247l1.132 1.253h5.292c.757 0 1.414.396 1.861.888.447.492.764 1.168.764 1.872v10.489C22.5 19.89 21.361 21 19.975 21H4.025C2.64 21 1.5 19.89 1.5 18.498V8.004c0-.704.317-1.379.765-1.87.448-.49 1.105-.883 1.86-.883H5.37l1.749-1.345ZM7.83 5.25 6.082 6.595a.75.75 0 0 1-.457.155h-1.5c-.226 0-.507.125-.751.394-.245.268-.374.595-.374.859v10.495c0 .545.448 1.002 1.025 1.002h15.95c.577 0 1.025-.457 1.025-1.002V8.01c0-.265-.13-.594-.375-.864s-.526-.396-.75-.396H14.25a.75.75 0 0 1-.556-.247L12.56 5.25H7.83Z" clip-rule="evenodd"/>
  <path fill="#3D3C3C" fill-rule="evenodd" d="M10.125 9.75a3.375 3.375 0 1 0 0 6.75 3.375 3.375 0 0 0 0-6.75ZM5.25 13.125a4.875 4.875 0 1 1 9.75 0 4.875 4.875 0 0 1-9.75 0Z" clip-rule="evenodd"/>
</svg>
