<svg xmlns="http://www.w3.org/2000/svg" width="24" height="24" fill="currentColor" viewBox="0 0 24 24">
  <path fill-rule="evenodd" d="M3 4.5A1.5 1.5 0 0 1 4.5 3h6a.75.75 0 0 1 0 1.5h-6v6a.75.75 0 0 1-1.5 0v-6Zm9.75-.75A.75.75 0 0 1 13.5 3h6A1.5 1.5 0 0 1 21 4.5v6a.75.75 0 0 1-1.5 0v-6h-6a.75.75 0 0 1-.75-.75ZM21 13.5a.75.75 0 0 0-1.5 0v6h-6a.75.75 0 0 0 0 1.5h6a1.5 1.5 0 0 0 1.5-1.5v-6Zm-17.25-.75a.75.75 0 0 1 .75.75v6h6a.75.75 0 0 1 0 1.5h-6A1.5 1.5 0 0 1 3 19.5v-6a.75.75 0 0 1 .75-.75ZM9 9h6v6H9V9ZM7.5 9A1.5 1.5 0 0 1 9 7.5h6A1.5 1.5 0 0 1 16.5 9v6a1.5 1.5 0 0 1-1.5 1.5H9A1.5 1.5 0 0 1 7.5 15V9Z" clip-rule="evenodd"/>
</svg>
