<svg xmlns="http://www.w3.org/2000/svg" width="24" height="24" fill="currentColor" viewBox="0 0 24 24">
  <path d="M9.375 22.5a1.125 1.125 0 1 0 0-2.25 1.125 1.125 0 0 0 0 2.25Zm5.25 0a1.125 1.125 0 1 0 0-2.25 1.125 1.125 0 0 0 0 2.25Z"/>
  <path fill-rule="evenodd" d="M5.25 6A.75.75 0 0 1 6 5.25h13.198c1.242 0 2.134 1.224 1.686 2.406a.769.769 0 0 1-.013.033l-1.912 4.398A4.82 4.82 0 0 1 14.543 15H6a.75.75 0 0 1-.75-.75V6Zm1.5.75v6.75h7.793a3.32 3.32 0 0 0 3.04-2.01l1.903-4.378c.053-.162-.062-.362-.288-.362H6.75Z" clip-rule="evenodd"/>
  <path fill-rule="evenodd" d="M2.25 2.25A.75.75 0 0 1 3 1.5h.998C5.47 1.5 6.75 2.63 6.75 4.125V6a.75.75 0 0 1-1.5 0V4.125C5.25 3.55 4.736 3 3.998 3H3a.75.75 0 0 1-.75-.75ZM6 13.5a.75.75 0 0 1 .75.75v2.25c0 .896.646 1.5 1.296 1.5h9.204a.75.75 0 0 1 0 1.5H8.046c-1.609 0-2.796-1.413-2.796-3v-2.25A.75.75 0 0 1 6 13.5Z" clip-rule="evenodd"/>
</svg>
