<svg xmlns="http://www.w3.org/2000/svg" width="24" height="24" fill="currentColor" viewBox="0 0 24 24">
  <path fill-rule="evenodd" d="M2.25 2.25A.75.75 0 0 1 3 1.5h.998C5.47 1.5 6.75 2.63 6.75 4.125V5.25h12.448c1.242 0 2.134 1.224 1.686 2.406a.769.769 0 0 1-.013.033l-1.912 4.398A4.82 4.82 0 0 1 14.543 15H6.75v1.5c0 .896.646 1.5 1.296 1.5h9.204a.75.75 0 0 1 0 1.5H8.046c-1.609 0-2.796-1.413-2.796-3V4.125C5.25 3.55 4.736 3 3.998 3H3a.75.75 0 0 1-.75-.75Zm4.5 11.25V6.75h12.448c.226 0 .34.2.288.362l-1.902 4.377a3.32 3.32 0 0 1-3.04 2.011H6.75Zm2.625 9a1.125 1.125 0 1 0 0-2.25 1.125 1.125 0 0 0 0 2.25Zm5.25 0a1.125 1.125 0 1 0 0-2.25 1.125 1.125 0 0 0 0 2.25Z" clip-rule="evenodd"/>
</svg>
