<svg xmlns="http://www.w3.org/2000/svg" width="24" height="24" fill="currentColor" viewBox="0 0 24 24">
  <path fill-rule="evenodd" d="M4.5 4.122C4.5 3.492 5.005 3 5.582 3h12.086c.577 0 1.082.492 1.082 1.122V6.75a.75.75 0 0 0 1.5 0V4.122c0-1.427-1.146-2.622-2.582-2.622H5.582C4.146 1.5 3 2.695 3 4.122V6h-.75a.75.75 0 0 0 0 1.5h3a.75.75 0 0 0 0-1.5H4.5V4.122Zm0 15.34a.75.75 0 0 0-1.5 0v.416C3 21.305 4.146 22.5 5.582 22.5H9A.75.75 0 0 0 9 21H5.582c-.577 0-1.082-.492-1.082-1.122v-.416ZM2.25 11.25a.75.75 0 0 0 0 1.5h3a.75.75 0 0 0 0-1.5H4.5V9A.75.75 0 0 0 3 9v2.25h-.75Zm0 5.25a.75.75 0 0 0 0 1.5h3a.75.75 0 0 0 0-1.5H4.5v-2.25a.75.75 0 0 0-1.5 0v2.25h-.75Zm15.098-7.104a.75.75 0 0 1 1.01-.31l2.623 1.373a.75.75 0 0 1 .319 1.009l-.474.917a5.5 5.5 0 0 1 .604.996l1.105.053a.75.75 0 0 1 .715.749v2.875a.75.75 0 0 1-.726.75l-.97.032a5.38 5.38 0 0 1-.237.506l-.003.005c-.09.166-.188.33-.295.49l.592 1.019a.75.75 0 0 1-.281 1.03l-2.691 1.514a.75.75 0 0 1-1.04-.32l-.436-.88a5.301 5.301 0 0 1-1.05.03l-.46.864a.75.75 0 0 1-1.01.31l-2.649-1.385a.75.75 0 0 1-.312-1.021l.486-.9a5.507 5.507 0 0 1-.579-.95l-.974.032a.75.75 0 0 1-.774-.727l-.09-2.998a.75.75 0 0 1 .725-.773l.97-.031a5.257 5.257 0 0 1 .528-.99l-.513-.835a.75.75 0 0 1 .242-1.029l2.534-1.58a.75.75 0 0 1 1.035.243l.513.834c.362-.05.731-.064 1.101-.038l.462-.864Zm.972 1.363-.353.661a.75.75 0 0 1-.793.385 3.804 3.804 0 0 0-1.576.054.75.75 0 0 1-.82-.335l-.388-.63-1.261.786.389.633a.75.75 0 0 1-.065.874 3.946 3.946 0 0 0-.753 1.417.75.75 0 0 1-.693.533l-.735.024.046 1.5.736-.024a.75.75 0 0 1 .729.491c.186.508.465.973.835 1.369a.75.75 0 0 1 .112.869l-.367.68 1.317.69.353-.662a.75.75 0 0 1 .793-.385 3.804 3.804 0 0 0 1.576-.054.75.75 0 0 1 .852.395l.338.68 1.34-.754-.46-.79a.75.75 0 0 1 .075-.859 4.046 4.046 0 0 0 .752-1.417.75.75 0 0 1 .694-.533l.757-.024v-1.435l-.864-.04a.75.75 0 0 1-.669-.492 4.017 4.017 0 0 0-.835-1.368.75.75 0 0 1-.119-.857l.362-.7-1.305-.682Zm-.695 4.991a1.125 1.125 0 1 1-2.25 0 1.125 1.125 0 0 1 2.25 0Zm1.5 0a2.625 2.625 0 1 1-5.25 0 2.625 2.625 0 0 1 5.25 0Z" clip-rule="evenodd"/>
</svg>
