<svg xmlns="http://www.w3.org/2000/svg" width="24" height="24" fill="currentColor" viewBox="0 0 24 24">
  <path fill-rule="evenodd" d="M6 4.122C6 3.492 6.505 3 7.082 3h12.086c.577 0 1.082.492 1.082 1.122v15.756c0 .63-.505 1.122-1.082 1.122H7.082C6.505 21 6 20.508 6 19.878v-.416a.75.75 0 0 0-1.5 0v.416c0 1.427 1.146 2.622 2.582 2.622h12.086c1.436 0 2.582-1.195 2.582-2.622V4.122c0-1.427-1.146-2.622-2.582-2.622H7.082C5.646 1.5 4.5 2.695 4.5 4.122V6h-.75a.75.75 0 0 0 0 1.5h3a.75.75 0 0 0 0-1.5H6V4.122ZM3.75 11.25a.75.75 0 0 0 0 1.5h3a.75.75 0 0 0 0-1.5H6V9a.75.75 0 0 0-1.5 0v2.25h-.75Zm0 5.25a.75.75 0 0 0 0 1.5h3a.75.75 0 0 0 0-1.5H6v-2.25a.75.75 0 0 0-1.5 0v2.25h-.75Z" clip-rule="evenodd"/>
</svg>
