<svg xmlns="http://www.w3.org/2000/svg" width="24" height="24" fill="currentColor" viewBox="0 0 24 24">
  <path fill-rule="evenodd" d="M3 9a.75.75 0 0 1 .75-.75h3a.75.75 0 1 1 0 1.5h-3A.75.75 0 0 1 3 9Zm0 4.5a.75.75 0 0 1 .75-.75h3a.75.75 0 0 1 0 1.5h-3A.75.75 0 0 1 3 13.5Z" clip-rule="evenodd"/>
  <path fill-rule="evenodd" d="M5.25 10.5a.75.75 0 0 1 .75.75v2.25a.75.75 0 0 1-1.5 0v-2.25a.75.75 0 0 1 .75-.75ZM3 18a.75.75 0 0 1 .75-.75h3a.75.75 0 0 1 0 1.5h-3A.75.75 0 0 1 3 18Z" clip-rule="evenodd"/>
  <path fill-rule="evenodd" d="M5.25 15a.75.75 0 0 1 .75.75v1.904a.75.75 0 1 1-1.5 0V15.75a.75.75 0 0 1 .75-.75Z" clip-rule="evenodd"/>
  <path fill-rule="evenodd" d="M6.82 5.25c-.411 0-.82.372-.82.906V8.37a.75.75 0 1 1-1.5 0V6.156C4.5 4.87 5.506 3.75 6.82 3.75h10.36c1.314 0 2.32 1.12 2.32 2.406v13.938c0 1.286-1.006 2.406-2.32 2.406H6.82c-1.215 0-2.32-.867-2.32-2.25a.75.75 0 0 1 1.5 0c0 .436.31.75.82.75h10.36c.411 0 .82-.372.82-.906V6.156c0-.534-.409-.906-.82-.906H6.82Z" clip-rule="evenodd"/>
  <path fill-rule="evenodd" d="M6 2.25c0-.414.32-.75.716-.75H19.15c1.409 0 2.6 1.174 2.6 2.662V20.25c0 .414-.32.75-.716.75-.395 0-.716-.336-.716-.75V4.162c0-.614-.506-1.162-1.168-1.162H6.716C6.32 3 6 2.664 6 2.25Z" clip-rule="evenodd"/>
  <path fill-rule="evenodd" d="M9 9a.75.75 0 0 1 .75-.75H15a.75.75 0 0 1 0 1.5H9.75A.75.75 0 0 1 9 9Zm0 3a.75.75 0 0 1 .75-.75H15a.75.75 0 0 1 0 1.5H9.75A.75.75 0 0 1 9 12Zm0 3a.75.75 0 0 1 .75-.75H15a.75.75 0 0 1 0 1.5H9.75A.75.75 0 0 1 9 15Z" clip-rule="evenodd"/>
</svg>
