<svg xmlns="http://www.w3.org/2000/svg" width="24" height="24" fill="currentColor" viewBox="0 0 24 24">
  <path fill-rule="evenodd" d="M7.5 1.5a.75.75 0 0 0 0 1.5h11.723c.512 0 1.027.473 1.027 1.162V20.25a.75.75 0 0 0 1.5 0V4.162c0-1.412-1.085-2.662-2.527-2.662H7.5ZM6.07 6a.833.833 0 0 0-.82.834V8.25H6a.75.75 0 1 1 0 1.5H3a.75.75 0 0 1 0-1.5h.75V6.834A2.333 2.333 0 0 1 6.07 4.5h10.36a2.333 2.333 0 0 1 2.32 2.334v13.332a2.333 2.333 0 0 1-2.32 2.334H6.07c-1.182 0-2.32-.811-2.32-2.185a.75.75 0 0 1 1.5 0c0 .368.277.685.82.685h10.36c.442 0 .82-.372.82-.834V6.834A.833.833 0 0 0 16.43 6H6.07Zm-3.82 7.5a.75.75 0 0 1 .75-.75h.75v-1.5a.75.75 0 0 1 1.5 0v1.5H6a.75.75 0 0 1 0 1.5H3a.75.75 0 0 1-.75-.75Zm0 4.5a.75.75 0 0 1 .75-.75h.75v-1.5a.75.75 0 0 1 1.5 0v1.5H6a.75.75 0 0 1 0 1.5H3a.75.75 0 0 1-.75-.75Z" clip-rule="evenodd"/>
</svg>
