<svg xmlns="http://www.w3.org/2000/svg" width="24" height="24" fill="none" viewBox="0 0 24 24">
  <path fill="#3D3C3C" fill-rule="evenodd" d="M1.5 4.5a2.25 2.25 0 0 1 2.25-2.25h16.5A2.25 2.25 0 0 1 22.5 4.5v5.25a.75.75 0 0 1-1.5 0V4.5a.75.75 0 0 0-.75-.75H3.75A.75.75 0 0 0 3 4.5V18c0 .414.336.75.75.75h6a.75.75 0 0 1 0 1.5h-6A2.25 2.25 0 0 1 1.5 18V4.5ZM17.25 12A5.25 5.25 0 0 0 12 17.25a5.25 5.25 0 1 0 10.5 0A5.25 5.25 0 0 0 17.25 12Zm-3.75 5.25a3.75 3.75 0 1 1 7.499-.001 3.75 3.75 0 0 1-7.499.001Zm5.864-1.07a.75.75 0 1 0-1.228-.86l-1.487 2.12-.284-.407a.75.75 0 1 0-1.23.858l.897 1.288a.75.75 0 0 0 1.23.001l2.102-3ZM5.25 6a.75.75 0 0 0 0 1.5h7.5a.75.75 0 0 0 0-1.5h-7.5ZM4.5 9.75A.75.75 0 0 1 5.25 9h6a.75.75 0 0 1 0 1.5h-6a.75.75 0 0 1-.75-.75ZM5.25 12a.75.75 0 0 0 0 1.5h3.375a.75.75 0 0 0 0-1.5H5.25Z" clip-rule="evenodd"/>
</svg>
