<svg xmlns="http://www.w3.org/2000/svg" width="24" height="24" fill="currentColor" viewBox="0 0 24 24">
  <path d="M12.5 2C18.299 2 23 6.701 23 12.5S18.299 23 12.5 23 2 18.299 2 12.5c0-2.002.56-3.874 1.533-5.466a.746.746 0 0 1 .219-.342A10.49 10.49 0 0 1 12.5 2ZM6.69 19.37a8.955 8.955 0 0 0 5.06 2.096V18.45a5.967 5.967 0 0 1-2.93-1.212L6.69 19.37ZM17.24 8.82a5.996 5.996 0 0 1-3.99 9.63v3.016c4.62-.381 8.25-4.248 8.25-8.966a8.962 8.962 0 0 0-2.13-5.81l-2.13 2.13Zm-12.7-.522A8.96 8.96 0 0 0 3.5 12.5c0 2.215.802 4.242 2.129 5.81l2.13-2.131A5.974 5.974 0 0 1 6.5 12.5c0-.954.222-1.855.617-2.655L4.54 8.298ZM12.5 8A4.497 4.497 0 0 0 8 12.5c0 2.487 2.013 4.5 4.5 4.5s4.5-2.013 4.5-4.5c0-2.488-2.012-4.5-4.5-4.5Zm0-4.5a8.984 8.984 0 0 0-7.15 3.535l2.596 1.558A5.984 5.984 0 0 1 12.5 6.5c1.387 0 2.663.47 3.679 1.26l2.13-2.131A8.962 8.962 0 0 0 12.5 3.5Z"/>
</svg>
