<svg xmlns="http://www.w3.org/2000/svg" width="24" height="24" fill="currentColor" viewBox="0 0 24 24">
  <path d="M2.75 3a.75.75 0 0 1 .75.75V21h18a.75.75 0 0 1 0 1.5H2.75a.75.75 0 0 1-.75-.75v-18A.75.75 0 0 1 2.75 3ZM20 7.875a2.25 2.25 0 1 1-.913 4.306l-2.305 2.233a2.25 2.25 0 1 1-4.18.288l-1.634-1.375a2.238 2.238 0 0 1-2.384.352l-3.003 3.67A.751.751 0 0 1 4.42 16.4l3.075-3.76a2.25 2.25 0 1 1 4.256-1.016c0 .128-.014.252-.034.373l1.788 1.504a2.24 2.24 0 0 1 2.222-.151l2.271-2.202A2.25 2.25 0 0 1 20 7.875Zm-5.25 6.75a.75.75 0 1 0 0 1.5.75.75 0 0 0 0-1.5Zm-5.25-3.75a.75.75 0 1 0 0 1.5.75.75 0 0 0 0-1.5Zm10.5-1.5a.75.75 0 1 0 0 1.5.75.75 0 0 0 0-1.5Z"/>
</svg>
