<svg xmlns="http://www.w3.org/2000/svg" width="24" height="24" fill="currentColor" viewBox="0 0 24 24">
  <path d="M7.5 4a.75.75 0 1 1 0 1.5h-.75v1.184c.868.892 1.833 2.409 2.146 4.119.173.95.149 1.98-.228 2.997-.342.925-.962 1.798-1.919 2.57v4.13h.75a.75.75 0 0 1 0 1.5h-3a.75.75 0 0 1 0-1.5h.75v-4.132c-.956-.77-1.576-1.644-1.919-2.568-.376-1.016-.4-2.047-.226-2.997.312-1.71 1.277-3.226 2.145-4.118V5.5H4.5a.75.75 0 0 1 0-1.5h3Zm6.75 0a.75.75 0 0 1 0 1.5h-.75v4.184c.868.892 1.833 2.409 2.146 4.119.173.95.149 1.98-.228 2.997-.342.924-.962 1.798-1.919 2.57v1.13h.75a.75.75 0 0 1 0 1.5h-3a.75.75 0 0 1 0-1.5H12v-1.132c-.956-.77-1.576-1.644-1.919-2.568-.376-1.016-.4-2.047-.226-2.997.312-1.71 1.277-3.226 2.145-4.118V5.5h-.75a.75.75 0 0 1 0-1.5h3ZM21 4a.75.75 0 0 1 0 1.5h-.75v1.184c.868.892 1.833 2.409 2.146 4.119.174.95.149 1.98-.228 2.997-.342.925-.962 1.798-1.919 2.57v4.13H21a.75.75 0 0 1 0 1.5h-3a.75.75 0 0 1 0-1.5h.75v-4.132c-.956-.77-1.576-1.644-1.919-2.568-.376-1.016-.4-2.047-.226-2.997.312-1.71 1.277-3.226 2.145-4.118V5.5H18A.75.75 0 0 1 18 4h3Zm-9.687 11.625c.039.22.094.438.174.653.219.59.611 1.192 1.262 1.763.652-.57 1.044-1.172 1.263-1.763.08-.215.136-.433.175-.653h-2.874Zm-6.75-3c.039.22.094.438.174.653.218.59.611 1.192 1.262 1.763.652-.57 1.044-1.172 1.263-1.763.08-.215.136-.433.175-.653H4.563Zm13.5 0c.039.22.094.438.174.653.219.59.611 1.192 1.262 1.763.652-.57 1.044-1.172 1.263-1.763.08-.215.136-.433.175-.653h-2.874Zm-5.314-1.53c-.598.732-1.208 1.811-1.42 2.977-.004.018-.005.036-.008.053h2.857l-.008-.053c-.213-1.165-.822-2.245-1.42-2.977Zm-6.75-3c-.598.732-1.208 1.811-1.42 2.977-.004.018-.005.036-.008.053h2.857l-.008-.053C7.207 9.907 6.598 8.827 6 8.095Zm13.5 0c-.598.732-1.207 1.811-1.42 2.977-.004.018-.005.036-.008.053h2.857l-.008-.053c-.213-1.165-.822-2.245-1.42-2.977Z"/>
</svg>
