<svg xmlns="http://www.w3.org/2000/svg" width="24" height="24" fill="currentColor" viewBox="0 0 24 24">
  <path d="M2.25 2.25A.75.75 0 0 1 3 3v17.25h18a.75.75 0 0 1 0 1.5H2.25A.75.75 0 0 1 1.5 21V3a.75.75 0 0 1 .75-.75ZM6.75 15a2.25 2.25 0 1 1 0 4.5 2.25 2.25 0 0 1 0-4.5Zm9.75-.75a2.25 2.25 0 1 1 0 4.5 2.25 2.25 0 0 1 0-4.5ZM6.75 16.5a.75.75 0 1 0 0 1.5.75.75 0 0 0 0-1.5Zm9.75-.75a.75.75 0 1 0 0 1.5.75.75 0 0 0 0-1.5ZM13.5 9a2.25 2.25 0 1 1 0 4.5 2.25 2.25 0 0 1 0-4.5ZM6.75 7.5a2.25 2.25 0 1 1 0 4.5 2.25 2.25 0 0 1 0-4.5Zm6.75 3a.75.75 0 1 0 0 1.5.75.75 0 0 0 0-1.5ZM6.75 9a.75.75 0 1 0 0 1.5.75.75 0 0 0 0-1.5Zm12-5.25a2.25 2.25 0 1 1 0 4.5 2.25 2.25 0 0 1 0-4.5Zm0 1.5a.75.75 0 1 0 0 1.5.75.75 0 0 0 0-1.5Z"/>
</svg>
