<svg xmlns="http://www.w3.org/2000/svg" width="24" height="24" fill="currentColor" viewBox="0 0 24 24">
  <path d="M2.25 2.25A.75.75 0 0 1 3 3v17.25h18a.75.75 0 0 1 0 1.5H2.25A.75.75 0 0 1 1.5 21V3a.75.75 0 0 1 .75-.75Zm6.375 9a4.125 4.125 0 1 1 0 8.25 4.125 4.125 0 0 1 0-8.25Zm7.875 3a2.25 2.25 0 1 1 0 4.5 2.25 2.25 0 0 1 0-4.5Zm-7.875-1.5a2.625 2.625 0 1 0 0 5.25 2.625 2.625 0 0 0 0-5.25Zm7.875 3a.75.75 0 1 0 0 1.5.75.75 0 0 0 0-1.5Zm-.375-13.5a4.875 4.875 0 1 1 0 9.75 4.875 4.875 0 0 1 0-9.75Zm0 1.5a3.375 3.375 0 1 0 0 6.75 3.375 3.375 0 0 0 0-6.75ZM6.75 5.25a2.25 2.25 0 1 1 0 4.5 2.25 2.25 0 0 1 0-4.5Zm0 1.5a.75.75 0 1 0 0 1.5.75.75 0 0 0 0-1.5Z"/>
</svg>
