<svg xmlns="http://www.w3.org/2000/svg" width="24" height="24" fill="currentColor" viewBox="0 0 24 24">
  <path d="M7.5 4a.75.75 0 0 1 0 1.5h-.75v2.25h1.5A.75.75 0 0 1 9 8.5v9a.75.75 0 0 1-.75.75h-1.5v2.25h.75a.75.75 0 0 1 0 1.5h-3a.75.75 0 0 1 0-1.5h.75v-2.25h-1.5A.75.75 0 0 1 3 17.5v-9a.75.75 0 0 1 .75-.75h1.5V5.5H4.5a.75.75 0 0 1 0-1.5h3Zm6.75 0a.75.75 0 0 1 0 1.5h-.75v2.25H15a.75.75 0 0 1 .75.75v6.75A.75.75 0 0 1 15 16h-1.5v4.5h.75a.75.75 0 0 1 0 1.5h-3a.75.75 0 0 1 0-1.5H12V16h-1.5a.75.75 0 0 1-.75-.75V8.5a.75.75 0 0 1 .75-.75H12V5.5h-.75a.75.75 0 0 1 0-1.5h3ZM21 4a.75.75 0 0 1 0 1.5h-.75v.75h1.5a.75.75 0 0 1 .75.75v12a.75.75 0 0 1-.75.75h-1.5v.75H21a.75.75 0 0 1 0 1.5h-3a.75.75 0 0 1 0-1.5h.75v-.75h-1.5a.75.75 0 0 1-.75-.75V7a.75.75 0 0 1 .75-.75h1.5V5.5H18A.75.75 0 0 1 18 4h3Zm-3 14.25h3V7.75h-3v10.5Zm-13.5-1.5h3v-7.5h-3v7.5Zm6.75-2.25h3V9.25h-3v5.25Z"/>
</svg>
