<svg xmlns="http://www.w3.org/2000/svg" width="24" height="24" fill="currentColor" viewBox="0 0 24 24">
  <path d="M19 16.5a.75.75 0 0 1 .75.75v1.5h.75V18a.75.75 0 0 1 1.5 0v3a.75.75 0 0 1-1.5 0v-.75h-.75v1.5a.75.75 0 0 1-.75.75H7a.75.75 0 0 1-.75-.75v-1.5H5.5V21A.75.75 0 0 1 4 21v-3a.75.75 0 0 1 1.5 0v.75h.75v-1.5A.75.75 0 0 1 7 16.5h12ZM7.75 21h10.5v-3H7.75v3ZM17.5 9.75a.75.75 0 0 1 .75.75V12h2.25v-.75a.75.75 0 0 1 1.5 0v3a.75.75 0 0 1-1.5 0v-.75h-2.25V15a.75.75 0 0 1-.75.75h-6.75A.75.75 0 0 1 10 15v-1.5H5.5v.75a.75.75 0 0 1-1.5 0v-3a.75.75 0 0 1 1.5 0V12H10v-1.5a.75.75 0 0 1 .75-.75h6.75Zm-6 4.5h5.25v-3H11.5v3ZM17.5 3a.75.75 0 0 1 .75.75v1.5h2.25V4.5a.75.75 0 0 1 1.5 0v3a.75.75 0 0 1-1.5 0v-.75h-2.25v1.5a.75.75 0 0 1-.75.75h-9a.75.75 0 0 1-.75-.75v-1.5H5.5v.75a.75.75 0 0 1-1.5 0v-3a.75.75 0 0 1 1.5 0v.75h2.25v-1.5A.75.75 0 0 1 8.5 3h9ZM9.25 7.5h7.5v-3h-7.5v3Z"/>
</svg>
