<svg xmlns="http://www.w3.org/2000/svg" width="24" height="24" fill="currentColor" viewBox="0 0 24 24">
  <path d="M2.75 3a.75.75 0 0 1 .75.75v7.246L8.718 7.62l.062-.036a.75.75 0 0 1 .935.202l3.531 4.496 4.662-5.993.055-.062a.751.751 0 0 1 1.106.036l2.25 2.625.047.06a.75.75 0 0 1-1.133.971l-.052-.056-1.654-1.928-4.685 6.026a.75.75 0 0 1-1.182.003L8.957 9.25 3.5 12.782v4.738l3.178-3.754.047-.051a.75.75 0 0 1 .922-.1l5.534 3.457 4.832-4.141.052-.042a.75.75 0 0 1 .915.035l2.25 1.875.057.052a.751.751 0 0 1-.956 1.147l-.061-.047-1.764-1.47-4.768 4.088a.75.75 0 0 1-.886.067L7.403 15.23l-3.705 4.378a.745.745 0 0 1-.198.161V21h18a.75.75 0 0 1 0 1.5H2.75a.75.75 0 0 1-.75-.75v-18A.75.75 0 0 1 2.75 3Z"/>
</svg>
