<svg xmlns="http://www.w3.org/2000/svg" width="24" height="24" fill="currentColor" viewBox="0 0 24 24">
  <path fill-rule="evenodd" d="M21 3a.75.75 0 0 1 .75.75V19.5a.75.75 0 0 1 0 1.5H2.25a.75.75 0 0 1 0-1.5V9.75A.75.75 0 0 1 3 9h4.5a.75.75 0 0 1 .75.75v9.75H9V6.75A.75.75 0 0 1 9.75 6h4.5a.75.75 0 0 1 .75.75V19.5h.75V3.75A.75.75 0 0 1 16.5 3H21ZM3.75 19.5h3v-3.75h-3v3.75Zm6.75 0h3V12h-3v7.5Zm6.75-3.75v3.75h3v-3.75h-3Zm0-1.5h3V4.5h-3v9.75Zm-13.5 0h3V10.5h-3v3.75Zm6.75-3.75h3v-3h-3v3Z" clip-rule="evenodd"/>
</svg>
