<svg xmlns="http://www.w3.org/2000/svg" width="24" height="24" fill="currentColor" viewBox="0 0 24 24">
  <path d="M12.2 16.83c1.016-.376 2.047-.4 2.997-.226 1.71.312 3.226 1.277 4.118 2.145H20.5V18a.75.75 0 0 1 1.5 0v3a.75.75 0 0 1-1.5 0v-.75h-1.185c-.892.87-2.408 1.834-4.118 2.147-.95.174-1.98.149-2.997-.228-.925-.342-1.798-.962-2.57-1.919H5.5V21A.75.75 0 0 1 4 21v-3a.75.75 0 0 1 1.5 0v.75h4.132c.77-.956 1.644-1.576 2.568-1.919Zm1.175 1.232c-.22.039-.438.095-.653.175-.59.219-1.192.611-1.763 1.262.57.652 1.172 1.044 1.763 1.263.215.08.433.136.653.175v-2.875Zm1.5 2.866.053-.008c1.165-.213 2.245-.822 2.977-1.42-.732-.6-1.812-1.209-2.977-1.422l-.053-.008v2.858ZM9.2 10.08c1.016-.376 2.047-.4 2.997-.226 1.71.312 3.226 1.277 4.118 2.145H20.5v-.75a.75.75 0 0 1 1.5 0v3a.75.75 0 0 1-1.5 0v-.75h-4.185c-.892.87-2.408 1.834-4.118 2.147-.95.173-1.98.149-2.997-.228-.924-.342-1.798-.962-2.57-1.919H5.5v.75a.75.75 0 0 1-1.5 0v-3a.75.75 0 0 1 1.5 0V12h1.132c.77-.956 1.644-1.576 2.568-1.919Zm1.175 1.232c-.22.039-.438.095-.653.175-.59.219-1.192.611-1.763 1.262.57.652 1.172 1.044 1.763 1.263.215.08.433.136.653.175v-2.875Zm1.5 2.866.053-.008c1.165-.213 2.245-.822 2.977-1.42-.732-.6-1.811-1.209-2.977-1.421l-.053-.01v2.86ZM12.2 3.33c1.016-.376 2.047-.4 2.997-.226 1.71.312 3.226 1.277 4.118 2.145H20.5V4.5a.75.75 0 0 1 1.5 0v3a.75.75 0 0 1-1.5 0v-.75h-1.185c-.892.87-2.408 1.834-4.118 2.147-.95.173-1.98.149-2.997-.228-.925-.342-1.798-.962-2.57-1.919H5.5v.75a.75.75 0 1 1-1.5 0v-3a.75.75 0 0 1 1.5 0v.75h4.132c.77-.956 1.644-1.576 2.568-1.919Zm1.175 1.232c-.22.039-.438.095-.653.175-.59.218-1.192.611-1.763 1.262.57.652 1.172 1.044 1.763 1.263.215.08.433.136.653.175V4.562Zm1.5 2.866.053-.008c1.165-.213 2.245-.822 2.977-1.42-.732-.6-1.812-1.209-2.977-1.422l-.053-.008v2.858Z"/>
</svg>
