<svg xmlns="http://www.w3.org/2000/svg" width="24" height="24" fill="currentColor" viewBox="0 0 24 24">
  <path d="M12.5 9C18.24 9 23 13.307 23 18.75a.75.75 0 0 1-.75.75h-4.694a.75.75 0 0 1-.75-.75c0-1.105-.513-2.126-1.35-2.849l-2.346 3.285a.753.753 0 0 1-.073.085l-.014.014c-.017.016-.036.03-.053.044-.022.018-.044.036-.068.05a.333.333 0 0 1-.048.028c-.027.015-.053.03-.081.04-.019.007-.038.011-.056.017a.713.713 0 0 1-.091.023l-.009.002a.754.754 0 0 1-.117.011l-.013-.001-.021-.001a.746.746 0 0 1-.125-.017c-.016-.003-.031-.009-.047-.013a.745.745 0 0 1-.2-.089l-.02-.013-.01-.006a.764.764 0 0 1-.087-.073l-.013-.014c-.016-.017-.03-.036-.044-.053-.018-.022-.036-.044-.05-.068a.296.296 0 0 1-.028-.049c-.014-.026-.03-.052-.04-.08-.007-.019-.011-.038-.017-.056a.744.744 0 0 1-.035-.217v-.02l.001-.014a.746.746 0 0 1 .017-.125c.003-.016.009-.031.013-.047.009-.03.016-.058.028-.086l.006-.012a.75.75 0 0 1 .055-.102l.013-.02.007-.01 2.271-3.18a4.666 4.666 0 0 0-1.661-.301c-2.437 0-4.306 1.807-4.306 3.917a.75.75 0 0 1-.75.75H2.75a.75.75 0 0 1-.75-.75C2 13.307 6.76 9 12.5 9Zm-8.122 6.201A7.69 7.69 0 0 0 3.538 18h3.213c.06-.412.17-.807.322-1.182l-2.695-1.617Zm13.548 1.617c.152.375.264.77.324 1.182h3.212a7.687 7.687 0 0 0-.84-2.799l-2.696 1.617ZM11.75 10.53c-2.72.205-5.069 1.51-6.558 3.41l2.641 1.584c.924-1.16 2.33-1.953 3.917-2.145V10.53Zm1.5 2.849c.636.077 1.244.25 1.803.506l.587-.82a.75.75 0 0 1 1.22.87l-.53.744c.309.253.59.536.836.845l2.64-1.584c-1.488-1.9-3.837-3.205-6.556-3.41v2.849Z"/>
</svg>
