<svg xmlns="http://www.w3.org/2000/svg" width="24" height="24" fill="currentColor" viewBox="0 0 24 24">
  <path d="M2.75 3a.75.75 0 0 1 .75.75V21h18a.75.75 0 0 1 0 1.5H2.75a.75.75 0 0 1-.75-.75v-18A.75.75 0 0 1 2.75 3Zm18.032 2.252a.75.75 0 0 1 .805.748v2.5a.75.75 0 0 1-1.5 0v-.495c-.94 1.437-1.817 3.548-1.963 6.285-.073 1.366-.354 2.472-.79 3.237-.42.736-1.14 1.376-2.066 1.172-.836-.184-1.399-.986-1.745-1.924-.364-.989-.582-2.367-.583-4.134 0-1.384-.282-2.262-.61-2.74-.311-.453-.625-.52-.868-.471-.298.06-.736.347-1.12 1.069-.375.709-.654 1.771-.655 3.19 0 3.199-1.052 4.913-2.286 5.786a4.264 4.264 0 0 1-1.642.703 3.898 3.898 0 0 1-.775.071l-.017-.001h-.012l-.077-.01a.75.75 0 0 1 .168-1.488h.006c.015 0 .043 0 .08-.002a2.764 2.764 0 0 0 1.403-.498c.736-.52 1.652-1.71 1.652-4.56 0-1.605.315-2.92.83-3.893.508-.958 1.258-1.658 2.148-1.838.945-.191 1.82.246 2.4 1.093.563.82.875 2.036.875 3.589 0 1.661.208 2.848.49 3.616.302.818.609.965.66.976.005.002.029.01.094-.032.08-.051.208-.172.347-.417.28-.491.53-1.342.595-2.574.17-3.179 1.235-5.635 2.385-7.292l-.878.08a.75.75 0 0 1-.135-1.494l2.592-.235a.752.752 0 0 1 .192-.017Z"/>
</svg>
