<svg xmlns="http://www.w3.org/2000/svg" width="24" height="24" fill="currentColor" viewBox="0 0 24 24">
  <path d="M21.5 6.5a.75.75 0 0 1 .75.75V20a.75.75 0 0 1 0 1.5H2.75a.75.75 0 0 1 0-1.5v-4.5a.75.75 0 0 1 .75-.75H8a.75.75 0 0 1 .75.75V20h.75v-7.5a.75.75 0 0 1 .75-.75h4.5a.75.75 0 0 1 .75.75V20h.75V7.25A.75.75 0 0 1 17 6.5h4.5ZM4.25 20h3v-3.75h-3V20ZM11 20h3v-6.75h-3V20Zm6.75 0h3V8h-3v12ZM16.625 2c1.038 0 1.875.837 1.875 1.875a1.871 1.871 0 0 1-2.253 1.837l-2.38 2.72a1.877 1.877 0 0 1-3.472 1.422l-3.15-.35a1.867 1.867 0 0 1-1.495.746c-.033 0-.065-.004-.098-.006v.003l-1.5 2.625a.75.75 0 0 1-1.303-.744l1.459-2.555a1.867 1.867 0 0 1-.433-1.198c0-1.038.837-1.875 1.875-1.875.921 0 1.682.66 1.842 1.533l2.826.315a1.87 1.87 0 0 1 2.38-.973l2.22-2.535A1.871 1.871 0 0 1 16.625 2Zm-4.5 6.75a.371.371 0 0 0-.375.375c0 .21.165.375.375.375s.375-.165.375-.375a.371.371 0 0 0-.375-.375ZM5.75 8a.372.372 0 0 0-.375.375c0 .21.165.375.375.375s.375-.165.375-.375A.372.372 0 0 0 5.75 8Zm10.875-4.5a.371.371 0 0 0-.375.375c0 .21.165.375.375.375S17 4.085 17 3.875a.371.371 0 0 0-.375-.375Z"/>
</svg>
