<svg xmlns="http://www.w3.org/2000/svg" width="24" height="24" fill="currentColor" viewBox="0 0 24 24">
  <path d="M9.5 2a2.25 2.25 0 0 1 2.25 2.25v16.5A2.25 2.25 0 0 1 9.5 23H4.25A2.25 2.25 0 0 1 2 20.75V4.25A2.25 2.25 0 0 1 4.25 2H9.5Zm11.25 11.25A2.25 2.25 0 0 1 23 15.5v5.25A2.25 2.25 0 0 1 20.75 23H15.5a2.25 2.25 0 0 1-2.25-2.25V15.5a2.25 2.25 0 0 1 2.25-2.25h5.25ZM4.25 3.5a.75.75 0 0 0-.75.75v16.5c0 .414.336.75.75.75H9.5a.75.75 0 0 0 .75-.75V4.25a.75.75 0 0 0-.75-.75H4.25Zm10.5 17.25c0 .414.336.75.75.75h5.25a.75.75 0 0 0 .75-.75V20h-6.75v.75Zm.75-6a.75.75 0 0 0-.75.75v3h6.75v-3a.75.75 0 0 0-.75-.75H15.5ZM20.75 2A2.25 2.25 0 0 1 23 4.25V9.5a2.25 2.25 0 0 1-2.25 2.25H15.5a2.25 2.25 0 0 1-2.25-2.25V4.25A2.25 2.25 0 0 1 15.5 2h5.25Zm-2.25 8.25h2.25a.75.75 0 0 0 .75-.75V4.25a.75.75 0 0 0-.75-.75H18.5v6.75Zm-3-6.75a.75.75 0 0 0-.75.75V9.5c0 .414.336.75.75.75H17V3.5h-1.5Z"/>
</svg>
