<svg xmlns="http://www.w3.org/2000/svg" width="24" height="24" fill="currentColor" viewBox="0 0 24 24">
  <path d="M6.942 9.75h-.384c-.31 0-.558.232-.558.518v.464c0 .286.249.518.558.518h.384c.31 0 .558-.232.558-.518v-.464c0-.286-.249-.518-.558-.518Zm5.25 0h-.384c-.31 0-.558.232-.558.518v.464c0 .286.249.518.558.518h.384c.31 0 .558-.232.558-.518v-.464c0-.286-.249-.518-.558-.518Zm5.25 0h-.384c-.31 0-.558.232-.558.518v.464c0 .286.249.518.558.518h.384c.31 0 .558-.232.558-.518v-.464c0-.286-.249-.518-.558-.518Z"/>
  <path fill-rule="evenodd" d="M1.5 6.377C1.5 4.47 3.124 3 5.036 3h13.928C20.876 3 22.5 4.471 22.5 6.377v8.534c0 .926-.354 1.723-.993 2.28-.629.546-1.472.809-2.382.809h-7.634l-3.845 2.76a.728.728 0 0 1-.035.025c-.518.328-1.116.233-1.514.032-.391-.197-.847-.631-.847-1.272V18h-.375c-.908 0-1.752-.26-2.38-.805-.641-.555-.995-1.351-.995-2.278v-8.54ZM5.036 4.5C3.869 4.5 3 5.381 3 6.377v8.54c0 .525.19.895.476 1.144.3.259.768.439 1.399.439H6a.75.75 0 0 1 .75.75v2.215a.25.25 0 0 0 .082.033l3.98-2.857a.75.75 0 0 1 .438-.141h7.875c.63 0 1.098-.181 1.398-.442.288-.25.477-.623.477-1.147V6.377c0-.996-.869-1.877-2.036-1.877H5.036Z" clip-rule="evenodd"/>
</svg>
