<svg xmlns="http://www.w3.org/2000/svg" width="24" height="24" fill="currentColor" viewBox="0 0 24 24">
  <path fill-rule="evenodd" d="M5.036 3C3.124 3 1.5 4.471 1.5 6.377v8.54c0 .927.354 1.723.994 2.278.629.544 1.473.805 2.381.805h.375v1.545c0 .641.456 1.075.847 1.272.398.2.996.296 1.514-.032a.728.728 0 0 0 .035-.024L11.491 18h7.634c.91 0 1.753-.263 2.382-.81.64-.556.993-1.353.993-2.28V6.378C22.5 4.47 20.876 3 18.964 3H5.036ZM3 6.377C3 5.38 3.869 4.5 5.036 4.5h13.928C20.131 4.5 21 5.381 21 6.377v8.534c0 .524-.19.897-.477 1.147-.3.26-.768.442-1.398.442H11.25a.75.75 0 0 0-.437.14l-3.98 2.858a.237.237 0 0 1-.082-.033V17.25A.75.75 0 0 0 6 16.5H4.875c-.63 0-1.1-.18-1.399-.44C3.19 15.813 3 15.443 3 14.918v-8.54ZM6.558 9.75h.384c.31 0 .558.232.558.518v.464c0 .286-.249.518-.558.518h-.384c-.31 0-.558-.232-.558-.518v-.464c0-.286.249-.518.558-.518Zm5.25 0h.384c.31 0 .558.232.558.518v.464c0 .286-.249.518-.558.518h-.384c-.31 0-.558-.232-.558-.518v-.464c0-.286.249-.518.558-.518Zm5.634 0h-.384c-.31 0-.558.232-.558.518v.464c0 .286.249.518.558.518h.384c.31 0 .558-.232.558-.518v-.464c0-.286-.249-.518-.558-.518Z" clip-rule="evenodd"/>
</svg>
