<svg xmlns="http://www.w3.org/2000/svg" width="24" height="24" fill="currentColor" viewBox="0 0 24 24">
  <path fill-rule="evenodd" d="M6.643 3C4.909 3 3.75 4.662 3.75 6.377V7.5A2.25 2.25 0 0 0 1.5 9.75v1.5a2.25 2.25 0 0 0 2.25 2.25v1.417c0 1.716 1.036 3.224 2.77 3.224h.115v1.404c0 .542.303.987.673 1.23.365.24.976.374 1.484-.045a.662.662 0 0 0 .02-.018l2.896-2.57h5.773c1.735 0 2.769-1.519 2.769-3.231V13.5a2.25 2.25 0 0 0 2.25-2.25v-1.5a2.25 2.25 0 0 0-2.25-2.25V6.377C20.25 4.662 19.09 3 17.357 3H6.643ZM20.25 9v3a.75.75 0 0 0 .75-.75v-1.5a.75.75 0 0 0-.75-.75Zm-16.5 3V9a.75.75 0 0 0-.75.75v1.5c0 .414.336.75.75.75Zm1.5-5.623c0-1.187.759-1.877 1.393-1.877h10.714c.634 0 1.393.69 1.393 1.877v8.534c0 1.189-.637 1.73-1.27 1.73h-6.057a.75.75 0 0 0-.498.19l-2.79 2.477v-1.917a.75.75 0 0 0-.75-.75h-.866c-.634 0-1.269-.538-1.269-1.724v-8.54ZM9 9.75a1.5 1.5 0 1 0 0-3 1.5 1.5 0 0 0 0 3Zm.557 1.748c.789.876 1.647 1.252 2.443 1.252s1.654-.376 2.443-1.252a.75.75 0 1 1 1.114 1.004C14.546 13.626 13.304 14.25 12 14.25c-1.304 0-2.546-.624-3.557-1.748a.75.75 0 1 1 1.114-1.004ZM16.5 8.25a1.5 1.5 0 1 1-3 0 1.5 1.5 0 0 1 3 0Z" clip-rule="evenodd"/>
</svg>
