<svg xmlns="http://www.w3.org/2000/svg" width="24" height="24" fill="currentColor" viewBox="0 0 24 24">
  <path fill-rule="evenodd" d="M12 2.95a9.05 9.05 0 1 0 0 18.1 9.05 9.05 0 0 0 0-18.1ZM1.45 12C1.45 6.173 6.173 1.45 12 1.45c5.827 0 10.55 4.723 10.55 10.55 0 5.827-4.723 10.55-10.55 10.55-5.827 0-10.55-4.723-10.55-10.55Z" clip-rule="evenodd"/>
  <path fill-rule="evenodd" d="M16.401 9.25a.75.75 0 0 1 0 1.061l-5.418 5.418a.75.75 0 0 1-1.06 0l-2.324-2.324a.75.75 0 1 1 1.06-1.06l1.794 1.793 4.888-4.887a.75.75 0 0 1 1.06 0Z" clip-rule="evenodd"/>
</svg>
