<svg xmlns="http://www.w3.org/2000/svg" width="24" height="24" fill="currentColor" viewBox="0 0 24 24">
  <path fill-rule="evenodd" d="M10.63 1.589a10.593 10.593 0 0 1 2.74 0 .75.75 0 1 1-.194 1.487 9.091 9.091 0 0 0-2.352 0 .75.75 0 1 1-.194-1.487ZM8.96 2.703a.75.75 0 0 1-.405.98 8.99 8.99 0 0 0-2.034 1.176.75.75 0 1 1-.914-1.19 10.49 10.49 0 0 1 2.374-1.372.75.75 0 0 1 .98.406Zm6.08 0a.75.75 0 0 1 .98-.406c.854.354 1.65.818 2.373 1.373a.75.75 0 1 1-.914 1.189 8.99 8.99 0 0 0-2.034-1.176.75.75 0 0 1-.406-.98ZM4.72 5.47a.75.75 0 0 1 .14 1.05 8.99 8.99 0 0 0-1.176 2.034.75.75 0 0 1-1.386-.574A10.49 10.49 0 0 1 3.67 5.607a.75.75 0 0 1 1.05-.137Zm14.558 0a.75.75 0 0 1 1.051.137 10.49 10.49 0 0 1 1.373 2.374.75.75 0 0 1-1.386.574 8.995 8.995 0 0 0-1.176-2.034.75.75 0 0 1 .138-1.051ZM2.429 9.983c.411.053.7.43.647.84a9.091 9.091 0 0 0 0 2.353.75.75 0 1 1-1.487.194 10.593 10.593 0 0 1 0-2.74.75.75 0 0 1 .84-.647Zm19.142 0a.75.75 0 0 1 .84.646 10.602 10.602 0 0 1 0 2.742.75.75 0 0 1-1.487-.195 9.088 9.088 0 0 0 0-2.352.75.75 0 0 1 .647-.841ZM2.703 15.039a.75.75 0 0 1 .98.406 8.99 8.99 0 0 0 1.176 2.034.75.75 0 1 1-1.19.914 10.488 10.488 0 0 1-1.372-2.373.75.75 0 0 1 .406-.98Zm18.595 0a.75.75 0 0 1 .405.98 10.487 10.487 0 0 1-1.373 2.374.75.75 0 1 1-1.189-.914 8.996 8.996 0 0 0 1.176-2.034.75.75 0 0 1 .98-.406ZM5.47 19.28a.75.75 0 0 1 1.051-.138 9 9 0 0 0 2.034 1.176.75.75 0 1 1-.574 1.386 10.49 10.49 0 0 1-2.374-1.373.75.75 0 0 1-.137-1.051Zm13.06 0a.75.75 0 0 1-.137 1.051 10.488 10.488 0 0 1-2.373 1.373.75.75 0 0 1-.575-1.386 8.996 8.996 0 0 0 2.034-1.176.75.75 0 0 1 1.051.138Zm-8.547 2.29a.75.75 0 0 1 .84-.647 9.088 9.088 0 0 0 2.353 0 .75.75 0 1 1 .194 1.487 10.602 10.602 0 0 1-2.74 0 .75.75 0 0 1-.647-.84Z" clip-rule="evenodd"/>
</svg>
