<svg xmlns="http://www.w3.org/2000/svg" width="24" height="24" fill="currentColor" viewBox="0 0 24 24">
  <mask id="a">
    <path fill-rule="evenodd" d="M12 3a9 9 0 1 0 0 18 9 9 0 0 0 0-18ZM1.5 12C1.5 6.201 6.201 1.5 12 1.5S22.5 6.201 22.5 12 17.799 22.5 12 22.5 1.5 17.799 1.5 12Z" clip-rule="evenodd"/>
    <path d="M18.75 12a6.75 6.75 0 1 1-13.5 0 6.75 6.75 0 0 1 13.5 0Z"/>
  </mask>
  <path fill-rule="evenodd" d="M12 3a9 9 0 1 0 0 18 9 9 0 0 0 0-18ZM1.5 12C1.5 6.201 6.201 1.5 12 1.5S22.5 6.201 22.5 12 17.799 22.5 12 22.5 1.5 17.799 1.5 12Z" clip-rule="evenodd"/>
  <path d="M18.75 12a6.75 6.75 0 1 1-13.5 0 6.75 6.75 0 0 1 13.5 0Z"/>
  <path d="M4 12a8 8 0 0 1 8-8V2C6.477 2 2 6.477 2 12h2Zm8 8a8 8 0 0 1-8-8H2c0 5.523 4.477 10 10 10v-2Zm8-8a8 8 0 0 1-8 8v2c5.523 0 10-4.477 10-10h-2Zm-8-8a8 8 0 0 1 8 8h2c0-5.523-4.477-10-10-10v2Zm0-3.5C5.649.5.5 5.649.5 12h2A9.5 9.5 0 0 1 12 2.5v-2ZM23.5 12C23.5 5.649 18.351.5 12 .5v2a9.5 9.5 0 0 1 9.5 9.5h2ZM12 23.5c6.351 0 11.5-5.149 11.5-11.5h-2a9.5 9.5 0 0 1-9.5 9.5v2ZM.5 12c0 6.351 5.149 11.5 11.5 11.5v-2A9.5 9.5 0 0 1 2.5 12h-2Zm17.25 0A5.75 5.75 0 0 1 12 17.75v2A7.75 7.75 0 0 0 19.75 12h-2ZM12 17.75A5.75 5.75 0 0 1 6.25 12h-2A7.75 7.75 0 0 0 12 19.75v-2ZM6.25 12A5.75 5.75 0 0 1 12 6.25v-2A7.75 7.75 0 0 0 4.25 12h2ZM12 6.25A5.75 5.75 0 0 1 17.75 12h2A7.75 7.75 0 0 0 12 4.25v2Z" mask="url(#a)"/>
</svg>
