<svg xmlns="http://www.w3.org/2000/svg" width="24" height="24" fill="currentColor" viewBox="0 0 24 24">
  <path fill-rule="evenodd" d="M7.032 7.745C7.185 5.104 9.355 3.02 12 3.02a4.977 4.977 0 0 1 4.624 3.163 3.91 3.91 0 0 0-1.186.591.75.75 0 1 0 .886 1.21c.37-.27.871-.484 1.597-.484.737 0 1.505.374 2.105 1.024.597.647.974 1.514.974 2.4C21 13.336 19.526 15 17.51 15H6.002C4.346 15 3 13.61 3 11.894A2.98 2.98 0 0 1 4.862 9.16c.357-.144.75-.188 1.336-.046a.76.76 0 0 0 .04.009l.54.1a.75.75 0 0 0 .273-1.475l-.019-.004ZM17.51 16.5h-4.76v1.628a2.257 2.257 0 0 1 1.376 1.382.75.75 0 0 1 .124-.01h4.5a.75.75 0 0 1 0 1.5h-4.5a.75.75 0 0 1-.124-.01 2.251 2.251 0 0 1-4.252 0 .75.75 0 0 1-.124.01h-4.5a.75.75 0 0 1 0-1.5h4.5a.75.75 0 0 1 .124.01 2.256 2.256 0 0 1 1.376-1.382V16.5H6.002c-2.534 0-4.502-2.112-4.502-4.606a4.48 4.48 0 0 1 2.802-4.125c.398-.16.805-.24 1.242-.24.26-3.359 3.045-6.01 6.456-6.01 2.878 0 5.31 1.888 6.154 4.488 1.15.072 2.205.666 2.974 1.5.823.892 1.372 2.112 1.372 3.417 0 3.015-1.937 5.576-4.99 5.576Zm-6.26 3.75a.75.75 0 1 1 1.5 0 .75.75 0 0 1-1.5 0Z" clip-rule="evenodd"/>
</svg>
