<svg xmlns="http://www.w3.org/2000/svg" width="24" height="24" fill="currentColor" viewBox="0 0 24 24">
  <path fill-rule="evenodd" d="M12 3.75c-2.645 0-4.815 2.084-4.968 4.726l.02.003a.75.75 0 1 1-.274 1.475l-.54-.1a.74.74 0 0 1-.04-.008c-.587-.143-.978-.099-1.336.045l.706-.638-.706.638A2.98 2.98 0 0 0 3 12.624c0 1.717 1.346 3.106 3.002 3.106a.75.75 0 0 1 0 1.5c-2.534 0-4.502-2.112-4.502-4.606A4.48 4.48 0 0 1 4.302 8.5c.398-.16.805-.24 1.242-.24C5.804 4.9 8.589 2.25 12 2.25c2.878 0 5.31 1.888 6.154 4.488 1.15.071 2.205.666 2.974 1.499.823.892 1.372 2.113 1.372 3.418 0 1.454-.324 2.831-1.065 3.866-.763 1.066-1.928 1.71-3.435 1.71a.75.75 0 0 1 0-1.5c1.028 0 1.737-.414 2.215-1.083.501-.7.785-1.735.785-2.993 0-.887-.377-1.754-.974-2.4-.6-.65-1.368-1.025-2.105-1.025-.726 0-1.226.214-1.597.485a.75.75 0 1 1-.886-1.21 3.905 3.905 0 0 1 1.186-.592A4.977 4.977 0 0 0 12 3.75Zm3.733 9.727a17.45 17.45 0 0 1-3.235-1.348 1.03 1.03 0 0 0-1 0 17.361 17.361 0 0 1-3.231 1.351 1.055 1.055 0 0 0-.767 1.01v3.849c0 .647.288 1.21.636 1.657.35.451.806.843 1.251 1.166.891.647 1.855 1.1 2.191 1.25l.013.005c.263.11.556.11.818 0l.014-.006a12.934 12.934 0 0 0 2.189-1.249c.445-.323.9-.715 1.251-1.165.349-.448.637-1.01.637-1.658v-3.853c0-.5-.346-.88-.758-1.006l-.009-.003ZM15 14.821a19.243 19.243 0 0 1-3-1.258 19 19 0 0 1-3 1.26v3.516c0 .192.087.436.32.737.232.297.565.594.948.872.642.466 1.344.824 1.732 1.006.387-.182 1.09-.54 1.73-1.006.384-.278.718-.575.95-.873.233-.3.32-.544.32-.736V14.82Z" clip-rule="evenodd"/>
</svg>
