<svg xmlns="http://www.w3.org/2000/svg" width="24" height="24" fill="currentColor" viewBox="0 0 24 24">
  <path fill-rule="evenodd" d="M15.438 9.774C16.056 9.322 16.865 9 17.921 9c1.24 0 2.387.617 3.207 1.507.823.892 1.372 2.112 1.372 3.417 0 3.015-1.937 5.576-4.99 5.576H6.002c-2.534 0-4.502-2.112-4.502-4.606a4.48 4.48 0 0 1 2.802-4.125c.682-.274 1.391-.316 2.229-.117l.52.097a.75.75 0 1 1-.273 1.475l-.54-.1a.77.77 0 0 1-.04-.009c-.587-.142-.979-.098-1.336.046A2.98 2.98 0 0 0 3 14.894C3 16.61 4.346 18 6.002 18H17.51c2.016 0 3.49-1.664 3.49-4.076 0-.886-.377-1.753-.974-2.4-.6-.65-1.368-1.024-2.105-1.024-.726 0-1.226.213-1.597.485a.75.75 0 0 1-.886-1.21Z" clip-rule="evenodd"/>
  <path fill-rule="evenodd" d="M11.726 6C8.983 6 6.75 8.242 6.75 11.024v.226a.75.75 0 0 1-1.5 0v-.226c0-3.598 2.893-6.524 6.476-6.524 2.993 0 5.504 2.042 6.248 4.803a.75.75 0 0 1-1.448.39C15.952 7.564 14.018 6 11.726 6Z" clip-rule="evenodd"/>
</svg>
