<svg xmlns="http://www.w3.org/2000/svg" width="24" height="24" fill="currentColor" viewBox="0 0 24 24">
  <path fill-rule="evenodd" d="M12 11.23a.75.75 0 0 1 .75.75v9a.75.75 0 0 1-1.5 0v-9a.75.75 0 0 1 .75-.75Z" clip-rule="evenodd"/>
  <path fill-rule="evenodd" d="M8.47 17.47a.75.75 0 0 1 1.06 0L12 19.94l2.47-2.47a.75.75 0 1 1 1.06 1.06l-3 3a.75.75 0 0 1-1.06 0l-3-3a.75.75 0 0 1 0-1.06Zm6.968-9.965c.618-.453 1.427-.775 2.483-.775 1.24 0 2.387.618 3.207 1.507.823.892 1.372 2.113 1.372 3.418 0 1.454-.324 2.831-1.065 3.866-.763 1.066-1.928 1.71-3.435 1.71a.75.75 0 0 1 0-1.5c1.028 0 1.737-.414 2.215-1.083.501-.7.785-1.735.785-2.993 0-.887-.377-1.754-.974-2.4-.6-.65-1.368-1.025-2.105-1.025-.726 0-1.226.214-1.597.485a.75.75 0 1 1-.886-1.21Zm-8.907.878.52.096a.75.75 0 1 1-.273 1.475l-.54-.1a.74.74 0 0 1-.04-.008c-.587-.143-.978-.099-1.336.045m1.669-1.508c-.838-.2-1.547-.158-2.228.116A4.48 4.48 0 0 0 1.5 12.624c0 2.494 1.968 4.606 4.502 4.606a.75.75 0 0 0 0-1.5C4.346 15.73 3 14.34 3 12.624a2.98 2.98 0 0 1 1.862-2.733" clip-rule="evenodd"/>
  <path fill-rule="evenodd" d="M12 3.75c-2.744 0-4.976 2.242-4.976 5.024V9a.75.75 0 1 1-1.5 0v-.226C5.524 5.176 8.416 2.25 12 2.25c2.993 0 5.504 2.042 6.248 4.803a.75.75 0 0 1-1.449.39C16.226 5.314 14.292 3.75 12 3.75Z" clip-rule="evenodd"/>
</svg>
