<svg xmlns="http://www.w3.org/2000/svg" width="24" height="24" fill="currentColor" viewBox="0 0 24 24">
  <path fill-rule="evenodd" d="M7.032 8.476C7.185 5.834 9.355 3.75 12 3.75a4.977 4.977 0 0 1 4.624 3.163c-.457.138-.85.346-1.186.591a.75.75 0 1 0 .886 1.211c.37-.271.871-.485 1.597-.485.737 0 1.505.374 2.105 1.024.597.647.974 1.514.974 2.4 0 1.26-.284 2.295-.785 2.994-.478.669-1.187 1.082-2.215 1.082a.75.75 0 0 0 0 1.5c1.506 0 2.672-.643 3.435-1.709.741-1.035 1.065-2.412 1.065-3.866 0-1.305-.549-2.526-1.372-3.418-.769-.833-1.824-1.428-2.974-1.5C17.31 4.138 14.878 2.25 12 2.25c-3.411 0-6.196 2.65-6.456 6.009-.437 0-.844.08-1.241.24A4.48 4.48 0 0 0 1.5 12.624c0 2.494 1.968 4.606 4.502 4.606a.75.75 0 0 0 0-1.5C4.346 15.73 3 14.34 3 12.624a2.98 2.98 0 0 1 1.862-2.733l.705-.638-.705.638c.358-.144.75-.188 1.336-.045a.74.74 0 0 0 .04.008l.54.1A.75.75 0 1 0 7.05 8.48l-.019-.003Zm5.718 3.504a.75.75 0 0 0-1.5 0v7.21l-1.72-1.72a.75.75 0 0 0-1.06 1.06l3 3a.75.75 0 0 0 1.06 0l3-3a.75.75 0 1 0-1.06-1.06l-1.72 1.72v-7.21Z" clip-rule="evenodd"/>
</svg>
