<svg xmlns="http://www.w3.org/2000/svg" width="24" height="24" fill="currentColor" viewBox="0 0 24 24">
  <path fill-rule="evenodd" d="M15.438 6.774C16.056 6.322 16.865 6 17.921 6c1.24 0 2.387.617 3.207 1.507.823.892 1.372 2.112 1.372 3.417 0 3.015-1.937 5.576-4.99 5.576H6.002c-2.534 0-4.502-2.112-4.502-4.606a4.48 4.48 0 0 1 2.802-4.125c.682-.274 1.391-.316 2.229-.117l.52.097a.75.75 0 0 1-.273 1.475l-.54-.1a.76.76 0 0 1-.04-.009c-.587-.142-.979-.098-1.336.046A2.98 2.98 0 0 0 3 11.894C3 13.61 4.346 15 6.002 15H17.51c2.016 0 3.49-1.664 3.49-4.076 0-.886-.377-1.753-.974-2.4-.6-.65-1.368-1.024-2.105-1.024-.726 0-1.226.214-1.597.485a.75.75 0 1 1-.886-1.21Z" clip-rule="evenodd"/>
  <path fill-rule="evenodd" d="M12 3.02c-2.744 0-4.976 2.242-4.976 5.023v.227a.75.75 0 1 1-1.5 0v-.227C5.524 4.445 8.416 1.52 12 1.52c2.993 0 5.504 2.042 6.248 4.803a.75.75 0 1 1-1.449.39C16.226 4.583 14.292 3.02 12 3.02ZM12 15a.75.75 0 0 1 .75.75v2.555a.75.75 0 0 1-1.5 0V15.75A.75.75 0 0 1 12 15Zm-7.5 5.25a.75.75 0 0 1 .75-.75h4.5a.75.75 0 0 1 0 1.5h-4.5a.75.75 0 0 1-.75-.75Zm9 0a.75.75 0 0 1 .75-.75h4.5a.75.75 0 0 1 0 1.5h-4.5a.75.75 0 0 1-.75-.75Z" clip-rule="evenodd"/>
  <path fill-rule="evenodd" d="M12 19.5a.75.75 0 1 0 0 1.5.75.75 0 0 0 0-1.5Zm2.25.75a2.25 2.25 0 1 1-4.5 0 2.25 2.25 0 0 1 4.5 0Z" clip-rule="evenodd"/>
</svg>
