<svg xmlns="http://www.w3.org/2000/svg" width="24" height="24" fill="currentColor" viewBox="0 0 24 24">
  <path fill-rule="evenodd" d="M6.76 10.695C6.928 8.068 9.092 6 11.726 6c2.134 0 3.958 1.356 4.662 3.262a3.93 3.93 0 0 0-.95.512.75.75 0 1 0 .886 1.21c.37-.27.871-.484 1.597-.484.737 0 1.505.374 2.105 1.024.597.647.974 1.514.974 2.4C21 16.336 19.526 18 17.51 18H6.002C4.346 18 3 16.61 3 14.894a2.98 2.98 0 0 1 1.862-2.733c.357-.144.75-.188 1.336-.046a.77.77 0 0 0 .04.009l.54.1a.75.75 0 0 0 .273-1.475l-.29-.054Zm-1.492-.156C5.513 7.167 8.305 4.5 11.726 4.5c2.883 0 5.318 1.894 6.159 4.5h.036c1.24 0 2.387.617 3.207 1.507.823.892 1.372 2.112 1.372 3.417 0 3.015-1.937 5.576-4.99 5.576H6.002c-2.534 0-4.502-2.112-4.502-4.606a4.48 4.48 0 0 1 2.802-4.125 3.27 3.27 0 0 1 .966-.23Z" clip-rule="evenodd"/>
</svg>
