<svg xmlns="http://www.w3.org/2000/svg" width="24" height="24" fill="currentColor" viewBox="0 0 24 24">
  <path d="M14.47 12c.513 0 .986.284 1.242.743l2.096 3.764c.256.46.256 1.026 0 1.486l-2.096 3.764c-.256.46-.73.743-1.241.743h-4.192c-.512 0-.985-.284-1.24-.743l-2.097-3.764a1.534 1.534 0 0 1 0-1.486l2.096-3.764c.256-.46.73-.743 1.241-.743h4.192Zm-6.286 5.25 2.095 3.764h4.192l2.095-3.764-2.095-3.764h-4.192L8.184 17.25ZM11.726 1.5c2.925 0 5.472 1.75 6.24 4.247a.72.72 0 0 1 .03.255c1.197.023 2.31.594 3.118 1.425.827.849 1.386 2.02 1.386 3.281 0 2.142-.793 4.176-2.708 4.983a.751.751 0 0 1-.583-1.382C20.325 13.838 21 12.563 21 10.708c0-.817-.366-1.625-.96-2.235-.595-.612-1.368-.973-2.12-.973-.735 0-1.24.206-1.611.463a.75.75 0 0 1-.856-1.233 3.967 3.967 0 0 1 1.085-.53l-.005-.013C15.984 4.405 14.085 3 11.726 3 8.886 3 6.75 5.012 6.75 7.303V7.5c0 .035-.004.07-.009.104l.304.053a.75.75 0 0 1-.26 1.478l-.54-.095a.772.772 0 0 1-.038-.008c-.52-.119-.89-.102-1.219-.003l-.138.047C3.704 9.513 3 10.563 3 11.627c0 1.168.723 2.206 1.794 2.662a.75.75 0 0 1-.588 1.38C2.612 14.99 1.5 13.429 1.5 11.627c0-1.72 1.12-3.306 2.814-3.952h.001c.303-.116.612-.184.935-.211v-.161c0-3.29 2.99-5.803 6.476-5.803Z"/>
</svg>
