<svg xmlns="http://www.w3.org/2000/svg" width="24" height="24" fill="currentColor" viewBox="0 0 24 24">
  <path d="M13.435 20.716a.751.751 0 0 1 .575 1.386A5.24 5.24 0 0 1 12 22.5a5.24 5.24 0 0 1-2.01-.398.75.75 0 0 1 .575-1.386c.44.183.925.284 1.435.284s.994-.101 1.435-.284ZM7.148 15.24a.75.75 0 0 1 1.386.575 3.738 3.738 0 0 0-.284 1.435c0 .51.101.994.284 1.436a.75.75 0 0 1-1.386.574 5.237 5.237 0 0 1-.398-2.01c0-.71.141-1.39.398-2.01Zm8.724-.405a.75.75 0 0 1 .98.405c.257.62.398 1.3.398 2.01 0 .71-.141 1.39-.398 2.01a.75.75 0 0 1-1.386-.575c.183-.44.284-.925.284-1.435s-.101-.994-.284-1.435a.75.75 0 0 1 .406-.98ZM11.726 1.5c2.925 0 5.472 1.75 6.24 4.247a.72.72 0 0 1 .03.255c1.197.023 2.31.594 3.118 1.425.827.849 1.386 2.02 1.386 3.281 0 2.142-.793 4.176-2.708 4.983a.751.751 0 0 1-.583-1.382C20.325 13.838 21 12.563 21 10.708c0-.817-.366-1.625-.96-2.235-.595-.612-1.368-.973-2.12-.973-.735 0-1.24.206-1.611.463a.75.75 0 0 1-.856-1.233 3.967 3.967 0 0 1 1.085-.53l-.005-.013C15.984 4.405 14.085 3 11.726 3 8.886 3 6.75 5.012 6.75 7.303V7.5c0 .035-.004.07-.009.104l.304.053a.75.75 0 0 1-.26 1.478l-.54-.095a.772.772 0 0 1-.038-.008c-.52-.119-.89-.102-1.219-.003l-.138.047C3.704 9.513 3 10.563 3 11.627c0 1.168.723 2.206 1.794 2.662a.75.75 0 0 1-.588 1.38C2.612 14.99 1.5 13.429 1.5 11.627c0-1.72 1.12-3.306 2.814-3.952h.001c.303-.116.612-.184.935-.211v-.161c0-3.29 2.99-5.803 6.476-5.803ZM12 12c.71 0 1.39.141 2.01.398a.751.751 0 0 1-.575 1.386A3.738 3.738 0 0 0 12 13.5c-.51 0-.994.101-1.435.284a.75.75 0 0 1-.575-1.386A5.24 5.24 0 0 1 12 12Z"/>
</svg>
