<svg xmlns="http://www.w3.org/2000/svg" width="24" height="24" fill="currentColor" viewBox="0 0 24 24">
  <path fill-rule="evenodd" d="M6.76 8.445c.168-2.627 2.332-4.695 4.966-4.695 2.134 0 3.958 1.356 4.662 3.262a3.93 3.93 0 0 0-.95.512.75.75 0 1 0 .886 1.21c.37-.27.871-.484 1.597-.484.737 0 1.505.374 2.105 1.024.597.647.974 1.514.974 2.4 0 1.259-.284 2.295-.785 2.994-.478.669-1.187 1.082-2.215 1.082a.75.75 0 0 0 0 1.5c1.506 0 2.672-.643 3.435-1.709.741-1.035 1.065-2.412 1.065-3.867 0-1.305-.549-2.525-1.372-3.417-.82-.89-1.967-1.507-3.207-1.507h-.036c-.84-2.606-3.276-4.5-6.159-4.5-3.421 0-6.213 2.667-6.458 6.04a3.272 3.272 0 0 0-.965.229A4.48 4.48 0 0 0 1.5 12.644c0 2.494 1.968 4.606 4.502 4.606a.75.75 0 0 0 0-1.5C4.346 15.75 3 14.36 3 12.644A2.98 2.98 0 0 1 4.862 9.91l.527-.476-.527.475c.358-.143.75-.187 1.336-.045a.76.76 0 0 0 .04.009l.54.1a.75.75 0 1 0 .273-1.475l-.29-.054Zm2.77 5.585a.75.75 0 0 1-1.06-1.06l3-3a.75.75 0 0 1 1.06 0l3 3a.75.75 0 1 1-1.06 1.06l-1.72-1.72V21a.75.75 0 0 1-1.5 0v-8.69l-1.72 1.72Z" clip-rule="evenodd"/>
</svg>
