<svg xmlns="http://www.w3.org/2000/svg" width="24" height="24" fill="currentColor" viewBox="0 0 24 24">
  <path d="M11.954 10.504a.746.746 0 0 1 .188.032l.021.008.046.016 5.243 2.248h.003l.072.037.03.018.016.01.016.01c.016.011.03.025.046.038.017.014.035.027.051.043a.365.365 0 0 1 .01.009c.02.02.036.043.054.065.013.016.027.03.038.048l.01.016a.763.763 0 0 1 .06.115l.003.013a.756.756 0 0 1 .052.27v6a.744.744 0 0 1-.042.236c-.005.015-.008.03-.014.045-.01.025-.023.048-.036.072a.608.608 0 0 1-.034.06l-.026.035a.724.724 0 0 1-.067.08l-.034.03c-.023.02-.046.04-.071.058l-.024.015c-.012.008-.024.017-.038.024l-.072.036h-.003l-5.245 2.248-.009.003-.037.014-.02.007a.747.747 0 0 1-.073.02l-.04.006-.028.005a.73.73 0 0 1-.08.005h-.005l-.002.001-.031-.002a.732.732 0 0 1-.104-.012h-.01l-.025-.008a.728.728 0 0 1-.112-.034l-.025-.01-.028-.013-4.5-2.25A.76.76 0 0 1 7 20.125l-.012-.009c-.025-.017-.048-.038-.071-.058a.763.763 0 0 1-.054-.052c-.016-.018-.03-.038-.046-.058l-.035-.049a.751.751 0 0 1-.089-.203.747.747 0 0 1-.029-.196v-6a.75.75 0 0 1 .022-.17l.015-.06a.757.757 0 0 1 .02-.054l.007-.018a.779.779 0 0 1 .015-.033l.01-.021.016-.026a.748.748 0 0 1 .067-.095l.028-.03a.71.71 0 0 1 .041-.042l.034-.03a.76.76 0 0 1 .05-.038L7 12.874l.012-.007.034-.02.01-.005.023-.013 4.5-2.25a.752.752 0 0 1 .171-.06l.063-.01a.723.723 0 0 1 .084-.007c.019 0 .038 0 .058.002Zm.71 5.74v4.368l3.75-1.607v-4.367l-3.75 1.606Zm-4.5 2.792 3 1.5v-4.323l-3-1.5v4.323ZM12 1.5c2.877 0 5.308 1.888 6.152 4.487 1.151.071 2.207.667 2.976 1.5.823.892 1.372 2.112 1.372 3.417 0 1.864-.536 3.633-1.823 4.678a.75.75 0 0 1-.946-1.164c.793-.644 1.269-1.877 1.269-3.514 0-.886-.377-1.753-.974-2.4-.6-.65-1.368-1.024-2.105-1.024-.726 0-1.226.214-1.597.485a.75.75 0 0 1-.886-1.21 3.906 3.906 0 0 1 1.186-.589C15.894 4.311 14.098 3 12 3 9.355 3 7.186 5.084 7.033 7.726l.018.003a.75.75 0 0 1-.273 1.475l-.54-.1a.762.762 0 0 1-.04-.008c-.587-.142-.978-.099-1.336.045A2.98 2.98 0 0 0 3 11.874c0 1.272.745 2.374 1.808 2.852a.75.75 0 0 1-.616 1.368c-1.603-.72-2.692-2.36-2.692-4.22a4.48 4.48 0 0 1 2.803-4.125l.259-.092a3.25 3.25 0 0 1 .983-.147C5.805 4.15 8.589 1.5 12 1.5ZM9.09 13.499l2.848 1.424 3.32-1.424-3.32-1.423L9.09 13.5Z"/>
</svg>
