<svg xmlns="http://www.w3.org/2000/svg" width="24" height="24" fill="currentColor" viewBox="0 0 24 24">
  <path fill-rule="evenodd" d="M12 11.25a.75.75 0 0 1 .75.75v9a.75.75 0 0 1-1.5 0v-9a.75.75 0 0 1 .75-.75Z" clip-rule="evenodd"/>
  <path fill-rule="evenodd" d="M8.47 14.03a.75.75 0 0 0 1.06 0L12 11.56l2.47 2.47a.75.75 0 1 0 1.06-1.06l-3-3a.75.75 0 0 0-1.06 0l-3 3a.75.75 0 0 0 0 1.06Zm6.968-6.506c.618-.452 1.427-.774 2.483-.774 1.24 0 2.387.617 3.207 1.507.823.892 1.372 2.112 1.372 3.417 0 1.455-.324 2.832-1.065 3.867-.763 1.066-1.928 1.709-3.435 1.709a.75.75 0 0 1 0-1.5c1.028 0 1.737-.413 2.215-1.082.501-.7.785-1.735.785-2.994 0-.886-.377-1.753-.974-2.4-.6-.65-1.368-1.024-2.105-1.024-.726 0-1.226.214-1.597.485a.75.75 0 1 1-.886-1.21Zm-8.907.878.52.097a.75.75 0 0 1-.273 1.475l-.54-.1a.76.76 0 0 1-.04-.009c-.587-.142-.978-.098-1.336.045m1.669-1.508c-.838-.199-1.547-.157-2.228.117A4.48 4.48 0 0 0 1.5 12.644c0 2.494 1.968 4.606 4.502 4.606a.75.75 0 0 0 0-1.5C4.346 15.75 3 14.36 3 12.644A2.98 2.98 0 0 1 4.862 9.91" clip-rule="evenodd"/>
  <path fill-rule="evenodd" d="M11.726 3.75c-2.743 0-4.976 2.242-4.976 5.024V9a.75.75 0 0 1-1.5 0v-.226c0-3.598 2.893-6.524 6.476-6.524 2.993 0 5.504 2.042 6.248 4.803a.75.75 0 0 1-1.448.39c-.574-2.129-2.508-3.693-4.8-3.693Z" clip-rule="evenodd"/>
</svg>
