<svg xmlns="http://www.w3.org/2000/svg" width="25" height="24" fill="currentColor" viewBox="0 0 25 24">
  <path fill-rule="evenodd" d="M20.616 1.5a2.625 2.625 0 1 1-.995 5.054l-3.063 3.063c.432.691.683 1.508.683 2.383 0 .972-.31 1.87-.834 2.606l2.96 2.96a2.625 2.625 0 1 1-1.06 1.06l-2.96-2.96a4.477 4.477 0 0 1-2.606.834c-.875 0-1.692-.25-2.383-.683L7.295 18.88a2.625 2.625 0 1 1-.948-1.173l2.888-2.887A4.48 4.48 0 0 1 8.24 12c0-.875.25-1.692.682-2.383L5.86 6.554a2.625 2.625 0 1 1 1.173-.948L9.92 8.494a4.48 4.48 0 0 1 2.82-.994 4.48 4.48 0 0 1 2.82.994l2.888-2.888A2.625 2.625 0 0 1 20.615 1.5ZM4.866 18.75a1.125 1.125 0 1 0 0 2.25 1.125 1.125 0 0 0 0-2.25Zm15.75 0a1.125 1.125 0 1 0 0 2.25 1.125 1.125 0 0 0 0-2.25ZM12.74 9a3 3 0 1 0 0 6 3 3 0 0 0 0-6ZM4.866 3a1.125 1.125 0 1 0 0 2.25 1.125 1.125 0 0 0 0-2.25Zm15.75 0a1.125 1.125 0 1 0 0 2.25 1.125 1.125 0 0 0 0-2.25Z" clip-rule="evenodd"/>
  <path fill-rule="evenodd" d="M12.956 17.25a2.625 2.625 0 1 1 0 5.25 2.625 2.625 0 0 1 0-5.25Zm0 1.5a1.125 1.125 0 1 0 0 2.25 1.125 1.125 0 0 0 0-2.25Zm-8.09-9.375a2.625 2.625 0 1 1 0 5.25 2.625 2.625 0 0 1 0-5.25Zm0 1.5a1.125 1.125 0 1 0 0 2.25 1.125 1.125 0 0 0 0-2.25Zm15.75-1.5a2.625 2.625 0 1 1 0 5.25 2.625 2.625 0 0 1 0-5.25Zm0 1.5a1.125 1.125 0 1 0 0 2.25 1.125 1.125 0 0 0 0-2.25ZM12.956 1.5a2.625 2.625 0 1 1 0 5.25 2.625 2.625 0 0 1 0-5.25Zm0 1.5a1.125 1.125 0 1 0 0 2.25 1.125 1.125 0 0 0 0-2.25Z" clip-rule="evenodd"/>
</svg>
