<svg xmlns="http://www.w3.org/2000/svg" width="24" height="24" fill="none" viewBox="0 0 24 24">
  <path fill="#3D3C3C" fill-rule="evenodd" d="M14.228 6.181a.75.75 0 0 0-1.456-.362l-3 12.078a.75.75 0 1 0 1.456.362l3-12.078Zm-6.98 2.181a.75.75 0 0 1 .063 1.059l-2.558 2.877 2.558 2.876a.75.75 0 1 1-1.122.997l-3-3.375a.75.75 0 0 1 0-.997l3-3.375a.75.75 0 0 1 1.06-.062Zm9.504 0a.75.75 0 0 1 1.059.062l3 3.375a.75.75 0 0 1 0 .997l-3 3.375a.75.75 0 0 1-1.122-.997l2.558-2.876-2.558-2.877a.75.75 0 0 1 .063-1.059Z" clip-rule="evenodd"/>
</svg>
