<svg xmlns="http://www.w3.org/2000/svg" width="24" height="24" fill="none" viewBox="0 0 24 24">
  <path fill="#3D3C3C" fill-rule="evenodd" d="M4.416 8.186c.891-.89 2.347-.93 3.25-.027l2.175 2.175c.903.903.863 2.36-.027 3.25l-2.23 2.23c-.89.89-2.347.93-3.25.027L2.16 13.666c-.903-.903-.863-2.36.027-3.25l2.23-2.23Zm2.19 1.034c-.292-.292-.798-.304-1.129.027l-2.23 2.23c-.33.33-.319.837-.027 1.128l2.175 2.175c.29.292.797.304 1.128-.027l2.23-2.23c.33-.33.319-.837.027-1.128L6.605 9.22Zm3.806-7.034c.891-.89 2.348-.93 3.251-.027l2.178 2.175c.903.903.863 2.36-.028 3.25l-2.232 2.23c-.891.89-2.348.93-3.251.027L8.16 7.673c-.877-.876-.866-2.28-.05-3.177a.752.752 0 0 1 .07-.08l2.232-2.23ZM9.304 5.414a.752.752 0 0 1-.057.063c-.33.331-.319.844-.027 1.135l2.17 2.168c.292.292.8.304 1.13-.027l2.233-2.23c.33-.331.319-.837.027-1.128L12.603 3.22c-.292-.292-.8-.304-1.13.027l-2.17 2.167Zm1.112 8.772c.891-.89 2.347-.93 3.25-.027l2.175 2.175c.903.903.863 2.36-.027 3.25l-2.23 2.23c-.89.89-2.347.93-3.25.027L8.16 19.666c-.903-.903-.863-2.36.027-3.25l2.23-2.23Zm2.19 1.034c-.292-.292-.798-.304-1.129.027l-2.23 2.23c-.33.33-.319.837-.027 1.128l2.175 2.175c.29.292.797.304 1.128-.027l2.23-2.23c.33-.33.319-.837.027-1.128l-2.175-2.175Zm3.81-7.034c.891-.89 2.347-.93 3.25-.027l2.175 2.175c.903.903.863 2.36-.027 3.25l-2.23 2.23c-.89.89-2.347.93-3.25.027l-2.175-2.175c-.903-.903-.863-2.36.027-3.25l2.23-2.23Zm2.19 1.034c-.292-.292-.798-.304-1.129.027l-2.23 2.23c-.33.33-.319.837-.027 1.128l2.175 2.175c.29.292.797.304 1.128-.027l2.23-2.23c.33-.33.319-.837.027-1.128L18.605 9.22Z" clip-rule="evenodd"/>
</svg>
