<svg xmlns="http://www.w3.org/2000/svg" width="24" height="24" fill="none" viewBox="0 0 24 24">
  <path fill="#3D3C3C" fill-rule="evenodd" d="M3 4.89c0-.616.513-1.14 1.176-1.14h15.648c.663 0 1.176.524 1.176 1.14v8.61H3V4.89Zm-1.5 9.36V4.89c0-1.472 1.211-2.64 2.676-2.64h15.648c1.465 0 2.676 1.168 2.676 2.64v10.47c0 1.472-1.211 2.64-2.676 2.64H12.75v2.25h3.75a.75.75 0 0 1 0 1.5h-9a.75.75 0 0 1 0-1.5h3.75V18H4.176C2.71 18 1.5 16.832 1.5 15.36v-1.11ZM3 15h18v.36c0 .617-.513 1.14-1.176 1.14H4.176C3.513 16.5 3 15.976 3 15.36V15Z" clip-rule="evenodd"/>
</svg>
