<svg xmlns="http://www.w3.org/2000/svg" width="24" height="24" fill="none" viewBox="0 0 24 24">
  <path fill="#3D3C3C" fill-rule="evenodd" d="M1.5 3A1.5 1.5 0 0 1 3 1.5h3A1.5 1.5 0 0 1 7.5 3v3c0 .134-.018.265-.05.389l1.943 1.943A4.48 4.48 0 0 1 12 7.5a4.48 4.48 0 0 1 2.607.832L16.72 6.22a.748.748 0 0 1 .22-.154 3 3 0 1 1 .993.993.75.75 0 0 1-.153.221l-2.112 2.113A4.48 4.48 0 0 1 16.5 12a4.48 4.48 0 0 1-.832 2.607l1.944 1.944A1.5 1.5 0 0 1 18 16.5h3a1.5 1.5 0 0 1 1.5 1.5v3a1.5 1.5 0 0 1-1.5 1.5h-3a1.5 1.5 0 0 1-1.5-1.5v-3c0-.134.018-.265.05-.389l-1.943-1.943A4.48 4.48 0 0 1 12 16.5a4.483 4.483 0 0 1-2.954-1.105l-1.733 1.733a.748.748 0 0 1-.202.144 3 3 0 1 1-.983-1.042.75.75 0 0 1 .124-.163L8.09 14.23A4.48 4.48 0 0 1 7.5 12c0-.972.308-1.872.832-2.607L6.389 7.449A1.514 1.514 0 0 1 6 7.5H3A1.5 1.5 0 0 1 1.5 6V3ZM6 3H3v3h3V3Zm6 6a3 3 0 1 0 0 6 3 3 0 0 0 0-6Zm-7.5 8.25a1.5 1.5 0 1 0 0 3 1.5 1.5 0 0 0 0-3ZM18 21v-3h3v3h-3Zm0-16.5a1.5 1.5 0 1 1 3 0 1.5 1.5 0 0 1-3 0Z" clip-rule="evenodd"/>
</svg>
