<svg xmlns="http://www.w3.org/2000/svg" width="24" height="24" fill="currentColor" viewBox="0 0 24 24">
  <path fill-rule="evenodd" d="M16.875 3a4.125 4.125 0 1 0 0 8.25 4.125 4.125 0 0 0 0-8.25ZM11.25 7.125a5.625 5.625 0 1 1 11.25 0 5.625 5.625 0 0 1-11.25 0Zm-.791-.62a.75.75 0 0 1-.464.954c-1.645.569-2.87 2.04-2.87 3.791 0 .988.696 2.063 1.499 2.91.849.894 1.08 2.044 1.12 3.09h3.03c.075-.592.317-1.14.6-1.61.345-.572.784-1.086 1.177-1.502.209-.227.392-.473.546-.746a.75.75 0 1 1 1.306.737 5.43 5.43 0 0 1-.754 1.03l-.004.005c-.362.383-.72.809-.986 1.25-.268.446-.409.853-.409 1.211v3.025c0 1.188-1.16 1.85-2.17 1.85h-1.66c-1.01 0-2.17-.662-2.17-1.85v-3.025c0-1.036-.172-1.86-.714-2.431v-.001c-.856-.903-1.911-2.346-1.911-3.943 0-2.495 1.736-4.467 3.88-5.209a.75.75 0 0 1 .954.464ZM9.75 20.649V18.75h3v1.9c0 .025-.012.097-.125.185a.9.9 0 0 1-.545.165h-1.66a.9.9 0 0 1-.545-.165c-.113-.088-.125-.16-.125-.186ZM5.03 3.97a.75.75 0 0 0-1.06 1.06l1.5 1.5a.75.75 0 0 0 1.06-1.06l-1.5-1.5ZM1.515 9.229a.75.75 0 0 1 .882-.588l1.875.375a.75.75 0 1 1-.294 1.47l-1.875-.375a.75.75 0 0 1-.588-.882ZM10.5 2.25a.75.75 0 0 0-1.5 0V4.5a.75.75 0 0 0 1.5 0V2.25Zm8.864 3.43a.75.75 0 0 0-1.228-.86l-2.012 2.87-.509-.729a.75.75 0 1 0-1.23.858l1.122 1.61a.75.75 0 0 0 1.229.001l2.628-3.75Z" clip-rule="evenodd"/>
</svg>
