<svg xmlns="http://www.w3.org/2000/svg" width="24" height="24" fill="currentColor" viewBox="0 0 24 24">
  <path d="M15.75 12a.72.72 0 0 1 .132.012l.016.003c.018.003.034.01.051.015.028.008.057.015.084.026.025.01.047.023.07.036.021.01.043.02.062.033.012.008.021.018.032.026a.74.74 0 0 1 .172.176l.006.01a.742.742 0 0 1 .061.113l.008.018a.746.746 0 0 1 .056.282v2.69l.75.75.75-.75v-2.69a.752.752 0 0 1 1.033-.694c1.652.672 2.717 2.166 2.717 4.069 0 1.512-.697 2.936-1.875 3.78l.004 1.843a.751.751 0 0 1-1.5.003l-.004-2.25c0-.271.146-.522.383-.655.893-.502 1.492-1.54 1.492-2.721 0-.808-.273-1.486-.75-1.988v1.613a.75.75 0 0 1-.22.53l-1.5 1.5a.743.743 0 0 1-.943.096.76.76 0 0 1-.117-.096l-1.5-1.5a.75.75 0 0 1-.22-.53v-1.587c-.469.504-.75 1.175-.75 1.962 0 1.165.636 2.218 1.505 2.727a.75.75 0 0 1 .37.648v2.25a.75.75 0 0 1-1.5 0V19.9c-1.133-.838-1.875-2.252-1.875-3.775 0-1.915 1.132-3.395 2.701-4.063A.747.747 0 0 1 15.75 12ZM9 12.75A2.25 2.25 0 0 1 11.25 15v4.5A2.25 2.25 0 0 1 9 21.75H4.5a2.25 2.25 0 0 1-2.25-2.25V15a2.25 2.25 0 0 1 2.25-2.25H9Zm-4.5 1.5a.75.75 0 0 0-.75.75v4.5c0 .414.336.75.75.75H9a.75.75 0 0 0 .75-.75V15a.75.75 0 0 0-.75-.75H4.5ZM9 1.5a2.25 2.25 0 0 1 2.25 2.25v4.5A2.25 2.25 0 0 1 9 10.5H4.5a2.25 2.25 0 0 1-2.25-2.25v-4.5A2.25 2.25 0 0 1 4.5 1.5H9Zm10.5 0a2.25 2.25 0 0 1 2.25 2.25v4.5a2.25 2.25 0 0 1-2.25 2.25H15a2.25 2.25 0 0 1-2.25-2.25v-4.5A2.25 2.25 0 0 1 15 1.5h4.5ZM4.5 3a.75.75 0 0 0-.75.75v4.5c0 .414.336.75.75.75H9a.75.75 0 0 0 .75-.75v-4.5A.75.75 0 0 0 9 3H4.5ZM15 3a.75.75 0 0 0-.75.75v4.5c0 .414.336.75.75.75h4.5a.75.75 0 0 0 .75-.75v-4.5A.75.75 0 0 0 19.5 3H15Z"/>
</svg>
