<svg xmlns="http://www.w3.org/2000/svg" width="24" height="24" fill="currentColor" viewBox="0 0 24 24">
  <path fill-rule="evenodd" d="M4.237 1.45c-1.6 0-2.787 1.392-2.787 2.969v15.162c0 1.577 1.186 2.969 2.787 2.969h15.526c1.6 0 2.787-1.392 2.787-2.969V4.419c0-1.577-1.186-2.969-2.787-2.969H4.237ZM21.05 5.902V4.419c0-.873-.634-1.469-1.287-1.469H4.237c-.653 0-1.287.596-1.287 1.469v1.483h18.1Zm-18.1 1.5h18.1v12.179c0 .873-.634 1.469-1.287 1.469H4.237c-.653 0-1.287-.596-1.287-1.469V7.402ZM5.435 3.75h-.37c-.312 0-.565.232-.565.519v.462c0 .287.253.519.565.519h.37c.312 0 .565-.232.565-.519V4.27c0-.287-.253-.519-.565-.519Zm2.25 0h-.37c-.312 0-.565.232-.565.519v.462c0 .287.253.519.565.519h.37c.312 0 .565-.232.565-.519V4.27c0-.287-.253-.519-.565-.519Zm1.88 0h.37c.312 0 .565.232.565.519v.462c0 .287-.253.519-.565.519h-.37C9.253 5.25 9 5.018 9 4.731V4.27c0-.287.253-.519.565-.519Zm2.34 10.5a3.001 3.001 0 1 1-3.655-3.655v2.155a1.5 1.5 0 0 0 1.5 1.5h2.155ZM9.75 10.595a3.005 3.005 0 0 1 2.155 2.155H9.75v-2.155ZM9 18a4.5 4.5 0 1 0 0-9 4.5 4.5 0 0 0 0 9Zm6-3a.75.75 0 0 1 .75-.75h3a.75.75 0 0 1 0 1.5h-3A.75.75 0 0 1 15 15Zm.75-3.75a.75.75 0 0 0 0 1.5h3a.75.75 0 0 0 0-1.5h-3Z" clip-rule="evenodd"/>
</svg>
