<svg xmlns="http://www.w3.org/2000/svg" width="24" height="24" fill="currentColor" viewBox="0 0 24 24">
  <path fill-rule="evenodd" d="M1.45 3.768A2.324 2.324 0 0 1 3.768 1.45h11.76a2.324 2.324 0 0 1 2.318 2.318v5.488a.75.75 0 0 1-1.5 0V3.768a.825.825 0 0 0-.818-.818H3.768a.824.824 0 0 0-.818.818v6.272c0 .447.371.818.818.818a.75.75 0 0 1 .75.75v1.735l1.186-.791a.75.75 0 1 1 .832 1.248l-2.352 1.568a.75.75 0 0 1-1.166-.624v-2.511A2.327 2.327 0 0 1 1.45 10.04V3.768Z" clip-rule="evenodd"/>
  <path fill-rule="evenodd" d="M7.688 10.006a.815.815 0 0 0-.818.818v6.272c0 .454.364.818.818.818h7.056a.75.75 0 0 1 .416.126l3.538 2.359v-1.735a.75.75 0 0 1 .75-.75.815.815 0 0 0 .818-.818v-6.272a.815.815 0 0 0-.818-.818H7.688Zm-2.318.818a2.315 2.315 0 0 1 2.318-2.318h11.76a2.315 2.315 0 0 1 2.318 2.318v6.272c0 1.02-.655 1.883-1.568 2.195V21.8a.75.75 0 0 1-1.166.624l-4.515-3.01H7.688a2.315 2.315 0 0 1-2.318-2.318v-6.272Z" clip-rule="evenodd"/>
</svg>
