<svg xmlns="http://www.w3.org/2000/svg" width="24" height="24" fill="currentColor" viewBox="0 0 24 24">
  <path fill-rule="evenodd" d="M3.768 1.45A2.324 2.324 0 0 0 1.45 3.768v6.272c0 1.013.658 1.88 1.568 2.193v2.511a.75.75 0 0 0 1.166.624l1.186-.79v2.518a2.315 2.315 0 0 0 2.318 2.318h6.829l4.515 3.01a.75.75 0 0 0 1.166-.624v-2.51a2.316 2.316 0 0 0 1.568-2.194v-6.272a2.315 2.315 0 0 0-2.318-2.318h-1.602V3.768a2.324 2.324 0 0 0-2.318-2.318H3.768Zm13.321 8.556h2.359c.454 0 .818.364.818.818v6.272a.815.815 0 0 1-.818.818.75.75 0 0 0-.75.75v1.735l-3.538-2.36a.75.75 0 0 0-.416-.125H7.688a.815.815 0 0 1-.818-.818v-6.272c0-.454.364-.818.818-.818h9.401Zm-.743-1.5V3.768a.824.824 0 0 0-.818-.818H3.768a.824.824 0 0 0-.818.818v6.272c0 .447.371.818.818.818a.75.75 0 0 1 .75.75v1.735l.852-.568v-1.951a2.315 2.315 0 0 1 2.318-2.318h8.658Z" clip-rule="evenodd"/>
</svg>
