<svg xmlns="http://www.w3.org/2000/svg" width="24" height="24" fill="currentColor" viewBox="0 0 24 24">
  <path d="M5.435 3.75h-.37c-.312 0-.565.232-.565.519v.462c0 .287.253.519.565.519h.37c.312 0 .565-.232.565-.519V4.27c0-.287-.253-.519-.565-.519Zm2.25 0h-.37c-.312 0-.565.232-.565.519v.462c0 .287.253.519.565.519h.37c.312 0 .565-.232.565-.519V4.27c0-.287-.253-.519-.565-.519Zm2.25 0h-.37c-.312 0-.565.232-.565.519v.462c0 .287.253.519.565.519h.37c.312 0 .565-.232.565-.519V4.27c0-.287-.253-.519-.565-.519Z"/>
  <path fill-rule="evenodd" d="M1.45 5.902h21.1v13.679c0 1.577-1.186 2.969-2.787 2.969H4.237c-1.601 0-2.787-1.392-2.787-2.969V5.902Zm1.5 1.5v12.179c0 .873.634 1.469 1.287 1.469h15.526c.653 0 1.287-.596 1.287-1.469V7.402H2.95Z" clip-rule="evenodd"/>
  <path fill-rule="evenodd" d="M1.45 4.419c0-1.577 1.186-2.969 2.787-2.969h15.526c1.6 0 2.787 1.392 2.787 2.969v2.983H1.45V4.419ZM4.237 2.95c-.653 0-1.287.596-1.287 1.469v1.483h18.1V4.419c0-.873-.634-1.469-1.287-1.469H4.237ZM9 16.5a3 3 0 1 0 0-6 3 3 0 0 0 0 6ZM9 18a4.5 4.5 0 1 0 0-9 4.5 4.5 0 0 0 0 9Z" clip-rule="evenodd"/>
  <path fill-rule="evenodd" d="M9 9.75a.75.75 0 0 1 .75.75v2.25H12a.75.75 0 0 1 0 1.5H9.75a1.5 1.5 0 0 1-1.5-1.5V10.5A.75.75 0 0 1 9 9.75ZM15 15a.75.75 0 0 1 .75-.75h3a.75.75 0 0 1 0 1.5h-3A.75.75 0 0 1 15 15Zm0-3a.75.75 0 0 1 .75-.75h3a.75.75 0 0 1 0 1.5h-3A.75.75 0 0 1 15 12Z" clip-rule="evenodd"/>
</svg>
