<svg xmlns="http://www.w3.org/2000/svg" width="24" height="24" fill="currentColor" viewBox="0 0 24 24">
  <path d="M20.695 9.508c1 .08 2.063.757 2.055 1.991v2.876c0 .419-.122 1.023-.434 1.546-.224.377-.574.747-1.066.94V21.5a1.5 1.5 0 0 1-1.5 1.5h-3a1.5 1.5 0 0 1-1.5-1.5v-4.63a2.108 2.108 0 0 1-1.058-.879c-.326-.522-.442-1.138-.442-1.616v-2.808c0-.729.338-1.286.844-1.631.472-.322 1.048-.436 1.556-.436h4.346l.2.008ZM16.15 11c-.312 0-.563.074-.71.175-.114.077-.19.18-.19.392v2.808c0 .272.072.594.214.821.121.195.275.304.536.304a.75.75 0 0 1 .75.75v5.25h3v-5.25a.75.75 0 0 1 .75-.75c.221 0 .384-.105.527-.347.158-.264.223-.597.223-.778v-2.884c.001-.115-.045-.217-.161-.31a.925.925 0 0 0-.5-.177L20.497 11H16.15ZM9.444 8.008c1 .08 2.064.757 2.056 1.991V12.5h.75l.077.004a.75.75 0 0 1 0 1.492L12.25 14H1.75a.75.75 0 0 1 0-1.5h.75v-2.433c-.004-.673.37-1.205.812-1.54A2.671 2.671 0 0 1 4.899 8h4.346l.2.008ZM4.9 9.5c-.249 0-.504.09-.682.225-.178.134-.218.258-.217.335v2.44h6V9.991c.001-.115-.045-.217-.161-.31a.925.925 0 0 0-.5-.177L9.246 9.5H4.9Zm13.351-6a2.624 2.624 0 1 1 .001 5.249A2.624 2.624 0 0 1 18.25 3.5ZM7 2a2.624 2.624 0 1 1 .001 5.249A2.624 2.624 0 0 1 7 2Zm11.25 3a1.124 1.124 0 1 0-.001 2.249A1.124 1.124 0 0 0 18.25 5ZM7 3.5a1.124 1.124 0 1 0-.001 2.249A1.124 1.124 0 0 0 7 3.5Z"/>
</svg>
