<svg xmlns="http://www.w3.org/2000/svg" width="24" height="24" fill="currentColor" viewBox="0 0 24 24">
  <path d="M5.435 3.75c.312 0 .565.232.565.519v.462c0 .287-.253.519-.565.519h-.37c-.312 0-.565-.232-.565-.519V4.27c0-.287.253-.519.565-.519h.37Zm2.25 0c.312 0 .565.232.565.519v.462c0 .287-.253.519-.565.519h-.37c-.312 0-.565-.232-.565-.519V4.27c0-.287.253-.519.565-.519h.37Zm2.25 0c.312 0 .565.232.565.519v.462c0 .287-.253.519-.565.519h-.37C9.253 5.25 9 5.018 9 4.731V4.27c0-.287.253-.519.565-.519h.37Z"/>
  <path fill-rule="evenodd" d="M1.5 4.493C1.5 2.914 2.673 1.5 4.278 1.5h15.444c1.605 0 2.778 1.414 2.778 2.993V12a.75.75 0 0 1-1.5 0V7.5H3v12.052C3 20.41 3.627 21 4.277 21h6.973a.75.75 0 0 1 0 1.5H4.277c-1.591 0-2.777-1.38-2.777-2.948V4.492Zm19.5 0V6H3V4.493C3 3.596 3.64 3 4.278 3h15.444C20.359 3 21 3.596 21 4.493Z" clip-rule="evenodd"/>
  <path d="M16.125 19.5a.75.75 0 0 0-1.5 0v.375h-.375a.75.75 0 0 0 0 1.5h.375v.375a.75.75 0 0 0 1.5 0v-.375h.375a.75.75 0 0 0 0-1.5h-.375V19.5ZM18.75 15a.75.75 0 0 0 1.5 0v-.75a.75.75 0 0 0-1.5 0V15Zm1.5 1.5a.75.75 0 0 1 .75-.75h.75a.75.75 0 0 1 0 1.5H21a.75.75 0 0 1-.75-.75Zm-3-.75a.75.75 0 0 0 0 1.5H18a.75.75 0 0 0 0-1.5h-.75Zm2.25 3.75a.75.75 0 0 1-.75-.75V18a.75.75 0 0 1 1.5 0v.75a.75.75 0 0 1-.75.75Z"/>
  <path fill-rule="evenodd" d="M11.197 17.66a.75.75 0 0 0 1.243-.002c.906-1.347 1.558-1.964 2.996-2.99a.75.75 0 0 0-.015-1.232c-1.49-1.01-2.1-1.644-2.977-2.974a.75.75 0 0 0-1.263.018c-.458.738-.838 1.24-1.269 1.668-.432.429-.939.807-1.677 1.276a.75.75 0 0 0-.02 1.254c1.447.98 2.06 1.621 2.982 2.982Zm.637-5.46a9.41 9.41 0 0 0 1.893 1.869c-.764.597-1.33 1.145-1.907 1.884a9.648 9.648 0 0 0-1.873-1.877 8.8 8.8 0 0 0 1.022-.864c.31-.308.59-.638.865-1.013Z" clip-rule="evenodd"/>
</svg>
