<svg xmlns="http://www.w3.org/2000/svg" width="25" height="24" fill="currentColor" viewBox="0 0 25 24">
  <path d="M13.232 1.5c5.773 0 10.453 4.701 10.453 10.5s-4.68 10.5-10.453 10.5S2.78 17.799 2.78 12 7.459 1.5 13.232 1.5Zm0 1.5c-4.948 0-8.96 4.03-8.96 9s4.012 9 8.96 9c4.949 0 8.96-4.03 8.96-9s-4.011-9-8.96-9ZM9.5 7.5c.412 0 .747.336.747.75v7.5c0 .414-.335.75-.747.75a.748.748 0 0 1-.746-.75v-7.5c0-.414.333-.75.746-.75Zm1.879.094a.744.744 0 0 1 .756.02l5.974 3.75a.75.75 0 0 1 0 1.272l-5.974 3.75a.744.744 0 0 1-.756.02.752.752 0 0 1-.386-.656v-7.5l.007-.1a.753.753 0 0 1 .379-.556Zm1.107 6.802L16.304 12l-3.819-2.397v4.793Z"/>
</svg>
