<svg xmlns="http://www.w3.org/2000/svg" width="25" height="24" fill="currentColor" viewBox="0 0 25 24">
  <path d="M12.274 1.5c5.773 0 10.453 4.701 10.453 10.5s-4.68 10.5-10.453 10.5S1.82 17.799 1.82 12 6.5 1.5 12.274 1.5Zm-3.95 6a.749.749 0 0 0-.746.75v7.5c0 .414.334.75.747.75a.748.748 0 0 0 .746-.75v-7.5a.748.748 0 0 0-.746-.75Zm2.636.114a.745.745 0 0 0-1.136.535l-.006.101v7.5a.744.744 0 0 0 1.143.636l5.972-3.75a.751.751 0 0 0 0-1.272l-5.973-3.75ZM15.128 12l-3.817 2.396V9.604L15.128 12Z"/>
</svg>
