<svg xmlns="http://www.w3.org/2000/svg" width="24" height="24" fill="currentColor" viewBox="0 0 24 24">
  <path fill-rule="evenodd" d="M12 7.5a1.5 1.5 0 1 0 0 3 1.5 1.5 0 0 0 0-3ZM9 9a3 3 0 1 1 6 0 3 3 0 0 1-6 0ZM4.855 1.649a.75.75 0 0 1 .152 1.05A10.213 10.213 0 0 0 3 8.817c0 2.318.758 4.444 2.007 6.118a.75.75 0 1 1-1.202.897A11.713 11.713 0 0 1 1.5 8.817c0-2.648.866-5.088 2.305-7.016a.75.75 0 0 1 1.05-.152Zm14.191.004a.75.75 0 0 1 1.05.143C21.606 3.776 22.5 6.282 22.5 9c0 2.719-.895 5.224-2.403 7.204a.75.75 0 0 1-1.194-.908C20.215 13.573 21 11.386 21 9s-.785-4.573-2.097-6.296a.75.75 0 0 1 .143-1.05ZM7.658 4.02a.75.75 0 0 1 .18 1.045A6.053 6.053 0 0 0 6.75 8.568c0 1.328.407 2.54 1.087 3.503a.75.75 0 1 1-1.224.866A7.553 7.553 0 0 1 5.25 8.568c0-1.637.503-3.152 1.363-4.369a.75.75 0 0 1 1.045-.18Zm8.409 0a.75.75 0 0 1 1.046.18 7.552 7.552 0 0 1 1.362 4.368 7.552 7.552 0 0 1-1.363 4.369.75.75 0 1 1-1.224-.866 6.053 6.053 0 0 0 1.087-3.503c0-1.328-.407-2.54-1.087-3.503a.75.75 0 0 1 .18-1.045Z" clip-rule="evenodd"/>
  <path fill-rule="evenodd" d="M12.375 11.35a.75.75 0 0 1 .275 1.025l-5.625 9.75a.75.75 0 1 1-1.3-.75l5.625-9.75a.75.75 0 0 1 1.025-.275Z" clip-rule="evenodd"/>
  <path fill-rule="evenodd" d="M11.625 11.35a.75.75 0 0 1 1.025.275l5.625 9.75a.75.75 0 1 1-1.3.75l-5.625-9.75a.75.75 0 0 1 .275-1.025Z" clip-rule="evenodd"/>
  <path fill-rule="evenodd" d="M7.5 18.75c0-.414.263-.75.587-.75h7.826c.324 0 .587.336.587.75s-.263.75-.587.75H8.087c-.324 0-.587-.336-.587-.75Z" clip-rule="evenodd"/>
</svg>
