<svg xmlns="http://www.w3.org/2000/svg" width="24" height="24" fill="currentColor" viewBox="0 0 24 24">
  <path d="M20.139 14.25c.967 0 1.61.85 1.611 1.715v4.07c0 .865-.644 1.715-1.611 1.715H15.86c-.967 0-1.61-.85-1.611-1.715v-4.07c0-.865.644-1.715 1.611-1.715h4.278Zm-3.007-12c1.8 0 3.118 1.606 3.118 3.403V12a.75.75 0 0 1-1.5 0V5.653c0-1.132-.802-1.903-1.618-1.903H5.369c-.816 0-1.619.77-1.619 1.903v11.194c0 1.133.803 1.903 1.62 1.903H12a.75.75 0 0 1 0 1.5H5.37c-1.8 0-3.12-1.606-3.12-3.403V5.653c0-1.797 1.32-3.403 3.12-3.403h11.762Zm-1.27 13.5c-.003 0-.021 0-.05.032a.276.276 0 0 0-.062.183v4.07c0 .086.03.148.062.183.029.032.047.032.05.032h4.277c.002 0 .02 0 .05-.032a.276.276 0 0 0 .061-.183v-4.07a.276.276 0 0 0-.061-.183c-.03-.032-.048-.032-.05-.032H15.86Zm-1.938-9c1.086 0 1.826.958 1.826 1.956v3.388a.75.75 0 0 1-1.5 0V8.706c0-.333-.223-.456-.326-.456H8.577c-.103 0-.327.122-.327.456v5.088c0 .334.224.456.327.456H12a.75.75 0 0 1 0 1.5H8.577c-1.086 0-1.827-.958-1.827-1.956V8.706c0-.998.74-1.956 1.827-1.956h5.347Z"/>
</svg>
