<svg xmlns="http://www.w3.org/2000/svg" width="24" height="24" fill="currentColor" viewBox="0 0 24 24">
  <path fill-rule="evenodd" d="M5.007 2.699A.75.75 0 0 0 3.805 1.8 11.713 11.713 0 0 0 1.5 8.817c0 2.648.866 5.087 2.305 7.015a.75.75 0 1 0 1.202-.897A10.213 10.213 0 0 1 3 8.817c0-2.318.758-4.444 2.007-6.118ZM10.5 9a1.5 1.5 0 1 1 3 0 1.5 1.5 0 0 1-3 0ZM12 6a3 3 0 0 0-.803 5.891l-5.472 9.484a.75.75 0 1 0 1.3.75L8.539 19.5h6.922l1.514 2.625a.75.75 0 0 0 1.3-.75l-5.472-9.484A3.001 3.001 0 0 0 12 6Zm2.596 12L12 13.5 9.404 18h5.192Zm4.45-16.347a.75.75 0 0 1 1.05.143C21.606 3.776 22.5 6.28 22.5 9c0 2.719-.895 5.224-2.403 7.204a.75.75 0 0 1-1.194-.908C20.215 13.573 21 11.386 21 9s-.785-4.573-2.097-6.296a.75.75 0 0 1 .143-1.05ZM7.837 5.065A.75.75 0 0 0 6.613 4.2 7.552 7.552 0 0 0 5.25 8.569c0 1.637.503 3.152 1.363 4.369a.75.75 0 1 0 1.224-.866A6.053 6.053 0 0 1 6.75 8.568c0-1.328.407-2.54 1.087-3.503Zm8.23-1.045a.75.75 0 0 1 1.046.18 7.553 7.553 0 0 1 1.362 4.368 7.553 7.553 0 0 1-1.363 4.369.75.75 0 1 1-1.224-.866 6.053 6.053 0 0 0 1.087-3.503 6.05 6.05 0 0 0-1.088-3.503.75.75 0 0 1 .18-1.045Z" clip-rule="evenodd"/>
</svg>
