<svg xmlns="http://www.w3.org/2000/svg" width="24" height="24" fill="currentColor" viewBox="0 0 24 24">
  <path fill-rule="evenodd" d="M3.75 1.5A2.25 2.25 0 0 0 1.5 3.75v15a.75.75 0 0 0 1.5 0v-15A.75.75 0 0 1 3.75 3h15a.75.75 0 0 0 0-1.5h-15Zm3 3A2.25 2.25 0 0 0 4.5 6.75v13.5a2.25 2.25 0 0 0 2.25 2.25h13.5a2.25 2.25 0 0 0 2.25-2.25V6.75a2.25 2.25 0 0 0-2.25-2.25H6.75ZM6 6.75A.75.75 0 0 1 6.75 6h13.5a.75.75 0 0 1 .75.75v13.5a.75.75 0 0 1-.75.75H6.75a.75.75 0 0 1-.75-.75V6.75Z" clip-rule="evenodd"/>
</svg>
