<svg xmlns="http://www.w3.org/2000/svg" width="24" height="24" fill="currentColor" viewBox="0 0 24 24">
  <path fill-rule="evenodd" d="M4.5 6.75A2.25 2.25 0 0 1 6.75 4.5h13.5a2.25 2.25 0 0 1 2.25 2.25v13.5a2.25 2.25 0 0 1-2.25 2.25H6.75a2.25 2.25 0 0 1-2.25-2.25V6.75ZM6.75 6a.75.75 0 0 0-.75.75v13.5c0 .414.336.75.75.75h13.5a.75.75 0 0 0 .75-.75V6.75a.75.75 0 0 0-.75-.75H6.75Z" clip-rule="evenodd"/>
  <path fill-rule="evenodd" d="M1.5 3.75A2.25 2.25 0 0 1 3.75 1.5h15a.75.75 0 0 1 0 1.5h-15a.75.75 0 0 0-.75.75v15a.75.75 0 0 1-1.5 0v-15Z" clip-rule="evenodd"/>
</svg>
