<svg xmlns="http://www.w3.org/2000/svg" width="24" height="24" fill="currentColor" viewBox="0 0 24 24">
  <path fill-rule="evenodd" d="M3.15 3a.15.15 0 0 0-.15.15v2.7c0 .083.067.15.15.15h2.7A.15.15 0 0 0 6 5.85v-2.7A.15.15 0 0 0 5.85 3h-2.7Zm-1.65.15c0-.911.739-1.65 1.65-1.65h2.7c.911 0 1.65.739 1.65 1.65v2.7A1.65 1.65 0 0 1 5.85 7.5h-.575v3.75h7.475V3.225c0-.929.734-1.725 1.693-1.725h6.364c.959 0 1.693.796 1.693 1.725v17.55c0 .929-.734 1.725-1.693 1.725h-6.364c-.959 0-1.693-.796-1.693-1.725V12.75H5.275v3.75h.575c.911 0 1.65.739 1.65 1.65v2.7a1.65 1.65 0 0 1-1.65 1.65h-2.7a1.65 1.65 0 0 1-1.65-1.65v-2.7c0-.911.739-1.65 1.65-1.65h.625v-9H3.15A1.65 1.65 0 0 1 1.5 5.85v-2.7ZM3.15 18a.15.15 0 0 0-.15.15v2.7c0 .083.067.15.15.15h2.7a.15.15 0 0 0 .15-.15v-2.7a.15.15 0 0 0-.15-.15h-2.7Zm11.1-14.775c0-.148.11-.225.193-.225h6.364c.083 0 .193.077.193.225v17.55c0 .148-.11.225-.193.225h-6.364c-.083 0-.193-.077-.193-.225V3.225ZM15.75 6a.75.75 0 0 1 .75-.75h2.25a.75.75 0 0 1 0 1.5H16.5a.75.75 0 0 1-.75-.75Zm.75 2.25a.75.75 0 0 0 0 1.5h2.25a.75.75 0 0 0 0-1.5H16.5Z" clip-rule="evenodd"/>
</svg>
