<svg xmlns="http://www.w3.org/2000/svg" width="24" height="24" fill="currentColor" viewBox="0 0 24 24">
  <path fill-rule="evenodd" d="M12 3a.75.75 0 1 0 0 1.5.75.75 0 0 0 0-1.5Zm-2.25.75a2.25 2.25 0 1 1 3 2.122v2.453a3.73 3.73 0 0 1 1.31.541l1.881-1.956a2.25 2.25 0 1 1 1.03 1.092l-1.847 1.922c.263.396.453.844.551 1.326h2.453a2.251 2.251 0 1 1 0 1.5h-2.453a3.729 3.729 0 0 1-.546 1.318l1.9 1.901a2.25 2.25 0 1 1-1.06 1.06l-1.901-1.9c-.394.26-.84.449-1.318.546v2.453a2.251 2.251 0 1 1-1.5 0v-2.453a3.73 3.73 0 0 1-1.318-.546l-1.896 1.896a2.25 2.25 0 1 1-1.072-1.05l1.907-1.907a3.747 3.747 0 0 1-.546-1.318H5.872a2.25 2.25 0 1 1 0-1.5h2.453a3.73 3.73 0 0 1 .548-1.32L6.99 8.02a2.25 2.25 0 1 1 1.05-1.07l1.895 1.92c.393-.26.837-.448 1.315-.545V5.872a2.25 2.25 0 0 1-1.5-2.122ZM12 19.5a.75.75 0 1 0 0 1.5.75.75 0 0 0 0-1.5ZM3 12a.75.75 0 1 1 1.5 0A.75.75 0 0 1 3 12Zm17.25-.75a.75.75 0 1 0 0 1.5.75.75 0 0 0 0-1.5ZM5.25 6a.75.75 0 1 1 1.5 0 .75.75 0 0 1-1.5 0ZM18 5.25a.75.75 0 0 0-.61 1.187.701.701 0 0 1 .115.126A.75.75 0 1 0 18 5.25ZM5.265 18.008a.75.75 0 1 1 1.5.015.75.75 0 0 1-1.5-.015ZM18 17.25a.75.75 0 1 0 0 1.5.75.75 0 0 0 0-1.5ZM9.75 12a2.25 2.25 0 1 1 4.5 0 2.25 2.25 0 0 1-4.5 0Z" clip-rule="evenodd"/>
</svg>
