<svg xmlns="http://www.w3.org/2000/svg" width="24" height="24" fill="currentColor" viewBox="0 0 24 24">
  <path fill-rule="evenodd" d="M12 3a.75.75 0 1 0 0 1.5.75.75 0 0 0 0-1.5Zm-2.25.75a2.25 2.25 0 1 1 4.5 0 2.25 2.25 0 0 1-4.5 0ZM12 19.5a.75.75 0 1 0 0 1.5.75.75 0 0 0 0-1.5Zm-2.25.75a2.25 2.25 0 1 1 4.5 0 2.25 2.25 0 0 1-4.5 0Zm-6-9a.75.75 0 1 0 0 1.5.75.75 0 0 0 0-1.5ZM1.5 12A2.25 2.25 0 1 1 6 12a2.25 2.25 0 0 1-4.5 0Zm18.75-.75a.75.75 0 1 0 0 1.5.75.75 0 0 0 0-1.5ZM18 12a2.25 2.25 0 1 1 4.5 0 2.25 2.25 0 0 1-4.5 0ZM6 5.25a.75.75 0 1 0 0 1.5.75.75 0 0 0 0-1.5ZM3.75 6a2.25 2.25 0 1 1 4.5 0 2.25 2.25 0 0 1-4.5 0ZM18 5.25a.75.75 0 1 0 0 1.5.75.75 0 0 0 0-1.5ZM15.75 6a2.25 2.25 0 1 1 4.5 0 2.25 2.25 0 0 1-4.5 0ZM6.023 17.265a.75.75 0 1 0-.015 1.5.75.75 0 0 0 .015-1.5Zm-2.257.727a2.25 2.25 0 1 1 4.5.047 2.25 2.25 0 0 1-4.5-.047ZM18 17.25a.75.75 0 1 0 0 1.5.75.75 0 0 0 0-1.5Zm-2.25.75a2.25 2.25 0 1 1 4.5 0 2.25 2.25 0 0 1-4.5 0Z" clip-rule="evenodd"/>
  <path fill-rule="evenodd" d="M13.74 13.74a.75.75 0 0 1 1.06 0l2.59 2.59a.75.75 0 0 1-1.06 1.06l-2.59-2.59a.75.75 0 0 1 0-1.06ZM6.573 6.531a.75.75 0 0 1 1.06.007l2.63 2.665a.75.75 0 0 1-1.067 1.054l-2.63-2.665a.75.75 0 0 1 .007-1.06Zm10.842-.071a.75.75 0 0 1 .02 1.06l-2.624 2.73a.75.75 0 0 1-1.082-1.04l2.625-2.73a.75.75 0 0 1 1.06-.02Zm-7.155 7.28a.75.75 0 0 1 0 1.06l-2.665 2.665a.75.75 0 1 1-1.06-1.06L9.2 13.74a.75.75 0 0 1 1.06 0ZM12 4.875a.75.75 0 0 1 .75.75v3.16a.75.75 0 0 1-1.5 0v-3.16a.75.75 0 0 1 .75-.75Zm0 9.59a.75.75 0 0 1 .75.75v3.16a.75.75 0 0 1-1.5 0v-3.16a.75.75 0 0 1 .75-.75ZM14.465 12a.75.75 0 0 1 .75-.75h3.16a.75.75 0 0 1 0 1.5h-3.16a.75.75 0 0 1-.75-.75ZM4.5 12a.75.75 0 0 1 .75-.75h3.535a.75.75 0 0 1 0 1.5H5.25A.75.75 0 0 1 4.5 12Z" clip-rule="evenodd"/>
  <path fill-rule="evenodd" d="M12 9.75a2.25 2.25 0 1 0 0 4.5 2.25 2.25 0 0 0 0-4.5ZM8.25 12a3.75 3.75 0 1 1 7.5 0 3.75 3.75 0 0 1-7.5 0Z" clip-rule="evenodd"/>
</svg>
