<svg xmlns="http://www.w3.org/2000/svg" width="24" height="24" fill="currentColor" viewBox="0 0 24 24">
  <path fill-rule="evenodd" d="M12 2.95a9.05 9.05 0 1 0 0 18.1 9.05 9.05 0 0 0 0-18.1ZM1.45 12C1.45 6.173 6.173 1.45 12 1.45c5.827 0 10.55 4.723 10.55 10.55 0 5.827-4.723 10.55-10.55 10.55-5.827 0-10.55-4.723-10.55-10.55Z" clip-rule="evenodd"/>
  <path fill-rule="evenodd" d="M12 8.25c-.826 0-1.5.674-1.5 1.5s.674 1.5 1.5 1.5c1.655 0 3 1.345 3 3s-1.345 3-3 3c-1.653 0-3-1.337-3-3a.75.75 0 0 1 1.5 0c0 .826.674 1.5 1.5 1.5s1.5-.674 1.5-1.5-.674-1.5-1.5-1.5c-1.655 0-3-1.345-3-3s1.345-3 3-3c1.653 0 3 1.337 3 3a.75.75 0 0 1-1.5 0c0-.826-.674-1.5-1.5-1.5Z" clip-rule="evenodd"/>
  <path fill-rule="evenodd" d="M12 4.5a.75.75 0 0 1 .75.75v1.5a.75.75 0 0 1-1.5 0v-1.5A.75.75 0 0 1 12 4.5Zm0 12a.75.75 0 0 1 .75.75v1.5a.75.75 0 0 1-1.5 0v-1.5a.75.75 0 0 1 .75-.75Z" clip-rule="evenodd"/>
</svg>
