<svg xmlns="http://www.w3.org/2000/svg" width="24" height="24" fill="currentColor" viewBox="0 0 24 24">
  <path fill-rule="evenodd" d="M2.95 12a9.05 9.05 0 1 1 18.1 0 9.05 9.05 0 0 1-18.1 0ZM12 1.45C6.173 1.45 1.45 6.173 1.45 12c0 5.827 4.723 10.55 10.55 10.55 5.827 0 10.55-4.723 10.55-10.55 0-5.827-4.723-10.55-10.55-10.55Zm-1.5 8.3c0-.826.674-1.5 1.5-1.5s1.5.674 1.5 1.5a.75.75 0 0 0 1.5 0c0-1.405-.96-2.577-2.256-2.907a.75.75 0 0 0 .006-.093v-1.5a.75.75 0 0 0-1.5 0v1.5c0 .032.002.063.006.093A3.004 3.004 0 0 0 9 9.75c0 1.655 1.345 3 3 3 .826 0 1.5.674 1.5 1.5s-.674 1.5-1.5 1.5-1.5-.674-1.5-1.5a.75.75 0 0 0-1.5 0c0 1.405.96 2.577 2.256 2.907a.752.752 0 0 0-.006.093v1.5a.75.75 0 0 0 1.5 0v-1.5a.756.756 0 0 0-.006-.093A3.004 3.004 0 0 0 15 14.25c0-1.655-1.345-3-3-3-.826 0-1.5-.674-1.5-1.5Z" clip-rule="evenodd"/>
</svg>
