<svg xmlns="http://www.w3.org/2000/svg" width="24" height="24" fill="currentColor" viewBox="0 0 24 24">
  <path fill-rule="evenodd" d="M4.575 4.574C8.649.507 15.225.475 19.33 4.48l.174-1.563a.75.75 0 1 1 1.49.166l-.375 3.375a.75.75 0 0 1-.828.662l-3.375-.375a.75.75 0 1 1 .166-1.49l1.57.174c-3.526-3.306-9.067-3.238-12.518.206-3.513 3.513-3.514 9.21 0 12.73 3.513 3.513 9.21 3.514 12.731 0a8.994 8.994 0 0 0 2.274-8.888.75.75 0 0 1 1.44-.42 10.494 10.494 0 0 1-2.654 10.369c-4.106 4.098-10.753 4.099-14.852 0-4.098-4.107-4.099-10.753 0-14.852ZM10.5 9.75c0-.826.674-1.5 1.5-1.5s1.5.674 1.5 1.5a.75.75 0 0 0 1.5 0c0-1.405-.96-2.577-2.256-2.907a.75.75 0 0 0 .006-.093v-1.5a.75.75 0 0 0-1.5 0v1.5c0 .032.002.063.006.093A3.004 3.004 0 0 0 9 9.75c0 1.655 1.345 3 3 3 .826 0 1.5.674 1.5 1.5s-.674 1.5-1.5 1.5-1.5-.674-1.5-1.5a.75.75 0 0 0-1.5 0c0 1.405.96 2.577 2.256 2.907a.752.752 0 0 0-.006.093v1.5a.75.75 0 0 0 1.5 0v-1.5a.756.756 0 0 0-.006-.093A3.004 3.004 0 0 0 15 14.25c0-1.655-1.345-3-3-3-.826 0-1.5-.674-1.5-1.5Z" clip-rule="evenodd"/>
</svg>
