<svg xmlns="http://www.w3.org/2000/svg" width="24" height="24" fill="currentColor" viewBox="0 0 24 24">
  <path fill-rule="evenodd" d="M20.333 2.255a.75.75 0 0 1 .662.828l-.375 3.375a.75.75 0 0 1-.828.662l-3.375-.375a.75.75 0 1 1 .166-1.49l2.63.292.292-2.63a.75.75 0 0 1 .828-.662Z" clip-rule="evenodd"/>
  <path fill-rule="evenodd" d="M4.575 4.574C8.68.476 15.327.475 19.426 4.574a.75.75 0 0 1-1.06 1.06c-3.513-3.512-9.21-3.513-12.731.001-3.513 3.513-3.514 9.21 0 12.73 3.513 3.513 9.21 3.514 12.731 0a8.994 8.994 0 0 0 2.274-8.888.75.75 0 0 1 1.44-.42 10.494 10.494 0 0 1-2.654 10.369c-4.106 4.098-10.753 4.099-14.852 0-4.098-4.107-4.099-10.753 0-14.852Z" clip-rule="evenodd"/>
  <path fill-rule="evenodd" d="M12 8.25c-.826 0-1.5.674-1.5 1.5s.674 1.5 1.5 1.5c1.655 0 3 1.345 3 3s-1.345 3-3 3c-1.653 0-3-1.337-3-3a.75.75 0 0 1 1.5 0c0 .826.674 1.5 1.5 1.5s1.5-.674 1.5-1.5-.674-1.5-1.5-1.5c-1.655 0-3-1.345-3-3s1.345-3 3-3c1.653 0 3 1.337 3 3a.75.75 0 0 1-1.5 0c0-.826-.674-1.5-1.5-1.5Z" clip-rule="evenodd"/>
  <path fill-rule="evenodd" d="M12 4.5a.75.75 0 0 1 .75.75v1.5a.75.75 0 0 1-1.5 0v-1.5A.75.75 0 0 1 12 4.5Zm0 12a.75.75 0 0 1 .75.75v1.5a.75.75 0 0 1-1.5 0v-1.5a.75.75 0 0 1 .75-.75Z" clip-rule="evenodd"/>
</svg>
