<svg xmlns="http://www.w3.org/2000/svg" width="24" height="24" fill="currentColor" viewBox="0 0 24 24">
  <path fill-rule="evenodd" d="M7.48 3h9.026c.532 0 1.027.285 1.304.742l4.476 7.475a1.53 1.53 0 0 1 0 1.559l-4.468 7.482a1.516 1.516 0 0 1-1.305.742H7.487a1.532 1.532 0 0 1-1.305-.742l-4.468-7.482a1.53 1.53 0 0 1 0-1.56l4.46-7.474A1.516 1.516 0 0 1 7.48 3ZM12 6a.75.75 0 0 1 .75.75v6a.75.75 0 0 1-1.5 0v-6A.75.75 0 0 1 12 6Zm.75 9.75a.75.75 0 1 1-1.5 0 .75.75 0 0 1 1.5 0Z" clip-rule="evenodd"/>
</svg>
