<svg xmlns="http://www.w3.org/2000/svg" width="24" height="24" fill="currentColor" viewBox="0 0 24 24">
  <path fill-rule="evenodd" d="M7.802 2.992c-.755 0-1.463.39-1.86 1.046L1.8 10.89v.001a2.14 2.14 0 0 0 0 2.21v.002l4.15 6.859.002.004a2.184 2.184 0 0 0 1.857 1.041h8.382a2.17 2.17 0 0 0 1.86-1.045l4.149-6.859v-.001c.41-.68.41-1.53 0-2.21l-4.157-6.855-.002-.003a2.184 2.184 0 0 0-1.857-1.042H7.802Zm-.563 1.83a.654.654 0 0 1 .563-.315h8.382a.67.67 0 0 1 .565.318v.002l4.153 6.845v.001a.63.63 0 0 1 0 .648l-4.148 6.857a.654.654 0 0 1-.563.314H7.809a.67.67 0 0 1-.565-.317l-.001-.002-4.146-6.852a.63.63 0 0 1 0-.649l4.142-6.85ZM11.999 6a.75.75 0 0 1 .75.75v6a.75.75 0 1 1-1.5 0v-6A.75.75 0 0 1 12 6Zm.75 9.75a.75.75 0 1 1-1.499 0 .75.75 0 0 1 1.5 0Z" clip-rule="evenodd"/>
</svg>
