<svg xmlns="http://www.w3.org/2000/svg" width="24" height="24" fill="currentColor" viewBox="0 0 24 24">
  <path fill-rule="evenodd" d="M16.506 3H7.479c-.532 0-1.027.277-1.304.742l-4.461 7.475a1.53 1.53 0 0 0 0 1.559l4.468 7.482c.277.457.772.742 1.305.742h9.026c.533 0 1.027-.277 1.305-.742l4.468-7.482a1.53 1.53 0 0 0 0-1.56L17.81 3.743A1.532 1.532 0 0 0 16.506 3Zm-3.381 13.872a1.125 1.125 0 1 1-2.25 0 1.125 1.125 0 0 1 2.25 0Zm-.188-9.934a.937.937 0 1 0-1.874 0v6.375a.937.937 0 1 0 1.874 0V6.936Z" clip-rule="evenodd"/>
</svg>
