<svg xmlns="http://www.w3.org/2000/svg" width="24" height="24" fill="currentColor" viewBox="0 0 24 24">
  <path fill-rule="evenodd" d="m20.972 11.933-8.905-8.905a.094.094 0 0 0-.134 0l-8.905 8.905a.094.094 0 0 0 0 .134l8.905 8.905a.094.094 0 0 0 .134 0l8.905-8.905a.094.094 0 0 0 0-.134Zm-7.845-9.966a1.594 1.594 0 0 0-2.254 0l-8.906 8.906a1.594 1.594 0 0 0 0 2.254l8.906 8.906a1.594 1.594 0 0 0 2.254 0l8.906-8.906a1.594 1.594 0 0 0 0-2.254l-8.906-8.906ZM12 6a.75.75 0 0 1 .75.75v6a.75.75 0 0 1-1.5 0v-6A.75.75 0 0 1 12 6Zm0 10.5a.75.75 0 1 0 0-1.5.75.75 0 0 0 0 1.5Z" clip-rule="evenodd"/>
</svg>
