<svg xmlns="http://www.w3.org/2000/svg" width="24" height="24" fill="currentColor" viewBox="0 0 24 24">
  <path fill-rule="evenodd" d="M5.944 4.04a2.167 2.167 0 0 1 1.858-1.046h8.375c.76 0 1.462.4 1.855 1.04l.002.004 4.154 6.849c.41.68.41 1.529 0 2.208v.002l-4.146 6.852a2.167 2.167 0 0 1-1.858 1.045H7.809c-.76 0-1.462-.4-1.856-1.04l-.002-.005-4.146-6.852-.001-.002a2.142 2.142 0 0 1 0-2.208v-.002l4.14-6.846Zm1.858.468a.653.653 0 0 0-.563.314l-4.138 6.845a.63.63 0 0 0 0 .647l4.142 6.847.001.002a.669.669 0 0 0 .565.317h8.375a.653.653 0 0 0 .562-.314l4.145-6.851a.63.63 0 0 0 0-.647v-.001l-4.149-6.84v-.001a.669.669 0 0 0-.565-.318H7.802Zm5.318 12.356a1.125 1.125 0 1 1-2.249 0 1.125 1.125 0 0 1 2.25 0Zm-.188-9.927a.937.937 0 0 0-1.874 0v6.37a.937.937 0 0 0 1.874 0v-6.37Z" clip-rule="evenodd"/>
</svg>
