<svg xmlns="http://www.w3.org/2000/svg" width="24" height="24" fill="currentColor" viewBox="0 0 24 24">
  <path fill-rule="evenodd" d="M7.5 2.25a.75.75 0 0 0-1.5 0V6H2.25a.75.75 0 0 0 0 1.5H6v8.625c0 .501.15.992.517 1.358.366.366.857.517 1.358.517H16.5v3.716a.75.75 0 0 0 1.5 0V18h3.75a.75.75 0 0 0 0-1.5H7.875c-.206 0-.278-.058-.297-.078-.02-.02-.078-.091-.078-.297V2.25ZM9 6a.75.75 0 0 0 0 1.5h7.036c.256 0 .464.208.464.464V15a.75.75 0 0 0 1.5 0V7.964C18 6.88 17.12 6 16.036 6H9Z" clip-rule="evenodd"/>
</svg>
