<svg xmlns="http://www.w3.org/2000/svg" width="24" height="24" fill="currentColor" viewBox="0 0 24 24">
  <path fill-rule="evenodd" d="m2.669 6.03 8.857-4.361a.753.753 0 0 1 .495-.169.753.753 0 0 1 .5.172l8.8 4.4a.744.744 0 0 1 .316.282.746.746 0 0 1 .113.396v10.485a.75.75 0 0 1-.43.694l-8.97 4.485a.74.74 0 0 1-.514.068.746.746 0 0 1-.185-.068l-8.972-4.486a.748.748 0 0 1-.43-.695V6.766a.74.74 0 0 1 .001-.04.75.75 0 0 1 .419-.697Zm10.08 14.506 7.5-3.75V7.963l-7.5 3.75v8.823Zm-1.5-8.823v8.824l-7.5-3.75V7.963l7.5 3.75Zm.77-8.615 7.304 3.652L12 10.412 4.639 6.73l7.38-3.633Z" clip-rule="evenodd"/>
</svg>
