<svg xmlns="http://www.w3.org/2000/svg" width="24" height="24" fill="none" viewBox="0 0 24 24">
  <path fill="#3D3C3C" fill-rule="evenodd" d="m2.669 6.03 8.857-4.361a.753.753 0 0 1 .496-.169.753.753 0 0 1 .5.172l8.8 4.4a.742.742 0 0 1 .315.282.746.746 0 0 1 .113.396v10.485c0 .033 0 .066-.005.099a.75.75 0 0 1-.425.595l-8.97 4.485a.738.738 0 0 1-.514.068.747.747 0 0 1-.185-.068L2.68 17.928a.748.748 0 0 1-.43-.695V6.726a.75.75 0 0 1 .419-.697ZM12.75 20.535l7.5-3.75V7.963l-7.5 3.75v8.823Zm-1.5-8.823v8.824l-7.5-3.75V7.963l7.5 3.75Zm.769-8.615 7.304 3.652L12 10.412 4.64 6.73l7.379-3.633Z" clip-rule="evenodd"/>
</svg>
