<svg xmlns="http://www.w3.org/2000/svg" width="24" height="24" fill="currentColor" viewBox="0 0 24 24">
  <path fill-rule="evenodd" d="M1.72 1.72a.75.75 0 0 1 1.06 0l3.408 3.408A8.964 8.964 0 0 1 12 3c2.215 0 4.244.8 5.812 2.128L21.22 1.72a.75.75 0 1 1 1.06 1.06l-3.408 3.408A8.964 8.964 0 0 1 21 12c0 2.215-.8 4.244-2.128 5.812l3.408 3.408a.75.75 0 1 1-1.06 1.06l-3.408-3.408A8.964 8.964 0 0 1 12 21c-2.215 0-4.244-.8-5.812-2.128L2.78 22.28a.75.75 0 0 1-1.06-1.06l3.408-3.408A8.964 8.964 0 0 1 3 12c0-2.215.8-4.244 2.128-5.812L1.72 2.78a.75.75 0 0 1 0-1.06ZM4.5 12a7.5 7.5 0 1 1 15 0 7.5 7.5 0 0 1-15 0Z" clip-rule="evenodd"/>
</svg>
