<svg xmlns="http://www.w3.org/2000/svg" width="24" height="24" fill="currentColor" viewBox="0 0 24 24">
  <path fill-rule="evenodd" d="M4.5 3A1.5 1.5 0 0 0 3 4.5v6a.75.75 0 0 0 1.5 0v-6h6a.75.75 0 0 0 0-1.5h-6Zm9 0a.75.75 0 0 0 0 1.5h6v6a.75.75 0 0 0 1.5 0v-6A1.5 1.5 0 0 0 19.5 3h-6Zm6.75 9.75a.75.75 0 0 1 .75.75v6a1.5 1.5 0 0 1-1.5 1.5h-6a.75.75 0 0 1 0-1.5h6v-6a.75.75 0 0 1 .75-.75ZM4.5 13.5a.75.75 0 0 0-1.5 0v6A1.5 1.5 0 0 0 4.5 21h6a.75.75 0 0 0 0-1.5h-6v-6Zm7.5 0a1.5 1.5 0 1 0 0-3 1.5 1.5 0 0 0 0 3Zm-5.101-.135a6.604 6.604 0 0 0 5.096 2.385c1.98 0 3.842-.87 5.095-2.385l.736-.885a.747.747 0 0 0 0-.96l-.736-.885a6.593 6.593 0 0 0-5.095-2.385c-1.982 0-3.843.87-5.096 2.385 0 0-.533.615-.736.885-.199.265-.231.668-.012.945-.03-.036.045.056.748.9Zm1.156-.96L7.717 12l.338-.405a5.103 5.103 0 0 1 3.94-1.845c1.53 0 2.971.675 3.94 1.845l.337.405-.338.405a5.096 5.096 0 0 1-3.94 1.838 5.085 5.085 0 0 1-3.94-1.838Z" clip-rule="evenodd"/>
</svg>
