<svg xmlns="http://www.w3.org/2000/svg" width="24" height="24" fill="currentColor" viewBox="0 0 24 24">
  <path fill-rule="evenodd" d="M5.582 3C5.005 3 4.5 3.492 4.5 4.122V6h.75a.75.75 0 0 1 0 1.5h-3a.75.75 0 0 1 0-1.5H3V4.122C3 2.695 4.146 1.5 5.582 1.5h12.086c1.436 0 2.582 1.195 2.582 2.622V9.75a.75.75 0 0 1-1.5 0V4.122c0-.63-.505-1.122-1.082-1.122H5.582ZM3.75 18.712a.75.75 0 0 1 .75.75v.416c0 .63.505 1.122 1.082 1.122H9.75a.75.75 0 0 1 0 1.5H5.582C4.146 22.5 3 21.305 3 19.878v-.416a.75.75 0 0 1 .75-.75ZM1.5 12a.75.75 0 0 1 .75-.75H3V9a.75.75 0 0 1 1.5 0v2.25h.75a.75.75 0 0 1 0 1.5h-3A.75.75 0 0 1 1.5 12Zm0 5.25a.75.75 0 0 1 .75-.75H3v-2.25a.75.75 0 0 1 1.5 0v2.25h.75a.75.75 0 0 1 0 1.5h-3a.75.75 0 0 1-.75-.75Zm10.946 4.808c.285.285.668.442 1.066.442v-.008c.127 0 .247-.015.375-.044l1.823-.458a.726.726 0 0 0 .345-.195l5.747-5.744c.93-.93.93-2.43 0-3.36a2.387 2.387 0 0 0-3.361 0l-5.747 5.76a.718.718 0 0 0-.195.345l-.458 1.822h.008a1.486 1.486 0 0 0 .397 1.44Zm1.05-1.073v-.007l.406-1.62 5.604-5.601a.87.87 0 0 1 1.238 0c.338.345.338.9 0 1.237l-5.597 5.594-1.65.397Z" clip-rule="evenodd"/>
</svg>
