<svg xmlns="http://www.w3.org/2000/svg" width="24" height="24" fill="currentColor" viewBox="0 0 24 24">
  <path fill-rule="evenodd" d="M4.5 14.25a.75.75 0 0 1 .75.75v4.199c0 .16.13.301.313.301H10.5a.75.75 0 0 1 0 1.5H5.563c-.997 0-1.813-.8-1.813-1.801V15a.75.75 0 0 1 .75-.75Z" clip-rule="evenodd"/>
  <path fill-rule="evenodd" d="M8.47 18.22a.75.75 0 0 1 1.06 0l1.5 1.5a.75.75 0 0 1 0 1.06l-1.5 1.5a.75.75 0 0 1-1.06-1.06l.97-.97-.97-.97a.75.75 0 0 1 0-1.06Zm4.28-14.47A.75.75 0 0 1 13.5 3h4.837c.988 0 1.913.738 1.913 1.801V9a.75.75 0 0 1-1.5 0V4.801c0-.098-.11-.301-.413-.301H13.5a.75.75 0 0 1-.75-.75Z" clip-rule="evenodd"/>
  <path fill-rule="evenodd" d="M15.53 1.72a.75.75 0 0 1 0 1.06l-.97.97.97.97a.75.75 0 0 1-1.06 1.06l-1.5-1.5a.75.75 0 0 1 0-1.06l1.5-1.5a.75.75 0 0 1 1.06 0ZM6.375 3a1.125 1.125 0 1 0 0 2.25 1.125 1.125 0 0 0 0-2.25ZM3.75 4.125a2.625 2.625 0 1 1 5.25 0 2.625 2.625 0 0 1-5.25 0ZM1.5 9.575A2.053 2.053 0 0 1 3.546 7.5h5.659c1.148 0 2.045.945 2.045 2.07v.004l-.014 2.036a1.135 1.135 0 0 1-1.135 1.133h-.007c-.94-.01-3.412-.003-5.331.002-.892.003-1.664.005-2.107.005-.623 0-1.14-.503-1.142-1.14v-.004h.75l-.75.006v-.002L1.5 9.576l.75-.007-.75.005v.001ZM3.546 9A.553.553 0 0 0 3 9.562v.002l.012 1.686 1.724-.004c1.71-.005 3.876-.01 5.002-.005l.012-1.674A.557.557 0 0 0 9.204 9H3.546Zm14.079 3.75a1.125 1.125 0 1 0 0 2.25 1.125 1.125 0 0 0 0-2.25ZM15 13.875a2.625 2.625 0 1 1 5.25 0 2.625 2.625 0 0 1-5.25 0Zm-2.25 5.451a2.053 2.053 0 0 1 2.047-2.076h5.656c1.149 0 2.047.945 2.047 2.07v.002l-.007 1.775v.012a1.41 1.41 0 0 1-1.406 1.384h-.003c-.977-.004-2.897 0-4.56.003l-2.361.004a1.4 1.4 0 0 1-1.399-1.396l-.014-1.778Zm2.047-.576a.554.554 0 0 0-.547.562v.001L14.264 21l2.245-.004c1.613-.003 3.477-.007 4.484-.003L21 19.319v-.001a.558.558 0 0 0-.547-.568h-5.656Z" clip-rule="evenodd"/>
</svg>
