<svg xmlns="http://www.w3.org/2000/svg" width="24" height="24" fill="currentColor" viewBox="0 0 24 24">
  <path fill-rule="evenodd" d="M3 3.75c0-.45.338-.75.679-.75H8.32c.341 0 .679.3.679.75V6c0 .45-.338.75-.679.75H3.68C3.338 6.75 3 6.45 3 6V3.75Zm.679-2.25C2.44 1.5 1.5 2.542 1.5 3.75V6c0 1.208.941 2.25 2.179 2.25H8.32c1.24 0 2.18-1.042 2.18-2.25V3.75c0-1.208-.941-2.25-2.179-2.25H3.68ZM3 11.929c0-.375.304-.679.679-.679H8.32c.375 0 .679.304.679.679v8.392A.679.679 0 0 1 8.32 21H3.68a.679.679 0 0 1-.68-.679V11.93Zm.679-2.179A2.179 2.179 0 0 0 1.5 11.929v8.392c0 1.204.975 2.179 2.179 2.179H8.32a2.179 2.179 0 0 0 2.179-2.179V11.93a2.179 2.179 0 0 0-2.178-2.18H3.68ZM20.32 21c.341 0 .679-.3.679-.75V18c0-.45-.338-.75-.679-.75h-4.64c-.341 0-.679.3-.679.75v2.25c0 .45.338.75.679.75h4.642Zm2.179-.75c0 1.208-.941 2.25-2.179 2.25h-4.64c-1.238 0-2.179-1.042-2.179-2.25V18c0-1.208.941-2.25 2.179-2.25h4.642c1.238 0 2.179 1.042 2.179 2.25v2.25ZM21 12.071a.679.679 0 0 1-.679.679H15.68a.679.679 0 0 1-.679-.679V3.68c0-.375.304-.679.679-.679h4.642c.375 0 .679.304.679.679v8.392Zm-.679 2.179a2.179 2.179 0 0 0 2.179-2.179V3.68a2.179 2.179 0 0 0-2.179-2.18H15.68a2.179 2.179 0 0 0-2.18 2.179v8.392c0 1.204.975 2.179 2.179 2.179h4.642Z" clip-rule="evenodd"/>
</svg>
