<svg xmlns="http://www.w3.org/2000/svg" width="24" height="24" fill="currentColor" viewBox="0 0 24 24">
  <path fill-rule="evenodd" d="M3.679 3C3.338 3 3 3.3 3 3.75V6c0 .45.338.75.679.75H8.32c.342 0 .68-.3.68-.75V3.75C9 3.3 8.662 3 8.321 3H3.68ZM1.5 3.75c0-1.208.941-2.25 2.179-2.25H8.32c1.24 0 2.18 1.042 2.18 2.25V6c0 1.208-.941 2.25-2.179 2.25H3.68C2.44 8.25 1.5 7.208 1.5 6V3.75Zm2.179 7.5a.679.679 0 0 0-.679.679v8.392c0 .375.304.679.679.679H8.32a.679.679 0 0 0 .68-.679V11.93a.679.679 0 0 0-.679-.679H3.68Zm-2.179.679c0-1.204.975-2.179 2.179-2.179H8.32c1.204 0 2.179.975 2.179 2.179v8.392A2.179 2.179 0 0 1 8.321 22.5H3.68a2.179 2.179 0 0 1-2.18-2.179V11.93ZM20.321 21c.341 0 .679-.3.679-.75V18c0-.45-.338-.75-.679-.75H15.68c-.341 0-.679.3-.679.75v2.25c0 .45.338.75.679.75h4.642Zm2.179-.75c0 1.208-.941 2.25-2.179 2.25H15.68c-1.238 0-2.179-1.042-2.179-2.25V18c0-1.208.941-2.25 2.179-2.25h4.642c1.238 0 2.179 1.042 2.179 2.25v2.25Zm-2.179-7.5a.679.679 0 0 0 .679-.679V3.68a.679.679 0 0 0-.679-.68H15.68a.679.679 0 0 0-.679.679v8.392c0 .375.304.679.679.679h4.642Zm2.179-.679a2.179 2.179 0 0 1-2.179 2.179H15.68a2.179 2.179 0 0 1-2.179-2.179V3.68c0-1.204.975-2.179 2.179-2.179h4.642c1.204 0 2.179.975 2.179 2.179v8.392Z" clip-rule="evenodd"/>
</svg>
