<svg xmlns="http://www.w3.org/2000/svg" width="24" height="24" fill="currentColor" viewBox="0 0 24 24">
  <path d="M12.75 1.5a3.75 3.75 0 0 1 3.75 3.75v6a.75.75 0 0 1-1.5 0v-1.5H3v4.5h7.5a.75.75 0 0 1 0 1.5H3v3A2.25 2.25 0 0 0 5.25 21H7.5a.75.75 0 0 1 0 1.5H5.25a3.75 3.75 0 0 1-3.75-3.75V5.25A3.75 3.75 0 0 1 5.25 1.5h7.5Zm3.436 11.25c1.909 0 3.484 1.322 4 3.085a3.03 3.03 0 0 1 1.441.897c.522.572.873 1.358.873 2.204 0 1.875-1.209 3.564-3.196 3.564h-6.639c-1.656 0-2.915-1.39-2.915-2.999 0-1.156.706-2.245 1.813-2.695.15-.061.303-.105.457-.131.208-2.176 1.964-3.925 4.166-3.925Zm0 1.5c-1.368 0-2.544 1.107-2.673 2.588a.75.75 0 0 1-.46 1.412l-.31-.058a.797.797 0 0 1-.04-.008c-.213-.052-.354-.051-.469-.024l-.106.035a1.426 1.426 0 0 0-.878 1.306c0 .847.653 1.499 1.415 1.499h6.639C20.24 21 21 20.225 21 18.936c0-.433-.183-.866-.48-1.192-.3-.329-.663-.494-.979-.494-.347 0-.57.1-.73.22a.75.75 0 0 1-.893-1.205c.202-.15.434-.278.7-.369-.432-.985-1.372-1.646-2.432-1.646Zm-10.936 3a.75.75 0 1 1 0 1.5.75.75 0 0 1 0-1.5Zm0-6a.75.75 0 1 1 0 1.5.75.75 0 0 1 0-1.5Zm0-8.25A2.25 2.25 0 0 0 3 5.25v3h12v-3A2.25 2.25 0 0 0 12.75 3h-7.5Zm0 2.25a.75.75 0 1 1 0 1.5.75.75 0 0 1 0-1.5Z"/>
</svg>
