<svg xmlns="http://www.w3.org/2000/svg" width="24" height="24" fill="currentColor" viewBox="0 0 24 24">
  <path fill-rule="evenodd" d="M5.25 1.5A3.75 3.75 0 0 0 1.5 5.25v13.5a3.75 3.75 0 0 0 3.75 3.75h6a.75.75 0 0 0 0-1.5h-6A2.25 2.25 0 0 1 3 18.75v-3h7.5a.75.75 0 0 0 0-1.5H3v-4.5h12v.75a.75.75 0 0 0 1.5 0V5.25a3.75 3.75 0 0 0-3.75-3.75h-7.5ZM3 8.25h12v-3A2.25 2.25 0 0 0 12.75 3h-7.5A2.25 2.25 0 0 0 3 5.25v3Zm2.25-3a.75.75 0 1 0 0 1.5.75.75 0 0 0 0-1.5ZM4.5 12A.75.75 0 1 1 6 12a.75.75 0 0 1-1.5 0Zm.75 5.25a.75.75 0 1 0 0 1.5.75.75 0 0 0 0-1.5ZM16.5 13.5a3 3 0 1 0 0 6 3 3 0 0 0 0-6Zm-4.5 3a4.5 4.5 0 1 1 8.168 2.607l2.112 2.113a.75.75 0 1 1-1.06 1.06l-2.113-2.112A4.5 4.5 0 0 1 12 16.5Z" clip-rule="evenodd"/>
</svg>
