<svg xmlns="http://www.w3.org/2000/svg" width="24" height="24" fill="currentColor" viewBox="0 0 24 24">
  <path d="M11.625 1.5c2.233 0 4.285.3 5.806.808.756.252 1.422.569 1.915.957.223.175.43.386.59.628.19.136.314.356.314.607v14.548c0 .692-.409 1.241-.895 1.637-.493.4-1.16.725-1.918.985-1.522.521-3.576.83-5.812.83s-4.291-.31-5.813-.833c-.758-.26-1.424-.586-1.916-.985C3.41 20.288 3 19.739 3 19.048V4.5c0-.25.124-.471.313-.607.16-.242.368-.453.591-.628.493-.388 1.16-.705 1.915-.957C7.34 1.8 9.392 1.5 11.625 1.5ZM4.5 19.048c0 .053.031.217.342.469.304.246.79.503 1.457.732 1.327.456 3.21.751 5.326.751 2.116 0 3.999-.294 5.326-.749.667-.229 1.154-.485 1.458-.732.31-.25.341-.415.341-.471v-2.6a7.34 7.34 0 0 1-1.288.626c-1.53.582-3.594.926-5.837.926s-4.307-.346-5.837-.929a7.456 7.456 0 0 1-1.288-.626v2.603ZM6 18a.75.75 0 1 1 0 1.5.75.75 0 0 1 0-1.5Zm-1.5-3.75c0 .127.065.334.371.61.306.274.79.558 1.451.81 1.32.503 3.194.83 5.303.83 2.11 0 3.983-.325 5.303-.827.662-.252 1.147-.534 1.452-.81.305-.275.37-.483.37-.613v-2.688a8.33 8.33 0 0 1-1.35.502c-1.51.43-3.553.686-5.779.686s-4.267-.257-5.774-.688A8.343 8.343 0 0 1 4.5 11.56v2.69ZM6 13.125a.75.75 0 1 1 0 1.5.75.75 0 0 1 0-1.5Zm12.75-6.249a7.795 7.795 0 0 1-1.32.567c-1.52.507-3.572.807-5.805.807-2.233 0-4.285-.3-5.806-.807A7.795 7.795 0 0 1 4.5 6.876V9.73c.007.018.053.115.288.274.305.206.797.422 1.472.615 1.339.383 3.234.631 5.361.631 2.128 0 4.026-.245 5.367-.628.676-.193 1.168-.409 1.474-.615.233-.158.28-.255.288-.275V6.876ZM6 8.25a.75.75 0 1 1 0 1.5.75.75 0 0 1 0-1.5ZM11.625 3c-2.116 0-4.001.287-5.331.73-.669.223-1.156.472-1.461.712-.313.247-.333.399-.333.433 0 .034.02.186.333.433.305.24.792.489 1.46.712 1.33.443 3.216.73 5.332.73 2.116 0 4.001-.287 5.331-.73.669-.223 1.156-.472 1.461-.712.313-.247.333-.399.333-.433 0-.034-.02-.186-.333-.433-.305-.24-.792-.489-1.46-.712-1.33-.443-3.216-.73-5.332-.73Z"/>
</svg>
