<svg xmlns="http://www.w3.org/2000/svg" width="24" height="24" fill="currentColor" viewBox="0 0 24 24">
  <path fill-rule="evenodd" d="M7.5 3h9A1.5 1.5 0 0 1 18 4.5v3.75H6V4.5A1.5 1.5 0 0 1 7.5 3ZM6 9.75v4.5h12v-4.5H6Zm0 9.75v-3.75h12v3.75a1.5 1.5 0 0 1-1.5 1.5h-9A1.5 1.5 0 0 1 6 19.5Zm-1.5-15a3 3 0 0 1 3-3h9a3 3 0 0 1 3 3v15a3 3 0 0 1-3 3h-9a3 3 0 0 1-3-3v-15Zm3.75.75a.75.75 0 1 0 0 1.5.75.75 0 0 0 0-1.5ZM7.5 12A.75.75 0 1 1 9 12a.75.75 0 0 1-1.5 0Zm.75 5.25a.75.75 0 1 0 0 1.5.75.75 0 0 0 0-1.5Z" clip-rule="evenodd"/>
</svg>
