<svg xmlns="http://www.w3.org/2000/svg" width="24" height="24" fill="currentColor" viewBox="0 0 24 24">
  <path fill-rule="evenodd" d="M1.5 5.25A3.75 3.75 0 0 1 5.25 1.5h7.5a3.75 3.75 0 0 1 3.75 3.75v5.25a.75.75 0 0 1-1.5 0v-.75H3v4.5h7.5a.75.75 0 0 1 0 1.5H3v3A2.25 2.25 0 0 0 5.25 21h6a.75.75 0 0 1 0 1.5h-6a3.75 3.75 0 0 1-3.75-3.75V5.25Zm13.5 3H3v-3A2.25 2.25 0 0 1 5.25 3h7.5A2.25 2.25 0 0 1 15 5.25v3ZM4.5 6A.75.75 0 1 1 6 6a.75.75 0 0 1-1.5 0Zm.75 5.25a.75.75 0 1 0 0 1.5.75.75 0 0 0 0-1.5ZM4.5 18A.75.75 0 1 1 6 18a.75.75 0 0 1-1.5 0Zm7.652-5.28c.24-.443.716-.716 1.248-.72h7.688c.537 0 1.018.274 1.26.72.252.467.2 1.063-.227 1.49l-.002.001-2.619 2.601V19.5a.75.75 0 0 1-.166.47l-1.607 1.996c-.367.464-.94.638-1.458.474a1.29 1.29 0 0 1-.894-1.253v-4.332l-1.333-1.092a.816.816 0 0 1-.037-.032l-1.608-1.505a1.242 1.242 0 0 1-.245-1.506Zm8.554.78h-6.89l1.195 1.118 1.59 1.302a.75.75 0 0 1 .274.58v4.133L18 19.236V16.5c0-.2.08-.391.221-.532l2.485-2.468Z" clip-rule="evenodd"/>
</svg>
