<svg xmlns="http://www.w3.org/2000/svg" width="24" height="24" fill="currentColor" viewBox="0 0 24 24">
  <path fill-rule="evenodd" d="M6 1.5a3.75 3.75 0 0 0-3.75 3.75v13.5A3.75 3.75 0 0 0 6 22.5h3A.75.75 0 0 0 9 21H6a2.25 2.25 0 0 1-2.25-2.25v-3h6a.75.75 0 0 0 0-1.5h-6v-4.5h13.5a.75.75 0 0 0 1.5 0v-4.5A3.75 3.75 0 0 0 15 1.5H6ZM3.75 8.25h13.5v-3A2.25 2.25 0 0 0 15 3H6a2.25 2.25 0 0 0-2.25 2.25v3Zm3-3a.75.75 0 1 0 0 1.5.75.75 0 0 0 0-1.5ZM6 12a.75.75 0 1 1 1.5 0A.75.75 0 0 1 6 12Zm.75 5.25a.75.75 0 1 0 0 1.5.75.75 0 0 0 0-1.5Zm5.25 0a5.25 5.25 0 1 1 5.25 5.25A5.25 5.25 0 0 1 12 17.25Zm5.25-3.75a3.75 3.75 0 1 0-.001 7.499 3.75 3.75 0 0 0 .001-7.499Zm2.114 2.68a.75.75 0 0 0-1.228-.86l-1.487 2.12-.284-.407a.75.75 0 0 0-1.23.858l.897 1.288a.75.75 0 0 0 1.23.002l2.102-3Z" clip-rule="evenodd"/>
</svg>
