<svg xmlns="http://www.w3.org/2000/svg" width="24" height="24" fill="currentColor" viewBox="0 0 24 24">
  <path fill-rule="evenodd" d="M11.25 3.474c0-.076.036-.18.164-.285A.934.934 0 0 1 12 3a.95.95 0 0 1 .592.194c.121.097.158.2.158.28v.276h-1.5v-.276Zm-1.5.276v-.276C9.75 2.244 10.912 1.5 12 1.5c.578 0 1.118.193 1.53.523.43.344.72.859.72 1.451v.276h4.5a.75.75 0 0 1 0 1.5H5.25a.75.75 0 0 1 0-1.5h4.5ZM6 8.487l.649 9.707c.106 1.612 1.436 2.856 3.024 2.856h4.371a3.044 3.044 0 0 0 3.024-2.855l.648-9.722a.203.203 0 0 0-.192-.217H6.2c-.1 0-.208.093-.2.23Zm8.067 14.063H9.673c-2.387 0-4.362-1.864-4.52-4.256l-.65-9.712c-.06-.968.697-1.826 1.697-1.826h11.324c.986 0 1.751.845 1.69 1.813v.002l-.65 9.723c-.157 2.384-2.12 4.244-4.497 4.256ZM9.75 10.5a.75.75 0 0 1 .75.75v6.671a.75.75 0 0 1-1.5 0V11.25a.75.75 0 0 1 .75-.75Zm5.25.75a.75.75 0 0 0-1.5 0v6.671a.75.75 0 0 0 1.5 0V11.25Z" clip-rule="evenodd"/>
</svg>
