<svg xmlns="http://www.w3.org/2000/svg" width="24" height="24" fill="currentColor" viewBox="0 0 24 24">
  <path fill-rule="evenodd" d="M6.75 16.5a1.5 1.5 0 1 0 0 3 1.5 1.5 0 0 0 0-3Zm-3 1.5a3 3 0 1 1 6 0 3 3 0 0 1-6 0Zm13.5-1.5a1.5 1.5 0 1 0 0 3 1.5 1.5 0 0 0 0-3Zm-3 1.5a3 3 0 1 1 6 0 3 3 0 0 1-6 0Z" clip-rule="evenodd"/>
  <path fill-rule="evenodd" d="M8.25 18.75A.75.75 0 0 1 9 18h5.432a.75.75 0 0 1 0 1.5H9a.75.75 0 0 1-.75-.75Zm13.5-7.5a.75.75 0 0 1 .75.75v4.6a.75.75 0 0 1-1.5 0V12a.75.75 0 0 1 .75-.75ZM2.25 3a.75.75 0 0 1 .75.75V16.5a.75.75 0 0 1-1.5 0V3.75A.75.75 0 0 1 2.25 3Z" clip-rule="evenodd"/>
  <path fill-rule="evenodd" d="M1.5 3.75A.75.75 0 0 1 2.25 3h10.5a.75.75 0 0 1 0 1.5H2.25a.75.75 0 0 1-.75-.75ZM12 5.25a.75.75 0 0 1 .75-.75h7.5a.75.75 0 0 1 0 1.5h-7.5a.75.75 0 0 1-.75-.75Z" clip-rule="evenodd"/>
  <path fill-rule="evenodd" d="M12.75 3a.75.75 0 0 1 .75.75v8.28a.75.75 0 0 1-1.5 0V3.75a.75.75 0 0 1 .75-.75ZM1.626 16.084a.75.75 0 0 1 1.04-.208l2.25 1.5a.75.75 0 1 1-.832 1.248l-2.25-1.5a.75.75 0 0 1-.208-1.04ZM18.75 18.75a.75.75 0 0 1 .75-.75h.938a.75.75 0 0 1 0 1.5H19.5a.75.75 0 0 1-.75-.75Zm-3-6.75a.75.75 0 0 1 .75-.75h5.25a.75.75 0 0 1 0 1.5H16.5a.75.75 0 0 1-.75-.75Z" clip-rule="evenodd"/>
  <path fill-rule="evenodd" d="M20.087 4.518a.75.75 0 0 1 .895.57l1.5 6.75a.75.75 0 1 1-1.464.325l-1.5-6.75a.75.75 0 0 1 .57-.895ZM16.5 4.5a.75.75 0 0 1 .75.75V12a.75.75 0 0 1-1.5 0V5.25a.75.75 0 0 1 .75-.75Zm5.25 11.25a.75.75 0 0 1 .75.75c0 .747-.2 1.459-.565 2.005-.36.542-.94.995-1.685.995a.75.75 0 1 1 0-1.5c.085 0 .254-.052.437-.326.178-.268.313-.682.313-1.174a.75.75 0 0 1 .75-.75Z" clip-rule="evenodd"/>
</svg>
