<svg xmlns="http://www.w3.org/2000/svg" width="24" height="24" fill="currentColor" viewBox="0 0 24 24">
  <path fill-rule="evenodd" d="M11.527 1.668a.75.75 0 0 1 1.003.052l1.5 1.5.052.057a.75.75 0 0 1-1.055 1.055l-.057-.052-.22-.22v3.503a4.475 4.475 0 0 1 1.857.769l3.082-3.082h-.44a.75.75 0 0 1 0-1.5h2.25a.75.75 0 0 1 .747.673l.004.077v2.25a.75.75 0 0 1-1.5 0v-.44l-3.084 3.083c.387.543.656 1.175.77 1.86a.79.79 0 0 1 .064-.003h3.44l-.22-.22-.052-.057a.75.75 0 0 1 1.055-1.055l.057.052 1.5 1.5.006.006c.03.03.056.063.08.098l.015.021a.747.747 0 0 1 .023.04l.012.02a.74.74 0 0 1 .057.54.786.786 0 0 1-.092.208.177.177 0 0 1-.017.024 1.074 1.074 0 0 1-.074.09c-.003.005-.006.01-.01.013l-1.5 1.5a.75.75 0 0 1-1.06-1.06l.22-.22H16.5a.666.666 0 0 1-.063-.004 4.473 4.473 0 0 1-.77 1.86l3.083 3.083v-.439a.75.75 0 0 1 1.5 0v2.25l-.004.077a.75.75 0 0 1-.746.673h-2.25a.75.75 0 0 1 0-1.5h.44l-3.084-3.084a4.473 4.473 0 0 1-1.86.77.687.687 0 0 1 .004.064v3.44l.22-.22a.75.75 0 1 1 1.06 1.06l-1.5 1.5a.75.75 0 0 1-1.003.052l-.057-.052-1.5-1.5-.052-.057a.75.75 0 0 1 1.055-1.054l.057.05.22.22V16.5c0-.021.001-.043.003-.064a4.473 4.473 0 0 1-1.86-.77L6.31 18.75h.44a.75.75 0 0 1 0 1.5H4.5a.75.75 0 0 1-.746-.673L3.75 19.5v-2.25a.75.75 0 0 1 1.5 0v.439l3.083-3.083a4.473 4.473 0 0 1-.77-1.856H4.06l.22.22.051.057a.75.75 0 0 1-1.054 1.055l-.057-.052-1.5-1.5a.75.75 0 0 1 0-1.06l1.5-1.5.057-.052a.75.75 0 0 1 1.054 1.055l-.05.057-.22.22h3.503a4.473 4.473 0 0 1 .769-1.857L5.25 6.311v.439a.75.75 0 0 1-1.5 0V4.5l.004-.077A.75.75 0 0 1 4.5 3.75h2.25a.75.75 0 0 1 0 1.5h-.44l3.082 3.082a4.475 4.475 0 0 1 1.858-.769V4.061l-.22.22A.75.75 0 0 1 9.97 3.22l1.5-1.5.057-.052ZM12 9a3 3 0 1 0 0 6 3 3 0 0 0 0-6Z" clip-rule="evenodd"/>
</svg>
