<svg xmlns="http://www.w3.org/2000/svg" width="24" height="24" fill="currentColor" viewBox="0 0 24 24">
  <path d="M15.75 12a1.5 1.5 0 0 1 1.5 1.5V18a1.5 1.5 0 0 1-1.5 1.5h-3V21h1.5a.75.75 0 0 1 0 1.5h-4.5a.75.75 0 0 1 0-1.5h1.5v-1.5h-3l-.153-.008A1.5 1.5 0 0 1 6.75 18v-4.5a1.5 1.5 0 0 1 1.5-1.5h7.5Zm-7.5 6h7.5v-4.5h-7.5V18Zm3.476-16.5c2.925 0 5.472 1.75 6.24 4.247a.72.72 0 0 1 .03.255c1.197.023 2.31.594 3.118 1.425.827.849 1.386 2.02 1.386 3.281 0 2.142-.793 4.176-2.708 4.983a.751.751 0 0 1-.583-1.382C20.325 13.838 21 12.563 21 10.708c0-.817-.366-1.625-.96-2.235-.595-.612-1.368-.973-2.12-.973-.735 0-1.24.206-1.611.463a.75.75 0 0 1-.856-1.233 3.967 3.967 0 0 1 1.085-.53l-.005-.013C15.984 4.405 14.085 3 11.726 3 8.886 3 6.75 5.012 6.75 7.303V7.5c0 .035-.004.07-.009.104l.304.053a.75.75 0 0 1-.26 1.478l-.54-.095a.772.772 0 0 1-.038-.008c-.52-.119-.89-.102-1.219-.003l-.138.047C3.704 9.513 3 10.563 3 11.627c0 1.168.723 2.206 1.794 2.662a.75.75 0 0 1-.588 1.38C2.612 14.99 1.5 13.429 1.5 11.627c0-1.72 1.12-3.306 2.814-3.952h.001c.303-.116.612-.184.935-.211v-.161c0-3.29 2.99-5.803 6.476-5.803Z"/>
</svg>
