<svg xmlns="http://www.w3.org/2000/svg" width="24" height="24" fill="currentColor" viewBox="0 0 24 24">
  <path fill-rule="evenodd" d="M4.176 4.5C3.513 4.5 3 5.024 3 5.64v8.61h18V5.64c0-.616-.513-1.14-1.176-1.14H4.176ZM21 15.75H3v.36c0 .617.513 1.14 1.176 1.14h15.648c.663 0 1.176-.523 1.176-1.14v-.36ZM1.5 15v1.11c0 1.472 1.211 2.64 2.676 2.64h7.074V21H7.5a.75.75 0 0 0 0 1.5h9a.75.75 0 0 0 0-1.5h-3.75v-2.25h7.074c1.465 0 2.676-1.168 2.676-2.64V5.64C22.5 4.167 21.289 3 19.824 3H4.176C2.71 3 1.5 4.168 1.5 5.64V15Zm12.652-7.887a.74.74 0 0 0-.278-1.018.76.76 0 0 0-1.026.292l-3 5.25a.74.74 0 0 0 .278 1.018c.36.2.819.07 1.026-.292l3-5.25Zm-5.433-.199a.75.75 0 0 1 .117 1.055L7.71 9.375l1.126 1.406a.75.75 0 1 1-1.172.938l-1.5-1.875a.75.75 0 0 1 0-.938l1.5-1.875a.75.75 0 0 1 1.055-.117Zm6.563 0a.75.75 0 0 1 1.054.117l1.5 1.875a.75.75 0 0 1 0 .938l-1.5 1.875a.75.75 0 1 1-1.172-.938l1.126-1.406-1.126-1.406a.75.75 0 0 1 .117-1.055Z" clip-rule="evenodd"/>
</svg>
