<svg xmlns="http://www.w3.org/2000/svg" width="24" height="24" fill="currentColor" viewBox="0 0 24 24">
  <path fill-rule="evenodd" d="M8.91 10.459c-.775 0-1.451.66-1.451 1.541 0 .88.676 1.541 1.451 1.541.411 0 .806-.161 1.177-.427a.709.709 0 0 1 .826 1.151c-.529.38-1.208.694-2.003.694-1.61 0-2.869-1.35-2.869-2.959 0-1.61 1.259-2.959 2.869-2.959 1.216 0 2.163.731 2.75 1.343a6.888 6.888 0 0 1 .94 1.236l.014.026.004.008.002.002v.002s-.257-.633-.878-.292c-.62.342-.363.976-.363.976l-.007-.013a4.852 4.852 0 0 0-.178-.28 5.465 5.465 0 0 0-.555-.683c-.494-.513-1.092-.907-1.729-.907Zm2.47 1.883v.002l.002.002.004.008.015.026.05.085a6.88 6.88 0 0 0 .888 1.151c.588.612 1.535 1.343 2.751 1.343 1.61 0 2.869-1.35 2.869-2.959 0-1.61-1.259-2.959-2.869-2.959-.865 0-1.646.513-2.091.958A.709.709 0 0 0 14 11c.305-.305.747-.542 1.089-.542.775 0 1.451.66 1.451 1.541 0 .88-.676 1.541-1.451 1.541-.637 0-1.235-.394-1.729-.907a5.472 5.472 0 0 1-.733-.963l-.007-.013s-.258-.633-.879-.292c-.62.342-.363.976-.363.976Z" clip-rule="evenodd"/>
  <path d="M8.703 22.5c-.245 0-.483-.063-.693-.196l-2.541-1.54c-.637-.385-.861-1.239-.497-1.897l.868-1.582a8.886 8.886 0 0 1-1.281-2.366l-1.687.021c-.756 0-1.372-.63-1.372-1.407V10.46c0-.777.616-1.407 1.372-1.407h1.729a7.853 7.853 0 0 1 1.246-2.324l-.875-1.603c-.364-.658-.14-1.512.497-1.897L8.01 1.696a1.357 1.357 0 0 1 1.89.525l.868 1.575c.714-.168 1.694-.154 2.527-.014l.805-1.568a1.357 1.357 0 0 1 1.89-.525l2.541 1.54c.637.385.861 1.239.497 1.897l-.868 1.582a8.886 8.886 0 0 1 1.281 2.366l1.687-.021c.756 0 1.372.63 1.372 1.407v3.073c0 .777-.616 1.407-1.372 1.407h-1.729a7.767 7.767 0 0 1-1.246 2.324l.875 1.603c.364.658.14 1.512-.497 1.897l-2.541 1.54a1.357 1.357 0 0 1-1.89-.525l-.868-1.575c-.728.161-1.687.154-2.527.007L9.9 21.779a1.357 1.357 0 0 1-.847.672 1.507 1.507 0 0 1-.35.049Zm4.578-3.682c.483 0 .938.273 1.183.714l.868 1.575 2.478-1.547-.875-1.61a1.41 1.41 0 0 1 .119-1.554 7.199 7.199 0 0 0 1.078-1.96 1.367 1.367 0 0 1 1.281-.903h1.729l-.028-3.08H19.42a1.374 1.374 0 0 1-1.281-.903 7.017 7.017 0 0 0-1.078-1.96 1.424 1.424 0 0 1-.119-1.554l.868-1.582-2.534-1.568-.805 1.575c-.28.511-.847.798-1.4.7a6.304 6.304 0 0 0-2.114 0c-.56.098-1.12-.182-1.407-.7l-.868-1.575-2.478 1.547.875 1.61a1.41 1.41 0 0 1-.119 1.554 7.199 7.199 0 0 0-1.078 1.96 1.367 1.367 0 0 1-1.281.903H2.872l.028 3.08h1.694a1.37 1.37 0 0 1 1.281.91 7.017 7.017 0 0 0 1.078 1.96c.343.441.392 1.05.119 1.554l-.868 1.582 2.534 1.568.805-1.575c.28-.511.847-.798 1.407-.7a6.304 6.304 0 0 0 2.114 0 1.14 1.14 0 0 1 .217-.021Z"/>
</svg>
