<svg xmlns="http://www.w3.org/2000/svg" width="24" height="24" fill="currentColor" viewBox="0 0 24 24">
  <path fill-rule="evenodd" d="M8.01 22.304c.21.133.448.196.693.196.119 0 .231-.021.35-.049.364-.098.665-.336.847-.672l.805-1.568c.84.147 1.799.154 2.527-.007l.868 1.575a1.357 1.357 0 0 0 1.89.525l2.541-1.54c.637-.385.861-1.239.497-1.897l-.875-1.603c.539-.7.973-1.484 1.246-2.324h1.729c.756 0 1.372-.63 1.372-1.407V10.46c0-.777-.616-1.407-1.372-1.407l-1.687.021a8.886 8.886 0 0 0-1.281-2.366l.868-1.582c.364-.658.14-1.512-.497-1.897l-2.541-1.54a1.357 1.357 0 0 0-1.89.525l-.805 1.568c-.833-.14-1.813-.154-2.527.014L9.9 2.221a1.357 1.357 0 0 0-1.89-.525L5.469 3.229c-.637.385-.861 1.239-.497 1.897l.875 1.603a7.853 7.853 0 0 0-1.246 2.324H2.872c-.756 0-1.372.63-1.372 1.407v3.073c0 .777.616 1.407 1.372 1.407l1.687-.021a8.886 8.886 0 0 0 1.281 2.366l-.868 1.582c-.364.658-.14 1.512.497 1.897l2.541 1.54Zm6.454-2.772a1.365 1.365 0 0 0-1.183-.714c-.07 0-.147.007-.217.021a6.304 6.304 0 0 1-2.114 0c-.56-.098-1.127.189-1.407.7l-.805 1.575-2.534-1.568.868-1.582a1.424 1.424 0 0 0-.119-1.554 7.017 7.017 0 0 1-1.078-1.96 1.37 1.37 0 0 0-1.281-.91H2.9l-.028-3.08h1.729c.574 0 1.085-.364 1.281-.903a7.199 7.199 0 0 1 1.078-1.96 1.41 1.41 0 0 0 .119-1.554l-.875-1.61 2.478-1.547.868 1.575c.287.518.847.798 1.407.7a6.304 6.304 0 0 1 2.114 0c.553.098 1.12-.189 1.4-.7l.805-1.575 2.534 1.568-.868 1.582a1.424 1.424 0 0 0 .119 1.554 7.017 7.017 0 0 1 1.078 1.96c.196.539.714.903 1.281.903h1.694l.028 3.08h-1.729c-.574 0-1.085.364-1.281.903a7.199 7.199 0 0 1-1.078 1.96 1.41 1.41 0 0 0-.119 1.554l.875 1.61-2.478 1.547-.868-1.575ZM7.459 12c0-.88.676-1.541 1.451-1.541.637 0 1.235.394 1.729.907a5.48 5.48 0 0 1 .733.963l.007.013.001.002.002.002.004.008.015.026.05.085a6.89 6.89 0 0 0 .888 1.151c.588.612 1.535 1.343 2.751 1.343 1.61 0 2.869-1.35 2.869-2.959 0-1.61-1.259-2.959-2.869-2.959-.865 0-1.646.513-2.091.958A.709.709 0 0 0 14 11c.305-.305.747-.542 1.089-.542.775 0 1.451.66 1.451 1.541 0 .88-.676 1.541-1.451 1.541-.637 0-1.235-.394-1.729-.907a5.463 5.463 0 0 1-.733-.963l-.007-.013-.001-.002-.002-.002-.004-.008-.014-.026a3.977 3.977 0 0 0-.051-.085l-.016-.027a6.89 6.89 0 0 0-.872-1.125c-.588-.61-1.535-1.342-2.751-1.342-1.61 0-2.869 1.35-2.869 2.959 0 1.61 1.259 2.959 2.869 2.959.795 0 1.474-.314 2.003-.694a.709.709 0 1 0-.826-1.151c-.37.266-.766.427-1.177.427-.775 0-1.451-.66-1.451-1.541Z" clip-rule="evenodd"/>
</svg>
