<svg xmlns="http://www.w3.org/2000/svg" width="24" height="24" fill="currentColor" viewBox="0 0 24 24">
  <path fill-rule="evenodd" d="M12 6.75a.75.75 0 1 0 0 1.5.75.75 0 0 0 0-1.5Zm-2.25.75a2.25 2.25 0 1 1 4.5 0 2.25 2.25 0 0 1-4.5 0Z" clip-rule="evenodd"/>
  <path fill-rule="evenodd" d="m10.89 8.89-2.666 1.626-.78-1.28 2.665-1.626.781 1.28Zm2.22.105 2.666 1.626.78-1.28-2.665-1.626-.781 1.28Z" clip-rule="evenodd"/>
  <path fill-rule="evenodd" d="M17.25 9.75a.75.75 0 1 0 0 1.5.75.75 0 0 0 0-1.5ZM15 10.5a2.25 2.25 0 1 1 4.5 0 2.25 2.25 0 0 1-4.5 0Zm-8.25-.75a.75.75 0 1 0 0 1.5.75.75 0 0 0 0-1.5Zm-2.25.75a2.25 2.25 0 1 1 4.5 0 2.25 2.25 0 0 1-4.5 0Z" clip-rule="evenodd"/>
  <path fill-rule="evenodd" d="M4.176 4.5C3.513 4.5 3 5.024 3 5.64v10.47c0 .617.513 1.14 1.176 1.14h15.648c.663 0 1.176-.523 1.176-1.14V5.64c0-.616-.513-1.14-1.176-1.14H4.176ZM1.5 5.64C1.5 4.167 2.711 3 4.176 3h15.648C21.29 3 22.5 4.168 22.5 5.64v10.47c0 1.472-1.211 2.64-2.676 2.64H4.176c-1.465 0-2.676-1.168-2.676-2.64V5.64Z" clip-rule="evenodd"/>
  <path fill-rule="evenodd" d="M12 17.282a.75.75 0 0 1 .75.75v3.255a.75.75 0 0 1-1.5 0v-3.255a.75.75 0 0 1 .75-.75Z" clip-rule="evenodd"/>
  <path fill-rule="evenodd" d="M6.75 21.75A.75.75 0 0 1 7.5 21h9a.75.75 0 0 1 0 1.5h-9a.75.75 0 0 1-.75-.75ZM1.5 15a.75.75 0 0 1 .75-.75h19.003a.75.75 0 0 1 0 1.5H2.25A.75.75 0 0 1 1.5 15Z" clip-rule="evenodd"/>
</svg>
