<svg xmlns="http://www.w3.org/2000/svg" width="24" height="24" fill="currentColor" viewBox="0 0 24 24">
  <path fill-rule="evenodd" d="M4.176 4.5C3.513 4.5 3 5.024 3 5.64v8.61h18V5.64c0-.616-.513-1.14-1.176-1.14H4.176ZM21 15.75H3v.36c0 .617.513 1.14 1.176 1.14h15.648c.663 0 1.176-.523 1.176-1.14v-.36ZM1.5 15v1.11c0 1.472 1.211 2.64 2.676 2.64h7.074V21H7.5a.75.75 0 0 0 0 1.5h9a.75.75 0 0 0 0-1.5h-3.75v-2.25h7.074c1.465 0 2.676-1.168 2.676-2.64V5.64C22.5 4.167 21.289 3 19.824 3H4.176C2.71 3 1.5 4.168 1.5 5.64V15ZM12 6.75a.75.75 0 1 0 0 1.5.75.75 0 0 0 0-1.5Zm-2.25.75a2.25 2.25 0 1 1 4.463.41l1.52.928a2.25 2.25 0 1 1-.708 1.325l-1.563-.953A2.24 2.24 0 0 1 12 9.75a2.24 2.24 0 0 1-1.532-.602l-1.51.92a2.25 2.25 0 1 1-.762-1.292l1.576-.96A2.27 2.27 0 0 1 9.75 7.5Zm7.5 2.25a.75.75 0 1 0 0 1.5.75.75 0 0 0 0-1.5ZM6 10.5a.75.75 0 1 1 1.5 0 .75.75 0 0 1-1.5 0Z" clip-rule="evenodd"/>
</svg>
