<svg xmlns="http://www.w3.org/2000/svg" width="24" height="24" fill="currentColor" viewBox="0 0 24 24">
  <path fill-rule="evenodd" d="M2.95 12a9.05 9.05 0 1 1 18.1 0 9.05 9.05 0 0 1-18.1 0ZM12 1.45C6.173 1.45 1.45 6.173 1.45 12c0 5.827 4.723 10.55 10.55 10.55 5.827 0 10.55-4.723 10.55-10.55 0-5.827-4.723-10.55-10.55-10.55ZM7.5 8.625a1.125 1.125 0 1 1 2.25 0 1.125 1.125 0 0 1-2.25 0ZM8.625 6a2.625 2.625 0 1 0 0 5.25 2.625 2.625 0 0 0 0-5.25Zm6.75 8.25a1.125 1.125 0 1 0 0 2.25 1.125 1.125 0 0 0 0-2.25Zm-2.625 1.125a2.625 2.625 0 1 1 5.25 0 2.625 2.625 0 0 1-5.25 0Zm4.28-7.345a.75.75 0 1 0-1.06-1.06l-9 9a.75.75 0 1 0 1.06 1.06l9-9Z" clip-rule="evenodd"/>
</svg>
