<svg xmlns="http://www.w3.org/2000/svg" width="24" height="24" fill="currentColor" viewBox="0 0 24 24">
  <path fill-rule="evenodd" d="M12 2.95a9.05 9.05 0 1 0 0 18.1 9.05 9.05 0 0 0 0-18.1ZM1.45 12C1.45 6.173 6.173 1.45 12 1.45c5.827 0 10.55 4.723 10.55 10.55 0 5.827-4.723 10.55-10.55 10.55-5.827 0-10.55-4.723-10.55-10.55Z" clip-rule="evenodd"/>
  <path fill-rule="evenodd" d="M8.625 7.5a1.125 1.125 0 1 0 0 2.25 1.125 1.125 0 0 0 0-2.25ZM6 8.625a2.625 2.625 0 1 1 5.25 0 2.625 2.625 0 0 1-5.25 0Zm9.375 5.625a1.125 1.125 0 1 0 0 2.25 1.125 1.125 0 0 0 0-2.25Zm-2.625 1.125a2.625 2.625 0 1 1 5.25 0 2.625 2.625 0 0 1-5.25 0Zm4.28-8.405a.75.75 0 0 1 0 1.06l-9 9a.75.75 0 0 1-1.06-1.06l9-9a.75.75 0 0 1 1.06 0Z" clip-rule="evenodd"/>
</svg>
