<svg xmlns="http://www.w3.org/2000/svg" width="24" height="24" fill="currentColor" viewBox="0 0 24 24">
  <path fill-rule="evenodd" d="M3.752 1.313c-1.342 0-2.44 1.075-2.44 2.416v14.083a.562.562 0 1 0 1.125 0V3.73c0-.707.582-1.292 1.315-1.292h7.31v3.64c0 .855.663 1.61 1.55 1.61h2.95v2.649a.562.562 0 1 0 1.126 0V6.82a.562.562 0 0 0-.147-.378l-4.498-4.944a.561.561 0 0 0-.418-.185H3.752Zm8.436 2.016v2.747c0 .3.223.487.423.487h2.519l-2.943-3.234Zm-7.876 9.796c0-.725.588-1.313 1.313-1.313h15.75c.725 0 1.313.588 1.313 1.313v8.25c0 .725-.588 1.313-1.313 1.313H5.625a1.312 1.312 0 0 1-1.313-1.313v-8.25Zm1.313-.188a.187.187 0 0 0-.188.188v8.25c0 .104.084.188.188.188h15.75a.188.188 0 0 0 .188-.188v-8.25a.188.188 0 0 0-.188-.188H5.625Zm1.125 1.44c.278-.037.593-.052.923-.052l-.008.008c.953 0 1.68.247 2.175.727.495.48.742 1.155.742 2.13 0 .975-.255 1.725-.742 2.228-.487.51-1.222.765-2.175.765-.33 0-.637-.015-.922-.053a.75.75 0 0 1-.48-.247.775.775 0 0 1-.195-.51v-4.245c0-.18.06-.345.172-.48l.015-.015a.777.777 0 0 1 .495-.255Zm.93 4.733c.615 0 1.065-.15 1.335-.435.278-.292.42-.787.42-1.492 0-.63-.142-1.088-.42-1.365-.27-.285-.72-.428-1.335-.428-.15 0-.285.008-.412.023v3.675c.127.022.262.022.412.022Zm5.97-4.785c-.81 0-1.463.27-1.935.795-.457.51-.697 1.23-.697 2.13 0 .9.232 1.62.69 2.138.472.517 1.124.787 1.934.787.81 0 1.456-.262 1.928-.787.465-.518.705-1.238.705-2.138 0-.9-.24-1.62-.697-2.13-.473-.525-1.118-.795-1.928-.795Zm1.425 2.925c0 .638-.127 1.11-.382 1.425-.233.293-.578.435-1.043.435-.465 0-.81-.142-1.05-.435-.248-.307-.375-.787-.375-1.417s.127-1.11.375-1.418c.24-.292.585-.435 1.058-.435.472 0 .81.143 1.042.435.255.308.383.788.383 1.425l-.008-.015Zm5.37 1.725a.45.45 0 0 1 .27.09h.023a.44.44 0 0 1 .21.383.647.647 0 0 1-.48.607 4.91 4.91 0 0 1-1.11.12c-.796 0-1.44-.262-1.92-.78-.48-.517-.72-1.245-.72-2.145 0-.9.224-1.612.682-2.13.465-.525 1.117-.795 1.928-.795.397 0 .765.038 1.087.113a.62.62 0 0 1 .345.232c.09.105.135.24.135.383 0 .157-.075.3-.21.39a.488.488 0 0 1-.42.06 3.208 3.208 0 0 0-.885-.113c-.465 0-.817.15-1.072.458-.27.315-.405.795-.405 1.395s.135 1.072.412 1.395c.27.315.622.465 1.08.465.315 0 .608-.03.87-.113h.052l.128-.037v.022Z" clip-rule="evenodd"/>
</svg>
