<svg xmlns="http://www.w3.org/2000/svg" width="24" height="24" fill="currentColor" viewBox="0 0 24 24">
  <path fill-rule="evenodd" d="M5.101 1.5C3.542 1.5 2.25 2.739 2.25 4.304v15.392c0 1.565 1.292 2.804 2.851 2.804H12a.75.75 0 0 0 0-1.5H5.101c-.763 0-1.351-.6-1.351-1.304V4.304C3.75 3.599 4.338 3 5.101 3h7.649v3.451a1.8 1.8 0 0 0 1.799 1.799H18v1.125a.75.75 0 0 0 1.5 0V7.381l-.017-.04a.746.746 0 0 0-.106-.253l-.103-.244-5.249-5.13A.748.748 0 0 0 13.5 1.5H5.101Zm9.149 2.532v2.42a.3.3 0 0 0 .299.298h2.483L14.25 4.032Z" clip-rule="evenodd"/>
  <path fill-rule="evenodd" d="M18 13.5c-.769 0-1.5.701-1.5 1.693v.557a.8.8 0 0 1 0 .038c1.436-.075 3.054-.039 4.322.108l.015.002c.547.075.913.544.913 1.057v4.34a1.066 1.066 0 0 1-.928 1.059c-1.672.195-3.965.195-5.644 0l-.015-.002a1.06 1.06 0 0 1-.913-1.057v-4.34c0-.48.32-.9.771-1.027A.75.75 0 0 1 15 15.75v-.557C15 13.49 16.29 12 18 12c.848 0 1.6.371 2.14.957l.004.004a3.3 3.3 0 0 1 .628 1.016.75.75 0 1 1-1.397.546 1.802 1.802 0 0 0-.34-.552A1.397 1.397 0 0 0 18 13.5Zm-2.25 7.405v-3.56a26.748 26.748 0 0 1 4.5 0v3.56a26.748 26.748 0 0 1-4.5 0Z" clip-rule="evenodd"/>
</svg>
