<svg xmlns="http://www.w3.org/2000/svg" width="24" height="24" fill="currentColor" viewBox="0 0 24 24">
  <path fill-rule="evenodd" d="M3 4.304C3 2.739 4.292 1.5 5.851 1.5h8.399l.524.214 5.25 5.13.226.537v3.869a.75.75 0 0 1-1.5 0V7.697L13.944 3H5.851C5.088 3 4.5 3.6 4.5 4.304v15.392c0 .705.588 1.304 1.351 1.304h6.899a.75.75 0 0 1 0 1.5H5.851C4.292 22.5 3 21.261 3 19.696V4.304Z" clip-rule="evenodd"/>
  <path fill-rule="evenodd" d="M14.25 1.5a.75.75 0 0 1 .75.75v4.201a.3.3 0 0 0 .299.299H19.5a.75.75 0 0 1 0 1.5h-4.201A1.8 1.8 0 0 1 13.5 6.451V2.25a.75.75 0 0 1 .75-.75Zm3.75 12a.75.75 0 0 1 .75.75v7.5a.75.75 0 0 1-1.5 0v-7.5a.75.75 0 0 1 .75-.75Z" clip-rule="evenodd"/>
  <path fill-rule="evenodd" d="M22.5 18a.75.75 0 0 1-.75.75h-7.5a.75.75 0 0 1 0-1.5h7.5a.75.75 0 0 1 .75.75Z" clip-rule="evenodd"/>
</svg>
