<svg xmlns="http://www.w3.org/2000/svg" width="24" height="24" fill="currentColor" viewBox="0 0 24 24">
  <path fill-rule="evenodd" d="M2.25 4.304C2.25 2.739 3.542 1.5 5.101 1.5H13.5a.75.75 0 0 1 .525.214l5.25 5.13.102.244c.05.075.086.16.106.252l.017.04v2.37a.75.75 0 0 1-1.5 0v-1.5h-3.451a1.8 1.8 0 0 1-1.799-1.799V3H5.101c-.763 0-1.351.6-1.351 1.304v15.392c0 .705.588 1.304 1.351 1.304H9.75a.75.75 0 0 1 0 1.5H5.101c-1.559 0-2.851-1.239-2.851-2.804V4.304Zm12 2.147v-2.42l2.782 2.719h-2.483a.3.3 0 0 1-.299-.299Zm3 5.549A5.25 5.25 0 0 0 12 17.25a5.25 5.25 0 1 0 10.5 0A5.25 5.25 0 0 0 17.25 12Zm-3.75 5.25a3.75 3.75 0 1 1 7.499-.001 3.75 3.75 0 0 1-7.499.001Zm3.22 2.78-1.5-1.5a.75.75 0 1 1 1.06-1.06l.22.22V15a.75.75 0 0 1 1.5 0v2.69l.22-.22a.75.75 0 1 1 1.06 1.06l-1.5 1.5a.747.747 0 0 1-1.06 0Z" clip-rule="evenodd"/>
</svg>
