<svg xmlns="http://www.w3.org/2000/svg" width="24" height="24" fill="currentColor" viewBox="0 0 24 24">
  <path d="M4.5 15.75a.75.75 0 0 1 0 1.5h-.75A.75.75 0 0 0 3 18v2.25c0 .414.336.75.75.75h16.5a.75.75 0 0 0 .75-.75V18a.75.75 0 0 0-.75-.75h-.75a.75.75 0 0 1 0-1.5h.75A2.25 2.25 0 0 1 22.5 18v2.25a2.25 2.25 0 0 1-2.25 2.25H3.75a2.25 2.25 0 0 1-2.25-2.25V18a2.25 2.25 0 0 1 2.25-2.25h.75Zm.75 2.625a.75.75 0 1 1 0 1.5.75.75 0 0 1 0-1.5Zm9.049-16.637 3.5 3.75L18 6v9c0 1.194-.915 2.251-2.151 2.251H8.15C6.915 17.25 6 16.193 6 14.999V3.751C6 2.557 6.915 1.5 8.151 1.5h5.599l.549.238ZM8.15 3c-.312 0-.651.287-.651.751v11.248c0 .464.34.751.651.751h7.698c.312 0 .651-.287.651-.751V8.25h-2.4c-.495 0-.851-.302-1.048-.598a1.905 1.905 0 0 1-.302-1.05V3H8.151Zm6.099 3.602c0 .061.01.11.02.148h2.23v-.455l-2.25-2.41v2.717Z"/>
</svg>
