<svg xmlns="http://www.w3.org/2000/svg" width="24" height="24" fill="currentColor" viewBox="0 0 24 24">
  <path fill-rule="evenodd" d="M6.75 10.5a.75.75 0 0 1 .75-.75h9a.75.75 0 0 1 0 1.5h-9a.75.75 0 0 1-.75-.75Zm0 3a.75.75 0 0 1 .75-.75h9a.75.75 0 0 1 0 1.5h-9a.75.75 0 0 1-.75-.75Zm0 3a.75.75 0 0 1 .75-.75h6a.75.75 0 0 1 0 1.5h-6a.75.75 0 0 1-.75-.75Z" clip-rule="evenodd"/>
  <path fill-rule="evenodd" d="M3.75 4.304C3.75 2.739 5.042 1.5 6.601 1.5H15l.53.22 5.25 5.25.22.53v12.196c0 1.565-1.292 2.804-2.851 2.804H6.6c-1.559 0-2.851-1.239-2.851-2.804V4.304ZM6.601 3c-.763 0-1.351.6-1.351 1.304v15.392c0 .705.588 1.304 1.351 1.304H18.15c.763 0 1.351-.6 1.351-1.304V7.811L14.69 3H6.6Z" clip-rule="evenodd"/>
  <path fill-rule="evenodd" d="M15 1.5a.75.75 0 0 1 .75.75v4.201a.3.3 0 0 0 .299.299h4.201a.75.75 0 0 1 0 1.5h-4.201a1.8 1.8 0 0 1-1.799-1.799V2.25A.75.75 0 0 1 15 1.5Z" clip-rule="evenodd"/>
</svg>
