<svg xmlns="http://www.w3.org/2000/svg" width="24" height="24" fill="currentColor" viewBox="0 0 24 24">
  <path fill-rule="evenodd" d="M3.752 1.313c-1.342 0-2.44 1.075-2.44 2.416v14.083a.562.562 0 1 0 1.125 0V3.73c0-.707.582-1.292 1.315-1.292h7.31v3.64c0 .855.663 1.61 1.55 1.61h2.95v1.899a.562.562 0 1 0 1.126 0V6.82a.562.562 0 0 0-.147-.378l-4.498-4.944a.561.561 0 0 0-.418-.185H3.752Zm8.436 2.016v2.747c0 .3.223.487.423.487h2.519l-2.943-3.234Zm-8.626 9.796c0-.725.588-1.313 1.313-1.313h16.5c.725 0 1.313.588 1.313 1.313v8.25c0 .725-.588 1.313-1.313 1.313h-16.5a1.312 1.312 0 0 1-1.313-1.313v-8.25Zm1.313-.188a.187.187 0 0 0-.188.188v8.25c0 .104.084.188.188.188h16.5a.187.187 0 0 0 .188-.188v-8.25a.187.187 0 0 0-.188-.188h-16.5Zm2.76 1.392c.787 0 1.402.157 1.83.465v-.015c.465.33.697.802.697 1.41 0 .652-.232 1.147-.69 1.492-.435.323-1.05.488-1.837.488-.225 0-.458-.008-.69-.023v1.44a.556.556 0 0 1-.195.42.62.62 0 0 1-.428.165.647.647 0 0 1-.435-.157.56.56 0 0 1-.187-.42v-4.455c0-.195.075-.368.217-.51a.835.835 0 0 1 .503-.24c.427-.038.832-.06 1.215-.06Zm-.045 2.797c.457 0 .81-.082 1.035-.255l.007.008c.203-.143.3-.338.3-.623s-.097-.48-.292-.615c-.225-.165-.578-.247-1.05-.247-.21 0-.428.007-.638.03v1.68c.195.015.405.022.638.022Zm12.78-2.621a.57.57 0 0 0-.39-.143h-3.585a.593.593 0 0 0-.39.143.51.51 0 0 0-.18.397c0 .158.06.293.18.398a.56.56 0 0 0 .39.15h1.17v4.11c0 .158.06.3.188.42.12.105.27.157.434.157a.62.62 0 0 0 .428-.165.556.556 0 0 0 .195-.42v-4.11h1.17a.56.56 0 0 0 .39-.15.51.51 0 0 0 .18-.397.535.535 0 0 0-.18-.397v.007Zm-7.545-.176c.788 0 1.402.157 1.83.465v-.015c.465.33.697.802.697 1.41 0 .652-.232 1.147-.69 1.492-.435.323-1.05.488-1.837.488-.225 0-.457-.008-.69-.023v1.44a.556.556 0 0 1-.195.42.62.62 0 0 1-.428.165.647.647 0 0 1-.434-.157.56.56 0 0 1-.188-.42v-4.455c0-.195.075-.368.217-.51a.816.816 0 0 1 .503-.24c.428-.038.833-.06 1.215-.06Zm.994 2.555-.004-.005c-.225.165-.57.247-1.035.247-.232 0-.45-.007-.637-.022v-1.68c.21-.023.427-.03.637-.03.473 0 .825.082 1.05.247.195.135.285.33.285.615 0 .284-.096.478-.296.628Z" clip-rule="evenodd"/>
</svg>
