<svg xmlns="http://www.w3.org/2000/svg" width="24" height="24" fill="currentColor" viewBox="0 0 24 24">
  <g clip-path="url(#a)">
    <path d="M21 .75A2.25 2.25 0 0 1 23.25 3v18A2.25 2.25 0 0 1 21 23.25H3A2.25 2.25 0 0 1 .75 21V3A2.25 2.25 0 0 1 3 .75h18ZM3 2.25a.75.75 0 0 0-.75.75v18c0 .414.336.75.75.75h18a.75.75 0 0 0 .75-.75V3a.75.75 0 0 0-.75-.75H3Zm1.5 6.938a2.813 2.813 0 0 1 0 5.624h-.417a.896.896 0 0 1-.896-.895v-3.834c0-.494.402-.895.896-.896H4.5Zm5.25 0c.66 0 1.19.402 1.528.91.341.511.534 1.185.534 1.902 0 .717-.193 1.392-.534 1.903-.338.508-.867.91-1.528.91-.66 0-1.19-.402-1.528-.91-.341-.511-.534-1.186-.534-1.903 0-.717.193-1.39.534-1.902.338-.508.867-.91 1.528-.91Zm4.757 0c.603 0 1.174.278 1.602.773l.084.101.034.047a.563.563 0 0 1-.882.69l-.038-.043-.096-.111c-.227-.238-.48-.332-.704-.332-.256 0-.55.123-.799.443-.527.675-.527 1.813 0 2.488.25.32.543.443.799.444.256 0 .55-.124.8-.444a.563.563 0 0 1 .886.694c-.436.558-1.043.874-1.686.874s-1.248-.316-1.685-.874c-.845-1.083-.845-2.793 0-3.876.437-.558 1.042-.874 1.685-.874Zm5.275.25a.563.563 0 1 1 .936.624L19.426 12l1.292 1.938.03.05a.562.562 0 0 1-.932.62l-.034-.046-1.032-1.548-1.032 1.549a.562.562 0 0 1-.936-.625L18.074 12l-1.292-1.938-.03-.05a.563.563 0 0 1 .932-.62l.034.046 1.032 1.547 1.032-1.547Zm-15.47 4.25H4.5a1.687 1.687 0 1 0 0-3.376h-.188v3.376Zm5.438-3.376c-.168 0-.388.103-.593.41-.201.302-.345.753-.345 1.278 0 .526.143.977.345 1.28.205.306.425.408.593.408.168 0 .388-.102.593-.409.201-.302.345-.753.345-1.279 0-.525-.144-.976-.345-1.278-.205-.307-.425-.41-.593-.41Z"/>
  </g>
  <defs>
    <clipPath id="a">
      <path d="M0 0h24v24H0z"/>
    </clipPath>
  </defs>
</svg>
