<svg xmlns="http://www.w3.org/2000/svg" width="24" height="24" fill="currentColor" viewBox="0 0 24 24">
  <g clip-path="url(#a)">
    <path d="M21 .75A2.25 2.25 0 0 1 23.25 3v18A2.25 2.25 0 0 1 21 23.25H3A2.25 2.25 0 0 1 .75 21V3A2.25 2.25 0 0 1 3 .75h18ZM3 2.25a.75.75 0 0 0-.75.75v18c0 .414.336.75.75.75h18a.75.75 0 0 0 .75-.75V3a.75.75 0 0 0-.75-.75H3Zm2.482 6.948a2.04 2.04 0 0 1-.209 4.068h-.96V15a.562.562 0 1 1-1.125 0v-4.704c0-.612.496-1.108 1.108-1.108h.977l.21.01Zm4.5 0a2.04 2.04 0 0 1-.209 4.068h-.96V15a.562.562 0 1 1-1.126 0v-4.704c0-.612.497-1.108 1.109-1.108h.977l.21.01Zm5.768-.01a.562.562 0 1 1 0 1.124h-.938V15a.562.562 0 1 1-1.124 0v-4.688h-.938a.562.562 0 1 1 0-1.124h3Zm1.22.074a.563.563 0 0 1 .737.16l.031.049 1.012 1.77 1.012-1.77a.563.563 0 0 1 .976.558l-1.34 2.346 1.34 2.346.026.052a.562.562 0 0 1-.971.554l-.031-.048-1.012-1.77-1.012 1.77a.563.563 0 0 1-.976-.558l1.34-2.346-1.34-2.346-.027-.051a.563.563 0 0 1 .236-.716ZM4.314 12.14h.96a.914.914 0 0 0 .094-1.824l-.094-.005h-.96v1.829Zm4.5 0h.96a.914.914 0 0 0 .094-1.824l-.094-.005h-.96v1.829Z"/>
  </g>
  <defs>
    <clipPath id="a">
      <path d="M0 0h24v24H0z"/>
    </clipPath>
  </defs>
</svg>
