<svg xmlns="http://www.w3.org/2000/svg" width="24" height="24" fill="currentColor" viewBox="0 0 24 24">
  <path fill-rule="evenodd" d="M3.752 1.313c-1.342 0-2.44 1.075-2.44 2.416v14.083a.562.562 0 1 0 1.125 0V3.73c0-.707.582-1.292 1.315-1.292h7.31v3.64c0 .855.663 1.61 1.55 1.61h2.95v2.649a.562.562 0 1 0 1.126 0V6.82a.562.562 0 0 0-.147-.378l-4.498-4.944a.561.561 0 0 0-.418-.185H3.752Zm8.436 2.016v2.747c0 .3.223.487.423.487h2.519l-2.943-3.234Zm-7.876 9.796c0-.725.588-1.313 1.313-1.313h15.75c.725 0 1.313.588 1.313 1.313v8.25c0 .725-.588 1.313-1.313 1.313H5.625a1.312 1.312 0 0 1-1.313-1.313v-8.25Zm1.313-.188a.187.187 0 0 0-.188.188v8.25c0 .104.084.188.188.188h15.75a.187.187 0 0 0 .188-.188v-8.25a.187.187 0 0 0-.188-.188H5.625Zm2.962 1.388c.713 0 1.275.158 1.665.473v.014c.413.323.623.788.623 1.38 0 .63-.21 1.125-.623 1.463-.397.322-.96.487-1.672.487-.188 0-.383 0-.585-.014v1.41c0 .15-.06.292-.173.404a.549.549 0 0 1-.412.173.556.556 0 0 1-.42-.18h-.008a.586.586 0 0 1-.157-.405v-4.395a.71.71 0 0 1 .195-.495.724.724 0 0 1 .472-.255c.39-.037.75-.06 1.095-.06Zm.848 2.52c.187-.142.27-.337.27-.622h-.008c0-.278-.082-.473-.255-.608-.195-.158-.495-.232-.907-.232-.18 0-.36.007-.54.03v1.642c.165.015.345.023.54.023.405 0 .705-.075.9-.233Zm10.065-.247h-1.747v-1.133h1.875a.54.54 0 0 0 .54-.54c0-.143-.06-.27-.165-.375a.566.566 0 0 0-.383-.158h-2.34a.685.685 0 0 0-.495.203.664.664 0 0 0-.21.495v4.433c0 .15.053.292.158.404h.007c.113.12.255.18.42.18.165 0 .308-.06.413-.172a.569.569 0 0 0 .172-.405v-1.875h1.747a.533.533 0 0 0 .383-.158.515.515 0 0 0 .142-.367.48.48 0 0 0-.15-.36.515.515 0 0 0-.382-.165l.015-.008Zm-7.342-2.22c.277-.038.585-.053.907-.053h-.008c.93 0 1.65.248 2.13.728s.728 1.154.728 2.13c0 .974-.24 1.724-.72 2.227-.488.51-1.2.765-2.138.765-.33 0-.63-.015-.907-.053a.732.732 0 0 1-.473-.247.735.735 0 0 1-.187-.503v-4.245c0-.187.06-.36.18-.495a.759.759 0 0 1 .488-.255Zm2.212 4.297c.27-.285.405-.788.405-1.492l.008-.008c0-.63-.143-1.088-.413-1.365-.27-.277-.705-.42-1.305-.42a3.25 3.25 0 0 0-.397.022v3.668c.12.023.255.023.397.023.607 0 1.043-.143 1.305-.428Z" clip-rule="evenodd"/>
</svg>
