<svg xmlns="http://www.w3.org/2000/svg" width="24" height="24" fill="currentColor" viewBox="0 0 24 24">
  <path fill-rule="evenodd" d="M1.688 4.104c0-1.341 1.097-2.417 2.439-2.417H12c.166 0 .315.072.418.186l4.498 4.944a.562.562 0 0 1 .146.378V9.96a.562.562 0 1 1-1.125 0V8.063h-2.95c-.887 0-1.55-.755-1.55-1.61v-3.64h-7.31c-.733 0-1.314.585-1.314 1.292v14.083a.562.562 0 1 1-1.126 0V4.104Zm10.874-.4v2.747c0 .3.224.487.424.487h2.519l-2.943-3.234ZM5.25 12.187c-.725 0-1.313.588-1.313 1.313v8.25c0 .725.588 1.313 1.313 1.313h16.5c.725 0 1.313-.588 1.313-1.313V13.5c0-.725-.588-1.313-1.313-1.313H5.25ZM5.062 13.5c0-.104.084-.188.188-.188h16.5c.104 0 .188.084.188.188v8.25a.187.187 0 0 1-.188.188H5.25a.187.187 0 0 1-.188-.188V13.5Zm10.27 3.51a.887.887 0 0 1-.412-.27.432.432 0 0 1-.112-.307c0-.166.045-.233.097-.278.075-.06.188-.105.368-.105.27 0 .54.06.81.188a.44.44 0 0 0 .397-.023h.008l.007-.008a.427.427 0 0 0 .195-.367.647.647 0 0 0-.105-.352.58.58 0 0 0-.285-.233c-.33-.12-.69-.18-1.065-.18-.42 0-.795.105-1.072.36-.285.255-.413.607-.413 1.005 0 .375.128.705.375.975.24.27.593.473 1.013.623.277.097.442.202.525.3.075.082.12.187.12.337 0 .21-.06.315-.128.375-.075.067-.217.127-.487.127s-.503-.067-.713-.194l-.007-.008a.428.428 0 0 0-.638.375.7.7 0 0 0 .09.36.63.63 0 0 0 .278.247c.307.143.652.218 1.02.218.48 0 .892-.113 1.192-.383.308-.277.435-.667.435-1.117 0-.39-.112-.742-.367-1.02-.24-.27-.63-.48-1.125-.645Zm5.146 2.407-1.043-1.83 1.013-1.777a.458.458 0 0 0 .06-.225.43.43 0 0 0-.06-.218v-.015a.519.519 0 0 0-.15-.165.46.46 0 0 0-.233-.067.709.709 0 0 0-.645.39l-.607 1.125-.6-1.11a.677.677 0 0 0-.278-.285.772.772 0 0 0-.382-.105.396.396 0 0 0-.233.067.4.4 0 0 0-.157.18.454.454 0 0 0 0 .428l1.012 1.8-1.042 1.837v.008h-.008a.449.449 0 0 0 0 .435v.015a.448.448 0 0 0 .39.225c.135 0 .27-.03.39-.105a.777.777 0 0 0 .27-.293l.623-1.162.622 1.155a.697.697 0 0 0 .278.292.78.78 0 0 0 .382.113.462.462 0 0 0 .398-.225.424.424 0 0 0 .06-.24.525.525 0 0 0-.06-.248Zm-9.015-.315H13c.135 0 .27.068.36.165a.48.48 0 0 1 .143.353.513.513 0 0 1-.143.352.476.476 0 0 1-.352.15H11.02a.624.624 0 0 1-.45-.195.669.669 0 0 1-.18-.45V15.69a.56.56 0 0 1 .15-.383.526.526 0 0 1 .39-.172c.15 0 .278.067.375.165v.007l.008.008a.54.54 0 0 1 .15.367v3.42Zm-1.598.315-1.042-1.83 1.02-1.777a.458.458 0 0 0 .06-.225.43.43 0 0 0-.06-.218v-.015a.519.519 0 0 0-.15-.165.46.46 0 0 0-.233-.067.709.709 0 0 0-.645.39l-.607 1.117-.6-1.11a.677.677 0 0 0-.278-.285.772.772 0 0 0-.382-.105.396.396 0 0 0-.233.068.4.4 0 0 0-.157.18c-.075.142-.098.315-.03.45l1.012 1.777-1.035 1.823v.007h-.007a.449.449 0 0 0 0 .435.46.46 0 0 0 .39.24c.135 0 .27-.03.39-.105a.777.777 0 0 0 .27-.292l.622-1.163.623 1.155c.067.12.157.218.277.293a.78.78 0 0 0 .383.112.462.462 0 0 0 .397-.225.424.424 0 0 0 .06-.24.433.433 0 0 0-.045-.225Zm-1.282-1.83-.083.045.075-.045h.008Zm.487-1.927-.135-.083.143.083H9.07Z" clip-rule="evenodd"/>
</svg>
