<svg xmlns="http://www.w3.org/2000/svg" width="24" height="24" fill="currentColor" viewBox="0 0 24 24">
  <path d="M6.75 10.5a.75.75 0 0 1 .75-.75h9a.75.75 0 0 1 0 1.5h-9a.75.75 0 0 1-.75-.75Zm0 3a.75.75 0 0 1 .75-.75h9a.75.75 0 0 1 0 1.5h-9a.75.75 0 0 1-.75-.75Zm.75 2.25a.75.75 0 0 0 0 1.5h6a.75.75 0 0 0 0-1.5h-6Z"/>
  <path fill-rule="evenodd" d="M3.75 4.304C3.75 2.739 5.042 1.5 6.601 1.5H15c.207 0 .395.084.53.22l5.25 5.25c.136.135.22.323.22.53v12.196c0 1.565-1.292 2.804-2.851 2.804H6.6c-1.559 0-2.851-1.239-2.851-2.804V4.304ZM18.44 6.75l-2.69-2.69v2.391a.3.3 0 0 0 .299.299h2.39ZM14.25 3v3.451a1.8 1.8 0 0 0 1.799 1.799H19.5v11.446c0 .705-.588 1.304-1.351 1.304H6.6c-.763 0-1.351-.6-1.351-1.304V4.304C5.25 3.599 5.838 3 6.601 3h7.649Z" clip-rule="evenodd"/>
</svg>
