<svg xmlns="http://www.w3.org/2000/svg" width="24" height="24" fill="currentColor" viewBox="0 0 24 24">
  <path d="M14.549.754a.747.747 0 0 1 .473.24l.004.001 4.5 4.945.045.054a.75.75 0 0 1 .152.451v4.805h2.25a1.5 1.5 0 0 1 1.5 1.5v9a1.5 1.5 0 0 1-1.5 1.5h-19.5a1.5 1.5 0 0 1-1.5-1.5v-9a1.5 1.5 0 0 1 1.5-1.5h1.5V3.354C3.973 1.907 5.156.75 6.599.75h7.874l.076.004ZM2.473 21.75h19.5v-9h-19.5v9Zm1.851-8.136a.751.751 0 0 1 .99.175l.044.063 1.24 1.983 1.239-1.983a.75.75 0 0 1 1.271.796L7.481 17.25l1.627 2.602.038.068a.75.75 0 0 1-1.265.79l-.044-.063-1.24-1.983-1.239 1.983a.751.751 0 0 1-1.271-.794l1.626-2.603-1.626-2.602-.038-.068a.75.75 0 0 1 .275-.966Zm6.399-.114a.75.75 0 0 1 .75.75v5.25h3a.75.75 0 0 1 0 1.5h-3.75a.75.75 0 0 1-.75-.75v-6a.75.75 0 0 1 .75-.75Zm7.125 0c.647 0 1.17.144 1.59.41.418.263.672.609.842.906a.75.75 0 1 1-1.303.743 1.02 1.02 0 0 0-.338-.381c-.137-.087-.37-.178-.791-.178-.783 0-1.152.518-1.123.878l.007.046c.031.11.15.255.498.398a2.87 2.87 0 0 0 .652.176l.039.006h.01l.008.002c.005 0 .013 0 .022.002l.074.01c.061.01.145.025.245.046.197.04.47.11.754.227.515.211 1.352.701 1.432 1.712l.007.14c.025 1.383-1.228 2.296-2.498 2.354l-.127.003c-.648 0-1.172-.143-1.592-.408a2.513 2.513 0 0 1-.842-.908l-.034-.068a.75.75 0 0 1 1.337-.675l.075.12c.076.11.16.196.265.262.136.086.37.177.79.177l.142-.006c.64-.054.963-.473.982-.804l-.001-.068c-.01-.113-.107-.28-.506-.444a2.87 2.87 0 0 0-.651-.176l-.04-.006h-.01l-.006-.002c-.006 0-.015 0-.024-.002l-.073-.01a4.306 4.306 0 0 1-.999-.273c-.482-.198-1.25-.641-1.409-1.53l-.024-.182c-.119-1.508 1.264-2.497 2.62-2.497ZM6.598 2.25c-.63 0-1.125.502-1.125 1.104v7.896h12.75V7.5h-2.765c-1 0-1.735-.851-1.735-1.799V2.25H6.599Zm8.625 3.451c0 .208.148.299.235.299h2.097l-2.332-2.563v2.264Z"/>
</svg>
