<svg xmlns="http://www.w3.org/2000/svg" width="24" height="24" fill="currentColor" viewBox="0 0 24 24">
  <g clip-path="url(#a)">
    <path d="M21 .75A2.25 2.25 0 0 1 23.25 3v18A2.25 2.25 0 0 1 21 23.25H3A2.25 2.25 0 0 1 .75 21V3A2.25 2.25 0 0 1 3 .75h18ZM3 2.25a.75.75 0 0 0-.75.75v18c0 .414.336.75.75.75h18a.75.75 0 0 0 .75-.75V3a.75.75 0 0 0-.75-.75H3Zm2.813 6a2.438 2.438 0 0 1 0 4.875H4.5V15A.75.75 0 0 1 3 15V9.682c0-.79.641-1.432 1.432-1.432h1.38Zm7.687 0a.75.75 0 0 1 .75.75v6l-.01.123a.75.75 0 0 1-1.376.275L10.5 11.615V15A.75.75 0 0 1 9 15V9l.01-.123a.75.75 0 0 1 1.376-.274l2.364 3.782V9a.75.75 0 0 1 .75-.75Zm4.508 0c.794 0 1.536.38 2.088 1.042l.108.136.042.063a.75.75 0 0 1-1.192.898l-.05-.06-.121-.146c-.29-.315-.606-.433-.875-.433-.308 0-.677.153-.997.58-.327.434-.511 1.036-.511 1.67 0 .634.184 1.236.51 1.67.321.427.69.58.998.58.308 0 .676-.153.997-.58.193-.256.336-.572.42-.92h-1.417a.75.75 0 0 1 0-1.5h1.975c.708 0 1.017.635 1.016 1.104l-.004.09c-.07.754-.326 1.51-.79 2.128-.562.745-1.35 1.178-2.197 1.178-.848 0-1.635-.433-2.195-1.178C15.258 13.835 15 12.902 15 12c0-.902.258-1.835.813-2.572.56-.745 1.347-1.178 2.195-1.178ZM4.5 11.625h1.313a.937.937 0 1 0 0-1.875H4.5v1.875Z"/>
  </g>
  <defs>
    <clipPath id="a">
      <path d="M0 0h24v24H0z"/>
    </clipPath>
  </defs>
</svg>
