<svg xmlns="http://www.w3.org/2000/svg" width="24" height="24" fill="currentColor" viewBox="0 0 24 24">
  <path d="M14.25.75c.218 0 .412.095.549.243l.006.002 4.5 4.945.045.054a.75.75 0 0 1 .15.451v4.805h2.25a1.5 1.5 0 0 1 1.5 1.5v9a1.5 1.5 0 0 1-1.5 1.5H2.25a1.5 1.5 0 0 1-1.5-1.5v-9a1.5 1.5 0 0 1 1.5-1.5h1.5V3.354C3.75 1.907 4.935.75 6.377.75h7.873Zm-12 21h19.5v-9H2.25v9Zm3.563-8.25a2.437 2.437 0 1 1 0 4.875H4.5v1.875a.75.75 0 0 1-1.5 0v-5.318c0-.79.641-1.432 1.432-1.432h1.38Zm6 0a2.437 2.437 0 1 1 0 4.875H10.5v1.875a.75.75 0 0 1-1.5 0v-5.318c0-.79.641-1.432 1.432-1.432h1.38Zm8.553.004a.75.75 0 0 1 0 1.492L20.29 15h-1.618v5.25a.75.75 0 0 1-1.5 0V15h-1.618a.75.75 0 0 1 0-1.5h4.736l.077.004ZM4.5 16.875h1.313a.937.937 0 1 0 0-1.875H4.5v1.875Zm6 0h1.313a.937.937 0 1 0 0-1.875H10.5v1.875ZM6.377 2.25c-.631 0-1.127.502-1.127 1.104v7.896H18V7.5h-2.764c-1 0-1.736-.851-1.736-1.799V2.25H6.377ZM15 5.701c0 .208.15.299.236.299h2.096L15 3.437v2.264Z"/>
</svg>
