<svg xmlns="http://www.w3.org/2000/svg" width="24" height="24" fill="currentColor" viewBox="0 0 24 24">
  <g clip-path="url(#a)">
    <path d="M14.25.75c.218 0 .412.095.549.243l.006.002 4.5 4.945.045.054a.75.75 0 0 1 .15.451v4.805h2.25a1.5 1.5 0 0 1 1.5 1.5v9a1.5 1.5 0 0 1-1.5 1.5H2.25a1.5 1.5 0 0 1-1.5-1.5v-9a1.5 1.5 0 0 1 1.5-1.5h1.5V3.354C3.75 1.907 4.935.75 6.377.75h7.873Zm-12 21h19.5v-9H2.25v9Zm4.313-8.25a2.437 2.437 0 1 1 0 4.875H5.25v1.875a.75.75 0 0 1-1.5 0v-5.318c0-.79.641-1.432 1.432-1.432h1.38Zm4.88.005A3.75 3.75 0 0 1 11.25 21h-.333a1.167 1.167 0 0 1-1.167-1.167v-5.166c0-.644.523-1.167 1.167-1.167h.333l.192.005Zm8.884-.001a.75.75 0 0 1 0 1.492L20.25 15h-3v1.5h2.375l.076.004a.75.75 0 0 1 0 1.492l-.076.004H17.25v2.25a.75.75 0 0 1-1.5 0v-6l.004-.077a.75.75 0 0 1 .746-.673h3.75l.077.004ZM11.25 19.5a2.25 2.25 0 0 0 0-4.5v4.5Zm-6-2.625h1.313a.937.937 0 1 0 0-1.875H5.25v1.875ZM6.377 2.25c-.631 0-1.127.502-1.127 1.104v7.896H18V7.5h-2.764c-1 0-1.736-.851-1.736-1.799V2.25H6.377ZM15 5.701c0 .208.15.299.236.299h2.096L15 3.437v2.264Z"/>
  </g>
  <defs>
    <clipPath id="a">
      <path d="M0 0h24v24H0z"/>
    </clipPath>
  </defs>
</svg>
