<svg xmlns="http://www.w3.org/2000/svg" width="24" height="24" fill="none" viewBox="0 0 24 24">
  <path fill="#3D3C3C" fill-rule="evenodd" d="M5.851 1.5C4.292 1.5 3 2.739 3 4.304v15.392C3 21.261 4.292 22.5 5.851 22.5h6.899a.75.75 0 0 0 0-1.5H5.851c-.763 0-1.351-.6-1.351-1.304V4.304C4.5 3.599 5.088 3 5.851 3H13.5v3.451a1.8 1.8 0 0 0 1.799 1.799h3.451v1.125a.75.75 0 0 0 1.5 0V7.38l-.017-.04a.746.746 0 0 0-.106-.252l-.103-.244-5.249-5.13a.747.747 0 0 0-.525-.214H5.851ZM15 4.032v2.42a.3.3 0 0 0 .299.298h2.483L15 4.032Zm3.75 9.468c-.769 0-1.5.701-1.5 1.693v.557a.8.8 0 0 1 0 .038c.971-.05 2.027-.05 3.001 0a.697.697 0 0 1-.001-.038v-.557c0-.483-.182-.908-.465-1.222a1.397 1.397 0 0 0-1.035-.471Zm2.979 2.427a.755.755 0 0 0 .021-.177v-.557c0-.873-.332-1.654-.856-2.232l-.004-.004A2.896 2.896 0 0 0 18.75 12c-1.71 0-3 1.49-3 3.193v.557c0 .061.007.12.021.178A1.068 1.068 0 0 0 15 16.955v4.34c0 .513.366.982.913 1.057l.015.002c1.68.195 3.972.195 5.644 0l.02-.003c.522-.074.908-.529.908-1.056v-4.34c0-.467-.304-.898-.771-1.028ZM16.5 20.905v-3.56a26.748 26.748 0 0 1 4.5 0v3.56a26.748 26.748 0 0 1-4.5 0Z" clip-rule="evenodd"/>
</svg>
