<svg xmlns="http://www.w3.org/2000/svg" width="24" height="24" fill="currentColor" viewBox="0 0 24 24">
  <path fill-rule="evenodd" d="M1.313 3.729c0-1.341 1.097-2.417 2.439-2.417h7.873c.166 0 .315.072.418.186l4.498 4.944a.562.562 0 0 1 .146.378v3.301a.563.563 0 0 1-1.125 0V7.687h-2.95c-.887 0-1.55-.755-1.55-1.61v-3.64h-7.31c-.733 0-1.314.585-1.314 1.292v13.896a.562.562 0 1 1-1.126 0V3.729Zm10.874 2.347V3.33l2.943 3.233h-2.52c-.2 0-.424-.185-.424-.486Zm-7.312 5.737c-.725 0-1.313.587-1.313 1.312v8.25c0 .725.588 1.313 1.313 1.313h16.5c.725 0 1.313-.588 1.313-1.313v-8.25c0-.725-.588-1.313-1.313-1.313h-16.5Zm-.188 1.312c0-.104.084-.188.188-.188h16.5c.104 0 .188.084.188.188v8.25a.188.188 0 0 1-.188.188h-16.5a.187.187 0 0 1-.188-.188v-8.25Zm1.95 1.605a5.4 5.4 0 0 0-.727.045.61.61 0 0 0-.412.232.654.654 0 0 0-.143.428v3.638c0 .157.053.307.158.434.105.12.24.195.397.218.225.03.465.045.728.045.757 0 1.335-.225 1.732-.668.383-.434.578-1.08.578-1.912 0-.832-.195-1.41-.578-1.83-.39-.42-.967-.63-1.725-.63h-.007Zm1.328 2.46c0 .6-.112 1.035-.322 1.282-.203.24-.533.353-1.005.353-.105 0-.195 0-.285-.015v-3.127c.09-.008.187-.015.285-.015.465 0 .802.12 1.005.352.217.233.322.63.322 1.17Zm8.91 1.267.015.053-.008.022a.453.453 0 0 1 .195.083c.135.083.218.24.218.405a.616.616 0 0 1-.465.6 4.1 4.1 0 0 1-.915.098c-.667 0-1.207-.218-1.62-.66-.405-.436-.607-1.043-.607-1.793s.194-1.35.577-1.785c.405-.45.952-.675 1.635-.675.33 0 .638.03.9.09a.62.62 0 0 1 .345.232c.082.105.128.24.128.375a.49.49 0 0 1-.218.413.518.518 0 0 1-.442.068 2.335 2.335 0 0 0-.675-.09c-.338 0-.586.104-.766.322-.195.24-.292.593-.292 1.043 0 .45.097.794.3 1.035.195.217.443.322.773.322.247 0 .472-.03.667-.082l.045-.016.21-.06Zm3.96.608-1.043-1.845 1.013-1.777.023-.023v-.022a.4.4 0 0 0-.008-.383.41.41 0 0 0-.367-.218.7.7 0 0 0-.623.376l-.63 1.162-.622-1.155a.66.66 0 0 0-.27-.285c-.18-.112-.42-.15-.585-.045a.457.457 0 0 0-.15.165.46.46 0 0 0 0 .42l1.012 1.792-1.058 1.86a.43.43 0 0 0 0 .405v.015c.09.135.218.21.375.21a.745.745 0 0 0 .368-.097.676.676 0 0 0 .255-.285l.645-1.207.645 1.207c.067.12.157.21.27.277.113.068.24.106.367.106a.407.407 0 0 0 .368-.21.424.424 0 0 0 0-.435l.015-.008ZM9.743 15.42c.382-.457.9-.69 1.544-.69h-.007c.645 0 1.163.232 1.538.69.36.443.547 1.065.547 1.83 0 .765-.188 1.387-.547 1.83-.375.458-.893.69-1.538.69s-1.162-.232-1.537-.69c-.36-.442-.54-1.05-.54-1.83s.18-1.387.54-1.83Zm1.544 3.412c.353 0 .6-.12.78-.36v-.007c.203-.27.3-.683.3-1.223s-.097-.952-.292-1.215c-.18-.24-.427-.36-.78-.36-.352 0-.607.12-.787.36-.195.263-.293.675-.293 1.223 0 .547.098.96.293 1.223.172.24.427.36.78.36Z" clip-rule="evenodd"/>
</svg>
