<svg xmlns="http://www.w3.org/2000/svg" width="24" height="24" fill="currentColor" viewBox="0 0 24 24">
  <path fill-rule="evenodd" d="M2.25 4.304C2.25 2.739 3.542 1.5 5.101 1.5H13.5a.75.75 0 0 1 .525.214l5.25 5.13.102.244c.05.075.086.16.106.252l.017.04v2.37a.75.75 0 0 1-1.5 0v-1.5h-3.451a1.8 1.8 0 0 1-1.799-1.799V3H5.101c-.763 0-1.351.6-1.351 1.304v15.392c0 .705.588 1.304 1.351 1.304H9.75a.75.75 0 0 1 0 1.5H5.101c-1.559 0-2.851-1.239-2.851-2.804V4.304Zm12 2.147v-2.42l2.782 2.719h-2.483a.3.3 0 0 1-.299-.299ZM13.5 13.5A1.5 1.5 0 0 0 12 15v6a1.5 1.5 0 0 0 1.5 1.5H21a1.5 1.5 0 0 0 1.5-1.5v-6a1.5 1.5 0 0 0-1.5-1.5h-7.5Zm0 1.5H21v1.96l-1.263-.422a.75.75 0 0 0-.653.088l-1.888 1.258-1.11-.555a.75.75 0 0 0-.671 0l-1.915.957V15Zm5.241 3.657L21 19.787V18.54l-1.39-.463-.869.58Zm-2.991.181L20.073 21H13.5v-1.037l2.25-1.125Z" clip-rule="evenodd"/>
</svg>
