<svg xmlns="http://www.w3.org/2000/svg" width="24" height="24" fill="currentColor" viewBox="0 0 24 24">
  <path d="M14.25.75c.218 0 .412.095.549.243l.006.002 4.5 4.945.045.054a.75.75 0 0 1 .15.451v4.805h2.25a1.5 1.5 0 0 1 1.5 1.5v9a1.5 1.5 0 0 1-1.5 1.5H2.25a1.5 1.5 0 0 1-1.5-1.5v-9a1.5 1.5 0 0 1 1.5-1.5h1.5V3.354C3.75 1.907 4.935.75 6.377.75h7.873Zm-12 21h19.5v-9H2.25v9Zm3.234-7.313a1.828 1.828 0 0 1 0 3.657H4.313V19.5a.562.562 0 1 1-1.125 0v-3.954c0-.612.496-1.108 1.108-1.108h1.188Zm4.5 0a1.828 1.828 0 0 1 0 3.657H8.813V19.5a.562.562 0 1 1-1.126 0v-3.954c0-.612.497-1.108 1.109-1.108h1.188Zm5.766 0a.562.562 0 1 1 0 1.126h-.938V19.5a.562.562 0 1 1-1.124 0v-3.938h-.938a.562.562 0 1 1 0-1.124h3Zm4.032.252a.562.562 0 1 1 .936.623l-1.292 1.938 1.292 1.939.03.05a.562.562 0 0 1-.932.62l-.034-.047-1.032-1.548-1.032 1.549a.563.563 0 0 1-.936-.624l1.292-1.939-1.292-1.938-.03-.05a.563.563 0 0 1 .932-.62l.034.046 1.032 1.547 1.032-1.546Zm-15.47 2.28h1.172a.703.703 0 0 0 0-1.407H4.313v1.407Zm4.5 0h1.172a.703.703 0 0 0 0-1.407H8.813v1.407ZM6.377 2.25c-.631 0-1.127.502-1.127 1.104v7.896H18V7.5h-2.764c-1 0-1.736-.851-1.736-1.799V2.25H6.377ZM15 5.701c0 .208.15.299.236.299h2.096L15 3.437v2.264Z"/>
</svg>
