<svg xmlns="http://www.w3.org/2000/svg" width="24" height="24" fill="currentColor" viewBox="0 0 24 24">
  <g clip-path="url(#a)">
    <path d="M14.25.75c.218 0 .412.095.549.243l.006.002 4.5 4.945.045.054a.75.75 0 0 1 .15.451v4.805h2.25a1.5 1.5 0 0 1 1.5 1.5v9a1.5 1.5 0 0 1-1.5 1.5H2.25a1.5 1.5 0 0 1-1.5-1.5v-9a1.5 1.5 0 0 1 1.5-1.5h1.5V3.354C3.75 1.907 4.935.75 6.377.75h7.873Zm-12 21h19.5v-9H2.25v9Zm2.25-7.313a2.813 2.813 0 0 1 0 5.626h-.417a.896.896 0 0 1-.896-.896v-3.834c0-.495.402-.895.896-.896H4.5Zm5.25 0c.66 0 1.19.403 1.528.91.341.512.534 1.186.534 1.903 0 .717-.193 1.392-.534 1.903-.338.508-.867.91-1.528.91-.66 0-1.19-.402-1.528-.91-.341-.511-.534-1.186-.534-1.903 0-.717.193-1.39.534-1.902.338-.508.867-.91 1.528-.91Zm4.757 0c.603 0 1.174.279 1.602.774l.084.101.034.047a.563.563 0 0 1-.882.69l-.038-.043-.096-.111c-.227-.238-.48-.332-.704-.332-.256 0-.55.123-.799.443-.527.675-.527 1.813 0 2.488.25.32.543.443.799.444.256 0 .55-.124.8-.444a.563.563 0 0 1 .886.694c-.436.558-1.043.875-1.686.875s-1.248-.317-1.685-.875c-.845-1.083-.845-2.793 0-3.875.437-.559 1.042-.875 1.685-.876Zm5.275.252a.563.563 0 1 1 .936.623l-1.292 1.938 1.292 1.939.03.05a.562.562 0 0 1-.932.62l-.034-.047-1.032-1.548-1.032 1.549a.562.562 0 0 1-.936-.624l1.292-1.939-1.292-1.938-.03-.05a.563.563 0 0 1 .932-.62l.034.046 1.032 1.547 1.032-1.546Zm-15.47 4.248H4.5a1.687 1.687 0 1 0 0-3.375h-.188v3.376Zm5.438-3.375c-.168 0-.388.103-.593.41-.201.302-.345.752-.345 1.278s.143.977.345 1.28c.205.306.425.407.593.407.168 0 .388-.101.593-.408.201-.302.345-.753.345-1.279 0-.526-.144-.976-.345-1.278-.205-.307-.425-.41-.593-.41ZM6.377 2.25c-.631 0-1.127.502-1.127 1.104v7.896H18V7.5h-2.764c-1 0-1.736-.851-1.736-1.799V2.25H6.377ZM15 5.701c0 .208.15.299.236.299h2.096L15 3.437v2.264Z"/>
  </g>
  <defs>
    <clipPath id="a">
      <path d="M0 0h24v24H0z"/>
    </clipPath>
  </defs>
</svg>
