<svg xmlns="http://www.w3.org/2000/svg" width="24" height="24" fill="currentColor" viewBox="0 0 24 24">
  <path d="M14.25.75c.218 0 .412.095.549.243l.006.002 4.5 4.945.045.054a.75.75 0 0 1 .15.451v4.805h2.25a1.5 1.5 0 0 1 1.5 1.5v9a1.5 1.5 0 0 1-1.5 1.5H2.25a1.5 1.5 0 0 1-1.5-1.5v-9a1.5 1.5 0 0 1 1.5-1.5h1.5V3.354C3.75 1.907 4.935.75 6.377.75h7.873Zm-12 21h19.5v-9H2.25v9Zm4.032-7.062a.563.563 0 1 1 .936.624L5.926 17.25l1.292 1.939.03.05a.562.562 0 0 1-.932.62l-.034-.047-1.032-1.548-1.032 1.549a.562.562 0 0 1-.936-.624l1.292-1.939-1.292-1.938-.03-.05a.563.563 0 0 1 .932-.62l.034.046 1.032 1.547 1.032-1.546Zm1.968-.25c.31 0 .563.251.563.562v3.938h2.437l.058.002a.563.563 0 0 1 0 1.12l-.058.003h-3a.562.562 0 0 1-.563-.563V15c0-.31.252-.563.563-.563Zm6 0c.506 0 .914.104 1.24.297.245.146.42.326.55.502l.115.174.029.05a.563.563 0 0 1-.957.582l-.033-.048-.058-.088a.73.73 0 0 0-.22-.203c-.119-.07-.317-.142-.666-.142a1.15 1.15 0 0 0-.731.24c-.161.134-.217.282-.206.416l.006.03c.023.072.116.187.411.3a2.478 2.478 0 0 0 .537.138l.033.003.007.001h.002l.023.003.058.008a3.678 3.678 0 0 1 .784.2c.392.15 1.068.512 1.134 1.285l.005.106c.008.521-.248.967-.612 1.27a2.24 2.24 0 0 1-1.248.493l-.203.008c-.506 0-.914-.105-1.24-.298a1.847 1.847 0 0 1-.55-.502l-.116-.174-.028-.05a.564.564 0 0 1 .957-.582l.032.048.06.089c.06.083.13.15.218.202.119.07.318.142.667.142l.112-.004c.258-.022.474-.116.618-.236.141-.117.201-.245.207-.365l-.002-.05c-.005-.07-.078-.202-.415-.332a2.465 2.465 0 0 0-.537-.137l-.033-.003-.007-.001h-.002l-.023-.003-.058-.007a3.678 3.678 0 0 1-.784-.2c-.368-.142-.985-.469-1.114-1.147l-.02-.14c-.047-.566.219-1.052.607-1.375.384-.32.904-.5 1.451-.5Zm5.532.25a.563.563 0 1 1 .936.624l-1.292 1.938 1.292 1.939.03.05a.562.562 0 0 1-.932.62l-.034-.047-1.032-1.548-1.032 1.549a.562.562 0 0 1-.936-.624l1.292-1.939-1.292-1.938-.03-.05a.563.563 0 0 1 .932-.62l.034.046 1.032 1.547 1.032-1.546ZM6.377 2.25c-.631 0-1.127.502-1.127 1.104v7.896H18V7.5h-2.764c-1 0-1.736-.851-1.736-1.799V2.25H6.377ZM15 5.701c0 .208.15.299.236.299h2.096L15 3.437v2.264Z"/>
</svg>
