<svg xmlns="http://www.w3.org/2000/svg" width="24" height="24" fill="currentColor" viewBox="0 0 24 24">
  <path fill-rule="evenodd" d="M3.75 1.313c-1.34 0-2.438 1.075-2.438 2.416v14.083a.562.562 0 1 0 1.125 0V3.73c0-.707.581-1.292 1.313-1.292h7.307v3.64c0 .855.662 1.61 1.548 1.61h2.95v2.602a.562.562 0 1 0 1.124 0V6.82a.563.563 0 0 0-.146-.378l-4.496-4.944a.56.56 0 0 0-.418-.185H3.75Zm8.431 2.016v2.747c0 .3.223.487.424.487h2.517l-2.94-3.234Zm-7.858 9.796c0-.725.587-1.313 1.311-1.313h15.742c.724 0 1.311.588 1.311 1.313v8.25c0 .725-.587 1.313-1.311 1.313H5.634a1.312 1.312 0 0 1-1.311-1.313v-8.25Zm1.311-.188a.187.187 0 0 0-.187.188v8.25c0 .104.084.188.187.188h15.742a.187.187 0 0 0 .187-.188v-8.25a.187.187 0 0 0-.187-.188H5.634Zm3.311 2.001c0-.157.068-.307.188-.42l-.015.008a.625.625 0 0 1 .854 0c.12.105.188.255.188.42v3.15c0 .69-.173 1.207-.525 1.545-.345.33-.87.502-1.552.502-.374 0-.757-.045-1.131-.142h-.008a.73.73 0 0 1-.345-.225.666.666 0 0 1-.142-.405c0-.165.082-.308.217-.398a.48.48 0 0 1 .45-.06c.307.098.637.15.967.15.307 0 .517-.075.645-.225.097-.112.21-.36.21-.9v-3Zm5.525-.114c-.405-.308-.982-.465-1.732-.465-.36 0-.742.022-1.139.06a.768.768 0 0 0-.487.247.716.716 0 0 0-.203.503v4.395c0 .12.038.232.105.322v.015l.075.075a.616.616 0 0 0 .84 0 .552.552 0 0 0 .18-.412v-1.41c.217.015.427.022.622.022.742 0 1.327-.165 1.731-.487.428-.338.645-.833.645-1.47 0-.593-.217-1.065-.652-1.388l.015-.007Zm-.817 2.047c-.203.165-.525.24-.952.24a6.75 6.75 0 0 1-.577-.022v-1.643c.195-.022.39-.03.577-.03.435 0 .757.075.967.233.18.135.27.33.27.607 0 .278-.09.473-.278.623l-.007-.008Zm6.663-.191c.153.15.237.337.237.547h-.007v1.943a.929.929 0 0 1-.169.547.888.888 0 0 1-.466.346 4.5 4.5 0 0 1-1.354.187c-.81 0-1.498-.27-2.026-.825-.535-.563-.78-1.297-.78-2.175 0-.878.245-1.62.788-2.175.535-.563 1.27-.825 2.133-.825.39 0 .757.037 1.094.113h.007c.153.03.283.12.375.232a.023.023 0 0 1 .008.015c0 .008.007.015.007.015a.621.621 0 0 1 .146.398.548.548 0 0 1-.237.45.609.609 0 0 1-.497.082 3.286 3.286 0 0 0-.864-.112c-.543 0-.933.157-1.201.45-.268.284-.428.742-.428 1.342 0 .6.153 1.035.42 1.343.268.292.612.45 1.086.45.23 0 .436-.038.635-.083v-1.313h-1.07a.607.607 0 0 1-.437-.172v-.015a.635.635 0 0 1-.16-.413c0-.15.061-.292.168-.404h.008a.584.584 0 0 1 .428-.18h1.598a.77.77 0 0 1 .558.232Z" clip-rule="evenodd"/>
</svg>
