<svg xmlns="http://www.w3.org/2000/svg" width="24" height="24" fill="currentColor" viewBox="0 0 24 24">
  <path fill-rule="evenodd" d="M1.313 3.729c0-1.341 1.097-2.417 2.439-2.417h7.873c.166 0 .315.072.418.186l4.498 4.944a.562.562 0 0 1 .146.378v2.765a.562.562 0 1 1-1.125 0V7.688h-2.95c-.887 0-1.55-.755-1.55-1.61v-3.64h-7.31c-.733 0-1.314.585-1.314 1.292v14.083a.562.562 0 1 1-1.126 0V3.73Zm10.874-.4v2.747c0 .3.224.487.424.487h2.519l-2.943-3.234Zm-8.624 9.796c0-.725.587-1.313 1.312-1.313h16.5c.725 0 1.313.588 1.313 1.313v8.25c0 .725-.588 1.313-1.313 1.313h-16.5a1.312 1.312 0 0 1-1.313-1.313v-8.25Zm1.312-.188a.187.187 0 0 0-.188.188v8.25c0 .104.084.188.188.188h16.5a.187.187 0 0 0 .188-.188v-8.25a.187.187 0 0 0-.188-.188h-16.5Zm3.468 2.183c-.345-.277-.832-.42-1.462-.42a8.54 8.54 0 0 0-.945.053.693.693 0 0 0-.608.69v3.817c0 .142.053.27.15.375h.008c.105.112.24.165.39.165.15 0 .285-.06.382-.165a.54.54 0 0 0 .165-.383v-1.184c.158.007.315.014.458.014.622 0 1.117-.142 1.462-.434.36-.3.548-.743.548-1.298 0-.525-.188-.945-.548-1.23Zm-.75 1.778c-.157.127-.412.195-.742.195-.15 0-.293 0-.42-.015v-1.365c.142-.015.285-.023.42-.023.345 0 .592.06.757.195.143.105.203.27.203.502 0 .233-.068.398-.218.51Zm3.308-2.198c.63 0 1.117.143 1.462.42.36.285.548.705.548 1.23 0 .555-.188.997-.548 1.297-.345.293-.84.436-1.462.436-.143 0-.3-.008-.458-.015v1.184a.54.54 0 0 1-.165.383.515.515 0 0 1-.382.165.516.516 0 0 1-.39-.165h-.008a.54.54 0 0 1-.15-.375v-3.818c0-.172.06-.33.173-.457a.693.693 0 0 1 .435-.232 8.54 8.54 0 0 1 .945-.053Zm-.038 2.393c.33 0 .585-.068.743-.195.15-.113.217-.278.217-.51 0-.233-.06-.398-.202-.503-.158-.135-.413-.195-.758-.195-.135 0-.277.008-.42.023v1.365c.128.015.27.015.42.015Zm9.99 1.96-1.11-1.844 1.073-1.77.015-.03.015-.03a.438.438 0 0 0 .045-.195.397.397 0 0 0-.068-.225.456.456 0 0 0-.165-.173.487.487 0 0 0-.232-.06.757.757 0 0 0-.675.39l-.675 1.178-.668-1.163a.666.666 0 0 0-.3-.292c-.195-.113-.442-.15-.63-.045a.408.408 0 0 0-.165.172.508.508 0 0 0 0 .465l1.088 1.793-1.125 1.867a.478.478 0 0 0 0 .45v.015c.172.263.555.263.802.12a.823.823 0 0 0 .24-.217l.743-1.298.697 1.215c.075.12.173.218.293.293a.828.828 0 0 0 .397.105.485.485 0 0 0 .405-.218.427.427 0 0 0 .068-.247.45.45 0 0 0-.075-.233l.007-.022Zm-7.23-4.32h2.76v-.007c.135 0 .263.053.36.15a.505.505 0 0 1 0 .72.505.505 0 0 1-.36.15h-.832v3.48a.533.533 0 0 1-.158.383.545.545 0 0 1-.78 0h-.007a.54.54 0 0 1-.15-.375v-3.48h-.833a.505.505 0 0 1-.36-.15.505.505 0 0 1 0-.72.505.505 0 0 1 .36-.15Z" clip-rule="evenodd"/>
</svg>
