<svg xmlns="http://www.w3.org/2000/svg" width="24" height="24" fill="currentColor" viewBox="0 0 24 24">
  <path fill-rule="evenodd" d="M3.752 1.313c-1.342 0-2.44 1.075-2.44 2.416v14.083a.562.562 0 1 0 1.125 0V3.73c0-.707.582-1.292 1.315-1.292h7.31v3.64c0 .855.663 1.61 1.55 1.61h2.945l-.018 2.645a.562.562 0 1 0 1.125.008l.021-3.163a.557.557 0 0 0 0-.096l.003-.257a.563.563 0 0 0-.147-.382l-4.498-4.944a.561.561 0 0 0-.418-.185H3.752Zm8.436 2.016v2.747c0 .3.223.487.423.487h2.519l-2.943-3.234Zm-8.602 9.796c0-.725.588-1.313 1.312-1.313h16.477c.725 0 1.313.588 1.313 1.313v8.25c0 .725-.588 1.313-1.313 1.313H4.898a1.312 1.312 0 0 1-1.312-1.313v-8.25Zm1.312-.188a.187.187 0 0 0-.187.188v8.25c0 .104.084.188.187.188h16.477a.187.187 0 0 0 .188-.188v-8.25a.187.187 0 0 0-.188-.188H4.898Zm2.487 1.313c.77 0 1.37.163 1.79.482v.008c.444.335.67.825.67 1.44 0 .661-.226 1.175-.67 1.525-.42.335-1.027.506-1.79.506-.21 0-.428-.008-.646-.023v1.463a.572.572 0 0 1-.187.428.64.64 0 0 1-.435.171.582.582 0 0 1-.436-.179h-.008a.615.615 0 0 1-.171-.42v-4.56c0-.195.07-.374.21-.522a.795.795 0 0 1 .498-.257c.412-.039.81-.062 1.175-.062Zm.942 2.615c.194-.148.288-.358.288-.646h.007c0-.288-.093-.49-.28-.63-.218-.164-.544-.242-.996-.242-.202 0-.404.008-.599.031v1.712c.187.016.39.024.6.024.435 0 .77-.086.98-.25Zm6.695-2.418a.64.64 0 0 0-.848 0 .594.594 0 0 0-.179.428v3.027l-2.023-3.206a.833.833 0 0 0-.747-.405.638.638 0 0 0-.436.172.596.596 0 0 0-.195.435v4.724c0 .171.063.32.195.436.241.202.615.202.832 0a.547.547 0 0 0 .195-.436v-3.027l2.023 3.214c.164.264.42.404.747.404a.64.64 0 0 0 .436-.17.597.597 0 0 0 .195-.436v-4.724a.572.572 0 0 0-.195-.436Zm5.512 2.233c.153.15.238.337.238.547h-.008v1.943a.928.928 0 0 1-.635.892 4.505 4.505 0 0 1-1.354.188c-.811 0-1.5-.27-2.028-.825-.535-.563-.78-1.297-.78-2.175 0-.878.245-1.62.788-2.175.536-.563 1.27-.825 2.135-.825.39 0 .757.037 1.093.113h.008c.153.03.283.12.375.232a.023.023 0 0 1 .008.015c0 .008.007.015.007.015a.621.621 0 0 1 .146.398.548.548 0 0 1-.237.45.61.61 0 0 1-.498.082 3.291 3.291 0 0 0-.864-.112c-.544 0-.934.157-1.201.45-.268.284-.429.742-.429 1.342 0 .6.153 1.035.42 1.343.269.292.613.45 1.087.45.23 0 .436-.038.635-.083v-1.313h-1.07a.607.607 0 0 1-.437-.172v-.015a.635.635 0 0 1-.16-.413c0-.15.06-.292.168-.404h.007a.585.585 0 0 1 .429-.18h1.599a.77.77 0 0 1 .558.232Z" clip-rule="evenodd"/>
</svg>
