<svg xmlns="http://www.w3.org/2000/svg" width="24" height="24" fill="currentColor" viewBox="0 0 24 24">
  <path fill-rule="evenodd" d="M6.601 1.5C5.042 1.5 3.75 2.739 3.75 4.304v15.392c0 1.565 1.292 2.804 2.851 2.804H18.15c1.559 0 2.851-1.239 2.851-2.804V7.381l-.017-.04a.746.746 0 0 0-.106-.253l-.103-.244-5.25-5.13A.747.747 0 0 0 15 1.5H6.601ZM14.25 3H6.601c-.763 0-1.351.6-1.351 1.304v15.392c0 .705.588 1.304 1.351 1.304H18.15c.763 0 1.351-.6 1.351-1.304V8.25H16.05a1.8 1.8 0 0 1-1.799-1.799V3Zm4.282 3.75L15.75 4.032v2.42a.3.3 0 0 0 .299.298h2.483Z" clip-rule="evenodd"/>
</svg>
