<svg xmlns="http://www.w3.org/2000/svg" width="24" height="24" fill="currentColor" viewBox="0 0 24 24">
  <path d="M13.5 1.5c.203 0 .386.081.521.212l.003.002 5.25 5.13.105.25a.76.76 0 0 1 .1.236l.021.05v2.37a.75.75 0 0 1-1.5 0v-1.5h-3.451a1.8 1.8 0 0 1-1.799-1.799V3H5.102c-.764 0-1.352.6-1.352 1.304v15.392c0 .705.588 1.304 1.352 1.304H6a.75.75 0 0 1 0 1.5h-.898c-1.56 0-2.852-1.239-2.852-2.804V4.304C2.25 2.739 3.543 1.5 5.102 1.5H13.5ZM20.25 12a.75.75 0 0 1 .75.75V21a.75.75 0 0 1 0 1.5H8.25a.75.75 0 0 1 0-1.5v-3a.75.75 0 0 1 .75-.75h2.25A.75.75 0 0 1 12 18v3h.75v-5.25a.75.75 0 0 1 .75-.75h2.25a.75.75 0 0 1 .75.75V21h.75v-8.25A.75.75 0 0 1 18 12h2.25Zm-10.5 9h.75v-2.25h-.75V21Zm4.5 0H15v-4.5h-.75V21Zm4.5 0h.75v-7.5h-.75V21Zm-4.5-14.549a.3.3 0 0 0 .299.299h2.482L14.25 4.031v2.42Z"/>
</svg>
