<svg xmlns="http://www.w3.org/2000/svg" width="24" height="24" fill="currentColor" viewBox="0 0 24 24">
  <path fill-rule="evenodd" d="M1.5 4.304C1.5 2.739 2.792 1.5 4.351 1.5h8.399a.75.75 0 0 1 .525.214l5.25 5.13.102.244c.05.075.086.16.106.252l.017.04v2.37a.75.75 0 0 1-1.5 0v-1.5h-3.451A1.8 1.8 0 0 1 12 6.451V3H4.351C3.588 3 3 3.6 3 4.304v15.392C3 20.401 3.588 21 4.351 21H9a.75.75 0 0 1 0 1.5H4.351c-1.559 0-2.851-1.239-2.851-2.804V4.304Zm12-.272v2.42a.3.3 0 0 0 .299.298h2.483L13.5 4.032Zm3 7.968a5.25 5.25 0 0 0-5.25 5.25 5.25 5.25 0 1 0 10.5 0A5.25 5.25 0 0 0 16.5 12Zm-3.75 5.25a3.75 3.75 0 1 1 7.499-.001 3.75 3.75 0 0 1-7.499.001Zm3.75-3a.75.75 0 0 1 .75.75v1.5h1.5a.75.75 0 0 1 0 1.5h-1.5v1.5a.75.75 0 0 1-1.5 0V18h-1.5a.75.75 0 0 1 0-1.5h1.5V15a.75.75 0 0 1 .75-.75Z" clip-rule="evenodd"/>
</svg>
