<svg xmlns="http://www.w3.org/2000/svg" width="24" height="24" fill="none" viewBox="0 0 24 24">
  <path fill="#3D3C3C" fill-rule="evenodd" d="M2.25 4.304C2.25 2.739 3.542 1.5 5.101 1.5H13.5l.524.214 5.25 5.13.226.537V9.75a.75.75 0 0 1-1.5 0V7.697L13.194 3H5.101c-.763 0-1.351.6-1.351 1.304v15.392c0 .705.588 1.304 1.351 1.304H10.5a.75.75 0 0 1 0 1.5H5.101c-1.559 0-2.851-1.239-2.851-2.804V4.304Z" clip-rule="evenodd"/>
  <path fill="#3D3C3C" fill-rule="evenodd" d="M13.5 1.5a.75.75 0 0 1 .75.75v4.201a.3.3 0 0 0 .299.299h4.201a.75.75 0 0 1 0 1.5h-4.201a1.8 1.8 0 0 1-1.799-1.799V2.25a.75.75 0 0 1 .75-.75Zm.75 12.274v5.317c0 .898.999 1.909 2.625 1.909s2.625-1.011 2.625-1.91v-4.43a.75.75 0 0 1 1.5 0v4.43c0 2.04-2.023 3.41-4.125 3.41s-4.125-1.37-4.125-3.41v-5.322c.007-1.545 1.522-2.518 3.003-2.518 1.48 0 2.998.973 2.998 2.522v4.873c0 1.062-1.015 1.638-1.876 1.638-.86 0-1.877-.576-1.877-1.638v-3.986a.75.75 0 0 1 1.5 0v3.979a.162.162 0 0 0 .044.046.546.546 0 0 0 .333.099c.156 0 .271-.05.333-.1a.162.162 0 0 0 .044-.045v-4.866c0-.407-.496-1.022-1.5-1.022-1 0-1.5.613-1.502 1.024Z" clip-rule="evenodd"/>
</svg>
