<svg xmlns="http://www.w3.org/2000/svg" width="24" height="24" fill="currentColor" viewBox="0 0 24 24">
  <g clip-path="url(#a)">
    <path d="M21 .75A2.25 2.25 0 0 1 23.25 3v18A2.25 2.25 0 0 1 21 23.25H3A2.25 2.25 0 0 1 .75 21V3A2.25 2.25 0 0 1 3 .75h18ZM3 2.25a.75.75 0 0 0-.75.75v18c0 .414.336.75.75.75h18a.75.75 0 0 0 .75-.75V3a.75.75 0 0 0-.75-.75H3Zm3.563 6a2.438 2.438 0 0 1 0 4.875H5.25V15a.75.75 0 0 1-1.5 0V9.682c0-.79.641-1.432 1.432-1.432h1.38Zm4.88.005a3.75 3.75 0 0 1-.193 7.495h-.333a1.167 1.167 0 0 1-1.167-1.167V9.417c0-.644.523-1.167 1.167-1.167h.333l.192.005Zm8.884-.001a.75.75 0 0 1 0 1.492l-.077.004h-3v1.5h2.375l.076.004a.75.75 0 0 1 0 1.492l-.076.004H17.25V15a.75.75 0 0 1-1.5 0V9l.004-.077a.75.75 0 0 1 .746-.673h3.75l.077.004ZM11.25 14.25a2.25 2.25 0 0 0 0-4.5v4.5Zm-6-2.625h1.313a.937.937 0 1 0 0-1.875H5.25v1.875Z"/>
  </g>
  <defs>
    <clipPath id="a">
      <path d="M0 0h24v24H0z"/>
    </clipPath>
  </defs>
</svg>
