<svg xmlns="http://www.w3.org/2000/svg" width="24" height="24" fill="currentColor" viewBox="0 0 24 24">
  <path fill-rule="evenodd" d="M5.101 1.5C3.542 1.5 2.25 2.739 2.25 4.304v15.392c0 1.565 1.292 2.804 2.851 2.804H9.75a.75.75 0 0 0 0-1.5H5.101c-.763 0-1.351-.6-1.351-1.304V4.304C3.75 3.599 4.338 3 5.101 3h7.649v3.451a1.8 1.8 0 0 0 1.799 1.799H18v1.5a.75.75 0 0 0 1.5 0V7.38l-.017-.04a.746.746 0 0 0-.106-.252l-.103-.244-5.249-5.13A.747.747 0 0 0 13.5 1.5H5.101Zm9.149 2.532v2.42a.3.3 0 0 0 .299.298h2.483L14.25 4.032ZM16.5 13.5a3 3 0 1 0 0 6 3 3 0 0 0 0-6Zm-4.5 3a4.5 4.5 0 1 1 8.168 2.607l2.112 2.113a.75.75 0 1 1-1.06 1.06l-2.113-2.112A4.5 4.5 0 0 1 12 16.5Z" clip-rule="evenodd"/>
</svg>
