<svg xmlns="http://www.w3.org/2000/svg" width="24" height="24" fill="currentColor" viewBox="0 0 24 24">
  <path fill-rule="evenodd" d="M2.25 4.304C2.25 2.739 3.542 1.5 5.101 1.5H13.5a.75.75 0 0 1 .525.214l5.25 5.13.102.244c.05.075.086.16.106.252l.017.04v2.37a.75.75 0 0 1-1.5 0v-1.5h-3.451a1.8 1.8 0 0 1-1.799-1.799V3H5.101c-.763 0-1.351.6-1.351 1.304v15.392c0 .705.588 1.304 1.351 1.304H9.75a.75.75 0 0 1 0 1.5H5.101c-1.559 0-2.851-1.239-2.851-2.804V4.304Zm12 2.147v-2.42l2.782 2.719h-2.483a.3.3 0 0 1-.299-.299Zm-1.804 15.607c.285.285.668.442 1.066.442v-.008c.127 0 .247-.015.375-.044l1.823-.458a.726.726 0 0 0 .345-.195l5.747-5.744c.93-.93.93-2.43 0-3.36a2.387 2.387 0 0 0-3.361 0l-5.747 5.76a.718.718 0 0 0-.195.345l-.458 1.822h.008a1.486 1.486 0 0 0 .397 1.44Zm1.05-1.073v-.007l.406-1.62 5.604-5.601a.87.87 0 0 1 1.238 0c.338.345.338.9 0 1.237l-5.597 5.594-1.65.397Z" clip-rule="evenodd"/>
</svg>
