<svg xmlns="http://www.w3.org/2000/svg" width="24" height="24" fill="currentColor" viewBox="0 0 24 24">
  <path d="M14.25.75c.218 0 .412.095.549.243l.006.002 4.5 4.945.045.054a.75.75 0 0 1 .15.451v4.805h2.25a1.5 1.5 0 0 1 1.5 1.5v9a1.5 1.5 0 0 1-1.5 1.5H2.25a1.5 1.5 0 0 1-1.5-1.5v-9a1.5 1.5 0 0 1 1.5-1.5h1.5V3.354C3.75 1.907 4.935.75 6.377.75h7.873Zm-12 21h19.5v-9H2.25v9Zm3.563-8.25a2.437 2.437 0 1 1 0 4.875H4.5v1.875a.75.75 0 0 1-1.5 0v-5.318c0-.79.641-1.432 1.432-1.432h1.38Zm7.687 0a.75.75 0 0 1 .75.75v6l-.01.123a.75.75 0 0 1-1.376.274L10.5 16.866v3.385a.75.75 0 0 1-1.5 0v-6l.01-.123a.75.75 0 0 1 1.376-.275l2.364 3.783V14.25a.75.75 0 0 1 .75-.75Zm4.508 0c.794 0 1.536.38 2.088 1.042l.108.136.042.063a.75.75 0 0 1-1.192.898l-.05-.06-.121-.146c-.29-.315-.606-.433-.875-.433-.308 0-.677.153-.997.58-.327.434-.511 1.036-.511 1.67 0 .634.184 1.236.51 1.67.321.427.69.58.998.58.308 0 .676-.153.997-.58.193-.256.336-.572.42-.92h-1.417a.75.75 0 0 1 0-1.5h1.975c.708 0 1.017.635 1.016 1.104l-.004.09c-.07.754-.326 1.51-.79 2.128-.562.745-1.35 1.178-2.197 1.178-.848 0-1.635-.433-2.195-1.178-.555-.737-.813-1.67-.813-2.572 0-.902.258-1.835.813-2.572.56-.745 1.347-1.178 2.195-1.178ZM4.5 16.875h1.313a.937.937 0 1 0 0-1.875H4.5v1.875ZM6.377 2.25c-.631 0-1.127.502-1.127 1.104v7.896H18V7.5h-2.764c-1 0-1.736-.851-1.736-1.799V2.25H6.377ZM15 5.701c0 .208.15.299.236.299h2.096L15 3.437v2.264Z"/>
</svg>
