<svg xmlns="http://www.w3.org/2000/svg" width="24" height="24" fill="currentColor" viewBox="0 0 24 24">
  <path fill-rule="evenodd" d="M1.688 4.104c0-1.341 1.097-2.417 2.439-2.417H12c.166 0 .315.072.418.186l4.498 4.944a.562.562 0 0 1 .146.378V9.96a.562.562 0 1 1-1.125 0V8.063h-2.95c-.887 0-1.55-.755-1.55-1.61v-3.64h-7.31c-.733 0-1.314.585-1.314 1.292v14.083a.562.562 0 1 1-1.126 0V4.104Zm10.874-.4v2.747c0 .3.224.487.424.487h2.519l-2.943-3.234ZM6.75 12.187c-.725 0-1.313.588-1.313 1.313v8.25c0 .725.588 1.313 1.313 1.313h15c.725 0 1.313-.588 1.313-1.313V13.5c0-.725-.588-1.313-1.313-1.313h-15ZM6.562 13.5c0-.104.084-.188.188-.188h15c.104 0 .188.084.188.188v8.25a.187.187 0 0 1-.188.188h-15a.187.187 0 0 1-.188-.188V13.5Zm7.696 6.203H16.2l.008.007a.52.52 0 0 1 .382.157.52.52 0 0 1 .157.383.52.52 0 0 1-.157.383.533.533 0 0 1-.383.157H13.77a.693.693 0 0 1-.495-.21.693.693 0 0 1-.21-.495v-4.418c0-.157.06-.3.173-.412a.586.586 0 0 1 .84 0c.12.105.18.247.18.412v4.036Zm-3.24-1.808 1.252-2.092a.501.501 0 0 0 .075-.248.465.465 0 0 0-.068-.24.496.496 0 0 0-.172-.18.465.465 0 0 0-.24-.067.81.81 0 0 0-.735.427l-.803 1.418-.802-1.403a.786.786 0 0 0-.322-.322c-.21-.12-.473-.173-.675-.053a.418.418 0 0 0-.173.188.51.51 0 0 0 0 .487l1.253 2.092-1.155 1.92v-.014l-.143.255a.478.478 0 0 0 .008.48c.18.285.592.277.847.12a.823.823 0 0 0 .263-.248h.067v-.113l.81-1.432.825 1.462a.886.886 0 0 0 .757.443c.18 0 .33-.082.42-.232a.483.483 0 0 0 .075-.263.475.475 0 0 0-.075-.24l-1.282-2.152-.008.007Zm8.047-.637c.637.21 1.08.45 1.35.735l-.008.015c.285.3.436.69.436 1.155 0 .547-.173.974-.518 1.267-.33.285-.802.428-1.41.428-.442 0-.855-.083-1.215-.24l-.03-.015a.724.724 0 0 1-.285-.256.766.766 0 0 1-.105-.397c0-.09.022-.165.06-.232a.463.463 0 0 1 .615-.165c.285.165.585.24.922.24.3 0 .518-.06.646-.165.12-.09.172-.248.172-.465a.59.59 0 0 0-.157-.428c-.12-.127-.353-.255-.668-.36-.533-.18-.938-.413-1.215-.705a1.54 1.54 0 0 1-.45-1.11c0-.48.165-.862.488-1.14.307-.27.734-.405 1.26-.405.457 0 .884.067 1.274.21a.686.686 0 0 1 .443.645.47.47 0 0 1-.218.39.497.497 0 0 1-.435.03 2.494 2.494 0 0 0-1.034-.232c-.218 0-.383.044-.503.134-.06.038-.135.128-.135.353 0 .157.045.277.15.39.12.128.315.233.57.323Z" clip-rule="evenodd"/>
</svg>
