<svg xmlns="http://www.w3.org/2000/svg" width="24" height="24" fill="currentColor" viewBox="0 0 24 24">
  <g clip-path="url(#a)">
    <path d="M14.25.75c.218 0 .412.095.549.243l.006.002 4.5 4.945.045.054a.75.75 0 0 1 .15.451v4.805h2.25a1.5 1.5 0 0 1 1.5 1.5v9a1.5 1.5 0 0 1-1.5 1.5H2.25a1.5 1.5 0 0 1-1.5-1.5v-9a1.5 1.5 0 0 1 1.5-1.5h1.5V3.354C3.75 1.907 4.935.75 6.377.75h7.873Zm-12 21h19.5v-9H2.25v9Zm2.442-8.245A3.75 3.75 0 0 1 4.5 21h-.333A1.167 1.167 0 0 1 3 19.833v-5.166c0-.644.523-1.167 1.167-1.167H4.5l.192.005ZM12 13.5c.91 0 1.677.494 2.19 1.179.514.684.81 1.596.81 2.571 0 .975-.296 1.887-.81 2.571C13.677 20.506 12.91 21 12 21c-.91 0-1.677-.494-2.19-1.179-.514-.684-.81-1.596-.81-2.571 0-.975.296-1.887.81-2.571.513-.685 1.28-1.179 2.19-1.179Zm6.696 0c.788 0 1.517.388 2.054 1.05l.105.135.043.065a.75.75 0 0 1-1.205.882l-.048-.06-.119-.147c-.28-.314-.581-.425-.83-.425-.283 0-.635.146-.947.572-.318.435-.499 1.04-.499 1.678 0 .638.18 1.243.499 1.678.313.427.664.572.947.572.284 0 .637-.145.95-.572a.75.75 0 0 1 1.21.886c-.546.745-1.32 1.186-2.16 1.186-.84 0-1.613-.441-2.158-1.186-.54-.736-.788-1.667-.788-2.564s.249-1.828.788-2.565c.545-.744 1.318-1.185 2.158-1.185ZM4.5 19.5a2.25 2.25 0 0 0 0-4.5v4.5ZM12 15c-.332 0-.69.178-.991.58-.3.4-.509.988-.509 1.67 0 .682.208 1.27.509 1.672.3.4.659.578.991.578.332 0 .69-.177.991-.578.301-.401.509-.99.509-1.672 0-.682-.208-1.27-.509-1.67-.3-.402-.659-.58-.991-.58ZM6.377 2.25c-.631 0-1.127.502-1.127 1.104v7.896H18V7.5h-2.764c-1 0-1.736-.851-1.736-1.799V2.25H6.377ZM15 5.701c0 .208.15.299.236.299h2.096L15 3.437v2.264Z"/>
  </g>
  <defs>
    <clipPath id="a">
      <path d="M0 0h24v24H0z"/>
    </clipPath>
  </defs>
</svg>
