<svg xmlns="http://www.w3.org/2000/svg" width="24" height="24" fill="currentColor" viewBox="0 0 24 24">
  <path fill-rule="evenodd" d="M3 4.304C3 2.739 4.292 1.5 5.851 1.5h8.399a.75.75 0 0 1 .525.214l5.25 5.13.102.244c.05.075.086.16.106.252l.017.04v5.37a.75.75 0 0 1-1.5 0v-4.5h-3.451A1.8 1.8 0 0 1 13.5 6.451V3H5.851C5.088 3 4.5 3.6 4.5 4.304v15.392c0 .705.588 1.304 1.351 1.304H9.75a.75.75 0 0 1 0 1.5H5.851C4.292 22.5 3 21.261 3 19.696V4.304Zm12-.272v2.42a.3.3 0 0 0 .299.298h2.483L15 4.032Z" clip-rule="evenodd"/>
  <path d="M16.5 17.25a1.5 1.5 0 1 0 0 3 1.5 1.5 0 0 0 0-3Z"/>
  <path fill-rule="evenodd" d="m22.328 18.273-.735-.887c-2.633-3.18-7.553-3.18-10.186 0l-.735.887a.75.75 0 0 0 0 .957l.736.887c2.632 3.178 7.549 3.177 10.185 0l.735-.887a.75.75 0 0 0 0-.957Zm-9.765.07c2.032-2.457 5.842-2.457 7.874 0l.339.408-.338.409c-2.037 2.454-5.843 2.453-7.875 0l-.339-.409.339-.409Z" clip-rule="evenodd"/>
</svg>
