<svg xmlns="http://www.w3.org/2000/svg" width="24" height="24" fill="currentColor" viewBox="0 0 24 24">
  <g clip-path="url(#a)">
    <path d="M21 .75A2.25 2.25 0 0 1 23.25 3v18A2.25 2.25 0 0 1 21 23.25H3A2.25 2.25 0 0 1 .75 21V3A2.25 2.25 0 0 1 3 .75h18ZM3 2.25a.75.75 0 0 0-.75.75v18c0 .414.336.75.75.75h18a.75.75 0 0 0 .75-.75V3a.75.75 0 0 0-.75-.75H3Zm3.282 7.188a.563.563 0 1 1 .936.624L5.926 12l1.292 1.938.03.05a.562.562 0 0 1-.932.62l-.034-.046-1.032-1.548-1.032 1.549a.562.562 0 0 1-.936-.625L4.574 12l-1.292-1.938-.03-.05a.563.563 0 0 1 .932-.62l.034.046 1.032 1.547 1.032-1.547Zm1.968-.25c.31 0 .563.251.563.562v3.938h2.437l.058.002a.563.563 0 0 1 0 1.12l-.058.002h-3a.562.562 0 0 1-.563-.562v-4.5c0-.31.252-.563.563-.563Zm6 0c.506 0 .914.104 1.24.297.245.146.42.326.55.502l.115.174.029.05a.563.563 0 0 1-.957.582l-.033-.048-.058-.088a.73.73 0 0 0-.22-.203c-.119-.07-.317-.142-.666-.142a1.15 1.15 0 0 0-.731.24c-.161.134-.217.282-.206.416l.006.03c.023.072.116.187.411.3a2.478 2.478 0 0 0 .537.137l.033.005h.009l.023.003.058.008a3.678 3.678 0 0 1 .784.2c.392.15 1.068.511 1.134 1.286l.005.105c.008.521-.248.967-.612 1.27a2.24 2.24 0 0 1-1.248.493l-.203.008c-.506 0-.914-.105-1.24-.298a1.847 1.847 0 0 1-.55-.502l-.116-.174-.028-.05a.564.564 0 0 1 .957-.582l.032.048.06.089c.06.083.13.15.218.202.119.07.318.142.667.142l.112-.004c.258-.022.474-.116.618-.236.141-.117.201-.245.207-.365l-.002-.05c-.005-.07-.078-.202-.415-.332a2.465 2.465 0 0 0-.537-.136l-.033-.005h-.009l-.023-.003-.058-.007a3.678 3.678 0 0 1-.784-.2c-.368-.142-.985-.468-1.114-1.147l-.02-.14c-.047-.566.219-1.052.607-1.376.384-.32.904-.5 1.451-.5Zm5.532.25a.563.563 0 1 1 .936.624L19.426 12l1.292 1.938.03.05a.562.562 0 0 1-.932.62l-.034-.046-1.032-1.548-1.032 1.549a.562.562 0 0 1-.936-.625L18.074 12l-1.292-1.938-.03-.05a.563.563 0 0 1 .932-.62l.034.046 1.032 1.547 1.032-1.547Z"/>
  </g>
  <defs>
    <clipPath id="a">
      <path d="M0 0h24v24H0z"/>
    </clipPath>
  </defs>
</svg>
