<svg xmlns="http://www.w3.org/2000/svg" width="24" height="24" fill="currentColor" viewBox="0 0 24 24">
  <g clip-path="url(#a)">
    <path d="M21 .75A2.25 2.25 0 0 1 23.25 3v18A2.25 2.25 0 0 1 21 23.25H3A2.25 2.25 0 0 1 .75 21V3A2.25 2.25 0 0 1 3 .75h18ZM3 2.25a.75.75 0 0 0-.75.75v18c0 .414.336.75.75.75h18a.75.75 0 0 0 .75-.75V3a.75.75 0 0 0-.75-.75H3Zm1.103 6.114a.75.75 0 0 1 .989.175l.044.064 1.239 1.982 1.24-1.982a.75.75 0 0 1 1.27.794L7.26 12l1.627 2.602.037.068a.75.75 0 0 1-1.265.79l-.044-.063-1.239-1.983-1.24 1.984a.75.75 0 0 1-1.27-.796L5.49 12 3.864 9.397l-.037-.067a.75.75 0 0 1 .276-.966ZM10.5 8.25a.75.75 0 0 1 .75.75v5.25h3a.75.75 0 0 1 0 1.5H10.5a.75.75 0 0 1-.75-.75V9a.75.75 0 0 1 .75-.75Zm7.125 0c.648 0 1.172.144 1.592.41.417.263.67.609.84.906a.75.75 0 1 1-1.302.743 1.02 1.02 0 0 0-.339-.381c-.137-.087-.37-.178-.791-.178-.782 0-1.151.518-1.123.878l.008.046c.03.11.15.255.498.398a2.87 2.87 0 0 0 .691.182h.009l.008.002c.006 0 .013 0 .022.002l.075.01a4.352 4.352 0 0 1 .999.272c.514.212 1.35.702 1.431 1.713l.007.14c.025 1.383-1.228 2.296-2.498 2.354l-.127.003c-.648 0-1.172-.143-1.592-.408a2.514 2.514 0 0 1-.842-.908l-.034-.068a.75.75 0 0 1 1.338-.675l.074.12c.077.11.16.196.265.262.137.086.37.177.791.177l.142-.006c.64-.054.963-.473.981-.804v-.068c-.009-.114-.108-.28-.507-.444a2.858 2.858 0 0 0-.69-.182h-.01l-.007-.002c-.006 0-.013 0-.022-.002l-.075-.01a4.372 4.372 0 0 1-.998-.273c-.483-.198-1.25-.641-1.409-1.53l-.023-.182c-.12-1.508 1.263-2.497 2.618-2.497Z"/>
  </g>
  <defs>
    <clipPath id="a">
      <path d="M0 0h24v24H0z"/>
    </clipPath>
  </defs>
</svg>
