<svg xmlns="http://www.w3.org/2000/svg" width="24" height="24" fill="currentColor" viewBox="0 0 24 24">
  <path fill-rule="evenodd" d="M4.5 2.25a.75.75 0 0 0-1.5 0V3h-.75a.75.75 0 0 0 0 1.5H3V9h-.75a.75.75 0 0 0 0 1.5H3v.75a.75.75 0 0 0 1.5 0v-.75H9v.75a.75.75 0 0 0 1.5 0v-.75h.75a.75.75 0 0 0 0-1.5h-.75V4.5h.75a.75.75 0 0 0 0-1.5h-.75v-.75a.75.75 0 0 0-1.5 0V3H4.5v-.75Zm0 2.25V9H9V4.5H4.5Zm9.75 7.5a.75.75 0 0 1 .75.75v.75h4.5v-.75a.75.75 0 0 1 1.5 0v.75h.75a.75.75 0 0 1 0 1.5H21v4.5h.75a.75.75 0 0 1 0 1.5H21v.75a.75.75 0 0 1-1.5 0V21H15v.75a.75.75 0 0 1-1.5 0V21h-.75a.75.75 0 0 1 0-1.5h.75V15h-.75a.75.75 0 0 1 0-1.5h.75v-.75a.75.75 0 0 1 .75-.75Zm.75 3v4.5h4.5V15H15Z" clip-rule="evenodd"/>
</svg>
