<svg xmlns="http://www.w3.org/2000/svg" width="24" height="24" fill="currentColor" viewBox="0 0 24 24">
  <path fill-rule="evenodd" d="M3.75 1.5a.75.75 0 0 1 .75.75v9a.75.75 0 0 1-1.5 0v-9a.75.75 0 0 1 .75-.75Zm6 0a.75.75 0 0 1 .75.75v9a.75.75 0 0 1-1.5 0v-9a.75.75 0 0 1 .75-.75Z" clip-rule="evenodd"/>
  <path fill-rule="evenodd" d="M12 9.75a.75.75 0 0 0-.75-.75h-9a.75.75 0 0 0 0 1.5h9a.75.75 0 0 0 .75-.75Zm0-6a.75.75 0 0 0-.75-.75h-9a.75.75 0 0 0 0 1.5h9a.75.75 0 0 0 .75-.75ZM14.25 12a.75.75 0 0 1 .75.75v9a.75.75 0 0 1-1.5 0v-9a.75.75 0 0 1 .75-.75Zm6 0a.75.75 0 0 1 .75.75v9a.75.75 0 0 1-1.5 0v-9a.75.75 0 0 1 .75-.75Z" clip-rule="evenodd"/>
  <path fill-rule="evenodd" d="M22.5 20.25a.75.75 0 0 0-.75-.75h-9a.75.75 0 0 0 0 1.5h9a.75.75 0 0 0 .75-.75Zm0-6a.75.75 0 0 0-.75-.75h-9a.75.75 0 0 0 0 1.5h9a.75.75 0 0 0 .75-.75Z" clip-rule="evenodd"/>
</svg>
