<svg xmlns="http://www.w3.org/2000/svg" width="24" height="24" fill="currentColor" viewBox="0 0 24 24">
  <path fill-rule="evenodd" d="M11.25 15.44 5.78 9.97a.75.75 0 1 0-1.06 1.06l5.689 5.69a2.25 2.25 0 0 0 3.182 0l5.69-5.69a.75.75 0 1 0-1.061-1.06l-5.47 5.47V2.25a.75.75 0 0 0-1.5 0v13.19Zm9-.44a.75.75 0 0 1 .75.75v4.002c0 1.541-1.279 2.748-2.81 2.748H5.81C4.28 22.5 3 21.293 3 19.752V15.75a.75.75 0 0 1 1.5 0v4.002c0 .67.563 1.248 1.31 1.248h12.38c.747 0 1.31-.579 1.31-1.248V15.75a.75.75 0 0 1 .75-.75Z" clip-rule="evenodd"/>
</svg>
