<svg xmlns="http://www.w3.org/2000/svg" width="24" height="24" fill="currentColor" viewBox="0 0 24 24">
  <path fill-rule="evenodd" d="M12 3a9 9 0 1 0 0 18 9 9 0 0 0 0-18ZM1.5 12C1.5 6.201 6.201 1.5 12 1.5S22.5 6.201 22.5 12 17.799 22.5 12 22.5 1.5 17.799 1.5 12Z" clip-rule="evenodd"/>
  <path fill-rule="evenodd" d="M7.506 3.093a.75.75 0 0 1 1.018.296l.395.719c.679.456.78 1.423.199 2.01L7.376 7.877a1.198 1.198 0 0 1-.937.351l-.289.648-.23.958 1.598-.123a1.5 1.5 0 0 1 1.042.317l1.28 1.005c.249.196.413.478.464.787l1.214.22a1.5 1.5 0 0 1 1.232 1.476v.395c0 .134-.018.267-.053.397l-.334 1.214a1.5 1.5 0 0 1-1.218 1.085l-.343.053v.141a1.5 1.5 0 0 1-.486 1.105l-.348.32-.136.376v.657l.005.02c.256.932-.756 1.699-1.584 1.2a1.071 1.071 0 0 1-.277-.24l-.69-.847a.737.737 0 0 1-.026-.033l-.346-.476a1.5 1.5 0 0 1-.286-.881v-.772l-.364-1.349-.4-.18a1.5 1.5 0 0 1-.743-.736l-.539-1.16a1.5 1.5 0 0 1-.14-.632v-1.252c0-.182.039-.361.111-.527l-.143-.197-1.044-.765c-.1-.074-.192-.16-.271-.257l-.674-.817a.75.75 0 1 1 1.158-.954l.674.818.23.169.209-.867a1.5 1.5 0 0 1 .088-.258l.385-.865a1.198 1.198 0 0 1 1.263-.698L7.9 5.216a1.31 1.31 0 0 1-.273-.344l-.418-.76a.75.75 0 0 1 .297-1.02Zm-1.423 8.233a1.31 1.31 0 0 1-.14.641v1.206l.538 1.16.4.18a1.5 1.5 0 0 1 .832.978l.363 1.349a1.5 1.5 0 0 1 .052.39v.772l.23.317a1.5 1.5 0 0 1 .064-.23l.136-.376a1.5 1.5 0 0 1 .396-.593l.348-.319v-.141c0-.74.54-1.37 1.272-1.483l.343-.052.333-1.214v-.395l-1.395-.253a1.26 1.26 0 0 1-1.029-1.118l-1.193-.938-1.55.12Zm11.285-7.901a.75.75 0 0 1-.351 1.001l-1.165.56-.463.626.521.252a.75.75 0 0 1 .192 1.216L15 8.138V9.1l.768 1.189h1.594a.75.75 0 0 1 .602.303l1.11 1.496a.75.75 0 0 1 .147.446v2.15a.75.75 0 0 1-.024.187l-.377 1.46.197-.03a.747.747 0 0 1 .117-.01h1.116a.75.75 0 0 1 0 1.5h-1.058l-1.267.2a.75.75 0 0 1-.843-.928l.639-2.475v-1.806l-.737-.993H15.36a.75.75 0 0 1-.63-.343l-1.11-1.718a.75.75 0 0 1-.12-.407V7.82c0-.204.083-.4.23-.541l.557-.534-.365-.177a.75.75 0 0 1-.275-1.12l1.109-1.503a.75.75 0 0 1 .279-.23l1.332-.64a.75.75 0 0 1 1 .351Z" clip-rule="evenodd"/>
</svg>
