<svg xmlns="http://www.w3.org/2000/svg" width="24" height="24" fill="currentColor" viewBox="0 0 24 24">
  <path fill-rule="evenodd" d="M5.377 14.575 16.72 3.702c.976-.935 2.575-.937 3.56 0a2.277 2.277 0 0 1 0 3.322L8.932 17.896l-3.452.829h-.002c-.63.153-1.077-.391-.954-.858a.75.75 0 0 0 .02-.1l.834-3.192Zm-2.311 2.911a.75.75 0 0 0-.021.118c-.34 1.63 1.21 2.96 2.785 2.58v-.001l3.649-.875a.75.75 0 0 0 .344-.188L21.317 8.107a3.777 3.777 0 0 0 .002-5.487l-.003-.002c-1.563-1.49-4.077-1.492-5.635.001L4.186 13.64a.75.75 0 0 0-.206.351l-.914 3.496ZM2.25 21a.75.75 0 0 0 0 1.5h19.5a.75.75 0 0 0 0-1.5H2.25Z" clip-rule="evenodd"/>
</svg>
