<svg xmlns="http://www.w3.org/2000/svg" width="24" height="24" fill="currentColor" viewBox="0 0 24 24">
  <path fill-rule="evenodd" d="M16.72 3.702 5.377 14.575l-.834 3.192a.752.752 0 0 1-.02.1c-.123.467.324 1.01.954.858h.002l3.452-.829 11.35-10.872a2.277 2.277 0 0 0 0-3.322c-.986-.937-2.585-.935-3.561 0ZM3.045 17.604a.677.677 0 0 1 .02-.118l.915-3.496a.75.75 0 0 1 .206-.352L15.682 2.62c1.558-1.493 4.072-1.49 5.635-.001l.003.002a3.777 3.777 0 0 1-.002 5.487L9.822 19.12a.75.75 0 0 1-.343.188l-3.648.875H5.83c-1.575.381-3.126-.95-2.785-2.579ZM1.5 21.75a.75.75 0 0 1 .75-.75h19.5a.75.75 0 0 1 0 1.5H2.25a.75.75 0 0 1-.75-.75Z" clip-rule="evenodd"/>
</svg>
