<svg xmlns="http://www.w3.org/2000/svg" width="24" height="24" fill="currentColor" viewBox="0 0 24 24">
  <path fill-rule="evenodd" d="M17.66 3.574s.001 0 0 0l-9.43 9.434-.714 2.836v.001a.53.53 0 0 0 .64.639l2.838-.713 9.432-9.427a1.959 1.959 0 0 0 0-2.77l-.002-.002a1.953 1.953 0 0 0-2.763.002Zm3.828-1.06a3.453 3.453 0 0 0-4.887-.001l-9.58 9.58a.75.75 0 0 0-.196.348l-.764 3.04v.002c-.368 1.48.977 2.823 2.457 2.456h.002l3.04-.763a.75.75 0 0 0 .348-.197l9.579-9.574a3.459 3.459 0 0 0 0-4.891Z" clip-rule="evenodd"/>
  <path fill-rule="evenodd" d="M1.5 5.342A3.09 3.09 0 0 1 4.592 2.25h5.866a.75.75 0 0 1 0 1.5H4.592A1.59 1.59 0 0 0 3 5.342v14.066C3 20.289 3.71 21 4.592 21h14.066a1.59 1.59 0 0 0 1.592-1.592v-5.866a.75.75 0 0 1 1.5 0v5.866a3.09 3.09 0 0 1-3.092 3.092H4.592A3.09 3.09 0 0 1 1.5 19.408V5.342Z" clip-rule="evenodd"/>
</svg>
