<svg xmlns="http://www.w3.org/2000/svg" width="24" height="24" fill="currentColor" viewBox="0 0 24 24">
  <path fill-rule="evenodd" d="m8.23 13.008 9.43-9.434a1.953 1.953 0 0 1 2.764-.002l.002.002a1.959 1.959 0 0 1 0 2.77l-9.432 9.427-2.838.713a.53.53 0 0 1-.64-.639l.713-2.837ZM16.6 2.513a3.453 3.453 0 0 1 4.888 0 3.459 3.459 0 0 1-.001 4.892l-9.579 9.574a.75.75 0 0 1-.347.197l-3.041.763h-.002c-1.48.367-2.825-.976-2.457-2.456v-.002l.764-3.04a.75.75 0 0 1 .197-.347L16.6 2.513ZM4.593 2.25A3.09 3.09 0 0 0 1.5 5.342v14.066A3.09 3.09 0 0 0 4.592 22.5h14.066a3.09 3.09 0 0 0 3.092-3.092v-5.866a.75.75 0 0 0-1.5 0v5.866A1.59 1.59 0 0 1 18.658 21H4.592A1.59 1.59 0 0 1 3 19.408V5.342c0-.881.71-1.592 1.592-1.592h5.866a.75.75 0 0 0 0-1.5H4.592Z" clip-rule="evenodd"/>
</svg>
