<svg xmlns="http://www.w3.org/2000/svg" width="24" height="24" fill="currentColor" viewBox="0 0 24 24">
  <path d="M11.797 4.527a.752.752 0 0 1 .472.023l9.75 3.732a.75.75 0 0 1 .002 1.4l-3.271 1.263v4.958c0 1.245-1.034 2.146-2.185 2.692-1.206.572-2.82.905-4.565.905-1.744 0-3.359-.333-4.565-.905-1.15-.546-2.185-1.447-2.185-2.692v-4.958l-1.5-.58v5.092a.75.75 0 0 1-1.5 0v-5.67l-.27-.104a.75.75 0 0 1 .002-1.4l9.75-3.733.065-.023Zm.473 8.922a.751.751 0 0 1-.54 0l-4.98-1.924v4.378c0 .33.307.853 1.327 1.336.964.457 2.35.761 3.923.761s2.959-.303 3.923-.76c1.02-.484 1.327-1.007 1.327-1.337v-4.378l-4.98 1.924ZM4.34 8.985l7.66 2.96 7.66-2.96L12 6.053 4.339 8.985Z"/>
</svg>
