<svg xmlns="http://www.w3.org/2000/svg" width="24" height="24" fill="currentColor" viewBox="0 0 24 24">
  <path d="M4.72 18.22a.75.75 0 1 1 1.06 1.06L4.06 21h.44a.75.75 0 0 1 0 1.5H2.25a.75.75 0 0 1-.75-.75V19.5a.75.75 0 0 1 1.5 0v.44l1.72-1.72Zm13.5 0a.75.75 0 0 1 1.06 0L21 19.94v-.44a.75.75 0 0 1 1.5 0v2.25a.75.75 0 0 1-.75.75H19.5a.75.75 0 0 1 0-1.5h.44l-1.72-1.72a.75.75 0 0 1 0-1.06Z"/>
  <path fill-rule="evenodd" d="M12 4.5c1.512 0 2.914.217 3.965.593.521.186.997.426 1.356.729.09.076.178.162.26.256A.749.749 0 0 1 18 6.75v10.12c0 .566-.321 1.004-.677 1.306-.36.304-.836.544-1.358.73-1.05.376-2.452.594-3.965.594-1.514 0-2.916-.218-3.966-.595-.522-.187-.997-.427-1.357-.731C6.322 17.872 6 17.435 6 16.87V6.75a.75.75 0 0 1 .42-.673c.08-.094.169-.179.259-.255.36-.303.835-.543 1.356-.73C9.085 4.718 10.488 4.5 12 4.5Zm4.5 4.437c-.17.08-.35.154-.535.22-1.05.376-2.453.593-3.965.593s-2.914-.217-3.965-.593a6.015 6.015 0 0 1-.535-.22v7.921c.005.015.031.073.147.17.172.146.465.312.893.465.85.304 2.072.507 3.46.507s2.611-.202 3.46-.505c.428-.153.721-.318.893-.463.153-.13.15-.19.147-.173V8.937ZM12 6c-1.387 0-2.61.202-3.46.505-.428.153-.722.318-.894.463a.56.56 0 0 0-.14.157.56.56 0 0 0 .14.157c.172.145.466.31.894.463.85.303 2.073.505 3.46.505s2.61-.202 3.46-.505c.428-.153.721-.318.893-.463a.552.552 0 0 0 .141-.157.552.552 0 0 0-.14-.157c-.172-.145-.466-.31-.894-.463C14.61 6.202 13.387 6 12 6Z" clip-rule="evenodd"/>
  <path d="M4.5 1.5a.75.75 0 0 1 0 1.5h-.44l1.72 1.72a.75.75 0 0 1-1.06 1.06L3 4.06v.44a.75.75 0 0 1-1.5 0V2.25a.75.75 0 0 1 .75-.75H4.5Zm17.25 0a.75.75 0 0 1 .75.75V4.5a.75.75 0 0 1-1.5 0v-.44l-1.72 1.72a.75.75 0 0 1-1.06-1.06L19.94 3h-.44a.75.75 0 0 1 0-1.5h2.25Z"/>
</svg>
