<svg xmlns="http://www.w3.org/2000/svg" width="24" height="24" fill="currentColor" viewBox="0 0 24 24">
  <path d="M4.72 18.22a.75.75 0 1 1 1.06 1.06L4.06 21h.44a.75.75 0 0 1 0 1.5H2.25a.75.75 0 0 1-.75-.75V19.5a.75.75 0 0 1 1.5 0v.44l1.72-1.72Zm13.5 0a.75.75 0 0 1 1.06 0L21 19.94v-.44a.75.75 0 0 1 1.5 0v2.25a.75.75 0 0 1-.75.75H19.5a.75.75 0 0 1 0-1.5h.44l-1.72-1.72a.75.75 0 0 1 0-1.06Z"/>
  <path fill-rule="evenodd" d="M10.875 4.283a2.25 2.25 0 0 1 2.25 0l4.995 2.884a2.25 2.25 0 0 1 1.125 1.949v5.768a2.25 2.25 0 0 1-1.125 1.948l-4.995 2.885a2.25 2.25 0 0 1-2.25 0L5.88 16.833a2.25 2.25 0 0 1-1.125-1.949V9.116A2.25 2.25 0 0 1 5.88 7.167l4.995-2.884Zm1.5 1.3a.75.75 0 0 0-.75 0L6.63 8.467a.75.75 0 0 0-.375.649v5.768a.75.75 0 0 0 .375.65l4.995 2.883a.75.75 0 0 0 .75 0l4.995-2.884a.75.75 0 0 0 .375-.649V9.116a.75.75 0 0 0-.375-.65l-4.995-2.883Z" clip-rule="evenodd"/>
  <path d="M4.5 1.5a.75.75 0 0 1 0 1.5h-.44l1.72 1.72a.75.75 0 0 1-1.06 1.06L3 4.06v.44a.75.75 0 0 1-1.5 0V2.25a.75.75 0 0 1 .75-.75H4.5Zm17.25 0a.75.75 0 0 1 .75.75V4.5a.75.75 0 0 1-1.5 0v-.44l-1.72 1.72a.75.75 0 0 1-1.06-1.06L19.94 3h-.44a.75.75 0 0 1 0-1.5h2.25Z"/>
</svg>
