<svg xmlns="http://www.w3.org/2000/svg" width="24" height="24" fill="currentColor" viewBox="0 0 24 24">
  <path d="M3.75 18.712a.75.75 0 0 1 .75.75v.416c0 .202.13.474.458.73.325.252.729.392 1.042.392a.75.75 0 0 1 0 1.5c-.693 0-1.414-.282-1.963-.708C3.493 21.369 3 20.704 3 19.878v-.416a.75.75 0 0 1 .75-.75Zm12-8.962a1.5 1.5 0 0 1 1.5 1.5v4.251l4.081-1.188a1.5 1.5 0 0 1 1.919 1.44V21a1.5 1.5 0 0 1-1.5 1.5h-12a1.5 1.5 0 0 1-1.5-1.5v-9.75a1.5 1.5 0 0 1 1.5-1.5h6Zm-6 9V21h6v-2.25h-6Zm7.5-1.688V21h4.5v-5.247l-4.5 1.31ZM3.75 13.5a.75.75 0 0 1 .75.75v2.25h.75a.75.75 0 0 1 0 1.5h-3a.75.75 0 0 1 0-1.5H3v-2.25a.75.75 0 0 1 .75-.75Zm6 3.75h6V15h-6v2.25Zm0-3.75h6v-2.25h-6v2.25Zm-6-5.25A.75.75 0 0 1 4.5 9v2.25h.75a.75.75 0 0 1 0 1.5h-3a.75.75 0 0 1 0-1.5H3V9a.75.75 0 0 1 .75-.75ZM17.668 1.5c1.436 0 2.582 1.195 2.582 2.622V10.5a.75.75 0 0 1-1.5 0V4.122c0-.63-.505-1.122-1.082-1.122H5.582C5.005 3 4.5 3.492 4.5 4.122V6h.75l.077.004a.75.75 0 0 1 0 1.492L5.25 7.5h-3a.75.75 0 0 1 0-1.5H3V4.122C3 2.695 4.146 1.5 5.582 1.5h12.086Z"/>
</svg>
