<svg xmlns="http://www.w3.org/2000/svg" width="24" height="24" fill="currentColor" viewBox="0 0 24 24">
  <path fill-rule="evenodd" d="M9.619 13.5c-.316 0-.619.277-.619.664V21h6v-6.836c0-.387-.303-.664-.619-.664H9.62Zm-2.119.664C7.5 12.995 8.429 12 9.619 12h4.762c1.19 0 2.119.995 2.119 2.164v7.586a.75.75 0 0 1-.75.75h-7.5a.75.75 0 0 1-.75-.75v-7.586Z" clip-rule="evenodd"/>
  <path fill-rule="evenodd" d="M3 8.25a.75.75 0 0 1 .75.75v10.61c0 .81.608 1.39 1.264 1.39h13.972c.656 0 1.264-.58 1.264-1.39V9a.75.75 0 0 1 1.5 0v10.61c0 1.552-1.195 2.89-2.764 2.89H5.014c-1.57 0-2.764-1.338-2.764-2.89V9A.75.75 0 0 1 3 8.25Z" clip-rule="evenodd"/>
  <path fill-rule="evenodd" d="m3.655 4.002-.65 3.39c.05.405.474.858 1.195.858a1.4 1.4 0 0 0 .76-.216 2.17 2.17 0 0 1 2.38 0 1.4 1.4 0 0 0 .76.216 1.4 1.4 0 0 0 .76-.216 2.17 2.17 0 0 1 2.38 0 1.4 1.4 0 0 0 .76.216 1.4 1.4 0 0 0 .76-.216 2.17 2.17 0 0 1 2.38 0 1.4 1.4 0 0 0 .76.216 1.4 1.4 0 0 0 .76-.216 2.17 2.17 0 0 1 2.38 0 1.4 1.4 0 0 0 .76.216c.735 0 1.16-.471 1.197-.882l-.645-3.366A1.243 1.243 0 0 0 19.132 3H4.875c-.597 0-1.109.423-1.221 1.002ZM1.539 7.07l.643-3.353A2.743 2.743 0 0 1 4.876 1.5H19.13c1.312 0 2.444.929 2.694 2.217v.001l.662 3.452a.752.752 0 0 1 .013.14c0 1.446-1.31 2.44-2.7 2.44a2.9 2.9 0 0 1-1.578-.458l-.004-.003a.67.67 0 0 0-.736 0l-.004.003a2.9 2.9 0 0 1-1.578.458 2.9 2.9 0 0 1-1.578-.458l-.004-.003a.67.67 0 0 0-.736 0l-.004.003A2.9 2.9 0 0 1 12 9.75a2.9 2.9 0 0 1-1.578-.458l-.004-.003a.67.67 0 0 0-.736 0l-.004.003A2.9 2.9 0 0 1 8.1 9.75a2.9 2.9 0 0 1-1.578-.458l-.004-.003a.67.67 0 0 0-.736 0l-.004.003A2.9 2.9 0 0 1 4.2 9.75c-1.39 0-2.7-.994-2.7-2.44a.75.75 0 0 1 .04-.24Z" clip-rule="evenodd"/>
</svg>
