<svg xmlns="http://www.w3.org/2000/svg" width="24" height="24" fill="currentColor" viewBox="0 0 24 24">
  <path fill-rule="evenodd" d="M6.75 3a1.5 1.5 0 0 1 1.5-1.5H19.5A1.5 1.5 0 0 1 21 3v18.75a.75.75 0 0 1-.75.75H3.75a.75.75 0 0 1-.75-.75V10.588a1.5 1.5 0 0 1 1.665-1.491l2.085.231V3ZM4.5 21h6.75v-9.664l-6.75-.748V21Zm8.25 0h6.75V3H8.25v6.494l3.165.351a1.5 1.5 0 0 1 1.335 1.491V21Zm3-16.5a.75.75 0 0 0 0 1.5h1.5a.75.75 0 0 0 0-1.5h-1.5ZM15 8.25a.75.75 0 0 1 .75-.75h1.5a.75.75 0 0 1 0 1.5h-1.5a.75.75 0 0 1-.75-.75Zm.75 2.25a.75.75 0 0 0 0 1.5h1.5a.75.75 0 0 0 0-1.5h-1.5ZM15 14.25a.75.75 0 0 1 .75-.75h1.5a.75.75 0 0 1 0 1.5h-1.5a.75.75 0 0 1-.75-.75Zm.75 2.25a.75.75 0 0 0 0 1.5h1.5a.75.75 0 0 0 0-1.5h-1.5Zm-6-11.25a.75.75 0 0 1 .75-.75H12A.75.75 0 0 1 12 6h-1.5a.75.75 0 0 1-.75-.75ZM6 12.75a.75.75 0 0 0 0 1.5h.75a.75.75 0 0 0 0-1.5H6Zm-.75 3.75a.75.75 0 0 1 .75-.75h.75a.75.75 0 0 1 0 1.5H6a.75.75 0 0 1-.75-.75ZM9 12.75a.75.75 0 0 0 0 1.5h.75a.75.75 0 0 0 0-1.5H9Zm-.75 3.75a.75.75 0 0 1 .75-.75h.75a.75.75 0 0 1 0 1.5H9a.75.75 0 0 1-.75-.75Zm2.25-9a.75.75 0 0 0 0 1.5H12a.75.75 0 0 0 0-1.5h-1.5Z" clip-rule="evenodd"/>
</svg>
