<svg xmlns="http://www.w3.org/2000/svg" width="24" height="24" fill="currentColor" viewBox="0 0 24 24">
  <path fill-rule="evenodd" d="M3 21.75a.75.75 0 0 1 .75-.75h16.5a.75.75 0 0 1 0 1.5H3.75a.75.75 0 0 1-.75-.75ZM21.065 6.486a2.25 2.25 0 0 1 .03 3.198l-9.817 9.903a2.25 2.25 0 0 1-3.178.017l-4.428-4.37a2.25 2.25 0 0 1-.02-3.182l9.763-9.886a2.25 2.25 0 0 1 3.169-.033l4.481 4.353ZM20.03 8.628a.75.75 0 0 0-.01-1.066L15.54 3.21a.75.75 0 0 0-1.056.011l-9.765 9.886a.75.75 0 0 0 .007 1.06l4.428 4.37a.75.75 0 0 0 1.06-.006l9.817-9.902Z" clip-rule="evenodd"/>
  <path fill-rule="evenodd" d="m12.948 17.056-6.797-6.75L7.208 9.24l6.797 6.75-1.057 1.065Z" clip-rule="evenodd"/>
</svg>
