<svg xmlns="http://www.w3.org/2000/svg" width="24" height="24" fill="currentColor" viewBox="0 0 24 24">
  <path fill-rule="evenodd" d="M8.539 1.5a2.12 2.12 0 0 0-1.516.634L2.131 7.026A2.13 2.13 0 0 0 1.5 8.539v6.922c0 .565.223 1.114.634 1.516l4.892 4.892c.403.403.94.631 1.513.631h6.922a2.12 2.12 0 0 0 1.516-.634l4.892-4.892a2.13 2.13 0 0 0 .631-1.513V8.54a2.12 2.12 0 0 0-.634-1.516l-4.892-4.892A2.13 2.13 0 0 0 15.46 1.5H8.54Zm-.445 1.684A.62.62 0 0 1 8.54 3h6.922c.166 0 .325.064.452.191l4.896 4.896.007.007A.62.62 0 0 1 21 8.54v6.922a.631.631 0 0 1-.191.452l-4.896 4.896-.007.007a.62.62 0 0 1-.445.184H8.54a.631.631 0 0 1-.452-.191l-4.896-4.896-.007-.007A.62.62 0 0 1 3 15.46V8.54c0-.166.064-.325.191-.452l4.896-4.896.007-.007ZM8.47 8.47a.75.75 0 0 1 1.06 0L12 10.94l2.47-2.47a.75.75 0 1 1 1.06 1.06L13.06 12l2.47 2.47a.75.75 0 1 1-1.06 1.06L12 13.06l-2.47 2.47a.75.75 0 0 1-1.06-1.06L10.94 12 8.47 9.53a.75.75 0 0 1 0-1.06Z" clip-rule="evenodd"/>
</svg>
