<svg xmlns="http://www.w3.org/2000/svg" width="24" height="24" fill="currentColor" viewBox="0 0 24 24">
  <path fill-rule="evenodd" d="M8.273 1.5h7.454c.398 0 .773.157 1.058.442l5.273 5.273c.285.277.442.66.442 1.058v7.454c0 .398-.157.773-.442 1.058l-5.273 5.273c-.277.285-.66.442-1.058.442H8.273c-.398 0-.773-.157-1.058-.442l-5.272-5.273a1.475 1.475 0 0 1-.443-1.058V8.273c0-.398.157-.773.442-1.058l5.273-5.272A1.47 1.47 0 0 1 8.273 1.5Zm.197 6.97a.75.75 0 0 1 1.06 0L12 10.94l2.47-2.47a.75.75 0 1 1 1.06 1.06L13.06 12l2.47 2.47a.75.75 0 1 1-1.06 1.06L12 13.06l-2.47 2.47a.75.75 0 0 1-1.06-1.06L10.94 12 8.47 9.53a.75.75 0 0 1 0-1.06Z" clip-rule="evenodd"/>
</svg>
