<svg xmlns="http://www.w3.org/2000/svg" width="24" height="24" fill="currentColor" viewBox="0 0 24 24">
  <path fill-rule="evenodd" d="M14.519 2.2a.75.75 0 0 1 .75-.75h5.781a1.5 1.5 0 0 1 1.5 1.5v5.781a.75.75 0 0 1-1.5 0V2.95h-5.781a.75.75 0 0 1-.75-.75Z" clip-rule="evenodd"/>
  <path fill-rule="evenodd" d="M21.53 2.47a.75.75 0 0 1 0 1.06l-6 6a.75.75 0 1 1-1.06-1.06l6-6a.75.75 0 0 1 1.06 0ZM2.2 14.519a.75.75 0 0 1 .75.75v5.781h5.781a.75.75 0 0 1 0 1.5H2.95a1.5 1.5 0 0 1-1.5-1.5v-5.781a.75.75 0 0 1 .75-.75Z" clip-rule="evenodd"/>
  <path fill-rule="evenodd" d="M9.53 14.47a.75.75 0 0 1 0 1.06l-6 6a.75.75 0 0 1-1.06-1.06l6-6a.75.75 0 0 1 1.06 0Z" clip-rule="evenodd"/>
</svg>
