<svg xmlns="http://www.w3.org/2000/svg" width="24" height="24" fill="currentColor" viewBox="0 0 24 24">
  <path fill-rule="evenodd" d="M12 2.95a9.05 9.05 0 1 0 0 18.1 9.05 9.05 0 0 0 0-18.1ZM1.45 12C1.45 6.173 6.173 1.45 12 1.45c5.827 0 10.55 4.723 10.55 10.55 0 5.827-4.723 10.55-10.55 10.55-5.827 0-10.55-4.723-10.55-10.55Z" clip-rule="evenodd"/>
  <path fill-rule="evenodd" d="M16.982 7.018a.75.75 0 0 1 .16.825l-2.667 6.237a.75.75 0 0 1-1.22.235l-3.57-3.57a.75.75 0 0 1 .235-1.22l6.237-2.667a.75.75 0 0 1 .825.16Zm-5.453 3.45 2.002 2.003 1.496-3.498-3.498 1.496Z" clip-rule="evenodd"/>
  <path fill-rule="evenodd" d="M10.073 9.479a.75.75 0 0 1 .672.206l3.57 3.57a.75.75 0 0 1-.235 1.22l-6.237 2.667a.75.75 0 0 1-.985-.985L9.525 9.92a.75.75 0 0 1 .548-.441Zm.396 2.05-1.496 3.498 3.498-1.496-2.002-2.002Z" clip-rule="evenodd"/>
</svg>
