<svg xmlns="http://www.w3.org/2000/svg" width="24" height="24" fill="currentColor" viewBox="0 0 24 24">
  <path d="M16.982 7.018a.75.75 0 0 1 .16.825l-2.666 6.234"/>
  <path fill-rule="evenodd" d="M14.475 14.08a.754.754 0 0 1-.395.395l-6.237 2.667a.75.75 0 0 1-.985-.985l2.666-6.234a.75.75 0 0 1 .399-.399l6.234-2.666a.75.75 0 0 1 .825.16m-5.453 3.45 2.002 2.003 1.496-3.498-3.498 1.496Zm-1.06 1.061-1.496 3.498 3.498-1.496-2.002-2.002Z" clip-rule="evenodd"/>
  <path fill-rule="evenodd" d="M1.45 12C1.45 6.173 6.173 1.45 12 1.45c5.827 0 10.55 4.723 10.55 10.55 0 5.827-4.723 10.55-10.55 10.55-5.827 0-10.55-4.723-10.55-10.55ZM12 2.95a9.05 9.05 0 1 0 0 18.1 9.05 9.05 0 0 0 0-18.1Z" clip-rule="evenodd"/>
</svg>
