<svg xmlns="http://www.w3.org/2000/svg" width="24" height="24" fill="currentColor" viewBox="0 0 24 24">
  <path d="M19.722 1.5c1.605 0 2.778 1.415 2.778 2.993V9A.75.75 0 0 1 21 9V7.5H3v12.052C3 20.409 3.627 21 4.277 21h6.973a.75.75 0 0 1 0 1.5H4.277c-1.591 0-2.777-1.38-2.777-2.948V4.493C1.5 2.915 2.673 1.5 4.278 1.5h15.444Zm-.222 9a.75.75 0 0 1 .75.75v1.5h1.5a.75.75 0 0 1 0 1.5H21v1.49a3.762 3.762 0 0 1-3 3.685v2.325a.75.75 0 0 1-1.5 0v-2.325a3.762 3.762 0 0 1-3-3.685v-1.49h-.75a.75.75 0 0 1 0-1.5h1.5v-1.5a.75.75 0 0 1 1.5 0v1.5h3v-1.5a.75.75 0 0 1 .75-.75ZM15 15.74A2.258 2.258 0 0 0 17.25 18a2.258 2.258 0 0 0 2.25-2.26v-1.49H15v1.49ZM4.158 3.007C3.563 3.076 3 3.653 3 4.493V6h18V4.493C21 3.596 20.36 3 19.722 3H4.278c-.04 0-.08.002-.12.007Zm10.277.743a.607.607 0 0 1 .4.152.481.481 0 0 1 .165.366v.463a.481.481 0 0 1-.165.367.607.607 0 0 1-.4.152h-.37l-.114-.01a.598.598 0 0 1-.101-.03l-.03-.014a.57.57 0 0 1-.144-.09l-.024-.023a.534.534 0 0 1-.09-.12c-.008-.014-.017-.027-.023-.042a.478.478 0 0 1-.021-.065l-.007-.025a.482.482 0 0 1-.011-.1V4.27a.481.481 0 0 1 .165-.367.607.607 0 0 1 .4-.152h.37Zm2.25 0a.607.607 0 0 1 .4.152.481.481 0 0 1 .165.366v.463a.481.481 0 0 1-.165.367.607.607 0 0 1-.4.152h-.37l-.114-.01a.598.598 0 0 1-.101-.03l-.03-.014a.57.57 0 0 1-.144-.09l-.024-.023a.534.534 0 0 1-.09-.12c-.008-.014-.017-.027-.023-.042a.478.478 0 0 1-.021-.065l-.007-.025a.482.482 0 0 1-.011-.1V4.27a.481.481 0 0 1 .165-.367.607.607 0 0 1 .4-.152h.37Zm2.25 0a.607.607 0 0 1 .4.152.481.481 0 0 1 .165.366v.463a.481.481 0 0 1-.165.367.607.607 0 0 1-.4.152h-.37l-.114-.01a.598.598 0 0 1-.101-.03l-.03-.014a.57.57 0 0 1-.144-.09l-.024-.023a.534.534 0 0 1-.09-.12c-.008-.014-.017-.027-.023-.042a.478.478 0 0 1-.021-.065l-.007-.025a.482.482 0 0 1-.011-.1V4.27a.481.481 0 0 1 .165-.367.607.607 0 0 1 .4-.152h.37Z"/>
</svg>
