<svg xmlns="http://www.w3.org/2000/svg" width="24" height="24" fill="currentColor" viewBox="0 0 24 24">
  <path d="M18.441 12.691a2.388 2.388 0 0 1 3.362 0c.93.93.93 2.43 0 3.36l-5.748 5.744a.726.726 0 0 1-.345.195l-1.823.457c-.128.03-.248.045-.375.045v.008c-.398 0-.78-.157-1.066-.442a1.485 1.485 0 0 1-.397-1.44h-.008l.458-1.822a.717.717 0 0 1 .195-.345l5.747-5.76Zm2.303 1.066a.87.87 0 0 0-1.237 0l-5.605 5.601-.405 1.62v.007l1.65-.397 5.597-5.594a.882.882 0 0 0 0-1.237ZM18.321 1.5c1.88 0 3.429 1.499 3.429 3.377V10.5a.75.75 0 0 1-1.5 0V4.877C20.25 3.854 19.4 3 18.321 3H4.93C3.849 3 3 3.854 3 4.877v8.54c0 .511.195.884.494 1.14.312.265.785.443 1.381.443H6a.75.75 0 0 1 .75.75v2.148l3.27-2.724A.751.751 0 0 1 10.5 15h2.25a.75.75 0 0 1 0 1.5h-1.979l-3.273 2.727a.745.745 0 0 1-.066.05c-.53.35-1.12.231-1.506-.03A1.524 1.524 0 0 1 5.25 18v-1.5h-.375c-.884 0-1.723-.263-2.354-.8-.641-.55-1.021-1.345-1.021-2.284v-8.54C1.5 2.999 3.048 1.5 4.929 1.5H18.32Z"/>
</svg>
