<svg xmlns="http://www.w3.org/2000/svg" width="24" height="24" fill="none" viewBox="0 0 24 24">
  <path fill="#3D3C3C" fill-rule="evenodd" d="m9.523 9.95-6.4-6.224a.381.381 0 0 1-.12-.217.32.32 0 0 1 .04-.196c.08-.144.286-.315.642-.315H15.75a.75.75 0 1 0 0-1.498H3.67c-.858.005-1.587.441-1.944 1.1-.371.683-.3 1.549.341 2.189l6.184 6.014v9.794c0 1.105.917 1.694 1.695 1.85.787.159 1.8-.024 2.416-.802l3.22-3.945c.11-.133.17-.3.17-.473v-2.995a.75.75 0 0 0-1.5 0v2.729l-3.056 3.743-.008.01c-.172.218-.544.346-.946.265-.414-.083-.49-.284-.49-.382v-10.11a.748.748 0 0 0-.228-.537Zm2.923 1.608a1.51 1.51 0 0 0 1.066.442v-.008c.127 0 .247-.015.375-.045l1.823-.457a.726.726 0 0 0 .345-.195l5.747-5.744c.93-.93.93-2.43 0-3.36a2.387 2.387 0 0 0-3.361 0l-5.747 5.76a.717.717 0 0 0-.195.345l-.458 1.822h.008a1.486 1.486 0 0 0 .397 1.44Zm1.05-1.073v-.007l.406-1.62 5.604-5.601a.87.87 0 0 1 1.238 0c.338.345.338.9 0 1.237l-5.597 5.594-1.65.397Z" clip-rule="evenodd"/>
</svg>
