<svg xmlns="http://www.w3.org/2000/svg" width="24" height="24" fill="currentColor" viewBox="0 0 24 24">
  <path d="M18.217 2.235a2.507 2.507 0 0 1 3.547 0l.089.094a2.51 2.51 0 0 1-.089 3.457l-6.226 6.223a.75.75 0 0 1-.347.197l-1.977.496-.002.001a1.582 1.582 0 0 1-1.915-1.915v-.002l.497-1.976a.75.75 0 0 1 .197-.347l6.225-6.228h.001Zm2.485 1.06a1.008 1.008 0 0 0-1.425 0l-6.08 6.082-.445 1.772a.071.071 0 0 0 0 .04.09.09 0 0 0 .06.058h.039l1.773-.445 6.08-6.077a1.011 1.011 0 0 0 0-1.43H20.7Z"/>
  <path d="M12.75 15a.75.75 0 0 1 1.5 0v2.262a.753.753 0 0 1-.112.394l-2.466 3.995h.001c-.27.448-.719.673-1.12.773a2.94 2.94 0 0 1-1.258.016 2.658 2.658 0 0 1-1.161-.523c-.347-.284-.634-.716-.634-1.276V11.93L2.023 6.124l.001-.001c-.596-.609-.66-1.427-.31-2.075.339-.627 1.028-1.04 1.837-1.047L3.566 3H13.5l.076.004a.75.75 0 0 1 0 1.492L13.5 4.5H3.572c-.307 0-.477.148-.539.261a.242.242 0 0 0-.032.148.255.255 0 0 0 .052.117l.046.053.016.016 5.68 6.022a.75.75 0 0 1 .205.515v9.009c0 .003-.007.04.085.116.101.083.276.166.502.211.224.045.442.04.605 0 .147-.037.191-.085.197-.092l.004-.006 2.357-3.822V15Z"/>
</svg>
