<svg xmlns="http://www.w3.org/2000/svg" width="24" height="24" fill="currentColor" viewBox="0 0 24 24">
  <path fill-rule="evenodd" d="m3.123 3.727 6.414 6.235a.75.75 0 0 1 .228.538v10.064c0 .112.09.319.492.408.392.088.75-.033.916-.246l.007-.008 3.055-3.774v-6.071a.75.75 0 0 1 .212-.522l6.419-6.613.008-.008a.383.383 0 0 0 .123-.219.32.32 0 0 0-.04-.196c-.079-.144-.285-.315-.64-.315H3.683c-.355 0-.561.171-.64.315a.32.32 0 0 0-.04.196.381.381 0 0 0 .12.216ZM20.317 1.5c.865 0 1.6.438 1.958 1.1.37.684.3 1.547-.336 2.187l-6.204 6.39v6.033a.75.75 0 0 1-.167.472l-3.219 3.976c-.62.785-1.635.953-2.418.778-.776-.172-1.666-.78-1.666-1.872v-9.747l-6.2-6.025c-.64-.64-.71-1.507-.34-2.191.357-.66 1.084-1.096 1.942-1.1a.78.78 0 0 1 .009-.001h16.641Z" clip-rule="evenodd"/>
</svg>
