<svg xmlns="http://www.w3.org/2000/svg" width="24" height="24" fill="currentColor" viewBox="0 0 24 24">
  <path d="M19.678 2.25c.818 0 1.516.416 1.858 1.048.353.654.285 1.482-.325 2.092a.574.574 0 0 1-.018.017l-6.192 5.8v5.305c0 .139-.04.275-.112.394L12.423 20.9c-.27.448-.719.673-1.12.773a2.94 2.94 0 0 1-1.258.016 2.658 2.658 0 0 1-1.16-.523c-.347-.284-.635-.716-.635-1.276v-8.71L2.774 5.374c-.595-.61-.66-1.428-.31-2.076.339-.627 1.028-1.04 1.837-1.047l.015-.001h15.362ZM9.75 19.891c0 .003-.006.04.086.116.1.083.275.167.501.211.224.045.442.04.605 0 .147-.037.191-.085.197-.092l.004-.006 2.358-3.821v-5.417a.75.75 0 0 1 .237-.547l6.417-6.012c.07-.072.089-.13.093-.164a.241.241 0 0 0-.032-.148c-.061-.113-.231-.26-.538-.261H4.322c-.307 0-.477.148-.538.261a.242.242 0 0 0-.033.148.255.255 0 0 0 .052.117l.047.053.015.016 5.68 6.022a.75.75 0 0 1 .205.515v9.01Z"/>
</svg>
