<svg xmlns="http://www.w3.org/2000/svg" width="24" height="24" fill="currentColor" viewBox="0 0 24 24">
  <path d="M13.577 3.004a.75.75 0 0 1 0 1.492L13.5 4.5H3.57c-.306 0-.476.148-.537.262a.243.243 0 0 0-.032.147.256.256 0 0 0 .051.117l.046.053.016.016 5.68 6.022a.75.75 0 0 1 .205.516v9.009c0 .005-.003.042.086.115.1.083.276.167.502.212.223.044.441.04.604-.001.147-.037.191-.085.197-.092l.004-.006 2.358-3.821v-5.416c0-.198.079-.39.218-.53l1.5-1.506a.75.75 0 0 1 1.063 1.057l-1.281 1.287v5.32c0 .14-.04.277-.113.395l-2.466 3.995.002.001c-.27.447-.72.672-1.122.772a2.94 2.94 0 0 1-1.256.016 2.66 2.66 0 0 1-1.162-.523c-.346-.284-.634-.716-.634-1.275V11.93L2.024 6.124c-.595-.61-.66-1.428-.31-2.076C2.053 3.42 2.742 3.008 3.55 3h9.951l.076.004ZM18.75 1.5a3.751 3.751 0 0 1 0 7.5A3.752 3.752 0 0 1 15 5.25a3.751 3.751 0 0 1 3.75-3.75Z"/>
</svg>
