<svg xmlns="http://www.w3.org/2000/svg" width="24" height="24" fill="currentColor" viewBox="0 0 24 24">
  <path fill-rule="evenodd" d="M1.5 21.75a.75.75 0 0 1 .75-.75h19.5a.75.75 0 0 1 0 1.5H2.25a.75.75 0 0 1-.75-.75ZM13.465 1.992l.002.001 8.208 6.298c.814.624 1.005 1.583.664 2.38-.333.778-1.134 1.329-2.13 1.329H3.786c-.994 0-1.792-.553-2.124-1.329-.34-.794-.155-1.753.656-2.379l.002-.001 8.143-6.248a.75.75 0 0 1 .058-.05 2.446 2.446 0 0 1 2.944-.001ZM11.49 3.144a.73.73 0 0 1-.045.037l-8.21 6.298v.001c-.255.197-.271.42-.193.601.086.2.325.419.745.419H20.21c.425 0 .666-.22.75-.419.077-.18.062-.402-.196-.6l-8.215-6.302a.952.952 0 0 0-1.06-.035Z" clip-rule="evenodd"/>
  <path fill-rule="evenodd" d="M12 10.5a.75.75 0 0 1 .75.75v10.5a.75.75 0 0 1-1.5 0v-10.5a.75.75 0 0 1 .75-.75Zm-7.5 0a.75.75 0 0 1 .75.75v10.5a.75.75 0 0 1-1.5 0v-10.5a.75.75 0 0 1 .75-.75Zm15 0a.75.75 0 0 1 .75.75v10.5a.75.75 0 0 1-1.5 0v-10.5a.75.75 0 0 1 .75-.75Z" clip-rule="evenodd"/>
</svg>
