<svg xmlns="http://www.w3.org/2000/svg" width="24" height="24" fill="currentColor" viewBox="0 0 24 24">
  <path fill-rule="evenodd" d="m13.465 1.992.002.001 8.208 6.298c.814.624 1.005 1.583.664 2.38-.328.767-1.112 1.314-2.089 1.329v9h1.5a.75.75 0 0 1 0 1.5H2.25a.75.75 0 0 1 0-1.5h1.5v-9c-.977-.014-1.76-.562-2.088-1.329-.34-.794-.155-1.753.656-2.379l.002-.001 8.143-6.248a.752.752 0 0 1 .059-.05 2.446 2.446 0 0 1 2.943-.001ZM18.75 21v-9h-6v9h6Zm.75-10.5h.71c.424 0 .665-.22.75-.419.076-.18.061-.402-.197-.6l-8.215-6.302a.952.952 0 0 0-1.06-.035.797.797 0 0 1-.044.037l-8.21 6.298v.001c-.255.197-.271.42-.193.601.086.2.325.419.745.419H19.5ZM11.25 21h-6v-9h6v9Z" clip-rule="evenodd"/>
</svg>
