<svg xmlns="http://www.w3.org/2000/svg" width="24" height="24" fill="currentColor" viewBox="0 0 24 24">
  <path fill-rule="evenodd" d="M8.281 1.5c1.75.012 3.256 1.03 4.297 2.516.845 1.207 1.413 2.76 1.602 4.472.058-.081.122-.173.193-.279.323-.485.89-1.414 2.048-1.455a.75.75 0 0 1 .83.746c-.001 1.672.479 2.467 1.017 3.364.587.978 1.232 2.058 1.232 4.136l-.01.386a7.493 7.493 0 0 1-7.103 7.104L12 22.5h-.75l-.387-.01a7.493 7.493 0 0 1-7.103-7.104L3.75 15c0-2.859 1.817-4.709 2.988-6.337C7.348 7.814 7.825 7 8.023 6.06c.194-.926.133-2.048-.468-3.526a.75.75 0 0 1 .374-.96l.036-.017h.002l.027-.01c.01-.004.021-.009.033-.012l.013-.004a.746.746 0 0 1 .124-.025l.012-.002a.746.746 0 0 1 .105-.003Zm4.257 12.104A4.496 4.496 0 0 0 9 18l.004.157c.067 1.506 1.096 2.683 2.666 2.828.82-.054 1.465-.26 1.902-.531.446-.277.63-.58.67-.844l.008-.11c0-1.074-.477-1.501-1.077-2.473-.293-.474-.57-1.038-.676-1.788a5.45 5.45 0 0 1 .04-1.636ZM9.365 3.213c.309 1.175.324 2.21.126 3.153-.263 1.25-.886 2.268-1.536 3.172C6.603 11.42 5.25 12.76 5.25 15l.008.31a5.987 5.987 0 0 0 2.682 4.696 4.671 4.671 0 0 1-.435-1.776L7.5 18a5.996 5.996 0 0 1 6.073-5.997l.019.003a.746.746 0 0 1 .052.008l.034.008.03.008.015.004a.41.41 0 0 1 .049.018l.01.003a.75.75 0 0 1 .071.033l.034.02.029.018c.006.004.012.01.018.013a.741.741 0 0 1 .307.5c0 .009.003.017.004.026l.002.037.002.042.001.006-.002.024a.676.676 0 0 1-.023.164l-.005.02c-.272.941-.305 1.591-.237 2.072.066.474.237.838.465 1.208.443.715 1.302 1.638 1.302 3.262l-.007.177-.002.014a5.982 5.982 0 0 0 2.25-4.382L18 15c0-1.671-.48-2.467-1.018-3.364-.458-.764-.95-1.59-1.145-2.905-.064.088-.136.19-.216.31-.329.493-.912 1.46-2.121 1.46a.75.75 0 0 1-.746-.675l-.004-.076c0-1.938-.55-3.658-1.401-4.874-.57-.814-1.254-1.377-1.984-1.661Z" clip-rule="evenodd"/>
</svg>
