<svg xmlns="http://www.w3.org/2000/svg" width="24" height="24" fill="none" viewBox="0 0 24 24">
  <path fill="#3D3C3C" d="M19.49 3H4.51c-.42 0-.76.336-.76.75v9.602h15.723c.664 0 1.008-.782.555-1.262L17.06 8.945a.743.743 0 0 1-.035-.983l3.056-3.741c.401-.49.047-1.221-.59-1.221Z"/>
  <path fill="#3D3C3C" fill-rule="evenodd" d="M3 3.75c0-.828.68-1.5 1.517-1.5H19.48c1.275 0 1.981 1.46 1.18 2.442l-3.052 3.741 2.965 3.146c.905.959.217 2.671-1.11 2.671H4.518v7.5c0 .414-.34.75-.758.75a.754.754 0 0 1-.76-.75v-18Zm1.517 8.852h14.947l-2.966-3.146a1.487 1.487 0 0 1-.071-1.965L19.48 3.75H4.517v8.852Z" clip-rule="evenodd"/>
</svg>
