<svg xmlns="http://www.w3.org/2000/svg" width="24" height="24" fill="currentColor" viewBox="0 0 24 24">
  <path d="M16.717 12a4.717 4.717 0 1 0-9.434 0 4.717 4.717 0 0 0 9.434 0Zm1.5 0a6.218 6.218 0 1 1-12.435 0 6.218 6.218 0 0 1 12.435 0ZM18 2.25a.75.75 0 0 1 1.5 0v3a.75.75 0 0 1-.75.75h-3a.75.75 0 0 1 0-1.5H18V2.25ZM4.5 21.75v-3a.75.75 0 0 1 .75-.75h3a.75.75 0 0 1 0 1.5H6v2.25a.75.75 0 0 1-1.5 0Z"/>
  <path d="M1.5 12C1.5 6.199 6.199 1.5 12 1.5c2.862 0 5.356.92 7.28 2.845a.75.75 0 1 1-1.06 1.06C16.614 3.8 14.52 3 12 3a8.997 8.997 0 0 0-7.794 13.5.75.75 0 0 1-1.299.75A10.454 10.454 0 0 1 1.5 12ZM21 12c0-1.643-.44-3.176-1.206-4.5a.75.75 0 0 1 1.299-.75A10.454 10.454 0 0 1 22.5 12c0 5.801-4.699 10.5-10.5 10.5-2.862 0-5.356-.92-7.28-2.845a.75.75 0 1 1 1.06-1.06C7.386 20.2 9.48 21 12 21c4.973 0 9-4.027 9-9Z"/>
  <path d="M15.75 12a.75.75 0 0 1-.375.65l-4.5 2.598a.75.75 0 0 1-1.125-.65V9.402a.75.75 0 0 1 1.125-.65l4.5 2.598a.75.75 0 0 1 .375.65Zm-4.5-1.299V13.3L13.5 12l-2.25-1.299Z"/>
</svg>
