<svg xmlns="http://www.w3.org/2000/svg" width="24" height="24" fill="currentColor" viewBox="0 0 24 24">
  <path fill-rule="evenodd" d="M6 4.5a1.5 1.5 0 1 0 0 3 1.5 1.5 0 0 0 0-3ZM3 6a3 3 0 0 1 5.905-.75h6.19a3.001 3.001 0 1 1 1.891 3.574L8.271 17.54c.297.344.518.756.634 1.21H15V18a1.5 1.5 0 0 1 1.5-1.5h3A1.5 1.5 0 0 1 21 18v3a1.5 1.5 0 0 1-1.5 1.5h-3A1.5 1.5 0 0 1 15 21v-.75H8.905A3.001 3.001 0 0 1 3 19.5a3 3 0 0 1 4.014-2.824l8.715-8.716a2.991 2.991 0 0 1-.634-1.21h-6.19A3.001 3.001 0 0 1 3 6Zm13.5 14.25V21h3v-3h-3v2.25ZM16.5 6a1.5 1.5 0 1 0 3 0 1.5 1.5 0 0 0-3 0Zm-12 13.5a1.5 1.5 0 1 1 3 0 1.5 1.5 0 0 1-3 0Z" clip-rule="evenodd"/>
</svg>
