<svg xmlns="http://www.w3.org/2000/svg" width="24" height="24" fill="currentColor" viewBox="0 0 24 24">
  <path fill-rule="evenodd" d="M1.5 4.286c0-1.117.906-2.036 2.028-2.036h5.52c.823 0 1.567.5 1.877 1.263l.804 1.737H18c.632 0 1.189.324 1.567.71.376.383.683.936.683 1.54v.75h.23c1.11 0 2.02.9 2.02 2.013v.237a.75.75 0 0 1-1.5 0v-.237a.52.52 0 0 0-.52-.513H6.52a.52.52 0 0 0-.52.513v9.987h3.75a.75.75 0 0 1 0 1.5H3.528A2.035 2.035 0 0 1 1.5 19.714V4.286ZM18.75 7.5v.75H6.52c-1.11 0-2.02.9-2.02 2.013v9.987h-.972A.536.536 0 0 1 3 19.714V4.286c0-.298.244-.536.528-.536h5.52c.216 0 .411.133.49.334a.75.75 0 0 0 .018.041l1.013 2.19a.75.75 0 0 0 .681.435H18c.118 0 .311.072.496.26.186.19.254.386.254.49ZM18 15a.75.75 0 0 0-1.5 0v1.5H15a.75.75 0 0 0 0 1.5h1.5v1.5a.75.75 0 0 0 1.5 0V18h1.5a.75.75 0 0 0 0-1.5H18V15Zm-.75-3A5.25 5.25 0 0 0 12 17.25a5.25 5.25 0 1 0 10.5 0A5.25 5.25 0 0 0 17.25 12Zm-3.75 5.25a3.75 3.75 0 1 1 7.499-.001 3.75 3.75 0 0 1-7.499.001Z" clip-rule="evenodd"/>
</svg>
