<svg xmlns="http://www.w3.org/2000/svg" width="24" height="24" fill="currentColor" viewBox="0 0 24 24">
  <path fill-rule="evenodd" d="M3.583 2.25c-1.121 0-2.083.889-2.083 2.036v15.428c0 1.147.962 2.036 2.083 2.036h1.334a.75.75 0 0 0 .166-.019.75.75 0 0 0 .167.019h15.23c1.11 0 2.02-.9 2.02-2.013v-9.474A2.02 2.02 0 0 0 21 8.318V7.5c0-.472-.123-1.033-.497-1.49-.396-.483-.996-.76-1.753-.76h-6.651l-.83-1.746A2.084 2.084 0 0 0 9.342 2.25h-5.76Zm15.917 6V7.5c0-.235-.064-.425-.159-.54-.073-.09-.223-.21-.591-.21h-7.125a.75.75 0 0 1-.677-.428l-1.042-2.19a.584.584 0 0 0-.563-.382h-5.76c-.345 0-.583.268-.583.536v15.428c0 .268.238.536.583.536H4.5v-9.987A2.02 2.02 0 0 1 6.52 8.25H19.5ZM6 10.263a.52.52 0 0 1 .52-.513h13.96a.52.52 0 0 1 .52.513v9.474a.52.52 0 0 1-.52.513H6v-9.987Z" clip-rule="evenodd"/>
</svg>
