<svg xmlns="http://www.w3.org/2000/svg" width="24" height="24" fill="currentColor" viewBox="0 0 24 24">
  <path fill-rule="evenodd" d="M3.528 2.25A2.036 2.036 0 0 0 1.5 4.286v15.428c0 1.117.906 2.036 2.028 2.036H9.75a.75.75 0 0 0 0-1.5H6v-9.987a.52.52 0 0 1 .52-.513h13.96a.52.52 0 0 1 .52.513v.237a.75.75 0 0 0 1.5 0v-.237a2.02 2.02 0 0 0-2.02-2.013h-.23V7.5c0-.604-.307-1.157-.683-1.54-.378-.386-.935-.71-1.567-.71h-6.27l-.805-1.737A2.028 2.028 0 0 0 9.048 2.25h-5.52Zm15.222 6V7.5c0-.104-.068-.3-.254-.49-.184-.188-.378-.26-.496-.26h-6.75a.75.75 0 0 1-.68-.435l-1.014-2.19a.75.75 0 0 1-.018-.041.528.528 0 0 0-.49-.334h-5.52A.536.536 0 0 0 3 4.286v15.428c0 .298.244.536.528.536H4.5v-9.987A2.02 2.02 0 0 1 6.52 8.25h12.23ZM16.5 13.5a3 3 0 1 0 0 6 3 3 0 0 0 0-6Zm-4.5 3a4.5 4.5 0 1 1 8.168 2.607l2.112 2.113a.75.75 0 1 1-1.06 1.06l-2.113-2.112A4.5 4.5 0 0 1 12 16.5Z" clip-rule="evenodd"/>
</svg>
