<svg xmlns="http://www.w3.org/2000/svg" width="24" height="24" fill="currentColor" viewBox="0 0 24 24">
  <path fill-rule="evenodd" d="M6.52 1.5c-1.132 0-2.02.942-2.02 2.054V4.5a.75.75 0 0 0 1.5 0v-.946C6 3.232 6.255 3 6.52 3h4.441c.195 0 .275.045.34.101.1.086.225.253.403.61l.75 1.5a.75.75 0 0 0 .671.414h7.125c.209 0 .37.098.516.34.158.26.234.608.234.85v8.935a.75.75 0 0 0 1.5 0V6.815c0-.475-.13-1.098-.45-1.627-.332-.55-.92-1.063-1.8-1.063h-6.662l-.542-1.085c-.197-.394-.43-.79-.77-1.079-.371-.318-.81-.461-1.315-.461H6.52Zm-3 4.5C2.387 6 1.5 6.942 1.5 8.054v12.392c0 1.112.888 2.054 2.02 2.054h13.96c1.132 0 2.02-.942 2.02-2.054v-9.13c0-.476-.13-1.099-.45-1.628-.332-.55-.92-1.063-1.8-1.063h-6.662l-.542-1.085c-.197-.394-.43-.79-.77-1.079C8.906 6.143 8.467 6 7.963 6H3.519ZM3 8.054c0-.322.255-.554.52-.554h4.442c.194 0 .274.045.34.101.1.086.224.253.402.61l.75 1.5a.75.75 0 0 0 .671.414h7.125c.209 0 .37.098.516.34.158.26.234.608.234.85v9.13c0 .323-.255.555-.52.555H3.52a.542.542 0 0 1-.52-.554V8.054Z" clip-rule="evenodd"/>
</svg>
