<svg xmlns="http://www.w3.org/2000/svg" width="24" height="24" fill="currentColor" viewBox="0 0 24 24">
  <path fill-rule="evenodd" d="M10.47 3.347c-.216-.752-.556-1.297-1.104-1.593-.473-.256-.994-.255-1.334-.254H3.635C2.502 1.5 1.5 2.381 1.5 3.554V17.25a.75.75 0 0 0 1.5 0V3.554C3 3.293 3.244 3 3.635 3h4.342c.425 0 .57.016.674.073.054.029.22.136.378.687v.002l.375 1.318a.75.75 0 0 0 .721.545h8.642c.268 0 .404.055.47.094a.375.375 0 0 1 .149.175c.102.219.114.53.114.921V8.25a.75.75 0 0 0 1.5 0V6.775c0-.338.001-.968-.256-1.517a1.872 1.872 0 0 0-.732-.823c-.351-.212-.771-.31-1.245-.31h-8.075l-.22-.776-.001-.002ZM6.52 6.75c-1.096 0-2.02.877-2.02 1.99v11.77c0 1.113.924 1.99 2.02 1.99h13.96c1.096 0 2.02-.877 2.02-1.99v-8.673c0-.486-.148-1.023-.55-1.443-.412-.429-1.001-.644-1.7-.644h-6.242l-.562-1.404a.73.73 0 0 0-.008-.02c-.536-1.234-1.636-1.576-2.563-1.576H6.519ZM6 8.74c0-.251.218-.49.52-.49h4.355c.57 0 .968.178 1.183.665l.746 1.864a.75.75 0 0 0 .696.471h6.75c.389 0 .55.113.617.182.075.078.133.21.133.405v8.674c0 .25-.218.489-.52.489H6.52a.509.509 0 0 1-.52-.49V8.74Z" clip-rule="evenodd"/>
</svg>
