<svg xmlns="http://www.w3.org/2000/svg" width="24" height="24" fill="none" viewBox="0 0 24 24">
  <path fill="#3D3C3C" fill-rule="evenodd" d="M3.225 4.5A.228.228 0 0 0 3 4.73v13.782a.23.23 0 0 0 .225.238h17.55c.113 0 .225-.1.225-.238V7.043a.23.23 0 0 0-.225-.238H9.611c-.548 0-1.07-.228-1.449-.606l-.004-.004L6.643 4.66a.534.534 0 0 0-.382-.16H3.225ZM22.5 7.043c0-.96-.77-1.738-1.725-1.738H9.611a.564.564 0 0 1-.387-.165L7.716 3.612A2.034 2.034 0 0 0 6.261 3H3.225C2.273 3 1.5 3.774 1.5 4.73v13.782c0 .96.77 1.738 1.725 1.738h17.55a1.734 1.734 0 0 0 1.725-1.724V7.043Z" clip-rule="evenodd"/>
</svg>
