<svg xmlns="http://www.w3.org/2000/svg" width="24" height="24" fill="currentColor" viewBox="0 0 24 24">
  <path fill-rule="evenodd" d="M1.5 4.286c0-1.117.906-2.036 2.028-2.036h5.52c.823 0 1.567.5 1.877 1.263l.804 1.737H18c.632 0 1.189.324 1.567.71.376.383.683.936.683 1.54v.75h.23c1.11 0 2.02.9 2.02 2.013v.237a.75.75 0 0 1-1.5 0v-.237a.52.52 0 0 0-.52-.513H6.52a.52.52 0 0 0-.52.513v9.987h3.75a.75.75 0 0 1 0 1.5H3.528A2.035 2.035 0 0 1 1.5 19.714V4.286ZM18.75 7.5v.75H6.52c-1.11 0-2.02.9-2.02 2.013v9.987h-.972A.536.536 0 0 1 3 19.714V4.286c0-.298.244-.536.528-.536h5.52c.216 0 .411.133.49.334a.75.75 0 0 0 .018.041l1.013 2.19a.75.75 0 0 0 .681.435H18c.118 0 .311.072.496.26.186.19.254.386.254.49Zm-6.304 14.558c.285.285.668.442 1.066.442v-.008c.127 0 .247-.015.375-.044l1.823-.458a.726.726 0 0 0 .345-.195l5.747-5.744c.93-.93.93-2.43 0-3.36a2.387 2.387 0 0 0-3.361 0l-5.747 5.76a.718.718 0 0 0-.195.345l-.458 1.822h.008a1.486 1.486 0 0 0 .397 1.44Zm1.05-1.073v-.007l.406-1.62 5.604-5.601a.87.87 0 0 1 1.238 0c.338.345.338.9 0 1.237l-5.597 5.594-1.65.397Z" clip-rule="evenodd"/>
</svg>
