<svg xmlns="http://www.w3.org/2000/svg" width="24" height="24" fill="currentColor" viewBox="0 0 24 24">
  <path fill-rule="evenodd" d="M1.5 4.286c0-1.117.906-2.036 2.028-2.036h5.52c.823 0 1.567.5 1.877 1.263l.804 1.737H18c.632 0 1.189.324 1.567.71.376.383.683.936.683 1.54v.75h.23c1.11 0 2.02.9 2.02 2.013v.237a.75.75 0 0 1-1.5 0v-.237a.52.52 0 0 0-.52-.513H6.52a.52.52 0 0 0-.52.513v9.987h4.5a.75.75 0 0 1 0 1.5H3.528A2.035 2.035 0 0 1 1.5 19.714V4.286ZM18.75 7.5v.75H6.52c-1.11 0-2.02.9-2.02 2.013v9.987h-.972A.536.536 0 0 1 3 19.714V4.286c0-.298.244-.536.528-.536h5.52c.216 0 .411.133.49.334a.75.75 0 0 0 .018.041l1.013 2.19a.75.75 0 0 0 .681.435H18c.118 0 .311.072.496.26.186.19.254.386.254.49Zm-4.5 11.59v-5.316c.003-.411.502-1.024 1.503-1.024 1.003 0 1.498.615 1.498 1.022v4.866a.162.162 0 0 1-.043.046.546.546 0 0 1-.333.099.546.546 0 0 1-.333-.1.162.162 0 0 1-.044-.045v-3.979a.75.75 0 0 0-1.5 0v3.986c0 1.062 1.016 1.638 1.877 1.638.86 0 1.877-.576 1.877-1.638v-4.873c0-1.55-1.52-2.522-3-2.522s-2.995.973-3.002 2.518v5.323c0 2.04 2.023 3.409 4.125 3.409S21 21.13 21 19.09V15a.75.75 0 0 0-1.5 0v4.09c0 .899-.999 1.91-2.625 1.91s-2.625-1.011-2.625-1.91Z" clip-rule="evenodd"/>
</svg>
