<svg xmlns="http://www.w3.org/2000/svg" width="24" height="24" fill="currentColor" viewBox="0 0 24 24">
  <path fill-rule="evenodd" d="M1.5 4.286c0-1.117.906-2.036 2.028-2.036h5.52c.823 0 1.567.5 1.877 1.263l.804 1.737H18c.632 0 1.189.324 1.567.71.376.383.683.936.683 1.54v.75h.23c1.11 0 2.02.9 2.02 2.013v.237a.75.75 0 0 1-1.5 0v-.237a.52.52 0 0 0-.52-.513H6.52a.52.52 0 0 0-.52.513v9.987h3.75a.75.75 0 0 1 0 1.5H3.528A2.035 2.035 0 0 1 1.5 19.714V4.286Zm3 15.964v-9.987A2.02 2.02 0 0 1 6.52 8.25h12.23V7.5c0-.104-.068-.3-.254-.49-.184-.188-.378-.26-.496-.26h-6.75a.75.75 0 0 1-.68-.435l-1.014-2.19a.75.75 0 0 1-.018-.041.528.528 0 0 0-.49-.334h-5.52A.536.536 0 0 0 3 4.286v15.428c0 .298.244.536.528.536H4.5Zm12.045-6.457a3.75 3.75 0 0 1 4.447 5.718l-4.447-5.718Zm-1.24.85a3.75 3.75 0 0 0 4.56 5.862l-4.56-5.863ZM18 12a5.25 5.25 0 1 0 0 10.5A5.25 5.25 0 0 0 18 12Z" clip-rule="evenodd"/>
</svg>
