<svg xmlns="http://www.w3.org/2000/svg" width="24" height="24" fill="currentColor" viewBox="0 0 24 24">
  <path fill-rule="evenodd" d="M6.52 2.25c-1.132 0-2.02.942-2.02 2.054v12.392c0 1.112.888 2.054 2.02 2.054h13.96c1.132 0 2.02-.942 2.02-2.054v-9.13c0-.504-.156-1.074-.532-1.534-.393-.482-.993-.797-1.76-.797h-7.227v-.93c0-1.113-.888-2.055-2.02-2.055H6.52ZM6 4.304c0-.322.255-.554.52-.554h4.441c.265 0 .52.232.52.554v1.68c0 .415.336.75.75.75h7.978c.322 0 .492.118.597.246a.95.95 0 0 1 .194.585v9.13c0 .323-.255.555-.52.555H6.52a.542.542 0 0 1-.52-.554V4.304ZM3 5.25a.75.75 0 0 0-1.5 0v14.38c0 1.118.863 2.12 2.028 2.12H19.5a.75.75 0 0 0 0-1.5H3.528c-.24 0-.528-.23-.528-.62V5.25Z" clip-rule="evenodd"/>
</svg>
