<svg xmlns="http://www.w3.org/2000/svg" width="24" height="24" fill="currentColor" viewBox="0 0 24 24">
  <path fill-rule="evenodd" d="M3.528 2.25A2.036 2.036 0 0 0 1.5 4.286v15.428c0 1.117.906 2.036 2.028 2.036h9.222a.75.75 0 0 0 0-1.5H6v-9.987a.52.52 0 0 1 .52-.513h13.96a.52.52 0 0 1 .52.513v.237a.75.75 0 0 0 1.5 0v-.237a2.02 2.02 0 0 0-2.02-2.013h-.23V7.5c0-.604-.307-1.157-.683-1.54-.378-.386-.935-.71-1.567-.71h-6.27l-.805-1.737A2.028 2.028 0 0 0 9.048 2.25h-5.52Zm15.222 6V7.5c0-.104-.068-.3-.254-.49-.184-.188-.378-.26-.496-.26h-6.75a.75.75 0 0 1-.68-.435l-1.014-2.19a.75.75 0 0 1-.018-.041.528.528 0 0 0-.49-.334h-5.52A.536.536 0 0 0 3 4.286v15.428c0 .298.244.536.528.536H4.5v-9.987A2.02 2.02 0 0 1 6.52 8.25h12.23Zm0 5.25c-.769 0-1.5.701-1.5 1.693v.557a.8.8 0 0 1 0 .038c.971-.05 2.027-.05 3.001 0a.697.697 0 0 1-.001-.038v-.557c0-.483-.182-.908-.465-1.222a1.397 1.397 0 0 0-1.035-.471Zm2.979 2.427a.755.755 0 0 0 .021-.177v-.557c0-.873-.332-1.654-.856-2.232l-.004-.004A2.896 2.896 0 0 0 18.75 12c-1.71 0-3 1.49-3 3.193v.557c0 .061.007.12.021.178A1.068 1.068 0 0 0 15 16.955v4.34c0 .513.366.982.913 1.057l.015.002c1.68.195 3.972.195 5.644 0l.02-.003c.522-.074.908-.529.908-1.056v-4.34c0-.467-.304-.898-.771-1.028ZM16.5 20.905v-3.56a26.748 26.748 0 0 1 4.5 0v3.56a26.748 26.748 0 0 1-4.5 0Z" clip-rule="evenodd"/>
</svg>
