<svg xmlns="http://www.w3.org/2000/svg" width="24" height="24" fill="currentColor" viewBox="0 0 24 24">
  <path fill-rule="evenodd" d="M3.528 2.25A2.036 2.036 0 0 0 1.5 4.286v15.428c0 1.117.906 2.036 2.028 2.036h9.222a.75.75 0 0 0 0-1.5H6v-9.987a.52.52 0 0 1 .52-.513h13.96a.52.52 0 0 1 .52.513v.237a.75.75 0 0 0 1.5 0v-.237a2.02 2.02 0 0 0-2.02-2.013h-.23V7.5c0-.604-.307-1.157-.683-1.54-.378-.386-.935-.71-1.567-.71h-6.27l-.805-1.737A2.028 2.028 0 0 0 9.048 2.25h-5.52Zm15.222 6V7.5c0-.104-.068-.3-.254-.49-.184-.188-.378-.26-.496-.26h-6.75a.75.75 0 0 1-.68-.435l-1.014-2.19a.75.75 0 0 1-.018-.041.528.528 0 0 0-.49-.334h-5.52A.536.536 0 0 0 3 4.286v15.428c0 .298.244.536.528.536H4.5v-9.987A2.02 2.02 0 0 1 6.52 8.25h12.23Zm0 5.25c-.769 0-1.5.701-1.5 1.693v.557a.8.8 0 0 1 0 .038c1.436-.075 3.054-.039 4.322.108l.015.002c.547.075.913.544.913 1.057v4.34c0 .527-.386.982-.908 1.056l-.02.003c-1.672.195-3.965.195-5.644 0l-.015-.002A1.06 1.06 0 0 1 15 21.295v-4.34c0-.48.32-.9.771-1.027a.75.75 0 0 1-.021-.178v-.557c0-1.702 1.29-3.193 3-3.193.848 0 1.6.371 2.14.957l.004.004a3.3 3.3 0 0 1 .628 1.016.75.75 0 1 1-1.397.546 1.802 1.802 0 0 0-.34-.552 1.397 1.397 0 0 0-1.035-.471Zm-2.25 7.405v-3.56a26.748 26.748 0 0 1 4.5 0v3.56a26.748 26.748 0 0 1-4.5 0Z" clip-rule="evenodd"/>
</svg>
