<svg xmlns="http://www.w3.org/2000/svg" width="24" height="24" fill="none" viewBox="0 0 24 24">
  <g clip-path="url(#a)">
    <path fill="#3D3C3C" fill-rule="evenodd" d="M21 2.25a.75.75 0 1 0 0 1.5.75.75 0 0 0 0-1.5ZM18.75 3a2.25 2.25 0 1 1 1.28 2.03l-1.931 1.932 3.392 3.392a2.167 2.167 0 0 1 0 3.066l-3.505 3.505 2.044 2.044a2.25 2.25 0 1 1-1.06 1.06l-2.045-2.043-3.505 3.505a2.167 2.167 0 0 1-3.066 0L6.962 18.1l-1.931 1.93a2.25 2.25 0 1 1-1.06-1.06l1.93-1.93-3.618-3.62a2.167 2.167 0 0 1 0-3.065L5.788 6.85 3.97 5.03a2.25 2.25 0 1 1 1.06-1.06l1.82 1.817 3.505-3.505a2.167 2.167 0 0 1 3.066 0L17.038 5.9l1.931-1.93A2.24 2.24 0 0 1 18.75 3ZM3.304 12.398a.723.723 0 0 1 0-1.022l8.072-8.072a.723.723 0 0 1 1.022 0l8.071 8.072a.722.722 0 0 1 0 1.022l-8.071 8.071a.722.722 0 0 1-1.022 0l-8.072-8.071Zm12.43-4.17a17.45 17.45 0 0 1-3.236-1.35 1.03 1.03 0 0 0-1 .002 17.358 17.358 0 0 1-3.231 1.35A1.055 1.055 0 0 0 7.5 9.24v3.849c0 .647.288 1.21.636 1.657.35.451.806.843 1.251 1.166.891.647 1.855 1.1 2.191 1.25l.013.005c.263.11.556.11.818 0l.014-.006a12.934 12.934 0 0 0 2.189-1.249c.445-.323.9-.715 1.251-1.165.349-.448.637-1.01.637-1.658V9.236c0-.5-.346-.88-.758-1.006l-.009-.003ZM15 9.57a19.248 19.248 0 0 1-3-1.258 18.996 18.996 0 0 1-3 1.26v3.516c0 .192.087.436.32.737.232.297.565.594.948.872.642.466 1.344.824 1.732 1.006.387-.182 1.09-.54 1.73-1.006.384-.278.718-.575.95-.873.233-.3.32-.544.32-.736V9.57ZM20.25 21a.75.75 0 1 1 1.5 0 .75.75 0 0 1-1.5 0ZM3 20.25a.75.75 0 1 0 0 1.5.75.75 0 0 0 0-1.5ZM2.25 3a.75.75 0 1 1 1.5 0 .75.75 0 0 1-1.5 0Z" clip-rule="evenodd"/>
  </g>
  <defs>
    <clipPath id="a">
      <path fill="#fff" d="M0 0h24v24H0z"/>
    </clipPath>
  </defs>
</svg>
