<svg xmlns="http://www.w3.org/2000/svg" width="24" height="24" fill="currentColor" viewBox="0 0 24 24">
  <g clip-path="url(#a)">
    <path d="M11.25 4.5a.75.75 0 0 1 0 1.5H4.5a.75.75 0 0 0-.75.75v13.5c0 .414.336.75.75.75H18a.75.75 0 0 0 .75-.75v-7.438a.75.75 0 0 1 1.5 0v7.438A2.25 2.25 0 0 1 18 22.5H4.5a2.25 2.25 0 0 1-2.25-2.25V6.75A2.25 2.25 0 0 1 4.5 4.5h6.75Zm4.875 7.5a.75.75 0 0 1 .75.75v.375h.375a.75.75 0 0 1 0 1.5h-.375V15a.75.75 0 0 1-1.5 0v-.375H15a.75.75 0 0 1 0-1.5h.375v-.375a.75.75 0 0 1 .75-.75Zm-4.875-1.5a.75.75 0 0 1 .75.75V12a.75.75 0 0 1-1.5 0v-.75a.75.75 0 0 1 .75-.75ZM9.75 9a.75.75 0 0 1 0 1.5H9A.75.75 0 0 1 9 9h.75Zm3.75 0a.75.75 0 0 1 0 1.5h-.75a.75.75 0 0 1 0-1.5h.75Zm6.753-6.75a.75.75 0 0 1 .627.355c.457.738.838 1.24 1.268 1.667.432.43.94.809 1.678 1.277a.75.75 0 0 1 .02 1.254c-1.447.98-2.061 1.622-2.983 2.982a.75.75 0 0 1-1.242-.002c-.906-1.346-1.559-1.965-2.996-2.991a.75.75 0 0 1 .015-1.23c1.489-1.01 2.099-1.645 2.976-2.975a.751.751 0 0 1 .637-.337Zm-9.003 4.5a.75.75 0 0 1 .75.75v.75a.75.75 0 0 1-1.5 0V7.5a.75.75 0 0 1 .75-.75Zm8.977-2.428a9.413 9.413 0 0 1-1.895 1.873c.765.597 1.332 1.145 1.908 1.885a9.654 9.654 0 0 1 1.875-1.879 8.824 8.824 0 0 1-1.024-.864 8.448 8.448 0 0 1-.864-1.015Z"/>
  </g>
  <defs>
    <clipPath id="a">
      <path d="M0 0h24v24H0z"/>
    </clipPath>
  </defs>
</svg>
