<svg xmlns="http://www.w3.org/2000/svg" width="24" height="24" fill="currentColor" viewBox="0 0 24 24">
  <path d="M13.5 1.5c.203 0 .386.082.521.213h.003l5.25 5.132.105.248c.046.07.078.15.098.234l.023.054V9A.75.75 0 0 1 18 9v-.75h-3.451a1.8 1.8 0 0 1-1.799-1.799V3H5.102c-.764 0-1.352.6-1.352 1.304v15.392c0 .705.588 1.304 1.352 1.304H9a.75.75 0 0 1 0 1.5H5.102c-1.56 0-2.852-1.239-2.852-2.804V4.304C2.25 2.739 3.543 1.5 5.102 1.5H13.5ZM20.403 12a1.4 1.4 0 0 1 .583.12l.097.052c.214.13.343.318.416.476.083.178.122.366.14.525.04.32.019.683-.02 1.012-.06.511-.179 1.05-.283 1.433.264.577.414 1.21.414 1.876 0 2.86-2.621 5.006-5.625 5.006S10.5 20.353 10.5 17.494c0-.669.146-1.31.416-1.897l-.003-.011a10.45 10.45 0 0 1-.272-1.401 4.46 4.46 0 0 1-.022-1.012c.02-.16.058-.347.14-.525a1.08 1.08 0 0 1 .518-.532l.001.001c.208-.096.422-.116.577-.117a2.98 2.98 0 0 1 .505.046 7.75 7.75 0 0 1 1.016.256c.33.104.652.22.91.318l.282.112a6.237 6.237 0 0 1 3.114.003l.29-.115c.259-.098.58-.214.91-.318a7.771 7.771 0 0 1 1.016-.256 3.03 3.03 0 0 1 .505-.046Zm-.258 1.525a6.348 6.348 0 0 0-.811.208c-.596.188-1.17.423-1.32.486h-.006a.768.768 0 0 1-.06.022l-.012.004-.073.018a.748.748 0 0 1-.28 0l-.005-.002-.032-.008-.037-.009-.166-.047a4.743 4.743 0 0 0-1.218-.16c-.475 0-.922.066-1.337.193a.747.747 0 0 1-.6-.035 16.993 16.993 0 0 0-1.262-.462c-.3-.094-.585-.17-.813-.208-.004 0-.009 0-.013-.002-.001.132.008.296.03.486a8.58 8.58 0 0 0 .304 1.433.748.748 0 0 1-.096.66c-.22.427-.338.897-.338 1.392C12 19.34 13.75 21 16.125 21c2.374 0 4.125-1.661 4.125-3.506 0-.45-.103-.884-.293-1.287l-.087-.17-.033-.07a.749.749 0 0 1 .01-.603c.089-.292.222-.844.282-1.355.022-.19.031-.354.03-.486l-.014.002ZM14.25 6.451a.3.3 0 0 0 .299.299h2.482L14.25 4.031v2.42Z"/>
</svg>
