<svg xmlns="http://www.w3.org/2000/svg" width="24" height="24" fill="currentColor" viewBox="0 0 24 24">
  <path d="M12.403 1.53c4.144.21 7.453 3.65 7.453 7.845 0 4.077-3.126 7.44-7.106 7.82V18a.747.747 0 0 1-.013.126 2.25 2.25 0 0 1 1.386 1.386.76.76 0 0 1 .127-.012h4.5l.077.004a.75.75 0 0 1 0 1.492L18.75 21h-4.5a.749.749 0 0 1-.127-.013 2.248 2.248 0 0 1-4.247 0A.747.747 0 0 1 9.75 21h-4.5a.75.75 0 0 1 0-1.5h4.5c.043 0 .085.005.126.012a2.253 2.253 0 0 1 1.386-1.386.758.758 0 0 1-.012-.126v-.806c-3.98-.379-7.106-3.742-7.106-7.819 0-4.33 3.526-7.856 7.856-7.856l.403.01ZM12 19.5a.75.75 0 1 0 0 1.5.75.75 0 0 0 0-1.5Zm-2.228-9.019c.1 1.438.383 2.704.78 3.648.25.591.529 1.022.8 1.295.213.215.396.306.543.334a.765.765 0 0 1 .21 0c.147-.028.33-.119.544-.334.271-.273.55-.704.798-1.295.398-.944.682-2.21.78-3.648H9.772Zm-4.068 0a6.42 6.42 0 0 0 3.756 4.76 7.604 7.604 0 0 1-.255-.545c-.48-1.142-.8-2.606-.901-4.215h-2.6Zm9.992 0c-.1 1.61-.42 3.073-.901 4.215-.08.189-.166.37-.256.544a6.42 6.42 0 0 0 3.757-4.759h-2.6ZM9.46 3.51a6.412 6.412 0 0 0-3.844 5.51h2.657c.038-1.902.377-3.648.932-4.965.08-.189.165-.37.255-.545ZM12 2.98c-.162 0-.38.076-.648.345-.272.273-.55.705-.8 1.296-.465 1.106-.78 2.65-.818 4.398h4.532c-.038-1.748-.353-3.292-.819-4.398-.249-.591-.526-1.023-.798-1.296-.268-.27-.487-.345-.649-.345Zm2.54.528c.09.174.176.356.255.545.555 1.317.894 3.063.932 4.966h2.657a6.412 6.412 0 0 0-3.845-5.511Z"/>
</svg>
