<svg xmlns="http://www.w3.org/2000/svg" width="24" height="24" fill="currentColor" viewBox="0 0 24 24">
  <path fill-rule="evenodd" d="M11.964 3C7.009 3 3 6.958 3 11.796c0 .81.065 1.574.226 2.289a.75.75 0 0 1-1.463.33c-.192-.852-.263-1.732-.263-2.62C1.5 6.106 6.205 1.5 11.964 1.5c2.24 0 4.962.847 6.784 2.073a2.253 2.253 0 0 1 3.094.085 2.253 2.253 0 0 1 0 3.184 2.249 2.249 0 0 1-3.814-1.944C16.477 3.808 13.973 3 11.963 3Zm8.817 1.72a.753.753 0 0 0-1.062 0 .753.753 0 0 0 0 1.06.753.753 0 0 0 1.062 0 .753.753 0 0 0 0-1.06Zm-16.5 13.5a.753.753 0 0 0-1.062 0 .753.753 0 0 0 0 1.06.753.753 0 0 0 1.062 0 .753.753 0 0 0 0-1.06Zm-2.123-1.062a2.253 2.253 0 0 1 3.184 0c.611.612.797 1.491.556 2.265C7.416 20.505 9.682 21 11.87 21c5.07 0 9.13-3.92 9.13-8.662 0-.873-.051-1.679-.219-2.423a.75.75 0 0 1 1.463-.33c.203.9.256 1.83.256 2.753 0 5.638-4.802 10.162-10.629 10.162-2.357 0-4.996-.524-6.873-1.877a2.254 2.254 0 0 1-2.84-.281 2.253 2.253 0 0 1 0-3.184Zm3.87-5.908a6.04 6.04 0 0 1 3.347-4.664 7.358 7.358 0 0 0-.164.345c-.516 1.161-.847 2.669-.925 4.319H6.028Zm0 1.5a6.04 6.04 0 0 0 3.347 4.664 7.36 7.36 0 0 1-.164-.345c-.516-1.161-.847-2.669-.925-4.319H6.028Zm3.723 0c.076 1.476.374 2.775.796 3.725.247.555.522.96.79 1.215.264.252.487.329.663.329.176 0 .399-.077.663-.33.268-.255.543-.659.79-1.214.422-.95.72-2.249.796-3.725H9.752Zm5.963 0c-.078 1.65-.409 3.158-.925 4.32a7.36 7.36 0 0 1-.164.344 6.04 6.04 0 0 0 3.347-4.664h-2.258Zm2.258-1.5h-2.258c-.078-1.65-.409-3.158-.925-4.32a7.358 7.358 0 0 0-.164-.344 6.04 6.04 0 0 1 3.347 4.664Zm1.507.572C19.384 7.78 16.064 4.519 12 4.519c-4.123 0-7.481 3.358-7.481 7.481 0 4.123 3.358 7.481 7.481 7.481 4.064 0 7.384-3.262 7.48-7.303a.768.768 0 0 0 0-.356Zm-5.23-.572H9.752c.076-1.476.374-2.775.796-3.725.247-.555.522-.96.79-1.215.264-.251.487-.329.663-.329.176 0 .399.078.663.33.268.255.543.659.79 1.214.422.95.72 2.249.796 3.725Z" clip-rule="evenodd"/>
</svg>
