<svg xmlns="http://www.w3.org/2000/svg" width="24" height="24" fill="currentColor" viewBox="0 0 24 24">
  <path fill-rule="evenodd" d="M20.78 4.72a.753.753 0 0 0-1.06 0 .753.753 0 0 0 0 1.06.753.753 0 0 0 1.06 0 .753.753 0 0 0 0-1.06Zm-2.122-1.062a2.253 2.253 0 0 1 3.184 0 2.253 2.253 0 0 1 0 3.184 2.253 2.253 0 0 1-3.184 0 2.253 2.253 0 0 1 0-3.184ZM4.28 18.22a.753.753 0 0 0-1.06 0 .753.753 0 0 0 0 1.06.753.753 0 0 0 1.06 0 .753.753 0 0 0 0-1.06Zm-2.122-1.062a2.253 2.253 0 0 1 3.184 0 2.253 2.253 0 0 1 0 3.184 2.253 2.253 0 0 1-3.184 0 2.253 2.253 0 0 1 0-3.184Z" clip-rule="evenodd"/>
  <path fill-rule="evenodd" d="M21.348 9.018a.75.75 0 0 1 .896.567c.203.9.256 1.83.256 2.753 0 5.638-4.802 10.162-10.629 10.162-2.446 0-5.196-.564-7.082-2.033a.75.75 0 1 1 .922-1.184C7.226 20.463 9.59 21 11.87 21c5.07 0 9.13-3.92 9.13-8.662 0-.873-.051-1.679-.219-2.423a.75.75 0 0 1 .567-.897ZM11.964 3C7.009 3 3 6.958 3 11.796c0 .81.065 1.574.226 2.289a.75.75 0 0 1-1.463.33c-.192-.852-.263-1.732-.263-2.62C1.5 6.106 6.205 1.5 11.964 1.5c2.438 0 5.45 1.004 7.248 2.409a.75.75 0 0 1-.924 1.182C16.77 3.905 14.09 3 11.964 3Z" clip-rule="evenodd"/>
  <path fill-rule="evenodd" d="M12 5.981A6.03 6.03 0 0 0 5.981 12 6.03 6.03 0 0 0 12 18.019 6.03 6.03 0 0 0 18.019 12 6.03 6.03 0 0 0 12 5.981ZM4.519 12c0-4.123 3.358-7.481 7.481-7.481 4.123 0 7.481 3.358 7.481 7.481 0 4.123-3.358 7.481-7.481 7.481-4.123 0-7.481-3.358-7.481-7.481Z" clip-rule="evenodd"/>
  <path fill-rule="evenodd" d="M10.547 7.525c-.492 1.108-.816 2.69-.816 4.475 0 1.785.324 3.367.816 4.475.247.555.522.96.79 1.215.264.252.487.329.663.329.176 0 .399-.077.663-.33.268-.255.543-.659.79-1.214.492-1.108.816-2.69.816-4.475 0-1.785-.324-3.367-.816-4.475-.247-.555-.522-.96-.79-1.215-.264-.252-.487-.329-.663-.329-.176 0-.399.077-.663.33-.268.255-.543.659-.79 1.214Zm-.219-2.274c.454-.432 1.02-.732 1.672-.732.652 0 1.218.3 1.672.732.45.428.821 1.013 1.117 1.68.594 1.335.942 3.128.942 5.069 0 1.94-.348 3.734-.942 5.07-.296.666-.668 1.25-1.117 1.679-.454.431-1.02.732-1.672.732-.652 0-1.218-.3-1.672-.732-.45-.428-.82-1.013-1.117-1.68-.594-1.335-.942-3.128-.942-5.069 0-1.94.348-3.734.942-5.07.296-.666.668-1.25 1.117-1.679Z" clip-rule="evenodd"/>
  <path fill-rule="evenodd" d="M5.269 12A.73.73 0 0 1 6 11.269h12.73a.731.731 0 1 1 0 1.462H6A.731.731 0 0 1 5.27 12Z" clip-rule="evenodd"/>
</svg>
