<svg xmlns="http://www.w3.org/2000/svg" width="25" height="24" fill="currentColor" viewBox="0 0 25 24">
  <path d="M9.556 12.75a2.25 2.25 0 0 1 2.25 2.25v4.5a2.25 2.25 0 0 1-2.25 2.25h-4.5a2.25 2.25 0 0 1-2.25-2.25V15a2.25 2.25 0 0 1 2.25-2.25h4.5Zm10.5 0a2.25 2.25 0 0 1 2.25 2.25v4.5a2.25 2.25 0 0 1-2.25 2.25h-4.5a2.25 2.25 0 0 1-2.25-2.25V15a2.25 2.25 0 0 1 2.25-2.25h4.5Zm-15 1.5a.75.75 0 0 0-.75.75v4.5c0 .414.335.75.75.75h4.5a.75.75 0 0 0 .75-.75V15a.75.75 0 0 0-.75-.75h-4.5Zm10.5 0a.75.75 0 0 0-.75.75v4.5c0 .414.335.75.75.75h4.5a.75.75 0 0 0 .75-.75V15a.75.75 0 0 0-.75-.75h-4.5Zm-6-12a2.25 2.25 0 0 1 2.25 2.25V9a2.25 2.25 0 0 1-2.25 2.25h-4.5A2.25 2.25 0 0 1 2.806 9V4.5a2.25 2.25 0 0 1 2.25-2.25h4.5Zm10.5 0a2.25 2.25 0 0 1 2.25 2.25V9a2.25 2.25 0 0 1-2.25 2.25h-4.5A2.25 2.25 0 0 1 13.306 9V4.5a2.25 2.25 0 0 1 2.25-2.25h4.5Zm-15 1.5a.75.75 0 0 0-.75.75V9c0 .414.335.75.75.75h4.5a.75.75 0 0 0 .75-.75V4.5a.75.75 0 0 0-.75-.75h-4.5Zm10.5 0a.75.75 0 0 0-.75.75V9c0 .414.335.75.75.75h4.5a.75.75 0 0 0 .75-.75V4.5a.75.75 0 0 0-.75-.75h-4.5Z"/>
</svg>
