<svg xmlns="http://www.w3.org/2000/svg" width="24" height="24" fill="currentColor" viewBox="0 0 24 24">
  <path fill-rule="evenodd" d="M12 1.5a2.624 2.624 0 1 0-.001 5.249A2.624 2.624 0 0 0 12 1.5Zm-1.125 2.625a1.124 1.124 0 1 1 2.249-.001 1.124 1.124 0 0 1-2.249.001ZM6 12a2.624 2.624 0 1 0-.001 5.249A2.624 2.624 0 0 0 6 12Zm-1.125 2.625a1.124 1.124 0 1 1 2.249-.001 1.124 1.124 0 0 1-2.249.001Zm10.5 0a2.624 2.624 0 1 1 5.249-.001 2.624 2.624 0 0 1-5.249.001ZM18 13.5a1.124 1.124 0 1 0-.001 2.249A1.124 1.124 0 0 0 18 13.5ZM9 9.56c0-.077.039-.202.217-.336A1.17 1.17 0 0 1 9.9 9h4.346c.259 0 .466.08.593.181.116.093.162.195.16.31V10.5H9v-.94Zm.9-2.06a2.67 2.67 0 0 0-1.588.528c-.443.335-.817.867-.812 1.542v1.68c0 .414.336.75.75.75h7.5a.75.75 0 0 0 .75-.75V9.502c.01-1.319-1.202-2.002-2.254-2.002H9.9ZM3.217 19.761c-.178.135-.218.26-.217.336v.94h6V20.03c.001-.115-.045-.218-.161-.31a.964.964 0 0 0-.593-.182H3.9c-.25 0-.505.09-.683.224Zm-.905-1.196a2.67 2.67 0 0 1 1.588-.528h4.346c1.052 0 2.264.684 2.254 2.003v1.747a.75.75 0 0 1-.75.75h-7.5a.75.75 0 0 1-.75-.75v-1.68c-.005-.675.369-1.207.812-1.542ZM15 20.097c0-.076.039-.201.217-.336s.433-.224.683-.224h4.346c.259 0 .466.081.593.182.116.092.162.195.16.31v1.008H15v-.94Zm.9-2.06a2.67 2.67 0 0 0-1.588.528c-.443.335-.817.867-.812 1.542v1.68c0 .415.336.75.75.75h7.5a.75.75 0 0 0 .75-.75V20.04c.01-1.32-1.202-2.003-2.254-2.003H15.9ZM12 12.75a.75.75 0 0 1 .75.75v1.099l1.916 1.277a.75.75 0 1 1-.832 1.248L12 15.901l-1.834 1.223a.75.75 0 1 1-.832-1.248l1.916-1.277V13.5a.75.75 0 0 1 .75-.75Z" clip-rule="evenodd"/>
</svg>
