<svg xmlns="http://www.w3.org/2000/svg" width="24" height="24" fill="currentColor" viewBox="0 0 24 24">
  <path fill-rule="evenodd" d="M9.375 4.125a2.624 2.624 0 1 1 5.249-.001 2.624 2.624 0 0 1-5.249.001ZM12 3a1.124 1.124 0 1 0-.001 2.249A1.124 1.124 0 0 0 12 3ZM3.375 14.625a2.624 2.624 0 1 1 5.249-.001 2.624 2.624 0 0 1-5.249.001ZM6 13.5a1.124 1.124 0 1 0-.001 2.249A1.124 1.124 0 0 0 6 13.5Zm9.375 1.125a2.624 2.624 0 1 1 5.249-.001 2.624 2.624 0 0 1-5.249.001ZM18 13.5a1.124 1.124 0 1 0-.001 2.249A1.124 1.124 0 0 0 18 13.5ZM9.217 9.224c-.178.134-.218.26-.217.336v.94h6V9.492c.001-.116-.045-.218-.161-.31A.963.963 0 0 0 14.246 9H9.9c-.25 0-.505.089-.683.224Zm-.905-1.196A2.67 2.67 0 0 1 9.9 7.5h4.346c1.052 0 2.264.683 2.254 2.002v1.748a.75.75 0 0 1-.75.75h-7.5a.75.75 0 0 1-.75-.75V9.57c-.005-.675.369-1.207.812-1.542ZM3.217 19.762c-.178.134-.218.259-.217.335v.941h6v-1.009c.001-.115-.045-.218-.161-.31a.964.964 0 0 0-.593-.181H3.9c-.25 0-.505.088-.683.224Zm-.905-1.197a2.67 2.67 0 0 1 1.588-.527h4.346c1.052 0 2.264.683 2.254 2.002v1.748a.75.75 0 0 1-.75.75h-7.5a.75.75 0 0 1-.75-.75v-1.68c-.005-.676.369-1.208.812-1.543Zm12.905 1.197c-.178.134-.218.259-.217.335v.941h6v-1.009c.001-.115-.045-.218-.161-.31a.964.964 0 0 0-.593-.181H15.9c-.25 0-.505.088-.683.224Zm-.905-1.197a2.67 2.67 0 0 1 1.588-.527h4.346c1.052 0 2.264.683 2.254 2.002v1.748a.75.75 0 0 1-.75.75h-7.5a.75.75 0 0 1-.75-.75v-1.68c-.005-.676.369-1.208.812-1.543ZM12 12.75a.75.75 0 0 1 .75.75V15a.75.75 0 0 1-1.5 0v-1.5a.75.75 0 0 1 .75-.75Z" clip-rule="evenodd"/>
  <path fill-rule="evenodd" d="M11.584 14.376a.75.75 0 0 1 .832 0l2.25 1.5a.75.75 0 1 1-.832 1.248L12 15.901l-1.834 1.223a.75.75 0 1 1-.832-1.248l2.25-1.5Z" clip-rule="evenodd"/>
</svg>
