<svg xmlns="http://www.w3.org/2000/svg" width="24" height="24" fill="currentColor" viewBox="0 0 24 24">
  <path fill-rule="evenodd" d="M6 4.5a1.5 1.5 0 1 0 0 3 1.5 1.5 0 0 0 0-3ZM3 6a3 3 0 1 1 6 0 3 3 0 0 1-6 0Zm13.5 0a1.5 1.5 0 1 1 3 0 1.5 1.5 0 0 1-3 0ZM18 3a3 3 0 1 0 0 6 3 3 0 0 0 0-6Zm-7.5 9a1.5 1.5 0 1 1 3 0 1.5 1.5 0 0 1-3 0ZM12 9a3 3 0 1 0 0 6 3 3 0 0 0 0-6ZM8.261 20.25l-.011-1.317c-.002-.46.416-.933 1.066-.933h5.368c.65 0 1.068.472 1.066.933l-.011 1.317H8.26Zm8.989-1.306-.016 1.9a.75.75 0 0 1-.734.906H7.517a.75.75 0 0 1-.75-.744l-.017-2.064C6.741 17.54 7.948 16.5 9.316 16.5h5.368c1.368 0 2.575 1.039 2.566 2.442v.002Zm-1.5-7.694a.75.75 0 0 1 .75-.75h3.457c1.365 0 2.552 1.048 2.543 2.442v.002l-.016 1.902a.75.75 0 0 1-.734.904H16.5a.75.75 0 0 1 0-1.5h4.489L21 12.933c.003-.47-.415-.933-1.043-.933H16.5a.75.75 0 0 1-.75-.75ZM7.5 10.5a.75.75 0 0 1 0 1.5H4.043c-.628 0-1.045.463-1.043.932l.011 1.318H7.5a.75.75 0 0 1 0 1.5H2.25a.75.75 0 0 1-.734-.904L1.5 12.944v-.002C1.491 11.548 2.678 10.5 4.043 10.5H7.5Z" clip-rule="evenodd"/>
</svg>
