<svg xmlns="http://www.w3.org/2000/svg" width="24" height="24" fill="none" viewBox="0 0 24 24">
  <path fill="#3D3C3C" fill-rule="evenodd" d="M19.474 3.01c-3.656.345-5.76 2.127-6.932 4.193-.9 1.587-1.266 3.367-1.315 4.845.011.235.018.457.022.664v.017c3.637-.172 5.72-1.678 6.888-3.497 1.258-1.958 1.527-4.39 1.337-6.222ZM9.75 14.25v4.5c0 .017 0 .034.002.051-1.52.208-3.041 1.038-4.926 2.33a.75.75 0 1 0 .848 1.238C7.855 20.873 9.22 20.25 10.5 20.25c1.281 0 2.645.623 4.826 2.119a.75.75 0 1 0 .848-1.238c-1.885-1.292-3.405-2.122-4.926-2.33a.795.795 0 0 0 .002-.051v-4.515c4.093-.177 6.652-1.897 8.117-4.176 1.516-2.36 1.791-5.212 1.562-7.285a1.417 1.417 0 0 0-1.53-1.268c-4.177.376-6.716 2.452-8.13 4.942a11.077 11.077 0 0 0-.803 1.769 7.255 7.255 0 0 0-.285-.611c-.462-.877-1.13-1.681-2.09-2.253-.96-.573-2.163-.883-3.65-.85-.828.018-1.414.71-1.425 1.464l-.005.299c-.028 1.581-.06 3.466.714 4.99.887 1.744 2.707 2.846 5.994 2.992l.031.002ZM7.324 6.644c-.671-.4-1.575-.661-2.808-.64l-.002.144c-.027 1.715-.051 3.247.549 4.426.553 1.088 1.745 2.033 4.686 2.172-.026-1.326-.171-3.062-.896-4.44-.358-.68-.85-1.257-1.529-1.662Z" clip-rule="evenodd"/>
</svg>
