<svg xmlns="http://www.w3.org/2000/svg" width="24" height="24" fill="currentColor" viewBox="0 0 24 24">
  <path fill-rule="evenodd" d="M11.25 3.75a.75.75 0 1 1 1.5 0 .75.75 0 0 1-1.5 0ZM12 1.5a2.25 2.25 0 1 0 1.577 3.855L19.5 7.987v4.763a.75.75 0 0 0 1.5 0V7.5a.75.75 0 0 0-.445-.685l-6.32-2.809A2.25 2.25 0 0 0 12 1.5ZM8.143 4.864a.75.75 0 0 1-.257 1.03L4.5 7.923v7.204a2.251 2.251 0 1 1-1.5 0V7.5a.75.75 0 0 1 .364-.643l3.75-2.25a.75.75 0 0 1 1.03.257Zm3.29 2.098c.35-.204.784-.204 1.134 0l4.125 2.407c.346.201.558.571.558.971v4.82c0 .4-.212.77-.558.971l-4.125 2.407c-.35.204-.784.204-1.134 0L7.308 16.13a1.125 1.125 0 0 1-.558-.971v-4.82c0-.4.213-.77.558-.971l4.125-2.407ZM12 8.368l-3.75 2.188v4.388L12 17.132l3.75-2.188v-4.388L12 8.368ZM3 17.25a.75.75 0 1 1 1.5 0 .75.75 0 0 1-1.5 0Zm17.25-.75a.75.75 0 1 0 0 1.5.75.75 0 0 0 0-1.5Zm-2.25.75a2.25 2.25 0 1 1 .973 1.853l-6.493 3.315a.75.75 0 0 1-.608.033l-3.889-1.482a.75.75 0 0 1 .534-1.401l3.578 1.362 5.992-3.059A2.25 2.25 0 0 1 18 17.25Z" clip-rule="evenodd"/>
</svg>
