<svg xmlns="http://www.w3.org/2000/svg" width="24" height="24" fill="currentColor" viewBox="0 0 24 24">
  <path fill-rule="evenodd" d="M10.898 7.5a.75.75 0 0 1 .683.498l1.697 4.752H19.5a.75.75 0 0 1 0 1.5h-6.75a.75.75 0 0 1-.706-.498l-1.232-3.45-1.498 3.493a.75.75 0 0 1-.689.455H4.5a.75.75 0 0 1 0-1.5h3.63l2.056-4.795a.75.75 0 0 1 .712-.455Z" clip-rule="evenodd"/>
  <path fill-rule="evenodd" d="M9.924 4.67c-.873-.623-1.971-1.095-3.166-.89-.916.156-1.678.698-2.282 1.374a6.974 6.974 0 0 0-1.203 1.917c-.685 1.69-.284 3.706 1.302 6.123 1.513 2.307 4.028 4.853 7.369 7.605 3.347-2.757 5.89-5.323 7.429-7.65 1.616-2.442 2.037-4.473 1.354-6.158a6.307 6.307 0 0 0-1.19-1.835c-.6-.639-1.364-1.159-2.294-1.317-1.197-.203-2.299.26-3.172.868a7.32 7.32 0 0 0-1.473 1.364.75.75 0 0 1-1.196 0 7.47 7.47 0 0 0-1.478-1.4Zm2.082-.179a9.11 9.11 0 0 0-1.21-1.041C9.762 2.71 8.256 2 6.505 2.3c-1.36.232-2.404 1.022-3.147 1.853a8.47 8.47 0 0 0-1.475 2.352v.001c-.953 2.351-.269 4.908 1.438 7.51 1.71 2.607 4.531 5.399 8.15 8.334a.75.75 0 0 0 .945 0c3.623-2.939 6.471-5.75 8.208-8.374 1.731-2.617 2.448-5.194 1.493-7.55v-.001c-.25-.613-.74-1.5-1.487-2.296-.748-.798-1.79-1.54-3.135-1.77-1.743-.295-3.246.395-4.282 1.117-.494.344-.902.71-1.207 1.014Z" clip-rule="evenodd"/>
</svg>
