<svg xmlns="http://www.w3.org/2000/svg" width="24" height="24" fill="currentColor" viewBox="0 0 24 24">
  <path fill-rule="evenodd" d="M6.758 3.78c1.195-.205 2.293.267 3.166.89a7.47 7.47 0 0 1 1.478 1.4.75.75 0 0 0 1.196 0 7.32 7.32 0 0 1 1.473-1.363c.873-.608 1.975-1.071 3.172-.868.93.158 1.694.678 2.293 1.317.601.641 1 1.365 1.191 1.835.646 1.594.304 3.5-1.105 5.769a.76.76 0 0 0-.122-.01h-6.221L11.58 7.998a.75.75 0 0 0-1.395-.043L8.13 12.75H4.5a.75.75 0 0 0-.19.024c-1.364-2.232-1.682-4.112-1.037-5.703a6.974 6.974 0 0 1 1.203-1.917c.604-.676 1.366-1.218 2.281-1.374ZM5.324 14.25c1.539 2.02 3.78 4.21 6.62 6.55 2.827-2.33 5.08-4.523 6.64-6.55H12.75a.75.75 0 0 1-.706-.498l-1.232-3.45-1.498 3.493a.75.75 0 0 1-.689.455h-3.3Zm5.472-10.8c.497.354.906.73 1.21 1.041.305-.304.713-.67 1.207-1.014 1.037-.722 2.539-1.412 4.281-1.117h.001c1.345.23 2.387.972 3.135 1.77a7.805 7.805 0 0 1 1.487 2.296c.955 2.357.238 4.934-1.493 7.55-1.737 2.625-4.585 5.436-8.208 8.374a.75.75 0 0 1-.944 0c-3.62-2.934-6.44-5.726-8.15-8.333-1.708-2.602-2.392-5.159-1.44-7.51h.001a8.47 8.47 0 0 1 1.475-2.353c.743-.83 1.787-1.62 3.147-1.853 1.751-.3 3.257.41 4.291 1.149Z" clip-rule="evenodd"/>
</svg>
