<svg xmlns="http://www.w3.org/2000/svg" width="24" height="24" fill="currentColor" viewBox="0 0 24 24">
  <path d="M6.857 2.276c1.607-.167 2.985.5 3.95 1.191.493.353.9.728 1.202 1.037a9.023 9.023 0 0 1 1.2-1.01c.966-.675 2.343-1.324 3.941-1.16l.323.044.001.001c1.34.23 2.378.97 3.123 1.767a7.88 7.88 0 0 1 1.375 2.05l.105.242c.95 2.352.237 4.925-1.486 7.536-1.729 2.619-4.564 5.425-8.17 8.358a.751.751 0 0 1-.947 0c-3.602-2.929-6.41-5.716-8.113-8.317-1.7-2.598-2.38-5.15-1.431-7.496A8.462 8.462 0 0 1 3.398 4.17c.74-.829 1.78-1.618 3.134-1.85l.325-.044Zm3.078 2.41c-.87-.621-1.961-1.092-3.148-.888-.91.156-1.668.697-2.27 1.37A6.966 6.966 0 0 0 3.32 7.084c-.681 1.686-.282 3.698 1.296 6.11 1.506 2.301 4.008 4.84 7.331 7.586 3.33-2.75 5.86-5.31 7.392-7.631 1.608-2.437 2.027-4.465 1.348-6.146A6.294 6.294 0 0 0 19.5 5.171c-.596-.637-1.356-1.156-2.28-1.314-1.19-.202-2.285.26-3.153.866a7.298 7.298 0 0 0-1.467 1.36.75.75 0 0 1-1.196 0 7.45 7.45 0 0 0-1.47-1.396Z"/>
</svg>
