<svg xmlns="http://www.w3.org/2000/svg" width="24" height="24" fill="currentColor" viewBox="0 0 24 24">
  <path d="M19.532 7.9a.774.774 0 0 0-.367-.663l-6.798-4.1a.707.707 0 0 0-.734 0l-6.798 4.1a.774.774 0 0 0-.367.663v8.2c0 .273.14.526.367.663l6.798 4.1a.707.707 0 0 0 .734 0l6.798-4.1a.774.774 0 0 0 .367-.663V7.9ZM21 16.1c0 .822-.42 1.581-1.101 1.992l-6.798 4.1c-.681.41-1.52.41-2.202 0l-6.798-4.1A2.322 2.322 0 0 1 3 16.1V7.9c0-.822.42-1.581 1.101-1.992l6.798-4.1a2.122 2.122 0 0 1 2.202 0l6.798 4.1A2.322 2.322 0 0 1 21 7.9v8.2Z"/>
</svg>
