<svg xmlns="http://www.w3.org/2000/svg" width="24" height="24" fill="currentColor" viewBox="0 0 24 24">
  <path d="M14.066 19.839a.717.717 0 0 1 1.003.28.786.786 0 0 1-.269 1.047l-1.699 1.026c-.681.41-1.52.41-2.202 0l-1.7-1.026a.786.786 0 0 1-.268-1.047.717.717 0 0 1 1.003-.28l1.699 1.024a.707.707 0 0 0 .734 0l1.7-1.024ZM3 16.099v-2.05c0-.422.329-.766.734-.766.406 0 .734.343.734.767v2.05c0 .273.14.526.367.663l1.7 1.026c.351.212.471.68.268 1.047a.717.717 0 0 1-1.002.28l-1.7-1.024A2.322 2.322 0 0 1 3 16.1Zm16.532 0v-2.05c0-.423.328-.766.734-.766.405 0 .734.344.734.767v2.05c0 .822-.42 1.581-1.101 1.992l-1.7 1.025a.717.717 0 0 1-1.003-.28.786.786 0 0 1 .269-1.048l1.7-1.026a.774.774 0 0 0 .367-.663ZM3 9.95V7.9c0-.822.42-1.581 1.101-1.992l1.7-1.025a.717.717 0 0 1 1.002.28.786.786 0 0 1-.268 1.048l-1.7 1.026a.774.774 0 0 0-.367.663v2.05c0 .424-.328.767-.734.767-.405 0-.734-.344-.734-.767Zm16.532 0V7.9a.774.774 0 0 0-.367-.663l-1.7-1.026a.786.786 0 0 1-.268-1.047.717.717 0 0 1 1.002-.28l1.7 1.024A2.322 2.322 0 0 1 21 7.9v2.05c0 .424-.329.767-.734.767-.406 0-.734-.343-.734-.767Zm-8.633-8.142a2.122 2.122 0 0 1 2.202 0l1.7 1.025a.786.786 0 0 1 .268 1.048.717.717 0 0 1-1.003.28l-1.699-1.024a.707.707 0 0 0-.734 0l-1.7 1.024a.717.717 0 0 1-1.002-.28.786.786 0 0 1 .269-1.047l1.699-1.026Z"/>
</svg>
