<svg xmlns="http://www.w3.org/2000/svg" width="24" height="24" fill="currentColor" viewBox="0 0 24 24">
  <g clip-path="url(#a)">
    <path fill-rule="evenodd" d="M1.885 9.175C3.406 3.72 9.005.436 14.54 1.81c5.625 1.403 9.048 7.1 7.65 12.73-1.403 5.626-7.1 9.048-12.73 7.65a10.494 10.494 0 0 1-7.616-7.521.75.75 0 1 1 1.45-.382 8.994 8.994 0 0 0 6.527 6.447c4.828 1.199 9.711-1.736 10.913-6.556 1.199-4.828-1.736-9.71-6.556-10.912C9.412 2.083 4.592 4.928 3.313 9.639l1.063-.912a.75.75 0 1 1 .976 1.139L2.92 11.953a.75.75 0 0 1-1.116-.16L.122 9.218a.75.75 0 0 1 1.256-.82l.507.777ZM12 6.75a.75.75 0 0 1 .75.75v3.75h3.75a.75.75 0 1 1 0 1.5H12a.75.75 0 0 1-.75-.75m0-.002V7.5a.75.75 0 0 1 .75-.75" clip-rule="evenodd"/>
  </g>
  <defs>
    <clipPath id="a">
      <path d="M0 0h24v24H0z"/>
    </clipPath>
  </defs>
</svg>
