<svg xmlns="http://www.w3.org/2000/svg" width="24" height="24" fill="currentColor" viewBox="0 0 24 24">
  <g clip-path="url(#a)">
    <path d="M0 0h24v24H0z"/>
    <path fill-rule="evenodd" d="M.34 8.18a.75.75 0 0 0-.218 1.038l1.681 2.575a.75.75 0 0 0 1.116.16l2.433-2.087a.75.75 0 1 0-.976-1.139l-1.784 1.53-1.214-1.859A.75.75 0 0 0 .34 8.18Z" clip-rule="evenodd"/>
    <path fill-rule="evenodd" d="M14.54 1.81C8.91.412 3.212 3.835 1.81 9.46a.75.75 0 0 0 1.455.362c1.202-4.82 6.085-7.755 10.913-6.556 4.82 1.202 7.755 6.084 6.556 10.912-1.202 4.82-6.085 7.755-10.913 6.556a8.994 8.994 0 0 1-6.526-6.447.75.75 0 1 0-1.451.382 10.494 10.494 0 0 0 7.615 7.521c5.631 1.398 11.328-2.024 12.73-7.65 1.399-5.63-2.024-11.327-7.649-12.73Z" clip-rule="evenodd"/>
    <path fill-rule="evenodd" d="M12 6.75a.75.75 0 0 1 .75.75V12a.75.75 0 0 1-1.5 0V7.5a.75.75 0 0 1 .75-.75Z" clip-rule="evenodd"/>
    <path fill-rule="evenodd" d="M17.25 12a.75.75 0 0 1-.75.75H12a.75.75 0 0 1 0-1.5h4.5a.75.75 0 0 1 .75.75Z" clip-rule="evenodd"/>
  </g>
  <defs>
    <clipPath id="a">
      <path d="M0 0h24v24H0z"/>
    </clipPath>
  </defs>
</svg>
