<svg xmlns="http://www.w3.org/2000/svg" width="24" height="24" fill="currentColor" viewBox="0 0 24 24">
  <path fill-rule="evenodd" d="M22.5 12c0-5.798-4.702-10.5-10.5-10.5a10.47 10.47 0 0 0-7.413 3.063l-.087.08V2.25a.75.75 0 0 0-1.5 0v4.5c0 .414.336.75.75.75h4.5a.75.75 0 0 0 0-1.5H5.238l.373-.34A8.97 8.97 0 0 1 12 3c4.968 0 8.999 4.03 8.999 9 0 2-.655 3.85-1.76 5.34l-.001.002A8.99 8.99 0 0 1 12 21a9 9 0 0 1-9-9 .75.75 0 0 0-1.5 0c0 5.798 4.702 10.5 10.5 10.5 3.459 0 6.534-1.681 8.445-4.267A10.442 10.442 0 0 0 22.5 12Zm-9.75-3.75a.75.75 0 0 0-1.5 0v4.5c0 .414.336.75.75.75h4.5a.75.75 0 0 0 0-1.5h-3.75V8.25Z" clip-rule="evenodd"/>
</svg>
