<svg xmlns="http://www.w3.org/2000/svg" width="24" height="24" fill="currentColor" viewBox="0 0 24 24">
  <path fill-rule="evenodd" d="M12.607 1.681a.75.75 0 0 0-.97-.006l-9.869 8.28a.75.75 0 0 0 .492 1.324l1.49-.02V21.75c0 .414.336.75.75.75h15a.75.75 0 0 0 .75-.75V11.26l1.49.019a.75.75 0 0 0 .499-1.319l-9.632-8.279ZM15.75 21h3V10.5a.75.75 0 0 1 .76-.75l.186.002-7.584-6.518-7.77 6.518.148-.002a.75.75 0 0 1 .76.75V21h3v-5.572c0-1.01.778-1.928 1.845-1.928h3.81c1.067 0 1.845.919 1.845 1.928V21Zm-6 0h4.5v-5.572c0-.286-.208-.428-.345-.428h-3.81c-.137 0-.345.142-.345.428V21Z" clip-rule="evenodd"/>
</svg>
