<svg xmlns="http://www.w3.org/2000/svg" width="24" height="24" fill="currentColor" viewBox="0 0 24 24">
  <path fill-rule="evenodd" d="M11.636 1.675a.75.75 0 0 1 .971.006L22.24 9.96a.75.75 0 0 1-.499 1.319l-1.49-.02V21.75a.75.75 0 0 1-.75.75h-15a.75.75 0 0 1-.75-.75V11.26l-1.49.019a.75.75 0 0 1-.492-1.325l9.868-8.279ZM4.343 9.752l.147-.002a.75.75 0 0 1 .76.75V21h13.5V10.5a.75.75 0 0 1 .76-.75l.186.002-7.584-6.518-7.77 6.518Z" clip-rule="evenodd"/>
  <path fill-rule="evenodd" d="M10.095 15c-.137 0-.345.142-.345.428V21h4.5v-5.572c0-.286-.208-.428-.345-.428h-3.81Zm-1.845.428c0-1.01.778-1.928 1.845-1.928h3.81c1.067 0 1.845.919 1.845 1.928v6.322a.75.75 0 0 1-.75.75H9a.75.75 0 0 1-.75-.75v-6.322Z" clip-rule="evenodd"/>
</svg>
