<svg xmlns="http://www.w3.org/2000/svg" width="24" height="24" fill="currentColor" viewBox="0 0 24 24">
  <path fill-rule="evenodd" d="M3 2.25a.75.75 0 0 1 .75-.75h16.5a.75.75 0 0 1 0 1.5H3.75A.75.75 0 0 1 3 2.25Zm0 19.5a.75.75 0 0 1 .75-.75h16.5a.75.75 0 0 1 0 1.5H3.75a.75.75 0 0 1-.75-.75Z" clip-rule="evenodd"/>
  <path fill-rule="evenodd" d="M6.75 1.5a.75.75 0 0 1 .75.75v4.332c0 2.602 2.037 4.668 4.5 4.668 3.335 0 6 2.782 6 6.168v4.332a.75.75 0 0 1-1.5 0v-4.332c0-2.602-2.037-4.668-4.5-4.668-3.335 0-6-2.782-6-6.168V2.25a.75.75 0 0 1 .75-.75Z" clip-rule="evenodd"/>
  <path fill-rule="evenodd" d="M17.25 1.5a.75.75 0 0 1 .75.75v4.332c0 3.386-2.665 6.168-6 6.168-2.463 0-4.5 2.066-4.5 4.668v4.332a.75.75 0 0 1-1.5 0v-4.332c0-3.386 2.665-6.168 6-6.168 2.463 0 4.5-2.066 4.5-4.668V2.25a.75.75 0 0 1 .75-.75Z" clip-rule="evenodd"/>
</svg>
