<svg xmlns="http://www.w3.org/2000/svg" width="24" height="24" fill="currentColor" viewBox="0 0 24 24">
  <path fill-rule="evenodd" d="M3.75 1.5a.75.75 0 0 0 0 1.5H6v3.582C6 8.909 7.258 10.95 9.128 12 7.258 13.05 6 15.091 6 17.418V21H3.75a.75.75 0 0 0 0 1.5h16.5a.75.75 0 0 0 0-1.5H18v-3.582c0-2.327-1.259-4.368-3.128-5.418C16.742 10.95 18 8.909 18 6.582V3h2.25a.75.75 0 0 0 0-1.5H3.75ZM16.5 3h-9v3.582c0 2.602 2.037 4.668 4.5 4.668s4.5-2.066 4.5-4.668V3ZM12 12.75c-2.463 0-4.5 2.066-4.5 4.668V21h9v-3.582c0-2.602-2.037-4.668-4.5-4.668Z" clip-rule="evenodd"/>
</svg>
