<svg xmlns="http://www.w3.org/2000/svg" width="24" height="24" fill="currentColor" viewBox="0 0 24 24">
  <path fill-rule="evenodd" d="m6.752 9.201.903.189a.748.748 0 0 1 .578.893.758.758 0 0 1-.893.577l-1.124-.24c-.622-.112-.997-.105-1.357.038-1.11.45-1.86 1.545-1.86 2.73 0 1.71 1.35 3.104 3 3.104h2.623c.413 0 .75.338.75.75 0 .413-.337.75-.75.75V18H5.998C3.517 18 1.5 15.937 1.5 13.395c0-1.793 1.125-3.45 2.804-4.125.31-.124.62-.197.963-.219C5.509 5.672 8.317 3 11.729 3a6.486 6.486 0 0 1 6.157 4.5h.033c2.4 0 4.581 2.348 4.581 4.928 0 .72-.105 1.41-.315 2.062a.754.754 0 0 1-.712.518L21.458 15a.748.748 0 0 1-.712-.982 5.041 5.041 0 0 0 .247-1.59c0-1.763-1.5-3.428-3.081-3.428-.81 0-1.477.42-1.725.607a.747.747 0 0 1-1.05-.164.747.747 0 0 1 .166-1.05 4.77 4.77 0 0 1 1.092-.6A4.98 4.98 0 0 0 11.721 4.5c-2.637 0-4.803 2.077-4.969 4.701ZM15.375 21c-.188 0-.375-.046-.547-.144l-3-1.687a1.134 1.134 0 0 1-.578-.995v-3.35c0-.41.225-.798.578-.995l3-1.687c.345-.19.75-.19 1.095 0l3 1.687c.36.197.577.585.577.995v3.35c0 .41-.225.798-.578.995l-3 1.687a1.1 1.1 0 0 1-.547.144Zm-2.625-3.054 2.625 1.481L18 17.947v-2.903l-2.625-1.481-2.625 1.481v2.902Z" clip-rule="evenodd"/>
</svg>
