<svg xmlns="http://www.w3.org/2000/svg" width="24" height="24" fill="currentColor" viewBox="0 0 24 24">
  <path d="M8.622 18H5.998C3.517 18 1.5 15.937 1.5 13.395c0-1.793 1.125-3.45 2.804-4.125.637-.255 1.275-.293 2.204-.12l1.147.24a.748.748 0 0 1 .578.893.758.758 0 0 1-.893.577l-1.124-.24c-.622-.112-.997-.105-1.357.038-1.11.45-1.86 1.545-1.86 2.73 0 1.71 1.35 3.104 3 3.104h2.623c.413 0 .75.338.75.75 0 .413-.337.75-.75.75V18Zm12.836-3a.748.748 0 0 1-.712-.982 5.041 5.041 0 0 0 .247-1.59c0-1.763-1.5-3.428-3.081-3.428-.81 0-1.477.42-1.725.607a.747.747 0 0 1-1.05-.164.747.747 0 0 1 .166-1.05c.457-.338 1.402-.893 2.616-.893 2.4 0 4.581 2.348 4.581 4.928 0 .72-.105 1.41-.315 2.062a.754.754 0 0 1-.712.518L21.458 15Zm-6.083 6c-.188 0-.375-.046-.547-.144l-3-1.687a1.134 1.134 0 0 1-.578-.995v-3.35c0-.41.225-.798.578-.995l3-1.687c.345-.19.75-.19 1.095 0l3 1.687c.36.197.577.585.577.995v3.35c0 .41-.225.798-.578.995l-3 1.687a1.1 1.1 0 0 1-.547.144Zm-2.625-3.054 2.625 1.481L18 17.947v-2.903l-2.625-1.481-2.625 1.481v2.902Z"/>
  <path d="M6 10.5a.752.752 0 0 1-.75-.75v-.225C5.25 5.925 8.16 3 11.729 3c2.917 0 5.481 1.973 6.246 4.8a.757.757 0 0 1-.533.923.75.75 0 0 1-.922-.533 4.98 4.98 0 0 0-4.799-3.69c-2.744 0-4.979 2.25-4.979 5.025v.225c0 .412-.337.75-.75.75H6Z"/>
</svg>
