<svg xmlns="http://www.w3.org/2000/svg" width="24" height="24" fill="currentColor" viewBox="0 0 24 24">
  <path fill-rule="evenodd" d="M1.5 3.75A2.25 2.25 0 0 1 3.75 1.5h12A2.25 2.25 0 0 1 18 3.75V9a.75.75 0 0 1-1.5 0V3.75a.75.75 0 0 0-.75-.75h-12a.75.75 0 0 0-.75.75v16.5c0 .414.336.75.75.75h6a.75.75 0 0 1 0 1.5h-6a2.25 2.25 0 0 1-2.25-2.25V3.75Zm5.25 3a3 3 0 1 1 6 0 3 3 0 1 1-6 0Zm3-1.5a1.5 1.5 0 1 0-.001 2.999A1.5 1.5 0 0 0 9.75 5.25Zm-3 7.31c0-.077.039-.202.217-.336A1.17 1.17 0 0 1 7.65 12h2.85a.75.75 0 0 0 0-1.5H7.65a2.67 2.67 0 0 0-1.588.528c-.443.335-.817.867-.812 1.542v1.68c0 .414.336.75.75.75h3a.75.75 0 0 0 0-1.5H6.75v-.941Zm-1.5 4.69A.75.75 0 0 1 6 16.5h2.25a.75.75 0 0 1 0 1.5H6a.75.75 0 0 1-.75-.75Zm.75 1.5a.75.75 0 0 0 0 1.5h2.25a.75.75 0 0 0 0-1.5H6Zm11.16-7.854a.75.75 0 0 1 1.008-.31l2.297 1.201a.75.75 0 0 1 .318 1.01l-.388.75c.186.249.345.514.479.79l.911.043a.75.75 0 0 1 .715.749v2.516a.75.75 0 0 1-.726.75l-.789.025a4.81 4.81 0 0 1-.188.396l-.003.005c-.07.13-.147.26-.23.386l.489.842a.75.75 0 0 1-.28 1.03l-2.356 1.325a.75.75 0 0 1-1.04-.32l-.352-.71a4.74 4.74 0 0 1-.809.022l-.375.703a.75.75 0 0 1-1.01.31l-2.317-1.212a.75.75 0 0 1-.312-1.021l.397-.735a4.909 4.909 0 0 1-.454-.743l-.791.026a.75.75 0 0 1-.774-.727l-.08-2.624a.75.75 0 0 1 .726-.772l.788-.026a4.46 4.46 0 0 1 .192-.4c.068-.128.143-.253.223-.376l-.418-.68a.75.75 0 0 1 .242-1.029l2.217-1.382a.75.75 0 0 1 1.035.243l.417.677c.284-.035.572-.046.862-.029l.375-.703Zm.971 1.363-.265.497a.75.75 0 0 1-.793.384 3.236 3.236 0 0 0-1.34.046.75.75 0 0 1-.819-.334l-.29-.472-.945.589.291.475a.75.75 0 0 1-.064.874 3.452 3.452 0 0 0-.64 1.206.75.75 0 0 1-.694.534l-.55.018.034 1.124.551-.018a.75.75 0 0 1 .729.492c.158.433.396.83.71 1.165a.75.75 0 0 1 .113.87l-.276.511.986.516.265-.497a.75.75 0 0 1 .793-.384c.449.08.907.06 1.34-.046a.75.75 0 0 1 .852.394l.251.506 1.004-.564-.354-.61a.75.75 0 0 1 .074-.858 3.46 3.46 0 0 0 .38-.57c.11-.204.194-.415.26-.636a.75.75 0 0 1 .694-.533l.572-.019v-1.075l-.667-.031a.75.75 0 0 1-.668-.491 3.42 3.42 0 0 0-.712-1.166.75.75 0 0 1-.119-.857l.274-.529-.977-.51ZM17.25 16.5a.75.75 0 1 1-1.5 0 .75.75 0 0 1 1.5 0Zm1.5 0a2.25 2.25 0 1 1-4.5 0 2.25 2.25 0 0 1 4.5 0Z" clip-rule="evenodd"/>
</svg>
