<svg xmlns="http://www.w3.org/2000/svg" width="24" height="24" fill="currentColor" viewBox="0 0 24 24">
  <path fill-rule="evenodd" d="M3.75 3.75A2.25 2.25 0 0 1 6 1.5h12a2.25 2.25 0 0 1 2.25 2.25v16.5A2.25 2.25 0 0 1 18 22.5H6a2.25 2.25 0 0 1-2.25-2.25V3.75ZM6 3a.75.75 0 0 0-.75.75v16.5c0 .414.336.75.75.75h12a.75.75 0 0 0 .75-.75V3.75A.75.75 0 0 0 18 3H6Zm3 3.75a3 3 0 1 1 6 0 3 3 0 1 1-6 0Zm3-1.5a1.5 1.5 0 1 0-.001 2.999A1.5 1.5 0 0 0 12 5.25Zm-3 7.31c0-.077.039-.202.217-.336A1.17 1.17 0 0 1 9.9 12h4.346c.259 0 .466.08.593.181.116.093.162.195.16.31V13.5H9v-.941Zm.9-2.06a2.67 2.67 0 0 0-1.588.528c-.443.335-.817.867-.812 1.542v1.68c0 .414.336.75.75.75h7.5a.75.75 0 0 0 .75-.75v-1.748c.01-1.319-1.202-2.002-2.254-2.002H9.9Zm-2.4 6.75a.75.75 0 0 1 .75-.75h7.5a.75.75 0 0 1 0 1.5h-7.5a.75.75 0 0 1-.75-.75Zm.75 1.5a.75.75 0 0 0 0 1.5h7.5a.75.75 0 0 0 0-1.5h-7.5Z" clip-rule="evenodd"/>
</svg>
