<svg xmlns="http://www.w3.org/2000/svg" width="24" height="24" fill="currentColor" viewBox="0 0 24 24">
  <path fill-rule="evenodd" d="M3.75 3.75A2.25 2.25 0 0 1 6 1.5h12a2.25 2.25 0 0 1 2.25 2.25v16.5A2.25 2.25 0 0 1 18 22.5H6a2.25 2.25 0 0 1-2.25-2.25V3.75ZM6 3a.75.75 0 0 0-.75.75v16.5c0 .414.336.75.75.75h12a.75.75 0 0 0 .75-.75V3.75A.75.75 0 0 0 18 3H6Z" clip-rule="evenodd"/>
  <path fill-rule="evenodd" d="M9 6.75a3 3 0 1 1 6 0 3 3 0 1 1-6 0Zm3-1.5a1.5 1.5 0 1 0-.001 2.999A1.5 1.5 0 0 0 12 5.25Zm-2.783 6.974c-.178.134-.218.26-.217.335v.941h6v-1.008c.001-.116-.045-.218-.161-.31a.963.963 0 0 0-.593-.182H9.9c-.25 0-.505.089-.683.224Zm-.905-1.196A2.67 2.67 0 0 1 9.9 10.5h4.346c1.052 0 2.264.683 2.254 2.002v1.748a.75.75 0 0 1-.75.75h-7.5a.75.75 0 0 1-.75-.75v-1.68c-.005-.675.369-1.207.812-1.542ZM7.5 17.25a.75.75 0 0 1 .75-.75h7.5a.75.75 0 0 1 0 1.5h-7.5a.75.75 0 0 1-.75-.75Zm0 2.25a.75.75 0 0 1 .75-.75h7.5a.75.75 0 0 1 0 1.5h-7.5a.75.75 0 0 1-.75-.75Z" clip-rule="evenodd"/>
</svg>
