<svg xmlns="http://www.w3.org/2000/svg" width="24" height="24" fill="currentColor" viewBox="0 0 24 24">
  <path d="M13.757 20.829a.75.75 0 0 1 .292 1.471 10.548 10.548 0 0 1-4.098 0 .75.75 0 1 1 .292-1.471 9.047 9.047 0 0 0 3.514 0ZM3.475 16.794a.75.75 0 0 1 .994.145l.046.061.256.361a9.055 9.055 0 0 0 1.868 1.868l.36.256.062.046a.75.75 0 0 1-.83 1.24l-.065-.04-.214-.146a10.555 10.555 0 0 1-2.537-2.537l-.146-.213-.04-.066a.75.75 0 0 1 .246-.975Zm16.056.145a.75.75 0 0 1 1.2.895l-.146.214a10.555 10.555 0 0 1-2.75 2.683l-.066.04A.751.751 0 0 1 17 19.485l.361-.256A9.052 9.052 0 0 0 19.485 17l.046-.061ZM1.5 12c0-.7.069-1.386.2-2.049a.75.75 0 1 1 1.471.292 9.047 9.047 0 0 0 0 3.514.75.75 0 0 1-1.471.292A10.55 10.55 0 0 1 1.5 12ZM21 12c0-.602-.06-1.19-.171-1.757L22.3 9.95a10.548 10.548 0 0 1 0 4.098.75.75 0 1 1-1.471-.292A9.047 9.047 0 0 0 21 12Zm.419-2.639a.75.75 0 0 1 .881.59l-1.471.292a.75.75 0 0 1 .59-.882ZM6.23 3.23A.75.75 0 0 1 7 4.515l-.361.256A9.054 9.054 0 0 0 4.515 7l-.046.061a.75.75 0 0 1-1.2-.895l.146-.214a10.555 10.555 0 0 1 2.75-2.683l.066-.04Zm10.563.246a.75.75 0 0 1 .975-.246l.066.04.213.146a10.555 10.555 0 0 1 2.537 2.537l.146.214.04.065a.75.75 0 0 1-1.24.83L19.485 7l-.256-.361a9.055 9.055 0 0 0-1.868-1.868l-.36-.256-.062-.046a.75.75 0 0 1-.145-.994ZM12 1.5c.7 0 1.386.069 2.049.2a.75.75 0 1 1-.292 1.471 9.047 9.047 0 0 0-3.514 0A.75.75 0 0 1 9.95 1.7 10.55 10.55 0 0 1 12 1.5Z"/>
</svg>
