<svg xmlns="http://www.w3.org/2000/svg" width="24" height="24" fill="none" viewBox="0 0 24 24">
  <path fill="#3D3C3C" fill-rule="evenodd" d="M3 1.5A1.5 1.5 0 0 0 1.5 3v17.25a2.25 2.25 0 0 0 2.25 2.25h16.5a2.25 2.25 0 0 0 2.25-2.25V6.336a1.5 1.5 0 0 0-2.251-1.298L15 8.075V6.37a1.5 1.5 0 0 0-2.28-1.281L7.875 8.04V3a1.5 1.5 0 0 0-1.5-1.5H3ZM18.75 21h1.5a.75.75 0 0 0 .75-.75V6.336l-5.249 3.037A1.5 1.5 0 0 1 13.5 8.075V6.37L8.655 9.32a1.5 1.5 0 0 1-2.28-1.28V3H3v17.25c0 .414.336.75.75.75H12v-6a1.5 1.5 0 0 1 1.5-1.5h3.75a1.5 1.5 0 0 1 1.5 1.5v6Zm-5.25 0h3.75v-6H13.5v6Z" clip-rule="evenodd"/>
</svg>
