<svg xmlns="http://www.w3.org/2000/svg" width="24" height="24" fill="currentColor" viewBox="0 0 24 24">
  <path fill-rule="evenodd" d="M1.5 3.75A2.25 2.25 0 0 1 3.75 1.5h16.5a2.25 2.25 0 0 1 2.25 2.25v16.5a2.25 2.25 0 0 1-2.25 2.25H3.75a2.25 2.25 0 0 1-2.25-2.25V3.75ZM3.75 3a.75.75 0 0 0-.75.75v16.5c0 .414.336.75.75.75h16.5a.75.75 0 0 0 .75-.75V3.75a.75.75 0 0 0-.75-.75H3.75ZM12 9.75a.75.75 0 0 1 .75.75v6a.75.75 0 0 1-1.5 0v-6a.75.75 0 0 1 .75-.75Zm0-1.5a.75.75 0 1 0 0-1.5.75.75 0 0 0 0 1.5Z" clip-rule="evenodd"/>
</svg>
