<svg xmlns="http://www.w3.org/2000/svg" width="24" height="24" fill="currentColor" viewBox="0 0 24 24">
  <path fill-rule="evenodd" d="M1.5 3.75A2.25 2.25 0 0 1 3.75 1.5h16.5a2.25 2.25 0 0 1 2.25 2.25v16.5a2.25 2.25 0 0 1-2.25 2.25H3.75a2.25 2.25 0 0 1-2.25-2.25V3.75ZM3.75 3a.75.75 0 0 0-.75.75v16.5c0 .414.336.75.75.75h16.5a.75.75 0 0 0 .75-.75V3.75a.75.75 0 0 0-.75-.75H3.75ZM12 9.747c.518 0 .938.42.938.938v6.377a.937.937 0 1 1-1.876 0v-6.377c0-.518.42-.938.938-.938Zm0-1.497A1.125 1.125 0 1 0 12 6a1.125 1.125 0 0 0 0 2.25Z" clip-rule="evenodd"/>
</svg>
