<svg xmlns="http://www.w3.org/2000/svg" width="24" height="24" fill="currentColor" viewBox="0 0 24 24">
  <path fill-rule="evenodd" d="M10.736 1.5c-.71 0-1.292.582-1.292 1.292V4.07a8.27 8.27 0 0 0-1.244.516l-.898-.9a1.295 1.295 0 0 0-1.827 0L3.691 5.472a1.296 1.296 0 0 0 0 1.826l.9.9a8.297 8.297 0 0 0-.517 1.246H2.792c-.711 0-1.292.582-1.292 1.292v2.53c0 .71.58 1.292 1.292 1.292h1.275c.139.43.311.847.516 1.246l-.9.9a1.296 1.296 0 0 0 0 1.826l1.785 1.785a1.295 1.295 0 0 0 1.826 0l.899-.899a8.27 8.27 0 0 0 1.244.516v1.277c0 .71.581 1.292 1.292 1.292h.521a.75.75 0 0 0 0-1.5h-.313v-1.635a.75.75 0 0 0-.57-.728 6.79 6.79 0 0 1-1.912-.794.75.75 0 0 0-.922.11l-1.152 1.153-1.49-1.49 1.154-1.154a.75.75 0 0 0 .11-.921 6.8 6.8 0 0 1-.794-1.914.75.75 0 0 0-.728-.57H3v-2.114h1.64a.75.75 0 0 0 .729-.57 6.8 6.8 0 0 1 .793-1.914.75.75 0 0 0-.11-.92L4.9 6.383l1.49-1.49 1.15 1.154a.75.75 0 0 0 .921.11 6.788 6.788 0 0 1 1.913-.794.75.75 0 0 0 .57-.728V3h.305a.75.75 0 0 0 0-1.5h-.514ZM16.5 6a.75.75 0 0 0-.75.75V9h-4.5a.753.753 0 0 0-.17.02c-1.03.093-1.754.516-2.215 1.105-.496.634-.615 1.365-.615 1.823 0 .454.117 1.203.603 1.859.516.697 1.38 1.193 2.667 1.193h4.23v2.25c0 .414.336.75.75.75h1.628a2.251 2.251 0 1 0 0-1.5h-.878v-2.25a.75.75 0 0 0-.75-.75h-4.98c-.857 0-1.254-.306-1.462-.586a1.71 1.71 0 0 1-.308-.966c0-.24.069-.608.296-.898.2-.255.597-.55 1.474-.55h4.98a.75.75 0 0 0 .75-.75V7.5H18a.755.755 0 0 0 .124-.01 2.251 2.251 0 1 0 0-1.48A.755.755 0 0 0 18 6h-1.5Zm3 11.25a.75.75 0 1 0 1.5 0 .75.75 0 0 0-1.5 0ZM14.99 5.876A.75.75 0 0 1 15 6v1.5a.75.75 0 0 1-.75.75h-3c-1.43 0-2.34.62-2.916 1.387-.599.8-.834 1.764-.834 2.363 0 .652.167 1.61.708 2.382.51.73 1.402 1.368 3.042 1.368h3a.75.75 0 0 1 .75.75V18a.75.75 0 0 1-.01.124 2.251 2.251 0 1 1-1.48 0A.75.75 0 0 1 13.5 18v-.75h-2.25c-2.11 0-3.469-.862-4.27-2.007C6.207 14.14 6 12.848 6 12c0-.9.327-2.186 1.134-3.262.831-1.109 2.17-1.988 4.116-1.988h2.25V6a.75.75 0 0 1 .01-.124 2.25 2.25 0 1 1 1.48 0ZM10.5 12a.75.75 0 0 1 .75-.75h6.878a2.251 2.251 0 1 1 0 1.5H11.25a.75.75 0 0 1-.75-.75Zm3-8.25a.75.75 0 1 1 1.5 0 .75.75 0 0 1-1.5 0ZM20.25 6a.75.75 0 1 0 0 1.5.75.75 0 0 0 0-1.5Zm-.75 6a.75.75 0 1 1 1.5 0 .75.75 0 0 1-1.5 0Zm-5.25 7.5a.75.75 0 1 0 0 1.5.75.75 0 0 0 0-1.5Z" clip-rule="evenodd"/>
</svg>
