<svg xmlns="http://www.w3.org/2000/svg" width="24" height="24" fill="currentColor" viewBox="0 0 24 24">
  <path fill-rule="evenodd" d="M9.444 2.792c0-.71.581-1.292 1.292-1.292h.514a.75.75 0 0 1 0 1.5h-.306v1.635a.75.75 0 0 1-.57.728 6.76 6.76 0 0 0-1.912.794.75.75 0 0 1-.921-.11L6.388 4.894 4.9 6.384l1.153 1.154a.75.75 0 0 1 .11.921 6.8 6.8 0 0 0-.793 1.914.75.75 0 0 1-.728.57H3v2.114h1.633a.75.75 0 0 1 .728.57 6.8 6.8 0 0 0 .794 1.914.75.75 0 0 1-.11.92l-1.153 1.155 1.49 1.49 1.151-1.153a.75.75 0 0 1 .922-.11 6.79 6.79 0 0 0 1.913.794.75.75 0 0 1 .57.728V21h.312a.75.75 0 0 1 0 1.5h-.521a1.296 1.296 0 0 1-1.292-1.292V19.93a8.279 8.279 0 0 1-1.244-.516l-.899.9a1.295 1.295 0 0 1-1.826 0l-1.784-1.786a1.296 1.296 0 0 1 0-1.826l.899-.9a8.298 8.298 0 0 1-.516-1.246H2.792A1.296 1.296 0 0 1 1.5 13.264v-2.53c0-.71.58-1.292 1.292-1.292h1.282c.14-.43.311-.847.516-1.246l-.899-.9a1.296 1.296 0 0 1 0-1.826l1.784-1.785a1.295 1.295 0 0 1 1.827 0l.898.899a8.286 8.286 0 0 1 1.244-.516V2.792Z" clip-rule="evenodd"/>
  <path fill-rule="evenodd" d="M15.75 6.75A.75.75 0 0 1 16.5 6H18a.75.75 0 0 1 0 1.5h-.75v2.25a.75.75 0 0 1-.75.75h-5.25a.75.75 0 0 1 0-1.5h4.5V6.75Z" clip-rule="evenodd"/>
  <path fill-rule="evenodd" d="M14.25 5.25A.75.75 0 0 1 15 6v1.5a.75.75 0 0 1-.75.75h-3c-1.43 0-2.34.62-2.916 1.387-.599.8-.834 1.764-.834 2.363 0 .652.167 1.61.708 2.382.51.73 1.402 1.368 3.042 1.368h3a.75.75 0 0 1 .75.75V18a.75.75 0 0 1-1.5 0v-.75h-2.25c-2.11 0-3.469-.862-4.27-2.007C6.207 14.14 6 12.848 6 12c0-.9.327-2.186 1.134-3.262.831-1.109 2.17-1.988 4.116-1.988h2.25V6a.75.75 0 0 1 .75-.75Z" clip-rule="evenodd"/>
  <path fill-rule="evenodd" d="M8.865 10.125C9.39 9.455 10.252 9 11.52 9a.75.75 0 0 1 0 1.5c-.877 0-1.274.295-1.474.55-.227.29-.296.657-.296.898 0 .243.07.645.308.966.208.28.604.586 1.462.586h4.98a.75.75 0 0 1 .75.75v2.25h1.5a.75.75 0 0 1 0 1.5H16.5a.75.75 0 0 1-.75-.75V15h-4.23c-1.287 0-2.15-.496-2.667-1.193-.486-.656-.603-1.405-.603-1.86 0-.457.119-1.188.615-1.822Z" clip-rule="evenodd"/>
  <path fill-rule="evenodd" d="M10.5 12a.75.75 0 0 1 .75-.75h7.125a.75.75 0 0 1 0 1.5H11.25a.75.75 0 0 1-.75-.75Zm3.75-9a.75.75 0 1 0 0 1.5.75.75 0 0 0 0-1.5ZM12 3.75a2.25 2.25 0 1 1 4.5 0 2.25 2.25 0 0 1-4.5 0ZM20.25 6a.75.75 0 1 0 0 1.5.75.75 0 0 0 0-1.5ZM18 6.75a2.25 2.25 0 1 1 4.5 0 2.25 2.25 0 0 1-4.5 0Z" clip-rule="evenodd"/>
  <path fill-rule="evenodd" d="M20.25 11.25a.75.75 0 1 0 0 1.5.75.75 0 0 0 0-1.5ZM18 12a2.25 2.25 0 1 1 4.5 0 2.25 2.25 0 0 1-4.5 0Zm-3.75 7.5a.75.75 0 1 0 0 1.5.75.75 0 0 0 0-1.5Zm-2.25.75a2.25 2.25 0 1 1 4.5 0 2.25 2.25 0 0 1-4.5 0Zm8.25-3.75a.75.75 0 1 0 0 1.5.75.75 0 0 0 0-1.5Zm-2.25.75a2.25 2.25 0 1 1 4.5 0 2.25 2.25 0 0 1-4.5 0Z" clip-rule="evenodd"/>
</svg>
