<svg xmlns="http://www.w3.org/2000/svg" width="24" height="24" fill="currentColor" viewBox="0 0 24 24">
  <path d="M8.25 3a.75.75 0 0 1 0 1.5H4.176C3.513 4.5 3 5.024 3 5.64v8.61h18v-.75a.75.75 0 0 1 1.5 0v2.61c0 1.471-1.212 2.64-2.676 2.64H12.75V21h3.75a.75.75 0 0 1 0 1.5h-9a.75.75 0 0 1 0-1.5h3.75v-2.25H4.176c-1.464 0-2.676-1.169-2.676-2.64V5.64C1.5 4.169 2.712 3 4.176 3H8.25ZM3 16.11c0 .616.513 1.14 1.176 1.14h15.648c.663 0 1.176-.524 1.176-1.14v-.36H3v.36ZM15.75 1.5c3.305 0 6 2.695 6 6 0 3.306-2.695 6-6 6a6.01 6.01 0 0 1-6-6c0-3.305 2.694-6 6-6Zm-1.474 6.75c.07 1.06.282 1.987.574 2.667.18.42.374.71.552.887.175.172.292.196.348.196.056 0 .173-.024.348-.196.178-.176.373-.468.553-.887.292-.68.503-1.607.573-2.667h-2.948Zm-2.963 0a4.518 4.518 0 0 0 2.09 3.086c-.34-.86-.562-1.927-.629-3.086h-1.46Zm7.413 0c-.067 1.16-.29 2.226-.63 3.086a4.518 4.518 0 0 0 2.09-3.086h-1.46Zm-5.323-4.587a4.519 4.519 0 0 0-2.09 3.087h1.461c.068-1.16.289-2.227.63-3.087ZM15.75 3c-.056 0-.173.024-.348.196-.178.176-.373.468-.552.887-.292.68-.504 1.607-.574 2.667h2.948c-.07-1.06-.28-1.987-.573-2.667-.18-.42-.375-.71-.553-.887-.175-.172-.292-.196-.348-.196Zm2.346.663c.34.86.563 1.927.63 3.087h1.46a4.519 4.519 0 0 0-2.09-3.087Z"/>
</svg>
