<svg xmlns="http://www.w3.org/2000/svg" width="24" height="24" fill="currentColor" viewBox="0 0 24 24">
  <path fill-rule="evenodd" d="M8.25 12.75A2.25 2.25 0 0 1 10.5 15v4.5a2.25 2.25 0 0 1-2.25 2.25h-4.5A2.25 2.25 0 0 1 1.5 19.5V15a2.25 2.25 0 0 1 2.25-2.25h4.5Zm-4.5 1.5A.75.75 0 0 0 3 15v4.5c0 .414.336.75.75.75h4.5A.75.75 0 0 0 9 19.5V15a.75.75 0 0 0-.75-.75h-1.5v1.5a.75.75 0 0 1-1.5 0v-1.5h-1.5Zm15.75-1.5A2.25 2.25 0 0 1 21.75 15v4.5a2.25 2.25 0 0 1-2.25 2.25H15a2.25 2.25 0 0 1-2.25-2.25V15A2.25 2.25 0 0 1 15 12.75h4.5Zm-4.5 1.5a.75.75 0 0 0-.75.75v4.5c0 .414.336.75.75.75h4.5a.75.75 0 0 0 .75-.75V15a.75.75 0 0 0-.75-.75H18v1.5a.75.75 0 0 1-1.5 0v-1.5H15Zm-6.75-12A2.25 2.25 0 0 1 10.5 4.5V9a2.25 2.25 0 0 1-2.25 2.25h-4.5A2.25 2.25 0 0 1 1.5 9V4.5a2.25 2.25 0 0 1 2.25-2.25h4.5Zm-4.5 1.5A.75.75 0 0 0 3 4.5V9c0 .414.336.75.75.75h4.5A.75.75 0 0 0 9 9V4.5a.75.75 0 0 0-.75-.75h-1.5v1.5a.75.75 0 0 1-1.5 0v-1.5h-1.5Z" clip-rule="evenodd"/>
  <path d="M17.25 5.625a1.125 1.125 0 1 1 0 2.25 1.125 1.125 0 0 1 0-2.25Z"/>
  <path fill-rule="evenodd" d="M17.25 3c1.69 0 3.348.833 4.481 2.43l.63.887a.75.75 0 0 1 0 .869l-.63.887c-1.134 1.595-2.792 2.427-4.483 2.427-1.584 0-3.14-.731-4.261-2.137l-.219-.29-.63-.887a.75.75 0 0 1 0-.869l.63-.887C13.901 3.833 15.56 3 17.25 3Zm0 1.5c-1.18 0-2.392.576-3.258 1.798l-.322.453.322.453C14.857 8.424 16.07 9 17.247 9c1.18 0 2.392-.576 3.26-1.796l.321-.453-.32-.452C19.642 5.077 18.428 4.5 17.25 4.5Z" clip-rule="evenodd"/>
</svg>
