<svg xmlns="http://www.w3.org/2000/svg" width="24" height="24" fill="currentColor" viewBox="0 0 24 24">
  <path d="M8.25 13.5a2.25 2.25 0 0 1 2.25 2.25v4.5a2.25 2.25 0 0 1-2.25 2.25h-4.5a2.25 2.25 0 0 1-2.25-2.25v-4.5a2.25 2.25 0 0 1 2.25-2.25h4.5Zm11.25 0a2.25 2.25 0 0 1 2.25 2.25v4.5a2.25 2.25 0 0 1-2.25 2.25H15a2.25 2.25 0 0 1-2.25-2.25v-4.5A2.25 2.25 0 0 1 15 13.5h4.5ZM3.75 15a.75.75 0 0 0-.75.75v4.5c0 .414.336.75.75.75h4.5a.75.75 0 0 0 .75-.75v-4.5a.75.75 0 0 0-.75-.75h-1.5v1.5a.75.75 0 0 1-1.5 0V15h-1.5ZM15 15a.75.75 0 0 0-.75.75v4.5c0 .414.336.75.75.75h4.5a.75.75 0 0 0 .75-.75v-4.5a.75.75 0 0 0-.75-.75H18v1.5a.75.75 0 0 1-1.5 0V15H15Zm2.25-12.75a5.25 5.25 0 1 1 0 10.5A5.25 5.25 0 0 1 12 7.5a5.25 5.25 0 0 1 5.25-5.25Zm-9 .75a2.25 2.25 0 0 1 2.25 2.25v4.5A2.25 2.25 0 0 1 8.25 12h-4.5A2.25 2.25 0 0 1 1.5 9.75v-4.5A2.25 2.25 0 0 1 3.75 3h4.5Zm9 .75a3.75 3.75 0 1 0-.001 7.499 3.75 3.75 0 0 0 .001-7.499Zm-13.5.75a.75.75 0 0 0-.75.75v4.5c0 .414.336.75.75.75h4.5A.75.75 0 0 0 9 9.75v-4.5a.75.75 0 0 0-.75-.75h-1.5V6a.75.75 0 0 1-1.5 0V4.5h-1.5Zm14.386 1.07a.75.75 0 0 1 1.228.86l-2.102 3a.75.75 0 0 1-1.23-.001l-.897-1.288a.75.75 0 0 1 1.23-.858l.283.407 1.488-2.12Z"/>
</svg>
