<svg xmlns="http://www.w3.org/2000/svg" width="24" height="24" fill="currentColor" viewBox="0 0 24 24">
  <path d="M8.25 13.5a2.25 2.25 0 0 1 2.25 2.25v4.5a2.25 2.25 0 0 1-2.25 2.25h-4.5a2.25 2.25 0 0 1-2.25-2.25v-4.5a2.25 2.25 0 0 1 2.25-2.25h4.5Zm10.5 0A2.25 2.25 0 0 1 21 15.75v4.5a2.25 2.25 0 0 1-2.25 2.25h-4.5A2.25 2.25 0 0 1 12 20.25v-4.5a2.25 2.25 0 0 1 2.25-2.25h4.5Zm-15 1.5a.75.75 0 0 0-.75.75v4.5c0 .414.336.75.75.75h4.5a.75.75 0 0 0 .75-.75v-4.5a.75.75 0 0 0-.75-.75h-1.5v1.5a.75.75 0 0 1-1.5 0V15h-1.5Zm10.5 0a.75.75 0 0 0-.75.75v4.5c0 .414.336.75.75.75h4.5a.75.75 0 0 0 .75-.75v-4.5a.75.75 0 0 0-.75-.75h-1.5v1.5a.75.75 0 0 1-1.5 0V15h-1.5ZM16.5 2.25a4.5 4.5 0 0 1 3.667 7.106l2.113 2.114a.75.75 0 1 1-1.06 1.06l-2.114-2.113A4.5 4.5 0 1 1 16.5 2.25ZM8.25 3a2.25 2.25 0 0 1 2.25 2.25v4.5A2.25 2.25 0 0 1 8.25 12h-4.5A2.25 2.25 0 0 1 1.5 9.75v-4.5A2.25 2.25 0 0 1 3.75 3h4.5Zm-4.5 1.5a.75.75 0 0 0-.75.75v4.5c0 .414.336.75.75.75h4.5A.75.75 0 0 0 9 9.75v-4.5a.75.75 0 0 0-.75-.75h-1.5V6a.75.75 0 0 1-1.5 0V4.5h-1.5Zm12.75-.75a3 3 0 1 0 0 6 3 3 0 0 0 0-6Z"/>
</svg>
