<svg xmlns="http://www.w3.org/2000/svg" width="24" height="24" fill="currentColor" viewBox="0 0 24 24">
  <path fill-rule="evenodd" d="M8.25 13.5a2.25 2.25 0 0 1 2.25 2.25v4.5a2.25 2.25 0 0 1-2.25 2.25h-4.5a2.25 2.25 0 0 1-2.25-2.25v-4.5a2.25 2.25 0 0 1 2.25-2.25h4.5ZM3.75 15a.75.75 0 0 0-.75.75v4.5c0 .414.336.75.75.75h4.5a.75.75 0 0 0 .75-.75v-4.5a.75.75 0 0 0-.75-.75h-1.5v1.5a.75.75 0 0 1-1.5 0V15h-1.5Zm15-1.5A2.25 2.25 0 0 1 21 15.75v4.5a2.25 2.25 0 0 1-2.25 2.25h-4.5A2.25 2.25 0 0 1 12 20.25v-4.5a2.25 2.25 0 0 1 2.25-2.25h4.5Zm-4.5 1.5a.75.75 0 0 0-.75.75v4.5c0 .414.336.75.75.75h4.5a.75.75 0 0 0 .75-.75v-4.5a.75.75 0 0 0-.75-.75h-1.5v1.5a.75.75 0 0 1-1.5 0V15h-1.5Zm3-10.5a2.25 2.25 0 1 1 0 4.5 2.25 2.25 0 0 1 0-4.5Zm0 1.5a.75.75 0 1 0 0 1.5.75.75 0 0 0 0-1.5Z" clip-rule="evenodd"/>
  <path fill-rule="evenodd" d="M17.949 1.081a.75.75 0 0 1 .97-.245l2.296 1.2a.75.75 0 0 1 .318 1.01l-.389.75c.186.25.345.515.479.79l.912.044a.75.75 0 0 1 .715.749v2.516a.75.75 0 0 1-.726.75l-.79.025a4.811 4.811 0 0 1-.187.396l-.003.005a5.48 5.48 0 0 1-.23.385l.489.843a.75.75 0 0 1-.28 1.03l-2.355 1.325a.751.751 0 0 1-1.04-.32l-.354-.713c-.266.03-.536.04-.807.024l-.376.704a.75.75 0 0 1-1.01.31l-2.317-1.212a.752.752 0 0 1-.313-1.021l.398-.737a4.909 4.909 0 0 1-.453-.742l-.792.027a.751.751 0 0 1-.774-.728l-.08-2.623a.75.75 0 0 1 .726-.772l.789-.027a4.45 4.45 0 0 1 .19-.4c.07-.126.144-.251.223-.374l-.417-.68a.75.75 0 0 1 .242-1.03L15.22.958a.75.75 0 0 1 1.035.243l.418.678c.283-.036.57-.046.86-.03l.376-.703.04-.065Zm.667 1.925a.75.75 0 0 1-.793.384 3.249 3.249 0 0 0-1.34.046.75.75 0 0 1-.819-.334l-.291-.473-.944.59.291.475a.75.75 0 0 1-.064.874 3.366 3.366 0 0 0-.64 1.206.75.75 0 0 1-.694.534l-.55.017.034 1.124.551-.017.12.006a.75.75 0 0 1 .608.485c.159.433.397.83.712 1.166a.75.75 0 0 1 .112.869l-.277.512.986.516.266-.496.065-.101a.75.75 0 0 1 .728-.284c.449.08.907.06 1.34-.047a.751.751 0 0 1 .852.395l.25.506 1.004-.564-.353-.61a.75.75 0 0 1 .073-.858 3.451 3.451 0 0 0 .641-1.206l.044-.111a.75.75 0 0 1 .65-.423l.572-.019V6.094l-.666-.032a.75.75 0 0 1-.67-.49 3.423 3.423 0 0 0-.711-1.166.75.75 0 0 1-.119-.857l.273-.53-.976-.51-.265.497ZM8.25 3a2.25 2.25 0 0 1 2.25 2.25v4.5A2.25 2.25 0 0 1 8.25 12h-4.5A2.25 2.25 0 0 1 1.5 9.75v-4.5A2.25 2.25 0 0 1 3.75 3h4.5Zm-4.5 1.5a.75.75 0 0 0-.75.75v4.5c0 .414.336.75.75.75h4.5A.75.75 0 0 0 9 9.75v-4.5a.75.75 0 0 0-.75-.75h-1.5V6a.75.75 0 0 1-1.5 0V4.5h-1.5Z" clip-rule="evenodd"/>
</svg>
