<svg xmlns="http://www.w3.org/2000/svg" width="24" height="24" fill="currentColor" viewBox="0 0 24 24">
  <path d="M12.75 1.5a3.75 3.75 0 0 1 3.75 3.75V7.5a.75.75 0 0 1-1.5 0V5.25A2.25 2.25 0 0 0 12.75 3h-7.5A2.25 2.25 0 0 0 3 5.25v3h9a.75.75 0 0 1 0 1.5H3v4.5h9l.077.004a.75.75 0 0 1 0 1.492L12 15.75H3v3A2.25 2.25 0 0 0 5.25 21H12a.75.75 0 0 1 0 1.5H5.25a3.75 3.75 0 0 1-3.75-3.75V5.25A3.75 3.75 0 0 1 5.25 1.5h7.5Zm3 7.5a2.248 2.248 0 0 1 .75 4.368V15h1.63a2.248 2.248 0 0 1 4.37.75 2.25 2.25 0 0 1-4.37.75H16.5v1.63a2.248 2.248 0 0 1-.75 4.37 2.25 2.25 0 0 1-.75-4.37v-4.762A2.248 2.248 0 0 1 15.75 9Zm0 10.5a.75.75 0 1 0 0 1.5.75.75 0 0 0 0-1.5Zm-10.5-2.25a.75.75 0 1 1 0 1.5.75.75 0 0 1 0-1.5Zm15-2.25a.75.75 0 1 0 0 1.5.75.75 0 0 0 0-1.5Zm-15-3.75a.75.75 0 1 1 0 1.5.75.75 0 0 1 0-1.5Zm10.5-.75a.75.75 0 1 0 0 1.5.75.75 0 0 0 0-1.5ZM5.25 5.25a.75.75 0 1 1 0 1.5.75.75 0 0 1 0-1.5Z"/>
</svg>
