<svg xmlns="http://www.w3.org/2000/svg" width="24" height="24" fill="none" viewBox="0 0 24 24">
  <path fill="#3D3C3C" fill-rule="evenodd" d="M18.257 4.439c-2.443-2.109-6.169-1.87-8.305.523a5.675 5.675 0 0 0-1.033 5.956.75.75 0 0 1-.135.784L3 18.172V21h3.016l.139-1.861a.75.75 0 0 1 .68-.691l1.595-.146v-1.634a.75.75 0 0 1 .65-.744l1.447-.196a.75.75 0 1 1 .201 1.487l-.798.108v1.663a.75.75 0 0 1-.682.747l-1.644.15-.144 1.923a.75.75 0 0 1-.748.694H2.25a.75.75 0 0 1-.75-.75v-3.864a.75.75 0 0 1 .19-.5l5.675-6.347a7.174 7.174 0 0 1 1.467-7.076c2.686-3.008 7.347-3.3 10.405-.66 2.453 2.117 3.14 5.43 1.929 8.243a.75.75 0 1 1-1.378-.593c.956-2.22.42-4.83-1.53-6.514Zm-1.281.81a2.986 2.986 0 0 1 .276 4.228 2.984 2.984 0 0 1-4.115.367.749.749 0 0 1-.116-.084 3.002 3.002 0 0 1-.275-4.235 2.986 2.986 0 0 1 4.23-.276Zm-.992 1.125a1.486 1.486 0 0 0-2.108.137l-.004.005a1.502 1.502 0 0 0 .063 2.046c.03.02.058.042.086.066a1.484 1.484 0 0 0 2.1-.136l.005-.006a1.486 1.486 0 0 0-.134-2.105l-.008-.007Zm-7.177 8.378a.75.75 0 1 0-1.114-1.004l-3.375 3.75a.75.75 0 1 0 1.114 1.004l3.375-3.75ZM20.25 17.25a.75.75 0 0 1-.75.75H15a.75.75 0 0 1 0-1.5h4.5a.75.75 0 0 1 .75.75Zm-3-5.25A5.25 5.25 0 0 0 12 17.25a5.25 5.25 0 1 0 10.5 0A5.25 5.25 0 0 0 17.25 12Zm-3.75 5.25a3.75 3.75 0 1 1 7.499-.001 3.75 3.75 0 0 1-7.499.001Z" clip-rule="evenodd"/>
</svg>
