<svg xmlns="http://www.w3.org/2000/svg" width="24" height="24" fill="currentColor" viewBox="0 0 24 24">
  <path fill-rule="evenodd" d="M9.952 4.962c2.136-2.394 5.862-2.632 8.305-.523 1.951 1.683 2.487 4.294 1.531 6.514a.75.75 0 1 0 1.378.594c1.211-2.814.524-6.127-1.929-8.244-3.058-2.64-7.719-2.348-10.404.66a7.174 7.174 0 0 0-1.468 7.076l-5.674 6.347a.75.75 0 0 0-.191.5v3.864c0 .414.336.75.75.75h4.462a.75.75 0 0 0 .748-.694l.144-1.922 1.644-.151a.75.75 0 0 0 .682-.747v-1.663l.798-.108a.75.75 0 1 0-.201-1.487l-1.448.196a.75.75 0 0 0-.65.744v1.634l-1.595.146a.75.75 0 0 0-.679.691L6.015 21H3v-2.828l5.784-6.47a.75.75 0 0 0 .135-.784 5.675 5.675 0 0 1 1.032-5.955Zm7.3 4.515a2.986 2.986 0 0 0-.276-4.228 2.986 2.986 0 0 0-4.23.276 3.002 3.002 0 0 0 .275 4.235.67.67 0 0 0 .116.084c1.242 1 3.066.84 4.115-.367Zm-3.376-2.966a1.486 1.486 0 0 1 2.108-.137l.008.007c.618.534.683 1.483.134 2.105l-.005.006a1.484 1.484 0 0 1-2.1.136.752.752 0 0 0-.086-.066 1.502 1.502 0 0 1-.063-2.046l.004-.005Zm-5.069 8.24a.75.75 0 1 0-1.114-1.003l-3.375 3.75a.75.75 0 1 0 1.114 1.004l3.375-3.75Zm8.19-2.622a17.45 17.45 0 0 0 3.236 1.348l.009.003c.412.126.758.506.758 1.006v3.853c0 .647-.288 1.21-.637 1.658-.35.45-.806.842-1.251 1.165-.892.648-1.855 1.1-2.19 1.249l-.013.006a1.046 1.046 0 0 1-.818 0l-.013-.006a12.85 12.85 0 0 1-2.191-1.249c-.445-.323-.9-.715-1.251-1.166-.348-.447-.636-1.01-.636-1.657v-3.85c0-.486.332-.882.767-1.009.503-.15 1.814-.575 3.23-1.35a1.03 1.03 0 0 1 1-.001Zm-.498 1.434a19.243 19.243 0 0 0 3.001 1.258v3.518c0 .192-.087.436-.32.736-.232.298-.566.595-.95.873-.64.466-1.343.824-1.73 1.006-.388-.182-1.09-.54-1.732-1.006-.383-.278-.716-.575-.948-.872-.233-.3-.32-.545-.32-.737v-3.516c.64-.205 1.768-.61 3-1.26Z" clip-rule="evenodd"/>
</svg>
