<svg xmlns="http://www.w3.org/2000/svg" width="24" height="24" fill="currentColor" viewBox="0 0 24 24">
  <path fill-rule="evenodd" d="M16.976 5.249a2.986 2.986 0 0 1 .276 4.228 2.984 2.984 0 0 1-4.115.367.754.754 0 0 1-.116-.084 3.003 3.003 0 0 1-.275-4.235 2.986 2.986 0 0 1 4.23-.276Zm-.992 1.125a1.487 1.487 0 0 0-2.108.137l-.004.005a1.502 1.502 0 0 0 .063 2.046.76.76 0 0 1 .086.066 1.484 1.484 0 0 0 2.1-.136l.005-.006a1.486 1.486 0 0 0-.134-2.105l-.008-.007Z" clip-rule="evenodd"/>
  <path fill-rule="evenodd" d="M18.044 4.395c-2.413-2.115-6.09-1.878-8.204.526a5.789 5.789 0 0 0-1.023 6 .75.75 0 0 1-.132.777l-5.728 6.507v2.852h2.97l.138-1.874a.75.75 0 0 1 .678-.692l1.574-.146v-1.648a.75.75 0 0 1 .664-.745l2.01-.233.992-1.127a.75.75 0 0 1 .751-.231 5.83 5.83 0 0 0 5.836-1.779 5.793 5.793 0 0 0-.526-8.187Zm-9.33-.464c2.66-3.028 7.285-3.323 10.318-.664a7.293 7.293 0 0 1 .664 10.306v.002a7.325 7.325 0 0 1-6.88 2.341l-.89 1.01a.75.75 0 0 1-.477.25l-1.632.19v1.662a.75.75 0 0 1-.68.747l-1.623.15-.142 1.937a.75.75 0 0 1-.748.695H2.207a.75.75 0 0 1-.75-.75v-3.885a.75.75 0 0 1 .187-.495l5.62-6.386a7.285 7.285 0 0 1 1.45-7.11Z" clip-rule="evenodd"/>
  <path fill-rule="evenodd" d="M8.752 13.693a.75.75 0 0 1 .055 1.059l-3.375 3.75a.75.75 0 1 1-1.114-1.004l3.375-3.75a.75.75 0 0 1 1.059-.055Z" clip-rule="evenodd"/>
</svg>
