<svg xmlns="http://www.w3.org/2000/svg" width="24" height="24" fill="currentColor" viewBox="0 0 24 24">
  <path d="M17.116 11.38a1.062 1.062 0 0 1 1.012-.002l.513.263a19.77 19.77 0 0 0 2.82 1.132l.247.074.009.003c.42.127.783.512.783 1.03v4.175c0 .685-.31 1.283-.688 1.761-.38.482-.876.903-1.363 1.25a14.137 14.137 0 0 1-2.393 1.345l-.013.006a1.084 1.084 0 0 1-.835 0l-.012-.006a14.014 14.014 0 0 1-2.396-1.345c-.487-.347-.982-.768-1.363-1.25-.377-.478-.687-1.076-.687-1.761v-4.17c0-.508.353-.912.799-1.036a19.318 19.318 0 0 0 3.567-1.47Zm.508 1.427a20.919 20.919 0 0 1-3.374 1.392v3.856c0 .223.103.5.365.832.26.329.632.655 1.057.959.73.522 1.531.919 1.952 1.112.42-.194 1.223-.59 1.953-1.112.425-.304.799-.63 1.059-.96.262-.331.364-.608.364-.831V14.2c-.7-.218-1.978-.667-3.376-1.393ZM2.25 11.25A.75.75 0 0 1 3 12v6h6a.75.75 0 0 1 0 1.5H3A1.5 1.5 0 0 1 1.5 18v-6a.75.75 0 0 1 .75-.75Zm16.686 4.006a.75.75 0 0 1 1.129.987l-2.626 3a.753.753 0 0 1-1.13 0l-1.124-1.283a.75.75 0 0 1 1.13-.988l.559.64 2.062-2.356ZM11.25 11.25a.75.75 0 0 1 0 1.5H7.816c-.65 0-1.068.47-1.066.93L6.76 15h4.49a.75.75 0 0 1 0 1.5H6.018a.75.75 0 0 1-.75-.743l-.018-2.063v-.002c-.009-1.403 1.198-2.442 2.566-2.442h3.434ZM10.5 4.5a3 3 0 1 1 0 6 3 3 0 0 1 0-6ZM9 1.5A.75.75 0 0 1 9 3H3v6a.75.75 0 0 1-1.5 0V3A1.5 1.5 0 0 1 3 1.5h6Zm9 0A1.5 1.5 0 0 1 19.5 3v6A.75.75 0 0 1 18 9V3h-6a.75.75 0 0 1 0-1.5h6ZM10.5 6a1.5 1.5 0 1 0 0 3 1.5 1.5 0 0 0 0-3Z"/>
</svg>
