<svg xmlns="http://www.w3.org/2000/svg" width="24" height="24" fill="currentColor" viewBox="0 0 24 24">
  <path d="M7.338 2.272c1.065-.135 2.292.337 2.855 1.733 1.457 3.61 4.181 10.847 5.734 14.972.257.68.686 1.076 1.157 1.213.468.137 1.142.065 1.982-.53a.75.75 0 0 1 .867 1.225c-1.103.78-2.246 1.044-3.27.746-1.02-.298-1.756-1.107-2.14-2.126A1641.86 1641.86 0 0 0 10.59 9.142L5.185 21.305a.75.75 0 0 1-1.371-.61l6-13.5.03.014c-.388-.997-.741-1.898-1.042-2.643-.277-.686-.8-.865-1.273-.805a1.2 1.2 0 0 0-.614.254c-.14.118-.165.217-.165.27a.75.75 0 0 1-1.5 0c0-.597.306-1.084.69-1.412a2.694 2.694 0 0 1 1.398-.6Z"/>
</svg>
