<svg xmlns="http://www.w3.org/2000/svg" width="24" height="24" fill="currentColor" viewBox="0 0 24 24">
  <path d="M4.5 13.5h15V5.25h-15v8.25Zm16.5.75a.75.75 0 0 1-.75.75H3.75a.75.75 0 0 1-.75-.75V4.863c0-.586.465-1.113 1.099-1.113H19.9c.634 0 1.099.527 1.099 1.113v9.387Z"/>
  <path d="M12.75 6a.75.75 0 0 1 0 1.5h-1.5a.75.75 0 0 1 0-1.5h1.5Zm7.317 7.5a.75.75 0 0 1 .703.49l1.643 4.448c.335.901-.344 1.744-1.196 1.805l-.015.003-.077.004H2.883c-.897 0-1.642-.882-1.295-1.81l1.642-4.45.05-.106a.75.75 0 0 1 .654-.384h16.134ZM3.07 18.75h17.86L19.544 15H4.455L3.07 18.75Z"/>
</svg>
