<svg xmlns="http://www.w3.org/2000/svg" width="24" height="24" fill="currentColor" viewBox="0 0 24 24">
  <path fill-rule="evenodd" d="M13.5 1.5a.75.75 0 0 0 0 1.5h6.44l-9.22 9.22a.75.75 0 1 0 1.06 1.06L21 4.06v6.44a.75.75 0 0 0 1.5 0V3.75a2.25 2.25 0 0 0-2.25-2.25H13.5Zm-12 4.498A2.996 2.996 0 0 1 4.498 3h4.504a.75.75 0 0 1 0 1.5H4.498C3.668 4.5 3 5.169 3 5.998v13.504C3 20.332 3.669 21 4.498 21h13.504c.83 0 1.498-.669 1.498-1.498v-4.504a.75.75 0 0 1 1.5 0v4.504a2.996 2.996 0 0 1-2.998 2.998H4.498A2.996 2.996 0 0 1 1.5 19.502V5.998Z" clip-rule="evenodd"/>
</svg>
