<svg xmlns="http://www.w3.org/2000/svg" width="24" height="24" fill="currentColor" viewBox="0 0 24 24">
  <path d="M12.75 2.25a.75.75 0 0 0-1.5 0v1.5a.75.75 0 0 0 1.5 0v-1.5ZM1.5 12a.75.75 0 0 1 .75-.75h1.5a.75.75 0 0 1 0 1.5h-1.5A.75.75 0 0 1 1.5 12Zm18 0a.75.75 0 0 1 .75-.75h1.5a.75.75 0 0 1 0 1.5h-1.5a.75.75 0 0 1-.75-.75Zm.119-7.271a.75.75 0 0 1-.019 1.06l-1.079 1.042a.75.75 0 0 1-1.042-1.079l1.079-1.042a.75.75 0 0 1 1.06.019ZM19.6 17.753a.75.75 0 1 1-1.042 1.078l-1.079-1.041a.75.75 0 0 1 1.042-1.08l1.079 1.043ZM3.96 4.729a.75.75 0 0 0 .019 1.06l1.079 1.042A.75.75 0 1 0 6.1 5.752L5.021 4.71a.75.75 0 0 0-1.06.019Zm.019 13.024a.75.75 0 0 0 1.042 1.078L6.1 17.79a.75.75 0 1 0-1.042-1.08l-1.079 1.043Z"/>
  <path fill-rule="evenodd" d="M11.953 5.25C15.264 5.224 18 7.824 18 11.083c0 1.752-.8 3.314-2.04 4.377a2.51 2.51 0 0 0-.887 1.902c0 .174-.03.338-.088.489.01.048.015.098.015.149v2.374c0 1.197-.993 2.126-2.17 2.126h-1.66C9.993 22.5 9 21.57 9 20.374V18c0-.045.004-.09.012-.133a1.374 1.374 0 0 1-.095-.505 2.51 2.51 0 0 0-.887-1.902A5.75 5.75 0 0 1 6 11.104L7.968 9.17A4.165 4.165 0 0 0 7.5 11.1a4.25 4.25 0 0 0 1.506 3.222l.002.001a4.014 4.014 0 0 1 1.407 2.928h3.16a4.014 4.014 0 0 1 1.408-2.928c.933-.8 1.517-1.956 1.517-3.239 0-2.382-2.012-4.353-4.535-4.333a4.596 4.596 0 0 0-2.034.489l2.022-1.989Zm1.547 13.5h-3v1.624c0 .324.277.626.67.626h1.66c.393 0 .67-.302.67-.626V18.75Z" clip-rule="evenodd"/>
  <path fill-rule="evenodd" d="m9.93 7.239 2.023-1.989C8.685 5.277 5.99 7.88 6 11.104L7.968 9.17a4.471 4.471 0 0 1 1.963-1.93Z" clip-rule="evenodd"/>
</svg>
