<svg xmlns="http://www.w3.org/2000/svg" width="24" height="24" fill="currentColor" viewBox="0 0 24 24">
  <path fill-rule="evenodd" d="M19.5 12a.75.75 0 0 1 .75-.75h1.5a.75.75 0 0 1 0 1.5h-1.5a.75.75 0 0 1-.75-.75Zm-18 0a.75.75 0 0 1 .75-.75h1.5a.75.75 0 0 1 0 1.5h-1.5A.75.75 0 0 1 1.5 12ZM11.999 1.5a.75.75 0 0 1 .75.75v1.5a.75.75 0 0 1-1.5 0v-1.5a.75.75 0 0 1 .75-.75Zm7.62 3.229a.75.75 0 0 1-.019 1.06l-1.079 1.043a.75.75 0 0 1-1.042-1.08l1.079-1.041a.75.75 0 0 1 1.06.018Zm0 14.084a.75.75 0 0 0-.019-1.06l-1.079-1.043a.75.75 0 1 0-1.042 1.08l1.079 1.041a.75.75 0 0 0 1.06-.018ZM3.96 4.729a.75.75 0 0 0 .019 1.06l1.079 1.043A.75.75 0 0 0 6.1 5.752l-1.079-1.04a.75.75 0 0 0-1.06.018Zm0 14.084a.75.75 0 0 1 .019-1.06l1.079-1.043A.75.75 0 1 1 6.1 17.79l-1.079 1.04a.75.75 0 0 1-1.06-.018ZM11.953 5.25C15.264 5.224 18 7.824 18 11.083c0 1.752-.8 3.314-2.04 4.377a2.51 2.51 0 0 0-.887 1.902c0 .79-.651 1.388-1.408 1.388h-3.34c-.756 0-1.408-.597-1.408-1.388a2.51 2.51 0 0 0-.887-1.902A5.75 5.75 0 0 1 6 11.104m5.965-4.354C9.476 6.77 7.492 8.747 7.5 11.1a4.25 4.25 0 0 0 1.506 3.221l.002.001a4.014 4.014 0 0 1 1.407 2.928h3.16a4.014 4.014 0 0 1 1.408-2.928c.933-.8 1.517-1.956 1.517-3.239 0-2.382-2.012-4.353-4.535-4.333m-.012-1.5Zm0 0C8.685 5.277 5.99 7.88 6 11.104l5.953-5.854Z" clip-rule="evenodd"/>
  <path fill-rule="evenodd" d="M9.75 17.25a.75.75 0 0 1 .75.75v2.374c0 .324.277.626.67.626h1.66c.393 0 .67-.302.67-.626V18a.75.75 0 0 1 1.5 0v2.374c0 1.197-.993 2.126-2.17 2.126h-1.66C9.993 22.5 9 21.57 9 20.374V18a.75.75 0 0 1 .75-.75Z" clip-rule="evenodd"/>
</svg>
