<svg xmlns="http://www.w3.org/2000/svg" width="24" height="24" fill="currentColor" viewBox="0 0 24 24">
  <path d="M3 4.5a1.5 1.5 0 1 1 3 0 1.5 1.5 0 0 1-3 0ZM3 12a1.5 1.5 0 1 1 3 0 1.5 1.5 0 0 1-3 0Zm0 7.5a1.5 1.5 0 1 1 3 0 1.5 1.5 0 0 1-3 0Z"/>
  <path fill-rule="evenodd" d="M8.25 4.5A.75.75 0 0 1 9 3.75h11.25a.75.75 0 0 1 0 1.5H9a.75.75 0 0 1-.75-.75Zm0 7.5a.75.75 0 0 1 .75-.75h11.25a.75.75 0 0 1 0 1.5H9a.75.75 0 0 1-.75-.75Zm0 7.5a.75.75 0 0 1 .75-.75h11.25a.75.75 0 0 1 0 1.5H9a.75.75 0 0 1-.75-.75Z" clip-rule="evenodd"/>
</svg>
