<svg xmlns="http://www.w3.org/2000/svg" width="24" height="24" fill="currentColor" viewBox="0 0 24 24">
  <path fill-rule="evenodd" d="M12 2.95c-3.345 0-6.068 2.733-6.068 6.11 0 2.695 1.583 5.716 3.275 8.147A35.064 35.064 0 0 0 12 20.705a35.087 35.087 0 0 0 2.793-3.499c1.692-2.43 3.275-5.451 3.275-8.146 0-3.377-2.723-6.11-6.068-6.11Zm0 18.85-.532.528-.002-.001-.005-.005-.016-.017a13.714 13.714 0 0 1-.285-.299 36.55 36.55 0 0 1-3.184-3.943c-1.719-2.469-3.544-5.817-3.544-9.003 0-4.197 3.386-7.61 7.568-7.61 4.182 0 7.568 3.413 7.568 7.61 0 3.185-1.826 6.534-3.543 9.003a36.554 36.554 0 0 1-3.185 3.943 20.157 20.157 0 0 1-.285.3l-.016.016-.005.005-.001.001L12 21.8Zm0 0 .532.529a.75.75 0 0 1-1.064 0L12 21.8Z" clip-rule="evenodd"/>
  <path fill-rule="evenodd" d="M12 6a2.25 2.25 0 1 0 0 4.5A2.25 2.25 0 0 0 12 6ZM8.25 8.25a3.75 3.75 0 1 1 7.5 0 3.75 3.75 0 0 1-7.5 0Z" clip-rule="evenodd"/>
</svg>
