<svg xmlns="http://www.w3.org/2000/svg" width="24" height="24" fill="currentColor" viewBox="0 0 24 24">
  <path fill-rule="evenodd" d="M8.25 7.891c0-2.345 1.738-4.141 3.746-4.141 1.01 0 1.944.447 2.633 1.194.688.746 1.121 1.785 1.121 2.947V9c0 .036.002.07.007.105-2.414-.14-5.1-.14-7.514 0A.756.756 0 0 0 8.25 9V7.891Zm-1.47 1.32A.75.75 0 0 1 6.75 9V7.891c0-3.053 2.294-5.641 5.246-5.641 1.47 0 2.791.653 3.736 1.677a5.84 5.84 0 0 1 1.518 3.964V9a.75.75 0 0 1-.03.21c.347.03.685.064 1.012.101.735.08 1.268.7 1.268 1.422v9.284c0 .723-.54 1.328-1.254 1.42l-.012.002c-3.693.415-8.773.415-12.466 0A1.423 1.423 0 0 1 4.5 20.017v-9.284c0-.723.54-1.328 1.254-1.42l.012-.002c.328-.037.666-.07 1.014-.1ZM6 19.956v-9.162c3.555-.392 8.445-.392 12 0v9.162c-3.555.392-8.445.392-12 0Z" clip-rule="evenodd"/>
</svg>
