<svg xmlns="http://www.w3.org/2000/svg" width="24" height="24" fill="currentColor" viewBox="0 0 24 24">
  <path fill-rule="evenodd" d="M6.75 12.266v8.468c3.121.355 7.379.355 10.5 0v-8.468c-3.121-.355-7.379-.355-10.5 0Zm10.803-1.475c-3.292-.388-7.816-.388-11.108 0l-.013.002a1.378 1.378 0 0 0-1.182 1.375v8.665c0 .667.474 1.293 1.197 1.376 3.291.388 7.816.388 11.108 0l.012-.002a1.378 1.378 0 0 0 1.183-1.375v-8.665c0-.667-.474-1.293-1.197-1.376ZM11.997 3.75C10.329 3.75 9 5.073 9 6.668V7.5a.75.75 0 0 1-1.5 0v-.832c0-2.453 2.03-4.418 4.497-4.418 1.235 0 2.362.494 3.177 1.29A4.36 4.36 0 0 1 16.5 6.668V7.5a.75.75 0 0 1-1.5 0v-.832c0-.799-.33-1.524-.874-2.055a3.042 3.042 0 0 0-2.13-.863Z" clip-rule="evenodd"/>
</svg>
