<svg xmlns="http://www.w3.org/2000/svg" width="24" height="24" fill="currentColor" viewBox="0 0 24 24">
  <path d="M18.15 20.693c-3.637.41-8.662.41-12.3 0a.673.673 0 0 1-.6-.676v-9.284c0-.342.255-.632.6-.676 3.638-.41 8.662-.41 12.3 0 .345.037.6.327.6.676v9.284a.684.684 0 0 1-.6.676Z"/>
  <path d="M18 10.794c-3.555-.392-8.445-.392-12 0v9.16c3.555.394 8.445.394 12 0v-9.16Zm1.5 9.223a1.434 1.434 0 0 1-1.266 1.422c-3.694.415-8.775.415-12.468 0A1.423 1.423 0 0 1 4.5 20.017v-9.284c0-.723.54-1.328 1.254-1.42l.012-.002c3.693-.415 8.774-.415 12.468 0l-.001.001c.734.08 1.267.7 1.267 1.42v9.285Z"/>
  <path d="M15.75 9V7.891c0-1.162-.433-2.2-1.121-2.947-.688-.747-1.622-1.194-2.633-1.194-2.007 0-3.746 1.796-3.746 4.141V9a.75.75 0 0 1-1.5 0V7.891c0-3.053 2.294-5.641 5.246-5.641 1.47 0 2.792.653 3.736 1.677.944 1.024 1.518 2.427 1.518 3.964V9a.75.75 0 0 1-1.5 0Z"/>
</svg>
