<svg xmlns="http://www.w3.org/2000/svg" width="24" height="24" fill="currentColor" viewBox="0 0 24 24">
  <path fill-rule="evenodd" d="M4.5 5.25A3.75 3.75 0 0 1 8.25 1.5h7.5a3.75 3.75 0 0 1 3.75 3.75V6A.75.75 0 0 1 18 6v-.75A2.25 2.25 0 0 0 15.75 3h-7.5A2.25 2.25 0 0 0 6 5.25v13.5A2.25 2.25 0 0 0 8.25 21h7.5A2.25 2.25 0 0 0 18 18.75V18a.75.75 0 0 1 1.5 0v.75a3.75 3.75 0 0 1-3.75 3.75h-7.5a3.75 3.75 0 0 1-3.75-3.75V5.25Z" clip-rule="evenodd"/>
  <path fill-rule="evenodd" d="M12 12.034a.75.75 0 0 1 .75-.75h8.162a.75.75 0 0 1 0 1.5H12.75a.75.75 0 0 1-.75-.75Z" clip-rule="evenodd"/>
  <path fill-rule="evenodd" d="M17.496 7.695a.75.75 0 0 1 1.06.05l3.408 3.754a.75.75 0 0 1 0 1.009l-3.41 3.747a.75.75 0 0 1-1.109-1.01l2.95-3.242-2.95-3.249a.75.75 0 0 1 .05-1.06Z" clip-rule="evenodd"/>
</svg>
