<svg xmlns="http://www.w3.org/2000/svg" width="24" height="24" fill="currentColor" viewBox="0 0 24 24">
  <path d="M10.5 3a.75.75 0 0 1 0 1.5H4.176C3.513 4.5 3 5.024 3 5.64v8.61h18v-.75a.75.75 0 0 1 1.5 0v2.61c0 1.471-1.212 2.64-2.676 2.64H12.75V21h3.75a.75.75 0 0 1 0 1.5h-9a.75.75 0 0 1 0-1.5h3.75v-2.25H4.176c-1.464 0-2.676-1.169-2.676-2.64V5.64C1.5 4.169 2.712 3 4.176 3H10.5ZM3 15.75v.36c0 .616.513 1.14 1.176 1.14h15.648c.663 0 1.176-.524 1.176-1.14v-.36H3ZM18 7.5A.75.75 0 0 1 18 9h-4.5a.75.75 0 0 1 0-1.5H18Zm3.75-3a.75.75 0 0 1 0 1.5H13.5a.75.75 0 0 1 0-1.5h8.25Zm0-3a.75.75 0 0 1 0 1.5H13.5a.75.75 0 0 1 0-1.5h8.25Z"/>
</svg>
