<svg xmlns="http://www.w3.org/2000/svg" width="24" height="24" fill="currentColor" viewBox="0 0 24 24">
  <path d="M6 12.75A2.25 2.25 0 0 1 8.25 15v3.75a2.25 2.25 0 0 1-4.5 0V15A2.25 2.25 0 0 1 6 12.75Z"/>
  <path fill-rule="evenodd" d="M12 9.75A2.25 2.25 0 0 1 14.25 12v6.75a2.25 2.25 0 0 1-4.5 0V12A2.25 2.25 0 0 1 12 9.75Zm0 1.5a.75.75 0 0 0-.75.75v6.75a.75.75 0 0 0 1.5 0V12a.75.75 0 0 0-.75-.75Zm6-6.75a2.25 2.25 0 0 1 2.25 2.25v12a2.25 2.25 0 0 1-4.5 0v-12A2.25 2.25 0 0 1 18 4.5ZM18 6a.75.75 0 0 0-.75.75v12a.75.75 0 0 0 1.5 0v-12A.75.75 0 0 0 18 6Z" clip-rule="evenodd"/>
</svg>
