<svg xmlns="http://www.w3.org/2000/svg" width="24" height="24" fill="currentColor" viewBox="0 0 24 24">
  <path fill-rule="evenodd" d="M2.358 5.613a.75.75 0 0 1 1.03-.255l8.396 5.063.032.02a.445.445 0 0 0 .471-.019L20.61 5.36a.75.75 0 1 1 .78 1.282l-8.31 5.055a1.941 1.941 0 0 1-2.084.001L2.613 6.642a.75.75 0 0 1-.255-1.03Z" clip-rule="evenodd"/>
  <path fill-rule="evenodd" d="M3 6v12h18V6H3Zm-1.5-.042A1.46 1.46 0 0 1 2.962 4.5h18.076c.804 0 1.462.65 1.462 1.458v12.083a1.46 1.46 0 0 1-1.462 1.459H2.962A1.46 1.46 0 0 1 1.5 18.041V5.958Z" clip-rule="evenodd"/>
</svg>
