<svg xmlns="http://www.w3.org/2000/svg" width="24" height="24" fill="currentColor" viewBox="0 0 24 24">
  <path d="M9 3.75a.75.75 0 0 1 0 1.5H3.75A.75.75 0 0 0 3 6v14.25c0 .414.336.75.75.75h16.5a.75.75 0 0 0 .75-.75V15a.75.75 0 0 1 1.5 0v5.25a2.25 2.25 0 0 1-2.25 2.25H3.75a2.25 2.25 0 0 1-2.25-2.25V6a2.25 2.25 0 0 1 2.25-2.25H9Zm1.496 10.5c1.051 0 2.262.682 2.254 1.999v1.75a.75.75 0 0 1-.75.75H4.5a.75.75 0 0 1-.75-.75v-1.682c-.004-.673.37-1.205.812-1.54a2.672 2.672 0 0 1 1.587-.527h4.347Zm9.004 3a.75.75 0 0 1 0 1.5H15a.75.75 0 0 1 0-1.5h4.5Zm-13.35-1.5c-.25 0-.505.09-.683.225-.178.134-.218.258-.217.334v.94h6v-1.008c.001-.115-.045-.217-.161-.31a.964.964 0 0 0-.593-.181H6.15Zm13.35-1.5a.75.75 0 0 1 0 1.5h-3.75a.75.75 0 0 1 0-1.5h3.75ZM8.25 7.5a3 3 0 1 1 0 6 3 3 0 0 1 0-6Zm9.703-6.42a.75.75 0 0 1 .97-.244l2.295 1.203a.75.75 0 0 1 .317 1.01l-.39.75c.185.25.344.514.477.789l.914.044a.75.75 0 0 1 .714.749v2.515a.75.75 0 0 1-.726.75l-.794.026c-.055.13-.116.263-.186.395-.005.01-.012.017-.017.026a5.97 5.97 0 0 1-.217.362l.488.844a.75.75 0 0 1-.28 1.029l-2.352 1.325a.751.751 0 0 1-1.04-.32l-.355-.71c-.266.03-.537.04-.81.024l-.375.704a.75.75 0 0 1-1.008.309l-2.317-1.212a.75.75 0 0 1-.313-1.02l.4-.74a4.997 4.997 0 0 1-.452-.74l-.793.026a.75.75 0 0 1-.774-.727l-.079-2.625a.75.75 0 0 1 .725-.772l.794-.027a4.996 4.996 0 0 1 .413-.775l-.418-.68a.751.751 0 0 1 .242-1.03L15.223.956l.065-.037a.75.75 0 0 1 .97.28l.418.679a4.66 4.66 0 0 1 .861-.03l.376-.703.04-.065ZM8.25 9a1.5 1.5 0 1 0 0 3 1.5 1.5 0 0 0 0-3Zm10.37-5.995a.75.75 0 0 1-.796.384 3.213 3.213 0 0 0-1.339.046.75.75 0 0 1-.818-.335l-.291-.473-.944.589.293.477a.75.75 0 0 1-.07.88c-.136.16-.26.35-.379.567a3.642 3.642 0 0 0-.262.642.751.751 0 0 1-.69.524l-.553.018.035 1.125.55-.017.12.004c.274.035.51.22.609.485.16.434.399.833.712 1.172a.751.751 0 0 1 .11.866l-.278.513.985.514.266-.495.065-.101a.752.752 0 0 1 .73-.284c.445.08.902.061 1.34-.047a.75.75 0 0 1 .85.395l.252.505 1.002-.566-.353-.612a.75.75 0 0 1 .078-.862 3.3 3.3 0 0 0 .38-.568l.006-.011c.104-.197.186-.403.256-.626l.044-.11a.751.751 0 0 1 .647-.414l.573-.02V6.097l-.667-.032a.75.75 0 0 1-.668-.489 3.512 3.512 0 0 0-.712-1.173.75.75 0 0 1-.116-.854l.272-.528-.974-.51-.266.495ZM17.124 4.5a2.25 2.25 0 1 1 0 4.5 2.25 2.25 0 0 1 .001-4.501Zm0 1.5a.75.75 0 1 0 .002 1.501A.75.75 0 0 0 17.125 6Z"/>
</svg>
