<svg xmlns="http://www.w3.org/2000/svg" width="24" height="24" fill="currentColor" viewBox="0 0 24 24">
  <path fill-rule="evenodd" d="M12 6c-.829 0-1.5.67-1.5 1.5S11.171 9 12 9c.828 0 1.5-.674 1.5-1.5 0-.83-.671-1.5-1.5-1.5ZM9 7.5c0-1.66 1.344-3 3-3s3 1.34 3 3c0 1.654-1.343 3-3 3-1.656 0-3-1.34-3-3Zm-2.25 4.875a.75.75 0 0 1 .75.75v6.39l4.73 1.521a.75.75 0 0 1-.46 1.428l-5.25-1.689a.75.75 0 0 1-.52-.714v-6.936a.75.75 0 0 1 .75-.75Z" clip-rule="evenodd"/>
  <path fill-rule="evenodd" d="M6.797 12.04a.75.75 0 0 1 .415-.02l1.586.375a.75.75 0 0 1-.346 1.46l-1.375-.325L3 14.918v5.784l3.797-1.293a.75.75 0 1 1 .484 1.42L2.49 22.46a.75.75 0 0 1-.991-.71v-7.37a.75.75 0 0 1 .508-.71l4.79-1.63Zm9.997-.02a.75.75 0 0 1 .414.02l4.784 1.63a.75.75 0 0 1 .508.71v7.37a.75.75 0 0 1-.992.71l-4.784-1.63a.75.75 0 0 1 .484-1.42L21 20.702v-5.785l-4.071-1.387-1.382.325a.75.75 0 0 1-.344-1.46l1.591-.375Z" clip-rule="evenodd"/>
  <path fill-rule="evenodd" d="M17.25 12.375a.75.75 0 0 1 .75.75v6.936a.75.75 0 0 1-.52.714l-5.25 1.689a.75.75 0 0 1-.98-.714v-4.5a.75.75 0 0 1 1.5 0v3.47l3.75-1.205v-6.39a.75.75 0 0 1 .75-.75Z" clip-rule="evenodd"/>
  <path fill-rule="evenodd" d="M12 3a4.497 4.497 0 0 0-4.5 4.49v.001c-.001.862.281 1.866.753 2.925.467 1.05 1.098 2.104 1.74 3.05A32.542 32.542 0 0 0 12 16.107l.241-.29a32.533 32.533 0 0 0 1.764-2.35c.64-.945 1.271-1.998 1.74-3.05.472-1.059.755-2.064.755-2.928A4.497 4.497 0 0 0 12 3Zm0 14.25.552.508a.75.75 0 0 1-1.104 0L12 17.25ZM6 7.49C6 4.18 8.691 1.5 12 1.5s6 2.68 6 5.99c0 1.162-.373 2.389-.885 3.54-.516 1.158-1.198 2.292-1.87 3.28a34.052 34.052 0 0 1-2.675 3.428l-.013.014-.003.004-.001.001L12 17.25l-.552.508v-.001l-.005-.005-.013-.014a11.402 11.402 0 0 1-.22-.247 34.043 34.043 0 0 1-2.458-3.183c-.671-.99-1.354-2.123-1.87-3.282C6.37 9.876 5.998 8.65 6 7.49Z" clip-rule="evenodd"/>
</svg>
