<svg xmlns="http://www.w3.org/2000/svg" width="24" height="24" fill="currentColor" viewBox="0 0 24 24">
  <path fill-rule="evenodd" d="M7.5 7.49A4.497 4.497 0 0 1 12 3c2.484 0 4.5 2.012 4.5 4.49 0 .864-.284 1.87-.755 2.929-.468 1.05-1.1 2.104-1.74 3.049A32.533 32.533 0 0 1 12 16.108a32.542 32.542 0 0 1-2.007-2.643c-.642-.945-1.273-1.999-1.74-3.049-.472-1.059-.754-2.063-.753-2.925Zm3.75 10.046-.04-.046a34.043 34.043 0 0 1-2.76-3.636l-.95-.224v5.885l3.75 1.206v-3.185Zm-3.862-5.474c-.18-.34-.35-.687-.506-1.036C6.37 9.876 5.998 8.65 6 7.49 6 4.18 8.691 1.5 12 1.5s6 2.68 6 5.99c0 1.162-.373 2.389-.885 3.54a17 17 0 0 1-.506 1.034l.185-.044a.75.75 0 0 1 .414.02l4.784 1.63a.75.75 0 0 1 .508.71v7.37a.75.75 0 0 1-.992.71l-4.499-1.534-4.771 1.535a.746.746 0 0 1-.451.008l-.02-.006-4.774-1.536-4.501 1.533a.75.75 0 0 1-.992-.71v-7.37a.75.75 0 0 1 .508-.71l4.79-1.63a.75.75 0 0 1 .414-.02l.176.042Zm8.16 1.793a34.052 34.052 0 0 1-2.759 3.636l-.039.045v3.185l3.75-1.206V13.63l-.951.225ZM10.5 7.5c0-.83.671-1.5 1.5-1.5s1.5.67 1.5 1.5c0 .826-.672 1.5-1.5 1.5-.829 0-1.5-.67-1.5-1.5Zm1.5-3c-1.656 0-3 1.34-3 3s1.344 3 3 3c1.657 0 3-1.346 3-3 0-1.66-1.344-3-3-3Zm6 15.18v-5.785l3 1.022v5.785l-3-1.023ZM3 14.917l3-1.022v5.785l-3 1.021v-5.784Z" clip-rule="evenodd"/>
</svg>
