<svg xmlns="http://www.w3.org/2000/svg" width="24" height="24" fill="currentColor" viewBox="0 0 24 24">
  <path fill-rule="evenodd" d="m3.005 7.392.65-3.39A1.243 1.243 0 0 1 4.875 3h14.256c.597 0 1.109.423 1.221 1.002l.645 3.366c-.037.41-.462.882-1.197.882a1.4 1.4 0 0 1-.76-.216 2.17 2.17 0 0 0-2.38 0 1.4 1.4 0 0 1-.76.216 1.4 1.4 0 0 1-.76-.216 2.17 2.17 0 0 0-2.38 0 1.4 1.4 0 0 1-.76.216 1.4 1.4 0 0 1-.76-.216 2.17 2.17 0 0 0-2.38 0 1.4 1.4 0 0 1-.76.216 1.4 1.4 0 0 1-.76-.216 2.17 2.17 0 0 0-2.38 0 1.4 1.4 0 0 1-.76.216c-.721 0-1.144-.453-1.195-.858Zm-.823-3.675L1.54 7.07a.75.75 0 0 0-.039.24c0 .685.294 1.268.75 1.692v10.609c0 1.55 1.195 2.889 2.764 2.889h13.971c1.57 0 2.764-1.338 2.764-2.89V9.003a2.28 2.28 0 0 0 .75-1.691.752.752 0 0 0-.013-.141l-.662-3.452v-.001A2.743 2.743 0 0 0 19.13 1.5H4.876a2.743 2.743 0 0 0-2.694 2.217ZM20.25 9.715a2.941 2.941 0 0 1-2.028-.423l-.004-.003a.67.67 0 0 0-.736 0l-.004.003a2.9 2.9 0 0 1-1.578.458 2.9 2.9 0 0 1-1.578-.458l-.004-.003a.67.67 0 0 0-.736 0l-.004.003A2.9 2.9 0 0 1 12 9.75a2.9 2.9 0 0 1-1.578-.458l-.004-.003a.67.67 0 0 0-.736 0l-.004.003A2.9 2.9 0 0 1 8.1 9.75a2.9 2.9 0 0 1-1.578-.458l-.004-.003a.67.67 0 0 0-.736 0l-.004.003a2.9 2.9 0 0 1-2.028.423v9.896c0 .81.608 1.389 1.264 1.389H7.5v-6.836C7.5 12.995 8.429 12 9.619 12h4.762c1.19 0 2.119.995 2.119 2.164V21h2.486c.656 0 1.264-.58 1.264-1.39V9.716ZM15 14.164V21H9v-6.836c0-.387.303-.664.619-.664h4.762c.316 0 .619.277.619.664Z" clip-rule="evenodd"/>
</svg>
