<svg xmlns="http://www.w3.org/2000/svg" width="24" height="24" fill="currentColor" viewBox="0 0 24 24">
  <path fill-rule="evenodd" d="M17.487 2.289a.75.75 0 0 1 .475.948l-.75 2.25a.75.75 0 1 1-1.423-.474l.75-2.25a.75.75 0 0 1 .948-.474ZM12.721 3a.75.75 0 0 1 .712.439l2.526 5.558a.748.748 0 0 1 .064.11l2.654 5.57a.75.75 0 0 1-.932 1.028c-.836-.303-2.015-.463-3.302-.441-1.281.022-2.615.223-3.751.606h-.002l1.846 3.148c.427.687.197 1.632-.541 2.009l-.004.002-1.153.58-.003.001a1.307 1.307 0 0 1-1.54-.275L6.57 18.513l-.164-.167-.012-.012-.007-.008-.507-.509a2.468 2.468 0 0 1-3.162-1.236l-.001-.002-.988-2.103a2.46 2.46 0 0 1 1.147-3.247h.001c1.258-.617 3.266-1.624 4.523-2.39 1.017-.618 2.026-1.52 2.865-2.502.842-.986 1.475-2.007 1.78-2.843A.75.75 0 0 1 12.72 3Zm-5.36 14.176c.613-.26 1.272-.532 1.9-.778l1.958 3.34-.93.468-2.641-2.737-.164-.167-.009-.01a.668.668 0 0 0-.016-.017l-.098-.099Zm2.938-2.756c1.286-.42 2.742-.633 4.118-.656.767-.013 1.526.032 2.23.138l-1.92-4.03a.746.746 0 0 1-.078-.133l-1.926-4.238c-.368.61-.818 1.225-1.317 1.81-.92 1.076-2.046 2.092-3.226 2.809a8.93 8.93 0 0 1-.024.015l.015.029 2.128 4.256ZM6.85 10.879a92.042 92.042 0 0 1-3.312 1.696h-.001l-.33-.673.331.673a.96.96 0 0 0-.449 1.268v-.002l-.68.319.68-.316.985 2.096-.678.32.679-.319h-.001a.967.967 0 0 0 1.266.476 88.622 88.622 0 0 1 3.54-1.48l.012.023.208.415M6.85 10.88l2.03 4.059-2.03-4.059Zm14.773-4.545a.75.75 0 0 1-.208 1.04l-2.25 1.5a.75.75 0 1 1-.832-1.248l2.25-1.5a.75.75 0 0 1 1.04.208Zm-2.835 4.679a.75.75 0 0 1 .948-.474l2.25.75a.75.75 0 1 1-.474 1.423l-2.25-.75a.75.75 0 0 1-.474-.949Z" clip-rule="evenodd"/>
</svg>
