<svg xmlns="http://www.w3.org/2000/svg" width="24" height="24" fill="currentColor" viewBox="0 0 24 24">
  <path d="M20.25 14.25A.75.75 0 0 1 21 15v3.75A2.25 2.25 0 0 1 18.75 21H5.25A2.25 2.25 0 0 1 3 18.75V15a.75.75 0 0 1 1.5 0v3.75c0 .414.336.75.75.75h13.5a.75.75 0 0 0 .75-.75V15a.75.75 0 0 1 .75-.75Zm-3 0a.75.75 0 0 1 0 1.5H6.75a.75.75 0 0 1 0-1.5h10.5Zm0-3.75a.75.75 0 0 1 0 1.5H6.75a.75.75 0 0 1 0-1.5h10.5Zm0-3.75a.75.75 0 0 1 0 1.5H6.75a.75.75 0 0 1 0-1.5h10.5Zm0-3.75a.75.75 0 0 1 0 1.5H6.75a.75.75 0 0 1 0-1.5h10.5Z"/>
</svg>
