<svg xmlns="http://www.w3.org/2000/svg" width="24" height="24" fill="currentColor" viewBox="0 0 24 24">
  <path d="M17.347 1.5a2.912 2.912 0 0 1 2.903 2.92v9.16a2.912 2.912 0 0 1-2.903 2.92H12.75v.88a2.257 2.257 0 0 1 1.37 1.37h4.63a.75.75 0 0 1 0 1.5h-4.63a2.248 2.248 0 0 1-4.24 0H5.25a.75.75 0 0 1 0-1.5h4.63a2.251 2.251 0 0 1 1.37-1.37v-.88H6.653a2.912 2.912 0 0 1-2.903-2.92V4.42A2.912 2.912 0 0 1 6.653 1.5h10.694ZM12 18.75a.75.75 0 1 0 0 1.5.75.75 0 0 0 0-1.5Zm-6.75-5.17c0 .79.634 1.42 1.403 1.42h10.694c.77 0 1.403-.63 1.403-1.42V9.75H5.25v3.83ZM6.75 12a.75.75 0 1 1 0 1.5.75.75 0 0 1 0-1.5Zm-.097-9c-.77 0-1.403.63-1.403 1.42v3.83h13.5V4.42c0-.79-.634-1.42-1.403-1.42H6.653Zm.097 2.25a.75.75 0 1 1 0 1.5.75.75 0 0 1 0-1.5Z"/>
</svg>
