<svg xmlns="http://www.w3.org/2000/svg" width="24" height="24" fill="none" viewBox="0 0 24 24">
  <path fill="#3D3C3C" fill-rule="evenodd" d="M5.25 3a.75.75 0 0 0 0 1.5h13.5a.75.75 0 0 0 0-1.5H5.25ZM3 6a.75.75 0 0 1 .75-.75h16.5a.75.75 0 0 1 0 1.5H3.75A.75.75 0 0 1 3 6ZM1.5 8.25a.75.75 0 0 1 .75-.75h19.5a.75.75 0 0 1 .75.75v12a.75.75 0 0 1-.75.75H2.25a.75.75 0 0 1-.75-.75v-12ZM3 9v10.5h18V9H3Zm4.5 4.5a.75.75 0 0 0 0 1.5h.75a.75.75 0 0 0 0-1.5H7.5Zm7.5.75a.75.75 0 0 1 .75-.75h.75a.75.75 0 0 1 0 1.5h-.75a.75.75 0 0 1-.75-.75Zm-8.623-4.5a.75.75 0 0 0-.75.75c0 .343-.09.503-.146.567-.048.056-.116.093-.231.093a.75.75 0 0 0-.75.75v4.688c0 .414.336.75.75.75.046 0 .125.02.213.129.089.11.164.291.164.523 0 .414.336.75.75.75h11.246a.75.75 0 0 0 .75-.75.84.84 0 0 1 .165-.521c.09-.112.17-.131.212-.131a.75.75 0 0 0 .75-.75V11.91a.75.75 0 0 0-.75-.75c-.112 0-.18-.037-.23-.095-.057-.065-.147-.227-.147-.565a.75.75 0 0 0-.75-.75H6.377Zm.236 2.302c.198-.228.336-.5.419-.802h9.937c.083.3.22.57.418.798.176.203.385.354.613.456v3.514c-.49.241-.836.71-1.006 1.232H7.007c-.17-.525-.516-.992-1.007-1.232v-3.513c.227-.1.436-.25.612-.453ZM12 13.5a.75.75 0 1 0 0 1.5.75.75 0 0 0 0-1.5Zm-2.25.75a2.25 2.25 0 1 1 4.5 0 2.25 2.25 0 0 1-4.5 0Z" clip-rule="evenodd"/>
</svg>
