<svg xmlns="http://www.w3.org/2000/svg" width="24" height="24" fill="currentColor" viewBox="0 0 24 24">
  <path fill-rule="evenodd" d="M4.176 4.5C3.513 4.5 3 5.024 3 5.64v8.61h18V5.64c0-.616-.513-1.14-1.176-1.14H4.176ZM1.5 5.64v10.47c0 1.472 1.211 2.64 2.676 2.64h7.074V21H7.5a.75.75 0 0 0 0 1.5h9a.75.75 0 0 0 0-1.5h-3.75v-2.25h7.074c1.465 0 2.676-1.168 2.676-2.64V5.64C22.5 4.167 21.289 3 19.824 3H4.176C2.71 3 1.5 4.168 1.5 5.64ZM21 15.75H3v.36c0 .617.513 1.14 1.176 1.14h15.648c.663 0 1.176-.523 1.176-1.14v-.36Zm-8.3-9.267a.75.75 0 0 0-1.382-.045l-2.2 4.812H6a.75.75 0 0 0 0 1.5h3.6a.75.75 0 0 0 .682-.438l1.655-3.62 1.362 3.575c.11.29.39.483.701.483h4a.75.75 0 0 0 0-1.5h-3.483L12.7 6.483Z" clip-rule="evenodd"/>
</svg>
