<svg xmlns="http://www.w3.org/2000/svg" width="24" height="24" fill="currentColor" viewBox="0 0 24 24">
  <path d="M18.951 2.25c1.953 0 3.549 1.571 3.549 3.523v11.704c0 1.952-1.596 3.523-3.549 3.523H5.05c-1.954 0-3.55-1.571-3.55-3.523V5.773c0-1.952 1.596-3.523 3.55-3.523h13.9ZM5.05 3.75C3.912 3.75 3 4.663 3 5.773v11.704c0 1.11.912 2.023 2.05 2.023h13.9A2.037 2.037 0 0 0 21 17.477V5.773c0-1.11-.91-2.023-2.049-2.023H5.05Zm4.7 3a.75.75 0 0 1 0 1.5c-.353 0-.505.245-.505.382v1.351a2.36 2.36 0 0 1-.683 1.642c.432.445.683 1.025.683 1.642v1.351c0 .141.149.382.505.382a.75.75 0 0 1 0 1.5c-1.032 0-2.005-.768-2.005-1.882v-1.351a.86.86 0 0 0-.272-.612l-.501-.498a.75.75 0 0 1 0-1.064l.5-.497h.002c.182-.18.271-.4.271-.613V8.632c0-1.105.97-1.882 2.005-1.882Zm4.5 0c1.033 0 2.006.768 2.006 1.882v1.351c0 .183.065.373.206.541l.065.072.501.497a.75.75 0 0 1 0 1.064l-.5.497-.002.001c-.182.18-.27.4-.27.612v1.351c0 1.105-.97 1.882-2.006 1.882a.75.75 0 0 1 0-1.5c.353 0 .506-.245.506-.382v-1.351c0-.627.258-1.207.682-1.643a2.351 2.351 0 0 1-.682-1.64V8.631c0-.141-.15-.382-.506-.382a.75.75 0 0 1 0-1.5Z"/>
</svg>
