<svg xmlns="http://www.w3.org/2000/svg" width="24" height="24" fill="currentColor" viewBox="0 0 24 24">
  <path fill-rule="evenodd" d="M12 1.5a1.5 1.5 0 1 0 0 3 1.5 1.5 0 0 0 0-3ZM16.5 12a4.5 4.5 0 1 1-9 0 4.5 4.5 0 0 1 9 0Zm1.5 0a6 6 0 1 1-12 0 6 6 0 0 1 12 0ZM4.5 5.25a1.5 1.5 0 1 1 3 0 1.5 1.5 0 0 1-3 0ZM18 3.75a1.5 1.5 0 1 0 0 3 1.5 1.5 0 0 0 0-3Zm-1.5 15a1.5 1.5 0 1 1 3 0 1.5 1.5 0 0 1-3 0ZM6 17.25a1.5 1.5 0 1 0 0 3 1.5 1.5 0 0 0 0-3ZM10.5 21a1.5 1.5 0 1 1 3 0 1.5 1.5 0 0 1-3 0ZM12 10.5a1.5 1.5 0 1 0 0 3 1.5 1.5 0 0 0 0-3ZM1.5 12a1.5 1.5 0 1 1 3 0 1.5 1.5 0 0 1-3 0ZM21 10.5a1.5 1.5 0 1 0 0 3 1.5 1.5 0 0 0 0-3Z" clip-rule="evenodd"/>
</svg>
