<svg xmlns="http://www.w3.org/2000/svg" width="24" height="24" fill="currentColor" viewBox="0 0 24 24">
  <path fill-rule="evenodd" d="M12 1.5a1.5 1.5 0 0 0-1.495 1.624 9.008 9.008 0 0 0-7.381 7.381 1.5 1.5 0 1 0 0 2.99 9.008 9.008 0 0 0 7.381 7.381 1.5 1.5 0 1 0 2.99 0 9.008 9.008 0 0 0 7.381-7.381 1.5 1.5 0 1 0 0-2.99 9.008 9.008 0 0 0-7.381-7.381A1.5 1.5 0 0 0 12 1.5ZM19.5 12a7.5 7.5 0 1 0-15 0 7.5 7.5 0 0 0 15 0Zm-3 0a4.5 4.5 0 1 1-9 0 4.5 4.5 0 0 1 9 0Zm1.5 0a6 6 0 1 1-12 0 6 6 0 0 1 12 0Z" clip-rule="evenodd"/>
</svg>
