<svg xmlns="http://www.w3.org/2000/svg" width="24" height="24" fill="currentColor" viewBox="0 0 24 24">
  <path d="M10.5 3a1.5 1.5 0 1 1 3 0 1.5 1.5 0 0 1-3 0Z"/>
  <path fill-rule="evenodd" d="M12 16.5a4.5 4.5 0 1 0 0-9 4.5 4.5 0 0 0 0 9Zm0 1.5a6 6 0 1 0 0-12 6 6 0 0 0 0 12Z" clip-rule="evenodd"/>
  <path d="M4.5 5.25a1.5 1.5 0 1 1 3 0 1.5 1.5 0 0 1-3 0Zm12 0a1.5 1.5 0 1 1 3 0 1.5 1.5 0 0 1-3 0Zm0 13.5a1.5 1.5 0 1 1 3 0 1.5 1.5 0 0 1-3 0Zm-12 0a1.5 1.5 0 1 1 3 0 1.5 1.5 0 0 1-3 0Zm6 2.25a1.5 1.5 0 1 1 3 0 1.5 1.5 0 0 1-3 0Zm0-9a1.5 1.5 0 1 1 3 0 1.5 1.5 0 0 1-3 0Zm-9 0a1.5 1.5 0 1 1 3 0 1.5 1.5 0 0 1-3 0Zm18 0a1.5 1.5 0 1 1 3 0 1.5 1.5 0 0 1-3 0Z"/>
</svg>
