<svg xmlns="http://www.w3.org/2000/svg" width="24" height="24" fill="currentColor" viewBox="0 0 24 24">
  <path fill-rule="evenodd" d="M2.76 8.05C5.122 5.861 8.387 4.5 12 4.5c3.613 0 6.878 1.361 9.24 3.55a.75.75 0 0 0 1.02-1.1C19.62 4.505 15.992 3 12 3S4.379 4.505 1.74 6.95a.75.75 0 0 0 1.02 1.1Zm3.039 3.711C7.396 10.047 9.589 9 12 9c2.41 0 4.604 1.047 6.201 2.761A.75.75 0 0 0 19.3 10.74C17.44 8.746 14.86 7.5 12 7.5c-2.86 0-5.44 1.246-7.299 3.239A.75.75 0 1 0 5.8 11.76ZM12 13.5a4.631 4.631 0 0 0-3.229 1.29.75.75 0 1 1-1.042-1.08A6.131 6.131 0 0 1 12 12a6.13 6.13 0 0 1 4.271 1.71.75.75 0 1 1-1.042 1.08A4.631 4.631 0 0 0 12 13.5Zm-.528 3.222a.742.742 0 0 1 1.05-.006l.006.006a.742.742 0 0 1 .222.528.75.75 0 0 1-1.5 0 .72.72 0 0 1 .216-.522l.006-.006ZM12 15a2.24 2.24 0 0 0-1.585.659 2.22 2.22 0 0 0-.665 1.591 2.25 2.25 0 0 0 4.5 0 2.24 2.24 0 0 0-.659-1.585A2.231 2.231 0 0 0 12 15Z" clip-rule="evenodd"/>
</svg>
