<svg xmlns="http://www.w3.org/2000/svg" width="24" height="24" fill="currentColor" viewBox="0 0 24 24">
  <path fill-rule="evenodd" d="M12 4.5c-3.613 0-6.878 1.361-9.24 3.55a.75.75 0 0 1-1.02-1.1C4.38 4.505 8.008 3 12 3s7.621 1.505 10.26 3.95a.75.75 0 0 1-1.02 1.1C18.878 5.861 15.613 4.5 12 4.5Z" clip-rule="evenodd"/>
  <path fill-rule="evenodd" d="M12 9c-2.41 0-4.604 1.047-6.201 2.761A.75.75 0 0 1 4.7 10.74C6.56 8.746 9.14 7.5 12 7.5c2.86 0 5.44 1.246 7.299 3.239A.75.75 0 0 1 18.2 11.76C16.603 10.047 14.411 9 12 9Z" clip-rule="evenodd"/>
  <path fill-rule="evenodd" d="M12 13.5a4.631 4.631 0 0 0-3.229 1.29.75.75 0 1 1-1.042-1.08A6.131 6.131 0 0 1 12 12a6.13 6.13 0 0 1 4.271 1.71.75.75 0 1 1-1.042 1.08A4.631 4.631 0 0 0 12 13.5Z" clip-rule="evenodd"/>
  <path fill-rule="evenodd" d="M12 16.5a.742.742 0 0 0-.528.222l-.006.006a.72.72 0 0 0-.216.522.75.75 0 0 0 1.5 0 .742.742 0 0 0-.222-.528l-.006-.006A.731.731 0 0 0 12 16.5Zm-1.585-.841a2.242 2.242 0 0 1 3.177.006c.404.406.658.966.658 1.585a2.25 2.25 0 0 1-4.5 0c0-.622.252-1.186.665-1.591Z" clip-rule="evenodd"/>
</svg>
