<svg xmlns="http://www.w3.org/2000/svg" width="24" height="24" fill="currentColor" viewBox="0 0 24 24">
  <path fill-rule="evenodd" d="M1.61 18.359a.75.75 0 0 1 1.031-.249 5.189 5.189 0 0 1 1.752 1.754.75.75 0 1 1-1.286.772A3.69 3.69 0 0 0 1.86 19.39a.75.75 0 0 1-.249-1.031Zm-.1-4.233a.75.75 0 0 1 .864-.616 8.08 8.08 0 0 1 6.616 6.615.75.75 0 1 1-1.48.25 6.58 6.58 0 0 0-5.384-5.385.75.75 0 0 1-.616-.864Z" clip-rule="evenodd"/>
  <path fill-rule="evenodd" d="M1.504 9.675a.75.75 0 0 1 .82-.671c5.892.588 10.586 5.282 11.172 11.172a.75.75 0 0 1-1.492.148c-.516-5.178-4.647-9.31-9.829-9.828a.75.75 0 0 1-.671-.82Z" clip-rule="evenodd"/>
  <path fill-rule="evenodd" d="M4.416 5.25C3.67 5.25 3 5.937 3 6.75a.75.75 0 0 1-1.5 0c0-1.561 1.265-3 2.916-3h15.168c1.605 0 2.916 1.29 2.916 2.892v10.716c0 1.61-1.312 2.892-2.916 2.892H15.75a.75.75 0 0 1 0-1.5h3.834A1.4 1.4 0 0 0 21 17.358V6.642c0-.76-.625-1.392-1.416-1.392H4.416Z" clip-rule="evenodd"/>
</svg>
