<svg xmlns="http://www.w3.org/2000/svg" width="24" height="24" fill="currentColor" viewBox="0 0 24 24">
  <path fill-rule="evenodd" d="M4.125 1.5a2.625 2.625 0 0 1 2.068 4.24L7.87 8.534a4.113 4.113 0 0 1 1.505-.284 4.11 4.11 0 0 1 2.83 1.125l2.967-2.374a3 3 0 1 1 .843 1.247l-2.922 2.338a4.11 4.11 0 0 1 .185 3.121l3.78 2.75a3.375 3.375 0 1 1-.954 1.16l-3.567-2.594a4.115 4.115 0 0 1-4.885 1.1l-1.44 2.16a2.625 2.625 0 1 1-1.213-.885l1.427-2.14a4.11 4.11 0 0 1-1.176-2.883c0-1.207.519-2.294 1.345-3.048L4.967 6.61a2.625 2.625 0 1 1-.842-5.11Zm0 17.25a1.125 1.125 0 1 0 0 2.25 1.125 1.125 0 0 0 0-2.25Zm15-1.5a1.875 1.875 0 1 0 0 3.75 1.875 1.875 0 0 0 0-3.75Zm-9.75-7.5a2.625 2.625 0 1 0 0 5.25 2.625 2.625 0 0 0 0-5.25ZM18 4.5a1.5 1.5 0 1 0 0 3 1.5 1.5 0 0 0 0-3ZM4.125 3a1.125 1.125 0 1 0 0 2.25 1.125 1.125 0 0 0 0-2.25Z" clip-rule="evenodd"/>
</svg>
