<svg xmlns="http://www.w3.org/2000/svg" width="24" height="24" fill="currentColor" viewBox="0 0 24 24">
  <path fill-rule="evenodd" d="M3 6.75c0-.813.671-1.5 1.416-1.5h15.168c.79 0 1.416.633 1.416 1.392v10.716a1.4 1.4 0 0 1-1.416 1.392H15.75a.75.75 0 0 0 0 1.5h3.834c1.604 0 2.916-1.282 2.916-2.892V6.642c0-1.601-1.31-2.892-2.916-2.892H4.416c-1.651 0-2.916 1.439-2.916 3a.75.75 0 0 0 1.5 0ZM1.504 9.676a.75.75 0 0 1 .82-.672c5.892.588 10.586 5.282 11.172 11.172a.75.75 0 1 1-1.492.148c-.516-5.178-4.647-9.31-9.829-9.828a.75.75 0 0 1-.671-.82Zm.87 3.834a.75.75 0 0 0-.248 1.48 6.58 6.58 0 0 1 5.384 5.385.75.75 0 1 0 1.48-.25 8.08 8.08 0 0 0-6.616-6.615Zm.267 4.6a.75.75 0 0 0-.782 1.28c.52.318.945.741 1.248 1.246a.75.75 0 1 0 1.286-.772A5.19 5.19 0 0 0 2.64 18.11Z" clip-rule="evenodd"/>
</svg>
