<svg xmlns="http://www.w3.org/2000/svg" width="24" height="24" fill="currentColor" viewBox="0 0 24 24">
  <path fill-rule="evenodd" d="M7.753 3.25c-.177.169-.253.357-.253.5v15.505c0 .629-.17 1.232-.472 1.745h13.319c.35 0 .653-.292.653-.677V3.677A.665.665 0 0 0 20.347 3H8.309c-.166 0-.378.082-.556.25ZM6 3.75v6.75H2.25a.75.75 0 0 0-.75.75v8.006c0 1.723 1.277 3.244 3 3.244h15.847c1.207 0 2.153-.992 2.153-2.177V3.677c0-1.196-.958-2.176-2.153-2.176H8.309c-.613 0-1.18.276-1.587.661C6.315 2.547 6 3.108 6 3.75Zm0 15.506C6 20.292 5.26 21 4.5 21c-.756 0-1.5-.704-1.5-1.744V12h3v7.256Zm3-5.006a.75.75 0 0 1 .75-.75h9a.75.75 0 0 1 0 1.5h-9a.75.75 0 0 1-.75-.75Zm.75 3a.75.75 0 0 0 0 1.5h9a.75.75 0 0 0 0-1.5h-9ZM10.5 4.5A1.5 1.5 0 0 0 9 6v3.75a1.5 1.5 0 0 0 1.5 1.5H18a1.5 1.5 0 0 0 1.5-1.5V6A1.5 1.5 0 0 0 18 4.5h-7.5Zm0 1.5H18v3.75h-7.5V6Z" clip-rule="evenodd"/>
</svg>
