<svg xmlns="http://www.w3.org/2000/svg" width="24" height="24" fill="currentColor" viewBox="0 0 24 24">
  <path d="M19.72 3.22a.75.75 0 1 1 1.06 1.06l-16.5 16.5a.75.75 0 0 1-1.06-1.06l.739-.74A4.628 4.628 0 0 1 1.5 14.874a4.48 4.48 0 0 1 2.803-4.125c.398-.16.805-.238 1.242-.238.26-3.36 3.043-6.01 6.455-6.01 1.79 0 3.376.732 4.535 1.903L19.72 3.22ZM18 9c2.462 0 4.5 2.373 4.5 4.905 0 3.015-1.938 5.576-4.99 5.576H9a.75.75 0 0 1 0-1.5h8.51c2.015 0 3.49-1.664 3.49-4.076 0-1.851-1.507-3.405-3-3.405A.75.75 0 0 1 18 9Zm-6-3c-2.645 0-4.815 2.084-4.968 4.726l.019.004a.75.75 0 0 1-.273 1.474l-.54-.1-.04-.008c-.587-.142-.978-.098-1.336.045A2.98 2.98 0 0 0 3 14.874c0 1.299.776 2.42 1.873 2.88.072.03.134.073.19.121l10.412-10.41A4.84 4.84 0 0 0 12 6Z"/>
</svg>
