<svg xmlns="http://www.w3.org/2000/svg" width="24" height="24" fill="currentColor" viewBox="0 0 24 24">
  <path d="M15 1.5a3.75 3.75 0 0 1 3.75 3.75v5.667a.75.75 0 0 1-1.5 0V9.75H3.75v4.5H9a.75.75 0 0 1 0 1.5H3.75v3A2.25 2.25 0 0 0 6 21h3a.75.75 0 0 1 0 1.5H6a3.75 3.75 0 0 1-3.75-3.75V5.25A3.75 3.75 0 0 1 6 1.5h9Zm.75 10.5a5.25 5.25 0 1 1 0 10.5 5.25 5.25 0 0 1 0-10.5Zm-2.694 2.643a3.75 3.75 0 0 0 4.558 5.86l-4.558-5.86ZM15.75 13.5c-.516 0-1.008.104-1.456.293l4.447 5.718a3.75 3.75 0 0 0-2.991-6.01Zm-9 3.75a.75.75 0 1 1 0 1.5.75.75 0 0 1 0-1.5Zm0-6a.75.75 0 1 1 0 1.5.75.75 0 0 1 0-1.5ZM6 3a2.25 2.25 0 0 0-2.25 2.25v3h13.5v-3A2.25 2.25 0 0 0 15 3H6Zm.75 2.25a.75.75 0 1 1 0 1.5.75.75 0 0 1 0-1.5Z"/>
</svg>
