<svg xmlns="http://www.w3.org/2000/svg" width="24" height="24" fill="currentColor" viewBox="0 0 24 24">
  <path fill-rule="evenodd" d="M3.22 19.72a.75.75 0 1 0 1.06 1.06l16.5-16.5a.75.75 0 0 0-1.06-1.06l-3.011 3.01C12.108 4.122 6.425 5.453 3.022 9.841l-1.364 1.757a.75.75 0 0 0 0 .92l1.365 1.758a11.76 11.76 0 0 0 2.94 2.7L3.22 19.72Zm3.832-3.833 1.82-1.819a3.75 3.75 0 0 1 5.197-5.197l1.495-1.496c-3.853-1.487-8.497-.303-11.356 3.385L3.2 12.06l1.007 1.297a10.217 10.217 0 0 0 2.845 2.531Zm5.918-5.918a2.25 2.25 0 0 0-3 3.001l3.001-3Zm5.288-1.799a.75.75 0 0 1 1.058-.08 11.992 11.992 0 0 1 1.662 1.751l1.364 1.757a.75.75 0 0 1 0 .92l-1.365 1.758c-2.687 3.455-6.742 4.917-10.585 4.358a.75.75 0 0 1 .216-1.485c3.318.484 6.835-.772 9.185-3.793l1.007-1.297-1.007-1.298a10.49 10.49 0 0 0-1.455-1.533.75.75 0 0 1-.08-1.058ZM15 11.25a.75.75 0 0 1 .75.75A3.75 3.75 0 0 1 12 15.75a.75.75 0 0 1 0-1.5A2.25 2.25 0 0 0 14.25 12a.75.75 0 0 1 .75-.75Z" clip-rule="evenodd"/>
</svg>
