<svg xmlns="http://www.w3.org/2000/svg" width="24" height="24" fill="currentColor" viewBox="0 0 24 24">
  <path d="M19.719 3.22a.752.752 0 0 1 1.061 1.06l-16.5 16.5a.75.75 0 0 1-1.06-1.06l4.37-4.371a.748.748 0 0 1 .14-.889 6.07 6.07 0 0 1 2.051-1.303l3.332-3.332A8.242 8.242 0 0 0 12 9.75c-2.41 0-4.603 1.047-6.201 2.761a.751.751 0 0 1-1.098-1.022C6.56 9.495 9.14 8.25 12.001 8.25a9.7 9.7 0 0 1 2.389.298l2.441-2.441a13.923 13.923 0 0 0-4.83-.857c-3.614 0-6.88 1.361-9.241 3.55a.75.75 0 0 1-1.02-1.1C4.38 5.255 8.008 3.75 12 3.75c2.13 0 4.158.43 5.986 1.201L19.72 3.22ZM12 15.75c.613 0 1.182.25 1.588.662.407.407.662.968.662 1.588a2.251 2.251 0 0 1-4.5 0c0-.62.251-1.183.662-1.588A2.241 2.241 0 0 1 12 15.75Zm0 1.5a.743.743 0 0 0-.528.222l-.006.007a.72.72 0 0 0-.216.521.751.751 0 0 0 1.5 0 .743.743 0 0 0-.223-.528l-.005-.006A.732.732 0 0 0 12 17.25Zm.778-3.748a.75.75 0 0 1 .927-.515 6.08 6.08 0 0 1 2.566 1.473.75.75 0 0 1-1.041 1.08 4.591 4.591 0 0 0-1.935-1.111.75.75 0 0 1-.517-.927Zm3.86-3.248a.75.75 0 0 1 1.046-.179 10.53 10.53 0 0 1 1.615 1.414.751.751 0 0 1-1.098 1.022 9.016 9.016 0 0 0-1.384-1.212.75.75 0 0 1-.18-1.045Zm3.284-3.453a.75.75 0 0 1 1.048-.164c.452.33.883.686 1.29 1.063a.75.75 0 0 1-1.02 1.1 12.94 12.94 0 0 0-1.155-.951.75.75 0 0 1-.163-1.048Z"/>
</svg>
