<svg xmlns="http://www.w3.org/2000/svg" width="24" height="24" fill="currentColor" viewBox="0 0 24 24">
  <path fill-rule="evenodd" d="M9.75 3.803c0-1.246.984-2.303 2.25-2.303s2.25 1.057 2.25 2.303v1.241c1.712.855 3 2.631 3 4.706v3.515l1.918 2.762c.402.55.411 1.222.175 1.745-.238.527-.765.978-1.477.978H6.126c-.71 0-1.238-.45-1.473-.98a1.747 1.747 0 0 1 .18-1.742l1.917-2.763V9.75c0-2.075 1.288-3.85 3-4.705V3.803Zm3 0v.756a4.788 4.788 0 0 0-1.5 0v-.756c0-.467.361-.803.75-.803s.75.336.75.803ZM12 6c-1.907 0-3.75 1.696-3.75 3.75v3.985L6.054 16.9l-.007.01a.247.247 0 0 0-.024.25c.018.04.041.065.057.076a.072.072 0 0 0 .047.014h11.74a.076.076 0 0 0 .048-.015.197.197 0 0 0 .061-.08.237.237 0 0 0-.02-.244l-.007-.01-2.199-3.166V9.75C15.75 7.696 13.908 6 12 6Zm2.95 14.517a.75.75 0 1 0-1.4-.534C13.33 20.56 12.732 21 12 21c-.732 0-1.33-.443-1.55-1.018a.75.75 0 0 0-1.4.536C9.497 21.686 10.66 22.5 12 22.5c1.339 0 2.503-.809 2.95-1.983Z" clip-rule="evenodd"/>
</svg>
