<svg xmlns="http://www.w3.org/2000/svg" width="24" height="24" fill="currentColor" viewBox="0 0 24 24">
  <path fill-rule="evenodd" d="M9.75 3.803c0-1.246.984-2.303 2.25-2.303s2.25 1.057 2.25 2.303V5.25a.75.75 0 0 1-1.5 0V3.803c0-.467-.361-.803-.75-.803s-.75.336-.75.803V5.25a.75.75 0 0 1-1.5 0V3.803Z" clip-rule="evenodd"/>
  <path fill-rule="evenodd" d="M7.125 9.75c0-2.837 2.098-5.25 4.876-5.25 2.778 0 4.874 2.414 4.874 5.25v3.482l2.274 2.77.01.014c.41.551.422 1.23.184 1.756-.238.527-.765.978-1.477.978H6.126c-.71 0-1.237-.45-1.473-.98a1.747 1.747 0 0 1 .188-1.752l.011-.015 2.273-2.771V9.75ZM12.001 6c-1.825 0-3.376 1.611-3.376 3.75v4.018L6.04 16.92a.248.248 0 0 0-.017.24c.018.04.041.065.057.076a.072.072 0 0 0 .047.014h11.74a.076.076 0 0 0 .048-.015.197.197 0 0 0 .061-.08.239.239 0 0 0-.013-.234l-2.588-3.153V9.75c0-2.14-1.55-3.75-3.374-3.75Zm2.516 13.55a.75.75 0 0 1 .434.967C14.503 21.691 13.339 22.5 12 22.5c-1.34 0-2.503-.814-2.95-1.982a.75.75 0 1 1 1.4-.536c.22.575.818 1.018 1.55 1.018.733 0 1.33-.44 1.55-1.017a.75.75 0 0 1 .967-.434Z" clip-rule="evenodd"/>
</svg>
