<svg xmlns="http://www.w3.org/2000/svg" width="24" height="24" fill="none" viewBox="0 0 24 24">
  <path fill="#3D3C3C" fill-rule="evenodd" d="M12 1.5c-1.266 0-2.25 1.057-2.25 2.303v1.242c-1.712.855-3 2.63-3 4.705v3.515l-1.917 2.763a1.747 1.747 0 0 0-.18 1.742c.235.53.762.98 1.474.98h11.74c.711 0 1.238-.451 1.476-.978a1.737 1.737 0 0 0-.184-1.756.75.75 0 1 0-1.203.896c.049.065.06.155.02.243a.198.198 0 0 1-.061.08.076.076 0 0 1-.049.015H6.126a.073.073 0 0 1-.046-.014.247.247 0 0 1-.033-.327l.007-.009 2.196-3.165V9.75C8.25 7.696 10.093 6 12 6c.574 0 .85.004 1.123.072.256.063.553.197 1.086.552a.75.75 0 0 0 .832-1.248 7.52 7.52 0 0 0-.791-.47V3.802c0-1.246-.984-2.303-2.25-2.303Zm.75 3.012v-.709c0-.467-.361-.803-.75-.803s-.75.336-.75.803v.757c.248-.04.499-.06.75-.06h.053c.241 0 .471 0 .697.012Zm1.767 15.037a.75.75 0 0 1 .434.968C14.503 21.691 13.339 22.5 12 22.5c-1.34 0-2.503-.814-2.95-1.982a.75.75 0 0 1 1.4-.536c.22.575.818 1.018 1.55 1.018.733 0 1.33-.44 1.55-1.017a.75.75 0 0 1 .967-.434ZM22.5 10.5c0 2.483-2.015 4.5-4.5 4.5a4.502 4.502 0 0 1-4.5-4.5C13.5 8.017 15.515 6 18 6s4.5 2.017 4.5 4.5Z" clip-rule="evenodd"/>
</svg>
