<svg xmlns="http://www.w3.org/2000/svg" width="24" height="24" fill="currentColor" viewBox="0 0 24 24">
  <path fill-rule="evenodd" d="M19.047 18.037c1.056 0 1.959.83 1.953 2v1.75a.75.75 0 0 1-.75.75h-6a.75.75 0 0 1-.75-.75v-1.683c-.006-1.211 1.044-2.067 2.07-2.067h3.477Zm-3.477 1.5c-.287 0-.572.269-.57.561v.94h4.5V20.03c.002-.32-.21-.493-.453-.493H15.57Z" clip-rule="evenodd"/>
  <path fill-rule="evenodd" d="M13.5 1.5A1.5 1.5 0 0 1 15 3v.75h2.25A2.25 2.25 0 0 1 19.5 6v4.5a.75.75 0 0 1-1.5 0V6a.75.75 0 0 0-.75-.75H15V6a1.5 1.5 0 0 1-1.5 1.5H9l-.153-.008A1.5 1.5 0 0 1 7.5 6v-.75H5.25A.75.75 0 0 0 4.5 6v14.25c0 .414.336.75.75.75h6a.75.75 0 0 1 0 1.5h-6A2.25 2.25 0 0 1 3 20.25V6a2.25 2.25 0 0 1 2.25-2.25H7.5V3A1.5 1.5 0 0 1 9 1.5h4.5ZM9 6h4.5V3H9v3Z" clip-rule="evenodd"/>
  <path d="M9.136 15.32a.75.75 0 0 1 1.229.86l-2.103 3a.75.75 0 0 1-1.23-.002l-.897-1.287a.75.75 0 0 1 1.23-.858l.284.407 1.487-2.12Z"/>
  <path fill-rule="evenodd" d="M17.25 12a2.625 2.625 0 1 1 0 5.25 2.625 2.625 0 0 1 0-5.25Zm0 1.5a1.125 1.125 0 1 0 0 2.25 1.125 1.125 0 0 0 0-2.25Z" clip-rule="evenodd"/>
  <path d="M9.136 9.32a.75.75 0 0 1 1.229.86l-2.103 3a.75.75 0 0 1-1.23-.002l-.897-1.287a.75.75 0 0 1 1.23-.858l.284.407 1.487-2.12Z"/>
</svg>
