<svg xmlns="http://www.w3.org/2000/svg" width="24" height="24" fill="currentColor" viewBox="0 0 24 24">
  <path fill-rule="evenodd" d="M7.988 10.68a.75.75 0 0 1 .081 1.058l-1.831 2.137 1.831 2.137a.75.75 0 0 1-1.138.976l-2.25-2.625a.75.75 0 0 1 0-.976l2.25-2.625a.75.75 0 0 1 1.057-.081Zm8.024 0a.75.75 0 0 1 1.058.082l2.25 2.625a.75.75 0 0 1 0 .976l-2.25 2.625a.75.75 0 0 1-1.14-.976l1.832-2.137-1.831-2.137a.75.75 0 0 1 .08-1.057Zm-2.596-2.408a.75.75 0 0 1 .546.91l-2.25 9a.75.75 0 1 1-1.456-.364l2.25-9a.75.75 0 0 1 .91-.546Z" clip-rule="evenodd"/>
  <path fill-rule="evenodd" d="M1.5 6h21v13.552c0 1.568-1.186 2.948-2.777 2.948H4.277c-1.591 0-2.777-1.38-2.777-2.948V6ZM3 7.5v12.052C3 20.41 3.627 21 4.277 21h15.445c.65 0 1.278-.59 1.278-1.448V7.5H3Z" clip-rule="evenodd"/>
  <path fill-rule="evenodd" d="M1.5 4.493C1.5 2.914 2.673 1.5 4.278 1.5h15.444c1.605 0 2.778 1.414 2.778 2.993V7.5h-21V4.493ZM4.278 3C3.641 3 3 3.596 3 4.493V6h18V4.493C21 3.596 20.36 3 19.722 3H4.278Z" clip-rule="evenodd"/>
  <path d="M5.435 3.75h-.37c-.312 0-.565.232-.565.519v.462c0 .287.253.519.565.519h.37c.312 0 .565-.232.565-.519V4.27c0-.287-.253-.519-.565-.519Zm2.25 0h-.37c-.312 0-.565.232-.565.519v.462c0 .287.253.519.565.519h.37c.312 0 .565-.232.565-.519V4.27c0-.287-.253-.519-.565-.519Zm2.25 0h-.37c-.312 0-.565.232-.565.519v.462c0 .287.253.519.565.519h.37c.312 0 .565-.232.565-.519V4.27c0-.287-.253-.519-.565-.519Z"/>
</svg>
