<svg xmlns="http://www.w3.org/2000/svg" width="24" height="24" fill="currentColor" viewBox="0 0 24 24">
  <path fill-rule="evenodd" d="M11.157.92c3.22 1.72 6.174 2.67 7.3 2.994l.008.003c.57.172 1.035.683 1.035 1.344V7.5a.75.75 0 0 1-1.5 0V5.344c-1.209-.352-4.217-1.327-7.503-3.077A40.956 40.956 0 0 1 3 5.35v8.26c0 .966.678 2.009 1.838 3.05 1.132 1.017 2.572 1.9 3.772 2.557a.75.75 0 0 1-.72 1.316c-1.234-.677-2.794-1.625-4.054-2.756C2.605 16.67 1.5 15.247 1.5 13.609V5.27c0-.649.451-1.18 1.044-1.348A39.428 39.428 0 0 0 9.834.92a1.376 1.376 0 0 1 1.323 0Zm5.441 8.476a.75.75 0 0 1 1.01-.31l2.623 1.373a.75.75 0 0 1 .319 1.009l-.474.917a5.5 5.5 0 0 1 .604.996l1.105.053a.75.75 0 0 1 .715.749v2.875a.75.75 0 0 1-.726.75l-.97.032c-.07.17-.148.338-.237.506l-.003.005c-.09.166-.188.33-.295.49l.592 1.019a.75.75 0 0 1-.281 1.03l-2.691 1.514a.75.75 0 0 1-1.04-.32l-.436-.88a5.301 5.301 0 0 1-1.05.03l-.46.864a.75.75 0 0 1-1.01.311l-2.649-1.386a.75.75 0 0 1-.312-1.021l.486-.9a5.507 5.507 0 0 1-.579-.95l-.974.032a.75.75 0 0 1-.774-.727l-.09-2.998a.75.75 0 0 1 .725-.773l.97-.031c.07-.172.149-.343.24-.512a6.07 6.07 0 0 1 .288-.478l-.513-.835a.75.75 0 0 1 .242-1.029l2.534-1.58a.75.75 0 0 1 1.035.243l.513.834c.362-.05.731-.064 1.101-.038l.462-.864Zm.972 1.363-.353.661a.75.75 0 0 1-.793.385 3.804 3.804 0 0 0-1.576.054.75.75 0 0 1-.82-.335l-.388-.63-1.261.786.389.633a.75.75 0 0 1-.065.874 3.946 3.946 0 0 0-.753 1.417.75.75 0 0 1-.693.533l-.735.024.046 1.5.736-.024a.75.75 0 0 1 .729.491c.186.508.465.973.835 1.369a.75.75 0 0 1 .112.869l-.367.68 1.317.69.353-.662a.75.75 0 0 1 .793-.385 3.804 3.804 0 0 0 1.576-.054.75.75 0 0 1 .852.395l.338.68 1.34-.754-.46-.79a.75.75 0 0 1 .075-.859 4.046 4.046 0 0 0 .752-1.417.75.75 0 0 1 .694-.533l.757-.024v-1.435l-.864-.04a.75.75 0 0 1-.669-.492 4.018 4.018 0 0 0-.835-1.368.75.75 0 0 1-.119-.857l.362-.7-1.305-.682Zm-.695 4.991a1.125 1.125 0 1 1-2.25 0 1.125 1.125 0 0 1 2.25 0Zm1.5 0a2.625 2.625 0 1 1-5.25 0 2.625 2.625 0 0 1 5.25 0Z" clip-rule="evenodd"/>
</svg>
