<svg xmlns="http://www.w3.org/2000/svg" width="24" height="24" fill="currentColor" viewBox="0 0 24 24">
  <path d="M21.75 21a.75.75 0 0 1 0 1.5h-7.5a.75.75 0 0 1 0-1.5h7.5ZM12.129 2.187a1.294 1.294 0 0 1 1.812-.498h.001l2.138 1.294.111.076a1.36 1.36 0 0 1 .364 1.734l-.689 1.258a7.34 7.34 0 0 1 1 1.81h1.319c.765 0 1.315.642 1.315 1.344v2.559c-.002.165-.015.4-.086.611-.055.163-.16.362-.357.519-.203.16-.436.223-.654.231-.206.008-.503.008-.737.006l-.304-.003-.091-.002-.025-.001h-.01a.75.75 0 0 1 .028-1.5h.009l.023.001.088.002.294.003h.321l.001-.006V9.361h-1.273a1.298 1.298 0 0 1-1.224-.866l-.085-.219a5.848 5.848 0 0 0-.662-1.205l-.135-.18a1.365 1.365 0 0 1-.111-1.486l.666-1.216-1.827-1.107-.635 1.156c-.25.453-.767.767-1.347.666a5.27 5.27 0 0 0-1.734.001H9.63a1.292 1.292 0 0 1-1.293-.582l-.05-.085-.637-1.156-1.828 1.107.666 1.216a1.366 1.366 0 0 1-.105 1.48l-.007.009a5.737 5.737 0 0 0-.879 1.601v.001a1.307 1.307 0 0 1-1.226.865H3v2.279h1.272a1.3 1.3 0 0 1 1.226.866c.213.59.513 1.13.88 1.604l.06.083c.28.425.287.972.051 1.402l-.666 1.216 1.828 1.107.636-1.155.05-.084a1.284 1.284 0 0 1 1.295-.583c.283.047.572.072.868.072a.75.75 0 0 1 0 1.5c-.328 0-.648-.026-.96-.071l-.666 1.209a1.294 1.294 0 0 1-1.816.505v.002L4.92 18.017v-.001a1.358 1.358 0 0 1-.475-1.812l.689-1.256a7.339 7.339 0 0 1-1-1.81H2.816c-.765 0-1.315-.642-1.315-1.344v-2.59c0-.713.561-1.344 1.315-1.344h1.32a7.228 7.228 0 0 1 .998-1.81l-.689-1.257v-.001a1.359 1.359 0 0 1 .471-1.807l.005-.003 2.138-1.295h.003A1.296 1.296 0 0 1 8.8 2.07l.071.116h.001l.668 1.216a6.74 6.74 0 0 1 1.921 0l.669-1.216ZM21.75 18a.75.75 0 0 1 0 1.5h-7.5a.75.75 0 0 1 0-1.5h7.5Zm0-3a.75.75 0 0 1 0 1.5h-7.5a.75.75 0 0 1 0-1.5h7.5ZM6.802 11.13a3.756 3.756 0 0 1 4.329-4.328 3.752 3.752 0 0 1 3.068 3.07l.031.238a3.755 3.755 0 0 1-4.36 4.09 3.755 3.755 0 0 1-3.042-2.926l-.026-.144Zm4.085-2.849a2.256 2.256 0 0 0-2.606 2.606c.151.923.907 1.68 1.832 1.832a2.256 2.256 0 0 0 2.606-2.606l-.035-.17a2.256 2.256 0 0 0-1.797-1.66V8.28Z"/>
</svg>
