<svg xmlns="http://www.w3.org/2000/svg" width="24" height="24" fill="currentColor" viewBox="0 0 24 24">
  <path fill-rule="evenodd" d="m16 1.704.002.002 2.52 1.526h.001c.675.407.885 1.284.514 1.959L16 1.704Zm0 0 3.037 3.488-.856 1.56a8.54 8.54 0 0 1 1.25 2.266h1.65c.823 0 1.419.69 1.419 1.451v2.281a.75.75 0 0 1-1.5 0v-2.232h-1.64a1.399 1.399 0 0 1-1.321-.938 7.044 7.044 0 0 0-1.06-1.93 1.476 1.476 0 0 1-.12-1.606l.85-1.55-2.393-1.45-.82 1.49c-.27.492-.83.829-1.453.719a6.362 6.362 0 0 0-2.09 0h-.003a1.393 1.393 0 0 1-1.446-.72l-.82-1.49-2.393 1.45.85 1.55c.275.5.241 1.133-.114 1.6l-.004.005-.003.004a6.915 6.915 0 0 0-1.06 1.931v.002c-.205.56-.732.933-1.32.933H3v2.964h1.64a1.4 1.4 0 0 1 1.321.938 7.04 7.04 0 0 0 1.061 1.93c.364.468.392 1.11.119 1.607l-.85 1.55 2.393 1.45.82-1.49c.27-.493.83-.83 1.453-.72.34.057.687.087 1.043.087.385 0 1.057-.034 1.377-.087a.75.75 0 1 1 .246 1.48c-.44.073-1.208.107-1.623.107-.413 0-.816-.033-1.21-.094l-.833 1.516a1.393 1.393 0 0 1-1.957.54l-.002-.002-2.52-1.526h-.001c-.676-.407-.885-1.285-.514-1.96l.856-1.56a8.539 8.539 0 0 1-1.25-2.266H2.92c-.823 0-1.419-.69-1.419-1.451v-3.062c0-.772.608-1.451 1.418-1.451H4.57a8.41 8.41 0 0 1 1.25-2.265l-.856-1.56a1.47 1.47 0 0 1 .507-1.957l.005-.003 2.529-1.532a1.398 1.398 0 0 1 1.95.54l.835 1.519a7.855 7.855 0 0 1 2.42 0l.833-1.516A1.393 1.393 0 0 1 16 1.704Zm-.25 14.046a.75.75 0 0 1 .75-.75h5.25a.75.75 0 0 1 0 1.5H16.5a.75.75 0 0 1-.75-.75Zm0 3a.75.75 0 0 1 .75-.75h5.25a.75.75 0 0 1 0 1.5H16.5a.75.75 0 0 1-.75-.75ZM16.5 21a.75.75 0 0 0 0 1.5h5.25a.75.75 0 0 0 0-1.5H16.5Zm-7.458-8.486a3.006 3.006 0 0 1 3.473-3.472 3.001 3.001 0 0 1 2.443 2.444 3.001 3.001 0 1 1-5.916 1.028Zm3.715-4.952a4.501 4.501 0 1 0-1.515 8.876 4.506 4.506 0 0 0 5.196-5.194 4.501 4.501 0 0 0-3.68-3.682Z" clip-rule="evenodd"/>
</svg>
