<svg xmlns="http://www.w3.org/2000/svg" width="24" height="24" fill="currentColor" viewBox="0 0 24 24">
  <path fill-rule="evenodd" d="M4.5 4.122C4.5 3.492 5.005 3 5.582 3h12.086c.577 0 1.082.492 1.082 1.122V9a.75.75 0 0 0 1.5 0V4.122c0-1.427-1.146-2.622-2.582-2.622H5.582C4.146 1.5 3 2.695 3 4.122V6h-.75a.75.75 0 0 0 0 1.5h3a.75.75 0 0 0 0-1.5H4.5V4.122Zm0 15.34a.75.75 0 0 0-1.5 0v.416C3 21.305 4.146 22.5 5.582 22.5H9A.75.75 0 0 0 9 21H5.582c-.577 0-1.082-.492-1.082-1.122v-.416ZM2.25 16.5a.75.75 0 0 0 0 1.5h3a.75.75 0 0 0 0-1.5H4.5v-2.25a.75.75 0 0 0-1.5 0v2.25h-.75ZM1.5 12a.75.75 0 0 1 .75-.75H3V9a.75.75 0 0 1 1.5 0v2.25h.75a.75.75 0 0 1 0 1.5h-3A.75.75 0 0 1 1.5 12Zm19.5-.75a.75.75 0 0 1 .75.75v2.25A.75.75 0 0 1 21 15h-2.25a.75.75 0 0 1 0-1.5h.616c-.668-.495-1.498-.75-2.491-.75-2.35 0-4.125 1.627-4.125 3.75a.75.75 0 0 1-1.5 0c0-3.087 2.588-5.25 5.625-5.25 1.269 0 2.42.333 3.375 1.038V12a.75.75 0 0 1 .75-.75Zm-8.25 7.5a.75.75 0 0 0-.75.75v2.25a.75.75 0 0 0 1.5 0v-.377a5.599 5.599 0 0 0 3.375 1.127c3.05 0 5.625-2.294 5.625-5.25a.75.75 0 0 0-1.5 0c0 2.017-1.788 3.75-4.125 3.75-.9 0-1.697-.282-2.368-.75H15a.75.75 0 0 0 0-1.5h-2.25Z" clip-rule="evenodd"/>
</svg>
