<svg xmlns="http://www.w3.org/2000/svg" width="24" height="24" fill="currentColor" viewBox="0 0 24 24">
  <path d="M17.25 12a5.25 5.25 0 1 1 0 10.5 5.25 5.25 0 0 1 0-10.5Zm0 1.5a3.75 3.75 0 1 0 0 7.5 3.75 3.75 0 0 0 0-7.5ZM12.129 2.187a1.294 1.294 0 0 1 1.812-.498h.001l2.138 1.294.111.076a1.36 1.36 0 0 1 .364 1.734l-.689 1.257a7.382 7.382 0 0 1 1 1.811h1.319c.765 0 1.315.642 1.315 1.344v.106l-.03.103-.374 1.295a.75.75 0 0 1-1.442-.417l.27-.931h-1.197a1.298 1.298 0 0 1-1.224-.866l-.085-.219a5.849 5.849 0 0 0-.662-1.205l-.135-.18a1.365 1.365 0 0 1-.111-1.486l.666-1.216-1.827-1.107-.635 1.156c-.25.453-.767.766-1.347.666a5.27 5.27 0 0 0-1.734 0H9.63a1.292 1.292 0 0 1-1.293-.581l-.05-.085-.637-1.156-1.828 1.107.666 1.216a1.365 1.365 0 0 1-.105 1.48l-.007.008a5.738 5.738 0 0 0-.879 1.602 1.307 1.307 0 0 1-1.226.866H3v2.278h1.272a1.3 1.3 0 0 1 1.226.867c.213.59.513 1.13.88 1.604l.06.083c.28.424.287.971.051 1.401l-.666 1.216 1.828 1.108.636-1.156.05-.084a1.284 1.284 0 0 1 1.295-.583c.283.047.572.073.868.073a.75.75 0 0 1 0 1.5 6.74 6.74 0 0 1-.96-.072l-.666 1.21a1.294 1.294 0 0 1-1.816.505v.001L4.92 18.017a1.358 1.358 0 0 1-.475-1.812l.689-1.256a7.342 7.342 0 0 1-1-1.81H2.816c-.765 0-1.315-.643-1.315-1.344v-2.59c0-.713.561-1.344 1.315-1.344h1.32a7.228 7.228 0 0 1 .998-1.81l-.689-1.257v-.001a1.359 1.359 0 0 1 .471-1.807l.005-.003 2.138-1.295h.003a1.296 1.296 0 0 1 1.738.383l.071.115.001.001.668 1.216a6.74 6.74 0 0 1 1.921 0l.669-1.216Zm6.007 13.132a.75.75 0 0 1 1.228.861l-2.102 3a.75.75 0 0 1-1.23-.002l-.897-1.287a.75.75 0 0 1 1.23-.858l.283.407 1.488-2.121Zm-11.334-4.19a3.756 3.756 0 0 1 4.329-4.328 3.752 3.752 0 0 1 3.068 3.07l.031.239a3.755 3.755 0 0 1-4.36 4.089 3.755 3.755 0 0 1-3.042-2.925l-.026-.144Zm4.085-2.848a2.256 2.256 0 0 0-2.606 2.605v.001a2.252 2.252 0 0 0 1.832 1.831 2.256 2.256 0 0 0 2.606-2.605l-.035-.171a2.256 2.256 0 0 0-1.797-1.66V8.28Z"/>
</svg>
