<svg xmlns="http://www.w3.org/2000/svg" width="24" height="24" fill="currentColor" viewBox="0 0 24 24">
  <path fill-rule="evenodd" d="M7.5 17.25a.75.75 0 0 1 .75-.75h2.25a.75.75 0 1 1 0 1.5H8.25a.75.75 0 0 1-.75-.75Zm0-5.25a.75.75 0 0 1 .75-.75h2.25a.75.75 0 1 1 0 1.5H8.25A.75.75 0 0 1 7.5 12Z" clip-rule="evenodd"/>
  <path fill-rule="evenodd" d="M7.285 5.25C6.617 5.25 6 5.837 6 6.655v12.94C6 20.415 6.612 21 7.285 21h10.18c.668 0 1.285-.587 1.285-1.405V6.655c0-.82-.612-1.405-1.285-1.405H15.75a.75.75 0 0 1 0-1.5h1.715c1.583 0 2.785 1.34 2.785 2.905v12.94c0 1.566-1.21 2.905-2.785 2.905H7.285c-1.583 0-2.785-1.34-2.785-2.905V6.655C4.5 5.09 5.71 3.75 7.285 3.75h1.34a.75.75 0 0 1 0 1.5h-1.34Z" clip-rule="evenodd"/>
  <path fill-rule="evenodd" d="M9.75 3v3H15V3H9.75Zm-1.5-.027A1.47 1.47 0 0 1 9.716 1.5h5.318A1.47 1.47 0 0 1 16.5 2.973v3.054A1.47 1.47 0 0 1 15.034 7.5H9.716A1.47 1.47 0 0 1 8.25 6.027V2.973Zm8.68 6.163a.75.75 0 0 1 .184 1.045l-2.102 3a.75.75 0 0 1-1.23-.002l-.897-1.288a.75.75 0 0 1 1.23-.858l.284.408 1.487-2.121a.75.75 0 0 1 1.044-.184Zm0 5.25a.75.75 0 0 1 .184 1.045l-2.102 3a.75.75 0 0 1-1.23-.002l-.897-1.288a.75.75 0 0 1 1.23-.858l.284.408 1.487-2.121a.75.75 0 0 1 1.044-.184Z" clip-rule="evenodd"/>
</svg>
