<svg xmlns="http://www.w3.org/2000/svg" width="24" height="24" fill="currentColor" viewBox="0 0 24 24">
  <path fill-rule="evenodd" d="M9.75 3h4.5v3h-4.5V3Zm-1.5 0a1.5 1.5 0 0 1 1.5-1.5h4.5a1.5 1.5 0 0 1 1.5 1.5v.75H18A2.25 2.25 0 0 1 20.25 6v14.25A2.25 2.25 0 0 1 18 22.5H6a2.25 2.25 0 0 1-2.25-2.25V6A2.25 2.25 0 0 1 6 3.75h2.25V3Zm0 2.25H6a.75.75 0 0 0-.75.75v14.25c0 .414.336.75.75.75h12a.75.75 0 0 0 .75-.75V6a.75.75 0 0 0-.75-.75h-2.25V6a1.5 1.5 0 0 1-1.5 1.5h-4.5A1.5 1.5 0 0 1 8.25 6v-.75Zm8.68 3.886a.75.75 0 0 1 .184 1.045l-2.102 3a.75.75 0 0 1-1.23-.002l-.897-1.288a.75.75 0 1 1 1.23-.858l.284.408 1.487-2.121a.75.75 0 0 1 1.044-.184ZM7.5 11.25a.75.75 0 0 0 0 1.5h3a.75.75 0 0 0 0-1.5h-3Zm0 5.25a.75.75 0 0 0 0 1.5h3a.75.75 0 0 0 0-1.5h-3Zm9.614-1.07a.75.75 0 0 0-1.228-.86l-1.487 2.12-.284-.407a.75.75 0 0 0-1.23.858l.897 1.288a.75.75 0 0 0 1.23.002l2.102-3Z" clip-rule="evenodd"/>
</svg>
