<svg xmlns="http://www.w3.org/2000/svg" width="24" height="24" fill="currentColor" viewBox="0 0 24 24">
  <path fill-rule="evenodd" d="M9 4.5A1.5 1.5 0 0 1 10.5 3h3A1.5 1.5 0 0 1 15 4.5v3A1.5 1.5 0 0 1 13.5 9h-.75v2.25h6.75a.75.75 0 0 1 .75.75v3H21a1.5 1.5 0 0 1 1.5 1.5v3A1.5 1.5 0 0 1 21 21h-3a1.5 1.5 0 0 1-1.5-1.5v-3A1.5 1.5 0 0 1 18 15h.75v-2.25h-6V15h.75a1.5 1.5 0 0 1 1.5 1.5v3a1.5 1.5 0 0 1-1.5 1.5h-3A1.5 1.5 0 0 1 9 19.5v-3a1.5 1.5 0 0 1 1.5-1.5h.75v-2.25h-6V15H6a1.5 1.5 0 0 1 1.5 1.5v3A1.5 1.5 0 0 1 6 21H3a1.5 1.5 0 0 1-1.5-1.5v-3A1.5 1.5 0 0 1 3 15h.75v-3a.75.75 0 0 1 .75-.75h6.75V9h-.75A1.5 1.5 0 0 1 9 7.5v-3Zm4.5 0h-3v3h3v-3ZM3 16.5v3h3v-3H3Zm7.5 0h3v3h-3v-3Zm7.5 0v3h3v-3h-3Z" clip-rule="evenodd"/>
</svg>
