<svg xmlns="http://www.w3.org/2000/svg" width="24" height="24" fill="currentColor" viewBox="0 0 24 24">
  <path fill-rule="evenodd" d="M9.805 9.955a3 3 0 1 0 4.39 4.09 3 3 0 0 0-4.39-4.09ZM10.5 12a1.5 1.5 0 1 1 3 0 1.5 1.5 0 0 1-3 0Z" clip-rule="evenodd"/>
  <path fill-rule="evenodd" d="M3.052 9.955c4.63-5.273 13.266-5.273 17.896 0l1.365 1.552a.75.75 0 0 1 0 .99l-1.365 1.553c-4.637 5.266-13.266 5.267-17.896 0l-1.365-1.552a.75.75 0 0 1 0-.99l1.365-1.553Zm15.765 0c.354.302.69.632 1.004.99l.93 1.057-.929 1.057c-4.04 4.588-11.61 4.588-15.644 0l-.93-1.056.93-1.058c.315-.358.65-.688 1.005-.99 3.834-3.273 9.8-3.273 13.634 0Z" clip-rule="evenodd"/>
</svg>
