<svg xmlns="http://www.w3.org/2000/svg" width="24" height="24" fill="currentColor" viewBox="0 0 24 24">
  <path fill-rule="evenodd" d="M22.344 11.546 20.98 9.771c-4.632-6.029-13.328-6.029-17.96 0l-1.364 1.774a.75.75 0 0 0 0 .914l1.365 1.774c4.632 6.022 13.32 6.02 17.958 0l1.365-1.774a.75.75 0 0 0 0-.915Zm-18.134-.86c4.031-5.248 11.549-5.248 15.58 0l1.014 1.317-1.013 1.317c-4.04 5.24-11.55 5.24-15.582 0l-1.013-1.317 1.014-1.317ZM9.75 12a2.25 2.25 0 1 1 4.5 0 2.25 2.25 0 0 1-4.5 0ZM12 8.25a3.75 3.75 0 1 0 0 7.5 3.75 3.75 0 0 0 0-7.5Z" clip-rule="evenodd"/>
</svg>
