<svg xmlns="http://www.w3.org/2000/svg" width="24" height="24" fill="currentColor" viewBox="0 0 24 24">
  <path fill-rule="evenodd" d="M20.948 9.955c-4.63-5.273-13.266-5.273-17.896 0h17.896Zm0 0 1.365 1.552a.75.75 0 0 1 0 .99l-1.365 1.553c-4.637 5.266-13.266 5.267-17.896 0l-1.365-1.552a.75.75 0 0 1 0-.99l1.365-1.553m16.77.99c-4.034-4.593-11.61-4.593-15.643 0l-.93 1.057.93 1.058c4.032 4.586 11.603 4.587 15.643 0l.93-1.058-.93-1.057Z" clip-rule="evenodd"/>
  <path fill-rule="evenodd" d="M12 10.5a1.5 1.5 0 1 0 0 3 1.5 1.5 0 0 0 0-3ZM9 12a3 3 0 1 1 6 0 3 3 0 0 1-6 0Z" clip-rule="evenodd"/>
</svg>
