<svg xmlns="http://www.w3.org/2000/svg" width="24" height="24" fill="currentColor" viewBox="0 0 24 24">
  <path fill-rule="evenodd" d="M20.074 7.481 14.68 3.198l-1.005 1.32 5.393 4.284 1.005-1.32Zm-6.292-5.579c.337-.434.99-.555 1.46-.174l6.115 4.857.01.009c.421.346.522.984.168 1.444l-1.567 2.06a1.046 1.046 0 0 1-.818.403l-1.827 4.302a1.627 1.627 0 0 1-.825.828l-.002.001L6.32 20.178a.746.746 0 0 1-.78-.086.747.747 0 0 1-.272-.756L7.38 8.793c.085-.397.322-.742.64-.971l.008-.006 4.044-2.84a1.036 1.036 0 0 1 .143-1.014l1.567-2.06ZM8.435 17.591l3.407-4.38a.75.75 0 0 0-1.184-.921L7.36 16.53l1.487-7.425a.13.13 0 0 1 .049-.065l4.08-2.865 4.853 3.6-1.88 4.425a.13.13 0 0 1-.067.064L8.435 17.59ZM3.75 21a.75.75 0 0 0 0 1.5h16.5a.75.75 0 0 0 0-1.5H3.75Z" clip-rule="evenodd"/>
</svg>
