<svg xmlns="http://www.w3.org/2000/svg" width="24" height="24" fill="currentColor" viewBox="0 0 24 24">
  <path fill-rule="evenodd" d="M12.657 1.67c3.22 1.72 6.174 2.67 7.3 2.994l.008.003C20.535 4.839 21 5.35 21 6.01v4.49a.75.75 0 0 1-1.5 0V6.094c-1.209-.352-4.217-1.327-7.503-3.077A40.956 40.956 0 0 1 4.5 6.1v8.26c0 1.122.852 2.317 2.215 3.464 1.325 1.114 2.953 2.031 4.121 2.618a.75.75 0 0 1-.672 1.34c-1.211-.607-2.959-1.586-4.414-2.81C4.333 17.78 3 16.196 3 14.359V6.02c0-.649.451-1.18 1.044-1.348a39.429 39.429 0 0 0 7.29-3.001 1.376 1.376 0 0 1 1.323 0Z" clip-rule="evenodd"/>
  <path d="M13.515 22.5c-.397 0-.78-.157-1.065-.442a1.486 1.486 0 0 1-.397-1.44h-.008l.458-1.823a.718.718 0 0 1 .195-.345l5.745-5.76a2.386 2.386 0 0 1 3.36 0c.93.93.93 2.43 0 3.36l-5.745 5.745a.726.726 0 0 1-.345.195l-1.823.458c-.127.03-.247.044-.375.044v.008Zm-.015-1.523v.008l1.65-.398 5.595-5.595a.883.883 0 0 0 0-1.237.87.87 0 0 0-1.237 0l-5.603 5.603-.405 1.62Z"/>
</svg>
