<svg xmlns="http://www.w3.org/2000/svg" width="24" height="24" fill="currentColor" viewBox="0 0 24 24">
  <path fill-rule="evenodd" d="M19.956 4.664c-1.125-.325-4.08-1.275-7.299-2.995a1.376 1.376 0 0 0-1.323 0 39.429 39.429 0 0 1-7.29 3.002C3.45 4.84 3 5.371 3 6.018v8.341c0 1.837 1.333 3.421 2.75 4.613 1.455 1.224 3.203 2.203 4.414 2.81a.75.75 0 1 0 .672-1.34c-1.168-.587-2.796-1.504-4.12-2.618C5.351 16.677 4.5 15.482 4.5 14.359V6.1a40.956 40.956 0 0 0 7.497-3.083c3.286 1.75 6.294 2.725 7.503 3.077V10.5a.75.75 0 0 0 1.5 0V6.011c0-.661-.464-1.172-1.035-1.344l-.009-.003ZM12.45 22.057c.285.286.668.443 1.065.443v-.008c.127 0 .247-.015.375-.044l1.822-.458a.726.726 0 0 0 .346-.195l5.744-5.745c.93-.93.93-2.43 0-3.36a2.386 2.386 0 0 0-3.36 0l-5.745 5.76a.718.718 0 0 0-.194.345l-.458 1.822h.008a1.486 1.486 0 0 0 .397 1.44Zm1.05-1.072v-.008l.405-1.62 5.603-5.602a.87.87 0 0 1 1.237 0c.337.345.337.9 0 1.237l-5.595 5.595-1.65.398Z" clip-rule="evenodd"/>
</svg>
