<svg xmlns="http://www.w3.org/2000/svg" width="24" height="24" fill="currentColor" viewBox="0 0 24 24">
  <path fill-rule="evenodd" d="M6.278 2.256h-.002a.75.75 0 0 0-.839.825l.283 2.617a8.236 8.236 0 0 0-2.231 3.52H2.25a.75.75 0 0 0-.75.75v3.989c0 .414.336.75.75.75h1.52a8.382 8.382 0 0 0 2.205 2.974v2.155c0 1.074.88 1.914 1.941 1.914h.635a1.94 1.94 0 0 0 1.845-1.305l.22-.646a9.649 9.649 0 0 0 2.89 0l.22.646a1.94 1.94 0 0 0 1.844 1.305h.635c1.051 0 1.94-.837 1.94-1.913V17.68c1.695-1.47 2.788-3.557 2.852-5.896a2.439 2.439 0 0 0 1.194-1.181c.382-.786.356-1.485.209-1.999a2.536 2.536 0 0 0-.363-.758 1.796 1.796 0 0 0-.04-.053l-.014-.018-.006-.007-.003-.003-.001-.002-.001-.001a.75.75 0 0 0-1.15.963l.002.003a1.04 1.04 0 0 1 .134.29c.056.197.087.511-.117.93l-.002.004-.004.008c-.805-3.87-4.467-6.734-8.775-6.734-.989 0-1.938.145-2.833.425-.575-.547-1.233-.88-1.76-1.08a6.18 6.18 0 0 0-1.08-.3 3.37 3.37 0 0 0-.075-.011l-.023-.003-.008-.002h-.003Zm2.77 4.49c-.028-.787-.284-1.339-.614-1.75-.388-.473-.91-.782-1.387-.977l.206 1.9a.75.75 0 0 1-.258.65c-1.1.942-1.882 2.183-2.203 3.568a.75.75 0 0 1-.73.58H3v2.49h1.28c.317 0 .6.199.706.497.422 1.183 1.195 2.233 2.206 3.039a.75.75 0 0 1 .283.586v2.508c0 .214.178.413.441.413h.635a.44.44 0 0 0 .424-.287l.43-1.262a.75.75 0 0 1 .872-.49 8.195 8.195 0 0 0 3.565 0 .75.75 0 0 1 .873.49l.43 1.262c.055.16.218.287.425.287h.635c.26 0 .44-.202.44-.413v-2.508a.75.75 0 0 1 .283-.586c1.587-1.264 2.572-3.12 2.572-5.176 0-3.723-3.275-6.84-7.44-6.84-.663 0-1.3.076-1.906.224a4.58 4.58 0 0 1 .394 1.74.75.75 0 0 1-1.5.056Zm3.178.8c.19-.06.782-.089 1.45.096.655.18 1.174.509 1.41.958a.75.75 0 0 0 1.327-.7c-.513-.97-1.494-1.471-2.338-1.704-.833-.23-1.74-.258-2.3-.081a.75.75 0 1 0 .45 1.43ZM8.17 9.84c0 .577-.47 1.045-1.05 1.045-.58 0-1.05-.468-1.05-1.045s.47-1.045 1.05-1.045c.58 0 1.05.468 1.05 1.045Z" clip-rule="evenodd"/>
</svg>
