<svg xmlns="http://www.w3.org/2000/svg" width="25" height="25" fill="currentColor" viewBox="0 0 25 25">
  <path d="M15.47 2.05a.741.741 0 0 1 1.053 0l5.974 6h.006a.75.75 0 0 1 0 1.058l-6.934 6.965c.74.86 1.155 1.912 1.155 3.003 0 1.328-.612 2.595-1.717 3.563a.75.75 0 0 1-1.023-.03l-5.447-5.472-5.5 5.524a.732.732 0 0 1-.53.217v.008a.762.762 0 0 1-.53-.218.75.75 0 0 1 0-1.058l5.507-5.53-5.447-5.472A.747.747 0 0 1 2 9.588c.964-1.11 2.226-1.725 3.547-1.725 1.077 0 2.11.408 2.98 1.16l6.944-6.972Z"/>
</svg>
