<svg xmlns="http://www.w3.org/2000/svg" width="24" height="24" fill="currentColor" viewBox="0 0 24 24">
  <path fill-rule="evenodd" d="m22.28 7.72-6-6a.75.75 0 0 0-1.06 0L8.258 8.682C7.383 7.906 6.327 7.5 5.248 7.5c-1.324 0-2.61.61-3.57 1.764a.745.745 0 0 0-.077.862.747.747 0 0 0 .123.159L7.19 15.75l-5.52 5.52a.75.75 0 1 0 1.061 1.06l5.52-5.52 5.465 5.466a.75.75 0 0 0 1.019.047c1.155-.959 1.766-2.247 1.766-3.57 0-1.08-.406-2.136-1.182-3.01L22.28 8.78a.75.75 0 0 0 0-1.06Zm-6.53-4.41 4.94 4.94-6.44 6.44-4.94-4.94 6.44-6.44Zm-8.048 6.952a.752.752 0 0 0 .023.024l5.99 5.989a.686.686 0 0 0 .022.022l.005.004a.74.74 0 0 0 .03.027l.006.005c.838.7 1.222 1.578 1.222 2.42 0 .66-.237 1.343-.744 1.942L3.305 9.745C3.905 9.236 4.586 9 5.247 9c.842 0 1.72.384 2.42 1.222l.03.035" clip-rule="evenodd"/>
</svg>
