<svg xmlns="http://www.w3.org/2000/svg" width="24" height="24" fill="currentColor" viewBox="0 0 24 24">
  <path fill-rule="evenodd" d="M3.19 1.5h-.38c-.309 0-.56.233-.56.521v.458c0 .288.251.521.56.521h.38c.309 0 .56-.233.56-.521v-.458c0-.288-.251-.521-.56-.521Zm.56 20.021c0-.288-.251-.521-.56-.521h-.38c-.309 0-.56.233-.56.521v.458c0 .288.251.521.56.521h.38c.309 0 .56-.233.56-.521v-.458ZM5.44 21h-.38c-.309 0-.56.233-.56.521v.458c0 .288.251.521.56.521h.38c.309 0 .56-.233.56-.521v-.458c0-.288-.251-.521-.56-.521Zm1.87 0h.38c.309 0 .56.233.56.521v.458c0 .288-.251.521-.56.521h-.38c-.309 0-.56-.233-.56-.521v-.458c0-.288.251-.521.56-.521Zm2.63 0h-.38c-.309 0-.56.233-.56.521v.458c0 .288.251.521.56.521h.38c.309 0 .56-.233.56-.521v-.458c0-.288-.251-.521-.56-.521Zm1.87 0h.38c.309 0 .56.233.56.521v.458c0 .288-.251.521-.56.521h-.38c-.309 0-.56-.233-.56-.521v-.458c0-.288.251-.521.56-.521Zm2.63 0h-.38c-.309 0-.56.233-.56.521v.458c0 .288.251.521.56.521h.38c.309 0 .56-.233.56-.521v-.458c0-.288-.251-.521-.56-.521Zm1.87 0h.38c.309 0 .56.233.56.521v.458c0 .288-.251.521-.56.521h-.38c-.309 0-.56-.233-.56-.521v-.458c0-.288.251-.521.56-.521Zm2.63 0h-.38c-.309 0-.56.233-.56.521v.458c0 .288.251.521.56.521h.38c.309 0 .56-.233.56-.521v-.458c0-.288-.251-.521-.56-.521Zm2.25 0c.309 0 .56.233.56.521v.458c0 .288-.251.521-.56.521h-.38c-.309 0-.56-.233-.56-.521v-.458c0-.288.251-.521.56-.521h.38ZM5.06 1.5h.38c.309 0 .56.233.56.521v.458C6 2.767 5.749 3 5.44 3h-.38c-.309 0-.56-.233-.56-.521v-.458c0-.288.251-.521.56-.521Zm2.63 0h-.38c-.309 0-.56.233-.56.521v.458c0 .288.251.521.56.521h.38c.309 0 .56-.233.56-.521v-.458c0-.288-.251-.521-.56-.521Zm1.87 0h.38c.309 0 .56.233.56.521v.458c0 .288-.251.521-.56.521h-.38C9.252 3 9 2.767 9 2.479v-.458c0-.288.251-.521.56-.521Zm2.63 0h-.38c-.309 0-.56.233-.56.521v.458c0 .288.251.521.56.521h.38c.309 0 .56-.233.56-.521v-.458c0-.288-.251-.521-.56-.521Zm1.87 0h.38c.309 0 .56.233.56.521v.458c0 .288-.251.521-.56.521h-.38c-.309 0-.56-.233-.56-.521v-.458c0-.288.251-.521.56-.521Zm2.63 0h-.38c-.309 0-.56.233-.56.521v.458c0 .288.251.521.56.521h.38c.309 0 .56-.233.56-.521v-.458c0-.288-.251-.521-.56-.521Zm1.87 0h.38c.309 0 .56.233.56.521v.458c0 .288-.251.521-.56.521h-.38c-.309 0-.56-.233-.56-.521v-.458c0-.288.251-.521.56-.521Zm2.63 0h-.38c-.309 0-.56.233-.56.521v.458c0 .288.251.521.56.521h.38c.309 0 .56-.233.56-.521v-.458c0-.288-.251-.521-.56-.521ZM1.5 5.021c0-.288.251-.521.56-.521h.38c.309 0 .56.233.56.521v.458C3 5.767 2.749 6 2.44 6h-.38c-.309 0-.56-.233-.56-.521v-.458Zm.56 1.729c-.309 0-.56.233-.56.521v.458c0 .288.251.521.56.521h.38c.309 0 .56-.233.56-.521v-.458c0-.288-.251-.521-.56-.521h-.38ZM1.5 9.521c0-.288.251-.521.56-.521h.38c.309 0 .56.233.56.521v.458c0 .288-.251.521-.56.521h-.38c-.309 0-.56-.233-.56-.521v-.458Zm.56 1.729c-.309 0-.56.233-.56.521v.458c0 .288.251.521.56.521h.38c.309 0 .56-.233.56-.521v-.458c0-.288-.251-.521-.56-.521h-.38Zm-.56 2.771c0-.288.251-.521.56-.521h.38c.309 0 .56.233.56.521v.458c0 .288-.251.521-.56.521h-.38c-.309 0-.56-.233-.56-.521v-.458Zm.56 1.729c-.309 0-.56.233-.56.521v.458c0 .288.251.521.56.521h.38c.309 0 .56-.233.56-.521v-.458c0-.288-.251-.521-.56-.521h-.38Zm-.56 2.771c0-.288.251-.521.56-.521h.38c.309 0 .56.233.56.521v.458c0 .288-.251.521-.56.521h-.38c-.309 0-.56-.233-.56-.521v-.458ZM21.94 4.5h-.38c-.309 0-.56.233-.56.521v.458c0 .288.251.521.56.521h.38c.309 0 .56-.233.56-.521v-.458c0-.288-.251-.521-.56-.521Zm-.38 2.25h.38c.309 0 .56.233.56.521v.458c0 .288-.251.521-.56.521h-.38c-.309 0-.56-.233-.56-.521v-.458c0-.288.251-.521.56-.521ZM21.94 9h-.38c-.309 0-.56.233-.56.521v.458c0 .288.251.521.56.521h.38c.309 0 .56-.233.56-.521v-.458c0-.288-.251-.521-.56-.521Zm-.38 2.25h.38c.309 0 .56.233.56.521v.458c0 .288-.251.521-.56.521h-.38c-.309 0-.56-.233-.56-.521v-.458c0-.288.251-.521.56-.521Zm.38 2.25h-.38c-.309 0-.56.233-.56.521v.458c0 .288.251.521.56.521h.38c.309 0 .56-.233.56-.521v-.458c0-.288-.251-.521-.56-.521Zm-.38 2.25h.38c.309 0 .56.233.56.521v.458c0 .288-.251.521-.56.521h-.38c-.309 0-.56-.233-.56-.521v-.458c0-.288.251-.521.56-.521Zm.38 2.25h-.38c-.309 0-.56.233-.56.521v.458c0 .288.251.521.56.521h.38c.309 0 .56-.233.56-.521v-.458c0-.288-.251-.521-.56-.521ZM8.25 8.529a.28.28 0 0 1 .279-.279h6.942a.28.28 0 0 1 .279.279v6.942a.279.279 0 0 1-.279.279H8.53a.279.279 0 0 1-.279-.279V8.53Zm.279-1.779c-.983 0-1.779.796-1.779 1.779v6.942c0 .983.796 1.779 1.779 1.779h6.942c.983 0 1.779-.796 1.779-1.779V8.53c0-.983-.796-1.779-1.779-1.779H8.53Z" clip-rule="evenodd"/>
</svg>
