<svg xmlns="http://www.w3.org/2000/svg" width="24" height="24" fill="currentColor" viewBox="0 0 24 24">
  <path d="M3.19 21h-.38c-.309 0-.56.233-.56.521v.458c0 .288.251.521.56.521h.38c.309 0 .56-.233.56-.521v-.458c0-.288-.251-.521-.56-.521Zm2.25 0h-.38c-.309 0-.56.233-.56.521v.458c0 .288.251.521.56.521h.38c.309 0 .56-.233.56-.521v-.458c0-.288-.251-.521-.56-.521Zm2.25 0h-.38c-.309 0-.56.233-.56.521v.458c0 .288.251.521.56.521h.38c.309 0 .56-.233.56-.521v-.458c0-.288-.251-.521-.56-.521Zm2.25 0h-.38c-.309 0-.56.233-.56.521v.458c0 .288.251.521.56.521h.38c.309 0 .56-.233.56-.521v-.458c0-.288-.251-.521-.56-.521Zm2.25 0h-.38c-.309 0-.56.233-.56.521v.458c0 .288.251.521.56.521h.38c.309 0 .56-.233.56-.521v-.458c0-.288-.251-.521-.56-.521Zm2.25 0h-.38c-.309 0-.56.233-.56.521v.458c0 .288.251.521.56.521h.38c.309 0 .56-.233.56-.521v-.458c0-.288-.251-.521-.56-.521Zm2.25 0h-.38c-.309 0-.56.233-.56.521v.458c0 .288.251.521.56.521h.38c.309 0 .56-.233.56-.521v-.458c0-.288-.251-.521-.56-.521Zm2.25 0h-.38c-.309 0-.56.233-.56.521v.458c0 .288.251.521.56.521h.38c.309 0 .56-.233.56-.521v-.458c0-.288-.251-.521-.56-.521Zm2.25 0h-.38c-.309 0-.56.233-.56.521v.458c0 .288.251.521.56.521h.38c.309 0 .56-.233.56-.521v-.458c0-.288-.251-.521-.56-.521Zm-18-19.5h-.38c-.309 0-.56.233-.56.521v.458c0 .288.251.521.56.521h.38c.309 0 .56-.233.56-.521v-.458c0-.288-.251-.521-.56-.521Zm2.25 0h-.38c-.309 0-.56.233-.56.521v.458c0 .288.251.521.56.521h.38c.309 0 .56-.233.56-.521v-.458c0-.288-.251-.521-.56-.521Zm2.25 0h-.38c-.309 0-.56.233-.56.521v.458c0 .288.251.521.56.521h.38c.309 0 .56-.233.56-.521v-.458c0-.288-.251-.521-.56-.521Zm2.25 0h-.38c-.309 0-.56.233-.56.521v.458c0 .288.251.521.56.521h.38c.309 0 .56-.233.56-.521v-.458c0-.288-.251-.521-.56-.521Zm2.25 0h-.38c-.309 0-.56.233-.56.521v.458c0 .288.251.521.56.521h.38c.309 0 .56-.233.56-.521v-.458c0-.288-.251-.521-.56-.521Zm2.25 0h-.38c-.309 0-.56.233-.56.521v.458c0 .288.251.521.56.521h.38c.309 0 .56-.233.56-.521v-.458c0-.288-.251-.521-.56-.521Zm2.25 0h-.38c-.309 0-.56.233-.56.521v.458c0 .288.251.521.56.521h.38c.309 0 .56-.233.56-.521v-.458c0-.288-.251-.521-.56-.521Zm2.25 0h-.38c-.309 0-.56.233-.56.521v.458c0 .288.251.521.56.521h.38c.309 0 .56-.233.56-.521v-.458c0-.288-.251-.521-.56-.521Zm2.25 0h-.38c-.309 0-.56.233-.56.521v.458c0 .288.251.521.56.521h.38c.309 0 .56-.233.56-.521v-.458c0-.288-.251-.521-.56-.521Zm-18.75 3h-.38c-.309 0-.56.233-.56.521v.458c0 .288.251.521.56.521h.38c.309 0 .56-.233.56-.521v-.458c0-.288-.251-.521-.56-.521Zm0 2.25h-.38c-.309 0-.56.233-.56.521v.458c0 .288.251.521.56.521h.38c.309 0 .56-.233.56-.521v-.458c0-.288-.251-.521-.56-.521Zm0 2.25h-.38c-.309 0-.56.233-.56.521v.458c0 .288.251.521.56.521h.38c.309 0 .56-.233.56-.521v-.458C3 9.233 2.749 9 2.44 9Zm0 2.25h-.38c-.309 0-.56.233-.56.521v.458c0 .288.251.521.56.521h.38c.309 0 .56-.233.56-.521v-.458c0-.288-.251-.521-.56-.521Zm0 2.25h-.38c-.309 0-.56.233-.56.521v.458c0 .288.251.521.56.521h.38c.309 0 .56-.233.56-.521v-.458c0-.288-.251-.521-.56-.521Zm0 2.25h-.38c-.309 0-.56.233-.56.521v.458c0 .288.251.521.56.521h.38c.309 0 .56-.233.56-.521v-.458c0-.288-.251-.521-.56-.521Zm0 2.25h-.38c-.309 0-.56.233-.56.521v.458c0 .288.251.521.56.521h.38c.309 0 .56-.233.56-.521v-.458c0-.288-.251-.521-.56-.521Zm19.5-13.5h-.38c-.309 0-.56.233-.56.521v.458c0 .288.251.521.56.521h.38c.309 0 .56-.233.56-.521v-.458c0-.288-.251-.521-.56-.521Zm0 2.25h-.38c-.309 0-.56.233-.56.521v.458c0 .288.251.521.56.521h.38c.309 0 .56-.233.56-.521v-.458c0-.288-.251-.521-.56-.521Zm0 2.25h-.38c-.309 0-.56.233-.56.521v.458c0 .288.251.521.56.521h.38c.309 0 .56-.233.56-.521v-.458c0-.288-.251-.521-.56-.521Zm0 2.25h-.38c-.309 0-.56.233-.56.521v.458c0 .288.251.521.56.521h.38c.309 0 .56-.233.56-.521v-.458c0-.288-.251-.521-.56-.521Zm0 2.25h-.38c-.309 0-.56.233-.56.521v.458c0 .288.251.521.56.521h.38c.309 0 .56-.233.56-.521v-.458c0-.288-.251-.521-.56-.521Zm0 2.25h-.38c-.309 0-.56.233-.56.521v.458c0 .288.251.521.56.521h.38c.309 0 .56-.233.56-.521v-.458c0-.288-.251-.521-.56-.521Zm0 2.25h-.38c-.309 0-.56.233-.56.521v.458c0 .288.251.521.56.521h.38c.309 0 .56-.233.56-.521v-.458c0-.288-.251-.521-.56-.521Z"/>
  <path fill-rule="evenodd" d="M8.529 8.25a.279.279 0 0 0-.279.279v6.942a.28.28 0 0 0 .279.279h6.942a.279.279 0 0 0 .279-.279V8.53a.279.279 0 0 0-.279-.279H8.53Zm-1.779.279c0-.983.796-1.779 1.779-1.779h6.942c.983 0 1.779.796 1.779 1.779v6.942c0 .983-.796 1.779-1.779 1.779H8.53a1.779 1.779 0 0 1-1.779-1.779V8.53Z" clip-rule="evenodd"/>
</svg>
