<svg xmlns="http://www.w3.org/2000/svg" width="25" height="24" fill="currentColor" viewBox="0 0 25 24">
  <path d="M13.9 1.508A1.5 1.5 0 0 1 15.247 3v.75h2.25A2.25 2.25 0 0 1 19.747 6v4.5a.75.75 0 0 1-1.5 0V6a.75.75 0 0 0-.75-.75h-2.25V6l-.008.153a1.5 1.5 0 0 1-1.34 1.34l-.152.007h-4.5l-.153-.008A1.5 1.5 0 0 1 7.747 6v-.75h-2.25a.75.75 0 0 0-.75.75v14.25c0 .414.336.75.75.75h4.5a.75.75 0 0 1 0 1.5h-4.5a2.25 2.25 0 0 1-2.25-2.25V6a2.25 2.25 0 0 1 2.25-2.25h2.25V3a1.5 1.5 0 0 1 1.347-1.492l.153-.008h4.5l.153.008Zm4.038 11.183a2.388 2.388 0 0 1 3.361 0c.93.93.93 2.43 0 3.36l-5.747 5.744a.726.726 0 0 1-.345.195l-1.823.457c-.127.03-.248.045-.375.045v.008c-.398 0-.78-.158-1.066-.442a1.486 1.486 0 0 1-.398-1.44h-.007l.457-1.822a.718.718 0 0 1 .196-.345l5.747-5.76Zm2.303 1.066a.87.87 0 0 0-1.238 0L13.4 19.358l-.406 1.62v.007l1.65-.397 5.598-5.594a.883.883 0 0 0 0-1.237ZM9.247 6h4.5V3h-4.5v3Z"/>
</svg>
