<svg xmlns="http://www.w3.org/2000/svg" width="24" height="24" fill="currentColor" viewBox="0 0 24 24">
  <path d="M14.403 1.508A1.5 1.5 0 0 1 15.75 3v.75H18A2.25 2.25 0 0 1 20.25 6v4.5a.75.75 0 0 1-1.5 0V6a.75.75 0 0 0-.75-.75h-2.25V6l-.008.153a1.5 1.5 0 0 1-1.339 1.34l-.153.007h-4.5l-.153-.008A1.5 1.5 0 0 1 8.25 6v-.75H6a.75.75 0 0 0-.75.75v14.25c0 .414.336.75.75.75h4.5a.75.75 0 0 1 0 1.5H6a2.25 2.25 0 0 1-2.25-2.25V6A2.25 2.25 0 0 1 6 3.75h2.25V3a1.5 1.5 0 0 1 1.347-1.492L9.75 1.5h4.5l.153.008ZM17.25 12a5.25 5.25 0 1 1 0 10.5A5.25 5.25 0 0 1 12 17.25 5.25 5.25 0 0 1 17.25 12Zm0 1.5a3.75 3.75 0 1 0-.001 7.499 3.75 3.75 0 0 0 .001-7.499Zm.934 1.759a.75.75 0 0 1 1.221.856l-.04.066-2.103 3a.75.75 0 0 1-1.23-.002l-.897-1.288a.75.75 0 0 1 1.23-.858l.283.407 1.488-2.12.048-.061ZM9.75 6h4.5V3h-4.5v3Z"/>
</svg>
