<svg xmlns="http://www.w3.org/2000/svg" width="24" height="24" fill="currentColor" viewBox="0 0 24 24">
  <path fill-rule="evenodd" d="M12.75 1.714h.002l8.141 4.763a.746.746 0 0 1 .082.041c1.039.6 1.026 2.101.007 2.703l-8.168 4.815a1.537 1.537 0 0 1-1.564 0h-.002L3.025 9.225l-.002-.001C1.986 8.623 2 7.124 3.018 6.522l.002-.001 8.166-4.807a1.537 1.537 0 0 1 1.564 0Zm7.484 6.115a.943.943 0 0 1-.013-.007L11.99 3.006A.04.04 0 0 0 11.97 3a.04.04 0 0 0-.02.006L3.781 7.813a.056.056 0 0 0-.023.022.083.083 0 0 0-.009.04c0 .016.004.028.008.035a.04.04 0 0 0 .017.016l.004.002 8.232 4.816a.04.04 0 0 0 .02.006.04.04 0 0 0 .02-.006l8.167-4.814a.057.057 0 0 0 .023-.022.083.083 0 0 0 .009-.04.078.078 0 0 0-.008-.035.81.81 0 0 1-.008-.004Zm-.885 6.787a.75.75 0 0 1 1.028-.26l.58.346c1.03.605 1.016 2.107.003 2.713h-.001l-8.167 4.867a1.53 1.53 0 0 1-1.57.001h-.002l-8.223-4.864-.002-.001c-1.033-.606-1.019-2.108-.005-2.715l.583-.347a.75.75 0 0 1 .768 1.288l-.581.347a.06.06 0 0 0-.024.024.1.1 0 0 0-.011.047c0 .02.005.034.01.043a.045.045 0 0 0 .018.019l.004.002 8.232 4.868a.034.034 0 0 0 .017.006c.004 0 .01 0 .018-.006l8.166-4.867a.061.061 0 0 0 .024-.024.1.1 0 0 0 .011-.047.094.094 0 0 0-.01-.043.045.045 0 0 0-.018-.018l-.006-.004-.582-.347a.75.75 0 0 1-.26-1.028Zm1.017-4.107a.75.75 0 0 0-.689 1.332l.516.267-8.068 4.305a.139.139 0 0 1-.057.012.11.11 0 0 1-.05-.01L3.82 12.18l.514-.272a.75.75 0 1 0-.7-1.326l-.582.307a1.445 1.445 0 0 0 .013 2.589l8.255 4.267a1.636 1.636 0 0 0 1.495 0l8.145-4.346h.001a1.445 1.445 0 0 0-.014-2.589l-.582-.3Z" clip-rule="evenodd"/>
</svg>
