<svg xmlns="http://www.w3.org/2000/svg" width="24" height="24" fill="currentColor" viewBox="0 0 24 24">
  <path fill-rule="evenodd" d="M1.5 12c0-6.054 5.174-10.882 11.297-10.5 2.986.19 5.497 1.694 7.287 3.838 1.39 1.65 2.277 3.556 2.415 5.865.262 4.27-1.997 8.276-5.503 10.16v-.002c-2.594 1.401-5.746-.478-5.746-3.429v-.756c-1.687-.33-3-1.754-3-3.519v-.937c-.84-.148-1.5-.864-1.5-1.761v-.17C6.75 9.782 7.584 9 8.569 9H9.75V6.75a.75.75 0 0 1 1.5 0V9h1.5V6.75a.75.75 0 0 1 1.5 0V9h1.181c.985 0 1.819.782 1.819 1.79v.17c0 .896-.66 1.613-1.5 1.76v.938c0 1.765-1.313 3.189-3 3.52v.755c0 1.817 1.941 2.972 3.534 2.11l.002-.001c2.976-1.599 4.943-5.044 4.715-8.746v-.002c-.115-1.942-.85-3.548-2.064-4.988l-.002-.003c-1.57-1.881-3.718-3.145-6.233-3.305C7.43 2.668 3 6.825 3 12c0 3.788 2.241 6.957 5.534 8.305a.75.75 0 0 1-.568 1.39C4.119 20.118 1.5 16.406 1.5 12Zm8.25 1.658c0 1.116.97 2.092 2.25 2.092s2.25-.976 2.25-2.092v-.908h-4.5v.908ZM8.569 10.5c-.196 0-.319.149-.319.29v.17c0 .14.123.29.319.29h6.862c.196 0 .319-.15.319-.29v-.17c0-.141-.123-.29-.319-.29H8.57Z" clip-rule="evenodd"/>
</svg>
