<svg xmlns="http://www.w3.org/2000/svg" width="24" height="24" fill="currentColor" viewBox="0 0 24 24">
  <path d="M7.225 12.75c.509 0 .98.277 1.234.727l1.725 3.046c.255.45.255 1.004 0 1.454L8.46 21.023a1.42 1.42 0 0 1-1.234.727h-3.45a1.42 1.42 0 0 1-1.233-.727L.816 17.977a1.479 1.479 0 0 1 0-1.454l1.726-3.046a1.42 1.42 0 0 1 1.233-.727h3.45Zm-5.176 4.5 1.726 3.048h3.45l1.726-3.048-1.726-3.048h-3.45L2.049 17.25Zm16.551-9c.509 0 .98.277 1.233.727l1.726 3.046c.255.45.255 1.004 0 1.454l-1.726 3.046a1.42 1.42 0 0 1-1.233.727h-3.45a1.42 1.42 0 0 1-1.234-.727l-1.725-3.046a1.479 1.479 0 0 1 0-1.454l1.725-3.046a1.42 1.42 0 0 1 1.234-.727h3.45Zm-5.176 4.5 1.726 3.048h3.45l1.726-3.048L18.6 9.702h-3.45l-1.726 3.048ZM9.6 2.25c.509 0 .98.277 1.234.727l1.725 3.046c.255.45.255 1.004 0 1.454l-1.725 3.046a1.42 1.42 0 0 1-1.234.727H6.15a1.42 1.42 0 0 1-1.234-.727L3.192 7.477a1.479 1.479 0 0 1 0-1.454l1.726-3.046A1.42 1.42 0 0 1 6.15 2.25H9.6Zm-5.176 4.5L6.15 9.798H9.6l1.726-3.048L9.6 3.702H6.15L4.424 6.75Z"/>
</svg>
