<svg xmlns="http://www.w3.org/2000/svg" width="24" height="24" fill="currentColor" viewBox="0 0 24 24">
  <path fill-rule="evenodd" d="M19.98 4.63c-1.13-.327-4.1-1.282-7.333-3.012a1.378 1.378 0 0 0-1.326 0 39.597 39.597 0 0 1-7.325 3.018c-.594.17-1.046.702-1.046 1.351v8.386c0 1.145.517 2.184 1.218 3.072.703.891 1.636 1.689 2.582 2.366 1.894 1.356 3.957 2.311 4.678 2.627l.013.005c.352.147.742.147 1.095 0l.013-.006c.717-.315 2.78-1.27 4.674-2.626.947-.677 1.88-1.474 2.584-2.366.701-.887 1.219-1.927 1.219-3.072V5.98c0-.663-.465-1.175-1.037-1.348l-.009-.002Zm-8.66-3.011a.183.183 0 0 0-.004.002l.364.656-.356-.66-.003.002ZM4.45 6.066a41.122 41.122 0 0 0 7.535-3.101c3.304 1.761 6.328 2.742 7.541 3.095v8.313c0 .682-.31 1.401-.896 2.143-.583.739-1.394 1.442-2.28 2.075-1.734 1.24-3.643 2.136-4.362 2.455-.72-.318-2.63-1.213-4.365-2.455-.885-.633-1.695-1.336-2.277-2.075-.586-.741-.896-1.46-.896-2.143V6.066Zm8.604.61c-.365-.974-1.743-.974-2.108 0L9.99 9.235l-2.727.119c-1.04.045-1.466 1.356-.651 2.004l2.136 1.7-.73 2.63c-.278 1.003.838 1.813 1.706 1.24L12 15.418l2.277 1.507c.867.574 1.982-.236 1.705-1.239l-.73-2.63 2.136-1.7c.815-.648.389-1.959-.65-2.004l-2.728-.12-.956-2.556Zm-1.746 3.316L12 8.142l.692 1.85c.158.422.553.71 1.004.73l1.974.086-1.546 1.23a1.125 1.125 0 0 0-.384 1.18l.528 1.904-1.647-1.09a1.125 1.125 0 0 0-1.242 0l-1.647 1.09.528-1.904c.12-.435-.03-.9-.384-1.18l-1.546-1.23 1.974-.087c.45-.02.846-.307 1.004-.73Z" clip-rule="evenodd"/>
</svg>
