<svg xmlns="http://www.w3.org/2000/svg" width="24" height="24" fill="currentColor" viewBox="0 0 24 24">
  <path fill-rule="evenodd" d="M12.647 1.618c3.234 1.73 6.202 2.685 7.333 3.012l.009.002c.572.173 1.037.685 1.037 1.348v8.393c0 1.145-.518 2.185-1.22 3.072-.703.892-1.636 1.689-2.583 2.366-1.895 1.356-3.957 2.311-4.674 2.627l-.014.005a1.415 1.415 0 0 1-1.095 0l-.012-.005c-.721-.316-2.784-1.271-4.678-2.627-.946-.677-1.88-1.475-2.582-2.366-.7-.888-1.218-1.928-1.218-3.072V5.987c0-.65.452-1.182 1.046-1.35a39.595 39.595 0 0 0 7.328-3.02l.356.66-.364-.656c.413-.23.917-.23 1.33-.003Zm-.662 1.347A41.123 41.123 0 0 1 4.45 6.066v8.307c0 .683.31 1.402.895 2.143.583.739 1.393 1.442 2.278 2.075 1.734 1.241 3.645 2.137 4.365 2.454.719-.318 2.628-1.213 4.362-2.454.885-.633 1.697-1.336 2.28-2.075.585-.742.896-1.46.896-2.143V6.06c-1.213-.353-4.237-1.334-7.541-3.095Z" clip-rule="evenodd"/>
  <path fill-rule="evenodd" d="M10.946 6.677c.365-.975 1.743-.975 2.108 0l.956 2.557 2.727.119c1.04.045 1.466 1.356.651 2.004l-2.136 1.7.73 2.63c.277 1.003-.838 1.813-1.706 1.239L12 15.419l-2.277 1.507c-.867.574-1.983-.236-1.705-1.239l.73-2.63-2.136-1.7c-.815-.648-.389-1.959.65-2.004l2.728-.12.956-2.556ZM12 8.14l-.692 1.85c-.158.423-.553.71-1.005.73l-1.973.087 1.546 1.23c.353.28.504.745.384 1.18l-.528 1.904 1.647-1.09c.377-.25.865-.25 1.242 0l1.647 1.09-.528-1.904c-.12-.435.03-.9.384-1.18l1.546-1.23-1.974-.087a1.125 1.125 0 0 1-1.004-.73L12 8.141Z" clip-rule="evenodd"/>
</svg>
