<svg xmlns="http://www.w3.org/2000/svg" width="24" height="24" fill="currentColor" viewBox="0 0 24 24">
  <path fill-rule="evenodd" d="M4.381 7.5C3.614 7.5 3 8.117 3 8.868v9.263c0 .752.614 1.369 1.381 1.369H19.62c.767 0 1.381-.617 1.381-1.369V8.868c0-.751-.614-1.368-1.381-1.368H4.38ZM1.5 8.868A2.875 2.875 0 0 1 4.381 6H19.62a2.875 2.875 0 0 1 2.88 2.868v9.263A2.875 2.875 0 0 1 19.619 21H4.38a2.875 2.875 0 0 1-2.88-2.869V8.868Z" clip-rule="evenodd"/>
  <path fill-rule="evenodd" d="M11 4.5c-.692 0-1.25.558-1.25 1.25v1a.75.75 0 0 1-1.5 0v-1C8.25 4.229 9.48 3 11 3h2c1.52 0 2.75 1.229 2.75 2.75v1a.75.75 0 0 1-1.5 0v-1c0-.692-.558-1.25-1.25-1.25h-2Zm-8.75 6a.75.75 0 0 1 .75.75c0 1.19 1.06 2.25 2.501 2.25H18.5c1.44 0 2.501-1.06 2.501-2.25a.75.75 0 0 1 1.5 0c0 2.13-1.85 3.75-4.001 3.75h-13c-2.15 0-4-1.62-4-3.75a.75.75 0 0 1 .75-.75Z" clip-rule="evenodd"/>
</svg>
