<svg xmlns="http://www.w3.org/2000/svg" width="24" height="24" fill="currentColor" viewBox="0 0 24 24">
  <path fill-rule="evenodd" d="M7.032 8.476C7.185 5.834 9.355 3.75 12 3.75a4.977 4.977 0 0 1 4.624 3.163c-.457.138-.85.346-1.186.591a.75.75 0 1 0 .886 1.211c.37-.271.871-.485 1.597-.485.737 0 1.505.374 2.105 1.024.597.647.974 1.514.974 2.4 0 1.26-.284 2.295-.785 2.994-.478.669-1.187 1.082-2.215 1.082a.75.75 0 0 0 0 1.5c1.506 0 2.672-.643 3.435-1.709.741-1.035 1.065-2.412 1.065-3.866 0-1.305-.549-2.526-1.372-3.418-.769-.833-1.824-1.428-2.974-1.5C17.31 4.138 14.878 2.25 12 2.25c-3.411 0-6.196 2.65-6.456 6.009-.437 0-.844.08-1.241.24A4.48 4.48 0 0 0 1.5 12.624c0 2.494 1.968 4.606 4.502 4.606a.75.75 0 0 0 0-1.5C4.346 15.73 3 14.34 3 12.624a2.98 2.98 0 0 1 1.862-2.733c.358-.144.75-.188 1.336-.045a.74.74 0 0 0 .04.008l.54.1A.75.75 0 1 0 7.05 8.48l-.019-.003Zm2.718 8.119v3.56c1.383.127 3.122.127 4.5 0v-3.56a26.748 26.748 0 0 0-4.5 0Zm5.229-1.418A.75.75 0 0 0 15 15v-.557c0-.873-.332-1.654-.856-2.232l-.004-.004A2.896 2.896 0 0 0 12 11.25c-1.71 0-3 1.49-3 3.193V15c0 .061.007.12.021.178a1.068 1.068 0 0 0-.771 1.027v4.34c0 .513.366.982.913 1.057l.015.002c1.68.195 3.972.195 5.644 0l.02-.003c.522-.074.908-.529.908-1.056v-4.34c0-.467-.304-.898-.771-1.028Zm-1.478-.139A.697.697 0 0 1 13.5 15v-.557c0-.483-.182-.908-.465-1.222A1.397 1.397 0 0 0 12 12.75c-.769 0-1.5.701-1.5 1.693V15l-.001.038c.973-.05 2.028-.05 3.002 0Z" clip-rule="evenodd"/>
</svg>
