<svg xmlns="http://www.w3.org/2000/svg" width="24" height="24" fill="currentColor" viewBox="0 0 24 24">
  <path fill-rule="evenodd" d="M5.25 4.122C5.25 3.492 5.755 3 6.332 3h12.086c.577 0 1.082.492 1.082 1.122V9.75a.75.75 0 0 0 1.5 0V4.122C21 2.695 19.854 1.5 18.418 1.5H6.332C4.896 1.5 3.75 2.695 3.75 4.122V6H3a.75.75 0 0 0 0 1.5h3A.75.75 0 0 0 6 6h-.75V4.122Zm0 15.34a.75.75 0 0 0-1.5 0v.416c0 1.427 1.146 2.622 2.582 2.622h4.918a.75.75 0 0 0 0-1.5H6.332c-.577 0-1.082-.492-1.082-1.122v-.416Zm0-5.212a.75.75 0 0 0-1.5 0v2.25H3A.75.75 0 0 0 3 18h3a.75.75 0 0 0 0-1.5h-.75v-2.25Zm-2.25-3a.75.75 0 0 0 0 1.5h3a.75.75 0 0 0 0-1.5h-.75V9a.75.75 0 0 0-1.5 0v2.25H3Zm15 2.25c-.769 0-1.5.701-1.5 1.693v.557a.8.8 0 0 1 0 .038c.971-.05 2.027-.05 3.001 0a.697.697 0 0 1-.001-.038v-.557c0-.483-.182-.908-.465-1.222A1.397 1.397 0 0 0 18 13.5Zm2.979 2.427A.755.755 0 0 0 21 15.75v-.557c0-.873-.332-1.654-.856-2.232l-.004-.004A2.896 2.896 0 0 0 18 12c-1.71 0-3 1.49-3 3.193v.557c0 .061.007.12.021.178a1.068 1.068 0 0 0-.771 1.027v4.34c0 .513.366.982.913 1.057l.015.002c1.68.195 3.972.195 5.644 0l.02-.003c.522-.074.908-.529.908-1.056v-4.34c0-.467-.304-.898-.771-1.028Zm-5.229 4.978v-3.56a26.748 26.748 0 0 1 4.5 0v3.56a26.748 26.748 0 0 1-4.5 0Z" clip-rule="evenodd"/>
</svg>
