<svg xmlns="http://www.w3.org/2000/svg" width="24" height="24" fill="currentColor" viewBox="0 0 24 24">
  <path fill-rule="evenodd" d="M4.5 4.122C4.5 3.492 5.005 3 5.582 3h12.086c.577 0 1.082.492 1.082 1.122V9.75a.75.75 0 0 0 1.5 0V4.122c0-1.427-1.146-2.622-2.582-2.622H5.582C4.146 1.5 3 2.695 3 4.122V6h-.75a.75.75 0 0 0 0 1.5h3a.75.75 0 0 0 0-1.5H4.5V4.122Zm0 15.34a.75.75 0 0 0-1.5 0v.416C3 21.305 4.146 22.5 5.582 22.5H9.75a.75.75 0 0 0 0-1.5H5.582c-.577 0-1.082-.492-1.082-1.122v-.416ZM2.25 11.25a.75.75 0 0 0 0 1.5h3a.75.75 0 0 0 0-1.5H4.5V9A.75.75 0 0 0 3 9v2.25h-.75Zm0 5.25a.75.75 0 0 0 0 1.5h3a.75.75 0 0 0 0-1.5H4.5v-2.25a.75.75 0 0 0-1.5 0v2.25h-.75Zm9.75.75a5.25 5.25 0 1 1 5.25 5.25A5.25 5.25 0 0 1 12 17.25Zm5.25-3.75a3.75 3.75 0 1 0-.001 7.499 3.75 3.75 0 0 0 .001-7.499Zm2.114 2.68a.75.75 0 0 0-1.228-.86l-1.487 2.12-.284-.407a.75.75 0 1 0-1.23.858l.897 1.288a.75.75 0 0 0 1.23.001l2.102-3Z" clip-rule="evenodd"/>
</svg>
