<svg xmlns="http://www.w3.org/2000/svg" width="24" height="24" fill="currentColor" viewBox="0 0 24 24">
  <path fill-rule="evenodd" d="M3 12a.75.75 0 0 1 .75-.75h3a.75.75 0 0 1 0 1.5h-3A.75.75 0 0 1 3 12Z" clip-rule="evenodd"/>
  <path fill-rule="evenodd" d="M5.25 8.25A.75.75 0 0 1 6 9v3a.75.75 0 0 1-1.5 0V9a.75.75 0 0 1 .75-.75ZM3 6.75A.75.75 0 0 1 3.75 6h3a.75.75 0 0 1 0 1.5h-3A.75.75 0 0 1 3 6.75Zm0 10.5a.75.75 0 0 1 .75-.75h3a.75.75 0 0 1 0 1.5h-3a.75.75 0 0 1-.75-.75Z" clip-rule="evenodd"/>
  <path fill-rule="evenodd" d="M5.25 13.5a.75.75 0 0 1 .75.75v2.25a.75.75 0 0 1-1.5 0v-2.25a.75.75 0 0 1 .75-.75Zm3-3.75A.75.75 0 0 1 9 9h2.25a.75.75 0 0 1 0 1.5H9a.75.75 0 0 1-.75-.75Zm0 6.75a.75.75 0 0 1 .75-.75h2.25a.75.75 0 0 1 0 1.5H9a.75.75 0 0 1-.75-.75Zm0-2.25A.75.75 0 0 1 9 13.5h2.25a.75.75 0 0 1 0 1.5H9a.75.75 0 0 1-.75-.75Zm0-6.75A.75.75 0 0 1 9 6.75h2.25a.75.75 0 0 1 0 1.5H9a.75.75 0 0 1-.75-.75Z" clip-rule="evenodd"/>
  <path fill-rule="evenodd" d="M7.082 3C6.505 3 6 3.492 6 4.122v2.503a.75.75 0 0 1-1.5 0V4.122C4.5 2.695 5.646 1.5 7.082 1.5h12.086c1.436 0 2.582 1.195 2.582 2.622v15.756c0 1.427-1.146 2.622-2.582 2.622H7.082c-1.436 0-2.582-1.195-2.582-2.622v-.416a.75.75 0 0 1 1.5 0v.416C6 20.508 6.505 21 7.082 21h12.086c.577 0 1.082-.492 1.082-1.122V4.122c0-.63-.505-1.122-1.082-1.122H7.082Z" clip-rule="evenodd"/>
  <path fill-rule="evenodd" d="M14.3 6.75a.05.05 0 0 0-.05.05v2.9c0 .028.022.05.05.05h2.9a.05.05 0 0 0 .05-.05V6.8a.05.05 0 0 0-.05-.05h-2.9Zm-1.55.05c0-.856.694-1.55 1.55-1.55h2.9c.856 0 1.55.694 1.55 1.55v2.9a1.55 1.55 0 0 1-1.55 1.55h-2.9a1.55 1.55 0 0 1-1.55-1.55V6.8Zm1.55 7.45a.05.05 0 0 0-.05.05v2.9c0 .028.022.05.05.05h2.9a.05.05 0 0 0 .05-.05v-2.9a.05.05 0 0 0-.05-.05h-2.9Zm-1.55.05c0-.856.694-1.55 1.55-1.55h2.9c.856 0 1.55.694 1.55 1.55v2.9a1.55 1.55 0 0 1-1.55 1.55h-2.9a1.55 1.55 0 0 1-1.55-1.55v-2.9Z" clip-rule="evenodd"/>
</svg>
