<svg xmlns="http://www.w3.org/2000/svg" width="24" height="24" fill="currentColor" viewBox="0 0 24 24">
  <path fill-rule="evenodd" d="M9 1.5A1.5 1.5 0 0 0 7.5 3v.75H3.408A1.902 1.902 0 0 0 1.5 5.644v4.462C1.5 11.167 2.37 12 3.408 12h.637l-.282.256a.62.62 0 0 0 .03.968c.317.26.82.25 1.12-.025l1.631-1.482a.619.619 0 0 0 0-.943l-1.63-1.482a.884.884 0 0 0-1.122-.025.62.62 0 0 0-.029.968l.34.31h-.695a.451.451 0 0 1-.462-.44v-4.46c0-.227.192-.44.462-.44H7.5V6A1.5 1.5 0 0 0 9 7.5h6A1.5 1.5 0 0 0 16.5 6V3A1.5 1.5 0 0 0 15 1.5H9ZM9 3h6v3H9V3Zm12 10.144a.432.432 0 0 0-.423-.438H16.5v.794A1.5 1.5 0 0 1 15 15H9a1.5 1.5 0 0 1-1.5-1.5v-3A1.5 1.5 0 0 1 9 9h6a1.5 1.5 0 0 1 1.5 1.5v.75h4.077a1.91 1.91 0 0 1 1.923 1.894v4.462a1.91 1.91 0 0 1-1.923 1.894h-.667l.293.28c.3.285.288.737-.029 1.009a.85.85 0 0 1-1.116-.026l-1.58-1.506a.666.666 0 0 1 0-.983l1.58-1.506a.85.85 0 0 1 1.117-.026.667.667 0 0 1 .028 1.01l-.306.292h.68c.216 0 .423-.18.423-.438v-4.462ZM15 10.5H9v3h6v-3Zm-6 6A1.5 1.5 0 0 0 7.5 18v3A1.5 1.5 0 0 0 9 22.5h6a1.5 1.5 0 0 0 1.5-1.5v-3a1.5 1.5 0 0 0-1.5-1.5H9ZM9 18h6v3H9v-3Z" clip-rule="evenodd"/>
</svg>
