<svg xmlns="http://www.w3.org/2000/svg" width="24" height="24" fill="currentColor" viewBox="0 0 24 24">
  <path fill-rule="evenodd" d="M15 16.5a1.5 1.5 0 0 1 1.5 1.5v3a1.5 1.5 0 0 1-1.5 1.5H9a1.5 1.5 0 0 1-1.492-1.347L7.5 21v-3A1.5 1.5 0 0 1 9 16.5h6ZM9 21h6v-3H9v3Z" clip-rule="evenodd"/>
  <path fill-rule="evenodd" d="M15 9a1.5 1.5 0 0 1 1.5 1.5v.75h4.077c1.125 0 1.923.98 1.923 2.038v4.924c0 1.058-.798 2.038-1.923 2.038h-.767l.22.22a.75.75 0 0 1-1.06 1.06l-1.5-1.5a.75.75 0 0 1 0-1.06l1.5-1.5.057-.051a.75.75 0 0 1 1.054 1.054l-.05.057-.22.22h.766c.169 0 .423-.174.423-.538v-4.924c0-.364-.254-.538-.423-.538H16.5v.75A1.5 1.5 0 0 1 15 15H9a1.5 1.5 0 0 1-1.492-1.347L7.5 13.5v-3A1.5 1.5 0 0 1 9 9h6Zm-6 4.5h6v-3H9v3Z" clip-rule="evenodd"/>
  <path fill-rule="evenodd" d="M15 1.5A1.5 1.5 0 0 1 16.5 3v3A1.5 1.5 0 0 1 15 7.5H9a1.5 1.5 0 0 1-1.492-1.347L7.5 6v-.75H3.423c-.169 0-.423.174-.423.538v4.924c0 .364.254.538.423.538h.766l-.22-.22-.05-.057a.75.75 0 0 1 1.054-1.055l.057.052 1.5 1.5a.75.75 0 0 1 0 1.06l-1.5 1.5a.75.75 0 1 1-1.06-1.06l.22-.22h-.767c-1.125 0-1.923-.98-1.923-2.038V5.788c0-1.058.798-2.038 1.923-2.038H7.5V3A1.5 1.5 0 0 1 9 1.5h6ZM9 6h6V3H9v3Z" clip-rule="evenodd"/>
</svg>
