<svg xmlns="http://www.w3.org/2000/svg" width="24" height="24" fill="currentColor" viewBox="0 0 24 24">
  <path d="M17.25 12a5.25 5.25 0 1 1 0 10.5 5.25 5.25 0 1 1 0-10.5ZM2.775 14.35a.75.75 0 0 1 .75 1.298l-.504.292 7.508 4.307a.759.759 0 0 1 .102-.048l.364-.138a.75.75 0 0 1 .532 1.403l-.322.122c-.448.23-.982.216-1.42-.037l-7.542-4.325h.001c-.998-.57-.983-1.997-.003-2.565l.534-.309Zm14.475-.85a3.75 3.75 0 1 0-.001 7.499 3.75 3.75 0 0 0 .001-7.5Zm1.06 1.628a.75.75 0 0 1 1.061 1.06l-1.061 1.06 1.061 1.062a.75.75 0 1 1-1.06 1.06l-1.06-1.06-1.061 1.06a.75.75 0 0 1-1.061-1.06l1.06-1.061-1.06-1.06a.75.75 0 0 1 1.06-1.061l1.061 1.06 1.06-1.06ZM2.8 9.915a.75.75 0 1 1 .736 1.307l-.499.28 7.697 4.245a.75.75 0 1 1-.724 1.312l-7.743-4.267a1.467 1.467 0 0 1-.012-2.57l.545-.307Zm6.919-8.206a1.459 1.459 0 0 1 1.505 0v-.001l7.469 4.447a.75.75 0 0 1 .072.038c.987.581.973 2.02.006 2.603h-.001l-7.486 4.493a1.46 1.46 0 0 1-1.507.002L2.234 8.798l-.173-.12c-.806-.64-.737-1.936.17-2.482l7.487-4.487ZM3.003 7.48l.001.001L3 7.5l.001.01 7.527 4.484 7.468-4.482c.001-.003.004-.009.004-.017V7.49l-7.528-4.484L3.003 7.48Z"/>
</svg>
