<svg xmlns="http://www.w3.org/2000/svg" width="24" height="24" fill="currentColor" viewBox="0 0 24 24">
  <path fill-rule="evenodd" d="M3.408 5.206a.451.451 0 0 0-.462.438v4.462c0 .226.192.438.462.438h1.467c.4 0 .723.326.723.728a.726.726 0 0 1-.723.728H3.408A1.902 1.902 0 0 1 1.5 10.106V5.644c0-1.061.87-1.894 1.908-1.894h4.119c.4 0 .723.326.723.728a.726.726 0 0 1-.723.728h-4.12Z" clip-rule="evenodd"/>
  <path fill-rule="evenodd" d="M3.792 9.267a.884.884 0 0 1 1.122.025l1.63 1.482a.62.62 0 0 1 0 .943l-1.63 1.482a.885.885 0 0 1-1.122.025.621.621 0 0 1-.029-.968l1.112-1.01-1.112-1.011a.62.62 0 0 1 .03-.968Zm16.785 3.439c.216 0 .423.18.423.438v4.462a.432.432 0 0 1-.423.438h-1.452a.74.74 0 0 0-.75.728.74.74 0 0 0 .75.728h1.452a1.91 1.91 0 0 0 1.923-1.894v-4.462a1.91 1.91 0 0 0-1.923-1.894H16.5a.74.74 0 0 0-.75.728.74.74 0 0 0 .75.728h4.077Z" clip-rule="evenodd"/>
  <path fill-rule="evenodd" d="M20.175 16.742a.85.85 0 0 0-1.117.026l-1.58 1.506a.666.666 0 0 0 0 .983l1.58 1.506c.3.286.8.297 1.116.026a.667.667 0 0 0 .03-1.01l-1.065-1.013 1.064-1.014a.667.667 0 0 0-.028-1.01ZM7.5 3A1.5 1.5 0 0 1 9 1.5h6A1.5 1.5 0 0 1 16.5 3v3A1.5 1.5 0 0 1 15 7.5H9A1.5 1.5 0 0 1 7.5 6V3ZM15 3H9v3h6V3Zm-7.5 7.5A1.5 1.5 0 0 1 9 9h6a1.5 1.5 0 0 1 1.5 1.5v3A1.5 1.5 0 0 1 15 15H9a1.5 1.5 0 0 1-1.5-1.5v-3Zm7.5 0H9v3h6v-3ZM7.5 18A1.5 1.5 0 0 1 9 16.5h6a1.5 1.5 0 0 1 1.5 1.5v3a1.5 1.5 0 0 1-1.5 1.5H9A1.5 1.5 0 0 1 7.5 21v-3Zm7.5 0H9v3h6v-3Z" clip-rule="evenodd"/>
</svg>
