<svg xmlns="http://www.w3.org/2000/svg" width="24" height="24" fill="currentColor" viewBox="0 0 24 24">
  <path fill-rule="evenodd" d="M7.052 19.313c.203.12.443.187.676.187h.007a1.32 1.32 0 0 0 1.14-.69l.668-1.214c.323.045.646.067.96.067.33 0 .495-.028.704-.065l.017-.002.15-.03a.753.753 0 0 0 .615-.863.744.744 0 0 0-.863-.614l-.165.03a1.89 1.89 0 0 1-.465.044 5.42 5.42 0 0 1-.855-.067 1.306 1.306 0 0 0-1.358.667l-.638 1.155-1.83-1.11.667-1.214a1.381 1.381 0 0 0-.112-1.485 6.04 6.04 0 0 1-.878-1.597 1.3 1.3 0 0 0-1.23-.877H2.985v-2.28H4.26c.54 0 1.036-.352 1.223-.87a5.7 5.7 0 0 1 .886-1.611 1.355 1.355 0 0 0 .105-1.477l-.668-1.215 1.83-1.11.638 1.155c.27.488.81.758 1.35.668a5.33 5.33 0 0 1 1.727 0 1.295 1.295 0 0 0 1.358-.668l.637-1.154 1.831 1.11-.668 1.214a1.382 1.382 0 0 0 .113 1.484 6.04 6.04 0 0 1 .878 1.597 1.3 1.3 0 0 0 1.23.878h1.193l-.27.93a.745.745 0 0 0 .51.93.746.746 0 0 0 .93-.51l.376-1.298.03-.21c0-.742-.585-1.342-1.313-1.342h-1.32a7.357 7.357 0 0 0-.999-1.814l.69-1.252a1.362 1.362 0 0 0-.472-1.815l-2.138-1.29a1.308 1.308 0 0 0-1.006-.142 1.32 1.32 0 0 0-.81.645l-.668 1.215a6.869 6.869 0 0 0-1.92 0l-.668-1.215a1.323 1.323 0 0 0-.81-.637 1.28 1.28 0 0 0-1.006.142L4.914 2.998a1.366 1.366 0 0 0-.473 1.807l.69 1.252a7.225 7.225 0 0 0-.997 1.814H2.813c-.72 0-1.313.6-1.313 1.342V11.8c0 .742.585 1.342 1.313 1.342h1.32c.248.652.586 1.26.999 1.814l-.69 1.253a1.362 1.362 0 0 0 .472 1.814l2.138 1.29Zm3.835-11.031a2.251 2.251 0 1 0 1.831 1.832v-.001a2.251 2.251 0 0 0-1.83-1.831Zm-4.086 2.847A3.755 3.755 0 0 1 11.13 6.8a3.751 3.751 0 0 1-1.26 7.4 3.75 3.75 0 0 1-3.068-3.07Zm13.249 1.11a.75.75 0 1 0-1.1 1.021l.92.991L15 14.25a.75.75 0 1 0 0 1.5l5.018.001-1.027.948A.75.75 0 1 0 20.01 17.8l2.25-2.077a.75.75 0 0 0 .04-1.061l-2.25-2.423ZM16.26 22.3a.75.75 0 0 1-1.06-.039l-2.25-2.423a.75.75 0 0 1 .041-1.061l2.25-2.077a.75.75 0 1 1 1.019 1.1l-1.027.948 5.018.001a.75.75 0 1 1 0 1.5l-4.87-.001.92.99a.75.75 0 0 1-.04 1.06Z" clip-rule="evenodd"/>
</svg>
