<svg xmlns="http://www.w3.org/2000/svg" width="25" height="24" fill="currentColor" viewBox="0 0 25 24">
  <path d="M8.171 3a.75.75 0 1 1 0 1.5H7.046a2.25 2.25 0 0 0-2.25 2.25v10.5a2.25 2.25 0 0 0 2.25 2.25h10.5a2.25 2.25 0 0 0 2.25-2.25V6.75a2.25 2.25 0 0 0-2.25-2.25h-1.125a.75.75 0 0 1 0-1.5h1.125a3.75 3.75 0 0 1 3.75 3.75v10.5a3.75 3.75 0 0 1-3.75 3.75h-10.5a3.75 3.75 0 0 1-3.75-3.75V6.75A3.75 3.75 0 0 1 7.046 3h1.125Zm7.202 13.504a.75.75 0 0 1 0 1.492l-.077.004h-6a.75.75 0 0 1 0-1.5h6l.077.004Zm1.423-2.254a.75.75 0 1 1 0 1.5h-9a.75.75 0 0 1 0-1.5h9ZM12.31 3.002c.042 0 .083.004.124.012.022.004.042.011.063.017l.056.016a.745.745 0 0 1 .096.044l.02.01a.821.821 0 0 1 .075.051c.009.007.02.011.028.018l.014.015.029.025.011.01 3.75 3.75a.75.75 0 1 1-1.06 1.06l-2.469-2.468V12a.75.75 0 0 1-1.5 0V5.559L9.077 8.03l-.057.051a.75.75 0 0 1-1.055-1.055l.05-.056 3.75-3.75.056-.05c.019-.016.04-.028.061-.042l.028-.019a.74.74 0 0 1 .076-.039l.045-.02a.748.748 0 0 1 .265-.05l.001.001.001-.001.012.002Z"/>
</svg>
