<svg xmlns="http://www.w3.org/2000/svg" width="24" height="24" fill="currentColor" viewBox="0 0 24 24">
  <path d="M12.192 16.5h-.384c-.31 0-.558.233-.558.517v.466c0 .284.249.517.558.517h.384c.31 0 .558-.233.558-.517v-.466c0-.284-.249-.517-.558-.517Z"/>
  <path fill-rule="evenodd" d="M12.108 7.504c-.863-.06-1.608.643-1.608 1.55a.75.75 0 0 1-1.5 0c0-1.732 1.438-3.17 3.212-3.047h.001c1.487.106 2.679 1.325 2.78 2.825a3.06 3.06 0 0 1-1.401 2.8 1.808 1.808 0 0 0-.845 1.534v1.084a.75.75 0 0 1-1.5 0v-1.084c0-1.146.585-2.194 1.54-2.8m-.68-2.862c.723.051 1.338.658 1.389 1.43v.003a1.56 1.56 0 0 1-.709 1.429" clip-rule="evenodd"/>
  <path fill-rule="evenodd" d="M12 21a9 9 0 1 0 0-18 9 9 0 0 0 0 18Zm0 1.5c5.799 0 10.5-4.701 10.5-10.5S17.799 1.5 12 1.5 1.5 6.201 1.5 12 6.201 22.5 12 22.5Z" clip-rule="evenodd"/>
</svg>
