<svg xmlns="http://www.w3.org/2000/svg" width="24" height="24" fill="currentColor" viewBox="0 0 24 24">
  <path d="M12 1.5c.833 0 1.644.097 2.422.281a.75.75 0 0 1-.344 1.46 9 9 0 1 0 6.68 6.68.75.75 0 0 1 1.46-.343c.184.778.282 1.59.282 2.422 0 5.799-4.701 10.5-10.5 10.5S1.5 17.799 1.5 12 6.201 1.5 12 1.5Zm.192 15c.31 0 .558.233.558.518v.464c0 .285-.249.518-.558.518h-.384c-.31 0-.558-.233-.558-.518v-.464c0-.285.249-.518.558-.518h.384Zm.02-10.492c1.488.105 2.68 1.325 2.78 2.826l.008.218a3.057 3.057 0 0 1-1.408 2.58 1.808 1.808 0 0 0-.845 1.534v1.084a.75.75 0 0 1-1.5 0v-1.084a3.31 3.31 0 0 1 1.54-2.8l.083-.057c.405-.298.665-.805.625-1.372v-.003c-.051-.771-.666-1.38-1.389-1.431-.861-.059-1.606.645-1.606 1.55a.75.75 0 0 1-1.5 0c0-1.73 1.438-3.168 3.212-3.045ZM18.75 1.5a3.751 3.751 0 0 1 0 7.5 3.751 3.751 0 0 1 0-7.5Z"/>
</svg>
