<svg xmlns="http://www.w3.org/2000/svg" width="24" height="24" fill="currentColor" viewBox="0 0 24 24">
  <path fill-rule="evenodd" d="M21 12a9 9 0 1 1-18 0 9 9 0 0 1 18 0Zm1.5 0c0 5.799-4.701 10.5-10.5 10.5S1.5 17.799 1.5 12 6.201 1.5 12 1.5 22.5 6.201 22.5 12ZM12.108 7.504c-.863-.06-1.608.643-1.608 1.55a.75.75 0 0 1-1.5 0c0-1.732 1.438-3.17 3.212-3.047h.001c1.487.106 2.679 1.325 2.78 2.825a3.06 3.06 0 0 1-1.401 2.8 1.808 1.808 0 0 0-.845 1.534v1.084a.75.75 0 0 1-1.5 0v-1.084c0-1.146.585-2.194 1.54-2.8l-.68-2.862Zm0 0c.722.051 1.337.658 1.388 1.43v.003a1.56 1.56 0 0 1-.709 1.429l-.68-2.862Zm.642 9.513c0-.284-.249-.517-.558-.517h-.384c-.31 0-.558.233-.558.517v.466c0 .284.249.517.558.517h.384c.31 0 .558-.233.558-.517v-.466Z" clip-rule="evenodd"/>
</svg>
