<svg xmlns="http://www.w3.org/2000/svg" width="24" height="24" fill="currentColor" viewBox="0 0 24 24">
  <path d="M17.25 12a5.25 5.25 0 1 1 0 10.5A5.25 5.25 0 0 1 12 17.25 5.25 5.25 0 0 1 17.25 12Zm0 1.5a3.75 3.75 0 1 0-.001 7.499 3.75 3.75 0 0 0 .001-7.499Zm1.06 1.629a.75.75 0 1 1 1.061 1.06l-1.06 1.061 1.06 1.06a.75.75 0 1 1-1.06 1.061l-1.061-1.06-1.06 1.06a.75.75 0 1 1-1.061-1.06l1.06-1.061-1.06-1.06a.75.75 0 0 1 1.06-1.061l1.061 1.06 1.06-1.06ZM18.322 1.5c1.88 0 3.429 1.499 3.429 3.377V10.5a.75.75 0 0 1-1.5 0V4.877C20.25 3.854 19.4 3 18.321 3H4.93C3.849 3 3 3.854 3 4.877v8.54c0 .511.195.884.494 1.14.312.265.785.443 1.381.443H6a.75.75 0 0 1 .75.75v2.148l3.27-2.724a.75.75 0 0 1 .96 1.152l-3.482 2.901a.745.745 0 0 1-.066.05c-.53.35-1.12.231-1.506-.03A1.524 1.524 0 0 1 5.25 18v-1.5h-.375c-.884 0-1.723-.263-2.354-.8-.641-.55-1.021-1.345-1.021-2.284v-8.54C1.5 2.999 3.048 1.5 4.929 1.5H18.32Z"/>
</svg>
