<svg xmlns="http://www.w3.org/2000/svg" width="24" height="24" fill="currentColor" viewBox="0 0 24 24">
  <path fill-rule="evenodd" d="M5.851 1.5C4.292 1.5 3 2.739 3 4.304v15.392C3 21.261 4.292 22.5 5.851 22.5H9.75a.75.75 0 0 0 0-1.5H5.851c-.763 0-1.351-.6-1.351-1.304V4.304C4.5 3.599 5.088 3 5.851 3H13.5v3.451a1.8 1.8 0 0 0 1.799 1.799h3.451v1.875a.75.75 0 0 0 1.5 0V7.381l-.017-.04a.746.746 0 0 0-.106-.253l-.103-.244-5.249-5.13a.748.748 0 0 0-.525-.214H5.851ZM15 6.451v-2.42l2.782 2.719h-2.483A.3.3 0 0 1 15 6.451Z" clip-rule="evenodd"/>
  <path fill-rule="evenodd" d="M12.446 22.058c.285.285.668.442 1.066.442v-.008c.127 0 .247-.015.375-.044l1.823-.458a.726.726 0 0 0 .345-.195l5.747-5.744c.93-.93.93-2.43 0-3.36a2.387 2.387 0 0 0-3.361 0l-5.747 5.76a.718.718 0 0 0-.195.345l-.458 1.822h.008a1.486 1.486 0 0 0 .397 1.44Zm1.05-1.073v-.007l.406-1.62 5.604-5.601a.87.87 0 0 1 1.238 0c.338.345.338.9 0 1.237l-5.597 5.594-1.65.397Z" clip-rule="evenodd"/>
  <path d="M6.75 5.25a.75.75 0 0 0 0 1.5h4.5a.75.75 0 0 0 0-1.5h-4.5Zm0 3a.75.75 0 0 0 0 1.5h4.5a.75.75 0 0 0 0-1.5h-4.5Zm0 3a.75.75 0 0 0 0 1.5h2.625a.75.75 0 0 0 0-1.5H6.75Z"/>
</svg>
