<svg xmlns="http://www.w3.org/2000/svg" width="24" height="24" fill="currentColor" viewBox="0 0 24 24">
  <path d="M13.515 22.5c-.397 0-.78-.157-1.065-.442a1.486 1.486 0 0 1-.397-1.44h-.008l.458-1.823a.718.718 0 0 1 .195-.345l5.745-5.76a2.386 2.386 0 0 1 3.36 0c.93.93.93 2.43 0 3.36l-5.745 5.745a.726.726 0 0 1-.345.195l-1.823.458c-.127.03-.247.044-.375.044v.008Zm-.015-1.523v.008l1.65-.398 5.595-5.595a.883.883 0 0 0 0-1.237.87.87 0 0 0-1.237 0l-5.603 5.603-.405 1.62Z"/>
  <path fill-rule="evenodd" d="M3 4.304C3 2.739 4.292 1.5 5.851 1.5h8.399l.524.214 5.25 5.13.226.537v2.744a.75.75 0 0 1-1.5 0V7.697L13.944 3H5.851C5.088 3 4.5 3.6 4.5 4.304v15.392c0 .705.588 1.304 1.351 1.304H9.75a.75.75 0 0 1 0 1.5H5.851C4.292 22.5 3 21.261 3 19.696V4.304Z" clip-rule="evenodd"/>
  <path fill-rule="evenodd" d="M14.25 1.5a.75.75 0 0 1 .75.75v4.201a.3.3 0 0 0 .299.299H19.5a.75.75 0 0 1 0 1.5h-4.201A1.8 1.8 0 0 1 13.5 6.451V2.25a.75.75 0 0 1 .75-.75ZM6 6a.75.75 0 0 1 .75-.75h4.5a.75.75 0 0 1 0 1.5h-4.5A.75.75 0 0 1 6 6Zm0 3a.75.75 0 0 1 .75-.75h4.5a.75.75 0 0 1 0 1.5h-4.5A.75.75 0 0 1 6 9Zm0 3a.75.75 0 0 1 .75-.75h2.625a.75.75 0 0 1 0 1.5H6.75A.75.75 0 0 1 6 12Z" clip-rule="evenodd"/>
</svg>
