<svg xmlns="http://www.w3.org/2000/svg" width="24" height="24" fill="currentColor" viewBox="0 0 24 24">
  <path fill-rule="evenodd" d="M11.567 3.994 9.14 8.508a.75.75 0 0 1-.542.385l-5.19.83c-.418.07-.509.509-.272.741l3.702 3.61a.75.75 0 0 1 .218.654l-.787 5.014v.002c-.05.31.303.645.693.455l4.72-2.275a.75.75 0 0 1 .652 0l4.716 2.273h.001c.39.186.743-.148.696-.457l-.786-5.012a.75.75 0 0 1 .217-.653l3.688-3.604c.242-.237.14-.676-.267-.74h-.002l-5.192-.83a.75.75 0 0 1-.542-.386L12.46 4.05a.746.746 0 0 1-.034-.056c-.175-.325-.683-.325-.859 0Zm2.145-.773c-.768-1.314-2.732-1.294-3.464.06v.001L7.993 7.471l-4.826.771h-.003c-1.558.256-2.247 2.15-1.078 3.295l3.426 3.34-.726 4.63v.001c-.256 1.606 1.437 2.715 2.828 2.041l4.392-2.117L16.4 21.55l.002.001c1.392.664 3.07-.446 2.825-2.04l-.727-4.633 3.413-3.335c1.163-1.139.487-3.047-1.082-3.294h-.001l-4.824-.772-2.254-4.188a.765.765 0 0 0-.041-.068Z" clip-rule="evenodd"/>
</svg>
