<svg xmlns="http://www.w3.org/2000/svg" width="24" height="24" fill="none" viewBox="0 0 24 24">
  <path fill="#3D3C3C" fill-rule="evenodd" d="M7.324 3.483a.75.75 0 0 0-1.148-.966L4.302 4.742H4.3L2.426 6.969a.75.75 0 0 0-.005.96c.624.759 1.25 1.517 1.875 2.274v.001l1.875 2.273a.75.75 0 1 0 1.158-.952c-.624-.76-1.25-1.518-1.876-2.276-.274-.333-.55-.665-.823-.998h10.8c.472 0 .914.05 1.323.178 2.67.84 4.464 3.567 4.226 6.386-.215 2.46-1.93 4.574-4.256 5.268l-.003.001a4.343 4.343 0 0 1-1.256.167H3a.75.75 0 0 0 0 1.5h12.464c.548 0 1.126-.06 1.69-.231 2.923-.873 5.052-3.512 5.32-6.575v-.002c.296-3.501-1.914-6.888-5.271-7.944a5.879 5.879 0 0 0-1.773-.248H4.57l.877-1.04h.001V5.71c.626-.742 1.252-1.484 1.876-2.226Z" clip-rule="evenodd"/>
</svg>
