<svg xmlns="http://www.w3.org/2000/svg" width="24" height="24" fill="currentColor" viewBox="0 0 24 24">
  <path fill-rule="evenodd" d="M16.69 4.248a.75.75 0 1 1 1.12-.996l3 3.375a.75.75 0 0 1 0 .996l-3 3.375a.75.75 0 1 1-1.12-.996l1.89-2.127H9.75c-.614 0-1.192.186-1.635.336-2.256.761-3.81 3.476-3.596 6.198.19 2.336 1.703 4.3 3.695 4.939l-.002-.001h.006c.012.003.046.01.111.019.09.012.207.024.346.035.277.023.614.042.946.057a58.115 58.115 0 0 0 1.165.04l.078.002h9.386a.75.75 0 0 1 0 1.5h-9.42l-.08-.003a54.378 54.378 0 0 1-2.199-.1c-.264-.023-.591-.055-.796-.121-2.627-.842-4.497-3.367-4.731-6.246v-.002c-.257-3.248 1.563-6.71 4.611-7.739.44-.148 1.229-.414 2.115-.414h8.83l-1.89-2.127Z" clip-rule="evenodd"/>
</svg>
