<svg xmlns="http://www.w3.org/2000/svg" width="24" height="24" fill="currentColor" viewBox="0 0 24 24">
  <path fill-rule="evenodd" d="M1.5 12c0-1.654 1.346-3 3-3s3 1.346 3 3-1.346 3-3 3-3-1.346-3-3Zm3-1.5c-.826 0-1.5.674-1.5 1.5s.674 1.5 1.5 1.5S6 12.826 6 12s-.674-1.5-1.5-1.5Z" clip-rule="evenodd"/>
  <path fill-rule="evenodd" d="M6.033 12a.75.75 0 0 1 .75-.75h10.462a.75.75 0 0 1 0 1.5H6.783a.75.75 0 0 1-.75-.75ZM9.75 4.495a.75.75 0 0 1 .755-.745l5.983.039a.75.75 0 0 1-.01 1.5l-5.983-.039a.75.75 0 0 1-.745-.755Zm0 15.005a.75.75 0 0 1 .75-.75h6.012a.75.75 0 0 1 0 1.5H10.5a.75.75 0 0 1-.75-.75Z" clip-rule="evenodd"/>
  <path fill-rule="evenodd" d="M16.5 12c0-1.654 1.346-3 3-3s3 1.346 3 3-1.346 3-3 3-3-1.346-3-3Zm3-1.5c-.826 0-1.5.674-1.5 1.5s.674 1.5 1.5 1.5S21 12.826 21 12s-.674-1.5-1.5-1.5Zm-3-6c0-1.654 1.346-3 3-3s3 1.346 3 3-1.346 3-3 3-3-1.346-3-3Zm3-1.5c-.826 0-1.5.674-1.5 1.5S18.674 6 19.5 6 21 5.326 21 4.5 20.326 3 19.5 3Zm-8.986.75a.75.75 0 0 1 .75.75v15a.75.75 0 0 1-1.5 0v-15a.75.75 0 0 1 .75-.75ZM16.5 19.5c0-1.654 1.346-3 3-3s3 1.346 3 3-1.346 3-3 3-3-1.346-3-3Zm3-1.5c-.826 0-1.5.674-1.5 1.5s.674 1.5 1.5 1.5 1.5-.674 1.5-1.5-.674-1.5-1.5-1.5Z" clip-rule="evenodd"/>
</svg>
