<svg xmlns="http://www.w3.org/2000/svg" width="24" height="24" fill="currentColor" viewBox="0 0 24 24">
  <path fill-rule="evenodd" d="M16.603 5.28a.755.755 0 0 1-.125.009l-5.214-.034v5.995h5.33A3.005 3.005 0 0 1 19.5 9c1.654 0 3 1.346 3 3s-1.346 3-3 3a3.006 3.006 0 0 1-2.905-2.25h-5.33v6h5.247c.027 0 .055.002.082.004A3.005 3.005 0 0 1 19.5 16.5c1.654 0 3 1.346 3 3s-1.346 3-3 3a3.005 3.005 0 0 1-2.906-2.254.765.765 0 0 1-.082.004H10.5a.75.75 0 0 1-.736-.897V12.75H7.405A3.006 3.006 0 0 1 4.5 15c-1.654 0-3-1.346-3-3s1.346-3 3-3c1.395 0 2.571.958 2.905 2.25h2.36V4.647a.753.753 0 0 1 .74-.897h.028l5.955.039c.032 0 .064.003.096.007A3.005 3.005 0 0 1 19.5 1.5c1.654 0 3 1.346 3 3s-1.346 3-3 3a3.006 3.006 0 0 1-2.897-2.22ZM18 4.5c0-.826.674-1.5 1.5-1.5s1.5.674 1.5 1.5S20.326 6 19.5 6 18 5.326 18 4.5ZM3 12c0-.826.674-1.5 1.5-1.5S6 11.174 6 12s-.674 1.5-1.5 1.5S3 12.826 3 12Zm16.5-1.5c-.826 0-1.5.674-1.5 1.5s.674 1.5 1.5 1.5S21 12.826 21 12s-.674-1.5-1.5-1.5Zm-1.5 9c0-.826.674-1.5 1.5-1.5s1.5.674 1.5 1.5-.674 1.5-1.5 1.5-1.5-.674-1.5-1.5Z" clip-rule="evenodd"/>
</svg>
