<svg xmlns="http://www.w3.org/2000/svg" width="24" height="24" fill="currentColor" viewBox="0 0 24 24">
  <path fill-rule="evenodd" d="M12 1.45C6.175 1.45 1.45 6.175 1.45 12c0 2.343.769 4.514 2.065 6.263A10.54 10.54 0 0 0 12 22.55c5.825 0 10.55-4.725 10.55-10.55a.75.75 0 0 0-1.5 0A9.052 9.052 0 0 1 12 21.05a9.04 9.04 0 0 1-7.279-3.679A8.992 8.992 0 0 1 2.95 12 9.052 9.052 0 0 1 18.4 5.6l.4.4h-3.05a.75.75 0 0 0 0 1.5h4.5a.75.75 0 0 0 .75-.75v-.184a.753.753 0 0 0 0-.318V2.25a.75.75 0 1 0-1.5 0v2.33l-.04-.04A10.52 10.52 0 0 0 12 1.45Z" clip-rule="evenodd"/>
</svg>
