<svg xmlns="http://www.w3.org/2000/svg" width="24" height="24" fill="currentColor" viewBox="0 0 24 24">
  <path fill-rule="evenodd" d="M12 9a.75.75 0 0 1-.75-.75V6.046a6.003 6.003 0 0 0-5.204 5.204H8.25a.75.75 0 0 1 0 1.5H6.046a6.003 6.003 0 0 0 5.204 5.204V15.75a.75.75 0 0 1 1.5 0v2.204a6.003 6.003 0 0 0 5.204-5.204H15.75a.75.75 0 0 1 0-1.5h2.204a6.003 6.003 0 0 0-5.204-5.204V8.25A.75.75 0 0 1 12 9Zm.75 10.463a7.503 7.503 0 0 0 6.713-6.713h2.287a.75.75 0 0 0 0-1.5h-2.287a7.503 7.503 0 0 0-6.713-6.713V2.25a.75.75 0 0 0-1.5 0v2.287a7.502 7.502 0 0 0-6.713 6.713H2.25a.75.75 0 0 0 0 1.5h2.287a7.503 7.503 0 0 0 6.713 6.713v2.287a.75.75 0 0 0 1.5 0v-2.287Z" clip-rule="evenodd"/>
</svg>
