<svg xmlns="http://www.w3.org/2000/svg" width="24" height="24" fill="currentColor" viewBox="0 0 24 24">
  <path fill-rule="evenodd" d="M3 3h3v3H3V3ZM1.5 3A1.5 1.5 0 0 1 3 1.5h3A1.5 1.5 0 0 1 7.5 3v3A1.5 1.5 0 0 1 6 7.5H3A1.5 1.5 0 0 1 1.5 6V3ZM18 3h3v3h-3V3Zm-1.5 0A1.5 1.5 0 0 1 18 1.5h3A1.5 1.5 0 0 1 22.5 3v3A1.5 1.5 0 0 1 21 7.5h-3A1.5 1.5 0 0 1 16.5 6V3ZM3 18v3h3v-3H3Zm0-1.5A1.5 1.5 0 0 0 1.5 18v3A1.5 1.5 0 0 0 3 22.5h3A1.5 1.5 0 0 0 7.5 21v-3A1.5 1.5 0 0 0 6 16.5H3ZM16.5 18a1.5 1.5 0 0 1 1.5-1.5h3a1.5 1.5 0 0 1 1.5 1.5v3a1.5 1.5 0 0 1-1.5 1.5h-3a1.5 1.5 0 0 1-1.5-1.5v-3Zm-12-9.75a.75.75 0 0 1 .75.75v6a.75.75 0 0 1-1.5 0V9a.75.75 0 0 1 .75-.75Zm10.5-3a.75.75 0 0 0 0-1.5H9a.75.75 0 0 0 0 1.5h6Zm.75 14.25a.75.75 0 0 1-.75.75H9a.75.75 0 0 1 0-1.5h6a.75.75 0 0 1 .75.75ZM18 18h3v3h-3v-3Zm2.25-9a.75.75 0 0 0-1.5 0v6a.75.75 0 0 0 1.5 0V9Z" clip-rule="evenodd"/>
</svg>
