<svg xmlns="http://www.w3.org/2000/svg" width="24" height="24" fill="currentColor" viewBox="0 0 24 24">
  <path d="M2.22 9.751a.75.75 0 0 1 .791.707 7.05 7.05 0 0 0 13.547 2.308.75.75 0 1 1 1.384.579 8.552 8.552 0 0 1-16.428-2.803.75.75 0 0 1 .706-.79ZM10.05 1.5c3.43 0 6.387 2.02 7.749 4.932a.75.75 0 0 1-1.359.636A7.051 7.051 0 0 0 5.086 5.043.75.75 0 1 1 4.03 3.98a8.525 8.525 0 0 1 6.02-2.48Z"/>
  <path d="M15.036 15.035a.75.75 0 0 1 1.06 0l6.185 6.185a.75.75 0 0 1-1.061 1.06l-6.184-6.184a.75.75 0 0 1 0-1.06Zm.732-5.278a.74.74 0 0 0-.741-.739.74.74 0 0 0-.76.72.74.74 0 0 0 .742.739.74.74 0 0 0 .759-.72Zm1.5.018c-.015 1.24-1.044 2.217-2.277 2.202-1.233-.015-2.238-1.016-2.223-2.257.015-1.24 1.044-2.217 2.277-2.202 1.233.015 2.238 1.016 2.223 2.257ZM10.5 12.75a.75.75 0 1 0-1.5 0 .75.75 0 0 0 1.5 0Zm1.5 0a2.25 2.25 0 1 1-4.5 0 2.25 2.25 0 0 1 4.5 0Zm-5.25-4.5a.75.75 0 1 0-1.5 0 .75.75 0 0 0 1.5 0Zm1.5 0a2.25 2.25 0 1 1-4.5 0 2.25 2.25 0 0 1 4.5 0Z"/>
  <path d="M13.02 9.549a.75.75 0 0 1 .96 1.152l-2.25 1.875a.75.75 0 0 1-.96-1.152l2.25-1.875ZM6.572 9.49a.75.75 0 0 1 1.06.02l1.534 1.595a.75.75 0 0 1-1.082 1.04L6.551 10.55a.75.75 0 0 1 .02-1.06Zm9.231.357a.75.75 0 0 1 .975-.419l3.75 1.5a.75.75 0 0 1-.556 1.393l-3.75-1.5a.75.75 0 0 1-.419-.974ZM1.186 6.455a.75.75 0 0 1 .984-.394l2.625 1.125a.75.75 0 1 1-.59 1.378L1.58 7.44a.75.75 0 0 1-.394-.984Z"/>
</svg>
