<svg xmlns="http://www.w3.org/2000/svg" width="24" height="24" fill="currentColor" viewBox="0 0 24 24">
  <path d="M20.25 13.5a.75.75 0 0 1 0 1.5h-7.5v4.94l1.72-1.72a.75.75 0 1 1 1.06 1.06l-3 3a.744.744 0 0 1-.297.179c-.024.008-.048.017-.074.022a.74.74 0 0 1-.114.016l-.019.001L12 22.5a.758.758 0 0 1-.095-.007l-.011-.002a.736.736 0 0 1-.34-.143c-.009-.005-.019-.01-.027-.016l-.057-.052-3-3-.051-.056a.75.75 0 0 1 1.055-1.055l.056.05 1.72 1.72V15h-7.5a.75.75 0 0 1 0-1.5h16.5ZM12 1.5a.73.73 0 0 1 .094.007l.011.002a.738.738 0 0 1 .224.071.733.733 0 0 1 .116.071c.009.007.02.01.028.017l.057.052 3 3 .051.056a.75.75 0 0 1-1.055 1.055l-.056-.05-1.72-1.72V9h7.5a.75.75 0 0 1 0 1.5H3.75a.75.75 0 0 1 0-1.5h7.5V4.06L9.53 5.78a.75.75 0 1 1-1.06-1.06l3-3a.747.747 0 0 1 .231-.157c.021-.01.044-.015.066-.022.024-.008.048-.017.073-.022a.75.75 0 0 1 .133-.017L12 1.5Z"/>
</svg>
