<svg xmlns="http://www.w3.org/2000/svg" width="24" height="24" fill="currentColor" viewBox="0 0 24 24">
  <path d="M17.25 12a5.25 5.25 0 1 1 0 10.5A5.25 5.25 0 0 1 12 17.25 5.25 5.25 0 0 1 17.25 12ZM16.5 1.5a.75.75 0 0 1 .75.75v8.25a.75.75 0 0 1-1.5 0V3H3.772C3.365 3 3 3.344 3 3.82v12.766c.178-.054.368-.086.57-.086.033 0 .067.003.1.008h6.83a.75.75 0 0 1 .077 1.495l-.077.005H3.57c-.014 0-.027-.002-.04-.003-.224.026-.53.269-.53.745 0 .507.345.75.57.75h6.93a.75.75 0 0 1 0 1.5H3.57c-1.224 0-2.07-1.097-2.07-2.25V3.82c0-1.26.991-2.32 2.272-2.32H16.5Zm.75 12a3.75 3.75 0 1 0-.001 7.499 3.75 3.75 0 0 0 .001-7.499Zm.026.751.019.001a.742.742 0 0 1 .114.016c.025.005.05.014.074.022a.74.74 0 0 1 .118.05.748.748 0 0 1 .18.13l1.5 1.5.051.057a.75.75 0 0 1-1.055 1.055l-.057-.052-.22-.22v2.69l-.004.077a.75.75 0 0 1-1.492 0L16.5 19.5v-2.69l-.22.22a.75.75 0 1 1-1.06-1.06l1.5-1.5.057-.051.022-.015a.763.763 0 0 1 .191-.106.723.723 0 0 1 .074-.022c.026-.006.052-.014.08-.018l.011-.002a.758.758 0 0 1 .095-.006l.026.001ZM12 6.75a.75.75 0 0 1 0 1.5H6.75a.75.75 0 0 1 0-1.5H12Zm.75-2.25a.75.75 0 0 1 0 1.5H6a.75.75 0 0 1 0-1.5h6.75Z"/>
</svg>
