<svg xmlns="http://www.w3.org/2000/svg" width="24" height="24" fill="currentColor" viewBox="0 0 24 24">
  <path d="M9.75 3a.75.75 0 0 1 .75.75v16.5a.75.75 0 0 1-1.5 0v-7.5H4.06l1.72 1.72a.75.75 0 0 1-1.06 1.06l-3-3a.754.754 0 0 1-.13-.174l-.015-.031a.746.746 0 0 1-.054-.499l.011-.046a.744.744 0 0 1 .092-.192.759.759 0 0 1 .096-.118l3-3a.75.75 0 1 1 1.06 1.06l-1.72 1.72H9v-7.5A.75.75 0 0 1 9.75 3Zm4.5 0a.75.75 0 0 1 .75.75v7.5h4.94l-1.72-1.72a.75.75 0 0 1 1.06-1.06l3 3a.76.76 0 0 1 .187.31.748.748 0 0 1-.187.75l-3 3a.75.75 0 1 1-1.06-1.06l1.72-1.72H15v7.5a.75.75 0 0 1-1.5 0V3.75a.75.75 0 0 1 .75-.75Z"/>
</svg>
