<svg xmlns="http://www.w3.org/2000/svg" width="24" height="24" fill="none" viewBox="0 0 24 24">
  <path fill="#3D3C3C" fill-rule="evenodd" d="M11.85 4.2a.75.75 0 1 0-1.2-.9L9 5.5 7.35 3.3a.75.75 0 0 0-1.2.9L7.5 6h-.75a3 3 0 0 0-3 3v1.5a2.25 2.25 0 0 0-2.25 2.25v1.5a2.25 2.25 0 0 0 2.25 2.25V18a3 3 0 0 0 3 3h10.5a3 3 0 0 0 3-3v-1.5a2.25 2.25 0 0 0 2.25-2.25v-1.5a2.25 2.25 0 0 0-2.25-2.25V9a3 3 0 0 0-3-3H10.5l1.35-1.8Zm8.4 7.8v3a.75.75 0 0 0 .75-.75v-1.5a.75.75 0 0 0-.75-.75ZM3 12.75a.75.75 0 0 1 .75-.75v3a.75.75 0 0 1-.75-.75v-1.5ZM17.25 7.5H6.75A1.5 1.5 0 0 0 5.25 9v9a1.5 1.5 0 0 0 1.5 1.5h10.5a1.5 1.5 0 0 0 1.5-1.5V9a1.5 1.5 0 0 0-1.5-1.5ZM12 15.75c-.796 0-1.654-.376-2.443-1.252a.75.75 0 0 0-1.114 1.004C9.454 16.626 10.696 17.25 12 17.25c1.304 0 2.546-.624 3.557-1.748a.75.75 0 1 0-1.114-1.004c-.789.876-1.647 1.252-2.443 1.252Zm-3-3a1.5 1.5 0 1 0 0-3 1.5 1.5 0 0 0 0 3Zm7.5-1.5a1.5 1.5 0 1 1-3 0 1.5 1.5 0 0 1 3 0Z" clip-rule="evenodd"/>
</svg>
