<svg xmlns="http://www.w3.org/2000/svg" width="24" height="24" fill="currentColor" viewBox="0 0 24 24">
  <path d="M9.321 18.885a.75.75 0 0 1 .997.125l.047.061 1.259 1.805.035.032c.054.04.168.092.352.092.247 0 .364-.097.38-.121v-.001l1.243-1.787a.751.751 0 0 1 1.232.856l-1.242 1.787h-.001c-.391.564-1.065.765-1.61.766-.545.001-1.221-.198-1.617-.764l-.002-.002-1.26-1.804-.04-.066a.75.75 0 0 1 .227-.98Zm2.785-17.38c.244.023.465.122.626.21.206.11.42.261.632.435.428.35.905.839 1.372 1.425.932 1.17 1.878 2.796 2.313 4.615.206.856.235 1.73.165 2.569l.405.228.004.003.296.183c1.444.955 2.331 2.527 2.331 4.24v4.396c0 .554-.365.95-.767 1.106a1.237 1.237 0 0 1-1.225-.186l-.073-.065L15.355 18H8.644l-2.829 2.664c-.383.36-.898.407-1.3.251a1.186 1.186 0 0 1-.765-1.106v-4.396c0-1.827 1.008-3.494 2.626-4.423l.005-.003.404-.228c-.07-.842-.04-1.711.165-2.569l.088-.338c.465-1.682 1.352-3.18 2.226-4.277a9.61 9.61 0 0 1 1.372-1.425 4.13 4.13 0 0 1 .632-.435c.184-.1.446-.215.732-.215l.106.005ZM6.908 12.424c-1.047.692-1.658 1.808-1.658 2.99v3.72l2.318-2.184-.588-4.572-.072.046Zm9.515 4.52 2.327 2.19v-3.72c0-1.211-.643-2.352-1.74-3.04l-.587 4.57ZM11.98 3.034c-.097.052-.23.142-.396.278-.33.27-.734.678-1.149 1.199C9.604 5.555 8.78 6.986 8.41 8.539v.001c-.168.698-.192 1.436-.12 2.193l.035.327.7 5.44h5.945l.7-5.44.012-.069a.806.806 0 0 1 .004-.016c.088-.728.092-1.448-.03-2.132l-.063-.303h-.001c-.37-1.554-1.196-2.985-2.028-4.03a8.138 8.138 0 0 0-1.149-1.198 2.677 2.677 0 0 0-.395-.278L12 3.025l-.02.01ZM12 5.875a2.625 2.625 0 1 1 0 5.25 2.625 2.625 0 0 1 0-5.25Zm0 1.5a1.125 1.125 0 1 0 0 2.25 1.125 1.125 0 0 0 0-2.25Z"/>
</svg>
