<svg xmlns="http://www.w3.org/2000/svg" width="24" height="24" fill="currentColor" viewBox="0 0 24 24">
  <path fill-rule="evenodd" d="M3 3.75a.75.75 0 1 1 1.318.49.76.76 0 0 0-.082.081A.75.75 0 0 1 3 3.75Zm1.716 2.033A2.25 2.25 0 1 1 5.78 4.724l1.474 1.47A7.469 7.469 0 0 1 12 4.5a7.47 7.47 0 0 1 4.756 1.7l1.49-1.427a2.25 2.25 0 1 1 1.09 1.033l-1.521 1.457A7.468 7.468 0 0 1 19.5 12a7.469 7.469 0 0 1-1.693 4.747l1.473 1.472a2.25 2.25 0 1 1-1.06 1.06l-1.473-1.472A7.469 7.469 0 0 1 12 19.5a7.469 7.469 0 0 1-4.747-1.693L5.781 19.28a2.25 2.25 0 1 1-1.06-1.06l1.472-1.473A7.469 7.469 0 0 1 4.5 12c0-1.8.635-3.453 1.692-4.746L4.716 5.783ZM6 12a6 6 0 1 1 10.497 3.973l.003-.364-1.5-.002v-.001l1.5.002c.012-1.243-1.098-2.108-2.264-2.108H9.764c-1.17 0-2.263.86-2.263 2.101l.003.372A5.977 5.977 0 0 1 6 12Zm3 3.598c.002-.256.258-.598.764-.598h4.473c.512 0 .765.354.763.593v.013l-6-.008Zm0 0 .015 1.608A5.983 5.983 0 0 0 12 18a5.974 5.974 0 0 0 2.985-.794l.015-1.6-6-.008Zm3-7.348a1.5 1.5 0 1 0 0 3 1.5 1.5 0 0 0 0-3Zm-3 1.5a3 3 0 1 1 6 0 3 3 0 0 1-6 0Zm10.5-6a.75.75 0 1 1 1.5 0 .75.75 0 0 1-1.5 0ZM3 20.25a.75.75 0 1 1 1.5 0 .75.75 0 0 1-1.5 0Zm16.5 0a.75.75 0 1 1 1.5 0 .75.75 0 0 1-1.5 0Z" clip-rule="evenodd"/>
</svg>
