<svg xmlns="http://www.w3.org/2000/svg" width="24" height="24" fill="currentColor" viewBox="0 0 24 24">
  <path fill-rule="evenodd" d="M12 8.25a1.5 1.5 0 1 0 0 3 1.5 1.5 0 0 0 0-3Zm-3 1.5a3 3 0 1 1 6 0 3 3 0 0 1-6 0Zm0 5.848.015 1.645a.75.75 0 1 1-1.5.014L7.5 15.6c0-1.24 1.092-2.101 2.264-2.101h4.473c1.165 0 2.275.865 2.263 2.108m0 0-.015 1.649a.75.75 0 0 1-1.5-.014l.015-1.65c.002-.24-.251-.593-.764-.593H9.764c-.505 0-.761.342-.763.598" clip-rule="evenodd"/>
  <path fill-rule="evenodd" d="M12 6a6 6 0 1 0 0 12 6 6 0 0 0 0-12Zm-7.5 6a7.5 7.5 0 1 1 15 0 7.5 7.5 0 0 1-15 0Z" clip-rule="evenodd"/>
  <path fill-rule="evenodd" d="M4.273 4.281a.75.75 0 0 1 1.06-.001l2.322 2.314a.75.75 0 1 1-1.06 1.062l-2.32-2.314a.75.75 0 0 1-.002-1.06Z" clip-rule="evenodd"/>
  <path fill-rule="evenodd" d="M3.75 3a.75.75 0 1 0 0 1.5.75.75 0 0 0 0-1.5Zm-2.25.75a2.25 2.25 0 1 1 4.5 0 2.25 2.25 0 0 1-4.5 0Zm18.252.62a.75.75 0 0 1-.023 1.06l-2.335 2.237a.75.75 0 1 1-1.038-1.084l2.335-2.237a.75.75 0 0 1 1.06.023Z" clip-rule="evenodd"/>
  <path fill-rule="evenodd" d="M20.25 3a.75.75 0 1 0 0 1.5.75.75 0 0 0 0-1.5ZM18 3.75a2.25 2.25 0 1 1 4.5 0 2.25 2.25 0 0 1-4.5 0ZM7.655 16.345a.75.75 0 0 1 0 1.06l-2.25 2.25a.75.75 0 0 1-1.06-1.06l2.25-2.25a.75.75 0 0 1 1.06 0Z" clip-rule="evenodd"/>
  <path fill-rule="evenodd" d="M3.75 19.5a.75.75 0 1 0 0 1.5.75.75 0 0 0 0-1.5Zm-2.25.75a2.25 2.25 0 1 1 4.5 0 2.25 2.25 0 0 1-4.5 0Zm14.845-3.905a.75.75 0 0 1 1.06 0l2.25 2.25a.75.75 0 1 1-1.06 1.06l-2.25-2.25a.75.75 0 0 1 0-1.06Z" clip-rule="evenodd"/>
  <path fill-rule="evenodd" d="M20.25 19.5a.75.75 0 1 0 0 1.5.75.75 0 0 0 0-1.5Zm-2.25.75a2.25 2.25 0 1 1 4.5 0 2.25 2.25 0 0 1-4.5 0Z" clip-rule="evenodd"/>
</svg>
