<svg xmlns="http://www.w3.org/2000/svg" width="24" height="24" fill="currentColor" viewBox="0 0 24 24">
  <path fill-rule="evenodd" d="M4.688 3A1.69 1.69 0 0 0 3 4.688v14.625A1.69 1.69 0 0 0 4.688 21h14.625A1.69 1.69 0 0 0 21 19.312V8.136c0-.44-.177-.87-.498-1.19l-3.451-3.451A1.663 1.663 0 0 0 15.865 3H4.687ZM1.5 4.688A3.19 3.19 0 0 1 4.688 1.5h11.177c.846 0 1.658.336 2.253.939l.002.002 3.443 3.443c.599.599.937 1.409.937 2.25v11.178a3.19 3.19 0 0 1-3.188 3.188H4.688A3.19 3.19 0 0 1 1.5 19.312V4.688Z" clip-rule="evenodd"/>
  <path fill-rule="evenodd" d="M7.5 1.5a.75.75 0 0 1 .75.75v5.893c0 .942.625 1.607 1.5 1.607h4.5c.49 0 .854-.17 1.095-.414.243-.247.405-.614.405-1.086V3a.75.75 0 0 1 1.5 0v5.25c0 .827-.29 1.585-.837 2.139-.547.555-1.308.861-2.163.861h-4.5c-1.813 0-3-1.45-3-3.107V2.25a.75.75 0 0 1 .75-.75ZM9.75 18c-.826 0-1.5.674-1.5 1.5v2.25a.75.75 0 0 1-1.5 0V19.5c0-1.655 1.345-3 3-3h4.5c1.655 0 3 1.345 3 3v2.25a.75.75 0 0 1-1.5 0V19.5c0-.826-.674-1.5-1.5-1.5h-4.5Z" clip-rule="evenodd"/>
</svg>
