<svg xmlns="http://www.w3.org/2000/svg" width="24" height="24" fill="currentColor" viewBox="0 0 24 24">
  <path fill-rule="evenodd" d="M4.688 3A1.69 1.69 0 0 0 3 4.688v14.625A1.69 1.69 0 0 0 4.688 21H6.75v-1.5c0-1.655 1.345-3 3-3h4.5c1.655 0 3 1.345 3 3V21h2.063A1.69 1.69 0 0 0 21 19.312V8.136c0-.44-.177-.87-.498-1.19L17.25 3.693V8.25c0 .827-.29 1.585-.837 2.139-.547.555-1.308.861-2.163.861h-4.5c-1.813 0-3-1.45-3-3.107V3H4.687ZM15.75 21v-1.5c0-.826-.674-1.5-1.5-1.5h-4.5c-.826 0-1.5.674-1.5 1.5V21h7.5ZM7.5 22.5H4.687A3.19 3.19 0 0 1 1.5 19.312V4.688A3.19 3.19 0 0 1 4.688 1.5h11.177c.846 0 1.658.336 2.253.939l.002.002 3.443 3.443c.599.599.937 1.409.937 2.25v11.178a3.19 3.19 0 0 1-3.188 3.188H7.5ZM8.25 3h7.5v5.25c0 .472-.162.84-.405 1.086-.241.245-.606.414-1.095.414h-4.5c-.875 0-1.5-.665-1.5-1.607V3Z" clip-rule="evenodd"/>
</svg>
