<svg xmlns="http://www.w3.org/2000/svg" width="24" height="24" fill="currentColor" viewBox="0 0 24 24">
  <path fill-rule="evenodd" d="M22.5 18.002A2.996 2.996 0 0 1 19.502 21H15.75a.75.75 0 0 1 0-1.5h3.752c.83 0 1.498-.669 1.498-1.498V4.498C21 3.668 20.331 3 19.502 3H5.998C5.168 3 4.5 3.669 4.5 4.498V8.25a.75.75 0 0 1-1.5 0V4.498A2.996 2.996 0 0 1 5.998 1.5h13.504A2.996 2.996 0 0 1 22.5 4.498v13.504Z" clip-rule="evenodd"/>
  <path fill-rule="evenodd" d="M1.5 12.75a2.25 2.25 0 0 1 2.25-2.25h7.5a2.25 2.25 0 0 1 2.25 2.25v7.5a2.25 2.25 0 0 1-2.25 2.25h-7.5a2.25 2.25 0 0 1-2.25-2.25v-7.5ZM3.75 12a.75.75 0 0 0-.75.75v7.5c0 .414.336.75.75.75h7.5a.75.75 0 0 0 .75-.75v-7.5a.75.75 0 0 0-.75-.75h-7.5Z" clip-rule="evenodd"/>
</svg>
