<svg xmlns="http://www.w3.org/2000/svg" width="24" height="24" fill="currentColor" viewBox="0 0 24 24">
  <path fill-rule="evenodd" d="M19.502 21a2.996 2.996 0 0 0 2.998-2.998V4.498A2.996 2.996 0 0 0 19.502 1.5H5.998A2.996 2.996 0 0 0 3 4.498V8.25a.75.75 0 0 0 1.5 0V4.498C4.5 3.668 5.169 3 5.998 3h13.504C20.332 3 21 3.669 21 4.498v13.504c0 .83-.669 1.498-1.498 1.498H15.75a.75.75 0 0 0 0 1.5h3.752ZM3.75 10.5a2.25 2.25 0 0 0-2.25 2.25v7.5a2.25 2.25 0 0 0 2.25 2.25h7.5a2.25 2.25 0 0 0 2.25-2.25v-7.5a2.25 2.25 0 0 0-2.25-2.25h-7.5ZM3 12.75a.75.75 0 0 1 .75-.75h7.5a.75.75 0 0 1 .75.75v7.5a.75.75 0 0 1-.75.75h-7.5a.75.75 0 0 1-.75-.75v-7.5Z" clip-rule="evenodd"/>
</svg>
