<svg xmlns="http://www.w3.org/2000/svg" width="24" height="24" fill="currentColor" viewBox="0 0 24 24">
  <path fill-rule="evenodd" d="M3.239 6.253A.628.628 0 0 0 3 6.769v13.308c0 .465.402.895.968.895h7.82a.75.75 0 0 1 0 1.5h-7.82c-1.333 0-2.468-1.041-2.468-2.395V6.769c0-.677.29-1.27.792-1.68.49-.399 1.139-.589 1.833-.589H4.5a.75.75 0 0 1 0 1.5h-.375c-.431 0-.72.118-.886.253ZM15.75 5.25a.75.75 0 0 1 .75-.75h.375c1.348 0 2.625.931 2.625 2.328V10.5a.75.75 0 0 1-1.5 0V6.828C18 6.482 17.637 6 16.875 6H16.5a.75.75 0 0 1-.75-.75Z" clip-rule="evenodd"/>
  <path fill-rule="evenodd" d="M1.5 9a.75.75 0 0 1 .75-.75H18a.75.75 0 0 1 0 1.5H2.25A.75.75 0 0 1 1.5 9Zm5.286-3.762a.75.75 0 0 1 .75-.75h5.97a.75.75 0 0 1 0 1.5h-5.97a.75.75 0 0 1-.75-.75Z" clip-rule="evenodd"/>
  <path fill-rule="evenodd" d="M7.5 3c.414 0 .75.338.75.754v2.992a.752.752 0 0 1-.75.754.752.752 0 0 1-.75-.754V3.754c0-.416.336-.754.75-.754Zm6 0c.414 0 .75.338.75.754v2.992a.752.752 0 0 1-.75.754.752.752 0 0 1-.75-.754V3.754c0-.416.336-.754.75-.754ZM12 17.25a5.25 5.25 0 1 1 5.25 5.25A5.25 5.25 0 0 1 12 17.25Zm5.25-3.75a3.75 3.75 0 1 0-.001 7.499 3.75 3.75 0 0 0 .001-7.499Z" clip-rule="evenodd"/>
  <path fill-rule="evenodd" d="M19.18 15.136a.75.75 0 0 1 .184 1.044l-2.102 3a.75.75 0 0 1-1.23-.001l-.897-1.288a.75.75 0 0 1 1.23-.858l.284.408 1.487-2.121a.75.75 0 0 1 1.044-.184Z" clip-rule="evenodd"/>
  <path d="M6.192 12h-.384c-.31 0-.558.232-.558.518v.464c0 .286.249.518.558.518h.384c.31 0 .558-.232.558-.518v-.464c0-.286-.249-.518-.558-.518Zm3 0h-.384c-.31 0-.558.232-.558.518v.464c0 .286.249.518.558.518h.384c.31 0 .558-.232.558-.518v-.464c0-.286-.249-.518-.558-.518Zm-3 3h-.384c-.31 0-.558.232-.558.518v.464c0 .285.249.518.558.518h.384c.31 0 .558-.233.558-.518v-.464c0-.286-.249-.518-.558-.518Zm3 0h-.384c-.31 0-.558.232-.558.518v.464c0 .285.249.518.558.518h.384c.31 0 .558-.233.558-.518v-.464c0-.286-.249-.518-.558-.518Zm-3 3h-.384c-.31 0-.558.233-.558.517v.466c0 .284.249.517.558.517h.384c.31 0 .558-.233.558-.517v-.466c0-.284-.249-.517-.558-.517Zm3 0h-.384c-.31 0-.558.233-.558.517v.466c0 .284.249.517.558.517h.384c.31 0 .558-.233.558-.517v-.466c0-.284-.249-.517-.558-.517Z"/>
</svg>
