<svg xmlns="http://www.w3.org/2000/svg" width="24" height="24" fill="currentColor" viewBox="0 0 24 24">
  <path fill-rule="evenodd" d="M7.536 1.5a.75.75 0 0 1 .75.75v.738h4.485V2.25a.75.75 0 0 1 1.5 0v2.975a.75.75 0 1 1-1.5 0v-.737H8.286v.737a.75.75 0 0 1-1.5 0V2.25a.75.75 0 0 1 .75-.75ZM3.24 4.753a.628.628 0 0 0-.24.516V6.75h15V5.328c0-.346-.363-.828-1.125-.828H16.5a.75.75 0 0 1 0-1.5h.375c1.348 0 2.625.931 2.625 2.328V9.75a.75.75 0 0 1-1.5 0v-1.5H3v10.327c0 .465.402.895.968.895H9.75a.75.75 0 0 1 0 1.5H3.968c-1.333 0-2.468-1.041-2.468-2.395V5.269c0-.677.29-1.27.792-1.68C2.782 3.19 3.431 3 4.125 3H4.5a.75.75 0 0 1 0 1.5h-.375c-.431 0-.72.118-.886.253ZM17.25 12A5.25 5.25 0 0 0 12 17.25a5.25 5.25 0 1 0 10.5 0A5.25 5.25 0 0 0 17.25 12Zm-3.75 5.25a3.75 3.75 0 1 1 7.499-.001 3.75 3.75 0 0 1-7.499.001Zm5.864-1.07a.75.75 0 0 0-1.228-.86l-1.487 2.12-.284-.407a.75.75 0 0 0-1.23.858l.897 1.288a.75.75 0 0 0 1.23.002l2.102-3Z" clip-rule="evenodd"/>
</svg>
