<svg xmlns="http://www.w3.org/2000/svg" width="24" height="24" fill="currentColor" viewBox="0 0 24 24">
  <path fill-rule="evenodd" d="M12.647 1.618c3.234 1.73 6.202 2.685 7.333 3.012l.009.002c.572.173 1.037.685 1.037 1.348v8.393c0 1.145-.518 2.185-1.22 3.072-.703.892-1.636 1.689-2.583 2.366-1.895 1.356-3.957 2.311-4.674 2.627l-.014.005a1.414 1.414 0 0 1-1.095 0l-.012-.005c-.721-.316-2.784-1.271-4.678-2.627-.946-.677-1.88-1.475-2.582-2.366-.7-.888-1.218-1.928-1.218-3.072V5.987c0-.65.452-1.182 1.046-1.35a39.595 39.595 0 0 0 7.325-3.018l-.005.002.364.656-.356-.66-.003.002a1.378 1.378 0 0 1 1.326-.001Zm-.662 1.347A41.123 41.123 0 0 1 4.45 6.066v8.307c0 .683.31 1.402.895 2.143.583.739 1.393 1.442 2.278 2.075 1.734 1.241 3.645 2.137 4.365 2.455.719-.319 2.628-1.214 4.362-2.455.885-.633 1.697-1.336 2.28-2.075.585-.742.896-1.46.896-2.143V6.06c-1.213-.353-4.237-1.334-7.541-3.095ZM9 11.374v4.252c1.824.165 4.183.165 6 0v-4.252a36.458 36.458 0 0 0-6 0Zm-.5-1.459c2.072-.22 4.918-.22 6.997 0l.014.002c.538.067.988.513.988 1.103v4.96c0 .604-.472 1.036-.983 1.102l-.018.002c-2.072.221-4.918.221-6.998 0l-.013-.001A1.115 1.115 0 0 1 7.5 15.98v-4.96c0-.604.472-1.036.983-1.102l.018-.003Zm2-2.083c0-.459.523-1.082 1.5-1.082.457 0 .843.148 1.112.366.27.224.388.478.388.716v.418a.75.75 0 0 0 1.5 0v-.418c0-.779-.397-1.43-.934-1.873l-.005-.004c-.552-.45-1.28-.705-2.061-.705-1.503 0-3 1.021-3 2.582v.418a.75.75 0 0 0 1.5 0v-.418Z" clip-rule="evenodd"/>
</svg>
