<svg xmlns="http://www.w3.org/2000/svg" width="24" height="24" fill="currentColor" viewBox="0 0 24 24">
  <path fill-rule="evenodd" d="M3.69 1.663a1.483 1.483 0 0 0-1.762.314 1.551 1.551 0 0 0-.263 1.763l4.09 8.262-4.083 8.26c-.615 1.25.645 2.757 2.02 2.08l8.672-4.319 9.288-4.628a.748.748 0 0 0 .113-.07 1.53 1.53 0 0 0 .736-1.322v-.011a1.528 1.528 0 0 0-.848-1.376l-9.289-4.63L3.69 1.664Zm15.872 9.587-7.868-3.92L3.02 3.003l-.003.003a.064.064 0 0 0-.016.03v.013c0 .004.002.013.009.027l4.046 8.173h12.506Zm-12.504 1.5-4.041 8.175a.097.097 0 0 0-.01.028v.01a.06.06 0 0 0 .022.034l8.665-4.317 7.887-3.93H7.058Z" clip-rule="evenodd"/>
</svg>
