<svg xmlns="http://www.w3.org/2000/svg" width="24" height="24" fill="currentColor" viewBox="0 0 24 24">
  <path fill-rule="evenodd" d="M13.857.836a.75.75 0 0 0-1.01.31l-.461.864a5.31 5.31 0 0 0-1.101.038l-.513-.834A.75.75 0 0 0 9.736.971l-2.533 1.58a.75.75 0 0 0-.242 1.029l.513.835c-.104.156-.2.316-.288.478-.091.169-.171.34-.24.512l-.97.031a.75.75 0 0 0-.726.773l.091 2.998a.75.75 0 0 0 .774.727l.974-.031c.16.332.353.65.58.948l-.487.9a.75.75 0 0 0 .312 1.022l2.649 1.386a.75.75 0 0 0 1.009-.31l.462-.865c.352.025.704.014 1.048-.03l.437.88a.75.75 0 0 0 1.04.32l2.69-1.514a.75.75 0 0 0 .282-1.03l-.592-1.02c.107-.159.205-.323.295-.489l.003-.005c.09-.168.168-.337.236-.506l.971-.032a.75.75 0 0 0 .726-.75V5.933a.75.75 0 0 0-.715-.75l-1.105-.052a5.513 5.513 0 0 0-.604-.996l.474-.917a.75.75 0 0 0-.319-1.01L13.857.837Zm-.39 2.334.353-.66 1.305.682-.362.699a.75.75 0 0 0 .119.857c.37.395.649.86.835 1.368a.75.75 0 0 0 .669.491l.864.041v1.435l-.757.024a.75.75 0 0 0-.694.533 4.095 4.095 0 0 1-.305.748 4.058 4.058 0 0 1-.447.67.75.75 0 0 0-.074.857l.459.79-1.34.754-.338-.68a.75.75 0 0 0-.852-.394 3.804 3.804 0 0 1-1.576.054.75.75 0 0 0-.793.385l-.353.661-1.317-.689.367-.68a.75.75 0 0 0-.112-.87 3.99 3.99 0 0 1-.835-1.368.75.75 0 0 0-.729-.491l-.736.024-.046-1.5.735-.024a.75.75 0 0 0 .694-.533 3.946 3.946 0 0 1 .752-1.417.75.75 0 0 0 .065-.874l-.39-.633 1.262-.787.389.631a.75.75 0 0 0 .819.335 3.804 3.804 0 0 1 1.576-.054.75.75 0 0 0 .793-.385ZM13.5 7.5a1.5 1.5 0 1 1-3 0 1.5 1.5 0 0 1 3 0Zm1.5 0a3 3 0 1 1-6 0 3 3 0 0 1 6 0Zm4.08 7.691c.951-.474 2.073-.036 2.499.932.408.921.068 2.076-.88 2.547l-.003.001-7.223 3.63c-.374.192-.808.25-1.225.151l-6.295-1.47-1.116.563a.75.75 0 1 1-.675-1.34l1.359-.684a.75.75 0 0 1 .508-.06l6.562 1.531.004.001a.288.288 0 0 0 .197-.027l.005-.003 7.234-3.637c.169-.083.288-.344.176-.595l-.001-.004c-.096-.218-.306-.27-.458-.193l-.008.004-4.79 2.33a1.761 1.761 0 0 1-2.327 1.273L9.91 19.134a.75.75 0 1 1 .522-1.406l2.711 1.006c.123.045.28-.011.338-.178.064-.186-.038-.357-.166-.404l-2.957-1.09-.01-.004a1.377 1.377 0 0 1-.172-.072l-2.16-1.074v-.001a1.49 1.49 0 0 0-1.343-.003l-.013.007-3.335 1.604a.75.75 0 0 1-.65-1.352l3.329-1.601a2.99 2.99 0 0 1 2.675 0l.003.001 2.153 1.072h.003l.015.006.003.001h.001l.014.006 2.963 1.093c.337.124.61.339.807.606l4.439-2.16Z" clip-rule="evenodd"/>
</svg>
