<svg xmlns="http://www.w3.org/2000/svg" width="24" height="24" fill="currentColor" viewBox="0 0 24 24">
  <path fill-rule="evenodd" d="M1.5 3.75A2.25 2.25 0 0 1 3.75 1.5H9a2.25 2.25 0 0 1 2.25 2.25V9A2.25 2.25 0 0 1 9 11.25H3.75A2.25 2.25 0 0 1 1.5 9V3.75ZM3.75 3a.75.75 0 0 0-.75.75V9c0 .414.336.75.75.75H9A.75.75 0 0 0 9.75 9V3.75A.75.75 0 0 0 9 3H3.75ZM1.5 15a2.25 2.25 0 0 1 2.25-2.25H9A2.25 2.25 0 0 1 11.25 15v5.25A2.25 2.25 0 0 1 9 22.5H3.75a2.25 2.25 0 0 1-2.25-2.25V15Zm2.25-.75A.75.75 0 0 0 3 15v5.25c0 .414.336.75.75.75H9a.75.75 0 0 0 .75-.75V15a.75.75 0 0 0-.75-.75H3.75Zm9-10.5A2.25 2.25 0 0 1 15 1.5h5.25a2.25 2.25 0 0 1 2.25 2.25V9a2.25 2.25 0 0 1-2.25 2.25H15A2.25 2.25 0 0 1 12.75 9V3.75ZM15 3a.75.75 0 0 0-.75.75V9c0 .414.336.75.75.75h5.25A.75.75 0 0 0 21 9V3.75a.75.75 0 0 0-.75-.75H15Zm-2.25 12A2.25 2.25 0 0 1 15 12.75h5.25A2.25 2.25 0 0 1 22.5 15v5.25a2.25 2.25 0 0 1-2.25 2.25H15a2.25 2.25 0 0 1-2.25-2.25V15Zm2.25-.75a.75.75 0 0 0-.75.75v5.25c0 .414.336.75.75.75h5.25a.75.75 0 0 0 .75-.75V15a.75.75 0 0 0-.75-.75H15Z" clip-rule="evenodd"/>
</svg>
