<svg xmlns="http://www.w3.org/2000/svg" width="24" height="24" fill="none" viewBox="0 0 24 24">
  <path fill="#3D3C3C" fill-rule="evenodd" d="M17.16 1.146a.75.75 0 0 1 1.008-.31l2.297 1.201a.75.75 0 0 1 .318 1.01l-.388.75c.186.25.345.514.479.79l.911.043a.75.75 0 0 1 .715.749v2.516a.75.75 0 0 1-.726.75l-.789.025a4.818 4.818 0 0 1-.188.396l-.003.005c-.07.13-.147.26-.23.387l.489.841a.75.75 0 0 1-.28 1.03l-2.356 1.325a.75.75 0 0 1-1.04-.32l-.352-.71a4.74 4.74 0 0 1-.809.022l-.375.703a.75.75 0 0 1-1.01.31l-2.317-1.212a.75.75 0 0 1-.312-1.021l.397-.735a4.913 4.913 0 0 1-.454-.743l-.791.026a.75.75 0 0 1-.774-.727l-.08-2.624a.75.75 0 0 1 .726-.772l.788-.026a5.155 5.155 0 0 1 .415-.776l-.418-.68a.75.75 0 0 1 .242-1.029L14.47.958a.75.75 0 0 1 1.035.243l.417.677c.284-.035.572-.045.862-.029l.375-.703Zm.971 1.363-.265.497a.75.75 0 0 1-.793.385 3.235 3.235 0 0 0-1.34.046.75.75 0 0 1-.819-.335l-.29-.472-.945.589.291.475a.75.75 0 0 1-.064.874 3.448 3.448 0 0 0-.64 1.206.75.75 0 0 1-.694.534l-.55.018.034 1.124.551-.018a.75.75 0 0 1 .729.492c.158.433.396.83.71 1.165a.75.75 0 0 1 .113.87l-.276.511.986.516.265-.496a.75.75 0 0 1 .793-.385c.449.08.907.06 1.34-.046a.75.75 0 0 1 .852.394l.251.506 1.004-.564-.354-.61a.75.75 0 0 1 .074-.858 3.46 3.46 0 0 0 .64-1.206.75.75 0 0 1 .694-.533L21 7.169V6.094l-.667-.031a.75.75 0 0 1-.668-.491 3.421 3.421 0 0 0-.712-1.166.75.75 0 0 1-.119-.857l.274-.529-.977-.51ZM3 5.64c0-.615.513-1.14 1.176-1.14H8.25a.75.75 0 0 0 0-1.5H4.176C2.71 3 1.5 4.17 1.5 5.64v10.47c0 1.472 1.211 2.64 2.676 2.64h7.074V21H7.5a.75.75 0 0 0 0 1.5h9a.75.75 0 1 0 0-1.5h-3.75v-2.25h7.074c1.465 0 2.676-1.168 2.676-2.64V13.5a.75.75 0 0 0-1.5 0v.75H3V5.64Zm0 10.11v.36c0 .617.513 1.14 1.176 1.14h15.648c.663 0 1.176-.523 1.176-1.14v-.36H3Zm14.25-9a.75.75 0 1 1-1.5 0 .75.75 0 0 1 1.5 0Zm1.5 0a2.25 2.25 0 1 1-4.5 0 2.25 2.25 0 0 1 4.5 0Z" clip-rule="evenodd"/>
</svg>
