<svg xmlns="http://www.w3.org/2000/svg" width="24" height="24" fill="currentColor" viewBox="0 0 24 24">
  <g clip-path="url(#a)">
    <path fill-rule="evenodd" d="M17.25 15a2.25 2.25 0 1 1 0 4.5 2.25 2.25 0 0 1 0-4.5Zm0 1.5a.75.75 0 1 0 0 1.5.75.75 0 0 0 0-1.5Z" clip-rule="evenodd"/>
    <path fill-rule="evenodd" d="M17.949 11.581a.75.75 0 0 1 .97-.245l2.296 1.2a.75.75 0 0 1 .318 1.01l-.389.75c.186.25.345.515.479.79l.912.044a.75.75 0 0 1 .715.749v2.516a.75.75 0 0 1-.726.75l-.79.025a4.804 4.804 0 0 1-.187.396l-.003.005a5.43 5.43 0 0 1-.23.385l.489.843a.75.75 0 0 1-.28 1.03l-2.355 1.325a.752.752 0 0 1-1.04-.32l-.354-.713a4.74 4.74 0 0 1-.807.024l-.376.704a.75.75 0 0 1-1.01.31l-2.317-1.212a.752.752 0 0 1-.313-1.021l.398-.737a4.915 4.915 0 0 1-.453-.742l-.792.027a.752.752 0 0 1-.774-.728l-.08-2.623a.75.75 0 0 1 .726-.772l.789-.027c.056-.133.12-.268.19-.4.07-.126.144-.251.223-.374l-.417-.68a.75.75 0 0 1 .242-1.03l2.217-1.382a.75.75 0 0 1 1.035.243l.418.678a4.74 4.74 0 0 1 .86-.03l.376-.703.04-.065Zm.667 1.925a.75.75 0 0 1-.793.384 3.237 3.237 0 0 0-1.34.046.75.75 0 0 1-.819-.334l-.291-.473-.944.59.291.475a.75.75 0 0 1-.064.874 3.374 3.374 0 0 0-.64 1.206.75.75 0 0 1-.694.534l-.55.017.034 1.125.551-.018.12.006a.75.75 0 0 1 .608.485c.159.433.398.83.712 1.166a.75.75 0 0 1 .112.869l-.277.512.986.516.266-.496.065-.101a.75.75 0 0 1 .728-.284c.448.08.907.06 1.34-.047a.751.751 0 0 1 .852.395l.25.506 1.004-.564-.353-.61a.75.75 0 0 1 .073-.858 3.455 3.455 0 0 0 .641-1.206l.044-.111a.75.75 0 0 1 .65-.423l.572-.019v-1.074l-.666-.032a.75.75 0 0 1-.67-.49 3.424 3.424 0 0 0-.711-1.166.751.751 0 0 1-.119-.857l.273-.53-.976-.51-.265.497ZM7.5 12a2.25 2.25 0 0 1 2.25 2.25v3A2.25 2.25 0 0 1 7.5 19.5h-3a2.25 2.25 0 0 1-2.25-2.25v-3A2.25 2.25 0 0 1 4.5 12h3Zm-3 1.5a.75.75 0 0 0-.75.75v3c0 .414.336.75.75.75h3a.75.75 0 0 0 .75-.75v-3a.75.75 0 0 0-.75-.75h-3ZM8.25.75A2.25 2.25 0 0 1 10.5 3v5.25a2.25 2.25 0 0 1-2.25 2.25H3A2.25 2.25 0 0 1 .75 8.25V3A2.25 2.25 0 0 1 3 .75h5.25ZM3 2.25a.75.75 0 0 0-.75.75v5.25c0 .414.336.75.75.75h5.25A.75.75 0 0 0 9 8.25V3a.75.75 0 0 0-.75-.75H3Zm14.25 0A2.25 2.25 0 0 1 19.5 4.5v3a2.25 2.25 0 0 1-2.25 2.25h-3A2.25 2.25 0 0 1 12 7.5v-3a2.25 2.25 0 0 1 2.25-2.25h3Zm-3 1.5a.75.75 0 0 0-.75.75v3c0 .414.336.75.75.75h3A.75.75 0 0 0 18 7.5v-3a.75.75 0 0 0-.75-.75h-3Z" clip-rule="evenodd"/>
  </g>
  <defs>
    <clipPath id="a">
      <path d="M0 0h24v24H0z"/>
    </clipPath>
  </defs>
</svg>
