<svg xmlns="http://www.w3.org/2000/svg" width="24" height="24" fill="currentColor" viewBox="0 0 24 24">
  <path fill-rule="evenodd" d="M3.316 2.25A.316.316 0 0 0 3 2.566v3.868c0 .175.141.316.316.316h3.868a.316.316 0 0 0 .316-.316V2.566a.316.316 0 0 0-.316-.316H3.316ZM1.5 2.566C1.5 1.563 2.313.75 3.316.75h3.868C8.187.75 9 1.563 9 2.566v3.868A1.816 1.816 0 0 1 7.184 8.25H3.316A1.816 1.816 0 0 1 1.5 6.434V2.566ZM12.05 3.75a.05.05 0 0 0-.05.05v2.9c0 .028.022.05.05.05h2.9A.05.05 0 0 0 15 6.7V3.8a.05.05 0 0 0-.05-.05h-2.9Zm-1.55.05c0-.856.694-1.55 1.55-1.55h2.9c.856 0 1.55.694 1.55 1.55v2.9a1.55 1.55 0 0 1-1.55 1.55h-2.9A1.55 1.55 0 0 1 10.5 6.7V3.8Zm-6.75 7.5a.05.05 0 0 1 .05-.05h2.9a.05.05 0 0 1 .05.05v2.9a.05.05 0 0 1-.05.05H3.8a.05.05 0 0 1-.05-.05v-2.9Zm.05-1.55a1.55 1.55 0 0 0-1.55 1.55v2.9c0 .856.694 1.55 1.55 1.55h2.9a1.55 1.55 0 0 0 1.55-1.55v-2.9A1.55 1.55 0 0 0 6.7 9.75H3.8Zm12.798-.354a.75.75 0 0 1 1.01-.31l2.623 1.373a.75.75 0 0 1 .319 1.009l-.474.917a5.5 5.5 0 0 1 .604.996l1.105.053a.75.75 0 0 1 .715.749v2.875a.75.75 0 0 1-.726.75l-.97.032c-.07.17-.148.338-.237.506l-.003.005c-.09.166-.188.33-.295.49l.592 1.019a.75.75 0 0 1-.281 1.03l-2.691 1.514a.75.75 0 0 1-1.04-.32l-.436-.88a5.301 5.301 0 0 1-1.05.03l-.46.864a.75.75 0 0 1-1.01.311l-2.649-1.386a.75.75 0 0 1-.312-1.021l.486-.9a5.507 5.507 0 0 1-.579-.95l-.974.032a.75.75 0 0 1-.774-.727l-.09-2.998a.75.75 0 0 1 .725-.773l.97-.031c.07-.172.149-.343.24-.512a6.07 6.07 0 0 1 .288-.478l-.513-.835a.75.75 0 0 1 .242-1.029l2.534-1.58a.75.75 0 0 1 1.035.243l.513.834c.362-.05.731-.064 1.101-.038l.462-.864Zm.972 1.363-.353.661a.75.75 0 0 1-.793.385 3.804 3.804 0 0 0-1.576.054.75.75 0 0 1-.82-.335l-.388-.63-1.261.786.389.633a.75.75 0 0 1-.065.874 3.946 3.946 0 0 0-.753 1.417.75.75 0 0 1-.693.533l-.735.024.046 1.5.736-.024a.75.75 0 0 1 .729.491c.186.508.465.973.835 1.369a.75.75 0 0 1 .112.869l-.367.68 1.317.69.353-.662a.75.75 0 0 1 .793-.385 3.804 3.804 0 0 0 1.576-.054.75.75 0 0 1 .852.395l.338.68 1.34-.754-.46-.79a.75.75 0 0 1 .075-.859 4.046 4.046 0 0 0 .752-1.417.75.75 0 0 1 .694-.533l.757-.024v-1.435l-.864-.04a.75.75 0 0 1-.669-.492 4.018 4.018 0 0 0-.835-1.368.75.75 0 0 1-.119-.857l.362-.7-1.305-.682Zm-.695 4.991a1.125 1.125 0 1 1-2.25 0 1.125 1.125 0 0 1 2.25 0Zm1.5 0a2.625 2.625 0 1 1-5.25 0 2.625 2.625 0 0 1 5.25 0Z" clip-rule="evenodd"/>
</svg>
