<svg xmlns="http://www.w3.org/2000/svg" width="24" height="24" fill="currentColor" viewBox="0 0 24 24">
  <path fill-rule="evenodd" d="M3.75 1.5A2.25 2.25 0 0 0 1.5 3.75v6A2.25 2.25 0 0 0 3.75 12h6A2.25 2.25 0 0 0 12 9.75v-6A2.25 2.25 0 0 0 9.75 1.5h-6ZM3 3.75A.75.75 0 0 1 3.75 3h6a.75.75 0 0 1 .75.75v6a.75.75 0 0 1-.75.75h-6A.75.75 0 0 1 3 9.75v-6Zm3 9.75a2.25 2.25 0 0 0-2.25 2.25v3.75A2.25 2.25 0 0 0 6 21.75h3.75A2.25 2.25 0 0 0 12 19.5v-3.75a2.25 2.25 0 0 0-2.25-2.25H6Zm-.75 2.25A.75.75 0 0 1 6 15h3.75a.75.75 0 0 1 .75.75v3.75a.75.75 0 0 1-.75.75H6a.75.75 0 0 1-.75-.75v-3.75ZM13.5 6a2.25 2.25 0 0 1 2.25-2.25h3.75A2.25 2.25 0 0 1 21.75 6v3.75A2.25 2.25 0 0 1 19.5 12h-3.75a2.25 2.25 0 0 1-2.25-2.25V6Zm2.25-.75A.75.75 0 0 0 15 6v3.75c0 .414.336.75.75.75h3.75a.75.75 0 0 0 .75-.75V6a.75.75 0 0 0-.75-.75h-3.75Zm0 8.25a2.25 2.25 0 0 0-2.25 2.25v3.75a2.25 2.25 0 0 0 2.25 2.25h3.75a2.25 2.25 0 0 0 2.25-2.25v-3.75a2.25 2.25 0 0 0-2.25-2.25h-3.75ZM15 15.75a.75.75 0 0 1 .75-.75h3.75a.75.75 0 0 1 .75.75v3.75a.75.75 0 0 1-.75.75h-3.75a.75.75 0 0 1-.75-.75v-3.75Z" clip-rule="evenodd"/>
</svg>
