<svg xmlns="http://www.w3.org/2000/svg" width="24" height="24" fill="currentColor" viewBox="0 0 24 24">
  <path fill-rule="evenodd" d="M5.25 1.5A2.25 2.25 0 0 0 3 3.75v16.5a2.25 2.25 0 0 0 2.25 2.25h13.5A2.25 2.25 0 0 0 21 20.25V3.75a2.25 2.25 0 0 0-2.25-2.25H5.25ZM4.5 3.75A.75.75 0 0 1 5.25 3h13.5a.75.75 0 0 1 .75.75v16.5a.75.75 0 0 1-.75.75H5.25a.75.75 0 0 1-.75-.75V3.75Zm9.168.086a.75.75 0 0 0-1.009.31l-.375.703a4.741 4.741 0 0 0-.862.03l-.417-.678a.75.75 0 0 0-1.035-.243L7.753 5.34a.75.75 0 0 0-.242 1.029l.417.68c-.08.123-.154.249-.222.375a4.433 4.433 0 0 0-.192.401l-.788.026A.75.75 0 0 0 6 8.623l.08 2.624a.75.75 0 0 0 .774.727l.791-.026c.128.259.28.508.454.743l-.397.735a.75.75 0 0 0 .312 1.02l2.318 1.214a.75.75 0 0 0 1.009-.311l.375-.703c.272.016.543.008.81-.023l.352.71a.75.75 0 0 0 1.04.32l2.354-1.323a.75.75 0 0 0 .281-1.03l-.489-.843c.083-.126.16-.255.23-.386l.003-.005c.07-.131.133-.263.188-.396l.79-.025a.75.75 0 0 0 .725-.75V8.379a.75.75 0 0 0-.715-.75l-.911-.042a4.907 4.907 0 0 0-.479-.79l.388-.75a.75.75 0 0 0-.318-1.01l-2.297-1.201Zm-.302 2.17.266-.497.976.511-.274.529a.75.75 0 0 0 .12.857c.314.336.552.733.71 1.166a.75.75 0 0 0 .67.49l.666.032v1.075l-.572.019a.75.75 0 0 0-.693.533 3.46 3.46 0 0 1-.64 1.206.75.75 0 0 0-.075.859l.354.609-1.004.564-.25-.506a.75.75 0 0 0-.853-.394 3.235 3.235 0 0 1-1.34.046.75.75 0 0 0-.793.385l-.266.496-.985-.516.276-.512a.75.75 0 0 0-.112-.869 3.421 3.421 0 0 1-.711-1.165.75.75 0 0 0-.729-.492l-.55.018-.035-1.124.55-.018a.75.75 0 0 0 .693-.534 3.36 3.36 0 0 1 .641-1.206.75.75 0 0 0 .064-.874l-.291-.475.944-.59.291.473a.75.75 0 0 0 .819.335 3.235 3.235 0 0 1 1.34-.046.75.75 0 0 0 .793-.385ZM7.5 17.25a.75.75 0 0 1 .75-.75h7.5a.75.75 0 0 1 0 1.5h-7.5a.75.75 0 0 1-.75-.75Zm0 2.25a.75.75 0 0 1 .75-.75h7.5a.75.75 0 0 1 0 1.5h-7.5a.75.75 0 0 1-.75-.75Zm4.5-9A.75.75 0 1 0 12 9a.75.75 0 0 0 0 1.5Zm0 1.5a2.25 2.25 0 1 0 0-4.5 2.25 2.25 0 0 0 0 4.5Z" clip-rule="evenodd"/>
</svg>
