<svg xmlns="http://www.w3.org/2000/svg" width="24" height="24" fill="currentColor" viewBox="0 0 24 24">
  <path fill-rule="evenodd" d="M4.5 4.122C4.5 3.492 5.005 3 5.582 3h12.086c.577 0 1.082.492 1.082 1.122V6.75a.75.75 0 0 0 1.5 0V4.122c0-1.427-1.146-2.622-2.582-2.622H5.582C4.146 1.5 3 2.695 3 4.122V6h-.75a.75.75 0 0 0 0 1.5h3a.75.75 0 0 0 0-1.5H4.5V4.122Zm0 15.34a.75.75 0 0 0-1.5 0v.416C3 21.305 4.146 22.5 5.582 22.5H6.75a.75.75 0 0 0 0-1.5H5.582c-.577 0-1.082-.492-1.082-1.122v-.416ZM2.25 11.25a.75.75 0 0 0 0 1.5h3a.75.75 0 0 0 0-1.5H4.5V9A.75.75 0 0 0 3 9v2.25h-.75Zm0 5.25a.75.75 0 0 0 0 1.5h3a.75.75 0 0 0 0-1.5H4.5v-2.25a.75.75 0 0 0-1.5 0v2.25h-.75Zm15.8-6a.05.05 0 0 0-.05.05v2.9c0 .028.022.05.05.05h2.9a.05.05 0 0 0 .05-.05v-2.9a.05.05 0 0 0-.05-.05h-2.9Zm-1.55.05c0-.856.694-1.55 1.55-1.55h2.9c.856 0 1.55.694 1.55 1.55v2.9A1.55 1.55 0 0 1 20.95 15h-2.9a1.55 1.55 0 0 1-1.55-1.55v-2.9ZM9 9.315C9 9.14 9.141 9 9.316 9h3.868c.175 0 .316.141.316.316v3.868a.316.316 0 0 1-.316.316H9.316A.316.316 0 0 1 9 13.184V9.316ZM9.316 7.5A1.816 1.816 0 0 0 7.5 9.316v3.868C7.5 14.187 8.313 15 9.316 15h3.868A1.816 1.816 0 0 0 15 13.184V9.316A1.816 1.816 0 0 0 13.184 7.5H9.316ZM18.049 18a.05.05 0 0 0-.049.05v2.9c0 .028.022.05.05.05h2.9a.05.05 0 0 0 .05-.05v-2.9a.05.05 0 0 0-.05-.05h-2.9Zm-1.549.05c0-.856.694-1.55 1.55-1.55h2.9c.856 0 1.55.694 1.55 1.55v2.9a1.55 1.55 0 0 1-1.55 1.55h-2.9a1.55 1.55 0 0 1-1.55-1.55v-2.9Zm-6 0a.05.05 0 0 1 .05-.05h2.9a.05.05 0 0 1 .05.05v2.9a.05.05 0 0 1-.05.05h-2.9a.05.05 0 0 1-.05-.05v-2.9Zm.05-1.55A1.55 1.55 0 0 0 9 18.05v2.9c0 .856.694 1.55 1.55 1.55h2.9A1.55 1.55 0 0 0 15 20.95v-2.9a1.55 1.55 0 0 0-1.55-1.55h-2.9Z" clip-rule="evenodd"/>
</svg>
