<svg xmlns="http://www.w3.org/2000/svg" width="24" height="24" fill="currentColor" viewBox="0 0 24 24">
  <path d="M16.5 12.75a4.5 4.5 0 0 1 3.667 7.106l2.113 2.114a.75.75 0 1 1-1.06 1.06l-2.114-2.113A4.5 4.5 0 1 1 16.5 12.75Zm-8.25 0A2.25 2.25 0 0 1 10.5 15v3a2.25 2.25 0 0 1-2.25 2.25h-3A2.25 2.25 0 0 1 3 18v-3a2.25 2.25 0 0 1 2.25-2.25h3Zm8.25 1.5a3 3 0 1 0 0 6 3 3 0 0 0 0-6Zm-11.25 0a.75.75 0 0 0-.75.75v3c0 .414.336.75.75.75h3A.75.75 0 0 0 9 18v-3a.75.75 0 0 0-.75-.75h-3ZM9 1.5a2.25 2.25 0 0 1 2.25 2.25V9A2.25 2.25 0 0 1 9 11.25H3.75A2.25 2.25 0 0 1 1.5 9V3.75A2.25 2.25 0 0 1 3.75 1.5H9Zm9 2.25A2.25 2.25 0 0 1 20.25 6v3A2.25 2.25 0 0 1 18 11.25h-3A2.25 2.25 0 0 1 12.75 9V6A2.25 2.25 0 0 1 15 3.75h3ZM3.75 3a.75.75 0 0 0-.75.75V9c0 .414.336.75.75.75H9A.75.75 0 0 0 9.75 9V3.75A.75.75 0 0 0 9 3H3.75ZM15 5.25a.75.75 0 0 0-.75.75v3c0 .414.336.75.75.75h3a.75.75 0 0 0 .75-.75V6a.75.75 0 0 0-.75-.75h-3Z"/>
</svg>
