<svg xmlns="http://www.w3.org/2000/svg" width="24" height="24" fill="currentColor" viewBox="0 0 24 24">
  <path fill-rule="evenodd" d="M1.5 7.5a.75.75 0 0 1 .75-.75H12a.75.75 0 0 1 0 1.5H2.25a.75.75 0 0 1-.75-.75Zm16.5 0a.75.75 0 0 1 .75-.75h3a.75.75 0 0 1 0 1.5h-3A.75.75 0 0 1 18 7.5ZM1.5 17.25a.75.75 0 0 1 .75-.75h1.753a.75.75 0 0 1 0 1.5H2.25a.75.75 0 0 1-.75-.75Zm9 0a.75.75 0 0 1 .75-.75h10.5a.75.75 0 0 1 0 1.5h-10.5a.75.75 0 0 1-.75-.75Z" clip-rule="evenodd"/>
  <path fill-rule="evenodd" d="M15.375 4.5a2.625 2.625 0 1 0 0 5.25 2.625 2.625 0 0 0 0-5.25ZM11.25 7.125a4.125 4.125 0 1 1 8.25 0 4.125 4.125 0 0 1-8.25 0ZM7.875 14.25a2.625 2.625 0 1 0 0 5.25 2.625 2.625 0 0 0 0-5.25ZM3.75 16.875a4.125 4.125 0 1 1 8.25 0 4.125 4.125 0 0 1-8.25 0Z" clip-rule="evenodd"/>
</svg>
