<svg xmlns="http://www.w3.org/2000/svg" width="24" height="24" fill="currentColor" viewBox="0 0 24 24">
  <path fill-rule="evenodd" d="M15.375 4.5a2.625 2.625 0 1 0 0 5.25 2.625 2.625 0 0 0 0-5.25ZM2.25 8.25h9.155a4.127 4.127 0 0 0 7.94 0h2.405a.75.75 0 0 0 0-1.5h-2.267a4.125 4.125 0 0 0-8.216 0H2.25a.75.75 0 0 0 0 1.5Zm-.75 9a.75.75 0 0 1 .75-.75h1.517a4.125 4.125 0 0 1 8.216 0h9.767a.75.75 0 0 1 0 1.5h-9.905a4.127 4.127 0 0 1-7.94 0H2.25a.75.75 0 0 1-.75-.75Zm3.75-.375a2.625 2.625 0 1 1 5.25 0 2.625 2.625 0 0 1-5.25 0Z" clip-rule="evenodd"/>
</svg>
