<svg xmlns="http://www.w3.org/2000/svg" width="24" height="24" fill="currentColor" viewBox="0 0 24 24">
  <path fill-rule="evenodd" d="M5.25 9.75a2.25 2.25 0 1 0 0 4.5 2.25 2.25 0 0 0 0-4.5ZM1.5 12A3.75 3.75 0 1 1 9 12a3.75 3.75 0 0 1-7.5 0Zm17.25-9a2.25 2.25 0 1 0 0 4.5 2.25 2.25 0 0 0 0-4.5ZM15 5.25a3.75 3.75 0 1 1 7.5 0 3.75 3.75 0 0 1-7.5 0Zm3.75 11.25a2.25 2.25 0 1 0 0 4.5 2.25 2.25 0 0 0 0-4.5ZM15 18.75a3.75 3.75 0 1 1 7.5 0 3.75 3.75 0 0 1-7.5 0Z" clip-rule="evenodd"/>
  <path fill-rule="evenodd" d="M17.143 7.114a.75.75 0 0 1-.257 1.03L10.458 12l6.428 3.857a.75.75 0 1 1-.772 1.286l-7.5-4.5a.75.75 0 0 1 0-1.286l7.5-4.5a.75.75 0 0 1 1.03.257Z" clip-rule="evenodd"/>
</svg>
