<svg xmlns="http://www.w3.org/2000/svg" width="24" height="24" fill="currentColor" viewBox="0 0 24 24">
  <path fill-rule="evenodd" d="M13.5 15.75a2.25 2.25 0 0 1 2.25-2.25h4.5a2.25 2.25 0 0 1 2.25 2.25v4.5a2.25 2.25 0 0 1-2.25 2.25h-4.5a2.25 2.25 0 0 1-2.25-2.25v-4.5Zm2.25-.75a.75.75 0 0 0-.75.75v4.5c0 .414.336.75.75.75h4.5a.75.75 0 0 0 .75-.75v-4.5a.75.75 0 0 0-.75-.75h-4.5ZM4.5 12a.75.75 0 0 1 .75.75v6.449c0 .16.13.301.313.301H10.5a.75.75 0 0 1 0 1.5H5.563c-.997 0-1.813-.8-1.813-1.801V12.75A.75.75 0 0 1 4.5 12Z" clip-rule="evenodd"/>
  <path fill-rule="evenodd" d="M8.47 18.22a.75.75 0 0 1 1.06 0l1.5 1.5a.75.75 0 0 1 0 1.06l-1.5 1.5a.75.75 0 0 1-1.06-1.06l.97-.97-.97-.97a.75.75 0 0 1 0-1.06Zm4.28-14.47A.75.75 0 0 1 13.5 3h4.837c.988 0 1.913.738 1.913 1.801v6.449a.75.75 0 0 1-1.5 0V4.801c0-.098-.11-.301-.413-.301H13.5a.75.75 0 0 1-.75-.75Z" clip-rule="evenodd"/>
  <path fill-rule="evenodd" d="M15.53 1.72a.75.75 0 0 1 0 1.06l-.97.97.97.97a.75.75 0 0 1-1.06 1.06l-1.5-1.5a.75.75 0 0 1 0-1.06l1.5-1.5a.75.75 0 0 1 1.06 0ZM6 3a3 3 0 1 0 0 6 3 3 0 0 0 0-6ZM1.5 6a4.5 4.5 0 1 1 9 0 4.5 4.5 0 0 1-9 0Z" clip-rule="evenodd"/>
</svg>
