<svg xmlns="http://www.w3.org/2000/svg" width="24" height="24" fill="currentColor" viewBox="0 0 24 24">
  <path fill-rule="evenodd" d="M16.5 5.25a2.25 2.25 0 1 1 4.5 0 2.25 2.25 0 0 1-4.5 0Zm2.25-3.75a3.75 3.75 0 0 0-3.205 5.698L8.91 11.18A3.751 3.751 0 0 0 1.5 12a3.75 3.75 0 0 0 7.41.82l6.635 3.982a3.75 3.75 0 1 0 1.048-1.12L10.459 12l6.136-3.682A3.75 3.75 0 1 0 18.75 1.5ZM3 12a2.25 2.25 0 1 1 4.5 0A2.25 2.25 0 0 1 3 12Zm15.75 4.5a2.25 2.25 0 1 0 0 4.5 2.25 2.25 0 0 0 0-4.5Z" clip-rule="evenodd"/>
</svg>
