<svg width="24" height="24" viewBox="0 0 24 24" fill="none" xmlns="http://www.w3.org/2000/svg">
<path fill-rule="evenodd" clip-rule="evenodd" d="M19.5 12C19.5 11.5858 19.8358 11.25 20.25 11.25H21.75C22.1642 11.25 22.5 11.5858 22.5 12C22.5 12.4142 22.1642 12.75 21.75 12.75H20.25C19.8358 12.75 19.5 12.4142 19.5 12Z" fill="black"/>
<path fill-rule="evenodd" clip-rule="evenodd" d="M1.5 12C1.5 11.5858 1.83579 11.25 2.25 11.25H3.75C4.16421 11.25 4.5 11.5858 4.5 12C4.5 12.4142 4.16421 12.75 3.75 12.75H2.25C1.83579 12.75 1.5 12.4142 1.5 12Z" fill="black"/>
<path fill-rule="evenodd" clip-rule="evenodd" d="M11.999 1.5C12.4132 1.5 12.749 1.83579 12.749 2.25V3.75C12.749 4.16421 12.4132 4.5 11.999 4.5C11.5848 4.5 11.249 4.16421 11.249 3.75V2.25C11.249 1.83579 11.5848 1.5 11.999 1.5Z" fill="black"/>
<path fill-rule="evenodd" clip-rule="evenodd" d="M19.6185 4.72902C19.9063 5.02698 19.898 5.50178 19.6 5.78952L18.521 6.83151C18.223 7.11924 17.7482 7.11096 17.4605 6.813C17.1728 6.51503 17.1811 6.04023 17.479 5.7525L18.558 4.71051C18.856 4.42277 19.3308 4.43106 19.6185 4.72902Z" fill="black"/>
<path fill-rule="evenodd" clip-rule="evenodd" d="M19.6185 18.813C19.9063 18.515 19.898 18.0402 19.6 17.7525L18.521 16.7105C18.223 16.4227 17.7482 16.431 17.4605 16.729C17.1728 17.027 17.1811 17.5018 17.479 17.7895L18.558 18.8315C18.856 19.1192 19.3308 19.1109 19.6185 18.813Z" fill="black"/>
<path fill-rule="evenodd" clip-rule="evenodd" d="M3.96045 4.72902C3.67271 5.02698 3.681 5.50178 3.97896 5.78952L5.05797 6.83151C5.35593 7.11924 5.83073 7.11096 6.11847 6.81299C6.40621 6.51503 6.39792 6.04023 6.09996 5.7525L5.02095 4.71051C4.72299 4.42277 4.24819 4.43106 3.96045 4.72902Z" fill="black"/>
<path fill-rule="evenodd" clip-rule="evenodd" d="M3.96045 18.813C3.67271 18.515 3.681 18.0402 3.97896 17.7525L5.05797 16.7105C5.35593 16.4227 5.83073 16.431 6.11847 16.729C6.40621 17.027 6.39792 17.5018 6.09996 17.7895L5.02095 18.8315C4.72299 19.1192 4.24819 19.1109 3.96045 18.813Z" fill="black"/>
<path fill-rule="evenodd" clip-rule="evenodd" d="M11.9532 5.2502C15.2642 5.22378 18 7.82366 18 11.0831C18 12.8354 17.1999 14.3971 15.9605 15.4597C15.3919 15.9492 15.0735 16.6415 15.0735 17.3623C15.0735 18.1526 14.4218 18.75 13.6651 18.75H10.3253C9.56859 18.75 8.91696 18.1526 8.91696 17.3623C8.91696 16.6416 8.59852 15.9492 8.02991 15.4597C6.7934 14.4001 6.00563 12.8431 6.00003 11.1043M11.9652 6.75015C9.47633 6.77032 7.49192 8.7467 7.50003 11.0991L7.50003 11.0993C7.5041 12.3764 8.08082 13.5282 9.00639 14.3211L9.00757 14.3221C9.87084 15.0648 10.3834 16.123 10.4154 17.25H13.5751C13.6071 16.123 14.1196 15.0648 14.9828 14.3221L14.9839 14.3212C15.9163 13.5219 16.5 12.3655 16.5 11.0831C16.5 8.70109 14.4881 6.73006 11.9652 6.75015M11.9532 5.2502L11.9531 5.2502L11.9532 5.2502ZM11.9531 5.2502C8.68506 5.27662 5.98903 7.88035 6.00003 11.1041L11.9531 5.2502Z" fill="black"/>
<path fill-rule="evenodd" clip-rule="evenodd" d="M9.75 17.25C10.1642 17.25 10.5 17.5858 10.5 18V20.3741C10.5 20.6982 10.777 21 11.1699 21H12.8301C13.223 21 13.5 20.6982 13.5 20.3741V18C13.5 17.5858 13.8358 17.25 14.25 17.25C14.6642 17.25 15 17.5858 15 18V20.3741C15 21.5708 14.0065 22.5 12.8301 22.5H11.1699C9.99348 22.5 9 21.5708 9 20.3741V18C9 17.5858 9.33579 17.25 9.75 17.25Z" fill="black"/>
</svg>
