<svg width="24" height="24" viewBox="0 0 24 24" fill="none" xmlns="http://www.w3.org/2000/svg">
<path fill-rule="evenodd" clip-rule="evenodd" d="M12 2.95001C7.00177 2.95001 2.94995 7.00183 2.94995 12C2.94995 16.9982 7.00177 21.05 12 21.05C16.9981 21.05 21.05 16.9982 21.05 12C21.05 7.00183 16.9981 2.95001 12 2.95001ZM1.44995 12C1.44995 6.17341 6.17335 1.45001 12 1.45001C17.8266 1.45001 22.55 6.17341 22.55 12C22.55 17.8266 17.8266 22.55 12 22.55C6.17335 22.55 1.44995 17.8266 1.44995 12Z" fill="black"/>
<path fill-rule="evenodd" clip-rule="evenodd" d="M8.625 7.5C8.00368 7.5 7.5 8.00368 7.5 8.625C7.5 9.24632 8.00368 9.75 8.625 9.75C9.24632 9.75 9.75 9.24632 9.75 8.625C9.75 8.00368 9.24632 7.5 8.625 7.5ZM6 8.625C6 7.17525 7.17525 6 8.625 6C10.0747 6 11.25 7.17525 11.25 8.625C11.25 10.0747 10.0747 11.25 8.625 11.25C7.17525 11.25 6 10.0747 6 8.625Z" fill="black"/>
<path fill-rule="evenodd" clip-rule="evenodd" d="M15.375 14.25C14.7537 14.25 14.25 14.7537 14.25 15.375C14.25 15.9963 14.7537 16.5 15.375 16.5C15.9963 16.5 16.5 15.9963 16.5 15.375C16.5 14.7537 15.9963 14.25 15.375 14.25ZM12.75 15.375C12.75 13.9253 13.9253 12.75 15.375 12.75C16.8247 12.75 18 13.9253 18 15.375C18 16.8247 16.8247 18 15.375 18C13.9253 18 12.75 16.8247 12.75 15.375Z" fill="black"/>
<path fill-rule="evenodd" clip-rule="evenodd" d="M17.0303 6.96967C17.3232 7.26256 17.3232 7.73744 17.0303 8.03033L8.03033 17.0303C7.73744 17.3232 7.26256 17.3232 6.96967 17.0303C6.67678 16.7374 6.67678 16.2626 6.96967 15.9697L15.9697 6.96967C16.2626 6.67678 16.7374 6.67678 17.0303 6.96967Z" fill="black"/>
</svg>
