<svg width="24" height="24" viewBox="0 0 24 24" fill="none" xmlns="http://www.w3.org/2000/svg">
<path fill-rule="evenodd" clip-rule="evenodd" d="M1.5 3.75C1.5 2.50736 2.50736 1.5 3.75 1.5H9C10.2426 1.5 11.25 2.50736 11.25 3.75V9C11.25 10.2426 10.2426 11.25 9 11.25H3.75C2.50736 11.25 1.5 10.2426 1.5 9V3.75ZM3.75 3C3.33579 3 3 3.33579 3 3.75V9C3 9.41421 3.33579 9.75 3.75 9.75H9C9.41421 9.75 9.75 9.41421 9.75 9V3.75C9.75 3.33579 9.41421 3 9 3H3.75Z" fill="black"/>
<path fill-rule="evenodd" clip-rule="evenodd" d="M1.5 15C1.5 13.7574 2.50736 12.75 3.75 12.75H9C10.2426 12.75 11.25 13.7574 11.25 15V20.25C11.25 21.4926 10.2426 22.5 9 22.5H3.75C2.50736 22.5 1.5 21.4926 1.5 20.25V15ZM3.75 14.25C3.33579 14.25 3 14.5858 3 15V20.25C3 20.6642 3.33579 21 3.75 21H9C9.41421 21 9.75 20.6642 9.75 20.25V15C9.75 14.5858 9.41421 14.25 9 14.25H3.75Z" fill="black"/>
<path fill-rule="evenodd" clip-rule="evenodd" d="M12.75 3.75C12.75 2.50736 13.7574 1.5 15 1.5H20.25C21.4926 1.5 22.5 2.50736 22.5 3.75V9C22.5 10.2426 21.4926 11.25 20.25 11.25H15C13.7574 11.25 12.75 10.2426 12.75 9V3.75ZM15 3C14.5858 3 14.25 3.33579 14.25 3.75V9C14.25 9.41421 14.5858 9.75 15 9.75H20.25C20.6642 9.75 21 9.41421 21 9V3.75C21 3.33579 20.6642 3 20.25 3H15Z" fill="black"/>
<path fill-rule="evenodd" clip-rule="evenodd" d="M12.75 15C12.75 13.7574 13.7574 12.75 15 12.75H20.25C21.4926 12.75 22.5 13.7574 22.5 15V20.25C22.5 21.4926 21.4926 22.5 20.25 22.5H15C13.7574 22.5 12.75 21.4926 12.75 20.25V15ZM15 14.25C14.5858 14.25 14.25 14.5858 14.25 15V20.25C14.25 20.6642 14.5858 21 15 21H20.25C20.6642 21 21 20.6642 21 20.25V15C21 14.5858 20.6642 14.25 20.25 14.25H15Z" fill="black"/>
</svg>
