<svg width="24" height="24" viewBox="0 0 24 24" fill="none" xmlns="http://www.w3.org/2000/svg">
<path fill-rule="evenodd" clip-rule="evenodd" d="M12 3C11.5858 3 11.25 3.33579 11.25 3.75C11.25 4.16421 11.5858 4.5 12 4.5C12.4142 4.5 12.75 4.16421 12.75 3.75C12.75 3.33579 12.4142 3 12 3ZM9.75 3.75C9.75 2.50736 10.7574 1.5 12 1.5C13.2426 1.5 14.25 2.50736 14.25 3.75C14.25 4.99264 13.2426 6 12 6C10.7574 6 9.75 4.99264 9.75 3.75Z" fill="black"/>
<path fill-rule="evenodd" clip-rule="evenodd" d="M12 19.5C11.5858 19.5 11.25 19.8358 11.25 20.25C11.25 20.6642 11.5858 21 12 21C12.4142 21 12.75 20.6642 12.75 20.25C12.75 19.8358 12.4142 19.5 12 19.5ZM9.75 20.25C9.75 19.0074 10.7574 18 12 18C13.2426 18 14.25 19.0074 14.25 20.25C14.25 21.4926 13.2426 22.5 12 22.5C10.7574 22.5 9.75 21.4926 9.75 20.25Z" fill="black"/>
<path fill-rule="evenodd" clip-rule="evenodd" d="M3.75 11.25C3.33579 11.25 3 11.5858 3 12C3 12.4142 3.33579 12.75 3.75 12.75C4.16421 12.75 4.5 12.4142 4.5 12C4.5 11.5858 4.16421 11.25 3.75 11.25ZM1.5 12C1.5 10.7574 2.50736 9.75 3.75 9.75C4.99264 9.75 6 10.7574 6 12C6 13.2426 4.99264 14.25 3.75 14.25C2.50736 14.25 1.5 13.2426 1.5 12Z" fill="black"/>
<path fill-rule="evenodd" clip-rule="evenodd" d="M20.25 11.25C19.8358 11.25 19.5 11.5858 19.5 12C19.5 12.4142 19.8358 12.75 20.25 12.75C20.6642 12.75 21 12.4142 21 12C21 11.5858 20.6642 11.25 20.25 11.25ZM18 12C18 10.7574 19.0074 9.75 20.25 9.75C21.4926 9.75 22.5 10.7574 22.5 12C22.5 13.2426 21.4926 14.25 20.25 14.25C19.0074 14.25 18 13.2426 18 12Z" fill="black"/>
<path fill-rule="evenodd" clip-rule="evenodd" d="M6 5.25C5.58579 5.25 5.25 5.58579 5.25 6C5.25 6.41421 5.58579 6.75 6 6.75C6.41421 6.75 6.75 6.41421 6.75 6C6.75 5.58579 6.41421 5.25 6 5.25ZM3.75 6C3.75 4.75736 4.75736 3.75 6 3.75C7.24264 3.75 8.25 4.75736 8.25 6C8.25 7.24264 7.24264 8.25 6 8.25C4.75736 8.25 3.75 7.24264 3.75 6Z" fill="black"/>
<path fill-rule="evenodd" clip-rule="evenodd" d="M18 5.25C17.5858 5.25 17.25 5.58579 17.25 6C17.25 6.41421 17.5858 6.75 18 6.75C18.4142 6.75 18.75 6.41421 18.75 6C18.75 5.58579 18.4142 5.25 18 5.25ZM15.75 6C15.75 4.75736 16.7574 3.75 18 3.75C19.2426 3.75 20.25 4.75736 20.25 6C20.25 7.24264 19.2426 8.25 18 8.25C16.7574 8.25 15.75 7.24264 15.75 6Z" fill="black"/>
<path fill-rule="evenodd" clip-rule="evenodd" d="M6.02317 17.2655C5.60898 17.2612 5.26974 17.5935 5.26545 18.0077C5.26116 18.4218 5.59346 18.7611 6.00765 18.7654C6.42184 18.7697 6.76108 18.4374 6.76537 18.0232C6.76966 17.609 6.43736 17.2697 6.02317 17.2655ZM3.76553 17.9921C3.77839 16.7496 4.79612 15.7527 6.0387 15.7655C7.28127 15.7784 8.27815 16.7961 8.26529 18.0387C8.25243 19.2813 7.23469 20.2782 5.99212 20.2653C4.74955 20.2524 3.75267 19.2347 3.76553 17.9921Z" fill="black"/>
<path fill-rule="evenodd" clip-rule="evenodd" d="M18 17.25C17.5858 17.25 17.25 17.5858 17.25 18C17.25 18.4142 17.5858 18.75 18 18.75C18.4142 18.75 18.75 18.4142 18.75 18C18.75 17.5858 18.4142 17.25 18 17.25ZM15.75 18C15.75 16.7574 16.7574 15.75 18 15.75C19.2426 15.75 20.25 16.7574 20.25 18C20.25 19.2426 19.2426 20.25 18 20.25C16.7574 20.25 15.75 19.2426 15.75 18Z" fill="black"/>
<path fill-rule="evenodd" clip-rule="evenodd" d="M13.7397 13.7396C14.0326 13.4467 14.5075 13.4467 14.8003 13.7396L17.3903 16.3296C17.6832 16.6225 17.6832 17.0974 17.3903 17.3903C17.0975 17.6832 16.6226 17.6832 16.3297 17.3903L13.7397 14.8003C13.4468 14.5074 13.4468 14.0325 13.7397 13.7396Z" fill="black"/>
<path fill-rule="evenodd" clip-rule="evenodd" d="M6.57316 6.53124C6.86799 6.24029 7.34285 6.24343 7.6338 6.53825L10.2638 9.20325C10.5547 9.49807 10.5516 9.97294 10.2568 10.2639C9.96197 10.5548 9.4871 10.5517 9.19615 10.2569L6.56615 7.59188C6.2752 7.29705 6.27834 6.82219 6.57316 6.53124Z" fill="black"/>
<path fill-rule="evenodd" clip-rule="evenodd" d="M17.4147 6.45938C17.7133 6.74647 17.7226 7.22125 17.4355 7.51983L14.8105 10.2498C14.5234 10.5484 14.0486 10.5577 13.7501 10.2706C13.4515 9.98353 13.4422 9.50875 13.7293 9.21017L16.3543 6.48017C16.6414 6.18159 17.1162 6.17228 17.4147 6.45938Z" fill="black"/>
<path fill-rule="evenodd" clip-rule="evenodd" d="M10.2604 13.7396C10.5533 14.0325 10.5533 14.5074 10.2604 14.8003L7.59539 17.4653C7.3025 17.7582 6.82763 17.7582 6.53473 17.4653C6.24184 17.1724 6.24184 16.6975 6.53473 16.4046L9.19973 13.7396C9.49263 13.4467 9.9675 13.4467 10.2604 13.7396Z" fill="black"/>
<path fill-rule="evenodd" clip-rule="evenodd" d="M12 4.875C12.4142 4.875 12.75 5.21079 12.75 5.625V8.785C12.75 9.19921 12.4142 9.535 12 9.535C11.5858 9.535 11.25 9.19921 11.25 8.785V5.625C11.25 5.21079 11.5858 4.875 12 4.875Z" fill="black"/>
<path fill-rule="evenodd" clip-rule="evenodd" d="M12 14.465C12.4142 14.465 12.75 14.8008 12.75 15.215V18.375C12.75 18.7892 12.4142 19.125 12 19.125C11.5858 19.125 11.25 18.7892 11.25 18.375V15.215C11.25 14.8008 11.5858 14.465 12 14.465Z" fill="black"/>
<path fill-rule="evenodd" clip-rule="evenodd" d="M14.465 12C14.465 11.5858 14.8008 11.25 15.215 11.25H18.375C18.7892 11.25 19.125 11.5858 19.125 12C19.125 12.4142 18.7892 12.75 18.375 12.75H15.215C14.8008 12.75 14.465 12.4142 14.465 12Z" fill="black"/>
<path fill-rule="evenodd" clip-rule="evenodd" d="M4.5 12C4.5 11.5858 4.83579 11.25 5.25 11.25H8.785C9.19922 11.25 9.535 11.5858 9.535 12C9.535 12.4142 9.19922 12.75 8.785 12.75H5.25C4.83579 12.75 4.5 12.4142 4.5 12Z" fill="black"/>
<path fill-rule="evenodd" clip-rule="evenodd" d="M12 9.75C10.7574 9.75 9.75 10.7574 9.75 12C9.75 13.2426 10.7574 14.25 12 14.25C13.2426 14.25 14.25 13.2426 14.25 12C14.25 10.7574 13.2426 9.75 12 9.75ZM8.25 12C8.25 9.92893 9.92893 8.25 12 8.25C14.0711 8.25 15.75 9.92893 15.75 12C15.75 14.0711 14.0711 15.75 12 15.75C9.92893 15.75 8.25 14.0711 8.25 12Z" fill="black"/>
</svg>
