<svg width="24" height="24" viewBox="0 0 24 24" fill="none" xmlns="http://www.w3.org/2000/svg">
<path fill-rule="evenodd" clip-rule="evenodd" d="M17.6609 3.57362C17.6609 3.57368 17.661 3.57355 17.6609 3.57362L8.22916 13.0079L7.51641 15.8444C7.51635 15.8447 7.51628 15.845 7.51622 15.8452C7.42204 16.2271 7.7721 16.5783 8.15565 16.4838C8.15593 16.4837 8.15622 16.4837 8.1565 16.4836L10.9944 15.7712L20.4263 6.3437C21.1913 5.57907 21.1913 4.33824 20.4263 3.57362L20.4245 3.57185C19.6678 2.81042 18.4271 2.80801 17.6609 3.57362ZM21.4876 2.51359C20.1422 1.16087 17.9501 1.1637 16.6005 2.51271L7.02186 12.0939C6.92599 12.1898 6.85791 12.3099 6.82487 12.4414L6.06112 15.481L6.0606 15.483C5.69308 16.9635 7.03789 18.3064 8.51757 17.9395L8.51965 17.939L11.5606 17.1756C11.6922 17.1425 11.8123 17.0745 11.9082 16.9786L21.4867 7.40461C22.8375 6.05443 22.8378 3.86413 21.4876 2.51359Z" fill="black"/>
<path fill-rule="evenodd" clip-rule="evenodd" d="M1.5 5.34197C1.5 3.6322 2.8822 2.25 4.59197 2.25H10.4576C10.8718 2.25 11.2076 2.58579 11.2076 3C11.2076 3.41421 10.8718 3.75 10.4576 3.75H4.59197C3.71063 3.75 3 4.46063 3 5.34197V19.408C3 20.2894 3.71063 21 4.59197 21H18.658C19.5394 21 20.25 20.2894 20.25 19.408V13.5424C20.25 13.1282 20.5858 12.7924 21 12.7924C21.4142 12.7924 21.75 13.1282 21.75 13.5424V19.408C21.75 21.1178 20.3678 22.5 18.658 22.5H4.59197C2.8822 22.5 1.5 21.1178 1.5 19.408V5.34197Z" fill="black"/>
</svg>
