<svg width="24" height="24" viewBox="0 0 24 24" fill="none" xmlns="http://www.w3.org/2000/svg">
<path fill-rule="evenodd" clip-rule="evenodd" d="M7.5 17.2501C7.5 16.8358 7.83579 16.5001 8.25 16.5001L10.5 16.5001C10.9142 16.5001 11.25 16.8358 11.25 17.2501C11.25 17.6643 10.9142 18.0001 10.5 18.0001L8.25 18.0001C7.83579 18.0001 7.5 17.6643 7.5 17.2501Z" fill="black"/>
<path fill-rule="evenodd" clip-rule="evenodd" d="M7.5 12.0001C7.5 11.5858 7.83579 11.2501 8.25 11.2501H10.5C10.9142 11.2501 11.25 11.5858 11.25 12.0001C11.25 12.4143 10.9142 12.7501 10.5 12.7501H8.25C7.83579 12.7501 7.5 12.4143 7.5 12.0001Z" fill="black"/>
<path fill-rule="evenodd" clip-rule="evenodd" d="M7.28479 5.25C6.61703 5.25 6 5.83733 6 6.65538V19.5946C6 20.4143 6.61206 21 7.28479 21H17.4652C18.133 21 18.75 20.4127 18.75 19.5946V6.65538C18.75 5.83574 18.1379 5.25 17.4652 5.25H15.75C15.3358 5.25 15 4.91421 15 4.5C15 4.08579 15.3358 3.75 15.75 3.75H17.4652C19.0476 3.75 20.25 5.09094 20.25 6.65538V19.5946C20.25 21.1607 19.0396 22.5 17.4652 22.5H7.28479C5.7024 22.5 4.5 21.1591 4.5 19.5946V6.65538C4.5 5.08934 5.71039 3.75 7.28479 3.75H8.625C9.03921 3.75 9.375 4.08579 9.375 4.5C9.375 4.91421 9.03921 5.25 8.625 5.25H7.28479Z" fill="black"/>
<path fill-rule="evenodd" clip-rule="evenodd" d="M9.75 3V6H15V3H9.75ZM8.25 2.97347C8.25 2.16725 8.89874 1.5 9.7158 1.5H15.0342C15.8513 1.5 16.5 2.16726 16.5 2.97347V6.02653C16.5 6.83274 15.8513 7.5 15.0342 7.5H9.7158C8.89874 7.5 8.25 6.83275 8.25 6.02653V2.97347Z" fill="black"/>
<path fill-rule="evenodd" clip-rule="evenodd" d="M16.9304 9.13588C17.2696 9.37361 17.3519 9.8413 17.1141 10.1805L15.0116 13.1805C14.871 13.3811 14.6414 13.5004 14.3964 13.5001C14.1515 13.4997 13.9222 13.3798 13.7821 13.1789L12.8846 11.8911C12.6478 11.5513 12.7313 11.0838 13.0711 10.8469C13.411 10.6101 13.8784 10.6936 14.1153 11.0334L14.3992 11.4408L15.8858 9.31962C16.1235 8.98042 16.5912 8.89816 16.9304 9.13588Z" fill="black"/>
<path fill-rule="evenodd" clip-rule="evenodd" d="M16.9304 14.3859C17.2696 14.6236 17.3519 15.0913 17.1141 15.4305L15.0116 18.4305C14.871 18.6311 14.6414 18.7504 14.3964 18.7501C14.1515 18.7497 13.9222 18.6298 13.7821 18.4289L12.8846 17.1411C12.6478 16.8013 12.7313 16.3338 13.0711 16.0969C13.411 15.8601 13.8784 15.9436 14.1153 16.2834L14.3992 16.6908L15.8858 14.5696C16.1235 14.2304 16.5912 14.1482 16.9304 14.3859Z" fill="black"/>
</svg>
