<svg width="24" height="24" viewBox="0 0 24 24" fill="none" xmlns="http://www.w3.org/2000/svg">
<path d="M5.43498 3.75H5.06502C4.75297 3.75 4.5 3.98215 4.5 4.26852V4.73148C4.5 5.01785 4.75297 5.25 5.06502 5.25H5.43498C5.74703 5.25 6 5.01785 6 4.73148V4.26852C6 3.98215 5.74703 3.75 5.43498 3.75Z" fill="black"/>
<path d="M7.68498 3.75H7.31502C7.00297 3.75 6.75 3.98215 6.75 4.26852V4.73148C6.75 5.01785 7.00297 5.25 7.31502 5.25H7.68498C7.99703 5.25 8.25 5.01785 8.25 4.73148V4.26852C8.25 3.98215 7.99703 3.75 7.68498 3.75Z" fill="black"/>
<path d="M9.93498 3.75H9.56502C9.25297 3.75 9 3.98215 9 4.26852V4.73148C9 5.01785 9.25297 5.25 9.56502 5.25H9.93498C10.247 5.25 10.5 5.01785 10.5 4.73148V4.26852C10.5 3.98215 10.247 3.75 9.93498 3.75Z" fill="black"/>
<path fill-rule="evenodd" clip-rule="evenodd" d="M1.44995 5.90198H22.55V19.581C22.55 21.1579 21.3639 22.55 19.763 22.55H4.23695C2.63604 22.55 1.44995 21.1579 1.44995 19.581V5.90198ZM2.94995 7.40198V19.581C2.94995 20.4541 3.58386 21.05 4.23695 21.05H19.763C20.416 21.05 21.05 20.4541 21.05 19.581V7.40198H2.94995Z" fill="black"/>
<path fill-rule="evenodd" clip-rule="evenodd" d="M1.44995 4.41901C1.44995 2.84213 2.63604 1.45001 4.23695 1.45001H19.763C21.3639 1.45001 22.55 2.84213 22.55 4.41901V7.40201H1.44995V4.41901ZM4.23695 2.95001C3.58386 2.95001 2.94995 3.5459 2.94995 4.41901V5.90201H21.05V4.41901C21.05 3.5459 20.416 2.95001 19.763 2.95001H4.23695Z" fill="black"/>
<path fill-rule="evenodd" clip-rule="evenodd" d="M9 16.5C10.6569 16.5 12 15.1569 12 13.5C12 11.8431 10.6569 10.5 9 10.5C7.34315 10.5 6 11.8431 6 13.5C6 15.1569 7.34315 16.5 9 16.5ZM9 18C11.4853 18 13.5 15.9853 13.5 13.5C13.5 11.0147 11.4853 9 9 9C6.51472 9 4.5 11.0147 4.5 13.5C4.5 15.9853 6.51472 18 9 18Z" fill="black"/>
<path fill-rule="evenodd" clip-rule="evenodd" d="M9 9.75C9.41421 9.75 9.75 10.0858 9.75 10.5V12.75H12C12.4142 12.75 12.75 13.0858 12.75 13.5C12.75 13.9142 12.4142 14.25 12 14.25H9.75C8.92157 14.25 8.25 13.5784 8.25 12.75V10.5C8.25 10.0858 8.58579 9.75 9 9.75Z" fill="black"/>
<path fill-rule="evenodd" clip-rule="evenodd" d="M15 15C15 14.5858 15.3358 14.25 15.75 14.25H18.75C19.1642 14.25 19.5 14.5858 19.5 15C19.5 15.4142 19.1642 15.75 18.75 15.75H15.75C15.3358 15.75 15 15.4142 15 15Z" fill="black"/>
<path fill-rule="evenodd" clip-rule="evenodd" d="M15 12C15 11.5858 15.3358 11.25 15.75 11.25H18.75C19.1642 11.25 19.5 11.5858 19.5 12C19.5 12.4142 19.1642 12.75 18.75 12.75H15.75C15.3358 12.75 15 12.4142 15 12Z" fill="black"/>
</svg>
