<svg width="24" height="24" viewBox="0 0 24 24" fill="none" xmlns="http://www.w3.org/2000/svg">
<path d="M12.1922 16.5H11.8078C11.4987 16.5 11.25 16.7325 11.25 17.0175V17.4825C11.25 17.7675 11.4987 18 11.8078 18H12.1922C12.5013 18 12.75 17.7675 12.75 17.4825V17.0175C12.75 16.7325 12.5013 16.5 12.1922 16.5Z" fill="black"/>
<path fill-rule="evenodd" clip-rule="evenodd" d="M12.1077 7.50359C11.2455 7.44415 10.5 8.14716 10.5 9.05341C10.5 9.46762 10.1642 9.80341 9.75 9.80341C9.33579 9.80341 9 9.46762 9 9.05341C9 7.32241 10.4384 5.88424 12.2121 6.00722L12.2133 6.00731C13.7 6.11274 14.892 7.33239 14.9923 8.83242C15.0744 10.0025 14.4949 11.0579 13.5919 11.6318L13.5915 11.6321C13.0656 11.9658 12.747 12.5375 12.747 13.1663V14.25C12.747 14.6642 12.4112 15 11.997 15C11.5828 15 11.247 14.6642 11.247 14.25V13.1663C11.247 12.0195 11.8321 10.9723 12.7873 10.3659M12.1077 7.50359C12.8296 7.55508 13.4446 8.1624 13.4957 8.93329L13.4957 8.93329L13.4959 8.93656C13.5387 9.54151 13.2396 10.0783 12.7873 10.3659" fill="black"/>
<path fill-rule="evenodd" clip-rule="evenodd" d="M12 21C16.9706 21 21 16.9706 21 12C21 7.02944 16.9706 3 12 3C7.02944 3 3 7.02944 3 12C3 16.9706 7.02944 21 12 21ZM12 22.5C17.799 22.5 22.5 17.799 22.5 12C22.5 6.20101 17.799 1.5 12 1.5C6.20101 1.5 1.5 6.20101 1.5 12C1.5 17.799 6.20101 22.5 12 22.5Z" fill="black"/>
</svg>
