<svg width="24" height="24" viewBox="0 0 24 24" fill="none" xmlns="http://www.w3.org/2000/svg">
<path fill-rule="evenodd" clip-rule="evenodd" d="M12 6.75C11.5858 6.75 11.25 7.08579 11.25 7.5C11.25 7.91421 11.5858 8.25 12 8.25C12.4142 8.25 12.75 7.91421 12.75 7.5C12.75 7.08579 12.4142 6.75 12 6.75ZM9.75 7.5C9.75 6.25736 10.7574 5.25 12 5.25C13.2426 5.25 14.25 6.25736 14.25 7.5C14.25 8.74264 13.2426 9.75 12 9.75C10.7574 9.75 9.75 8.74264 9.75 7.5Z" fill="black"/>
<path fill-rule="evenodd" clip-rule="evenodd" d="M10.8905 8.89032L8.22444 10.5163L7.44341 9.23566L10.1094 7.6097L10.8905 8.89032Z" fill="black"/>
<path fill-rule="evenodd" clip-rule="evenodd" d="M13.1095 8.99518L15.7756 10.6211L16.5566 9.34052L13.8906 7.71456L13.1095 8.99518Z" fill="black"/>
<path fill-rule="evenodd" clip-rule="evenodd" d="M17.25 9.75C16.8358 9.75 16.5 10.0858 16.5 10.5C16.5 10.9142 16.8358 11.25 17.25 11.25C17.6642 11.25 18 10.9142 18 10.5C18 10.0858 17.6642 9.75 17.25 9.75ZM15 10.5C15 9.25736 16.0074 8.25 17.25 8.25C18.4926 8.25 19.5 9.25736 19.5 10.5C19.5 11.7426 18.4926 12.75 17.25 12.75C16.0074 12.75 15 11.7426 15 10.5Z" fill="black"/>
<path fill-rule="evenodd" clip-rule="evenodd" d="M6.75 9.75C6.33579 9.75 6 10.0858 6 10.5C6 10.9142 6.33579 11.25 6.75 11.25C7.16421 11.25 7.5 10.9142 7.5 10.5C7.5 10.0858 7.16421 9.75 6.75 9.75ZM4.5 10.5C4.5 9.25736 5.50736 8.25 6.75 8.25C7.99264 8.25 9 9.25736 9 10.5C9 11.7426 7.99264 12.75 6.75 12.75C5.50736 12.75 4.5 11.7426 4.5 10.5Z" fill="black"/>
<path fill-rule="evenodd" clip-rule="evenodd" d="M4.17562 4.5C3.51288 4.5 3 5.0235 3 5.63948V16.1105C3 16.7265 3.51288 17.25 4.17562 17.25H19.8244C20.4871 17.25 21 16.7265 21 16.1105V5.63948C21 5.0235 20.4871 4.5 19.8244 4.5H4.17562ZM1.5 5.63948C1.5 4.1684 2.71138 3 4.17562 3H19.8244C21.2886 3 22.5 4.1684 22.5 5.63948V16.1105C22.5 17.5816 21.2886 18.75 19.8244 18.75H4.17562C2.71138 18.75 1.5 17.5816 1.5 16.1105V5.63948Z" fill="black"/>
<path fill-rule="evenodd" clip-rule="evenodd" d="M12 17.2824C12.4142 17.2824 12.75 17.6182 12.75 18.0324V21.2865C12.75 21.7007 12.4142 22.0365 12 22.0365C11.5858 22.0365 11.25 21.7007 11.25 21.2865V18.0324C11.25 17.6182 11.5858 17.2824 12 17.2824Z" fill="black"/>
<path fill-rule="evenodd" clip-rule="evenodd" d="M6.75 21.75C6.75 21.3358 7.08579 21 7.5 21L16.5 21C16.9142 21 17.25 21.3358 17.25 21.75C17.25 22.1642 16.9142 22.5 16.5 22.5L7.5 22.5C7.08579 22.5 6.75 22.1642 6.75 21.75Z" fill="black"/>
<path fill-rule="evenodd" clip-rule="evenodd" d="M1.5 15C1.5 14.5858 1.83579 14.25 2.25 14.25H21.2532C21.6674 14.25 22.0032 14.5858 22.0032 15C22.0032 15.4142 21.6674 15.75 21.2532 15.75H2.25C1.83579 15.75 1.5 15.4142 1.5 15Z" fill="black"/>
</svg>
