<svg width="24" height="24" viewBox="0 0 24 24" fill="none" xmlns="http://www.w3.org/2000/svg">
<path fill-rule="evenodd" clip-rule="evenodd" d="M11.6225 19.5001C11.6225 19.5 11.623 19.5 11.624 19.5L11.6225 19.5001ZM12 19.5H15L15 21C14.9973 21 14.9945 21 14.9916 21H12.0084C12.0056 21 12.0028 21 12 21L12 19.5ZM15.3775 19.5001C15.3775 19.5001 15.377 19.5001 15.3761 19.5L15.3775 19.5001ZM10.9811 18.1764C11.1987 18.035 11.4338 18 11.625 18H15.375C15.5663 18 15.8013 18.035 16.0189 18.1764C16.2504 18.3268 16.3725 18.5386 16.4328 18.7241C16.4873 18.8917 16.497 19.0539 16.5 19.158C16.502 19.2265 16.5011 19.315 16.5005 19.3833C16.5002 19.4109 16.5 19.4351 16.5 19.4534C16.5 19.4534 16.5 19.4534 16.5 19.4534L16.5 21.375C16.5 21.58 16.4545 21.8196 16.2993 22.0354C16.1429 22.2529 15.9342 22.364 15.7625 22.4206C15.6003 22.474 15.4412 22.4889 15.3265 22.495C15.2256 22.5003 15.117 22.5002 15.0294 22.5C15.0163 22.5 15.0037 22.5 14.9916 22.5H12.0084C11.9963 22.5 11.9837 22.5 11.9707 22.5C11.883 22.5002 11.7745 22.5003 11.6735 22.495C11.5589 22.4889 11.3997 22.474 11.2376 22.4206C11.0658 22.364 10.8571 22.2529 10.7007 22.0353C10.5455 21.8195 10.5 21.58 10.5 21.375C10.5 21.375 10.5 21.375 10.5 21.375L10.5 19.4535C10.5 19.4351 10.4998 19.4109 10.4995 19.3833C10.4989 19.315 10.498 19.2265 10.5 19.1579C10.503 19.0539 10.5127 18.8917 10.5672 18.7241C10.6276 18.5385 10.7496 18.3267 10.9811 18.1764Z" fill="black"/>
<path fill-rule="evenodd" clip-rule="evenodd" d="M4.5 12C3.77659 12 3 12.7264 3 13.875C3 15.0236 3.77659 15.75 4.5 15.75H6V12H4.5ZM1.5 13.875C1.5 12.1223 2.7403 10.5 4.5 10.5H7.5V17.25H4.5C2.7403 17.25 1.5 15.6277 1.5 13.875Z" fill="black"/>
<path fill-rule="evenodd" clip-rule="evenodd" d="M16.5 10.5H19.5C21.2597 10.5 22.5 12.1223 22.5 13.875C22.5 15.6277 21.2597 17.25 19.5 17.25H16.5V10.5ZM18 12V15.75H19.5C20.2234 15.75 21 15.0236 21 13.875C21 12.7264 20.2234 12 19.5 12H18Z" fill="black"/>
<path fill-rule="evenodd" clip-rule="evenodd" d="M12 3C8.778 3 6 6.01839 6 9.96428V11.25H4.5V9.96428C4.5 5.38386 7.76814 1.5 12 1.5C16.2319 1.5 19.5 5.38386 19.5 9.96428V11.25H18V9.96428C18 6.01839 15.222 3 12 3Z" fill="black"/>
<path fill-rule="evenodd" clip-rule="evenodd" d="M9.75112 21C7.52907 21 6 18.8217 6 16.5H7.5C7.5 18.323 8.65259 19.5 9.75112 19.5H11.25V21H9.75112Z" fill="black"/>
</svg>
