<svg width="24" height="24" viewBox="0 0 24 24" fill="none" xmlns="http://www.w3.org/2000/svg">
<path fill-rule="evenodd" clip-rule="evenodd" d="M3.23889 6.25282C3.08569 6.37743 3 6.54352 3 6.76884V20.0769C3 20.5421 3.40157 20.9722 3.96761 20.9722H11.7876C12.2018 20.9722 12.5376 21.308 12.5376 21.7222C12.5376 22.1364 12.2018 22.4722 11.7876 22.4722H3.96761C2.6345 22.4722 1.5 21.4306 1.5 20.0769V6.76884C1.5 6.09169 1.78931 5.49836 2.29236 5.08917C2.78284 4.6902 3.43101 4.5 4.125 4.5H4.5C4.91421 4.5 5.25 4.83579 5.25 5.25C5.25 5.66421 4.91421 6 4.5 6H4.125C3.69399 6 3.40466 6.11798 3.23889 6.25282Z" fill="black"/>
<path fill-rule="evenodd" clip-rule="evenodd" d="M15.75 5.25C15.75 4.83579 16.0858 4.5 16.5 4.5H16.875C18.2233 4.5 19.5 5.43108 19.5 6.8283V10.5C19.5 10.9142 19.1642 11.25 18.75 11.25C18.3358 11.25 18 10.9142 18 10.5V6.8283C18 6.48213 17.6366 6 16.875 6H16.5C16.0858 6 15.75 5.66421 15.75 5.25Z" fill="black"/>
<path fill-rule="evenodd" clip-rule="evenodd" d="M1.5 9C1.5 8.58579 1.83579 8.25 2.25 8.25H18C18.4142 8.25 18.75 8.58579 18.75 9C18.75 9.41421 18.4142 9.75 18 9.75H2.25C1.83579 9.75 1.5 9.41421 1.5 9Z" fill="black"/>
<path fill-rule="evenodd" clip-rule="evenodd" d="M6.78638 5.23761C6.78638 4.8234 7.12216 4.48761 7.53638 4.48761H13.5061C13.9203 4.48761 14.2561 4.8234 14.2561 5.23761C14.2561 5.65182 13.9203 5.98761 13.5061 5.98761H7.53638C7.12216 5.98761 6.78638 5.65182 6.78638 5.23761Z" fill="black"/>
<path fill-rule="evenodd" clip-rule="evenodd" d="M7.5 3C7.91421 3 8.25 3.33765 8.25 3.75416V6.74584C8.25 7.16235 7.91421 7.5 7.5 7.5C7.08579 7.5 6.75 7.16235 6.75 6.74584V3.75416C6.75 3.33765 7.08579 3 7.5 3Z" fill="black"/>
<path fill-rule="evenodd" clip-rule="evenodd" d="M13.5 3C13.9142 3 14.25 3.33765 14.25 3.75416V6.74584C14.25 7.16235 13.9142 7.5 13.5 7.5C13.0858 7.5 12.75 7.16235 12.75 6.74584V3.75416C12.75 3.33765 13.0858 3 13.5 3Z" fill="black"/>
<path fill-rule="evenodd" clip-rule="evenodd" d="M12 17.25C12 14.3543 14.3458 12 17.25 12C20.1542 12 22.5 14.3543 22.5 17.25C22.5 20.1465 20.1465 22.5 17.25 22.5C14.3458 22.5 12 20.1457 12 17.25ZM17.25 13.5C15.1758 13.5 13.5 15.1812 13.5 17.25C13.5 19.3188 15.1758 21 17.25 21C19.3181 21 21 19.3181 21 17.25C21 15.1812 19.3242 13.5 17.25 13.5Z" fill="black"/>
<path fill-rule="evenodd" clip-rule="evenodd" d="M19.1804 15.1358C19.5196 15.3735 19.6019 15.8412 19.3641 16.1804L17.2616 19.1804C17.121 19.381 16.8914 19.5003 16.6464 19.5C16.4015 19.4997 16.1722 19.3798 16.0321 19.1788L15.1346 17.891C14.8978 17.5512 14.9813 17.0837 15.3211 16.8469C15.661 16.6101 16.1284 16.6935 16.3653 17.0334L16.6492 17.4407L18.1358 15.3196C18.3735 14.9804 18.8412 14.8981 19.1804 15.1358Z" fill="black"/>
<path d="M6.19221 12H5.80779C5.49874 12 5.25 12.2325 5.25 12.5175V12.9825C5.25 13.2675 5.49874 13.5 5.80779 13.5H6.19221C6.50126 13.5 6.75 13.2675 6.75 12.9825V12.5175C6.75 12.2325 6.50126 12 6.19221 12Z" fill="black"/>
<path d="M9.19221 12H8.80779C8.49874 12 8.25 12.2325 8.25 12.5175V12.9825C8.25 13.2675 8.49874 13.5 8.80779 13.5H9.19221C9.50126 13.5 9.75 13.2675 9.75 12.9825V12.5175C9.75 12.2325 9.50126 12 9.19221 12Z" fill="black"/>
<path d="M6.19221 15H5.80779C5.49874 15 5.25 15.2325 5.25 15.5175V15.9825C5.25 16.2675 5.49874 16.5 5.80779 16.5H6.19221C6.50126 16.5 6.75 16.2675 6.75 15.9825V15.5175C6.75 15.2325 6.50126 15 6.19221 15Z" fill="black"/>
<path d="M9.19221 15H8.80779C8.49874 15 8.25 15.2325 8.25 15.5175V15.9825C8.25 16.2675 8.49874 16.5 8.80779 16.5H9.19221C9.50126 16.5 9.75 16.2675 9.75 15.9825V15.5175C9.75 15.2325 9.50126 15 9.19221 15Z" fill="black"/>
<path d="M6.19221 18H5.80779C5.49874 18 5.25 18.2325 5.25 18.5175V18.9825C5.25 19.2675 5.49874 19.5 5.80779 19.5H6.19221C6.50126 19.5 6.75 19.2675 6.75 18.9825V18.5175C6.75 18.2325 6.50126 18 6.19221 18Z" fill="black"/>
<path d="M9.19221 18H8.80779C8.49874 18 8.25 18.2325 8.25 18.5175V18.9825C8.25 19.2675 8.49874 19.5 8.80779 19.5H9.19221C9.50126 19.5 9.75 19.2675 9.75 18.9825V18.5175C9.75 18.2325 9.50126 18 9.19221 18Z" fill="black"/>
</svg>
