<svg width="24" height="24" viewBox="0 0 24 24" fill="none" xmlns="http://www.w3.org/2000/svg">
<path fill-rule="evenodd" clip-rule="evenodd" d="M4.5 5.25C4.5 3.17893 6.17893 1.5 8.25 1.5H15.75C17.8211 1.5 19.5 3.17893 19.5 5.25V6C19.5 6.41421 19.1642 6.75 18.75 6.75C18.3358 6.75 18 6.41421 18 6V5.25C18 4.00736 16.9926 3 15.75 3H8.25C7.00736 3 6 4.00736 6 5.25V18.75C6 19.9926 7.00736 21 8.25 21H15.75C16.9926 21 18 19.9926 18 18.75V18C18 17.5858 18.3358 17.25 18.75 17.25C19.1642 17.25 19.5 17.5858 19.5 18V18.75C19.5 20.8211 17.8211 22.5 15.75 22.5H8.25C6.17893 22.5 4.5 20.8211 4.5 18.75V5.25Z" fill="black"/>
<path fill-rule="evenodd" clip-rule="evenodd" d="M12 12.0336C12 11.6194 12.3358 11.2836 12.75 11.2836H20.9119C21.3261 11.2836 21.6619 11.6194 21.6619 12.0336C21.6619 12.4478 21.3261 12.7836 20.9119 12.7836H12.75C12.3358 12.7836 12 12.4478 12 12.0336Z" fill="black"/>
<path fill-rule="evenodd" clip-rule="evenodd" d="M17.4957 7.69485C17.8023 7.41634 18.2766 7.43912 18.5552 7.74572L21.9642 11.4987C22.2242 11.7848 22.224 12.2217 21.9639 12.5077L18.5548 16.2547C18.276 16.5611 17.8017 16.5835 17.4953 16.3048C17.1889 16.026 17.1665 15.5517 17.4452 15.2453L20.3955 12.0026L17.4449 8.75429C17.1663 8.44769 17.1891 7.97336 17.4957 7.69485Z" fill="black"/>
</svg>
