<svg width="24" height="24" viewBox="0 0 24 24" fill="none" xmlns="http://www.w3.org/2000/svg">
<path d="M3.18929 21H2.81071C2.50104 21 2.25 21.2333 2.25 21.521V21.979C2.25 22.2667 2.50104 22.5 2.81071 22.5H3.18929C3.49896 22.5 3.75 22.2667 3.75 21.979V21.521C3.75 21.2333 3.49896 21 3.18929 21Z" fill="black"/>
<path d="M5.43929 21H5.06071C4.75104 21 4.5 21.2333 4.5 21.521V21.979C4.5 22.2667 4.75104 22.5 5.06071 22.5H5.43929C5.74896 22.5 6 22.2667 6 21.979V21.521C6 21.2333 5.74896 21 5.43929 21Z" fill="black"/>
<path d="M7.68929 21H7.31071C7.00104 21 6.75 21.2333 6.75 21.521V21.979C6.75 22.2667 7.00104 22.5 7.31071 22.5H7.68929C7.99896 22.5 8.25 22.2667 8.25 21.979V21.521C8.25 21.2333 7.99896 21 7.68929 21Z" fill="black"/>
<path d="M9.93929 21H9.56071C9.25104 21 9 21.2333 9 21.521V21.979C9 22.2667 9.25104 22.5 9.56071 22.5H9.93929C10.249 22.5 10.5 22.2667 10.5 21.979V21.521C10.5 21.2333 10.249 21 9.93929 21Z" fill="black"/>
<path d="M12.1893 21H11.8107C11.501 21 11.25 21.2333 11.25 21.521V21.979C11.25 22.2667 11.501 22.5 11.8107 22.5H12.1893C12.499 22.5 12.75 22.2667 12.75 21.979V21.521C12.75 21.2333 12.499 21 12.1893 21Z" fill="black"/>
<path d="M14.4393 21H14.0607C13.751 21 13.5 21.2333 13.5 21.521V21.979C13.5 22.2667 13.751 22.5 14.0607 22.5H14.4393C14.749 22.5 15 22.2667 15 21.979V21.521C15 21.2333 14.749 21 14.4393 21Z" fill="black"/>
<path d="M16.6893 21H16.3107C16.001 21 15.75 21.2333 15.75 21.521V21.979C15.75 22.2667 16.001 22.5 16.3107 22.5H16.6893C16.999 22.5 17.25 22.2667 17.25 21.979V21.521C17.25 21.2333 16.999 21 16.6893 21Z" fill="black"/>
<path d="M18.9393 21H18.5607C18.251 21 18 21.2333 18 21.521V21.979C18 22.2667 18.251 22.5 18.5607 22.5H18.9393C19.249 22.5 19.5 22.2667 19.5 21.979V21.521C19.5 21.2333 19.249 21 18.9393 21Z" fill="black"/>
<path d="M21.1893 21H20.8107C20.501 21 20.25 21.2333 20.25 21.521V21.979C20.25 22.2667 20.501 22.5 20.8107 22.5H21.1893C21.499 22.5 21.75 22.2667 21.75 21.979V21.521C21.75 21.2333 21.499 21 21.1893 21Z" fill="black"/>
<path d="M3.18929 1.5H2.81071C2.50104 1.5 2.25 1.73327 2.25 2.02102V2.47898C2.25 2.76673 2.50104 3 2.81071 3H3.18929C3.49896 3 3.75 2.76673 3.75 2.47898V2.02102C3.75 1.73327 3.49896 1.5 3.18929 1.5Z" fill="black"/>
<path d="M5.43929 1.5H5.06071C4.75104 1.5 4.5 1.73327 4.5 2.02102V2.47898C4.5 2.76673 4.75104 3 5.06071 3H5.43929C5.74896 3 6 2.76673 6 2.47898V2.02102C6 1.73327 5.74896 1.5 5.43929 1.5Z" fill="black"/>
<path d="M7.68929 1.5H7.31071C7.00104 1.5 6.75 1.73327 6.75 2.02102V2.47898C6.75 2.76673 7.00104 3 7.31071 3H7.68929C7.99896 3 8.25 2.76673 8.25 2.47898V2.02102C8.25 1.73327 7.99896 1.5 7.68929 1.5Z" fill="black"/>
<path d="M9.93929 1.5H9.56071C9.25104 1.5 9 1.73327 9 2.02102V2.47898C9 2.76673 9.25104 3 9.56071 3H9.93929C10.249 3 10.5 2.76673 10.5 2.47898V2.02102C10.5 1.73327 10.249 1.5 9.93929 1.5Z" fill="black"/>
<path d="M12.1893 1.5H11.8107C11.501 1.5 11.25 1.73327 11.25 2.02102V2.47898C11.25 2.76673 11.501 3 11.8107 3H12.1893C12.499 3 12.75 2.76673 12.75 2.47898V2.02102C12.75 1.73327 12.499 1.5 12.1893 1.5Z" fill="black"/>
<path d="M14.4393 1.5H14.0607C13.751 1.5 13.5 1.73327 13.5 2.02102V2.47898C13.5 2.76673 13.751 3 14.0607 3H14.4393C14.749 3 15 2.76673 15 2.47898V2.02102C15 1.73327 14.749 1.5 14.4393 1.5Z" fill="black"/>
<path d="M16.6893 1.5H16.3107C16.001 1.5 15.75 1.73327 15.75 2.02102V2.47898C15.75 2.76673 16.001 3 16.3107 3H16.6893C16.999 3 17.25 2.76673 17.25 2.47898V2.02102C17.25 1.73327 16.999 1.5 16.6893 1.5Z" fill="black"/>
<path d="M18.9393 1.5H18.5607C18.251 1.5 18 1.73327 18 2.02102V2.47898C18 2.76673 18.251 3 18.5607 3H18.9393C19.249 3 19.5 2.76673 19.5 2.47898V2.02102C19.5 1.73327 19.249 1.5 18.9393 1.5Z" fill="black"/>
<path d="M21.1893 1.5H20.8107C20.501 1.5 20.25 1.73327 20.25 2.02102V2.47898C20.25 2.76673 20.501 3 20.8107 3H21.1893C21.499 3 21.75 2.76673 21.75 2.47898V2.02102C21.75 1.73327 21.499 1.5 21.1893 1.5Z" fill="black"/>
<path d="M2.43929 4.5H2.06071C1.75104 4.5 1.5 4.73327 1.5 5.02102V5.47898C1.5 5.76673 1.75104 6 2.06071 6H2.43929C2.74896 6 3 5.76673 3 5.47898V5.02102C3 4.73327 2.74896 4.5 2.43929 4.5Z" fill="black"/>
<path d="M2.43929 6.75H2.06071C1.75104 6.75 1.5 6.98327 1.5 7.27102V7.72898C1.5 8.01673 1.75104 8.25 2.06071 8.25H2.43929C2.74896 8.25 3 8.01673 3 7.72898V7.27102C3 6.98327 2.74896 6.75 2.43929 6.75Z" fill="black"/>
<path d="M2.43929 9H2.06071C1.75104 9 1.5 9.23327 1.5 9.52102V9.97898C1.5 10.2667 1.75104 10.5 2.06071 10.5H2.43929C2.74896 10.5 3 10.2667 3 9.97898V9.52102C3 9.23327 2.74896 9 2.43929 9Z" fill="black"/>
<path d="M2.43929 11.25H2.06071C1.75104 11.25 1.5 11.4833 1.5 11.771V12.229C1.5 12.5167 1.75104 12.75 2.06071 12.75H2.43929C2.74896 12.75 3 12.5167 3 12.229V11.771C3 11.4833 2.74896 11.25 2.43929 11.25Z" fill="black"/>
<path d="M2.43929 13.5H2.06071C1.75104 13.5 1.5 13.7333 1.5 14.021V14.479C1.5 14.7667 1.75104 15 2.06071 15H2.43929C2.74896 15 3 14.7667 3 14.479V14.021C3 13.7333 2.74896 13.5 2.43929 13.5Z" fill="black"/>
<path d="M2.43929 15.75H2.06071C1.75104 15.75 1.5 15.9833 1.5 16.271V16.729C1.5 17.0167 1.75104 17.25 2.06071 17.25H2.43929C2.74896 17.25 3 17.0167 3 16.729V16.271C3 15.9833 2.74896 15.75 2.43929 15.75Z" fill="black"/>
<path d="M2.43929 18H2.06071C1.75104 18 1.5 18.2333 1.5 18.521V18.979C1.5 19.2667 1.75104 19.5 2.06071 19.5H2.43929C2.74896 19.5 3 19.2667 3 18.979V18.521C3 18.2333 2.74896 18 2.43929 18Z" fill="black"/>
<path d="M21.9393 4.5H21.5607C21.251 4.5 21 4.73327 21 5.02102V5.47898C21 5.76673 21.251 6 21.5607 6H21.9393C22.249 6 22.5 5.76673 22.5 5.47898V5.02102C22.5 4.73327 22.249 4.5 21.9393 4.5Z" fill="black"/>
<path d="M21.9393 6.75H21.5607C21.251 6.75 21 6.98327 21 7.27102V7.72898C21 8.01673 21.251 8.25 21.5607 8.25H21.9393C22.249 8.25 22.5 8.01673 22.5 7.72898V7.27102C22.5 6.98327 22.249 6.75 21.9393 6.75Z" fill="black"/>
<path d="M21.9393 9H21.5607C21.251 9 21 9.23327 21 9.52102V9.97898C21 10.2667 21.251 10.5 21.5607 10.5H21.9393C22.249 10.5 22.5 10.2667 22.5 9.97898V9.52102C22.5 9.23327 22.249 9 21.9393 9Z" fill="black"/>
<path d="M21.9393 11.25H21.5607C21.251 11.25 21 11.4833 21 11.771V12.229C21 12.5167 21.251 12.75 21.5607 12.75H21.9393C22.249 12.75 22.5 12.5167 22.5 12.229V11.771C22.5 11.4833 22.249 11.25 21.9393 11.25Z" fill="black"/>
<path d="M21.9393 13.5H21.5607C21.251 13.5 21 13.7333 21 14.021V14.479C21 14.7667 21.251 15 21.5607 15H21.9393C22.249 15 22.5 14.7667 22.5 14.479V14.021C22.5 13.7333 22.249 13.5 21.9393 13.5Z" fill="black"/>
<path d="M21.9393 15.75H21.5607C21.251 15.75 21 15.9833 21 16.271V16.729C21 17.0167 21.251 17.25 21.5607 17.25H21.9393C22.249 17.25 22.5 17.0167 22.5 16.729V16.271C22.5 15.9833 22.249 15.75 21.9393 15.75Z" fill="black"/>
<path d="M21.9393 18H21.5607C21.251 18 21 18.2333 21 18.521V18.979C21 19.2667 21.251 19.5 21.5607 19.5H21.9393C22.249 19.5 22.5 19.2667 22.5 18.979V18.521C22.5 18.2333 22.249 18 21.9393 18Z" fill="black"/>
<path fill-rule="evenodd" clip-rule="evenodd" d="M8.52857 8.25C8.37472 8.25 8.25 8.37472 8.25 8.52857V15.4714C8.25 15.6253 8.37472 15.75 8.52857 15.75H15.4714C15.6253 15.75 15.75 15.6253 15.75 15.4714V8.52857C15.75 8.37472 15.6253 8.25 15.4714 8.25H8.52857ZM6.75 8.52857C6.75 7.54629 7.54629 6.75 8.52857 6.75H15.4714C16.4537 6.75 17.25 7.54629 17.25 8.52857V15.4714C17.25 16.4537 16.4537 17.25 15.4714 17.25H8.52857C7.54629 17.25 6.75 16.4537 6.75 15.4714V8.52857Z" fill="black"/>
</svg>
