<svg width="24" height="24" viewBox="0 0 24 24" fill="none" xmlns="http://www.w3.org/2000/svg">
<path fill-rule="evenodd" clip-rule="evenodd" d="M16.9757 5.2488C18.2284 6.33381 18.3459 8.23664 17.252 9.47719C16.2026 10.6843 14.3796 10.8439 13.1369 9.84446C13.0962 9.82063 13.0573 9.79263 13.0206 9.76043C11.7826 8.67273 11.6467 6.7714 12.7456 5.52527C13.8348 4.27382 15.7345 4.15171 16.9757 5.2488ZM15.9843 6.37441C15.3657 5.82591 14.4179 5.88725 13.876 6.51126L13.8718 6.51616L13.8718 6.51615C13.3489 7.10777 13.3847 8.00765 13.9351 8.56242C13.9648 8.582 13.9935 8.60392 14.0209 8.6282C14.6377 9.1752 15.5855 9.10933 16.1212 8.49169L16.1257 8.48644L16.1258 8.48646C16.6754 7.86447 16.6105 6.91508 15.9918 6.38098L15.9842 6.37446L15.9843 6.37441Z" fill="black"/>
<path fill-rule="evenodd" clip-rule="evenodd" d="M18.0436 4.395C15.6309 2.27995 11.9533 2.51695 9.84038 4.92113C8.34113 6.62482 8.02341 8.95466 8.81748 10.9212C8.92368 11.1842 8.87242 11.4846 8.68501 11.6976L2.95703 18.2051V21.057H5.92718L6.06505 19.183C6.09193 18.8177 6.37874 18.5252 6.74346 18.4913L8.31703 18.3446V16.697C8.31703 16.3162 8.60243 15.9958 8.98072 15.952L10.9905 15.7192L11.9831 14.5915C12.1699 14.3792 12.4603 14.2901 12.7341 14.361C14.796 14.8951 17.071 14.2793 18.5704 12.5821C20.6906 10.1697 20.4539 6.50781 18.0436 4.395ZM8.71368 3.93091C11.3747 0.90309 15.9992 0.608088 19.0324 3.26704C22.068 5.92801 22.3634 10.5396 19.6963 13.5732L19.6952 13.5745C17.9173 15.5875 15.2763 16.3879 12.8155 15.9161L11.926 16.9266C11.8034 17.0658 11.6336 17.1547 11.4493 17.176L9.81703 17.3651V19.028C9.81703 19.4153 9.52219 19.7389 9.1366 19.7748L7.51445 19.9259L7.37201 21.862C7.34318 22.2539 7.01689 22.557 6.62403 22.557H2.20703C1.79282 22.557 1.45703 22.2212 1.45703 21.807V17.922C1.45703 17.7396 1.52352 17.5634 1.64405 17.4265L7.2646 11.041C6.48066 8.66815 6.93658 5.9506 8.71368 3.93091Z" fill="black"/>
<path fill-rule="evenodd" clip-rule="evenodd" d="M8.75173 13.6925C9.05961 13.9696 9.08457 14.4438 8.80748 14.7517L5.43248 18.5017C5.15538 18.8096 4.68117 18.8346 4.37328 18.5575C4.0654 18.2804 4.04044 17.8062 4.31754 17.4983L7.69254 13.7483C7.96963 13.4404 8.44385 13.4154 8.75173 13.6925Z" fill="black"/>
</svg>
