<svg width="24" height="24" viewBox="0 0 24 24" fill="none" xmlns="http://www.w3.org/2000/svg">
<rect width="24" height="24" fill="white"/>
<path fill-rule="evenodd" clip-rule="evenodd" d="M18 3H6V6H18V3ZM6 1.5C5.17157 1.5 4.5 2.17157 4.5 3V6C4.5 6.82843 5.17157 7.5 6 7.5H18C18.8284 7.5 19.5 6.82843 19.5 6V3C19.5 2.17157 18.8284 1.5 18 1.5H6Z" fill="black"/>
<path fill-rule="evenodd" clip-rule="evenodd" d="M18 10.5H6V13.5H18V10.5ZM6 9C5.17157 9 4.5 9.67157 4.5 10.5V13.5C4.5 14.3284 5.17157 15 6 15H18C18.8284 15 19.5 14.3284 19.5 13.5V10.5C19.5 9.67157 18.8284 9 18 9H6Z" fill="black"/>
<path fill-rule="evenodd" clip-rule="evenodd" d="M18 18H6V21H18V18ZM6 16.5C5.17157 16.5 4.5 17.1716 4.5 18V21C4.5 21.8284 5.17157 22.5 6 22.5H18C18.8284 22.5 19.5 21.8284 19.5 21V18C19.5 17.1716 18.8284 16.5 18 16.5H6Z" fill="black"/>
<path fill-rule="evenodd" clip-rule="evenodd" d="M7.5 4.5C7.5 4.08579 7.83579 3.75 8.25 3.75H9C9.41421 3.75 9.75 4.08579 9.75 4.5C9.75 4.91421 9.41421 5.25 9 5.25H8.25C7.83579 5.25 7.5 4.91421 7.5 4.5Z" fill="black"/>
<path fill-rule="evenodd" clip-rule="evenodd" d="M11.25 4.5C11.25 4.08579 11.5858 3.75 12 3.75H15.75C16.1642 3.75 16.5 4.08579 16.5 4.5C16.5 4.91421 16.1642 5.25 15.75 5.25H12C11.5858 5.25 11.25 4.91421 11.25 4.5Z" fill="black"/>
<path fill-rule="evenodd" clip-rule="evenodd" d="M7.5 12C7.5 11.5858 7.83579 11.25 8.25 11.25H9C9.41421 11.25 9.75 11.5858 9.75 12C9.75 12.4142 9.41421 12.75 9 12.75H8.25C7.83579 12.75 7.5 12.4142 7.5 12Z" fill="black"/>
<path fill-rule="evenodd" clip-rule="evenodd" d="M11.25 12C11.25 11.5858 11.5858 11.25 12 11.25H15.75C16.1642 11.25 16.5 11.5858 16.5 12C16.5 12.4142 16.1642 12.75 15.75 12.75H12C11.5858 12.75 11.25 12.4142 11.25 12Z" fill="black"/>
<path fill-rule="evenodd" clip-rule="evenodd" d="M7.5 19.5C7.5 19.0858 7.83579 18.75 8.25 18.75H9C9.41421 18.75 9.75 19.0858 9.75 19.5C9.75 19.9142 9.41421 20.25 9 20.25H8.25C7.83579 20.25 7.5 19.9142 7.5 19.5Z" fill="black"/>
<path fill-rule="evenodd" clip-rule="evenodd" d="M11.25 19.5C11.25 19.0858 11.5858 18.75 12 18.75H15.75C16.1642 18.75 16.5 19.0858 16.5 19.5C16.5 19.9142 16.1642 20.25 15.75 20.25H12C11.5858 20.25 11.25 19.9142 11.25 19.5Z" fill="black"/>
</svg>
