<svg width="24" height="24" viewBox="0 0 24 24" fill="none" xmlns="http://www.w3.org/2000/svg">
<path fill-rule="evenodd" clip-rule="evenodd" d="M4.5 14.25C4.91421 14.25 5.25 14.5858 5.25 15V19.1987C5.25 19.3589 5.38061 19.5 5.56286 19.5H10.5C10.9142 19.5 11.25 19.8358 11.25 20.25C11.25 20.6642 10.9142 21 10.5 21H5.56286C4.56567 21 3.75 20.2008 3.75 19.1987V15C3.75 14.5858 4.08579 14.25 4.5 14.25Z" fill="black"/>
<path fill-rule="evenodd" clip-rule="evenodd" d="M8.46967 18.2197C8.76256 17.9268 9.23744 17.9268 9.53033 18.2197L11.0303 19.7197C11.3232 20.0126 11.3232 20.4874 11.0303 20.7803L9.53033 22.2803C9.23744 22.5732 8.76256 22.5732 8.46967 22.2803C8.17678 21.9874 8.17678 21.5126 8.46967 21.2197L9.43934 20.25L8.46967 19.2803C8.17678 18.9874 8.17678 18.5126 8.46967 18.2197Z" fill="black"/>
<path fill-rule="evenodd" clip-rule="evenodd" d="M12.75 3.75C12.75 3.33579 13.0858 3 13.5 3H18.3375C19.325 3 20.25 3.73772 20.25 4.80131V9C20.25 9.41421 19.9142 9.75 19.5 9.75C19.0858 9.75 18.75 9.41421 18.75 9V4.80131C18.75 4.70258 18.64 4.5 18.3375 4.5H13.5C13.0858 4.5 12.75 4.16421 12.75 3.75Z" fill="black"/>
<path fill-rule="evenodd" clip-rule="evenodd" d="M15.5303 1.71967C15.8232 2.01256 15.8232 2.48744 15.5303 2.78033L14.5607 3.75L15.5303 4.71967C15.8232 5.01256 15.8232 5.48744 15.5303 5.78033C15.2374 6.07322 14.7626 6.07322 14.4697 5.78033L12.9697 4.28033C12.829 4.13968 12.75 3.94891 12.75 3.75C12.75 3.55109 12.829 3.36032 12.9697 3.21967L14.4697 1.71967C14.7626 1.42678 15.2374 1.42678 15.5303 1.71967Z" fill="black"/>
<path fill-rule="evenodd" clip-rule="evenodd" d="M6.375 3C5.75368 3 5.25 3.50368 5.25 4.125C5.25 4.74632 5.75368 5.25 6.375 5.25C6.99632 5.25 7.5 4.74632 7.5 4.125C7.5 3.50368 6.99632 3 6.375 3ZM3.75 4.125C3.75 2.67525 4.92525 1.5 6.375 1.5C7.82475 1.5 9 2.67525 9 4.125C9 5.57475 7.82475 6.75 6.375 6.75C4.92525 6.75 3.75 5.57475 3.75 4.125Z" fill="black"/>
<path fill-rule="evenodd" clip-rule="evenodd" d="M1.50009 9.57526C1.48957 8.43927 2.40426 7.5 3.54557 7.5H9.2045C10.3528 7.5 11.25 8.44508 11.25 9.56906V9.5743H11.25L11.2358 11.6096C11.234 12.2311 10.7333 12.7431 10.1014 12.7431H10.0939L10.0939 12.7431C9.15409 12.7337 6.68192 12.7403 4.763 12.7455C3.87145 12.7479 3.09932 12.75 2.6558 12.75C2.03304 12.75 1.51606 12.2472 1.51431 11.6096C1.5143 11.6085 1.5143 11.6074 1.5143 11.6064H2.2643L1.51432 11.6116L1.51431 11.6096L1.5001 9.57642L2.25006 9.56906L1.50008 9.5743L1.50009 9.57526ZM3.54557 9C3.2494 9 2.99695 9.24793 3.00003 9.5617L3.00005 9.56382L3.01183 11.2497C3.45315 11.249 4.05869 11.2474 4.73567 11.2456C6.4457 11.241 8.61159 11.2351 9.7383 11.2405L9.75 9.56691C9.74887 9.2417 9.49338 9 9.2045 9H3.54557Z" fill="black"/>
<path fill-rule="evenodd" clip-rule="evenodd" d="M17.625 12.75C17.0037 12.75 16.5 13.2537 16.5 13.875C16.5 14.4963 17.0037 15 17.625 15C18.2463 15 18.75 14.4963 18.75 13.875C18.75 13.2537 18.2463 12.75 17.625 12.75ZM15 13.875C15 12.4253 16.1753 11.25 17.625 11.25C19.0747 11.25 20.25 12.4253 20.25 13.875C20.25 15.3247 19.0747 16.5 17.625 16.5C16.1753 16.5 15 15.3247 15 13.875Z" fill="black"/>
<path fill-rule="evenodd" clip-rule="evenodd" d="M12.7501 19.3257C12.7393 18.1889 13.6552 17.25 14.7967 17.25H20.4534C21.6017 17.25 22.5 18.1945 22.5 19.3191V19.3221H22.5L22.4929 21.0969L22.4927 21.1088C22.4777 21.8685 21.8598 22.4931 21.0874 22.4931H21.0841V22.4931C20.1073 22.4887 18.1873 22.4927 16.5242 22.4962C15.5817 22.4982 14.7217 22.5 14.1626 22.5C13.3943 22.5 12.7662 21.877 12.7643 21.1044L12.7501 19.3264C12.7501 19.3262 12.7501 19.3259 12.7501 19.3257ZM14.7967 18.75C14.4993 18.75 14.247 18.9986 14.25 19.3117L14.25 19.3131L14.2635 21C14.8159 20.9998 15.6248 20.9981 16.5086 20.9962C18.1224 20.9929 19.986 20.9889 20.9933 20.9927L21 19.3191C21 19.3186 21 19.3182 21 19.3178C20.9993 18.9928 20.7437 18.75 20.4534 18.75H14.7967Z" fill="black"/>
</svg>
