<svg width="24" height="24" viewBox="0 0 24 24" fill="none" xmlns="http://www.w3.org/2000/svg">
<path fill-rule="evenodd" clip-rule="evenodd" d="M9.75 3.80325C9.75 2.55741 10.7342 1.5 12 1.5C13.2658 1.5 14.25 2.55741 14.25 3.80325V5.25C14.25 5.66421 13.9142 6 13.5 6C13.0858 6 12.75 5.66421 12.75 5.25V3.80325C12.75 3.33608 12.3885 3 12 3C11.6115 3 11.25 3.33608 11.25 3.80325V5.25C11.25 5.66421 10.9142 6 10.5 6C10.0858 6 9.75 5.66421 9.75 5.25V3.80325Z" fill="black"/>
<path fill-rule="evenodd" clip-rule="evenodd" d="M7.12497 9.75C7.12497 6.91312 9.22282 4.5 12.0008 4.5C14.7793 4.5 16.875 6.91356 16.875 9.75V13.2316L19.1486 16.0016L19.1593 16.0159C19.5697 16.5673 19.5807 17.2455 19.3432 17.7718C19.1054 18.299 18.5781 18.75 17.8663 18.75H6.12678C5.41525 18.75 4.88848 18.3001 4.65257 17.77C4.41746 17.2417 4.43515 16.5672 4.8408 16.0181L4.8521 16.0028L7.12497 13.2318V9.75ZM12.0008 6C10.1758 6 8.62497 7.61126 8.62497 9.75V13.7682L6.04003 16.9197C5.99284 16.9909 5.98718 17.0797 6.02298 17.1601C6.041 17.2006 6.06404 17.2246 6.08014 17.236C6.09261 17.2449 6.10499 17.25 6.12678 17.25H17.8663C17.8874 17.25 17.9007 17.245 17.9149 17.2349C17.9328 17.2223 17.9571 17.1967 17.976 17.1549C18.0136 17.0715 18.0059 16.9858 17.9626 16.9209L15.375 13.7684V9.75C15.375 7.61083 13.8255 6 12.0008 6Z" fill="black"/>
<path fill-rule="evenodd" clip-rule="evenodd" d="M14.5172 19.5492C14.9042 19.6968 15.0983 20.1302 14.9507 20.5173C14.5031 21.6911 13.3388 22.5 12 22.5C10.6595 22.5 9.49683 21.6856 9.04961 20.5184C8.90141 20.1316 9.09482 19.6979 9.48162 19.5497C9.86841 19.4015 10.3021 19.5949 10.4503 19.9817C10.6707 20.5569 11.2682 21 12 21C12.7334 21 13.3292 20.5597 13.5492 19.9828C13.6968 19.5958 14.1302 19.4017 14.5172 19.5492Z" fill="black"/>
</svg>
