<svg width="24" height="24" viewBox="0 0 24 24" fill="none" xmlns="http://www.w3.org/2000/svg">
<path fill-rule="evenodd" clip-rule="evenodd" d="M9.44444 2.79207C9.44444 2.08205 10.0253 1.5 10.7361 1.5H11.25C11.6642 1.5 12 1.83579 12 2.25C12 2.66421 11.6642 3 11.25 3H10.9444V4.6351C10.9444 4.97983 10.7094 5.28016 10.3748 5.36308C9.68846 5.53317 9.04491 5.80046 8.46241 6.1567C8.1667 6.33754 7.78559 6.29219 7.54059 6.047L6.38833 4.89389L4.89916 6.38417L6.05219 7.53806C6.29692 7.78298 6.3422 8.16358 6.16176 8.45908C5.80574 9.04208 5.5386 9.68621 5.3686 10.3733C5.28578 10.708 4.98538 10.9431 4.64056 10.9431H3V13.0569H4.63333C4.97816 13.0569 5.27855 13.292 5.36138 13.6267C5.53138 14.3138 5.79852 14.9579 6.15453 15.5409C6.33498 15.8364 6.2897 16.217 6.04497 16.4619L4.89193 17.6158L6.38111 19.1061L7.53336 17.953C7.77837 17.7078 8.15948 17.6625 8.45519 17.8433C9.03769 18.1995 9.68123 18.4668 10.3676 18.6369C10.7022 18.7198 10.9372 19.0202 10.9372 19.3649V21H11.25C11.6642 21 12 21.3358 12 21.75C12 22.1642 11.6642 22.5 11.25 22.5H10.7289C10.018 22.5 9.43722 21.918 9.43722 21.2079V19.9307C9.00712 19.792 8.59106 19.6198 8.19283 19.4151L7.29442 20.3142C6.79203 20.817 5.97019 20.817 5.46781 20.3142L3.68392 18.529C3.18184 18.0266 3.18184 17.2051 3.68392 16.7026L4.58288 15.803C4.37817 15.4042 4.20599 14.9876 4.06727 14.5569H2.79167C2.08082 14.5569 1.5 13.9748 1.5 13.2648V10.7352C1.5 10.0252 2.08082 9.44311 2.79167 9.44311H4.07449C4.21321 9.0124 4.38539 8.59577 4.5901 8.197L3.69114 7.29737C3.18906 6.79492 3.18906 5.97343 3.69114 5.47098L5.47503 3.68577C5.97741 3.18301 6.79926 3.18301 7.30164 3.68577L8.20006 4.58485C8.59829 4.38018 9.01434 4.20801 9.44444 4.06927V2.79207Z" fill="black"/>
<path fill-rule="evenodd" clip-rule="evenodd" d="M15.75 6.75C15.75 6.33579 16.0858 6 16.5 6H18C18.4142 6 18.75 6.33579 18.75 6.75C18.75 7.16421 18.4142 7.5 18 7.5H17.25V9.75C17.25 10.1642 16.9142 10.5 16.5 10.5H11.25C10.8358 10.5 10.5 10.1642 10.5 9.75C10.5 9.33579 10.8358 9 11.25 9H15.75V6.75Z" fill="black"/>
<path fill-rule="evenodd" clip-rule="evenodd" d="M14.25 5.25C14.6642 5.25 15 5.58579 15 6V7.5C15 7.91421 14.6642 8.25 14.25 8.25H11.25C9.82048 8.25 8.90954 8.87061 8.33437 9.6375C7.73531 10.4363 7.5 11.4008 7.5 12C7.5 12.6517 7.66744 13.6099 8.20817 14.3824C8.71858 15.1116 9.60999 15.75 11.25 15.75H14.25C14.6642 15.75 15 16.0858 15 16.5V18C15 18.4142 14.6642 18.75 14.25 18.75C13.8358 18.75 13.5 18.4142 13.5 18V17.25H11.25C9.14001 17.25 7.78142 16.3884 6.97933 15.2426C6.20756 14.1401 6 12.8483 6 12C6 11.0992 6.32719 9.81374 7.13438 8.7375C7.96546 7.62939 9.30452 6.75 11.25 6.75H13.5V6C13.5 5.58579 13.8358 5.25 14.25 5.25Z" fill="black"/>
<path fill-rule="evenodd" clip-rule="evenodd" d="M8.86509 10.1249C9.38938 9.45521 10.2519 9 11.52 9C11.9342 9 12.27 9.33579 12.27 9.75C12.27 10.1642 11.9342 10.5 11.52 10.5C10.6431 10.5 10.2456 10.7948 10.0462 11.0496C9.81897 11.3397 9.75 11.7073 9.75 11.9477C9.75 12.1915 9.82066 12.5933 10.0582 12.914C10.2657 13.194 10.6625 13.5 11.52 13.5H16.5C16.9142 13.5 17.25 13.8358 17.25 14.25V16.5H18.75C19.1642 16.5 19.5 16.8358 19.5 17.25C19.5 17.6642 19.1642 18 18.75 18H16.5C16.0858 18 15.75 17.6642 15.75 17.25V15H11.52C10.2325 15 9.3693 14.5037 8.85303 13.807C8.36684 13.1508 8.25 12.4016 8.25 11.9477C8.25 11.4904 8.36853 10.7591 8.86509 10.1249Z" fill="black"/>
<path fill-rule="evenodd" clip-rule="evenodd" d="M10.5 12C10.5 11.5858 10.8358 11.25 11.25 11.25H18.375C18.7892 11.25 19.125 11.5858 19.125 12C19.125 12.4142 18.7892 12.75 18.375 12.75H11.25C10.8358 12.75 10.5 12.4142 10.5 12Z" fill="black"/>
<path fill-rule="evenodd" clip-rule="evenodd" d="M14.25 3C13.8358 3 13.5 3.33579 13.5 3.75C13.5 4.16421 13.8358 4.5 14.25 4.5C14.6642 4.5 15 4.16421 15 3.75C15 3.33579 14.6642 3 14.25 3ZM12 3.75C12 2.50736 13.0074 1.5 14.25 1.5C15.4926 1.5 16.5 2.50736 16.5 3.75C16.5 4.99264 15.4926 6 14.25 6C13.0074 6 12 4.99264 12 3.75Z" fill="black"/>
<path fill-rule="evenodd" clip-rule="evenodd" d="M20.25 6C19.8358 6 19.5 6.33579 19.5 6.75C19.5 7.16421 19.8358 7.5 20.25 7.5C20.6642 7.5 21 7.16421 21 6.75C21 6.33579 20.6642 6 20.25 6ZM18 6.75C18 5.50736 19.0074 4.5 20.25 4.5C21.4926 4.5 22.5 5.50736 22.5 6.75C22.5 7.99264 21.4926 9 20.25 9C19.0074 9 18 7.99264 18 6.75Z" fill="black"/>
<path fill-rule="evenodd" clip-rule="evenodd" d="M20.25 11.25C19.8358 11.25 19.5 11.5858 19.5 12C19.5 12.4142 19.8358 12.75 20.25 12.75C20.6642 12.75 21 12.4142 21 12C21 11.5858 20.6642 11.25 20.25 11.25ZM18 12C18 10.7574 19.0074 9.75 20.25 9.75C21.4926 9.75 22.5 10.7574 22.5 12C22.5 13.2426 21.4926 14.25 20.25 14.25C19.0074 14.25 18 13.2426 18 12Z" fill="black"/>
<path fill-rule="evenodd" clip-rule="evenodd" d="M14.25 19.5C13.8358 19.5 13.5 19.8358 13.5 20.25C13.5 20.6642 13.8358 21 14.25 21C14.6642 21 15 20.6642 15 20.25C15 19.8358 14.6642 19.5 14.25 19.5ZM12 20.25C12 19.0074 13.0074 18 14.25 18C15.4926 18 16.5 19.0074 16.5 20.25C16.5 21.4926 15.4926 22.5 14.25 22.5C13.0074 22.5 12 21.4926 12 20.25Z" fill="black"/>
<path fill-rule="evenodd" clip-rule="evenodd" d="M20.25 16.5C19.8358 16.5 19.5 16.8358 19.5 17.25C19.5 17.6642 19.8358 18 20.25 18C20.6642 18 21 17.6642 21 17.25C21 16.8358 20.6642 16.5 20.25 16.5ZM18 17.25C18 16.0074 19.0074 15 20.25 15C21.4926 15 22.5 16.0074 22.5 17.25C22.5 18.4926 21.4926 19.5 20.25 19.5C19.0074 19.5 18 18.4926 18 17.25Z" fill="black"/>
</svg>
