<svg width="24" height="24" viewBox="0 0 24 24" fill="none" xmlns="http://www.w3.org/2000/svg">
<path d="M13.515 22.5C13.1175 22.5 12.735 22.3425 12.45 22.0575C12.0675 21.675 11.9175 21.1425 12.0525 20.6175H12.045L12.5025 18.795C12.5325 18.66 12.6075 18.54 12.6975 18.45L18.4425 12.69C19.365 11.7675 20.8725 11.7675 21.8025 12.69C22.7325 13.62 22.7325 15.12 21.8025 16.05L16.0575 21.795C15.96 21.8925 15.84 21.96 15.7125 21.99L13.89 22.4475C13.7625 22.4775 13.6425 22.4925 13.515 22.4925V22.5ZM13.5 20.9775C13.5 20.9775 13.5 20.9775 13.5 20.985L15.15 20.5875L20.745 14.9925C21.0825 14.655 21.0825 14.1 20.745 13.755C20.4 13.41 19.845 13.41 19.5075 13.755L13.905 19.3575L13.5 20.9775Z" fill="black"/>
<path fill-rule="evenodd" clip-rule="evenodd" d="M3 4.30373C3 2.73861 4.29241 1.5 5.85142 1.5H14.25L14.7742 1.71362L20.0242 6.84446L20.25 7.38085V10.125C20.25 10.5392 19.9142 10.875 19.5 10.875C19.0858 10.875 18.75 10.5392 18.75 10.125V7.69656L13.9444 3H5.85142C5.08819 3 4.5 3.59931 4.5 4.30373V19.6963C4.5 20.4007 5.08819 21 5.85142 21H9.75C10.1642 21 10.5 21.3358 10.5 21.75C10.5 22.1642 10.1642 22.5 9.75 22.5H5.85142C4.29241 22.5 3 21.2614 3 19.6963V4.30373Z" fill="black"/>
<path fill-rule="evenodd" clip-rule="evenodd" d="M14.25 1.5C14.6642 1.5 15 1.83579 15 2.25V6.45143C15 6.615 15.135 6.75 15.2986 6.75H19.5C19.9142 6.75 20.25 7.08579 20.25 7.5C20.25 7.91421 19.9142 8.25 19.5 8.25H15.2986C14.3066 8.25 13.5 7.44343 13.5 6.45143V2.25C13.5 1.83579 13.8358 1.5 14.25 1.5Z" fill="black"/>
<path fill-rule="evenodd" clip-rule="evenodd" d="M6 6C6 5.58579 6.33579 5.25 6.75 5.25H11.25C11.6642 5.25 12 5.58579 12 6C12 6.41421 11.6642 6.75 11.25 6.75H6.75C6.33579 6.75 6 6.41421 6 6ZM6 9C6 8.58579 6.33579 8.25 6.75 8.25H11.25C11.6642 8.25 12 8.58579 12 9C12 9.41421 11.6642 9.75 11.25 9.75H6.75C6.33579 9.75 6 9.41421 6 9ZM6 12C6 11.5858 6.33579 11.25 6.75 11.25H9.375C9.78921 11.25 10.125 11.5858 10.125 12C10.125 12.4142 9.78921 12.75 9.375 12.75H6.75C6.33579 12.75 6 12.4142 6 12Z" fill="black"/>
</svg>
