<svg width="24" height="24" viewBox="0 0 24 24" fill="none" xmlns="http://www.w3.org/2000/svg">
<path fill-rule="evenodd" clip-rule="evenodd" d="M12 4.5C8.38711 4.5 5.12173 5.8611 2.75981 8.05009C2.45601 8.33165 1.98148 8.31361 1.69992 8.00981C1.41836 7.70601 1.43639 7.23148 1.74019 6.94992C4.37864 4.50465 8.0079 3 12 3C15.9921 3 19.6214 4.50465 22.2598 6.94992C22.5636 7.23148 22.5816 7.70601 22.3001 8.00981C22.0185 8.31361 21.544 8.33165 21.2402 8.05009C18.8783 5.8611 15.6129 4.5 12 4.5Z" fill="black"/>
<path fill-rule="evenodd" clip-rule="evenodd" d="M12 9C9.5894 9 7.39648 10.0473 5.7986 11.7614C5.51616 12.0644 5.04158 12.081 4.73859 11.7986C4.43561 11.5162 4.41896 11.0416 4.7014 10.7386C6.55906 8.74585 9.13946 7.5 12 7.5C14.8605 7.5 17.4409 8.74585 19.2986 10.7386C19.581 11.0416 19.5644 11.5162 19.2614 11.7986C18.9584 12.081 18.4839 12.0644 18.2014 11.7614C16.6035 10.0473 14.4106 9 12 9Z" fill="black"/>
<path fill-rule="evenodd" clip-rule="evenodd" d="M12 13.5C10.7336 13.5 9.59361 13.9948 8.77109 14.7894C8.47318 15.0772 7.99838 15.069 7.71059 14.7711C7.4228 14.4732 7.431 13.9984 7.72891 13.7106C8.82533 12.6514 10.3368 12 12 12C13.6632 12 15.1747 12.6514 16.2711 13.7106C16.569 13.9984 16.5772 14.4732 16.2894 14.7711C16.0016 15.069 15.5268 15.0772 15.2289 14.7894C14.4064 13.9948 13.2664 13.5 12 13.5Z" fill="black"/>
<path fill-rule="evenodd" clip-rule="evenodd" d="M12 16.5C11.7989 16.5 11.6133 16.5812 11.4722 16.7222L11.4661 16.7283L11.4661 16.7283C11.3333 16.8581 11.25 17.0396 11.25 17.25C11.25 17.6636 11.5864 18 12 18C12.4136 18 12.75 17.6636 12.75 17.25C12.75 17.0489 12.6688 16.8633 12.5278 16.7222L12.5217 16.7161L12.5217 16.7161C12.3931 16.5845 12.2059 16.5 12 16.5ZM10.4146 15.6585C10.8211 15.2536 11.3811 15 12 15C12.6142 15 13.185 15.2504 13.5915 15.6646C13.9964 16.0711 14.25 16.6311 14.25 17.25C14.25 18.492 13.242 19.5 12 19.5C10.758 19.5 9.75 18.492 9.75 17.25C9.75 16.6279 10.0016 16.0638 10.4146 15.6585Z" fill="black"/>
</svg>
