<svg width="24" height="24" viewBox="0 0 24 24" fill="none" xmlns="http://www.w3.org/2000/svg">
<path fill-rule="evenodd" clip-rule="evenodd" d="M12 7.5C11.1716 7.5 10.5 8.17157 10.5 9C10.5 9.82843 11.1716 10.5 12 10.5C12.8284 10.5 13.5 9.82843 13.5 9C13.5 8.17157 12.8284 7.5 12 7.5ZM9 9C9 7.34315 10.3431 6 12 6C13.6569 6 15 7.34315 15 9C15 10.6569 13.6569 12 12 12C10.3431 12 9 10.6569 9 9Z" fill="black"/>
<path fill-rule="evenodd" clip-rule="evenodd" d="M4.85455 1.6489C5.18652 1.89662 5.25481 2.36656 5.00709 2.69853C3.75784 4.37262 3 6.49872 3 8.81681C3 11.1349 3.75784 13.261 5.00709 14.9351C5.25481 15.2671 5.18652 15.737 4.85455 15.9847C4.52258 16.2324 4.05264 16.1641 3.80491 15.8322C2.36616 13.9041 1.5 11.4646 1.5 8.81681C1.5 6.16901 2.36616 3.72947 3.80491 1.80144C4.05264 1.46947 4.52258 1.40117 4.85455 1.6489Z" fill="black"/>
<path fill-rule="evenodd" clip-rule="evenodd" d="M19.0456 1.65331C19.3752 1.40235 19.8457 1.46604 20.0967 1.79557C21.6048 3.77576 22.5 6.28147 22.5 8.99998C22.5 11.7185 21.6048 14.2242 20.0967 16.2044C19.8457 16.5339 19.3752 16.5976 19.0456 16.3466C18.7161 16.0957 18.6524 15.6251 18.9034 15.2956C20.2151 13.5732 21 11.3859 21 8.99998C21 6.61409 20.2151 4.4268 18.9034 2.70439C18.6524 2.37486 18.7161 1.90427 19.0456 1.65331Z" fill="black"/>
<path fill-rule="evenodd" clip-rule="evenodd" d="M7.65786 4.01984C7.99612 4.2589 8.07654 4.72692 7.83748 5.06518C7.15733 6.02758 6.75 7.24 6.75 8.56797C6.75 9.89594 7.15733 11.1084 7.83748 12.0708C8.07654 12.409 7.99612 12.877 7.65786 13.1161C7.31959 13.3552 6.85158 13.2747 6.61252 12.9365C5.75267 11.7198 5.25 10.2047 5.25 8.56797C5.25 6.93124 5.75267 5.41613 6.61252 4.19947C6.85158 3.8612 7.31959 3.78078 7.65786 4.01984Z" fill="black"/>
<path fill-rule="evenodd" clip-rule="evenodd" d="M16.0672 4.01984C16.4055 3.78078 16.8735 3.8612 17.1125 4.19947C17.9724 5.41613 18.4751 6.93124 18.4751 8.56797C18.4751 10.2047 17.9724 11.7198 17.1125 12.9365C16.8735 13.2747 16.4055 13.3552 16.0672 13.1161C15.7289 12.877 15.6485 12.409 15.8876 12.0708C16.5677 11.1084 16.9751 9.89594 16.9751 8.56797C16.9751 7.24 16.5677 6.02758 15.8876 5.06518C15.6485 4.72692 15.7289 4.2589 16.0672 4.01984Z" fill="black"/>
<path fill-rule="evenodd" clip-rule="evenodd" d="M12.3748 11.3504C12.7336 11.5574 12.8566 12.016 12.6496 12.3748L7.02464 22.1248C6.81765 22.4836 6.359 22.6066 6.00021 22.3996C5.64143 22.1927 5.51837 21.734 5.72536 21.3752L11.3504 11.6252C11.5574 11.2664 12.016 11.1434 12.3748 11.3504Z" fill="black"/>
<path fill-rule="evenodd" clip-rule="evenodd" d="M11.6252 11.3504C11.984 11.1434 12.4427 11.2664 12.6496 11.6252L18.2746 21.3752C18.4816 21.734 18.3586 22.1927 17.9998 22.3996C17.641 22.6066 17.1824 22.4836 16.9754 22.1248L11.3504 12.3748C11.1434 12.016 11.2664 11.5574 11.6252 11.3504Z" fill="black"/>
<path fill-rule="evenodd" clip-rule="evenodd" d="M7.5 18.75C7.5 18.3358 7.76279 18 8.08696 18H15.913C16.2372 18 16.5 18.3358 16.5 18.75C16.5 19.1642 16.2372 19.5 15.913 19.5H8.08696C7.76279 19.5 7.5 19.1642 7.5 18.75Z" fill="black"/>
</svg>
