<svg width="24" height="24" viewBox="0 0 24 24" fill="none" xmlns="http://www.w3.org/2000/svg">
<path fill-rule="evenodd" clip-rule="evenodd" d="M3.15 3C3.06716 3 3 3.06716 3 3.15V5.85C3 5.93284 3.06716 6 3.15 6H5.85C5.93284 6 6 5.93284 6 5.85V3.15C6 3.06716 5.93284 3 5.85 3H3.15ZM1.5 3.15C1.5 2.23873 2.23873 1.5 3.15 1.5H5.85C6.76127 1.5 7.5 2.23873 7.5 3.15V5.85C7.5 6.76127 6.76127 7.5 5.85 7.5H3.15C2.23873 7.5 1.5 6.76127 1.5 5.85V3.15Z" fill="black"/>
<path fill-rule="evenodd" clip-rule="evenodd" d="M3.15 18C3.06716 18 3 18.0672 3 18.15V20.85C3 20.9328 3.06716 21 3.15 21H5.85C5.93284 21 6 20.9328 6 20.85V18.15C6 18.0672 5.93284 18 5.85 18H3.15ZM1.5 18.15C1.5 17.2387 2.23873 16.5 3.15 16.5H5.85C6.76127 16.5 7.5 17.2387 7.5 18.15V20.85C7.5 21.7613 6.76127 22.5 5.85 22.5H3.15C2.23873 22.5 1.5 21.7613 1.5 20.85V18.15Z" fill="black"/>
<path fill-rule="evenodd" clip-rule="evenodd" d="M3.77539 12C3.77539 11.5858 4.11118 11.25 4.52539 11.25H13.2457C13.6599 11.25 13.9957 11.5858 13.9957 12C13.9957 12.4142 13.6599 12.75 13.2457 12.75H4.52539C4.11118 12.75 3.77539 12.4142 3.77539 12Z" fill="black"/>
<path fill-rule="evenodd" clip-rule="evenodd" d="M4.52539 6.26697C4.9396 6.26697 5.27539 6.60275 5.27539 7.01697V16.9831C5.27539 17.3973 4.9396 17.7331 4.52539 17.7331C4.11118 17.7331 3.77539 17.3973 3.77539 16.9831V7.01697C3.77539 6.60275 4.11118 6.26697 4.52539 6.26697Z" fill="black"/>
<path fill-rule="evenodd" clip-rule="evenodd" d="M14.4429 3C14.3598 3 14.25 3.07684 14.25 3.225V20.775C14.25 20.9232 14.3598 21 14.4429 21H20.8071C20.8902 21 21 20.9232 21 20.775V3.225C21 3.07684 20.8902 3 20.8071 3H14.4429ZM12.75 3.225C12.75 2.29621 13.4844 1.5 14.4429 1.5H20.8071C21.7656 1.5 22.5 2.29621 22.5 3.225V20.775C22.5 21.7038 21.7656 22.5 20.8071 22.5H14.4429C13.4844 22.5 12.75 21.7038 12.75 20.775V3.225Z" fill="black"/>
<path fill-rule="evenodd" clip-rule="evenodd" d="M15.75 6C15.75 5.58579 16.0858 5.25 16.5 5.25H18.75C19.1642 5.25 19.5 5.58579 19.5 6C19.5 6.41421 19.1642 6.75 18.75 6.75H16.5C16.0858 6.75 15.75 6.41421 15.75 6Z" fill="black"/>
<path fill-rule="evenodd" clip-rule="evenodd" d="M15.75 9C15.75 8.58579 16.0858 8.25 16.5 8.25H18.75C19.1642 8.25 19.5 8.58579 19.5 9C19.5 9.41421 19.1642 9.75 18.75 9.75H16.5C16.0858 9.75 15.75 9.41421 15.75 9Z" fill="black"/>
</svg>
