<svg width="24" height="24" viewBox="0 0 24 24" fill="none" xmlns="http://www.w3.org/2000/svg">
<path fill-rule="evenodd" clip-rule="evenodd" d="M12.6469 1.61793C15.8808 3.34763 18.8494 4.30251 19.9803 4.62951L19.989 4.63203L19.989 4.63208C20.5611 4.80506 21.026 5.31733 21.026 5.97999V14.373C21.026 15.5177 20.508 16.5575 19.8069 17.4455C19.1034 18.3365 18.1696 19.1339 17.2228 19.8112C15.3281 21.1667 13.2658 22.1221 12.549 22.4375L12.5354 22.4433C12.1828 22.5902 11.7931 22.5902 11.4405 22.4433L11.4282 22.438C10.7066 22.1221 8.64421 21.1666 6.75032 19.8111C5.80389 19.1338 4.87074 18.3363 4.16779 17.4452C3.46727 16.5572 2.94995 15.5175 2.94995 14.373V5.98699C2.94995 5.33786 3.4016 4.80513 3.99602 4.63638C5.1364 4.29958 8.10905 3.35113 11.3239 1.61691L11.68 2.27699L11.3157 1.62137C11.7292 1.39169 12.2326 1.39054 12.6469 1.61793ZM11.9847 2.96473C8.68861 4.73592 5.65443 5.70942 4.44995 6.06635V14.373C4.44995 15.0555 4.76038 15.7745 5.34546 16.5162C5.9281 17.2548 6.73839 17.958 7.62333 18.5914C9.3574 19.8325 11.2676 20.7281 11.9878 21.0455C12.7069 20.7271 14.616 19.8318 16.3501 18.5913C17.2355 17.9578 18.0465 17.2546 18.6296 16.516C19.2153 15.7742 19.526 15.0553 19.526 14.373V6.05955C18.3132 5.70677 15.2891 4.72637 11.9847 2.96473Z" fill="black"/>
<path fill-rule="evenodd" clip-rule="evenodd" d="M9 11.3736V15.6263C10.8243 15.7912 13.1827 15.7912 15 15.6264V11.3737C13.1757 11.2088 10.8173 11.2088 9 11.3736ZM8.50119 9.91547C10.5727 9.69483 13.4187 9.69487 15.4985 9.91543L15.5123 9.91702C16.0503 9.98417 16.5 10.4298 16.5 11.0196V15.9804C16.5 16.584 16.0277 17.0156 15.5166 17.0824L15.4988 17.0845C13.4273 17.3052 10.5813 17.3051 8.50153 17.0846L8.48775 17.083C7.94973 17.0158 7.5 16.5702 7.5 15.9804V11.0196C7.5 10.416 7.97234 9.98439 8.4834 9.91758L8.50119 9.91547Z" fill="black"/>
<path fill-rule="evenodd" clip-rule="evenodd" d="M12 6.75C11.0227 6.75 10.5 7.37299 10.5 7.83204V8.25C10.5 8.66421 10.1642 9 9.75 9C9.33579 9 9 8.66421 9 8.25V7.83204C9 6.27097 10.4974 5.25 12 5.25C12.7816 5.25 13.5087 5.5048 14.0616 5.95459L14.0664 5.95856L14.0664 5.95858C14.603 6.40266 15 7.0533 15 7.83204V8.25C15 8.66421 14.6642 9 14.25 9C13.8358 9 13.5 8.66421 13.5 8.25V7.83204C13.5 7.59448 13.3822 7.34035 13.1125 7.1162C12.8435 6.89833 12.457 6.75 12 6.75Z" fill="black"/>
</svg>
