<svg width="24" height="24" viewBox="0 0 24 24" fill="none" xmlns="http://www.w3.org/2000/svg">
<path fill-rule="evenodd" clip-rule="evenodd" d="M12 6C10.7574 6 9.75 7.00736 9.75 8.25C9.75 9.49264 10.7574 10.5 12 10.5C13.2426 10.5 14.25 9.49264 14.25 8.25C14.25 7.00736 13.2426 6 12 6ZM8.25 8.25C8.25 6.17893 9.92893 4.5 12 4.5C14.0711 4.5 15.75 6.17893 15.75 8.25C15.75 10.3211 14.0711 12 12 12C9.92893 12 8.25 10.3211 8.25 8.25Z" fill="black"/>
<path fill-rule="evenodd" clip-rule="evenodd" d="M6.75003 16.319L6.77261 19.4947C6.77555 19.9089 6.44216 20.247 6.02796 20.25C5.61375 20.2529 5.27559 19.9195 5.27264 19.5053L5.25006 16.3292C5.23963 14.7416 6.55858 13.5 8.1378 13.5H13.875C14.2892 13.5 14.625 13.8358 14.625 14.25C14.625 14.6642 14.2892 15 13.875 15H8.1378C7.33855 15 6.74563 15.6153 6.75003 16.319Z" fill="black"/>
<path fill-rule="evenodd" clip-rule="evenodd" d="M12 3C7.03133 3 3 7.03607 3 12.0037C3 16.9705 7.0306 21 12 21C12.7721 21 13.5139 20.9053 14.2197 20.7238C14.6209 20.6207 15.0297 20.8623 15.1328 21.2635C15.2359 21.6647 14.9943 22.0735 14.5931 22.1766C13.7629 22.39 12.8956 22.5 12 22.5C6.20271 22.5 1.5 17.7995 1.5 12.0037C1.5 6.20858 6.20197 1.5 12 1.5C17.7973 1.5 22.5 6.20054 22.5 11.9963C22.5 12.9031 22.3816 13.7764 22.17 14.6147C22.0686 15.0163 21.6608 15.2597 21.2592 15.1583C20.8576 15.0569 20.6142 14.6492 20.7156 14.2475C20.899 13.5211 21 12.7712 21 11.9963C21 7.0295 16.9694 3 12 3Z" fill="black"/>
<path fill-rule="evenodd" clip-rule="evenodd" d="M17.625 13.5C15.3468 13.5 13.5 15.3468 13.5 17.625C13.5 19.9032 15.3468 21.75 17.625 21.75C19.9032 21.75 21.75 19.9032 21.75 17.625C21.75 15.3468 19.9032 13.5 17.625 13.5ZM12 17.625C12 14.5184 14.5184 12 17.625 12C20.7316 12 23.25 14.5184 23.25 17.625C23.25 20.7316 20.7316 23.25 17.625 23.25C14.5184 23.25 12 20.7316 12 17.625Z" fill="black"/>
<path fill-rule="evenodd" clip-rule="evenodd" d="M19.994 15.9356C20.3057 16.2084 20.3372 16.6823 20.0644 16.994L17.4387 19.994C17.2962 20.1567 17.0905 20.25 16.8743 20.25C16.6581 20.25 16.4523 20.1567 16.3099 19.994L15.1856 18.7094C14.9128 18.3977 14.9444 17.9239 15.2561 17.6511C15.5677 17.3783 16.0416 17.4098 16.3144 17.7215L16.8743 18.3612L18.9356 16.0061C19.2084 15.6944 19.6823 15.6628 19.994 15.9356Z" fill="black"/>
</svg>
