<svg xmlns="http://www.w3.org/2000/svg" width="24" height="24" fill="currentColor" viewBox="0 0 24 24">
  <path d="M15.75 9a2.248 2.248 0 0 1 .75 4.368V15h1.63a2.248 2.248 0 0 1 4.37.75 2.25 2.25 0 0 1-4.37.75H16.5v1.63a2.248 2.248 0 0 1-.75 4.37 2.25 2.25 0 0 1-.75-4.37v-4.762A2.248 2.248 0 0 1 15.75 9Zm0 10.5a.75.75 0 1 0 0 1.5.75.75 0 0 0 0-1.5Zm2.571-18c1.88 0 3.429 1.499 3.429 3.377V10.5a.75.75 0 0 1-1.5 0V4.877C20.25 3.854 19.4 3 18.321 3H4.93C3.849 3 3 3.854 3 4.877v8.54c0 .511.195.884.494 1.14.312.265.785.443 1.381.443H6a.75.75 0 0 1 .75.75v2.148l3.27-2.724A.751.751 0 0 1 10.5 15h2.25a.75.75 0 0 1 0 1.5h-1.979l-3.273 2.727a.745.745 0 0 1-.066.05c-.53.35-1.12.231-1.506-.03A1.524 1.524 0 0 1 5.25 18v-1.5h-.375c-.884 0-1.723-.263-2.354-.8-.641-.55-1.021-1.345-1.021-2.284v-8.54C1.5 2.999 3.048 1.5 4.929 1.5H18.32ZM20.25 15a.75.75 0 1 0 0 1.5.75.75 0 0 0 0-1.5Zm-4.5-4.5a.75.75 0 1 0 0 1.5.75.75 0 0 0 0-1.5Z"/>
</svg>
