<svg width="24" height="24" viewBox="0 0 24 24" fill="none" xmlns="http://www.w3.org/2000/svg">
<rect width="24" height="24" fill="white"/>
<path fill-rule="evenodd" clip-rule="evenodd" d="M12.6574 1.66915C15.8762 3.38941 18.8309 4.3391 19.9565 4.6643L19.9652 4.66682L19.9652 4.66687C20.5357 4.83921 21 5.34994 21 6.01145V10.5C21 10.9142 20.6642 11.25 20.25 11.25C19.8358 11.25 19.5 10.9142 19.5 10.5V6.09373C18.2912 5.7422 15.2833 4.76737 11.9967 3.0168C8.71845 4.77686 5.70065 5.74485 4.5 6.10047V14.3594C4.5 15.4819 5.35193 16.6771 6.71537 17.8237C8.03999 18.9377 9.6677 19.8554 10.8364 20.4419C11.2066 20.6277 11.3561 21.0784 11.1703 21.4487C10.9845 21.8189 10.5338 21.9684 10.1636 21.7826C8.95267 21.1748 7.20539 20.1958 5.74991 18.9717C4.33326 17.7803 3 16.1962 3 14.3594V6.01841C3 5.37043 3.45113 4.8393 4.04389 4.67114C5.17856 4.33629 8.13572 3.39354 11.3343 1.66989C11.7458 1.44362 12.2457 1.44337 12.6574 1.66915Z" fill="black"/>
<path d="M13.515 22.5C13.1175 22.5 12.735 22.3425 12.45 22.0575C12.0675 21.675 11.9175 21.1425 12.0525 20.6175H12.045L12.5025 18.795C12.5325 18.66 12.6075 18.54 12.6975 18.45L18.4425 12.69C19.365 11.7675 20.8725 11.7675 21.8025 12.69C22.7325 13.62 22.7325 15.12 21.8025 16.05L16.0575 21.795C15.96 21.8925 15.84 21.96 15.7125 21.99L13.89 22.4475C13.7625 22.4775 13.6425 22.4925 13.515 22.4925V22.5ZM13.5 20.9775C13.5 20.9775 13.5 20.9775 13.5 20.985L15.15 20.5875L20.745 14.9925C21.0825 14.655 21.0825 14.1 20.745 13.755C20.4 13.41 19.845 13.41 19.5075 13.755L13.905 19.3575L13.5 20.9775Z" fill="black"/>
</svg>
