<svg width="24" height="24" viewBox="0 0 24 24" fill="none" xmlns="http://www.w3.org/2000/svg">
<path fill-rule="evenodd" clip-rule="evenodd" d="M6.00042 8.48686C6.00044 8.48717 6.00046 8.48748 6.00048 8.48779L6.64875 18.194C6.75543 19.8062 8.08473 21.05 9.67259 21.05H14.0444C15.6323 21.05 16.9615 19.8067 17.0682 18.1945L17.7165 8.47319C17.7165 8.47338 17.7166 8.473 17.7165 8.47319C17.7241 8.34977 17.6246 8.25598 17.5237 8.25598H6.20023C6.09928 8.25598 5.99225 8.34927 6.00042 8.48686ZM14.0667 22.5499C14.0639 22.55 14.0611 22.55 14.0583 22.55H9.67259C7.28622 22.55 5.31057 20.6855 5.15208 18.294L4.50344 8.58217C4.44242 7.61428 5.19975 6.75598 6.20023 6.75598H17.5237C18.5104 6.75598 19.2753 7.60049 19.2135 8.56877L19.2134 8.57089L18.5649 18.2935C18.5649 18.2936 18.5649 18.2934 18.5649 18.2935C18.407 20.6776 16.4431 22.5384 14.0667 22.5499Z" fill="black"/>
<path fill-rule="evenodd" clip-rule="evenodd" d="M9.75 10.5C10.1642 10.5 10.5 10.8358 10.5 11.25V17.921C10.5 18.3352 10.1642 18.671 9.75 18.671C9.33579 18.671 9 18.3352 9 17.921V11.25C9 10.8358 9.33579 10.5 9.75 10.5Z" fill="black"/>
<path fill-rule="evenodd" clip-rule="evenodd" d="M14.25 10.5C14.6642 10.5 15 10.8358 15 11.25V17.921C15 18.3352 14.6642 18.671 14.25 18.671C13.8358 18.671 13.5 18.3352 13.5 17.921V11.25C13.5 10.8358 13.8358 10.5 14.25 10.5Z" fill="black"/>
<path fill-rule="evenodd" clip-rule="evenodd" d="M4.5 4.5C4.5 4.08579 4.83579 3.75 5.25 3.75H18.75C19.1642 3.75 19.5 4.08579 19.5 4.5C19.5 4.91421 19.1642 5.25 18.75 5.25H5.25C4.83579 5.25 4.5 4.91421 4.5 4.5Z" fill="black"/>
<path fill-rule="evenodd" clip-rule="evenodd" d="M11.414 3.18942C11.2856 3.2939 11.25 3.3984 11.25 3.47426V3.75C11.25 4.16421 10.9142 4.5 10.5 4.5C10.0858 4.5 9.75 4.16421 9.75 3.75V3.47426C9.75 2.24488 10.9121 1.5 12 1.5C12.5781 1.5 13.1181 1.69284 13.5303 2.02332C13.9593 2.36733 14.25 2.8817 14.25 3.47426V3.75C14.25 4.16421 13.9142 4.5 13.5 4.5C13.0858 4.5 12.75 4.16421 12.75 3.75V3.47426C12.75 3.39404 12.7132 3.29076 12.592 3.19359C12.4539 3.08289 12.2472 3 12 3C11.7493 3 11.5441 3.08351 11.414 3.18942Z" fill="black"/>
</svg>
