<svg width="24" height="24" viewBox="0 0 24 24" fill="none" xmlns="http://www.w3.org/2000/svg">
<path fill-rule="evenodd" clip-rule="evenodd" d="M14.3825 2.96489C14.2342 2.92982 14.1129 2.97479 14.0424 3.04533L2.95653 14.1242C2.95784 14.1259 2.95943 14.1277 2.96137 14.1297L9.85877 21.0341C9.86271 21.0377 9.8664 21.0405 9.86972 21.0427L20.9547 9.95767C21.0253 9.88713 21.0702 9.76588 21.0352 9.61752C21.0329 9.60796 21.0308 9.59836 21.0289 9.58872L19.9973 4.30493C19.9565 4.15947 19.8406 4.04351 19.6951 4.00276L14.4113 2.9711C14.4017 2.96922 14.3921 2.96715 14.3825 2.96489ZM14.7115 1.50138C14.0946 1.36106 13.4394 1.52714 12.9819 1.9845C12.9818 1.98456 12.9819 1.98445 12.9819 1.9845L1.86588 13.0935L1.85904 13.1004C1.27404 13.7004 1.34297 14.6323 1.90045 15.1901L8.80245 22.0991L8.80899 22.1055C9.3643 22.6479 10.2983 22.7354 10.8994 22.1343L22.0154 11.0183C22.4729 10.5608 22.639 9.90552 22.4987 9.28855L21.4651 3.99528C21.4628 3.98343 21.4602 3.97163 21.4574 3.95991C21.2857 3.26192 20.7381 2.71433 20.0401 2.5427C20.0284 2.53981 20.0166 2.53721 20.0048 2.5349L14.7115 1.50138Z" fill="black"/>
<path fill-rule="evenodd" clip-rule="evenodd" d="M16.5 6C15.6716 6 15 6.67157 15 7.5C15 8.32843 15.6716 9 16.5 9C17.3284 9 18 8.32843 18 7.5C18 6.67157 17.3284 6 16.5 6ZM13.5 7.5C13.5 5.84315 14.8431 4.5 16.5 4.5C18.1569 4.5 19.5 5.84315 19.5 7.5C19.5 9.15685 18.1569 10.5 16.5 10.5C14.8431 10.5 13.5 9.15685 13.5 7.5Z" fill="black"/>
</svg>
