<svg width="24" height="24" viewBox="0 0 24 24" fill="none" xmlns="http://www.w3.org/2000/svg">
<path fill-rule="evenodd" clip-rule="evenodd" d="M12 8.25C11.1716 8.25 10.5 8.92157 10.5 9.75C10.5 10.5784 11.1716 11.25 12 11.25C12.8284 11.25 13.5 10.5784 13.5 9.75C13.5 8.92157 12.8284 8.25 12 8.25ZM9 9.75C9 8.09315 10.3431 6.75 12 6.75C13.6569 6.75 15 8.09315 15 9.75C15 11.4069 13.6569 12.75 12 12.75C10.3431 12.75 9 11.4069 9 9.75Z" fill="black"/>
<path fill-rule="evenodd" clip-rule="evenodd" d="M9.00004 15.5985L9.01498 17.2432C9.01875 17.6574 8.68603 17.9962 8.27183 18C7.85763 18.0037 7.51881 17.671 7.51505 17.2568L7.5 15.601C7.5 14.3609 8.59222 13.5 9.7635 13.5H14.2365C15.4025 13.5 16.512 14.3646 16.4999 15.6078M16.4999 15.6086L16.485 17.2568C16.4812 17.671 16.1424 18.0037 15.7282 18C15.314 17.9962 14.9813 17.6574 14.985 17.2432L15 15.5934C15.0024 15.3536 14.7486 15 14.2365 15H9.7635C9.25813 15 9.0017 15.3422 9.00004 15.5985" fill="black"/>
<path fill-rule="evenodd" clip-rule="evenodd" d="M12 6C8.68629 6 6 8.68629 6 12C6 15.3137 8.68629 18 12 18C15.3137 18 18 15.3137 18 12C18 8.68629 15.3137 6 12 6ZM4.5 12C4.5 7.85786 7.85787 4.5 12 4.5C16.1421 4.5 19.5 7.85786 19.5 12C19.5 16.1421 16.1421 19.5 12 19.5C7.85787 19.5 4.5 16.1421 4.5 12Z" fill="black"/>
<path fill-rule="evenodd" clip-rule="evenodd" d="M4.27295 4.2815C4.5654 3.98817 5.04028 3.98746 5.33361 4.27991L7.65456 6.5939C7.9479 6.88636 7.94861 7.36123 7.65616 7.65456C7.3637 7.9479 6.88883 7.94861 6.5955 7.65616L4.27454 5.34216C3.98121 5.04971 3.9805 4.57483 4.27295 4.2815Z" fill="black"/>
<path fill-rule="evenodd" clip-rule="evenodd" d="M3.75 3C3.33579 3 3 3.33579 3 3.75C3 4.16421 3.33579 4.5 3.75 4.5C4.16421 4.5 4.5 4.16421 4.5 3.75C4.5 3.33579 4.16421 3 3.75 3ZM1.5 3.75C1.5 2.50736 2.50736 1.5 3.75 1.5C4.99264 1.5 6 2.50736 6 3.75C6 4.99264 4.99264 6 3.75 6C2.50736 6 1.5 4.99264 1.5 3.75Z" fill="black"/>
<path fill-rule="evenodd" clip-rule="evenodd" d="M19.7515 4.36915C20.0381 4.66825 20.0279 5.14302 19.7288 5.42957L17.3938 7.66657C17.0947 7.95312 16.62 7.94295 16.3334 7.64385C16.0469 7.34475 16.0571 6.86998 16.3562 6.58343L18.6911 4.34643C18.9902 4.05988 19.465 4.07005 19.7515 4.36915Z" fill="black"/>
<path fill-rule="evenodd" clip-rule="evenodd" d="M20.25 3C19.8358 3 19.5 3.33579 19.5 3.75C19.5 4.16421 19.8358 4.5 20.25 4.5C20.6642 4.5 21 4.16421 21 3.75C21 3.33579 20.6642 3 20.25 3ZM18 3.75C18 2.50736 19.0074 1.5 20.25 1.5C21.4926 1.5 22.5 2.50736 22.5 3.75C22.5 4.99264 21.4926 6 20.25 6C19.0074 6 18 4.99264 18 3.75Z" fill="black"/>
<path fill-rule="evenodd" clip-rule="evenodd" d="M7.65533 16.3447C7.94822 16.6376 7.94822 17.1124 7.65533 17.4053L5.40533 19.6553C5.11244 19.9482 4.63756 19.9482 4.34467 19.6553C4.05178 19.3624 4.05178 18.8876 4.34467 18.5947L6.59467 16.3447C6.88756 16.0518 7.36244 16.0518 7.65533 16.3447Z" fill="black"/>
<path fill-rule="evenodd" clip-rule="evenodd" d="M3.75 19.5C3.33579 19.5 3 19.8358 3 20.25C3 20.6642 3.33579 21 3.75 21C4.16421 21 4.5 20.6642 4.5 20.25C4.5 19.8358 4.16421 19.5 3.75 19.5ZM1.5 20.25C1.5 19.0074 2.50736 18 3.75 18C4.99264 18 6 19.0074 6 20.25C6 21.4926 4.99264 22.5 3.75 22.5C2.50736 22.5 1.5 21.4926 1.5 20.25Z" fill="black"/>
<path fill-rule="evenodd" clip-rule="evenodd" d="M16.3447 16.3447C16.6376 16.0518 17.1124 16.0518 17.4053 16.3447L19.6553 18.5947C19.9482 18.8876 19.9482 19.3624 19.6553 19.6553C19.3624 19.9482 18.8876 19.9482 18.5947 19.6553L16.3447 17.4053C16.0518 17.1124 16.0518 16.6376 16.3447 16.3447Z" fill="black"/>
<path fill-rule="evenodd" clip-rule="evenodd" d="M20.25 19.5C19.8358 19.5 19.5 19.8358 19.5 20.25C19.5 20.6642 19.8358 21 20.25 21C20.6642 21 21 20.6642 21 20.25C21 19.8358 20.6642 19.5 20.25 19.5ZM18 20.25C18 19.0074 19.0074 18 20.25 18C21.4926 18 22.5 19.0074 22.5 20.25C22.5 21.4926 21.4926 22.5 20.25 22.5C19.0074 22.5 18 21.4926 18 20.25Z" fill="black"/>
</svg>
