<svg width="24" height="24" viewBox="0 0 24 24" fill="none" xmlns="http://www.w3.org/2000/svg">
<g clip-path="url(#clip0_437_5493)">
<rect width="24" height="24" fill="white"/>
<path fill-rule="evenodd" clip-rule="evenodd" d="M0.34004 8.17999C-0.00680855 8.40642 -0.104431 8.87115 0.121996 9.218L1.80317 11.7933C1.92121 11.9741 2.11147 12.0953 2.32525 12.1258C2.53903 12.1563 2.75558 12.0932 2.91949 11.9526L5.35243 9.8657C5.66683 9.59602 5.70309 9.12254 5.43341 8.80814C5.16373 8.49374 4.69024 8.45748 4.37584 8.72716L2.59185 10.2574L1.37805 8.39804C1.15162 8.05119 0.686889 7.95357 0.34004 8.17999Z" fill="black"/>
<path fill-rule="evenodd" clip-rule="evenodd" d="M14.5398 1.81008C8.90956 0.412317 3.21241 3.83463 1.80991 9.45956C1.7097 9.86147 1.95427 10.2685 2.35618 10.3687C2.75809 10.4689 3.16514 10.2244 3.26535 9.82245C4.46721 5.00221 9.35005 2.06735 14.1781 3.26583C18.998 4.46781 21.9326 9.35037 20.7341 14.1782C19.532 18.9983 14.6492 21.9329 9.82124 20.7343C6.51926 19.9108 4.10477 17.3623 3.29451 14.2868C3.18898 13.8863 2.77873 13.6471 2.37818 13.7527C1.97764 13.8582 1.73848 14.2684 1.844 14.669C2.788 18.252 5.6037 21.2287 9.45909 22.1899L9.45982 22.1901C15.09 23.5879 20.7872 20.1656 22.1897 14.5406L22.1898 14.5399C23.5877 8.90974 20.1654 3.21267 14.5405 1.81026L14.5398 1.81008Z" fill="black"/>
<path fill-rule="evenodd" clip-rule="evenodd" d="M12 6.75C12.4142 6.75 12.75 7.08579 12.75 7.5V12C12.75 12.4142 12.4142 12.75 12 12.75C11.5858 12.75 11.25 12.4142 11.25 12V7.5C11.25 7.08579 11.5858 6.75 12 6.75Z" fill="black"/>
<path fill-rule="evenodd" clip-rule="evenodd" d="M17.25 12C17.25 12.4142 16.9142 12.75 16.5 12.75H12C11.5858 12.75 11.25 12.4142 11.25 12C11.25 11.5858 11.5858 11.25 12 11.25H16.5C16.9142 11.25 17.25 11.5858 17.25 12Z" fill="black"/>
</g>
<defs>
<clipPath id="clip0_437_5493">
<rect width="24" height="24" fill="white"/>
</clipPath>
</defs>
</svg>
