<svg width="24" height="24" viewBox="0 0 24 24" fill="none" xmlns="http://www.w3.org/2000/svg">
<path fill-rule="evenodd" clip-rule="evenodd" d="M3.12295 3.72729L9.53734 9.96244C9.68262 10.1037 9.76458 10.2976 9.76458 10.5002V20.5645C9.76458 20.6764 9.85438 20.8826 10.2567 20.9722C10.6491 21.0596 11.0064 20.9389 11.1734 20.7264L11.1802 20.7178L14.2354 16.9442L14.2354 10.873C14.2354 10.6779 14.3114 10.4905 14.4473 10.3506L20.866 3.73847L20.8741 3.73024C20.964 3.64043 20.9904 3.5639 20.9975 3.51132C21.0052 3.45497 20.9955 3.3878 20.9562 3.31514C20.8782 3.17107 20.6721 3 20.3174 3H3.68256C3.32787 3 3.12179 3.17107 3.04377 3.31514C3.00442 3.3878 2.99478 3.45497 3.00242 3.51132C3.00946 3.56332 3.0354 3.63876 3.12295 3.72729ZM20.3174 1.5C21.1818 1.5 21.9161 1.93775 22.2752 2.60082C22.6449 3.28356 22.5753 4.14731 21.9386 4.78699L15.7354 11.1771L15.7354 17.2098C15.7354 17.3816 15.6765 17.5482 15.5684 17.6817L12.3492 21.6579C11.7286 22.4432 10.7142 22.6108 9.93067 22.4364C9.15547 22.2638 8.26458 21.6564 8.26458 20.5645V10.8171L2.06579 4.79155C1.42493 4.15143 1.35415 3.28517 1.72478 2.60082C2.08174 1.94169 2.8095 1.5052 3.6672 1.50005C3.66999 1.50002 3.67279 1.5 3.6756 1.5H20.3174Z" fill="black"/>
</svg>
