<svg width="24" height="24" viewBox="0 0 24 24" fill="none" xmlns="http://www.w3.org/2000/svg">
<path fill-rule="evenodd" clip-rule="evenodd" d="M4.6875 3C3.75761 3 3 3.75761 3 4.6875V19.3125C3 20.2424 3.75761 21 4.6875 21H19.3125C20.2424 21 21 20.2424 21 19.3125V8.13482C21 7.69528 20.8229 7.26557 20.5023 6.94497L17.051 3.4936C16.7406 3.17843 16.3138 3 15.8652 3H4.6875ZM1.5 4.6875C1.5 2.92918 2.92918 1.5 4.6875 1.5H15.8652C16.7109 1.5 17.5228 1.83613 18.1176 2.43887C18.1183 2.4396 18.119 2.44033 18.1197 2.44105L21.563 5.88431C22.1617 6.483 22.5 7.29293 22.5 8.13482V19.3125C22.5 21.0708 21.0708 22.5 19.3125 22.5H4.6875C2.92918 22.5 1.5 21.0708 1.5 19.3125V4.6875Z" fill="black"/>
<path fill-rule="evenodd" clip-rule="evenodd" d="M7.5 1.5C7.91421 1.5 8.25 1.83579 8.25 2.25V8.14286C8.25 9.08515 8.87463 9.75 9.75 9.75H14.25C14.7393 9.75 15.1036 9.5806 15.345 9.3358C15.588 9.08942 15.75 8.72231 15.75 8.25V3C15.75 2.58579 16.0858 2.25 16.5 2.25C16.9142 2.25 17.25 2.58579 17.25 3V8.25C17.25 9.07749 16.9591 9.83537 16.4131 10.389C15.8655 10.9443 15.1048 11.25 14.25 11.25H9.75C7.93716 11.25 6.75 9.80016 6.75 8.14286V2.25C6.75 1.83579 7.08579 1.5 7.5 1.5Z" fill="black"/>
<path fill-rule="evenodd" clip-rule="evenodd" d="M9.75 18C8.9235 18 8.25 18.6735 8.25 19.5V21.75C8.25 22.1642 7.91421 22.5 7.5 22.5C7.08579 22.5 6.75 22.1642 6.75 21.75V19.5C6.75 17.8451 8.09507 16.5 9.75 16.5H14.25C15.9049 16.5 17.25 17.8451 17.25 19.5V21.75C17.25 22.1642 16.9142 22.5 16.5 22.5C16.0858 22.5 15.75 22.1642 15.75 21.75V19.5C15.75 18.6735 15.0765 18 14.25 18H9.75Z" fill="black"/>
</svg>
