<svg width="24" height="24" viewBox="0 0 24 24" fill="none" xmlns="http://www.w3.org/2000/svg">
<path fill-rule="evenodd" clip-rule="evenodd" d="M16.2495 2.06363C16.26 2.07425 16.2703 2.08461 16.2803 2.09467L17.7803 3.59467C18.198 4.0123 18.4796 4.39701 18.6238 4.87168C18.7506 5.28885 18.7503 5.72616 18.75 6.15607C18.75 6.17673 18.75 6.19738 18.75 6.218V11.25C18.75 11.6642 18.4142 12 18 12C17.5858 12 17.25 11.6642 17.25 11.25V6.218C17.25 5.69977 17.2433 5.4876 17.1887 5.30782C17.1454 5.16549 17.052 4.9877 16.7197 4.65533L15.2197 3.15533C15.1381 3.07377 15.1019 3.03892 15.0811 3.02086C15.053 3.0162 14.9946 3.00949 14.8795 3.00538C14.732 3.00011 14.5369 3 14.25 3H6.80377C6.69067 3.021 6.49376 3.0918 6.32742 3.24525C6.16772 3.39258 6 3.64701 6 4.125V13.5C6 13.9142 5.66421 14.25 5.25 14.25C4.83579 14.25 4.5 13.9142 4.5 13.5V4.125C4.5 3.23099 4.84078 2.57592 5.31033 2.14275C5.75584 1.73175 6.28481 1.54891 6.66362 1.50499L6.70667 1.5H14.2641C14.5334 1.5 14.7555 1.5 14.933 1.50634C15.1103 1.51267 15.2911 1.52625 15.4632 1.56927C15.8564 1.66758 16.084 1.89696 16.2495 2.06363Z" fill="black"/>
<path fill-rule="evenodd" clip-rule="evenodd" d="M2.12676 8.03908C2.53169 7.60535 3.0198 7.5 3.32983 7.5H4.87641C5.29063 7.5 5.62641 7.83579 5.62641 8.25C5.62641 8.66421 5.29063 9 4.87641 9H3.32983C3.33006 9 3.33007 8.99998 3.32983 9C3.32642 9.00029 3.27764 9.00439 3.22318 9.06272C3.16397 9.12615 3.00001 9.35883 3.00001 10.0237V19.9622C3.00001 20.3577 3.01443 20.6107 3.09862 20.7771C3.12762 20.8344 3.16107 20.871 3.21626 20.9012C3.27974 20.9361 3.4165 20.9859 3.68513 20.9859H5.05794L7.25943 13.2136C7.28298 13.122 7.30706 13.0246 7.33061 12.9294C7.36441 12.7927 7.39713 12.6604 7.42566 12.5556C7.47738 12.3658 7.54556 12.1443 7.65878 11.9455C7.78505 11.7239 7.97068 11.5236 8.2443 11.3955C8.49513 11.2781 8.76049 11.25 9.00001 11.25H10.7109C11.2733 11.25 11.7216 11.3696 12.0996 11.5765C12.4589 11.7733 12.7169 12.0312 12.9012 12.2155C13.4001 12.6979 13.9408 12.75 14.625 12.75H21C21.3978 12.75 21.759 12.883 22.0325 13.1531C22.2893 13.4068 22.4083 13.7217 22.4624 13.988C22.5674 14.5048 22.4754 15.062 22.3554 15.4165L22.3488 15.4359L22.3412 15.4549C21.9736 16.3725 21.0672 18.1614 20.1859 19.9009L20.1619 19.9482C19.7237 20.8163 19.3607 21.4592 18.9457 21.8691C18.7203 22.0919 18.4704 22.2572 18.1784 22.3598C17.895 22.4594 17.6111 22.4859 17.3396 22.4859H3.68513C3.2362 22.4859 2.83478 22.4029 2.49463 22.2163C2.1462 22.025 1.91057 21.7515 1.76017 21.4542C1.4981 20.9362 1.49929 20.3352 1.49995 20.0073C1.49998 19.9916 1.50001 19.9766 1.50001 19.9622V10.0237C1.50001 9.12605 1.72269 8.47187 2.12676 8.03908ZM6.61695 20.9859H17.3396C17.5175 20.9859 17.6159 20.9675 17.681 20.9447C17.7376 20.9248 17.8026 20.8899 17.8915 20.8021C18.1052 20.5909 18.3692 20.1709 18.8228 19.2723L18.8233 19.2713C19.7241 17.4934 20.5946 15.7735 20.9402 14.9184C20.9645 14.8418 20.9888 14.7334 21.0007 14.6137C21.0138 14.4834 21.0093 14.3695 20.9925 14.2867C20.9895 14.2722 20.9865 14.2601 20.9836 14.25H14.625C13.8757 14.25 12.8016 14.21 11.8524 13.2879L11.8485 13.2842L11.8447 13.2803C11.6543 13.0899 11.5308 12.9752 11.3791 12.8922C11.2435 12.8179 11.0473 12.75 10.7109 12.75H9.00001C8.97378 12.75 8.95203 12.7507 8.93425 12.7517C8.91893 12.7929 8.89867 12.8554 8.87293 12.9499C8.84622 13.0479 8.82267 13.1437 8.79475 13.2573C8.77109 13.3535 8.7443 13.4625 8.70979 13.5964L8.70756 13.6051L6.61695 20.9859Z" fill="black"/>
<path fill-rule="evenodd" clip-rule="evenodd" d="M8.25 5.25C8.25 4.83579 8.58579 4.5 9 4.5H14.25C14.6642 4.5 15 4.83579 15 5.25C15 5.66421 14.6642 6 14.25 6H9C8.58579 6 8.25 5.66421 8.25 5.25ZM8.25 8.25C8.25 7.83579 8.58579 7.5 9 7.5H14.25C14.6642 7.5 15 7.83579 15 8.25C15 8.66421 14.6642 9 14.25 9H9C8.58579 9 8.25 8.66421 8.25 8.25Z" fill="black"/>
</svg>
