<svg width="24" height="24" viewBox="0 0 24 24" fill="none" xmlns="http://www.w3.org/2000/svg">
<path fill-rule="evenodd" clip-rule="evenodd" d="M1.44995 5.97198H22.55V19.588C22.55 21.1681 21.3609 22.55 19.763 22.55H4.23695C2.63751 22.55 1.44995 21.1595 1.44995 19.588V5.97198ZM2.94995 7.47198V19.588C2.94995 20.4525 3.58239 21.05 4.23695 21.05H19.763C20.419 21.05 21.05 20.4579 21.05 19.588V7.47198H2.94995Z" fill="black"/>
<path fill-rule="evenodd" clip-rule="evenodd" d="M1.44995 4.35601C1.44995 2.79315 2.65556 1.45001 4.23695 1.45001H19.763C21.3443 1.45001 22.55 2.79315 22.55 4.35601V7.47201H1.44995V4.35601ZM4.23695 2.95001C3.56434 2.95001 2.94995 3.53888 2.94995 4.35601V5.97201H21.05V4.35601C21.05 3.53888 20.4356 2.95001 19.763 2.95001H4.23695Z" fill="black"/>
<path d="M5.39894 3.70502H5.02794C4.71294 3.70502 4.46094 3.93602 4.46094 4.22302V4.68502C4.46094 4.97202 4.71294 5.20302 5.02794 5.20302H5.39894C5.71394 5.20302 5.96594 4.97202 5.96594 4.68502V4.22302C5.96594 3.93602 5.71394 3.70502 5.39894 3.70502Z" fill="black"/>
<path d="M7.688 3.75H7.317C7.002 3.75 6.75 3.981 6.75 4.268V4.73C6.75 5.017 7.002 5.248 7.317 5.248H7.688C8.003 5.248 8.255 5.017 8.255 4.73V4.268C8.255 3.981 8.003 3.75 7.688 3.75Z" fill="black"/>
<path d="M9.938 3.75H9.567C9.252 3.75 9 3.981 9 4.268V4.73C9 5.017 9.252 5.248 9.567 5.248H9.938C10.253 5.248 10.505 5.017 10.505 4.73V4.268C10.505 3.981 10.253 3.75 9.938 3.75Z" fill="black"/>
<path fill-rule="evenodd" clip-rule="evenodd" d="M6.00003 10.5013C6.00001 10.5016 6 10.5019 6 10.5023V17.9977C6 17.9981 6.00001 17.9984 6.00003 17.9987C6.00016 17.9988 6.00037 17.9991 6.0007 17.9994C6.00095 17.9997 6.00116 17.9999 6.00132 18C6.0015 18 6.00172 18 6.00199 18H9.74801C9.74828 18 9.7485 18 9.74868 18C9.74884 17.9999 9.74905 17.9997 9.7493 17.9994C9.74963 17.9991 9.74984 17.9988 9.74997 17.9987C9.74999 17.9984 9.75 17.9981 9.75 17.9977V10.5023C9.75 10.5019 9.74999 10.5016 9.74997 10.5013C9.74984 10.5012 9.74962 10.5009 9.7493 10.5006C9.74905 10.5003 9.74884 10.5001 9.74868 10.5C9.7485 10.5 9.74828 10.5 9.74801 10.5H6.00199C6.00172 10.5 6.0015 10.5 6.00132 10.5C6.00116 10.5001 6.00095 10.5003 6.0007 10.5006C6.00037 10.5009 6.00016 10.5012 6.00003 10.5013ZM4.5 10.5023C4.5 9.67293 5.17215 9 6.00199 9H9.74801C10.5778 9 11.25 9.67293 11.25 10.5023V17.9977C11.25 18.8271 10.5778 19.5 9.74801 19.5H6.00199C5.17215 19.5 4.5 18.8271 4.5 17.9977V10.5023Z" fill="black"/>
<path fill-rule="evenodd" clip-rule="evenodd" d="M14.2551 15.771C14.2551 15.771 14.255 15.7716 14.255 15.773V18.027C14.255 18.0284 14.2551 18.029 14.2551 18.029L14.2552 18.0291C14.2552 18.0293 14.2557 18.0302 14.2568 18.0313C14.2579 18.0324 14.2587 18.0328 14.2589 18.0329L14.259 18.0329C14.259 18.0329 14.2596 18.033 14.261 18.033H18.027C18.0284 18.033 18.029 18.0329 18.029 18.0329L18.0291 18.0329C18.0293 18.0328 18.0302 18.0324 18.0312 18.0313C18.0323 18.0302 18.0328 18.0293 18.0328 18.0291L18.0329 18.029L18.0329 18.029C18.0329 18.029 18.033 18.0284 18.033 18.027V15.773C18.033 15.7717 18.0329 15.7711 18.0329 15.771L18.0329 15.771L18.0328 15.7709C18.0328 15.7707 18.0323 15.7699 18.0312 15.7688C18.0302 15.7677 18.0293 15.7673 18.0291 15.7672L18.029 15.7672C18.029 15.7672 18.0284 15.767 18.027 15.767H14.261C14.2596 15.767 14.259 15.7672 14.259 15.7672L14.2589 15.7672C14.2587 15.7673 14.2579 15.7677 14.2568 15.7688C14.2557 15.7699 14.2552 15.7707 14.2552 15.7709L14.2551 15.771ZM12.755 15.773C12.755 14.9413 13.4293 14.267 14.261 14.267H18.027C18.8587 14.267 19.533 14.9413 19.533 15.773V18.027C19.533 18.8588 18.8587 19.533 18.027 19.533H14.261C13.4293 19.533 12.755 18.8588 12.755 18.027V15.773Z" fill="black"/>
<path fill-rule="evenodd" clip-rule="evenodd" d="M12.755 9.73901C12.755 9.3248 13.0908 8.98901 13.505 8.98901H18.797C19.2112 8.98901 19.547 9.3248 19.547 9.73901C19.547 10.1532 19.2112 10.489 18.797 10.489H13.505C13.0908 10.489 12.755 10.1532 12.755 9.73901ZM12.75 12C12.75 11.5858 13.0858 11.25 13.5 11.25H18.792C19.2062 11.25 19.542 11.5858 19.542 12C19.542 12.4142 19.2062 12.75 18.792 12.75H13.5C13.0858 12.75 12.75 12.4142 12.75 12Z" fill="black"/>
</svg>
