<svg width="24" height="24" viewBox="0 0 24 24" fill="none" xmlns="http://www.w3.org/2000/svg">
<path fill-rule="evenodd" clip-rule="evenodd" d="M1.5 12C1.5 10.3458 2.84585 9 4.5 9C6.15415 9 7.5 10.3458 7.5 12C7.5 13.6542 6.15415 15 4.5 15C2.84585 15 1.5 13.6542 1.5 12ZM4.5 10.5C3.67428 10.5 3 11.1743 3 12C3 12.8257 3.67428 13.5 4.5 13.5C5.32572 13.5 6 12.8257 6 12C6 11.1743 5.32572 10.5 4.5 10.5Z" fill="black"/>
<path fill-rule="evenodd" clip-rule="evenodd" d="M6.0332 12C6.0332 11.5858 6.36899 11.25 6.7832 11.25H17.2446C17.6588 11.25 17.9946 11.5858 17.9946 12C17.9946 12.4142 17.6588 12.75 17.2446 12.75H6.7832C6.36899 12.75 6.0332 12.4142 6.0332 12Z" fill="black"/>
<path fill-rule="evenodd" clip-rule="evenodd" d="M9.75003 4.4951C9.75271 4.0809 10.0907 3.74731 10.5049 3.75001L16.4878 3.78901C16.902 3.79171 17.2356 4.12968 17.2329 4.54388C17.2302 4.95809 16.8923 5.29168 16.4781 5.28898L10.4952 5.24997C10.081 5.24727 9.74735 4.90931 9.75003 4.4951Z" fill="black"/>
<path fill-rule="evenodd" clip-rule="evenodd" d="M9.75 19.5C9.75 19.0858 10.0858 18.75 10.5 18.75H16.5118C16.926 18.75 17.2618 19.0858 17.2618 19.5C17.2618 19.9142 16.926 20.25 16.5118 20.25H10.5C10.0858 20.25 9.75 19.9142 9.75 19.5Z" fill="black"/>
<path fill-rule="evenodd" clip-rule="evenodd" d="M16.5 12C16.5 10.3458 17.8458 9 19.5 9C21.1542 9 22.5 10.3458 22.5 12C22.5 13.6542 21.1542 15 19.5 15C17.8458 15 16.5 13.6542 16.5 12ZM19.5 10.5C18.6743 10.5 18 11.1743 18 12C18 12.8257 18.6743 13.5 19.5 13.5C20.3257 13.5 21 12.8257 21 12C21 11.1743 20.3257 10.5 19.5 10.5Z" fill="black"/>
<path fill-rule="evenodd" clip-rule="evenodd" d="M16.5 4.5C16.5 2.84585 17.8458 1.5 19.5 1.5C21.1542 1.5 22.5 2.84585 22.5 4.5C22.5 6.15415 21.1542 7.5 19.5 7.5C17.8458 7.5 16.5 6.15415 16.5 4.5ZM19.5 3C18.6743 3 18 3.67428 18 4.5C18 5.32572 18.6743 6 19.5 6C20.3257 6 21 5.32572 21 4.5C21 3.67428 20.3257 3 19.5 3Z" fill="black"/>
<path fill-rule="evenodd" clip-rule="evenodd" d="M10.5145 3.75C10.9287 3.75 11.2645 4.08579 11.2645 4.5V19.5C11.2645 19.9142 10.9287 20.25 10.5145 20.25C10.1003 20.25 9.76447 19.9142 9.76447 19.5V4.5C9.76447 4.08579 10.1003 3.75 10.5145 3.75Z" fill="black"/>
<path fill-rule="evenodd" clip-rule="evenodd" d="M16.5 19.5C16.5 17.8458 17.8458 16.5 19.5 16.5C21.1542 16.5 22.5 17.8458 22.5 19.5C22.5 21.1542 21.1542 22.5 19.5 22.5C17.8458 22.5 16.5 21.1542 16.5 19.5ZM19.5 18C18.6743 18 18 18.6743 18 19.5C18 20.3257 18.6743 21 19.5 21C20.3257 21 21 20.3257 21 19.5C21 18.6743 20.3257 18 19.5 18Z" fill="black"/>
</svg>
