<svg width="24" height="24" viewBox="0 0 24 24" fill="none" xmlns="http://www.w3.org/2000/svg">
<path fill-rule="evenodd" clip-rule="evenodd" d="M12.6574 1.66915C15.8762 3.38941 18.8309 4.3391 19.9565 4.6643L19.9652 4.66682L19.9652 4.66687C20.5357 4.83921 21 5.34994 21 6.01145V14.3594C21 15.4994 20.4838 16.5346 19.7857 17.4181C19.0851 18.3048 18.1552 19.0981 17.2126 19.7719C15.3263 21.1202 13.2732 22.0706 12.5597 22.3844L12.5461 22.3902C12.1943 22.5366 11.8057 22.5366 11.4539 22.3902L11.4416 22.3849C10.7233 22.0707 8.6701 21.1202 6.78461 19.7718C5.84239 19.0979 4.91321 18.3046 4.21317 17.4178C3.51558 16.5342 3 15.4991 3 14.3594V6.01841C3 5.37043 3.45113 4.8393 4.04389 4.67114C5.17856 4.33629 8.13573 3.39354 11.3343 1.66989C11.7458 1.44362 12.2457 1.44337 12.6574 1.66915ZM11.9967 3.0168C8.71845 4.77686 5.70065 5.74485 4.5 6.10047V14.3594C4.5 15.0368 4.80837 15.751 5.39049 16.4884C5.97015 17.2226 6.77641 17.9218 7.65717 18.5517C9.38206 19.7852 11.2821 20.6756 11.9999 20.9918C12.7165 20.6747 14.6155 19.7845 16.3404 18.5516C17.2216 17.9216 18.0285 17.2224 18.6087 16.4881C19.1914 15.7507 19.5 15.0366 19.5 14.3594V6.09373C18.2912 5.7422 15.2833 4.76737 11.9967 3.0168Z" fill="black"/>
<path fill-rule="evenodd" clip-rule="evenodd" d="M16.2803 8.4696C16.5732 8.76246 16.5733 9.23733 16.2804 9.53026L11.0318 14.7803C10.8911 14.921 10.7003 15 10.5014 15C10.3024 15 10.1116 14.921 9.97096 14.7803L7.7196 12.5283C7.42675 12.2354 7.42681 11.7605 7.71974 11.4677C8.01267 11.1748 8.48754 11.1749 8.7804 11.4678L10.5014 13.1892L15.2196 8.46974C15.5125 8.17681 15.9873 8.17675 16.2803 8.4696Z" fill="black"/>
</svg>
