<svg width="24" height="24" viewBox="0 0 24 24" fill="none" xmlns="http://www.w3.org/2000/svg">
<path d="M9.375 22.5C9.99632 22.5 10.5 21.9963 10.5 21.375C10.5 20.7537 9.99632 20.25 9.375 20.25C8.75368 20.25 8.25 20.7537 8.25 21.375C8.25 21.9963 8.75368 22.5 9.375 22.5Z" fill="black"/>
<path d="M14.625 22.5C15.2463 22.5 15.75 21.9963 15.75 21.375C15.75 20.7537 15.2463 20.25 14.625 20.25C14.0037 20.25 13.5 20.7537 13.5 21.375C13.5 21.9963 14.0037 22.5 14.625 22.5Z" fill="black"/>
<path fill-rule="evenodd" clip-rule="evenodd" d="M5.25 6C5.25 5.58579 5.58579 5.25 6 5.25H19.1979C20.4402 5.25 21.3325 6.4744 20.884 7.65594C20.8798 7.66697 20.8754 7.67789 20.8707 7.68871L18.9592 12.0872L18.9591 12.0874C18.1926 13.8501 16.4662 15 14.5432 15H6C5.58579 15 5.25 14.6642 5.25 14.25V6ZM6.75 6.75V13.5H14.5432C15.8596 13.5 17.0513 12.7131 17.5835 11.4894C17.5835 11.4893 17.5835 11.4893 17.5835 11.4892L19.4856 7.11246C19.5386 6.95037 19.424 6.75 19.1979 6.75H6.75Z" fill="black"/>
<path fill-rule="evenodd" clip-rule="evenodd" d="M2.25 2.25C2.25 1.83579 2.58579 1.5 3 1.5H3.99761C5.46988 1.5 6.75 2.63016 6.75 4.125V6C6.75 6.41421 6.41421 6.75 6 6.75C5.58579 6.75 5.25 6.41421 5.25 6V4.125C5.25 3.54994 4.73586 3 3.99761 3H3C2.58579 3 2.25 2.66421 2.25 2.25Z" fill="black"/>
<path fill-rule="evenodd" clip-rule="evenodd" d="M6 13.5C6.41421 13.5 6.75 13.8358 6.75 14.25V16.5C6.75 17.3964 7.39638 18 8.04612 18H17.25C17.6642 18 18 18.3358 18 18.75C18 19.1642 17.6642 19.5 17.25 19.5H8.04612C6.43706 19.5 5.25 18.0875 5.25 16.5V14.25C5.25 13.8358 5.58579 13.5 6 13.5Z" fill="black"/>
</svg>
