<svg width="24" height="24" viewBox="0 0 24 24" fill="none" xmlns="http://www.w3.org/2000/svg">
<rect width="24" height="24" fill="white"/>
<path fill-rule="evenodd" clip-rule="evenodd" d="M18.75 1.5C19.1642 1.5 19.5 1.83579 19.5 2.25V5.25C19.5 5.66421 19.1642 6 18.75 6H15.75C15.3358 6 15 5.66421 15 5.25C15 4.83579 15.3358 4.5 15.75 4.5H18V2.25C18 1.83579 18.3358 1.5 18.75 1.5Z" fill="black"/>
<path fill-rule="evenodd" clip-rule="evenodd" d="M4.5 18.75C4.5 18.3358 4.83579 18 5.25 18H8.25C8.66421 18 9 18.3358 9 18.75C9 19.1642 8.66421 19.5 8.25 19.5H6V21.75C6 22.1642 5.66421 22.5 5.25 22.5C4.83579 22.5 4.5 22.1642 4.5 21.75V18.75Z" fill="black"/>
<path fill-rule="evenodd" clip-rule="evenodd" d="M12 3C7.02734 3 3 7.02734 3 12C3 13.6431 3.44075 15.1765 4.20577 16.4996C4.41312 16.8582 4.29051 17.3169 3.93193 17.5243C3.57335 17.7316 3.11457 17.609 2.90723 17.2504C2.01475 15.707 1.5 13.9156 1.5 12C1.5 6.19891 6.19891 1.5 12 1.5C14.8622 1.5 17.3565 2.4208 19.2803 4.34467C19.5732 4.63756 19.5732 5.11244 19.2803 5.40533C18.9874 5.69822 18.5126 5.69822 18.2197 5.40533C16.614 3.7997 14.5198 3 12 3Z" fill="black"/>
<path fill-rule="evenodd" clip-rule="evenodd" d="M20.0681 6.47573C20.4266 6.26839 20.8854 6.39099 21.0928 6.74957C21.9852 8.29304 22.5 10.0844 22.5 12C22.5 17.8011 17.8011 22.5 12 22.5C9.13782 22.5 6.64354 21.5792 4.71967 19.6553C4.42678 19.3624 4.42678 18.8876 4.71967 18.5947C5.01256 18.3018 5.48744 18.3018 5.78033 18.5947C7.38596 20.2003 9.48017 21 12 21C16.9727 21 21 16.9727 21 12C21 10.3569 20.5592 8.82346 19.7942 7.50043C19.5869 7.14185 19.7095 6.68308 20.0681 6.47573Z" fill="black"/>
</svg>
