<svg width="24" height="24" viewBox="0 0 24 24" fill="none" xmlns="http://www.w3.org/2000/svg">
<path fill-rule="evenodd" clip-rule="evenodd" d="M12 2.95001C7.00177 2.95001 2.94995 7.00183 2.94995 12C2.94995 16.9982 7.00177 21.05 12 21.05C16.9981 21.05 21.05 16.9982 21.05 12C21.05 7.00183 16.9981 2.95001 12 2.95001ZM1.44995 12C1.44995 6.17341 6.17335 1.45001 12 1.45001C17.8266 1.45001 22.55 6.17341 22.55 12C22.55 17.8266 17.8266 22.55 12 22.55C6.17335 22.55 1.44995 17.8266 1.44995 12Z" fill="black"/>
<path fill-rule="evenodd" clip-rule="evenodd" d="M16.4012 9.25068C16.6941 9.54357 16.6941 10.0184 16.4012 10.3113L10.9832 15.7293C10.6903 16.0222 10.2155 16.0222 9.92258 15.7293L7.59858 13.4053C7.30568 13.1124 7.30568 12.6376 7.59858 12.3447C7.89147 12.0518 8.36634 12.0518 8.65924 12.3447L10.4529 14.1383L15.3406 9.25068C15.6335 8.95778 16.1083 8.95778 16.4012 9.25068Z" fill="black"/>
</svg>
