<svg xmlns="http://www.w3.org/2000/svg" width="24" height="24" fill="currentColor" viewBox="0 0 24 24">
  <path fill-rule="evenodd" d="M3 18V3.75h2.562a.67.67 0 0 1 .47.2L7.33 5.262c.404.408.96.644 1.535.644H21v5.344a.75.75 0 0 0 1.5 0V5.87c0-.8-.648-1.464-1.456-1.464H8.866a.67.67 0 0 1-.47-.2L7.099 2.894a2.17 2.17 0 0 0-1.536-.644H2.956c-.808 0-1.456.665-1.456 1.463v14.323c0 .799.648 1.464 1.456 1.464H9.75a.75.75 0 0 0 0-1.5H3Zm13.248-4.31a.75.75 0 0 1 .063 1.058l-2.557 2.877 2.557 2.877a.75.75 0 0 1-1.122.996l-3-3.375a.75.75 0 0 1 0-.996l3-3.375a.75.75 0 0 1 1.06-.063Zm2.004 0a.75.75 0 0 1 1.059.062l3 3.375a.75.75 0 0 1 0 .996l-3 3.375a.75.75 0 1 1-1.122-.996l2.558-2.877-2.558-2.877a.75.75 0 0 1 .063-1.058Z" clip-rule="evenodd"/>
</svg>
