<svg xmlns="http://www.w3.org/2000/svg" width="24" height="24" fill="currentColor" viewBox="0 0 24 24">
  <path d="M13.387 21c-.112 0-.217 0-.33-.015-1.117-.105-1.912-.795-2.13-1.852-.457-2.28 1.335-4.47 2.446-5.573.93-.93 2.07-1.673 3.322-2.19-.082-.51-.21-.922-.375-1.2a4.253 4.253 0 0 0-.428-.562c-.592-.638-1.282-.923-2.024-.84-1.088.112-2.288.99-3.046 2.234-.51.833-.877 1.733-1.26 2.693-.187.457-.375.922-.577 1.373-.54 1.2-1.245 2.775-2.67 3.405-1.005.442-2.175.277-2.903-.405-.42-.39-.697-.938-.81-1.59-.487-2.768 1.425-4.823 3.113-6.638.45-.48.87-.937 1.23-1.38l.15-.187c.525-.645 1.02-1.253 1.095-1.98a1.435 1.435 0 0 0-.405-1.178c-.405-.42-1.035-.652-1.658-.607-1.575.112-2.715 1.522-3.255 2.355a.751.751 0 0 1-1.035.225.751.751 0 0 1-.225-1.035C2.31 4.98 3.802 3.165 6.03 3.008c1.065-.075 2.13.322 2.842 1.065.623.645.915 1.492.818 2.377-.128 1.163-.81 2.01-1.418 2.76l-.15.18c-.39.488-.832.96-1.305 1.462C5.295 12.488 3.72 14.175 4.08 16.2c.06.323.187.593.36.758.292.27.825.322 1.275.127.892-.398 1.44-1.613 1.875-2.588.225-.495.405-.937.585-1.38.39-.967.802-1.972 1.372-2.902 1.005-1.657 2.603-2.782 4.17-2.947 1.223-.128 2.348.322 3.27 1.297.218.233.42.495.608.795.248.398.428.915.54 1.508a11.7 11.7 0 0 1 1.02-.218c.855-.135 1.747-.18 2.64-.12a.75.75 0 0 1 .697.803c-.03.412-.39.742-.802.697a10.21 10.21 0 0 0-2.303.098c-.375.06-.742.142-1.102.247.06 2.16-.495 4.747-1.53 6.435-.877 1.425-2.04 2.175-3.375 2.175l.007.015Zm3.405-8.04a8.5 8.5 0 0 0-2.355 1.657c-.72.72-2.362 2.566-2.032 4.215.053.255.188.6.795.66.893.09 1.658-.405 2.295-1.447.877-1.418 1.268-3.413 1.305-5.078l-.008-.007Z"/>
</svg>
