<svg xmlns="http://www.w3.org/2000/svg" width="24" height="24" fill="currentColor" viewBox="0 0 24 24">
  <path d="M13.33 21c-.112 0-.232 0-.344-.015-1.267-.112-2.167-.894-2.407-2.093-.48-2.36 1.342-4.58 2.467-5.69a10.229 10.229 0 0 1 3.029-2.047 2.37 2.37 0 0 0-.248-.693 2.991 2.991 0 0 0-.36-.469c-.487-.514-1.02-.737-1.611-.678-.915.097-1.965.879-2.624 1.944-.473.767-.818 1.616-1.185 2.517-.18.447-.36.886-.562 1.326-.548 1.214-1.26 2.793-2.774 3.455-1.11.484-2.407.298-3.232-.461-.465-.432-.78-1.036-.9-1.743-.51-2.838 1.493-4.967 3.097-6.68a23.6 23.6 0 0 0 1.162-1.296l.143-.179c.487-.596.907-1.11.967-1.683a.975.975 0 0 0-.278-.804c-.3-.313-.794-.484-1.274-.462-1.342.09-2.34 1.333-2.82 2.07A1.13 1.13 0 0 1 1.68 6.09c1.215-1.869 2.835-2.963 4.552-3.083 1.14-.081 2.286.343 3.051 1.14a3.181 3.181 0 0 1 .9 2.592C10.047 7.967 9.35 8.83 8.727 9.59l-.135.171c-.382.477-.832.953-1.267 1.422-1.394 1.49-2.841 3.032-2.534 4.767.038.223.12.402.225.499.165.149.503.171.787.052.72-.313 1.208-1.4 1.605-2.264.21-.47.382-.886.555-1.303.382-.939.78-1.914 1.35-2.838 1.034-1.683 2.683-2.837 4.31-3.008 1.312-.142 2.504.335 3.479 1.37.232.246.442.521.63.819.202.32.36.715.472 1.17.21-.045.412-.083.622-.12.855-.134 1.74-.179 2.632-.112a1.114 1.114 0 0 1 1.042 1.192c-.045.618-.585 1.095-1.2 1.035a10.04 10.04 0 0 0-2.121.09 8.1 8.1 0 0 0-.735.148c0 2.086-.54 4.469-1.522 6.048-.915 1.474-2.182 2.264-3.599 2.264l.008.007Zm2.827-7.388a7.612 7.612 0 0 0-1.53 1.17c-.652.64-2.128 2.278-1.844 3.664.03.134.06.275.405.305.255.022 1.027.09 1.83-1.2.66-1.064 1.027-2.568 1.147-3.946l-.008.007Z"/>
</svg>
