<svg xmlns="http://www.w3.org/2000/svg" width="24" height="24" fill="currentColor" viewBox="0 0 24 24">
  <path fill-rule="evenodd" d="M3 12c0-4.973 4.027-9 9-9 1.99 0 3.715.499 5.144 1.5H15.75a.75.75 0 0 0 0 1.5h3a.75.75 0 0 0 .75-.75v-3a.75.75 0 0 0-1.5 0v1.018C16.297 2.076 14.264 1.5 12 1.5a10.497 10.497 0 0 0-9.093 15.75.75.75 0 0 0 1.299-.75A8.954 8.954 0 0 1 3 12Zm1.5 6.75a.75.75 0 0 1 .75-.75h3a.75.75 0 0 1 0 1.5H6.856C8.285 20.501 10.01 21 12 21a8.997 8.997 0 0 0 7.794-13.5.75.75 0 0 1 1.299-.75A10.497 10.497 0 0 1 12 22.5c-2.263 0-4.297-.576-6-1.768v1.018a.75.75 0 0 1-1.5 0v-3Zm3.75-9a1.5 1.5 0 0 1 1.5-1.5h4.5a1.5 1.5 0 0 1 1.5 1.5v4.5a1.5 1.5 0 0 1-1.5 1.5h-4.5a1.5 1.5 0 0 1-1.5-1.5v-4.5Zm1.5 0h4.5v4.5h-4.5v-4.5Z" clip-rule="evenodd"/>
</svg>
