<svg xmlns="http://www.w3.org/2000/svg" width="24" height="24" fill="currentColor" viewBox="0 0 24 24">
  <path fill-rule="evenodd" d="M18.75 1.5a.75.75 0 0 1 .75.75v3a.75.75 0 0 1-.75.75h-3a.75.75 0 0 1 0-1.5H18V2.25a.75.75 0 0 1 .75-.75ZM4.5 18.75a.75.75 0 0 1 .75-.75h3a.75.75 0 0 1 0 1.5H6v2.25a.75.75 0 0 1-1.5 0v-3Z" clip-rule="evenodd"/>
  <path fill-rule="evenodd" d="M12 3a8.997 8.997 0 0 0-7.794 13.5.75.75 0 1 1-1.299.75A10.497 10.497 0 0 1 12 1.5c2.862 0 5.357.92 7.28 2.845a.75.75 0 0 1-1.06 1.06C16.614 3.8 14.52 3 12 3Zm8.068 3.476a.75.75 0 0 1 1.025.274A10.497 10.497 0 0 1 12 22.5c-2.862 0-5.356-.92-7.28-2.845a.75.75 0 1 1 1.06-1.06C7.386 20.2 9.48 21 12 21a8.997 8.997 0 0 0 7.794-13.5.75.75 0 0 1 .274-1.024Z" clip-rule="evenodd"/>
  <path fill-rule="evenodd" d="M14.25 9.75h-4.5v4.5h4.5v-4.5Zm-4.5-1.5a1.5 1.5 0 0 0-1.5 1.5v4.5a1.5 1.5 0 0 0 1.5 1.5h4.5a1.5 1.5 0 0 0 1.5-1.5v-4.5a1.5 1.5 0 0 0-1.5-1.5h-4.5Z" clip-rule="evenodd"/>
</svg>
