<svg xmlns="http://www.w3.org/2000/svg" width="24" height="24" fill="currentColor" viewBox="0 0 24 24">
  <path d="M12 15a.75.75 0 0 1 .6.3l2.024 2.7h4.126a.75.75 0 0 1 0 1.5h-4.5a.75.75 0 0 1-.6-.3L12 17l-1.65 2.2a.75.75 0 0 1-.6.3h-4.5a.75.75 0 0 1 0-1.5h4.126l2.024-2.7.057-.067A.75.75 0 0 1 12 15Zm0-6a6.002 6.002 0 0 1 5.936 6.857.75.75 0 0 1-1.484-.214A4.502 4.502 0 0 0 12 10.5a4.502 4.502 0 0 0-4.5 4.501c0 .213.018.425.049.645a.75.75 0 1 1-1.485.209A6.095 6.095 0 0 1 6 15a6.002 6.002 0 0 1 6-6Zm-8.25 5.25a.75.75 0 0 1 0 1.5h-1.5a.75.75 0 0 1 0-1.5h1.5Zm18 0a.75.75 0 0 1 0 1.5h-1.5a.75.75 0 0 1 0-1.5h1.5ZM4.72 7.72a.75.75 0 0 1 1.06 0l.75.75a.75.75 0 1 1-1.06 1.06l-.75-.75a.75.75 0 0 1 0-1.06Zm13.5 0a.75.75 0 0 1 1.06 1.06l-.75.75a.75.75 0 0 1-1.06-1.06l.75-.75ZM12 4.5a.75.75 0 0 1 .75.75v1.5a.75.75 0 0 1-1.5 0v-1.5A.75.75 0 0 1 12 4.5Z"/>
</svg>
