<svg xmlns="http://www.w3.org/2000/svg" width="24" height="24" fill="currentColor" viewBox="0 0 24 24">
  <path fill-rule="evenodd" d="M12 3C8.778 3 6 6.018 6 9.964v.536h1.5v6c0 1.823 1.153 3 2.251 3h.749v-.117a5.626 5.626 0 0 1 0-.225c.003-.104.013-.266.067-.434.06-.186.183-.397.414-.548.218-.141.453-.176.644-.176h3.75c.191 0 .426.035.644.176.231.15.354.363.414.548.054.168.064.33.067.434.002.069.001.157 0 .225v1.992c0 .205-.045.445-.2.66a1.06 1.06 0 0 1-.538.386 1.68 1.68 0 0 1-.436.074c-.1.005-.209.005-.297.005h-3.058c-.088 0-.197 0-.297-.005a1.68 1.68 0 0 1-.436-.074 1.06 1.06 0 0 1-.537-.386 1.116 1.116 0 0 1-.2-.66V21h-.75c-1.98 0-3.41-1.73-3.698-3.75H4.5c-1.76 0-3-1.622-3-3.375s1.24-3.375 3-3.375v-.536C4.5 5.384 7.768 1.5 12 1.5s7.5 3.884 7.5 8.464v.536c1.76 0 3 1.622 3 3.375s-1.24 3.375-3 3.375h-3V10.5H18v-.536C18 6.018 15.222 3 12 3Zm-7.5 9c-.723 0-1.5.726-1.5 1.875s.777 1.875 1.5 1.875H6V12H4.5Zm7.5 7.5h3V21h-3v-1.5Zm7.5-3.75H18V12h1.5c.723 0 1.5.726 1.5 1.875s-.777 1.875-1.5 1.875Z" clip-rule="evenodd"/>
</svg>
