<svg xmlns="http://www.w3.org/2000/svg" width="24" height="24" fill="currentColor" viewBox="0 0 24 24">
  <path fill-rule="evenodd" d="M11.623 19.5h.001-.002Zm.377 0h3V21h-3v-1.5Zm3.377 0Zm-4.396-1.324c.218-.141.453-.176.644-.176h3.75c.191 0 .426.035.644.176.231.15.354.363.414.548.054.168.064.33.067.434.002.069.001.157 0 .225v1.992c0 .205-.046.445-.2.66a1.06 1.06 0 0 1-.538.386 1.68 1.68 0 0 1-.436.074c-.1.005-.209.005-.297.005h-3.058c-.088 0-.197 0-.297-.005a1.68 1.68 0 0 1-.436-.074 1.06 1.06 0 0 1-.537-.386 1.116 1.116 0 0 1-.201-.66v-1.992a5.626 5.626 0 0 1 0-.225c.003-.104.013-.266.067-.434.06-.186.183-.397.414-.548ZM4.5 12c-.723 0-1.5.726-1.5 1.875s.777 1.875 1.5 1.875H6V12H4.5Zm-3 1.875c0-1.753 1.24-3.375 3-3.375h3v6.75h-3c-1.76 0-3-1.622-3-3.375Zm15-3.375h3c1.76 0 3 1.622 3 3.375s-1.24 3.375-3 3.375h-3V10.5ZM18 12v3.75h1.5c.723 0 1.5-.726 1.5-1.875S20.223 12 19.5 12H18Z" clip-rule="evenodd"/>
  <path fill-rule="evenodd" d="M12 3C8.778 3 6 6.018 6 9.964v1.286H4.5V9.964C4.5 5.384 7.768 1.5 12 1.5s7.5 3.884 7.5 8.464v1.286H18V9.964C18 6.018 15.222 3 12 3ZM9.751 21C7.53 21 6 18.822 6 16.5h1.5c0 1.823 1.153 3 2.251 3h1.499V21H9.751Z" clip-rule="evenodd"/>
</svg>
