<svg xmlns="http://www.w3.org/2000/svg" width="24" height="24" fill="currentColor" viewBox="0 0 24 24">
  <path d="M12 18a2.25 2.25 0 1 1 0 4.5 2.25 2.25 0 0 1 0-4.5Zm0 1.5a.75.75 0 1 0 0 1.5.75.75 0 0 0 0-1.5Zm-7.5-5.25a2.25 2.25 0 1 1 0 4.5 2.25 2.25 0 0 1 0-4.5Zm15 0a2.25 2.25 0 1 1 0 4.5 2.25 2.25 0 0 1 0-4.5Zm-5.247-7.507c.504 0 .966.252 1.246.653l.054.083 2.24 3.74v.003l.052.09a1.524 1.524 0 0 1-.051 1.463l-.001.001-2.233 3.742-.001-.001c-.276.462-.77.74-1.302.74H9.743a1.524 1.524 0 0 1-1.3-.735l-.003-.004-2.234-3.742a1.523 1.523 0 0 1 0-1.554v-.002l2.23-3.737.055-.085c.284-.41.75-.655 1.248-.655h4.514ZM4.5 15.75a.75.75 0 1 0 0 1.5.75.75 0 0 0 0-1.5Zm15 0a.75.75 0 1 0 0 1.5.75.75 0 0 0 0-1.5ZM9.737 8.26l-2.23 3.736V12l2.231 3.737a.024.024 0 0 0 .007.007h4.512l.002-.003L16.492 12v-.004l-2.235-3.731-.006-.006H9.739l-.002.002ZM4.5 5.25a2.25 2.25 0 1 1 0 4.5 2.25 2.25 0 0 1 0-4.5Zm15 0a2.25 2.25 0 1 1 0 4.5 2.25 2.25 0 0 1 0-4.5Zm-15 1.5a.75.75 0 1 0 0 1.5.75.75 0 0 0 0-1.5Zm15 0a.75.75 0 1 0 0 1.5.75.75 0 0 0 0-1.5ZM12 1.5A2.25 2.25 0 1 1 12 6a2.25 2.25 0 0 1 0-4.5ZM12 3a.75.75 0 1 0 0 1.5.75.75 0 0 0 0-1.5Z"/>
</svg>
