<svg xmlns="http://www.w3.org/2000/svg" width="24" height="24" fill="currentColor" viewBox="0 0 24 24">
  <path fill-rule="evenodd" d="M6 1.5a3.75 3.75 0 0 0-3.75 3.75v12A3.75 3.75 0 0 0 6 21h1.667a.75.75 0 0 0 0-1.5H6a2.25 2.25 0 0 1-2.25-2.25V15H9a.75.75 0 0 0 0-1.5H3.75V9h10.5a.75.75 0 0 0 1.5 0V5.25A3.75 3.75 0 0 0 12 1.5H6Zm8.25 6V5.25A2.25 2.25 0 0 0 12 3H6a2.25 2.25 0 0 0-2.25 2.25V7.5h10.5ZM6 5.25a.75.75 0 1 0 0 1.5.75.75 0 0 0 0-1.5Zm-.75 6a.75.75 0 1 1 1.5 0 .75.75 0 0 1-1.5 0ZM6 16.5A.75.75 0 1 0 6 18a.75.75 0 0 0 0-1.5Zm10.276-4.487-5.629 5.625 3.212 3.215 5.628-5.629-.525-2.686-2.686-.525Zm.25-1.48a1.341 1.341 0 0 0-1.245.354l-5.956 5.952-.007.007c-.458.47-.396 1.187.025 1.609l3.698 3.702.007.006c.415.406 1.135.487 1.61.013l5.955-5.956a1.34 1.34 0 0 0 .354-1.245l-.553-2.831a1.387 1.387 0 0 0-1.057-1.058l-2.832-.553Zm.349 2.967a1.125 1.125 0 1 0 0 2.25 1.125 1.125 0 0 0 0-2.25Z" clip-rule="evenodd"/>
</svg>
