<svg xmlns="http://www.w3.org/2000/svg" width="24" height="24" fill="currentColor" viewBox="0 0 24 24">
  <path fill-rule="evenodd" d="M7.725 19.495a1.35 1.35 0 0 1-.675-.188l-2.138-1.29a1.362 1.362 0 0 1-.472-1.814l.69-1.252a7.496 7.496 0 0 1-.997-1.814h-1.32c-.728 0-1.313-.6-1.313-1.342V9.208c0-.742.592-1.342 1.313-1.342h1.32c.247-.66.585-1.267.997-1.815L4.44 4.8a1.366 1.366 0 0 1 .472-1.807l2.146-1.305a1.28 1.28 0 0 1 1.005-.142c.345.09.63.322.81.637l.667 1.215a6.863 6.863 0 0 1 1.92 0l.667-1.215a1.32 1.32 0 0 1 .81-.645c.338-.09.713-.037 1.006.143l2.137 1.29c.608.367.825 1.177.473 1.814l-.69 1.252a7.36 7.36 0 0 1 .997 1.815h1.32c1.253 0 1.313.952 1.313 1.14a.752.752 0 0 1-1.41.36h-1.365a1.3 1.3 0 0 1-1.23-.878 6.04 6.04 0 0 0-.878-1.597 1.383 1.383 0 0 1-.112-1.485l.667-1.214-1.83-1.11-.638 1.155c-.27.495-.817.765-1.357.667a5.326 5.326 0 0 0-1.725 0c-.54.09-1.08-.18-1.35-.667l-.638-1.155-1.83 1.11.668 1.214c.263.473.218 1.05-.105 1.477a5.709 5.709 0 0 0-.885 1.613c-.188.517-.682.87-1.222.87H2.977v2.279h1.276a1.3 1.3 0 0 1 1.23.877c.21.57.502 1.11.877 1.597.322.412.367 1.012.112 1.485l-.667 1.214 1.83 1.11.638-1.155a.75.75 0 0 1 1.02-.292.743.743 0 0 1 .292 1.02l-.728 1.327a1.319 1.319 0 0 1-1.14.69l.008-.008Zm4.422-1.862 5.629-5.623 2.686.524.525 2.686-5.628 5.627-3.212-3.214Zm4.633-6.749a1.341 1.341 0 0 1 1.245-.353l2.831.553a1.387 1.387 0 0 1 1.057 1.057l.554 2.83c.097.438-.02.91-.354 1.244l-5.956 5.955c-.474.474-1.194.393-1.61-.013l-.006-.006-3.698-3.7v-.001c-.421-.421-.483-1.139-.025-1.608l.007-.007 5.956-5.95Zm1.595 2.613a1.125 1.125 0 1 0 0 2.25 1.125 1.125 0 0 0 0-2.25Zm-8.535.87c.217.037.443.052.66.052l.008.007a3.889 3.889 0 0 0 2.767-1.154 3.88 3.88 0 0 0 1.095-3.427c-.262-1.62-1.582-2.939-3.21-3.209a3.898 3.898 0 0 0-3.435 1.095 3.88 3.88 0 0 0-1.095 3.426c.263 1.62 1.583 2.94 3.21 3.21Zm-1.057-5.58a2.406 2.406 0 0 1 2.13-.674 2.424 2.424 0 0 1 1.297 4.101 2.444 2.444 0 0 1-2.13.675 2.424 2.424 0 0 1-1.297-4.101Z" clip-rule="evenodd"/>
</svg>
