<svg xmlns="http://www.w3.org/2000/svg" width="24" height="24" fill="currentColor" viewBox="0 0 24 24">
  <path fill-rule="evenodd" d="M14.383 2.965a.356.356 0 0 0-.34.08L2.956 14.125a.065.065 0 0 0 .004.005l6.898 6.904a.09.09 0 0 0 .01.009L20.956 9.958a.357.357 0 0 0 .08-.34.71.71 0 0 1-.006-.03l-1.032-5.283a.439.439 0 0 0-.302-.302L14.411 2.97a.779.779 0 0 1-.028-.006Zm.329-1.464a1.854 1.854 0 0 0-1.73.484L1.866 13.093l-.007.007c-.585.6-.516 1.532.041 2.09l6.902 6.91.007.005c.555.543 1.49.63 2.09.03l11.116-11.117a1.854 1.854 0 0 0 .484-1.73l-1.034-5.293a1.939 1.939 0 0 0-1.46-1.46L14.71 1.5Z" clip-rule="evenodd"/>
  <path fill-rule="evenodd" d="M16.5 6a1.5 1.5 0 1 0 0 3 1.5 1.5 0 0 0 0-3Zm-3 1.5a3 3 0 1 1 6 0 3 3 0 0 1-6 0Z" clip-rule="evenodd"/>
</svg>
