<svg xmlns="http://www.w3.org/2000/svg" width="24" height="24" fill="currentColor" viewBox="0 0 24 24">
  <path fill-rule="evenodd" d="M13.985 3.038c.07-.07.19-.115.338-.08l.029.006 5.26 1.027c.144.04.26.156.3.3l1.027 5.26.006.029a.355.355 0 0 1-.08.339L9.831 20.953a.09.09 0 0 1-.01-.009l-6.867-6.872a.052.052 0 0 1-.004-.006L13.985 3.038Zm-1.056-1.056a1.845 1.845 0 0 1 1.722-.48L19.92 2.53a1.93 1.93 0 0 1 1.454 1.454l1.028 5.269a1.845 1.845 0 0 1-.481 1.721L10.856 22.04c-.598.599-1.528.512-2.08-.028l-.007-.007-6.87-6.877c-.556-.555-.624-1.483-.042-2.08l.007-.007L12.929 1.982Zm2.009 5.49a1.493 1.493 0 1 1 2.986 0 1.493 1.493 0 0 1-2.986 0Zm1.493-2.986a2.986 2.986 0 1 0 0 5.973 2.986 2.986 0 0 0 0-5.973Z" clip-rule="evenodd"/>
</svg>
