<svg xmlns="http://www.w3.org/2000/svg" width="24" height="24" fill="currentColor" viewBox="0 0 24 24">
  <path fill-rule="evenodd" d="M14.25 3h-4.5v3h4.5V3Zm-4.5-1.5A1.5 1.5 0 0 0 8.25 3v.75H6A2.25 2.25 0 0 0 3.75 6v14.25A2.25 2.25 0 0 0 6 22.5h12a2.25 2.25 0 0 0 2.25-2.25V6A2.25 2.25 0 0 0 18 3.75h-2.25V3a1.5 1.5 0 0 0-1.5-1.5h-4.5ZM6 5.25h2.25V6a1.5 1.5 0 0 0 1.5 1.5h4.5a1.5 1.5 0 0 0 1.5-1.5v-.75H18a.75.75 0 0 1 .75.75v14.25A.75.75 0 0 1 18 21H6a.75.75 0 0 1-.75-.75V6A.75.75 0 0 1 6 5.25Zm10.342 4.96a.75.75 0 1 0-1.184-.92l-4.657 5.988-1.659-2.134a.75.75 0 1 0-1.184.921l2.251 2.895a.75.75 0 0 0 1.184 0l5.25-6.75Z" clip-rule="evenodd"/>
</svg>
