<svg xmlns="http://www.w3.org/2000/svg" width="24" height="24" fill="none" viewBox="0 0 24 24">
  <path fill="#3D3C3C" fill-rule="evenodd" d="M8.25 3h4.5v3h-4.5V3Zm-1.5 0a1.5 1.5 0 0 1 1.5-1.5h4.5a1.5 1.5 0 0 1 1.5 1.5v.75h2.25A2.25 2.25 0 0 1 18.75 6v.75a.75.75 0 0 1-1.5 0V6a.75.75 0 0 0-.75-.75h-2.25V6a1.5 1.5 0 0 1-1.5 1.5h-4.5A1.5 1.5 0 0 1 6.75 6v-.75H4.5a.75.75 0 0 0-.75.75v14.25c0 .414.336.75.75.75h2.25a.75.75 0 0 1 0 1.5H4.5a2.25 2.25 0 0 1-2.25-2.25V6A2.25 2.25 0 0 1 4.5 3.75h2.25V3Zm9.848 6.396a.75.75 0 0 1 1.01-.31l2.623 1.373a.75.75 0 0 1 .319 1.01l-.474.916c.238.312.44.647.604.997l1.105.052a.75.75 0 0 1 .715.749v2.876a.75.75 0 0 1-.726.75l-.97.03c-.07.17-.148.34-.237.507l-.003.006a6.04 6.04 0 0 1-.295.488l.592 1.02a.75.75 0 0 1-.281 1.03l-2.691 1.514a.75.75 0 0 1-1.04-.32l-.436-.88a5.309 5.309 0 0 1-1.05.03l-.46.864a.75.75 0 0 1-1.01.311l-2.649-1.386a.75.75 0 0 1-.312-1.021l.486-.9a5.507 5.507 0 0 1-.579-.95l-.974.032a.75.75 0 0 1-.774-.727l-.09-2.998a.75.75 0 0 1 .725-.772l.97-.032a5.257 5.257 0 0 1 .528-.99l-.513-.835a.75.75 0 0 1 .222-1.016l2.525-1.687a.75.75 0 0 1 1.067.25l.527.918c.357-.048.72-.06 1.084-.035l.462-.864Zm.972 1.363-.353.661a.75.75 0 0 1-.793.385 3.804 3.804 0 0 0-1.576.054.75.75 0 0 1-.831-.355l-.393-.684-1.257.84.4.653a.75.75 0 0 1-.063.874 3.948 3.948 0 0 0-.753 1.417.75.75 0 0 1-.694.533l-.735.024.046 1.5.736-.024a.75.75 0 0 1 .729.491c.186.508.465.974.835 1.369a.75.75 0 0 1 .112.869l-.367.68 1.317.69.353-.662a.75.75 0 0 1 .793-.384 3.805 3.805 0 0 0 1.576-.055.75.75 0 0 1 .852.395l.338.68 1.34-.754-.46-.79a.75.75 0 0 1 .075-.859 4.036 4.036 0 0 0 .752-1.416.75.75 0 0 1 .694-.534l.757-.024v-1.435l-.864-.04a.75.75 0 0 1-.669-.492 4.017 4.017 0 0 0-.835-1.368.75.75 0 0 1-.119-.857l.362-.7-1.305-.682Zm-.695 4.991a1.125 1.125 0 1 1-2.25 0 1.125 1.125 0 0 1 2.25 0Zm1.5 0a2.625 2.625 0 1 1-5.25 0 2.625 2.625 0 0 1 5.25 0Z" clip-rule="evenodd"/>
</svg>
