<svg xmlns="http://www.w3.org/2000/svg" width="24" height="24" fill="currentColor" viewBox="0 0 24 24">
  <path fill-rule="evenodd" d="M14.25 6.75a2.25 2.25 0 1 1 4.5 0 2.25 2.25 0 0 1-4.5 0ZM16.5 3a3.75 3.75 0 1 0 0 7.5 3.75 3.75 0 0 0 0-7.5ZM5.25 9.75a2.25 2.25 0 1 1 4.5 0 2.25 2.25 0 0 1-4.5 0ZM7.5 6a3.75 3.75 0 1 0 0 7.5 3.75 3.75 0 0 0 0-7.5ZM3 17.77l.014 1.73h8.972L12 17.77c.004-.667-.57-1.27-1.369-1.27H4.369c-.798 0-1.373.603-1.369 1.27Zm10.481 2.312.019-2.3v-.003C13.51 16.21 12.188 15 10.631 15H4.369c-1.557 0-2.878 1.21-2.869 2.78v.001l.02 2.475a.75.75 0 0 0 .75.744h10.48a.75.75 0 0 0 .731-.918Zm-1.011-6.273a1.43 1.43 0 0 1 .899-.309h6.262c.798 0 1.373.603 1.369 1.27l-.014 1.73H15.75a.75.75 0 0 0 0 1.5h6a.75.75 0 0 0 .731-.918l.019-2.3v-.002c.01-1.57-1.312-2.78-2.869-2.78h-6.262c-.695 0-1.338.238-1.839.64a.75.75 0 1 0 .94 1.17Z" clip-rule="evenodd"/>
</svg>
