<svg xmlns="http://www.w3.org/2000/svg" width="24" height="24" fill="currentColor" viewBox="0 0 24 24">
  <path fill-rule="evenodd" d="M18.45 12.715a2.383 2.383 0 0 1 3.354 0 2.366 2.366 0 0 1 0 3.352l-5.733 5.73a.725.725 0 0 1-.345.195l-1.819.456a1.6 1.6 0 0 1-.374.045v.007c-.397 0-.779-.157-1.063-.441a1.483 1.483 0 0 1-.397-1.437h-.007l.457-1.818a.716.716 0 0 1 .194-.344l5.734-5.745Zm2.299 1.062a.868.868 0 0 0-1.235 0l-5.591 5.589-.405 1.616v.007l1.647-.397 5.584-5.58a.88.88 0 0 0 0-1.235ZM16.999 1.5c1.39 0 2.459 1.165 2.459 2.532v7.245a.749.749 0 0 1-1.497 0v-4.54H2.996v10.106c0 .678.49 1.118.963 1.118h6.57a.748.748 0 0 1 0 1.497h-6.57c-1.42 0-2.459-1.238-2.459-2.615V4.032C1.5 2.665 2.57 1.5 3.959 1.5h13.04ZM3.959 2.996c-.504 0-.962.434-.963 1.036v1.21h14.965v-1.21c0-.602-.459-1.035-.962-1.036H3.959Z" clip-rule="evenodd"/>
  <path fill-rule="evenodd" d="M8.345 7.536c.748 0 1.39.595 1.39 1.373v6.232c0 .778-.642 1.373-1.39 1.373H5.14c-.748 0-1.391-.595-1.391-1.373V8.909c0-.778.643-1.373 1.391-1.373h3.204Zm-3.099 7.482H8.24V9H5.246v6.018Z" clip-rule="evenodd"/>
  <path d="M15.766 12.025a.748.748 0 1 1 0 1.496h-2.993v1.497h.756a.748.748 0 1 1 0 1.496h-.879c-.73 0-1.373-.575-1.373-1.348v-1.792c0-.773.644-1.349 1.373-1.349h3.116Zm.694-2.265a.748.748 0 0 1 0 1.496h-4.484a.748.748 0 0 1 0-1.496h4.485Zm.004-2.245a.748.748 0 0 1 0 1.497H11.98a.748.748 0 0 1 0-1.497h4.485Z"/>
</svg>
