<svg xmlns="http://www.w3.org/2000/svg" width="24" height="24" fill="currentColor" viewBox="0 0 24 24">
  <path d="M12.49 1.464c5.548.281 9.96 4.868 9.96 10.486 0 5.799-4.701 10.5-10.5 10.5l-.522-.012A10.52 10.52 0 0 1 9.9 22.25a.75.75 0 1 1 .292-1.472 9 9 0 1 0 2.22-17.816l-.463-.012-.449.01a9.018 9.018 0 0 0-1.308.161.75.75 0 0 1-.292-1.47c.664-.132 1.349-.2 2.05-.2l.54.013Zm-9.064 15.28a.75.75 0 0 1 1.04.206 9.055 9.055 0 0 0 2.484 2.485.75.75 0 0 1-.835 1.247 10.556 10.556 0 0 1-2.896-2.898.75.75 0 0 1 .207-1.04ZM11.95 5.2a.75.75 0 0 1 .75.75v5.625l2.7 2.026a.749.749 0 1 1-.9 1.199l-3-2.25a.75.75 0 0 1-.3-.6v-6a.75.75 0 0 1 .75-.75ZM1.65 9.901a.75.75 0 1 1 1.471.292 9.05 9.05 0 0 0-.17 1.757c0 .602.058 1.19.17 1.757a.75.75 0 0 1-1.47.292 10.554 10.554 0 0 1 0-4.098ZM6.115 3.22a.751.751 0 0 1 .835 1.247A9.054 9.054 0 0 0 4.466 6.95a.75.75 0 0 1-1.247-.835A10.556 10.556 0 0 1 6.115 3.22Z"/>
</svg>
