<svg xmlns="http://www.w3.org/2000/svg" width="24" height="24" fill="currentColor" viewBox="0 0 24 24">
  <path fill-rule="evenodd" d="M4.237 1.45c-1.581 0-2.787 1.343-2.787 2.906v15.232c0 1.572 1.188 2.962 2.787 2.962h15.526c1.598 0 2.787-1.382 2.787-2.962V4.356c0-1.563-1.206-2.906-2.787-2.906H4.237ZM21.05 5.972V4.356c0-.817-.614-1.406-1.287-1.406H4.237c-.673 0-1.287.589-1.287 1.406v1.616h18.1Zm-18.1 1.5h18.1v12.116c0 .87-.631 1.462-1.287 1.462H4.237c-.655 0-1.287-.598-1.287-1.462V7.472Zm2.449-3.767h-.371c-.315 0-.567.231-.567.518v.462c0 .287.252.518.567.518h.37c.316 0 .568-.231.568-.518v-.462c0-.287-.252-.518-.567-.518Zm1.918.045h.37c.316 0 .568.231.568.518v.462c0 .287-.252.518-.567.518h-.371c-.315 0-.567-.231-.567-.518v-.462c0-.287.252-.518.567-.518Zm2.62 0h-.37c-.315 0-.567.231-.567.518v.462c0 .287.252.518.567.518h.37c.316 0 .568-.231.568-.518v-.462c0-.287-.252-.518-.567-.518ZM6 10.502V10.5l.001-.001H9.75V18H6v-7.498ZM6.002 9c-.83 0-1.502.673-1.502 1.502v7.496c0 .83.672 1.502 1.502 1.502h3.746c.83 0 1.502-.673 1.502-1.502v-7.496c0-.83-.672-1.502-1.502-1.502H6.002Zm8.253 6.771v2.258l.002.002a.008.008 0 0 0 .002.002h3.77l.002-.002.002-.002v-2.258l-.002-.002-.002-.002h-3.771l-.001.002-.002.002Zm-1.5.002c0-.832.674-1.506 1.506-1.506h3.766c.832 0 1.506.674 1.506 1.506v2.254c0 .832-.674 1.506-1.506 1.506H14.26a1.506 1.506 0 0 1-1.506-1.506v-2.254Zm.75-6.784a.75.75 0 0 0 0 1.5h5.292a.75.75 0 0 0 0-1.5h-5.292ZM13.5 11.25a.75.75 0 0 0 0 1.5h5.292a.75.75 0 1 0 0-1.5H13.5Z" clip-rule="evenodd"/>
</svg>
