<svg xmlns="http://www.w3.org/2000/svg" width="24" height="24" fill="currentColor" viewBox="0 0 24 24">
  <path fill-rule="evenodd" d="M1.45 5.972h21.1v13.616c0 1.58-1.19 2.962-2.787 2.962H4.237c-1.6 0-2.787-1.39-2.787-2.962V5.972Zm1.5 1.5v12.116c0 .864.632 1.462 1.287 1.462h15.526c.656 0 1.287-.592 1.287-1.462V7.472H2.95Z" clip-rule="evenodd"/>
  <path fill-rule="evenodd" d="M1.45 4.356c0-1.563 1.206-2.906 2.787-2.906h15.526c1.581 0 2.787 1.343 2.787 2.906v3.116H1.45V4.356ZM4.237 2.95c-.673 0-1.287.589-1.287 1.406v1.616h18.1V4.356c0-.817-.614-1.406-1.287-1.406H4.237Z" clip-rule="evenodd"/>
  <path d="M5.399 3.705h-.371c-.315 0-.567.231-.567.518v.462c0 .287.252.518.567.518h.37c.316 0 .568-.231.568-.518v-.462c0-.287-.252-.518-.567-.518Zm2.289.045h-.371c-.315 0-.567.231-.567.518v.462c0 .287.252.518.567.518h.371c.315 0 .567-.231.567-.518v-.462c0-.287-.252-.518-.567-.518Zm2.25 0h-.371c-.315 0-.567.231-.567.518v.462c0 .287.252.518.567.518h.371c.315 0 .567-.231.567-.518v-.462c0-.287-.252-.518-.567-.518Z"/>
  <path fill-rule="evenodd" d="M6 10.501V18l.001.001H9.75L9.751 18v-7.5l-.001-.001H6v.003Zm-1.5.001C4.5 9.672 5.172 9 6.002 9h3.746c.83 0 1.502.673 1.502 1.502v7.496c0 .83-.672 1.502-1.502 1.502H6.002c-.83 0-1.502-.673-1.502-1.502v-7.496Zm9.755 5.269v2.258l.002.002.002.002h3.77l.002-.002.002-.002v-2.258l-.002-.002-.002-.002h-3.77l-.002.002-.002.002Zm-1.5.002c0-.832.674-1.506 1.506-1.506h3.766c.832 0 1.506.674 1.506 1.506v2.254c0 .832-.674 1.506-1.506 1.506h-3.766a1.506 1.506 0 0 1-1.506-1.506v-2.254Zm0-6.034a.75.75 0 0 1 .75-.75h5.292a.75.75 0 0 1 0 1.5h-5.292a.75.75 0 0 1-.75-.75ZM12.75 12a.75.75 0 0 1 .75-.75h5.292a.75.75 0 0 1 0 1.5H13.5a.75.75 0 0 1-.75-.75Z" clip-rule="evenodd"/>
</svg>
