<svg xmlns="http://www.w3.org/2000/svg" width="24" height="24" fill="none" viewBox="0 0 24 24">
  <path fill="#3D3C3C" fill-rule="evenodd" d="M14.726 9.298h5.09c.04 0 .082.003.122.01a2.698 2.698 0 0 1 2.546 2.992v.002l-.86 7.793v.002a2.687 2.687 0 0 1-2.676 2.403H8.798c-.494 0-.948-.176-1.302-.47a2.05 2.05 0 0 1-1.31.47H3.564A2.065 2.065 0 0 1 1.5 20.435v-7.87c0-1.14.924-2.065 2.064-2.065h2.622c.451 0 .87.145 1.209.391l1.82-4.559a1.83 1.83 0 0 0 .131-.684V3.553a2.053 2.053 0 0 1 2.255-2.04c.133.016.301.054.49.135.387.163.82.482 1.217 1.062.727 1.06 1.343 3 1.418 6.588ZM6.75 12.65v7.784a.565.565 0 0 1-.564.565H3.564A.565.565 0 0 1 3 20.435v-7.87c0-.313.253-.565.564-.565h2.622c.31 0 .564.252.564.565v.086Zm1.5 7.797v-7.653l2.354-5.899c.163-.399.242-.829.242-1.248V3.553c0-.305.25-.552.549-.552h.02a.404.404 0 0 1 .092.028c.1.042.314.165.564.53.518.755 1.163 2.519 1.163 6.489a.75.75 0 0 0 .75.75h5.722a.75.75 0 0 0 .102.007c.707 0 1.262.615 1.185 1.333v.001l-.861 7.795v.004A1.187 1.187 0 0 1 18.948 21H8.798a.552.552 0 0 1-.548-.552ZM5.625 18a.75.75 0 0 0-1.5 0v1.5a.75.75 0 0 0 1.5 0V18Z" clip-rule="evenodd"/>
</svg>
