<svg xmlns="http://www.w3.org/2000/svg" width="24" height="24" fill="currentColor" viewBox="0 0 24 24">
  <path fill-rule="evenodd" d="M3.564 3A.565.565 0 0 0 3 3.565v7.87c0 .313.253.565.564.565h2.622a.565.565 0 0 0 .564-.565v-7.87A.565.565 0 0 0 6.186 3H3.564ZM1.5 3.565c0-1.14.924-2.065 2.064-2.065h2.622c1.14 0 2.064.925 2.064 2.065v7.87c0 1.14-.924 2.065-2.064 2.065H3.564A2.065 2.065 0 0 1 1.5 11.435v-7.87Z" clip-rule="evenodd"/>
  <path fill-rule="evenodd" d="M8.798 3a.553.553 0 0 0-.548.552v7.649l2.353 5.899.002.002c.162.4.241.83.241 1.249v2.096a.553.553 0 0 0 .569.553.404.404 0 0 0 .092-.029c.1-.042.314-.165.564-.53.518-.756 1.163-2.52 1.163-6.491a.75.75 0 0 1 .75-.75h5.824c.707 0 1.262-.616 1.185-1.335l-.861-7.799v-.003A1.187 1.187 0 0 0 18.948 3H8.798Zm11.017 11.7h.008-.008Zm.008 0a2.698 2.698 0 0 0 2.661-2.997l-.86-7.798v-.001A2.687 2.687 0 0 0 18.947 1.5H8.798A2.053 2.053 0 0 0 6.75 3.552v7.793c0 .095.018.19.053.278l2.41 6.038.001.005c.087.213.132.45.132.685v2.096a2.053 2.053 0 0 0 2.255 2.04c.133-.016.301-.054.49-.135.387-.163.82-.483 1.217-1.062.727-1.061 1.343-3.002 1.418-6.59h5.082M4.875 3.75a.75.75 0 0 1 .75.75V6a.75.75 0 0 1-1.5 0V4.5a.75.75 0 0 1 .75-.75Z" clip-rule="evenodd"/>
</svg>
