<svg xmlns="http://www.w3.org/2000/svg" width="24" height="24" fill="currentColor" viewBox="0 0 24 24">
  <path fill-rule="evenodd" d="M2.814 1.5h2.622c.726 0 1.314.63 1.314 1.41v8.43c0 .78-.588 1.41-1.314 1.41H2.814c-.726 0-1.314-.63-1.314-1.41V2.91c0-.78.588-1.41 1.314-1.41Zm11.511 12.6h6.131c1.22 0 2.163-1.088 2.032-2.333l-.906-8.4c-.11-1.065-.987-1.867-2.032-1.867H8.867c-.753 0-1.367.63-1.367 1.402v8.393l2.536 6.502c.131.33.197.69.197 1.042v2.258c0 .772.614 1.402 1.367 1.402 0 0 2.725.263 2.725-8.4Z" clip-rule="evenodd"/>
</svg>
