<svg xmlns="http://www.w3.org/2000/svg" width="24" height="24" fill="currentColor" viewBox="0 0 24 24">
  <path fill-rule="evenodd" d="M14.325 9.898h6.139l-.008.007c1.22 0 2.163 1.087 2.032 2.332l-.906 8.396c-.11 1.065-.987 1.867-2.032 1.867H8.867c-.753 0-1.367-.63-1.367-1.402v-8.397l2.536-6.5c.131-.33.197-.69.197-1.042V2.903c0-.772.614-1.402 1.367-1.402 0 0 2.725-.263 2.725 8.397ZM2.815 11.25h2.62c.727 0 1.315.63 1.315 1.41v8.43c0 .78-.588 1.41-1.314 1.41H2.814c-.726 0-1.314-.63-1.314-1.41v-8.43c0-.78.588-1.41 1.314-1.41Z" clip-rule="evenodd"/>
</svg>
