<svg xmlns="http://www.w3.org/2000/svg" width="24" height="24" fill="currentColor" viewBox="0 0 24 24">
  <path fill-rule="evenodd" d="M1.5 6a.75.75 0 0 1 .75-.75h19.5a.75.75 0 0 1 0 1.5H2.25A.75.75 0 0 1 1.5 6Zm0 13.5a.75.75 0 0 1 .75-.75h19.5a.75.75 0 0 1 0 1.5H2.25a.75.75 0 0 1-.75-.75Z" clip-rule="evenodd"/>
  <path fill-rule="evenodd" d="M2.25 5.25A.75.75 0 0 1 3 6v4.5a.75.75 0 0 1-1.5 0V6a.75.75 0 0 1 .75-.75Zm0 9A.75.75 0 0 1 3 15v4.5a.75.75 0 0 1-1.5 0V15a.75.75 0 0 1 .75-.75Zm19.5-9a.75.75 0 0 1 .75.75v3.75a.75.75 0 0 1-1.5 0V6a.75.75 0 0 1 .75-.75Zm.001 8.25a.75.75 0 0 1 .75.751l-.01 5a.75.75 0 0 1-1.5-.002l.01-5a.75.75 0 0 1 .75-.749Z" clip-rule="evenodd"/>
  <path fill-rule="evenodd" d="M1.5 10.5a.75.75 0 0 1 .75-.75c1.73 0 3 1.525 3 3s-1.27 3-3 3a.75.75 0 0 1 0-1.5c.826 0 1.5-.777 1.5-1.5s-.674-1.5-1.5-1.5a.75.75 0 0 1-.75-.75Zm20.25 0a1.5 1.5 0 0 0 0 3 .75.75 0 0 1 0 1.5 3 3 0 0 1 0-6 .75.75 0 0 1 0 1.5ZM7.5 7.5a.75.75 0 0 1 .75.75v1.5a.75.75 0 0 1-1.5 0v-1.5a.75.75 0 0 1 .75-.75Zm0 3.75a.75.75 0 0 1 .75.75v1.5a.75.75 0 0 1-1.5 0V12a.75.75 0 0 1 .75-.75Zm0 3.75a.75.75 0 0 1 .75.75v1.5a.75.75 0 0 1-1.5 0v-1.5A.75.75 0 0 1 7.5 15Z" clip-rule="evenodd"/>
</svg>
