<svg xmlns="http://www.w3.org/2000/svg" width="24" height="24" fill="currentColor" viewBox="0 0 24 24">
  <path d="M8.25 8.25a.75.75 0 0 0-1.5 0v1.5a.75.75 0 0 0 1.5 0v-1.5Zm-.75 3a.75.75 0 0 1 .75.75v1.5a.75.75 0 0 1-1.5 0V12a.75.75 0 0 1 .75-.75Zm.75 4.5a.75.75 0 0 0-1.5 0v1.5a.75.75 0 0 0 1.5 0v-1.5Z"/>
  <path fill-rule="evenodd" d="M1.5 6a.75.75 0 0 1 .75-.75h19.5a.75.75 0 0 1 .75.75v3.75a.75.75 0 0 1-.75.75 1.5 1.5 0 0 0 0 3h.001a.75.75 0 0 1 .749.751l-.009 5a.775.775 0 0 1-.006.098.75.75 0 0 1-.735.9H2.25a.75.75 0 0 1-.75-.749V15a.75.75 0 0 1 .75-.75c.826 0 1.5-.777 1.5-1.5s-.674-1.5-1.5-1.5a.75.75 0 0 1-.75-.75V6Zm19.5.75v2.344a3.002 3.002 0 0 0-.001 5.811l-.007 3.845H3v-3.1c1.335-.36 2.25-1.648 2.25-2.9S4.335 10.21 3 9.85v-3.1h18Z" clip-rule="evenodd"/>
</svg>
