<svg xmlns="http://www.w3.org/2000/svg" width="24" height="24" fill="currentColor" viewBox="0 0 24 24">
  <path d="M17.225 11.95a5.25 5.25 0 1 1 0 10.5 5.25 5.25 0 1 1 0-10.5Zm0 1.5a3.75 3.75 0 1 0-.001 7.5 3.75 3.75 0 0 0 0-7.5Zm1.061 1.63a.75.75 0 1 1 1.06 1.06l-1.06 1.06 1.06 1.06a.75.75 0 0 1-1.06 1.061l-1.061-1.061-1.06 1.061a.75.75 0 0 1-1.061-1.06l1.06-1.06-1.06-1.061a.75.75 0 0 1 1.06-1.06l1.06 1.06 1.062-1.06ZM10.49 1.45c4.72 0 8.594 3.618 8.983 8.23a.75.75 0 1 1-1.495.126c-.323-3.838-3.55-6.856-7.488-6.856-4.152 0-7.514 3.357-7.514 7.492 0 3.905 3.044 7.162 6.881 7.511a.75.75 0 0 1-.135 1.494c-4.598-.418-8.246-4.311-8.246-9.005 0-4.968 4.038-8.992 9.014-8.992Zm-.014 3.75a.75.75 0 0 1 .75.75V9.7l1.35 1.8a.75.75 0 0 1-1.2.9l-1.5-2a.752.752 0 0 1-.15-.45v-4a.75.75 0 0 1 .75-.75Z"/>
</svg>
