<svg xmlns="http://www.w3.org/2000/svg" width="24" height="24" fill="currentColor" viewBox="0 0 24 24">
  <path fill-rule="evenodd" d="M18 .75A5.25 5.25 0 0 0 12.75 6a5.25 5.25 0 1 0 10.5 0A5.25 5.25 0 0 0 18 .75ZM14.25 6a3.75 3.75 0 1 1 7.499-.001A3.75 3.75 0 0 1 14.25 6Zm4.5-2.25a.75.75 0 0 0-1.5 0v1.5h-1.5a.75.75 0 0 0 0 1.5h1.5v1.5a.75.75 0 0 0 1.5 0v-1.5h1.5a.75.75 0 0 0 0-1.5h-1.5v-1.5Zm-7.5.726a.75.75 0 0 1-.718.781 7.875 7.875 0 1 0 8.21 8.21.75.75 0 1 1 1.5.065 9.376 9.376 0 0 1-9.367 8.968 9.375 9.375 0 0 1-.407-18.741.75.75 0 0 1 .781.717Zm0 4.524a.75.75 0 0 0-1.5 0v4.49a.754.754 0 0 0 .344.64l2.24 1.494a.75.75 0 1 0 .832-1.248l-1.916-1.277V9Z" clip-rule="evenodd"/>
</svg>
