<svg xmlns="http://www.w3.org/2000/svg" width="24" height="24" fill="none" viewBox="0 0 24 24">
  <path fill="#3D3C3C" fill-rule="evenodd" d="M5.1 1.5a.75.75 0 0 0-.706.497l-1.35 3.76a.75.75 0 0 0 .149.755l.932 1.035V12H3a.75.75 0 0 0 0 1.5h.75v6.601c0 .589.206 1.201.632 1.67a2.16 2.16 0 0 0 3.236 0 2.474 2.474 0 0 0 .632-1.67V13.5H9A.75.75 0 0 0 9 12H7.875V7.547l.932-1.035a.75.75 0 0 0 .149-.755l-1.35-3.76A.75.75 0 0 0 6.9 1.5H5.1Zm.15 18.601V13.5h1.5v6.601a.975.975 0 0 1-.242.662.661.661 0 0 1-1.016 0 .992.992 0 0 1-.242-.662ZM5.625 12h.75V7.259a.75.75 0 0 1 .193-.502l.825-.916L6.373 3h-.745l-1.02 2.841.824.916a.75.75 0 0 1 .193.502V12Zm6.637-10.262-.005.003.008-.005-.003.002Zm1.337-.099a1.303 1.303 0 0 0-1.337.099C10.752 2.794 9.75 4.52 9.75 6.495c0 2.198 1.244 4.091 3.063 5.084v8.053c0 1.607 1.333 2.868 2.937 2.868 1.604 0 2.938-1.261 2.938-2.868V11.58c1.819-.994 3.062-2.893 3.062-5.084a.753.753 0 0 0-.017-.157c-.051-1.903-1.039-3.572-2.51-4.6a1.303 1.303 0 0 0-1.337-.099 1.28 1.28 0 0 0-.706 1.144v3.712c0 .017-.006.04-.03.062a.136.136 0 0 1-.095.038H14.43a.135.135 0 0 1-.095-.038.086.086 0 0 1-.03-.062V2.783c0-.493-.28-.929-.706-1.144Zm6.637 4.856c0 .046.004.092.012.136-.054 1.673-1.1 3.125-2.614 3.797a.75.75 0 0 0-.447.685v8.52c0 .733-.617 1.367-1.437 1.367-.82 0-1.438-.634-1.438-1.368v-8.519a.75.75 0 0 0-.446-.685c-1.556-.69-2.616-2.196-2.616-3.933 0-1.31.598-2.484 1.555-3.285v3.285c0 .902.751 1.6 1.625 1.6h2.625c.874 0 1.625-.698 1.625-1.6V3.21c.957.802 1.556 1.98 1.556 3.285Z" clip-rule="evenodd"/>
</svg>
