<svg xmlns="http://www.w3.org/2000/svg" width="24" height="24" fill="none" viewBox="0 0 24 24">
  <path fill="#3D3C3C" fill-rule="evenodd" d="M7.152 1.591a6.754 6.754 0 0 1 5.894 1.888c.022.02.041.043.06.066a6.734 6.734 0 0 1 1.645 6.61l6.792 6.793a3.247 3.247 0 0 1 0 4.604 3.26 3.26 0 0 1-4.6-.002l-6.793-6.793a6.753 6.753 0 0 1-8.56-7.594c.08-.51.446-.936.94-1.09a1.375 1.375 0 0 1 1.383.338l3.09 3.097c.11.105.273.098.369.003L9.5 7.382a.263.263 0 0 0 .003-.368l-3.1-3.1a1.374 1.374 0 0 1-.337-1.384c.159-.51.594-.85 1.073-.936l.012-.003Zm.48 1.44 2.928 2.927c.684.684.677 1.787.004 2.472l-.004.005-2.132 2.13a1.755 1.755 0 0 1-2.472.006l-.005-.006-2.92-2.927a5.262 5.262 0 0 0 7.062 5.566.746.746 0 0 1 .787.172L18 20.495a1.768 1.768 0 0 0 2.491-.002 1.755 1.755 0 0 0 0-2.486l-.002-.002-7.119-7.119a.746.746 0 0 1-.172-.787 5.248 5.248 0 0 0-1.206-5.557.734.734 0 0 1-.055-.061 5.258 5.258 0 0 0-4.305-1.45Z" clip-rule="evenodd"/>
</svg>
