<svg xmlns="http://www.w3.org/2000/svg" width="24" height="24" fill="currentColor" viewBox="0 0 24 24">
  <path d="M12 2.25a2.25 2.25 0 0 1 2.25 2.25c0 .117-.012.23-.03.343l4.528 3.234a2.25 2.25 0 1 1 1.7 3.912l-1.637 5.893a2.25 2.25 0 1 1-3.68 2.368H8.869A2.249 2.249 0 0 1 4.5 19.5c0-.766.383-1.443.968-1.85l-1.886-5.659a2.248 2.248 0 1 1 1.669-3.914l4.527-3.234A2.25 2.25 0 0 1 12 2.25Zm-5.25 16.5a.75.75 0 1 0 0 1.5.75.75 0 0 0 0-1.5Zm10.5 0a.75.75 0 1 0 0 1.5.75.75 0 0 0 0-1.5Zm-8.783-.703c.174.206.31.444.402.703h6.262c.026-.075.056-.148.09-.219a.75.75 0 0 1-.085-.101l-2.472-3.53a2.248 2.248 0 0 1-1.356-.01l-2.841 3.157Zm5.774-5.142c-.027.405-.159.78-.373 1.099l2.423 3.462a2.24 2.24 0 0 1 1.136-.207l1.567-5.642a2.265 2.265 0 0 1-.344-.286l-4.409 1.574ZM5.35 11.331a2.259 2.259 0 0 1-.319.268l1.887 5.659c.073.005.145.015.216.027l2.98-3.311a2.233 2.233 0 0 1-.355-1.069l-4.41-1.574ZM12 12a.75.75 0 1 0 0 1.5.75.75 0 0 0 0-1.5ZM5.97 9.406c.018.112.03.227.03.344 0 .074-.005.146-.012.218l4.171 1.489a2.253 2.253 0 0 1 1.091-.826V6.618a2.26 2.26 0 0 1-.752-.446L5.971 9.406Zm7.531-3.234c-.217.195-.47.347-.751.446v4.013c.444.157.823.448 1.09.826l4.17-1.49a2.264 2.264 0 0 1 .018-.562l-4.527-3.233ZM3.75 9a.75.75 0 1 0 0 1.5.75.75 0 0 0 0-1.5Zm16.5 0a.75.75 0 1 0 0 1.5.75.75 0 0 0 0-1.5ZM12 3.75a.75.75 0 1 0 0 1.5.75.75 0 0 0 0-1.5Z"/>
</svg>
