<svg xmlns="http://www.w3.org/2000/svg" width="24" height="24" fill="currentColor" viewBox="0 0 24 24">
  <path d="M15.367 11.648c-.759 0-1.384.532-1.384 1.192v-.428c0-.66-.616-1.192-1.375-1.192-.758 0-1.375.532-1.375 1.192v-5.97c0-.66-.616-1.192-1.383-1.192s-1.375.532-1.375 1.192v9.233l-1.242-2.663c-.291-.622-1.058-.967-1.775-.764-.75.21-1.133.907-.866 1.537l1.2 2.933s.183.562.65 1.387c1.075 1.89 1.933 2.805 2.6 3.405.733.667 1.816.99 2.908.99h2.942c1.6 0 3.066-.788 3.775-2.032.383-.675.841-1.373.841-3.698l-2.758-3.51v-.428c0-.66-.617-1.192-1.375-1.192l-.008.008Z"/>
  <path d="M19.5 13.26c0-.66-.617-1.192-1.383-1.192-.767 0-1.375.532-1.375 1.192l2.758 3.51v-3.51Z"/>
  <path fill-rule="evenodd" d="M10.125 1.5a.75.75 0 0 1 .75.75v1.5a.75.75 0 0 1-1.5 0v-1.5a.75.75 0 0 1 .75-.75Zm3.694 1.405a.75.75 0 0 1 .074 1.058l-1.01 1.166a.75.75 0 0 1-1.134-.983l1.011-1.165a.75.75 0 0 1 1.059-.075Zm-7.485-.001a.75.75 0 0 1 1.058.079l1.004 1.165a.75.75 0 0 1-1.137.98L6.255 3.961a.75.75 0 0 1 .079-1.058Zm-1.83 3.678a.75.75 0 0 1 .818-.675l1.531.148a.75.75 0 1 1-.144 1.493L5.18 7.4a.75.75 0 0 1-.675-.818Zm11.143 0a.75.75 0 0 1-.675.818l-1.531.148a.75.75 0 1 1-.144-1.493l1.531-.148a.75.75 0 0 1 .819.675Z" clip-rule="evenodd"/>
</svg>
