<svg xmlns="http://www.w3.org/2000/svg" width="24" height="24" fill="currentColor" viewBox="0 0 24 24">
  <path fill-rule="evenodd" d="M15.385 12.735a.38.38 0 0 0-.38.38v.013l-.02 1.135a.735.735 0 1 1-1.47-.026l.02-1.13a1.85 1.85 0 0 1 3.7.008v.399a.735.735 0 0 1-1.47 0v-.4a.38.38 0 0 0-.38-.379Z" clip-rule="evenodd"/>
  <path fill-rule="evenodd" d="M17.625 12.735a.398.398 0 0 0-.39.406.735.735 0 1 1-1.47 0c0-1.028.825-1.876 1.86-1.876 1.035 0 1.86.848 1.86 1.876V16.5a.735.735 0 0 1-1.47 0v-3.359a.398.398 0 0 0-.39-.406Z" clip-rule="evenodd"/>
  <path fill-rule="evenodd" d="M5.897 11.35a2.078 2.078 0 0 1 2.478 1.129l.002.005 1.297 2.972a.735.735 0 0 1-1.348.588l-1.295-2.969a.608.608 0 0 0-.716-.316l-.001.001a.468.468 0 0 0-.292.218.293.293 0 0 0-.014.256.784.784 0 0 1 .012.033l.77 2.214.01.019a26.779 26.779 0 0 0 .258.57c.166.359.38.804.58 1.175.932 1.721 1.657 2.523 2.198 3.035l.003.003c.488.466 1.261.732 2.11.732h2.646c1.197 0 2.254-.62 2.751-1.537l.044-.08c.158-.292.293-.539.403-.932.123-.436.222-1.079.222-2.135a.735.735 0 1 1 1.47 0c0 1.144-.107 1.93-.277 2.533a5.495 5.495 0 0 1-.524 1.23c-.015.03-.03.057-.045.083-.778 1.437-2.36 2.308-4.044 2.308h-2.647c-1.116 0-2.292-.344-3.124-1.139-.658-.623-1.477-1.551-2.48-3.402v-.002c-.22-.409-.449-.885-.62-1.253a39.143 39.143 0 0 1-.27-.595l-.015-.036-.006-.013a.749.749 0 0 1-.021-.053l-.775-2.227c-.408-1.043.23-2.112 1.262-2.415l.207.705-.209-.705Z" clip-rule="evenodd"/>
  <path fill-rule="evenodd" d="M12.75 11.985c-.537 0-.765.349-.765.543v.972a.735.735 0 0 1-1.47 0v-.972c0-1.22 1.118-2.013 2.235-2.013 1.117 0 2.235.793 2.235 2.013v.458a.735.735 0 0 1-1.47 0v-.458c0-.194-.228-.543-.765-.543Z" clip-rule="evenodd"/>
  <path fill-rule="evenodd" d="M10.125 6.735a.385.385 0 0 0-.39.38v8.635a.735.735 0 0 1-1.47 0V7.115c0-1.03.84-1.85 1.86-1.85s1.86.82 1.86 1.85v5.998a.735.735 0 0 1-1.47 0V7.115a.385.385 0 0 0-.39-.38Zm6.375 6.03c.406 0 .735.33.735.735V15a.735.735 0 0 1-1.47 0v-1.5c0-.406.33-.735.735-.735ZM10.125 1.5a.75.75 0 0 1 .75.75v1.5a.75.75 0 0 1-1.5 0v-1.5a.75.75 0 0 1 .75-.75Zm3.694 1.405a.75.75 0 0 1 .074 1.058l-1.01 1.166a.75.75 0 0 1-1.134-.983l1.011-1.165a.75.75 0 0 1 1.059-.075Zm-7.485-.001a.75.75 0 0 1 1.058.079l1.004 1.165a.75.75 0 0 1-1.137.98L6.255 3.961a.75.75 0 0 1 .079-1.058Zm-1.83 3.678a.75.75 0 0 1 .818-.675l1.531.148a.75.75 0 1 1-.144 1.493L5.18 7.4a.75.75 0 0 1-.675-.818Zm11.143 0a.75.75 0 0 1-.675.818l-1.531.148a.75.75 0 1 1-.144-1.493l1.531-.148a.75.75 0 0 1 .819.675Z" clip-rule="evenodd"/>
</svg>
