<svg xmlns="http://www.w3.org/2000/svg" width="24" height="24" fill="currentColor" viewBox="0 0 24 24">
  <path fill-rule="evenodd" d="M6.75 3a2.25 2.25 0 1 0 0 4.5 2.25 2.25 0 0 0 0-4.5ZM3 5.25a3.75 3.75 0 0 1 7.425-.75h6.325C19.074 4.5 21 6.319 21 8.625s-1.926 4.125-4.25 4.125h-8C7.203 12.75 6 13.948 6 15.375S7.203 18 8.75 18h4.825a3.751 3.751 0 0 1 7.425.75 3.75 3.75 0 0 1-7.425.75H8.75c-2.324 0-4.25-1.819-4.25-4.125s1.926-4.125 4.25-4.125h8c1.547 0 2.75-1.198 2.75-2.625S18.297 6 16.75 6h-6.325A3.751 3.751 0 0 1 3 5.25Zm12 13.5a2.25 2.25 0 1 0 4.5 0 2.25 2.25 0 0 0-4.5 0Z" clip-rule="evenodd"/>
</svg>
