<svg xmlns="http://www.w3.org/2000/svg" width="24" height="24" fill="currentColor" viewBox="0 0 24 24">
  <path fill-rule="evenodd" d="M15.297 18c1.056 0 1.959.83 1.953 1.999v1.751a.75.75 0 0 1-.75.75h-6a.75.75 0 0 1-.75-.75v-1.683C9.744 18.855 10.794 18 11.82 18h3.477Zm-3.477 1.5c-.287 0-.572.269-.57.561V21h4.5v-1.007c.002-.32-.209-.493-.453-.493H11.82Z" clip-rule="evenodd"/>
  <path d="M21.223 18c1.053 0 2.034.788 2.027 1.999v1.751a.75.75 0 0 1-.75.75h-3.58a.75.75 0 0 1 0-1.5h2.83v-1.007c.002-.279-.2-.493-.527-.493H18.75a.75.75 0 0 1 0-1.5h2.473ZM12.357 7.5c1.023 0 1.893.81 1.893 1.855 0 1.004-.805 1.895-1.875 1.895H9v9.27c0 .622-.473 1.23-1.21 1.23H4.126a1.08 1.08 0 0 1-.905-.461 1.34 1.34 0 0 1-.22-.766V13.5a.75.75 0 0 1 1.5 0v6.75h3v-9.375c0-.621.504-1.125 1.125-1.125h3.75a.39.39 0 0 0 .375-.395c0-.17-.153-.355-.393-.355H3.58c-.761 0-1.33.586-1.331 1.26v3.99a.75.75 0 0 1-1.5 0v-3.99c0-1.55 1.291-2.76 2.83-2.76h8.777Z"/>
  <path fill-rule="evenodd" d="M13.5 12.75a2.25 2.25 0 1 1 0 4.5 2.25 2.25 0 0 1 0-4.5Zm0 1.5a.75.75 0 1 0 0 1.5.75.75 0 0 0 0-1.5Zm5.465-1.5a2.25 2.25 0 1 1 0 4.5 2.25 2.25 0 0 1 0-4.5Zm0 1.5a.75.75 0 1 0 0 1.5.75.75 0 0 0 0-1.5Z" clip-rule="evenodd"/>
  <path d="M20.746 4.5a.999.999 0 0 1 1.004 1.001v5.749a.75.75 0 0 1-1.5 0V6H12a.75.75 0 0 1 0-1.5h8.746Z"/>
  <path fill-rule="evenodd" d="M6.375 1.5a2.625 2.625 0 1 1 0 5.25 2.625 2.625 0 0 1 0-5.25Zm0 1.5a1.125 1.125 0 1 0 0 2.25 1.125 1.125 0 0 0 0-2.25Z" clip-rule="evenodd"/>
</svg>
