<svg xmlns="http://www.w3.org/2000/svg" width="24" height="24" fill="currentColor" viewBox="0 0 24 24">
  <path fill-rule="evenodd" d="M7.31 4.248a.75.75 0 1 0-1.121-.996l-3 3.375a.75.75 0 0 0 0 .996l3 3.375a.75.75 0 1 0 1.12-.996L5.42 7.875h8.83c.614 0 1.192.186 1.635.336 2.256.761 3.811 3.476 3.596 6.198-.19 2.336-1.703 4.3-3.695 4.939l.002-.001h-.005c-.013.003-.047.01-.112.019-.09.012-.207.024-.346.035-.277.023-.614.042-.945.057a58.11 58.11 0 0 1-1.166.04l-.078.002H3.749a.75.75 0 0 0 0 1.5h9.421l.08-.003a54.378 54.378 0 0 0 2.199-.1c.264-.023.591-.055.796-.121 2.628-.842 4.497-3.367 4.732-6.246v-.002c.256-3.248-1.564-6.71-4.612-7.739-.44-.148-1.229-.414-2.115-.414H5.42l1.89-2.127Z" clip-rule="evenodd"/>
</svg>
