<svg xmlns="http://www.w3.org/2000/svg" width="24" height="24" fill="currentColor" viewBox="0 0 24 24">
  <path fill-rule="evenodd" d="M8.25 7.891c0-2.345 1.738-4.141 3.746-4.141 1.01 0 1.944.447 2.633 1.194.385.418.69.927.884 1.5a.75.75 0 1 0 1.42-.483 5.709 5.709 0 0 0-1.201-2.034c-.944-1.024-2.267-1.677-3.736-1.677-2.952 0-5.246 2.588-5.246 5.641V9c0 .073.01.144.03.21-.348.03-.686.064-1.014.101l-.012.002a1.434 1.434 0 0 0-1.254 1.42v9.284c0 .722.533 1.342 1.268 1.422 3.693.415 8.773.415 12.466 0l.012-.002a1.434 1.434 0 0 0 1.254-1.42v-9.284c0-.722-.533-1.342-1.268-1.422-2.92-.328-6.707-.397-9.99-.206A.756.756 0 0 0 8.25 9V7.891ZM6 19.955v-9.16c3.555-.393 8.445-.393 12 0v9.16c-3.555.393-8.445.393-12 0Z" clip-rule="evenodd"/>
</svg>
