<svg xmlns="http://www.w3.org/2000/svg" width="24" height="24" fill="currentColor" viewBox="0 0 24 24">
  <path d="M18 10.794c-3.555-.392-8.445-.392-12 0v9.16c3.555.394 8.445.394 12 0v-9.16Zm1.5 9.223a1.434 1.434 0 0 1-1.266 1.422c-3.694.415-8.775.415-12.468 0A1.423 1.423 0 0 1 4.5 20.017v-9.284c0-.723.54-1.328 1.254-1.42l.012-.002c3.693-.415 8.774-.415 12.468 0l-.001.001c.734.08 1.267.7 1.267 1.42v9.285Z"/>
  <path d="M6.75 9V7.891c0-3.053 2.294-5.641 5.246-5.641.694 0 1.373.105 2.003.398.637.298 1.18.77 1.625 1.436a.75.75 0 1 1-1.248.832c-.306-.458-.644-.737-1.011-.908-.375-.175-.822-.258-1.369-.258-2.007 0-3.746 1.796-3.746 4.141V9a.75.75 0 0 1-1.5 0Z"/>
</svg>
