<svg xmlns="http://www.w3.org/2000/svg" width="25" height="24" fill="currentColor" viewBox="0 0 25 24">
  <path d="M8.616 3a.75.75 0 1 1 0 1.5H7.49a2.25 2.25 0 0 0-2.25 2.25v10.5a2.25 2.25 0 0 0 2.25 2.25h10.5a2.25 2.25 0 0 0 2.25-2.25V6.75a2.25 2.25 0 0 0-2.25-2.25h-1.125a.75.75 0 0 1 0-1.5h1.125a3.75 3.75 0 0 1 3.75 3.75v10.5A3.75 3.75 0 0 1 17.99 21H7.49a3.75 3.75 0 0 1-3.75-3.75V6.75A3.75 3.75 0 0 1 7.49 3h1.125Zm7.202 13.504a.75.75 0 0 1 0 1.492L15.74 18h-6a.75.75 0 0 1 0-1.5h6l.077.004Zm1.423-2.254a.75.75 0 0 1 0 1.5h-9a.75.75 0 0 1 0-1.5h9ZM12.74 3a.75.75 0 0 1 .75.75l-.002 6.44 2.471-2.47.057-.051a.75.75 0 0 1 1.055 1.055l-.051.056-3.75 3.75-.055.05c-.018.015-.04.027-.06.04l-.03.02a.745.745 0 0 1-.076.04l-.046.02a.748.748 0 0 1-.263.05l-.002-.001v.001l-.013-.002a.742.742 0 0 1-.124-.012c-.022-.004-.042-.011-.063-.017l-.056-.016a.74.74 0 0 1-.096-.044l-.02-.01a.75.75 0 0 1-.076-.051c-.008-.007-.018-.011-.026-.018l-.016-.015a.754.754 0 0 1-.028-.025l-.01-.01-3.75-3.75a.75.75 0 1 1 1.06-1.06l2.468 2.468.002-6.438a.75.75 0 0 1 .75-.75Z"/>
</svg>
