<svg xmlns="http://www.w3.org/2000/svg" width="24" height="24" fill="currentColor" viewBox="0 0 24 24">
  <path fill-rule="evenodd" d="M12 3a8.997 8.997 0 0 0-7.794 13.5.75.75 0 1 1-1.299.75A10.497 10.497 0 0 1 12 1.5c2.264 0 4.297.576 6 1.768V2.25a.75.75 0 0 1 1.5 0v3a.75.75 0 0 1-.75.75h-3a.75.75 0 0 1 0-1.5h1.394C15.715 3.499 13.99 3 12 3ZM5.25 18a.75.75 0 0 0-.75.75v3a.75.75 0 0 0 1.5 0v-1.018c1.703 1.192 3.737 1.768 6 1.768a10.497 10.497 0 0 0 9.093-15.75.75.75 0 0 0-1.299.75A8.997 8.997 0 0 1 12 21c-1.99 0-3.715-.499-5.144-1.5H8.25a.75.75 0 0 0 0-1.5h-3Z" clip-rule="evenodd"/>
</svg>
