<svg xmlns="http://www.w3.org/2000/svg" width="24" height="24" fill="currentColor" viewBox="0 0 24 24">
  <path fill-rule="evenodd" d="M10.409 2.898a2.277 2.277 0 0 1 3.182 0l5.69 5.593a.729.729 0 0 1 0 1.043.76.76 0 0 1-1.061 0l-5.47-5.377V17.25a.75.75 0 0 1-1.5 0V4.157L5.78 9.534a.76.76 0 0 1-1.06 0 .729.729 0 0 1 0-1.043l5.689-5.593ZM20.25 15a.75.75 0 0 1 .75.75v4.002c0 1.541-1.279 2.748-2.81 2.748H5.81C4.28 22.5 3 21.293 3 19.752V15.75a.75.75 0 0 1 1.5 0v4.002c0 .67.563 1.248 1.31 1.248h12.38c.747 0 1.31-.579 1.31-1.248V15.75a.75.75 0 0 1 .75-.75Z" clip-rule="evenodd"/>
</svg>
