<svg xmlns="http://www.w3.org/2000/svg" width="24" height="24" fill="currentColor" viewBox="0 0 24 24">
  <path fill-rule="evenodd" d="M12 7.5a2.25 2.25 0 1 0 0 4.5 2.25 2.25 0 0 0 0-4.5ZM8.25 9.75a3.75 3.75 0 1 1 7.5 0 3.75 3.75 0 0 1-7.5 0Zm-.75 8.02.02 2.474a.75.75 0 0 1-1.5.012L6 17.781v-.002C5.99 16.21 7.312 15 8.87 15h6.262c1.557 0 2.878 1.21 2.869 2.78l-.02 2.476a.75.75 0 1 1-1.5-.012l.02-2.474c.004-.666-.57-1.27-1.369-1.27H8.869c-.798 0-1.373.604-1.369 1.27Z" clip-rule="evenodd"/>
  <path fill-rule="evenodd" d="M12 2.95a9.05 9.05 0 1 0 0 18.1 9.05 9.05 0 0 0 0-18.1ZM1.45 12C1.45 6.173 6.173 1.45 12 1.45c5.827 0 10.55 4.723 10.55 10.55 0 5.827-4.723 10.55-10.55 10.55-5.827 0-10.55-4.723-10.55-10.55Z" clip-rule="evenodd"/>
</svg>
