<svg xmlns="http://www.w3.org/2000/svg" width="24" height="24" fill="currentColor" viewBox="0 0 24 24">
  <path fill-rule="evenodd" d="M2.95 12a9.05 9.05 0 1 1 15.042 6.783L18 17.779C18.01 16.21 16.688 15 15.131 15H8.869C7.312 15 5.991 16.21 6 17.78v.001l.008 1.002A9.028 9.028 0 0 1 2.95 12Zm4.567 7.863A9.009 9.009 0 0 0 12 21.05a9.008 9.008 0 0 0 4.483-1.186l.017-2.094c.004-.666-.57-1.27-1.369-1.27H8.869c-.798 0-1.373.604-1.369 1.27l.017 2.093ZM12 1.45C6.173 1.45 1.45 6.173 1.45 12c0 5.827 4.723 10.55 10.55 10.55 5.827 0 10.55-4.723 10.55-10.55 0-5.827-4.723-10.55-10.55-10.55Zm0 6.05a2.25 2.25 0 1 0 0 4.5 2.25 2.25 0 0 0 0-4.5ZM8.25 9.75a3.75 3.75 0 1 1 7.5 0 3.75 3.75 0 0 1-7.5 0Z" clip-rule="evenodd"/>
</svg>
