<svg xmlns="http://www.w3.org/2000/svg" width="24" height="24" fill="currentColor" viewBox="0 0 24 24">
  <path fill-rule="evenodd" d="M3 12.004C3 7.036 7.031 3 12 3a9.003 9.003 0 0 1 8.895 7.614.75.75 0 1 0 1.482-.228C21.601 5.354 17.25 1.5 12 1.5 6.202 1.5 1.5 6.209 1.5 12.004c0 4.963 3.448 9.121 8.078 10.215a.75.75 0 1 0 .344-1.46 8.957 8.957 0 0 1-3.15-1.433L6.75 16.32c-.004-.705.589-1.32 1.388-1.32H10.5a.75.75 0 0 0 0-1.5H8.138c-1.58 0-2.898 1.242-2.888 2.83l.012 1.637A8.96 8.96 0 0 1 3 12.003ZM12 6a2.25 2.25 0 1 0 0 4.5A2.25 2.25 0 0 0 12 6ZM8.25 8.25a3.75 3.75 0 1 1 7.5 0 3.75 3.75 0 0 1-7.5 0Zm9.66 3.396a.75.75 0 0 1 1.008-.31l2.297 1.201a.75.75 0 0 1 .318 1.01l-.388.75c.186.249.345.514.479.79l.911.043a.75.75 0 0 1 .715.749v2.516a.75.75 0 0 1-.726.75l-.789.025a4.81 4.81 0 0 1-.188.396l-.003.005c-.07.13-.147.26-.23.386l.489.842a.75.75 0 0 1-.28 1.03l-2.356 1.325a.75.75 0 0 1-1.04-.32l-.352-.71a4.74 4.74 0 0 1-.809.022l-.375.703a.75.75 0 0 1-1.01.31l-2.317-1.212a.75.75 0 0 1-.312-1.021l.397-.735a4.909 4.909 0 0 1-.454-.743l-.791.026a.75.75 0 0 1-.774-.727l-.08-2.624a.75.75 0 0 1 .726-.772l.788-.026a4.46 4.46 0 0 1 .192-.4c.068-.128.143-.253.223-.376l-.418-.68a.75.75 0 0 1 .242-1.029l2.217-1.382a.75.75 0 0 1 1.035.243l.417.677c.284-.035.572-.046.862-.029l.375-.703Zm.971 1.363-.265.497a.75.75 0 0 1-.793.384 3.236 3.236 0 0 0-1.34.046.75.75 0 0 1-.819-.334l-.29-.472-.945.589.291.475a.75.75 0 0 1-.064.874 3.452 3.452 0 0 0-.64 1.206.75.75 0 0 1-.694.534l-.55.018.034 1.124.551-.018a.75.75 0 0 1 .729.492c.158.433.396.83.71 1.165a.75.75 0 0 1 .113.87l-.276.511.986.516.265-.497a.75.75 0 0 1 .793-.384c.449.08.907.06 1.34-.046a.75.75 0 0 1 .852.394l.251.506 1.004-.564-.354-.61a.75.75 0 0 1 .074-.858 3.46 3.46 0 0 0 .38-.57c.11-.204.194-.415.26-.636a.75.75 0 0 1 .694-.533l.572-.019v-1.075l-.667-.031a.75.75 0 0 1-.668-.491 3.42 3.42 0 0 0-.712-1.166.75.75 0 0 1-.119-.857l.274-.529-.977-.51ZM18 17.25a.75.75 0 1 1-1.5 0 .75.75 0 0 1 1.5 0Zm1.5 0a2.25 2.25 0 1 1-4.5 0 2.25 2.25 0 0 1 4.5 0Z" clip-rule="evenodd"/>
</svg>
