<svg xmlns="http://www.w3.org/2000/svg" width="24" height="24" fill="currentColor" viewBox="0 0 24 24">
  <path fill-rule="evenodd" d="M9.75 10.5a.75.75 0 0 1 .75-.75h2.852a2.402 2.402 0 0 1 2.396 2.403V15c0 .14.111.25.25.25h.502a.75.75 0 0 1 .75.75v2a.75.75 0 0 1-.75.75h-6a.75.75 0 0 1-.75-.75v-2a.75.75 0 0 1 .75-.75h.752V13.5c0-.14-.111-.25-.25-.25H10.5a.75.75 0 0 1-.75-.75v-2Zm4.498 4.52v-2.867c0-.5-.405-.903-.896-.903H11.25v.517c.848.12 1.502.847 1.502 1.733V16a.75.75 0 0 1-.75.75h-.752v.5h4.5v-.517a1.748 1.748 0 0 1-1.502-1.713ZM10.5 6.753c0-1.233.998-2.253 2.25-2.253 1.236 0 2.25.997 2.25 2.247A2.253 2.253 0 0 1 12.75 9a2.251 2.251 0 0 1-2.25-2.247ZM12.75 6a.753.753 0 0 0-.75.753c0 .409.337.747.75.747.414 0 .75-.338.75-.753A.747.747 0 0 0 12.75 6ZM3 6.75A.75.75 0 0 1 3.75 6h3a.75.75 0 0 1 0 1.5h-3A.75.75 0 0 1 3 6.75ZM3 12a.75.75 0 0 1 .75-.75h3a.75.75 0 0 1 0 1.5h-3A.75.75 0 0 1 3 12Z" clip-rule="evenodd"/>
  <path fill-rule="evenodd" d="M5.25 8.25A.75.75 0 0 1 6 9v3a.75.75 0 0 1-1.5 0V9a.75.75 0 0 1 .75-.75Zm-2.25 9a.75.75 0 0 1 .75-.75h3a.75.75 0 0 1 0 1.5h-3a.75.75 0 0 1-.75-.75Z" clip-rule="evenodd"/>
  <path fill-rule="evenodd" d="M5.25 13.5a.75.75 0 0 1 .75.75v2.25a.75.75 0 0 1-1.5 0v-2.25a.75.75 0 0 1 .75-.75Z" clip-rule="evenodd"/>
  <path fill-rule="evenodd" d="M7.082 3C6.505 3 6 3.492 6 4.122v2.503a.75.75 0 0 1-1.5 0V4.122C4.5 2.695 5.646 1.5 7.082 1.5h12.086c1.436 0 2.582 1.195 2.582 2.622v15.756c0 1.427-1.146 2.622-2.582 2.622H7.082c-1.436 0-2.582-1.195-2.582-2.622v-.416a.75.75 0 0 1 1.5 0v.416C6 20.508 6.505 21 7.082 21h12.086c.577 0 1.082-.492 1.082-1.122V4.122c0-.63-.505-1.122-1.082-1.122H7.082Z" clip-rule="evenodd"/>
</svg>
