<svg xmlns="http://www.w3.org/2000/svg" width="24" height="24" fill="currentColor" viewBox="0 0 24 24">
  <path d="M21 12.028c0-.278-.029-.383-.12-.565-.086-.163-.168-.278-.696-.803-.277-.272-.6-.61-.708-.75l-.008-.01a3.65 3.65 0 0 1-.529-1.077c-.1-.357-.096-.747-.076-1.773.003-.313 0-.451-.013-.547a.896.896 0 0 0-.08-.259l-.004-.007c-.163-.394-.562-.706-.932-.764l-.067-.003a23.924 23.924 0 0 0-.876-.017c-.465 0-.78-.003-1.027-.029a2.493 2.493 0 0 1-.698-.176h-.003a3.394 3.394 0 0 1-.923-.552l-.003-.002c-.253-.208-.427-.41-.968-1.05-.28-.328-.56-.51-.84-.6l-.173-.027-.038-.007-.038-.009a1.118 1.118 0 0 0-.146-.002 2.55 2.55 0 0 0-.287.033c-.169.03-.418.13-.59.247l-.012.007-.018.013-.05.042a3.122 3.122 0 0 0-.155.146c-.123.123-.27.283-.427.468l-.006.007c-.529.607-.957.991-1.538 1.246l-.005.002c-.209.09-.399.176-.708.216-.247.033-.589.037-1.14.047-.578.011-.835.019-.99.036a.566.566 0 0 0-.228.067l-.007.004c-.328.143-.619.484-.717.915a.809.809 0 0 0-.012.138c-.004.102-.005.248-.005.51.007.323.014.656.014.729a3.3 3.3 0 0 1-.024.474c-.02.17-.05.363-.09.517h-.001c-.155.592-.458 1.04-.947 1.546l-.224.224c-.483.465-.614.63-.705.783-.193.331-.21.757-.069 1.06l.08.154c.027.046.058.089.098.139.048.06.11.13.196.22l.345.352c.618.614.818.857 1.048 1.349.088.177.17.421.208.57.035.13.064.253.076.434.01.144.007.33.004.598v.005c-.017.835-.011 1.108.003 1.231l.018.089.002.01c.12.454.456.772.922.871.017.003.067.01.205.015.14.005.344.006.661.006.809 0 1.162.014 1.592.142l.19.063c.456.162.938.461 1.314.82l.014.012c.056.053.135.137.219.229l.262.292.002.003c.366.418.62.652.717.712.43.264.96.275 1.355.057l.004-.002c.212-.116.356-.22.847-.795a8.23 8.23 0 0 1 .509-.551l.168-.152a3.655 3.655 0 0 1 1.391-.727c.346-.092.498-.09 1.43-.11h.002c.542-.01.762-.015.895-.03.074-.007.086-.01.234-.066.28-.108.562-.383.672-.666l.003-.007c.052-.13.068-.195.078-.267a3.35 3.35 0 0 0 .014-.477l-.007-.455c-.005-.42 0-.735.03-.993.044-.391.141-.651.285-.94l.007-.014c.249-.475.495-.772 1.092-1.343.285-.277.428-.432.517-.554a1.15 1.15 0 0 0 .174-.36c.026-.078.026-.087.027-.092a2.21 2.21 0 0 0 .005-.22Zm1.5 0c0 .142 0 .277-.017.406a1.896 1.896 0 0 1-.09.376c-.091.275-.2.513-.386.77-.172.236-.397.47-.688.752l-.003.003h-.001c-.535.512-.656.682-.793.942l-.055.118a1.028 1.028 0 0 0-.084.324c-.019.17-.025.405-.02.798l.007.451v.006c.004.267.002.494-.028.706a2.758 2.758 0 0 1-1.699 2.133l-.004.002c-.18.068-.34.128-.613.157-.214.023-.52.029-1.022.039-.498.01-.729.015-.87.024a.783.783 0 0 0-.204.034 2.138 2.138 0 0 0-.905.509l-.01.01a6.983 6.983 0 0 0-.398.433l-.002.002c-.525.617-.813.89-1.27 1.139-.898.493-2.006.435-2.87-.097l-.003-.003c-.308-.192-.694-.59-1.05-.996a23.245 23.245 0 0 0-.34-.376c-.027-.029-.04-.04-.04-.042l-.008-.007-.006-.005a2.382 2.382 0 0 0-.788-.5c-.266-.095-.369-.119-1.282-.119-.6 0-.917-.003-1.15-.048h-.006l-.006-.002A2.676 2.676 0 0 1 3.72 18.01c-.097-.355-.093-.747-.073-1.742a8.112 8.112 0 0 0 0-.478.657.657 0 0 0-.032-.151 2.257 2.257 0 0 0-.083-.25l-.014-.032-.009-.016-.007-.017a1.536 1.536 0 0 0-.2-.338 7.087 7.087 0 0 0-.549-.584c-.517-.515-.747-.77-.94-1.131l-.08-.164c-.36-.774-.294-1.72.138-2.454l.002-.003c.201-.338.46-.622.952-1.095.545-.53.687-.784.762-1.072l.001-.003c.015-.057.036-.172.051-.305.008-.062.013-.121.015-.17.003-.052.002-.076.002-.076L3.653 7.9v-.028l-.013-.713v-.016c0-.472-.004-.712.051-.971l.002-.008c.194-.855.777-1.605 1.573-1.955.2-.09.376-.156.677-.19.241-.026.583-.033 1.126-.043.604-.011.834-.017.975-.035.078-.01.093-.015.305-.106.282-.124.536-.315 1.01-.857.321-.378.684-.76.96-.942.328-.22.774-.412 1.176-.481h.003c.124-.022.29-.044.465-.052a2.16 2.16 0 0 1 .53.036v-.002l.23.037.045.007.044.013c.548.159 1.022.467 1.431.893l.172.19v.001c.568.672.65.756.77.855.201.164.358.254.525.32.142.054.2.07.311.081.152.016.382.02.87.02.37 0 .74.008.971.02l.18.016h.006l.007.001c.92.14 1.741.82 2.095 1.667.088.209.154.401.187.65.03.219.03.463.026.76v.005c-.017.856-.01 1.134.004 1.259l.017.089.002.007c.042.155.174.423.285.577l.048.054c.035.04.082.089.137.147l.383.389.003.003c.468.465.703.718.892 1.038l.08.143.003.006c.214.421.283.765.283 1.243Z"/>
  <path d="M15.185 8.525a.749.749 0 1 1 1.13.986l-5.249 5.992a.75.75 0 0 1-1.13 0l-2.25-2.57a.749.749 0 1 1 1.129-.986l1.686 1.925 4.684-5.347Z"/>
</svg>
