<svg xmlns="http://www.w3.org/2000/svg" width="24" height="24" fill="currentColor" viewBox="0 0 24 24">
  <path d="M12.543 1.464C18.117 1.746 22.55 6.356 22.55 12c0 5.826-4.724 10.55-10.55 10.55l-.263-.003a10.584 10.584 0 0 1-1.796-.198.75.75 0 1 1 .292-1.471c.428.085.868.14 1.316.161l.451.012a9.05 9.05 0 0 0 .466-18.09L12 2.952l-.451.01a9.06 9.06 0 0 0-1.316.161l-.076.01a.75.75 0 0 1-.216-1.482l.252-.046A10.614 10.614 0 0 1 12 1.45l.543.014Zm-9.11 15.358a.75.75 0 0 1 1.042.206 9.105 9.105 0 0 0 2.133 2.242l.365.256.061.046a.751.751 0 0 1-.83 1.24l-.066-.04-.214-.146a10.606 10.606 0 0 1-2.696-2.764.75.75 0 0 1 .206-1.04Zm11.752-8.316a.751.751 0 0 1 1.13.987l-5.249 6a.752.752 0 0 1-1.13 0l-2.25-2.573-.048-.06a.75.75 0 0 1 1.124-.982l.052.055 1.687 1.927 4.684-5.354Zm-12.653.846a.75.75 0 0 1 .59.881l-.074.432a9.132 9.132 0 0 0 0 2.67l.074.433.01.076a.75.75 0 0 1-1.462.289l-.02-.075-.046-.25A10.617 10.617 0 0 1 1.65 9.94l.02-.073a.75.75 0 0 1 .862-.516Zm3.606-6.124a.75.75 0 0 1 .835 1.247 9.103 9.103 0 0 0-2.498 2.498.751.751 0 0 1-1.247-.835c.77-1.15 1.76-2.14 2.91-2.91Z"/>
</svg>
