<svg xmlns="http://www.w3.org/2000/svg" width="24" height="24" fill="currentColor" viewBox="0 0 24 24">
  <path fill-rule="evenodd" d="M1.5 5.637C1.5 4.163 2.715 3 4.18 3h15.648C21.286 3 22.5 4.164 22.5 5.637v10.476c0 1.47-1.205 2.637-2.672 2.637H12.75V21h3.75a.75.75 0 0 1 0 1.5h-9a.75.75 0 0 1 0-1.5h3.75v-2.25H4.18c-1.465 0-2.68-1.163-2.68-2.637v-.838a.749.749 0 0 1 0-.54V5.637ZM3 15.755v.357c0 .615.512 1.138 1.18 1.138h15.648c.664 0 1.172-.52 1.172-1.137v-.358H3Zm18-1.5H3V5.637C3 5.023 3.512 4.5 4.18 4.5h15.648c.659 0 1.172.521 1.172 1.137v8.618ZM10.121 6.067a.75.75 0 0 1 .752.002l4.522 2.64a.75.75 0 0 1 0 1.295l-4.522 2.639a.75.75 0 0 1-1.128-.648V6.717a.75.75 0 0 1 .376-.65Zm1.124 4.622 2.284-1.333-2.284-1.333v2.666Z" clip-rule="evenodd"/>
</svg>
