<svg xmlns="http://www.w3.org/2000/svg" width="24" height="24" fill="currentColor" viewBox="0 0 24 24">
  <path fill-rule="evenodd" d="M10.121 6.067a.75.75 0 0 1 .752.002l4.522 2.64a.75.75 0 0 1 0 1.295l-4.522 2.639a.75.75 0 0 1-1.128-.648V6.717a.75.75 0 0 1 .376-.65Zm1.124 1.956v2.666l2.284-1.333-2.284-1.333Z" clip-rule="evenodd"/>
  <path fill-rule="evenodd" d="M1.5 5.637C1.5 4.163 2.715 3 4.18 3h15.648C21.286 3 22.5 4.164 22.5 5.637v10.476c0 1.47-1.205 2.637-2.672 2.637H4.179c-1.464 0-2.679-1.163-2.679-2.637V5.636ZM4.18 4.5C3.511 4.5 3 5.023 3 5.637v10.476c0 .614.512 1.137 1.18 1.137h15.648c.664 0 1.172-.52 1.172-1.137V5.636c0-.616-.514-1.137-1.172-1.137H4.179Z" clip-rule="evenodd"/>
  <path fill-rule="evenodd" d="M12 17.307a.75.75 0 0 1 .75.75v3.269a.75.75 0 1 1-1.5 0v-3.269a.75.75 0 0 1 .75-.75Z" clip-rule="evenodd"/>
  <path fill-rule="evenodd" d="M6.75 21.75A.75.75 0 0 1 7.5 21h9a.75.75 0 0 1 0 1.5h-9a.75.75 0 0 1-.75-.75Zm-5.3-6.745a.75.75 0 0 1 .75-.75h19.103a.75.75 0 0 1 0 1.5H2.2a.75.75 0 0 1-.75-.75Z" clip-rule="evenodd"/>
</svg>
