<svg xmlns="http://www.w3.org/2000/svg" width="24" height="24" fill="currentColor" viewBox="0 0 24 24">
  <path d="M15 9.75a1.5 1.5 0 0 1 1.5 1.5V21a1.5 1.5 0 0 1-1.5 1.5H9A1.5 1.5 0 0 1 7.5 21v-9.75A1.5 1.5 0 0 1 9 9.75h6ZM9 21h6v-2.25H9V21Zm0-3.75h6V15H9v2.25ZM12.095 1.5c2.742 0 5.011 1.923 5.794 4.501L17.92 6c1.217 0 2.357.556 3.184 1.378.828.823 1.395 1.964 1.395 3.2 0 1.353-.33 2.64-1.083 3.605-.774.99-1.937 1.567-3.417 1.567a.75.75 0 0 1 0-1.5c1.054 0 1.766-.392 2.234-.991.488-.625.766-1.55.766-2.682 0-.773-.36-1.546-.951-2.135-.593-.588-1.368-.942-2.128-.942-.741 0-1.25.201-1.621.45a.75.75 0 0 1-.836-1.246c.272-.182.58-.339.928-.459C15.729 4.323 14.03 3 12.095 3 9.652 3 7.572 5.12 7.503 7.88a.746.746 0 0 1-.714 1.201l-.54-.09-.036-.009c-.598-.132-1.003-.092-1.371.043l-.211.087C3.604 9.578 3 10.526 3 11.466c0 1.48 1.285 2.784 3.002 2.784a.75.75 0 0 1 0 1.5c-2.473 0-4.502-1.905-4.502-4.284 0-1.69 1.137-3.226 2.823-3.848a3.576 3.576 0 0 1 1.703-.185C6.304 4.15 8.866 1.5 12.095 1.5ZM9 13.5h6v-2.25H9v2.25Z"/>
</svg>
