<svg xmlns="http://www.w3.org/2000/svg" width="24" height="24" fill="currentColor" viewBox="0 0 24 24">
  <path d="M10.5 3a.75.75 0 0 1 0 1.5H4.176C3.513 4.5 3 5.024 3 5.64v8.61h18v-.75a.75.75 0 0 1 1.5 0v2.61c0 1.471-1.212 2.64-2.676 2.64H12.75V21h3.75a.75.75 0 0 1 0 1.5h-9a.75.75 0 0 1 0-1.5h3.75v-2.25H4.176c-1.464 0-2.676-1.169-2.676-2.64V5.64C1.5 4.169 2.712 3 4.176 3H10.5ZM3 16.11c0 .616.513 1.14 1.176 1.14h15.648c.663 0 1.176-.524 1.176-1.14v-.36H3v.36ZM10.148 6a.75.75 0 0 1 .683.498l1.697 4.752h1.722a.75.75 0 0 1 0 1.5H12a.75.75 0 0 1-.706-.498l-1.232-3.451-1.498 3.494a.75.75 0 0 1-.689.455H4.5a.75.75 0 0 1 0-1.5h2.88l2.056-4.795.052-.102a.75.75 0 0 1 .66-.353ZM16.5 1.5a4.5 4.5 0 0 1 3.667 7.106l2.113 2.114a.75.75 0 1 1-1.06 1.06l-2.114-2.113A4.5 4.5 0 1 1 16.5 1.5Zm0 1.5a3 3 0 1 0 0 6 3 3 0 0 0 0-6Z"/>
</svg>
