<svg xmlns="http://www.w3.org/2000/svg" width="24" height="24" fill="none" viewBox="0 0 24 24">
  <path fill="#3D3C3C" fill-rule="evenodd" d="M12 3.75c-2.645 0-4.815 2.084-4.968 4.726l.02.003a.75.75 0 1 1-.274 1.475l-.54-.1a.74.74 0 0 1-.04-.008c-.587-.143-.978-.099-1.336.045l.706-.638-.706.638A2.98 2.98 0 0 0 3 12.624c0 1.717 1.346 3.106 3.002 3.106a.75.75 0 0 1 0 1.5c-2.534 0-4.502-2.112-4.502-4.606A4.48 4.48 0 0 1 4.302 8.5c.398-.16.805-.24 1.242-.24C5.804 4.9 8.589 2.25 12 2.25c2.878 0 5.31 1.888 6.154 4.488 1.15.071 2.205.666 2.974 1.499.823.892 1.372 2.113 1.372 3.418 0 1.454-.324 2.831-1.065 3.866-.763 1.066-1.928 1.71-3.435 1.71a.75.75 0 0 1 0-1.5c1.028 0 1.737-.414 2.215-1.083.501-.7.785-1.735.785-2.993 0-.887-.377-1.754-.974-2.4-.6-.65-1.368-1.025-2.105-1.025-.726 0-1.226.214-1.597.485a.75.75 0 1 1-.886-1.21 3.905 3.905 0 0 1 1.186-.592A4.977 4.977 0 0 0 12 3.75Zm-2.25 7.5a1.5 1.5 0 0 0-1.5 1.5v7.5a1.5 1.5 0 0 0 1.5 1.5h4.5a1.5 1.5 0 0 0 1.5-1.5v-7.5a1.5 1.5 0 0 0-1.5-1.5h-4.5Zm4.5 6v-1.5h-4.5v1.5h4.5Zm-4.5 1.5h4.5v1.5h-4.5v-1.5Zm0-4.5h4.5v-1.5h-4.5v1.5Z" clip-rule="evenodd"/>
</svg>
