<svg xmlns="http://www.w3.org/2000/svg" width="24" height="24" fill="currentColor" viewBox="0 0 24 24">
  <path fill-rule="evenodd" d="M10.11 2.667c.778-1.556 3.001-1.556 3.779 0l8.384 16.777c.701 1.402-.314 3.056-1.89 3.056H3.616c-1.565 0-2.592-1.65-1.89-3.056L10.11 2.667Zm1.342.67L3.067 20.115a.613.613 0 0 0 .548.886h16.769a.61.61 0 0 0 .548-.886L12.548 3.338a.614.614 0 0 0-1.096 0ZM12 7.507c.518 0 .938.42.938.937v5.62a.937.937 0 1 1-1.876 0v-5.62c0-.517.42-.937.938-.937Zm.016 11.246a1.125 1.125 0 1 0 0-2.25 1.125 1.125 0 0 0 0 2.25Z" clip-rule="evenodd"/>
</svg>
