<svg xmlns="http://www.w3.org/2000/svg" width="24" height="24" fill="currentColor" viewBox="0 0 24 24">
  <path fill-rule="evenodd" d="M10.854 2.62c.78-1.56 3.011-1.56 3.792 0l8.428 16.864c.703 1.407-.315 3.066-1.896 3.066H4.322c-1.57 0-2.6-1.656-1.896-3.066L10.854 2.62Zm1.342.671L3.768 20.154a.62.62 0 0 0 .554.896h16.856c.463 0 .76-.483.554-.896L13.304 3.291a.62.62 0 0 0-1.108 0Zm.554 4.959a.75.75 0 0 1 .75.75v6a.75.75 0 0 1-1.5 0V9a.75.75 0 0 1 .75-.75Zm0 10.5a.75.75 0 1 0 0-1.5.75.75 0 0 0 0 1.5Z" clip-rule="evenodd"/>
</svg>
