<svg xmlns="http://www.w3.org/2000/svg" width="24" height="24" fill="currentColor" viewBox="0 0 24 24">
  <path d="M9.75 3.75A.75.75 0 0 0 9 3H3.75a.75.75 0 0 0-.75.75V9c0 .414.336.75.75.75H9A.75.75 0 0 0 9.75 9V3.75ZM11.25 9A2.25 2.25 0 0 1 9 11.25H3.75A2.25 2.25 0 0 1 1.5 9V3.75A2.25 2.25 0 0 1 3.75 1.5H9a2.25 2.25 0 0 1 2.25 2.25V9Zm-1.5 6a.75.75 0 0 0-.75-.75H3.75A.75.75 0 0 0 3 15v5.25c0 .414.336.75.75.75H9a.75.75 0 0 0 .75-.75V15Zm1.5 5.25A2.25 2.25 0 0 1 9 22.5H3.75a2.25 2.25 0 0 1-2.25-2.25V15a2.25 2.25 0 0 1 2.25-2.25H9A2.25 2.25 0 0 1 11.25 15v5.25ZM21 15a.75.75 0 0 0-.75-.75H15a.75.75 0 0 0-.75.75v5.25c0 .414.336.75.75.75h5.25a.75.75 0 0 0 .75-.75V15Zm1.5 5.25a2.25 2.25 0 0 1-2.25 2.25H15a2.25 2.25 0 0 1-2.25-2.25V15A2.25 2.25 0 0 1 15 12.75h5.25A2.25 2.25 0 0 1 22.5 15v5.25Zm-4.125-9.75a.75.75 0 0 1-1.5 0V2.25a.75.75 0 0 1 1.5 0v8.25Z"/>
  <path d="M13.5 7.125a.75.75 0 0 1 0-1.5h8.25a.75.75 0 0 1 0 1.5H13.5Z"/>
</svg>
