<svg xmlns="http://www.w3.org/2000/svg" width="25" height="24" fill="currentColor" viewBox="0 0 25 24">
  <path d="M20.166 1.5c1.605 0 2.778 1.415 2.778 2.993V10.5a.75.75 0 0 1-1.5 0v-3h-18v12.052c0 .857.627 1.448 1.278 1.448h6.972a.75.75 0 0 1 0 1.5H4.722c-1.592 0-2.778-1.38-2.778-2.948V4.493c0-1.578 1.173-2.993 2.779-2.993h15.443ZM16.194 12c.045 0 .09.004.132.012.006 0 .011.002.017.003.017.003.033.01.05.015.029.008.057.015.084.026.025.01.048.023.07.036.021.01.043.02.062.033.012.008.021.018.032.026a.742.742 0 0 1 .172.176c.003.003.004.007.006.01a.742.742 0 0 1 .062.113l.008.018a.746.746 0 0 1 .055.282v2.69l.75.75.75-.75v-2.69a.75.75 0 0 1 1.033-.694c1.652.672 2.717 2.166 2.717 4.069 0 1.512-.697 2.937-1.875 3.781l.004 1.843-.004.076a.75.75 0 0 1-1.492.003l-.004-.076-.004-2.25c0-.271.146-.523.383-.656.893-.502 1.492-1.54 1.492-2.721 0-.808-.273-1.485-.75-1.987v1.612a.75.75 0 0 1-.22.53l-1.5 1.5a.746.746 0 0 1-.178.128c-.02.01-.039.022-.059.03-.023.01-.048.017-.072.025-.021.006-.042.014-.064.018-.02.005-.042.006-.064.01-.025.002-.05.006-.075.007a.773.773 0 0 1-.068-.003.732.732 0 0 1-.205-.042.726.726 0 0 1-.129-.062c-.03-.019-.061-.036-.09-.059l-.056-.052-1.5-1.5a.75.75 0 0 1-.22-.53v-1.587a2.83 2.83 0 0 0-.75 1.962c0 1.165.635 2.218 1.504 2.727l.082.056a.75.75 0 0 1 .29.592v2.25a.75.75 0 0 1-1.5 0V19.9c-1.133-.838-1.876-2.252-1.876-3.775 0-1.915 1.132-3.395 2.701-4.063a.747.747 0 0 1 .299-.062ZM4.723 3c-.638 0-1.279.596-1.279 1.493V6h18V4.493c0-.897-.64-1.493-1.278-1.493H4.723Zm10.157.75c.312 0 .564.232.564.519v.462l-.003.053c0 .01-.005.019-.007.029a.461.461 0 0 1-.045.14l-.026.041-.025.037a.525.525 0 0 1-.042.047l-.026.026a.556.556 0 0 1-.06.045l-.02.014a.58.58 0 0 1-.069.034c-.01.004-.018.01-.027.013-.021.008-.043.013-.065.019-.014.003-.027.008-.04.01a.616.616 0 0 1-.11.011h-.37l-.114-.01a.597.597 0 0 1-.101-.03l-.018-.008a.581.581 0 0 1-.071-.035l-.024-.016a.571.571 0 0 1-.079-.061.52.52 0 0 1-.11-.149c-.005-.01-.008-.022-.013-.034a.489.489 0 0 1-.026-.09l-.006-.033-.003-.053V4.27a.48.48 0 0 1 .011-.101l.007-.025a.498.498 0 0 1 .016-.053l.01-.024c.005-.01.012-.019.018-.029l.024-.042a.485.485 0 0 1 .067-.079l.023-.022a.555.555 0 0 1 .145-.091l.029-.014a.599.599 0 0 1 .101-.028l.114-.011h.37Zm2.25 0c.312 0 .564.232.564.519v.462l-.003.053c0 .01-.005.019-.007.029a.461.461 0 0 1-.046.14c-.007.014-.016.027-.025.041l-.025.037a.525.525 0 0 1-.042.047l-.026.026a.556.556 0 0 1-.06.045l-.02.014a.58.58 0 0 1-.069.034c-.01.004-.018.01-.027.013-.021.008-.043.013-.065.019-.014.003-.027.008-.04.01a.616.616 0 0 1-.11.011h-.37l-.114-.01a.597.597 0 0 1-.101-.03l-.018-.008a.581.581 0 0 1-.071-.035l-.024-.016a.571.571 0 0 1-.079-.061.52.52 0 0 1-.11-.149c-.006-.012-.01-.026-.015-.039a.489.489 0 0 1-.017-.054l-.007-.035-.006-.029-.003-.053V4.27a.48.48 0 0 1 .011-.101l.007-.025a.498.498 0 0 1 .016-.053l.01-.024c.005-.01.012-.019.018-.029l.024-.042a.485.485 0 0 1 .067-.079l.023-.022a.555.555 0 0 1 .145-.091l.029-.014a.599.599 0 0 1 .101-.028l.114-.011h.37Zm2.25 0c.312 0 .564.232.564.519v.462l-.003.053c0 .01-.005.019-.007.029a.461.461 0 0 1-.046.14c-.007.014-.016.027-.025.041l-.025.037a.525.525 0 0 1-.042.047l-.026.026a.556.556 0 0 1-.06.045l-.02.014a.58.58 0 0 1-.069.034c-.01.004-.018.01-.027.013-.021.008-.043.013-.065.019-.014.003-.027.008-.04.01a.616.616 0 0 1-.11.011h-.37l-.114-.01a.597.597 0 0 1-.101-.03l-.018-.008a.581.581 0 0 1-.071-.035l-.024-.016a.571.571 0 0 1-.079-.061.52.52 0 0 1-.11-.149c-.006-.012-.01-.026-.015-.039a.489.489 0 0 1-.017-.054l-.007-.035-.006-.029-.003-.053V4.27a.48.48 0 0 1 .011-.101l.007-.025a.498.498 0 0 1 .016-.053l.01-.024c.005-.01.012-.019.018-.029l.024-.042a.485.485 0 0 1 .067-.079l.023-.022a.555.555 0 0 1 .145-.091l.029-.014a.599.599 0 0 1 .101-.028l.114-.011h.37Z"/>
</svg>
