<svg xmlns="http://www.w3.org/2000/svg" width="24" height="24" fill="currentColor" viewBox="0 0 24 24">
  <path fill-rule="evenodd" d="M4.717 4.5c-.366 0-.709.18-.919.48l-2.093 3c-.52.745.011 1.77.919 1.77h1.899v10.5a.749.749 0 1 0 1.495 0v-2.112l6.155-3.601 5.809 3.236v2.477a.749.749 0 1 0 1.495 0V9.851a.79.79 0 0 0 0-.038V9.75h1.9c.907 0 1.439-1.025.918-1.77l-2.093-3a1.12 1.12 0 0 0-.92-.48H4.718Zm12.67 5.25H6.662l5.492 3.06 5.231-3.06Zm-3.712 3.908 4.307 2.4v-4.92l-4.307 2.52Zm-3.022.032-4.635-2.583V16.4l4.635-2.711ZM3.342 8.25 4.912 6h14.176l1.57 2.25H3.342Z" clip-rule="evenodd"/>
  <path fill-rule="evenodd" d="M4.717 4.5c-.366 0-.709.18-.919.48l-2.093 3c-.52.745.011 1.77.919 1.77h1.899v10.5a.749.749 0 1 0 1.495 0v-2.112l6.155-3.601 5.809 3.236v2.477a.749.749 0 1 0 1.495 0V9.851a.79.79 0 0 0 0-.038V9.75h1.9c.907 0 1.439-1.025.918-1.77l-2.093-3a1.12 1.12 0 0 0-.92-.48H4.718Zm12.67 5.25H6.662l5.492 3.06 5.231-3.06Zm-3.712 3.908 4.307 2.4v-4.92l-4.307 2.52Zm-3.022.032-4.635-2.583V16.4l4.635-2.711ZM3.342 8.25 4.912 6h14.176l1.57 2.25H3.342Z" clip-rule="evenodd"/>
</svg>
