<svg xmlns="http://www.w3.org/2000/svg" width="24" height="24" fill="currentColor" viewBox="0 0 24 24">
  <path fill-rule="evenodd" d="M12 3a8.997 8.997 0 0 0-7.794 13.5.75.75 0 1 1-1.299.75A10.497 10.497 0 0 1 12 1.5c2.264 0 4.297.576 6 1.768V2.25a.75.75 0 0 1 1.5 0v3a.75.75 0 0 1-.75.75h-3a.75.75 0 0 1 0-1.5h1.394C15.715 3.499 13.99 3 12 3ZM5.25 18a.75.75 0 0 0-.75.75v3a.75.75 0 0 0 1.5 0v-1.018c1.703 1.192 3.737 1.768 6 1.768a10.497 10.497 0 0 0 9.093-15.75.75.75 0 0 0-1.299.75A8.997 8.997 0 0 1 12 21c-1.99 0-3.715-.499-5.144-1.5H8.25a.75.75 0 0 0 0-1.5h-3Zm4.798-12.53a.75.75 0 0 1 .532-.22h2.908a.75.75 0 0 1 .75.737l.019 1.026c.337.158.653.349.948.567l.815-.468a.75.75 0 0 1 1.025.279l1.478 2.59a.75.75 0 0 1-.278 1.023l-.813.467c.02.178.03.36.031.547v.006c0 .183-.008.368-.025.554l.835.5c.35.208.47.66.268 1.014l-1.452 2.55a.75.75 0 0 1-1.036.274l-.823-.49c-.284.204-.59.381-.914.526l.004.962a.75.75 0 0 1-.76.753l-2.93-.04a.75.75 0 0 1-.74-.746l-.003-.98a5.487 5.487 0 0 1-.942-.564l-.814.468a.75.75 0 0 1-1.026-.278l-1.478-2.591a.75.75 0 0 1 .278-1.022l.812-.467c-.02-.18-.03-.365-.03-.553 0-.184.008-.369.025-.555l-.835-.499a.75.75 0 0 1-.268-1.015l1.452-2.55A.75.75 0 0 1 8.097 7l.823.491a5.17 5.17 0 0 1 .914-.527l-.004-.962a.747.747 0 0 1 .218-.532Zm1.285 1.28.003.726a.75.75 0 0 1-.521.718c-.497.159-.95.424-1.327.766a.75.75 0 0 1-.887.088l-.615-.367-.71 1.248.635.38a.75.75 0 0 1 .35.793 4.033 4.033 0 0 0 .011 1.59.75.75 0 0 1-.361.799l-.61.35.734 1.289.611-.351a.75.75 0 0 1 .877.094c.399.36.857.64 1.36.817.3.105.5.388.502.705l.003.742 1.43.02-.004-.716a.75.75 0 0 1 .521-.717 3.65 3.65 0 0 0 1.327-.766.75.75 0 0 1 .887-.088l.615.366.71-1.248-.635-.379a.75.75 0 0 1-.35-.793 4.032 4.032 0 0 0-.011-1.59.75.75 0 0 1 .361-.8l.61-.35-.734-1.288-.611.35a.75.75 0 0 1-.877-.094 4.003 4.003 0 0 0-1.36-.817.75.75 0 0 1-.502-.694l-.013-.783h-1.42ZM13.125 12a1.125 1.125 0 1 1-2.25 0 1.125 1.125 0 0 1 2.25 0Zm1.5 0a2.625 2.625 0 1 1-5.25 0 2.625 2.625 0 0 1 5.25 0Z" clip-rule="evenodd"/>
</svg>
