<svg xmlns="http://www.w3.org/2000/svg" width="24" height="24" fill="currentColor" viewBox="0 0 24 24">
  <path fill-rule="evenodd" d="M18.75 1.5a.75.75 0 0 1 .75.75v3a.75.75 0 0 1-.75.75h-3a.75.75 0 0 1 0-1.5H18V2.25a.75.75 0 0 1 .75-.75ZM4.5 18.75a.75.75 0 0 1 .75-.75h3a.75.75 0 0 1 0 1.5H6v2.25a.75.75 0 0 1-1.5 0v-3Z" clip-rule="evenodd"/>
  <path fill-rule="evenodd" d="M12 3a8.997 8.997 0 0 0-7.794 13.5.75.75 0 1 1-1.299.75A10.497 10.497 0 0 1 12 1.5c2.862 0 5.357.92 7.28 2.845a.75.75 0 0 1-1.06 1.06C16.614 3.8 14.52 3 12 3Zm8.068 3.476a.75.75 0 0 1 1.025.274A10.497 10.497 0 0 1 12 22.5c-2.862 0-5.356-.92-7.28-2.845a.75.75 0 1 1 1.06-1.06C7.386 20.2 9.48 21 12 21a8.997 8.997 0 0 0 7.794-13.5.75.75 0 0 1 .274-1.024Z" clip-rule="evenodd"/>
  <path fill-rule="evenodd" d="M10.048 5.47a.75.75 0 0 1 .532-.22h2.908a.75.75 0 0 1 .75.737l.019 1.026c.337.158.654.349.948.567l.815-.468a.75.75 0 0 1 1.025.279l1.478 2.59a.75.75 0 0 1-.278 1.023l-.813.467c.02.178.03.36.032.547v.006c0 .183-.009.368-.026.554l.835.5c.35.208.47.66.268 1.014l-1.452 2.55a.75.75 0 0 1-1.036.274l-.823-.49c-.284.204-.59.381-.914.526l.004.962a.75.75 0 0 1-.76.753l-2.93-.04a.75.75 0 0 1-.739-.746l-.004-.98a5.488 5.488 0 0 1-.942-.564l-.814.468a.75.75 0 0 1-1.026-.278l-1.478-2.591a.75.75 0 0 1 .278-1.022l.812-.467c-.02-.18-.03-.365-.03-.553 0-.184.008-.369.025-.555l-.835-.499a.75.75 0 0 1-.267-1.015l1.45-2.55A.75.75 0 0 1 8.098 7l.823.491a5.17 5.17 0 0 1 .914-.527l-.004-.962a.747.747 0 0 1 .218-.532Zm1.285 1.28.003.726a.75.75 0 0 1-.521.718c-.497.159-.95.424-1.327.766a.75.75 0 0 1-.887.088l-.615-.367-.71 1.248.635.38a.75.75 0 0 1 .35.793 4.033 4.033 0 0 0 .011 1.59.75.75 0 0 1-.36.799l-.611.35.734 1.289.611-.351a.75.75 0 0 1 .877.094c.399.36.857.64 1.36.817.3.105.5.388.502.705l.003.742 1.43.02-.004-.716a.75.75 0 0 1 .521-.717 3.65 3.65 0 0 0 1.327-.766.75.75 0 0 1 .887-.088l.615.366.71-1.248-.635-.379a.75.75 0 0 1-.35-.793 4.032 4.032 0 0 0-.011-1.59.75.75 0 0 1 .361-.8l.61-.35-.734-1.288-.611.35a.75.75 0 0 1-.877-.094 4.005 4.005 0 0 0-1.36-.817.75.75 0 0 1-.501-.694l-.014-.783h-1.42Z" clip-rule="evenodd"/>
  <path fill-rule="evenodd" d="M12 13.125a1.125 1.125 0 1 0 0-2.25 1.125 1.125 0 0 0 0 2.25Zm0 1.5a2.625 2.625 0 1 0 0-5.25 2.625 2.625 0 0 0 0 5.25Z" clip-rule="evenodd"/>
</svg>
