<svg xmlns="http://www.w3.org/2000/svg" width="25" height="24" fill="currentColor" viewBox="0 0 25 24">
  <g clip-path="url(#a)">
    <path fill-rule="evenodd" d="M18.064 15a2.25 2.25 0 1 1 0 4.5 2.25 2.25 0 0 1 0-4.5Zm0 1.5a.75.75 0 1 0 0 1.5.75.75 0 0 0 0-1.5Z" clip-rule="evenodd"/>
    <path fill-rule="evenodd" d="M18.763 11.581a.75.75 0 0 1 .97-.245l2.296 1.2a.75.75 0 0 1 .319 1.01l-.39.75c.186.25.345.515.479.79l.913.044a.75.75 0 0 1 .714.749v2.516a.75.75 0 0 1-.65.743l-.075.007-.79.025a4.818 4.818 0 0 1-.187.396l-.003.005c-.071.13-.148.259-.231.385l.49.843a.75.75 0 0 1-.281 1.03l-2.355 1.325a.75.75 0 0 1-1.04-.32l-.353-.713a4.73 4.73 0 0 1-.808.024l-.376.704a.75.75 0 0 1-1.009.31l-2.317-1.212a.751.751 0 0 1-.313-1.021l.398-.737a4.92 4.92 0 0 1-.453-.742l-.793.027a.751.751 0 0 1-.768-.653l-.006-.075-.08-2.623a.75.75 0 0 1 .726-.772l.79-.027c.055-.133.118-.268.19-.4.069-.126.143-.251.223-.374l-.418-.68a.75.75 0 0 1 .243-1.03l2.216-1.382.065-.037a.75.75 0 0 1 .97.28l.418.678a4.74 4.74 0 0 1 .86-.03l.377-.703.04-.065Zm.667 1.925a.75.75 0 0 1-.792.384 3.23 3.23 0 0 0-1.177.01l-.163.037a.75.75 0 0 1-.82-.335l-.29-.473-.945.59.292.475.054.106a.75.75 0 0 1-.118.768 3.46 3.46 0 0 0-.383.572 3.17 3.17 0 0 0-.204.467l-.054.167a.75.75 0 0 1-.694.534l-.55.017.035 1.125.55-.018.12.006a.75.75 0 0 1 .609.485c.158.434.397.83.712 1.166a.75.75 0 0 1 .16.76l-.048.109-.277.512.986.516.265-.496.066-.101a.75.75 0 0 1 .727-.284c.45.08.908.06 1.34-.047l.128-.02a.75.75 0 0 1 .725.415l.25.506 1.004-.564-.353-.61a.75.75 0 0 1 .073-.858 3.45 3.45 0 0 0 .64-1.206l.044-.111a.75.75 0 0 1 .65-.423l.572-.019v-1.074l-.666-.032a.75.75 0 0 1-.669-.49 3.447 3.447 0 0 0-.597-1.038l-.115-.128a.75.75 0 0 1-.118-.857l.273-.53-.976-.51-.266.497Z" clip-rule="evenodd"/>
    <path d="M11.33 1.5c4.571 0 8.35 3.396 8.935 7.8l.046.43.003.076a.75.75 0 0 1-1.486.126l-.01-.077-.04-.357C18.292 5.832 15.144 3 11.33 3c-4.152 0-7.515 3.356-7.515 7.492 0 3.783 2.857 6.958 6.524 7.47l.358.04.076.012a.75.75 0 0 1-.135 1.486l-.077-.003-.428-.049c-4.394-.613-7.818-4.409-7.818-8.956 0-4.968 4.038-8.992 9.015-8.992Z"/>
    <path d="M11.532 5.25a.75.75 0 0 1 .75.75v3.542l1.018 1.697.036.068a.75.75 0 0 1-1.28.768l-.042-.064-1.125-1.875a.75.75 0 0 1-.107-.386V6a.75.75 0 0 1 .75-.75Z"/>
  </g>
  <defs>
    <clipPath id="a">
      <path d="M.814 0h24v24h-24z"/>
    </clipPath>
  </defs>
</svg>
