<svg xmlns="http://www.w3.org/2000/svg" width="24" height="24" fill="currentColor" viewBox="0 0 24 24">
  <path fill-rule="evenodd" d="M1.312 3.729A2.426 2.426 0 0 1 3.75 1.312h7.865a.56.56 0 0 1 .417.186l4.493 4.944a.563.563 0 0 1 .147.378v3.118a.562.562 0 1 1-1.124 0v-2.25H12.6c-.885 0-1.547-.756-1.547-1.612V2.438H3.749c-.732 0-1.313.584-1.313 1.291l-.023 13.71a.562.562 0 1 1-1.124-.003L1.312 3.73Zm10.864 2.347V3.33l2.939 3.233h-2.516c-.2 0-.423-.185-.423-.486ZM4.87 11.813c-.724 0-1.311.587-1.311 1.312v8.25c0 .725.587 1.313 1.311 1.313h16.482c.724 0 1.311-.588 1.311-1.313v-8.25c0-.725-.587-1.313-1.311-1.313H4.871Zm-.187 1.312c0-.104.084-.188.187-.188h16.482c.103 0 .187.084.187.188v8.25a.187.187 0 0 1-.187.188H4.871a.187.187 0 0 1-.187-.188v-8.25Zm11.47 1.682a.723.723 0 0 0-.255.285l-1.02 1.972-1.018-1.987a.785.785 0 0 0-.255-.285.604.604 0 0 0-.764.075.562.562 0 0 0-.135.375v4.005c0 .135.045.262.135.367h.008a.518.518 0 0 0 .749.008.554.554 0 0 0 .15-.375v-2.212l.539 1.05c.06.112.142.202.24.27a.682.682 0 0 0 .696 0c.098-.06.18-.15.24-.27l.532-1.043v2.205c0 .135.045.262.15.383.105.112.24.165.39.165.15 0 .284-.06.382-.173a.54.54 0 0 0 .15-.375v-3.982a.51.51 0 0 0-.158-.383c-.202-.225-.54-.217-.764-.075h.007Zm-7.245-.037c.067.037.12.097.157.172v.008a.44.44 0 0 1 0 .45L7.77 17.68v1.567a.564.564 0 0 1-.157.39.557.557 0 0 1-.39.165.532.532 0 0 1-.382-.157.61.61 0 0 1-.157-.398V17.68L5.388 15.4a.46.46 0 0 1-.015-.45c.172-.3.554-.293.801-.135.113.067.21.172.278.3l.779 1.455.779-1.456a.75.75 0 0 1 .27-.3c.187-.12.442-.165.629-.044Zm11.852 4.17a.512.512 0 0 0-.36-.158h-1.558v-3.518a.51.51 0 0 0-.157-.382.522.522 0 0 0-.78 0 .559.559 0 0 0-.15.383v3.892c0 .172.06.33.18.45.12.128.278.203.45.203H20.4a.513.513 0 0 0 .502-.51.513.513 0 0 0-.142-.353v-.008Zm-9.98-4.096a.657.657 0 0 1 .24.323l1.327 3.998c.044.15.022.3-.06.427a.453.453 0 0 1-.39.21.655.655 0 0 1-.39-.128.674.674 0 0 1-.232-.337l-.262-.848H9.74l-.27.863a.686.686 0 0 1-.224.33c-.225.18-.584.173-.757-.082a.464.464 0 0 1-.06-.428l1.326-3.998a.665.665 0 0 1 .24-.33.64.64 0 0 1 .787 0Zm-.404 1.598-.33 1.058h.66l-.33-1.058Z" clip-rule="evenodd"/>
</svg>
