<svg xmlns="http://www.w3.org/2000/svg" width="25" height="24" fill="currentColor" viewBox="0 0 25 24">
  <path d="M3.946 1.5a.75.75 0 0 1 .75.75v2.76c1.566-1.646 3.754-2.76 6.236-2.76 4.828 0 8.764 3.85 8.764 8.625a8.5 8.5 0 0 1-2.038 5.526l4.819 4.819.051.056a.75.75 0 0 1-1.054 1.055l-.058-.05-4.824-4.825a8.817 8.817 0 0 1-5.66 2.044c-3.909 0-7.229-2.52-8.356-6.012l-.102-.34-.017-.076a.75.75 0 0 1 1.439-.397l.023.072.085.281C4.933 15.904 7.678 18 10.932 18c4.024 0 7.264-3.203 7.264-7.125s-3.24-7.125-7.264-7.125c-2.343 0-4.415 1.228-5.745 3h4.01a.75.75 0 0 1 0 1.5h-5.25a.75.75 0 0 1-.75-.75V2.25a.75.75 0 0 1 .75-.75Z"/>
</svg>
