<svg xmlns="http://www.w3.org/2000/svg" width="32" height="32" fill="currentColor" viewBox="0 0 32 32">
  <path fill-rule="evenodd" d="M16 8a3 3 0 1 0 0 6 3 3 0 0 0 0-6Zm-5 3a5 5 0 1 1 10 0 5 5 0 0 1-10 0ZM9 21.759l.03 4.234a1 1 0 0 1-2 .014L7 21.772C6.986 19.656 8.745 18 10.85 18h7.65a1 1 0 1 1 0 2h-7.65c-1.065 0-1.856.82-1.85 1.759Z" clip-rule="evenodd"/>
  <path fill-rule="evenodd" d="M16 4C9.375 4 4 9.381 4 16.005 4 22.627 9.374 28 16 28c1.03 0 2.018-.126 2.96-.368a1 1 0 0 1 .497 1.937A13.86 13.86 0 0 1 16 30C8.27 30 2 23.733 2 16.005 2 8.278 8.27 2 16 2s14 6.267 14 13.995c0 1.21-.158 2.374-.44 3.491a1 1 0 0 1-1.94-.49c.245-.968.38-1.968.38-3C28 9.372 22.626 4 16 4Z" clip-rule="evenodd"/>
  <path fill-rule="evenodd" d="M23.5 18a5.5 5.5 0 1 0 0 11 5.5 5.5 0 0 0 0-11ZM16 23.5a7.5 7.5 0 1 1 15 0 7.5 7.5 0 0 1-15 0Z" clip-rule="evenodd"/>
  <path fill-rule="evenodd" d="M26.659 21.247a1 1 0 0 1 .094 1.412l-3.501 4a1 1 0 0 1-1.505 0l-1.5-1.713a1 1 0 0 1 1.506-1.317l.746.853 2.748-3.14a1 1 0 0 1 1.412-.095Z" clip-rule="evenodd"/>
</svg>
