<svg xmlns="http://www.w3.org/2000/svg" width="32" height="32" fill="currentColor" viewBox="0 0 32 32">
  <path fill-rule="evenodd" d="M4 16.005C4 9.38 9.375 4 16 4c6.626 0 12 5.373 12 11.995 0 .487-.03.967-.087 1.44A7.466 7.466 0 0 0 23.5 16c-1.97 0-3.76.759-5.1 2h-7.55C8.745 18 6.986 19.655 7 21.772l.016 2.183A11.946 11.946 0 0 1 4 16.005Zm26-.01c0 1.1-.13 2.163-.367 3.187a7.5 7.5 0 0 1-10.448 10.453A13.799 13.799 0 0 1 16 30C8.27 30 2 23.733 2 16.005 2 8.278 8.27 2 16 2s14 6.267 14 13.995ZM16 23.5c0 1.65.533 3.177 1.437 4.416-.47.056-.949.084-1.437.084-2.6 0-5.006-.827-6.971-2.232L9 21.758C8.994 20.82 9.785 20 10.85 20h6.015A7.468 7.468 0 0 0 16 23.5ZM16 8a3 3 0 1 0 0 6 3 3 0 0 0 0-6Zm-5 3a5 5 0 1 1 10 0 5 5 0 0 1-10 0Zm12.5 7a5.5 5.5 0 1 0 0 11 5.5 5.5 0 0 0 0-11Zm3.253 4.659a1 1 0 0 0-1.506-1.318l-2.748 3.14-.746-.852a1 1 0 0 0-1.506 1.317l1.5 1.713a1 1 0 0 0 1.505 0l3.5-4Z" clip-rule="evenodd"/>
</svg>
