<svg xmlns="http://www.w3.org/2000/svg" width="32" height="32" fill="currentColor" viewBox="0 0 32 32">
  <path d="M10 4a1 1 0 1 1 0 2H5.567C4.684 6 4 6.698 4 7.52V19h24V7.52C28 6.698 27.316 6 26.433 6H22a1 1 0 1 1 0-2h4.433C28.385 4 30 5.558 30 7.52v13.96c0 1.962-1.615 3.52-3.567 3.52H17v3h5a1 1 0 1 1 0 2H10a1 1 0 1 1 0-2h5v-3H5.567C3.615 25 2 23.442 2 21.48V7.52C2 5.558 3.615 4 5.567 4H10ZM4 21.48c0 .822.684 1.52 1.567 1.52h20.866c.883 0 1.567-.698 1.567-1.52V21H4v.48ZM19.814 10c1.53 0 2.727 1.26 2.727 2.759v.007l-.018 2.716a1.513 1.513 0 0 1-1.513 1.51h-.011c-1.836-.02-8.053.008-9.917.008a1.523 1.523 0 0 1-1.522-1.524l-.019-2.71.001-.001A2.736 2.736 0 0 1 12.269 10h7.545Zm-7.545 2c-.37 0-.69.29-.725.672l-.003.077v.003l.015 2.246c2.074-.003 6.872-.019 8.97-.009l.015-2.23-.004-.08a.74.74 0 0 0-.723-.679h-7.545ZM16 2a3.5 3.5 0 1 1 0 7 3.5 3.5 0 0 1 0-7Zm0 2a1.5 1.5 0 1 0 0 3 1.5 1.5 0 0 0 0-3Z"/>
</svg>
