<svg xmlns="http://www.w3.org/2000/svg" width="32" height="32" fill="currentColor" viewBox="0 0 32 32">
  <path fill-rule="evenodd" d="M28 6H4v20h24V6ZM4 4a2 2 0 0 0-2 2v20a2 2 0 0 0 2 2h24a2 2 0 0 0 2-2V6a2 2 0 0 0-2-2H4Zm8 10a2 2 0 1 0 0-4 2 2 0 0 0 0 4Zm0 2a4 4 0 1 0 0-8 4 4 0 0 0 0 8Zm-4 3.746c-.001-.102.052-.268.289-.447.238-.18.578-.299.91-.299h5.795c.346 0 .623.108.791.242.155.123.216.26.215.413V21H8v-1.254ZM9.2 17c-.763 0-1.528.257-2.118.704-.59.446-1.089 1.156-1.082 2.056V22a1 1 0 0 0 1 1h10a1 1 0 0 0 1-1v-2.33c.014-1.76-1.603-2.67-3.006-2.67H9.2Zm9.8-7a1 1 0 0 1 1-1h5a1 1 0 1 1 0 2h-5a1 1 0 0 1-1-1Zm1 3a1 1 0 1 0 0 2h5a1 1 0 1 0 0-2h-5Z" clip-rule="evenodd"/>
</svg>
