<svg xmlns="http://www.w3.org/2000/svg" width="32" height="32" fill="currentColor" viewBox="0 0 32 32">
  <path fill-rule="evenodd" d="M28 6H4v20h24V6ZM4 4a2 2 0 0 0-2 2v20a2 2 0 0 0 2 2h24a2 2 0 0 0 2-2V6a2 2 0 0 0-2-2H4Z" clip-rule="evenodd"/>
  <path fill-rule="evenodd" d="M12 14a2 2 0 1 0 0-4 2 2 0 0 0 0 4Zm0 2a4 4 0 1 0 0-8 4 4 0 0 0 0 8Zm-3.711 3.299c-.237.179-.29.345-.29.447l.001.01V21h8v-1.345c.001-.154-.06-.29-.215-.413-.168-.134-.445-.242-.791-.242H9.2c-.333 0-.673.118-.911.299Zm-1.207-1.595A3.561 3.561 0 0 1 9.2 17h5.794c1.403 0 3.02.91 3.006 2.67V22a1 1 0 0 1-1 1H7a1 1 0 0 1-1-1v-2.24c-.007-.9.492-1.61 1.082-2.056ZM19 10a1 1 0 0 1 1-1h5a1 1 0 1 1 0 2h-5a1 1 0 0 1-1-1Zm0 4a1 1 0 0 1 1-1h5a1 1 0 1 1 0 2h-5a1 1 0 0 1-1-1Z" clip-rule="evenodd"/>
</svg>
