<svg xmlns="http://www.w3.org/2000/svg" width="32" height="32" fill="currentColor" viewBox="0 0 32 32">
  <path fill-rule="evenodd" d="M11.5 14.5a3.5 3.5 0 1 1 7 0 3.5 3.5 0 0 1-7 0ZM15 13a1.5 1.5 0 1 0 0 3 1.5 1.5 0 0 0 0-3Zm-2.24 6.05c-1.37 0-2.77 1.142-2.76 2.76v2.24a1 1 0 0 0 1 1h8a1 1 0 0 0 1-1v-2.331c.01-1.562-1.195-2.669-2.605-2.669H12.76ZM12 21.798c-.003-.39.378-.748.76-.748h4.635c.326 0 .608.23.605.657v1.343h-6v-1.252Z" clip-rule="evenodd"/>
  <path d="M20 13a1 1 0 0 1 1-1h4a1 1 0 1 1 0 2h-4a1 1 0 0 1-1-1Zm1 2a1 1 0 1 0 0 2h4a1 1 0 1 0 0-2h-4Z"/>
  <path fill-rule="evenodd" d="M5 2a3 3 0 0 0-3 3v16a3 3 0 0 0 3 3h1v2a3 3 0 0 0 3 3h18a3 3 0 0 0 3-3V10a3 3 0 0 0-3-3h-1V5a3 3 0 0 0-3-3H5Zm19 5V5a1 1 0 0 0-1-1H5a1 1 0 0 0-1 1v16a1 1 0 0 0 1 1h1V10a3 3 0 0 1 3-3h15ZM8 10a1 1 0 0 1 1-1h18a1 1 0 0 1 1 1v16a1 1 0 0 1-1 1H9a1 1 0 0 1-1-1V10Z" clip-rule="evenodd"/>
</svg>
