<svg xmlns="http://www.w3.org/2000/svg" width="32" height="32" fill="currentColor" viewBox="0 0 32 32">
  <path d="M20.959 16.002a.983.983 0 0 1 .143.002c.007 0 .014.003.021.004a.98.98 0 0 1 .321.098l.025.011.034.02c.017.01.034.018.05.029l.033.025.046.035.021.018.05.045.017.018c.038.04.074.083.106.13l.017.026c.011.018.023.036.033.055l.003.005A.996.996 0 0 1 22 17v3.586l1 1 1-1V17a1 1 0 0 1 1.377-.926C27.579 16.971 29 18.963 29 21.5c0 2.015-.93 3.915-2.5 5.041l.005 2.457a1 1 0 0 1-2 .004l-.005-3a1 1 0 0 1 .51-.874C26.2 24.459 27 23.074 27 21.5c0-1.078-.364-1.98-1-2.65V21a1 1 0 0 1-.293.707l-2 2a.995.995 0 0 1-1.414 0l-2-2A1 1 0 0 1 20 21v-2.115c-.625.671-1 1.566-1 2.615 0 1.554.847 2.958 2.006 3.637A1 1 0 0 1 21.5 26v3a1 1 0 1 1-2 0v-2.468C17.99 25.416 17 23.531 17 21.5c0-2.55 1.505-4.52 3.592-5.413a1 1 0 0 1 .11-.043.996.996 0 0 1 .257-.042ZM26 2a3 3 0 0 1 3 3v8.5a1 1 0 1 1-2 0V5a1 1 0 0 0-1-1H5a1 1 0 0 0-1 1v17a1 1 0 0 0 1 1h7.135a1 1 0 0 1 0 2H5a3 3 0 0 1-3-3V5a3 3 0 0 1 3-3h21ZM14.194 14c1.401 0 2.816.998 2.806 2.665V19a1 1 0 0 1-1 1H7a1 1 0 0 1-1-1v-2.244c-.005-.855.422-1.557.974-2.02A3.157 3.157 0 0 1 8.979 14h5.215ZM8.98 16c-.25 0-.52.1-.718.267-.193.162-.262.334-.261.48V18h7v-1.344a.56.56 0 0 0-.195-.447.922.922 0 0 0-.61-.209H8.978ZM11.5 6a3.5 3.5 0 1 1 0 7 3.5 3.5 0 0 1 0-7ZM23 10a1 1 0 1 1 0 2h-4a1 1 0 1 1 0-2h4ZM11.5 8a1.5 1.5 0 1 0 0 3 1.5 1.5 0 0 0 0-3ZM23 7a1 1 0 1 1 0 2h-4a1 1 0 1 1 0-2h4Z"/>
</svg>
