<svg xmlns="http://www.w3.org/2000/svg" width="33" height="32" fill="currentColor" viewBox="0 0 33 32">
  <path d="M13.007 8.06a1 1 0 0 1 .677 1.88c-2.076.748-3.659 2.699-3.659 5.06 0 1.332.898 2.77 1.92 3.896l.22.26c.877 1.128 1.124 2.587 1.18 3.844h4.513c.081-1.462.529-2.96 1.586-4.132l.195-.231c.189-.237.358-.492.506-.766a1.001 1.001 0 0 1 1.76.952c-.276.51-.603.965-.966 1.374l-.006.007c-.747.826-1.09 1.997-1.09 3.296v.5a1 1 0 0 1-.818.983v2.55c0 1.43-1.223 2.467-2.578 2.467h-1.844c-1.355 0-2.578-1.038-2.578-2.468v-2.59a1 1 0 0 1-.667-.942v-.34c0-1.43-.21-2.671-.89-3.417-1.1-1.21-2.443-3.13-2.443-5.243 0-3.302 2.208-5.941 4.982-6.94Zm1.018 19.472c0 .192.19.468.578.468h1.844c.389 0 .578-.276.578-.468V25h-3v2.532Zm9.937-26.091a1 1 0 0 1 1.294-.327l3.06 1.605a1 1 0 0 1 .423 1.346l-.52 1c.246.333.458.686.636 1.052l1.218.059a1 1 0 0 1 .952.998v3.354a1 1 0 0 1-.967 1l-1.06.035a6.338 6.338 0 0 1-.247.527l-.023.034a7.3 7.3 0 0 1-.29.482l.652 1.126a1.002 1.002 0 0 1-.375 1.372L25.58 16.87a1.001 1.001 0 0 1-1.387-.426l-.473-.948a6.267 6.267 0 0 1-1.079.033l-.5.937a1 1 0 0 1-1.345.413l-3.09-1.615a1.002 1.002 0 0 1-.416-1.362l.532-.986a6.685 6.685 0 0 1-.602-.987l-1.056.035a1 1 0 0 1-1.034-.969l-.105-3.5c-.016-.55.416-1.01.967-1.03l1.057-.035c.075-.177.158-.356.254-.533a7.45 7.45 0 0 1 .297-.5l-.556-.909a1.001 1.001 0 0 1 .323-1.372l2.955-1.843.087-.048a1 1 0 0 1 1.294.373l.556.905a6.285 6.285 0 0 1 1.149-.041l.502-.936.052-.087ZM5.667 13a1 1 0 0 1 0 2h-3a1 1 0 0 1 0-2h3ZM24.85 4.006a1.002 1.002 0 0 1-1.06.512 4.284 4.284 0 0 0-1.785.062 1 1 0 0 1-1.091-.447l-.389-.631-1.259.785.39.637a1 1 0 0 1-.091 1.172 4.389 4.389 0 0 0-.506.756c-.14.257-.251.543-.35.856a1 1 0 0 1-.92.698l-.736.025.045 1.5.735-.024.159.007a1 1 0 0 1 .812.646c.214.579.532 1.112.95 1.563a1 1 0 0 1 .146 1.154l-.37.684 1.313.687.355-.66.087-.136a1 1 0 0 1 .973-.377c.593.107 1.203.08 1.786-.063a1 1 0 0 1 1.134.526l.335.672 1.337-.754-.471-.815a1.001 1.001 0 0 1 .104-1.15 4.39 4.39 0 0 0 .506-.756l.01-.016c.137-.262.246-.537.34-.835l.059-.145a1 1 0 0 1 .861-.553l.765-.026V8.127l-.89-.041c-.4-.02-.751-.276-.89-.652a4.683 4.683 0 0 0-.95-1.564 1.001 1.001 0 0 1-.154-1.14l.364-.703-1.3-.681-.354.66ZM23.025 6a3 3 0 0 1 0 6 3 3 0 0 1 0-6Zm0 2a1.001 1.001 0 0 0 0 2 1 1 0 0 0 0-2ZM6.318 6.293a1 1 0 0 1 1.414 0l2 2 .068.076a1 1 0 0 1-1.406 1.406l-.076-.068-2-2a1 1 0 0 1 0-1.414ZM13.667 2a1 1 0 0 1 1 1v3l-.005.103a1 1 0 0 1-1.99 0L12.666 6V3a1 1 0 0 1 1-1Z"/>
</svg>
