<svg xmlns="http://www.w3.org/2000/svg" width="32" height="32" fill="currentColor" viewBox="0 0 32 32">
  <path fill-rule="evenodd" d="M16 3.933C9.336 3.933 3.933 9.336 3.933 16c0 6.664 5.403 12.067 12.067 12.067 6.664 0 12.067-5.403 12.067-12.067 0-6.664-5.403-12.067-12.067-12.067ZM1.933 16C1.933 8.231 8.231 1.933 16 1.933S30.067 8.231 30.067 16 23.769 30.067 16 30.067 1.933 23.769 1.933 16Z" clip-rule="evenodd"/>
  <path fill-rule="evenodd" d="M9 16a1 1 0 0 1 1-1h12a1 1 0 0 1 0 2H10a1 1 0 0 1-1-1Z" clip-rule="evenodd"/>
  <path fill-rule="evenodd" d="M16 9a1 1 0 0 1 1 1v12a1 1 0 0 1-2 0V10a1 1 0 0 1 1-1Z" clip-rule="evenodd"/>
</svg>
