<svg xmlns="http://www.w3.org/2000/svg" width="32" height="32" fill="currentColor" viewBox="0 0 32 32">
  <path fill-rule="evenodd" d="M15 4C8.925 4 4 8.925 4 15c0 3.42 1.561 6.476 4.01 8.494L8 22.258v-.002C7.99 20.449 9.458 19 11.26 19H16a1 1 0 1 1 0 2h-4.741c-.71 0-1.262.564-1.259 1.243v.001l.02 2.567A10.973 10.973 0 0 0 15 26a1 1 0 1 1 0 2C7.82 28 2 22.18 2 15S7.82 2 15 2c6.442 0 11.789 4.685 12.82 10.835a1 1 0 0 1-1.972.33C24.975 7.965 20.45 4 15 4Zm-2 8.5a2.5 2.5 0 1 1 5 0 2.5 2.5 0 0 1-5 0ZM15.5 8a4.5 4.5 0 1 0 0 9 4.5 4.5 0 0 0 0-9ZM21 21v-2.116c-.625.672-1 1.566-1 2.616 0 1.554.847 2.958 2.006 3.637A1 1 0 0 1 22.5 26v3a1 1 0 1 1-2 0v-2.464C18.989 25.42 18 23.532 18 21.5c0-2.547 1.502-4.516 3.586-5.41a.986.986 0 0 1 .559-.08A1 1 0 0 1 23 17.022v3.564l1 1 1-1V17a1 1 0 0 1 1.377-.926C28.58 16.97 30 18.963 30 21.5c0 2.016-.927 3.92-2.5 5.047l.005 2.451a1 1 0 1 1-2 .004l-.005-3a1 1 0 0 1 .51-.874C27.2 24.46 28 23.074 28 21.5c0-1.078-.364-1.981-1-2.65V21a1 1 0 0 1-.293.707l-2 2a1.002 1.002 0 0 1-1.414 0l-.002-.002-1.998-1.998A1 1 0 0 1 21 21Z" clip-rule="evenodd"/>
</svg>
