<svg xmlns="http://www.w3.org/2000/svg" width="32" height="32" fill="currentColor" viewBox="0 0 32 32">
  <path d="M14.12 3a1 1 0 0 1 0 2c-5.07 0-9.153 4.044-9.153 9s4.083 9 9.152 9c4.293 0 7.884-2.903 8.879-6.803a1 1 0 0 1 1.938.494 10.918 10.918 0 0 1-2.407 4.53.732.732 0 0 1 .067.058l7.091 7.092a.955.955 0 0 1-1.35 1.35l-7.09-7.092a.953.953 0 0 1-.087-.102A11.2 11.2 0 0 1 14.12 25C7.973 25 2.966 20.09 2.966 14S7.974 3 14.119 3Zm9.847 7a1 1 0 0 1 0 2h-6a1 1 0 1 1 0-2h6Zm5-4a1 1 0 0 1 0 2h-11a1 1 0 1 1 0-2h11Zm0-4a1 1 0 0 1 0 2h-11a1 1 0 1 1 0-2h11Z"/>
</svg>
