<svg xmlns="http://www.w3.org/2000/svg" width="32" height="32" fill="currentColor" viewBox="0 0 32 32">
  <path d="M28 15.933c0-6.627-5.373-12-12-12s-12 5.373-12 12c0 6.628 5.373 12 12 12s12-5.372 12-12Zm2 0c0 7.732-6.268 14-14 14s-14-6.268-14-14 6.268-14 14-14 14 6.268 14 14Z"/>
  <path d="M20.948 7.18c.015-.048.09-.048.104 0 .147.487.597 1.833 1.266 2.502.669.669 2.015 1.12 2.501 1.266.05.015.05.09 0 .104-.486.147-1.832.597-2.501 1.266-.669.669-1.12 2.015-1.266 2.501-.015.05-.09.05-.104 0-.147-.486-.597-1.832-1.266-2.501-.669-.669-2.015-1.12-2.501-1.266-.05-.015-.05-.09 0-.104.486-.147 1.832-.597 2.5-1.266.67-.669 1.12-2.015 1.267-2.501Zm.499 11c.015-.049.09-.049.106 0 .11.347.38 1.106.77 1.496.391.39 1.15.662 1.497.77.049.016.049.092 0 .107-.347.11-1.106.38-1.496.77-.39.391-.662 1.15-.77 1.497-.016.049-.092.049-.107 0-.11-.347-.38-1.106-.77-1.496-.391-.39-1.15-.662-1.497-.77-.049-.016-.049-.092 0-.107.347-.11 1.106-.38 1.496-.77.39-.391.662-1.15.77-1.497Zm-8.993-8.076a.05.05 0 0 1 .092 0c.23.51 1.284 2.762 2.436 3.914 1.152 1.152 3.405 2.206 3.914 2.436a.05.05 0 0 1 0 .092c-.51.23-2.762 1.284-3.914 2.436-1.152 1.152-2.206 3.405-2.436 3.914a.05.05 0 0 1-.092 0c-.23-.51-1.284-2.762-2.436-3.914-1.152-1.152-3.405-2.206-3.914-2.436a.05.05 0 0 1 0-.092c.509-.23 2.762-1.284 3.914-2.436 1.152-1.152 2.206-3.405 2.436-3.914Z"/>
</svg>
