<svg xmlns="http://www.w3.org/2000/svg" width="32" height="32" fill="currentColor" viewBox="0 0 32 32">
  <path fill-rule="evenodd" d="M24.588 16.922a3.184 3.184 0 0 1 4.481 0 3.161 3.161 0 0 1 0 4.48l-7.662 7.659a.97.97 0 0 1-.46.26l-2.431.609c-.17.04-.33.06-.5.06V30c-.53 0-1.041-.21-1.421-.59-.51-.51-.71-1.22-.53-1.92h-.01l.61-2.43c.04-.18.14-.34.26-.46l7.663-7.678Zm3.071 1.42a1.16 1.16 0 0 0-1.65 0l-7.473 7.469-.54 2.16v.01l2.2-.53 7.463-7.459c.45-.45.45-1.19 0-1.65Z" clip-rule="evenodd"/>
  <path d="M23 2a3 3 0 0 1 3 3v2a1 1 0 1 1-2 0V5a1 1 0 0 0-1-1H5a1 1 0 0 0-1 1v18a1 1 0 0 0 1 1h9a1 1 0 1 1 0 2H5a3 3 0 0 1-3-3V5a3 3 0 0 1 3-3h18Z"/>
  <path d="M16.5 16a1 1 0 0 1 1 1v.5h.5a1 1 0 1 1 0 2h-.5v.5a1 1 0 1 1-2 0v-.5H15a1 1 0 1 1 0-2h.5V17a1 1 0 0 1 1-1Zm6.5-2a1 1 0 0 1 1 1v1a1 1 0 1 1-2 0v-1a1 1 0 0 1 1-1Z"/>
  <path fill-rule="evenodd" d="M14.257 5c.34.005.656.183.836.473.61.983 1.116 1.653 1.69 2.223.576.572 1.253 1.078 2.237 1.702a1 1 0 0 1 .027 1.672c-1.93 1.308-2.748 2.163-3.977 3.977a1 1 0 0 1-1.657-.003c-1.208-1.795-2.078-2.62-3.994-3.988a1 1 0 0 1 .02-1.641c1.985-1.346 2.8-2.193 3.97-3.966A.999.999 0 0 1 14.257 5Zm-.035 2.763c-.734.96-1.475 1.697-2.528 2.498 1.02.796 1.777 1.525 2.546 2.512a12.86 12.86 0 0 1 2.5-2.504c-.503-.368-.95-.74-1.366-1.154-.413-.41-.785-.852-1.152-1.352Z" clip-rule="evenodd"/>
  <path d="M21 12a1 1 0 1 1 0 2h-1a1 1 0 1 1 0-2h1Zm5 0a1 1 0 1 1 0 2h-1a1 1 0 1 1 0-2h1Zm-3-3a1 1 0 0 1 1 1v1a1 1 0 1 1-2 0v-1a1 1 0 0 1 1-1Z"/>
</svg>
