<svg xmlns="http://www.w3.org/2000/svg" width="32" height="32" fill="currentColor" viewBox="0 0 32 32">
  <path fill-rule="evenodd" d="M4 14.5C4 20.29 8.69 25 14.5 25c.55 0 1 .45 1 1s-.45 1-1 1C7.59 27 2 21.39 2 14.5S7.59 2 14.5 2 27 7.61 27 14.5c0 .55-.45 1-1 1s-1-.45-1-1C25 8.71 20.31 4 14.5 4S4 8.71 4 14.5ZM23 16c-1.49 0-2.87.47-4 1.26V9.92c0-.25-.11-.48-.3-.65-.38-.35-1.02-.35-1.41 0-.19.17-.29.4-.29.66v8.15c0 .25.1.48.28.66l.02.02s.07.04.1.06a6.945 6.945 0 0 0-1.4 4.19c0 3.86 3.13 7 7 7s7-3.14 7-7-3.13-7-7-7V16Zm0 12c-2.77 0-5-2.24-5-5s2.23-5 5-5 5 2.24 5 5-2.24 5-5 5Zm-3.92-4.62c.05.12.12.23.22.33l2 2a.996.996 0 1 0 1.41-1.41l-.29-.29h3.59c.55 0 1-.45 1-1s-.45-1-1-1h-3.59l.29-.29a.996.996 0 1 0-1.41-1.41l-2 2a1 1 0 0 0-.22 1.09v-.02Zm-5.97-13.6c-.09-.24-.24-.43-.44-.56-.39-.29-.92-.29-1.33 0-.2.13-.34.33-.43.56l-2.86 8.21v.02c-.08.24-.05.47.1.68.15.21.35.31.59.31s.44-.06.63-.19c.19-.14.32-.33.4-.55l.64-1.94h3.18l.62 1.92c.08.23.21.41.38.55l.03.02c.2.13.41.21.66.21.25 0 .45-.1.6-.31.15-.22.18-.46.1-.71l-2.85-8.21-.02-.01Zm-2.19 4.94L12 11.43l1.08 3.29h-2.16Zm7.78-5.45v-.01l.01.01h-.01Z" clip-rule="evenodd"/>
</svg>
