<svg xmlns="http://www.w3.org/2000/svg" width="32" height="32" fill="currentColor" viewBox="0 0 32 32">
  <path d="M11.049 3a1 1 0 1 0-2 0v3.967a1 1 0 0 0 2 0v-.984h5.98v.984a1 1 0 1 0 2 0V3a1 1 0 1 0-2 0v.983h-5.98V3Z"/>
  <path d="M4 7.025c0-.3.114-.522.319-.688C4.539 6.157 4.925 6 5.5 6H6a1 1 0 0 0 0-2h-.5c-.925 0-1.79.254-2.444.786A2.835 2.835 0 0 0 2 7.026v17.743c0 1.804 1.51 3.192 3.287 3.194h.003l5.703.037a1 1 0 1 0 .014-2l-5.71-.037H5.29c-.755 0-1.29-.573-1.29-1.194V11h20a1 1 0 1 0 2 0V7.104C26 5.241 24.298 4 22.5 4H22a1 1 0 1 0 0 2h.5c1.015 0 1.5.643 1.5 1.104V9H4V7.025Z"/>
  <path fill-rule="evenodd" d="M20.6 18.19a.927.927 0 0 1 .364.444l2.001 5.475a.64.64 0 0 1-.09.586.676.676 0 0 1-.587.293c-.212 0-.415-.061-.586-.172a.96.96 0 0 1-.354-.465l-.394-1.161h-1.931l-.404 1.181a.961.961 0 0 1-.344.455c-.334.252-.88.242-1.142-.111-.132-.182-.172-.394-.091-.586l2.011-5.485a.941.941 0 0 1 .364-.455c.354-.252.85-.252 1.183 0Zm-.617 2.191-.495 1.455h.99l-.495-1.455Z" clip-rule="evenodd"/>
  <path d="M24.766 18c.21 0 .388.07.535.212a.684.684 0 0 1 .199.515v5.546a.704.704 0 0 1-.22.515.779.779 0 0 1-1.06.01l-.01-.02a.713.713 0 0 1-.21-.505v-5.546c0-.192.073-.373.22-.515a.813.813 0 0 1 .546-.212Z"/>
  <path fill-rule="evenodd" d="M21.5 13a8.499 8.499 0 0 0-8.5 8.5 8.499 8.499 0 1 0 17 0 8.5 8.5 0 0 0-8.5-8.5ZM15 21.5a6.5 6.5 0 0 1 6.5-6.5 6.499 6.499 0 1 1 0 13 6.499 6.499 0 0 1-6.5-6.5Z" clip-rule="evenodd"/>
</svg>
