<svg xmlns="http://www.w3.org/2000/svg" width="32" height="32" fill="currentColor" viewBox="0 0 32 32">
  <path d="M27 13a2 2 0 0 1 2 2v13a2 2 0 0 1-2 2H11a2 2 0 0 1-2-2v-6.996a2 2 0 0 1 2.559-1.92L17 20.667V15a2 2 0 0 1 2-2h8ZM11 28h6v-5.25l-6-1.746V28Zm8 0h8V15h-8v13Zm2-6a1 1 0 0 1 1 1v2a1 1 0 1 1-2 0v-2a1 1 0 0 1 1-1Zm4 0a1 1 0 0 1 1 1v2a1 1 0 1 1-2 0v-2a1 1 0 0 1 1-1ZM16.126 2c3.656 0 6.682 2.563 7.726 6h.043c1.397 0 2.712.566 3.747 1.432a1 1 0 0 1-1.284 1.534c-.736-.616-1.61-.966-2.463-.966-.98 0-1.654.274-2.149.618a1 1 0 0 1-1.142-1.641 5.276 5.276 0 0 1 1.253-.644C20.976 5.767 18.71 4 16.126 4c-3.279 0-6.066 2.863-6.124 6.58a1 1 0 0 1-.956 1.605l-.72-.126-.05-.01c-.693-.16-1.187-.137-1.625-.005l-.184.063C4.94 12.692 4 14.095 4 15.52c0 1.564.965 2.95 2.393 3.56a1 1 0 0 1-.786 1.84C3.482 20.012 2 17.926 2 15.52c0-2.298 1.492-4.416 3.752-5.28.715-.273 1.45-.36 2.277-.26C8.37 5.571 11.8 2 16.126 2ZM21 17a1 1 0 0 1 1 1v2a1 1 0 1 1-2 0v-2a1 1 0 0 1 1-1Zm4 0a1 1 0 0 1 1 1v2a1 1 0 1 1-2 0v-2a1 1 0 0 1 1-1Z"/>
</svg>
