<svg xmlns="http://www.w3.org/2000/svg" width="33" height="32" fill="currentColor" viewBox="0 0 33 32">
  <path d="M17.926 2c.271 0 .517.109.697.284l.002.001 7 6.841.138.328a.994.994 0 0 1 .137.327l.026.06V12a1 1 0 1 1-2 0v-1h-4.602a2.401 2.401 0 0 1-2.398-2.398V4H6.728c-1.018 0-1.802.8-1.802 1.738v20.524C4.926 27.2 5.71 28 6.728 28h5.198a1 1 0 1 1 0 2H6.728c-2.08 0-3.802-1.651-3.802-3.738V5.738C2.926 3.652 4.649 2 6.728 2h11.198Zm3.5 11a8.499 8.499 0 1 1 0 17 8.499 8.499 0 0 1-8.5-8.5 8.5 8.5 0 0 1 8.5-8.5Zm0 2a6.499 6.499 0 0 0-6.5 6.5 6.499 6.499 0 1 0 13 0 6.5 6.5 0 0 0-6.5-6.5Zm3.265 3c.21 0 .389.07.536.212h-.022c.147.141.22.324.22.515v5.546a.706.706 0 0 1-.22.515.779.779 0 0 1-1.058.01l-.011-.02a.714.714 0 0 1-.21-.505v-5.546c0-.191.074-.374.22-.515a.813.813 0 0 1 .545-.212Zm-5.348.19c.354-.253.849-.253 1.182 0a.927.927 0 0 1 .365.444l2 5.474a.64.64 0 0 1-.09.586.676.676 0 0 1-.586.293c-.212 0-.415-.06-.587-.172a.96.96 0 0 1-.354-.463l-.394-1.163h-1.93l-.405 1.182a.962.962 0 0 1-.344.455c-.333.252-.879.242-1.141-.111-.132-.182-.172-.394-.091-.586l2.01-5.485a.94.94 0 0 1 .365-.454Zm.071 3.646h.99l-.495-1.454-.495 1.454Zm-.488-13.234a.4.4 0 0 0 .398.398h3.31l-3.708-3.625v3.227Z"/>
</svg>
