<svg width="32" height="32" viewBox="0 0 32 32" fill="none" xmlns="http://www.w3.org/2000/svg">
<path fill-rule="evenodd" clip-rule="evenodd" d="M17.1068 19.3195C17.3552 18.8262 17.9564 18.6277 18.4497 18.876L23.9497 21.6453C24.443 21.8936 24.6415 22.4949 24.3932 22.9881C24.1448 23.4814 23.5436 23.68 23.0503 23.4316L17.5503 20.6624C17.057 20.414 16.8585 19.8128 17.1068 19.3195Z" fill="#3D3C3C"/>
<path fill-rule="evenodd" clip-rule="evenodd" d="M29.8931 19.3195C30.1415 19.8128 29.9429 20.414 29.4496 20.6624L23.9496 23.4316C23.4564 23.68 22.8551 23.4814 22.6068 22.9881C22.3584 22.4949 22.5569 21.8936 23.0502 21.6453L28.5502 18.876C29.0435 18.6277 29.6447 18.8262 29.8931 19.3195Z" fill="#3D3C3C"/>
<path fill-rule="evenodd" clip-rule="evenodd" d="M24.4223 16.5558C24.6676 17.0507 24.4654 17.6506 23.9705 17.896L18.4442 20.6356C17.9493 20.8809 17.3494 20.6787 17.1041 20.1839C16.8587 19.689 17.061 19.0891 17.5558 18.8438L23.0822 16.1041C23.577 15.8588 24.177 16.061 24.4223 16.5558Z" fill="#3D3C3C"/>
<path fill-rule="evenodd" clip-rule="evenodd" d="M22.6068 16.5503C22.8551 16.057 23.4564 15.8585 23.9496 16.1068L29.4496 18.8761C29.9429 19.1244 30.1415 19.7257 29.8931 20.2189C29.6447 20.7122 29.0435 20.9108 28.5502 20.6624L23.0502 17.8932C22.5569 17.6448 22.3584 17.0436 22.6068 16.5503Z" fill="#3D3C3C"/>
<path fill-rule="evenodd" clip-rule="evenodd" d="M18 18.7692C18.5523 18.7692 19 19.2169 19 19.7692V26.2307C19 26.783 18.5523 27.2307 18 27.2307C17.4477 27.2307 17 26.783 17 26.2307V19.7692C17 19.2169 17.4477 18.7692 18 18.7692Z" fill="#3D3C3C"/>
<path fill-rule="evenodd" clip-rule="evenodd" d="M29 18.7692C29.5523 18.7692 30 19.2169 30 19.7692V26.2307C30 26.783 29.5523 27.2307 29 27.2307C28.4477 27.2307 28 26.783 28 26.2307V19.7692C28 19.2169 28.4477 18.7692 29 18.7692Z" fill="#3D3C3C"/>
<path fill-rule="evenodd" clip-rule="evenodd" d="M23.4999 21.5385C24.0522 21.5385 24.4999 21.9862 24.4999 22.5385V29C24.4999 29.5523 24.0522 30 23.4999 30C22.9477 30 22.4999 29.5523 22.4999 29V22.5385C22.4999 21.9862 22.9477 21.5385 23.4999 21.5385Z" fill="#3D3C3C"/>
<path fill-rule="evenodd" clip-rule="evenodd" d="M17.1068 25.7811C17.3552 25.2878 17.9564 25.0893 18.4497 25.3376L23.9497 28.1069C24.443 28.3552 24.6415 28.9565 24.3932 29.4498C24.1448 29.943 23.5436 30.1416 23.0503 29.8932L17.5503 27.124C17.057 26.8756 16.8585 26.2744 17.1068 25.7811Z" fill="#3D3C3C"/>
<path fill-rule="evenodd" clip-rule="evenodd" d="M29.8931 25.7811C30.1415 26.2744 29.9429 26.8756 29.4496 27.124L23.9496 29.8932C23.4564 30.1416 22.8551 29.943 22.6068 29.4498C22.3584 28.9565 22.5569 28.3552 23.0502 28.1069L28.5502 25.3376C29.0435 25.0893 29.6447 25.2878 29.8931 25.7811Z" fill="#3D3C3C"/>
<path fill-rule="evenodd" clip-rule="evenodd" d="M19.9627 2.26233C19.9638 2.26302 19.9649 2.26372 19.9661 2.26441L23.066 4.14223C23.0668 4.14267 23.0675 4.14312 23.0682 4.14356C23.9361 4.66556 24.2042 5.7914 23.7287 6.65648M23.7277 6.65832L22.6986 8.53503C23.3196 9.34795 23.8282 10.2629 24.1985 11.2525H26.1776C27.2357 11.2525 28 12.1411 28 13.1164V14C28 14.5523 27.5523 15 27 15C26.4477 15 26 14.5523 26 14V13.2525H24.0585C23.3058 13.2525 22.6174 12.7822 22.3596 12.0468C22.0473 11.1819 21.6068 10.3886 21.0663 9.69332C20.5983 9.09209 20.5629 8.26962 20.9126 7.63248C20.9124 7.63271 20.9127 7.63225 20.9126 7.63248L21.9237 5.78858L19.1096 4.08389L18.1396 5.84732C18.1395 5.84747 18.1397 5.84717 18.1396 5.84732C17.7928 6.47818 17.0734 6.91289 16.2708 6.77122C15.8566 6.70251 15.4331 6.66575 15 6.66575C14.5649 6.66575 14.1396 6.70285 13.7236 6.77214L13.7207 6.77262C12.9399 6.9003 12.2164 6.49479 11.8607 5.84777L10.8904 4.08389L8.0763 5.78858L9.08704 7.63178C9.08701 7.63172 9.08708 7.63185 9.08704 7.63178C9.43957 8.27362 9.39704 9.0849 8.9402 9.6849L8.9357 9.69082L8.9311 9.69666C8.38786 10.3886 7.95231 11.1815 7.63859 12.0518L7.63757 12.0546C7.37578 12.774 6.698 13.2525 5.94147 13.2525H4V16.7475H5.94147C6.69415 16.7475 7.38254 17.2177 7.64033 17.9531C7.95272 18.818 8.3932 19.6114 8.93372 20.3067C9.40166 20.9079 9.43712 21.7304 9.08743 22.3675C9.0873 22.3678 9.08755 22.3673 9.08743 22.3675L8.0763 24.2114L10.8904 25.9161L11.8604 24.1527C11.8603 24.1528 11.8605 24.1525 11.8604 24.1527C12.2085 23.5195 12.9319 23.0839 13.738 23.2304C14.2814 23.3291 14.6419 23.8497 14.5432 24.393C14.4553 24.8765 14.0336 25.2151 13.559 25.2145L12.5526 27.0441C12.0704 27.9355 10.9386 28.2893 10.0374 27.7377C10.0362 27.737 10.0351 27.7363 10.0339 27.7356L6.93399 25.8578C6.93328 25.8574 6.93257 25.8569 6.93185 25.8565C6.06371 25.3344 5.79561 24.2081 6.27162 23.3429C6.27183 23.3425 6.27205 23.3421 6.27227 23.3417L7.30138 21.465C6.68037 20.6521 6.17175 19.7371 5.80154 18.7475H3.82241C2.76427 18.7475 2 17.8589 2 16.8837V13.1164C2 12.1257 2.77931 11.2525 3.82241 11.2525H5.80151C6.16983 10.2669 6.6724 9.35112 7.30119 8.53467L6.27286 6.65941C5.78914 5.78902 6.07414 4.67093 6.92439 4.14806L6.9301 4.14455L10.0435 2.25857C10.9388 1.7218 12.0595 2.06114 12.5501 2.95151L13.5528 4.77433C14.0234 4.70367 14.506 4.66575 15 4.66575C15.494 4.66575 15.9766 4.70367 16.4472 4.77433L17.4474 2.95593C17.9296 2.06449 19.0614 1.71073 19.9627 2.26233M13.6133 25.1157C13.6132 25.1159 13.6134 25.1156 13.6133 25.1157V25.1157ZM13.6131 4.88385C13.613 4.88371 13.6131 4.88398 13.6131 4.88385V4.88385Z" fill="#3D3C3C"/>
<path fill-rule="evenodd" clip-rule="evenodd" d="M15.6208 11.4354C13.1372 11.0292 11.0287 13.1373 11.4355 15.62C11.6886 17.1699 12.8124 18.3933 14.2397 18.6287C14.7846 18.7186 15.1535 19.2332 15.0636 19.7781C14.9737 20.3231 14.4591 20.6919 13.9142 20.6021C11.5202 20.2071 9.83268 18.2134 9.46187 15.9434M15.6208 11.4354C17.1745 11.6919 18.3961 12.8147 18.6285 14.238C18.7175 14.7831 19.2315 15.1528 19.7765 15.0639C20.3216 14.9749 20.6913 14.4609 20.6023 13.9158C20.2111 11.5192 18.2132 9.83596 15.9457 9.46192L15.9444 9.46172C12.1124 8.83448 8.83413 12.11 9.46187 15.9434" fill="#3D3C3C"/>
</svg>
