<svg xmlns="http://www.w3.org/2000/svg" width="32" height="32" fill="currentColor" viewBox="0 0 32 32">
  <path fill-rule="evenodd" d="M10.001 10.577C10.061 6.861 12.848 4 16.126 4c2.584 0 4.851 1.766 5.733 4.332-.472.168-.888.39-1.255.645a1 1 0 1 0 1.142 1.642c.495-.344 1.168-.619 2.149-.619 1 0 2.03.482 2.823 1.3.792.816 1.282 1.897 1.282 2.99 0 .965-.139 1.576-.435 2.355a1 1 0 0 0 1.87.71c.373-.981.565-1.833.565-3.064 0-1.685-.745-3.25-1.846-4.384C27.053 8.774 25.53 8 23.894 8h-.04c-1.044-3.437-4.072-6-7.728-6C11.8 2 8.37 5.57 8.028 9.976c-.826-.1-1.562-.01-2.275.263C3.492 11.104 2 13.222 2 15.52c0 2.407 1.481 4.493 3.607 5.4a1 1 0 1 0 .786-1.839C4.965 18.47 4 17.083 4 15.52c0-1.426.94-2.829 2.467-3.413.485-.185 1.017-.24 1.809-.059a.976.976 0 0 0 .05.01l.72.127A1 1 0 0 0 10 10.577ZM11 13a2 2 0 0 0-2 2v13a2 2 0 0 0 2 2h16a2 2 0 0 0 2-2v-6.996a2 2 0 0 0-2.559-1.92L21 20.668V15a2 2 0 0 0-2-2h-8Zm10 9.75V28h6v-6.996l-6 1.746Zm-2-1.5V20h-8v3h8v-1.75ZM19 25h-8v3h8v-3Zm0-10v3h-8v-3h8Z" clip-rule="evenodd"/>
</svg>
