<svg xmlns="http://www.w3.org/2000/svg" width="32" height="32" fill="currentColor" viewBox="0 0 32 32">
  <path fill-rule="evenodd" d="M3 2a1 1 0 0 1 1 1v24a1 1 0 0 0 1 1h24a1 1 0 1 1 0 2H5a3 3 0 0 1-3-3V3a1 1 0 0 1 1-1Zm23.717 5.227.282 2.866a1 1 0 1 0 1.99-.196l-.473-4.81a1.5 1.5 0 0 0-1.672-1.342l-4.965.599a1 1 0 0 0 .24 1.985l3.037-.366-6.362 9.543-5.04-4.32a2 2 0 0 0-3.185.847l-4.51 12.63a1 1 0 1 0 1.883.673l4.51-12.63 5.469 4.686a1.5 1.5 0 0 0 2.224-.307l6.572-9.858Z" clip-rule="evenodd"/>
</svg>
