<svg xmlns="http://www.w3.org/2000/svg" width="32" height="32" fill="currentColor" viewBox="0 0 32 32">
  <path fill-rule="evenodd" d="M13.695 3.933c-5.391 0-9.762 4.37-9.762 9.762 0 5.39 4.37 9.761 9.762 9.761 5.39 0 9.761-4.37 9.761-9.761 0-5.391-4.37-9.762-9.761-9.762ZM1.933 13.695c0-6.496 5.266-11.762 11.762-11.762 6.495 0 11.761 5.266 11.761 11.762 0 6.495-5.266 11.761-11.761 11.761-6.496 0-11.762-5.266-11.762-11.761Z" clip-rule="evenodd"/>
  <path fill-rule="evenodd" d="M20.669 20.669a1 1 0 0 1 1.414 0l7.69 7.69a1 1 0 0 1-1.413 1.415l-7.691-7.69a1 1 0 0 1 0-1.415ZM14.53 8a1 1 0 0 1 .912.664L17.705 15H21a1 1 0 1 1 0 2h-4a1 1 0 0 1-.942-.664l-1.643-4.6-1.996 4.658A1 1 0 0 1 11.5 17H7a1 1 0 1 1 0-2h3.84l2.74-6.394A1 1 0 0 1 14.53 8Z" clip-rule="evenodd"/>
</svg>
