<svg xmlns="http://www.w3.org/2000/svg" width="32" height="32" fill="currentColor" viewBox="0 0 32 32">
  <path fill-rule="evenodd" d="M13.695 3.933c-5.391 0-9.762 4.37-9.762 9.762 0 5.39 4.37 9.761 9.762 9.761 5.39 0 9.761-4.37 9.761-9.761 0-5.391-4.37-9.762-9.761-9.762ZM1.933 13.695c0-6.496 5.266-11.762 11.762-11.762 6.495 0 11.761 5.266 11.761 11.762 0 2.887-1.04 5.532-2.768 7.58l7.086 7.085a1 1 0 0 1-1.415 1.414l-7.085-7.086a11.714 11.714 0 0 1-7.58 2.768c-6.495 0-11.76-5.266-11.76-11.761Zm13.509-5.031a1 1 0 0 0-1.861-.058L10.84 15H7a1 1 0 1 0 0 2h4.5a1 1 0 0 0 .92-.606l1.995-4.658 1.643 4.6A1 1 0 0 0 17 17h4a1 1 0 1 0 0-2h-3.295l-2.263-6.336Z" clip-rule="evenodd"/>
</svg>
