<svg xmlns="http://www.w3.org/2000/svg" width="32" height="32" fill="none" viewBox="0 0 32 32">
  <path fill="#3D3C3C" fill-rule="evenodd" d="M13.932 4.177a12.01 12.01 0 0 0-8.259 5.707h11.54l-3.281-5.707Zm-10.695 6.06a.996.996 0 0 0-.232.543A13.961 13.961 0 0 0 2 16c0 3.053.977 5.878 2.636 8.179.068.218.21.414.415.546A13.974 13.974 0 0 0 16 30c5.678 0 10.566-3.38 12.763-8.238a.996.996 0 0 0 .232-.543A13.963 13.963 0 0 0 30 16c0-3.052-.977-5.877-2.636-8.178a.996.996 0 0 0-.415-.546A13.974 13.974 0 0 0 16 2C10.322 2 5.434 5.38 3.237 10.237Zm21.934-1.976A11.974 11.974 0 0 0 16.137 4l.73 1.269 5.012 8.716 3.292-5.725Zm1.265 1.812-3.63 6.311a.997.997 0 0 1-.127.222l-2.018 3.51h6.615c.468-1.284.724-2.67.724-4.116a11.95 11.95 0 0 0-1.564-5.928Zm-.11 12.043H14.797l2.086 3.627.99 1.768a.999.999 0 0 1 .115.325 12.01 12.01 0 0 0 8.34-5.72Zm-10.473 5.883-.713-1.274-2.878-5.005a.999.999 0 0 1-.128-.222l-2.008-3.492-2.075 3.608-1.222 2.125A11.974 11.974 0 0 0 15.853 28Zm-10.29-6.072 5.776-10.043H4.724A11.977 11.977 0 0 0 4 16c0 2.156.568 4.179 1.564 5.927Zm8.083-10.043h4.717l2.362 4.108-2.371 4.124h-4.708L11.279 16l2.367-4.116Z" clip-rule="evenodd"/>
</svg>
