<svg xmlns="http://www.w3.org/2000/svg" width="32" height="32" fill="none" viewBox="0 0 32 32">
  <path fill="#3D3C3C" fill-rule="evenodd" d="M2 5.99C2 3.885 3.564 2 5.704 2h20.592C28.436 2 30 3.885 30 5.99v20.08c0 2.09-1.581 3.93-3.703 3.93H5.703C3.581 30 2 28.16 2 26.069V5.99Zm26 0V8H4V5.99C4 4.795 4.854 4 5.704 4h20.592C27.146 4 28 4.795 28 5.99ZM4 10h24v16.069C28 27.213 27.164 28 26.297 28H21v-5.697l1.557-2.335a3 3 0 1 0-1.773-.946l-1.609 2.413a.998.998 0 0 0-.175.58V28h-2V17.83a3.001 3.001 0 1 0-2 0V28h-2v-4.982a.993.993 0 0 0-.144-.536l-1.207-2.072a3 3 0 1 0-1.517 1.369L11 23.27V28H5.703C4.836 28 4 27.213 4 26.069V10Zm12 6a1 1 0 1 0 0-2 1 1 0 0 0 0 2ZM6.753 5h.494c.416 0 .753.31.753.691v.618C8 6.69 7.663 7 7.247 7h-.494C6.337 7 6 6.69 6 6.309V5.69c0-.38.337-.69.753-.69Zm3.494 0h-.494C9.337 5 9 5.31 9 5.691v.618c0 .381.337.691.753.691h.494c.416 0 .753-.31.753-.691V5.69c0-.38-.337-.69-.753-.69Zm2.506 0h.494c.416 0 .753.31.753.691v.618c0 .381-.337.691-.753.691h-.494C12.337 7 12 6.69 12 6.309V5.69c0-.381.337-.691.753-.691ZM23 16a1 1 0 1 0 0 2 1 1 0 0 0 0-2ZM9 18a1 1 0 1 0 0 2 1 1 0 0 0 0-2Z" clip-rule="evenodd"/>
</svg>
