<svg xmlns="http://www.w3.org/2000/svg" width="32" height="32" fill="currentColor" viewBox="0 0 32 32">
  <path fill-rule="evenodd" d="M9 4a1 1 0 1 1 2 0 1 1 0 0 1-2 0Zm1-3a3 3 0 1 0 .543 5.951L12 8.374V9h-.518C10.097 9 9 10.134 9 11.503V12h-.63l-1.654-1.698-.008-.009a3 3 0 1 0-1.414 1.414l1.938 1.99a1 1 0 0 0 .716.303H9v3H7.948a1 1 0 0 0-.716.302l-1.939 1.99a3 3 0 1 0 1.414 1.414l.01-.008L8.37 19H9v1.497C9 21.866 10.097 23 11.482 23H12v1.626l-1.088 1.062a3 3 0 1 0 1.04 1.78l1.747-1.705a1 1 0 0 0 .301-.716V23h4v2.047a1 1 0 0 0 .301.716l1.746 1.704a3 3 0 1 0 1.04-1.78L20 24.627V23h.518C21.903 23 23 21.866 23 20.497V19h1.63l1.059 1.087a3 3 0 1 0 1.779-1.04l-1.7-1.745a1 1 0 0 0-.716-.302H23v-3h2.052a1 1 0 0 0 .716-.302l1.7-1.745a3 3 0 1 0-1.779-1.04L24.629 12H23v-.497C23 10.134 21.903 9 20.518 9H20v-.626l1.457-1.423a3 3 0 1 0-1.782-1.055l-1.374 1.341a1 1 0 0 0-.301.716V9h-4V7.953a1 1 0 0 0-.301-.716l-1.374-1.34A3 3 0 0 0 10 1Zm9 10h-7.518a.493.493 0 0 0-.482.503v8.994c0 .291.23.503.482.503h9.036a.493.493 0 0 0 .482-.503v-8.994a.493.493 0 0 0-.482-.503H19ZM3 22a1 1 0 1 1 2 0 1 1 0 0 1-2 0Zm25-1a1 1 0 1 0 0 2 1 1 0 0 0 0-2ZM8 28a1 1 0 1 1 2 0 1 1 0 0 1-2 0Zm15-1a1 1 0 1 0 0 2 1 1 0 0 0 0-2ZM3 9a1 1 0 1 1 2 0 1 1 0 0 1-2 0Zm25-1a1 1 0 1 0 0 2 1 1 0 0 0 0-2Zm-6-5a1 1 0 1 0 0 2 1 1 0 0 0 0-2Z" clip-rule="evenodd"/>
</svg>
