<svg xmlns="http://www.w3.org/2000/svg" width="32" height="32" fill="currentColor" viewBox="0 0 32 32">
  <path fill-rule="evenodd" d="M8 4H4v4h4V4ZM4 2a2 2 0 0 0-2 2v4a2 2 0 0 0 2 2h4a2 2 0 0 0 2-2V4a2 2 0 0 0-2-2H4Zm14 2h-4v4h4V4Zm-4-2a2 2 0 0 0-2 2v4a2 2 0 0 0 2 2h4a2 2 0 0 0 2-2V4a2 2 0 0 0-2-2h-4Zm10 2h4v4h-4V4Zm-2 0a2 2 0 0 1 2-2h4a2 2 0 0 1 2 2v4a2 2 0 0 1-2 2h-4a2 2 0 0 1-2-2V4ZM8 14H4v4h4v-4Zm-4-2a2 2 0 0 0-2 2v4a2 2 0 0 0 2 2h4a2 2 0 0 0 2-2v-4a2 2 0 0 0-2-2H4Zm10 2h4v4h-4v-4Zm-2 0a2 2 0 0 1 2-2h4a2 2 0 0 1 2 2v4a2 2 0 0 1-2 2h-4a2 2 0 0 1-2-2v-4Zm16 0h-4v4h4v-4Zm-4-2a2 2 0 0 0-2 2v4a2 2 0 0 0 2 2h4a2 2 0 0 0 2-2v-4a2 2 0 0 0-2-2h-4ZM4 24h4v4H4v-4Zm-2 0a2 2 0 0 1 2-2h4a2 2 0 0 1 2 2v4a2 2 0 0 1-2 2H4a2 2 0 0 1-2-2v-4Zm16 0h-4v4h4v-4Zm-4-2a2 2 0 0 0-2 2v4a2 2 0 0 0 2 2h4a2 2 0 0 0 2-2v-4a2 2 0 0 0-2-2h-4Zm10 2h4v4h-4v-4Zm-2 0a2 2 0 0 1 2-2h4a2 2 0 0 1 2 2v4a2 2 0 0 1-2 2h-4a2 2 0 0 1-2-2v-4Z" clip-rule="evenodd"/>
</svg>
