<svg xmlns="http://www.w3.org/2000/svg" width="32" height="32" fill="currentColor" viewBox="0 0 32 32">
  <path fill-rule="evenodd" d="M10.284 5.301a1 1 0 0 1 1.415-.016l2 1.952a1 1 0 0 1 .301.716V10a1 1 0 1 1-2 0V8.374l-1.699-1.659a1 1 0 0 1-.017-1.414Zm11.431 0a1 1 0 0 0-1.414-.016l-2 1.952a1 1 0 0 0-.301.716V10a1 1 0 1 0 2 0V8.374l1.699-1.659a1 1 0 0 0 .016-1.414ZM5.302 10.284a1 1 0 0 1 1.414.018L8.37 12H10a1 1 0 1 1 0 2H7.948a1 1 0 0 1-.716-.302l-1.948-2a1 1 0 0 1 .018-1.414Zm22.396 0a1 1 0 0 0-1.414.018L24.63 12H23a1 1 0 1 0 0 2h2.052a1 1 0 0 0 .716-.302l1.948-2a1 1 0 0 0-.018-1.414ZM13 22a1 1 0 0 1 1 1v2.047a1 1 0 0 1-.301.716l-2 1.952a1 1 0 1 1-1.398-1.43L12 24.625V23a1 1 0 0 1 1-1Zm6 0a1 1 0 0 0-1 1v2.047a1 1 0 0 0 .301.716l2 1.952a1 1 0 1 0 1.398-1.43L20 24.625V23a1 1 0 0 0-1-1ZM7.232 17.302A1 1 0 0 1 7.948 17H10a1 1 0 1 1 0 2H8.37l-1.654 1.698a1 1 0 1 1-1.432-1.396l1.948-2Zm18.536 0a1 1 0 0 0-.716-.302H23a1 1 0 1 0 0 2h1.63l1.654 1.698a1 1 0 1 0 1.432-1.396l-1.948-2Z" clip-rule="evenodd"/>
  <path fill-rule="evenodd" d="M4 21a1 1 0 1 0 0 2 1 1 0 0 0 0-2Zm-3 1a3 3 0 1 1 6 0 3 3 0 0 1-6 0Zm27-1a1 1 0 1 0 0 2 1 1 0 0 0 0-2Zm-3 1a3 3 0 1 1 6 0 3 3 0 0 1-6 0ZM9 27a1 1 0 1 0 0 2 1 1 0 0 0 0-2Zm-3 1a3 3 0 1 1 6 0 3 3 0 0 1-6 0Zm17-1a1 1 0 1 0 0 2 1 1 0 0 0 0-2Zm-3 1a3 3 0 1 1 6 0 3 3 0 0 1-6 0ZM4 8a1 1 0 1 0 0 2 1 1 0 0 0 0-2ZM1 9a3 3 0 1 1 6 0 3 3 0 0 1-6 0Zm27-1a1 1 0 1 0 0 2 1 1 0 0 0 0-2Zm-3 1a3 3 0 1 1 6 0 3 3 0 0 1-6 0ZM10 3a1 1 0 1 0 0 2 1 1 0 0 0 0-2ZM7 4a3 3 0 1 1 6 0 3 3 0 0 1-6 0Zm15-1a1 1 0 1 0 0 2 1 1 0 0 0 0-2Zm-3 1a3 3 0 1 1 6 0 3 3 0 0 1-6 0Zm-7.518 7a.493.493 0 0 0-.482.503v8.994c0 .291.23.503.482.503h9.036a.493.493 0 0 0 .482-.503v-8.994a.493.493 0 0 0-.482-.503h-9.036ZM9 11.503C9 10.134 10.097 9 11.482 9h9.036C21.903 9 23 10.134 23 11.503v8.994C23 21.866 21.903 23 20.518 23h-9.036C10.097 23 9 21.866 9 20.497v-8.994Z" clip-rule="evenodd"/>
</svg>
