<svg xmlns="http://www.w3.org/2000/svg" width="32" height="32" fill="currentColor" viewBox="0 0 32 32">
  <path fill-rule="evenodd" d="M16.877 2.226c4.291 2.293 8.23 3.56 9.732 3.993l.011.003c.76.23 1.38.911 1.38 1.793v11.13c0 1.52-.688 2.901-1.62 4.08-.933 1.181-2.173 2.24-3.43 3.137-2.515 1.798-5.252 3.066-6.204 3.484l-.018.008a1.884 1.884 0 0 1-1.456 0l-.017-.008c-.957-.418-3.695-1.686-6.209-3.484-1.256-.898-2.495-1.956-3.428-3.138C4.688 22.046 4 20.666 4 19.146V8.025c0-.864.602-1.573 1.392-1.797a52.573 52.573 0 0 0 9.72-4.001 1.834 1.834 0 0 1 1.764-.001Zm-.881 1.796A54.608 54.608 0 0 1 6 8.134v11.012c0 .903.411 1.855 1.187 2.838.773.98 1.848 1.912 3.023 2.752 2.3 1.644 4.833 2.831 5.79 3.253.955-.423 3.487-1.61 5.787-3.254 1.175-.84 2.251-1.772 3.025-2.75C25.588 21 26 20.048 26 19.144V8.126c-1.612-.469-5.622-1.769-10.004-4.103Z" clip-rule="evenodd"/>
  <path fill-rule="evenodd" d="M21.707 11.293a1 1 0 0 1 0 1.414l-6.998 7a1 1 0 0 1-1.414 0l-3.002-3.003a1 1 0 1 1 1.414-1.414l2.295 2.296 6.29-6.293a1 1 0 0 1 1.415 0Z" clip-rule="evenodd"/>
</svg>
