<svg xmlns="http://www.w3.org/2000/svg" width="33" height="32" fill="currentColor" viewBox="0 0 33 32">
  <path d="M18.26 2.01A2 2 0 0 1 20.058 4v1h3a3 3 0 0 1 3 3v6a1 1 0 1 1-2 0V8a1 1 0 0 0-1-1h-3v1l-.011.204A2 2 0 0 1 18.26 9.99l-.204.011h-6l-.205-.01A2 2 0 0 1 10.057 8V7h-3a1 1 0 0 0-1 1v19a1 1 0 0 0 1 1h6a1 1 0 0 1 0 2h-6a3 3 0 0 1-3-3V8a3 3 0 0 1 3-3h3V4a2 2 0 0 1 1.795-1.99l.205-.01h6l.204.01ZM22.058 16a7 7 0 1 1 0 14 7 7 0 0 1-7-7 7 7 0 0 1 7-7Zm0 2a5 5 0 0 0-5 5 5 5 0 1 0 10 0 5 5 0 0 0-5-5Zm1.244 2.346a1 1 0 0 1 1.629 1.141l-.054.087-2.804 4a1 1 0 0 1-1.64-.003l-1.196-1.716a1 1 0 0 1 1.641-1.144l.378.543 1.982-2.828.064-.08ZM12.057 8h6V4h-6v4Z"/>
</svg>
