<svg xmlns="http://www.w3.org/2000/svg" width="32" height="32" fill="currentColor" viewBox="0 0 32 32">
  <path fill-rule="evenodd" d="M26.609 6.22c-1.501-.435-5.44-1.7-9.733-3.994a1.834 1.834 0 0 0-1.764 0 52.573 52.573 0 0 1-9.72 4.002C4.602 6.452 4 7.161 4 8.025v11.12c0 1.52.687 2.9 1.618 4.079.933 1.182 2.172 2.24 3.428 3.138 2.514 1.798 5.252 3.066 6.21 3.485l.016.007c.469.195.987.195 1.456 0l.018-.008c.952-.419 3.69-1.686 6.204-3.483 1.257-.899 2.497-1.957 3.43-3.139.932-1.178 1.62-2.558 1.62-4.078V8.016c0-.883-.62-1.564-1.38-1.793l-.011-.004ZM6 8.133a54.608 54.608 0 0 0 9.996-4.112C20.378 6.356 24.388 7.656 26 8.125v11.02c0 .904-.412 1.856-1.188 2.84-.774.978-1.85 1.91-3.025 2.75-2.3 1.644-4.832 2.831-5.787 3.254-.957-.422-3.49-1.609-5.79-3.253-1.175-.84-2.25-1.773-3.023-2.752C6.411 21.002 6 20.05 6 19.146V8.134Zm15.707 4.573a1 1 0 1 0-1.414-1.414l-6.291 6.293-2.295-2.296a1 1 0 1 0-1.414 1.414l3.002 3.003a1 1 0 0 0 1.414 0l6.998-7Z" clip-rule="evenodd"/>
</svg>
