<svg xmlns="http://www.w3.org/2000/svg" width="33" height="32" fill="currentColor" viewBox="0 0 33 32">
  <path d="M13.589 5.834a1.48 1.48 0 0 1 1.991.107c.543.55.575 1.42.097 2.008l-.102.114L9.163 14.5h18.312c.821 0 1.487.671 1.487 1.5 0 .828-.666 1.5-1.487 1.5H9.163l6.412 6.436a1.51 1.51 0 0 1 .005 2.122 1.48 1.48 0 0 1-2.104.005l-8.965-9-.099-.11a1.507 1.507 0 0 1-.079-.105c-.01-.014-.017-.029-.025-.043a1.504 1.504 0 0 1-.18-.402l-.013-.05a1.496 1.496 0 0 1-.015-.077.951.951 0 0 1-.011-.077l-.008-.059a1.515 1.515 0 0 1 .02-.435 1.525 1.525 0 0 1 .223-.54l.031-.043c.047-.065.098-.128.156-.186l8.965-9 .113-.102Z"/>
</svg>
