<svg xmlns="http://www.w3.org/2000/svg" width="32" height="32" fill="currentColor" viewBox="0 0 32 32">
  <path fill-rule="evenodd" d="M27.705 4.295c.191.192.298.453.295.724l-.2 19.04a1.009 1.009 0 0 1-2.017-.02l.19-18.011-18.012.189a1.008 1.008 0 1 1-.02-2.017L26.98 4c.271-.003.532.104.724.295Z" clip-rule="evenodd"/>
  <path fill-rule="evenodd" d="M27.705 4.295a1.008 1.008 0 0 1 0 1.427L5.722 27.705a1.008 1.008 0 1 1-1.427-1.427L26.278 4.295a1.008 1.008 0 0 1 1.427 0Z" clip-rule="evenodd"/>
</svg>
