<svg xmlns="http://www.w3.org/2000/svg" width="33" height="32" fill="currentColor" viewBox="0 0 33 32">
  <path d="M16.348 3.501c.029 0 .058.003.086.005l.055.005a1.517 1.517 0 0 1 .253.051l.021.006c.079.025.155.057.229.095.013.007.028.012.04.02.122.066.236.15.339.254l9.006 9 .102.114c.48.588.448 1.457-.098 2.008a1.492 1.492 0 0 1-2 .107l-.114-.103L17.81 8.61V27c0 .828-.669 1.5-1.494 1.5a1.497 1.497 0 0 1-1.494-1.5V8.61l-6.456 6.454a1.492 1.492 0 0 1-2.114-.005 1.505 1.505 0 0 1 .004-2.122l9.005-9 .06-.054.05-.045.005-.003c.01-.01.022-.018.034-.026a1.49 1.49 0 0 1 .558-.267l.023-.006a1.495 1.495 0 0 1 .156-.026l.045-.004c.033-.003.066-.004.099-.005l.025-.001.032.001Z"/>
</svg>
