<svg xmlns="http://www.w3.org/2000/svg" width="32" height="32" fill="currentColor" viewBox="0 0 32 32">
  <path fill-rule="evenodd" d="M2 5a3 3 0 0 1 3-3h7a3 3 0 0 1 3 3v7a3 3 0 0 1-3 3H5a3 3 0 0 1-3-3V5Zm3-1a1 1 0 0 0-1 1v7a1 1 0 0 0 1 1h7a1 1 0 0 0 1-1V5a1 1 0 0 0-1-1H5ZM2 20a3 3 0 0 1 3-3h7a3 3 0 0 1 3 3v7a3 3 0 0 1-3 3H5a3 3 0 0 1-3-3v-7Zm3-1a1 1 0 0 0-1 1v7a1 1 0 0 0 1 1h7a1 1 0 0 0 1-1v-7a1 1 0 0 0-1-1H5Zm12 1a3 3 0 0 1 3-3h7a3 3 0 0 1 3 3v7a3 3 0 0 1-3 3h-7a3 3 0 0 1-3-3v-7Zm3-1a1 1 0 0 0-1 1v7a1 1 0 0 0 1 1h7a1 1 0 0 0 1-1v-7a1 1 0 0 0-1-1h-7Zm3.5-15a4.5 4.5 0 1 0 0 9 4.5 4.5 0 0 0 0-9ZM17 8.5a6.5 6.5 0 1 1 13 0 6.5 6.5 0 0 1-13 0Z" clip-rule="evenodd"/>
</svg>
