<svg xmlns="http://www.w3.org/2000/svg" width="32" height="32" fill="currentColor" viewBox="0 0 32 32">
  <path fill-rule="evenodd" d="M27.688 4.278c-3.07-3.031-8.077-3.038-11.146-.015l-1.547 1.404a1 1 0 0 0 1.344 1.481l1.563-1.418.031-.03c2.287-2.266 6.052-2.268 8.35 0a5.758 5.758 0 0 1 0 8.205l-3.44 3.39a5.884 5.884 0 0 1-8.162.116 1 1 0 0 0-1.362 1.465 7.884 7.884 0 0 0 10.93-.157l3.439-3.39a7.758 7.758 0 0 0 0-11.051Zm-9.007 8.846a7.884 7.884 0 0 0-10.929.156l-3.44 3.391a7.758 7.758 0 0 0 0 11.051c3.07 3.031 8.077 3.038 11.146.015l1.547-1.404a1 1 0 0 0-1.344-1.481l-1.563 1.418-.031.03c-2.287 2.266-6.052 2.268-8.35 0a5.758 5.758 0 0 1 0-8.205l3.44-3.39a5.884 5.884 0 0 1 8.162-.117 1 1 0 0 0 1.362-1.464Z" clip-rule="evenodd"/>
</svg>
