<svg xmlns="http://www.w3.org/2000/svg" width="32" height="32" fill="currentColor" viewBox="0 0 32 32">
  <path d="M18 21V7c0-.951-.425-1.663-1.122-2.169C16.154 4.306 15.122 4 14 4s-2.152.306-2.874.831c-.696.506-1.123 1.22-1.126 2.173v14.904C10 25.285 12.698 28 16 28s6-2.715 6-6.092V10.092a1 1 0 1 1 2 0v11.816C24 26.365 20.431 30 16 30s-8-3.635-8-8.092V6.996l.01-.306c.095-1.507.854-2.688 1.94-3.477C11.082 2.39 12.548 2 14 2s2.92.39 4.053 1.213C19.213 4.055 20 5.343 20 7v14c0 .962-.44 1.832-1.06 2.45-.62.616-1.488 1.05-2.44 1.05-1.799 0-3.5-1.516-3.5-3.422V10.092a1 1 0 1 1 2 0v10.986c0 .712.715 1.422 1.5 1.422.34 0 .722-.162 1.03-.468.306-.305.47-.685.47-1.032Z"/>
</svg>
