<svg xmlns="http://www.w3.org/2000/svg" width="32" height="32" fill="currentColor" viewBox="0 0 32 32">
  <path fill-rule="evenodd" d="M8.802 2C6.723 2 5 3.651 5 5.738v20.524C5 28.349 6.723 30 8.802 30h15.396C26.277 30 28 28.349 28 26.262V9.84l-.023-.054a.993.993 0 0 0-.142-.337l-.136-.324-7-6.84A.997.997 0 0 0 20 2H8.802ZM19 4H8.802C7.784 4 7 4.8 7 5.738v20.524C7 27.2 7.784 28 8.802 28h15.396C25.216 28 26 27.2 26 26.262V11h-4.602A2.4 2.4 0 0 1 19 8.602V4Zm5.709 5L21 5.376v3.226a.4.4 0 0 0 .398.398h3.31ZM12 10c-.55 0-1 .45-1 1s.45 1 1 1c1.655 0 3 1.345 3 3 0 1.31-.842 2.425-2.014 2.834.01.054.014.11.014.166v1a1 1 0 1 1-2 0v-1c0-.056.005-.112.014-.166A2.999 2.999 0 0 1 9 15a1 1 0 1 1 2 0c0 .55.45 1 1 1s1-.45 1-1-.45-1-1-1c-1.655 0-3-1.345-3-3 0-1.31.842-2.425 2.014-2.834A1.002 1.002 0 0 1 11 8V7a1 1 0 1 1 2 0v1c0 .056-.005.112-.014.166A2.999 2.999 0 0 1 15 11a1 1 0 1 1-2 0c0-.55-.45-1-1-1Zm5.006 10a1 1 0 1 0 0 2H23a1 1 0 1 0 0-2h-5.994ZM17 24a1 1 0 1 0 0 2h5.994a1 1 0 1 0 0-2H17Z" clip-rule="evenodd"/>
</svg>
