<svg xmlns="http://www.w3.org/2000/svg" width="32" height="32" fill="currentColor" viewBox="0 0 32 32">
  <path fill-rule="evenodd" d="M18.894 1.946a.999.999 0 0 1 .832 1.141l-1.498 9.448 5.346-1.46a1 1 0 0 1 1.425.87v.03a.995.995 0 0 1-.24.666L13.838 29.48l-.006.009-.029.039-.03.042-.007.008a.992.992 0 0 1-.61.343l-.05.008-.02.001a.684.684 0 0 1-.079.005h-.032a.986.986 0 0 1-.066-.004H12.9c-.007 0-.014-.003-.021-.004a1 1 0 0 1-.17-.034l-.026-.009a1.051 1.051 0 0 1-.065-.024l-.034-.016-.055-.026-.032-.019-.041-.023-.013-.009-.036-.026c-.014-.01-.029-.02-.042-.031l-.022-.02a.989.989 0 0 1-.33-.585 1 1 0 0 1-.01-.256v-.01l.88-8.83-4.785.48A1 1 0 0 1 7 19.471a.991.991 0 0 1 .155-.547l10.5-16.462a.998.998 0 0 1 .697-.45.997.997 0 0 1 .541-.065Zm-8.97 16.353 3.976-.398c.298-.03.595.077.807.288a.997.997 0 0 1 .288.804l-.593 5.943 7.321-11.287-4.46 1.219a.997.997 0 0 1-1.25-1.118l1.051-6.644-7.14 11.193Z" clip-rule="evenodd"/>
</svg>
