<svg xmlns="http://www.w3.org/2000/svg" width="32" height="32" fill="currentColor" viewBox="0 0 32 32">
  <path fill-rule="evenodd" d="M10.288 4C8.448 4 7 5.451 7 7.179v19.026c0 1.488 1.836 2.389 3.079 1.35l3.382-2.825c.274-.277 1.17-1.057 2.539-1.057 1.401 0 2.299.822 2.53 1.05l3.391 2.832c1.24 1.037 3.079.132 3.079-1.35V7.18C25 5.45 23.552 4 21.712 4H10.288ZM5 7.179C5 4.3 7.39 2 10.288 2h11.424C24.609 2 27 4.3 27 7.179v19.026c0 3.273-3.892 4.95-6.361 2.885l-3.425-2.86a.97.97 0 0 1-.07-.064c-.081-.083-.502-.493-1.144-.493-.318 0-.583.1-.787.216a1.85 1.85 0 0 0-.242.168c-.06.05-.09.083-.087.08a.96.96 0 0 1-.098.093l-3.425 2.86C8.894 31.152 5 29.49 5 26.205V7.18Z" clip-rule="evenodd"/>
</svg>
