<svg xmlns="http://www.w3.org/2000/svg" width="33" height="32" fill="currentColor" viewBox="0 0 33 32">
  <path d="M26.63 2a1 1 0 0 1 1 1v26a1 1 0 0 1-1 1H8.584C6.94 30 5.63 28.64 5.63 27V5.284C5.63 3.584 6.873 2 8.66 2h17.97ZM8.494 26.004c-.467.047-.864.46-.864.996 0 .573.452 1 .954 1H25.63v-1.99H8.584c-.03 0-.06-.003-.09-.006ZM8.66 4c-.465 0-1.03.459-1.03 1.284v18.878c.298-.103.618-.162.954-.162a1 1 0 0 1 .133.01h.779A1 1 0 0 1 9.63 24h16V4H8.66Zm11.072 6.005a1 1 0 0 1 0 1.99L19.63 12h-6a1 1 0 1 1 0-2h6l.102.005Zm2-3a1 1 0 0 1 0 1.99L21.63 9h-10a1 1 0 1 1 0-2h10l.102.005Z"/>
</svg>
