<svg xmlns="http://www.w3.org/2000/svg" width="32" height="32" fill="none" viewBox="0 0 32 32">
  <path fill="#3D3C3C" fill-rule="evenodd" d="M8 2a3 3 0 0 0-3 3v22a3 3 0 0 0 3 3h17a2 2 0 0 0 2-2V4a2 2 0 0 0-2-2H8Zm1.07 2H8a1 1 0 0 0-1 1v22a1 1 0 0 0 1 1h17V4h-7.07c.046.197.07.4.07.607v7.318c0 .845-.474 1.541-1.14 1.87a1.935 1.935 0 0 1-2.188-.319L13.5 12.4l-1.171 1.075a1.936 1.936 0 0 1-2.188.321A2.064 2.064 0 0 1 9 11.925V4.607c0-.207.024-.41.07-.607Zm6.43 0h-4c-.212 0-.5.207-.5.607v7.318c0 .023.003.038.006.048v.002l1.134-1.041c.174-.185.64-.598 1.36-.598.745 0 1.218.448 1.357.596l1.136 1.042.002-.003a.169.169 0 0 0 .005-.046V4.607c0-.4-.288-.607-.5-.607ZM15 20a1 1 0 0 1 1-1h6a1 1 0 1 1 0 2h-6a1 1 0 0 1-1-1Zm1 3a1 1 0 1 0 0 2h6a1 1 0 1 0 0-2h-6Z" clip-rule="evenodd"/>
</svg>
