<svg xmlns="http://www.w3.org/2000/svg" width="32" height="32" fill="currentColor" viewBox="0 0 32 32">
  <path fill-rule="evenodd" d="M13.894 2.08a1 1 0 0 0-.788 0l-10.5 4.5A1 1 0 0 0 2 7.5v11.861a1 1 0 0 0 .594.914l10.454 4.639a1 1 0 0 0 .429.086h.023a1 1 0 0 0 1-1V12.66L23 9.016V14a1 1 0 1 0 2 0V8a.985.985 0 0 0-.032-.25 1 1 0 0 0-.574-1.17l-10.5-4.5ZM12.5 12.66v9.823L4 18.71V9.017l3 1.285V14a1 1 0 1 0 2 0v-2.84l3.5 1.5ZM7.867 8.497 5.54 7.5l7.96-3.412 2.103.901L7.867 8.5Zm2.49 1.067 3.143 1.347L21.461 7.5l-3.369-1.444-7.735 3.509ZM27 23a1 1 0 0 1-1 1h-6a1 1 0 1 1 0-2h6a1 1 0 0 1 1 1Zm-4-7a7 7 0 0 0-7 7 7 7 0 1 0 14 0 7 7 0 0 0-7-7Zm-5 7a5 5 0 0 1 5-5 5 5 0 1 1 0 10 5 5 0 0 1-5-5Z" clip-rule="evenodd"/>
</svg>
