<svg xmlns="http://www.w3.org/2000/svg" width="32" height="32" fill="currentColor" viewBox="0 0 32 32">
  <path fill-rule="evenodd" d="M12.428 2.108a1 1 0 0 1 1.24.277L16 5.375l2.331-2.99a1 1 0 0 1 1.24-.277l9.88 5a1 1 0 0 1 .337 1.507l-2.664 3.416 2.695 3.839a1 1 0 0 1-.329 1.446l-9.88 5.556a1 1 0 0 1-1.308-.297L16 19.296l-2.302 3.279a1 1 0 0 1-1.308.297l-9.88-5.556a1 1 0 0 1-.328-1.446l2.694-3.839-2.664-3.416a1 1 0 0 1 .336-1.507l9.88-5Zm-4.185 9.938L16 8.121l7.757 3.925L16 16.408l-7.757-4.362ZM4.536 8.343l1.867 2.393 8.06-4.08-1.865-2.392-8.062 4.08Zm14.867-4.08-1.867 2.394 8.061 4.08 1.867-2.394-8.061-4.08Zm-1.95 13.623 1.966 2.799 8.128-4.57-1.966-2.8-8.128 4.57Zm-13-1.772 1.966-2.799 8.128 4.57-1.966 2.8-8.128-4.57Zm21.614 3.953a1 1 0 0 1 1 1v2.816a1 1 0 0 1-.54.888l-9.988 5.177a.999.999 0 0 1-.945 0l-9.988-5.177a1 1 0 0 1-.54-.888v-2.816a1 1 0 1 1 2 0v2.208L15 27.387V24a1 1 0 1 1 2 0v3.456l8.067-4.18v-2.21a1 1 0 0 1 1-1Z" clip-rule="evenodd"/>
</svg>
