<svg xmlns="http://www.w3.org/2000/svg" width="32" height="32" fill="currentColor" viewBox="0 0 32 32">
  <path fill-rule="evenodd" d="M13.106 2.08a1 1 0 0 1 .788 0l10.5 4.5a1 1 0 0 1 .574 1.17c.021.08.032.164.032.25v6.001a1 1 0 1 1-2 0V9.017l-8.5 3.642V24a1 1 0 0 1-1 1h-.023a1 1 0 0 1-.43-.086L2.595 20.275A1 1 0 0 1 2 19.361V7.5a1 1 0 0 1 .606-.92l10.5-4.5ZM12.5 22.484V12.66L9 11.16V14a1 1 0 1 1-2 0v-3.698L4 9.017v9.694l8.5 3.772ZM5.539 7.5l2.328.998 7.736-3.509-2.103-.901L5.539 7.5Zm7.961 3.412-3.143-1.347 7.735-3.509 3.37 1.444-7.962 3.412ZM24 20a1 1 0 1 0-2 0v2h-2a1 1 0 1 0 0 2h2v2a1 1 0 1 0 2 0v-2h2a1 1 0 1 0 0-2h-2v-2Zm-1-4a7 7 0 0 0-7 7 7 7 0 1 0 14 0 7 7 0 0 0-7-7Zm-5 7a5 5 0 0 1 5-5 5 5 0 1 1 0 10 5 5 0 0 1-5-5Z" clip-rule="evenodd"/>
</svg>
