<svg xmlns="http://www.w3.org/2000/svg" width="32" height="32" fill="none" viewBox="0 0 32 32">
  <path fill="#3D3C3C" fill-rule="evenodd" d="M4 10a2 2 0 1 1 4 0 2 2 0 0 1-4 0Zm2-4a4 4 0 1 0 3.807 5.232l.95.238c.896.224 1.403.516 1.705.807.288.278.461.625.557 1.111.1.513.107 1.135.075 1.934-.008.217-.02.448-.031.69v.001A40.31 40.31 0 0 0 13 18c0 .88.32 2.128 1.257 3.169C15.222 22.242 16.758 23 19 23h3.126A4.002 4.002 0 0 0 30 22a4 4 0 0 0-7.874-1H19c-1.758 0-2.723-.575-3.257-1.169C15.18 19.205 15 18.454 15 18c0-.648.03-1.247.058-1.837.013-.255.025-.509.035-.764.031-.809.038-1.635-.112-2.396-.141-.72-.427-1.411-.972-2.003h8.117A4.002 4.002 0 0 0 30 10a4 4 0 0 0-7.874-1H9.874A4.002 4.002 0 0 0 6 6Zm18 4a2 2 0 1 1 4 0 2 2 0 0 1-4 0Zm2 10a2 2 0 1 0 0 4 2 2 0 0 0 0-4Z" clip-rule="evenodd"/>
</svg>
