<svg xmlns="http://www.w3.org/2000/svg" width="32" height="32" fill="currentColor" viewBox="0 0 32 32">
  <path d="M15 3c2.843 0 5.46.402 7.401 1.081.966.338 1.82.764 2.45 1.286C25.477 5.884 26 6.6 26 7.5c0 .102-.008.202-.02.299.02.099.026.203.014.308l-.679 6.261c.854.722 1.497 1.369 1.934 1.946.437.578.795 1.247.747 1.942-.058.847-.662 1.33-1.256 1.544-.554.199-1.227.228-1.898.18l-.133-.014-.715 6.6a1 1 0 0 1-.633.824c-7.496 2.908-14.257 1.235-16.807-.038a1 1 0 0 1-.548-.787l-2-18.458a.999.999 0 0 1 .014-.306A2.283 2.283 0 0 1 4 7.5c0-.9.524-1.616 1.148-2.133.632-.522 1.485-.948 2.45-1.286C9.54 3.401 12.158 3 15 3Zm8.74 7.35c-.41.212-.86.402-1.339.569-1.713.6-3.953.982-6.41 1.063a21.129 21.129 0 0 1-4.492-.196c-1.464-.184-2.792-.48-3.9-.867-.479-.168-.93-.357-1.34-.568l1.674 15.431c2.399 1 7.932 2.168 14.14-.048l.66-6.11c-2.078-.506-4.57-1.504-6.822-2.846A2 2 0 1 1 17 15c0 .032-.003.063-.005.095 1.998 1.182 4.171 2.057 5.956 2.522l.788-7.266Zm1.184 7.627c.02.002.042.006.062.007.44.032.747.008.94-.032a2.687 2.687 0 0 0-.272-.43 7.19 7.19 0 0 0-.606-.688l-.124 1.143ZM15 5c-2.68 0-5.062.382-6.74.969-.844.295-1.455.624-1.836.94-.387.32-.424.525-.424.591v.006c1.723 1.26 3.712 1.97 5.747 2.297a26.234 26.234 0 0 0 4.123.182 22.305 22.305 0 0 0 1.744-.17c1.942-.27 3.651-.762 4.864-1.265.596-.247 1.042-.487 1.332-.684.169-.192.19-.317.19-.366 0-.066-.037-.271-.424-.592-.38-.315-.992-.644-1.836-.94C20.062 5.383 17.68 5 15 5Z"/>
</svg>
