<svg xmlns="http://www.w3.org/2000/svg" width="32" height="32" fill="none" viewBox="0 0 32 32">
  <path fill="#3D3C3C" fill-rule="evenodd" d="M9.494 3.137a1 1 0 0 1 1.369.358l1.022 1.743.821.456c.088-.102.178-.2.27-.295C13.792 4.565 14.822 4 16 4s2.207.565 3.024 1.4c.092.094.182.192.27.294l.825-.456 1.017-1.742a1 1 0 1 1 1.728 1.008l-1.156 1.98a1 1 0 0 1-.38.371l-.934.517c.158.315.304.646.436.989a10.333 10.333 0 0 1 3 2.797l2.204-3.672A1 1 0 0 1 26.89 7H29a1 1 0 1 1 0 2h-1.543l-2.485 4.142A11.881 11.881 0 0 1 26 18c0 1.028-.13 2.029-.373 2.98l2.856 1.576a1 1 0 0 1 .517.876V27a1 1 0 1 1-2 0v-2.978l-2.044-1.128C23.333 26.483 19.976 29 16 29c-3.977 0-7.333-2.517-8.956-6.106L5 24.022V27a1 1 0 1 1-2 0v-3.568a1 1 0 0 1 .517-.876l2.856-1.576A12.01 12.01 0 0 1 6 18c0-1.732.368-3.384 1.028-4.858L4.542 9H3a1 1 0 1 1 0-2h2.109a1 1 0 0 1 .857.486l2.204 3.672a10.333 10.333 0 0 1 3-2.797c.133-.344.278-.675.437-.99l-.932-.516a1 1 0 0 1-.378-.37l-1.16-1.98a1 1 0 0 1 .357-1.368ZM17 26.93c3.874-.55 7-4.254 7-8.93 0-1.202-.206-2.34-.58-3.375-2.272 1.489-4.447 2.16-6.42 2.33v9.975Zm-2-9.967v9.966c-3.874-.55-7-4.253-7-8.929 0-1.185.2-2.307.563-3.332a13.942 13.942 0 0 0 3.944 1.844c.766.219 1.6.382 2.493.451ZM16.012 15h-.034a10.515 10.515 0 0 1-2.922-.41 11.943 11.943 0 0 1-3.614-1.747C10.905 10.5 13.329 9 16 9c2.658 0 5.073 1.486 6.538 3.81-2.387 1.62-4.604 2.178-6.526 2.19Zm-1.96-7.793c.116-.15.234-.287.354-.41C14.958 6.234 15.502 6 16 6s1.042.233 1.594.798c.12.122.238.259.354.409a9.23 9.23 0 0 0-3.896 0Z" clip-rule="evenodd"/>
</svg>
