<svg xmlns="http://www.w3.org/2000/svg" width="32" height="32" fill="currentColor" viewBox="0 0 32 32">
  <path fill-rule="evenodd" d="M18.714 2C17.195 2 16 3.251 16 4.75v5.69c0 .67.194 1.332.671 1.832.483.507 1.142.728 1.829.728h.071v.57c0 .318.089.808.497 1.147.224.186.513.293.826.282a1.362 1.362 0 0 0 .776-.286L22.846 13H27.5c.69 0 1.348-.223 1.83-.731.476-.501.67-1.163.67-1.833V4.75C30 3.251 28.805 2 27.286 2h-8.572ZM18 4.75c0-.434.339-.75.714-.75h8.572c.375 0 .714.316.714.75v5.686c0 .296-.082.416-.12.456-.031.032-.122.108-.38.108h-5a1 1 0 0 0-.619.214l-1.31 1.031V12a1 1 0 0 0-1-1H18.5c-.26 0-.351-.076-.381-.108-.037-.038-.119-.156-.119-.452V4.75Z" clip-rule="evenodd"/>
  <path d="M4 7.52C4 6.697 4.684 6 5.567 6H13a1 1 0 1 0 0-2H5.567C3.615 4 2 5.558 2 7.52v13.96C2 23.443 3.615 25 5.567 25H15v3h-5a1 1 0 1 0 0 2h12a1 1 0 1 0 0-2h-5v-3h9.433C28.385 25 30 23.442 30 21.48V16a1 1 0 1 0-2 0v5.48c0 .822-.684 1.52-1.567 1.52H5.567C4.684 23 4 22.302 4 21.48V7.52Z"/>
  <path fill-rule="evenodd" d="M11 7a3.5 3.5 0 1 0 0 7 3.5 3.5 0 0 0 0-7Zm-1.5 3.5a1.5 1.5 0 1 1 3 0 1.5 1.5 0 0 1-3 0ZM6 17.81c-.01-1.618 1.39-2.76 2.76-2.76h4.635c1.41 0 2.615 1.107 2.605 2.669v2.331a1 1 0 0 1-1 1H7a1 1 0 0 1-1-1v-2.24Zm2.76-.76c-.382 0-.763.358-.76.748v1.252h6v-1.343c.003-.427-.279-.657-.605-.657H8.76Z" clip-rule="evenodd"/>
</svg>
