<svg xmlns="http://www.w3.org/2000/svg" width="32" height="32" fill="none" viewBox="0 0 32 32">
  <path fill="#3D3C3C" fill-rule="evenodd" d="M11.049 3a1 1 0 1 0-2 0v3.967a1 1 0 0 0 2 0v-.984h5.98v.984a1 1 0 1 0 2 0V3a1 1 0 1 0-2 0v.983h-5.98V3Zm-6.73 3.337A.837.837 0 0 0 4 7.025V9h20V7.104C24 6.643 23.515 6 22.5 6H22a1 1 0 1 1 0-2h.5C24.298 4 26 5.241 26 7.104V13a1 1 0 1 1-2 0v-2H4v13.77c0 .62.535 1.193 1.29 1.193H13a1 1 0 1 1 0 2H5.29c-1.777 0-3.29-1.389-3.29-3.194V7.025c0-.903.386-1.694 1.056-2.24C3.71 4.255 4.575 4 5.5 4H6a1 1 0 0 1 0 2h-.5c-.575 0-.96.157-1.181.337ZM24 20a1 1 0 1 0-2 0v2h-2a1 1 0 1 0 0 2h2v2a1 1 0 1 0 2 0v-2h2a1 1 0 1 0 0-2h-2v-2Zm-1-4a7 7 0 0 0-7 7 7 7 0 1 0 14 0 7 7 0 0 0-7-7Zm-5 7a5 5 0 0 1 5-5 5 5 0 1 1 0 10 5 5 0 0 1-5-5Z" clip-rule="evenodd"/>
</svg>
