<svg xmlns="http://www.w3.org/2000/svg" width="32" height="32" fill="none" viewBox="0 0 32 32">
  <path fill="#3D3C3C" fill-rule="evenodd" d="M10.049 2a1 1 0 0 1 1 1v.983h5.98V3a1 1 0 1 1 2 0v3.967a1 1 0 1 1-2 0v-.984h-5.98v.984a1 1 0 1 1-2 0V3a1 1 0 0 1 1-1ZM4 7.025c0-.3.114-.522.319-.688C4.539 6.157 4.925 6 5.5 6H6a1 1 0 0 0 0-2h-.5c-.925 0-1.79.254-2.444.786A2.835 2.835 0 0 0 2 7.026V24.77c0 1.804 1.513 3.193 3.29 3.193h7.21a1 1 0 1 0 0-2H5.29c-.755 0-1.29-.573-1.29-1.194V11h21a1 1 0 0 0 1-1V7.104C26 5.241 24.298 4 22.5 4H22a1 1 0 1 0 0 2h.5c1.015 0 1.5.643 1.5 1.104V9H4V7.025Zm19.13 5.503a1 1 0 0 1 1.346-.414l3.5 1.831a1 1 0 0 1 .424 1.346l-.633 1.222c.318.417.587.863.806 1.329l1.474.07a1 1 0 0 1 .953.998v3.835a1 1 0 0 1-.967 1l-1.295.041a7.187 7.187 0 0 1-.316.676l-.004.007c-.12.22-.25.44-.393.651l.79 1.36a1 1 0 0 1-.375 1.374l-3.588 2.018a1 1 0 0 1-1.386-.427l-.582-1.173c-.46.059-.93.073-1.399.04l-.616 1.152a1 1 0 0 1-1.345.415l-3.532-1.849a1 1 0 0 1-.416-1.36l.648-1.201a7.345 7.345 0 0 1-.772-1.266l-1.299.043a1 1 0 0 1-1.032-.97l-.12-3.998a1 1 0 0 1 .966-1.03l1.294-.042c.092-.228.199-.457.32-.682.118-.216.245-.43.384-.637l-.684-1.114a1 1 0 0 1 .323-1.372l3.378-2.106a1 1 0 0 1 1.38.324l.685 1.111a7.078 7.078 0 0 1 1.468-.05l.616-1.152Zm1.297 1.818-.471.881a1 1 0 0 1-1.057.513 5.072 5.072 0 0 0-2.102.072 1 1 0 0 1-1.092-.446l-.518-.842-1.682 1.049.519.845a1 1 0 0 1-.086 1.165 5.266 5.266 0 0 0-1.004 1.889 1 1 0 0 1-.924.711l-.98.032.06 2 .982-.033a1 1 0 0 1 .972.655c.248.677.62 1.298 1.114 1.825a1 1 0 0 1 .15 1.159l-.49.907 1.755.919.471-.881a1 1 0 0 1 1.057-.513 5.072 5.072 0 0 0 2.102-.073 1 1 0 0 1 1.136.526l.45.906 1.787-1.004-.612-1.054a1 1 0 0 1 .098-1.145 5.4 5.4 0 0 0 .597-.891c.17-.322.303-.653.407-.997a1 1 0 0 1 .925-.711L29 21.777v-1.913l-1.152-.054a1 1 0 0 1-.892-.655 5.355 5.355 0 0 0-1.114-1.825 1 1 0 0 1-.158-1.142l.482-.932-1.739-.91ZM23.5 21a1.5 1.5 0 1 1-3 0 1.5 1.5 0 0 1 3 0Zm2 0a3.5 3.5 0 1 1-7 0 3.5 3.5 0 0 1 7 0Z" clip-rule="evenodd"/>
</svg>
