<svg xmlns="http://www.w3.org/2000/svg" width="32" height="32" fill="currentColor" viewBox="0 0 32 32">
  <path fill-rule="evenodd" d="M11 4.984a1 1 0 0 1 1-1h7.96a1 1 0 1 1 0 2H12a1 1 0 0 1-1-1Z" clip-rule="evenodd"/>
  <path fill-rule="evenodd" d="M12 2a1 1 0 0 1 1 1v3.967a1 1 0 1 1-2 0V3a1 1 0 0 1 1-1Zm7.98 0a1 1 0 0 1 1 1v3.967a1 1 0 1 1-2 0V3a1 1 0 0 1 1-1ZM2 11h28v15.506C30 28.514 28.268 30 26.298 30H5.702C3.73 30 2 28.504 2 26.506V11Zm2 2v13.506C4 27.255 4.684 28 5.702 28h20.596c1.02 0 1.702-.74 1.702-1.494V13H4Z" clip-rule="evenodd"/>
  <path fill-rule="evenodd" d="M2 8.86C2 6.786 3.601 5 5.702 5H8a1 1 0 0 1 0 2H5.702C4.813 7 4 7.779 4 8.86V11h24V8.86C28 7.78 27.187 7 26.298 7H24a1 1 0 1 1 0-2h2.298C28.398 5 30 6.785 30 8.86V13H2V8.86Z" clip-rule="evenodd"/>
</svg>
