<svg xmlns="http://www.w3.org/2000/svg" width="32" height="32" fill="none" viewBox="0 0 32 32">
  <path fill="#3D3C3C" fill-rule="evenodd" d="M10.049 2a1 1 0 0 1 1 1v.983h5.98V3a1 1 0 1 1 2 0v3.967a1 1 0 1 1-2 0v-.984h-5.98v.984a1 1 0 1 1-2 0V3a1 1 0 0 1 1-1ZM4 7.025c0-.3.114-.522.319-.688C4.539 6.157 4.925 6 5.5 6H6a1 1 0 0 0 0-2h-.5c-.925 0-1.79.254-2.444.786A2.835 2.835 0 0 0 2 7.026V24.77c0 1.804 1.513 3.193 3.29 3.193H13a1 1 0 1 0 0-2H5.29c-.755 0-1.29-.573-1.29-1.194V11h20v2a1 1 0 1 0 2 0V7.104C26 5.241 24.298 4 22.5 4H22a1 1 0 1 0 0 2h.5c1.015 0 1.5.643 1.5 1.104V9H4V7.025ZM27 23a1 1 0 0 1-1 1h-6a1 1 0 1 1 0-2h6a1 1 0 0 1 1 1Zm-4-7a7 7 0 0 0-7 7 7 7 0 1 0 14 0 7 7 0 0 0-7-7Zm-5 7a5 5 0 0 1 5-5 5 5 0 1 1 0 10 5 5 0 0 1-5-5Z" clip-rule="evenodd"/>
</svg>
