<svg xmlns="http://www.w3.org/2000/svg" width="32" height="32" fill="currentColor" viewBox="0 0 32 32">
  <path fill-rule="evenodd" d="M12 2a1 1 0 0 1 1 1v.983h5.98V3a1 1 0 1 1 2 0v3.967a1 1 0 1 1-2 0v-.984H13v.984a1 1 0 1 1-2 0V3a1 1 0 0 1 1-1Zm-8 9V8.86C4 7.78 4.813 7 5.702 7H8a1 1 0 0 0 0-2H5.702C3.602 5 2 6.785 2 8.86v17.646C2 28.504 3.73 30 5.702 30h20.596C28.268 30 30 28.514 30 26.506V8.86C30 6.786 28.399 5 26.298 5H24a1 1 0 1 0 0 2h2.298C27.187 7 28 7.779 28 8.86V11H4Zm24 2H4v13.506C4 27.255 4.684 28 5.702 28h20.596c1.02 0 1.702-.74 1.702-1.494V13Z" clip-rule="evenodd"/>
</svg>
