<svg xmlns="http://www.w3.org/2000/svg" width="32" height="32" fill="none" viewBox="0 0 32 32">
  <path fill="#3D3C3C" d="M24.867 12.933a.933.933 0 1 1-1.867 0 .933.933 0 0 1 1.867 0Z"/>
  <path fill="#3D3C3C" fill-rule="evenodd" d="M9.491 5.207a1 1 0 0 1 .61-.207h7.092a1 1 0 0 1 .742.33L19.445 7H26.5c1.01 0 1.886.527 2.481 1.184C29.577 8.84 30 9.74 30 10.68v13.985C30 26.52 28.481 28 26.633 28H5.367C3.519 28 2 26.52 2 24.665V10.67c0-.94.423-1.839 1.02-2.493C3.617 7.523 4.493 7 5.5 7h1.66l2.331-1.793ZM10.441 7 8.11 8.793A1 1 0 0 1 7.5 9h-2c-.302 0-.676.167-1.002.525-.326.357-.498.793-.498 1.146v13.994A1.35 1.35 0 0 0 5.367 26h21.266A1.35 1.35 0 0 0 28 24.665V10.68c0-.353-.173-.792-.5-1.152-.327-.361-.7-.528-1-.528H19a1 1 0 0 1-.742-.33L16.748 7h-6.307Z" clip-rule="evenodd"/>
  <path fill="#3D3C3C" fill-rule="evenodd" d="M13.5 13a4.5 4.5 0 1 0 0 9 4.5 4.5 0 0 0 0-9ZM7 17.5a6.5 6.5 0 1 1 13 0 6.5 6.5 0 0 1-13 0Z" clip-rule="evenodd"/>
</svg>
