<svg xmlns="http://www.w3.org/2000/svg" width="32" height="32" fill="currentColor" viewBox="0 0 32 32">
  <path fill-rule="evenodd" d="M4 6a2 2 0 0 1 2-2h8a1 1 0 1 1 0 2H6v8a1 1 0 1 1-2 0V6Zm13-1a1 1 0 0 1 1-1h8a2 2 0 0 1 2 2v8a1 1 0 1 1-2 0V6h-8a1 1 0 0 1-1-1Zm11 13a1 1 0 1 0-2 0v8h-8a1 1 0 1 0 0 2h8a2 2 0 0 0 2-2v-8ZM5 17a1 1 0 0 1 1 1v8h8a1 1 0 1 1 0 2H6a2 2 0 0 1-2-2v-8a1 1 0 0 1 1-1Zm7-5h8v8h-8v-8Zm-2 0a2 2 0 0 1 2-2h8a2 2 0 0 1 2 2v8a2 2 0 0 1-2 2h-8a2 2 0 0 1-2-2v-8Z" clip-rule="evenodd"/>
</svg>
