<svg xmlns="http://www.w3.org/2000/svg" width="32" height="32" fill="currentColor" viewBox="0 0 32 32">
  <path fill-rule="evenodd" d="M3 3a1 1 0 0 1 1-1h1.33C7.293 2 9 3.507 9 5.5V7h16.597c1.657 0 2.846 1.633 2.248 3.208a.975.975 0 0 1-.017.044l-2.55 5.864A6.426 6.426 0 0 1 19.392 20H9v2c0 1.195.862 2 1.728 2H23a1 1 0 1 1 0 2H10.728C8.583 26 7 24.117 7 22V5.5C7 4.733 6.314 4 5.33 4H4a1 1 0 0 1-1-1Zm6 15V9h16.597c.302 0 .454.267.384.483l-2.536 5.836A4.426 4.426 0 0 1 19.39 18H9Zm3.5 12a1.5 1.5 0 1 0 0-3 1.5 1.5 0 0 0 0 3Zm7 0a1.5 1.5 0 1 0 0-3 1.5 1.5 0 0 0 0 3Z" clip-rule="evenodd"/>
</svg>
