<svg xmlns="http://www.w3.org/2000/svg" width="32" height="32" fill="currentColor" viewBox="0 0 32 32">
  <path fill-rule="evenodd" d="M8 5.496C8 4.656 8.673 4 9.442 4h16.116C26.327 4 27 4.656 27 5.496v21.008c0 .84-.673 1.496-1.442 1.496H9.442C8.673 28 8 27.344 8 26.504v-.554a1 1 0 1 0-2 0v.554C6 28.407 7.528 30 9.442 30h16.116C27.473 30 29 28.407 29 26.504V5.496C29 3.593 27.473 2 25.558 2H9.442C7.528 2 6 3.593 6 5.496V8H5a1 1 0 0 0 0 2h4a1 1 0 0 0 0-2H8V5.496ZM5 15a1 1 0 1 0 0 2h4a1 1 0 1 0 0-2H8v-3a1 1 0 1 0-2 0v3H5Zm0 7a1 1 0 1 0 0 2h4a1 1 0 1 0 0-2H8v-3a1 1 0 1 0-2 0v3H5Z" clip-rule="evenodd"/>
</svg>
