<svg xmlns="http://www.w3.org/2000/svg" width="32" height="32" fill="currentColor" viewBox="0 0 32 32">
  <path fill-rule="evenodd" d="M10 2a1 1 0 0 0 0 2h15.631C26.313 4 27 4.63 27 5.549V27a1 1 0 1 0 2 0V5.549C29 3.666 27.553 2 25.631 2H10ZM8.093 8A1.11 1.11 0 0 0 7 9.112V11h1a1 1 0 1 1 0 2H4a1 1 0 1 1 0-2h1V9.112C5 7.408 6.382 6 8.093 6h13.814C23.617 6 25 7.408 25 9.112v17.776C25 28.592 23.618 30 21.907 30H8.093C6.517 30 5 28.918 5 27.087a1 1 0 1 1 2 0c0 .49.369.913 1.093.913h13.814A1.11 1.11 0 0 0 23 26.888V9.112A1.11 1.11 0 0 0 21.907 8H8.093ZM3 18a1 1 0 0 1 1-1h1v-2a1 1 0 1 1 2 0v2h1a1 1 0 1 1 0 2H4a1 1 0 0 1-1-1Zm0 6a1 1 0 0 1 1-1h1v-2a1 1 0 1 1 2 0v2h1a1 1 0 1 1 0 2H4a1 1 0 0 1-1-1Z" clip-rule="evenodd"/>
</svg>
