<svg xmlns="http://www.w3.org/2000/svg" width="32" height="32" fill="currentColor" viewBox="0 0 32 32">
  <path fill-rule="evenodd" d="M6 5.496C6 4.656 6.673 4 7.442 4h16.116C24.327 4 25 4.656 25 5.496V9a1 1 0 1 0 2 0V5.496C27 3.593 25.473 2 23.558 2H7.442C5.528 2 4 3.593 4 5.496V8H3a1 1 0 0 0 0 2h4a1 1 0 0 0 0-2H6V5.496ZM6 25.95a1 1 0 1 0-2 0v.554C4 28.407 5.528 30 7.442 30H12a1 1 0 1 0 0-2H7.442C6.673 28 6 27.344 6 26.504v-.554ZM3 15a1 1 0 1 0 0 2h4a1 1 0 1 0 0-2H6v-3a1 1 0 1 0-2 0v3H3Zm0 7a1 1 0 1 0 0 2h4a1 1 0 1 0 0-2H6v-3a1 1 0 1 0-2 0v3H3Zm20.13-9.472a1 1 0 0 1 1.346-.414l3.5 1.831a1 1 0 0 1 .424 1.345l-.633 1.223c.318.417.587.863.806 1.329l1.474.07a1 1 0 0 1 .953.998v3.835a1 1 0 0 1-.967.999l-1.295.042a7.198 7.198 0 0 1-.316.676l-.004.006c-.12.222-.25.44-.393.652l.79 1.36a1 1 0 0 1-.375 1.374l-3.588 2.018a1 1 0 0 1-1.386-.427l-.582-1.173c-.46.059-.93.073-1.399.04l-.616 1.152a1 1 0 0 1-1.345.415l-3.532-1.849a1 1 0 0 1-.416-1.361l.648-1.2a7.34 7.34 0 0 1-.772-1.266l-1.299.043a1 1 0 0 1-1.032-.97l-.12-3.998a1 1 0 0 1 .966-1.03l1.294-.042c.092-.228.199-.457.32-.682a8.1 8.1 0 0 1 .384-.637l-.684-1.114a1 1 0 0 1 .323-1.372l3.378-2.106a1 1 0 0 1 1.38.324l.685 1.111a7.078 7.078 0 0 1 1.468-.05l.616-1.152Zm1.297 1.817-.471.882a1 1 0 0 1-1.057.513 5.072 5.072 0 0 0-2.102.072 1 1 0 0 1-1.092-.446l-.518-.842-1.682 1.049.519.845a1 1 0 0 1-.086 1.165c-.22.262-.418.563-.599.896a5.26 5.26 0 0 0-.405.993 1 1 0 0 1-.925.711l-.98.032.061 2 .982-.033a1 1 0 0 1 .972.655c.248.677.62 1.298 1.114 1.825a1 1 0 0 1 .15 1.159l-.49.907 1.755.919.471-.881a1 1 0 0 1 1.057-.513 5.072 5.072 0 0 0 2.102-.073 1 1 0 0 1 1.136.526l.45.906 1.787-1.004-.612-1.054a1 1 0 0 1 .098-1.145 5.4 5.4 0 0 0 .597-.891c.17-.322.303-.653.407-.997a1 1 0 0 1 .925-.711L29 21.777v-1.913l-1.152-.054a1 1 0 0 1-.892-.655 5.356 5.356 0 0 0-1.114-1.825 1 1 0 0 1-.158-1.142l.482-.932-1.739-.91ZM23.5 21a1.5 1.5 0 1 1-3 0 1.5 1.5 0 0 1 3 0Zm2 0a3.5 3.5 0 1 1-7 0 3.5 3.5 0 0 1 7 0Z" clip-rule="evenodd"/>
</svg>
