<svg xmlns="http://www.w3.org/2000/svg" width="32" height="32" fill="currentColor" viewBox="0 0 32 32">
  <path fill-rule="evenodd" d="M9.442 4C8.673 4 8 4.656 8 5.496V8h1a1 1 0 0 1 0 2H5a1 1 0 0 1 0-2h1V5.496C6 3.593 7.528 2 9.442 2h16.116C27.473 2 29 3.593 29 5.496v21.008C29 28.407 27.473 30 25.558 30H9.442C7.528 30 6 28.407 6 26.504v-.554a1 1 0 1 1 2 0v.554C8 27.344 8.673 28 9.442 28h16.116c.769 0 1.442-.656 1.442-1.496V5.496C27 4.656 26.327 4 25.558 4H9.442ZM4 16a1 1 0 0 1 1-1h1v-3a1 1 0 1 1 2 0v3h1a1 1 0 1 1 0 2H5a1 1 0 0 1-1-1Zm0 7a1 1 0 0 1 1-1h1v-3a1 1 0 1 1 2 0v3h1a1 1 0 1 1 0 2H5a1 1 0 0 1-1-1ZM14 9.066c0-.037.03-.066.066-.066h3.868c.037 0 .066.03.066.066v3.868c0 .037-.03.066-.066.066h-3.868a.066.066 0 0 1-.066-.066V9.066ZM14.066 7A2.066 2.066 0 0 0 12 9.066v3.868c0 1.141.925 2.066 2.066 2.066h3.868A2.066 2.066 0 0 0 20 12.934V9.066A2.066 2.066 0 0 0 17.934 7h-3.868ZM12 18a1 1 0 0 1 1-1h10a1 1 0 1 1 0 2H13a1 1 0 0 1-1-1Zm1 3a1 1 0 1 0 0 2h10a1 1 0 1 0 0-2H13Z" clip-rule="evenodd"/>
</svg>
