<svg xmlns="http://www.w3.org/2000/svg" width="32" height="32" fill="currentColor" viewBox="0 0 32 32">
  <path fill-rule="evenodd" d="M2 6a3 3 0 0 1 3-3h22a3 3 0 0 1 3 3v7a1 1 0 1 1-2 0V6a1 1 0 0 0-1-1H5a1 1 0 0 0-1 1v18a1 1 0 0 0 1 1h8a1 1 0 1 1 0 2H5a3 3 0 0 1-3-3V6Zm21 10a7 7 0 0 0-7 7 7 7 0 1 0 14 0 7 7 0 0 0-7-7Zm-5 7a5 5 0 0 1 5-5 5 5 0 1 1 0 10 5 5 0 0 1-5-5Zm7.819-1.426a1 1 0 1 0-1.638-1.148L22.2 23.254l-.379-.543a1 1 0 1 0-1.64 1.144l1.196 1.717a1 1 0 0 0 1.64.002l2.803-4ZM7 8a1 1 0 0 0 0 2h10a1 1 0 1 0 0-2H7Zm-1 5a1 1 0 0 1 1-1h8a1 1 0 1 1 0 2H7a1 1 0 0 1-1-1Zm1 3a1 1 0 1 0 0 2h4.5a1 1 0 1 0 0-2H7Z" clip-rule="evenodd"/>
</svg>
