<svg xmlns="http://www.w3.org/2000/svg" width="33" height="32" fill="currentColor" viewBox="0 0 33 32">
  <path d="M3.148 3a1 1 0 0 1 1 1v9.661l6.957-4.5.083-.049a1 1 0 0 1 1.246.27l4.71 5.994 6.215-7.99.073-.084a1.001 1.001 0 0 1 1.475.048l3 3.5.063.08a1 1 0 0 1-1.51 1.295l-.07-.075-2.205-2.57-6.248 8.034a1 1 0 0 1-1.575.004l-4.938-6.283-7.276 4.709v6.316l4.236-5.005.064-.069a1 1 0 0 1 1.23-.134l7.377 4.61 6.443-5.52.07-.057c.367-.261.87-.246 1.22.046l3 2.5.076.07a1.001 1.001 0 0 1-1.275 1.53l-.082-.062-2.351-1.96-6.358 5.45a1 1 0 0 1-1.18.089l-7.266-4.541-4.94 5.838a.998.998 0 0 1-.264.22V27h24a1 1 0 1 1 0 2h-25a1 1 0 0 1-1-1V4a1 1 0 0 1 1-1Z"/>
</svg>
