<svg xmlns="http://www.w3.org/2000/svg" width="32" height="32" fill="currentColor" viewBox="0 0 32 32">
  <path d="M3 3a1 1 0 0 1 1 1v23h24a1 1 0 1 1 0 2H3a1 1 0 0 1-1-1V4a1 1 0 0 1 1-1Zm6 17a3 3 0 1 1 0 6 3 3 0 0 1 0-6Zm13-1a3 3 0 1 1 0 6 3 3 0 0 1 0-6ZM9 22a1 1 0 1 0 0 2 1 1 0 0 0 0-2Zm13-1a1 1 0 1 0 0 2 1 1 0 0 0 0-2Zm-4-9a3 3 0 1 1 0 6 3 3 0 0 1 0-6Zm-9-2a3 3 0 1 1 0 6 3 3 0 0 1 0-6Zm9 4a1 1 0 1 0 0 2 1 1 0 0 0 0-2Zm-9-2a1 1 0 1 0 0 2 1 1 0 0 0 0-2Zm16-7a3 3 0 1 1 0 6 3 3 0 0 1 0-6Zm0 2a1 1 0 1 0 0 2 1 1 0 0 0 0-2Z"/>
</svg>
