<svg xmlns="http://www.w3.org/2000/svg" width="33" height="32" fill="currentColor" viewBox="0 0 33 32">
  <path d="M9.666 4a1 1 0 1 1 0 2h-1v3h2a1 1 0 0 1 1 1v12a1 1 0 0 1-1 1h-2v3h1a1 1 0 1 1 0 2h-4a1 1 0 1 1 0-2h1v-3h-2a1 1 0 0 1-1-1V10a1 1 0 0 1 1-1h2V6h-1a1 1 0 0 1 0-2h4Zm9 0a1 1 0 1 1 0 2h-1v3h2a1 1 0 0 1 1 1v9a1 1 0 0 1-1 1h-2v6h1a1 1 0 1 1 0 2h-4a1 1 0 1 1 0-2h1v-6h-2a1 1 0 0 1-1-1v-9a1 1 0 0 1 1-1h2V6h-1a1 1 0 1 1 0-2h4Zm9 0a1 1 0 1 1 0 2h-1v1h2a1 1 0 0 1 1 1v16a1 1 0 0 1-1 1h-2v1h1a1 1 0 1 1 0 2h-4a1 1 0 1 1 0-2h1v-1h-2a1 1 0 0 1-1-1V8a1 1 0 0 1 1-1h2V6h-1a1 1 0 1 1 0-2h4Zm-4 19h4V9h-4v14Zm-18-2h4V11h-4v10Zm9-3h4v-7h-4v7Z"/>
</svg>
