<svg xmlns="http://www.w3.org/2000/svg" width="33" height="32" fill="currentColor" viewBox="0 0 33 32">
  <path d="M16.11 2c7.733 0 14 6.268 14 14s-6.267 14-14 14c-7.731 0-13.999-6.268-14-14 0-2.668.747-5.162 2.042-7.284a1.002 1.002 0 0 1 .299-.468A13.987 13.987 0 0 1 16.11 2ZM8.365 25.16a11.942 11.942 0 0 0 6.747 2.797v-4.022a7.955 7.955 0 0 1-3.905-1.617L8.364 25.16ZM22.43 11.095A7.965 7.965 0 0 1 24.111 16a7.994 7.994 0 0 1-7 7.935v4.022c6.16-.508 11-5.666 11-11.957a11.95 11.95 0 0 0-2.839-7.748l-2.843 2.843Zm-16.931-.697A11.947 11.947 0 0 0 4.11 16c0 2.953 1.07 5.655 2.839 7.746l2.841-2.842A7.965 7.965 0 0 1 8.111 16c0-1.271.296-2.473.823-3.54l-3.436-2.062ZM16.11 10c-3.317 0-6 2.683-6 6s2.683 6 6 6c3.316 0 6-2.683 6-6s-2.684-6-6-6Zm0-6c-3.887 0-7.34 1.849-9.533 4.714l3.462 2.077A7.978 7.978 0 0 1 16.11 8c1.85 0 3.552.627 4.906 1.68l2.84-2.841A11.948 11.948 0 0 0 16.112 4Z"/>
</svg>
