<svg xmlns="http://www.w3.org/2000/svg" width="33" height="32" fill="currentColor" viewBox="0 0 33 32">
  <path d="M3.259 3a1 1 0 0 1 1 1v23h24a1 1 0 1 1 0 2h-25a1 1 0 0 1-1-1V4a1 1 0 0 1 1-1Zm23 6.5a3 3 0 1 1-1.217 5.74l-3.073 2.98c.184.388.29.821.29 1.28a3 3 0 1 1-5.864-.898l-2.179-1.832a2.986 2.986 0 0 1-3.179.468l-4.004 4.895a1 1 0 0 1-1.548-1.266l4.1-5.013A2.983 2.983 0 0 1 9.26 14.5a3 3 0 1 1 5.958.499l2.38 2.003a2.985 2.985 0 0 1 2.963-.202l3.03-2.937a2.98 2.98 0 0 1-.331-1.363 3 3 0 0 1 3-3Zm-7 9a1 1 0 1 0 0 2 1 1 0 0 0 0-2Zm-7-5a1 1 0 1 0 0 2 1 1 0 0 0 0-2Zm14-2a1 1 0 1 0 0 2 1 1 0 0 0 0-2Z"/>
</svg>
