<svg xmlns="http://www.w3.org/2000/svg" width="33" height="32" fill="currentColor" viewBox="0 0 33 32">
  <path d="M16.407 9c7.653 0 14 5.742 14 13a1 1 0 0 1-1 1h-6.259a1 1 0 0 1-1-1c0-1.473-.683-2.834-1.8-3.798l-3.11 4.355v.002l-.017.022-.015.017a1.044 1.044 0 0 1-.039.05l-.031.034a.974.974 0 0 1-.077.074l-.028.023a.984.984 0 0 1-.17.11l-.026.013a.98.98 0 0 1-.161.06l-.029.008a.953.953 0 0 1-.058.012 1.021 1.021 0 0 1-.105.014l-.027.001-.048.003-.01-.001c-.02 0-.038-.002-.056-.003l-.053-.004c-.008 0-.017-.003-.025-.004a1.096 1.096 0 0 1-.069-.011l-.04-.011c-.018-.005-.035-.008-.052-.014l-.033-.012a.995.995 0 0 1-.238-.124l-.005-.002-.017-.015-.05-.04-.034-.03a1.053 1.053 0 0 1-.075-.078l-.023-.027a.916.916 0 0 1-.11-.17l-.013-.026a.998.998 0 0 1-.06-.161l-.008-.029a1.034 1.034 0 0 1-.012-.058l-.006-.037a1.001 1.001 0 0 1-.01-.143v-.027l.002-.04a.993.993 0 0 1 .02-.146c.003-.017.009-.033.013-.05a.993.993 0 0 1 .114-.261.569.569 0 0 1 .033-.052l.004-.005 3.028-4.241a6.226 6.226 0 0 0-2.215-.4c-3.248 0-5.741 2.409-5.741 5.222a1 1 0 0 1-1 1H3.407a1 1 0 0 1-1-1c0-7.258 6.347-13 14-13ZM5.578 17.269A10.23 10.23 0 0 0 4.458 21h4.283c.08-.549.227-1.076.43-1.575l-3.593-2.156Zm18.065 2.156c.203.499.35 1.026.43 1.575h4.283a10.25 10.25 0 0 0-1.12-3.731l-3.593 2.156Zm-8.236-8.385c-3.626.273-6.76 2.013-8.744 4.547l3.52 2.112c1.232-1.547 3.109-2.605 5.224-2.861V11.04Zm2 3.798a8.131 8.131 0 0 1 2.404.676l.783-1.095a1 1 0 1 1 1.627 1.162l-.708.99a7.49 7.49 0 0 1 1.117 1.128l3.52-2.112c-1.984-2.534-5.117-4.274-8.743-4.547v3.798Z"/>
</svg>
