<svg xmlns="http://www.w3.org/2000/svg" width="33" height="32" fill="currentColor" viewBox="0 0 33 32">
  <path d="M12.704 2a3 3 0 0 1 3 3v22a3 3 0 0 1-3 3h-7a3 3 0 0 1-3-3V5a3 3 0 0 1 3-3h7Zm15 15a3 3 0 0 1 3 3v7a3 3 0 0 1-3 3h-7a3 3 0 0 1-3-3v-7a3 3 0 0 1 3-3h7Zm-22-13a1 1 0 0 0-1 1v22a1 1 0 0 0 1 1h7a1 1 0 0 0 1-1V5a1 1 0 0 0-1-1h-7Zm14 23a1 1 0 0 0 1 1h7a1 1 0 0 0 1-1v-1h-9v1Zm1-8a1 1 0 0 0-1 1v4h9v-4a1 1 0 0 0-1-1h-7Zm7-17a3 3 0 0 1 3 3v7a3 3 0 0 1-3 3h-7a3 3 0 0 1-3-3V5a3 3 0 0 1 3-3h7Zm-3 11h3a1 1 0 0 0 1-1V5a1 1 0 0 0-1-1h-3v9Zm-4-9a1 1 0 0 0-1 1v7a1 1 0 0 0 1 1h2V4h-2Z"/>
</svg>
