<svg xmlns="http://www.w3.org/2000/svg" width="33" height="32" fill="currentColor" viewBox="0 0 33 32">
  <path d="M15.786 21.441c1.354-.502 2.729-.534 3.996-.303 2.28.417 4.302 1.703 5.492 2.862h1.578v-1a1 1 0 0 1 2 0v4a1 1 0 0 1-2 0v-1h-1.58c-1.19 1.158-3.211 2.444-5.49 2.861-1.267.232-2.642.2-3.996-.303-1.233-.456-2.396-1.284-3.424-2.558h-5.51v1a1 1 0 0 1-2 0v-4a1 1 0 0 1 2 0v1h5.509c1.028-1.275 2.192-2.102 3.425-2.559Zm1.566 1.642a5.018 5.018 0 0 0-.871.233c-.788.292-1.589.815-2.35 1.684.761.868 1.562 1.392 2.35 1.683.287.106.578.18.87.232v-3.832Zm2 3.822.07-.01c1.555-.285 2.994-1.097 3.97-1.895-.976-.799-2.415-1.61-3.97-1.895l-.07-.012v3.812ZM11.786 12.44c1.354-.502 2.729-.534 3.996-.303 2.28.417 4.302 1.703 5.492 2.862h5.578v-1a1 1 0 0 1 2 0v4a1 1 0 0 1-2 0v-1h-5.58c-1.19 1.158-3.211 2.444-5.49 2.861-1.267.232-2.642.2-3.996-.303-1.233-.456-2.396-1.284-3.424-2.558h-1.51v1a1 1 0 0 1-2 0v-4a1 1 0 0 1 2 0v1H8.36c1.028-1.275 2.192-2.102 3.425-2.559Zm1.566 1.642a5.018 5.018 0 0 0-.871.233c-.788.292-1.588.815-2.35 1.684.761.868 1.562 1.392 2.35 1.683.287.106.578.18.87.232v-3.832Zm2 3.822.07-.01c1.555-.285 2.994-1.097 3.97-1.895-.976-.799-2.415-1.61-3.97-1.895l-.07-.012v3.812Zm.434-14.464c1.354-.502 2.729-.534 3.996-.303 2.28.417 4.302 1.703 5.492 2.862h1.578V5a1 1 0 1 1 2 0v4a1 1 0 0 1-2 0V8h-1.58c-1.19 1.158-3.211 2.444-5.49 2.861-1.267.231-2.642.2-3.996-.303-1.233-.456-2.396-1.284-3.424-2.558h-5.51v1a1 1 0 0 1-2 0V5a1 1 0 1 1 2 0v1h5.509c1.028-1.275 2.192-2.102 3.425-2.559Zm1.566 1.642a5.017 5.017 0 0 0-.871.233c-.788.292-1.589.815-2.35 1.684.761.868 1.562 1.392 2.35 1.683.287.106.578.18.87.232V5.083Zm2 3.822.07-.01c1.555-.285 2.994-1.097 3.97-1.895-.976-.799-2.415-1.61-3.97-1.895l-.07-.012v3.812Z"/>
</svg>
