<svg xmlns="http://www.w3.org/2000/svg" width="33" height="32" fill="currentColor" viewBox="0 0 33 32">
  <path d="M24.592 21a1 1 0 0 1 1 1v2h1v-1a1 1 0 1 1 2 0v4a1 1 0 0 1-2 0v-1h-1v2a1 1 0 0 1-1 1h-16a1 1 0 0 1-1-1v-2h-1v1a1 1 0 0 1-2 0v-4a1 1 0 1 1 2 0v1h1v-2a1 1 0 0 1 1-1h16Zm-15 6h14v-4h-14v4Zm13-15a1 1 0 0 1 1 1v2h3v-1a1 1 0 1 1 2 0v4a1 1 0 0 1-2 0v-1h-3v2a1 1 0 0 1-1 1h-9a1 1 0 0 1-1-1v-2h-6v1a1 1 0 0 1-2 0v-4a1 1 0 1 1 2 0v1h6v-2a1 1 0 0 1 1-1h9Zm-8 6h7v-4h-7v4Zm8-15a1 1 0 0 1 1 1v2h3V5a1 1 0 1 1 2 0v4a1 1 0 0 1-2 0V8h-3v2a1 1 0 0 1-1 1h-12a1 1 0 0 1-1-1V8h-3v1a1 1 0 0 1-2 0V5a1 1 0 1 1 2 0v1h3V4a1 1 0 0 1 1-1h12Zm-11 6h10V5h-10v4Z"/>
</svg>
