<svg xmlns="http://www.w3.org/2000/svg" width="32" height="32" fill="currentColor" viewBox="0 0 32 32">
  <path d="M3 3a1 1 0 0 1 1 1v23h24a1 1 0 1 1 0 2H3a1 1 0 0 1-1-1V4a1 1 0 0 1 1-1Zm8.5 12a5.5 5.5 0 1 1 0 11 5.5 5.5 0 0 1 0-11ZM22 19a3 3 0 1 1 0 6 3 3 0 0 1 0-6Zm-10.5-2a3.5 3.5 0 1 0 0 7 3.5 3.5 0 0 0 0-7ZM22 21a1 1 0 1 0 0 2 1 1 0 0 0 0-2Zm-.5-18a6.5 6.5 0 1 1 0 13 6.5 6.5 0 0 1 0-13Zm0 2a4.5 4.5 0 1 0 0 9 4.5 4.5 0 0 0 0-9ZM9 7a3 3 0 1 1 0 6 3 3 0 0 1 0-6Zm0 2a1 1 0 1 0 0 2 1 1 0 0 0 0-2Z"/>
</svg>
