<svg xmlns="http://www.w3.org/2000/svg" width="33" height="32" fill="currentColor" viewBox="0 0 33 32">
  <path d="M3.963 3a1 1 0 0 1 1 1v23h24a1 1 0 1 1 0 2h-25a1 1 0 0 1-1-1V4a1 1 0 0 1 1-1ZM28.02 6.002A1 1 0 0 1 29.08 7v3.333a1 1 0 0 1-2 0v-.66c-1.253 1.916-2.422 4.731-2.617 8.38-.098 1.822-.472 3.296-1.054 4.316-.56.98-1.519 1.834-2.755 1.563-1.114-.245-1.865-1.314-2.326-2.565-.486-1.32-.777-3.157-.777-5.514 0-1.844-.377-3.014-.815-3.653-.414-.603-.832-.693-1.156-.628-.397.08-.982.463-1.492 1.427-.501.945-.874 2.361-.874 4.254 0 4.264-1.403 6.55-3.048 7.713a5.685 5.685 0 0 1-2.19.937 5.195 5.195 0 0 1-.963.097l-.07-.002h-.037l-.002-.002.06-.998-.06.998A1 1 0 1 1 7.022 24h.008c.02 0 .057 0 .108-.003a3.16 3.16 0 0 0 .453-.057 3.685 3.685 0 0 0 1.419-.607c.98-.693 2.202-2.28 2.202-6.08 0-2.14.42-3.894 1.106-5.19.677-1.278 1.676-2.21 2.863-2.45 1.26-.256 2.427.327 3.202 1.456.75 1.094 1.165 2.715 1.166 4.784 0 2.216.277 3.8.654 4.823.402 1.09.81 1.286.878 1.302.004 0 .035.014.125-.043.107-.07.277-.23.464-.556.373-.655.705-1.79.793-3.433.226-4.237 1.645-7.513 3.177-9.721l-1.169.106a1 1 0 0 1-.18-1.992l3.444-.313c.093-.021.19-.03.284-.024Z"/>
</svg>
