<svg xmlns="http://www.w3.org/2000/svg" width="32" height="32" fill="currentColor" viewBox="0 0 32 32">
  <path d="M9 4a1 1 0 0 1 0 2H8v1.58c1.158 1.19 2.444 3.21 2.861 5.49.231 1.267.2 2.641-.303 3.996C10.102 18.3 9.274 19.462 8 20.49V26h1a1 1 0 0 1 0 2H5a1 1 0 1 1 0-2h1v-5.509c-1.275-1.028-2.102-2.191-2.56-3.425-.502-1.355-.534-2.729-.303-3.996C3.555 10.79 4.841 8.768 6 7.578V6H5a1 1 0 0 1 0-2h4Zm9 0a1 1 0 0 1 0 2h-1v5.58c1.158 1.19 2.444 3.21 2.861 5.49.232 1.267.2 2.641-.303 3.996-.456 1.233-1.284 2.396-2.558 3.424V26h1a1 1 0 0 1 0 2h-4a1 1 0 0 1 0-2h1v-1.509c-1.275-1.028-2.102-2.192-2.559-3.425-.502-1.355-.534-2.729-.303-3.996.417-2.28 1.703-4.302 2.862-5.492V6h-1a1 1 0 0 1 0-2h4Zm9 0a1 1 0 0 1 0 2h-1v1.58c1.158 1.19 2.444 3.21 2.861 5.49.232 1.267.2 2.641-.303 3.996-.456 1.233-1.284 2.396-2.558 3.424V26h1a1 1 0 0 1 0 2h-4a1 1 0 0 1 0-2h1v-5.509c-1.275-1.028-2.102-2.192-2.559-3.425-.502-1.355-.534-2.729-.303-3.996.417-2.28 1.703-4.302 2.862-5.492V6h-1a1 1 0 0 1 0-2h4ZM14.084 19.5c.051.293.126.584.232.871.292.788.815 1.588 1.684 2.35.868-.762 1.392-1.563 1.683-2.35a5.01 5.01 0 0 0 .232-.871h-3.831Zm-9-4c.051.293.126.584.232.871.292.788.815 1.588 1.684 2.35.868-.762 1.392-1.563 1.683-2.35a5.05 5.05 0 0 0 .232-.871H5.084Zm18 0c.051.293.126.584.232.871.292.788.815 1.588 1.684 2.35.868-.762 1.392-1.563 1.683-2.35a5.01 5.01 0 0 0 .232-.871h-3.831ZM16 13.46c-.799.976-1.61 2.415-1.895 3.97l-.01.07h3.81l-.01-.07c-.285-1.555-1.097-2.994-1.895-3.97Zm-9-4c-.799.976-1.61 2.415-1.895 3.97l-.01.07h3.81l-.01-.07C8.61 11.875 7.797 10.436 7 9.46Zm18 0c-.799.976-1.61 2.415-1.895 3.97l-.01.07h3.81l-.01-.07c-.285-1.555-1.097-2.994-1.895-3.97Z"/>
</svg>
