<svg xmlns="http://www.w3.org/2000/svg" width="32" height="32" fill="currentColor" viewBox="0 0 32 32">
  <path d="M9.256 13h-.512c-.412 0-.744.31-.744.69v.62c0 .38.332.69.744.69h.512c.412 0 .744-.31.744-.69v-.62c0-.38-.332-.69-.744-.69Zm7 0h-.512c-.412 0-.744.31-.744.69v.62c0 .38.332.69.744.69h.512c.412 0 .744-.31.744-.69v-.62c0-.38-.332-.69-.744-.69Zm7 0h-.512c-.412 0-.744.31-.744.69v.62c0 .38.332.69.744.69h.512c.412 0 .744-.31.744-.69v-.62c0-.38-.332-.69-.744-.69Z"/>
  <path fill-rule="evenodd" d="M2 8.502C2 5.962 4.166 4 6.714 4h18.572C27.834 4 30 5.962 30 8.502v11.38c0 1.234-.471 2.297-1.324 3.038-.838.73-1.963 1.08-3.176 1.08H15.322l-5.127 3.681a1.075 1.075 0 0 1-.047.032c-.69.438-1.487.31-2.019.043C7.607 27.493 7 26.915 7 26.06V24h-.5c-1.211 0-2.336-.348-3.174-1.074C2.472 22.186 2 21.125 2 19.89V8.502ZM6.714 6C5.158 6 4 7.175 4 8.502V19.89c0 .699.252 1.193.635 1.524C5.034 21.76 5.66 22 6.5 22H8a1 1 0 0 1 1 1v2.953a.31.31 0 0 0 .11.045l5.307-3.81A1 1 0 0 1 15 22h10.5c.84 0 1.464-.241 1.863-.589.384-.334.637-.83.637-1.53V8.502C28 7.175 26.841 6 25.286 6H6.714Z" clip-rule="evenodd"/>
</svg>
