<svg xmlns="http://www.w3.org/2000/svg" width="32" height="32" fill="currentColor" viewBox="0 0 32 32">
  <path fill-rule="evenodd" d="M8.857 4C6.545 4 5 6.216 5 8.502V10a3 3 0 0 0-3 3v2a3 3 0 0 0 3 3v1.89c0 2.287 1.381 4.299 3.692 4.299h.154v1.871c0 .723.404 1.316.898 1.64.487.319 1.301.499 1.978-.06a.857.857 0 0 0 .028-.024l3.86-3.427h7.698c2.314 0 3.692-2.025 3.692-4.308V18a3 3 0 0 0 3-3v-2a3 3 0 0 0-3-3V8.502C27 6.216 25.455 4 23.143 4H8.857ZM27 12v4a1 1 0 0 0 1-1v-2a1 1 0 0 0-1-1ZM5 16v-4a1 1 0 0 0-1 1v2a1 1 0 0 0 1 1Zm2-7.498C7 6.92 8.012 6 8.857 6h14.286C23.988 6 25 6.92 25 8.502v11.38c0 1.584-.85 2.306-1.692 2.306H15.23a1 1 0 0 0-.664.253l-3.72 3.303V23.19a1 1 0 0 0-1-1H8.691c-.846 0-1.692-.718-1.692-2.3V8.503ZM12 13a2 2 0 1 0 0-4 2 2 0 0 0 0 4Zm.743 2.331C13.794 16.499 14.94 17 16 17s2.206-.501 3.257-1.669a1 1 0 1 1 1.486 1.338C19.394 18.168 17.74 19 16 19c-1.739 0-3.394-.832-4.743-2.331a1 1 0 0 1 1.486-1.338ZM22 11a2 2 0 1 1-4 0 2 2 0 0 1 4 0Z" clip-rule="evenodd"/>
</svg>
