<svg xmlns="http://www.w3.org/2000/svg" width="32" height="32" fill="currentColor" viewBox="0 0 32 32">
  <path fill-rule="evenodd" d="M6.714 4C4.166 4 2 5.962 2 8.502V19.89c0 1.235.472 2.296 1.326 3.036C4.164 23.652 5.289 24 6.5 24H7v2.06c0 .855.607 1.433 1.13 1.696.53.268 1.327.395 2.018-.043l.047-.032L15.322 24H25.5c1.213 0 2.338-.35 3.176-1.08.853-.741 1.324-1.804 1.324-3.039V8.502C30 5.962 27.834 4 25.286 4H6.714ZM4 8.502C4 7.175 5.158 6 6.714 6h18.572C26.84 6 28 7.175 28 8.502v11.38c0 .698-.253 1.195-.637 1.53-.399.347-1.024.588-1.863.588H15a1 1 0 0 0-.583.188l-5.307 3.81a.252.252 0 0 1-.08-.028.31.31 0 0 1-.03-.017V23a1 1 0 0 0-1-1H6.5c-.841 0-1.466-.24-1.865-.586C4.252 21.083 4 20.59 4 19.89V8.502ZM8.744 13h.512c.412 0 .744.31.744.69v.62c0 .38-.332.69-.744.69h-.512C8.332 15 8 14.69 8 14.31v-.62c0-.38.332-.69.744-.69Zm7 0h.512c.412 0 .744.31.744.69v.62c0 .38-.332.69-.744.69h-.512c-.412 0-.744-.31-.744-.69v-.62c0-.38.332-.69.744-.69Zm7.512 0h-.512c-.412 0-.744.31-.744.69v.62c0 .38.332.69.744.69h.512c.412 0 .744-.31.744-.69v-.62c0-.38-.332-.69-.744-.69Z" clip-rule="evenodd"/>
</svg>
