<svg xmlns="http://www.w3.org/2000/svg" width="32" height="32" fill="currentColor" viewBox="0 0 32 32">
  <path fill-rule="evenodd" d="M14.173 2.118a14.123 14.123 0 0 1 3.654 0 1 1 0 1 1-.258 1.983 12.123 12.123 0 0 0-3.138 0 1 1 0 0 1-.258-1.983Zm-2.226 1.485a1 1 0 0 1-.54 1.307 11.97 11.97 0 0 0-2.712 1.569 1 1 0 0 1-1.219-1.586 13.986 13.986 0 0 1 3.165-1.83 1 1 0 0 1 1.306.54Zm8.105 0a1 1 0 0 1 1.307-.54 13.985 13.985 0 0 1 3.164 1.83 1 1 0 0 1-1.218 1.586 11.988 11.988 0 0 0-2.712-1.569 1 1 0 0 1-.54-1.307ZM6.295 7.293a1 1 0 0 1 .184 1.402 11.987 11.987 0 0 0-1.569 2.712 1 1 0 0 1-1.847-.766 13.986 13.986 0 0 1 1.83-3.165 1 1 0 0 1 1.402-.183Zm19.41 0a1 1 0 0 1 1.402.183 14 14 0 0 1 1.83 3.165 1 1 0 0 1-1.847.766 11.985 11.985 0 0 0-1.569-2.712 1 1 0 0 1 .184-1.402ZM3.239 13.31a1 1 0 0 1 .862 1.121 12.123 12.123 0 0 0 0 3.138 1 1 0 0 1-1.983.258 14.123 14.123 0 0 1 0-3.654 1 1 0 0 1 1.121-.863Zm25.522 0a1 1 0 0 1 1.12.863 14.118 14.118 0 0 1 0 3.654 1 1 0 1 1-1.983-.258 12.125 12.125 0 0 0 0-3.138 1 1 0 0 1 .863-1.12ZM3.603 20.052a1 1 0 0 1 1.307.541 11.97 11.97 0 0 0 1.569 2.712 1 1 0 1 1-1.586 1.218 13.985 13.985 0 0 1-1.83-3.164 1 1 0 0 1 .54-1.307Zm24.794 0a1 1 0 0 1 .54 1.307 13.984 13.984 0 0 1-1.83 3.164 1 1 0 0 1-1.586-1.218 11.986 11.986 0 0 0 1.569-2.712 1 1 0 0 1 1.307-.54ZM7.293 25.705a1 1 0 0 1 1.402-.184 11.985 11.985 0 0 0 2.712 1.569 1 1 0 0 1-.766 1.847 13.985 13.985 0 0 1-3.165-1.83 1 1 0 0 1-.183-1.402Zm17.414 0a1 1 0 0 1-.184 1.402 13.984 13.984 0 0 1-3.164 1.83 1 1 0 0 1-.766-1.847 11.986 11.986 0 0 0 2.712-1.569 1 1 0 0 1 1.402.184ZM13.31 28.76a1 1 0 0 1 1.121-.863 12.125 12.125 0 0 0 3.138 0 1 1 0 0 1 .258 1.984 14.118 14.118 0 0 1-3.654 0 1 1 0 0 1-.863-1.121Z" clip-rule="evenodd"/>
</svg>
