<svg xmlns="http://www.w3.org/2000/svg" width="32" height="32" fill="currentColor" viewBox="0 0 32 32">
  <mask id="a">
    <path fill-rule="evenodd" d="M16 4C9.373 4 4 9.373 4 16s5.373 12 12 12 12-5.373 12-12S22.627 4 16 4ZM2 16C2 8.268 8.268 2 16 2s14 6.268 14 14-6.268 14-14 14S2 23.732 2 16Z" clip-rule="evenodd"/>
    <path d="M25 16a9 9 0 1 1-18 0 9 9 0 0 1 18 0Z"/>
  </mask>
  <path fill-rule="evenodd" d="M16 4C9.373 4 4 9.373 4 16s5.373 12 12 12 12-5.373 12-12S22.627 4 16 4ZM2 16C2 8.268 8.268 2 16 2s14 6.268 14 14-6.268 14-14 14S2 23.732 2 16Z" clip-rule="evenodd"/>
  <path d="M25 16a9 9 0 1 1-18 0 9 9 0 0 1 18 0Z"/>
  <path d="M5 16C5 9.925 9.925 5 16 5V3C8.82 3 3 8.82 3 16h2Zm11 11C9.925 27 5 22.075 5 16H3c0 7.18 5.82 13 13 13v-2Zm11-11c0 6.075-4.925 11-11 11v2c7.18 0 13-5.82 13-13h-2ZM16 5c6.075 0 11 4.925 11 11h2c0-7.18-5.82-13-13-13v2Zm0-4C7.716 1 1 7.716 1 16h2C3 8.82 8.82 3 16 3V1Zm15 15c0-8.284-6.716-15-15-15v2c7.18 0 13 5.82 13 13h2ZM16 31c8.284 0 15-6.716 15-15h-2c0 7.18-5.82 13-13 13v2ZM1 16c0 8.284 6.716 15 15 15v-2C8.82 29 3 23.18 3 16H1Zm23 0a8 8 0 0 1-8 8v2c5.523 0 10-4.477 10-10h-2Zm-8 8a8 8 0 0 1-8-8H6c0 5.523 4.477 10 10 10v-2Zm-8-8a8 8 0 0 1 8-8V6C10.477 6 6 10.477 6 16h2Zm8-8a8 8 0 0 1 8 8h2c0-5.523-4.477-10-10-10v2Z" mask="url(#a)"/>
</svg>
