<svg xmlns="http://www.w3.org/2000/svg" width="32" height="32" fill="currentColor" viewBox="0 0 32 32">
  <path fill-rule="evenodd" d="M16 4C9.373 4 4 9.373 4 16s5.373 12 12 12 12-5.373 12-12S22.627 4 16 4ZM2 16C2 8.268 8.268 2 16 2s14 6.268 14 14-6.268 14-14 14S2 23.732 2 16Z" clip-rule="evenodd"/>
  <path fill-rule="evenodd" d="M10.293 10.293a1 1 0 0 1 1.414 0l10 10a1 1 0 0 1-1.414 1.414l-10-10a1 1 0 0 1 0-1.414Z" clip-rule="evenodd"/>
  <path fill-rule="evenodd" d="M21.707 10.293a1 1 0 0 1 0 1.414l-10 10a1 1 0 0 1-1.414-1.414l10-10a1 1 0 0 1 1.414 0Z" clip-rule="evenodd"/>
</svg>
