<svg xmlns="http://www.w3.org/2000/svg" width="32" height="32" fill="currentColor" viewBox="0 0 32 32">
  <path fill-rule="evenodd" d="M16 14.974a1 1 0 0 1 1 1v12a1 1 0 0 1-2 0v-12a1 1 0 0 1 1-1Z" clip-rule="evenodd"/>
  <path fill-rule="evenodd" d="M11.293 23.293a1 1 0 0 1 1.414 0L16 26.586l3.293-3.293a1 1 0 0 1 1.414 1.414l-4 4a1 1 0 0 1-1.414 0l-4-4a1 1 0 0 1 0-1.414Zm9.291-13.287c.825-.603 1.902-1.032 3.31-1.032 1.654 0 3.183.823 4.277 2.008C29.268 12.172 30 13.8 30 15.54c0 1.94-.432 3.775-1.42 5.155-1.017 1.422-2.571 2.279-4.58 2.279a1 1 0 0 1 0-2c1.37 0 2.316-.552 2.954-1.443C27.62 18.6 28 17.218 28 15.54c0-1.183-.503-2.338-1.299-3.201-.8-.867-1.824-1.365-2.806-1.365-.968 0-1.636.284-2.13.646a1 1 0 0 1-1.18-1.614ZM8.708 11.177l.693.129a1 1 0 0 1-.364 1.966l-.72-.133a1.061 1.061 0 0 1-.052-.011c-.783-.19-1.306-.132-1.782.06m2.225-2.01c-1.117-.267-2.063-.211-2.971.154C3.461 12.248 2 14.468 2 16.832c0 3.325 2.623 6.142 6.003 6.142a1 1 0 0 0 0-2C5.795 20.974 4 19.12 4 16.832c0-1.552.97-3.035 2.482-3.644" clip-rule="evenodd"/>
  <path fill-rule="evenodd" d="M16 5c-3.658 0-6.635 2.99-6.635 6.698V12a1 1 0 1 1-2 0v-.302C7.365 6.901 11.222 3 16 3c3.99 0 7.339 2.722 8.33 6.404a1 1 0 1 1-1.93.52C21.633 7.085 19.054 5 16 5Z" clip-rule="evenodd"/>
</svg>
