<svg xmlns="http://www.w3.org/2000/svg" width="32" height="32" fill="currentColor" viewBox="0 0 32 32">
  <path d="M15.962 14.003c.012 0 .023.002.035.003.022.002.044.007.067.01l.028.005c.06.013.12.032.178.056l.008.004 6.983 2.992.053.025.03.013.026.015.026.016a1.1 1.1 0 0 1 .038.023l.01.006.011.008.03.023.02.014.03.023.024.024.026.024.007.006.014.014.015.018a.993.993 0 0 1 .102.131l.01.016a.99.99 0 0 1 .131.332l.005.029a1 1 0 0 1 .016.167v8a1.005 1.005 0 0 1-.202.6l-.022.028a1.005 1.005 0 0 1-.065.073l-.02.02a.999.999 0 0 1-.315.205l-6.98 2.991a1.061 1.061 0 0 1-.091.034l-.006.002a.754.754 0 0 1-.087.023l-.005.002a.672.672 0 0 1-.02.003c-.006.002-.012.001-.018.002l-.054.01a.993.993 0 0 1-.098.006h-.016l-.001.001-.006-.001a.969.969 0 0 1-.071-.003h-.02l-.025-.005a.83.83 0 0 1-.016-.002c-.014-.002-.027-.003-.04-.006a.052.052 0 0 1-.018-.003l-.023-.005a.986.986 0 0 1-.06-.016l-.004-.001a.887.887 0 0 1-.054-.018l-.025-.008-.066-.03c-.006-.003-.013-.004-.02-.008l-6-3-.015-.008a1.021 1.021 0 0 1-.053-.03l-.026-.017a.99.99 0 0 1-.396-.494l-.014-.038-.003-.01-.02-.073c0-.005-.002-.009-.003-.013l-.007-.036a1.003 1.003 0 0 1-.01-.063l-.002-.033a.995.995 0 0 1-.003-.046v-8.066l.002-.027.002-.024a.99.99 0 0 1 .004-.039l.003-.024a.999.999 0 0 1 .03-.136l.007-.026.012-.033.007-.021a.99.99 0 0 1 .028-.065l.01-.02a1.175 1.175 0 0 1 .024-.043l.01-.018a.945.945 0 0 1 .06-.09l.022-.029a.983.983 0 0 1 .041-.048l.03-.032.032-.03a.986.986 0 0 1 .048-.04l.025-.02.034-.025.027-.017.015-.01a.978.978 0 0 1 .066-.037l.014-.008 6-3a.996.996 0 0 1 .32-.096c.017-.002.033-.005.05-.006L15.86 14h.058c.015 0 .03.002.044.003Zm.923 7.655v5.825l5-2.142v-5.825l-5 2.142Zm-6 3.724 4 2v-5.764l-4-2v5.764ZM16 2c3.837 0 7.078 2.517 8.204 5.983 1.534.095 2.941.888 3.967 2C29.268 11.171 30 12.798 30 14.538c0 2.485-.715 4.844-2.43 6.237a1 1 0 0 1-1.261-1.552C27.365 18.366 28 16.722 28 14.539c0-1.182-.503-2.338-1.299-3.2-.8-.867-1.824-1.365-2.806-1.365-.968 0-1.635.285-2.13.646a1 1 0 0 1-1.181-1.614c.448-.328.97-.603 1.58-.787C21.191 5.747 18.796 4 16 4c-3.526 0-6.42 2.779-6.623 6.3l.024.006a1 1 0 0 1-.364 1.967l-.72-.134a1.052 1.052 0 0 1-.052-.012c-.783-.19-1.305-.13-1.782.06C4.971 12.797 4 14.28 4 15.832c0 1.696.994 3.165 2.41 3.802a1 1 0 0 1-.82 1.824C3.453 20.498 2 18.313 2 15.832c0-2.364 1.462-4.585 3.736-5.5l.346-.123a4.34 4.34 0 0 1 1.312-.195C7.74 5.535 11.45 2 16 2Zm-3.879 15.999 3.796 1.899 4.429-1.899-4.429-1.897-3.796 1.897Z"/>
</svg>
