<svg xmlns="http://www.w3.org/2000/svg" width="32" height="32" fill="currentColor" viewBox="0 0 32 32">
  <path fill-rule="evenodd" d="M9.014 14.26C9.238 10.757 12.122 8 15.635 8c2.845 0 5.277 1.808 6.216 4.35a5.203 5.203 0 0 0-1.267.682 1 1 0 0 0 1.181 1.614c.494-.361 1.162-.646 2.13-.646.982 0 2.006.499 2.806 1.365.796.863 1.299 2.019 1.299 3.2C28 21.782 26.034 24 23.347 24H8.003C5.795 24 4 22.147 4 19.858c0-1.552.97-3.035 2.482-3.644.477-.191 1-.25 1.783-.06a.96.96 0 0 0 .053.011l.719.133a1 1 0 0 0 .364-1.966l-.387-.072Zm-1.99-.208C7.35 9.555 11.073 6 15.634 6c3.844 0 7.09 2.525 8.211 6h.049c1.653 0 3.182.823 4.276 2.009 1.098 1.19 1.83 2.817 1.83 4.557C30 22.586 27.417 26 23.347 26H8.003C4.623 26 2 23.184 2 19.858c0-2.363 1.462-4.584 3.736-5.5a4.38 4.38 0 0 1 1.287-.306Z" clip-rule="evenodd"/>
</svg>
