<svg xmlns="http://www.w3.org/2000/svg" width="32" height="32" fill="currentColor" viewBox="0 0 32 32">
  <path d="M17.914 27.621a1 1 0 0 1 .766 1.848A6.984 6.984 0 0 1 16 30a6.984 6.984 0 0 1-2.68-.531 1 1 0 0 1 .766-1.848A4.984 4.984 0 0 0 16 28a4.98 4.98 0 0 0 1.914-.379Zm-8.383-7.3a1 1 0 0 1 1.848.765A4.984 4.984 0 0 0 11 23c0 .68.135 1.326.379 1.914a1 1 0 0 1-1.848.766A6.982 6.982 0 0 1 9 23c0-.947.188-1.853.531-2.68Zm11.631-.542a1 1 0 0 1 1.307.541A7 7 0 0 1 23 23a7 7 0 0 1-.531 2.68 1 1 0 0 1-1.848-.766A4.984 4.984 0 0 0 21 23a4.98 4.98 0 0 0-.379-1.914 1 1 0 0 1 .541-1.307ZM15.635 2c3.9 0 7.296 2.333 8.321 5.662a.995.995 0 0 1 .041.34c1.596.032 3.078.794 4.155 1.9C29.254 11.035 30 12.596 30 14.277c0 2.857-1.058 5.569-3.611 6.645a1.001 1.001 0 0 1-.778-1.844c1.49-.627 2.389-2.328 2.389-4.8 0-1.09-.489-2.168-1.28-2.981C25.926 10.48 24.896 10 23.895 10c-.981 0-1.655.274-2.15.617a1 1 0 0 1-1.14-1.643 5.286 5.286 0 0 1 1.445-.706l-.006-.018C21.312 5.873 18.78 4 15.634 4 11.849 4 9 6.681 9 9.736V10c0 .047-.004.093-.01.139l.403.071a1 1 0 0 1-.347 1.97l-.719-.126-.05-.011c-.694-.16-1.189-.136-1.627-.004l-.184.063C4.938 12.685 4 14.084 4 15.502c0 1.558.963 2.941 2.392 3.55a1 1 0 0 1-.784 1.84C3.483 19.986 2 17.906 2 15.502c0-2.293 1.494-4.407 3.753-5.269A4.515 4.515 0 0 1 7 9.951v-.215C7 5.35 10.986 2 15.635 2ZM16 16a7 7 0 0 1 2.68.531 1 1 0 0 1-.766 1.848A4.984 4.984 0 0 0 16 18a4.98 4.98 0 0 0-1.914.379 1 1 0 0 1-.766-1.848A6.984 6.984 0 0 1 16 16Z"/>
</svg>
