<svg xmlns="http://www.w3.org/2000/svg" width="32" height="32" fill="none" viewBox="0 0 32 32">
  <path fill="#3D3C3C" fill-rule="evenodd" d="M16 5c-3.527 0-6.42 2.779-6.624 6.301l.025.005a1 1 0 0 1-.364 1.966l-.72-.133a1.061 1.061 0 0 1-.052-.011c-.783-.19-1.306-.132-1.782.06l.94-.85-.94.85C4.97 13.797 4 15.28 4 16.832c0 2.29 1.795 4.142 4.003 4.142a1 1 0 1 1 0 2C4.623 22.974 2 20.157 2 16.832c0-2.364 1.462-4.584 3.736-5.5a4.366 4.366 0 0 1 1.655-.32C7.74 6.533 11.452 3 16 3c3.837 0 7.08 2.517 8.206 5.983 1.533.096 2.94.888 3.965 2C29.268 12.171 30 13.799 30 15.54c0 1.94-.432 3.775-1.42 5.155-1.017 1.422-2.571 2.279-4.58 2.279a1 1 0 0 1 0-2c1.37 0 2.316-.552 2.954-1.443C27.62 18.6 28 17.218 28 15.54c0-1.183-.503-2.338-1.299-3.201-.8-.867-1.824-1.365-2.806-1.365-.968 0-1.636.284-2.13.646a1 1 0 0 1-1.18-1.614 5.205 5.205 0 0 1 1.58-.788C21.194 6.746 18.796 5 16 5Zm4.977 12.97a23.358 23.358 0 0 1-4.314-1.798 1.374 1.374 0 0 0-1.333.001 23.143 23.143 0 0 1-4.308 1.801A1.407 1.407 0 0 0 10 19.319v5.133c0 .862.384 1.613.848 2.21.467.6 1.074 1.123 1.668 1.554 1.188.863 2.473 1.466 2.922 1.666l.016.007c.35.148.741.148 1.092 0l.018-.008c.445-.199 1.73-.802 2.918-1.665.594-.43 1.202-.953 1.67-1.554.464-.597.848-1.347.848-2.21v-5.137c0-.667-.461-1.173-1.01-1.342l-.012-.003ZM20 19.76a25.669 25.669 0 0 1-4.001-1.677A25.351 25.351 0 0 1 12 19.764v4.688c0 .256.116.582.427.982.308.397.753.793 1.264 1.164.855.621 1.792 1.098 2.309 1.341.516-.243 1.452-.72 2.307-1.341.512-.371.957-.767 1.266-1.164.311-.4.427-.727.427-.982v-4.69Z" clip-rule="evenodd"/>
</svg>
