<svg xmlns="http://www.w3.org/2000/svg" width="32" height="32" fill="currentColor" viewBox="0 0 32 32">
  <path fill-rule="evenodd" d="M16 15a1 1 0 0 1 1 1v12a1 1 0 1 1-2 0V16a1 1 0 0 1 1-1Z" clip-rule="evenodd"/>
  <path fill-rule="evenodd" d="M11.293 18.707a1 1 0 0 0 1.414 0L16 15.414l3.293 3.293a1 1 0 0 0 1.414-1.414l-4-4a1 1 0 0 0-1.414 0l-4 4a1 1 0 0 0 0 1.414Zm9.291-8.675C21.41 9.43 22.486 9 23.894 9c1.654 0 3.183.823 4.277 2.009C29.268 12.199 30 13.825 30 15.566c0 1.94-.432 3.775-1.42 5.155C27.563 22.143 26.01 23 24 23a1 1 0 1 1 0-2c1.37 0 2.316-.551 2.954-1.443.667-.932 1.046-2.313 1.046-3.991 0-1.183-.503-2.338-1.299-3.201-.8-.866-1.824-1.365-2.806-1.365-.968 0-1.636.285-2.13.646a1 1 0 1 1-1.18-1.614ZM8.708 11.203l.693.129a1 1 0 1 1-.364 1.966l-.72-.133a.96.96 0 0 1-.052-.011c-.783-.19-1.306-.131-1.782.06m2.225-2.01c-1.117-.267-2.063-.21-2.971.154C3.461 12.274 2 14.495 2 16.858 2 20.184 4.623 23 8.003 23a1 1 0 1 0 0-2C5.795 21 4 19.147 4 16.858c0-1.552.97-3.035 2.482-3.644" clip-rule="evenodd"/>
  <path fill-rule="evenodd" d="M15.635 5C11.977 5 9 7.99 9 11.698V12a1 1 0 1 1-2 0v-.302C7 6.901 10.857 3 15.635 3c3.991 0 7.339 2.722 8.33 6.404a1 1 0 0 1-1.93.52C21.27 7.085 18.69 5 15.634 5Z" clip-rule="evenodd"/>
</svg>
