<svg xmlns="http://www.w3.org/2000/svg" width="32" height="32" fill="currentColor" viewBox="0 0 32 32">
  <path fill-rule="evenodd" d="M9.376 11.301C9.58 7.779 12.474 5 16 5c2.796 0 5.193 1.746 6.166 4.218-.61.184-1.134.46-1.582.788a1 1 0 0 0 1.181 1.614c.494-.362 1.162-.646 2.13-.646.982 0 2.006.498 2.806 1.365.796.863 1.299 2.018 1.299 3.2 0 1.679-.379 3.06-1.046 3.992-.638.892-1.584 1.443-2.954 1.443a1 1 0 1 0 0 2c2.009 0 3.563-.857 4.58-2.279.988-1.38 1.42-3.216 1.42-5.155 0-1.74-.732-3.368-1.83-4.557-1.024-1.112-2.43-1.904-3.964-2C23.08 5.517 19.837 3 16 3c-4.548 0-8.261 3.534-8.609 8.011-.582 0-1.124.108-1.654.321C3.461 12.248 2 14.468 2 16.832c0 3.325 2.623 6.142 6.003 6.142a1 1 0 0 0 0-2C5.795 20.974 4 19.12 4 16.832c0-1.552.97-3.035 2.482-3.644l.941-.85-.94.85c.476-.192.999-.25 1.782-.06a.451.451 0 0 0 .053.01l.719.134a1 1 0 1 0 .364-1.966l-.025-.005ZM17 15.974a1 1 0 1 0-2 0v9.612l-2.293-2.293a1 1 0 0 0-1.414 1.414l4 4a1 1 0 0 0 1.414 0l4-4a1 1 0 0 0-1.414-1.414L17 25.586v-9.612Z" clip-rule="evenodd"/>
</svg>
