<svg xmlns="http://www.w3.org/2000/svg" width="32" height="32" fill="currentColor" viewBox="0 0 32 32">
  <path fill-rule="evenodd" d="M20.584 13.032C21.41 12.43 22.486 12 23.894 12c1.654 0 3.183.823 4.277 2.009C29.268 15.199 30 16.826 30 18.566 30 22.586 27.417 26 23.347 26H8.003C4.623 26 2 23.184 2 19.858c0-2.363 1.462-4.584 3.736-5.5.91-.365 1.855-.42 2.972-.155l.693.129a1 1 0 1 1-.364 1.966l-.72-.133a.96.96 0 0 1-.052-.011c-.784-.19-1.306-.131-1.783.06C4.97 16.823 4 18.306 4 19.86 4 22.146 5.795 24 8.003 24h15.344C26.034 24 28 21.781 28 18.566c0-1.182-.503-2.338-1.299-3.201-.8-.866-1.824-1.365-2.806-1.365-.968 0-1.636.285-2.13.646a1 1 0 1 1-1.18-1.614Z" clip-rule="evenodd"/>
  <path fill-rule="evenodd" d="M15.635 8C11.977 8 9 10.99 9 14.698V15a1 1 0 1 1-2 0v-.302C7 9.901 10.857 6 15.635 6c3.991 0 7.339 2.722 8.33 6.404a1 1 0 0 1-1.93.52C21.27 10.085 18.69 8 15.634 8Z" clip-rule="evenodd"/>
</svg>
