<svg xmlns="http://www.w3.org/2000/svg" width="32" height="32" fill="currentColor" viewBox="0 0 32 32">
  <path fill-rule="evenodd" d="M9.014 11.26C9.238 7.757 12.122 5 15.635 5c2.845 0 5.277 1.808 6.216 4.35a5.204 5.204 0 0 0-1.267.682 1 1 0 0 0 1.181 1.614c.494-.361 1.162-.646 2.13-.646.982 0 2.006.499 2.806 1.365.796.863 1.299 2.018 1.299 3.2 0 1.679-.379 3.06-1.046 3.992C26.316 20.45 25.37 21 24 21a1 1 0 1 0 0 2c2.009 0 3.563-.857 4.58-2.279.988-1.38 1.42-3.216 1.42-5.155 0-1.74-.732-3.368-1.83-4.557C27.078 9.823 25.549 9 23.896 9h-.049c-1.12-3.475-4.367-6-8.21-6-4.563 0-8.285 3.555-8.613 8.052-.445.037-.87.139-1.286.306C3.461 12.274 2 14.495 2 16.858 2 20.184 4.623 23 8.003 23a1 1 0 1 0 0-2C5.795 21 4 19.147 4 16.858c0-1.552.97-3.035 2.482-3.644l.703-.635-.702.635c.476-.191.999-.25 1.782-.06a.96.96 0 0 0 .053.011l.719.133a1 1 0 0 0 .364-1.966l-.387-.072Zm3.693 7.447a1 1 0 0 1-1.414-1.414l4-4a1 1 0 0 1 1.414 0l4 4a1 1 0 0 1-1.414 1.414L17 16.414V28a1 1 0 1 1-2 0V16.414l-2.293 2.293Z" clip-rule="evenodd"/>
</svg>
