<svg xmlns="http://www.w3.org/2000/svg" width="32" height="32" fill="currentColor" viewBox="0 0 32 32">
  <path fill-rule="evenodd" d="M9.376 10.327c.204-3.522 3.098-6.3 6.624-6.3 2.796 0 5.193 1.745 6.166 4.217-.61.184-1.134.46-1.582.788a1 1 0 1 0 1.181 1.614c.494-.361 1.162-.646 2.13-.646.982 0 2.006.499 2.806 1.365.796.863 1.299 2.018 1.299 3.2C28 17.782 26.034 20 23.347 20H8.003C5.795 20 4 18.147 4 15.858c0-1.552.97-3.035 2.482-3.644.477-.191 1-.25 1.783-.06a.96.96 0 0 0 .053.011l.719.133a1 1 0 0 0 .364-1.966l-.025-.005ZM23.347 22H17v2.17a3.008 3.008 0 0 1 1.834 1.844A.915.915 0 0 1 19 26h6a1 1 0 1 1 0 2h-6c-.056 0-.112-.005-.166-.014a3.001 3.001 0 0 1-5.668 0A.915.915 0 0 1 13 28H7a1 1 0 1 1 0-2h6c.056 0 .112.005.166.014A3.008 3.008 0 0 1 15 24.17V22H8.003C4.623 22 2 19.184 2 15.858c0-2.363 1.462-4.584 3.736-5.5a4.364 4.364 0 0 1 1.655-.32C7.74 5.56 11.452 2.026 16 2.026c3.837 0 7.08 2.517 8.206 5.984 1.533.095 2.94.888 3.965 1.999C29.268 11.199 30 12.825 30 14.566 30 18.586 27.417 22 23.347 22ZM15 27a1 1 0 1 1 2 0 1 1 0 0 1-2 0Z" clip-rule="evenodd"/>
</svg>
