<svg xmlns="http://www.w3.org/2000/svg" width="32" height="32" fill="currentColor" viewBox="0 0 32 32">
  <path fill-rule="evenodd" d="M20.584 9.032C21.41 8.43 22.486 8 23.894 8c1.654 0 3.183.823 4.277 2.009C29.268 11.199 30 12.825 30 14.566 30 18.586 27.417 22 23.347 22H8.003C4.623 22 2 19.184 2 15.858c0-2.363 1.462-4.584 3.736-5.5.91-.365 1.855-.42 2.972-.155l.693.129a1 1 0 1 1-.364 1.966l-.72-.133a.96.96 0 0 1-.052-.011c-.784-.19-1.306-.131-1.783.06C4.97 12.823 4 14.306 4 15.858 4 18.148 5.795 20 8.003 20h15.344C26.034 20 28 17.781 28 14.566c0-1.183-.503-2.338-1.299-3.201-.8-.866-1.824-1.365-2.806-1.365-.968 0-1.636.285-2.13.646a1 1 0 1 1-1.18-1.614Z" clip-rule="evenodd"/>
  <path fill-rule="evenodd" d="M16 4.026c-3.658 0-6.635 2.99-6.635 6.699v.301a1 1 0 1 1-2 0v-.301c0-4.798 3.857-8.699 8.635-8.699 3.99 0 7.339 2.723 8.33 6.404a1 1 0 1 1-1.93.52c-.766-2.838-3.345-4.924-6.4-4.924ZM16 20a1 1 0 0 1 1 1v3.407a1 1 0 1 1-2 0V21a1 1 0 0 1 1-1ZM6 27a1 1 0 0 1 1-1h6a1 1 0 1 1 0 2H7a1 1 0 0 1-1-1Zm12 0a1 1 0 0 1 1-1h6a1 1 0 1 1 0 2h-6a1 1 0 0 1-1-1Z" clip-rule="evenodd"/>
  <path fill-rule="evenodd" d="M16 26a1 1 0 1 0 0 2 1 1 0 0 0 0-2Zm3 1a3 3 0 1 1-6 0 3 3 0 0 1 6 0Z" clip-rule="evenodd"/>
</svg>
