<svg xmlns="http://www.w3.org/2000/svg" width="33" height="32" fill="currentColor" viewBox="0 0 33 32">
  <path fill-rule="evenodd" d="M27.213 2a3.5 3.5 0 1 1-1.326 6.74l-4.084 4.083c.576.922.91 2.01.91 3.177a5.97 5.97 0 0 1-1.11 3.475l3.945 3.946a3.5 3.5 0 1 1-1.414 1.414l-3.946-3.946A5.97 5.97 0 0 1 16.713 22a5.97 5.97 0 0 1-3.176-.91l-4.084 4.084a3.5 3.5 0 1 1-1.265-1.563l3.85-3.851A5.974 5.974 0 0 1 10.714 16c0-1.167.334-2.255.91-3.177L7.539 8.74a3.5 3.5 0 1 1 1.563-1.265l3.85 3.851A5.974 5.974 0 0 1 16.714 10c1.424 0 2.731.497 3.76 1.325l3.85-3.85A3.5 3.5 0 0 1 27.214 2Zm-21 23a1.5 1.5 0 1 0 0 3 1.5 1.5 0 0 0 0-3Zm21 0a1.5 1.5 0 1 0 0 3 1.5 1.5 0 0 0 0-3Zm-10.5-13a4 4 0 1 0 0 8 4 4 0 0 0 0-8Zm-10.5-8a1.5 1.5 0 1 0 0 3 1.5 1.5 0 0 0 0-3Zm21 0a1.5 1.5 0 1 0 0 3 1.5 1.5 0 0 0 0-3Z" clip-rule="evenodd"/>
  <path fill-rule="evenodd" d="M17 23a3.5 3.5 0 1 1 0 7 3.5 3.5 0 0 1 0-7Zm0 2a1.5 1.5 0 1 0 0 3 1.5 1.5 0 0 0 0-3ZM6.213 12.5a3.5 3.5 0 1 1 0 7 3.5 3.5 0 0 1 0-7Zm0 2a1.5 1.5 0 1 0 0 3 1.5 1.5 0 0 0 0-3Zm21-2a3.5 3.5 0 1 1 0 7 3.5 3.5 0 0 1 0-7Zm0 2a1.5 1.5 0 1 0 0 3 1.5 1.5 0 0 0 0-3ZM17 2a3.5 3.5 0 1 1 0 7 3.5 3.5 0 0 1 0-7Zm0 2a1.5 1.5 0 1 0 0 3 1.5 1.5 0 0 0 0-3Z" clip-rule="evenodd"/>
</svg>
