<svg xmlns="http://www.w3.org/2000/svg" width="32" height="32" fill="currentColor" viewBox="0 0 32 32">
  <path fill-rule="evenodd" d="m21.666 2.752.041.04 2 2c.557.558.933 1.07 1.125 1.704C25 7.052 25 7.635 25 8.208V15a1 1 0 1 1-2 0V8.29c0-.69-.009-.973-.082-1.213-.058-.19-.182-.427-.625-.87l-2-2a4.567 4.567 0 0 0-.185-.18 2.265 2.265 0 0 0-.269-.02A26.496 26.496 0 0 0 19 4H9.072a1.36 1.36 0 0 0-.635.327C8.224 4.523 8 4.863 8 5.5V18a1 1 0 1 1-2 0V5.5c0-1.192.454-2.065 1.08-2.643a3.315 3.315 0 0 1 1.805-.85L8.942 2H19.02c.359 0 .655 0 .892.008.236.009.477.027.706.084.525.131.828.437 1.049.66Z" clip-rule="evenodd"/>
  <path fill-rule="evenodd" d="M2.836 10.719A2.208 2.208 0 0 1 4.44 10h2.062a1 1 0 1 1 0 2H4.44c-.005 0-.07.006-.142.084-.08.084-.298.394-.298 1.281v13.251c0 .527.02.865.132 1.087a.355.355 0 0 0 .156.165c.085.047.267.113.626.113h1.83l2.935-10.363c.032-.122.064-.252.095-.379a23.7 23.7 0 0 1 .127-.498 3.55 3.55 0 0 1 .31-.814c.17-.295.417-.562.781-.733.335-.157.689-.194 1.008-.194h2.281c.75 0 1.348.16 1.852.435.479.263.823.607 1.069.852.665.644 1.386.713 2.298.713H28c.53 0 1.012.177 1.377.538.342.338.5.758.573 1.113.14.689.017 1.432-.143 1.904l-.008.026-.01.026c-.49 1.223-1.7 3.608-2.875 5.928l-.032.063c-.584 1.157-1.068 2.014-1.621 2.56-.3.298-.634.518-1.023.655a3.33 3.33 0 0 1-1.118.168H4.914c-.599 0-1.134-.11-1.588-.36a2.353 2.353 0 0 1-.98-1.015C1.998 27.915 2 27.114 2 26.676V13.365c0-1.197.297-2.07.836-2.646ZM8.823 27.98H23.12c.237 0 .368-.024.455-.055a.736.736 0 0 0 .28-.19c.285-.282.637-.841 1.242-2.04 1.202-2.371 2.362-4.665 2.823-5.805a2.08 2.08 0 0 0 .081-.406 1.522 1.522 0 0 0-.011-.436.643.643 0 0 0-.012-.049H19.5c-.999 0-2.431-.053-3.697-1.283l-.005-.005-.005-.005c-.254-.254-.419-.407-.62-.517-.182-.1-.443-.19-.892-.19h-2.28a1.5 1.5 0 0 0-.089.002c-.02.055-.047.139-.081.265-.036.13-.067.258-.105.41-.031.128-.067.273-.113.452l-.003.011-2.787 9.841Z" clip-rule="evenodd"/>
  <path fill-rule="evenodd" d="M11 7a1 1 0 0 1 1-1h7a1 1 0 1 1 0 2h-7a1 1 0 0 1-1-1Zm0 4a1 1 0 0 1 1-1h7a1 1 0 1 1 0 2h-7a1 1 0 0 1-1-1Z" clip-rule="evenodd"/>
</svg>
