<svg xmlns="http://www.w3.org/2000/svg" width="32" height="32" fill="none" viewBox="0 0 32 32">
  <path fill="#3D3C3C" fill-rule="evenodd" d="M5.889 10.915c1.187-1.187 3.129-1.24 4.332-.036l2.9 2.9c1.204 1.203 1.151 3.145-.036 4.332l-2.974 2.974c-1.187 1.187-3.129 1.24-4.332.036l-2.9-2.9c-1.204-1.203-1.151-3.145.036-4.332l2.974-2.974Zm2.918 1.378c-.388-.388-1.063-.405-1.504.036l-2.974 2.974c-.44.44-.424 1.116-.036 1.504l2.9 2.9c.388.388 1.063.405 1.504-.036l2.974-2.974c.44-.44.425-1.116.036-1.504l-2.9-2.9Zm5.076-9.378c1.188-1.187 3.13-1.24 4.335-.037l2.903 2.9c1.205 1.204 1.152 3.146-.037 4.334l-2.976 2.973c-1.188 1.187-3.13 1.24-4.335.037L10.88 10.23c-1.17-1.169-1.154-3.041-.066-4.236.028-.038.06-.073.093-.107l2.976-2.973Zm-1.477 4.303a.991.991 0 0 1-.076.085c-.442.441-.425 1.125-.037 1.513l2.894 2.89c.389.39 1.065.406 1.507-.036l2.976-2.973c.442-.441.425-1.116.037-1.504l-2.903-2.9c-.389-.389-1.065-.405-1.507.037l-2.891 2.888Zm1.483 11.697c1.187-1.187 3.129-1.24 4.332-.036l2.9 2.9c1.204 1.203 1.151 3.145-.036 4.332l-2.974 2.974c-1.187 1.187-3.129 1.24-4.332.036l-2.9-2.9c-1.204-1.203-1.151-3.145.036-4.332l2.974-2.974Zm2.918 1.378c-.388-.388-1.063-.405-1.504.036l-2.974 2.974c-.44.44-.424 1.116-.036 1.504l2.9 2.9c.388.388 1.063.405 1.504-.036l2.974-2.974c.44-.44.425-1.116.036-1.504l-2.9-2.9Zm5.082-9.378c1.187-1.187 3.129-1.24 4.332-.036l2.9 2.9c1.204 1.203 1.151 3.145-.036 4.332l-2.974 2.974c-1.187 1.187-3.128 1.24-4.332.036l-2.9-2.9c-1.204-1.203-1.151-3.145.036-4.332l2.974-2.974Zm2.918 1.378c-.388-.388-1.063-.405-1.504.036l-2.974 2.974c-.44.44-.424 1.116-.036 1.504l2.9 2.9c.388.388 1.063.405 1.504-.036l2.974-2.974c.44-.44.425-1.116.036-1.504l-2.9-2.9Z" clip-rule="evenodd"/>
</svg>
