<svg xmlns="http://www.w3.org/2000/svg" width="32" height="32" fill="currentColor" viewBox="0 0 32 32">
  <path fill-rule="evenodd" d="M2 4a2 2 0 0 1 2-2h4a2 2 0 0 1 2 2v4c0 .18-.024.353-.068.518l2.591 2.591A5.972 5.972 0 0 1 16 10c1.296 0 2.496.41 3.477 1.11l2.816-2.817a.998.998 0 0 1 .295-.204 4 4 0 1 1 1.323 1.324.997.997 0 0 1-.204.294l-2.816 2.816A5.98 5.98 0 0 1 22 16c0 1.296-.41 2.496-1.11 3.477l2.592 2.59c.165-.043.339-.067.518-.067h4a2 2 0 0 1 2 2v4a2 2 0 0 1-2 2h-4a2 2 0 0 1-2-2v-4c0-.18.024-.353.068-.518l-2.591-2.591A5.972 5.972 0 0 1 16 22a5.977 5.977 0 0 1-3.939-1.474l-2.31 2.311a.998.998 0 0 1-.27.192 4 4 0 1 1-1.31-1.39c.044-.077.099-.15.165-.216l2.45-2.45A5.972 5.972 0 0 1 10 16c0-1.296.41-2.496 1.11-3.476L8.517 9.931A2.003 2.003 0 0 1 8 10H4a2 2 0 0 1-2-2V4Zm6 0H4v4h4V4Zm8 8a4 4 0 1 0 0 8 4 4 0 0 0 0-8ZM6 23a2 2 0 1 0 0 4 2 2 0 0 0 0-4Zm18 5v-4h4v4h-4Zm0-22a2 2 0 1 1 4 0 2 2 0 0 1-4 0Z" clip-rule="evenodd"/>
</svg>
