<svg xmlns="http://www.w3.org/2000/svg" width="32" height="32" fill="currentColor" viewBox="0 0 32 32">
  <path fill-rule="evenodd" d="M22.5 4a5.5 5.5 0 1 0 0 11 5.5 5.5 0 0 0 0-11ZM15 9.5a7.5 7.5 0 1 1 15 0 7.5 7.5 0 0 1-15 0Zm-1.055-.827a1 1 0 0 1-.618 1.272C11.134 10.703 9.5 12.665 9.5 15c0 1.317.928 2.751 1.999 3.881 1.131 1.192 1.439 2.725 1.492 4.119h4.04c.1-.79.423-1.519.801-2.147.46-.762 1.046-1.448 1.569-2.003a5.27 5.27 0 0 0 .728-.994 1 1 0 0 1 1.742.983c-.288.51-.627.965-1.005 1.373l-.006.007c-.482.51-.96 1.078-1.314 1.666-.358.595-.546 1.138-.546 1.615v4.032C19 29.118 17.453 30 16.107 30h-2.214C12.547 30 11 29.118 11 27.532V23.5c0-1.38-.23-2.481-.952-3.242C8.905 19.052 7.5 17.127 7.5 15c0-3.327 2.314-5.956 5.173-6.945a1 1 0 0 1 1.272.618ZM13 27.533V25h4v2.532c0 .035-.015.13-.167.248-.153.118-.406.22-.726.22h-2.214c-.32 0-.573-.102-.726-.22-.152-.117-.167-.213-.167-.248ZM6.707 5.292a1 1 0 0 0-1.414 1.414l2 2a1 1 0 0 0 1.414-1.414l-2-2Zm-4.688 7.01a1 1 0 0 1 1.177-.784l2.5.5a1 1 0 0 1-.392 1.962l-2.5-.5a1 1 0 0 1-.785-1.177ZM14 3a1 1 0 1 0-2 0v3a1 1 0 1 0 2 0V3Zm11.819 4.574a1 1 0 0 0-1.638-1.148l-2.683 3.828-.678-.972a1 1 0 0 0-1.64 1.143l1.495 2.147a1 1 0 0 0 1.64.002l3.504-5Z" clip-rule="evenodd"/>
</svg>
