<svg xmlns="http://www.w3.org/2000/svg" width="32" height="32" fill="currentColor" viewBox="0 0 32 32">
  <path d="M20.959 16.002a.983.983 0 0 1 .143.002c.007 0 .014.003.021.004a.98.98 0 0 1 .321.098l.025.011.034.02c.017.01.034.018.05.029l.033.025.046.035.021.018.05.045.017.018A.992.992 0 0 1 22 17v3.586l1 1 1-1V17a1.001 1.001 0 0 1 1.377-.926C27.579 16.971 29 18.963 29 21.5c0 2.015-.93 3.915-2.5 5.041l.005 2.457a1 1 0 0 1-2 .004l-.005-3a1 1 0 0 1 .51-.874C26.2 24.459 27 23.074 27 21.5c0-1.078-.364-1.98-1-2.65V21a1 1 0 0 1-.293.707l-2 2a.995.995 0 0 1-.803.288.995.995 0 0 1-.611-.288l-2-2A1 1 0 0 1 20 21v-2.115c-.625.671-1 1.566-1 2.615 0 1.554.847 2.958 2.006 3.637A1 1 0 0 1 21.5 26v3a1 1 0 1 1-2 0v-2.468C17.99 25.416 17 23.531 17 21.5c0-2.55 1.505-4.52 3.592-5.413a1 1 0 0 1 .11-.043.996.996 0 0 1 .257-.042ZM12 17a3 3 0 0 1 3 3v6a3 3 0 0 1-3 3H6a3 3 0 0 1-3-3v-6a3 3 0 0 1 3-3h6Zm-6 2a1 1 0 0 0-1 1v6a1 1 0 0 0 1 1h6a1 1 0 0 0 1-1v-6a1 1 0 0 0-1-1H6Zm6-17a3 3 0 0 1 3 3v6a3 3 0 0 1-3 3H6a3 3 0 0 1-3-3V5a3 3 0 0 1 3-3h6Zm14 0a3 3 0 0 1 3 3v6a3 3 0 0 1-3 3h-6a3 3 0 0 1-3-3V5a3 3 0 0 1 3-3h6ZM6 4a1 1 0 0 0-1 1v6a1 1 0 0 0 1 1h6a1 1 0 0 0 1-1V5a1 1 0 0 0-1-1H6Zm14 0a1 1 0 0 0-1 1v6a1 1 0 0 0 1 1h6a1 1 0 0 0 1-1V5a1 1 0 0 0-1-1h-6Z"/>
</svg>
