<svg xmlns="http://www.w3.org/2000/svg" width="33" height="32" fill="currentColor" viewBox="0 0 33 32">
  <path d="M27.593 12.01c1.332.107 2.75 1.01 2.74 2.655V18.5c0 .558-.163 1.364-.578 2.061-.3.503-.766.997-1.422 1.254V28a2 2 0 0 1-2 2h-4a2 2 0 0 1-2-2v-6.173a2.81 2.81 0 0 1-1.41-1.172c-.435-.697-.59-1.518-.59-2.155v-3.744c0-.972.451-1.715 1.125-2.175.63-.43 1.397-.581 2.075-.581h5.794l.266.01ZM21.533 14c-.416 0-.75.098-.947.232-.151.104-.253.24-.253.524V18.5c0 .363.096.792.285 1.095.163.26.367.405.715.405a1 1 0 0 1 1 1v7h4v-7a1 1 0 0 1 1-1c.296 0 .512-.14.703-.462.21-.352.297-.796.297-1.038v-3.845c.002-.154-.06-.29-.215-.413a1.232 1.232 0 0 0-.665-.237L27.327 14h-5.794Zm-8.94-3.99c1.332.107 2.75 1.01 2.74 2.655V16h1l.103.005a1 1 0 0 1 0 1.99l-.103.005h-14a1 1 0 1 1 0-2h1v-3.244c-.005-.898.493-1.607 1.082-2.053A3.562 3.562 0 0 1 6.532 10h5.795l.266.01ZM6.533 12a1.56 1.56 0 0 0-.91.299c-.238.179-.29.345-.29.447V16h8v-3.345c.002-.154-.06-.29-.215-.413a1.231 1.231 0 0 0-.665-.237L12.327 12H6.532Zm17.8-8a3.5 3.5 0 1 1 0 7 3.5 3.5 0 1 1 0-7Zm-15-2a3.5 3.5 0 1 1 0 7 3.5 3.5 0 1 1 0-7Zm15 4a1.5 1.5 0 1 0 0 3 1.5 1.5 0 1 0 0-3Zm-15-2a1.5 1.5 0 1 0 0 3 1.5 1.5 0 1 0 0-3Z"/>
</svg>
