<svg xmlns="http://www.w3.org/2000/svg" width="32" height="32" fill="currentColor" viewBox="0 0 32 32">
  <path d="M7.247 5h-.494C6.337 5 6 5.31 6 5.691v.618c0 .381.337.691.753.691h.494C7.663 7 8 6.69 8 6.309V5.69C8 5.31 7.663 5 7.247 5Zm3 0h-.494C9.337 5 9 5.31 9 5.691v.618c0 .381.337.691.753.691h.494c.416 0 .753-.31.753-.691V5.69c0-.38-.337-.69-.753-.69Zm3 0h-.494c-.416 0-.753.31-.753.691v.618c0 .381.337.691.753.691h.494c.416 0 .753-.31.753-.691V5.69c0-.38-.337-.69-.753-.69Z"/>
  <path fill-rule="evenodd" d="M1.933 7.87h28.134v18.238c0 2.102-1.582 3.959-3.716 3.959H5.649c-2.134 0-3.716-1.857-3.716-3.959V7.869Zm2 2v16.238c0 1.164.846 1.959 1.716 1.959h20.702c.87 0 1.716-.795 1.716-1.959V9.869H3.933Z" clip-rule="evenodd"/>
  <path fill-rule="evenodd" d="M1.933 5.892c0-2.103 1.582-3.959 3.716-3.959h20.702c2.134 0 3.716 1.856 3.716 3.959v3.977H1.933V5.892ZM5.65 3.933c-.87 0-1.716.795-1.716 1.959v1.977h24.134V5.892c0-1.164-.846-1.959-1.716-1.959H5.649ZM12 22a4 4 0 1 0 0-8 4 4 0 0 0 0 8Zm0 2a6 6 0 1 0 0-12 6 6 0 0 0 0 12Z" clip-rule="evenodd"/>
  <path fill-rule="evenodd" d="M12 13a1 1 0 0 1 1 1v3h3a1 1 0 1 1 0 2h-3a2 2 0 0 1-2-2v-3a1 1 0 0 1 1-1Zm8 7a1 1 0 0 1 1-1h4a1 1 0 1 1 0 2h-4a1 1 0 0 1-1-1Zm0-4a1 1 0 0 1 1-1h4a1 1 0 1 1 0 2h-4a1 1 0 0 1-1-1Z" clip-rule="evenodd"/>
</svg>
