<svg xmlns="http://www.w3.org/2000/svg" width="32" height="32" fill="currentColor" viewBox="0 0 32 32">
  <path fill-rule="evenodd" d="M5.024 1.933a3.1 3.1 0 0 0-3.09 3.091v8.363a3.1 3.1 0 0 0 2.09 2.923v3.349a1 1 0 0 0 1.555.832l1.581-1.055v3.359c0 1.71 1.381 3.09 3.09 3.09h9.106l6.02 4.014a1 1 0 0 0 1.555-.832V25.72a3.088 3.088 0 0 0 2.09-2.926v-8.363c0-1.71-1.38-3.09-3.09-3.09h-2.136V5.023a3.1 3.1 0 0 0-3.091-3.09H5.024Zm17.761 11.408h3.146c.605 0 1.09.486 1.09 1.091v8.363c0 .605-.485 1.09-1.09 1.09a1 1 0 0 0-1 1v2.313l-4.718-3.145a1 1 0 0 0-.554-.168H10.25a1.087 1.087 0 0 1-1.091-1.09v-8.363c0-.605.486-1.09 1.09-1.09h12.535Zm-.99-2V5.024a1.1 1.1 0 0 0-1.091-1.09H5.024a1.1 1.1 0 0 0-1.09 1.09v8.363a1.1 1.1 0 0 0 1.09 1.09 1 1 0 0 1 1 1v2.313l1.136-.757v-2.601c0-1.71 1.381-3.09 3.09-3.09h11.545Z" clip-rule="evenodd"/>
</svg>
