<svg xmlns="http://www.w3.org/2000/svg" width="32" height="32" fill="currentColor" viewBox="0 0 32 32">
  <path fill-rule="evenodd" d="M1.933 5.024a3.1 3.1 0 0 1 3.091-3.09h15.68a3.1 3.1 0 0 1 3.09 3.09v7.317a1 1 0 0 1-2 0V5.024a1.1 1.1 0 0 0-1.09-1.09H5.024a1.1 1.1 0 0 0-1.09 1.09v8.363a1.1 1.1 0 0 0 1.09 1.09 1 1 0 0 1 1 1v2.313l1.581-1.054a1 1 0 1 1 1.11 1.664l-3.136 2.09a1 1 0 0 1-1.555-.831V16.31a3.102 3.102 0 0 1-2.09-2.923V5.024Z" clip-rule="evenodd"/>
  <path fill-rule="evenodd" d="M10.25 13.341c-.604 0-1.09.486-1.09 1.091v8.363c0 .605.486 1.09 1.09 1.09h9.409a1 1 0 0 1 .554.168l4.718 3.145v-2.313a1 1 0 0 1 1-1c.605 0 1.09-.485 1.09-1.09v-8.363c0-.605-.485-1.09-1.09-1.09H10.25Zm-3.09 1.091c0-1.71 1.381-3.09 3.09-3.09h15.68c1.71 0 3.091 1.38 3.091 3.09v8.363c0 1.36-.873 2.51-2.09 2.926v3.346a1 1 0 0 1-1.555.832l-6.02-4.014H10.25a3.087 3.087 0 0 1-3.091-3.09v-8.363Z" clip-rule="evenodd"/>
</svg>
