<svg xmlns="http://www.w3.org/2000/svg" width="32" height="32" fill="currentColor" viewBox="0 0 32 32">
  <path fill-rule="evenodd" d="M5.65 1.933c-2.135 0-3.717 1.856-3.717 3.959v20.216c0 2.102 1.582 3.959 3.716 3.959h20.702c2.134 0 3.716-1.857 3.716-3.959V5.892c0-2.103-1.582-3.959-3.716-3.959H5.649ZM28.066 7.87V5.892c0-1.164-.846-1.959-1.716-1.959H5.649c-.87 0-1.716.795-1.716 1.959v1.977h24.134Zm-24.134 2h24.134v16.239c0 1.164-.846 1.959-1.716 1.959H5.649c-.87 0-1.716-.795-1.716-1.959V9.869ZM7.247 5h-.494C6.337 5 6 5.31 6 5.691v.618c0 .381.337.691.753.691h.494C7.663 7 8 6.69 8 6.309V5.69C8 5.31 7.663 5 7.247 5Zm3 0h-.494C9.337 5 9 5.31 9 5.691v.618c0 .381.337.691.753.691h.494c.416 0 .753-.31.753-.691V5.69c0-.38-.337-.69-.753-.69Zm2.506 0h.494c.416 0 .753.31.753.691v.618c0 .381-.337.691-.753.691h-.494C12.337 7 12 6.69 12 6.309V5.69c0-.381.337-.691.753-.691Zm3.121 14A4.002 4.002 0 0 1 8 18a4.002 4.002 0 0 1 3-3.874V17a2 2 0 0 0 2 2h2.874ZM13 14.126A4.007 4.007 0 0 1 15.874 17H13v-2.874ZM12 24a6 6 0 1 0 0-12 6 6 0 0 0 0 12Zm8-4a1 1 0 0 1 1-1h4a1 1 0 1 1 0 2h-4a1 1 0 0 1-1-1Zm1-5a1 1 0 1 0 0 2h4a1 1 0 1 0 0-2h-4Z" clip-rule="evenodd"/>
</svg>
