<svg xmlns="http://www.w3.org/2000/svg" width="32" height="32" fill="currentColor" viewBox="0 0 32 32">
  <path d="M26.852 19C28.142 19 29 20.133 29 21.286v5.428C29 27.867 28.142 29 26.852 29h-5.704C19.858 29 19 27.867 19 26.714v-5.428c0-1.153.858-2.286 2.148-2.286h5.704Zm-4.01-16C25.242 3 27 5.142 27 7.538V16a1 1 0 1 1-2 0V7.538C25 6.028 23.93 5 22.842 5H7.158C6.07 5 5 6.027 5 7.538v14.924C5 23.972 6.07 25 7.158 25H16a1 1 0 1 1 0 2H7.158C4.758 27 3 24.858 3 22.462V7.538C3 5.142 4.758 3 7.158 3h15.684Zm-1.694 18c-.002 0-.027 0-.066.043a.367.367 0 0 0-.082.243v5.428c0 .114.041.197.082.243.039.043.064.043.066.043h5.704c.002 0 .027 0 .066-.043a.367.367 0 0 0 .082-.243v-5.428a.367.367 0 0 0-.082-.243C26.879 21 26.854 21 26.852 21h-5.704ZM18.564 9C20.014 9 21 10.278 21 11.608v4.517a1 1 0 1 1-2 0v-4.517c0-.445-.298-.608-.436-.608h-7.129c-.137 0-.435.163-.435.608v6.784c0 .445.298.608.435.608H16a1 1 0 1 1 0 2h-4.565C9.987 21 9 19.722 9 18.392v-6.784C9 10.278 9.987 9 11.435 9h7.13Z"/>
</svg>
