<svg xmlns="http://www.w3.org/2000/svg" width="33" height="32" fill="currentColor" viewBox="0 0 33 32">
  <path d="M17.286 2c7.731 0 14 6.268 14 14s-6.269 14-14 14c-7.732 0-14-6.268-14-14s6.268-14 14-14Zm0 2c-6.628 0-12 5.373-12 12s5.372 12 12 12c6.627 0 12-5.373 12-12s-5.373-12-12-12Zm-5 6a1 1 0 0 1 1 1v10a1 1 0 0 1-2 0V11a1 1 0 0 1 1-1Zm2.515.125a1.001 1.001 0 0 1 1.015.027l8 5a1 1 0 0 1 0 1.696l-8 5a1 1 0 0 1-1.53-.848V11l.008-.135c.043-.31.23-.586.507-.74Zm1.485 9.07L21.399 16l-5.113-3.196v6.391Z"/>
</svg>
