<svg xmlns="http://www.w3.org/2000/svg" width="32" height="32" fill="currentColor" viewBox="0 0 32 32">
  <path fill-rule="evenodd" d="M25.394 2.204a1 1 0 0 1 1.402.19C28.806 5.034 30 8.375 30 12s-1.194 6.966-3.204 9.606a1 1 0 0 1-1.592-1.212C26.954 18.098 28 15.181 28 12s-1.047-6.098-2.796-8.394a1 1 0 0 1 .19-1.402ZM6.676 3.598a1 1 0 1 0-1.603-1.196C3.155 4.972 2 8.225 2 11.756c0 3.53 1.155 6.783 3.073 9.354a1 1 0 0 0 1.603-1.197C5.01 17.681 4 14.848 4 11.756S5.01 5.83 6.676 3.598ZM14 12a2 2 0 1 1 4 0 2 2 0 0 1-4 0Zm2-4a4 4 0 0 0-1.07 7.855L7.633 28.5a1 1 0 1 0 1.732 1l2.02-3.5h9.229l2.019 3.5a1 1 0 1 0 1.732-1L17.07 15.855A4.002 4.002 0 0 0 16 8Zm3.46 16L16 18.001 12.54 24h6.92ZM10.45 6.754a1 1 0 0 0-1.633-1.155C7.67 7.222 7 9.242 7 11.424c0 2.182.67 4.203 1.817 5.825a1 1 0 0 0 1.633-1.155c-.907-1.283-1.45-2.9-1.45-4.67s.543-3.387 1.45-4.67ZM21.423 5.36a1 1 0 0 1 1.394.24c1.146 1.622 1.816 3.642 1.816 5.824s-.67 4.203-1.816 5.825a1 1 0 0 1-1.634-1.155c.907-1.283 1.45-2.9 1.45-4.67s-.543-3.387-1.45-4.67a1 1 0 0 1 .24-1.394Z" clip-rule="evenodd"/>
</svg>
