<svg xmlns="http://www.w3.org/2000/svg" width="32" height="32" fill="currentColor" viewBox="0 0 32 32">
  <path fill-rule="evenodd" d="M16 10a2 2 0 1 0 0 4 2 2 0 0 0 0-4Zm-4 2a4 4 0 1 1 8 0 4 4 0 0 1-8 0ZM6.473 2.199a1 1 0 0 1 .203 1.4C5.01 5.83 4 8.664 4 11.755c0 3.09 1.01 5.925 2.676 8.157a1 1 0 1 1-1.603 1.197C3.155 18.539 2 15.286 2 11.756c0-3.53 1.155-6.783 3.073-9.354a1 1 0 0 1 1.4-.203Zm18.921.005a1 1 0 0 1 1.402.19C28.806 5.034 30 8.375 30 12s-1.194 6.966-3.204 9.606a1 1 0 0 1-1.591-1.212C26.953 18.098 28 15.181 28 12s-1.047-6.098-2.796-8.394a1 1 0 0 1 .19-1.402ZM10.21 5.36a1 1 0 0 1 .24 1.394C9.543 8.037 9 9.654 9 11.424s.543 3.387 1.45 4.67a1 1 0 0 1-1.633 1.155C7.67 15.627 7 13.606 7 11.424c0-2.182.67-4.202 1.817-5.825a1 1 0 0 1 1.393-.24Zm11.213 0a1 1 0 0 1 1.394.24c1.146 1.622 1.816 3.642 1.816 5.824s-.67 4.203-1.816 5.825a1 1 0 0 1-1.634-1.155c.907-1.283 1.45-2.9 1.45-4.67s-.543-3.387-1.45-4.67a1 1 0 0 1 .24-1.394Z" clip-rule="evenodd"/>
  <path fill-rule="evenodd" d="M16.5 15.134a1 1 0 0 1 .366 1.366l-7.5 13a1 1 0 1 1-1.732-1l7.5-13a1 1 0 0 1 1.366-.366Z" clip-rule="evenodd"/>
  <path fill-rule="evenodd" d="M15.5 15.134a1 1 0 0 1 1.366.366l7.5 13a1 1 0 0 1-1.732 1l-7.5-13a1 1 0 0 1 .366-1.366Z" clip-rule="evenodd"/>
  <path fill-rule="evenodd" d="M10 25c0-.552.35-1 .783-1h10.434c.433 0 .783.448.783 1s-.35 1-.783 1H10.783c-.433 0-.783-.448-.783-1Z" clip-rule="evenodd"/>
</svg>
