<svg xmlns="http://www.w3.org/2000/svg" width="32" height="32" fill="currentColor" viewBox="0 0 32 32">
  <path d="M7.247 5c.416 0 .753.31.753.691v.618C8 6.69 7.663 7 7.247 7h-.494C6.337 7 6 6.69 6 6.309V5.69c0-.38.337-.69.753-.69h.494Zm3 0c.416 0 .753.31.753.691v.618c0 .381-.337.691-.753.691h-.494C9.337 7 9 6.69 9 6.309V5.69c0-.38.337-.69.753-.69h.494Zm3 0c.416 0 .753.31.753.691v.618c0 .381-.337.691-.753.691h-.494C12.337 7 12 6.69 12 6.309V5.69c0-.381.337-.691.753-.691h.494Z"/>
  <path fill-rule="evenodd" d="M2 5.99C2 3.885 3.564 2 5.704 2h20.592C28.436 2 30 3.885 30 5.99V16a1 1 0 1 1-2 0v-6H4v16.069C4 27.213 4.836 28 5.703 28H15a1 1 0 1 1 0 2H5.703C3.581 30 2 28.16 2 26.069V5.99Zm26 0V8H4V5.99C4 4.795 4.854 4 5.704 4h20.592C27.146 4 28 4.795 28 5.99Z" clip-rule="evenodd"/>
  <path d="M21.5 26a1 1 0 1 0-2 0v.5H19a1 1 0 1 0 0 2h.5v.5a1 1 0 1 0 2 0v-.5h.5a1 1 0 1 0 0-2h-.5V26Zm3.5-6a1 1 0 1 0 2 0v-1a1 1 0 1 0-2 0v1Zm2 2a1 1 0 0 1 1-1h1a1 1 0 1 1 0 2h-1a1 1 0 0 1-1-1Zm-4-1a1 1 0 1 0 0 2h1a1 1 0 1 0 0-2h-1Zm3 5a1 1 0 0 1-1-1v-1a1 1 0 1 1 2 0v1a1 1 0 0 1-1 1Z"/>
  <path fill-rule="evenodd" d="M14.93 23.546a1 1 0 0 0 1.657-.002c1.208-1.796 2.078-2.619 3.994-3.988a1 1 0 0 0-.02-1.641c-1.986-1.346-2.799-2.192-3.969-3.966a1 1 0 0 0-1.685.024c-.61.984-1.116 1.654-1.69 2.224-.577.572-1.253 1.077-2.238 1.701a1 1 0 0 0-.025 1.672c1.929 1.308 2.747 2.162 3.975 3.976Zm.849-7.28c.733.957 1.473 1.693 2.523 2.492-1.019.796-1.774 1.527-2.542 2.513a12.863 12.863 0 0 0-2.497-2.503c.502-.367.947-.74 1.363-1.152.413-.41.786-.85 1.153-1.35Z" clip-rule="evenodd"/>
</svg>
