<svg xmlns="http://www.w3.org/2000/svg" width="32" height="32" fill="currentColor" viewBox="0 0 32 32">
  <path fill-rule="evenodd" d="M16 4a1 1 0 1 0 0 2 1 1 0 0 0 0-2Zm-3 1a3 3 0 1 1 4 2.83v3.27a4.971 4.971 0 0 1 1.747.722l2.508-2.61a3 3 0 1 1 1.374 1.456l-2.464 2.564c.35.528.605 1.126.735 1.768h3.27a3.001 3.001 0 1 1 0 2H20.9a4.972 4.972 0 0 1-.728 1.757l2.535 2.535a3 3 0 1 1-1.414 1.414l-2.536-2.534A4.972 4.972 0 0 1 17 20.9v3.27a3.001 3.001 0 1 1-2 0V20.9a4.972 4.972 0 0 1-1.757-.728l-2.528 2.527a3 3 0 1 1-1.429-1.4l2.542-2.542A4.972 4.972 0 0 1 11.1 17H7.83a3.001 3.001 0 1 1 0-2h3.27c.13-.64.382-1.235.73-1.76l-2.51-2.545a3 3 0 1 1 1.4-1.428l2.526 2.56A4.971 4.971 0 0 1 15 11.1V7.83A3.001 3.001 0 0 1 13 5Zm3 21a1 1 0 1 0 0 2 1 1 0 0 0 0-2ZM4 16a1 1 0 1 1 2 0 1 1 0 0 1-2 0Zm23-1a1 1 0 1 0 0 2 1 1 0 0 0 0-2ZM7 8a1 1 0 1 1 2 0 1 1 0 0 1-2 0Zm17-1a1 1 0 0 0-.813 1.582 1.053 1.053 0 0 1 .153.17A1 1 0 1 0 24 7ZM7.02 24.01a1 1 0 1 1 2 .021 1 1 0 0 1-2-.02ZM24 23a1 1 0 1 0 0 2 1 1 0 0 0 0-2Zm-11-7a3 3 0 1 1 6 0 3 3 0 0 1-6 0Z" clip-rule="evenodd"/>
</svg>
