<svg xmlns="http://www.w3.org/2000/svg" width="32" height="32" fill="currentColor" viewBox="0 0 32 32">
  <path fill-rule="evenodd" d="M4.2 4a.2.2 0 0 0-.2.2v3.6c0 .11.09.2.2.2h3.6a.2.2 0 0 0 .2-.2V4.2a.2.2 0 0 0-.2-.2H4.2ZM2 4.2A2.2 2.2 0 0 1 4.2 2h3.6A2.2 2.2 0 0 1 10 4.2v3.6A2.2 2.2 0 0 1 7.8 10h-.766v5H17V4.3c0-1.238.98-2.3 2.257-2.3h8.486C29.02 2 30 3.062 30 4.3v23.4c0 1.238-.98 2.3-2.257 2.3h-8.486C17.98 30 17 28.938 17 27.7V17H7.034v5H7.8a2.2 2.2 0 0 1 2.2 2.2v3.6A2.2 2.2 0 0 1 7.8 30H4.2A2.2 2.2 0 0 1 2 27.8v-3.6A2.2 2.2 0 0 1 4.2 22h.834V10H4.2A2.2 2.2 0 0 1 2 7.8V4.2ZM4.2 24a.2.2 0 0 0-.2.2v3.6c0 .11.09.2.2.2h3.6a.2.2 0 0 0 .2-.2v-3.6a.2.2 0 0 0-.2-.2H4.2ZM19 4.3c0-.198.146-.3.257-.3h8.486c.11 0 .257.102.257.3v23.4c0 .198-.146.3-.257.3h-8.486c-.11 0-.257-.102-.257-.3V4.3ZM21 8a1 1 0 0 1 1-1h3a1 1 0 1 1 0 2h-3a1 1 0 0 1-1-1Zm1 3a1 1 0 1 0 0 2h3a1 1 0 1 0 0-2h-3Z" clip-rule="evenodd"/>
</svg>
