<svg xmlns="http://www.w3.org/2000/svg" width="32" height="32" fill="currentColor" viewBox="0 0 32 32">
  <path fill-rule="evenodd" d="M16 4a1 1 0 1 0 0 2 1 1 0 0 0 0-2Zm-3 1a3 3 0 1 1 6 0 3 3 0 0 1-6 0Zm3 21a1 1 0 1 0 0 2 1 1 0 0 0 0-2Zm-3 1a3 3 0 1 1 6 0 3 3 0 0 1-6 0ZM5 15a1 1 0 1 0 0 2 1 1 0 0 0 0-2Zm-3 1a3 3 0 1 1 6 0 3 3 0 0 1-6 0Zm25-1a1 1 0 1 0 0 2 1 1 0 0 0 0-2Zm-3 1a3 3 0 1 1 6 0 3 3 0 0 1-6 0ZM8 7a1 1 0 1 0 0 2 1 1 0 0 0 0-2ZM5 8a3 3 0 1 1 6 0 3 3 0 0 1-6 0Zm19-1a1 1 0 1 0 0 2 1 1 0 0 0 0-2Zm-3 1a3 3 0 1 1 6 0 3 3 0 0 1-6 0ZM8.03 23.02a1 1 0 1 0-.02 2 1 1 0 0 0 .02-2Zm-3.01.97a3 3 0 1 1 6 .062 3 3 0 0 1-6-.063ZM24 23a1 1 0 1 0 0 2 1 1 0 0 0 0-2Zm-3 1a3 3 0 1 1 6 0 3 3 0 0 1-6 0Z" clip-rule="evenodd"/>
  <path fill-rule="evenodd" d="M18.32 18.32a1 1 0 0 1 1.414 0l3.453 3.453a1 1 0 0 1-1.414 1.414l-3.453-3.453a1 1 0 0 1 0-1.415ZM8.764 8.708a1 1 0 0 1 1.414.01l3.507 3.553a1 1 0 1 1-1.423 1.405l-3.507-3.553a1 1 0 0 1 .01-1.415Zm14.456-.095a1 1 0 0 1 .027 1.414l-3.5 3.64a1 1 0 1 1-1.441-1.387l3.5-3.64a1 1 0 0 1 1.414-.027Zm-9.54 9.707a1 1 0 0 1 0 1.414l-3.553 3.553a1 1 0 0 1-1.414-1.414l3.553-3.553a1 1 0 0 1 1.415 0ZM16 6.5a1 1 0 0 1 1 1v4.213a1 1 0 1 1-2 0V7.5a1 1 0 0 1 1-1Zm0 12.787a1 1 0 0 1 1 1V24.5a1 1 0 0 1-2 0v-4.213a1 1 0 0 1 1-1ZM19.287 16a1 1 0 0 1 1-1H24.5a1 1 0 0 1 0 2h-4.213a1 1 0 0 1-1-1ZM6 16a1 1 0 0 1 1-1h4.713a1 1 0 1 1 0 2H7a1 1 0 0 1-1-1Z" clip-rule="evenodd"/>
  <path fill-rule="evenodd" d="M16 13a3 3 0 1 0 0 6 3 3 0 0 0 0-6Zm-5 3a5 5 0 1 1 10 0 5 5 0 0 1-10 0Z" clip-rule="evenodd"/>
</svg>
