<svg xmlns="http://www.w3.org/2000/svg" width="32" height="32" fill="currentColor" viewBox="0 0 32 32">
  <path fill-rule="evenodd" d="M16 3.933C9.336 3.933 3.933 9.336 3.933 16c0 6.664 5.403 12.067 12.067 12.067 6.664 0 12.067-5.403 12.067-12.067 0-6.664-5.403-12.067-12.067-12.067ZM1.933 16C1.933 8.231 8.231 1.933 16 1.933S30.067 8.231 30.067 16 23.769 30.067 16 30.067 1.933 23.769 1.933 16Z" clip-rule="evenodd"/>
  <path fill-rule="evenodd" d="M16 11c-1.102 0-2 .898-2 2 0 1.102.898 2 2 2 2.207 0 4 1.793 4 4s-1.793 4-4 4c-2.205 0-4-1.783-4-4a1 1 0 1 1 2 0c0 1.102.898 2 2 2 1.102 0 2-.898 2-2 0-1.102-.898-2-2-2-2.207 0-4-1.793-4-4s1.793-4 4-4c2.205 0 4 1.783 4 4a1 1 0 1 1-2 0c0-1.102-.898-2-2-2Z" clip-rule="evenodd"/>
  <path fill-rule="evenodd" d="M16 6a1 1 0 0 1 1 1v2a1 1 0 1 1-2 0V7a1 1 0 0 1 1-1Zm0 16a1 1 0 0 1 1 1v2a1 1 0 1 1-2 0v-2a1 1 0 0 1 1-1Z" clip-rule="evenodd"/>
</svg>
