<svg xmlns="http://www.w3.org/2000/svg" width="32" height="32" fill="currentColor" viewBox="0 0 32 32">
  <path fill-rule="evenodd" d="M6.1 6.098C11.532.676 20.3.634 25.775 5.974l.231-2.084a1 1 0 1 1 1.988.22l-.5 4.5a1 1 0 0 1-1.104.884l-4.5-.5a1 1 0 0 1 .22-1.988l2.094.233c-4.702-4.408-12.09-4.317-16.691.275-4.684 4.683-4.685 12.279 0 16.973 4.684 4.684 12.28 4.685 16.975 0a11.995 11.995 0 0 0 3.032-11.852 1 1 0 0 1 1.92-.559c1.382 4.743.208 10.079-3.539 13.825-5.475 5.465-14.336 5.466-19.802 0-5.465-5.475-5.466-14.337 0-19.802ZM14 13c0-1.102.898-2 2-2 1.102 0 2 .898 2 2a1 1 0 1 0 2 0 3.998 3.998 0 0 0-3.008-3.876c.005-.04.008-.082.008-.124V7a1 1 0 1 0-2 0v2c0 .042.003.084.008.124A4.006 4.006 0 0 0 12 13c0 2.207 1.793 4 4 4 1.102 0 2 .898 2 2 0 1.102-.898 2-2 2-1.102 0-2-.898-2-2a1 1 0 1 0-2 0 3.998 3.998 0 0 0 3.008 3.876c-.005.04-.008.082-.008.124v2a1 1 0 1 0 2 0v-2c0-.042-.003-.084-.008-.124A4.006 4.006 0 0 0 20 19c0-2.207-1.793-4-4-4-1.102 0-2-.898-2-2Z" clip-rule="evenodd"/>
</svg>
