<svg xmlns="http://www.w3.org/2000/svg" width="32" height="32" fill="currentColor" viewBox="0 0 32 32">
  <path fill-rule="evenodd" d="M3.933 16C3.933 9.336 9.336 3.933 16 3.933c6.664 0 12.067 5.403 12.067 12.067 0 6.664-5.403 12.067-12.067 12.067-6.664 0-12.067-5.403-12.067-12.067ZM16 1.933C8.231 1.933 1.933 8.231 1.933 16S8.231 30.067 16 30.067 30.067 23.769 30.067 16 23.769 1.933 16 1.933ZM14 13c0-1.102.898-2 2-2 1.102 0 2 .898 2 2a1 1 0 1 0 2 0 3.998 3.998 0 0 0-3.008-3.876c.005-.04.008-.082.008-.124V7a1 1 0 1 0-2 0v2c0 .042.003.084.008.124A4.006 4.006 0 0 0 12 13c0 2.207 1.793 4 4 4 1.102 0 2 .898 2 2 0 1.102-.898 2-2 2-1.102 0-2-.898-2-2a1 1 0 1 0-2 0 3.998 3.998 0 0 0 3.008 3.876c-.005.04-.008.082-.008.124v2a1 1 0 1 0 2 0v-2c0-.042-.003-.084-.008-.124A4.006 4.006 0 0 0 20 19c0-2.207-1.793-4-4-4-1.102 0-2-.898-2-2Z" clip-rule="evenodd"/>
</svg>
