<svg xmlns="http://www.w3.org/2000/svg" width="32" height="32" fill="currentColor" viewBox="0 0 32 32">
  <path fill-rule="evenodd" d="M27.11 3.006a1 1 0 0 1 .884 1.104l-.5 4.5a1 1 0 0 1-1.104.884l-4.5-.5a1 1 0 0 1 .22-1.988l3.506.39.39-3.506a1 1 0 0 1 1.104-.884Z" clip-rule="evenodd"/>
  <path fill-rule="evenodd" d="M6.1 6.098c5.475-5.464 14.336-5.465 19.8 0a1 1 0 0 1-1.414 1.415c-4.683-4.684-12.28-4.685-16.974 0-4.684 4.684-4.685 12.28 0 16.974 4.684 4.684 12.28 4.685 16.975 0a11.995 11.995 0 0 0 3.032-11.852 1 1 0 0 1 1.92-.559c1.382 4.743.208 10.079-3.539 13.825-5.475 5.465-14.336 5.466-19.802 0-5.465-5.475-5.466-14.337 0-19.802Z" clip-rule="evenodd"/>
  <path fill-rule="evenodd" d="M16 11c-1.102 0-2 .898-2 2 0 1.102.898 2 2 2 2.207 0 4 1.793 4 4s-1.793 4-4 4c-2.205 0-4-1.783-4-4a1 1 0 1 1 2 0c0 1.102.898 2 2 2 1.102 0 2-.898 2-2 0-1.102-.898-2-2-2-2.207 0-4-1.793-4-4s1.793-4 4-4c2.205 0 4 1.783 4 4a1 1 0 1 1-2 0c0-1.102-.898-2-2-2Z" clip-rule="evenodd"/>
  <path fill-rule="evenodd" d="M16 6a1 1 0 0 1 1 1v2a1 1 0 1 1-2 0V7a1 1 0 0 1 1-1Zm0 16a1 1 0 0 1 1 1v2a1 1 0 1 1-2 0v-2a1 1 0 0 1 1-1Z" clip-rule="evenodd"/>
</svg>
