<svg xmlns="http://www.w3.org/2000/svg" width="32" height="32" fill="currentColor" viewBox="0 0 32 32">
  <path fill-rule="evenodd" d="M7.925 5.388a2.89 2.89 0 0 1 2.477-1.394H21.57a2.91 2.91 0 0 1 2.474 1.387l.003.005 5.538 9.131a2.856 2.856 0 0 1 0 2.945v.002l-5.528 9.137a2.89 2.89 0 0 1-2.478 1.393H10.412a2.91 2.91 0 0 1-2.474-1.387l-.004-.006-5.527-9.137-.002-.002a2.856 2.856 0 0 1 0-2.945l.001-.002 5.519-9.127Zm2.477.625a.871.871 0 0 0-.75.419l-5.517 9.126a.84.84 0 0 0 0 .863l5.523 9.13.001.002c.163.262.45.423.753.423h11.166c.31 0 .593-.159.75-.42l5.527-9.134a.84.84 0 0 0 0-.863v-.001l-5.532-9.12-.001-.002a.892.892 0 0 0-.753-.423H10.402Zm7.093 16.473a1.5 1.5 0 1 1-2.999 0 1.5 1.5 0 0 1 3 0ZM17.244 9.25a1.249 1.249 0 0 0-2.498 0v8.493a1.249 1.249 0 1 0 2.498 0V9.25Z" clip-rule="evenodd"/>
</svg>
