<svg xmlns="http://www.w3.org/2000/svg" width="32" height="32" fill="currentColor" viewBox="0 0 32 32">
  <path fill-rule="evenodd" d="M27.963 15.911 16.09 4.037a.126.126 0 0 0-.178 0L4.037 15.91a.126.126 0 0 0 0 .178L15.91 27.963c.05.05.129.05.178 0L27.963 16.09a.126.126 0 0 0 0-.178ZM17.503 2.623a2.126 2.126 0 0 0-3.006 0L2.623 14.497c-.83.83-.83 2.176 0 3.006l11.874 11.874c.83.83 2.176.83 3.006 0l11.874-11.874c.83-.83.83-2.176 0-3.006L17.503 2.623ZM16 8a1 1 0 0 1 1 1v8a1 1 0 1 1-2 0V9a1 1 0 0 1 1-1Zm0 14a1 1 0 1 0 0-2 1 1 0 0 0 0 2Z" clip-rule="evenodd"/>
</svg>
