<svg xmlns="http://www.w3.org/2000/svg" width="32" height="32" fill="currentColor" viewBox="0 0 32 32">
  <path fill-rule="evenodd" d="m3.558 8.039 11.81-5.814a.997.997 0 0 1 .66-.225c.243-.007.481.075.668.23l11.732 5.866a.995.995 0 0 1 .421.376A.99.99 0 0 1 29 9v13.98a1 1 0 0 1-.574.925l-11.96 5.98a.996.996 0 0 1-.932 0l-11.961-5.98A1 1 0 0 1 3 22.976V8.968a1 1 0 0 1 .558-.93ZM17 27.382l10-5V10.618l-10 5v11.764Zm-2-11.764v11.764l-10-5V10.618l10 5Zm1.025-11.487L25.764 9 16 13.882 6.185 8.975l9.84-4.844Z" clip-rule="evenodd"/>
</svg>
