<svg xmlns="http://www.w3.org/2000/svg" width="32" height="32" fill="currentColor" viewBox="0 0 32 32">
  <path fill-rule="evenodd" d="M2.293 2.293a1 1 0 0 1 1.414 0l4.544 4.544A11.952 11.952 0 0 1 16 4c2.954 0 5.658 1.067 7.749 2.837l4.544-4.544a1 1 0 1 1 1.414 1.414l-4.544 4.544A11.953 11.953 0 0 1 28 16c0 2.954-1.067 5.658-2.837 7.749l4.544 4.544a1 1 0 0 1-1.414 1.414l-4.544-4.544A11.952 11.952 0 0 1 16 28a11.953 11.953 0 0 1-7.749-2.837l-4.544 4.544a1 1 0 0 1-1.414-1.414l4.544-4.544A11.952 11.952 0 0 1 4 16c0-2.954 1.067-5.658 2.837-7.749L2.293 3.707a1 1 0 0 1 0-1.414ZM6 16c0-5.523 4.477-10 10-10s10 4.477 10 10-4.477 10-10 10S6 21.523 6 16Z" clip-rule="evenodd"/>
</svg>
