<svg xmlns="http://www.w3.org/2000/svg" width="32" height="32" fill="currentColor" viewBox="0 0 32 32">
  <path fill-rule="evenodd" d="M6 4a2 2 0 0 0-2 2v8a1 1 0 1 0 2 0V6h8a1 1 0 1 0 0-2H6Zm12 0a1 1 0 1 0 0 2h8v8a1 1 0 1 0 2 0V6a2 2 0 0 0-2-2h-8Zm9 13a1 1 0 0 1 1 1v8a2 2 0 0 1-2 2h-8a1 1 0 1 1 0-2h8v-8a1 1 0 0 1 1-1ZM6 18a1 1 0 1 0-2 0v8a2 2 0 0 0 2 2h8a1 1 0 1 0 0-2H6v-8Zm10 0a2 2 0 1 0 0-4 2 2 0 0 0 0 4Zm-6.802-.18A8.805 8.805 0 0 0 15.993 21a8.79 8.79 0 0 0 6.794-3.18l.98-1.18c.31-.37.31-.91 0-1.28l-.98-1.18A8.79 8.79 0 0 0 15.993 11a8.79 8.79 0 0 0-6.795 3.18s-.71.82-.98 1.18c-.265.354-.309.89-.017 1.26-.04-.048.06.074.997 1.2Zm1.541-1.28-.45-.54.45-.54A6.804 6.804 0 0 1 15.993 13c2.04 0 3.962.9 5.253 2.46l.45.54-.45.54a6.794 6.794 0 0 1-5.253 2.45c-2.052 0-3.963-.89-5.254-2.45Z" clip-rule="evenodd"/>
</svg>
