<svg xmlns="http://www.w3.org/2000/svg" width="32" height="32" fill="currentColor" viewBox="0 0 32 32">
  <path fill-rule="evenodd" d="M6 19a1 1 0 0 1 1 1v5.598c0 .214.174.402.417.402H14a1 1 0 1 1 0 2H7.417A2.407 2.407 0 0 1 5 25.598V20a1 1 0 0 1 1-1Z" clip-rule="evenodd"/>
  <path fill-rule="evenodd" d="M11.293 24.293a1 1 0 0 1 1.414 0l2 2a1 1 0 0 1 0 1.414l-2 2a1 1 0 0 1-1.414-1.414L12.586 27l-1.293-1.293a1 1 0 0 1 0-1.414ZM17 5a1 1 0 0 1 1-1h6.45C25.767 4 27 4.984 27 6.402V12a1 1 0 1 1-2 0V6.402C25 6.27 24.853 6 24.45 6H18a1 1 0 0 1-1-1Z" clip-rule="evenodd"/>
  <path fill-rule="evenodd" d="M20.707 2.293a1 1 0 0 1 0 1.414L19.414 5l1.293 1.293a1 1 0 0 1-1.414 1.414l-2-2a1 1 0 0 1 0-1.414l2-2a1 1 0 0 1 1.414 0ZM8.5 4a1.5 1.5 0 1 0 0 3 1.5 1.5 0 0 0 0-3ZM5 5.5a3.5 3.5 0 1 1 7 0 3.5 3.5 0 0 1-7 0Zm-3 7.267A2.737 2.737 0 0 1 4.727 10h7.546C13.803 10 15 11.26 15 12.759v.007l-.019 2.713a1.513 1.513 0 0 1-1.512 1.512h-.01a878.2 878.2 0 0 0-7.108.003c-1.19.003-2.219.006-2.81.006-.83 0-1.52-.67-1.522-1.52v-.005h1l-1 .007v-.002L2 12.768l1-.01-1 .007v.001ZM4.727 12a.737.737 0 0 0-.727.749v.003L4.016 15l2.298-.006c2.28-.006 5.168-.014 6.67-.007L13 12.756a.743.743 0 0 0-.727-.756H4.727ZM23.5 17a1.5 1.5 0 1 0 0 3 1.5 1.5 0 0 0 0-3ZM20 18.5a3.5 3.5 0 1 1 7 0 3.5 3.5 0 0 1-7 0Zm-3 7.268A2.738 2.738 0 0 1 19.73 23h7.542C28.802 23 30 24.26 30 25.759v.004l-.01 2.366v.016a1.88 1.88 0 0 1-1.873 1.846h-.005c-1.302-.006-3.862 0-6.08.004-1.256.003-2.403.005-3.148.005a1.866 1.866 0 0 1-1.865-1.86L17 25.768v-.001ZM19.73 25a.738.738 0 0 0-.729.749v.002L19.018 28c.736 0 1.815-.003 2.993-.005 2.152-.005 4.637-.01 5.98-.005L28 25.76v-.002a.744.744 0 0 0-.729-.757H19.73Z" clip-rule="evenodd"/>
</svg>
