<svg xmlns="http://www.w3.org/2000/svg" width="32" height="32" fill="currentColor" viewBox="0 0 32 32">
  <path fill-rule="evenodd" d="M7.442 4C6.673 4 6 4.656 6 5.496V8h1a1 1 0 1 1 0 2H3a1 1 0 1 1 0-2h1V5.496C4 3.593 5.528 2 7.442 2h16.116C25.473 2 27 3.593 27 5.496V13a1 1 0 1 1-2 0V5.496C25 4.656 24.327 4 23.558 4H7.442ZM5 24.95a1 1 0 0 1 1 1v.554C6 27.344 6.673 28 7.442 28H13a1 1 0 1 1 0 2H7.442C5.528 30 4 28.407 4 26.504v-.554a1 1 0 0 1 1-1ZM2 16a1 1 0 0 1 1-1h1v-3a1 1 0 1 1 2 0v3h1a1 1 0 1 1 0 2H3a1 1 0 0 1-1-1Zm0 7a1 1 0 0 1 1-1h1v-3a1 1 0 1 1 2 0v3h1a1 1 0 1 1 0 2H3a1 1 0 0 1-1-1Zm14.595 6.41c.38.38.89.59 1.42.59v-.01c.17 0 .33-.02.5-.06l2.432-.61c.17-.04.33-.13.46-.26l7.663-7.659a3.161 3.161 0 0 0 0-4.479 3.183 3.183 0 0 0-4.482 0l-7.663 7.679c-.12.12-.22.28-.26.46l-.61 2.43h.01c-.18.7.02 1.41.53 1.92Zm1.4-1.43v-.01l.54-2.16 7.474-7.468a1.16 1.16 0 0 1 1.65 0c.45.46.45 1.2 0 1.65l-7.463 7.459-2.2.53Z" clip-rule="evenodd"/>
</svg>
