<svg xmlns="http://www.w3.org/2000/svg" width="32" height="32" fill="currentColor" viewBox="0 0 32 32">
  <path fill-rule="evenodd" d="M4.905 4C4.45 4 4 4.401 4 5v3c0 .599.45 1 .905 1h6.19C11.55 9 12 8.599 12 8V5c0-.599-.45-1-.905-1h-6.19ZM2 5c0-1.61 1.255-3 2.905-3h6.19C12.745 2 14 3.39 14 5v3c0 1.61-1.255 3-2.905 3h-6.19C3.255 11 2 9.61 2 8V5Zm2.905 10c-.5 0-.905.405-.905.905v11.19c0 .5.405.905.905.905h6.19c.5 0 .905-.405.905-.905v-11.19c0-.5-.405-.905-.905-.905h-6.19ZM2 15.905C2 14.3 3.3 13 4.905 13h6.19C12.7 13 14 14.3 14 15.905v11.19C14 28.7 12.7 30 11.095 30h-6.19A2.905 2.905 0 0 1 2 27.095v-11.19ZM27.095 28c.454 0 .905-.401.905-1v-3c0-.599-.45-1-.905-1h-6.19c-.454 0-.905.401-.905 1v3c0 .599.45 1 .905 1h6.19ZM30 27c0 1.61-1.255 3-2.905 3h-6.19C19.255 30 18 28.61 18 27v-3c0-1.61 1.255-3 2.905-3h6.19C28.745 21 30 22.39 30 24v3Zm-2.905-10c.5 0 .905-.405.905-.905V4.905c0-.5-.405-.905-.905-.905h-6.19c-.5 0-.905.405-.905.905v11.19c0 .5.405.905.905.905h6.19ZM30 16.095C30 17.7 28.7 19 27.095 19h-6.19A2.905 2.905 0 0 1 18 16.095V4.905C18 3.3 19.3 2 20.905 2h6.19C28.7 2 30 3.3 30 4.905v11.19Z" clip-rule="evenodd"/>
</svg>
