<svg xmlns="http://www.w3.org/2000/svg" width="32" height="32" fill="currentColor" viewBox="0 0 32 32">
  <path fill-rule="evenodd" d="M4 5c0-.599.45-1 .905-1h6.19c.454 0 .905.401.905 1v3c0 .599-.45 1-.905 1h-6.19C4.45 9 4 8.599 4 8V5Zm.905-3C3.255 2 2 3.39 2 5v3c0 1.61 1.255 3 2.905 3h6.19C12.745 11 14 9.61 14 8V5c0-1.61-1.255-3-2.905-3h-6.19ZM4 15.905c0-.5.405-.905.905-.905h6.19c.5 0 .905.405.905.905v11.19c0 .5-.405.905-.905.905h-6.19A.905.905 0 0 1 4 27.095v-11.19ZM4.905 13A2.905 2.905 0 0 0 2 15.905v11.19C2 28.7 3.3 30 4.905 30h6.19C12.7 30 14 28.7 14 27.095v-11.19C14 14.3 12.7 13 11.095 13h-6.19Zm22.19 15c.454 0 .905-.401.905-1v-3c0-.599-.45-1-.905-1h-6.19c-.454 0-.905.401-.905 1v3c0 .599.45 1 .905 1h6.19ZM30 27c0 1.61-1.255 3-2.905 3h-6.19C19.255 30 18 28.61 18 27v-3c0-1.61 1.255-3 2.905-3h6.19C28.745 21 30 22.39 30 24v3Zm-2-10.905c0 .5-.405.905-.905.905h-6.19a.905.905 0 0 1-.905-.905V4.905c0-.5.405-.905.905-.905h6.19c.5 0 .905.405.905.905v11.19ZM27.095 19C28.7 19 30 17.7 30 16.095V4.905C30 3.3 28.7 2 27.095 2h-6.19A2.905 2.905 0 0 0 18 4.905v11.19C18 17.7 19.3 19 20.905 19h6.19Z" clip-rule="evenodd"/>
</svg>
