<svg xmlns="http://www.w3.org/2000/svg" width="32" height="32" fill="currentColor" viewBox="0 0 32 32">
  <path fill-rule="evenodd" d="M7 2a5 5 0 0 0-5 5v18a5 5 0 0 0 5 5h8a1 1 0 1 0 0-2H7a3 3 0 0 1-3-3v-4h10a1 1 0 1 0 0-2H4v-6h16v1a1 1 0 1 0 2 0V7a5 5 0 0 0-5-5H7Zm-3 9h16V7a3 3 0 0 0-3-3H7a3 3 0 0 0-3 3v4Zm3-4a1 1 0 1 0 0 2 1 1 0 0 0 0-2Zm-1 9a1 1 0 1 1 2 0 1 1 0 0 1-2 0Zm1 7a1 1 0 1 0 0 2 1 1 0 0 0 0-2Zm15-5a4 4 0 1 0 0 8 4 4 0 0 0 0-8Zm-6 4a6 6 0 1 1 10.89 3.477l2.817 2.816a1 1 0 0 1-1.414 1.414l-2.816-2.816A6 6 0 0 1 16 22Z" clip-rule="evenodd"/>
</svg>
