<svg xmlns="http://www.w3.org/2000/svg" width="32" height="32" fill="currentColor" viewBox="0 0 32 32">
  <path fill-rule="evenodd" d="M2 7a5 5 0 0 1 5-5h10a5 5 0 0 1 5 5v7a1 1 0 1 1-2 0v-1H4v6h10a1 1 0 1 1 0 2H4v4a3 3 0 0 0 3 3h8a1 1 0 1 1 0 2H7a5 5 0 0 1-5-5V7Zm18 4H4V7a3 3 0 0 1 3-3h10a3 3 0 0 1 3 3v4ZM6 8a1 1 0 1 1 2 0 1 1 0 0 1-2 0Zm1 7a1 1 0 1 0 0 2 1 1 0 0 0 0-2Zm-1 9a1 1 0 1 1 2 0 1 1 0 0 1-2 0Zm10.203-7.04c.32-.59.955-.955 1.664-.96h10.251c.716 0 1.357.366 1.679.96a1.656 1.656 0 0 1-.303 1.986l-.002.002L26 22.416V26a1 1 0 0 1-.221.627l-2.143 2.661c-.489.619-1.253.85-1.944.631-.693-.22-1.192-.864-1.192-1.67v-5.775l-1.777-1.456a1.02 1.02 0 0 1-.05-.044L16.53 18.97a1.656 1.656 0 0 1-.326-2.009ZM27.608 18h-9.186l1.593 1.491 2.119 1.735A1 1 0 0 1 22.5 22v5.51l1.5-1.863V22a1 1 0 0 1 .295-.71L27.608 18Z" clip-rule="evenodd"/>
</svg>
