<svg xmlns="http://www.w3.org/2000/svg" width="32" height="32" fill="currentColor" viewBox="0 0 32 32">
  <path d="M17 2a5 5 0 0 1 5 5v8a1 1 0 1 1-2 0v-2H4v6h10a1 1 0 1 1 0 2H4v4a3 3 0 0 0 3 3h3a1 1 0 1 1 0 2H7a5 5 0 0 1-5-5V7a5 5 0 0 1 5-5h10Zm4.581 15c2.547 0 4.65 1.763 5.337 4.114.75.2 1.413.642 1.918 1.196.696.762 1.164 1.81 1.164 2.937 0 2.5-1.611 4.753-4.262 4.753h-8.851C14.679 30 13 28.146 13 26.001a3.9 3.9 0 0 1 2.417-3.594h.001c.2-.081.403-.138.61-.174C16.304 19.332 18.644 17 21.58 17Zm0 2c-1.822 0-3.392 1.474-3.565 3.447a1 1 0 0 1-.612 1.886l-.415-.077a.992.992 0 0 1-.053-.012c-.283-.07-.471-.067-.623-.03l-.142.046A1.901 1.901 0 0 0 15 26c0 1.13.87 1.999 1.887 1.999h8.851C26.986 28 28 26.966 28 25.247c0-.577-.244-1.154-.64-1.589-.4-.438-.885-.658-1.305-.658-.463 0-.76.134-.975.293a1 1 0 1 1-1.19-1.607c.27-.2.581-.37.936-.49C24.25 19.88 22.995 19 21.581 19ZM7 23a1 1 0 1 1 0 2 1 1 0 0 1 0-2Zm0-8a1 1 0 1 1 0 2 1 1 0 0 1 0-2ZM7 4a3 3 0 0 0-3 3v4h16V7a3 3 0 0 0-3-3H7Zm0 3a1 1 0 1 1 0 2 1 1 0 0 1 0-2Z"/>
</svg>
