<svg xmlns="http://www.w3.org/2000/svg" width="32" height="32" fill="currentColor" viewBox="0 0 32 32">
  <path fill-rule="evenodd" d="M8 2a5 5 0 0 0-5 5v18a5 5 0 0 0 5 5h4a1 1 0 1 0 0-2H8a3 3 0 0 1-3-3v-4h8a1 1 0 1 0 0-2H5v-6h18a1 1 0 1 0 2 0V7a5 5 0 0 0-5-5H8Zm-3 9h18V7a3 3 0 0 0-3-3H8a3 3 0 0 0-3 3v4Zm4-4a1 1 0 1 0 0 2 1 1 0 0 0 0-2Zm-1 9a1 1 0 1 1 2 0 1 1 0 0 1-2 0Zm1 7a1 1 0 1 0 0 2 1 1 0 0 0 0-2Zm7 0a7 7 0 0 1 7-7 7 7 0 1 1 0 14 7 7 0 0 1-7-7Zm7-5a5 5 0 0 0-5 5 5 5 0 1 0 10 0 5 5 0 0 0-5-5Zm2.819 3.574a1 1 0 0 0-1.638-1.148L22.2 23.254l-.379-.543a1 1 0 0 0-1.64 1.144l1.196 1.717a1 1 0 0 0 1.64.002l2.803-4Z" clip-rule="evenodd"/>
</svg>
