<svg xmlns="http://www.w3.org/2000/svg" width="32" height="32" fill="currentColor" viewBox="0 0 32 32">
  <path d="M15.5 2c2.977 0 5.714.4 7.741 1.076 1.008.336 1.896.76 2.553 1.277.298.234.577.514.792.837.25.182.414.477.414.81v19.398c0 .923-.546 1.654-1.194 2.181-.657.533-1.546.968-2.556 1.315C21.22 29.589 18.48 30 15.5 30c-2.982 0-5.722-.414-7.751-1.11-1.01-.347-1.899-.782-2.555-1.315C4.547 27.05 4 26.32 4 25.398V6a1 1 0 0 1 .413-.81c.215-.323.495-.603.793-.837.657-.518 1.545-.94 2.553-1.277C9.786 2.4 12.523 2 15.5 2ZM6 25.398c0 .07.04.288.455.625.406.329 1.054.67 1.943.975 1.77.608 4.28 1.002 7.102 1.002s5.332-.393 7.102-.999c.89-.305 1.537-.645 1.943-.975.413-.335.455-.554.455-.628V21.93a9.898 9.898 0 0 1-1.718.835C21.242 23.542 18.491 24 15.5 24c-2.991 0-5.742-.46-7.782-1.238A9.942 9.942 0 0 1 6 21.927v3.47ZM8 24a1 1 0 1 1 0 2 1 1 0 0 1 0-2Zm-2-5c0 .169.086.445.494.813.407.366 1.053.743 1.936 1.08 1.76.67 4.258 1.107 7.07 1.107 2.812 0 5.311-.434 7.07-1.104.883-.336 1.529-.712 1.936-1.079.407-.366.494-.644.494-.817v-3.585a11.1 11.1 0 0 1-1.8.67c-2.014.574-4.737.915-7.705.915s-5.69-.343-7.7-.918c-.66-.19-1.27-.412-1.795-.668V19Zm2-1.5a1 1 0 1 1 0 2 1 1 0 0 1 0-2Zm17-8.331c-.518.288-1.113.54-1.759.755C21.214 10.6 18.477 11 15.5 11c-2.977 0-5.714-.4-7.741-1.076A10.394 10.394 0 0 1 6 9.169v3.805c.009.022.069.152.384.365.407.275 1.062.563 1.962.82 1.785.511 4.312.841 7.15.841 2.837 0 5.366-.328 7.154-.838.901-.257 1.558-.545 1.965-.82.315-.213.376-.343.385-.366V9.169ZM8 11a1 1 0 1 1 0 2 1 1 0 0 1 0-2Zm7.5-7c-2.822 0-5.335.383-7.108.974-.892.297-1.542.629-1.948.949C6.027 6.252 6 6.454 6 6.5c0 .046.027.248.444.577.406.32 1.056.652 1.948.95 1.773.59 4.286.973 7.108.973s5.335-.383 7.108-.974c.892-.297 1.542-.629 1.948-.949.417-.329.444-.531.444-.577 0-.046-.027-.248-.444-.577-.406-.32-1.056-.652-1.948-.95C20.835 4.384 18.322 4 15.5 4Z"/>
</svg>
