<svg xmlns="http://www.w3.org/2000/svg" width="32" height="32" fill="currentColor" viewBox="0 0 32 32">
  <path fill-rule="evenodd" d="M15 4.632c0-.1.047-.24.219-.38.173-.14.447-.252.781-.252.33 0 .605.11.79.258.16.13.21.267.21.374V5h-2v-.368ZM13 5v-.368C13 2.993 14.55 2 16 2c.77 0 1.49.257 2.04.698.573.458.96 1.144.96 1.934V5h6a1 1 0 1 1 0 2H7a1 1 0 0 1 0-2h6Zm-5 6.316v.001l.865 12.942c.142 2.15 1.915 3.808 4.032 3.808h5.829c2.117 0 3.89-1.658 4.032-3.808l.864-12.961a.27.27 0 0 0-.257-.29H8.267c-.135 0-.277.124-.266.308Zm10.756 18.75h-5.859c-3.182 0-5.816-2.485-6.028-5.674l-.864-12.95c-.082-1.29.928-2.434 2.262-2.434h15.098c1.316 0 2.335 1.126 2.253 2.417v.003l-.865 12.963c-.21 3.18-2.829 5.66-5.997 5.676ZM13 14a1 1 0 0 1 1 1v8.895a1 1 0 1 1-2 0V15a1 1 0 0 1 1-1Zm7 1a1 1 0 1 0-2 0v8.895a1 1 0 1 0 2 0V15Z" clip-rule="evenodd"/>
</svg>
