<svg xmlns="http://www.w3.org/2000/svg" width="32" height="32" fill="currentColor" viewBox="0 0 32 32">
  <path fill-rule="evenodd" d="M8 11.316v.001l.865 12.942c.142 2.15 1.915 3.808 4.032 3.808h5.829c2.117 0 3.89-1.658 4.032-3.808l.864-12.961a.27.27 0 0 0-.257-.29H8.267c-.135 0-.277.124-.266.308Zm10.756 18.75h-5.859c-3.182 0-5.816-2.485-6.028-5.674l-.864-12.95c-.082-1.29.928-2.434 2.262-2.434h15.098c1.316 0 2.335 1.126 2.253 2.417v.003l-.865 12.963c-.21 3.18-2.829 5.66-5.997 5.676Z" clip-rule="evenodd"/>
  <path fill-rule="evenodd" d="M13 14a1 1 0 0 1 1 1v8.895a1 1 0 1 1-2 0V15a1 1 0 0 1 1-1Zm6 0a1 1 0 0 1 1 1v8.895a1 1 0 1 1-2 0V15a1 1 0 0 1 1-1ZM6 6a1 1 0 0 1 1-1h18a1 1 0 1 1 0 2H7a1 1 0 0 1-1-1Z" clip-rule="evenodd"/>
  <path fill-rule="evenodd" d="M15.219 4.253c-.171.139-.219.278-.219.38V5a1 1 0 1 1-2 0v-.368C13 2.993 14.55 2 16 2c.77 0 1.49.257 2.04.698.573.458.96 1.144.96 1.934V5a1 1 0 1 1-2 0v-.368c0-.107-.05-.244-.21-.374A1.266 1.266 0 0 0 16 4a1.24 1.24 0 0 0-.781.253Z" clip-rule="evenodd"/>
</svg>
