<svg xmlns="http://www.w3.org/2000/svg" width="32" height="32" fill="currentColor" viewBox="0 0 32 32">
  <path fill-rule="evenodd" d="M15.37 2.225a1 1 0 0 1 1.337.068l2 2 .068.076a1 1 0 0 1-1.406 1.406l-.076-.068L17 5.414v4.67c.911.153 1.753.51 2.476 1.025L23.586 7H23a1 1 0 0 1 0-2h3a1 1 0 0 1 .995.897L27 6v3a1 1 0 0 1-2 0v-.587l-4.111 4.111a5.963 5.963 0 0 1 1.026 2.48c.028-.002.056-.004.085-.004h4.586l-.293-.293-.068-.076a1 1 0 0 1 1.406-1.406l.076.068 2 2 .008.009a1 1 0 0 1 .106.13l.02.028a.961.961 0 0 1 .031.053l.016.027A1.03 1.03 0 0 1 30 16a.998.998 0 0 1-.158.537l-.023.032a.957.957 0 0 1-.099.121l-.013.017-2 2a1 1 0 0 1-1.414-1.414l.293-.293H22c-.028 0-.056-.003-.084-.005a5.964 5.964 0 0 1-1.027 2.48L25 23.585V23a1 1 0 1 1 2 0v3l-.005.102A1 1 0 0 1 26 27h-3a1 1 0 0 1 0-2h.586l-4.111-4.111a5.963 5.963 0 0 1-2.48 1.026c.002.028.005.056.005.085v4.586l.293-.293a1 1 0 1 1 1.414 1.414l-2 2a1 1 0 0 1-1.338.068l-.076-.068-2-2-.068-.076a1 1 0 0 1 1.406-1.406l.076.068.293.293V22c0-.029.002-.057.004-.085a5.964 5.964 0 0 1-2.48-1.026L8.414 25H9a1 1 0 0 1 0 2H6a1 1 0 0 1-.995-.898L5 26v-3a1 1 0 1 1 2 0v.585l4.11-4.11A5.963 5.963 0 0 1 10.085 17h-4.67l.292.293.068.076a1 1 0 0 1-1.406 1.406l-.076-.068-2-2a1 1 0 0 1 0-1.414l2-2 .076-.068a1 1 0 0 1 1.406 1.406l-.068.076-.293.293h4.671a5.964 5.964 0 0 1 1.025-2.476L7 8.414V9a1 1 0 0 1-2 0V6l.005-.103A1 1 0 0 1 6 5h3a1 1 0 0 1 0 2h-.586l4.11 4.11A5.967 5.967 0 0 1 15 10.083v-4.67l-.293.293a1 1 0 0 1-1.414-1.414l2-2 .076-.068ZM16 12a4 4 0 1 0 0 8 4 4 0 0 0 0-8Z" clip-rule="evenodd"/>
</svg>
