<svg xmlns="http://www.w3.org/2000/svg" width="32" height="32" fill="currentColor" viewBox="0 0 32 32">
  <path fill-rule="evenodd" d="M5.567 6C4.684 6 4 6.698 4 7.52V19h24V7.52C28 6.697 27.316 6 26.433 6H5.567ZM28 21H4v.48c0 .822.684 1.52 1.567 1.52h20.866c.883 0 1.567-.698 1.567-1.52V21ZM2 20v1.48C2 23.443 3.615 25 5.567 25H15v3h-5a1 1 0 1 0 0 2h12a1 1 0 1 0 0-2h-5v-3h9.433C28.385 25 30 23.442 30 21.48V7.52C30 5.557 28.385 4 26.433 4H5.567C3.615 4 2 5.558 2 7.52V20ZM18.869 9.484a.987.987 0 0 0-.37-1.357 1.013 1.013 0 0 0-1.368.389l-4 7a.987.987 0 0 0 .37 1.357c.48.267 1.092.093 1.368-.389l4-7Zm-7.244-.265a1 1 0 0 1 .156 1.406l-1.5 1.875 1.5 1.875a1 1 0 1 1-1.562 1.25l-2-2.5a1 1 0 0 1 0-1.25l2-2.5a1 1 0 0 1 1.406-.156Zm8.75 0a1 1 0 0 1 1.406.156l2 2.5a1 1 0 0 1 0 1.25l-2 2.5a1 1 0 1 1-1.562-1.25l1.5-1.875-1.5-1.875a1 1 0 0 1 .156-1.406Z" clip-rule="evenodd"/>
</svg>
