<svg xmlns="http://www.w3.org/2000/svg" width="32" height="32" fill="currentColor" viewBox="0 0 32 32">
  <path fill-rule="evenodd" d="M11.88 13.945c-1.033 0-1.935.881-1.935 2.055 0 1.174.902 2.055 1.935 2.055.548 0 1.075-.215 1.57-.57a.945.945 0 0 1 1.101 1.536c-.705.506-1.61.924-2.67.924-2.148 0-3.826-1.799-3.826-3.945s1.678-3.945 3.825-3.945c1.621 0 2.884.975 3.667 1.79a9.179 9.179 0 0 1 1.252 1.649l.02.034.006.01.002.004v.002s-.343-.844-1.17-.389c-.829.455-.485 1.3-.485 1.3l-.01-.016a6.409 6.409 0 0 0-.238-.372 7.284 7.284 0 0 0-.739-.912c-.659-.685-1.456-1.21-2.305-1.21Zm3.292 2.51v.002l.002.001.002.004.005.01.02.034.068.114a9.186 9.186 0 0 0 1.184 1.535c.784.815 2.046 1.79 3.667 1.79 2.147 0 3.825-1.799 3.825-3.945s-1.678-3.945-3.825-3.945c-1.153 0-2.195.684-2.788 1.277a.945.945 0 0 0 1.336 1.336c.407-.407.997-.723 1.452-.723 1.033 0 1.935.881 1.935 2.055 0 1.174-.902 2.055-1.935 2.055-.849 0-1.646-.525-2.305-1.21a7.292 7.292 0 0 1-.978-1.284l-.01-.017s-.343-.844-1.17-.389c-.829.455-.485 1.3-.485 1.3Z" clip-rule="evenodd"/>
  <path d="M11.604 30a1.71 1.71 0 0 1-.924-.261l-3.388-2.054c-.85-.513-1.148-1.652-.663-2.529l1.158-2.11a11.847 11.847 0 0 1-1.708-3.154l-2.25.028C2.821 19.92 2 19.08 2 18.044v-4.097c0-1.036.821-1.876 1.83-1.876h2.305a10.47 10.47 0 0 1 1.661-3.099L6.629 6.835c-.485-.878-.186-2.016.663-2.53l3.388-2.044c.42-.252.915-.326 1.39-.196a1.81 1.81 0 0 1 1.13.896l1.157 2.1c.952-.224 2.259-.205 3.37-.018L18.8 2.952a1.81 1.81 0 0 1 1.13-.896c.475-.13.97-.056 1.39.196l3.388 2.053c.85.514 1.148 1.652.663 2.53l-1.158 2.109a11.844 11.844 0 0 1 1.708 3.155l2.25-.028c1.008 0 1.829.84 1.829 1.876v4.097c0 1.036-.821 1.876-1.83 1.876h-2.305a10.355 10.355 0 0 1-1.661 3.099l1.167 2.137c.485.877.186 2.016-.663 2.53l-3.388 2.053c-.42.252-.915.326-1.39.196a1.81 1.81 0 0 1-1.13-.896l-1.157-2.1c-.971.214-2.25.205-3.37.009l-1.073 2.09a1.81 1.81 0 0 1-1.13.897 2.006 2.006 0 0 1-.466.065Zm6.104-4.91c.644 0 1.25.365 1.577.953l1.158 2.1 3.304-2.063-1.167-2.147c-.364-.672-.308-1.484.159-2.072a9.602 9.602 0 0 0 1.437-2.613 1.823 1.823 0 0 1 1.708-1.204h2.305l-.037-4.107h-2.259a1.832 1.832 0 0 1-1.708-1.204 9.353 9.353 0 0 0-1.437-2.613 1.899 1.899 0 0 1-.159-2.072l1.158-2.11-3.379-2.09-1.073 2.1c-.374.681-1.13 1.064-1.867.933a8.405 8.405 0 0 0-2.819 0c-.746.131-1.493-.242-1.876-.933l-1.157-2.1-3.304 2.063 1.167 2.146c.364.672.308 1.484-.159 2.072a9.6 9.6 0 0 0-1.437 2.614 1.823 1.823 0 0 1-1.708 1.204H3.829l.038 4.106h2.258c.756 0 1.447.486 1.708 1.214a9.374 9.374 0 0 0 1.438 2.613 1.9 1.9 0 0 1 .158 2.072l-1.157 2.11 3.379 2.09 1.073-2.1c.373-.681 1.13-1.064 1.876-.933a8.403 8.403 0 0 0 2.819 0 1.49 1.49 0 0 1 .289-.028Z"/>
</svg>
