<svg xmlns="http://www.w3.org/2000/svg" width="32" height="32" fill="currentColor" viewBox="0 0 32 32">
  <path fill-rule="evenodd" d="M10.68 29.739c.28.177.597.261.924.261.159 0 .308-.028.467-.065a1.81 1.81 0 0 0 1.129-.896l1.073-2.091c1.12.196 2.399.205 3.37-.01l1.157 2.1a1.81 1.81 0 0 0 1.13.897c.475.13.97.056 1.39-.196l3.388-2.054c.85-.513 1.148-1.652.663-2.529l-1.167-2.137a10.355 10.355 0 0 0 1.661-3.099h2.306c1.008 0 1.829-.84 1.829-1.876v-4.097c0-1.036-.821-1.876-1.83-1.876l-2.249.028a11.844 11.844 0 0 0-1.708-3.155l1.158-2.11c.485-.877.186-2.015-.663-2.529L21.32 2.252a1.773 1.773 0 0 0-1.39-.196 1.81 1.81 0 0 0-1.13.896l-1.073 2.09c-1.111-.186-2.418-.205-3.37.02l-1.157-2.1a1.81 1.81 0 0 0-1.13-.897 1.773 1.773 0 0 0-1.39.196L7.292 4.305c-.85.514-1.148 1.652-.663 2.53l1.167 2.137a10.47 10.47 0 0 0-1.661 3.099H3.829C2.821 12.07 2 12.91 2 13.947v4.097c0 1.036.821 1.876 1.83 1.876l2.249-.028c.41 1.148.989 2.203 1.708 3.155l-1.158 2.109c-.485.877-.186 2.016.663 2.53l3.388 2.053Zm8.605-3.696a1.82 1.82 0 0 0-1.577-.952c-.093 0-.196.009-.29.028a8.403 8.403 0 0 1-2.818 0c-.747-.131-1.503.252-1.876.933l-1.073 2.1-3.379-2.09 1.157-2.11a1.899 1.899 0 0 0-.158-2.072 9.356 9.356 0 0 1-1.438-2.613 1.828 1.828 0 0 0-1.708-1.214H3.867l-.038-4.106h2.306c.765 0 1.446-.486 1.708-1.204a9.6 9.6 0 0 1 1.437-2.614c.467-.588.523-1.4.159-2.072L8.272 5.911l3.304-2.063 1.157 2.1c.383.69 1.13 1.064 1.876.933a8.405 8.405 0 0 1 2.819 0c.737.131 1.493-.252 1.867-.933l1.073-2.1 3.379 2.09-1.158 2.11a1.899 1.899 0 0 0 .159 2.072 9.353 9.353 0 0 1 1.437 2.613 1.832 1.832 0 0 0 1.708 1.204h2.259l.037 4.107h-2.305c-.765 0-1.447.485-1.708 1.204a9.602 9.602 0 0 1-1.437 2.613c-.467.588-.523 1.4-.159 2.072l1.167 2.147-3.304 2.063-1.158-2.1ZM9.945 16c0-1.174.902-2.055 1.935-2.055.849 0 1.646.525 2.305 1.21a7.284 7.284 0 0 1 .978 1.284l.01.017v.002l.002.004.006.01.02.034.068.114a9.186 9.186 0 0 0 1.184 1.535c.784.815 2.046 1.79 3.667 1.79 2.147 0 3.825-1.799 3.825-3.945s-1.678-3.945-3.825-3.945c-1.153 0-2.195.684-2.788 1.277a.945.945 0 0 0 1.336 1.336c.407-.407.997-.723 1.452-.723 1.033 0 1.935.881 1.935 2.055 0 1.174-.902 2.055-1.935 2.055-.849 0-1.646-.525-2.305-1.21a7.292 7.292 0 0 1-.978-1.284l-.01-.017v-.002l-.002-.004-.006-.01-.02-.034a6.185 6.185 0 0 0-.089-.15 9.179 9.179 0 0 0-1.163-1.5c-.783-.814-2.046-1.789-3.667-1.789-2.147 0-3.825 1.799-3.825 3.945s1.678 3.945 3.825 3.945c1.06 0 1.966-.418 2.671-.924a.945.945 0 0 0-1.102-1.536c-.494.355-1.02.57-1.569.57-1.033 0-1.935-.881-1.935-2.055Z" clip-rule="evenodd"/>
</svg>
