<svg xmlns="http://www.w3.org/2000/svg" width="32" height="32" fill="currentColor" viewBox="0 0 32 32">
  <path fill-rule="evenodd" d="M5.567 6C4.684 6 4 6.698 4 7.52V19h24V7.52C28 6.697 27.316 6 26.433 6H5.567ZM28 21H4v.48c0 .822.684 1.52 1.567 1.52h20.866c.883 0 1.567-.698 1.567-1.52V21ZM2 20v1.48C2 23.443 3.615 25 5.567 25H15v3h-5a1 1 0 1 0 0 2h12a1 1 0 1 0 0-2h-5v-3h9.433C28.385 25 30 23.442 30 21.48V7.52C30 5.557 28.385 4 26.433 4H5.567C3.615 4 2 5.558 2 7.52V20ZM16 9a1 1 0 1 0 0 2 1 1 0 0 0 0-2Zm-3 1a3 3 0 1 1 5.95.548l2.027 1.236a3 3 0 1 1-.944 1.767l-2.084-1.27A2.988 2.988 0 0 1 16 13a2.99 2.99 0 0 1-2.043-.803l-2.012 1.228a3 3 0 1 1-1.016-1.723l2.1-1.281A3.026 3.026 0 0 1 13 10Zm10 3a1 1 0 1 0 0 2 1 1 0 0 0 0-2ZM8 14a1 1 0 1 1 2 0 1 1 0 0 1-2 0Z" clip-rule="evenodd"/>
</svg>
