<svg xmlns="http://www.w3.org/2000/svg" width="32" height="32" fill="currentColor" viewBox="0 0 32 32">
  <path fill-rule="evenodd" d="M3.933 16C3.933 9.336 9.336 3.933 16 3.933c6.664 0 12.067 5.403 12.067 12.067 0 6.664-5.403 12.067-12.067 12.067-6.664 0-12.067-5.403-12.067-12.067ZM16 1.933C8.231 1.933 1.933 8.231 1.933 16S8.231 30.067 16 30.067 30.067 23.769 30.067 16 23.769 1.933 16 1.933ZM10 11.5a1.5 1.5 0 1 1 3 0 1.5 1.5 0 0 1-3 0ZM11.5 8a3.5 3.5 0 1 0 0 7 3.5 3.5 0 0 0 0-7Zm9 11a1.5 1.5 0 1 0 0 3 1.5 1.5 0 0 0 0-3ZM17 20.5a3.5 3.5 0 1 1 7 0 3.5 3.5 0 0 1-7 0Zm5.707-9.793a1 1 0 0 0-1.414-1.414l-12 12a1 1 0 1 0 1.414 1.414l12-12Z" clip-rule="evenodd"/>
</svg>
