<svg xmlns="http://www.w3.org/2000/svg" width="33" height="32" fill="none" viewBox="0 0 33 32">
  <path fill="#3D3C3C" d="M28.037 1a3 3 0 0 1 3 3v24a3 3 0 0 1-3 3h-24a3 3 0 0 1-3-3V4a3 3 0 0 1 3-3h24Zm-24 2a1 1 0 0 0-1 1v24a1 1 0 0 0 1 1h24a1 1 0 0 0 1-1V4a1 1 0 0 0-1-1h-24Zm6 8a1 1 0 0 1 1 1v5.5a3.5 3.5 0 0 1-7 0 1 1 0 1 1 2 0 1.5 1.5 0 0 0 3 0V12a1 1 0 0 1 1-1Zm5.75 0a3.25 3.25 0 0 1 0 6.5h-1.75V20a1 1 0 1 1-2 0v-7.09a1.91 1.91 0 0 1 1.91-1.91h1.84Zm8.26 0c1.06 0 2.048.507 2.784 1.389l.145.181.056.085a1 1 0 0 1-1.59 1.197l-.065-.08-.163-.196c-.386-.42-.807-.576-1.166-.576-.411 0-.902.204-1.33.773-.436.579-.681 1.382-.681 2.227s.245 1.648.68 2.227c.428.569.92.773 1.33.773.412 0 .902-.204 1.33-.773.257-.341.447-.763.56-1.227h-1.89a1 1 0 1 1 0-2h2.634c.944 0 1.356.846 1.355 1.47l-.006.123c-.094 1.005-.434 2.012-1.055 2.837-.747.993-1.798 1.57-2.927 1.57-1.13 0-2.18-.577-2.928-1.57-.74-.983-1.083-2.228-1.083-3.43s.343-2.447 1.083-3.43c.748-.993 1.798-1.57 2.928-1.57Zm-10.01 4.5h1.75a1.25 1.25 0 0 0 0-2.5h-1.75v2.5Z"/>
</svg>
