<svg xmlns="http://www.w3.org/2000/svg" width="32" height="32" fill="currentColor" viewBox="0 0 32 32">
  <path fill-rule="evenodd" d="M3 5.738C3 3.651 4.723 2 6.802 2H18c.273 0 .52.11.7.286l6.999 6.84.136.324a.993.993 0 0 1 .142.337l.023.054V13a1 1 0 1 1-2 0v-2h-4.602A2.4 2.4 0 0 1 17 8.602V4H6.802C5.784 4 5 4.8 5 5.738v20.524C5 27.2 5.784 28 6.802 28H13a1 1 0 1 1 0 2H6.802C4.723 30 3 28.349 3 26.262V5.738Zm16 2.864V5.376L22.709 9h-3.31A.4.4 0 0 1 19 8.602ZM23 16a7 7 0 0 0-7 7 7 7 0 1 0 14 0 7 7 0 0 0-7-7Zm-5 7a5 5 0 0 1 5-5 5 5 0 1 1 0 10 5 5 0 0 1-5-5Zm5.707-3.707 2 2a1 1 0 0 1-1.414 1.414L24 22.414V26a1 1 0 1 1-2 0v-3.586l-.293.293a1 1 0 0 1-1.414-1.414l2-2A.997.997 0 0 1 23 19m.707.293a.997.997 0 0 0-.324-.217l.324.217ZM23.01 19a.996.996 0 0 1 .374.076L23.009 19Z" clip-rule="evenodd"/>
</svg>
