<svg xmlns="http://www.w3.org/2000/svg" width="32" height="32" fill="currentColor" viewBox="0 0 32 32">
  <path fill-rule="evenodd" d="M5.002 1.75c-1.788 0-3.252 1.433-3.252 3.222V23.75a.75.75 0 0 0 1.5 0V4.972c0-.943.775-1.722 1.752-1.722h9.748v4.852c0 1.14.883 2.148 2.065 2.148h3.927l-.023 3.526a.75.75 0 1 0 1.5.01l.028-4.217a.754.754 0 0 0 0-.128l.003-.342a.75.75 0 0 0-.195-.51l-5.998-6.592a.748.748 0 0 0-.557-.247H5.002ZM16.25 4.439v3.663c0 .4.297.648.565.648h3.358L16.25 4.439ZM4.781 17.5c0-.966.784-1.75 1.75-1.75H28.5c.966 0 1.75.784 1.75 1.75v11a1.75 1.75 0 0 1-1.75 1.75H6.531a1.75 1.75 0 0 1-1.75-1.75v-11Zm1.75-.25a.25.25 0 0 0-.25.25v11c0 .138.112.25.25.25H28.5a.25.25 0 0 0 .25-.25v-11a.25.25 0 0 0-.25-.25H6.531ZM9.847 19c1.027 0 1.826.218 2.386.643v.01c.592.447.893 1.1.893 1.92 0 .882-.301 1.567-.893 2.034-.56.446-1.37.674-2.386.674-.28 0-.57-.01-.861-.03v1.95a.763.763 0 0 1-.25.57.852.852 0 0 1-.58.229.775.775 0 0 1-.582-.239h-.01a.82.82 0 0 1-.228-.56v-6.08a.99.99 0 0 1 .28-.696 1.07 1.07 0 0 1 .664-.342A16.9 16.9 0 0 1 9.847 19Zm1.255 3.486c.26-.197.384-.477.384-.86h.01c0-.385-.124-.655-.373-.841-.29-.218-.726-.322-1.328-.322-.27 0-.54.01-.799.041v2.283c.249.021.519.031.799.031.581 0 1.027-.114 1.307-.332Zm8.928-3.223c-.301-.28-.789-.29-1.131 0a.792.792 0 0 0-.239.57v4.037l-2.698-4.275c-.218-.353-.56-.54-.996-.54a.853.853 0 0 0-.58.228.796.796 0 0 0-.26.581v6.299a.74.74 0 0 0 .26.58c.32.27.819.27 1.11 0a.729.729 0 0 0 .259-.58v-4.037l2.698 4.286c.218.353.56.54.996.54a.852.852 0 0 0 .58-.229.795.795 0 0 0 .26-.581v-6.298a.762.762 0 0 0-.26-.581Zm7.35 2.977c.203.2.315.45.315.73h-.01v2.59c0 .27-.071.51-.224.73-.153.22-.367.38-.622.46-.541.17-1.143.25-1.806.25-1.081 0-2-.36-2.703-1.1-.714-.75-1.04-1.73-1.04-2.9s.326-2.16 1.05-2.9c.714-.75 1.693-1.1 2.846-1.1.52 0 1.01.05 1.459.15h.01a.87.87 0 0 1 .5.31c.01.01.01.02.01.02 0 .01.01.02.01.02.123.15.194.33.194.53a.73.73 0 0 1-.316.6.812.812 0 0 1-.663.11c-.367-.1-.755-.15-1.153-.15-.724 0-1.244.21-1.602.6-.357.38-.57.99-.57 1.79s.203 1.38.56 1.79c.357.39.816.6 1.449.6.306 0 .581-.05.846-.11v-1.75h-1.428a.809.809 0 0 1-.581-.23v-.02a.846.846 0 0 1-.214-.55c0-.2.081-.39.224-.54h.01a.78.78 0 0 1 .572-.24h2.131c.296 0 .541.11.745.31Z" clip-rule="evenodd"/>
</svg>
