<svg xmlns="http://www.w3.org/2000/svg" width="32" height="32" fill="currentColor" viewBox="0 0 32 32">
  <path d="M28 1a3 3 0 0 1 3 3v24a3 3 0 0 1-3 3H4a3 3 0 0 1-3-3V4a3 3 0 0 1 3-3h24ZM4 3a1 1 0 0 0-1 1v24a1 1 0 0 0 1 1h24a1 1 0 0 0 1-1V4a1 1 0 0 0-1-1H4Zm2.257 8.007A5 5 0 0 1 6 21h-.444C4.696 21 4 20.303 4 19.444v-6.888C4 11.696 4.697 11 5.556 11H6l.257.007ZM16 11c1.214 0 2.236.658 2.92 1.571C19.607 13.484 20 14.7 20 16c0 1.3-.394 2.516-1.08 3.429C18.237 20.342 17.215 21 16 21s-2.236-.658-2.92-1.571C12.393 18.516 12 17.3 12 16c0-1.3.394-2.516 1.08-3.429C13.763 11.658 14.785 11 16 11Zm8.929 0c1.05 0 2.022.517 2.738 1.4l.14.181.056.085a1 1 0 0 1-1.605 1.176l-.065-.08-.158-.196c-.374-.418-.775-.566-1.106-.566-.379 0-.847.194-1.264.763C23.24 14.343 23 15.149 23 16c0 .851.24 1.657.665 2.237.417.57.885.763 1.264.763.378 0 .848-.193 1.264-.763a1 1 0 0 1 1.614 1.182C27.08 20.412 26.049 21 24.929 21c-1.121 0-2.151-.588-2.878-1.581C21.33 18.437 21 17.196 21 16c0-1.196.332-2.437 1.05-3.419.728-.993 1.758-1.58 2.879-1.581ZM6 19a3 3 0 1 0 0-6v6Zm10-6c-.443 0-.92.237-1.321.771-.401.535-.679 1.32-.679 2.229 0 .91.278 1.694.679 2.229.4.534.878.771 1.321.771.443 0 .92-.237 1.321-.771.401-.535.679-1.32.679-2.229 0-.91-.278-1.694-.679-2.229-.4-.534-.878-.771-1.321-.771Z"/>
</svg>
