<svg xmlns="http://www.w3.org/2000/svg" width="32" height="32" fill="currentColor" viewBox="0 0 32 32">
  <path fill-rule="evenodd" d="M6.802 2C4.723 2 3 3.651 3 5.738v20.524C3 28.349 4.723 30 6.802 30H13a1 1 0 1 0 0-2H6.802C5.784 28 5 27.2 5 26.262V5.738C5 4.8 5.784 4 6.802 4H17v4.602A2.4 2.4 0 0 0 19.398 11H24v2a1 1 0 1 0 2 0V9.841l-.023-.054a.993.993 0 0 0-.142-.337l-.136-.324-6.999-6.84A.997.997 0 0 0 18 2H6.802ZM19 5.376v3.226a.4.4 0 0 0 .398.398h3.31L19 5.376Z" clip-rule="evenodd"/>
  <path d="M27 23a1 1 0 0 1-1 1h-6a1 1 0 1 1 0-2h6a1 1 0 0 1 1 1Z"/>
  <path fill-rule="evenodd" d="M23 16a7 7 0 0 0-7 7 7 7 0 1 0 14 0 7 7 0 0 0-7-7Zm-5 7a5 5 0 0 1 5-5 5 5 0 1 1 0 10 5 5 0 0 1-5-5Z" clip-rule="evenodd"/>
</svg>
