<svg xmlns="http://www.w3.org/2000/svg" width="32" height="32" fill="currentColor" viewBox="0 0 32 32">
  <path fill-rule="evenodd" d="M1.75 4.972c0-1.789 1.464-3.222 3.252-3.222H15.5c.22 0 .42.096.557.247l5.998 6.592a.75.75 0 0 1 .195.505v3.686a.75.75 0 1 1-1.5 0v-2.53h-3.935c-1.182 0-2.065-1.008-2.065-2.148V3.25H5.002c-.977 0-1.752.779-1.752 1.722V23.75a.75.75 0 0 1-1.5 0V4.972Zm14.5-.533v3.663c0 .4.297.648.565.648h3.358L16.25 4.439ZM4.75 17.5c0-.966.784-1.75 1.75-1.75h22c.966 0 1.75.784 1.75 1.75v11a1.75 1.75 0 0 1-1.75 1.75h-22a1.75 1.75 0 0 1-1.75-1.75v-11Zm1.75-.25a.25.25 0 0 0-.25.25v11c0 .138.112.25.25.25h22a.25.25 0 0 0 .25-.25v-11a.25.25 0 0 0-.25-.25h-22Zm4.624 2.91c-.46-.37-1.11-.56-1.95-.56-.39 0-.81.02-1.26.07-.23.03-.43.14-.58.31-.15.17-.23.38-.23.61v5.09c0 .19.07.36.2.5h.01c.14.15.32.22.52.22s.38-.08.51-.22a.72.72 0 0 0 .22-.51v-1.58c.21.01.42.02.61.02.83 0 1.49-.19 1.95-.58.48-.4.73-.99.73-1.73 0-.7-.25-1.26-.73-1.64Zm-1 2.37c-.21.17-.55.26-.99.26-.2 0-.39 0-.56-.02v-1.82c.19-.02.38-.03.56-.03.46 0 .79.08 1.01.26.19.14.27.36.27.67 0 .31-.09.53-.29.68Zm4.41-2.93c.84 0 1.49.19 1.95.56.48.38.73.94.73 1.64 0 .74-.25 1.33-.73 1.73-.46.39-1.12.58-1.95.58-.19 0-.4-.01-.61-.02v1.58c0 .19-.08.37-.22.51-.13.14-.31.22-.51.22s-.38-.07-.52-.22h-.01a.72.72 0 0 1-.2-.5v-5.09c0-.23.08-.44.23-.61.15-.17.35-.28.58-.31.45-.05.87-.07 1.26-.07Zm-.05 3.19c.44 0 .78-.09.99-.26.2-.15.29-.37.29-.68 0-.31-.08-.53-.27-.67-.21-.18-.55-.26-1.01-.26-.18 0-.37.01-.56.03v1.82c.17.02.36.02.56.02Zm13.32 2.615-1.48-2.46 1.43-2.36.02-.04.02-.04c.04-.08.06-.17.06-.26a.53.53 0 0 0-.09-.3.608.608 0 0 0-.22-.23.65.65 0 0 0-.31-.08c-.38 0-.7.18-.9.52l-.9 1.57-.89-1.55a.887.887 0 0 0-.4-.39c-.26-.15-.59-.2-.84-.06-.09.05-.17.13-.22.23-.1.19-.1.4 0 .62l1.45 2.39-1.5 2.49c-.1.19-.1.41 0 .6v.02c.23.35.74.35 1.07.16.12-.07.23-.17.32-.29l.99-1.73.93 1.62c.1.16.23.29.39.39.17.09.34.14.53.14.22 0 .42-.11.54-.29.06-.1.1-.22.09-.33 0-.11-.04-.21-.1-.31l.01-.03Zm-9.64-5.76h3.68v-.01c.18 0 .35.07.48.2a.673.673 0 0 1 0 .96c-.13.13-.3.2-.48.2h-1.11v4.64c0 .19-.07.37-.21.51-.14.14-.32.22-.52.22s-.38-.07-.52-.22h-.01a.72.72 0 0 1-.2-.5v-4.64h-1.11c-.18 0-.35-.07-.48-.2a.673.673 0 0 1 0-.96c.13-.13.3-.2.48-.2Z" clip-rule="evenodd"/>
</svg>
