<svg xmlns="http://www.w3.org/2000/svg" width="33" height="32" fill="currentColor" viewBox="0 0 33 32">
  <path d="M19.852 1c.292 0 .553.126.736.325l.003.002 6 6.594.06.071a1 1 0 0 1 .2.602V15h3a2 2 0 0 1 2 2v12a2 2 0 0 1-2 2h-26a2 2 0 0 1-2-2V17a2 2 0 0 1 2-2h2V4.472C5.853 2.542 7.432 1 9.355 1h10.498Zm-16 28h26V17h-26v12Zm3.257-10.993A5 5 0 0 1 6.852 28h-.444c-.86 0-1.556-.697-1.556-1.556v-6.888c0-.86.696-1.556 1.556-1.556h.444l.257.007ZM16.852 18c1.213 0 2.236.658 2.92 1.571.686.913 1.08 2.129 1.08 3.429 0 1.3-.394 2.516-1.08 3.429-.684.913-1.706 1.571-2.92 1.571s-2.236-.658-2.921-1.571c-.685-.913-1.08-2.129-1.08-3.429 0-1.3.395-2.516 1.08-3.429.685-.913 1.707-1.571 2.92-1.571Zm8.929 0c1.05 0 2.022.517 2.738 1.4l.14.181.056.085a1 1 0 0 1-1.605 1.176l-.065-.08-.158-.196c-.374-.418-.775-.566-1.106-.566-.379 0-.847.194-1.264.763-.425.58-.665 1.386-.665 2.237 0 .851.24 1.657.665 2.237.417.57.885.763 1.264.763.378 0 .847-.193 1.264-.763a1 1 0 0 1 1.614 1.182C27.932 27.412 26.9 28 25.78 28c-1.121 0-2.151-.588-2.878-1.581-.72-.982-1.051-2.223-1.051-3.419 0-1.196.332-2.437 1.05-3.419.728-.993 1.758-1.58 2.879-1.581ZM6.85 26a3 3 0 1 0 0-6v6Zm10-6c-.442 0-.92.237-1.32.771-.401.535-.68 1.32-.68 2.229 0 .91.279 1.694.68 2.229.4.534.878.771 1.32.771.444 0 .921-.237 1.322-.771.401-.535.679-1.32.679-2.229 0-.91-.278-1.694-.679-2.229-.4-.534-.878-.771-1.321-.771ZM9.355 3c-.842 0-1.502.67-1.502 1.472V15h17v-5h-3.686c-1.333 0-2.314-1.135-2.314-2.398V3H9.354Zm11.498 4.602c0 .276.2.398.314.398h2.794l-3.108-3.417v3.019Z"/>
</svg>
