<svg xmlns="http://www.w3.org/2000/svg" width="33" height="32" fill="currentColor" viewBox="0 0 33 32">
  <path d="M28.518 1a3 3 0 0 1 3 3v24a3 3 0 0 1-3 3h-24a3 3 0 0 1-3-3V4a3 3 0 0 1 3-3h24Zm-24 2a1 1 0 0 0-1 1v24a1 1 0 0 0 1 1h24a1 1 0 0 0 1-1V4a1 1 0 0 0-1-1h-24Zm3.31 9.264a2.72 2.72 0 0 1-.278 5.424H6.268V20a.75.75 0 0 1-1.5 0v-6.273c0-.815.662-1.477 1.478-1.477H7.55l.278.014Zm6 0a2.72 2.72 0 0 1-.278 5.424h-1.282V20a.75.75 0 0 1-1.5 0v-6.273c0-.815.662-1.477 1.478-1.477h1.304l.278.014Zm7.69-.014a.75.75 0 0 1 0 1.5h-1.25V20a.75.75 0 0 1-1.5 0v-6.25h-1.25a.75.75 0 0 1 0-1.5h4Zm1.628.099a.75.75 0 0 1 .982.214l.042.065 1.348 2.36 1.349-2.36a.75.75 0 0 1 1.303.744L26.382 16.5l1.788 3.128.034.068a.75.75 0 0 1-1.295.74l-.042-.064-1.349-2.36-1.348 2.36a.75.75 0 0 1-1.303-.744l1.787-3.128-1.787-3.128-.034-.068a.75.75 0 0 1 .313-.955ZM6.268 16.187H7.55a1.219 1.219 0 0 0 .125-2.431l-.125-.006H6.268v2.438Zm6 0h1.282a1.219 1.219 0 0 0 .125-2.431l-.125-.006h-1.282v2.438Z"/>
</svg>
