<svg xmlns="http://www.w3.org/2000/svg" width="32" height="32" fill="currentColor" viewBox="0 0 32 32">
  <path fill-rule="evenodd" d="M3 5.738C3 3.651 4.723 2 6.802 2H18a1 1 0 0 1 .7.285l6.999 6.84.136.325a.993.993 0 0 1 .142.337l.023.054V13a1 1 0 1 1-2 0v-2h-4.602A2.4 2.4 0 0 1 17 8.602V4H6.802C5.784 4 5 4.8 5 5.738v20.524C5 27.2 5.784 28 6.802 28H13a1 1 0 1 1 0 2H6.802C4.723 30 3 28.349 3 26.262V5.738Zm16 2.864V5.376L22.709 9h-3.31A.4.4 0 0 1 19 8.602ZM16.595 29.41c.38.38.89.59 1.42.59v-.01c.17 0 .33-.02.5-.06l2.432-.61c.17-.04.33-.13.46-.26l7.663-7.659a3.161 3.161 0 0 0 0-4.479 3.183 3.183 0 0 0-4.482 0l-7.663 7.679c-.12.12-.22.28-.26.46l-.61 2.43h.01c-.18.7.02 1.41.53 1.92Zm1.4-1.43v-.01l.54-2.16 7.474-7.468a1.16 1.16 0 0 1 1.65 0c.45.46.45 1.2 0 1.65l-7.463 7.459-2.2.53Z" clip-rule="evenodd"/>
</svg>
