<svg xmlns="http://www.w3.org/2000/svg" width="32" height="32" fill="none" viewBox="0 0 32 32">
  <path fill="#3D3C3C" fill-rule="evenodd" d="M7.802 2C5.723 2 4 3.651 4 5.738v20.524C4 28.349 5.723 30 7.802 30H17a1 1 0 1 0 0-2H7.802C6.784 28 6 27.2 6 26.262V5.738C6 4.8 6.784 4 7.802 4H18v4.602A2.4 2.4 0 0 0 20.398 11H25v1.5a1 1 0 1 0 2 0V9.841l-.023-.054a.993.993 0 0 0-.142-.337l-.136-.324-6.999-6.84A.997.997 0 0 0 19 2H7.802ZM20 5.376v3.226a.4.4 0 0 0 .398.398h3.31L20 5.376ZM25 18c-1.025 0-2 .935-2 2.257V21l-.001.05a39.35 39.35 0 0 1 4.002.001A.965.965 0 0 1 27 21v-.743a2.42 2.42 0 0 0-.62-1.629C26.003 18.222 25.52 18 25 18Zm3.972 3.236A.999.999 0 0 0 29 21v-.743a4.417 4.417 0 0 0-1.141-2.975l-.006-.006C27.133 16.495 26.13 16 25 16c-2.281 0-4 1.988-4 4.257V21c0 .082.01.161.028.237-.601.17-1.028.73-1.028 1.37v5.787c0 .683.488 1.31 1.217 1.409l.02.002c2.24.26 5.296.26 7.526 0 .009 0 .017-.002.026-.003A1.421 1.421 0 0 0 30 28.394v-5.788c0-.622-.405-1.197-1.028-1.37ZM22 27.873v-4.747a35.671 35.671 0 0 1 6 0v4.748a35.671 35.671 0 0 1-6 0Z" clip-rule="evenodd"/>
</svg>
