<svg xmlns="http://www.w3.org/2000/svg" width="33" height="32" fill="currentColor" viewBox="0 0 33 32">
  <path d="M28.778 1a3 3 0 0 1 3 3v24a3 3 0 0 1-3 3h-24a3 3 0 0 1-3-3V4a3 3 0 0 1 3-3h24Zm-24 2a1 1 0 0 0-1 1v24a1 1 0 0 0 1 1h24a1 1 0 0 0 1-1V4a1 1 0 0 0-1-1h-24Zm3.75 8a3.25 3.25 0 0 1 0 6.5h-1.75V20a1 1 0 1 1-2 0v-7.09A1.91 1.91 0 0 1 6.687 11h1.84Zm10.25 0a1 1 0 0 1 1 1v8l-.014.164a1 1 0 0 1-1.834.366l-3.152-5.044V20a1 1 0 1 1-2 0v-8l.013-.164a1 1 0 0 1 1.834-.366l3.153 5.043V12a1 1 0 0 1 1-1Zm6.01 0c1.06 0 2.048.507 2.784 1.389l.144.181.057.085a1 1 0 0 1-1.59 1.197l-.066-.08-.163-.196c-.386-.42-.806-.576-1.166-.576-.41 0-.902.204-1.33.773-.436.579-.68 1.382-.68 2.227s.244 1.648.68 2.227c.428.569.92.773 1.33.773.411 0 .902-.204 1.33-.773a3.37 3.37 0 0 0 .56-1.227h-1.89a1 1 0 1 1 0-2h2.634c.944 0 1.356.846 1.355 1.47l-.006.123c-.095 1.005-.435 2.012-1.055 2.837-.748.993-1.798 1.57-2.928 1.57s-2.18-.577-2.927-1.57c-.74-.983-1.083-2.228-1.083-3.43s.343-2.447 1.083-3.43c.747-.993 1.797-1.57 2.927-1.57Zm-18.01 4.5h1.75a1.25 1.25 0 1 0 0-2.5h-1.75v2.5Z"/>
</svg>
