<svg xmlns="http://www.w3.org/2000/svg" width="32" height="32" fill="currentColor" viewBox="0 0 32 32">
  <path fill-rule="evenodd" d="M5.002 1.75c-1.788 0-3.252 1.433-3.252 3.222V23.75a.75.75 0 0 0 1.5 0V4.972c0-.943.775-1.722 1.752-1.722h9.748v4.852c0 1.14.883 2.148 2.065 2.148h3.935v2.531a.75.75 0 1 0 1.5 0V9.094a.75.75 0 0 0-.195-.505l-5.998-6.592a.748.748 0 0 0-.557-.247H5.002ZM16.25 4.439v3.663c0 .4.297.648.565.648h3.358L16.25 4.439ZM4.75 17.5c0-.966.784-1.75 1.75-1.75h22c.966 0 1.75.784 1.75 1.75v11a1.75 1.75 0 0 1-1.75 1.75h-22a1.75 1.75 0 0 1-1.75-1.75v-11Zm1.75-.25a.25.25 0 0 0-.25.25v11c0 .138.112.25.25.25h22a.25.25 0 0 0 .25-.25v-11a.25.25 0 0 0-.25-.25h-22Zm3.68 1.855c1.05 0 1.87.21 2.44.62v-.02c.62.44.93 1.07.93 1.88 0 .87-.31 1.53-.92 1.99-.58.43-1.4.65-2.45.65-.3 0-.61-.01-.92-.03v1.92c0 .21-.09.41-.26.56-.15.14-.35.22-.57.22-.22 0-.42-.07-.58-.21a.746.746 0 0 1-.25-.56v-5.94c0-.26.1-.49.29-.68.18-.18.41-.29.67-.32.57-.05 1.11-.08 1.62-.08Zm-.06 3.73c.61 0 1.08-.11 1.38-.34l.01.01c.27-.19.4-.45.4-.83 0-.38-.13-.64-.39-.82-.3-.22-.77-.33-1.4-.33-.28 0-.57.01-.85.04v2.24c.26.02.54.03.85.03Zm17.04-3.495a.76.76 0 0 0-.52-.19h-4.78c-.2 0-.38.07-.52.19-.16.14-.24.32-.24.53 0 .21.08.39.24.53.14.13.32.2.52.2h1.56v5.48c0 .21.08.4.25.56.16.14.36.21.58.21.22 0 .42-.08.57-.22.17-.15.26-.35.26-.56v-5.48h1.56c.2 0 .38-.07.52-.2.16-.14.24-.32.24-.53 0-.21-.09-.39-.24-.53v.01Zm-10.06-.235c1.05 0 1.87.21 2.44.62v-.02c.62.44.93 1.07.93 1.88 0 .87-.31 1.53-.92 1.99-.58.43-1.4.65-2.45.65-.3 0-.61-.01-.92-.03v1.92c0 .21-.09.41-.26.56-.15.14-.35.22-.57.22-.22 0-.42-.07-.58-.21a.746.746 0 0 1-.25-.56v-5.94c0-.26.1-.49.29-.68.18-.18.4-.29.67-.32.57-.05 1.11-.08 1.62-.08Zm1.325 3.406-.005-.006c-.3.22-.76.33-1.38.33-.31 0-.6-.01-.85-.03v-2.24c.28-.03.57-.04.85-.04.63 0 1.1.11 1.4.33.26.18.38.44.38.82 0 .378-.128.637-.395.836Z" clip-rule="evenodd"/>
</svg>
