<svg xmlns="http://www.w3.org/2000/svg" width="33" height="32" fill="currentColor" viewBox="0 0 33 32">
  <path d="M28.148 1a3 3 0 0 1 3 3v24a3 3 0 0 1-3 3h-24a3 3 0 0 1-3-3V4a3 3 0 0 1 3-3h24Zm-24 2a1 1 0 0 0-1 1v24a1 1 0 0 0 1 1h24a1 1 0 0 0 1-1V4a1 1 0 0 0-1-1h-24Zm4.376 9.584a.75.75 0 1 1 1.248.832L8.05 16l1.723 2.584.04.066a.75.75 0 0 1-1.242.828l-.046-.062-1.376-2.064-1.376 2.064a.75.75 0 1 1-1.248-.832L6.247 16l-1.723-2.584-.039-.066a.75.75 0 0 1 1.241-.827l.046.061 1.376 2.064 1.376-2.064Zm2.624-.334a.75.75 0 0 1 .75.75v5.25h3.25l.077.004a.75.75 0 0 1 0 1.492l-.077.004h-4a.75.75 0 0 1-.75-.75v-6a.75.75 0 0 1 .75-.75Zm8 0c.675 0 1.218.14 1.654.398.326.193.56.434.733.668l.154.232.037.067a.75.75 0 0 1-1.275.776l-.043-.064-.08-.118a.969.969 0 0 0-.291-.27c-.159-.094-.424-.189-.889-.189-.41 0-.755.136-.974.32-.215.178-.289.375-.274.554l.008.04c.03.097.154.25.548.401a3.285 3.285 0 0 0 .767.189h.003l.032.004.077.01a4.862 4.862 0 0 1 1.045.266c.523.202 1.424.683 1.511 1.715l.007.14c.012.695-.33 1.29-.815 1.694a2.984 2.984 0 0 1-1.663.656l-.272.011c-.675 0-1.218-.14-1.653-.398a2.466 2.466 0 0 1-.734-.668l-.154-.232-.037-.067a.75.75 0 0 1 1.275-.776l.043.064.08.118c.081.111.173.2.291.27.159.094.424.189.89.189l.15-.006c.344-.028.631-.153.824-.313.188-.157.267-.328.274-.488v-.067c-.009-.093-.106-.268-.556-.441a3.282 3.282 0 0 0-.768-.189h-.003l-.031-.004-.077-.01a4.863 4.863 0 0 1-1.045-.266c-.49-.19-1.313-.624-1.486-1.529l-.026-.186c-.064-.755.291-1.403.809-1.834.512-.427 1.205-.667 1.934-.667Zm7.376.334a.75.75 0 1 1 1.248.832L26.05 16l1.723 2.584.04.066a.75.75 0 0 1-1.242.828l-.046-.062-1.376-2.064-1.376 2.064a.75.75 0 1 1-1.248-.832L24.247 16l-1.723-2.584-.039-.066a.75.75 0 0 1 1.241-.827l.046.061 1.376 2.064 1.376-2.064Z"/>
</svg>
