<svg xmlns="http://www.w3.org/2000/svg" width="33" height="32" fill="currentColor" viewBox="0 0 33 32">
  <path d="M19.63 1c.291 0 .553.126.736.325l.003.002 6 6.594.06.071a1 1 0 0 1 .2.602V15h3a2 2 0 0 1 2 2v12a2 2 0 0 1-2 2h-26a2 2 0 0 1-2-2V17a2 2 0 0 1 2-2h2V4.472C5.63 2.542 7.21 1 9.132 1H19.63Zm-16 28h26V17h-26v12Zm4.75-11a3.25 3.25 0 0 1 0 6.5H6.63V27a1 1 0 1 1-2 0v-7.09A1.91 1.91 0 0 1 6.539 18h1.84Zm10.25 0a1 1 0 0 1 1 1v8l-.014.164a1 1 0 0 1-1.834.366l-3.152-5.044V27a1 1 0 1 1-2 0v-8l.013-.164a1 1 0 0 1 1.834-.366l3.152 5.043V19a1 1 0 0 1 1-1Zm6.01 0c1.06 0 2.048.507 2.784 1.389l.144.181.057.085a1 1 0 0 1-1.59 1.197l-.066-.08-.163-.196C25.42 20.156 25 20 24.64 20c-.41 0-.902.204-1.33.773-.436.579-.68 1.382-.68 2.227s.244 1.648.68 2.227c.428.569.92.773 1.33.773.411 0 .902-.204 1.33-.773A3.37 3.37 0 0 0 26.53 24h-1.89a1 1 0 1 1 0-2h2.634c.944 0 1.356.846 1.354 1.47l-.005.123c-.095 1.005-.435 2.012-1.055 2.837-.748.993-1.798 1.57-2.928 1.57s-2.18-.577-2.928-1.57c-.74-.983-1.082-2.228-1.082-3.43s.343-2.447 1.082-3.43C22.46 18.577 23.51 18 24.64 18ZM6.63 22.5h1.75a1.25 1.25 0 1 0 0-2.5H6.63v2.5ZM9.13 3c-.84 0-1.5.67-1.5 1.472V15h17v-5h-3.686c-1.334 0-2.314-1.135-2.314-2.398V3h-9.5Zm11.5 4.602c0 .276.2.398.315.398h2.794L20.63 4.583v3.019Z"/>
</svg>
