<svg xmlns="http://www.w3.org/2000/svg" width="32" height="32" fill="currentColor" viewBox="0 0 32 32">
  <path d="M9 14a1 1 0 0 1 1-1h12a1 1 0 1 1 0 2H10a1 1 0 0 1-1-1Zm0 4a1 1 0 0 1 1-1h12a1 1 0 1 1 0 2H10a1 1 0 0 1-1-1Zm1 3a1 1 0 1 0 0 2h8a1 1 0 1 0 0-2h-8Z"/>
  <path fill-rule="evenodd" d="M5 5.738C5 3.651 6.723 2 8.802 2H20c.277 0 .527.112.708.294l7 6.999A.997.997 0 0 1 28 10v16.262C28 28.349 26.277 30 24.198 30H8.802C6.723 30 5 28.349 5 26.262V5.738ZM24.586 9 21 5.414v3.188a.4.4 0 0 0 .398.398h3.188ZM19 4v4.602A2.4 2.4 0 0 0 21.398 11H26v15.262C26 27.2 25.216 28 24.198 28H8.802C7.784 28 7 27.2 7 26.262V5.738C7 4.8 7.784 4 8.802 4H19Z" clip-rule="evenodd"/>
</svg>
