<svg xmlns="http://www.w3.org/2000/svg" width="32" height="32" fill="currentColor" viewBox="0 0 32 32">
  <path d="M19 1c.292 0 .553.126.736.325l.003.002 6 6.594.06.071a1 1 0 0 1 .201.602V15h3a2 2 0 0 1 2 2v12a2 2 0 0 1-2 2H3a2 2 0 0 1-2-2V17a2 2 0 0 1 2-2h2V4.472C5 2.542 6.579 1 8.502 1H19ZM3 29h26V17H3v12Zm5.376-9.416a.75.75 0 1 1 1.248.832L7.901 23l1.723 2.584.04.066a.75.75 0 0 1-1.242.828l-.046-.062L7 24.352l-1.376 2.064a.75.75 0 1 1-1.248-.832L6.099 23l-1.723-2.584-.04-.066a.75.75 0 0 1 1.242-.828l.046.062L7 21.648l1.376-2.064ZM11 19.25a.75.75 0 0 1 .75.75v5.25H15l.077.004a.75.75 0 0 1 0 1.492L15 26.75h-4a.75.75 0 0 1-.75-.75v-6a.75.75 0 0 1 .75-.75Zm8 0c.675 0 1.218.14 1.653.398.327.193.56.433.734.668l.154.232.037.067a.75.75 0 0 1-1.275.776l-.043-.064-.08-.118a.971.971 0 0 0-.291-.27c-.159-.094-.424-.189-.889-.189-.41 0-.755.136-.975.32-.214.178-.288.375-.273.554l.008.04c.03.097.154.25.548.401a3.282 3.282 0 0 0 .767.189h.003l.031.004.077.01a4.845 4.845 0 0 1 1.045.266c.524.202 1.425.683 1.512 1.715l.007.14c.012.695-.33 1.29-.815 1.694a2.984 2.984 0 0 1-1.663.656L19 26.75c-.675 0-1.218-.14-1.653-.398a2.463 2.463 0 0 1-.734-.668l-.154-.232-.037-.067a.75.75 0 0 1 1.275-.776l.043.064.08.118c.081.111.173.2.291.27.159.094.424.189.889.189l.15-.006c.345-.028.632-.153.825-.313.188-.157.267-.328.274-.488l-.001-.067c-.008-.093-.105-.268-.556-.441a3.282 3.282 0 0 0-.767-.189h-.003l-.031-.004-.077-.01a4.845 4.845 0 0 1-1.045-.266c-.491-.19-1.313-.624-1.486-1.529l-.026-.186c-.064-.755.29-1.403.808-1.834.513-.427 1.206-.667 1.935-.667Zm7.376.334a.75.75 0 1 1 1.248.832L25.901 23l1.723 2.584.04.066a.75.75 0 0 1-1.242.828l-.046-.062L25 24.352l-1.376 2.064a.75.75 0 1 1-1.248-.832L24.099 23l-1.723-2.584-.04-.066a.75.75 0 0 1 1.242-.828l.046.062L25 21.648l1.376-2.064ZM8.502 3C7.66 3 7 3.67 7 4.472V15h17v-5h-3.686C18.982 10 18 8.865 18 7.602V3H8.502ZM20 7.602c0 .276.2.398.314.398h2.794L20 4.583v3.019Z"/>
</svg>
