<svg xmlns="http://www.w3.org/2000/svg" width="33" height="32" fill="currentColor" viewBox="0 0 33 32">
  <path d="M20.102 1.005c.25.025.474.144.635.32l.003.002 6 6.594.06.071a1 1 0 0 1 .2.602V15h3a2 2 0 0 1 2 2v12a2 2 0 0 1-2 2H4a2 2 0 0 1-2-2V17a2 2 0 0 1 2-2h2V4.472C6 2.542 7.58 1 9.502 1H20l.102.005ZM4 29h26V17H4v12Zm2.47-10.848a1 1 0 0 1 1.319.234l.058.084L9.5 21.113l1.652-2.643a1 1 0 0 1 1.695 1.06L10.678 23l2.17 3.47.049.09a1 1 0 0 1-1.687 1.054l-.058-.084L9.5 24.886 7.847 27.53a1 1 0 0 1-1.695-1.06L8.32 23l-2.168-3.47-.05-.09a1 1 0 0 1 .367-1.288ZM15 18a1 1 0 0 1 1 1v7h4a1 1 0 0 1 0 2h-5a1 1 0 0 1-1-1v-8a1 1 0 0 1 1-1Zm9.5 0c.863 0 1.561.192 2.122.545.556.351.895.813 1.122 1.21a1 1 0 1 1-1.738.99c-.13-.228-.267-.392-.452-.509-.182-.115-.493-.236-1.054-.236-1.044 0-1.535.69-1.498 1.17l.011.061c.04.147.2.341.664.532a3.817 3.817 0 0 0 .868.234l.053.008h.013l.01.003.03.003a4.757 4.757 0 0 1 .426.073c.263.055.626.149 1.004.304.686.281 1.803.934 1.91 2.283l.009.186c.033 1.844-1.636 3.062-3.33 3.14L24.5 28c-.864 0-1.563-.191-2.123-.545-.556-.351-.895-.813-1.122-1.21l-.046-.09a1.001 1.001 0 0 1 1.784-.9l.1.16c.101.147.213.26.352.349.182.115.493.236 1.055.236l.189-.008c.853-.072 1.284-.63 1.309-1.071l-.001-.092c-.012-.151-.144-.373-.675-.592a3.82 3.82 0 0 0-.868-.234l-.053-.008h-.013l-.01-.003-.03-.003a4.757 4.757 0 0 1-.426-.073 5.81 5.81 0 0 1-1.005-.304c-.643-.264-1.665-.855-1.877-2.039l-.032-.244C20.85 19.32 22.693 18 24.5 18ZM9.502 3C8.661 3 8.001 3.67 8 4.472V15h17v-5h-3.685C19.98 10 19 8.865 19 7.602V3H9.502ZM21 7.602c0 .276.2.398.315.398h2.794L21 4.583v3.019Z"/>
</svg>
