<svg xmlns="http://www.w3.org/2000/svg" width="32" height="32" fill="currentColor" viewBox="0 0 32 32">
  <path fill-rule="evenodd" d="M2.25 5.472c0-1.789 1.464-3.222 3.252-3.222H16c.22 0 .42.095.557.247l5.998 6.592a.75.75 0 0 1 .195.505v3.686a.75.75 0 1 1-1.5 0v-2.53h-3.935c-1.182 0-2.065-1.008-2.065-2.148V3.75H5.502c-.977 0-1.752.779-1.752 1.722V24.25a.75.75 0 0 1-1.5 0V5.472Zm14.5-.533v3.663c0 .4.297.648.565.648h3.358L16.75 4.939ZM7 16.25A1.75 1.75 0 0 0 5.25 18v11c0 .966.784 1.75 1.75 1.75h22A1.75 1.75 0 0 0 30.75 29V18A1.75 1.75 0 0 0 29 16.25H7ZM6.75 18a.25.25 0 0 1 .25-.25h22a.25.25 0 0 1 .25.25v11a.25.25 0 0 1-.25.25H7a.25.25 0 0 1-.25-.25V18Zm13.694 4.68c-.3-.1-.44-.24-.55-.36a.575.575 0 0 1-.15-.41c0-.22.06-.31.13-.37.1-.08.25-.14.49-.14.36 0 .72.08 1.08.25.17.07.36.07.53-.03h.01l.01-.01a.57.57 0 0 0 .26-.49c0-.17-.05-.33-.14-.47a.774.774 0 0 0-.38-.31c-.44-.16-.92-.24-1.42-.24-.56 0-1.06.14-1.43.48-.38.34-.55.81-.55 1.34 0 .5.17.94.5 1.3.32.36.79.63 1.35.83.37.13.59.27.7.4.1.11.16.25.16.45 0 .28-.08.42-.17.5-.1.09-.29.17-.65.17-.36 0-.67-.09-.95-.26l-.01-.01a.57.57 0 0 0-.85.5c0 .16.03.33.12.48.09.15.22.26.37.33.41.19.87.29 1.36.29.64 0 1.19-.15 1.59-.51.41-.37.58-.89.58-1.49 0-.52-.15-.99-.49-1.36-.32-.36-.84-.64-1.5-.86Zm6.86 3.21-1.39-2.44 1.35-2.37a.61.61 0 0 0 .08-.3c0-.11-.03-.2-.08-.29v-.02a.692.692 0 0 0-.2-.22.613.613 0 0 0-.31-.09c-.38 0-.68.19-.86.52l-.81 1.5-.8-1.48a.903.903 0 0 0-.37-.38 1.03 1.03 0 0 0-.51-.14c-.1 0-.21.02-.31.09-.1.06-.17.15-.21.24-.1.19-.09.39 0 .57l1.35 2.4-1.39 2.45v.01h-.01c-.1.18-.1.39 0 .58v.02c.11.18.29.3.52.3.18 0 .36-.04.52-.14.16-.1.27-.23.36-.39l.83-1.55.83 1.54c.09.17.21.3.37.39.16.09.33.15.51.15.22 0 .41-.11.53-.3.05-.09.09-.2.08-.32a.7.7 0 0 0-.08-.33Zm-12.02-.42h2.05c.18 0 .36.09.48.22.13.13.19.29.19.47s-.07.34-.19.47c-.12.13-.29.2-.47.2h-2.65c-.24 0-.44-.1-.6-.26a.892.892 0 0 1-.24-.6v-5.05c0-.19.07-.37.2-.51s.31-.23.52-.23c.2 0 .37.09.5.22v.01l.01.01c.12.13.2.3.2.49v4.56Zm-2.13.42-1.39-2.44 1.36-2.37a.61.61 0 0 0 .08-.3c0-.11-.03-.2-.08-.29v-.02a.692.692 0 0 0-.2-.22.613.613 0 0 0-.31-.09c-.38 0-.68.19-.86.52l-.81 1.49-.8-1.48a.903.903 0 0 0-.37-.38 1.03 1.03 0 0 0-.51-.14c-.1 0-.21.02-.31.09-.1.06-.17.15-.21.24-.1.19-.13.42-.04.6l1.35 2.37-1.38 2.43v.01h-.01c-.1.18-.1.39 0 .58.11.18.29.32.52.32.18 0 .36-.04.52-.14.16-.1.27-.23.36-.39l.83-1.55.83 1.54c.09.16.21.29.37.39.16.09.33.15.51.15.22 0 .41-.11.53-.3.05-.09.09-.2.08-.32 0-.11-.01-.22-.06-.3Zm-1.71-2.44-.11.06.1-.06h.01Zm.65-2.57-.18-.11.19.11h-.01Z" clip-rule="evenodd"/>
</svg>
