<svg xmlns="http://www.w3.org/2000/svg" width="32" height="32" fill="currentColor" viewBox="0 0 32 32">
  <path fill-rule="evenodd" d="M8.802 2C6.723 2 5 3.651 5 5.738v20.524C5 28.349 6.723 30 8.802 30h15.396C26.277 30 28 28.349 28 26.262V9.842l-.023-.055a.993.993 0 0 0-.142-.337l-.136-.324-7-6.84A.997.997 0 0 0 20 2H8.802ZM19 4H8.802C7.784 4 7 4.8 7 5.738v20.524C7 27.2 7.784 28 8.802 28h15.396C25.216 28 26 27.2 26 26.262V11h-4.602A2.4 2.4 0 0 1 19 8.602V4Zm5.709 5L21 5.376v3.226a.4.4 0 0 0 .398.398h3.31Z" clip-rule="evenodd"/>
</svg>
