<svg xmlns="http://www.w3.org/2000/svg" width="33" height="32" fill="currentColor" viewBox="0 0 33 32">
  <path d="M19.074 1c.292 0 .553.126.736.325l.003.002 6 6.594.06.071a1 1 0 0 1 .2.602V15h3a2 2 0 0 1 2 2v12a2 2 0 0 1-2 2h-26a2 2 0 0 1-2-2V17a2 2 0 0 1 2-2h2V4.472C5.075 2.542 6.654 1 8.577 1h10.498Zm-16 28h26V17h-26v12Zm4.75-11a3.25 3.25 0 0 1 0 6.5h-1.75V27a1 1 0 1 1-2 0v-7.09A1.91 1.91 0 0 1 5.983 18h1.84Zm8 0a3.25 3.25 0 0 1 0 6.5h-1.75V27a1 1 0 0 1-2 0v-7.09A1.91 1.91 0 0 1 13.983 18h1.84Zm11.405.005a1 1 0 0 1 0 1.99l-.102.005h-2.158v7a1 1 0 0 1-2 0v-7h-2.158a1 1 0 1 1 0-2h6.316l.102.005ZM6.074 22.5h1.75a1.25 1.25 0 1 0 0-2.5h-1.75v2.5Zm8 0h1.75a1.25 1.25 0 0 0 0-2.5h-1.75v2.5ZM8.576 3c-.842 0-1.502.67-1.502 1.472V15h17v-5h-3.686c-1.333 0-2.314-1.135-2.314-2.398V3H8.576Zm11.498 4.602c0 .276.199.398.314.398h2.794l-3.108-3.417v3.019Z"/>
</svg>
