<svg xmlns="http://www.w3.org/2000/svg" width="32" height="32" fill="currentColor" viewBox="0 0 32 32">
  <path fill-rule="evenodd" d="M2.25 5.472c0-1.789 1.464-3.222 3.252-3.222H16c.22 0 .42.095.557.247l5.998 6.592a.75.75 0 0 1 .195.505v3.686a.75.75 0 1 1-1.5 0v-2.53h-3.935c-1.182 0-2.065-1.008-2.065-2.148V3.75H5.502c-.977 0-1.752.779-1.752 1.722V24.25a.75.75 0 0 1-1.5 0V5.472Zm14.5-.533v3.663c0 .4.297.648.565.648h3.358L16.75 4.939ZM9 16.25A1.75 1.75 0 0 0 7.25 18v11c0 .966.784 1.75 1.75 1.75h20A1.75 1.75 0 0 0 30.75 29V18A1.75 1.75 0 0 0 29 16.25H9ZM8.75 18a.25.25 0 0 1 .25-.25h20a.25.25 0 0 1 .25.25v11a.25.25 0 0 1-.25.25H9a.25.25 0 0 1-.25-.25V18Zm10.26 8.27h2.59l.01.01c.2 0 .37.07.51.21.14.14.21.31.21.51s-.07.37-.21.51a.71.71 0 0 1-.51.21h-3.25c-.25 0-.48-.1-.66-.28a.924.924 0 0 1-.28-.66v-5.89c0-.21.08-.4.23-.55.31-.32.82-.31 1.12 0 .16.14.24.33.24.55v5.38Zm-4.32-2.41 1.67-2.79c.06-.1.1-.22.1-.33a.62.62 0 0 0-.09-.32.662.662 0 0 0-.23-.24.62.62 0 0 0-.32-.09c-.42 0-.76.19-.98.57l-1.07 1.89-1.07-1.87c-.1-.19-.25-.33-.43-.43-.28-.16-.63-.23-.9-.07-.1.06-.18.14-.23.25-.11.2-.11.42 0 .65l1.67 2.79-1.54 2.56v-.02l-.19.34c-.11.2-.11.42.01.64.24.38.79.37 1.13.16.14-.08.25-.19.35-.33h.09v-.15l1.08-1.91 1.1 1.95a1.182 1.182 0 0 0 1.01.59c.24 0 .44-.11.56-.31.07-.11.1-.23.1-.35 0-.11-.04-.22-.1-.32l-1.71-2.87-.01.01Zm10.73-.85c.85.28 1.44.6 1.8.98l-.01.02c.38.4.58.92.58 1.54 0 .73-.23 1.3-.69 1.69-.44.38-1.07.57-1.88.57-.59 0-1.14-.11-1.62-.32l-.04-.02a.965.965 0 0 1-.38-.34c-.09-.15-.14-.33-.14-.53 0-.12.03-.22.08-.31s.13-.17.23-.22c.19-.1.4-.1.59 0 .38.22.78.32 1.23.32.4 0 .69-.08.86-.22.16-.12.23-.33.23-.62 0-.24-.07-.42-.21-.57-.16-.17-.47-.34-.89-.48-.71-.24-1.25-.55-1.62-.94-.4-.41-.6-.91-.6-1.48 0-.64.22-1.15.65-1.52.41-.36.98-.54 1.68-.54.61 0 1.18.09 1.7.28.17.06.32.18.43.34.1.15.16.32.16.52 0 .21-.11.4-.29.52-.2.11-.39.11-.58.04-.46-.21-.93-.31-1.38-.31-.29 0-.51.06-.67.18-.08.05-.18.17-.18.47 0 .21.06.37.2.52.16.17.42.31.76.43Z" clip-rule="evenodd"/>
</svg>
