<svg xmlns="http://www.w3.org/2000/svg" width="32" height="32" fill="currentColor" viewBox="0 0 32 32">
  <path d="M6 21a1 1 0 1 1 0 2H5a1 1 0 0 0-1 1v3a1 1 0 0 0 1 1h22a1 1 0 0 0 1-1v-3a1 1 0 0 0-1-1h-1a1 1 0 1 1 0-2h1a3 3 0 0 1 3 3v3a3 3 0 0 1-3 3H5a3 3 0 0 1-3-3v-3a3 3 0 0 1 3-3h1Zm1 3.5a1 1 0 1 1 0 2 1 1 0 0 1 0-2ZM19.064 2.317l4.667 5L24 8v12c0 1.591-1.22 3-2.868 3H10.868C9.22 23 8 21.591 8 19.999V5.001C8 3.409 9.22 2 10.868 2h7.465l.732.317ZM10.868 4C10.452 4 10 4.382 10 5.001v14.998c0 .62.452 1.001.868 1.001h10.264c.416 0 .868-.382.868-1.001V11h-3.201c-.66 0-1.134-.403-1.397-.797A2.54 2.54 0 0 1 17 8.802V4h-6.132ZM19 8.802c0 .082.013.148.027.198H22v-.606L19 5.18v3.622Z"/>
</svg>
