<svg xmlns="http://www.w3.org/2000/svg" width="32" height="32" fill="currentColor" viewBox="0 0 32 32">
  <path fill-rule="evenodd" d="M6.802 2C4.723 2 3 3.651 3 5.738v20.524C3 28.349 4.723 30 6.802 30H16a1 1 0 1 0 0-2H6.802C5.784 28 5 27.2 5 26.262V5.738C5 4.8 5.784 4 6.802 4H17v4.602A2.4 2.4 0 0 0 19.398 11H24v1.5a1 1 0 1 0 2 0V9.841l-.023-.054a.993.993 0 0 0-.142-.337l-.136-.324-6.999-6.84A.997.997 0 0 0 18 2H6.802ZM19 5.376v3.226a.4.4 0 0 0 .398.398h3.31L19 5.376Z" clip-rule="evenodd"/>
  <path fill-rule="evenodd" d="M24 18c-1.025 0-2 .935-2 2.257V21l-.001.05c1.915-.1 4.073-.051 5.764.145l.02.002c.729.1 1.217.726 1.217 1.41v5.787a1.421 1.421 0 0 1-1.237 1.411c-2.23.26-5.287.26-7.526 0l-.02-.002A1.413 1.413 0 0 1 19 28.393v-5.787c0-.64.427-1.199 1.028-1.369A1.006 1.006 0 0 1 20 21v-.743C20 17.987 21.719 16 24 16c1.13 0 2.133.495 2.853 1.276l.006.006c.352.389.64.846.838 1.354a1 1 0 1 1-1.863.728 2.402 2.402 0 0 0-.454-.736C25.003 18.222 24.52 18 24 18Zm-3 9.873v-4.747a35.671 35.671 0 0 1 6 0v4.748a35.671 35.671 0 0 1-6 0Z" clip-rule="evenodd"/>
</svg>
