<svg xmlns="http://www.w3.org/2000/svg" width="33" height="32" fill="currentColor" viewBox="0 0 33 32">
  <path d="M28.296 1a3 3 0 0 1 3 3v24a3 3 0 0 1-3 3h-24a3 3 0 0 1-3-3V4a3 3 0 0 1 3-3h24Zm-24 2a1 1 0 0 0-1 1v24a1 1 0 0 0 1 1h24a1 1 0 0 0 1-1V4a1 1 0 0 0-1-1h-24Zm2 9.25a3.75 3.75 0 1 1 0 7.5h-.555c-.66 0-1.195-.535-1.195-1.194v-5.112c0-.66.535-1.194 1.195-1.194h.555Zm7 0c.881 0 1.587.536 2.038 1.213.455.682.712 1.581.712 2.537s-.257 1.855-.712 2.537c-.451.677-1.157 1.213-2.038 1.213-.88 0-1.586-.536-2.038-1.213-.455-.682-.712-1.581-.712-2.537s.257-1.855.712-2.537c.452-.677 1.157-1.213 2.038-1.213Zm6.343 0c.804 0 1.565.37 2.137 1.031l.111.136.044.063a.75.75 0 0 1-1.176.918l-.05-.057-.127-.149c-.303-.316-.64-.442-.939-.442-.341 0-.732.165-1.065.59-.703.901-.703 2.419 0 3.32.332.425.723.59 1.065.59.342 0 .733-.165 1.066-.59a.75.75 0 0 1 1.182.923c-.582.745-1.39 1.167-2.248 1.167-.857 0-1.665-.422-2.247-1.167-1.127-1.443-1.127-3.723 0-5.166.582-.745 1.39-1.167 2.247-1.167Zm7.033.334a.75.75 0 1 1 1.248.832L26.198 16l1.722 2.584.04.066a.75.75 0 0 1-1.242.828l-.046-.062-1.376-2.064-1.376 2.064a.75.75 0 1 1-1.248-.832L24.395 16l-1.723-2.584-.039-.066a.75.75 0 0 1 1.241-.827l.046.061 1.376 2.064 1.376-2.064ZM6.046 18.25h.25a2.25 2.25 0 0 0 0-4.5h-.25v4.5Zm7.25-4.5c-.223 0-.517.136-.79.545-.269.403-.46 1.004-.46 1.705 0 .701.191 1.302.46 1.705.273.409.567.545.79.545.224 0 .518-.136.79-.545.27-.403.46-1.004.46-1.705 0-.701-.19-1.302-.46-1.705-.272-.409-.566-.545-.79-.545Z"/>
</svg>
