<svg xmlns="http://www.w3.org/2000/svg" width="32" height="32" fill="currentColor" viewBox="0 0 32 32">
  <path fill-rule="evenodd" d="M9 14a1 1 0 0 1 1-1h12a1 1 0 1 1 0 2H10a1 1 0 0 1-1-1Zm0 4a1 1 0 0 1 1-1h12a1 1 0 1 1 0 2H10a1 1 0 0 1-1-1Zm0 4a1 1 0 0 1 1-1h8a1 1 0 1 1 0 2h-8a1 1 0 0 1-1-1Z" clip-rule="evenodd"/>
  <path fill-rule="evenodd" d="M5 5.738C5 3.651 6.723 2 8.802 2H20l.707.293 7 7L28 10v16.262C28 28.349 26.277 30 24.198 30H8.802C6.723 30 5 28.349 5 26.262V5.738ZM8.802 4C7.784 4 7 4.8 7 5.738v20.524C7 27.2 7.784 28 8.802 28h15.396C25.216 28 26 27.2 26 26.262V10.414L19.586 4H8.802Z" clip-rule="evenodd"/>
  <path fill-rule="evenodd" d="M20 2a1 1 0 0 1 1 1v5.602a.4.4 0 0 0 .398.398H27a1 1 0 1 1 0 2h-5.602A2.4 2.4 0 0 1 19 8.602V3a1 1 0 0 1 1-1Z" clip-rule="evenodd"/>
</svg>
