<svg xmlns="http://www.w3.org/2000/svg" width="33" height="32" fill="currentColor" viewBox="0 0 33 32">
  <path d="M28.481 1a3 3 0 0 1 3 3v24a3 3 0 0 1-3 3h-24a3 3 0 0 1-3-3V4a3 3 0 0 1 3-3h24Zm-24 2a1 1 0 0 0-1 1v24a1 1 0 0 0 1 1h24a1 1 0 0 0 1-1V4a1 1 0 0 0-1-1h-24Zm4.75 8a3.25 3.25 0 0 1 0 6.5h-1.75V20a1 1 0 1 1-2 0v-7.09A1.91 1.91 0 0 1 7.391 11h1.84Zm6.507.007A5 5 0 0 1 15.481 21h-.444c-.86 0-1.556-.697-1.556-1.556v-6.888c0-.86.697-1.556 1.556-1.556h.444l.257.007Zm11.846-.002a1 1 0 0 1 0 1.99L27.48 13h-4v2h3.167l.102.005a1 1 0 0 1 0 1.99l-.102.005H23.48v3a1 1 0 1 1-2 0v-8l.005-.102A1 1 0 0 1 22.48 11h5l.103.005ZM15.48 19a3 3 0 0 0 0-6v6Zm-8-3.5h1.75a1.25 1.25 0 1 0 0-2.5H7.48v2.5Z"/>
</svg>
