<svg xmlns="http://www.w3.org/2000/svg" width="32" height="32" fill="currentColor" viewBox="0 0 32 32">
  <path fill-rule="evenodd" d="M3 5.738C3 3.651 4.723 2 6.802 2H18c.273 0 .52.11.7.286l6.999 6.84.136.324a.993.993 0 0 1 .142.337l.023.054V13a1 1 0 1 1-2 0v-2h-4.602A2.4 2.4 0 0 1 17 8.602V4H6.802C5.784 4 5 4.8 5 5.738v20.524C5 27.2 5.784 28 6.802 28H13a1 1 0 1 1 0 2H6.802C4.723 30 3 28.349 3 26.262V5.738Zm16 2.864V5.376L22.709 9h-3.31A.4.4 0 0 1 19 8.602ZM18 18a2 2 0 0 0-2 2v8a2 2 0 0 0 2 2h10a2 2 0 0 0 2-2v-8a2 2 0 0 0-2-2H18Zm0 2h10v2.613l-1.684-.562a1 1 0 0 0-.87.117l-2.518 1.678-1.48-.74a1 1 0 0 0-.895 0L18 24.382V20Zm6.988 4.876L28 26.382v-1.661l-1.852-.618-1.16.773ZM21 25.118 26.764 28H18v-1.382l3-1.5Z" clip-rule="evenodd"/>
</svg>
