<svg xmlns="http://www.w3.org/2000/svg" width="32" height="32" fill="currentColor" viewBox="0 0 32 32">
  <path fill-rule="evenodd" d="M2 5.738C2 3.651 3.723 2 5.802 2H17c.273 0 .52.11.7.286l6.999 6.84.136.324a.993.993 0 0 1 .142.337l.023.054V13a1 1 0 1 1-2 0v-2h-4.602A2.4 2.4 0 0 1 16 8.602V4H5.802C4.784 4 4 4.8 4 5.738v20.524C4 27.2 4.784 28 5.802 28H12a1 1 0 1 1 0 2H5.802C3.723 30 2 28.349 2 26.262V5.738Zm16-.362v3.226a.4.4 0 0 0 .398.398h3.31L18 5.376ZM22 16a7 7 0 0 0-7 7 7 7 0 1 0 14 0 7 7 0 0 0-7-7Zm-5 7a5 5 0 0 1 5-5 5 5 0 1 1 0 10 5 5 0 0 1-5-5Zm7.819-1.426a1 1 0 0 0-1.638-1.148L21.2 23.254l-.379-.543a1 1 0 0 0-1.64 1.144l1.196 1.717a1 1 0 0 0 1.64.002l2.803-4Z" clip-rule="evenodd"/>
</svg>
