<svg xmlns="http://www.w3.org/2000/svg" width="33" height="32" fill="currentColor" viewBox="0 0 33 32">
  <path d="M28.222 1a3 3 0 0 1 3 3v24a3 3 0 0 1-3 3h-24a3 3 0 0 1-3-3V4a3 3 0 0 1 3-3h24Zm-24 2a1 1 0 0 0-1 1v24a1 1 0 0 0 1 1h24a1 1 0 0 0 1-1V4a1 1 0 0 0-1-1h-24Zm3.75 8a3.25 3.25 0 0 1 0 6.5h-1.75V20a1 1 0 1 1-2 0v-7.09A1.91 1.91 0 0 1 6.132 11h1.84Zm8 0a3.25 3.25 0 0 1 0 6.5h-1.75V20a1 1 0 1 1-2 0v-7.09a1.91 1.91 0 0 1 1.91-1.91h1.84Zm11.405.005a1 1 0 0 1 0 1.99l-.102.005h-2.158v7a1 1 0 0 1-2 0v-7H20.96a1 1 0 1 1 0-2h6.316l.102.005ZM6.222 15.5h1.75a1.25 1.25 0 1 0 0-2.5h-1.75v2.5Zm8 0h1.75a1.25 1.25 0 1 0 0-2.5h-1.75v2.5Z"/>
</svg>
