<svg xmlns="http://www.w3.org/2000/svg" width="32" height="32" fill="currentColor" viewBox="0 0 32 32">
  <path fill-rule="evenodd" d="M5.002 1.75c-1.788 0-3.252 1.433-3.252 3.222V23.75a.75.75 0 0 0 1.5 0V4.972c0-.943.775-1.722 1.752-1.722h9.748v4.852c0 1.14.883 2.148 2.065 2.148h3.935v3.531a.75.75 0 1 0 1.5 0V9.094a.75.75 0 0 0-.195-.505l-5.998-6.592a.748.748 0 0 0-.557-.247H5.002ZM16.25 4.439v3.663c0 .4.297.648.565.648h3.358L16.25 4.439ZM5.75 17.5c0-.966.783-1.75 1.75-1.75h21c.966 0 1.75.784 1.75 1.75v11a1.75 1.75 0 0 1-1.75 1.75h-21a1.75 1.75 0 0 1-1.75-1.75v-11Zm1.75-.25a.25.25 0 0 0-.25.25v11c0 .138.112.25.25.25h21a.25.25 0 0 0 .25-.25v-11a.25.25 0 0 0-.25-.25h-21ZM9 19.17c.37-.05.79-.07 1.23-.07l-.01.01c1.27 0 2.24.33 2.9.97.66.64.99 1.54.99 2.84 0 1.3-.34 2.3-.99 2.97-.65.68-1.63 1.02-2.9 1.02-.44 0-.85-.02-1.23-.07a1 1 0 0 1-.64-.33c-.17-.2-.26-.43-.26-.68v-5.66c0-.24.08-.46.23-.64l.02-.02c.17-.19.4-.31.66-.34Zm1.24 6.31c.82 0 1.42-.2 1.78-.58.37-.39.56-1.05.56-1.99 0-.84-.19-1.45-.56-1.82-.36-.38-.96-.57-1.78-.57-.2 0-.38.01-.55.03v4.9c.17.03.35.03.55.03Zm7.96-6.38c-1.08 0-1.95.36-2.58 1.06-.61.68-.93 1.64-.93 2.84s.31 2.16.92 2.85c.63.69 1.5 1.05 2.58 1.05s1.94-.35 2.57-1.05c.62-.69.94-1.65.94-2.85 0-1.2-.32-2.16-.93-2.84-.63-.7-1.49-1.06-2.57-1.06Zm1.9 3.9c0 .85-.17 1.48-.51 1.9-.31.39-.77.58-1.39.58-.62 0-1.08-.19-1.4-.58-.33-.41-.5-1.05-.5-1.89 0-.84.17-1.48.5-1.89.32-.39.78-.58 1.41-.58.63 0 1.08.19 1.39.58.34.41.51 1.05.51 1.9L20.1 23Zm7.16 2.3a.6.6 0 0 1 .36.12h.03c.18.11.28.3.28.51 0 .19-.07.37-.19.52-.11.14-.27.24-.45.29-.48.11-.97.16-1.48.16-1.06 0-1.92-.35-2.56-1.04-.64-.69-.96-1.66-.96-2.86s.3-2.15.91-2.84c.62-.7 1.49-1.06 2.57-1.06.53 0 1.02.05 1.45.15.19.05.35.16.46.31.12.14.18.32.18.51 0 .21-.1.4-.28.52a.65.65 0 0 1-.56.08c-.35-.1-.74-.15-1.18-.15-.62 0-1.09.2-1.43.61-.36.42-.54 1.06-.54 1.86s.18 1.43.55 1.86c.36.42.83.62 1.44.62.42 0 .81-.04 1.16-.15h.07l.17-.05v.03Z" clip-rule="evenodd"/>
</svg>
