<svg xmlns="http://www.w3.org/2000/svg" width="32" height="32" fill="currentColor" viewBox="0 0 32 32">
  <path d="M18 2c.271 0 .517.109.697.284l.002.001 7 6.841.138.327c.064.099.111.21.138.328l.025.06V13a1 1 0 1 1-2 0v-2h-4.602A2.401 2.401 0 0 1 17 8.602V4H6.802C5.784 4 5 4.8 5 5.738v20.524C5 27.2 5.784 28 6.802 28H8a1 1 0 1 1 0 2H6.802C4.723 30 3 28.349 3 26.262V5.738C3 3.652 4.723 2 6.802 2H18Zm9 14a1 1 0 0 1 1 1v11a1 1 0 1 1 0 2H11a1 1 0 1 1 0-2v-4a1 1 0 0 1 1-1h3a1 1 0 0 1 1 1v4h1v-7a1 1 0 0 1 1-1h3a1 1 0 0 1 1 1v7h1V17a1 1 0 0 1 1-1h3ZM13 28h1v-3h-1v3Zm6 0h1v-6h-1v6Zm6 0h1V18h-1v10ZM19 8.602a.4.4 0 0 0 .398.398h3.311L19 5.375v3.227Z"/>
</svg>
