<svg xmlns="http://www.w3.org/2000/svg" width="33" height="32" fill="currentColor" viewBox="0 0 33 32">
  <path d="M19.889 1c.292 0 .553.126.736.325l.003.002 6 6.594.06.071a1 1 0 0 1 .2.602V15h3a2 2 0 0 1 2 2v12a2 2 0 0 1-2 2h-26a2 2 0 0 1-2-2V17a2 2 0 0 1 2-2h2V4.472C5.89 2.542 7.469 1 9.392 1H19.89Zm-16 28h26V17h-26v12Zm7-11a1 1 0 0 1 1 1v5.5a3.5 3.5 0 0 1-7 0 1 1 0 1 1 2 0 1.5 1.5 0 0 0 3 0V19a1 1 0 0 1 1-1Zm5.75 0a3.25 3.25 0 0 1 0 6.5h-1.75V27a1 1 0 0 1-2 0v-7.09A1.91 1.91 0 0 1 14.798 18h1.84Zm8.26 0c1.06 0 2.048.507 2.784 1.389l.144.181.057.085a1 1 0 0 1-1.59 1.197l-.065-.08-.163-.196c-.386-.42-.807-.576-1.166-.576-.411 0-.903.204-1.33.773-.436.579-.681 1.382-.681 2.227s.245 1.648.68 2.227c.428.569.92.773 1.33.773.411 0 .902-.204 1.33-.773a3.37 3.37 0 0 0 .56-1.227H24.9a1 1 0 1 1 0-2h2.634c.944 0 1.356.846 1.355 1.47l-.006.123c-.095 1.005-.434 2.012-1.055 2.837C27.08 27.423 26.03 28 24.9 28s-2.18-.577-2.928-1.57c-.74-.983-1.083-2.228-1.083-3.43s.343-2.447 1.083-3.43C22.72 18.577 23.77 18 24.9 18Zm-10.01 4.5h1.75a1.25 1.25 0 0 0 0-2.5h-1.75v2.5ZM9.39 3c-.842 0-1.502.67-1.502 1.472V15h17v-5h-3.686c-1.333 0-2.314-1.135-2.314-2.398V3H9.39Zm11.498 4.602c0 .276.199.398.314.398h2.794L20.89 4.583v3.019Z"/>
</svg>
