<svg xmlns="http://www.w3.org/2000/svg" width="32" height="32" fill="none" viewBox="0 0 32 32">
  <path fill="#3D3C3C" fill-rule="evenodd" d="M3 5.738C3 3.651 4.723 2 6.802 2H18l.699.285 7 6.84.301.716V13a1 1 0 1 1-2 0v-2.738L17.593 4H6.802C5.784 4 5 4.8 5 5.738v20.524C5 27.2 5.784 28 6.802 28H14a1 1 0 1 1 0 2H6.802C4.723 30 3 28.349 3 26.262V5.738Z" clip-rule="evenodd"/>
  <path fill="#3D3C3C" fill-rule="evenodd" d="M18 2a1 1 0 0 1 1 1v5.602a.4.4 0 0 0 .398.398H25a1 1 0 1 1 0 2h-5.602A2.4 2.4 0 0 1 17 8.602V3a1 1 0 0 1 1-1Zm1 16.365v7.09C19 26.651 20.331 28 22.5 28s3.5-1.349 3.5-2.546v-5.908a1 1 0 1 1 2 0v5.908C28 28.174 25.303 30 22.5 30S17 28.174 17 25.454v-7.096c.01-2.06 2.03-3.358 4.004-3.358 1.972 0 3.998 1.297 3.998 3.362v6.498c0 1.416-1.354 2.184-2.502 2.184-1.148 0-2.502-.768-2.502-2.184v-5.314a1 1 0 0 1 2 0v5.304c.005.01.02.032.058.062a.727.727 0 0 0 .444.132.727.727 0 0 0 .444-.132.215.215 0 0 0 .058-.062v-6.488c0-.543-.66-1.362-1.998-1.362-1.335 0-2 .817-2.004 1.365Z" clip-rule="evenodd"/>
</svg>
