<svg xmlns="http://www.w3.org/2000/svg" width="33" height="32" fill="currentColor" viewBox="0 0 33 32">
  <path d="M19.333 1c.292 0 .554.126.737.325l.003.002 6 6.594.06.071a1 1 0 0 1 .2.602V15h3a2 2 0 0 1 2 2v12a2 2 0 0 1-2 2h-26a2 2 0 0 1-2-2V17a2 2 0 0 1 2-2h2V4.472C5.333 2.542 6.912 1 8.835 1h10.498Zm-16 28h26V17h-26v12Zm5.75-11a3.25 3.25 0 1 1 0 6.5h-1.75V27a1 1 0 1 1-2 0v-7.09A1.91 1.91 0 0 1 7.243 18h1.84Zm6.507.007A5 5 0 0 1 15.333 28h-.444c-.86 0-1.556-.697-1.556-1.556v-6.888c0-.86.697-1.556 1.556-1.556h.444l.257.007Zm11.846-.002a1 1 0 0 1 0 1.99l-.103.005h-4v2H26.5l.102.005a1 1 0 0 1 0 1.99L26.5 24h-3.167v3a1 1 0 0 1-2 0v-8l.005-.102a1 1 0 0 1 .995-.898h5l.103.005ZM15.333 26a3 3 0 0 0 0-6v6Zm-8-3.5h1.75a1.25 1.25 0 1 0 0-2.5h-1.75v2.5ZM8.835 3c-.841 0-1.502.67-1.502 1.472V15h17v-5h-3.685c-1.334 0-2.315-1.135-2.315-2.398V3H8.835Zm11.498 4.602c0 .276.2.398.315.398h2.794l-3.109-3.417v3.019Z"/>
</svg>
