<svg xmlns="http://www.w3.org/2000/svg" width="33" height="32" fill="currentColor" viewBox="0 0 33 32">
  <path d="M19.148 1c.292 0 .554.126.736.325l.003.002 6 6.594.06.071a1 1 0 0 1 .201.602V15h3a2 2 0 0 1 2 2v12a2 2 0 0 1-2 2h-26a2 2 0 0 1-2-2V17a2 2 0 0 1 2-2h2V4.472C5.148 2.542 6.727 1 8.65 1h10.498Zm-16 28h26V17h-26v12Zm3-9.75a3.75 3.75 0 1 1 0 7.5h-.556c-.66 0-1.194-.535-1.194-1.194v-5.112c0-.66.535-1.194 1.194-1.194h.556Zm7 0c.881 0 1.587.536 2.038 1.213.455.682.712 1.581.712 2.537s-.257 1.855-.712 2.537c-.451.677-1.157 1.213-2.038 1.213-.88 0-1.587-.536-2.038-1.213-.455-.682-.712-1.581-.712-2.537s.257-1.855.712-2.537c.451-.677 1.157-1.213 2.038-1.213Zm6.343 0c.804 0 1.565.37 2.137 1.031l.111.136.044.063a.75.75 0 0 1-1.176.918l-.05-.057-.128-.149c-.302-.316-.64-.442-.938-.442-.342 0-.733.165-1.066.59-.702.901-.702 2.419 0 3.32.333.425.724.59 1.066.59.341 0 .733-.165 1.066-.59a.75.75 0 0 1 1.182.923c-.582.745-1.39 1.167-2.248 1.167-.858 0-1.665-.422-2.247-1.167-1.127-1.443-1.127-3.723 0-5.166.582-.745 1.39-1.167 2.247-1.167Zm7.033.334a.75.75 0 1 1 1.248.832L26.05 23l1.723 2.584.04.066a.75.75 0 0 1-1.242.828l-.046-.062-1.376-2.064-1.376 2.064a.75.75 0 1 1-1.248-.832L24.247 23l-1.723-2.584-.039-.066a.75.75 0 0 1 1.241-.828l.046.062 1.376 2.064 1.376-2.064ZM5.898 25.25h.25a2.25 2.25 0 0 0 0-4.5h-.25v4.5Zm7.25-4.5c-.223 0-.517.136-.79.545-.269.403-.46 1.004-.46 1.705 0 .701.191 1.302.46 1.705.273.409.567.545.79.545.224 0 .518-.136.79-.545.27-.403.46-1.004.46-1.705 0-.701-.19-1.302-.46-1.705-.272-.409-.566-.545-.79-.545ZM8.65 3c-.841 0-1.502.67-1.502 1.472V15h17v-5h-3.685c-1.334 0-2.315-1.135-2.315-2.398V3H8.65Zm11.498 4.602c0 .276.2.398.315.398h2.793l-3.108-3.417v3.019Z"/>
</svg>
