<svg xmlns="http://www.w3.org/2000/svg" width="33" height="32" fill="currentColor" viewBox="0 0 33 32">
  <path d="M19.37 1c.292 0 .554.126.736.325l.003.002 6 6.594.06.071a1 1 0 0 1 .201.602V15h3a2 2 0 0 1 2 2v12a2 2 0 0 1-2 2h-26a2 2 0 0 1-2-2V17a2 2 0 0 1 2-2h2V4.472C5.37 2.542 6.95 1 8.872 1H19.37Zm-16 28h26V17h-26v12Zm4.313-9.75a2.437 2.437 0 0 1 0 4.875H6.12V26a.75.75 0 0 1-1.5 0v-5.273c0-.815.662-1.477 1.478-1.477h1.585Zm6 0a2.437 2.437 0 1 1 0 4.875H12.12V26a.75.75 0 0 1-1.5 0v-5.273c0-.815.662-1.477 1.478-1.477h1.585Zm7.687 0a.75.75 0 0 1 0 1.5h-1.25V26a.75.75 0 0 1-1.5 0v-5.25h-1.25a.75.75 0 0 1 0-1.5h4Zm5.376.334a.75.75 0 1 1 1.248.832L26.271 23l1.723 2.584.04.066a.75.75 0 0 1-1.242.828l-.046-.062-1.376-2.064-1.376 2.064a.75.75 0 1 1-1.248-.832L24.47 23l-1.723-2.584-.039-.066a.75.75 0 0 1 1.241-.828l.046.062 1.376 2.064 1.376-2.064ZM6.12 22.625h1.563a.937.937 0 1 0 0-1.875H6.12v1.875Zm6 0h1.563a.937.937 0 1 0 0-1.875H12.12v1.875ZM8.872 3c-.841 0-1.502.67-1.502 1.472V15h17v-5h-3.685c-1.334 0-2.315-1.135-2.315-2.398V3H8.872ZM20.37 7.602c0 .276.2.398.315.398h2.794L20.37 4.583v3.019Z"/>
</svg>
