<svg xmlns="http://www.w3.org/2000/svg" width="32" height="32" fill="currentColor" viewBox="0 0 32 32">
  <path fill-rule="evenodd" d="M5.002 1.75c-1.788 0-3.252 1.433-3.252 3.222V23.75a.75.75 0 0 0 1.5 0V4.972c0-.943.775-1.722 1.752-1.722h9.748v4.852c0 1.14.883 2.148 2.065 2.148h3.935v3.531a.75.75 0 1 0 1.5 0V9.094a.75.75 0 0 0-.195-.505l-5.998-6.592a.748.748 0 0 0-.557-.247H5.002ZM16.25 4.439v3.663c0 .4.297.648.565.648h3.358L16.25 4.439ZM5.75 17.5c0-.966.784-1.75 1.75-1.75h21c.966 0 1.75.784 1.75 1.75v11a1.75 1.75 0 0 1-1.75 1.75h-21a1.75 1.75 0 0 1-1.75-1.75v-11Zm1.75-.25a.25.25 0 0 0-.25.25v11c0 .138.112.25.25.25h21a.25.25 0 0 0 .25-.25v-11a.25.25 0 0 0-.25-.25h-21Zm3.95 1.85c.95 0 1.7.21 2.22.63v.02c.55.43.83 1.05.83 1.84 0 .84-.28 1.5-.83 1.95-.53.43-1.28.65-2.23.65-.25 0-.51 0-.78-.02v1.88c0 .2-.08.39-.23.54-.14.15-.33.23-.55.23-.22 0-.41-.08-.56-.24h-.01a.78.78 0 0 1-.21-.54v-5.86c0-.25.09-.48.26-.66.16-.19.38-.31.63-.34.52-.05 1-.08 1.46-.08Zm1.13 3.36c.25-.19.36-.45.36-.83h-.01c0-.37-.11-.63-.34-.81-.26-.21-.66-.31-1.21-.31-.24 0-.48.01-.72.04v2.19c.22.02.46.03.72.03.54 0 .94-.1 1.2-.31ZM26 22.13h-2.33v-1.51h2.5a.72.72 0 0 0 .72-.72c0-.19-.08-.36-.22-.5a.754.754 0 0 0-.51-.21h-3.12c-.25 0-.48.09-.66.27-.19.18-.28.41-.28.66v5.91c0 .2.07.39.21.54h.01c.15.16.34.24.56.24.22 0 .41-.08.55-.23.15-.15.23-.34.23-.54v-2.5h2.33c.19 0 .37-.07.51-.21.13-.14.19-.3.19-.49a.64.64 0 0 0-.2-.48.687.687 0 0 0-.51-.22l.02-.01Zm-9.79-2.96c.368-.05.776-.07 1.204-.07 1.238 0 2.197.33 2.836.97.64.64.97 1.54.97 2.84 0 1.3-.32 2.3-.96 2.97-.65.68-1.6 1.02-2.85 1.02-.44 0-.84-.02-1.21-.07a.976.976 0 0 1-.63-.33.98.98 0 0 1-.25-.67v-5.66c0-.25.08-.48.24-.66.17-.19.39-.31.65-.34Zm1.204-.07h.006-.01.004Zm1.746 5.8c.36-.38.54-1.05.54-1.99l.01-.01c0-.84-.19-1.45-.55-1.82-.36-.37-.94-.56-1.74-.56-.19 0-.37.01-.53.03v4.89c.16.03.34.03.53.03.81 0 1.39-.19 1.74-.57Z" clip-rule="evenodd"/>
</svg>
