<svg xmlns="http://www.w3.org/2000/svg" width="32" height="32" fill="currentColor" viewBox="0 0 32 32">
  <path fill-rule="evenodd" d="M5 1.75c-1.787 0-3.25 1.433-3.25 3.222V23.75a.75.75 0 1 0 1.5 0V4.972c0-.943.774-1.722 1.75-1.722h9.743v4.852c0 1.14.883 2.148 2.063 2.148h3.934v3.469a.75.75 0 1 0 1.499 0V9.094a.75.75 0 0 0-.195-.505l-5.995-6.591a.747.747 0 0 0-.556-.248H5Zm11.242 2.689v3.663c0 .4.297.648.564.648h3.357l-3.92-4.311ZM5.763 17.5c0-.966.784-1.75 1.75-1.75H28.5a1.75 1.75 0 0 1 1.749 1.75v11a1.75 1.75 0 0 1-1.749 1.75H7.512a1.75 1.75 0 0 1-1.749-1.75v-11Zm1.75-.25a.25.25 0 0 0-.25.25v11c0 .138.111.25.25.25H28.5a.25.25 0 0 0 .25-.25v-11a.25.25 0 0 0-.25-.25H7.512Zm4.414 2.668c0-.21.09-.41.25-.56l-.02.01c.32-.3.83-.3 1.14 0 .16.14.25.34.25.56v4.2c0 .92-.23 1.61-.7 2.06-.46.44-1.16.67-2.07.67-.499 0-1.009-.06-1.508-.19h-.01a.974.974 0 0 1-.46-.3.888.888 0 0 1-.19-.54c0-.22.11-.41.29-.53.18-.13.39-.15.6-.08.41.13.85.2 1.289.2.41 0 .69-.1.86-.3.13-.15.28-.48.28-1.2v-4Zm7.366-.153c-.54-.41-1.31-.62-2.309-.62-.48 0-.989.03-1.519.08-.25.03-.48.14-.65.33-.18.19-.27.42-.27.67v5.86c0 .16.05.31.14.43v.02l.1.1a.82.82 0 0 0 1.12 0c.16-.15.24-.34.24-.55v-1.88c.29.02.57.03.83.03.989 0 1.768-.22 2.308-.65.57-.45.86-1.11.86-1.96 0-.79-.29-1.42-.87-1.85l.02-.01Zm-1.09 2.73c-.27.22-.699.32-1.268.32-.28 0-.54-.01-.77-.03v-2.19c.26-.03.52-.04.77-.04.58 0 1.009.1 1.289.31.24.18.36.44.36.81 0 .37-.12.63-.37.83l-.01-.01Zm8.885-.255c.204.2.316.45.316.73h-.01v2.59c0 .27-.071.51-.224.73-.153.22-.367.38-.622.46-.54.17-1.142.25-1.805.25-1.08 0-1.998-.36-2.701-1.1-.714-.75-1.04-1.73-1.04-2.9s.326-2.16 1.05-2.9c.713-.75 1.692-1.1 2.844-1.1.52 0 1.01.05 1.458.15h.01a.87.87 0 0 1 .5.31c.01.01.01.02.01.02 0 .01.01.02.01.02.123.15.194.33.194.53a.73.73 0 0 1-.316.6.811.811 0 0 1-.663.11 4.38 4.38 0 0 0-1.152-.15c-.724 0-1.244.21-1.6.6-.357.38-.571.99-.571 1.79s.204 1.38.56 1.79c.357.39.816.6 1.448.6.306 0 .581-.05.846-.11v-1.75h-1.427a.808.808 0 0 1-.581-.23v-.02a.846.846 0 0 1-.214-.55c0-.2.081-.39.224-.54h.01a.779.779 0 0 1 .571-.24h2.131c.296 0 .54.11.744.31Z" clip-rule="evenodd"/>
</svg>
