<svg xmlns="http://www.w3.org/2000/svg" width="32" height="32" fill="currentColor" viewBox="0 0 32 32">
  <path fill-rule="evenodd" d="M1.75 4.972c0-1.789 1.464-3.222 3.252-3.222H15.5c.22 0 .42.095.557.247l5.998 6.592a.75.75 0 0 1 .195.505v4.401a.75.75 0 0 1-1.5 0V10.25h-3.935c-1.182 0-2.065-1.008-2.065-2.148V3.25H5.002c-.977 0-1.752.779-1.752 1.722V23.5a.75.75 0 0 1-1.5 0V4.972Zm14.5 3.13V4.439l3.923 4.311h-3.358c-.268 0-.565-.248-.565-.648ZM6.5 15.75a1.75 1.75 0 0 0-1.75 1.75v11c0 .966.783 1.75 1.75 1.75h22a1.75 1.75 0 0 0 1.75-1.75v-11a1.75 1.75 0 0 0-1.75-1.75h-22Zm-.25 1.75a.25.25 0 0 1 .25-.25h22a.25.25 0 0 1 .25.25v11a.25.25 0 0 1-.25.25h-22a.25.25 0 0 1-.25-.25v-11Zm2.6 2.14c-.35 0-.68.02-.97.06-.22.03-.41.13-.55.31-.13.16-.19.35-.19.57v4.85c0 .21.07.41.21.58.14.16.32.26.53.29.3.04.62.06.97.06 1.01 0 1.78-.3 2.31-.89.51-.58.77-1.44.77-2.55 0-1.11-.26-1.88-.77-2.44-.52-.56-1.29-.84-2.3-.84h-.01Zm1.77 3.28c0 .8-.15 1.38-.43 1.71-.27.32-.71.47-1.34.47-.14 0-.26 0-.38-.02v-4.17c.12-.01.25-.02.38-.02.62 0 1.07.16 1.34.47.29.31.43.84.43 1.56Zm11.88 1.69.02.07-.01.03c.1.02.18.05.26.11.18.11.29.32.29.54 0 .19-.06.37-.18.52-.11.14-.26.24-.44.28-.39.09-.8.13-1.22.13-.89 0-1.61-.29-2.16-.88-.54-.58-.81-1.39-.81-2.39 0-1 .26-1.8.77-2.38.54-.6 1.27-.9 2.18-.9.44 0 .85.04 1.2.12.19.05.35.16.46.31.11.14.17.32.17.5 0 .22-.1.42-.29.55a.69.69 0 0 1-.59.09c-.26-.08-.57-.12-.9-.12-.45 0-.78.14-1.02.43-.26.32-.39.79-.39 1.39 0 .6.13 1.06.4 1.38.26.29.59.43 1.03.43.33 0 .63-.04.89-.11l.06-.02.28-.08Zm5.28.81-1.39-2.46 1.35-2.37.03-.03v-.03a.533.533 0 0 0-.01-.51.506.506 0 0 0-.2-.21.547.547 0 0 0-.29-.08c-.35 0-.65.18-.83.5l-.84 1.55-.83-1.54a.88.88 0 0 0-.36-.38c-.24-.15-.56-.2-.78-.06-.08.05-.15.13-.2.22-.09.17-.09.36 0 .56l1.35 2.39-1.41 2.48c-.09.17-.09.36 0 .54v.02c.12.18.29.28.5.28.18 0 .35-.05.49-.13.14-.09.26-.21.34-.38l.86-1.61.86 1.61c.09.16.21.28.36.37.15.09.32.14.49.14.21 0 .39-.1.49-.28a.566.566 0 0 0 0-.58l.02-.01Zm-14.79-4.86c.509-.609 1.197-.919 2.055-.92.858.001 1.546.311 2.045.92.48.59.73 1.42.73 2.44s-.25 1.85-.73 2.44c-.5.61-1.19.92-2.05.92-.86 0-1.55-.31-2.05-.92-.48-.59-.72-1.4-.72-2.44s.24-1.85.72-2.44Zm2.055-.92h.005-.01.005Zm.005 5.47c.47 0 .8-.16 1.04-.48v-.01c.27-.36.4-.91.4-1.63 0-.72-.13-1.27-.39-1.62-.24-.32-.57-.48-1.04-.48-.47 0-.81.16-1.05.48-.26.35-.39.9-.39 1.63 0 .73.13 1.28.39 1.63.23.32.57.48 1.04.48Z" clip-rule="evenodd"/>
</svg>
