<svg xmlns="http://www.w3.org/2000/svg" width="32" height="32" fill="currentColor" viewBox="0 0 32 32">
  <path fill-rule="evenodd" d="M4 5.738C4 3.651 5.723 2 7.802 2H19c.273 0 .52.11.7.286l6.999 6.84.136.324a.993.993 0 0 1 .142.337l.023.054V17a1 1 0 1 1-2 0v-6h-4.602A2.4 2.4 0 0 1 18 8.602V4H7.802C6.784 4 6 4.8 6 5.738v20.524C6 27.2 6.784 28 7.802 28H13a1 1 0 1 1 0 2H7.802C5.723 30 4 28.349 4 26.262V5.738Zm16-.362v3.226a.4.4 0 0 0 .398.398h3.31L20 5.376Z" clip-rule="evenodd"/>
  <path d="M22 23a2 2 0 1 0 0 4 2 2 0 0 0 0-4Z"/>
  <path fill-rule="evenodd" d="m29.77 24.364-.98-1.182c-3.51-4.242-10.07-4.242-13.58 0l-.98 1.182a1 1 0 0 0 0 1.276l.98 1.183c3.51 4.236 10.066 4.235 13.58 0l.98-1.183a1 1 0 0 0 0-1.276Zm-13.02.093c2.71-3.276 7.79-3.276 10.5 0l.451.545-.45.544c-2.716 3.272-7.791 3.271-10.501 0l-.451-.544.451-.545Z" clip-rule="evenodd"/>
</svg>
