<svg xmlns="http://www.w3.org/2000/svg" width="33" height="32" fill="currentColor" viewBox="0 0 33 32">
  <path d="M28.852 1a3 3 0 0 1 3 3v24a3 3 0 0 1-3 3h-24a3 3 0 0 1-3-3V4a3 3 0 0 1 3-3h24Zm-24 2a1 1 0 0 0-1 1v24a1 1 0 0 0 1 1h24a1 1 0 0 0 1-1V4a1 1 0 0 0-1-1h-24Zm1.47 8.152a1 1 0 0 1 1.319.234l.059.084 1.652 2.643 1.652-2.643a1 1 0 0 1 1.696 1.06L10.53 16l2.17 3.47.05.09a1 1 0 0 1-1.687 1.054l-.059-.084-1.652-2.644L7.7 20.53a1 1 0 0 1-1.696-1.06L8.172 16l-2.168-3.47-.05-.09a1 1 0 0 1 .368-1.288Zm8.53-.152a1 1 0 0 1 1 1v7h4a1 1 0 1 1 0 2h-5a1 1 0 0 1-1-1v-8a1 1 0 0 1 1-1Zm9.5 0c.863 0 1.562.191 2.122.545.557.352.896.813 1.122 1.21a1 1 0 1 1-1.737.99c-.13-.228-.267-.392-.452-.509-.183-.115-.494-.236-1.055-.236-1.044 0-1.535.69-1.497 1.17l.01.061c.041.147.2.34.665.532a3.81 3.81 0 0 0 .868.234l.053.008h.012l.01.003.03.003.099.013a6.044 6.044 0 0 1 1.332.364c.686.281 1.802.934 1.91 2.283l.008.186c.034 1.844-1.636 3.062-3.33 3.14l-.17.003c-.864 0-1.562-.191-2.122-.545a3.348 3.348 0 0 1-1.122-1.21l-.046-.09a1 1 0 0 1 1.783-.9l.1.16c.102.147.213.26.352.349.182.115.494.236 1.055.236l.19-.008c.852-.072 1.284-.63 1.308-1.071l-.001-.092c-.012-.151-.143-.373-.675-.592a3.81 3.81 0 0 0-.868-.234l-.053-.008h-.012l-.01-.003-.03-.003a6.043 6.043 0 0 1-1.43-.377c-.644-.264-1.666-.854-1.879-2.039l-.031-.244C20.7 12.32 22.545 11 24.35 11Z"/>
</svg>
