<svg xmlns="http://www.w3.org/2000/svg" width="32" height="32" fill="currentColor" viewBox="0 0 32 32">
  <path fill-rule="evenodd" d="M6 3a1 1 0 0 0-2 0v1H3a1 1 0 1 0 0 2h1v6H3a1 1 0 1 0 0 2h1v1a1 1 0 1 0 2 0v-1h6v1a1 1 0 1 0 2 0v-1h1a1 1 0 1 0 0-2h-1V6h1a1 1 0 1 0 0-2h-1V3a1 1 0 1 0-2 0v1H6V3Zm0 3v6h6V6H6Zm13 10a1 1 0 0 1 1 1v1h6v-1a1 1 0 1 1 2 0v1h1a1 1 0 1 1 0 2h-1v6h1a1 1 0 1 1 0 2h-1v1a1 1 0 1 1-2 0v-1h-6v1a1 1 0 1 1-2 0v-1h-1a1 1 0 1 1 0-2h1v-6h-1a1 1 0 1 1 0-2h1v-1a1 1 0 0 1 1-1Zm1 4v6h6v-6h-6Z" clip-rule="evenodd"/>
</svg>
