<svg xmlns="http://www.w3.org/2000/svg" width="32" height="32" fill="currentColor" viewBox="0 0 32 32">
  <path fill-rule="evenodd" d="M5 2a1 1 0 0 1 1 1v12a1 1 0 1 1-2 0V3a1 1 0 0 1 1-1Zm8 0a1 1 0 0 1 1 1v12a1 1 0 1 1-2 0V3a1 1 0 0 1 1-1Z" clip-rule="evenodd"/>
  <path fill-rule="evenodd" d="M16 13a1 1 0 0 0-1-1H3a1 1 0 1 0 0 2h12a1 1 0 0 0 1-1Zm0-8a1 1 0 0 0-1-1H3a1 1 0 1 0 0 2h12a1 1 0 0 0 1-1Zm3 11a1 1 0 0 1 1 1v12a1 1 0 1 1-2 0V17a1 1 0 0 1 1-1Zm8 0a1 1 0 0 1 1 1v12a1 1 0 1 1-2 0V17a1 1 0 0 1 1-1Z" clip-rule="evenodd"/>
  <path fill-rule="evenodd" d="M30 27a1 1 0 0 0-1-1H17a1 1 0 1 0 0 2h12a1 1 0 0 0 1-1Zm0-8a1 1 0 0 0-1-1H17a1 1 0 1 0 0 2h12a1 1 0 0 0 1-1Z" clip-rule="evenodd"/>
</svg>
