<svg xmlns="http://www.w3.org/2000/svg" width="32" height="32" fill="currentColor" viewBox="0 0 32 32">
  <path fill-rule="evenodd" d="m15 20.586-7.293-7.293a1 1 0 0 0-1.414 1.414l7.586 7.586a3 3 0 0 0 4.242 0l7.586-7.586a1 1 0 0 0-1.414-1.414L17 20.586V3a1 1 0 1 0-2 0v17.586ZM27 20a1 1 0 0 1 1 1v5.336C28 28.391 26.295 30 24.252 30H7.748C5.705 30 4 28.391 4 26.336V21a1 1 0 1 1 2 0v5.336C6 27.228 6.75 28 7.748 28h16.504C25.25 28 26 27.228 26 26.336V21a1 1 0 0 1 1-1Z" clip-rule="evenodd"/>
</svg>
