<svg xmlns="http://www.w3.org/2000/svg" width="32" height="32" fill="currentColor" viewBox="0 0 32 32">
  <path fill-rule="evenodd" d="M16 4C9.373 4 4 9.373 4 16s5.373 12 12 12 12-5.373 12-12S22.627 4 16 4ZM2 16C2 8.268 8.268 2 16 2s14 6.268 14 14-6.268 14-14 14S2 23.732 2 16Z" clip-rule="evenodd"/>
  <path fill-rule="evenodd" d="M10.008 4.124a1 1 0 0 1 1.358.395l.526.958a1.748 1.748 0 0 1 .265 2.68l-2.322 2.345a1.6 1.6 0 0 1-1.25.47l-.385.863-.308 1.277 2.132-.163a2 2 0 0 1 1.39.421l1.705 1.34c.333.262.552.638.62 1.05l1.619.294A2 2 0 0 1 17 18.022v.525a2 2 0 0 1-.071.53l-.445 1.619a2 2 0 0 1-1.625 1.447l-.457.07v.188a2 2 0 0 1-.647 1.474l-.464.425-.182.502v.876l.007.028c.341 1.242-1.008 2.265-2.111 1.6a1.427 1.427 0 0 1-.37-.32l-.921-1.13a.959.959 0 0 1-.034-.044l-.46-.634a2 2 0 0 1-.383-1.176v-1.029l-.484-1.798-.534-.241a2 2 0 0 1-.991-.98l-.718-1.547a2 2 0 0 1-.186-.843v-1.669c0-.243.05-.482.147-.704l-.19-.262-1.393-1.02a1.999 1.999 0 0 1-.361-.342l-.899-1.09a1 1 0 0 1 1.544-1.272l.898 1.09.308.226.278-1.155c.029-.118.068-.234.117-.345l.514-1.153c.294-.66.988-1.03 1.683-.931l1.963-1.983a1.748 1.748 0 0 1-.363-.458L9.613 5.48a1 1 0 0 1 .395-1.357ZM8.11 15.102c.01.291-.051.585-.187.855v1.607l.718 1.547.534.24a2 2 0 0 1 1.108 1.304l.484 1.798c.046.17.069.345.069.52v1.03l.308.422c.02-.104.048-.206.084-.306l.182-.502a2 2 0 0 1 .528-.79l.463-.426v-.188a2 2 0 0 1 1.697-1.977l.457-.07.444-1.619v-.526l-1.86-.338a1.68 1.68 0 0 1-1.372-1.49l-1.59-1.25-2.067.159ZM23.157 4.567a1 1 0 0 1-.468 1.334l-1.553.746-.617.835.694.337a1 1 0 0 1 .256 1.62L20 10.852v1.282l1.024 1.586h2.125a1 1 0 0 1 .803.404l1.48 1.994a1 1 0 0 1 .196.596v2.865c0 .084-.01.168-.032.25l-.503 1.947.263-.041c.051-.008.103-.013.156-.013H27a1 1 0 0 1 0 2h-1.41l-1.69.267a1 1 0 0 1-1.124-1.238l.852-3.3v-2.407l-.983-1.324H20.48a1 1 0 0 1-.84-.458l-1.48-2.29a1 1 0 0 1-.159-.543v-2.003a1 1 0 0 1 .307-.721l.742-.712-.486-.236a1 1 0 0 1-.367-1.494l1.479-2.003a1 1 0 0 1 .371-.307l1.777-.853a1 1 0 0 1 1.334.468Z" clip-rule="evenodd"/>
</svg>
