<svg xmlns="http://www.w3.org/2000/svg" width="32" height="32" fill="currentColor" viewBox="0 0 32 32">
  <path fill-rule="evenodd" d="m10.972 17.344 12.576-12.58a2.605 2.605 0 0 1 3.685-.002l.002.003a2.612 2.612 0 0 1 0 3.693l-12.576 12.57-3.784.95a.707.707 0 0 1-.853-.851v-.001l.95-3.782ZM22.134 3.35c1.8-1.798 4.722-1.802 6.516.001a4.613 4.613 0 0 1-.001 6.522L15.878 22.638a1 1 0 0 1-.464.263l-4.054 1.018h-.003c-1.973.49-3.766-1.3-3.276-3.275v-.003L9.1 16.59a1 1 0 0 1 .262-.464L22.134 3.35ZM6.123 3A4.119 4.119 0 0 0 2 7.123v18.754A4.119 4.119 0 0 0 6.123 30h18.754A4.119 4.119 0 0 0 29 25.877v-7.82a1 1 0 1 0-2 0v7.82A2.119 2.119 0 0 1 24.877 28H6.123A2.119 2.119 0 0 1 4 25.877V7.123C4 5.947 4.947 5 6.123 5h7.82a1 1 0 1 0 0-2h-7.82Z" clip-rule="evenodd"/>
</svg>
