<svg xmlns="http://www.w3.org/2000/svg" width="32" height="32" fill="currentColor" viewBox="0 0 32 32">
  <path fill-rule="evenodd" d="M22.293 4.936 7.17 19.433 6.057 23.69a1 1 0 0 1-.026.133c-.164.622.432 1.348 1.272 1.144h.002l4.604-1.105L27.04 9.365c1.277-1.223 1.28-3.193 0-4.429-1.314-1.25-3.446-1.246-4.748 0ZM4.06 23.473a1 1 0 0 1 .028-.158l1.22-4.662a1 1 0 0 1 .275-.468L20.91 3.492c2.077-1.99 5.428-1.988 7.512-.002l.004.004c2.097 2.02 2.1 5.302-.002 7.316L13.097 25.493a1 1 0 0 1-.459.25L7.774 26.91h-.001c-2.1.509-4.167-1.265-3.714-3.437ZM2 29a1 1 0 0 1 1-1h26a1 1 0 1 1 0 2H3a1 1 0 0 1-1-1Z" clip-rule="evenodd"/>
</svg>
