<svg xmlns="http://www.w3.org/2000/svg" width="32" height="32" fill="currentColor" viewBox="0 0 32 32">
  <path fill-rule="evenodd" d="M7.17 19.433 22.293 4.936c1.302-1.246 3.434-1.25 4.748 0 1.28 1.236 1.277 3.206 0 4.43L11.908 23.861l-4.603 1.104h-.002c-.84.204-1.436-.521-1.272-1.143a1 1 0 0 0 .026-.133l1.113-4.257Zm-3.083 3.882a1 1 0 0 0-.028.158c-.453 2.172 1.615 3.946 3.714 3.438h.001l4.864-1.168a1 1 0 0 0 .459-.25L28.424 10.81c2.102-2.014 2.1-5.296.002-7.316l-.003-.004c-2.085-1.986-5.436-1.988-7.513.002L5.582 18.184a1 1 0 0 0-.276.47l-1.219 4.661ZM3 28a1 1 0 1 0 0 2h26a1 1 0 1 0 0-2H3Z" clip-rule="evenodd"/>
</svg>
