<svg xmlns="http://www.w3.org/2000/svg" width="32" height="32" fill="currentColor" viewBox="0 0 32 32">
  <path fill-rule="evenodd" d="M23.548 4.765 10.972 17.344l-.95 3.782v.001a.707.707 0 0 0 .852.851h.001l3.784-.95 12.576-12.57a2.612 2.612 0 0 0 0-3.693l-.002-.003a2.605 2.605 0 0 0-3.685.003ZM28.65 3.35a4.604 4.604 0 0 0-6.516 0L9.362 16.124a1 1 0 0 0-.262.463l-1.02 4.055v.003c-.49 1.974 1.303 3.765 3.276 3.275h.003l4.054-1.018a1 1 0 0 0 .464-.263l12.77-12.765a4.612 4.612 0 0 0 .002-6.522Z" clip-rule="evenodd"/>
  <path fill-rule="evenodd" d="M2 7.123A4.119 4.119 0 0 1 6.123 3h7.82a1 1 0 1 1 0 2h-7.82A2.119 2.119 0 0 0 4 7.123v18.754A2.12 2.12 0 0 0 6.123 28h18.754A2.119 2.119 0 0 0 27 25.877v-7.82a1 1 0 1 1 2 0v7.82A4.119 4.119 0 0 1 24.877 30H6.123A4.119 4.119 0 0 1 2 25.877V7.123Z" clip-rule="evenodd"/>
</svg>
