<svg xmlns="http://www.w3.org/2000/svg" width="32" height="32" fill="currentColor" viewBox="0 0 32 32">
  <path d="M6.293 24.293a1 1 0 1 1 1.414 1.414L5.414 28H6a1 1 0 1 1 0 2H3a1 1 0 0 1-1-1v-3a1 1 0 1 1 2 0v.586l2.293-2.293Zm18 0a1 1 0 0 1 1.414 0L28 26.586V26a1 1 0 1 1 2 0v3a1 1 0 0 1-1 1h-3a1 1 0 1 1 0-2h.586l-2.293-2.293a1 1 0 0 1 0-1.414Z"/>
  <path fill-rule="evenodd" d="M16 6c2.017 0 3.886.29 5.286.79.696.249 1.33.568 1.809.973.12.101.237.216.345.34.331.164.56.503.56.897v13.494c0 .754-.428 1.338-.903 1.74-.48.406-1.114.726-1.81.975-1.4.5-3.27.791-5.287.791-2.018 0-3.888-.291-5.288-.793-.696-.25-1.33-.57-1.809-.976C8.43 23.83 8 23.247 8 22.494V9a1 1 0 0 1 .56-.897 3.15 3.15 0 0 1 .345-.34c.48-.405 1.113-.724 1.809-.973 1.4-.5 3.27-.79 5.286-.79Zm6 5.916a8.023 8.023 0 0 1-.714.294c-1.4.5-3.27.79-5.286.79-2.017 0-3.886-.29-5.286-.79a8.023 8.023 0 0 1-.714-.294v10.561c.007.02.042.097.196.228.23.194.62.415 1.19.62C12.52 23.73 14.15 24 16 24c1.851 0 3.482-.269 4.614-.674.57-.204.96-.423 1.19-.617.204-.174.2-.254.196-.23V11.915ZM16 8c-1.85 0-3.48.27-4.613.674-.571.204-.962.423-1.192.617a.746.746 0 0 0-.188.209.746.746 0 0 0 .188.209c.23.194.62.413 1.192.617C12.52 10.731 14.15 11 16 11c1.85 0 3.48-.27 4.613-.674.571-.204.962-.423 1.192-.617a.74.74 0 0 0 .187-.209.74.74 0 0 0-.187-.209c-.23-.194-.62-.413-1.192-.617C19.48 8.269 17.85 8 16 8Z" clip-rule="evenodd"/>
  <path d="M6 2a1 1 0 0 1 0 2h-.586l2.293 2.293a1 1 0 0 1-1.414 1.414L4 5.414V6a1 1 0 0 1-2 0V3a1 1 0 0 1 1-1h3Zm23 0a1 1 0 0 1 1 1v3a1 1 0 1 1-2 0v-.586l-2.293 2.293a1 1 0 1 1-1.414-1.414L26.586 4H26a1 1 0 1 1 0-2h3Z"/>
</svg>
