<svg xmlns="http://www.w3.org/2000/svg" width="32" height="32" fill="currentColor" viewBox="0 0 32 32">
  <path d="M6.293 24.293a1 1 0 1 1 1.414 1.414L5.414 28H6a1 1 0 1 1 0 2H3a1 1 0 0 1-1-1v-3a1 1 0 1 1 2 0v.586l2.293-2.293Zm18 0a1 1 0 0 1 1.414 0L28 26.586V26a1 1 0 1 1 2 0v3a1 1 0 0 1-1 1h-3a1 1 0 1 1 0-2h.586l-2.293-2.293a1 1 0 0 1 0-1.414Z"/>
  <path fill-rule="evenodd" d="M14.5 5.71a3 3 0 0 1 3 0l6.66 3.847a3 3 0 0 1 1.5 2.597v7.692a3 3 0 0 1-1.5 2.597L17.5 26.29a3.001 3.001 0 0 1-3 0l-6.66-3.846a3 3 0 0 1-1.5-2.597v-7.692a3 3 0 0 1 1.5-2.597L14.5 5.71Zm2 1.733a1 1 0 0 0-1 0L8.84 11.29a1 1 0 0 0-.5.865v7.692a1 1 0 0 0 .5.865l6.66 3.846a1 1 0 0 0 1 0l6.66-3.846a1 1 0 0 0 .5-.865v-7.692a1 1 0 0 0-.5-.865L16.5 7.443Z" clip-rule="evenodd"/>
  <path d="M6 2a1 1 0 0 1 0 2h-.586l2.293 2.293a1 1 0 0 1-1.414 1.414L4 5.414V6a1 1 0 0 1-2 0V3a1 1 0 0 1 1-1h3Zm23 0a1 1 0 0 1 1 1v3a1 1 0 1 1-2 0v-.586l-2.293 2.293a1 1 0 1 1-1.414-1.414L26.586 4H26a1 1 0 1 1 0-2h3Z"/>
</svg>
