<svg xmlns="http://www.w3.org/2000/svg" width="32" height="32" fill="currentColor" viewBox="0 0 32 32">
  <path d="M23 16a7 7 0 1 1 0 14 7 7 0 0 1-7-7 7 7 0 0 1 7-7Zm0 2a5 5 0 0 0-5 5 5 5 0 1 0 10 0 5 5 0 0 0-5-5ZM6 4a1 1 0 0 1 0 2h-.5c-.575 0-.96.157-1.182.337A.838.838 0 0 0 4 7.025V9h20V7.104C24 6.643 23.515 6 22.5 6H22a1 1 0 1 1 0-2h.5C24.298 4 26 5.242 26 7.104V13a1 1 0 1 1-2 0v-2H4v13.77c0 .62.535 1.193 1.29 1.193H13a1 1 0 1 1 0 2H5.29c-1.777 0-3.29-1.389-3.29-3.194V7.026c0-.902.386-1.694 1.057-2.24C3.71 4.253 4.575 4 5.5 4H6Zm18.414 16.172a1 1 0 1 1 1.414 1.414L24.414 23l1.414 1.414a1 1 0 1 1-1.414 1.414L23 24.414l-1.414 1.414a1 1 0 1 1-1.414-1.414L21.586 23l-1.414-1.414a1 1 0 1 1 1.414-1.414L23 21.586l1.414-1.414ZM18.028 2a1 1 0 0 1 1 1v3.967a1 1 0 0 1-2 0v-.984h-5.98v.984a1 1 0 0 1-2 0V3a1 1 0 1 1 2 0v.983h5.98V3a1 1 0 0 1 1-1Z"/>
</svg>
