<svg xmlns="http://www.w3.org/2000/svg" width="32" height="32" fill="currentColor" viewBox="0 0 32 32">
  <path d="M5 24.95a1 1 0 0 1 1 1v.554c0 .27.172.632.61.973.433.336.972.523 1.39.523a1 1 0 1 1 0 2c-.924 0-1.886-.376-2.617-.944C4.657 28.49 4 27.606 4 26.504v-.555a1 1 0 0 1 1-1ZM21 13a2 2 0 0 1 2 2v5.667l5.441-1.583A2 2 0 0 1 31 21.004V28a2 2 0 0 1-2 2H13a2 2 0 0 1-2-2V15a2 2 0 0 1 2-2h8Zm-8 12v3h8v-3h-8Zm10-2.25V28h6v-6.996l-6 1.746ZM5 18a1 1 0 0 1 1 1v3h1a1 1 0 1 1 0 2H3a1 1 0 1 1 0-2h1v-3a1 1 0 0 1 1-1Zm8 5h8v-3h-8v3Zm0-5h8v-3h-8v3Zm-8-7a1 1 0 0 1 1 1v3h1a1 1 0 1 1 0 2H3a1 1 0 1 1 0-2h1v-3a1 1 0 0 1 1-1Zm18.558-9C25.472 2 27 3.593 27 5.496V14a1 1 0 1 1-2 0V5.496C25 4.656 24.327 4 23.558 4H7.442C6.673 4 6 4.656 6 5.496V8h1l.103.005a1 1 0 0 1 0 1.99L7 10H3a1 1 0 0 1 0-2h1V5.496C4 3.593 5.528 2 7.442 2h16.116Z"/>
</svg>
