<svg xmlns="http://www.w3.org/2000/svg" width="32" height="32" fill="currentColor" viewBox="0 0 32 32">
  <path fill-rule="evenodd" d="M12.825 18c-.421 0-.825.37-.825.885V28h8v-9.115c0-.515-.404-.885-.825-.885h-6.35ZM10 18.885C10 17.327 11.238 16 12.825 16h6.35C20.762 16 22 17.327 22 18.885V29a1 1 0 0 1-1 1H11a1 1 0 0 1-1-1V18.885Z" clip-rule="evenodd"/>
  <path fill-rule="evenodd" d="M4 11a1 1 0 0 1 1 1v14.148C5 27.228 5.81 28 6.685 28h18.63c.874 0 1.685-.773 1.685-1.852V12a1 1 0 1 1 2 0v14.148C29 28.216 27.407 30 25.315 30H6.685C4.593 30 3 28.216 3 26.148V12a1 1 0 0 1 1-1Z" clip-rule="evenodd"/>
  <path fill-rule="evenodd" d="m4.873 5.337-.866 4.519C4.074 10.396 4.639 11 5.6 11a1.87 1.87 0 0 0 1.014-.288 2.893 2.893 0 0 1 3.172 0c.273.176.622.288 1.014.288s.741-.112 1.014-.288a2.892 2.892 0 0 1 3.172 0c.273.176.622.288 1.014.288s.741-.112 1.014-.288a2.893 2.893 0 0 1 3.172 0c.273.176.622.288 1.014.288s.74-.112 1.014-.288a2.893 2.893 0 0 1 3.172 0A1.87 1.87 0 0 0 26.4 11c.98 0 1.547-.628 1.597-1.175l-.86-4.488A1.657 1.657 0 0 0 25.508 4H6.5c-.796 0-1.478.564-1.628 1.337Zm-2.82 4.09.857-4.471A3.657 3.657 0 0 1 6.5 2h19.01a3.657 3.657 0 0 1 3.59 2.956l.001.002.882 4.602a1 1 0 0 1 .018.188C30 11.675 28.252 13 26.4 13a3.866 3.866 0 0 1-2.104-.611l-.005-.004a.893.893 0 0 0-.982 0l-.005.004A3.87 3.87 0 0 1 21.2 13a3.866 3.866 0 0 1-2.104-.611l-.005-.004a.893.893 0 0 0-.982 0l-.005.004A3.87 3.87 0 0 1 16 13a3.866 3.866 0 0 1-2.104-.611l-.005-.004a.893.893 0 0 0-.982 0l-.005.004A3.87 3.87 0 0 1 10.8 13a3.866 3.866 0 0 1-2.104-.611l-.005-.004a.893.893 0 0 0-.982 0l-.005.004A3.87 3.87 0 0 1 5.6 13C3.748 13 2 11.675 2 9.748c0-.112.018-.22.053-.321Z" clip-rule="evenodd"/>
</svg>
