<svg xmlns="http://www.w3.org/2000/svg" width="32" height="32" fill="currentColor" viewBox="0 0 32 32">
  <path fill-rule="evenodd" d="M9 4a2 2 0 0 1 2-2h15a2 2 0 0 1 2 2v25a1 1 0 0 1-1 1H5a1 1 0 0 1-1-1V14.117a2 2 0 0 1 2.22-1.988l2.78.308V4ZM6 28h9V15.115l-9-.998V28Zm11 0h9V4H11v8.659l4.22.468A2 2 0 0 1 17 15.115V28Zm4-22a1 1 0 1 0 0 2h2a1 1 0 1 0 0-2h-2Zm-1 5a1 1 0 0 1 1-1h2a1 1 0 1 1 0 2h-2a1 1 0 0 1-1-1Zm1 3a1 1 0 1 0 0 2h2a1 1 0 1 0 0-2h-2Zm-1 5a1 1 0 0 1 1-1h2a1 1 0 1 1 0 2h-2a1 1 0 0 1-1-1Zm1 3a1 1 0 1 0 0 2h2a1 1 0 1 0 0-2h-2ZM13 7a1 1 0 0 1 1-1h2a1 1 0 1 1 0 2h-2a1 1 0 0 1-1-1ZM8 17a1 1 0 1 0 0 2h1a1 1 0 1 0 0-2H8Zm-1 5a1 1 0 0 1 1-1h1a1 1 0 1 1 0 2H8a1 1 0 0 1-1-1Zm5-5a1 1 0 1 0 0 2h1a1 1 0 1 0 0-2h-1Zm-1 5a1 1 0 0 1 1-1h1a1 1 0 1 1 0 2h-1a1 1 0 0 1-1-1Zm3-12a1 1 0 1 0 0 2h2a1 1 0 1 0 0-2h-2Z" clip-rule="evenodd"/>
</svg>
