<svg xmlns="http://www.w3.org/2000/svg" width="32" height="32" fill="currentColor" viewBox="0 0 32 32">
  <path fill-rule="evenodd" d="M4 29a1 1 0 0 1 1-1h22a1 1 0 1 1 0 2H5a1 1 0 0 1-1-1ZM28.087 8.648a3 3 0 0 1 .04 4.264l-13.09 13.203a3 3 0 0 1-4.238.024l-5.904-5.826a3 3 0 0 1-.027-4.244l13.02-13.18a3 3 0 0 1 4.224-.045l5.975 5.804Zm-1.38 2.856a1 1 0 0 0-.013-1.421l-5.976-5.804a1 1 0 0 0-1.408.014L6.291 17.476a1 1 0 0 0 .01 1.414l5.903 5.826a1 1 0 0 0 1.413-.008l13.09-13.203Z" clip-rule="evenodd"/>
  <path fill-rule="evenodd" d="m17.264 22.74-9.062-9 1.409-1.418 9.062 9-1.409 1.419Z" clip-rule="evenodd"/>
</svg>
