<svg xmlns="http://www.w3.org/2000/svg" width="32" height="32" fill="currentColor" viewBox="0 0 32 32">
  <path fill-rule="evenodd" d="M11.03 2h9.94c.53 0 1.03.21 1.41.59l7.03 7.03c.38.37.59.88.59 1.41v9.94c0 .53-.21 1.03-.59 1.41l-7.03 7.03c-.37.38-.88.59-1.41.59h-9.94c-.53 0-1.03-.21-1.41-.59l-7.03-7.03c-.38-.37-.59-.88-.59-1.41v-9.94c0-.53.21-1.03.59-1.41l7.03-7.03c.37-.38.88-.59 1.41-.59Zm.263 9.293a1 1 0 0 1 1.414 0L16 14.586l3.293-3.293a1 1 0 0 1 1.414 1.414L17.414 16l3.293 3.293a1 1 0 0 1-1.414 1.414L16 17.414l-3.293 3.293a1 1 0 0 1-1.414-1.414L14.586 16l-3.293-3.293a1 1 0 0 1 0-1.414Z" clip-rule="evenodd"/>
</svg>
