<svg xmlns="http://www.w3.org/2000/svg" width="32" height="32" fill="currentColor" viewBox="0 0 32 32">
  <path fill-rule="evenodd" d="M11.385 2a2.82 2.82 0 0 0-2.02.845L2.84 9.369A2.841 2.841 0 0 0 2 11.385v9.23c0 .753.297 1.485.845 2.02l6.524 6.524a2.837 2.837 0 0 0 2.016.841h9.23a2.82 2.82 0 0 0 2.02-.845l6.524-6.524A2.837 2.837 0 0 0 30 20.615v-9.23a2.82 2.82 0 0 0-.845-2.02L22.631 2.84A2.842 2.842 0 0 0 20.615 2h-9.23Zm-.593 2.245A.826.826 0 0 1 11.385 4h9.23c.221 0 .433.086.602.255l6.528 6.528.01.01c.154.15.245.363.245.592v9.23a.842.842 0 0 1-.255.602l-6.528 6.528-.01.01a.826.826 0 0 1-.592.245h-9.23a.842.842 0 0 1-.602-.255l-6.528-6.528-.01-.01A.826.826 0 0 1 4 20.616v-9.23c0-.221.086-.433.255-.602l6.528-6.528.01-.01Zm.5 7.048a1 1 0 0 1 1.415 0L16 14.586l3.293-3.293a1 1 0 0 1 1.414 1.414L17.414 16l3.293 3.293a1 1 0 0 1-1.414 1.414L16 17.414l-3.293 3.293a1 1 0 0 1-1.414-1.414L14.586 16l-3.293-3.293a1 1 0 0 1 0-1.414Z" clip-rule="evenodd"/>
</svg>
