<svg xmlns="http://www.w3.org/2000/svg" width="32" height="32" fill="currentColor" viewBox="0 0 32 32">
  <path fill-rule="evenodd" d="M16 3.933C9.336 3.933 3.933 9.336 3.933 16c0 6.664 5.403 12.067 12.067 12.067 6.664 0 12.067-5.403 12.067-12.067 0-6.664-5.403-12.067-12.067-12.067ZM1.933 16C1.933 8.231 8.231 1.933 16 1.933S30.067 8.231 30.067 16 23.769 30.067 16 30.067 1.933 23.769 1.933 16Z" clip-rule="evenodd"/>
  <path fill-rule="evenodd" d="M22.643 9.357a1 1 0 0 1 .212 1.1L19.3 18.773a1 1 0 0 1-1.626.314l-4.76-4.76a1 1 0 0 1 .314-1.627l8.316-3.555a1 1 0 0 1 1.1.212Zm-7.27 4.601 2.669 2.67 1.994-4.664-4.664 1.994Z" clip-rule="evenodd"/>
  <path fill-rule="evenodd" d="M13.43 12.638a1 1 0 0 1 .897.275l4.76 4.76a1 1 0 0 1-.314 1.627l-8.316 3.555a1 1 0 0 1-1.312-1.312l3.556-8.316a1 1 0 0 1 .73-.589Zm.528 2.735-1.994 4.663 4.664-1.994-2.67-2.67Z" clip-rule="evenodd"/>
</svg>
