<svg xmlns="http://www.w3.org/2000/svg" width="32" height="32" fill="currentColor" viewBox="0 0 32 32">
  <path d="M22.643 9.357a1 1 0 0 1 .212 1.1l-3.554 8.313"/>
  <path fill-rule="evenodd" d="M19.3 18.773a1.001 1.001 0 0 1-.527.526l-8.316 3.556a1 1 0 0 1-1.312-1.312l3.554-8.313a1.002 1.002 0 0 1 .528-.53h.003l8.313-3.555a1 1 0 0 1 1.1.212m-7.27 4.601 2.669 2.67 1.994-4.664-4.664 1.994Zm-1.415 1.415-1.994 4.663 4.664-1.994-2.67-2.67Z" clip-rule="evenodd"/>
  <path fill-rule="evenodd" d="M1.933 16C1.933 8.231 8.231 1.933 16 1.933S30.067 8.231 30.067 16 23.769 30.067 16 30.067 1.933 23.769 1.933 16ZM16 3.933C9.336 3.933 3.933 9.336 3.933 16c0 6.664 5.403 12.067 12.067 12.067 6.664 0 12.067-5.403 12.067-12.067 0-6.664-5.403-12.067-12.067-12.067Z" clip-rule="evenodd"/>
</svg>
