<svg xmlns="http://www.w3.org/2000/svg" width="32" height="32" fill="currentColor" viewBox="0 0 32 32">
  <path d="M26.296 2C28.436 2 30 3.885 30 5.99V12a1 1 0 1 1-2 0v-2H4v16.07C4 27.212 4.836 28 5.703 28H15a1 1 0 1 1 0 2H5.703C3.581 30 2 28.16 2 26.07V5.99C2 3.885 3.564 2 5.704 2h20.592ZM26 14a1 1 0 0 1 1 1v2h2a1 1 0 1 1 0 2h-1v1.987a5.015 5.015 0 0 1-4 4.911V29a1 1 0 1 1-2 0v-3.102a5.015 5.015 0 0 1-4-4.91V19h-1a1 1 0 1 1 0-2h2v-2a1 1 0 1 1 2 0v2h4v-2a1 1 0 0 1 1-1Zm-6 6.987A3.01 3.01 0 0 0 23 24c1.651 0 3-1.349 3-3.013V19h-6v1.987ZM5.704 4C4.854 4 4 4.795 4 5.99V8h24V5.99C28 4.795 27.146 4 26.296 4H5.704Zm13.694 1.014c.344.064.602.343.602.677v.618c0 .381-.337.69-.753.691h-.494l-.151-.014a.793.793 0 0 1-.136-.04l-.03-.012a.768.768 0 0 1-.094-.047l-.032-.023a.727.727 0 0 1-.19-.184.682.682 0 0 1-.047-.078c-.006-.013-.013-.024-.018-.037a.649.649 0 0 1-.03-.088c-.004-.013-.009-.026-.011-.04A.636.636 0 0 1 18 6.309v-.617c0-.381.337-.69.753-.691h.494c.052 0 .103.005.151.014ZM22.248 5c.415 0 .752.31.752.691v.618a.67.67 0 0 1-.309.555.793.793 0 0 1-.444.136h-.494l-.151-.014a.793.793 0 0 1-.136-.04l-.03-.012a.768.768 0 0 1-.094-.047l-.032-.023a.727.727 0 0 1-.19-.184.682.682 0 0 1-.047-.078c-.006-.013-.013-.024-.018-.037a.649.649 0 0 1-.03-.088c-.004-.013-.009-.026-.011-.04A.636.636 0 0 1 21 6.309v-.617c0-.381.337-.69.753-.691h.494Zm3 0c.415 0 .752.31.752.691v.618a.67.67 0 0 1-.309.555.793.793 0 0 1-.444.136h-.494l-.151-.014a.793.793 0 0 1-.136-.04l-.03-.012a.768.768 0 0 1-.094-.047l-.032-.023a.727.727 0 0 1-.19-.184.682.682 0 0 1-.047-.078c-.006-.013-.013-.024-.018-.037a.649.649 0 0 1-.03-.088c-.004-.013-.009-.026-.011-.04A.636.636 0 0 1 24 6.309v-.617c0-.381.337-.69.753-.691h.494Z"/>
</svg>
