<svg xmlns="http://www.w3.org/2000/svg" width="32" height="32" fill="currentColor" viewBox="0 0 32 32">
  <path d="M24.588 16.922a3.184 3.184 0 0 1 4.481 0 3.161 3.161 0 0 1 0 4.48l-7.662 7.659a.97.97 0 0 1-.46.26l-2.431.609c-.17.04-.33.06-.5.06V30c-.53 0-1.041-.21-1.421-.59-.51-.51-.71-1.22-.53-1.92h-.01l.61-2.43c.04-.18.14-.34.26-.46l7.663-7.678Zm3.071 1.42a1.16 1.16 0 0 0-1.65 0l-7.473 7.469-.54 2.16v.01l2.2-.53 7.463-7.459c.45-.45.45-1.19 0-1.65ZM24.43 2C26.936 2 29 3.998 29 6.503V14a1 1 0 1 1-2 0V6.503C27 5.139 25.868 4 24.429 4H6.57C5.132 4 4 5.14 4 6.503V17.89c0 .682.26 1.178.66 1.52.415.354 1.046.59 1.84.59H8a1 1 0 0 1 1 1v2.864l4.36-3.633A.998.998 0 0 1 14 20h3a1 1 0 1 1 0 2h-2.638l-4.365 3.637a.98.98 0 0 1-.089.066c-.706.467-1.49.307-2.007-.04C7.4 25.322 7 24.716 7 24v-2h-.5c-1.179 0-2.298-.351-3.139-1.068C2.504 20.2 2 19.142 2 17.89V6.503C2 3.998 4.064 2 6.571 2H24.43Z"/>
</svg>
