<svg xmlns="http://www.w3.org/2000/svg" width="32" height="32" fill="currentColor" viewBox="0 0 32 32">
  <path d="M24.29 2.98a3.342 3.342 0 0 1 4.729 0l.118.125a3.347 3.347 0 0 1-.118 4.61l-8.302 8.297a1.001 1.001 0 0 1-.463.263l-2.635.661-.003.001c-1.538.382-2.936-1.013-2.554-2.552l.001-.003.662-2.635a1 1 0 0 1 .263-.463l8.3-8.304h.002Zm3.312 1.412a1.343 1.343 0 0 0-1.9.001l-8.106 8.11-.594 2.362a.097.097 0 0 0 0 .053.121.121 0 0 0 .08.078h.052l2.364-.594 8.107-8.101a1.348 1.348 0 0 0 0-1.907l-.003-.002Z"/>
  <path d="M17 20a1 1 0 1 1 2 0v3.015c0 .186-.052.368-.149.526l-3.288 5.327v.001c-.36.596-.957.896-1.493 1.03a3.921 3.921 0 0 1-1.677.02c-.537-.106-1.098-.328-1.548-.697-.462-.378-.846-.954-.846-1.7V15.905l-7.301-7.74v-.001c-.793-.812-.88-1.903-.413-2.767.452-.836 1.371-1.387 2.45-1.396L4.755 4H18l.102.005a1 1 0 0 1 0 1.99L18 6H4.762c-.409 0-.636.197-.718.348a.322.322 0 0 0-.043.197.34.34 0 0 0 .07.156l.061.071.02.02 7.575 8.031a1 1 0 0 1 .272.687v12.01c0 .004-.008.054.115.155.135.11.367.222.669.282.298.059.589.053.806-.001.196-.049.255-.113.263-.122l.005-.008L17 22.731V20Z"/>
</svg>
