<svg xmlns="http://www.w3.org/2000/svg" width="32" height="32" fill="currentColor" viewBox="0 0 32 32">
  <path d="M26.237 3c1.09 0 2.022.554 2.478 1.397.47.872.38 1.976-.434 2.79a.887.887 0 0 1-.023.022L20 14.942v7.074a.997.997 0 0 1-.15.525l-3.287 5.327v.001c-.36.596-.958.897-1.494 1.03a3.92 3.92 0 0 1-1.677.02c-.537-.106-1.098-.328-1.547-.696-.462-.38-.846-.955-.846-1.701V14.905l-7.301-7.74H3.7c-.794-.813-.88-1.904-.414-2.768.452-.836 1.371-1.387 2.45-1.396L5.755 3h20.482ZM13 26.521c0 .005-.008.054.114.155.135.11.368.222.67.282.297.06.588.053.806-.001.196-.049.255-.113.262-.122l.005-.008 3.144-5.096V14.51c0-.277.114-.542.316-.73l8.556-8.015c.094-.097.119-.173.125-.22a.322.322 0 0 0-.043-.196c-.082-.152-.308-.349-.718-.349H5.763c-.41 0-.636.197-.718.349a.322.322 0 0 0-.043.196.34.34 0 0 0 .07.156l.06.071.021.021 7.574 8.03c.175.186.273.432.273.687v12.01Z"/>
</svg>
