<svg xmlns="http://www.w3.org/2000/svg" width="32" height="32" fill="currentColor" viewBox="0 0 32 32">
  <path fill-rule="evenodd" d="m4.164 4.97 8.553 8.313a1 1 0 0 1 .303.717v13.42c0 .149.12.423.656.543.523.116 1-.044 1.222-.328l.009-.011 4.074-5.032v-8.095a1 1 0 0 1 .282-.696l8.558-8.816.011-.011a.511.511 0 0 0 .165-.292.426.426 0 0 0-.055-.262c-.104-.192-.38-.42-.852-.42H4.91c-.473 0-.748.228-.852.42a.426.426 0 0 0-.055.262c.01.07.044.17.161.288ZM27.09 2c1.152 0 2.131.584 2.61 1.468.493.91.4 2.062-.448 2.915l-8.271 8.52v8.043a1 1 0 0 1-.223.63l-4.292 5.301c-.828 1.047-2.18 1.27-3.225 1.038-1.034-.23-2.221-1.04-2.221-2.496V14.423L2.754 6.389C1.9 5.535 1.806 4.38 2.3 3.468 2.776 2.588 3.746 2.007 4.89 2h22.2Z" clip-rule="evenodd"/>
</svg>
