<svg xmlns="http://www.w3.org/2000/svg" width="32" height="32" fill="currentColor" viewBox="0 0 32 32">
  <path fill-rule="evenodd" d="m12.698 13.267-8.533-8.3a.508.508 0 0 1-.162-.288.426.426 0 0 1 .056-.261c.104-.193.38-.42.854-.42H21A1 1 0 1 0 21 2H4.893c-1.145.007-2.116.588-2.593 1.466-.495.912-.4 2.066.455 2.919L11 14.404v13.059c0 1.474 1.223 2.259 2.26 2.467 1.049.211 2.4-.032 3.222-1.07l4.293-5.26a.998.998 0 0 0 .225-.63v-3.995a1 1 0 0 0-2 0v3.639l-4.074 4.99-.01.015c-.23.29-.726.461-1.262.354-.551-.111-.654-.38-.654-.51v-13.48a.998.998 0 0 0-.302-.716Zm3.897 2.143c.38.38.89.59 1.42.59v-.01c.17 0 .33-.02.5-.06l2.432-.61c.17-.04.33-.13.46-.26l7.663-7.658a3.161 3.161 0 0 0 0-4.48 3.183 3.183 0 0 0-4.482 0l-7.663 7.679c-.12.12-.22.28-.26.46l-.61 2.43h.01c-.18.7.02 1.41.53 1.92Zm1.4-1.43v-.01l.54-2.16 7.474-7.468a1.16 1.16 0 0 1 1.65 0c.45.46.45 1.2 0 1.65l-7.463 7.458-2.2.53Z" clip-rule="evenodd"/>
</svg>
