<svg xmlns="http://www.w3.org/2000/svg" width="32" height="32" fill="currentColor" viewBox="0 0 32 32">
  <path d="M18.103 4.005a1 1 0 0 1 0 1.99L18 6H4.763c-.41 0-.636.197-.718.349a.322.322 0 0 0-.043.196.34.34 0 0 0 .07.156l.061.071.02.021 7.575 8.03c.175.186.272.432.272.687v12.01c0 .005-.008.054.114.155.135.11.368.222.67.282.297.06.589.053.806-.001.196-.049.255-.113.263-.122l.005-.008L17 22.731V15.51c0-.265.105-.519.291-.706l2-2.01a1 1 0 0 1 1.417 1.411L19 15.922v7.094a.997.997 0 0 1-.15.525l-3.287 5.327v.001c-.36.596-.958.897-1.493 1.03a3.92 3.92 0 0 1-1.677.02c-.537-.106-1.098-.328-1.548-.696-.462-.38-.846-.955-.846-1.701V15.905l-7.301-7.74H2.7c-.794-.813-.88-1.904-.414-2.768.452-.836 1.372-1.387 2.45-1.396L4.756 4h13.246l.102.005ZM25 2a5.001 5.001 0 0 1 0 10c-2.761 0-5-2.241-5-5s2.239-5 5-5Z"/>
</svg>
