<svg xmlns="http://www.w3.org/2000/svg" width="32" height="32" fill="currentColor" viewBox="0 0 32 32">
  <path fill-rule="evenodd" d="M2 29a1 1 0 0 1 1-1h26a1 1 0 1 1 0 2H3a1 1 0 0 1-1-1ZM17.954 2.656l.002.001L28.9 11.054c1.085.832 1.339 2.112.884 3.174C29.34 15.265 28.273 16 26.945 16H5.049c-1.325 0-2.39-.737-2.832-1.772-.453-1.059-.206-2.338.875-3.172l.002-.002 10.858-8.33a.995.995 0 0 1 .078-.067c1.13-.876 2.794-.876 3.925-.001Zm-2.636 1.536a1.001 1.001 0 0 1-.059.05L4.313 12.638l-.001.001c-.34.262-.361.559-.257.802.114.267.434.558.993.558h21.898c.566 0 .887-.293 1-.558.103-.24.082-.536-.262-.8L16.73 4.237c-.39-.301-1-.317-1.413-.046Z" clip-rule="evenodd"/>
  <path fill-rule="evenodd" d="M16 14a1 1 0 0 1 1 1v14a1 1 0 1 1-2 0V15a1 1 0 0 1 1-1ZM6 14a1 1 0 0 1 1 1v14a1 1 0 1 1-2 0V15a1 1 0 0 1 1-1Zm20 0a1 1 0 0 1 1 1v14a1 1 0 1 1-2 0V15a1 1 0 0 1 1-1Z" clip-rule="evenodd"/>
</svg>
