<svg xmlns="http://www.w3.org/2000/svg" width="32" height="32" fill="currentColor" viewBox="0 0 32 32">
  <path fill-rule="evenodd" d="m17.954 2.656.002.001L28.9 11.054c1.085.832 1.339 2.112.884 3.174C29.347 15.251 28.302 15.98 27 16v12h2a1 1 0 1 1 0 2H3a1 1 0 1 1 0-2h2V16c-1.303-.018-2.347-.75-2.784-1.772-.453-1.059-.206-2.338.875-3.172l.002-.002 10.858-8.33a.995.995 0 0 1 .078-.067c1.13-.876 2.794-.876 3.925-.001ZM25 28V16h-8v12h8Zm1-14h.946c.566 0 .887-.293 1-.558.103-.24.082-.536-.262-.8L16.73 4.237c-.39-.301-1-.317-1.413-.046a1.001 1.001 0 0 1-.059.05L4.313 12.638l-.001.001c-.34.262-.361.559-.257.802.114.267.434.558.993.558H26ZM15 28H7V16h8v12Z" clip-rule="evenodd"/>
</svg>
