<svg xmlns="http://www.w3.org/2000/svg" width="32" height="32" fill="currentColor" viewBox="0 0 32 32">
  <path fill-rule="evenodd" d="M11.042 2c2.332.016 4.341 1.372 5.728 3.355 1.127 1.61 1.884 3.679 2.136 5.962.078-.108.164-.23.258-.371.431-.647 1.186-1.886 2.73-1.94A1 1 0 0 1 23 10c.001 2.228.64 3.289 1.358 4.485C25.14 15.789 26 17.229 26 20l-.013.515a9.99 9.99 0 0 1-9.471 9.472L16 30h-1l-.516-.013a9.99 9.99 0 0 1-9.471-9.472L5 20c0-3.812 2.422-6.278 3.983-8.449.815-1.132 1.45-2.218 1.714-3.473.26-1.234.177-2.73-.624-4.7a1 1 0 0 1 .5-1.281.514.514 0 0 1 .047-.023h.003l.035-.013.044-.016.018-.006a.997.997 0 0 1 .166-.033l.015-.002A.993.993 0 0 1 11.042 2Zm5.675 16.138A5.995 5.995 0 0 0 12 24l.005.21c.09 2.007 1.461 3.577 3.555 3.77 1.093-.072 1.953-.346 2.537-.708.594-.369.84-.774.892-1.125L19 26c0-1.433-.635-2.002-1.436-3.298-.39-.631-.76-1.383-.9-2.383-.091-.645-.08-1.36.053-2.181Zm-4.23-13.852c.411 1.565.432 2.945.167 4.204-.35 1.665-1.18 3.023-2.048 4.229C8.804 15.224 7 17.011 7 20l.01.412a7.983 7.983 0 0 0 3.577 6.263 6.23 6.23 0 0 1-.58-2.368L10 24a7.994 7.994 0 0 1 8.098-7.996l.024.004.07.01.045.012c.014.003.027.005.04.01l.02.005a.623.623 0 0 1 .065.024l.014.005a.71.71 0 0 1 .063.028l.032.015.045.028.039.023.023.018a.994.994 0 0 1 .41.666l.005.035c.002.016.002.032.003.049l.003.055.001.01-.002.031a.993.993 0 0 1-.031.219l-.007.028c-.363 1.253-.406 2.12-.316 2.761.088.632.316 1.118.62 1.61.59.954 1.736 2.185 1.736 4.35l-.009.237-.003.018a7.976 7.976 0 0 0 3.001-5.843L24 20c0-2.228-.64-3.29-1.357-4.485-.611-1.019-1.268-2.12-1.527-3.874-.085.117-.181.254-.288.414C20.39 12.712 19.612 14 18 14a1 1 0 0 1-.995-.898L17 13c0-2.583-.733-4.877-1.868-6.499-.76-1.085-1.671-1.835-2.646-2.215Z" clip-rule="evenodd"/>
</svg>
