<svg xmlns="http://www.w3.org/2000/svg" width="32" height="32" fill="none" viewBox="0 0 32 32">
  <path fill="#3D3C3C" d="M25.985 4H6.013C5.453 4 5 4.448 5 5v12.802h20.964c.885 0 1.344-1.042.74-1.682l-3.959-4.194a.99.99 0 0 1-.047-1.31l4.076-4.988c.534-.654.063-1.628-.789-1.628Z"/>
  <path fill="#3D3C3C" fill-rule="evenodd" d="M4 5c0-1.105.906-2 2.023-2h19.95c1.7 0 2.642 1.948 1.575 3.256l-4.071 4.988 3.954 4.194c1.206 1.28.289 3.562-1.48 3.562H6.023v10c0 .552-.453 1-1.011 1A1.006 1.006 0 0 1 4 29V5Zm2.023 11.802h19.928l-3.954-4.194a1.983 1.983 0 0 1-.095-2.62L25.973 5H6.023v11.802Z" clip-rule="evenodd"/>
</svg>
