<svg xmlns="http://www.w3.org/2000/svg" width="32" height="32" fill="currentColor" viewBox="0 0 32 32">
  <path d="M22.29 16a6.29 6.29 0 1 0-12.58.002A6.29 6.29 0 0 0 22.29 16Zm2 0a8.29 8.29 0 1 1-16.581-.001 8.29 8.29 0 0 1 16.58 0ZM24 3a1 1 0 1 1 2 0v4a1 1 0 0 1-1 1h-4a1 1 0 1 1 0-2h3V3ZM6 29v-4a1 1 0 0 1 1-1h4a1 1 0 1 1 0 2H8v3a1 1 0 1 1-2 0Z"/>
  <path d="M2 16C2 8.265 8.265 2 16 2c3.816 0 7.142 1.228 9.707 3.793a1 1 0 1 1-1.414 1.414C22.153 5.067 19.36 4 16 4 9.37 4 4 9.37 4 16c0 2.19.588 4.235 1.607 5.999a1 1 0 0 1-1.731 1.002A13.939 13.939 0 0 1 2 16Zm26 0c0-2.19-.588-4.235-1.607-5.999a1 1 0 0 1 1.731-1.002A13.939 13.939 0 0 1 30 16c0 7.735-6.265 14-14 14-3.816 0-7.142-1.228-9.707-3.793a1 1 0 1 1 1.414-1.414C9.847 26.933 12.64 28 16 28c6.63 0 12-5.37 12-12Z"/>
  <path d="M21 16a1 1 0 0 1-.5.866l-6 3.464a1 1 0 0 1-1.5-.866v-6.928a1 1 0 0 1 1.5-.866l6 3.464A1 1 0 0 1 21 16Zm-6-1.731v3.462L18 16l-3-1.731Z"/>
</svg>
