<svg xmlns="http://www.w3.org/2000/svg" width="32" height="32" fill="none" viewBox="0 0 32 32">
  <path fill="#3D3C3C" fill-rule="evenodd" d="M8 6a2 2 0 1 0 0 4 2 2 0 0 0 0-4ZM4 8a4 4 0 0 1 7.874-1h8.252A4.002 4.002 0 0 1 28 8a4 4 0 0 1-5.352 3.766l-11.62 11.62A4 4 0 0 1 11.874 25H20v-1a2 2 0 0 1 2-2h4a2 2 0 0 1 2 2v4a2 2 0 0 1-2 2h-4a2 2 0 0 1-2-2v-1h-8.126A4.002 4.002 0 0 1 4 26a4 4 0 0 1 5.352-3.766l11.62-11.62A3.99 3.99 0 0 1 20.126 9h-8.252A4.002 4.002 0 0 1 4 8Zm18 19v1h4v-4h-4v3Zm0-19a2 2 0 1 0 4 0 2 2 0 0 0-4 0ZM6 26a2 2 0 1 1 4 0 2 2 0 0 1-4 0Z" clip-rule="evenodd"/>
</svg>
