<svg xmlns="http://www.w3.org/2000/svg" width="32" height="32" fill="currentColor" viewBox="0 0 32 32">
  <path fill-rule="evenodd" d="M2 5.714A2.714 2.714 0 0 1 4.704 3h7.36c1.098 0 2.089.666 2.503 1.684L15.639 7H24c.842 0 1.585.432 2.089.946.501.511.911 1.25.911 2.054v1h.308A2.693 2.693 0 0 1 30 13.684V14a1 1 0 1 1-2 0v-.316c0-.37-.31-.684-.692-.684H8.692a.693.693 0 0 0-.692.684V27h5a1 1 0 1 1 0 2H4.704A2.714 2.714 0 0 1 2 26.286V5.714ZM25 10v1H8.692A2.693 2.693 0 0 0 6 13.684V27H4.704A.714.714 0 0 1 4 26.286V5.714C4 5.318 4.325 5 4.704 5h7.36c.288 0 .548.177.653.445a.995.995 0 0 0 .024.055l1.351 2.92A1 1 0 0 0 15 9h9c.158 0 .415.096.661.347.249.253.339.515.339.653Zm-7 8a2 2 0 0 0-2 2v8a2 2 0 0 0 2 2h10a2 2 0 0 0 2-2v-8a2 2 0 0 0-2-2H18Zm0 2h10v2.613l-1.684-.562a1 1 0 0 0-.87.117l-2.518 1.678-1.48-.74a1 1 0 0 0-.895 0L18 24.382V20Zm6.988 4.876L28 26.382v-1.661l-1.852-.618-1.16.773ZM21 25.118 26.764 28H18v-1.382l3-1.5Z" clip-rule="evenodd"/>
</svg>
