<svg xmlns="http://www.w3.org/2000/svg" width="32" height="32" fill="currentColor" viewBox="0 0 32 32">
  <path fill-rule="evenodd" d="M4.778 3C3.282 3 2 4.185 2 5.714v20.572C2 27.815 3.282 29 4.778 29h1.778c.076 0 .15-.009.222-.025.071.016.146.025.222.025h20.308A2.693 2.693 0 0 0 30 26.316V13.684a2.692 2.692 0 0 0-2-2.594V10c0-.63-.165-1.377-.663-1.987C26.81 7.37 26.009 7 25 7h-8.868l-1.107-2.327C14.589 3.643 13.562 3 12.458 3h-7.68ZM26 11v-1c0-.313-.085-.566-.212-.72C25.69 9.16 25.491 9 25 9h-9.5a1 1 0 0 1-.903-.57l-1.389-2.92a.78.78 0 0 0-.75-.51h-7.68C4.318 5 4 5.358 4 5.714v20.572c0 .356.318.714.778.714H6V13.684A2.693 2.693 0 0 1 8.692 11H26ZM8 13.684c0-.37.31-.684.692-.684h18.616c.383 0 .692.315.692.684v12.632c0 .37-.31.684-.692.684H8V13.684Z" clip-rule="evenodd"/>
</svg>
