<svg xmlns="http://www.w3.org/2000/svg" width="32" height="32" fill="currentColor" viewBox="0 0 32 32">
  <path fill-rule="evenodd" d="M2 5.714A2.714 2.714 0 0 1 4.704 3h7.36c1.098 0 2.089.666 2.503 1.684L15.639 7H24c.842 0 1.585.432 2.089.946.501.511.911 1.25.911 2.054v1h.308A2.693 2.693 0 0 1 30 13.684V14a1 1 0 1 1-2 0v-.316c0-.37-.31-.684-.692-.684H8.692a.693.693 0 0 0-.692.684V27h5a1 1 0 1 1 0 2H4.704A2.714 2.714 0 0 1 2 26.286V5.714ZM25 10v1H8.692A2.693 2.693 0 0 0 6 13.684V27H4.704A.714.714 0 0 1 4 26.286V5.714C4 5.318 4.325 5 4.704 5h7.36c.288 0 .548.177.653.445a.995.995 0 0 0 .024.055l1.351 2.92A1 1 0 0 0 15 9h9c.158 0 .415.096.661.347.249.253.339.515.339.653Zm-2 6a7 7 0 0 0-7 7 7 7 0 1 0 14 0 7 7 0 0 0-7-7Zm-5 7a5 5 0 0 1 5-5 5 5 0 1 1 0 10 5 5 0 0 1-5-5Zm5.707-3.707 2 2a1 1 0 0 1-1.414 1.414L24 22.414V26a1 1 0 1 1-2 0v-3.586l-.293.293a1 1 0 0 1-1.414-1.414l2-2A.997.997 0 0 1 23 19m.707.293a.997.997 0 0 0-.324-.217l.324.217ZM23.01 19a.996.996 0 0 1 .374.076L23.009 19Z" clip-rule="evenodd"/>
</svg>
