<svg xmlns="http://www.w3.org/2000/svg" width="32" height="32" fill="currentColor" viewBox="0 0 32 32">
  <path fill-rule="evenodd" d="M2 5.714A2.714 2.714 0 0 1 4.704 3h7.36c1.098 0 2.089.666 2.503 1.684L15.639 7H24c.842 0 1.585.432 2.089.946.501.511.911 1.25.911 2.054v1h.308A2.693 2.693 0 0 1 30 13.684V14a1 1 0 1 1-2 0v-.316c0-.37-.31-.684-.692-.684H8.692a.693.693 0 0 0-.692.684V27h5a1 1 0 1 1 0 2H4.704A2.714 2.714 0 0 1 2 26.286V5.714ZM25 10v1H8.692A2.693 2.693 0 0 0 6 13.684V27H4.704A.714.714 0 0 1 4 26.286V5.714C4 5.318 4.325 5 4.704 5h7.36c.288 0 .548.177.653.445a.995.995 0 0 0 .024.055l1.351 2.92A1 1 0 0 0 15 9h9c.158 0 .415.096.661.347.249.253.339.515.339.653Zm-8.405 19.41c.38.38.89.59 1.42.59v-.01c.17 0 .33-.02.5-.06l2.432-.61c.17-.04.33-.13.46-.26l7.663-7.659a3.161 3.161 0 0 0 0-4.479 3.183 3.183 0 0 0-4.482 0l-7.663 7.679c-.12.12-.22.28-.26.46l-.61 2.43h.01c-.18.7.02 1.41.53 1.92Zm1.4-1.43v-.01l.54-2.16 7.474-7.468a1.16 1.16 0 0 1 1.65 0c.45.46.45 1.2 0 1.65l-7.463 7.459-2.2.53Z" clip-rule="evenodd"/>
</svg>
