<svg xmlns="http://www.w3.org/2000/svg" width="32" height="32" fill="currentColor" viewBox="0 0 32 32">
  <path fill-rule="evenodd" d="M4.704 3A2.714 2.714 0 0 0 2 5.714v20.572A2.714 2.714 0 0 0 4.704 29H13a1 1 0 1 0 0-2H8V13.684c0-.37.31-.684.692-.684h18.616c.383 0 .692.315.692.684V14a1 1 0 1 0 2 0v-.316A2.693 2.693 0 0 0 27.308 11H27v-1c0-.805-.41-1.543-.911-2.054C25.585 7.432 24.842 7 24 7h-8.361l-1.072-2.316A2.704 2.704 0 0 0 12.064 3h-7.36ZM25 11v-1c0-.138-.09-.4-.339-.653C24.415 9.097 24.158 9 24 9h-9a1 1 0 0 1-.908-.58L12.741 5.5a.995.995 0 0 1-.024-.055.704.704 0 0 0-.653-.445h-7.36A.714.714 0 0 0 4 5.714v20.572c0 .396.325.714.704.714H6V13.684A2.693 2.693 0 0 1 8.692 11H25Zm2 12a1 1 0 0 1-1 1h-6a1 1 0 1 1 0-2h6a1 1 0 0 1 1 1Zm-4-7a7 7 0 0 0-7 7 7 7 0 1 0 14 0 7 7 0 0 0-7-7Zm-5 7a5 5 0 0 1 5-5 5 5 0 1 1 0 10 5 5 0 0 1-5-5Z" clip-rule="evenodd"/>
</svg>
