<svg xmlns="http://www.w3.org/2000/svg" width="32" height="32" fill="currentColor" viewBox="0 0 32 32">
  <path fill-rule="evenodd" d="M2 5.714A2.714 2.714 0 0 1 4.704 3h7.36c1.098 0 2.089.666 2.503 1.684L15.639 7H24c.842 0 1.585.432 2.089.946.501.511.911 1.25.911 2.054v1h.308A2.693 2.693 0 0 1 30 13.684V14a1 1 0 1 1-2 0v-.316c0-.37-.31-.684-.692-.684H8.692a.693.693 0 0 0-.692.684V27h6a1 1 0 1 1 0 2H4.704A2.714 2.714 0 0 1 2 26.286V5.714ZM25 10v1H8.692A2.693 2.693 0 0 0 6 13.684V27H4.704A.714.714 0 0 1 4 26.286V5.714C4 5.318 4.325 5 4.704 5h7.36c.288 0 .548.177.653.445a.995.995 0 0 0 .024.055l1.351 2.92A1 1 0 0 0 15 9h9c.158 0 .415.096.661.347.249.253.339.515.339.653Zm-6 15.454v-7.089c.004-.548.67-1.365 2.004-1.365 1.338 0 1.998.82 1.998 1.362v6.488a.216.216 0 0 1-.058.062.728.728 0 0 1-.444.132.728.728 0 0 1-.444-.132.216.216 0 0 1-.058-.062v-5.304a1 1 0 1 0-2 0v5.314c0 1.416 1.354 2.184 2.502 2.184 1.148 0 2.502-.768 2.502-2.184v-6.498c0-2.065-2.026-3.362-3.998-3.362-1.974 0-3.995 1.297-4.004 3.358v7.096C17 28.174 19.697 30 22.5 30s5.5-1.826 5.5-4.546V20a1 1 0 1 0-2 0v5.454C26 26.651 24.669 28 22.5 28S19 26.651 19 25.454Z" clip-rule="evenodd"/>
</svg>
