<svg xmlns="http://www.w3.org/2000/svg" width="32" height="32" fill="currentColor" viewBox="0 0 32 32">
  <path fill-rule="evenodd" d="M8.692 3C7.184 3 6 4.256 6 5.74v16.52C6 23.745 7.184 25 8.692 25h18.616C28.816 25 30 23.744 30 22.26V10.088c0-.67-.208-1.431-.709-2.045-.525-.643-1.324-1.062-2.346-1.062h-9.637V5.74c0-1.484-1.184-2.74-2.693-2.74H8.692ZM8 5.74c0-.431.34-.74.692-.74h5.923c.353 0 .693.309.693.74v2.24a1 1 0 0 0 1 1h10.637c.43 0 .657.156.797.327.164.201.258.494.258.78v12.174c0 .43-.34.739-.692.739H8.692C8.34 23 8 22.691 8 22.26V5.74ZM4 7a1 1 0 0 0-2 0v19.174C2 27.664 3.15 29 4.704 29H26a1 1 0 1 0 0-2H4.704c-.32 0-.704-.308-.704-.826V7Z" clip-rule="evenodd"/>
</svg>
