<svg xmlns="http://www.w3.org/2000/svg" width="32" height="32" fill="currentColor" viewBox="0 0 32 32">
  <path fill-rule="evenodd" d="M4.704 3A2.714 2.714 0 0 0 2 5.714v20.572A2.714 2.714 0 0 0 4.704 29H17a1 1 0 1 0 0-2H8V13.684c0-.37.31-.684.692-.684h18.616c.383 0 .692.315.692.684V14a1 1 0 1 0 2 0v-.316A2.693 2.693 0 0 0 27.308 11H27v-1c0-.805-.41-1.543-.911-2.054C25.585 7.432 24.842 7 24 7h-8.361l-1.072-2.316A2.704 2.704 0 0 0 12.064 3h-7.36ZM25 11v-1c0-.138-.09-.4-.339-.653C24.415 9.097 24.158 9 24 9h-9a1 1 0 0 1-.908-.58L12.741 5.5a.995.995 0 0 1-.024-.055.704.704 0 0 0-.653-.445h-7.36A.714.714 0 0 0 4 5.714v20.572c0 .396.325.714.704.714H6V13.684A2.693 2.693 0 0 1 8.692 11H25Zm0 7c-1.025 0-2 .935-2 2.257V21l-.001.05a39.35 39.35 0 0 1 4.002.001A.965.965 0 0 1 27 21v-.743a2.42 2.42 0 0 0-.62-1.629C26.003 18.222 25.52 18 25 18Zm3.972 3.236A.999.999 0 0 0 29 21v-.743a4.417 4.417 0 0 0-1.141-2.975l-.006-.006C27.133 16.495 26.13 16 25 16c-2.281 0-4 1.988-4 4.257V21c0 .082.01.161.028.237-.601.17-1.028.73-1.028 1.37v5.787c0 .683.488 1.31 1.217 1.409l.02.002c2.24.26 5.296.26 7.526 0l.016-.002.01-.001A1.421 1.421 0 0 0 30 28.394v-5.788c0-.622-.405-1.197-1.028-1.37ZM22 27.873v-4.747a35.671 35.671 0 0 1 6 0v4.748a35.671 35.671 0 0 1-6 0Z" clip-rule="evenodd"/>
</svg>
