<svg xmlns="http://www.w3.org/2000/svg" width="32" height="32" fill="none" viewBox="0 0 32 32">
  <path fill="#3D3C3C" fill-rule="evenodd" d="M4.3 6c-.16 0-.3.132-.3.308v18.375c0 .19.145.317.3.317h23.4c.15 0 .3-.132.3-.317V9.39a.306.306 0 0 0-.3-.317H12.815a2.75 2.75 0 0 1-1.932-.808l-.006-.006-2.02-2.047A.712.712 0 0 0 8.35 6H4.3ZM30 9.39a2.306 2.306 0 0 0-2.3-2.316H12.815a.752.752 0 0 1-.517-.221l-2.01-2.038A2.712 2.712 0 0 0 8.348 4H4.3C3.03 4 2 5.032 2 6.308v18.375A2.306 2.306 0 0 0 4.3 27h23.4c1.26 0 2.27-1.02 2.3-2.261a.9.9 0 0 0 0-.037V9.39Z" clip-rule="evenodd"/>
</svg>
