<svg xmlns="http://www.w3.org/2000/svg" width="32" height="32" fill="currentColor" viewBox="0 0 32 32">
  <path fill-rule="evenodd" d="M2 5.714A2.714 2.714 0 0 1 4.704 3h7.36c1.098 0 2.089.666 2.503 1.684L15.639 7H24c.842 0 1.585.432 2.089.946.501.511.911 1.25.911 2.054v1h.308A2.693 2.693 0 0 1 30 13.684V14a1 1 0 1 1-2 0v-.316c0-.37-.31-.684-.692-.684H8.692a.693.693 0 0 0-.692.684V27h5a1 1 0 1 1 0 2H4.704A2.714 2.714 0 0 1 2 26.286V5.714ZM6 27V13.684A2.693 2.693 0 0 1 8.692 11H25v-1c0-.138-.09-.4-.339-.653C24.415 9.097 24.158 9 24 9h-9a1 1 0 0 1-.908-.58L12.741 5.5a.995.995 0 0 1-.024-.055.704.704 0 0 0-.653-.445h-7.36A.714.714 0 0 0 4 5.714v20.572c0 .396.325.714.704.714H6Zm16.06-8.61a5 5 0 0 1 5.93 7.624l-5.93-7.624Zm-1.653 1.133a5 5 0 0 0 6.08 7.816l-6.08-7.816ZM24 16a7 7 0 1 0 0 14 7 7 0 0 0 0-14Z" clip-rule="evenodd"/>
</svg>
