<svg xmlns="http://www.w3.org/2000/svg" width="32" height="32" fill="currentColor" viewBox="0 0 32 32">
  <path fill-rule="evenodd" d="M13.961 4.463c-.288-1.003-.742-1.729-1.473-2.125-.63-.34-1.326-.34-1.779-.338H4.846C3.336 2 2 3.175 2 4.74V23a1 1 0 1 0 2 0V4.74c0-.35.326-.74.846-.74h5.79c.567 0 .76.022.9.097.071.039.291.182.502.917v.001l.5 1.758a1 1 0 0 0 .962.727h11.523c.357 0 .538.073.626.126a.5.5 0 0 1 .198.233c.137.291.153.705.153 1.228V11a1 1 0 1 0 2 0V9.033c0-.45.002-1.29-.342-2.023a2.496 2.496 0 0 0-.976-1.096c-.468-.283-1.028-.414-1.66-.414H14.257l-.294-1.034v-.003ZM8.692 9C7.232 9 6 10.169 6 11.652v15.696C6 28.83 7.232 30 8.692 30h18.616C28.768 30 30 28.831 30 27.348V15.783c0-.649-.197-1.365-.735-1.925C28.718 13.287 27.933 13 27 13h-8.323l-.748-1.871a1.01 1.01 0 0 0-.012-.027C17.203 9.456 15.737 9 14.5 9H8.692ZM8 11.652c0-.334.291-.652.692-.652H14.5c.76 0 1.29.237 1.578.886l.994 2.485A1 1 0 0 0 18 15h9c.519 0 .733.15.823.243.1.104.177.28.177.54v11.565c0 .334-.291.652-.692.652H8.692c-.4 0-.692-.318-.692-.652V11.652Z" clip-rule="evenodd"/>
</svg>
