<svg xmlns="http://www.w3.org/2000/svg" width="32" height="32" fill="currentColor" viewBox="0 0 32 32">
  <path fill-rule="evenodd" d="M8.692 2C7.184 2 6 3.256 6 4.74V6a1 1 0 0 0 2 0V4.74c0-.431.34-.74.692-.74h5.923c.26 0 .366.06.454.135.133.114.3.337.537.812l1 2a1 1 0 0 0 .894.553H27c.278 0 .494.13.688.452.211.35.312.811.312 1.135V21a1 1 0 1 0 2 0V9.087a4.37 4.37 0 0 0-.6-2.17C28.957 6.184 28.173 5.5 27 5.5h-8.882l-.724-1.447c-.262-.525-.573-1.052-1.025-1.438C15.873 2.191 15.287 2 14.615 2H8.692Zm-4 6C3.184 8 2 9.256 2 10.74v16.52C2 28.745 3.184 30 4.692 30h18.616C24.816 30 26 28.744 26 27.26V15.088a4.37 4.37 0 0 0-.6-2.17c-.443-.733-1.227-1.417-2.4-1.417h-8.882l-.724-1.447c-.262-.525-.573-1.052-1.025-1.438C11.873 8.191 11.287 8 10.615 8H4.692ZM4 10.74c0-.431.34-.74.692-.74h5.923c.26 0 .366.06.454.135.133.114.3.337.537.812l1 2a1 1 0 0 0 .894.553H23c.278 0 .494.13.688.452.211.35.312.812.312 1.135v12.174c0 .43-.34.739-.692.739H4.692C4.34 28 4 27.691 4 27.26V10.74Z" clip-rule="evenodd"/>
</svg>
