<svg xmlns="http://www.w3.org/2000/svg" width="32" height="32" fill="currentColor" viewBox="0 0 32 32">
  <path fill-rule="evenodd" d="M28 3a1 1 0 1 0 0 2 1 1 0 0 0 0-2Zm-3 1a3 3 0 1 1 1.707 2.708l-2.575 2.574 4.523 4.524a2.89 2.89 0 0 1 0 4.087l-4.674 4.674 2.726 2.725a3 3 0 1 1-1.414 1.414l-2.726-2.725-4.674 4.674a2.89 2.89 0 0 1-4.087 0l-4.524-4.523-2.574 2.575a3 3 0 1 1-1.414-1.414l2.574-2.575-4.824-4.825a2.89 2.89 0 0 1 0-4.087l4.674-4.674-2.425-2.424a3 3 0 1 1 1.414-1.414l2.425 2.424 4.674-4.674a2.89 2.89 0 0 1 4.087 0l4.825 4.824 2.574-2.575A2.989 2.989 0 0 1 25 4ZM4.406 16.53a.963.963 0 0 1 0-1.362L15.168 4.406a.963.963 0 0 1 1.362 0l10.762 10.762a.963.963 0 0 1 0 1.362L16.53 27.292a.963.963 0 0 1-1.362 0L4.406 16.53Zm16.572-5.56a23.27 23.27 0 0 1-4.315-1.798 1.374 1.374 0 0 0-1.333.001 23.144 23.144 0 0 1-4.308 1.801A1.407 1.407 0 0 0 10 12.319v5.133c0 .862.384 1.613.848 2.21.467.6 1.074 1.123 1.668 1.554 1.188.863 2.473 1.466 2.922 1.666l.016.007c.35.148.741.148 1.092 0l.018-.008c.445-.199 1.73-.802 2.918-1.665.594-.43 1.202-.953 1.67-1.554.464-.597.848-1.347.848-2.21v-5.137c0-.667-.461-1.173-1.01-1.342l-.012-.003ZM20 12.76a25.669 25.669 0 0 1-4.001-1.677A25.351 25.351 0 0 1 12 12.764v4.688c0 .256.116.582.427.982.308.397.753.793 1.264 1.164.855.621 1.792 1.098 2.309 1.341.516-.243 1.452-.72 2.307-1.341.512-.371.957-.767 1.266-1.164.311-.4.427-.727.427-.982v-4.69ZM27 28a1 1 0 1 1 2 0 1 1 0 0 1-2 0ZM4 27a1 1 0 1 0 0 2 1 1 0 0 0 0-2ZM3 4a1 1 0 1 1 2 0 1 1 0 0 1-2 0Z" clip-rule="evenodd"/>
</svg>
