<svg xmlns="http://www.w3.org/2000/svg" width="32" height="32" fill="currentColor" viewBox="0 0 32 32">
  <path fill-rule="evenodd" d="m26.558 4.027-7.265 7.266a1 1 0 0 0-.1.116A10.457 10.457 0 0 0 12.5 9C6.701 9 2 13.701 2 19.5S6.701 30 12.5 30 23 25.299 23 19.5a10.45 10.45 0 0 0-2.41-6.693 1 1 0 0 0 .117-.1l7.266-7.265v4.544a1.014 1.014 0 1 0 2.027 0V3.007A.997.997 0 0 0 28.993 2h-6.979a1.014 1.014 0 1 0 0 2.027h4.544ZM12.5 11a8.5 8.5 0 1 0 0 17 8.5 8.5 0 0 0 0-17Z" clip-rule="evenodd"/>
</svg>
