<svg xmlns="http://www.w3.org/2000/svg" width="32" height="32" fill="currentColor" viewBox="0 0 32 32">
  <path d="M15 6a1 1 0 0 1 0 2H6a1 1 0 0 0-1 1v18a1 1 0 0 0 1 1h18a1 1 0 0 0 1-1v-9.917a1 1 0 0 1 2 0V27a3 3 0 0 1-3 3H6a3 3 0 0 1-3-3V9a3 3 0 0 1 3-3h9Zm6.5 10a1 1 0 0 1 1 1v.5h.5a1 1 0 0 1 0 2h-.5v.5a1 1 0 1 1-2 0v-.5H20a1 1 0 1 1 0-2h.5V17a1 1 0 0 1 1-1ZM15 14a1 1 0 0 1 1 1v1a1 1 0 1 1-2 0v-1a1 1 0 0 1 1-1Zm-2-2a1 1 0 0 1 0 2h-1a1 1 0 1 1 0-2h1Zm5 0a1 1 0 0 1 0 2h-1a1 1 0 1 1 0-2h1Zm6.257-9c.34.005.656.184.836.474.61.983 1.116 1.652 1.69 2.222.576.572 1.253 1.078 2.237 1.702a1 1 0 0 1 .027 1.672c-1.93 1.308-2.748 2.163-3.977 3.977a1 1 0 0 1-1.657-.003c-1.208-1.795-2.078-2.62-3.994-3.987a1.002 1.002 0 0 1 .02-1.642c1.985-1.346 2.8-2.192 3.97-3.965a1 1 0 0 1 .848-.45ZM15 9a1 1 0 0 1 1 1v1a1 1 0 1 1-2 0v-1a1 1 0 0 1 1-1Zm9.222-3.237c-.734.96-1.475 1.697-2.528 2.498 1.02.796 1.777 1.525 2.546 2.511a12.861 12.861 0 0 1 2.5-2.504c-.503-.367-.95-.739-1.366-1.152-.413-.41-.785-.853-1.152-1.353Z"/>
</svg>
