<svg xmlns="http://www.w3.org/2000/svg" width="33" height="32" fill="currentColor" viewBox="0 0 33 32">
  <path d="M18.666 2a1 1 0 0 1 .698.284l.002.001 7 6.841.137.328a.994.994 0 0 1 .138.327l.025.06V12a1 1 0 1 1-2 0v-1h-4.601a2.401 2.401 0 0 1-2.399-2.398V4H7.468c-1.017 0-1.802.8-1.802 1.738v20.524c0 .939.785 1.738 1.802 1.738h5.198a1 1 0 1 1 0 2H7.468c-2.078 0-3.802-1.651-3.802-3.738V5.738C3.666 3.652 5.39 2 7.468 2h11.198Zm9.206 14c.208.002.497.027.777.158l-.001.001c.364.17.572.465.684.704.111.238.162.489.188.701.051.427.023.911-.028 1.35-.08.681-.239 1.4-.377 1.91a5.99 5.99 0 0 1 .551 2.501c0 3.812-3.494 6.675-7.5 6.675-4.005 0-7.5-2.863-7.5-6.675 0-.892.195-1.747.555-2.53l-.004-.014a13.914 13.914 0 0 1-.363-1.868c-.052-.438-.08-.922-.028-1.349.025-.212.076-.463.187-.7a1.43 1.43 0 0 1 .69-.709v.001a1.87 1.87 0 0 1 .771-.156c.224-.002.455.024.673.06a10.4 10.4 0 0 1 1.354.342c.44.14.87.294 1.214.425l.376.15a8.121 8.121 0 0 1 2.075-.263c.725 0 1.42.097 2.078.267l.386-.154c.345-.13.773-.286 1.213-.425.438-.138.919-.269 1.355-.341a3.99 3.99 0 0 1 .674-.061Zm-.345 2.034c-.303.05-.682.152-1.081.277a23.11 23.11 0 0 0-1.762.647l-.008.002a.977.977 0 0 1-.079.028l-.016.005a1.085 1.085 0 0 1-.097.024.994.994 0 0 1-.373 0l-.007-.002-.043-.011-.05-.012-.22-.062a6.326 6.326 0 0 0-1.625-.215c-.633 0-1.228.088-1.782.259a1.004 1.004 0 0 1-.8-.047c-.278-.114-.97-.39-1.684-.616a8.469 8.469 0 0 0-1.082-.277l-.019-.003a5.35 5.35 0 0 0 .041.648c.088.748.29 1.562.404 1.91a.998.998 0 0 1-.127.88 4.032 4.032 0 0 0-.45 1.856c0 2.46 2.334 4.674 5.5 4.674 3.165 0 5.5-2.214 5.5-4.674 0-.599-.138-1.178-.391-1.715l-.116-.227-.044-.093c-.111-.265-.1-.557.014-.805.118-.389.295-1.124.375-1.806.03-.253.042-.472.04-.648l-.018.003Zm-7.86-9.432a.4.4 0 0 0 .398.398h3.31l-3.709-3.625v3.227Z"/>
</svg>
