<svg xmlns="http://www.w3.org/2000/svg" width="32" height="32" fill="currentColor" viewBox="0 0 32 32">
  <path fill-rule="evenodd" d="M16 3.99C9.388 3.99 3.99 9.389 3.99 16S9.389 28.01 16 28.01 28.01 22.611 28.01 16 22.611 3.99 16 3.99ZM2 16C2 8.288 8.288 2 16 2s14 6.288 14 14-6.288 14-14 14S2 23.712 2 16Z" clip-rule="evenodd"/>
  <path fill-rule="evenodd" d="M12.826 7.21c-.978 2.198-1.609 5.306-1.609 8.79 0 3.484.631 6.591 1.609 8.79.49 1.102 1.046 1.931 1.614 2.472.562.536 1.088.747 1.56.747s.998-.211 1.56-.747c.568-.54 1.125-1.37 1.614-2.471.978-2.2 1.609-5.307 1.609-8.791s-.631-6.592-1.609-8.79c-.49-1.102-1.046-1.931-1.613-2.472-.563-.536-1.089-.747-1.561-.747s-.998.211-1.56.747c-.568.54-1.125 1.37-1.614 2.471Zm.24-3.913C13.887 2.517 14.88 2 16 2c1.121 0 2.114.516 2.933 1.297.815.776 1.503 1.851 2.06 3.104 1.115 2.508 1.78 5.903 1.78 9.599 0 3.696-.665 7.091-1.78 9.6-.557 1.252-1.245 2.327-2.06 3.103C18.114 29.483 17.121 30 16 30c-1.121 0-2.114-.516-2.933-1.297-.815-.776-1.503-1.851-2.06-3.104-1.115-2.508-1.78-5.903-1.78-9.599 0-3.696.665-7.091 1.78-9.6.557-1.252 1.245-2.327 2.06-3.103Z" clip-rule="evenodd"/>
  <path fill-rule="evenodd" d="M3.45 16c0-.55.445-.995.994-.995h24.524a.995.995 0 1 1 0 1.99H4.444A.995.995 0 0 1 3.45 16Z" clip-rule="evenodd"/>
</svg>
