<svg xmlns="http://www.w3.org/2000/svg" width="32" height="32" fill="currentColor" viewBox="0 0 32 32">
  <path d="M16 2.025c5.773 0 10.475 4.702 10.475 10.475 0 5.436-4.169 9.92-9.475 10.425V24a.938.938 0 0 1-.016.168c.864.3 1.546.983 1.847 1.847A1.01 1.01 0 0 1 19 26h6l.102.005a1 1 0 0 1 0 1.99L25 28h-6a1.01 1.01 0 0 1-.169-.016 2.998 2.998 0 0 1-5.663 0A.929.929 0 0 1 13 28H7a1 1 0 1 1 0-2h6c.057 0 .113.005.168.015a3 3 0 0 1 1.847-1.847A1.011 1.011 0 0 1 15 24v-1.075c-5.306-.506-9.475-4.99-9.475-10.425C5.525 6.727 10.227 2.025 16 2.025ZM16 26a1 1 0 1 0 0 2 1 1 0 0 0 0-2Zm-2.975-12.025c.132 1.917.515 3.604 1.045 4.863.332.788.703 1.364 1.065 1.727.285.287.528.407.724.445a1.003 1.003 0 0 1 .28 0c.196-.038.44-.157.726-.445.362-.363.733-.939 1.065-1.727.53-1.26.913-2.946 1.045-4.863h-5.95Zm-5.42 0a8.56 8.56 0 0 0 5.007 6.344 10.49 10.49 0 0 1-.339-.724c-.64-1.523-1.067-3.475-1.202-5.62H7.605Zm13.324 0c-.135 2.145-.561 4.097-1.202 5.62-.106.25-.22.492-.34.724a8.56 8.56 0 0 0 5.008-6.344h-3.466ZM12.612 4.68c-2.88 1.254-4.942 4.056-5.124 7.345h3.543c.05-2.536.503-4.863 1.242-6.62.106-.25.22-.493.34-.725ZM16 3.975c-.216 0-.507.1-.865.46-.362.363-.733.938-1.065 1.727-.62 1.474-1.04 3.534-1.09 5.863h6.04c-.05-2.33-.47-4.389-1.09-5.863-.332-.789-.703-1.364-1.065-1.727-.358-.36-.65-.46-.865-.46Zm3.387.705c.12.232.234.474.34.725.74 1.757 1.191 4.084 1.242 6.62h3.543c-.182-3.29-2.244-6.09-5.125-7.345Z"/>
</svg>
