<svg xmlns="http://www.w3.org/2000/svg" width="32" height="32" fill="currentColor" viewBox="0 0 32 32">
  <path fill-rule="evenodd" d="M27.708 6.292a1.004 1.004 0 0 0-1.416 0c-.39.39-.39 1.026 0 1.416.39.39 1.026.39 1.416 0 .39-.39.39-1.026 0-1.416Zm-2.83-1.414a3.004 3.004 0 0 1 4.244 0 3.004 3.004 0 0 1 0 4.244 3.004 3.004 0 0 1-4.244 0 3.004 3.004 0 0 1 0-4.244ZM5.708 24.292a1.004 1.004 0 0 0-1.416 0c-.39.39-.39 1.026 0 1.416.39.39 1.026.39 1.416 0 .39-.39.39-1.026 0-1.416Zm-2.83-1.414a3.004 3.004 0 0 1 4.244 0 3.004 3.004 0 0 1 0 4.244 3.004 3.004 0 0 1-4.244 0 3.004 3.004 0 0 1 0-4.244Z" clip-rule="evenodd"/>
  <path fill-rule="evenodd" d="M28.464 12.024a1 1 0 0 1 1.195.756c.27 1.2.341 2.44.341 3.67C30 23.968 23.598 30 15.829 30c-3.262 0-6.928-.752-9.443-2.711a1 1 0 1 1 1.229-1.578C9.635 27.284 12.786 28 15.828 28 22.586 28 28 22.773 28 16.45c0-1.164-.069-2.238-.292-3.23a1 1 0 0 1 .756-1.196ZM15.951 4C9.345 4 4 9.278 4 15.727c0 1.081.087 2.1.302 3.053a1 1 0 0 1-1.951.44C2.095 18.085 2 16.911 2 15.727 2 8.14 8.274 2 15.951 2c3.252 0 7.266 1.338 9.665 3.212a1 1 0 0 1-1.232 1.576C22.361 5.207 18.787 4 15.951 4Z" clip-rule="evenodd"/>
  <path fill-rule="evenodd" d="M16 7.975c-4.42 0-8.025 3.604-8.025 8.025 0 4.42 3.604 8.025 8.025 8.025 4.42 0 8.025-3.604 8.025-8.025 0-4.42-3.604-8.025-8.025-8.025ZM6.025 16c0-5.498 4.477-9.975 9.975-9.975 5.497 0 9.975 4.477 9.975 9.975 0 5.497-4.478 9.975-9.975 9.975-5.498 0-9.975-4.478-9.975-9.975Z" clip-rule="evenodd"/>
  <path fill-rule="evenodd" d="M14.063 10.033c-.657 1.478-1.088 3.587-1.088 5.967 0 2.38.431 4.49 1.088 5.967.329.74.695 1.279 1.053 1.62.353.335.65.438.884.438.235 0 .532-.103.884-.439.358-.34.724-.879 1.053-1.619.657-1.478 1.088-3.587 1.088-5.967 0-2.38-.431-4.49-1.088-5.967-.329-.74-.695-1.279-1.053-1.62-.352-.335-.65-.438-.884-.438-.234 0-.531.103-.884.439-.358.34-.724.879-1.053 1.619Zm-.292-3.031c.605-.576 1.36-.977 2.229-.977.87 0 1.625.401 2.229.977.6.57 1.095 1.35 1.49 2.239.791 1.78 1.256 4.171 1.256 6.759s-.465 4.979-1.256 6.759c-.395.889-.89 1.669-1.49 2.24-.604.575-1.36.976-2.229.976-.87 0-1.624-.401-2.229-.977-.6-.57-1.095-1.35-1.49-2.239-.791-1.78-1.256-4.171-1.256-6.759s.465-4.979 1.256-6.759c.395-.889.89-1.669 1.49-2.24Z" clip-rule="evenodd"/>
  <path fill-rule="evenodd" d="M7.025 16c0-.539.437-.975.975-.975h16.974a.975.975 0 1 1 0 1.95H8A.975.975 0 0 1 7.025 16Z" clip-rule="evenodd"/>
</svg>
