<svg xmlns="http://www.w3.org/2000/svg" width="32" height="32" fill="currentColor" viewBox="0 0 32 32">
  <path fill-rule="evenodd" d="M15.951 4C9.345 4 4 9.278 4 15.727c0 1.081.087 2.1.302 3.053a1 1 0 0 1-1.951.44C2.095 18.085 2 16.911 2 15.727 2 8.14 8.274 2 15.951 2c2.987 0 6.616 1.129 9.047 2.764a3.004 3.004 0 0 1 4.124.114 3.004 3.004 0 0 1 0 4.244 3 3 0 0 1-5.085-2.591C21.97 5.078 18.63 4 15.952 4Zm11.757 2.292a1.004 1.004 0 0 0-1.416 0c-.39.39-.39 1.026 0 1.416.39.39 1.026.39 1.416 0 .39-.39.39-1.026 0-1.416Zm-22 18a1.004 1.004 0 0 0-1.416 0c-.39.39-.39 1.026 0 1.416.39.39 1.026.39 1.416 0 .39-.39.39-1.026 0-1.416Zm-2.83-1.414a3.004 3.004 0 0 1 4.244 0 3.003 3.003 0 0 1 .742 3.019C9.888 27.34 12.909 28 15.829 28 22.584 28 28 22.773 28 16.45c0-1.164-.069-2.238-.292-3.23a1 1 0 1 1 1.951-.44c.27 1.2.341 2.44.341 3.67C30 23.968 23.598 30 15.829 30c-3.143 0-6.662-.699-9.165-2.502a3.005 3.005 0 0 1-3.786-.376 3.004 3.004 0 0 1 0-4.244ZM8.038 15A8.054 8.054 0 0 1 12.5 8.781a9.77 9.77 0 0 0-.219.46c-.688 1.549-1.13 3.559-1.233 5.759h-3.01Zm0 2a8.054 8.054 0 0 0 4.462 6.219 9.8 9.8 0 0 1-.219-.46c-.688-1.549-1.13-3.559-1.233-5.759h-3.01ZM13 17c.101 1.968.499 3.7 1.062 4.967.329.74.695 1.279 1.053 1.62.353.335.65.438.884.438.235 0 .532-.103.884-.439.358-.34.724-.879 1.053-1.619C18.5 20.7 18.897 18.968 19 17h-5.998Zm7.95 0c-.103 2.2-.544 4.21-1.232 5.759a9.8 9.8 0 0 1-.219.46A8.054 8.054 0 0 0 23.963 17h-3.011Zm3.012-2h-3.011c-.104-2.2-.545-4.21-1.233-5.759a9.77 9.77 0 0 0-.219-.46A8.054 8.054 0 0 1 23.963 15Zm2.01.763c-.127-5.389-4.555-9.738-9.973-9.738-5.498 0-9.975 4.477-9.975 9.975 0 5.497 4.477 9.975 9.975 9.975 5.418 0 9.846-4.35 9.972-9.738a1.02 1.02 0 0 0 0-.474ZM18.998 15H13c.101-1.968.499-3.7 1.062-4.967.329-.74.695-1.279 1.053-1.62.353-.335.65-.438.884-.438.235 0 .532.103.884.439.358.34.724.879 1.053 1.619C18.5 11.3 18.897 13.032 19 15Z" clip-rule="evenodd"/>
</svg>
