<svg xmlns="http://www.w3.org/2000/svg" width="33" height="32" fill="currentColor" viewBox="0 0 33 32">
  <path d="M12.424 17a3 3 0 0 1 3 3v6a3 3 0 0 1-3 3h-6a3 3 0 0 1-3-3v-6a3 3 0 0 1 3-3h6Zm14 0a3 3 0 0 1 3 3v6a3 3 0 0 1-3 3h-6a3 3 0 0 1-3-3v-6a3 3 0 0 1 3-3h6Zm-20 2a1 1 0 0 0-1 1v6a1 1 0 0 0 1 1h6a1 1 0 0 0 1-1v-6a1 1 0 0 0-1-1h-6Zm14 0a1 1 0 0 0-1 1v6a1 1 0 0 0 1 1h6a1 1 0 0 0 1-1v-6a1 1 0 0 0-1-1h-6Zm-8-16a3 3 0 0 1 3 3v6a3 3 0 0 1-3 3h-6a3 3 0 0 1-3-3V6a3 3 0 0 1 3-3h6Zm14 0a3 3 0 0 1 3 3v6a3 3 0 0 1-3 3h-6a3 3 0 0 1-3-3V6a3 3 0 0 1 3-3h6Zm-20 2a1 1 0 0 0-1 1v6a1 1 0 0 0 1 1h6a1 1 0 0 0 1-1V6a1 1 0 0 0-1-1h-6Zm14 0a1 1 0 0 0-1 1v6a1 1 0 0 0 1 1h6a1 1 0 0 0 1-1V6a1 1 0 0 0-1-1h-6Z"/>
</svg>
