<svg xmlns="http://www.w3.org/2000/svg" width="32" height="32" fill="currentColor" viewBox="0 0 32 32">
  <path fill-rule="evenodd" d="M8 6a2 2 0 1 0 0 4 2 2 0 0 0 0-4ZM4 8a4 4 0 1 1 8 0 4 4 0 0 1-8 0Zm18 0a2 2 0 1 1 4 0 2 2 0 0 1-4 0Zm2-4a4 4 0 1 0 0 8 4 4 0 0 0 0-8ZM14 16a2 2 0 1 1 4 0 2 2 0 0 1-4 0Zm2-4a4 4 0 1 0 0 8 4 4 0 0 0 0-8Zm-4.985 15L11 25.244c-.003-.614.554-1.244 1.422-1.244h7.156c.868 0 1.425.63 1.422 1.244L20.985 27h-9.97ZM23 25.258l-.021 2.535A1.002 1.002 0 0 1 22 29H10.023a1 1 0 0 1-1-.992L9 25.256C8.988 23.385 10.597 22 12.422 22h7.156c1.825 0 3.434 1.385 3.422 3.256v.002ZM21 15a1 1 0 0 1 1-1h4.61c1.82 0 3.401 1.397 3.39 3.256v.002l-.021 2.536A1 1 0 0 1 29 21h-7a1 1 0 1 1 0-2h5.985L28 17.244v-.001c.003-.626-.553-1.243-1.39-1.243H22a1 1 0 0 1-1-1Zm-11-1a1 1 0 1 1 0 2H5.39c-.837 0-1.393.617-1.39 1.243L4.015 19H10a1 1 0 1 1 0 2H3a1 1 0 0 1-.979-1.206l-.02-2.536v-.002C1.988 15.396 3.57 14 5.39 14H10Z" clip-rule="evenodd"/>
</svg>
