<svg xmlns="http://www.w3.org/2000/svg" width="32" height="32" fill="currentColor" viewBox="0 0 32 32">
  <path fill-rule="evenodd" d="M12.5 5.5a3.5 3.5 0 1 1 7 0 3.5 3.5 0 1 1-7 0ZM16 4a1.5 1.5 0 1 0 0 3 1.5 1.5 0 1 0 0-3ZM4.5 19.5a3.5 3.5 0 1 1 7 0 3.5 3.5 0 1 1-7 0ZM8 18a1.5 1.5 0 1 0 0 3 1.5 1.5 0 1 0 0-3Zm12.5 1.5a3.5 3.5 0 1 1 7 0 3.5 3.5 0 1 1-7 0ZM24 18a1.5 1.5 0 1 0 0 3 1.5 1.5 0 1 0 0-3Zm-11.711-5.701c-.237.179-.29.345-.289.447V14h8v-1.345c.001-.153-.06-.29-.215-.413-.168-.134-.445-.242-.79-.242H13.2c-.333 0-.673.118-.911.299Zm-1.207-1.595A3.561 3.561 0 0 1 13.2 10h5.794c1.403 0 3.02.91 3.006 2.67V15a1 1 0 0 1-1 1H11a1 1 0 0 1-1-1v-2.24c-.007-.9.492-1.61 1.082-2.056ZM4.289 26.349c-.237.179-.29.345-.289.447v1.254h8v-1.345c.001-.154-.06-.29-.215-.413-.168-.134-.445-.242-.79-.242H5.2c-.333 0-.673.118-.911.299Zm-1.207-1.596A3.561 3.561 0 0 1 5.2 24.05h5.794c1.403 0 3.02.91 3.006 2.67v2.33a1 1 0 0 1-1 1H3a1 1 0 0 1-1-1v-2.24c-.007-.9.492-1.61 1.082-2.056Zm17.207 1.596c-.237.179-.29.345-.289.447v1.254h8v-1.345c.001-.154-.06-.29-.215-.413-.168-.134-.445-.242-.79-.242H21.2c-.333 0-.673.118-.911.299Zm-1.207-1.596a3.561 3.561 0 0 1 2.118-.703h5.794c1.403 0 3.02.91 3.006 2.67v2.33a1 1 0 0 1-1 1H19a1 1 0 0 1-1-1v-2.24c-.007-.9.492-1.61 1.082-2.056ZM16 17a1 1 0 0 1 1 1v2a1 1 0 1 1-2 0v-2a1 1 0 0 1 1-1Z" clip-rule="evenodd"/>
  <path fill-rule="evenodd" d="M15.445 19.168a1 1 0 0 1 1.11 0l3 2a1 1 0 1 1-1.11 1.664L16 21.202l-2.445 1.63a1 1 0 0 1-1.11-1.664l3-2Z" clip-rule="evenodd"/>
</svg>
