<svg xmlns="http://www.w3.org/2000/svg" width="32" height="32" fill="currentColor" viewBox="0 0 32 32">
  <path fill-rule="evenodd" d="M16 2a3.5 3.5 0 1 0 0 7 3.5 3.5 0 1 0 0-7Zm-1.5 3.5a1.5 1.5 0 1 1 3 0 1.5 1.5 0 1 1-3 0ZM8 16a3.5 3.5 0 1 0 0 7 3.5 3.5 0 1 0 0-7Zm-1.5 3.5a1.5 1.5 0 1 1 3 0 1.5 1.5 0 1 1-3 0Zm14 0a3.5 3.5 0 1 1 7 0 3.5 3.5 0 1 1-7 0ZM24 18a1.5 1.5 0 1 0 0 3 1.5 1.5 0 1 0 0-3Zm-12-5.254c-.001-.102.052-.268.289-.447.238-.18.578-.299.91-.299h5.795c.346 0 .623.108.791.242.155.123.216.26.215.413V14h-8v-1.254ZM13.2 10a3.56 3.56 0 0 0-2.118.704c-.59.446-1.089 1.156-1.082 2.056V15a1 1 0 0 0 1 1h10a1 1 0 0 0 1-1v-2.33c.014-1.76-1.603-2.67-3.006-2.67H13.2ZM4.289 26.349c-.237.179-.29.345-.289.447v1.254h8v-1.345c.001-.154-.06-.29-.215-.413-.168-.134-.445-.242-.79-.242H5.2c-.333 0-.673.118-.911.299Zm-1.207-1.596A3.561 3.561 0 0 1 5.2 24.05h5.794c1.403 0 3.02.91 3.006 2.67v2.33a1 1 0 0 1-1 1H3a1 1 0 0 1-1-1v-2.24c-.007-.9.492-1.61 1.082-2.056ZM20 26.796c-.001-.102.052-.268.289-.447.238-.18.578-.3.91-.3h5.795c.346 0 .623.109.791.243.155.123.216.26.215.413v1.345h-8v-1.254Zm1.2-2.746c-.763 0-1.527.257-2.118.703-.59.447-1.089 1.157-1.082 2.057v2.24a1 1 0 0 0 1 1h10a1 1 0 0 0 1-1v-2.33c.014-1.76-1.603-2.67-3.006-2.67H21.2ZM16 17a1 1 0 0 1 1 1v1.465l2.555 1.703a1 1 0 0 1-1.11 1.664L16 21.202l-2.445 1.63a1 1 0 0 1-1.11-1.664L15 19.465V18a1 1 0 0 1 1-1Z" clip-rule="evenodd"/>
</svg>
