<svg xmlns="http://www.w3.org/2000/svg" width="32" height="32" fill="none" viewBox="0 0 32 32">
  <path fill="#3D3C3C" fill-rule="evenodd" d="M25.966 4.013c-4.875.46-7.68 2.836-9.243 5.591-1.201 2.115-1.688 4.49-1.754 6.46a28.917 28.917 0 0 1 .03.908c4.849-.23 7.626-2.238 9.184-4.663 1.677-2.61 2.036-5.854 1.783-8.296ZM13 18.999V25c0 .023 0 .046.002.069-2.027.277-4.054 1.383-6.568 3.106a1 1 0 1 0 1.131 1.65C10.474 27.83 12.291 27 14 27c1.709 0 3.526.83 6.434 2.825a1 1 0 1 0 1.131-1.65c-2.513-1.723-4.54-2.83-6.567-3.107L15 25v-6.02c5.458-.236 8.87-2.529 10.822-5.569 2.022-3.146 2.389-6.948 2.083-9.712a1.89 1.89 0 0 0-2.04-1.691c-5.569.502-8.954 3.27-10.838 6.589-.436.768-.79 1.561-1.073 2.359a9.656 9.656 0 0 0-.38-.815c-.615-1.169-1.505-2.241-2.785-3.004-1.28-.763-2.885-1.177-4.867-1.134-1.104.024-1.886.947-1.901 1.953l-.007.398c-.036 2.11-.08 4.623.953 6.654 1.183 2.325 3.609 3.794 7.991 3.99l.042.001ZM9.766 8.86c-.896-.534-2.1-.882-3.745-.854l-.003.192c-.035 2.287-.067 4.33.732 5.902.738 1.45 2.327 2.71 6.248 2.896-.033-1.768-.227-4.083-1.194-5.92-.477-.907-1.132-1.677-2.038-2.217Z" clip-rule="evenodd"/>
</svg>
