<svg xmlns="http://www.w3.org/2000/svg" width="32" height="32" fill="currentColor" viewBox="0 0 32 32">
  <path fill-rule="evenodd" d="M15 5a1 1 0 1 1 2 0 1 1 0 0 1-2 0Zm1-3a3 3 0 1 0 2.103 5.14L26 10.65V17a1 1 0 1 0 2 0v-7a1 1 0 0 0-.594-.914l-8.425-3.744A3 3 0 0 0 16 2Zm-5.143 4.486a1 1 0 0 1-.342 1.372L6 10.566v9.605a3.001 3.001 0 1 1-2 0V10a1 1 0 0 1 .486-.857l5-3a1 1 0 0 1 1.371.343Zm4.387 2.797a1.5 1.5 0 0 1 1.512 0l5.5 3.209A1.5 1.5 0 0 1 23 13.787v6.426a1.5 1.5 0 0 1-.744 1.296l-5.5 3.208a1.5 1.5 0 0 1-1.512 0l-5.5-3.208A1.5 1.5 0 0 1 9 20.213v-6.426a1.5 1.5 0 0 1 .744-1.296l5.5-3.208ZM16 11.158l-5 2.916v5.852l5 2.916 5-2.916v-5.852l-5-2.916ZM4 23a1 1 0 1 1 2 0 1 1 0 0 1-2 0Zm23-1a1 1 0 1 0 0 2 1 1 0 0 0 0-2Zm-3 1a3 3 0 1 1 1.298 2.47l-8.658 4.42a1 1 0 0 1-.81.044l-5.186-1.975a1 1 0 0 1 .712-1.869l4.77 1.817 7.99-4.078A3 3 0 0 1 24 23Z" clip-rule="evenodd"/>
</svg>
