<svg xmlns="http://www.w3.org/2000/svg" width="32" height="32" fill="currentColor" viewBox="0 0 32 32">
  <path fill-rule="evenodd" d="M9.01 5.04c1.594-.273 3.058.356 4.223 1.187a9.955 9.955 0 0 1 1.97 1.867 1 1 0 0 0 1.594 0 9.743 9.743 0 0 1 1.965-1.817c1.164-.812 2.633-1.429 4.23-1.159 1.238.212 2.258.905 3.056 1.757a8.411 8.411 0 0 1 1.588 2.446c.861 2.126.405 4.666-1.473 7.692A1.007 1.007 0 0 0 26 17h-8.295l-2.263-6.336a1 1 0 0 0-1.861-.058L10.84 17H6a.967.967 0 0 0-.254.033c-1.818-2.977-2.242-5.483-1.382-7.605a9.3 9.3 0 0 1 1.604-2.556c.806-.9 1.82-1.624 3.041-1.832h.001ZM7.1 19c2.05 2.694 5.04 5.614 8.825 8.732 3.77-3.105 6.774-6.029 8.853-8.732H17a1 1 0 0 1-.942-.664l-1.643-4.6-1.996 4.658A1 1 0 0 1 11.5 19H7.1Zm7.295-14.4c.662.472 1.208.974 1.613 1.388.406-.406.951-.893 1.61-1.352 1.381-.963 3.384-1.883 5.708-1.49 1.794.306 3.183 1.297 4.181 2.36a10.404 10.404 0 0 1 1.982 3.062v.001c1.274 3.142.318 6.578-1.99 10.067-2.316 3.498-6.114 7.247-10.944 11.165a1 1 0 0 1-1.26 0C10.47 25.888 6.709 22.165 4.428 18.69 2.152 15.22 1.24 11.81 2.511 8.676c.328-.806.976-2.03 1.966-3.137.99-1.108 2.383-2.161 4.196-2.47 2.335-.4 4.343.546 5.722 1.53Z" clip-rule="evenodd"/>
</svg>
