<svg xmlns="http://www.w3.org/2000/svg" width="32" height="32" fill="currentColor" viewBox="0 0 32 32">
  <path fill-rule="evenodd" d="M14.53 10a1 1 0 0 1 .912.664L17.705 17H26a1 1 0 1 1 0 2h-9a1 1 0 0 1-.942-.664l-1.643-4.6-1.996 4.658A1 1 0 0 1 11.5 19H6a1 1 0 1 1 0-2h4.84l2.74-6.394a1 1 0 0 1 .95-.605Z" clip-rule="evenodd"/>
  <path fill-rule="evenodd" d="M13.233 6.227c-1.165-.83-2.63-1.46-4.223-1.187-1.221.208-2.236.931-3.042 1.832a9.3 9.3 0 0 0-1.604 2.556c-.913 2.254-.378 4.94 1.736 8.165 2.018 3.075 5.37 6.47 9.825 10.14 4.463-3.677 7.853-7.1 9.905-10.201 2.155-3.256 2.716-5.964 1.806-8.21a8.411 8.411 0 0 0-1.588-2.447c-.798-.852-1.818-1.545-3.057-1.757-1.596-.27-3.065.347-4.23 1.159a9.758 9.758 0 0 0-1.964 1.817 1 1 0 0 1-1.594 0 9.955 9.955 0 0 0-1.97-1.867Zm2.775-.239A12.147 12.147 0 0 0 14.395 4.6c-1.38-.985-3.387-1.932-5.722-1.532-1.813.31-3.205 1.363-4.196 2.47a11.293 11.293 0 0 0-1.966 3.137v.001C1.24 11.811 2.15 15.22 4.428 18.69c2.28 3.475 6.042 7.198 10.868 11.11a1 1 0 0 0 1.26 0c4.83-3.917 8.627-7.666 10.942-11.164 2.309-3.489 3.265-6.925 1.991-10.067v-.001c-.333-.818-.987-2-1.982-3.061-.998-1.064-2.387-2.055-4.18-2.36h-.001c-2.324-.394-4.327.526-5.708 1.489-.659.459-1.204.946-1.61 1.352Z" clip-rule="evenodd"/>
</svg>
