<svg xmlns="http://www.w3.org/2000/svg" width="32" height="32" fill="currentColor" viewBox="0 0 32 32">
  <path d="M9.143 3.034c2.142-.222 3.98.668 5.267 1.59.657.47 1.199.969 1.602 1.382.404-.405.945-.89 1.6-1.347 1.289-.9 3.123-1.766 5.255-1.547l.43.059h.002c1.787.307 3.17 1.295 4.164 2.357a10.507 10.507 0 0 1 1.833 2.734l.14.322c1.267 3.135.316 6.566-1.982 10.048-2.305 3.492-6.085 7.233-10.893 11.143-.367.3-.895.3-1.262.001-4.803-3.905-8.548-7.62-10.818-11.09-2.265-3.463-3.172-6.865-1.908-9.994.326-.803.971-2.026 1.957-3.131.986-1.106 2.374-2.158 4.18-2.467l.433-.06Zm4.103 3.215c-1.158-.83-2.614-1.456-4.197-1.185-1.213.208-2.223.929-3.026 1.828a9.287 9.287 0 0 0-1.596 2.551c-.909 2.25-.376 4.931 1.728 8.148 2.007 3.068 5.344 6.454 9.775 10.114 4.439-3.667 7.813-7.08 9.855-10.175 2.145-3.25 2.703-5.952 1.797-8.194a8.398 8.398 0 0 0-1.58-2.441c-.795-.85-1.81-1.542-3.041-1.752-1.586-.27-3.046.346-4.204 1.155a9.725 9.725 0 0 0-1.955 1.813 1 1 0 0 1-1.595 0 9.932 9.932 0 0 0-1.96-1.862Z"/>
</svg>
