<svg xmlns="http://www.w3.org/2000/svg" width="32" height="32" fill="currentColor" viewBox="0 0 32 32">
  <path d="M18.755 26.451a.957.957 0 0 1 1.337.374c.27.489.11 1.115-.358 1.397l-2.266 1.367a2.829 2.829 0 0 1-2.936 0l-2.266-1.367c-.468-.282-.629-.908-.358-1.397a.957.957 0 0 1 1.337-.373l2.266 1.366a.943.943 0 0 0 .978 0l2.266-1.367ZM4 21.466v-2.733c0-.564.438-1.022.979-1.022.54 0 .979.457.979 1.022v2.733c0 .365.187.703.49.885l2.266 1.367c.468.283.628.908.357 1.397a.956.956 0 0 1-1.336.374l-2.267-1.366C4.56 23.575 4 22.563 4 21.466Zm22.042 0v-2.733c0-.565.438-1.022.98-1.022.54 0 .978.458.978 1.022v2.733c0 1.096-.56 2.109-1.468 2.657l-2.267 1.366a.956.956 0 0 1-1.336-.374c-.27-.489-.11-1.114.357-1.397l2.267-1.367c.302-.182.49-.52.49-.885ZM4 13.266v-2.732c0-1.096.56-2.109 1.468-2.657l2.267-1.366a.956.956 0 0 1 1.336.374c.27.489.11 1.114-.357 1.397L6.447 9.649c-.302.183-.49.52-.49.885v2.733c0 .565-.437 1.022-.978 1.022-.54 0-.979-.458-.979-1.022Zm22.042 0v-2.732a1.03 1.03 0 0 0-.49-.885l-2.266-1.367a1.047 1.047 0 0 1-.357-1.397.956.956 0 0 1 1.336-.374l2.267 1.366C27.44 8.425 28 9.437 28 10.534v2.733c0 .564-.439 1.022-.979 1.022s-.979-.457-.979-1.022ZM14.532 2.412a2.829 2.829 0 0 1 2.936 0l2.266 1.367c.468.282.629.908.358 1.397a.957.957 0 0 1-1.337.374l-2.266-1.367a.943.943 0 0 0-.978 0L13.245 5.55a.957.957 0 0 1-1.337-.374c-.27-.489-.11-1.115.358-1.397l2.266-1.367Z"/>
</svg>
