<svg xmlns="http://www.w3.org/2000/svg" width="32" height="32" fill="currentColor" viewBox="0 0 32 32">
  <path d="M26.042 10.534a1.03 1.03 0 0 0-.49-.885L16.49 4.182a.943.943 0 0 0-.978 0L6.447 9.65c-.302.183-.49.52-.49.885v10.932c0 .365.188.703.49.885l9.064 5.467a.943.943 0 0 0 .978 0l9.064-5.467c.302-.182.49-.52.49-.885V10.534ZM28 21.466c0 1.096-.56 2.109-1.468 2.657l-9.064 5.466a2.829 2.829 0 0 1-2.936 0l-9.064-5.466C4.56 23.575 4 22.563 4 21.466V10.534c0-1.096.56-2.109 1.468-2.657l9.064-5.466a2.829 2.829 0 0 1 2.936 0l9.064 5.466C27.44 8.425 28 9.437 28 10.534v10.932Z"/>
</svg>
