<svg xmlns="http://www.w3.org/2000/svg" width="32" height="32" fill="currentColor" viewBox="0 0 32 32">
  <g clip-path="url(#a)">
    <path fill-rule="evenodd" d="M2.513 12.233C4.541 4.96 12.007.581 19.386 2.413h.001c7.5 1.87 12.063 9.467 10.2 16.974-1.87 7.5-9.467 12.064-16.974 10.2-5.141-1.282-8.896-5.25-10.154-10.028a1 1 0 1 1 1.934-.51c1.08 4.1 4.3 7.499 8.702 8.597 6.437 1.598 12.948-2.315 14.55-8.742 1.599-6.437-2.314-12.947-8.74-14.55-6.356-1.577-12.782 2.217-14.487 8.497l1.416-1.215a1 1 0 1 1 1.303 1.518l-3.244 2.783a1 1 0 0 1-1.489-.213L.163 12.291a1 1 0 1 1 1.674-1.094l.676 1.036ZM16 9a1 1 0 0 1 1 1v5h5a1 1 0 0 1 0 2h-6a1 1 0 0 1-1-1v-6a1 1 0 0 1 1-1Z" clip-rule="evenodd"/>
  </g>
  <defs>
    <clipPath id="a">
      <path d="M0 0h32v32H0z"/>
    </clipPath>
  </defs>
</svg>
