<svg xmlns="http://www.w3.org/2000/svg" width="32" height="32" fill="currentColor" viewBox="0 0 32 32">
  <path fill-rule="evenodd" d="M30 16c0-7.73-6.27-14-14-14a13.961 13.961 0 0 0-9.883 4.084L6 6.19V3a1 1 0 0 0-2 0v6a1 1 0 0 0 1 1h6a1 1 0 1 0 0-2H6.984l.497-.454A11.961 11.961 0 0 1 16 4c6.626 0 12 5.374 12 12 0 2.666-.874 5.133-2.348 7.12v.002A11.986 11.986 0 0 1 16 28C9.374 28 4 22.626 4 16a1 1 0 1 0-2 0c0 7.73 6.27 14 14 14 4.612 0 8.712-2.242 11.26-5.689A13.923 13.923 0 0 0 30 16Zm-13-5a1 1 0 1 0-2 0v6a1 1 0 0 0 1 1h6a1 1 0 1 0 0-2h-5v-5Z" clip-rule="evenodd"/>
</svg>
