<svg xmlns="http://www.w3.org/2000/svg" width="32" height="32" fill="currentColor" viewBox="0 0 32 32">
  <path fill-rule="evenodd" d="M15.515 2.234a1 1 0 0 1 1.294.008L29.652 13.28a1 1 0 0 1-.665 1.758L27 15.013V29a1 1 0 0 1-1 1H6a1 1 0 0 1-1-1V15.013l-1.987.025a1 1 0 0 1-.656-1.766L15.515 2.234ZM5.79 13.003 5.987 13A1 1 0 0 1 7 14v14h18V14a1 1 0 0 1 1.013-1l.249.003L16.15 4.312l-10.36 8.69Z" clip-rule="evenodd"/>
  <path fill-rule="evenodd" d="M13.46 20c-.183 0-.46.189-.46.571V28h6v-7.429c0-.382-.277-.571-.46-.571h-5.08Zm-2.46.571C11 19.225 12.037 18 13.46 18h5.08c1.423 0 2.46 1.225 2.46 2.571V29a1 1 0 0 1-1 1h-8a1 1 0 0 1-1-1v-8.429Z" clip-rule="evenodd"/>
</svg>
