<svg xmlns="http://www.w3.org/2000/svg" width="32" height="32" fill="currentColor" viewBox="0 0 32 32">
  <path fill-rule="evenodd" d="M16.81 2.242a1 1 0 0 0-1.295-.008L2.357 13.272a1 1 0 0 0 .656 1.766L5 15.013V29a1 1 0 0 0 1 1h20a1 1 0 0 0 1-1V15.013l1.987.025a1 1 0 0 0 .665-1.758L16.809 2.242ZM21 28h4V14a1 1 0 0 1 1.013-1l.249.003L16.15 4.312l-10.36 8.69.197-.002A1 1 0 0 1 7 14v14h4v-7.429C11 19.225 12.037 18 13.46 18h5.08c1.423 0 2.46 1.225 2.46 2.571V28Zm-8 0h6v-7.429c0-.382-.277-.571-.46-.571h-5.08c-.183 0-.46.189-.46.571V28Z" clip-rule="evenodd"/>
</svg>
