<svg xmlns="http://www.w3.org/2000/svg" width="32" height="32" fill="currentColor" viewBox="0 0 32 32">
  <path fill-rule="evenodd" d="M5 2a1 1 0 0 0 0 2h3v4.776C8 11.879 9.678 14.6 12.17 16 9.679 17.4 8 20.121 8 23.224V28H5a1 1 0 1 0 0 2h22a1 1 0 1 0 0-2h-3v-4.776c0-3.103-1.678-5.825-4.17-7.224C22.321 14.6 24 11.879 24 8.776V4h3a1 1 0 1 0 0-2H5Zm17 2H10v4.776C10 12.246 12.716 15 16 15s6-2.754 6-6.224V4Zm-6 13c-3.284 0-6 2.754-6 6.224V28h12v-4.776C22 19.754 19.284 17 16 17Z" clip-rule="evenodd"/>
</svg>
