<svg xmlns="http://www.w3.org/2000/svg" width="32" height="32" fill="currentColor" viewBox="0 0 32 32">
  <path d="M11.497 24h-3.5C4.69 24 2 21.25 2 17.86c0-2.39 1.5-4.6 3.739-5.5.85-.34 1.7-.39 2.939-.16l1.53.32c.539.11.889.65.769 1.19-.12.54-.65.88-1.19.77l-1.5-.32c-.829-.15-1.329-.14-1.809.05C4.998 14.81 4 16.27 4 17.85c0 2.28 1.8 4.14 3.999 4.14h3.499c.55 0 1 .45 1 1s-.45 1-1 1V24Zm17.113-4a.998.998 0 0 1-.95-1.31c.22-.66.33-1.38.33-2.12 0-2.35-1.999-4.57-4.108-4.57-1.08 0-1.97.56-2.299.81a.996.996 0 0 1-1.4-.22.997.997 0 0 1 .22-1.4c.61-.45 1.87-1.19 3.49-1.19C27.09 10 30 13.13 30 16.57c0 .96-.14 1.88-.42 2.75-.14.42-.53.69-.95.69l-.02-.01Zm-8.11 8c-.25 0-.5-.06-.73-.192l-4-2.249c-.48-.263-.77-.78-.77-1.327v-4.467c0-.547.3-1.063.77-1.326l4-2.25c.46-.252 1-.252 1.46 0l4 2.25c.48.263.77.78.77 1.326v4.467c0 .547-.3 1.064-.77 1.327l-4 2.249a1.46 1.46 0 0 1-.73.192ZM17 23.928l3.5 1.975 3.5-1.975V20.06l-3.5-1.975L17 20.06v3.87Z"/>
  <path d="M8 14c-.55 0-1-.45-1-1v-.3C7 7.9 10.88 4 15.638 4c3.89 0 7.309 2.63 8.329 6.4.14.53-.17 1.08-.71 1.23-.53.15-1.08-.17-1.23-.71A6.64 6.64 0 0 0 15.628 6C11.97 6 8.99 9 8.99 12.7v.3c0 .55-.45 1-1 1H8Z"/>
</svg>
