<svg xmlns="http://www.w3.org/2000/svg" width="32" height="32" fill="currentColor" viewBox="0 0 32 32">
  <path fill-rule="evenodd" d="M7.023 12.069C7.345 7.563 11.09 4 15.638 4c3.75 0 7.064 2.445 8.21 6h.044C27.091 10 30 13.13 30 16.57c0 .96-.14 1.88-.42 2.75-.14.42-.53.69-.95.69l-.02-.01a.998.998 0 0 1-.95-1.31c.22-.66.33-1.38.33-2.12 0-2.35-1.999-4.57-4.108-4.57-1.08 0-1.97.56-2.299.81a.996.996 0 0 1-1.4-.22.997.997 0 0 1 .22-1.4c.32-.236.82-.553 1.457-.8A6.639 6.639 0 0 0 15.628 6c-3.516 0-6.404 2.77-6.625 6.268l1.204.252c.54.11.89.65.77 1.19-.12.54-.65.88-1.19.77l-1.5-.32c-.829-.15-1.329-.14-1.809.05C4.998 14.81 4 16.27 4 17.85c0 2.28 1.8 4.14 3.999 4.14h3.499c.55 0 1 .45 1 1s-.45 1-1 1V24h-3.5C4.69 24 2 21.25 2 17.86c0-2.39 1.5-4.6 3.739-5.5a4.082 4.082 0 0 1 1.284-.291ZM20.5 28c-.25 0-.5-.06-.73-.192l-4-2.249c-.48-.263-.77-.78-.77-1.327v-4.467c0-.547.3-1.063.77-1.326l4-2.25c.46-.252 1-.252 1.46 0l4 2.25c.48.263.77.78.77 1.326v4.467c0 .547-.3 1.064-.77 1.327l-4 2.249a1.46 1.46 0 0 1-.73.192ZM17 23.928l3.5 1.975 3.5-1.975V20.06l-3.5-1.975L17 20.06v3.87Z" clip-rule="evenodd"/>
</svg>
