<svg xmlns="http://www.w3.org/2000/svg" width="32" height="32" fill="currentColor" viewBox="0 0 32 32">
  <path fill-rule="evenodd" d="M2 5a3 3 0 0 1 3-3h16a3 3 0 0 1 3 3v7a1 1 0 1 1-2 0V5a1 1 0 0 0-1-1H5a1 1 0 0 0-1 1v22a1 1 0 0 0 1 1h8a1 1 0 1 1 0 2H5a3 3 0 0 1-3-3V5Zm7 4c0-2.21 1.79-4 4-4s4 1.79 4 4-1.79 4-4 4-4-1.79-4-4Zm4-2a1.999 1.999 0 1 0 0 4 2 2 0 1 0 0-4Zm-4 9.746c-.001-.102.052-.268.289-.447.238-.18.578-.299.91-.299H14a1 1 0 1 0 0-2h-3.8c-.763 0-1.528.257-2.118.704-.59.446-1.089 1.156-1.082 2.056V19a1 1 0 0 0 1 1h4a1 1 0 1 0 0-2H9v-1.254ZM7 23a1 1 0 0 1 1-1h3a1 1 0 1 1 0 2H8a1 1 0 0 1-1-1Zm1 2a1 1 0 1 0 0 2h3a1 1 0 1 0 0-2H8Zm14.879-10.472a1 1 0 0 1 1.345-.414l3.062 1.602a1 1 0 0 1 .425 1.346l-.517 1c.247.333.46.686.638 1.053l1.215.058a1 1 0 0 1 .953.999v3.354a1 1 0 0 1-.967 1l-1.053.034a6.387 6.387 0 0 1-.25.528l-.004.007a7.267 7.267 0 0 1-.307.515l.652 1.122a1 1 0 0 1-.375 1.374l-3.14 1.766a1 1 0 0 1-1.385-.427l-.47-.947c-.356.04-.717.051-1.08.03l-.5.937a1 1 0 0 1-1.345.415l-3.09-1.618a1 1 0 0 1-.417-1.361l.53-.98a6.548 6.548 0 0 1-.605-.99l-1.056.034a1 1 0 0 1-1.032-.97l-.105-3.498a1 1 0 0 1 .966-1.03l1.051-.034a5.78 5.78 0 0 1 .256-.534 7.3 7.3 0 0 1 .297-.5l-.556-.907a1 1 0 0 1 .322-1.372l2.956-1.843a1 1 0 0 1 1.38.324l.557.903a6.325 6.325 0 0 1 1.148-.039l.501-.937Zm1.296 1.818-.354.662a1 1 0 0 1-1.056.513 4.313 4.313 0 0 0-1.788.061 1 1 0 0 1-1.092-.447l-.387-.629-1.26.786.39.633a1 1 0 0 1-.087 1.166 4.478 4.478 0 0 0-.854 1.609 1 1 0 0 1-.925.71l-.732.024.045 1.5.734-.024a1 1 0 0 1 .972.655c.211.577.529 1.106.948 1.554a1 1 0 0 1 .15 1.159l-.369.682 1.315.688.354-.662a1 1 0 0 1 1.056-.513c.6.106 1.21.081 1.788-.061a1 1 0 0 1 1.136.526l.335.674 1.338-.752-.472-.813a1 1 0 0 1 .099-1.144c.184-.22.353-.475.508-.76.145-.273.257-.554.346-.849a1 1 0 0 1 .925-.71l.762-.025v-1.434l-.889-.041a1 1 0 0 1-.892-.655 4.56 4.56 0 0 0-.948-1.554 1 1 0 0 1-.158-1.143l.364-.705-1.302-.681ZM23 22a1 1 0 1 1-2 0 1 1 0 0 1 2 0Zm2 0a3 3 0 1 1-6 0 3 3 0 0 1 6 0Z" clip-rule="evenodd"/>
</svg>
