<svg xmlns="http://www.w3.org/2000/svg" width="32" height="32" fill="currentColor" viewBox="0 0 32 32">
  <path fill-rule="evenodd" d="M5 5a3 3 0 0 1 3-3h16a3 3 0 0 1 3 3v22a3 3 0 0 1-3 3H8a3 3 0 0 1-3-3V5Zm3-1a1 1 0 0 0-1 1v22a1 1 0 0 0 1 1h16a1 1 0 0 0 1-1V5a1 1 0 0 0-1-1H8Zm4 5c0-2.21 1.79-4 4-4s4 1.79 4 4-1.79 4-4 4-4-1.79-4-4Zm4-2a1.999 1.999 0 1 0 0 4 2 2 0 1 0 0-4Zm-4 9.746c-.001-.102.052-.268.289-.447.238-.18.578-.299.91-.299h5.795c.346 0 .623.108.791.242.155.123.216.26.215.413V18h-8v-1.254ZM13.2 14a3.56 3.56 0 0 0-2.118.704c-.59.446-1.089 1.156-1.082 2.056V19a1 1 0 0 0 1 1h10a1 1 0 0 0 1-1v-2.33c.014-1.76-1.603-2.67-3.006-2.67H13.2ZM10 23a1 1 0 0 1 1-1h10a1 1 0 1 1 0 2H11a1 1 0 0 1-1-1Zm1 2a1 1 0 1 0 0 2h10a1 1 0 1 0 0-2H11Z" clip-rule="evenodd"/>
</svg>
