<svg xmlns="http://www.w3.org/2000/svg" width="32" height="32" fill="currentColor" viewBox="0 0 32 32">
  <path fill-rule="evenodd" d="M5 5a3 3 0 0 1 3-3h16a3 3 0 0 1 3 3v22a3 3 0 0 1-3 3H8a3 3 0 0 1-3-3V5Zm3-1a1 1 0 0 0-1 1v22a1 1 0 0 0 1 1h16a1 1 0 0 0 1-1V5a1 1 0 0 0-1-1H8Z" clip-rule="evenodd"/>
  <path fill-rule="evenodd" d="M12 9c0-2.21 1.79-4 4-4s4 1.79 4 4-1.79 4-4 4-4-1.79-4-4Zm4-2a1.999 1.999 0 1 0 0 4 2 2 0 1 0 0-4Zm-3.711 9.299c-.237.179-.29.345-.289.447V18h8v-1.345c.001-.154-.06-.29-.215-.413-.168-.134-.445-.242-.79-.242H13.2c-.333 0-.673.118-.911.299Zm-1.207-1.595A3.561 3.561 0 0 1 13.2 14h5.794c1.403 0 3.02.91 3.006 2.67V19a1 1 0 0 1-1 1H11a1 1 0 0 1-1-1v-2.24c-.007-.9.492-1.61 1.082-2.056ZM10 23a1 1 0 0 1 1-1h10a1 1 0 1 1 0 2H11a1 1 0 0 1-1-1Zm0 3a1 1 0 0 1 1-1h10a1 1 0 1 1 0 2H11a1 1 0 0 1-1-1Z" clip-rule="evenodd"/>
</svg>
