<svg xmlns="http://www.w3.org/2000/svg" width="32" height="32" fill="currentColor" viewBox="0 0 32 32">
  <path d="M18.343 27.771a1 1 0 0 1 .388 1.962 14.066 14.066 0 0 1-5.462 0 1 1 0 1 1 .388-1.962 12.066 12.066 0 0 0 4.686 0Zm-13.71-5.38a1 1 0 0 1 1.326.194l.062.082.34.481a12.075 12.075 0 0 0 2.49 2.49l.482.341.082.062a1 1 0 0 1-1.106 1.653l-.088-.052-.284-.196a14.076 14.076 0 0 1-3.383-3.383l-.196-.284-.052-.088a1.001 1.001 0 0 1 .328-1.3Zm21.408.194a1 1 0 0 1 1.6 1.194l-.195.285a14.075 14.075 0 0 1-3.667 3.578l-.088.052a1.001 1.001 0 0 1-1.024-1.714l.481-.341a12.074 12.074 0 0 0 2.832-2.972l.061-.082ZM2 16c0-.934.092-1.847.267-2.731a1 1 0 1 1 1.962.388 12.063 12.063 0 0 0 0 4.686 1 1 0 0 1-1.962.388A14.066 14.066 0 0 1 2 16Zm26 0c0-.803-.079-1.586-.229-2.343l1.962-.388a14.066 14.066 0 0 1 0 5.462 1 1 0 1 1-1.962-.388c.15-.757.229-1.54.229-2.343Zm.559-3.519a1 1 0 0 1 1.174.788l-1.962.388a1 1 0 0 1 .788-1.176ZM8.309 4.306A1.001 1.001 0 0 1 9.333 6.02l-.481.34A12.072 12.072 0 0 0 6.02 9.333l-.062.082a1 1 0 0 1-1.6-1.194l.195-.284A14.074 14.074 0 0 1 8.22 4.358l.088-.052Zm14.083.328c.288-.43.852-.566 1.3-.328l.087.052.285.196a14.076 14.076 0 0 1 3.382 3.383l.196.284.052.088a1.001 1.001 0 0 1-1.653 1.106l-.061-.082-.341-.481a12.075 12.075 0 0 0-2.49-2.49l-.482-.341-.082-.062a1 1 0 0 1-.193-1.325ZM16 2c.934 0 1.847.092 2.731.267a1 1 0 1 1-.388 1.962 12.063 12.063 0 0 0-4.686 0 1 1 0 0 1-.388-1.962A14.066 14.066 0 0 1 16 2Z"/>
</svg>
