<svg xmlns="http://www.w3.org/2000/svg" width="32" height="32" fill="currentColor" viewBox="0 0 32 32">
  <path fill-rule="evenodd" d="M4 2a2 2 0 0 0-2 2v23a3 3 0 0 0 3 3h22a3 3 0 0 0 3-3V8.448c0-1.54-1.668-2.502-3.002-1.731L20 10.767V8.493c0-1.56-1.707-2.52-3.04-1.708L10.5 10.72V4a2 2 0 0 0-2-2H4Zm21 26h2a1 1 0 0 0 1-1V8.448l-6.998 4.05c-1.334.77-3.002-.191-3.002-1.732V8.494l-6.46 3.934c-1.332.812-3.04-.147-3.04-1.708V4H4v23a1 1 0 0 0 1 1h11v-8a2 2 0 0 1 2-2h5a2 2 0 0 1 2 2v8Zm-7 0h5v-8h-5v8Z" clip-rule="evenodd"/>
</svg>
