<svg xmlns="http://www.w3.org/2000/svg" width="32" height="32" fill="currentColor" viewBox="0 0 32 32">
  <path fill-rule="evenodd" d="M3.933 16C3.933 9.336 9.336 3.933 16 3.933c6.664 0 12.067 5.403 12.067 12.067 0 6.664-5.403 12.067-12.067 12.067-6.664 0-12.067-5.403-12.067-12.067ZM16 1.933C8.231 1.933 1.933 8.231 1.933 16S8.231 30.067 16 30.067 30.067 23.769 30.067 16 23.769 1.933 16 1.933ZM17 10a1 1 0 1 1-2 0 1 1 0 0 1 2 0Zm-1 3a1 1 0 0 1 1 1v8a1 1 0 1 1-2 0v-8a1 1 0 0 1 1-1Z" clip-rule="evenodd"/>
</svg>
