<svg xmlns="http://www.w3.org/2000/svg" width="32" height="32" fill="currentColor" viewBox="0 0 32 32">
  <path fill-rule="evenodd" d="M14.315 2c-.948 0-1.722.776-1.722 1.723v1.703c-.574.185-1.129.414-1.66.687L9.736 4.914a1.726 1.726 0 0 0-2.436 0l-2.378 2.38c-.67.67-.67 1.766 0 2.436l1.198 1.2a11.06 11.06 0 0 0-.687 1.66h-1.71c-.949 0-1.723.777-1.723 1.724v3.372c0 .947.774 1.723 1.722 1.723h1.701c.185.575.415 1.13.688 1.662l-1.2 1.2a1.727 1.727 0 0 0 0 2.434l2.38 2.38c.67.671 1.765.671 2.435 0l1.198-1.198c.53.273 1.085.502 1.659.687v1.703c0 .947.774 1.723 1.722 1.723H15a1 1 0 1 0 0-2h-.417v-2.18a1 1 0 0 0-.76-.97 9.05 9.05 0 0 1-2.55-1.059 1 1 0 0 0-1.229.146l-1.536 1.538-1.985-1.987 1.537-1.539a1 1 0 0 0 .146-1.228 9.065 9.065 0 0 1-1.057-2.552 1 1 0 0 0-.971-.76H4v-2.818h2.187a1 1 0 0 0 .971-.76 9.065 9.065 0 0 1 1.058-2.552 1 1 0 0 0-.146-1.228L6.532 8.512l1.986-1.987 1.536 1.538a1 1 0 0 0 1.23.146 9.05 9.05 0 0 1 2.55-1.058 1 1 0 0 0 .759-.97V4H15a1 1 0 1 0 0-2h-.685ZM22 8a1 1 0 0 0-1 1v3h-6a1 1 0 0 0-.226.026c-1.375.124-2.339.688-2.954 1.474-.662.845-.82 1.82-.82 2.43 0 .605.156 1.605.804 2.48.688.928 1.84 1.59 3.556 1.59H21v3a1 1 0 0 0 1 1h2.17a3.001 3.001 0 1 0 0-2H23v-3a1 1 0 0 0-1-1h-6.64c-1.143 0-1.672-.408-1.949-.781-.317-.428-.411-.964-.411-1.289 0-.32.092-.81.395-1.197.266-.34.796-.733 1.965-.733H22a1 1 0 0 0 1-1v-3h1c.056 0 .112-.005.166-.014A3.001 3.001 0 0 0 30 9a3 3 0 0 0-5.834-.986A1.007 1.007 0 0 0 24 8h-2Zm4 15a1 1 0 1 0 2 0 1 1 0 0 0-2 0ZM19.986 7.834c.01.054.014.11.014.166v2a1 1 0 0 1-1 1h-4c-1.906 0-3.12.828-3.887 1.85C10.313 13.915 10 15.201 10 16c0 .869.223 2.147.944 3.177.68.972 1.87 1.823 4.056 1.823h4a1 1 0 0 1 1 1v2c0 .056-.005.112-.014.166A3.001 3.001 0 0 1 19 30a3 3 0 0 1-.986-5.834A1.008 1.008 0 0 1 18 24v-1h-3c-2.813 0-4.625-1.149-5.694-2.677C8.276 18.854 8 17.131 8 16c0-1.201.436-2.915 1.512-4.35C10.621 10.172 12.406 9 15 9h3V8c0-.057.005-.112.014-.166A3.001 3.001 0 0 1 19 2a3 3 0 0 1 .986 5.834ZM14 16a1 1 0 0 1 1-1h9.17a3.001 3.001 0 1 1 0 2H15a1 1 0 0 1-1-1Zm4-11a1 1 0 1 1 2 0 1 1 0 0 1-2 0Zm9 3a1 1 0 1 0 0 2 1 1 0 0 0 0-2Zm-1 8a1 1 0 1 1 2 0 1 1 0 0 1-2 0Zm-7 10a1 1 0 1 0 0 2 1 1 0 0 0 0-2Z" clip-rule="evenodd"/>
</svg>
