<svg xmlns="http://www.w3.org/2000/svg" width="32" height="32" fill="currentColor" viewBox="0 0 32 32">
  <path fill-rule="evenodd" d="M12.593 3.723c0-.947.774-1.723 1.722-1.723H15a1 1 0 1 1 0 2h-.407v2.18a1 1 0 0 1-.76.97 9.05 9.05 0 0 0-2.55 1.059 1 1 0 0 1-1.229-.146L8.518 6.525 6.532 8.512l1.538 1.539a1 1 0 0 1 .146 1.228 9.065 9.065 0 0 0-1.058 2.552 1 1 0 0 1-.97.76H4v2.818h2.178a1 1 0 0 1 .97.76 9.065 9.065 0 0 0 1.058 2.552 1 1 0 0 1-.146 1.228l-1.537 1.539 1.985 1.987 1.537-1.538a1 1 0 0 1 1.229-.146 9.05 9.05 0 0 0 2.55 1.058 1 1 0 0 1 .759.97V28H15a1 1 0 1 1 0 2h-.695a1.728 1.728 0 0 1-1.722-1.723v-1.703a11.048 11.048 0 0 1-1.66-.687l-1.197 1.199c-.67.67-1.766.67-2.436 0l-2.378-2.38a1.727 1.727 0 0 1 0-2.436l1.199-1.2a11.06 11.06 0 0 1-.688-1.66h-1.7A1.728 1.728 0 0 1 2 17.685v-3.372c0-.947.774-1.723 1.722-1.723h1.71a11.2 11.2 0 0 1 .688-1.662l-1.198-1.2a1.727 1.727 0 0 1 0-2.434L7.3 4.915a1.726 1.726 0 0 1 2.436 0l1.197 1.198a11.047 11.047 0 0 1 1.66-.687V3.723Z" clip-rule="evenodd"/>
  <path fill-rule="evenodd" d="M21 9a1 1 0 0 1 1-1h2a1 1 0 1 1 0 2h-1v3a1 1 0 0 1-1 1h-7a1 1 0 1 1 0-2h6V9Z" clip-rule="evenodd"/>
  <path fill-rule="evenodd" d="M19 7a1 1 0 0 1 1 1v2a1 1 0 0 1-1 1h-4c-1.906 0-3.12.828-3.887 1.85C10.313 13.915 10 15.201 10 16c0 .869.223 2.147.944 3.177.68.972 1.87 1.823 4.056 1.823h4a1 1 0 0 1 1 1v2a1 1 0 1 1-2 0v-1h-3c-2.813 0-4.625-1.149-5.694-2.677C8.276 18.854 8 17.131 8 16c0-1.201.436-2.915 1.512-4.35C10.621 10.172 12.406 9 15 9h3V8a1 1 0 0 1 1-1Z" clip-rule="evenodd"/>
  <path fill-rule="evenodd" d="M11.82 13.5c.7-.893 1.85-1.5 3.54-1.5a1 1 0 1 1 0 2c-1.17 0-1.7.393-1.965.733-.303.387-.395.877-.395 1.197 0 .325.094.861.411 1.289.277.373.806.781 1.949.781H22a1 1 0 0 1 1 1v3h2a1 1 0 1 1 0 2h-3a1 1 0 0 1-1-1v-3h-5.64c-1.717 0-2.868-.662-3.556-1.59-.648-.875-.804-1.875-.804-2.48 0-.61.158-1.585.82-2.43Z" clip-rule="evenodd"/>
  <path fill-rule="evenodd" d="M14 16a1 1 0 0 1 1-1h9.5a1 1 0 1 1 0 2H15a1 1 0 0 1-1-1Zm5-12a1 1 0 1 0 0 2 1 1 0 0 0 0-2Zm-3 1a3 3 0 1 1 6 0 3 3 0 0 1-6 0Zm11 3a1 1 0 1 0 0 2 1 1 0 0 0 0-2Zm-3 1a3 3 0 1 1 6 0 3 3 0 0 1-6 0Z" clip-rule="evenodd"/>
  <path fill-rule="evenodd" d="M27 15a1 1 0 1 0 0 2 1 1 0 0 0 0-2Zm-3 1a3 3 0 1 1 6 0 3 3 0 0 1-6 0Zm-5 10a1 1 0 1 0 0 2 1 1 0 0 0 0-2Zm-3 1a3 3 0 1 1 6 0 3 3 0 0 1-6 0Zm11-5a1 1 0 1 0 0 2 1 1 0 0 0 0-2Zm-3 1a3 3 0 1 1 6 0 3 3 0 0 1-6 0Z" clip-rule="evenodd"/>
</svg>
