<svg xmlns="http://www.w3.org/2000/svg" width="32" height="32" fill="currentColor" viewBox="0 0 32 32">
  <path d="M18.727 2.988c.499-.918 1.661-1.281 2.591-.722l.001-.002 3.188 1.874.086.056a1 1 0 0 1-1.009 1.715l-.09-.047-3.073-1.806-1.093 1.989c-.362.659-1.113 1.109-1.946.957a8.483 8.483 0 0 0-2.779.002l-.002.001a1.855 1.855 0 0 1-1.856-.837l-.073-.123-1.093-1.987L8.387 5.99 9.52 8.058a1.97 1.97 0 0 1-.152 2.133l-.01.012a9.222 9.222 0 0 0-1.413 2.574v.003a1.877 1.877 0 0 1-1.76 1.244H4v3.953h2.187c.779 0 1.49.485 1.76 1.246l.134.351a9.42 9.42 0 0 0 1.28 2.226h.001a1.97 1.97 0 0 1 .16 2.142H9.52l-1.134 2.067 3.192 1.933 1.093-1.987.072-.12c.384-.592 1.092-.979 1.874-.837a8.475 8.475 0 0 0 2.778-.002h.003l.153-.02c.706-.055 1.34.31 1.699.853l.073.12.004.006 1.093 1.989 3.072-1.806a1 1 0 0 1 1.014 1.724l-3.188 1.874c-.927.55-2.084.199-2.592-.723v-.001l-1.116-2.027c-.523.08-1.06.127-1.611.127-.551 0-1.088-.046-1.612-.127l-1.11 2.017v.001c-.498.929-1.673 1.296-2.608.726l-3.365-2.038c-.903-.54-1.183-1.713-.687-2.614l1.14-2.083a11.384 11.384 0 0 1-1.663-3.017H3.89c-1.095 0-1.89-.922-1.89-1.937v-4.08c0-1.03.81-1.935 1.89-1.935h2.205a11.211 11.211 0 0 1 1.664-3.019L6.617 6.921V6.92a1.96 1.96 0 0 1 .678-2.605l.006-.003L10.67 2.27l.004-.002.176-.094a1.862 1.862 0 0 1 2.32.646l.103.166v.001l1.115 2.027A10.465 10.465 0 0 1 16 4.888c.55 0 1.088.045 1.611.127l1.116-2.027Zm-7.204 25.06.123.068-.123-.068Zm10.58-10.043A1 1 0 0 1 23 19v3h1.174A2.998 2.998 0 0 1 30 23a3 3 0 0 1-5.826 1H22a1 1 0 0 1-1-1v-3h-8a1 1 0 0 1 0-2h9l.102.005ZM27 22a1 1 0 1 0 0 2 1 1 0 0 0 0-2Zm0-9a3 3 0 1 1-2.826 4H17a1 1 0 0 1 0-2h7.174c.412-1.165 1.52-2 2.826-2Zm0 2a1 1 0 1 0 0 2 1 1 0 0 0 0-2Zm0-9a3 3 0 1 1-2.832 3.984A.929.929 0 0 1 24 10h-1v3a1 1 0 0 1-1 1h-9a1 1 0 0 1 0-2h8V9l.005-.102A1 1 0 0 1 22 8h2c.057 0 .113.005.168.015A2.999 2.999 0 0 1 27 6Zm0 2a1 1 0 1 0 0 2 1 1 0 0 0 0-2Z"/>
</svg>
