<svg xmlns="http://www.w3.org/2000/svg" width="33" height="32" fill="currentColor" viewBox="0 0 33 32">
  <path d="M11.37 4a1 1 0 1 1 0 2H5.938c-.884 0-1.568.698-1.568 1.52V19h24v-1a1 1 0 1 1 2 0v3.48c0 1.962-1.615 3.52-3.567 3.52H17.37v3h5a1 1 0 1 1 0 2h-12a1 1 0 0 1 0-2h5v-3H5.938c-1.953 0-3.568-1.558-3.568-3.52V7.52C2.37 5.558 3.985 4 5.937 4h5.433Zm-7 17.48c0 .822.684 1.52 1.567 1.52h20.866c.883 0 1.567-.698 1.567-1.52V21h-24v.48ZM21.37 2c4.407 0 8 3.593 8 8s-3.593 8-8 8-8-3.593-8-8 3.593-8 8-8Zm-1.964 9c.093 1.414.374 2.649.763 3.556.24.559.5.948.737 1.182.234.23.39.262.464.262.075 0 .23-.031.464-.262.238-.234.497-.623.737-1.182.39-.907.67-2.142.763-3.556h-3.928Zm-3.95 0a6.023 6.023 0 0 0 2.78 4.11c-.454-1.145-.747-2.567-.837-4.11h-1.944Zm9.885 0c-.09 1.543-.384 2.965-.837 4.11A6.023 6.023 0 0 0 27.285 11h-1.944Zm-7.106-6.111A6.024 6.024 0 0 0 15.455 9H17.4c.09-1.543.383-2.966.836-4.111ZM21.37 4c-.075 0-.23.031-.464.262-.237.234-.497.623-.737 1.182-.389.907-.67 2.142-.763 3.556h3.928c-.093-1.414-.374-2.649-.763-3.556-.24-.559-.5-.948-.737-1.182-.233-.23-.389-.262-.464-.262Zm3.134.889c.453 1.145.747 2.567.837 4.111h1.944a6.024 6.024 0 0 0-2.781-4.111Z"/>
</svg>
