<svg xmlns="http://www.w3.org/2000/svg" width="32" height="32" fill="currentColor" viewBox="0 0 32 32">
  <path d="M11 18a3 3 0 0 1 3 3v6a3 3 0 0 1-3 3H5a3 3 0 0 1-3-3v-6a3 3 0 0 1 3-3h6Zm15 0a3 3 0 0 1 3 3v6a3 3 0 0 1-3 3h-6a3 3 0 0 1-3-3v-6a3 3 0 0 1 3-3h6ZM5 20a1 1 0 0 0-1 1v6a1 1 0 0 0 1 1h6a1 1 0 0 0 1-1v-6a1 1 0 0 0-1-1H9v2a1 1 0 1 1-2 0v-2H5Zm15 0a1 1 0 0 0-1 1v6a1 1 0 0 0 1 1h6a1 1 0 0 0 1-1v-6a1 1 0 0 0-1-1h-2v2a1 1 0 1 1-2 0v-2h-2Zm3-17a7 7 0 1 1 0 14 7 7 0 0 1-7-7 7 7 0 0 1 7-7ZM11 4a3 3 0 0 1 3 3v6a3 3 0 0 1-3 3H5a3 3 0 0 1-3-3V7a3 3 0 0 1 3-3h6Zm12 1a5 5 0 0 0-5 5 5 5 0 1 0 10 0 5 5 0 0 0-5-5ZM5 6a1 1 0 0 0-1 1v6a1 1 0 0 0 1 1h6a1 1 0 0 0 1-1V7a1 1 0 0 0-1-1H9v2a1 1 0 1 1-2 0V6H5Zm19.18 1.426a1 1 0 0 1 1.64 1.148l-2.804 4a1 1 0 0 1-1.64-.003l-1.196-1.716a1 1 0 0 1 1.64-1.144l.378.543 1.983-2.828Z"/>
</svg>
