<svg xmlns="http://www.w3.org/2000/svg" width="32" height="32" fill="currentColor" viewBox="0 0 32 32">
  <path fill-rule="evenodd" d="M11 18a3 3 0 0 1 3 3v6a3 3 0 0 1-3 3H5a3 3 0 0 1-3-3v-6a3 3 0 0 1 3-3h6Zm-6 2a1 1 0 0 0-1 1v6a1 1 0 0 0 1 1h6a1 1 0 0 0 1-1v-6a1 1 0 0 0-1-1H9v2a1 1 0 0 1-2 0v-2H5Zm20-2a3 3 0 0 1 3 3v6a3 3 0 0 1-3 3h-6a3 3 0 0 1-3-3v-6a3 3 0 0 1 3-3h6Zm-6 2a1 1 0 0 0-1 1v6a1 1 0 0 0 1 1h6a1 1 0 0 0 1-1v-6a1 1 0 0 0-1-1h-2v2a1 1 0 0 1-2 0v-2h-2Zm4-14a3 3 0 1 1 0 6 3 3 0 0 1 0-6Zm0 2a1 1 0 1 0 0 2 1 1 0 0 0 0-2Z" clip-rule="evenodd"/>
  <path fill-rule="evenodd" d="M23.932 1.441a1 1 0 0 1 1.293-.327l3.061 1.602a1 1 0 0 1 .425 1.346l-.519 1c.248.333.46.686.638 1.053l1.217.058a1 1 0 0 1 .953.999v3.354a1 1 0 0 1-.968 1l-1.053.034a6.41 6.41 0 0 1-.25.528l-.003.007a7.283 7.283 0 0 1-.308.513l.652 1.124a1 1 0 0 1-.374 1.373l-3.14 1.767a1.002 1.002 0 0 1-1.385-.428l-.472-.949c-.355.04-.715.052-1.077.031l-.5.939a1 1 0 0 1-1.347.415l-3.09-1.617a1.002 1.002 0 0 1-.416-1.362l.53-.982a6.544 6.544 0 0 1-.604-.99l-1.056.036a1.001 1.001 0 0 1-1.033-.97L15 7.497a1 1 0 0 1 .968-1.03l1.052-.034a6.18 6.18 0 0 1 .254-.535 7.31 7.31 0 0 1 .297-.498l-.556-.908a1 1 0 0 1 .323-1.372l2.955-1.843a1 1 0 0 1 1.38.325l.558.903a6.32 6.32 0 0 1 1.146-.04l.502-.937.053-.087Zm.89 2.567a1 1 0 0 1-1.057.513 4.313 4.313 0 0 0-1.788.061 1 1 0 0 1-1.091-.446l-.389-.63-1.259.785.389.634c.225.366.191.836-.085 1.166a4.49 4.49 0 0 0-.855 1.608 1 1 0 0 1-.924.711l-.734.024.046 1.499.735-.024.159.008a1 1 0 0 1 .811.648c.212.577.53 1.106.95 1.554a1 1 0 0 1 .149 1.158l-.37.683 1.315.688.355-.662.087-.134a1 1 0 0 1 .97-.38c.598.107 1.21.082 1.787-.06a.998.998 0 0 1 1.136.525l.334.674 1.338-.752-.47-.811a1 1 0 0 1 .097-1.145 4.6 4.6 0 0 0 .507-.757c.146-.273.259-.556.348-.851l.057-.149a1 1 0 0 1 .867-.563L29 9.558V8.125l-.889-.042a1 1 0 0 1-.891-.654 4.562 4.562 0 0 0-.95-1.554 1.001 1.001 0 0 1-.158-1.144l.365-.705-1.302-.681-.354.663ZM11 4a3 3 0 0 1 3 3v6a3 3 0 0 1-3 3H5a3 3 0 0 1-3-3V7a3 3 0 0 1 3-3h6ZM5 6a1 1 0 0 0-1 1v6a1 1 0 0 0 1 1h6a1 1 0 0 0 1-1V7a1 1 0 0 0-1-1H9v2a1 1 0 0 1-2 0V6H5Z" clip-rule="evenodd"/>
</svg>
