<svg xmlns="http://www.w3.org/2000/svg" width="32" height="32" fill="currentColor" viewBox="0 0 32 32">
  <path fill-rule="evenodd" d="M11 17a3 3 0 0 1 3 3v6a3 3 0 0 1-3 3H5a3 3 0 0 1-3-3v-6a3 3 0 0 1 3-3h6Zm-6 2a1 1 0 0 0-1 1v6a1 1 0 0 0 1 1h6a1 1 0 0 0 1-1v-6a1 1 0 0 0-1-1H9v2a1 1 0 1 1-2 0v-2H5Zm21-2a3 3 0 0 1 3 3v6a3 3 0 0 1-3 3h-6a3 3 0 0 1-3-3v-6a3 3 0 0 1 3-3h6Zm-6 2a1 1 0 0 0-1 1v6a1 1 0 0 0 1 1h6a1 1 0 0 0 1-1v-6a1 1 0 0 0-1-1h-2v2a1 1 0 1 1-2 0v-2h-2ZM11 3a3 3 0 0 1 3 3v6a3 3 0 0 1-3 3H5a3 3 0 0 1-3-3V6a3 3 0 0 1 3-3h6ZM5 5a1 1 0 0 0-1 1v6a1 1 0 0 0 1 1h6a1 1 0 0 0 1-1V6a1 1 0 0 0-1-1H9v2a1 1 0 1 1-2 0V5H5Z" clip-rule="evenodd"/>
  <path d="M23 7.5a1.5 1.5 0 1 1 0 3 1.5 1.5 0 0 1 0-3Z"/>
  <path fill-rule="evenodd" d="M23 4c2.255 0 4.464 1.111 5.975 3.24l.84 1.183a1 1 0 0 1 0 1.158l-.84 1.183C27.462 12.892 25.252 14 22.998 14c-2.113 0-4.187-.975-5.683-2.85l-.29-.386-.84-1.183a1 1 0 0 1 0-1.158l.84-1.183C18.534 5.11 20.744 4 23 4Zm0 2c-1.572 0-3.19.768-4.345 2.397l-.428.605.428.603C19.81 11.232 21.426 12 22.998 12s3.19-.767 4.347-2.395l.428-.603-.428-.604C26.189 6.77 24.572 6 23 6Z" clip-rule="evenodd"/>
</svg>
