<svg xmlns="http://www.w3.org/2000/svg" width="32" height="32" fill="currentColor" viewBox="0 0 32 32">
  <path d="M11 18a3 3 0 0 1 3 3v6a3 3 0 0 1-3 3H5a3 3 0 0 1-3-3v-6a3 3 0 0 1 3-3h6Zm14 0a3 3 0 0 1 3 3v6a3 3 0 0 1-3 3h-6a3 3 0 0 1-3-3v-6a3 3 0 0 1 3-3h6ZM5 20a1 1 0 0 0-1 1v6a1 1 0 0 0 1 1h6a1 1 0 0 0 1-1v-6a1 1 0 0 0-1-1H9v2a1 1 0 1 1-2 0v-2H5Zm14 0a1 1 0 0 0-1 1v6a1 1 0 0 0 1 1h6a1 1 0 0 0 1-1v-6a1 1 0 0 0-1-1h-2v2a1 1 0 1 1-2 0v-2h-2Zm3-17a6 6 0 0 1 4.889 9.475l2.818 2.818a1 1 0 1 1-1.414 1.414l-2.818-2.818A6 6 0 1 1 22 3ZM11 4a3 3 0 0 1 3 3v6a3 3 0 0 1-3 3H5a3 3 0 0 1-3-3V7a3 3 0 0 1 3-3h6ZM5 6a1 1 0 0 0-1 1v6a1 1 0 0 0 1 1h6a1 1 0 0 0 1-1V7a1 1 0 0 0-1-1H9v2a1 1 0 0 1-2 0V6H5Zm17-1a4 4 0 1 0 0 8 4 4 0 0 0 0-8Z"/>
</svg>
