<svg xmlns="http://www.w3.org/2000/svg" width="32" height="32" fill="currentColor" viewBox="0 0 32 32">
  <path d="M11 18a3 3 0 0 1 3 3v6a3 3 0 0 1-3 3H5a3 3 0 0 1-3-3v-6a3 3 0 0 1 3-3h6Zm15 0a3 3 0 0 1 3 3v6a3 3 0 0 1-3 3h-6a3 3 0 0 1-3-3v-6a3 3 0 0 1 3-3h6ZM5 20a1 1 0 0 0-1 1v6a1 1 0 0 0 1 1h6a1 1 0 0 0 1-1v-6a1 1 0 0 0-1-1H9v2a1 1 0 1 1-2 0v-2H5Zm15 0a1 1 0 0 0-1 1v6a1 1 0 0 0 1 1h6a1 1 0 0 0 1-1v-6a1 1 0 0 0-1-1h-2v2a1 1 0 1 1-2 0v-2h-2Zm8-17a1 1 0 0 1 1 1v3a1 1 0 0 1-1 1h-3a1 1 0 1 1 0-2h1.001A5.001 5.001 0 0 0 18 10a4.97 4.97 0 0 0 .977 2.966h.002A4.994 4.994 0 0 0 23 15c2.76 0 5-2.24 5-5a1 1 0 1 1 2 0c0 3.865-3.135 7-7 7a6.994 6.994 0 0 1-5.63-2.844A6.967 6.967 0 0 1 16 10a7.001 7.001 0 0 1 11-5.744V4a1 1 0 0 1 1-1ZM11 4a3 3 0 0 1 3 3v6a3 3 0 0 1-3 3H5a3 3 0 0 1-3-3V7a3 3 0 0 1 3-3h6ZM5 6a1 1 0 0 0-1 1v6a1 1 0 0 0 1 1h6a1 1 0 0 0 1-1V7a1 1 0 0 0-1-1H9v2a1 1 0 1 1-2 0V6H5Z"/>
</svg>
