<svg xmlns="http://www.w3.org/2000/svg" width="32" height="32" fill="currentColor" viewBox="0 0 32 32">
  <path d="M17 2a5 5 0 0 1 5 5v3a1 1 0 1 1-2 0V7a3 3 0 0 0-3-3H7a3 3 0 0 0-3 3v4h12a1 1 0 1 1 0 2H4v6h12l.102.005a1 1 0 0 1 0 1.99L16 21H4v4a3 3 0 0 0 3 3h9a1 1 0 1 1 0 2H7a5 5 0 0 1-5-5V7a5 5 0 0 1 5-5h10Zm4 10a2.998 2.998 0 0 1 1 5.825V20h2.174A2.998 2.998 0 0 1 30 21a3 3 0 0 1-5.826 1H22v2.174A2.998 2.998 0 0 1 21 30a3 3 0 0 1-1-5.826v-6.349A2.998 2.998 0 0 1 21 12Zm0 14a1 1 0 1 0 0 2 1 1 0 0 0 0-2ZM7 23a1 1 0 1 1 0 2 1 1 0 0 1 0-2Zm20-3a1 1 0 1 0 0 2 1 1 0 0 0 0-2ZM7 15a1 1 0 1 1 0 2 1 1 0 0 1 0-2Zm14-1a1 1 0 1 0 0 2 1 1 0 0 0 0-2ZM7 7a1 1 0 1 1 0 2 1 1 0 0 1 0-2Z"/>
</svg>
