<svg xmlns="http://www.w3.org/2000/svg" width="32" height="32" fill="none" viewBox="0 0 32 32">
  <path fill="#3D3C3C" fill-rule="evenodd" d="M13.269 6.616c2.849-3.192 7.817-3.509 11.074-.698 2.601 2.245 3.316 5.726 2.041 8.686a1 1 0 1 0 1.837.791c1.616-3.751.7-8.168-2.571-10.99-4.078-3.52-10.292-3.132-13.873.88a9.565 9.565 0 0 0-1.957 9.434L2.254 23.18a1 1 0 0 0-.254.667V29a1 1 0 0 0 1 1h5.95a1 1 0 0 0 .997-.925l.191-2.563 2.193-.202a1 1 0 0 0 .909-.995v-2.218l1.064-.144a1 1 0 0 0-.268-1.982l-1.93.261a1 1 0 0 0-.866.991v2.18l-2.127.194a1 1 0 0 0-.906.922L8.02 28H4v-3.77l7.713-8.627a1 1 0 0 0 .18-1.046 7.567 7.567 0 0 1 1.375-7.94Zm9.734 6.02c1.458-1.654 1.302-4.19-.369-5.638a3.982 3.982 0 0 0-5.64.369c-1.465 1.662-1.284 4.197.367 5.647.049.043.1.08.155.112a3.979 3.979 0 0 0 5.487-.49ZM18.5 8.682a1.982 1.982 0 0 1 2.811-.183l.01.009a1.98 1.98 0 0 1 .179 2.807l-.006.007a1.978 1.978 0 0 1-2.8.182.998.998 0 0 0-.115-.087 2.003 2.003 0 0 1-.084-2.729l.005-.006Zm-6.758 10.987a1 1 0 1 0-1.486-1.338l-4.5 5a1 1 0 0 0 1.486 1.338l4.5-5Zm10.92-3.497a23.268 23.268 0 0 0 4.314 1.798l.012.003c.55.169 1.011.675 1.011 1.342v5.137c0 .863-.384 1.613-.849 2.21-.467.601-1.075 1.123-1.669 1.555-1.188.862-2.473 1.465-2.918 1.664l-.018.008c-.35.148-.741.148-1.092 0l-.016-.007c-.449-.2-1.734-.803-2.922-1.666-.594-.43-1.2-.953-1.668-1.554-.464-.597-.848-1.348-.848-2.21v-5.133c0-.648.443-1.177 1.022-1.345a23.15 23.15 0 0 0 4.308-1.801c.415-.23.919-.23 1.333-.001ZM22 18.084a25.669 25.669 0 0 0 4 1.677v4.69c0 .256-.116.582-.427.983-.309.397-.754.793-1.266 1.164-.855.62-1.79 1.098-2.307 1.341-.517-.243-1.454-.72-2.309-1.341-.511-.371-.956-.767-1.264-1.164-.311-.4-.427-.726-.427-.982v-4.688a25.351 25.351 0 0 0 3.999-1.68Z" clip-rule="evenodd"/>
</svg>
