<svg xmlns="http://www.w3.org/2000/svg" width="32" height="32" fill="currentColor" viewBox="0 0 32 32">
  <path fill-rule="evenodd" d="M22.634 6.998c1.67 1.447 1.827 3.984.369 5.638a3.979 3.979 0 0 1-5.487.49 1.01 1.01 0 0 1-.155-.112c-1.651-1.45-1.832-3.985-.367-5.647a3.982 3.982 0 0 1 5.64-.369ZM21.312 8.5a1.982 1.982 0 0 0-2.81.183l-.006.006a2.003 2.003 0 0 0 .084 2.729c.04.026.078.055.114.087.823.73 2.087.642 2.8-.182l.007-.007a1.981 1.981 0 0 0-.179-2.807l-.01-.009Z" clip-rule="evenodd"/>
  <path fill-rule="evenodd" d="M24.058 5.86c-3.217-2.82-8.12-2.504-10.938.702a7.718 7.718 0 0 0-1.363 8 1 1 0 0 1-.177 1.035l-7.637 8.676v3.803h3.96l.184-2.499a1 1 0 0 1 .904-.922l2.098-.196v-2.196a1 1 0 0 1 .885-.994l2.68-.31 1.323-1.504a1 1 0 0 1 1.002-.307 7.772 7.772 0 0 0 7.782-2.372 7.724 7.724 0 0 0-.703-10.916Zm-12.44-.619c3.548-4.037 9.714-4.43 13.758-.885 4.048 3.548 4.442 9.697.886 13.742l-.002.001a9.766 9.766 0 0 1-9.173 3.122l-1.186 1.348a1 1 0 0 1-.635.332l-2.177.253v2.217a1 1 0 0 1-.907.995l-2.163.202-.19 2.581a1 1 0 0 1-.997.927h-5.89a1 1 0 0 1-1-1v-5.18a1 1 0 0 1 .25-.66l7.494-8.515a9.713 9.713 0 0 1 1.932-9.48Z" clip-rule="evenodd"/>
  <path fill-rule="evenodd" d="M11.669 18.257a1 1 0 0 1 .074 1.412l-4.5 5a1 1 0 1 1-1.486-1.338l4.5-5a1 1 0 0 1 1.412-.074Z" clip-rule="evenodd"/>
</svg>
