<svg xmlns="http://www.w3.org/2000/svg" width="32" height="32" fill="currentColor" viewBox="0 0 32 32">
  <path d="M22.821 15.173c.42-.229.928-.23 1.349-.002v-.001a26.25 26.25 0 0 0 4.445 1.86l.328.099.012.004c.56.17 1.045.683 1.045 1.375v5.565c0 .914-.413 1.711-.917 2.349-.507.642-1.168 1.202-1.817 1.666-1.3.928-2.705 1.579-3.192 1.793l-.017.008a1.444 1.444 0 0 1-1.114 0l-.015-.007c-.491-.215-1.897-.865-3.196-1.794-.648-.464-1.31-1.024-1.816-1.666-.503-.638-.916-1.435-.916-2.349v-5.56c0-.677.47-1.216 1.065-1.382a25.788 25.788 0 0 0 4.756-1.96v.002Zm.677 1.902A27.909 27.909 0 0 1 19 18.933v5.14c0 .298.137.667.486 1.11.347.438.843.873 1.41 1.278.973.696 2.042 1.225 2.603 1.482.56-.258 1.63-.786 2.604-1.482.567-.405 1.064-.84 1.41-1.28.35-.442.487-.81.487-1.108v-5.14a28.328 28.328 0 0 1-4.502-1.858ZM3 15a1 1 0 0 1 1 1v8h8a1 1 0 1 1 0 2H4a2 2 0 0 1-2-2v-8a1 1 0 0 1 1-1Zm22.247 5.342a1 1 0 0 1 1.506 1.316l-3.501 4a1.002 1.002 0 0 1-1.506 0l-1.499-1.712a1 1 0 0 1 1.506-1.317l.746.852 2.748-3.14ZM15 15a1 1 0 1 1 0 2h-4.578c-.867 0-1.424.628-1.422 1.241L9.015 20H15a1 1 0 1 1 0 2H8.023a1 1 0 0 1-1-.991L7 18.259v-.003C6.989 16.385 8.598 15 10.422 15H15Zm-1-9a4 4 0 1 1 0 8 4 4 0 0 1 0-8Zm-2-4a1 1 0 1 1 0 2H4v8a1 1 0 1 1-2 0V4a2 2 0 0 1 2-2h8Zm12 0a2 2 0 0 1 2 2v8a1 1 0 1 1-2 0V4h-8a1 1 0 1 1 0-2h8ZM14 8a2 2 0 1 0 0 4 2 2 0 0 0 0-4Z"/>
</svg>
