<svg xmlns="http://www.w3.org/2000/svg" width="32" height="32" fill="currentColor" viewBox="0 0 32 32">
  <path d="M9.785 3.03c1.42-.18 3.055.45 3.806 2.31 1.942 4.814 5.575 14.463 7.646 19.962.341.908.914 1.436 1.541 1.62.625.181 1.524.086 2.644-.708a1 1 0 0 1 1.156 1.633c-1.47 1.042-2.995 1.392-4.36.994-1.36-.396-2.342-1.475-2.854-2.835a2207.38 2207.38 0 0 0-5.242-13.82l-7.208 16.22a1.001 1.001 0 0 1-1.828-.812l8-18 .04.018c-.517-1.33-.989-2.53-1.39-3.524-.37-.916-1.066-1.154-1.698-1.074a1.6 1.6 0 0 0-.818.339c-.186.159-.22.29-.22.361a1 1 0 0 1-2 0c0-.796.41-1.445.922-1.883a3.59 3.59 0 0 1 1.863-.8Z"/>
</svg>
