<svg xmlns="http://www.w3.org/2000/svg" width="32" height="32" fill="currentColor" viewBox="0 0 32 32">
  <path d="M6 18h20V7H6v11Zm22 1a1 1 0 0 1-1 1H5a1 1 0 0 1-1-1V6.483C4 5.703 4.62 5 5.465 5h21.07C27.38 5 28 5.702 28 6.483V19Z"/>
  <path d="M17 8a1 1 0 1 1 0 2h-2a1 1 0 1 1 0-2h2Zm9.756 10a1 1 0 0 1 .938.653l2.19 5.931c.446 1.202-.459 2.325-1.595 2.407l-.02.004-.102.005H3.842c-1.196 0-2.189-1.176-1.726-2.414l2.19-5.933.065-.14A1 1 0 0 1 5.244 18h21.512ZM4.094 25h23.812l-1.846-5H5.94l-1.846 5Z"/>
</svg>
