<svg xmlns="http://www.w3.org/2000/svg" width="32" height="32" fill="currentColor" viewBox="0 0 32 32">
  <path fill-rule="evenodd" d="M18 2a1 1 0 1 0 0 2h8.586L14.293 16.293a1 1 0 0 0 1.414 1.414L28 5.414V14a1 1 0 1 0 2 0V5a3 3 0 0 0-3-3h-9ZM2 7.998A3.994 3.994 0 0 1 5.998 4h6.004a1 1 0 1 1 0 2H5.998A1.994 1.994 0 0 0 4 7.998v18.004C4 27.108 4.892 28 5.998 28h18.004A1.994 1.994 0 0 0 26 26.002v-6.004a1 1 0 1 1 2 0v6.004A3.994 3.994 0 0 1 24.002 30H5.998A3.994 3.994 0 0 1 2 26.002V7.998Z" clip-rule="evenodd"/>
</svg>
