<svg xmlns="http://www.w3.org/2000/svg" width="32" height="32" fill="currentColor" viewBox="0 0 32 32">
  <path fill-rule="evenodd" d="M2 7.998A3.994 3.994 0 0 1 5.998 4h6.004a1 1 0 1 1 0 2H5.998A1.994 1.994 0 0 0 4 7.998v18.004C4 27.108 4.892 28 5.998 28h18.004A1.994 1.994 0 0 0 26 26.002v-6.004a1 1 0 1 1 2 0v6.004A3.994 3.994 0 0 1 24.002 30H5.998A3.994 3.994 0 0 1 2 26.002V7.998Z" clip-rule="evenodd"/>
  <path fill-rule="evenodd" d="M28.707 3.293a1 1 0 0 1 0 1.414l-13 13a1 1 0 0 1-1.414-1.414l13-13a1 1 0 0 1 1.414 0Z" clip-rule="evenodd"/>
  <path fill-rule="evenodd" d="M17 3a1 1 0 0 1 1-1h9a3 3 0 0 1 3 3v9a1 1 0 1 1-2 0V5a1 1 0 0 0-1-1h-9a1 1 0 0 1-1-1Z" clip-rule="evenodd"/>
</svg>
