<svg xmlns="http://www.w3.org/2000/svg" width="32" height="32" fill="currentColor" viewBox="0 0 32 32">
  <path d="M16.999 3a1 1 0 1 0-2 0v2a1 1 0 1 0 2 0V3ZM2 16a1 1 0 0 1 1-1h2a1 1 0 1 1 0 2H3a1 1 0 0 1-1-1Zm24 0a1 1 0 0 1 1-1h2a1 1 0 1 1 0 2h-2a1 1 0 0 1-1-1Zm.158-9.695a1 1 0 0 1-.025 1.414l-1.438 1.39a1 1 0 1 1-1.39-1.439l1.439-1.39a1 1 0 0 1 1.414.025Zm-.025 17.365a1 1 0 0 1-1.389 1.439l-1.439-1.39a1 1 0 1 1 1.39-1.438l1.438 1.389ZM5.28 6.305a1 1 0 0 0 .025 1.414l1.439 1.39a1 1 0 1 0 1.39-1.439l-1.44-1.39a1 1 0 0 0-1.413.025Zm.025 17.365a1 1 0 0 0 1.39 1.439l1.438-1.39a1 1 0 0 0-1.389-1.438L5.305 23.67Z"/>
  <path fill-rule="evenodd" d="M15.938 7C20.352 6.965 24 10.432 24 14.777c0 2.337-1.067 4.42-2.72 5.836a3.347 3.347 0 0 0-1.182 2.537c0 .231-.042.45-.118.65a1 1 0 0 1 .02.2v3.166C20 28.76 18.675 30 17.107 30h-2.214C13.325 30 12 28.761 12 27.166V24c0-.06.005-.12.016-.177a1.832 1.832 0 0 1-.127-.673c0-.961-.424-1.884-1.182-2.537-1.65-1.413-2.7-3.489-2.707-5.807l2.624-2.58A5.554 5.554 0 0 0 10 14.798c.005 1.703.774 3.239 2.008 4.296l.002.001A5.351 5.351 0 0 1 13.887 23H18.1a5.351 5.351 0 0 1 1.877-3.904l.002-.001C21.221 18.029 22 16.487 22 14.778 22 11.6 19.317 8.973 15.954 9a6.128 6.128 0 0 0-2.713.652L15.938 7ZM18 25h-4v2.166c0 .431.37.834.893.834h2.214c.524 0 .893-.402.893-.834V25Z" clip-rule="evenodd"/>
  <path fill-rule="evenodd" d="M13.241 9.652 15.938 7C11.58 7.035 7.985 10.507 8 14.806l2.624-2.58a5.962 5.962 0 0 1 2.617-2.574Z" clip-rule="evenodd"/>
</svg>
