<svg xmlns="http://www.w3.org/2000/svg" width="32" height="32" fill="currentColor" viewBox="0 0 32 32">
  <path fill-rule="evenodd" d="M7.91 12.08c0-4.503 3.63-8.147 8.09-8.147s8.09 3.644 8.09 8.147c0 3.593-2.11 7.62-4.366 10.862A46.75 46.75 0 0 1 16 27.607a46.728 46.728 0 0 1-3.725-4.665C10.02 19.701 7.91 15.672 7.91 12.08Zm7.38 17.691.71-.704.71.705a1 1 0 0 1-1.42 0Zm0 0 .71-.704.71.704.002-.002.006-.006.022-.023.081-.083c.07-.073.171-.178.3-.315a48.735 48.735 0 0 0 4.246-5.257c2.29-3.293 4.724-7.758 4.724-12.005C26.09 6.484 21.576 1.933 16 1.933S5.91 6.484 5.91 12.08c0 4.247 2.433 8.712 4.724 12.004a48.756 48.756 0 0 0 4.245 5.258c.129.137.23.242.3.315l.08.083.023.023.006.006.002.002ZM13 11a3 3 0 1 1 6 0 3 3 0 0 1-6 0Zm3-5a5 5 0 1 0 0 10 5 5 0 0 0 0-10Z" clip-rule="evenodd"/>
</svg>
