<svg xmlns="http://www.w3.org/2000/svg" width="32" height="32" fill="currentColor" viewBox="0 0 32 32">
  <path fill-rule="evenodd" d="M16 3.933c-4.46 0-8.09 3.644-8.09 8.147 0 3.593 2.11 7.62 4.365 10.862A46.728 46.728 0 0 0 16 27.607a46.75 46.75 0 0 0 3.724-4.665c2.256-3.241 4.367-7.27 4.367-10.862 0-4.503-3.63-8.147-8.091-8.147Zm0 25.134-.71.704-.002-.002-.006-.006-.022-.023-.081-.083a43.049 43.049 0 0 1-1.354-1.486c-.87-1-2.03-2.416-3.191-4.087-2.29-3.292-4.725-7.757-4.725-12.004C5.91 6.484 10.424 1.933 16 1.933S26.09 6.484 26.09 12.08c0 4.247-2.433 8.712-4.724 12.004a48.735 48.735 0 0 1-4.245 5.258 28.337 28.337 0 0 1-.38.398l-.023.023-.006.006-.002.002-.71-.704Zm0 0 .71.705a1 1 0 0 1-1.42 0l.71-.705Z" clip-rule="evenodd"/>
  <path fill-rule="evenodd" d="M16 8a3 3 0 1 0 0 6 3 3 0 0 0 0-6Zm-5 3a5 5 0 1 1 10 0 5 5 0 0 1-10 0Z" clip-rule="evenodd"/>
</svg>
