<svg xmlns="http://www.w3.org/2000/svg" width="32" height="32" fill="currentColor" viewBox="0 0 32 32">
  <path d="M24.2 27.591c-4.85.545-11.55.545-16.4 0a.897.897 0 0 1-.8-.902V14.311c0-.456.34-.843.8-.902 4.85-.545 11.55-.545 16.4 0 .46.05.8.436.8.902v12.378c0 .456-.34.843-.8.902Z"/>
  <path d="M24 14.393c-4.74-.524-11.26-.524-16 0v12.213c4.74.524 11.26.524 16 0V14.393Zm2 12.296c0 .965-.72 1.77-1.672 1.894l-.017.002c-4.924.553-11.698.553-16.623 0A1.897 1.897 0 0 1 6 26.689V14.31c0-.964.72-1.77 1.672-1.893l.016-.002c4.925-.553 11.7-.553 16.623 0v.001A1.895 1.895 0 0 1 26 14.31v12.38Z"/>
  <path d="M21 12v-1.479c0-1.548-.578-2.934-1.495-3.93-.917-.994-2.162-1.59-3.51-1.591C13.318 5 11 7.394 11 10.521V12a1 1 0 1 1-2 0v-1.479C9 6.451 12.059 3 15.995 3c1.959 0 3.722.87 4.98 2.236C22.236 6.602 23 8.472 23 10.521V12a1 1 0 1 1-2 0Z"/>
</svg>
