<svg xmlns="http://www.w3.org/2000/svg" width="32" height="32" fill="currentColor" viewBox="0 0 32 32">
  <path fill-rule="evenodd" d="M9 16.355v11.29c4.162.473 9.838.473 14 0v-11.29c-4.162-.473-9.838-.473-14 0Zm14.404-1.967c-4.389-.518-10.422-.517-14.81 0l-.017.003C7.64 14.518 7 15.329 7 16.223v11.554c0 .89.632 1.724 1.596 1.835 4.389.518 10.422.517 14.81 0l.017-.003c.936-.127 1.577-.938 1.577-1.832V16.223c0-.89-.633-1.724-1.596-1.835ZM15.996 5C13.772 5 12 6.764 12 8.891V10a1 1 0 1 1-2 0V8.891C10 5.62 12.708 3 15.996 3c1.647 0 3.149.658 4.236 1.72A5.813 5.813 0 0 1 22 8.891V10a1 1 0 1 1-2 0V8.891c0-1.065-.44-2.032-1.165-2.74A4.056 4.056 0 0 0 15.995 5Z" clip-rule="evenodd"/>
</svg>
