<svg xmlns="http://www.w3.org/2000/svg" width="32" height="32" fill="currentColor" viewBox="0 0 32 32">
  <path fill-rule="evenodd" d="M11 10.521C11 7.394 13.318 5 15.995 5c1.347 0 2.592.596 3.51 1.592.917.995 1.495 2.38 1.495 3.93V12a1 1 0 0 0 .01.14 89.499 89.499 0 0 0-10.02 0A1 1 0 0 0 11 12v-1.479Zm-1.96 1.76A1 1 0 0 1 9 12v-1.479C9 6.451 12.058 3 15.995 3c1.959 0 3.722.87 4.98 2.236C22.234 6.602 23 8.472 23 10.521V12a.987.987 0 0 1-.04.28c.463.041.913.086 1.35.135.98.107 1.69.933 1.69 1.896v12.378c0 .965-.719 1.77-1.672 1.894l-.016.002c-4.924.553-11.698.553-16.622 0A1.897 1.897 0 0 1 6 26.69V14.311c0-.965.719-1.77 1.672-1.894l.016-.002a53.4 53.4 0 0 1 1.352-.134ZM8 26.607V14.393c4.74-.524 11.26-.524 16 0v12.214c-4.74.524-11.26.524-16 0Z" clip-rule="evenodd"/>
</svg>
