<svg xmlns="http://www.w3.org/2000/svg" width="32" height="32" fill="currentColor" viewBox="0 0 32 32">
  <path d="M14 4a1 1 0 1 1 0 2H5.567C4.684 6 4 6.698 4 7.52V19h24v-1a1 1 0 1 1 2 0v3.48c0 1.962-1.615 3.52-3.567 3.52H17v3h5a1 1 0 1 1 0 2H10a1 1 0 1 1 0-2h5v-3H5.567C3.615 25 2 23.442 2 21.48V7.52C2 5.558 3.615 4 5.567 4H14ZM4 21v.48c0 .822.684 1.52 1.567 1.52h20.866c.883 0 1.567-.698 1.567-1.52V21H4Zm20-11a1 1 0 1 1 0 2h-6a1 1 0 1 1 0-2h6Zm5-4a1 1 0 1 1 0 2H18a1 1 0 1 1 0-2h11Zm0-4a1 1 0 1 1 0 2H18a1 1 0 1 1 0-2h11Z"/>
</svg>
