<svg xmlns="http://www.w3.org/2000/svg" width="32" height="32" fill="currentColor" viewBox="0 0 32 32">
  <path fill-rule="evenodd" d="M3.144 7.484a1 1 0 0 1 1.372-.34l11.196 6.75a.593.593 0 0 0 .67.002l11.098-6.75a1 1 0 0 1 1.04 1.708l-11.08 6.74a2.588 2.588 0 0 1-2.779.002L3.484 8.856a1 1 0 0 1-.34-1.372Z" clip-rule="evenodd"/>
  <path fill-rule="evenodd" d="M4 8v16h24V8H4Zm-2-.055C2 6.866 2.877 6 3.949 6h24.102C29.123 6 30 6.866 30 7.945v16.11A1.947 1.947 0 0 1 28.051 26H3.949A1.947 1.947 0 0 1 2 24.055V7.945Z" clip-rule="evenodd"/>
</svg>
