<svg xmlns="http://www.w3.org/2000/svg" width="32" height="32" fill="currentColor" viewBox="0 0 32 32">
  <path d="M12 5a1 1 0 0 1 0 2H5a1 1 0 0 0-1 1v19a1 1 0 0 0 1 1h22a1 1 0 0 0 1-1v-7a1 1 0 0 1 2 0v7a3 3 0 0 1-3 3H5a3 3 0 0 1-3-3V8a3 3 0 0 1 3-3h7Zm1.994 14c1.402 0 3.017.91 3.006 2.665V24a1 1 0 0 1-1 1H6a1 1 0 0 1-1-1v-2.244c-.005-.898.493-1.607 1.082-2.053A3.562 3.562 0 0 1 8.199 19h5.795ZM26 23a1 1 0 0 1 0 2h-6a1 1 0 1 1 0-2h6ZM8.2 21c-.333 0-.673.119-.91.299-.238.179-.29.345-.29.447V23h8v-1.345c.001-.154-.06-.29-.215-.413-.168-.134-.445-.242-.79-.242H8.198ZM26 19a1 1 0 0 1 0 2h-5a1 1 0 1 1 0-2h5Zm-15-9a4 4 0 1 1 0 8 4 4 0 0 1 0-8Zm12.938-8.56a1 1 0 0 1 1.293-.326l3.059 1.605a1 1 0 0 1 .424 1.345l-.52 1.001c.246.333.458.686.636 1.052l1.218.059a1 1 0 0 1 .952.998v3.354a1 1 0 0 1-.967 1l-1.06.034a6.304 6.304 0 0 1-.247.528l-.023.034a7.3 7.3 0 0 1-.29.482l.651 1.125a1.002 1.002 0 0 1-.374 1.372l-3.135 1.768a1.002 1.002 0 0 1-1.387-.426l-.473-.948a6.277 6.277 0 0 1-1.079.033l-.5.937a1 1 0 0 1-1.346.413l-3.088-1.616a1 1 0 0 1-.417-1.36l.532-.987a6.671 6.671 0 0 1-.602-.987l-1.056.035a1 1 0 0 1-1.034-.97L15 7.496a1 1 0 0 1 .967-1.028l1.057-.037a6.274 6.274 0 0 1 .551-1.033l-.556-.908a1 1 0 0 1 .323-1.372l2.955-1.843.087-.049a1 1 0 0 1 1.294.373l.556.906a6.283 6.283 0 0 1 1.149-.041l.502-.936.052-.087ZM11 12a2 2 0 1 0 0 4 2 2 0 0 0 0-4Zm13.826-7.993a1 1 0 0 1-1.06.511 4.283 4.283 0 0 0-1.785.063 1 1 0 0 1-1.091-.447l-.389-.631-1.259.785.39.637a1 1 0 0 1-.091 1.171 4.383 4.383 0 0 0-.506.756c-.14.258-.251.543-.35.857a1 1 0 0 1-.92.698l-.736.024.045 1.501.735-.024.159.007c.365.046.681.292.812.645a4.68 4.68 0 0 0 .95 1.564 1 1 0 0 1 .146 1.154l-.37.684 1.313.686.355-.66.087-.136c.225-.294.6-.444.973-.377a4.28 4.28 0 0 0 1.785-.062 1 1 0 0 1 1.135.525l.335.673 1.337-.754-.471-.815a1 1 0 0 1 .104-1.15c.182-.214.349-.467.506-.756l.01-.016c.137-.262.246-.537.34-.835l.059-.146a.999.999 0 0 1 .861-.552L29 9.56V8.127l-.89-.041a1 1 0 0 1-.89-.653 4.683 4.683 0 0 0-.95-1.563 1.001 1.001 0 0 1-.154-1.14l.364-.703-1.3-.682-.354.662ZM22.834 6a3.001 3.001 0 1 1-3 3 3 3 0 0 1 3-3Zm0 2a1 1 0 0 0 0 2 1.001 1.001 0 0 0 0-2Z"/>
</svg>
