<svg xmlns="http://www.w3.org/2000/svg" width="32" height="32" fill="currentColor" viewBox="0 0 32 32">
  <path fill-rule="evenodd" d="M16 8c-1.105 0-2 .892-2 2s.895 2 2 2c1.104 0 2-.898 2-2 0-1.108-.895-2-2-2Zm-4 2c0-2.214 1.792-4 4-4s4 1.786 4 4c0 2.205-1.79 4-4 4-2.208 0-4-1.786-4-4Zm-3 6.5a1 1 0 0 1 1 1v8.52l6.306 2.028a1 1 0 0 1-.612 1.904l-7-2.252A1 1 0 0 1 8 26.748V17.5a1 1 0 0 1 1-1Z" clip-rule="evenodd"/>
  <path fill-rule="evenodd" d="M9.063 16.053a1 1 0 0 1 .553-.026l2.114.5a1 1 0 1 1-.46 1.946l-1.835-.434L4 19.89v7.713l5.063-1.724a1 1 0 0 1 .645 1.893l-6.386 2.175A1 1 0 0 1 2 29v-9.826a1 1 0 0 1 .678-.946l6.385-2.175Zm13.329-.026a1 1 0 0 1 .553.026l6.378 2.175a1 1 0 0 1 .677.946V29a1 1 0 0 1-1.323.947L22.3 27.771a1 1 0 1 1 .646-1.893L28 27.603V19.89l-5.429-1.85-1.842.433a1 1 0 1 1-.458-1.946l2.121-.5Z" clip-rule="evenodd"/>
  <path fill-rule="evenodd" d="M23 16.5a1 1 0 0 1 1 1v9.248a1 1 0 0 1-.694.952l-7 2.252A1 1 0 0 1 15 29v-6a1 1 0 1 1 2 0v4.628l5-1.609V17.5a1 1 0 0 1 1-1Z" clip-rule="evenodd"/>
  <path fill-rule="evenodd" d="M16 4c-3.312 0-6 2.682-6 5.987v.001c-.002 1.149.375 2.488 1.004 3.9.623 1.4 1.464 2.805 2.32 4.066A43.365 43.365 0 0 0 16 21.477a43.386 43.386 0 0 0 2.673-3.52c.855-1.26 1.696-2.664 2.32-4.065C21.622 12.479 22 11.138 22 9.987 22 6.682 19.312 4 16 4Zm0 19 .736.677a1 1 0 0 1-1.472 0L16 23ZM8 9.986C8 5.573 11.588 2 16 2s8 3.573 8 7.987c0 1.549-.497 3.185-1.18 4.719-.689 1.545-1.598 3.056-2.493 4.374a45.345 45.345 0 0 1-3.567 4.57l-.017.02-.005.004-.001.002L16 23l-.736.677-.007-.008-.017-.018-.063-.07-.23-.26a45.408 45.408 0 0 1-3.277-4.243c-.896-1.32-1.805-2.831-2.493-4.376-.683-1.534-1.18-3.169-1.177-4.716Z" clip-rule="evenodd"/>
</svg>
