<svg xmlns="http://www.w3.org/2000/svg" width="32" height="32" fill="currentColor" viewBox="0 0 32 32">
  <path fill-rule="evenodd" d="M2.221 11.373A1 1 0 0 1 3 11h26a1 1 0 0 1 .984 1.18l-2.36 12.85C27.3 26.797 25.677 28 23.891 28H8.376c-1.64 0-3.148-1.079-3.5-2.697l-2.853-13.09a1 1 0 0 1 .198-.84ZM4.241 13l2.59 11.877c.13.599.74 1.123 1.545 1.123H23.89c.93 0 1.635-.617 1.766-1.33L27.8 13H4.24Z" clip-rule="evenodd"/>
  <path fill-rule="evenodd" d="M9.734 15.036a1 1 0 0 1 1.23.698l1.653 6a1 1 0 0 1-1.928.532l-1.653-6a1 1 0 0 1 .698-1.23Zm13.234 0a1 1 0 0 1 .699 1.23l-1.653 6a1 1 0 0 1-1.928-.532l1.653-6a1 1 0 0 1 1.23-.698ZM16.5 15a1 1 0 0 1 1 1v6a1 1 0 1 1-2 0v-6a1 1 0 0 1 1-1Zm3.739-12.887a1 1 0 0 1 1.348.426l2.6 5a1 1 0 0 1-1.774.922l-2.6-5a1 1 0 0 1 .426-1.348Zm-8.178 0a1 1 0 0 1 .426 1.348l-2.6 5a1 1 0 0 1-1.774-.922l2.6-5a1 1 0 0 1 1.348-.426Z" clip-rule="evenodd"/>
</svg>
