<svg xmlns="http://www.w3.org/2000/svg" width="32" height="32" fill="currentColor" viewBox="0 0 32 32">
  <path fill-rule="evenodd" d="m4.007 9.856.866-4.52A1.658 1.658 0 0 1 6.501 4h19.008c.795 0 1.477.564 1.627 1.337l.86 4.488C27.948 10.372 27.38 11 26.4 11c-.392 0-.74-.112-1.014-.288a2.893 2.893 0 0 0-3.172 0A1.867 1.867 0 0 1 21.2 11c-.392 0-.74-.112-1.014-.288a2.893 2.893 0 0 0-3.172 0A1.867 1.867 0 0 1 16 11a1.87 1.87 0 0 1-1.014-.288 2.892 2.892 0 0 0-3.172 0A1.867 1.867 0 0 1 10.8 11c-.392 0-.74-.112-1.014-.288a2.893 2.893 0 0 0-3.172 0A1.867 1.867 0 0 1 5.6 11c-.961 0-1.526-.605-1.593-1.144Zm-1.097-4.9-.857 4.47A.999.999 0 0 0 2 9.749c0 .912.391 1.689 1 2.255v14.145C3 28.216 4.593 30 6.685 30h18.63C27.407 30 29 28.216 29 26.148V12.003c.609-.566 1-1.343 1-2.255a1 1 0 0 0-.018-.188L29.1 4.958v-.002A3.657 3.657 0 0 0 25.509 2H6.5a3.657 3.657 0 0 0-3.59 2.956ZM27 12.954a3.99 3.99 0 0 1-.6.046 3.866 3.866 0 0 1-2.104-.611l-.005-.004a.893.893 0 0 0-.982 0l-.005.004A3.87 3.87 0 0 1 21.2 13a3.866 3.866 0 0 1-2.104-.611l-.005-.004a.893.893 0 0 0-.982 0l-.005.004A3.87 3.87 0 0 1 16 13a3.866 3.866 0 0 1-2.104-.611l-.005-.004a.893.893 0 0 0-.982 0l-.005.004A3.87 3.87 0 0 1 10.8 13a3.866 3.866 0 0 1-2.104-.611l-.005-.004a.893.893 0 0 0-.982 0l-.005.004A3.87 3.87 0 0 1 5.6 13a3.99 3.99 0 0 1-.6-.046v13.194C5 27.228 5.81 28 6.685 28H10v-9.115C10 17.327 11.238 16 12.825 16h6.35C20.762 16 22 17.327 22 18.885V28h3.315c.874 0 1.685-.773 1.685-1.852V12.954Zm-7 5.931V28h-8v-9.115c0-.515.404-.885.825-.885h6.35c.421 0 .825.37.825.885Z" clip-rule="evenodd"/>
</svg>
