<svg xmlns="http://www.w3.org/2000/svg" width="32" height="32" fill="currentColor" viewBox="0 0 32 32">
  <path fill-rule="evenodd" d="M23.316 3.052a1 1 0 0 1 .633 1.264l-1 3a1 1 0 1 1-1.898-.632l1-3a1 1 0 0 1 1.265-.632ZM16.961 4a1 1 0 0 1 .95.585l3.368 7.41a1 1 0 0 1 .085.147l3.539 7.427a1 1 0 0 1-1.242 1.37c-1.116-.402-2.688-.617-4.404-.587-1.708.03-3.486.298-5.001.808h-.002l2.461 4.198c.57.915.262 2.176-.722 2.678l-.005.003-1.538.773-.003.002a1.743 1.743 0 0 1-2.055-.367l-3.631-3.764-.219-.222-.016-.017-.01-.01-.674-.678a3.29 3.29 0 0 1-4.217-1.65l-.001-.002L2.307 19.3a3.279 3.279 0 0 1 1.529-4.329h.002c1.677-.822 4.353-2.165 6.03-3.186 1.356-.825 2.702-2.028 3.82-3.337 1.123-1.314 1.967-2.676 2.372-3.79A1 1 0 0 1 16.961 4ZM9.814 22.903c.818-.347 1.697-.71 2.534-1.038l2.61 4.453-1.24.624-3.52-3.649-.22-.223-.011-.013a1.045 1.045 0 0 0-.022-.022l-.13-.132Zm3.918-3.676c1.714-.56 3.655-.843 5.49-.874a18.027 18.027 0 0 1 2.974.185l-2.56-5.374a1.002 1.002 0 0 1-.104-.177l-2.569-5.65a18.37 18.37 0 0 1-1.755 2.411c-1.226 1.436-2.728 2.79-4.3 3.747l-.034.02a.935.935 0 0 1 .02.038l2.838 5.674Zm-4.597-4.721c-1.528.83-3.242 1.685-4.416 2.26l-.002.002-.44-.899.442.898a1.279 1.279 0 0 0-.599 1.69v-.002l-.906.425.907-.422 1.312 2.795-.904.427.905-.425v-.001a1.29 1.29 0 0 0 1.687.636c1.234-.546 3.06-1.33 4.72-1.973l.016.03.277.553m-3-5.994 2.706 5.41-2.705-5.41Zm19.698-6.06a1 1 0 0 1-.277 1.386l-3 2a1 1 0 1 1-1.11-1.664l3-2a1 1 0 0 1 1.387.278Zm-3.78 6.238a1 1 0 0 1 1.264-.632l3 1a1 1 0 1 1-.632 1.897l-3-1a1 1 0 0 1-.633-1.265Z" clip-rule="evenodd"/>
</svg>
