<svg xmlns="http://www.w3.org/2000/svg" width="32" height="32" fill="currentColor" viewBox="0 0 32 32">
  <path d="M23.129 2C25.274 2 27 3.751 27 5.895v12.21C27 20.25 25.274 22 23.129 22H17v1.174A3.003 3.003 0 0 1 18.826 25H25a1 1 0 1 1 0 2h-6.174a2.998 2.998 0 0 1-5.652 0H7a1 1 0 1 1 0-2h6.174A3.003 3.003 0 0 1 15 23.174V22H8.871C6.726 22 5 20.249 5 18.105V5.895C5 3.75 6.726 2 8.871 2H23.13ZM16 25a1 1 0 1 0 0 2 1 1 0 0 0 0-2Zm-9-6.895C7 19.16 7.845 20 8.871 20H23.13c1.025 0 1.87-.84 1.87-1.895V13H7v5.105ZM9 16a1 1 0 1 1 0 2 1 1 0 0 1 0-2ZM8.871 4C7.845 4 7 4.84 7 5.895V11h18V5.895A1.883 1.883 0 0 0 23.129 4H8.87ZM9 7a1 1 0 1 1 0 2 1 1 0 0 1 0-2Z"/>
</svg>
