<svg xmlns="http://www.w3.org/2000/svg" width="32" height="32" fill="none" viewBox="0 0 32 32">
  <path fill="#3D3C3C" fill-rule="evenodd" d="M7 4a1 1 0 0 0 0 2h18a1 1 0 1 0 0-2H7ZM4 8a1 1 0 0 1 1-1h22a1 1 0 1 1 0 2H5a1 1 0 0 1-1-1Zm-2 3a1 1 0 0 1 1-1h26a1 1 0 0 1 1 1v16a1 1 0 0 1-1 1H3a1 1 0 0 1-1-1V11Zm2 1v14h24V12H4Zm6 6a1 1 0 1 0 0 2h1a1 1 0 1 0 0-2h-1Zm10 1a1 1 0 0 1 1-1h1a1 1 0 1 1 0 2h-1a1 1 0 0 1-1-1ZM8.503 13a1 1 0 0 0-1 1c0 .457-.121.671-.195.756-.064.074-.155.124-.308.124a1 1 0 0 0-1 1v6.25a1 1 0 0 0 1 1c.061 0 .167.028.284.172.118.148.219.39.219.698a1 1 0 0 0 1 1h14.994a1 1 0 0 0 1-1c0-.302.1-.545.22-.695.12-.148.226-.175.283-.175a1 1 0 0 0 1-1v-6.25a1 1 0 0 0-1-1c-.149 0-.24-.05-.307-.126-.076-.088-.196-.304-.196-.754a1 1 0 0 0-1-1H8.503Zm.314 3.07c.264-.305.448-.668.559-1.07h13.25c.11.4.293.76.556 1.064.235.27.514.473.818.608v4.686c-.654.321-1.114.946-1.341 1.642H9.343c-.227-.7-.688-1.323-1.343-1.643v-4.684c.303-.134.582-.334.817-.604ZM16 18a1 1 0 1 0 0 2 1 1 0 0 0 0-2Zm-3 1a3 3 0 1 1 6 0 3 3 0 0 1-6 0Z" clip-rule="evenodd"/>
</svg>
