<svg xmlns="http://www.w3.org/2000/svg" width="32" height="32" fill="currentColor" viewBox="0 0 32 32">
  <path fill-rule="evenodd" d="M5.567 6C4.684 6 4 6.698 4 7.52V19h24V7.52C28 6.697 27.316 6 26.433 6H5.567ZM2 7.52v13.96C2 23.443 3.615 25 5.567 25H15v3h-5a1 1 0 1 0 0 2h12a1 1 0 1 0 0-2h-5v-3h9.433C28.385 25 30 23.442 30 21.48V7.52C30 5.557 28.385 4 26.433 4H5.567C3.615 4 2 5.558 2 7.52ZM28 21H4v.48c0 .822.684 1.52 1.567 1.52h20.866c.883 0 1.567-.698 1.567-1.52V21ZM16.934 8.644a1 1 0 0 0-1.844-.06L12.159 15H8a1 1 0 1 0 0 2h4.8a1 1 0 0 0 .91-.584l2.206-4.827 1.816 4.767a1 1 0 0 0 .935.644H24a1 1 0 1 0 0-2h-4.644l-2.422-6.356Z" clip-rule="evenodd"/>
</svg>
