<svg xmlns="http://www.w3.org/2000/svg" width="32" height="32" fill="currentColor" viewBox="0 0 32 32">
  <path d="M25.268 3C27.872 3 30 5.095 30 7.698v15.604C30 25.905 27.872 28 25.268 28H6.732C4.128 28 2 25.905 2 23.302V7.698C2 5.095 4.128 3 6.732 3h18.536ZM6.732 5C5.215 5 4 6.217 4 7.698v15.604C4 24.783 5.215 26 6.732 26h18.536C26.785 26 28 24.783 28 23.302V7.698C28 6.217 26.785 5 25.268 5H6.732ZM13 9a1 1 0 1 1 0 2c-.47 0-.674.326-.674.509v1.803a3.14 3.14 0 0 1-.911 2.188c.577.594.911 1.366.911 2.189v1.802c0 .189.199.509.674.509a1 1 0 1 1 0 2c-1.377 0-2.674-1.023-2.674-2.509V17.69c0-.279-.113-.57-.362-.816l-.668-.663a1 1 0 0 1 0-1.42l.668-.662v-.001c.244-.24.362-.533.362-.816V11.51C10.326 10.036 11.62 9 13 9Zm6 0c1.377 0 2.674 1.023 2.674 2.509v1.803c0 .243.087.496.275.72l.087.095.668.663a1 1 0 0 1 0 1.42l-.668.662v.001c-.244.24-.362.533-.362.816v1.802C21.674 20.964 20.38 22 19 22a1 1 0 1 1 0-2c.47 0 .674-.326.674-.509V17.69c0-.836.344-1.608.91-2.19a3.136 3.136 0 0 1-.91-2.188V11.51c0-.189-.199-.509-.674-.509a1 1 0 1 1 0-2Z"/>
</svg>
