<svg xmlns="http://www.w3.org/2000/svg" width="32" height="32" fill="currentColor" viewBox="0 0 32 32">
  <path d="M14 4a2 2 0 1 1 4 0 2 2 0 0 1-4 0Z"/>
  <path fill-rule="evenodd" d="M16 22a6 6 0 1 0 0-12 6 6 0 0 0 0 12Zm0 2a8 8 0 1 0 0-16 8 8 0 0 0 0 16Z" clip-rule="evenodd"/>
  <path fill-rule="evenodd" d="M16 26c5.523 0 10-4.477 10-10S21.523 6 16 6 6 10.477 6 16s4.477 10 10 10Zm0 2c6.627 0 12-5.373 12-12S22.627 4 16 4 4 9.373 4 16s5.373 12 12 12Z" clip-rule="evenodd"/>
  <path d="M14 28a2 2 0 1 1 4 0 2 2 0 0 1-4 0ZM2 16a2 2 0 1 1 4 0 2 2 0 0 1-4 0Zm24 0a2 2 0 1 1 4 0 2 2 0 0 1-4 0Z"/>
</svg>
