<svg xmlns="http://www.w3.org/2000/svg" width="32" height="32" fill="currentColor" viewBox="0 0 32 32">
  <path fill-rule="evenodd" d="M16 2a2 2 0 0 0-1.993 2.165 12.009 12.009 0 0 0-9.842 9.842 2 2 0 1 0 0 3.987c.84 5.03 4.811 9 9.842 9.841a2 2 0 1 0 3.987 0c5.03-.84 9-4.811 9.841-9.842a2 2 0 1 0 0-3.987 12.01 12.01 0 0 0-9.842-9.841A2 2 0 0 0 16 2Zm10 14c0-5.523-4.477-10-10-10S6 10.477 6 16s4.477 10 10 10 10-4.477 10-10Zm-4 0a6 6 0 1 1-12 0 6 6 0 0 1 12 0Zm2 0a8 8 0 1 1-16 0 8 8 0 0 1 16 0Z" clip-rule="evenodd"/>
</svg>
