<svg xmlns="http://www.w3.org/2000/svg" width="32" height="32" fill="currentColor" viewBox="0 0 32 32">
  <path d="M14 4a2 2 0 1 1 4 0 2 2 0 0 1-4 0Z"/>
  <path fill-rule="evenodd" d="M16 22a6 6 0 1 0 0-12 6 6 0 0 0 0 12Zm0 2a8 8 0 1 0 0-16 8 8 0 0 0 0 16Z" clip-rule="evenodd"/>
  <path d="M6 7a2 2 0 1 1 4 0 2 2 0 0 1-4 0Zm16 0a2 2 0 1 1 4 0 2 2 0 0 1-4 0Zm0 18a2 2 0 1 1 4 0 2 2 0 0 1-4 0ZM6 25a2 2 0 1 1 4 0 2 2 0 0 1-4 0Zm8 3a2 2 0 1 1 4 0 2 2 0 0 1-4 0Zm0-12a2 2 0 1 1 4 0 2 2 0 0 1-4 0ZM2 16a2 2 0 1 1 4 0 2 2 0 0 1-4 0Zm24 0a2 2 0 1 1 4 0 2 2 0 0 1-4 0Z"/>
</svg>
