<svg xmlns="http://www.w3.org/2000/svg" width="32" height="32" fill="currentColor" viewBox="0 0 32 32">
  <path fill-rule="evenodd" d="M16 2a2 2 0 1 0 0 4 2 2 0 0 0 0-4Zm6 14a6 6 0 1 1-12 0 6 6 0 0 1 12 0Zm2 0a8 8 0 1 1-16 0 8 8 0 0 1 16 0ZM6 7a2 2 0 1 1 4 0 2 2 0 0 1-4 0Zm18-2a2 2 0 1 0 0 4 2 2 0 0 0 0-4Zm-2 20a2 2 0 1 1 4 0 2 2 0 0 1-4 0ZM8 23a2 2 0 1 0 0 4 2 2 0 0 0 0-4Zm6 5a2 2 0 1 1 4 0 2 2 0 0 1-4 0Zm2-14a2 2 0 1 0 0 4 2 2 0 0 0 0-4ZM2 16a2 2 0 1 1 4 0 2 2 0 0 1-4 0Zm26-2a2 2 0 1 0 0 4 2 2 0 0 0 0-4Z" clip-rule="evenodd"/>
</svg>
