<svg xmlns="http://www.w3.org/2000/svg" width="32" height="32" fill="currentColor" viewBox="0 0 32 32">
  <path fill-rule="evenodd" d="M3.68 10.733C6.829 7.815 11.183 6 16 6s9.171 1.815 12.32 4.733a1 1 0 1 0 1.36-1.466C26.162 6.007 21.323 4 16 4S5.838 6.006 2.32 9.267a1 1 0 1 0 1.36 1.466Zm4.051 4.949C9.862 13.396 12.786 12 16 12c3.214 0 6.138 1.396 8.268 3.682a1 1 0 1 0 1.463-1.364C23.256 11.661 19.815 10 16 10s-7.255 1.661-9.731 4.318a1 1 0 0 0 1.462 1.364ZM16 18a6.17 6.17 0 0 0-4.305 1.72 1 1 0 0 1-1.39-1.44A8.174 8.174 0 0 1 16 16a8.18 8.18 0 0 1 5.695 2.28 1 1 0 0 1-1.39 1.44A6.175 6.175 0 0 0 16 18Zm-.704 4.296A.99.99 0 0 1 16 22a.98.98 0 0 1 .696.288l.008.008A.99.99 0 0 1 17 23a1.001 1.001 0 0 1-2 0 .96.96 0 0 1 .288-.696l.008-.008ZM16 20a2.99 2.99 0 0 0-2.114.878A2.96 2.96 0 0 0 13 23a3.001 3.001 0 0 0 6 0 2.99 2.99 0 0 0-.878-2.114A2.974 2.974 0 0 0 16 20Z" clip-rule="evenodd"/>
</svg>
