<svg xmlns="http://www.w3.org/2000/svg" width="32" height="32" fill="currentColor" viewBox="0 0 32 32">
  <path fill-rule="evenodd" d="M16 6c-4.817 0-9.171 1.815-12.32 4.733a1 1 0 1 1-1.36-1.466C5.838 6.007 10.677 4 16 4s10.162 2.006 13.68 5.267a1 1 0 0 1-1.36 1.466C25.171 7.815 20.817 6 16 6Z" clip-rule="evenodd"/>
  <path fill-rule="evenodd" d="M16 12c-3.214 0-6.138 1.396-8.269 3.682a1 1 0 1 1-1.462-1.364C8.745 11.661 12.186 10 16 10s7.255 1.661 9.732 4.318a1 1 0 1 1-1.463 1.364C22.137 13.396 19.213 12 16 12Z" clip-rule="evenodd"/>
  <path fill-rule="evenodd" d="M16 18a6.17 6.17 0 0 0-4.305 1.72 1 1 0 0 1-1.39-1.44A8.174 8.174 0 0 1 16 16a8.18 8.18 0 0 1 5.695 2.28 1 1 0 0 1-1.39 1.44A6.175 6.175 0 0 0 16 18Z" clip-rule="evenodd"/>
  <path fill-rule="evenodd" d="M16 22a.99.99 0 0 0-.704.296l-.008.008A.96.96 0 0 0 15 23a1.001 1.001 0 0 0 2 0 .99.99 0 0 0-.296-.704l-.008-.008A.975.975 0 0 0 16 22Zm-2.114-1.122A2.989 2.989 0 0 1 16 20c.819 0 1.58.334 2.122.886A2.99 2.99 0 0 1 19 23a3.001 3.001 0 0 1-6 0c0-.83.335-1.582.886-2.122Z" clip-rule="evenodd"/>
</svg>
