<svg xmlns="http://www.w3.org/2000/svg" width="32" height="32" fill="currentColor" viewBox="0 0 32 32">
  <path fill-rule="evenodd" d="M4 9c0-1.083.895-2 1.888-2h20.224C27.166 7 28 7.844 28 8.856v14.288A1.867 1.867 0 0 1 26.112 25H21a1 1 0 1 0 0 2h5.112C28.25 27 30 25.29 30 23.144V8.856C30 6.72 28.252 5 26.112 5H5.888C3.687 5 2 6.918 2 9a1 1 0 0 0 2 0Zm-1.995 3.9a1 1 0 0 1 1.094-.895c7.856.784 14.115 7.043 14.896 14.896a1 1 0 1 1-1.99.198C15.318 20.195 9.809 14.685 2.9 13.995a1 1 0 0 1-.896-1.094Zm1.16 5.114a1 1 0 0 0-.33 1.972 8.773 8.773 0 0 1 7.179 7.18 1 1 0 1 0 1.972-.332 10.773 10.773 0 0 0-8.82-8.82Zm.357 6.133a1 1 0 0 0-1.044 1.706 4.92 4.92 0 0 1 1.665 1.662 1 1 0 1 0 1.714-1.03 6.921 6.921 0 0 0-2.335-2.338Z" clip-rule="evenodd"/>
</svg>
