<svg xmlns="http://www.w3.org/2000/svg" width="32" height="32" fill="currentColor" viewBox="0 0 32 32">
  <path fill-rule="evenodd" d="M2.147 24.478a1 1 0 0 1 1.375-.331 6.921 6.921 0 0 1 2.335 2.338 1 1 0 1 1-1.714 1.03 4.92 4.92 0 0 0-1.665-1.662 1 1 0 0 1-.331-1.375Zm-.133-5.643a1 1 0 0 1 1.151-.821 10.773 10.773 0 0 1 8.821 8.82 1 1 0 1 1-1.972.332 8.773 8.773 0 0 0-7.18-7.18 1 1 0 0 1-.82-1.151Z" clip-rule="evenodd"/>
  <path fill-rule="evenodd" d="M2.005 12.9a1 1 0 0 1 1.094-.895c7.856.784 14.115 7.043 14.896 14.896a1 1 0 1 1-1.99.198C15.318 20.195 9.809 14.685 2.9 13.995a1 1 0 0 1-.896-1.094Z" clip-rule="evenodd"/>
  <path fill-rule="evenodd" d="M5.888 7C4.895 7 4 7.917 4 9a1 1 0 0 1-2 0c0-2.082 1.687-4 3.888-4h20.224C28.252 5 30 6.721 30 8.856v14.288C30 25.29 28.25 27 26.112 27H21a1 1 0 1 1 0-2h5.112A1.867 1.867 0 0 0 28 23.144V8.856C28 7.844 27.166 7 26.112 7H5.888Z" clip-rule="evenodd"/>
</svg>
