<svg xmlns="http://www.w3.org/2000/svg" width="32" height="32" fill="currentColor" viewBox="0 0 32 32">
  <path fill-rule="evenodd" d="M5.5 2a3.5 3.5 0 0 1 2.758 5.653l2.235 3.726A5.484 5.484 0 0 1 12.5 11c1.46 0 2.788.57 3.773 1.5l3.957-3.165a4 4 0 1 1 1.124 1.663l-3.897 3.116a5.49 5.49 0 0 1 .247 4.162l5.041 3.666a4.5 4.5 0 1 1-1.271 1.547l-4.758-3.459A5.487 5.487 0 0 1 12.5 22c-.82 0-1.598-.181-2.297-.503l-1.92 2.88a3.5 3.5 0 1 1-1.617-1.18l1.902-2.853A5.48 5.48 0 0 1 7 16.5c0-1.61.691-3.059 1.794-4.065l-2.172-3.62A3.5 3.5 0 1 1 5.5 2Zm0 23a1.5 1.5 0 1 0 0 3 1.5 1.5 0 0 0 0-3Zm20-2a2.5 2.5 0 1 0 0 5 2.5 2.5 0 0 0 0-5Zm-13-10a3.5 3.5 0 1 0 0 7 3.5 3.5 0 0 0 0-7ZM24 6a2 2 0 1 0 0 4 2 2 0 0 0 0-4ZM5.5 4a1.5 1.5 0 1 0 0 3 1.5 1.5 0 0 0 0-3Z" clip-rule="evenodd"/>
</svg>
