<svg xmlns="http://www.w3.org/2000/svg" width="32" height="32" fill="currentColor" viewBox="0 0 32 32">
  <path fill-rule="evenodd" d="M10.338 4.334C10.1 4.558 10 4.81 10 5v10.5a1 1 0 1 1-2 0V5c0-.856.42-1.604.963-2.118C9.505 2.368 10.262 2 11.079 2h16.05C28.723 2 30 3.307 30 4.902v22.196C30 28.678 28.739 30 27.13 30H6a1 1 0 1 1 0-2h21.13c.466 0 .87-.39.87-.902V4.902A.886.886 0 0 0 27.13 4H11.078c-.221 0-.504.11-.741.334Z" clip-rule="evenodd"/>
  <path fill-rule="evenodd" d="M12 19a1 1 0 0 1 1-1h12a1 1 0 1 1 0 2H13a1 1 0 0 1-1-1Zm0 5a1 1 0 0 1 1-1h12a1 1 0 1 1 0 2H13a1 1 0 0 1-1-1ZM2 15a1 1 0 0 1 1-1h6a1 1 0 0 1 1 1v10.674C10 27.958 8.31 30 6 30c-2.298 0-4-2.029-4-4.326V15Zm2 1v9.674C4 27.063 4.992 28 6 28c1.013 0 2-.944 2-2.326V16H4Zm8-8a2 2 0 0 1 2-2h10a2 2 0 0 1 2 2v5a2 2 0 0 1-2 2H14a2 2 0 0 1-2-2V8Zm12 0H14v5h10V8Z" clip-rule="evenodd"/>
</svg>
