<svg xmlns="http://www.w3.org/2000/svg" width="32" height="32" fill="currentColor" viewBox="0 0 32 32">
  <path fill-rule="evenodd" d="M11.245 4.907A12.027 12.027 0 0 1 16 3.933c6.664 0 12.067 5.403 12.067 12.067a12.05 12.05 0 0 1-5.017 9.794L11.245 4.907Zm-1.767.939A12.057 12.057 0 0 0 3.933 16c0 6.664 5.403 12.067 12.067 12.067 1.916 0 3.727-.447 5.336-1.241L9.478 5.846ZM16 1.933C8.231 1.933 1.933 8.231 1.933 16S8.231 30.067 16 30.067 30.067 23.769 30.067 16 23.769 1.933 16 1.933Z" clip-rule="evenodd"/>
</svg>
