<svg xmlns="http://www.w3.org/2000/svg" width="32" height="32" fill="currentColor" viewBox="0 0 32 32">
  <path d="M26.292 4.293a1.001 1.001 0 0 1 1.415 1.414l-21.999 22a1.001 1.001 0 0 1-1.415-1.414l.985-.986C3.313 24.28 2 22.19 2 19.832c0-2.364 1.462-4.585 3.736-5.5a4.36 4.36 0 0 1 1.658-.317C7.739 9.535 11.45 6 16 6c2.387 0 4.502.977 6.047 2.538l4.245-4.245ZM24 12c3.282 0 6 3.164 6 6.54 0 4.02-2.583 7.434-6.653 7.434H12a1 1 0 1 1 0-2h11.347c2.687 0 4.653-2.219 4.653-5.434 0-2.47-2.01-4.54-4-4.54a1 1 0 1 1 0-2Zm-8-4c-3.526 0-6.42 2.779-6.623 6.3l.024.006a1 1 0 0 1-.364 1.967l-.72-.134-.052-.011c-.783-.19-1.305-.132-1.782.06C4.971 16.796 4 18.28 4 19.831c0 1.731 1.035 3.225 2.497 3.84.096.04.182.094.258.158L20.632 9.952C19.438 8.742 17.82 8 16 8Z"/>
</svg>
