<svg xmlns="http://www.w3.org/2000/svg" width="32" height="32" fill="currentColor" viewBox="0 0 32 32">
  <path d="M20 2a5 5 0 0 1 5 5v7.556a1 1 0 0 1-2 0V13H5v6h7a1 1 0 1 1 0 2H5v4a3 3 0 0 0 3 3h4a1 1 0 1 1 0 2H8a5 5 0 0 1-5-5V7a5 5 0 0 1 5-5h12Zm1 14a7 7 0 1 1 0 14 7 7 0 0 1 0-14Zm-3.593 3.523a5 5 0 0 0 6.077 7.815l-6.077-7.815ZM21 18a4.97 4.97 0 0 0-1.94.39l5.928 7.624A5 5 0 0 0 21 18ZM9 23a1 1 0 1 1 0 2 1 1 0 0 1 0-2Zm0-8a1 1 0 1 1 0 2 1 1 0 0 1 0-2ZM8 4a3 3 0 0 0-3 3v4h18V7a3 3 0 0 0-3-3H8Zm1 3a1 1 0 1 1 0 2 1 1 0 0 1 0-2Z"/>
</svg>
