<svg xmlns="http://www.w3.org/2000/svg" width="32" height="32" fill="currentColor" viewBox="0 0 32 32">
  <path fill-rule="evenodd" d="M4.293 26.293a1 1 0 1 0 1.414 1.414l22-22a1 1 0 0 0-1.414-1.414l-4.014 4.014C16.144 5.497 8.567 7.271 4.03 13.121l-1.82 2.344a1 1 0 0 0 0 1.226l1.82 2.344a15.683 15.683 0 0 0 3.92 3.6l-3.657 3.658Zm5.11-5.11 2.425-2.426a5 5 0 0 1 6.929-6.929l1.995-1.995C15.616 7.851 9.424 9.43 5.61 14.347l-1.344 1.73 1.344 1.731a13.622 13.622 0 0 0 3.793 3.375Zm7.89-7.89a3 3 0 0 0-4.001 4.001l4.002-4.002Zm7.051-2.4a1 1 0 0 1 1.41-.107c.796.684 1.54 1.463 2.216 2.335l1.82 2.344a1 1 0 0 1 0 1.226l-1.82 2.344c-3.583 4.607-8.99 6.556-14.114 5.81a1 1 0 0 1 .288-1.98c4.425.645 9.113-1.029 12.247-5.057l1.343-1.73-1.344-1.73a13.994 13.994 0 0 0-1.939-2.044 1 1 0 0 1-.107-1.41ZM20 15a1 1 0 0 1 1 1 5 5 0 0 1-5 5 1 1 0 1 1 0-2 3 3 0 0 0 3-3 1 1 0 0 1 1-1Z" clip-rule="evenodd"/>
</svg>
