<svg xmlns="http://www.w3.org/2000/svg" width="32" height="32" fill="currentColor" viewBox="0 0 32 32">
  <path d="M26.292 4.293a1.001 1.001 0 0 1 1.415 1.414l-21.999 22a1.001 1.001 0 0 1-1.415-1.414l5.824-5.825a1 1 0 0 1 .189-1.187 8.092 8.092 0 0 1 2.735-1.737l4.442-4.443C16.998 13.034 16.503 13 16 13c-3.214 0-6.138 1.396-8.269 3.682a1 1 0 1 1-1.462-1.364C8.745 12.661 12.186 11 16 11c1.096 0 2.163.139 3.186.398l3.255-3.255A18.564 18.564 0 0 0 16 7c-4.817 0-9.171 1.815-12.32 4.733a1 1 0 1 1-1.36-1.466C5.838 7.007 10.677 5 16 5a20.5 20.5 0 0 1 7.982 1.602l2.31-2.309ZM16 21c.817 0 1.576.333 2.117.883.542.542.883 1.29.883 2.117a3.001 3.001 0 0 1-6 0c0-.827.335-1.577.883-2.117A2.988 2.988 0 0 1 16 21Zm0 2a.99.99 0 0 0-.704.296l-.008.009A.96.96 0 0 0 15 24a1.001 1.001 0 0 0 2 0 .99.99 0 0 0-.296-.704l-.009-.008A.974.974 0 0 0 16 23Zm1.038-4.996a1 1 0 0 1 1.235-.689 8.118 8.118 0 0 1 3.421 1.966 1 1 0 0 1-1.388 1.439 6.12 6.12 0 0 0-2.58-1.48 1 1 0 0 1-.688-1.236Zm5.146-4.332a1 1 0 0 1 1.394-.238c.778.55 1.5 1.183 2.153 1.884a1 1 0 1 1-1.462 1.364 12.03 12.03 0 0 0-1.847-1.617 1 1 0 0 1-.238-1.393Zm4.378-4.605a1 1 0 0 1 1.398-.217c.602.44 1.177.914 1.72 1.417a1 1 0 0 1-1.36 1.466c-.485-.45-1-.873-1.54-1.268a1 1 0 0 1-.218-1.398Z"/>
</svg>
