<svg xmlns="http://www.w3.org/2000/svg" width="32" height="32" fill="currentColor" viewBox="0 0 32 32">
  <path fill-rule="evenodd" d="M13 5.071C13 3.41 14.312 2 16 2s3 1.41 3 3.071V7a1 1 0 1 1-2 0V5.071C17 4.448 16.518 4 16 4s-1 .448-1 1.071V7a1 1 0 1 1-2 0V5.071Z" clip-rule="evenodd"/>
  <path fill-rule="evenodd" d="M9.5 13c0-3.783 2.797-7 6.501-7 3.705 0 6.499 3.218 6.499 7v4.642l3.032 3.694.014.019c.547.735.562 1.639.245 2.34-.317.704-1.02 1.305-1.97 1.305H8.17c-.949 0-1.651-.6-1.966-1.307a2.33 2.33 0 0 1 .251-2.336l.015-.02 3.03-3.695V13Zm6.501-5c-2.433 0-4.501 2.148-4.501 5v5.358L8.053 22.56a.33.33 0 0 0-.022.32.247.247 0 0 0 .076.101.096.096 0 0 0 .062.019h15.653a.101.101 0 0 0 .065-.02.263.263 0 0 0 .081-.107.318.318 0 0 0-.018-.312l-3.45-4.203V13c0-2.852-2.066-5-4.499-5Zm3.355 18.066a1 1 0 0 1 .578 1.29C19.337 28.921 17.785 30 16 30c-1.787 0-3.338-1.086-3.934-2.642a1 1 0 0 1 1.868-.716C14.228 27.41 15.024 28 16 28c.978 0 1.772-.587 2.066-1.356a1 1 0 0 1 1.29-.578Z" clip-rule="evenodd"/>
</svg>
