<svg xmlns="http://www.w3.org/2000/svg" width="32" height="32" fill="currentColor" viewBox="0 0 32 32">
  <path fill-rule="evenodd" d="M13 5.071C13 3.41 14.312 2 16 2s3 1.41 3 3.071v1.655c2.283 1.14 4 3.507 4 6.274v4.687l2.557 3.683c.536.732.549 1.629.234 2.326-.317.703-1.02 1.304-1.97 1.304H8.17c-.949 0-1.651-.6-1.966-1.307a2.33 2.33 0 0 1 .241-2.322L9 17.687V13c0-2.766 1.718-5.133 4-6.273V5.07Zm4 0v1.008a6.383 6.383 0 0 0-2 0V5.072C15 4.448 15.482 4 16 4s1 .448 1 1.071ZM16.001 8C13.458 8 11 10.262 11 13v5.313l-2.928 4.22-.009.013a.33.33 0 0 0-.032.334.247.247 0 0 0 .076.101.096.096 0 0 0 .062.019h15.653a.102.102 0 0 0 .065-.02.264.264 0 0 0 .081-.107.317.317 0 0 0-.027-.324l-.01-.014L21 18.313V13c0-2.739-2.456-5-4.999-5Zm3.933 19.356a1 1 0 0 0-1.868-.712C17.772 27.413 16.978 28 16 28c-.976 0-1.772-.59-2.066-1.358a1 1 0 0 0-1.868.716C12.663 28.914 14.213 30 16 30c1.785 0 3.338-1.079 3.934-2.644Z" clip-rule="evenodd"/>
</svg>
