<svg xmlns="http://www.w3.org/2000/svg" width="32" height="32" fill="currentColor" viewBox="0 0 32 32">
  <path fill-rule="evenodd" d="M16 2c-1.688 0-3 1.41-3 3.071v1.656C10.718 7.867 9 10.234 9 13v4.687l-2.556 3.684a2.33 2.33 0 0 0-.24 2.322C6.518 24.4 7.22 25 8.168 25h15.653c.949 0 1.652-.601 1.97-1.304a2.316 2.316 0 0 0-.246-2.341 1 1 0 1 0-1.605 1.194c.066.088.08.207.027.324a.263.263 0 0 1-.081.107.102.102 0 0 1-.065.02H8.169a.096.096 0 0 1-.062-.019.247.247 0 0 1-.076-.1.33.33 0 0 1 .032-.335l.009-.012L11 18.313V13c0-2.738 2.458-5 5.001-5 .764 0 1.133.006 1.496.096.341.084.738.262 1.448.736a1 1 0 0 0 1.11-1.664A10.032 10.032 0 0 0 19 6.541V5.07C19 3.41 17.688 2 16 2Zm1 4.017V5.07C17 4.448 16.518 4 16 4s-1 .448-1 1.071V6.08c.33-.053.665-.08 1.001-.08h.07c.321 0 .628 0 .93.017Zm2.356 20.049a1 1 0 0 1 .578 1.29C19.338 28.921 17.785 30 16 30c-1.787 0-3.337-1.086-3.934-2.642a1 1 0 0 1 1.868-.716C14.228 27.41 15.024 28 16 28c.978 0 1.772-.587 2.066-1.356a1 1 0 0 1 1.29-.578ZM30 14c0 3.31-2.686 6-6 6s-6-2.69-6-6 2.686-6 6-6 6 2.69 6 6Z" clip-rule="evenodd"/>
</svg>
