<svg xmlns="http://www.w3.org/2000/svg" width="32" height="32" fill="currentColor" viewBox="0 0 32 32">
  <path fill-rule="evenodd" d="M25.395 24.05c1.408 0 2.613 1.105 2.605 2.665v2.335a1 1 0 0 1-1 1h-8a1 1 0 0 1-1-1v-2.244c-.008-1.615 1.392-2.756 2.76-2.756h4.635Zm-4.635 2c-.382 0-.763.358-.76.748v1.252h6v-1.343c.003-.427-.279-.657-.605-.657H20.76Z" clip-rule="evenodd"/>
  <path fill-rule="evenodd" d="M18 2a2 2 0 0 1 2 2v1h3a3 3 0 0 1 3 3v6a1 1 0 1 1-2 0V8a1 1 0 0 0-1-1h-3v1a2 2 0 0 1-2 2h-6l-.204-.01A2 2 0 0 1 10 8V7H7a1 1 0 0 0-1 1v19a1 1 0 0 0 1 1h8a1 1 0 1 1 0 2H7a3 3 0 0 1-3-3V8a3 3 0 0 1 3-3h3V4a2 2 0 0 1 2-2h6Zm-6 6h6V4h-6v4Z" clip-rule="evenodd"/>
  <path d="M12.18 20.426a1 1 0 0 1 1.64 1.148l-2.804 4a1 1 0 0 1-1.64-.003L8.18 23.855a1 1 0 0 1 1.64-1.144l.378.543 1.983-2.828Z"/>
  <path fill-rule="evenodd" d="M23 16a3.5 3.5 0 1 1 0 7 3.5 3.5 0 0 1 0-7Zm0 2a1.5 1.5 0 1 0 0 3 1.5 1.5 0 0 0 0-3Z" clip-rule="evenodd"/>
  <path d="M12.18 12.426a1 1 0 0 1 1.64 1.148l-2.804 4a1 1 0 0 1-1.64-.003L8.18 15.854a1 1 0 0 1 1.64-1.143l.378.543 1.983-2.828Z"/>
</svg>
