<svg xmlns="http://www.w3.org/2000/svg" width="32" height="32" fill="currentColor" viewBox="0 0 32 32">
  <path fill-rule="evenodd" d="M10.65 14.24a1 1 0 0 1 .11 1.41L8.316 18.5l2.442 2.85a1 1 0 0 1-1.518 1.3l-3-3.5a1 1 0 0 1 0-1.3l3-3.5a1 1 0 0 1 1.41-.11Zm10.7 0a1 1 0 0 1 1.41.11l3 3.5a1 1 0 0 1 0 1.3l-3 3.5a1 1 0 0 1-1.52-1.3l2.443-2.85-2.442-2.85a1 1 0 0 1 .108-1.41Zm-3.462-3.21a1 1 0 0 1 .727 1.213l-3 12a1 1 0 0 1-1.94-.485l3-12a1 1 0 0 1 1.213-.728Z" clip-rule="evenodd"/>
  <path fill-rule="evenodd" d="M2 8h28v18.069C30 28.16 28.419 30 26.297 30H5.703C3.581 30 2 28.16 2 26.069V8Zm2 2v16.069C4 27.213 4.836 28 5.703 28h20.594c.867 0 1.703-.787 1.703-1.931V10H4Z" clip-rule="evenodd"/>
  <path fill-rule="evenodd" d="M2 5.99C2 3.885 3.564 2 5.704 2h20.592C28.436 2 30 3.885 30 5.99V10H2V5.99ZM5.704 4C4.854 4 4 4.795 4 5.99V8h24V5.99C28 4.795 27.146 4 26.296 4H5.704Z" clip-rule="evenodd"/>
  <path d="M7.247 5h-.494C6.337 5 6 5.31 6 5.691v.618c0 .381.337.691.753.691h.494C7.663 7 8 6.69 8 6.309V5.69C8 5.31 7.663 5 7.247 5Zm3 0h-.494C9.337 5 9 5.31 9 5.691v.618c0 .381.337.691.753.691h.494c.416 0 .753-.31.753-.691V5.69c0-.38-.337-.69-.753-.69Zm3 0h-.494c-.416 0-.753.31-.753.691v.618c0 .381.337.691.753.691h.494c.416 0 .753-.31.753-.691V5.69c0-.38-.337-.69-.753-.69Z"/>
</svg>
