<svg xmlns="http://www.w3.org/2000/svg" width="32" height="32" fill="currentColor" viewBox="0 0 32 32">
  <path fill-rule="evenodd" d="M6 5.496C6 4.656 6.673 4 7.442 4h16.116C24.327 4 25 4.656 25 5.496V12a1 1 0 1 0 2 0V5.496C27 3.593 25.473 2 23.558 2H7.442C5.528 2 4 3.593 4 5.496V8H3a1 1 0 0 0 0 2h4a1 1 0 0 0 0-2H6V5.496ZM6 25.95a1 1 0 1 0-2 0v.554C4 28.407 5.528 30 7.442 30H12a1 1 0 1 0 0-2H7.442C6.673 28 6 27.344 6 26.504v-.554ZM3 22a1 1 0 1 0 0 2h4a1 1 0 1 0 0-2H6v-3a1 1 0 1 0-2 0v3H3Zm-1-6a1 1 0 0 1 1-1h1v-3a1 1 0 1 1 2 0v3h1a1 1 0 1 1 0 2H3a1 1 0 0 1-1-1Zm26-1a1 1 0 0 1 1 1v3a1 1 0 0 1-1 1h-3a1 1 0 1 1 0-2h.82c-.89-.66-1.996-1-3.32-1-3.134 0-5.5 2.17-5.5 5a1 1 0 1 1-2 0c0-4.115 3.451-7 7.5-7 1.691 0 3.227.444 4.5 1.384V16a1 1 0 0 1 1-1ZM17 25a1 1 0 0 0-1 1v3a1 1 0 1 0 2 0v-.502A7.465 7.465 0 0 0 22.5 30c4.067 0 7.5-3.059 7.5-7a1 1 0 1 0-2 0c0 2.689-2.384 5-5.5 5-1.2 0-2.262-.376-3.158-1H20a1 1 0 1 0 0-2h-3Z" clip-rule="evenodd"/>
</svg>
