<svg xmlns="http://www.w3.org/2000/svg" width="32" height="32" fill="none" viewBox="0 0 32 32">
  <path fill="#3D3C3C" fill-rule="evenodd" d="m21.333 2.272.003.002 3.36 2.035.002.001c.9.542 1.18 1.712.685 2.611l-4.05-4.649Zm0 0 4.05 4.651-1.142 2.08c.694.9 1.26 1.918 1.666 3.02h2.202c1.096 0 1.891.922 1.891 1.936V17a1 1 0 1 1-2 0v-2.976h-2.187c-.78 0-1.494-.488-1.761-1.251a9.388 9.388 0 0 0-1.414-2.573 1.968 1.968 0 0 1-.16-2.141l1.134-2.068-3.191-1.933-1.093 1.986c-.36.657-1.107 1.106-1.937.96a8.483 8.483 0 0 0-2.787 0H14.6c-.809.133-1.56-.287-1.929-.96L11.58 4.059 8.388 5.99 9.52 8.058a1.97 1.97 0 0 1-.152 2.133l-.005.006-.004.006a9.219 9.219 0 0 0-1.413 2.575l-.001.003a1.878 1.878 0 0 1-1.76 1.243H4v3.952h2.187c.78 0 1.494.488 1.762 1.251A9.387 9.387 0 0 0 9.363 21.8a1.97 1.97 0 0 1 .158 2.142L8.388 26.01l3.191 1.933 1.093-1.986c.36-.657 1.107-1.106 1.937-.96.453.076.917.116 1.391.116.514 0 1.41-.045 1.836-.116a1 1 0 0 1 .328 1.973c-.588.098-1.611.143-2.164.143-.551 0-1.089-.044-1.613-.125l-1.112 2.02c-.5.927-1.674 1.293-2.608.721l-.003-.002-3.36-2.035-.002-.001c-.9-.542-1.18-1.713-.684-2.612l1.141-2.082c-.694-.9-1.26-1.917-1.666-3.02H3.891c-1.096 0-1.891-.92-1.891-1.935V13.96c0-1.03.81-1.935 1.891-1.935h2.202a11.212 11.212 0 0 1 1.666-3.02l-1.14-2.08a1.96 1.96 0 0 1 .676-2.61l.006-.003 3.372-2.043c.928-.556 2.09-.205 2.6.72l1.114 2.025a10.469 10.469 0 0 1 3.226 0l1.111-2.02c.501-.927 1.675-1.293 2.609-.721ZM21 21a1 1 0 0 1 1-1h7a1 1 0 1 1 0 2h-7a1 1 0 0 1-1-1Zm0 4a1 1 0 0 1 1-1h7a1 1 0 1 1 0 2h-7a1 1 0 0 1-1-1Zm1 3a1 1 0 1 0 0 2h7a1 1 0 1 0 0-2h-7Zm-9.944-11.315a4.009 4.009 0 0 1 4.63-4.629c1.648.272 2.99 1.614 3.258 3.258a4.009 4.009 0 0 1-4.63 4.63c-1.648-.272-2.99-1.614-3.258-3.258Zm4.954-6.603a6.009 6.009 0 0 0-6.928 6.926c.408 2.494 2.415 4.498 4.907 4.91h.001a6.008 6.008 0 0 0 6.928-6.926c-.408-2.494-2.415-4.498-4.907-4.91h-.001Z" clip-rule="evenodd"/>
</svg>
