<svg xmlns="http://www.w3.org/2000/svg" width="32" height="32" fill="currentColor" viewBox="0 0 32 32">
  <path d="M29 28a1 1 0 1 1 0 2H19a1 1 0 0 1 0-2h10ZM16.172 2.918c.464-.854 1.55-1.193 2.417-.664v-.001l2.851 1.726c.834.503 1.09 1.583.633 2.413l.001.001-.92 1.676a9.77 9.77 0 0 1 1.333 2.414h1.76c1.02 0 1.753.856 1.753 1.792v3.411c-.003.22-.02.535-.115.816a1.467 1.467 0 0 1-.476.69 1.48 1.48 0 0 1-.872.309c-.275.01-.67.01-.982.008a57.827 57.827 0 0 1-.528-.006l-.033-.001h-.013a1 1 0 0 1 .038-2h.042l.118.003.391.004H24v-3.028h-1.696c-.723 0-1.384-.45-1.634-1.155l-.112-.292a7.79 7.79 0 0 0-.883-1.607l-.18-.24a1.82 1.82 0 0 1-.148-1.981l.887-1.62-2.436-1.477-.847 1.541c-.332.604-1.022 1.023-1.795.889a7.025 7.025 0 0 0-2.312 0h-.003a1.722 1.722 0 0 1-1.724-.776l-.068-.113-.848-1.54-2.436 1.476.888 1.62a1.82 1.82 0 0 1-.141 1.972l-.01.012a7.653 7.653 0 0 0-1.172 2.136v.002a1.743 1.743 0 0 1-1.634 1.153H4v3.037h1.696c.723 0 1.384.45 1.634 1.155a7.795 7.795 0 0 0 1.175 2.14l.08.11c.373.566.382 1.296.067 1.87l-.887 1.62L10.2 23.89l.848-1.54.067-.111c.352-.543 1.003-.903 1.727-.778.377.063.763.096 1.157.096a1 1 0 1 1 0 2c-.437 0-.864-.034-1.281-.094l-.887 1.612c-.462.86-1.552 1.204-2.422.674l-2.85-1.726c-.835-.504-1.09-1.586-.633-2.416l.918-1.675a9.787 9.787 0 0 1-1.332-2.413h-1.76C2.734 17.52 2 16.663 2 15.727v-3.453c0-.95.748-1.792 1.754-1.792h1.759a9.637 9.637 0 0 1 1.33-2.414l-.917-1.676a1.812 1.812 0 0 1 .628-2.41l.006-.004 2.85-1.726.004-.002a1.727 1.727 0 0 1 2.317.511l.096.155h.001l.89 1.622c.418-.06.845-.094 1.282-.094.437 0 .863.034 1.28.094l.892-1.621ZM29 24a1 1 0 1 1 0 2H19a1 1 0 0 1 0-2h10Zm0-4a1 1 0 1 1 0 2H19a1 1 0 0 1 0-2h10ZM9.068 14.84a5.007 5.007 0 0 1 5.772-5.77 5.001 5.001 0 0 1 4.092 4.092l.042.318a5.006 5.006 0 0 1-5.814 5.452 5.006 5.006 0 0 1-4.056-3.9l-.036-.192Zm5.448-3.798a3.008 3.008 0 0 0-3.474 3.474v.001a3.003 3.003 0 0 0 2.442 2.442 3.008 3.008 0 0 0 3.474-3.474 3.002 3.002 0 0 0-2.442-2.442v-.001Z"/>
</svg>
