<svg xmlns="http://www.w3.org/2000/svg" width="32" height="32" fill="currentColor" viewBox="0 0 32 32">
  <path d="M23 16a7 7 0 1 1 0 14 7 7 0 0 1-7-7 7 7 0 0 1 7-7Zm0 2a5 5 0 0 0-5 5 5 5 0 1 0 10 0 5 5 0 0 0-5-5ZM16.172 2.916c.464-.853 1.55-1.192 2.417-.664l2.851 1.726c.834.502 1.09 1.583.633 2.413h.001l-.92 1.677c.548.725 1 1.537 1.333 2.414h1.76c1.02 0 1.753.856 1.753 1.792v.141l-.04.137-.5 1.727a1.001 1.001 0 0 1-1.92-.557l.358-1.24h-1.594c-.723 0-1.384-.45-1.634-1.156l-.112-.292a7.79 7.79 0 0 0-.883-1.606l-.18-.241a1.82 1.82 0 0 1-.148-1.98l.887-1.62-2.436-1.477-.847 1.54c-.332.605-1.022 1.023-1.795.89a7.025 7.025 0 0 0-2.312 0h-.003a1.722 1.722 0 0 1-1.724-.776l-.068-.113L10.2 4.11 7.765 5.586l.888 1.62a1.82 1.82 0 0 1-.141 1.973l-.01.012a7.653 7.653 0 0 0-1.172 2.135v.002a1.743 1.743 0 0 1-1.634 1.154H4v3.037h1.696c.723 0 1.384.45 1.634 1.155a7.794 7.794 0 0 0 1.175 2.14l.08.11c.373.566.382 1.296.067 1.87l-.887 1.62L10.2 23.89l.848-1.54.067-.112c.352-.542 1.003-.903 1.727-.778a7.01 7.01 0 0 0 1.157.097 1 1 0 1 1 0 2 8.98 8.98 0 0 1-1.281-.095l-.887 1.613c-.462.86-1.552 1.204-2.422.673v.001l-2.85-1.726v-.001c-.835-.503-1.09-1.585-.633-2.415l.918-1.675a9.785 9.785 0 0 1-1.332-2.413h-1.76c-1.02 0-1.753-.856-1.753-1.792v-3.453c0-.951.748-1.792 1.754-1.792h1.759a9.638 9.638 0 0 1 1.33-2.414l-.917-1.676V6.39a1.812 1.812 0 0 1 .628-2.41l.006-.003L9.41 2.25l.004-.002a1.727 1.727 0 0 1 2.317.512l.096.154.001.001.89 1.621c.418-.06.845-.093 1.282-.093.437 0 .863.034 1.28.093l.892-1.62Zm8.009 17.51a1 1 0 0 1 1.638 1.149l-2.803 4a1 1 0 0 1-1.64-.003l-1.196-1.717a1 1 0 0 1 1.64-1.144l.378.543 1.983-2.828ZM9.068 14.839a5.007 5.007 0 0 1 5.772-5.77 5.001 5.001 0 0 1 4.092 4.092l.042.319a5.006 5.006 0 0 1-5.814 5.452 5.006 5.006 0 0 1-4.056-3.9l-.036-.193Zm5.448-3.798a3.008 3.008 0 0 0-3.474 3.475 3.003 3.003 0 0 0 2.442 2.442 3.008 3.008 0 0 0 3.474-3.473v-.001a3.002 3.002 0 0 0-2.442-2.442Z"/>
</svg>
