<svg xmlns="http://www.w3.org/2000/svg" width="32" height="32" fill="currentColor" viewBox="0 0 32 32">
  <path fill-rule="evenodd" d="M13 4h6v4h-6V4Zm-2 0a2 2 0 0 1 2-2h6a2 2 0 0 1 2 2v1h3a3 3 0 0 1 3 3v19a3 3 0 0 1-3 3H8a3 3 0 0 1-3-3V8a3 3 0 0 1 3-3h3V4Zm0 3H8a1 1 0 0 0-1 1v19a1 1 0 0 0 1 1h16a1 1 0 0 0 1-1V8a1 1 0 0 0-1-1h-3v1a2 2 0 0 1-2 2h-6a2 2 0 0 1-2-2V7Zm11.574 5.181a1 1 0 0 1 .245 1.393l-2.803 4a1 1 0 0 1-1.64-.002l-1.197-1.717a1 1 0 0 1 1.641-1.144l.379.543 1.982-2.828a1 1 0 0 1 1.393-.245ZM10 15a1 1 0 1 0 0 2h4a1 1 0 1 0 0-2h-4Zm0 7a1 1 0 1 0 0 2h4a1 1 0 1 0 0-2h-4Zm12.819-1.426a1 1 0 0 0-1.638-1.148L19.2 22.254l-.379-.543a1 1 0 0 0-1.64 1.144l1.196 1.717a1 1 0 0 0 1.64.002l2.803-4Z" clip-rule="evenodd"/>
</svg>
