<svg xmlns="http://www.w3.org/2000/svg" width="32" height="32" fill="currentColor" viewBox="0 0 32 32">
  <path fill-rule="evenodd" d="M10 23a1 1 0 0 1 1-1h3a1 1 0 1 1 0 2h-3a1 1 0 0 1-1-1Zm0-7a1 1 0 0 1 1-1h3a1 1 0 1 1 0 2h-3a1 1 0 0 1-1-1Z" clip-rule="evenodd"/>
  <path fill-rule="evenodd" d="M9.713 7C8.823 7 8 7.783 8 8.874v17.252C8 27.22 8.816 28 9.713 28h13.574c.89 0 1.713-.783 1.713-1.874V8.874C25 7.78 24.184 7 23.287 7H21a1 1 0 1 1 0-2h2.287C25.397 5 27 6.788 27 8.874v17.252C27 28.214 25.386 30 23.287 30H9.713C7.603 30 6 28.212 6 26.126V8.874C6 6.786 7.614 5 9.713 5H11.5a1 1 0 1 1 0 2H9.713Z" clip-rule="evenodd"/>
  <path fill-rule="evenodd" d="M13 4v4h7V4h-7Zm-2-.035A1.96 1.96 0 0 1 12.954 2h7.092A1.96 1.96 0 0 1 22 3.965v4.07A1.96 1.96 0 0 1 20.046 10h-7.092A1.96 1.96 0 0 1 11 8.035v-4.07Zm11.574 8.216a1 1 0 0 1 .245 1.393l-2.803 4a1 1 0 0 1-1.64-.002l-1.197-1.717a1 1 0 0 1 1.641-1.144l.379.543 1.982-2.828a1 1 0 0 1 1.393-.245Zm0 7a1 1 0 0 1 .245 1.393l-2.803 4a1 1 0 0 1-1.64-.002l-1.197-1.717a1 1 0 0 1 1.641-1.144l.379.543 1.982-2.828a1 1 0 0 1 1.393-.245Z" clip-rule="evenodd"/>
</svg>
