<svg xmlns="http://www.w3.org/2000/svg" width="32" height="32" fill="currentColor" viewBox="0 0 32 32">
  <path fill-rule="evenodd" d="M12 6a2 2 0 0 1 2-2h4a2 2 0 0 1 2 2v4a2 2 0 0 1-2 2h-1v3h9a1 1 0 0 1 1 1v4h1a2 2 0 0 1 2 2v4a2 2 0 0 1-2 2h-4a2 2 0 0 1-2-2v-4a2 2 0 0 1 2-2h1v-3h-8v3h1a2 2 0 0 1 2 2v4a2 2 0 0 1-2 2h-4a2 2 0 0 1-2-2v-4a2 2 0 0 1 2-2h1v-3H7v3h1a2 2 0 0 1 2 2v4a2 2 0 0 1-2 2H4a2 2 0 0 1-2-2v-4a2 2 0 0 1 2-2h1v-4a1 1 0 0 1 1-1h9v-3h-1a2 2 0 0 1-2-2V6Zm6 0h-4v4h4V6ZM4 22v4h4v-4H4Zm10 0h4v4h-4v-4Zm10 0v4h4v-4h-4Z" clip-rule="evenodd"/>
</svg>
