<svg xmlns="http://www.w3.org/2000/svg" width="32" height="32" fill="currentColor" viewBox="0 0 32 32">
  <path fill-rule="evenodd" d="M27.931 13.273c-6.174-7.03-17.688-7.03-23.862 0h23.862Zm0 0 1.82 2.07a1 1 0 0 1 0 1.32l-1.82 2.07c-6.183 7.021-17.688 7.023-23.862 0l-1.82-2.07a1 1 0 0 1 0-1.32l1.82-2.07m22.36 1.32c-5.378-6.124-15.48-6.124-20.858 0l-1.24 1.41 1.24 1.41c5.377 6.116 15.471 6.117 20.858 0l1.24-1.41-1.24-1.41Z" clip-rule="evenodd"/>
  <path fill-rule="evenodd" d="M16 14a2 2 0 1 0 0 4 2 2 0 0 0 0-4Zm-4 2a4 4 0 1 1 8 0 4 4 0 0 1-8 0Z" clip-rule="evenodd"/>
</svg>
