<svg xmlns="http://www.w3.org/2000/svg" width="32" height="32" fill="currentColor" viewBox="0 0 32 32">
  <path fill-rule="evenodd" d="m29.793 15.394-1.82-2.365c-6.176-8.038-17.77-8.038-23.946 0l-1.82 2.365a1 1 0 0 0 0 1.22l1.82 2.365c6.177 8.028 17.76 8.027 23.946 0l1.82-2.365a1 1 0 0 0 0-1.22Zm-24.18-1.146c5.375-6.997 15.399-6.997 20.774 0l1.351 1.756-1.35 1.755c-5.386 6.988-15.4 6.987-20.775 0l-1.351-1.755 1.351-1.756ZM13 16a3 3 0 1 1 6 0 3 3 0 0 1-6 0Zm3-5a5 5 0 1 0 0 10 5 5 0 0 0 0-10Z" clip-rule="evenodd"/>
</svg>
