<svg xmlns="http://www.w3.org/2000/svg" width="32" height="32" fill="currentColor" viewBox="0 0 32 32">
  <path fill-rule="evenodd" d="M13.073 13.273a4 4 0 1 0 5.853 5.453 4 4 0 0 0-5.853-5.453ZM14 16a2 2 0 1 1 4 0 2 2 0 0 1-4 0Z" clip-rule="evenodd"/>
  <path fill-rule="evenodd" d="M4.069 13.273c6.174-7.03 17.688-7.03 23.862 0l1.82 2.07a1 1 0 0 1 0 1.32l-1.82 2.07c-6.183 7.021-17.688 7.023-23.862 0l-1.82-2.07a1 1 0 0 1 0-1.32l1.82-2.07Zm21.02 0c.473.403.92.843 1.34 1.32l1.24 1.41-1.24 1.41c-5.387 6.117-15.48 6.116-20.858 0l-1.24-1.41 1.24-1.41a13.09 13.09 0 0 1 1.34-1.32c5.112-4.364 13.066-4.364 18.179 0Z" clip-rule="evenodd"/>
</svg>
