<svg xmlns="http://www.w3.org/2000/svg" width="32" height="32" fill="currentColor" viewBox="0 0 32 32">
  <path fill-rule="evenodd" d="M26.609 6.22c-1.501-.435-5.44-1.7-9.733-3.994a1.834 1.834 0 0 0-1.764 0 52.573 52.573 0 0 1-9.72 4.002C4.602 6.452 4 7.161 4 8.025v11.12c0 2.45 1.778 4.562 3.667 6.15 1.94 1.633 4.27 2.938 5.885 3.748a1 1 0 0 0 .896-1.787c-1.558-.782-3.728-2.006-5.494-3.491C7.136 22.236 6 20.642 6 19.145V8.135a54.607 54.607 0 0 0 9.996-4.112C20.378 6.356 24.388 7.656 26 8.125V14a1 1 0 1 0 2 0V8.015c0-.882-.62-1.563-1.38-1.793l-.011-.003ZM16.6 29.41c.38.38.89.59 1.42.59v-.01c.17 0 .33-.02.5-.06l2.43-.61c.17-.04.33-.13.46-.26l7.66-7.66a3.163 3.163 0 0 0 0-4.48 3.18 3.18 0 0 0-4.48 0l-7.66 7.68c-.12.12-.22.28-.26.46l-.61 2.43h.01c-.18.7.02 1.41.53 1.92Zm1.4-1.43v-.01l.54-2.16 7.47-7.47c.45-.46 1.19-.46 1.65 0 .45.46.45 1.2 0 1.65l-7.46 7.46-2.2.53Z" clip-rule="evenodd"/>
</svg>
