<svg xmlns="http://www.w3.org/2000/svg" width="32" height="32" fill="currentColor" viewBox="0 0 32 32">
  <path fill-rule="evenodd" d="M16.877 2.226c4.291 2.293 8.23 3.56 9.732 3.993l.011.003c.76.23 1.38.911 1.38 1.793V14a1 1 0 1 1-2 0V8.125c-1.612-.469-5.622-1.769-10.004-4.103A54.608 54.608 0 0 1 6 8.134v11.012c0 1.496 1.136 3.09 2.954 4.619 1.766 1.485 3.936 2.709 5.494 3.49a1 1 0 1 1-.896 1.788c-1.615-.81-3.945-2.115-5.885-3.747C5.777 23.707 4 21.595 4 19.146V8.025c0-.864.602-1.573 1.392-1.797a52.573 52.573 0 0 0 9.72-4.001 1.834 1.834 0 0 1 1.764-.001Z" clip-rule="evenodd"/>
  <path d="M18.02 30c-.53 0-1.04-.21-1.42-.59-.51-.51-.71-1.22-.53-1.92h-.01l.61-2.43c.04-.18.14-.34.26-.46l7.66-7.68a3.18 3.18 0 0 1 4.48 0 3.163 3.163 0 0 1 0 4.48l-7.66 7.66c-.13.13-.29.22-.46.26l-2.43.61c-.17.04-.33.06-.5.06V30ZM18 27.97v.01l2.2-.53 7.46-7.46c.45-.45.45-1.19 0-1.65-.46-.46-1.2-.46-1.65 0l-7.47 7.47-.54 2.16Z"/>
</svg>
