<svg xmlns="http://www.w3.org/2000/svg" width="32" height="32" fill="none" viewBox="0 0 32 32">
  <path fill="#3D3C3C" fill-rule="evenodd" d="M8.37 3.008h-.002a1 1 0 0 0-1.119 1.1l.378 3.489a10.981 10.981 0 0 0-2.975 4.693H3a1 1 0 0 0-1 1v5.319a1 1 0 0 0 1 1h2.027a11.175 11.175 0 0 0 2.94 3.966v2.874C7.967 27.88 9.14 29 10.555 29h.846c1.096 0 2.1-.681 2.46-1.74l.294-.862a12.863 12.863 0 0 0 3.852 0l.294.862c.36 1.06 1.364 1.74 2.46 1.74h.845c1.402 0 2.588-1.116 2.588-2.551v-2.874c2.26-1.96 3.717-4.743 3.802-7.862a3.25 3.25 0 0 0 1.592-1.574c.51-1.049.474-1.98.278-2.665a3.382 3.382 0 0 0-.483-1.012 2.318 2.318 0 0 0-.073-.094l-.008-.01-.003-.004-.002-.002-.001-.001a1 1 0 0 0-1.534 1.284l.003.003a1.384 1.384 0 0 1 .179.386c.075.264.116.683-.156 1.241l-.003.006-.005.01c-1.074-5.16-5.957-8.979-11.7-8.979a12.63 12.63 0 0 0-3.777.567c-.767-.729-1.645-1.172-2.348-1.44a8.242 8.242 0 0 0-1.44-.399 4.405 4.405 0 0 0-.1-.016l-.03-.004-.01-.001H8.37Zm3.695 5.988c-.039-1.051-.38-1.786-.82-2.334-.518-.632-1.214-1.043-1.849-1.303l.274 2.532a1 1 0 0 1-.343.867c-1.466 1.256-2.51 2.911-2.938 4.758a1 1 0 0 1-.974.774H4v3.319h1.706a1 1 0 0 1 .942.663c.563 1.577 1.593 2.978 2.942 4.052a1 1 0 0 1 .377.782v3.343c0 .286.237.551.588.551h.846a.588.588 0 0 0 .566-.383l.574-1.682a1 1 0 0 1 1.162-.654 10.933 10.933 0 0 0 4.754 0 1 1 0 0 1 1.164.654l.574 1.682c.072.214.29.383.565.383h.846a.571.571 0 0 0 .588-.551v-3.343a1 1 0 0 1 .377-.782C24.686 20.639 26 18.165 26 15.423c0-4.965-4.366-9.12-9.92-9.12-.883 0-1.733.102-2.542.298.3.66.493 1.429.525 2.321a1 1 0 1 1-1.998.074ZM16.3 10.06c.253-.08 1.043-.117 1.933.129.874.241 1.565.679 1.882 1.278a1 1 0 0 0 1.768-.934c-.683-1.294-1.992-1.961-3.118-2.272-1.11-.307-2.32-.344-3.067-.108a1 1 0 0 0 .602 1.907Zm-5.406 3.061c0 .77-.627 1.393-1.4 1.393-.774 0-1.4-.623-1.4-1.393 0-.769.626-1.392 1.4-1.392.773 0 1.4.623 1.4 1.393Z" clip-rule="evenodd"/>
</svg>
