<svg xmlns="http://www.w3.org/2000/svg" width="33" height="32" fill="currentColor" viewBox="0 0 33 32">
  <path d="M20.982 2.29a.988.988 0 0 1 1.403 0l7.965 8h.01a1 1 0 0 1 0 1.41l-9.247 9.288c.988 1.147 1.541 2.547 1.541 4.003 0 1.77-.816 3.46-2.29 4.75A1 1 0 0 1 19 29.7l-7.262-7.297-7.332 7.366a.98.98 0 0 1-.708.29v.01c-.258 0-.507-.1-.707-.29a.999.999 0 0 1 0-1.41l7.342-7.375L3.072 13.7a.995.995 0 0 1-.05-1.36c1.284-1.48 2.966-2.3 4.728-2.3 1.436 0 2.813.545 3.974 1.548l9.258-9.298Z"/>
</svg>
