<svg xmlns="http://www.w3.org/2000/svg" width="32" height="32" fill="none" viewBox="0 0 32 32">
  <path fill="#3D3C3C" fill-rule="evenodd" d="m29.707 10.293-8-8a1 1 0 0 0-1.414 0l-9.283 9.283C9.844 10.542 8.435 10 6.997 10c-1.764 0-3.48.815-4.759 2.352a.995.995 0 0 0-.104 1.149c.044.076.1.148.165.212L9.586 21l-7.36 7.36a1 1 0 1 0 1.414 1.414l7.36-7.36 7.287 7.287a.997.997 0 0 0 1.358.063c1.54-1.278 2.355-2.995 2.355-4.76 0-1.44-.542-2.848-1.576-4.014l9.283-9.283a1 1 0 0 0 0-1.414ZM21 4.414 27.586 11 19 19.586 12.414 13 21 4.414Zm-10.754 9.243a.986.986 0 0 0 .054.058l7.986 7.985.029.029.008.008m.048.04c1.117.934 1.629 2.104 1.629 3.226 0 .882-.316 1.791-.992 2.59l-14.602-14.6c.8-.677 1.71-.993 2.59-.993 1.123 0 2.293.512 3.227 1.63l.003.004a.887.887 0 0 0 .02.023" clip-rule="evenodd"/>
</svg>
