<svg xmlns="http://www.w3.org/2000/svg" width="32" height="32" fill="currentColor" viewBox="0 0 32 32">
  <path d="M4.252 28h-.504c-.413 0-.748.311-.748.695v.61c0 .384.335.695.748.695h.504c.413 0 .748-.311.748-.695v-.61C5 28.31 4.665 28 4.252 28Zm3 0h-.504c-.413 0-.748.311-.748.695v.61c0 .384.335.695.748.695h.504c.413 0 .748-.311.748-.695v-.61C8 28.31 7.665 28 7.252 28Zm3 0h-.504c-.413 0-.748.311-.748.695v.61c0 .384.335.695.748.695h.504c.413 0 .748-.311.748-.695v-.61c0-.384-.335-.695-.748-.695Zm3 0h-.504c-.413 0-.748.311-.748.695v.61c0 .384.335.695.748.695h.504c.413 0 .748-.311.748-.695v-.61c0-.384-.335-.695-.748-.695Zm3 0h-.504c-.413 0-.748.311-.748.695v.61c0 .384.335.695.748.695h.504c.413 0 .748-.311.748-.695v-.61c0-.384-.335-.695-.748-.695Zm3 0h-.504c-.413 0-.748.311-.748.695v.61c0 .384.335.695.748.695h.504c.413 0 .748-.311.748-.695v-.61c0-.384-.335-.695-.748-.695Zm3 0h-.504c-.413 0-.748.311-.748.695v.61c0 .384.335.695.748.695h.504c.413 0 .748-.311.748-.695v-.61c0-.384-.335-.695-.748-.695Zm3 0h-.504c-.413 0-.748.311-.748.695v.61c0 .384.335.695.748.695h.504c.413 0 .748-.311.748-.695v-.61c0-.384-.335-.695-.748-.695Zm3 0h-.504c-.413 0-.748.311-.748.695v.61c0 .384.335.695.748.695h.504c.413 0 .748-.311.748-.695v-.61c0-.384-.335-.695-.748-.695Zm-24-26h-.504C3.335 2 3 2.311 3 2.695v.61c0 .384.335.695.748.695h.504C4.665 4 5 3.689 5 3.305v-.61C5 2.31 4.665 2 4.252 2Zm3 0h-.504C6.335 2 6 2.311 6 2.695v.61c0 .384.335.695.748.695h.504C7.665 4 8 3.689 8 3.305v-.61C8 2.31 7.665 2 7.252 2Zm3 0h-.504C9.335 2 9 2.311 9 2.695v.61c0 .384.335.695.748.695h.504c.413 0 .748-.311.748-.695v-.61C11 2.31 10.665 2 10.252 2Zm3 0h-.504c-.413 0-.748.311-.748.695v.61c0 .384.335.695.748.695h.504c.413 0 .748-.311.748-.695v-.61C14 2.31 13.665 2 13.252 2Zm3 0h-.504c-.413 0-.748.311-.748.695v.61c0 .384.335.695.748.695h.504c.413 0 .748-.311.748-.695v-.61C17 2.31 16.665 2 16.252 2Zm3 0h-.504c-.413 0-.748.311-.748.695v.61c0 .384.335.695.748.695h.504c.413 0 .748-.311.748-.695v-.61C20 2.31 19.665 2 19.252 2Zm3 0h-.504c-.413 0-.748.311-.748.695v.61c0 .384.335.695.748.695h.504c.413 0 .748-.311.748-.695v-.61C23 2.31 22.665 2 22.252 2Zm3 0h-.504c-.413 0-.748.311-.748.695v.61c0 .384.335.695.748.695h.504c.413 0 .748-.311.748-.695v-.61C26 2.31 25.665 2 25.252 2Zm3 0h-.504c-.413 0-.748.311-.748.695v.61c0 .384.335.695.748.695h.504c.413 0 .748-.311.748-.695v-.61C29 2.31 28.665 2 28.252 2Zm-25 4h-.504C2.335 6 2 6.311 2 6.695v.61c0 .384.335.695.748.695h.504C3.665 8 4 7.689 4 7.305v-.61C4 6.31 3.665 6 3.252 6Zm0 3h-.504C2.335 9 2 9.311 2 9.695v.61c0 .384.335.695.748.695h.504c.413 0 .748-.311.748-.695v-.61C4 9.31 3.665 9 3.252 9Zm0 3h-.504c-.413 0-.748.311-.748.695v.61c0 .384.335.695.748.695h.504c.413 0 .748-.311.748-.695v-.61C4 12.31 3.665 12 3.252 12Zm0 3h-.504c-.413 0-.748.311-.748.695v.61c0 .384.335.695.748.695h.504c.413 0 .748-.311.748-.695v-.61C4 15.31 3.665 15 3.252 15Zm0 3h-.504c-.413 0-.748.311-.748.695v.61c0 .384.335.695.748.695h.504c.413 0 .748-.311.748-.695v-.61C4 18.31 3.665 18 3.252 18Zm0 3h-.504c-.413 0-.748.311-.748.695v.61c0 .384.335.695.748.695h.504c.413 0 .748-.311.748-.695v-.61C4 21.31 3.665 21 3.252 21Zm0 3h-.504c-.413 0-.748.311-.748.695v.61c0 .384.335.695.748.695h.504c.413 0 .748-.311.748-.695v-.61C4 24.31 3.665 24 3.252 24Zm26-18h-.504c-.413 0-.748.311-.748.695v.61c0 .384.335.695.748.695h.504c.413 0 .748-.311.748-.695v-.61C30 6.31 29.665 6 29.252 6Zm0 3h-.504c-.413 0-.748.311-.748.695v.61c0 .384.335.695.748.695h.504c.413 0 .748-.311.748-.695v-.61C30 9.31 29.665 9 29.252 9Zm0 3h-.504c-.413 0-.748.311-.748.695v.61c0 .384.335.695.748.695h.504c.413 0 .748-.311.748-.695v-.61c0-.384-.335-.695-.748-.695Zm0 3h-.504c-.413 0-.748.311-.748.695v.61c0 .384.335.695.748.695h.504c.413 0 .748-.311.748-.695v-.61c0-.384-.335-.695-.748-.695Zm0 3h-.504c-.413 0-.748.311-.748.695v.61c0 .384.335.695.748.695h.504c.413 0 .748-.311.748-.695v-.61c0-.384-.335-.695-.748-.695Zm0 3h-.504c-.413 0-.748.311-.748.695v.61c0 .384.335.695.748.695h.504c.413 0 .748-.311.748-.695v-.61c0-.384-.335-.695-.748-.695Zm0 3h-.504c-.413 0-.748.311-.748.695v.61c0 .384.335.695.748.695h.504c.413 0 .748-.311.748-.695v-.61c0-.384-.335-.695-.748-.695Z"/>
  <path fill-rule="evenodd" d="M11.371 11a.371.371 0 0 0-.371.371v9.258a.37.37 0 0 0 .371.371h9.258a.371.371 0 0 0 .371-.371V11.37a.371.371 0 0 0-.371-.371H11.37ZM9 11.371A2.371 2.371 0 0 1 11.371 9h9.258A2.371 2.371 0 0 1 23 11.371v9.258A2.371 2.371 0 0 1 20.629 23H11.37A2.371 2.371 0 0 1 9 20.629V11.37Z" clip-rule="evenodd"/>
</svg>
