<svg xmlns="http://www.w3.org/2000/svg" width="32" height="32" fill="currentColor" viewBox="0 0 32 32">
  <path fill-rule="evenodd" d="M4.252 2h-.504C3.335 2 3 2.311 3 2.695v.61c0 .384.335.695.748.695h.504C4.665 4 5 3.689 5 3.305v-.61C5 2.31 4.665 2 4.252 2ZM5 28.695C5 28.31 4.665 28 4.252 28h-.504c-.413 0-.748.311-.748.695v.61c0 .384.335.695.748.695h.504c.413 0 .748-.311.748-.695v-.61ZM7.252 28h-.504c-.413 0-.748.311-.748.695v.61c0 .384.335.695.748.695h.504c.413 0 .748-.311.748-.695v-.61C8 28.31 7.665 28 7.252 28Zm2.496 0h.504c.413 0 .748.311.748.695v.61c0 .384-.335.695-.748.695h-.504C9.335 30 9 29.689 9 29.305v-.61c0-.384.335-.695.748-.695Zm3.504 0h-.504c-.413 0-.748.311-.748.695v.61c0 .384.335.695.748.695h.504c.413 0 .748-.311.748-.695v-.61c0-.384-.335-.695-.748-.695Zm2.496 0h.504c.413 0 .748.311.748.695v.61c0 .384-.335.695-.748.695h-.504c-.413 0-.748-.311-.748-.695v-.61c0-.384.335-.695.748-.695Zm3.504 0h-.504c-.413 0-.748.311-.748.695v.61c0 .384.335.695.748.695h.504c.413 0 .748-.311.748-.695v-.61c0-.384-.335-.695-.748-.695Zm2.496 0h.504c.413 0 .748.311.748.695v.61c0 .384-.335.695-.748.695h-.504c-.413 0-.748-.311-.748-.695v-.61c0-.384.335-.695.748-.695Zm3.504 0h-.504c-.413 0-.748.311-.748.695v.61c0 .384.335.695.748.695h.504c.413 0 .748-.311.748-.695v-.61c0-.384-.335-.695-.748-.695Zm3 0c.413 0 .748.311.748.695v.61c0 .384-.335.695-.748.695h-.504c-.413 0-.748-.311-.748-.695v-.61c0-.384.335-.695.748-.695h.504ZM6.748 2h.504c.413 0 .748.311.748.695v.61C8 3.69 7.665 4 7.252 4h-.504C6.335 4 6 3.689 6 3.305v-.61C6 2.31 6.335 2 6.748 2Zm3.504 0h-.504C9.335 2 9 2.311 9 2.695v.61c0 .384.335.695.748.695h.504c.413 0 .748-.311.748-.695v-.61C11 2.31 10.665 2 10.252 2Zm2.496 0h.504c.413 0 .748.311.748.695v.61c0 .384-.335.695-.748.695h-.504C12.335 4 12 3.689 12 3.305v-.61c0-.384.335-.695.748-.695Zm3.504 0h-.504c-.413 0-.748.311-.748.695v.61c0 .384.335.695.748.695h.504c.413 0 .748-.311.748-.695v-.61C17 2.31 16.665 2 16.252 2Zm2.496 0h.504c.413 0 .748.311.748.695v.61c0 .384-.335.695-.748.695h-.504C18.335 4 18 3.689 18 3.305v-.61c0-.384.335-.695.748-.695Zm3.504 0h-.504c-.413 0-.748.311-.748.695v.61c0 .384.335.695.748.695h.504c.413 0 .748-.311.748-.695v-.61C23 2.31 22.665 2 22.252 2Zm2.496 0h.504c.413 0 .748.311.748.695v.61c0 .384-.335.695-.748.695h-.504C24.335 4 24 3.689 24 3.305v-.61c0-.384.335-.695.748-.695Zm3.504 0h-.504c-.413 0-.748.311-.748.695v.61c0 .384.335.695.748.695h.504c.413 0 .748-.311.748-.695v-.61C29 2.31 28.665 2 28.252 2ZM2 6.695C2 6.31 2.335 6 2.748 6h.504c.413 0 .748.311.748.695v.61C4 7.69 3.665 8 3.252 8h-.504C2.335 8 2 7.689 2 7.305v-.61ZM2.748 9C2.335 9 2 9.311 2 9.695v.61c0 .384.335.695.748.695h.504c.413 0 .748-.311.748-.695v-.61C4 9.31 3.665 9 3.252 9h-.504ZM2 12.695c0-.384.335-.695.748-.695h.504c.413 0 .748.311.748.695v.61c0 .384-.335.695-.748.695h-.504C2.335 14 2 13.689 2 13.305v-.61ZM2.748 15c-.413 0-.748.311-.748.695v.61c0 .384.335.695.748.695h.504c.413 0 .748-.311.748-.695v-.61C4 15.31 3.665 15 3.252 15h-.504ZM2 18.695c0-.384.335-.695.748-.695h.504c.413 0 .748.311.748.695v.61c0 .384-.335.695-.748.695h-.504C2.335 20 2 19.689 2 19.305v-.61ZM2.748 21c-.413 0-.748.311-.748.695v.61c0 .384.335.695.748.695h.504c.413 0 .748-.311.748-.695v-.61C4 21.31 3.665 21 3.252 21h-.504ZM2 24.695c0-.384.335-.695.748-.695h.504c.413 0 .748.311.748.695v.61c0 .384-.335.695-.748.695h-.504C2.335 26 2 25.689 2 25.305v-.61ZM29.252 6h-.504c-.413 0-.748.311-.748.695v.61c0 .384.335.695.748.695h.504c.413 0 .748-.311.748-.695v-.61C30 6.31 29.665 6 29.252 6Zm-.504 3h.504c.413 0 .748.311.748.695v.61c0 .384-.335.695-.748.695h-.504c-.413 0-.748-.311-.748-.695v-.61c0-.384.335-.695.748-.695Zm.504 3h-.504c-.413 0-.748.311-.748.695v.61c0 .384.335.695.748.695h.504c.413 0 .748-.311.748-.695v-.61c0-.384-.335-.695-.748-.695Zm-.504 3h.504c.413 0 .748.311.748.695v.61c0 .384-.335.695-.748.695h-.504c-.413 0-.748-.311-.748-.695v-.61c0-.384.335-.695.748-.695Zm.504 3h-.504c-.413 0-.748.311-.748.695v.61c0 .384.335.695.748.695h.504c.413 0 .748-.311.748-.695v-.61c0-.384-.335-.695-.748-.695Zm-.504 3h.504c.413 0 .748.311.748.695v.61c0 .384-.335.695-.748.695h-.504c-.413 0-.748-.311-.748-.695v-.61c0-.384.335-.695.748-.695Zm.504 3h-.504c-.413 0-.748.311-.748.695v.61c0 .384.335.695.748.695h.504c.413 0 .748-.311.748-.695v-.61c0-.384-.335-.695-.748-.695ZM11 11.371a.37.37 0 0 1 .371-.371h9.258a.37.37 0 0 1 .371.371v9.258a.371.371 0 0 1-.371.371H11.37a.371.371 0 0 1-.371-.371V11.37ZM11.371 9A2.371 2.371 0 0 0 9 11.371v9.258A2.371 2.371 0 0 0 11.371 23h9.258A2.371 2.371 0 0 0 23 20.629V11.37A2.371 2.371 0 0 0 20.629 9H11.37Z" clip-rule="evenodd"/>
</svg>
