<svg xmlns="http://www.w3.org/2000/svg" width="33" height="32" fill="currentColor" viewBox="0 0 33 32">
  <path d="M18.204 2.01A2 2 0 0 1 20 4v1h3a3 3 0 0 1 3 3v6a1 1 0 1 1-2 0V8a1 1 0 0 0-1-1h-3v1l-.011.204a2 2 0 0 1-1.785 1.785L18 10h-6l-.204-.01A2 2 0 0 1 10 8V7H7a1 1 0 0 0-1 1v19a1 1 0 0 0 1 1h6a1 1 0 1 1 0 2H7a3 3 0 0 1-3-3V8a3 3 0 0 1 3-3h3V4a2 2 0 0 1 1.796-1.99L12 2h6l.204.01Zm5.384 14.912a3.184 3.184 0 0 1 4.482 0 3.161 3.161 0 0 1 0 4.48l-7.663 7.659c-.13.13-.29.22-.46.26l-2.43.609c-.17.04-.332.06-.502.06V30c-.53 0-1.04-.21-1.42-.59-.51-.51-.71-1.22-.53-1.92h-.01l.61-2.43c.04-.18.14-.34.26-.46l7.663-7.678Zm3.07 1.42a1.16 1.16 0 0 0-1.65 0l-7.472 7.469-.54 2.16v.01l2.2-.53 7.463-7.459c.45-.45.45-1.19 0-1.65ZM12 8h6V4h-6v4Z"/>
</svg>
