<svg xmlns="http://www.w3.org/2000/svg" width="32" height="32" fill="currentColor" viewBox="0 0 32 32">
  <path d="M19.204 2.01A2 2 0 0 1 21 4v1h3a3 3 0 0 1 3 3v6a1 1 0 1 1-2 0V8a1 1 0 0 0-1-1h-3v1l-.01.204a2 2 0 0 1-1.786 1.785L19 10h-6l-.204-.01A2 2 0 0 1 11 8V7H8a1 1 0 0 0-1 1v19a1 1 0 0 0 1 1h6a1 1 0 1 1 0 2H8a3 3 0 0 1-3-3V8a3 3 0 0 1 3-3h3V4a2 2 0 0 1 1.796-1.99L13 2h6l.204.01ZM23 16a7 7 0 1 1 0 14 7 7 0 0 1-7-7 7 7 0 0 1 7-7Zm0 2a5 5 0 0 0-5 5 5 5 0 1 0 10 0 5 5 0 0 0-5-5Zm1.244 2.346a1 1 0 0 1 1.629 1.141l-.054.087-2.803 4a1 1 0 0 1-1.64-.003l-1.196-1.716a1 1 0 0 1 1.64-1.144l.378.543 1.983-2.828.063-.08ZM13 8h6V4h-6v4Z"/>
</svg>
