<svg xmlns="http://www.w3.org/2000/svg" width="32" height="32" fill="currentColor" viewBox="0 0 32 32">
  <path fill-rule="evenodd" d="M17 2.285h.002l10.856 6.351c.037.016.074.034.11.055 1.384.8 1.366 2.801.008 3.604l-10.89 6.42a2.05 2.05 0 0 1-2.086 0h-.002L4.033 12.3H4.03c-1.383-.802-1.364-2.8-.007-3.603l.002-.001 10.889-6.41a2.05 2.05 0 0 1 2.085 0Zm9.99 8.16a1.11 1.11 0 0 1-.028-.016l-10.976-6.42A.053.053 0 0 0 15.958 4a.053.053 0 0 0-.027.008l-10.889 6.41a.075.075 0 0 0-.03.029.111.111 0 0 0-.012.052c0 .022.006.038.01.048a.054.054 0 0 0 .024.021l.004.003 10.976 6.42c.012.007.02.009.028.009a.053.053 0 0 0 .027-.008l10.889-6.419a.075.075 0 0 0 .03-.029.11.11 0 0 0 .012-.052.102.102 0 0 0-.01-.047Zm-1.191 9.043a1 1 0 0 1 1.37-.347l.773.461c1.375.808 1.356 2.81.004 3.618l-10.89 6.49a2.04 2.04 0 0 1-2.094.001l-.002-.001-10.965-6.485-.002-.002c-1.377-.806-1.358-2.81-.006-3.618l.776-.464a1 1 0 1 1 1.025 1.718l-.775.462a.08.08 0 0 0-.032.033.133.133 0 0 0-.014.062c0 .026.006.046.012.057a.06.06 0 0 0 .026.025l.004.003 10.976 6.491a.045.045 0 0 0 .023.008c.005 0 .012 0 .024-.008l10.888-6.489a.082.082 0 0 0 .032-.032.135.135 0 0 0 .015-.062.123.123 0 0 0-.013-.058.06.06 0 0 0-.025-.025l-.008-.004-.776-.463a1 1 0 0 1-.346-1.371Zm1.356-5.477a1 1 0 1 0-.919 1.777l.688.356-10.758 5.74a.185.185 0 0 1-.076.016.149.149 0 0 1-.067-.013L5.095 16.238l.686-.362a1 1 0 0 0-.934-1.769l-.776.41a1.927 1.927 0 0 0 .017 3.452l11.006 5.689a2.18 2.18 0 0 0 1.993.002l10.86-5.796h.003a1.927 1.927 0 0 0-.02-3.452l-.775-.4Z" clip-rule="evenodd"/>
</svg>
