<svg xmlns="http://www.w3.org/2000/svg" width="32" height="32" fill="currentColor" viewBox="0 0 32 32">
  <path fill-rule="evenodd" d="M2 16C2 7.928 8.898 1.49 17.063 2.002c3.981.253 7.33 2.257 9.716 5.117 1.854 2.2 3.036 4.742 3.219 7.82.35 5.692-2.662 11.034-7.337 13.545C19.202 30.35 15 27.845 15 23.91v-1.008c-2.249-.44-4-2.338-4-4.692v-1.25c-1.12-.197-2-1.152-2-2.348v-.226C9 13.043 10.112 12 11.425 12H13V9a1 1 0 0 1 2 0v3h2V9a1 1 0 0 1 2 0v3h1.575C21.888 12 23 13.043 23 14.387v.226c0 1.196-.88 2.151-2 2.348v1.25c0 2.354-1.751 4.251-4 4.692v1.008c0 2.422 2.588 3.962 4.712 2.813l.003-.002c3.968-2.131 6.59-6.725 6.287-11.66v-.003c-.153-2.589-1.135-4.731-2.752-6.65l-.003-.005c-2.093-2.508-4.958-4.193-8.31-4.406C9.906 3.558 4 9.1 4 16c0 5.05 2.988 9.277 7.379 11.074a1 1 0 0 1-.758 1.852C5.492 26.826 2 21.876 2 16Zm11 2.21C13 19.7 14.294 21 16 21s3-1.301 3-2.79V17h-6v1.21ZM11.425 14c-.26 0-.425.199-.425.387v.226c0 .188.164.387.425.387h9.15c.26 0 .425-.199.425-.387v-.226c0-.188-.164-.387-.425-.387h-9.15Z" clip-rule="evenodd"/>
</svg>
