<svg xmlns="http://www.w3.org/2000/svg" width="32" height="32" fill="currentColor" viewBox="0 0 32 32">
  <path d="M11.8 17c.679 0 1.306.37 1.645.969l2.301 4.062c.34.6.34 1.339 0 1.938l-2.3 4.062c-.34.6-.967.969-1.645.969H7.199c-.678 0-1.304-.37-1.643-.969L3.255 23.97c-.34-.6-.34-1.339 0-1.938l2.3-4.062c.34-.6.966-.969 1.644-.969h4.602Zm-6.902 6L7.2 27.064h4.602L14.1 23l-2.3-4.064H7.199L4.9 23Zm19.903-12c.678 0 1.305.37 1.644.969l2.301 4.062c.34.6.34 1.339 0 1.938l-2.3 4.062c-.34.6-.967.969-1.645.969h-4.602c-.678 0-1.304-.37-1.644-.969l-2.3-4.062c-.34-.6-.34-1.339 0-1.938l2.3-4.062c.34-.6.966-.969 1.644-.969h4.602Zm-6.903 6 2.301 4.064h4.602L27.1 17l-2.3-4.063h-4.602L17.9 17ZM12.801 3c.678 0 1.305.37 1.644.969l2.301 4.062c.34.6.34 1.339 0 1.938l-2.3 4.062c-.34.6-.967.969-1.645.969H8.199c-.678 0-1.304-.37-1.643-.969L4.255 9.97c-.34-.6-.34-1.339 0-1.938l2.3-4.062C6.896 3.369 7.522 3 8.2 3h4.602ZM5.898 9 8.2 13.063h4.602L15.1 9l-2.3-4.063H8.199L5.9 9Z"/>
</svg>
