<svg xmlns="http://www.w3.org/2000/svg" width="32" height="32" fill="currentColor" viewBox="0 0 32 32">
  <path fill-rule="evenodd" d="M16.863 2.157c4.311 2.307 8.27 3.58 9.777 4.016l.012.003c.763.23 1.383.914 1.383 1.797v11.191c0 1.526-.69 2.913-1.626 4.097-.938 1.188-2.183 2.25-3.445 3.154-2.526 1.807-5.276 3.081-6.232 3.502l-.018.007c-.47.196-.99.196-1.46 0l-.016-.007c-.962-.42-3.712-1.695-6.237-3.502-1.262-.903-2.507-1.966-3.444-3.155-.934-1.184-1.624-2.57-1.624-4.096V7.983c0-.866.603-1.576 1.395-1.801a52.794 52.794 0 0 0 9.77-4.026l.475.88-.485-.874a1.838 1.838 0 0 1 1.775-.005Zm-.883 1.796A54.827 54.827 0 0 1 5.933 8.089v11.075c0 .91.414 1.869 1.194 2.858.777.984 1.858 1.922 3.038 2.767 2.312 1.654 4.859 2.848 5.819 3.272.959-.425 3.504-1.619 5.816-3.273 1.18-.844 2.262-1.782 3.04-2.767.78-.989 1.195-1.947 1.195-2.857V8.079c-1.617-.47-5.65-1.777-10.055-4.126Z" clip-rule="evenodd"/>
  <path fill-rule="evenodd" d="M14.595 8.902c.486-1.3 2.324-1.3 2.81 0l1.275 3.41 3.636.159c1.386.06 1.954 1.808.869 2.672l-2.849 2.266.973 3.507c.37 1.337-1.117 2.418-2.274 1.652L16 20.56l-3.035 2.01c-1.157.765-2.644-.316-2.274-1.653l.973-3.507-2.849-2.266c-1.085-.864-.517-2.612.869-2.673l3.636-.158 1.275-3.41ZM16 10.855l-.922 2.467a1.5 1.5 0 0 1-1.34.973l-2.631.115 2.061 1.64a1.5 1.5 0 0 1 .512 1.574l-.704 2.538 2.196-1.453a1.5 1.5 0 0 1 1.656 0l2.196 1.453-.704-2.538a1.5 1.5 0 0 1 .512-1.574l2.061-1.64-2.631-.115a1.5 1.5 0 0 1-1.34-.973L16 10.855Z" clip-rule="evenodd"/>
</svg>
