<svg xmlns="http://www.w3.org/2000/svg" width="32" height="32" fill="currentColor" viewBox="0 0 32 32">
  <path fill-rule="evenodd" d="M26.64 6.173c-1.507-.436-5.466-1.71-9.777-4.016a1.838 1.838 0 0 0-1.769.001 52.795 52.795 0 0 1-9.766 4.024c-.792.225-1.395.935-1.395 1.8v11.182c0 1.526.69 2.912 1.624 4.096.937 1.188 2.182 2.252 3.444 3.155 2.525 1.807 5.275 3.081 6.237 3.502l.016.007c.47.196.99.196 1.46 0l.018-.007c.956-.42 3.706-1.695 6.232-3.502 1.262-.903 2.507-1.966 3.445-3.154.935-1.184 1.626-2.57 1.626-4.097V7.974c0-.884-.62-1.567-1.383-1.798l-.012-.003ZM15.095 2.158l-.006.004.485.874-.474-.88-.005.002Zm-9.16 5.93A54.827 54.827 0 0 0 15.98 3.954c4.405 2.349 8.438 3.656 10.055 4.126v11.085c0 .91-.415 1.868-1.195 2.857-.778.985-1.86 1.923-3.04 2.767-2.312 1.654-4.857 2.848-5.816 3.273-.96-.424-3.507-1.618-5.82-3.273-1.18-.844-2.26-1.782-3.037-2.766-.78-.99-1.194-1.948-1.194-2.858V8.089Zm11.471.814c-.486-1.3-2.324-1.3-2.81 0l-1.275 3.41-3.636.159c-1.386.06-1.954 1.808-.869 2.672l2.849 2.266-.973 3.507c-.37 1.337 1.117 2.418 2.274 1.652L16 20.56l3.035 2.01c1.157.765 2.644-.316 2.274-1.653l-.973-3.507 2.849-2.266c1.085-.864.517-2.612-.869-2.673l-3.636-.158-1.275-3.41Zm-2.327 4.42L16 10.855l.922 2.467a1.5 1.5 0 0 0 1.34.973l2.631.115-2.061 1.64a1.5 1.5 0 0 0-.512 1.574l.704 2.538-2.196-1.453a1.5 1.5 0 0 0-1.656 0l-2.196 1.453.704-2.538a1.5 1.5 0 0 0-.512-1.574l-2.061-1.64 2.631-.115a1.5 1.5 0 0 0 1.34-.973Z" clip-rule="evenodd"/>
</svg>
