<svg xmlns="http://www.w3.org/2000/svg" width="32" height="32" fill="currentColor" viewBox="0 0 32 32">
  <path fill-rule="evenodd" d="M14.667 6C13.744 6 13 6.744 13 7.667V8h6v-.333C19 6.744 18.256 6 17.333 6h-2.666ZM11 7.667V8H5.841A3.833 3.833 0 0 0 2 11.825v12.35A3.833 3.833 0 0 0 5.841 28H26.16A3.833 3.833 0 0 0 30 24.175v-12.35C30 9.707 28.274 8 26.159 8H21v-.333A3.664 3.664 0 0 0 17.333 4h-2.666A3.664 3.664 0 0 0 11 7.667ZM28 15v-3.175A1.833 1.833 0 0 0 26.159 10H5.84A1.833 1.833 0 0 0 4 11.825V15c0 1.586 1.415 3 3.335 3h17.33C26.585 18 28 16.586 28 15ZM4 18.904A5.574 5.574 0 0 0 7.335 20h17.33A5.571 5.571 0 0 0 28 18.904v5.271A1.833 1.833 0 0 1 26.159 26H5.84A1.833 1.833 0 0 1 4 24.175v-5.271Z" clip-rule="evenodd"/>
</svg>
