<svg xmlns="http://www.w3.org/2000/svg" width="32" height="32" fill="currentColor" viewBox="0 0 32 32">
  <path fill-rule="evenodd" d="M5.841 10A1.833 1.833 0 0 0 4 11.825v12.35C4 25.177 4.819 26 5.841 26H26.16A1.833 1.833 0 0 0 28 24.175v-12.35A1.833 1.833 0 0 0 26.159 10H5.84ZM2 11.825A3.833 3.833 0 0 1 5.841 8H26.16A3.833 3.833 0 0 1 30 11.825v12.35C30 26.293 28.274 28 26.159 28H5.84A3.833 3.833 0 0 1 2 24.175v-12.35Z" clip-rule="evenodd"/>
  <path fill-rule="evenodd" d="M14.667 6C13.744 6 13 6.744 13 7.667V9a1 1 0 1 1-2 0V7.667A3.664 3.664 0 0 1 14.667 4h2.666A3.664 3.664 0 0 1 21 7.667V9a1 1 0 1 1-2 0V7.667C19 6.744 18.256 6 17.333 6h-2.666ZM3 14a1 1 0 0 1 1 1c0 1.586 1.415 3 3.335 3h17.33C26.585 18 28 16.586 28 15a1 1 0 1 1 2 0c0 2.84-2.465 5-5.335 5H7.335C4.465 20 2 17.84 2 15a1 1 0 0 1 1-1Z" clip-rule="evenodd"/>
</svg>
