<svg xmlns="http://www.w3.org/2000/svg" width="32" height="32" fill="currentColor" viewBox="0 0 32 32">
  <path fill-rule="evenodd" d="M9.376 11.301C9.58 7.779 12.474 5 16 5c2.796 0 5.193 1.746 6.166 4.218-.61.184-1.134.46-1.582.788a1 1 0 0 0 1.181 1.614c.494-.362 1.162-.646 2.13-.646.982 0 2.006.498 2.806 1.365.796.863 1.299 2.018 1.299 3.2 0 1.679-.379 3.06-1.046 3.992-.638.892-1.584 1.443-2.954 1.443a1 1 0 1 0 0 2c2.009 0 3.563-.857 4.58-2.279.988-1.38 1.42-3.216 1.42-5.155 0-1.74-.732-3.368-1.83-4.557-1.024-1.112-2.43-1.904-3.964-2C23.08 5.517 19.837 3 16 3c-4.548 0-8.261 3.534-8.609 8.011-.582 0-1.124.108-1.654.321C3.462 12.247 2 14.468 2 16.832c0 3.325 2.623 6.142 6.003 6.142a1 1 0 0 0 0-2C5.795 20.974 4 19.12 4 16.832c0-1.552.97-3.036 2.483-3.644.476-.192.999-.25 1.782-.06a.451.451 0 0 0 .053.01l.719.134a1 1 0 1 0 .364-1.966l-.025-.005ZM13 22.126v4.747c1.844.17 4.162.17 6 0v-4.747a35.671 35.671 0 0 0-6 0Zm6.972-1.89A.999.999 0 0 0 20 20v-.743a4.417 4.417 0 0 0-1.141-2.975l-.006-.006C18.133 15.495 17.13 15 16 15c-2.281 0-4 1.988-4 4.257V20c0 .082.01.161.028.237-.601.17-1.028.73-1.028 1.37v5.787c0 .683.488 1.31 1.217 1.409l.02.002c2.24.26 5.296.26 7.526 0l.014-.002.012-.001A1.421 1.421 0 0 0 21 27.394v-5.788c0-.622-.405-1.197-1.028-1.37Zm-1.97-.185A.965.965 0 0 1 18 20v-.743a2.42 2.42 0 0 0-.62-1.629C17.003 17.222 16.52 17 16 17c-1.025 0-2 .935-2 2.257V20l-.001.05a39.35 39.35 0 0 1 4.002.001Z" clip-rule="evenodd"/>
</svg>
