<svg xmlns="http://www.w3.org/2000/svg" width="32" height="32" fill="currentColor" viewBox="0 0 32 32">
  <path fill-rule="evenodd" d="M7 5.496C7 4.656 7.673 4 8.442 4h16.116C25.327 4 26 4.656 26 5.496V13a1 1 0 1 0 2 0V5.496C28 3.593 26.473 2 24.558 2H8.442C6.528 2 5 3.593 5 5.496V8H4a1 1 0 0 0 0 2h4a1 1 0 0 0 0-2H7V5.496ZM7 25.95a1 1 0 1 0-2 0v.554C5 28.407 6.528 30 8.442 30H15a1 1 0 1 0 0-2H8.442C7.673 28 7 27.344 7 26.504v-.554ZM7 19a1 1 0 1 0-2 0v3H4a1 1 0 1 0 0 2h4a1 1 0 1 0 0-2H7v-3Zm-3-4a1 1 0 1 0 0 2h4a1 1 0 1 0 0-2H7v-3a1 1 0 1 0-2 0v3H4Zm20 3c-1.025 0-2 .935-2 2.257V21l-.001.05a39.35 39.35 0 0 1 4.002.001A.965.965 0 0 1 26 21v-.743a2.42 2.42 0 0 0-.62-1.629C25.003 18.222 24.52 18 24 18Zm3.972 3.236A.999.999 0 0 0 28 21v-.743a4.417 4.417 0 0 0-1.141-2.975l-.006-.006C26.133 16.495 25.13 16 24 16c-2.281 0-4 1.988-4 4.257V21c0 .082.01.161.028.237-.601.17-1.028.73-1.028 1.37v5.787c0 .683.488 1.31 1.217 1.409l.02.002c2.24.26 5.296.26 7.526 0 .009 0 .017-.002.026-.003A1.421 1.421 0 0 0 29 28.394v-5.788c0-.622-.405-1.197-1.028-1.37ZM21 27.873v-4.747a35.671 35.671 0 0 1 6 0v4.748a35.671 35.671 0 0 1-6 0Z" clip-rule="evenodd"/>
</svg>
