<svg xmlns="http://www.w3.org/2000/svg" width="32" height="32" fill="none" viewBox="0 0 32 32">
  <path fill="#3D3C3C" fill-rule="evenodd" d="M6 5.496C6 4.656 6.673 4 7.442 4h16.116C24.327 4 25 4.656 25 5.496V13a1 1 0 1 0 2 0V5.496C27 3.593 25.473 2 23.558 2H7.442C5.528 2 4 3.593 4 5.496V8H3a1 1 0 0 0 0 2h4a1 1 0 0 0 0-2H6V5.496ZM6 25.95a1 1 0 1 0-2 0v.554C4 28.407 5.528 30 7.442 30H13a1 1 0 1 0 0-2H7.442C6.673 28 6 27.344 6 26.504v-.554ZM3 15a1 1 0 1 0 0 2h4a1 1 0 1 0 0-2H6v-3a1 1 0 1 0-2 0v3H3Zm0 7a1 1 0 1 0 0 2h4a1 1 0 1 0 0-2H6v-3a1 1 0 1 0-2 0v3H3Zm13 1a7 7 0 0 1 7-7 7 7 0 1 1 0 14 7 7 0 0 1-7-7Zm7-5a5 5 0 0 0-5 5 5 5 0 1 0 10 0 5 5 0 0 0-5-5Zm2.819 3.574a1 1 0 0 0-1.638-1.148L22.2 23.254l-.379-.543a1 1 0 0 0-1.64 1.144l1.196 1.717a1 1 0 0 0 1.64.002l2.803-4Z" clip-rule="evenodd"/>
</svg>
