<svg xmlns="http://www.w3.org/2000/svg" width="32" height="32" fill="currentColor" viewBox="0 0 32 32">
  <path fill-rule="evenodd" d="M4 16a1 1 0 0 1 1-1h4a1 1 0 1 1 0 2H5a1 1 0 0 1-1-1Z" clip-rule="evenodd"/>
  <path fill-rule="evenodd" d="M7 11a1 1 0 0 1 1 1v4a1 1 0 1 1-2 0v-4a1 1 0 0 1 1-1ZM4 9a1 1 0 0 1 1-1h4a1 1 0 0 1 0 2H5a1 1 0 0 1-1-1Zm0 14a1 1 0 0 1 1-1h4a1 1 0 1 1 0 2H5a1 1 0 0 1-1-1Z" clip-rule="evenodd"/>
  <path fill-rule="evenodd" d="M7 18a1 1 0 0 1 1 1v3a1 1 0 1 1-2 0v-3a1 1 0 0 1 1-1Zm4-5a1 1 0 0 1 1-1h3a1 1 0 1 1 0 2h-3a1 1 0 0 1-1-1Zm0 9a1 1 0 0 1 1-1h3a1 1 0 1 1 0 2h-3a1 1 0 0 1-1-1Zm0-3a1 1 0 0 1 1-1h3a1 1 0 1 1 0 2h-3a1 1 0 0 1-1-1Zm0-9a1 1 0 0 1 1-1h3a1 1 0 1 1 0 2h-3a1 1 0 0 1-1-1Z" clip-rule="evenodd"/>
  <path fill-rule="evenodd" d="M9.442 4C8.673 4 8 4.656 8 5.496v3.338a1 1 0 1 1-2 0V5.496C6 3.593 7.528 2 9.442 2h16.116C27.473 2 29 3.593 29 5.496v21.008C29 28.407 27.473 30 25.558 30H9.442C7.528 30 6 28.407 6 26.504v-.554a1 1 0 1 1 2 0v.554C8 27.344 8.673 28 9.442 28h16.116c.769 0 1.442-.656 1.442-1.496V5.496C27 4.656 26.327 4 25.558 4H9.442Z" clip-rule="evenodd"/>
  <path fill-rule="evenodd" d="M19.066 9a.066.066 0 0 0-.066.066v3.868c0 .037.03.066.066.066h3.868c.037 0 .066-.03.066-.066V9.066A.066.066 0 0 0 22.934 9h-3.868ZM17 9.066C17 7.925 17.925 7 19.066 7h3.868C24.075 7 25 7.925 25 9.066v3.868A2.066 2.066 0 0 1 22.934 15h-3.868A2.066 2.066 0 0 1 17 12.934V9.066ZM19.066 19a.066.066 0 0 0-.066.066v3.868c0 .037.03.066.066.066h3.868c.037 0 .066-.03.066-.066v-3.868a.066.066 0 0 0-.066-.066h-3.868ZM17 19.066c0-1.141.925-2.066 2.066-2.066h3.868c1.141 0 2.066.925 2.066 2.066v3.868A2.066 2.066 0 0 1 22.934 25h-3.868A2.066 2.066 0 0 1 17 22.934v-3.868Z" clip-rule="evenodd"/>
</svg>
