<svg xmlns="http://www.w3.org/2000/svg" width="32" height="32" fill="currentColor" viewBox="0 0 32 32">
  <path d="M23 15.999a7 7 0 1 1 0 14 7 7 0 0 1-7-7 7 7 0 0 1 7-7ZM3.7 19.134a1 1 0 0 1 1.001 1.73l-.674.39 10.012 5.741a.998.998 0 0 1 .136-.063l.485-.184a1.001 1.001 0 0 1 .71 1.87l-.43.162a1.978 1.978 0 0 1-1.894-.048L2.991 22.965l.001-.001c-1.33-.759-1.312-2.662-.005-3.42h.001l.711-.411ZM23 17.999a5 5 0 0 0-5 5 5 5 0 1 0 10 0 5 5 0 0 0-5-5Zm1.414 2.172a1 1 0 1 1 1.414 1.414l-1.414 1.414 1.414 1.414a1 1 0 0 1-1.414 1.414L23 24.413l-1.414 1.414a1 1 0 1 1-1.414-1.414l1.414-1.414-1.414-1.414a1 1 0 1 1 1.414-1.414L23 21.585l1.414-1.414ZM3.732 13.22a1 1 0 0 1 .982 1.742l-.666.375 10.263 5.658a1 1 0 1 1-.966 1.751l-10.323-5.69a1.955 1.955 0 0 1-.017-3.427l.727-.41Zm9.225-10.94a1.945 1.945 0 0 1 2.007-.002l9.958 5.929a.995.995 0 0 1 .097.05c1.316.775 1.298 2.694.007 3.47v.002l-9.982 5.99a1.946 1.946 0 0 1-2.009 0v.002L2.978 11.73v-.002c-1.312-.776-1.293-2.691-.004-3.467V8.26l9.983-5.983v.001ZM4.004 9.973 4 9.999l.002.014 10.035 5.978 9.958-5.976A.053.053 0 0 0 24 9.99v-.005l-10.038-5.98-9.958 5.968Z"/>
</svg>
