<svg xmlns="http://www.w3.org/2000/svg" width="32" height="32" fill="currentColor" viewBox="0 0 32 32">
  <path d="M16.116 6.001A10 10 0 1 1 6.001 16.116v-.027A.1.1 0 0 1 6.088 16a.234.234 0 0 1 .028 0h9.768l.028-.001a.1.1 0 0 0 .087-.087l.001-.028V6.116l.001-.028A.101.101 0 0 1 16.089 6h.027Z"/>
  <path fill-rule="evenodd" d="M16 2c7.732 0 14 6.268 14 14s-6.268 14-14 14S2 23.732 2 16 8.268 2 16 2Zm0 2C9.373 4 4 9.373 4 16s5.373 12 12 12 12-5.373 12-12S22.627 4 16 4Z" clip-rule="evenodd"/>
</svg>
