<svg xmlns="http://www.w3.org/2000/svg" width="32" height="32" fill="currentColor" viewBox="0 0 32 32">
  <path fill-rule="evenodd" d="M4.544 6.941a.601.601 0 0 0-.615.584v5.95c0 .301.256.584.615.584H6.5c.533 0 .964.434.964.97A.967.967 0 0 1 6.5 16H4.544C3.16 16 2 14.89 2 13.475v-5.95C2 6.11 3.161 5 4.544 5h5.492c.532 0 .964.435.964.97a.967.967 0 0 1-.964.971H4.544Z" clip-rule="evenodd"/>
  <path fill-rule="evenodd" d="M5.056 12.356c.424-.348 1.093-.333 1.496.033l2.173 1.976a.825.825 0 0 1 0 1.258l-2.173 1.976c-.403.365-1.072.38-1.496.033-.423-.347-.44-.925-.038-1.29L6.5 14.993l-1.482-1.347c-.402-.366-.385-.944.038-1.291Zm22.38 4.585c.288 0 .564.24.564.584v5.95a.575.575 0 0 1-.564.584H25.5c-.552 0-1 .434-1 .97 0 .537.448.971 1 .971h1.936C28.873 26 30 24.847 30 23.475v-5.95C30 16.153 28.873 15 27.436 15H22c-.552 0-1 .434-1 .97 0 .537.448.971 1 .971h5.436Z" clip-rule="evenodd"/>
  <path fill-rule="evenodd" d="M26.9 22.323a1.133 1.133 0 0 0-1.489.035l-2.108 2.007a.887.887 0 0 0 0 1.311l2.108 2.008c.4.381 1.067.397 1.488.035a.89.89 0 0 0 .039-1.346l-1.42-1.352 1.42-1.352a.89.89 0 0 0-.038-1.346ZM10 4a2 2 0 0 1 2-2h8a2 2 0 0 1 2 2v4a2 2 0 0 1-2 2h-8a2 2 0 0 1-2-2V4Zm10 0h-8v4h8V4ZM10 14a2 2 0 0 1 2-2h8a2 2 0 0 1 2 2v4a2 2 0 0 1-2 2h-8a2 2 0 0 1-2-2v-4Zm10 0h-8v4h8v-4ZM10 24a2 2 0 0 1 2-2h8a2 2 0 0 1 2 2v4a2 2 0 0 1-2 2h-8a2 2 0 0 1-2-2v-4Zm10 0h-8v4h8v-4Z" clip-rule="evenodd"/>
</svg>
