<svg xmlns="http://www.w3.org/2000/svg" width="32" height="32" fill="currentColor" viewBox="0 0 32 32">
  <path fill-rule="evenodd" d="M12 2a2 2 0 0 0-2 2v1H4.544C3.16 5 2 6.11 2 7.525v5.95C2 14.89 3.161 16 4.544 16h.85l-.376.341c-.402.366-.385.944.038 1.291.424.347 1.093.332 1.496-.033l2.174-1.976a.825.825 0 0 0 0-1.258l-2.174-1.976c-.403-.366-1.072-.38-1.496-.033-.423.347-.44.925-.038 1.29l.453.413h-.927a.601.601 0 0 1-.615-.584v-5.95c0-.301.256-.584.615-.584H10V8a2 2 0 0 0 2 2h8a2 2 0 0 0 2-2V4a2 2 0 0 0-2-2h-8Zm0 2h8v4h-8V4Zm16 13.525a.575.575 0 0 0-.564-.584H22V18a2 2 0 0 1-2 2h-8a2 2 0 0 1-2-2v-4a2 2 0 0 1 2-2h8a2 2 0 0 1 2 2v1h5.436C28.873 15 30 16.153 30 17.525v5.95C30 24.847 28.873 26 27.436 26h-.89l.392.373a.89.89 0 0 1-.039 1.346 1.133 1.133 0 0 1-1.488-.035l-2.108-2.008a.887.887 0 0 1 0-1.311l2.108-2.007a1.133 1.133 0 0 1 1.488-.035.89.89 0 0 1 .039 1.346l-.41.39h.908c.288 0 .564-.24.564-.584v-5.95ZM20 14h-8v4h8v-4Zm-8 8a2 2 0 0 0-2 2v4a2 2 0 0 0 2 2h8a2 2 0 0 0 2-2v-4a2 2 0 0 0-2-2h-8Zm0 2h8v4h-8v-4Z" clip-rule="evenodd"/>
</svg>
