<svg xmlns="http://www.w3.org/2000/svg" width="32" height="32" fill="currentColor" viewBox="0 0 32 32">
  <path fill-rule="evenodd" d="M20 22a2 2 0 0 1 2 2v4a2 2 0 0 1-2 2h-8a2 2 0 0 1-1.99-1.796L10 28v-4a2 2 0 0 1 2-2h8Zm-8 6h8v-4h-8v4Z" clip-rule="evenodd"/>
  <path fill-rule="evenodd" d="M20 12a2 2 0 0 1 2 2v1h5.436c1.5 0 2.564 1.306 2.564 2.717v6.566C30 25.693 28.936 27 27.436 27h-1.022l.293.293a1 1 0 1 1-1.414 1.414l-2-2a1 1 0 0 1 0-1.414l2-2 .076-.068a1 1 0 0 1 1.406 1.406l-.068.076-.293.293h1.022c.225 0 .564-.232.564-.717v-6.566c0-.485-.339-.717-.564-.717H22v1a2 2 0 0 1-2 2h-8a2 2 0 0 1-1.99-1.796L10 18v-4a2 2 0 0 1 2-2h8Zm-8 6h8v-4h-8v4Z" clip-rule="evenodd"/>
  <path fill-rule="evenodd" d="M20 2a2 2 0 0 1 2 2v4a2 2 0 0 1-2 2h-8a2 2 0 0 1-1.99-1.796L10 8V7H4.563C4.34 7 4 7.232 4 7.717v6.566c0 .485.339.717.563.717h1.023l-.293-.293-.068-.076a1 1 0 0 1 1.406-1.406l.076.068 2 2a1 1 0 0 1 0 1.414l-2 2a1 1 0 1 1-1.414-1.414L5.586 17H4.563C3.063 17 2 15.694 2 14.283V7.717C2 6.307 3.064 5 4.563 5H10V4a2 2 0 0 1 2-2h8Zm-8 6h8V4h-8v4Z" clip-rule="evenodd"/>
</svg>
