<svg xmlns="http://www.w3.org/2000/svg" width="32" height="32" fill="currentColor" viewBox="0 0 32 32">
  <path fill-rule="evenodd" d="M9.403 25.75c.27.16.59.25.9.25h.01c.14 0 .29-.02.44-.06.46-.13.861-.44 1.081-.86l.89-1.62c.43.06.86.09 1.281.09.439 0 .659-.037.938-.085l.022-.004.2-.04c.54-.09.91-.61.82-1.15a.992.992 0 0 0-1.15-.82l-.22.04c-.26.05-.34.06-.62.06-.38 0-.77-.03-1.14-.09-.72-.12-1.451.23-1.811.89l-.85 1.54-2.442-1.48.89-1.62c.34-.63.28-1.429-.15-1.979a8.05 8.05 0 0 1-1.17-2.13 1.734 1.734 0 0 0-1.64-1.169H3.98v-3.039h1.7c.72 0 1.381-.47 1.631-1.16.28-.79.68-1.509 1.18-2.149.43-.57.49-1.34.14-1.97l-.89-1.619 2.441-1.48.85 1.54c.36.65 1.081 1.01 1.802.89a7.1 7.1 0 0 1 2.3 0c.72.13 1.451-.23 1.811-.89l.85-1.54 2.442 1.48-.89 1.62c-.34.63-.28 1.42.15 1.98.5.649.89 1.369 1.17 2.129.24.7.9 1.17 1.64 1.17H23.9l-.36 1.239c-.16.53.15 1.09.68 1.24a.994.994 0 0 0 1.24-.68l.501-1.73.04-.28c0-.99-.78-1.79-1.75-1.79h-1.762a9.81 9.81 0 0 0-1.33-2.418l.92-1.67c.47-.85.18-1.93-.63-2.42l-2.851-1.719c-.39-.24-.89-.31-1.34-.19-.46.13-.861.44-1.081.86l-.89 1.62a9.154 9.154 0 0 0-2.561 0l-.89-1.62a1.768 1.768 0 0 0-1.081-.85c-.46-.12-.93-.06-1.34.19l-2.862 1.74c-.81.5-1.09 1.58-.63 2.41l.92 1.669c-.55.73-1 1.54-1.33 2.419H3.75c-.96 0-1.751.8-1.751 1.79v3.448c0 .99.78 1.79 1.75 1.79H5.51c.33.87.78 1.68 1.331 2.419l-.92 1.67c-.47.85-.18 1.929.63 2.419l2.851 1.72Zm5.113-14.708a3.007 3.007 0 0 0-3.474 3.474 3.002 3.002 0 0 0 2.441 2.442 3.007 3.007 0 0 0 3.475-3.474 3.002 3.002 0 0 0-2.442-2.442ZM9.07 14.84a5.007 5.007 0 0 1 5.771-5.77h.001a5.001 5.001 0 0 1 4.09 4.092 5.007 5.007 0 0 1-5.771 5.77h-.001a5.001 5.001 0 0 1-4.09-4.092Zm17.664 1.48a1 1 0 1 0-1.466 1.361l1.227 1.321L20 19a1 1 0 0 0 0 2l6.69.001-1.368 1.264a1 1 0 0 0 1.356 1.47l3-2.77a1 1 0 0 0 .055-1.415l-3-3.23ZM21.68 29.734a1 1 0 0 1-1.413-.053l-3-3.23a1 1 0 0 1 .055-1.416l3-2.769a1 1 0 0 1 1.356 1.47L20.309 25H27a1 1 0 1 1 0 2l-6.494-.001 1.227 1.32a1 1 0 0 1-.053 1.414Z" clip-rule="evenodd"/>
</svg>
