<svg xmlns="http://www.w3.org/2000/svg" width="33" height="32" fill="currentColor" viewBox="0 0 33 32">
  <path d="M10.711 4a1 1 0 1 1 0 2h-1.5a3 3 0 0 0-3 3v14a3 3 0 0 0 3 3h14a3 3 0 0 0 3-3V9a3 3 0 0 0-3-3h-1.5a1 1 0 1 1 0-2h1.5a5 5 0 0 1 5 5v14a5 5 0 0 1-5 5h-14a5 5 0 0 1-5-5V9a5 5 0 0 1 5-5h1.5Zm9.603 18.005a1 1 0 0 1 0 1.99L20.21 24h-8a1 1 0 1 1 0-2h8l.103.005ZM22.21 19a1 1 0 1 1 0 2h-12a1 1 0 1 1 0-2h12ZM16.214 4c.056 0 .112.005.165.014h.005a.998.998 0 0 1 .575.32l4.96 4.959a1 1 0 1 1-1.415 1.414l-3.292-3.292V16a1 1 0 0 1-2 0V7.412l-3.294 3.295-.076.068a1 1 0 0 1-1.406-1.406l.068-.076 5-5 .073-.066.02-.015a1.01 1.01 0 0 1 .103-.07.998.998 0 0 1 .161-.078c.012-.005.023-.007.035-.011a.99.99 0 0 1 .136-.037c.008-.002.017-.002.025-.003.051-.008.104-.013.157-.013Z"/>
</svg>
