<svg xmlns="http://www.w3.org/2000/svg" width="32" height="32" fill="currentColor" viewBox="0 0 32 32">
  <path d="M16 2c1.11 0 2.192.13 3.23.375a1 1 0 0 1-.46 1.946A12.04 12.04 0 0 0 16 4C9.373 4 4 9.373 4 16s5.373 12 12 12 12-5.373 12-12c0-.955-.111-1.882-.321-2.77a1 1 0 0 1 1.946-.46C29.87 13.809 30 14.89 30 16c0 7.732-6.268 14-14 14S2 23.732 2 16 8.268 2 16 2Zm.256 20c.412 0 .744.31.744.69v.62c0 .38-.332.69-.744.69h-.512c-.412 0-.744-.31-.744-.69v-.62c0-.38.332-.69.744-.69h.512Zm.027-13.99h.001c1.983.14 3.573 1.767 3.706 3.768a4.079 4.079 0 0 1-1.868 3.73v.002a2.41 2.41 0 0 0-1.126 2.045V19a1 1 0 1 1-2 0v-1.445c0-1.53.78-2.925 2.054-3.734l.11-.076c.54-.397.888-1.074.834-1.83v-.004c-.068-1.028-.889-1.838-1.851-1.906v-.001c-1.15-.079-2.143.86-2.143 2.067a1 1 0 1 1-2 0c0-2.308 1.918-4.225 4.283-4.061ZM25 2c2.761 0 5 2.241 5 5s-2.239 5-5 5-5-2.241-5-5 2.239-5 5-5Z"/>
</svg>
