<svg xmlns="http://www.w3.org/2000/svg" width="32" height="32" fill="currentColor" viewBox="0 0 32 32">
  <path fill-rule="evenodd" d="M28 16c0 6.627-5.373 12-12 12S4 22.627 4 16 9.373 4 16 4s12 5.373 12 12Zm2 0c0 7.732-6.268 14-14 14S2 23.732 2 16 8.268 2 16 2s14 6.268 14 14Zm-13.856-5.995c-1.15-.08-2.144.858-2.144 2.066a1 1 0 0 1-2 0c0-2.308 1.918-4.225 4.283-4.061h.001c1.983.14 3.572 1.767 3.706 3.767a4.08 4.08 0 0 1-1.867 3.732h-.001a2.411 2.411 0 0 0-1.126 2.046V19a1 1 0 1 1-2 0v-1.445c0-1.529.78-2.925 2.054-3.734l-.906-3.816Zm0 0c.962.068 1.782.878 1.85 1.906v.005a2.08 2.08 0 0 1-.944 1.905l-.906-3.816ZM17 22.69c0-.38-.332-.69-.744-.69h-.512c-.412 0-.744.31-.744.69v.62c0 .38.332.69.744.69h.512c.412 0 .744-.31.744-.69v-.62Z" clip-rule="evenodd"/>
</svg>
