<svg xmlns="http://www.w3.org/2000/svg" width="32" height="32" fill="currentColor" viewBox="0 0 32 32">
  <path d="M23 16a7 7 0 1 1 0 14 7 7 0 0 1-7-7 7 7 0 0 1 7-7Zm0 2a5 5 0 0 0-5 5 5 5 0 1 0 10 0 5 5 0 0 0-5-5Zm1.414 2.172a1 1 0 1 1 1.414 1.414L24.414 23l1.414 1.414a1 1 0 1 1-1.414 1.414L23 24.414l-1.414 1.414a1 1 0 1 1-1.414-1.414L21.586 23l-1.414-1.414a1 1 0 1 1 1.414-1.414L23 21.586l1.414-1.414ZM24.43 2C26.936 2 29 3.998 29 6.503V14a1 1 0 1 1-2 0V6.503C27 5.139 25.868 4 24.429 4H6.57C5.132 4 4 5.14 4 6.503V17.89c0 .682.26 1.178.66 1.52.415.354 1.046.59 1.84.59H8a1 1 0 0 1 1 1v2.864l4.36-3.633a1.001 1.001 0 0 1 1.28 1.538l-4.643 3.868a.98.98 0 0 1-.089.066c-.706.467-1.49.307-2.007-.04C7.4 25.322 7 24.716 7 24v-2h-.5c-1.179 0-2.298-.351-3.139-1.068C2.504 20.2 2 19.142 2 17.89V6.503C2 3.998 4.064 2 6.571 2H24.43Z"/>
</svg>
