<svg xmlns="http://www.w3.org/2000/svg" width="32" height="32" fill="currentColor" viewBox="0 0 32 32">
  <path d="M16.256 22h-.512c-.412 0-.744.31-.744.69v.62c0 .38.332.69.744.69h.512c.412 0 .744-.31.744-.69v-.62c0-.38-.332-.69-.744-.69Z"/>
  <path fill-rule="evenodd" d="M16.144 10.005c-1.15-.08-2.144.858-2.144 2.066a1 1 0 0 1-2 0c0-2.308 1.918-4.225 4.283-4.061h.001c1.983.14 3.572 1.767 3.706 3.767a4.08 4.08 0 0 1-1.867 3.732h-.001a2.411 2.411 0 0 0-1.126 2.046V19a1 1 0 1 1-2 0v-1.445c0-1.529.78-2.925 2.054-3.734m-.906-3.816c.962.068 1.782.878 1.85 1.906v.005a2.08 2.08 0 0 1-.944 1.905" clip-rule="evenodd"/>
  <path fill-rule="evenodd" d="M16 28c6.627 0 12-5.373 12-12S22.627 4 16 4 4 9.373 4 16s5.373 12 12 12Zm0 2c7.732 0 14-6.268 14-14S23.732 2 16 2 2 8.268 2 16s6.268 14 14 14Z" clip-rule="evenodd"/>
</svg>
