<svg xmlns="http://www.w3.org/2000/svg" width="32" height="32" fill="currentColor" viewBox="0 0 32 32">
  <path fill-rule="evenodd" d="M7.802 2C5.723 2 4 3.651 4 5.738v20.524C4 28.349 5.723 30 7.802 30H13a1 1 0 1 0 0-2H7.802C6.784 28 6 27.2 6 26.262V5.738C6 4.8 6.784 4 7.802 4H18v4.602A2.4 2.4 0 0 0 20.398 11H25v2.5a1 1 0 1 0 2 0V9.841l-.023-.054a.993.993 0 0 0-.142-.337l-.136-.324-6.999-6.84A.997.997 0 0 0 19 2H7.802ZM20 8.602V5.376L23.709 9h-3.31A.4.4 0 0 1 20 8.602Z" clip-rule="evenodd"/>
  <path fill-rule="evenodd" d="M16.595 29.41c.38.38.89.59 1.42.59v-.01c.17 0 .33-.02.5-.06l2.432-.61c.17-.04.33-.13.46-.26l7.663-7.659a3.161 3.161 0 0 0 0-4.479 3.183 3.183 0 0 0-4.482 0l-7.663 7.679c-.12.12-.22.28-.26.46l-.61 2.43h.01c-.18.7.02 1.41.53 1.92Zm1.4-1.43v-.01l.54-2.16 7.474-7.468a1.16 1.16 0 0 1 1.65 0c.45.46.45 1.2 0 1.65l-7.463 7.459-2.2.53Z" clip-rule="evenodd"/>
  <path d="M9 7a1 1 0 0 0 0 2h6a1 1 0 1 0 0-2H9Zm0 4a1 1 0 1 0 0 2h6a1 1 0 1 0 0-2H9Zm0 4a1 1 0 1 0 0 2h3.5a1 1 0 1 0 0-2H9Z"/>
</svg>
