<svg xmlns="http://www.w3.org/2000/svg" width="32" height="32" fill="currentColor" viewBox="0 0 32 32">
  <path d="M18.02 30c-.53 0-1.04-.21-1.42-.59-.51-.51-.71-1.22-.53-1.92h-.01l.61-2.43c.04-.18.14-.34.26-.46l7.66-7.68a3.18 3.18 0 0 1 4.48 0 3.163 3.163 0 0 1 0 4.48l-7.66 7.66c-.13.13-.29.22-.46.26l-2.43.61c-.17.04-.33.06-.5.06V30ZM18 27.97v.01l2.2-.53 7.46-7.46c.45-.45.45-1.19 0-1.65-.46-.46-1.2-.46-1.65 0l-7.47 7.47-.54 2.16Z"/>
  <path fill-rule="evenodd" d="M4 5.738C4 3.651 5.723 2 7.802 2H19l.699.285 7 6.84.301.716V13.5a1 1 0 1 1-2 0v-3.238L18.593 4H7.802C6.784 4 6 4.8 6 5.738v20.524C6 27.2 6.784 28 7.802 28H13a1 1 0 1 1 0 2H7.802C5.723 30 4 28.349 4 26.262V5.738Z" clip-rule="evenodd"/>
  <path fill-rule="evenodd" d="M19 2a1 1 0 0 1 1 1v5.602a.4.4 0 0 0 .398.398H26a1 1 0 1 1 0 2h-5.602A2.4 2.4 0 0 1 18 8.602V3a1 1 0 0 1 1-1ZM8 8a1 1 0 0 1 1-1h6a1 1 0 1 1 0 2H9a1 1 0 0 1-1-1Zm0 4a1 1 0 0 1 1-1h6a1 1 0 1 1 0 2H9a1 1 0 0 1-1-1Zm0 4a1 1 0 0 1 1-1h3.5a1 1 0 1 1 0 2H9a1 1 0 0 1-1-1Z" clip-rule="evenodd"/>
</svg>
