<svg xmlns="http://www.w3.org/2000/svg" width="32" height="32" fill="currentColor" viewBox="0 0 32 32">
  <path fill-rule="evenodd" d="m15.423 5.326-3.238 6.018a1 1 0 0 1-.723.514l-6.919 1.106h-.001c-.556.092-.678.678-.362.988l4.936 4.813a1 1 0 0 1 .29.872l-1.048 6.686v.002c-.067.414.403.86.924.607l6.294-3.033a1 1 0 0 1 .868 0l6.288 3.03.001.001c.52.247.991-.197.929-.61l-1.049-6.683a1 1 0 0 1 .29-.87l4.917-4.805c.323-.316.187-.903-.356-.988h-.003l-6.923-1.107a1 1 0 0 1-.722-.514L16.613 5.4a.972.972 0 0 1-.044-.074c-.235-.434-.911-.434-1.146 0Zm2.86-1.031c-1.024-1.753-3.643-1.726-4.619.08v.001l-3.005 5.585-6.435 1.028-.004.001c-2.078.34-2.995 2.867-1.438 4.392l.002.002 4.567 4.453-.968 6.173v.001c-.341 2.141 1.916 3.62 3.77 2.721l5.857-2.822 5.858 2.823.003.002c1.855.885 4.093-.595 3.767-2.72l-.97-6.178 4.55-4.446c1.552-1.519.65-4.063-1.442-4.393h-.002L21.342 9.97l-3.004-5.585a1.01 1.01 0 0 0-.055-.09Z" clip-rule="evenodd"/>
</svg>
