<svg xmlns="http://www.w3.org/2000/svg" width="32" height="32" fill="currentColor" viewBox="0 0 32 32">
  <path fill-rule="evenodd" d="M9.765 4.644a1 1 0 0 0-1.53-1.288c-.832.989-1.665 1.978-2.5 2.967-.834.989-1.668 1.978-2.5 2.968a1 1 0 0 0-.008 1.278c.833 1.014 1.668 2.025 2.501 3.034v.001c.835 1.01 1.668 2.02 2.5 3.03a1 1 0 0 0 1.545-1.269c-.833-1.013-1.668-2.024-2.502-3.034L6.173 11h14.4c.63 0 1.22.067 1.764.238 3.56 1.12 5.953 4.755 5.635 8.515-.287 3.28-2.574 6.098-5.675 7.023l-.004.001a5.786 5.786 0 0 1-1.674.223H4a1 1 0 1 0 0 2h16.619c.73 0 1.502-.08 2.252-.308 3.899-1.164 6.737-4.683 7.093-8.767v-.002c.396-4.668-2.55-9.185-7.027-10.593-.795-.25-1.6-.33-2.363-.33H6.094l1.17-1.387v-.001c.834-.989 1.669-1.979 2.501-2.968Z" clip-rule="evenodd"/>
</svg>
