<svg xmlns="http://www.w3.org/2000/svg" width="32" height="32" fill="currentColor" viewBox="0 0 32 32">
  <path fill-rule="evenodd" d="M22.253 5.664a1 1 0 1 1 1.494-1.328l4 4.5a1 1 0 0 1 0 1.328l-4 4.5a1 1 0 0 1-1.494-1.328l2.52-2.836H13c-.819 0-1.589.248-2.18.447-3.009 1.016-5.081 4.636-4.795 8.265.254 3.115 2.27 5.734 4.927 6.585l-.002-.001.007.001c.016.003.062.012.149.024a9.5 9.5 0 0 0 .46.047c.37.03.82.056 1.261.076a79.362 79.362 0 0 0 1.555.053l.104.002.025.001H27a1 1 0 1 1 0 2H14.478l-.038-.001-.107-.003a88.872 88.872 0 0 1-1.595-.054c-.452-.02-.93-.047-1.336-.08-.352-.03-.789-.073-1.062-.161-3.503-1.123-5.996-4.489-6.309-8.328v-.003c-.342-4.33 2.085-8.946 6.15-10.317.587-.199 1.638-.553 2.819-.553h11.773l-2.52-2.836Z" clip-rule="evenodd"/>
</svg>
