<svg xmlns="http://www.w3.org/2000/svg" width="32" height="32" fill="currentColor" viewBox="0 0 32 32">
  <path fill-rule="evenodd" d="M22.137 7.04c-.054.008-.11.012-.166.012l-6.952-.045V15h7.108A4.007 4.007 0 0 1 26 12c2.206 0 4 1.794 4 4s-1.794 4-4 4a4.007 4.007 0 0 1-3.873-3h-7.108v8h6.997c.037 0 .073.002.109.006A4.007 4.007 0 0 1 26 22c2.206 0 4 1.794 4 4s-1.794 4-4 4a4.007 4.007 0 0 1-3.875-3.006 1.01 1.01 0 0 1-.11.006H14a1 1 0 0 1-.98-1.196V17H9.872A4.007 4.007 0 0 1 6 20c-2.206 0-4-1.794-4-4s1.794-4 4-4a4.007 4.007 0 0 1 3.873 3h3.146V6.197A1 1 0 0 1 14.006 5h.038l7.94.052c.043 0 .085.003.127.009A4.007 4.007 0 0 1 26 2c2.206 0 4 1.794 4 4s-1.794 4-4 4a4.007 4.007 0 0 1-3.863-2.96ZM24 6c0-1.101.899-2 2-2s2 .899 2 2-.899 2-2 2-2-.899-2-2ZM4 16c0-1.101.899-2 2-2s2 .899 2 2-.899 2-2 2-2-.899-2-2Zm22-2c-1.101 0-2 .899-2 2s.899 2 2 2 2-.899 2-2-.899-2-2-2Zm-2 12c0-1.101.899-2 2-2s2 .899 2 2-.899 2-2 2-2-.899-2-2Z" clip-rule="evenodd"/>
</svg>
