<svg xmlns="http://www.w3.org/2000/svg" width="32" height="32" fill="currentColor" viewBox="0 0 32 32">
  <path fill-rule="evenodd" d="M2 16c0-2.206 1.794-4 4-4s4 1.794 4 4-1.794 4-4 4-4-1.794-4-4Zm4-2c-1.101 0-2 .899-2 2s.899 2 2 2 2-.899 2-2-.899-2-2-2Z" clip-rule="evenodd"/>
  <path fill-rule="evenodd" d="M8.044 16a1 1 0 0 1 1-1h13.949a1 1 0 1 1 0 2H9.044a1 1 0 0 1-1-1ZM13 5.994A1 1 0 0 1 14.006 5l7.978.052a1 1 0 0 1-.013 2L13.993 7A1 1 0 0 1 13 5.994ZM13 26a1 1 0 0 1 1-1h8.016a1 1 0 1 1 0 2H14a1 1 0 0 1-1-1Z" clip-rule="evenodd"/>
  <path fill-rule="evenodd" d="M22 16c0-2.206 1.794-4 4-4s4 1.794 4 4-1.794 4-4 4-4-1.794-4-4Zm4-2c-1.101 0-2 .899-2 2s.899 2 2 2 2-.899 2-2-.899-2-2-2Zm-4-8c0-2.206 1.794-4 4-4s4 1.794 4 4-1.794 4-4 4-4-1.794-4-4Zm4-2c-1.101 0-2 .899-2 2s.899 2 2 2 2-.899 2-2-.899-2-2-2ZM14.02 5a1 1 0 0 1 1 1v20a1 1 0 1 1-2 0V6a1 1 0 0 1 1-1ZM22 26c0-2.206 1.794-4 4-4s4 1.794 4 4-1.794 4-4 4-4-1.794-4-4Zm4-2c-1.101 0-2 .899-2 2s.899 2 2 2 2-.899 2-2-.899-2-2-2Z" clip-rule="evenodd"/>
</svg>
