<svg xmlns="http://www.w3.org/2000/svg" width="32" height="32" fill="currentColor" viewBox="0 0 32 32">
  <path fill-rule="evenodd" d="M16 1.933C8.233 1.933 1.933 8.233 1.933 16a13.99 13.99 0 0 0 2.754 8.35A14.052 14.052 0 0 0 16 30.068c7.767 0 14.067-6.3 14.067-14.067a1 1 0 1 0-2 0c0 6.662-5.405 12.067-12.067 12.067a12.052 12.052 0 0 1-9.705-4.905l-.001-.002A11.99 11.99 0 0 1 3.934 16C3.933 9.338 9.337 3.933 16 3.933c3.336 0 6.351 1.353 8.533 3.534l.533.533H21a1 1 0 1 0 0 2h6a1 1 0 0 0 1-1v-.245c.03-.14.03-.285 0-.425V3a1 1 0 1 0-2 0v3.106l-.053-.053A14.028 14.028 0 0 0 16 1.933Z" clip-rule="evenodd"/>
</svg>
