<svg xmlns="http://www.w3.org/2000/svg" width="32" height="32" fill="currentColor" viewBox="0 0 32 32">
  <path fill-rule="evenodd" d="M16 12a1 1 0 0 1-1-1V8.062A8.004 8.004 0 0 0 8.062 15H11a1 1 0 1 1 0 2H8.062A8.004 8.004 0 0 0 15 23.938V21a1 1 0 1 1 2 0v2.938A8.004 8.004 0 0 0 23.938 17H21a1 1 0 1 1 0-2h2.938A8.004 8.004 0 0 0 17 8.062V11a1 1 0 0 1-1 1Zm1 13.95A10.003 10.003 0 0 0 25.95 17H29a1 1 0 1 0 0-2h-3.05A10.003 10.003 0 0 0 17 6.05V3a1 1 0 1 0-2 0v3.05A10.003 10.003 0 0 0 6.05 15H3a1 1 0 1 0 0 2h3.05A10.003 10.003 0 0 0 15 25.95V29a1 1 0 1 0 2 0v-3.05Z" clip-rule="evenodd"/>
</svg>
