<svg xmlns="http://www.w3.org/2000/svg" width="32" height="32" fill="currentColor" viewBox="0 0 32 32">
  <path fill-rule="evenodd" d="M4 4h4v4H4V4ZM2 4a2 2 0 0 1 2-2h4a2 2 0 0 1 2 2v4a2 2 0 0 1-2 2H4a2 2 0 0 1-2-2V4Zm22 0h4v4h-4V4Zm-2 0a2 2 0 0 1 2-2h4a2 2 0 0 1 2 2v4a2 2 0 0 1-2 2h-4a2 2 0 0 1-2-2V4ZM4 24v4h4v-4H4Zm0-2a2 2 0 0 0-2 2v4a2 2 0 0 0 2 2h4a2 2 0 0 0 2-2v-4a2 2 0 0 0-2-2H4Zm18 2a2 2 0 0 1 2-2h4a2 2 0 0 1 2 2v4a2 2 0 0 1-2 2h-4a2 2 0 0 1-2-2v-4ZM6 11a1 1 0 0 1 1 1v8a1 1 0 1 1-2 0v-8a1 1 0 0 1 1-1Zm14-4a1 1 0 1 0 0-2h-8a1 1 0 1 0 0 2h8Zm1 19a1 1 0 0 1-1 1h-8a1 1 0 1 1 0-2h8a1 1 0 0 1 1 1Zm3-2h4v4h-4v-4Zm3-12a1 1 0 1 0-2 0v8a1 1 0 1 0 2 0v-8Z" clip-rule="evenodd"/>
</svg>
