<svg xmlns="http://www.w3.org/2000/svg" width="32" height="32" fill="currentColor" viewBox="0 0 32 32">
  <path d="M2.96 13.002a1 1 0 0 1 1.055.941A9.4 9.4 0 0 0 13.4 22.8a9.403 9.403 0 0 0 8.678-5.779 1 1 0 1 1 1.844.772C22.203 21.906 18.14 24.8 13.4 24.8c-6.076 0-11.04-4.753-11.381-10.743a1 1 0 0 1 .941-1.055ZM13.4 2c4.573 0 8.516 2.693 10.332 6.576a1 1 0 0 1-1.812.848A9.402 9.402 0 0 0 13.4 4a9.367 9.367 0 0 0-6.618 2.725 1 1 0 1 1-1.409-1.42A11.367 11.367 0 0 1 13.4 2Z"/>
  <path d="M20.047 20.047a1 1 0 0 1 1.414 0l8.246 8.246a1 1 0 0 1-1.414 1.414l-8.246-8.246a1 1 0 0 1 0-1.414Zm.977-7.038a.987.987 0 0 0-.988-.985.987.987 0 0 0-1.012.96.987.987 0 0 0 .988.985.987.987 0 0 0 1.012-.96Zm2 .024c-.02 1.655-1.393 2.956-3.036 2.936-1.644-.02-2.984-1.354-2.964-3.009.02-1.654 1.392-2.956 3.036-2.936 1.644.02 2.984 1.355 2.963 3.01ZM14 17a1 1 0 1 0-2 0 1 1 0 0 0 2 0Zm2 0a3 3 0 1 1-6 0 3 3 0 0 1 6 0Zm-7-6a1 1 0 1 0-2 0 1 1 0 0 0 2 0Zm2 0a3 3 0 1 1-6 0 3 3 0 0 1 6 0Z"/>
  <path d="M17.36 12.731a1.001 1.001 0 0 1 1.28 1.538l-3 2.5a1.001 1.001 0 0 1-1.28-1.538l3-2.5Zm-8.598-.078a1 1 0 0 1 1.414.027l2.045 2.127a1 1 0 0 1-1.442 1.386l-2.044-2.126a1 1 0 0 1 .027-1.414Zm12.309.476a1 1 0 0 1 1.3-.558l5 2a1 1 0 0 1-.742 1.858l-5-2a1 1 0 0 1-.558-1.3ZM1.581 8.606a1 1 0 0 1 1.313-.525l3.5 1.5a1 1 0 0 1-.788 1.838l-3.5-1.5a1 1 0 0 1-.525-1.313Z"/>
</svg>
