<svg xmlns="http://www.w3.org/2000/svg" width="33" height="32" fill="currentColor" viewBox="0 0 33 32">
  <path d="M23.296 16a7 7 0 1 1 0 14 7 7 0 0 1-7-7 7 7 0 0 1 7-7Zm-1-14a1 1 0 0 1 1 1v11a1 1 0 0 1-2 0V4H5.326c-.543 0-1.03.458-1.03 1.094V22.11a2.6 2.6 0 0 1 .759-.11 1 1 0 0 1 .134.01h9.107a1 1 0 0 1 .103 1.994l-.103.006h-9.24c-.018 0-.036-.003-.053-.004-.3.035-.707.359-.707.994 0 .676.46 1 .759 1h9.241a1 1 0 0 1 0 2h-9.24c-1.632 0-2.76-1.462-2.76-3V5.094C2.296 3.414 3.618 2 5.326 2h16.97Zm1 16a5 5 0 0 0-5 5 5 5 0 1 0 10 0 5 5 0 0 0-5-5Zm.02 1.001a1.027 1.027 0 0 1 .106.007c.012.001.024.004.035.006l.057.01.027.007a.996.996 0 0 1 .268.112c.016.01.032.018.048.029.051.035.1.075.146.121l2 2 .069.076a1 1 0 0 1-1.407 1.406l-.076-.068-.293-.293V26l-.005.102a1 1 0 0 1-1.99 0L22.296 26v-3.586l-.293.293a1 1 0 1 1-1.414-1.414l2-2a1.006 1.006 0 0 1 .45-.259c.016-.004.032-.009.05-.012.01-.003.021-.004.033-.006a1.046 1.046 0 0 1 .154-.015l.02-.001.02.001ZM16.297 9a1 1 0 0 1 0 2h-7a1 1 0 1 1 0-2h7Zm1-3a1 1 0 0 1 0 2h-9a1 1 0 0 1 0-2h9Z"/>
</svg>
