<svg xmlns="http://www.w3.org/2000/svg" width="32" height="32" fill="none" viewBox="0 0 32 32">
  <path fill="#3D3C3C" fill-rule="evenodd" d="M19 4h-6v4h6V4Zm-6-2a2 2 0 0 0-2 2v1H8a3 3 0 0 0-3 3v19a3 3 0 0 0 3 3h16a3 3 0 0 0 3-3V8a3 3 0 0 0-3-3h-3V4a2 2 0 0 0-2-2h-6ZM8 7h3v1a2 2 0 0 0 2 2h6a2 2 0 0 0 2-2V7h3a1 1 0 0 1 1 1v19a1 1 0 0 1-1 1H8a1 1 0 0 1-1-1V8a1 1 0 0 1 1-1Zm1 16a1 1 0 1 0 2 0v-9a1 1 0 1 0-2 0v9Zm7 1a1 1 0 0 1-1-1v-4.5a1 1 0 1 1 2 0V23a1 1 0 0 1-1 1Zm5-1a1 1 0 1 0 2 0v-6.5a1 1 0 1 0-2 0V23Z" clip-rule="evenodd"/>
</svg>
