<svg xmlns="http://www.w3.org/2000/svg" width="32" height="32" fill="currentColor" viewBox="0 0 32 32">
  <path d="M13 4a1 1 0 0 1 1 1v22a1 1 0 1 1-2 0V17H5.414l2.293 2.293a1 1 0 1 1-1.414 1.414l-4-4a1 1 0 0 1-.173-.232l-.02-.042a.994.994 0 0 1-.073-.664l.016-.062a.995.995 0 0 1 .122-.257.965.965 0 0 1 .128-.157l4-4a1 1 0 1 1 1.414 1.414L5.414 15H12V5a1 1 0 0 1 1-1Zm6 0a1 1 0 0 1 1 1v10h6.586l-2.293-2.293a1 1 0 1 1 1.414-1.414l4 4a1.004 1.004 0 0 1 .25.414l.001.008a.999.999 0 0 1-.251.992l-4 4a1 1 0 1 1-1.414-1.414L26.586 17H20v10a1 1 0 1 1-2 0V5a1 1 0 0 1 1-1Z"/>
</svg>
