<svg xmlns="http://www.w3.org/2000/svg" width="32" height="32" fill="none" viewBox="0 0 32 32">
  <path fill="#3D3C3C" fill-rule="evenodd" d="M15.8 5.6a1 1 0 1 0-1.6-1.2L12 7.333 9.8 4.4a1 1 0 1 0-1.6 1.2L10 8H9a4 4 0 0 0-4 4v2a3 3 0 0 0-3 3v2a3 3 0 0 0 3 3v2a4 4 0 0 0 4 4h14a4 4 0 0 0 4-4v-2a3 3 0 0 0 3-3v-2a3 3 0 0 0-3-3v-2a4 4 0 0 0-4-4h-9l1.8-2.4ZM27 16v4a1 1 0 0 0 1-1v-2a1 1 0 0 0-1-1ZM4 17a1 1 0 0 1 1-1v4a1 1 0 0 1-1-1v-2Zm19-7H9a2 2 0 0 0-2 2v12a2 2 0 0 0 2 2h14a2 2 0 0 0 2-2V12a2 2 0 0 0-2-2Zm-7 11c-1.061 0-2.206-.501-3.257-1.669a1 1 0 0 0-1.486 1.338C12.606 22.169 14.26 23 16 23c1.739 0 3.394-.832 4.743-2.331a1 1 0 1 0-1.486-1.338C18.206 20.5 17.06 21 16 21Zm-4-4a2 2 0 1 0 0-4 2 2 0 0 0 0 4Zm10-2a2 2 0 1 1-4 0 2 2 0 0 1 4 0Z" clip-rule="evenodd"/>
</svg>
