<svg xmlns="http://www.w3.org/2000/svg" width="32" height="32" fill="currentColor" viewBox="0 0 32 32">
  <path d="M12.428 25.18a1 1 0 0 1 1.33.167l.062.08 1.679 2.407.046.043c.072.052.222.123.469.123.33 0 .485-.13.508-.162v-.001l1.657-2.383a1 1 0 0 1 1.642 1.142l-1.656 2.383v-.002C17.641 29.73 16.742 30 16.017 30c-.728.001-1.63-.264-2.158-1.019v-.002l-1.68-2.407-.054-.087a1 1 0 0 1 .302-1.305Zm3.714-23.173c.325.031.619.163.835.28a5.5 5.5 0 0 1 .842.58c.57.467 1.206 1.118 1.83 1.9 1.242 1.559 2.504 3.727 3.083 6.153h.001c.274 1.142.313 2.306.22 3.426l.54.304.005.004.395.244C25.818 16.17 27 18.268 27 20.55v5.861c0 .74-.486 1.266-1.021 1.475a1.65 1.65 0 0 1-1.635-.25l-.098-.085L20.476 24h-8.952l-3.77 3.552a1.647 1.647 0 0 1-1.733.335C5.486 27.678 5 27.15 5 26.412v-5.861c0-2.436 1.345-4.659 3.502-5.897l.006-.004.539-.304c-.094-1.124-.055-2.283.22-3.426.58-2.426 1.842-4.594 3.085-6.153.623-.782 1.259-1.433 1.829-1.9a5.5 5.5 0 0 1 .842-.58C15.27 2.152 15.62 2 16 2l.142.007ZM9.308 16.505C7.853 17.422 7 18.94 7 20.55v4.962l3.092-2.912-.784-6.096Zm12.59 6.088L25 25.513V20.55c0-1.614-.857-3.135-2.318-4.052l-.784 6.094ZM15.975 4.046a3.54 3.54 0 0 0-.528.369c-.44.36-.977.904-1.531 1.599-1.11 1.393-2.21 3.3-2.704 5.372h-.001c-.224.932-.256 1.916-.16 2.926l.048.434L12.03 22h7.928l.933-7.254.016-.092.005-.021c.117-.97.124-1.93-.04-2.843l-.084-.403v-.001c-.495-2.071-1.595-3.98-2.705-5.372-.554-.695-1.092-1.24-1.531-1.599a3.54 3.54 0 0 0-.528-.37L16 4.034l-.025.013ZM16 9a3.5 3.5 0 1 1 0 7 3.5 3.5 0 0 1 0-7Zm0 2a1.5 1.5 0 1 0 0 3 1.5 1.5 0 0 0 0-3Z"/>
</svg>
