<svg xmlns="http://www.w3.org/2000/svg" width="32" height="32" fill="currentColor" viewBox="0 0 32 32">
  <path fill-rule="evenodd" d="M16 11a2 2 0 1 0 0 4 2 2 0 0 0 0-4Zm-4 2a4 4 0 1 1 8 0 4 4 0 0 1-8 0Zm0 7.798.02 2.193a1 1 0 0 1-2 .018L10 20.801C10 19.148 11.456 18 13.018 18h5.964c1.555 0 3.034 1.153 3.018 2.81m0 .001-.02 2.198a1 1 0 1 1-2-.018l.02-2.2c.003-.32-.335-.791-1.018-.791h-5.964c-.674 0-1.016.456-1.018.798" clip-rule="evenodd"/>
  <path fill-rule="evenodd" d="M16 8a8 8 0 1 0 0 16 8 8 0 0 0 0-16ZM6 16c0-5.523 4.477-10 10-10s10 4.477 10 10-4.477 10-10 10S6 21.523 6 16Z" clip-rule="evenodd"/>
  <path fill-rule="evenodd" d="M5.697 5.709a1 1 0 0 1 1.414-.002l3.095 3.085a1 1 0 1 1-1.412 1.416L5.699 7.123a1 1 0 0 1-.002-1.414Z" clip-rule="evenodd"/>
  <path fill-rule="evenodd" d="M5 4a1 1 0 1 0 0 2 1 1 0 0 0 0-2ZM2 5a3 3 0 1 1 6 0 3 3 0 0 1-6 0Zm24.335.826a1 1 0 0 1-.03 1.413l-3.113 2.983a1 1 0 1 1-1.384-1.444l3.114-2.983a1 1 0 0 1 1.413.03Z" clip-rule="evenodd"/>
  <path fill-rule="evenodd" d="M27 4a1 1 0 1 0 0 2 1 1 0 0 0 0-2Zm-3 1a3 3 0 1 1 6 0 3 3 0 0 1-6 0ZM10.207 21.793a1 1 0 0 1 0 1.414l-3 3a1 1 0 0 1-1.414-1.414l3-3a1 1 0 0 1 1.414 0Z" clip-rule="evenodd"/>
  <path fill-rule="evenodd" d="M5 26a1 1 0 1 0 0 2 1 1 0 0 0 0-2Zm-3 1a3 3 0 1 1 6 0 3 3 0 0 1-6 0Zm19.793-5.207a1 1 0 0 1 1.414 0l3 3a1 1 0 0 1-1.414 1.414l-3-3a1 1 0 0 1 0-1.414Z" clip-rule="evenodd"/>
  <path fill-rule="evenodd" d="M27 26a1 1 0 1 0 0 2 1 1 0 0 0 0-2Zm-3 1a3 3 0 1 1 6 0 3 3 0 0 1-6 0Z" clip-rule="evenodd"/>
</svg>
