<svg xmlns="http://www.w3.org/2000/svg" width="32" height="32" fill="currentColor" viewBox="0 0 32 32">
  <path fill-rule="evenodd" d="M4 5a1 1 0 1 1 1.757.653 1.015 1.015 0 0 0-.109.109A1 1 0 0 1 4 5Zm2.288 2.71a3 3 0 1 1 1.417-1.412l1.965 1.96A9.959 9.959 0 0 1 16 6c2.407 0 4.616.85 6.341 2.267l1.986-1.903a3 3 0 1 1 1.453 1.377l-2.027 1.943A9.959 9.959 0 0 1 26 16a9.958 9.958 0 0 1-2.257 6.329l1.964 1.963a3 3 0 1 1-1.414 1.414l-1.964-1.963A9.958 9.958 0 0 1 16 26a9.959 9.959 0 0 1-6.329-2.257l-1.963 1.964a3 3 0 1 1-1.414-1.414l1.963-1.964A9.958 9.958 0 0 1 6 16c0-2.4.846-4.604 2.256-6.328L6.288 7.71ZM8 16a8 8 0 1 1 13.995 5.297L22 20.81l-2-.002v-.001l2 .002c.016-1.657-1.463-2.81-3.018-2.81h-5.964C11.456 18 10 19.148 10 20.801l.005.496A7.97 7.97 0 0 1 8 16Zm4 4.798c.002-.342.344-.798 1.018-.798h5.964c.683 0 1.021.471 1.018.791v.017l-8-.01Zm0 0 .02 2.143A7.964 7.964 0 0 0 16 24c1.45 0 2.808-.385 3.98-1.059l.02-2.132-8-.011ZM16 11a2 2 0 1 0 0 4 2 2 0 0 0 0-4Zm-4 2a4 4 0 1 1 8 0 4 4 0 0 1-8 0Zm14-8a1 1 0 1 1 2 0 1 1 0 0 1-2 0ZM4 27a1 1 0 1 1 2 0 1 1 0 0 1-2 0Zm22 0a1 1 0 1 1 2 0 1 1 0 0 1-2 0Z" clip-rule="evenodd"/>
</svg>
