<svg xmlns="http://www.w3.org/2000/svg" width="32" height="32" fill="currentColor" viewBox="0 0 32 32">
  <path fill-rule="evenodd" d="M6.25 4C5.01 4 4 5.01 4 6.25v19.5C4 26.99 5.01 28 6.25 28h19.5c1.24 0 2.25-1.01 2.25-2.25V10.846a2.25 2.25 0 0 0-.663-1.586l-4.602-4.602A2.217 2.217 0 0 0 21.154 4H6.25ZM2 6.25A4.254 4.254 0 0 1 6.25 2h14.904c1.127 0 2.21.448 3.003 1.252l.003.003 4.59 4.59A4.25 4.25 0 0 1 30 10.847V25.75A4.254 4.254 0 0 1 25.75 30H6.25A4.254 4.254 0 0 1 2 25.75V6.25Z" clip-rule="evenodd"/>
  <path fill-rule="evenodd" d="M10 2a1 1 0 0 1 1 1v7.857c0 1.257.833 2.143 2 2.143h6c.652 0 1.138-.226 1.46-.552.324-.329.54-.818.54-1.448V4a1 1 0 1 1 2 0v7c0 1.103-.388 2.114-1.116 2.852C21.154 14.592 20.14 15 19 15h-6c-2.417 0-4-1.933-4-4.143V3a1 1 0 0 1 1-1Zm3 22c-1.102 0-2 .898-2 2v3a1 1 0 1 1-2 0v-3c0-2.207 1.793-4 4-4h6c2.207 0 4 1.793 4 4v3a1 1 0 1 1-2 0v-3c0-1.102-.898-2-2-2h-6Z" clip-rule="evenodd"/>
</svg>
