<svg xmlns="http://www.w3.org/2000/svg" width="32" height="32" fill="currentColor" viewBox="0 0 32 32">
  <path fill-rule="evenodd" d="M6.25 4C5.01 4 4 5.01 4 6.25v19.5C4 26.99 5.01 28 6.25 28H9v-2c0-2.207 1.793-4 4-4h6c2.207 0 4 1.793 4 4v2h2.75c1.24 0 2.25-1.01 2.25-2.25V10.846a2.25 2.25 0 0 0-.663-1.586L23 4.923V11c0 1.103-.388 2.114-1.116 2.852C21.154 14.592 20.14 15 19 15h-6c-2.417 0-4-1.933-4-4.143V4H6.25ZM21 28v-2c0-1.102-.898-2-2-2h-6c-1.102 0-2 .898-2 2v2h10Zm-11 2H6.25A4.254 4.254 0 0 1 2 25.75V6.25A4.254 4.254 0 0 1 6.25 2h14.904c1.127 0 2.21.448 3.003 1.252l.003.003 4.59 4.59A4.25 4.25 0 0 1 30 10.847V25.75A4.254 4.254 0 0 1 25.75 30H10Zm1-26h10v7c0 .63-.216 1.12-.54 1.448-.322.326-.808.552-1.46.552h-6c-1.167 0-2-.886-2-2.143V4Z" clip-rule="evenodd"/>
</svg>
