<svg xmlns="http://www.w3.org/2000/svg" width="32" height="32" fill="currentColor" viewBox="0 0 32 32">
  <path fill-rule="evenodd" d="M26.002 28A3.994 3.994 0 0 0 30 24.002V5.998A3.994 3.994 0 0 0 26.002 2H7.998A3.994 3.994 0 0 0 4 5.998V11a1 1 0 1 0 2 0V5.998C6 4.892 6.892 4 7.998 4h18.004C27.108 4 28 4.892 28 5.998v18.004A1.994 1.994 0 0 1 26.002 26H21a1 1 0 1 0 0 2h5.002ZM5 14a3 3 0 0 0-3 3v10a3 3 0 0 0 3 3h10a3 3 0 0 0 3-3V17a3 3 0 0 0-3-3H5Zm-1 3a1 1 0 0 1 1-1h10a1 1 0 0 1 1 1v10a1 1 0 0 1-1 1H5a1 1 0 0 1-1-1V17Z" clip-rule="evenodd"/>
</svg>
