<svg xmlns="http://www.w3.org/2000/svg" width="32" height="32" fill="currentColor" viewBox="0 0 32 32">
  <path fill-rule="evenodd" d="M30 24.002A3.994 3.994 0 0 1 26.002 28H21a1 1 0 1 1 0-2h5.002A1.994 1.994 0 0 0 28 24.002V5.998A1.994 1.994 0 0 0 26.002 4H7.998A1.994 1.994 0 0 0 6 5.998V11a1 1 0 1 1-2 0V5.998A3.994 3.994 0 0 1 7.998 2h18.004A3.994 3.994 0 0 1 30 5.998v18.004Z" clip-rule="evenodd"/>
  <path fill-rule="evenodd" d="M2 17a3 3 0 0 1 3-3h10a3 3 0 0 1 3 3v10a3 3 0 0 1-3 3H5a3 3 0 0 1-3-3V17Zm3-1a1 1 0 0 0-1 1v10a1 1 0 0 0 1 1h10a1 1 0 0 0 1-1V17a1 1 0 0 0-1-1H5Z" clip-rule="evenodd"/>
</svg>
