<svg xmlns="http://www.w3.org/2000/svg" width="32" height="32" fill="currentColor" viewBox="0 0 32 32">
  <path fill-rule="evenodd" d="M4.319 8.337A.837.837 0 0 0 4 9.025V26.77c0 .62.535 1.194 1.29 1.194h10.427a1 1 0 1 1 0 2H5.29C3.513 29.964 2 28.575 2 26.77V9.025c0-.903.386-1.694 1.056-2.24C3.71 6.255 4.575 6 5.5 6H6a1 1 0 0 1 0 2h-.5c-.575 0-.96.157-1.181.337ZM21 7a1 1 0 0 1 1-1h.5C24.298 6 26 7.241 26 9.104V14a1 1 0 1 1-2 0V9.104C24 8.643 23.515 8 22.5 8H22a1 1 0 0 1-1-1Z" clip-rule="evenodd"/>
  <path fill-rule="evenodd" d="M2 12a1 1 0 0 1 1-1h21a1 1 0 1 1 0 2H3a1 1 0 0 1-1-1Zm7.049-5.017a1 1 0 0 1 1-1h7.96a1 1 0 1 1 0 2h-7.96a1 1 0 0 1-1-1Z" clip-rule="evenodd"/>
  <path fill-rule="evenodd" d="M10 4c.552 0 1 .45 1 1.006v3.988C11 9.55 10.552 10 10 10s-1-.45-1-1.006V5.006C9 4.45 9.448 4 10 4Zm8 0c.552 0 1 .45 1 1.006v3.988C19 9.55 18.552 10 18 10s-1-.45-1-1.006V5.006C17 4.45 17.448 4 18 4Zm-2 19a7 7 0 0 1 7-7 7 7 0 1 1 0 14 7 7 0 0 1-7-7Zm7-5a5 5 0 0 0-5 5 5 5 0 1 0 10 0 5 5 0 0 0-5-5Z" clip-rule="evenodd"/>
  <path fill-rule="evenodd" d="M25.574 20.181a1 1 0 0 1 .245 1.393l-2.803 4a1 1 0 0 1-1.64-.002l-1.197-1.717a1 1 0 0 1 1.641-1.144l.379.543 1.982-2.828a1 1 0 0 1 1.393-.245Z" clip-rule="evenodd"/>
  <path d="M8.256 16h-.512c-.412 0-.744.31-.744.69v.62c0 .38.332.69.744.69h.512c.412 0 .744-.31.744-.69v-.62c0-.38-.332-.69-.744-.69Zm4 0h-.512c-.412 0-.744.31-.744.69v.62c0 .38.332.69.744.69h.512c.412 0 .744-.31.744-.69v-.62c0-.38-.332-.69-.744-.69Zm-4 4h-.512c-.412 0-.744.31-.744.69v.62c0 .38.332.69.744.69h.512c.412 0 .744-.31.744-.69v-.62c0-.38-.332-.69-.744-.69Zm4 0h-.512c-.412 0-.744.31-.744.69v.62c0 .38.332.69.744.69h.512c.412 0 .744-.31.744-.69v-.62c0-.38-.332-.69-.744-.69Zm-4 4h-.512c-.412 0-.744.31-.744.69v.62c0 .38.332.69.744.69h.512c.412 0 .744-.31.744-.69v-.62c0-.38-.332-.69-.744-.69Zm4 0h-.512c-.412 0-.744.31-.744.69v.62c0 .38.332.69.744.69h.512c.412 0 .744-.31.744-.69v-.62c0-.38-.332-.69-.744-.69Z"/>
</svg>
