<svg xmlns="http://www.w3.org/2000/svg" width="32" height="32" fill="currentColor" viewBox="0 0 32 32">
  <path fill-rule="evenodd" d="M3.933 13.695c0-5.391 4.37-9.762 9.762-9.762 5.39 0 9.761 4.37 9.761 9.762 0 5.39-4.37 9.761-9.761 9.761-5.391 0-9.762-4.37-9.762-9.761Zm9.762-11.762C7.199 1.933 1.933 7.2 1.933 13.695s5.266 11.761 11.762 11.761c2.887 0 5.532-1.04 7.58-2.768l7.085 7.086a1 1 0 0 0 1.414-1.415l-7.086-7.085a11.714 11.714 0 0 0 2.768-7.58c0-6.495-5.266-11.76-11.761-11.76Z" clip-rule="evenodd"/>
</svg>
