<svg xmlns="http://www.w3.org/2000/svg" width="32" height="32" fill="currentColor" viewBox="0 0 32 32">
  <path fill-rule="evenodd" d="M16.863 2.157c4.311 2.307 8.27 3.58 9.777 4.016l.012.003c.763.23 1.383.914 1.383 1.797v11.191c0 1.526-.69 2.913-1.626 4.097-.938 1.188-2.183 2.25-3.445 3.154-2.526 1.807-5.276 3.081-6.232 3.502l-.018.007c-.47.196-.99.196-1.46 0l-.016-.007c-.962-.42-3.712-1.695-6.237-3.502-1.262-.903-2.507-1.966-3.444-3.155-.934-1.184-1.624-2.57-1.624-4.096V7.983c0-.866.603-1.576 1.395-1.801a52.794 52.794 0 0 0 9.77-4.026l.475.88-.485-.874a1.838 1.838 0 0 1 1.775-.005Zm-.883 1.796A54.827 54.827 0 0 1 5.933 8.089v11.075c0 .91.414 1.869 1.194 2.858.777.984 1.858 1.922 3.038 2.767 2.312 1.654 4.859 2.848 5.819 3.272.959-.425 3.504-1.619 5.816-3.273 1.18-.844 2.262-1.782 3.04-2.767.78-.989 1.195-1.947 1.195-2.857V8.079c-1.617-.47-5.65-1.777-10.055-4.126Z" clip-rule="evenodd"/>
  <path fill-rule="evenodd" d="M12 15.165v5.67c2.432.22 5.577.22 8 0v-5.67c-2.432-.22-5.577-.22-8 0Zm-.665-1.944c2.762-.295 6.557-.294 9.33 0l.018.002c.717.09 1.317.683 1.317 1.47v6.614c0 .805-.63 1.38-1.311 1.47l-.024.002c-2.762.295-6.557.294-9.33 0l-.018-.002c-.717-.09-1.317-.683-1.317-1.47v-6.614c0-.805.63-1.38 1.311-1.47l.024-.002ZM16 9c-1.303 0-2 .83-2 1.443V11a1 1 0 1 1-2 0v-.557C12 8.36 13.996 7 16 7c1.042 0 2.012.34 2.749.94l.006.005c.716.592 1.245 1.46 1.245 2.498V11a1 1 0 1 1-2 0v-.557c0-.317-.157-.656-.517-.955C17.125 9.198 16.61 9 16 9Z" clip-rule="evenodd"/>
</svg>
