<svg xmlns="http://www.w3.org/2000/svg" width="32" height="32" fill="currentColor" viewBox="0 0 32 32">
  <path fill-rule="evenodd" d="M4.92 2.217c-.885-.445-1.803-.16-2.35.418a2.068 2.068 0 0 0-.35 2.352l5.454 11.015-5.445 11.015c-.82 1.665.86 3.675 2.694 2.774l11.562-5.76 12.384-6.171a1 1 0 0 0 .15-.093A2.04 2.04 0 0 0 30 16.005v-.015a2.038 2.038 0 0 0-1.13-1.836L16.483 7.982 4.92 2.217ZM26.083 15l-10.49-5.228L4.025 4.006l-.003.003A.085.085 0 0 0 4 4.05v.016c0 .006.003.018.012.037L9.408 15h16.674ZM9.41 17 4.023 27.9a.126.126 0 0 0-.013.037v.014a.079.079 0 0 0 .028.045h.002l11.552-5.755L26.11 17H9.41Z" clip-rule="evenodd"/>
</svg>
