<svg xmlns="http://www.w3.org/2000/svg" width="32" height="32" fill="currentColor" viewBox="0 0 32 32">
  <path fill-rule="evenodd" d="M22.879 1.529a1 1 0 0 1 1.345-.415l3.062 1.602a1 1 0 0 1 .425 1.346l-.517 1c.247.333.46.686.638 1.053l1.215.058a1 1 0 0 1 .953.999v3.355a1 1 0 0 1-.967 1l-1.053.034a6.385 6.385 0 0 1-.25.527l-.004.007a7.267 7.267 0 0 1-.307.515l.652 1.122a1 1 0 0 1-.375 1.374l-3.14 1.766a1 1 0 0 1-1.385-.427l-.47-.947c-.356.04-.717.051-1.08.03l-.5.937a1 1 0 0 1-1.345.415l-3.09-1.617a1 1 0 0 1-.417-1.362l.53-.98a6.548 6.548 0 0 1-.605-.99l-1.056.034a1 1 0 0 1-1.032-.97l-.105-3.498a1 1 0 0 1 .966-1.03l1.051-.034c.075-.179.16-.357.256-.534a7.3 7.3 0 0 1 .297-.5l-.556-.907a1 1 0 0 1 .322-1.372l2.956-1.843a1 1 0 0 1 1.38.324l.557.904a6.32 6.32 0 0 1 1.148-.04l.501-.936Zm1.296 1.817-.354.662a1 1 0 0 1-1.056.513 4.313 4.313 0 0 0-1.788.061 1 1 0 0 1-1.092-.446l-.387-.63-1.26.786.39.633a1 1 0 0 1-.087 1.166 4.477 4.477 0 0 0-.854 1.608 1 1 0 0 1-.925.711l-.732.024.045 1.5.734-.024a1 1 0 0 1 .972.655 4.56 4.56 0 0 0 .948 1.554 1 1 0 0 1 .15 1.159l-.369.682 1.315.688.354-.662a1 1 0 0 1 1.056-.513c.6.107 1.21.082 1.788-.061a1 1 0 0 1 1.136.526l.335.675 1.338-.753-.472-.812a1 1 0 0 1 .099-1.145c.184-.22.353-.475.508-.76a4.65 4.65 0 0 0 .346-.848 1 1 0 0 1 .925-.711L28 9.559V8.126l-.889-.042a1 1 0 0 1-.892-.655 4.56 4.56 0 0 0-.948-1.554 1 1 0 0 1-.158-1.143l.364-.705-1.302-.681ZM4 7.519C4 6.7 4.684 6 5.567 6H11a1 1 0 1 0 0-2H5.567C3.615 4 2 5.558 2 7.52v13.96C2 23.443 3.615 25 5.567 25H15v3h-5a1 1 0 1 0 0 2h12a1 1 0 1 0 0-2h-5v-3h9.433C28.385 25 30 23.442 30 21.48V18a1 1 0 1 0-2 0v1H4V7.52ZM4 21v.48c0 .822.684 1.52 1.567 1.52h20.866c.883 0 1.567-.698 1.567-1.52V21H4ZM23 9a1 1 0 1 1-2 0 1 1 0 0 1 2 0Zm2 0a3 3 0 1 1-6 0 3 3 0 0 1 6 0Z" clip-rule="evenodd"/>
</svg>
