<svg xmlns="http://www.w3.org/2000/svg" width="32" height="32" fill="currentColor" viewBox="0 0 32 32">
  <path fill-rule="evenodd" d="M23.001 20a3 3 0 1 1 0 6 3 3 0 0 1 0-6Zm0 2a1 1 0 1 0 0 2 1 1 0 0 0 0-2Z" clip-rule="evenodd"/>
  <path fill-rule="evenodd" d="M23.932 15.441a1 1 0 0 1 1.293-.327l3.061 1.602a1 1 0 0 1 .425 1.345l-.519 1.002c.248.332.46.685.638 1.052l1.217.058a1 1 0 0 1 .953.999v3.354a1 1 0 0 1-.968 1l-1.053.034a6.41 6.41 0 0 1-.25.528l-.003.007a7.344 7.344 0 0 1-.308.513l.652 1.124a1 1 0 0 1-.374 1.373l-3.14 1.767a1.002 1.002 0 0 1-1.385-.428l-.472-.949a6.32 6.32 0 0 1-1.077.031l-.5.939a1 1 0 0 1-1.347.415l-3.09-1.617a1.003 1.003 0 0 1-.416-1.362l.53-.982a6.557 6.557 0 0 1-.604-.99l-1.056.036a1.002 1.002 0 0 1-1.033-.97L15 21.497a1 1 0 0 1 .968-1.03l1.052-.034a6.18 6.18 0 0 1 .551-1.033l-.556-.908a1.001 1.001 0 0 1 .323-1.372l2.955-1.843a1.001 1.001 0 0 1 1.38.325l.558.903a6.323 6.323 0 0 1 1.146-.04l.502-.937.053-.087Zm.89 2.567a1 1 0 0 1-1.057.512 4.315 4.315 0 0 0-1.788.062 1.001 1.001 0 0 1-1.091-.446l-.389-.63-1.259.785.389.634a1 1 0 0 1-.085 1.166 4.494 4.494 0 0 0-.855 1.608 1 1 0 0 1-.924.711l-.734.024.046 1.499.735-.024.159.008a1 1 0 0 1 .811.647c.212.578.53 1.107.95 1.555a1 1 0 0 1 .149 1.158l-.37.683 1.315.688.355-.662.087-.134a1 1 0 0 1 .97-.38c.598.107 1.21.082 1.787-.06a1 1 0 0 1 1.136.526l.334.673 1.338-.752-.47-.811a1.001 1.001 0 0 1 .097-1.145 4.6 4.6 0 0 0 .507-.756c.146-.274.259-.557.348-.852l.057-.149c.16-.33.492-.55.867-.563l.763-.025v-1.433l-.889-.042a1 1 0 0 1-.891-.654 4.562 4.562 0 0 0-.95-1.554 1.002 1.002 0 0 1-.158-1.144l.365-.705-1.302-.681-.354.663ZM10 16a3 3 0 0 1 3 3v4a3 3 0 0 1-3 3H6a3 3 0 0 1-3-3v-4a3 3 0 0 1 3-3h4Zm-4 2a1 1 0 0 0-1 1v4a1 1 0 0 0 1 1h4a1 1 0 0 0 1-1v-4a1 1 0 0 0-1-1H6Zm5-17a3 3 0 0 1 3 3v7a3 3 0 0 1-3 3H4a3 3 0 0 1-3-3V4a3 3 0 0 1 3-3h7ZM4 3a1 1 0 0 0-1 1v7a1 1 0 0 0 1 1h7a1 1 0 0 0 1-1V4a1 1 0 0 0-1-1H4Zm19 0a3 3 0 0 1 3 3v4a3 3 0 0 1-3 3h-4a3 3 0 0 1-3-3V6a3 3 0 0 1 3-3h4Zm-4 2a1 1 0 0 0-1 1v4a1 1 0 0 0 1 1h4a1 1 0 0 0 1-1V6a1 1 0 0 0-1-1h-4Z" clip-rule="evenodd"/>
</svg>
