<svg xmlns="http://www.w3.org/2000/svg" width="32" height="32" fill="currentColor" viewBox="0 0 32 32">
  <path fill-rule="evenodd" d="M18.476 1.114a1 1 0 0 0-1.345.414l-.616 1.152a7.08 7.08 0 0 0-1.468.05l-.684-1.11a1 1 0 0 0-1.381-.325L9.604 3.4a1 1 0 0 0-.323 1.372l.684 1.114a8.019 8.019 0 0 0-.383.637 6.682 6.682 0 0 0-.321.682l-1.294.043A1 1 0 0 0 7 8.279l.121 3.997a1 1 0 0 0 1.032.97l1.299-.043c.213.444.47.868.773 1.266l-.65 1.2a1 1 0 0 0 .417 1.361l3.532 1.849a1 1 0 0 0 1.345-.415l.616-1.152c.47.033.939.019 1.399-.04l.582 1.173a1 1 0 0 0 1.386.427l3.588-2.018a1 1 0 0 0 .374-1.374l-.79-1.36c.143-.212.274-.43.394-.651l.004-.007c.12-.224.224-.45.316-.676l1.295-.042a1 1 0 0 0 .967-1V7.91a1 1 0 0 0-.953-.998l-1.474-.07a7.352 7.352 0 0 0-.806-1.329l.633-1.222a1 1 0 0 0-.425-1.346l-3.499-1.831Zm-.52 3.113.471-.881 1.74.91-.483.932a1 1 0 0 0 .158 1.142 5.355 5.355 0 0 1 1.114 1.825 1 1 0 0 0 .892.655L23 8.864v1.913l-1.01.033a1 1 0 0 0-.924.71 5.462 5.462 0 0 1-.407.998 5.4 5.4 0 0 1-.597.891 1 1 0 0 0-.098 1.145l.612 1.053-1.787 1.005-.45-.905a1 1 0 0 0-1.136-.527 5.072 5.072 0 0 1-2.102.073 1 1 0 0 0-1.057.513l-.47.881-1.757-.919.49-.907a1 1 0 0 0-.15-1.159 5.355 5.355 0 0 1-1.113-1.825 1 1 0 0 0-.972-.655l-.982.032-.06-2 .98-.031a1 1 0 0 0 .924-.711 5.264 5.264 0 0 1 1.004-1.889 1 1 0 0 0 .086-1.165l-.519-.845 1.682-1.049.518.842a1 1 0 0 0 1.092.446 5.072 5.072 0 0 1 2.102-.072 1 1 0 0 0 1.057-.513ZM18 10a2 2 0 1 1-4 0 2 2 0 0 1 4 0Zm2 0a4 4 0 1 1-8 0 4 4 0 0 1 8 0Zm5.44 10.255c1.268-.632 2.764-.049 3.332 1.242.545 1.228.091 2.768-1.174 3.396l-.004.002-9.63 4.84a2.382 2.382 0 0 1-1.634.202l-8.393-1.96-1.487.75a1 1 0 0 1-.9-1.787l1.811-.912a1 1 0 0 1 .678-.081l8.749 2.043h.005c.076.02.17.011.263-.036l.007-.004 9.645-4.848c.225-.111.384-.46.235-.794l-.002-.005c-.128-.292-.408-.36-.61-.257l-.011.005-6.387 3.107c-.018.08-.041.158-.068.236-.43 1.245-1.78 1.924-3.034 1.46l-3.617-1.342a1 1 0 1 1 .695-1.875l3.615 1.342c.165.06.374-.015.45-.238.086-.248-.05-.475-.221-.538l-3.943-1.455-.012-.004a2.357 2.357 0 0 1-.052-.02h-.001a1.847 1.847 0 0 1-.177-.076l-2.88-1.433h-.001a1.987 1.987 0 0 0-1.79-.004l-.017.009-4.447 2.138a1 1 0 1 1-.866-1.802l4.438-2.135a3.987 3.987 0 0 1 3.568 0l.003.002 2.87 1.428.005.002.02.007.004.002h.001l.02.007 3.95 1.457c.449.166.813.453 1.076.808l5.918-2.88Z" clip-rule="evenodd"/>
</svg>
