<svg xmlns="http://www.w3.org/2000/svg" width="32" height="32" fill="currentColor" viewBox="0 0 32 32">
  <path d="M22 17a6 6 0 0 1 4.889 9.475l2.818 2.818a1 1 0 1 1-1.414 1.414l-2.818-2.818A6 6 0 1 1 22 17Zm-11 0a3 3 0 0 1 3 3v4a3 3 0 0 1-3 3H7a3 3 0 0 1-3-3v-4a3 3 0 0 1 3-3h4Zm11 2a4 4 0 1 0 0 8 4 4 0 0 0 0-8ZM7 19a1 1 0 0 0-1 1v4a1 1 0 0 0 1 1h4a1 1 0 0 0 1-1v-4a1 1 0 0 0-1-1H7Zm5-17a3 3 0 0 1 3 3v7a3 3 0 0 1-3 3H5a3 3 0 0 1-3-3V5a3 3 0 0 1 3-3h7Zm12 3a3 3 0 0 1 3 3v4a3 3 0 0 1-3 3h-4a3 3 0 0 1-3-3V8a3 3 0 0 1 3-3h4ZM5 4a1 1 0 0 0-1 1v7a1 1 0 0 0 1 1h7a1 1 0 0 0 1-1V5a1 1 0 0 0-1-1H5Zm15 3a1 1 0 0 0-1 1v4a1 1 0 0 0 1 1h4a1 1 0 0 0 1-1V8a1 1 0 0 0-1-1h-4Z"/>
</svg>
