<svg xmlns="http://www.w3.org/2000/svg" width="32" height="32" fill="currentColor" viewBox="0 0 32 32">
  <path fill-rule="evenodd" d="M6 5.496C6 4.656 6.673 4 7.442 4h16.116C24.327 4 25 4.656 25 5.496V9a1 1 0 1 0 2 0V5.496C27 3.593 25.473 2 23.558 2H7.442C5.528 2 4 3.593 4 5.496V8H3a1 1 0 0 0 0 2h4a1 1 0 0 0 0-2H6V5.496ZM6 25.95a1 1 0 1 0-2 0v.554C4 28.407 5.528 30 7.442 30H9a1 1 0 1 0 0-2H7.442C6.673 28 6 27.344 6 26.504v-.554ZM3 15a1 1 0 1 0 0 2h4a1 1 0 1 0 0-2H6v-3a1 1 0 1 0-2 0v3H3Zm0 7a1 1 0 1 0 0 2h4a1 1 0 1 0 0-2H6v-3a1 1 0 1 0-2 0v3H3Zm21.066-8a.066.066 0 0 0-.066.066v3.868c0 .037.03.066.066.066h3.868c.037 0 .066-.03.066-.066v-3.868a.066.066 0 0 0-.066-.066h-3.868ZM22 14.066c0-1.141.925-2.066 2.066-2.066h3.868c1.141 0 2.066.925 2.066 2.066v3.868A2.066 2.066 0 0 1 27.934 20h-3.868A2.066 2.066 0 0 1 22 17.934v-3.868ZM12 12.42c0-.232.188-.421.421-.421h5.158c.232 0 .421.188.421.421v5.158a.421.421 0 0 1-.421.421H12.42a.421.421 0 0 1-.421-.421V12.42Zm.421-2.42A2.421 2.421 0 0 0 10 12.421v5.158A2.421 2.421 0 0 0 12.421 20h5.158A2.421 2.421 0 0 0 20 17.579V12.42A2.421 2.421 0 0 0 17.579 10H12.42Zm11.645 14a.066.066 0 0 0-.066.066v3.868c0 .037.03.066.066.066h3.868c.037 0 .066-.03.066-.066v-3.868a.066.066 0 0 0-.066-.066h-3.868ZM22 24.066c0-1.141.925-2.066 2.066-2.066h3.868c1.141 0 2.066.925 2.066 2.066v3.868A2.066 2.066 0 0 1 27.934 30h-3.868A2.066 2.066 0 0 1 22 27.934v-3.868Zm-8 0c0-.037.03-.066.066-.066h3.868c.037 0 .066.03.066.066v3.868c0 .037-.03.066-.066.066h-3.868a.066.066 0 0 1-.066-.066v-3.868ZM14.066 22A2.066 2.066 0 0 0 12 24.066v3.868c0 1.141.925 2.066 2.066 2.066h3.868A2.066 2.066 0 0 0 20 27.934v-3.868A2.066 2.066 0 0 0 17.934 22h-3.868Z" clip-rule="evenodd"/>
</svg>
