<svg xmlns="http://www.w3.org/2000/svg" width="32" height="32" fill="currentColor" viewBox="0 0 32 32">
  <path fill-rule="evenodd" d="M7 2a3 3 0 0 0-3 3v22a3 3 0 0 0 3 3h18a3 3 0 0 0 3-3V5a3 3 0 0 0-3-3H7ZM6 5a1 1 0 0 1 1-1h18a1 1 0 0 1 1 1v22a1 1 0 0 1-1 1H7a1 1 0 0 1-1-1V5Zm12.224.114a1 1 0 0 0-1.345.415l-.5.936a6.32 6.32 0 0 0-1.15.04l-.555-.904a1 1 0 0 0-1.38-.324L10.336 7.12a1 1 0 0 0-.322 1.372l.556.907a7.307 7.307 0 0 0-.297.5c-.096.177-.18.356-.255.534l-1.052.035A1 1 0 0 0 8 11.498l.106 3.498a1 1 0 0 0 1.032.969l1.056-.034c.17.345.372.676.604.99l-.53.98a1 1 0 0 0 .417 1.361l3.09 1.618a1 1 0 0 0 1.346-.415l.5-.937c.363.021.724.01 1.08-.03l.47.947a1 1 0 0 0 1.386.427l3.14-1.766a1 1 0 0 0 .374-1.374l-.652-1.122c.11-.169.212-.341.307-.515l.004-.007c.093-.175.176-.351.25-.528l1.053-.034a1 1 0 0 0 .967-1v-3.354a1 1 0 0 0-.953-1l-1.215-.056a6.561 6.561 0 0 0-.638-1.054l.517-1a1 1 0 0 0-.425-1.346l-3.062-1.602Zm-.403 2.894.354-.662 1.302.681-.364.705a1 1 0 0 0 .158 1.143c.42.448.737.976.948 1.554a1 1 0 0 0 .892.655l.889.042v1.433l-.762.025a1 1 0 0 0-.925.71 4.65 4.65 0 0 1-.346.85 4.602 4.602 0 0 1-.508.76 1 1 0 0 0-.099 1.144l.472.812-1.338.753-.335-.675a1 1 0 0 0-1.136-.526 4.313 4.313 0 0 1-1.787.061 1 1 0 0 0-1.057.513l-.354.662-1.315-.688.369-.682a1 1 0 0 0-.15-1.159 4.56 4.56 0 0 1-.948-1.554 1 1 0 0 0-.972-.655l-.734.024-.045-1.5.732-.024a1 1 0 0 0 .925-.71 4.48 4.48 0 0 1 .854-1.61 1 1 0 0 0 .086-1.165l-.389-.633 1.26-.786.387.63a1 1 0 0 0 1.092.446 4.313 4.313 0 0 1 1.788-.061 1 1 0 0 0 1.056-.513ZM10 23a1 1 0 0 1 1-1h10a1 1 0 1 1 0 2H11a1 1 0 0 1-1-1Zm0 3a1 1 0 0 1 1-1h10a1 1 0 1 1 0 2H11a1 1 0 0 1-1-1Zm6-12a1 1 0 1 0 0-2 1 1 0 0 0 0 2Zm0 2a3 3 0 1 0 0-6 3 3 0 0 0 0 6Z" clip-rule="evenodd"/>
</svg>
