<svg xmlns="http://www.w3.org/2000/svg" width="32" height="32" fill="currentColor" viewBox="0 0 32 32">
  <path fill-rule="evenodd" d="M2 10a1 1 0 0 1 1-1h13a1 1 0 1 1 0 2H3a1 1 0 0 1-1-1Zm22 0a1 1 0 0 1 1-1h4a1 1 0 1 1 0 2h-4a1 1 0 0 1-1-1ZM2 23a1 1 0 0 1 1-1h2.337a1 1 0 1 1 0 2H3a1 1 0 0 1-1-1Zm12 0a1 1 0 0 1 1-1h14a1 1 0 1 1 0 2H15a1 1 0 0 1-1-1Z" clip-rule="evenodd"/>
  <path fill-rule="evenodd" d="M20.5 6a3.5 3.5 0 1 0 0 7 3.5 3.5 0 0 0 0-7ZM15 9.5a5.5 5.5 0 1 1 11 0 5.5 5.5 0 0 1-11 0ZM10.5 19a3.5 3.5 0 1 0 0 7 3.5 3.5 0 0 0 0-7ZM5 22.5a5.5 5.5 0 1 1 11 0 5.5 5.5 0 0 1-11 0Z" clip-rule="evenodd"/>
</svg>
