<svg xmlns="http://www.w3.org/2000/svg" width="32" height="32" fill="currentColor" viewBox="0 0 32 32">
  <path fill-rule="evenodd" d="m21.333 2.272.003.002 3.36 2.035.002.001c.9.542 1.18 1.712.685 2.612v.001l-1.142 2.08c.694.9 1.26 1.918 1.666 3.02h2.202c1.096 0 1.891.922 1.891 1.936v4.082c0 1.03-.81 1.935-1.89 1.935h-2.203a11.211 11.211 0 0 1-1.666 3.02l1.14 2.08a1.96 1.96 0 0 1-.676 2.61l-.006.003-3.369 2.04-.003.003c-.928.556-2.09.205-2.6-.72l-1.114-2.025a10.466 10.466 0 0 1-3.226 0l-1.112 2.02c-.5.927-1.674 1.293-2.608.721l-.003-.002-3.36-2.035-.001-.001c-.901-.542-1.18-1.712-.686-2.612l1.142-2.082c-.694-.9-1.26-1.917-1.666-3.02H3.891c-1.096 0-1.891-.92-1.891-1.935v-4.082c0-1.03.81-1.935 1.891-1.935h2.202a11.212 11.212 0 0 1 1.666-3.02l-1.14-2.08a1.96 1.96 0 0 1 .676-2.61l.006-.003 3.372-2.043c.928-.556 2.09-.205 2.6.72l1.114 2.025a10.469 10.469 0 0 1 3.226 0l1.111-2.02c.501-.927 1.675-1.293 2.609-.721Zm-.912 1.786-1.093 1.986c-.36.657-1.107 1.106-1.937.96a8.483 8.483 0 0 0-2.787 0H14.6c-.809.133-1.56-.287-1.929-.96L11.58 4.059 8.388 5.99 9.52 8.058a1.97 1.97 0 0 1-.152 2.133l-.005.006-.004.006a9.219 9.219 0 0 0-1.413 2.575l-.001.003a1.878 1.878 0 0 1-1.76 1.243H4v3.952h2.187c.78 0 1.494.488 1.762 1.251A9.388 9.388 0 0 0 9.362 21.8c.486.624.523 1.479.16 2.141L8.388 26.01l3.191 1.933 1.093-1.986c.36-.657 1.107-1.106 1.937-.96a8.48 8.48 0 0 0 2.787 0h.003c.819-.135 1.56.302 1.925.952l.004.007 1.093 1.987 3.191-1.933-1.133-2.067a1.97 1.97 0 0 1 .152-2.134l.005-.005.004-.006a9.222 9.222 0 0 0 1.413-2.575l.001-.003a1.878 1.878 0 0 1 1.76-1.243H28v-3.952h-2.187c-.78 0-1.494-.488-1.761-1.251a9.388 9.388 0 0 0-1.414-2.573 1.968 1.968 0 0 1-.16-2.142l1.134-2.067-3.191-1.933Zm-3.735 7.998a4.009 4.009 0 0 0-4.63 4.63c.269 1.643 1.61 2.986 3.257 3.258m1.373-7.888c1.648.272 2.99 1.614 3.258 3.258a4.01 4.01 0 0 1-4.63 4.63m-5.232-2.936a6.009 6.009 0 0 1 6.928-6.926c2.493.412 4.5 2.416 4.907 4.91a6.009 6.009 0 0 1-6.927 6.926c-2.493-.412-4.5-2.416-4.908-4.91Z" clip-rule="evenodd"/>
</svg>
