<svg xmlns="http://www.w3.org/2000/svg" width="32" height="32" fill="currentColor" viewBox="0 0 32 32">
  <path fill-rule="evenodd" d="M18 21a3 3 0 0 1 3-3h6a3 3 0 0 1 3 3v6a3 3 0 0 1-3 3h-6a3 3 0 0 1-3-3v-6Zm3-1a1 1 0 0 0-1 1v6a1 1 0 0 0 1 1h6a1 1 0 0 0 1-1v-6a1 1 0 0 0-1-1h-6ZM6 16a1 1 0 0 1 1 1v8.598c0 .214.174.402.417.402H14a1 1 0 1 1 0 2H7.417A2.407 2.407 0 0 1 5 25.598V17a1 1 0 0 1 1-1Z" clip-rule="evenodd"/>
  <path fill-rule="evenodd" d="M11.293 24.293a1 1 0 0 1 1.414 0l2 2a1 1 0 0 1 0 1.414l-2 2a1 1 0 0 1-1.414-1.414L12.586 27l-1.293-1.293a1 1 0 0 1 0-1.414ZM17 5a1 1 0 0 1 1-1h6.45C25.767 4 27 4.984 27 6.402V15a1 1 0 1 1-2 0V6.402C25 6.27 24.853 6 24.45 6H18a1 1 0 0 1-1-1Z" clip-rule="evenodd"/>
  <path fill-rule="evenodd" d="M20.707 2.293a1 1 0 0 1 0 1.414L19.414 5l1.293 1.293a1 1 0 0 1-1.414 1.414l-2-2a1 1 0 0 1 0-1.414l2-2a1 1 0 0 1 1.414 0ZM8 4a4 4 0 1 0 0 8 4 4 0 0 0 0-8ZM2 8a6 6 0 1 1 12 0A6 6 0 0 1 2 8Z" clip-rule="evenodd"/>
</svg>
