<svg xmlns="http://www.w3.org/2000/svg" width="32" height="32" fill="currentColor" viewBox="0 0 32 32">
  <path fill-rule="evenodd" d="M7 13a3 3 0 1 0 0 6 3 3 0 0 0 0-6Zm-5 3a5 5 0 1 1 10 0 5 5 0 0 1-10 0ZM25 4a3 3 0 1 0 0 6 3 3 0 0 0 0-6Zm-5 3a5 5 0 1 1 10 0 5 5 0 0 1-10 0Zm5 15a3 3 0 1 0 0 6 3 3 0 0 0 0-6Zm-5 3a5 5 0 1 1 10 0 5 5 0 0 1-10 0Z" clip-rule="evenodd"/>
  <path fill-rule="evenodd" d="M22.858 9.486a1 1 0 0 1-.343 1.371L13.944 16l8.57 5.142a1 1 0 0 1-1.029 1.716l-10-6a1 1 0 0 1 0-1.716l10-6a1 1 0 0 1 1.373.344Z" clip-rule="evenodd"/>
</svg>
