<svg xmlns="http://www.w3.org/2000/svg" width="32" height="32" fill="none" viewBox="0 0 32 32">
  <path fill="#3D3C3C" fill-rule="evenodd" d="M3 8a3 3 0 0 1 3-3h20a3 3 0 0 1 3 3v16a3 3 0 0 1-3 3H6a3 3 0 0 1-3-3V8Zm3-1a1 1 0 0 0-1 1v16a1 1 0 0 0 1 1h20a1 1 0 0 0 1-1V8a1 1 0 0 0-1-1H6Z" clip-rule="evenodd"/>
  <path fill="#3D3C3C" fill-rule="evenodd" d="M11 26V6h2v20h-2Zm11.707-10.707a1 1 0 0 1 0 1.414l-4 4a1 1 0 0 1-1.414-1.414L20.586 16l-3.293-3.293a1 1 0 0 1 1.414-1.414l4 4Z" clip-rule="evenodd"/>
  <path fill="#3D3C3C" fill-rule="evenodd" d="M23 16a1 1 0 0 1-1 1H12a1 1 0 1 1 0-2h10a1 1 0 0 1 1 1Z" clip-rule="evenodd"/>
</svg>
