<svg width="32" height="32" viewBox="0 0 32 32" fill="none" xmlns="http://www.w3.org/2000/svg">
<rect width="32" height="32" fill="white"/>
<path fill-rule="evenodd" clip-rule="evenodd" d="M24 4H8V8H24V4ZM8 2C6.89543 2 6 2.89543 6 4V8C6 9.10457 6.89543 10 8 10H24C25.1046 10 26 9.10457 26 8V4C26 2.89543 25.1046 2 24 2H8Z" fill="black"/>
<path fill-rule="evenodd" clip-rule="evenodd" d="M24 14H8V18H24V14ZM8 12C6.89543 12 6 12.8954 6 14V18C6 19.1046 6.89543 20 8 20H24C25.1046 20 26 19.1046 26 18V14C26 12.8954 25.1046 12 24 12H8Z" fill="black"/>
<path fill-rule="evenodd" clip-rule="evenodd" d="M24 24H8V28H24V24ZM8 22C6.89543 22 6 22.8954 6 24V28C6 29.1046 6.89543 30 8 30H24C25.1046 30 26 29.1046 26 28V24C26 22.8954 25.1046 22 24 22H8Z" fill="black"/>
<path fill-rule="evenodd" clip-rule="evenodd" d="M10 6C10 5.44772 10.4477 5 11 5H12C12.5523 5 13 5.44772 13 6C13 6.55228 12.5523 7 12 7H11C10.4477 7 10 6.55228 10 6Z" fill="black"/>
<path fill-rule="evenodd" clip-rule="evenodd" d="M15 6C15 5.44772 15.4477 5 16 5H21C21.5523 5 22 5.44772 22 6C22 6.55228 21.5523 7 21 7H16C15.4477 7 15 6.55228 15 6Z" fill="black"/>
<path fill-rule="evenodd" clip-rule="evenodd" d="M10 16C10 15.4477 10.4477 15 11 15H12C12.5523 15 13 15.4477 13 16C13 16.5523 12.5523 17 12 17H11C10.4477 17 10 16.5523 10 16Z" fill="black"/>
<path fill-rule="evenodd" clip-rule="evenodd" d="M15 16C15 15.4477 15.4477 15 16 15H21C21.5523 15 22 15.4477 22 16C22 16.5523 21.5523 17 21 17H16C15.4477 17 15 16.5523 15 16Z" fill="black"/>
<path fill-rule="evenodd" clip-rule="evenodd" d="M10 26C10 25.4477 10.4477 25 11 25H12C12.5523 25 13 25.4477 13 26C13 26.5523 12.5523 27 12 27H11C10.4477 27 10 26.5523 10 26Z" fill="black"/>
<path fill-rule="evenodd" clip-rule="evenodd" d="M15 26C15 25.4477 15.4477 25 16 25H21C21.5523 25 22 25.4477 22 26C22 26.5523 21.5523 27 21 27H16C15.4477 27 15 26.5523 15 26Z" fill="black"/>
</svg>
