<svg width="32" height="32" viewBox="0 0 32 32" fill="none" xmlns="http://www.w3.org/2000/svg">
<path fill-rule="evenodd" clip-rule="evenodd" d="M4 12C4 11.4477 4.44772 11 5 11L9.00074 11C9.55302 11 10.0007 11.4477 10.0007 12C10.0007 12.5523 9.55302 13 9.00074 13L5 13C4.44772 13 4 12.5523 4 12Z" fill="black"/>
<path fill-rule="evenodd" clip-rule="evenodd" d="M4 18C4 17.4477 4.44772 17 5 17H9C9.55228 17 10 17.4477 10 18C10 18.5523 9.55228 19 9 19H5C4.44772 19 4 18.5523 4 18Z" fill="black"/>
<path fill-rule="evenodd" clip-rule="evenodd" d="M7 14C7.55228 14 8 14.4477 8 15V18C8 18.5523 7.55228 19 7 19C6.44772 19 6 18.5523 6 18V15C6 14.4477 6.44772 14 7 14Z" fill="black"/>
<path fill-rule="evenodd" clip-rule="evenodd" d="M4 24C4 23.4477 4.44772 23 5 23L9.00074 23C9.55302 23 10.0007 23.4477 10.0007 24C10.0007 24.5523 9.55302 25 9.00074 25L5 25C4.44772 25 4 24.5523 4 24Z" fill="black"/>
<path fill-rule="evenodd" clip-rule="evenodd" d="M7 20C7.55228 20 8 20.4477 8 21V23.5385C8 24.0907 7.55228 24.5385 7 24.5385C6.44772 24.5385 6 24.0907 6 23.5385V21C6 20.4477 6.44772 20 7 20Z" fill="black"/>
<path fill-rule="evenodd" clip-rule="evenodd" d="M9.09328 7C8.54495 7 8 7.49609 8 8.208V11.1606C8 11.7129 7.55228 12.1606 7 12.1606C6.44772 12.1606 6 11.7129 6 11.1606V8.208C6 6.49341 7.34118 5 9.09328 5H22.9067C24.6588 5 26 6.49341 26 8.208V26.792C26 28.5066 24.6588 30 22.9067 30H9.09328C7.47326 30 6 28.8446 6 27C6 26.4477 6.44772 26 7 26C7.55228 26 8 26.4477 8 27C8 27.5819 8.41287 28 9.09328 28H22.9067C23.455 28 24 27.5039 24 26.792V8.208C24 7.49609 23.455 7 22.9067 7H9.09328Z" fill="black"/>
<path fill-rule="evenodd" clip-rule="evenodd" d="M8 3C8 2.44772 8.42736 2 8.95455 2H25.5331C27.4116 2 29 3.56589 29 5.54867V27C29 27.5523 28.5726 28 28.0455 28C27.5183 28 27.0909 27.5523 27.0909 27V5.54867C27.0909 4.73057 26.4156 4 25.5331 4H8.95455C8.42736 4 8 3.55228 8 3Z" fill="black"/>
<path fill-rule="evenodd" clip-rule="evenodd" d="M12 12C12 11.4477 12.4477 11 13 11L20 11C20.5523 11 21 11.4477 21 12C21 12.5523 20.5523 13 20 13L13 13C12.4477 13 12 12.5523 12 12Z" fill="black"/>
<path fill-rule="evenodd" clip-rule="evenodd" d="M12 16C12 15.4477 12.4477 15 13 15L20 15C20.5523 15 21 15.4477 21 16C21 16.5523 20.5523 17 20 17L13 17C12.4477 17 12 16.5523 12 16Z" fill="black"/>
<path fill-rule="evenodd" clip-rule="evenodd" d="M12 20C12 19.4477 12.4477 19 13 19L20 19C20.5523 19 21 19.4477 21 20C21 20.5523 20.5523 21 20 21L13 21C12.4477 21 12 20.5523 12 20Z" fill="black"/>
</svg>
