<svg width="32" height="32" viewBox="0 0 32 32" fill="none" xmlns="http://www.w3.org/2000/svg">
<rect width="32" height="32" fill="white"/>
<path fill-rule="evenodd" clip-rule="evenodd" d="M16.8765 2.22553C21.1683 4.51922 25.1079 5.78546 26.6087 6.21907L26.6203 6.22243L26.6203 6.2225C27.3809 6.45228 28 7.13325 28 8.01526V14C28 14.5523 27.5523 15 27 15C26.4477 15 26 14.5523 26 14V8.12497C24.3882 7.65627 20.3777 6.35649 15.9956 4.02239C11.6246 6.36915 7.60087 7.6598 6 8.13397V19.1459C6 20.6425 7.1359 22.2361 8.95382 23.765C10.72 25.2503 12.8903 26.4738 14.4485 27.2559C14.9422 27.5036 15.1415 28.1046 14.8938 28.5982C14.646 29.0918 14.0451 29.2911 13.5515 29.0434C11.9369 28.2331 9.60718 26.9277 7.66655 25.2956C5.77768 23.7071 4 21.595 4 19.1459V8.02455C4 7.16057 4.60151 6.45241 5.39185 6.22819C6.90474 5.78172 10.8476 4.52471 15.1124 2.22652C15.6611 1.92482 16.3276 1.92449 16.8765 2.22553Z" fill="black"/>
<path d="M18.02 30C17.49 30 16.98 29.79 16.6 29.41C16.09 28.9 15.89 28.19 16.07 27.49H16.06L16.67 25.06C16.71 24.88 16.81 24.72 16.93 24.6L24.59 16.92C25.82 15.69 27.83 15.69 29.07 16.92C30.31 18.16 30.31 20.16 29.07 21.4L21.41 29.06C21.28 29.19 21.12 29.28 20.95 29.32L18.52 29.93C18.35 29.97 18.19 29.99 18.02 29.99V30ZM18 27.97C18 27.97 18 27.97 18 27.98L20.2 27.45L27.66 19.99C28.11 19.54 28.11 18.8 27.66 18.34C27.2 17.88 26.46 17.88 26.01 18.34L18.54 25.81L18 27.97Z" fill="black"/>
</svg>
