<svg width="32" height="32" viewBox="0 0 32 32" fill="none" xmlns="http://www.w3.org/2000/svg">
<path fill-rule="evenodd" clip-rule="evenodd" d="M10 23.0001C10 22.4478 10.4477 22.0001 11 22.0001L14 22.0001C14.5523 22.0001 15 22.4478 15 23.0001C15 23.5523 14.5523 24.0001 14 24.0001L11 24.0001C10.4477 24.0001 10 23.5523 10 23.0001Z" fill="black"/>
<path fill-rule="evenodd" clip-rule="evenodd" d="M10 16.0001C10 15.4478 10.4477 15.0001 11 15.0001H14C14.5523 15.0001 15 15.4478 15 16.0001C15 16.5523 14.5523 17.0001 14 17.0001H11C10.4477 17.0001 10 16.5523 10 16.0001Z" fill="black"/>
<path fill-rule="evenodd" clip-rule="evenodd" d="M9.71305 7C8.82271 7 8 7.78311 8 8.87384V26.1262C8 27.219 8.81608 28 9.71305 28H23.2869C24.1773 28 25 27.2169 25 26.1262V8.87384C25 7.78098 24.1839 7 23.2869 7H21C20.4477 7 20 6.55228 20 6C20 5.44772 20.4477 5 21 5H23.2869C25.3968 5 27 6.78792 27 8.87384V26.1262C27 28.2142 25.3861 30 23.2869 30H9.71305C7.6032 30 6 28.2121 6 26.1262V8.87384C6 6.78579 7.61386 5 9.71305 5H11.5C12.0523 5 12.5 5.44772 12.5 6C12.5 6.55228 12.0523 7 11.5 7H9.71305Z" fill="black"/>
<path fill-rule="evenodd" clip-rule="evenodd" d="M13 4V8H20V4H13ZM11 3.96463C11 2.88967 11.865 2 12.9544 2H20.0456C21.135 2 22 2.88967 22 3.96463V8.03537C22 9.11033 21.135 10 20.0456 10H12.9544C11.865 10 11 9.11033 11 8.03537V3.96463Z" fill="black"/>
<path fill-rule="evenodd" clip-rule="evenodd" d="M22.5739 12.1812C23.0262 12.4981 23.1358 13.1217 22.8189 13.574L20.0155 17.574C19.8281 17.8414 19.5219 18.0005 19.1953 18.0001C18.8687 17.9997 18.5629 17.8398 18.3762 17.5718L17.1795 15.8548C16.8638 15.4017 16.9751 14.7784 17.4282 14.4626C17.8813 14.1468 18.5046 14.2581 18.8204 14.7113L19.1989 15.2544L21.1811 12.4262C21.498 11.9739 22.1216 11.8642 22.5739 12.1812Z" fill="black"/>
<path fill-rule="evenodd" clip-rule="evenodd" d="M22.5739 19.1812C23.0262 19.4981 23.1358 20.1217 22.8189 20.574L20.0155 24.574C19.8281 24.8414 19.5219 25.0005 19.1953 25.0001C18.8687 24.9997 18.5629 24.8398 18.3762 24.5718L17.1795 22.8548C16.8638 22.4017 16.9751 21.7784 17.4282 21.4626C17.8813 21.1468 18.5046 21.2581 18.8204 21.7113L19.1989 22.2544L21.1811 19.4262C21.498 18.9739 22.1216 18.8642 22.5739 19.1812Z" fill="black"/>
</svg>
