<svg width="32" height="32" viewBox="0 0 32 32" fill="none" xmlns="http://www.w3.org/2000/svg">
<path fill-rule="evenodd" clip-rule="evenodd" d="M27.1104 3.0061C27.6594 3.06709 28.0549 3.56151 27.9939 4.11042L27.4939 8.61042C27.4329 9.15932 26.9385 9.55485 26.3896 9.49387L21.8896 8.99387C21.3407 8.93288 20.9451 8.43846 21.0061 7.88955C21.0671 7.34065 21.5615 6.94511 22.1104 7.0061L25.6165 7.39567L26.0061 3.88955C26.0671 3.34064 26.5615 2.94511 27.1104 3.0061Z" fill="black"/>
<path fill-rule="evenodd" clip-rule="evenodd" d="M6.09966 6.09817C11.5745 0.634331 20.4358 0.63332 25.9015 6.09888C26.292 6.4894 26.292 7.12256 25.9015 7.51309C25.511 7.90362 24.8778 7.90362 24.4873 7.5131C19.8035 2.82944 12.2076 2.82834 7.51269 7.51356C2.82942 12.1973 2.82848 19.7927 7.5136 24.4874C12.1975 29.1706 19.7933 29.1715 24.488 24.4862C27.6963 21.2775 28.7057 16.7068 27.5197 12.6354C27.3653 12.1052 27.6699 11.5501 28.2002 11.3957C28.7304 11.2412 29.2855 11.5458 29.4399 12.0761C30.8216 16.8194 29.6477 22.155 25.9015 25.9011L25.9008 25.9018C20.426 31.3657 11.5646 31.3667 6.09895 25.9011L6.09825 25.9004C0.634305 20.4257 0.633295 11.5644 6.09895 6.09888L6.09966 6.09817Z" fill="black"/>
<path fill-rule="evenodd" clip-rule="evenodd" d="M16 11C14.898 11 14 11.898 14 13C14 14.102 14.898 15 16 15C18.2066 15 20 16.7934 20 19C20 21.2066 18.2066 23 16 23C13.7953 23 12 21.217 12 19C12 18.4477 12.4477 18 13 18C13.5523 18 14 18.4477 14 19C14 20.102 14.898 21 16 21C17.102 21 18 20.102 18 19C18 17.898 17.102 17 16 17C13.7934 17 12 15.2066 12 13C12 10.7934 13.7934 9 16 9C18.2047 9 20 10.783 20 13C20 13.5523 19.5523 14 19 14C18.4477 14 18 13.5523 18 13C18 11.898 17.102 11 16 11Z" fill="black"/>
<path fill-rule="evenodd" clip-rule="evenodd" d="M16 6C16.5523 6 17 6.44772 17 7V9C17 9.55228 16.5523 10 16 10C15.4477 10 15 9.55228 15 9V7C15 6.44772 15.4477 6 16 6Z" fill="black"/>
<path fill-rule="evenodd" clip-rule="evenodd" d="M16 22C16.5523 22 17 22.4477 17 23V25C17 25.5523 16.5523 26 16 26C15.4477 26 15 25.5523 15 25V23C15 22.4477 15.4477 22 16 22Z" fill="black"/>
</svg>
