<svg width="32" height="32" viewBox="0 0 32 32" fill="none" xmlns="http://www.w3.org/2000/svg">
<path fill-rule="evenodd" clip-rule="evenodd" d="M16 8C14.3431 8 13 9.34315 13 11C13 12.6569 14.3431 14 16 14C17.6569 14 19 12.6569 19 11C19 9.34315 17.6569 8 16 8ZM11 11C11 8.23858 13.2386 6 16 6C18.7614 6 21 8.23858 21 11C21 13.7614 18.7614 16 16 16C13.2386 16 11 13.7614 11 11Z" fill="black"/>
<path fill-rule="evenodd" clip-rule="evenodd" d="M9.00004 21.7586L9.03014 25.9929C9.03407 26.5452 8.58955 26.996 8.03728 27C7.485 27.0039 7.03412 26.5594 7.03019 26.0071L7.00008 21.7723C6.98617 19.6555 8.74477 18 10.8504 18H18.5C19.0523 18 19.5 18.4477 19.5 19C19.5 19.5523 19.0523 20 18.5 20H10.8504C9.78473 20 8.99418 20.8204 9.00004 21.7586Z" fill="black"/>
<path fill-rule="evenodd" clip-rule="evenodd" d="M16 4C9.37511 4 4 9.38143 4 16.0049C4 22.6273 9.37414 28 16 28C17.0294 28 18.0185 27.8737 18.9596 27.6318C19.4945 27.4943 20.0396 27.8165 20.1771 28.3513C20.3146 28.8862 19.9924 29.4313 19.4575 29.5688C18.3506 29.8533 17.1941 30 16 30C8.27027 30 2 23.7326 2 16.0049C2 8.27811 8.2693 2 16 2C23.7297 2 30 8.26738 30 15.9951C30 17.2042 29.8421 18.3685 29.56 19.4862C29.4248 20.0217 28.8811 20.3462 28.3456 20.2111C27.8102 20.0759 27.4856 19.5322 27.6208 18.9967C27.8653 18.0282 28 17.0283 28 15.9951C28 9.37266 22.6259 4 16 4Z" fill="black"/>
<path fill-rule="evenodd" clip-rule="evenodd" d="M23.5 18C20.4624 18 18 20.4624 18 23.5C18 26.5376 20.4624 29 23.5 29C26.5376 29 29 26.5376 29 23.5C29 20.4624 26.5376 18 23.5 18ZM16 23.5C16 19.3579 19.3579 16 23.5 16C27.6421 16 31 19.3579 31 23.5C31 27.6421 27.6421 31 23.5 31C19.3579 31 16 27.6421 16 23.5Z" fill="black"/>
<path fill-rule="evenodd" clip-rule="evenodd" d="M26.6586 21.2475C27.0742 21.6113 27.1162 22.243 26.7525 22.6586L23.2516 26.6586C23.0617 26.8756 22.7874 27 22.4991 27C22.2107 27 21.9365 26.8756 21.7466 26.6586L20.2475 24.9459C19.8838 24.5303 19.9258 23.8985 20.3414 23.5348C20.757 23.1711 21.3888 23.2131 21.7525 23.6287L22.4991 24.4817L25.2475 21.3414C25.6113 20.9258 26.243 20.8838 26.6586 21.2475Z" fill="black"/>
</svg>
