<svg width="32" height="32" viewBox="0 0 32 32" fill="none" xmlns="http://www.w3.org/2000/svg">
<path fill-rule="evenodd" clip-rule="evenodd" d="M25 2C25.5523 2 26 2.44772 26 3V7C26 7.55228 25.5523 8 25 8H21C20.4477 8 20 7.55228 20 7C20 6.44772 20.4477 6 21 6H24V3C24 2.44772 24.4477 2 25 2Z" fill="black"/>
<path fill-rule="evenodd" clip-rule="evenodd" d="M6 25C6 24.4477 6.44772 24 7 24H11C11.5523 24 12 24.4477 12 25C12 25.5523 11.5523 26 11 26H8V29C8 29.5523 7.55228 30 7 30C6.44772 30 6 29.5523 6 29V25Z" fill="black"/>
<path fill-rule="evenodd" clip-rule="evenodd" d="M16 4C9.36979 4 4 9.36978 4 16C4 18.1908 4.58767 20.2354 5.6077 21.9994C5.88415 22.4775 5.72068 23.0892 5.24257 23.3657C4.76446 23.6422 4.15276 23.4787 3.87631 23.0006C2.68633 20.9426 2 18.5542 2 16C2 8.26522 8.26522 2 16 2C19.8162 2 23.1419 3.22773 25.7071 5.79289C26.0976 6.18342 26.0976 6.81658 25.7071 7.20711C25.3166 7.59763 24.6834 7.59763 24.2929 7.20711C22.1521 5.06627 19.3598 4 16 4Z" fill="black"/>
<path fill-rule="evenodd" clip-rule="evenodd" d="M26.7574 8.63429C27.2355 8.35783 27.8472 8.5213 28.1237 8.99941C29.3137 11.0574 30 13.4458 30 16C30 23.7348 23.7348 30 16 30C12.1838 30 8.85805 28.7723 6.29289 26.2071C5.90237 25.8166 5.90237 25.1834 6.29289 24.7929C6.68342 24.4024 7.31658 24.4024 7.70711 24.7929C9.84795 26.9337 12.6402 28 16 28C22.6302 28 28 22.6302 28 16C28 13.8091 27.4123 11.7646 26.3923 10.0006C26.1158 9.52245 26.2793 8.91075 26.7574 8.63429Z" fill="black"/>
<path fill-rule="evenodd" clip-rule="evenodd" d="M19 13H13L13 19H19V13ZM13 11C11.8954 11 11 11.8954 11 13V19C11 20.1046 11.8954 21 13 21H19C20.1046 21 21 20.1046 21 19V13C21 11.8954 20.1046 11 19 11H13Z" fill="black"/>
</svg>
