<svg width="32" height="32" viewBox="0 0 32 32" fill="none" xmlns="http://www.w3.org/2000/svg">
<path fill-rule="evenodd" clip-rule="evenodd" d="M12.8248 18C12.4039 18 12 18.3697 12 18.8853V28H20V18.8853C20 18.3697 19.5961 18 19.1752 18H12.8248ZM10 18.8853C10 17.3271 11.2384 16 12.8248 16H19.1752C20.7616 16 22 17.3271 22 18.8853V29C22 29.5523 21.5523 30 21 30H11C10.4477 30 10 29.5523 10 29V18.8853Z" fill="black"/>
<path fill-rule="evenodd" clip-rule="evenodd" d="M4 11C4.55228 11 5 11.4477 5 12V26.1476C5 27.2275 5.81051 28 6.68545 28H25.3146C26.1895 28 27 27.2275 27 26.1476V12C27 11.4477 27.4477 11 28 11C28.5523 11 29 11.4477 29 12V26.1476C29 28.2159 27.4068 30 25.3146 30H6.68545C4.59324 30 3 28.2159 3 26.1476V12C3 11.4477 3.44772 11 4 11Z" fill="black"/>
<path fill-rule="evenodd" clip-rule="evenodd" d="M4.87315 5.33654C4.87309 5.33685 4.87321 5.33624 4.87315 5.33654L4.00681 9.85567C4.07416 10.3954 4.63851 11 5.6 11C5.99219 11 6.34095 10.888 6.61416 10.7117C7.57737 10.0804 8.82265 10.0804 9.78586 10.7117C10.0591 10.888 10.4078 11 10.8 11C11.1922 11 11.541 10.888 11.8142 10.7117C12.7774 10.0804 14.0226 10.0804 14.9858 10.7117C15.259 10.888 15.6078 11 16 11C16.3922 11 16.741 10.888 17.0142 10.7117C17.9774 10.0804 19.2227 10.0804 20.1859 10.7117C20.4591 10.888 20.8078 11 21.2 11C21.5922 11 21.9409 10.888 22.2141 10.7117C23.1773 10.0804 24.4227 10.0804 25.3859 10.7117C25.6591 10.888 26.0078 11 26.4 11C27.38 11 27.9474 10.3719 27.9965 9.82462L27.1361 5.33654C27.1361 5.33645 27.1362 5.33664 27.1361 5.33654C26.9862 4.56384 26.3041 4 25.5086 4H6.50071C5.70539 4 5.02333 4.56416 4.87315 5.33654ZM2.05259 9.42693L2.9097 4.9559C3.24273 3.23807 4.75206 2 6.50071 2H25.5086C27.2572 2 28.7666 3.23807 29.0996 4.9559L29.1 4.95795L29.9821 9.55952C29.994 9.62157 30 9.68461 30 9.74779C30 11.675 28.2524 13 26.4 13C25.6233 13 24.8957 12.777 24.2964 12.3889L24.2906 12.3852C23.9926 12.1893 23.6073 12.1892 23.3093 12.3852L23.3036 12.3889C22.7043 12.7771 21.9767 13 21.2 13C20.4233 13 19.6957 12.777 19.0964 12.3889L19.0906 12.3852C18.7926 12.1893 18.4073 12.1892 18.1093 12.3852L18.1036 12.3889C17.5043 12.7771 16.7767 13 16 13C15.2233 13 14.4957 12.777 13.8964 12.3889L13.8906 12.3852C13.5926 12.1893 13.2073 12.1892 12.9093 12.3852L12.9036 12.3889C12.3043 12.7771 11.5767 13 10.8 13C10.0233 13 9.29574 12.777 8.69643 12.3889L8.69065 12.3852C8.39265 12.1893 8.00734 12.1892 7.70934 12.3852L7.70358 12.3889C7.10427 12.7771 6.37672 13 5.6 13C3.74763 13 2 11.675 2 9.74779C2 9.63556 2.01849 9.52765 2.05259 9.42693Z" fill="black"/>
</svg>
