<svg width="32" height="32" viewBox="0 0 32 32" fill="none" xmlns="http://www.w3.org/2000/svg">
<path fill-rule="evenodd" clip-rule="evenodd" d="M12.5 5.5C12.5 3.56636 14.0664 2 16 2C17.9336 2 19.5 3.56636 19.5 5.5C19.5 7.43364 17.9336 9 16 9C14.0664 9 12.5 7.43364 12.5 5.5ZM16 4C15.1709 4 14.5 4.67093 14.5 5.5C14.5 6.32907 15.1709 7 16 7C16.8291 7 17.5 6.32907 17.5 5.5C17.5 4.67093 16.8291 4 16 4Z" fill="black"/>
<path fill-rule="evenodd" clip-rule="evenodd" d="M4.5 19.5C4.5 17.5664 6.06636 16 8 16C9.93364 16 11.5 17.5664 11.5 19.5C11.5 21.4336 9.93364 23 8 23C6.06636 23 4.5 21.4336 4.5 19.5ZM8 18C7.17093 18 6.5 18.6709 6.5 19.5C6.5 20.3291 7.17093 21 8 21C8.82907 21 9.5 20.3291 9.5 19.5C9.5 18.6709 8.82907 18 8 18Z" fill="black"/>
<path fill-rule="evenodd" clip-rule="evenodd" d="M20.5 19.5C20.5 17.5664 22.0664 16 24 16C25.9336 16 27.5 17.5664 27.5 19.5C27.5 21.4336 25.9336 23 24 23C22.0664 23 20.5 21.4336 20.5 19.5ZM24 18C23.1709 18 22.5 18.6709 22.5 19.5C22.5 20.3291 23.1709 21 24 21C24.8291 21 25.5 20.3291 25.5 19.5C25.5 18.6709 24.8291 18 24 18Z" fill="black"/>
<path fill-rule="evenodd" clip-rule="evenodd" d="M12.2889 12.2987C12.052 12.4779 11.999 12.6442 12 12.746L12.0001 12.7557L12.0001 14H19.9999V12.6554C20.0014 12.5015 19.9403 12.3653 19.7852 12.242C19.6166 12.1079 19.3398 12 18.9941 12H13.1996C12.8671 12 12.5272 12.1184 12.2889 12.2987ZM11.0823 10.7036C11.6725 10.2572 12.4372 10 13.1996 10H18.9941C20.397 10 22.0137 10.9107 21.9999 12.6695V15C21.9999 15.5523 21.5522 16 20.9999 16H11.0001C10.4478 16 10.0001 15.5523 10.0001 15V12.7598C9.99342 11.8597 10.492 11.1502 11.0823 10.7036Z" fill="black"/>
<path fill-rule="evenodd" clip-rule="evenodd" d="M4.2889 26.3486C4.05198 26.5278 3.99904 26.6942 4.00002 26.7959L4.00011 26.8056L4.00007 28.0499H11.9999V26.7054C12.0014 26.5514 11.9403 26.4152 11.7852 26.2919C11.6166 26.1578 11.3398 26.0499 10.9941 26.0499H5.19965C4.86713 26.0499 4.52722 26.1683 4.2889 26.3486ZM3.08233 24.7535C3.67249 24.3071 4.43722 24.0499 5.19965 24.0499H10.9941C12.397 24.0499 14.0137 24.9607 13.9999 26.7194V29.0499C13.9999 29.6022 13.5522 30.0499 12.9999 30.0499H3.00007C2.44778 30.0499 2.00007 29.6022 2.00007 29.0499V26.8098C1.99342 25.9096 2.49198 25.2001 3.08233 24.7535Z" fill="black"/>
<path fill-rule="evenodd" clip-rule="evenodd" d="M20.2889 26.3486C20.052 26.5278 19.999 26.6942 20 26.7959L20.0001 26.8056L20.0001 28.0499H27.9999V26.7054C28.0014 26.5514 27.9403 26.4152 27.7852 26.2919C27.6166 26.1578 27.3398 26.0499 26.9941 26.0499H21.1996C20.8671 26.0499 20.5272 26.1683 20.2889 26.3486ZM19.0823 24.7535C19.6725 24.3071 20.4372 24.0499 21.1996 24.0499H26.9941C28.397 24.0499 30.0137 24.9607 29.9999 26.7194V29.0499C29.9999 29.6022 29.5522 30.0499 28.9999 30.0499H19.0001C18.4478 30.0499 18.0001 29.6022 18.0001 29.0499V26.8098C17.9934 25.9096 18.492 25.2001 19.0823 24.7535Z" fill="black"/>
<path fill-rule="evenodd" clip-rule="evenodd" d="M16 17C16.5523 17 17 17.4477 17 18V20C17 20.5523 16.5523 21 16 21C15.4477 21 15 20.5523 15 20V18C15 17.4477 15.4477 17 16 17Z" fill="black"/>
<path fill-rule="evenodd" clip-rule="evenodd" d="M15.4453 19.1679C15.7812 18.944 16.2188 18.944 16.5547 19.1679L19.5547 21.168C20.0142 21.4743 20.1384 22.0952 19.832 22.5547C19.5257 23.0142 18.9048 23.1384 18.4453 22.8321L16 21.2019L13.5547 22.8321C13.0952 23.1384 12.4743 23.0142 12.1679 22.5547C11.8616 22.0952 11.9858 21.4743 12.4453 21.1679L15.4453 19.1679Z" fill="black"/>
</svg>
