<svg width="32" height="32" viewBox="0 0 32 32" fill="none" xmlns="http://www.w3.org/2000/svg">
<path fill-rule="evenodd" clip-rule="evenodd" d="M16.8765 2.22553C21.1683 4.51922 25.1079 5.78546 26.6087 6.21907L26.6203 6.22243L26.6203 6.2225C27.3809 6.45228 28 7.13325 28 8.01526V19.1459C28 20.6658 27.3117 22.0461 26.3809 23.2241C25.4467 24.4063 24.207 25.4641 22.9502 26.3625C20.4351 28.1603 17.6976 29.4275 16.7462 29.8458L16.7281 29.8536C16.2591 30.0488 15.7409 30.0488 15.2719 29.8536L15.2555 29.8465C14.2977 29.4276 11.5601 28.1603 9.04614 26.3624C7.78985 25.4639 6.55094 24.4061 5.61756 23.2238C4.68744 22.0457 4 20.6655 4 19.1459V8.02455C4 7.16057 4.60151 6.45241 5.39185 6.22819C6.90474 5.78172 10.8476 4.52471 15.1124 2.22652C15.6611 1.92482 16.3276 1.92449 16.8765 2.22553ZM15.9956 4.02239C11.6246 6.36915 7.60087 7.6598 6 8.13397V19.1459C6 20.0491 6.41117 21.0014 7.18732 21.9845C7.96019 22.9635 9.03521 23.8957 10.2096 24.7356C12.5094 26.3803 15.0428 27.5675 15.9999 27.9891C16.9553 27.5662 19.4873 26.3794 21.7871 24.7354C22.9621 23.8955 24.038 22.9632 24.8116 21.9842C25.5885 21.001 26 20.0488 26 19.1459V8.12497C24.3882 7.65627 20.3777 6.35649 15.9956 4.02239Z" fill="black"/>
<path fill-rule="evenodd" clip-rule="evenodd" d="M21.707 11.2928C22.0976 11.6833 22.0977 12.3164 21.7072 12.707L14.709 19.707C14.5215 19.8946 14.2671 20 14.0018 20C13.7365 20 13.4822 19.8946 13.2946 19.707L10.2928 16.7044C9.90233 16.3139 9.90241 15.6807 10.293 15.2902C10.6836 14.8997 11.3167 14.8998 11.7072 15.2904L14.0018 17.5856L20.2928 11.293C20.6833 10.9024 21.3164 10.9023 21.707 11.2928Z" fill="black"/>
</svg>
