<svg width="32" height="32" viewBox="0 0 32 32" fill="none" xmlns="http://www.w3.org/2000/svg">
<path fill-rule="evenodd" clip-rule="evenodd" d="M8.00056 11.3159C8.00058 11.3163 8.00061 11.3167 8.00063 11.3171L8.86499 24.2587C9.00724 26.4084 10.7796 28.0667 12.8968 28.0667H18.7259C20.843 28.0667 22.6154 26.409 22.7576 24.2594L23.6221 11.2977C23.622 11.2979 23.6221 11.2974 23.6221 11.2977C23.6321 11.1331 23.4995 11.0081 23.365 11.0081H8.26698C8.13237 11.0081 7.98967 11.1324 8.00056 11.3159ZM18.7556 30.0667C18.7519 30.0667 18.7482 30.0667 18.7445 30.0667H12.8968C9.71495 30.0667 7.08077 27.5808 6.86944 24.392L6.00459 11.443C5.92323 10.1525 6.933 9.00806 8.26698 9.00806H23.365C24.6805 9.00806 25.7004 10.1341 25.618 11.4251L25.6178 11.4279L24.7532 24.3914C24.7532 24.3916 24.7533 24.3912 24.7532 24.3914C24.5426 27.5703 21.9241 30.0512 18.7556 30.0667Z" fill="black"/>
<path fill-rule="evenodd" clip-rule="evenodd" d="M13 14C13.5523 14 14 14.4477 14 15V23.8947C14 24.447 13.5523 24.8947 13 24.8947C12.4477 24.8947 12 24.447 12 23.8947V15C12 14.4477 12.4477 14 13 14Z" fill="black"/>
<path fill-rule="evenodd" clip-rule="evenodd" d="M19 14C19.5523 14 20 14.4477 20 15V23.8947C20 24.447 19.5523 24.8947 19 24.8947C18.4477 24.8947 18 24.447 18 23.8947V15C18 14.4477 18.4477 14 19 14Z" fill="black"/>
<path fill-rule="evenodd" clip-rule="evenodd" d="M6 6C6 5.44772 6.44772 5 7 5H25C25.5523 5 26 5.44772 26 6C26 6.55228 25.5523 7 25 7H7C6.44772 7 6 6.55228 6 6Z" fill="black"/>
<path fill-rule="evenodd" clip-rule="evenodd" d="M15.2186 4.25256C15.0475 4.39187 15 4.5312 15 4.63235V5C15 5.55228 14.5523 6 14 6C13.4477 6 13 5.55228 13 5V4.63235C13 2.99317 14.5494 2 16 2C16.7708 2 17.4909 2.25713 18.0404 2.69777C18.6125 3.15644 19 3.84226 19 4.63235V5C19 5.55228 18.5523 6 18 6C17.4477 6 17 5.55228 17 5V4.63235C17 4.52538 16.9509 4.38768 16.7893 4.25812C16.6052 4.11052 16.3296 4 16 4C15.6657 4 15.3921 4.11135 15.2186 4.25256Z" fill="black"/>
</svg>
