<svg width="32" height="32" viewBox="0 0 32 32" fill="none" xmlns="http://www.w3.org/2000/svg">
<path d="M12.5 30C13.3284 30 14 29.3284 14 28.5C14 27.6716 13.3284 27 12.5 27C11.6716 27 11 27.6716 11 28.5C11 29.3284 11.6716 30 12.5 30Z" fill="black"/>
<path d="M19.5 30C20.3284 30 21 29.3284 21 28.5C21 27.6716 20.3284 27 19.5 27C18.6716 27 18 27.6716 18 28.5C18 29.3284 18.6716 30 19.5 30Z" fill="black"/>
<path fill-rule="evenodd" clip-rule="evenodd" d="M7 8C7 7.44772 7.44772 7 8 7H25.5972C27.2536 7 28.4433 8.63254 27.8453 10.2079C27.8397 10.2226 27.8338 10.2372 27.8275 10.2516L25.2789 16.1163L25.2788 16.1165C24.2568 18.4669 21.9549 20 19.391 20H8C7.44772 20 7 19.5523 7 19V8ZM9 9V18H19.391C21.1461 18 22.7351 16.9508 23.4446 15.3192C23.4447 15.3191 23.4447 15.319 23.4447 15.319L25.9807 9.48327C26.0515 9.26716 25.8987 9 25.5972 9H9Z" fill="black"/>
<path fill-rule="evenodd" clip-rule="evenodd" d="M3 3C3 2.44772 3.44772 2 4 2H5.33014C7.29318 2 9 3.50689 9 5.5V8C9 8.55228 8.55228 9 8 9C7.44772 9 7 8.55228 7 8V5.5C7 4.73326 6.31448 4 5.33014 4H4C3.44772 4 3 3.55228 3 3Z" fill="black"/>
<path fill-rule="evenodd" clip-rule="evenodd" d="M8 18C8.55228 18 9 18.4477 9 19V22C9 23.1951 9.86184 24 10.7282 24H23C23.5523 24 24 24.4477 24 25C24 25.5523 23.5523 26 23 26H10.7282C8.58275 26 7 24.1167 7 22V19C7 18.4477 7.44772 18 8 18Z" fill="black"/>
</svg>
