<svg width="32" height="32" viewBox="0 0 32 32" fill="none" xmlns="http://www.w3.org/2000/svg">
<path fill-rule="evenodd" clip-rule="evenodd" d="M13.6947 3.93335C8.30365 3.93335 3.93335 8.30365 3.93335 13.6947C3.93335 19.0857 8.30365 23.456 13.6947 23.456C19.0857 23.456 23.456 19.0857 23.456 13.6947C23.456 8.30365 19.0857 3.93335 13.6947 3.93335ZM1.93335 13.6947C1.93335 7.19908 7.19908 1.93335 13.6947 1.93335C20.1903 1.93335 25.456 7.19908 25.456 13.6947C25.456 20.1903 20.1903 25.456 13.6947 25.456C7.19908 25.456 1.93335 20.1903 1.93335 13.6947Z" fill="black"/>
<path fill-rule="evenodd" clip-rule="evenodd" d="M20.6689 20.6689C21.0594 20.2783 21.6926 20.2783 22.0831 20.6689L29.7738 28.3595C30.1643 28.7501 30.1643 29.3832 29.7738 29.7738C29.3832 30.1643 28.7501 30.1643 28.3595 29.7738L20.6689 22.0831C20.2783 21.6926 20.2783 21.0594 20.6689 20.6689Z" fill="black"/>
</svg>
