<svg width="32" height="32" viewBox="0 0 32 32" fill="none" xmlns="http://www.w3.org/2000/svg">
<path fill-rule="evenodd" clip-rule="evenodd" d="M10.2845 5.30138C10.6703 4.90623 11.3035 4.89867 11.6986 5.28451L13.6986 7.23734C13.8913 7.42551 14 7.68348 14 7.95283V10C14 10.5523 13.5523 11 13 11C12.4477 11 12 10.5523 12 10V8.37405L10.3014 6.71549C9.90623 6.32966 9.89867 5.69654 10.2845 5.30138Z" fill="black"/>
<path fill-rule="evenodd" clip-rule="evenodd" d="M21.7155 5.30138C21.3297 4.90623 20.6965 4.89867 20.3014 5.28451L18.3014 7.23734C18.1087 7.42551 18 7.68348 18 7.95283V10C18 10.5523 18.4477 11 19 11C19.5523 11 20 10.5523 20 10V8.37405L21.6986 6.71549C22.0938 6.32966 22.1013 5.69654 21.7155 5.30138Z" fill="black"/>
<path fill-rule="evenodd" clip-rule="evenodd" d="M5.30218 10.2837C5.69777 9.89833 6.33088 9.90659 6.71627 10.3022L8.37036 12H10C10.5523 12 11 12.4477 11 13C11 13.5523 10.5523 14 10 14H7.94848C7.67874 14 7.42044 13.891 7.23221 13.6978L5.28373 11.6978C4.89833 11.3022 4.90659 10.6691 5.30218 10.2837Z" fill="black"/>
<path fill-rule="evenodd" clip-rule="evenodd" d="M27.6978 10.2837C27.3022 9.89833 26.6691 9.90659 26.2837 10.3022L24.6296 12H23C22.4477 12 22 12.4477 22 13C22 13.5523 22.4477 14 23 14H25.0515C25.3213 14 25.5796 13.891 25.7678 13.6978L27.7163 11.6978C28.1017 11.3022 28.0934 10.6691 27.6978 10.2837Z" fill="black"/>
<path fill-rule="evenodd" clip-rule="evenodd" d="M13 22C13.5523 22 14 22.4477 14 23V25.0472C14 25.3165 13.8913 25.5745 13.6986 25.7627L11.6986 27.7155C11.3035 28.1013 10.6703 28.0938 10.2845 27.6986C9.89867 27.3035 9.90623 26.6703 10.3014 26.2845L12 24.6259V23C12 22.4477 12.4477 22 13 22Z" fill="black"/>
<path fill-rule="evenodd" clip-rule="evenodd" d="M19 22C18.4477 22 18 22.4477 18 23V25.0472C18 25.3165 18.1087 25.5745 18.3014 25.7627L20.3014 27.7155C20.6965 28.1013 21.3297 28.0938 21.7155 27.6986C22.1013 27.3035 22.0938 26.6703 21.6986 26.2845L20 24.6259V23C20 22.4477 19.5523 22 19 22Z" fill="black"/>
<path fill-rule="evenodd" clip-rule="evenodd" d="M7.23221 17.3022C7.42044 17.109 7.67874 17 7.94848 17H10C10.5523 17 11 17.4477 11 18C11 18.5523 10.5523 19 10 19H8.37036L6.71627 20.6978C6.33088 21.0934 5.69777 21.1017 5.30218 20.7163C4.90659 20.3309 4.89833 19.6978 5.28373 19.3022L7.23221 17.3022Z" fill="black"/>
<path fill-rule="evenodd" clip-rule="evenodd" d="M25.7678 17.3022C25.5796 17.109 25.3213 17 25.0515 17H23C22.4477 17 22 17.4477 22 18C22 18.5523 22.4477 19 23 19H24.6296L26.2837 20.6978C26.6691 21.0934 27.3022 21.1017 27.6978 20.7163C28.0934 20.3309 28.1017 19.6978 27.7163 19.3022L25.7678 17.3022Z" fill="black"/>
<path fill-rule="evenodd" clip-rule="evenodd" d="M4 21C3.44771 21 3 21.4477 3 22C3 22.5523 3.44772 23 4 23C4.55228 23 5 22.5523 5 22C5 21.4477 4.55229 21 4 21ZM1 22C1 20.3431 2.34315 19 4 19C5.65685 19 7 20.3431 7 22C7 23.6569 5.65685 25 4 25C2.34315 25 1 23.6569 1 22Z" fill="black"/>
<path fill-rule="evenodd" clip-rule="evenodd" d="M28 21C27.4477 21 27 21.4477 27 22C27 22.5523 27.4477 23 28 23C28.5523 23 29 22.5523 29 22C29 21.4477 28.5523 21 28 21ZM25 22C25 20.3431 26.3431 19 28 19C29.6569 19 31 20.3431 31 22C31 23.6569 29.6569 25 28 25C26.3431 25 25 23.6569 25 22Z" fill="black"/>
<path fill-rule="evenodd" clip-rule="evenodd" d="M9 27C8.44771 27 8 27.4477 8 28C8 28.5523 8.44772 29 9 29C9.55228 29 10 28.5523 10 28C10 27.4477 9.55229 27 9 27ZM6 28C6 26.3431 7.34315 25 9 25C10.6569 25 12 26.3431 12 28C12 29.6569 10.6569 31 9 31C7.34315 31 6 29.6569 6 28Z" fill="black"/>
<path fill-rule="evenodd" clip-rule="evenodd" d="M23 27C22.4477 27 22 27.4477 22 28C22 28.5523 22.4477 29 23 29C23.5523 29 24 28.5523 24 28C24 27.4477 23.5523 27 23 27ZM20 28C20 26.3431 21.3431 25 23 25C24.6569 25 26 26.3431 26 28C26 29.6569 24.6569 31 23 31C21.3431 31 20 29.6569 20 28Z" fill="black"/>
<path fill-rule="evenodd" clip-rule="evenodd" d="M4 8C3.44771 8 3 8.44771 3 9C3 9.55228 3.44772 10 4 10C4.55228 10 5 9.55228 5 9C5 8.44771 4.55229 8 4 8ZM1 9C1 7.34314 2.34315 6 4 6C5.65685 6 7 7.34314 7 9C7 10.6569 5.65685 12 4 12C2.34315 12 1 10.6569 1 9Z" fill="black"/>
<path fill-rule="evenodd" clip-rule="evenodd" d="M28 8C27.4477 8 27 8.44771 27 9C27 9.55228 27.4477 10 28 10C28.5523 10 29 9.55228 29 9C29 8.44771 28.5523 8 28 8ZM25 9C25 7.34314 26.3431 6 28 6C29.6569 6 31 7.34314 31 9C31 10.6569 29.6569 12 28 12C26.3431 12 25 10.6569 25 9Z" fill="black"/>
<path fill-rule="evenodd" clip-rule="evenodd" d="M10 3C9.44771 3 9 3.44771 9 4C9 4.55228 9.44772 5 10 5C10.5523 5 11 4.55228 11 4C11 3.44771 10.5523 3 10 3ZM7 4C7 2.34314 8.34315 1 10 1C11.6569 1 13 2.34314 13 4C13 5.65685 11.6569 7 10 7C8.34315 7 7 5.65685 7 4Z" fill="black"/>
<path fill-rule="evenodd" clip-rule="evenodd" d="M22 3C21.4477 3 21 3.44771 21 4C21 4.55228 21.4477 5 22 5C22.5523 5 23 4.55228 23 4C23 3.44771 22.5523 3 22 3ZM19 4C19 2.34314 20.3431 1 22 1C23.6569 1 25 2.34314 25 4C25 5.65685 23.6569 7 22 7C20.3431 7 19 5.65685 19 4Z" fill="black"/>
<path fill-rule="evenodd" clip-rule="evenodd" d="M11.4816 11C11.2293 11 11 11.2116 11 11.5033V20.4967C11 20.7884 11.2293 21 11.4816 21H20.5184C20.7707 21 21 20.7884 21 20.4967V11.5033C21 11.2116 20.7707 11 20.5184 11H11.4816ZM9 11.5033C9 10.1345 10.0974 9 11.4816 9H20.5184C21.9026 9 23 10.1345 23 11.5033V20.4967C23 21.8655 21.9026 23 20.5184 23H11.4816C10.0974 23 9 21.8655 9 20.4967V11.5033Z" fill="black"/>
</svg>
