<svg width="32" height="32" viewBox="0 0 32 32" fill="none" xmlns="http://www.w3.org/2000/svg">
<path fill-rule="evenodd" clip-rule="evenodd" d="M4.54392 6.94118C4.18459 6.94118 3.92857 7.22378 3.92857 7.52542V13.4746C3.92857 13.7762 4.18459 14.0588 4.54392 14.0588H6.5C7.03256 14.0588 7.46429 14.4934 7.46429 15.0294C7.46429 15.5655 7.03256 16 6.5 16H4.54392C3.16122 16 2 14.8899 2 13.4746V7.52542C2 6.11014 3.16122 5 4.54392 5H10.0357C10.5683 5 11 5.43455 11 5.97059C11 6.50663 10.5683 6.94118 10.0357 6.94118H4.54392Z" fill="black"/>
<path fill-rule="evenodd" clip-rule="evenodd" d="M5.05635 12.3558C5.4799 12.0085 6.14936 12.0234 6.55163 12.389L8.72547 14.365C9.11315 14.7173 9.11317 15.2701 8.72553 15.6225L6.55171 17.5987C6.14947 17.9644 5.48001 17.9793 5.05643 17.6321C4.63286 17.2848 4.61556 16.7069 5.0178 16.3412L6.49993 14.9938L5.01784 13.6467C4.61556 13.281 4.63281 12.7031 5.05635 12.3558Z" fill="black"/>
<path fill-rule="evenodd" clip-rule="evenodd" d="M27.4363 16.9412C27.7241 16.9412 28 17.1812 28 17.5254V23.4746C28 23.8188 27.7241 24.0588 27.4363 24.0588H25.5C24.9477 24.0588 24.5 24.4934 24.5 25.0294C24.5 25.5655 24.9477 26 25.5 26H27.4363C28.873 26 30 24.8473 30 23.4746V17.5254C30 16.1527 28.873 15 27.4363 15H22C21.4477 15 21 15.4345 21 15.9706C21 16.5066 21.4477 16.9412 22 16.9412H27.4363Z" fill="black"/>
<path fill-rule="evenodd" clip-rule="evenodd" d="M26.8995 22.3232C26.4779 21.9611 25.8116 21.9766 25.4112 22.3578L23.3033 24.365C22.9174 24.7325 22.9174 25.3089 23.3032 25.6763L25.4111 27.6839C25.8115 28.0652 26.4778 28.0807 26.8994 27.7186C27.321 27.3565 27.3382 26.7539 26.9378 26.3726L25.5184 25.0208L26.9378 23.6692C27.3382 23.2879 27.321 22.6853 26.8995 22.3232Z" fill="black"/>
<path fill-rule="evenodd" clip-rule="evenodd" d="M10 4C10 2.89543 10.8954 2 12 2H20C21.1046 2 22 2.89543 22 4V8C22 9.10457 21.1046 10 20 10H12C10.8954 10 10 9.10457 10 8V4ZM20 4H12V8H20V4Z" fill="black"/>
<path fill-rule="evenodd" clip-rule="evenodd" d="M10 14C10 12.8954 10.8954 12 12 12H20C21.1046 12 22 12.8954 22 14V18C22 19.1046 21.1046 20 20 20H12C10.8954 20 10 19.1046 10 18V14ZM20 14H12V18H20V14Z" fill="black"/>
<path fill-rule="evenodd" clip-rule="evenodd" d="M10 24C10 22.8954 10.8954 22 12 22H20C21.1046 22 22 22.8954 22 24V28C22 29.1046 21.1046 30 20 30H12C10.8954 30 10 29.1046 10 28V24ZM20 24H12V28H20V24Z" fill="black"/>
</svg>
