<svg width="32" height="32" viewBox="0 0 32 32" fill="none" xmlns="http://www.w3.org/2000/svg">
<path fill-rule="evenodd" clip-rule="evenodd" d="M1.93335 7.96265H30.0667V26.1173C30.0667 28.2241 28.4813 30.0666 26.3507 30.0666H5.64935C3.51677 30.0666 1.93335 28.2126 1.93335 26.1173V7.96265ZM3.93335 9.96265V26.1173C3.93335 27.27 4.7766 28.0666 5.64935 28.0666H26.3507C27.2254 28.0666 28.0667 27.2772 28.0667 26.1173V9.96265H3.93335Z" fill="black"/>
<path fill-rule="evenodd" clip-rule="evenodd" d="M1.93335 5.80802C1.93335 3.7242 3.54083 1.93335 5.64935 1.93335H26.3507C28.4592 1.93335 30.0667 3.7242 30.0667 5.80802V9.96268H1.93335V5.80802ZM5.64935 3.93335C4.75253 3.93335 3.93335 4.7185 3.93335 5.80802V7.96268H28.0667V5.80802C28.0667 4.7185 27.2475 3.93335 26.3507 3.93335H5.64935Z" fill="black"/>
<path d="M7.19866 4.94H6.704C6.284 4.94 5.948 5.248 5.948 5.63067V6.24667C5.948 6.62934 6.284 6.93734 6.704 6.93734H7.19866C7.61866 6.93734 7.95466 6.62934 7.95466 6.24667V5.63067C7.95466 5.248 7.61866 4.94 7.19866 4.94Z" fill="black"/>
<path d="M10.2507 5H9.756C9.336 5 9 5.308 9 5.69067V6.30667C9 6.68933 9.336 6.99733 9.756 6.99733H10.2507C10.6707 6.99733 11.0067 6.68933 11.0067 6.30667V5.69067C11.0067 5.308 10.6707 5 10.2507 5Z" fill="black"/>
<path d="M13.2507 5H12.756C12.336 5 12 5.308 12 5.69067V6.30667C12 6.68933 12.336 6.99733 12.756 6.99733H13.2507C13.6707 6.99733 14.0067 6.68933 14.0067 6.30667V5.69067C14.0067 5.308 13.6707 5 13.2507 5Z" fill="black"/>
<path fill-rule="evenodd" clip-rule="evenodd" d="M8.00004 14.0018C8.00002 14.0021 8 14.0025 8 14.0031V23.9969C8 23.9975 8.00002 23.9979 8.00004 23.9982C8.00021 23.9984 8.0005 23.9988 8.00093 23.9992C8.00126 23.9996 8.00154 23.9998 8.00176 24C8.002 24 8.00229 24 8.00265 24H12.9973C12.9977 24 12.998 24 12.9982 24C12.9985 23.9998 12.9987 23.9996 12.9991 23.9992C12.9995 23.9988 12.9998 23.9985 13 23.9982C13 23.9979 13 23.9975 13 23.9969V14.0031C13 14.0025 13 14.0021 13 14.0018C12.9998 14.0015 12.9995 14.0012 12.9991 14.0008C12.9987 14.0004 12.9985 14.0002 12.9982 14C12.998 14 12.9977 14 12.9973 14H8.00265C8.00229 14 8.002 14 8.00176 14C8.00154 14.0002 8.00126 14.0004 8.00093 14.0008C8.0005 14.0012 8.00021 14.0015 8.00004 14.0018ZM6 14.0031C6 12.8972 6.8962 12 8.00265 12H12.9973C14.1038 12 15 12.8972 15 14.0031V23.9969C15 25.1028 14.1038 26 12.9973 26H8.00265C6.8962 26 6 25.1028 6 23.9969V14.0031Z" fill="black"/>
<path fill-rule="evenodd" clip-rule="evenodd" d="M19.0068 21.028C19.0068 21.0281 19.0066 21.0288 19.0066 21.0307V24.036C19.0066 24.0379 19.0068 24.0387 19.0068 24.0387L19.0068 24.0388C19.0069 24.0391 19.0075 24.0402 19.0089 24.0417C19.0104 24.0431 19.0116 24.0437 19.0118 24.0438L19.0119 24.0439C19.0119 24.0439 19.0127 24.044 19.0146 24.044H24.0359C24.0378 24.044 24.0386 24.0439 24.0386 24.0439L24.0387 24.0438C24.039 24.0437 24.0401 24.0431 24.0416 24.0417C24.043 24.0402 24.0436 24.0391 24.0437 24.0388L24.0437 24.0387L24.0437 24.0387C24.0438 24.0386 24.0439 24.0378 24.0439 24.036V21.0307C24.0439 21.0289 24.0438 21.0281 24.0437 21.028L24.0437 21.028L24.0437 21.0279C24.0436 21.0277 24.043 21.0265 24.0416 21.025C24.0401 21.0236 24.039 21.023 24.0387 21.0229L24.0386 21.0229C24.0386 21.0229 24.0378 21.0227 24.0359 21.0227H19.0146C19.0127 21.0227 19.0119 21.0229 19.0119 21.0229L19.0118 21.0229C19.0116 21.023 19.0104 21.0236 19.0089 21.025C19.0075 21.0265 19.0069 21.0277 19.0068 21.0279L19.0068 21.028ZM17.0066 21.0307C17.0066 19.9217 17.9056 19.0227 19.0146 19.0227H24.0359C25.1449 19.0227 26.0439 19.9217 26.0439 21.0307V24.036C26.0439 25.145 25.1449 26.044 24.0359 26.044H19.0146C17.9056 26.044 17.0066 25.145 17.0066 24.036V21.0307Z" fill="black"/>
<path fill-rule="evenodd" clip-rule="evenodd" d="M17.0067 12.9854C17.0067 12.4331 17.4544 11.9854 18.0067 11.9854H25.0627C25.6149 11.9854 26.0627 12.4331 26.0627 12.9854C26.0627 13.5376 25.6149 13.9854 25.0627 13.9854H18.0067C17.4544 13.9854 17.0067 13.5376 17.0067 12.9854ZM17 16C17 15.4477 17.4477 15 18 15H25.056C25.6083 15 26.056 15.4477 26.056 16C26.056 16.5523 25.6083 17 25.056 17H18C17.4477 17 17 16.5523 17 16Z" fill="black"/>
</svg>
