<svg width="32" height="32" viewBox="0 0 32 32" fill="none" xmlns="http://www.w3.org/2000/svg">
<path fill-rule="evenodd" clip-rule="evenodd" d="M10.2883 4C8.44777 4 7 5.45142 7 7.17861V26.2052C7 27.6929 8.83588 28.594 10.0785 27.5552L13.4615 24.7304C13.7345 24.4534 14.6311 23.6731 16 23.6731C17.4015 23.6731 18.2989 24.4947 18.5305 24.7237L21.921 27.5548C23.1612 28.5916 25 27.6868 25 26.2052V7.17861C25 5.45142 23.5522 4 21.7117 4H10.2883ZM5 7.17861C5 4.30004 7.39061 2 10.2883 2H21.7117C24.6094 2 27 4.30004 27 7.17861V26.2052C27 29.4779 23.1083 31.1543 20.6387 29.0896L17.214 26.2299C17.1896 26.2096 17.1662 26.1881 17.1439 26.1655C17.0626 26.0834 16.6418 25.6731 16 25.6731C15.682 25.6731 15.4166 25.7721 15.213 25.8893C15.1114 25.9478 15.0295 26.0084 14.9708 26.0572C14.911 26.1069 14.881 26.1395 14.8837 26.1365C14.8533 26.1698 14.8206 26.201 14.786 26.2299L11.3613 29.0896C8.89414 31.1522 5 29.4904 5 26.2052V7.17861Z" fill="black"/>
</svg>
