<svg width="32" height="32" viewBox="0 0 32 32" fill="none" xmlns="http://www.w3.org/2000/svg">
<path fill-rule="evenodd" clip-rule="evenodd" d="M4 7C4 6.44772 4.44772 6 5 6H27C27.5523 6 28 6.44772 28 7C28 7.55228 27.5523 8 27 8H5C4.44772 8 4 7.55228 4 7Z" fill="black"/>
<path fill-rule="evenodd" clip-rule="evenodd" d="M4 13C4 12.4477 4.44772 12 5 12H27C27.5523 12 28 12.4477 28 13C28 13.5523 27.5523 14 27 14H5C4.44772 14 4 13.5523 4 13Z" fill="black"/>
<path fill-rule="evenodd" clip-rule="evenodd" d="M4 19C4 18.4477 4.44772 18 5 18H27C27.5523 18 28 18.4477 28 19C28 19.5523 27.5523 20 27 20H5C4.44772 20 4 19.5523 4 19Z" fill="black"/>
<path fill-rule="evenodd" clip-rule="evenodd" d="M4 25C4 24.4477 4.44772 24 5 24H27C27.5523 24 28 24.4477 28 25C28 25.5523 27.5523 26 27 26H5C4.44772 26 4 25.5523 4 25Z" fill="black"/>
</svg>
