<svg width="32" height="32" viewBox="0 0 32 32" fill="none" xmlns="http://www.w3.org/2000/svg">
<path fill-rule="evenodd" clip-rule="evenodd" d="M27.931 13.2733C21.757 6.24224 10.243 6.24224 4.06904 13.2733L27.931 13.2733ZM27.931 13.2733L29.751 15.343C30.083 15.7206 30.083 16.2861 29.751 16.6637L27.931 18.7335C21.7481 25.7544 10.2433 25.7559 4.06899 18.7334L2.24904 16.6637C1.91699 16.2861 1.91699 15.7206 2.24904 15.343L4.06904 13.2733M26.4285 14.5934C21.0511 8.46886 10.9489 8.46886 5.57145 14.5934L4.33163 16.0034L5.57096 17.4128C10.9481 23.5286 21.0423 23.5296 26.4294 17.4123C26.4294 17.4124 26.4295 17.4123 26.4294 17.4123L27.6684 16.0034L26.4285 14.5934Z" fill="black"/>
<path fill-rule="evenodd" clip-rule="evenodd" d="M16 14C14.8954 14 14 14.8954 14 16C14 17.1046 14.8954 18 16 18C17.1046 18 18 17.1046 18 16C18 14.8954 17.1046 14 16 14ZM12 16C12 13.7909 13.7909 12 16 12C18.2091 12 20 13.7909 20 16C20 18.2091 18.2091 20 16 20C13.7909 20 12 18.2091 12 16Z" fill="black"/>
</svg>
