<svg width="32" height="32" viewBox="0 0 32 32" fill="none" xmlns="http://www.w3.org/2000/svg">
<path fill-rule="evenodd" clip-rule="evenodd" d="M2 8C2 7.44772 2.44772 7 3 7H29C29.5523 7 30 7.44772 30 8C30 8.55228 29.5523 9 29 9H3C2.44772 9 2 8.55228 2 8Z" fill="black"/>
<path fill-rule="evenodd" clip-rule="evenodd" d="M2 26C2 25.4477 2.44772 25 3 25H29C29.5523 25 30 25.4477 30 26C30 26.5523 29.5523 27 29 27H3C2.44772 27 2 26.5523 2 26Z" fill="black"/>
<path fill-rule="evenodd" clip-rule="evenodd" d="M3 7C3.55228 7 4 7.44772 4 8L4 14C4 14.5523 3.55228 15 3 15C2.44772 15 2 14.5523 2 14L2 8C2 7.44772 2.44772 7 3 7Z" fill="black"/>
<path fill-rule="evenodd" clip-rule="evenodd" d="M3 19C3.55228 19 4 19.4477 4 20V26C4 26.5523 3.55228 27 3 27C2.44772 27 2 26.5523 2 26V20C2 19.4477 2.44772 19 3 19Z" fill="black"/>
<path fill-rule="evenodd" clip-rule="evenodd" d="M29 7C29.5523 7 30 7.44772 30 8V13C30 13.5523 29.5523 14 29 14C28.4477 14 28 13.5523 28 13V8C28 7.44772 28.4477 7 29 7Z" fill="black"/>
<path fill-rule="evenodd" clip-rule="evenodd" d="M29.0017 18C29.554 18.001 30.0009 18.4494 30 19.0017L29.9885 25.6684C29.9876 26.2207 29.5391 26.6676 28.9868 26.6667C28.4345 26.6657 27.9876 26.2172 27.9885 25.665L28 18.9983C28.001 18.446 28.4494 17.9991 29.0017 18Z" fill="black"/>
<path fill-rule="evenodd" clip-rule="evenodd" d="M2 14C2 13.4477 2.44772 13 3 13C5.30676 13 7 15.0341 7 17C7 18.9659 5.30676 21 3 21C2.44772 21 2 20.5523 2 20C2 19.4477 2.44772 19 3 19C4.1016 19 5 17.9647 5 17C5 16.0353 4.1016 15 3 15C2.44772 15 2 14.5523 2 14Z" fill="black"/>
<path fill-rule="evenodd" clip-rule="evenodd" d="M29 14C27.8933 14 27 14.8979 27 16C27 17.1021 27.8933 18 29 18C29.5523 18 30 18.4477 30 19C30 19.5523 29.5523 20 29 20C26.7852 20 25 18.2032 25 16C25 13.7968 26.7852 12 29 12C29.5523 12 30 12.4477 30 13C30 13.5523 29.5523 14 29 14Z" fill="black"/>
<path fill-rule="evenodd" clip-rule="evenodd" d="M10 10C10.5523 10 11 10.4477 11 11V13C11 13.5523 10.5523 14 10 14C9.44772 14 9 13.5523 9 13V11C9 10.4477 9.44772 10 10 10Z" fill="black"/>
<path fill-rule="evenodd" clip-rule="evenodd" d="M10 15C10.5523 15 11 15.4477 11 16V18C11 18.5523 10.5523 19 10 19C9.44772 19 9 18.5523 9 18V16C9 15.4477 9.44772 15 10 15Z" fill="black"/>
<path fill-rule="evenodd" clip-rule="evenodd" d="M10 20C10.5523 20 11 20.4477 11 21V23C11 23.5523 10.5523 24 10 24C9.44772 24 9 23.5523 9 23V21C9 20.4477 9.44772 20 10 20Z" fill="black"/>
</svg>
