<svg width="32" height="32" viewBox="0 0 32 32" fill="none" xmlns="http://www.w3.org/2000/svg">
<path fill-rule="evenodd" clip-rule="evenodd" d="M25 2C25.5523 2 26 2.44772 26 3V7C26 7.55228 25.5523 8 25 8H21C20.4477 8 20 7.55228 20 7C20 6.44772 20.4477 6 21 6H24V3C24 2.44772 24.4477 2 25 2Z" fill="black"/>
<path fill-rule="evenodd" clip-rule="evenodd" d="M6 25C6 24.4477 6.44772 24 7 24H11C11.5523 24 12 24.4477 12 25C12 25.5523 11.5523 26 11 26H8V29C8 29.5523 7.55228 30 7 30C6.44772 30 6 29.5523 6 29V25Z" fill="black"/>
<path fill-rule="evenodd" clip-rule="evenodd" d="M16 4C9.36979 4 4 9.36978 4 16C4 18.1908 4.58767 20.2354 5.6077 21.9994C5.88415 22.4775 5.72068 23.0892 5.24257 23.3657C4.76446 23.6422 4.15276 23.4787 3.87631 23.0006C2.68633 20.9426 2 18.5542 2 16C2 8.26522 8.26522 2 16 2C19.8162 2 23.1419 3.22773 25.7071 5.79289C26.0976 6.18342 26.0976 6.81658 25.7071 7.20711C25.3166 7.59763 24.6834 7.59763 24.2929 7.20711C22.1521 5.06627 19.3598 4 16 4Z" fill="black"/>
<path fill-rule="evenodd" clip-rule="evenodd" d="M26.7574 8.63435C27.2355 8.35789 27.8472 8.52136 28.1237 8.99947C29.3137 11.0574 30 13.4459 30 16C30 23.7348 23.7348 30 16 30C12.1838 30 8.85805 28.7723 6.29289 26.2072C5.90237 25.8166 5.90237 25.1835 6.29289 24.7929C6.68342 24.4024 7.31658 24.4024 7.70711 24.7929C9.84795 26.9338 12.6402 28 16 28C22.6302 28 28 22.6303 28 16C28 13.8092 27.4123 11.7647 26.3923 10.0006C26.1158 9.52251 26.2793 8.91081 26.7574 8.63435Z" fill="black"/>
<path fill-rule="evenodd" clip-rule="evenodd" d="M13.3974 7.29436C13.5851 7.1059 13.8401 6.99996 14.106 6.99996L17.9843 6.99996C18.5297 6.99996 18.9744 7.43687 18.9842 7.98212L19.0086 9.35048C19.4579 9.5607 19.8805 9.81537 20.2731 10.1071L21.3592 9.48278C21.5897 9.35032 21.8633 9.31505 22.1198 9.38474C22.3763 9.45444 22.5945 9.62337 22.7262 9.85422L24.697 13.3088C24.97 13.7874 24.8045 14.3966 24.3269 14.6713L23.2432 15.2944C23.2687 15.5322 23.2831 15.7751 23.2845 16.0237L23.2845 16.0314L23.2845 16.0314C23.284 16.2761 23.2734 16.5231 23.2502 16.7704L24.3644 17.4362C24.8314 17.7152 24.9897 18.3163 24.7207 18.7891L22.7855 22.1904C22.6526 22.4239 22.4313 22.5942 22.1715 22.6628C21.9117 22.7313 21.6353 22.6925 21.4044 22.5549L20.3061 21.9004C19.9283 22.1734 19.5204 22.4097 19.0884 22.6028L19.0939 23.8854C19.095 24.1537 18.9883 24.4113 18.7977 24.6001C18.607 24.7889 18.3485 24.8933 18.0802 24.8896L14.1742 24.8362C13.629 24.8288 13.1902 24.3859 13.1879 23.8406L13.1823 22.5349C12.7364 22.3255 12.3168 22.0723 11.9268 21.7825L10.8407 22.4069C10.6103 22.5393 10.3366 22.5746 10.0801 22.5049C9.82362 22.4352 9.60543 22.2663 9.47373 22.0354L7.50289 18.5808C7.22987 18.1022 7.39538 17.493 7.87302 17.2184L8.95578 16.5958C8.9296 16.3553 8.91489 16.1088 8.91543 15.8582C8.91595 15.6136 8.92652 15.3666 8.94975 15.1192L7.8355 14.4535C7.3685 14.1745 7.21021 13.5733 7.47923 13.1005L9.41442 9.69925C9.5473 9.4657 9.76858 9.29545 10.0284 9.22688C10.2882 9.15831 10.5647 9.19718 10.7955 9.33473L11.8938 9.98924C12.2717 9.71622 12.6795 9.47993 13.1115 9.28688L13.106 8.00422C13.1049 7.73827 13.2098 7.48282 13.3974 7.29436ZM15.1103 8.99996L15.1144 9.96812C15.1163 10.4045 14.835 10.7917 14.4195 10.9247C13.7571 11.1369 13.1543 11.4904 12.6501 11.9462C12.3244 12.2406 11.8448 12.2882 11.4676 12.0634L10.6482 11.5751L9.70167 13.2387L10.5477 13.7442C10.9122 13.962 11.0995 14.3862 11.0147 14.8023C10.9474 15.1325 10.9162 15.4872 10.9154 15.8625C10.9147 16.2091 10.957 16.5646 11.0295 16.9213C11.1152 17.3433 10.9212 17.7727 10.548 17.9873L9.73393 18.4554L10.7138 20.1729L11.5281 19.7048C11.904 19.4887 12.3763 19.5395 12.6977 19.8305C13.2286 20.3113 13.84 20.6849 14.5107 20.9204C14.9099 21.0605 15.1776 21.4366 15.1794 21.8596L15.1837 22.8498L17.0895 22.8759L17.0855 21.9215C17.0836 21.4852 17.3649 21.098 17.7805 20.9649C18.4428 20.7528 19.0456 20.3992 19.5498 19.9434C19.8755 19.649 20.3552 19.6014 20.7323 19.8262L21.5517 20.3145L22.4982 18.651L21.6522 18.1455C21.2877 17.9277 21.1004 17.5034 21.1852 17.0874C21.2523 16.7583 21.2835 16.405 21.2845 16.0311C21.2822 15.6702 21.2416 15.3187 21.1704 14.9683C21.0847 14.5464 21.2787 14.1169 21.652 13.9023L22.466 13.4342L21.4862 11.7167L20.6718 12.1848C20.2959 12.4009 19.8236 12.3501 19.5022 12.0591C18.9713 11.5783 18.3599 11.2048 17.6892 10.9693C17.2948 10.8308 17.0281 10.4616 17.0206 10.0436L17.002 8.99996L15.1103 8.99996Z" fill="black"/>
<path fill-rule="evenodd" clip-rule="evenodd" d="M16 17.5C16.8284 17.5 17.5 16.8284 17.5 16C17.5 15.1716 16.8284 14.5 16 14.5C15.1716 14.5 14.5 15.1716 14.5 16C14.5 16.8284 15.1716 17.5 16 17.5ZM16 19.5C17.933 19.5 19.5 17.933 19.5 16C19.5 14.067 17.933 12.5 16 12.5C14.067 12.5 12.5 14.067 12.5 16C12.5 17.933 14.067 19.5 16 19.5Z" fill="black"/>
</svg>
