<svg width="32" height="32" viewBox="0 0 32 32" fill="none" xmlns="http://www.w3.org/2000/svg">
<path fill-rule="evenodd" clip-rule="evenodd" d="M16.8627 2.15727C21.1745 4.46354 25.1326 5.73672 26.6405 6.17272L26.6521 6.17608L26.6521 6.17615C27.4149 6.40678 28.0347 7.08981 28.0347 7.97336V19.164C28.0347 20.6903 27.3441 22.0767 26.4093 23.2607C25.4713 24.4487 24.2262 25.5119 22.9638 26.415C20.4376 28.2222 17.6878 29.4962 16.7321 29.9167L16.714 29.9244C16.2438 30.1203 15.7242 30.1203 15.2541 29.9244L15.2376 29.9174C14.2756 29.4962 11.5257 28.2222 9.00051 26.4149C7.7386 25.5117 6.4944 24.4485 5.55713 23.2603C4.62311 22.0763 3.93335 20.69 3.93335 19.164V7.9827C3.93335 7.11719 4.53555 6.40688 5.3281 6.18188C6.84861 5.73281 10.8121 4.46822 15.0986 2.15592L15.5733 3.03603L15.0877 2.16187C15.639 1.85562 16.3102 1.85409 16.8627 2.15727ZM15.9796 3.95302C11.5849 6.31461 7.53932 7.61261 5.93335 8.08851V19.164C5.93335 20.0741 6.34726 21.0327 7.12736 22.0216C7.90422 23.0064 8.98459 23.944 10.1645 24.7885C12.4766 26.4433 15.0235 27.6375 15.9839 28.0608C16.9426 27.6362 19.4881 26.4424 21.8002 24.7884C22.9808 23.9438 24.062 23.0062 24.8396 22.0213C25.6205 21.0323 26.0347 20.0738 26.0347 19.164V8.07944C24.4177 7.60907 20.3855 6.30187 15.9796 3.95302Z" fill="black"/>
<path fill-rule="evenodd" clip-rule="evenodd" d="M12 15.1648V20.8351C14.4324 21.0549 17.5769 21.055 20 20.8352V15.1649C17.5676 14.9451 14.4231 14.945 12 15.1648ZM11.3349 13.2206C14.0969 12.9264 17.8917 12.9265 20.6646 13.2206L20.683 13.2227C21.4004 13.3122 22 13.9064 22 14.6928V21.3072C22 22.112 21.3702 22.6875 20.6888 22.7766L20.6651 22.7794C17.9031 23.0736 14.1083 23.0735 11.3354 22.7794L11.317 22.7773C10.5996 22.6878 10 22.0936 10 21.3072V14.6928C10 13.888 10.6298 13.3125 11.3112 13.2234L11.3349 13.2206Z" fill="black"/>
<path fill-rule="evenodd" clip-rule="evenodd" d="M16 9C14.697 9 14 9.83066 14 10.4427V11C14 11.5523 13.5523 12 13 12C12.4477 12 12 11.5523 12 11V10.4427C12 8.36129 13.9965 7 16 7C17.0421 7 18.0116 7.33974 18.7487 7.93946L18.7552 7.94475L18.7552 7.94478C19.4707 8.53689 20 9.40439 20 10.4427V11C20 11.5523 19.5523 12 19 12C18.4477 12 18 11.5523 18 11V10.4427C18 10.126 17.843 9.78713 17.4833 9.48826C17.1246 9.19777 16.6093 9 16 9Z" fill="black"/>
</svg>
