<svg width="32" height="32" viewBox="0 0 32 32" fill="none" xmlns="http://www.w3.org/2000/svg">
<path fill-rule="evenodd" clip-rule="evenodd" d="M6.25 4C5.01014 4 4 5.01014 4 6.25V25.75C4 26.9899 5.01014 28 6.25 28H25.75C26.9899 28 28 26.9899 28 25.75V10.8464C28 10.2604 27.7639 9.68743 27.3365 9.25996L22.7346 4.65814C22.3208 4.2379 21.7518 4 21.1536 4H6.25ZM2 6.25C2 3.90557 3.90557 2 6.25 2H21.1536C22.2811 2 23.3637 2.44818 24.1568 3.25183C24.1577 3.2528 24.1587 3.25377 24.1596 3.25474L28.7507 7.84575C29.5489 8.644 30 9.72391 30 10.8464V25.75C30 28.0944 28.0944 30 25.75 30H6.25C3.90557 30 2 28.0944 2 25.75V6.25Z" fill="black"/>
<path fill-rule="evenodd" clip-rule="evenodd" d="M10 2C10.5523 2 11 2.44772 11 3V10.8571C11 12.1135 11.8328 13 13 13H19C19.6524 13 20.1382 12.7741 20.46 12.4477C20.784 12.1192 21 11.6297 21 11V4C21 3.44772 21.4477 3 22 3C22.5523 3 23 3.44772 23 4V11C23 12.1033 22.6121 13.1138 21.8841 13.8521C21.154 14.5924 20.1397 15 19 15H13C10.5829 15 9 13.0669 9 10.8571V3C9 2.44772 9.44772 2 10 2Z" fill="black"/>
<path fill-rule="evenodd" clip-rule="evenodd" d="M13 24C11.898 24 11 24.898 11 26V29C11 29.5523 10.5523 30 10 30C9.44772 30 9 29.5523 9 29V26C9 23.7934 10.7934 22 13 22H19C21.2066 22 23 23.7934 23 26V29C23 29.5523 22.5523 30 22 30C21.4477 30 21 29.5523 21 29V26C21 24.898 20.102 24 19 24H13Z" fill="black"/>
</svg>
