<svg width="32" height="32" viewBox="0 0 32 32" fill="none" xmlns="http://www.w3.org/2000/svg">
<path fill-rule="evenodd" clip-rule="evenodd" d="M15.5149 2.23389C15.8901 1.91913 16.4381 1.92241 16.8095 2.24164L29.6519 13.28C29.9708 13.5541 30.0842 13.9985 29.9355 14.3919C29.7868 14.7853 29.4078 15.0437 28.9873 15.0383L27.0001 15.0129L27.0001 29C27.0001 29.2652 26.8947 29.5196 26.7072 29.7071C26.5196 29.8946 26.2653 30 26.0001 30H6.00005C5.44777 30 5.00005 29.5523 5.00005 29L5.00005 15.0129L3.01284 15.0383C2.59011 15.0437 2.20966 14.7827 2.06255 14.3863C1.91544 13.99 2.03346 13.544 2.35734 13.2723L15.5149 2.23389ZM5.79057 13.0026L5.98726 13.0001C6.25468 12.9967 6.51231 13.1005 6.70262 13.2884C6.89293 13.4763 7.00005 13.7326 7.00005 14L7.00005 28H25.0001L25.0001 14C25.0001 13.7326 25.1072 13.4763 25.2975 13.2884C25.4878 13.1005 25.7454 12.9967 26.0128 13.0001L26.2616 13.0033L16.1498 4.31188L5.79057 13.0026Z" fill="black"/>
<path fill-rule="evenodd" clip-rule="evenodd" d="M13.4599 20C13.2771 20 13 20.1889 13 20.5711V28H19V20.5711C19 20.1889 18.7229 20 18.5401 20H13.4599ZM11 20.5711C11 19.2251 12.0368 18 13.4599 18H18.5401C19.9632 18 21 19.2251 21 20.5711V29C21 29.5523 20.5523 30 20 30H12C11.4477 30 11 29.5523 11 29V20.5711Z" fill="black"/>
</svg>
