<svg width="32" height="32" viewBox="0 0 32 32" fill="none" xmlns="http://www.w3.org/2000/svg">
<path fill-rule="evenodd" clip-rule="evenodd" d="M6 7C6 4.23858 8.23858 2 11 2H21C23.7614 2 26 4.23858 26 7V8C26 8.55228 25.5523 9 25 9C24.4477 9 24 8.55228 24 8V7C24 5.34315 22.6569 4 21 4H11C9.34315 4 8 5.34315 8 7V25C8 26.6569 9.34315 28 11 28H21C22.6569 28 24 26.6569 24 25V24C24 23.4477 24.4477 23 25 23C25.5523 23 26 23.4477 26 24V25C26 27.7614 23.7614 30 21 30H11C8.23858 30 6 27.7614 6 25V7Z" fill="black"/>
<path fill-rule="evenodd" clip-rule="evenodd" d="M16 16.0448C16 15.4925 16.4477 15.0448 17 15.0448H27.8826C28.4348 15.0448 28.8826 15.4925 28.8826 16.0448C28.8826 16.5971 28.4348 17.0448 27.8826 17.0448H17C16.4477 17.0448 16 16.5971 16 16.0448Z" fill="black"/>
<path fill-rule="evenodd" clip-rule="evenodd" d="M23.3276 10.2598C23.7364 9.88846 24.3689 9.91882 24.7402 10.3276L29.2857 15.3316C29.6323 15.7131 29.632 16.2956 29.2851 16.6769L24.7397 21.673C24.368 22.0815 23.7356 22.1114 23.327 21.7397C22.9185 21.368 22.8887 20.7356 23.2603 20.327L27.194 16.0034L23.2598 11.6724C22.8885 11.2636 22.9188 10.6312 23.3276 10.2598Z" fill="black"/>
</svg>
