<svg width="32" height="32" viewBox="0 0 32 32" fill="none" xmlns="http://www.w3.org/2000/svg">
<path fill-rule="evenodd" clip-rule="evenodd" d="M16 3.93335C9.33578 3.93335 3.93335 9.33578 3.93335 16C3.93335 22.6643 9.33578 28.0667 16 28.0667C22.6643 28.0667 28.0667 22.6643 28.0667 16C28.0667 9.33578 22.6643 3.93335 16 3.93335ZM1.93335 16C1.93335 8.23121 8.23121 1.93335 16 1.93335C23.7688 1.93335 30.0667 8.23121 30.0667 16C30.0667 23.7688 23.7688 30.0667 16 30.0667C8.23121 30.0667 1.93335 23.7688 1.93335 16Z" fill="black"/>
<path fill-rule="evenodd" clip-rule="evenodd" d="M9.00006 16C9.00006 15.4477 9.44778 15 10.0001 15L22.0001 15C22.5523 15 23.0001 15.4477 23.0001 16C23.0001 16.5523 22.5523 17 22.0001 17L10.0001 17C9.44778 17 9.00006 16.5523 9.00006 16Z" fill="black"/>
<path fill-rule="evenodd" clip-rule="evenodd" d="M16.0001 9C16.5523 9 17.0001 9.44772 17.0001 10V22C17.0001 22.5523 16.5523 23 16.0001 23C15.4478 23 15.0001 22.5523 15.0001 22V10C15.0001 9.44772 15.4478 9 16.0001 9Z" fill="black"/>
</svg>
