<svg width="32" height="32" viewBox="0 0 32 32" fill="none" xmlns="http://www.w3.org/2000/svg">
<path fill-rule="evenodd" clip-rule="evenodd" d="M4 16C4 15.4477 4.44772 15 5 15H9C9.55228 15 10 15.4477 10 16C10 16.5523 9.55228 17 9 17H5C4.44772 17 4 16.5523 4 16Z" fill="black"/>
<path fill-rule="evenodd" clip-rule="evenodd" d="M7 11C7.55228 11 8 11.4477 8 12V16C8 16.5523 7.55228 17 7 17C6.44772 17 6 16.5523 6 16V12C6 11.4477 6.44772 11 7 11Z" fill="black"/>
<path fill-rule="evenodd" clip-rule="evenodd" d="M4 9C4 8.44772 4.44772 8 5 8H9C9.55228 8 10 8.44772 10 9C10 9.55228 9.55228 10 9 10H5C4.44772 10 4 9.55228 4 9Z" fill="black"/>
<path fill-rule="evenodd" clip-rule="evenodd" d="M4 23C4 22.4477 4.44772 22 5 22H9C9.55228 22 10 22.4477 10 23C10 23.5523 9.55228 24 9 24H5C4.44772 24 4 23.5523 4 23Z" fill="black"/>
<path fill-rule="evenodd" clip-rule="evenodd" d="M7 18C7.55228 18 8 18.4477 8 19V22C8 22.5523 7.55228 23 7 23C6.44772 23 6 22.5523 6 22V19C6 18.4477 6.44772 18 7 18Z" fill="black"/>
<path fill-rule="evenodd" clip-rule="evenodd" d="M11 13C11 12.4477 11.4477 12 12 12H15C15.5523 12 16 12.4477 16 13C16 13.5523 15.5523 14 15 14H12C11.4477 14 11 13.5523 11 13Z" fill="black"/>
<path fill-rule="evenodd" clip-rule="evenodd" d="M11 22C11 21.4477 11.4477 21 12 21H15C15.5523 21 16 21.4477 16 22C16 22.5523 15.5523 23 15 23H12C11.4477 23 11 22.5523 11 22Z" fill="black"/>
<path fill-rule="evenodd" clip-rule="evenodd" d="M11 19C11 18.4477 11.4477 18 12 18H15C15.5523 18 16 18.4477 16 19C16 19.5523 15.5523 20 15 20H12C11.4477 20 11 19.5523 11 19Z" fill="black"/>
<path fill-rule="evenodd" clip-rule="evenodd" d="M11 10C11 9.44772 11.4477 9 12 9L15 9.00001C15.5523 9.00001 16 9.44773 16 10C16 10.5523 15.5523 11 15 11L12 11C11.4477 11 11 10.5523 11 10Z" fill="black"/>
<path fill-rule="evenodd" clip-rule="evenodd" d="M9.44216 4C8.67297 4 8 4.65611 8 5.496V8.83374C8 9.38603 7.55228 9.83374 7 9.83374C6.44772 9.83374 6 9.38603 6 8.83374V5.496C6 3.59289 7.52751 2 9.44216 2H25.5578C27.4725 2 29 3.59289 29 5.496V26.504C29 28.4071 27.4725 30 25.5578 30H9.44216C7.52751 30 6 28.4071 6 26.504V25.9496C6 25.3973 6.44772 24.9496 7 24.9496C7.55228 24.9496 8 25.3973 8 25.9496V26.504C8 27.3439 8.67297 28 9.44216 28H25.5578C26.327 28 27 27.3439 27 26.504V5.496C27 4.65611 26.327 4 25.5578 4H9.44216Z" fill="black"/>
<path fill-rule="evenodd" clip-rule="evenodd" d="M19.0658 9C19.0295 9 19 9.02948 19 9.06584V12.9342C19 12.9705 19.0295 13 19.0658 13H22.9342C22.9705 13 23 12.9705 23 12.9342V9.06584C23 9.02948 22.9705 9 22.9342 9H19.0658ZM17 9.06584C17 7.92491 17.9249 7 19.0658 7H22.9342C24.0751 7 25 7.92491 25 9.06584V12.9342C25 14.0751 24.0751 15 22.9342 15H19.0658C17.9249 15 17 14.0751 17 12.9342V9.06584Z" fill="black"/>
<path fill-rule="evenodd" clip-rule="evenodd" d="M19.0658 19C19.0295 19 19 19.0295 19 19.0658V22.9342C19 22.9705 19.0295 23 19.0658 23H22.9342C22.9705 23 23 22.9705 23 22.9342V19.0658C23 19.0295 22.9705 19 22.9342 19H19.0658ZM17 19.0658C17 17.9249 17.9249 17 19.0658 17H22.9342C24.0751 17 25 17.9249 25 19.0658V22.9342C25 24.0751 24.0751 25 22.9342 25H19.0658C17.9249 25 17 24.0751 17 22.9342V19.0658Z" fill="black"/>
</svg>
