<svg width="32" height="32" viewBox="0 0 32 32" fill="none" xmlns="http://www.w3.org/2000/svg">
<path fill-rule="evenodd" clip-rule="evenodd" d="M16 3.93335C9.33578 3.93335 3.93335 9.33578 3.93335 16C3.93335 22.6643 9.33578 28.0667 16 28.0667C22.6643 28.0667 28.0667 22.6643 28.0667 16C28.0667 9.33578 22.6643 3.93335 16 3.93335ZM1.93335 16C1.93335 8.23121 8.23121 1.93335 16 1.93335C23.7688 1.93335 30.0667 8.23121 30.0667 16C30.0667 23.7688 23.7688 30.0667 16 30.0667C8.23121 30.0667 1.93335 23.7688 1.93335 16Z" fill="black"/>
<path fill-rule="evenodd" clip-rule="evenodd" d="M22.6431 9.35689C22.932 9.64582 23.0161 10.0815 22.8555 10.4572L19.2995 18.7732C19.169 19.0784 18.8955 19.299 18.5695 19.3619C18.2436 19.4248 17.9076 19.3218 17.6729 19.0871L12.9129 14.3271C12.6782 14.0924 12.5752 13.7564 12.6381 13.4305C12.701 13.1045 12.9216 12.831 13.2268 12.7005L21.5428 9.14453C21.9185 8.98388 22.3542 9.06796 22.6431 9.35689ZM15.3725 13.9582L18.0418 16.6276L20.0359 11.9641L15.3725 13.9582Z" fill="black"/>
<path fill-rule="evenodd" clip-rule="evenodd" d="M13.4305 12.6381C13.7564 12.5752 14.0924 12.6782 14.3271 12.9129L19.0871 17.6729C19.3218 17.9076 19.4248 18.2436 19.3619 18.5695C19.299 18.8955 19.0784 19.169 18.7732 19.2995L10.4572 22.8555C10.0815 23.0161 9.64582 22.932 9.35689 22.6431C9.06796 22.3542 8.98388 21.9185 9.14453 21.5428L12.7005 13.2268C12.831 12.9216 13.1045 12.701 13.4305 12.6381ZM13.9582 15.3725L11.9641 20.0359L16.6276 18.0418L13.9582 15.3725Z" fill="black"/>
</svg>
