<svg xmlns="http://www.w3.org/2000/svg" width="32" height="32" fill="currentColor" viewBox="0 0 32 32">
  <path d="M21 12a2.998 2.998 0 0 1 1 5.825V20h2.174A2.998 2.998 0 0 1 30 21a3 3 0 0 1-5.826 1H22v2.174A2.998 2.998 0 0 1 21 30a3 3 0 0 1-1-5.826v-6.349A2.998 2.998 0 0 1 21 12Zm0 14a1 1 0 1 0 0 2 1 1 0 0 0 0-2Zm3.429-24C26.936 2 29 3.998 29 6.503V14a1 1 0 1 1-2 0V6.503C27 5.139 25.868 4 24.429 4H6.57C5.132 4 4 5.14 4 6.503V17.89c0 .682.26 1.178.66 1.52.415.354 1.046.59 1.84.59H8a1 1 0 0 1 1 1v2.864l4.36-3.633A.998.998 0 0 1 14 20h3a1 1 0 1 1 0 2h-2.638l-4.365 3.637a.98.98 0 0 1-.089.066c-.706.467-1.49.307-2.007-.04C7.4 25.322 7 24.716 7 24v-2h-.5c-1.179 0-2.298-.351-3.139-1.068C2.504 20.2 2 19.142 2 17.89V6.503C2 3.998 4.064 2 6.571 2H24.43ZM27 20a1 1 0 1 0 0 2 1 1 0 0 0 0-2Zm-6-6a1 1 0 1 0 0 2 1 1 0 0 0 0-2Z"/>
</svg>
