<svg width="32" height="32" viewBox="0 0 32 32" fill="none" xmlns="http://www.w3.org/2000/svg">
<path fill-rule="evenodd" clip-rule="evenodd" d="M13.4952 8.08886C13.8057 7.91054 14.1879 7.91188 14.4972 8.09237L20.5265 11.611C20.8337 11.7903 21.0225 12.1191 21.0225 12.4747C21.0225 12.8303 20.8337 13.1592 20.5265 13.3384L14.4972 16.8571C14.1879 17.0376 13.8057 17.0389 13.4952 16.8606C13.1846 16.6823 12.9932 16.3515 12.9932 15.9934V8.95605C12.9932 8.59796 13.1846 8.26719 13.4952 8.08886ZM14.9932 10.6975V14.252L18.0385 12.4747L14.9932 10.6975Z" fill="black"/>
<path fill-rule="evenodd" clip-rule="evenodd" d="M2 7.51662C2 5.55016 3.62059 4 5.57214 4H26.4371C28.3818 4 30 5.55249 30 7.51662V21.4834C30 23.4452 28.3935 25 26.4371 25H5.57214C3.62059 25 2 23.4498 2 21.4834V7.51662ZM5.57214 6C4.68226 6 4 6.69715 4 7.51662V21.4834C4 22.3029 4.68226 23 5.57214 23H26.4371C27.3223 23 28 22.3075 28 21.4834V7.51662C28 6.69482 27.3154 6 26.4371 6H5.57214Z" fill="black"/>
<path fill-rule="evenodd" clip-rule="evenodd" d="M16 23.076C16.5523 23.076 17 23.5238 17 24.076V28.4347C17 28.987 16.5523 29.4347 16 29.4347C15.4477 29.4347 15 28.987 15 28.4347V24.076C15 23.5238 15.4477 23.076 16 23.076Z" fill="black"/>
<path fill-rule="evenodd" clip-rule="evenodd" d="M9 29C9 28.4477 9.44772 28 10 28H22C22.5523 28 23 28.4477 23 29C23 29.5523 22.5523 30 22 30H10C9.44772 30 9 29.5523 9 29Z" fill="black"/>
<path fill-rule="evenodd" clip-rule="evenodd" d="M1.93311 20.0067C1.93311 19.4544 2.38082 19.0067 2.93311 19.0067H28.4038C28.9561 19.0067 29.4038 19.4544 29.4038 20.0067C29.4038 20.559 28.9561 21.0067 28.4038 21.0067H2.93311C2.38082 21.0067 1.93311 20.559 1.93311 20.0067Z" fill="black"/>
</svg>
