<svg width="32" height="32" viewBox="0 0 32 32" fill="none" xmlns="http://www.w3.org/2000/svg">
<path fill-rule="evenodd" clip-rule="evenodd" d="M23.5479 4.76482C23.5478 4.76491 23.548 4.76474 23.5479 4.76482L10.9722 17.3438L10.0219 21.1259C10.0218 21.1262 10.0217 21.1266 10.0216 21.127C9.89603 21.6361 10.3628 22.1044 10.8742 21.9784C10.8746 21.9783 10.8749 21.9782 10.8753 21.9781L14.6592 21.0282L27.235 8.45827C28.255 7.43876 28.255 5.78433 27.235 4.76482L27.2327 4.76247C26.2237 3.74723 24.5694 3.74402 23.5479 4.76482ZM28.6501 3.35145C26.8563 1.54782 23.9335 1.5516 22.134 3.35028L9.36246 16.1252C9.23464 16.253 9.14387 16.4132 9.09981 16.5885L8.08147 20.6413L8.08078 20.644C7.59076 22.6181 9.38383 24.4086 11.3567 23.9193L11.3595 23.9186L15.4142 22.9008C15.5896 22.8567 15.7497 22.766 15.8776 22.6381L28.6489 9.87281C30.45 8.07257 30.4504 5.15218 28.6501 3.35145Z" fill="black"/>
<path fill-rule="evenodd" clip-rule="evenodd" d="M2 7.12263C2 4.84293 3.84293 3 6.12263 3H13.9434C14.4957 3 14.9434 3.44772 14.9434 4C14.9434 4.55228 14.4957 5 13.9434 5H6.12263C4.9475 5 4 5.9475 4 7.12263V25.8774C4 27.0525 4.9475 28 6.12263 28H24.8774C26.0525 28 27 27.0525 27 25.8774V18.0566C27 17.5043 27.4477 17.0566 28 17.0566C28.5523 17.0566 29 17.5043 29 18.0566V25.8774C29 28.1571 27.1571 30 24.8774 30H6.12263C3.84293 30 2 28.1571 2 25.8774V7.12263Z" fill="black"/>
</svg>
