<svg width="32" height="32" viewBox="0 0 32 32" fill="none" xmlns="http://www.w3.org/2000/svg">
<path d="M7.24664 5H6.75336C6.33729 5 6 5.30953 6 5.69136V6.30864C6 6.69047 6.33729 7 6.75336 7H7.24664C7.66271 7 8 6.69047 8 6.30864V5.69136C8 5.30953 7.66271 5 7.24664 5Z" fill="black"/>
<path d="M10.2466 5H9.75336C9.33729 5 9 5.30953 9 5.69136V6.30864C9 6.69047 9.33729 7 9.75336 7H10.2466C10.6627 7 11 6.69047 11 6.30864V5.69136C11 5.30953 10.6627 5 10.2466 5Z" fill="black"/>
<path d="M13.2466 5H12.7534C12.3373 5 12 5.30953 12 5.69136V6.30864C12 6.69047 12.3373 7 12.7534 7H13.2466C13.6627 7 14 6.69047 14 6.30864V5.69136C14 5.30953 13.6627 5 13.2466 5Z" fill="black"/>
<path fill-rule="evenodd" clip-rule="evenodd" d="M1.93335 7.86938H30.0667V26.1081C30.0667 28.2106 28.4852 30.0667 26.3507 30.0667H5.64935C3.51481 30.0667 1.93335 28.2106 1.93335 26.1081V7.86938ZM3.93335 9.86938V26.1081C3.93335 27.2722 4.77856 28.0667 5.64935 28.0667H26.3507C27.2215 28.0667 28.0667 27.2722 28.0667 26.1081V9.86938H3.93335Z" fill="black"/>
<path fill-rule="evenodd" clip-rule="evenodd" d="M1.93335 5.89202C1.93335 3.7895 3.51481 1.93335 5.64935 1.93335H26.3507C28.4852 1.93335 30.0667 3.7895 30.0667 5.89202V9.86935H1.93335V5.89202ZM5.64935 3.93335C4.77856 3.93335 3.93335 4.72786 3.93335 5.89202V7.86935H28.0667V5.89202C28.0667 4.72786 27.2215 3.93335 26.3507 3.93335H5.64935Z" fill="black"/>
<path fill-rule="evenodd" clip-rule="evenodd" d="M12 22C14.2091 22 16 20.2091 16 18C16 15.7909 14.2091 14 12 14C9.79086 14 8 15.7909 8 18C8 20.2091 9.79086 22 12 22ZM12 24C15.3137 24 18 21.3137 18 18C18 14.6863 15.3137 12 12 12C8.68629 12 6 14.6863 6 18C6 21.3137 8.68629 24 12 24Z" fill="black"/>
<path fill-rule="evenodd" clip-rule="evenodd" d="M12 13C12.5523 13 13 13.4477 13 14V17H16C16.5523 17 17 17.4477 17 18C17 18.5523 16.5523 19 16 19H13C11.8954 19 11 18.1046 11 17V14C11 13.4477 11.4477 13 12 13Z" fill="black"/>
<path fill-rule="evenodd" clip-rule="evenodd" d="M20 20C20 19.4477 20.4477 19 21 19H25C25.5523 19 26 19.4477 26 20C26 20.5523 25.5523 21 25 21H21C20.4477 21 20 20.5523 20 20Z" fill="black"/>
<path fill-rule="evenodd" clip-rule="evenodd" d="M20 16C20 15.4477 20.4477 15 21 15H25C25.5523 15 26 15.4477 26 16C26 16.5523 25.5523 17 25 17H21C20.4477 17 20 16.5523 20 16Z" fill="black"/>
</svg>
