<svg width="32" height="32" viewBox="0 0 32 32" fill="none" xmlns="http://www.w3.org/2000/svg">
<path fill-rule="evenodd" clip-rule="evenodd" d="M22.2933 4.93618C22.2933 4.93625 22.2934 4.93611 22.2933 4.93618L7.16977 19.4328L6.05676 23.6896C6.05127 23.7344 6.0427 23.7791 6.031 23.8234C5.86683 24.4448 6.46268 25.1705 7.30316 24.9667L7.30546 24.9661L11.9085 23.8617L27.0409 9.36533C28.3179 8.14202 28.3215 6.17166 27.041 4.93623C25.7271 3.6864 23.5947 3.68979 22.2933 4.93618ZM4.05949 23.4726C4.06455 23.4198 4.07384 23.3671 4.08746 23.315L5.3063 18.6534C5.35304 18.4747 5.4484 18.3123 5.58179 18.1845L20.9096 3.49215C22.9872 1.50191 26.3383 1.50434 28.4225 3.49006L28.4264 3.49381C30.5234 5.51364 30.5263 8.79608 28.4245 10.8096L13.0967 25.4931C12.9687 25.6156 12.8105 25.702 12.6382 25.7433L7.7744 26.9104C7.77389 26.9105 7.77338 26.9106 7.77287 26.9108C5.67352 27.4186 3.60561 25.6446 4.05949 23.4726Z" fill="black"/>
<path fill-rule="evenodd" clip-rule="evenodd" d="M2 29C2 28.4477 2.44772 28 3 28H29C29.5523 28 30 28.4477 30 29C30 29.5523 29.5523 30 29 30H3C2.44772 30 2 29.5523 2 29Z" fill="black"/>
</svg>
