<svg width="32" height="32" viewBox="0 0 32 32" fill="none" xmlns="http://www.w3.org/2000/svg">
<path fill-rule="evenodd" clip-rule="evenodd" d="M16 6C11.1828 6 6.82897 7.8148 3.67975 10.7334C3.27468 11.1089 2.64197 11.0848 2.26656 10.6797C1.89114 10.2747 1.91519 9.64197 2.32026 9.26655C5.83818 6.0062 10.6772 4 16 4C21.3228 4 26.1618 6.0062 29.6798 9.26655C30.0848 9.64197 30.1089 10.2747 29.7334 10.6797C29.358 11.0848 28.7253 11.1089 28.3203 10.7334C25.171 7.8148 20.8172 6 16 6Z" fill="black"/>
<path fill-rule="evenodd" clip-rule="evenodd" d="M16 12C12.7859 12 9.86197 13.3965 7.73147 15.6819C7.35488 16.0859 6.7221 16.1081 6.31812 15.7315C5.91415 15.3549 5.89195 14.7221 6.26854 14.3181C8.74541 11.6611 12.1859 10 16 10C19.8141 10 23.2546 11.6611 25.7315 14.3181C26.1081 14.7221 26.0859 15.3549 25.6819 15.7315C25.2779 16.1081 24.6451 16.0859 24.2685 15.6819C22.138 13.3965 19.2141 12 16 12Z" fill="black"/>
<path fill-rule="evenodd" clip-rule="evenodd" d="M16 18C14.3114 18 12.7915 18.6598 11.6948 19.7192C11.2976 20.1029 10.6645 20.092 10.2808 19.6948C9.89707 19.2976 9.908 18.6645 10.3052 18.2808C11.7671 16.8685 13.7823 16 16 16C18.2177 16 20.2329 16.8685 21.6948 18.2808C22.092 18.6645 22.1029 19.2976 21.7192 19.6948C21.3355 20.092 20.7024 20.1029 20.3052 19.7192C19.2085 18.6598 17.6886 18 16 18Z" fill="black"/>
<path fill-rule="evenodd" clip-rule="evenodd" d="M16 22C15.7319 22 15.4844 22.1083 15.2963 22.2963L15.2882 22.3044L15.2881 22.3044C15.111 22.4775 15 22.7194 15 23C15 23.5514 15.4486 24 16 24C16.5514 24 17 23.5514 17 23C17 22.7319 16.8917 22.4844 16.7037 22.2963L16.6956 22.2882L16.6956 22.2881C16.5241 22.1126 16.2745 22 16 22ZM13.8862 20.8781C14.4281 20.3382 15.1747 20 16 20C16.8189 20 17.58 20.3338 18.1219 20.8862C18.6618 21.4281 19 22.1747 19 23C19 24.656 17.656 26 16 26C14.344 26 13 24.656 13 23C13 22.1706 13.3354 21.4184 13.8862 20.8781Z" fill="black"/>
</svg>
