<svg width="32" height="32" viewBox="0 0 32 32" fill="none" xmlns="http://www.w3.org/2000/svg">
<path fill-rule="evenodd" clip-rule="evenodd" d="M16 3.93335C9.33578 3.93335 3.93335 9.33578 3.93335 16C3.93335 22.6643 9.33578 28.0667 16 28.0667C22.6643 28.0667 28.0667 22.6643 28.0667 16C28.0667 9.33578 22.6643 3.93335 16 3.93335ZM1.93335 16C1.93335 8.23121 8.23121 1.93335 16 1.93335C23.7688 1.93335 30.0667 8.23121 30.0667 16C30.0667 23.7688 23.7688 30.0667 16 30.0667C8.23121 30.0667 1.93335 23.7688 1.93335 16Z" fill="black"/>
<path fill-rule="evenodd" clip-rule="evenodd" d="M11.5 10C10.6716 10 10 10.6716 10 11.5C10 12.3284 10.6716 13 11.5 13C12.3284 13 13 12.3284 13 11.5C13 10.6716 12.3284 10 11.5 10ZM8 11.5C8 9.567 9.567 8 11.5 8C13.433 8 15 9.567 15 11.5C15 13.433 13.433 15 11.5 15C9.567 15 8 13.433 8 11.5Z" fill="black"/>
<path fill-rule="evenodd" clip-rule="evenodd" d="M20.5 19C19.6716 19 19 19.6716 19 20.5C19 21.3284 19.6716 22 20.5 22C21.3284 22 22 21.3284 22 20.5C22 19.6716 21.3284 19 20.5 19ZM17 20.5C17 18.567 18.567 17 20.5 17C22.433 17 24 18.567 24 20.5C24 22.433 22.433 24 20.5 24C18.567 24 17 22.433 17 20.5Z" fill="black"/>
<path fill-rule="evenodd" clip-rule="evenodd" d="M22.7071 9.29289C23.0976 9.68342 23.0976 10.3166 22.7071 10.7071L10.7071 22.7071C10.3166 23.0976 9.68342 23.0976 9.29289 22.7071C8.90237 22.3166 8.90237 21.6834 9.29289 21.2929L21.2929 9.29289C21.6834 8.90237 22.3166 8.90237 22.7071 9.29289Z" fill="black"/>
</svg>
