<svg width="32" height="32" viewBox="0 0 32 32" fill="none" xmlns="http://www.w3.org/2000/svg">
<path fill-rule="evenodd" clip-rule="evenodd" d="M12.5926 3.72276C12.5926 2.77606 13.367 2 14.3148 2H15C15.5523 2 16 2.44772 16 3C16 3.55228 15.5523 4 15 4H14.5926V6.18013C14.5926 6.63977 14.2793 7.04022 13.8331 7.15078C12.9179 7.37756 12.0599 7.73395 11.2832 8.20893C10.8889 8.45005 10.3808 8.38958 10.0541 8.06266L8.51778 6.52519L6.53221 8.51223L8.06959 10.0508C8.3959 10.3773 8.45627 10.8848 8.21568 11.2788C7.74099 12.0561 7.3848 12.9149 7.15813 13.831C7.0477 14.2773 6.64718 14.5908 6.18741 14.5908H4V17.4092H6.17778C6.63755 17.4092 7.03807 17.7227 7.1485 18.169C7.37517 19.0851 7.73136 19.9439 8.20605 20.7212C8.44664 21.1152 8.38627 21.6227 8.05996 21.9492L6.52258 23.4878L8.50815 25.4748L10.0445 23.9373C10.3712 23.6104 10.8793 23.5499 11.2736 23.7911C12.0503 24.2661 12.9083 24.6224 13.8235 24.8492C14.2696 24.9598 14.583 25.3602 14.583 25.8199V28H15C15.5523 28 16 28.4477 16 29C16 29.5523 15.5523 30 15 30H14.3052C13.3574 30 12.583 29.2239 12.583 28.2772V26.5743C12.0095 26.3893 11.4548 26.1598 10.9238 25.8869L9.72589 27.0856C9.05604 27.756 7.96025 27.756 7.29041 27.0856L4.91189 24.7054C4.24246 24.0354 4.24246 22.9401 4.91189 22.2702L6.11051 21.0707C5.83756 20.539 5.60798 19.9835 5.42303 19.4092H3.72222C2.77442 19.4092 2 18.6331 2 17.6864V14.3136C2 13.3669 2.77442 12.5908 3.72222 12.5908H5.43266C5.61761 12.0165 5.84719 11.461 6.12014 10.9293L4.92152 9.72983C4.25209 9.05989 4.25209 7.96457 4.92152 7.29464L7.30004 4.91436C7.96988 4.24402 9.06567 4.24402 9.73552 4.91436L10.9334 6.11314C11.4644 5.84024 12.0191 5.61068 12.5926 5.4257V3.72276Z" fill="black"/>
<path fill-rule="evenodd" clip-rule="evenodd" d="M21 9C21 8.44772 21.4477 8 22 8H24C24.5523 8 25 8.44772 25 9C25 9.55228 24.5523 10 24 10H23V13C23 13.5523 22.5523 14 22 14H15C14.4477 14 14 13.5523 14 13C14 12.4477 14.4477 12 15 12H21V9Z" fill="black"/>
<path fill-rule="evenodd" clip-rule="evenodd" d="M19 7C19.5523 7 20 7.44772 20 8V10C20 10.5523 19.5523 11 19 11H15C13.094 11 11.8794 11.8275 11.1125 12.85C10.3137 13.915 10 15.201 10 16C10 16.869 10.2232 18.1466 10.9442 19.1765C11.6248 20.1487 12.8133 21 15 21H19C19.5523 21 20 21.4477 20 22V24C20 24.5523 19.5523 25 19 25C18.4477 25 18 24.5523 18 24V23H15C12.1867 23 10.3752 21.8513 9.30577 20.3235C8.27675 18.8534 8 17.131 8 16C8 14.799 8.43626 13.085 9.5125 11.65C10.6206 10.1725 12.406 9 15 9H18V8C18 7.44772 18.4477 7 19 7Z" fill="black"/>
<path fill-rule="evenodd" clip-rule="evenodd" d="M11.8201 13.4998C12.5192 12.6069 13.6692 12 15.36 12C15.9123 12 16.36 12.4477 16.36 13C16.36 13.5523 15.9123 14 15.36 14C14.1908 14 13.6608 14.3931 13.3949 14.7327C13.092 15.1197 13 15.6097 13 15.9302C13 16.2553 13.0942 16.7911 13.411 17.2186C13.6876 17.5919 14.2166 18 15.36 18H22C22.5523 18 23 18.4477 23 19V22H25C25.5523 22 26 22.4477 26 23C26 23.5523 25.5523 24 25 24H22C21.4477 24 21 23.5523 21 23V20H15.36C13.6434 20 12.4924 19.3383 11.804 18.4093C11.1558 17.5345 11 16.5354 11 15.9302C11 15.3205 11.158 14.3455 11.8201 13.4998Z" fill="black"/>
<path fill-rule="evenodd" clip-rule="evenodd" d="M14 16C14 15.4477 14.4477 15 15 15H24.5C25.0523 15 25.5 15.4477 25.5 16C25.5 16.5523 25.0523 17 24.5 17H15C14.4477 17 14 16.5523 14 16Z" fill="black"/>
<path fill-rule="evenodd" clip-rule="evenodd" d="M19 4C18.4477 4 18 4.44772 18 5C18 5.55228 18.4477 6 19 6C19.5523 6 20 5.55228 20 5C20 4.44772 19.5523 4 19 4ZM16 5C16 3.34315 17.3431 2 19 2C20.6569 2 22 3.34315 22 5C22 6.65685 20.6569 8 19 8C17.3431 8 16 6.65685 16 5Z" fill="black"/>
<path fill-rule="evenodd" clip-rule="evenodd" d="M27 8C26.4477 8 26 8.44772 26 9C26 9.55228 26.4477 10 27 10C27.5523 10 28 9.55228 28 9C28 8.44772 27.5523 8 27 8ZM24 9C24 7.34315 25.3431 6 27 6C28.6569 6 30 7.34315 30 9C30 10.6569 28.6569 12 27 12C25.3431 12 24 10.6569 24 9Z" fill="black"/>
<path fill-rule="evenodd" clip-rule="evenodd" d="M27 15C26.4477 15 26 15.4477 26 16C26 16.5523 26.4477 17 27 17C27.5523 17 28 16.5523 28 16C28 15.4477 27.5523 15 27 15ZM24 16C24 14.3431 25.3431 13 27 13C28.6569 13 30 14.3431 30 16C30 17.6569 28.6569 19 27 19C25.3431 19 24 17.6569 24 16Z" fill="black"/>
<path fill-rule="evenodd" clip-rule="evenodd" d="M19 26C18.4477 26 18 26.4477 18 27C18 27.5523 18.4477 28 19 28C19.5523 28 20 27.5523 20 27C20 26.4477 19.5523 26 19 26ZM16 27C16 25.3431 17.3431 24 19 24C20.6569 24 22 25.3431 22 27C22 28.6569 20.6569 30 19 30C17.3431 30 16 28.6569 16 27Z" fill="black"/>
<path fill-rule="evenodd" clip-rule="evenodd" d="M27 22C26.4477 22 26 22.4477 26 23C26 23.5523 26.4477 24 27 24C27.5523 24 28 23.5523 28 23C28 22.4477 27.5523 22 27 22ZM24 23C24 21.3431 25.3431 20 27 20C28.6569 20 30 21.3431 30 23C30 24.6569 28.6569 26 27 26C25.3431 26 24 24.6569 24 23Z" fill="black"/>
</svg>
