<svg xmlns="http://www.w3.org/2000/svg" width="32" height="32" fill="none" viewBox="0 0 32 32">
  <path fill="#3D3C3C" fill-rule="evenodd" d="M4 24V5h3.416c.225 0 .457.095.626.266l1.732 1.75c.54.544 1.28.858 2.048.858H28V15a1 1 0 1 0 2 0V7.826a1.951 1.951 0 0 0-1.942-1.952H11.822a.894.894 0 0 1-.626-.266L9.464 3.86A2.894 2.894 0 0 0 7.416 3H3.942A1.951 1.951 0 0 0 2 4.951V24.05C2 25.113 2.864 26 3.942 26H13a1 1 0 1 0 0-2H4Zm17.664-5.747a1 1 0 0 1 .083 1.411L18.338 23.5l3.41 3.836a1 1 0 0 1-1.495 1.328l-4-4.5a1 1 0 0 1 0-1.328l4-4.5a1 1 0 0 1 1.411-.083Zm2.672 0a1 1 0 0 1 1.411.083l4 4.5a1 1 0 0 1 0 1.328l-4 4.5a1 1 0 0 1-1.494-1.328l3.41-3.836-3.41-3.836a1 1 0 0 1 .083-1.411Z" clip-rule="evenodd"/>
</svg>
