<svg xmlns="http://www.w3.org/2000/svg" width="32" height="32" fill="currentColor" viewBox="0 0 32 32">
  <path d="M27 18a1 1 0 1 1 0 2H17v6.586l2.293-2.293a1 1 0 1 1 1.414 1.414l-4 4a1.003 1.003 0 0 1-.462.26l-.027.008a.961.961 0 0 1-.057.01c-.012.002-.023.005-.035.006a1.015 1.015 0 0 1-.106.008L16 30l-.02-.001c-.017 0-.032-.002-.048-.003a.956.956 0 0 1-.107-.013l-.033-.006c-.017-.003-.033-.008-.05-.012a.981.981 0 0 1-.449-.258l-4-4-.068-.076a1 1 0 0 1 1.406-1.406l.076.068L15 26.586V20H5a1 1 0 1 1 0-2h22ZM16.02 2.001a.994.994 0 0 1 .154.015l.033.005.05.013a.992.992 0 0 1 .45.259l4 4 .068.076a1 1 0 0 1-1.406 1.406l-.076-.068L17 5.414V12h10a1 1 0 1 1 0 2H5a1 1 0 1 1 0-2h10V5.414l-2.293 2.293a1 1 0 1 1-1.414-1.414l4-4a.998.998 0 0 1 .147-.121l.022-.015a.991.991 0 0 1 .292-.126l.027-.007a.995.995 0 0 1 .057-.01c.012-.002.023-.005.035-.006l.053-.005.053-.002L16 2l.02.001Z"/>
</svg>
