<svg xmlns="http://www.w3.org/2000/svg" width="32" height="32" fill="currentColor" viewBox="0 0 32 32">
  <path d="M17.85 28c-.15 0-.29 0-.44-.02-1.49-.14-2.55-1.06-2.84-2.47-.61-3.04 1.78-5.96 3.26-7.43 1.24-1.24 2.76-2.23 4.43-2.92-.11-.68-.28-1.23-.5-1.6-.18-.28-.37-.53-.57-.75-.79-.85-1.71-1.23-2.7-1.12-1.45.15-3.05 1.32-4.06 2.98-.68 1.11-1.17 2.31-1.68 3.59-.25.61-.5 1.23-.77 1.83-.72 1.6-1.66 3.7-3.56 4.54-1.34.59-2.9.37-3.87-.54-.56-.52-.93-1.25-1.08-2.12-.65-3.69 1.9-6.43 4.15-8.85.6-.64 1.16-1.25 1.64-1.84l.2-.25c.7-.86 1.36-1.67 1.46-2.64.08-.75-.25-1.27-.54-1.57-.54-.56-1.38-.87-2.21-.81-2.1.15-3.62 2.03-4.34 3.14-.3.46-.92.6-1.38.3-.46-.3-.6-.92-.3-1.38.93-1.43 2.92-3.85 5.89-4.06 1.42-.1 2.84.43 3.79 1.42.83.86 1.22 1.99 1.09 3.17-.17 1.55-1.08 2.68-1.89 3.68l-.2.24c-.52.65-1.11 1.28-1.74 1.95-2.03 2.18-4.13 4.43-3.65 7.13.08.43.25.79.48 1.01.39.36 1.1.43 1.7.17 1.19-.53 1.92-2.15 2.5-3.45.3-.66.54-1.25.78-1.84.52-1.29 1.07-2.63 1.83-3.87 1.34-2.21 3.47-3.71 5.56-3.93 1.63-.17 3.13.43 4.36 1.73.29.31.56.66.81 1.06.33.53.57 1.22.72 2.01.45-.12.9-.21 1.36-.29 1.14-.18 2.33-.24 3.52-.16a1 1 0 0 1 .93 1.07c-.04.55-.52.99-1.07.93-1.04-.07-2.08-.03-3.07.13-.5.08-.99.19-1.47.33.08 2.88-.66 6.33-2.04 8.58-1.17 1.9-2.72 2.9-4.5 2.9l.01.02Zm4.54-10.72c-1.18.57-2.25 1.31-3.14 2.21-.96.96-3.15 3.42-2.71 5.62.07.34.25.8 1.06.88 1.19.12 2.21-.54 3.06-1.93 1.17-1.89 1.69-4.55 1.74-6.77l-.01-.01Z"/>
</svg>
