<svg xmlns="http://www.w3.org/2000/svg" width="32" height="32" fill="currentColor" viewBox="0 0 32 32">
  <path d="M17.774 28c-.15 0-.31 0-.46-.02-1.689-.149-2.888-1.191-3.208-2.79-.64-3.148 1.789-6.107 3.289-7.586a13.639 13.639 0 0 1 4.038-2.731 3.17 3.17 0 0 0-.33-.923 3.978 3.978 0 0 0-.48-.626c-.65-.685-1.36-.983-2.149-.904-1.22.13-2.619 1.172-3.499 2.592-.63 1.023-1.09 2.155-1.58 3.356a37.884 37.884 0 0 1-.749 1.768c-.73 1.618-1.68 3.723-3.698 4.607-1.48.646-3.21.397-4.309-.616-.62-.575-1.04-1.38-1.2-2.323-.68-3.783 1.99-6.623 4.129-8.907.57-.606 1.11-1.182 1.55-1.728l.19-.238c.65-.794 1.209-1.48 1.289-2.244a1.3 1.3 0 0 0-.37-1.073c-.4-.417-1.06-.645-1.7-.615-1.789.119-3.118 1.777-3.758 2.76-.45.695-1.38.884-2.07.447-.709-.467-.909-1.39-.46-2.085C3.86 5.628 6.02 4.169 8.309 4.01c1.52-.11 3.049.457 4.068 1.52.91.942 1.34 2.164 1.2 3.455-.18 1.638-1.11 2.79-1.94 3.803l-.18.228c-.51.636-1.109 1.271-1.689 1.897-1.86 1.986-3.788 4.041-3.379 6.355.05.298.16.536.3.665.22.199.67.228 1.05.07.96-.418 1.61-1.867 2.14-3.02.28-.625.509-1.18.739-1.737.51-1.251 1.04-2.552 1.8-3.783 1.379-2.244 3.578-3.783 5.747-4.012 1.75-.188 3.339.447 4.639 1.827.31.328.59.695.84 1.093.27.427.48.953.629 1.559.28-.06.55-.11.83-.16a15.335 15.335 0 0 1 3.508-.148c.83.06 1.45.764 1.39 1.589-.06.824-.78 1.46-1.6 1.38-.96-.06-1.909-.02-2.828.119-.33.05-.66.12-.98.199 0 2.78-.72 5.957-2.03 8.063-1.219 1.965-2.908 3.018-4.798 3.018l.01.01Zm3.769-9.85c-.75.437-1.44.963-2.04 1.559-.869.854-2.838 3.038-2.458 4.885.04.179.08.367.54.407.34.03 1.369.12 2.439-1.598.88-1.42 1.37-3.426 1.529-5.263l-.01.01Z"/>
</svg>
