<svg xmlns="http://www.w3.org/2000/svg" width="32" height="32" fill="currentColor" viewBox="0 0 32 32">
  <path fill-rule="evenodd" d="M25 2a1 1 0 0 1 1 1v4a1 1 0 0 1-1 1h-4a1 1 0 1 1 0-2h3V3a1 1 0 0 1 1-1ZM6 25a1 1 0 0 1 1-1h4a1 1 0 1 1 0 2H8v3a1 1 0 1 1-2 0v-4Z" clip-rule="evenodd"/>
  <path fill-rule="evenodd" d="M16 4C9.37 4 4 9.37 4 16c0 2.19.588 4.235 1.608 6a1 1 0 0 1-1.732 1A13.938 13.938 0 0 1 2 16C2 8.265 8.265 2 16 2c3.816 0 7.142 1.228 9.707 3.793a1 1 0 0 1-1.414 1.414C22.153 5.067 19.36 4 16 4Zm10.757 4.634A1 1 0 0 1 28.124 9 13.937 13.937 0 0 1 30 16c0 7.735-6.265 14-14 14-3.816 0-7.142-1.228-9.707-3.793a1 1 0 1 1 1.414-1.414C9.848 26.933 12.64 28 16 28c6.63 0 12-5.37 12-12 0-2.19-.588-4.235-1.608-6a1 1 0 0 1 .365-1.366Z" clip-rule="evenodd"/>
  <path fill-rule="evenodd" d="M19 13h-6v6h6v-6Zm-6-2a2 2 0 0 0-2 2v6a2 2 0 0 0 2 2h6a2 2 0 0 0 2-2v-6a2 2 0 0 0-2-2h-6Z" clip-rule="evenodd"/>
</svg>
