<svg xmlns="http://www.w3.org/2000/svg" width="32" height="32" fill="currentColor" viewBox="0 0 32 32">
  <path fill-rule="evenodd" d="M4 16C4 9.37 9.37 4 16 4c2.654 0 4.954.665 6.858 2H21a1 1 0 1 0 0 2h4a1 1 0 0 0 1-1V3a1 1 0 1 0-2 0v1.358C21.73 2.768 19.018 2 16 2 8.265 2 2 8.265 2 16c0 2.554.686 4.943 1.876 7a1 1 0 1 0 1.732-1A11.937 11.937 0 0 1 4 16Zm2 9a1 1 0 0 1 1-1h4a1 1 0 1 1 0 2H9.142c1.904 1.335 4.204 2 6.858 2 6.63 0 12-5.37 12-12 0-2.19-.588-4.235-1.608-6a1 1 0 1 1 1.732-1A13.937 13.937 0 0 1 30 16c0 7.735-6.265 14-14 14-3.018 0-5.73-.768-8-2.358V29a1 1 0 1 1-2 0v-4Zm5-12a2 2 0 0 1 2-2h6a2 2 0 0 1 2 2v6a2 2 0 0 1-2 2h-6a2 2 0 0 1-2-2v-6Zm2 0h6v6h-6v-6Z" clip-rule="evenodd"/>
</svg>
