<svg xmlns="http://www.w3.org/2000/svg" width="32" height="32" fill="currentColor" viewBox="0 0 32 32">
  <path d="M16 20a1 1 0 0 1 .8.4l2.699 3.6H25a1 1 0 1 1 0 2h-6a1 1 0 0 1-.8-.4L16 22.666 13.8 25.6a1 1 0 0 1-.8.4H7a1 1 0 1 1 0-2h5.501l2.7-3.6.074-.09A1 1 0 0 1 16 20Zm0-8c4.414 0 8 3.581 8 8.001 0 .393-.032.78-.085 1.143a1 1 0 0 1-1.979-.288c.04-.279.064-.57.064-.855A6.003 6.003 0 0 0 16 14c-3.31 0-6 2.686-6 6.001 0 .284.023.566.065.86a1 1 0 0 1-1.981.279A8.133 8.133 0 0 1 8 20a8.003 8.003 0 0 1 8-8ZM5 19a1 1 0 1 1 0 2H3a1 1 0 1 1 0-2h2Zm24 0a1 1 0 1 1 0 2h-2a1 1 0 1 1 0-2h2ZM6.293 10.293a1 1 0 0 1 1.414 0l1 1a1 1 0 1 1-1.414 1.414l-1-1a1 1 0 0 1 0-1.414Zm18 0a1 1 0 1 1 1.414 1.414l-1 1a1 1 0 1 1-1.414-1.414l1-1ZM16 6a1 1 0 0 1 1 1v2a1 1 0 1 1-2 0V7a1 1 0 0 1 1-1Z"/>
</svg>
