<svg xmlns="http://www.w3.org/2000/svg" width="32" height="32" fill="currentColor" viewBox="0 0 32 32">
  <path fill-rule="evenodd" d="M15.497 26h.002-.002ZM16 26h4v2h-3.999v-2Zm4.503 0h-.002.002Zm-5.861-1.765c.29-.188.603-.235.858-.235h5c.255 0 .569.047.859.235.308.2.471.483.551.73.073.224.086.44.09.579a6 6 0 0 1 0 .3V28.5c0 .273-.06.593-.267.88-.21.29-.487.439-.716.514a2.238 2.238 0 0 1-.582.1c-.134.006-.279.006-.396.006h-4.078c-.117 0-.262 0-.396-.007a2.238 2.238 0 0 1-.582-.099 1.412 1.412 0 0 1-.715-.513A1.488 1.488 0 0 1 14 28.5v-2.656a6 6 0 0 1 0-.3 2.06 2.06 0 0 1 .09-.579c.08-.247.243-.53.552-.73ZM6 16c-.965 0-2 .968-2 2.5S5.035 21 6 21h2v-5H6Zm-4 2.5C2 16.163 3.654 14 6 14h4v9H6c-2.346 0-4-2.163-4-4.5ZM22 14h4c2.346 0 4 2.163 4 4.5S28.346 23 26 23h-4v-9Zm2 2v5h2c.965 0 2-.968 2-2.5S26.965 16 26 16h-2Z" clip-rule="evenodd"/>
  <path fill-rule="evenodd" d="M16 4c-4.296 0-8 4.025-8 9.286V15H6v-1.714C6 7.178 10.357 2 16 2c5.642 0 10 5.178 10 11.286V15h-2v-1.714C24 8.025 20.296 4 16 4Zm-2.998 24C10.038 28 8 25.096 8 22h2c0 2.43 1.537 4 3.002 4H15v2h-1.998Z" clip-rule="evenodd"/>
</svg>
