<svg xmlns="http://www.w3.org/2000/svg" width="32" height="32" fill="currentColor" viewBox="0 0 32 32">
  <path d="M16 24a3 3 0 1 1 0 6 3 3 0 0 1 0-6Zm0 2a1 1 0 1 0 0 2 1 1 0 0 0 0-2ZM6 19a3 3 0 1 1 0 6 3 3 0 0 1 0-6Zm20 0a3 3 0 1 1 0 6 3 3 0 0 1 0-6ZM19.004 8.99a2.03 2.03 0 0 1 1.662.871l.071.11 2.987 4.988.002.003.067.121c.31.615.288 1.352-.067 1.95l-.001.002-2.979 4.988a2.02 2.02 0 0 1-1.737.987H12.99c-.717 0-1.37-.382-1.733-.98l-.004-.007-2.979-4.988v-.002a2.03 2.03 0 0 1 0-2.071v-.002l2.974-4.982.072-.114a2.02 2.02 0 0 1 1.665-.874h6.018ZM6 21a1 1 0 1 0 0 2 1 1 0 0 0 0-2Zm20 0a1 1 0 1 0 0 2 1 1 0 0 0 0-2Zm-13.017-9.987-2.973 4.982V16l2.974 4.982a.027.027 0 0 0 .01.01h6.016l.002-.004L21.99 16v-.006l-2.98-4.974-.008-.01h-6.017l-.002.004ZM6 7a3 3 0 1 1 0 6 3 3 0 0 1 0-6Zm20 0a3 3 0 1 1 0 6 3 3 0 0 1 0-6ZM6 9a1 1 0 1 0 0 2 1 1 0 0 0 0-2Zm20 0a1 1 0 1 0 0 2 1 1 0 0 0 0-2ZM16 2a3 3 0 1 1 0 6 3 3 0 0 1 0-6Zm0 2a1 1 0 1 0 0 2 1 1 0 0 0 0-2Z"/>
</svg>
