<svg xmlns="http://www.w3.org/2000/svg" width="32" height="32" fill="currentColor" viewBox="0 0 32 32">
  <path fill-rule="evenodd" d="M8 2a5 5 0 0 0-5 5v16a5 5 0 0 0 5 5h2.222a1 1 0 1 0 0-2H8a3 3 0 0 1-3-3v-3h7a1 1 0 1 0 0-2H5v-6h14a1 1 0 1 0 2 0V7a5 5 0 0 0-5-5H8Zm11 8V7a3 3 0 0 0-3-3H8a3 3 0 0 0-3 3v3h14ZM8 7a1 1 0 1 0 0 2 1 1 0 0 0 0-2Zm-1 8a1 1 0 1 1 2 0 1 1 0 0 1-2 0Zm1 7a1 1 0 1 0 0 2 1 1 0 0 0 0-2Zm13.7-5.983-7.504 7.5 4.282 4.287 7.505-7.505-.7-3.582-3.582-.7Zm.333-1.973a1.788 1.788 0 0 0-1.659.472l-7.941 7.936-.01.01c-.61.626-.527 1.582.034 2.144l4.931 4.936.009.009c.554.54 1.513.649 2.146.016l7.941-7.94a1.788 1.788 0 0 0 .471-1.66l-.737-3.775a1.849 1.849 0 0 0-1.41-1.41l-3.775-.737ZM22.5 18a1.5 1.5 0 1 0 0 3 1.5 1.5 0 0 0 0-3Z" clip-rule="evenodd"/>
</svg>
