<svg xmlns="http://www.w3.org/2000/svg" width="32" height="32" fill="currentColor" viewBox="0 0 32 32">
  <path fill-rule="evenodd" d="M10.3 25.993c-.31 0-.63-.09-.9-.25l-2.85-1.72c-.81-.49-1.1-1.569-.63-2.418l.92-1.67a10 10 0 0 1-1.33-2.42H3.75c-.97 0-1.75-.8-1.75-1.789v-3.449c0-.99.79-1.79 1.75-1.79h1.76c.33-.88.78-1.689 1.33-2.419l-.92-1.67a1.821 1.821 0 0 1 .63-2.409l2.86-1.74a1.71 1.71 0 0 1 1.34-.189c.46.12.84.43 1.08.85l.89 1.62a9.15 9.15 0 0 1 2.56 0l.89-1.62c.22-.42.62-.73 1.08-.86.45-.12.95-.05 1.34.19l2.85 1.72c.81.49 1.1 1.569.63 2.419l-.92 1.67c.55.73 1 1.549 1.33 2.419h1.76c1.67 0 1.75 1.27 1.75 1.52a1.003 1.003 0 0 1-1.88.48h-1.82c-.74 0-1.4-.47-1.64-1.17-.28-.76-.67-1.48-1.17-2.13-.43-.56-.49-1.35-.15-1.98l.89-1.619-2.44-1.48-.85 1.54c-.36.66-1.09 1.02-1.81.89a7.1 7.1 0 0 0-2.3 0 1.74 1.74 0 0 1-1.8-.89l-.85-1.54-2.44 1.48.89 1.62c.35.63.29 1.4-.14 1.969-.5.64-.9 1.36-1.18 2.15-.25.69-.91 1.16-1.63 1.16h-1.7v3.038h1.7c.74 0 1.4.47 1.64 1.17.28.76.67 1.48 1.17 2.13.43.55.49 1.349.15 1.979l-.89 1.62 2.44 1.479.85-1.54a1 1 0 0 1 1.36-.39c.49.27.66.87.39 1.36l-.97 1.77c-.22.42-.62.73-1.08.86-.15.04-.3.06-.44.06l.01-.01Zm5.896-2.482 7.505-7.498 3.582.7.7 3.581-7.505 7.502-4.282-4.285Zm6.178-8.999a1.788 1.788 0 0 1 1.66-.47l3.774.736.048.01a1.849 1.849 0 0 1 1.362 1.4l.738 3.774a1.787 1.787 0 0 1-.472 1.659l-7.941 7.939c-.633.632-1.592.524-2.146-.017l-.009-.009-4.93-4.934c-.562-.562-.645-1.518-.034-2.145l.009-.009 7.941-7.934Zm2.126 3.483a1.5 1.5 0 1 0 0 3 1.5 1.5 0 0 0 0-3Zm-11.38 1.16c.29.05.59.07.88.07l.01.01c1.38 0 2.69-.54 3.69-1.54 1.21-1.2 1.74-2.869 1.46-4.568-.35-2.16-2.11-3.919-4.28-4.279-1.71-.28-3.37.25-4.58 1.46-1.21 1.2-1.74 2.869-1.46 4.568.35 2.16 2.11 3.92 4.28 4.28Zm-1.41-7.438a3.207 3.207 0 0 1 2.84-.9c1.33.22 2.41 1.3 2.63 2.63.17 1.06-.15 2.1-.9 2.839-.75.74-1.78 1.07-2.84.9a3.231 3.231 0 0 1-2.63-2.63c-.17-1.06.15-2.089.9-2.839Z" clip-rule="evenodd"/>
</svg>
