<svg xmlns="http://www.w3.org/2000/svg" width="32" height="32" fill="currentColor" viewBox="0 0 32 32">
  <path fill-rule="evenodd" d="M18.646 4.05a.473.473 0 0 1 .451-.106.999.999 0 0 0 .039.008l7.012 1.37a.582.582 0 0 1 .401.4l1.37 7.013a1 1 0 0 0 .008.038.473.473 0 0 1-.107.452L13.108 27.937a.111.111 0 0 1-.014-.011l-9.155-9.164a.074.074 0 0 1-.006-.007L18.646 4.05ZM17.24 2.644a2.46 2.46 0 0 1 2.295-.641l7.025 1.371.047.01a2.573 2.573 0 0 1 1.892 1.928l1.371 7.026a2.46 2.46 0 0 1-.641 2.296L14.475 29.386c-.798.798-2.038.681-2.775-.038l-.008-.009-9.16-9.17c-.74-.74-.832-1.977-.056-2.773l.01-.01L17.238 2.644Zm2.678 7.32a1.99 1.99 0 1 1 3.982 0 1.99 1.99 0 0 1-3.982 0Zm1.99-3.982a3.982 3.982 0 1 0 0 7.964 3.982 3.982 0 0 0 0-7.964Z" clip-rule="evenodd"/>
</svg>
