<svg xmlns="http://www.w3.org/2000/svg" width="32" height="32" fill="currentColor" viewBox="0 0 32 32">
  <path fill-rule="evenodd" d="M19.177 3.953a.475.475 0 0 0-.454.107L3.942 18.832a.064.064 0 0 0 .006.008l9.197 9.205.015.012 14.78-14.78a.475.475 0 0 0 .107-.454.968.968 0 0 1-.008-.038L26.663 5.74a.585.585 0 0 0-.403-.403l-7.045-1.376a.951.951 0 0 1-.038-.008Zm.438-1.951a2.472 2.472 0 0 0-2.306.644L2.488 17.458l-.01.01c-.78.8-.687 2.042.056 2.785l9.203 9.212.008.009c.74.723 1.986.84 2.788.038l14.82-14.82c.61-.61.832-1.485.645-2.307L28.62 5.327a2.585 2.585 0 0 0-1.947-1.947l-7.058-1.378Z" clip-rule="evenodd"/>
  <path fill-rule="evenodd" d="M22 8a2 2 0 1 0 0 4 2 2 0 0 0 0-4Zm-4 2a4 4 0 1 1 8 0 4 4 0 0 1-8 0Z" clip-rule="evenodd"/>
</svg>
