<svg xmlns="http://www.w3.org/2000/svg" width="32" height="32" fill="currentColor" viewBox="0 0 32 32">
  <path fill-rule="evenodd" d="M19 4h-6v4h6V4Zm-6-2a2 2 0 0 0-2 2v1H8a3 3 0 0 0-3 3v19a3 3 0 0 0 3 3h16a3 3 0 0 0 3-3V8a3 3 0 0 0-3-3h-3V4a2 2 0 0 0-2-2h-6ZM8 7h3v1a2 2 0 0 0 2 2h6a2 2 0 0 0 2-2V7h3a1 1 0 0 1 1 1v19a1 1 0 0 1-1 1H8a1 1 0 0 1-1-1V8a1 1 0 0 1 1-1Zm13.79 6.614a1 1 0 1 0-1.58-1.228l-6.208 7.985-2.213-2.845a1 1 0 0 0-1.578 1.227l3.001 3.86a1 1 0 0 0 1.58 0l6.998-9Z" clip-rule="evenodd"/>
</svg>
