<svg xmlns="http://www.w3.org/2000/svg" width="32" height="32" fill="none" viewBox="0 0 32 32">
  <path fill="#3D3C3C" fill-rule="evenodd" d="M11 4h6v4h-6V4ZM9 4a2 2 0 0 1 2-2h6a2 2 0 0 1 2 2v1h3a3 3 0 0 1 3 3v1a1 1 0 1 1-2 0V8a1 1 0 0 0-1-1h-3v1a2 2 0 0 1-2 2h-6a2 2 0 0 1-2-2V7H6a1 1 0 0 0-1 1v19a1 1 0 0 0 1 1h3a1 1 0 1 1 0 2H6a3 3 0 0 1-3-3V8a3 3 0 0 1 3-3h3V4Zm13.13 8.529a1 1 0 0 1 1.346-.415l3.5 1.831a1 1 0 0 1 .424 1.346l-.633 1.223c.318.416.587.862.806 1.328l1.474.07a1 1 0 0 1 .953.999v3.834a1 1 0 0 1-.967 1l-1.295.041a7.198 7.198 0 0 1-.316.676l-.004.007c-.12.221-.25.44-.393.652l.79 1.359a1 1 0 0 1-.375 1.374l-3.588 2.018a1 1 0 0 1-1.386-.427l-.582-1.173c-.46.06-.93.074-1.399.04l-.616 1.152a1 1 0 0 1-1.345.415l-3.532-1.848a1 1 0 0 1-.416-1.362l.649-1.2a7.34 7.34 0 0 1-.773-1.265l-1.299.042a1 1 0 0 1-1.032-.97l-.12-3.998a1 1 0 0 1 .966-1.03l1.294-.042c.092-.228.199-.457.32-.682a8.1 8.1 0 0 1 .384-.637l-.684-1.114a1 1 0 0 1 .297-1.354l3.366-2.25a1 1 0 0 1 1.423.334l.703 1.224a7.18 7.18 0 0 1 1.445-.047l.616-1.151Zm1.297 1.817-.471.881a1 1 0 0 1-1.057.513 5.073 5.073 0 0 0-2.102.072 1 1 0 0 1-1.108-.473l-.524-.912-1.676 1.12.535.87a1 1 0 0 1-.086 1.166c-.22.262-.418.563-.599.896a5.26 5.26 0 0 0-.405.993 1 1 0 0 1-.925.711l-.98.032.061 2 .982-.033a1 1 0 0 1 .972.656c.248.677.62 1.297 1.114 1.824a1 1 0 0 1 .15 1.159l-.49.907 1.755.92.471-.882a1 1 0 0 1 1.057-.513 5.07 5.07 0 0 0 2.102-.072 1 1 0 0 1 1.136.526l.45.905 1.787-1.004-.612-1.054a1 1 0 0 1 .098-1.144 5.35 5.35 0 0 0 1.004-1.889 1 1 0 0 1 .925-.711L28 21.777v-1.913l-1.152-.054a1 1 0 0 1-.892-.655 5.356 5.356 0 0 0-1.114-1.824 1 1 0 0 1-.158-1.143l.482-.932-1.739-.91ZM22.5 21a1.5 1.5 0 1 1-3 0 1.5 1.5 0 0 1 3 0Zm2 0a3.5 3.5 0 1 1-7 0 3.5 3.5 0 0 1 7 0Z" clip-rule="evenodd"/>
</svg>
