<svg xmlns="http://www.w3.org/2000/svg" width="32" height="32" fill="none" viewBox="0 0 32 32">
  <path fill="#3D3C3C" fill-rule="evenodd" d="M19 9a3 3 0 1 1 6 0 3 3 0 0 1-6 0Zm3-5a5 5 0 1 0 0 10 5 5 0 0 0 0-10ZM7 13a3 3 0 1 1 6 0 3 3 0 0 1-6 0Zm3-5a5 5 0 1 0 0 10 5 5 0 0 0 0-10ZM4 23.693 4.019 26h11.962L16 23.694v-.001c.005-.889-.76-1.693-1.825-1.693h-8.35c-1.064 0-1.83.804-1.825 1.693Zm13.975 3.083L18 23.708v-.002C18.013 21.612 16.25 20 14.175 20h-8.35C3.75 20 1.987 21.612 2 23.706v.002l.027 3.3a1 1 0 0 0 1 .992H17a1 1 0 0 0 .975-1.224Zm-1.349-8.363a1.905 1.905 0 0 1 1.2-.413h8.349c1.064 0 1.83.804 1.825 1.693L27.98 22H21a1 1 0 1 0 0 2h8a1 1 0 0 0 .975-1.224L30 19.708v-.002C30.013 17.612 28.25 16 26.175 16h-8.35c-.927 0-1.784.317-2.451.854a1 1 0 1 0 1.252 1.559Z" clip-rule="evenodd"/>
</svg>
