<svg xmlns="http://www.w3.org/2000/svg" width="32" height="32" fill="currentColor" viewBox="0 0 32 32">
  <path fill-rule="evenodd" d="M1.933 7.963h28.134v18.154c0 2.107-1.586 3.95-3.716 3.95H5.649c-2.132 0-3.716-1.854-3.716-3.95V7.963Zm2 2v16.154c0 1.153.844 1.95 1.716 1.95h20.702c.874 0 1.716-.79 1.716-1.95V9.963H3.933Z" clip-rule="evenodd"/>
  <path fill-rule="evenodd" d="M1.933 5.808c0-2.084 1.608-3.875 3.716-3.875h20.702c2.108 0 3.716 1.791 3.716 3.875v4.155H1.933V5.808ZM5.65 3.933c-.896 0-1.716.785-1.716 1.875v2.155h24.134V5.808c0-1.09-.82-1.875-1.716-1.875H5.649Z" clip-rule="evenodd"/>
  <path d="M7.199 4.94h-.495c-.42 0-.756.308-.756.69v.617c0 .382.336.69.756.69h.495c.42 0 .756-.308.756-.69V5.63c0-.383-.336-.691-.756-.691ZM10.25 5h-.494C9.336 5 9 5.308 9 5.69v.617c0 .382.336.69.756.69h.495c.42 0 .756-.308.756-.69V5.69c0-.383-.336-.691-.756-.691Zm3 0h-.494c-.42 0-.756.308-.756.69v.617c0 .382.336.69.756.69h.495c.42 0 .756-.308.756-.69V5.69c0-.383-.336-.691-.756-.691Z"/>
  <path fill-rule="evenodd" d="M8 14.002v9.997l.002.001H13l.001-.002v-9.997L12.997 14H8v.003Zm-2 .001C6 12.897 6.896 12 8.003 12h4.994c1.107 0 2.003.897 2.003 2.003v9.994A2.003 2.003 0 0 1 12.997 26H8.003A2.003 2.003 0 0 1 6 23.997v-9.994Zm13.007 7.025v3.011l.002.003a.013.013 0 0 0 .003.002h5.027l.003-.002a.01.01 0 0 0 .002-.003v-3.011l-.002-.003a.01.01 0 0 0-.003-.002h-5.027s-.002 0-.003.002l-.002.003Zm-2 .003c0-1.11.899-2.008 2.008-2.008h5.02c1.11 0 2.009.899 2.009 2.008v3.005a2.008 2.008 0 0 1-2.008 2.008h-5.021a2.008 2.008 0 0 1-2.008-2.008v-3.005Zm0-8.046a1 1 0 0 1 1-1h7.056a1 1 0 0 1 0 2h-7.056a1 1 0 0 1-1-1ZM17 16a1 1 0 0 1 1-1h7.056a1 1 0 1 1 0 2H18a1 1 0 0 1-1-1Z" clip-rule="evenodd"/>
</svg>
