<svg xmlns="http://www.w3.org/2000/svg" width="32" height="32" fill="currentColor" viewBox="0 0 32 32">
  <path fill-rule="evenodd" d="M5.65 1.933c-2.11 0-3.717 1.791-3.717 3.875v20.309c0 2.096 1.584 3.95 3.716 3.95h20.702c2.13 0 3.716-1.843 3.716-3.95V5.808c0-2.084-1.608-3.875-3.716-3.875H5.649Zm22.417 6.03V5.808c0-1.09-.82-1.875-1.716-1.875H5.649c-.896 0-1.716.785-1.716 1.875v2.155h24.134Zm-24.134 2h24.134v16.154c0 1.16-.842 1.95-1.716 1.95H5.649c-.872 0-1.716-.797-1.716-1.95V9.963ZM7.2 4.94h-.495c-.42 0-.756.308-.756.69v.617c0 .382.336.69.756.69H7.2c.42 0 .756-.308.756-.69V5.63c0-.383-.336-.691-.756-.691ZM9.756 5h.495c.42 0 .756.308.756.69v.617c0 .382-.336.69-.756.69h-.495c-.42 0-.756-.308-.756-.69V5.69c0-.382.336-.69.756-.69Zm3.495 0h-.495c-.42 0-.756.308-.756.69v.617c0 .382.336.69.756.69h.495c.42 0 .756-.308.756-.69V5.69c0-.383-.336-.691-.756-.691ZM8 14.003v-.002L8.003 14H13l.001.002v9.997l-.002.001H8v-9.998ZM8.003 12A2.003 2.003 0 0 0 6 14.003v9.994C6 25.103 6.896 26 8.003 26h4.994A2.003 2.003 0 0 0 15 23.997v-9.994A2.003 2.003 0 0 0 12.997 12H8.003Zm11.004 9.029v3.01l.002.003.002.001h.001l.003.001h5.024l.003-.002a.01.01 0 0 0 .002-.003v-3.011l-.002-.003-.002-.001-.001-.001h-5.027s-.002 0-.003.002l-.002.003Zm-2 .002c0-1.11.899-2.008 2.008-2.008h5.021c1.109 0 2.008.899 2.008 2.008v3.005a2.008 2.008 0 0 1-2.008 2.008h-5.021a2.008 2.008 0 0 1-2.008-2.008v-3.005Zm1-9.046a1 1 0 1 0 0 2h7.056a1 1 0 0 0 0-2h-7.056ZM18 15a1 1 0 1 0 0 2h7.056a1 1 0 1 0 0-2H18Z" clip-rule="evenodd"/>
</svg>
