<svg xmlns="http://www.w3.org/2000/svg" width="32" height="32" fill="currentColor" viewBox="0 0 32 32">
  <path d="M16.295 1.938c7.565.191 13.639 6.384 13.639 13.996 0 7.731-6.269 14-14 14l-.35-.005a14.042 14.042 0 0 1-2.382-.262 1 1 0 0 1 .389-1.962c.757.15 1.54.229 2.343.229 6.627 0 12-5.373 12-12 0-6.524-5.207-11.832-11.69-11.996l-.31-.004-.599.014c-.594.03-1.177.102-1.744.214a1.001 1.001 0 0 1-.389-1.962 14.068 14.068 0 0 1 2.732-.266l.36.004ZM4.567 22.325a1 1 0 0 1 1.387.276 12.074 12.074 0 0 0 3.313 3.312 1 1 0 0 1-1.113 1.662 14.075 14.075 0 0 1-3.862-3.862 1 1 0 0 1 .275-1.388ZM15.934 6.934a1 1 0 0 1 1 1v7.5l3.6 2.7a1 1 0 0 1-1.2 1.6l-4-3a1 1 0 0 1-.4-.8v-8a1 1 0 0 1 1-1ZM2.2 13.202a1 1 0 1 1 1.962.389 12.066 12.066 0 0 0 0 4.685 1.001 1.001 0 0 1-1.962.389 14.068 14.068 0 0 1 0-5.463Zm5.954-8.91a1 1 0 0 1 1.113 1.662 12.072 12.072 0 0 0-3.313 3.313 1 1 0 0 1-1.662-1.113 14.074 14.074 0 0 1 3.862-3.862Z"/>
</svg>
