<svg xmlns="http://www.w3.org/2000/svg" width="32" height="32" fill="currentColor" viewBox="0 0 32 32">
  <path fill-rule="evenodd" d="M24.601 16.953a3.176 3.176 0 0 1 4.47 0 3.154 3.154 0 0 1 0 4.469l-7.643 7.64c-.13.13-.29.22-.46.26l-2.425.608c-.17.04-.33.06-.499.06V30c-.529 0-1.038-.21-1.417-.588a1.977 1.977 0 0 1-.53-1.916h-.01l.61-2.424a.96.96 0 0 1 .259-.459l7.645-7.66Zm3.064 1.416a1.157 1.157 0 0 0-1.646 0l-7.456 7.451-.538 2.155v.01l2.195-.529 7.445-7.44c.45-.449.45-1.188 0-1.647ZM22.665 2c1.852 0 3.278 1.553 3.279 3.376v9.66a.998.998 0 0 1-1.996 0V8.983H3.995v13.474c0 .904.654 1.49 1.283 1.49h8.76a.998.998 0 0 1 0 1.996h-8.76C3.384 25.943 2 24.293 2 22.457V5.376C2 3.553 3.426 2 5.278 2h17.387ZM5.278 3.995c-.67 0-1.283.579-1.283 1.38v1.613h19.953V5.376c0-.802-.612-1.38-1.283-1.38H5.278Z" clip-rule="evenodd"/>
  <path fill-rule="evenodd" d="M11.126 10.047c.998 0 1.855.794 1.855 1.832v8.308c0 1.038-.857 1.832-1.855 1.832H6.855c-.998 0-1.855-.794-1.855-1.832V11.88c0-1.037.857-1.832 1.855-1.832h4.271Zm-4.13 9.977h3.99V12h-3.99v8.024Z" clip-rule="evenodd"/>
  <path d="M21.021 16.033a.998.998 0 0 1 0 1.995h-3.99v1.996h1.007a.998.998 0 1 1 0 1.995h-1.17c-.974 0-1.832-.768-1.832-1.798v-2.39c0-1.03.858-1.798 1.831-1.798h4.154Zm.927-3.02a.998.998 0 0 1 0 1.995h-5.98a.998.998 0 0 1 0-1.995h5.98Zm.004-2.993a.998.998 0 0 1 0 1.996h-5.98a.998.998 0 0 1 0-1.996h5.98Z"/>
</svg>
