<svg xmlns="http://www.w3.org/2000/svg" width="32" height="32" fill="currentColor" viewBox="0 0 32 32">
  <path fill-rule="evenodd" d="M19.1 13.197h8.185l-.01.01c1.627 0 2.884 1.45 2.709 3.108l-1.209 11.196C28.63 28.931 27.46 30 26.068 30H11.822C10.818 30 10 29.16 10 28.13V16.936l3.38-8.666c.176-.44.264-.92.264-1.39V3.87c0-1.03.819-1.869 1.822-1.869 0 0 3.634-.35 3.634 11.196ZM3.752 15h3.496C8.215 15 9 15.841 9 16.879V28.12C9 29.16 8.215 30 7.248 30H3.752C2.785 30 2 29.159 2 28.121V16.88C2 15.84 2.785 15 3.752 15Z" clip-rule="evenodd"/>
</svg>
