<svg xmlns="http://www.w3.org/2000/svg" width="32" height="32" fill="none" viewBox="0 0 32 32">
  <path fill="#3D3C3C" fill-rule="evenodd" d="M19.635 12.397h6.785c.056 0 .11.005.163.013 2.065.097 3.62 1.924 3.396 3.99v.003l-1.148 10.39v.003A3.582 3.582 0 0 1 25.264 30H11.73a2.71 2.71 0 0 1-1.736-.626A2.74 2.74 0 0 1 8.248 30H4.752A2.753 2.753 0 0 1 2 27.247V16.753A2.753 2.753 0 0 1 4.752 14h3.496a2.74 2.74 0 0 1 1.612.522l2.426-6.079c.116-.283.176-.6.176-.912V4.737a2.737 2.737 0 0 1 3.006-2.72c.177.022.402.073.654.18.515.218 1.092.643 1.622 1.416.97 1.414 1.79 4.001 1.891 8.784ZM9 16.868v10.379a.753.753 0 0 1-.752.753H4.752A.753.753 0 0 1 4 27.247V16.753c0-.416.337-.753.752-.753h3.496c.415 0 .752.337.752.753v.115Zm2 10.396V17.061l3.14-7.866a4.44 4.44 0 0 0 .322-1.664V4.737A.737.737 0 0 1 15.219 4c.017.002.06.01.123.038.133.056.42.22.752.705.691 1.008 1.551 3.36 1.551 8.653a1 1 0 0 0 1 1h7.63a.99.99 0 0 0 .136.01c.942 0 1.682.82 1.58 1.777v.001L26.842 26.58v.005A1.582 1.582 0 0 1 25.262 28h-13.53a.737.737 0 0 1-.731-.736ZM7.5 24a1 1 0 1 0-2 0v2a1 1 0 1 0 2 0v-2Z" clip-rule="evenodd"/>
</svg>
