<svg xmlns="http://www.w3.org/2000/svg" width="32" height="32" fill="none" viewBox="0 0 32 32">
  <path fill="#3D3C3C" fill-rule="evenodd" d="M4.752 4A.753.753 0 0 0 4 4.754v10.492c0 .417.337.754.752.754h3.496A.753.753 0 0 0 9 15.246V4.754A.753.753 0 0 0 8.248 4H4.752ZM2 4.754A2.753 2.753 0 0 1 4.752 2h3.496A2.753 2.753 0 0 1 11 4.754v10.492A2.753 2.753 0 0 1 8.248 18H4.752A2.753 2.753 0 0 1 2 15.246V4.754Z" clip-rule="evenodd"/>
  <path fill="#3D3C3C" fill-rule="evenodd" d="M11.73 4c-.397 0-.73.33-.73.736v10.198l3.138 7.865.001.004c.217.532.323 1.106.323 1.665v2.795a.737.737 0 0 0 .757.736.537.537 0 0 0 .123-.038c.133-.056.419-.22.752-.705.691-1.01 1.551-3.362 1.551-8.657a1 1 0 0 1 1-1h7.766c.942 0 1.682-.82 1.58-1.779L26.842 5.422v-.005A1.583 1.583 0 0 0 25.262 4h-13.53Zm14.69 15.6h.01-.01Zm.01 0c2.14-.012 3.778-1.878 3.549-3.996L28.83 5.207v-.002A3.583 3.583 0 0 0 25.264 2H11.73A2.737 2.737 0 0 0 9 4.736v10.39a1 1 0 0 0 .071.371l3.212 8.05.003.008c.116.283.176.6.176.913v2.795a2.737 2.737 0 0 0 3.006 2.72 2.49 2.49 0 0 0 .654-.18c.515-.218 1.092-.644 1.622-1.417.97-1.414 1.791-4.002 1.891-8.787h6.776M6.5 5a1 1 0 0 1 1 1v2a1 1 0 0 1-2 0V6a1 1 0 0 1 1-1Z" clip-rule="evenodd"/>
</svg>
