<svg xmlns="http://www.w3.org/2000/svg" width="32" height="32" fill="currentColor" viewBox="0 0 32 32">
  <path fill-rule="evenodd" d="M3.752 2h3.496C8.215 2 9 2.841 9 3.879V15.12C9 16.16 8.215 17 7.248 17H3.752C2.785 17 2 16.159 2 15.121V3.88C2 2.84 2.785 2 3.752 2ZM19.1 18.8h8.175c1.627 0 2.884-1.45 2.709-3.11l-1.209-11.2C28.63 3.07 27.46 2 26.068 2H11.822C10.818 2 10 2.84 10 3.87v11.19l3.38 8.67c.176.44.264.92.264 1.39v3.009c0 1.03.819 1.87 1.822 1.87 0 0 3.634.35 3.634-11.2Z" clip-rule="evenodd"/>
</svg>
