<svg xmlns="http://www.w3.org/2000/svg" width="32" height="32" fill="currentColor" viewBox="0 0 32 32">
  <path d="M11 11a1 1 0 1 0-2 0v2a1 1 0 1 0 2 0v-2Zm-1 4a1 1 0 0 1 1 1v2a1 1 0 1 1-2 0v-2a1 1 0 0 1 1-1Zm1 6a1 1 0 1 0-2 0v2a1 1 0 1 0 2 0v-2Z"/>
  <path fill-rule="evenodd" d="M2 8a1 1 0 0 1 1-1h26a1 1 0 0 1 1 1v5a1 1 0 0 1-1 1 2 2 0 0 0 0 4h.002A1 1 0 0 1 30 19.002l-.012 6.666c0 .045-.003.088-.008.131A1 1 0 0 1 29 27H3a1 1 0 0 1-1-.999v-6a1 1 0 0 1 1-1c1.102 0 2-1.035 2-2 0-.965-.898-2-2-2a1 1 0 0 1-1-1V8Zm26 1v3.126a4.003 4.003 0 0 0-.002 7.748L27.99 25H4v-4.132c1.78-.481 3-2.2 3-3.868 0-1.669-1.22-3.387-3-3.868V9h24Z" clip-rule="evenodd"/>
</svg>
