<svg xmlns="http://www.w3.org/2000/svg" width="32" height="32" fill="currentColor" viewBox="0 0 32 32">
  <path fill-rule="evenodd" d="M2 8a1 1 0 0 1 1-1h26a1 1 0 1 1 0 2H3a1 1 0 0 1-1-1Zm0 18a1 1 0 0 1 1-1h26a1 1 0 1 1 0 2H3a1 1 0 0 1-1-1Z" clip-rule="evenodd"/>
  <path fill-rule="evenodd" d="M3 7a1 1 0 0 1 1 1v6a1 1 0 1 1-2 0V8a1 1 0 0 1 1-1Zm0 12a1 1 0 0 1 1 1v6a1 1 0 1 1-2 0v-6a1 1 0 0 1 1-1ZM29 7a1 1 0 0 1 1 1v5a1 1 0 1 1-2 0V8a1 1 0 0 1 1-1Zm.002 11A1 1 0 0 1 30 19.002l-.012 6.666a1 1 0 1 1-2-.003L28 18.998A1 1 0 0 1 29.002 18Z" clip-rule="evenodd"/>
  <path fill-rule="evenodd" d="M2 14a1 1 0 0 1 1-1c2.307 0 4 2.034 4 4 0 1.966-1.693 4-4 4a1 1 0 1 1 0-2c1.102 0 2-1.035 2-2 0-.965-.898-2-2-2a1 1 0 0 1-1-1Zm27 0a2 2 0 0 0 0 4 1 1 0 1 1 0 2 4 4 0 0 1 0-8 1 1 0 1 1 0 2Zm-19-4a1 1 0 0 1 1 1v2a1 1 0 1 1-2 0v-2a1 1 0 0 1 1-1Zm0 5a1 1 0 0 1 1 1v2a1 1 0 1 1-2 0v-2a1 1 0 0 1 1-1Zm0 5a1 1 0 0 1 1 1v2a1 1 0 1 1-2 0v-2a1 1 0 0 1 1-1Z" clip-rule="evenodd"/>
</svg>
