<svg xmlns="http://www.w3.org/2000/svg" width="32" height="32" fill="currentColor" viewBox="0 0 32 32">
  <path fill-rule="evenodd" d="M24 1a7 7 0 0 0-7 7 7 7 0 1 0 14 0 7 7 0 0 0-7-7Zm-5 7a5 5 0 0 1 5-5 5 5 0 1 1 0 10 5 5 0 0 1-5-5Zm6-3a1 1 0 1 0-2 0v2h-2a1 1 0 1 0 0 2h2v2a1 1 0 1 0 2 0V9h2a1 1 0 1 0 0-2h-2V5Zm-10 .968a1 1 0 0 1-.957 1.042C8.456 7.249 4 11.854 4 17.5 4 23.299 8.701 28 14.5 28c5.646 0 10.251-4.456 10.49-10.043a1 1 0 0 1 1.998.086C26.704 24.695 21.222 30 14.5 30 7.596 30 2 24.404 2 17.5 2 10.778 7.305 5.296 13.957 5.012A1 1 0 0 1 15 5.968ZM15 12a1 1 0 1 0-2 0v5.987a1.004 1.004 0 0 0 .459.854l2.986 1.991a1 1 0 0 0 1.11-1.664L15 17.465V12Z" clip-rule="evenodd"/>
</svg>
