<svg xmlns="http://www.w3.org/2000/svg" width="32" height="32" fill="currentColor" viewBox="0 0 32 32">
  <path d="M22.967 15.934a7 7 0 1 1 0 14 7 7 0 0 1-7-7 7 7 0 0 1 7-7Zm0 2a5 5 0 0 0-5 5 5 5 0 1 0 10 0 5 5 0 0 0-5-5Zm1.414 2.17a1 1 0 0 1 1.414 1.416l-1.414 1.413 1.414 1.415a1 1 0 1 1-1.414 1.414l-1.414-1.414-1.414 1.414a1 1 0 0 1-1.414-1.414l1.413-1.415-1.413-1.413a1 1 0 0 1 1.414-1.415l1.414 1.414 1.414-1.414ZM13.986 1.934c6.293 0 11.459 4.824 11.977 10.972a1 1 0 1 1-1.992.168c-.431-5.117-4.736-9.14-9.985-9.14-5.536 0-10.02 4.475-10.02 9.989 0 5.207 4.059 9.55 9.176 10.014a1 1 0 0 1-.181 1.993C6.83 25.373 1.967 20.18 1.967 13.923c0-6.624 5.384-11.99 12.02-11.99Zm-.02 5a1 1 0 0 1 1 1v5l1.8 2.4a1 1 0 0 1-1.599 1.2l-2-2.667a1 1 0 0 1-.2-.6V7.934a1 1 0 0 1 1-1Z"/>
</svg>
