<svg xmlns="http://www.w3.org/2000/svg" width="32" height="32" fill="none" viewBox="0 0 32 32">
  <path fill="#3D3C3C" fill-rule="evenodd" d="M6.8 2a1 1 0 0 0-.941.662l-1.8 5.014a1 1 0 0 0 .198 1.007l1.243 1.38V16H4a1 1 0 1 0 0 2h1v8.802c0 .784.274 1.6.843 2.227a2.88 2.88 0 0 0 4.314 0A3.3 3.3 0 0 0 11 26.802V18h1a1 1 0 1 0 0-2h-1.5v-5.937l1.243-1.38a1 1 0 0 0 .198-1.007l-1.8-5.014A1 1 0 0 0 9.2 2H6.8ZM7 26.802V18h2v8.802a1.3 1.3 0 0 1-.323.881c-.384.422-.97.422-1.354 0A1.324 1.324 0 0 1 7 26.802ZM7.5 16h1V9.679a1 1 0 0 1 .257-.67l1.1-1.22L8.497 4h-.994l-1.36 3.789 1.1 1.22a1 1 0 0 1 .257.67V16Zm8.85-13.683a.351.351 0 0 0-.007.005l.01-.008-.003.003Zm1.782-.131a1.737 1.737 0 0 0-1.782.131C14.335 3.725 13 6.027 13 8.66c0 2.93 1.658 5.455 4.083 6.779v10.738C17.083 28.319 18.862 30 21 30c2.139 0 3.917-1.681 3.917-3.823V15.438C27.342 14.114 29 11.581 29 8.66c0-.072-.008-.142-.022-.21-.069-2.536-1.386-4.762-3.347-6.133a1.737 1.737 0 0 0-1.783-.131 1.707 1.707 0 0 0-.94 1.524v4.95a.114.114 0 0 1-.04.083.18.18 0 0 1-.128.05h-3.5a.18.18 0 0 1-.127-.05.115.115 0 0 1-.04-.083V3.71c0-.657-.374-1.238-.94-1.524Zm8.849 6.474c0 .062.005.122.016.18-.071 2.232-1.466 4.168-3.485 5.064a1 1 0 0 0-.595.914v11.359c0 .978-.823 1.823-1.917 1.823s-1.917-.845-1.917-1.823v-11.36a1 1 0 0 0-.595-.913C16.414 12.984 15 10.976 15 8.66c0-1.747.798-3.311 2.074-4.38v4.38c0 1.202 1.001 2.133 2.166 2.133h3.5c1.166 0 2.167-.93 2.167-2.133V4.28c1.276 1.07 2.074 2.64 2.074 4.38Z" clip-rule="evenodd"/>
</svg>
