<svg xmlns="http://www.w3.org/2000/svg" width="32" height="32" fill="none" viewBox="0 0 32 32">
  <path fill="#3D3C3C" fill-rule="evenodd" d="M9.536 2.122a9.006 9.006 0 0 1 7.86 2.516.992.992 0 0 1 .078.089c2.355 2.404 3.074 5.794 2.194 8.814l9.056 9.056h.001a4.33 4.33 0 0 1-.001 6.139 4.348 4.348 0 0 1-6.132-.003l-9.06-9.058a9 9 0 0 1-8.894-2.272A9.004 9.004 0 0 1 2.121 9.55a1.822 1.822 0 0 1 1.252-1.452c.64-.2 1.353-.043 1.846.45l4.12 4.129a.35.35 0 0 0 .491.004l2.838-2.838a.35.35 0 0 0 .004-.491L8.54 5.219a1.833 1.833 0 0 1-.45-1.846 1.837 1.837 0 0 1 1.43-1.248l.016-.003Zm.64 1.918 3.904 3.904a2.34 2.34 0 0 1 .006 3.296l-.006.006-2.842 2.842a2.34 2.34 0 0 1-3.296.006l-.007-.007-3.894-3.903a7.017 7.017 0 0 0 9.416 7.421.995.995 0 0 1 1.05.23l9.492 9.491c.91.91 2.4.914 3.323-.002a2.34 2.34 0 0 0 0-3.315l-.003-.003-9.492-9.49a.995.995 0 0 1-.23-1.05c.93-2.504.397-5.413-1.608-7.41a.987.987 0 0 1-.073-.082 7.01 7.01 0 0 0-5.74-1.934Z" clip-rule="evenodd"/>
</svg>
