<svg xmlns="http://www.w3.org/2000/svg" width="32" height="32" fill="currentColor" viewBox="0 0 32 32">
  <path d="M16 3a3 3 0 0 1 2.965 3.46l6.033 4.31A2.986 2.986 0 0 1 27 10a3 3 0 0 1 .264 5.987l-2.183 7.856c.566.545.919 1.31.919 2.157a3 3 0 0 1-5.826 1h-8.348a2.998 2.998 0 1 1-4.535-3.465L4.776 15.99a2.999 2.999 0 1 1 2.225-5.22l6.033-4.31A3 3 0 0 1 16 3ZM9 25a1 1 0 1 0 0 2 1 1 0 0 0 0-2Zm14 0a1 1 0 1 0 0 2 1 1 0 0 0 0-2Zm-11.712-.938c.233.275.416.592.538.938h8.348c.035-.1.076-.197.12-.292a.995.995 0 0 1-.113-.135l-3.295-4.707a2.996 2.996 0 0 1-1.81-.012l-3.788 4.209Zm7.703-6.855a2.98 2.98 0 0 1-.5 1.464l3.23 4.617a2.984 2.984 0 0 1 1.515-.278l2.09-7.522a3.012 3.012 0 0 1-.459-.38l-5.876 2.099Zm-11.86-2.099a2.89 2.89 0 0 1-.423.356l2.515 7.545c.098.007.195.018.29.035l3.971-4.412a2.979 2.979 0 0 1-.476-1.425l-5.876-2.099ZM16 16a1 1 0 1 0 0 2 1 1 0 0 0 0-2Zm-8.035-3.46a3.022 3.022 0 0 1 .02.75l5.56 1.986A3.004 3.004 0 0 1 15 14.174V8.825a2.991 2.991 0 0 1-1.002-.596l-6.033 4.31ZM18 8.23a2.99 2.99 0 0 1-1 .594v5.349c.592.21 1.098.598 1.453 1.102l5.56-1.986a3.022 3.022 0 0 1 .021-.75l-6.033-4.31ZM5 12a1 1 0 1 0 0 2 1 1 0 0 0 0-2Zm22 0a1 1 0 1 0 0 2 1 1 0 0 0 0-2ZM16 5a1 1 0 1 0 0 2 1 1 0 0 0 0-2Z"/>
</svg>
