<svg xmlns="http://www.w3.org/2000/svg" width="32" height="32" fill="currentColor" viewBox="0 0 32 32">
  <path fill-rule="evenodd" d="M20.514 16.98a.506.506 0 0 0-.507.506v.017l-.027 1.514a.98.98 0 0 1-1.96-.034l.027-1.507a2.466 2.466 0 0 1 4.933.01v.533a.98.98 0 1 1-1.96 0v-.533a.506.506 0 0 0-.506-.506Z" clip-rule="evenodd"/>
  <path fill-rule="evenodd" d="M23.5 16.98a.53.53 0 0 0-.52.541.98.98 0 1 1-1.96 0c0-1.37 1.1-2.501 2.48-2.501s2.48 1.13 2.48 2.502V22a.98.98 0 1 1-1.96 0v-4.479a.53.53 0 0 0-.52-.541Z" clip-rule="evenodd"/>
  <path fill-rule="evenodd" d="M7.863 15.134c1.329-.395 2.752.269 3.303 1.505l.003.007 1.73 3.962a.98.98 0 0 1-1.797.784l-1.727-3.958a.811.811 0 0 0-.955-.421h-.002a.624.624 0 0 0-.389.291.39.39 0 0 0-.018.341l.016.045 1.027 2.951.011.026a35.45 35.45 0 0 0 .345.76c.222.478.508 1.072.774 1.566 1.242 2.295 2.21 3.365 2.93 4.047l.004.004c.651.622 1.682.976 2.813.976h3.53c1.595 0 3.005-.826 3.667-2.05l.058-.106c.212-.39.39-.719.538-1.243.163-.58.296-1.438.296-2.846a.98.98 0 0 1 1.96 0c0 1.524-.143 2.572-.37 3.377-.208.743-.482 1.245-.698 1.641l-.06.11c-1.037 1.916-3.147 3.077-5.392 3.077h-3.53c-1.487 0-3.055-.459-4.164-1.518-.879-.831-1.97-2.069-3.306-4.537l-.002-.002a33.284 33.284 0 0 1-.825-1.671 51.168 51.168 0 0 1-.36-.793l-.022-.049-.007-.017a.997.997 0 0 1-.028-.07l-1.033-2.97c-.544-1.39.307-2.816 1.682-3.22l.276.94-.278-.94Z" clip-rule="evenodd"/>
  <path fill-rule="evenodd" d="M17 15.98c-.716 0-1.02.465-1.02.724V18a.98.98 0 1 1-1.96 0v-1.296c0-1.627 1.49-2.684 2.98-2.684s2.98 1.057 2.98 2.684v.61a.98.98 0 1 1-1.96 0v-.61c0-.26-.304-.724-1.02-.724Z" clip-rule="evenodd"/>
  <path fill-rule="evenodd" d="M13.5 8.98a.513.513 0 0 0-.52.507V21a.98.98 0 1 1-1.96 0V9.487A2.473 2.473 0 0 1 13.5 7.02c1.36 0 2.48 1.094 2.48 2.467v7.996a.98.98 0 1 1-1.96 0V9.487a.513.513 0 0 0-.52-.507Zm8.5 8.04a.98.98 0 0 1 .98.98v2a.98.98 0 1 1-1.96 0v-2a.98.98 0 0 1 .98-.98ZM13.5 2a1 1 0 0 1 1 1v2a1 1 0 1 1-2 0V3a1 1 0 0 1 1-1Zm4.924 1.874a1 1 0 0 1 .1 1.41L17.177 6.84a1 1 0 0 1-1.51-1.31l1.348-1.555a1 1 0 0 1 1.41-.1Zm-9.979-.002a1 1 0 0 1 1.41.105l1.34 1.554a1 1 0 0 1-1.516 1.306L8.34 5.282a1 1 0 0 1 .105-1.41Zm-2.44 4.904a1 1 0 0 1 1.09-.9l2.042.197a1 1 0 1 1-.191 1.99l-2.042-.196a1 1 0 0 1-.9-1.091Zm14.857 0a1 1 0 0 1-.9 1.091l-2.04.197a1 1 0 1 1-.192-1.991l2.041-.197a1 1 0 0 1 1.091.9Z" clip-rule="evenodd"/>
</svg>
