<svg xmlns="http://www.w3.org/2000/svg" width="32" height="32" fill="currentColor" viewBox="0 0 32 32">
  <path d="M20.489 15.53c-1.011 0-1.845.71-1.845 1.59v-.57c0-.88-.822-1.59-1.833-1.59-1.011 0-1.833.71-1.833 1.59V8.59c0-.88-.822-1.59-1.845-1.59-1.022 0-1.833.71-1.833 1.59V20.9l-1.656-3.55c-.388-.83-1.41-1.29-2.366-1.02-1 .28-1.511 1.21-1.156 2.05l1.6 3.91s.245.75.867 1.85c1.433 2.52 2.578 3.74 3.466 4.54.978.89 2.423 1.32 3.878 1.32h3.922c2.134 0 4.09-1.05 5.034-2.71.511-.9 1.122-1.83 1.122-4.93l-3.678-4.68v-.57c0-.88-.822-1.59-1.833-1.59l-.011.01Z"/>
  <path d="M26 17.68c0-.88-.822-1.59-1.845-1.59-1.022 0-1.833.71-1.833 1.59L26 22.36v-4.68Z"/>
  <path fill-rule="evenodd" d="M13.5 2a1 1 0 0 1 1 1v2a1 1 0 1 1-2 0V3a1 1 0 0 1 1-1Zm4.924 1.874a1 1 0 0 1 .1 1.41L17.177 6.84a1 1 0 0 1-1.51-1.31l1.348-1.555a1 1 0 0 1 1.41-.1Zm-9.979-.002a1 1 0 0 1 1.41.105l1.34 1.554a1 1 0 0 1-1.516 1.306L8.34 5.282a1 1 0 0 1 .105-1.41Zm-2.44 4.904a1 1 0 0 1 1.09-.9l2.042.197a1 1 0 1 1-.191 1.99l-2.042-.196a1 1 0 0 1-.9-1.091Zm14.857 0a1 1 0 0 1-.9 1.091l-2.04.197a1 1 0 1 1-.192-1.991l2.041-.197a1 1 0 0 1 1.091.9Z" clip-rule="evenodd"/>
</svg>
