<svg xmlns="http://www.w3.org/2000/svg" width="32" height="32" fill="currentColor" viewBox="0 0 32 32">
  <path fill-rule="evenodd" d="M9 4a3 3 0 1 0 0 6 3 3 0 0 0 0-6ZM4 7a5 5 0 0 1 9.9-1h8.433C25.432 6 28 8.425 28 11.5S25.432 17 22.333 17H11.667C9.603 17 8 18.598 8 20.5S9.603 24 11.667 24H18.1a5.002 5.002 0 0 1 9.9 1 5 5 0 0 1-9.9 1h-6.433C8.568 26 6 23.575 6 20.5S8.568 15 11.667 15h10.666C24.397 15 26 13.402 26 11.5 26 9.597 24.397 8 22.333 8H13.9A5.002 5.002 0 0 1 4 7Zm16 18a3 3 0 1 0 6 0 3 3 0 0 0-6 0Z" clip-rule="evenodd"/>
</svg>
