<svg xmlns="http://www.w3.org/2000/svg" width="33" height="32" fill="currentColor" viewBox="0 0 33 32">
  <path fill-rule="evenodd" d="M21.358 24c1.408 0 2.613 1.105 2.605 2.665V29a1 1 0 0 1-1 1h-8a1 1 0 0 1-1-1v-2.244C13.955 25.14 15.355 24 16.723 24h4.635Zm-4.635 2c-.382 0-.763.358-.76.748V28h6v-1.343c.003-.427-.279-.657-.605-.657h-4.635Z" clip-rule="evenodd"/>
  <path d="M29.26 24c1.404 0 2.712 1.05 2.703 2.665V29a1 1 0 0 1-1 1h-4.774a1 1 0 1 1 0-2h3.774v-1.343c.003-.372-.266-.657-.702-.657h-3.298a1 1 0 1 1 0-2h3.298ZM17.439 10c1.364 0 2.524 1.081 2.524 2.474 0 1.338-1.073 2.526-2.5 2.526h-4.5v12.36c0 .83-.631 1.64-1.612 1.64H6.463c-.487 0-.928-.215-1.206-.615-.24-.347-.294-.736-.294-1.02V18a1 1 0 1 1 2 0v9h4V14.5a1.5 1.5 0 0 1 1.5-1.5h5a.52.52 0 0 0 .5-.526c0-.229-.204-.474-.524-.474H5.737c-1.014 0-1.774.782-1.774 1.68V19a1 1 0 1 1-2 0v-5.32c0-2.068 1.721-3.68 3.774-3.68h11.701Z"/>
  <path fill-rule="evenodd" d="M18.963 17a3 3 0 1 1 0 6 3 3 0 0 1 0-6Zm0 2a1 1 0 1 0 0 2 1 1 0 0 0 0-2Zm7.287-2a3 3 0 1 1 0 6 3 3 0 0 1 0-6Zm0 2a1 1 0 1 0 0 2 1 1 0 0 0 0-2Z" clip-rule="evenodd"/>
  <path d="M28.624 6c.742 0 1.339.592 1.339 1.335V15a1 1 0 1 1-2 0V8h-11a1 1 0 1 1 0-2h11.661Z"/>
  <path fill-rule="evenodd" d="M9.463 2a3.5 3.5 0 1 1 0 7 3.5 3.5 0 0 1 0-7Zm0 2a1.5 1.5 0 1 0 0 3 1.5 1.5 0 0 0 0-3Z" clip-rule="evenodd"/>
</svg>
