<svg xmlns="http://www.w3.org/2000/svg" width="32" height="32" fill="currentColor" viewBox="0 0 32 32">
  <path d="M24 14.393c-4.74-.524-11.26-.524-16 0v12.213c4.74.524 11.26.524 16 0V14.393Zm2 12.296c0 .965-.72 1.77-1.672 1.894l-.017.002c-4.924.553-11.698.553-16.623 0A1.897 1.897 0 0 1 6 26.689V14.31c0-.964.72-1.77 1.672-1.893l.016-.002c4.925-.553 11.7-.553 16.623 0v.001A1.895 1.895 0 0 1 26 14.31v12.38Z"/>
  <path d="M9 12v-1.479C9 6.451 12.059 3 15.995 3c.924 0 1.83.14 2.67.531.85.397 1.575 1.025 2.167 1.914a1 1 0 1 1-1.664 1.11c-.407-.611-.86-.983-1.349-1.211C17.32 5.11 16.724 5 15.995 5 13.318 5 11 7.394 11 10.521V12a1 1 0 1 1-2 0Z"/>
</svg>
