<svg xmlns="http://www.w3.org/2000/svg" width="32" height="32" fill="none" viewBox="0 0 32 32">
  <path fill="#3D3C3C" fill-rule="evenodd" d="M11 10.521C11 7.394 13.318 5 15.995 5c1.347 0 2.592.596 3.51 1.592.513.557.92 1.236 1.18 1.999a1 1 0 0 0 1.893-.644 7.612 7.612 0 0 0-1.603-2.71C19.717 3.87 17.954 3 15.995 3 12.058 3 9 6.451 9 10.521V12a1 1 0 0 0 .04.28c-.463.041-.915.086-1.352.135l-.016.002A1.912 1.912 0 0 0 6 14.311v12.378c0 .963.71 1.79 1.69 1.896 4.924.553 11.698.553 16.622 0l.016-.002A1.912 1.912 0 0 0 26 26.689V14.311c0-.963-.71-1.79-1.69-1.896-3.893-.438-8.943-.53-13.32-.275A1 1 0 0 0 11 12v-1.479ZM8 26.607V14.393c4.74-.524 11.26-.524 16 0v12.214c-4.74.524-11.26.524-16 0Z" clip-rule="evenodd"/>
</svg>
