<svg xmlns="http://www.w3.org/2000/svg" width="33" height="32" fill="currentColor" viewBox="0 0 33 32">
  <path d="M11.213 4a1 1 0 1 1 0 2h-1.5a3 3 0 0 0-3 3v14a3 3 0 0 0 3 3h14a3 3 0 0 0 3-3V9a3 3 0 0 0-3-3h-1.5a1 1 0 1 1 0-2h1.5a5 5 0 0 1 5 5v14a5 5 0 0 1-5 5h-14a5 5 0 0 1-5-5V9a5 5 0 0 1 5-5h1.5Zm9.603 18.005a1 1 0 0 1 0 1.99l-.103.005h-8a1 1 0 1 1 0-2h8l.103.005ZM22.713 19a1 1 0 1 1 0 2h-12a1 1 0 1 1 0-2h12Zm-6-15a1 1 0 0 1 1 1l-.002 8.587 3.295-3.294.076-.068a1 1 0 0 1 1.407 1.406l-.069.076-5 5-.073.066c-.006.006-.015.009-.021.014a1.005 1.005 0 0 1-.103.07.977.977 0 0 1-.161.078c-.011.005-.023.008-.034.011a.98.98 0 0 1-.136.037c-.008.002-.017.002-.025.003a.994.994 0 0 1-.15.013l-.004.001-.002-.001V17a1.01 1.01 0 0 1-.167-.015h-.004a.998.998 0 0 1-.576-.32l-4.958-4.958a1 1 0 1 1 1.414-1.414l3.291 3.291L15.713 5a1 1 0 0 1 1-1Z"/>
</svg>
