<svg xmlns="http://www.w3.org/2000/svg" width="32" height="32" fill="none" viewBox="0 0 32 32">
  <path fill="#3D3C3C" fill-rule="evenodd" d="M13.879 3.864a3.036 3.036 0 0 1 4.242 0l7.586 7.458a.971.971 0 0 1 0 1.39 1.012 1.012 0 0 1-1.414 0L17 5.542V23a1 1 0 1 1-2 0V5.542l-7.293 7.17a1.012 1.012 0 0 1-1.414 0 .971.971 0 0 1 0-1.39l7.586-7.458ZM27 20a1 1 0 0 1 1 1v5.336C28 28.391 26.295 30 24.252 30H7.748C5.705 30 4 28.391 4 26.336V21a1 1 0 1 1 2 0v5.336C6 27.228 6.75 28 7.748 28h16.504C25.25 28 26 27.228 26 26.336V21a1 1 0 0 1 1-1Z" clip-rule="evenodd"/>
</svg>
