<svg xmlns="http://www.w3.org/2000/svg" width="32" height="32" fill="none" viewBox="0 0 32 32">
  <path fill="#3D3C3C" fill-rule="evenodd" d="M4 16.005C4 9.38 9.375 4 16 4c5.998 0 10.973 4.404 11.86 10.152a1 1 0 1 0 1.976-.304C28.8 7.138 23 2 16 2 8.27 2 2 8.278 2 16.005c0 6.617 4.597 12.162 10.77 13.62a1 1 0 1 0 .46-1.946 11.944 11.944 0 0 1-4.201-1.91L9 21.758C8.994 20.82 9.785 20 10.85 20H14a1 1 0 1 0 0-2h-3.15C8.745 18 6.986 19.655 7 21.772l.016 2.183A11.948 11.948 0 0 1 4 16.005ZM16 8a3 3 0 1 0 0 6 3 3 0 0 0 0-6Zm-5 3a5 5 0 1 1 10 0 5 5 0 0 1-10 0Zm12.879 4.528a1 1 0 0 1 1.345-.414l3.062 1.602a1 1 0 0 1 .425 1.346l-.517 1c.247.333.46.686.638 1.053l1.215.058a1 1 0 0 1 .953.999v3.354a1 1 0 0 1-.967 1l-1.053.034a6.387 6.387 0 0 1-.25.528l-.004.007a7.267 7.267 0 0 1-.307.515l.652 1.122a1 1 0 0 1-.375 1.374l-3.14 1.766a1 1 0 0 1-1.385-.427l-.47-.947c-.356.04-.717.051-1.08.03l-.5.937a1 1 0 0 1-1.345.415l-3.09-1.618a1 1 0 0 1-.417-1.361l.53-.98a6.548 6.548 0 0 1-.605-.99l-1.056.034a1 1 0 0 1-1.032-.97l-.105-3.498a1 1 0 0 1 .966-1.03l1.051-.034a5.78 5.78 0 0 1 .256-.534 7.3 7.3 0 0 1 .297-.5l-.556-.907a1 1 0 0 1 .322-1.372l2.956-1.843a1 1 0 0 1 1.38.324l.557.903a6.325 6.325 0 0 1 1.148-.039l.501-.937Zm1.296 1.818-.354.662a1 1 0 0 1-1.056.513 4.313 4.313 0 0 0-1.788.061 1 1 0 0 1-1.092-.447l-.387-.629-1.26.786.39.633a1 1 0 0 1-.087 1.166 4.478 4.478 0 0 0-.854 1.609 1 1 0 0 1-.925.71l-.732.024.045 1.5.734-.024a1 1 0 0 1 .972.655c.211.577.529 1.106.948 1.554a1 1 0 0 1 .15 1.159l-.369.682 1.315.688.354-.662a1 1 0 0 1 1.056-.513c.6.106 1.21.081 1.788-.061a1 1 0 0 1 1.136.526l.335.674 1.338-.752-.472-.813a1 1 0 0 1 .099-1.144c.184-.22.353-.475.508-.76.145-.273.257-.554.346-.849a1 1 0 0 1 .925-.71l.762-.025v-1.434l-.889-.041a1 1 0 0 1-.892-.655 4.56 4.56 0 0 0-.948-1.554 1 1 0 0 1-.158-1.143l.364-.705-1.302-.681ZM24 23a1 1 0 1 1-2 0 1 1 0 0 1 2 0Zm2 0a3 3 0 1 1-6 0 3 3 0 0 1 6 0Z" clip-rule="evenodd"/>
</svg>
