<svg xmlns="http://www.w3.org/2000/svg" width="32" height="32" fill="currentColor" viewBox="0 0 32 32">
  <path fill-rule="evenodd" d="M13 14a1 1 0 0 1 1-1h3.802a3.202 3.202 0 0 1 3.196 3.204V20a.33.33 0 0 0 .331.333H22a1 1 0 0 1 1 1V24a1 1 0 0 1-1 1h-8a1 1 0 0 1-1-1v-2.667a1 1 0 0 1 1-1h1.002V18a.33.33 0 0 0-.332-.333H14a1 1 0 0 1-1-1V14Zm5.998 6.027v-3.823c0-.666-.54-1.204-1.196-1.204H15v.69A2.33 2.33 0 0 1 17.002 18v3.333a1 1 0 0 1-1 1H15V23h6v-.69a2.33 2.33 0 0 1-2.002-2.283ZM14 9.005A3.004 3.004 0 0 1 17 6c1.648 0 3 1.33 3 2.995A3.004 3.004 0 0 1 17 12c-1.65 0-3-1.341-3-2.995ZM17 8c-.551 0-1 .451-1 1.005 0 .544.449.995 1 .995.551 0 1-.451 1-1.005A.996.996 0 0 0 17 8ZM4 9a1 1 0 0 1 1-1h4a1 1 0 0 1 0 2H5a1 1 0 0 1-1-1Zm0 7a1 1 0 0 1 1-1h4a1 1 0 1 1 0 2H5a1 1 0 0 1-1-1Z" clip-rule="evenodd"/>
  <path fill-rule="evenodd" d="M7 11a1 1 0 0 1 1 1v4a1 1 0 1 1-2 0v-4a1 1 0 0 1 1-1ZM4 23a1 1 0 0 1 1-1h4a1 1 0 1 1 0 2H5a1 1 0 0 1-1-1Z" clip-rule="evenodd"/>
  <path fill-rule="evenodd" d="M7 18a1 1 0 0 1 1 1v3a1 1 0 1 1-2 0v-3a1 1 0 0 1 1-1Z" clip-rule="evenodd"/>
  <path fill-rule="evenodd" d="M9.442 4C8.673 4 8 4.656 8 5.496v3.338a1 1 0 1 1-2 0V5.496C6 3.593 7.528 2 9.442 2h16.116C27.473 2 29 3.593 29 5.496v21.008C29 28.407 27.473 30 25.558 30H9.442C7.528 30 6 28.407 6 26.504v-.554a1 1 0 1 1 2 0v.554C8 27.344 8.673 28 9.442 28h16.116c.769 0 1.442-.656 1.442-1.496V5.496C27 4.656 26.327 4 25.558 4H9.442Z" clip-rule="evenodd"/>
</svg>
