<svg xmlns="http://www.w3.org/2000/svg" width="32" height="32" fill="currentColor" viewBox="0 0 32 32">
  <path fill-rule="evenodd" d="M3.933 16C3.933 9.336 9.336 3.933 16 3.933c6.664 0 12.067 5.403 12.067 12.067 0 3.6-1.577 6.833-4.078 9.044l.01-1.338C24.014 21.612 22.252 20 20.176 20h-8.35C9.75 20 7.987 21.612 8 23.706v.002l.011 1.336A12.037 12.037 0 0 1 3.933 16Zm6.09 10.485A12.011 12.011 0 0 0 16 28.067c2.175 0 4.215-.576 5.977-1.582L22 23.694c.005-.889-.76-1.694-1.825-1.694h-8.35c-1.064 0-1.83.805-1.825 1.694l.023 2.79ZM16 1.933C8.231 1.933 1.933 8.231 1.933 16S8.231 30.067 16 30.067 30.067 23.769 30.067 16 23.769 1.933 16 1.933ZM16 10a3 3 0 1 0 0 6 3 3 0 0 0 0-6Zm-5 3a5 5 0 1 1 10 0 5 5 0 0 1-10 0Z" clip-rule="evenodd"/>
</svg>
