<svg xmlns="http://www.w3.org/2000/svg" width="32" height="32" fill="currentColor" viewBox="0 0 32 32">
  <path fill-rule="evenodd" d="M16 10a3 3 0 1 0 0 6 3 3 0 0 0 0-6Zm-5 3a5 5 0 1 1 10 0 5 5 0 0 1-10 0Zm-1 10.694.027 3.298a1 1 0 0 1-2 .016L8 23.708v-.002C7.987 21.612 9.75 20 11.825 20h8.35c2.076 0 3.838 1.612 3.825 3.706l-.027 3.302a1 1 0 1 1-2-.016L22 23.694c.005-.889-.76-1.694-1.825-1.694h-8.35c-1.064 0-1.83.805-1.825 1.694Z" clip-rule="evenodd"/>
  <path fill-rule="evenodd" d="M16 3.933C9.336 3.933 3.933 9.336 3.933 16c0 6.664 5.403 12.067 12.067 12.067 6.664 0 12.067-5.403 12.067-12.067 0-6.664-5.403-12.067-12.067-12.067ZM1.933 16C1.933 8.231 8.231 1.933 16 1.933S30.067 8.231 30.067 16 23.769 30.067 16 30.067 1.933 23.769 1.933 16Z" clip-rule="evenodd"/>
</svg>
