<svg xmlns="http://www.w3.org/2000/svg" width="32" height="32" fill="currentColor" viewBox="0 0 32 32">
  <path d="M28 16.038c0-.371-.038-.512-.161-.754-.114-.217-.223-.37-.927-1.07-.37-.364-.801-.813-.944-1l-.01-.014a4.864 4.864 0 0 1-.706-1.437c-.133-.474-.128-.994-.102-2.363.005-.417 0-.601-.016-.73a1.195 1.195 0 0 0-.108-.344l-.005-.01c-.217-.526-.75-.941-1.243-1.018l-.088-.005a31.889 31.889 0 0 0-1.168-.022c-.62 0-1.042-.004-1.37-.039a3.326 3.326 0 0 1-.931-.235h-.004a4.526 4.526 0 0 1-1.23-.735l-.004-.004c-.337-.276-.57-.545-1.29-1.399-.373-.438-.747-.681-1.122-.8l-.23-.036-.05-.01-.05-.012a1.49 1.49 0 0 0-.194-.003 3.554 3.554 0 0 0-.385.044c-.225.04-.556.175-.787.33l-.016.01-.023.017a4.151 4.151 0 0 0-.273.25c-.164.164-.36.378-.57.625l-.008.009c-.705.809-1.276 1.321-2.05 1.66l-.007.004c-.278.119-.531.234-.944.288-.33.043-.785.05-1.521.063-.77.014-1.112.025-1.32.047a.754.754 0 0 0-.303.09l-.01.005c-.437.19-.824.645-.955 1.22a1.079 1.079 0 0 0-.016.183c-.005.136-.006.331-.006.681.009.43.018.875.018.972.008.205-.01.443-.032.633a5.203 5.203 0 0 1-.121.688h-.001c-.206.79-.61 1.386-1.263 2.062l-.299.298c-.644.62-.818.841-.94 1.045-.256.441-.279 1.008-.09 1.414l.106.205c.036.06.077.117.13.184.064.08.147.173.262.295l.46.468c.823.819 1.09 1.142 1.398 1.798h-.002c.117.237.225.562.277.76a2.8 2.8 0 0 1 .102.58c.012.191.009.44.004.797v.007c-.022 1.112-.014 1.477.005 1.641l.024.118.003.013c.16.606.608 1.03 1.23 1.162.022.004.088.013.272.02.187.006.46.008.881.008 1.079 0 1.55.019 2.123.19l.253.083h.001a5.162 5.162 0 0 1 1.751 1.093c.006.005.013.01.019.017.075.07.18.183.292.305l.35.389.002.004c.488.558.827.87.956.95.573.352 1.28.367 1.807.076l.005-.003c.282-.154.475-.294 1.129-1.06.218-.258.513-.579.679-.735l.224-.203a4.874 4.874 0 0 1 1.855-.968c.46-.123.663-.12 1.907-.146h.002c.723-.015 1.015-.021 1.193-.04.099-.01.115-.016.312-.09.373-.144.75-.51.896-.887l.004-.01c.07-.172.091-.26.105-.355a4.57 4.57 0 0 0 .018-.636l-.01-.608c-.006-.559.002-.98.04-1.323.06-.522.19-.868.38-1.253l.01-.02c.332-.633.66-1.028 1.456-1.79.38-.37.57-.576.689-.739.098-.136.16-.257.233-.48.034-.103.034-.116.035-.122.004-.03.007-.089.007-.293Zm2 0c0 .188 0 .368-.023.541a2.521 2.521 0 0 1-.12.502 3.542 3.542 0 0 1-.514 1.026c-.23.315-.53.626-.917 1.002l-.005.005-.001-.001c-.713.683-.874.91-1.058 1.256l-.073.157a1.371 1.371 0 0 0-.111.433c-.026.226-.034.539-.029 1.064l.011.601v.008a6.37 6.37 0 0 1-.037.942 3.35 3.35 0 0 1-.23.826v-.001a3.678 3.678 0 0 1-2.035 2.019l-.005.002c-.241.09-.454.17-.818.21-.286.03-.694.038-1.363.051h-.001c-.662.013-.97.02-1.158.032a1.048 1.048 0 0 0-.274.045 2.853 2.853 0 0 0-1.206.679l-.013.014a9.298 9.298 0 0 0-.53.577l-.003.003c-.7.822-1.084 1.186-1.693 1.518h-.001c-1.197.658-2.675.58-3.825-.13l-.005-.002c-.41-.257-.926-.786-1.401-1.33a31.755 31.755 0 0 0-.452-.5l-.055-.056-.009-.01-.009-.007a3.162 3.162 0 0 0-1.05-.667c-.355-.125-.492-.157-1.71-.157-.8 0-1.222-.005-1.534-.065h-.007l-.007-.002c-1.359-.282-2.41-1.258-2.769-2.61-.129-.473-.124-.996-.098-2.322.005-.394.007-.543 0-.637a.876.876 0 0 0-.042-.202 2.98 2.98 0 0 0-.11-.335l-.02-.04-.011-.022-.01-.022a2.05 2.05 0 0 0-.268-.452c-.128-.164-.33-.38-.73-.778-.69-.687-.997-1.026-1.253-1.509l-.108-.217c-.48-1.032-.39-2.294.184-3.273l.003-.004c.269-.451.615-.829 1.27-1.46.726-.706.916-1.046 1.015-1.43l.002-.004a3.697 3.697 0 0 0 .088-.632c.004-.07.002-.102.002-.102l-.003-.038v-.038c0-.072-.008-.492-.017-.951l-.001-.011v-.01c0-.629-.006-.95.069-1.295l.002-.01c.259-1.14 1.036-2.14 2.098-2.607.267-.12.501-.208.902-.252.321-.036.778-.045 1.502-.059.804-.014 1.111-.022 1.299-.047.104-.013.125-.02.407-.14.376-.166.715-.42 1.346-1.143.429-.504.913-1.013 1.282-1.256a4.318 4.318 0 0 1 1.566-.642h.004c.165-.029.388-.058.62-.07.189-.008.449-.005.707.049l.001-.002.305.049.06.01.06.017c.73.211 1.363.622 1.908 1.19l.229.254v.001c.758.896.865 1.007 1.027 1.14.268.218.478.338.7.425.189.073.266.094.414.11.203.021.51.027 1.16.027.492 0 .987.01 1.295.026l.24.02.008.002h.01c1.226.187 2.321 1.093 2.792 2.223.119.278.207.535.25.865.039.293.039.619.034 1.014v.008c-.021 1.14-.013 1.512.006 1.678l.023.119.003.01c.055.207.231.563.38.768.007.01.027.032.063.072.047.053.11.12.183.197l.51.518.004.004c.625.621.939.958 1.19 1.384l.106.19.005.01c.285.56.377 1.019.377 1.657Z"/>
  <path d="M20.247 11.367a1.001 1.001 0 0 1 1.411-.095.998.998 0 0 1 .095 1.41l-6.998 7.99a1.001 1.001 0 0 1-1.506 0l-3.002-3.428a.998.998 0 0 1 .095-1.41 1.001 1.001 0 0 1 1.411.095l2.248 2.567 6.246-7.129Z"/>
</svg>
