<svg xmlns="http://www.w3.org/2000/svg" width="32" height="32" fill="currentColor" viewBox="0 0 32 32">
  <path d="M16.363 1.938C23.964 2.13 30.066 8.352 30.066 16c0 7.769-6.297 14.067-14.066 14.067l-.35-.005c-.817-.02-1.617-.11-2.394-.263a1 1 0 1 1 .389-1.962c.57.113 1.156.186 1.753.215l.602.015c6.664 0 12.066-5.403 12.066-12.067 0-6.56-5.234-11.897-11.755-12.063L16 3.934l-.602.014c-.597.03-1.183.102-1.753.215l-.102.015a1 1 0 0 1-.287-1.977l.335-.061A14.153 14.153 0 0 1 16 1.934l.363.004ZM4.578 22.43a1 1 0 0 1 1.388.274 12.144 12.144 0 0 0 2.846 2.99l.485.341.082.062A1.001 1.001 0 0 1 8.27 27.75l-.087-.053-.286-.196a14.141 14.141 0 0 1-3.594-3.685 1 1 0 0 1 .274-1.386Zm15.67-11.088a1 1 0 0 1 1.505 1.316l-6.998 8a1.001 1.001 0 0 1-1.506 0l-3.002-3.431-.063-.08a1.001 1.001 0 0 1 1.498-1.31l.07.073 2.249 2.57 6.246-7.138ZM2.226 13.157a1 1 0 0 1 1.936.488l-.1.575a12.177 12.177 0 0 0 0 3.56l.1.576.015.102a1 1 0 0 1-1.951.386l-.026-.1-.061-.334a14.158 14.158 0 0 1 .061-5.154l.026-.099Zm5.957-8.853a1 1 0 0 1 1.113 1.662 12.138 12.138 0 0 0-3.331 3.33 1 1 0 0 1-1.662-1.112 14.139 14.139 0 0 1 3.88-3.88Z"/>
</svg>
