<svg xmlns="http://www.w3.org/2000/svg" width="32" height="32" fill="currentColor" viewBox="0 0 32 32">
  <path fill-rule="evenodd" d="M2 7.517C2 5.55 3.62 4 5.572 4h20.865C28.382 4 30 5.552 30 7.517v13.966C30 23.445 28.393 25 26.437 25H17v3h5a1 1 0 1 1 0 2H10a1 1 0 1 1 0-2h5v-3H5.572C3.621 25 2 23.45 2 21.483v-1.116a.998.998 0 0 1 0-.72V7.516Zm2 13.49v.476C4 22.303 4.682 23 5.572 23h20.865c.885 0 1.563-.692 1.563-1.517v-.476H4Zm24-2H4V7.517C4 6.697 4.682 6 5.572 6h20.865C27.315 6 28 6.695 28 7.517v11.49ZM13.495 8.089a1 1 0 0 1 1.002.003l6.03 3.519a1 1 0 0 1 0 1.727l-6.03 3.52a1 1 0 0 1-1.504-.865V8.956a1 1 0 0 1 .502-.867Zm1.498 2.608v3.555l3.045-1.777-3.045-1.777Z" clip-rule="evenodd"/>
</svg>
