<svg xmlns="http://www.w3.org/2000/svg" width="32" height="32" fill="currentColor" viewBox="0 0 32 32">
  <path d="M14 4a1 1 0 1 1 0 2H5.567C4.684 6 4 6.698 4 7.52V19h24v-1a1 1 0 1 1 2 0v3.48c0 1.962-1.615 3.52-3.567 3.52H17v3h5a1 1 0 1 1 0 2H10a1 1 0 1 1 0-2h5v-3H5.567C3.615 25 2 23.442 2 21.48V7.52C2 5.558 3.615 4 5.567 4H14ZM4 21.48c0 .822.684 1.52 1.567 1.52h20.866c.883 0 1.567-.698 1.567-1.52V21H4v.48ZM13.531 8a1 1 0 0 1 .91.664L16.704 15H19a1 1 0 1 1 0 2h-3a1 1 0 0 1-.941-.664l-1.644-4.602-1.996 4.66A1 1 0 0 1 10.5 17H6a1 1 0 1 1 0-2h3.84l2.741-6.394.07-.135a1 1 0 0 1 .88-.471ZM22 2a6 6 0 0 1 4.889 9.475l2.818 2.818a1 1 0 1 1-1.414 1.414l-2.818-2.818A6 6 0 1 1 22 2Zm0 2a4 4 0 1 0 0 8 4 4 0 0 0 0-8Z"/>
</svg>
