<svg xmlns="http://www.w3.org/2000/svg" width="32" height="32" fill="currentColor" viewBox="0 0 32 32">
  <path d="M20 13a2 2 0 0 1 2 2v13a2 2 0 0 1-2 2h-8a2 2 0 0 1-2-2V15a2 2 0 0 1 2-2h8Zm-8 15h8v-3h-8v3Zm0-5h8v-3h-8v3Zm4.126-21c3.656 0 6.682 2.563 7.726 6h.043c1.622 0 3.142.74 4.246 1.837C29.245 10.934 30 12.455 30 14.102c0 1.806-.44 3.52-1.444 4.808C27.524 20.23 25.974 21 24 21a1 1 0 1 1 0-2c1.405 0 2.355-.522 2.979-1.321.65-.833 1.02-2.066 1.021-3.576 0-1.032-.48-2.063-1.269-2.847-.79-.785-1.823-1.256-2.837-1.256-.988 0-1.666.268-2.162.6a1 1 0 0 1-1.114-1.662 5.335 5.335 0 0 1 1.237-.615C20.97 5.763 18.706 4 16.126 4c-3.257 0-6.028 2.824-6.122 6.505a1 1 0 0 1-.952 1.604l-.72-.123a1.013 1.013 0 0 1-.049-.01c-.797-.176-1.337-.124-1.828.057l.001.001C4.916 12.602 4 13.95 4 15.287 4 17.26 5.713 19 8.003 19a1 1 0 1 1 0 2C4.706 21 2 18.46 2 15.287c0-2.253 1.516-4.3 3.764-5.13.711-.262 1.444-.345 2.27-.248C8.404 5.534 11.822 2 16.126 2ZM12 18h8v-3h-8v3Z"/>
</svg>
