<svg xmlns="http://www.w3.org/2000/svg" width="32" height="32" fill="none" viewBox="0 0 32 32">
  <path fill="#3D3C3C" fill-rule="evenodd" d="M16 5c-3.527 0-6.42 2.779-6.624 6.301l.025.005a1 1 0 0 1-.364 1.966l-.72-.133a1.061 1.061 0 0 1-.052-.011c-.783-.19-1.306-.132-1.782.06l.94-.85-.94.85C4.97 13.797 4 15.28 4 16.832c0 2.29 1.795 4.142 4.003 4.142a1 1 0 1 1 0 2C4.623 22.974 2 20.157 2 16.832c0-2.364 1.462-4.584 3.736-5.5a4.366 4.366 0 0 1 1.655-.32C7.74 6.533 11.452 3 16 3c3.837 0 7.08 2.517 8.206 5.983 1.533.096 2.94.888 3.965 2C29.268 12.171 30 13.799 30 15.54c0 1.94-.432 3.775-1.42 5.155-1.017 1.422-2.571 2.279-4.58 2.279a1 1 0 0 1 0-2c1.37 0 2.316-.552 2.954-1.443C27.62 18.6 28 17.218 28 15.54c0-1.183-.503-2.338-1.299-3.201-.8-.867-1.824-1.365-2.806-1.365-.968 0-1.636.284-2.13.646a1 1 0 0 1-1.18-1.614 5.205 5.205 0 0 1 1.58-.788C21.194 6.746 18.796 5 16 5Zm-3 10a2 2 0 0 0-2 2v10a2 2 0 0 0 2 2h6a2 2 0 0 0 2-2V17a2 2 0 0 0-2-2h-6Zm6 8v-2h-6v2h6Zm-6 2h6v2h-6v-2Zm0-6h6v-2h-6v2Z" clip-rule="evenodd"/>
</svg>
