<svg xmlns="http://www.w3.org/2000/svg" width="32" height="32" fill="currentColor" viewBox="0 0 32 32">
  <path fill-rule="evenodd" d="M13.48 3.556c1.037-2.075 4.002-2.075 5.039 0l11.18 22.369c.936 1.87-.418 4.075-2.519 4.075H4.82c-2.088 0-3.457-2.2-2.52-4.075l11.18-22.37Zm1.789.894L4.088 26.82a.818.818 0 0 0 .73 1.18H27.18a.814.814 0 0 0 .731-1.18L16.731 4.45a.818.818 0 0 0-1.462 0ZM16 10.008c.69 0 1.25.56 1.25 1.25v7.492a1.25 1.25 0 1 1-2.5 0v-7.492c0-.69.56-1.25 1.25-1.25Zm.02 14.994a1.5 1.5 0 1 0 0-3 1.5 1.5 0 0 0 0 3Z" clip-rule="evenodd"/>
</svg>
