<svg xmlns="http://www.w3.org/2000/svg" width="33" height="32" fill="currentColor" viewBox="0 0 33 32">
  <path d="M26.65 2c2.14 0 3.704 1.885 3.704 3.99V14a1 1 0 0 1-2 0v-4h-24v16.07c0 1.143.836 1.93 1.703 1.93h9.297a1 1 0 0 1 0 2H6.057c-2.122 0-3.703-1.84-3.703-3.93V5.99C2.354 3.885 3.918 2 6.058 2H26.65Zm-5.337 14.002a.982.982 0 0 1 .142.002c.008 0 .015.003.022.004a.969.969 0 0 1 .321.098l.025.011.034.02.05.029.033.025.046.035.021.018a1.036 1.036 0 0 1 .225.279.994.994 0 0 1 .122.477v3.586l1 1 1-1V17a1.001 1.001 0 0 1 1.377-.926c2.202.897 3.623 2.889 3.623 5.426 0 2.015-.93 3.915-2.5 5.041l.005 2.457-.005.103a1 1 0 0 1-1.99.003l-.005-.102-.005-3a1 1 0 0 1 .51-.874c1.19-.669 1.99-2.054 1.99-3.628 0-1.078-.364-1.98-1-2.65V21a1 1 0 0 1-.293.707l-2 2a.997.997 0 0 1-.236.174l-.044.021-.037.017a.906.906 0 0 1-.066.025l-.015.006c-.022.008-.045.013-.068.019l-.026.007a1.006 1.006 0 0 1-.103.016l-.033.003a.85.85 0 0 1-.154.001c-.012 0-.023-.002-.035-.003a1.133 1.133 0 0 1-.06-.009c-.01-.002-.022-.003-.032-.006-.018-.003-.034-.008-.051-.012a.865.865 0 0 1-.049-.014l-.021-.007a.986.986 0 0 1-.149-.063l-.033-.02a.998.998 0 0 1-.126-.087l-.076-.068-2-2a1 1 0 0 1-.293-.707v-2.115c-.625.671-1 1.566-1 2.615 0 1.554.847 2.958 2.006 3.637l.108.074a1 1 0 0 1 .386.789v3a1 1 0 0 1-2 0v-2.468c-1.51-1.116-2.5-3.001-2.5-5.032 0-2.55 1.505-4.52 3.592-5.413a1 1 0 0 1 .11-.043.996.996 0 0 1 .257-.042ZM6.058 4c-.85 0-1.704.795-1.704 1.99V8h24V5.99C28.354 4.795 27.5 4 26.65 4H6.058Zm13.694 1.014c.344.064.602.343.602.677v.618a.637.637 0 0 1-.05.237c-.007.017-.013.034-.021.05a.666.666 0 0 1-.12.168c-.015.014-.027.03-.043.043a.746.746 0 0 1-.067.05l-.041.029a.772.772 0 0 1-.092.046l-.032.014c-.028.011-.057.018-.087.026l-.057.014a.821.821 0 0 1-.143.014h-.494l-.152-.014a.794.794 0 0 1-.132-.039l-.032-.013a.766.766 0 0 1-.088-.043l-.036-.024a.752.752 0 0 1-.07-.053c-.011-.009-.023-.018-.033-.028a.69.69 0 0 1-.148-.203l-.012-.03a.649.649 0 0 1-.05-.244V5.69a.648.648 0 0 1 .013-.13l.011-.039a.648.648 0 0 1 .03-.088l.019-.037a.668.668 0 0 1 .165-.209.75.75 0 0 1 .071-.053c.011-.008.021-.016.033-.023a.77.77 0 0 1 .094-.047l.03-.012a.793.793 0 0 1 .135-.04L19.107 5h.494l.151.014Zm3 0c.344.064.602.343.602.677v.618a.637.637 0 0 1-.05.237c-.007.017-.013.034-.021.05a.666.666 0 0 1-.12.168c-.015.014-.027.03-.043.043a.746.746 0 0 1-.067.05l-.041.029a.772.772 0 0 1-.092.046l-.032.014c-.028.011-.057.018-.087.026l-.057.014a.821.821 0 0 1-.143.014h-.494l-.152-.014a.794.794 0 0 1-.132-.039l-.032-.013a.766.766 0 0 1-.088-.043l-.036-.024a.752.752 0 0 1-.07-.053c-.011-.009-.023-.018-.033-.028a.69.69 0 0 1-.148-.203l-.012-.03a.649.649 0 0 1-.05-.244V5.69a.648.648 0 0 1 .013-.13l.011-.039a.648.648 0 0 1 .03-.088l.019-.037a.668.668 0 0 1 .165-.209.75.75 0 0 1 .071-.053c.011-.008.021-.016.033-.023a.77.77 0 0 1 .094-.047l.03-.012a.793.793 0 0 1 .135-.04L22.107 5h.494l.151.014Zm3 0c.344.064.602.343.602.677v.618a.637.637 0 0 1-.05.237c-.007.017-.013.034-.021.05a.666.666 0 0 1-.12.168c-.015.014-.027.03-.043.043a.746.746 0 0 1-.067.05l-.041.029a.772.772 0 0 1-.092.046l-.032.014c-.028.011-.057.018-.087.026l-.057.014a.821.821 0 0 1-.143.014h-.494l-.152-.014a.794.794 0 0 1-.132-.039l-.032-.013a.766.766 0 0 1-.088-.043l-.036-.024a.752.752 0 0 1-.07-.053c-.011-.009-.023-.018-.033-.028a.69.69 0 0 1-.148-.203l-.012-.03a.649.649 0 0 1-.05-.244V5.69a.648.648 0 0 1 .013-.13l.011-.039a.648.648 0 0 1 .03-.088l.019-.037a.668.668 0 0 1 .165-.209.75.75 0 0 1 .071-.053c.011-.008.021-.016.033-.023a.77.77 0 0 1 .094-.047l.03-.012a.793.793 0 0 1 .135-.04L25.107 5h.494l.151.014Z"/>
</svg>
