<svg xmlns="http://www.w3.org/2000/svg" width="32" height="32" fill="currentColor" viewBox="0 0 32 32">
  <path fill-rule="evenodd" d="M25 2a1 1 0 0 1 1 1v4a1 1 0 0 1-1 1h-4a1 1 0 1 1 0-2h3V3a1 1 0 0 1 1-1ZM6 25a1 1 0 0 1 1-1h4a1 1 0 1 1 0 2H8v3a1 1 0 1 1-2 0v-4Z" clip-rule="evenodd"/>
  <path fill-rule="evenodd" d="M16 4C9.37 4 4 9.37 4 16c0 2.19.588 4.235 1.608 6a1 1 0 0 1-1.732 1A13.938 13.938 0 0 1 2 16C2 8.265 8.265 2 16 2c3.816 0 7.142 1.228 9.707 3.793a1 1 0 0 1-1.414 1.414C22.153 5.067 19.36 4 16 4Zm10.757 4.634A1 1 0 0 1 28.124 9 13.937 13.937 0 0 1 30 16c0 7.735-6.265 14-14 14-3.816 0-7.142-1.228-9.707-3.793a1 1 0 1 1 1.414-1.414C9.848 26.933 12.64 28 16 28c6.63 0 12-5.37 12-12 0-2.19-.588-4.235-1.608-6a1 1 0 0 1 .365-1.366Z" clip-rule="evenodd"/>
  <path fill-rule="evenodd" d="M13.397 7.294A1 1 0 0 1 14.106 7h3.878a1 1 0 0 1 1 .982l.025 1.369c.449.21.872.464 1.264.756l1.086-.624a1 1 0 0 1 1.367.371l1.971 3.455a1 1 0 0 1-.37 1.362l-1.084.623c.026.238.04.481.042.73v.008a8.338 8.338 0 0 1-.035.738l1.114.666a1 1 0 0 1 .357 1.353l-1.936 3.401a1 1 0 0 1-1.38.365l-1.099-.654a6.86 6.86 0 0 1-1.218.702l.006 1.282a1 1 0 0 1-1.014 1.005l-3.906-.054a1 1 0 0 1-.986-.995l-.006-1.306a7.328 7.328 0 0 1-1.255-.752l-1.086.624a1 1 0 0 1-1.367-.372l-1.971-3.454a1 1 0 0 1 .37-1.363l1.083-.622a6.684 6.684 0 0 1-.04-.738c0-.244.01-.491.034-.739l-1.114-.665a1 1 0 0 1-.357-1.353l1.935-3.402a1 1 0 0 1 1.382-.364l1.098.654a6.887 6.887 0 0 1 1.217-.702l-.005-1.283a1 1 0 0 1 .291-.71ZM15.11 9l.004.968a1 1 0 0 1-.695.957 4.85 4.85 0 0 0-1.769 1.021 1 1 0 0 1-1.182.117l-.82-.488-.946 1.664.846.505a1 1 0 0 1 .467 1.058 5.377 5.377 0 0 0 .014 2.12 1 1 0 0 1-.481 1.065l-.814.469.98 1.717.814-.468a1 1 0 0 1 1.17.126c.53.48 1.142.854 1.813 1.09a1 1 0 0 1 .668.939l.005.99 1.906.026-.005-.954a1 1 0 0 1 .695-.957 4.852 4.852 0 0 0 1.77-1.021 1 1 0 0 1 1.182-.118l.82.489.946-1.664-.846-.506a1 1 0 0 1-.467-1.058 5.368 5.368 0 0 0-.015-2.119 1 1 0 0 1 .482-1.066l.814-.468-.98-1.717-.814.468a1 1 0 0 1-1.17-.126 5.337 5.337 0 0 0-1.813-1.09 1 1 0 0 1-.668-.925L17.002 9H15.11Z" clip-rule="evenodd"/>
  <path fill-rule="evenodd" d="M16 17.5a1.5 1.5 0 1 0 0-3 1.5 1.5 0 0 0 0 3Zm0 2a3.5 3.5 0 1 0 0-7 3.5 3.5 0 0 0 0 7Z" clip-rule="evenodd"/>
</svg>
