<svg xmlns="http://www.w3.org/2000/svg" width="32" height="32" fill="currentColor" viewBox="0 0 32 32">
  <path fill-rule="evenodd" d="M16 4C9.37 4 4 9.37 4 16c0 2.19.588 4.235 1.608 6a1 1 0 0 1-1.732 1A13.938 13.938 0 0 1 2 16C2 8.265 8.265 2 16 2c3.018 0 5.73.768 8 2.358V3a1 1 0 1 1 2 0v4a1 1 0 0 1-1 1h-4a1 1 0 1 1 0-2h1.858C20.954 4.665 18.654 4 16 4ZM7 24a1 1 0 0 0-1 1v4a1 1 0 1 0 2 0v-1.358C10.27 29.232 12.982 30 16 30c7.735 0 14-6.265 14-14 0-2.554-.686-4.943-1.876-7a1 1 0 0 0-1.732 1A11.938 11.938 0 0 1 28 16c0 6.63-5.37 12-12 12-2.654 0-4.954-.665-6.858-2H11a1 1 0 1 0 0-2H7Zm6.398-16.706A1 1 0 0 1 14.106 7h3.878a1 1 0 0 1 1 .982l.025 1.369c.449.21.872.464 1.264.756l1.086-.624a1 1 0 0 1 1.367.371l1.971 3.455a1 1 0 0 1-.37 1.362l-1.084.623c.026.238.04.481.042.73v.008a8.338 8.338 0 0 1-.035.738l1.114.666a1 1 0 0 1 .357 1.353l-1.935 3.401a1 1 0 0 1-1.382.365l-1.098-.654a6.86 6.86 0 0 1-1.218.702l.006 1.282a1 1 0 0 1-1.014 1.005l-3.906-.054a1 1 0 0 1-.986-.995l-.006-1.306a7.325 7.325 0 0 1-1.255-.752l-1.086.624a1 1 0 0 1-1.367-.372l-1.971-3.454a1 1 0 0 1 .37-1.363l1.083-.622a6.687 6.687 0 0 1-.04-.738c0-.244.01-.491.034-.739l-1.114-.665a1 1 0 0 1-.357-1.353l1.935-3.402a1 1 0 0 1 1.382-.364l1.098.654a6.86 6.86 0 0 1 1.218-.702l-.006-1.283a1 1 0 0 1 .292-.71ZM15.11 9l.005.968a1 1 0 0 1-.696.957 4.85 4.85 0 0 0-1.769 1.021 1 1 0 0 1-1.182.117l-.82-.488-.946 1.664.846.505a1 1 0 0 1 .467 1.058 5.377 5.377 0 0 0 .014 2.12 1 1 0 0 1-.481 1.065l-.814.469.98 1.717.814-.468a1 1 0 0 1 1.17.126c.53.48 1.142.854 1.813 1.09a1 1 0 0 1 .669.939l.004.99 1.906.026-.005-.954a1 1 0 0 1 .695-.957 4.852 4.852 0 0 0 1.77-1.021 1 1 0 0 1 1.182-.118l.82.489.946-1.664-.846-.506a1 1 0 0 1-.467-1.058 5.376 5.376 0 0 0-.014-2.119 1 1 0 0 1 .481-1.066l.814-.468-.98-1.717-.814.468a1 1 0 0 1-1.17-.126 5.339 5.339 0 0 0-1.813-1.09 1 1 0 0 1-.668-.925L17.002 9H15.11Zm2.39 7a1.5 1.5 0 1 1-3 0 1.5 1.5 0 0 1 3 0Zm2 0a3.5 3.5 0 1 1-7 0 3.5 3.5 0 0 1 7 0Z" clip-rule="evenodd"/>
</svg>
