<svg xmlns="http://www.w3.org/2000/svg" width="32" height="32" fill="currentColor" viewBox="0 0 32 32">
  <path fill-rule="evenodd" d="M6.29 6c-.488 0-.946.239-1.225.64l-2.792 4c-.694.994.015 2.36 1.225 2.36H6.03v14c0 .552.446 1 .997 1a1 1 0 0 0 .997-1v-2.816l8.207-4.802 7.745 4.316V27c0 .552.446 1 .997 1a1 1 0 0 0 .997-1V13.134a.84.84 0 0 0 0-.05V13h2.532c1.21 0 1.919-1.366 1.225-2.36l-2.791-4A1.494 1.494 0 0 0 25.71 6H6.29Zm16.891 7H8.883l7.324 4.08L23.18 13Zm-4.947 5.21 5.742 3.2v-6.56l-5.742 3.36Zm-4.03.043-6.18-3.444v7.06l6.18-3.616ZM4.456 11l2.093-3h18.902l2.093 3H4.456Z" clip-rule="evenodd"/>
  <path fill-rule="evenodd" d="M6.29 6c-.488 0-.946.239-1.225.64l-2.792 4c-.694.994.015 2.36 1.225 2.36H6.03v14c0 .552.446 1 .997 1a1 1 0 0 0 .997-1v-2.816l8.207-4.802 7.745 4.316V27c0 .552.446 1 .997 1a1 1 0 0 0 .997-1V13.134a.84.84 0 0 0 0-.05V13h2.532c1.21 0 1.919-1.366 1.225-2.36l-2.791-4A1.494 1.494 0 0 0 25.71 6H6.29Zm16.891 7H8.883l7.324 4.08L23.18 13Zm-4.947 5.21 5.742 3.2v-6.56l-5.742 3.36Zm-4.03.043-6.18-3.444v7.06l6.18-3.616ZM4.456 11l2.093-3h18.902l2.093 3H4.456Z" clip-rule="evenodd"/>
</svg>
