<svg xmlns="http://www.w3.org/2000/svg" width="33" height="32" fill="currentColor" viewBox="0 0 33 32">
  <path fill-rule="evenodd" d="M23.71 20a3 3 0 1 1 0 6 3 3 0 0 1 0-6Zm0 2a1 1 0 1 0 0 2 1 1 0 0 0 0-2Z" clip-rule="evenodd"/>
  <path fill-rule="evenodd" d="M24.642 15.441a1 1 0 0 1 1.293-.327l3.062 1.602a1 1 0 0 1 .424 1.345l-.518 1.002c.247.332.46.685.637 1.052l1.217.058a1 1 0 0 1 .953.999v3.354a1 1 0 0 1-.867.992l-.1.008-1.054.034a6.377 6.377 0 0 1-.25.528l-.003.007a7.306 7.306 0 0 1-.308.513l.653 1.124a1 1 0 0 1-.374 1.373l-3.14 1.767a1.002 1.002 0 0 1-1.386-.428l-.471-.949c-.356.04-.716.052-1.078.031l-.5.939a1 1 0 0 1-1.346.415l-3.09-1.617a1.001 1.001 0 0 1-.417-1.362l.53-.982a6.537 6.537 0 0 1-.603-.99l-1.057.036a1.001 1.001 0 0 1-1.024-.87l-.008-.1-.107-3.498a1 1 0 0 1 .968-1.03l1.052-.034c.075-.179.159-.358.255-.535a7.1 7.1 0 0 1 .297-.498l-.557-.908a1 1 0 0 1 .323-1.372l2.955-1.843.087-.048a1 1 0 0 1 1.294.373l.557.903a6.314 6.314 0 0 1 1.146-.04l.502-.937.053-.087Zm.89 2.567a1 1 0 0 1-1.057.512 4.306 4.306 0 0 0-1.57.014l-.217.048a1 1 0 0 1-1.092-.446l-.389-.63-1.258.785.388.634.073.141a1 1 0 0 1-.158 1.025 4.603 4.603 0 0 0-.51.762 4.211 4.211 0 0 0-.272.624l-.072.222a1 1 0 0 1-.925.711l-.733.024.046 1.499.734-.024.16.008a1 1 0 0 1 .81.647c.212.578.53 1.107.95 1.555a1 1 0 0 1 .214 1.013l-.065.145-.369.683 1.315.688.354-.662.087-.134a1 1 0 0 1 .97-.38c.598.107 1.21.082 1.787-.06l.17-.027a1 1 0 0 1 .966.552l.334.674 1.338-.752-.47-.811a1 1 0 0 1 .097-1.145 4.59 4.59 0 0 0 .507-.756c.146-.274.259-.557.348-.852l.057-.149c.16-.33.492-.55.868-.563l.762-.025v-1.433l-.888-.042a1 1 0 0 1-.892-.654 4.598 4.598 0 0 0-.796-1.383l-.153-.171a1.001 1.001 0 0 1-.158-1.144l.364-.705-1.302-.681-.353.663Z" clip-rule="evenodd"/>
  <path d="M14.73 2c6.096 0 11.135 4.527 11.915 10.4l.061.573.004.102a1 1 0 0 1-1.982.167l-.014-.101-.051-.477C24.013 7.776 19.815 4 14.73 4 9.194 4 4.71 8.475 4.71 13.99c0 5.043 3.809 9.277 8.699 9.96l.476.054.102.015a1 1 0 0 1-.18 1.981l-.103-.004-.57-.065C7.274 25.114 2.71 20.052 2.71 13.989 2.71 7.365 8.094 2 14.73 2Z"/>
  <path d="M15 7a1 1 0 0 1 1 1v4.723l1.358 2.262.048.091A1 1 0 0 1 15.7 16.1l-.057-.085-1.5-2.5A1 1 0 0 1 14 13V8a1 1 0 0 1 1-1Z"/>
</svg>
