<svg xmlns="http://www.w3.org/2000/svg" width="32" height="32" fill="currentColor" viewBox="0 0 32 32">
  <path fill-rule="evenodd" d="M1.75 4.971c0-1.788 1.463-3.221 3.249-3.221h10.486c.22 0 .419.096.556.248l5.991 6.591a.75.75 0 0 1 .195.505v4.156a.75.75 0 1 1-1.498 0v-3H16.8c-1.18 0-2.063-1.008-2.063-2.148V3.25H4.999c-.976 0-1.75.779-1.75 1.722l-.032 18.28a.75.75 0 1 1-1.498-.003L1.75 4.97Zm14.484 3.13V4.44l3.919 4.311h-3.355c-.267 0-.564-.248-.564-.648Zm-9.74 7.649c-.965 0-1.747.784-1.747 1.75v11c0 .966.782 1.75 1.748 1.75H28.47a1.75 1.75 0 0 0 1.748-1.75v-11a1.75 1.75 0 0 0-1.748-1.75H6.495Zm-.249 1.75a.25.25 0 0 1 .25-.25H28.47a.25.25 0 0 1 .25.25v11a.25.25 0 0 1-.25.25H6.495a.25.25 0 0 1-.25-.25v-11Zm15.293 2.243c-.14.09-.26.22-.34.38l-1.358 2.63-1.359-2.65c-.09-.16-.2-.29-.34-.38-.3-.19-.729-.2-1.018.1a.75.75 0 0 0-.18.5v5.34c0 .18.06.35.18.49h.01c.27.29.739.29.999.01.13-.14.2-.32.2-.5v-2.95l.719 1.4c.08.15.19.27.32.36.269.17.659.17.928 0 .13-.08.24-.2.32-.36l.71-1.39v2.94c0 .18.059.35.199.51.14.15.32.22.52.22s.379-.08.509-.23c.13-.14.2-.31.2-.5v-5.31c0-.2-.07-.38-.21-.51-.27-.3-.72-.29-1.02-.1h.01Zm-9.66-.05c.09.05.16.13.21.23v.01c.11.19.11.41 0 .6l-1.728 3.04v2.09c0 .19-.07.37-.21.52-.14.14-.33.22-.52.22a.71.71 0 0 1-.509-.21.813.813 0 0 1-.21-.53v-2.09l-1.727-3.04a.613.613 0 0 1-.02-.6c.23-.4.739-.39 1.068-.18.15.09.28.23.37.4l1.039 1.94 1.039-1.94c.09-.17.21-.31.36-.4.25-.16.589-.22.839-.06Zm15.803 5.56a.683.683 0 0 0-.48-.21h-2.077v-4.69c0-.2-.07-.38-.21-.51a.697.697 0 0 0-1.039 0c-.13.14-.2.32-.2.51v5.19c0 .23.08.44.24.6.16.17.37.27.6.27h2.687c.18 0 .35-.07.48-.21.119-.13.189-.29.189-.47s-.07-.34-.19-.47v-.01Zm-13.305-5.46c.14.1.26.25.32.43l1.767 5.33c.06.2.03.4-.08.57-.13.19-.31.28-.519.28-.19 0-.37-.06-.52-.17a.898.898 0 0 1-.309-.45l-.35-1.13h-1.698l-.36 1.15a.92.92 0 0 1-.299.44c-.3.24-.78.23-1.009-.11a.618.618 0 0 1-.08-.57l1.768-5.33c.06-.18.17-.33.32-.44a.854.854 0 0 1 1.049 0Zm-.54 2.13-.44 1.41h.88l-.44-1.41Z" clip-rule="evenodd"/>
</svg>
