<svg xmlns="http://www.w3.org/2000/svg" width="33" height="32" fill="currentColor" viewBox="0 0 33 32">
  <path d="M5 2a1 1 0 0 1 1 1v3.68C8.088 4.486 11.005 3 14.314 3 20.75 3 26 8.132 26 14.5c0 2.809-1.023 5.376-2.716 7.37l6.423 6.423.069.076a1 1 0 0 1-1.407 1.406l-.076-.068-6.431-6.432A11.757 11.757 0 0 1 14.314 26c-5.211 0-9.638-3.36-11.14-8.016l-.138-.454-.022-.1a1 1 0 0 1 1.918-.53l.032.096.112.375C6.315 21.206 9.976 24 14.314 24 19.68 24 24 19.73 24 14.5S19.68 5 14.314 5C11.19 5 8.427 6.636 6.653 9H12a1 1 0 0 1 0 2H5a1 1 0 0 1-1-1V3a1 1 0 0 1 1-1Z"/>
</svg>
