<svg xmlns="http://www.w3.org/2000/svg" width="32" height="32" fill="currentColor" viewBox="0 0 32 32">
  <path fill-rule="evenodd" d="M13.433 3.933a9.5 9.5 0 1 0 0 19 9.5 9.5 0 0 0 0-19Zm-11.5 9.5c0-6.35 5.15-11.5 11.5-11.5 6.352 0 11.5 5.15 11.5 11.5 0 2.816-1.011 5.395-2.691 7.394l7.398 7.4a1 1 0 0 1-1.414 1.413l-7.399-7.398a11.452 11.452 0 0 1-7.394 2.691c-6.35 0-11.5-5.148-11.5-11.5ZM14.5 9a1 1 0 1 0-2 0v3.5H9a1 1 0 1 0 0 2h3.5V18a1 1 0 1 0 2 0v-3.5H18a1 1 0 1 0 0-2h-3.5V9Z" clip-rule="evenodd"/>
</svg>
