<svg width="24" height="24" viewBox="0 0 24 24" fill="none" xmlns="http://www.w3.org/2000/svg">
<path fill-rule="evenodd" clip-rule="evenodd" d="M10.8982 7.50036C11.2065 7.5099 11.4776 7.70725 11.5813 7.99775L13.2785 12.75H19.5C19.9142 12.75 20.25 13.0858 20.25 13.5C20.25 13.9142 19.9142 14.25 19.5 14.25H12.75C12.433 14.25 12.1503 14.0507 12.0437 13.7523L10.8115 10.3021L9.31436 13.7954C9.19617 14.0712 8.92502 14.25 8.625 14.25H4.5C4.08579 14.25 3.75 13.9142 3.75 13.5C3.75 13.0858 4.08579 12.75 4.5 12.75H8.13045L10.1856 7.95456C10.3072 7.67103 10.5899 7.49082 10.8982 7.50036Z" fill="black"/>
<path fill-rule="evenodd" clip-rule="evenodd" d="M9.92448 4.67055C9.05135 4.04725 7.95288 3.57503 6.7577 3.7799L6.75708 3.78C5.84174 3.93612 5.0802 4.47837 4.47571 5.1541C3.8712 5.82985 3.46833 6.59117 3.27286 7.07128C2.58809 8.76131 2.98915 10.7766 4.57534 13.1945C6.0884 15.5009 8.60302 18.0473 11.9439 20.7993C15.2907 18.0421 17.8333 15.4755 19.3729 13.1489C20.989 10.7068 21.4097 8.67573 20.7272 6.99107C20.5358 6.5207 20.1375 5.79729 19.5362 5.15614C18.9371 4.5174 18.1729 3.99731 17.2433 3.83865C16.0459 3.63604 14.9444 4.09892 14.0712 4.70747C13.2013 5.31375 12.6484 6.0039 12.5976 6.07086C12.4558 6.25785 12.2347 6.36768 12 6.36768C11.7653 6.36768 11.5442 6.25785 11.4024 6.07086C11.3456 5.99597 10.7927 5.29039 9.92448 4.67055ZM12.006 4.49108C11.7023 4.18019 11.2927 3.80426 10.796 3.44971C9.7617 2.71135 8.2563 2.00127 6.50462 2.3014C5.1451 2.53336 4.10073 3.32348 3.35776 4.15401C2.61499 4.98432 2.12893 5.90288 1.88332 6.50632L1.88291 6.50732C0.929966 8.8584 1.61398 11.415 3.32114 14.0172C5.03107 16.6238 7.85243 19.4158 11.4716 22.3505C11.747 22.5737 12.1411 22.5737 12.4164 22.3504C16.0391 19.4121 18.8873 16.6008 20.6238 13.9767C22.3552 11.3604 23.0722 8.78318 22.1171 6.42679L22.1167 6.42578C21.8671 5.81263 21.3764 4.92552 20.6303 4.13001C19.8819 3.33209 18.8404 2.58937 17.4951 2.35992L17.4942 2.35977C15.7518 2.06474 14.2495 2.75488 13.2135 3.47685C12.7194 3.82121 12.3107 4.18673 12.006 4.49108Z" fill="black"/>
</svg>
