<svg width="24" height="24" viewBox="0 0 24 24" fill="none" xmlns="http://www.w3.org/2000/svg">
<path fill-rule="evenodd" clip-rule="evenodd" d="M11.9999 2.95001C8.65482 2.95001 5.93176 5.68292 5.93176 9.06001C5.93176 11.7546 7.5152 14.7757 9.20651 17.2067C10.0395 18.404 10.874 19.4237 11.5005 20.1441C11.6878 20.3594 11.8562 20.5477 11.9999 20.7055C12.1437 20.5477 12.3121 20.3594 12.4994 20.1441C13.1259 19.4237 13.9603 18.404 14.7934 17.2067C16.4847 14.7757 18.0681 11.7546 18.0681 9.06001C18.0681 5.68292 15.3451 2.95001 11.9999 2.95001ZM11.9999 21.8C11.468 22.3287 11.4679 22.3286 11.4677 22.3284L11.4659 22.3266L11.4613 22.3219L11.4448 22.3052C11.4307 22.2908 11.4103 22.2699 11.384 22.2427C11.3315 22.1884 11.2556 22.109 11.1596 22.0064C10.9676 21.8014 10.695 21.5036 10.3687 21.1284C9.71677 20.3788 8.84671 19.316 7.9752 18.0633C6.25742 15.5943 4.43176 12.2455 4.43176 9.06001C4.43176 4.86311 7.8178 1.45001 11.9999 1.45001C16.1821 1.45001 19.5681 4.86311 19.5681 9.06001C19.5681 12.2455 17.7425 15.5943 16.0247 18.0633C15.1532 19.316 14.2831 20.3788 13.6312 21.1284C13.3049 21.5036 13.0323 21.8014 12.8403 22.0064C12.7443 22.109 12.6684 22.1884 12.6159 22.2427C12.5896 22.2699 12.5692 22.2908 12.5551 22.3052L12.5386 22.3219L12.534 22.3266L12.5326 22.328C12.5325 22.3281 12.5319 22.3287 11.9999 21.8ZM11.9999 21.8L12.5319 22.3287C12.3911 22.4704 12.1997 22.55 11.9999 22.55C11.8002 22.55 11.6085 22.4701 11.4677 22.3284L11.9999 21.8Z" fill="black"/>
<path fill-rule="evenodd" clip-rule="evenodd" d="M12 6C10.7574 6 9.75 7.00736 9.75 8.25C9.75 9.49264 10.7574 10.5 12 10.5C13.2426 10.5 14.25 9.49264 14.25 8.25C14.25 7.00736 13.2426 6 12 6ZM8.25 8.25C8.25 6.17893 9.92893 4.5 12 4.5C14.0711 4.5 15.75 6.17893 15.75 8.25C15.75 10.3211 14.0711 12 12 12C9.92893 12 8.25 10.3211 8.25 8.25Z" fill="black"/>
</svg>
