<svg width="24" height="24" viewBox="0 0 24 24" fill="none" xmlns="http://www.w3.org/2000/svg">
<path fill-rule="evenodd" clip-rule="evenodd" d="M1.66592 8.52952C1.8083 8.35277 2.02305 8.25 2.25001 8.25H21.75C21.9726 8.25 22.1837 8.3489 22.3262 8.51994C22.4687 8.69099 22.5279 8.91649 22.4877 9.13546L20.7181 18.7723C20.475 20.0981 19.258 21 17.9183 21H6.28163C5.05244 21 3.92079 20.1909 3.65726 18.9771C3.65723 18.977 3.65728 18.9772 3.65726 18.9771L1.51721 9.15974C1.46888 8.93799 1.52355 8.70627 1.66592 8.52952ZM3.18111 9.75L5.12292 18.658C5.22027 19.1067 5.67793 19.5 6.28163 19.5H17.9183C18.6162 19.5 19.1445 19.0374 19.2427 18.5018L20.8497 9.75H3.18111Z" fill="black"/>
<path fill-rule="evenodd" clip-rule="evenodd" d="M7.30076 11.2769C7.7001 11.1669 8.113 11.4015 8.22301 11.8008L9.46265 16.3008C9.57266 16.7002 9.33811 17.1131 8.93878 17.2231C8.53944 17.3331 8.12653 17.0985 8.01652 16.6992L6.77688 12.1992C6.66687 11.7999 6.90142 11.3869 7.30076 11.2769Z" fill="black"/>
<path fill-rule="evenodd" clip-rule="evenodd" d="M17.2264 11.2769C17.6257 11.3869 17.8603 11.7999 17.7503 12.1992L16.5106 16.6992C16.4006 17.0985 15.9877 17.3331 15.5884 17.2231C15.189 17.1131 14.9545 16.7002 15.0645 16.3008L16.3041 11.8008C16.4141 11.4015 16.827 11.1669 17.2264 11.2769Z" fill="black"/>
<path fill-rule="evenodd" clip-rule="evenodd" d="M12.375 11.25C12.7892 11.25 13.125 11.5858 13.125 12V16.5C13.125 16.9142 12.7892 17.25 12.375 17.25C11.9608 17.25 11.625 16.9142 11.625 16.5V12C11.625 11.5858 11.9608 11.25 12.375 11.25Z" fill="black"/>
<path fill-rule="evenodd" clip-rule="evenodd" d="M15.179 1.58456C15.5465 1.39346 15.9994 1.53646 16.1905 1.90396L18.1405 5.65396C18.3316 6.02145 18.1886 6.47429 17.8211 6.66538C17.4536 6.85648 17.0007 6.71348 16.8096 6.34599L14.8596 2.59599C14.6685 2.22849 14.8115 1.77566 15.179 1.58456Z" fill="black"/>
<path fill-rule="evenodd" clip-rule="evenodd" d="M9.04605 1.58456C9.41354 1.77566 9.55654 2.22849 9.36545 2.59599L7.41545 6.34599C7.22435 6.71348 6.77152 6.85648 6.40402 6.66538C6.03652 6.47429 5.89352 6.02145 6.08462 5.65396L8.03462 1.90396C8.22572 1.53646 8.67855 1.39346 9.04605 1.58456Z" fill="black"/>
</svg>
