<svg width="24" height="24" viewBox="0 0 24 24" fill="none" xmlns="http://www.w3.org/2000/svg">
<path fill-rule="evenodd" clip-rule="evenodd" d="M11.6362 1.67542C11.9176 1.43935 12.3286 1.44181 12.6071 1.68123L22.2389 9.96C22.4781 10.1656 22.5631 10.4989 22.4516 10.794C22.3401 11.089 22.0558 11.2827 21.7404 11.2787L20.25 11.2597L20.25 21.75C20.25 21.9489 20.171 22.1397 20.0304 22.2803C19.8897 22.421 19.699 22.5 19.5 22.5H4.50004C4.08582 22.5 3.75004 22.1642 3.75004 21.75L3.75004 11.2597L2.25963 11.2787C1.94258 11.2828 1.65724 11.087 1.54691 10.7898C1.43658 10.4925 1.52509 10.158 1.768 9.95419L11.6362 1.67542ZM4.34293 9.75195L4.49045 9.75006C4.69101 9.7475 4.88424 9.82537 5.02697 9.96629C5.1697 10.1072 5.25004 10.2994 5.25004 10.5L5.25004 21H18.75L18.75 10.5C18.75 10.2994 18.8304 10.1072 18.9731 9.96629C19.1158 9.82537 19.3091 9.7475 19.5096 9.75006L19.6962 9.75245L12.1124 3.23391L4.34293 9.75195Z" fill="black"/>
<path fill-rule="evenodd" clip-rule="evenodd" d="M10.0949 15C9.95783 15 9.75 15.1416 9.75 15.4283V21H14.25V15.4283C14.25 15.1416 14.0422 15 13.9051 15H10.0949ZM8.25 15.4283C8.25 14.4188 9.02757 13.5 10.0949 13.5H13.9051C14.9724 13.5 15.75 14.4188 15.75 15.4283V21.75C15.75 22.1642 15.4142 22.5 15 22.5H9C8.58579 22.5 8.25 22.1642 8.25 21.75V15.4283Z" fill="black"/>
</svg>
