<svg width="24" height="24" viewBox="0 0 24 24" fill="none" xmlns="http://www.w3.org/2000/svg">
<path fill-rule="evenodd" clip-rule="evenodd" d="M12 6C11.171 6 10.5 6.66925 10.5 7.5C10.5 8.33075 11.171 9 12 9C12.8278 9 13.5 8.32636 13.5 7.5C13.5 6.66925 12.829 6 12 6ZM9 7.5C9 5.83948 10.3439 4.5 12 4.5C13.6561 4.5 15 5.83948 15 7.5C15 9.15369 13.6573 10.5 12 10.5C10.3439 10.5 9 9.16052 9 7.5Z" fill="black"/>
<path fill-rule="evenodd" clip-rule="evenodd" d="M6.75 12.375C7.16421 12.375 7.5 12.7108 7.5 13.125V19.5146L12.2297 21.036C12.624 21.1629 12.8408 21.5854 12.714 21.9797C12.5871 22.374 12.1646 22.5908 11.7703 22.464L6.52033 20.7751C6.21025 20.6754 6 20.3869 6 20.0611V13.125C6 12.7108 6.33579 12.375 6.75 12.375Z" fill="black"/>
<path fill-rule="evenodd" clip-rule="evenodd" d="M6.79731 12.04C6.9308 11.9946 7.0744 11.9877 7.21163 12.0201L8.79758 12.3951C9.20068 12.4904 9.45019 12.8945 9.35487 13.2976C9.25956 13.7007 8.85552 13.9502 8.45242 13.8549L7.0765 13.5295L3 14.9176V20.7023L6.79731 19.4094C7.18942 19.2759 7.61552 19.4855 7.74903 19.8776C7.88254 20.2697 7.6729 20.6958 7.28079 20.8293L2.49174 22.46C2.26272 22.538 2.01015 22.5007 1.81343 22.3598C1.61671 22.219 1.5 21.9919 1.5 21.75V14.3806C1.5 14.0596 1.70434 13.7741 2.00826 13.6707L6.79731 12.04Z" fill="black"/>
<path fill-rule="evenodd" clip-rule="evenodd" d="M16.7944 12.02C16.9316 11.9877 17.0751 11.9946 17.2084 12.0401L21.992 13.6707C22.2958 13.7743 22.5 14.0597 22.5 14.3806V21.75C22.5 21.992 22.3833 22.2191 22.1865 22.3599C21.9897 22.5007 21.7371 22.538 21.5081 22.4599L16.7245 20.8293C16.3324 20.6956 16.1229 20.2694 16.2566 19.8774C16.3902 19.4853 16.8164 19.2758 17.2084 19.4095L21 20.702V14.9174L16.9286 13.5295L15.5471 13.855C15.1439 13.95 14.74 13.7002 14.645 13.297C14.55 12.8938 14.7999 12.49 15.203 12.395L16.7944 12.02Z" fill="black"/>
<path fill-rule="evenodd" clip-rule="evenodd" d="M17.25 12.375C17.6642 12.375 18 12.7108 18 13.125V20.0611C18 20.3869 17.7898 20.6754 17.4797 20.7751L12.2297 22.464C12.0015 22.5374 11.752 22.4973 11.5583 22.3561C11.3646 22.2149 11.25 21.9897 11.25 21.75V17.25C11.25 16.8358 11.5858 16.5 12 16.5C12.4142 16.5 12.75 16.8358 12.75 17.25V20.7209L16.5 19.5146V13.125C16.5 12.7108 16.8358 12.375 17.25 12.375Z" fill="black"/>
<path fill-rule="evenodd" clip-rule="evenodd" d="M12 3C9.51624 3 7.50001 5.01168 7.50001 7.49009L7.50001 7.4913C7.49861 8.35255 7.7811 9.35704 8.2527 10.4161C8.72045 11.4664 9.35128 12.52 9.99306 13.4653C10.6334 14.4086 11.2755 15.2306 11.758 15.8173C11.8442 15.922 11.9251 16.0192 12 16.108C12.0745 16.0194 12.1552 15.9226 12.241 15.8183C12.723 15.2321 13.3645 14.4107 14.0045 13.4678C14.6458 12.5229 15.2765 11.4695 15.7446 10.4188C16.2165 9.35943 16.5 8.35363 16.5 7.49009C16.5 5.01168 14.4838 3 12 3ZM12 17.25L12.5521 17.7577C12.4101 17.9121 12.2098 18 12 18C11.7902 18 11.59 17.9121 11.448 17.7577L12 17.25ZM6.00001 7.48948C6.00033 4.17962 8.69132 1.5 12 1.5C15.3089 1.5 18 4.17995 18 7.49009C18 8.65187 17.6273 9.87873 17.1148 11.0291C16.5985 12.1881 15.9167 13.3215 15.2456 14.3103C14.573 15.301 13.902 16.1601 13.3996 16.771C13.1481 17.0769 12.938 17.3216 12.79 17.4907C12.7159 17.5753 12.6574 17.641 12.6169 17.6861C12.5967 17.7086 12.5809 17.726 12.57 17.738L12.5573 17.752L12.5537 17.7559L12.5527 17.757C12.5525 17.7572 12.5521 17.7577 12 17.25C11.448 17.7577 11.4481 17.7578 11.448 17.7577L11.4474 17.757L11.4427 17.752L11.43 17.738C11.4191 17.726 11.4033 17.7086 11.3831 17.6861C11.3425 17.6409 11.2839 17.5751 11.2098 17.4905C11.0616 17.3212 10.8513 17.0763 10.5995 16.7701C10.0966 16.1587 9.42498 15.299 8.75204 14.3078C8.08051 13.3187 7.39843 12.185 6.88242 11.0263C6.37035 9.87636 5.99826 8.65008 6.00001 7.48948Z" fill="black"/>
</svg>
