<svg width="24" height="24" viewBox="0 0 24 24" fill="none" xmlns="http://www.w3.org/2000/svg">
<path fill-rule="evenodd" clip-rule="evenodd" d="M6 3H3V6H6V3ZM3 1.5C2.17157 1.5 1.5 2.17157 1.5 3V6C1.5 6.82843 2.17157 7.5 3 7.5H6C6.82843 7.5 7.5 6.82843 7.5 6V3C7.5 2.17157 6.82843 1.5 6 1.5H3Z" fill="black"/>
<path fill-rule="evenodd" clip-rule="evenodd" d="M13.5 3H10.5V6H13.5V3ZM10.5 1.5C9.67157 1.5 9 2.17157 9 3V6C9 6.82843 9.67157 7.5 10.5 7.5H13.5C14.3284 7.5 15 6.82843 15 6V3C15 2.17157 14.3284 1.5 13.5 1.5H10.5Z" fill="black"/>
<path fill-rule="evenodd" clip-rule="evenodd" d="M21 3H18V6H21V3ZM18 1.5C17.1716 1.5 16.5 2.17157 16.5 3V6C16.5 6.82843 17.1716 7.5 18 7.5H21C21.8284 7.5 22.5 6.82843 22.5 6V3C22.5 2.17157 21.8284 1.5 21 1.5H18Z" fill="black"/>
<path fill-rule="evenodd" clip-rule="evenodd" d="M6 10.5H3V13.5H6V10.5ZM3 9C2.17157 9 1.5 9.67157 1.5 10.5V13.5C1.5 14.3284 2.17157 15 3 15H6C6.82843 15 7.5 14.3284 7.5 13.5V10.5C7.5 9.67157 6.82843 9 6 9H3Z" fill="black"/>
<path fill-rule="evenodd" clip-rule="evenodd" d="M13.5 10.5H10.5V13.5H13.5V10.5ZM10.5 9C9.67157 9 9 9.67157 9 10.5V13.5C9 14.3284 9.67157 15 10.5 15H13.5C14.3284 15 15 14.3284 15 13.5V10.5C15 9.67157 14.3284 9 13.5 9H10.5Z" fill="black"/>
<path fill-rule="evenodd" clip-rule="evenodd" d="M21 10.5H18V13.5H21V10.5ZM18 9C17.1716 9 16.5 9.67157 16.5 10.5V13.5C16.5 14.3284 17.1716 15 18 15H21C21.8284 15 22.5 14.3284 22.5 13.5V10.5C22.5 9.67157 21.8284 9 21 9H18Z" fill="black"/>
<path fill-rule="evenodd" clip-rule="evenodd" d="M6 18H3V21H6V18ZM3 16.5C2.17157 16.5 1.5 17.1716 1.5 18V21C1.5 21.8284 2.17157 22.5 3 22.5H6C6.82843 22.5 7.5 21.8284 7.5 21V18C7.5 17.1716 6.82843 16.5 6 16.5H3Z" fill="black"/>
<path fill-rule="evenodd" clip-rule="evenodd" d="M13.5 18H10.5V21H13.5V18ZM10.5 16.5C9.67157 16.5 9 17.1716 9 18V21C9 21.8284 9.67157 22.5 10.5 22.5H13.5C14.3284 22.5 15 21.8284 15 21V18C15 17.1716 14.3284 16.5 13.5 16.5H10.5Z" fill="black"/>
<path fill-rule="evenodd" clip-rule="evenodd" d="M21 18H18V21H21V18ZM18 16.5C17.1716 16.5 16.5 17.1716 16.5 18V21C16.5 21.8284 17.1716 22.5 18 22.5H21C21.8284 22.5 22.5 21.8284 22.5 21V18C22.5 17.1716 21.8284 16.5 21 16.5H18Z" fill="black"/>
</svg>
