<svg width="24" height="24" viewBox="0 0 24 24" fill="none" xmlns="http://www.w3.org/2000/svg">
<path fill-rule="evenodd" clip-rule="evenodd" d="M9.61861 13.5C9.30296 13.5 9 13.7773 9 14.164V21H15V14.164C15 13.7773 14.697 13.5 14.3814 13.5H9.61861ZM7.5 14.164C7.5 12.9953 8.42879 12 9.61861 12H14.3814C15.5712 12 16.5 12.9953 16.5 14.164V21.75C16.5 22.1642 16.1642 22.5 15.75 22.5H8.25C7.83579 22.5 7.5 22.1642 7.5 21.75V14.164Z" fill="black"/>
<path fill-rule="evenodd" clip-rule="evenodd" d="M3 8.25C3.41421 8.25 3.75 8.58579 3.75 9V19.6107C3.75 20.4206 4.35789 21 5.01408 21H18.9859C19.6421 21 20.25 20.4206 20.25 19.6107V9C20.25 8.58579 20.5858 8.25 21 8.25C21.4142 8.25 21.75 8.58579 21.75 9V19.6107C21.75 21.1619 20.5551 22.5 18.9859 22.5H5.01408C3.44493 22.5 2.25 21.1619 2.25 19.6107V9C2.25 8.58579 2.58579 8.25 3 8.25Z" fill="black"/>
<path fill-rule="evenodd" clip-rule="evenodd" d="M3.65486 4.00241C3.65482 4.00263 3.65491 4.00218 3.65486 4.00241L3.00511 7.39175C3.05562 7.79652 3.47888 8.25 4.2 8.25C4.49414 8.25 4.75571 8.16597 4.96062 8.03375C5.68303 7.56031 6.61698 7.56031 7.33939 8.03376C7.54429 8.16598 7.80586 8.25 8.1 8.25C8.39415 8.25 8.65573 8.16597 8.86063 8.03374C9.58303 7.56031 10.517 7.56031 11.2394 8.03374C11.4443 8.16597 11.7059 8.25 12 8.25C12.2941 8.25 12.5557 8.16597 12.7606 8.03374C13.483 7.5603 14.417 7.56031 15.1394 8.03377C15.3443 8.16598 15.6059 8.25 15.9 8.25C16.1941 8.25 16.4557 8.16598 16.6606 8.03377C17.383 7.5603 18.317 7.5603 19.0394 8.03377C19.2443 8.16598 19.5059 8.25 19.8 8.25C20.535 8.25 20.9605 7.77892 20.9974 7.36847L20.3521 4.00241C20.3521 4.00234 20.3521 4.00248 20.3521 4.00241C20.2396 3.42288 19.7281 3 19.1314 3H4.87554C4.27904 3 3.7675 3.42312 3.65486 4.00241ZM1.53944 7.0702L2.18228 3.71692C2.43205 2.42855 3.56405 1.5 4.87554 1.5H19.1314C20.4429 1.5 21.5749 2.42855 21.8247 3.71692L21.825 3.71846L22.4866 7.16964C22.4955 7.21618 22.5 7.26346 22.5 7.31084C22.5 8.75627 21.1893 9.75 19.8 9.75C19.2175 9.75 18.6718 9.58278 18.2223 9.29169L18.218 9.28888C17.9945 9.14195 17.7055 9.14193 17.482 9.28887L17.4777 9.29171C17.0282 9.58279 16.4825 9.75 15.9 9.75C15.3175 9.75 14.7718 9.58278 14.3223 9.29169L14.318 9.28888C14.0945 9.14195 13.8055 9.14193 13.582 9.28887L13.5777 9.29171C13.1282 9.58279 12.5825 9.75 12 9.75C11.4175 9.75 10.8718 9.58278 10.4223 9.29169L10.418 9.28888C10.1945 9.14195 9.90551 9.14193 9.682 9.28887L9.67769 9.29171C9.2282 9.58279 8.68254 9.75 8.1 9.75C7.51746 9.75 6.97181 9.58278 6.52232 9.29169L6.51799 9.28888C6.29448 9.14195 6.00551 9.14193 5.782 9.28887L5.77769 9.29171C5.3282 9.58279 4.78254 9.75 4.2 9.75C2.81072 9.75 1.5 8.75627 1.5 7.31084C1.5 7.22667 1.51387 7.14574 1.53944 7.0702Z" fill="black"/>
</svg>
