<svg width="24" height="24" viewBox="0 0 24 24" fill="none" xmlns="http://www.w3.org/2000/svg">
<path fill-rule="evenodd" clip-rule="evenodd" d="M9.375 4.125C9.375 2.67477 10.5498 1.5 12 1.5C13.4502 1.5 14.625 2.67477 14.625 4.125C14.625 5.57523 13.4502 6.75 12 6.75C10.5498 6.75 9.375 5.57523 9.375 4.125ZM12 3C11.3782 3 10.875 3.5032 10.875 4.125C10.875 4.7468 11.3782 5.25 12 5.25C12.6218 5.25 13.125 4.7468 13.125 4.125C13.125 3.5032 12.6218 3 12 3Z" fill="black"/>
<path fill-rule="evenodd" clip-rule="evenodd" d="M3.375 14.625C3.375 13.1748 4.54977 12 6 12C7.45023 12 8.625 13.1748 8.625 14.625C8.625 16.0752 7.45023 17.25 6 17.25C4.54977 17.25 3.375 16.0752 3.375 14.625ZM6 13.5C5.3782 13.5 4.875 14.0032 4.875 14.625C4.875 15.2468 5.3782 15.75 6 15.75C6.6218 15.75 7.125 15.2468 7.125 14.625C7.125 14.0032 6.6218 13.5 6 13.5Z" fill="black"/>
<path fill-rule="evenodd" clip-rule="evenodd" d="M15.375 14.625C15.375 13.1748 16.5498 12 18 12C19.4502 12 20.625 13.1748 20.625 14.625C20.625 16.0752 19.4502 17.25 18 17.25C16.5498 17.25 15.375 16.0752 15.375 14.625ZM18 13.5C17.3782 13.5 16.875 14.0032 16.875 14.625C16.875 15.2468 17.3782 15.75 18 15.75C18.6218 15.75 19.125 15.2468 19.125 14.625C19.125 14.0032 18.6218 13.5 18 13.5Z" fill="black"/>
<path fill-rule="evenodd" clip-rule="evenodd" d="M9.21668 9.22399C9.03898 9.35841 8.99928 9.48318 9.00001 9.55951L9.00008 9.56674L9.00005 10.5H14.9999V9.49157C15.0011 9.37611 14.9552 9.27395 14.8389 9.18147C14.7125 9.08093 14.5048 9 14.2456 9H9.89974C9.65035 9 9.39542 9.08879 9.21668 9.22399ZM8.31175 8.0277C8.75437 7.69289 9.32791 7.5 9.89974 7.5H14.2456C15.2978 7.5 16.5103 8.18306 16.4999 9.5021V11.25C16.4999 11.6642 16.1642 12 15.7499 12H8.25005C7.83584 12 7.50005 11.6642 7.50005 11.25V9.56988C7.49506 8.89476 7.86898 8.36263 8.31175 8.0277Z" fill="black"/>
<path fill-rule="evenodd" clip-rule="evenodd" d="M3.21668 19.7615C3.03898 19.8959 2.99928 20.0207 3.00001 20.097L3.00008 20.1042L3.00005 21.0375H8.99995V20.029C9.00107 19.9136 8.95521 19.8114 8.83891 19.7189C8.71248 19.6184 8.50482 19.5375 8.24561 19.5375H3.89974C3.65035 19.5375 3.39542 19.6263 3.21668 19.7615ZM2.31175 18.5652C2.75437 18.2304 3.32791 18.0375 3.89974 18.0375H8.24561C9.29776 18.0375 10.5103 18.7205 10.4999 20.0396V21.7875C10.4999 22.2017 10.1642 22.5375 9.74995 22.5375H2.25005C1.83584 22.5375 1.50005 22.2017 1.50005 21.7875V20.1074C1.49506 19.4322 1.86898 18.9001 2.31175 18.5652Z" fill="black"/>
<path fill-rule="evenodd" clip-rule="evenodd" d="M15.2167 19.7615C15.039 19.8959 14.9993 20.0207 15 20.097L15.0001 20.1042L15 21.0375H20.9999V20.029C21.0011 19.9136 20.9552 19.8114 20.8389 19.7189C20.7125 19.6184 20.5048 19.5375 20.2456 19.5375H15.8997C15.6503 19.5375 15.3954 19.6263 15.2167 19.7615ZM14.3118 18.5652C14.7544 18.2304 15.3279 18.0375 15.8997 18.0375H20.2456C21.2978 18.0375 22.5103 18.7205 22.4999 20.0396V21.7875C22.4999 22.2017 22.1642 22.5375 21.7499 22.5375H14.25C13.8358 22.5375 13.5 22.2017 13.5 21.7875V20.1074C13.4951 19.4322 13.869 18.9001 14.3118 18.5652Z" fill="black"/>
<path fill-rule="evenodd" clip-rule="evenodd" d="M12 12.75C12.4142 12.75 12.75 13.0858 12.75 13.5V15C12.75 15.4142 12.4142 15.75 12 15.75C11.5858 15.75 11.25 15.4142 11.25 15V13.5C11.25 13.0858 11.5858 12.75 12 12.75Z" fill="black"/>
<path fill-rule="evenodd" clip-rule="evenodd" d="M11.5839 14.376C11.8359 14.208 12.1641 14.208 12.416 14.376L14.666 15.876C15.0106 16.1057 15.1038 16.5714 14.874 16.916C14.6442 17.2607 14.1786 17.3538 13.8339 17.124L12 15.9014L10.166 17.124C9.82134 17.3538 9.35568 17.2607 9.12592 16.916C8.89616 16.5714 8.98929 16.1057 9.33393 15.876L11.5839 14.376Z" fill="black"/>
</svg>
