<svg width="24" height="24" viewBox="0 0 24 24" fill="none" xmlns="http://www.w3.org/2000/svg">
<path fill-rule="evenodd" clip-rule="evenodd" d="M12 2.95001C7.00177 2.95001 2.94995 7.00183 2.94995 12C2.94995 16.9982 7.00177 21.05 12 21.05C16.9981 21.05 21.05 16.9982 21.05 12C21.05 7.00183 16.9981 2.95001 12 2.95001ZM1.44995 12C1.44995 6.17341 6.17335 1.45001 12 1.45001C17.8266 1.45001 22.55 6.17341 22.55 12C22.55 17.8266 17.8266 22.55 12 22.55C6.17335 22.55 1.44995 17.8266 1.44995 12Z" fill="black"/>
<path fill-rule="evenodd" clip-rule="evenodd" d="M12 8.25C11.1735 8.25 10.5 8.9235 10.5 9.75C10.5 10.5765 11.1735 11.25 12 11.25C13.6549 11.25 15 12.5951 15 14.25C15 15.9049 13.6549 17.25 12 17.25C10.3465 17.25 9 15.9128 9 14.25C9 13.8358 9.33579 13.5 9.75 13.5C10.1642 13.5 10.5 13.8358 10.5 14.25C10.5 15.0765 11.1735 15.75 12 15.75C12.8265 15.75 13.5 15.0765 13.5 14.25C13.5 13.4235 12.8265 12.75 12 12.75C10.3451 12.75 9 11.4049 9 9.75C9 8.09507 10.3451 6.75 12 6.75C13.6535 6.75 15 8.08725 15 9.75C15 10.1642 14.6642 10.5 14.25 10.5C13.8358 10.5 13.5 10.1642 13.5 9.75C13.5 8.9235 12.8265 8.25 12 8.25Z" fill="black"/>
<path fill-rule="evenodd" clip-rule="evenodd" d="M12 4.5C12.4142 4.5 12.75 4.83579 12.75 5.25V6.75C12.75 7.16421 12.4142 7.5 12 7.5C11.5858 7.5 11.25 7.16421 11.25 6.75V5.25C11.25 4.83579 11.5858 4.5 12 4.5Z" fill="black"/>
<path fill-rule="evenodd" clip-rule="evenodd" d="M12 16.5C12.4142 16.5 12.75 16.8358 12.75 17.25V18.75C12.75 19.1642 12.4142 19.5 12 19.5C11.5858 19.5 11.25 19.1642 11.25 18.75V17.25C11.25 16.8358 11.5858 16.5 12 16.5Z" fill="black"/>
</svg>
