<svg width="24" height="24" viewBox="0 0 24 24" fill="none" xmlns="http://www.w3.org/2000/svg">
<path fill-rule="evenodd" clip-rule="evenodd" d="M10.1214 6.06665C10.3543 5.9329 10.6409 5.93391 10.8729 6.06928L15.3949 8.70828C15.6252 8.84271 15.7669 9.08934 15.7669 9.35604C15.7669 9.62274 15.6252 9.86938 15.3949 10.0038L10.8729 12.6428C10.6409 12.7782 10.3543 12.7792 10.1214 12.6454C9.88848 12.5117 9.74487 12.2636 9.74487 11.995V6.71704C9.74487 6.44847 9.88848 6.20039 10.1214 6.06665ZM11.2449 8.02311V10.689L13.5289 9.35604L11.2449 8.02311Z" fill="black"/>
<path fill-rule="evenodd" clip-rule="evenodd" d="M1.5 5.63746C1.5 4.16262 2.71544 3 4.17911 3H19.8279C21.2863 3 22.5 4.16437 22.5 5.63746V16.1125C22.5 17.5839 21.2951 18.75 19.8279 18.75H4.17911C2.71544 18.75 1.5 17.5874 1.5 16.1125V5.63746ZM4.17911 4.5C3.5117 4.5 3 5.02286 3 5.63746V16.1125C3 16.7271 3.5117 17.25 4.17911 17.25H19.8279C20.4917 17.25 21 16.7306 21 16.1125V5.63746C21 5.02112 20.4865 4.5 19.8279 4.5H4.17911Z" fill="black"/>
<path fill-rule="evenodd" clip-rule="evenodd" d="M12 17.307C12.4142 17.307 12.75 17.6428 12.75 18.057V21.326C12.75 21.7402 12.4142 22.076 12 22.076C11.5858 22.076 11.25 21.7402 11.25 21.326V18.057C11.25 17.6428 11.5858 17.307 12 17.307Z" fill="black"/>
<path fill-rule="evenodd" clip-rule="evenodd" d="M6.75 21.75C6.75 21.3358 7.08579 21 7.5 21H16.5C16.9142 21 17.25 21.3358 17.25 21.75C17.25 22.1642 16.9142 22.5 16.5 22.5H7.5C7.08579 22.5 6.75 22.1642 6.75 21.75Z" fill="black"/>
<path fill-rule="evenodd" clip-rule="evenodd" d="M1.44983 15.005C1.44983 14.5908 1.78562 14.255 2.19983 14.255H21.3028C21.717 14.255 22.0528 14.5908 22.0528 15.005C22.0528 15.4192 21.717 15.755 21.3028 15.755H2.19983C1.78562 15.755 1.44983 15.4192 1.44983 15.005Z" fill="black"/>
</svg>
