<svg width="24" height="24" viewBox="0 0 24 24" fill="none" xmlns="http://www.w3.org/2000/svg">
<path fill-rule="evenodd" clip-rule="evenodd" d="M6.75 10.5C6.75 10.0858 7.08579 9.75 7.5 9.75H16.5C16.9142 9.75 17.25 10.0858 17.25 10.5C17.25 10.9142 16.9142 11.25 16.5 11.25H7.5C7.08579 11.25 6.75 10.9142 6.75 10.5Z" fill="black"/>
<path fill-rule="evenodd" clip-rule="evenodd" d="M6.75 13.5C6.75 13.0858 7.08579 12.75 7.5 12.75H16.5C16.9142 12.75 17.25 13.0858 17.25 13.5C17.25 13.9142 16.9142 14.25 16.5 14.25H7.5C7.08579 14.25 6.75 13.9142 6.75 13.5Z" fill="black"/>
<path fill-rule="evenodd" clip-rule="evenodd" d="M6.75 16.5C6.75 16.0858 7.08579 15.75 7.5 15.75H13.5C13.9142 15.75 14.25 16.0858 14.25 16.5C14.25 16.9142 13.9142 17.25 13.5 17.25H7.5C7.08579 17.25 6.75 16.9142 6.75 16.5Z" fill="black"/>
<path fill-rule="evenodd" clip-rule="evenodd" d="M3.75 4.30373C3.75 2.73861 5.04241 1.5 6.60142 1.5H15L15.5303 1.71967L20.7803 6.96967L21 7.5V19.6963C21 21.2614 19.7076 22.5 18.1486 22.5H6.60142C5.04241 22.5 3.75 21.2614 3.75 19.6963V4.30373ZM6.60142 3C5.83819 3 5.25 3.59931 5.25 4.30373V19.6963C5.25 20.4007 5.83819 21 6.60142 21H18.1486C18.9118 21 19.5 20.4007 19.5 19.6963V7.81066L14.6893 3H6.60142Z" fill="black"/>
<path fill-rule="evenodd" clip-rule="evenodd" d="M15 1.5C15.4142 1.5 15.75 1.83579 15.75 2.25V6.45143C15.75 6.615 15.885 6.75 16.0486 6.75H20.25C20.6642 6.75 21 7.08579 21 7.5C21 7.91421 20.6642 8.25 20.25 8.25H16.0486C15.0566 8.25 14.25 7.44343 14.25 6.45143V2.25C14.25 1.83579 14.5858 1.5 15 1.5Z" fill="black"/>
</svg>
