<svg width="24" height="24" viewBox="0 0 24 24" fill="none" xmlns="http://www.w3.org/2000/svg">
<path fill-rule="evenodd" clip-rule="evenodd" d="M3.67857 3C3.33787 3 3 3.30088 3 3.75V6C3 6.44912 3.33787 6.75 3.67857 6.75H8.32143C8.66213 6.75 9 6.44912 9 6V3.75C9 3.30088 8.66213 3 8.32143 3H3.67857ZM1.5 3.75C1.5 2.54226 2.44132 1.5 3.67857 1.5H8.32143C9.55868 1.5 10.5 2.54226 10.5 3.75V6C10.5 7.20774 9.55868 8.25 8.32143 8.25H3.67857C2.44132 8.25 1.5 7.20774 1.5 6V3.75Z" fill="black"/>
<path fill-rule="evenodd" clip-rule="evenodd" d="M3.67857 11.25C3.30381 11.25 3 11.5538 3 11.9286V20.3214C3 20.6962 3.30381 21 3.67857 21H8.32143C8.69619 21 9 20.6962 9 20.3214V11.9286C9 11.5538 8.69619 11.25 8.32143 11.25H3.67857ZM1.5 11.9286C1.5 10.7254 2.47538 9.75 3.67857 9.75H8.32143C9.52462 9.75 10.5 10.7254 10.5 11.9286V20.3214C10.5 21.5246 9.52462 22.5 8.32143 22.5H3.67857C2.47538 22.5 1.5 21.5246 1.5 20.3214V11.9286Z" fill="black"/>
<path fill-rule="evenodd" clip-rule="evenodd" d="M20.3214 21C20.6621 21 21 20.6991 21 20.25V18C21 17.5509 20.6621 17.25 20.3214 17.25H15.6786C15.3379 17.25 15 17.5509 15 18V20.25C15 20.6991 15.3379 21 15.6786 21H20.3214ZM22.5 20.25C22.5 21.4577 21.5587 22.5 20.3214 22.5H15.6786C14.4413 22.5 13.5 21.4577 13.5 20.25V18C13.5 16.7923 14.4413 15.75 15.6786 15.75H20.3214C21.5587 15.75 22.5 16.7923 22.5 18V20.25Z" fill="black"/>
<path fill-rule="evenodd" clip-rule="evenodd" d="M20.3214 12.75C20.6962 12.75 21 12.4462 21 12.0714V3.67857C21 3.30381 20.6962 3 20.3214 3H15.6786C15.3038 3 15 3.30381 15 3.67857V12.0714C15 12.4462 15.3038 12.75 15.6786 12.75H20.3214ZM22.5 12.0714C22.5 13.2746 21.5246 14.25 20.3214 14.25H15.6786C14.4754 14.25 13.5 13.2746 13.5 12.0714L13.5 3.67857C13.5 2.47538 14.4754 1.5 15.6786 1.5H20.3214C21.5246 1.5 22.5 2.47538 22.5 3.67857V12.0714Z" fill="black"/>
</svg>
