<svg width="24" height="24" viewBox="0 0 24 24" fill="none" xmlns="http://www.w3.org/2000/svg">
<path fill-rule="evenodd" clip-rule="evenodd" d="M7.71625 3C6.33583 3 5.25 4.08857 5.25 5.38396V19.6539C5.25 20.7697 6.62691 21.4455 7.5589 20.6664L10.0961 18.5478C10.3009 18.34 10.9733 17.7548 12 17.7548C13.0511 17.7548 13.7242 18.371 13.8979 18.5428L16.4408 20.6661C17.3709 21.4437 18.75 20.7651 18.75 19.6539V5.38396C18.75 4.08857 17.6642 3 16.2837 3H7.71625ZM3.75 5.38396C3.75 3.22503 5.54296 1.5 7.71625 1.5H16.2837C18.457 1.5 20.25 3.22503 20.25 5.38396V19.6539C20.25 22.1084 17.3313 23.3657 15.479 21.8172L12.9105 19.6725C12.8922 19.6572 12.8747 19.6411 12.8579 19.6241C12.797 19.5625 12.4814 19.2548 12 19.2548C11.7615 19.2548 11.5625 19.3291 11.4098 19.4169C11.3335 19.4608 11.2721 19.5063 11.2281 19.5429C11.1832 19.5802 11.1607 19.6046 11.1627 19.6024C11.1399 19.6274 11.1155 19.6508 11.0895 19.6725L8.52099 21.8172C6.67061 23.3641 3.75 22.1178 3.75 19.6539V5.38396Z" fill="black"/>
</svg>
