<svg width="24" height="24" viewBox="0 0 24 24" fill="none" xmlns="http://www.w3.org/2000/svg">
<path fill-rule="evenodd" clip-rule="evenodd" d="M14.519 2.20001C14.519 1.7858 14.8548 1.45001 15.269 1.45001H21.05C21.8784 1.45001 22.55 2.12159 22.55 2.95001V8.73101C22.55 9.14523 22.2142 9.48101 21.8 9.48101C21.3858 9.48101 21.05 9.14523 21.05 8.73101L21.05 2.95001H15.269C14.8548 2.95001 14.519 2.61423 14.519 2.20001Z" fill="black"/>
<path fill-rule="evenodd" clip-rule="evenodd" d="M21.5303 2.46967C21.8232 2.76256 21.8232 3.23744 21.5303 3.53033L15.5303 9.53033C15.2374 9.82322 14.7626 9.82322 14.4697 9.53033C14.1768 9.23744 14.1768 8.76256 14.4697 8.46967L20.4697 2.46967C20.7626 2.17678 21.2374 2.17678 21.5303 2.46967Z" fill="black"/>
<path fill-rule="evenodd" clip-rule="evenodd" d="M2.20001 14.519C2.61423 14.519 2.95001 14.8548 2.95001 15.269V21.05H8.73101C9.14523 21.05 9.48101 21.3858 9.48101 21.8C9.48101 22.2142 9.14523 22.55 8.73101 22.55H2.95001C2.12158 22.55 1.45001 21.8784 1.45001 21.05V15.269C1.45001 14.8548 1.7858 14.519 2.20001 14.519Z" fill="black"/>
<path fill-rule="evenodd" clip-rule="evenodd" d="M9.53033 14.4697C9.82322 14.7626 9.82322 15.2374 9.53033 15.5303L3.53033 21.5303C3.23744 21.8232 2.76256 21.8232 2.46967 21.5303C2.17678 21.2374 2.17678 20.7626 2.46967 20.4697L8.46967 14.4697C8.76256 14.1768 9.23744 14.1768 9.53033 14.4697Z" fill="black"/>
</svg>
