<svg width="24" height="24" viewBox="0 0 24 24" fill="none" xmlns="http://www.w3.org/2000/svg">
<path fill-rule="evenodd" clip-rule="evenodd" d="M12.6574 1.66915C15.8762 3.38941 18.8309 4.3391 19.9565 4.6643L19.9652 4.66682L19.9652 4.66687C20.5357 4.83921 21 5.34994 21 6.01145V9C21 9.41421 20.6642 9.75 20.25 9.75C19.8358 9.75 19.5 9.41421 19.5 9V6.09373C18.2912 5.7422 15.2833 4.76737 11.9967 3.0168C8.71845 4.77686 5.70065 5.74485 4.5 6.10047V14.3594C4.5 15.3264 5.17792 16.3686 6.33837 17.4109C7.46981 18.4271 8.91028 19.3095 10.1105 19.9673C10.4737 20.1664 10.6068 20.6223 10.4077 20.9855C10.2086 21.3487 9.75274 21.4818 9.38951 21.2827C8.1556 20.6064 6.59607 19.6585 5.33605 18.5268C4.10502 17.4211 3 15.9976 3 14.3594V6.01841C3 5.37043 3.45113 4.8393 4.04389 4.67114C5.17856 4.33629 8.13572 3.39354 11.3343 1.66989C11.7458 1.44362 12.2457 1.44337 12.6574 1.66915Z" fill="black"/>
<path fill-rule="evenodd" clip-rule="evenodd" d="M17.348 10.1464C17.542 9.7834 17.9924 9.64467 18.3571 9.83551L20.9815 11.2089C21.3473 11.4003 21.4896 11.8513 21.2999 12.2179L20.8256 13.1351C21.0639 13.4473 21.2651 13.7817 21.4298 14.1314L22.5354 14.1837C22.9354 14.2026 23.25 14.5324 23.25 14.9329V17.8085C23.25 18.2132 22.9289 18.5449 22.5245 18.5581L21.5535 18.5897C21.4846 18.7592 21.4061 18.9282 21.3165 19.0963L21.3138 19.1014L21.3138 19.1014C21.2237 19.2673 21.1257 19.4311 21.0186 19.5904L21.6108 20.6099C21.7116 20.7835 21.7386 20.9902 21.6858 21.1839C21.633 21.3775 21.5048 21.5419 21.3299 21.6403L18.6387 23.1537C18.4595 23.2545 18.2468 23.2773 18.0503 23.2168C17.8538 23.1562 17.6908 23.0177 17.5993 22.8335L17.1626 21.9539C16.8176 21.9982 16.4661 22.0091 16.1139 21.9843L15.6521 22.8481C15.458 23.2111 15.0076 23.3498 14.6429 23.159L11.994 21.7728C11.8163 21.6798 11.6832 21.5194 11.6245 21.3276C11.5659 21.1357 11.5866 20.9283 11.6819 20.7518L12.1684 19.8514C11.9417 19.5533 11.7487 19.235 11.589 18.9026L10.615 18.9342C10.4159 18.9407 10.2224 18.8677 10.0772 18.7313C9.93202 18.5949 9.84704 18.4064 9.84102 18.2073L9.75035 15.2087C9.73785 14.7954 10.0623 14.4499 10.4756 14.4364L11.4456 14.4048C11.5151 14.2333 11.5946 14.0618 11.6863 13.8931C11.7742 13.731 11.8697 13.5711 11.9738 13.4153L11.4609 12.5798C11.2452 12.2286 11.3534 11.7691 11.7031 11.551L14.2365 9.97112C14.4059 9.86546 14.6104 9.83171 14.8048 9.87737C14.9992 9.92302 15.1674 10.0443 15.272 10.2143L15.785 11.0476C16.1468 10.9974 16.5161 10.9841 16.8861 11.0101L17.348 10.1464ZM18.3202 11.5092L17.9667 12.1703C17.8136 12.4566 17.4937 12.6119 17.174 12.555C16.6455 12.4611 16.1063 12.4832 15.5975 12.6091C15.2808 12.6875 14.9497 12.5521 14.7787 12.2743L14.3901 11.6431L13.1288 12.4297L13.5178 13.0632C13.6866 13.3381 13.6607 13.6902 13.4535 13.9374C13.2888 14.1339 13.14 14.3593 13.0044 14.6089C12.8792 14.8395 12.78 15.091 12.7008 15.354C12.6079 15.6622 12.3288 15.8768 12.0071 15.8873L11.2723 15.9112L11.3176 17.4106L12.0543 17.3867C12.3778 17.3761 12.6715 17.5743 12.7828 17.8781C12.969 18.3858 13.2483 18.8514 13.6182 19.2466C13.8386 19.482 13.8838 19.832 13.7305 20.1157L13.3629 20.7962L14.6798 21.4853L15.0333 20.8242C15.1864 20.5379 15.5063 20.3826 15.826 20.4394C16.3545 20.5334 16.8937 20.5112 17.4025 20.3853C17.7439 20.3009 18.0981 20.4649 18.2544 20.7799L18.5917 21.4592L19.9317 20.7057L19.4728 19.9155C19.3142 19.6424 19.3436 19.2992 19.5465 19.0571C19.7106 18.8613 19.859 18.6368 19.9941 18.3882C20.1225 18.1471 20.2214 17.8987 20.2992 17.6405C20.3921 17.3323 20.6712 17.1177 20.9929 17.1072L21.75 17.0825V15.6482L20.8859 15.6074C20.5845 15.5931 20.321 15.3997 20.2172 15.1164C20.0311 14.6087 19.7517 14.1431 19.3818 13.7479C19.1648 13.5161 19.1173 13.1728 19.2632 12.8908L19.6247 12.1918L18.3202 11.5092Z" fill="black"/>
<path fill-rule="evenodd" clip-rule="evenodd" d="M16.5 17.625C17.1213 17.625 17.625 17.1213 17.625 16.5C17.625 15.8787 17.1213 15.375 16.5 15.375C15.8787 15.375 15.375 15.8787 15.375 16.5C15.375 17.1213 15.8787 17.625 16.5 17.625ZM16.5 19.125C17.9497 19.125 19.125 17.9497 19.125 16.5C19.125 15.0503 17.9497 13.875 16.5 13.875C15.0503 13.875 13.875 15.0503 13.875 16.5C13.875 17.9497 15.0503 19.125 16.5 19.125Z" fill="black"/>
</svg>
