<svg width="24" height="24" viewBox="0 0 24 24" fill="none" xmlns="http://www.w3.org/2000/svg">
<path fill-rule="evenodd" clip-rule="evenodd" d="M10.271 2.95001C6.22774 2.95001 2.95001 6.22774 2.95001 10.271C2.95001 14.3143 6.22774 17.592 10.271 17.592C14.3143 17.592 17.592 14.3143 17.592 10.271C17.592 6.22774 14.3143 2.95001 10.271 2.95001ZM1.45001 10.271C1.45001 5.39931 5.39931 1.45001 10.271 1.45001C15.1427 1.45001 19.092 5.39931 19.092 10.271C19.092 15.1427 15.1427 19.092 10.271 19.092C5.39931 19.092 1.45001 15.1427 1.45001 10.271Z" fill="black"/>
<path fill-rule="evenodd" clip-rule="evenodd" d="M15.5017 15.5017C15.7945 15.2088 16.2694 15.2088 16.5623 15.5017L22.3303 21.2697C22.6232 21.5625 22.6232 22.0374 22.3303 22.3303C22.0374 22.6232 21.5625 22.6232 21.2697 22.3303L15.5017 16.5623C15.2088 16.2694 15.2088 15.7945 15.5017 15.5017Z" fill="black"/>
<path fill-rule="evenodd" clip-rule="evenodd" d="M10.8982 6.00036C11.2065 6.0099 11.4776 6.20725 11.5813 6.49775L13.2785 11.25H15.75C16.1642 11.25 16.5 11.5858 16.5 12C16.5 12.4142 16.1642 12.75 15.75 12.75H12.75C12.433 12.75 12.1503 12.5507 12.0437 12.2523L10.8115 8.80211L9.31436 12.2954C9.19617 12.5712 8.92502 12.75 8.625 12.75H5.25C4.83579 12.75 4.5 12.4142 4.5 12C4.5 11.5858 4.83579 11.25 5.25 11.25H8.13045L10.1856 6.45456C10.3072 6.17103 10.5899 5.99082 10.8982 6.00036Z" fill="black"/>
</svg>
