<svg width="24" height="24" viewBox="0 0 24 24" fill="none" xmlns="http://www.w3.org/2000/svg">
<path fill-rule="evenodd" clip-rule="evenodd" d="M16.72 3.70211C16.7199 3.70216 16.72 3.70205 16.72 3.70211L5.37731 14.5745L4.54256 17.7671C4.53843 17.8008 4.53201 17.8343 4.52324 17.8675C4.40011 18.3336 4.847 18.8778 5.47736 18.725L5.47908 18.7246L8.93136 17.8962L20.2807 7.02397C21.2384 6.10649 21.2411 4.62872 20.2807 3.70214C19.2953 2.76477 17.696 2.76731 16.72 3.70211ZM3.0446 17.6044C3.0484 17.5648 3.05537 17.5253 3.06558 17.4862L3.97971 13.99C4.01477 13.856 4.08629 13.7342 4.18633 13.6383L15.6822 2.61908C17.2404 1.1264 19.7537 1.12823 21.3169 2.61751L21.3198 2.62033C22.8926 4.1352 22.8947 6.59703 21.3183 8.10715L9.82248 19.1198C9.72652 19.2117 9.60786 19.2765 9.47865 19.3075L5.83079 20.1828C5.8304 20.1829 5.83002 20.1829 5.82963 20.183C4.25512 20.5639 2.7042 19.2334 3.0446 17.6044Z" fill="black"/>
<path fill-rule="evenodd" clip-rule="evenodd" d="M1.5 21.75C1.5 21.3358 1.83579 21 2.25 21H21.75C22.1642 21 22.5 21.3358 22.5 21.75C22.5 22.1642 22.1642 22.5 21.75 22.5H2.25C1.83579 22.5 1.5 22.1642 1.5 21.75Z" fill="black"/>
</svg>
