<svg width="24" height="24" viewBox="0 0 24 24" fill="none" xmlns="http://www.w3.org/2000/svg">
<path fill-rule="evenodd" clip-rule="evenodd" d="M21 4.5H3V19.5H21V4.5ZM3 3C2.17157 3 1.5 3.67157 1.5 4.5V19.5C1.5 20.3284 2.17157 21 3 21H21C21.8284 21 22.5 20.3284 22.5 19.5V4.5C22.5 3.67157 21.8284 3 21 3H3Z" fill="black"/>
<path fill-rule="evenodd" clip-rule="evenodd" d="M9 10.5C9.82843 10.5 10.5 9.82843 10.5 9C10.5 8.17157 9.82843 7.5 9 7.5C8.17157 7.5 7.5 8.17157 7.5 9C7.5 9.82843 8.17157 10.5 9 10.5ZM9 12C10.6569 12 12 10.6569 12 9C12 7.34315 10.6569 6 9 6C7.34315 6 6 7.34315 6 9C6 10.6569 7.34315 12 9 12Z" fill="black"/>
<path fill-rule="evenodd" clip-rule="evenodd" d="M6.21655 14.474C6.03886 14.6084 5.99916 14.7332 5.99989 14.8095L5.99996 14.8167L5.99993 15.75H11.9998V14.7416C12.0009 14.6261 11.9551 14.524 11.8388 14.4315C11.7124 14.3309 11.5047 14.25 11.2455 14.25H6.89961C6.65023 14.25 6.3953 14.3388 6.21655 14.474ZM5.31163 13.2777C5.75425 12.9429 6.32779 12.75 6.89961 12.75H11.2455C12.2976 12.75 13.5102 13.4331 13.4998 14.7521V16.5C13.4998 16.9142 13.164 17.25 12.7498 17.25H5.24993C4.83571 17.25 4.49993 16.9142 4.49993 16.5V14.8199C4.49494 14.1448 4.86886 13.6126 5.31163 13.2777Z" fill="black"/>
<path fill-rule="evenodd" clip-rule="evenodd" d="M14.25 7.5C14.25 7.08579 14.5858 6.75 15 6.75H18.75C19.1642 6.75 19.5 7.08579 19.5 7.5C19.5 7.91421 19.1642 8.25 18.75 8.25H15C14.5858 8.25 14.25 7.91421 14.25 7.5Z" fill="black"/>
<path fill-rule="evenodd" clip-rule="evenodd" d="M14.25 10.5C14.25 10.0858 14.5858 9.75 15 9.75H18.75C19.1642 9.75 19.5 10.0858 19.5 10.5C19.5 10.9142 19.1642 11.25 18.75 11.25H15C14.5858 11.25 14.25 10.9142 14.25 10.5Z" fill="black"/>
</svg>
