<svg width="24" height="24" viewBox="0 0 24 24" fill="none" xmlns="http://www.w3.org/2000/svg">
<path fill-rule="evenodd" clip-rule="evenodd" d="M2.35772 5.61271C2.5716 5.25799 3.03255 5.14383 3.38727 5.35772L11.7842 10.4209C11.795 10.4274 11.8056 10.4342 11.816 10.4412C11.9324 10.5196 12.1416 10.5196 12.2579 10.4412C12.2676 10.4347 12.2773 10.4285 12.2872 10.4224L20.6102 5.35924C20.9641 5.14396 21.4255 5.25632 21.6407 5.6102C21.856 5.96407 21.7437 6.42546 21.3898 6.64074L13.0796 11.6962C12.4637 12.101 11.612 12.1013 10.9957 11.6971L2.61271 6.64226C2.25799 6.42837 2.14383 5.96743 2.35772 5.61271Z" fill="black"/>
<path fill-rule="evenodd" clip-rule="evenodd" d="M3 6V18H21V6H3ZM1.5 5.95848C1.5 5.14974 2.1577 4.5 2.96175 4.5H21.0382C21.8423 4.5 22.5 5.14974 22.5 5.95848V18.0415C22.5 18.8503 21.8423 19.5 21.0382 19.5H2.96175C2.1577 19.5 1.5 18.8503 1.5 18.0415V5.95848Z" fill="black"/>
</svg>
