<svg width="24" height="24" viewBox="0 0 24 24" fill="none" xmlns="http://www.w3.org/2000/svg">
<path fill-rule="evenodd" clip-rule="evenodd" d="M1.5 7.5C1.5 7.08579 1.83579 6.75 2.25 6.75H12C12.4142 6.75 12.75 7.08579 12.75 7.5C12.75 7.91421 12.4142 8.25 12 8.25H2.25C1.83579 8.25 1.5 7.91421 1.5 7.5Z" fill="black"/>
<path fill-rule="evenodd" clip-rule="evenodd" d="M18 7.5C18 7.08579 18.3358 6.75 18.75 6.75H21.75C22.1642 6.75 22.5 7.08579 22.5 7.5C22.5 7.91421 22.1642 8.25 21.75 8.25H18.75C18.3358 8.25 18 7.91421 18 7.5Z" fill="black"/>
<path fill-rule="evenodd" clip-rule="evenodd" d="M1.5 17.25C1.5 16.8358 1.83579 16.5 2.25 16.5H4.00286C4.41708 16.5 4.75286 16.8358 4.75286 17.25C4.75286 17.6642 4.41708 18 4.00286 18H2.25C1.83579 18 1.5 17.6642 1.5 17.25Z" fill="black"/>
<path fill-rule="evenodd" clip-rule="evenodd" d="M10.5 17.25C10.5 16.8358 10.8358 16.5 11.25 16.5H21.75C22.1642 16.5 22.5 16.8358 22.5 17.25C22.5 17.6642 22.1642 18 21.75 18H11.25C10.8358 18 10.5 17.6642 10.5 17.25Z" fill="black"/>
<path fill-rule="evenodd" clip-rule="evenodd" d="M15.375 4.5C13.9253 4.5 12.75 5.67525 12.75 7.125C12.75 8.57475 13.9253 9.75 15.375 9.75C16.8247 9.75 18 8.57475 18 7.125C18 5.67525 16.8247 4.5 15.375 4.5ZM11.25 7.125C11.25 4.84683 13.0968 3 15.375 3C17.6532 3 19.5 4.84683 19.5 7.125C19.5 9.40317 17.6532 11.25 15.375 11.25C13.0968 11.25 11.25 9.40317 11.25 7.125Z" fill="black"/>
<path fill-rule="evenodd" clip-rule="evenodd" d="M7.875 14.25C6.42525 14.25 5.25 15.4253 5.25 16.875C5.25 18.3247 6.42525 19.5 7.875 19.5C9.32475 19.5 10.5 18.3247 10.5 16.875C10.5 15.4253 9.32475 14.25 7.875 14.25ZM3.75 16.875C3.75 14.5968 5.59683 12.75 7.875 12.75C10.1532 12.75 12 14.5968 12 16.875C12 19.1532 10.1532 21 7.875 21C5.59683 21 3.75 19.1532 3.75 16.875Z" fill="black"/>
</svg>
