<svg width="24" height="24" viewBox="0 0 24 24" fill="none" xmlns="http://www.w3.org/2000/svg">
<path fill-rule="evenodd" clip-rule="evenodd" d="M12 2.95001C7.00183 2.95001 2.95001 7.00183 2.95001 12C2.95001 16.9982 7.00183 21.05 12 21.05C16.9982 21.05 21.05 16.9982 21.05 12C21.05 7.00183 16.9982 2.95001 12 2.95001ZM1.45001 12C1.45001 6.17341 6.17341 1.45001 12 1.45001C17.8266 1.45001 22.55 6.17341 22.55 12C22.55 17.8266 17.8266 22.55 12 22.55C6.17341 22.55 1.45001 17.8266 1.45001 12Z" fill="black"/>
<path fill-rule="evenodd" clip-rule="evenodd" d="M6.75006 12C6.75006 11.5858 7.08585 11.25 7.50006 11.25L16.5001 11.25C16.9143 11.25 17.2501 11.5858 17.2501 12C17.2501 12.4142 16.9143 12.75 16.5001 12.75L7.50006 12.75C7.08585 12.75 6.75006 12.4142 6.75006 12Z" fill="black"/>
<path fill-rule="evenodd" clip-rule="evenodd" d="M12.0001 6.75C12.4143 6.75 12.7501 7.08579 12.7501 7.5V16.5C12.7501 16.9142 12.4143 17.25 12.0001 17.25C11.5858 17.25 11.2501 16.9142 11.2501 16.5V7.5C11.2501 7.08579 11.5858 6.75 12.0001 6.75Z" fill="black"/>
</svg>
