<svg width="24" height="24" viewBox="0 0 24 24" fill="none" xmlns="http://www.w3.org/2000/svg">
<path fill-rule="evenodd" clip-rule="evenodd" d="M13.5 15.75C13.5 14.5074 14.5074 13.5 15.75 13.5H20.25C21.4926 13.5 22.5 14.5074 22.5 15.75V20.25C22.5 21.4926 21.4926 22.5 20.25 22.5H15.75C14.5074 22.5 13.5 21.4926 13.5 20.25V15.75ZM15.75 15C15.3358 15 15 15.3358 15 15.75V20.25C15 20.6642 15.3358 21 15.75 21H20.25C20.6642 21 21 20.6642 21 20.25V15.75C21 15.3358 20.6642 15 20.25 15H15.75Z" fill="black"/>
<path fill-rule="evenodd" clip-rule="evenodd" d="M4.5 12C4.91421 12 5.25 12.3358 5.25 12.75V19.1987C5.25 19.3589 5.38061 19.5 5.56286 19.5H10.5C10.9142 19.5 11.25 19.8358 11.25 20.25C11.25 20.6642 10.9142 21 10.5 21H5.56286C4.56567 21 3.75 20.2008 3.75 19.1987V12.75C3.75 12.3358 4.08579 12 4.5 12Z" fill="black"/>
<path fill-rule="evenodd" clip-rule="evenodd" d="M8.46967 18.2197C8.76256 17.9268 9.23744 17.9268 9.53033 18.2197L11.0303 19.7197C11.171 19.8603 11.25 20.0511 11.25 20.25C11.25 20.4489 11.171 20.6397 11.0303 20.7803L9.53033 22.2803C9.23744 22.5732 8.76256 22.5732 8.46967 22.2803C8.17678 21.9874 8.17678 21.5126 8.46967 21.2197L9.43934 20.25L8.46967 19.2803C8.17678 18.9874 8.17678 18.5126 8.46967 18.2197Z" fill="black"/>
<path fill-rule="evenodd" clip-rule="evenodd" d="M12.75 3.75C12.75 3.33579 13.0858 3 13.5 3H18.3375C19.325 3 20.25 3.73772 20.25 4.80131V11.25C20.25 11.6642 19.9142 12 19.5 12C19.0858 12 18.75 11.6642 18.75 11.25V4.80131C18.75 4.70258 18.64 4.5 18.3375 4.5H13.5C13.0858 4.5 12.75 4.16421 12.75 3.75Z" fill="black"/>
<path fill-rule="evenodd" clip-rule="evenodd" d="M15.5303 1.71967C15.8232 2.01256 15.8232 2.48744 15.5303 2.78033L14.5607 3.75L15.5303 4.71967C15.8232 5.01256 15.8232 5.48744 15.5303 5.78033C15.2374 6.07322 14.7626 6.07322 14.4697 5.78033L12.9697 4.28033C12.829 4.13968 12.75 3.94891 12.75 3.75C12.75 3.55109 12.829 3.36032 12.9697 3.21967L14.4697 1.71967C14.7626 1.42678 15.2374 1.42678 15.5303 1.71967Z" fill="black"/>
<path fill-rule="evenodd" clip-rule="evenodd" d="M6 3C4.34315 3 3 4.34315 3 6C3 7.65685 4.34315 9 6 9C7.65685 9 9 7.65685 9 6C9 4.34315 7.65685 3 6 3ZM1.5 6C1.5 3.51472 3.51472 1.5 6 1.5C8.48528 1.5 10.5 3.51472 10.5 6C10.5 8.48528 8.48528 10.5 6 10.5C3.51472 10.5 1.5 8.48528 1.5 6Z" fill="black"/>
</svg>
