<svg width="24" height="24" viewBox="0 0 24 24" fill="none" xmlns="http://www.w3.org/2000/svg">
<path d="M6.94221 9.75H6.55779C6.24874 9.75 6 9.9825 6 10.2675V10.7325C6 11.0175 6.24874 11.25 6.55779 11.25H6.94221C7.25126 11.25 7.5 11.0175 7.5 10.7325V10.2675C7.5 9.9825 7.25126 9.75 6.94221 9.75Z" fill="black"/>
<path d="M12.1922 9.75H11.8078C11.4987 9.75 11.25 9.9825 11.25 10.2675V10.7325C11.25 11.0175 11.4987 11.25 11.8078 11.25H12.1922C12.5013 11.25 12.75 11.0175 12.75 10.7325V10.2675C12.75 9.9825 12.5013 9.75 12.1922 9.75Z" fill="black"/>
<path d="M17.4422 9.75H17.0578C16.7487 9.75 16.5 9.9825 16.5 10.2675V10.7325C16.5 11.0175 16.7487 11.25 17.0578 11.25H17.4422C17.7513 11.25 18 11.0175 18 10.7325V10.2675C18 9.9825 17.7513 9.75 17.4422 9.75Z" fill="black"/>
<path fill-rule="evenodd" clip-rule="evenodd" d="M1.5 6.37685C1.5 4.47123 3.12436 3 5.03571 3H18.9643C20.8756 3 22.5 4.47123 22.5 6.37685V14.9108C22.5 15.8369 22.1464 16.6341 21.5069 17.1903C20.8785 17.7368 20.0346 18 19.125 18H11.4913L7.64597 20.7607C7.63443 20.769 7.62267 20.777 7.61068 20.7846C7.09285 21.1135 6.4954 21.0179 6.09693 20.817C5.70558 20.6198 5.25 20.186 5.25 19.5452V18H4.875C3.96678 18 3.12301 17.7392 2.49427 17.1946C1.85385 16.6398 1.5 15.8437 1.5 14.9174V6.37685ZM5.03571 4.5C3.86885 4.5 3 5.38117 3 6.37685V14.9174C3 15.4417 3.1891 15.8119 3.4764 16.0608C3.77539 16.3198 4.24411 16.5 4.875 16.5H6C6.41421 16.5 6.75 16.8358 6.75 17.25V19.4649C6.75649 19.4691 6.7639 19.4734 6.77213 19.4776C6.78748 19.4853 6.80313 19.4912 6.81762 19.495C6.82315 19.4964 6.82812 19.4975 6.83246 19.4982L10.8126 16.6408C10.9401 16.5492 11.0931 16.5 11.25 16.5H19.125C19.7545 16.5 20.2231 16.3189 20.5225 16.0585C20.8107 15.8079 21 15.4354 21 14.9108V6.37685C21 5.38117 20.1311 4.5 18.9643 4.5H5.03571Z" fill="black"/>
</svg>
