<svg width="24" height="24" viewBox="0 0 24 24" fill="none" xmlns="http://www.w3.org/2000/svg">
<path fill-rule="evenodd" clip-rule="evenodd" d="M3.75 3.75C3.75 2.50736 4.75736 1.5 6 1.5H18C19.2426 1.5 20.25 2.50736 20.25 3.75V20.25C20.25 21.4926 19.2426 22.5 18 22.5H6C4.75736 22.5 3.75 21.4926 3.75 20.25V3.75ZM6 3C5.58579 3 5.25 3.33579 5.25 3.75V20.25C5.25 20.6642 5.58579 21 6 21H18C18.4142 21 18.75 20.6642 18.75 20.25V3.75C18.75 3.33579 18.4142 3 18 3H6Z" fill="black"/>
<path fill-rule="evenodd" clip-rule="evenodd" d="M9 6.75C9 5.09257 10.3426 3.75 12 3.75C13.6574 3.75 15 5.09257 15 6.75C15 8.40743 13.6574 9.75 12 9.75C10.3426 9.75 9 8.40743 9 6.75ZM12 5.25C11.171 5.25 10.5 5.92099 10.5 6.75C10.5 7.57901 11.171 8.25 12 8.25C12.829 8.25 13.5 7.57901 13.5 6.75C13.5 5.92099 12.829 5.25 12 5.25Z" fill="black"/>
<path fill-rule="evenodd" clip-rule="evenodd" d="M9.21668 12.224C9.03898 12.3584 8.99928 12.4832 9.00001 12.5595L9.00008 12.5667L9.00005 13.5H14.9999V12.4916C15.0011 12.3761 14.9552 12.274 14.8389 12.1815C14.7125 12.0809 14.5048 12 14.2456 12H9.89974C9.65035 12 9.39542 12.0888 9.21668 12.224ZM8.31175 11.0277C8.75437 10.6929 9.32791 10.5 9.89974 10.5H14.2456C15.2978 10.5 16.5103 11.1831 16.4999 12.5021V14.25C16.4999 14.6642 16.1642 15 15.7499 15H8.25005C7.83584 15 7.50005 14.6642 7.50005 14.25V12.5699C7.49506 11.8948 7.86898 11.3626 8.31175 11.0277Z" fill="black"/>
<path fill-rule="evenodd" clip-rule="evenodd" d="M7.5 17.25C7.5 16.8358 7.83579 16.5 8.25 16.5H15.75C16.1642 16.5 16.5 16.8358 16.5 17.25C16.5 17.6642 16.1642 18 15.75 18H8.25C7.83579 18 7.5 17.6642 7.5 17.25Z" fill="black"/>
<path fill-rule="evenodd" clip-rule="evenodd" d="M7.5 19.5C7.5 19.0858 7.83579 18.75 8.25 18.75H15.75C16.1642 18.75 16.5 19.0858 16.5 19.5C16.5 19.9142 16.1642 20.25 15.75 20.25H8.25C7.83579 20.25 7.5 19.9142 7.5 19.5Z" fill="black"/>
</svg>
