<svg width="24" height="24" viewBox="0 0 24 24" fill="none" xmlns="http://www.w3.org/2000/svg">
<path fill-rule="evenodd" clip-rule="evenodd" d="M6.75 3C5.50736 3 4.5 4.00736 4.5 5.25C4.5 6.49264 5.50736 7.5 6.75 7.5C7.99264 7.5 9 6.49264 9 5.25C9 4.00736 7.99264 3 6.75 3ZM3 5.25C3 3.17893 4.67893 1.5 6.75 1.5C8.82107 1.5 10.5 3.17893 10.5 5.25C10.5 7.32107 8.82107 9 6.75 9C4.67893 9 3 7.32107 3 5.25Z" fill="black"/>
<path fill-rule="evenodd" clip-rule="evenodd" d="M17.25 16.5C16.0074 16.5 15 17.5074 15 18.75C15 19.9926 16.0074 21 17.25 21C18.4926 21 19.5 19.9926 19.5 18.75C19.5 17.5074 18.4926 16.5 17.25 16.5ZM13.5 18.75C13.5 16.6789 15.1789 15 17.25 15C19.3211 15 21 16.6789 21 18.75C21 20.8211 19.3211 22.5 17.25 22.5C15.1789 22.5 13.5 20.8211 13.5 18.75Z" fill="black"/>
<path fill-rule="evenodd" clip-rule="evenodd" d="M9.5 5.25C9.5 4.83579 9.83579 4.5 10.25 4.5H16.75C19.074 4.5 21 6.31873 21 8.625C21 10.9313 19.074 12.75 16.75 12.75H8.75C7.20256 12.75 6 13.9481 6 15.375C6 16.8019 7.20256 18 8.75 18H14.25C14.6642 18 15 18.3358 15 18.75C15 19.1642 14.6642 19.5 14.25 19.5H8.75C6.42601 19.5 4.5 17.6813 4.5 15.375C4.5 13.0687 6.42601 11.25 8.75 11.25H16.75C18.2974 11.25 19.5 10.0519 19.5 8.625C19.5 7.19811 18.2974 6 16.75 6H10.25C9.83579 6 9.5 5.66421 9.5 5.25Z" fill="black"/>
</svg>
