<svg width="24" height="24" viewBox="0 0 24 24" fill="none" xmlns="http://www.w3.org/2000/svg">
<path fill-rule="evenodd" clip-rule="evenodd" d="M3.40794 5.20588C3.13844 5.20588 2.94643 5.41783 2.94643 5.64406V10.1059C2.94643 10.3322 3.13844 10.5441 3.40794 10.5441H4.875C5.27442 10.5441 5.59822 10.87 5.59822 11.2721C5.59822 11.6741 5.27442 12 4.875 12H3.40794C2.37092 12 1.5 11.1674 1.5 10.1059V5.64406C1.5 4.58261 2.37092 3.75 3.40794 3.75H7.52678C7.92621 3.75 8.25 4.07591 8.25 4.47794C8.25 4.87997 7.92621 5.20588 7.52678 5.20588H3.40794Z" fill="black"/>
<path fill-rule="evenodd" clip-rule="evenodd" d="M3.79227 9.26685C4.10992 9.00639 4.61202 9.01755 4.91372 9.29179L6.5441 10.7737C6.83486 11.038 6.83488 11.4526 6.54415 11.7169L4.91378 13.199C4.6121 13.4733 4.11001 13.4845 3.79232 13.224C3.47464 12.9636 3.46167 12.5302 3.76335 12.2559L4.87495 11.2454L3.76338 10.235C3.46167 9.96076 3.47461 9.52731 3.79227 9.26685Z" fill="black"/>
<path fill-rule="evenodd" clip-rule="evenodd" d="M20.5772 12.7059C20.793 12.7059 21 12.8859 21 13.1441V17.6059C21 17.8641 20.793 18.0441 20.5772 18.0441H19.125C18.7108 18.0441 18.375 18.37 18.375 18.7721C18.375 19.1741 18.7108 19.5 19.125 19.5H20.5772C21.6548 19.5 22.5 18.6355 22.5 17.6059V13.1441C22.5 12.1145 21.6548 11.25 20.5772 11.25H16.5C16.0858 11.25 15.75 11.5759 15.75 11.9779C15.75 12.38 16.0858 12.7059 16.5 12.7059H20.5772Z" fill="black"/>
<path fill-rule="evenodd" clip-rule="evenodd" d="M20.1746 16.7424C19.8584 16.4708 19.3587 16.4825 19.0584 16.7684L17.4774 18.2738C17.188 18.5494 17.188 18.9817 17.4774 19.2573L19.0583 20.7629C19.3586 21.0489 19.8583 21.0606 20.1745 20.789C20.4907 20.5174 20.5037 20.0655 20.2034 19.7795L19.1388 18.7656L20.2033 17.7519C20.5036 17.466 20.4908 17.014 20.1746 16.7424Z" fill="black"/>
<path fill-rule="evenodd" clip-rule="evenodd" d="M7.5 3C7.5 2.17157 8.17157 1.5 9 1.5H15C15.8284 1.5 16.5 2.17157 16.5 3V6C16.5 6.82843 15.8284 7.5 15 7.5H9C8.17157 7.5 7.5 6.82843 7.5 6V3ZM15 3H9V6H15V3Z" fill="black"/>
<path fill-rule="evenodd" clip-rule="evenodd" d="M7.5 10.5C7.5 9.67157 8.17157 9 9 9H15C15.8284 9 16.5 9.67157 16.5 10.5V13.5C16.5 14.3284 15.8284 15 15 15H9C8.17157 15 7.5 14.3284 7.5 13.5V10.5ZM15 10.5H9V13.5H15V10.5Z" fill="black"/>
<path fill-rule="evenodd" clip-rule="evenodd" d="M7.5 18C7.5 17.1716 8.17157 16.5 9 16.5H15C15.8284 16.5 16.5 17.1716 16.5 18V21C16.5 21.8284 15.8284 22.5 15 22.5H9C8.17157 22.5 7.5 21.8284 7.5 21V18ZM15 18H9V21H15V18Z" fill="black"/>
</svg>
