<svg width="24" height="24" viewBox="0 0 24 24" fill="none" xmlns="http://www.w3.org/2000/svg">
<path fill-rule="evenodd" clip-rule="evenodd" d="M15.4383 6.77418C16.0563 6.32186 16.8648 6 17.921 6C19.1613 6 20.3075 6.61723 21.1281 7.50658C21.9513 8.39867 22.5 9.61916 22.5 10.9244C22.5 13.9388 20.563 16.5 17.5103 16.5H6.00241C3.46756 16.5 1.5 14.3878 1.5 11.8939C1.5 10.121 2.59633 8.45536 4.3022 7.76886L4.30256 7.76871C4.98383 7.49496 5.69322 7.45307 6.53097 7.6525L7.05108 7.74889C7.45836 7.82438 7.72733 8.21573 7.65185 8.62301C7.57636 9.03029 7.18501 9.29926 6.77773 9.22378L6.23833 9.12381C6.22497 9.12133 6.21169 9.11849 6.19849 9.1153C5.61107 8.97306 5.21928 9.01692 4.86184 9.16055C3.72751 9.61722 3 10.7296 3 11.8939C3 13.6106 4.34626 15 6.00241 15H17.5103C19.5257 15 21 13.3361 21 10.9244C21 10.0376 20.6228 9.17086 20.0257 8.52377C19.4261 7.87393 18.6579 7.5 17.921 7.5C17.195 7.5 16.6946 7.71351 16.3241 7.98466C15.9899 8.22928 15.5206 8.15662 15.276 7.82235C15.0313 7.48809 15.104 7.01881 15.4383 6.77418Z" fill="black"/>
<path fill-rule="evenodd" clip-rule="evenodd" d="M12 3.01965C9.25645 3.01965 7.02368 5.26197 7.02368 8.04338V8.26965C7.02368 8.68387 6.6879 9.01965 6.27368 9.01965C5.85947 9.01965 5.52368 8.68387 5.52368 8.26965V8.04338C5.52368 4.44522 8.4164 1.51965 12 1.51965C14.9932 1.51965 17.504 3.5615 18.2479 6.32272C18.3556 6.72268 18.1187 7.13425 17.7188 7.24201C17.3188 7.34976 16.9073 7.11288 16.7995 6.71293C16.2258 4.58364 14.2916 3.01965 12 3.01965Z" fill="black"/>
<path fill-rule="evenodd" clip-rule="evenodd" d="M12 15C12.4142 15 12.75 15.3358 12.75 15.75V18.305C12.75 18.7192 12.4142 19.055 12 19.055C11.5858 19.055 11.25 18.7192 11.25 18.305V15.75C11.25 15.3358 11.5858 15 12 15Z" fill="black"/>
<path fill-rule="evenodd" clip-rule="evenodd" d="M4.5 20.25C4.5 19.8358 4.83579 19.5 5.25 19.5H9.75C10.1642 19.5 10.5 19.8358 10.5 20.25C10.5 20.6642 10.1642 21 9.75 21H5.25C4.83579 21 4.5 20.6642 4.5 20.25Z" fill="black"/>
<path fill-rule="evenodd" clip-rule="evenodd" d="M13.5 20.25C13.5 19.8358 13.8358 19.5 14.25 19.5H18.75C19.1642 19.5 19.5 19.8358 19.5 20.25C19.5 20.6642 19.1642 21 18.75 21H14.25C13.8358 21 13.5 20.6642 13.5 20.25Z" fill="black"/>
<path fill-rule="evenodd" clip-rule="evenodd" d="M12 19.5C11.5858 19.5 11.25 19.8358 11.25 20.25C11.25 20.6642 11.5858 21 12 21C12.4142 21 12.75 20.6642 12.75 20.25C12.75 19.8358 12.4142 19.5 12 19.5ZM14.25 20.25C14.25 21.4926 13.2426 22.5 12 22.5C10.7574 22.5 9.75 21.4926 9.75 20.25C9.75 19.0074 10.7574 18 12 18C13.2426 18 14.25 19.0074 14.25 20.25Z" fill="black"/>
</svg>
