<svg width="24" height="24" viewBox="0 0 24 24" fill="none" xmlns="http://www.w3.org/2000/svg">
<path fill-rule="evenodd" clip-rule="evenodd" d="M3 12C3 11.5858 3.33579 11.25 3.75 11.25H6.75C7.16421 11.25 7.5 11.5858 7.5 12C7.5 12.4142 7.16421 12.75 6.75 12.75H3.75C3.33579 12.75 3 12.4142 3 12Z" fill="black"/>
<path fill-rule="evenodd" clip-rule="evenodd" d="M5.25 8.25C5.66421 8.25 6 8.58579 6 9V12C6 12.4142 5.66421 12.75 5.25 12.75C4.83579 12.75 4.5 12.4142 4.5 12V9C4.5 8.58579 4.83579 8.25 5.25 8.25Z" fill="black"/>
<path fill-rule="evenodd" clip-rule="evenodd" d="M3 6.75C3 6.33579 3.33579 6 3.75 6H6.75C7.16421 6 7.5 6.33579 7.5 6.75C7.5 7.16421 7.16421 7.5 6.75 7.5H3.75C3.33579 7.5 3 7.16421 3 6.75Z" fill="black"/>
<path fill-rule="evenodd" clip-rule="evenodd" d="M3 17.25C3 16.8358 3.33579 16.5 3.75 16.5H6.75C7.16421 16.5 7.5 16.8358 7.5 17.25C7.5 17.6642 7.16421 18 6.75 18H3.75C3.33579 18 3 17.6642 3 17.25Z" fill="black"/>
<path fill-rule="evenodd" clip-rule="evenodd" d="M5.25 13.5C5.66421 13.5 6 13.8358 6 14.25V16.5C6 16.9142 5.66421 17.25 5.25 17.25C4.83579 17.25 4.5 16.9142 4.5 16.5V14.25C4.5 13.8358 4.83579 13.5 5.25 13.5Z" fill="black"/>
<path fill-rule="evenodd" clip-rule="evenodd" d="M8.25 9.75C8.25 9.33579 8.58579 9 9 9H11.25C11.6642 9 12 9.33579 12 9.75C12 10.1642 11.6642 10.5 11.25 10.5H9C8.58579 10.5 8.25 10.1642 8.25 9.75Z" fill="black"/>
<path fill-rule="evenodd" clip-rule="evenodd" d="M8.25 16.5C8.25 16.0858 8.58579 15.75 9 15.75H11.25C11.6642 15.75 12 16.0858 12 16.5C12 16.9142 11.6642 17.25 11.25 17.25H9C8.58579 17.25 8.25 16.9142 8.25 16.5Z" fill="black"/>
<path fill-rule="evenodd" clip-rule="evenodd" d="M8.25 14.25C8.25 13.8358 8.58579 13.5 9 13.5H11.25C11.6642 13.5 12 13.8358 12 14.25C12 14.6642 11.6642 15 11.25 15H9C8.58579 15 8.25 14.6642 8.25 14.25Z" fill="black"/>
<path fill-rule="evenodd" clip-rule="evenodd" d="M8.25 7.5C8.25 7.08579 8.58579 6.75 9 6.75L11.25 6.75001C11.6642 6.75001 12 7.08579 12 7.50001C12 7.91422 11.6642 8.25001 11.25 8.25001L9 8.25C8.58578 8.25 8.25 7.91421 8.25 7.5Z" fill="black"/>
<path fill-rule="evenodd" clip-rule="evenodd" d="M7.08162 3C6.50473 3 6 3.49209 6 4.122V6.62531C6 7.03952 5.66421 7.37531 5.25 7.37531C4.83579 7.37531 4.5 7.03952 4.5 6.62531V4.122C4.5 2.69467 5.64563 1.5 7.08162 1.5H19.1684C20.6044 1.5 21.75 2.69467 21.75 4.122V19.878C21.75 21.3053 20.6044 22.5 19.1684 22.5H7.08162C5.64563 22.5 4.5 21.3053 4.5 19.878V19.4622C4.5 19.048 4.83579 18.7122 5.25 18.7122C5.66421 18.7122 6 19.048 6 19.4622V19.878C6 20.5079 6.50473 21 7.08162 21H19.1684C19.7453 21 20.25 20.5079 20.25 19.878V4.122C20.25 3.49209 19.7453 3 19.1684 3H7.08162Z" fill="black"/>
<path fill-rule="evenodd" clip-rule="evenodd" d="M14.2994 6.75C14.2721 6.75 14.25 6.77211 14.25 6.79938V9.70062C14.25 9.72789 14.2721 9.75 14.2994 9.75H17.2006C17.2279 9.75 17.25 9.72789 17.25 9.70062V6.79938C17.25 6.77211 17.2279 6.75 17.2006 6.75H14.2994ZM12.75 6.79938C12.75 5.94368 13.4437 5.25 14.2994 5.25H17.2006C18.0563 5.25 18.75 5.94368 18.75 6.79938V9.70062C18.75 10.5563 18.0563 11.25 17.2006 11.25H14.2994C13.4437 11.25 12.75 10.5563 12.75 9.70062V6.79938Z" fill="black"/>
<path fill-rule="evenodd" clip-rule="evenodd" d="M14.2994 14.25C14.2721 14.25 14.25 14.2721 14.25 14.2994V17.2006C14.25 17.2279 14.2721 17.25 14.2994 17.25H17.2006C17.2279 17.25 17.25 17.2279 17.25 17.2006V14.2994C17.25 14.2721 17.2279 14.25 17.2006 14.25H14.2994ZM12.75 14.2994C12.75 13.4437 13.4437 12.75 14.2994 12.75H17.2006C18.0563 12.75 18.75 13.4437 18.75 14.2994V17.2006C18.75 18.0563 18.0563 18.75 17.2006 18.75H14.2994C13.4437 18.75 12.75 18.0563 12.75 17.2006V14.2994Z" fill="black"/>
</svg>
