<svg width="24" height="24" viewBox="0 0 24 24" fill="none" xmlns="http://www.w3.org/2000/svg">
<path fill-rule="evenodd" clip-rule="evenodd" d="M12 2.95001C7.00183 2.95001 2.95001 7.00183 2.95001 12C2.95001 16.9982 7.00183 21.05 12 21.05C16.9982 21.05 21.05 16.9982 21.05 12C21.05 7.00183 16.9982 2.95001 12 2.95001ZM1.45001 12C1.45001 6.17341 6.17341 1.45001 12 1.45001C17.8266 1.45001 22.55 6.17341 22.55 12C22.55 17.8266 17.8266 22.55 12 22.55C6.17341 22.55 1.45001 17.8266 1.45001 12Z" fill="black"/>
<path fill-rule="evenodd" clip-rule="evenodd" d="M16.9823 7.01767C17.199 7.23436 17.2621 7.5611 17.1416 7.84287L14.4746 14.0799C14.3767 14.3088 14.1716 14.4742 13.9271 14.5214C13.6826 14.5686 13.4307 14.4914 13.2546 14.3153L9.68465 10.7453C9.50859 10.5693 9.43139 10.3173 9.47857 10.0729C9.52575 9.8284 9.69117 9.62329 9.9201 9.5254L16.1571 6.8584C16.4389 6.73791 16.7656 6.80097 16.9823 7.01767ZM11.5293 10.4687L13.5313 12.4707L15.0269 8.97306L11.5293 10.4687Z" fill="black"/>
<path fill-rule="evenodd" clip-rule="evenodd" d="M10.0729 9.47857C10.3173 9.43139 10.5693 9.50859 10.7453 9.68465L14.3153 13.2546C14.4914 13.4307 14.5686 13.6826 14.5214 13.9271C14.4742 14.1716 14.3088 14.3767 14.0799 14.4746L7.84287 17.1416C7.5611 17.2621 7.23436 17.199 7.01767 16.9823C6.80097 16.7656 6.73791 16.4389 6.8584 16.1571L9.5254 9.9201C9.62329 9.69117 9.8284 9.52575 10.0729 9.47857ZM10.4687 11.5293L8.97306 15.0269L12.4707 13.5313L10.4687 11.5293Z" fill="black"/>
</svg>
