<svg width="24" height="24" viewBox="0 0 24 24" fill="none" xmlns="http://www.w3.org/2000/svg">
<path fill-rule="evenodd" clip-rule="evenodd" d="M3 9C3 8.58579 3.33579 8.25 3.75 8.25L6.75055 8.25C7.16477 8.25 7.50055 8.58579 7.50055 9C7.50055 9.41421 7.16477 9.75 6.75055 9.75L3.75 9.75C3.33579 9.75 3 9.41421 3 9Z" fill="black"/>
<path fill-rule="evenodd" clip-rule="evenodd" d="M3 13.5C3 13.0858 3.33579 12.75 3.75 12.75H6.75C7.16421 12.75 7.5 13.0858 7.5 13.5C7.5 13.9142 7.16421 14.25 6.75 14.25H3.75C3.33579 14.25 3 13.9142 3 13.5Z" fill="black"/>
<path fill-rule="evenodd" clip-rule="evenodd" d="M5.25 10.5C5.66421 10.5 6 10.8358 6 11.25V13.5C6 13.9142 5.66421 14.25 5.25 14.25C4.83579 14.25 4.5 13.9142 4.5 13.5V11.25C4.5 10.8358 4.83579 10.5 5.25 10.5Z" fill="black"/>
<path fill-rule="evenodd" clip-rule="evenodd" d="M3 18C3 17.5858 3.33579 17.25 3.75 17.25L6.75055 17.25C7.16477 17.25 7.50055 17.5858 7.50055 18C7.50055 18.4142 7.16477 18.75 6.75055 18.75L3.75 18.75C3.33579 18.75 3 18.4142 3 18Z" fill="black"/>
<path fill-rule="evenodd" clip-rule="evenodd" d="M5.25 15C5.66421 15 6 15.3358 6 15.75V17.6538C6 18.0681 5.66421 18.4038 5.25 18.4038C4.83579 18.4038 4.5 18.0681 4.5 17.6538V15.75C4.5 15.3358 4.83579 15 5.25 15Z" fill="black"/>
<path fill-rule="evenodd" clip-rule="evenodd" d="M6.81996 5.25C6.40872 5.25 6 5.62207 6 6.156V8.37046C6 8.78468 5.66421 9.12046 5.25 9.12046C4.83579 9.12046 4.5 8.78468 4.5 8.37046V6.156C4.5 4.87006 5.50588 3.75 6.81996 3.75H17.18C18.4941 3.75 19.5 4.87006 19.5 6.156V20.094C19.5 21.3799 18.4941 22.5 17.18 22.5H6.81996C5.60494 22.5 4.5 21.6334 4.5 20.25C4.5 19.8358 4.83579 19.5 5.25 19.5C5.66421 19.5 6 19.8358 6 20.25C6 20.6865 6.30965 21 6.81996 21H17.18C17.5913 21 18 20.6279 18 20.094V6.156C18 5.62207 17.5913 5.25 17.18 5.25H6.81996Z" fill="black"/>
<path fill-rule="evenodd" clip-rule="evenodd" d="M6 2.25C6 1.83579 6.32052 1.5 6.71591 1.5H19.1499C20.5587 1.5 21.75 2.67441 21.75 4.1615V20.25C21.75 20.6642 21.4295 21 21.0341 21C20.6387 21 20.3182 20.6642 20.3182 20.25V4.1615C20.3182 3.54793 19.8117 3 19.1499 3H6.71591C6.32052 3 6 2.66421 6 2.25Z" fill="black"/>
<path fill-rule="evenodd" clip-rule="evenodd" d="M9 9C9 8.58579 9.33579 8.25 9.75 8.25L15 8.25C15.4142 8.25 15.75 8.58579 15.75 9C15.75 9.41421 15.4142 9.75 15 9.75L9.75 9.75C9.33579 9.75 9 9.41421 9 9Z" fill="black"/>
<path fill-rule="evenodd" clip-rule="evenodd" d="M9 12C9 11.5858 9.33579 11.25 9.75 11.25L15 11.25C15.4142 11.25 15.75 11.5858 15.75 12C15.75 12.4142 15.4142 12.75 15 12.75L9.75 12.75C9.33579 12.75 9 12.4142 9 12Z" fill="black"/>
<path fill-rule="evenodd" clip-rule="evenodd" d="M9 15C9 14.5858 9.33579 14.25 9.75 14.25L15 14.25C15.4142 14.25 15.75 14.5858 15.75 15C15.75 15.4142 15.4142 15.75 15 15.75L9.75 15.75C9.33579 15.75 9 15.4142 9 15Z" fill="black"/>
</svg>
