<svg width="24" height="24" viewBox="0 0 24 24" fill="none" xmlns="http://www.w3.org/2000/svg">
<g clip-path="url(#clip0_437_5301)">
<path fill-rule="evenodd" clip-rule="evenodd" d="M7.71338 3.97604C8.00276 3.67967 8.4776 3.674 8.77396 3.96338L10.274 5.428C10.4185 5.56913 10.5 5.76261 10.5 5.96462V7.5C10.5 7.91421 10.1642 8.25 9.75 8.25C9.33579 8.25 9 7.91421 9 7.5V6.28054L7.72604 5.03662C7.42967 4.74724 7.424 4.2724 7.71338 3.97604Z" fill="black"/>
<path fill-rule="evenodd" clip-rule="evenodd" d="M16.2866 3.97604C15.9972 3.67967 15.5224 3.674 15.226 3.96338L13.726 5.428C13.5815 5.56913 13.5 5.76261 13.5 5.96462V7.5C13.5 7.91421 13.8358 8.25 14.25 8.25C14.6642 8.25 15 7.91421 15 7.5V6.28054L16.274 5.03662C16.5703 4.74724 16.576 4.2724 16.2866 3.97604Z" fill="black"/>
<path fill-rule="evenodd" clip-rule="evenodd" d="M3.97663 7.7128C4.27332 7.42375 4.74816 7.42995 5.0372 7.72664L6.27777 9H7.5C7.91421 9 8.25 9.33579 8.25 9.75C8.25 10.1642 7.91421 10.5 7.5 10.5H5.96136C5.75905 10.5 5.56533 10.4183 5.42415 10.2734L3.9628 8.77337C3.67375 8.47668 3.67995 8.00184 3.97663 7.7128Z" fill="black"/>
<path fill-rule="evenodd" clip-rule="evenodd" d="M20.7734 7.7128C20.4767 7.42375 20.0018 7.42995 19.7128 7.72664L18.4722 9H17.25C16.8358 9 16.5 9.33579 16.5 9.75C16.5 10.1642 16.8358 10.5 17.25 10.5H18.7886C18.9909 10.5 19.1847 10.4183 19.3258 10.2734L20.7872 8.77337C21.0763 8.47668 21.0701 8.00184 20.7734 7.7128Z" fill="black"/>
<path fill-rule="evenodd" clip-rule="evenodd" d="M9.75 16.5C10.1642 16.5 10.5 16.8358 10.5 17.25V18.7854C10.5 18.9874 10.4185 19.1809 10.274 19.322L8.77396 20.7866C8.4776 21.076 8.00276 21.0703 7.71338 20.774C7.424 20.4776 7.42967 20.0028 7.72604 19.7134L9 18.4695V17.25C9 16.8358 9.33579 16.5 9.75 16.5Z" fill="black"/>
<path fill-rule="evenodd" clip-rule="evenodd" d="M14.25 16.5C13.8358 16.5 13.5 16.8358 13.5 17.25V18.7854C13.5 18.9874 13.5815 19.1809 13.726 19.322L15.226 20.7866C15.5224 21.076 15.9972 21.0703 16.2866 20.774C16.576 20.4776 16.5703 20.0028 16.274 19.7134L15 18.4695V17.25C15 16.8358 14.6642 16.5 14.25 16.5Z" fill="black"/>
<path fill-rule="evenodd" clip-rule="evenodd" d="M5.42415 12.9766C5.56533 12.8317 5.75905 12.75 5.96136 12.75H7.5C7.91421 12.75 8.25 13.0858 8.25 13.5C8.25 13.9142 7.91421 14.25 7.5 14.25H6.27777L5.0372 15.5234C4.74816 15.8201 4.27332 15.8263 3.97663 15.5372C3.67995 15.2482 3.67375 14.7733 3.9628 14.4766L5.42415 12.9766Z" fill="black"/>
<path fill-rule="evenodd" clip-rule="evenodd" d="M19.3258 12.9766C19.1847 12.8317 18.9909 12.75 18.7886 12.75H17.25C16.8358 12.75 16.5 13.0858 16.5 13.5C16.5 13.9142 16.8358 14.25 17.25 14.25H18.4722L19.7128 15.5234C20.0018 15.8201 20.4767 15.8263 20.7734 15.5372C21.0701 15.2482 21.0763 14.7733 20.7872 14.4766L19.3258 12.9766Z" fill="black"/>
<path fill-rule="evenodd" clip-rule="evenodd" d="M3 15.75C2.58579 15.75 2.25 16.0858 2.25 16.5C2.25 16.9142 2.58579 17.25 3 17.25C3.41421 17.25 3.75 16.9142 3.75 16.5C3.75 16.0858 3.41421 15.75 3 15.75ZM0.75 16.5C0.75 15.2574 1.75736 14.25 3 14.25C4.24264 14.25 5.25 15.2574 5.25 16.5C5.25 17.7426 4.24264 18.75 3 18.75C1.75736 18.75 0.75 17.7426 0.75 16.5Z" fill="black"/>
<path fill-rule="evenodd" clip-rule="evenodd" d="M21 15.75C20.5858 15.75 20.25 16.0858 20.25 16.5C20.25 16.9142 20.5858 17.25 21 17.25C21.4142 17.25 21.75 16.9142 21.75 16.5C21.75 16.0858 21.4142 15.75 21 15.75ZM18.75 16.5C18.75 15.2574 19.7574 14.25 21 14.25C22.2426 14.25 23.25 15.2574 23.25 16.5C23.25 17.7426 22.2426 18.75 21 18.75C19.7574 18.75 18.75 17.7426 18.75 16.5Z" fill="black"/>
<path fill-rule="evenodd" clip-rule="evenodd" d="M6.75 20.25C6.33579 20.25 6 20.5858 6 21C6 21.4142 6.33579 21.75 6.75 21.75C7.16421 21.75 7.5 21.4142 7.5 21C7.5 20.5858 7.16421 20.25 6.75 20.25ZM4.5 21C4.5 19.7574 5.50736 18.75 6.75 18.75C7.99264 18.75 9 19.7574 9 21C9 22.2426 7.99264 23.25 6.75 23.25C5.50736 23.25 4.5 22.2426 4.5 21Z" fill="black"/>
<path fill-rule="evenodd" clip-rule="evenodd" d="M17.25 20.25C16.8358 20.25 16.5 20.5858 16.5 21C16.5 21.4142 16.8358 21.75 17.25 21.75C17.6642 21.75 18 21.4142 18 21C18 20.5858 17.6642 20.25 17.25 20.25ZM15 21C15 19.7574 16.0074 18.75 17.25 18.75C18.4926 18.75 19.5 19.7574 19.5 21C19.5 22.2426 18.4926 23.25 17.25 23.25C16.0074 23.25 15 22.2426 15 21Z" fill="black"/>
<path fill-rule="evenodd" clip-rule="evenodd" d="M3 6C2.58579 6 2.25 6.33579 2.25 6.75C2.25 7.16421 2.58579 7.5 3 7.5C3.41421 7.5 3.75 7.16421 3.75 6.75C3.75 6.33579 3.41421 6 3 6ZM0.75 6.75C0.75 5.50736 1.75736 4.5 3 4.5C4.24264 4.5 5.25 5.50736 5.25 6.75C5.25 7.99264 4.24264 9 3 9C1.75736 9 0.75 7.99264 0.75 6.75Z" fill="black"/>
<path fill-rule="evenodd" clip-rule="evenodd" d="M21 6C20.5858 6 20.25 6.33579 20.25 6.75C20.25 7.16421 20.5858 7.5 21 7.5C21.4142 7.5 21.75 7.16421 21.75 6.75C21.75 6.33579 21.4142 6 21 6ZM18.75 6.75C18.75 5.50736 19.7574 4.5 21 4.5C22.2426 4.5 23.25 5.50736 23.25 6.75C23.25 7.99264 22.2426 9 21 9C19.7574 9 18.75 7.99264 18.75 6.75Z" fill="black"/>
<path fill-rule="evenodd" clip-rule="evenodd" d="M7.5 2.25C7.08579 2.25 6.75 2.58579 6.75 3C6.75 3.41421 7.08579 3.75 7.5 3.75C7.91421 3.75 8.25 3.41421 8.25 3C8.25 2.58579 7.91421 2.25 7.5 2.25ZM5.25 3C5.25 1.75736 6.25736 0.75 7.5 0.75C8.74264 0.75 9.75 1.75736 9.75 3C9.75 4.24264 8.74264 5.25 7.5 5.25C6.25736 5.25 5.25 4.24264 5.25 3Z" fill="black"/>
<path fill-rule="evenodd" clip-rule="evenodd" d="M16.5 2.25C16.0858 2.25 15.75 2.58579 15.75 3C15.75 3.41421 16.0858 3.75 16.5 3.75C16.9142 3.75 17.25 3.41421 17.25 3C17.25 2.58579 16.9142 2.25 16.5 2.25ZM14.25 3C14.25 1.75736 15.2574 0.75 16.5 0.75C17.7426 0.75 18.75 1.75736 18.75 3C18.75 4.24264 17.7426 5.25 16.5 5.25C15.2574 5.25 14.25 4.24264 14.25 3Z" fill="black"/>
<path fill-rule="evenodd" clip-rule="evenodd" d="M8.61119 8.25C8.42196 8.25 8.25 8.40868 8.25 8.62747V15.3725C8.25 15.5913 8.42196 15.75 8.61119 15.75H15.3888C15.578 15.75 15.75 15.5913 15.75 15.3725V8.62747C15.75 8.40868 15.578 8.25 15.3888 8.25H8.61119ZM6.75 8.62747C6.75 7.6009 7.57304 6.75 8.61119 6.75H15.3888C16.427 6.75 17.25 7.60089 17.25 8.62747V15.3725C17.25 16.3991 16.427 17.25 15.3888 17.25H8.61119C7.57304 17.25 6.75 16.3991 6.75 15.3725V8.62747Z" fill="black"/>
</g>
<defs>
<clipPath id="clip0_437_5301">
<rect width="24" height="24" fill="white"/>
</clipPath>
</defs>
</svg>
