<svg width="24" height="24" viewBox="0 0 24 24" fill="none" xmlns="http://www.w3.org/2000/svg">
<path fill-rule="evenodd" clip-rule="evenodd" d="M1.44995 3.76801C1.44995 2.4928 2.49274 1.45001 3.76795 1.45001H15.528C16.8032 1.45001 17.846 2.4928 17.846 3.76801V9.25601C17.846 9.67023 17.5102 10.006 17.096 10.006C16.6817 10.006 16.346 9.67023 16.346 9.25601V3.76801C16.346 3.32123 15.9747 2.95001 15.528 2.95001H3.76795C3.32116 2.95001 2.94995 3.32123 2.94995 3.76801V10.04C2.94995 10.4868 3.32116 10.858 3.76795 10.858C4.18216 10.858 4.51795 11.1938 4.51795 11.608V13.3426L5.70393 12.552C6.04857 12.3222 6.51422 12.4153 6.74399 12.76C6.97375 13.1046 6.88062 13.5703 6.53598 13.8001L4.18398 15.3681C3.95383 15.5215 3.65793 15.5358 3.41406 15.4053C3.17019 15.2748 3.01795 15.0206 3.01795 14.744V12.2328C2.10804 11.9194 1.44995 11.0531 1.44995 10.04V3.76801Z" fill="black"/>
<path fill-rule="evenodd" clip-rule="evenodd" d="M7.688 10.006C7.23421 10.006 6.87 10.3702 6.87 10.824V17.096C6.87 17.5498 7.23421 17.914 7.688 17.914H14.744C14.8921 17.914 15.0368 17.9578 15.16 18.0399L18.698 20.3986V18.664C18.698 18.2498 19.0338 17.914 19.448 17.914C19.9018 17.914 20.266 17.5498 20.266 17.096V10.824C20.266 10.3702 19.9018 10.006 19.448 10.006H7.688ZM5.37 10.824C5.37 9.54177 6.40578 8.50598 7.688 8.50598H19.448C20.7302 8.50598 21.766 9.54177 21.766 10.824V17.096C21.766 18.1156 21.111 18.9794 20.198 19.2904V21.8C20.198 22.0766 20.0458 22.3307 19.8019 22.4612C19.558 22.5918 19.2621 22.5774 19.032 22.424L14.5169 19.414H7.688C6.40578 19.414 5.37 18.3782 5.37 17.096V10.824Z" fill="black"/>
</svg>
