<svg width="24" height="24" viewBox="0 0 24 24" fill="none" xmlns="http://www.w3.org/2000/svg">
<path fill-rule="evenodd" clip-rule="evenodd" d="M7.98809 10.6806C8.30259 10.9501 8.33901 11.4236 8.06944 11.7381L6.23781 13.875L8.06944 16.0119C8.33901 16.3264 8.30259 16.7999 7.98809 17.0695C7.6736 17.339 7.20012 17.3026 6.93056 16.9881L4.68056 14.3631C4.43981 14.0822 4.43981 13.6678 4.68056 13.3869L6.93056 10.7619C7.20012 10.4474 7.6736 10.411 7.98809 10.6806Z" fill="black"/>
<path fill-rule="evenodd" clip-rule="evenodd" d="M16.0119 10.6806C16.3264 10.411 16.7999 10.4474 17.0695 10.7619L19.3195 13.3869C19.5602 13.6678 19.5602 14.0822 19.3195 14.3631L17.0695 16.9881C16.7999 17.3026 16.3264 17.339 16.0119 17.0695C15.6974 16.7999 15.661 16.3264 15.9306 16.0119L17.7622 13.875L15.9306 11.7381C15.661 11.4236 15.6974 10.9501 16.0119 10.6806Z" fill="black"/>
<path fill-rule="evenodd" clip-rule="evenodd" d="M13.4159 8.27237C13.8178 8.37283 14.0621 8.78003 13.9616 9.18188L11.7116 18.1819C11.6112 18.5837 11.204 18.828 10.8021 18.7276C10.4003 18.6271 10.156 18.2199 10.2564 17.8181L12.5064 8.81808C12.6069 8.41623 13.0141 8.17191 13.4159 8.27237Z" fill="black"/>
<path fill-rule="evenodd" clip-rule="evenodd" d="M1.5 6H22.5V19.5517C22.5 21.1203 21.3141 22.5 19.7225 22.5H4.27749C2.68587 22.5 1.5 21.1203 1.5 19.5517V6ZM3 7.5V19.5517C3 20.4095 3.62717 21 4.27749 21H19.7225C20.3728 21 21 20.4095 21 19.5517V7.5H3Z" fill="black"/>
<path fill-rule="evenodd" clip-rule="evenodd" d="M1.5 4.49257C1.5 2.914 2.67289 1.5 4.278 1.5H19.722C21.3271 1.5 22.5 2.914 22.5 4.49257V7.5H1.5V4.49257ZM4.278 3C3.64061 3 3 3.5959 3 4.49257V6H21V4.49257C21 3.5959 20.3594 3 19.722 3H4.278Z" fill="black"/>
<path d="M5.43498 3.75H5.06502C4.75297 3.75 4.5 3.98215 4.5 4.26852V4.73148C4.5 5.01785 4.75297 5.25 5.06502 5.25H5.43498C5.74703 5.25 6 5.01785 6 4.73148V4.26852C6 3.98215 5.74703 3.75 5.43498 3.75Z" fill="black"/>
<path d="M7.68498 3.75H7.31502C7.00297 3.75 6.75 3.98215 6.75 4.26852V4.73148C6.75 5.01785 7.00297 5.25 7.31502 5.25H7.68498C7.99703 5.25 8.25 5.01785 8.25 4.73148V4.26852C8.25 3.98215 7.99703 3.75 7.68498 3.75Z" fill="black"/>
<path d="M9.93498 3.75H9.56502C9.25297 3.75 9 3.98215 9 4.26852V4.73148C9 5.01785 9.25297 5.25 9.56502 5.25H9.93498C10.247 5.25 10.5 5.01785 10.5 4.73148V4.26852C10.5 3.98215 10.247 3.75 9.93498 3.75Z" fill="black"/>
</svg>
