<svg width="24" height="24" viewBox="0 0 24 24" fill="none" xmlns="http://www.w3.org/2000/svg">
<path fill-rule="evenodd" clip-rule="evenodd" d="M10.271 2.95001C6.22767 2.95001 2.94995 6.22774 2.94995 10.271C2.94995 14.3143 6.22767 17.592 10.271 17.592C14.3142 17.592 17.592 14.3143 17.592 10.271C17.592 6.22774 14.3142 2.95001 10.271 2.95001ZM1.44995 10.271C1.44995 5.39931 5.39925 1.45001 10.271 1.45001C15.1427 1.45001 19.092 5.39931 19.092 10.271C19.092 15.1427 15.1427 19.092 10.271 19.092C5.39925 19.092 1.44995 15.1427 1.44995 10.271Z" fill="black"/>
<path fill-rule="evenodd" clip-rule="evenodd" d="M15.5017 15.5017C15.7945 15.2088 16.2694 15.2088 16.5623 15.5017L22.3303 21.2697C22.6232 21.5625 22.6232 22.0374 22.3303 22.3303C22.0374 22.6232 21.5625 22.6232 21.2697 22.3303L15.5017 16.5623C15.2088 16.2694 15.2088 15.7945 15.5017 15.5017Z" fill="black"/>
</svg>
