<svg width="24" height="24" viewBox="0 0 24 24" fill="none" xmlns="http://www.w3.org/2000/svg">
<path fill-rule="evenodd" clip-rule="evenodd" d="M18.75 1.5C19.1642 1.5 19.5 1.83579 19.5 2.25V5.25C19.5 5.66421 19.1642 6 18.75 6H15.75C15.3358 6 15 5.66421 15 5.25C15 4.83579 15.3358 4.5 15.75 4.5H18V2.25C18 1.83579 18.3358 1.5 18.75 1.5Z" fill="black"/>
<path fill-rule="evenodd" clip-rule="evenodd" d="M4.5 18.75C4.5 18.3358 4.83579 18 5.25 18H8.25C8.66421 18 9 18.3358 9 18.75C9 19.1642 8.66421 19.5 8.25 19.5H6V21.75C6 22.1642 5.66421 22.5 5.25 22.5C4.83579 22.5 4.5 22.1642 4.5 21.75V18.75Z" fill="black"/>
<path fill-rule="evenodd" clip-rule="evenodd" d="M12 3C7.02734 3 3 7.02734 3 12C3 13.6431 3.44075 15.1765 4.20577 16.4996C4.41312 16.8582 4.29051 17.3169 3.93193 17.5243C3.57335 17.7316 3.11457 17.609 2.90723 17.2504C2.01475 15.707 1.5 13.9156 1.5 12C1.5 6.19891 6.19891 1.5 12 1.5C14.8622 1.5 17.3565 2.4208 19.2803 4.34467C19.5732 4.63756 19.5732 5.11244 19.2803 5.40533C18.9874 5.69822 18.5126 5.69822 18.2197 5.40533C16.614 3.7997 14.5198 3 12 3Z" fill="black"/>
<path fill-rule="evenodd" clip-rule="evenodd" d="M20.0681 6.47573C20.4266 6.26839 20.8854 6.39099 21.0928 6.74957C21.9852 8.29304 22.5 10.0844 22.5 12C22.5 17.8011 17.8011 22.5 12 22.5C9.13782 22.5 6.64354 21.5792 4.71967 19.6553C4.42678 19.3624 4.42678 18.8876 4.71967 18.5947C5.01256 18.3018 5.48744 18.3018 5.78033 18.5947C7.38596 20.2003 9.48017 21 12 21C16.9727 21 21 16.9727 21 12C21 10.3569 20.5592 8.82346 19.7942 7.50043C19.5869 7.14185 19.7095 6.68308 20.0681 6.47573Z" fill="black"/>
<path fill-rule="evenodd" clip-rule="evenodd" d="M10.0482 5.4708C10.1889 5.32945 10.3802 5.25 10.5796 5.25L13.4883 5.25C13.8973 5.25 14.2309 5.57769 14.2382 5.98662L14.2565 7.01289C14.5935 7.17055 14.9105 7.36155 15.2049 7.58036L16.0195 7.11212C16.1923 7.01277 16.3976 6.98632 16.59 7.03859C16.7823 7.09086 16.946 7.21756 17.0447 7.3907L18.5229 9.98166C18.7276 10.3406 18.6035 10.7975 18.2453 11.0035L17.4325 11.4708C17.4516 11.6492 17.4624 11.8313 17.4635 12.0178L17.4635 12.0236L17.4635 12.0236C17.4631 12.2071 17.4551 12.3923 17.4377 12.5779L18.2734 13.0772C18.6237 13.2864 18.7424 13.7373 18.5406 14.0919L17.0892 16.6428C16.9896 16.818 16.8236 16.9457 16.6287 16.9971C16.4339 17.0485 16.2265 17.0194 16.0534 16.9162L15.2297 16.4253C14.9463 16.6301 14.6404 16.8073 14.3164 16.9521L14.3205 17.9141C14.3214 18.1153 14.2413 18.3085 14.0983 18.4501C13.9554 18.5917 13.7615 18.67 13.5603 18.6672L10.6307 18.6272C10.2218 18.6216 9.89274 18.2894 9.891 17.8805L9.88682 16.9012C9.55236 16.7442 9.23767 16.5543 8.94518 16.3369L8.1306 16.8052C7.95778 16.9045 7.75253 16.931 7.56016 16.8787C7.3678 16.8264 7.20416 16.6997 7.10539 16.5266L5.62726 13.9356C5.4225 13.5767 5.54663 13.1198 5.90486 12.9138L6.71693 12.4469C6.69729 12.2665 6.68626 12.0816 6.68666 11.8937C6.68705 11.7102 6.69498 11.525 6.71241 11.3394L5.87671 10.8401C5.52647 10.6309 5.40775 10.18 5.60951 9.82541L7.0609 7.27447C7.16056 7.0993 7.32652 6.97162 7.52138 6.92019C7.71624 6.86876 7.92359 6.89791 8.09671 7.00108L8.92045 7.49196C9.20384 7.2872 9.50973 7.10998 9.83373 6.96519L9.82963 6.0032C9.82877 5.80373 9.90741 5.61215 10.0482 5.4708ZM11.3328 6.75L11.3359 7.47612C11.3373 7.80339 11.1264 8.09377 10.8147 8.19359C10.318 8.35268 9.86581 8.61784 9.48769 8.95968C9.24341 9.18051 8.88367 9.21618 8.60079 9.0476L7.98622 8.68138L7.27635 9.92904L7.91089 10.3082C8.18427 10.4715 8.3247 10.7897 8.26112 11.1017C8.21066 11.3494 8.18726 11.6154 8.18666 11.8969C8.18611 12.1569 8.21784 12.4235 8.2722 12.691C8.33649 13.0075 8.19101 13.3296 7.91106 13.4905L7.30054 13.8416L8.03542 15.1297L8.64618 14.7786C8.9281 14.6166 9.28233 14.6547 9.52337 14.8729C9.92157 15.2335 10.3801 15.5137 10.8831 15.6903C11.1825 15.7954 11.3833 16.0775 11.3847 16.3947L11.3878 17.1374L12.8173 17.1569L12.8142 16.4412C12.8128 16.1139 13.0238 15.8235 13.3354 15.7237C13.8322 15.5646 14.2843 15.2995 14.6624 14.9576C14.9067 14.7368 15.2665 14.7011 15.5493 14.8697L16.1639 15.2359L16.8738 13.9883L16.2392 13.6091C15.9658 13.4458 15.8254 13.1276 15.889 12.8156C15.9393 12.5688 15.9627 12.3037 15.9635 12.0234C15.9617 11.7527 15.9313 11.489 15.8779 11.2263C15.8136 10.9098 15.9591 10.5877 16.2391 10.4268L16.8496 10.0757L16.1147 8.78756L15.5039 9.13865C15.222 9.3007 14.8678 9.26263 14.6268 9.04436C14.2285 8.68378 13.77 8.40361 13.267 8.22699C12.9712 8.12312 12.7712 7.8462 12.7656 7.53272L12.7516 6.75L11.3328 6.75Z" fill="black"/>
<path fill-rule="evenodd" clip-rule="evenodd" d="M12 13.125C12.6213 13.125 13.125 12.6213 13.125 12C13.125 11.3787 12.6213 10.875 12 10.875C11.3787 10.875 10.875 11.3787 10.875 12C10.875 12.6213 11.3787 13.125 12 13.125ZM12 14.625C13.4497 14.625 14.625 13.4497 14.625 12C14.625 10.5503 13.4497 9.375 12 9.375C10.5503 9.375 9.375 10.5503 9.375 12C9.375 13.4497 10.5503 14.625 12 14.625Z" fill="black"/>
</svg>
