<svg width="24" height="24" viewBox="0 0 24 24" fill="none" xmlns="http://www.w3.org/2000/svg">
<path fill-rule="evenodd" clip-rule="evenodd" d="M12 7.5C10.7574 7.5 9.75 8.50736 9.75 9.75C9.75 10.9926 10.7574 12 12 12C13.2426 12 14.25 10.9926 14.25 9.75C14.25 8.50736 13.2426 7.5 12 7.5ZM8.25 9.75C8.25 7.67893 9.92893 6 12 6C14.0711 6 15.75 7.67893 15.75 9.75C15.75 11.8211 14.0711 13.5 12 13.5C9.92893 13.5 8.25 11.8211 8.25 9.75Z" fill="black"/>
<path fill-rule="evenodd" clip-rule="evenodd" d="M7.50002 17.7705C7.50002 17.7702 7.50002 17.7707 7.50002 17.7705L7.52032 20.2438C7.52372 20.658 7.1907 20.9966 6.7765 21C6.3623 21.0034 6.02377 20.6704 6.02037 20.2562L6.00006 17.7812L6.00005 17.7795C5.99055 16.2092 7.31179 15 8.86898 15H15.131C16.6882 15 18.0095 16.2092 18 17.7795L17.9796 20.2562C17.9762 20.6704 17.6377 21.0034 17.2235 21C16.8093 20.9966 16.4763 20.658 16.4797 20.2438L16.5 17.7705C16.5 17.7707 16.5 17.7702 16.5 17.7705C16.5036 17.104 15.9294 16.5 15.131 16.5H8.86898C8.07058 16.5 7.49641 17.104 7.50002 17.7705Z" fill="black"/>
<path fill-rule="evenodd" clip-rule="evenodd" d="M12 2.95001C7.00183 2.95001 2.95001 7.00183 2.95001 12C2.95001 16.9982 7.00183 21.05 12 21.05C16.9982 21.05 21.05 16.9982 21.05 12C21.05 7.00183 16.9982 2.95001 12 2.95001ZM1.45001 12C1.45001 6.17341 6.17341 1.45001 12 1.45001C17.8266 1.45001 22.55 6.17341 22.55 12C22.55 17.8266 17.8266 22.55 12 22.55C6.17341 22.55 1.45001 17.8266 1.45001 12Z" fill="black"/>
</svg>
