<svg width="24" height="24" viewBox="0 0 24 24" fill="none" xmlns="http://www.w3.org/2000/svg">
<path fill-rule="evenodd" clip-rule="evenodd" d="M9.75 10.5C9.75 10.0858 10.0858 9.75 10.5 9.75H13.3519C14.6791 9.75 15.7483 10.8325 15.7483 12.1528V15C15.7483 15.1403 15.8592 15.25 15.9971 15.25H16.5C16.9142 15.25 17.25 15.5858 17.25 16V18C17.25 18.4142 16.9142 18.75 16.5 18.75H10.5C10.0858 18.75 9.75 18.4142 9.75 18V16C9.75 15.5858 10.0858 15.25 10.5 15.25H11.2517V13.5C11.2517 13.3597 11.1408 13.25 11.0029 13.25H10.5C10.0858 13.25 9.75 12.9142 9.75 12.5V10.5ZM14.2484 15.02C14.2483 15.0156 14.2483 15.0113 14.2483 15.0069V12.1528C14.2483 11.6536 13.8433 11.25 13.3519 11.25H11.25V11.7673C12.0977 11.887 12.7517 12.6136 12.7517 13.5V16C12.7517 16.4142 12.4159 16.75 12.0017 16.75H11.25V17.25H15.75V16.7327C14.9087 16.6139 14.2581 15.8973 14.2484 15.02Z" fill="black"/>
<path fill-rule="evenodd" clip-rule="evenodd" d="M10.5 6.75346C10.5 5.51966 11.4983 4.5 12.75 4.5C13.9858 4.5 15 5.49679 15 6.74654C15 7.98034 14.0017 9 12.75 9C11.512 9 10.5 7.99402 10.5 6.75346ZM12.75 6C12.3365 6 12 6.33831 12 6.75346C12 7.16187 12.3367 7.5 12.75 7.5C13.1635 7.5 13.5 7.16169 13.5 6.74654C13.5 6.33346 13.1656 6 12.75 6Z" fill="black"/>
<path fill-rule="evenodd" clip-rule="evenodd" d="M3 6.75C3 6.33579 3.33579 6 3.75 6H6.75C7.16421 6 7.5 6.33579 7.5 6.75C7.5 7.16421 7.16421 7.5 6.75 7.5H3.75C3.33579 7.5 3 7.16421 3 6.75Z" fill="black"/>
<path fill-rule="evenodd" clip-rule="evenodd" d="M3 12C3 11.5858 3.33579 11.25 3.75 11.25H6.75C7.16421 11.25 7.5 11.5858 7.5 12C7.5 12.4142 7.16421 12.75 6.75 12.75H3.75C3.33579 12.75 3 12.4142 3 12Z" fill="black"/>
<path fill-rule="evenodd" clip-rule="evenodd" d="M5.25 8.25C5.66421 8.25 6 8.58579 6 9V12C6 12.4142 5.66421 12.75 5.25 12.75C4.83579 12.75 4.5 12.4142 4.5 12V9C4.5 8.58579 4.83579 8.25 5.25 8.25Z" fill="black"/>
<path fill-rule="evenodd" clip-rule="evenodd" d="M3 17.25C3 16.8358 3.33579 16.5 3.75 16.5H6.75C7.16421 16.5 7.5 16.8358 7.5 17.25C7.5 17.6642 7.16421 18 6.75 18H3.75C3.33579 18 3 17.6642 3 17.25Z" fill="black"/>
<path fill-rule="evenodd" clip-rule="evenodd" d="M5.25 13.5C5.66421 13.5 6 13.8358 6 14.25V16.5C6 16.9142 5.66421 17.25 5.25 17.25C4.83579 17.25 4.5 16.9142 4.5 16.5V14.25C4.5 13.8358 4.83579 13.5 5.25 13.5Z" fill="black"/>
<path fill-rule="evenodd" clip-rule="evenodd" d="M7.08162 3C6.50473 3 6 3.49209 6 4.122V6.62531C6 7.03952 5.66421 7.37531 5.25 7.37531C4.83579 7.37531 4.5 7.03952 4.5 6.62531V4.122C4.5 2.69467 5.64563 1.5 7.08162 1.5H19.1684C20.6044 1.5 21.75 2.69467 21.75 4.122V19.878C21.75 21.3053 20.6044 22.5 19.1684 22.5H7.08162C5.64563 22.5 4.5 21.3053 4.5 19.878V19.4622C4.5 19.048 4.83579 18.7122 5.25 18.7122C5.66421 18.7122 6 19.048 6 19.4622V19.878C6 20.5079 6.50473 21 7.08162 21H19.1684C19.7453 21 20.25 20.5079 20.25 19.878V4.122C20.25 3.49209 19.7453 3 19.1684 3H7.08162Z" fill="black"/>
</svg>
