<svg width="24" height="24" viewBox="0 0 24 24" fill="none" xmlns="http://www.w3.org/2000/svg">
<path fill-rule="evenodd" clip-rule="evenodd" d="M15.9997 1.70402C16.0005 1.70454 16.0013 1.70505 16.0022 1.70557L18.5215 3.23166C18.522 3.23199 18.5226 3.23232 18.5231 3.23265C19.1986 3.63889 19.4083 4.51667 19.037 5.19143C19.0368 5.1917 19.0367 5.19196 19.0365 5.19222L18.1807 6.75292C18.7013 7.42759 19.1256 8.19062 19.4303 9.01767H21.0818C21.9039 9.01767 22.5 9.7085 22.5 10.4695V13.5305C22.5 14.3035 21.8923 14.9823 21.0818 14.9823H19.4303C19.127 15.8061 18.7081 16.5698 18.1808 17.2472L19.036 18.8068C19.4132 19.4851 19.1908 20.3568 18.5287 20.764L18.5244 20.7666L15.9979 22.2971L15.995 22.2988C15.2992 22.716 14.4275 22.4529 14.0452 21.7592L13.2096 20.24C12.8165 20.3012 12.4132 20.3341 12 20.3341C11.5868 20.3341 11.1835 20.3012 10.7904 20.24L9.95658 21.7559C9.5811 22.4504 8.7007 22.7247 8.00036 22.296C7.99952 22.2955 7.99867 22.295 7.99782 22.2944L5.4785 20.7683C5.47798 20.768 5.47746 20.7677 5.47694 20.7674C4.80145 20.3612 4.59172 19.4835 4.96292 18.8088C4.9631 18.8084 4.96327 18.8081 4.96345 18.8078L5.81929 17.2471C5.29867 16.5724 4.87441 15.8094 4.56972 14.9823H2.91821C2.09609 14.9823 1.5 14.2915 1.5 13.5305V10.4695C1.5 9.69652 2.10774 9.01767 2.91821 9.01767H4.56971C4.87299 8.19391 5.29194 7.43024 5.81921 6.75279L4.96393 5.19309C4.58684 4.51479 4.80922 3.64319 5.4713 3.23604L5.47559 3.2334L8.00501 1.70119C8.70083 1.28399 9.57248 1.54712 9.95475 2.24077L10.7904 3.76002C11.1835 3.69884 11.5868 3.66592 12 3.66592C12.4132 3.66592 12.8165 3.69884 13.2096 3.76002L14.0434 2.24411C14.4189 1.54964 15.2993 1.2753 15.9997 1.70402ZM10.8185 20.1889C10.8185 20.189 10.8186 20.1888 10.8185 20.1889V20.1889ZM18.1737 17.2343C18.1736 17.2341 18.1738 17.2345 18.1737 17.2343V17.2343ZM15.3157 3.04344L14.4961 4.53335C14.2255 5.02563 13.6657 5.36256 13.0431 5.25251C12.7031 5.19611 12.3556 5.16592 12 5.16592C11.6429 5.16592 11.2939 5.19637 10.9526 5.25321L10.9504 5.25357C10.3442 5.35271 9.78134 5.03808 9.50406 4.53369L8.68432 3.04344L6.29091 4.49328L7.14095 6.04342C7.41562 6.54385 7.38235 7.17649 7.02669 7.64362L7.02331 7.64806L7.01986 7.65244C6.57416 8.22011 6.21711 8.87031 5.96006 9.58335L5.95929 9.58547C5.75545 10.1456 5.22798 10.5177 4.63994 10.5177H3V13.4823H4.63994C5.22549 13.4823 5.76093 13.8482 5.96139 14.4203C6.21743 15.1294 6.57855 15.7798 7.02183 16.3501C7.38591 16.8179 7.41401 17.4591 7.14123 17.9561C7.14114 17.9562 7.14133 17.9559 7.14123 17.9561L6.29091 19.5067L8.68432 20.9566L9.50388 19.4667C9.50381 19.4668 9.50394 19.4665 9.50388 19.4667C9.77451 18.9744 10.3343 18.6374 10.957 18.7475C11.2969 18.8039 11.6444 18.8341 12 18.8341C12.3571 18.8341 12.706 18.8036 13.0474 18.7468L13.0495 18.7464C13.6632 18.6461 14.2199 18.9738 14.4931 19.4611L14.496 19.4663L15.3157 20.9566L17.7091 19.5067L16.8591 17.9566C16.859 17.9564 16.8591 17.9568 16.8591 17.9566C16.5844 17.4562 16.6176 16.8235 16.9733 16.3564L16.9767 16.352L16.9801 16.3476C17.4258 15.7799 17.7829 15.1297 18.0399 14.4167L18.0407 14.4145C18.2446 13.8544 18.772 13.4823 19.3601 13.4823H21V10.5177H19.3601C18.7745 10.5177 18.239 10.1518 18.0386 9.5796C17.7825 8.87058 17.4214 8.22014 16.9782 7.64993C16.614 7.18203 16.586 6.54063 16.859 6.0436C16.8589 6.04366 16.859 6.04354 16.859 6.0436L17.7091 4.49328L15.3157 3.04344ZM3 10.4695C3 10.4695 3 10.4695 3 10.4695V10.4695ZM12.5144 9.04204C10.4544 8.7052 8.70475 10.4545 9.04218 12.5138C9.24347 13.7468 10.2495 14.7536 11.4851 14.9579M12.5144 9.04204C13.7502 9.24607 14.7564 10.2526 14.9577 11.4857C15.2952 13.5452 13.5453 15.295 11.4851 14.9579M7.56185 12.756C7.05871 9.68353 9.68582 7.05909 12.7572 7.56183L12.7582 7.56198C14.6272 7.87029 16.1328 9.37345 16.4381 11.244C16.9413 14.3165 14.3142 16.9409 11.2428 16.4382L11.2418 16.438C9.37297 16.1297 7.86739 14.6264 7.56185 12.756Z" fill="black"/>
</svg>
