<svg width="24" height="24" viewBox="0 0 24 24" fill="none" xmlns="http://www.w3.org/2000/svg">
<path fill-rule="evenodd" clip-rule="evenodd" d="M20.9482 9.95497C16.3178 4.68168 7.68224 4.68168 3.05178 9.95497L20.9482 9.95497ZM20.9482 9.95497L22.3132 11.5073C22.5623 11.7905 22.5623 12.2146 22.3132 12.4978L20.9482 14.0501C16.3111 19.3158 7.68244 19.3169 3.05175 14.0501L1.68678 12.4978C1.43774 12.2146 1.43774 11.7905 1.68678 11.5073L3.05178 9.95497M19.8214 10.9451C15.7883 6.35165 8.21166 6.35165 4.17859 10.9451L3.24872 12.0025L4.17822 13.0596C8.21107 17.6465 15.7817 17.6472 19.8221 13.0592C19.8221 13.0593 19.8221 13.0592 19.8221 13.0592L20.7513 12.0025L19.8214 10.9451Z" fill="black"/>
<path fill-rule="evenodd" clip-rule="evenodd" d="M12 10.5C11.1716 10.5 10.5 11.1716 10.5 12C10.5 12.8284 11.1716 13.5 12 13.5C12.8284 13.5 13.5 12.8284 13.5 12C13.5 11.1716 12.8284 10.5 12 10.5ZM9 12C9 10.3431 10.3431 9 12 9C13.6569 9 15 10.3431 15 12C15 13.6569 13.6569 15 12 15C10.3431 15 9 13.6569 9 12Z" fill="black"/>
</svg>
