<svg width="24" height="24" viewBox="0 0 24 24" fill="none" xmlns="http://www.w3.org/2000/svg">
<path fill-rule="evenodd" clip-rule="evenodd" d="M1.5 6C1.5 5.58579 1.83579 5.25 2.25 5.25H21.75C22.1642 5.25 22.5 5.58579 22.5 6C22.5 6.41421 22.1642 6.75 21.75 6.75H2.25C1.83579 6.75 1.5 6.41421 1.5 6Z" fill="black"/>
<path fill-rule="evenodd" clip-rule="evenodd" d="M1.5 19.5C1.5 19.0858 1.83579 18.75 2.25 18.75H21.75C22.1642 18.75 22.5 19.0858 22.5 19.5C22.5 19.9142 22.1642 20.25 21.75 20.25H2.25C1.83579 20.25 1.5 19.9142 1.5 19.5Z" fill="black"/>
<path fill-rule="evenodd" clip-rule="evenodd" d="M2.25 5.25C2.66421 5.25 3 5.58579 3 6L3 10.5C3 10.9142 2.66421 11.25 2.25 11.25C1.83579 11.25 1.5 10.9142 1.5 10.5L1.5 6C1.5 5.58579 1.83579 5.25 2.25 5.25Z" fill="black"/>
<path fill-rule="evenodd" clip-rule="evenodd" d="M2.25 14.25C2.66421 14.25 3 14.5858 3 15V19.5C3 19.9142 2.66421 20.25 2.25 20.25C1.83579 20.25 1.5 19.9142 1.5 19.5V15C1.5 14.5858 1.83579 14.25 2.25 14.25Z" fill="black"/>
<path fill-rule="evenodd" clip-rule="evenodd" d="M21.75 5.25C22.1642 5.25 22.5 5.58579 22.5 6V9.75C22.5 10.1642 22.1642 10.5 21.75 10.5C21.3358 10.5 21 10.1642 21 9.75V6C21 5.58579 21.3358 5.25 21.75 5.25Z" fill="black"/>
<path fill-rule="evenodd" clip-rule="evenodd" d="M21.7514 13.5C22.1656 13.5007 22.5008 13.8371 22.5001 14.2513L22.4915 19.2513C22.4907 19.6655 22.1544 20.0007 21.7402 20C21.326 19.9993 20.9907 19.6629 20.9915 19.2487L21.0001 14.2487C21.0008 13.8345 21.3371 13.4993 21.7514 13.5Z" fill="black"/>
<path fill-rule="evenodd" clip-rule="evenodd" d="M1.5 10.5C1.5 10.0858 1.83579 9.75 2.25 9.75C3.98007 9.75 5.25 11.2755 5.25 12.75C5.25 14.2245 3.98007 15.75 2.25 15.75C1.83579 15.75 1.5 15.4142 1.5 15C1.5 14.5858 1.83579 14.25 2.25 14.25C3.0762 14.25 3.75 13.4735 3.75 12.75C3.75 12.0265 3.0762 11.25 2.25 11.25C1.83579 11.25 1.5 10.9142 1.5 10.5Z" fill="black"/>
<path fill-rule="evenodd" clip-rule="evenodd" d="M21.75 10.5C20.92 10.5 20.25 11.1734 20.25 12C20.25 12.8266 20.92 13.5 21.75 13.5C22.1642 13.5 22.5 13.8358 22.5 14.25C22.5 14.6642 22.1642 15 21.75 15C20.0889 15 18.75 13.6524 18.75 12C18.75 10.3476 20.0889 9 21.75 9C22.1642 9 22.5 9.33579 22.5 9.75C22.5 10.1642 22.1642 10.5 21.75 10.5Z" fill="black"/>
<path fill-rule="evenodd" clip-rule="evenodd" d="M7.5 7.5C7.91421 7.5 8.25 7.83579 8.25 8.25V9.75C8.25 10.1642 7.91421 10.5 7.5 10.5C7.08579 10.5 6.75 10.1642 6.75 9.75V8.25C6.75 7.83579 7.08579 7.5 7.5 7.5Z" fill="black"/>
<path fill-rule="evenodd" clip-rule="evenodd" d="M7.5 11.25C7.91421 11.25 8.25 11.5858 8.25 12V13.5C8.25 13.9142 7.91421 14.25 7.5 14.25C7.08579 14.25 6.75 13.9142 6.75 13.5V12C6.75 11.5858 7.08579 11.25 7.5 11.25Z" fill="black"/>
<path fill-rule="evenodd" clip-rule="evenodd" d="M7.5 15C7.91421 15 8.25 15.3358 8.25 15.75V17.25C8.25 17.6642 7.91421 18 7.5 18C7.08579 18 6.75 17.6642 6.75 17.25V15.75C6.75 15.3358 7.08579 15 7.5 15Z" fill="black"/>
</svg>
