<svg width="24" height="24" viewBox="0 0 24 24" fill="none" xmlns="http://www.w3.org/2000/svg">
<path fill-rule="evenodd" clip-rule="evenodd" d="M20.3328 2.25457C20.7445 2.30032 21.0412 2.67113 20.9954 3.08281L20.6204 6.45781C20.5747 6.86949 20.2038 7.16614 19.7922 7.1204L16.4172 6.7454C16.0055 6.69966 15.7088 6.32885 15.7546 5.91717C15.8003 5.50549 16.1711 5.20883 16.5828 5.25458L19.2124 5.54675L19.5046 2.91716C19.5503 2.50548 19.9212 2.20883 20.3328 2.25457Z" fill="black"/>
<path fill-rule="evenodd" clip-rule="evenodd" d="M4.57474 4.57363C8.68086 0.475748 15.3269 0.47499 19.4261 4.57416C19.719 4.86705 19.719 5.34192 19.4261 5.63482C19.1332 5.92771 18.6584 5.92772 18.3655 5.63483C14.8527 2.12208 9.15569 2.12126 5.63452 5.63517C2.12207 9.14794 2.12136 14.8445 5.6352 18.3655C9.1481 21.878 14.845 21.8786 18.366 18.3646C20.7722 15.9581 21.5293 12.5301 20.6398 9.47657C20.524 9.07888 20.7524 8.66258 21.1501 8.54674C21.5478 8.4309 21.9641 8.65938 22.0799 9.05707C23.1162 12.6145 22.2358 16.6162 19.4261 19.4258L19.4256 19.4264C15.3195 23.5243 8.67345 23.525 4.57421 19.4258L4.57369 19.4253C0.475729 15.3193 0.474971 8.67333 4.57421 4.57416L4.57474 4.57363Z" fill="black"/>
<path fill-rule="evenodd" clip-rule="evenodd" d="M12 8.25C11.1735 8.25 10.5 8.9235 10.5 9.75C10.5 10.5765 11.1735 11.25 12 11.25C13.6549 11.25 15 12.5951 15 14.25C15 15.9049 13.6549 17.25 12 17.25C10.3465 17.25 9 15.9128 9 14.25C9 13.8358 9.33579 13.5 9.75 13.5C10.1642 13.5 10.5 13.8358 10.5 14.25C10.5 15.0765 11.1735 15.75 12 15.75C12.8265 15.75 13.5 15.0765 13.5 14.25C13.5 13.4235 12.8265 12.75 12 12.75C10.3451 12.75 9 11.4049 9 9.75C9 8.09507 10.3451 6.75 12 6.75C13.6535 6.75 15 8.08725 15 9.75C15 10.1642 14.6642 10.5 14.25 10.5C13.8358 10.5 13.5 10.1642 13.5 9.75C13.5 8.9235 12.8265 8.25 12 8.25Z" fill="black"/>
<path fill-rule="evenodd" clip-rule="evenodd" d="M12 4.5C12.4142 4.5 12.75 4.83579 12.75 5.25V6.75C12.75 7.16421 12.4142 7.5 12 7.5C11.5858 7.5 11.25 7.16421 11.25 6.75V5.25C11.25 4.83579 11.5858 4.5 12 4.5Z" fill="black"/>
<path fill-rule="evenodd" clip-rule="evenodd" d="M12 16.5C12.4142 16.5 12.75 16.8358 12.75 17.25V18.75C12.75 19.1642 12.4142 19.5 12 19.5C11.5858 19.5 11.25 19.1642 11.25 18.75V17.25C11.25 16.8358 11.5858 16.5 12 16.5Z" fill="black"/>
</svg>
