<svg xmlns="http://www.w3.org/2000/svg" width="20" height="20" fill="currentColor" viewBox="0 0 20 20">
  <path fill-rule="evenodd" d="M10 5a1.875 1.875 0 1 0 0 3.75A1.875 1.875 0 0 0 10 5ZM6.875 6.875a3.125 3.125 0 1 1 6.25 0 3.125 3.125 0 0 1-6.25 0ZM5.625 13.6l.019 2.646a.625.625 0 0 1-1.25.008l-.019-2.646c-.009-1.323 1.09-2.358 2.407-2.358h4.78a.625.625 0 1 1 0 1.25h-4.78c-.667 0-1.16.513-1.157 1.1Z" clip-rule="evenodd"/>
  <path fill-rule="evenodd" d="M10 2.5a7.5 7.5 0 1 0 1.85 14.77.625.625 0 1 1 .31 1.21 8.663 8.663 0 0 1-2.16.27c-4.831 0-8.75-3.917-8.75-8.747S5.168 1.25 10 1.25c4.831 0 8.75 3.917 8.75 8.747 0 .756-.099 1.483-.275 2.182a.625.625 0 1 1-1.212-.306A7.5 7.5 0 0 0 10 2.5Z" clip-rule="evenodd"/>
  <path fill-rule="evenodd" d="M14.688 11.25a3.437 3.437 0 1 0 0 6.875 3.437 3.437 0 0 0 0-6.875ZM10 14.688a4.688 4.688 0 1 1 9.375 0 4.688 4.688 0 0 1-9.375 0Z" clip-rule="evenodd"/>
  <path fill-rule="evenodd" d="M16.662 13.28c.26.227.286.622.058.882l-2.188 2.5a.625.625 0 0 1-.94 0l-.937-1.07a.625.625 0 0 1 .94-.824l.467.533 1.718-1.963a.625.625 0 0 1 .882-.058Z" clip-rule="evenodd"/>
</svg>
