<svg xmlns="http://www.w3.org/2000/svg" width="20" height="20" fill="currentColor" viewBox="0 0 20 20">
  <path fill-rule="evenodd" d="M2.5 10.003a7.5 7.5 0 1 1 14.945.894A4.667 4.667 0 0 0 14.688 10a4.67 4.67 0 0 0-3.186 1.25H6.78c-1.316 0-2.415 1.035-2.406 2.358l.01 1.364A7.467 7.467 0 0 1 2.5 10.003Zm16.25-.006a8.85 8.85 0 0 1-.23 1.992 4.688 4.688 0 0 1-6.53 6.533 8.697 8.697 0 0 1-1.99.228c-4.831 0-8.75-3.917-8.75-8.747S5.168 1.25 10 1.25c4.831 0 8.75 3.917 8.75 8.747ZM10 14.687c0 1.032.333 1.986.898 2.76A7.621 7.621 0 0 1 10 17.5a7.466 7.466 0 0 1-4.357-1.395L5.625 13.6c-.004-.586.49-1.099 1.157-1.099h3.759A4.667 4.667 0 0 0 10 14.688ZM10 5a1.875 1.875 0 1 0 0 3.75A1.875 1.875 0 0 0 10 5ZM6.875 6.875a3.125 3.125 0 1 1 6.25 0 3.125 3.125 0 0 1-6.25 0Zm7.813 4.375a3.437 3.437 0 1 0 0 6.875 3.437 3.437 0 0 0 0-6.875Zm2.032 2.912a.625.625 0 1 0-.94-.824l-1.718 1.963-.467-.533a.625.625 0 0 0-.94.823l.937 1.07a.625.625 0 0 0 .94 0l2.188-2.5Z" clip-rule="evenodd"/>
</svg>
