<svg xmlns="http://www.w3.org/2000/svg" width="20" height="20" fill="currentColor" viewBox="0 0 20 20">
  <path fill-rule="evenodd" d="M17.5 3.75h-15v12.5h15V3.75ZM2.5 2.5c-.69 0-1.25.56-1.25 1.25v12.5c0 .69.56 1.25 1.25 1.25h15c.69 0 1.25-.56 1.25-1.25V3.75c0-.69-.56-1.25-1.25-1.25h-15Zm5 6.25a1.25 1.25 0 1 0 0-2.5 1.25 1.25 0 0 0 0 2.5Zm0 1.25a2.5 2.5 0 1 0 0-5 2.5 2.5 0 0 0 0 5ZM5 12.341c0-.063.032-.167.18-.28a.977.977 0 0 1 .57-.186h3.62c.216 0 .39.067.495.151.097.077.135.162.134.259v.84H5v-.784Zm.75-1.716c-.477 0-.955.16-1.324.44-.369.279-.68.722-.676 1.285v1.4c0 .345.28.625.625.625h6.25c.345 0 .625-.28.625-.625v-1.457c.008-1.099-1.002-1.668-1.879-1.668H5.75Zm6.125-4.375c0-.345.28-.625.625-.625h3.125a.625.625 0 1 1 0 1.25H12.5a.625.625 0 0 1-.625-.625Zm.625 1.875a.625.625 0 1 0 0 1.25h3.125a.625.625 0 1 0 0-1.25H12.5Z" clip-rule="evenodd"/>
</svg>
