<svg xmlns="http://www.w3.org/2000/svg" width="20" height="20" fill="currentColor" viewBox="0 0 20 20">
  <path d="M13.154 10.003a.561.561 0 0 1 .179.035c.009.003.019.004.027.008.023.01.044.021.066.033.014.008.03.015.044.024l.034.028c.02.015.041.03.06.049.014.014.026.03.038.046.013.015.027.03.039.046.04.059.068.124.086.195a.618.618 0 0 1 .023.157v2.242l.624.624.626-.624v-2.241a.625.625 0 0 1 .86-.58c1.377.561 2.265 1.807 2.265 3.393 0 1.26-.58 2.446-1.563 3.15l.003 1.536a.625.625 0 0 1-1.25.002l-.002-1.875c0-.226.12-.435.318-.546.744-.418 1.244-1.284 1.244-2.268 0-.673-.227-1.237-.625-1.656v1.344a.624.624 0 0 1-.184.441l-1.24 1.24-.009.011a.625.625 0 0 1-.884 0l-1.25-1.25a.627.627 0 0 1-.183-.442v-1.321c-.39.42-.625.978-.625 1.633 0 .972.53 1.849 1.254 2.273a.626.626 0 0 1 .309.54v1.875a.625.625 0 1 1-1.25 0v-1.542c-.944-.698-1.563-1.876-1.563-3.145 0-1.596.943-2.829 2.25-3.386a.619.619 0 0 1 .249-.052h.001l.03.003ZM16.25 1.25c1.035 0 1.875.84 1.875 1.875v5.313a.625.625 0 1 1-1.25 0V3.125a.625.625 0 0 0-.625-.625H3.125a.625.625 0 0 0-.625.625V13.75c0 .345.28.625.625.625h4.459a.625.625 0 0 1 0 1.25H3.125A1.875 1.875 0 0 1 1.25 13.75V3.125c0-1.036.84-1.875 1.875-1.875H16.25Zm-7.379 7.5c.876 0 1.76.624 1.754 1.666v1.459c0 .345-.28.625-.625.625H4.375a.625.625 0 0 1-.625-.625v-1.402c-.003-.534.264-.973.608-1.263.342-.287.795-.46 1.254-.46h3.26ZM5.612 10a.724.724 0 0 0-.449.167c-.12.101-.164.208-.163.3v.783h4.375v-.84a.35.35 0 0 0-.122-.28.577.577 0 0 0-.382-.13H5.612Zm1.575-6.25a2.188 2.188 0 1 1 0 4.375 2.188 2.188 0 0 1 0-4.375Zm7.188 2.5a.625.625 0 1 1 0 1.25h-2.5a.625.625 0 1 1 0-1.25h2.5ZM7.187 5a.937.937 0 1 0 0 1.875.937.937 0 0 0 0-1.875Zm7.188-.625a.625.625 0 1 1 0 1.25h-2.5a.625.625 0 1 1 0-1.25h2.5Z"/>
</svg>
