<svg xmlns="http://www.w3.org/2000/svg" width="20" height="20" fill="none" viewBox="0 0 20 20">
  <path fill="#3D3C3C" fill-rule="evenodd" d="M3.125 3.125v3.75h13.75v-3.75H3.125ZM2.5 1.875a.625.625 0 0 0-.625.625v5c0 .345.28.625.625.625h15c.345 0 .625-.28.625-.625v-5a.625.625 0 0 0-.625-.625h-15Zm.625 8.75v1.25h13.75v-1.25H3.125ZM2.5 9.375a.625.625 0 0 0-.625.625v2.5c0 .345.28.625.625.625h15c.345 0 .625-.28.625-.625V10a.625.625 0 0 0-.625-.625h-15Zm.625 7.5v-1.25h13.75v1.25H3.125ZM1.875 15c0-.345.28-.625.625-.625h15c.345 0 .625.28.625.625v2.5c0 .345-.28.625-.625.625h-15a.625.625 0 0 1-.625-.625V15Z" clip-rule="evenodd"/>
</svg>
