<svg xmlns="http://www.w3.org/2000/svg" width="20" height="20" fill="currentColor" viewBox="0 0 20 20">
  <path fill-rule="evenodd" d="M17.5 3.75h-15v12.5h15V3.75ZM2.5 2.5c-.69 0-1.25.56-1.25 1.25v12.5c0 .69.56 1.25 1.25 1.25h15c.69 0 1.25-.56 1.25-1.25V3.75c0-.69-.56-1.25-1.25-1.25h-15Z" clip-rule="evenodd"/>
  <path fill-rule="evenodd" d="M7.5 8.75a1.25 1.25 0 1 0 0-2.5 1.25 1.25 0 0 0 0 2.5Zm0 1.25a2.5 2.5 0 1 0 0-5 2.5 2.5 0 0 0 0 5Zm-2.32 2.062c-.148.112-.18.216-.18.28v.783h5v-.84a.314.314 0 0 0-.134-.259.803.803 0 0 0-.495-.151H5.75a.977.977 0 0 0-.57.187Zm-.754-.997c.37-.28.847-.44 1.324-.44h3.62c.877 0 1.887.57 1.879 1.668v1.457c0 .345-.28.625-.625.625h-6.25a.625.625 0 0 1-.625-.625v-1.4c-.004-.563.307-1.006.676-1.285Zm7.449-4.815c0-.345.28-.625.625-.625h3.125a.625.625 0 1 1 0 1.25H12.5a.625.625 0 0 1-.625-.625Zm0 2.5c0-.345.28-.625.625-.625h3.125a.625.625 0 1 1 0 1.25H12.5a.625.625 0 0 1-.625-.625Z" clip-rule="evenodd"/>
</svg>
