<svg xmlns="http://www.w3.org/2000/svg" width="20" height="20" fill="currentColor" viewBox="0 0 20 20">
  <path fill-rule="evenodd" d="M7.188 9.063a2.188 2.188 0 1 1 4.375 0 2.188 2.188 0 0 1-4.376 0Zm2.187-.938a.937.937 0 1 0 0 1.875.937.937 0 0 0 0-1.875Zm-1.4 3.781c-.856 0-1.731.714-1.725 1.725v1.4c0 .345.28.625.625.625h5c.345 0 .625-.28.625-.625v-1.457c.006-.976-.747-1.668-1.628-1.668H7.975ZM7.5 13.624c-.002-.244.236-.468.475-.468h2.897c.204 0 .38.144.378.411v.84H7.5v-.783Z" clip-rule="evenodd"/>
  <path d="M12.5 8.125c0-.345.28-.625.625-.625h2.5a.625.625 0 1 1 0 1.25h-2.5a.625.625 0 0 1-.625-.625Zm.625 1.25a.625.625 0 1 0 0 1.25h2.5a.625.625 0 1 0 0-1.25h-2.5Z"/>
  <path fill-rule="evenodd" d="M3.125 1.25c-1.036 0-1.875.84-1.875 1.875v10c0 1.036.84 1.875 1.875 1.875h.625v1.25c0 1.035.84 1.875 1.875 1.875h11.25c1.035 0 1.875-.84 1.875-1.875v-10c0-1.036-.84-1.875-1.875-1.875h-.625v-1.25c0-1.036-.84-1.875-1.875-1.875H3.125ZM15 4.375v-1.25a.625.625 0 0 0-.625-.625H3.125a.625.625 0 0 0-.625.625v10c0 .345.28.625.625.625h.625v-7.5c0-1.036.84-1.875 1.875-1.875H15ZM5 6.25c0-.345.28-.625.625-.625h11.25c.345 0 .625.28.625.625v10c0 .345-.28.625-.625.625H5.625A.625.625 0 0 1 5 16.25v-10Z" clip-rule="evenodd"/>
</svg>
