<svg xmlns="http://www.w3.org/2000/svg" width="20" height="20" fill="currentColor" viewBox="0 0 20 20">
  <path d="M8.088 5.412a.625.625 0 0 1 .423 1.176c-1.298.467-2.287 1.687-2.287 3.162 0 .833.561 1.732 1.2 2.435l.138.163c.547.705.702 1.617.737 2.402h2.821c.05-.914.33-1.85.991-2.582l.122-.144c.118-.149.223-.308.316-.479a.626.626 0 0 1 1.1.595 4.552 4.552 0 0 1-.604.858l-.003.005c-.467.516-.682 1.247-.682 2.06v.312c0 .306-.22.56-.511.613v1.595c0 .894-.765 1.542-1.612 1.542H9.085c-.847 0-1.611-.648-1.611-1.542v-1.622a.622.622 0 0 1-.416-.586v-.213c0-.894-.132-1.669-.557-2.135-.687-.756-1.527-1.956-1.527-3.277 0-2.063 1.38-3.713 3.114-4.338Zm.636 12.171c0 .12.118.292.361.292h1.152c.243 0 .361-.172.362-.292V16H8.724v1.583Zm6.211-16.308a.625.625 0 0 1 .808-.204l1.912 1.003c.305.16.423.536.265.841l-.324.626c.153.208.286.428.397.657l.76.037c.334.016.596.29.597.623v2.097a.626.626 0 0 1-.605.625l-.662.022c-.046.109-.096.22-.155.33l-.014.021a4.551 4.551 0 0 1-.182.301l.408.703a.627.627 0 0 1-.235.858l-1.959 1.105a.627.627 0 0 1-.867-.267l-.295-.592a3.92 3.92 0 0 1-.675.021l-.313.585a.624.624 0 0 1-.84.258l-1.93-1.009a.627.627 0 0 1-.261-.851l.333-.617a4.172 4.172 0 0 1-.376-.617l-.662.023a.625.625 0 0 1-.645-.606L9.35 5.061a.625.625 0 0 1 .603-.644l.661-.022a4.203 4.203 0 0 1 .345-.646l-.349-.568a.626.626 0 0 1 .203-.858l1.847-1.151.054-.03a.627.627 0 0 1 .809.232l.348.567c.236-.03.476-.04.718-.027l.313-.584.034-.055ZM3.5 8.5a.625.625 0 0 1 0 1.25H1.625a.625.625 0 0 1 0-1.25H3.5Zm11.99-5.62a.626.626 0 0 1-.662.32 2.68 2.68 0 0 0-1.116.038.625.625 0 0 1-.682-.279l-.243-.394-.786.49.244.398a.626.626 0 0 1-.057.733 2.739 2.739 0 0 0-.317.472c-.087.161-.157.34-.219.535a.626.626 0 0 1-.575.437l-.46.015.028.938.46-.016.1.005a.626.626 0 0 1 .507.404c.134.361.332.695.593.977a.624.624 0 0 1 .091.72l-.231.429.821.428.222-.412.054-.085a.627.627 0 0 1 .61-.235c.37.067.75.05 1.114-.04a.625.625 0 0 1 .71.329l.21.42.834-.47-.295-.51a.626.626 0 0 1 .066-.72 2.3 2.3 0 0 0 .164-.218l.158-.264a3.17 3.17 0 0 0 .213-.521l.037-.091a.626.626 0 0 1 .538-.346l.479-.016v-.897l-.557-.025a.626.626 0 0 1-.557-.407 2.927 2.927 0 0 0-.592-.978.625.625 0 0 1-.097-.712l.226-.44-.811-.426-.222.414Zm-1.14 1.245a1.876 1.876 0 1 1-.001 3.751 1.876 1.876 0 0 1 0-3.75Zm0 1.25a.626.626 0 0 0 0 1.25.625.625 0 0 0 0-1.25ZM3.907 4.31a.625.625 0 0 1 .884 0l1.25 1.25.043.047a.626.626 0 0 1-.879.878l-.048-.042-1.25-1.25a.625.625 0 0 1 0-.883ZM8.5 1.625c.345 0 .625.28.625.625v1.875l-.003.065a.625.625 0 0 1-1.244 0l-.003-.065V2.25c0-.345.28-.625.625-.625Z"/>
</svg>
