<svg xmlns="http://www.w3.org/2000/svg" width="20" height="20" fill="currentColor" viewBox="0 0 20 20">
  <path fill-rule="evenodd" d="M9.375 2.5a6.875 6.875 0 0 0-4.369 12.184L5 13.91v-.001a2.028 2.028 0 0 1 2.037-2.035H10a.625.625 0 1 1 0 1.25H7.037a.778.778 0 0 0-.787.777l.013 1.605a6.846 6.846 0 0 0 3.112.743.625.625 0 1 1 0 1.25 8.125 8.125 0 1 1 8.013-9.478.625.625 0 0 1-1.233.206A6.877 6.877 0 0 0 9.375 2.5Zm-1.25 5.313a1.562 1.562 0 1 1 3.125 0 1.562 1.562 0 0 1-3.125 0ZM9.688 5a2.813 2.813 0 1 0 0 5.625 2.813 2.813 0 0 0 0-5.625Zm3.437 8.125v-1.322c-.39.42-.625.978-.625 1.634 0 .972.53 1.85 1.254 2.274a.625.625 0 0 1 .309.539v1.875a.625.625 0 1 1-1.25 0v-1.54c-.945-.698-1.563-1.878-1.563-3.148 0-1.592.939-2.822 2.242-3.381a.62.62 0 0 1 .348-.05.625.625 0 0 1 .535.633v2.227l.625.625.625-.625v-2.241a.625.625 0 0 1 .86-.579c1.377.56 2.265 1.806 2.265 3.392 0 1.26-.58 2.45-1.562 3.154l.003 1.532a.625.625 0 1 1-1.25.002l-.004-1.875c0-.226.122-.435.32-.546.744-.418 1.243-1.284 1.243-2.268 0-.673-.227-1.238-.625-1.656v1.344a.624.624 0 0 1-.183.442l-1.25 1.25a.625.625 0 0 1-.885-.001l-1.249-1.25a.624.624 0 0 1-.183-.441Z" clip-rule="evenodd"/>
</svg>
