<svg xmlns="http://www.w3.org/2000/svg" width="20" height="20" fill="currentColor" viewBox="0 0 20 20">
  <path d="M8.824 1.875a.625.625 0 1 1 0 1.25c-3.168 0-5.72 2.527-5.72 5.625s2.552 5.625 5.72 5.625c2.683 0 4.928-1.815 5.55-4.252a.625.625 0 1 1 1.211.31 6.825 6.825 0 0 1-1.506 2.832c.014.011.03.022.043.035l4.433 4.432a.596.596 0 1 1-.844.843l-4.432-4.432c-.02-.02-.036-.043-.052-.065a7 7 0 0 1-4.403 1.547c-3.84 0-6.97-3.07-6.97-6.875 0-3.806 3.13-6.875 6.97-6.875ZM14.98 6.25a.625.625 0 0 1 0 1.25h-3.75a.625.625 0 1 1 0-1.25h3.75Zm3.126-2.5a.625.625 0 0 1 0 1.25H11.23a.625.625 0 1 1 0-1.25h6.876Zm0-2.5a.625.625 0 0 1 0 1.25H11.23a.625.625 0 1 1 0-1.25h6.876Z"/>
</svg>
