<svg xmlns="http://www.w3.org/2000/svg" width="20" height="20" fill="currentColor" viewBox="0 0 20 20">
  <path d="M17.5 9.958a7.5 7.5 0 1 0-15 0 7.5 7.5 0 0 0 15 0Zm1.25 0a8.75 8.75 0 1 1-17.5 0 8.75 8.75 0 0 1 17.5 0Z"/>
  <path d="M13.092 4.488c.01-.03.056-.03.066 0 .091.304.373 1.145.79 1.563.419.418 1.26.7 1.564.791.03.01.03.056 0 .065-.304.092-1.145.374-1.563.792-.418.418-.7 1.259-.791 1.563-.01.03-.056.03-.066 0-.091-.304-.373-1.145-.79-1.563-.419-.418-1.26-.7-1.564-.792-.03-.009-.03-.055 0-.065.304-.091 1.145-.373 1.563-.79.418-.419.7-1.26.791-1.564Zm.312 6.875c.01-.031.057-.031.067 0 .068.216.238.69.481.934.244.244.719.414.935.482.03.01.03.057 0 .067-.216.068-.69.237-.935.481-.243.244-.413.719-.481.935-.01.03-.057.03-.067 0-.068-.216-.238-.69-.481-.935-.244-.244-.719-.413-.935-.481-.03-.01-.03-.057 0-.067.216-.068.69-.238.935-.482.243-.243.413-.718.481-.934Zm-5.62-5.048a.032.032 0 0 1 .057 0c.144.318.803 1.726 1.523 2.446.72.72 2.128 1.379 2.446 1.523a.032.032 0 0 1 0 .057c-.318.144-1.726.803-2.446 1.523-.72.72-1.379 2.128-1.523 2.446a.032.032 0 0 1-.057 0c-.144-.318-.803-1.726-1.523-2.446-.72-.72-2.128-1.379-2.446-1.523a.032.032 0 0 1 0-.057c.318-.144 1.726-.803 2.446-1.523.72-.72 1.379-2.128 1.523-2.446Z"/>
</svg>
