<svg xmlns="http://www.w3.org/2000/svg" width="20" height="20" fill="currentColor" viewBox="0 0 20 20">
  <path fill-rule="evenodd" d="M15.367 10.576a1.99 1.99 0 0 1 2.801 0 1.976 1.976 0 0 1 0 2.8l-4.788 4.787a.606.606 0 0 1-.289.162l-1.519.381a1.341 1.341 0 0 1-.312.038v.006c-.332 0-.65-.131-.888-.369a1.238 1.238 0 0 1-.332-1.2h-.006l.382-1.518a.598.598 0 0 1 .162-.288l4.79-4.799Zm1.92.888a.725.725 0 0 0-1.031 0l-4.67 4.668-.338 1.35v.006l1.375-.332 4.664-4.66a.736.736 0 0 0 0-1.032Z" clip-rule="evenodd"/>
  <path d="M14.375 1.25c1.036 0 1.875.84 1.875 1.875v1.25a.625.625 0 1 1-1.25 0v-1.25a.625.625 0 0 0-.625-.625H3.125a.625.625 0 0 0-.625.625v11.25c0 .345.28.625.625.625H8.75a.625.625 0 1 1 0 1.25H3.125a1.875 1.875 0 0 1-1.875-1.875V3.125c0-1.036.84-1.875 1.875-1.875h11.25Z"/>
  <path d="M10.313 10c.345 0 .624.28.624.625v.313h.313a.625.625 0 1 1 0 1.25h-.313v.312a.625.625 0 1 1-1.25 0v-.313h-.312a.625.625 0 1 1 0-1.25h.313v-.312c0-.345.28-.625.624-.625Zm4.062-1.25c.345 0 .625.28.625.625V10a.625.625 0 1 1-1.25 0v-.625c0-.345.28-.625.625-.625Z"/>
  <path fill-rule="evenodd" d="M8.91 3.125c.214.003.41.114.523.295.381.615.698 1.034 1.056 1.39.36.358.783.674 1.399 1.064a.625.625 0 0 1 .016 1.045c-1.206.817-1.717 1.352-2.485 2.485a.625.625 0 0 1-1.036-.002C7.628 8.28 7.085 7.765 5.887 6.91a.625.625 0 0 1 .012-1.026c1.241-.841 1.75-1.37 2.481-2.478a.626.626 0 0 1 .53-.281Zm-.02 1.727a7.88 7.88 0 0 1-1.58 1.561c.637.498 1.11.953 1.591 1.57a8.038 8.038 0 0 1 1.562-1.565 7.355 7.355 0 0 1-.853-.721 7.038 7.038 0 0 1-.72-.845Z" clip-rule="evenodd"/>
  <path d="M13.125 7.5a.625.625 0 1 1 0 1.25H12.5a.625.625 0 1 1 0-1.25h.625Zm3.125 0a.625.625 0 1 1 0 1.25h-.625a.625.625 0 1 1 0-1.25h.625Zm-1.875-1.875c.345 0 .625.28.625.625v.625a.625.625 0 1 1-1.25 0V6.25c0-.345.28-.625.625-.625Z"/>
</svg>
