<svg xmlns="http://www.w3.org/2000/svg" width="20" height="20" fill="currentColor" viewBox="0 0 20 20">
  <g clip-path="url(#a)">
    <path fill-rule="evenodd" d="M2.5 9.063a6.562 6.562 0 0 0 6.563 6.562c.343 0 .624.281.624.625a.627.627 0 0 1-.624.625A7.815 7.815 0 0 1 1.25 9.062 7.815 7.815 0 0 1 9.063 1.25a7.815 7.815 0 0 1 7.812 7.813.627.627 0 0 1-.625.624.627.627 0 0 1-.625-.624A6.562 6.562 0 0 0 9.062 2.5 6.562 6.562 0 0 0 2.5 9.063ZM14.375 10c-.931 0-1.794.294-2.5.787V6.2c0-.156-.069-.3-.188-.406a.674.674 0 0 0-.88 0 .54.54 0 0 0-.182.412V11.3c0 .156.063.3.175.412l.012.013.063.037a4.34 4.34 0 0 0-.875 2.62 4.376 4.376 0 1 0 4.375-4.376V10Zm0 7.5a3.122 3.122 0 0 1-3.125-3.125 3.122 3.122 0 0 1 3.125-3.125 3.126 3.126 0 0 1 0 6.25Zm-2.45-2.887a.629.629 0 0 0 .137.206l1.25 1.25a.623.623 0 1 0 .882-.881l-.182-.182h2.244a.627.627 0 0 0 .625-.625.627.627 0 0 0-.625-.625h-2.244l.182-.181a.622.622 0 1 0-.882-.881l-1.25 1.25a.625.625 0 0 0-.137.681v-.012Zm-3.731-8.5a.702.702 0 0 0-.275-.35.703.703 0 0 0-.831 0 .718.718 0 0 0-.27.35l-1.787 5.13v.013a.452.452 0 0 0 .063.425.433.433 0 0 0 .369.194c.15 0 .274-.037.393-.119a.724.724 0 0 0 .25-.344l.4-1.212h1.988l.387 1.2c.05.144.131.256.238.344l.018.012a.735.735 0 0 0 .413.131.436.436 0 0 0 .375-.193.489.489 0 0 0 .063-.444L8.206 6.119l-.012-.006ZM6.825 9.2 7.5 7.144 8.175 9.2h-1.35Zm4.862-3.406v-.006l.007.006h-.007Z" clip-rule="evenodd"/>
  </g>
  <defs>
    <clipPath id="a">
      <path d="M0 0h20v20H0z"/>
    </clipPath>
  </defs>
</svg>
