<svg xmlns="http://www.w3.org/2000/svg" width="20" height="20" fill="currentColor" viewBox="0 0 20 20">
  <path d="M10.806 5.792a.675.675 0 0 1 .882 0c.118.106.187.25.187.406v4.586a4.353 4.353 0 0 1 2.5-.787v.006a4.376 4.376 0 0 1 4.375 4.374 4.375 4.375 0 0 1-8.75 0c0-.98.325-1.887.875-2.618a1.125 1.125 0 0 0-.063-.037l-.012-.013a.577.577 0 0 1-.175-.412V6.204a.54.54 0 0 1 .18-.412Zm3.569 5.454a3.122 3.122 0 0 0-3.125 3.124 3.126 3.126 0 0 0 6.25 0 3.122 3.122 0 0 0-3.125-3.124ZM9.062 1.25a7.814 7.814 0 0 1 7.813 7.81.627.627 0 0 1-.625.625.627.627 0 0 1-.625-.625A6.56 6.56 0 0 0 9.062 2.5a6.56 6.56 0 1 0 0 13.12c.344 0 .626.282.626.625a.627.627 0 0 1-.626.624A7.814 7.814 0 0 1 1.25 9.06a7.814 7.814 0 0 1 7.813-7.81Zm4.25 11.44a.623.623 0 1 1 .881.88l-.18.182h2.243c.344 0 .625.281.625.625a.626.626 0 0 1-.625.624h-2.243l.18.182a.622.622 0 1 1-.88.88l-1.25-1.25a.63.63 0 0 1-.138-.206v.013a.625.625 0 0 1 .137-.68l1.25-1.25ZM7.088 5.76a.705.705 0 0 1 .832 0c.125.082.218.2.274.35l.013.007 1.781 5.13a.49.49 0 0 1-.062.443.436.436 0 0 1-.375.194.735.735 0 0 1-.412-.131l-.02-.013a.758.758 0 0 1-.237-.344l-.388-1.199H6.506l-.4 1.212a.725.725 0 0 1-.25.344.667.667 0 0 1-.394.118.433.433 0 0 1-.368-.193.451.451 0 0 1-.063-.425v-.013l1.787-5.13a.719.719 0 0 1 .269-.35Zm-.262 3.437h1.35L7.5 7.142l-.675 2.055Zm4.868-3.405h-.005v-.006l.005.006Z"/>
</svg>
