<svg xmlns="http://www.w3.org/2000/svg" width="20" height="20" fill="currentColor" viewBox="0 0 20 20">
  <path d="M6.905 1.875a.625.625 0 1 0-1.25 0v2.48a.625.625 0 0 0 1.25 0V3.74h3.738v.614a.625.625 0 1 0 1.25 0V1.875a.625.625 0 1 0-1.25 0v.615H6.905v-.615Z"/>
  <path d="M2.5 4.39c0-.187.071-.325.2-.43.137-.112.378-.21.737-.21h.313a.625.625 0 1 0 0-1.25h-.313c-.578 0-1.118.159-1.527.491-.419.341-.66.835-.66 1.4v11.09c0 1.127.944 1.995 2.054 1.996h.002l3.565.023a.625.625 0 0 0 .008-1.25l-3.569-.023h-.004c-.471 0-.806-.359-.806-.746V6.875H15a.625.625 0 1 0 1.25 0V4.44c0-1.164-1.064-1.94-2.188-1.94h-.312a.625.625 0 1 0 0 1.25h.313c.634 0 .937.402.937.69v1.185H2.5V4.391Z"/>
  <path fill-rule="evenodd" d="M12.875 11.368a.579.579 0 0 1 .227.278l1.251 3.422a.4.4 0 0 1-.057.366.423.423 0 0 1-.366.183.672.672 0 0 1-.367-.107.6.6 0 0 1-.22-.29l-.247-.727h-1.207l-.252.74a.6.6 0 0 1-.215.283c-.209.158-.55.152-.714-.07a.371.371 0 0 1-.057-.365l1.257-3.428a.587.587 0 0 1 .228-.285.636.636 0 0 1 .739 0Zm-.386 1.37-.31.91h.62l-.31-.91Z" clip-rule="evenodd"/>
  <path d="M15.479 11.25c.13 0 .242.044.334.133a.428.428 0 0 1 .124.322v3.466a.44.44 0 0 1-.137.321.487.487 0 0 1-.662.007l-.007-.013A.446.446 0 0 1 15 15.17v-3.466a.44.44 0 0 1 .138-.321.508.508 0 0 1 .34-.133Z"/>
  <path fill-rule="evenodd" d="M13.438 8.125a5.312 5.312 0 0 0-5.313 5.313 5.312 5.312 0 1 0 10.625 0 5.312 5.312 0 0 0-5.313-5.313Zm-4.063 5.313a4.062 4.062 0 1 1 8.124-.002 4.062 4.062 0 0 1-8.124.002Z" clip-rule="evenodd"/>
</svg>
