<svg xmlns="http://www.w3.org/2000/svg" width="20" height="20" fill="currentColor" viewBox="0 0 20 20">
  <path d="M16.875 8.125c.69 0 1.25.56 1.25 1.25V17.5c0 .69-.56 1.25-1.25 1.25h-10c-.69 0-1.25-.56-1.25-1.25v-4.373c0-.833.8-1.432 1.6-1.2l3.4.99V9.375c0-.69.56-1.25 1.25-1.25h5Zm-10 9.375h3.75v-3.281l-3.75-1.092V17.5Zm5 0h5V9.375h-5V17.5Zm1.25-3.75c.345 0 .625.28.625.625v1.25a.625.625 0 1 1-1.25 0v-1.25c0-.345.28-.625.625-.625Zm2.5 0c.345 0 .625.28.625.625v1.25a.625.625 0 1 1-1.25 0v-1.25c0-.345.28-.625.625-.625Zm-5.546-12.5c2.285 0 4.176 1.602 4.828 3.751L14.935 5c.872 0 1.695.354 2.341.895a.626.626 0 0 1-.802.959c-.46-.385-1.006-.604-1.54-.604-.612 0-1.033.172-1.342.387a.625.625 0 0 1-.715-1.027 3.3 3.3 0 0 1 .784-.4c-.55-1.605-1.967-2.71-3.582-2.71-2.05 0-3.793 1.79-3.828 4.115a.621.621 0 0 1-.598 1.001l-.449-.079a.656.656 0 0 1-.032-.007c-.433-.1-.741-.085-1.015-.003l-.115.04C3.088 7.933 2.5 8.81 2.5 9.7c0 .977.603 1.844 1.495 2.225a.626.626 0 0 1-.49 1.15C2.176 12.508 1.25 11.204 1.25 9.7c0-1.436.933-2.76 2.346-3.3a2.9 2.9 0 0 1 1.423-.163c.212-2.754 2.355-4.987 5.06-4.987Zm3.046 9.375c.345 0 .625.28.625.625v1.25a.625.625 0 1 1-1.25 0v-1.25c0-.345.28-.625.625-.625Zm2.5 0c.345 0 .625.28.625.625v1.25a.625.625 0 1 1-1.25 0v-1.25c0-.345.28-.625.625-.625Z"/>
</svg>
