<svg xmlns="http://www.w3.org/2000/svg" width="20" height="20" fill="currentColor" viewBox="0 0 20 20">
  <path d="M11.375 2a.62.62 0 0 1 .435.178h.002l4.376 4.276.087.21a.598.598 0 0 1 .082.194l.018.042v1.35a.625.625 0 1 1-1.25 0v-.625h-2.876a1.5 1.5 0 0 1-1.499-1.499V3.25H4.376c-.636 0-1.126.5-1.126 1.087v12.827c0 .587.49 1.086 1.126 1.086h3.249a.625.625 0 1 1 0 1.25H4.376C3.077 19.5 2 18.468 2 17.164V4.337C2 3.033 3.077 2 4.376 2h6.999Zm2.188 6.875a5.312 5.312 0 1 1 0 10.625 5.312 5.312 0 0 1-5.313-5.313 5.312 5.312 0 0 1 5.313-5.312Zm0 1.25a4.062 4.062 0 1 0-.002 8.124 4.062 4.062 0 0 0 .002-8.124ZM15.602 12c.132 0 .243.044.335.133h-.013a.44.44 0 0 1 .137.321v3.467a.44.44 0 0 1-.137.321.487.487 0 0 1-.662.007l-.007-.013a.445.445 0 0 1-.131-.315v-3.467a.44.44 0 0 1 .138-.321.509.509 0 0 1 .34-.133Zm-3.342.118a.636.636 0 0 1 .739 0 .58.58 0 0 1 .227.278l1.252 3.422a.4.4 0 0 1-.058.367.423.423 0 0 1-.366.182.673.673 0 0 1-.367-.107.6.6 0 0 1-.22-.29l-.247-.727h-1.206l-.253.74a.601.601 0 0 1-.215.284c-.209.157-.55.15-.714-.07a.372.372 0 0 1-.057-.366l1.257-3.429a.589.589 0 0 1 .228-.284Zm.044 2.28h.619l-.31-.91-.31.91ZM12 6.126a.25.25 0 0 0 .249.249h2.068L12 4.109v2.017Z"/>
</svg>
