<svg xmlns="http://www.w3.org/2000/svg" width="20" height="20" fill="none" viewBox="0 0 20 20">
  <path fill="#3D3C3C" fill-rule="evenodd" d="M10.692 12.075a.625.625 0 0 1 .84-.277l3.437 1.73a.625.625 0 1 1-.563 1.117l-3.437-1.731a.625.625 0 0 1-.277-.84Z" clip-rule="evenodd"/>
  <path fill="#3D3C3C" fill-rule="evenodd" d="M18.683 12.075a.625.625 0 0 1-.277.839l-3.437 1.73a.625.625 0 1 1-.563-1.116l3.438-1.73a.625.625 0 0 1 .84.277Zm-3.419-1.728a.625.625 0 0 1-.282.838l-3.454 1.712a.625.625 0 1 1-.556-1.12l3.454-1.712a.625.625 0 0 1 .838.282Z" clip-rule="evenodd"/>
  <path fill="#3D3C3C" fill-rule="evenodd" d="M14.13 10.344a.625.625 0 0 1 .838-.277l3.438 1.73a.625.625 0 0 1-.562 1.117l-3.438-1.73a.625.625 0 0 1-.277-.84Zm-2.88 1.386c.345 0 .625.28.625.626v4.038a.625.625 0 1 1-1.25 0v-4.038c0-.345.28-.625.625-.625Z" clip-rule="evenodd"/>
  <path fill="#3D3C3C" fill-rule="evenodd" d="M18.125 11.73c.345 0 .625.28.625.626v4.038a.625.625 0 1 1-1.25 0v-4.038c0-.345.28-.625.625-.625Zm-3.437 1.731c.345 0 .624.28.624.625v4.039a.625.625 0 0 1-1.25 0v-4.039c0-.345.28-.625.626-.625Z" clip-rule="evenodd"/>
  <path fill="#3D3C3C" fill-rule="evenodd" d="M10.692 16.113a.625.625 0 0 1 .84-.277l3.437 1.73a.625.625 0 1 1-.563 1.117l-3.437-1.73a.625.625 0 0 1-.277-.84Z" clip-rule="evenodd"/>
  <path fill="#3D3C3C" fill-rule="evenodd" d="M18.683 16.113a.625.625 0 0 1-.277.84l-3.437 1.73a.625.625 0 1 1-.563-1.116l3.438-1.731a.625.625 0 0 1 .84.277ZM12.477 1.414l.002.001 1.937 1.174h.002c.542.327.71 1.03.413 1.571m-.001.001-.643 1.173c.388.508.706 1.08.937 1.699h1.237c.661 0 1.139.555 1.139 1.165v.552a.625.625 0 1 1-1.25 0v-.467h-1.213c-.47 0-.901-.294-1.062-.754a5.37 5.37 0 0 0-.809-1.47 1.183 1.183 0 0 1-.096-1.289l.632-1.152-1.758-1.066-.607 1.103a1.116 1.116 0 0 1-1.168.577 4.846 4.846 0 0 0-1.592 0h-.002a1.12 1.12 0 0 1-1.162-.577l-.606-1.103-1.76 1.066.632 1.152c.22.401.194.908-.091 1.283l-.003.004-.003.003c-.34.433-.612.928-.808 1.472v.002c-.164.45-.588.749-1.06.749H2.5v2.184h1.213c.47 0 .901.294 1.062.754.195.54.47 1.036.809 1.47.292.376.314.89.096 1.289l-.632 1.152 1.759 1.066.606-1.103c.217-.395.67-.668 1.173-.576a.625.625 0 0 1-.112 1.24l-.629 1.143a1.12 1.12 0 0 1-1.572.434l-.002-.001-1.937-1.174h-.002a1.177 1.177 0 0 1-.412-1.572l.643-1.173a6.617 6.617 0 0 1-.937-1.699H2.389c-.661 0-1.139-.555-1.139-1.165V8.198c0-.62.487-1.165 1.139-1.165h1.237c.23-.616.544-1.189.937-1.699l-.642-1.172a1.179 1.179 0 0 1 .407-1.57l.003-.002 1.946-1.178a1.124 1.124 0 0 1 1.567.433l.627 1.139a6.084 6.084 0 0 1 1.809 0l.625-1.137a1.12 1.12 0 0 1 1.572-.433M8.508 15.697Zm0-12.645Z" clip-rule="evenodd"/>
  <path fill="#3D3C3C" fill-rule="evenodd" d="M9.763 7.147a2.265 2.265 0 0 0-2.616 2.615c.158.97.86 1.734 1.753 1.88a.625.625 0 0 1-.204 1.234c-1.496-.247-2.55-1.493-2.782-2.911m3.849-2.818c.971.16 1.735.862 1.88 1.752a.625.625 0 1 0 1.233-.202c-.244-1.498-1.493-2.55-2.91-2.783a3.515 3.515 0 0 0-4.052 4.05" clip-rule="evenodd"/>
</svg>
