<svg xmlns="http://www.w3.org/2000/svg" width="20" height="20" fill="currentColor" viewBox="0 0 20 20">
  <path fill-rule="evenodd" d="M6.25 6.61c.039-2.321 1.78-4.11 3.83-4.11 1.615 0 3.032 1.104 3.583 2.708a3.298 3.298 0 0 0-.785.402.625.625 0 0 0 .714 1.027c.31-.215.73-.387 1.343-.387.626 0 1.269.301 1.765.812.495.51.801 1.186.801 1.87 0 .602-.087.984-.272 1.47a.625.625 0 0 0 1.169.445 4.945 4.945 0 0 0 .353-1.915c0-1.053-.465-2.03-1.154-2.74C16.908 5.484 15.956 5 14.934 5h-.026c-.652-2.148-2.544-3.75-4.83-3.75-2.703 0-4.848 2.231-5.06 4.985a2.902 2.902 0 0 0-1.422.164C2.182 6.94 1.25 8.264 1.25 9.7c0 1.505.926 2.808 2.255 3.376a.625.625 0 0 0 .49-1.15C3.103 11.544 2.5 10.677 2.5 9.7c0-.891.587-1.768 1.542-2.133.303-.116.636-.15 1.13-.037l.032.007.45.079A.625.625 0 0 0 6.25 6.61Zm.625 1.515c-.69 0-1.25.56-1.25 1.25V17.5c0 .69.56 1.25 1.25 1.25h10c.69 0 1.25-.56 1.25-1.25v-4.372c0-.833-.8-1.433-1.6-1.2l-3.4.99V9.374c0-.69-.56-1.25-1.25-1.25h-5Zm6.25 6.094V17.5h3.75v-4.372l-3.75 1.091Zm-1.25-.938V12.5h-5v1.875h5v-1.094Zm0 2.344h-5V17.5h5v-1.875Zm0-6.25v1.875h-5V9.375h5Z" clip-rule="evenodd"/>
</svg>
