<svg xmlns="http://www.w3.org/2000/svg" width="20" height="20" fill="currentColor" viewBox="0 0 20 20">
  <path fill-rule="evenodd" d="M1.875 1.25c.345 0 .625.28.625.625v15c0 .345.28.625.625.625h15a.625.625 0 1 1 0 1.25h-15a1.875 1.875 0 0 1-1.875-1.875v-15c0-.345.28-.625.625-.625Zm14.823 3.267.176 1.791a.625.625 0 0 0 1.244-.122l-.295-3.006a.937.937 0 0 0-1.045-.84l-3.104.375a.625.625 0 0 0 .15 1.24l1.899-.228-3.977 5.964-3.15-2.7a1.25 1.25 0 0 0-1.99.53l-2.82 7.894a.625.625 0 0 0 1.178.42l2.819-7.894L11.2 10.87a.937.937 0 0 0 1.39-.192l4.108-6.161Z" clip-rule="evenodd"/>
</svg>
