<svg xmlns="http://www.w3.org/2000/svg" width="20" height="20" fill="currentColor" viewBox="0 0 20 20">
  <path fill-rule="evenodd" d="M8.56 2.458a6.1 6.1 0 1 0 0 12.202 6.1 6.1 0 0 0 0-12.202ZM1.207 8.56a7.35 7.35 0 1 1 12.972 4.737l4.429 4.429a.625.625 0 1 1-.884.884l-4.429-4.429A7.35 7.35 0 0 1 1.208 8.56ZM9.65 5.416a.625.625 0 0 0-1.163-.036L6.775 9.375h-2.4a.625.625 0 1 0 0 1.25h2.813c.25 0 .476-.149.574-.379l1.248-2.91 1.026 2.874a.625.625 0 0 0 .589.415h2.5a.625.625 0 1 0 0-1.25h-2.06l-1.414-3.96Z" clip-rule="evenodd"/>
</svg>
