<svg xmlns="http://www.w3.org/2000/svg" width="20" height="20" fill="currentColor" viewBox="0 0 20 20">
  <path fill-rule="evenodd" d="M8.56 2.458a6.1 6.1 0 1 0 0 12.202 6.1 6.1 0 0 0 0-12.202ZM1.207 8.56a7.35 7.35 0 1 1 14.702 0 7.35 7.35 0 0 1-14.702 0Z" clip-rule="evenodd"/>
  <path fill-rule="evenodd" d="M12.918 12.918a.625.625 0 0 1 .884 0l4.807 4.807a.625.625 0 1 1-.884.884l-4.807-4.807a.625.625 0 0 1 0-.884ZM9.082 5a.625.625 0 0 1 .57.415l1.413 3.96h2.06a.625.625 0 1 1 0 1.25h-2.5a.625.625 0 0 1-.589-.415L9.01 7.335l-1.248 2.911a.625.625 0 0 1-.574.379H4.374a.625.625 0 1 1 0-1.25h2.4l1.713-3.996A.625.625 0 0 1 9.082 5Z" clip-rule="evenodd"/>
</svg>
