<svg xmlns="http://www.w3.org/2000/svg" width="20" height="20" fill="currentColor" viewBox="0 0 20 20">
  <path fill-rule="evenodd" d="M8.707 2.611a7.507 7.507 0 0 0-5.161 3.567h7.213L8.706 2.61ZM2.023 6.398a.622.622 0 0 0-.145.34A8.726 8.726 0 0 0 1.25 10a8.71 8.71 0 0 0 1.648 5.112c.042.136.13.259.259.341a8.752 8.752 0 0 0 14.82-1.852.623.623 0 0 0 .145-.339A8.725 8.725 0 0 0 18.75 10a8.71 8.71 0 0 0-1.648-5.112.622.622 0 0 0-.259-.341 8.752 8.752 0 0 0-14.82 1.852Zm13.709-1.235A7.484 7.484 0 0 0 10.086 2.5l.456.794 3.132 5.447 2.058-3.578Zm.79 1.132-2.268 3.945a.627.627 0 0 1-.08.139l-1.26 2.193h4.133A7.484 7.484 0 0 0 17.5 10a7.466 7.466 0 0 0-.977-3.705Zm-.068 7.527H9.248l1.303 2.267.62 1.106c.036.064.06.133.07.203a7.506 7.506 0 0 0 5.213-3.576ZM9.908 17.5l-.446-.797-1.798-3.128a.627.627 0 0 1-.08-.138l-1.255-2.183-1.297 2.255-.764 1.328a7.484 7.484 0 0 0 5.64 2.663Zm-6.43-3.795 3.609-6.277H2.953A7.485 7.485 0 0 0 2.5 10c0 1.347.355 2.612.977 3.705Zm5.05-6.277h2.95l1.475 2.567-1.482 2.577H8.53L7.049 10l1.48-2.572Z" clip-rule="evenodd"/>
</svg>
