<svg xmlns="http://www.w3.org/2000/svg" width="20" height="20" fill="none" viewBox="0 0 20 20">
  <path fill="#3D3C3C" fill-rule="evenodd" d="M1.25 3.744c0-1.316.977-2.494 2.315-2.494h12.87c1.338 0 2.315 1.178 2.315 2.494v12.549c0 1.307-.988 2.457-2.315 2.457H3.565c-1.327 0-2.315-1.15-2.315-2.457V3.744Zm16.25 0V5h-15V3.744c0-.747.534-1.244 1.065-1.244h12.87c.531 0 1.065.497 1.065 1.244ZM2.5 6.25h15v10.043c0 .715-.523 1.207-1.065 1.207h-3.31v-3.56l.973-1.46a1.875 1.875 0 1 0-1.108-.591l-1.006 1.508a.62.62 0 0 0-.109.362V17.5h-1.25v-6.357a1.876 1.876 0 1 0-1.25 0V17.5h-1.25v-3.114a.621.621 0 0 0-.09-.334l-.755-1.296a1.875 1.875 0 1 0-.948.856l.543.932V17.5h-3.31c-.542 0-1.065-.492-1.065-1.207V6.25ZM10 10a.625.625 0 1 0 0-1.25.625.625 0 0 0 0 1.25ZM4.22 3.125h.31c.26 0 .47.193.47.432v.386c0 .239-.21.432-.47.432h-.31c-.26 0-.47-.193-.47-.432v-.386c0-.239.21-.432.47-.432Zm2.184 0h-.308c-.26 0-.471.193-.471.432v.386c0 .239.21.432.47.432h.31c.26 0 .47-.193.47-.432v-.386c0-.239-.21-.432-.47-.432Zm1.567 0h.308c.26 0 .471.193.471.432v.386c0 .239-.21.432-.47.432h-.31c-.26 0-.47-.193-.47-.432v-.386c0-.239.21-.432.47-.432ZM14.375 10a.625.625 0 1 0 0 1.25.625.625 0 0 0 0-1.25Zm-8.75 1.25a.625.625 0 1 0 0 1.25.625.625 0 0 0 0-1.25Z" clip-rule="evenodd"/>
</svg>
