<svg xmlns="http://www.w3.org/2000/svg" width="20" height="20" fill="currentColor" viewBox="0 0 20 20">
  <path d="M10 1.25a1.875 1.875 0 0 1 .614 3.645.603.603 0 0 1 .011.105v.625H12.5l.097.003c.99.05 1.778.869 1.778 1.872v1.875h.733a1.874 1.874 0 1 1 0 1.25h-.733V12.5c0 1.036-.84 1.875-1.875 1.875h-1.875v.733a1.874 1.874 0 1 1-1.25 0v-.733H7.5a1.875 1.875 0 0 1-1.872-1.778l-.003-.097v-1.875h-.733a1.874 1.874 0 1 1 0-1.25h.733V7.5c0-1.036.84-1.875 1.875-1.875h1.875V5c0-.036.004-.071.01-.105A1.874 1.874 0 0 1 10 1.25Zm0 15a.625.625 0 1 0 0 1.25.625.625 0 0 0 0-1.25ZM7.5 6.875a.625.625 0 0 0-.625.625v5l.003.065c.032.314.299.56.622.56h5c.345 0 .625-.28.625-.625v-5a.625.625 0 0 0-.56-.622l-.065-.003h-5Zm3.878.632A1.25 1.25 0 0 1 12.5 8.75v2.5c0 .69-.56 1.25-1.25 1.25h-2.5a1.25 1.25 0 0 1-1.243-1.122L7.5 11.25v-2.5c0-.69.56-1.25 1.25-1.25h2.5l.128.007ZM8.75 11.25h2.5v-2.5h-2.5v2.5ZM3.125 9.375a.625.625 0 1 0 0 1.25.625.625 0 0 0 0-1.25Zm13.75 0a.625.625 0 1 0 0 1.25.625.625 0 0 0 0-1.25ZM10 2.5a.625.625 0 1 0 0 1.25.625.625 0 0 0 0-1.25Z"/>
</svg>
