<svg xmlns="http://www.w3.org/2000/svg" width="20" height="20" fill="currentColor" viewBox="0 0 20 20">
  <path fill-rule="evenodd" d="M5 2.5H2.5V5H5V2.5ZM2.5 1.25c-.69 0-1.25.56-1.25 1.25V5c0 .69.56 1.25 1.25 1.25H5c.69 0 1.25-.56 1.25-1.25V2.5c0-.69-.56-1.25-1.25-1.25H2.5Zm8.75 1.25h-2.5V5h2.5V2.5Zm-2.5-1.25c-.69 0-1.25.56-1.25 1.25V5c0 .69.56 1.25 1.25 1.25h2.5c.69 0 1.25-.56 1.25-1.25V2.5c0-.69-.56-1.25-1.25-1.25h-2.5ZM17.5 2.5H15V5h2.5V2.5ZM15 1.25c-.69 0-1.25.56-1.25 1.25V5c0 .69.56 1.25 1.25 1.25h2.5c.69 0 1.25-.56 1.25-1.25V2.5c0-.69-.56-1.25-1.25-1.25H15ZM5 8.75H2.5v2.5H5v-2.5ZM2.5 7.5c-.69 0-1.25.56-1.25 1.25v2.5c0 .69.56 1.25 1.25 1.25H5c.69 0 1.25-.56 1.25-1.25v-2.5c0-.69-.56-1.25-1.25-1.25H2.5Zm8.75 1.25h-2.5v2.5h2.5v-2.5ZM8.75 7.5c-.69 0-1.25.56-1.25 1.25v2.5c0 .69.56 1.25 1.25 1.25h2.5c.69 0 1.25-.56 1.25-1.25v-2.5c0-.69-.56-1.25-1.25-1.25h-2.5Zm8.75 1.25H15v2.5h2.5v-2.5ZM15 7.5c-.69 0-1.25.56-1.25 1.25v2.5c0 .69.56 1.25 1.25 1.25h2.5c.69 0 1.25-.56 1.25-1.25v-2.5c0-.69-.56-1.25-1.25-1.25H15ZM5 15H2.5v2.5H5V15Zm-2.5-1.25c-.69 0-1.25.56-1.25 1.25v2.5c0 .69.56 1.25 1.25 1.25H5c.69 0 1.25-.56 1.25-1.25V15c0-.69-.56-1.25-1.25-1.25H2.5ZM11.25 15h-2.5v2.5h2.5V15Zm-2.5-1.25c-.69 0-1.25.56-1.25 1.25v2.5c0 .69.56 1.25 1.25 1.25h2.5c.69 0 1.25-.56 1.25-1.25V15c0-.69-.56-1.25-1.25-1.25h-2.5ZM17.5 15H15v2.5h2.5V15ZM15 13.75c-.69 0-1.25.56-1.25 1.25v2.5c0 .69.56 1.25 1.25 1.25h2.5c.69 0 1.25-.56 1.25-1.25V15c0-.69-.56-1.25-1.25-1.25H15Z" clip-rule="evenodd"/>
</svg>
