<svg xmlns="http://www.w3.org/2000/svg" width="20" height="20" fill="currentColor" viewBox="0 0 20 20">
  <path d="M16.875 1.25c.69 0 1.25.56 1.25 1.25v5c0 .69-.56 1.25-1.25 1.25h-3.75c-.69 0-1.25-.56-1.25-1.25V4.375h-6.25V6.25h1.25c.69 0 1.25.56 1.25 1.25v5c0 .69-.56 1.25-1.25 1.25h-1.25v1.875h6.25V12.5c0-.69.56-1.25 1.25-1.25h3.75c.69 0 1.25.56 1.25 1.25v5c0 .69-.56 1.25-1.25 1.25h-3.75c-.69 0-1.25-.56-1.25-1.25v-.625h-6.25c-.69 0-1.25-.56-1.25-1.25V13.75h-1.25c-.69 0-1.25-.56-1.25-1.25v-5c0-.69.56-1.25 1.25-1.25h1.25V4.375c0-.69.56-1.25 1.25-1.25h6.25V2.5c0-.69.56-1.25 1.25-1.25h3.75ZM13.125 15v2.5h3.75V15h-3.75Zm0-1.25h3.75V12.5h-3.75v1.25Zm-10-1.25h3.75V10h-3.75v2.5Zm0-3.75h3.75V7.5h-3.75v1.25Zm10-1.25h3.75V5h-3.75v2.5Zm0-3.75h3.75V2.5h-3.75v1.25Z"/>
</svg>
