<svg xmlns="http://www.w3.org/2000/svg" width="20" height="20" fill="currentColor" viewBox="0 0 20 20">
  <g clip-path="url(#a)">
    <path fill-rule="evenodd" d="M5.625 2.5a.625.625 0 1 1 1.25 0 .625.625 0 0 1-1.25 0ZM6.25.625a1.875 1.875 0 1 0 .34 3.72l.91.889v.391h-.324c-.865 0-1.551.71-1.551 1.565v.31h-.394L4.198 6.439l-.006-.006a1.875 1.875 0 1 0-.884.884L4.52 8.561a.63.63 0 0 0 .448.189h.657v1.875h-.657a.625.625 0 0 0-.448.189l-1.212 1.244a1.875 1.875 0 1 0 .884.884l.006-.006 1.033-1.061h.394v.935c0 .856.686 1.565 1.551 1.565H7.5v1.016l-.68.664a1.875 1.875 0 1 0 .65 1.112l1.092-1.065a.625.625 0 0 0 .188-.447v-1.28h2.5v1.28c0 .168.068.33.188.447l1.091 1.065a1.875 1.875 0 1 0 .65-1.112l-.679-.664v-1.016h.324c.865 0 1.551-.71 1.551-1.565v-.935h1.018l.662.68a1.875 1.875 0 1 0 1.112-.65l-1.062-1.091a.625.625 0 0 0-.448-.189h-1.282V8.75h1.282c.169 0 .33-.068.448-.189l1.062-1.09a1.875 1.875 0 1 0-1.112-.65l-.662.679h-1.018v-.31c0-.856-.686-1.565-1.551-1.565H12.5v-.391l.91-.89a1.875 1.875 0 1 0-1.114-.66l-.858.84a.625.625 0 0 0-.188.447v.654h-2.5v-.654a.625.625 0 0 0-.188-.448l-.859-.838A1.875 1.875 0 0 0 6.25.625Zm1.876 6.25h-.95a.308.308 0 0 0-.301.315v5.62c0 .183.143.315.301.315h5.648a.308.308 0 0 0 .301-.315V7.19a.308.308 0 0 0-.301-.315H8.125ZM1.875 13.75a.625.625 0 1 1 1.25 0 .625.625 0 0 1-1.25 0Zm15.625-.625a.625.625 0 1 0 0 1.25.625.625 0 0 0 0-1.25ZM5 17.5a.625.625 0 1 1 1.25 0 .625.625 0 0 1-1.25 0Zm9.375-.625a.625.625 0 1 0 0 1.25.625.625 0 0 0 0-1.25Zm-12.5-11.25a.625.625 0 1 1 1.25 0 .625.625 0 0 1-1.25 0ZM17.5 5a.625.625 0 1 0 0 1.25.625.625 0 0 0 0-1.25Zm-3.75-3.125a.625.625 0 1 0 0 1.25.625.625 0 0 0 0-1.25Z" clip-rule="evenodd"/>
  </g>
  <defs>
    <clipPath id="a">
      <path d="M0 0h20v20H0z"/>
    </clipPath>
  </defs>
</svg>
