<svg xmlns="http://www.w3.org/2000/svg" width="20" height="20" fill="currentColor" viewBox="0 0 20 20">
  <g clip-path="url(#a)">
    <path fill-rule="evenodd" d="M6.428 3.313a.625.625 0 0 1 .884-.01l1.25 1.22a.63.63 0 0 1 .188.448V6.25a.625.625 0 1 1-1.25 0V5.234L6.438 4.197a.625.625 0 0 1-.01-.884Zm7.144 0a.625.625 0 0 0-.884-.01l-1.25 1.22a.625.625 0 0 0-.188.448V6.25a.625.625 0 1 0 1.25 0V5.234l1.062-1.037a.625.625 0 0 0 .01-.884ZM3.314 6.427a.625.625 0 0 1 .884.012L5.23 7.5h1.02a.625.625 0 1 1 0 1.25H4.968a.625.625 0 0 1-.448-.189l-1.218-1.25a.625.625 0 0 1 .012-.884Zm13.997 0a.625.625 0 0 0-.884.012L15.393 7.5h-1.018a.625.625 0 1 0 0 1.25h1.282c.169 0 .33-.068.448-.189l1.218-1.25a.625.625 0 0 0-.012-.884ZM8.125 13.75c.345 0 .625.28.625.625v1.28c0 .168-.068.33-.188.447l-1.25 1.22a.625.625 0 0 1-.874-.894L7.5 15.39v-1.016c0-.345.28-.625.625-.625Zm3.75 0a.625.625 0 0 0-.625.625v1.28c0 .168.068.33.188.447l1.25 1.22a.625.625 0 0 0 .874-.894L12.5 15.39v-1.016a.625.625 0 0 0-.625-.625ZM4.52 10.814a.625.625 0 0 1 .448-.189H6.25a.625.625 0 1 1 0 1.25H5.231l-1.033 1.061a.625.625 0 1 1-.896-.872l1.218-1.25Zm11.585 0a.625.625 0 0 0-.448-.189h-1.282a.625.625 0 1 0 0 1.25h1.018l1.034 1.061a.625.625 0 0 0 .896-.872l-1.218-1.25Z" clip-rule="evenodd"/>
    <path fill-rule="evenodd" d="M2.5 13.125a.625.625 0 1 0 0 1.25.625.625 0 0 0 0-1.25Zm-1.875.625a1.875 1.875 0 1 1 3.75 0 1.875 1.875 0 0 1-3.75 0Zm16.875-.625a.625.625 0 1 0 0 1.25.625.625 0 0 0 0-1.25Zm-1.875.625a1.875 1.875 0 1 1 3.75 0 1.875 1.875 0 0 1-3.75 0Zm-10 3.125a.625.625 0 1 0 0 1.25.625.625 0 0 0 0-1.25ZM3.75 17.5a1.875 1.875 0 1 1 3.75 0 1.875 1.875 0 0 1-3.75 0Zm10.625-.625a.625.625 0 1 0 0 1.25.625.625 0 0 0 0-1.25ZM12.5 17.5a1.875 1.875 0 1 1 3.75 0 1.875 1.875 0 0 1-3.75 0ZM2.5 5a.625.625 0 1 0 0 1.25.625.625 0 0 0 0-1.25Zm-1.875.625a1.875 1.875 0 1 1 3.75 0 1.875 1.875 0 0 1-3.75 0ZM17.5 5a.625.625 0 1 0 0 1.25.625.625 0 0 0 0-1.25Zm-1.875.625a1.875 1.875 0 1 1 3.75 0 1.875 1.875 0 0 1-3.75 0ZM6.25 1.875a.625.625 0 1 0 0 1.25.625.625 0 0 0 0-1.25ZM4.375 2.5a1.875 1.875 0 1 1 3.75 0 1.875 1.875 0 0 1-3.75 0Zm9.375-.625a.625.625 0 1 0 0 1.25.625.625 0 0 0 0-1.25Zm-1.875.625a1.875 1.875 0 1 1 3.75 0 1.875 1.875 0 0 1-3.75 0ZM7.176 6.875a.308.308 0 0 0-.301.315v5.62c0 .183.143.315.301.315h5.648a.308.308 0 0 0 .301-.315V7.19a.308.308 0 0 0-.301-.315H7.176Zm-1.551.315c0-.856.686-1.565 1.551-1.565h5.648c.865 0 1.551.71 1.551 1.565v5.62c0 .856-.686 1.565-1.551 1.565H7.176c-.865 0-1.551-.71-1.551-1.565V7.19Z" clip-rule="evenodd"/>
  </g>
  <defs>
    <clipPath id="a">
      <path d="M0 0h20v20H0z"/>
    </clipPath>
  </defs>
</svg>
