<svg xmlns="http://www.w3.org/2000/svg" width="20" height="20" fill="currentColor" viewBox="0 0 20 20">
  <path fill-rule="evenodd" d="M16.63 3.887a33.035 33.035 0 0 1-6.082-2.496 1.146 1.146 0 0 0-1.103 0A32.856 32.856 0 0 1 3.37 3.894c-.494.14-.87.582-.87 1.122v6.951c0 .95.43 1.813 1.011 2.549.583.739 1.358 1.4 2.143 1.962 1.571 1.123 3.282 1.915 3.88 2.177l.01.005c.294.122.618.122.911 0l.011-.005c.595-.262 2.306-1.054 3.878-2.177.785-.562 1.56-1.223 2.144-1.962.582-.736 1.012-1.599 1.012-2.549V5.01c0-.552-.387-.977-.862-1.12v-.001l-.008-.002ZM3.75 5.084a34.13 34.13 0 0 0 6.247-2.57 34.324 34.324 0 0 0 6.253 2.564v6.888c0 .565-.257 1.16-.743 1.774-.483.612-1.156 1.195-1.89 1.72-1.437 1.027-3.02 1.769-3.617 2.033-.598-.263-2.182-1.005-3.619-2.033-.734-.525-1.406-1.108-1.889-1.72-.485-.614-.742-1.21-.742-1.774V5.084Zm9.817 2.858a.625.625 0 0 0-.884-.884l-3.932 3.933-1.434-1.434a.625.625 0 1 0-.884.883l1.876 1.877a.625.625 0 0 0 .884 0l4.374-4.375Z" clip-rule="evenodd"/>
</svg>
