<svg xmlns="http://www.w3.org/2000/svg" width="20" height="20" fill="currentColor" viewBox="0 0 20 20">
  <path fill-rule="evenodd" d="M10.548 1.391a33.035 33.035 0 0 0 6.082 2.496l.008.002c.475.144.862.57.862 1.12v6.957c0 .95-.43 1.813-1.012 2.55-.584.738-1.359 1.4-2.144 1.96-1.572 1.124-3.283 1.916-3.878 2.178l-.01.005a1.177 1.177 0 0 1-.911 0l-.01-.005c-.599-.262-2.31-1.054-3.881-2.177-.785-.562-1.56-1.223-2.143-1.962-.581-.737-1.011-1.6-1.011-2.549v-6.95c0-.54.376-.983.87-1.123a32.856 32.856 0 0 0 6.075-2.501c.343-.189.76-.19 1.103-.001Zm-.55 1.123a34.13 34.13 0 0 1-6.248 2.57v6.882c0 .565.257 1.16.742 1.774.483.612 1.155 1.195 1.889 1.72 1.437 1.028 3.02 1.77 3.619 2.033.597-.264 2.18-1.006 3.617-2.033.734-.525 1.407-1.108 1.89-1.72.486-.614.743-1.21.743-1.774V5.078a34.324 34.324 0 0 1-6.253-2.564Z" clip-rule="evenodd"/>
  <path fill-rule="evenodd" d="M13.567 7.058a.625.625 0 0 1 0 .884l-4.374 4.375a.625.625 0 0 1-.884 0L6.433 10.44a.625.625 0 0 1 .884-.883l1.434 1.434 3.932-3.933a.625.625 0 0 1 .884 0Z" clip-rule="evenodd"/>
</svg>
