<svg xmlns="http://www.w3.org/2000/svg" width="21" height="20" fill="currentColor" viewBox="0 0 21 20">
  <path d="M11.813 1.257A1.25 1.25 0 0 1 12.935 2.5v.625h1.875c1.036 0 1.875.84 1.875 1.875v3.75a.625.625 0 0 1-1.25 0V5a.625.625 0 0 0-.625-.625h-1.875V5l-.006.128a1.25 1.25 0 0 1-1.116 1.115l-.128.007h-3.75l-.127-.007A1.25 1.25 0 0 1 6.685 5v-.625H4.81A.625.625 0 0 0 4.185 5v11.875c0 .345.28.625.625.625h3.75a.625.625 0 1 1 0 1.25H4.81a1.875 1.875 0 0 1-1.875-1.875V5c0-1.035.84-1.875 1.875-1.875h1.875V2.5c0-.647.493-1.18 1.123-1.243l.127-.007h3.75l.128.007ZM14.185 10a4.375 4.375 0 1 1 .001 8.75 4.375 4.375 0 0 1 0-8.75Zm0 1.25a3.125 3.125 0 1 0 0 6.25 3.125 3.125 0 0 0 0-6.25Zm.778 1.466a.625.625 0 0 1 1.018.714l-.033.054-1.753 2.5a.626.626 0 0 1-1.025-.002l-.748-1.073a.625.625 0 0 1 1.026-.715l.236.34 1.24-1.767.04-.051ZM7.935 5h3.75V2.5h-3.75V5Z"/>
</svg>
