<svg xmlns="http://www.w3.org/2000/svg" width="21" height="20" fill="currentColor" viewBox="0 0 21 20">
  <path d="M8.817 3.646a.926.926 0 0 1 1.245.067c.34.344.359.888.06 1.255l-.063.072L6.05 9.062h11.444c.514 0 .93.42.93.938a.934.934 0 0 1-.93.937H6.051l4.008 4.024a.943.943 0 0 1 .003 1.326.925.925 0 0 1-1.316.003l-5.603-5.625-.062-.07c0-.001 0-.003-.002-.005a.935.935 0 0 1-.082-.119l-.008-.013a.936.936 0 0 1-.06-.13l-.007-.023a.933.933 0 0 1-.036-.138l-.002-.014a.938.938 0 0 1 .259-.817L8.746 3.71l.07-.065Z"/>
</svg>
