<svg xmlns="http://www.w3.org/2000/svg" width="20" height="20" fill="none" viewBox="0 0 20 20">
  <path fill="#3D3C3C" fill-rule="evenodd" d="M6.875 1.25c.166 0 .325.066.442.183l3.75 3.75a.625.625 0 1 1-.884.884L6.875 2.759 3.567 6.067a.625.625 0 1 1-.884-.884l3.75-3.75a.625.625 0 0 1 .442-.183Z" clip-rule="evenodd"/>
  <path fill="#3D3C3C" fill-rule="evenodd" d="M6.875 1.25c.345 0 .625.28.625.625v9.375a.625.625 0 1 1-1.25 0V1.875c0-.345.28-.625.625-.625Zm6.25 17.5a.624.624 0 0 1-.442-.183l-3.75-3.75a.625.625 0 1 1 .884-.884l3.308 3.308 3.308-3.308a.625.625 0 1 1 .884.884l-3.75 3.75a.624.624 0 0 1-.442.183Z" clip-rule="evenodd"/>
  <path fill="#3D3C3C" fill-rule="evenodd" d="M13.125 18.75a.625.625 0 0 1-.625-.625V8.75a.625.625 0 1 1 1.25 0v9.375c0 .345-.28.625-.625.625Z" clip-rule="evenodd"/>
</svg>
