<svg xmlns="http://www.w3.org/2000/svg" width="20" height="20" fill="currentColor" viewBox="0 0 20 20">
  <path d="M10 2.5c.345 0 .625.28.625.625v12.241l4.559-4.558a.625.625 0 0 1 .883.883l-5.625 5.626a.62.62 0 0 1-.096.078l-.042.022c-.022.012-.043.025-.067.035l-.039.013c-.025.008-.05.017-.078.022a.626.626 0 0 1-.32-.022l-.038-.013c-.024-.01-.045-.023-.067-.035-.013-.008-.028-.014-.042-.023a.624.624 0 0 1-.094-.077l-5.625-5.626a.625.625 0 0 1 .883-.883l4.558 4.557V3.125c0-.345.28-.625.625-.625Z"/>
</svg>
