<svg xmlns="http://www.w3.org/2000/svg" width="21" height="21" fill="currentColor" viewBox="0 0 21 21">
  <path d="m10.168 2.989.056.002.033.004.059.01.03.005.039.01a.926.926 0 0 1 .42.24l5.603 5.625.065.071a.944.944 0 0 1-.062 1.255.924.924 0 0 1-1.244.068l-.071-.064-4.017-4.033v11.493a.934.934 0 0 1-.93.938.934.934 0 0 1-.93-.938V6.181L5.2 10.215a.924.924 0 0 1-1.314-.004.944.944 0 0 1 .003-1.326L9.493 3.26l.07-.063.027-.02c.08-.061.17-.11.269-.143.002 0 .005 0 .007-.002l.024-.006a.924.924 0 0 1 .153-.032l.035-.003a.908.908 0 0 1 .052-.002l.019-.001h.02Z"/>
</svg>
