<svg xmlns="http://www.w3.org/2000/svg" width="20" height="20" fill="currentColor" viewBox="0 0 20 20">
  <path fill-rule="evenodd" d="M3.125 1.25c-1.036 0-1.875.84-1.875 1.875V7.5c0 1.036.84 1.875 1.875 1.875H7.5c1.036 0 1.875-.84 1.875-1.875V3.125c0-1.036-.84-1.875-1.875-1.875H3.125ZM2.5 3.125c0-.345.28-.625.625-.625H7.5c.345 0 .625.28.625.625V7.5c0 .345-.28.625-.625.625H3.125A.625.625 0 0 1 2.5 7.5V3.125Zm.625 7.5c-1.036 0-1.875.84-1.875 1.875v4.375c0 1.035.84 1.875 1.875 1.875H7.5c1.036 0 1.875-.84 1.875-1.875V12.5c0-1.036-.84-1.875-1.875-1.875H3.125ZM2.5 12.5c0-.345.28-.625.625-.625H7.5c.345 0 .625.28.625.625v4.375c0 .345-.28.625-.625.625H3.125a.625.625 0 0 1-.625-.625V12.5Zm8.125 0c0-1.036.84-1.875 1.875-1.875h4.375c1.035 0 1.875.84 1.875 1.875v4.375c0 1.035-.84 1.875-1.875 1.875H12.5a1.875 1.875 0 0 1-1.875-1.875V12.5Zm1.875-.625a.625.625 0 0 0-.625.625v4.375c0 .345.28.625.625.625h4.375c.345 0 .625-.28.625-.625V12.5a.625.625 0 0 0-.625-.625H12.5Zm-.625-6.563a2.813 2.813 0 1 1 5.625 0 2.813 2.813 0 0 1-5.625 0Zm2.813-4.062a4.062 4.062 0 1 0 0 8.125 4.062 4.062 0 0 0 0-8.125Z" clip-rule="evenodd"/>
</svg>
