<svg xmlns="http://www.w3.org/2000/svg" width="20" height="20" fill="currentColor" viewBox="0 0 20 20">
  <path fill-rule="evenodd" d="M1.25 3.125c0-1.036.84-1.875 1.875-1.875H7.5c1.036 0 1.875.84 1.875 1.875V7.5c0 1.036-.84 1.875-1.875 1.875H3.125A1.875 1.875 0 0 1 1.25 7.5V3.125ZM3.125 2.5a.625.625 0 0 0-.625.625V7.5c0 .345.28.625.625.625H7.5c.345 0 .625-.28.625-.625V3.125A.625.625 0 0 0 7.5 2.5H3.125Zm-1.875 10c0-1.036.84-1.875 1.875-1.875H7.5c1.036 0 1.875.84 1.875 1.875v4.375c0 1.035-.84 1.875-1.875 1.875H3.125a1.875 1.875 0 0 1-1.875-1.875V12.5Zm1.875-.625a.625.625 0 0 0-.625.625v4.375c0 .345.28.625.625.625H7.5c.345 0 .625-.28.625-.625V12.5a.625.625 0 0 0-.625-.625H3.125Zm7.5.625c0-1.036.84-1.875 1.875-1.875h4.375c1.035 0 1.875.84 1.875 1.875v4.375c0 1.035-.84 1.875-1.875 1.875H12.5a1.875 1.875 0 0 1-1.875-1.875V12.5Zm1.875-.625a.625.625 0 0 0-.625.625v4.375c0 .345.28.625.625.625h4.375c.345 0 .625-.28.625-.625V12.5a.625.625 0 0 0-.625-.625H12.5ZM14.688 2.5a2.813 2.813 0 1 0 0 5.625 2.813 2.813 0 0 0 0-5.625Zm-4.063 2.813a4.062 4.062 0 1 1 8.125 0 4.062 4.062 0 0 1-8.125 0Z" clip-rule="evenodd"/>
</svg>
