<svg xmlns="http://www.w3.org/2000/svg" width="20" height="20" fill="currentColor" viewBox="0 0 20 20">
  <path fill-rule="evenodd" d="M17.305 2.673C15.386.78 12.257.775 10.339 2.664l-.967.878a.625.625 0 0 0 .84.926l.977-.887a.713.713 0 0 0 .02-.019c1.428-1.416 3.782-1.417 5.218.001a3.599 3.599 0 0 1 0 5.128l-2.15 2.119a3.677 3.677 0 0 1-5.101.072.625.625 0 0 0-.852.915 4.928 4.928 0 0 0 6.831-.097l2.15-2.12a4.849 4.849 0 0 0 0-6.907Zm-5.63 5.53a4.927 4.927 0 0 0-6.83.097l-2.15 2.12a4.849 4.849 0 0 0 0 6.906c1.919 1.895 5.048 1.9 6.966.01l.967-.878a.625.625 0 1 0-.84-.925l-.977.886a.605.605 0 0 0-.02.019c-1.429 1.416-3.781 1.417-5.218-.001a3.599 3.599 0 0 1 0-5.128l2.15-2.119a3.677 3.677 0 0 1 5.101-.072.625.625 0 1 0 .852-.915Z" clip-rule="evenodd"/>
</svg>
