<svg xmlns="http://www.w3.org/2000/svg" width="20" height="20" fill="currentColor" viewBox="0 0 20 20">
  <path d="M11.25 13.125v-8.75c0-.595-.266-1.04-.701-1.356C10.097 2.691 9.45 2.5 8.75 2.5c-.701 0-1.345.191-1.796.52-.435.316-.702.761-.704 1.357v9.316c0 2.11 1.686 3.807 3.75 3.807s3.75-1.697 3.75-3.807V6.307a.625.625 0 1 1 1.25 0v7.386c0 2.785-2.23 5.057-5 5.057s-5-2.272-5-5.057v-9.32l.006-.191c.06-.943.534-1.68 1.213-2.174.707-.514 1.623-.758 2.531-.758.908 0 1.825.244 2.533.758.725.526 1.217 1.331 1.217 2.367v8.75c0 .601-.275 1.145-.662 1.53-.387.386-.93.658-1.525.658-1.125 0-2.188-.948-2.188-2.14V6.308a.625.625 0 1 1 1.25 0v6.867c0 .445.447.889.938.889a.942.942 0 0 0 .643-.293.937.937 0 0 0 .294-.645Z"/>
</svg>
