<svg xmlns="http://www.w3.org/2000/svg" width="20" height="20" fill="none" viewBox="0 0 20 20">
  <path fill="#3D3C3C" fill-rule="evenodd" d="M5.501 1.25c-1.299 0-2.376 1.032-2.376 2.336v12.828c0 1.304 1.077 2.336 2.376 2.336h9.623c1.299 0 2.376-1.032 2.376-2.336V6.15l-.014-.033a.621.621 0 0 0-.089-.21l-.085-.203-4.375-4.275v-.001L12.5 1.25H5.501Zm6.374 1.25H5.501c-.636 0-1.126.5-1.126 1.086v12.828c0 .587.49 1.086 1.126 1.086h9.623c.636 0 1.126-.5 1.126-1.086V6.875h-2.876a1.5 1.5 0 0 1-1.499-1.499V2.5Zm3.568 3.125L13.125 3.36v2.016a.25.25 0 0 0 .249.249h2.069ZM7.5 6.25a.626.626 0 0 0-.625.625c0 .344.28.625.625.625a1.876 1.876 0 0 1 .616 3.646.63.63 0 0 1 .009.104v.625a.625.625 0 1 1-1.25 0v-.625a.63.63 0 0 1 .009-.104 1.874 1.874 0 0 1-1.259-1.771.625.625 0 1 1 1.25 0 .626.626 0 0 0 1.25 0A.626.626 0 0 0 7.5 8.75a1.876 1.876 0 0 1-.616-3.646A.629.629 0 0 1 6.875 5v-.625a.625.625 0 1 1 1.25 0V5a.63.63 0 0 1-.009.104 1.873 1.873 0 0 1 1.259 1.771.625.625 0 1 1-1.25 0A.626.626 0 0 0 7.5 6.25Zm3.129 6.25a.625.625 0 0 0 0 1.25h3.746a.625.625 0 1 0 0-1.25h-3.746Zm-.004 2.5a.625.625 0 1 0 0 1.25h3.746a.625.625 0 0 0 0-1.25h-3.746Z" clip-rule="evenodd"/>
</svg>
