<svg xmlns="http://www.w3.org/2000/svg" width="20" height="20" fill="currentColor" viewBox="0 0 20 20">
  <path fill-rule="evenodd" d="M11.809 1.216a.624.624 0 0 1 .52.714l-.936 5.904 3.34-.912a.625.625 0 0 1 .891.544v.018a.622.622 0 0 1-.15.417L8.65 18.424l-.005.006-.017.024-.02.026-.004.005a.62.62 0 0 1-.381.215l-.032.005H8.18a.628.628 0 0 1-.05.004h-.02c-.014-.001-.028-.001-.041-.003h-.006l-.013-.002a.623.623 0 0 1-.106-.021l-.016-.006a.573.573 0 0 1-.041-.015l-.022-.01a.592.592 0 0 1-.034-.017l-.02-.011-.026-.015-.008-.005-.022-.017c-.009-.006-.018-.012-.026-.02l-.014-.01a.62.62 0 0 1-.213-.527v-.006l.55-5.52-2.99.3a.625.625 0 0 1-.687-.635.62.62 0 0 1 .097-.342l6.563-10.289a.624.624 0 0 1 .436-.281.623.623 0 0 1 .338-.04ZM6.203 11.437l2.484-.249a.627.627 0 0 1 .685.682l-.37 3.715 4.575-7.054-2.787.761a.626.626 0 0 1-.782-.699l.657-4.152-4.462 6.996Z" clip-rule="evenodd"/>
</svg>
