<svg xmlns="http://www.w3.org/2000/svg" width="20" height="20" fill="currentColor" viewBox="0 0 20 20">
  <path fill-rule="evenodd" d="M6.43 2.5c-1.15 0-2.055.907-2.055 1.987v11.891c0 .93 1.147 1.493 1.924.844l2.114-1.766c.171-.173.731-.66 1.587-.66.876 0 1.437.513 1.582.656l2.119 1.77c.775.648 1.924.082 1.924-.844V4.487c0-1.08-.905-1.987-2.055-1.987H6.43ZM3.125 4.487c0-1.8 1.494-3.237 3.305-3.237h7.14c1.81 0 3.305 1.438 3.305 3.237v11.891c0 2.046-2.432 3.093-3.976 1.803l-2.14-1.787a.617.617 0 0 1-.044-.04 1.037 1.037 0 0 0-.715-.308.98.98 0 0 0-.492.135 1.083 1.083 0 0 0-.151.105c-.038.03-.056.051-.055.05a.62.62 0 0 1-.06.058L7.1 18.18c-1.542 1.29-3.976.25-3.976-1.803V4.487Z" clip-rule="evenodd"/>
</svg>
