<svg xmlns="http://www.w3.org/2000/svg" width="20" height="20" fill="none" viewBox="0 0 20 20">
  <path fill="#3D3C3C" fill-rule="evenodd" d="M5 1.25c-1.036 0-1.875.84-1.875 1.875v13.75c0 1.035.84 1.875 1.875 1.875h10.625c.69 0 1.25-.56 1.25-1.25v-15c0-.69-.56-1.25-1.25-1.25H5Zm.669 1.25H5a.625.625 0 0 0-.625.625v13.75c0 .345.28.625.625.625h10.625v-15h-4.418c.028.123.043.25.043.38v4.573c0 .528-.296.964-.712 1.17a1.21 1.21 0 0 1-1.368-.2l-.732-.672-.733.671a1.21 1.21 0 0 1-1.367.201 1.29 1.29 0 0 1-.713-1.17V2.88c0-.129.015-.256.044-.379Zm4.018 0H7.188c-.133 0-.313.13-.313.38v4.573c0 .015.002.024.004.03v.001l.709-.65c.108-.116.4-.374.85-.374.465 0 .76.28.848.372l.71.652v-.002A.104.104 0 0 0 10 7.453V2.88c0-.25-.18-.379-.313-.379Zm-.312 10c0-.345.28-.625.625-.625h3.75a.625.625 0 1 1 0 1.25H10a.625.625 0 0 1-.625-.625ZM10 14.375a.625.625 0 1 0 0 1.25h3.75a.625.625 0 1 0 0-1.25H10Z" clip-rule="evenodd"/>
</svg>
