<svg xmlns="http://www.w3.org/2000/svg" width="20" height="20" fill="currentColor" viewBox="0 0 20 20">
  <path d="M18.125 2c.345 0 .625.28.625.625v13.75l-.001.003.001.003v2.494c0 .345-.28.625-.625.625H6.847C5.82 19.5 5 18.65 5 17.625V4.053C5 2.99 5.777 2 6.894 2h11.231ZM6.79 17.003a.616.616 0 0 0-.54.622c0 .358.283.625.597.625H17.5v-1.244H6.847a.624.624 0 0 1-.057-.003ZM6.894 3.25c-.291 0-.644.287-.644.803V15.85c.186-.065.387-.101.597-.101a.57.57 0 0 1 .083.006h.511c.02-.002.04-.006.059-.006h10V3.25H6.894Zm6.92 3.753a.625.625 0 0 1 0 1.244l-.064.003H10A.625.625 0 1 1 10 7h3.75l.065.003Zm1.25-1.875a.625.625 0 0 1 0 1.244L15 6.375H8.75a.625.625 0 1 1 0-1.25H15l.065.003Z"/>
</svg>
