<svg xmlns="http://www.w3.org/2000/svg" width="20" height="20" fill="currentColor" viewBox="0 0 20 20">
  <path fill-rule="evenodd" d="M8.684 1.3a.625.625 0 0 0-.493 0L1.63 4.114a.625.625 0 0 0-.379.574v7.414c0 .247.146.47.371.571l6.534 2.9a.625.625 0 0 0 .268.053h.014c.346 0 .626-.28.626-.625V7.912l5.312-2.277v3.116a.625.625 0 1 0 1.25 0V5a.626.626 0 0 0-.02-.157.622.622 0 0 0-.359-.73L8.684 1.301Zm-.871 6.612v6.14L2.5 11.694V5.635l1.875.804V8.75a.625.625 0 1 0 1.25 0V6.975l2.188.937Zm-2.896-2.6-1.455-.625 4.976-2.132 1.314.563-4.835 2.193Zm1.556.666 1.965.842 4.975-2.133-2.105-.902-4.835 2.193Zm7.277 5.272a2.5 2.5 0 1 0 0 5 2.5 2.5 0 0 0 0-5ZM10 13.75a3.75 3.75 0 1 1 6.807 2.173l1.76 1.76a.625.625 0 1 1-.884.884l-1.76-1.76A3.75 3.75 0 0 1 10 13.75Z" clip-rule="evenodd"/>
</svg>
