<svg xmlns="http://www.w3.org/2000/svg" width="20" height="20" fill="currentColor" viewBox="0 0 20 20">
  <path fill-rule="evenodd" d="M8.191 1.3a.625.625 0 0 1 .493 0l6.562 2.813a.625.625 0 0 1 .36.73c.012.05.019.103.019.157v3.75a.625.625 0 1 1-1.25 0V5.636L9.062 7.912V15c0 .345-.28.625-.624.625h-.015a.625.625 0 0 1-.268-.054L1.62 12.672a.625.625 0 0 1-.371-.571V4.688c0-.25.149-.476.379-.575L8.19 1.301Zm-.379 12.752v-6.14l-2.187-.937V8.75a.625.625 0 1 1-1.25 0V6.439L2.5 5.635v6.06l5.313 2.357Zm-4.35-9.364 1.455.623 4.835-2.193-1.315-.563-4.975 2.132ZM8.438 6.82l-1.965-.842 4.835-2.193 2.105.902L8.437 6.82ZM15 12.5a.625.625 0 1 0-1.25 0v1.25H12.5a.625.625 0 1 0 0 1.25h1.25v1.25a.625.625 0 1 0 1.25 0V15h1.25a.625.625 0 1 0 0-1.25H15V12.5Zm-.625-2.5a4.375 4.375 0 1 0 0 8.75 4.375 4.375 0 0 0 0-8.75Zm-3.125 4.375a3.125 3.125 0 1 1 6.25 0 3.125 3.125 0 0 1-6.25 0Z" clip-rule="evenodd"/>
</svg>
