<svg xmlns="http://www.w3.org/2000/svg" width="20" height="20" fill="currentColor" viewBox="0 0 20 20">
  <path fill-rule="evenodd" d="M8.684 1.3a.625.625 0 0 0-.493 0L1.63 4.114a.625.625 0 0 0-.379.574v7.414c0 .247.146.47.371.571l6.534 2.9a.625.625 0 0 0 .268.053h.014c.346 0 .626-.28.626-.625V7.912l5.312-2.277v3.116a.625.625 0 1 0 1.25 0V5a.626.626 0 0 0-.02-.157.622.622 0 0 0-.359-.73L8.684 1.301Zm-.871 6.612v6.14L2.5 11.694V5.635l1.875.804V8.75a.625.625 0 1 0 1.25 0V6.975l2.188.937Zm-2.896-2.6-1.455-.625 4.976-2.132 1.314.563-4.835 2.193Zm1.556.666 1.965.842 4.975-2.133-2.105-.902-4.835 2.193Zm10.402 8.397c0 .345-.28.625-.625.625H12.5a.625.625 0 1 1 0-1.25h3.75c.345 0 .625.28.625.625ZM14.375 10a4.375 4.375 0 1 0 0 8.75 4.375 4.375 0 0 0 0-8.75Zm-3.125 4.375a3.125 3.125 0 1 1 6.25 0 3.125 3.125 0 0 1-6.25 0Z" clip-rule="evenodd"/>
</svg>
