<svg xmlns="http://www.w3.org/2000/svg" width="20" height="20" fill="currentColor" viewBox="0 0 20 20">
  <path fill-rule="evenodd" d="M11.457 1.49a.625.625 0 0 1 .775-.173l6.175 3.125a.625.625 0 0 1 .21.942L16.953 7.52l1.684 2.399a.625.625 0 0 1-.205.904l-6.175 3.472a.625.625 0 0 1-.818-.186L10 12.06l-1.438 2.05a.625.625 0 0 1-.818.185l-6.175-3.472a.625.625 0 0 1-.206-.904l1.685-2.4-1.666-2.135a.625.625 0 0 1 .21-.942l6.176-3.125a.625.625 0 0 1 .775.174L10 3.359l1.457-1.868ZM10 10.256 5.152 7.53 10 5.076l4.848 2.453L10 10.255Zm2.127-7.59L10.96 4.16l5.038 2.55 1.167-1.495-5.038-2.55Zm-1.219 8.514 1.229 1.75 5.08-2.857-1.229-1.75-5.08 2.857Zm-8.125-1.107 1.229-1.75 5.08 2.857-1.229 1.75-5.08-2.857Zm13.509 2.47c.345 0 .625.28.625.625v1.76c0 .234-.13.447-.338.555l-6.242 3.236a.624.624 0 0 1-.59 0l-6.243-3.236a.625.625 0 0 1-.337-.555v-1.76a.625.625 0 1 1 1.25 0v1.38l4.958 2.57V15a.625.625 0 0 1 1.25 0v2.16l5.042-2.613v-1.38c0-.345.28-.625.625-.625ZM2.835 5.215 4.002 6.71 9.04 4.16 7.873 2.665l-5.038 2.55Z" clip-rule="evenodd"/>
</svg>
