<svg xmlns="http://www.w3.org/2000/svg" width="20" height="20" fill="currentColor" viewBox="0 0 20 20">
  <path fill-rule="evenodd" d="M1.546 10.094a.625.625 0 0 1 .607-.029l3.75 1.862a.625.625 0 0 1 .347.56V17.5a.625.625 0 0 1-.903.56l-3.75-1.862a.625.625 0 0 1-.347-.56v-5.013c0-.216.112-.417.296-.531Zm.954 1.54v3.617L5 16.49v-3.617l-2.5-1.24Z" clip-rule="evenodd"/>
  <path fill-rule="evenodd" d="M10.344 10.103a.625.625 0 0 1 .281.522v5.013c0 .25-.15.477-.38.575L5.87 18.075a.625.625 0 1 1-.49-1.15l3.995-1.7v-3.652l-3.504 1.502a.625.625 0 0 1-.492-1.15l4.375-1.875a.625.625 0 0 1 .59.053Z" clip-rule="evenodd"/>
  <path fill-rule="evenodd" d="M5.346 8.191a.625.625 0 0 1 .525-.015l4.375 1.874a.625.625 0 1 1-.492 1.15L5.645 9.439l-3.49 1.745a.625.625 0 0 1-.56-1.118l3.75-1.875Z" clip-rule="evenodd"/>
  <path fill-rule="evenodd" d="M9.425 10.38a.625.625 0 0 1 .82-.33l4.375 1.862c.23.098.38.324.38.575V17.5a.625.625 0 0 1-.87.575l-4.375-1.862a.625.625 0 1 1 .49-1.15l3.505 1.492V12.9l-3.995-1.7a.625.625 0 0 1-.33-.82Z" clip-rule="evenodd"/>
  <path fill-rule="evenodd" d="M18.454 10.094a.625.625 0 0 1 .296.531v5.013a.625.625 0 0 1-.347.56l-3.75 1.862a.625.625 0 0 1-.556-1.12l3.403-1.69v-3.617l-2.847 1.414a.625.625 0 0 1-.556-1.12l3.75-1.862a.625.625 0 0 1 .607.029Z" clip-rule="evenodd"/>
  <path fill-rule="evenodd" d="M14.129 8.176a.625.625 0 0 1 .526.015l3.75 1.875a.625.625 0 1 1-.56 1.118l-3.49-1.745-4.109 1.76a.625.625 0 0 1-.492-1.149l4.375-1.874Z" clip-rule="evenodd"/>
  <path fill-rule="evenodd" d="M5.28 3.229a.625.625 0 0 1 .59-.054l4.375 1.862c.23.098.38.324.38.575v5.013a.625.625 0 1 1-1.25 0v-4.6L6.25 4.695v3.867a.625.625 0 1 1-1.25 0V3.75c0-.21.105-.406.28-.521Z" clip-rule="evenodd"/>
  <path fill-rule="evenodd" d="M14.72 3.229c.175.116.28.311.28.521v5a.625.625 0 1 1-1.25 0V4.694l-3.506 1.488a.625.625 0 1 1-.488-1.15l4.375-1.857a.625.625 0 0 1 .589.054Z" clip-rule="evenodd"/>
  <path fill-rule="evenodd" d="M9.744 1.3a.625.625 0 0 1 .492 0l4.385 1.875a.625.625 0 0 1-.492 1.15l-4.138-1.77-4.12 1.77a.625.625 0 1 1-.493-1.15l4.366-1.874Z" clip-rule="evenodd"/>
</svg>
