<svg xmlns="http://www.w3.org/2000/svg" width="20" height="20" fill="currentColor" viewBox="0 0 20 20">
  <path fill-rule="evenodd" d="M9.756 1.3a.625.625 0 0 1 .488 0l8.125 3.44a.625.625 0 0 1 0 1.151l-8.126 3.435a.625.625 0 0 1-.486 0L1.632 5.89a.625.625 0 0 1 0-1.151L9.755 1.3ZM3.48 5.314 10 8.07l6.521-2.756L10 2.554l-6.521 2.76Z" clip-rule="evenodd"/>
  <path fill-rule="evenodd" d="M14.333 3.526a.625.625 0 0 1-.359.807L5.85 7.458a.625.625 0 0 1-.448-1.166l8.125-3.125a.625.625 0 0 1 .807.359Z" clip-rule="evenodd"/>
  <path fill-rule="evenodd" d="M1.875 5c.345 0 .625.28.625.625v8.613l7.5 3.207 7.5-3.207V5.625a.625.625 0 1 1 1.25 0v9.026c0 .25-.15.476-.38.574L10.247 18.7a.625.625 0 0 1-.492 0L1.63 15.225a.625.625 0 0 1-.379-.574V5.625c0-.345.28-.625.625-.625Z" clip-rule="evenodd"/>
  <path fill-rule="evenodd" d="M10 8.125c.345 0 .625.28.625.625v9.375a.625.625 0 1 1-1.25 0V8.75c0-.345.28-.625.625-.625ZM5.625 6.25c.345 0 .625.28.625.625V10A.625.625 0 1 1 5 10V6.875c0-.345.28-.625.625-.625Z" clip-rule="evenodd"/>
</svg>
