<svg xmlns="http://www.w3.org/2000/svg" width="20" height="20" fill="currentColor" viewBox="0 0 20 20">
  <path fill-rule="evenodd" d="M2.5 6.25a1.25 1.25 0 1 1 2.5 0 1.25 1.25 0 0 1-2.5 0Zm1.25-2.5a2.5 2.5 0 1 0 2.38 3.27l.593.149c.56.14.877.322 1.066.504.18.174.288.39.348.694.063.32.066.71.047 1.209-.005.136-.012.28-.02.432-.018.38-.039.805-.039 1.242 0 .55.2 1.33.785 1.98.604.671 1.564 1.145 2.965 1.145h1.954a2.5 2.5 0 1 0 0-1.25h-1.954c-1.099 0-1.701-.36-2.035-.73a1.8 1.8 0 0 1-.465-1.145c0-.405.018-.78.036-1.148.008-.16.016-.318.022-.478.02-.505.024-1.022-.07-1.497-.088-.45-.267-.882-.607-1.252h5.073a2.501 2.501 0 1 0 0-1.25H6.17A2.501 2.501 0 0 0 3.75 3.75ZM15 6.25a1.25 1.25 0 1 1 2.5 0 1.25 1.25 0 0 1-2.5 0Zm1.25 6.25a1.25 1.25 0 1 0 0 2.5 1.25 1.25 0 0 0 0-2.5Z" clip-rule="evenodd"/>
</svg>
