<svg xmlns="http://www.w3.org/2000/svg" width="20" height="20" fill="currentColor" viewBox="0 0 20 20">
  <path d="M9.375 1.875c1.777 0 3.413.251 4.626.676.604.211 1.137.477 1.531.803.39.324.718.77.718 1.333 0 .067-.006.132-.015.196.012.06.018.121.011.184l-.425 3.913c.534.452.936.855 1.21 1.216.273.361.497.78.467 1.214-.036.53-.414.832-.785.965-.347.124-.767.143-1.187.112l-.084-.008-.446 4.125a.625.625 0 0 1-.395.514c-4.686 1.818-8.911.773-10.505-.022a.626.626 0 0 1-.342-.492L2.504 5.066a.625.625 0 0 1 .009-.191 1.425 1.425 0 0 1-.013-.189c0-.562.327-1.01.718-1.333.394-.326.927-.592 1.531-.803 1.213-.425 2.85-.676 4.626-.676Zm5.462 4.594c-.256.132-.537.25-.836.355-1.068.374-2.464.612-3.995.664-.934.056-1.923.027-2.911-.135-.879-.116-1.677-.295-2.346-.529a6.54 6.54 0 0 1-.837-.355l1.046 9.645c1.5.625 4.958 1.354 8.837-.03l.413-3.82c-1.3-.316-2.856-.94-4.264-1.778a1.25 1.25 0 1 1 .68-1.111c.001.02-.002.04-.003.059 1.249.739 2.607 1.286 3.723 1.577l.493-4.542Zm.74 4.766.04.005c.274.02.466.005.587-.02a1.61 1.61 0 0 0-.17-.269 4.51 4.51 0 0 0-.38-.428l-.077.712Zm-6.202-8.11c-1.675 0-3.164.239-4.213.605-.527.185-.91.39-1.147.587-.242.2-.265.329-.265.37v.004c1.077.789 2.322 1.23 3.595 1.433a16.372 16.372 0 0 0 2.574.116c.37-.022.735-.056 1.09-.105 1.213-.169 2.282-.477 3.04-.791a4.87 4.87 0 0 0 .832-.427c.106-.12.119-.199.119-.23 0-.041-.023-.17-.265-.37-.238-.197-.62-.402-1.147-.587-1.049-.367-2.538-.605-4.213-.605Z"/>
</svg>
