<svg xmlns="http://www.w3.org/2000/svg" width="20" height="20" fill="currentColor" viewBox="0 0 20 20">
  <path fill-rule="evenodd" d="M5.934 1.96a.625.625 0 0 1 .855.224l.639 1.09.513.285c.055-.064.112-.126.17-.185C8.62 2.853 9.263 2.5 10 2.5s1.38.353 1.89.874c.058.06.114.121.17.185l.515-.285.635-1.089a.625.625 0 0 1 1.08.63l-.722 1.238a.625.625 0 0 1-.238.231l-.584.324c.1.196.19.403.273.617a6.457 6.457 0 0 1 1.875 1.749l1.377-2.296a.625.625 0 0 1 .536-.303h1.318a.625.625 0 1 1 0 1.25h-.964l-1.554 2.589c.413.92.643 1.954.643 3.036a7.51 7.51 0 0 1-.233 1.862l1.785.986c.2.11.323.32.323.547v2.23a.625.625 0 1 1-1.25 0v-1.861l-1.278-.705c-1.014 2.243-3.111 3.816-5.597 3.816-2.485 0-4.583-1.573-5.597-3.816l-1.278.705v1.861a.625.625 0 1 1-1.25 0v-2.23c0-.228.124-.437.323-.547l1.785-.986a7.507 7.507 0 0 1-.233-1.862c0-1.082.23-2.115.643-3.036L2.839 5.625h-.964a.625.625 0 1 1 0-1.25h1.318c.22 0 .423.115.536.303l1.377 2.296a6.457 6.457 0 0 1 1.875-1.749 6.86 6.86 0 0 1 .273-.618l-.582-.323a.625.625 0 0 1-.236-.23l-.725-1.238a.625.625 0 0 1 .223-.855Zm4.691 14.871c2.421-.344 4.375-2.659 4.375-5.58 0-.752-.129-1.463-.362-2.11-1.42.93-2.78 1.35-4.013 1.456v6.234Zm-1.25-6.23v6.23C6.954 16.487 5 14.172 5 11.251c0-.742.125-1.443.352-2.083.063.042.129.086.2.13.534.34 1.307.749 2.265 1.022.479.137 1 .239 1.558.282Zm.633-1.226a.676.676 0 0 0-.022 0 6.57 6.57 0 0 1-1.826-.257A7.464 7.464 0 0 1 5.9 8.027c.915-1.465 2.43-2.402 4.1-2.402 1.661 0 3.17.929 4.086 2.381-1.492 1.012-2.877 1.362-4.078 1.37Zm-1.225-4.87c.072-.094.146-.18.22-.257.346-.352.686-.498.997-.498.311 0 .651.146.996.498.075.077.15.163.221.256a5.768 5.768 0 0 0-2.434 0Z" clip-rule="evenodd"/>
</svg>
