<svg xmlns="http://www.w3.org/2000/svg" width="20" height="20" fill="currentColor" viewBox="0 0 20 20">
  <path fill-rule="evenodd" d="M11.696 1.25c-.949 0-1.696.782-1.696 1.719v3.556c0 .419.121.833.42 1.145.301.317.713.455 1.143.455h.044v.356c0 .199.056.505.31.717a.77.77 0 0 0 .517.177.852.852 0 0 0 .485-.18l1.36-1.07h2.909c.43 0 .842-.14 1.143-.457.298-.313.419-.727.419-1.146V2.97c0-.937-.747-1.719-1.696-1.719h-5.358Zm-.446 1.719c0-.271.212-.469.446-.469h5.358c.234 0 .446.198.446.469v3.553c0 .185-.052.26-.075.285-.02.02-.076.068-.238.068h-3.125a.625.625 0 0 0-.386.134l-.819.644V7.5a.625.625 0 0 0-.625-.625h-.67c-.162 0-.219-.047-.238-.067-.023-.024-.074-.098-.074-.283V2.969Z" clip-rule="evenodd"/>
  <path d="M2.5 4.7c0-.514.427-.95.98-.95h4.645a.625.625 0 1 0 0-1.25H3.48c-1.22 0-2.23.974-2.23 2.2v8.725c0 1.226 1.01 2.2 2.23 2.2h5.895V17.5H6.25a.625.625 0 1 0 0 1.25h7.5a.625.625 0 1 0 0-1.25h-3.125v-1.875h5.895c1.22 0 2.23-.974 2.23-2.2V10a.625.625 0 1 0-1.25 0v3.425c0 .514-.427.95-.98.95H3.48a.965.965 0 0 1-.98-.95V4.7Z"/>
  <path fill-rule="evenodd" d="M6.875 4.375a2.188 2.188 0 1 0 0 4.375 2.188 2.188 0 0 0 0-4.375Zm-.938 2.188a.937.937 0 1 1 1.875 0 .937.937 0 0 1-1.875 0ZM3.75 11.13c-.006-1.01.87-1.724 1.725-1.724h2.897c.88 0 1.634.692 1.628 1.668v1.457c0 .345-.28.625-.625.625h-5a.625.625 0 0 1-.625-.625v-1.4Zm1.725-.474c-.239 0-.477.224-.475.468v.782h3.75v-.839c.002-.267-.174-.41-.378-.41H5.475Z" clip-rule="evenodd"/>
</svg>
