<svg xmlns="http://www.w3.org/2000/svg" width="20" height="20" fill="currentColor" viewBox="0 0 20 20">
  <path fill-rule="evenodd" d="M6.875 3.115c0-.346.28-.625.625-.625h4.975a.625.625 0 1 1 0 1.25H7.5a.625.625 0 0 1-.625-.625Z" clip-rule="evenodd"/>
  <path fill-rule="evenodd" d="M7.5 1.25c.345 0 .625.28.625.625v2.48a.625.625 0 1 1-1.25 0v-2.48c0-.345.28-.625.625-.625Zm4.987 0c.345 0 .625.28.625.625v2.48a.625.625 0 1 1-1.25 0v-2.48c0-.345.28-.625.625-.625ZM1.25 6.875h17.5v9.691c0 1.255-1.083 2.184-2.314 2.184H3.564c-1.233 0-2.314-.935-2.314-2.184V6.875Zm1.25 1.25v8.441c0 .468.428.934 1.064.934h12.872c.638 0 1.064-.462 1.064-.934V8.125h-15Z" clip-rule="evenodd"/>
  <path fill-rule="evenodd" d="M1.25 5.538c0-1.297 1-2.413 2.314-2.413H5a.625.625 0 1 1 0 1.25H3.564c-.556 0-1.064.487-1.064 1.163v1.337h15V5.538c0-.676-.508-1.163-1.064-1.163H15a.625.625 0 1 1 0-1.25h1.436c1.313 0 2.314 1.116 2.314 2.413v2.587H1.25V5.538Z" clip-rule="evenodd"/>
</svg>
