<svg xmlns="http://www.w3.org/2000/svg" width="20" height="20" fill="currentColor" viewBox="0 0 20 20">
  <path fill-rule="evenodd" d="M6.28 1.25c.346 0 .625.28.625.625v.615h3.738v-.615a.625.625 0 1 1 1.25 0v2.48a.625.625 0 1 1-1.25 0V3.74H6.905v.614a.625.625 0 1 1-1.25 0V1.875c0-.345.28-.625.625-.625ZM2.5 4.39c0-.187.071-.325.2-.43.137-.112.378-.21.737-.21h.313a.625.625 0 1 0 0-1.25h-.313c-.578 0-1.118.159-1.527.491-.419.341-.66.835-.66 1.4V15.48c0 1.129.945 1.997 2.056 1.997h4.506a.625.625 0 0 0 0-1.25H3.306c-.471 0-.806-.359-.806-.746V6.875h13.125c.345 0 .625-.28.625-.625V4.44c0-1.164-1.064-1.94-2.188-1.94h-.312a.625.625 0 1 0 0 1.25h.313c.634 0 .937.402.937.69v1.185H2.5V4.391Zm11.957 3.44a.625.625 0 0 1 .84-.259l2.188 1.145c.304.16.423.535.265.84l-.395.765c.198.26.366.539.503.83l.921.044c.334.015.596.29.596.624v2.396a.625.625 0 0 1-.605.625l-.809.026a4.516 4.516 0 0 1-.197.423l-.002.004a5.05 5.05 0 0 1-.247.407l.494.85a.625.625 0 0 1-.234.859l-2.243 1.26a.625.625 0 0 1-.866-.266l-.364-.733a4.43 4.43 0 0 1-.874.025l-.385.72a.625.625 0 0 1-.84.26l-2.208-1.156a.625.625 0 0 1-.26-.85l.405-.751a4.592 4.592 0 0 1-.482-.79l-.812.025a.625.625 0 0 1-.645-.605l-.076-2.5a.625.625 0 0 1 .605-.643l.808-.026a4.17 4.17 0 0 1 .2-.426 5.27 5.27 0 0 1 .24-.399l-.427-.696a.625.625 0 0 1 .202-.857l2.11-1.317a.625.625 0 0 1 .864.203l.427.694c.302-.041.61-.053.918-.03l.385-.72Zm.81 1.136-.295.55a.625.625 0 0 1-.66.322 3.17 3.17 0 0 0-1.314.045.625.625 0 0 1-.682-.28l-.324-.525-1.051.655.324.528c.14.23.119.522-.054.729a3.378 3.378 0 0 0-.627 1.18.625.625 0 0 1-.578.444l-.612.02.037 1.25.614-.02a.625.625 0 0 1 .607.41c.155.423.388.81.697 1.14a.625.625 0 0 1 .093.724l-.306.567 1.097.574.295-.55a.625.625 0 0 1 .66-.321c.44.078.89.06 1.314-.045.284-.07.58.066.71.329l.281.566 1.117-.628-.383-.659a.625.625 0 0 1 .062-.715 3.382 3.382 0 0 0 .627-1.18.625.625 0 0 1 .578-.445l.631-.02v-1.196l-.72-.034a.625.625 0 0 1-.557-.409 3.347 3.347 0 0 0-.697-1.14.625.625 0 0 1-.098-.715l.3-.582-1.086-.569Zm-.58 4.159a.937.937 0 1 1-1.874 0 .937.937 0 0 1 1.874 0Zm1.25 0a2.188 2.188 0 1 1-4.375 0 2.188 2.188 0 0 1 4.376 0Z" clip-rule="evenodd"/>
</svg>
