<svg xmlns="http://www.w3.org/2000/svg" width="20" height="20" fill="currentColor" viewBox="0 0 20 20">
  <path fill-rule="evenodd" d="M6.905 1.875a.625.625 0 1 0-1.25 0v2.48a.625.625 0 0 0 1.25 0V3.74h3.738v.614a.625.625 0 1 0 1.25 0V1.875a.625.625 0 1 0-1.25 0v.615H6.905v-.615ZM2.7 3.961a.523.523 0 0 0-.199.43v1.234H15V4.44c0-.288-.303-.69-.938-.69h-.312a.625.625 0 1 1 0-1.25h.313c1.123 0 2.187.776 2.187 1.94v3.685a.625.625 0 1 1-1.25 0v-1.25H2.5v8.606c0 .387.335.746.806.746h4.819a.625.625 0 1 1 0 1.25H3.306c-1.11 0-2.056-.868-2.056-1.996V4.39c0-.564.241-1.058.66-1.399.409-.333.95-.491 1.528-.491h.312a.625.625 0 1 1 0 1.25h-.313c-.359 0-.6.098-.738.21ZM15 12.5a.625.625 0 1 0-1.25 0v1.25H12.5a.625.625 0 1 0 0 1.25h1.25v1.25a.625.625 0 1 0 1.25 0V15h1.25a.625.625 0 1 0 0-1.25H15V12.5Zm-.625-2.5a4.375 4.375 0 1 0 0 8.75 4.375 4.375 0 0 0 0-8.75Zm-3.125 4.375a3.125 3.125 0 1 1 6.25 0 3.125 3.125 0 0 1-6.25 0Z" clip-rule="evenodd"/>
</svg>
