<svg xmlns="http://www.w3.org/2000/svg" width="20" height="20" fill="currentColor" viewBox="0 0 20 20">
  <path fill-rule="evenodd" d="M7.5 1.25c.345 0 .625.28.625.625v.615h3.737v-.615a.625.625 0 1 1 1.25 0v2.48a.625.625 0 0 1-1.25 0V3.74H8.125v.614a.625.625 0 1 1-1.25 0V1.875c0-.345.28-.625.625-.625Zm-5 5.625V5.538c0-.676.508-1.163 1.064-1.163H5a.625.625 0 1 0 0-1.25H3.564c-1.313 0-2.314 1.116-2.314 2.413v11.028c0 1.249 1.081 2.184 2.314 2.184h12.872c1.231 0 2.314-.929 2.314-2.184V5.538c0-1.297-1-2.413-2.314-2.413H15a.625.625 0 1 0 0 1.25h1.436c.556 0 1.064.487 1.064 1.163v1.337h-15Zm15 1.25h-15v8.441c0 .468.428.934 1.064.934h12.872c.638 0 1.064-.462 1.064-.934V8.125Z" clip-rule="evenodd"/>
</svg>
