<svg xmlns="http://www.w3.org/2000/svg" width="20" height="20" fill="currentColor" viewBox="0 0 20 20">
  <path fill-rule="evenodd" d="M6.28 1.25c.346 0 .625.28.625.625v.615h3.738v-.615a.625.625 0 1 1 1.25 0v2.48a.625.625 0 1 1-1.25 0V3.74H6.905v.614a.625.625 0 1 1-1.25 0V1.875c0-.345.28-.625.625-.625ZM2.5 4.39c0-.187.071-.325.2-.43.137-.112.378-.21.737-.21h.313a.625.625 0 1 0 0-1.25h-.313c-.578 0-1.118.159-1.527.491-.419.341-.66.835-.66 1.4V15.48c0 1.129.945 1.997 2.056 1.997h4.819a.625.625 0 0 0 0-1.25H3.306c-.471 0-.806-.359-.806-.746V6.875H15v1.25a.625.625 0 1 0 1.25 0V4.44c0-1.164-1.064-1.94-2.188-1.94h-.312a.625.625 0 1 0 0 1.25h.313c.634 0 .937.402.937.69v1.185H2.5V4.391Zm14.375 9.985c0 .345-.28.625-.625.625H12.5a.625.625 0 1 1 0-1.25h3.75c.345 0 .625.28.625.625ZM14.375 10a4.375 4.375 0 1 0 0 8.75 4.375 4.375 0 0 0 0-8.75Zm-3.125 4.375a3.125 3.125 0 1 1 6.25 0 3.125 3.125 0 0 1-6.25 0Z" clip-rule="evenodd"/>
</svg>
