<svg xmlns="http://www.w3.org/2000/svg" width="20" height="20" fill="none" viewBox="0 0 20 20">
  <path fill="#3D3C3C" d="M15.542 8.083a.583.583 0 1 1-1.167 0 .583.583 0 0 1 1.167 0Z"/>
  <path fill="#3D3C3C" fill-rule="evenodd" d="M5.932 3.255a.625.625 0 0 1 .381-.13h4.433c.176 0 .345.075.463.206l.944 1.044h4.41c.63 0 1.178.33 1.55.74.373.41.637.973.637 1.56v8.74c0 1.16-.95 2.085-2.104 2.085H3.354a2.093 2.093 0 0 1-2.104-2.085V6.67c0-.587.265-1.149.638-1.558.372-.41.92-.736 1.55-.736h1.037l1.457-1.12Zm.594 1.12-1.458 1.12a.625.625 0 0 1-.38.13h-1.25c-.189 0-.423.104-.627.328-.203.223-.311.496-.311.716v8.746c0 .454.374.835.854.835h13.292c.48 0 .854-.38.854-.835v-8.74c0-.22-.108-.495-.312-.72-.205-.226-.438-.33-.625-.33h-4.688a.625.625 0 0 1-.464-.206l-.943-1.044H6.526Z" clip-rule="evenodd"/>
  <path fill="#3D3C3C" fill-rule="evenodd" d="M8.438 8.125a2.813 2.813 0 1 0 0 5.625 2.813 2.813 0 0 0 0-5.625Zm-4.063 2.813a4.062 4.062 0 1 1 8.125 0 4.062 4.062 0 0 1-8.125 0Z" clip-rule="evenodd"/>
</svg>
