<svg xmlns="http://www.w3.org/2000/svg" width="20" height="20" fill="currentColor" viewBox="0 0 20 20">
  <path fill-rule="evenodd" d="M2.5 3.75c0-.69.56-1.25 1.25-1.25h5a.625.625 0 1 1 0 1.25h-5v5a.625.625 0 1 1-1.25 0v-5Zm8.125-.625c0-.345.28-.625.625-.625h5c.69 0 1.25.56 1.25 1.25v5a.625.625 0 1 1-1.25 0v-5h-5a.625.625 0 0 1-.625-.625ZM17.5 11.25a.625.625 0 1 0-1.25 0v5h-5a.625.625 0 1 0 0 1.25h5c.69 0 1.25-.56 1.25-1.25v-5Zm-14.375-.625c.345 0 .625.28.625.625v5h5a.625.625 0 1 1 0 1.25h-5c-.69 0-1.25-.56-1.25-1.25v-5c0-.345.28-.625.625-.625ZM7.5 7.5h5v5h-5v-5Zm-1.25 0c0-.69.56-1.25 1.25-1.25h5c.69 0 1.25.56 1.25 1.25v5c0 .69-.56 1.25-1.25 1.25h-5c-.69 0-1.25-.56-1.25-1.25v-5Z" clip-rule="evenodd"/>
</svg>
