<svg xmlns="http://www.w3.org/2000/svg" width="20" height="20" fill="currentColor" viewBox="0 0 20 20">
  <path fill-rule="evenodd" d="M1.875 1.875c0-.345.28-.625.625-.625h.831c1.227 0 2.294.942 2.294 2.188v.937h10.373c1.036 0 1.78 1.02 1.405 2.005a.667.667 0 0 1-.01.027l-1.594 3.666a4.017 4.017 0 0 1-3.68 2.427H5.625v1.25c0 .747.539 1.25 1.08 1.25h7.67a.625.625 0 1 1 0 1.25h-7.67c-1.34 0-2.33-1.177-2.33-2.5V3.437c0-.479-.428-.937-1.044-.937H2.5a.625.625 0 0 1-.625-.625Zm3.75 9.375V5.625h10.373c.189 0 .284.167.24.302l-1.585 3.647a2.767 2.767 0 0 1-2.534 1.676H5.625Zm2.188 7.5a.937.937 0 1 0 0-1.875.937.937 0 0 0 0 1.875Zm4.375 0a.937.937 0 1 0 0-1.875.937.937 0 0 0 0 1.875Z" clip-rule="evenodd"/>
</svg>
