<svg xmlns="http://www.w3.org/2000/svg" width="20" height="20" fill="currentColor" viewBox="0 0 20 20">
  <path fill-rule="evenodd" d="M2.5 7.5c0-.345.28-.625.625-.625h2.5a.625.625 0 1 1 0 1.25h-2.5A.625.625 0 0 1 2.5 7.5Zm0 3.75c0-.345.28-.625.625-.625h2.5a.625.625 0 1 1 0 1.25h-2.5a.625.625 0 0 1-.625-.625Z" clip-rule="evenodd"/>
  <path fill-rule="evenodd" d="M4.375 8.75c.345 0 .625.28.625.625v1.875a.625.625 0 1 1-1.25 0V9.375c0-.345.28-.625.625-.625ZM2.5 15c0-.345.28-.625.625-.625h2.5a.625.625 0 1 1 0 1.25h-2.5A.625.625 0 0 1 2.5 15Z" clip-rule="evenodd"/>
  <path fill-rule="evenodd" d="M4.375 12.5c.345 0 .625.28.625.625v1.586a.625.625 0 1 1-1.25 0v-1.586c0-.345.28-.625.625-.625Z" clip-rule="evenodd"/>
  <path fill-rule="evenodd" d="M5.683 4.375c-.342 0-.683.31-.683.755v1.845a.625.625 0 0 1-1.25 0V5.13c0-1.072.838-2.005 1.933-2.005h8.634c1.095 0 1.933.933 1.933 2.005v11.615c0 1.072-.838 2.005-1.933 2.005H5.683c-1.012 0-1.933-.722-1.933-1.875a.625.625 0 1 1 1.25 0c0 .364.258.625.683.625h8.634c.342 0 .683-.31.683-.755V5.13c0-.445-.34-.755-.683-.755H5.683Z" clip-rule="evenodd"/>
  <path fill-rule="evenodd" d="M5 1.875c0-.345.267-.625.597-.625h10.361c1.174 0 2.167.979 2.167 2.218v13.407a.611.611 0 0 1-.597.625.611.611 0 0 1-.596-.625V3.468a.977.977 0 0 0-.974-.968H5.597A.611.611 0 0 1 5 1.875Z" clip-rule="evenodd"/>
  <path fill-rule="evenodd" d="M7.5 7.5c0-.345.28-.625.625-.625H12.5a.625.625 0 1 1 0 1.25H8.125A.625.625 0 0 1 7.5 7.5Zm0 2.5c0-.345.28-.625.625-.625H12.5a.625.625 0 1 1 0 1.25H8.125A.625.625 0 0 1 7.5 10Zm0 2.5c0-.345.28-.625.625-.625H12.5a.625.625 0 1 1 0 1.25H8.125A.625.625 0 0 1 7.5 12.5Z" clip-rule="evenodd"/>
</svg>
