<svg xmlns="http://www.w3.org/2000/svg" width="20" height="20" fill="currentColor" viewBox="0 0 20 20">
  <path fill-rule="evenodd" d="M5 3.435c0-.525.42-.935.901-.935h10.073c.48 0 .901.41.901.935v13.13c0 .525-.42.935-.901.935H5.9c-.48 0-.901-.41-.901-.935v-.347a.625.625 0 1 0-1.25 0v.347c0 1.19.955 2.185 2.151 2.185h10.073c1.196 0 2.151-.996 2.151-2.185V3.435c0-1.19-.955-2.185-2.151-2.185H5.9c-1.196 0-2.151.996-2.151 2.185V5h-.625a.625.625 0 1 0 0 1.25h2.5a.625.625 0 1 0 0-1.25H5V3.435Zm-1.875 5.94a.625.625 0 1 0 0 1.25h2.5a.625.625 0 1 0 0-1.25H5V7.5a.625.625 0 1 0-1.25 0v1.875h-.625Zm0 4.375a.625.625 0 1 0 0 1.25h2.5a.625.625 0 1 0 0-1.25H5v-1.875a.625.625 0 1 0-1.25 0v1.875h-.625Z" clip-rule="evenodd"/>
</svg>
