<svg xmlns="http://www.w3.org/2000/svg" width="20" height="20" fill="currentColor" viewBox="0 0 20 20">
  <path fill-rule="evenodd" d="M6.25 1.25a.625.625 0 1 0 0 1.25h9.77c.425 0 .855.394.855.968v13.407a.625.625 0 1 0 1.25 0V3.468c0-1.177-.904-2.218-2.105-2.218H6.25ZM5.058 5a.694.694 0 0 0-.683.695v1.18H5a.625.625 0 1 1 0 1.25H2.5a.625.625 0 1 1 0-1.25h.625v-1.18c0-1.065.864-1.945 1.933-1.945h8.634c1.069 0 1.933.88 1.933 1.945v11.11a1.944 1.944 0 0 1-1.933 1.945H5.058c-.985 0-1.933-.676-1.933-1.82a.625.625 0 0 1 1.25 0c0 .305.23.57.683.57h8.634c.368 0 .683-.31.683-.695V5.695A.694.694 0 0 0 13.692 5H5.058Zm-3.183 6.25c0-.345.28-.625.625-.625h.625v-1.25a.625.625 0 1 1 1.25 0v1.25H5a.625.625 0 1 1 0 1.25H2.5a.625.625 0 0 1-.625-.625Zm0 3.75c0-.345.28-.625.625-.625h.625v-1.25a.625.625 0 1 1 1.25 0v1.25H5a.625.625 0 1 1 0 1.25H2.5A.625.625 0 0 1 1.875 15Z" clip-rule="evenodd"/>
</svg>
