<svg xmlns="http://www.w3.org/2000/svg" width="20" height="20" fill="none" viewBox="0 0 20 20">
  <path fill="#3D3C3C" fill-rule="evenodd" d="M3.75 3.435c0-.525.42-.935.901-.935h10.073c.48 0 .901.41.901.935v2.19a.625.625 0 1 0 1.25 0v-2.19c0-1.19-.955-2.185-2.151-2.185H4.65c-1.196 0-2.151.996-2.151 2.185V5h-.625a.625.625 0 1 0 0 1.25h2.5a.625.625 0 1 0 0-1.25H3.75V3.435Zm0 12.783a.625.625 0 1 0-1.25 0v.347c0 1.19.955 2.185 2.151 2.185H7.5a.625.625 0 1 0 0-1.25H4.651c-.48 0-.901-.41-.901-.935v-.347ZM1.875 9.375a.625.625 0 1 0 0 1.25h2.5a.625.625 0 1 0 0-1.25H3.75V7.5a.625.625 0 1 0-1.25 0v1.875h-.625Zm0 4.375a.625.625 0 1 0 0 1.25h2.5a.625.625 0 1 0 0-1.25H3.75v-1.875a.625.625 0 1 0-1.25 0v1.875h-.625Zm12.582-5.92a.625.625 0 0 1 .84-.259l2.188 1.145c.304.16.423.535.265.84l-.395.765c.198.26.366.539.503.83l.921.044c.334.015.596.29.596.624v2.396a.625.625 0 0 1-.605.625l-.809.026a4.516 4.516 0 0 1-.197.423l-.002.004a5.05 5.05 0 0 1-.247.407l.494.85a.625.625 0 0 1-.234.859l-2.243 1.26a.626.626 0 0 1-.866-.266l-.364-.733a4.43 4.43 0 0 1-.874.025l-.385.72a.625.625 0 0 1-.84.26l-2.208-1.156a.625.625 0 0 1-.26-.85l.405-.751a4.587 4.587 0 0 1-.482-.79l-.812.025a.625.625 0 0 1-.645-.605l-.076-2.5a.625.625 0 0 1 .605-.643l.808-.026a4.17 4.17 0 0 1 .2-.426 5.27 5.27 0 0 1 .24-.399l-.427-.696a.625.625 0 0 1 .202-.857l2.11-1.317a.625.625 0 0 1 .864.203l.427.694c.302-.041.61-.053.918-.03l.385-.72Zm.81 1.136-.295.55a.625.625 0 0 1-.66.322 3.17 3.17 0 0 0-1.314.045.625.625 0 0 1-.682-.28l-.324-.525-1.051.655.324.528c.14.23.119.522-.054.729a3.381 3.381 0 0 0-.627 1.18.625.625 0 0 1-.578.444l-.612.02.037 1.25.614-.02a.625.625 0 0 1 .607.41c.155.423.388.81.697 1.14a.625.625 0 0 1 .093.724l-.306.567 1.097.574.295-.55a.625.625 0 0 1 .66-.321c.44.078.89.06 1.314-.045.284-.07.58.066.71.329l.281.566 1.117-.628-.383-.659a.625.625 0 0 1 .062-.715 3.382 3.382 0 0 0 .627-1.18.625.625 0 0 1 .578-.445l.631-.02v-1.196l-.72-.034a.625.625 0 0 1-.557-.41 3.348 3.348 0 0 0-.697-1.14.625.625 0 0 1-.098-.714l.3-.582-1.086-.569Zm-.58 4.159a.937.937 0 1 1-1.874 0 .937.937 0 0 1 1.874 0Zm1.25 0a2.188 2.188 0 1 1-4.375 0 2.188 2.188 0 0 1 4.376 0Z" clip-rule="evenodd"/>
</svg>
