<svg xmlns="http://www.w3.org/2000/svg" width="20" height="20" fill="none" viewBox="0 0 20 20">
  <path fill="#3D3C3C" fill-rule="evenodd" d="M1.25 3.75c0-1.036.84-1.875 1.875-1.875h13.75c1.035 0 1.875.84 1.875 1.875v4.375a.625.625 0 1 1-1.25 0V3.75a.625.625 0 0 0-.625-.625H3.125a.625.625 0 0 0-.625.625V15c0 .345.28.625.625.625h5a.625.625 0 1 1 0 1.25h-5A1.875 1.875 0 0 1 1.25 15V3.75ZM14.375 10a4.375 4.375 0 1 0 0 8.75 4.375 4.375 0 0 0 0-8.75Zm-3.125 4.375a3.125 3.125 0 1 1 6.25 0 3.125 3.125 0 0 1-6.25 0Zm4.887-.891a.625.625 0 1 0-1.024-.718l-1.239 1.768-.236-.34a.625.625 0 1 0-1.026.715l.748 1.073a.625.625 0 0 0 1.025.002l1.752-2.5ZM4.375 5a.625.625 0 1 0 0 1.25h6.25a.625.625 0 1 0 0-1.25h-6.25ZM3.75 8.125c0-.345.28-.625.625-.625h5a.625.625 0 1 1 0 1.25h-5a.625.625 0 0 1-.625-.625ZM4.375 10a.625.625 0 1 0 0 1.25h2.813a.625.625 0 1 0 0-1.25H4.374Z" clip-rule="evenodd"/>
</svg>
