<svg xmlns="http://www.w3.org/2000/svg" width="20" height="20" fill="currentColor" viewBox="0 0 20 20">
  <path d="M1.875 1.875c.345 0 .625.28.625.625v14.375h15a.625.625 0 1 1 0 1.25H1.875a.625.625 0 0 1-.625-.625v-15c0-.345.28-.625.625-.625Zm5.313 7.5a3.437 3.437 0 1 1 0 6.875 3.437 3.437 0 0 1 0-6.875Zm6.562 2.5a1.875 1.875 0 1 1 0 3.75 1.875 1.875 0 0 1 0-3.75Zm-6.563-1.25a2.188 2.188 0 1 0 0 4.375 2.188 2.188 0 0 0 0-4.375Zm6.563 2.5a.625.625 0 1 0 0 1.25.625.625 0 0 0 0-1.25Zm-.313-11.25a4.062 4.062 0 1 1 0 8.125 4.062 4.062 0 0 1 0-8.125Zm0 1.25a2.813 2.813 0 1 0 0 5.625 2.813 2.813 0 0 0 0-5.625Zm-7.812 1.25a1.875 1.875 0 1 1 0 3.75 1.875 1.875 0 0 1 0-3.75Zm0 1.25a.625.625 0 1 0 0 1.25.625.625 0 0 0 0-1.25Z"/>
</svg>
