<svg xmlns="http://www.w3.org/2000/svg" width="20" height="20" fill="currentColor" viewBox="0 0 20 20">
  <path d="M6.75 4a.625.625 0 0 1 0 1.25h-.625v.987c.724.744 1.528 2.007 1.789 3.432.144.792.124 1.651-.19 2.498-.285.77-.803 1.495-1.599 2.137v3.446h.625a.625.625 0 0 1 0 1.25h-2.5a.625.625 0 1 1 0-1.25h.625v-3.445c-.796-.643-1.314-1.368-1.6-2.138-.313-.847-.333-1.706-.189-2.498.26-1.425 1.065-2.689 1.79-3.433V5.25H4.25a.625.625 0 1 1 0-1.25h2.5Zm5.625 0a.625.625 0 0 1 0 1.25h-.625v3.487c.724.744 1.528 2.007 1.789 3.432.144.792.124 1.651-.19 2.498-.285.77-.803 1.495-1.599 2.137v.946h.625a.625.625 0 0 1 0 1.25h-2.5a.625.625 0 1 1 0-1.25h.625v-.945c-.796-.643-1.314-1.368-1.6-2.138-.313-.847-.333-1.706-.189-2.498.26-1.425 1.065-2.689 1.79-3.433V5.25h-.626a.625.625 0 1 1 0-1.25h2.5ZM18 4a.625.625 0 0 1 0 1.25h-.625v.987c.724.744 1.528 2.007 1.788 3.432.145.792.125 1.651-.189 2.498-.285.77-.803 1.495-1.599 2.137v3.446H18A.625.625 0 0 1 18 19h-2.5a.625.625 0 1 1 0-1.25h.625v-3.445c-.796-.643-1.314-1.368-1.6-2.138-.313-.847-.333-1.706-.189-2.498.26-1.425 1.065-2.689 1.79-3.433V5.25H15.5a.625.625 0 1 1 0-1.25H18Zm-8.073 9.688c.033.183.08.365.146.544.182.493.51.993 1.052 1.468.543-.475.87-.976 1.052-1.468a3.14 3.14 0 0 0 .146-.544H9.927Zm-5.625-2.5c.033.183.08.365.146.544.182.493.51.993 1.052 1.468.543-.475.87-.976 1.052-1.468a3.14 3.14 0 0 0 .146-.544H4.302Zm11.25 0c.033.183.08.365.146.544.182.493.51.993 1.052 1.468.543-.475.87-.976 1.052-1.468a3.14 3.14 0 0 0 .146-.544h-2.396Zm-4.427-1.276c-.498.61-1.007 1.51-1.184 2.482l-.007.043h2.382l-.007-.043c-.177-.972-.685-1.872-1.184-2.482ZM5.5 7.412c-.498.61-1.007 1.51-1.184 2.482l-.007.043h2.382l-.007-.043c-.178-.972-.685-1.872-1.184-2.482Zm11.25 0c-.498.61-1.007 1.51-1.184 2.482l-.007.043h2.382l-.007-.043c-.178-.972-.685-1.872-1.184-2.482Z"/>
</svg>
