<svg xmlns="http://www.w3.org/2000/svg" width="20" height="20" fill="currentColor" viewBox="0 0 20 20">
  <path d="M1.875 1.875c.345 0 .625.28.625.625v14.375h15a.625.625 0 1 1 0 1.25H1.875a.625.625 0 0 1-.625-.625v-15c0-.345.28-.625.625-.625ZM5.625 12.5a1.875 1.875 0 1 1 0 3.75 1.875 1.875 0 0 1 0-3.75Zm8.125-.625a1.875 1.875 0 1 1 0 3.75 1.875 1.875 0 0 1 0-3.75ZM5.625 13.75a.625.625 0 1 0 0 1.25.625.625 0 0 0 0-1.25Zm8.125-.625a.625.625 0 1 0 0 1.25.625.625 0 0 0 0-1.25ZM11.25 7.5a1.875 1.875 0 1 1 0 3.75 1.875 1.875 0 0 1 0-3.75ZM5.625 6.25a1.875 1.875 0 1 1 0 3.75 1.875 1.875 0 0 1 0-3.75Zm5.625 2.5a.625.625 0 1 0 0 1.25.625.625 0 0 0 0-1.25ZM5.625 7.5a.625.625 0 1 0 0 1.25.625.625 0 0 0 0-1.25Zm10-4.375a1.875 1.875 0 1 1 0 3.75 1.875 1.875 0 0 1 0-3.75Zm0 1.25a.625.625 0 1 0 0 1.25.625.625 0 0 0 0-1.25Z"/>
</svg>
