<svg xmlns="http://www.w3.org/2000/svg" width="20" height="20" fill="currentColor" viewBox="0 0 20 20">
  <path d="M3.125 1.25c.345 0 .625.28.625.625H15c.345 0 .625.28.625.625v3.125c0 .345-.28.625-.625.625H9.375v2.5c0 .345-.28.625-.625.625h-5v1.25h13.125c.345 0 .625.28.625.625v3.125c0 .345-.28.625-.625.625H12.5v2.5c0 .345-.28.625-.625.625H3.75a.625.625 0 1 1-1.25 0V1.875c0-.345.28-.625.625-.625Zm.625 15.625h7.5V15h-7.5v1.875Zm0-5v1.875h12.5v-1.875H3.75Zm0-3.75h4.375V6.25H3.75v1.875ZM3.75 5h10.625V3.125H3.75V5Z"/>
</svg>
