<svg xmlns="http://www.w3.org/2000/svg" width="20" height="20" fill="currentColor" viewBox="0 0 20 20">
  <path d="M8.25 2c1.036 0 1.875.84 1.875 1.875v13.75c0 1.035-.84 1.875-1.875 1.875H3.875A1.875 1.875 0 0 1 2 17.625V3.875C2 2.839 2.84 2 3.875 2H8.25Zm9.375 9.375c1.035 0 1.875.84 1.875 1.875v4.375c0 1.035-.84 1.875-1.875 1.875H13.25a1.875 1.875 0 0 1-1.875-1.875V13.25c0-1.036.84-1.875 1.875-1.875h4.375ZM3.875 3.25a.625.625 0 0 0-.625.625v13.75c0 .345.28.625.625.625H8.25c.345 0 .625-.28.625-.625V3.875a.625.625 0 0 0-.625-.625H3.875Zm8.75 14.375c0 .345.28.625.625.625h4.375c.345 0 .625-.28.625-.625V17h-5.625v.625Zm.625-5a.625.625 0 0 0-.625.625v2.5h5.625v-2.5a.625.625 0 0 0-.625-.625H13.25ZM17.625 2c1.035 0 1.875.84 1.875 1.875V8.25c0 1.036-.84 1.875-1.875 1.875H13.25a1.875 1.875 0 0 1-1.875-1.875V3.875c0-1.036.84-1.875 1.875-1.875h4.375ZM15.75 8.875h1.875c.345 0 .625-.28.625-.625V3.875a.625.625 0 0 0-.625-.625H15.75v5.625Zm-2.5-5.625a.625.625 0 0 0-.625.625V8.25c0 .345.28.625.625.625h1.25V3.25h-1.25Z"/>
</svg>
