<svg xmlns="http://www.w3.org/2000/svg" width="20" height="20" fill="currentColor" viewBox="0 0 20 20">
  <path d="M6.75 4a.625.625 0 1 1 0 1.25h-.625v1.875h1.25c.345 0 .625.28.625.625v7.5c0 .345-.28.625-.625.625h-1.25v1.875h.625a.625.625 0 1 1 0 1.25h-2.5a.625.625 0 1 1 0-1.25h.625v-1.875h-1.25A.625.625 0 0 1 3 15.25v-7.5c0-.345.28-.625.625-.625h1.25V5.25H4.25a.625.625 0 1 1 0-1.25h2.5Zm5.625 0a.625.625 0 1 1 0 1.25h-.625v1.875H13c.345 0 .625.28.625.625v5.625c0 .345-.28.625-.625.625h-1.25v3.75h.625a.625.625 0 1 1 0 1.25h-2.5a.625.625 0 1 1 0-1.25h.625V14H9.25a.625.625 0 0 1-.625-.625V7.75c0-.345.28-.625.625-.625h1.25V5.25h-.625a.625.625 0 1 1 0-1.25h2.5ZM18 4a.625.625 0 1 1 0 1.25h-.625v.625h1.25c.345 0 .625.28.625.625v10c0 .345-.28.625-.625.625h-1.25v.625H18A.625.625 0 1 1 18 19h-2.5a.625.625 0 1 1 0-1.25h.625v-.625h-1.25a.625.625 0 0 1-.625-.625v-10c0-.345.28-.625.625-.625h1.25V5.25H15.5a.625.625 0 1 1 0-1.25H18Zm-2.5 11.875H18v-8.75h-2.5v8.75Zm-11.25-1.25h2.5v-6.25h-2.5v6.25Zm5.625-1.875h2.5V8.375h-2.5v4.375Z"/>
</svg>
