<svg xmlns="http://www.w3.org/2000/svg" width="20" height="20" fill="currentColor" viewBox="0 0 20 20">
  <path d="M2.625 3c.345 0 .625.28.625.625v6.038l4.348-2.812.052-.03a.625.625 0 0 1 .779.167l2.943 3.747 3.885-4.994.046-.053a.626.626 0 0 1 .922.03L18.1 7.907l.039.051a.625.625 0 0 1-.945.809l-.044-.047-1.377-1.607-3.905 5.022a.625.625 0 0 1-.984.003L7.798 8.209 3.25 11.152V15.1l2.647-3.128.04-.043a.625.625 0 0 1 .769-.083l4.611 2.88 4.027-3.45.044-.036a.626.626 0 0 1 .762.03l1.875 1.562.047.044a.626.626 0 0 1-.796.955l-.051-.038-1.47-1.225-3.974 3.407a.625.625 0 0 1-.737.055l-4.541-2.839-3.088 3.65a.622.622 0 0 1-.165.135V18h15a.625.625 0 1 1 0 1.25H2.625A.625.625 0 0 1 2 18.625v-15C2 3.28 2.28 3 2.625 3Z"/>
</svg>
