<svg xmlns="http://www.w3.org/2000/svg" width="20" height="20" fill="currentColor" viewBox="0 0 20 20">
  <path d="M14.375 2.5c.345 0 .625.28.625.625V7.5h2.5c.345 0 .625.28.625.625v8.125a.625.625 0 1 1 0 1.25H1.875a.625.625 0 1 1 0-1.25V5c0-.345.28-.625.625-.625h3.125c.345 0 .625.28.625.625v5.625h2.5c.345 0 .625.28.625.625v5h1.25V3.125c0-.345.28-.625.625-.625h3.125ZM3.125 16.25H5V5.625H3.125V16.25Zm3.125 0h1.875v-4.375H6.25v4.375Zm8.75 0h1.875v-7.5H15v7.5Zm-3.125-12.5v12.5h1.875V3.75h-1.875Z"/>
</svg>
