<svg xmlns="http://www.w3.org/2000/svg" width="20" height="20" fill="currentColor" viewBox="0 0 20 20">
  <path d="M2.5 1.25c.345 0 .625.28.625.625H13.75c.345 0 .625.28.625.625v3.75c0 .345-.28.625-.625.625H3.125V7.5h6.25c.345 0 .625.28.625.625v3.75c0 .345-.28.625-.625.625h-6.25v.625h13.75l.064.003a.626.626 0 0 1 .561.622v3.75c0 .345-.28.625-.625.625H3.125a.625.625 0 1 1-1.25 0V1.875c0-.345.28-.625.625-.625Zm.625 15.625H16.25v-2.5H3.125v2.5Zm0-5.625H8.75v-2.5H3.125v2.5Zm0-5.625h10v-2.5h-10v2.5Z"/>
</svg>
