<svg xmlns="http://www.w3.org/2000/svg" width="20" height="20" fill="currentColor" viewBox="0 0 20 20">
  <path d="M10.75 2a8.75 8.75 0 1 1-7.47 4.192.626.626 0 0 1 .059-.14.621.621 0 0 1 .121-.142A8.741 8.741 0 0 1 10.75 2ZM5.908 16.475a7.463 7.463 0 0 0 4.217 1.747v-2.513a4.972 4.972 0 0 1-2.441-1.01l-1.776 1.776ZM14.7 7.684a4.996 4.996 0 0 1-3.324 8.025v2.513a7.499 7.499 0 0 0 6.875-7.472c0-1.846-.67-3.535-1.775-4.842L14.7 7.684ZM4.116 7.249a7.467 7.467 0 0 0-.866 3.501c0 1.846.669 3.534 1.774 4.84l1.777-1.775A4.977 4.977 0 0 1 5.75 10.75c0-.795.185-1.546.515-2.213L4.116 7.25ZM10.75 7A3.748 3.748 0 0 0 7 10.75a3.748 3.748 0 0 0 3.75 3.75 3.748 3.748 0 0 0 3.75-3.75A3.748 3.748 0 0 0 10.75 7Zm0-3.75a7.486 7.486 0 0 0-5.958 2.946l2.163 1.298A4.987 4.987 0 0 1 10.75 5.75c1.156 0 2.219.392 3.065 1.05l1.776-1.776A7.467 7.467 0 0 0 10.75 3.25Z"/>
</svg>
