<svg xmlns="http://www.w3.org/2000/svg" width="20" height="20" fill="currentColor" viewBox="0 0 20 20">
  <path d="M2.625 3c.345 0 .625.28.625.625V18h15a.625.625 0 1 1 0 1.25H2.625A.625.625 0 0 1 2 18.625v-15C2 3.28 2.28 3 2.625 3Zm15.026 1.877a.625.625 0 0 1 .671.623v2.083a.625.625 0 0 1-1.25 0v-.412c-.783 1.197-1.514 2.956-1.635 5.237-.061 1.139-.295 2.06-.659 2.697-.35.613-.949 1.147-1.721.977-.697-.153-1.166-.821-1.455-1.603-.303-.824-.485-1.973-.485-3.446 0-1.153-.236-1.884-.51-2.283-.258-.377-.52-.434-.722-.393-.248.05-.614.29-.933.892-.313.59-.546 1.476-.546 2.66 0 2.664-.877 4.092-1.905 4.82a3.554 3.554 0 0 1-1.83.643 2.464 2.464 0 0 1-.184.002l-.015-.001h-.01a.625.625 0 0 1 .076-1.248h.005c.013 0 .036 0 .067-.002.064-.003.163-.012.284-.035a2.3 2.3 0 0 0 .886-.38c.613-.433 1.376-1.425 1.376-3.8 0-1.337.262-2.434.692-3.244.423-.798 1.048-1.381 1.79-1.531.787-.16 1.516.205 2 .91.469.683.73 1.697.73 2.99 0 1.385.172 2.375.407 3.015.251.68.506.803.55.813.002.001.021.009.077-.027.068-.043.174-.143.29-.347.234-.41.442-1.119.496-2.145.142-2.648 1.029-4.696 1.987-6.076l-.732.066a.626.626 0 0 1-.112-1.245l2.163-.197a.627.627 0 0 1 .157-.013Z"/>
</svg>
