<svg xmlns="http://www.w3.org/2000/svg" width="20" height="20" fill="currentColor" viewBox="0 0 20 20">
  <path d="M2.5 1.25c.345 0 .625.28.625.625h8.125c.345 0 .625.28.625.625v3.75c0 .345-.28.625-.625.625H3.125V7.5H13.75c.345 0 .625.28.625.625v3.75c0 .345-.28.625-.625.625H3.125v.625h13.75c.345 0 .625.28.625.625v3.75c0 .345-.28.625-.625.625H3.125a.625.625 0 1 1-1.25 0V1.875c0-.345.28-.625.625-.625Zm5 15.625h8.75v-2.5H7.5v2.5Zm-4.375 0H6.25v-2.5H3.125v2.5Zm0-5.625h6.25v-2.5h-6.25v2.5Zm7.5 0h2.5v-2.5h-2.5v2.5Zm-7.5-5.625H6.25v-2.5H3.125v2.5Zm4.375 0h3.125v-2.5H7.5v2.5Z"/>
</svg>
