<svg xmlns="http://www.w3.org/2000/svg" width="20" height="20" fill="currentColor" viewBox="0 0 20 20">
  <path fill-rule="evenodd" d="M17.5 2.5c.345 0 .625.28.625.625V16.25a.625.625 0 1 1 0 1.25H1.875a.625.625 0 1 1 0-1.25V8.125c0-.345.28-.625.625-.625h3.75c.345 0 .625.28.625.625v8.125H7.5V5.625c0-.345.28-.625.625-.625h3.75c.345 0 .625.28.625.625V16.25h.625V3.125c0-.345.28-.625.625-.625h3.75ZM3.125 16.25h2.5v-3.125h-2.5v3.125Zm5.625 0h2.5V10h-2.5v6.25Zm5.625-3.125v3.125h2.5v-3.125h-2.5Zm0-1.25h2.5V3.75h-2.5v8.125Zm-11.25 0h2.5V8.75h-2.5v3.125ZM8.75 8.75h2.5v-2.5h-2.5v2.5Z" clip-rule="evenodd"/>
</svg>
