<svg xmlns="http://www.w3.org/2000/svg" width="20" height="20" fill="currentColor" viewBox="0 0 20 20">
  <path d="M2.625 3c.345 0 .625.28.625.625V18h15a.625.625 0 1 1 0 1.25H2.625A.625.625 0 0 1 2 18.625v-15C2 3.28 2.28 3 2.625 3ZM17 7.063a1.875 1.875 0 1 1-.76 3.586l-1.922 1.863c.116.243.182.514.182.8a1.875 1.875 0 1 1-3.665-.561l-1.362-1.145a1.865 1.865 0 0 1-1.987.292l-2.502 3.06a.626.626 0 0 1-.968-.791l2.562-3.134a1.875 1.875 0 1 1 3.547-.846c0 .106-.011.21-.028.31l1.49 1.254a1.866 1.866 0 0 1 1.85-.126l1.894-1.835A1.875 1.875 0 0 1 17 7.062Zm-4.375 5.625a.625.625 0 1 0 0 1.25.625.625 0 0 0 0-1.25ZM8.25 9.562a.625.625 0 1 0 0 1.25.625.625 0 0 0 0-1.25ZM17 8.313a.625.625 0 1 0 0 1.25.625.625 0 0 0 0-1.25Z"/>
</svg>
