<svg xmlns="http://www.w3.org/2000/svg" width="20" height="20" fill="currentColor" viewBox="0 0 20 20">
  <path d="M10.833 14.526c.847-.314 1.706-.334 2.498-.19 1.425.26 2.688 1.066 3.432 1.79h.987V15.5a.625.625 0 1 1 1.25 0V18a.625.625 0 0 1-1.25 0v-.625h-.988c-.744.724-2.007 1.528-3.43 1.788-.793.145-1.652.125-2.499-.189-.77-.285-1.496-.803-2.138-1.599H5.25V18A.625.625 0 0 1 4 18v-2.5a.625.625 0 1 1 1.25 0v.625h3.444c.643-.796 1.369-1.314 2.139-1.6Zm.98 1.026a3.14 3.14 0 0 0-.545.146c-.493.182-.993.51-1.468 1.052.475.543.976.87 1.468 1.052.179.067.361.112.544.145v-2.395Zm1.25 2.389.043-.007c.972-.178 1.872-.685 2.482-1.184-.61-.498-1.51-1.007-2.482-1.184l-.043-.007v2.382ZM8.332 8.9c.847-.314 1.706-.334 2.498-.19 1.425.26 2.688 1.066 3.432 1.79h3.487v-.626a.625.625 0 1 1 1.25 0v2.5a.625.625 0 0 1-1.25 0v-.625h-3.488c-.744.724-2.007 1.528-3.43 1.789-.793.144-1.652.124-2.499-.19-.77-.285-1.496-.803-2.138-1.599H5.25v.625a.625.625 0 0 1-1.25 0v-2.5a.625.625 0 1 1 1.25 0v.625h.944c.643-.796 1.369-1.314 2.139-1.6Zm.98 1.026c-.184.033-.366.08-.545.146-.492.182-.993.51-1.468 1.052.475.543.976.87 1.468 1.052.179.066.361.112.544.145V9.927Zm1.25 2.389.043-.007c.972-.177 1.872-.685 2.482-1.184-.61-.498-1.51-1.007-2.482-1.184l-.043-.007v2.382Zm.27-9.04c.847-.314 1.706-.334 2.498-.19 1.425.26 2.688 1.066 3.432 1.79h.987V4.25a.625.625 0 1 1 1.25 0v2.5a.625.625 0 0 1-1.25 0v-.625h-.988c-.744.724-2.007 1.528-3.43 1.789-.793.144-1.652.124-2.499-.19-.77-.285-1.496-.803-2.138-1.599H5.25v.625a.625.625 0 0 1-1.25 0v-2.5a.625.625 0 1 1 1.25 0v.625h3.444c.643-.796 1.369-1.314 2.139-1.6Zm.98 1.026a3.14 3.14 0 0 0-.545.146c-.493.182-.993.51-1.468 1.052.475.543.976.87 1.468 1.052.179.067.361.112.544.145V4.302Zm1.25 2.389.043-.007c.972-.178 1.872-.685 2.482-1.184-.61-.498-1.51-1.007-2.482-1.184l-.043-.007V6.69Z"/>
</svg>
