<svg xmlns="http://www.w3.org/2000/svg" width="20" height="20" fill="currentColor" viewBox="0 0 20 20">
  <path d="M18.25 5.75c.345 0 .625.28.625.625V17a.625.625 0 1 1 0 1.25H2.625a.625.625 0 1 1 0-1.25v-3.75c0-.345.28-.625.625-.625H7c.345 0 .625.28.625.625V17h.625v-6.25c0-.345.28-.625.625-.625h3.75c.345 0 .625.28.625.625V17h.625V6.375c0-.345.28-.625.625-.625h3.75ZM3.875 17h2.5v-3.125h-2.5V17ZM9.5 17H12v-5.625H9.5V17Zm5.625 0h2.5V7h-2.5v10Zm-.938-15a1.56 1.56 0 0 1 1.563 1.563 1.56 1.56 0 0 1-1.877 1.53L11.89 7.36a1.563 1.563 0 0 1-2.894 1.185l-2.625-.292a1.556 1.556 0 0 1-1.246.622c-.028 0-.055-.003-.082-.005v.002l-1.25 2.188a.626.626 0 0 1-1.086-.62l1.215-2.128a1.557 1.557 0 0 1-.36-1A1.56 1.56 0 0 1 5.125 5.75c.768 0 1.402.55 1.535 1.277l2.356.262a1.559 1.559 0 0 1 1.983-.81l1.85-2.113A1.56 1.56 0 0 1 14.188 2Zm-3.75 5.625a.31.31 0 0 0-.312.313.31.31 0 0 0 .313.312.31.31 0 0 0 .312-.313.31.31 0 0 0-.313-.312ZM5.125 7a.31.31 0 0 0-.313.313.31.31 0 0 0 .313.312.31.31 0 0 0 .313-.313A.31.31 0 0 0 5.125 7Zm9.063-3.75a.31.31 0 0 0-.313.313.31.31 0 0 0 .313.312.31.31 0 0 0 .312-.313.31.31 0 0 0-.313-.312Z"/>
</svg>
