<svg xmlns="http://www.w3.org/2000/svg" width="20" height="20" fill="currentColor" viewBox="0 0 20 20">
  <path d="M16.5 14.25c.345 0 .625.28.625.625v1.25h.625V15.5a.625.625 0 1 1 1.25 0V18a.625.625 0 0 1-1.25 0v-.625h-.625v1.25c0 .345-.28.625-.625.625h-10a.625.625 0 0 1-.625-.625v-1.25H5.25V18A.625.625 0 0 1 4 18v-2.5a.625.625 0 1 1 1.25 0v.625h.625v-1.25c0-.345.28-.625.625-.625h10ZM7.125 18h8.75v-2.5h-8.75V18Zm8.125-9.375c.345 0 .625.28.625.625v1.25h1.875v-.625a.625.625 0 1 1 1.25 0v2.5a.625.625 0 0 1-1.25 0v-.625h-1.875V13c0 .345-.28.625-.625.625H9.625A.625.625 0 0 1 9 13v-1.25H5.25v.625a.625.625 0 0 1-1.25 0v-2.5a.625.625 0 1 1 1.25 0v.625H9V9.25c0-.345.28-.625.625-.625h5.625Zm-5 3.75h4.375v-2.5H10.25v2.5Zm5-9.375c.345 0 .625.28.625.625v1.25h1.875V4.25a.625.625 0 1 1 1.25 0v2.5a.625.625 0 0 1-1.25 0v-.625h-1.875v1.25c0 .345-.28.625-.625.625h-7.5a.625.625 0 0 1-.625-.625v-1.25H5.25v.625a.625.625 0 0 1-1.25 0v-2.5a.625.625 0 1 1 1.25 0v.625h1.875v-1.25c0-.345.28-.625.625-.625h7.5ZM8.375 6.75h6.25v-2.5h-6.25v2.5Z"/>
</svg>
