<svg xmlns="http://www.w3.org/2000/svg" width="20" height="20" fill="currentColor" viewBox="0 0 20 20">
  <path d="M10.75 9c4.783 0 8.75 3.589 8.75 8.125 0 .345-.28.625-.625.625h-3.912a.625.625 0 0 1-.625-.625c0-.92-.427-1.77-1.125-2.373l-1.954 2.736c-.006.008-.015.014-.02.022a.624.624 0 0 1-.061.068l-.023.02a.633.633 0 0 1-.071.053c-.013.009-.027.015-.04.022a.543.543 0 0 1-.064.031c-.019.008-.038.013-.058.019-.02.005-.04.012-.06.015a.526.526 0 0 1-.067.007c-.015.001-.03.005-.045.005l-.008-.001a.606.606 0 0 1-.088-.009c-.011-.002-.023-.002-.034-.005-.02-.004-.038-.01-.056-.016-.022-.007-.044-.014-.065-.023l-.019-.01a.617.617 0 0 1-.088-.05l-.005-.002c-.008-.006-.015-.015-.023-.02a.616.616 0 0 1-.068-.061l-.02-.023a.621.621 0 0 1-.053-.071c-.009-.013-.015-.027-.022-.04a.543.543 0 0 1-.031-.064c-.008-.019-.013-.038-.019-.058l-.015-.06c-.004-.023-.005-.045-.007-.067-.001-.015-.004-.03-.004-.045v-.017c0-.026.005-.052.009-.079.002-.011.002-.023.005-.034.004-.02.01-.038.016-.056a.62.62 0 0 1 .082-.172l.004-.005 1.893-2.65a3.89 3.89 0 0 0-1.384-.25c-2.03 0-3.588 1.505-3.588 3.263 0 .345-.28.625-.625.625H2.625A.625.625 0 0 1 2 17.125C2 12.589 5.967 9 10.75 9Zm-6.769 5.168a6.407 6.407 0 0 0-.699 2.332H5.96c.05-.343.141-.672.269-.984L3.98 14.168Zm11.29 1.348c.128.312.22.64.27.984h2.678a6.408 6.408 0 0 0-.701-2.332l-2.247 1.348Zm-5.146-5.24c-2.266.17-4.225 1.256-5.466 2.84l2.201 1.322c.77-.967 1.943-1.63 3.265-1.79v-2.373Zm1.25 2.372c.53.065 1.036.21 1.502.423l.49-.684a.626.626 0 0 1 1.017.726l-.443.618c.258.211.492.448.698.707l2.2-1.322c-1.24-1.583-3.198-2.67-5.464-2.84v2.372Z"/>
</svg>
