<svg xmlns="http://www.w3.org/2000/svg" width="20" height="20" fill="currentColor" viewBox="0 0 20 20">
  <path d="M3.625 2c.345 0 .625.28.625.625h8.125c.345 0 .625.28.625.625V7c0 .345-.28.625-.625.625H4.25v.625h10.625c.345 0 .625.28.625.625v3.75c0 .345-.28.625-.625.625H4.25v.625H18l.064.003a.626.626 0 0 1 .561.622v3.75c0 .345-.28.625-.625.625H4.25l-.013.126A.625.625 0 0 1 3 18.875V2.625C3 2.28 3.28 2 3.625 2Zm.625 15.625h13.125v-2.5H4.25v2.5Zm0-5.625h10V9.5h-10V12Zm0-5.625h7.5v-2.5h-7.5v2.5Z"/>
</svg>
