<svg xmlns="http://www.w3.org/2000/svg" width="20" height="20" fill="currentColor" viewBox="0 0 20 20">
  <path d="M5.785 8.125h-.32c-.258 0-.465.194-.465.431v.388c0 .237.207.431.465.431h.32c.258 0 .465-.194.465-.431v-.388c0-.237-.207-.431-.465-.431Zm4.375 0h-.32c-.258 0-.465.194-.465.431v.388c0 .237.207.431.465.431h.32c.258 0 .465-.194.465-.431v-.388c0-.237-.207-.431-.465-.431Zm4.375 0h-.32c-.258 0-.465.194-.465.431v.388c0 .237.207.431.465.431h.32c.258 0 .465-.194.465-.431v-.388c0-.237-.207-.431-.465-.431Z"/>
  <path fill-rule="evenodd" d="M1.25 5.314C1.25 3.726 2.604 2.5 4.196 2.5h11.608c1.592 0 2.946 1.226 2.946 2.814v7.112c0 .771-.295 1.436-.828 1.9-.523.455-1.227.674-1.985.674h-6.36l-3.205 2.3a.67.67 0 0 1-.03.02c-.431.275-.93.195-1.261.027-.326-.164-.706-.525-.706-1.06V15h-.313c-.756 0-1.46-.217-1.983-.671-.534-.463-.829-1.126-.829-1.898V5.314ZM4.196 3.75c-.972 0-1.696.734-1.696 1.564v7.117c0 .437.158.746.397.953.25.216.64.366 1.166.366H5c.345 0 .625.28.625.625v1.846a.194.194 0 0 0 .069.028l3.317-2.382a.625.625 0 0 1 .364-.117h6.563c.524 0 .915-.15 1.164-.368.24-.209.398-.52.398-.956V5.314c0-.83-.724-1.564-1.696-1.564H4.196Z" clip-rule="evenodd"/>
</svg>
