<svg xmlns="http://www.w3.org/2000/svg" width="20" height="20" fill="none" viewBox="0 0 20 20">
  <path fill="#3D3C3C" fill-rule="evenodd" d="M5.536 2.5c-1.445 0-2.411 1.385-2.411 2.814v.936c-1.036 0-1.875.84-1.875 1.875v1.25c0 1.036.84 1.875 1.875 1.875v1.181c0 1.43.863 2.687 2.308 2.687h.096v1.17c0 .451.252.822.56 1.024.306.2.814.312 1.238-.037a.635.635 0 0 0 .017-.015l2.413-2.142h4.81c1.447 0 2.308-1.265 2.308-2.692V11.25c1.035 0 1.875-.84 1.875-1.875v-1.25c0-1.036-.84-1.875-1.875-1.875v-.936c0-1.429-.966-2.814-2.41-2.814h-8.93Zm11.339 5V10c.345 0 .625-.28.625-.625v-1.25a.625.625 0 0 0-.625-.625ZM3.125 10V7.5a.625.625 0 0 0-.625.625v1.25c0 .345.28.625.625.625Zm1.25-4.686c0-.989.632-1.564 1.16-1.564h8.93c.528 0 1.16.575 1.16 1.564v7.112c0 .99-.53 1.442-1.058 1.442H9.52c-.153 0-.3.056-.415.157L6.78 16.09v-1.597a.625.625 0 0 0-.625-.625h-.721c-.53 0-1.058-.449-1.058-1.437V5.314ZM7.5 8.125a1.25 1.25 0 1 0 0-2.5 1.25 1.25 0 0 0 0 2.5Zm.465 1.457c.656.73 1.372 1.043 2.035 1.043s1.379-.313 2.035-1.043a.625.625 0 0 1 .93.836c-.844.937-1.878 1.457-2.965 1.457s-2.121-.52-2.965-1.457a.625.625 0 1 1 .93-.836Zm5.785-2.707a1.25 1.25 0 1 1-2.5 0 1.25 1.25 0 0 1 2.5 0Z" clip-rule="evenodd"/>
</svg>
