<svg xmlns="http://www.w3.org/2000/svg" width="20" height="20" fill="currentColor" viewBox="0 0 20 20">
  <path fill-rule="evenodd" d="M4.196 2.5C2.604 2.5 1.25 3.726 1.25 5.314v7.117c0 .772.295 1.436.829 1.898.523.454 1.227.671 1.983.671h.313v1.288c0 .534.38.895.706 1.06.332.167.83.247 1.261-.027a.67.67 0 0 0 .03-.02L9.576 15h6.361c.758 0 1.462-.22 1.985-.675.533-.463.828-1.128.828-1.9v-7.11c0-1.588-1.354-2.814-2.946-2.814H4.196ZM2.5 5.314c0-.83.724-1.564 1.696-1.564h11.608c.972 0 1.696.734 1.696 1.564v7.112c0 .437-.158.747-.398.956-.25.217-.64.368-1.165.368H9.375a.625.625 0 0 0-.364.117l-3.317 2.381a.194.194 0 0 1-.069-.028v-1.845A.625.625 0 0 0 5 13.75h-.938c-.525 0-.916-.15-1.165-.366-.24-.207-.397-.516-.397-.953V5.314Zm2.965 2.811h.32c.258 0 .465.194.465.431v.388c0 .237-.207.431-.465.431h-.32c-.258 0-.465-.194-.465-.431v-.388c0-.237.207-.431.465-.431Zm4.375 0h.32c.258 0 .465.194.465.431v.388c0 .237-.207.431-.465.431h-.32c-.258 0-.465-.194-.465-.431v-.388c0-.237.207-.431.465-.431Zm4.695 0h-.32c-.258 0-.465.194-.465.431v.388c0 .237.207.431.465.431h.32c.258 0 .465-.194.465-.431v-.388c0-.237-.207-.431-.465-.431Z" clip-rule="evenodd"/>
</svg>
