<svg xmlns="http://www.w3.org/2000/svg" width="20" height="20" fill="currentColor" viewBox="0 0 20 20">
  <path fill-rule="evenodd" d="M5 3.75h10c.69 0 1.25.56 1.25 1.25v10c0 .69-.56 1.25-1.25 1.25H5c-.69 0-1.25-.56-1.25-1.25V5c0-.69.56-1.25 1.25-1.25ZM2.5 5A2.5 2.5 0 0 1 5 2.5h10A2.5 2.5 0 0 1 17.5 5v10a2.5 2.5 0 0 1-2.5 2.5H5A2.5 2.5 0 0 1 2.5 15V5Zm11.71 2.297a.625.625 0 1 0-.92-.844l-4.696 5.122L6.71 9.521a.625.625 0 1 0-.922.845l2.344 2.556a.625.625 0 0 0 .921 0l5.157-5.625Z" clip-rule="evenodd"/>
</svg>
