<svg xmlns="http://www.w3.org/2000/svg" width="20" height="20" fill="none" viewBox="0 0 20 20">
  <path fill="#3D3C3C" fill-rule="evenodd" d="M5 3.75h10c.69 0 1.25.56 1.25 1.25v10c0 .69-.56 1.25-1.25 1.25H5c-.69 0-1.25-.56-1.25-1.25V5c0-.69.56-1.25 1.25-1.25ZM2.5 5A2.5 2.5 0 0 1 5 2.5h10A2.5 2.5 0 0 1 17.5 5v10a2.5 2.5 0 0 1-2.5 2.5H5A2.5 2.5 0 0 1 2.5 15V5Zm11.095 2.912a.625.625 0 1 0-.94-.824L8.75 11.552 7.345 9.944a.625.625 0 0 0-.94.823l1.876 2.145a.625.625 0 0 0 .94 0l4.374-5Z" clip-rule="evenodd"/>
</svg>
