<svg xmlns="http://www.w3.org/2000/svg" width="20" height="20" fill="currentColor" viewBox="0 0 20 20">
  <path fill-rule="evenodd" d="M10 2.458a7.542 7.542 0 1 0 0 15.084 7.542 7.542 0 0 0 0-15.084ZM1.208 10a8.792 8.792 0 1 1 17.584 0 8.792 8.792 0 0 1-17.584 0Z" clip-rule="evenodd"/>
  <path fill-rule="evenodd" d="M13.668 7.709a.625.625 0 0 1 0 .884l-4.515 4.515a.625.625 0 0 1-.884 0L6.332 11.17a.625.625 0 0 1 .884-.884l1.495 1.495 4.073-4.073a.625.625 0 0 1 .884 0Z" clip-rule="evenodd"/>
</svg>
