<svg xmlns="http://www.w3.org/2000/svg" width="20" height="20" fill="currentColor" viewBox="0 0 20 20">
  <mask id="a">
    <path fill-rule="evenodd" d="M10 2.5a7.5 7.5 0 1 0 0 15 7.5 7.5 0 0 0 0-15ZM1.25 10a8.75 8.75 0 1 1 17.5 0 8.75 8.75 0 0 1-17.5 0Z" clip-rule="evenodd"/>
    <path d="M15.625 10a5.625 5.625 0 1 1-11.25 0 5.625 5.625 0 0 1 11.25 0Z"/>
  </mask>
  <path fill-rule="evenodd" d="M10 2.5a7.5 7.5 0 1 0 0 15 7.5 7.5 0 0 0 0-15ZM1.25 10a8.75 8.75 0 1 1 17.5 0 8.75 8.75 0 0 1-17.5 0Z" clip-rule="evenodd"/>
  <path d="M15.625 10a5.625 5.625 0 1 1-11.25 0 5.625 5.625 0 0 1 11.25 0Z"/>
  <path d="M3.5 10A6.5 6.5 0 0 1 10 3.5v-2A8.5 8.5 0 0 0 1.5 10h2Zm6.5 6.5A6.5 6.5 0 0 1 3.5 10h-2a8.5 8.5 0 0 0 8.5 8.5v-2Zm6.5-6.5a6.5 6.5 0 0 1-6.5 6.5v2a8.5 8.5 0 0 0 8.5-8.5h-2ZM10 3.5a6.5 6.5 0 0 1 6.5 6.5h2A8.5 8.5 0 0 0 10 1.5v2Zm0-3.25A9.75 9.75 0 0 0 .25 10h2A7.75 7.75 0 0 1 10 2.25v-2ZM19.75 10A9.75 9.75 0 0 0 10 .25v2A7.75 7.75 0 0 1 17.75 10h2ZM10 19.75A9.75 9.75 0 0 0 19.75 10h-2A7.75 7.75 0 0 1 10 17.75v2ZM.25 10A9.75 9.75 0 0 0 10 19.75v-2A7.75 7.75 0 0 1 2.25 10h-2Zm14.375 0A4.625 4.625 0 0 1 10 14.625v2A6.625 6.625 0 0 0 16.625 10h-2ZM10 14.625A4.625 4.625 0 0 1 5.375 10h-2A6.625 6.625 0 0 0 10 16.625v-2ZM5.375 10A4.625 4.625 0 0 1 10 5.375v-2A6.625 6.625 0 0 0 3.375 10h2ZM10 5.375A4.625 4.625 0 0 1 14.625 10h2A6.625 6.625 0 0 0 10 3.375v2Z" mask="url(#a)"/>
</svg>
