<svg xmlns="http://www.w3.org/2000/svg" width="20" height="20" fill="none" viewBox="0 0 20 20">
  <path fill="#3D3C3C" fill-rule="evenodd" d="M8.858 1.324a8.825 8.825 0 0 1 2.284 0 .625.625 0 0 1-.162 1.24 7.578 7.578 0 0 0-1.96 0 .625.625 0 1 1-.162-1.24Zm-1.39.928a.625.625 0 0 1-.339.817 7.491 7.491 0 0 0-1.695.98.625.625 0 1 1-.761-.99A8.741 8.741 0 0 1 6.65 1.913a.625.625 0 0 1 .817.338Zm5.065 0a.625.625 0 0 1 .817-.338 8.74 8.74 0 0 1 1.977 1.144.625.625 0 1 1-.761.991 7.49 7.49 0 0 0-1.695-.98.625.625 0 0 1-.338-.817ZM3.934 4.558c.274.21.326.603.115.876a7.491 7.491 0 0 0-.98 1.695.625.625 0 0 1-1.155-.479 8.741 8.741 0 0 1 1.144-1.977.625.625 0 0 1 .876-.115Zm12.131 0a.625.625 0 0 1 .877.115 8.738 8.738 0 0 1 1.144 1.977.625.625 0 0 1-1.155.48 7.493 7.493 0 0 0-.98-1.696.625.625 0 0 1 .114-.876ZM2.026 8.32a.625.625 0 0 1 .538.7 7.578 7.578 0 0 0 0 1.961.625.625 0 0 1-1.24.162 8.824 8.824 0 0 1 0-2.284.625.625 0 0 1 .702-.539Zm15.95 0a.625.625 0 0 1 .701.539 8.825 8.825 0 0 1 0 2.284.625.625 0 0 1-1.24-.162 7.58 7.58 0 0 0 0-1.96.625.625 0 0 1 .54-.7ZM2.252 12.533a.625.625 0 0 1 .817.338 7.49 7.49 0 0 0 .98 1.694.625.625 0 0 1-.99.762 8.74 8.74 0 0 1-1.145-1.977.625.625 0 0 1 .338-.817Zm15.496 0c.319.132.47.498.338.817a8.738 8.738 0 0 1-1.144 1.977.625.625 0 1 1-.991-.761 7.49 7.49 0 0 0 .98-1.695.625.625 0 0 1 .817-.338Zm-13.19 3.533a.625.625 0 0 1 .876-.115 7.493 7.493 0 0 0 1.695.98.625.625 0 0 1-.479 1.155 8.738 8.738 0 0 1-1.977-1.144.625.625 0 0 1-.115-.877Zm10.884 0a.625.625 0 0 1-.115.876 8.738 8.738 0 0 1-1.977 1.144.625.625 0 0 1-.48-1.155 7.49 7.49 0 0 0 1.696-.98.625.625 0 0 1 .876.114Zm-7.123 1.91a.625.625 0 0 1 .7-.54 7.58 7.58 0 0 0 1.961 0 .625.625 0 1 1 .162 1.24 8.824 8.824 0 0 1-2.284 0 .625.625 0 0 1-.539-.7Z" clip-rule="evenodd"/>
</svg>
