<svg xmlns="http://www.w3.org/2000/svg" width="20" height="20" fill="currentColor" viewBox="0 0 20 20">
  <path fill-rule="evenodd" d="M10 2.5a7.5 7.5 0 1 0 0 15 7.5 7.5 0 0 0 0-15ZM1.25 10a8.75 8.75 0 1 1 17.5 0 8.75 8.75 0 0 1-17.5 0Z" clip-rule="evenodd"/>
  <path fill-rule="evenodd" d="M6.433 6.433a.625.625 0 0 1 .884 0l6.25 6.25a.625.625 0 1 1-.884.884l-6.25-6.25a.625.625 0 0 1 0-.884Z" clip-rule="evenodd"/>
  <path fill-rule="evenodd" d="M13.567 6.433a.625.625 0 0 1 0 .884l-6.25 6.25a.625.625 0 1 1-.884-.884l6.25-6.25a.625.625 0 0 1 .884 0Z" clip-rule="evenodd"/>
</svg>
