<svg xmlns="http://www.w3.org/2000/svg" width="20" height="20" fill="currentColor" viewBox="0 0 20 20">
  <path fill-rule="evenodd" d="M12.865 8.145c.515-.377 1.189-.645 2.07-.645 1.033 0 1.988.514 2.672 1.255.686.744 1.143 1.761 1.143 2.849 0 2.512-1.614 4.646-4.158 4.646h-9.59c-2.112 0-3.752-1.76-3.752-3.838 0-1.478.914-2.866 2.335-3.438.568-.228 1.16-.263 1.857-.097l.434.08a.625.625 0 0 1-.228 1.23l-.45-.084a.745.745 0 0 1-.033-.007c-.49-.118-.816-.082-1.113.038A2.483 2.483 0 0 0 2.5 12.412C2.5 13.842 3.622 15 5.002 15h9.59c1.68 0 2.908-1.387 2.908-3.396 0-.74-.314-1.462-.812-2-.5-.542-1.14-.854-1.754-.854-.605 0-1.022.178-1.33.404a.625.625 0 1 1-.739-1.009Z" clip-rule="evenodd"/>
  <path fill-rule="evenodd" d="M9.772 5C7.486 5 5.625 6.869 5.625 9.186v.189a.625.625 0 1 1-1.25 0v-.189c0-2.998 2.41-5.436 5.397-5.436 2.494 0 4.587 1.702 5.207 4.003a.625.625 0 1 1-1.207.325C13.293 6.303 11.681 5 9.771 5Z" clip-rule="evenodd"/>
</svg>
