<svg xmlns="http://www.w3.org/2000/svg" width="20" height="20" fill="currentColor" viewBox="0 0 20 20">
  <path d="M11.196 17.264a.625.625 0 1 1 .479 1.154A4.365 4.365 0 0 1 10 18.75a4.365 4.365 0 0 1-1.675-.332.625.625 0 0 1 .479-1.154c.367.152.771.236 1.196.236.425 0 .829-.084 1.196-.236ZM5.957 12.7a.625.625 0 0 1 1.155.479 3.115 3.115 0 0 0-.237 1.196c0 .425.085.829.237 1.196a.625.625 0 0 1-1.155.479 4.364 4.364 0 0 1-.332-1.675c0-.592.118-1.158.332-1.675Zm7.27-.338a.625.625 0 0 1 .816.338 4.37 4.37 0 0 1 .332 1.675 4.37 4.37 0 0 1-.332 1.675.625.625 0 0 1-1.154-.479c.152-.367.236-.771.236-1.196 0-.425-.084-.829-.236-1.196a.625.625 0 0 1 .338-.817ZM9.77 1.25c2.438 0 4.561 1.459 5.202 3.54a.62.62 0 0 1 .024.211c.998.02 1.925.496 2.599 1.188.688.708 1.154 1.684 1.154 2.735 0 1.785-.661 3.48-2.257 4.152a.626.626 0 0 1-.486-1.152c.93-.392 1.493-1.455 1.493-3 0-.68-.305-1.355-.8-1.863-.496-.51-1.14-.81-1.765-.811-.613 0-1.035.171-1.344.386a.626.626 0 0 1-.713-1.028c.26-.18.559-.333.903-.441 0-.004-.003-.007-.004-.01C13.32 3.67 11.737 2.5 9.771 2.5c-2.366 0-4.146 1.676-4.146 3.585v.165c0 .03-.005.058-.009.086l.254.045a.626.626 0 0 1-.217 1.231l-.449-.079-.031-.006c-.433-.1-.743-.085-1.017-.003l-.115.04C3.086 7.927 2.5 8.802 2.5 9.688c0 .974.602 1.838 1.495 2.218a.626.626 0 0 1-.49 1.15C2.177 12.493 1.25 11.192 1.25 9.69c0-1.433.934-2.755 2.346-3.293.253-.097.51-.154.779-.176v-.135c0-2.742 2.491-4.835 5.396-4.835ZM10 10a4.37 4.37 0 0 1 1.675.332.625.625 0 0 1-.479 1.155A3.116 3.116 0 0 0 10 11.25c-.425 0-.829.085-1.196.237a.625.625 0 0 1-.479-1.155A4.365 4.365 0 0 1 10 10Z"/>
</svg>
