<svg xmlns="http://www.w3.org/2000/svg" width="20" height="20" fill="currentColor" viewBox="0 0 20 20">
  <path fill-rule="evenodd" d="M5.634 8.913C5.774 6.723 7.576 5 9.772 5a4.148 4.148 0 0 1 3.885 2.718 3.252 3.252 0 0 0-.792.427.625.625 0 0 0 .738 1.009c.31-.226.726-.404 1.331-.404.614 0 1.254.312 1.754.853.498.54.812 1.262.812 2 0 2.01-1.229 3.397-2.908 3.397h-9.59C3.622 15 2.5 13.842 2.5 12.412c0-.97.606-1.898 1.552-2.278.297-.12.624-.156 1.113-.038a.745.745 0 0 0 .034.007l.45.084a.625.625 0 0 0 .227-1.23l-.242-.044Zm-1.244-.13c.205-2.81 2.53-5.033 5.382-5.033 2.402 0 4.431 1.578 5.132 3.75h.03c1.034 0 1.989.514 2.673 1.255.686.744 1.143 1.761 1.143 2.849 0 2.512-1.614 4.646-4.158 4.646h-9.59c-2.112 0-3.752-1.76-3.752-3.838 0-1.478.914-2.866 2.335-3.438.26-.105.526-.169.805-.191Z" clip-rule="evenodd"/>
</svg>
