<svg xmlns="http://www.w3.org/2000/svg" width="20" height="20" fill="currentColor" viewBox="0 0 20 20">
  <path fill-rule="evenodd" d="M5.86 6.455C5.987 4.253 7.796 2.516 10 2.516a4.147 4.147 0 0 1 3.854 2.636 3.253 3.253 0 0 0-.989.493.625.625 0 0 0 .738 1.009c.31-.226.726-.404 1.331-.404.614 0 1.254.312 1.754.853.498.54.812 1.262.812 2 0 2.01-1.229 3.397-2.908 3.397h-9.59c-1.38 0-2.502-1.158-2.502-2.588 0-.97.606-1.898 1.552-2.278.297-.12.624-.156 1.113-.038a.636.636 0 0 0 .034.007l.45.083a.625.625 0 0 0 .227-1.229l-.016-.002Zm8.732 7.295h-3.967v1.357c.536.189.96.615 1.146 1.152a.622.622 0 0 1 .104-.009h3.75a.625.625 0 1 1 0 1.25h-3.75a.633.633 0 0 1-.104-.009 1.876 1.876 0 0 1-3.542 0 .633.633 0 0 1-.104.009h-3.75a.625.625 0 1 1 0-1.25h3.75a.6.6 0 0 1 .104.009 1.88 1.88 0 0 1 1.146-1.152V13.75H5.002c-2.112 0-3.752-1.76-3.752-3.838 0-1.478.914-2.866 2.335-3.438.332-.133.67-.2 1.035-.2.217-2.799 2.538-5.008 5.38-5.008 2.398 0 4.425 1.574 5.129 3.74.958.06 1.837.555 2.478 1.25.686.743 1.143 1.76 1.143 2.848 0 2.512-1.614 4.646-4.158 4.646Zm-5.217 3.125a.625.625 0 1 1 1.25 0 .625.625 0 0 1-1.25 0Z" clip-rule="evenodd"/>
</svg>
