<svg xmlns="http://www.w3.org/2000/svg" width="20" height="20" fill="currentColor" viewBox="0 0 20 20">
  <path fill-rule="evenodd" d="M10 9.375c.345 0 .625.28.625.625v7.5a.625.625 0 1 1-1.25 0V10c0-.345.28-.625.625-.625Z" clip-rule="evenodd"/>
  <path fill-rule="evenodd" d="M7.058 11.692c.244.244.64.244.884 0L10 9.634l2.058 2.058a.625.625 0 1 0 .884-.884l-2.5-2.5a.625.625 0 0 0-.884 0l-2.5 2.5a.625.625 0 0 0 0 .884Zm5.807-5.422c.515-.377 1.189-.645 2.07-.645 1.033 0 1.988.514 2.672 1.255.686.744 1.143 1.761 1.143 2.849 0 1.212-.27 2.36-.887 3.222-.636.888-1.608 1.424-2.863 1.424a.625.625 0 1 1 0-1.25c.856 0 1.448-.345 1.846-.902.417-.583.654-1.446.654-2.494 0-.74-.314-1.462-.812-2-.5-.542-1.14-.854-1.754-.854-.605 0-1.022.178-1.33.404a.625.625 0 1 1-.739-1.009Zm-7.423.732.434.08a.625.625 0 1 1-.228 1.23l-.45-.084a.626.626 0 0 1-.033-.007c-.489-.118-.815-.082-1.113.038m1.39-1.257c-.698-.166-1.289-.131-1.857.097a3.733 3.733 0 0 0-2.335 3.438c0 2.078 1.64 3.838 3.752 3.838a.625.625 0 1 0 0-1.25c-1.38 0-2.502-1.158-2.502-2.588 0-.97.606-1.898 1.552-2.278" clip-rule="evenodd"/>
  <path fill-rule="evenodd" d="M9.772 3.125c-2.286 0-4.147 1.869-4.147 4.186V7.5a.625.625 0 1 1-1.25 0v-.189c0-2.998 2.41-5.436 5.397-5.436 2.494 0 4.587 1.702 5.207 4.003a.625.625 0 1 1-1.207.325c-.479-1.775-2.09-3.078-4-3.078Z" clip-rule="evenodd"/>
</svg>
