<svg xmlns="http://www.w3.org/2000/svg" width="20" height="20" fill="currentColor" viewBox="0 0 20 20">
  <path fill-rule="evenodd" d="M5.634 7.038c.14-2.19 1.942-3.913 4.138-3.913a4.148 4.148 0 0 1 3.885 2.718 3.252 3.252 0 0 0-.792.427.625.625 0 0 0 .738 1.009c.31-.226.726-.404 1.331-.404.614 0 1.254.312 1.754.853.498.54.812 1.262.812 2 0 1.05-.237 1.912-.654 2.495-.398.557-.99.902-1.846.902a.625.625 0 1 0 0 1.25c1.255 0 2.227-.536 2.863-1.424.617-.863.887-2.01.887-3.222 0-1.088-.457-2.105-1.143-2.849-.684-.74-1.64-1.255-2.673-1.255h-.03c-.7-2.172-2.73-3.75-5.132-3.75-2.851 0-5.178 2.222-5.382 5.033a2.727 2.727 0 0 0-.805.19V7.1a3.733 3.733 0 0 0-2.335 3.438c0 2.078 1.64 3.838 3.752 3.838a.625.625 0 1 0 0-1.25c-1.38 0-2.502-1.158-2.502-2.588 0-.97.606-1.898 1.552-2.278l.439-.397-.44.397c.299-.12.625-.156 1.114-.038a.626.626 0 0 0 .034.007l.45.083a.625.625 0 1 0 .227-1.229l-.242-.044Zm2.308 4.654a.625.625 0 1 1-.884-.884l2.5-2.5a.625.625 0 0 1 .884 0l2.5 2.5a.625.625 0 1 1-.884.884l-1.433-1.433V17.5a.625.625 0 1 1-1.25 0v-7.241l-1.433 1.433Z" clip-rule="evenodd"/>
</svg>
