<svg xmlns="http://www.w3.org/2000/svg" width="20" height="20" fill="currentColor" viewBox="0 0 20 20">
  <path fill-rule="evenodd" d="M12.865 5.645C13.38 5.268 14.054 5 14.935 5c1.033 0 1.988.514 2.672 1.255.686.744 1.143 1.761 1.143 2.849 0 2.512-1.614 4.646-4.158 4.646h-9.59c-2.112 0-3.752-1.76-3.752-3.838 0-1.478.914-2.866 2.335-3.438.568-.228 1.16-.263 1.857-.097l.434.08a.625.625 0 1 1-.228 1.23l-.45-.084a.626.626 0 0 1-.033-.007c-.49-.118-.816-.082-1.113.038A2.483 2.483 0 0 0 2.5 9.912c0 1.43 1.122 2.588 2.502 2.588h9.59c1.68 0 2.908-1.387 2.908-3.396 0-.74-.314-1.462-.812-2-.5-.542-1.14-.854-1.754-.854-.605 0-1.022.178-1.33.404a.625.625 0 1 1-.739-1.009Z" clip-rule="evenodd"/>
  <path fill-rule="evenodd" d="M10 2.516c-2.286 0-4.147 1.869-4.147 4.187v.188a.625.625 0 1 1-1.25 0v-.188c0-2.999 2.41-5.437 5.397-5.437 2.494 0 4.587 1.702 5.207 4.003a.625.625 0 1 1-1.208.325C13.521 3.82 11.91 2.516 10 2.516Zm0 9.984c.345 0 .625.28.625.625v2.13a.625.625 0 0 1-1.25 0v-2.13c0-.345.28-.625.625-.625Zm-6.25 4.375c0-.345.28-.625.625-.625h3.75a.625.625 0 1 1 0 1.25h-3.75a.625.625 0 0 1-.625-.625Zm7.5 0c0-.345.28-.625.625-.625h3.75a.625.625 0 1 1 0 1.25h-3.75a.625.625 0 0 1-.625-.625Z" clip-rule="evenodd"/>
  <path fill-rule="evenodd" d="M10 16.25a.625.625 0 1 0 0 1.25.625.625 0 0 0 0-1.25Zm1.875.625a1.875 1.875 0 1 1-3.75 0 1.875 1.875 0 0 1 3.75 0Z" clip-rule="evenodd"/>
</svg>
