<svg xmlns="http://www.w3.org/2000/svg" width="20" height="20" fill="currentColor" viewBox="0 0 20 20">
  <path d="M9.963 8.753a.621.621 0 0 1 .07.007l.049.011a.618.618 0 0 1 .07.023l.022.007 4.366 1.87c.018.008.034.018.05.027.02.01.039.018.056.03.024.015.045.034.066.052l.026.022a.645.645 0 0 1 .012.011l.014.018c.013.015.027.03.039.047.004.006.01.011.014.018l.007.01.011.019a.633.633 0 0 1 .046.089c.007.017.01.035.017.053.005.02.013.04.017.06.004.02.005.042.007.063l.004.043.002.017v4.997a.622.622 0 0 1-.013.125c-.003.014-.008.027-.012.041a.583.583 0 0 1-.022.071l-.023.046c-.01.021-.02.043-.034.063a.623.623 0 0 1-.05.063c-.008.01-.014.02-.023.029a.624.624 0 0 1-.211.142l-4.364 1.871-.03.01a.618.618 0 0 1-.054.017l-.038.012-.012.001-.01.001c-.02.004-.041.005-.062.006-.014.001-.028.004-.041.004l-.001.001-.013-.002h-.006c-.019 0-.037-.004-.056-.006-.016-.002-.033-.002-.048-.005-.006 0-.012-.003-.018-.005a.423.423 0 0 1-.058-.017l-.038-.012-.025-.012-.018-.006-3.75-1.875c-.01-.006-.02-.015-.03-.02a.644.644 0 0 1-.102-.073.613.613 0 0 1-.19-.304c-.005-.019-.01-.038-.013-.058a.627.627 0 0 1-.007-.073c0-.01-.003-.021-.003-.032v-5.017a.625.625 0 0 1 .018-.13l.01-.03a.604.604 0 0 1 .032-.088l.006-.014.007-.012a.615.615 0 0 1 .103-.143l.018-.018a.629.629 0 0 1 .103-.08l.037-.02.011-.007 3.75-1.875.021-.008a.623.623 0 0 1 .179-.051.617.617 0 0 1 .063-.006l.052.002Zm.59 4.783v3.64l3.125-1.338v-3.64l-3.125 1.338Zm-3.75 2.328 2.5 1.25v-3.602l-2.5-1.25v3.602ZM10 1.25c2.398 0 4.423 1.573 5.127 3.74.959.058 1.838.555 2.48 1.25.685.743 1.143 1.76 1.143 2.847 0 1.553-.447 3.027-1.52 3.898a.625.625 0 0 1-.787-.97c.66-.537 1.057-1.564 1.057-2.928 0-.739-.314-1.461-.811-2-.5-.541-1.14-.853-1.754-.854-.605 0-1.023.179-1.332.405a.625.625 0 0 1-.738-1.01 3.32 3.32 0 0 1 .986-.49A4.144 4.144 0 0 0 10 2.5c-2.204 0-4.013 1.737-4.14 3.938l.016.003a.624.624 0 0 1-.228 1.229l-.45-.083-.033-.008c-.489-.118-.816-.081-1.113.038A2.484 2.484 0 0 0 2.5 9.896c0 1.06.622 1.978 1.507 2.375a.625.625 0 0 1-.513 1.14c-1.336-.6-2.244-1.965-2.244-3.515 0-1.478.914-2.866 2.335-3.438l.217-.077c.263-.082.533-.123.82-.123C4.837 3.459 7.156 1.25 10 1.25Zm-2.425 10 2.372 1.187 2.769-1.188-2.768-1.186-2.373 1.187Z"/>
</svg>
