<svg xmlns="http://www.w3.org/2000/svg" width="20" height="20" fill="currentColor" viewBox="0 0 20 20">
  <path fill-rule="evenodd" d="M5.86 7.063C5.987 4.862 7.796 3.125 10 3.125a4.147 4.147 0 0 1 3.854 2.636 3.253 3.253 0 0 0-.989.493.625.625 0 0 0 .738 1.008c.31-.225.726-.403 1.331-.403.614 0 1.254.311 1.754.853.498.539.812 1.261.812 2 0 1.049-.237 1.912-.654 2.495-.398.557-.99.902-1.846.902a.625.625 0 1 0 0 1.25c1.255 0 2.227-.536 2.863-1.425.617-.862.887-2.01.887-3.222 0-1.087-.457-2.105-1.143-2.848-.641-.694-1.52-1.19-2.478-1.25-.704-2.166-2.73-3.739-5.129-3.739-2.842 0-5.163 2.209-5.38 5.007-.364 0-.703.067-1.035.2A3.733 3.733 0 0 0 1.25 10.52c0 2.078 1.64 3.839 3.752 3.839a.625.625 0 1 0 0-1.25c-1.38 0-2.502-1.158-2.502-2.589 0-.97.606-1.897 1.552-2.278l.588-.53-.588.53c.298-.12.624-.156 1.113-.037a.626.626 0 0 0 .034.007l.45.083a.625.625 0 1 0 .227-1.229l-.016-.003Zm4.765 2.92a.625.625 0 1 0-1.25 0v6.008l-1.433-1.433a.625.625 0 1 0-.884.884l2.5 2.5a.625.625 0 0 0 .884 0l2.5-2.5a.625.625 0 1 0-.884-.884l-1.433 1.433V9.984Z" clip-rule="evenodd"/>
</svg>
