<svg xmlns="http://www.w3.org/2000/svg" width="20" height="20" fill="currentColor" viewBox="0 0 20 20">
  <path fill-rule="evenodd" d="M10 9.359c.345 0 .625.28.625.625v7.5a.625.625 0 1 1-1.25 0v-7.5c0-.346.28-.625.625-.625Z" clip-rule="evenodd"/>
  <path fill-rule="evenodd" d="M7.058 14.558a.625.625 0 0 1 .884 0L10 16.616l2.058-2.058a.625.625 0 1 1 .884.884l-2.5 2.5a.624.624 0 0 1-.884 0l-2.5-2.5a.625.625 0 0 1 0-.884Zm5.807-8.304c.515-.377 1.189-.645 2.07-.645 1.033 0 1.988.514 2.672 1.255.686.744 1.143 1.76 1.143 2.848 0 1.213-.27 2.36-.887 3.223-.636.888-1.608 1.424-2.863 1.424a.625.625 0 1 1 0-1.25c.856 0 1.448-.345 1.846-.902.417-.583.654-1.446.654-2.495 0-.739-.314-1.461-.812-2-.5-.542-1.14-.853-1.754-.853-.605 0-1.022.178-1.33.403a.625.625 0 1 1-.739-1.008Zm-7.423.732.434.08a.625.625 0 1 1-.228 1.23l-.45-.084a.626.626 0 0 1-.033-.007c-.489-.119-.815-.082-1.113.037m1.39-1.256c-.698-.167-1.289-.132-1.857.097A3.733 3.733 0 0 0 1.25 10.52c0 2.079 1.64 3.839 3.752 3.839a.625.625 0 1 0 0-1.25c-1.38 0-2.502-1.158-2.502-2.589 0-.97.606-1.897 1.552-2.278" clip-rule="evenodd"/>
  <path fill-rule="evenodd" d="M10 3.125c-2.286 0-4.147 1.869-4.147 4.186V7.5a.625.625 0 1 1-1.25 0v-.189c0-2.998 2.41-5.436 5.397-5.436 2.494 0 4.587 1.702 5.207 4.003a.625.625 0 1 1-1.208.325A4.15 4.15 0 0 0 10 3.125Z" clip-rule="evenodd"/>
</svg>
