<svg xmlns="http://www.w3.org/2000/svg" width="20" height="20" fill="currentColor" viewBox="0 0 20 20">
  <path fill-rule="evenodd" d="M10 3.125c-2.204 0-4.013 1.737-4.14 3.938l.016.003a.625.625 0 1 1-.228 1.23l-.45-.084a.626.626 0 0 1-.033-.007c-.489-.119-.815-.082-1.113.037l.588-.53-.588.53A2.483 2.483 0 0 0 2.5 10.52c0 1.43 1.122 2.589 2.502 2.589a.625.625 0 1 1 0 1.25c-2.112 0-3.752-1.76-3.752-3.839 0-1.477.914-2.865 2.335-3.437.332-.134.67-.2 1.035-.2.217-2.8 2.538-5.008 5.38-5.008 2.398 0 4.425 1.573 5.129 3.74.958.06 1.837.555 2.478 1.25.686.742 1.143 1.76 1.143 2.847 0 1.213-.27 2.36-.887 3.223-.636.888-1.608 1.424-2.863 1.424a.625.625 0 1 1 0-1.25c.856 0 1.448-.345 1.846-.902.417-.583.654-1.446.654-2.495 0-.739-.314-1.461-.812-2-.5-.542-1.14-.853-1.754-.853-.605 0-1.022.178-1.33.403a.625.625 0 1 1-.739-1.008 3.25 3.25 0 0 1 .989-.493A4.147 4.147 0 0 0 10 3.125Zm3.11 8.106a14.55 14.55 0 0 1-2.695-1.123.859.859 0 0 0-.834 0c-1.18.646-2.273 1-2.692 1.126a.88.88 0 0 0-.639.84v3.209c0 .539.24 1.008.53 1.38.292.376.671.703 1.042.972.743.54 1.546.916 1.827 1.041l.01.005a.873.873 0 0 0 .682 0l.011-.005a10.769 10.769 0 0 0 1.824-1.04c.371-.27.751-.597 1.043-.972.29-.373.531-.842.531-1.382v-3.21a.882.882 0 0 0-.632-.839l-.007-.002Zm-.61 1.12a16.043 16.043 0 0 1-2.5-1.048 15.844 15.844 0 0 1-2.5 1.05v2.93c0 .16.072.363.267.613.193.248.47.496.79.728.534.388 1.12.686 1.443.838.323-.152.908-.45 1.442-.838.32-.232.598-.48.791-.728.195-.25.267-.454.267-.614v-2.931Z" clip-rule="evenodd"/>
</svg>
