<svg xmlns="http://www.w3.org/2000/svg" width="20" height="20" fill="currentColor" viewBox="0 0 20 20">
  <path d="M12.059 10c.426 0 .821.236 1.035.62l1.746 3.136a1.28 1.28 0 0 1 0 1.238l-1.746 3.137a1.19 1.19 0 0 1-1.035.619H8.566c-.426 0-.821-.236-1.035-.62l-1.746-3.136a1.278 1.278 0 0 1 0-1.238l1.746-3.137A1.19 1.19 0 0 1 8.566 10h3.493Zm-5.24 4.375 1.747 3.136h3.493l1.747-3.136-1.747-3.136H8.566L6.82 14.375ZM9.771 1.25c2.438 0 4.561 1.459 5.202 3.54a.62.62 0 0 1 .024.211c.998.02 1.925.496 2.599 1.188.688.708 1.154 1.684 1.154 2.735 0 1.785-.661 3.48-2.257 4.152a.626.626 0 0 1-.486-1.152c.93-.392 1.493-1.455 1.493-3 0-.68-.305-1.355-.8-1.863-.496-.51-1.14-.81-1.765-.811-.613 0-1.035.171-1.344.386a.626.626 0 0 1-.713-1.028c.26-.18.559-.333.903-.441 0-.004-.003-.007-.004-.01C13.32 3.67 11.737 2.5 9.771 2.5c-2.366 0-4.146 1.676-4.146 3.585v.165c0 .03-.005.058-.009.086l.254.045a.626.626 0 0 1-.217 1.231l-.449-.079-.031-.006c-.433-.1-.743-.085-1.017-.003l-.115.04C3.086 7.927 2.5 8.802 2.5 9.688c0 .974.602 1.838 1.495 2.218a.626.626 0 0 1-.49 1.15C2.177 12.493 1.25 11.192 1.25 9.69c0-1.433.934-2.755 2.346-3.293.253-.097.51-.154.779-.176v-.135c0-2.742 2.491-4.835 5.396-4.835Z"/>
</svg>
