<svg xmlns="http://www.w3.org/2000/svg" width="21" height="20" fill="currentColor" viewBox="0 0 21 20">
  <path fill-rule="evenodd" d="M17.303 1.25a2.188 2.188 0 1 1-.829 4.212l-2.552 2.553A3.73 3.73 0 0 1 14.491 10a3.73 3.73 0 0 1-.695 2.172l2.467 2.466a2.188 2.188 0 1 1-.884.884l-2.467-2.467a3.73 3.73 0 0 1-2.171.695c-.73 0-1.41-.209-1.986-.569l-2.552 2.553a2.188 2.188 0 1 1-.79-.977l2.406-2.407A3.734 3.734 0 0 1 6.991 10c0-.73.208-1.41.568-1.985L5.006 5.462a2.188 2.188 0 1 1 .977-.79L8.39 7.078a3.734 3.734 0 0 1 2.35-.828c.89 0 1.708.31 2.35.828l2.407-2.406a2.188 2.188 0 0 1 1.806-3.422ZM4.178 15.625a.937.937 0 1 0 0 1.875.937.937 0 0 0 0-1.875Zm13.125 0a.938.938 0 1 0 0 1.875.938.938 0 0 0 0-1.875ZM10.741 7.5a2.5 2.5 0 1 0 0 5 2.5 2.5 0 0 0 0-5Zm-6.563-5a.938.938 0 1 0 0 1.875.938.938 0 0 0 0-1.875Zm13.125 0a.938.938 0 1 0 0 1.875.938.938 0 0 0 0-1.875Z" clip-rule="evenodd"/>
  <path fill-rule="evenodd" d="M10.92 14.375a2.188 2.188 0 1 1 0 4.376 2.188 2.188 0 0 1 0-4.376Zm0 1.25a.937.937 0 1 0 0 1.875.937.937 0 0 0 0-1.875ZM4.178 7.813a2.187 2.187 0 1 1 0 4.374 2.187 2.187 0 0 1 0-4.374Zm0 1.25a.938.938 0 1 0 0 1.875.938.938 0 0 0 0-1.876Zm13.125-1.25a2.188 2.188 0 1 1 0 4.375 2.188 2.188 0 0 1 0-4.376Zm0 1.25a.938.938 0 1 0 0 1.875.938.938 0 0 0 0-1.876ZM10.92 1.25a2.188 2.188 0 1 1 0 4.376 2.188 2.188 0 0 1 0-4.376Zm0 1.25a.938.938 0 1 0 0 1.875.938.938 0 0 0 0-1.875Z" clip-rule="evenodd"/>
</svg>
