<svg xmlns="http://www.w3.org/2000/svg" width="20" height="20" fill="none" viewBox="0 0 20 20">
  <path fill="#3D3C3C" fill-rule="evenodd" d="M11.857 5.15a.625.625 0 0 0-1.214-.3l-2.5 10.064a.625.625 0 0 0 1.214.302l2.5-10.065ZM6.04 6.969c.258.23.281.625.052.883l-2.13 2.397 2.13 2.397a.625.625 0 0 1-.934.83l-2.5-2.812a.625.625 0 0 1 0-.83l2.5-2.813a.625.625 0 0 1 .882-.052Zm7.92 0a.625.625 0 0 1 .882.052l2.5 2.813c.21.236.21.593 0 .83l-2.5 2.813a.625.625 0 1 1-.934-.83l2.13-2.398-2.13-2.397a.625.625 0 0 1 .052-.883Z" clip-rule="evenodd"/>
</svg>
