<svg xmlns="http://www.w3.org/2000/svg" width="20" height="20" fill="currentColor" viewBox="0 0 20 20">
  <path fill-rule="evenodd" d="m13.541 1.72.026.026 1.25 1.25c.348.348.583.668.703 1.064.106.347.105.712.105 1.07v4.245a.625.625 0 0 1-1.25 0V5.182c0-.432-.006-.609-.051-.759-.036-.118-.114-.267-.391-.544l-1.25-1.25a2.87 2.87 0 0 0-.115-.112 1.417 1.417 0 0 0-.168-.013 16.573 16.573 0 0 0-.525-.004H5.67a.85.85 0 0 0-.397.204C5.14 2.827 5 3.04 5 3.437v7.813a.625.625 0 1 1-1.25 0V7.5h-.975c-.003 0-.044.004-.089.052-.05.053-.186.247-.186.801v8.282c0 .33.012.54.082.68a.222.222 0 0 0 .098.103c.053.029.167.07.39.07h1.145l1.835-6.477.059-.236c.028-.114.055-.225.079-.312.043-.158.1-.343.194-.508a1.09 1.09 0 0 1 .488-.459 1.47 1.47 0 0 1 .63-.121h1.426c.468 0 .842.1 1.157.272.3.164.514.379.668.533.416.402.866.445 1.437.445H17.5c.331 0 .633.11.86.336.214.211.314.474.359.696.087.43.01.895-.09 1.19l-.005.016-.006.016c-.307.765-1.062 2.255-1.796 3.705l-.02.04c-.366.723-.668 1.259-1.014 1.6a1.704 1.704 0 0 1-.64.41 2.08 2.08 0 0 1-.698.104H3.07c-.373 0-.708-.069-.991-.224a1.47 1.47 0 0 1-.612-.636c-.219-.431-.218-.932-.217-1.205v-8.32c0-.748.186-1.293.522-1.654a1.38 1.38 0 0 1 1.003-.449h.975V3.437c0-.745.284-1.29.675-1.651a2.072 2.072 0 0 1 1.128-.532l.036-.004h6.298c.224 0 .41 0 .557.005.148.006.298.017.442.053.328.082.517.273.655.412ZM5.514 17.488h8.936a.86.86 0 0 0 .284-.034.461.461 0 0 0 .176-.119c.178-.176.398-.526.776-1.275.75-1.482 1.476-2.915 1.764-3.628.02-.064.04-.154.05-.254a.95.95 0 0 0-.014-.303h-5.299c-.624 0-1.52-.033-2.31-.802l-.003-.003-.003-.003c-.16-.159-.262-.254-.388-.324-.113-.061-.277-.118-.557-.118H7.5l-.055.001c-.013.035-.03.087-.05.165a10.52 10.52 0 0 0-.066.257l-.07.282-.003.008-1.742 6.15ZM7.5 3.75A.625.625 0 0 0 7.5 5h4.375a.625.625 0 0 0 0-1.25H7.5Zm0 2.5a.625.625 0 0 0 0 1.25h4.375a.625.625 0 0 0 0-1.25H7.5Z" clip-rule="evenodd"/>
</svg>
