<svg xmlns="http://www.w3.org/2000/svg" width="20" height="20" fill="none" viewBox="0 0 20 20">
  <path fill="#3D3C3C" fill-rule="evenodd" d="M2.5 4.075c0-.514.427-.95.98-.95h13.04c.553 0 .98.436.98.95v7.175h-15V4.075Zm-1.25 7.8v-7.8c0-1.226 1.01-2.2 2.23-2.2h13.04c1.22 0 2.23.974 2.23 2.2V12.8c0 1.226-1.01 2.2-2.23 2.2h-5.895v1.875h3.125a.625.625 0 1 1 0 1.25h-7.5a.625.625 0 1 1 0-1.25h3.125V15H3.48c-1.22 0-2.23-.974-2.23-2.2v-.925Zm1.25.625h15v.3c0 .514-.427.95-.98.95H3.48a.965.965 0 0 1-.98-.95v-.3Z" clip-rule="evenodd"/>
</svg>
