<svg xmlns="http://www.w3.org/2000/svg" width="20" height="20" fill="currentColor" viewBox="0 0 20 20">
  <path fill-rule="evenodd" d="M3.68 6.822c.742-.742 1.956-.775 2.708-.023l1.813 1.813c.752.752.72 1.966-.023 2.708L6.32 13.178c-.742.742-1.956.775-2.708.023l-1.813-1.813c-.752-.752-.72-1.966.023-2.708L3.68 6.822Zm1.824.861a.666.666 0 0 0-.94.023L2.706 9.564a.666.666 0 0 0-.023.94l1.813 1.813a.666.666 0 0 0 .94-.023l1.858-1.858a.666.666 0 0 0 .023-.94L5.504 7.683Zm3.173-5.861c.742-.742 1.956-.775 2.71-.023L13.2 3.612c.753.752.72 1.966-.022 2.708l-1.86 1.858c-.743.742-1.957.775-2.71.023L6.8 6.394c-.731-.73-.722-1.9-.041-2.647a.628.628 0 0 1 .058-.067l1.86-1.858Zm-.923 2.69a.626.626 0 0 1-.048.052c-.276.276-.266.703-.023.946l1.809 1.807a.668.668 0 0 0 .942-.023l1.86-1.858a.665.665 0 0 0 .023-.94l-1.814-1.813a.668.668 0 0 0-.943.023L7.754 4.511Zm.926 7.31c.742-.742 1.956-.775 2.708-.023l1.813 1.813c.752.752.72 1.966-.023 2.708l-1.858 1.858c-.742.742-1.956.775-2.708.023l-1.813-1.813c-.752-.752-.72-1.966.023-2.708l1.858-1.858Zm1.824.861a.666.666 0 0 0-.94.023l-1.858 1.858a.666.666 0 0 0-.023.94l1.813 1.813a.666.666 0 0 0 .94-.023l1.858-1.858a.666.666 0 0 0 .023-.94l-1.813-1.813Zm3.176-5.861c.742-.742 1.956-.775 2.708-.023l1.813 1.813c.752.752.72 1.966-.023 2.708l-1.858 1.858c-.742.742-1.956.775-2.708.023l-1.813-1.813c-.752-.752-.72-1.966.023-2.708l1.858-1.858Zm1.824.861a.666.666 0 0 0-.94.023l-1.858 1.858a.666.666 0 0 0-.023.94l1.813 1.813a.666.666 0 0 0 .94-.023l1.858-1.858a.666.666 0 0 0 .023-.94l-1.813-1.813Z" clip-rule="evenodd"/>
</svg>
