<svg xmlns="http://www.w3.org/2000/svg" width="20" height="20" fill="currentColor" viewBox="0 0 20 20">
  <path fill-rule="evenodd" d="M1.25 2.5c0-.69.56-1.25 1.25-1.25H5c.69 0 1.25.56 1.25 1.25V5c0 .112-.015.22-.042.324l1.62 1.62A3.733 3.733 0 0 1 10 6.25c.81 0 1.56.257 2.173.693l1.76-1.76a.623.623 0 0 1 .184-.128 2.5 2.5 0 1 1 .827.827.622.622 0 0 1-.127.185l-1.76 1.76c.436.613.693 1.363.693 2.173s-.257 1.56-.693 2.173l1.62 1.62c.103-.028.211-.043.323-.043h2.5c.69 0 1.25.56 1.25 1.25v2.5c0 .69-.56 1.25-1.25 1.25H15c-.69 0-1.25-.56-1.25-1.25V15c0-.112.015-.22.042-.324l-1.62-1.62A3.732 3.732 0 0 1 10 13.75a3.735 3.735 0 0 1-2.462-.921l-1.444 1.444a.622.622 0 0 1-.168.12 2.5 2.5 0 1 1-.819-.868.624.624 0 0 1 .103-.136l1.532-1.531A3.733 3.733 0 0 1 6.25 10c0-.81.257-1.56.693-2.173l-1.62-1.62A1.252 1.252 0 0 1 5 6.25H2.5c-.69 0-1.25-.56-1.25-1.25V2.5ZM5 2.5H2.5V5H5V2.5Zm5 5a2.5 2.5 0 1 0 0 5 2.5 2.5 0 0 0 0-5Zm-6.25 6.875a1.25 1.25 0 1 0 0 2.5 1.25 1.25 0 0 0 0-2.5ZM15 17.5V15h2.5v2.5H15Zm0-13.75a1.25 1.25 0 1 1 2.5 0 1.25 1.25 0 0 1-2.5 0Z" clip-rule="evenodd"/>
</svg>
