<svg xmlns="http://www.w3.org/2000/svg" width="20" height="20" fill="currentColor" viewBox="0 0 20 20">
  <path fill-rule="evenodd" d="M14.063 2.5a3.437 3.437 0 1 0 0 6.875 3.437 3.437 0 0 0 0-6.875ZM9.375 5.938a4.688 4.688 0 1 1 9.375 0 4.688 4.688 0 0 1-9.375 0Zm-.66-.517a.625.625 0 0 1-.386.795c-1.37.474-2.392 1.7-2.392 3.159 0 .823.58 1.719 1.25 2.425.707.745.899 1.703.932 2.575h2.526c.062-.493.264-.95.5-1.342.287-.476.654-.905.98-1.252.175-.188.328-.394.456-.62a.625.625 0 1 1 1.088.613c-.18.32-.392.603-.628.859l-.004.004c-.3.32-.6.674-.821 1.041-.224.372-.341.711-.341 1.01v2.52c0 .99-.967 1.542-1.808 1.542H8.683c-.841 0-1.808-.551-1.808-1.542v-2.521c0-.862-.143-1.55-.595-2.026-.713-.753-1.593-1.955-1.593-3.286 0-2.08 1.447-3.723 3.234-4.34a.625.625 0 0 1 .795.386Zm-.59 11.787v-1.583h2.5v1.583c0 .021-.01.081-.104.155a.75.75 0 0 1-.454.137H8.683a.75.75 0 0 1-.454-.137c-.094-.074-.104-.134-.104-.155Zm-3.933-13.9a.625.625 0 1 0-.884.884l1.25 1.25a.625.625 0 1 0 .884-.884l-1.25-1.25ZM1.262 7.69a.625.625 0 0 1 .736-.49l1.562.312a.625.625 0 1 1-.245 1.226l-1.563-.313a.625.625 0 0 1-.49-.735ZM8.75 1.875a.625.625 0 1 0-1.25 0V3.75a.625.625 0 1 0 1.25 0V1.875Zm7.387 2.859a.625.625 0 0 0-1.024-.718L13.436 6.41l-.423-.608a.625.625 0 1 0-1.026.715l.935 1.341a.625.625 0 0 0 1.025.002l2.19-3.125Z" clip-rule="evenodd"/>
</svg>
