<svg xmlns="http://www.w3.org/2000/svg" width="20" height="20" fill="currentColor" viewBox="0 0 20 20">
  <path d="M13.154 10.003c.03.001.061.003.091.009a.616.616 0 0 1 .095.028c.007.003.014.003.02.006.023.01.044.021.066.033.014.008.03.015.044.024.016.011.03.024.046.037.016.013.033.025.047.04.016.015.029.033.042.05.012.014.025.027.036.043a.62.62 0 0 1 .109.351v2.242l.625.625.625-.625v-2.241a.625.625 0 0 1 .86-.58c1.377.561 2.265 1.807 2.265 3.393 0 1.26-.58 2.446-1.563 3.15l.003 1.536a.625.625 0 0 1-1.25.002l-.002-1.875c0-.226.12-.435.318-.546.744-.418 1.244-1.284 1.244-2.268 0-.673-.227-1.237-.625-1.656v1.344a.625.625 0 0 1-.183.441l-1.246 1.245c-.001.002-.002.005-.004.006a.625.625 0 0 1-.883 0l-1.25-1.25a.627.627 0 0 1-.184-.442v-1.321c-.39.42-.625.978-.625 1.633 0 .972.53 1.849 1.254 2.273a.626.626 0 0 1 .309.54v1.875a.625.625 0 1 1-1.25 0v-1.542c-.944-.698-1.563-1.876-1.563-3.145 0-1.596.943-2.829 2.25-3.386a.619.619 0 0 1 .249-.052h.001l.03.003Zm-5.654.622c1.036 0 1.875.84 1.875 1.875v3.75c0 1.035-.84 1.875-1.875 1.875H3.75a1.875 1.875 0 0 1-1.875-1.875V12.5c0-1.036.84-1.875 1.875-1.875H7.5Zm-3.75 1.25a.625.625 0 0 0-.625.625v3.75c0 .345.28.625.625.625H7.5c.345 0 .625-.28.625-.625V12.5a.625.625 0 0 0-.625-.625H3.75ZM7.5 1.25c1.036 0 1.875.84 1.875 1.875v3.75c0 1.036-.84 1.875-1.875 1.875H3.75a1.875 1.875 0 0 1-1.875-1.875v-3.75c0-1.036.84-1.875 1.875-1.875H7.5Zm8.75 0c1.035 0 1.875.84 1.875 1.875v3.75c0 1.036-.84 1.875-1.875 1.875H12.5a1.875 1.875 0 0 1-1.875-1.875v-3.75c0-1.036.84-1.875 1.875-1.875h3.75ZM3.75 2.5a.625.625 0 0 0-.625.625v3.75c0 .345.28.625.625.625H7.5c.345 0 .625-.28.625-.625v-3.75A.625.625 0 0 0 7.5 2.5H3.75Zm8.75 0a.625.625 0 0 0-.625.625v3.75c0 .345.28.625.625.625h3.75c.345 0 .625-.28.625-.625v-3.75a.625.625 0 0 0-.625-.625H12.5Z"/>
</svg>
