<svg xmlns="http://www.w3.org/2000/svg" width="20" height="20" fill="currentColor" viewBox="0 0 20 20">
  <path d="M17.412 8.257c.833.066 1.72.63 1.713 1.659v2.396c0 .35-.102.853-.361 1.289a1.831 1.831 0 0 1-.889.784v3.865c0 .69-.56 1.25-1.25 1.25h-2.5c-.69 0-1.25-.56-1.25-1.25v-3.858a1.758 1.758 0 0 1-.882-.733 2.612 2.612 0 0 1-.368-1.347v-2.34c0-.607.282-1.071.703-1.359.393-.268.873-.363 1.297-.363h3.621l.166.007ZM13.625 9.5c-.26 0-.469.061-.592.146-.095.064-.158.15-.158.327v2.34c0 .226.06.495.178.684a.48.48 0 0 0 .447.253c.345 0 .625.28.625.625v4.375h2.5v-4.375c0-.345.28-.625.625-.625.185 0 .32-.088.44-.29.13-.22.185-.497.185-.648V9.91c0-.096-.038-.18-.135-.258a.77.77 0 0 0-.415-.148l-.079-.003h-3.621ZM8.037 7.007c.833.066 1.72.63 1.713 1.659v2.084h.625l.065.003a.625.625 0 0 1 0 1.244l-.065.003h-8.75a.625.625 0 1 1 0-1.25h.625V8.723c-.003-.562.307-1.005.676-1.284A2.23 2.23 0 0 1 4.249 7h3.622l.166.007ZM4.25 8.25a.977.977 0 0 0-.568.187c-.148.112-.182.216-.181.28v2.033h5V8.66a.315.315 0 0 0-.135-.259.77.77 0 0 0-.415-.148l-.079-.003H4.25Zm11.126-5a2.187 2.187 0 1 1 .001 4.374 2.187 2.187 0 0 1-.001-4.374ZM6 2a2.187 2.187 0 1 1 .001 4.374A2.187 2.187 0 0 1 6 2Zm9.375 2.5a.937.937 0 1 0-.001 1.874.937.937 0 0 0 .001-1.874ZM6 3.25a.937.937 0 1 0-.001 1.874A.937.937 0 0 0 6 3.25Z"/>
</svg>
