<svg xmlns="http://www.w3.org/2000/svg" width="20" height="20" fill="currentColor" viewBox="0 0 20 20">
  <path d="M4.53 3.125h-.31c-.26 0-.47.193-.47.432v.386c0 .239.21.432.47.432h.31c.26 0 .47-.193.47-.432v-.386c0-.239-.21-.432-.47-.432Zm1.874 0h-.308c-.26 0-.471.193-.471.432v.386c0 .239.21.432.47.432h.31c.26 0 .47-.193.47-.432v-.386c0-.239-.21-.432-.47-.432Zm1.876 0h-.31c-.26 0-.47.193-.47.432v.386c0 .239.21.432.47.432h.31c.26 0 .47-.193.47-.432v-.386c0-.239-.21-.432-.47-.432Z"/>
  <path fill-rule="evenodd" d="M1.208 4.918h17.584v11.4c0 1.314-.989 2.474-2.323 2.474H3.531c-1.334 0-2.323-1.16-2.323-2.475V4.918Zm1.25 1.25v10.15c0 .727.529 1.224 1.073 1.224h12.938c.544 0 1.073-.497 1.073-1.225V6.168H2.458Z" clip-rule="evenodd"/>
  <path fill-rule="evenodd" d="M1.208 3.683c0-1.315.989-2.475 2.323-2.475h12.938c1.334 0 2.323 1.16 2.323 2.474v2.486H1.208V3.682Zm2.323-1.225c-.544 0-1.073.497-1.073 1.224v1.236h15.084V3.682c0-.727-.529-1.224-1.073-1.224H3.531ZM7.5 13.75a2.5 2.5 0 1 0 0-5 2.5 2.5 0 0 0 0 5Zm0 1.25a3.75 3.75 0 1 0 0-7.5 3.75 3.75 0 0 0 0 7.5Z" clip-rule="evenodd"/>
  <path fill-rule="evenodd" d="M7.5 8.125c.345 0 .625.28.625.625v1.875H10a.625.625 0 1 1 0 1.25H8.125c-.69 0-1.25-.56-1.25-1.25V8.75c0-.345.28-.625.625-.625Zm5 4.375c0-.345.28-.625.625-.625h2.5a.625.625 0 1 1 0 1.25h-2.5a.625.625 0 0 1-.625-.625Zm0-2.5c0-.345.28-.625.625-.625h2.5a.625.625 0 1 1 0 1.25h-2.5A.625.625 0 0 1 12.5 10Z" clip-rule="evenodd"/>
</svg>
