<svg xmlns="http://www.w3.org/2000/svg" width="20" height="20" fill="currentColor" viewBox="0 0 20 20">
  <path fill-rule="evenodd" d="M3.14 1.208A1.937 1.937 0 0 0 1.208 3.14v5.227a1.94 1.94 0 0 0 1.307 1.827v2.093a.625.625 0 0 0 .972.52l.988-.66v2.1a1.93 1.93 0 0 0 1.932 1.931h5.69l3.763 2.509a.625.625 0 0 0 .972-.52v-2.092a1.93 1.93 0 0 0 1.306-1.828V9.02a1.93 1.93 0 0 0-1.931-1.932h-1.335V3.14a1.937 1.937 0 0 0-1.932-1.932h-9.8Zm11.1 7.13h1.967a.68.68 0 0 1 .681.682v5.227a.68.68 0 0 1-.681.681.625.625 0 0 0-.625.625V17l-2.949-1.966a.625.625 0 0 0-.346-.105h-5.88a.68.68 0 0 1-.682-.681V9.02a.68.68 0 0 1 .682-.682h7.834Zm-.618-1.25V3.14a.687.687 0 0 0-.682-.682h-9.8a.687.687 0 0 0-.682.682v5.227c0 .372.31.681.682.681.345 0 .625.28.625.625v1.446l.71-.473V9.02a1.93 1.93 0 0 1 1.932-1.932h7.215Z" clip-rule="evenodd"/>
</svg>
