<svg xmlns="http://www.w3.org/2000/svg" width="20" height="20" fill="currentColor" viewBox="0 0 20 20">
  <path fill-rule="evenodd" d="M1.208 3.14c0-1.063.87-1.932 1.932-1.932h9.8c1.063 0 1.932.87 1.932 1.932v4.573a.625.625 0 1 1-1.25 0V3.14a.687.687 0 0 0-.682-.682h-9.8a.687.687 0 0 0-.682.682v5.227c0 .372.31.681.682.681.345 0 .625.28.625.625v1.446l.988-.659a.625.625 0 1 1 .694 1.04l-1.96 1.307a.625.625 0 0 1-.972-.52v-2.093a1.939 1.939 0 0 1-1.307-1.827V3.14Z" clip-rule="evenodd"/>
  <path fill-rule="evenodd" d="M6.407 8.338a.68.68 0 0 0-.682.682v5.227a.68.68 0 0 0 .682.681h5.88c.123 0 .244.037.346.105L15.582 17v-1.446c0-.345.28-.625.625-.625a.68.68 0 0 0 .681-.681V9.02a.68.68 0 0 0-.681-.682h-9.8Zm-1.932.682a1.93 1.93 0 0 1 1.932-1.932h9.8a1.93 1.93 0 0 1 1.931 1.932v5.227c0 .85-.546 1.57-1.306 1.828v2.092a.625.625 0 0 1-.972.52l-3.763-2.509h-5.69a1.93 1.93 0 0 1-1.932-1.931V9.02Z" clip-rule="evenodd"/>
</svg>
