<svg xmlns="http://www.w3.org/2000/svg" width="20" height="20" fill="currentColor" viewBox="0 0 20 20">
  <path fill-rule="evenodd" d="M3.53 1.208c-1.333 0-2.322 1.16-2.322 2.475v12.635c0 1.314.989 2.474 2.323 2.474h12.938c1.334 0 2.323-1.16 2.323-2.475V3.684c0-1.315-.989-2.475-2.323-2.475H3.531Zm14.012 3.71V3.683c0-.728-.529-1.225-1.073-1.225H3.531c-.544 0-1.073.497-1.073 1.225v1.235h15.084ZM2.458 6.168h15.084v10.15c0 .727-.529 1.224-1.073 1.224H3.531c-.544 0-1.073-.497-1.073-1.225V6.168ZM4.53 3.125h-.308c-.26 0-.471.193-.471.432v.386c0 .239.21.432.47.432h.31c.26 0 .47-.193.47-.432v-.386c0-.239-.21-.432-.47-.432Zm1.875 0h-.308c-.26 0-.471.193-.471.432v.386c0 .239.21.432.47.432h.31c.26 0 .47-.193.47-.432v-.386c0-.239-.21-.432-.47-.432Zm1.567 0h.308c.26 0 .471.193.471.432v.386c0 .239-.21.432-.47.432h-.31c-.26 0-.47-.193-.47-.432v-.386c0-.239.21-.432.47-.432Zm1.95 8.75a2.501 2.501 0 1 1-3.046-3.046v1.796c0 .69.56 1.25 1.25 1.25h1.796ZM8.125 8.829c.879.226 1.57.918 1.796 1.796H8.125V8.829ZM7.5 15a3.75 3.75 0 1 0 0-7.5 3.75 3.75 0 0 0 0 7.5Zm5-2.5c0-.345.28-.625.625-.625h2.5a.625.625 0 0 1 0 1.25h-2.5a.625.625 0 0 1-.625-.625Zm.625-3.125a.625.625 0 0 0 0 1.25h2.5a.625.625 0 1 0 0-1.25h-2.5Z" clip-rule="evenodd"/>
</svg>
