<svg xmlns="http://www.w3.org/2000/svg" width="21" height="20" fill="currentColor" viewBox="0 0 21 20">
  <path d="M11.187 1.25c4.811 0 8.711 3.918 8.711 8.75s-3.9 8.75-8.71 8.75c-4.812 0-8.712-3.918-8.712-8.75s3.9-8.75 8.711-8.75Zm0 1.25C7.064 2.5 3.72 5.858 3.72 10c0 4.142 3.344 7.5 7.467 7.5 4.124 0 7.467-3.358 7.467-7.5 0-4.142-3.343-7.5-7.467-7.5ZM8.076 6.25c.344 0 .622.28.622.625v6.25a.623.623 0 0 1-.622.625.624.624 0 0 1-.622-.625v-6.25c0-.345.278-.625.622-.625Zm1.565.078a.621.621 0 0 1 .632.018l4.978 3.125a.625.625 0 0 1 0 1.06l-4.978 3.124a.621.621 0 0 1-.952-.53v-6.25l.005-.084a.627.627 0 0 1 .315-.463Zm.924 5.67L13.747 10l-3.182-1.998v3.995Z"/>
</svg>
