<svg xmlns="http://www.w3.org/2000/svg" width="20" height="20" fill="currentColor" viewBox="0 0 20 20">
  <path d="M4.53 3.125c.26 0 .47.193.47.432v.386c0 .239-.21.432-.47.432h-.31c-.26 0-.47-.193-.47-.432v-.386c0-.239.21-.432.47-.432h.31Zm1.874 0c.26 0 .471.193.471.432v.386c0 .239-.21.432-.47.432h-.31c-.26 0-.47-.193-.47-.432v-.386c0-.239.21-.432.47-.432h.31Zm1.876 0c.26 0 .47.193.47.432v.386c0 .239-.21.432-.47.432h-.31c-.26 0-.47-.193-.47-.432v-.386c0-.239.21-.432.47-.432h.31Z"/>
  <path fill-rule="evenodd" d="M1.25 3.744c0-1.316.977-2.494 2.315-2.494h12.87c1.338 0 2.315 1.178 2.315 2.494V10a.625.625 0 1 1-1.25 0V6.25h-15v10.043c0 .715.523 1.207 1.065 1.207h5.81a.625.625 0 1 1 0 1.25h-5.81c-1.327 0-2.315-1.15-2.315-2.457V3.743Zm16.25 0V5h-15V3.744c0-.747.534-1.244 1.065-1.244h12.87c.531 0 1.065.497 1.065 1.244Z" clip-rule="evenodd"/>
  <path d="M13.438 16.25a.625.625 0 1 0-1.25 0v.313h-.313a.625.625 0 1 0 0 1.25h.313v.312a.625.625 0 1 0 1.25 0v-.313h.312a.625.625 0 1 0 0-1.25h-.313v-.312Zm2.187-3.75a.625.625 0 1 0 1.25 0v-.625a.625.625 0 1 0-1.25 0v.625Zm1.25 1.25c0-.345.28-.625.625-.625h.625a.625.625 0 1 1 0 1.25H17.5a.625.625 0 0 1-.625-.625Zm-2.5-.625a.625.625 0 1 0 0 1.25H15a.625.625 0 1 0 0-1.25h-.625Zm1.875 3.125a.625.625 0 0 1-.625-.625V15a.625.625 0 1 1 1.25 0v.625c0 .345-.28.625-.625.625Z"/>
  <path fill-rule="evenodd" d="M9.33 14.716a.625.625 0 0 0 1.037-.001c.755-1.122 1.298-1.637 2.496-2.492a.625.625 0 0 0-.012-1.026c-1.241-.842-1.75-1.37-2.481-2.479a.625.625 0 0 0-1.053.015c-.381.615-.698 1.034-1.057 1.39-.36.358-.782.673-1.398 1.063a.625.625 0 0 0-.016 1.046c1.206.817 1.717 1.35 2.485 2.484Zm.532-4.55a7.84 7.84 0 0 0 1.577 1.558 8.588 8.588 0 0 0-1.59 1.57 8.04 8.04 0 0 0-1.56-1.564 7.34 7.34 0 0 0 .852-.72 7.02 7.02 0 0 0 .72-.844Z" clip-rule="evenodd"/>
</svg>
