<svg xmlns="http://www.w3.org/2000/svg" width="20" height="20" fill="currentColor" viewBox="0 0 20 20">
  <path fill-rule="evenodd" d="M2.5 10a7.5 7.5 0 1 1 15 0 7.5 7.5 0 0 1-15 0ZM10 1.25a8.75 8.75 0 1 0 0 17.5 8.75 8.75 0 0 0 0-17.5ZM5.625 6.875c0-.345.28-.625.625-.625h2.5c.345 0 .625.28.625.625v6.25c0 .345-.28.625-.625.625h-2.5a.625.625 0 0 1-.625-.625v-6.25Zm2.5.625h-1.25v5h1.25v-5Zm2.5-.625c0-.345.28-.625.625-.625h2.5c.345 0 .625.28.625.625v6.25c0 .345-.28.625-.625.625h-2.5a.625.625 0 0 1-.625-.625v-6.25Zm2.5.625h-1.25v5h1.25v-5Z" clip-rule="evenodd"/>
</svg>
