<svg xmlns="http://www.w3.org/2000/svg" width="20" height="20" fill="currentColor" viewBox="0 0 20 20">
  <path fill-rule="evenodd" d="M10 6.25a1.25 1.25 0 1 0 0 2.5 1.25 1.25 0 0 0 0-2.5ZM7.5 7.5a2.5 2.5 0 1 1 5 0 2.5 2.5 0 0 1-5 0ZM4.045 1.374a.625.625 0 0 1 .128.875A8.51 8.51 0 0 0 2.5 7.347a8.51 8.51 0 0 0 1.673 5.099.625.625 0 1 1-1.002.748A9.76 9.76 0 0 1 1.25 7.346 9.76 9.76 0 0 1 3.17 1.5a.625.625 0 0 1 .875-.127Zm11.826.004a.625.625 0 0 1 .876.118A9.883 9.883 0 0 1 18.75 7.5a9.883 9.883 0 0 1-2.003 6.004.625.625 0 1 1-.994-.758A8.633 8.633 0 0 0 17.5 7.5a8.633 8.633 0 0 0-1.747-5.246.625.625 0 0 1 .118-.876ZM6.382 3.35c.281.2.348.59.15.871a5.044 5.044 0 0 0-.907 2.919c0 1.107.34 2.117.906 2.919a.625.625 0 1 1-1.02.721 6.294 6.294 0 0 1-1.136-3.64c0-1.364.419-2.627 1.135-3.64.2-.282.59-.35.872-.15Zm7.008 0a.625.625 0 0 1 .87.15 6.294 6.294 0 0 1 1.136 3.64 6.294 6.294 0 0 1-1.136 3.64.625.625 0 0 1-1.02-.721 5.044 5.044 0 0 0 .906-2.919c0-1.107-.34-2.117-.906-2.919a.625.625 0 0 1 .15-.871Z" clip-rule="evenodd"/>
  <path fill-rule="evenodd" d="M10.312 9.459a.625.625 0 0 1 .23.853l-4.688 8.125a.625.625 0 1 1-1.083-.624L9.46 9.688a.625.625 0 0 1 .853-.23Z" clip-rule="evenodd"/>
  <path fill-rule="evenodd" d="M9.688 9.459a.625.625 0 0 1 .853.229l4.688 8.125a.625.625 0 1 1-1.083.624L9.46 10.312a.625.625 0 0 1 .229-.853Z" clip-rule="evenodd"/>
  <path fill-rule="evenodd" d="M6.25 15.625c0-.345.219-.625.49-.625h6.52c.271 0 .49.28.49.625s-.219.625-.49.625H6.74c-.271 0-.49-.28-.49-.625Z" clip-rule="evenodd"/>
</svg>
