<svg xmlns="http://www.w3.org/2000/svg" width="20" height="20" fill="currentColor" viewBox="0 0 20 20">
  <path fill-rule="evenodd" d="M4.173 2.249A.625.625 0 1 0 3.17 1.5a9.76 9.76 0 0 0-1.92 5.847 9.76 9.76 0 0 0 1.92 5.846.625.625 0 0 0 1.003-.747A8.51 8.51 0 0 1 2.5 7.347 8.51 8.51 0 0 1 4.173 2.25ZM8.75 7.5a1.25 1.25 0 1 1 2.5 0 1.25 1.25 0 0 1-2.5 0ZM10 5a2.5 2.5 0 0 0-.67 4.91l-4.559 7.903a.625.625 0 0 0 1.083.624l1.262-2.187h5.768l1.262 2.187a.625.625 0 0 0 1.083-.624l-4.56-7.904A2.501 2.501 0 0 0 10 5Zm2.163 10L10 11.25 7.837 15h4.326Zm3.708-13.622a.625.625 0 0 1 .876.118A9.883 9.883 0 0 1 18.75 7.5a9.883 9.883 0 0 1-2.003 6.004.625.625 0 1 1-.994-.758A8.633 8.633 0 0 0 17.5 7.5a8.633 8.633 0 0 0-1.747-5.246.625.625 0 0 1 .118-.876ZM6.531 4.22a.625.625 0 0 0-1.02-.721 6.294 6.294 0 0 0-1.136 3.64c0 1.364.419 2.627 1.135 3.64a.625.625 0 0 0 1.021-.721 5.044 5.044 0 0 1-.906-2.919c0-1.107.34-2.117.906-2.919Zm6.858-.871a.625.625 0 0 1 .871.15 6.293 6.293 0 0 1 1.136 3.64 6.293 6.293 0 0 1-1.136 3.64.625.625 0 1 1-1.02-.721 5.044 5.044 0 0 0 .906-2.919c0-1.107-.34-2.117-.906-2.919a.625.625 0 0 1 .15-.871Z" clip-rule="evenodd"/>
</svg>
