<svg xmlns="http://www.w3.org/2000/svg" width="20" height="20" fill="currentColor" viewBox="0 0 20 20">
  <path d="M16.782 11.875c.806 0 1.343.708 1.343 1.429v3.392c0 .72-.537 1.429-1.343 1.429h-3.564c-.806 0-1.343-.708-1.343-1.429v-3.392c0-.72.537-1.429 1.343-1.429h3.564Zm-2.506-10c1.5 0 2.599 1.338 2.599 2.836V10a.625.625 0 1 1-1.25 0V4.71c0-.943-.668-1.585-1.349-1.585H4.474c-.68 0-1.349.642-1.349 1.586v9.328c0 .944.669 1.586 1.349 1.586H10a.625.625 0 1 1 0 1.25H4.474c-1.5 0-2.599-1.338-2.599-2.836V4.711c0-1.498 1.099-2.836 2.599-2.836h9.802Zm-1.058 11.25c-.002 0-.017 0-.041.027a.228.228 0 0 0-.052.152v3.392a.23.23 0 0 0 .052.153c.024.026.04.026.04.026h3.565c.002 0 .018 0 .042-.026a.23.23 0 0 0 .051-.153v-3.392a.23.23 0 0 0-.05-.152c-.025-.027-.041-.027-.043-.027h-3.564Zm-1.616-7.5c.906 0 1.523.798 1.523 1.63v2.823a.625.625 0 1 1-1.25 0V7.255c0-.278-.187-.38-.273-.38H7.147c-.085 0-.272.102-.272.38v4.24c0 .278.187.38.272.38H10a.625.625 0 1 1 0 1.25H7.147c-.905 0-1.522-.798-1.522-1.63v-4.24c0-.832.617-1.63 1.522-1.63h4.455Z"/>
</svg>
