<svg xmlns="http://www.w3.org/2000/svg" width="20" height="20" fill="currentColor" viewBox="0 0 20 20">
  <path fill-rule="evenodd" d="M3.125 1.25c-1.036 0-1.875.84-1.875 1.875v12.5a.625.625 0 1 0 1.25 0v-12.5c0-.345.28-.625.625-.625h12.5a.625.625 0 1 0 0-1.25h-12.5Zm2.5 2.5c-1.036 0-1.875.84-1.875 1.875v11.25c0 1.035.84 1.875 1.875 1.875h11.25c1.035 0 1.875-.84 1.875-1.875V5.625c0-1.036-.84-1.875-1.875-1.875H5.625ZM5 5.625C5 5.28 5.28 5 5.625 5h11.25c.345 0 .625.28.625.625v11.25c0 .345-.28.625-.625.625H5.625A.625.625 0 0 1 5 16.875V5.625Z" clip-rule="evenodd"/>
</svg>
