<svg xmlns="http://www.w3.org/2000/svg" width="20" height="20" fill="currentColor" viewBox="0 0 20 20">
  <path fill-rule="evenodd" d="M10 2.5a.625.625 0 1 0 0 1.25.625.625 0 0 0 0-1.25Zm-1.875.625a1.875 1.875 0 1 1 2.5 1.768v2.045c.396.08.765.235 1.092.45l1.567-1.63a1.875 1.875 0 1 1 .859.91l-1.54 1.602c.22.33.378.703.46 1.105h2.044a1.876 1.876 0 1 1 0 1.25h-2.044a3.13 3.13 0 0 1-.456 1.098l1.585 1.585a1.875 1.875 0 1 1-.884.884l-1.585-1.585a3.093 3.093 0 0 1-1.098.456v2.044a1.876 1.876 0 1 1-1.25 0v-2.044a3.107 3.107 0 0 1-1.098-.456l-1.58 1.58a1.875 1.875 0 1 1-.893-.875l1.589-1.589a3.107 3.107 0 0 1-.455-1.098H4.893a1.876 1.876 0 1 1 0-1.25h2.045c.08-.4.238-.772.456-1.1l-1.57-1.59a1.875 1.875 0 1 1 .875-.893l1.58 1.6a3.107 3.107 0 0 1 1.096-.454V4.893a1.876 1.876 0 0 1-1.25-1.768ZM10 16.25a.625.625 0 1 0 0 1.25.625.625 0 0 0 0-1.25ZM2.5 10a.625.625 0 1 1 1.25 0 .625.625 0 0 1-1.25 0Zm14.375-.625a.625.625 0 1 0 0 1.25.625.625 0 0 0 0-1.25ZM4.375 5a.625.625 0 1 1 1.25 0 .625.625 0 0 1-1.25 0ZM15 4.375a.625.625 0 0 0-.508.989.653.653 0 0 1 .095.105A.625.625 0 1 0 15 4.375ZM4.388 15.006a.625.625 0 1 1 1.25.013.625.625 0 0 1-1.25-.013ZM15 14.375a.625.625 0 1 0 0 1.25.625.625 0 0 0 0-1.25ZM8.125 10a1.875 1.875 0 1 1 3.75 0 1.875 1.875 0 0 1-3.75 0Z" clip-rule="evenodd"/>
</svg>
