<svg xmlns="http://www.w3.org/2000/svg" width="20" height="20" fill="currentColor" viewBox="0 0 20 20">
  <path fill-rule="evenodd" d="M2.625 2.5a.125.125 0 0 0-.125.125v2.25c0 .069.056.125.125.125h2.25A.125.125 0 0 0 5 4.875v-2.25a.125.125 0 0 0-.125-.125h-2.25Zm-1.375.125c0-.76.616-1.375 1.375-1.375h2.25c.76 0 1.375.616 1.375 1.375v2.25c0 .76-.616 1.375-1.375 1.375h-.479v3.125h6.229V2.687c0-.773.612-1.437 1.41-1.437h5.304c.799 0 1.411.664 1.411 1.438v14.624c0 .774-.612 1.438-1.41 1.438h-5.304c-.799 0-1.411-.663-1.411-1.438v-6.687H4.396v3.125h.479c.76 0 1.375.616 1.375 1.375v2.25c0 .76-.616 1.375-1.375 1.375h-2.25c-.76 0-1.375-.616-1.375-1.375v-2.25c0-.76.616-1.375 1.375-1.375h.521v-7.5h-.521c-.76 0-1.375-.616-1.375-1.375v-2.25ZM2.625 15a.125.125 0 0 0-.125.125v2.25c0 .069.056.125.125.125h2.25A.125.125 0 0 0 5 17.375v-2.25A.125.125 0 0 0 4.875 15h-2.25Zm9.25-12.313c0-.123.091-.187.16-.187h5.304c.07 0 .161.064.161.188v14.624c0 .124-.091.188-.16.188h-5.304c-.07 0-.161-.064-.161-.188V2.688ZM13.125 5c0-.345.28-.625.625-.625h1.875a.625.625 0 1 1 0 1.25H13.75A.625.625 0 0 1 13.125 5Zm.625 1.875a.625.625 0 1 0 0 1.25h1.875a.625.625 0 1 0 0-1.25H13.75Z" clip-rule="evenodd"/>
</svg>
