<svg xmlns="http://www.w3.org/2000/svg" width="20" height="20" fill="currentColor" viewBox="0 0 20 20">
  <path fill-rule="evenodd" d="M10 2.5a.625.625 0 1 0 0 1.25.625.625 0 0 0 0-1.25Zm-1.875.625a1.875 1.875 0 1 1 3.75 0 1.875 1.875 0 0 1-3.75 0ZM10 16.25a.625.625 0 1 0 0 1.25.625.625 0 0 0 0-1.25Zm-1.875.625a1.875 1.875 0 1 1 3.75 0 1.875 1.875 0 0 1-3.75 0Zm-5-7.5a.625.625 0 1 0 0 1.25.625.625 0 0 0 0-1.25ZM1.25 10A1.875 1.875 0 1 1 5 10a1.875 1.875 0 0 1-3.75 0Zm15.625-.625a.625.625 0 1 0 0 1.25.625.625 0 0 0 0-1.25ZM15 10a1.875 1.875 0 1 1 3.75 0A1.875 1.875 0 0 1 15 10ZM5 4.375a.625.625 0 1 0 0 1.25.625.625 0 0 0 0-1.25ZM3.125 5a1.875 1.875 0 1 1 3.75 0 1.875 1.875 0 0 1-3.75 0ZM15 4.375a.625.625 0 1 0 0 1.25.625.625 0 0 0 0-1.25ZM13.125 5a1.875 1.875 0 1 1 3.75 0 1.875 1.875 0 0 1-3.75 0ZM5.02 14.388a.625.625 0 1 0-.014 1.25.625.625 0 0 0 .013-1.25Zm-1.882.605a1.875 1.875 0 1 1 3.75.04 1.875 1.875 0 0 1-3.75-.04ZM15 14.375a.625.625 0 1 0 0 1.25.625.625 0 0 0 0-1.25ZM13.125 15a1.875 1.875 0 1 1 3.75 0 1.875 1.875 0 0 1-3.75 0Z" clip-rule="evenodd"/>
  <path fill-rule="evenodd" d="M11.45 11.45a.625.625 0 0 1 .884 0l2.158 2.158a.625.625 0 1 1-.884.884l-2.158-2.158a.625.625 0 0 1 0-.884ZM5.478 5.443a.625.625 0 0 1 .883.006l2.192 2.22a.625.625 0 0 1-.89.878l-2.191-2.22a.625.625 0 0 1 .006-.884Zm9.034-.06c.25.24.257.635.018.884l-2.188 2.275a.625.625 0 1 1-.9-.867L13.628 5.4a.625.625 0 0 1 .883-.017ZM8.55 11.45a.625.625 0 0 1 0 .884l-2.22 2.22a.625.625 0 1 1-.884-.883l2.22-2.221a.625.625 0 0 1 .884 0ZM10 4.063c.345 0 .625.28.625.625V7.32a.625.625 0 1 1-1.25 0V4.688c0-.346.28-.625.625-.625Zm0 7.991c.345 0 .625.28.625.625v2.633a.625.625 0 0 1-1.25 0V12.68c0-.345.28-.625.625-.625ZM12.054 10c0-.345.28-.625.625-.625h2.633a.625.625 0 1 1 0 1.25H12.68a.625.625 0 0 1-.625-.625ZM3.75 10c0-.345.28-.625.625-.625h2.946a.625.625 0 1 1 0 1.25H4.375A.625.625 0 0 1 3.75 10Z" clip-rule="evenodd"/>
  <path fill-rule="evenodd" d="M10 8.125a1.875 1.875 0 1 0 0 3.75 1.875 1.875 0 0 0 0-3.75ZM6.875 10a3.125 3.125 0 1 1 6.25 0 3.125 3.125 0 0 1-6.25 0Z" clip-rule="evenodd"/>
</svg>
