<svg xmlns="http://www.w3.org/2000/svg" width="20" height="20" fill="currentColor" viewBox="0 0 20 20">
  <path fill-rule="evenodd" d="M10 2.458a7.542 7.542 0 1 0 0 15.084 7.542 7.542 0 0 0 0-15.084ZM1.208 10a8.792 8.792 0 1 1 17.584 0 8.792 8.792 0 0 1-17.584 0Z" clip-rule="evenodd"/>
  <path fill-rule="evenodd" d="M10 6.875c-.689 0-1.25.561-1.25 1.25s.561 1.25 1.25 1.25a2.5 2.5 0 0 1 0 5 2.499 2.499 0 0 1-2.5-2.5.625.625 0 1 1 1.25 0c0 .689.561 1.25 1.25 1.25s1.25-.561 1.25-1.25-.561-1.25-1.25-1.25a2.5 2.5 0 1 1 2.5-2.5.625.625 0 1 1-1.25 0c0-.689-.561-1.25-1.25-1.25Z" clip-rule="evenodd"/>
  <path fill-rule="evenodd" d="M10 3.75c.345 0 .625.28.625.625v1.25a.625.625 0 1 1-1.25 0v-1.25c0-.345.28-.625.625-.625Zm0 10c.345 0 .625.28.625.625v1.25a.625.625 0 1 1-1.25 0v-1.25c0-.345.28-.625.625-.625Z" clip-rule="evenodd"/>
</svg>
