<svg xmlns="http://www.w3.org/2000/svg" width="20" height="20" fill="currentColor" viewBox="0 0 20 20">
  <path fill-rule="evenodd" d="M16.944 1.879c.343.038.59.347.552.69l-.312 2.813a.625.625 0 0 1-.69.552L13.68 5.62a.625.625 0 0 1 .138-1.242l2.191.243.244-2.191a.625.625 0 0 1 .69-.552Z" clip-rule="evenodd"/>
  <path fill-rule="evenodd" d="M3.812 3.811c3.422-3.415 8.96-3.415 12.376 0a.625.625 0 1 1-.883.885c-2.928-2.928-7.675-2.928-10.61 0-2.927 2.927-2.927 7.674.001 10.609 2.927 2.927 7.675 2.927 10.609-.001A7.495 7.495 0 0 0 17.2 7.897a.625.625 0 0 1 1.2-.35c.864 2.965.13 6.3-2.212 8.641-3.422 3.416-8.96 3.416-12.376 0-3.416-3.422-3.416-8.96 0-12.376Z" clip-rule="evenodd"/>
  <path fill-rule="evenodd" d="M10 6.875c-.689 0-1.25.561-1.25 1.25s.561 1.25 1.25 1.25a2.5 2.5 0 0 1 0 5 2.499 2.499 0 0 1-2.5-2.5.625.625 0 1 1 1.25 0c0 .689.561 1.25 1.25 1.25s1.25-.561 1.25-1.25-.561-1.25-1.25-1.25a2.5 2.5 0 1 1 2.5-2.5.625.625 0 1 1-1.25 0c0-.689-.561-1.25-1.25-1.25Z" clip-rule="evenodd"/>
  <path fill-rule="evenodd" d="M10 3.75c.345 0 .625.28.625.625v1.25a.625.625 0 1 1-1.25 0v-1.25c0-.345.28-.625.625-.625Zm0 10c.345 0 .625.28.625.625v1.25a.625.625 0 1 1-1.25 0v-1.25c0-.345.28-.625.625-.625Z" clip-rule="evenodd"/>
</svg>
