<svg xmlns="http://www.w3.org/2000/svg" width="20" height="20" fill="currentColor" viewBox="0 0 20 20">
  <path fill-rule="evenodd" d="M2.458 10a7.542 7.542 0 1 1 15.084 0 7.542 7.542 0 0 1-15.084 0ZM10 1.208a8.792 8.792 0 1 0 0 17.584 8.792 8.792 0 0 0 0-17.584ZM8.75 8.125c0-.689.561-1.25 1.25-1.25s1.25.561 1.25 1.25a.625.625 0 0 0 1.25 0c0-1.17-.8-2.147-1.88-2.422a.639.639 0 0 0 .005-.078v-1.25a.625.625 0 1 0-1.25 0v1.25a.68.68 0 0 0 .005.078A2.504 2.504 0 0 0 7.5 8.125a2.5 2.5 0 0 0 2.5 2.5c.689 0 1.25.561 1.25 1.25s-.561 1.25-1.25 1.25-1.25-.561-1.25-1.25a.625.625 0 0 0-1.25 0 2.5 2.5 0 0 0 1.88 2.423.63.63 0 0 0-.005.077v1.25a.625.625 0 1 0 1.25 0v-1.25a.622.622 0 0 0-.005-.078 2.504 2.504 0 0 0 1.88-2.422 2.5 2.5 0 0 0-2.5-2.5c-.689 0-1.25-.561-1.25-1.25Z" clip-rule="evenodd"/>
</svg>
