<svg xmlns="http://www.w3.org/2000/svg" width="20" height="20" fill="currentColor" viewBox="0 0 20 20">
  <path fill-rule="evenodd" d="M3.812 3.811C7.208.423 12.687.396 16.11 3.733l.145-1.302a.625.625 0 0 1 1.242.138l-.312 2.813a.625.625 0 0 1-.69.552L13.68 5.62a.625.625 0 0 1 .138-1.242l1.308.145a7.506 7.506 0 0 0-10.432.172c-2.927 2.927-2.927 7.674.001 10.609 2.927 2.927 7.675 2.927 10.609-.001A7.495 7.495 0 0 0 17.2 7.897a.625.625 0 0 1 1.2-.35c.864 2.965.13 6.3-2.212 8.641-3.422 3.416-8.96 3.416-12.376 0-3.416-3.422-3.416-8.96 0-12.376ZM8.75 8.125c0-.689.561-1.25 1.25-1.25s1.25.561 1.25 1.25a.625.625 0 1 0 1.25 0 2.5 2.5 0 0 0-1.88-2.423.62.62 0 0 0 .005-.077v-1.25a.625.625 0 1 0-1.25 0v1.25a.68.68 0 0 0 .005.078A2.504 2.504 0 0 0 7.5 8.125a2.5 2.5 0 0 0 2.5 2.5c.689 0 1.25.561 1.25 1.25s-.561 1.25-1.25 1.25-1.25-.561-1.25-1.25a.625.625 0 1 0-1.25 0c0 1.17.8 2.147 1.88 2.422a.632.632 0 0 0-.005.078v1.25a.625.625 0 1 0 1.25 0v-1.25a.625.625 0 0 0-.005-.078 2.503 2.503 0 0 0 1.88-2.422 2.5 2.5 0 0 0-2.5-2.5c-.689 0-1.25-.561-1.25-1.25Z" clip-rule="evenodd"/>
</svg>
