<svg xmlns="http://www.w3.org/2000/svg" width="20" height="20" fill="currentColor" viewBox="0 0 20 20">
  <path fill-rule="evenodd" d="M6.233 2.5h7.522c.443 0 .856.237 1.087.618l3.73 6.23c.237.399.237.899 0 1.299l-3.724 6.234a1.264 1.264 0 0 1-1.087.619H6.24c-.444 0-.856-.237-1.087-.619l-3.724-6.234c-.237-.4-.237-.9 0-1.3l3.717-6.229A1.263 1.263 0 0 1 6.233 2.5ZM10 5c.345 0 .625.28.625.625v5a.625.625 0 1 1-1.25 0v-5c0-.345.28-.625.625-.625Zm.625 8.125a.625.625 0 1 1-1.25 0 .625.625 0 0 1 1.25 0Z" clip-rule="evenodd"/>
</svg>
