<svg xmlns="http://www.w3.org/2000/svg" width="20" height="20" fill="currentColor" viewBox="0 0 20 20">
  <path fill-rule="evenodd" d="m17.477 9.944-7.421-7.421a.079.079 0 0 0-.112 0L2.523 9.944a.08.08 0 0 0 0 .112l7.421 7.421c.031.03.08.03.112 0l7.421-7.421a.08.08 0 0 0 0-.112ZM10.94 1.64a1.329 1.329 0 0 0-1.88 0L1.64 9.061a1.329 1.329 0 0 0 0 1.879l7.42 7.42c.52.52 1.36.52 1.88 0l7.42-7.42a1.329 1.329 0 0 0 0-1.88l-7.42-7.42ZM10 5c.345 0 .625.28.625.625v5a.625.625 0 1 1-1.25 0v-5c0-.345.28-.625.625-.625Zm0 8.75a.625.625 0 1 0 0-1.25.625.625 0 0 0 0 1.25Z" clip-rule="evenodd"/>
</svg>
