<svg xmlns="http://www.w3.org/2000/svg" width="20" height="20" fill="currentColor" viewBox="0 0 20 20">
  <path fill-rule="evenodd" d="M13.755 2.5H6.233c-.444 0-.856.231-1.088.618l-3.717 6.23a1.276 1.276 0 0 0 0 1.299l3.724 6.234c.23.382.643.619 1.087.619h7.522c.444 0 .856-.231 1.087-.619l3.724-6.234c.237-.4.237-.9 0-1.3l-3.73-6.229a1.277 1.277 0 0 0-1.087-.618Zm-2.818 11.56a.938.938 0 1 1-1.875 0 .938.938 0 0 1 1.876 0Zm-.156-8.279a.781.781 0 1 0-1.562 0v5.313a.781.781 0 0 0 1.562 0V5.78Z" clip-rule="evenodd"/>
</svg>
