<svg xmlns="http://www.w3.org/2000/svg" width="20" height="20" fill="currentColor" viewBox="0 0 20 20">
  <path fill-rule="evenodd" d="M6.502 2.494c-.63 0-1.22.324-1.55.871L1.5 9.075v.001a1.787 1.787 0 0 0 0 1.842v.002l3.458 5.715.002.004a1.82 1.82 0 0 0 1.548.867h6.984c.63 0 1.22-.324 1.55-.871l3.458-5.716a1.788 1.788 0 0 0 0-1.843l-3.464-5.711-.002-.004a1.82 1.82 0 0 0-1.547-.867H6.502Zm-.47 1.525a.545.545 0 0 1 .47-.263h6.985c.189 0 .369.1.47.265l.001.001 3.46 5.705h.001c.1.167.1.374 0 .54l-3.457 5.715a.545.545 0 0 1-.47.262H6.508c-.19 0-.37-.1-.471-.265l-.001-.001-3.455-5.71v-.001a.525.525 0 0 1 0-.54l3.451-5.708ZM10 5c.345 0 .625.28.625.625v5a.625.625 0 1 1-1.25 0v-5c0-.345.28-.625.625-.625Zm.625 8.125a.625.625 0 1 1-1.25 0 .625.625 0 0 1 1.25 0Z" clip-rule="evenodd"/>
</svg>
