<svg xmlns="http://www.w3.org/2000/svg" width="20" height="20" fill="currentColor" viewBox="0 0 20 20">
  <path fill-rule="evenodd" d="M4.953 3.365c.33-.546.92-.87 1.548-.87h6.98a1.82 1.82 0 0 1 1.546.866l.002.003 3.461 5.707a1.783 1.783 0 0 1 0 1.84v.002l-3.455 5.71c-.33.547-.92.871-1.549.871H6.507a1.819 1.819 0 0 1-1.546-.867l-.002-.003-3.455-5.711v-.001a1.785 1.785 0 0 1 0-1.84V9.07l3.45-5.705Zm1.548.39c-.194 0-.37.1-.468.263L2.584 9.72c-.1.166-.1.374 0 .54l3.452 5.706.001.001a.557.557 0 0 0 .47.265h6.98c.194 0 .37-.1.468-.262l3.454-5.71c.1-.165.1-.373 0-.539l-3.457-5.7V4.02a.557.557 0 0 0-.471-.264H6.5Zm4.432 10.299a.937.937 0 1 1-1.874 0 .937.937 0 0 1 1.874 0Zm-.157-8.273a.78.78 0 0 0-1.562 0v5.308a.78.78 0 0 0 1.562 0V5.781Z" clip-rule="evenodd"/>
</svg>
