<svg xmlns="http://www.w3.org/2000/svg" width="20" height="20" fill="currentColor" viewBox="0 0 20 20">
  <path fill-rule="evenodd" d="M6.25 1.875a.625.625 0 1 0-1.25 0V5H1.875a.625.625 0 1 0 0 1.25H5v7.188c0 .417.126.826.43 1.131.306.305.715.431 1.133.431h7.187v3.097a.625.625 0 0 0 1.25 0V15h3.125a.625.625 0 1 0 0-1.25H6.562c-.171 0-.23-.048-.247-.065-.017-.016-.065-.076-.065-.248V1.875ZM7.5 5a.625.625 0 1 0 0 1.25h5.864c.213 0 .386.173.386.386V12.5a.625.625 0 1 0 1.25 0V6.636C15 5.733 14.267 5 13.364 5H7.5Z" clip-rule="evenodd"/>
</svg>
