<svg xmlns="http://www.w3.org/2000/svg" width="20" height="20" fill="currentColor" viewBox="0 0 20 20">
  <path fill-rule="evenodd" d="m2.224 5.024 7.38-3.633a.627.627 0 0 1 .414-.14c.151-.005.3.046.417.143l7.333 3.666a.627.627 0 0 1 .357.565v8.737c0 .028 0 .056-.004.083a.625.625 0 0 1-.354.495l-7.475 3.738a.618.618 0 0 1-.583 0L2.233 14.94a.625.625 0 0 1-.358-.58V5.606a.625.625 0 0 1 .349-.58Zm8.401 12.09 6.25-3.125V6.636l-6.25 3.125v7.353ZM9.375 9.76v7.353l-6.25-3.125V6.636l6.25 3.125Zm.64-7.18 6.087 3.044L10 8.676 3.866 5.61l6.15-3.027Z" clip-rule="evenodd"/>
</svg>
