<svg xmlns="http://www.w3.org/2000/svg" width="20" height="20" fill="none" viewBox="0 0 20 20">
  <path fill="#3D3C3C" fill-rule="evenodd" d="m2.224 5.024 7.38-3.633a.627.627 0 0 1 .414-.14c.151-.005.3.046.417.143l7.333 3.666a.63.63 0 0 1 .357.565v8.737a.631.631 0 0 1-.358.579l-7.475 3.737a.616.616 0 0 1-.428.057.62.62 0 0 1-.155-.057L2.233 14.94a.625.625 0 0 1-.358-.58V5.606a.625.625 0 0 1 .349-.58Zm8.401 12.09 6.25-3.125V6.636l-6.25 3.125v7.353ZM9.375 9.76v7.353l-6.25-3.125V6.636l6.25 3.125Zm.64-7.18 6.087 3.044L10 8.676 3.866 5.61l6.15-3.027Z" clip-rule="evenodd"/>
</svg>
