<svg xmlns="http://www.w3.org/2000/svg" width="20" height="20" fill="currentColor" viewBox="0 0 20 20">
  <path fill-rule="evenodd" d="M1.433 1.433a.625.625 0 0 1 .884 0l2.84 2.84A7.47 7.47 0 0 1 10 2.5a7.47 7.47 0 0 1 4.843 1.773l2.84-2.84a.625.625 0 1 1 .884.884l-2.84 2.84A7.47 7.47 0 0 1 17.5 10a7.47 7.47 0 0 1-1.773 4.843l2.84 2.84a.625.625 0 1 1-.884.884l-2.84-2.84A7.47 7.47 0 0 1 10 17.5a7.47 7.47 0 0 1-4.843-1.773l-2.84 2.84a.625.625 0 1 1-.884-.884l2.84-2.84A7.47 7.47 0 0 1 2.5 10a7.47 7.47 0 0 1 1.773-4.843l-2.84-2.84a.625.625 0 0 1 0-.884ZM3.75 10a6.25 6.25 0 1 1 12.5 0 6.25 6.25 0 0 1-12.5 0Z" clip-rule="evenodd"/>
</svg>
