<svg xmlns="http://www.w3.org/2000/svg" width="20" height="20" fill="currentColor" viewBox="0 0 20 20">
  <path fill-rule="evenodd" d="M3.75 2.5c-.69 0-1.25.56-1.25 1.25v5a.625.625 0 1 0 1.25 0v-5h5a.625.625 0 1 0 0-1.25h-5Zm7.5 0a.625.625 0 1 0 0 1.25h5v5a.625.625 0 1 0 1.25 0v-5c0-.69-.56-1.25-1.25-1.25h-5Zm5.625 8.125c.345 0 .625.28.625.625v5c0 .69-.56 1.25-1.25 1.25h-5a.625.625 0 1 1 0-1.25h5v-5c0-.345.28-.625.625-.625ZM3.75 11.25a.625.625 0 1 0-1.25 0v5c0 .69.56 1.25 1.25 1.25h5a.625.625 0 1 0 0-1.25h-5v-5Zm6.25 0a1.25 1.25 0 1 0 0-2.5 1.25 1.25 0 0 0 0 2.5Zm-4.25-.113a5.503 5.503 0 0 0 4.245 1.988 5.494 5.494 0 0 0 4.247-1.988l.613-.737a.623.623 0 0 0 0-.8l-.613-.737a5.494 5.494 0 0 0-4.247-1.988A5.494 5.494 0 0 0 5.75 8.863s-.444.512-.613.737c-.166.22-.193.556-.01.787l.623.75Zm.962-.8L6.431 10l.281-.338a4.252 4.252 0 0 1 3.283-1.537c1.276 0 2.477.563 3.284 1.537l.281.338-.281.338a4.246 4.246 0 0 1-3.284 1.53 4.237 4.237 0 0 1-3.283-1.53Z" clip-rule="evenodd"/>
</svg>
