<svg xmlns="http://www.w3.org/2000/svg" width="20" height="20" fill="currentColor" viewBox="0 0 20 20">
  <path fill-rule="evenodd" d="M4.651 2.5c-.48 0-.901.41-.901.935V5h.625a.625.625 0 1 1 0 1.25h-2.5a.625.625 0 1 1 0-1.25H2.5V3.435c0-1.19.955-2.185 2.151-2.185h10.073c1.196 0 2.151.996 2.151 2.185v4.69a.625.625 0 1 1-1.25 0v-4.69c0-.525-.42-.935-.901-.935H4.65ZM3.125 15.594c.345 0 .625.28.625.624v.347c0 .525.42.935.901.935h3.474a.625.625 0 1 1 0 1.25H4.651c-1.196 0-2.151-.996-2.151-2.185v-.347c0-.345.28-.624.625-.624ZM1.25 10c0-.345.28-.625.625-.625H2.5V7.5a.625.625 0 1 1 1.25 0v1.875h.625a.625.625 0 1 1 0 1.25h-2.5A.625.625 0 0 1 1.25 10Zm0 4.375c0-.345.28-.625.625-.625H2.5v-1.875a.625.625 0 1 1 1.25 0v1.875h.625a.625.625 0 1 1 0 1.25h-2.5a.625.625 0 0 1-.625-.625Zm9.122 4.006c.238.238.556.369.888.369v-.006c.106 0 .206-.013.312-.038l1.52-.38a.605.605 0 0 0 .287-.163l4.79-4.787a1.976 1.976 0 0 0 0-2.8 1.99 1.99 0 0 0-2.802 0l-4.789 4.8a.598.598 0 0 0-.162.287l-.382 1.518h.007c-.113.438.012.882.331 1.2Zm.875-.893v-.006l.338-1.35 4.67-4.668a.725.725 0 0 1 1.032 0 .735.735 0 0 1 0 1.03l-4.664 4.663-1.376.33Z" clip-rule="evenodd"/>
</svg>
