<svg xmlns="http://www.w3.org/2000/svg" width="20" height="20" fill="currentColor" viewBox="0 0 20 20">
  <path fill-rule="evenodd" d="M3.75 11.875c.345 0 .625.28.625.625v3.499c0 .133.109.251.26.251H8.75a.625.625 0 1 1 0 1.25H4.636a1.504 1.504 0 0 1-1.511-1.501V12.5c0-.345.28-.625.625-.625Z" clip-rule="evenodd"/>
  <path fill-rule="evenodd" d="M7.058 15.183a.625.625 0 0 1 .884 0l1.25 1.25a.625.625 0 0 1 0 .884l-1.25 1.25a.625.625 0 1 1-.884-.884l.808-.808-.808-.808a.625.625 0 0 1 0-.884Zm3.567-12.058c0-.345.28-.625.625-.625h4.031c.823 0 1.594.615 1.594 1.501V7.5a.625.625 0 1 1-1.25 0V4.001c0-.082-.092-.251-.344-.251H11.25a.625.625 0 0 1-.625-.625Z" clip-rule="evenodd"/>
  <path fill-rule="evenodd" d="M12.942 1.433a.625.625 0 0 1 0 .884l-.808.808.808.808a.625.625 0 1 1-.884.884l-1.25-1.25a.625.625 0 0 1 0-.884l1.25-1.25a.625.625 0 0 1 .884 0ZM5.313 2.5a.937.937 0 1 0 0 1.875.937.937 0 0 0 0-1.875Zm-2.188.938a2.188 2.188 0 1 1 4.375 0 2.188 2.188 0 0 1-4.375 0ZM1.25 7.98a1.71 1.71 0 0 1 1.705-1.73H7.67c.957 0 1.705.788 1.705 1.724v.005l-.012 1.696a.945.945 0 0 1-.945.944h-.006c-.784-.008-2.844-.002-4.443.002l-1.756.004a.952.952 0 0 1-.951-.95v-.003h.625l-.625.004v-.001L1.25 7.98l.625-.006-.625.005Zm1.705-.48a.46.46 0 0 0-.455.468v.002l.01 1.405c.368 0 .872-.002 1.436-.004 1.425-.004 3.23-.008 4.17-.004l.009-1.395A.465.465 0 0 0 7.67 7.5H2.955Zm11.733 3.125a.937.937 0 1 0 0 1.875.937.937 0 0 0 0-1.875Zm-2.188.938a2.188 2.188 0 1 1 4.375 0 2.188 2.188 0 0 1-4.375 0Zm-1.875 4.542a1.711 1.711 0 0 1 1.706-1.73h4.713c.957 0 1.706.787 1.706 1.724v.003l-.006 1.479v.01a1.175 1.175 0 0 1-1.171 1.153h-.003c-.814-.003-2.414 0-3.8.003l-1.968.003c-.64 0-1.163-.52-1.165-1.163l-.012-1.482Zm1.706-.48a.461.461 0 0 0-.456.468v.001l.011 1.406 1.871-.003c1.345-.003 2.898-.006 3.737-.003l.006-1.395a.465.465 0 0 0-.456-.474h-4.713Z" clip-rule="evenodd"/>
</svg>
