<svg xmlns="http://www.w3.org/2000/svg" width="20" height="20" fill="currentColor" viewBox="0 0 20 20">
  <path fill-rule="evenodd" d="M2.5 3.125c0-.374.282-.625.565-.625h3.87c.283 0 .565.25.565.625V5c0 .374-.282.625-.565.625h-3.87c-.283 0-.565-.25-.565-.625V3.125Zm.565-1.875c-1.03 0-1.815.869-1.815 1.875V5c0 1.006.784 1.875 1.815 1.875h3.87c1.03 0 1.815-.869 1.815-1.875V3.125c0-1.006-.784-1.875-1.815-1.875h-3.87ZM2.5 9.94c0-.312.253-.565.565-.565h3.87c.312 0 .565.253.565.565v6.995a.565.565 0 0 1-.565.565h-3.87a.565.565 0 0 1-.565-.566V9.94Zm.565-1.815A1.815 1.815 0 0 0 1.25 9.94v6.995c0 1.002.813 1.815 1.815 1.815h3.87a1.815 1.815 0 0 0 1.815-1.816V9.94a1.815 1.815 0 0 0-1.815-1.815h-3.87Zm13.87 9.375c.283 0 .565-.25.565-.625V15c0-.374-.282-.625-.566-.625h-3.869c-.283 0-.565.25-.565.625v1.875c0 .374.282.625.566.625h3.868Zm1.815-.625c0 1.006-.784 1.875-1.816 1.875h-3.869c-1.03 0-1.815-.869-1.815-1.875V15c0-1.006.784-1.875 1.816-1.875h3.868c1.032 0 1.816.869 1.816 1.875v1.875Zm-1.25-6.816a.566.566 0 0 1-.566.566h-3.869a.566.566 0 0 1-.565-.566V3.066c0-.312.253-.565.566-.565h3.868c.313 0 .566.253.566.565v6.995Zm-.566 1.816a1.815 1.815 0 0 0 1.816-1.816V3.066a1.815 1.815 0 0 0-1.816-1.815h-3.869a1.815 1.815 0 0 0-1.815 1.815v6.995c0 1.002.813 1.815 1.816 1.815h3.868Z" clip-rule="evenodd"/>
</svg>
