<svg xmlns="http://www.w3.org/2000/svg" width="20" height="20" fill="currentColor" viewBox="0 0 20 20">
  <path fill-rule="evenodd" d="M3.065 2.5c-.283 0-.565.25-.565.625V5c0 .374.282.625.565.625h3.87c.283 0 .565-.25.565-.625V3.125c0-.374-.282-.625-.565-.625h-3.87Zm-1.815.625c0-1.006.784-1.875 1.815-1.875h3.87c1.03 0 1.815.869 1.815 1.875V5c0 1.006-.784 1.875-1.815 1.875h-3.87C2.035 6.875 1.25 6.006 1.25 5V3.125Zm1.815 6.25a.565.565 0 0 0-.565.565v6.995c0 .312.253.565.565.565h3.87a.565.565 0 0 0 .565-.566V9.94a.565.565 0 0 0-.565-.565h-3.87ZM1.25 9.94c0-1.002.813-1.815 1.815-1.815h3.87c1.002 0 1.815.813 1.815 1.815v6.995a1.815 1.815 0 0 1-1.815 1.815h-3.87a1.815 1.815 0 0 1-1.815-1.816V9.94Zm15.684 7.56c.284 0 .566-.25.566-.625V15c0-.374-.282-.625-.566-.625h-3.869c-.283 0-.565.25-.565.625v1.875c0 .374.282.625.566.625h3.868Zm1.816-.625c0 1.006-.784 1.875-1.816 1.875h-3.869c-1.03 0-1.815-.869-1.815-1.875V15c0-1.006.784-1.875 1.816-1.875h3.868c1.032 0 1.816.869 1.816 1.875v1.875Zm-1.816-6.25a.566.566 0 0 0 .566-.566V3.066a.565.565 0 0 0-.566-.565h-3.869a.565.565 0 0 0-.565.565v6.995c0 .312.253.565.566.565h3.868Zm1.816-.566a1.815 1.815 0 0 1-1.816 1.816h-3.869a1.815 1.815 0 0 1-1.815-1.816V3.066c0-1.002.813-1.815 1.816-1.815h3.868c1.003 0 1.816.813 1.816 1.815v6.995Z" clip-rule="evenodd"/>
</svg>
