<svg xmlns="http://www.w3.org/2000/svg" width="20" height="20" fill="currentColor" viewBox="0 0 20 20">
  <path fill-rule="evenodd" d="M13.75 2.5h-7.5C5.56 2.5 5 3.06 5 3.75v12.5c0 .69.56 1.25 1.25 1.25h7.5c.69 0 1.25-.56 1.25-1.25V3.75c0-.69-.56-1.25-1.25-1.25Zm-7.5-1.25a2.5 2.5 0 0 0-2.5 2.5v12.5a2.5 2.5 0 0 0 2.5 2.5h7.5a2.5 2.5 0 0 0 2.5-2.5V3.75a2.5 2.5 0 0 0-2.5-2.5h-7.5Z" clip-rule="evenodd"/>
  <path fill-rule="evenodd" d="M15.625 8.125H4.375v-1.25h11.25v1.25Zm0 5H4.375v-1.25h11.25v1.25Z" clip-rule="evenodd"/>
  <path d="M6.25 5A.625.625 0 1 1 7.5 5a.625.625 0 0 1-1.25 0Zm0 5a.625.625 0 1 1 1.25 0 .625.625 0 0 1-1.25 0Zm0 5a.625.625 0 1 1 1.25 0 .625.625 0 0 1-1.25 0Z"/>
</svg>
