<svg xmlns="http://www.w3.org/2000/svg" width="20" height="20" fill="currentColor" viewBox="0 0 20 20">
  <path d="M10.625 1.25c1.726 0 3.125 1.4 3.125 3.125v5a.625.625 0 1 1-1.25 0v-1.25h-10v3.75h6.25a.625.625 0 1 1 0 1.25H2.5v2.5c0 1.035.84 1.875 1.875 1.875H6.25a.625.625 0 1 1 0 1.25H4.375a3.125 3.125 0 0 1-3.125-3.125V4.375c0-1.726 1.4-3.125 3.125-3.125h6.25Zm2.863 9.375c1.592 0 2.904 1.103 3.333 2.572.47.124.885.4 1.201.746.435.477.728 1.131.728 1.836 0 1.563-1.007 2.97-2.663 2.971h-5.532c-1.38 0-2.43-1.159-2.43-2.499 0-.963.588-1.87 1.51-2.246h.002c.125-.05.25-.086.38-.109.173-1.813 1.636-3.271 3.471-3.271Zm0 1.25c-1.14 0-2.12.922-2.228 2.156.25.12.4.394.347.679a.625.625 0 0 1-.73.498l-.259-.048-.033-.008a.807.807 0 0 0-.39-.018l-.089.028a1.19 1.19 0 0 0-.731 1.089c0 .706.545 1.249 1.18 1.249h5.532c.78 0 1.413-.646 1.413-1.72 0-.361-.153-.722-.4-.994-.25-.274-.553-.411-.816-.411a.973.973 0 0 0-.61.184.625.625 0 0 1-.742-1.005c.168-.125.362-.232.584-.307-.36-.821-1.144-1.372-2.028-1.372Zm-9.113 2.5a.625.625 0 1 1 0 1.25.625.625 0 0 1 0-1.25Zm0-5a.625.625 0 1 1 0 1.25.625.625 0 0 1 0-1.25Zm0-6.875C3.339 2.5 2.5 3.34 2.5 4.375v2.5h10v-2.5c0-1.036-.84-1.875-1.875-1.875h-6.25Zm0 1.875a.625.625 0 1 1 0 1.25.625.625 0 0 1 0-1.25Z"/>
</svg>
