<svg xmlns="http://www.w3.org/2000/svg" width="20" height="20" fill="currentColor" viewBox="0 0 20 20">
  <path fill-rule="evenodd" d="M6.25 2.5h7.5c.69 0 1.25.56 1.25 1.25v3.125H5V3.75c0-.69.56-1.25 1.25-1.25ZM5 8.125v3.75h10v-3.75H5Zm0 8.125v-3.125h10v3.125c0 .69-.56 1.25-1.25 1.25h-7.5c-.69 0-1.25-.56-1.25-1.25ZM3.75 3.75a2.5 2.5 0 0 1 2.5-2.5h7.5a2.5 2.5 0 0 1 2.5 2.5v12.5a2.5 2.5 0 0 1-2.5 2.5h-7.5a2.5 2.5 0 0 1-2.5-2.5V3.75Zm3.125.625a.625.625 0 1 0 0 1.25.625.625 0 0 0 0-1.25ZM6.25 10a.625.625 0 1 1 1.25 0 .625.625 0 0 1-1.25 0Zm.625 4.375a.625.625 0 1 0 0 1.25.625.625 0 0 0 0-1.25Z" clip-rule="evenodd"/>
</svg>
