<svg xmlns="http://www.w3.org/2000/svg" width="20" height="20" fill="currentColor" viewBox="0 0 20 20">
  <path fill-rule="evenodd" d="M4.375 1.25A3.125 3.125 0 0 0 1.25 4.375v11.25c0 1.726 1.4 3.125 3.125 3.125h5a.625.625 0 1 0 0-1.25h-5A1.875 1.875 0 0 1 2.5 15.625v-2.5h6.25a.625.625 0 1 0 0-1.25H2.5v-3.75h10v.625a.625.625 0 1 0 1.25 0V4.375c0-1.726-1.4-3.125-3.125-3.125h-6.25ZM2.5 6.875h10v-2.5c0-1.036-.84-1.875-1.875-1.875h-6.25C3.339 2.5 2.5 3.34 2.5 4.375v2.5Zm1.875-2.5a.625.625 0 1 0 0 1.25.625.625 0 0 0 0-1.25ZM3.75 10A.625.625 0 1 1 5 10a.625.625 0 0 1-1.25 0Zm.625 4.375a.625.625 0 1 0 0 1.25.625.625 0 0 0 0-1.25Zm9.375-3.125a2.5 2.5 0 1 0 0 5 2.5 2.5 0 0 0 0-5ZM10 13.75a3.75 3.75 0 1 1 6.807 2.173l1.76 1.76a.625.625 0 1 1-.884.884l-1.76-1.76A3.75 3.75 0 0 1 10 13.75Z" clip-rule="evenodd"/>
</svg>
