<svg xmlns="http://www.w3.org/2000/svg" width="20" height="20" fill="currentColor" viewBox="0 0 20 20">
  <path fill-rule="evenodd" d="M5 1.25a3.125 3.125 0 0 0-3.125 3.125v11.25c0 1.726 1.4 3.125 3.125 3.125h2.5a.625.625 0 1 0 0-1.25H5a1.875 1.875 0 0 1-1.875-1.875v-2.5h5a.625.625 0 1 0 0-1.25h-5v-3.75h11.25a.625.625 0 1 0 1.25 0v-3.75c0-1.726-1.4-3.125-3.125-3.125H5ZM3.125 6.875h11.25v-2.5c0-1.036-.84-1.875-1.875-1.875H5c-1.036 0-1.875.84-1.875 1.875v2.5Zm2.5-2.5a.625.625 0 1 0 0 1.25.625.625 0 0 0 0-1.25ZM5 10a.625.625 0 1 1 1.25 0A.625.625 0 0 1 5 10Zm.625 4.375a.625.625 0 1 0 0 1.25.625.625 0 0 0 0-1.25Zm4.375 0a4.375 4.375 0 1 1 8.75 0 4.375 4.375 0 0 1-8.75 0Zm4.375-3.125a3.125 3.125 0 1 0 0 6.25 3.125 3.125 0 0 0 0-6.25Zm1.762 2.234a.625.625 0 0 0-1.024-.718l-1.239 1.768-.236-.34a.625.625 0 1 0-1.026.715l.748 1.073a.625.625 0 0 0 1.025.002l1.752-2.5Z" clip-rule="evenodd"/>
</svg>
