<svg xmlns="http://www.w3.org/2000/svg" width="20" height="20" fill="currentColor" viewBox="0 0 20 20">
  <path d="M9.688 1.25c1.86 0 3.57.25 4.837.673.63.21 1.186.474 1.596.798.185.146.357.32.491.521a.623.623 0 0 1 .263.508v12.123c0 .577-.34 1.035-.746 1.364-.41.334-.967.605-1.598.822-1.268.434-2.98.691-4.844.691-1.863 0-3.576-.259-4.844-.694-.631-.217-1.187-.489-1.597-.822-.405-.328-.746-.785-.746-1.361V3.75c0-.21.103-.394.262-.508.134-.2.307-.375.492-.521.41-.324.965-.588 1.596-.798C6.116 1.5 7.827 1.25 9.688 1.25ZM3.75 15.873c0 .045.026.18.284.39.254.206.66.42 1.215.611 1.106.38 2.675.626 4.439.626 1.763 0 3.332-.245 4.438-.624.556-.19.961-.404 1.215-.61.258-.21.284-.346.284-.393v-2.166c-.317.198-.68.372-1.073.521-1.275.486-2.995.772-4.864.772-1.87 0-3.59-.287-4.865-.773a6.214 6.214 0 0 1-1.073-.523v2.169ZM5 15a.625.625 0 1 1 0 1.25A.625.625 0 0 1 5 15Zm-1.25-3.125c0 .106.054.278.309.508.254.23.658.464 1.21.675 1.1.419 2.661.692 4.418.692 1.758 0 3.32-.271 4.42-.69.551-.21.955-.445 1.21-.674.253-.23.308-.403.308-.511v-2.24c-.33.16-.71.3-1.125.418-1.258.359-2.96.572-4.815.572-1.856 0-3.556-.214-4.813-.573a6.961 6.961 0 0 1-1.122-.418v2.241ZM5 10.937a.625.625 0 1 1 0 1.25.625.625 0 0 1 0-1.25ZM15.625 5.73a6.5 6.5 0 0 1-1.1.472c-1.267.422-2.977.673-4.838.673-1.86 0-3.57-.25-4.837-.673a6.5 6.5 0 0 1-1.1-.472v2.38c.007.015.046.096.24.227.255.172.664.352 1.226.513 1.116.319 2.696.525 4.469.525 1.773 0 3.354-.205 4.471-.523.563-.161.974-.34 1.229-.513.194-.132.233-.212.24-.229V5.73ZM5 6.875a.625.625 0 1 1 0 1.25.625.625 0 0 1 0-1.25ZM9.688 2.5c-1.764 0-3.335.24-4.443.608-.557.186-.964.394-1.218.594-.26.206-.277.332-.277.36 0 .029.017.155.277.36.254.2.66.409 1.218.595 1.108.369 2.679.608 4.442.608 1.764 0 3.335-.24 4.443-.608.557-.186.964-.394 1.218-.594.26-.206.277-.332.277-.36 0-.029-.017-.155-.277-.36-.254-.2-.66-.409-1.218-.595-1.108-.368-2.68-.608-4.443-.608Z"/>
</svg>
