<svg xmlns="http://www.w3.org/2000/svg" width="20" height="20" fill="currentColor" viewBox="0 0 20 20">
  <path fill-rule="evenodd" d="M1.25 4.375c0-1.726 1.4-3.125 3.125-3.125h6.25c1.726 0 3.125 1.4 3.125 3.125V8.75a.625.625 0 1 1-1.25 0v-.625h-10v3.75h6.25a.625.625 0 1 1 0 1.25H2.5v2.5c0 1.035.84 1.875 1.875 1.875h5a.625.625 0 1 1 0 1.25h-5a3.125 3.125 0 0 1-3.125-3.125V4.375Zm11.25 2.5h-10v-2.5c0-1.036.84-1.875 1.875-1.875h6.25c1.036 0 1.875.84 1.875 1.875v2.5ZM3.75 5A.625.625 0 1 1 5 5a.625.625 0 0 1-1.25 0Zm.625 4.375a.625.625 0 1 0 0 1.25.625.625 0 0 0 0-1.25ZM3.75 15A.625.625 0 1 1 5 15a.625.625 0 0 1-1.25 0Zm6.377-4.4c.2-.369.597-.597 1.04-.6h6.407c.447 0 .848.229 1.049.6.21.39.166.886-.19 1.241v.002L16.25 14.01v2.24c0 .143-.049.28-.138.392l-1.34 1.663c-.305.387-.783.532-1.214.395a1.076 1.076 0 0 1-.746-1.044v-3.61l-1.11-.91a.613.613 0 0 1-.031-.027l-1.34-1.254a1.035 1.035 0 0 1-.204-1.255Zm7.128.65h-5.741l.996.932 1.324 1.085a.625.625 0 0 1 .229.483v3.444L15 16.03v-2.28c0-.166.066-.326.184-.443l2.071-2.057Z" clip-rule="evenodd"/>
</svg>
