<svg xmlns="http://www.w3.org/2000/svg" width="20" height="20" fill="currentColor" viewBox="0 0 20 20">
  <path fill-rule="evenodd" d="M9.375 2.895c0-.063.03-.15.137-.237A.778.778 0 0 1 10 2.5c.206 0 .378.07.493.161.101.081.132.167.132.234v.23h-1.25v-.23Zm-1.25.23v-.23c0-1.024.968-1.645 1.875-1.645.482 0 .932.16 1.275.436.358.287.6.715.6 1.21v.229h3.75a.625.625 0 1 1 0 1.25H4.375a.625.625 0 1 1 0-1.25h3.75ZM5 7.072v.001l.54 8.089a2.537 2.537 0 0 0 2.52 2.38h3.644a2.537 2.537 0 0 0 2.52-2.38l.54-8.101a.169.169 0 0 0-.16-.181H5.166c-.084 0-.173.078-.167.192Zm6.722 11.72H8.06c-1.988 0-3.635-1.554-3.767-3.547l-.54-8.093c-.051-.807.58-1.522 1.414-1.522h9.436c.822 0 1.46.704 1.408 1.51v.002l-.54 8.103c-.132 1.986-1.768 3.537-3.749 3.547ZM8.125 8.75c.345 0 .625.28.625.625v5.56a.625.625 0 0 1-1.25 0v-5.56c0-.345.28-.625.625-.625Zm4.375.625a.625.625 0 1 0-1.25 0v5.56a.625.625 0 0 0 1.25 0v-5.56Z" clip-rule="evenodd"/>
</svg>
