<svg xmlns="http://www.w3.org/2000/svg" width="20" height="20" fill="none" viewBox="0 0 20 20">
  <path fill="#3D3C3C" fill-rule="evenodd" d="M5.625 13.75a1.25 1.25 0 1 0 0 2.5 1.25 1.25 0 0 0 0-2.5ZM3.125 15a2.5 2.5 0 1 1 5 0 2.5 2.5 0 0 1-5 0Zm11.25-1.25a1.25 1.25 0 1 0 0 2.5 1.25 1.25 0 0 0 0-2.5Zm-2.5 1.25a2.5 2.5 0 1 1 5 0 2.5 2.5 0 0 1-5 0Z" clip-rule="evenodd"/>
  <path fill="#3D3C3C" fill-rule="evenodd" d="M6.875 15.625c0-.345.28-.625.625-.625h4.527a.625.625 0 1 1 0 1.25H7.5a.625.625 0 0 1-.625-.625Zm11.25-6.25c.345 0 .625.28.625.625v3.834a.625.625 0 1 1-1.25 0V10c0-.345.28-.625.625-.625ZM1.875 2.5c.345 0 .625.28.625.625V13.75a.625.625 0 1 1-1.25 0V3.125c0-.345.28-.625.625-.625Z" clip-rule="evenodd"/>
  <path fill="#3D3C3C" fill-rule="evenodd" d="M1.25 3.125c0-.345.28-.625.625-.625h8.75a.625.625 0 1 1 0 1.25h-8.75a.625.625 0 0 1-.625-.625ZM10 4.375c0-.345.28-.625.625-.625h6.25a.625.625 0 1 1 0 1.25h-6.25A.625.625 0 0 1 10 4.375Z" clip-rule="evenodd"/>
  <path fill="#3D3C3C" fill-rule="evenodd" d="M10.625 2.5c.345 0 .625.28.625.625v6.9a.625.625 0 1 1-1.25 0v-6.9c0-.345.28-.625.625-.625Zm-9.27 10.903a.625.625 0 0 1 .867-.173l1.875 1.25a.625.625 0 1 1-.694 1.04l-1.875-1.25a.625.625 0 0 1-.173-.867Zm14.27 2.222c0-.345.28-.625.625-.625h.782a.625.625 0 1 1 0 1.25h-.782a.625.625 0 0 1-.625-.625ZM13.125 10c0-.345.28-.625.625-.625h4.375a.625.625 0 1 1 0 1.25H13.75a.625.625 0 0 1-.625-.625Z" clip-rule="evenodd"/>
  <path fill="#3D3C3C" fill-rule="evenodd" d="M16.74 3.765a.625.625 0 0 1 .745.474l1.25 5.625a.625.625 0 0 1-1.22.272l-1.25-5.625a.625.625 0 0 1 .474-.746Zm-2.99-.015c.345 0 .625.28.625.625V10a.625.625 0 1 1-1.25 0V4.375c0-.345.28-.625.625-.625Zm4.375 9.375c.345 0 .625.28.625.625 0 .623-.167 1.216-.47 1.671-.3.451-.785.829-1.405.829a.625.625 0 0 1 0-1.25c.07 0 .212-.043.364-.272.149-.223.26-.568.26-.978 0-.345.28-.625.626-.625Z" clip-rule="evenodd"/>
</svg>
