<svg xmlns="http://www.w3.org/2000/svg" width="20" height="20" fill="currentColor" viewBox="0 0 20 20">
  <path d="M13.125 10c.69 0 1.25.56 1.25 1.25V15c0 .69-.56 1.25-1.25 1.25h-2.5v1.25h1.25a.625.625 0 1 1 0 1.25h-3.75a.625.625 0 1 1 0-1.25h1.25v-1.25h-2.5l-.128-.007A1.25 1.25 0 0 1 5.625 15v-3.75c0-.69.56-1.25 1.25-1.25h6.25Zm-6.25 5h6.25v-3.75h-6.25V15ZM9.771 1.25c2.438 0 4.561 1.459 5.202 3.54a.62.62 0 0 1 .024.211c.998.02 1.925.496 2.599 1.188.688.708 1.154 1.684 1.154 2.735 0 1.785-.661 3.48-2.257 4.152a.626.626 0 0 1-.486-1.152c.93-.392 1.493-1.455 1.493-3 0-.68-.305-1.355-.8-1.863-.496-.51-1.14-.81-1.765-.811-.613 0-1.035.171-1.344.386a.626.626 0 0 1-.713-1.028c.26-.18.559-.333.903-.441 0-.004-.003-.007-.004-.01C13.32 3.67 11.737 2.5 9.771 2.5c-2.366 0-4.146 1.676-4.146 3.585v.165c0 .03-.005.058-.009.086l.254.045a.626.626 0 0 1-.217 1.231l-.449-.079-.031-.006c-.433-.1-.743-.085-1.017-.003l-.115.04C3.086 7.927 2.5 8.802 2.5 9.688c0 .974.602 1.838 1.495 2.218a.626.626 0 0 1-.49 1.15C2.177 12.493 1.25 11.192 1.25 9.69c0-1.433.934-2.755 2.346-3.293.253-.097.51-.154.779-.176v-.135c0-2.742 2.491-4.835 5.396-4.835Z"/>
</svg>
