<svg xmlns="http://www.w3.org/2000/svg" width="20" height="20" fill="currentColor" viewBox="0 0 20 20">
  <path fill-rule="evenodd" d="M3.48 3.75a.965.965 0 0 0-.98.95v7.175h15V4.7a.965.965 0 0 0-.98-.95H3.48Zm14.02 9.375h-15v.3c0 .514.427.95.98.95h13.04c.553 0 .98-.436.98-.95v-.3ZM1.25 12.5v.925c0 1.226 1.01 2.2 2.23 2.2h5.895V17.5H6.25a.625.625 0 1 0 0 1.25h7.5a.625.625 0 1 0 0-1.25h-3.125v-1.875h5.895c1.22 0 2.23-.974 2.23-2.2V4.7c0-1.226-1.01-2.2-2.23-2.2H3.48c-1.22 0-2.23.974-2.23 2.2v7.8Zm10.543-6.572a.617.617 0 0 0-.231-.849.633.633 0 0 0-.855.243l-2.5 4.375a.617.617 0 0 0 .231.849c.3.167.683.058.855-.243l2.5-4.375Zm-4.528-.166c.27.216.314.609.098.878l-.938 1.173.938 1.172a.625.625 0 0 1-.976.78l-1.25-1.562a.625.625 0 0 1 0-.78l1.25-1.563a.625.625 0 0 1 .878-.098Zm5.47 0a.625.625 0 0 1 .878.098l1.25 1.562a.625.625 0 0 1 0 .78l-1.25 1.563a.625.625 0 1 1-.976-.78l.938-1.172-.938-1.173a.625.625 0 0 1 .098-.878Z" clip-rule="evenodd"/>
</svg>
