<svg xmlns="http://www.w3.org/2000/svg" width="20" height="20" fill="currentColor" viewBox="0 0 20 20">
  <path fill-rule="evenodd" d="M6.675 18.587a1.069 1.069 0 0 0 .87.122 1.13 1.13 0 0 0 .705-.56l.67-1.306c.7.122 1.5.128 2.107-.006l.723 1.312a1.13 1.13 0 0 0 1.575.438l2.118-1.284c.53-.32.717-1.032.414-1.58l-.73-1.336a6.477 6.477 0 0 0 1.039-1.937h1.44c.63 0 1.144-.525 1.144-1.172V8.716c0-.648-.513-1.173-1.143-1.173l-1.406.018a7.402 7.402 0 0 0-1.068-1.972l.724-1.318a1.192 1.192 0 0 0-.414-1.581l-2.118-1.284a1.13 1.13 0 0 0-1.575.438l-.67 1.307c-.695-.117-1.512-.129-2.107.011L8.25 1.851a1.13 1.13 0 0 0-1.575-.438L4.558 2.691a1.192 1.192 0 0 0-.415 1.58l.73 1.336a6.544 6.544 0 0 0-1.039 1.937h-1.44c-.63 0-1.144.525-1.144 1.173v2.56c0 .648.513 1.173 1.143 1.173l1.406-.018a7.404 7.404 0 0 0 1.068 1.972l-.724 1.319a1.192 1.192 0 0 0 .415 1.58l2.117 1.284Zm5.378-2.31a1.137 1.137 0 0 0-.986-.595.955.955 0 0 0-.18.017c-.572.1-1.19.1-1.762 0a1.129 1.129 0 0 0-1.173.583l-.67 1.313-2.112-1.307.723-1.318c.228-.42.187-.928-.099-1.295a5.847 5.847 0 0 1-.898-1.633 1.142 1.142 0 0 0-1.068-.759H2.417l-.024-2.566h1.441a1.14 1.14 0 0 0 1.068-.753c.221-.6.519-1.149.898-1.633.292-.368.327-.875.1-1.295l-.73-1.342 2.065-1.289.723 1.312c.24.432.706.665 1.173.584.566-.1 1.19-.1 1.761 0 .461.081.934-.158 1.167-.584l.671-1.312 2.112 1.307-.724 1.318c-.227.42-.186.927.1 1.295.379.484.682 1.032.898 1.633.163.45.595.753 1.067.753h1.412l.023 2.566h-1.44a1.14 1.14 0 0 0-1.068.753c-.222.6-.52 1.15-.898 1.633a1.176 1.176 0 0 0-.1 1.295l.73 1.342-2.065 1.29-.724-1.313ZM6.216 10c0-.734.563-1.284 1.209-1.284.53 0 1.03.328 1.44.756a4.56 4.56 0 0 1 .612.802l.006.01v.002l.002.003.003.006.013.021.042.072a5.736 5.736 0 0 0 .74.96c.49.508 1.279 1.118 2.292 1.118 1.342 0 2.39-1.125 2.39-2.466 0-1.341-1.048-2.466-2.39-2.466-.72 0-1.372.428-1.743.798a.59.59 0 1 0 .836.836c.254-.255.622-.452.907-.452.646 0 1.21.55 1.21 1.284s-.564 1.284-1.21 1.284c-.53 0-1.029-.328-1.44-.756a4.56 4.56 0 0 1-.611-.802l-.007-.011v-.001l-.002-.003-.003-.006-.013-.021a3.212 3.212 0 0 0-.055-.094 5.73 5.73 0 0 0-.727-.937c-.49-.51-1.279-1.119-2.292-1.119-1.342 0-2.39 1.125-2.39 2.466 0 1.341 1.048 2.466 2.39 2.466.663 0 1.229-.262 1.67-.578a.59.59 0 0 0-.69-.96c-.308.222-.637.356-.98.356-.646 0-1.21-.55-1.21-1.284Z" clip-rule="evenodd"/>
</svg>
