<svg xmlns="http://www.w3.org/2000/svg" width="20" height="20" fill="currentColor" viewBox="0 0 20 20">
  <path fill-rule="evenodd" d="M7.425 8.716c-.645 0-1.21.55-1.21 1.284s.565 1.284 1.21 1.284c.343 0 .672-.134.98-.356a.59.59 0 0 1 .69.96c-.441.316-1.007.578-1.67.578-1.342 0-2.39-1.125-2.39-2.466 0-1.341 1.048-2.466 2.39-2.466 1.013 0 1.802.61 2.292 1.12a5.74 5.74 0 0 1 .783 1.03l.012.02.003.007.002.003v.001s-.214-.528-.732-.243c-.517.285-.302.813-.302.813l-.006-.01a4.037 4.037 0 0 0-.149-.233 4.56 4.56 0 0 0-.462-.57c-.412-.428-.91-.756-1.441-.756Zm2.058 1.569v.001l.002.003.003.006.013.021.042.072a5.735 5.735 0 0 0 .74.96c.49.508 1.279 1.118 2.292 1.118 1.342 0 2.39-1.125 2.39-2.466 0-1.341-1.048-2.466-2.39-2.466-.72 0-1.372.428-1.743.798a.59.59 0 0 0 .836.836c.254-.255.622-.452.907-.452.646 0 1.21.55 1.21 1.284s-.564 1.284-1.21 1.284c-.53 0-1.029-.328-1.44-.756a4.553 4.553 0 0 1-.611-.802l-.007-.011s-.214-.528-.732-.243c-.517.285-.302.813-.302.813Z" clip-rule="evenodd"/>
  <path d="M7.253 18.75c-.205 0-.403-.052-.578-.163l-2.117-1.284a1.192 1.192 0 0 1-.415-1.58l.724-1.319a7.404 7.404 0 0 1-1.068-1.972l-1.406.018c-.63 0-1.143-.525-1.143-1.172V8.716c0-.648.513-1.173 1.143-1.173h1.441a6.544 6.544 0 0 1 1.038-1.937l-.729-1.335a1.192 1.192 0 0 1 .415-1.581l2.117-1.278a1.13 1.13 0 0 1 1.575.438l.723 1.312c.595-.14 1.412-.128 2.106-.011l.671-1.307a1.13 1.13 0 0 1 1.575-.438l2.118 1.284c.53.32.717 1.032.414 1.58l-.724 1.319c.45.595.811 1.254 1.068 1.972l1.406-.018c.63 0 1.143.525 1.143 1.173v2.56c0 .648-.513 1.173-1.143 1.173h-1.441a6.5 6.5 0 0 1-1.039 1.937l.73 1.335c.303.549.116 1.26-.414 1.581l-2.118 1.284a1.13 1.13 0 0 1-1.575-.438l-.723-1.312c-.607.134-1.406.128-2.106.006l-.671 1.306a1.13 1.13 0 0 1-.706.56 1.216 1.216 0 0 1-.291.041Zm3.815-3.068c.402 0 .781.227.985.595l.724 1.312 2.065-1.289-.73-1.342a1.176 1.176 0 0 1 .1-1.295 6.005 6.005 0 0 0 .898-1.633 1.14 1.14 0 0 1 1.067-.752h1.441l-.023-2.567h-1.412c-.472 0-.904-.304-1.067-.753a5.865 5.865 0 0 0-.899-1.633 1.187 1.187 0 0 1-.099-1.295l.724-1.318-2.112-1.307-.67 1.312c-.234.426-.707.665-1.168.584-.571-.1-1.195-.1-1.761 0a1.124 1.124 0 0 1-1.173-.584l-.723-1.312-2.065 1.29.73 1.34c.227.42.192.928-.1 1.296a5.999 5.999 0 0 0-.898 1.633 1.14 1.14 0 0 1-1.068.753h-1.44l.023 2.566h1.411c.473 0 .905.304 1.068.759.216.6.519 1.149.898 1.633.286.367.327.875.1 1.295l-.724 1.318 2.112 1.307.67-1.313a1.129 1.129 0 0 1 1.173-.583c.572.1 1.19.1 1.762 0a.955.955 0 0 1 .18-.017Z"/>
</svg>
