<svg xmlns="http://www.w3.org/2000/svg" width="20" height="20" fill="currentColor" viewBox="0 0 20 20">
  <path fill-rule="evenodd" d="M10 5.625a.625.625 0 1 0 0 1.25.625.625 0 0 0 0-1.25Zm-1.875.625a1.875 1.875 0 1 1 3.75 0 1.875 1.875 0 0 1-3.75 0Z" clip-rule="evenodd"/>
  <path fill-rule="evenodd" d="M9.075 7.409 6.854 8.764l-.651-1.068 2.222-1.355.65 1.068Zm1.85.087 2.221 1.355.651-1.067-2.222-1.355-.65 1.067Z" clip-rule="evenodd"/>
  <path fill-rule="evenodd" d="M14.375 8.125a.625.625 0 1 0 0 1.25.625.625 0 0 0 0-1.25ZM12.5 8.75a1.875 1.875 0 1 1 3.75 0 1.875 1.875 0 0 1-3.75 0Zm-6.875-.625a.625.625 0 1 0 0 1.25.625.625 0 0 0 0-1.25ZM3.75 8.75a1.875 1.875 0 1 1 3.75 0 1.875 1.875 0 0 1-3.75 0Z" clip-rule="evenodd"/>
  <path fill-rule="evenodd" d="M3.48 3.75a.965.965 0 0 0-.98.95v8.725c0 .514.427.95.98.95h13.04c.553 0 .98-.436.98-.95V4.7a.965.965 0 0 0-.98-.95H3.48Zm-2.23.95c0-1.226 1.01-2.2 2.23-2.2h13.04c1.22 0 2.23.974 2.23 2.2v8.725c0 1.226-1.01 2.2-2.23 2.2H3.48c-1.22 0-2.23-.974-2.23-2.2V4.7Z" clip-rule="evenodd"/>
  <path fill-rule="evenodd" d="M10 14.402c.345 0 .625.28.625.625v2.712a.625.625 0 0 1-1.25 0v-2.712c0-.345.28-.625.625-.625Z" clip-rule="evenodd"/>
  <path fill-rule="evenodd" d="M5.625 18.125c0-.345.28-.625.625-.625h7.5a.625.625 0 1 1 0 1.25h-7.5a.625.625 0 0 1-.625-.625ZM1.25 12.5c0-.345.28-.625.625-.625h15.836a.625.625 0 1 1 0 1.25H1.875a.625.625 0 0 1-.625-.625Z" clip-rule="evenodd"/>
</svg>
