<svg xmlns="http://www.w3.org/2000/svg" width="20" height="20" fill="currentColor" viewBox="0 0 20 20">
  <path fill-rule="evenodd" d="M3.48 3.75a.965.965 0 0 0-.98.95v7.175h15V4.7a.965.965 0 0 0-.98-.95H3.48Zm14.02 9.375h-15v.3c0 .514.427.95.98.95h13.04c.553 0 .98-.436.98-.95v-.3ZM1.25 12.5v.925c0 1.226 1.01 2.2 2.23 2.2h5.895V17.5H6.25a.625.625 0 1 0 0 1.25h7.5a.625.625 0 1 0 0-1.25h-3.125v-1.875h5.895c1.22 0 2.23-.974 2.23-2.2V4.7c0-1.226-1.01-2.2-2.23-2.2H3.48c-1.22 0-2.23.974-2.23 2.2v7.8ZM10 5.625a.625.625 0 1 0 0 1.25.625.625 0 0 0 0-1.25Zm-1.875.625a1.875 1.875 0 1 1 3.719.342l1.267.773a1.875 1.875 0 1 1-.59 1.104l-1.303-.794c-.327.28-.753.45-1.218.45-.493 0-.942-.19-1.277-.502l-1.257.767a1.875 1.875 0 1 1-.635-1.077l1.312-.8a1.891 1.891 0 0 1-.018-.263Zm6.25 1.875a.625.625 0 1 0 0 1.25.625.625 0 0 0 0-1.25ZM5 8.75a.625.625 0 1 1 1.25 0 .625.625 0 0 1-1.25 0Z" clip-rule="evenodd"/>
</svg>
