<svg xmlns="http://www.w3.org/2000/svg" width="20" height="20" fill="currentColor" viewBox="0 0 20 20">
  <path fill-rule="evenodd" d="M10 2.458a7.542 7.542 0 1 0 0 15.084 7.542 7.542 0 0 0 0-15.084ZM1.208 10a8.792 8.792 0 1 1 17.584 0 8.792 8.792 0 0 1-17.584 0Z" clip-rule="evenodd"/>
  <path fill-rule="evenodd" d="M7.188 6.25a.937.937 0 1 0 0 1.875.937.937 0 0 0 0-1.875ZM5 7.188a2.188 2.188 0 1 1 4.375 0 2.188 2.188 0 0 1-4.375 0Zm7.813 4.687a.937.937 0 1 0 0 1.875.937.937 0 0 0 0-1.875Zm-2.188.938a2.188 2.188 0 1 1 4.375 0 2.188 2.188 0 0 1-4.375 0Zm3.567-7.005a.625.625 0 0 1 0 .884l-7.5 7.5a.625.625 0 1 1-.884-.884l7.5-7.5a.625.625 0 0 1 .884 0Z" clip-rule="evenodd"/>
</svg>
