<svg xmlns="http://www.w3.org/2000/svg" width="20" height="20" fill="currentColor" viewBox="0 0 20 20">
  <path fill-rule="evenodd" d="M2.458 10a7.542 7.542 0 1 1 15.084 0 7.542 7.542 0 0 1-15.084 0ZM10 1.208a8.792 8.792 0 1 0 0 17.584 8.792 8.792 0 0 0 0-17.584Zm-3.75 5.98a.937.937 0 1 1 1.875 0 .937.937 0 0 1-1.875 0ZM7.188 5a2.188 2.188 0 1 0 0 4.375 2.188 2.188 0 0 0 0-4.375Zm5.625 6.875a.938.938 0 1 0 0 1.875.938.938 0 0 0 0-1.875Zm-2.188.938a2.188 2.188 0 1 1 4.375 0 2.188 2.188 0 0 1-4.375 0Zm3.567-6.121a.625.625 0 1 0-.884-.884l-7.5 7.5a.625.625 0 0 0 .884.884l7.5-7.5Z" clip-rule="evenodd"/>
</svg>
