<svg xmlns="http://www.w3.org/2000/svg" width="20" height="20" fill="currentColor" viewBox="0 0 20 20">
  <path fill-rule="evenodd" d="M1.094 3.108c0-1.118.915-2.014 2.032-2.014h6.562c.138 0 .262.06.348.154l3.748 4.12a.469.469 0 0 1 .122.316v2.304a.469.469 0 1 1-.937 0V6.406h-2.46c-.738 0-1.29-.63-1.29-1.342V2.03H3.126c-.61 0-1.095.487-1.095 1.077v11.736a.469.469 0 0 1-.937 0V3.108Zm9.062-.334v2.29c0 .25.186.405.353.405h2.1l-2.453-2.695ZM2.97 10.938c0-.605.49-1.094 1.094-1.094h13.75c.604 0 1.093.49 1.093 1.094v6.874c0 .605-.49 1.094-1.093 1.094H4.063c-.605 0-1.094-.49-1.094-1.093v-6.875Zm1.094-.157a.156.156 0 0 0-.157.156v6.876c0 .086.07.156.156.156h13.75c.087 0 .157-.07.157-.157v-6.875a.156.156 0 0 0-.157-.156H4.063Zm2.89 1.819c-.288-.231-.694-.35-1.22-.35-.243 0-.505.012-.787.044a.578.578 0 0 0-.506.575v3.181a.45.45 0 0 0 .125.313h.006a.43.43 0 0 0 .325.137.43.43 0 0 0 .32-.137.45.45 0 0 0 .137-.32v-.987c.13.007.262.013.38.013.52 0 .932-.119 1.22-.363.3-.25.456-.618.456-1.081 0-.438-.156-.787-.456-1.025Zm-.625 1.481c-.132.107-.344.163-.62.163-.124 0-.243 0-.35-.013v-1.137c.12-.013.238-.019.35-.019.288 0 .495.05.632.163.119.087.169.225.169.418 0 .194-.056.332-.181.425Zm2.756-1.831c.525 0 .931.119 1.219.35.3.238.456.588.456 1.025 0 .463-.156.831-.456 1.081-.288.244-.7.363-1.22.363-.118 0-.25-.007-.38-.013v.988a.45.45 0 0 1-.138.319.43.43 0 0 1-.319.137.43.43 0 0 1-.325-.137h-.006a.45.45 0 0 1-.125-.313v-3.181a.578.578 0 0 1 .506-.575c.282-.032.544-.044.788-.044Zm-.031 1.994c.275 0 .487-.056.618-.163.125-.093.182-.231.182-.425 0-.194-.05-.331-.17-.418-.13-.113-.343-.163-.63-.163-.113 0-.232.006-.35.019v1.137c.106.013.225.013.35.013Zm8.325 1.634-.925-1.537.893-1.475.013-.025.012-.025a.364.364 0 0 0 .038-.163.331.331 0 0 0-.056-.187.379.379 0 0 0-.138-.144.405.405 0 0 0-.194-.05.63.63 0 0 0-.562.325l-.563.981-.556-.969a.554.554 0 0 0-.25-.243c-.162-.094-.369-.125-.525-.038a.34.34 0 0 0-.137.144.423.423 0 0 0 0 .387l.906 1.494-.938 1.556a.398.398 0 0 0 0 .375v.013c.144.219.463.219.67.1a.686.686 0 0 0 .2-.181l.618-1.082.581 1.013c.063.1.144.181.244.244a.69.69 0 0 0 .331.087.404.404 0 0 0 .338-.181.356.356 0 0 0 .056-.206.374.374 0 0 0-.063-.194l.007-.019Zm-6.025-3.6h2.3v-.006a.42.42 0 0 1 .3.125.421.421 0 0 1 0 .6.421.421 0 0 1-.3.125h-.694v2.9a.444.444 0 0 1-.131.319.454.454 0 0 1-.65 0h-.007a.45.45 0 0 1-.125-.313v-2.9h-.693a.42.42 0 0 1-.3-.125.42.42 0 0 1 0-.6.421.421 0 0 1 .3-.125Z" clip-rule="evenodd"/>
</svg>
