<svg xmlns="http://www.w3.org/2000/svg" width="20" height="20" fill="currentColor" viewBox="0 0 20 20">
  <path fill-rule="evenodd" d="M1.875 3.586c0-1.304 1.077-2.336 2.376-2.336h6.999c.17 0 .325.068.438.179l4.374 4.275.085.202a.621.621 0 0 1 .089.211l.014.034v1.974a.625.625 0 1 1-1.25 0v-1.25h-2.876a1.5 1.5 0 0 1-1.499-1.499V2.5H4.251c-.636 0-1.126.5-1.126 1.086v12.828c0 .587.49 1.086 1.126 1.086h3.874a.625.625 0 1 1 0 1.25H4.251c-1.299 0-2.376-1.032-2.376-2.336V3.586Zm10 1.79V3.36l2.318 2.265h-2.07a.25.25 0 0 1-.248-.249Zm-.625 5.874c-.69 0-1.25.56-1.25 1.25v5c0 .69.56 1.25 1.25 1.25h6.25c.69 0 1.25-.56 1.25-1.25v-5c0-.69-.56-1.25-1.25-1.25h-6.25Zm0 1.25h6.25v1.633l-1.052-.35a.625.625 0 0 0-.545.072l-1.573 1.049-.925-.463a.625.625 0 0 0-.56 0l-1.595.798V12.5Zm4.368 3.048 1.882.94v-1.037l-1.158-.386-.724.483Zm-2.493.15 3.602 1.802H11.25v-.864l1.875-.937Z" clip-rule="evenodd"/>
</svg>
