<svg xmlns="http://www.w3.org/2000/svg" width="20" height="20" fill="currentColor" viewBox="0 0 20 20">
  <g clip-path="url(#a)">
    <path d="M17.5.625c1.035 0 1.875.84 1.875 1.875v15c0 1.035-.84 1.875-1.875 1.875h-15A1.875 1.875 0 0 1 .625 17.5v-15c0-1.036.84-1.875 1.875-1.875h15Zm-15 1.25a.625.625 0 0 0-.625.625v15c0 .345.28.625.625.625h15c.345 0 .625-.28.625-.625v-15a.625.625 0 0 0-.625-.625h-15Zm1.41 5.004a3.126 3.126 0 0 1-.16 6.246h-.277a.973.973 0 0 1-.973-.973V7.848c0-.537.436-.973.973-.973h.277l.16.004ZM10 6.875c.758 0 1.397.412 1.825.982.428.571.675 1.33.675 2.143 0 .813-.247 1.572-.675 2.143-.428.57-1.066.982-1.825.982-.758 0-1.397-.412-1.825-.982-.428-.571-.675-1.33-.675-2.143 0-.812.247-1.572.675-2.143.428-.57 1.067-.982 1.825-.982Zm5.58 0c.657 0 1.264.323 1.712.875l.087.113.036.053a.626.626 0 0 1-1.004.735l-.04-.05-.098-.122c-.235-.261-.486-.354-.693-.354-.236 0-.529.121-.789.477-.265.362-.416.866-.416 1.398 0 .532.15 1.036.416 1.398.26.356.553.477.79.477.236 0 .53-.12.79-.477a.625.625 0 1 1 1.008.739c-.454.62-1.098.988-1.799.988-.7 0-1.344-.368-1.798-.988-.45-.614-.657-1.39-.657-2.137 0-.748.208-1.523.657-2.137.454-.62 1.098-.988 1.798-.988Zm-11.83 5a1.875 1.875 0 0 0 0-3.75v3.75ZM10 8.125c-.277 0-.576.148-.826.482-.25.335-.424.825-.424 1.393 0 .568.173 1.058.424 1.393.25.334.55.482.826.482.277 0 .576-.148.826-.482.25-.335.424-.825.424-1.393 0-.568-.173-1.058-.424-1.393-.25-.334-.55-.482-.826-.482Z"/>
  </g>
  <defs>
    <clipPath id="a">
      <path d="M0 0h20v20H0z"/>
    </clipPath>
  </defs>
</svg>
