<svg xmlns="http://www.w3.org/2000/svg" width="20" height="20" fill="currentColor" viewBox="0 0 20 20">
  <path fill-rule="evenodd" d="M1.875 3.586c0-1.304 1.077-2.336 2.376-2.336h6.999c.17 0 .325.068.438.179l4.374 4.275.085.202a.621.621 0 0 1 .089.211l.014.034v1.974a.625.625 0 1 1-1.25 0v-1.25h-2.876a1.5 1.5 0 0 1-1.499-1.499V2.5H4.251c-.636 0-1.126.5-1.126 1.086v12.828c0 .587.49 1.086 1.126 1.086h3.874a.625.625 0 1 1 0 1.25H4.251c-1.299 0-2.376-1.032-2.376-2.336V3.586Zm10 1.79V3.36l2.318 2.265h-2.07a.25.25 0 0 1-.248-.249Zm-1.503 13.005c.238.238.556.369.888.369v-.006c.106 0 .206-.013.312-.038l1.52-.38a.605.605 0 0 0 .287-.163l4.79-4.787a1.976 1.976 0 0 0 0-2.8 1.99 1.99 0 0 0-2.802 0l-4.789 4.8a.598.598 0 0 0-.162.287l-.382 1.518h.007c-.113.438.012.882.331 1.2Zm.875-.893v-.006l.338-1.35 4.67-4.668a.725.725 0 0 1 1.032 0 .735.735 0 0 1 0 1.03l-4.664 4.663-1.376.33Z" clip-rule="evenodd"/>
</svg>
