<svg xmlns="http://www.w3.org/2000/svg" width="20" height="20" fill="currentColor" viewBox="0 0 20 20">
  <g clip-path="url(#a)">
    <path d="M11.875.625c.182 0 .344.08.458.203l.004.001 3.75 4.121.037.045c.081.108.126.24.126.376v4.004h1.875c.69 0 1.25.56 1.25 1.25v7.5c0 .69-.56 1.25-1.25 1.25H1.875c-.69 0-1.25-.56-1.25-1.25v-7.5c0-.69.56-1.25 1.25-1.25h1.25v-6.58A2.18 2.18 0 0 1 5.313.625h6.562Zm-10 17.5h16.25v-7.5H1.875v7.5Zm3.594-6.875a2.031 2.031 0 1 1 0 4.063H4.375v1.562a.625.625 0 1 1-1.25 0v-4.432c0-.659.534-1.193 1.193-1.193h1.15Zm4.066.004a3.126 3.126 0 0 1-.16 6.246h-.277a.973.973 0 0 1-.973-.973v-4.304c0-.537.436-.973.973-.973h.277l.16.004Zm7.404-.001a.625.625 0 0 1 0 1.244l-.064.003h-2.5v1.25h1.98l.063.003a.626.626 0 0 1 0 1.244l-.063.003h-1.98v1.875a.625.625 0 1 1-1.25 0v-5l.003-.065a.625.625 0 0 1 .622-.56h3.125l.064.003ZM9.375 16.25a1.875 1.875 0 0 0 0-3.75v3.75Zm-5-2.188h1.094a.781.781 0 0 0 0-1.562H4.375v1.563Zm.938-12.187a.93.93 0 0 0-.938.92v6.58H15V6.25h-2.304c-.833 0-1.446-.71-1.446-1.499V1.875H5.313ZM12.5 4.751c0 .173.124.249.196.249h1.747L12.5 2.864v1.887Z"/>
  </g>
  <defs>
    <clipPath id="a">
      <path d="M0 0h20v20H0z"/>
    </clipPath>
  </defs>
</svg>
