<svg xmlns="http://www.w3.org/2000/svg" width="20" height="20" fill="currentColor" viewBox="0 0 20 20">
  <path fill-rule="evenodd" d="M3.126 1.094a2.023 2.023 0 0 0-2.032 2.014v11.736a.469.469 0 0 0 .937 0V3.108c0-.59.485-1.077 1.095-1.077H9.22v3.033c0 .713.552 1.342 1.29 1.342h2.455L12.95 8.61a.469.469 0 0 0 .938.006l.017-2.635a.476.476 0 0 0 0-.08l.002-.214a.468.468 0 0 0-.122-.319l-3.748-4.12a.467.467 0 0 0-.348-.154H3.125Zm7.03 1.68v2.29c0 .25.186.405.353.405h2.1l-2.453-2.695Zm-7.168 8.164c0-.605.49-1.094 1.094-1.094h13.73c.605 0 1.094.49 1.094 1.094v6.874c0 .605-.49 1.094-1.093 1.094H4.082c-.604 0-1.094-.49-1.094-1.093v-6.875Zm1.094-.157a.156.156 0 0 0-.156.156v6.876c0 .086.07.156.156.156h13.73c.087 0 .157-.07.157-.157v-6.875a.156.156 0 0 0-.157-.156H4.082Zm2.072 1.094c.642 0 1.142.136 1.492.402v.007c.37.278.558.687.558 1.2 0 .55-.189.979-.558 1.27-.35.28-.856.422-1.492.422a7.59 7.59 0 0 1-.538-.02v1.22a.475.475 0 0 1-.156.356.532.532 0 0 1-.363.143.485.485 0 0 1-.363-.15h-.006a.513.513 0 0 1-.143-.35v-3.8c0-.162.058-.31.175-.434a.663.663 0 0 1 .415-.214c.344-.032.674-.052.98-.052Zm.785 2.179c.162-.123.24-.298.24-.538h.006c0-.24-.077-.409-.233-.526-.182-.136-.454-.2-.83-.2-.169 0-.337.006-.5.025v1.427c.156.013.325.02.5.02.363 0 .642-.072.817-.208Zm5.58-2.015a.534.534 0 0 0-.707 0 .495.495 0 0 0-.15.357v2.522l-1.686-2.671a.694.694 0 0 0-.622-.338.532.532 0 0 0-.363.143.497.497 0 0 0-.162.363v3.937c0 .142.051.266.162.363.2.169.512.169.694 0 .11-.09.162-.22.162-.363v-2.523l1.686 2.678c.136.22.35.338.622.338a.533.533 0 0 0 .364-.143.497.497 0 0 0 .162-.363v-3.937a.477.477 0 0 0-.162-.363Zm4.593 1.861a.628.628 0 0 1 .198.456h-.007v1.619a.774.774 0 0 1-.529.744 3.755 3.755 0 0 1-1.128.156c-.676 0-1.25-.225-1.69-.688-.446-.468-.65-1.08-.65-1.812 0-.731.204-1.35.656-1.813.447-.468 1.059-.687 1.78-.687.324 0 .63.031.911.094h.006c.128.025.236.1.313.194a.019.019 0 0 1 .006.012c0 .006.006.012.006.012a.518.518 0 0 1 .122.332.457.457 0 0 1-.198.375.508.508 0 0 1-.414.069 2.742 2.742 0 0 0-.72-.094c-.454 0-.779.131-1.002.375-.223.237-.357.619-.357 1.119s.128.862.35 1.118c.224.244.51.375.906.375.191 0 .364-.031.53-.069v-1.093h-.893a.506.506 0 0 1-.364-.144v-.013a.49.49 0 0 1 .006-.681h.007c.096-.1.223-.15.357-.15h1.333c.184 0 .338.069.465.194Z" clip-rule="evenodd"/>
</svg>
