<svg xmlns="http://www.w3.org/2000/svg" width="20" height="20" fill="currentColor" viewBox="0 0 20 20">
  <path d="M3.75 13.125a.625.625 0 1 1 0 1.25h-.625A.625.625 0 0 0 2.5 15v1.875c0 .345.28.625.625.625h13.75c.345 0 .625-.28.625-.625V15a.625.625 0 0 0-.625-.625h-.625a.625.625 0 1 1 0-1.25h.625c1.035 0 1.875.84 1.875 1.875v1.875c0 1.035-.84 1.875-1.875 1.875H3.125a1.875 1.875 0 0 1-1.875-1.875V15c0-1.036.84-1.875 1.875-1.875h.625Zm.625 2.188a.625.625 0 1 1 0 1.25.625.625 0 0 1 0-1.25Zm7.54-13.865 2.917 3.125L15 5v7.5c0 .995-.763 1.876-1.793 1.876H6.793C5.763 14.376 5 13.495 5 12.5V3.126c0-.995.763-1.876 1.793-1.876h4.665l.457.198ZM6.793 2.5c-.26 0-.543.239-.543.626v9.373c0 .387.283.626.543.626h6.414c.26 0 .543-.239.543-.626V6.875h-2.001c-.412 0-.708-.252-.872-.498a1.588 1.588 0 0 1-.252-.876V2.5H6.793Zm5.082 3.001c0 .051.008.093.018.124h1.857v-.379l-1.875-2.009v2.264Z"/>
</svg>
