<svg xmlns="http://www.w3.org/2000/svg" width="20" height="20" fill="currentColor" viewBox="0 0 20 20">
  <path fill-rule="evenodd" d="M3.125 1.094a2.022 2.022 0 0 0-2.031 2.014v11.736a.469.469 0 1 0 .937 0V3.108c0-.59.484-1.077 1.094-1.077h6.09v3.033c0 .713.551 1.342 1.29 1.342h2.457v2.168a.469.469 0 1 0 .937 0v-2.89a.469.469 0 0 0-.122-.316l-3.746-4.12a.467.467 0 0 0-.348-.154H3.125Zm7.026 1.68v2.29c0 .25.186.405.353.405h2.098l-2.45-2.695Zm-6.549 8.164c0-.605.49-1.094 1.093-1.094h13.118c.604 0 1.093.49 1.093 1.094v6.874c0 .605-.49 1.094-1.093 1.094H4.695c-.603 0-1.093-.49-1.093-1.093v-6.875Zm1.093-.157a.156.156 0 0 0-.156.156v6.876c0 .086.07.156.156.156h13.118c.086 0 .156-.07.156-.157v-6.875a.156.156 0 0 0-.156-.156H4.695Zm2.76 1.667a.48.48 0 0 1 .156-.35l-.013.007a.521.521 0 0 1 .712 0 .46.46 0 0 1 .156.35v2.625c0 .575-.143 1.006-.437 1.287-.287.275-.724.419-1.293.419-.312 0-.63-.038-.943-.119h-.006a.609.609 0 0 1-.288-.187.555.555 0 0 1-.118-.338c0-.137.068-.256.18-.331a.401.401 0 0 1 .376-.05c.256.081.53.125.805.125.257 0 .431-.063.538-.188.08-.093.175-.3.175-.75v-2.5Zm4.603-.095c-.337-.256-.818-.387-1.443-.387-.3 0-.618.018-.95.05a.64.64 0 0 0-.405.206.596.596 0 0 0-.169.419v3.662c0 .1.031.194.088.269v.012l.062.063a.513.513 0 0 0 .7 0 .46.46 0 0 0 .15-.344v-1.175c.18.013.356.019.518.019.618 0 1.106-.138 1.443-.406.356-.282.537-.694.537-1.225 0-.494-.181-.888-.543-1.157l.012-.006Zm-.68 1.706c-.17.138-.438.2-.794.2a5.62 5.62 0 0 1-.48-.018v-1.37c.162-.018.324-.024.48-.024.362 0 .63.062.806.194.15.112.225.275.225.506 0 .231-.075.394-.231.519l-.007-.007Zm5.552-.159a.627.627 0 0 1 .198.456h-.007v1.619a.774.774 0 0 1-.528.744 3.751 3.751 0 0 1-1.128.156c-.676 0-1.25-.225-1.689-.688-.446-.468-.65-1.08-.65-1.812 0-.731.204-1.35.656-1.813.446-.468 1.058-.687 1.778-.687.325 0 .631.031.911.094h.007c.127.025.236.1.312.194a.02.02 0 0 1 .006.012c0 .006.007.012.007.012a.518.518 0 0 1 .12.332.456.456 0 0 1-.197.375.507.507 0 0 1-.414.069 2.739 2.739 0 0 0-.72-.094c-.452 0-.777.131-1 .375-.223.237-.357.619-.357 1.119s.127.862.35 1.118c.223.244.51.375.905.375.191 0 .363-.031.529-.069v-1.093h-.892a.505.505 0 0 1-.363-.144v-.013a.49.49 0 0 1 .006-.681h.006c.096-.1.223-.15.357-.15h1.332a.64.64 0 0 1 .465.194Z" clip-rule="evenodd"/>
</svg>
