<svg xmlns="http://www.w3.org/2000/svg" width="20" height="20" fill="currentColor" viewBox="0 0 20 20">
  <g clip-path="url(#a)">
    <path d="M17.5.625c1.035 0 1.875.84 1.875 1.875v15c0 1.035-.84 1.875-1.875 1.875h-15A1.875 1.875 0 0 1 .625 17.5v-15c0-1.036.84-1.875 1.875-1.875h15Zm-15 1.25a.625.625 0 0 0-.625.625v15c0 .345.28.625.625.625h15c.345 0 .625-.28.625-.625v-15a.625.625 0 0 0-.625-.625h-15Zm2.735 5.99a.468.468 0 1 1 .78.52L4.938 10l1.077 1.615.024.041a.468.468 0 0 1-.775.518l-.029-.04-.86-1.29-.86 1.29a.468.468 0 1 1-.78-.519L3.812 10 2.735 8.385l-.024-.041a.468.468 0 0 1 .775-.518l.029.04.86 1.288.86-1.289Zm1.64-.209c.259 0 .469.21.469.469v3.281h2.031l.048.003a.469.469 0 0 1 0 .933l-.048.002h-2.5a.469.469 0 0 1-.469-.469v-3.75c0-.259.21-.469.469-.469Zm5 0c.422 0 .761.087 1.033.248.205.121.35.272.458.42l.097.144.023.042a.469.469 0 0 1-.796.484l-.028-.04-.049-.073a.608.608 0 0 0-.182-.17c-.1-.058-.265-.117-.556-.117a.96.96 0 0 0-.61.199c-.133.112-.18.235-.17.347l.005.024c.018.061.096.157.342.252a2.06 2.06 0 0 0 .447.113l.027.004.006.001h.002l.02.002.047.006a3.11 3.11 0 0 1 .654.167c.327.126.89.426.945 1.071l.004.088c.007.434-.207.806-.51 1.059-.28.233-.646.378-1.04.41l-.169.007c-.422 0-.761-.087-1.033-.248a1.544 1.544 0 0 1-.46-.418l-.095-.146-.023-.042a.469.469 0 0 1 .796-.484l.028.04.049.073c.05.07.108.125.182.17.1.058.265.117.556.117l.094-.004a.932.932 0 0 0 .515-.195c.118-.098.167-.205.171-.305v-.042c-.005-.057-.066-.168-.347-.276a2.055 2.055 0 0 0-.475-.117h-.007l-.02-.003-.047-.006a3.214 3.214 0 0 1-.654-.167c-.306-.118-.82-.39-.928-.955l-.017-.116c-.04-.472.182-.877.506-1.147.32-.267.753-.417 1.209-.417Zm4.61.21a.468.468 0 1 1 .78.519L16.189 10l1.076 1.615.024.041a.468.468 0 0 1-.775.518l-.029-.04-.86-1.29-.86 1.29a.468.468 0 1 1-.78-.519L15.062 10l-1.077-1.615-.024-.041a.468.468 0 0 1 .775-.518l.029.04.86 1.288.86-1.289Z"/>
  </g>
  <defs>
    <clipPath id="a">
      <path d="M0 0h20v20H0z"/>
    </clipPath>
  </defs>
</svg>
