<svg xmlns="http://www.w3.org/2000/svg" width="20" height="20" fill="currentColor" viewBox="0 0 20 20">
  <g clip-path="url(#a)">
    <path d="M17.5.625c1.035 0 1.875.84 1.875 1.875v15c0 1.035-.84 1.875-1.875 1.875h-15A1.875 1.875 0 0 1 .625 17.5v-15c0-1.036.84-1.875 1.875-1.875h15Zm-15 1.25a.625.625 0 0 0-.625.625v15c0 .345.28.625.625.625h15c.345 0 .625-.28.625-.625v-15a.625.625 0 0 0-.625-.625h-15Zm2.068 5.79a1.7 1.7 0 0 1-.173 3.39h-.801V12.5a.469.469 0 1 1-.938 0V8.58c0-.51.414-.924.924-.924h.815l.173.009Zm3.75 0a1.7 1.7 0 0 1-.173 3.39h-.801V12.5a.469.469 0 1 1-.938 0V8.58c0-.51.414-.924.924-.924h.815l.173.009Zm4.807-.009a.469.469 0 1 1 0 .938h-.781V12.5a.469.469 0 0 1-.938 0V8.594h-.781a.469.469 0 1 1 0-.938h2.5Zm1.018.062a.469.469 0 0 1 .613.135l.026.04.843 1.474.843-1.474a.47.47 0 0 1 .814.464l-1.118 1.956 1.118 1.955.022.042a.469.469 0 0 1-.81.463l-.026-.04-.843-1.475-.843 1.474a.47.47 0 0 1-.814-.464l1.117-1.956-1.117-1.955-.022-.043a.469.469 0 0 1 .197-.596Zm-10.55 2.4h.802a.762.762 0 0 0 .078-1.52l-.078-.004h-.801v1.523Zm3.75 0h.802a.762.762 0 0 0 .078-1.52l-.078-.004h-.801v1.523Z"/>
  </g>
  <defs>
    <clipPath id="a">
      <path d="M0 0h20v20H0z"/>
    </clipPath>
  </defs>
</svg>
