<svg xmlns="http://www.w3.org/2000/svg" width="20" height="20" fill="currentColor" viewBox="0 0 20 20">
  <path fill-rule="evenodd" d="M2.5 3.586c0-1.304 1.077-2.336 2.376-2.336h6.999l.437.178 4.375 4.276.188.447V10a.625.625 0 1 1-1.25 0V6.414L11.62 2.5H4.876C4.24 2.5 3.75 3 3.75 3.586v12.828c0 .587.49 1.086 1.126 1.086h4.499a.625.625 0 1 1 0 1.25H4.876c-1.299 0-2.376-1.032-2.376-2.336V3.586Z" clip-rule="evenodd"/>
  <path fill-rule="evenodd" d="M11.875 1.25c.345 0 .625.28.625.625v3.501a.25.25 0 0 0 .249.249h3.501a.625.625 0 1 1 0 1.25h-3.501a1.5 1.5 0 0 1-1.499-1.499V1.875c0-.345.28-.625.625-.625Zm6.634 10.757a.625.625 0 0 1 .11.877l-4.374 5.625a.625.625 0 0 1-.987 0l-1.876-2.413a.625.625 0 0 1 .986-.767l1.383 1.778 3.88-4.99a.625.625 0 0 1 .878-.11Z" clip-rule="evenodd"/>
</svg>
