<svg xmlns="http://www.w3.org/2000/svg" width="20" height="20" fill="currentColor" viewBox="0 0 20 20">
  <g clip-path="url(#a)">
    <path d="M17.5.625c1.035 0 1.875.84 1.875 1.875v15c0 1.035-.84 1.875-1.875 1.875h-15A1.875 1.875 0 0 1 .625 17.5v-15c0-1.036.84-1.875 1.875-1.875h15Zm-15 1.25a.625.625 0 0 0-.625.625v15c0 .345.28.625.625.625h15c.345 0 .625-.28.625-.625v-15a.625.625 0 0 0-.625-.625h-15Zm3.75 5c.345 0 .625.28.625.625v3.438a2.188 2.188 0 0 1-4.375 0 .625.625 0 1 1 1.25 0 .937.937 0 1 0 1.875 0V7.5c0-.345.28-.625.625-.625Zm3.594 0a2.031 2.031 0 1 1 0 4.063H8.75V12.5a.625.625 0 1 1-1.25 0V8.068c0-.659.534-1.193 1.193-1.193h1.15Zm5.163 0c.662 0 1.28.317 1.74.868l.09.113.035.053a.626.626 0 0 1-.994.748l-.04-.05-.103-.122c-.24-.262-.503-.36-.728-.36-.257 0-.564.127-.831.482-.273.362-.426.865-.426 1.393s.153 1.03.426 1.393c.267.354.574.482.83.482.258 0 .565-.127.832-.482a2.11 2.11 0 0 0 .35-.768h-1.181a.625.625 0 0 1 0-1.25h1.646c.59 0 .847.529.846.919l-.003.076c-.059.628-.271 1.258-.66 1.774-.466.62-1.123.98-1.83.981-.705 0-1.362-.36-1.83-.981-.462-.615-.676-1.393-.676-2.144 0-.751.214-1.53.677-2.144.467-.62 1.124-.981 1.83-.981ZM8.75 9.688h1.094a.781.781 0 0 0 0-1.563H8.75v1.563Z"/>
  </g>
  <defs>
    <clipPath id="a">
      <path d="M0 0h20v20H0z"/>
    </clipPath>
  </defs>
</svg>
