<svg xmlns="http://www.w3.org/2000/svg" width="20" height="20" fill="currentColor" viewBox="0 0 20 20">
  <path fill-rule="evenodd" d="M2.5 3.586c0-1.304 1.077-2.336 2.376-2.336h6.999c.17 0 .325.068.438.179l4.374 4.275.085.202a.621.621 0 0 1 .089.211l.014.034v4.474a.625.625 0 1 1-1.25 0v-3.75h-2.876a1.5 1.5 0 0 1-1.499-1.499V2.5H4.876C4.24 2.5 3.75 3 3.75 3.586v12.828c0 .587.49 1.086 1.126 1.086h3.249a.625.625 0 1 1 0 1.25H4.876c-1.299 0-2.376-1.032-2.376-2.336V3.586Zm10-.226v2.016a.25.25 0 0 0 .249.249h2.069L12.5 3.36Z" clip-rule="evenodd"/>
  <path d="M13.75 14.375a1.25 1.25 0 1 0 0 2.5 1.25 1.25 0 0 0 0-2.5Z"/>
  <path fill-rule="evenodd" d="m18.606 15.227-.612-.738c-2.194-2.651-6.294-2.651-8.488 0l-.612.738a.625.625 0 0 0 0 .798l.612.74c2.194 2.647 6.291 2.646 8.488 0l.612-.74a.625.625 0 0 0 0-.798Zm-8.137.058c1.694-2.047 4.868-2.047 6.562 0l.282.341-.282.34c-1.697 2.046-4.869 2.045-6.562 0l-.282-.34.282-.34Z" clip-rule="evenodd"/>
</svg>
