<svg xmlns="http://www.w3.org/2000/svg" width="20" height="20" fill="currentColor" viewBox="0 0 20 20">
  <path d="M11.875.625c.182 0 .344.08.458.203l.004.001 3.75 4.121.037.045c.081.108.126.24.126.376v4.004h1.875c.69 0 1.25.56 1.25 1.25v7.5c0 .69-.56 1.25-1.25 1.25H1.875c-.69 0-1.25-.56-1.25-1.25v-7.5c0-.69.56-1.25 1.25-1.25h1.25v-6.58A2.18 2.18 0 0 1 5.313.625h6.562Zm-10 17.5h16.25v-7.5H1.875v7.5Zm2.969-6.875a2.031 2.031 0 1 1 0 4.063H3.75v1.562a.625.625 0 1 1-1.25 0v-4.432c0-.659.534-1.193 1.193-1.193h1.15Zm6.406 0c.345 0 .625.28.625.625v5l-.009.102a.625.625 0 0 1-1.145.23L8.75 14.053v2.821a.625.625 0 1 1-1.25 0v-5l.009-.102a.625.625 0 0 1 1.146-.23l1.97 3.152v-2.82c0-.345.28-.625.625-.625Zm3.757 0c.662 0 1.28.317 1.74.868l.09.113.035.053a.625.625 0 0 1-.994.748l-.04-.05-.103-.122c-.24-.262-.503-.36-.728-.36-.257 0-.564.127-.831.482-.273.363-.426.865-.426 1.393s.153 1.03.426 1.393c.267.354.574.482.83.482.258 0 .565-.127.832-.482a2.11 2.11 0 0 0 .35-.768h-1.181a.625.625 0 0 1 0-1.25h1.646c.59 0 .847.529.846.919l-.003.076c-.059.628-.271 1.258-.66 1.774-.466.62-1.123.98-1.83.981-.705 0-1.362-.36-1.83-.981-.462-.615-.676-1.393-.676-2.144 0-.751.214-1.53.677-2.144.467-.62 1.124-.981 1.83-.981ZM3.75 14.063h1.094a.781.781 0 0 0 0-1.563H3.75v1.563ZM5.313 1.874a.93.93 0 0 0-.938.92v6.58H15V6.25h-2.304c-.833 0-1.446-.71-1.446-1.499V1.875H5.313ZM12.5 4.751c0 .173.124.249.196.249h1.747L12.5 2.864v1.887Z"/>
</svg>
