<svg xmlns="http://www.w3.org/2000/svg" width="20" height="20" fill="currentColor" viewBox="0 0 20 20">
  <g clip-path="url(#a)">
    <path d="M11.875.625c.182 0 .344.08.458.203l.004.001 3.75 4.121.037.045c.081.108.126.24.126.376v4.004h1.875c.69 0 1.25.56 1.25 1.25v7.5c0 .69-.56 1.25-1.25 1.25H1.875c-.69 0-1.25-.56-1.25-1.25v-7.5c0-.69.56-1.25 1.25-1.25h1.25v-6.58A2.18 2.18 0 0 1 5.313.625h6.562Zm-10 17.5h16.25v-7.5H1.875v7.5Zm2.035-6.871a3.126 3.126 0 0 1-.16 6.246h-.277a.973.973 0 0 1-.973-.973v-4.304c0-.537.436-.973.973-.973h.277l.16.004ZM10 11.25c.758 0 1.397.412 1.825.982.428.571.675 1.33.675 2.143 0 .813-.247 1.572-.675 2.143-.428.57-1.066.982-1.825.982-.758 0-1.397-.412-1.825-.982-.428-.571-.675-1.33-.675-2.143 0-.813.247-1.572.675-2.143.428-.57 1.067-.982 1.825-.982Zm5.58 0c.657 0 1.264.323 1.712.875l.087.113.036.053a.626.626 0 0 1-1.004.735l-.04-.05-.098-.122c-.235-.261-.486-.354-.693-.354-.236 0-.529.121-.789.477-.265.362-.416.866-.416 1.398 0 .532.15 1.036.416 1.398.26.356.553.477.79.477.236 0 .53-.12.79-.477a.625.625 0 1 1 1.008.739c-.454.62-1.098.988-1.799.988-.7 0-1.344-.368-1.798-.988-.45-.614-.657-1.39-.657-2.137 0-.748.208-1.523.657-2.137.454-.62 1.098-.988 1.798-.988Zm-11.83 5a1.875 1.875 0 0 0 0-3.75v3.75ZM10 12.5c-.277 0-.576.148-.826.482-.25.335-.424.825-.424 1.393 0 .568.173 1.058.424 1.393.25.334.55.482.826.482.277 0 .576-.148.826-.482.25-.335.424-.825.424-1.393 0-.568-.173-1.058-.424-1.393-.25-.334-.55-.482-.826-.482ZM5.313 1.875a.93.93 0 0 0-.938.92v6.58H15V6.25h-2.304c-.833 0-1.446-.71-1.446-1.499V1.875H5.313ZM12.5 4.751c0 .173.124.249.196.249h1.747L12.5 2.864v1.887Z"/>
  </g>
  <defs>
    <clipPath id="a">
      <path d="M0 0h20v20H0z"/>
    </clipPath>
  </defs>
</svg>
