<svg xmlns="http://www.w3.org/2000/svg" width="20" height="20" fill="currentColor" viewBox="0 0 20 20">
  <path fill-rule="evenodd" d="M5.625 8.75c0-.345.28-.625.625-.625h7.5a.625.625 0 1 1 0 1.25h-7.5a.625.625 0 0 1-.625-.625Zm0 2.5c0-.345.28-.625.625-.625h7.5a.625.625 0 1 1 0 1.25h-7.5a.625.625 0 0 1-.625-.625Zm0 2.5c0-.345.28-.625.625-.625h5a.625.625 0 1 1 0 1.25h-5a.625.625 0 0 1-.625-.625Z" clip-rule="evenodd"/>
  <path fill-rule="evenodd" d="M3.125 3.586c0-1.304 1.077-2.336 2.376-2.336H12.5l.442.183 4.375 4.375.183.442v10.164c0 1.304-1.077 2.336-2.376 2.336H5.5c-1.299 0-2.376-1.032-2.376-2.336V3.586ZM5.501 2.5c-.636 0-1.126.5-1.126 1.086v12.828c0 .587.49 1.086 1.126 1.086h9.623c.636 0 1.126-.5 1.126-1.086V6.509L12.241 2.5h-6.74Z" clip-rule="evenodd"/>
  <path fill-rule="evenodd" d="M12.5 1.25c.345 0 .625.28.625.625v3.501a.25.25 0 0 0 .249.249h3.501a.625.625 0 1 1 0 1.25h-3.501a1.5 1.5 0 0 1-1.499-1.499V1.875c0-.345.28-.625.625-.625Z" clip-rule="evenodd"/>
</svg>
