<svg xmlns="http://www.w3.org/2000/svg" width="20" height="20" fill="currentColor" viewBox="0 0 20 20">
  <path d="M11.875.625c.182 0 .344.08.458.203l.004.001 3.75 4.121.037.045c.081.108.126.24.126.376v4.004h1.875c.69 0 1.25.56 1.25 1.25v7.5c0 .69-.56 1.25-1.25 1.25H1.875c-.69 0-1.25-.56-1.25-1.25v-7.5c0-.69.56-1.25 1.25-1.25h1.25v-6.58A2.18 2.18 0 0 1 5.313.625h6.562Zm-10 17.5h16.25v-7.5H1.875v7.5Zm3.36-5.885a.468.468 0 1 1 .78.52l-1.077 1.615 1.077 1.615.024.041a.468.468 0 0 1-.775.518l-.029-.04-.86-1.29-.86 1.29a.468.468 0 1 1-.78-.519l1.077-1.615-1.077-1.615-.024-.041a.468.468 0 0 1 .775-.518l.029.04.86 1.288.86-1.289Zm1.64-.209c.259 0 .469.21.469.469v3.281h2.031l.048.003a.469.469 0 0 1 0 .933l-.048.002h-2.5a.469.469 0 0 1-.469-.469V12.5c0-.259.21-.469.469-.469Zm5 0c.422 0 .761.087 1.033.248.205.121.35.272.458.42l.097.144.023.042a.469.469 0 0 1-.796.484l-.028-.04-.049-.073a.607.607 0 0 0-.182-.17c-.1-.058-.265-.117-.556-.117a.96.96 0 0 0-.61.199c-.133.112-.18.235-.17.347l.005.024c.018.061.096.157.342.252a2.055 2.055 0 0 0 .447.113l.027.004.006.001h.002l.02.002.047.006a3.214 3.214 0 0 1 .654.167c.327.126.89.426.945 1.071l.004.088c.007.434-.207.806-.51 1.059-.28.233-.646.378-1.04.41l-.169.007c-.422 0-.761-.087-1.033-.248a1.544 1.544 0 0 1-.46-.418l-.095-.146-.023-.042a.469.469 0 0 1 .796-.484l.028.04.049.073c.05.07.108.125.182.17.1.058.265.117.556.117l.094-.004a.932.932 0 0 0 .515-.195c.118-.098.167-.205.171-.305v-.042c-.005-.057-.066-.168-.347-.276a2.055 2.055 0 0 0-.475-.117h-.007l-.02-.003-.047-.006a3.214 3.214 0 0 1-.654-.167c-.306-.118-.82-.39-.928-.955l-.017-.116c-.04-.472.182-.877.506-1.147.32-.267.753-.417 1.209-.417Zm4.61.21a.468.468 0 1 1 .78.519l-1.076 1.615 1.076 1.615.024.041a.468.468 0 0 1-.775.518l-.029-.04-.86-1.29-.86 1.29a.468.468 0 1 1-.78-.519l1.077-1.615-1.077-1.615-.024-.041a.468.468 0 0 1 .775-.518l.029.04.86 1.288.86-1.289ZM5.313 1.874a.93.93 0 0 0-.938.92v6.58H15V6.25h-2.304c-.833 0-1.446-.71-1.446-1.499V1.875H5.313ZM12.5 4.751c0 .173.124.249.196.249h1.747L12.5 2.864v1.887Z"/>
</svg>
