<svg xmlns="http://www.w3.org/2000/svg" width="20" height="20" fill="currentColor" viewBox="0 0 20 20">
  <path fill-rule="evenodd" d="M3.126 1.094a2.023 2.023 0 0 0-2.032 2.014v11.736a.469.469 0 0 0 .937 0V3.108c0-.59.485-1.077 1.095-1.077H9.22v3.033c0 .713.552 1.342 1.29 1.342h2.46v2.207a.469.469 0 1 0 .937 0V5.684a.469.469 0 0 0-.122-.316l-3.748-4.12a.467.467 0 0 0-.348-.154H3.125Zm7.03 1.68v2.29c0 .25.186.405.353.405h2.1l-2.453-2.695Zm-6.562 8.164c0-.605.49-1.094 1.094-1.094h13.125c.604 0 1.093.49 1.093 1.094v6.874c0 .605-.49 1.094-1.093 1.094H4.688c-.605 0-1.094-.49-1.094-1.093v-6.875Zm1.094-.157a.156.156 0 0 0-.157.156v6.876c0 .086.07.156.157.156h13.125c.086 0 .156-.07.156-.157v-6.875a.156.156 0 0 0-.157-.156H4.688Zm2.468 1.156c.594 0 1.063.132 1.388.394v.013c.343.269.518.656.518 1.15 0 .525-.175.937-.518 1.219-.332.268-.8.406-1.394.406-.156 0-.319 0-.488-.013v1.175c0 .125-.05.244-.143.338a.457.457 0 0 1-.344.143.463.463 0 0 1-.35-.15h-.006a.488.488 0 0 1-.132-.337v-3.662c0-.157.057-.3.163-.413a.603.603 0 0 1 .394-.212c.325-.032.625-.05.912-.05Zm.706 2.1c.157-.118.225-.28.225-.518h-.006c0-.232-.069-.394-.212-.507-.163-.13-.413-.193-.757-.193-.15 0-.3.006-.45.025v1.369c.138.012.288.018.45.018.338 0 .588-.062.75-.194Zm8.388-.206h-1.456v-.944h1.562a.45.45 0 0 0 .45-.45.437.437 0 0 0-.137-.312.472.472 0 0 0-.319-.131H14.4c-.156 0-.3.056-.412.168a.553.553 0 0 0-.175.413v3.694c0 .125.043.244.13.337h.007c.094.1.213.15.35.15.137 0 .256-.05.344-.143a.474.474 0 0 0 .143-.338v-1.562h1.457a.444.444 0 0 0 .319-.132.43.43 0 0 0 .118-.306.4.4 0 0 0-.125-.3.43.43 0 0 0-.319-.137l.013-.007Zm-6.119-1.85c.232-.031.488-.043.756-.043h-.006c.775 0 1.375.206 1.775.606.4.4.606.962.606 1.775 0 .812-.2 1.437-.6 1.856-.406.425-1 .637-1.78.637-.276 0-.526-.012-.757-.043a.61.61 0 0 1-.394-.206.612.612 0 0 1-.156-.42v-3.537c0-.156.05-.3.15-.412a.633.633 0 0 1 .406-.213Zm1.844 3.582c.225-.238.338-.657.338-1.244l.006-.007c0-.524-.119-.906-.344-1.137-.225-.231-.588-.35-1.088-.35-.118 0-.23.006-.33.019V15.9c.1.019.212.019.33.019.507 0 .87-.119 1.088-.357Z" clip-rule="evenodd"/>
</svg>
