<svg xmlns="http://www.w3.org/2000/svg" width="20" height="20" fill="currentColor" viewBox="0 0 20 20">
  <path fill-rule="evenodd" d="M5.501 1.25c-1.299 0-2.376 1.032-2.376 2.336v12.828c0 1.304 1.077 2.336 2.376 2.336h9.623c1.299 0 2.376-1.032 2.376-2.336V6.15l-.014-.034a.621.621 0 0 0-.089-.21l-.085-.203-4.375-4.275a.623.623 0 0 0-.437-.179H5.501Zm6.374 1.25H5.501c-.636 0-1.126.5-1.126 1.086v12.828c0 .587.49 1.086 1.126 1.086h9.623c.636 0 1.126-.5 1.126-1.086V6.875h-2.876a1.5 1.5 0 0 1-1.499-1.499V2.5Zm3.568 3.125L13.125 3.36v2.016a.25.25 0 0 0 .249.249h2.069Z" clip-rule="evenodd"/>
</svg>
