<svg xmlns="http://www.w3.org/2000/svg" width="20" height="20" fill="currentColor" viewBox="0 0 20 20">
  <path d="M12.187.638c.13.026.244.095.33.19l.006.001 3.75 4.121.037.045c.08.108.126.24.126.376v4.004h1.875c.69 0 1.25.56 1.25 1.25v7.5c0 .69-.56 1.25-1.25 1.25H2.06c-.69 0-1.25-.56-1.25-1.25v-7.5c0-.69.56-1.25 1.25-1.25h1.25v-6.58c0-1.206.986-2.17 2.188-2.17h6.561l.127.013ZM2.06 18.125h16.25v-7.5H2.06v7.5Zm4.47-6.581a.625.625 0 0 1 1.059.662l-1.356 2.169 1.356 2.169.031.056a.626.626 0 0 1-1.054.659l-.037-.053-1.032-1.652-1.033 1.652a.625.625 0 0 1-1.06-.662l1.356-2.169-1.356-2.169-.031-.056a.625.625 0 0 1 1.055-.659l.036.053 1.033 1.652 1.032-1.652Zm2.405-.294c.345 0 .625.28.625.625v4.375h2.5a.625.625 0 0 1 0 1.25H8.935a.625.625 0 0 1-.625-.625v-5c0-.345.28-.625.625-.625Zm5.937 0c.54 0 .976.12 1.326.34.348.22.56.509.701.757a.625.625 0 0 1-1.085.619.852.852 0 0 0-.283-.318c-.114-.072-.308-.148-.659-.148-.652 0-.959.431-.935.731l.005.039c.026.091.125.212.415.332a2.402 2.402 0 0 0 .543.146l.034.005h.007l.006.002a4.303 4.303 0 0 1 .285.048 3.5 3.5 0 0 1 .628.19c.429.175 1.127.583 1.194 1.426l.006.117c.02 1.152-1.024 1.914-2.082 1.962l-.106.002c-.54 0-.976-.12-1.326-.34a2.095 2.095 0 0 1-.702-.757l-.029-.056a.626.626 0 0 1 1.115-.563l.062.1a.755.755 0 0 0 .22.218c.115.072.31.148.66.148l.118-.005c.533-.045.802-.395.818-.67v-.056c-.008-.095-.09-.234-.422-.37a2.393 2.393 0 0 0-.543-.147l-.032-.005h-.008l-.006-.002c-.005 0-.011 0-.019-.002l-.061-.009a3.715 3.715 0 0 1-.833-.226c-.402-.165-1.041-.534-1.174-1.275l-.02-.152c-.1-1.257 1.054-2.081 2.183-2.081ZM5.499 1.875a.929.929 0 0 0-.938.92v6.58h10.624V6.25h-2.303c-.834 0-1.447-.71-1.447-1.499V1.875H5.5Zm7.186 2.876c0 .173.125.249.197.249h1.746l-1.943-2.135v1.886Z"/>
</svg>
