<svg xmlns="http://www.w3.org/2000/svg" width="20" height="20" fill="none" viewBox="0 0 20 20">
  <path fill="#3D3C3C" fill-rule="evenodd" d="M1.875 3.586c0-1.304 1.077-2.336 2.376-2.336h6.999l.437.178 4.375 4.276.188.447v1.974a.625.625 0 1 1-1.25 0V6.414L10.995 2.5H4.251c-.636 0-1.126.5-1.126 1.086v12.828c0 .587.49 1.086 1.126 1.086H8.75a.625.625 0 1 1 0 1.25H4.251c-1.299 0-2.376-1.032-2.376-2.336V3.586Z" clip-rule="evenodd"/>
  <path fill="#3D3C3C" fill-rule="evenodd" d="M11.25 1.25c.345 0 .625.28.625.625v3.501a.25.25 0 0 0 .249.249h3.501a.625.625 0 1 1 0 1.25h-3.501a1.5 1.5 0 0 1-1.499-1.499V1.875c0-.345.28-.625.625-.625Zm.625 10.228v4.43c0 .75.832 1.592 2.188 1.592 1.355 0 2.187-.843 2.187-1.591v-3.693a.625.625 0 1 1 1.25 0v3.693c0 1.7-1.686 2.841-3.438 2.841-1.751 0-3.437-1.141-3.437-2.841v-4.435c.006-1.288 1.268-2.099 2.502-2.099 1.233 0 2.5.81 2.5 2.101v4.061c0 .885-.847 1.365-1.565 1.365-.717 0-1.563-.48-1.563-1.365v-3.32a.625.625 0 1 1 1.25 0v3.314a.13.13 0 0 0 .036.039c.051.04.147.082.277.082a.46.46 0 0 0 .278-.082.133.133 0 0 0 .036-.039v-4.055c0-.339-.412-.851-1.248-.851-.835 0-1.25.51-1.253.853Z" clip-rule="evenodd"/>
</svg>
