<svg xmlns="http://www.w3.org/2000/svg" width="20" height="20" fill="none" viewBox="0 0 20 20">
  <path fill="#3D3C3C" fill-rule="evenodd" d="M4.251 1.25c-1.299 0-2.376 1.032-2.376 2.336v12.828c0 1.304 1.077 2.336 2.376 2.336h3.874a.625.625 0 1 0 0-1.25H4.251c-.636 0-1.126-.5-1.126-1.086V3.586c0-.587.49-1.086 1.126-1.086h6.374v2.876a1.5 1.5 0 0 0 1.499 1.499H15v1.25a.625.625 0 1 0 1.25 0V6.15l-.014-.033a.621.621 0 0 0-.089-.21l-.085-.203-4.374-4.275a.623.623 0 0 0-.438-.179H4.251Zm7.624 2.11v2.016a.25.25 0 0 0 .249.249h2.069L11.875 3.36Zm5 11.015c0 .345-.28.625-.625.625H12.5a.625.625 0 1 1 0-1.25h3.75c.345 0 .625.28.625.625ZM14.375 10a4.375 4.375 0 1 0 0 8.75 4.375 4.375 0 0 0 0-8.75Zm-3.125 4.375a3.125 3.125 0 1 1 6.25 0 3.125 3.125 0 0 1-6.25 0Z" clip-rule="evenodd"/>
</svg>
