<svg xmlns="http://www.w3.org/2000/svg" width="20" height="20" fill="currentColor" viewBox="0 0 20 20">
  <path d="M5.625 8.75c0-.345.28-.625.625-.625h7.5a.625.625 0 1 1 0 1.25h-7.5a.625.625 0 0 1-.625-.625Zm0 2.5c0-.345.28-.625.625-.625h7.5a.625.625 0 1 1 0 1.25h-7.5a.625.625 0 0 1-.625-.625Zm.625 1.875a.625.625 0 1 0 0 1.25h5a.625.625 0 1 0 0-1.25h-5Z"/>
  <path fill-rule="evenodd" d="M3.125 3.586c0-1.304 1.077-2.336 2.376-2.336H12.5c.173 0 .33.07.442.184l4.375 4.374c.113.113.183.27.183.442v10.164c0 1.304-1.077 2.336-2.376 2.336H5.5c-1.299 0-2.376-1.032-2.376-2.336V3.586Zm12.241 2.039-2.241-2.241v1.992a.25.25 0 0 0 .249.249h1.992ZM11.875 2.5v2.876a1.5 1.5 0 0 0 1.499 1.499h2.876v9.539c0 .587-.49 1.086-1.126 1.086H5.5c-.636 0-1.126-.5-1.126-1.086V3.586c0-.587.49-1.086 1.126-1.086h6.374Z" clip-rule="evenodd"/>
</svg>
