<svg xmlns="http://www.w3.org/2000/svg" width="20" height="20" fill="currentColor" viewBox="0 0 20 20">
  <path fill-rule="evenodd" d="M1.406 3.42c0-1.118.915-2.014 2.033-2.014H10c.138 0 .262.06.348.155l3.749 4.12a.469.469 0 0 1 .122.315V8.3a.469.469 0 0 1-.938 0V6.72h-2.46c-.738 0-1.29-.63-1.29-1.343V2.344H3.44c-.61 0-1.095.487-1.095 1.076v11.736a.469.469 0 1 1-.938 0V3.42Zm9.063-.333v2.29c0 .25.186.404.353.404h2.099l-2.452-2.694Zm-4.844 7.07c-.604 0-1.094.489-1.094 1.093v6.875c0 .604.49 1.094 1.094 1.094h12.5c.604 0 1.094-.49 1.094-1.094V11.25c0-.604-.49-1.094-1.094-1.094h-12.5Zm-.156 1.093c0-.086.07-.156.156-.156h12.5c.086 0 .156.07.156.156v6.875c0 .086-.07.156-.156.156h-12.5a.156.156 0 0 1-.156-.156V11.25Zm6.412 5.169H13.5l.006.006c.125 0 .232.044.319.131a.434.434 0 0 1 .131.319.434.434 0 0 1-.131.319.444.444 0 0 1-.319.131h-2.031a.577.577 0 0 1-.412-.175.577.577 0 0 1-.176-.412v-3.682c0-.131.05-.25.144-.343a.489.489 0 0 1 .7 0c.1.087.15.206.15.343v3.363Zm-2.7-1.507 1.044-1.743a.418.418 0 0 0 .063-.207.388.388 0 0 0-.057-.2.414.414 0 0 0-.143-.15.388.388 0 0 0-.2-.056.674.674 0 0 0-.613.357l-.669 1.18-.668-1.168a.655.655 0 0 0-.27-.269c-.174-.1-.393-.144-.562-.043a.348.348 0 0 0-.143.156.425.425 0 0 0 0 .406l1.043 1.744-.962 1.6v-.013l-.119.213a.398.398 0 0 0 .006.4c.15.237.494.231.707.1a.686.686 0 0 0 .218-.207h.057v-.093l.675-1.194.687 1.219a.738.738 0 0 0 .631.369c.15 0 .275-.07.35-.194a.403.403 0 0 0 .063-.219.396.396 0 0 0-.063-.2l-1.068-1.794-.007.006Zm6.707-.53c.53.174.9.374 1.124.612l-.006.012c.238.25.363.575.363.963 0 .456-.144.812-.431 1.056-.275.238-.67.356-1.175.356-.37 0-.713-.069-1.013-.2l-.025-.012a.604.604 0 0 1-.237-.213.64.64 0 0 1-.088-.331c0-.075.019-.137.05-.194a.386.386 0 0 1 .513-.137c.237.137.487.2.768.2.25 0 .432-.05.538-.138.1-.075.144-.206.144-.387a.491.491 0 0 0-.132-.356c-.1-.107-.293-.213-.556-.3-.444-.15-.781-.344-1.012-.588a1.284 1.284 0 0 1-.375-.925c0-.4.137-.719.406-.95.256-.225.612-.338 1.05-.338.381 0 .737.057 1.062.175a.572.572 0 0 1 .369.537.39.39 0 0 1-.181.326.414.414 0 0 1-.363.025 2.079 2.079 0 0 0-.862-.194c-.182 0-.319.038-.419.113-.05.031-.113.106-.113.293 0 .132.038.232.125.325.1.107.263.194.475.27Z" clip-rule="evenodd"/>
</svg>
