<svg xmlns="http://www.w3.org/2000/svg" width="20" height="20" fill="currentColor" viewBox="0 0 20 20">
  <path fill-rule="evenodd" d="M2.5 3.586c0-1.304 1.077-2.336 2.376-2.336h6.999l.437.178 4.375 4.276.188.447v3.224a.625.625 0 1 1-1.25 0V6.414L11.62 2.5H4.876C4.24 2.5 3.75 3 3.75 3.586v12.828c0 .587.49 1.086 1.126 1.086h5.749a.625.625 0 1 1 0 1.25H4.876c-1.299 0-2.376-1.032-2.376-2.336V3.586Z" clip-rule="evenodd"/>
  <path fill-rule="evenodd" d="M11.875 1.25c.345 0 .625.28.625.625v3.501a.25.25 0 0 0 .249.249h3.501a.625.625 0 1 1 0 1.25h-3.501a1.5 1.5 0 0 1-1.499-1.499V1.875c0-.345.28-.625.625-.625Zm3.125 10c.345 0 .625.28.625.625v6.25a.625.625 0 1 1-1.25 0v-6.25c0-.345.28-.625.625-.625Z" clip-rule="evenodd"/>
  <path fill-rule="evenodd" d="M18.75 15c0 .345-.28.625-.625.625h-6.25a.625.625 0 1 1 0-1.25h6.25c.345 0 .625.28.625.625Z" clip-rule="evenodd"/>
</svg>
