<svg xmlns="http://www.w3.org/2000/svg" width="20" height="20" fill="currentColor" viewBox="0 0 20 20">
  <path fill-rule="evenodd" d="M4.876 1.25C3.577 1.25 2.5 2.282 2.5 3.586v12.828c0 1.304 1.077 2.336 2.376 2.336h5.749a.625.625 0 1 0 0-1.25H4.876c-.636 0-1.126-.5-1.126-1.086V3.586C3.75 3 4.24 2.5 4.876 2.5h6.374v2.876a1.5 1.5 0 0 0 1.499 1.499h2.876v.938a.625.625 0 1 0 1.25 0V6.15l-.014-.034a.621.621 0 0 0-.089-.21l-.085-.203-4.375-4.275a.623.623 0 0 0-.437-.179H4.876ZM12.5 3.36v2.016a.25.25 0 0 0 .249.249h2.069L12.5 3.36Z" clip-rule="evenodd"/>
  <path fill-rule="evenodd" d="M18.108 13.273a.63.63 0 0 0 .017-.148v-.464a2.76 2.76 0 0 0-.713-1.86l-.004-.004A2.414 2.414 0 0 0 15.625 10c-1.426 0-2.5 1.242-2.5 2.66v.465c0 .051.006.1.018.148a.89.89 0 0 0-.643.856v3.617c0 .427.305.818.76.88l.013.002c1.4.163 3.31.163 4.704 0l.016-.002a.888.888 0 0 0 .757-.88V14.13a.886.886 0 0 0-.642-.856Zm-2.483-2.023c-.64 0-1.25.584-1.25 1.41v.497a24.24 24.24 0 0 1 2.5 0v-.496a1.51 1.51 0 0 0-.388-1.018 1.164 1.164 0 0 0-.862-.393Zm-1.875 6.17v-2.966a22.297 22.297 0 0 1 3.75 0v2.967a22.297 22.297 0 0 1-3.75 0Z" clip-rule="evenodd"/>
</svg>
