<svg xmlns="http://www.w3.org/2000/svg" width="20" height="20" fill="currentColor" viewBox="0 0 20 20">
  <path d="M11.875.625c.182 0 .344.08.458.203l.004.001 3.75 4.121.037.045c.081.108.126.24.126.376v4.004h1.875c.69 0 1.25.56 1.25 1.25v7.5c0 .69-.56 1.25-1.25 1.25H1.875c-.69 0-1.25-.56-1.25-1.25v-7.5c0-.69.56-1.25 1.25-1.25h1.25v-6.58A2.18 2.18 0 0 1 5.313.625h6.562Zm-10 17.5h16.25v-7.5H1.875v7.5Zm2.969-6.875a2.031 2.031 0 1 1 0 4.063H3.75v1.562a.625.625 0 1 1-1.25 0v-4.432c0-.659.534-1.193 1.193-1.193h1.15Zm5 0a2.031 2.031 0 1 1 0 4.063H8.75v1.562a.625.625 0 1 1-1.25 0v-4.432c0-.659.534-1.193 1.193-1.193h1.15Zm7.128.003a.625.625 0 0 1 0 1.244l-.065.003H15.56v4.375a.625.625 0 0 1-1.25 0V12.5h-1.35a.625.625 0 0 1 0-1.25h3.947l.065.003ZM3.75 14.063h1.094a.781.781 0 0 0 0-1.563H3.75v1.563Zm5 0h1.094a.781.781 0 0 0 0-1.563H8.75v1.563ZM5.313 1.874a.93.93 0 0 0-.938.92v6.58H15V6.25h-2.304c-.833 0-1.446-.71-1.446-1.499V1.875H5.313ZM12.5 4.751c0 .173.124.249.196.249h1.747L12.5 2.864v1.887Z"/>
</svg>
