<svg xmlns="http://www.w3.org/2000/svg" width="20" height="20" fill="currentColor" viewBox="0 0 20 20">
  <path fill-rule="evenodd" d="M1.25 3.586c0-1.304 1.077-2.336 2.376-2.336h6.999c.17 0 .325.068.438.179l4.374 4.275.085.202a.621.621 0 0 1 .089.211l.014.034v1.974a.625.625 0 1 1-1.25 0v-1.25h-2.876A1.5 1.5 0 0 1 10 5.376V2.5H3.626C2.99 2.5 2.5 3 2.5 3.586v12.828c0 .587.49 1.086 1.126 1.086H7.5a.625.625 0 1 1 0 1.25H3.626c-1.299 0-2.376-1.032-2.376-2.336V3.586Zm10-.226v2.016a.25.25 0 0 0 .249.249h2.069L11.25 3.36Zm2.5 6.64a4.375 4.375 0 1 0 0 8.75 4.375 4.375 0 0 0 0-8.75Zm-3.125 4.375a3.125 3.125 0 1 1 6.25 0 3.125 3.125 0 0 1-6.25 0Zm4.887-.891a.625.625 0 0 0-1.024-.718l-1.239 1.768-.236-.34a.625.625 0 1 0-1.026.715l.748 1.073a.625.625 0 0 0 1.025.002l1.752-2.5Z" clip-rule="evenodd"/>
</svg>
