<svg xmlns="http://www.w3.org/2000/svg" width="20" height="20" fill="currentColor" viewBox="0 0 20 20">
  <path fill-rule="evenodd" d="M3.126 1.094a2.023 2.023 0 0 0-2.032 2.014v11.736a.469.469 0 0 0 .937 0V3.108c0-.59.485-1.077 1.095-1.077H9.22v3.033c0 .713.552 1.342 1.29 1.342h2.46v2.207a.469.469 0 1 0 .937 0V5.684a.469.469 0 0 0-.122-.316l-3.748-4.12a.467.467 0 0 0-.348-.154H3.125Zm7.03 1.68v2.29c0 .25.186.405.353.405h2.1l-2.453-2.695Zm-6.562 8.164c0-.605.49-1.094 1.093-1.094h13.125c.604 0 1.094.49 1.094 1.094v6.874c0 .605-.49 1.094-1.093 1.094H4.687c-.604 0-1.093-.49-1.093-1.093v-6.875Zm1.093-.157a.156.156 0 0 0-.156.156v6.876c0 .086.07.156.156.156h13.125c.087 0 .157-.07.157-.157v-6.875a.156.156 0 0 0-.157-.156H4.688Zm.938 1.2c.231-.03.494-.043.769-.043l-.006.006c.793 0 1.4.206 1.812.606.413.4.619.963.619 1.775 0 .813-.213 1.438-.619 1.856-.406.425-1.019.638-1.812.638-.275 0-.532-.013-.77-.044a.625.625 0 0 1-.4-.206.646.646 0 0 1-.162-.425v-3.538c0-.15.05-.287.144-.4l.013-.012a.648.648 0 0 1 .412-.213Zm.775 3.944c.513 0 .888-.125 1.113-.362.23-.244.35-.657.35-1.244 0-.525-.12-.906-.35-1.138-.225-.237-.6-.356-1.113-.356a2.83 2.83 0 0 0-.344.019v3.062c.107.02.219.02.344.02Zm4.975-3.987c-.675 0-1.219.225-1.612.662-.382.425-.582 1.025-.582 1.775s.194 1.35.575 1.781c.394.432.938.657 1.613.657s1.212-.22 1.606-.657c.388-.43.588-1.03.588-1.78s-.2-1.35-.582-1.776c-.393-.437-.931-.662-1.606-.662Zm1.188 2.437c0 .531-.107.925-.32 1.188-.193.243-.48.362-.868.362-.387 0-.675-.119-.875-.362-.206-.257-.313-.657-.313-1.182 0-.525.107-.925.313-1.18.2-.245.488-.363.881-.363.394 0 .675.118.869.362.213.256.319.656.319 1.188l-.007-.013Zm4.475 1.438c.08 0 .156.025.224.075h.02a.367.367 0 0 1 .174.318.539.539 0 0 1-.4.506c-.3.07-.606.1-.925.1-.662 0-1.2-.218-1.6-.65-.4-.43-.6-1.037-.6-1.787s.188-1.344.569-1.775c.387-.437.931-.662 1.606-.662.331 0 .638.03.906.093.12.032.22.1.288.194.075.088.113.2.113.319 0 .131-.063.25-.175.325a.406.406 0 0 1-.35.05 2.673 2.673 0 0 0-.738-.094c-.387 0-.681.125-.894.381-.225.263-.337.663-.337 1.163s.112.894.343 1.162c.226.263.52.388.9.388.263 0 .507-.025.726-.094h.044l.106-.031v.019Z" clip-rule="evenodd"/>
</svg>
