<svg xmlns="http://www.w3.org/2000/svg" width="20" height="20" fill="currentColor" viewBox="0 0 20 20">
  <path d="M11.875.625c.182 0 .344.08.458.203l.004.001 3.75 4.121.037.045c.081.108.126.24.126.376v4.004h1.875c.69 0 1.25.56 1.25 1.25v7.5c0 .69-.56 1.25-1.25 1.25H1.875c-.69 0-1.25-.56-1.25-1.25v-7.5c0-.69.56-1.25 1.25-1.25h1.25v-6.58A2.18 2.18 0 0 1 5.313.625h6.562Zm-10 17.5h16.25v-7.5H1.875v7.5Zm2.695-6.094a1.523 1.523 0 0 1 0 3.047h-.976v1.172a.469.469 0 1 1-.938 0v-3.295c0-.51.414-.924.924-.924h.99Zm3.75 0a1.523 1.523 0 0 1 0 3.047h-.976v1.172a.469.469 0 1 1-.938 0v-3.295c0-.51.414-.924.924-.924h.99Zm4.805 0a.469.469 0 0 1 0 .938h-.781v3.281a.469.469 0 0 1-.938 0v-3.281h-.781a.469.469 0 0 1 0-.938h2.5Zm3.36.21a.468.468 0 1 1 .78.519l-1.076 1.615 1.076 1.615.024.041a.468.468 0 0 1-.775.518l-.029-.04-.86-1.29-.86 1.29a.468.468 0 1 1-.78-.519l1.077-1.615-1.077-1.615-.024-.041a.468.468 0 0 1 .775-.518l.029.04.86 1.288.86-1.289Zm-12.891 1.9h.976a.586.586 0 1 0 0-1.172h-.976v1.172Zm3.75 0h.976a.586.586 0 1 0 0-1.172h-.976v1.172ZM5.314 1.875a.93.93 0 0 0-.939.92v6.58H15V6.25h-2.304c-.833 0-1.446-.71-1.446-1.499V1.875H5.313ZM12.5 4.751c0 .173.124.249.196.249h1.747L12.5 2.864v1.887Z"/>
</svg>
