<svg xmlns="http://www.w3.org/2000/svg" width="20" height="20" fill="currentColor" viewBox="0 0 20 20">
  <path d="M11.25 1.25a.62.62 0 0 1 .445.187l4.367 4.267.087.207c.04.06.067.127.083.198l.018.041v1.975a.625.625 0 1 1-1.25 0v-1.25h-2.876a1.5 1.5 0 0 1-1.499-1.499V2.5H4.251c-.636 0-1.126.5-1.126 1.087v12.827c0 .587.49 1.086 1.126 1.086H5a.625.625 0 1 1 0 1.25h-.749c-1.299 0-2.376-1.032-2.376-2.336V3.587c0-1.304 1.077-2.337 2.376-2.337h6.999ZM16.875 10c.345 0 .625.28.625.625V17.5a.625.625 0 1 1 0 1.25H6.875a.625.625 0 1 1 0-1.25V15c0-.345.28-.625.625-.625h1.875c.345 0 .625.28.625.625v2.5h.625v-4.375c0-.345.28-.625.625-.625h1.875c.345 0 .625.28.625.625V17.5h.625v-6.875c0-.345.28-.625.625-.625h1.875Zm-8.75 7.5h.625v-1.875h-.625V17.5Zm3.75 0h.625v-3.75h-.625v3.75Zm3.75 0h.625v-6.25h-.625v6.25Zm-3.75-12.124a.25.25 0 0 0 .249.249h2.068l-2.317-2.266v2.017Z"/>
</svg>
