<svg xmlns="http://www.w3.org/2000/svg" width="20" height="20" fill="currentColor" viewBox="0 0 20 20">
  <g clip-path="url(#a)">
    <path d="M17.5.625c1.035 0 1.875.84 1.875 1.875v15c0 1.035-.84 1.875-1.875 1.875h-15A1.875 1.875 0 0 1 .625 17.5v-15c0-1.036.84-1.875 1.875-1.875h15Zm-15 1.25a.625.625 0 0 0-.625.625v15c0 .345.28.625.625.625h15c.345 0 .625-.28.625-.625v-15a.625.625 0 0 0-.625-.625h-15Zm2.344 5a2.031 2.031 0 1 1 0 4.063H3.75V12.5a.625.625 0 1 1-1.25 0V8.068c0-.659.534-1.193 1.193-1.193h1.15Zm5 0a2.031 2.031 0 1 1 0 4.063H8.75V12.5a.625.625 0 1 1-1.25 0V8.068c0-.659.534-1.193 1.193-1.193h1.15Zm7.128.003a.625.625 0 0 1 0 1.244l-.065.003H15.56V12.5a.625.625 0 0 1-1.25 0V8.125h-1.35a.625.625 0 0 1 0-1.25h3.947l.065.003ZM3.75 9.688h1.094a.781.781 0 0 0 0-1.563H3.75v1.563Zm5 0h1.094a.781.781 0 0 0 0-1.563H8.75v1.563Z"/>
  </g>
  <defs>
    <clipPath id="a">
      <path d="M0 0h20v20H0z"/>
    </clipPath>
  </defs>
</svg>
