<svg xmlns="http://www.w3.org/2000/svg" width="20" height="20" fill="currentColor" viewBox="0 0 20 20">
  <path fill-rule="evenodd" d="M3.126 1.094a2.023 2.023 0 0 0-2.032 2.014v11.736a.469.469 0 0 0 .937 0V3.108c0-.59.485-1.077 1.095-1.077H9.22v3.033c0 .713.552 1.342 1.29 1.342h2.46v1.582a.469.469 0 1 0 .937 0V5.684a.469.469 0 0 0-.122-.316l-3.748-4.12a.467.467 0 0 0-.348-.154H3.125Zm7.03 1.68v2.29c0 .25.186.405.353.405h2.1l-2.453-2.695ZM2.97 10.938c0-.605.49-1.094 1.094-1.094h13.75c.604 0 1.093.49 1.093 1.094v6.874c0 .605-.49 1.094-1.093 1.094H4.063c-.605 0-1.094-.49-1.094-1.093v-6.875Zm1.094-.157a.156.156 0 0 0-.157.156v6.876c0 .086.07.156.156.156h13.75c.087 0 .157-.07.157-.157v-6.875a.156.156 0 0 0-.157-.156H4.063Zm2.3 1.16c.656 0 1.168.13 1.524.387v-.012c.388.275.582.668.582 1.175 0 .543-.194.956-.575 1.243-.363.27-.875.407-1.532.407a8.68 8.68 0 0 1-.575-.02v1.2a.464.464 0 0 1-.162.35.517.517 0 0 1-.356.138.54.54 0 0 1-.363-.13.466.466 0 0 1-.156-.35v-3.713c0-.163.062-.307.181-.425a.696.696 0 0 1 .419-.2c.356-.032.694-.05 1.012-.05Zm-.038 2.33c.381 0 .675-.068.862-.212l.007.007c.168-.12.25-.282.25-.52 0-.237-.082-.4-.244-.512-.188-.137-.481-.206-.875-.206-.175 0-.356.006-.531.025v1.4c.162.013.337.019.531.019Zm10.65-2.184a.475.475 0 0 0-.325-.118h-2.987a.494.494 0 0 0-.325.119c-.1.087-.15.2-.15.33 0 .132.05.245.15.332a.47.47 0 0 0 .325.125h.974V16.3c0 .131.05.25.157.35a.54.54 0 0 0 .362.131c.138 0 .263-.05.356-.137a.464.464 0 0 0 .163-.35v-3.425h.975a.47.47 0 0 0 .325-.125c.1-.088.15-.2.15-.332a.446.446 0 0 0-.15-.33v.005Zm-6.288-.146c.657 0 1.17.13 1.526.387v-.012c.387.275.58.668.58 1.175 0 .543-.193.956-.574 1.243-.363.27-.875.407-1.531.407a8.98 8.98 0 0 1-.575-.02v1.2a.463.463 0 0 1-.163.35.517.517 0 0 1-.356.138.54.54 0 0 1-.363-.13.466.466 0 0 1-.156-.35v-3.713c0-.163.063-.307.181-.425a.68.68 0 0 1 .419-.2c.356-.032.694-.05 1.012-.05Zm.829 2.129-.004-.004c-.187.137-.475.206-.862.206a6.8 6.8 0 0 1-.531-.019v-1.4a5.05 5.05 0 0 1 .531-.025c.394 0 .688.069.875.206.162.113.237.275.237.513 0 .236-.08.398-.247.523Z" clip-rule="evenodd"/>
</svg>
