<svg xmlns="http://www.w3.org/2000/svg" width="20" height="20" fill="currentColor" viewBox="0 0 20 20">
  <g clip-path="url(#a)">
    <path d="M17.5.625c1.035 0 1.875.84 1.875 1.875v15c0 1.035-.84 1.875-1.875 1.875h-15A1.875 1.875 0 0 1 .625 17.5v-15c0-1.036.84-1.875 1.875-1.875h15Zm-15 1.25a.625.625 0 0 0-.625.625v15c0 .345.28.625.625.625h15c.345 0 .625-.28.625-.625v-15a.625.625 0 0 0-.625-.625h-15Zm3.845 5.294a.625.625 0 0 1 1.06.662L6.048 10l1.355 2.169.032.056a.626.626 0 0 1-1.054.659l-.037-.053-1.032-1.652-1.034 1.652a.625.625 0 1 1-1.06-.662L4.576 10 3.22 7.831l-.03-.056a.624.624 0 0 1 1.053-.659l.036.053L5.313 8.82l1.032-1.65Zm2.405-.294c.345 0 .625.28.625.625v4.375h2.5a.625.625 0 1 1 0 1.25H8.75a.625.625 0 0 1-.625-.625v-5c0-.345.28-.625.625-.625Zm5.938 0c.54 0 .976.12 1.326.34.348.22.56.509.7.757a.625.625 0 0 1-1.085.619.852.852 0 0 0-.282-.319c-.114-.071-.309-.147-.66-.147-.651 0-.958.431-.935.731l.007.039c.025.091.124.212.415.332a2.391 2.391 0 0 0 .542.146l.033.005h.008l.006.002a3.024 3.024 0 0 1 .285.048c.164.034.392.092.628.19.428.175 1.126.583 1.193 1.426l.006.117c.021 1.152-1.022 1.914-2.081 1.962l-.107.002c-.54 0-.976-.12-1.326-.34a2.091 2.091 0 0 1-.7-.757l-.03-.056a.626.626 0 0 1 1.115-.563l.062.1a.758.758 0 0 0 .22.218c.114.072.309.148.66.148l.118-.005c.533-.045.803-.395.818-.67l-.001-.056c-.007-.095-.09-.234-.422-.37a2.387 2.387 0 0 0-.542-.147l-.033-.005h-.008l-.007-.002c-.005 0-.01 0-.018-.002a3.458 3.458 0 0 1-.266-.046 3.628 3.628 0 0 1-.629-.19c-.402-.164-1.04-.534-1.173-1.274l-.02-.152c-.099-1.257 1.053-2.081 2.182-2.081Z"/>
  </g>
  <defs>
    <clipPath id="a">
      <path d="M0 0h20v20H0z"/>
    </clipPath>
  </defs>
</svg>
