<svg xmlns="http://www.w3.org/2000/svg" width="20" height="20" fill="currentColor" viewBox="0 0 20 20">
  <g clip-path="url(#a)">
    <path d="M17.5.625c1.035 0 1.875.84 1.875 1.875v15c0 1.035-.84 1.875-1.875 1.875h-15A1.875 1.875 0 0 1 .625 17.5v-15c0-1.036.84-1.875 1.875-1.875h15Zm-15 1.25a.625.625 0 0 0-.625.625v15c0 .345.28.625.625.625h15c.345 0 .625-.28.625-.625v-15a.625.625 0 0 0-.625-.625h-15Zm1.25 5.781a2.344 2.344 0 1 1 0 4.688h-.348a.747.747 0 0 1-.746-.746V8.402c0-.412.334-.746.746-.746h.348Zm4.375 0c.55 0 .991.335 1.273.758.285.426.446.989.446 1.586 0 .597-.161 1.16-.446 1.586-.282.423-.722.758-1.273.758-.55 0-.991-.335-1.273-.758-.285-.426-.446-.989-.446-1.586 0-.597.161-1.16.446-1.586.282-.423.722-.758 1.273-.758Zm3.964 0c.502 0 .979.232 1.336.645l.07.085.027.039a.47.47 0 0 1-.735.574l-.031-.036-.08-.093c-.19-.198-.4-.276-.587-.276-.213 0-.457.103-.665.369-.44.563-.44 1.512 0 2.074.208.266.452.37.665.37.213 0 .459-.104.667-.37a.47.47 0 0 1 .738.577c-.364.466-.87.73-1.405.73-.536 0-1.04-.264-1.404-.73-.705-.902-.705-2.327 0-3.228.363-.466.868-.73 1.404-.73Zm4.396.21a.468.468 0 1 1 .78.519L16.189 10l1.076 1.615.024.041a.468.468 0 0 1-.775.518l-.029-.04-.86-1.29-.86 1.29a.468.468 0 1 1-.78-.519L15.062 10l-1.077-1.615-.024-.041a.468.468 0 0 1 .775-.518l.029.04.86 1.288.86-1.289Zm-12.891 3.54h.156a1.406 1.406 0 1 0 0-2.812h-.156v2.812Zm4.531-2.812c-.14 0-.324.085-.494.34-.168.253-.287.628-.287 1.066 0 .438.119.813.287 1.065.17.256.354.341.494.341s.324-.085.494-.34c.168-.253.287-.628.287-1.066 0-.438-.119-.813-.287-1.065-.17-.256-.354-.341-.494-.341Z"/>
  </g>
  <defs>
    <clipPath id="a">
      <path d="M0 0h20v20H0z"/>
    </clipPath>
  </defs>
</svg>
