<svg xmlns="http://www.w3.org/2000/svg" width="20" height="20" fill="currentColor" viewBox="0 0 20 20">
  <path fill-rule="evenodd" d="M1.094 3.108c0-1.118.915-2.014 2.032-2.014h6.562c.138 0 .262.06.348.154l3.748 4.12a.469.469 0 0 1 .122.316v2.75a.469.469 0 1 1-.937 0V6.406h-2.46c-.738 0-1.29-.63-1.29-1.342V2.03H3.126c-.61 0-1.095.487-1.095 1.077v11.58a.469.469 0 1 1-.937 0V3.107Zm9.062 1.956v-2.29l2.452 2.695H10.51c-.167 0-.353-.155-.353-.405Zm-6.094 4.78c-.604 0-1.093.49-1.093 1.094v6.874c0 .605.49 1.094 1.093 1.094h13.75c.604 0 1.094-.49 1.094-1.093v-6.875c0-.605-.49-1.094-1.093-1.094H4.063Zm-.156 1.094c0-.087.07-.157.156-.157h13.75c.087 0 .157.07.157.156v6.876c0 .086-.07.156-.157.156H4.063a.156.156 0 0 1-.156-.157v-6.875Zm1.625 1.337c-.218 0-.425.012-.606.037a.509.509 0 0 0-.344.194.545.545 0 0 0-.118.357v3.03c0 .132.043.257.13.363.088.1.2.163.332.181.188.025.388.038.606.038.632 0 1.113-.188 1.444-.556.319-.363.481-.9.481-1.594 0-.694-.162-1.175-.481-1.525-.325-.35-.806-.525-1.437-.525H5.53Zm1.107 2.05c0 .5-.094.863-.27 1.069-.168.2-.443.293-.837.293-.087 0-.162 0-.237-.012v-2.606c.075-.007.156-.013.237-.013.388 0 .669.1.838.294.181.194.269.525.269.975Zm7.425 1.056.012.044-.006.019a.377.377 0 0 1 .162.068c.113.07.181.2.181.338a.514.514 0 0 1-.387.5c-.244.056-.5.081-.763.081-.556 0-1.006-.181-1.35-.55-.337-.362-.506-.869-.506-1.494s.163-1.125.481-1.487c.338-.375.794-.563 1.363-.563.275 0 .531.026.75.075.119.032.219.1.287.194a.51.51 0 0 1 .107.313.408.408 0 0 1-.181.343.431.431 0 0 1-.37.057 1.946 1.946 0 0 0-.562-.075c-.281 0-.487.087-.637.268-.163.2-.244.494-.244.87 0 .374.081.662.25.862.162.181.369.268.644.268.206 0 .393-.024.556-.068l.037-.013.175-.05Zm3.3.506-.87-1.537.845-1.481.018-.019v-.019a.333.333 0 0 0-.006-.319.342.342 0 0 0-.306-.181.583.583 0 0 0-.519.313l-.525.969-.519-.963a.55.55 0 0 0-.225-.238c-.15-.093-.35-.125-.487-.037a.38.38 0 0 0-.125.137.384.384 0 0 0 0 .35l.844 1.494-.882 1.55a.359.359 0 0 0 0 .338v.012a.364.364 0 0 0 .313.175.621.621 0 0 0 .306-.081.564.564 0 0 0 .213-.238l.537-1.006.537 1.007a.614.614 0 0 0 .532.318.34.34 0 0 0 .306-.175.354.354 0 0 0 0-.362l.013-.006ZM8.119 12.85c.318-.38.748-.574 1.284-.575.536 0 .966.194 1.278.575.3.369.457.888.457 1.525 0 .637-.157 1.156-.457 1.525-.312.381-.743.575-1.281.575-.537 0-.969-.194-1.281-.575-.3-.369-.45-.875-.45-1.525 0-.65.15-1.156.45-1.525Zm1.284-.575h.003H9.4h.003Zm.003 3.419c.294 0 .5-.1.65-.3v-.007c.169-.225.25-.568.25-1.018 0-.45-.081-.794-.243-1.013-.15-.2-.357-.3-.65-.3-.294 0-.507.1-.657.3-.162.219-.243.563-.243 1.019 0 .456.08.8.243 1.019.144.2.357.3.65.3Z" clip-rule="evenodd"/>
</svg>
