<svg xmlns="http://www.w3.org/2000/svg" width="20" height="20" fill="currentColor" viewBox="0 0 20 20">
  <path fill-rule="evenodd" d="M1.406 3.42c0-1.118.915-2.014 2.033-2.014H10c.138 0 .262.06.348.155l3.749 4.12a.469.469 0 0 1 .122.315V8.3a.469.469 0 0 1-.938 0V6.72h-2.46c-.738 0-1.29-.63-1.29-1.343V2.344H3.44c-.61 0-1.095.487-1.095 1.076v11.736a.469.469 0 1 1-.938 0V3.42Zm9.063-.333v2.29c0 .25.186.404.353.404h2.099l-2.452-2.694Zm-6.094 7.07c-.604 0-1.094.489-1.094 1.093v6.875c0 .604.49 1.094 1.094 1.094h13.75c.604 0 1.094-.49 1.094-1.094V11.25c0-.604-.49-1.094-1.094-1.094H4.375Zm-.156 1.093c0-.086.07-.156.156-.156h13.75c.086 0 .156.07.156.156v6.875c0 .086-.07.156-.156.156H4.375a.156.156 0 0 1-.156-.156V11.25Zm8.558 2.925a.739.739 0 0 1-.343-.225.36.36 0 0 1-.094-.256c0-.138.037-.194.081-.232a.47.47 0 0 1 .306-.087c.225 0 .45.05.675.156a.366.366 0 0 0 .332-.019h.006l.006-.006a.356.356 0 0 0 .163-.306.54.54 0 0 0-.088-.294.484.484 0 0 0-.237-.194c-.275-.1-.575-.15-.888-.15-.35 0-.662.088-.894.3-.237.213-.343.507-.343.838 0 .313.106.588.312.813.2.225.494.393.844.518.231.082.369.169.437.25.063.069.1.156.1.281 0 .176-.05.263-.106.313-.062.056-.181.106-.406.106-.225 0-.419-.056-.594-.162l-.006-.007a.357.357 0 0 0-.531.313.525.525 0 0 0 .306.506c.256.119.544.181.85.181.4 0 .744-.093.994-.318.256-.232.362-.556.362-.931 0-.325-.094-.62-.306-.85-.2-.225-.525-.4-.938-.538Zm4.288 2.006-.869-1.525.844-1.481a.359.359 0 0 0 0-.369v-.012a.434.434 0 0 0-.125-.138.383.383 0 0 0-.194-.056.59.59 0 0 0-.537.325l-.507.937-.5-.925a.565.565 0 0 0-.23-.237.644.644 0 0 0-.32-.088.33.33 0 0 0-.193.057.333.333 0 0 0-.132.15.378.378 0 0 0 0 .356l.844 1.5-.869 1.531v.006h-.006a.374.374 0 0 0 0 .363v.012a.373.373 0 0 0 .325.188.606.606 0 0 0 .325-.088.647.647 0 0 0 .225-.243l.519-.97.519.963a.651.651 0 0 0 .55.337.385.385 0 0 0 .33-.187.354.354 0 0 0 .05-.2.438.438 0 0 0-.05-.206Zm-7.513-.262h1.282c.112 0 .225.056.3.137a.4.4 0 0 1 .118.294.427.427 0 0 1-.118.294.396.396 0 0 1-.294.125H9.184a.52.52 0 0 1-.375-.163.557.557 0 0 1-.15-.375v-3.156c0-.119.043-.231.125-.319a.438.438 0 0 1 .325-.143.44.44 0 0 1 .312.137v.006l.006.006a.452.452 0 0 1 .125.307v2.85Zm-1.33.262-.87-1.525.85-1.481a.382.382 0 0 0 .05-.188.358.358 0 0 0-.05-.18v-.014a.432.432 0 0 0-.125-.138.383.383 0 0 0-.193-.056.59.59 0 0 0-.538.325l-.506.931-.5-.925a.564.564 0 0 0-.231-.237.643.643 0 0 0-.32-.088.33.33 0 0 0-.193.056.334.334 0 0 0-.131.15c-.063.12-.081.263-.025.375l.844 1.482-.863 1.518v.007h-.006a.374.374 0 0 0 0 .362c.069.113.181.2.325.2a.606.606 0 0 0 .325-.087.648.648 0 0 0 .225-.244l.519-.969.518.963a.65.65 0 0 0 .55.337.385.385 0 0 0 .332-.187.354.354 0 0 0 .05-.2.36.36 0 0 0-.038-.188Zm-1.07-1.525-.068.038.062-.038h.006Zm.407-1.606-.113-.069.119.069h-.006Z" clip-rule="evenodd"/>
</svg>
