<svg xmlns="http://www.w3.org/2000/svg" width="20" height="20" fill="currentColor" viewBox="0 0 20 20">
  <path fill-rule="evenodd" d="M1.875 3.586c0-1.304 1.077-2.336 2.376-2.336h6.999c.17 0 .325.068.438.179l4.374 4.275.085.202a.621.621 0 0 1 .089.211l.014.034v1.974a.625.625 0 1 1-1.25 0v-1.25h-2.876a1.5 1.5 0 0 1-1.499-1.499V2.5H4.251c-.636 0-1.126.5-1.126 1.086v12.828c0 .587.49 1.086 1.126 1.086h3.874a.625.625 0 1 1 0 1.25H4.251c-1.299 0-2.376-1.032-2.376-2.336V3.586Zm10 1.79V3.36l2.318 2.265h-2.07a.25.25 0 0 1-.248-.249Zm2.5 4.624a4.375 4.375 0 1 0 0 8.75 4.375 4.375 0 0 0 0-8.75Zm-3.125 4.375a3.125 3.125 0 1 1 6.25 0 3.125 3.125 0 0 1-6.25 0Zm3.125-2.5c.345 0 .625.28.625.625v1.875a.625.625 0 1 1-1.25 0V12.5c0-.345.28-.625.625-.625Zm0 5a.625.625 0 1 0 0-1.25.625.625 0 0 0 0 1.25Z" clip-rule="evenodd"/>
</svg>
