<svg xmlns="http://www.w3.org/2000/svg" width="20" height="20" fill="currentColor" viewBox="0 0 20 20">
  <g clip-path="url(#a)">
    <path d="M17.5.625c1.035 0 1.875.84 1.875 1.875v15c0 1.035-.84 1.875-1.875 1.875h-15A1.875 1.875 0 0 1 .625 17.5v-15c0-1.036.84-1.875 1.875-1.875h15Zm-15 1.25a.625.625 0 0 0-.625.625v15c0 .345.28.625.625.625h15c.345 0 .625-.28.625-.625v-15a.625.625 0 0 0-.625-.625h-15Zm2.969 5a2.031 2.031 0 1 1 0 4.063H4.375V12.5a.625.625 0 1 1-1.25 0V8.068c0-.659.534-1.193 1.193-1.193h1.15Zm4.066.004a3.126 3.126 0 0 1-.16 6.246h-.277a.973.973 0 0 1-.973-.973V7.848c0-.537.436-.973.973-.973h.277l.16.004Zm7.404-.001a.625.625 0 0 1 0 1.244l-.064.003h-2.5v1.25h1.98l.063.003a.626.626 0 0 1 0 1.244l-.063.003h-1.98V12.5a.625.625 0 1 1-1.25 0v-5l.003-.064a.625.625 0 0 1 .622-.561h3.125l.064.003Zm-7.564 4.997a1.875 1.875 0 0 0 0-3.75v3.75Zm-5-2.188h1.094a.781.781 0 0 0 0-1.562H4.375v1.563Z"/>
  </g>
  <defs>
    <clipPath id="a">
      <path d="M0 0h20v20H0z"/>
    </clipPath>
  </defs>
</svg>
