<svg xmlns="http://www.w3.org/2000/svg" width="20" height="20" fill="currentColor" viewBox="0 0 20 20">
  <path fill-rule="evenodd" d="M4.251 1.25c-1.299 0-2.376 1.032-2.376 2.336v12.828c0 1.304 1.077 2.336 2.376 2.336H10a.625.625 0 1 0 0-1.25H4.251c-.636 0-1.126-.5-1.126-1.086V3.586c0-.587.49-1.086 1.126-1.086h6.374v2.876a1.5 1.5 0 0 0 1.499 1.499H15v.938a.625.625 0 1 0 1.25 0V6.15l-.014-.034a.621.621 0 0 0-.089-.21l-.085-.203-4.375-4.275a.623.623 0 0 0-.437-.179H4.251Zm7.624 2.11v2.016a.25.25 0 0 0 .249.249h2.069L11.875 3.36Z" clip-rule="evenodd"/>
  <path fill-rule="evenodd" d="M15 11.25c-.64 0-1.25.584-1.25 1.41v.497c1.196-.063 2.545-.033 3.602.09l.012.001a.884.884 0 0 1 .761.88v3.618a.888.888 0 0 1-.773.882c-1.394.163-3.304.163-4.704 0l-.012-.001a.883.883 0 0 1-.761-.88v-3.618c0-.4.267-.75.643-.856a.624.624 0 0 1-.018-.148v-.464C12.5 11.242 13.574 10 15 10c.707 0 1.333.31 1.783.797l.004.004c.22.243.4.53.523.847a.625.625 0 0 1-1.164.454 1.501 1.501 0 0 0-.284-.46A1.164 1.164 0 0 0 15 11.25Zm-1.875 6.17v-2.966a22.297 22.297 0 0 1 3.75 0v2.967a22.297 22.297 0 0 1-3.75 0Z" clip-rule="evenodd"/>
</svg>
