<svg xmlns="http://www.w3.org/2000/svg" width="20" height="20" fill="currentColor" viewBox="0 0 20 20">
  <path fill-rule="evenodd" d="M3.75 1.875a.625.625 0 1 0-1.25 0V2.5h-.625a.625.625 0 1 0 0 1.25H2.5V7.5h-.625a.625.625 0 1 0 0 1.25H2.5v.625a.625.625 0 1 0 1.25 0V8.75H7.5v.625a.625.625 0 1 0 1.25 0V8.75h.625a.625.625 0 1 0 0-1.25H8.75V3.75h.625a.625.625 0 1 0 0-1.25H8.75v-.625a.625.625 0 1 0-1.25 0V2.5H3.75v-.625Zm0 1.875V7.5H7.5V3.75H3.75ZM11.875 10c.345 0 .625.28.625.625v.625h3.75v-.625a.625.625 0 1 1 1.25 0v.625h.625a.625.625 0 1 1 0 1.25H17.5v3.75h.625a.625.625 0 1 1 0 1.25H17.5v.625a.625.625 0 1 1-1.25 0V17.5H12.5v.625a.625.625 0 1 1-1.25 0V17.5h-.625a.625.625 0 1 1 0-1.25h.625V12.5h-.625a.625.625 0 1 1 0-1.25h.625v-.625c0-.345.28-.625.625-.625Zm.625 2.5v3.75h3.75V12.5H12.5Z" clip-rule="evenodd"/>
</svg>
