<svg xmlns="http://www.w3.org/2000/svg" width="20" height="20" fill="currentColor" viewBox="0 0 20 20">
  <path fill-rule="evenodd" d="M3.125 1.25c.345 0 .625.28.625.625v7.5a.625.625 0 1 1-1.25 0v-7.5c0-.345.28-.625.625-.625Zm5 0c.345 0 .625.28.625.625v7.5a.625.625 0 1 1-1.25 0v-7.5c0-.345.28-.625.625-.625Z" clip-rule="evenodd"/>
  <path fill-rule="evenodd" d="M10 8.125a.625.625 0 0 0-.625-.625h-7.5a.625.625 0 1 0 0 1.25h7.5c.345 0 .625-.28.625-.625Zm0-5a.625.625 0 0 0-.625-.625h-7.5a.625.625 0 1 0 0 1.25h7.5c.345 0 .625-.28.625-.625ZM11.875 10c.345 0 .625.28.625.625v7.5a.625.625 0 1 1-1.25 0v-7.5c0-.345.28-.625.625-.625Zm5 0c.345 0 .625.28.625.625v7.5a.625.625 0 1 1-1.25 0v-7.5c0-.345.28-.625.625-.625Z" clip-rule="evenodd"/>
  <path fill-rule="evenodd" d="M18.75 16.875a.625.625 0 0 0-.625-.625h-7.5a.625.625 0 1 0 0 1.25h7.5c.345 0 .625-.28.625-.625Zm0-5a.625.625 0 0 0-.625-.625h-7.5a.625.625 0 1 0 0 1.25h7.5c.345 0 .625-.28.625-.625Z" clip-rule="evenodd"/>
</svg>
