<svg xmlns="http://www.w3.org/2000/svg" width="20" height="20" fill="currentColor" viewBox="0 0 20 20">
  <path fill-rule="evenodd" d="M9.375 12.866 4.817 8.308a.625.625 0 1 0-.884.884l4.741 4.741c.732.732 1.92.732 2.652 0l4.74-4.741a.625.625 0 1 0-.883-.884l-4.558 4.558V1.875a.625.625 0 1 0-1.25 0v10.991Zm7.5-.366c.345 0 .625.28.625.625v3.335c0 1.284-1.066 2.29-2.342 2.29H4.842c-1.276 0-2.342-1.006-2.342-2.29v-3.335a.625.625 0 1 1 1.25 0v3.335c0 .558.47 1.04 1.092 1.04h10.316c.623 0 1.092-.482 1.092-1.04v-3.335c0-.345.28-.625.625-.625Z" clip-rule="evenodd"/>
</svg>
