<svg xmlns="http://www.w3.org/2000/svg" width="20" height="20" fill="currentColor" viewBox="0 0 20 20">
  <path d="M6.25 4.375c0-.345.28-.625.625-.625h1.25c.345 0 .625.28.625.625v1.25c0 .345-.28.625-.625.625h-1.25a.625.625 0 0 1-.625-.625v-1.25Zm5 0c0-.345.28-.625.625-.625h1.25c.345 0 .625.28.625.625v1.25c0 .345-.28.625-.625.625h-1.25a.625.625 0 0 1-.625-.625v-1.25Zm-5 5c0-.345.28-.625.625-.625h1.25c.345 0 .625.28.625.625v1.25c0 .345-.28.625-.625.625h-1.25a.625.625 0 0 1-.625-.625v-1.25Zm5 0c0-.345.28-.625.625-.625h1.25c.345 0 .625.28.625.625v1.25c0 .345-.28.625-.625.625h-1.25a.625.625 0 0 1-.625-.625v-1.25Zm-5 5c0-.345.28-.625.625-.625h1.25c.345 0 .625.28.625.625v1.25c0 .345-.28.625-.625.625h-1.25a.625.625 0 0 1-.625-.625v-1.25Zm5 0c0-.345.28-.625.625-.625h1.25c.345 0 .625.28.625.625v1.25c0 .345-.28.625-.625.625h-1.25a.625.625 0 0 1-.625-.625v-1.25Z"/>
</svg>
