<svg xmlns="http://www.w3.org/2000/svg" width="20" height="20" fill="currentColor" viewBox="0 0 20 20">
  <path fill-rule="evenodd" d="M6.875 3.75a.625.625 0 0 0-.625.625v1.25c0 .345.28.625.625.625h1.25c.345 0 .625-.28.625-.625v-1.25a.625.625 0 0 0-.625-.625h-1.25Zm5 0a.625.625 0 0 0-.625.625v1.25c0 .345.28.625.625.625h1.25c.345 0 .625-.28.625-.625v-1.25a.625.625 0 0 0-.625-.625h-1.25ZM6.25 9.375c0-.345.28-.625.625-.625h1.25c.345 0 .625.28.625.625v1.25c0 .345-.28.625-.625.625h-1.25a.625.625 0 0 1-.625-.625v-1.25Zm5.625-.625a.625.625 0 0 0-.625.625v1.25c0 .345.28.625.625.625h1.25c.345 0 .625-.28.625-.625v-1.25a.625.625 0 0 0-.625-.625h-1.25ZM6.25 14.375c0-.345.28-.625.625-.625h1.25c.345 0 .625.28.625.625v1.25c0 .345-.28.625-.625.625h-1.25a.625.625 0 0 1-.625-.625v-1.25Zm5.625-.625a.625.625 0 0 0-.625.625v1.25c0 .345.28.625.625.625h1.25c.345 0 .625-.28.625-.625v-1.25a.625.625 0 0 0-.625-.625h-1.25Z" clip-rule="evenodd"/>
</svg>
