<svg xmlns="http://www.w3.org/2000/svg" width="20" height="20" fill="currentColor" viewBox="0 0 20 20">
  <path fill-rule="evenodd" d="m14.717 2.978-7.86 7.862-.593 2.364a.442.442 0 0 0 .532.532h.001l2.365-.593 7.86-7.857a1.632 1.632 0 0 0 0-2.308l-.002-.001a1.628 1.628 0 0 0-2.303.001Zm3.19-.883a2.878 2.878 0 0 0-4.073-.001l-7.982 7.984a.625.625 0 0 0-.165.29L5.051 12.9v.002c-.307 1.233.814 2.352 2.047 2.047H7.1l2.534-.637a.625.625 0 0 0 .29-.164l7.982-7.978a2.882 2.882 0 0 0 0-4.076Z" clip-rule="evenodd"/>
  <path fill-rule="evenodd" d="M1.25 4.452a2.574 2.574 0 0 1 2.577-2.577h4.888a.625.625 0 1 1 0 1.25H3.827c-.735 0-1.327.592-1.327 1.327v11.721c0 .735.592 1.327 1.327 1.327h11.721c.735 0 1.327-.592 1.327-1.327v-4.888a.625.625 0 1 1 1.25 0v4.888a2.574 2.574 0 0 1-2.577 2.577H3.827a2.574 2.574 0 0 1-2.577-2.577V4.452Z" clip-rule="evenodd"/>
</svg>
