<svg xmlns="http://www.w3.org/2000/svg" width="20" height="20" fill="currentColor" viewBox="0 0 20 20">
  <path fill-rule="evenodd" d="m13.933 3.085-9.452 9.06-.696 2.661a.624.624 0 0 1-.016.084c-.102.388.27.841.795.714h.002l2.877-.69 9.458-9.06c.798-.765.8-1.997 0-2.769-.822-.781-2.154-.779-2.968 0ZM2.537 14.67a.625.625 0 0 1 .018-.098l.761-2.914a.625.625 0 0 1 .173-.293l9.58-9.182C14.367.939 16.462.94 17.764 2.18l.003.003a3.148 3.148 0 0 1-.002 4.572l-9.58 9.177a.626.626 0 0 1-.286.157l-3.04.729c-1.313.318-2.605-.791-2.322-2.149ZM1.25 18.125c0-.345.28-.625.625-.625h16.25a.625.625 0 1 1 0 1.25H1.875a.625.625 0 0 1-.625-.625Z" clip-rule="evenodd"/>
</svg>
