<svg xmlns="http://www.w3.org/2000/svg" width="20" height="20" fill="currentColor" viewBox="0 0 20 20">
  <path fill-rule="evenodd" d="m6.858 10.84 7.86-7.862a1.628 1.628 0 0 1 2.302-.001l.002.001a1.632 1.632 0 0 1 0 2.308l-7.86 7.857-2.365.593a.442.442 0 0 1-.534-.532l.595-2.364Zm6.976-8.746a2.878 2.878 0 0 1 4.072 0 2.882 2.882 0 0 1 0 4.077l-7.982 7.978a.625.625 0 0 1-.29.164l-2.534.636h-.002c-1.233.306-2.354-.813-2.048-2.046V12.9l.637-2.533a.625.625 0 0 1 .165-.29l7.982-7.984ZM3.827 1.875A2.574 2.574 0 0 0 1.25 4.452v11.721a2.574 2.574 0 0 0 2.577 2.577h11.721a2.574 2.574 0 0 0 2.577-2.577v-4.888a.625.625 0 1 0-1.25 0v4.888c0 .735-.592 1.327-1.327 1.327H3.827A1.324 1.324 0 0 1 2.5 16.173V4.452c0-.735.592-1.327 1.327-1.327h4.888a.625.625 0 1 0 0-1.25H3.827Z" clip-rule="evenodd"/>
</svg>
