<svg xmlns="http://www.w3.org/2000/svg" width="20" height="20" fill="currentColor" viewBox="0 0 20 20">
  <path fill-rule="evenodd" d="m4.481 12.146 9.452-9.06c.814-.78 2.146-.782 2.968 0 .8.771.798 2.003 0 2.767l-9.458 9.06-2.877.69-.002.001c-.525.128-.897-.326-.795-.714a.627.627 0 0 0 .016-.084l.696-2.66Zm-1.926 2.426a.623.623 0 0 0-.018.098c-.283 1.358 1.009 2.467 2.321 2.15l.001-.001 3.04-.73a.626.626 0 0 0 .286-.156l9.58-9.177a3.148 3.148 0 0 0 .002-4.572l-.003-.003C16.461.941 14.367.94 13.07 2.183l-9.58 9.182a.625.625 0 0 0-.173.293l-.761 2.914Zm-.68 2.928a.625.625 0 1 0 0 1.25h16.25a.625.625 0 1 0 0-1.25H1.875Z" clip-rule="evenodd"/>
</svg>
