<svg xmlns="http://www.w3.org/2000/svg" width="20" height="20" fill="currentColor" viewBox="0 0 20 20">
  <path d="M9.831 3.773a.625.625 0 0 1 .393.018l8.125 3.11a.626.626 0 0 1 .002 1.167l-2.726 1.053v4.132c0 1.037-.862 1.787-1.82 2.242-1.006.477-2.351.755-3.805.755-1.454 0-2.8-.278-3.805-.755-.958-.455-1.82-1.205-1.82-2.242V9.121l-1.25-.483v4.243a.625.625 0 0 1-1.25 0V8.155l-.226-.087a.626.626 0 0 1 .002-1.167l8.125-3.11.055-.018Zm.395 7.435a.627.627 0 0 1-.452 0L5.625 9.605v3.648c0 .275.256.71 1.106 1.113C7.535 14.747 8.69 15 10 15c1.311 0 2.466-.253 3.27-.634.85-.403 1.105-.838 1.105-1.113V9.605l-4.15 1.603Zm-6.61-3.72L10 9.954l6.384-2.468L10 5.044 3.616 7.487Z"/>
</svg>
