<svg xmlns="http://www.w3.org/2000/svg" width="20" height="20" fill="currentColor" viewBox="0 0 20 20">
  <path d="M3.933 15.183a.625.625 0 1 1 .884.884L3.384 17.5h.366a.625.625 0 1 1 0 1.25H1.875a.625.625 0 0 1-.625-.625V16.25a.625.625 0 1 1 1.25 0v.366l1.433-1.433Zm11.25 0a.625.625 0 0 1 .884 0l1.433 1.433v-.366a.625.625 0 1 1 1.25 0v1.875c0 .345-.28.625-.625.625H16.25a.625.625 0 1 1 0-1.25h.366l-1.433-1.433a.625.625 0 0 1 0-.884Z"/>
  <path fill-rule="evenodd" d="M10 3.75c1.26 0 2.428.181 3.304.494.435.155.83.355 1.13.608.075.063.149.135.216.213.207.102.35.314.35.56v8.434c0 .47-.268.836-.565 1.088-.299.253-.696.453-1.13.609-.876.313-2.044.494-3.305.494-1.261 0-2.43-.182-3.305-.496-.435-.155-.831-.356-1.13-.61C5.268 14.895 5 14.53 5 14.06V5.625c0-.246.143-.46.35-.56.067-.079.14-.15.216-.213.3-.253.695-.453 1.13-.608C7.571 3.93 8.74 3.75 10 3.75Zm3.75 3.698a5.015 5.015 0 0 1-.446.183c-.876.313-2.044.494-3.304.494-1.26 0-2.429-.181-3.304-.494a5.013 5.013 0 0 1-.446-.183v6.6c.004.013.026.06.123.143.143.121.387.259.744.387C7.824 14.83 8.844 15 10 15c1.157 0 2.176-.168 2.884-.421.356-.128.6-.265.743-.386.128-.108.125-.159.123-.144V7.448ZM10 5c-1.156 0-2.175.168-2.883.421-.357.128-.602.265-.745.386a.466.466 0 0 0-.118.13c.01.021.04.065.118.131.143.121.388.258.745.386.708.253 1.727.421 2.883.421s2.175-.168 2.883-.421c.357-.128.602-.265.745-.386a.46.46 0 0 0 .117-.13.46.46 0 0 0-.117-.131c-.143-.121-.388-.258-.745-.386C12.175 5.168 11.156 5 10 5Z" clip-rule="evenodd"/>
  <path d="M3.75 1.25a.625.625 0 1 1 0 1.25h-.366l1.433 1.433a.625.625 0 1 1-.884.884L2.5 3.384v.366a.625.625 0 1 1-1.25 0V1.875c0-.345.28-.625.625-.625H3.75Zm14.375 0c.345 0 .625.28.625.625V3.75a.625.625 0 1 1-1.25 0v-.366l-1.433 1.433a.625.625 0 1 1-.884-.884L16.616 2.5h-.366a.625.625 0 1 1 0-1.25h1.875Z"/>
</svg>
