<svg xmlns="http://www.w3.org/2000/svg" width="20" height="20" fill="currentColor" viewBox="0 0 20 20">
  <path d="M3.933 15.183a.625.625 0 1 1 .884.884L3.384 17.5h.366a.625.625 0 1 1 0 1.25H1.875a.625.625 0 0 1-.625-.625V16.25a.625.625 0 1 1 1.25 0v.366l1.433-1.433Zm11.25 0a.625.625 0 0 1 .884 0l1.433 1.433v-.366a.625.625 0 1 1 1.25 0v1.875c0 .345-.28.625-.625.625H16.25a.625.625 0 1 1 0-1.25h.366l-1.433-1.433a.625.625 0 0 1 0-.884Z"/>
  <path fill-rule="evenodd" d="M9.063 3.57a1.875 1.875 0 0 1 1.874 0L15.1 5.972c.58.335.938.954.938 1.623v4.808c0 .67-.358 1.288-.938 1.623l-4.162 2.404a1.876 1.876 0 0 1-1.876 0L4.9 14.027a1.875 1.875 0 0 1-.938-1.623V7.596c0-.67.358-1.288.938-1.623l4.162-2.404Zm1.25 1.082a.625.625 0 0 0-.626 0L5.526 7.056a.625.625 0 0 0-.313.54v4.808c0 .223.12.429.313.54l4.162 2.404a.625.625 0 0 0 .626 0l4.162-2.404a.625.625 0 0 0 .313-.54V7.596a.624.624 0 0 0-.313-.54l-4.162-2.404Z" clip-rule="evenodd"/>
  <path d="M3.75 1.25a.625.625 0 1 1 0 1.25h-.366l1.433 1.433a.625.625 0 1 1-.884.884L2.5 3.384v.366a.625.625 0 1 1-1.25 0V1.875c0-.345.28-.625.625-.625H3.75Zm14.375 0c.345 0 .625.28.625.625V3.75a.625.625 0 1 1-1.25 0v-.366l-1.433 1.433a.625.625 0 1 1-.884-.884L16.616 2.5h-.366a.625.625 0 1 1 0-1.25h1.875Z"/>
</svg>
