<svg xmlns="http://www.w3.org/2000/svg" width="20" height="20" fill="currentColor" viewBox="0 0 20 20">
  <path d="M14.375 10a4.375 4.375 0 1 1 0 8.75 4.375 4.375 0 0 1 0-8.75Zm0 1.25a3.125 3.125 0 1 0 0 6.25 3.125 3.125 0 0 0 0-6.25ZM3.75 2.5a.625.625 0 1 1 0 1.25h-.313c-.359 0-.6.099-.738.21a.523.523 0 0 0-.199.43v1.235H15V4.44c0-.288-.303-.69-.938-.69h-.312a.625.625 0 1 1 0-1.25h.313c1.123 0 2.187.776 2.187 1.94v3.685a.625.625 0 1 1-1.25 0v-1.25H2.5v8.606c0 .388.335.746.807.746h4.818a.625.625 0 0 1 0 1.25H3.307c-1.111 0-2.057-.868-2.057-1.996V4.391c0-.564.241-1.059.66-1.4.409-.332.95-.491 1.528-.491h.312Zm11.509 10.107a.625.625 0 1 1 .884.884l-.884.884.884.884a.625.625 0 1 1-.884.884l-.884-.884-.884.884a.625.625 0 1 1-.884-.884l.884-.884-.884-.884a.625.625 0 1 1 .884-.884l.884.884.884-.884ZM11.268 1.25c.345 0 .625.28.625.625v2.48a.625.625 0 0 1-1.25 0v-.616H6.905v.615a.625.625 0 0 1-1.25 0V1.875a.625.625 0 0 1 1.25 0v.614h3.738v-.614c0-.345.28-.625.625-.625Z"/>
</svg>
