<svg xmlns="http://www.w3.org/2000/svg" width="20" height="20" fill="currentColor" viewBox="0 0 20 20">
  <path d="M3.125 15.594c.345 0 .625.28.625.625v.346c0 .169.108.395.382.608.27.21.607.327.868.327a.625.625 0 1 1 0 1.25c-.578 0-1.179-.235-1.636-.59-.453-.352-.864-.906-.864-1.595v-.346c0-.345.28-.625.625-.625Zm10-7.469c.69 0 1.25.56 1.25 1.25v3.542l3.401-.99a1.25 1.25 0 0 1 1.599 1.2V17.5c0 .69-.56 1.25-1.25 1.25h-10c-.69 0-1.25-.56-1.25-1.25V9.375c0-.69.56-1.25 1.25-1.25h5Zm-5 7.5V17.5h5v-1.875h-5Zm6.25-1.406V17.5h3.75v-4.372l-3.75 1.09ZM3.125 11.25c.345 0 .625.28.625.625v1.875h.625a.625.625 0 1 1 0 1.25h-2.5a.625.625 0 1 1 0-1.25H2.5v-1.875c0-.345.28-.625.625-.625Zm5 3.125h5V12.5h-5v1.875Zm0-3.125h5V9.375h-5v1.875Zm-5-4.375c.345 0 .625.28.625.625v1.875h.625a.625.625 0 1 1 0 1.25h-2.5a.625.625 0 1 1 0-1.25H2.5V7.5c0-.345.28-.625.625-.625ZM14.724 1.25c1.196 0 2.151.996 2.151 2.186V8.75a.625.625 0 1 1-1.25 0V3.436c0-.525-.42-.936-.901-.936H4.65c-.48 0-.901.41-.901.936V5h.625l.064.003a.625.625 0 0 1 0 1.244l-.064.003h-2.5a.625.625 0 1 1 0-1.25H2.5V3.436c0-1.19.955-2.186 2.151-2.186h10.073Z"/>
</svg>
