<svg xmlns="http://www.w3.org/2000/svg" width="20" height="20" fill="currentColor" viewBox="0 0 20 20">
  <path fill-rule="evenodd" d="M5.625 2.5c0-.69.56-1.25 1.25-1.25h9.375c.69 0 1.25.56 1.25 1.25v15.625c0 .345-.28.625-.625.625H3.125a.625.625 0 0 1-.625-.625V8.823a1.25 1.25 0 0 1 1.388-1.242l1.737.192V2.5Zm-1.875 15h5.625V9.447L3.75 8.823V17.5Zm6.875 0h5.625v-15H6.875v5.412l2.638.292a1.25 1.25 0 0 1 1.112 1.243V17.5Zm2.5-13.75a.625.625 0 1 0 0 1.25h1.25a.625.625 0 1 0 0-1.25h-1.25ZM12.5 6.875c0-.345.28-.625.625-.625h1.25a.625.625 0 1 1 0 1.25h-1.25a.625.625 0 0 1-.625-.625Zm.625 1.875a.625.625 0 1 0 0 1.25h1.25a.625.625 0 1 0 0-1.25h-1.25Zm-.625 3.125c0-.345.28-.625.625-.625h1.25a.625.625 0 1 1 0 1.25h-1.25a.625.625 0 0 1-.625-.625Zm.625 1.875a.625.625 0 1 0 0 1.25h1.25a.625.625 0 1 0 0-1.25h-1.25Zm-5-9.375c0-.345.28-.625.625-.625H10A.625.625 0 1 1 10 5H8.75a.625.625 0 0 1-.625-.625ZM5 10.625a.625.625 0 1 0 0 1.25h.625a.625.625 0 1 0 0-1.25H5Zm-.625 3.125c0-.345.28-.625.625-.625h.625a.625.625 0 1 1 0 1.25H5a.625.625 0 0 1-.625-.625ZM7.5 10.625a.625.625 0 1 0 0 1.25h.625a.625.625 0 1 0 0-1.25H7.5Zm-.625 3.125c0-.345.28-.625.625-.625h.625a.625.625 0 1 1 0 1.25H7.5a.625.625 0 0 1-.625-.625Zm1.875-7.5a.625.625 0 1 0 0 1.25H10a.625.625 0 1 0 0-1.25H8.75Z" clip-rule="evenodd"/>
</svg>
