<svg xmlns="http://www.w3.org/2000/svg" width="20" height="20" fill="currentColor" viewBox="0 0 20 20">
  <path fill-rule="evenodd" d="M8.016 11.25c-.264 0-.516.231-.516.553V17.5h5v-5.697c0-.322-.252-.553-.515-.553h-3.97Zm-1.766.553c0-.974.774-1.803 1.766-1.803h3.969c.991 0 1.765.83 1.765 1.803v6.322c0 .345-.28.625-.625.625h-6.25a.625.625 0 0 1-.625-.625v-6.322Z" clip-rule="evenodd"/>
  <path fill-rule="evenodd" d="M2.5 6.875c.345 0 .625.28.625.625v8.842c0 .675.507 1.158 1.053 1.158h11.644c.546 0 1.053-.483 1.053-1.158V7.5a.625.625 0 1 1 1.25 0v8.842c0 1.293-.996 2.408-2.303 2.408H4.178c-1.307 0-2.303-1.115-2.303-2.408V7.5c0-.345.28-.625.625-.625Z" clip-rule="evenodd"/>
  <path fill-rule="evenodd" d="M3.046 3.335 2.504 6.16c.042.337.395.715.996.715.245 0 .463-.07.634-.18a1.808 1.808 0 0 1 1.982 0c.17.11.389.18.634.18s.463-.07.634-.18a1.808 1.808 0 0 1 1.982 0c.17.11.389.18.634.18s.463-.07.634-.18a1.808 1.808 0 0 1 1.982 0c.17.11.389.18.634.18s.463-.07.634-.18a1.808 1.808 0 0 1 1.982 0c.17.11.389.18.634.18.613 0 .967-.393.998-.735l-.538-2.805a1.036 1.036 0 0 0-1.017-.835H4.063c-.497 0-.923.353-1.017.835ZM1.283 5.892l.536-2.795A2.285 2.285 0 0 1 4.063 1.25h11.88c1.093 0 2.036.774 2.244 1.847V3.1l.552 2.876a.62.62 0 0 1 .011.117c0 1.205-1.092 2.033-2.25 2.033-.485 0-.94-.14-1.315-.382l-.003-.002a.558.558 0 0 0-.614 0l-.003.002c-.375.243-.83.382-1.315.382s-.94-.14-1.315-.382l-.003-.002a.558.558 0 0 0-.614 0l-.003.002c-.375.243-.83.382-1.315.382s-.94-.14-1.315-.382l-.003-.002a.558.558 0 0 0-.614 0l-.003.002c-.375.243-.83.382-1.315.382s-.94-.14-1.315-.382l-.003-.002a.558.558 0 0 0-.614 0l-.003.002c-.375.243-.83.382-1.315.382-1.158 0-2.25-.828-2.25-2.033a.63.63 0 0 1 .033-.2Z" clip-rule="evenodd"/>
</svg>
