<svg xmlns="http://www.w3.org/2000/svg" width="20" height="20" fill="currentColor" viewBox="0 0 20 20">
  <path fill-rule="evenodd" d="M2.5 18.125c0-.345.28-.625.625-.625h13.75a.625.625 0 0 1 0 1.25H3.125a.625.625 0 0 1-.625-.625Zm15.055-12.72c.748.727.759 1.925.025 2.665l-8.182 8.252a1.875 1.875 0 0 1-2.648.015l-3.69-3.642a1.875 1.875 0 0 1-.017-2.652l8.136-8.238a1.875 1.875 0 0 1 2.64-.027l3.736 3.627Zm-.863 1.785a.625.625 0 0 0-.008-.888l-3.735-3.628a.625.625 0 0 0-.88.01l-8.137 8.238a.625.625 0 0 0 .006.884l3.69 3.64c.245.243.64.24.882-.004l8.182-8.252Z" clip-rule="evenodd"/>
  <path fill-rule="evenodd" d="M10.79 14.213 5.126 8.588l.88-.887 5.665 5.625-.88.887Z" clip-rule="evenodd"/>
</svg>
