<svg xmlns="http://www.w3.org/2000/svg" width="20" height="20" fill="currentColor" viewBox="0 0 20 20">
  <path fill-rule="evenodd" d="M7.116 1.25c-.47 0-.928.186-1.263.528L1.775 5.855a1.776 1.776 0 0 0-.525 1.26v5.77c0 .47.186.927.528 1.262l4.077 4.077c.336.336.784.526 1.26.526h5.77c.47 0 .927-.186 1.262-.528l4.077-4.077c.336-.336.526-.784.526-1.26v-5.77c0-.47-.186-.927-.528-1.262l-4.077-4.078a1.776 1.776 0 0 0-1.26-.525h-5.77Zm-.37 1.403a.516.516 0 0 1 .37-.153h5.768c.139 0 .27.054.377.16l4.08 4.08.006.005a.516.516 0 0 1 .153.37v5.77c0 .138-.053.27-.16.376l-4.08 4.08-.005.006a.516.516 0 0 1-.37.153h-5.77a.526.526 0 0 1-.376-.16l-4.08-4.08-.006-.005a.516.516 0 0 1-.153-.37v-5.77c0-.138.054-.27.16-.376l4.08-4.08.005-.006Zm.312 4.405a.625.625 0 0 1 .884 0L10 9.116l2.058-2.058a.625.625 0 1 1 .884.884L10.884 10l2.058 2.058a.625.625 0 1 1-.884.884L10 10.884l-2.058 2.058a.625.625 0 1 1-.884-.884L9.116 10 7.058 7.942a.625.625 0 0 1 0-.884Z" clip-rule="evenodd"/>
</svg>
