<svg xmlns="http://www.w3.org/2000/svg" width="20" height="20" fill="currentColor" viewBox="0 0 20 20">
  <path fill-rule="evenodd" d="M6.894 1.25h6.212c.332 0 .644.131.882.369l4.393 4.394c.238.23.369.55.369.88v6.213c0 .332-.131.644-.369.882l-4.393 4.393a1.23 1.23 0 0 1-.882.369H6.894a1.24 1.24 0 0 1-.881-.369l-4.394-4.393a1.229 1.229 0 0 1-.369-.882V6.894c0-.332.131-.644.369-.881l4.394-4.394c.23-.238.55-.369.88-.369Zm.164 5.808a.625.625 0 0 1 .884 0L10 9.116l2.058-2.058a.625.625 0 1 1 .884.884L10.884 10l2.058 2.058a.625.625 0 1 1-.884.884L10 10.884l-2.058 2.058a.625.625 0 1 1-.884-.884L9.116 10 7.058 7.942a.625.625 0 0 1 0-.884Z" clip-rule="evenodd"/>
</svg>
