<svg xmlns="http://www.w3.org/2000/svg" width="20" height="20" fill="currentColor" viewBox="0 0 20 20">
  <path fill-rule="evenodd" d="M12.1 1.833c0-.345.279-.625.624-.625h4.818c.69 0 1.25.56 1.25 1.25v4.818a.625.625 0 1 1-1.25 0V2.458h-4.818a.625.625 0 0 1-.625-.625Z" clip-rule="evenodd"/>
  <path fill-rule="evenodd" d="M17.942 2.058a.625.625 0 0 1 0 .884l-5 5a.625.625 0 1 1-.884-.884l5-5a.625.625 0 0 1 .884 0ZM1.833 12.1c.346 0 .625.279.625.624v4.818h4.818a.625.625 0 1 1 0 1.25H2.458c-.69 0-1.25-.56-1.25-1.25v-4.818c0-.345.28-.625.625-.625Z" clip-rule="evenodd"/>
  <path fill-rule="evenodd" d="M7.942 12.058a.625.625 0 0 1 0 .884l-5 5a.625.625 0 1 1-.884-.884l5-5a.625.625 0 0 1 .884 0Z" clip-rule="evenodd"/>
</svg>
