<svg xmlns="http://www.w3.org/2000/svg" width="20" height="20" fill="currentColor" viewBox="0 0 20 20">
  <path d="M14.152 5.848c.18.18.233.453.133.688l-2.222 5.195"/>
  <path fill-rule="evenodd" d="M12.062 11.733a.626.626 0 0 1-.329.33l-5.197 2.222a.625.625 0 0 1-.82-.82l2.221-5.196a.625.625 0 0 1 .33-.331l.002-.001 5.195-2.222a.625.625 0 0 1 .688.133M9.608 8.724l1.668 1.668 1.247-2.914-2.915 1.246Zm-.884.884-1.246 2.915 2.914-1.247-1.668-1.668Z" clip-rule="evenodd"/>
  <path fill-rule="evenodd" d="M1.208 10a8.792 8.792 0 1 1 17.584 0 8.792 8.792 0 0 1-17.584 0ZM10 2.458a7.542 7.542 0 1 0 0 15.084 7.542 7.542 0 0 0 0-15.084Z" clip-rule="evenodd"/>
</svg>
