<svg xmlns="http://www.w3.org/2000/svg" width="20" height="20" fill="currentColor" viewBox="0 0 20 20">
  <path d="M16.435 1.25c1.337 0 2.315 1.179 2.315 2.494V7.5a.625.625 0 1 1-1.25 0V6.25h-15v10.043c0 .715.523 1.207 1.064 1.207h5.811a.625.625 0 1 1 0 1.25h-5.81c-1.327 0-2.315-1.15-2.315-2.457V3.744c0-1.315.978-2.494 2.315-2.494h12.87Zm-.185 7.5c.345 0 .625.28.625.625v1.25h1.25a.625.625 0 1 1 0 1.25H17.5v1.242a3.134 3.134 0 0 1-2.5 3.07v1.938a.625.625 0 1 1-1.25 0v-1.939a3.134 3.134 0 0 1-2.5-3.069v-1.242h-.625a.625.625 0 1 1 0-1.25h1.25v-1.25a.625.625 0 1 1 1.25 0v1.25h2.5v-1.25c0-.345.28-.625.625-.625Zm-3.75 4.367c0 1.04.843 1.883 1.875 1.883a1.881 1.881 0 0 0 1.875-1.883v-1.242H12.5v1.242ZM3.466 2.506c-.497.057-.966.538-.966 1.238V5h15V3.744c0-.747-.534-1.244-1.065-1.244H3.565a.874.874 0 0 0-.1.006Zm8.563.619a.51.51 0 0 1 .184.034c.169.066.287.22.287.399v.385c0 .239-.21.432-.47.432h-.31l-.094-.009a.489.489 0 0 1-.163-.063l-.017-.011a.464.464 0 0 1-.125-.122.425.425 0 0 1-.024-.042c-.004-.008-.01-.016-.013-.024-.007-.018-.012-.036-.017-.054l-.008-.027a.393.393 0 0 1-.009-.08v-.385c0-.18.118-.333.287-.399a.506.506 0 0 1 .184-.034h.308Zm1.875 0a.51.51 0 0 1 .184.034c.169.066.287.22.287.399v.385a.433.433 0 0 1-.287.398.506.506 0 0 1-.184.034h-.308l-.095-.009a.489.489 0 0 1-.163-.063l-.017-.011a.464.464 0 0 1-.125-.122.425.425 0 0 1-.024-.042c-.004-.008-.01-.016-.013-.024-.007-.018-.012-.036-.017-.054l-.008-.027a.393.393 0 0 1-.009-.08v-.385c0-.18.118-.333.287-.399a.506.506 0 0 1 .184-.034h.308Zm1.875 0a.51.51 0 0 1 .184.034c.169.066.287.22.287.399v.385a.433.433 0 0 1-.287.398.506.506 0 0 1-.184.034h-.308l-.095-.009a.489.489 0 0 1-.163-.063l-.017-.011a.464.464 0 0 1-.125-.122.425.425 0 0 1-.024-.042c-.004-.008-.01-.016-.013-.024-.007-.018-.012-.036-.017-.054l-.008-.027a.393.393 0 0 1-.009-.08v-.385c0-.18.118-.333.287-.399a.506.506 0 0 1 .184-.034h.308Z"/>
</svg>
