<svg xmlns="http://www.w3.org/2000/svg" width="20" height="20" fill="currentColor" viewBox="0 0 20 20">
  <path d="M15.367 10.576a1.99 1.99 0 0 1 2.802 0 1.976 1.976 0 0 1 0 2.8l-4.79 4.787a.605.605 0 0 1-.287.162l-1.52.381a1.342 1.342 0 0 1-.312.038v.006c-.332 0-.65-.132-.888-.37a1.237 1.237 0 0 1-.331-1.198h-.007l.382-1.519a.597.597 0 0 1 .162-.287l4.79-4.8Zm1.92.888a.725.725 0 0 0-1.032 0l-4.67 4.668-.338 1.35v.005l1.376-.33 4.664-4.662a.736.736 0 0 0 0-1.031ZM15.267 1.25c1.567 0 2.858 1.25 2.858 2.814V8.75a.625.625 0 1 1-1.25 0V4.064c0-.852-.708-1.564-1.607-1.564H4.108c-.9 0-1.608.712-1.608 1.564v7.117c0 .426.162.737.412.95.26.221.654.369 1.15.369H5c.345 0 .625.28.625.625v1.79l2.725-2.27a.626.626 0 0 1 .4-.145h1.875a.625.625 0 1 1 0 1.25H8.977l-2.729 2.273a.637.637 0 0 1-.056.041c-.441.292-.931.192-1.254-.025A1.27 1.27 0 0 1 4.375 15v-1.25h-.313c-.736 0-1.436-.22-1.961-.668-.536-.457-.851-1.119-.851-1.901V4.064C1.25 2.5 2.54 1.25 4.107 1.25h11.16Z"/>
</svg>
