<svg xmlns="http://www.w3.org/2000/svg" width="20" height="20" fill="currentColor" viewBox="0 0 20 20">
  <path d="M16.398 1.875c.682 0 1.264.346 1.549.873.294.545.237 1.235-.271 1.744l-.015.014-5.16 4.833v4.42c0 .117-.033.23-.094.33l-2.055 3.329c-.224.373-.598.56-.933.643-.34.085-.71.081-1.048.014a2.216 2.216 0 0 1-.967-.436c-.29-.237-.529-.596-.529-1.063v-7.26L2.311 4.478h.001a1.445 1.445 0 0 1-.259-1.73c.283-.522.857-.867 1.532-.872l.012-.001h12.801Zm-8.273 14.7c0 .003-.005.035.071.097a.98.98 0 0 0 .419.177c.186.037.368.033.504 0 .122-.031.159-.071.164-.077l.003-.005 1.965-3.185V9.07c0-.173.071-.339.197-.457l5.348-5.01c.058-.06.074-.107.078-.136a.201.201 0 0 0-.027-.123c-.051-.095-.193-.218-.449-.218H3.602c-.256 0-.398.123-.449.218a.201.201 0 0 0-.027.123.213.213 0 0 0 .044.097l.038.045.013.013L7.955 8.64c.11.116.17.27.17.429v7.507Z"/>
</svg>
