<svg xmlns="http://www.w3.org/2000/svg" width="20" height="20" fill="currentColor" viewBox="0 0 20 20">
  <path d="M15.181 1.863a2.089 2.089 0 0 1 2.956 0l.074.078a2.09 2.09 0 0 1-.074 2.88l-5.189 5.187a.625.625 0 0 1-.289.164l-1.647.413h-.002A1.319 1.319 0 0 1 9.414 8.99l.414-1.647a.625.625 0 0 1 .164-.29l5.188-5.19h.001Zm2.07.882a.84.84 0 0 0-1.187 0l-5.066 5.07-.371 1.476a.06.06 0 0 0 0 .033.075.075 0 0 0 .049.048h.033l1.478-.37 5.066-5.064a.843.843 0 0 0 0-1.192h-.002Z"/>
  <path d="M10.625 12.5a.625.625 0 1 1 1.25 0v1.885c0 .116-.032.23-.093.328l-2.055 3.33c-.225.373-.599.56-.933.643-.34.085-.71.081-1.048.014a2.216 2.216 0 0 1-.968-.436c-.288-.237-.528-.596-.528-1.063V9.94L1.686 5.103a1.445 1.445 0 0 1-.258-1.73c.282-.522.857-.867 1.531-.872l.012-.001h8.28l.063.003a.625.625 0 0 1 0 1.244l-.064.003H2.976c-.255 0-.397.123-.448.218a.201.201 0 0 0-.027.123.213.213 0 0 0 .043.097l.039.045.012.013L7.33 9.265c.11.116.17.27.17.429V17.2c0 .002-.005.034.072.096a.98.98 0 0 0 .418.177c.187.037.368.033.504 0 .123-.031.16-.071.165-.077l.003-.005 1.964-3.185V12.5Z"/>
</svg>
