<svg xmlns="http://www.w3.org/2000/svg" width="20" height="20" fill="currentColor" viewBox="0 0 20 20">
  <path fill-rule="evenodd" d="M7.936 8.292 2.603 3.105a.318.318 0 0 1-.101-.18.266.266 0 0 1 .035-.164c.065-.12.237-.263.533-.263h10.055a.625.625 0 1 0 0-1.248H3.058c-.716.004-1.323.368-1.62.916-.31.57-.25 1.292.284 1.824l5.153 5.012v8.162c0 .921.764 1.412 1.412 1.542.656.132 1.5-.02 2.014-.668l2.684-3.288c.09-.111.14-.25.14-.394V11.86a.625.625 0 0 0-1.25 0v2.274L9.33 17.253l-.007.009c-.143.182-.453.288-.788.22-.345-.068-.409-.236-.409-.318V8.74a.624.624 0 0 0-.189-.447Zm2.436 1.34c.238.237.556.368.888.368v-.006c.106 0 .206-.013.312-.038l1.52-.38a.605.605 0 0 0 .287-.163l4.79-4.787a1.976 1.976 0 0 0 0-2.8 1.99 1.99 0 0 0-2.802 0l-4.789 4.8a.598.598 0 0 0-.162.287l-.382 1.519h.007c-.113.437.012.88.33 1.2Zm.875-.894V8.73l.338-1.35 4.67-4.667a.725.725 0 0 1 1.032 0 .735.735 0 0 1 0 1.03l-4.664 4.663-1.376.33Z" clip-rule="evenodd"/>
</svg>
