<svg xmlns="http://www.w3.org/2000/svg" width="20" height="20" fill="currentColor" viewBox="0 0 20 20">
  <path d="M11.315 2.503a.626.626 0 0 1 0 1.244l-.064.003H2.977c-.256 0-.397.123-.449.218a.203.203 0 0 0-.027.123.216.216 0 0 0 .044.097l.038.044.013.014L7.33 9.265c.11.116.17.27.17.428v7.508c0 .004-.003.035.071.097.085.069.23.138.418.176.186.037.368.033.504 0 .123-.03.16-.072.165-.078l.003-.004 1.965-3.185V9.693c0-.165.065-.324.182-.441l1.249-1.255a.625.625 0 0 1 .886.88l-1.067 1.074v4.434c0 .116-.033.23-.094.328l-2.054 3.33-.091.132c-.227.286-.55.439-.843.511-.34.085-.71.081-1.048.014a2.216 2.216 0 0 1-.968-.435c-.288-.237-.528-.597-.528-1.064v-7.26L1.687 5.104v-.001a1.446 1.446 0 0 1-.26-1.73c.283-.523.859-.866 1.533-.872l.012-.001h8.28l.063.003Zm4.31-1.253a3.126 3.126 0 0 1 0 6.25 3.126 3.126 0 0 1 0-6.25Z"/>
</svg>
