<svg xmlns="http://www.w3.org/2000/svg" width="20" height="20" fill="currentColor" viewBox="0 0 20 20">
  <path fill-rule="evenodd" d="m2.602 3.106 5.346 5.196c.12.118.19.28.19.448v8.387c0 .093.074.265.41.34.326.073.624-.028.763-.205l.006-.007 2.546-3.145V9.06c0-.162.063-.318.176-.435l5.35-5.51.006-.006a.32.32 0 0 0 .103-.183.267.267 0 0 0-.035-.163c-.065-.12-.236-.263-.532-.263H3.07c-.296 0-.467.143-.533.263a.266.266 0 0 0-.034.163.318.318 0 0 0 .1.18Zm14.33-1.856c.72 0 1.331.365 1.63.917.309.57.25 1.29-.28 1.822l-5.17 5.325v5.027a.624.624 0 0 1-.138.394l-2.683 3.313c-.517.655-1.362.794-2.015.649-.646-.144-1.389-.65-1.389-1.56V9.014L1.722 3.993c-.535-.533-.594-1.255-.285-1.826.298-.549.904-.913 1.619-.917h13.875Z" clip-rule="evenodd"/>
</svg>
