<svg xmlns="http://www.w3.org/2000/svg" width="20" height="20" fill="currentColor" viewBox="0 0 20 20">
  <path fill-rule="evenodd" d="M1.25 18.125c0-.345.28-.625.625-.625h16.25a.625.625 0 1 1 0 1.25H1.875a.625.625 0 0 1-.625-.625ZM11.221 1.66h.001l6.84 5.249c.68.52.838 1.32.553 1.984-.277.648-.944 1.107-1.774 1.107H3.155c-.828 0-1.493-.46-1.77-1.107-.283-.662-.129-1.462.547-1.983l.001-.001L8.72 1.702a.628.628 0 0 1 .048-.041 2.038 2.038 0 0 1 2.453-.001Zm-1.647.96a.633.633 0 0 1-.037.03L2.695 7.9c-.212.164-.226.35-.16.501.07.167.27.349.62.349h13.686c.354 0 .554-.183.625-.349.064-.15.052-.335-.164-.5l-6.845-5.252a.794.794 0 0 0-.883-.029Z" clip-rule="evenodd"/>
  <path fill-rule="evenodd" d="M10 8.75c.345 0 .625.28.625.625v8.75a.625.625 0 1 1-1.25 0v-8.75c0-.345.28-.625.625-.625Zm-6.25 0c.345 0 .625.28.625.625v8.75a.625.625 0 1 1-1.25 0v-8.75c0-.345.28-.625.625-.625Zm12.5 0c.345 0 .625.28.625.625v8.75a.625.625 0 1 1-1.25 0v-8.75c0-.345.28-.625.625-.625Z" clip-rule="evenodd"/>
</svg>
