<svg xmlns="http://www.w3.org/2000/svg" width="20" height="20" fill="currentColor" viewBox="0 0 20 20">
  <path fill-rule="evenodd" d="M11.221 1.66h.001l6.84 5.249c.68.52.838 1.32.554 1.984-.274.639-.927 1.094-1.741 1.107v7.5h1.25a.625.625 0 1 1 0 1.25H1.875a.625.625 0 1 1 0-1.25h1.25V10c-.814-.011-1.467-.469-1.74-1.107-.283-.662-.129-1.462.547-1.983l.001-.001L8.72 1.702a.628.628 0 0 1 .048-.041 2.038 2.038 0 0 1 2.453-.001Zm4.404 15.84V10h-5v7.5h5Zm.625-8.75h.591c.354 0 .554-.183.625-.349.064-.15.052-.335-.164-.5l-6.845-5.252a.794.794 0 0 0-.883-.029.629.629 0 0 1-.037.03L2.695 7.9c-.212.164-.226.35-.16.501.07.167.27.349.62.349H16.25ZM9.375 17.5h-5V10h5v7.5Z" clip-rule="evenodd"/>
</svg>
