<svg xmlns="http://www.w3.org/2000/svg" width="20" height="20" fill="currentColor" viewBox="0 0 20 20">
  <path fill-rule="evenodd" d="M6.901 1.25c1.458.01 2.713.858 3.58 2.097.704 1.005 1.178 2.299 1.335 3.726a6.61 6.61 0 0 0 .161-.232c.27-.404.742-1.179 1.707-1.213a.631.631 0 0 1 .691.622c0 1.393.4 2.056.848 2.803.49.815 1.027 1.715 1.027 3.447l-.008.322a6.244 6.244 0 0 1-5.92 5.92L10 18.75h-.625l-.322-.009a6.244 6.244 0 0 1-5.92-5.92l-.008-.32c0-2.384 1.514-3.925 2.49-5.282.508-.707.906-1.386 1.07-2.17.163-.772.112-1.706-.39-2.938a.625.625 0 0 1 .313-.8l.03-.015h.001l.022-.008.028-.01.01-.004a.622.622 0 0 1 .105-.02l.01-.001A.622.622 0 0 1 6.9 1.25Zm3.547 10.086A3.747 3.747 0 0 0 7.5 15l.003.13c.056 1.255.914 2.237 2.222 2.357.683-.044 1.22-.216 1.585-.442.372-.23.526-.484.558-.703l.007-.092c0-.895-.397-1.251-.898-2.061-.244-.395-.475-.865-.563-1.49a4.557 4.557 0 0 1 .034-1.363ZM7.804 2.68c.257.978.27 1.84.105 2.627-.219 1.041-.738 1.89-1.28 2.643-1.126 1.566-2.254 2.683-2.254 4.551l.007.258a4.99 4.99 0 0 0 2.235 3.914 3.893 3.893 0 0 1-.363-1.48L6.25 15a4.996 4.996 0 0 1 5.061-4.998l.015.003.044.007.028.006.025.006.013.004a.55.55 0 0 1 .04.015l.009.003a.585.585 0 0 1 .04.018l.02.01.027.016.025.015.014.011a.62.62 0 0 1 .256.416l.004.022c0 .01 0 .02.002.03l.001.036.001.005-.001.02a.6.6 0 0 1-.02.137l-.004.017c-.227.784-.254 1.325-.198 1.726.056.395.198.698.388 1.007.369.596 1.085 1.365 1.085 2.718l-.005.148-.002.011a4.985 4.985 0 0 0 1.875-3.651L15 12.5c0-1.393-.4-2.056-.848-2.803-.382-.637-.792-1.325-.954-2.422a7.463 7.463 0 0 0-.18.26c-.274.41-.76 1.215-1.768 1.215a.625.625 0 0 1-.622-.561l-.003-.064c0-1.615-.458-3.048-1.168-4.062-.474-.678-1.044-1.147-1.653-1.384Z" clip-rule="evenodd"/>
</svg>
