<svg xmlns="http://www.w3.org/2000/svg" width="20" height="20" fill="currentColor" viewBox="0 0 20 20">
  <path d="M16.24 2.5H3.759c-.35 0-.633.28-.633.625v8.001h13.102c.553 0 .84-.651.463-1.05l-2.474-2.622a.62.62 0 0 1-.03-.819l2.547-3.118a.624.624 0 0 0-.492-1.017Z"/>
  <path fill-rule="evenodd" d="M2.5 3.125c0-.69.566-1.25 1.264-1.25h12.47c1.062 0 1.65 1.217.983 2.035l-2.544 3.118 2.472 2.621c.753.8.18 2.226-.925 2.226H3.764v6.25a.629.629 0 0 1-.632.625.629.629 0 0 1-.632-.625v-15Zm1.264 7.376H16.22L13.748 7.88a1.24 1.24 0 0 1-.06-1.637l2.545-3.118H3.764v7.376Z" clip-rule="evenodd"/>
</svg>
