<svg xmlns="http://www.w3.org/2000/svg" width="20" height="20" fill="currentColor" viewBox="0 0 20 20">
  <path d="M13.931 10a3.931 3.931 0 1 0-7.861 0 3.931 3.931 0 0 0 7.86 0Zm1.25 0a5.182 5.182 0 1 1-10.363 0 5.182 5.182 0 0 1 10.363 0ZM15 1.875a.625.625 0 1 1 1.25 0v2.5c0 .345-.28.625-.625.625h-2.5a.625.625 0 1 1 0-1.25H15V1.875ZM3.75 18.125v-2.5c0-.345.28-.625.625-.625h2.5a.625.625 0 1 1 0 1.25H5v1.875a.625.625 0 1 1-1.25 0Z"/>
  <path d="M1.25 10A8.748 8.748 0 0 1 10 1.25c2.385 0 4.464.767 6.067 2.37a.625.625 0 1 1-.884.884C13.845 3.166 12.1 2.5 10 2.5a7.498 7.498 0 0 0-6.495 11.25.625.625 0 0 1-1.083.626A8.711 8.711 0 0 1 1.25 10Zm16.25 0c0-1.37-.367-2.647-1.005-3.75a.625.625 0 0 1 1.082-.626A8.748 8.748 0 0 1 10 18.75c-2.384 0-4.463-.767-6.066-2.37a.625.625 0 1 1 .884-.884C6.155 16.834 7.9 17.5 10 17.5c4.144 0 7.5-3.356 7.5-7.5Z"/>
  <path d="M10.625 8.75a.625.625 0 1 0-1.25 0 .625.625 0 0 0 1.25 0Zm1.25 0a1.875 1.875 0 1 1-3.75 0 1.875 1.875 0 0 1 3.75 0Zm0 5v-1.101c0-.002.005-.02-.045-.057a.572.572 0 0 0-.333-.092H8.6a.715.715 0 0 0-.396.12c-.059.042-.075.071-.079.08v1.05a.625.625 0 1 1-1.25 0v-1.052c-.003-.5.293-.876.606-1.098.317-.224.72-.35 1.119-.35h2.897c.385 0 .774.11 1.08.34.315.234.55.603.548 1.066v1.094a.625.625 0 1 1-1.25 0Z"/>
</svg>
