<svg xmlns="http://www.w3.org/2000/svg" width="20" height="20" fill="currentColor" viewBox="0 0 20 20">
  <path fill-rule="evenodd" d="M5 3.75a1.25 1.25 0 1 0 0 2.5 1.25 1.25 0 0 0 0-2.5ZM2.5 5a2.5 2.5 0 0 1 4.921-.625h5.158a2.501 2.501 0 1 1 1.576 2.979l-7.263 7.262c.248.287.432.63.53 1.009H12.5V15c0-.69.56-1.25 1.25-1.25h2.5c.69 0 1.25.56 1.25 1.25v2.5c0 .69-.56 1.25-1.25 1.25h-2.5c-.69 0-1.25-.56-1.25-1.25v-.625H7.421a2.501 2.501 0 1 1-1.576-2.979l7.263-7.262a2.493 2.493 0 0 1-.53-1.009H7.422A2.501 2.501 0 0 1 2.5 5Zm11.25 11.875v.625h2.5V15h-2.5v1.875ZM13.75 5a1.25 1.25 0 1 0 2.5 0 1.25 1.25 0 0 0-2.5 0Zm-10 11.25a1.25 1.25 0 1 1 2.5 0 1.25 1.25 0 0 1-2.5 0Z" clip-rule="evenodd"/>
</svg>
