<svg xmlns="http://www.w3.org/2000/svg" width="20" height="20" fill="currentColor" viewBox="0 0 20 20">
  <path fill-rule="evenodd" d="M2.986 1.875c-.935 0-1.736.74-1.736 1.696V16.43c0 .955.801 1.696 1.736 1.696h1.111a.63.63 0 0 0 .14-.015.63.63 0 0 0 .138.015h12.692c.924 0 1.683-.75 1.683-1.678V8.553c0-.777-.533-1.43-1.25-1.622V6.25c0-.393-.103-.86-.415-1.242-.329-.402-.83-.633-1.46-.633h-5.543L9.39 2.92a1.737 1.737 0 0 0-1.604-1.045h-4.8Zm13.264 5V6.25c0-.196-.053-.354-.132-.45-.062-.075-.186-.175-.493-.175H9.687a.625.625 0 0 1-.564-.357l-.868-1.825a.487.487 0 0 0-.469-.318h-4.8c-.287 0-.486.224-.486.446V16.43c0 .223.199.446.486.446h.764V8.553c0-.927.759-1.678 1.683-1.678H16.25ZM5 8.553c0-.231.193-.428.433-.428h11.634c.24 0 .433.197.433.428v7.894a.433.433 0 0 1-.433.428H5V8.553Z" clip-rule="evenodd"/>
</svg>
