<svg xmlns="http://www.w3.org/2000/svg" width="20" height="20" fill="currentColor" viewBox="0 0 20 20">
  <path fill-rule="evenodd" d="M5.433 1.875c-.943 0-1.683.785-1.683 1.712v10.326c0 .927.74 1.712 1.683 1.712h11.634c.943 0 1.683-.785 1.683-1.712V6.304c0-.419-.13-.894-.443-1.278-.328-.401-.828-.664-1.466-.664h-6.024v-.775c0-.927-.74-1.712-1.682-1.712H5.433ZM5 3.587c0-.269.212-.462.433-.462h3.702a.45.45 0 0 1 .432.462v1.4c0 .346.28.625.625.625h6.649c.268 0 .41.098.498.205a.79.79 0 0 1 .161.487v7.609a.451.451 0 0 1-.433.462H5.433A.451.451 0 0 1 5 13.913V3.587Zm-2.5.788a.625.625 0 1 0-1.25 0v11.984c0 .931.719 1.766 1.69 1.766h13.31a.625.625 0 1 0 0-1.25H2.94c-.2 0-.44-.192-.44-.516V4.375Z" clip-rule="evenodd"/>
</svg>
