<svg xmlns="http://www.w3.org/2000/svg" width="20" height="20" fill="currentColor" viewBox="0 0 20 20">
  <path fill-rule="evenodd" d="M1.25 3.571c0-.93.755-1.696 1.69-1.696h4.6a1.69 1.69 0 0 1 1.564 1.052l.67 1.448H15c.527 0 .99.27 1.305.591.314.32.57.781.57 1.284v.625h.192c.924 0 1.683.75 1.683 1.678v.197a.625.625 0 1 1-1.25 0v-.197a.433.433 0 0 0-.433-.428H5.433A.433.433 0 0 0 5 8.553v8.322h3.125a.625.625 0 1 1 0 1.25H2.94c-.935 0-1.69-.766-1.69-1.696V3.57ZM15.625 6.25v.625H5.433c-.924 0-1.683.75-1.683 1.678v8.322h-.81a.446.446 0 0 1-.44-.446V3.57c0-.247.203-.446.44-.446h4.6c.18 0 .343.11.408.278l.015.035.845 1.825a.625.625 0 0 0 .567.362H15c.098 0 .26.06.413.217.156.158.212.322.212.408Zm-5.253 12.131c.238.238.556.369.888.369v-.006c.106 0 .206-.013.312-.038l1.52-.38a.605.605 0 0 0 .287-.163l4.79-4.787a1.976 1.976 0 0 0 0-2.8 1.99 1.99 0 0 0-2.802 0l-4.789 4.8a.598.598 0 0 0-.162.287l-.382 1.518h.007c-.113.438.012.882.331 1.2Zm.875-.893v-.006l.338-1.35 4.67-4.668a.725.725 0 0 1 1.032 0 .735.735 0 0 1 0 1.03l-4.664 4.663-1.376.33Z" clip-rule="evenodd"/>
</svg>
