<svg xmlns="http://www.w3.org/2000/svg" width="20" height="20" fill="currentColor" viewBox="0 0 20 20">
  <path fill-rule="evenodd" d="M1.25 3.571c0-.93.755-1.696 1.69-1.696h4.6a1.69 1.69 0 0 1 1.564 1.052l.67 1.448H15c.527 0 .99.27 1.305.591.314.32.57.781.57 1.284v.625h.192c.924 0 1.683.75 1.683 1.678v.197a.625.625 0 1 1-1.25 0v-.197a.433.433 0 0 0-.433-.428H5.433A.433.433 0 0 0 5 8.553v8.322h3.75a.625.625 0 1 1 0 1.25H2.94c-.935 0-1.69-.766-1.69-1.696V3.57ZM15.625 6.25v.625H5.433c-.924 0-1.683.75-1.683 1.678v8.322h-.81a.446.446 0 0 1-.44-.446V3.57c0-.247.203-.446.44-.446h4.6c.18 0 .343.11.408.278l.015.035.845 1.825a.625.625 0 0 0 .567.362H15c.098 0 .26.06.413.217.156.158.212.322.212.408Zm-3.75 9.659v-4.43c.002-.343.418-.854 1.252-.854.837 0 1.25.512 1.25.851v4.055a.133.133 0 0 1-.037.039.454.454 0 0 1-.277.082.454.454 0 0 1-.278-.082.133.133 0 0 1-.036-.039v-3.315a.625.625 0 1 0-1.25 0v3.322c0 .884.846 1.364 1.563 1.364.718 0 1.564-.48 1.564-1.365v-4.06c0-1.291-1.266-2.102-2.498-2.102-1.235 0-2.497.81-2.503 2.099v4.435c0 1.7 1.686 2.841 3.438 2.841 1.751 0 3.437-1.141 3.437-2.841V12.5a.625.625 0 1 0-1.25 0v3.409c0 .748-.832 1.591-2.188 1.591-1.355 0-2.187-.843-2.187-1.591Z" clip-rule="evenodd"/>
</svg>
