<svg xmlns="http://www.w3.org/2000/svg" width="20" height="20" fill="currentColor" viewBox="0 0 20 20">
  <path fill-rule="evenodd" d="M1.25 3.571c0-.93.755-1.696 1.69-1.696h4.6a1.69 1.69 0 0 1 1.564 1.052l.67 1.448H15c.527 0 .99.27 1.305.591.314.32.57.781.57 1.284v.625h.192c.924 0 1.683.75 1.683 1.678v.197a.625.625 0 1 1-1.25 0v-.197a.433.433 0 0 0-.433-.428H5.433A.433.433 0 0 0 5 8.553v8.322h3.125a.625.625 0 1 1 0 1.25H2.94c-.935 0-1.69-.766-1.69-1.696V3.57Zm2.5 13.304V8.553c0-.927.759-1.678 1.683-1.678h10.192V6.25c0-.086-.056-.25-.212-.408-.153-.157-.315-.217-.413-.217H9.375a.625.625 0 0 1-.567-.362l-.845-1.825a.629.629 0 0 1-.015-.035.44.44 0 0 0-.408-.278h-4.6a.446.446 0 0 0-.44.446V16.43c0 .247.203.446.44.446h.81Zm10.037-5.381a3.125 3.125 0 0 1 3.706 4.765l-3.706-4.765Zm-1.033.708a3.125 3.125 0 0 0 3.8 4.885l-3.8-4.885ZM15 10a4.375 4.375 0 1 0 0 8.75A4.375 4.375 0 0 0 15 10Z" clip-rule="evenodd"/>
</svg>
