<svg xmlns="http://www.w3.org/2000/svg" width="20" height="20" fill="currentColor" viewBox="0 0 20 20">
  <path fill-rule="evenodd" d="M2.94 1.875c-.935 0-1.69.766-1.69 1.696V16.43c0 .93.755 1.696 1.69 1.696h7.685a.625.625 0 1 0 0-1.25H5V8.553c0-.231.193-.428.433-.428h11.634c.24 0 .433.197.433.428v.197a.625.625 0 1 0 1.25 0v-.197c0-.927-.759-1.678-1.683-1.678h-.192V6.25c0-.503-.256-.964-.57-1.284-.315-.32-.778-.591-1.305-.591H9.774l-.67-1.448A1.69 1.69 0 0 0 7.54 1.875h-4.6Zm12.685 5V6.25c0-.086-.056-.25-.212-.408-.153-.157-.315-.217-.413-.217H9.375a.625.625 0 0 1-.567-.362l-.845-1.825a.629.629 0 0 1-.015-.035.44.44 0 0 0-.408-.278h-4.6a.446.446 0 0 0-.44.446V16.43c0 .247.203.446.44.446h.81V8.553c0-.927.759-1.678 1.683-1.678h10.192Zm0 4.375c-.64 0-1.25.584-1.25 1.41v.497a24.24 24.24 0 0 1 2.5 0v-.496a1.51 1.51 0 0 0-.388-1.018 1.164 1.164 0 0 0-.862-.393Zm2.483 2.023a.63.63 0 0 0 .017-.148v-.464a2.76 2.76 0 0 0-.713-1.86l-.004-.004A2.414 2.414 0 0 0 15.625 10c-1.426 0-2.5 1.242-2.5 2.66v.465c0 .051.006.1.018.148a.89.89 0 0 0-.643.856v3.617c0 .427.305.818.76.88l.013.002c1.4.163 3.31.163 4.704 0l.016-.002a.888.888 0 0 0 .757-.88V14.13a.886.886 0 0 0-.642-.856ZM13.75 17.42v-2.967a22.297 22.297 0 0 1 3.75 0v2.967a22.297 22.297 0 0 1-3.75 0Z" clip-rule="evenodd"/>
</svg>
