<svg xmlns="http://www.w3.org/2000/svg" width="20" height="20" fill="currentColor" viewBox="0 0 20 20">
  <path fill-rule="evenodd" d="M2.94 1.875c-.935 0-1.69.766-1.69 1.696V16.43c0 .93.755 1.696 1.69 1.696h7.685a.625.625 0 1 0 0-1.25H5V8.553c0-.231.193-.428.433-.428h11.634c.24 0 .433.197.433.428v.197a.625.625 0 1 0 1.25 0v-.197c0-.927-.759-1.678-1.683-1.678h-.192V6.25c0-.503-.256-.964-.57-1.284-.315-.32-.778-.591-1.305-.591H9.774l-.67-1.448A1.69 1.69 0 0 0 7.54 1.875h-4.6Zm12.685 5V6.25c0-.086-.056-.25-.212-.408-.153-.157-.315-.217-.413-.217H9.375a.625.625 0 0 1-.567-.362l-.845-1.825a.629.629 0 0 1-.015-.035.44.44 0 0 0-.408-.278h-4.6a.446.446 0 0 0-.44.446V16.43c0 .247.203.446.44.446h.81V8.553c0-.927.759-1.678 1.683-1.678h10.192Zm0 4.375c-.64 0-1.25.584-1.25 1.41v.497c1.196-.063 2.545-.033 3.602.09l.012.001a.884.884 0 0 1 .761.88v3.618c0 .44-.322.818-.757.88l-.016.002c-1.394.163-3.304.163-4.704 0l-.012-.001a.883.883 0 0 1-.761-.88v-3.618c0-.4.267-.75.643-.856a.629.629 0 0 1-.018-.148v-.464c0-1.419 1.074-2.661 2.5-2.661.707 0 1.333.31 1.783.797l.004.004c.22.243.4.53.523.847a.625.625 0 0 1-1.164.454 1.501 1.501 0 0 0-.284-.46 1.164 1.164 0 0 0-.862-.392Zm-1.875 6.17v-2.966a22.297 22.297 0 0 1 3.75 0v2.967a22.297 22.297 0 0 1-3.75 0Z" clip-rule="evenodd"/>
</svg>
