<svg xmlns="http://www.w3.org/2000/svg" width="20" height="20" fill="none" viewBox="0 0 20 20">
  <path fill="#3D3C3C" fill-rule="evenodd" d="M2.688 3.75a.19.19 0 0 0-.188.192v11.485c0 .118.09.198.188.198h14.624a.195.195 0 0 0 .188-.198V5.869a.191.191 0 0 0-.188-.198H8.01a1.72 1.72 0 0 1-1.207-.505l-.004-.003-1.262-1.28a.445.445 0 0 0-.318-.133h-2.53ZM18.75 5.87c0-.8-.64-1.449-1.438-1.449H8.01a.47.47 0 0 1-.323-.138L6.43 3.01a1.695 1.695 0 0 0-1.212-.51h-2.53A1.44 1.44 0 0 0 1.25 3.942v11.485c0 .8.64 1.448 1.438 1.448h14.624a1.445 1.445 0 0 0 1.438-1.436v-9.57Z" clip-rule="evenodd"/>
</svg>
