<svg xmlns="http://www.w3.org/2000/svg" width="20" height="20" fill="currentColor" viewBox="0 0 20 20">
  <path fill-rule="evenodd" d="M5.433 1.25c-.943 0-1.683.785-1.683 1.712v.788a.625.625 0 1 0 1.25 0v-.788c0-.269.212-.462.433-.462h3.702c.161 0 .228.037.283.084.084.072.187.211.335.508l.626 1.25a.625.625 0 0 0 .559.346h5.937c.174 0 .309.081.43.282.132.218.195.507.195.71v7.445a.625.625 0 1 0 1.25 0V5.679c0-.395-.109-.915-.375-1.356-.277-.458-.767-.886-1.5-.886h-5.551l-.453-.904c-.164-.328-.358-.657-.64-.899-.31-.265-.676-.384-1.096-.384H5.433ZM2.933 5C1.99 5 1.25 5.785 1.25 6.712v10.326c0 .927.74 1.712 1.683 1.712h11.634c.943 0 1.683-.785 1.683-1.712V9.429c0-.395-.109-.915-.375-1.356-.277-.458-.767-.886-1.5-.886H8.824l-.452-.904c-.165-.328-.36-.657-.641-.899C7.42 5.12 7.055 5 6.635 5H2.933ZM2.5 6.712c0-.269.212-.462.433-.462h3.702c.161 0 .228.037.283.084.084.072.187.211.335.508l.625 1.25a.625.625 0 0 0 .56.345h5.937c.174 0 .309.082.43.283.132.218.195.507.195.71v7.608a.451.451 0 0 1-.433.462H2.933a.451.451 0 0 1-.433-.462V6.712Z" clip-rule="evenodd"/>
</svg>
