<svg xmlns="http://www.w3.org/2000/svg" width="20" height="20" fill="currentColor" viewBox="0 0 20 20">
  <path fill-rule="evenodd" d="M8.726 2.79c-.18-.628-.464-1.081-.921-1.329-.394-.213-.829-.212-1.112-.211H3.028c-.943 0-1.778.734-1.778 1.712v11.413a.625.625 0 1 0 1.25 0V2.962c0-.218.204-.462.529-.462h3.619c.354 0 .475.014.562.06.044.025.182.114.314.574l.312 1.1a.625.625 0 0 0 .601.454h7.202c.223 0 .337.045.392.078.051.031.09.074.124.146.085.182.095.44.095.767v1.196a.625.625 0 1 0 1.25 0V5.646c0-.282.001-.806-.214-1.265a1.56 1.56 0 0 0-.61-.685c-.292-.177-.642-.258-1.037-.258H8.91l-.183-.647V2.79ZM5.433 5.624c-.913 0-1.683.73-1.683 1.658v9.81c0 .927.77 1.657 1.683 1.657h11.634c.913 0 1.683-.73 1.683-1.658V9.864c0-.405-.123-.853-.46-1.203-.342-.357-.832-.536-1.415-.536h-5.202l-.468-1.17-.007-.016c-.446-1.03-1.363-1.314-2.136-1.314h-3.63ZM5 7.283c0-.21.182-.408.433-.408h3.63c.474 0 .806.148.985.554l.622 1.553a.625.625 0 0 0 .58.393h5.625c.324 0 .458.094.514.152.063.065.111.174.111.337v7.228a.424.424 0 0 1-.433.408H5.433A.424.424 0 0 1 5 17.092v-9.81Z" clip-rule="evenodd"/>
</svg>
