<svg xmlns="http://www.w3.org/2000/svg" width="20" height="20" fill="currentColor" viewBox="0 0 20 20">
  <path fill-rule="evenodd" d="M1.25 3.571c0-.93.755-1.696 1.69-1.696h4.6a1.69 1.69 0 0 1 1.564 1.052l.67 1.448H15c.527 0 .99.27 1.305.591.314.32.57.781.57 1.284v.625h.192c.924 0 1.683.75 1.683 1.678v.197a.625.625 0 1 1-1.25 0v-.197a.433.433 0 0 0-.433-.428H5.433A.433.433 0 0 0 5 8.553v8.322h3.125a.625.625 0 1 1 0 1.25H2.94c-.935 0-1.69-.766-1.69-1.696V3.57ZM15.625 6.25v.625H5.433c-.924 0-1.683.75-1.683 1.678v8.322h-.81a.446.446 0 0 1-.44-.446V3.57c0-.247.203-.446.44-.446h4.6c.18 0 .343.11.408.278l.015.035.845 1.825a.625.625 0 0 0 .567.362H15c.098 0 .26.06.413.217.156.158.212.322.212.408ZM14.375 10a4.375 4.375 0 1 0 0 8.75 4.375 4.375 0 0 0 0-8.75Zm-3.125 4.375a3.125 3.125 0 1 1 6.25 0 3.125 3.125 0 0 1-6.25 0Zm2.683 2.317-1.25-1.25a.625.625 0 1 1 .884-.884l.183.183V12.5a.625.625 0 1 1 1.25 0v2.241l.183-.183a.625.625 0 1 1 .884.884l-1.25 1.25m-.884 0a.63.63 0 0 0 .203.136Zm.203.136c.072.03.15.046.233.047h.012a.623.623 0 0 0 .432-.179" clip-rule="evenodd"/>
</svg>
