<svg xmlns="http://www.w3.org/2000/svg" width="20" height="20" fill="currentColor" viewBox="0 0 20 20">
  <g clip-path="url(#a)">
    <path fill-rule="evenodd" d="M17.5 1.875a.625.625 0 1 0 0 1.25.625.625 0 0 0 0-1.25Zm-1.875.625a1.875 1.875 0 1 1 1.067 1.692l-1.61 1.61 2.827 2.827a1.806 1.806 0 0 1 0 2.554l-2.92 2.921 1.703 1.704a1.875 1.875 0 1 1-.884.884l-1.704-1.704-2.921 2.921a1.806 1.806 0 0 1-2.554 0l-2.827-2.827-1.61 1.61a1.875 1.875 0 1 1-.884-.884l1.61-1.61-3.016-3.015a1.806 1.806 0 0 1 0-2.554l2.921-2.922-1.515-1.515a1.875 1.875 0 1 1 .884-.884l1.515 1.515 2.922-2.92a1.806 1.806 0 0 1 2.554 0l3.015 3.015 1.61-1.61a1.868 1.868 0 0 1-.183-.808ZM2.754 10.332a.602.602 0 0 1 0-.852L9.48 2.754a.602.602 0 0 1 .851 0l6.727 6.726a.602.602 0 0 1 0 .851l-6.726 6.727a.602.602 0 0 1-.852 0l-6.726-6.726ZM13.11 6.856a14.544 14.544 0 0 1-2.696-1.124.859.859 0 0 0-.834.001c-1.18.646-2.273 1-2.692 1.126a.88.88 0 0 0-.639.84v3.209c0 .539.24 1.008.53 1.38.292.376.671.703 1.042.972.743.54 1.546.917 1.827 1.041l.01.005a.873.873 0 0 0 .682 0l.011-.005a10.769 10.769 0 0 0 1.824-1.04c.371-.27.751-.597 1.043-.972.29-.373.531-.842.531-1.381V7.697a.882.882 0 0 0-.632-.839l-.007-.002Zm-.611 1.12A16.039 16.039 0 0 1 10 6.928a15.842 15.842 0 0 1-2.5 1.05v2.93c0 .16.072.363.267.613.193.248.47.496.79.728.534.388 1.12.686 1.443.838.323-.152.908-.45 1.442-.838.32-.232.598-.48.791-.728.195-.25.267-.454.267-.614v-2.93Zm4.375 9.524a.625.625 0 1 1 1.25 0 .625.625 0 0 1-1.25 0ZM2.5 16.875a.625.625 0 1 0 0 1.25.625.625 0 0 0 0-1.25ZM1.875 2.5a.625.625 0 1 1 1.25 0 .625.625 0 0 1-1.25 0Z" clip-rule="evenodd"/>
  </g>
  <defs>
    <clipPath id="a">
      <path d="M0 0h20v20H0z"/>
    </clipPath>
  </defs>
</svg>
