<svg xmlns="http://www.w3.org/2000/svg" width="20" height="20" fill="currentColor" viewBox="0 0 20 20">
  <path d="M9.375 3.75a.625.625 0 0 1 0 1.25H3.75a.625.625 0 0 0-.625.625v11.25c0 .345.28.625.625.625H15c.345 0 .625-.28.625-.625v-6.198a.625.625 0 0 1 1.25 0v6.198c0 1.036-.84 1.875-1.875 1.875H3.75a1.875 1.875 0 0 1-1.875-1.875V5.625c0-1.035.84-1.875 1.875-1.875h5.625Z"/>
  <path d="M13.438 10c.345 0 .624.28.624.625v.313h.313a.625.625 0 1 1 0 1.25h-.313v.312a.625.625 0 0 1-1.25 0v-.312H12.5a.625.625 0 0 1 0-1.25h.313v-.313c0-.345.28-.625.624-.625ZM9.375 8.75c.345 0 .625.28.625.625V10a.625.625 0 0 1-1.25 0v-.625c0-.345.28-.625.625-.625ZM8.125 7.5a.625.625 0 0 1 0 1.25H7.5a.625.625 0 1 1 0-1.25h.625Zm3.125 0a.625.625 0 1 1 0 1.25h-.625a.625.625 0 1 1 0-1.25h.625Z"/>
  <path fill-rule="evenodd" d="M15.16 1.875c.214.003.41.115.523.296.381.615.698 1.033 1.056 1.39.36.357.783.673 1.399 1.063a.625.625 0 0 1 .016 1.045c-1.206.817-1.717 1.352-2.485 2.485a.625.625 0 0 1-1.036-.001c-.755-1.122-1.299-1.637-2.496-2.493a.626.626 0 0 1 .012-1.026c1.241-.84 1.75-1.37 2.481-2.478a.626.626 0 0 1 .53-.28Zm-.021 1.727a7.88 7.88 0 0 1-1.58 1.561c.637.498 1.11.953 1.591 1.57a8.038 8.038 0 0 1 1.562-1.565 7.354 7.354 0 0 1-.853-.72 7.033 7.033 0 0 1-.72-.846Z" clip-rule="evenodd"/>
  <path d="M9.375 5.625c.345 0 .625.28.625.625v.625a.625.625 0 1 1-1.25 0V6.25c0-.345.28-.625.625-.625Z"/>
</svg>
