<svg xmlns="http://www.w3.org/2000/svg" width="20" height="20" fill="currentColor" viewBox="0 0 20 20">
  <g clip-path="url(#a)">
    <path d="M9.375 3.75a.625.625 0 0 1 0 1.25H3.75a.625.625 0 0 0-.625.625v11.25c0 .345.28.625.625.625H15c.345 0 .625-.28.625-.625v-6.198a.625.625 0 0 1 1.25 0v6.198c0 1.035-.84 1.875-1.875 1.875H3.75a1.875 1.875 0 0 1-1.875-1.875V5.625c0-1.036.84-1.875 1.875-1.875h5.625ZM13.438 10c.345 0 .624.28.624.625v.312h.313a.625.625 0 0 1 0 1.25h-.313v.313a.625.625 0 0 1-1.25 0v-.313H12.5a.625.625 0 0 1 0-1.25h.313v-.312c0-.345.28-.625.624-.625ZM9.375 8.75c.345 0 .625.28.625.625V10a.625.625 0 0 1-1.25 0v-.625c0-.345.28-.625.625-.625ZM8.125 7.5a.625.625 0 0 1 0 1.25H7.5a.625.625 0 0 1 0-1.25h.625Zm3.125 0a.625.625 0 0 1 0 1.25h-.625a.625.625 0 1 1 0-1.25h.625Zm7.001-5.625a.627.627 0 0 1 .523.296c.381.614.697 1.033 1.056 1.39.36.357.783.673 1.399 1.063a.626.626 0 0 1 .016 1.045c-1.206.817-1.717 1.351-2.485 2.485a.625.625 0 0 1-1.035-.002c-.756-1.122-1.3-1.637-2.498-2.492a.626.626 0 0 1 .013-1.025c1.241-.842 1.75-1.37 2.48-2.479a.626.626 0 0 1 .531-.281Zm-8.876 3.75c.345 0 .625.28.625.625v.625a.625.625 0 0 1-1.25 0V6.25c0-.345.28-.625.625-.625ZM18.23 3.6a7.847 7.847 0 0 1-1.58 1.562c.638.498 1.11.953 1.591 1.57a8.036 8.036 0 0 1 1.562-1.565 7.358 7.358 0 0 1-.854-.721 7.049 7.049 0 0 1-.72-.846Z"/>
  </g>
  <defs>
    <clipPath id="a">
      <path d="M0 0h20v20H0z"/>
    </clipPath>
  </defs>
</svg>
