<svg xmlns="http://www.w3.org/2000/svg" width="20" height="20" fill="currentColor" viewBox="0 0 20 20">
  <path d="M11.25 1.25a.62.62 0 0 1 .435.178h.002l4.376 4.276.087.21a.598.598 0 0 1 .082.194l.018.042V7.5a.625.625 0 1 1-1.25 0v-.625h-2.876a1.5 1.5 0 0 1-1.499-1.499V2.5H4.251c-.636 0-1.126.5-1.126 1.087v12.827c0 .587.49 1.086 1.126 1.086H7.5a.625.625 0 1 1 0 1.25H4.251c-1.299 0-2.376-1.032-2.376-2.336V3.587c0-1.304 1.077-2.337 2.376-2.337h6.999ZM17.003 10c.13.001.31.018.485.1.228.106.358.29.428.44.07.149.101.305.117.438.032.266.015.569-.017.842-.05.427-.149.876-.236 1.195.22.48.345 1.009.345 1.563 0 2.383-2.184 4.172-4.688 4.172-2.503 0-4.687-1.79-4.687-4.172 0-.557.122-1.092.347-1.58l-.002-.01a8.706 8.706 0 0 1-.228-1.168 3.71 3.71 0 0 1-.017-.843c.016-.132.047-.288.117-.437.07-.15.2-.337.43-.443h.001c.174-.08.353-.096.482-.097.14-.001.285.015.42.038.273.046.573.128.846.214.276.087.544.184.76.266l.235.092a5.201 5.201 0 0 1 2.596.003l.24-.095c.216-.082.483-.18.758-.266a6.65 6.65 0 0 1 .847-.214 2.36 2.36 0 0 1 .42-.038Zm-.216 1.271c-.19.032-.426.095-.676.173-.496.157-.975.353-1.1.405h-.005a.647.647 0 0 1-.049.018l-.01.004-.04.01-.021.005a.62.62 0 0 1-.233 0l-.005-.002-.026-.007-.031-.007-.138-.039a3.959 3.959 0 0 0-1.015-.135c-.396 0-.769.056-1.115.162a.63.63 0 0 1-.5-.029 14.215 14.215 0 0 0-1.052-.385 5.283 5.283 0 0 0-.688-.175c0 .11.007.247.025.405.056.468.181.977.253 1.195a.622.622 0 0 1-.08.549 2.52 2.52 0 0 0-.281 1.16c0 1.537 1.459 2.922 3.438 2.922 1.978 0 3.437-1.385 3.437-2.922a2.51 2.51 0 0 0-.244-1.072l-.072-.142-.029-.058a.624.624 0 0 1 .01-.502 7.31 7.31 0 0 0 .234-1.13 3.28 3.28 0 0 0 .025-.404c-.004 0-.008 0-.012.002Zm-4.912-5.895a.25.25 0 0 0 .249.249h2.068l-2.317-2.266v2.017Z"/>
</svg>
