<svg xmlns="http://www.w3.org/2000/svg" width="20" height="20" fill="none" viewBox="0 0 20 20">
  <path fill="#3D3C3C" fill-rule="evenodd" d="M10 2.494c-4.133 0-7.506 3.373-7.506 7.506S5.867 17.506 10 17.506s7.506-3.373 7.506-7.506S14.133 2.494 10 2.494ZM1.25 10c0-4.82 3.93-8.75 8.75-8.75s8.75 3.93 8.75 8.75-3.93 8.75-8.75 8.75S1.25 14.82 1.25 10Z" clip-rule="evenodd"/>
  <path fill="#3D3C3C" fill-rule="evenodd" d="M8.016 4.506C7.406 5.88 7.011 7.822 7.011 10s.394 4.12 1.005 5.494c.306.688.654 1.207 1.009 1.545.351.335.68.467.975.467.295 0 .624-.132.975-.467.355-.338.703-.857 1.009-1.545.61-1.374 1.005-3.316 1.005-5.494s-.394-4.12-1.005-5.494c-.306-.688-.654-1.207-1.009-1.545-.351-.335-.68-.467-.975-.467-.295 0-.624.132-.975.467-.355.338-.703.857-1.009 1.545Zm.15-2.445C8.68 1.573 9.3 1.25 10 1.25c.7 0 1.321.323 1.833.81.51.485.94 1.157 1.288 1.94.697 1.568 1.112 3.69 1.112 6s-.415 4.432-1.112 6c-.348.782-.779 1.455-1.288 1.94-.512.487-1.132.81-1.833.81-.7 0-1.321-.323-1.833-.81-.51-.485-.94-1.158-1.288-1.94-.696-1.568-1.112-3.69-1.112-6s.416-4.432 1.112-6c.348-.783.779-1.455 1.288-1.94Z" clip-rule="evenodd"/>
  <path fill="#3D3C3C" fill-rule="evenodd" d="M2.156 10c0-.344.278-.622.622-.622h15.327a.622.622 0 1 1 0 1.244H2.778A.622.622 0 0 1 2.156 10Z" clip-rule="evenodd"/>
</svg>
