<svg xmlns="http://www.w3.org/2000/svg" width="20" height="20" fill="currentColor" viewBox="0 0 20 20">
  <path d="M10.336 1.274a6.557 6.557 0 0 1 6.21 6.539c0 3.397-2.605 6.2-5.921 6.515V15c0 .036-.005.07-.01.104.54.188.967.615 1.155 1.156a.622.622 0 0 1 .105-.01h3.75l.065.003a.625.625 0 0 1 0 1.244l-.065.003h-3.75a.632.632 0 0 1-.105-.01 1.873 1.873 0 0 1-3.54 0 .631.631 0 0 1-.105.01h-3.75a.625.625 0 1 1 0-1.25h3.75a.62.62 0 0 1 .104.01 1.88 1.88 0 0 1 1.156-1.156.626.626 0 0 1-.01-.104v-.672c-3.316-.316-5.922-3.118-5.922-6.515A6.557 6.557 0 0 1 10 1.266l.336.008ZM10 16.25a.625.625 0 1 0 0 1.25.625.625 0 0 0 0-1.25ZM8.144 8.734c.082 1.198.319 2.252.65 3.04.207.492.439.852.665 1.08.184.185.341.257.466.278.025-.003.05-.007.075-.007.025 0 .05.004.074.007.125-.02.282-.093.467-.278.226-.228.457-.588.665-1.08.331-.787.568-1.842.65-3.04H8.144Zm-3.39 0A5.35 5.35 0 0 0 7.882 12.7a6.357 6.357 0 0 1-.211-.452c-.4-.952-.664-2.172-.748-3.513h-2.17Zm8.323 0c-.084 1.34-.347 2.561-.748 3.513a6.359 6.359 0 0 1-.212.452 5.35 5.35 0 0 0 3.13-3.965h-2.17Zm-5.195-5.81A5.343 5.343 0 0 0 4.68 7.517h2.216c.032-1.585.312-3.04.774-4.138a6.35 6.35 0 0 1 .21-.453ZM10 2.485c-.135 0-.317.063-.541.287-.226.228-.458.588-.665 1.08-.388.922-.647 2.209-.679 3.665h3.77c-.032-1.456-.291-2.743-.679-3.664-.207-.493-.439-.853-.665-1.08-.224-.225-.406-.288-.541-.288Zm2.117.44c.075.146.146.297.212.454.462 1.098.742 2.553.773 4.138h2.217a5.342 5.342 0 0 0-3.202-4.591Z"/>
</svg>
