<svg xmlns="http://www.w3.org/2000/svg" width="20" height="20" fill="currentColor" viewBox="0 0 20 20">
  <path fill-rule="evenodd" d="M9.97 2.5C5.84 2.5 2.5 5.799 2.5 9.83c0 .675.054 1.312.189 1.907a.625.625 0 0 1-1.22.276A9.916 9.916 0 0 1 1.25 9.83c0-4.742 3.921-8.58 8.72-8.58 1.866 0 4.135.706 5.653 1.728a1.878 1.878 0 0 1 2.578.07 1.877 1.877 0 0 1 0 2.653 1.874 1.874 0 0 1-3.178-1.62C13.73 3.175 11.644 2.5 9.97 2.5Zm7.347 1.433a.627.627 0 0 0-.884 0 .627.627 0 0 0 0 .884.627.627 0 0 0 .884 0 .627.627 0 0 0 0-.884Zm-13.75 11.25a.627.627 0 0 0-.884 0 .627.627 0 0 0 0 .884.627.627 0 0 0 .884 0 .627.627 0 0 0 0-.884ZM1.8 14.299a1.877 1.877 0 0 1 3.116 1.887c1.265.902 3.153 1.314 4.978 1.314 4.223 0 7.607-3.267 7.607-7.219 0-.727-.043-1.398-.183-2.019a.625.625 0 0 1 1.22-.274c.169.75.213 1.524.213 2.293 0 4.699-4.001 8.469-8.857 8.469-1.964 0-4.164-.437-5.728-1.564a1.878 1.878 0 0 1-2.366-.235 1.877 1.877 0 0 1 0-2.652Zm3.224-4.924a5.034 5.034 0 0 1 2.79-3.887 5.44 5.44 0 0 0-.137.288c-.43.967-.706 2.224-.77 3.599H5.022Zm0 1.25a5.034 5.034 0 0 0 2.79 3.887 6.173 6.173 0 0 1-.137-.288c-.43-.967-.706-2.224-.77-3.599H5.022Zm3.102 0c.064 1.23.312 2.312.664 3.104.206.463.435.8.658 1.012.22.21.406.275.553.275.146 0 .332-.065.553-.275.223-.212.452-.549.658-1.012.352-.792.6-1.874.664-3.104h-3.75Zm4.97 0c-.065 1.375-.34 2.632-.77 3.6a8.43 8.43 0 0 1-.137.287 5.034 5.034 0 0 0 2.789-3.887h-1.882Zm1.882-1.25h-1.882c-.065-1.375-.34-2.632-.77-3.6a6.145 6.145 0 0 0-.137-.287 5.034 5.034 0 0 1 2.789 3.887Zm1.256.477A6.244 6.244 0 0 0 10 3.766 6.244 6.244 0 0 0 3.766 10 6.244 6.244 0 0 0 10 16.234a6.244 6.244 0 0 0 6.233-6.086.637.637 0 0 0 0-.296Zm-4.358-.477h-3.75c.064-1.23.312-2.312.664-3.104.206-.463.435-.8.658-1.012.22-.21.406-.275.553-.275.146 0 .332.065.553.275.223.212.452.55.658 1.012.352.792.6 1.874.664 3.104Z" clip-rule="evenodd"/>
</svg>
