<svg xmlns="http://www.w3.org/2000/svg" width="20" height="20" fill="currentColor" viewBox="0 0 20 20">
  <path fill-rule="evenodd" d="M17.317 3.933a.627.627 0 0 0-.884 0 .627.627 0 0 0 0 .884.627.627 0 0 0 .884 0 .627.627 0 0 0 0-.884Zm-1.768-.884a1.877 1.877 0 0 1 2.652 0 1.877 1.877 0 0 1 0 2.652 1.877 1.877 0 0 1-2.652 0 1.877 1.877 0 0 1 0-2.652ZM3.567 15.183a.627.627 0 0 0-.884 0 .627.627 0 0 0 0 .884.627.627 0 0 0 .884 0 .627.627 0 0 0 0-.884ZM1.8 14.299a1.877 1.877 0 0 1 2.652 0 1.877 1.877 0 0 1 0 2.652 1.877 1.877 0 0 1-2.652 0 1.877 1.877 0 0 1 0-2.652Z" clip-rule="evenodd"/>
  <path fill-rule="evenodd" d="M17.79 7.515a.625.625 0 0 1 .747.473c.169.75.213 1.524.213 2.293 0 4.699-4.001 8.469-8.857 8.469-2.039 0-4.33-.47-5.902-1.694a.625.625 0 1 1 .768-.987c1.262.984 3.233 1.431 5.134 1.431 4.223 0 7.607-3.267 7.607-7.219 0-.727-.043-1.398-.183-2.019a.625.625 0 0 1 .473-.747ZM9.97 2.5C5.84 2.5 2.5 5.799 2.5 9.83c0 .675.054 1.312.189 1.907a.625.625 0 0 1-1.22.276A9.916 9.916 0 0 1 1.25 9.83c0-4.742 3.921-8.58 8.72-8.58 2.032 0 4.54.837 6.04 2.007a.625.625 0 0 1-.77.986C13.975 3.254 11.742 2.5 9.97 2.5Z" clip-rule="evenodd"/>
  <path fill-rule="evenodd" d="M10 4.984A5.025 5.025 0 0 0 4.984 10 5.025 5.025 0 0 0 10 15.016 5.025 5.025 0 0 0 15.016 10 5.025 5.025 0 0 0 10 4.984ZM3.766 10A6.244 6.244 0 0 1 10 3.766 6.244 6.244 0 0 1 16.234 10 6.244 6.244 0 0 1 10 16.234 6.244 6.244 0 0 1 3.766 10Z" clip-rule="evenodd"/>
  <path fill-rule="evenodd" d="M8.79 6.27c-.411.924-.68 2.242-.68 3.73s.269 2.806.68 3.73c.205.462.434.799.657 1.011.22.21.406.275.553.275.146 0 .332-.065.553-.275.223-.212.452-.55.658-1.012.41-.923.68-2.241.68-3.729s-.27-2.806-.68-3.73c-.206-.462-.435-.799-.658-1.011-.22-.21-.407-.275-.553-.275-.147 0-.332.065-.553.275-.223.212-.452.549-.658 1.012Zm-.183-1.894c.378-.36.85-.61 1.393-.61s1.015.25 1.393.61c.375.357.684.844.931 1.4.495 1.112.785 2.607.785 4.224s-.29 3.112-.785 4.224c-.247.556-.556 1.043-.931 1.4-.378.36-.85.61-1.393.61s-1.015-.25-1.393-.61c-.375-.357-.684-.844-.931-1.4C7.18 13.112 6.89 11.617 6.89 10s.29-3.112.785-4.224c.247-.556.556-1.043.931-1.4Z" clip-rule="evenodd"/>
  <path fill-rule="evenodd" d="M4.39 10A.61.61 0 0 1 5 9.39h10.609a.61.61 0 0 1 0 1.22H5a.61.61 0 0 1-.61-.61Z" clip-rule="evenodd"/>
</svg>
