<svg xmlns="http://www.w3.org/2000/svg" width="21" height="20" fill="currentColor" viewBox="0 0 21 20">
  <path d="M8.056 10.625c1.035 0 1.875.84 1.875 1.875v3.75c0 1.035-.84 1.875-1.875 1.875h-3.75A1.875 1.875 0 0 1 2.43 16.25V12.5c0-1.036.839-1.875 1.875-1.875h3.75Zm8.75 0c1.035 0 1.874.84 1.874 1.875v3.75a1.875 1.875 0 0 1-1.875 1.875h-3.75a1.875 1.875 0 0 1-1.874-1.875V12.5c0-1.036.839-1.875 1.875-1.875h3.75Zm-12.5 1.25a.625.625 0 0 0-.625.625v3.75c0 .345.28.625.625.625h3.75c.345 0 .625-.28.625-.625V12.5a.625.625 0 0 0-.625-.625h-3.75Zm8.75 0a.625.625 0 0 0-.625.625v3.75c0 .345.28.625.625.625h3.75c.345 0 .624-.28.624-.625V12.5a.625.625 0 0 0-.625-.625h-3.75Zm-5-10c1.035 0 1.875.84 1.875 1.875V7.5c0 1.036-.84 1.875-1.875 1.875h-3.75A1.875 1.875 0 0 1 2.43 7.5V3.75c0-1.036.839-1.875 1.875-1.875h3.75Zm8.75 0c1.035 0 1.874.84 1.874 1.875V7.5a1.874 1.874 0 0 1-1.875 1.875h-3.75A1.875 1.875 0 0 1 11.181 7.5V3.75c0-1.036.839-1.875 1.875-1.875h3.75Zm-12.5 1.25a.625.625 0 0 0-.625.625V7.5c0 .345.28.625.625.625h3.75c.345 0 .625-.28.625-.625V3.75a.625.625 0 0 0-.625-.625h-3.75Zm8.75 0a.625.625 0 0 0-.625.625V7.5c0 .345.28.625.625.625h3.75c.345 0 .624-.28.624-.625V3.75a.625.625 0 0 0-.625-.625h-3.75Z"/>
</svg>
