<svg xmlns="http://www.w3.org/2000/svg" width="20" height="20" fill="currentColor" viewBox="0 0 20 20">
  <path fill-rule="evenodd" d="M5 3.75a1.25 1.25 0 1 0 0 2.5 1.25 1.25 0 0 0 0-2.5ZM2.5 5a2.5 2.5 0 1 1 5 0 2.5 2.5 0 0 1-5 0Zm11.25 0a1.25 1.25 0 1 1 2.5 0 1.25 1.25 0 0 1-2.5 0ZM15 2.5a2.5 2.5 0 1 0 0 5 2.5 2.5 0 0 0 0-5ZM8.75 10a1.25 1.25 0 1 1 2.5 0 1.25 1.25 0 0 1-2.5 0ZM10 7.5a2.5 2.5 0 1 0 0 5 2.5 2.5 0 0 0 0-5Zm-3.116 9.375-.009-1.098c-.002-.383.346-.777.889-.777h4.472c.543 0 .891.393.889.777l-.01 1.098h-6.23Zm7.491-1.088-.013 1.584a.626.626 0 0 1-.612.754H6.265a.625.625 0 0 1-.625-.62l-.015-1.72c-.007-1.17.998-2.035 2.139-2.035h4.472c1.14 0 2.146.866 2.139 2.035v.002Zm-1.25-6.412c0-.345.28-.625.625-.625h2.88c1.138 0 2.127.873 2.12 2.035v.002l-.013 1.584a.625.625 0 0 1-.612.754H13.75a.625.625 0 1 1 0-1.25h3.74l.01-1.098c.002-.391-.346-.777-.87-.777h-2.88a.625.625 0 0 1-.625-.625ZM6.25 8.75a.625.625 0 0 1 0 1.25H3.37c-.524 0-.872.386-.87.777l.01 1.098h3.74a.625.625 0 1 1 0 1.25H1.875a.625.625 0 0 1-.612-.754l-.013-1.585c-.007-1.163.982-2.036 2.12-2.036h2.88Z" clip-rule="evenodd"/>
</svg>
