<svg xmlns="http://www.w3.org/2000/svg" width="20" height="20" fill="currentColor" viewBox="0 0 20 20">
  <path fill-rule="evenodd" d="M7.813 3.438a2.187 2.187 0 1 1 4.373-.002 2.187 2.187 0 0 1-4.373.002ZM10 2.5a.937.937 0 1 0-.001 1.874A.937.937 0 0 0 10 2.5Zm-7.187 9.688a2.187 2.187 0 1 1 4.373-.002 2.187 2.187 0 0 1-4.373.002ZM5 11.25a.937.937 0 1 0-.001 1.874A.937.937 0 0 0 5 11.25Zm7.813.938a2.187 2.187 0 1 1 4.374-.001 2.187 2.187 0 0 1-4.375 0ZM15 11.25a.937.937 0 1 0-.001 1.874A.937.937 0 0 0 15 11.25ZM7.68 7.687c-.148.112-.18.216-.18.28v.783h5v-.84a.314.314 0 0 0-.134-.259.803.803 0 0 0-.495-.151H8.25a.977.977 0 0 0-.57.187Zm-.754-.997c.37-.28.847-.44 1.324-.44h3.621c.877 0 1.888.57 1.879 1.668v1.457c0 .345-.28.625-.625.625h-6.25a.625.625 0 0 1-.625-.625v-1.4c-.004-.563.307-1.006.676-1.285ZM2.68 16.468c-.148.112-.18.216-.18.28v.783h5v-.84a.316.316 0 0 0-.134-.259.803.803 0 0 0-.495-.15H3.25a.977.977 0 0 0-.57.186Zm-.754-.997a2.23 2.23 0 0 1 1.324-.44h3.62c.877 0 1.888.57 1.879 1.669v1.456c0 .345-.28.625-.625.625h-6.25a.625.625 0 0 1-.625-.625v-1.4c-.004-.563.307-1.006.676-1.285Zm10.754.997c-.147.112-.18.216-.18.28v.783h5v-.84a.316.316 0 0 0-.134-.259.804.804 0 0 0-.495-.15H13.25a.976.976 0 0 0-.57.186Zm-.753-.997c.368-.279.846-.44 1.323-.44h3.621c.877 0 1.888.57 1.879 1.669v1.456c0 .345-.28.625-.625.625h-6.25a.625.625 0 0 1-.625-.625v-1.4c-.004-.563.307-1.006.677-1.285ZM10 10.625c.345 0 .625.28.625.625v1.25a.625.625 0 1 1-1.25 0v-1.25c0-.345.28-.625.625-.625Z" clip-rule="evenodd"/>
  <path fill-rule="evenodd" d="M9.653 11.98c.21-.14.484-.14.694 0l1.875 1.25a.625.625 0 0 1-.694 1.04L10 13.251 8.472 14.27a.625.625 0 1 1-.694-1.04l1.875-1.25Z" clip-rule="evenodd"/>
</svg>
