<svg xmlns="http://www.w3.org/2000/svg" width="20" height="20" fill="currentColor" viewBox="0 0 20 20">
  <path fill-rule="evenodd" d="M10 1.25a2.187 2.187 0 1 0-.001 4.374A2.187 2.187 0 0 0 10 1.25Zm-.938 2.188a.937.937 0 1 1 1.874-.002.937.937 0 0 1-1.873.002ZM5 10a2.187 2.187 0 1 0-.001 4.374A2.187 2.187 0 0 0 5 10Zm-.938 2.188a.937.937 0 1 1 1.874-.002.937.937 0 0 1-1.873.002Zm8.75 0a2.187 2.187 0 1 1 4.375-.001 2.187 2.187 0 0 1-4.375 0ZM15 11.25a.937.937 0 1 0-.001 1.874A.937.937 0 0 0 15 11.25ZM7.5 7.966c0-.063.032-.167.18-.28a.977.977 0 0 1 .57-.186h3.621c.216 0 .39.067.495.151.097.077.135.162.134.259v.84h-5v-.784Zm.75-1.716c-.477 0-.955.16-1.324.44-.369.279-.68.722-.676 1.285v1.4c0 .345.28.625.625.625h6.25c.345 0 .625-.28.625-.625V7.918c.009-1.099-1.002-1.668-1.879-1.668H8.25ZM2.68 16.468c-.148.112-.18.216-.18.28v.783h5v-.84a.316.316 0 0 0-.134-.259.803.803 0 0 0-.495-.15H3.25a.977.977 0 0 0-.57.186Zm-.754-.997c.37-.28.847-.44 1.324-.44h3.62c.877 0 1.888.57 1.879 1.669v1.456c0 .345-.28.625-.625.625h-6.25a.625.625 0 0 1-.625-.625v-1.4c-.004-.563.307-1.006.676-1.285ZM12.5 16.747c0-.063.033-.167.18-.28a.976.976 0 0 1 .57-.186h3.621c.216 0 .39.068.495.151.097.078.135.163.134.259v.84h-5v-.784Zm.75-1.716c-.477 0-.955.16-1.323.44-.37.28-.681.723-.677 1.285v1.4c0 .345.28.625.625.625h6.25c.345 0 .625-.28.625-.625V16.7c.009-1.1-1.002-1.669-1.879-1.669H13.25ZM10 10.625c.345 0 .625.28.625.625v.915l1.597 1.065a.625.625 0 1 1-.694 1.04L10 13.251 8.472 14.27a.625.625 0 1 1-.694-1.04l1.597-1.065v-.915c0-.345.28-.625.625-.625Z" clip-rule="evenodd"/>
</svg>
