<svg xmlns="http://www.w3.org/2000/svg" width="20" height="20" fill="currentColor" viewBox="0 0 20 20">
  <path fill-rule="evenodd" d="M16.229 2.508c-3.047.288-4.8 1.773-5.777 3.495-.75 1.322-1.055 2.806-1.096 4.037a18.155 18.155 0 0 1 .019.567c3.03-.143 4.766-1.398 5.74-2.914 1.048-1.631 1.272-3.658 1.114-5.185Zm-8.104 9.367v3.75l.001.043c-1.267.173-2.533.864-4.104 1.942a.625.625 0 0 0 .706 1.03c1.818-1.246 2.954-1.765 4.022-1.765s2.204.519 4.021 1.765a.625.625 0 0 0 .707-1.03c-1.57-1.078-2.837-1.769-4.104-1.942a.637.637 0 0 0 .001-.043v-3.762c3.411-.148 5.543-1.581 6.764-3.48 1.263-1.967 1.493-4.344 1.302-6.071a1.18 1.18 0 0 0-1.275-1.057c-3.481.314-5.597 2.043-6.774 4.118a9.23 9.23 0 0 0-.67 1.474 6.04 6.04 0 0 0-.238-.509c-.385-.73-.941-1.4-1.74-1.877-.801-.477-1.804-.736-3.043-.71-.69.016-1.178.593-1.188 1.221l-.004.25c-.023 1.318-.05 2.888.595 4.158.74 1.453 2.256 2.371 4.995 2.494h.026ZM6.103 5.536c-.56-.333-1.312-.55-2.34-.533l-.002.12c-.022 1.43-.042 2.707.458 3.689.46.906 1.454 1.694 3.905 1.81-.021-1.105-.142-2.552-.747-3.7-.298-.567-.707-1.048-1.274-1.386Z" clip-rule="evenodd"/>
</svg>
