<svg xmlns="http://www.w3.org/2000/svg" width="20" height="20" fill="currentColor" viewBox="0 0 20 20">
  <path fill-rule="evenodd" d="M9.375 3.125a.625.625 0 1 1 1.25 0 .625.625 0 0 1-1.25 0ZM10 1.25a1.875 1.875 0 1 0 1.314 3.212l4.936 2.194v3.969a.625.625 0 1 0 1.25 0V6.25a.625.625 0 0 0-.371-.571l-5.266-2.34A1.875 1.875 0 0 0 10 1.25ZM6.786 4.053a.625.625 0 0 1-.214.858L3.75 6.604v6.003a1.876 1.876 0 1 1-1.25 0V6.25c0-.22.115-.423.303-.536L5.928 3.84a.625.625 0 0 1 .858.214Zm2.742 1.749a.938.938 0 0 1 .944 0l3.438 2.005a.938.938 0 0 1 .465.81v4.016a.937.937 0 0 1-.465.81l-3.438 2.005a.937.937 0 0 1-.944 0L6.09 13.443a.937.937 0 0 1-.465-.81V8.617c0-.333.177-.642.465-.81l3.438-2.005ZM10 6.974 6.875 8.796v3.658L10 14.276l3.125-1.822V8.796L10 6.974Zm-7.5 7.401a.625.625 0 1 1 1.25 0 .625.625 0 0 1-1.25 0Zm14.375-.625a.625.625 0 1 0 0 1.25.625.625 0 0 0 0-1.25ZM15 14.375a1.875 1.875 0 1 1 .811 1.544L10.4 18.682a.625.625 0 0 1-.507.027l-3.24-1.235a.625.625 0 0 1 .445-1.168l2.98 1.136 4.994-2.55a1.88 1.88 0 0 1-.072-.517Z" clip-rule="evenodd"/>
</svg>
