<svg xmlns="http://www.w3.org/2000/svg" width="20" height="20" fill="currentColor" viewBox="0 0 20 20">
  <path fill-rule="evenodd" d="M2.5 4.375c0-.345.28-.625.625-.625h13.75a.625.625 0 1 1 0 1.25H3.125a.625.625 0 0 1-.625-.625Zm0 3.75c0-.345.28-.625.625-.625h13.75a.625.625 0 1 1 0 1.25H3.125a.625.625 0 0 1-.625-.625Zm0 3.75c0-.345.28-.625.625-.625h13.75a.625.625 0 1 1 0 1.25H3.125a.625.625 0 0 1-.625-.625Zm0 3.75c0-.345.28-.625.625-.625h13.75a.625.625 0 1 1 0 1.25H3.125a.625.625 0 0 1-.625-.625Z" clip-rule="evenodd"/>
</svg>
