<svg xmlns="http://www.w3.org/2000/svg" width="20" height="20" fill="currentColor" viewBox="0 0 20 20">
  <path fill-rule="evenodd" d="M5.631 3.15c.996-.17 1.912.223 2.64.742a6.223 6.223 0 0 1 1.23 1.168.625.625 0 0 0 .996 0 6.1 6.1 0 0 1 1.228-1.136c.728-.507 1.646-.893 2.643-.724.775.132 1.412.565 1.911 1.098.501.534.833 1.137.993 1.529.538 1.329.253 2.916-.921 4.807a.634.634 0 0 0-.102-.008h-5.184L9.65 6.665a.625.625 0 0 0-1.163-.036l-1.713 3.996H3.75a.626.626 0 0 0-.159.02c-1.136-1.86-1.4-3.426-.864-4.752.163-.4.499-1.035 1.003-1.598.504-.563 1.138-1.015 1.9-1.145h.001Zm-1.194 8.725c1.282 1.684 3.15 3.509 5.516 5.458 2.356-1.941 4.234-3.769 5.534-5.458h-4.862a.625.625 0 0 1-.588-.415L9.01 8.585l-1.248 2.911a.625.625 0 0 1-.574.379h-2.75Zm4.56-9c.414.295.755.608 1.008.868a7.537 7.537 0 0 1 1.006-.846c.864-.601 2.116-1.176 3.568-.93 1.121.19 1.99.81 2.613 1.475a6.503 6.503 0 0 1 1.239 1.913c.796 1.964.198 4.112-1.245 6.292-1.447 2.187-3.82 4.53-6.839 6.978a.625.625 0 0 1-.787 0c-3.016-2.445-5.367-4.772-6.792-6.944C1.345 9.512.775 7.382 1.569 5.423v-.001a7.059 7.059 0 0 1 1.23-1.96c.618-.692 1.489-1.35 2.622-1.544 1.46-.25 2.714.341 3.576.957Z" clip-rule="evenodd"/>
</svg>
