<svg xmlns="http://www.w3.org/2000/svg" width="20" height="20" fill="currentColor" viewBox="0 0 20 20">
  <path fill-rule="evenodd" d="M9.082 6.25a.625.625 0 0 1 .57.415l1.413 3.96h5.185a.625.625 0 1 1 0 1.25h-5.625a.625.625 0 0 1-.589-.415L9.01 8.585l-1.248 2.911a.625.625 0 0 1-.574.379H3.75a.625.625 0 1 1 0-1.25h3.025l1.713-3.996a.625.625 0 0 1 .594-.379Z" clip-rule="evenodd"/>
  <path fill-rule="evenodd" d="M8.27 3.892c-.727-.52-1.643-.913-2.639-.742-.763.13-1.397.582-1.901 1.145a5.812 5.812 0 0 0-1.003 1.598c-.57 1.408-.236 3.087 1.086 5.102 1.26 1.922 3.356 4.044 6.14 6.338 2.79-2.298 4.908-4.437 6.191-6.376 1.347-2.035 1.697-3.727 1.129-5.131a5.256 5.256 0 0 0-.993-1.53c-.499-.532-1.136-.965-1.91-1.097-.998-.169-1.916.217-2.644.724a6.1 6.1 0 0 0-1.228 1.136.625.625 0 0 1-.996 0A6.223 6.223 0 0 0 8.27 3.892Zm1.735-.15a7.594 7.594 0 0 0-1.008-.867c-.862-.616-2.117-1.207-3.576-.957-1.133.193-2.004.852-2.623 1.544a7.059 7.059 0 0 0-1.229 1.96c-.794 1.96-.224 4.09 1.199 6.259 1.425 2.172 3.776 4.499 6.792 6.944.23.186.558.186.787 0 3.019-2.448 5.393-4.791 6.84-6.978 1.442-2.18 2.04-4.328 1.244-6.291v-.001a6.503 6.503 0 0 0-1.24-1.913c-.623-.665-1.49-1.284-2.612-1.475-1.452-.246-2.704.329-3.568.93a7.537 7.537 0 0 0-1.006.846Z" clip-rule="evenodd"/>
</svg>
