<svg xmlns="http://www.w3.org/2000/svg" width="20" height="20" fill="currentColor" viewBox="0 0 20 20">
  <path d="M5.714 1.896c1.34-.138 2.488.417 3.292.993.411.294.75.606 1.001.865a7.516 7.516 0 0 1 1-.842c.806-.563 1.953-1.104 3.285-.967l.269.037c1.118.191 1.983.81 2.603 1.473.542.58.92 1.217 1.146 1.708l.087.202c.792 1.96.198 4.104-1.238 6.28-1.44 2.182-3.803 4.52-6.808 6.965a.626.626 0 0 1-.79 0c-3.001-2.44-5.342-4.763-6.76-6.931C1.385 9.514.818 7.388 1.608 5.433a7.052 7.052 0 0 1 1.223-1.958c.617-.69 1.484-1.348 2.613-1.542l.27-.037Zm2.565 2.01c-.724-.519-1.634-.91-2.623-.74-.758.129-1.39.58-1.891 1.141a5.805 5.805 0 0 0-.998 1.595c-.568 1.406-.235 3.082 1.08 5.092 1.254 1.918 3.34 4.034 6.11 6.322 2.773-2.293 4.882-4.425 6.159-6.36 1.34-2.03 1.689-3.72 1.123-5.121a5.247 5.247 0 0 0-.988-1.526c-.497-.531-1.13-.963-1.9-1.095-.992-.168-1.904.216-2.628.722a6.081 6.081 0 0 0-1.222 1.133.625.625 0 0 1-.997 0A6.208 6.208 0 0 0 8.28 3.906Z"/>
</svg>
