<svg xmlns="http://www.w3.org/2000/svg" width="20" height="20" fill="currentColor" viewBox="0 0 20 20">
  <path d="M11.722 16.532a.598.598 0 0 1 .836.234.655.655 0 0 1-.224.873l-1.416.854a1.768 1.768 0 0 1-1.836 0l-1.416-.854a.655.655 0 0 1-.224-.873.598.598 0 0 1 .836-.234l1.416.854a.59.59 0 0 0 .612 0l1.416-.854ZM2.5 13.416v-1.708c0-.353.274-.639.612-.639.338 0 .612.286.612.64v1.707c0 .229.116.44.306.553l1.416.855a.655.655 0 0 1 .224.873.597.597 0 0 1-.836.234l-1.416-.854a1.935 1.935 0 0 1-.918-1.66Zm13.776 0v-1.708c0-.353.274-.639.612-.639.338 0 .612.286.612.64v1.707c0 .685-.35 1.318-.918 1.66l-1.416.854a.597.597 0 0 1-.836-.233.655.655 0 0 1 .224-.873l1.416-.854a.645.645 0 0 0 .306-.554ZM2.5 8.293V6.584c0-.685.35-1.318.918-1.66l1.416-.855a.597.597 0 0 1 .836.234.655.655 0 0 1-.224.873l-1.416.855a.645.645 0 0 0-.306.553v1.708a.626.626 0 0 1-.612.639.626.626 0 0 1-.612-.64Zm13.776 0V6.584a.645.645 0 0 0-.306-.553l-1.416-.855a.655.655 0 0 1-.224-.873.597.597 0 0 1 .836-.234l1.416.854c.568.343.918.976.918 1.66v1.709a.626.626 0 0 1-.612.639.626.626 0 0 1-.612-.64ZM9.082 1.507a1.768 1.768 0 0 1 1.836 0l1.416.854a.655.655 0 0 1 .224.873.598.598 0 0 1-.836.234l-1.416-.854a.59.59 0 0 0-.612 0l-1.416.854a.598.598 0 0 1-.836-.234.655.655 0 0 1 .224-.873l1.416-.854Z"/>
</svg>
