<svg xmlns="http://www.w3.org/2000/svg" width="20" height="20" fill="currentColor" viewBox="0 0 20 20">
  <path d="M16.276 6.583a.645.645 0 0 0-.306-.552l-5.664-3.417a.59.59 0 0 0-.612 0L4.03 6.031a.645.645 0 0 0-.306.553v6.832c0 .229.116.44.306.553l5.664 3.417a.59.59 0 0 0 .612 0l5.665-3.416a.645.645 0 0 0 .305-.554V6.583Zm1.224 6.833c0 .685-.35 1.318-.918 1.66l-5.664 3.417a1.768 1.768 0 0 1-1.836 0l-5.664-3.416a1.935 1.935 0 0 1-.918-1.66V6.583c0-.685.35-1.318.918-1.66l5.664-3.417a1.768 1.768 0 0 1 1.836 0l5.664 3.416c.568.343.918.976.918 1.66v6.833Z"/>
</svg>
