<svg xmlns="http://www.w3.org/2000/svg" width="20" height="20" fill="currentColor" viewBox="0 0 20 20">
  <path fill-rule="evenodd" d="M18.75 10A8.752 8.752 0 0 0 3.823 3.802l-.073.067V1.875a.625.625 0 1 0-1.25 0v3.75c0 .345.28.625.625.625h3.75a.625.625 0 1 0 0-1.25h-2.51l.31-.284A7.476 7.476 0 0 1 10 2.5a7.502 7.502 0 0 1 7.501 7.5 7.452 7.452 0 0 1-1.467 4.45v.001A7.49 7.49 0 0 1 10 17.5 7.501 7.501 0 0 1 2.5 10a.625.625 0 1 0-1.25 0A8.752 8.752 0 0 0 10 18.75a8.741 8.741 0 0 0 7.037-3.555A8.702 8.702 0 0 0 18.75 10Zm-8.125-3.125a.625.625 0 1 0-1.25 0v3.75c0 .345.28.625.625.625h3.75a.625.625 0 1 0 0-1.25h-3.125V6.875Z" clip-rule="evenodd"/>
</svg>
