<svg xmlns="http://www.w3.org/2000/svg" width="20" height="20" fill="currentColor" viewBox="0 0 20 20">
  <g clip-path="url(#a)">
    <path fill-rule="evenodd" d="M.283 6.817a.625.625 0 0 0-.181.865l1.4 2.146a.625.625 0 0 0 .93.132L4.46 8.221a.625.625 0 1 0-.814-.948L2.16 8.548l-1.012-1.55a.625.625 0 0 0-.865-.181Z" clip-rule="evenodd"/>
    <path fill-rule="evenodd" d="M12.117 1.508C7.425.344 2.677 3.196 1.508 7.883a.625.625 0 1 0 1.213.302 7.505 7.505 0 0 1 9.094-5.463c4.017 1.001 6.462 5.07 5.464 9.093a7.506 7.506 0 0 1-9.095 5.464 7.495 7.495 0 0 1-5.438-5.373.625.625 0 1 0-1.21.318 8.745 8.745 0 0 0 6.347 6.268c4.692 1.165 9.44-1.687 10.608-6.375 1.166-4.692-1.686-9.44-6.374-10.608Z" clip-rule="evenodd"/>
    <path fill-rule="evenodd" d="M10 5.625c.345 0 .625.28.625.625V10a.625.625 0 1 1-1.25 0V6.25c0-.345.28-.625.625-.625Z" clip-rule="evenodd"/>
    <path fill-rule="evenodd" d="M14.375 10c0 .345-.28.625-.625.625H10a.625.625 0 1 1 0-1.25h3.75c.345 0 .625.28.625.625Z" clip-rule="evenodd"/>
  </g>
  <defs>
    <clipPath id="a">
      <path d="M0 0h20v20H0z"/>
    </clipPath>
  </defs>
</svg>
