<svg xmlns="http://www.w3.org/2000/svg" width="20" height="20" fill="currentColor" viewBox="0 0 20 20">
  <g clip-path="url(#a)">
    <path fill-rule="evenodd" d="M1.571 7.646C2.838 3.1 7.504.363 12.117 1.508c4.688 1.17 7.54 5.917 6.375 10.609-1.17 4.688-5.917 7.54-10.609 6.375a8.745 8.745 0 0 1-6.346-6.268.625.625 0 0 1 1.209-.318 7.495 7.495 0 0 0 5.438 5.373c4.024.998 8.093-1.447 9.095-5.464.998-4.023-1.447-8.092-5.464-9.093a7.505 7.505 0 0 0-9.054 5.31l.886-.76a.625.625 0 1 1 .813.95L2.433 9.96a.625.625 0 0 1-.93-.132L.102 7.682a.625.625 0 1 1 1.046-.684l.423.648Zm8.43-2.021c.344 0 .624.28.624.625v3.125h3.125a.625.625 0 0 1 0 1.25H9.996A.625.625 0 0 1 9.375 10V6.25c0-.345.28-.625.625-.625Z" clip-rule="evenodd"/>
  </g>
  <defs>
    <clipPath id="a">
      <path d="M0 0h20v20H0z"/>
    </clipPath>
  </defs>
</svg>
