<svg xmlns="http://www.w3.org/2000/svg" width="20" height="20" fill="currentColor" viewBox="0 0 20 20">
  <path fill-rule="evenodd" d="M9.697 1.396a.625.625 0 0 1 .809.005L18.532 8.3a.625.625 0 0 1-.415 1.099l-1.242-.016v8.742a.625.625 0 0 1-.625.625H3.75a.625.625 0 0 1-.625-.625V9.383l-1.242.016a.625.625 0 0 1-.41-1.104l8.224-6.899Zm-6.078 6.73h.123a.625.625 0 0 1 .633.624v8.75h11.25V8.75a.625.625 0 0 1 .633-.625l.155.002-6.32-5.432L3.62 8.127Z" clip-rule="evenodd"/>
  <path fill-rule="evenodd" d="M8.412 12.5c-.114 0-.287.118-.287.357V17.5h3.75v-4.643c0-.239-.173-.357-.287-.357H8.412Zm-1.537.357c0-.841.648-1.607 1.537-1.607h3.176c.889 0 1.537.766 1.537 1.607v5.268c0 .345-.28.625-.625.625h-5a.625.625 0 0 1-.625-.625v-5.268Z" clip-rule="evenodd"/>
</svg>
