<svg xmlns="http://www.w3.org/2000/svg" width="20" height="20" fill="currentColor" viewBox="0 0 20 20">
  <path fill-rule="evenodd" d="M10.506 1.401a.625.625 0 0 0-.81-.005l-8.223 6.9a.625.625 0 0 0 .41 1.103l1.242-.016v8.742c0 .345.28.625.625.625h12.5a.625.625 0 0 0 .625-.625V9.383l1.242.016a.625.625 0 0 0 .415-1.099l-8.026-6.899ZM13.125 17.5h2.5V8.75a.625.625 0 0 1 .633-.625l.155.002-6.32-5.432L3.62 8.127l.123-.002a.625.625 0 0 1 .633.625v8.75h2.5v-4.643c0-.841.648-1.607 1.537-1.607h3.176c.889 0 1.537.766 1.537 1.607V17.5Zm-5 0h3.75v-4.643c0-.239-.173-.357-.287-.357H8.412c-.114 0-.287.118-.287.357V17.5Z" clip-rule="evenodd"/>
</svg>
