<svg xmlns="http://www.w3.org/2000/svg" width="20" height="20" fill="currentColor" viewBox="0 0 20 20">
  <path fill-rule="evenodd" d="M3.125 1.25a.625.625 0 1 0 0 1.25H5v2.985C5 7.425 6.049 9.125 7.607 10 6.049 10.875 5 12.576 5 14.515V17.5H3.125a.625.625 0 1 0 0 1.25h13.75a.625.625 0 1 0 0-1.25H15v-2.985c0-1.94-1.049-3.64-2.607-4.515C13.951 9.125 15 7.424 15 5.485V2.5h1.875a.625.625 0 1 0 0-1.25H3.125ZM13.75 2.5h-7.5v2.985c0 2.169 1.698 3.89 3.75 3.89s3.75-1.721 3.75-3.89V2.5ZM10 10.625c-2.052 0-3.75 1.721-3.75 3.89V17.5h7.5v-2.985c0-2.169-1.698-3.89-3.75-3.89Z" clip-rule="evenodd"/>
</svg>
