<svg xmlns="http://www.w3.org/2000/svg" width="20" height="20" fill="currentColor" viewBox="0 0 20 20">
  <path fill-rule="evenodd" d="M2.5 1.875c0-.345.28-.625.625-.625h13.75a.625.625 0 1 1 0 1.25H3.125a.625.625 0 0 1-.625-.625Zm0 16.25c0-.345.28-.625.625-.625h13.75a.625.625 0 1 1 0 1.25H3.125a.625.625 0 0 1-.625-.625Z" clip-rule="evenodd"/>
  <path fill-rule="evenodd" d="M5.625 1.25c.345 0 .625.28.625.625v3.61c0 2.169 1.698 3.89 3.75 3.89 2.78 0 5 2.318 5 5.14v3.61a.625.625 0 1 1-1.25 0v-3.61c0-2.169-1.698-3.89-3.75-3.89-2.78 0-5-2.318-5-5.14v-3.61c0-.345.28-.625.625-.625Z" clip-rule="evenodd"/>
  <path fill-rule="evenodd" d="M14.375 1.25c.345 0 .625.28.625.625v3.61c0 2.822-2.22 5.14-5 5.14-2.052 0-3.75 1.721-3.75 3.89v3.61a.625.625 0 1 1-1.25 0v-3.61c0-2.822 2.22-5.14 5-5.14 2.052 0 3.75-1.721 3.75-3.89v-3.61c0-.345.28-.625.625-.625Z" clip-rule="evenodd"/>
</svg>
