<svg xmlns="http://www.w3.org/2000/svg" width="20" height="20" fill="currentColor" viewBox="0 0 20 20">
  <path fill-rule="evenodd" d="M4.39 7.543C4.59 4.727 6.93 2.5 9.773 2.5a5.405 5.405 0 0 1 5.131 3.75h.028c1.999 0 3.817 1.956 3.817 4.106 0 .6-.087 1.175-.262 1.719a.628.628 0 0 1-.594.431l-.012-.006a.624.624 0 0 1-.594-.819 4.2 4.2 0 0 0 .206-1.325c0-1.469-1.25-2.856-2.568-2.856-.674 0-1.23.35-1.437.506a.622.622 0 0 1-.874-.137.623.623 0 0 1 .137-.875c.2-.148.513-.346.91-.5A4.15 4.15 0 0 0 9.769 3.75c-2.198 0-4.003 1.73-4.141 3.918l.752.157a.624.624 0 0 1 .482.744.631.631 0 0 1-.744.481l-.937-.2c-.519-.094-.831-.088-1.131.031a2.485 2.485 0 0 0-1.55 2.275c0 1.425 1.125 2.588 2.5 2.588h2.186c.344 0 .625.281.625.625a.627.627 0 0 1-.625.625V15H5c-2.07 0-3.75-1.719-3.75-3.838a3.74 3.74 0 0 1 2.337-3.437c.258-.103.516-.164.802-.182Zm8.422 9.957a.912.912 0 0 1-.456-.12l-2.5-1.406a.945.945 0 0 1-.481-.829v-2.792a.96.96 0 0 1 .481-.829l2.5-1.405a.936.936 0 0 1 .913 0l2.5 1.405c.3.165.481.488.481.83v2.791a.958.958 0 0 1-.481.83l-2.5 1.405a.912.912 0 0 1-.457.12Zm-2.187-2.545 2.188 1.235L15 14.955v-2.418l-2.188-1.235-2.187 1.235v2.418Z" clip-rule="evenodd"/>
</svg>
