<svg xmlns="http://www.w3.org/2000/svg" width="20" height="20" fill="currentColor" viewBox="0 0 20 20">
  <path d="M7.185 15H5c-2.07 0-3.75-1.719-3.75-3.838a3.74 3.74 0 0 1 2.337-3.437c.53-.212 1.062-.244 1.837-.1l.955.2a.624.624 0 0 1 .482.744.631.631 0 0 1-.744.481l-.937-.2c-.519-.094-.831-.088-1.131.031a2.485 2.485 0 0 0-1.55 2.275c0 1.425 1.125 2.588 2.5 2.588h2.186c.344 0 .625.281.625.625a.627.627 0 0 1-.625.625V15Zm10.697-2.5a.624.624 0 0 1-.594-.819 4.21 4.21 0 0 0 .206-1.325c0-1.469-1.25-2.856-2.568-2.856-.674 0-1.23.35-1.437.506a.622.622 0 0 1-.874-.137.623.623 0 0 1 .137-.875c.381-.281 1.168-.744 2.18-.744 2 0 3.818 1.956 3.818 4.106 0 .6-.087 1.175-.262 1.719a.628.628 0 0 1-.594.431l-.012-.006Zm-5.069 5a.912.912 0 0 1-.457-.12l-2.5-1.406a.945.945 0 0 1-.481-.829v-2.792a.96.96 0 0 1 .481-.829l2.5-1.405a.936.936 0 0 1 .913 0l2.5 1.405c.3.165.481.488.481.83v2.791a.958.958 0 0 1-.481.83l-2.5 1.405a.912.912 0 0 1-.457.12Zm-2.188-2.545 2.188 1.235L15 14.955v-2.418l-2.188-1.235-2.187 1.235v2.418Z"/>
  <path d="M5 8.75a.627.627 0 0 1-.625-.625v-.188c0-3 2.424-5.437 5.399-5.437a5.406 5.406 0 0 1 5.205 4 .63.63 0 0 1-.444.769.626.626 0 0 1-.768-.444 4.15 4.15 0 0 0-4-3.075c-2.286 0-4.149 1.875-4.149 4.188v.187a.627.627 0 0 1-.624.625H5Z"/>
</svg>
