<svg xmlns="http://www.w3.org/2000/svg" width="20" height="20" fill="currentColor" viewBox="0 0 20 20">
  <path fill-rule="evenodd" d="M1.25 3.125c0-1.036.84-1.875 1.875-1.875h10c1.036 0 1.875.84 1.875 1.875V7.5a.625.625 0 1 1-1.25 0V3.125a.625.625 0 0 0-.625-.625h-10a.625.625 0 0 0-.625.625v13.75c0 .345.28.625.625.625h5a.625.625 0 1 1 0 1.25h-5a1.875 1.875 0 0 1-1.875-1.875V3.125Zm4.375 2.5a2.5 2.5 0 1 1 4.999-.001 2.5 2.5 0 0 1-4.999.001Zm2.5-1.25a1.25 1.25 0 1 0-.001 2.499 1.25 1.25 0 0 0 .001-2.499Zm-2.5 6.091c0-.063.032-.167.18-.28a.977.977 0 0 1 .57-.186H8.75a.625.625 0 1 0 0-1.25H6.375c-.477 0-.955.16-1.324.44-.369.279-.68.722-.676 1.285v1.4c0 .345.28.625.625.625h2.5a.625.625 0 1 0 0-1.25H5.625v-.784Zm-1.25 3.909c0-.345.28-.625.625-.625h1.875a.625.625 0 1 1 0 1.25H5a.625.625 0 0 1-.625-.625ZM5 15.625a.625.625 0 1 0 0 1.25h1.875a.625.625 0 1 0 0-1.25H5Zm9.3-6.545a.625.625 0 0 1 .84-.259l1.914 1.002c.305.16.423.535.265.84l-.323.626c.155.208.288.428.399.658l.76.036c.333.016.595.29.595.624v2.097a.625.625 0 0 1-.605.625l-.657.021a3.99 3.99 0 0 1-.157.33l-.002.004c-.06.109-.123.217-.192.322l.407.702a.625.625 0 0 1-.234.858l-1.962 1.104a.625.625 0 0 1-.866-.267l-.294-.592a3.944 3.944 0 0 1-.674.02l-.313.585a.625.625 0 0 1-.841.259l-1.932-1.011a.625.625 0 0 1-.26-.85l.331-.613a4.1 4.1 0 0 1-.378-.62l-.66.022a.625.625 0 0 1-.645-.606l-.066-2.186a.625.625 0 0 1 .605-.644l.656-.021a3.914 3.914 0 0 1 .346-.647l-.348-.567a.625.625 0 0 1 .202-.857l1.847-1.152a.625.625 0 0 1 .863.203l.348.564a3.95 3.95 0 0 1 .717-.024l.313-.586Zm.81 1.136-.222.414a.625.625 0 0 1-.66.32 2.696 2.696 0 0 0-1.117.039.625.625 0 0 1-.683-.28l-.242-.393-.787.491.243.396c.14.23.12.523-.053.729a2.883 2.883 0 0 0-.534 1.005.625.625 0 0 1-.579.444l-.457.015.028.937.459-.015a.625.625 0 0 1 .607.41c.132.36.33.691.593.971a.625.625 0 0 1 .093.725l-.23.426.821.43.222-.414a.625.625 0 0 1 .66-.32c.374.066.757.05 1.117-.039.285-.07.58.066.71.329l.21.422.836-.47-.295-.508a.625.625 0 0 1 .062-.716 2.874 2.874 0 0 0 .533-1.005.625.625 0 0 1 .578-.444l.477-.016v-.896l-.556-.026a.625.625 0 0 1-.557-.409 2.851 2.851 0 0 0-.593-.971.625.625 0 0 1-.099-.715l.228-.44-.813-.426Zm-.735 3.534a.625.625 0 1 1-1.25 0 .625.625 0 0 1 1.25 0Zm1.25 0a1.875 1.875 0 1 1-3.75 0 1.875 1.875 0 0 1 3.75 0Z" clip-rule="evenodd"/>
</svg>
