<svg xmlns="http://www.w3.org/2000/svg" width="20" height="20" fill="currentColor" viewBox="0 0 20 20">
  <path fill-rule="evenodd" d="M3.125 3.125c0-1.036.84-1.875 1.875-1.875h10c1.035 0 1.875.84 1.875 1.875v13.75c0 1.035-.84 1.875-1.875 1.875H5a1.875 1.875 0 0 1-1.875-1.875V3.125ZM5 2.5a.625.625 0 0 0-.625.625v13.75c0 .345.28.625.625.625h10c.345 0 .625-.28.625-.625V3.125A.625.625 0 0 0 15 2.5H5Z" clip-rule="evenodd"/>
  <path fill-rule="evenodd" d="M7.5 5.625a2.5 2.5 0 1 1 4.999-.001 2.5 2.5 0 0 1-4.999.001Zm2.5-1.25a1.25 1.25 0 1 0-.001 2.499A1.25 1.25 0 0 0 10 4.375Zm-2.32 5.812c-.148.112-.18.216-.18.28v.783h5v-.84a.314.314 0 0 0-.134-.259.803.803 0 0 0-.496-.151H8.25a.977.977 0 0 0-.57.187Zm-.754-.997c.37-.28.847-.44 1.324-.44h3.621c.877 0 1.888.57 1.879 1.668v1.457c0 .345-.28.625-.625.625h-6.25a.625.625 0 0 1-.625-.625v-1.4c-.004-.563.307-1.006.676-1.285Zm-.676 5.185c0-.345.28-.625.625-.625h6.25a.625.625 0 1 1 0 1.25h-6.25a.625.625 0 0 1-.625-.625Zm0 1.875c0-.345.28-.625.625-.625h6.25a.625.625 0 1 1 0 1.25h-6.25a.625.625 0 0 1-.625-.625Z" clip-rule="evenodd"/>
</svg>
