<svg xmlns="http://www.w3.org/2000/svg" width="20" height="20" fill="currentColor" viewBox="0 0 20 20">
  <path fill-rule="evenodd" d="M3.125 3.125c0-1.036.84-1.875 1.875-1.875h10c1.035 0 1.875.84 1.875 1.875v13.75c0 1.035-.84 1.875-1.875 1.875H5a1.875 1.875 0 0 1-1.875-1.875V3.125ZM5 2.5a.625.625 0 0 0-.625.625v13.75c0 .345.28.625.625.625h10c.345 0 .625-.28.625-.625V3.125A.625.625 0 0 0 15 2.5H5Zm2.5 3.125a2.5 2.5 0 1 1 4.999-.001 2.5 2.5 0 0 1-4.999.001Zm2.5-1.25a1.25 1.25 0 1 0-.001 2.499A1.25 1.25 0 0 0 10 4.375Zm-2.5 6.091c0-.063.032-.167.18-.28A.977.977 0 0 1 8.25 10h3.621c.216 0 .39.067.495.151.097.077.135.162.134.259v.84h-5v-.784Zm.75-1.716c-.477 0-.955.16-1.324.44-.369.279-.68.722-.676 1.285v1.4c0 .345.28.625.625.625h6.25c.345 0 .625-.28.625-.625v-1.457c.009-1.099-1.002-1.668-1.879-1.668H8.25Zm-2 5.625c0-.345.28-.625.625-.625h6.25a.625.625 0 1 1 0 1.25h-6.25a.625.625 0 0 1-.625-.625Zm.625 1.25a.625.625 0 1 0 0 1.25h6.25a.625.625 0 1 0 0-1.25h-6.25Z" clip-rule="evenodd"/>
</svg>
