<svg xmlns="http://www.w3.org/2000/svg" width="20" height="20" fill="currentColor" viewBox="0 0 20 20">
  <path d="M11.464 17.357a.626.626 0 0 1 .243 1.226 8.793 8.793 0 0 1-3.414 0 .625.625 0 1 1 .243-1.226 7.538 7.538 0 0 0 2.928 0Zm-8.568-3.362a.625.625 0 0 1 .828.12l.039.052.213.3a7.55 7.55 0 0 0 1.556 1.557l.301.213.051.039a.625.625 0 0 1-.691 1.033l-.055-.033-.178-.122a8.796 8.796 0 0 1-2.114-2.114l-.122-.178-.033-.055a.626.626 0 0 1 .205-.812Zm13.38.12a.625.625 0 0 1 1 .747l-.122.178a8.796 8.796 0 0 1-2.292 2.236l-.055.033a.626.626 0 0 1-.64-1.072l.3-.213a7.548 7.548 0 0 0 1.77-1.857l.039-.051ZM1.25 10c0-.584.057-1.155.167-1.707a.625.625 0 1 1 1.226.243 7.54 7.54 0 0 0 0 2.928.626.626 0 0 1-1.226.243A8.792 8.792 0 0 1 1.25 10Zm16.25 0c0-.502-.05-.991-.143-1.464l1.226-.243a8.793 8.793 0 0 1 0 3.414.625.625 0 0 1-1.226-.243c.094-.473.143-.962.143-1.464Zm.35-2.2a.625.625 0 0 1 .733.493l-1.226.243a.626.626 0 0 1 .492-.735ZM5.192 2.692a.626.626 0 0 1 .64 1.072l-.3.213a7.545 7.545 0 0 0-1.77 1.857l-.039.051a.625.625 0 0 1-1-.746l.122-.178a8.796 8.796 0 0 1 2.292-2.236l.055-.033Zm8.802.205a.626.626 0 0 1 .812-.205l.055.033.178.122a8.796 8.796 0 0 1 2.114 2.114l.122.178.033.055a.626.626 0 0 1-1.033.691l-.039-.05-.213-.302a7.55 7.55 0 0 0-1.556-1.556l-.301-.213-.051-.039a.625.625 0 0 1-.121-.828ZM10 1.25a8.73 8.73 0 0 1 1.707.167.625.625 0 1 1-.243 1.226 7.539 7.539 0 0 0-2.928 0 .626.626 0 0 1-.243-1.226A8.791 8.791 0 0 1 10 1.25Z"/>
</svg>
