<svg xmlns="http://www.w3.org/2000/svg" width="20" height="20" fill="none" viewBox="0 0 20 20">
  <path fill="#3D3C3C" fill-rule="evenodd" d="M2.5 1.25c-.69 0-1.25.56-1.25 1.25v14.375c0 1.035.84 1.875 1.875 1.875h13.75c1.035 0 1.875-.84 1.875-1.875V5.28a1.25 1.25 0 0 0-1.876-1.082L12.5 6.728v-1.42a1.25 1.25 0 0 0-1.9-1.067l-4.037 2.46V2.5c0-.69-.56-1.25-1.25-1.25H2.5ZM15.625 17.5h1.25c.345 0 .625-.28.625-.625V5.28l-4.374 2.53a1.25 1.25 0 0 1-1.876-1.08V5.31L7.213 7.768a1.25 1.25 0 0 1-1.9-1.068V2.5H2.5v14.375c0 .345.28.625.625.625H10v-5c0-.69.56-1.25 1.25-1.25h3.125c.69 0 1.25.56 1.25 1.25v5Zm-4.375 0h3.125v-5H11.25v5Z" clip-rule="evenodd"/>
</svg>
