<svg xmlns="http://www.w3.org/2000/svg" width="20" height="20" fill="currentColor" viewBox="0 0 20 20">
  <path fill-rule="evenodd" d="M1.25 3.125c0-1.036.84-1.875 1.875-1.875h13.75c1.035 0 1.875.84 1.875 1.875v13.75c0 1.035-.84 1.875-1.875 1.875H3.125a1.875 1.875 0 0 1-1.875-1.875V3.125ZM3.125 2.5a.625.625 0 0 0-.625.625v13.75c0 .345.28.625.625.625h13.75c.345 0 .625-.28.625-.625V3.125a.625.625 0 0 0-.625-.625H3.125ZM10 8.125c.345 0 .625.28.625.625v5a.625.625 0 1 1-1.25 0v-5c0-.345.28-.625.625-.625Zm0-1.25a.625.625 0 1 0 0-1.25.625.625 0 0 0 0 1.25Z" clip-rule="evenodd"/>
</svg>
