<svg xmlns="http://www.w3.org/2000/svg" width="20" height="20" fill="currentColor" viewBox="0 0 20 20">
  <path d="M11.704 1.867a1.16 1.16 0 0 1 1.62-.451v-.001l1.992 1.17.054.036a.626.626 0 0 1-.63 1.072l-.056-.029-1.921-1.129-.683 1.243c-.226.412-.696.693-1.217.598l-.212-.031a5.297 5.297 0 0 0-1.524.032h-.002a1.16 1.16 0 0 1-1.16-.523l-.045-.076-.683-1.242-1.995 1.208.708 1.292h.001c.23.417.2.944-.096 1.333l-.005.008a5.763 5.763 0 0 0-.883 1.608l-.001.002c-.17.467-.61.778-1.1.778H2.5v2.47h1.366c.487 0 .933.304 1.1.779l.085.22c.205.506.476.975.8 1.391.304.39.328.925.1 1.339v-.001l-.709 1.293 1.995 1.207.683-1.241.045-.076c.24-.37.683-.61 1.172-.522h-.001a5.297 5.297 0 0 0 1.737-.002h.002l.095-.012a1.17 1.17 0 0 1 1.062.534l.046.074.002.004.683 1.243 1.92-1.13a.626.626 0 0 1 .633 1.079l-1.992 1.17-.11.059a1.167 1.167 0 0 1-1.51-.51v-.001l-.697-1.267c-.327.051-.663.08-1.007.08a6.55 6.55 0 0 1-1.008-.08L8.3 18.126a1.16 1.16 0 0 1-1.63.454v.001l-2.104-1.274-.101-.068a1.227 1.227 0 0 1-.327-1.566l.713-1.302a7.115 7.115 0 0 1-1.04-1.886H2.432c-.685 0-1.182-.576-1.182-1.21v-2.55c0-.644.506-1.21 1.182-1.21H3.81c.252-.686.6-1.323 1.04-1.887l-.714-1.303-.053-.108a1.225 1.225 0 0 1 .477-1.52l.003-.003L6.67 1.42l.002-.001.11-.059a1.164 1.164 0 0 1 1.45.405l.065.103.696 1.267a6.542 6.542 0 0 1 2.015 0l.697-1.267Zm2.11 9.386a.626.626 0 0 1 .561.622v1.875h.733a1.874 1.874 0 1 1 0 1.25H13.75a.625.625 0 0 1-.625-.625V12.5h-5a.625.625 0 0 1 0-1.25h5.625l.065.003Zm3.061 2.497a.625.625 0 1 0 0 1.25.625.625 0 0 0 0-1.25Zm0-5.625a1.875 1.875 0 1 1-1.767 2.5h-4.483a.625.625 0 0 1 0-1.25h4.483c.258-.728.95-1.25 1.767-1.25Zm0 1.25a.625.625 0 1 0 0 1.25.625.625 0 0 0 0-1.25Zm0-5.625a1.875 1.875 0 1 1-1.77 2.49.625.625 0 0 1-.105.01h-.625v1.875c0 .345-.28.625-.625.625H8.125a.625.625 0 0 1 0-1.25h5V5.625l.003-.064A.625.625 0 0 1 13.75 5H15c.036 0 .07.004.104.01a1.876 1.876 0 0 1 1.771-1.26Zm0 1.25a.625.625 0 1 0 0 1.25.625.625 0 0 0 0-1.25Z"/>
</svg>
