<svg xmlns="http://www.w3.org/2000/svg" width="20" height="20" fill="currentColor" viewBox="0 0 20 20">
  <path fill-rule="evenodd" d="M7.87 2.327A1.08 1.08 0 0 1 8.947 1.25h.428a.625.625 0 1 1 0 1.25H9.12v1.363a.625.625 0 0 1-.474.606 5.657 5.657 0 0 0-1.594.662.625.625 0 0 1-.768-.092l-.96-.96L4.083 5.32l.96.962a.625.625 0 0 1 .092.767 5.667 5.667 0 0 0-.661 1.595.625.625 0 0 1-.607.475H2.5v1.762h1.361c.287 0 .538.196.607.475.141.572.364 1.109.66 1.595a.625.625 0 0 1-.09.767l-.961.962 1.24 1.242.96-.961a.625.625 0 0 1 .769-.092c.485.297 1.022.52 1.594.662.279.069.474.32.474.606V17.5h.261a.625.625 0 1 1 0 1.25h-.434a1.08 1.08 0 0 1-1.077-1.077V16.61a6.899 6.899 0 0 1-1.037-.43l-.748.75a1.079 1.079 0 0 1-1.522 0L3.07 15.44a1.08 1.08 0 0 1 0-1.522l.75-.75a6.91 6.91 0 0 1-.43-1.038H2.325a1.08 1.08 0 0 1-1.076-1.077V8.946a1.08 1.08 0 0 1 1.076-1.077h1.07c.115-.359.258-.706.43-1.038l-.75-.75a1.08 1.08 0 0 1 0-1.522l1.487-1.488a1.079 1.079 0 0 1 1.522 0l.748.75c.332-.17.679-.314 1.037-.43V2.327Z" clip-rule="evenodd"/>
  <path fill-rule="evenodd" d="M13.125 5.625c0-.345.28-.625.625-.625H15a.625.625 0 1 1 0 1.25h-.625v1.875c0 .345-.28.625-.625.625H9.375a.625.625 0 1 1 0-1.25h3.75V5.625Z" clip-rule="evenodd"/>
  <path fill-rule="evenodd" d="M11.875 4.375c.345 0 .625.28.625.625v1.25c0 .345-.28.625-.625.625h-2.5c-1.191 0-1.95.517-2.43 1.156-.499.666-.695 1.47-.695 1.969 0 .543.14 1.342.59 1.985.425.608 1.168 1.14 2.535 1.14h2.5c.345 0 .625.28.625.625V15a.625.625 0 1 1-1.25 0v-.625H9.375c-1.758 0-2.89-.718-3.559-1.673C5.173 11.783 5 10.707 5 10c0-.75.273-1.822.945-2.719.693-.923 1.809-1.656 3.43-1.656h1.875V5c0-.345.28-.625.625-.625Z" clip-rule="evenodd"/>
  <path fill-rule="evenodd" d="M7.388 8.437C7.824 7.88 8.543 7.5 9.6 7.5a.625.625 0 1 1 0 1.25c-.73 0-1.062.246-1.228.458-.19.242-.247.548-.247.748 0 .204.059.538.257.806.173.233.503.488 1.218.488h4.15c.345 0 .625.28.625.625v1.875h1.25a.625.625 0 1 1 0 1.25H13.75a.625.625 0 0 1-.625-.625V12.5H9.6c-1.073 0-1.792-.414-2.222-.994a2.672 2.672 0 0 1-.503-1.55c0-.38.099-.99.513-1.519Z" clip-rule="evenodd"/>
  <path fill-rule="evenodd" d="M8.75 10c0-.345.28-.625.625-.625h5.938a.625.625 0 1 1 0 1.25H9.375A.625.625 0 0 1 8.75 10Zm3.125-7.5a.625.625 0 1 0 0 1.25.625.625 0 0 0 0-1.25ZM10 3.125a1.875 1.875 0 1 1 3.75 0 1.875 1.875 0 0 1-3.75 0ZM16.875 5a.625.625 0 1 0 0 1.25.625.625 0 0 0 0-1.25ZM15 5.625a1.875 1.875 0 1 1 3.75 0 1.875 1.875 0 0 1-3.75 0Z" clip-rule="evenodd"/>
  <path fill-rule="evenodd" d="M16.875 9.375a.625.625 0 1 0 0 1.25.625.625 0 0 0 0-1.25ZM15 10a1.875 1.875 0 1 1 3.75 0A1.875 1.875 0 0 1 15 10Zm-3.125 6.25a.625.625 0 1 0 0 1.25.625.625 0 0 0 0-1.25ZM10 16.875a1.875 1.875 0 1 1 3.75 0 1.875 1.875 0 0 1-3.75 0Zm6.875-3.125a.625.625 0 1 0 0 1.25.625.625 0 0 0 0-1.25ZM15 14.375a1.875 1.875 0 1 1 3.75 0 1.875 1.875 0 0 1-3.75 0Z" clip-rule="evenodd"/>
</svg>
