<svg xmlns="http://www.w3.org/2000/svg" width="20" height="20" fill="currentColor" viewBox="0 0 20 20">
  <path fill-rule="evenodd" d="M8.947 1.25A1.08 1.08 0 0 0 7.87 2.327V3.39c-.358.116-.705.26-1.037.43l-.748-.75a1.079 1.079 0 0 0-1.522 0L3.076 4.56a1.08 1.08 0 0 0 0 1.522l.75.75c-.172.332-.315.68-.43 1.038h-1.07A1.08 1.08 0 0 0 1.25 8.946v2.108a1.08 1.08 0 0 0 1.076 1.077H3.39c.116.359.26.706.43 1.038l-.75.75a1.08 1.08 0 0 0 0 1.522l1.488 1.487a1.079 1.079 0 0 0 1.522 0l.748-.749c.332.17.679.314 1.037.43v1.064a1.08 1.08 0 0 0 1.077 1.077h.434a.625.625 0 1 0 0-1.25h-.26v-1.363a.625.625 0 0 0-.475-.606 5.658 5.658 0 0 1-1.594-.662.625.625 0 0 0-.768.092l-.96.96-1.241-1.241.96-.962a.625.625 0 0 0 .092-.767 5.667 5.667 0 0 1-.661-1.595.625.625 0 0 0-.607-.475H2.5V9.119h1.367a.625.625 0 0 0 .607-.475 5.672 5.672 0 0 1 .66-1.595.625.625 0 0 0-.09-.767l-.961-.962 1.24-1.242.96.961a.625.625 0 0 0 .769.092 5.657 5.657 0 0 1 1.594-.662.625.625 0 0 0 .474-.606V2.5h.255a.625.625 0 1 0 0-1.25h-.428ZM13.75 5a.625.625 0 0 0-.625.625V7.5h-3.75a.627.627 0 0 0-.142.016c-.858.078-1.461.43-1.845.921a2.51 2.51 0 0 0-.513 1.52c0 .378.097 1.002.503 1.549.43.58 1.15.994 2.222.994h3.525v1.875c0 .345.28.625.625.625h1.357a1.876 1.876 0 1 0 0-1.25h-.732v-1.875a.625.625 0 0 0-.625-.625H9.6c-.715 0-1.045-.255-1.218-.488a1.424 1.424 0 0 1-.257-.806c0-.2.057-.506.247-.748.166-.212.497-.458 1.228-.458h4.15c.345 0 .625-.28.625-.625V6.25H15a.63.63 0 0 0 .104-.009 1.876 1.876 0 1 0 0-1.232A.63.63 0 0 0 15 5h-1.25Zm2.5 9.375a.625.625 0 1 0 1.25 0 .625.625 0 0 0-1.25 0Zm-3.759-9.479A.622.622 0 0 1 12.5 5v1.25c0 .345-.28.625-.625.625h-2.5c-1.191 0-1.95.517-2.43 1.156-.499.666-.695 1.47-.695 1.969 0 .543.14 1.342.59 1.985.425.608 1.168 1.14 2.535 1.14h2.5c.345 0 .625.28.625.625V15a.6.6 0 0 1-.009.104 1.876 1.876 0 1 1-1.232 0A.622.622 0 0 1 11.25 15v-.625H9.375c-1.758 0-2.89-.718-3.559-1.673C5.173 11.783 5 10.707 5 10c0-.75.273-1.822.945-2.719.693-.923 1.809-1.656 3.43-1.656h1.875V5a.6.6 0 0 1 .009-.104 1.876 1.876 0 1 1 1.232 0ZM8.75 10c0-.345.28-.625.625-.625h5.732a1.876 1.876 0 1 1 0 1.25H9.375A.625.625 0 0 1 8.75 10Zm2.5-6.875a.625.625 0 1 1 1.25 0 .625.625 0 0 1-1.25 0ZM16.875 5a.625.625 0 1 0 0 1.25.625.625 0 0 0 0-1.25Zm-.625 5a.625.625 0 1 1 1.25 0 .625.625 0 0 1-1.25 0Zm-4.375 6.25a.625.625 0 1 0 0 1.25.625.625 0 0 0 0-1.25Z" clip-rule="evenodd"/>
</svg>
