<svg xmlns="http://www.w3.org/2000/svg" width="20" height="20" fill="currentColor" viewBox="0 0 20 20">
  <path d="M6.875 2.5a.625.625 0 1 1 0 1.25H3.479a.965.965 0 0 0-.979.95v7.175h15v-.625a.625.625 0 1 1 1.25 0v2.176c0 1.225-1.01 2.199-2.23 2.199h-5.895V17.5h3.125a.625.625 0 1 1 0 1.25h-7.5a.625.625 0 1 1 0-1.25h3.125v-1.875H3.479c-1.22 0-2.229-.974-2.229-2.2V4.7c0-1.226 1.01-2.2 2.23-2.2h3.395ZM2.5 13.426c0 .513.427.949.98.949h13.04c.553 0 .98-.436.98-.95v-.3h-15v.3ZM13.125 1.25c2.755 0 5 2.245 5 5s-2.245 5-5 5-5-2.245-5-5 2.245-5 5-5Zm-1.227 5.625c.057.884.233 1.656.476 2.223.15.35.313.592.461.739.146.144.243.163.29.163.047 0 .144-.02.29-.163.148-.147.311-.39.461-.74.243-.566.419-1.338.476-2.222h-2.454Zm-2.47 0a3.765 3.765 0 0 0 1.74 2.57c-.283-.716-.468-1.605-.523-2.57H9.428Zm6.177 0c-.055.966-.241 1.854-.525 2.57a3.764 3.764 0 0 0 1.742-2.57h-1.216ZM11.17 3.054a3.766 3.766 0 0 0-1.741 2.571h1.216c.056-.966.241-1.855.525-2.571Zm1.956-.554c-.047 0-.144.02-.29.164-.148.147-.311.39-.461.738-.243.567-.419 1.34-.476 2.223h2.454c-.057-.884-.233-1.656-.476-2.223-.15-.349-.313-.591-.461-.738-.146-.144-.243-.164-.29-.164Zm1.955.554c.284.716.47 1.605.525 2.571h1.217a3.765 3.765 0 0 0-1.742-2.571Z"/>
</svg>
