<svg xmlns="http://www.w3.org/2000/svg" width="20" height="20" fill="currentColor" viewBox="0 0 20 20">
  <path fill-rule="evenodd" d="M6.875 11.25c1.036 0 1.875.84 1.875 1.875v3.75c0 1.035-.84 1.875-1.875 1.875h-3.75a1.875 1.875 0 0 1-1.875-1.875v-3.75c0-1.036.84-1.875 1.875-1.875h3.75Zm-3.75 1.25a.625.625 0 0 0-.625.625v3.75c0 .345.28.625.625.625h3.75c.345 0 .625-.28.625-.625v-3.75a.625.625 0 0 0-.625-.625h-1.25v1.25a.625.625 0 0 1-1.25 0V12.5h-1.25Zm12.5-1.25c1.035 0 1.875.84 1.875 1.875v3.75c0 1.035-.84 1.875-1.875 1.875h-3.75A1.875 1.875 0 0 1 10 16.875v-3.75c0-1.036.84-1.875 1.875-1.875h3.75Zm-3.75 1.25a.625.625 0 0 0-.625.625v3.75c0 .345.28.625.625.625h3.75c.345 0 .625-.28.625-.625v-3.75a.625.625 0 0 0-.625-.625h-1.25v1.25a.625.625 0 0 1-1.25 0V12.5h-1.25Zm2.5-8.75a1.875 1.875 0 1 1 0 3.75 1.875 1.875 0 0 1 0-3.75Zm0 1.25a.625.625 0 1 0 0 1.25.625.625 0 0 0 0-1.25Z" clip-rule="evenodd"/>
  <path fill-rule="evenodd" d="M14.957.9a.625.625 0 0 1 .808-.204l1.914 1.001c.305.16.423.536.265.841l-.324.626c.155.208.287.428.399.658l.76.036c.334.016.596.29.596.624V6.58a.626.626 0 0 1-.605.625l-.658.02c-.047.11-.098.221-.156.33l-.003.005a4.536 4.536 0 0 1-.192.321l.408.703a.625.625 0 0 1-.234.858l-1.962 1.104a.626.626 0 0 1-.866-.267l-.295-.594a3.947 3.947 0 0 1-.673.02l-.313.586a.625.625 0 0 1-.841.26l-1.931-1.01a.626.626 0 0 1-.261-.852l.331-.614a4.094 4.094 0 0 1-.377-.618l-.66.022a.626.626 0 0 1-.645-.606l-.067-2.186a.625.625 0 0 1 .605-.644l.657-.022a3.713 3.713 0 0 1 .345-.645l-.348-.567a.625.625 0 0 1 .202-.858L12.683.798a.625.625 0 0 1 .863.203l.348.565a3.95 3.95 0 0 1 .717-.025l.313-.586.033-.054Zm.556 1.605a.625.625 0 0 1-.66.32 2.696 2.696 0 0 0-1.117.039.625.625 0 0 1-.682-.28l-.243-.393-.787.49.243.397c.14.229.12.523-.053.729a2.797 2.797 0 0 0-.534 1.005.625.625 0 0 1-.578.444l-.459.015.029.937.459-.015.1.005c.228.03.425.183.507.405.132.36.33.691.593.971a.625.625 0 0 1 .093.724l-.23.427.821.43.222-.414.054-.084a.625.625 0 0 1 .606-.237c.374.067.756.051 1.117-.038.285-.07.58.066.71.329l.21.421.835-.47-.294-.507a.625.625 0 0 1 .061-.715 2.876 2.876 0 0 0 .534-1.006l.036-.092a.626.626 0 0 1 .542-.353l.477-.016v-.895l-.555-.026a.625.625 0 0 1-.558-.41 2.851 2.851 0 0 0-.593-.97.626.626 0 0 1-.099-.715l.228-.44-.814-.427-.22.415ZM6.875 2.5c1.036 0 1.875.84 1.875 1.875v3.75C8.75 9.16 7.91 10 6.875 10h-3.75A1.875 1.875 0 0 1 1.25 8.125v-3.75c0-1.036.84-1.875 1.875-1.875h3.75Zm-3.75 1.25a.625.625 0 0 0-.625.625v3.75c0 .345.28.625.625.625h3.75c.345 0 .625-.28.625-.625v-3.75a.625.625 0 0 0-.625-.625h-1.25V5a.625.625 0 0 1-1.25 0V3.75h-1.25Z" clip-rule="evenodd"/>
</svg>
