<svg xmlns="http://www.w3.org/2000/svg" width="20" height="20" fill="currentColor" viewBox="0 0 20 20">
  <path d="M6.875 11.25c1.036 0 1.875.84 1.875 1.875v3.75c0 1.035-.84 1.875-1.875 1.875h-3.75a1.875 1.875 0 0 1-1.875-1.875v-3.75c0-1.036.84-1.875 1.875-1.875h3.75Zm9.375 0c1.035 0 1.875.84 1.875 1.875v3.75c0 1.035-.84 1.875-1.875 1.875H12.5a1.875 1.875 0 0 1-1.875-1.875v-3.75c0-1.036.84-1.875 1.875-1.875h3.75ZM3.125 12.5a.625.625 0 0 0-.625.625v3.75c0 .345.28.625.625.625h3.75c.345 0 .625-.28.625-.625v-3.75a.625.625 0 0 0-.625-.625h-1.25v1.25a.625.625 0 1 1-1.25 0V12.5h-1.25Zm9.375 0a.625.625 0 0 0-.625.625v3.75c0 .345.28.625.625.625h3.75c.345 0 .625-.28.625-.625v-3.75a.625.625 0 0 0-.625-.625H15v1.25a.625.625 0 1 1-1.25 0V12.5H12.5Zm5-10.625c.345 0 .625.28.625.625v1.875c0 .345-.28.625-.625.625h-1.875a.625.625 0 1 1 0-1.25h.621a3.107 3.107 0 0 0-1.871-.625 3.126 3.126 0 0 0-2.514 4.979A3.126 3.126 0 0 0 17.5 6.25a.625.625 0 1 1 1.25 0 4.376 4.376 0 1 1-1.875-3.59V2.5c0-.345.28-.625.625-.625ZM6.875 2.5c1.036 0 1.875.84 1.875 1.875v3.75C8.75 9.161 7.91 10 6.875 10h-3.75A1.875 1.875 0 0 1 1.25 8.125v-3.75c0-1.036.84-1.875 1.875-1.875h3.75Zm-3.75 1.25a.625.625 0 0 0-.625.625v3.75c0 .345.28.625.625.625h3.75c.345 0 .625-.28.625-.625v-3.75a.625.625 0 0 0-.625-.625h-1.25V5a.625.625 0 1 1-1.25 0V3.75h-1.25Z"/>
</svg>
