<svg xmlns="http://www.w3.org/2000/svg" width="20" height="20" fill="currentColor" viewBox="0 0 20 20">
  <path d="M6.875 11.25c1.036 0 1.875.84 1.875 1.875v3.75c0 1.035-.84 1.875-1.875 1.875h-3.75a1.875 1.875 0 0 1-1.875-1.875v-3.75c0-1.036.84-1.875 1.875-1.875h3.75Zm9.375 0c1.035 0 1.875.84 1.875 1.875v3.75c0 1.035-.84 1.875-1.875 1.875H12.5a1.875 1.875 0 0 1-1.875-1.875v-3.75c0-1.036.84-1.875 1.875-1.875h3.75ZM3.125 12.5a.625.625 0 0 0-.625.625v3.75c0 .345.28.625.625.625h3.75c.345 0 .625-.28.625-.625v-3.75a.625.625 0 0 0-.625-.625h-1.25v1.25a.625.625 0 1 1-1.25 0V12.5h-1.25Zm9.375 0a.625.625 0 0 0-.625.625v3.75c0 .345.28.625.625.625h3.75c.345 0 .625-.28.625-.625v-3.75a.625.625 0 0 0-.625-.625H15v1.25a.625.625 0 1 1-1.25 0V12.5H12.5Zm1.875-10.625a4.375 4.375 0 1 1 0 8.75 4.375 4.375 0 0 1 0-8.75Zm-7.5.625c1.036 0 1.875.84 1.875 1.875v3.75C8.75 9.161 7.91 10 6.875 10h-3.75A1.875 1.875 0 0 1 1.25 8.125v-3.75c0-1.036.84-1.875 1.875-1.875h3.75Zm7.5.625a3.125 3.125 0 1 0 0 6.25 3.125 3.125 0 0 0 0-6.25Zm-11.25.625a.625.625 0 0 0-.625.625v3.75c0 .345.28.625.625.625h3.75c.345 0 .625-.28.625-.625v-3.75a.625.625 0 0 0-.625-.625h-1.25V5a.625.625 0 1 1-1.25 0V3.75h-1.25Zm11.988.892a.625.625 0 1 1 1.024.717l-1.752 2.5a.626.626 0 0 1-1.025-.002l-.748-1.073a.625.625 0 0 1 1.026-.715l.236.34 1.24-1.767Z"/>
</svg>
