<svg xmlns="http://www.w3.org/2000/svg" width="20" height="20" fill="currentColor" viewBox="0 0 20 20">
  <path d="M6.875 11.25c1.036 0 1.875.84 1.875 1.875v3.75c0 1.035-.84 1.875-1.875 1.875h-3.75a1.875 1.875 0 0 1-1.875-1.875v-3.75c0-1.036.84-1.875 1.875-1.875h3.75Zm8.75 0c1.035 0 1.875.84 1.875 1.875v3.75c0 1.035-.84 1.875-1.875 1.875h-3.75A1.875 1.875 0 0 1 10 16.875v-3.75c0-1.036.84-1.875 1.875-1.875h3.75Zm-12.5 1.25a.625.625 0 0 0-.625.625v3.75c0 .345.28.625.625.625h3.75c.345 0 .625-.28.625-.625v-3.75a.625.625 0 0 0-.625-.625h-1.25v1.25a.625.625 0 1 1-1.25 0V12.5h-1.25Zm8.75 0a.625.625 0 0 0-.625.625v3.75c0 .345.28.625.625.625h3.75c.345 0 .625-.28.625-.625v-3.75a.625.625 0 0 0-.625-.625h-1.25v1.25a.625.625 0 1 1-1.25 0V12.5h-1.25ZM13.75 1.875a3.75 3.75 0 0 1 3.055 5.922l1.761 1.762a.625.625 0 1 1-.883.883L15.92 8.681a3.75 3.75 0 1 1-2.17-6.806ZM6.875 2.5c1.036 0 1.875.84 1.875 1.875v3.75C8.75 9.161 7.91 10 6.875 10h-3.75A1.875 1.875 0 0 1 1.25 8.125v-3.75c0-1.036.84-1.875 1.875-1.875h3.75Zm-3.75 1.25a.625.625 0 0 0-.625.625v3.75c0 .345.28.625.625.625h3.75c.345 0 .625-.28.625-.625v-3.75a.625.625 0 0 0-.625-.625h-1.25V5a.625.625 0 1 1-1.25 0V3.75h-1.25Zm10.625-.625a2.5 2.5 0 1 0 0 5 2.5 2.5 0 0 0 0-5Z"/>
</svg>
