<svg xmlns="http://www.w3.org/2000/svg" width="20" height="20" fill="currentColor" viewBox="0 0 20 20">
  <path fill-rule="evenodd" d="M6.875 10.625c1.036 0 1.875.84 1.875 1.875v3.75c0 1.035-.84 1.875-1.875 1.875h-3.75A1.875 1.875 0 0 1 1.25 16.25V12.5c0-1.036.84-1.875 1.875-1.875h3.75Zm-3.75 1.25a.625.625 0 0 0-.625.625v3.75c0 .345.28.625.625.625h3.75c.345 0 .625-.28.625-.625V12.5a.625.625 0 0 0-.625-.625h-1.25v1.25a.625.625 0 1 1-1.25 0v-1.25h-1.25Zm13.125-1.25c1.035 0 1.875.84 1.875 1.875v3.75c0 1.035-.84 1.875-1.875 1.875H12.5a1.875 1.875 0 0 1-1.875-1.875V12.5c0-1.036.84-1.875 1.875-1.875h3.75Zm-3.75 1.25a.625.625 0 0 0-.625.625v3.75c0 .345.28.625.625.625h3.75c.345 0 .625-.28.625-.625V12.5a.625.625 0 0 0-.625-.625H15v1.25a.625.625 0 1 1-1.25 0v-1.25H12.5Zm-5.625-10c1.036 0 1.875.84 1.875 1.875V7.5c0 1.036-.84 1.875-1.875 1.875h-3.75A1.875 1.875 0 0 1 1.25 7.5V3.75c0-1.036.84-1.875 1.875-1.875h3.75Zm-3.75 1.25a.625.625 0 0 0-.625.625V7.5c0 .345.28.625.625.625h3.75c.345 0 .625-.28.625-.625V3.75a.625.625 0 0 0-.625-.625h-1.25v1.25a.625.625 0 1 1-1.25 0v-1.25h-1.25Z" clip-rule="evenodd"/>
  <path d="M14.375 4.688a.937.937 0 1 1 0 1.874.937.937 0 0 1 0-1.875Z"/>
  <path fill-rule="evenodd" d="M14.375 2.5c1.409 0 2.79.694 3.734 2.025l.526.74a.625.625 0 0 1 0 .723l-.525.74c-.946 1.329-2.328 2.022-3.736 2.022-1.32 0-2.617-.61-3.552-1.781l-.182-.242-.525-.739a.625.625 0 0 1 0-.724l.525-.739c.944-1.33 2.326-2.025 3.735-2.025Zm0 1.25c-.983 0-1.993.48-2.716 1.498l-.267.378.268.377C12.381 7.02 13.39 7.5 14.373 7.5c.982 0 1.993-.48 2.716-1.497l.268-.377-.268-.377c-.722-1.018-1.732-1.499-2.715-1.499Z" clip-rule="evenodd"/>
</svg>
