<svg xmlns="http://www.w3.org/2000/svg" width="20" height="20" fill="currentColor" viewBox="0 0 20 20">
  <path fill-rule="evenodd" d="M15.214 3.699c-2.035-1.757-5.14-1.559-6.921.436a4.73 4.73 0 0 0-.86 4.963.625.625 0 0 1-.113.654L2.5 15.144V17.5h2.513l.116-1.55a.625.625 0 0 1 .566-.577l1.33-.122V13.89c0-.313.231-.578.541-.62l1.206-.163a.625.625 0 1 1 .168 1.239l-.665.09v1.386a.625.625 0 0 1-.568.622l-1.37.126-.12 1.602a.625.625 0 0 1-.624.578H1.875a.625.625 0 0 1-.625-.625v-3.22c0-.154.057-.302.159-.417L6.137 9.2A5.978 5.978 0 0 1 7.36 3.303c2.238-2.508 6.122-2.75 8.671-.55 2.044 1.764 2.617 4.524 1.607 6.87a.625.625 0 1 1-1.148-.495c.797-1.85.35-4.026-1.276-5.43Zm-1.068.675a2.488 2.488 0 0 1 .23 3.524 2.487 2.487 0 0 1-3.429.306.625.625 0 0 1-.096-.07 2.502 2.502 0 0 1-.23-3.53 2.489 2.489 0 0 1 3.525-.23Zm-.826.938a1.239 1.239 0 0 0-1.757.114l-.003.004a1.252 1.252 0 0 0 .053 1.705.627.627 0 0 1 .071.055 1.236 1.236 0 0 0 1.75-.114l.004-.004a1.238 1.238 0 0 0-.112-1.755l-.006-.005Zm-5.98 6.981a.625.625 0 0 0-.93-.836l-2.812 3.125a.625.625 0 0 0 .93.836l2.812-3.125Zm9.535 2.082c0 .345-.28.625-.625.625H12.5a.625.625 0 1 1 0-1.25h3.75c.345 0 .625.28.625.625ZM14.375 10a4.375 4.375 0 1 0 0 8.75 4.375 4.375 0 0 0 0-8.75Zm-3.125 4.375a3.125 3.125 0 1 1 6.25 0 3.125 3.125 0 0 1-6.25 0Z" clip-rule="evenodd"/>
</svg>
