<svg xmlns="http://www.w3.org/2000/svg" width="20" height="20" fill="none" viewBox="0 0 20 20">
  <path fill="#3D3C3C" fill-rule="evenodd" d="M8.293 4.135c1.78-1.995 4.886-2.193 6.921-.436 1.626 1.403 2.073 3.579 1.276 5.429a.625.625 0 1 0 1.148.494c1.01-2.345.437-5.105-1.607-6.87-2.549-2.2-6.433-1.957-8.67.55A5.978 5.978 0 0 0 6.136 9.2L1.41 14.49a.625.625 0 0 0-.159.416v3.22c0 .345.28.625.625.625h3.718a.625.625 0 0 0 .624-.578l.12-1.602 1.37-.126c.322-.03.568-.3.568-.622v-1.386l.665-.09a.625.625 0 1 0-.168-1.239l-1.206.163a.625.625 0 0 0-.541.62v1.361l-1.33.122a.625.625 0 0 0-.566.576l-.117 1.55H2.5v-2.356l4.82-5.392a.625.625 0 0 0 .113-.654 4.73 4.73 0 0 1 .86-4.963Zm6.084 3.763a2.488 2.488 0 0 0-.23-3.524 2.489 2.489 0 0 0-3.526.23 2.502 2.502 0 0 0 .23 3.53c.03.027.063.05.096.07 1.036.833 2.555.7 3.43-.306Zm-2.814-2.472a1.239 1.239 0 0 1 1.757-.114l.006.005c.516.446.57 1.237.112 1.755l-.004.004a1.236 1.236 0 0 1-1.75.114.627.627 0 0 0-.071-.055 1.252 1.252 0 0 1-.053-1.705l.003-.004ZM7.34 12.293a.625.625 0 0 0-.93-.836l-2.812 3.125a.625.625 0 0 0 .93.836l2.812-3.125Zm7.035-.418c.345 0 .625.28.625.625v1.25h1.25a.625.625 0 1 1 0 1.25H15v1.25a.625.625 0 1 1-1.25 0V15H12.5a.625.625 0 1 1 0-1.25h1.25V12.5c0-.345.28-.625.625-.625ZM10 14.375a4.375 4.375 0 1 1 8.75 0 4.375 4.375 0 0 1-8.75 0Zm4.375-3.125a3.125 3.125 0 1 0 0 6.25 3.125 3.125 0 0 0 0-6.25Z" clip-rule="evenodd"/>
</svg>
