<svg xmlns="http://www.w3.org/2000/svg" width="20" height="20" fill="none" viewBox="0 0 20 20">
  <path fill="#3D3C3C" fill-rule="evenodd" d="M8.293 4.135c1.78-1.995 4.886-2.193 6.921-.436 1.626 1.403 2.073 3.579 1.276 5.429a.625.625 0 1 0 1.148.494c1.01-2.345.437-5.105-1.607-6.87-2.549-2.2-6.433-1.957-8.67.55A5.978 5.978 0 0 0 6.136 9.2L1.41 14.49a.625.625 0 0 0-.159.416v3.22c0 .345.28.625.625.625h3.718a.625.625 0 0 0 .624-.578l.12-1.602 1.37-.126c.322-.03.568-.3.568-.622v-1.386l.665-.09a.625.625 0 1 0-.168-1.239l-1.206.163a.625.625 0 0 0-.541.62v1.361l-1.33.122a.625.625 0 0 0-.566.576l-.117 1.55H2.5v-2.356l4.82-5.392a.625.625 0 0 0 .113-.654 4.73 4.73 0 0 1 .86-4.963Zm6.084 3.763a2.488 2.488 0 0 0-.23-3.524 2.489 2.489 0 0 0-3.526.23 2.502 2.502 0 0 0 .23 3.53c.03.027.063.05.096.07 1.036.833 2.555.7 3.43-.306Zm-2.814-2.472a1.239 1.239 0 0 1 1.757-.114l.006.005c.516.446.57 1.237.112 1.755l-.004.004a1.236 1.236 0 0 1-1.75.114.627.627 0 0 0-.071-.055 1.252 1.252 0 0 1-.053-1.705l.003-.004ZM7.34 12.293a.625.625 0 0 0-.93-.836l-2.812 3.125a.625.625 0 0 0 .93.836l2.812-3.125Zm6.825-2.185a14.55 14.55 0 0 0 2.696 1.123l.007.002a.882.882 0 0 1 .632.839v3.21c0 .54-.24 1.009-.53 1.382-.293.375-.672.702-1.044.971-.743.54-1.546.916-1.824 1.04l-.011.006a.873.873 0 0 1-.682 0l-.01-.005a10.71 10.71 0 0 1-1.826-1.04c-.372-.27-.751-.597-1.043-.972-.29-.373-.53-.842-.53-1.382v-3.208a.88.88 0 0 1 .639-.84 14.46 14.46 0 0 0 2.693-1.126.859.859 0 0 1 .833 0Zm-.416 1.195c1.027.538 1.965.877 2.501 1.048v2.931c0 .16-.072.364-.267.614a3.965 3.965 0 0 1-.79.728 9.365 9.365 0 0 1-1.443.838 9.318 9.318 0 0 1-1.443-.838 3.938 3.938 0 0 1-.79-.728c-.195-.25-.267-.454-.267-.614v-2.93a15.846 15.846 0 0 0 2.5-1.05Z" clip-rule="evenodd"/>
</svg>
