<svg xmlns="http://www.w3.org/2000/svg" width="20" height="20" fill="currentColor" viewBox="0 0 20 20">
  <path fill-rule="evenodd" d="M14.146 4.374a2.488 2.488 0 0 1 .23 3.524 2.487 2.487 0 0 1-3.429.306.63.63 0 0 1-.096-.07 2.502 2.502 0 0 1-.23-3.53 2.489 2.489 0 0 1 3.525-.23Zm-.826.938a1.239 1.239 0 0 0-1.757.114l-.003.004a1.252 1.252 0 0 0 .053 1.705.645.645 0 0 1 .071.055 1.236 1.236 0 0 0 1.75-.114l.004-.004a1.238 1.238 0 0 0-.112-1.755l-.006-.005Z" clip-rule="evenodd"/>
  <path fill-rule="evenodd" d="M15.036 3.662a4.852 4.852 0 0 0-6.836.439 4.824 4.824 0 0 0-.852 5c.088.22.046.47-.11.647L2.463 15.17v2.377H4.94l.115-1.562a.625.625 0 0 1 .565-.577l1.312-.122v-1.373c0-.317.238-.584.553-.62l1.675-.195.827-.94a.625.625 0 0 1 .626-.192 4.858 4.858 0 0 0 4.863-1.482 4.827 4.827 0 0 0-.439-6.823Zm-7.775-.386c2.218-2.523 6.072-2.77 8.6-.553a6.077 6.077 0 0 1 .552 8.588v.001a6.104 6.104 0 0 1-5.733 1.951l-.742.842a.624.624 0 0 1-.397.208l-1.36.158v1.386a.625.625 0 0 1-.567.622l-1.352.126-.119 1.613a.625.625 0 0 1-.623.58H1.84a.625.625 0 0 1-.626-.625v-3.238c0-.152.056-.299.156-.413l4.684-5.321A6.07 6.07 0 0 1 7.26 3.276Z" clip-rule="evenodd"/>
  <path fill-rule="evenodd" d="M7.293 11.41a.625.625 0 0 1 .047.883l-2.813 3.125a.625.625 0 1 1-.93-.836l2.813-3.125a.625.625 0 0 1 .883-.047Z" clip-rule="evenodd"/>
</svg>
