<svg xmlns="http://www.w3.org/2000/svg" width="20" height="20" fill="currentColor" viewBox="0 0 20 20">
  <path d="M14.264 9.483a.884.884 0 0 1 .842-.002l.428.22a16.45 16.45 0 0 0 2.35.943l.206.062.007.002c.35.106.653.427.653.86v3.478c0 .571-.258 1.07-.573 1.468-.317.4-.73.75-1.136 1.04-.812.58-1.69.988-1.994 1.122l-.012.005a.903.903 0 0 1-.695 0l-.01-.005a11.77 11.77 0 0 1-1.997-1.121c-.405-.29-.819-.64-1.136-1.041-.314-.399-.572-.897-.572-1.468V11.57c0-.422.294-.76.666-.863a16.1 16.1 0 0 0 2.973-1.224Zm.423 1.189a17.45 17.45 0 0 1-2.812 1.161v3.213c0 .186.085.417.304.693.216.274.527.546.88.8.61.434 1.277.765 1.628.926.35-.162 1.019-.492 1.627-.927.355-.253.666-.526.882-.8.219-.276.304-.506.304-.692v-3.212a17.737 17.737 0 0 1-2.813-1.162ZM1.875 9.375c.345 0 .625.28.625.625v5h5a.625.625 0 1 1 0 1.25h-5c-.69 0-1.25-.56-1.25-1.25v-5c0-.345.28-.625.625-.625Zm13.904 3.339a.625.625 0 0 1 .942.822l-2.189 2.5a.626.626 0 0 1-.94 0l-.938-1.07a.626.626 0 0 1 .942-.823l.466.533 1.717-1.962ZM9.375 9.375a.625.625 0 1 1 0 1.25H6.514c-.542 0-.89.392-.889.775l.009 1.1h3.741a.625.625 0 1 1 0 1.25h-4.36a.625.625 0 0 1-.625-.62l-.015-1.718v-.002c-.007-1.17.999-2.035 2.139-2.035h2.861ZM8.75 3.75a2.5 2.5 0 1 1 0 5 2.5 2.5 0 0 1 0-5ZM7.5 1.25a.625.625 0 1 1 0 1.25h-5v5a.625.625 0 1 1-1.25 0v-5c0-.69.56-1.25 1.25-1.25h5Zm7.5 0c.69 0 1.25.56 1.25 1.25v5a.625.625 0 1 1-1.25 0v-5h-5a.625.625 0 1 1 0-1.25h5ZM8.75 5a1.25 1.25 0 1 0 0 2.5 1.25 1.25 0 0 0 0-2.5Z"/>
</svg>
