<svg xmlns="http://www.w3.org/2000/svg" width="20" height="20" fill="currentColor" viewBox="0 0 20 20">
  <path d="M6.116 1.894c.887-.113 1.909.28 2.378 1.443 1.214 3.009 3.484 9.04 4.778 12.477.214.567.572.897.964 1.012.39.113.952.053 1.653-.443a.626.626 0 0 1 .722 1.02c-.919.652-1.872.872-2.724.623-.85-.248-1.465-.923-1.785-1.773-.862-2.29-2.154-5.716-3.277-8.634L4.321 17.754a.626.626 0 0 1-1.142-.507l5-11.25.025.01c-.323-.83-.619-1.581-.87-2.202-.23-.572-.666-.722-1.06-.672a.998.998 0 0 0-.511.212c-.116.1-.138.181-.138.226a.625.625 0 0 1-1.25 0c0-.498.256-.904.576-1.177.32-.272.736-.445 1.165-.5Z"/>
</svg>
