<svg xmlns="http://www.w3.org/2000/svg" width="20" height="20" fill="currentColor" viewBox="0 0 20 20">
  <path d="M3.75 11.25h12.5V4.375H3.75v6.875Zm13.75.625c0 .345-.28.625-.625.625H3.125a.625.625 0 0 1-.625-.625V4.052c0-.488.387-.927.916-.927h13.168c.529 0 .916.439.916.927v7.823Z"/>
  <path d="M10.625 5a.625.625 0 1 1 0 1.25h-1.25a.625.625 0 1 1 0-1.25h1.25Zm6.097 6.25c.262 0 .496.163.587.408l1.368 3.707c.28.751-.286 1.453-.996 1.504l-.013.003-.063.003H2.4c-.747 0-1.368-.735-1.079-1.509l1.37-3.708.04-.088a.625.625 0 0 1 .546-.32h13.444ZM2.56 15.625h14.88L16.287 12.5H3.713l-1.154 3.125Z"/>
</svg>
