<svg xmlns="http://www.w3.org/2000/svg" width="20" height="20" fill="currentColor" viewBox="0 0 20 20">
  <path fill-rule="evenodd" d="M1.25 4.999A2.496 2.496 0 0 1 3.749 2.5H7.5a.625.625 0 1 1 0 1.25H3.75c-.692 0-1.249.557-1.249 1.249V16.25c0 .692.557 1.249 1.249 1.249H15c.692 0 1.249-.557 1.249-1.249V12.5a.625.625 0 1 1 1.25 0v3.752A2.496 2.496 0 0 1 15 18.751H3.75a2.496 2.496 0 0 1-2.499-2.499V5Z" clip-rule="evenodd"/>
  <path fill-rule="evenodd" d="M17.942 2.058a.625.625 0 0 1 0 .884l-8.125 8.125a.625.625 0 1 1-.884-.884l8.125-8.125a.625.625 0 0 1 .884 0Z" clip-rule="evenodd"/>
  <path fill-rule="evenodd" d="M10.625 1.875c0-.345.28-.625.625-.625h5.625c1.035 0 1.875.84 1.875 1.875V8.75a.625.625 0 1 1-1.25 0V3.125a.625.625 0 0 0-.625-.625H11.25a.625.625 0 0 1-.625-.625Z" clip-rule="evenodd"/>
</svg>
