<svg xmlns="http://www.w3.org/2000/svg" width="20" height="20" fill="currentColor" viewBox="0 0 20 20">
  <path fill-rule="evenodd" d="M11.25 1.25a.625.625 0 1 0 0 1.25h5.366l-7.683 7.683a.625.625 0 1 0 .884.884L17.5 3.384V8.75a.625.625 0 1 0 1.25 0V3.125c0-1.036-.84-1.875-1.875-1.875H11.25Zm-10 3.749A2.496 2.496 0 0 1 3.749 2.5H7.5a.625.625 0 1 1 0 1.25H3.75c-.692 0-1.249.557-1.249 1.249V16.25c0 .692.557 1.249 1.249 1.249H15c.692 0 1.249-.557 1.249-1.249V12.5a.625.625 0 1 1 1.25 0v3.752A2.496 2.496 0 0 1 15 18.751H3.75a2.496 2.496 0 0 1-2.499-2.499V5Z" clip-rule="evenodd"/>
</svg>
