<svg xmlns="http://www.w3.org/2000/svg" width="20" height="20" fill="currentColor" viewBox="0 0 20 20">
  <path fill-rule="evenodd" d="M16.25 10c0-.345.28-.625.625-.625h1.25a.625.625 0 1 1 0 1.25h-1.25A.625.625 0 0 1 16.25 10Zm-15 0c0-.345.28-.625.625-.625h1.25a.625.625 0 1 1 0 1.25h-1.25A.625.625 0 0 1 1.25 10ZM10 1.25c.344 0 .624.28.624.625v1.25a.625.625 0 0 1-1.25 0v-1.25c0-.345.28-.625.625-.625Zm6.349 2.69a.625.625 0 0 1-.016.885l-.899.868a.625.625 0 1 1-.868-.9l.9-.868a.625.625 0 0 1 .883.016Zm0 11.738a.625.625 0 0 0-.016-.884l-.899-.869a.625.625 0 1 0-.868.9l.9.868c.247.24.643.233.883-.015ZM3.3 3.94a.625.625 0 0 0 .016.885l.9.868a.625.625 0 0 0 .867-.9l-.899-.868a.625.625 0 0 0-.884.016Zm0 11.738a.625.625 0 0 1 .016-.884l.9-.869a.625.625 0 1 1 .867.9l-.899.868a.625.625 0 0 1-.884-.015ZM9.961 4.375C12.721 4.353 15 6.52 15 9.235c0 1.461-.667 2.763-1.7 3.648a2.095 2.095 0 0 0-.739 1.586c0 .658-.543 1.156-1.173 1.156H8.604c-.63 0-1.173-.498-1.173-1.156 0-.601-.266-1.178-.74-1.586A4.791 4.791 0 0 1 5 9.253m4.971-3.628C7.897 5.642 6.243 7.29 6.25 9.25a3.54 3.54 0 0 0 1.255 2.685l.001.001c.72.619 1.147 1.5 1.173 2.44h2.633a3.345 3.345 0 0 1 1.174-2.44c.778-.667 1.264-1.63 1.264-2.7 0-1.984-1.677-3.627-3.779-3.61m-.01-1.25Zm0 0C7.238 4.397 4.99 6.567 5 9.253l4.96-4.878Z" clip-rule="evenodd"/>
  <path fill-rule="evenodd" d="M8.125 14.375c.345 0 .625.28.625.625v1.978c0 .27.23.522.558.522h1.384a.54.54 0 0 0 .558-.522V15a.625.625 0 1 1 1.25 0v1.978c0 .998-.828 1.772-1.808 1.772H9.308c-.98 0-1.808-.774-1.808-1.772V15c0-.345.28-.625.625-.625Z" clip-rule="evenodd"/>
</svg>
