<svg xmlns="http://www.w3.org/2000/svg" width="20" height="20" fill="currentColor" viewBox="0 0 20 20">
  <path d="M10.624 1.875a.625.625 0 1 0-1.25 0v1.25a.625.625 0 1 0 1.25 0v-1.25ZM1.25 10c0-.345.28-.625.625-.625h1.25a.625.625 0 1 1 0 1.25h-1.25A.625.625 0 0 1 1.25 10Zm15 0c0-.345.28-.625.625-.625h1.25a.625.625 0 1 1 0 1.25h-1.25A.625.625 0 0 1 16.25 10Zm.099-6.06a.625.625 0 0 1-.016.885l-.899.868a.625.625 0 0 1-.868-.9l.899-.868a.625.625 0 0 1 .884.016Zm-.016 10.854a.625.625 0 1 1-.868.899l-.9-.868a.625.625 0 0 1 .87-.9l.898.869ZM3.3 3.94a.625.625 0 0 0 .016.885l.899.868a.625.625 0 0 0 .868-.9l-.899-.868a.625.625 0 0 0-.884.016Zm.016 10.854a.625.625 0 0 0 .868.899l.9-.868a.625.625 0 0 0-.869-.9l-.9.869Z"/>
  <path fill-rule="evenodd" d="M9.961 4.375C12.721 4.353 15 6.52 15 9.235c0 1.461-.667 2.763-1.7 3.648a2.095 2.095 0 0 0-.739 1.586c0 .144-.026.28-.073.406.008.04.012.082.012.125v1.978c0 .998-.828 1.772-1.808 1.772H9.308c-.98 0-1.808-.774-1.808-1.772V15a.63.63 0 0 1 .01-.11 1.15 1.15 0 0 1-.08-.421c0-.601-.265-1.178-.738-1.586A4.791 4.791 0 0 1 5 9.253l1.64-1.612a3.47 3.47 0 0 0-.39 1.608 3.541 3.541 0 0 0 1.255 2.685l.001.001c.72.619 1.147 1.5 1.173 2.44h2.633a3.345 3.345 0 0 1 1.174-2.44c.778-.667 1.264-1.63 1.264-2.7 0-1.984-1.677-3.627-3.779-3.61a3.83 3.83 0 0 0-1.695.408L9.96 4.375Zm1.289 11.25h-2.5v1.353c0 .27.23.522.558.522h1.384a.54.54 0 0 0 .558-.522v-1.353Z" clip-rule="evenodd"/>
  <path fill-rule="evenodd" d="M8.276 6.033 9.96 4.375C7.238 4.397 4.991 6.567 5 9.254L6.64 7.64a3.726 3.726 0 0 1 1.636-1.608Z" clip-rule="evenodd"/>
</svg>
