<svg xmlns="http://www.w3.org/2000/svg" width="20" height="20" fill="currentColor" viewBox="0 0 20 20">
  <path fill-rule="evenodd" d="M3.75 2.5a1.25 1.25 0 1 0 0 2.5 1.25 1.25 0 0 0 0-2.5Zm0 6.25a1.25 1.25 0 1 0 0 2.5 1.25 1.25 0 0 0 0-2.5Zm-1.25 7.5a1.25 1.25 0 1 1 2.5 0 1.25 1.25 0 0 1-2.5 0Zm5-13.125a.625.625 0 1 0 0 1.25h9.375a.625.625 0 1 0 0-1.25H7.5ZM6.875 10c0-.345.28-.625.625-.625h9.375a.625.625 0 1 1 0 1.25H7.5A.625.625 0 0 1 6.875 10Zm.625 5.625a.625.625 0 1 0 0 1.25h9.375a.625.625 0 1 0 0-1.25H7.5Z" clip-rule="evenodd"/>
</svg>
