<svg xmlns="http://www.w3.org/2000/svg" width="20" height="20" fill="currentColor" viewBox="0 0 20 20">
  <path d="M2.5 3.75a1.25 1.25 0 1 1 2.5 0 1.25 1.25 0 0 1-2.5 0Zm0 6.25A1.25 1.25 0 1 1 5 10a1.25 1.25 0 0 1-2.5 0Zm0 6.25a1.25 1.25 0 1 1 2.5 0 1.25 1.25 0 0 1-2.5 0Z"/>
  <path fill-rule="evenodd" d="M6.875 3.75c0-.345.28-.625.625-.625h9.375a.625.625 0 1 1 0 1.25H7.5a.625.625 0 0 1-.625-.625Zm0 6.25c0-.345.28-.625.625-.625h9.375a.625.625 0 1 1 0 1.25H7.5A.625.625 0 0 1 6.875 10Zm0 6.25c0-.345.28-.625.625-.625h9.375a.625.625 0 1 1 0 1.25H7.5a.625.625 0 0 1-.625-.625Z" clip-rule="evenodd"/>
</svg>
