<svg xmlns="http://www.w3.org/2000/svg" width="20" height="20" fill="currentColor" viewBox="0 0 20 20">
  <path fill-rule="evenodd" d="M10 2.458c-2.788 0-5.057 2.278-5.057 5.092 0 2.245 1.32 4.763 2.73 6.789A29.214 29.214 0 0 0 10 17.255a29.21 29.21 0 0 0 2.328-2.916c1.41-2.026 2.729-4.544 2.729-6.789 0-2.814-2.27-5.092-5.057-5.092Zm0 15.709-.444.44-.001-.002-.004-.003-.014-.014-.05-.052a26.87 26.87 0 0 1-.846-.929 30.47 30.47 0 0 1-1.995-2.554c-1.431-2.058-2.953-4.849-2.953-7.503 0-3.497 2.822-6.342 6.307-6.342 3.485 0 6.307 2.845 6.307 6.342 0 2.654-1.522 5.445-2.953 7.503a30.467 30.467 0 0 1-2.654 3.286l-.187.197-.05.052-.014.014-.004.003-.001.002-.444-.44Zm0 0 .443.44a.625.625 0 0 1-.887 0l.444-.44Z" clip-rule="evenodd"/>
  <path fill-rule="evenodd" d="M10 5a1.875 1.875 0 1 0 0 3.75A1.875 1.875 0 0 0 10 5ZM6.875 6.875a3.125 3.125 0 1 1 6.25 0 3.125 3.125 0 0 1-6.25 0Z" clip-rule="evenodd"/>
</svg>
