<svg xmlns="http://www.w3.org/2000/svg" width="20" height="20" fill="currentColor" viewBox="0 0 20 20">
  <path fill-rule="evenodd" d="M4.943 7.55c0-2.814 2.27-5.092 5.057-5.092 2.787 0 5.057 2.278 5.057 5.092 0 2.246-1.32 4.763-2.73 6.789A29.23 29.23 0 0 1 10 17.255a29.235 29.235 0 0 1-2.328-2.916c-1.41-2.026-2.729-4.543-2.729-6.789Zm4.613 11.057.444-.44.443.44a.625.625 0 0 1-.887 0Zm0 0 .444-.44.444.44.001-.002.004-.003.014-.014.05-.052.187-.197a30.471 30.471 0 0 0 2.654-3.286c1.431-2.058 2.953-4.848 2.953-7.503 0-3.497-2.822-6.342-6.307-6.342-3.485 0-6.307 2.845-6.307 6.342 0 2.655 1.522 5.445 2.953 7.503A30.474 30.474 0 0 0 9.3 18.339a17.277 17.277 0 0 0 .237.249l.014.014.004.003.001.002ZM8.125 6.875a1.875 1.875 0 1 1 3.75 0 1.875 1.875 0 0 1-3.75 0ZM10 3.75A3.125 3.125 0 1 0 10 10a3.125 3.125 0 0 0 0-6.25Z" clip-rule="evenodd"/>
</svg>
