<svg xmlns="http://www.w3.org/2000/svg" width="20" height="20" fill="currentColor" viewBox="0 0 20 20">
  <path fill-rule="evenodd" d="M5.625 10.222v7.056c2.601.296 6.149.296 8.75 0v-7.056c-2.601-.296-6.149-.296-8.75 0Zm9.003-1.23c-2.743-.323-6.514-.323-9.257 0l-.01.002a1.15 1.15 0 0 0-.986 1.146v7.22c0 .557.395 1.078.997 1.147 2.743.324 6.514.324 9.257 0l.01-.001a1.15 1.15 0 0 0 .986-1.146v-7.22c0-.557-.395-1.078-.997-1.147ZM9.997 3.125c-1.39 0-2.497 1.103-2.497 2.432v.693a.625.625 0 1 1-1.25 0v-.693c0-2.045 1.692-3.682 3.747-3.682 1.03 0 1.969.412 2.648 1.075a3.633 3.633 0 0 1 1.105 2.607v.693a.625.625 0 1 1-1.25 0v-.693c0-.666-.275-1.27-.728-1.713a2.535 2.535 0 0 0-1.775-.719Z" clip-rule="evenodd"/>
</svg>
