<svg xmlns="http://www.w3.org/2000/svg" width="20" height="20" fill="currentColor" viewBox="0 0 20 20">
  <path fill-rule="evenodd" d="M6.875 6.576c0-1.955 1.449-3.451 3.122-3.451.842 0 1.62.373 2.193.995a3.61 3.61 0 0 1 .935 2.456V7.5c0 .03.002.059.006.088a55.958 55.958 0 0 0-6.262 0 .63.63 0 0 0 .006-.088v-.924Zm-1.225 1.1a.625.625 0 0 1-.025-.176v-.924c0-2.544 1.911-4.701 4.372-4.701 1.224 0 2.326.544 3.113 1.398a4.863 4.863 0 0 1 1.265 3.303V7.5c0 .06-.009.12-.025.176.29.025.57.053.844.083a1.186 1.186 0 0 1 1.056 1.185v7.737c0 .602-.45 1.106-1.045 1.183l-.01.002c-3.077.345-7.311.346-10.389 0A1.186 1.186 0 0 1 3.75 16.68V8.944c0-.603.45-1.106 1.045-1.183l.01-.002c.273-.03.555-.058.845-.083ZM5 16.63V8.995c2.962-.327 7.038-.327 10 0v7.635c-2.962.327-7.038.327-10 0Z" clip-rule="evenodd"/>
</svg>
