<svg xmlns="http://www.w3.org/2000/svg" width="20" height="20" fill="currentColor" viewBox="0 0 20 20">
  <path d="M15.125 17.244c-3.031.341-7.219.341-10.25 0a.56.56 0 0 1-.5-.563V8.944a.57.57 0 0 1 .5-.563c3.031-.341 7.219-.341 10.25 0a.56.56 0 0 1 .5.563v7.737a.57.57 0 0 1-.5.563Z"/>
  <path d="M15 8.995c-2.962-.327-7.038-.327-10 0v7.634c2.962.327 7.038.327 10 0V8.995Zm1.25 7.686c0 .603-.45 1.106-1.045 1.183l-.01.002c-3.078.346-7.312.346-10.39 0A1.186 1.186 0 0 1 3.75 16.68V8.944c0-.603.45-1.106 1.045-1.183l.01-.002c3.078-.345 7.312-.345 10.39 0v.001a1.185 1.185 0 0 1 1.055 1.184v7.737Z"/>
  <path d="M13.125 7.5v-.924c0-.968-.361-1.834-.934-2.456-.574-.622-1.352-.995-2.194-.995-1.673 0-3.122 1.496-3.122 3.45V7.5a.625.625 0 1 1-1.25 0v-.924c0-2.544 1.912-4.701 4.372-4.701 1.224 0 2.326.544 3.113 1.398a4.863 4.863 0 0 1 1.265 3.303V7.5a.625.625 0 1 1-1.25 0Z"/>
</svg>
