<svg xmlns="http://www.w3.org/2000/svg" width="20" height="20" fill="currentColor" viewBox="0 0 20 20">
  <path fill-rule="evenodd" d="M3.75 4.375c0-1.726 1.4-3.125 3.125-3.125h6.25c1.726 0 3.125 1.4 3.125 3.125V5A.625.625 0 1 1 15 5v-.625c0-1.036-.84-1.875-1.875-1.875h-6.25C5.839 2.5 5 3.34 5 4.375v11.25c0 1.035.84 1.875 1.875 1.875h6.25c1.036 0 1.875-.84 1.875-1.875V15a.625.625 0 1 1 1.25 0v.625c0 1.726-1.4 3.125-3.125 3.125h-6.25a3.125 3.125 0 0 1-3.125-3.125V4.375ZM10 10.028c0-.345.28-.625.625-.625h5.827l-1.915-2.108a.625.625 0 0 1 .926-.84l2.84 3.127a.625.625 0 0 1 0 .841l-2.84 3.123a.625.625 0 0 1-.925-.842l1.866-2.051h-5.779a.625.625 0 0 1-.625-.625Z" clip-rule="evenodd"/>
</svg>
