<svg xmlns="http://www.w3.org/2000/svg" width="20" height="20" fill="currentColor" viewBox="0 0 20 20">
  <path d="M8.75 2.5a.625.625 0 1 1 0 1.25H3.48a.965.965 0 0 0-.98.95v7.175h15v-.625a.625.625 0 1 1 1.25 0v2.176c0 1.225-1.01 2.199-2.23 2.199h-5.895V17.5h3.125a.625.625 0 1 1 0 1.25h-7.5a.625.625 0 1 1 0-1.25h3.125v-1.875H3.479c-1.22 0-2.229-.974-2.229-2.2V4.7c0-1.226 1.01-2.2 2.23-2.2h5.27ZM2.5 13.125v.3c0 .514.427.95.98.95h13.04c.553 0 .98-.436.98-.95v-.3h-15ZM15 6.25a.625.625 0 1 1 0 1.25h-3.75a.625.625 0 1 1 0-1.25H15Zm3.125-2.5a.625.625 0 1 1 0 1.25H11.25a.625.625 0 1 1 0-1.25h6.875Zm0-2.5a.625.625 0 1 1 0 1.25H11.25a.625.625 0 1 1 0-1.25h6.875Z"/>
</svg>
