<svg xmlns="http://www.w3.org/2000/svg" width="20" height="20" fill="currentColor" viewBox="0 0 20 20">
  <path d="M5 10.625c1.036 0 1.875.84 1.875 1.875v3.125a1.875 1.875 0 0 1-3.75 0V12.5c0-1.036.84-1.875 1.875-1.875Z"/>
  <path fill-rule="evenodd" d="M10 8.125c1.036 0 1.875.84 1.875 1.875v5.625a1.875 1.875 0 0 1-3.75 0V10c0-1.036.84-1.875 1.875-1.875Zm0 1.25a.625.625 0 0 0-.625.625v5.625a.625.625 0 1 0 1.25 0V10A.625.625 0 0 0 10 9.375Zm5-5.625c1.035 0 1.875.84 1.875 1.875v10a1.875 1.875 0 0 1-3.75 0v-10c0-1.036.84-1.875 1.875-1.875ZM15 5a.625.625 0 0 0-.625.625v10a.625.625 0 1 0 1.25 0v-10A.625.625 0 0 0 15 5Z" clip-rule="evenodd"/>
</svg>
