<svg xmlns="http://www.w3.org/2000/svg" width="20" height="20" fill="currentColor" viewBox="0 0 20 20">
  <path fill-rule="evenodd" d="M1.965 4.677a.625.625 0 0 1 .858-.212l6.997 4.22a.37.37 0 0 0 .42.001l6.935-4.22a.625.625 0 0 1 .65 1.068L10.9 9.747a1.617 1.617 0 0 1-1.737 0L2.177 5.536a.625.625 0 0 1-.212-.858Z" clip-rule="evenodd"/>
  <path fill-rule="evenodd" d="M2.5 5v10h15V5h-15Zm-1.25-.035c0-.674.548-1.215 1.218-1.215h15.064c.67 0 1.218.541 1.218 1.215v10.07c0 .674-.548 1.215-1.218 1.215H2.468c-.67 0-1.218-.541-1.218-1.215V4.965Z" clip-rule="evenodd"/>
</svg>
