<svg xmlns="http://www.w3.org/2000/svg" width="20" height="20" fill="currentColor" viewBox="0 0 20 20">
  <path d="M7.5 3.125a.625.625 0 0 1 0 1.25H3.125A.625.625 0 0 0 2.5 5v11.875c0 .345.28.625.625.625h13.75c.345 0 .625-.28.625-.625V12.5a.625.625 0 0 1 1.25 0v4.375c0 1.035-.84 1.875-1.875 1.875H3.125a1.875 1.875 0 0 1-1.875-1.875V5c0-1.036.84-1.875 1.875-1.875H7.5Zm1.246 8.75c.876 0 1.886.568 1.879 1.666V15c0 .345-.28.625-.625.625H3.75A.625.625 0 0 1 3.125 15v-1.403c-.003-.561.308-1.004.677-1.283.368-.279.847-.44 1.323-.44h3.621Zm7.504 2.5a.625.625 0 0 1 0 1.25H12.5a.625.625 0 0 1 0-1.25h3.75Zm-11.125-1.25a.978.978 0 0 0-.57.186c-.147.112-.18.217-.18.28v.784h5v-.84a.315.315 0 0 0-.134-.259.805.805 0 0 0-.495-.151H5.125Zm11.125-1.25a.625.625 0 0 1 0 1.25h-3.125a.625.625 0 0 1 0-1.25h3.125ZM6.875 6.25a2.5 2.5 0 1 1 0 5 2.5 2.5 0 0 1 0-5ZM14.961.9a.625.625 0 0 1 .808-.204l1.913 1.003c.304.16.422.536.264.84l-.325.627c.154.208.286.428.398.657l.761.037c.333.016.595.29.595.623V6.58a.626.626 0 0 1-.605.625l-.662.021c-.046.11-.096.22-.155.33l-.014.022a4.551 4.551 0 0 1-.181.3l.407.704a.627.627 0 0 1-.233.857l-1.96 1.106a.627.627 0 0 1-.867-.267l-.295-.593a3.925 3.925 0 0 1-.675.022l-.313.585a.625.625 0 0 1-.84.258L11.05 9.54a.625.625 0 0 1-.261-.85l.333-.617a4.18 4.18 0 0 1-.376-.617l-.66.022a.627.627 0 0 1-.647-.605l-.065-2.188a.626.626 0 0 1 .604-.643l.662-.023a3.707 3.707 0 0 1 .343-.645l-.347-.569a.626.626 0 0 1 .202-.857L12.685.797l.055-.03a.624.624 0 0 1 .809.232l.348.566c.235-.03.476-.04.717-.026l.314-.584L14.96.9ZM6.875 7.5a1.25 1.25 0 1 0 0 2.5 1.25 1.25 0 0 0 0-2.5Zm8.642-4.995a.626.626 0 0 1-.663.319 2.68 2.68 0 0 0-1.117.039.625.625 0 0 1-.681-.28l-.242-.394-.788.491.245.398a.625.625 0 0 1-.058.732 2.745 2.745 0 0 0-.316.473 3.04 3.04 0 0 0-.22.535.626.626 0 0 1-.575.437l-.458.014.027.939.459-.016.1.005a.626.626 0 0 1 .507.403c.134.362.333.696.594.978a.625.625 0 0 1 .092.72l-.232.428.82.429.222-.412.055-.085a.625.625 0 0 1 .608-.235c.37.067.752.05 1.116-.04.284-.07.58.067.71.329l.209.42.836-.471-.295-.51a.625.625 0 0 1 .065-.719c.114-.133.217-.291.316-.472.001-.004.005-.007.006-.01a3.15 3.15 0 0 0 .213-.522l.036-.09a.627.627 0 0 1 .54-.346l.477-.017V5.08l-.556-.026a.626.626 0 0 1-.556-.407 2.928 2.928 0 0 0-.594-.977.626.626 0 0 1-.097-.712l.228-.44-.813-.426-.22.414ZM14.27 3.75a1.876 1.876 0 1 1-.002 3.751 1.876 1.876 0 0 1 .002-3.751Zm0 1.25a.626.626 0 1 0 .001 1.252A.626.626 0 0 0 14.27 5Z"/>
</svg>
