<svg xmlns="http://www.w3.org/2000/svg" width="20" height="20" fill="currentColor" viewBox="0 0 20 20">
  <path fill-rule="evenodd" d="M10 5a1.25 1.25 0 1 0-.002 2.498A1.25 1.25 0 0 0 10 5ZM7.5 6.25c0-1.384 1.12-2.5 2.5-2.5s2.5 1.116 2.5 2.5c0 1.378-1.119 2.5-2.5 2.5-1.38 0-2.5-1.116-2.5-2.5Zm-1.875 4.063c.345 0 .625.28.625.624v5.325l3.941 1.268a.625.625 0 0 1-.382 1.19l-4.375-1.407A.625.625 0 0 1 5 16.718v-5.78c0-.346.28-.626.625-.626Z" clip-rule="evenodd"/>
  <path fill-rule="evenodd" d="M5.664 10.033a.624.624 0 0 1 .346-.016l1.321.312a.625.625 0 1 1-.287 1.217l-1.147-.271L2.5 12.43v4.821l3.164-1.078a.625.625 0 1 1 .403 1.184l-3.99 1.359a.625.625 0 0 1-.827-.592v-6.141c0-.268.17-.505.424-.592l3.99-1.359Zm8.331-.016a.625.625 0 0 1 .345.016l3.987 1.36a.625.625 0 0 1 .423.59v6.142a.625.625 0 0 1-.827.592l-3.986-1.36a.625.625 0 1 1 .403-1.182l3.16 1.077v-4.82l-3.393-1.157-1.151.27a.625.625 0 1 1-.287-1.216l1.326-.312Z" clip-rule="evenodd"/>
  <path fill-rule="evenodd" d="M14.375 10.313c.345 0 .625.28.625.624v5.78a.625.625 0 0 1-.434.596l-4.375 1.407a.625.625 0 0 1-.816-.595v-3.75a.625.625 0 1 1 1.25 0v2.892l3.125-1.005v-5.325c0-.345.28-.624.625-.624Z" clip-rule="evenodd"/>
  <path fill-rule="evenodd" d="M10 2.5a3.747 3.747 0 0 0-3.75 3.742c-.001.718.234 1.556.627 2.438.39.875.916 1.753 1.45 2.541A27.144 27.144 0 0 0 10 13.423a27.11 27.11 0 0 0 1.67-2.2c.535-.787 1.06-1.665 1.45-2.54.394-.883.63-1.722.63-2.441A3.747 3.747 0 0 0 10 2.5Zm0 11.875.46.423a.625.625 0 0 1-.92 0l.46-.423ZM5 6.241a4.997 4.997 0 0 1 5-4.991c2.757 0 5 2.233 5 4.992 0 .968-.31 1.99-.738 2.949-.43.966-.998 1.91-1.557 2.734a28.317 28.317 0 0 1-2.23 2.857l-.01.011-.004.004-.461-.422-.46.423-.004-.005-.011-.011a9.804 9.804 0 0 1-.183-.207 28.371 28.371 0 0 1-2.048-2.652c-.56-.824-1.129-1.769-1.559-2.734C5.31 8.23 5 7.209 5 6.24Z" clip-rule="evenodd"/>
</svg>
