<svg xmlns="http://www.w3.org/2000/svg" width="20" height="20" fill="currentColor" viewBox="0 0 20 20">
  <path fill-rule="evenodd" d="M1.388 7.108a.625.625 0 0 1 .487-.233h16.25a.625.625 0 0 1 .615.738l-1.475 8.03c-.203 1.105-1.217 1.857-2.333 1.857H5.235c-1.025 0-1.968-.674-2.187-1.686l-1.784-8.18a.625.625 0 0 1 .124-.526Zm1.263 1.017 1.618 7.423c.081.374.463.702.966.702h9.697c.582 0 1.022-.386 1.104-.832l1.339-7.293H2.65Z" clip-rule="evenodd"/>
  <path fill-rule="evenodd" d="M6.084 9.397a.625.625 0 0 1 .769.437l1.033 3.75a.625.625 0 0 1-1.206.332l-1.033-3.75a.625.625 0 0 1 .437-.769Zm8.271 0a.625.625 0 0 1 .437.769l-1.033 3.75a.625.625 0 0 1-1.205-.332l1.033-3.75a.625.625 0 0 1 .768-.437Zm-4.042-.022c.345 0 .624.28.624.625v3.75a.625.625 0 1 1-1.25 0V10c0-.345.28-.625.626-.625ZM12.65 1.32a.625.625 0 0 1 .842.267l1.625 3.125a.625.625 0 1 1-1.109.576l-1.625-3.125a.625.625 0 0 1 .266-.842Zm-5.112 0c.307.16.426.537.267.843L6.18 5.288a.625.625 0 1 1-1.11-.576l1.625-3.125a.625.625 0 0 1 .843-.266Z" clip-rule="evenodd"/>
</svg>
