<svg xmlns="http://www.w3.org/2000/svg" width="20" height="20" fill="currentColor" viewBox="0 0 20 20">
  <path fill-rule="evenodd" d="m2.504 6.16.542-2.825c.094-.482.52-.835 1.017-.835h11.88c.497 0 .923.352 1.017.835l.538 2.805c-.03.342-.386.735-.998.735a1.17 1.17 0 0 1-.634-.18 1.808 1.808 0 0 0-1.982 0c-.17.11-.389.18-.634.18s-.463-.07-.634-.18a1.808 1.808 0 0 0-1.982 0c-.17.11-.389.18-.634.18s-.463-.07-.634-.18a1.808 1.808 0 0 0-1.982 0c-.17.11-.389.18-.634.18s-.463-.07-.634-.18a1.808 1.808 0 0 0-1.982 0c-.17.11-.389.18-.634.18-.6 0-.954-.378-.996-.715ZM1.82 3.097l-.536 2.795a.624.624 0 0 0-.033.2 1.9 1.9 0 0 0 .625 1.41v8.84c0 1.293.996 2.408 2.303 2.408h11.643c1.307 0 2.303-1.115 2.303-2.408v-8.84a1.9 1.9 0 0 0 .625-1.41.62.62 0 0 0-.011-.117l-.552-2.876v-.002a2.285 2.285 0 0 0-2.244-1.847H4.063a2.285 2.285 0 0 0-2.244 1.847Zm15.056 5a2.451 2.451 0 0 1-1.69-.354l-.003-.002a.558.558 0 0 0-.614 0l-.003.002c-.375.243-.83.382-1.315.382s-.94-.14-1.315-.382l-.003-.002a.558.558 0 0 0-.614 0l-.003.002c-.375.243-.83.382-1.315.382s-.94-.14-1.315-.382l-.003-.002a.558.558 0 0 0-.614 0l-.003.002c-.375.243-.83.382-1.315.382s-.94-.14-1.315-.382l-.003-.002a.558.558 0 0 0-.614 0l-.003.002a2.416 2.416 0 0 1-1.69.353v8.246c0 .675.507 1.158 1.053 1.158H6.25v-5.697c0-.974.774-1.803 1.766-1.803h3.969c.991 0 1.765.83 1.765 1.803V17.5h2.072c.546 0 1.053-.483 1.053-1.158V8.096ZM12.5 11.802V17.5h-5v-5.697c0-.322.252-.553.516-.553h3.969c.263 0 .515.231.515.553Z" clip-rule="evenodd"/>
</svg>
