<svg xmlns="http://www.w3.org/2000/svg" width="20" height="20" fill="currentColor" viewBox="0 0 20 20">
  <path fill-rule="evenodd" d="M14.573 1.907c.327.11.504.463.395.79l-.625 1.876a.625.625 0 1 1-1.186-.395l.625-1.875a.625.625 0 0 1 .79-.396Zm-3.972.594a.625.625 0 0 1 .593.366L13.3 7.498c.02.029.038.06.054.092l2.211 4.641a.625.625 0 0 1-.776.857c-.697-.252-1.68-.386-2.752-.367-1.068.018-2.179.186-3.126.505H8.91l1.538 2.623c.356.573.163 1.36-.451 1.674l-.004.002-.96.483-.003.001a1.09 1.09 0 0 1-1.284-.229l-2.27-2.352-.136-.14-.01-.01-.006-.006-.422-.424a2.056 2.056 0 0 1-2.635-1.03l-.001-.002-.823-1.753a2.05 2.05 0 0 1 .955-2.705H2.4c1.048-.514 2.72-1.354 3.768-1.992.848-.515 1.689-1.267 2.388-2.085.702-.822 1.23-1.673 1.483-2.37a.625.625 0 0 1 .563-.41ZM6.134 14.314c.51-.216 1.06-.443 1.584-.648l1.631 2.783-.775.39-2.2-2.28-.137-.14-.008-.008a.508.508 0 0 0-.013-.014l-.082-.083Zm2.448-2.297c1.072-.35 2.285-.527 3.432-.546.64-.011 1.272.026 1.858.115l-1.6-3.358a.627.627 0 0 1-.065-.111l-1.605-3.532c-.306.508-.68 1.02-1.097 1.508C8.74 6.99 7.8 7.836 6.817 8.434l-.02.013a.638.638 0 0 1 .012.024l1.773 3.546ZM5.71 9.067a77 77 0 0 1-2.76 1.412l-.276-.56.276.56a.8.8 0 0 0-.374 1.057v-.002l-.566.266.567-.264.82 1.747-.565.267.565-.265v-.001c.19.4.657.573 1.055.397a73.38 73.38 0 0 1 2.95-1.233l.01.019.173.346M5.709 9.066 7.4 12.448 5.71 9.066ZM18.02 5.278a.625.625 0 0 1-.173.867l-1.875 1.25a.625.625 0 1 1-.694-1.04l1.875-1.25a.625.625 0 0 1 .867.173Zm-2.363 3.9a.625.625 0 0 1 .79-.396l1.876.625a.625.625 0 1 1-.396 1.186l-1.875-.625a.625.625 0 0 1-.395-.79Z" clip-rule="evenodd"/>
</svg>
