<svg xmlns="http://www.w3.org/2000/svg" width="20" height="20" fill="currentColor" viewBox="0 0 20 20">
  <path d="M16.875 11.875c.345 0 .625.28.625.625v3.125c0 1.035-.84 1.875-1.875 1.875H4.375A1.875 1.875 0 0 1 2.5 15.625V12.5a.625.625 0 1 1 1.25 0v3.125c0 .345.28.625.625.625h11.25c.345 0 .625-.28.625-.625V12.5c0-.345.28-.625.625-.625Zm-2.5 0a.625.625 0 1 1 0 1.25h-8.75a.625.625 0 1 1 0-1.25h8.75Zm0-3.125a.625.625 0 1 1 0 1.25h-8.75a.625.625 0 1 1 0-1.25h8.75Zm0-3.125a.625.625 0 1 1 0 1.25h-8.75a.625.625 0 1 1 0-1.25h8.75Zm0-3.125a.625.625 0 1 1 0 1.25h-8.75a.625.625 0 1 1 0-1.25h8.75Z"/>
</svg>
