<svg xmlns="http://www.w3.org/2000/svg" width="20" height="20" fill="currentColor" viewBox="0 0 20 20">
  <path d="M14.456 1.25a2.427 2.427 0 0 1 2.419 2.435v7.631a2.427 2.427 0 0 1-2.419 2.434h-3.831v.733c.532.189.953.61 1.142 1.142h3.858a.625.625 0 1 1 0 1.25h-3.858a1.874 1.874 0 0 1-3.534 0H4.375a.625.625 0 1 1 0-1.25h3.858c.189-.532.61-.953 1.142-1.142v-.733h-3.83a2.427 2.427 0 0 1-2.42-2.434V3.685a2.428 2.428 0 0 1 2.42-2.435h8.911ZM10 15.625a.625.625 0 1 0 0 1.25.625.625 0 0 0 0-1.25Zm-5.625-4.309c0 .659.529 1.184 1.17 1.184h8.911c.64 0 1.169-.525 1.169-1.184V8.125H4.375v3.191ZM5.625 10a.625.625 0 1 1 0 1.25.625.625 0 0 1 0-1.25Zm-.08-7.5c-.641 0-1.17.526-1.17 1.185v3.19h11.25v-3.19c0-.659-.528-1.185-1.169-1.185H5.545Zm.08 1.875a.625.625 0 1 1 0 1.25.625.625 0 0 1 0-1.25Z"/>
</svg>
