<svg xmlns="http://www.w3.org/2000/svg" width="20" height="20" fill="none" viewBox="0 0 20 20">
  <path fill="#3D3C3C" fill-rule="evenodd" d="M4.375 2.5a.625.625 0 1 0 0 1.25h11.25a.625.625 0 1 0 0-1.25H4.375ZM2.5 5c0-.345.28-.625.625-.625h13.75a.625.625 0 1 1 0 1.25H3.125A.625.625 0 0 1 2.5 5ZM1.25 6.875c0-.345.28-.625.625-.625h16.25c.345 0 .625.28.625.625v10c0 .345-.28.625-.625.625H1.875a.625.625 0 0 1-.625-.625v-10ZM2.5 7.5v8.75h15V7.5h-15Zm3.75 3.75a.625.625 0 1 0 0 1.25h.625a.625.625 0 1 0 0-1.25H6.25Zm6.25.625c0-.345.28-.625.625-.625h.625a.625.625 0 1 1 0 1.25h-.625a.625.625 0 0 1-.625-.625Zm-7.186-3.75a.625.625 0 0 0-.625.625c0 .286-.075.42-.121.472-.04.047-.097.078-.193.078a.625.625 0 0 0-.625.625v3.906c0 .345.28.625.625.625.038 0 .104.018.177.108A.699.699 0 0 1 4.69 15c0 .345.28.625.625.625h9.372c.345 0 .625-.28.625-.625a.7.7 0 0 1 .137-.434c.075-.093.141-.11.177-.11.345 0 .625-.28.625-.625V9.925a.625.625 0 0 0-.625-.625c-.093 0-.15-.03-.192-.079-.047-.055-.122-.19-.122-.471a.625.625 0 0 0-.625-.625H5.314Zm.196 1.918c.166-.19.28-.417.35-.668h8.28c.07.25.185.476.349.665.146.17.321.295.511.38v2.929c-.409.2-.697.591-.838 1.026H5.839c-.141-.437-.43-.827-.839-1.027v-2.927c.19-.084.363-.209.51-.378ZM10 11.25a.625.625 0 1 0 0 1.25.625.625 0 0 0 0-1.25Zm-1.875.625a1.875 1.875 0 1 1 3.75 0 1.875 1.875 0 0 1-3.75 0Z" clip-rule="evenodd"/>
</svg>
