<svg xmlns="http://www.w3.org/2000/svg" width="20" height="20" fill="none" viewBox="0 0 20 20">
  <path fill="#3D3C3C" fill-rule="evenodd" d="M3.48 3.75a.965.965 0 0 0-.98.95v7.175h15V4.7a.965.965 0 0 0-.98-.95H3.48Zm-2.23.95v8.725c0 1.226 1.01 2.2 2.23 2.2h5.895V17.5H6.25a.625.625 0 1 0 0 1.25h7.5a.625.625 0 1 0 0-1.25h-3.125v-1.875h5.895c1.22 0 2.23-.974 2.23-2.2V4.7c0-1.226-1.01-2.2-2.23-2.2H3.48c-1.22 0-2.23.974-2.23 2.2Zm16.25 8.425h-15v.3c0 .514.427.95.98.95h13.04c.553 0 .98-.436.98-.95v-.3Zm-6.916-7.723a.625.625 0 0 0-1.152-.037l-1.834 4.01H5a.625.625 0 1 0 0 1.25h3a.625.625 0 0 0 .568-.365l1.38-3.017 1.135 2.98a.625.625 0 0 0 .584.402H15a.625.625 0 1 0 0-1.25h-2.903l-1.513-3.973Z" clip-rule="evenodd"/>
</svg>
