<svg xmlns="http://www.w3.org/2000/svg" width="20" height="20" fill="currentColor" viewBox="0 0 20 20">
  <path d="M8.75 2.5a1.25 1.25 0 1 1 2.5 0 1.25 1.25 0 0 1-2.5 0Z"/>
  <path fill-rule="evenodd" d="M10 13.75a3.75 3.75 0 1 0 0-7.5 3.75 3.75 0 0 0 0 7.5ZM10 15a5 5 0 1 0 0-10 5 5 0 0 0 0 10Z" clip-rule="evenodd"/>
  <path d="M3.75 4.375a1.25 1.25 0 1 1 2.5 0 1.25 1.25 0 0 1-2.5 0Zm10 0a1.25 1.25 0 1 1 2.5 0 1.25 1.25 0 0 1-2.5 0Zm0 11.25a1.25 1.25 0 1 1 2.5 0 1.25 1.25 0 0 1-2.5 0Zm-10 0a1.25 1.25 0 1 1 2.5 0 1.25 1.25 0 0 1-2.5 0Zm5 1.875a1.25 1.25 0 1 1 2.5 0 1.25 1.25 0 0 1-2.5 0Zm0-7.5a1.25 1.25 0 1 1 2.5 0 1.25 1.25 0 0 1-2.5 0Zm-7.5 0a1.25 1.25 0 1 1 2.5 0 1.25 1.25 0 0 1-2.5 0Zm15 0a1.25 1.25 0 1 1 2.5 0 1.25 1.25 0 0 1-2.5 0Z"/>
</svg>
