<svg xmlns="http://www.w3.org/2000/svg" width="20" height="20" fill="currentColor" viewBox="0 0 20 20">
  <path fill-rule="evenodd" d="M10 1.25a1.25 1.25 0 0 0-1.246 1.353 7.506 7.506 0 0 0-6.151 6.151 1.25 1.25 0 1 0 0 2.492 7.506 7.506 0 0 0 6.151 6.151 1.25 1.25 0 1 0 2.492 0 7.506 7.506 0 0 0 6.151-6.151 1.25 1.25 0 1 0 0-2.492 7.506 7.506 0 0 0-6.151-6.151A1.25 1.25 0 0 0 10 1.25ZM16.25 10a6.25 6.25 0 1 0-12.5 0 6.25 6.25 0 0 0 12.5 0Zm-2.5 0a3.75 3.75 0 1 1-7.5 0 3.75 3.75 0 0 1 7.5 0ZM15 10a5 5 0 1 1-10 0 5 5 0 0 1 10 0Z" clip-rule="evenodd"/>
</svg>
