<svg xmlns="http://www.w3.org/2000/svg" width="20" height="20" fill="currentColor" viewBox="0 0 20 20">
  <path fill-rule="evenodd" d="M10 1.25a1.25 1.25 0 1 0 0 2.5 1.25 1.25 0 0 0 0-2.5ZM13.75 10a3.75 3.75 0 1 1-7.5 0 3.75 3.75 0 0 1 7.5 0ZM15 10a5 5 0 1 1-10 0 5 5 0 0 1 10 0ZM3.75 4.375a1.25 1.25 0 1 1 2.5 0 1.25 1.25 0 0 1-2.5 0ZM15 3.125a1.25 1.25 0 1 0 0 2.5 1.25 1.25 0 0 0 0-2.5Zm-1.25 12.5a1.25 1.25 0 1 1 2.5 0 1.25 1.25 0 0 1-2.5 0ZM5 14.375a1.25 1.25 0 1 0 0 2.5 1.25 1.25 0 0 0 0-2.5ZM8.75 17.5a1.25 1.25 0 1 1 2.5 0 1.25 1.25 0 0 1-2.5 0ZM10 8.75a1.25 1.25 0 1 0 0 2.5 1.25 1.25 0 0 0 0-2.5ZM1.25 10a1.25 1.25 0 1 1 2.5 0 1.25 1.25 0 0 1-2.5 0ZM17.5 8.75a1.25 1.25 0 1 0 0 2.5 1.25 1.25 0 0 0 0-2.5Z" clip-rule="evenodd"/>
</svg>
