<svg xmlns="http://www.w3.org/2000/svg" width="20" height="20" fill="currentColor" viewBox="0 0 20 20">
  <path fill-rule="evenodd" d="M10 3.75c-3.01 0-5.732 1.134-7.7 2.958a.625.625 0 1 1-.85-.916C3.65 3.754 6.673 2.5 10 2.5c3.327 0 6.351 1.254 8.55 3.292a.625.625 0 0 1-.85.916C15.732 4.884 13.01 3.75 10 3.75Z" clip-rule="evenodd"/>
  <path fill-rule="evenodd" d="M10 7.5c-2.009 0-3.836.873-5.168 2.301a.625.625 0 1 1-.914-.852C5.466 7.289 7.616 6.25 10 6.25s4.534 1.038 6.082 2.699a.625.625 0 0 1-.914.852C13.836 8.373 12.008 7.5 10 7.5Z" clip-rule="evenodd"/>
  <path fill-rule="evenodd" d="M10 11.25a3.86 3.86 0 0 0-2.69 1.075.625.625 0 0 1-.87-.9A5.109 5.109 0 0 1 10 10c1.386 0 2.646.543 3.56 1.425a.625.625 0 1 1-.87.9A3.86 3.86 0 0 0 10 11.25Z" clip-rule="evenodd"/>
  <path fill-rule="evenodd" d="M10 13.75a.618.618 0 0 0-.44.185l-.005.005a.6.6 0 0 0-.18.435.626.626 0 0 0 1.25 0 .618.618 0 0 0-.185-.44l-.005-.005a.61.61 0 0 0-.435-.18Zm-1.321-.701a1.868 1.868 0 0 1 2.647.005c.338.339.549.805.549 1.321a1.876 1.876 0 0 1-3.75 0c0-.518.21-.989.554-1.326Z" clip-rule="evenodd"/>
</svg>
