<svg xmlns="http://www.w3.org/2000/svg" width="20" height="20" fill="currentColor" viewBox="0 0 20 20">
  <path fill-rule="evenodd" d="M3.438 1.25A2.188 2.188 0 0 1 5.16 4.783l1.397 2.329a3.425 3.425 0 0 1 3.612.7l2.473-1.978a2.5 2.5 0 1 1 .703 1.04L10.91 8.82a3.424 3.424 0 0 1 .154 2.602l3.15 2.291a2.813 2.813 0 1 1-.795.967l-2.973-2.162a3.43 3.43 0 0 1-4.07.917l-1.2 1.8a2.188 2.188 0 1 1-1.01-.737l1.188-1.784a3.425 3.425 0 0 1-.98-2.402c0-1.007.432-1.912 1.121-2.54L4.14 5.508a2.188 2.188 0 1 1-.701-4.259Zm0 14.375a.937.937 0 1 0 0 1.875.937.937 0 0 0 0-1.875Zm12.5-1.25a1.563 1.563 0 1 0 0 3.125 1.563 1.563 0 0 0 0-3.125Zm-8.126-6.25a2.188 2.188 0 1 0 0 4.375 2.188 2.188 0 0 0 0-4.375ZM15 3.75a1.25 1.25 0 1 0 0 2.5 1.25 1.25 0 0 0 0-2.5ZM3.437 2.5a.937.937 0 1 0 0 1.875.937.937 0 0 0 0-1.875Z" clip-rule="evenodd"/>
</svg>
