<svg xmlns="http://www.w3.org/2000/svg" width="20" height="20" fill="currentColor" viewBox="0 0 20 20">
  <path fill-rule="evenodd" d="M2.5 5.625c0-.677.56-1.25 1.18-1.25h12.64c.659 0 1.18.527 1.18 1.16v8.93c0 .637-.52 1.16-1.18 1.16h-3.195a.625.625 0 1 0 0 1.25h3.195a2.417 2.417 0 0 0 2.43-2.41v-8.93a2.42 2.42 0 0 0-2.43-2.41H3.68c-1.376 0-2.43 1.199-2.43 2.5a.625.625 0 0 0 1.25 0ZM1.253 8.063a.625.625 0 0 1 .684-.56c4.91.49 8.822 4.402 9.31 9.31a.625.625 0 0 1-1.244.124c-.43-4.315-3.872-7.76-8.19-8.19a.625.625 0 0 1-.56-.684Zm.725 3.196a.625.625 0 1 0-.206 1.232 5.483 5.483 0 0 1 4.487 4.488.625.625 0 1 0 1.232-.208 6.733 6.733 0 0 0-5.513-5.512Zm.223 3.833a.625.625 0 1 0-.652 1.066c.433.265.787.618 1.04 1.039a.625.625 0 0 0 1.072-.644 4.325 4.325 0 0 0-1.46-1.461Z" clip-rule="evenodd"/>
</svg>
