<svg xmlns="http://www.w3.org/2000/svg" width="20" height="20" fill="currentColor" viewBox="0 0 20 20">
  <path fill-rule="evenodd" d="M1.342 15.299a.625.625 0 0 1 .86-.207 4.32 4.32 0 0 1 1.459 1.461.625.625 0 1 1-1.072.644 3.075 3.075 0 0 0-1.04-1.039.625.625 0 0 1-.207-.86Zm-.083-3.527a.625.625 0 0 1 .72-.513A6.733 6.733 0 0 1 7.49 16.77a.625.625 0 0 1-1.232.208 5.483 5.483 0 0 0-4.487-4.488.625.625 0 0 1-.513-.72Z" clip-rule="evenodd"/>
  <path fill-rule="evenodd" d="M1.253 8.063a.625.625 0 0 1 .684-.56c4.91.49 8.822 4.402 9.31 9.31a.625.625 0 1 1-1.244.124c-.43-4.315-3.872-7.76-8.19-8.19a.625.625 0 0 1-.56-.684Z" clip-rule="evenodd"/>
  <path fill-rule="evenodd" d="M3.68 4.375c-.62 0-1.18.573-1.18 1.25a.625.625 0 1 1-1.25 0c0-1.301 1.054-2.5 2.43-2.5h12.64a2.42 2.42 0 0 1 2.43 2.41v8.93a2.417 2.417 0 0 1-2.43 2.41h-3.195a.625.625 0 1 1 0-1.25h3.195c.66 0 1.18-.523 1.18-1.16v-8.93a1.17 1.17 0 0 0-1.18-1.16H3.68Z" clip-rule="evenodd"/>
</svg>
