<svg xmlns="http://www.w3.org/2000/svg" width="20" height="20" fill="currentColor" viewBox="0 0 20 20">
  <path fill-rule="evenodd" d="M2.3 6.708C4.268 4.884 6.99 3.75 10 3.75s5.732 1.134 7.7 2.958a.625.625 0 1 0 .85-.916C16.35 3.754 13.327 2.5 10 2.5c-3.327 0-6.351 1.254-8.55 3.292a.625.625 0 1 0 .85.916Zm2.532 3.093C6.164 8.373 7.992 7.5 10 7.5c2.009 0 3.836.873 5.168 2.301a.625.625 0 0 0 .914-.852C14.534 7.289 12.384 6.25 10 6.25S5.466 7.288 3.918 8.949a.625.625 0 1 0 .914.852ZM10 11.25a3.86 3.86 0 0 0-2.69 1.075.625.625 0 0 1-.87-.9A5.109 5.109 0 0 1 10 10c1.386 0 2.646.543 3.56 1.425a.625.625 0 1 1-.87.9A3.86 3.86 0 0 0 10 11.25Zm-.44 2.685a.618.618 0 0 1 .875-.005l.005.005a.618.618 0 0 1 .185.44.626.626 0 0 1-1.25 0 .6.6 0 0 1 .18-.435l.005-.005ZM10 12.5c-.516 0-.982.211-1.321.549a1.85 1.85 0 0 0-.554 1.326 1.876 1.876 0 0 0 3.75 0c0-.516-.211-.982-.549-1.321A1.86 1.86 0 0 0 10 12.5Z" clip-rule="evenodd"/>
</svg>
