<svg xmlns="http://www.w3.org/2000/svg" width="20" height="20" fill="currentColor" viewBox="0 0 20 20">
  <path fill-rule="evenodd" d="M6.461 2.709c-.148.14-.211.297-.211.416v12.922c0 .523-.142 1.026-.393 1.453h11.099a.554.554 0 0 0 .544-.564V3.064a.554.554 0 0 0-.544-.564H6.924a.711.711 0 0 0-.463.209ZM5 3.125V8.75H1.875a.625.625 0 0 0-.625.625v6.672c0 1.435 1.064 2.703 2.5 2.703h13.206c1.006 0 1.794-.827 1.794-1.814V3.064c0-.997-.798-1.814-1.794-1.814H6.924c-.51 0-.983.23-1.322.551-.34.321-.602.79-.602 1.324Zm0 12.922c0 .863-.617 1.453-1.25 1.453-.63 0-1.25-.586-1.25-1.453V10H5v6.047Zm2.5-4.172c0-.345.28-.625.625-.625h7.5a.625.625 0 1 1 0 1.25h-7.5a.625.625 0 0 1-.625-.625Zm.625 2.5a.625.625 0 1 0 0 1.25h7.5a.625.625 0 1 0 0-1.25h-7.5ZM8.75 3.75c-.69 0-1.25.56-1.25 1.25v3.125c0 .69.56 1.25 1.25 1.25H15c.69 0 1.25-.56 1.25-1.25V5c0-.69-.56-1.25-1.25-1.25H8.75Zm0 1.25H15v3.125H8.75V5Z" clip-rule="evenodd"/>
</svg>
