<svg xmlns="http://www.w3.org/2000/svg" width="20" height="20" fill="currentColor" viewBox="0 0 20 20">
  <path d="M16.433 2.684a.626.626 0 0 1 .884.883l-13.75 13.75a.625.625 0 0 1-.884-.883l.617-.619a3.854 3.854 0 0 1-2.05-3.42c0-1.477.914-2.865 2.335-3.437.332-.133.672-.2 1.036-.2C4.837 5.96 7.157 3.75 10 3.75c1.492 0 2.814.61 3.78 1.586l2.653-2.652ZM15 7.5c2.051 0 3.75 1.978 3.75 4.088 0 2.512-1.614 4.645-4.158 4.645H7.5a.625.625 0 1 1 0-1.25h7.092c1.68 0 2.908-1.386 2.908-3.395 0-1.543-1.256-2.838-2.5-2.838a.625.625 0 1 1 0-1.25ZM10 5C7.796 5 5.988 6.737 5.86 8.938l.016.003a.624.624 0 0 1-.228 1.23l-.45-.084a.624.624 0 0 1-.033-.007c-.489-.118-.816-.082-1.113.037A2.484 2.484 0 0 0 2.5 12.395c0 1.082.647 2.016 1.56 2.4.06.025.113.06.16.1l8.675-8.675A4.034 4.034 0 0 0 10 5Z"/>
</svg>
