<svg xmlns="http://www.w3.org/2000/svg" width="20" height="20" fill="currentColor" viewBox="0 0 20 20">
  <path d="M12.5 1.25c1.726 0 3.125 1.4 3.125 3.125v4.723a.625.625 0 0 1-1.25 0v-.973H3.125v3.75H7.5a.625.625 0 1 1 0 1.25H3.125v2.5c0 1.035.84 1.875 1.875 1.875h2.5a.625.625 0 1 1 0 1.25H5a3.125 3.125 0 0 1-3.125-3.125V4.375c0-1.726 1.4-3.125 3.125-3.125h7.5Zm.625 8.75a4.375 4.375 0 1 1 0 8.75 4.375 4.375 0 0 1 0-8.75Zm-2.245 2.203a3.125 3.125 0 0 0 2.245 5.297c.566 0 1.094-.153 1.552-.416l-3.797-4.88Zm2.245-.953c-.43 0-.84.086-1.214.243l3.704 4.763a3.107 3.107 0 0 0 .635-1.881c0-1.726-1.4-3.125-3.125-3.125Zm-7.5 3.125a.625.625 0 1 1 0 1.25.625.625 0 0 1 0-1.25Zm0-5a.625.625 0 1 1 0 1.25.625.625 0 0 1 0-1.25ZM5 2.5c-1.036 0-1.875.84-1.875 1.875v2.5h11.25v-2.5c0-1.036-.84-1.875-1.875-1.875H5Zm.625 1.875a.625.625 0 1 1 0 1.25.625.625 0 0 1 0-1.25Z"/>
</svg>
