<svg xmlns="http://www.w3.org/2000/svg" width="20" height="20" fill="currentColor" viewBox="0 0 20 20">
  <path fill-rule="evenodd" d="M2.683 16.433a.625.625 0 0 0 .884.884l13.75-13.75a.625.625 0 1 0-.884-.884l-2.509 2.509C10.09 3.435 5.354 4.544 2.52 8.201L1.38 9.665a.625.625 0 0 0 0 .767l1.138 1.465a9.801 9.801 0 0 0 2.45 2.25l-2.286 2.286Zm3.194-3.194 1.516-1.516a3.125 3.125 0 0 1 4.33-4.33l1.247-1.247c-3.21-1.24-7.08-.252-9.464 2.821l-.84 1.082.84 1.081a8.515 8.515 0 0 0 2.371 2.11Zm4.932-4.931a1.875 1.875 0 0 0-2.5 2.5l2.5-2.5Zm4.406-1.5a.625.625 0 0 1 .881-.066 9.92 9.92 0 0 1 1.385 1.459l1.138 1.464a.625.625 0 0 1 0 .767l-1.138 1.465c-2.24 2.88-5.619 4.097-8.821 3.631a.625.625 0 1 1 .18-1.237c2.765.403 5.696-.643 7.654-3.161l.84-1.081-.84-1.082a8.745 8.745 0 0 0-1.212-1.277.625.625 0 0 1-.067-.882ZM12.5 9.375c.345 0 .625.28.625.625 0 1.726-1.4 3.125-3.125 3.125a.625.625 0 1 1 0-1.25c1.036 0 1.875-.84 1.875-1.875 0-.345.28-.625.625-.625Z" clip-rule="evenodd"/>
</svg>
