<svg xmlns="http://www.w3.org/2000/svg" width="20" height="20" fill="currentColor" viewBox="0 0 20 20">
  <path d="M16.433 2.684a.625.625 0 1 1 .884.883l-13.75 13.75a.626.626 0 0 1-.884-.883l3.642-3.643a.623.623 0 0 1 .116-.74 5.057 5.057 0 0 1 1.707-1.083l2.78-2.78A6.866 6.866 0 0 0 10 8.125c-2.008 0-3.836.873-5.168 2.3a.626.626 0 0 1-.914-.85c1.548-1.661 3.699-2.7 6.082-2.7.685 0 1.352.087 1.992.249l2.034-2.034A11.602 11.602 0 0 0 10 4.375c-3.01 0-5.732 1.135-7.7 2.959a.626.626 0 0 1-.85-.917C3.65 4.379 6.675 3.125 10 3.125c1.776 0 3.466.358 4.99 1.001l1.443-1.442ZM10 13.125c.51 0 .985.208 1.323.552.34.339.552.806.552 1.323a1.876 1.876 0 0 1-3.75 0c0-.517.21-.986.552-1.323A1.868 1.868 0 0 1 10 13.125Zm0 1.25a.62.62 0 0 0-.44.185l-.005.005a.6.6 0 0 0-.18.435.626.626 0 0 0 1.25 0 .618.618 0 0 0-.185-.44l-.005-.004a.61.61 0 0 0-.435-.181Zm1.421-3.553a5.07 5.07 0 0 1 2.138 1.229.625.625 0 1 1-.868.898 3.825 3.825 0 0 0-1.612-.925.626.626 0 0 1 .342-1.202Zm2.444-2.277a.626.626 0 0 1 .872-.149c.486.345.937.74 1.345 1.178a.625.625 0 0 1-.914.852 7.518 7.518 0 0 0-1.154-1.01.625.625 0 0 1-.15-.871Zm2.737-2.878a.625.625 0 0 1 .873-.136c.376.276.736.572 1.075.886a.625.625 0 0 1-.85.917 10.758 10.758 0 0 0-.962-.793.626.626 0 0 1-.136-.874Z"/>
</svg>
