<svg xmlns="http://www.w3.org/2000/svg" width="20" height="20" fill="none" viewBox="0 0 20 20">
  <path fill="#3D3C3C" fill-rule="evenodd" d="M10 1.25c-1.055 0-1.875.881-1.875 1.92v1.034c-1.427.713-2.5 2.192-2.5 3.921v2.93l-1.597 2.302a1.456 1.456 0 0 0-.15 1.451c.196.442.635.817 1.228.817h9.783c.593 0 1.032-.376 1.23-.815a1.448 1.448 0 0 0-.153-1.463.625.625 0 0 0-1.003.746c.041.055.05.13.017.203a.164.164 0 0 1-.05.067.063.063 0 0 1-.041.012H5.106a.06.06 0 0 1-.04-.012.154.154 0 0 1-.047-.063.206.206 0 0 1 .02-.209l.006-.007 1.83-2.638V8.125C6.875 6.414 8.411 5 10.001 5c.477 0 .708.004.935.06.213.053.46.164.905.46a.625.625 0 1 0 .693-1.04 6.28 6.28 0 0 0-.659-.392v-.919c0-1.038-.82-1.919-1.875-1.919Zm.625 2.51v-.59c0-.39-.301-.67-.625-.67s-.625.28-.625.67v.63a3.99 3.99 0 0 1 .626-.05h.043c.201 0 .393 0 .581.01Zm1.473 12.531a.625.625 0 0 1 .361.807c-.373.978-1.343 1.652-2.459 1.652-1.117 0-2.086-.679-2.459-1.651a.625.625 0 1 1 1.168-.448c.183.48.681.849 1.291.849.611 0 1.108-.367 1.291-.848a.625.625 0 0 1 .807-.361ZM18.75 8.75a3.751 3.751 0 0 1-7.5 0 3.751 3.751 0 0 1 7.5 0Z" clip-rule="evenodd"/>
</svg>
