<svg xmlns="http://www.w3.org/2000/svg" width="20" height="20" fill="currentColor" viewBox="0 0 20 20">
  <path fill-rule="evenodd" d="M8.125 3.17c0-1.039.82-1.92 1.875-1.92 1.055 0 1.875.881 1.875 1.92v1.034c1.427.712 2.5 2.192 2.5 3.921v2.93l1.598 2.301c.335.458.343 1.018.146 1.454-.198.44-.637.815-1.23.815H5.106c-.593 0-1.032-.375-1.229-.817a1.456 1.456 0 0 1 .15-1.451l1.598-2.303V8.125c0-1.729 1.073-3.208 2.5-3.92V3.168Zm2.5 0v.63a3.99 3.99 0 0 0-1.25 0v-.63c0-.39.301-.67.625-.67s.625.28.625.67ZM10.001 5C8.41 5 6.875 6.414 6.875 8.125v3.32l-1.83 2.639-.006.007a.206.206 0 0 0-.02.21.154.154 0 0 0 .048.062.06.06 0 0 0 .039.012h9.783a.063.063 0 0 0 .04-.013.163.163 0 0 0 .051-.066.198.198 0 0 0-.017-.203l-.006-.008-1.832-2.64v-3.32C13.125 6.413 11.59 5 10.001 5Zm2.458 12.098a.625.625 0 0 0-1.168-.446c-.183.481-.68.848-1.291.848-.61 0-1.108-.37-1.291-.849a.625.625 0 0 0-1.168.448c.373.972 1.342 1.651 2.459 1.651 1.116 0 2.086-.674 2.459-1.652Z" clip-rule="evenodd"/>
</svg>
