<svg xmlns="http://www.w3.org/2000/svg" width="20" height="20" fill="currentColor" viewBox="0 0 20 20">
  <path fill-rule="evenodd" d="M8.125 3.17c0-1.039.82-1.92 1.875-1.92 1.055 0 1.875.881 1.875 1.92v1.205a.625.625 0 1 1-1.25 0V3.169c0-.389-.301-.669-.625-.669s-.625.28-.625.67v1.205a.625.625 0 1 1-1.25 0V3.169Z" clip-rule="evenodd"/>
  <path fill-rule="evenodd" d="M5.937 8.125c0-2.364 1.749-4.375 4.064-4.375s4.062 2.011 4.062 4.375v2.901l1.894 2.309.01.012c.341.46.35 1.024.152 1.463-.198.44-.637.815-1.23.815H5.106c-.593 0-1.032-.375-1.229-.817a1.456 1.456 0 0 1 .157-1.46l.01-.012 1.893-2.31v-2.9ZM10.001 5C8.48 5 7.187 6.343 7.187 8.125v3.348L5.033 14.1a.206.206 0 0 0-.014.2.154.154 0 0 0 .048.063.06.06 0 0 0 .039.012h9.783a.063.063 0 0 0 .04-.013.163.163 0 0 0 .051-.066.199.199 0 0 0-.011-.195l-2.156-2.627V8.125C12.813 6.342 11.52 5 10 5Zm2.097 11.291a.625.625 0 0 1 .361.807c-.373.978-1.343 1.652-2.459 1.652-1.117 0-2.086-.679-2.459-1.651a.625.625 0 1 1 1.168-.448c.183.48.681.849 1.291.849.611 0 1.108-.367 1.291-.848a.625.625 0 0 1 .807-.361Z" clip-rule="evenodd"/>
</svg>
