<svg xmlns="http://www.w3.org/2000/svg" width="20" height="20" fill="currentColor" viewBox="0 0 20 20">
  <path fill-rule="evenodd" d="M15.872 15.031c.88 0 1.633.691 1.628 1.666v1.46c0 .344-.28.624-.625.624h-5a.625.625 0 0 1-.625-.625v-1.402c-.005-1.01.87-1.723 1.725-1.723h2.897Zm-2.897 1.25c-.239 0-.477.224-.475.468v.782h3.75v-.84c.002-.266-.174-.41-.378-.41h-2.897Z" clip-rule="evenodd"/>
  <path fill-rule="evenodd" d="M11.25 1.25c.69 0 1.25.56 1.25 1.25v.625h1.875c1.036 0 1.875.84 1.875 1.875v3.75a.625.625 0 1 1-1.25 0V5a.625.625 0 0 0-.625-.625H12.5V5c0 .69-.56 1.25-1.25 1.25H7.5l-.128-.007A1.25 1.25 0 0 1 6.25 5v-.625H4.375A.625.625 0 0 0 3.75 5v11.875c0 .345.28.625.625.625h5a.625.625 0 1 1 0 1.25h-5A1.875 1.875 0 0 1 2.5 16.875V5c0-1.036.84-1.875 1.875-1.875H6.25V2.5c0-.69.56-1.25 1.25-1.25h3.75ZM7.5 5h3.75V2.5H7.5V5Z" clip-rule="evenodd"/>
  <path d="M7.613 12.766a.626.626 0 0 1 1.024.718l-1.752 2.5a.625.625 0 0 1-1.025-.002l-.748-1.073a.625.625 0 0 1 1.026-.715l.236.34 1.239-1.768Z"/>
  <path fill-rule="evenodd" d="M14.375 10a2.188 2.188 0 1 1 0 4.375 2.188 2.188 0 0 1 0-4.375Zm0 1.25a.937.937 0 1 0 0 1.875.937.937 0 0 0 0-1.875Z" clip-rule="evenodd"/>
  <path d="M7.613 7.766a.626.626 0 0 1 1.024.718l-1.752 2.5a.625.625 0 0 1-1.025-.002L5.112 9.91a.625.625 0 0 1 1.026-.715l.236.34 1.239-1.768Z"/>
</svg>
