<svg xmlns="http://www.w3.org/2000/svg" width="20" height="20" fill="currentColor" viewBox="0 0 20 20">
  <path fill-rule="evenodd" d="M6.657 8.9c.262.225.292.62.068.882l-1.527 1.78 1.527 1.781a.625.625 0 1 1-.95.814L3.9 11.969a.625.625 0 0 1 0-.813l1.875-2.188a.625.625 0 0 1 .882-.068Zm6.686 0a.625.625 0 0 1 .882.068l1.874 2.188a.623.623 0 0 1 0 .813l-1.874 2.188a.625.625 0 1 1-.95-.814l1.527-1.78-1.527-1.781a.625.625 0 0 1 .068-.882ZM11.18 6.894a.625.625 0 0 1 .455.758l-1.875 7.5a.625.625 0 1 1-1.213-.304l1.875-7.5a.625.625 0 0 1 .758-.454Z" clip-rule="evenodd"/>
  <path fill-rule="evenodd" d="M1.25 5h17.5v11.293c0 1.307-.988 2.457-2.315 2.457H3.565c-1.327 0-2.315-1.15-2.315-2.457V5ZM2.5 6.25v10.043c0 .715.523 1.207 1.065 1.207h12.87c.542 0 1.065-.492 1.065-1.207V6.25h-15Z" clip-rule="evenodd"/>
  <path fill-rule="evenodd" d="M1.25 3.744c0-1.316.977-2.494 2.315-2.494h12.87c1.338 0 2.315 1.178 2.315 2.494V6.25H1.25V3.744ZM3.565 2.5c-.531 0-1.065.497-1.065 1.244V5h15V3.744c0-.747-.534-1.244-1.065-1.244H3.565Z" clip-rule="evenodd"/>
  <path d="M4.53 3.125h-.31c-.26 0-.47.193-.47.432v.386c0 .239.21.432.47.432h.31c.26 0 .47-.193.47-.432v-.386c0-.239-.21-.432-.47-.432Zm1.874 0h-.308c-.26 0-.471.193-.471.432v.386c0 .239.21.432.47.432h.31c.26 0 .47-.193.47-.432v-.386c0-.239-.21-.432-.47-.432Zm1.876 0h-.31c-.26 0-.47.193-.47.432v.386c0 .239.21.432.47.432h.31c.26 0 .47-.193.47-.432v-.386c0-.239-.21-.432-.47-.432Z"/>
</svg>
