<svg xmlns="http://www.w3.org/2000/svg" width="20" height="20" fill="currentColor" viewBox="0 0 20 20">
  <path fill-rule="evenodd" d="M1.25 3.744c0-1.316.977-2.494 2.315-2.494h12.87c1.338 0 2.315 1.178 2.315 2.494v12.549c0 1.307-.988 2.457-2.315 2.457H3.565c-1.327 0-2.315-1.15-2.315-2.457V3.744Zm16.25 0V5h-15V3.744c0-.747.534-1.244 1.065-1.244h12.87c.531 0 1.065.497 1.065 1.244ZM2.5 6.25h15v10.043c0 .715-.523 1.207-1.065 1.207H3.565c-.542 0-1.065-.492-1.065-1.207V6.25Zm8.68.644a.625.625 0 0 1 .455.758l-1.875 7.5a.625.625 0 1 1-1.213-.304l1.875-7.5a.625.625 0 0 1 .758-.454ZM6.725 9.782a.625.625 0 1 0-.95-.814L3.9 11.156c-.2.234-.2.58 0 .813l1.875 2.188a.625.625 0 0 0 .95-.814l-1.527-1.78 1.527-1.781Zm7.5-.814a.625.625 0 1 0-.95.814l1.527 1.78-1.527 1.781a.625.625 0 1 0 .95.814l1.874-2.188a.623.623 0 0 0 0-.813l-1.874-2.188ZM4.22 3.125h.308c.26 0 .471.193.471.432v.386c0 .239-.21.432-.47.432h-.31c-.26 0-.47-.193-.47-.432v-.386c0-.239.21-.432.47-.432Zm2.183 0h-.308c-.26 0-.471.193-.471.432v.386c0 .239.21.432.47.432h.31c.26 0 .47-.193.47-.432v-.386c0-.239-.21-.432-.47-.432Zm1.567 0h.308c.26 0 .471.193.471.432v.386c0 .239-.21.432-.47.432h-.31c-.26 0-.47-.193-.47-.432v-.386c0-.239.21-.432.47-.432Z" clip-rule="evenodd"/>
</svg>
