<svg xmlns="http://www.w3.org/2000/svg" width="20" height="20" fill="currentColor" viewBox="0 0 20 20">
  <path fill-rule="evenodd" d="M10.548 1.391a33.035 33.035 0 0 0 6.082 2.496l.008.002c.475.144.862.57.862 1.12V7.5a.625.625 0 1 1-1.25 0V5.078a34.324 34.324 0 0 1-6.253-2.564 34.13 34.13 0 0 1-6.247 2.57v6.882c0 .806.565 1.675 1.532 2.543.943.847 2.143 1.582 3.143 2.13a.625.625 0 0 1-.6 1.097c-1.029-.564-2.328-1.354-3.378-2.297C3.42 14.518 2.5 13.331 2.5 11.966v-6.95c0-.54.376-.983.87-1.123a32.856 32.856 0 0 0 6.075-2.501c.343-.189.76-.19 1.103-.001Z" clip-rule="evenodd"/>
  <path fill-rule="evenodd" d="M14.457 8.455a.625.625 0 0 1 .84-.259l2.188 1.145c.304.16.423.535.265.84l-.395.765c.198.26.366.539.503.83l.921.044c.334.015.596.29.596.624v2.396a.625.625 0 0 1-.605.625l-.809.026a4.516 4.516 0 0 1-.197.423l-.002.004a5.05 5.05 0 0 1-.247.407l.494.85a.625.625 0 0 1-.234.859l-2.243 1.26a.625.625 0 0 1-.866-.266l-.364-.733a4.43 4.43 0 0 1-.874.025l-.385.72a.625.625 0 0 1-.84.26l-2.208-1.156a.625.625 0 0 1-.26-.85l.405-.751a4.587 4.587 0 0 1-.482-.79l-.812.025a.625.625 0 0 1-.645-.605l-.076-2.5a.625.625 0 0 1 .605-.643l.808-.026a4.17 4.17 0 0 1 .2-.426 5.27 5.27 0 0 1 .24-.399l-.427-.696a.625.625 0 0 1 .202-.857l2.11-1.317a.625.625 0 0 1 .864.203l.427.694c.302-.041.61-.053.918-.03l.385-.72Zm.81 1.136-.295.55a.625.625 0 0 1-.66.322 3.17 3.17 0 0 0-1.314.045.625.625 0 0 1-.682-.28l-.324-.525-1.051.655.324.528c.14.23.119.522-.054.729a3.378 3.378 0 0 0-.627 1.18.625.625 0 0 1-.578.444l-.612.02.037 1.25.614-.02a.625.625 0 0 1 .607.41c.155.423.388.81.697 1.14a.625.625 0 0 1 .093.724l-.306.567 1.097.574.295-.55a.625.625 0 0 1 .66-.321c.44.078.89.06 1.314-.045.284-.07.58.066.71.329l.281.566 1.117-.628-.383-.659a.625.625 0 0 1 .062-.715 3.382 3.382 0 0 0 .627-1.18.625.625 0 0 1 .578-.445l.631-.02V13.04l-.72-.034a.625.625 0 0 1-.557-.41 3.348 3.348 0 0 0-.697-1.14.625.625 0 0 1-.098-.714l.3-.582-1.086-.569Z" clip-rule="evenodd"/>
  <path fill-rule="evenodd" d="M13.75 14.688a.937.937 0 1 0 0-1.875.937.937 0 0 0 0 1.874Zm0 1.25a2.188 2.188 0 1 0 0-4.376 2.188 2.188 0 0 0 0 4.376Z" clip-rule="evenodd"/>
</svg>
