<svg xmlns="http://www.w3.org/2000/svg" width="20" height="20" fill="currentColor" viewBox="0 0 20 20">
  <path fill-rule="evenodd" d="M3.75 3.435c0-.525.42-.935.901-.935h10.073c.48 0 .901.41.901.935V7.5a.625.625 0 1 0 1.25 0V3.435c0-1.19-.955-2.185-2.151-2.185H4.65c-1.196 0-2.151.996-2.151 2.185V5h-.625a.625.625 0 1 0 0 1.25h2.5a.625.625 0 1 0 0-1.25H3.75V3.435Zm0 12.783a.625.625 0 1 0-1.25 0v.347c0 1.19.955 2.185 2.151 2.185H7.5a.625.625 0 1 0 0-1.25H4.651c-.48 0-.901-.41-.901-.935v-.347ZM1.875 13.75a.625.625 0 1 0 0 1.25h2.5a.625.625 0 1 0 0-1.25H3.75v-1.875a.625.625 0 1 0-1.25 0v1.875h-.625ZM1.25 10c0-.345.28-.625.625-.625H2.5V7.5a.625.625 0 1 1 1.25 0v1.875h.625a.625.625 0 1 1 0 1.25h-2.5A.625.625 0 0 1 1.25 10Zm16.25-.625c.345 0 .625.28.625.625v1.875c0 .345-.28.625-.625.625h-1.875a.625.625 0 1 1 0-1.25h.513c-.557-.413-1.248-.625-2.076-.625-1.958 0-3.437 1.356-3.437 3.125a.625.625 0 1 1-1.25 0c0-2.572 2.157-4.375 4.688-4.375 1.057 0 2.017.278 2.812.865V10c0-.345.28-.625.625-.625Zm-6.875 6.25a.625.625 0 0 0-.625.625v1.875a.625.625 0 1 0 1.25 0v-.314a4.666 4.666 0 0 0 2.813.939c2.541 0 4.687-1.912 4.687-4.375a.625.625 0 1 0-1.25 0c0 1.68-1.49 3.125-3.438 3.125-.75 0-1.413-.235-1.973-.625h.411a.625.625 0 1 0 0-1.25h-1.875Z" clip-rule="evenodd"/>
</svg>
