<svg xmlns="http://www.w3.org/2000/svg" width="20" height="20" fill="none" viewBox="0 0 20 20">
  <path fill="#3D3C3C" fill-rule="evenodd" d="m13.333 1.42.002.001 2.1 1.272h.001c.563.34.738 1.07.428 1.633L13.333 1.42Zm0 0 2.53 2.907-.712 1.3a7.117 7.117 0 0 1 1.04 1.888h1.377c.685 0 1.182.575 1.182 1.21v1.9a.625.625 0 1 1-1.25 0v-1.86h-1.367c-.488 0-.934-.305-1.1-.782a5.867 5.867 0 0 0-.884-1.608 1.23 1.23 0 0 1-.1-1.338l.709-1.293-1.995-1.208-.683 1.242a1.16 1.16 0 0 1-1.21.6 5.303 5.303 0 0 0-1.743 0h-.002a1.163 1.163 0 0 1-1.205-.6l-.683-1.242-1.995 1.208.709 1.292c.229.417.201.944-.095 1.334l-.003.003-.003.004a5.762 5.762 0 0 0-.883 1.61c-.17.468-.61.778-1.1.778H2.5v2.47h1.367c.488 0 .934.305 1.1.782.214.591.515 1.133.885 1.608.303.39.326.925.099 1.339l-.709 1.292 1.995 1.208.683-1.242a1.16 1.16 0 0 1 1.21-.6c.284.048.574.073.87.073.321 0 .88-.028 1.147-.073a.625.625 0 1 1 .206 1.233c-.368.062-1.008.09-1.353.09-.344 0-.68-.027-1.008-.078l-.695 1.263a1.161 1.161 0 0 1-1.63.45l-.002-.001-2.1-1.272-.001-.001a1.223 1.223 0 0 1-.428-1.632l.713-1.301a7.116 7.116 0 0 1-1.04-1.888H2.431c-.685 0-1.182-.575-1.182-1.21v-2.55c0-.645.506-1.21 1.182-1.21h1.376A7.008 7.008 0 0 1 4.85 5.627l-.712-1.3a1.225 1.225 0 0 1 .422-1.63l.004-.002 2.108-1.277a1.165 1.165 0 0 1 1.625.45l.696 1.265a6.543 6.543 0 0 1 2.016 0l.695-1.263a1.161 1.161 0 0 1 1.63-.45Zm-.208 11.705c0-.345.28-.625.625-.625h4.375a.625.625 0 0 1 0 1.25H13.75a.625.625 0 0 1-.625-.625Zm0 2.5c0-.345.28-.625.625-.625h4.375a.625.625 0 0 1 0 1.25H13.75a.625.625 0 0 1-.625-.625Zm.625 1.875a.625.625 0 0 0 0 1.25h4.375a.625.625 0 1 0 0-1.25H13.75Zm-6.215-7.072a2.501 2.501 0 1 1 4.93-.857 2.501 2.501 0 1 1-4.93.857Zm3.096-4.126a3.751 3.751 0 1 0-1.263 7.397h.001a3.751 3.751 0 1 0 1.263-7.397h-.001Z" clip-rule="evenodd"/>
</svg>
