<svg xmlns="http://www.w3.org/2000/svg" width="20" height="20" fill="currentColor" viewBox="0 0 20 20">
  <path d="M18.125 17.5a.625.625 0 0 1 0 1.25h-6.25a.625.625 0 1 1 0-1.25h6.25ZM10.107 1.823c.29-.534.97-.746 1.511-.416h.001l1.78 1.08c.522.314.682.988.397 1.507v.001l-.574 1.047c.342.454.624.961.833 1.509h1.1c.637 0 1.095.535 1.095 1.12v2.132a1.71 1.71 0 0 1-.072.51.916.916 0 0 1-.297.431.923.923 0 0 1-.545.193c-.172.006-.42.006-.614.005l-.253-.002-.076-.001-.022-.001h-.008a.625.625 0 0 1 .024-1.25h.027l.072.002c.063 0 .15 0 .245.002H15V7.8h-1.06c-.452 0-.865-.281-1.021-.722l-.07-.182a4.868 4.868 0 0 0-.552-1.004l-.112-.152a1.136 1.136 0 0 1-.093-1.237l.554-1.013-1.522-.922-.53.962c-.207.378-.638.64-1.121.556a4.392 4.392 0 0 0-1.446.001h-.002a1.077 1.077 0 0 1-1.077-.485l-.043-.072-.529-.962-1.523.922.555 1.013.068.149c.133.356.084.768-.156 1.084l-.007.007a4.784 4.784 0 0 0-.732 1.335v.001a1.09 1.09 0 0 1-1.02.721H2.5v1.898h1.06c.452 0 .865.282 1.021.722.177.492.428.943.734 1.338l.05.068c.234.354.24.81.043 1.17l-.555 1.011 1.523.923.53-.962.041-.07a1.07 1.07 0 0 1 1.08-.487c.235.04.477.06.723.06a.625.625 0 0 1 0 1.25c-.273 0-.54-.02-.8-.058l-.554 1.008a1.08 1.08 0 0 1-1.514.421L4.1 15.013l-.094-.063a1.134 1.134 0 0 1-.302-1.446l.574-1.047a6.118 6.118 0 0 1-.833-1.508H2.347c-.638 0-1.097-.535-1.097-1.12V7.671c0-.594.468-1.12 1.097-1.12h1.098a6.024 6.024 0 0 1 .832-1.509l-.573-1.048a1.132 1.132 0 0 1 .392-1.505l.004-.002 1.782-1.08.002-.001a1.08 1.08 0 0 1 1.448.32l.06.097.557 1.013a5.622 5.622 0 0 1 1.6 0l.558-1.013ZM18.125 15a.625.625 0 0 1 0 1.25h-6.25a.625.625 0 1 1 0-1.25h6.25Zm0-2.5a.625.625 0 0 1 0 1.25h-6.25a.625.625 0 1 1 0-1.25h6.25ZM5.668 9.275a3.13 3.13 0 0 1 3.607-3.607l.24.05a3.129 3.129 0 0 1 2.317 2.508l.026.199a3.128 3.128 0 0 1-3.632 3.407h-.001A3.128 3.128 0 0 1 5.69 9.396l-.022-.121Zm3.404-2.373a1.876 1.876 0 1 0-.645 3.697 1.88 1.88 0 0 0 2.172-2.171v-.001a1.876 1.876 0 0 0-1.527-1.525Z"/>
</svg>
