<svg xmlns="http://www.w3.org/2000/svg" width="20" height="20" fill="currentColor" viewBox="0 0 20 20">
  <path d="M14.375 10a4.375 4.375 0 1 1 0 8.75 4.375 4.375 0 0 1 0-8.75Zm0 1.25a3.125 3.125 0 1 0 0 6.25 3.125 3.125 0 0 0 0-6.25Zm-4.268-9.427a1.08 1.08 0 0 1 1.511-.415l.001-.001 1.78 1.08c.522.313.682.988.397 1.507l-.574 1.048c.342.453.624.96.833 1.509h1.1c.636 0 1.095.535 1.095 1.12v.089l-.024.084-.313 1.08a.625.625 0 0 1-1.201-.348l.225-.775h-.997c-.452 0-.865-.282-1.021-.722l-.07-.183a4.868 4.868 0 0 0-.552-1.004l-.112-.15a1.138 1.138 0 0 1-.093-1.238l.554-1.013-1.522-.923-.53.964a1.075 1.075 0 0 1-1.121.555 4.392 4.392 0 0 0-1.446 0h-.002a1.076 1.076 0 0 1-1.077-.485l-.043-.07-.529-.964-1.523.923.555 1.013.068.148c.133.356.085.77-.156 1.085l-.007.007a4.783 4.783 0 0 0-.732 1.335 1.09 1.09 0 0 1-1.02.722H2.5v1.898h1.06c.452 0 .865.282 1.021.723.177.491.428.942.734 1.336l.05.07c.234.354.24.81.043 1.168l-.555 1.012 1.523.923.53-.962.041-.07a1.07 1.07 0 0 1 1.08-.486c.235.04.477.06.723.06a.625.625 0 1 1 0 1.25c-.273 0-.54-.022-.8-.06l-.554 1.009c-.289.537-.97.753-1.514.421L4.1 15.013a1.131 1.131 0 0 1-.396-1.51l.574-1.045a6.122 6.122 0 0 1-.833-1.509H2.347c-.638 0-1.097-.535-1.097-1.12V7.67c0-.594.468-1.12 1.097-1.12h1.098a6.026 6.026 0 0 1 .832-1.51l-.573-1.047a1.132 1.132 0 0 1 .392-1.506l.004-.002 1.782-1.079.002-.001a1.08 1.08 0 0 1 1.448.32l.06.096v.001l.557 1.013a5.541 5.541 0 0 1 1.601 0l.557-1.013Zm5.006 10.943a.625.625 0 1 1 1.024.718l-1.752 2.5a.625.625 0 0 1-1.025-.002l-.748-1.073a.624.624 0 0 1 1.026-.715l.236.34 1.24-1.768ZM5.668 9.274a3.13 3.13 0 0 1 3.607-3.606l.24.05a3.129 3.129 0 0 1 2.317 2.507l.026.2a3.129 3.129 0 0 1-3.632 3.408h-.001A3.13 3.13 0 0 1 5.69 9.395l-.022-.12Zm3.165-2.398a1.876 1.876 0 0 0-.405 3.723h-.001a1.88 1.88 0 0 0 2.172-2.172l-.03-.142A1.88 1.88 0 0 0 9.072 6.9l-.239-.025Z"/>
</svg>
