<svg xmlns="http://www.w3.org/2000/svg" width="20" height="20" fill="currentColor" viewBox="0 0 20 20">
  <path fill-rule="evenodd" d="M8.125 2.5h3.75V5h-3.75V2.5Zm-1.25 0c0-.69.56-1.25 1.25-1.25h3.75c.69 0 1.25.56 1.25 1.25v.625H15c1.035 0 1.875.84 1.875 1.875v11.875c0 1.035-.84 1.875-1.875 1.875H5a1.875 1.875 0 0 1-1.875-1.875V5c0-1.036.84-1.875 1.875-1.875h1.875V2.5Zm0 1.875H5A.625.625 0 0 0 4.375 5v11.875c0 .345.28.625.625.625h10c.345 0 .625-.28.625-.625V5A.625.625 0 0 0 15 4.375h-1.875V5c0 .69-.56 1.25-1.25 1.25h-3.75c-.69 0-1.25-.56-1.25-1.25v-.625Zm7.234 3.238a.625.625 0 0 1 .153.87l-1.752 2.5a.625.625 0 0 1-1.025 0l-.748-1.074a.625.625 0 0 1 1.026-.715l.236.34 1.24-1.768a.625.625 0 0 1 .87-.153ZM6.25 9.375a.625.625 0 1 0 0 1.25h2.5a.625.625 0 1 0 0-1.25h-2.5Zm0 4.375a.625.625 0 1 0 0 1.25h2.5a.625.625 0 1 0 0-1.25h-2.5Zm8.012-.891a.625.625 0 0 0-1.024-.718L12 13.91l-.236-.34a.625.625 0 1 0-1.026.715l.748 1.073a.625.625 0 0 0 1.025.002l1.752-2.5Z" clip-rule="evenodd"/>
</svg>
