<svg xmlns="http://www.w3.org/2000/svg" width="20" height="20" fill="currentColor" viewBox="0 0 20 20">
  <path fill-rule="evenodd" d="M6.25 14.375c0-.345.28-.625.625-.625H8.75a.625.625 0 0 1 0 1.25H6.875a.625.625 0 0 1-.625-.625Zm0-4.375c0-.345.28-.625.625-.625H8.75a.625.625 0 1 1 0 1.25H6.875A.625.625 0 0 1 6.25 10Z" clip-rule="evenodd"/>
  <path fill-rule="evenodd" d="M6.07 4.375c-.556 0-1.07.49-1.07 1.171V16.33c0 .683.51 1.171 1.07 1.171h8.484c.557 0 1.071-.49 1.071-1.171V5.546c0-.683-.51-1.171-1.07-1.171h-1.43a.625.625 0 1 1 0-1.25h1.43c1.318 0 2.32 1.117 2.32 2.421V16.33c0 1.305-1.009 2.421-2.32 2.421H6.07c-1.319 0-2.321-1.117-2.321-2.421V5.546c0-1.305 1.009-2.421 2.32-2.421h1.117a.625.625 0 1 1 0 1.25H6.072Z" clip-rule="evenodd"/>
  <path fill-rule="evenodd" d="M8.125 2.5V5H12.5V2.5H8.125Zm-1.25-.022c0-.672.54-1.228 1.222-1.228h4.431c.681 0 1.222.556 1.222 1.228v2.544c0 .672-.54 1.228-1.222 1.228h-4.43a1.225 1.225 0 0 1-1.222-1.228V2.478Zm7.234 5.135a.625.625 0 0 1 .153.87l-1.752 2.5a.626.626 0 0 1-1.025 0l-.748-1.074a.625.625 0 1 1 1.026-.714l.236.339 1.24-1.768a.625.625 0 0 1 .87-.153Zm0 4.375a.625.625 0 0 1 .153.87l-1.752 2.5a.626.626 0 0 1-1.025 0l-.748-1.074a.625.625 0 1 1 1.026-.715l.236.34 1.24-1.768a.625.625 0 0 1 .87-.153Z" clip-rule="evenodd"/>
</svg>
