<svg xmlns="http://www.w3.org/2000/svg" width="20" height="20" fill="currentColor" viewBox="0 0 20 20">
  <path fill-rule="evenodd" d="M17.457 8.296C13.598 3.9 6.402 3.9 2.543 8.296h14.914Zm0 0 1.137 1.293a.625.625 0 0 1 0 .826l-1.137 1.293c-3.864 4.388-11.055 4.39-14.914 0l-1.137-1.293a.625.625 0 0 1 0-.826l1.137-1.293m13.975.825c-3.361-3.828-9.675-3.828-13.036 0l-.775.881.775.881c3.36 3.822 9.67 3.823 13.036 0l.775-.88-.775-.882Z" clip-rule="evenodd"/>
  <path fill-rule="evenodd" d="M10 8.75a1.25 1.25 0 1 0 0 2.5 1.25 1.25 0 0 0 0-2.5ZM7.5 10a2.5 2.5 0 1 1 5 0 2.5 2.5 0 0 1-5 0Z" clip-rule="evenodd"/>
</svg>
