<svg xmlns="http://www.w3.org/2000/svg" width="20" height="20" fill="currentColor" viewBox="0 0 20 20">
  <path fill-rule="evenodd" d="M8.17 8.296a2.5 2.5 0 1 0 3.658 3.408 2.5 2.5 0 0 0-3.657-3.408ZM8.75 10a1.25 1.25 0 1 1 2.5 0 1.25 1.25 0 0 1-2.5 0Z" clip-rule="evenodd"/>
  <path fill-rule="evenodd" d="M2.543 8.296c3.859-4.395 11.055-4.395 14.914 0l1.137 1.293a.625.625 0 0 1 0 .826l-1.137 1.293c-3.864 4.388-11.055 4.39-14.914 0l-1.137-1.293a.625.625 0 0 1 0-.826l1.137-1.293Zm13.138 0c.295.252.575.527.837.825l.775.881-.775.88c-3.367 3.824-9.675 3.823-13.036.001l-.775-.88.775-.882c.262-.298.542-.573.837-.825 3.195-2.728 8.167-2.728 11.362 0Z" clip-rule="evenodd"/>
</svg>
