<svg xmlns="http://www.w3.org/2000/svg" width="20" height="20" fill="currentColor" viewBox="0 0 20 20">
  <path fill-rule="evenodd" d="m18.62 9.621-1.137-1.478c-3.86-5.024-11.106-5.024-14.966 0L1.38 9.621a.625.625 0 0 0 0 .762l1.137 1.479c3.86 5.018 11.1 5.017 14.966 0l1.137-1.479a.625.625 0 0 0 0-.762ZM3.508 8.905c3.36-4.373 9.624-4.373 12.984 0l.844 1.097-.844 1.098c-3.366 4.367-9.625 4.366-12.984 0l-.844-1.098.844-1.097ZM8.125 10a1.875 1.875 0 1 1 3.75 0 1.875 1.875 0 0 1-3.75 0ZM10 6.875a3.125 3.125 0 1 0 0 6.25 3.125 3.125 0 0 0 0-6.25Z" clip-rule="evenodd"/>
</svg>
