<svg xmlns="http://www.w3.org/2000/svg" width="20" height="20" fill="currentColor" viewBox="0 0 20 20">
  <path fill-rule="evenodd" d="m16.728 6.235-4.494-3.57-.837 1.1 4.494 3.57.837-1.1Zm-5.243-4.65A.856.856 0 0 1 12.7 1.44l5.097 4.048.008.007c.35.288.435.82.14 1.203L16.64 8.415a.872.872 0 0 1-.681.336l-1.523 3.585c-.137.31-.382.552-.688.69h-.001l-8.48 3.79a.628.628 0 0 1-.65-.073.622.622 0 0 1-.227-.63l1.76-8.785a1.35 1.35 0 0 1 .534-.81l.006-.004 3.37-2.367a.864.864 0 0 1 .12-.845l1.305-1.717ZM7.029 14.66l2.84-3.65a.625.625 0 1 0-.987-.768l-2.749 3.534 1.24-6.187a.109.109 0 0 1 .04-.055l3.4-2.387 4.044 3-1.566 3.687a.109.109 0 0 1-.056.053L7.029 14.66ZM3.125 17.5a.625.625 0 0 0 0 1.25h13.75a.625.625 0 1 0 0-1.25H3.125Z" clip-rule="evenodd"/>
</svg>
