<svg xmlns="http://www.w3.org/2000/svg" width="20" height="20" fill="currentColor" viewBox="0 0 20 20">
  <path fill-rule="evenodd" d="M16.63 3.887a33.035 33.035 0 0 1-6.082-2.496 1.146 1.146 0 0 0-1.103 0A32.856 32.856 0 0 1 3.37 3.894c-.494.14-.87.582-.87 1.122v6.951c0 1.53 1.111 2.85 2.292 3.844 1.212 1.02 2.669 1.836 3.678 2.342a.625.625 0 1 0 .56-1.117c-.974-.489-2.33-1.254-3.434-2.182-1.136-.955-1.846-1.951-1.846-2.887V5.084a34.13 34.13 0 0 0 6.247-2.57 34.324 34.324 0 0 0 6.253 2.564V8.75a.625.625 0 1 0 1.25 0V5.01c0-.552-.387-.977-.862-1.12v-.001l-.008-.002ZM10.375 18.38c.238.238.556.369.887.369v-.006c.107 0 .207-.013.313-.038l1.519-.381a.606.606 0 0 0 .287-.162l4.788-4.788a1.977 1.977 0 0 0 0-2.8 1.988 1.988 0 0 0-2.8 0l-4.788 4.8a.598.598 0 0 0-.162.287l-.382 1.52h.007c-.113.437.012.88.331 1.2Zm.875-.893v-.007l.338-1.35 4.668-4.668a.724.724 0 0 1 1.032 0 .736.736 0 0 1 0 1.03l-4.663 4.663-1.375.332Z" clip-rule="evenodd"/>
</svg>
