<svg xmlns="http://www.w3.org/2000/svg" width="20" height="20" fill="currentColor" viewBox="0 0 20 20">
  <path fill-rule="evenodd" d="M10.548 1.391a33.035 33.035 0 0 0 6.082 2.496l.008.002c.475.144.862.57.862 1.12V8.75a.625.625 0 1 1-1.25 0V5.078a34.324 34.324 0 0 1-6.253-2.564 34.13 34.13 0 0 1-6.247 2.57v6.882c0 .936.71 1.932 1.846 2.887 1.104.928 2.46 1.693 3.434 2.182a.625.625 0 0 1-.56 1.117c-1.01-.506-2.466-1.322-3.678-2.342-1.18-.993-2.292-2.313-2.292-3.844v-6.95c0-.54.376-.983.87-1.123a32.856 32.856 0 0 0 6.075-2.501c.343-.189.76-.19 1.103-.001Z" clip-rule="evenodd"/>
  <path d="M11.262 18.75c-.33 0-.65-.131-.887-.369a1.239 1.239 0 0 1-.331-1.2h-.007l.382-1.519a.598.598 0 0 1 .162-.287l4.788-4.8a1.988 1.988 0 0 1 2.8 0 1.977 1.977 0 0 1 0 2.8l-4.788 4.788a.604.604 0 0 1-.287.162l-1.519.381a1.336 1.336 0 0 1-.313.038v.006Zm-.012-1.269v.006l1.375-.33 4.663-4.663a.736.736 0 0 0 0-1.031.724.724 0 0 0-1.032 0l-4.668 4.668-.338 1.35Z"/>
</svg>
