<svg xmlns="http://www.w3.org/2000/svg" width="20" height="20" fill="currentColor" viewBox="0 0 20 20">
  <path fill-rule="evenodd" d="M5.232 1.88H5.23a.625.625 0 0 0-.7.687l.237 2.181a6.863 6.863 0 0 0-1.86 2.933H1.875a.625.625 0 0 0-.625.625v3.325c0 .345.28.624.625.624h1.267a6.985 6.985 0 0 0 1.837 2.48v1.795c0 .895.734 1.595 1.618 1.595h.529c.684 0 1.312-.426 1.537-1.088l.184-.538a8.047 8.047 0 0 0 2.407 0l.184.539a1.617 1.617 0 0 0 1.537 1.087h.529c.876 0 1.617-.698 1.617-1.595v-1.796c1.412-1.224 2.323-2.964 2.376-4.913.369-.172.748-.47.995-.984.319-.656.297-1.238.174-1.666a2.106 2.106 0 0 0-.335-.676l-.012-.015-.005-.006-.002-.003h-.001V6.47h-.001a.625.625 0 0 0-.958.802l.001.002.027.041a.88.88 0 0 1 .085.2c.047.165.073.427-.097.776l-.002.004-.003.006c-.671-3.225-3.723-5.612-7.313-5.612-.824 0-1.615.121-2.36.354a4.396 4.396 0 0 0-1.468-.9 5.153 5.153 0 0 0-.962-.259l-.02-.003h-.008ZM7.54 5.622c-.025-.656-.238-1.116-.513-1.458-.323-.395-.759-.652-1.155-.814l.17 1.582a.625.625 0 0 1-.214.542c-.916.785-1.568 1.82-1.836 2.973a.625.625 0 0 1-.609.484H2.5v2.075h1.066c.265 0 .5.165.59.414.35.986.995 1.861 1.838 2.532a.625.625 0 0 1 .235.49v2.088c0 .18.148.345.368.345h.529a.367.367 0 0 0 .353-.24l.359-1.05a.625.625 0 0 1 .726-.41 6.832 6.832 0 0 0 2.971 0 .625.625 0 0 1 .728.41l.358 1.05a.37.37 0 0 0 .354.24h.529a.357.357 0 0 0 .367-.345v-2.089c0-.19.087-.37.236-.489 1.322-1.053 2.143-2.599 2.143-4.313 0-3.103-2.729-5.7-6.2-5.7a6.75 6.75 0 0 0-1.588.186c.187.413.307.894.328 1.451a.625.625 0 0 1-1.25.046Zm2.647.666c.158-.05.652-.073 1.208.08.546.15.978.424 1.176.799a.625.625 0 0 0 1.106-.584c-.428-.809-1.245-1.225-1.95-1.42-.693-.191-1.45-.215-1.916-.067a.625.625 0 0 0 .376 1.192ZM6.81 8.2c0 .48-.392.87-.875.87a.873.873 0 0 1-.875-.87c0-.48.392-.87.875-.87s.875.39.875.87Z" clip-rule="evenodd"/>
</svg>
