<svg xmlns="http://www.w3.org/2000/svg" width="20" height="20" fill="none" viewBox="0 0 20 20">
  <path fill="#3D3C3C" fill-rule="evenodd" d="m18.567 6.433-5-5a.625.625 0 0 0-.884 0L6.881 7.235c-.729-.646-1.609-.985-2.508-.985-1.103 0-2.175.51-2.974 1.47a.621.621 0 0 0-.065.718.621.621 0 0 0 .103.133l4.554 4.554-4.6 4.6a.625.625 0 0 0 .884.884l4.6-4.6 4.554 4.554a.62.62 0 0 0 .42.187.623.623 0 0 0 .43-.148c.961-.799 1.471-1.872 1.471-2.975 0-.9-.339-1.78-.985-2.508l5.802-5.802a.625.625 0 0 0 0-.884ZM13.125 2.76l4.116 4.116-5.366 5.366-4.116-4.116 5.366-5.366ZM6.438 8.572a.633.633 0 0 1-.049-.054C5.806 7.82 5.074 7.5 4.373 7.5c-.551 0-1.12.197-1.619.62l9.126 9.126c.422-.5.62-1.068.62-1.619 0-.701-.32-1.433-1.018-2.016a.632.632 0 0 1-.034-.03m-5.01-5.01 4.99 4.991a.966.966 0 0 0 .018.018" clip-rule="evenodd"/>
</svg>
