<svg xmlns="http://www.w3.org/2000/svg" width="20" height="20" fill="currentColor" viewBox="0 0 20 20">
  <path fill-rule="evenodd" d="M2.658 1.25h-.316c-.258 0-.467.194-.467.434v.382c0 .24.21.434.467.434h.316c.258 0 .467-.194.467-.434v-.382c0-.24-.21-.434-.467-.434Zm.467 16.684c0-.24-.21-.434-.467-.434h-.316c-.258 0-.467.194-.467.434v.382c0 .24.21.434.467.434h.316c.258 0 .467-.194.467-.434v-.382Zm1.408-.434h-.316c-.258 0-.467.194-.467.434v.382c0 .24.21.434.467.434h.316c.258 0 .467-.194.467-.434v-.382c0-.24-.21-.434-.467-.434Zm1.56 0h.315c.258 0 .467.194.467.434v.382c0 .24-.21.434-.467.434h-.316c-.258 0-.467-.194-.467-.434v-.382c0-.24.21-.434.467-.434Zm2.19 0h-.316c-.258 0-.467.194-.467.434v.382c0 .24.21.434.467.434h.316c.258 0 .467-.194.467-.434v-.382c0-.24-.21-.434-.467-.434Zm1.56 0h.315c.258 0 .467.194.467.434v.382c0 .24-.21.434-.467.434h-.316c-.258 0-.467-.194-.467-.434v-.382c0-.24.21-.434.467-.434Zm2.19 0h-.316c-.258 0-.467.194-.467.434v.382c0 .24.21.434.467.434h.316c.258 0 .467-.194.467-.434v-.382c0-.24-.21-.434-.467-.434Zm1.56 0h.315c.258 0 .467.194.467.434v.382c0 .24-.21.434-.467.434h-.316c-.258 0-.467-.194-.467-.434v-.382c0-.24.21-.434.467-.434Zm2.19 0h-.316c-.258 0-.467.194-.467.434v.382c0 .24.21.434.467.434h.316c.258 0 .467-.194.467-.434v-.382c0-.24-.21-.434-.467-.434Zm1.875 0c.258 0 .467.194.467.434v.382c0 .24-.21.434-.467.434h-.316c-.258 0-.467-.194-.467-.434v-.382c0-.24.21-.434.467-.434h.316ZM4.218 1.25h.315c.258 0 .467.194.467.434v.382c0 .24-.21.434-.467.434h-.316c-.258 0-.467-.194-.467-.434v-.382c0-.24.21-.434.467-.434Zm2.19 0h-.316c-.258 0-.467.194-.467.434v.382c0 .24.21.434.467.434h.316c.258 0 .467-.194.467-.434v-.382c0-.24-.21-.434-.467-.434Zm1.56 0h.315c.258 0 .467.194.467.434v.382c0 .24-.21.434-.467.434h-.316c-.258 0-.467-.194-.467-.434v-.382c0-.24.21-.434.467-.434Zm2.19 0h-.316c-.258 0-.467.194-.467.434v.382c0 .24.21.434.467.434h.316c.258 0 .467-.194.467-.434v-.382c0-.24-.21-.434-.467-.434Zm1.56 0h.315c.258 0 .467.194.467.434v.382c0 .24-.21.434-.467.434h-.316c-.258 0-.467-.194-.467-.434v-.382c0-.24.21-.434.467-.434Zm2.19 0h-.316c-.258 0-.467.194-.467.434v.382c0 .24.21.434.467.434h.316c.258 0 .467-.194.467-.434v-.382c0-.24-.21-.434-.467-.434Zm1.56 0h.315c.258 0 .467.194.467.434v.382c0 .24-.21.434-.467.434h-.316c-.258 0-.467-.194-.467-.434v-.382c0-.24.21-.434.467-.434Zm2.19 0h-.316c-.258 0-.467.194-.467.434v.382c0 .24.21.434.467.434h.316c.258 0 .467-.194.467-.434v-.382c0-.24-.21-.434-.467-.434ZM1.25 4.184c0-.24.21-.434.467-.434h.316c.258 0 .467.194.467.434v.382c0 .24-.21.434-.467.434h-.316c-.258 0-.467-.194-.467-.434v-.382Zm.467 1.441c-.258 0-.467.194-.467.434v.382c0 .24.21.434.467.434h.316c.258 0 .467-.194.467-.434v-.382c0-.24-.21-.434-.467-.434h-.316Zm-.467 2.31c0-.24.21-.435.467-.435h.316c.258 0 .467.194.467.434v.382c0 .24-.21.434-.467.434h-.316c-.258 0-.467-.194-.467-.434v-.382Zm.467 1.44c-.258 0-.467.194-.467.434v.382c0 .24.21.434.467.434h.316c.258 0 .467-.194.467-.434v-.382c0-.24-.21-.434-.467-.434h-.316Zm-.467 2.31c0-.24.21-.435.467-.435h.316c.258 0 .467.194.467.434v.382c0 .24-.21.434-.467.434h-.316c-.258 0-.467-.194-.467-.434v-.382Zm.467 1.44c-.258 0-.467.194-.467.434v.382c0 .24.21.434.467.434h.316c.258 0 .467-.194.467-.434v-.382c0-.24-.21-.434-.467-.434h-.316Zm-.467 2.31c0-.24.21-.435.467-.435h.316c.258 0 .467.194.467.434v.382c0 .24-.21.434-.467.434h-.316c-.258 0-.467-.194-.467-.434v-.382ZM18.283 3.75h-.316c-.258 0-.467.194-.467.434v.382c0 .24.21.434.467.434h.316c.258 0 .467-.194.467-.434v-.382c0-.24-.21-.434-.467-.434Zm-.316 1.875h.316c.258 0 .467.194.467.434v.382c0 .24-.21.434-.467.434h-.316c-.258 0-.467-.194-.467-.434v-.382c0-.24.21-.434.467-.434Zm.316 1.875h-.316c-.258 0-.467.194-.467.434v.382c0 .24.21.434.467.434h.316c.258 0 .467-.194.467-.434v-.382c0-.24-.21-.434-.467-.434Zm-.316 1.875h.316c.258 0 .467.194.467.434v.382c0 .24-.21.434-.467.434h-.316c-.258 0-.467-.194-.467-.434v-.382c0-.24.21-.434.467-.434Zm.316 1.875h-.316c-.258 0-.467.194-.467.434v.382c0 .24.21.434.467.434h.316c.258 0 .467-.194.467-.434v-.382c0-.24-.21-.434-.467-.434Zm-.316 1.875h.316c.258 0 .467.194.467.434v.382c0 .24-.21.434-.467.434h-.316c-.258 0-.467-.194-.467-.434v-.382c0-.24.21-.434.467-.434ZM18.283 15h-.316c-.258 0-.467.194-.467.434v.382c0 .24.21.434.467.434h.316c.258 0 .467-.194.467-.434v-.382c0-.24-.21-.434-.467-.434ZM6.875 7.107c0-.128.104-.232.232-.232h5.786c.128 0 .232.104.232.232v5.786a.232.232 0 0 1-.232.232H7.107a.232.232 0 0 1-.232-.232V7.107Zm.232-1.482c-.818 0-1.482.664-1.482 1.482v5.786c0 .818.664 1.482 1.482 1.482h5.786c.818 0 1.482-.664 1.482-1.482V7.107c0-.818-.664-1.482-1.482-1.482H7.107Z" clip-rule="evenodd"/>
</svg>
