<svg xmlns="http://www.w3.org/2000/svg" width="20" height="20" fill="currentColor" viewBox="0 0 20 20">
  <path d="M12.003 1.257A1.25 1.25 0 0 1 13.125 2.5v.625H15c1.035 0 1.875.84 1.875 1.875v3.75a.625.625 0 1 1-1.25 0V5A.625.625 0 0 0 15 4.375h-1.875V5l-.007.128a1.25 1.25 0 0 1-1.115 1.115l-.128.007h-3.75l-.128-.007A1.25 1.25 0 0 1 6.875 5v-.625H5A.625.625 0 0 0 4.375 5v11.875c0 .345.28.625.625.625h3.75a.625.625 0 1 1 0 1.25H5a1.875 1.875 0 0 1-1.875-1.875V5c0-1.036.84-1.875 1.875-1.875h1.875V2.5c0-.647.492-1.18 1.122-1.243l.128-.007h3.75l.128.007ZM14.375 10a4.374 4.374 0 1 1 0 8.75 4.374 4.374 0 1 1 0-8.75Zm0 1.25a3.125 3.125 0 1 0 0 6.25 3.125 3.125 0 0 0 0-6.25Zm.777 1.466a.626.626 0 0 1 1.019.714l-.034.053-1.752 2.5a.626.626 0 0 1-1.025 0l-.748-1.074a.625.625 0 0 1 1.026-.715l.236.34 1.24-1.768.038-.05ZM8.125 5h3.75V2.5h-3.75V5Z"/>
</svg>
