<svg xmlns="http://www.w3.org/2000/svg" width="21" height="20" fill="currentColor" viewBox="0 0 21 20">
  <path d="M11.732 1.257A1.25 1.25 0 0 1 12.854 2.5v.625h1.875c1.035 0 1.875.84 1.875 1.875v3.75a.625.625 0 1 1-1.25 0V5a.625.625 0 0 0-.625-.625h-1.875V5l-.007.128a1.25 1.25 0 0 1-1.115 1.115l-.128.007h-3.75l-.127-.007A1.25 1.25 0 0 1 6.604 5v-.625H4.729A.625.625 0 0 0 4.104 5v11.875c0 .345.28.625.625.625h3.75a.625.625 0 1 1 0 1.25h-3.75a1.875 1.875 0 0 1-1.875-1.875V5c0-1.035.84-1.875 1.875-1.875h1.875V2.5c0-.647.492-1.18 1.123-1.243l.127-.007h3.75l.128.007Zm3.364 9.32a1.99 1.99 0 0 1 2.802 0 1.976 1.976 0 0 1 0 2.799l-4.79 4.787a.606.606 0 0 1-.288.162l-1.519.381a1.341 1.341 0 0 1-.313.038v.006c-.33 0-.65-.132-.887-.37a1.238 1.238 0 0 1-.331-1.198h-.007l.382-1.519a.597.597 0 0 1 .162-.287l4.789-4.8Zm1.92.887a.725.725 0 0 0-1.031 0l-4.671 4.668-.338 1.35v.005l1.376-.33 4.664-4.662a.736.736 0 0 0 0-1.031ZM7.854 5h3.75V2.5h-3.75V5Z"/>
</svg>
