<svg xmlns="http://www.w3.org/2000/svg" width="20" height="20" fill="currentColor" viewBox="0 0 20 20">
  <path fill-rule="evenodd" d="M10.625 1.428h.002l6.784 3.97a.48.48 0 0 1 .068.034c.866.5.855 1.75.006 2.252l-6.807 4.012a1.28 1.28 0 0 1-1.303.001h-.001L2.52 7.686h-.002c-.864-.501-.852-1.75-.004-2.252h.001l6.806-4.006a1.28 1.28 0 0 1 1.303-.001Zm6.244 5.1a.478.478 0 0 1-.018-.01l-6.86-4.013a.033.033 0 0 0-.017-.005.033.033 0 0 0-.017.005L3.15 6.511a.047.047 0 0 0-.018.018.07.07 0 0 0-.008.033c0 .014.003.024.007.03a.033.033 0 0 0 .014.013l.003.002 6.86 4.013a.034.034 0 0 0 .017.005c.004 0 .01-.001.017-.005l6.806-4.012a.048.048 0 0 0 .018-.018.07.07 0 0 0 .008-.033.065.065 0 0 0-.006-.03Z" clip-rule="evenodd"/>
  <path fill-rule="evenodd" d="M16.124 12.18a.625.625 0 0 1 .857-.217l.483.288c.859.505.847 1.757.002 2.261L10.66 18.57a1.275 1.275 0 0 1-1.309 0l-6.854-4.053-.001-.001c-.86-.505-.85-1.757-.004-2.262l.485-.29a.625.625 0 1 1 .64 1.074l-.484.289a.05.05 0 0 0-.02.02.083.083 0 0 0-.009.039c0 .016.004.029.008.036.003.005.007.01.016.015l.003.002 6.86 4.057a.028.028 0 0 0 .014.005c.003 0 .008 0 .015-.005l6.805-4.056a.05.05 0 0 0 .02-.02.083.083 0 0 0 .01-.039.077.077 0 0 0-.009-.036.037.037 0 0 0-.016-.015l-.004-.003-.485-.29a.625.625 0 0 1-.217-.856Z" clip-rule="evenodd"/>
  <path fill-rule="evenodd" d="M16.13 9.025a.625.625 0 0 1 .842-.268l.484.25a1.204 1.204 0 0 1 .011 2.158l-6.787 3.622c-.375.194-.85.207-1.246 0L2.555 11.23a1.204 1.204 0 0 1-.01-2.158l.484-.256a.625.625 0 1 1 .584 1.106l-.429.226 6.83 3.53c.006.003.02.008.042.008a.115.115 0 0 0 .048-.01l6.724-3.587-.43-.222a.625.625 0 0 1-.269-.843Z" clip-rule="evenodd"/>
</svg>
