<svg xmlns="http://www.w3.org/2000/svg" width="20" height="20" fill="currentColor" viewBox="0 0 20 20">
  <path fill-rule="evenodd" d="M1.25 10c0-5.045 4.312-9.068 9.414-8.749 2.489.158 4.581 1.411 6.073 3.198 1.159 1.376 1.897 2.964 2.012 4.888.219 3.558-1.664 6.896-4.586 8.466-2.161 1.167-4.788-.4-4.788-2.859v-.63c-1.406-.275-2.5-1.461-2.5-2.932V10.6c-.7-.123-1.25-.72-1.25-1.468v-.141c0-.84.695-1.492 1.516-1.492h.984V5.625a.625.625 0 0 1 1.25 0V7.5h1.25V5.625a.625.625 0 0 1 1.25 0V7.5h.985c.82 0 1.515.652 1.515 1.492v.141c0 .748-.55 1.345-1.25 1.468v.78c0 1.472-1.095 2.658-2.5 2.934v.63c0 1.513 1.618 2.476 2.945 1.757h.002c2.48-1.333 4.119-4.204 3.93-7.289-.097-1.62-.71-2.958-1.72-4.158l-.003-.002c-1.307-1.568-3.098-2.621-5.194-2.754C6.192 2.224 2.5 5.687 2.5 10c0 3.156 1.868 5.798 4.612 6.921a.626.626 0 0 1-.474 1.158C3.432 16.766 1.25 13.673 1.25 10Zm6.875 1.382c0 .93.809 1.743 1.875 1.743 1.066 0 1.875-.813 1.875-1.743v-.757h-3.75v.757ZM7.141 8.75c-.163 0-.266.124-.266.242v.141c0 .118.103.242.266.242h5.719c.162 0 .265-.124.265-.242v-.141c0-.118-.103-.242-.265-.242H7.14Z" clip-rule="evenodd"/>
</svg>
