<svg xmlns="http://www.w3.org/2000/svg" width="20" height="20" fill="currentColor" viewBox="0 0 20 20">
  <g clip-path="url(#a)">
    <path d="M4.938 10.625c.424 0 .816.231 1.028.605l1.437 2.54a1.23 1.23 0 0 1 0 1.21l-1.437 2.54a1.184 1.184 0 0 1-1.028.605H2.062c-.424 0-.816-.231-1.028-.605l-1.437-2.54a1.232 1.232 0 0 1 0-1.21l1.437-2.54a1.183 1.183 0 0 1 1.028-.605h2.876Zm-4.314 3.75 1.438 2.54h2.876l1.438-2.54-1.438-2.54H2.062l-1.438 2.54Zm14.876-7.5c.424 0 .816.231 1.028.605l1.438 2.54a1.23 1.23 0 0 1 0 1.21l-1.438 2.54a1.184 1.184 0 0 1-1.028.605h-2.876c-.424 0-.815-.231-1.027-.605l-1.438-2.54a1.232 1.232 0 0 1 0-1.21l1.438-2.54a1.184 1.184 0 0 1 1.027-.605H15.5Zm-4.313 3.75 1.437 2.54H15.5l1.439-2.54-1.439-2.54h-2.876l-1.437 2.54ZM8 1.875c.424 0 .816.231 1.028.605l1.438 2.54a1.23 1.23 0 0 1 0 1.21L9.028 8.77A1.184 1.184 0 0 1 8 9.375H5.124c-.424 0-.815-.231-1.027-.605L2.659 6.23a1.232 1.232 0 0 1 0-1.21l1.438-2.54a1.184 1.184 0 0 1 1.027-.605H8Zm-4.313 3.75 1.437 2.54H8l1.439-2.54L8 3.085H5.124l-1.437 2.54Z"/>
  </g>
  <defs>
    <clipPath id="a">
      <path d="M0 0h20v20H0z"/>
    </clipPath>
  </defs>
</svg>
