<svg xmlns="http://www.w3.org/2000/svg" width="20" height="20" fill="currentColor" viewBox="0 0 20 20">
  <path fill-rule="evenodd" d="M16.65 3.858a33.171 33.171 0 0 1-6.11-2.51 1.148 1.148 0 0 0-1.106 0A32.995 32.995 0 0 1 3.33 3.865a1.18 1.18 0 0 0-.872 1.125v6.988c0 .954.431 1.82 1.015 2.56.586.743 1.364 1.408 2.152 1.972 1.579 1.13 3.297 1.926 3.899 2.19l.01.004c.294.122.618.122.912 0l.012-.005c.597-.263 2.316-1.06 3.894-2.189.79-.564 1.568-1.229 2.154-1.971.584-.74 1.016-1.607 1.016-2.56V4.982c0-.552-.388-.979-.864-1.123l-.008-.002Zm-7.216-2.51-.004.003.303.547-.296-.55h-.003ZM3.708 5.056a34.268 34.268 0 0 0 6.28-2.584 34.464 34.464 0 0 0 6.284 2.579v6.927c0 .57-.26 1.168-.747 1.786-.486.616-1.162 1.202-1.9 1.73-1.445 1.033-3.036 1.78-3.635 2.045-.6-.265-2.192-1.01-3.637-2.045-.738-.528-1.413-1.114-1.898-1.73-.488-.617-.747-1.217-.747-1.786V5.055Zm7.17.509c-.304-.812-1.452-.812-1.756 0l-.797 2.13-2.273.1c-.866.038-1.22 1.13-.542 1.67l1.78 1.417-.608 2.192c-.232.835.698 1.51 1.421 1.032L10 12.85l1.897 1.255c.723.479 1.653-.197 1.42-1.032l-.607-2.192 1.78-1.417c.679-.54.324-1.632-.542-1.67l-2.273-.1-.797-2.13ZM9.424 8.326 10 6.785l.576 1.541a.938.938 0 0 0 .838.609l1.644.071-1.288 1.025a.938.938 0 0 0-.32.984l.44 1.586-1.373-.908a.937.937 0 0 0-1.034 0l-1.373.908.44-1.586a.938.938 0 0 0-.32-.984L6.942 9.006l1.644-.071a.938.938 0 0 0 .838-.609Z" clip-rule="evenodd"/>
</svg>
