<svg xmlns="http://www.w3.org/2000/svg" width="20" height="20" fill="currentColor" viewBox="0 0 20 20">
  <path fill-rule="evenodd" d="M10.54 1.348a33.171 33.171 0 0 0 6.11 2.51l.008.002c.476.144.864.571.864 1.123v6.994c0 .954-.432 1.821-1.016 2.56-.586.743-1.365 1.408-2.154 1.972-1.579 1.13-3.297 1.926-3.894 2.189l-.012.005a1.18 1.18 0 0 1-.912 0l-.01-.005c-.602-.263-2.32-1.06-3.899-2.189-.788-.564-1.566-1.229-2.152-1.971-.584-.74-1.015-1.607-1.015-2.56v-6.99c0-.54.377-.985.872-1.125a32.989 32.989 0 0 0 6.107-2.517l.296.55-.303-.546a1.148 1.148 0 0 1 1.11-.003Zm-.553 1.123a34.268 34.268 0 0 1-6.279 2.584v6.922c0 .57.26 1.168.747 1.787.485.615 1.16 1.201 1.898 1.729 1.445 1.034 3.037 1.78 3.637 2.045.6-.265 2.19-1.012 3.635-2.045.738-.528 1.414-1.114 1.9-1.73.488-.618.747-1.217.747-1.786V5.05a34.464 34.464 0 0 1-6.285-2.58Z" clip-rule="evenodd"/>
  <path fill-rule="evenodd" d="M9.122 5.564c.304-.812 1.452-.812 1.756 0l.797 2.13 2.273.1c.866.038 1.221 1.13.542 1.67l-1.78 1.416.608 2.193c.232.835-.698 1.51-1.42 1.032L10 12.85l-1.897 1.255c-.723.479-1.653-.197-1.42-1.032l.607-2.193-1.78-1.416c-.679-.54-.324-1.632.542-1.67l2.273-.1.797-2.13ZM10 6.784l-.576 1.542a.937.937 0 0 1-.838.608l-1.644.072 1.288 1.025a.94.94 0 0 1 .32.984l-.44 1.586 1.373-.908a.937.937 0 0 1 1.034 0l1.373.908-.44-1.586a.937.937 0 0 1 .32-.984l1.288-1.025-1.644-.072a.938.938 0 0 1-.838-.608L10 6.784Z" clip-rule="evenodd"/>
</svg>
