<svg xmlns="http://www.w3.org/2000/svg" width="20" height="20" fill="currentColor" viewBox="0 0 20 20">
  <path fill-rule="evenodd" d="M9.167 3.75a1.04 1.04 0 0 0-1.042 1.042V5h3.75v-.208a1.04 1.04 0 0 0-1.042-1.042H9.167ZM6.875 4.792V5H3.651A2.396 2.396 0 0 0 1.25 7.39v7.72a2.396 2.396 0 0 0 2.4 2.39h12.7c1.322 0 2.4-1.067 2.4-2.39V7.39A2.396 2.396 0 0 0 16.35 5h-3.225v-.208A2.29 2.29 0 0 0 10.833 2.5H9.167a2.29 2.29 0 0 0-2.292 2.292ZM17.5 9.375V7.39c0-.626-.512-1.14-1.15-1.14H3.65c-.638 0-1.15.514-1.15 1.14v1.985c0 .992.884 1.875 2.084 1.875h10.832c1.2 0 2.084-.883 2.084-1.875Zm-15 2.44a3.484 3.484 0 0 0 2.084.685h10.832c.777 0 1.506-.254 2.084-.685v3.295c0 .626-.512 1.14-1.15 1.14H3.65c-.638 0-1.15-.514-1.15-1.14v-3.295Z" clip-rule="evenodd"/>
</svg>
