<svg xmlns="http://www.w3.org/2000/svg" width="20" height="20" fill="currentColor" viewBox="0 0 20 20">
  <path fill-rule="evenodd" d="M3.65 6.25c-.638 0-1.15.514-1.15 1.14v7.72c0 .626.512 1.14 1.15 1.14h12.7c.638 0 1.15-.514 1.15-1.14V7.39c0-.626-.512-1.14-1.15-1.14H3.65Zm-2.4 1.14A2.396 2.396 0 0 1 3.65 5h12.7c1.322 0 2.4 1.067 2.4 2.39v7.72a2.396 2.396 0 0 1-2.4 2.39H3.65a2.396 2.396 0 0 1-2.4-2.39V7.39Z" clip-rule="evenodd"/>
  <path fill-rule="evenodd" d="M9.167 3.75a1.04 1.04 0 0 0-1.042 1.042v.833a.625.625 0 1 1-1.25 0v-.833A2.29 2.29 0 0 1 9.167 2.5h1.666a2.29 2.29 0 0 1 2.292 2.292v.833a.625.625 0 1 1-1.25 0v-.833a1.04 1.04 0 0 0-1.042-1.042H9.167Zm-7.292 5c.345 0 .625.28.625.625 0 .992.884 1.875 2.084 1.875h10.832c1.2 0 2.084-.883 2.084-1.875a.625.625 0 1 1 1.25 0c0 1.775-1.541 3.125-3.334 3.125H4.584c-1.793 0-3.334-1.35-3.334-3.125 0-.345.28-.625.625-.625Z" clip-rule="evenodd"/>
</svg>
