<svg xmlns="http://www.w3.org/2000/svg" width="20" height="20" fill="currentColor" viewBox="0 0 20 20">
  <path fill-rule="evenodd" d="M4.375 3.435c0-.525.42-.935.901-.935H15.35c.48 0 .901.41.901.935v4.69a.625.625 0 1 0 1.25 0v-4.69c0-1.19-.955-2.185-2.151-2.185H5.276c-1.196 0-2.151.996-2.151 2.185V5H2.5a.625.625 0 1 0 0 1.25H5A.625.625 0 1 0 5 5h-.625V3.435Zm0 12.783a.625.625 0 1 0-1.25 0v.347c0 1.19.955 2.185 2.151 2.185h4.099a.625.625 0 1 0 0-1.25H5.276c-.48 0-.901-.41-.901-.935v-.347Zm0-4.343a.625.625 0 1 0-1.25 0v1.875H2.5a.625.625 0 1 0 0 1.25H5a.625.625 0 1 0 0-1.25h-.625v-1.875ZM2.5 9.375a.625.625 0 1 0 0 1.25H5a.625.625 0 1 0 0-1.25h-.625V7.5a.625.625 0 1 0-1.25 0v1.875H2.5ZM15 11.25c-.64 0-1.25.584-1.25 1.41v.497a24.24 24.24 0 0 1 2.5 0v-.496a1.51 1.51 0 0 0-.388-1.018A1.164 1.164 0 0 0 15 11.25Zm2.483 2.023a.63.63 0 0 0 .017-.148v-.464a2.76 2.76 0 0 0-.713-1.86l-.004-.004A2.414 2.414 0 0 0 15 10c-1.426 0-2.5 1.242-2.5 2.66v.465c0 .051.006.1.018.148a.89.89 0 0 0-.643.856v3.617c0 .427.305.818.76.88l.013.002c1.4.163 3.31.163 4.704 0l.016-.002a.888.888 0 0 0 .757-.88V14.13a.886.886 0 0 0-.642-.856Zm-4.358 4.148v-2.967a22.297 22.297 0 0 1 3.75 0v2.967a22.297 22.297 0 0 1-3.75 0Z" clip-rule="evenodd"/>
</svg>
