<svg xmlns="http://www.w3.org/2000/svg" width="20" height="20" fill="currentColor" viewBox="0 0 20 20">
  <path fill-rule="evenodd" d="M3.75 3.435c0-.525.42-.935.901-.935h10.073c.48 0 .901.41.901.935v4.69a.625.625 0 1 0 1.25 0v-4.69c0-1.19-.955-2.185-2.151-2.185H4.65c-1.196 0-2.151.996-2.151 2.185V5h-.625a.625.625 0 1 0 0 1.25h2.5a.625.625 0 1 0 0-1.25H3.75V3.435Zm0 12.783a.625.625 0 1 0-1.25 0v.347c0 1.19.955 2.185 2.151 2.185h3.474a.625.625 0 1 0 0-1.25H4.651c-.48 0-.901-.41-.901-.935v-.347ZM1.875 9.375a.625.625 0 1 0 0 1.25h2.5a.625.625 0 1 0 0-1.25H3.75V7.5a.625.625 0 1 0-1.25 0v1.875h-.625Zm0 4.375a.625.625 0 1 0 0 1.25h2.5a.625.625 0 1 0 0-1.25H3.75v-1.875a.625.625 0 1 0-1.25 0v1.875h-.625Zm8.125.625a4.375 4.375 0 1 1 8.75 0 4.375 4.375 0 0 1-8.75 0Zm4.375-3.125a3.125 3.125 0 1 0 0 6.25 3.125 3.125 0 0 0 0-6.25Zm1.762 2.234a.625.625 0 0 0-1.024-.718l-1.239 1.768-.236-.34a.625.625 0 1 0-1.026.715l.748 1.073a.625.625 0 0 0 1.025.002l1.752-2.5Z" clip-rule="evenodd"/>
</svg>
