<svg xmlns="http://www.w3.org/2000/svg" width="20" height="20" fill="currentColor" viewBox="0 0 20 20">
  <path fill-rule="evenodd" d="M2.5 10c0-.345.28-.625.625-.625h2.5a.625.625 0 1 1 0 1.25h-2.5A.625.625 0 0 1 2.5 10Z" clip-rule="evenodd"/>
  <path fill-rule="evenodd" d="M4.375 6.875c.345 0 .625.28.625.625V10a.625.625 0 1 1-1.25 0V7.5c0-.345.28-.625.625-.625ZM2.5 5.625c0-.345.28-.625.625-.625h2.5a.625.625 0 1 1 0 1.25h-2.5a.625.625 0 0 1-.625-.625Zm0 8.75c0-.345.28-.625.625-.625h2.5a.625.625 0 1 1 0 1.25h-2.5a.625.625 0 0 1-.625-.625Z" clip-rule="evenodd"/>
  <path fill-rule="evenodd" d="M4.375 11.25c.345 0 .625.28.625.625v1.875a.625.625 0 1 1-1.25 0v-1.875c0-.345.28-.625.625-.625Zm2.5-3.125c0-.345.28-.625.625-.625h1.875a.625.625 0 1 1 0 1.25H7.5a.625.625 0 0 1-.625-.625Zm0 5.625c0-.345.28-.625.625-.625h1.875a.625.625 0 1 1 0 1.25H7.5a.625.625 0 0 1-.625-.625Zm0-1.875c0-.345.28-.625.625-.625h1.875a.625.625 0 1 1 0 1.25H7.5a.625.625 0 0 1-.625-.625Zm0-5.625c0-.345.28-.625.625-.625h1.875a.625.625 0 1 1 0 1.25H7.5a.625.625 0 0 1-.625-.625Z" clip-rule="evenodd"/>
  <path fill-rule="evenodd" d="M5.901 2.5c-.48 0-.901.41-.901.935v2.086a.625.625 0 1 1-1.25 0V3.435c0-1.19.955-2.185 2.151-2.185h10.073c1.196 0 2.151.996 2.151 2.185v13.13c0 1.19-.955 2.185-2.151 2.185H5.9c-1.196 0-2.151-.996-2.151-2.185v-.347a.625.625 0 1 1 1.25 0v.347c0 .525.42.935.901.935h10.073c.48 0 .901-.41.901-.935V3.435c0-.525-.42-.935-.901-.935H5.9Z" clip-rule="evenodd"/>
  <path fill-rule="evenodd" d="M11.916 5.625a.041.041 0 0 0-.041.041v2.418a.04.04 0 0 0 .041.041h2.418a.041.041 0 0 0 .041-.041V5.666a.041.041 0 0 0-.041-.041h-2.418Zm-1.291.041c0-.713.578-1.291 1.291-1.291h2.418c.713 0 1.291.578 1.291 1.291v2.418c0 .713-.578 1.291-1.291 1.291h-2.418a1.291 1.291 0 0 1-1.291-1.291V5.666Zm1.291 6.209a.041.041 0 0 0-.041.041v2.418a.04.04 0 0 0 .041.041h2.418a.041.041 0 0 0 .041-.041v-2.418a.041.041 0 0 0-.041-.041h-2.418Zm-1.291.041c0-.713.578-1.291 1.291-1.291h2.418c.713 0 1.291.578 1.291 1.291v2.418c0 .713-.578 1.291-1.291 1.291h-2.418a1.291 1.291 0 0 1-1.291-1.291v-2.418Z" clip-rule="evenodd"/>
</svg>
