<svg xmlns="http://www.w3.org/2000/svg" width="20" height="20" fill="currentColor" viewBox="0 0 20 20">
  <path fill-rule="evenodd" d="M5.86 7.063C5.987 4.862 7.796 3.125 10 3.125a4.147 4.147 0 0 1 3.854 2.636 3.253 3.253 0 0 0-.989.493.625.625 0 0 0 .738 1.008c.31-.225.726-.403 1.331-.403.614 0 1.254.311 1.754.853.498.539.812 1.261.812 2 0 1.049-.237 1.912-.654 2.495-.398.557-.99.902-1.846.902a.625.625 0 1 0 0 1.25c1.255 0 2.227-.536 2.863-1.425.617-.862.887-2.01.887-3.222 0-1.087-.457-2.105-1.143-2.848-.641-.694-1.52-1.19-2.478-1.25-.704-2.166-2.73-3.739-5.129-3.739-2.842 0-5.163 2.209-5.38 5.007-.364 0-.703.067-1.035.2A3.733 3.733 0 0 0 1.25 10.52c0 2.078 1.64 3.839 3.752 3.839a.625.625 0 1 0 0-1.25c-1.38 0-2.502-1.158-2.502-2.589 0-.97.607-1.897 1.552-2.278.298-.12.624-.156 1.113-.037a.626.626 0 0 0 .034.007l.45.083a.625.625 0 1 0 .227-1.229l-.016-.003Zm2.265 6.766v2.967a22.36 22.36 0 0 0 3.75 0V13.83a22.297 22.297 0 0 0-3.75 0Zm4.357-1.181a.63.63 0 0 0 .018-.148v-.464a2.76 2.76 0 0 0-.713-1.86l-.004-.004A2.414 2.414 0 0 0 10 9.375c-1.426 0-2.5 1.242-2.5 2.66v.465c0 .051.006.1.018.148a.89.89 0 0 0-.643.856v3.617c0 .427.305.818.76.88l.013.002c1.4.163 3.31.163 4.704 0l.016-.002a.888.888 0 0 0 .757-.88v-3.617a.886.886 0 0 0-.643-.856Zm-1.231-.116-.001-.032v-.464a1.51 1.51 0 0 0-.388-1.018 1.164 1.164 0 0 0-.862-.393c-.64 0-1.25.584-1.25 1.41v.497a24.24 24.24 0 0 1 2.5 0Z" clip-rule="evenodd"/>
</svg>
