<svg xmlns="http://www.w3.org/2000/svg" width="20" height="20" fill="currentColor" viewBox="0 0 20 20">
  <path d="M14.375 10a4.375 4.375 0 1 1 0 8.749 4.375 4.375 0 0 1 0-8.75ZM2.312 11.959a.626.626 0 1 1 .626 1.082l-.421.243 6.258 3.588a.63.63 0 0 1 .085-.04l.302-.115a.626.626 0 0 1 .444 1.17l-.268.1a1.237 1.237 0 0 1-1.184-.03l-6.285-3.603.001-.001c-.832-.474-.82-1.664-.003-2.138l.445-.256Zm12.063-.71a3.125 3.125 0 1 0 0 6.25 3.125 3.125 0 0 0 0-6.25Zm.884 1.358a.625.625 0 0 1 .884.884l-.884.883.884.884a.625.625 0 0 1-.884.884l-.884-.884-.883.884a.625.625 0 0 1-.884-.884l.883-.883-.883-.884a.625.625 0 1 1 .883-.884l.884.884.884-.884ZM2.332 8.262a.626.626 0 0 1 .615 1.09l-.417.233 6.414 3.538a.625.625 0 1 1-.604 1.093L1.888 10.66a1.222 1.222 0 0 1-.01-2.142l.454-.256Zm5.915-6.914a1.216 1.216 0 0 1 1.106.076l6.223 3.705c.02.01.041.02.061.032.822.484.81 1.683.005 2.169h-.001l-6.238 3.745a1.217 1.217 0 0 1-1.256 0L1.86 7.333V7.33c-.82-.486-.808-1.683-.002-2.167v-.001l6.239-3.739.15-.076ZM2.502 6.234h.001l-.003.015.001.008 6.272 3.737 6.224-3.736A.032.032 0 0 0 15 6.245v-.003L8.725 2.504l-6.224 3.73Z"/>
</svg>
