<svg xmlns="http://www.w3.org/2000/svg" width="20" height="20" fill="currentColor" viewBox="0 0 20 20">
  <path fill-rule="evenodd" d="M2.84 4.338a.376.376 0 0 0-.385.365v3.719c0 .188.16.365.385.365h1.223c.332 0 .602.271.602.606 0 .335-.27.607-.603.607H2.84c-.864 0-1.59-.694-1.59-1.578V4.703c0-.884.726-1.578 1.59-1.578h3.432c.333 0 .603.272.603.607 0 .335-.27.606-.603.606H2.84Z" clip-rule="evenodd"/>
  <path fill-rule="evenodd" d="M3.16 7.722a.737.737 0 0 1 .935.021l1.358 1.235a.516.516 0 0 1 0 .786L4.095 11a.737.737 0 0 1-.935.021.517.517 0 0 1-.024-.807l.926-.842-.926-.842a.517.517 0 0 1 .024-.807Zm13.988 2.866c.18 0 .352.15.352.365v3.719a.36.36 0 0 1-.352.365h-1.21a.616.616 0 0 0-.626.606c0 .335.28.607.626.607h1.21a1.59 1.59 0 0 0 1.602-1.578v-3.719a1.59 1.59 0 0 0-1.602-1.578H13.75a.616.616 0 0 0-.625.607c0 .335.28.606.625.606h3.398Z" clip-rule="evenodd"/>
  <path fill-rule="evenodd" d="M16.812 13.952a.708.708 0 0 0-.93.022l-1.317 1.254a.555.555 0 0 0 0 .82l1.317 1.254c.25.239.667.248.93.022a.556.556 0 0 0 .024-.841l-.887-.845.887-.845a.556.556 0 0 0-.024-.841ZM6.25 2.5c0-.69.56-1.25 1.25-1.25h5c.69 0 1.25.56 1.25 1.25V5c0 .69-.56 1.25-1.25 1.25h-5c-.69 0-1.25-.56-1.25-1.25V2.5Zm6.25 0h-5V5h5V2.5ZM6.25 8.75c0-.69.56-1.25 1.25-1.25h5c.69 0 1.25.56 1.25 1.25v2.5c0 .69-.56 1.25-1.25 1.25h-5c-.69 0-1.25-.56-1.25-1.25v-2.5Zm6.25 0h-5v2.5h5v-2.5ZM6.25 15c0-.69.56-1.25 1.25-1.25h5c.69 0 1.25.56 1.25 1.25v2.5c0 .69-.56 1.25-1.25 1.25h-5c-.69 0-1.25-.56-1.25-1.25V15Zm6.25 0h-5v2.5h5V15Z" clip-rule="evenodd"/>
</svg>
