<svg xmlns="http://www.w3.org/2000/svg" width="20" height="20" fill="currentColor" viewBox="0 0 20 20">
  <path fill-rule="evenodd" d="M12.5 13.75c.69 0 1.25.56 1.25 1.25v2.5c0 .69-.56 1.25-1.25 1.25h-5a1.25 1.25 0 0 1-1.243-1.122L6.25 17.5V15c0-.69.56-1.25 1.25-1.25h5Zm-5 3.75h5V15h-5v2.5Z" clip-rule="evenodd"/>
  <path fill-rule="evenodd" d="M12.5 7.5c.69 0 1.25.56 1.25 1.25v.625h3.398c.937 0 1.602.816 1.602 1.698v4.104c0 .882-.665 1.698-1.602 1.698h-.64l.184.183a.625.625 0 1 1-.884.884l-1.25-1.25a.625.625 0 0 1 0-.884l1.25-1.25.048-.043a.625.625 0 0 1 .879.88l-.043.047-.183.183h.639c.14 0 .352-.145.352-.448v-4.104c0-.303-.212-.448-.352-.448H13.75v.625c0 .69-.56 1.25-1.25 1.25h-5a1.25 1.25 0 0 1-1.243-1.122l-.007-.128v-2.5c0-.69.56-1.25 1.25-1.25h5Zm-5 3.75h5v-2.5h-5v2.5Z" clip-rule="evenodd"/>
  <path fill-rule="evenodd" d="M12.5 1.25c.69 0 1.25.56 1.25 1.25V5c0 .69-.56 1.25-1.25 1.25h-5a1.25 1.25 0 0 1-1.243-1.122L6.25 5v-.625H2.852c-.14 0-.352.145-.352.448v4.104c0 .303.212.448.352.448h.64l-.184-.183-.043-.048a.625.625 0 0 1 .88-.879l.047.043 1.25 1.25a.625.625 0 0 1 0 .884l-1.25 1.25a.625.625 0 1 1-.884-.884l.183-.183h-.639c-.937 0-1.602-.816-1.602-1.698V4.823c0-.882.665-1.698 1.602-1.698H6.25V2.5c0-.69.56-1.25 1.25-1.25h5ZM7.5 5h5V2.5h-5V5Z" clip-rule="evenodd"/>
</svg>
