<svg xmlns="http://www.w3.org/2000/svg" width="20" height="20" fill="currentColor" viewBox="0 0 20 20">
  <path fill-rule="evenodd" d="M7.5 1.25c-.69 0-1.25.56-1.25 1.25v.625H2.84c-.864 0-1.59.694-1.59 1.578v3.719c0 .884.726 1.578 1.59 1.578h.53l-.234.213a.517.517 0 0 0 .024.807.737.737 0 0 0 .935-.02l1.358-1.236a.516.516 0 0 0 0-.786L4.095 7.743a.737.737 0 0 0-.935-.02.517.517 0 0 0-.024.806l.284.258h-.58a.376.376 0 0 1-.385-.365V4.703c0-.188.16-.365.385-.365h3.41V5c0 .69.56 1.25 1.25 1.25h5c.69 0 1.25-.56 1.25-1.25V2.5c0-.69-.56-1.25-1.25-1.25h-5Zm0 1.25h5V5h-5V2.5Zm10 8.453a.36.36 0 0 0-.352-.365H13.75v.662c0 .69-.56 1.25-1.25 1.25h-5c-.69 0-1.25-.56-1.25-1.25v-2.5c0-.69.56-1.25 1.25-1.25h5c.69 0 1.25.56 1.25 1.25v.625h3.398c.898 0 1.602.72 1.602 1.578v3.719a1.59 1.59 0 0 1-1.602 1.578h-.556l.244.233c.25.238.24.615-.024.841a.708.708 0 0 1-.93-.022l-1.317-1.254a.555.555 0 0 1 0-.82l1.317-1.254a.708.708 0 0 1 .93-.022.556.556 0 0 1 .024.841l-.256.244h.568a.36.36 0 0 0 .352-.365v-3.719Zm-5-2.203h-5v2.5h5v-2.5Zm-5 5c-.69 0-1.25.56-1.25 1.25v2.5c0 .69.56 1.25 1.25 1.25h5c.69 0 1.25-.56 1.25-1.25V15c0-.69-.56-1.25-1.25-1.25h-5Zm0 1.25h5v2.5h-5V15Z" clip-rule="evenodd"/>
</svg>
