<svg xmlns="http://www.w3.org/2000/svg" width="20" height="20" fill="currentColor" viewBox="0 0 20 20">
  <path fill-rule="evenodd" d="M5.877 16.094c.169.1.369.156.563.156h.006a1.1 1.1 0 0 0 .95-.575l.557-1.012c.269.037.538.056.8.056.274 0 .412-.024.587-.054l.013-.002.125-.025a.627.627 0 0 0 .513-.719.62.62 0 0 0-.719-.512l-.137.025a1.568 1.568 0 0 1-.388.038c-.238 0-.482-.02-.713-.057a1.088 1.088 0 0 0-1.132.556l-.531.963-1.526-.925.557-1.012a1.151 1.151 0 0 0-.094-1.237 5.033 5.033 0 0 1-.732-1.331 1.084 1.084 0 0 0-1.025-.731H2.488v-1.9h1.063c.45 0 .863-.293 1.02-.724.174-.494.424-.944.737-1.344a1.13 1.13 0 0 0 .087-1.23L4.84 3.484l1.526-.924.531.962c.225.406.675.63 1.126.556a4.442 4.442 0 0 1 1.438 0c.45.081.906-.144 1.131-.556l.532-.962 1.526.924-.557 1.012c-.213.394-.175.888.094 1.238.312.406.556.856.731 1.33.15.438.563.731 1.026.731h.994l-.225.775a.62.62 0 0 0 .425.775c.331.1.682-.094.775-.425l.313-1.08.025-.176c0-.618-.488-1.118-1.094-1.118h-1.1a6.13 6.13 0 0 0-.832-1.512L13.8 3.99a1.135 1.135 0 0 0-.394-1.512l-1.782-1.074a1.09 1.09 0 0 0-.838-.12 1.1 1.1 0 0 0-.675.538l-.557 1.012a5.723 5.723 0 0 0-1.6 0l-.557-1.012a1.102 1.102 0 0 0-.675-.53 1.067 1.067 0 0 0-.838.118L4.095 2.498A1.138 1.138 0 0 0 3.7 4.004l.575 1.043a6.021 6.021 0 0 0-.831 1.512h-1.1c-.601 0-1.095.5-1.095 1.119v2.155c0 .619.488 1.119 1.094 1.119h1.1a6.27 6.27 0 0 0 .832 1.512L3.7 13.507a1.135 1.135 0 0 0 .394 1.512l1.782 1.075ZM9.073 6.9a1.876 1.876 0 1 0 1.526 1.526A1.876 1.876 0 0 0 9.073 6.9ZM5.668 9.274a3.126 3.126 0 1 1 2.557 2.558 3.126 3.126 0 0 1-2.557-2.558Zm11.04.926a.625.625 0 0 0-.916.85l.767.826-4.059-.001a.625.625 0 0 0 0 1.25h4.182l-.856.79a.625.625 0 1 0 .848.92l1.875-1.732a.625.625 0 0 0 .034-.884l-1.875-2.02Zm-3.158 8.383a.625.625 0 0 1-.883-.033l-1.875-2.019a.625.625 0 0 1 .034-.884l1.875-1.731a.625.625 0 1 1 .848.918l-.856.79 4.182.001a.625.625 0 0 1 0 1.25h-4.059l.767.825a.625.625 0 0 1-.033.883Z" clip-rule="evenodd"/>
</svg>
