<svg xmlns="http://www.w3.org/2000/svg" width="21" height="20" fill="currentColor" viewBox="0 0 21 20">
  <path d="M6.859 2.5a.625.625 0 1 1 0 1.25H5.92c-1.035 0-1.875.84-1.875 1.875v8.75c0 1.036.84 1.875 1.875 1.875h8.75c1.036 0 1.875-.84 1.875-1.875v-8.75c0-1.036-.84-1.875-1.875-1.875h-.937a.625.625 0 0 1 0-1.25h.937c1.726 0 3.125 1.4 3.125 3.125v8.75A3.125 3.125 0 0 1 14.67 17.5H5.92a3.125 3.125 0 0 1-3.125-3.125v-8.75c0-1.726 1.4-3.125 3.125-3.125h.938Zm6.002 11.253a.625.625 0 0 1 0 1.244l-.065.003h-5a.625.625 0 1 1 0-1.25h5l.065.003Zm1.185-1.878a.625.625 0 1 1 0 1.25h-7.5a.625.625 0 1 1 0-1.25h7.5ZM10.298 2.5a.62.62 0 0 1 .178.03l.037.01a.605.605 0 0 1 .062.028l.036.018c.021.012.04.027.06.042.007.005.015.008.022.014l.01.01a.657.657 0 0 1 .026.023l.01.008 3.124 3.125a.625.625 0 0 1-.883.883l-2.058-2.056V10a.625.625 0 0 1-1.25 0V4.632l-2.058 2.06-.048.042a.624.624 0 0 1-.88-.879l.044-.047 3.125-3.125.045-.041c.016-.014.035-.025.052-.037l.02-.012a.618.618 0 0 1 .077-.04l.024-.011a.43.43 0 0 1 .07-.02c.014-.004.029-.009.044-.011a.623.623 0 0 1 .11-.011v.001l.001-.001Z"/>
</svg>
