<svg xmlns="http://www.w3.org/2000/svg" width="20" height="20" fill="currentColor" viewBox="0 0 20 20">
  <path d="M14.375 10a4.375 4.375 0 1 1 0 8.75 4.375 4.375 0 0 1 0-8.75Zm0 1.25a3.125 3.125 0 1 0 0 6.25 3.125 3.125 0 0 0 0-6.25Zm.884 1.357a.625.625 0 1 1 .884.884l-.884.884.884.884a.625.625 0 1 1-.884.884l-.884-.884-.884.884a.625.625 0 1 1-.884-.884l.884-.884-.884-.884a.625.625 0 0 1 .884-.884l.884.884.884-.884Zm.009-11.357c1.566 0 2.857 1.25 2.857 2.814V8.75a.625.625 0 1 1-1.25 0V4.064c0-.852-.708-1.564-1.607-1.564H4.108c-.9 0-1.608.712-1.608 1.564v7.117c0 .426.162.737.412.95.26.221.654.369 1.15.369H5c.345 0 .625.28.625.625v1.79l2.725-2.27a.626.626 0 0 1 .8.96l-2.902 2.418a.637.637 0 0 1-.056.041c-.441.292-.931.192-1.254-.025A1.27 1.27 0 0 1 4.375 15v-1.25h-.313c-.736 0-1.436-.22-1.961-.668-.536-.457-.851-1.119-.851-1.901V4.064C1.25 2.5 2.54 1.25 4.107 1.25h11.16Z"/>
</svg>
