<svg xmlns="http://www.w3.org/2000/svg" width="20" height="20" fill="currentColor" viewBox="0 0 20 20">
  <path d="M10 1.25c.694 0 1.37.081 2.019.234a.625.625 0 0 1-.288 1.217 7.5 7.5 0 1 0 5.567 5.567.626.626 0 0 1 1.218-.287A8.75 8.75 0 1 1 10 1.25Zm.16 12.5c.258 0 .465.194.465.432v.386c0 .238-.207.432-.465.432h-.32c-.258 0-.465-.194-.465-.432v-.386c0-.238.207-.432.465-.432h.32ZM7.5 7.545c0-1.443 1.2-2.642 2.678-2.54 1.239.089 2.232 1.106 2.315 2.356a2.55 2.55 0 0 1-1.167 2.332l-.156.114a1.505 1.505 0 0 0-.547 1.165v.903a.625.625 0 0 1-1.25 0v-.903c0-.956.487-1.828 1.283-2.333l.07-.048c.337-.249.553-.671.52-1.144v-.003c-.043-.642-.555-1.148-1.157-1.191l-.133-.002c-.66.027-1.206.586-1.206 1.294a.625.625 0 0 1-1.25 0Zm8.125-6.295a3.126 3.126 0 0 1 0 6.25 3.126 3.126 0 0 1 0-6.25Z"/>
</svg>
