<svg xmlns="http://www.w3.org/2000/svg" width="20" height="20" fill="currentColor" viewBox="0 0 20 20">
  <path fill-rule="evenodd" d="M17.5 10a7.5 7.5 0 1 1-15 0 7.5 7.5 0 0 1 15 0Zm1.25 0a8.75 8.75 0 1 1-17.5 0 8.75 8.75 0 0 1 17.5 0Zm-8.66-3.747c-.719-.05-1.34.536-1.34 1.292a.625.625 0 1 1-1.25 0c0-1.443 1.199-2.641 2.677-2.539 1.24.088 2.233 1.104 2.317 2.354a2.55 2.55 0 0 1-1.167 2.333 1.507 1.507 0 0 0-.704 1.279v.903a.625.625 0 1 1-1.25 0v-.903c0-.956.487-1.828 1.283-2.334l-.566-2.385Zm0 0c.601.043 1.114.549 1.156 1.191v.003a1.3 1.3 0 0 1-.59 1.191l-.566-2.385Zm.535 7.928c0-.237-.207-.431-.465-.431h-.32c-.258 0-.465.194-.465.431v.388c0 .237.207.431.465.431h.32c.258 0 .465-.194.465-.431v-.388Z" clip-rule="evenodd"/>
</svg>
