<svg xmlns="http://www.w3.org/2000/svg" width="20" height="20" fill="currentColor" viewBox="0 0 20 20">
  <path d="M11.262 18.75c-.33 0-.65-.131-.887-.369a1.239 1.239 0 0 1-.331-1.2h-.007l.382-1.519a.598.598 0 0 1 .162-.287l4.788-4.8a1.988 1.988 0 0 1 2.8 0 1.977 1.977 0 0 1 0 2.8l-4.788 4.788a.604.604 0 0 1-.287.162l-1.519.381a1.336 1.336 0 0 1-.313.038v.006Zm-.012-1.269v.006l1.375-.33 4.663-4.663a.736.736 0 0 0 0-1.031.724.724 0 0 0-1.032 0l-4.668 4.668-.338 1.35Z"/>
  <path fill-rule="evenodd" d="M2.5 3.586c0-1.304 1.077-2.336 2.376-2.336h6.999l.437.178 4.375 4.276.188.447v2.287a.625.625 0 1 1-1.25 0V6.413L11.62 2.5H4.876C4.24 2.5 3.75 3 3.75 3.586v12.828c0 .587.49 1.086 1.126 1.086h3.249a.625.625 0 1 1 0 1.25H4.876c-1.299 0-2.376-1.032-2.376-2.336V3.586Z" clip-rule="evenodd"/>
  <path fill-rule="evenodd" d="M11.875 1.25c.345 0 .625.28.625.625v3.501a.25.25 0 0 0 .249.249h3.501a.625.625 0 1 1 0 1.25h-3.501a1.5 1.5 0 0 1-1.499-1.499V1.875c0-.345.28-.625.625-.625ZM5 5c0-.345.28-.625.625-.625h3.75a.625.625 0 1 1 0 1.25h-3.75A.625.625 0 0 1 5 5Zm0 2.5c0-.345.28-.625.625-.625h3.75a.625.625 0 1 1 0 1.25h-3.75A.625.625 0 0 1 5 7.5ZM5 10c0-.345.28-.625.625-.625h2.188a.625.625 0 1 1 0 1.25H5.624A.625.625 0 0 1 5 10Z" clip-rule="evenodd"/>
</svg>
