<svg xmlns="http://www.w3.org/2000/svg" width="20" height="20" fill="currentColor" viewBox="0 0 20 20">
  <path fill-rule="evenodd" d="M4.876 1.25C3.577 1.25 2.5 2.282 2.5 3.586v12.828c0 1.304 1.077 2.336 2.376 2.336h3.249a.625.625 0 1 0 0-1.25H4.876c-.636 0-1.126-.5-1.126-1.086V3.586C3.75 3 4.24 2.5 4.876 2.5h6.374v2.876a1.5 1.5 0 0 0 1.499 1.499h2.876v1.563a.625.625 0 1 0 1.25 0V6.15l-.014-.034a.621.621 0 0 0-.089-.21l-.085-.203-4.375-4.275a.623.623 0 0 0-.437-.179H4.876ZM12.5 5.376V3.36l2.318 2.265h-2.07a.25.25 0 0 1-.248-.249Z" clip-rule="evenodd"/>
  <path fill-rule="evenodd" d="M10.372 18.381c.238.238.556.369.888.369v-.006c.106 0 .206-.013.312-.038l1.52-.38a.605.605 0 0 0 .287-.163l4.79-4.787a1.976 1.976 0 0 0 0-2.8 1.99 1.99 0 0 0-2.802 0l-4.789 4.8a.598.598 0 0 0-.162.287l-.382 1.518h.007c-.113.438.012.882.331 1.2Zm.875-.893v-.006l.338-1.35 4.67-4.668a.725.725 0 0 1 1.032 0 .735.735 0 0 1 0 1.03l-4.664 4.663-1.376.33Z" clip-rule="evenodd"/>
  <path d="M5.625 4.375a.625.625 0 1 0 0 1.25h3.75a.625.625 0 1 0 0-1.25h-3.75Zm0 2.5a.625.625 0 1 0 0 1.25h3.75a.625.625 0 1 0 0-1.25h-3.75Zm0 2.5a.625.625 0 1 0 0 1.25h2.188a.625.625 0 1 0 0-1.25H5.624Z"/>
</svg>
