<svg xmlns="http://www.w3.org/2000/svg" width="20" height="20" fill="currentColor" viewBox="0 0 20 20">
  <path fill-rule="evenodd" d="M9.64 3.329 7.615 7.09a.625.625 0 0 1-.452.321l-4.324.692h-.001c-.348.057-.424.423-.226.617l3.085 3.008a.625.625 0 0 1 .18.545l-.655 4.179v.001c-.041.259.252.538.578.38l3.934-1.896a.624.624 0 0 1 .542 0l3.93 1.894h.001c.325.155.62-.123.58-.38 0-.001 0 0 0 0l-.655-4.178a.625.625 0 0 1 .181-.544l3.073-3.003c.202-.197.117-.564-.222-.617h-.002l-4.327-.692a.625.625 0 0 1-.451-.321l-2.002-3.72a.633.633 0 0 1-.028-.047c-.146-.272-.569-.271-.716 0Zm1.787-.645c-.64-1.095-2.277-1.079-2.887.05v.001l-1.878 3.49-4.022.643h-.002c-1.299.214-1.873 1.793-.9 2.746h.002l2.854 2.784-.605 3.858v.001c-.213 1.338 1.198 2.262 2.357 1.7l3.66-1.763 3.661 1.764.002.001c1.16.554 2.558-.371 2.354-1.7l-.605-3.861 2.844-2.778c.97-.95.405-2.54-.902-2.746h-.001l-4.02-.643-1.878-3.49a.64.64 0 0 0-.034-.057Z" clip-rule="evenodd"/>
</svg>
