<svg xmlns="http://www.w3.org/2000/svg" width="20" height="20" fill="currentColor" viewBox="0 0 20 20">
  <path fill-rule="evenodd" d="M6.103 2.902a.625.625 0 0 0-.956-.804L3.585 3.952c-.522.618-1.043 1.236-1.563 1.855a.625.625 0 0 0-.005.799c.52.633 1.042 1.265 1.563 1.896.522.632 1.043 1.263 1.562 1.895a.625.625 0 1 0 .966-.794c-.52-.633-1.042-1.265-1.563-1.896l-.687-.832h9c.394 0 .762.042 1.102.149 2.225.7 3.721 2.972 3.522 5.321-.179 2.05-1.608 3.812-3.546 4.39h-.003a3.62 3.62 0 0 1-1.046.14H2.5a.625.625 0 1 0 0 1.25h10.387c.456 0 .938-.05 1.408-.192 2.436-.728 4.21-2.927 4.433-5.48v-.001c.247-2.918-1.595-5.74-4.393-6.62a4.9 4.9 0 0 0-1.476-.207h-9.05l.731-.867 1.563-1.856Z" clip-rule="evenodd"/>
</svg>
