<svg xmlns="http://www.w3.org/2000/svg" width="20" height="20" fill="currentColor" viewBox="0 0 20 20">
  <path fill-rule="evenodd" d="M13.908 3.54a.625.625 0 1 1 .934-.83l2.5 2.812c.21.237.21.594 0 .83l-2.5 2.813a.625.625 0 0 1-.934-.83l1.575-1.772H8.125c-.512 0-.993.154-1.363.28-1.88.634-3.175 2.896-2.996 5.164.158 1.947 1.419 3.585 3.079 4.116h-.002.005c.01.002.039.008.093.015.075.01.172.02.288.03.23.019.512.034.788.047a48.214 48.214 0 0 0 .972.033l.064.002h7.822a.625.625 0 0 1 0 1.25h-7.85l-.067-.002a42.065 42.065 0 0 1-1.832-.085c-.22-.018-.493-.045-.664-.1-2.19-.702-3.747-2.805-3.942-5.205v-.002C2.305 9.4 3.822 6.517 6.362 5.659c.367-.124 1.024-.345 1.762-.345h7.358L13.908 3.54Z" clip-rule="evenodd"/>
</svg>
