<svg xmlns="http://www.w3.org/2000/svg" width="20" height="20" fill="currentColor" viewBox="0 0 20 20">
  <path fill-rule="evenodd" d="M13.836 4.4a.629.629 0 0 1-.104.008l-4.345-.029v4.996h4.442A2.505 2.505 0 0 1 16.25 7.5c1.378 0 2.5 1.122 2.5 2.5 0 1.379-1.122 2.5-2.5 2.5a2.505 2.505 0 0 1-2.42-1.875H9.386v5h4.373c.023 0 .046.001.068.004a2.505 2.505 0 0 1 2.422-1.879c1.378 0 2.5 1.121 2.5 2.5 0 1.378-1.122 2.5-2.5 2.5-1.164 0-2.145-.8-2.422-1.879a.641.641 0 0 1-.068.004H8.75a.625.625 0 0 1-.613-.748v-5.502H6.171A2.505 2.505 0 0 1 3.75 12.5a2.503 2.503 0 0 1-2.5-2.5c0-1.378 1.122-2.5 2.5-2.5 1.163 0 2.143.798 2.42 1.875h1.967V3.873a.625.625 0 0 1 .617-.748h.023l4.963.033c.027 0 .053.002.08.005a2.504 2.504 0 0 1 2.43-1.913c1.378 0 2.5 1.122 2.5 2.5s-1.122 2.5-2.5 2.5a2.505 2.505 0 0 1-2.414-1.85ZM15 3.75c0-.688.562-1.25 1.25-1.25s1.25.562 1.25 1.25S16.938 5 16.25 5 15 4.438 15 3.75ZM2.5 10c0-.688.562-1.25 1.25-1.25S5 9.312 5 10s-.562 1.25-1.25 1.25S2.5 10.688 2.5 10Zm13.75-1.25c-.688 0-1.25.562-1.25 1.25s.562 1.25 1.25 1.25 1.25-.562 1.25-1.25-.562-1.25-1.25-1.25ZM15 16.25c0-.688.562-1.25 1.25-1.25s1.25.562 1.25 1.25-.562 1.25-1.25 1.25S15 16.938 15 16.25Z" clip-rule="evenodd"/>
</svg>
