<svg xmlns="http://www.w3.org/2000/svg" width="20" height="20" fill="currentColor" viewBox="0 0 20 20">
  <path fill-rule="evenodd" d="M10 1.208A8.793 8.793 0 0 0 1.208 10c0 1.953.641 3.762 1.721 5.22A8.783 8.783 0 0 0 10 18.791 8.793 8.793 0 0 0 18.792 10a.625.625 0 0 0-1.25 0A7.543 7.543 0 0 1 10 17.542a7.532 7.532 0 0 1-6.066-3.066A7.493 7.493 0 0 1 2.458 10a7.543 7.543 0 0 1 12.875-5.333l.333.333h-2.541a.625.625 0 0 0 0 1.25h3.75c.345 0 .625-.28.625-.625v-.153a.628.628 0 0 0 0-.266V1.875a.625.625 0 1 0-1.25 0v1.941l-.033-.033A8.767 8.767 0 0 0 10 1.208Z" clip-rule="evenodd"/>
</svg>
