<svg xmlns="http://www.w3.org/2000/svg" width="20" height="20" fill="currentColor" viewBox="0 0 20 20">
  <path fill-rule="evenodd" d="M2.5 2.5H5V5H2.5V2.5Zm-1.25 0c0-.69.56-1.25 1.25-1.25H5c.69 0 1.25.56 1.25 1.25V5c0 .69-.56 1.25-1.25 1.25H2.5c-.69 0-1.25-.56-1.25-1.25V2.5ZM15 2.5h2.5V5H15V2.5Zm-1.25 0c0-.69.56-1.25 1.25-1.25h2.5c.69 0 1.25.56 1.25 1.25V5c0 .69-.56 1.25-1.25 1.25H15c-.69 0-1.25-.56-1.25-1.25V2.5ZM2.5 15v2.5H5V15H2.5Zm0-1.25c-.69 0-1.25.56-1.25 1.25v2.5c0 .69.56 1.25 1.25 1.25H5c.69 0 1.25-.56 1.25-1.25V15c0-.69-.56-1.25-1.25-1.25H2.5ZM13.75 15c0-.69.56-1.25 1.25-1.25h2.5c.69 0 1.25.56 1.25 1.25v2.5c0 .69-.56 1.25-1.25 1.25H15c-.69 0-1.25-.56-1.25-1.25V15Zm-10-8.125c.345 0 .625.28.625.625v5a.625.625 0 1 1-1.25 0v-5c0-.345.28-.625.625-.625Zm8.75-2.5a.625.625 0 1 0 0-1.25h-5a.625.625 0 1 0 0 1.25h5Zm.625 11.875c0 .345-.28.625-.625.625h-5a.625.625 0 1 1 0-1.25h5c.345 0 .625.28.625.625ZM15 15h2.5v2.5H15V15Zm1.875-7.5a.625.625 0 1 0-1.25 0v5a.625.625 0 1 0 1.25 0v-5Z" clip-rule="evenodd"/>
</svg>
