<svg xmlns="http://www.w3.org/2000/svg" width="20" height="20" fill="currentColor" viewBox="0 0 20 20">
  <path fill-rule="evenodd" d="M10 7.5a.625.625 0 0 1-.625-.625V5.039a5.003 5.003 0 0 0-4.336 4.336h1.836a.625.625 0 1 1 0 1.25H5.039a5.002 5.002 0 0 0 4.336 4.336v-1.836a.625.625 0 1 1 1.25 0v1.836a5.002 5.002 0 0 0 4.336-4.336h-1.836a.625.625 0 1 1 0-1.25h1.836a5.002 5.002 0 0 0-4.336-4.336v1.836c0 .345-.28.625-.625.625Zm.625 8.72a6.252 6.252 0 0 0 5.594-5.595h1.906a.625.625 0 1 0 0-1.25h-1.906a6.252 6.252 0 0 0-5.594-5.594V1.875a.625.625 0 1 0-1.25 0v1.906a6.252 6.252 0 0 0-5.594 5.594H1.875a.625.625 0 1 0 0 1.25h1.906a6.252 6.252 0 0 0 5.594 5.594v1.906a.625.625 0 1 0 1.25 0v-1.906Z" clip-rule="evenodd"/>
</svg>
