<svg xmlns="http://www.w3.org/2000/svg" width="20" height="20" fill="currentColor" viewBox="0 0 20 20">
  <path d="M1.85 8.126c.345-.02.64.244.66.589a5.875 5.875 0 0 0 11.289 1.923.625.625 0 1 1 1.152.483 7.127 7.127 0 0 1-13.69-2.336.625.625 0 0 1 .59-.659ZM8.375 1.25a7.126 7.126 0 0 1 6.457 4.11.625.625 0 0 1-1.132.53 5.876 5.876 0 0 0-9.46-1.687.625.625 0 1 1-.88-.888A7.104 7.104 0 0 1 8.374 1.25Z"/>
  <path d="M12.53 12.53a.625.625 0 0 1 .883 0l5.154 5.153a.625.625 0 0 1-.884.884l-5.153-5.154a.625.625 0 0 1 0-.883Zm.61-4.4a.617.617 0 0 0-.618-.615.617.617 0 0 0-.632.6.617.617 0 0 0 .617.616.616.616 0 0 0 .633-.6Zm1.25.016a1.866 1.866 0 0 1-1.898 1.835A1.867 1.867 0 0 1 10.64 8.1a1.867 1.867 0 0 1 1.897-1.836 1.866 1.866 0 0 1 1.853 1.88Zm-5.64 2.479a.625.625 0 1 0-1.25 0 .625.625 0 0 0 1.25 0Zm1.25 0a1.875 1.875 0 1 1-3.75 0 1.875 1.875 0 0 1 3.75 0Zm-4.375-3.75a.625.625 0 1 0-1.25 0 .625.625 0 0 0 1.25 0Zm1.25 0a1.875 1.875 0 1 1-3.75 0 1.875 1.875 0 0 1 3.75 0Z"/>
  <path d="M10.85 7.957a.626.626 0 0 1 .8.96L9.775 10.48a.626.626 0 0 1-.8-.96l1.875-1.563Zm-5.374-.049a.625.625 0 0 1 .884.017l1.278 1.33a.625.625 0 0 1-.901.866L5.459 8.79a.625.625 0 0 1 .017-.883Zm7.694.298a.625.625 0 0 1 .812-.349l3.125 1.25a.625.625 0 0 1-.464 1.16l-3.125-1.25a.625.625 0 0 1-.348-.811ZM.988 5.379a.625.625 0 0 1 .82-.328l2.188.937a.625.625 0 1 1-.492 1.149l-2.187-.938a.625.625 0 0 1-.329-.82Z"/>
</svg>
