<svg xmlns="http://www.w3.org/2000/svg" width="20" height="20" fill="currentColor" viewBox="0 0 20 20">
  <path d="M14.375 10a4.375 4.375 0 1 1 0 8.75 4.375 4.375 0 0 1 0-8.75Zm-.625-8.75c.345 0 .625.28.625.625V8.75a.625.625 0 1 1-1.25 0V2.5H3.144c-.34 0-.644.286-.644.684v10.638a1.62 1.62 0 0 1 .475-.072.58.58 0 0 1 .083.006H8.75a.625.625 0 0 1 .064 1.247l-.064.003H2.975l-.033-.002c-.187.022-.442.224-.442.621 0 .422.288.625.475.625H8.75a.625.625 0 1 1 0 1.25H2.975c-1.02 0-1.725-.914-1.725-1.875V3.184c0-1.05.826-1.934 1.894-1.934H13.75Zm.625 10a3.125 3.125 0 1 0 0 6.25 3.125 3.125 0 0 0 0-6.25Zm.016.626c.022 0 .044.004.066.007a.502.502 0 0 1 .054.008c.018.004.036.01.054.016.096.03.183.081.252.15l1.25 1.252.042.046a.626.626 0 0 1-.879.88l-.046-.043L15 14.01v2.241l-.003.064a.625.625 0 0 1-1.244 0l-.003-.064V14.01l-.183.183a.625.625 0 0 1-.883-.883l1.249-1.251.047-.042.018-.013a.634.634 0 0 1 .275-.118c.02-.004.041-.005.062-.006.013 0 .026-.004.04-.004l.016.001ZM10 5.625a.625.625 0 1 1 0 1.25H5.625a.625.625 0 1 1 0-1.25H10Zm.625-1.875a.625.625 0 1 1 0 1.25H5a.625.625 0 1 1 0-1.25h5.625Z"/>
</svg>
