<svg xmlns="http://www.w3.org/2000/svg" width="20" height="20" fill="currentColor" viewBox="0 0 20 20">
  <path d="M8.125 2.5c.345 0 .625.28.625.625v13.75a.625.625 0 1 1-1.25 0v-6.25H3.384l1.433 1.433a.625.625 0 1 1-.884.884l-2.5-2.5a.646.646 0 0 1-.108-.145l-.013-.027a.621.621 0 0 1-.045-.415l.01-.038a.62.62 0 0 1 .076-.16.627.627 0 0 1 .08-.099l2.5-2.5a.625.625 0 1 1 .884.884L3.384 9.375H7.5v-6.25c0-.345.28-.625.625-.625Zm3.75 0c.345 0 .625.28.625.625v6.25h4.116l-1.433-1.433a.625.625 0 1 1 .884-.884l2.5 2.5a.629.629 0 0 1 .155.259l.002.005a.624.624 0 0 1-.157.62l-2.5 2.5a.625.625 0 1 1-.884-.884l1.433-1.433H12.5v6.25a.625.625 0 1 1-1.25 0V3.125c0-.345.28-.625.625-.625Z"/>
</svg>
