<svg xmlns="http://www.w3.org/2000/svg" width="20" height="20" fill="none" viewBox="0 0 20 20">
  <path fill="#3D3C3C" fill-rule="evenodd" d="M9.875 3.5a.625.625 0 0 0-1-.75L7.5 4.583 6.125 2.75a.625.625 0 1 0-1 .75L6.25 5h-.625a2.5 2.5 0 0 0-2.5 2.5v1.25c-1.036 0-1.875.84-1.875 1.875v1.25c0 1.036.84 1.875 1.875 1.875V15a2.5 2.5 0 0 0 2.5 2.5h8.75a2.5 2.5 0 0 0 2.5-2.5v-1.25c1.035 0 1.875-.84 1.875-1.875v-1.25c0-1.036-.84-1.875-1.875-1.875V7.5a2.5 2.5 0 0 0-2.5-2.5H8.75l1.125-1.5Zm7 6.5v2.5c.345 0 .625-.28.625-.625v-1.25a.625.625 0 0 0-.625-.625ZM2.5 10.625c0-.345.28-.625.625-.625v2.5a.625.625 0 0 1-.625-.625v-1.25ZM14.375 6.25h-8.75c-.69 0-1.25.56-1.25 1.25V15c0 .69.56 1.25 1.25 1.25h8.75c.69 0 1.25-.56 1.25-1.25V7.5c0-.69-.56-1.25-1.25-1.25ZM10 13.125c-.663 0-1.379-.313-2.035-1.043a.625.625 0 1 0-.93.836c.844.937 1.878 1.457 2.965 1.457s2.121-.52 2.965-1.457a.625.625 0 1 0-.93-.836c-.656.73-1.372 1.043-2.035 1.043Zm-2.5-2.5a1.25 1.25 0 1 0 0-2.5 1.25 1.25 0 0 0 0 2.5Zm6.25-1.25a1.25 1.25 0 1 1-2.5 0 1.25 1.25 0 0 1 2.5 0Z" clip-rule="evenodd"/>
</svg>
