<svg xmlns="http://www.w3.org/2000/svg" width="20" height="20" fill="currentColor" viewBox="0 0 20 20">
  <path d="M7.768 15.737a.625.625 0 0 1 .83.105l.04.05 1.049 1.505.029.026a.496.496 0 0 0 .293.077c.207 0 .303-.081.317-.102l1.035-1.489a.626.626 0 0 1 1.028.713l-1.035 1.49h-.002c-.326.47-.888.637-1.341.638-.455 0-1.018-.165-1.348-.637l-1.05-1.506-.034-.053a.625.625 0 0 1 .189-.817Zm2.32-14.483a1.4 1.4 0 0 1 .522.175c.171.092.35.218.527.363.356.292.754.699 1.143 1.187.777.975 1.566 2.33 1.928 3.846l.067.321c.11.61.12 1.225.07 1.82l.338.19.004.003.246.152c1.203.795 1.942 2.106 1.942 3.533v3.664c0 .462-.304.79-.639.92a1.03 1.03 0 0 1-1.021-.155l-.062-.053L12.797 15H7.203l-2.356 2.22c-.32.3-.749.339-1.083.209a.987.987 0 0 1-.639-.921v-3.664c0-1.522.84-2.911 2.188-3.685l.004-.003.337-.19a6.746 6.746 0 0 1 .138-2.14l.073-.283c.388-1.402 1.127-2.65 1.855-3.564a8.01 8.01 0 0 1 1.143-1.187 3.44 3.44 0 0 1 .527-.363c.154-.084.372-.179.61-.179l.089.004Zm-4.27 9.061c-.91.574-1.443 1.523-1.443 2.529v3.101l1.932-1.82-.49-3.81Zm7.869 3.805 1.938 1.825v-3.101c0-1.009-.536-1.96-1.45-2.532l-.489 3.808ZM9.984 2.528a2.23 2.23 0 0 0-.33.232 6.78 6.78 0 0 0-.957.999c-.694.87-1.38 2.063-1.69 3.357v.001c-.14.582-.16 1.197-.1 1.827l.03.273.583 4.533h4.955l.583-4.533.01-.058.002-.013a5.998 5.998 0 0 0-.024-1.777l-.053-.252c-.31-1.295-.996-2.488-1.69-3.358a6.779 6.779 0 0 0-.957-1 2.228 2.228 0 0 0-.33-.23L10 2.52l-.016.007ZM10 4.312a2.188 2.188 0 1 1 0 4.376 2.188 2.188 0 0 1 0-4.376Zm0 1.25a.937.937 0 1 0 0 1.875.937.937 0 0 0 0-1.875Z"/>
</svg>
