<svg xmlns="http://www.w3.org/2000/svg" width="20" height="20" fill="currentColor" viewBox="0 0 20 20">
  <path fill-rule="evenodd" d="M2.5 3.125a.625.625 0 1 1 1.098.408.637.637 0 0 0-.068.068.625.625 0 0 1-1.03-.476Zm1.43 1.694a1.875 1.875 0 1 1 .886-.882L6.044 5.16A6.224 6.224 0 0 1 10 3.75c1.504 0 2.885.532 3.963 1.417l1.242-1.19a1.875 1.875 0 1 1 .908.86l-1.267 1.216A6.224 6.224 0 0 1 16.25 10c0 1.5-.529 2.878-1.41 3.956l1.227 1.227a1.875 1.875 0 1 1-.884.884l-1.227-1.228A6.224 6.224 0 0 1 10 16.25c-1.5 0-2.878-.529-3.955-1.41l-1.228 1.227a1.875 1.875 0 1 1-.884-.884l1.228-1.227A6.224 6.224 0 0 1 3.75 10c0-1.5.529-2.878 1.41-3.955L3.93 4.82ZM5 10a5 5 0 1 1 8.747 3.31l.003-.303-1.25-.002 1.25.002c.01-1.037-.915-1.757-1.886-1.757H8.136c-.976 0-1.886.717-1.886 1.75l.003.31A4.981 4.981 0 0 1 5 10Zm2.5 2.999c.001-.214.215-.499.636-.499h3.728c.426 0 .638.295.636.495v.01l-5-.006Zm0 0 .012 1.34A4.977 4.977 0 0 0 10 15c.906 0 1.755-.24 2.488-.662l.012-1.332-5-.007ZM10 6.875a1.25 1.25 0 1 0 0 2.5 1.25 1.25 0 0 0 0-2.5Zm-2.5 1.25a2.5 2.5 0 1 1 5 0 2.5 2.5 0 0 1-5 0Zm8.75-5a.625.625 0 1 1 1.25 0 .625.625 0 0 1-1.25 0ZM2.5 16.875a.625.625 0 1 1 1.25 0 .625.625 0 0 1-1.25 0Zm13.75 0a.625.625 0 1 1 1.25 0 .625.625 0 0 1-1.25 0Z" clip-rule="evenodd"/>
</svg>
