<svg xmlns="http://www.w3.org/2000/svg" width="20" height="20" fill="currentColor" viewBox="0 0 20 20">
  <path fill-rule="evenodd" d="M10 6.875a1.25 1.25 0 1 0 0 2.5 1.25 1.25 0 0 0 0-2.5Zm-2.5 1.25a2.5 2.5 0 1 1 5 0 2.5 2.5 0 0 1-5 0Zm0 4.874.012 1.37a.625.625 0 0 1-1.25.012L6.25 13c0-1.034.91-1.751 1.886-1.751h3.728c.971 0 1.896.72 1.886 1.757m0 0-.012 1.374a.625.625 0 0 1-1.25-.012l.012-1.374c.002-.2-.21-.495-.636-.495H8.136c-.42 0-.635.285-.636.499" clip-rule="evenodd"/>
  <path fill-rule="evenodd" d="M10 5a5 5 0 1 0 0 10 5 5 0 0 0 0-10Zm-6.25 5a6.25 6.25 0 1 1 12.5 0 6.25 6.25 0 0 1-12.5 0Z" clip-rule="evenodd"/>
  <path fill-rule="evenodd" d="M3.56 3.568a.625.625 0 0 1 .885-.001l1.934 1.928a.625.625 0 1 1-.883.885L3.562 4.452a.625.625 0 0 1-.001-.884Z" clip-rule="evenodd"/>
  <path fill-rule="evenodd" d="M3.125 2.5a.625.625 0 1 0 0 1.25.625.625 0 0 0 0-1.25Zm-1.875.625a1.875 1.875 0 1 1 3.75 0 1.875 1.875 0 0 1-3.75 0Zm15.21.516c.238.25.23.645-.02.884l-1.945 1.864a.625.625 0 0 1-.865-.903l1.946-1.864a.625.625 0 0 1 .884.019Z" clip-rule="evenodd"/>
  <path fill-rule="evenodd" d="M16.875 2.5a.625.625 0 1 0 0 1.25.625.625 0 0 0 0-1.25ZM15 3.125a1.875 1.875 0 1 1 3.75 0 1.875 1.875 0 0 1-3.75 0ZM6.38 13.62a.625.625 0 0 1 0 .884L4.503 16.38a.625.625 0 1 1-.883-.883l1.875-1.875a.625.625 0 0 1 .883 0Z" clip-rule="evenodd"/>
  <path fill-rule="evenodd" d="M3.125 16.25a.625.625 0 1 0 0 1.25.625.625 0 0 0 0-1.25Zm-1.875.625a1.875 1.875 0 1 1 3.75 0 1.875 1.875 0 0 1-3.75 0Zm12.37-3.255a.625.625 0 0 1 .884 0l1.875 1.876a.625.625 0 1 1-.883.883l-1.875-1.875a.625.625 0 0 1 0-.883Z" clip-rule="evenodd"/>
  <path fill-rule="evenodd" d="M16.875 16.25a.625.625 0 1 0 0 1.25.625.625 0 0 0 0-1.25ZM15 16.875a1.875 1.875 0 1 1 3.75 0 1.875 1.875 0 0 1-3.75 0Z" clip-rule="evenodd"/>
</svg>
