<svg xmlns="http://www.w3.org/2000/svg" width="20" height="20" fill="currentColor" viewBox="0 0 20 20">
  <path fill-rule="evenodd" d="M3.906 2.5c-.775 0-1.406.631-1.406 1.406v12.188c0 .775.631 1.406 1.406 1.406h12.188c.775 0 1.406-.631 1.406-1.406V6.779a1.41 1.41 0 0 0-.415-.992L14.21 2.911a1.385 1.385 0 0 0-.988-.411H3.906ZM1.25 3.906A2.658 2.658 0 0 1 3.906 1.25h9.315a2.636 2.636 0 0 1 1.879.784l2.87 2.87c.498.498.78 1.173.78 1.875v9.315a2.658 2.658 0 0 1-2.656 2.656H3.906a2.658 2.658 0 0 1-2.656-2.656V3.906Z" clip-rule="evenodd"/>
  <path fill-rule="evenodd" d="M6.25 1.25c.345 0 .625.28.625.625v4.91c0 .786.52 1.34 1.25 1.34h3.75c.408 0 .711-.141.912-.345.203-.205.338-.511.338-.905V2.5a.625.625 0 1 1 1.25 0v4.375c0 .69-.242 1.321-.697 1.783-.457.462-1.09.717-1.803.717h-3.75c-1.51 0-2.5-1.208-2.5-2.59v-4.91c0-.345.28-.625.625-.625ZM8.125 15c-.689 0-1.25.561-1.25 1.25v1.875a.625.625 0 1 1-1.25 0V16.25a2.5 2.5 0 0 1 2.5-2.5h3.75a2.5 2.5 0 0 1 2.5 2.5v1.875a.625.625 0 1 1-1.25 0V16.25c0-.689-.561-1.25-1.25-1.25h-3.75Z" clip-rule="evenodd"/>
</svg>
