<svg xmlns="http://www.w3.org/2000/svg" width="20" height="20" fill="currentColor" viewBox="0 0 20 20">
  <path fill-rule="evenodd" d="M3.906 2.5c-.775 0-1.406.631-1.406 1.406v12.188c0 .775.631 1.406 1.406 1.406h1.719v-1.25a2.5 2.5 0 0 1 2.5-2.5h3.75a2.5 2.5 0 0 1 2.5 2.5v1.25h1.719c.775 0 1.406-.631 1.406-1.406V6.779a1.41 1.41 0 0 0-.415-.992l-2.71-2.71v3.798c0 .69-.242 1.321-.697 1.783-.457.462-1.09.717-1.803.717h-3.75c-1.51 0-2.5-1.208-2.5-2.59V2.5H3.906Zm9.219 15v-1.25c0-.689-.561-1.25-1.25-1.25h-3.75c-.689 0-1.25.561-1.25 1.25v1.25h6.25ZM6.25 18.75H3.906a2.658 2.658 0 0 1-2.656-2.656V3.906A2.658 2.658 0 0 1 3.906 1.25h9.315c.705 0 1.381.28 1.877.782l.002.002 2.87 2.87c.498.498.78 1.173.78 1.875v9.315a2.658 2.658 0 0 1-2.656 2.656H6.25ZM6.875 2.5h6.25v4.375c0 .394-.135.7-.338.905-.2.204-.504.345-.912.345h-3.75c-.73 0-1.25-.554-1.25-1.34V2.5Z" clip-rule="evenodd"/>
</svg>
