<svg xmlns="http://www.w3.org/2000/svg" width="20" height="20" fill="currentColor" viewBox="0 0 20 20">
  <path fill-rule="evenodd" d="M16.251 17.5a2.496 2.496 0 0 0 2.499-2.499V3.75a2.496 2.496 0 0 0-2.499-2.499H5a2.496 2.496 0 0 0-2.5 2.498v3.126a.625.625 0 1 0 1.25 0V3.749c0-.692.557-1.249 1.249-1.249H16.25c.692 0 1.249.557 1.249 1.249V15c0 .692-.557 1.249-1.249 1.249h-3.126a.625.625 0 1 0 0 1.25h3.126ZM3.125 8.75c-1.036 0-1.875.84-1.875 1.875v6.25c0 1.035.84 1.875 1.875 1.875h6.25c1.036 0 1.875-.84 1.875-1.875v-6.25c0-1.036-.84-1.875-1.875-1.875h-6.25ZM2.5 10.625c0-.345.28-.625.625-.625h6.25c.345 0 .625.28.625.625v6.25c0 .345-.28.625-.625.625h-6.25a.625.625 0 0 1-.625-.625v-6.25Z" clip-rule="evenodd"/>
</svg>
