<svg xmlns="http://www.w3.org/2000/svg" width="20" height="20" fill="currentColor" viewBox="0 0 20 20">
  <path fill-rule="evenodd" d="M18.75 15.001a2.496 2.496 0 0 1-2.499 2.499h-3.126a.625.625 0 1 1 0-1.25h3.126c.692 0 1.249-.557 1.249-1.249V3.75c0-.692-.557-1.249-1.249-1.249H5c-.692 0-1.249.557-1.249 1.249v3.126a.625.625 0 1 1-1.25 0V3.749A2.496 2.496 0 0 1 4.999 1.25H16.25a2.496 2.496 0 0 1 2.499 2.499V15Z" clip-rule="evenodd"/>
  <path fill-rule="evenodd" d="M1.25 10.625c0-1.036.84-1.875 1.875-1.875h6.25c1.036 0 1.875.84 1.875 1.875v6.25c0 1.035-.84 1.875-1.875 1.875h-6.25a1.875 1.875 0 0 1-1.875-1.875v-6.25ZM3.125 10a.625.625 0 0 0-.625.625v6.25c0 .345.28.625.625.625h6.25c.345 0 .625-.28.625-.625v-6.25A.625.625 0 0 0 9.375 10h-6.25Z" clip-rule="evenodd"/>
</svg>
