<svg xmlns="http://www.w3.org/2000/svg" width="20" height="20" fill="currentColor" viewBox="0 0 20 20">
  <path fill-rule="evenodd" d="M2.7 5.21a.523.523 0 0 0-.2.43v11.09c0 .388.335.747.806.747h6.517a.625.625 0 1 1 0 1.25H3.306c-1.11 0-2.056-.868-2.056-1.996V5.64c0-.565.241-1.059.66-1.4.409-.332.95-.491 1.528-.491h.312a.625.625 0 1 1 0 1.25h-.313c-.359 0-.6.098-.738.21Zm10.425-.835c0-.345.28-.625.625-.625h.313c1.123 0 2.187.776 2.187 1.94v3.06a.625.625 0 1 1-1.25 0V5.69c0-.288-.303-.69-.938-.69h-.312a.625.625 0 0 1-.625-.625Z" clip-rule="evenodd"/>
  <path fill-rule="evenodd" d="M1.25 7.5c0-.345.28-.625.625-.625H15a.625.625 0 1 1 0 1.25H1.875A.625.625 0 0 1 1.25 7.5Zm4.405-3.135c0-.346.28-.625.625-.625h4.975a.625.625 0 1 1 0 1.25H6.28a.625.625 0 0 1-.625-.625Z" clip-rule="evenodd"/>
  <path fill-rule="evenodd" d="M6.25 2.5c.345 0 .625.281.625.628v2.494c0 .347-.28.628-.625.628a.627.627 0 0 1-.625-.628V3.128c0-.347.28-.628.625-.628Zm5 0c.345 0 .625.281.625.628v2.494c0 .347-.28.628-.625.628a.627.627 0 0 1-.625-.628V3.128c0-.347.28-.628.625-.628ZM10 14.375a4.374 4.374 0 1 1 8.749-.001 4.374 4.374 0 0 1-8.749.001Zm4.375-3.125a3.125 3.125 0 1 0 0 6.25 3.125 3.125 0 0 0 0-6.25Z" clip-rule="evenodd"/>
  <path fill-rule="evenodd" d="M15.984 12.613a.625.625 0 0 1 .153.87l-1.752 2.5a.625.625 0 0 1-1.025 0l-.748-1.074a.625.625 0 1 1 1.026-.715l.236.34 1.24-1.768a.625.625 0 0 1 .87-.153Z" clip-rule="evenodd"/>
  <path d="M5.16 10h-.32c-.258 0-.465.194-.465.431v.388c0 .237.207.431.465.431h.32c.258 0 .465-.194.465-.431v-.388c0-.237-.207-.431-.465-.431Zm2.5 0h-.32c-.258 0-.465.194-.465.431v.388c0 .237.207.431.465.431h.32c.258 0 .465-.194.465-.431v-.388c0-.237-.207-.431-.465-.431Zm-2.5 2.5h-.32c-.258 0-.465.194-.465.431v.388c0 .237.207.431.465.431h.32c.258 0 .465-.194.465-.431v-.388c0-.237-.207-.431-.465-.431Zm2.5 0h-.32c-.258 0-.465.194-.465.431v.388c0 .237.207.431.465.431h.32c.258 0 .465-.194.465-.431v-.388c0-.237-.207-.431-.465-.431ZM5.16 15h-.32c-.258 0-.465.194-.465.431v.388c0 .237.207.431.465.431h.32c.258 0 .465-.194.465-.431v-.388c0-.237-.207-.431-.465-.431Zm2.5 0h-.32c-.258 0-.465.194-.465.431v.388c0 .237.207.431.465.431h.32c.258 0 .465-.194.465-.431v-.388c0-.237-.207-.431-.465-.431Z"/>
</svg>
