<svg xmlns="http://www.w3.org/2000/svg" width="20" height="20" fill="currentColor" viewBox="0 0 20 20">
  <path fill-rule="evenodd" d="M6.28 1.25c.346 0 .625.28.625.625v.615h3.738v-.615a.625.625 0 1 1 1.25 0v2.48a.625.625 0 1 1-1.25 0V3.74H6.905v.614a.625.625 0 1 1-1.25 0V1.875c0-.345.28-.625.625-.625ZM2.7 3.96a.523.523 0 0 0-.2.43v1.235H15V4.44c0-.288-.303-.69-.938-.69h-.312a.625.625 0 1 1 0-1.25h.313c1.123 0 2.187.776 2.187 1.94v3.685a.625.625 0 1 1-1.25 0v-1.25H2.5v8.606c0 .387.335.746.806.746h4.819a.625.625 0 1 1 0 1.25H3.306c-1.11 0-2.056-.868-2.056-1.996V4.39c0-.564.241-1.058.66-1.399.409-.333.95-.491 1.528-.491h.312a.625.625 0 1 1 0 1.25h-.313c-.359 0-.6.098-.738.21ZM14.374 10a4.375 4.375 0 1 0 0 8.75 4.375 4.375 0 0 0 0-8.75Zm-3.125 4.375a3.125 3.125 0 1 1 6.25 0 3.125 3.125 0 0 1-6.25 0Zm4.887-.891a.625.625 0 0 0-1.024-.718l-1.239 1.768-.236-.34a.625.625 0 1 0-1.026.715l.748 1.073a.625.625 0 0 0 1.025.002l1.752-2.5Z" clip-rule="evenodd"/>
</svg>
