<svg xmlns="http://www.w3.org/2000/svg" width="20" height="20" fill="currentColor" viewBox="0 0 20 20">
  <path fill-rule="evenodd" d="M10.54 1.348a33.171 33.171 0 0 0 6.11 2.51l.008.002c.476.144.864.571.864 1.123v6.994c0 .954-.432 1.821-1.016 2.56-.586.743-1.365 1.408-2.154 1.972-1.579 1.13-3.297 1.926-3.894 2.189l-.012.005a1.18 1.18 0 0 1-.912 0l-.01-.005c-.602-.263-2.32-1.06-3.899-2.189-.788-.564-1.566-1.229-2.152-1.971-.584-.74-1.015-1.607-1.015-2.56v-6.99c0-.54.377-.985.872-1.125a32.989 32.989 0 0 0 6.107-2.517l.296.55-.303-.546a1.148 1.148 0 0 1 1.11-.003Zm-.553 1.123a34.268 34.268 0 0 1-6.279 2.584v6.922c0 .57.26 1.168.747 1.787.485.615 1.16 1.201 1.898 1.729 1.445 1.034 3.037 1.78 3.637 2.045.6-.265 2.19-1.012 3.635-2.045.738-.528 1.414-1.114 1.9-1.73.488-.618.747-1.217.747-1.786V5.05a34.464 34.464 0 0 1-6.285-2.58Z" clip-rule="evenodd"/>
  <path fill-rule="evenodd" d="M7.5 9.478v3.544c1.52.137 3.486.137 5 0V9.478a30.381 30.381 0 0 0-5 0Zm-.416-1.215c1.727-.184 4.098-.184 5.831 0l.012.001a.93.93 0 0 1 .823.919v4.134c0 .503-.394.863-.82.918l-.014.002c-1.727.184-4.098.184-5.831 0l-.012-.001a.93.93 0 0 1-.823-.919V9.183c0-.503.394-.863.82-.918l.014-.002ZM10 5.625c-.814 0-1.25.52-1.25.902v.348a.625.625 0 1 1-1.25 0v-.348c0-1.301 1.248-2.152 2.5-2.152.651 0 1.257.212 1.718.587l.004.003c.447.37.778.913.778 1.562v.348a.625.625 0 1 1-1.25 0v-.348c0-.198-.098-.41-.323-.597A1.469 1.469 0 0 0 10 5.625Z" clip-rule="evenodd"/>
</svg>
