<svg xmlns="http://www.w3.org/2000/svg" width="20" height="20" fill="currentColor" viewBox="0 0 20 20">
  <path fill-rule="evenodd" d="M3.075 1.385a1.236 1.236 0 0 0-1.47.262c-.339.36-.484.93-.218 1.47L4.795 10l-3.402 6.884c-.513 1.041.537 2.297 1.683 1.734l7.227-3.6 7.74-3.857a.629.629 0 0 0 .094-.058c.408-.246.612-.673.613-1.1v-.009a1.274 1.274 0 0 0-.707-1.149l-7.74-3.857-7.228-3.604Zm13.227 7.99L9.745 6.108 2.516 2.504l-.002.002a.053.053 0 0 0-.014.025.03.03 0 0 0 0 .01.08.08 0 0 0 .008.023L5.88 9.375h10.422Zm-10.42 1.25-3.368 6.813a.08.08 0 0 0-.008.023v.008a.05.05 0 0 0 .018.029L9.746 13.9l6.573-3.275H5.881Z" clip-rule="evenodd"/>
</svg>
