<svg xmlns="http://www.w3.org/2000/svg" width="20" height="20" fill="none" viewBox="0 0 20 20">
  <path fill="#3D3C3C" fill-rule="evenodd" d="M14.3.955a.625.625 0 0 1 .84-.259l1.914 1.002c.305.16.423.535.265.84l-.323.626c.155.208.288.428.399.658l.76.036c.333.016.595.29.595.624V6.58a.625.625 0 0 1-.605.625l-.657.021c-.047.11-.099.22-.157.33l-.002.004c-.06.11-.123.217-.192.322l.407.702a.625.625 0 0 1-.234.858l-1.962 1.104a.625.625 0 0 1-.866-.267l-.294-.592a3.948 3.948 0 0 1-.674.02l-.313.585a.625.625 0 0 1-.841.259l-1.932-1.01a.625.625 0 0 1-.26-.852l.331-.612a4.103 4.103 0 0 1-.378-.62l-.66.022a.625.625 0 0 1-.645-.606L8.75 4.686a.625.625 0 0 1 .605-.644l.656-.021a3.914 3.914 0 0 1 .346-.647l-.348-.566a.625.625 0 0 1 .202-.858L12.058.798a.625.625 0 0 1 .863.203l.348.564a3.95 3.95 0 0 1 .717-.024L14.3.955Zm.81 1.136-.222.414a.625.625 0 0 1-.66.32 2.695 2.695 0 0 0-1.117.039.625.625 0 0 1-.683-.28l-.242-.393-.787.491.243.396c.14.23.12.523-.053.729a2.882 2.882 0 0 0-.534 1.005.625.625 0 0 1-.579.444l-.457.015.028.937.459-.014a.625.625 0 0 1 .607.41c.132.36.33.69.593.97a.625.625 0 0 1 .093.725l-.23.426.821.43.222-.414a.625.625 0 0 1 .66-.32c.374.066.757.05 1.117-.039.285-.07.58.067.71.33l.21.42.836-.47-.295-.507a.625.625 0 0 1 .062-.716 2.877 2.877 0 0 0 .533-1.005.625.625 0 0 1 .578-.444l.477-.016V5.08l-.556-.027a.625.625 0 0 1-.557-.409 2.851 2.851 0 0 0-.593-.971.625.625 0 0 1-.099-.715l.228-.44-.813-.426ZM2.5 4.7c0-.514.427-.95.98-.95h3.395a.625.625 0 1 0 0-1.25H3.48c-1.22 0-2.23.974-2.23 2.2v8.726c0 1.225 1.01 2.2 2.23 2.2h5.895V17.5H6.25a.625.625 0 1 0 0 1.25h7.5a.625.625 0 1 0 0-1.25h-3.125v-1.875h5.895c1.22 0 2.23-.974 2.23-2.2V11.25a.625.625 0 1 0-1.25 0v.625h-15V4.7Zm0 8.425v.3c0 .514.427.95.98.95h13.04c.553 0 .98-.436.98-.95v-.3h-15Zm11.875-7.5a.625.625 0 1 1-1.25 0 .625.625 0 0 1 1.25 0Zm1.25 0a1.875 1.875 0 1 1-3.75 0 1.875 1.875 0 0 1 3.75 0Z" clip-rule="evenodd"/>
</svg>
