<svg xmlns="http://www.w3.org/2000/svg" width="20" height="20" fill="currentColor" viewBox="0 0 20 20">
  <path d="M13.75 10.625a3.75 3.75 0 0 1 3.056 5.92l1.761 1.763a.625.625 0 0 1-.883.883l-1.762-1.761a3.75 3.75 0 1 1-2.172-6.805Zm-6.875 0c1.036 0 1.875.84 1.875 1.875V15c0 1.035-.84 1.875-1.875 1.875h-2.5A1.875 1.875 0 0 1 2.5 15v-2.5c0-1.036.84-1.875 1.875-1.875h2.5Zm6.875 1.25a2.5 2.5 0 1 0 0 5 2.5 2.5 0 0 0 0-5Zm-9.375 0a.625.625 0 0 0-.625.625V15c0 .345.28.625.625.625h2.5c.345 0 .625-.28.625-.625v-2.5a.625.625 0 0 0-.625-.625h-2.5ZM7.5 1.25c1.036 0 1.875.84 1.875 1.875V7.5c0 1.036-.84 1.875-1.875 1.875H3.125A1.875 1.875 0 0 1 1.25 7.5V3.125c0-1.036.84-1.875 1.875-1.875H7.5ZM15 3.125c1.035 0 1.875.84 1.875 1.875v2.5c0 1.036-.84 1.875-1.875 1.875h-2.5A1.875 1.875 0 0 1 10.625 7.5V5c0-1.036.84-1.875 1.875-1.875H15ZM3.125 2.5a.625.625 0 0 0-.625.625V7.5c0 .345.28.625.625.625H7.5c.345 0 .625-.28.625-.625V3.125A.625.625 0 0 0 7.5 2.5H3.125ZM12.5 4.375a.625.625 0 0 0-.625.625v2.5c0 .345.28.625.625.625H15c.345 0 .625-.28.625-.625V5A.625.625 0 0 0 15 4.375h-2.5Z"/>
</svg>
