<svg xmlns="http://www.w3.org/2000/svg" width="20" height="20" fill="currentColor" viewBox="0 0 20 20">
  <path fill-rule="evenodd" d="M4.375 1.25c-1.036 0-1.875.84-1.875 1.875v13.75c0 1.035.84 1.875 1.875 1.875h11.25c1.035 0 1.875-.84 1.875-1.875V3.125c0-1.036-.84-1.875-1.875-1.875H4.375ZM3.75 3.125c0-.345.28-.625.625-.625h11.25c.345 0 .625.28.625.625v13.75c0 .345-.28.625-.625.625H4.375a.625.625 0 0 1-.625-.625V3.125Zm7.64.071a.625.625 0 0 0-.84.26l-.314.585a3.95 3.95 0 0 0-.717.024l-.348-.564a.625.625 0 0 0-.863-.203L6.461 4.45a.625.625 0 0 0-.202.858l.348.566a4.567 4.567 0 0 0-.186.313c-.06.11-.113.222-.16.334l-.656.021A.625.625 0 0 0 5 7.186l.066 2.186a.625.625 0 0 0 .645.606l.66-.021c.107.215.233.423.378.619l-.33.612a.625.625 0 0 0 .26.851l1.93 1.01c.305.16.68.044.842-.258l.313-.586c.226.013.452.006.674-.019l.294.592a.625.625 0 0 0 .866.267l1.962-1.104a.625.625 0 0 0 .234-.858l-.407-.702c.069-.105.133-.213.192-.322l.002-.004c.058-.11.11-.22.157-.33l.657-.021A.625.625 0 0 0 15 9.079V6.982a.625.625 0 0 0-.595-.624l-.76-.036a4.098 4.098 0 0 0-.399-.658l.323-.625a.625.625 0 0 0-.265-.841L11.39 3.196Zm-.252 1.809.222-.414.813.426-.228.44a.625.625 0 0 0 .1.715c.261.28.46.61.592.971a.625.625 0 0 0 .557.41l.556.026v.895l-.476.016a.625.625 0 0 0-.579.444 2.877 2.877 0 0 1-.534 1.005.625.625 0 0 0-.06.716l.294.508-.836.47-.21-.422a.625.625 0 0 0-.71-.329c-.36.09-.742.105-1.117.039a.625.625 0 0 0-.66.32l-.222.414-.821-.43.23-.426a.625.625 0 0 0-.093-.724 2.866 2.866 0 0 1-.593-.972.625.625 0 0 0-.607-.41l-.46.015-.027-.937.457-.015a.625.625 0 0 0 .579-.444 2.8 2.8 0 0 1 .533-1.005.625.625 0 0 0 .054-.729l-.243-.396.787-.49.242.393a.625.625 0 0 0 .683.279c.36-.09.742-.105 1.117-.039a.625.625 0 0 0 .66-.32Zm-4.888 9.37c0-.345.28-.625.625-.625h6.25a.625.625 0 1 1 0 1.25h-6.25a.625.625 0 0 1-.625-.625Zm0 1.875c0-.345.28-.625.625-.625h6.25a.625.625 0 1 1 0 1.25h-6.25a.625.625 0 0 1-.625-.625ZM10 8.75a.625.625 0 1 0 0-1.25.625.625 0 0 0 0 1.25ZM10 10a1.875 1.875 0 1 0 0-3.75A1.875 1.875 0 0 0 10 10Z" clip-rule="evenodd"/>
</svg>
