<svg xmlns="http://www.w3.org/2000/svg" width="20" height="20" fill="currentColor" viewBox="0 0 20 20">
  <path fill-rule="evenodd" d="M3.125 1.25c-1.036 0-1.875.84-1.875 1.875v5C1.25 9.161 2.09 10 3.125 10h5C9.161 10 10 9.16 10 8.125v-5c0-1.036-.84-1.875-1.875-1.875h-5ZM2.5 3.125c0-.345.28-.625.625-.625h5c.345 0 .625.28.625.625v5c0 .345-.28.625-.625.625h-5a.625.625 0 0 1-.625-.625v-5ZM5 11.25c-1.036 0-1.875.84-1.875 1.875v3.125c0 1.035.84 1.875 1.875 1.875h3.125c1.036 0 1.875-.84 1.875-1.875v-3.125c0-1.036-.84-1.875-1.875-1.875H5Zm-.625 1.875c0-.345.28-.625.625-.625h3.125c.345 0 .625.28.625.625v3.125c0 .345-.28.625-.625.625H5a.625.625 0 0 1-.625-.625v-3.125ZM11.25 5c0-1.036.84-1.875 1.875-1.875h3.125c1.035 0 1.875.84 1.875 1.875v3.125c0 1.036-.84 1.875-1.875 1.875h-3.125a1.875 1.875 0 0 1-1.875-1.875V5Zm1.875-.625A.625.625 0 0 0 12.5 5v3.125c0 .345.28.625.625.625h3.125c.345 0 .625-.28.625-.625V5a.625.625 0 0 0-.625-.625h-3.125Zm0 6.875c-1.036 0-1.875.84-1.875 1.875v3.125c0 1.035.84 1.875 1.875 1.875h3.125c1.035 0 1.875-.84 1.875-1.875v-3.125c0-1.036-.84-1.875-1.875-1.875h-3.125Zm-.625 1.875c0-.345.28-.625.625-.625h3.125c.345 0 .625.28.625.625v3.125c0 .345-.28.625-.625.625h-3.125a.625.625 0 0 1-.625-.625v-3.125Z" clip-rule="evenodd"/>
</svg>
