<svg xmlns="http://www.w3.org/2000/svg" width="20" height="20" fill="currentColor" viewBox="0 0 20 20">
  <path fill-rule="evenodd" d="M2.763 1.875a.263.263 0 0 0-.263.263v3.224c0 .145.118.263.263.263h3.224a.263.263 0 0 0 .263-.263V2.138a.263.263 0 0 0-.263-.263H2.763Zm-1.513.263c0-.836.677-1.513 1.513-1.513h3.224c.836 0 1.513.677 1.513 1.513v3.224c0 .836-.677 1.513-1.513 1.513H2.763A1.513 1.513 0 0 1 1.25 5.362V2.138Zm8.791.987a.041.041 0 0 0-.041.041v2.418a.04.04 0 0 0 .041.041h2.418a.041.041 0 0 0 .041-.041V3.166a.041.041 0 0 0-.041-.041H10.04Zm-1.291.041c0-.713.578-1.291 1.291-1.291h2.418c.713 0 1.291.578 1.291 1.291v2.418c0 .713-.578 1.291-1.291 1.291H10.04a1.291 1.291 0 0 1-1.29-1.291V3.166Zm-5.625 6.25a.04.04 0 0 1 .041-.041h2.418a.04.04 0 0 1 .041.041v2.418a.041.041 0 0 1-.041.041H3.166a.041.041 0 0 1-.041-.041V9.416Zm.041-1.291c-.713 0-1.291.578-1.291 1.291v2.418c0 .713.578 1.291 1.291 1.291h2.418c.713 0 1.291-.578 1.291-1.291V9.416c0-.713-.578-1.291-1.291-1.291H3.166Zm10.666-.295a.625.625 0 0 1 .84-.259l2.188 1.145c.304.16.423.535.265.84l-.395.765c.198.26.366.539.503.83l.921.044c.334.015.596.29.596.624v2.396a.625.625 0 0 1-.605.625l-.809.026a4.516 4.516 0 0 1-.197.423l-.002.004a5.05 5.05 0 0 1-.247.407l.494.85a.625.625 0 0 1-.234.859l-2.243 1.26a.625.625 0 0 1-.866-.266l-.364-.733a4.43 4.43 0 0 1-.874.025l-.385.72a.625.625 0 0 1-.84.26L9.37 17.518a.625.625 0 0 1-.26-.85l.405-.751a4.591 4.591 0 0 1-.482-.79l-.812.025a.625.625 0 0 1-.645-.605l-.076-2.5a.625.625 0 0 1 .605-.643l.808-.026a4.17 4.17 0 0 1 .2-.426 5.27 5.27 0 0 1 .24-.399l-.427-.696A.625.625 0 0 1 9.128 9l2.11-1.317a.625.625 0 0 1 .864.203l.427.694c.302-.041.61-.053.918-.03l.385-.72Zm.81 1.136-.295.55a.625.625 0 0 1-.66.322 3.17 3.17 0 0 0-1.314.045.625.625 0 0 1-.682-.28l-.324-.525-1.051.655.324.528c.14.23.119.522-.054.729a3.378 3.378 0 0 0-.627 1.18.625.625 0 0 1-.578.444l-.612.02.037 1.25.614-.02a.625.625 0 0 1 .607.41c.155.423.388.81.697 1.14a.625.625 0 0 1 .093.724l-.306.567 1.097.574.295-.55a.625.625 0 0 1 .66-.321c.44.078.89.06 1.314-.045.284-.07.58.066.71.329l.281.566 1.117-.628-.383-.659a.625.625 0 0 1 .062-.715 3.382 3.382 0 0 0 .627-1.18.625.625 0 0 1 .578-.445l.631-.02v-1.196l-.72-.034a.625.625 0 0 1-.557-.409 3.347 3.347 0 0 0-.696-1.14.625.625 0 0 1-.1-.715l.302-.582-1.087-.569Zm-.58 4.159a.937.937 0 1 1-1.874 0 .937.937 0 0 1 1.874 0Zm1.25 0a2.188 2.188 0 1 1-4.375 0 2.188 2.188 0 0 1 4.376 0Z" clip-rule="evenodd"/>
</svg>
