<svg xmlns="http://www.w3.org/2000/svg" width="20" height="20" fill="currentColor" viewBox="0 0 20 20">
  <g clip-path="url(#a)">
    <path fill-rule="evenodd" d="M14.376 12.5a1.875 1.875 0 1 1-.001 3.75 1.875 1.875 0 0 1 0-3.75Zm0 1.25a.625.625 0 1 0 0 1.25.625.625 0 0 0 0-1.25Z" clip-rule="evenodd"/>
    <path fill-rule="evenodd" d="M14.957 9.65a.625.625 0 0 1 .808-.204l1.914 1.001c.305.16.423.536.265.842l-.324.625c.155.208.287.428.399.658l.76.036c.334.016.596.29.596.624v2.097a.626.626 0 0 1-.605.625l-.658.02a3.97 3.97 0 0 1-.156.33l-.003.005a4.585 4.585 0 0 1-.192.321l.408.703a.625.625 0 0 1-.234.858l-1.962 1.104a.626.626 0 0 1-.866-.267l-.295-.593a3.955 3.955 0 0 1-.673.019l-.313.587a.625.625 0 0 1-.841.259l-1.931-1.01a.627.627 0 0 1-.261-.852l.331-.614a4.084 4.084 0 0 1-.377-.618l-.66.022a.627.627 0 0 1-.645-.606l-.067-2.186a.625.625 0 0 1 .605-.644l.657-.022a3.715 3.715 0 0 1 .345-.645l-.348-.567a.626.626 0 0 1 .202-.858l1.847-1.152a.626.626 0 0 1 .863.203l.348.565c.236-.03.476-.039.717-.025l.313-.586.033-.054Zm.556 1.605a.625.625 0 0 1-.66.32 2.696 2.696 0 0 0-1.117.039.626.626 0 0 1-.682-.28l-.243-.393-.787.49.243.397c.14.23.12.523-.053.729a2.806 2.806 0 0 0-.534 1.005.625.625 0 0 1-.578.444l-.459.015.029.937.459-.015.1.005c.228.03.425.183.507.405.132.36.33.691.593.972a.625.625 0 0 1 .093.723l-.23.427.821.43.222-.414.054-.084a.625.625 0 0 1 .606-.237c.374.067.756.051 1.117-.038.285-.07.58.066.71.329l.21.421.835-.47-.294-.507a.626.626 0 0 1 .061-.715 2.877 2.877 0 0 0 .534-1.006l.036-.092a.626.626 0 0 1 .542-.353l.477-.016v-.895l-.555-.026a.625.625 0 0 1-.558-.41 2.851 2.851 0 0 0-.593-.97.626.626 0 0 1-.099-.715l.228-.44-.814-.426-.22.414ZM6.25 10c1.036 0 1.875.84 1.875 1.875v2.5c0 1.036-.84 1.875-1.875 1.875h-2.5a1.875 1.875 0 0 1-1.875-1.875v-2.5c0-1.036.84-1.875 1.875-1.875h2.5Zm-2.5 1.25a.625.625 0 0 0-.625.625v2.5c0 .345.28.625.625.625h2.5c.345 0 .625-.28.625-.625v-2.5a.625.625 0 0 0-.625-.625h-2.5ZM6.875.625c1.036 0 1.875.84 1.875 1.875v4.375c0 1.036-.84 1.875-1.875 1.875H2.5A1.875 1.875 0 0 1 .625 6.875V2.5c0-1.036.84-1.875 1.875-1.875h4.375ZM2.5 1.875a.625.625 0 0 0-.625.625v4.375c0 .345.28.625.625.625h4.375c.345 0 .625-.28.625-.625V2.5a.625.625 0 0 0-.625-.625H2.5Zm11.875 0c1.036 0 1.875.84 1.875 1.875v2.5c0 1.036-.84 1.875-1.875 1.875h-2.5A1.875 1.875 0 0 1 10 6.25v-2.5c0-1.036.84-1.875 1.875-1.875h2.5Zm-2.5 1.25a.625.625 0 0 0-.625.625v2.5c0 .345.28.625.625.625h2.5c.345 0 .625-.28.625-.625v-2.5a.625.625 0 0 0-.625-.625h-2.5Z" clip-rule="evenodd"/>
  </g>
  <defs>
    <clipPath id="a">
      <path d="M0 0h20v20H0z"/>
    </clipPath>
  </defs>
</svg>
