<svg xmlns="http://www.w3.org/2000/svg" width="20" height="20" fill="currentColor" viewBox="0 0 20 20">
  <path fill-rule="evenodd" d="M3.75 3.435c0-.525.42-.935.901-.935h10.073c.48 0 .901.41.901.935v2.19a.625.625 0 1 0 1.25 0v-2.19c0-1.19-.955-2.185-2.151-2.185H4.65c-1.196 0-2.151.996-2.151 2.185V5h-.625a.625.625 0 1 0 0 1.25h2.5a.625.625 0 1 0 0-1.25H3.75V3.435Zm0 12.783a.625.625 0 1 0-1.25 0v.347c0 1.19.955 2.185 2.151 2.185h.974a.625.625 0 1 0 0-1.25h-.974c-.48 0-.901-.41-.901-.935v-.347ZM1.875 9.375a.625.625 0 1 0 0 1.25h2.5a.625.625 0 1 0 0-1.25H3.75V7.5a.625.625 0 1 0-1.25 0v1.875h-.625Zm0 4.375a.625.625 0 1 0 0 1.25h2.5a.625.625 0 1 0 0-1.25H3.75v-1.875a.625.625 0 1 0-1.25 0v1.875h-.625Zm13.166-5a.041.041 0 0 0-.041.041v2.418a.04.04 0 0 0 .041.041h2.418a.041.041 0 0 0 .041-.041V8.79a.041.041 0 0 0-.041-.041H15.04Zm-1.291.041c0-.713.578-1.291 1.291-1.291h2.418c.713 0 1.291.578 1.291 1.291v2.418c0 .713-.578 1.291-1.291 1.291H15.04a1.291 1.291 0 0 1-1.291-1.291V8.79ZM7.5 7.763c0-.145.118-.263.263-.263h3.224c.145 0 .263.118.263.263v3.224a.263.263 0 0 1-.263.263H7.763a.263.263 0 0 1-.263-.263V7.763Zm.263-1.513c-.836 0-1.513.677-1.513 1.513v3.224c0 .835.677 1.513 1.513 1.513h3.224c.835 0 1.513-.678 1.513-1.513V7.763c0-.836-.678-1.513-1.513-1.513H7.763ZM15.041 15a.041.041 0 0 0-.041.041v2.418a.04.04 0 0 0 .041.041h2.418a.041.041 0 0 0 .041-.041V15.04a.041.041 0 0 0-.041-.041H15.04Zm-1.291.041c0-.713.578-1.291 1.291-1.291h2.418c.713 0 1.291.578 1.291 1.291v2.418c0 .713-.578 1.291-1.291 1.291H15.04a1.291 1.291 0 0 1-1.291-1.291V15.04Zm-5 0A.04.04 0 0 1 8.791 15h2.418a.04.04 0 0 1 .041.041v2.418a.041.041 0 0 1-.041.041H8.79a.041.041 0 0 1-.041-.041V15.04Zm.041-1.291c-.713 0-1.291.578-1.291 1.291v2.418c0 .713.578 1.291 1.291 1.291h2.418c.713 0 1.291-.578 1.291-1.291V15.04c0-.713-.578-1.291-1.291-1.291H8.79Z" clip-rule="evenodd"/>
</svg>
