<svg xmlns="http://www.w3.org/2000/svg" width="20" height="20" fill="currentColor" viewBox="0 0 20 20">
  <path fill-rule="evenodd" d="M11.548.696a.625.625 0 0 0-.841.26l-.385.72a4.425 4.425 0 0 0-.918.03l-.427-.694a.625.625 0 0 0-.863-.203L6.003 2.126a.625.625 0 0 0-.202.857l.427.696a5.07 5.07 0 0 0-.24.399c-.076.14-.142.283-.2.426l-.808.026a.625.625 0 0 0-.605.644l.076 2.499a.625.625 0 0 0 .645.605l.812-.026c.133.277.293.542.482.79l-.405.751a.625.625 0 0 0 .26.851l2.207 1.155c.304.16.68.043.841-.259l.385-.72c.294.02.587.012.874-.025l.364.733a.625.625 0 0 0 .866.267l2.243-1.261a.625.625 0 0 0 .234-.86l-.494-.849c.09-.132.171-.269.246-.407l.003-.004c.075-.14.14-.281.197-.423l.81-.026a.625.625 0 0 0 .604-.625V4.944a.625.625 0 0 0-.595-.624l-.922-.044a4.596 4.596 0 0 0-.503-.83L14 2.682a.625.625 0 0 0-.265-.841L11.548.696Zm-.326 1.946.295-.551 1.087.569-.301.582a.625.625 0 0 0 .098.715c.309.329.542.717.697 1.14a.625.625 0 0 0 .557.41l.72.033v1.195l-.63.021a.625.625 0 0 0-.579.444 3.375 3.375 0 0 1-.627 1.18.625.625 0 0 0-.062.716l.383.659-1.117.628-.28-.566a.625.625 0 0 0-.71-.33 3.17 3.17 0 0 1-1.315.046.625.625 0 0 0-.66.32l-.295.551-1.097-.574.306-.567a.625.625 0 0 0-.093-.724 3.347 3.347 0 0 1-.697-1.14.625.625 0 0 0-.607-.41l-.614.02-.037-1.25.612-.02a.625.625 0 0 0 .578-.444 3.29 3.29 0 0 1 .627-1.18.625.625 0 0 0 .054-.729l-.324-.528 1.05-.655.325.526a.625.625 0 0 0 .682.279 3.17 3.17 0 0 1 1.314-.045.625.625 0 0 0 .66-.321Zm.028 3.608a1.25 1.25 0 1 1-2.5 0 1.25 1.25 0 0 1 2.5 0Zm1.25 0a2.5 2.5 0 1 1-5 0 2.5 2.5 0 0 1 5 0Zm3.4 6.41c.793-.396 1.728-.03 2.082.776.34.767.057 1.73-.733 2.122l-.003.001-6.018 3.026a1.49 1.49 0 0 1-1.021.125L4.96 17.486l-.93.468a.625.625 0 1 1-.562-1.116l1.132-.57a.625.625 0 0 1 .423-.051l5.468 1.276.004.001a.24.24 0 0 0 .164-.023l.004-.002 6.028-3.03c.141-.07.24-.287.148-.497l-.002-.003c-.08-.182-.255-.224-.382-.16l-.006.003-3.992 1.942a1.468 1.468 0 0 1-1.94 1.06l-2.26-.839a.625.625 0 0 1 .435-1.172l2.26.839c.102.038.233-.01.281-.149.053-.155-.032-.297-.139-.336l-2.464-.91-.007-.002a.789.789 0 0 1-.017-.006l-.016-.006c-.016-.006-.064-.024-.11-.048l-1.8-.895h-.002a1.242 1.242 0 0 0-1.118-.003l-.011.005L2.77 14.6a.625.625 0 0 1-.54-1.127l2.773-1.334a2.492 2.492 0 0 1 2.23 0l.002.002 1.794.892.003.001.012.005h.003l.012.005 2.47.91c.28.105.508.284.672.506l3.699-1.8Z" clip-rule="evenodd"/>
</svg>
