<svg xmlns="http://www.w3.org/2000/svg" width="20" height="20" fill="currentColor" viewBox="0 0 20 20">
  <path fill-rule="evenodd" d="M12.813 3.75a2.188 2.188 0 1 0 0 4.375 2.188 2.188 0 0 0 0-4.375ZM1.874 6.875h7.63a3.439 3.439 0 0 0 6.616 0h2.004a.625.625 0 1 0 0-1.25h-1.889a3.438 3.438 0 0 0-6.847 0H1.875a.625.625 0 1 0 0 1.25Zm-.625 7.5c0-.345.28-.625.625-.625h1.264a3.438 3.438 0 0 1 6.847 0h8.139a.625.625 0 1 1 0 1.25H9.871a3.439 3.439 0 0 1-6.617 0H1.875a.625.625 0 0 1-.625-.625Zm3.125-.313a2.188 2.188 0 1 1 4.375 0 2.188 2.188 0 0 1-4.375 0Z" clip-rule="evenodd"/>
</svg>
