<svg xmlns="http://www.w3.org/2000/svg" width="20" height="20" fill="currentColor" viewBox="0 0 20 20">
  <path fill-rule="evenodd" d="M1.25 6.25c0-.345.28-.625.625-.625H10a.625.625 0 1 1 0 1.25H1.875a.625.625 0 0 1-.625-.625Zm13.75 0c0-.345.28-.625.625-.625h2.5a.625.625 0 1 1 0 1.25h-2.5A.625.625 0 0 1 15 6.25ZM1.25 14.375c0-.345.28-.625.625-.625h1.46a.625.625 0 1 1 0 1.25h-1.46a.625.625 0 0 1-.625-.625Zm7.5 0c0-.345.28-.625.625-.625h8.75a.625.625 0 1 1 0 1.25h-8.75a.625.625 0 0 1-.625-.625Z" clip-rule="evenodd"/>
  <path fill-rule="evenodd" d="M12.813 3.75a2.188 2.188 0 1 0 0 4.375 2.188 2.188 0 0 0 0-4.375ZM9.374 5.938a3.437 3.437 0 1 1 6.875 0 3.437 3.437 0 0 1-6.875 0Zm-2.811 5.937a2.188 2.188 0 1 0 0 4.375 2.188 2.188 0 0 0 0-4.375Zm-3.438 2.188a3.437 3.437 0 1 1 6.875 0 3.437 3.437 0 0 1-6.875 0Z" clip-rule="evenodd"/>
</svg>
