<svg xmlns="http://www.w3.org/2000/svg" width="20" height="20" fill="currentColor" viewBox="0 0 20 20">
  <path fill-rule="evenodd" d="m13.333 1.42.002.001 2.1 1.272h.001c.563.34.738 1.07.428 1.633l-.713 1.301a7.117 7.117 0 0 1 1.04 1.888h1.377c.685 0 1.182.575 1.182 1.21v2.55c0 .645-.506 1.21-1.182 1.21h-1.376a7.01 7.01 0 0 1-1.041 1.888l.712 1.3c.315.565.13 1.291-.422 1.63l-.004.002-2.105 1.276-.003.001a1.165 1.165 0 0 1-1.625-.45l-.696-1.265a6.555 6.555 0 0 1-2.016 0l-.695 1.263a1.161 1.161 0 0 1-1.63.45l-.002-.001-2.1-1.272a1.223 1.223 0 0 1-.43-1.633h.001l.713-1.301a7.117 7.117 0 0 1-1.04-1.888H2.431c-.685 0-1.182-.575-1.182-1.21v-2.55c0-.645.506-1.21 1.182-1.21h1.376A7.008 7.008 0 0 1 4.85 5.627l-.712-1.3a1.225 1.225 0 0 1 .422-1.63l.004-.002 2.108-1.277a1.165 1.165 0 0 1 1.625.45l.696 1.265a6.543 6.543 0 0 1 2.016 0l.695-1.263a1.161 1.161 0 0 1 1.63-.45Zm-.57 1.116-.683 1.242a1.16 1.16 0 0 1-1.21.6 5.301 5.301 0 0 0-1.743 0h-.002a1.163 1.163 0 0 1-1.205-.6l-.683-1.242-1.995 1.208.709 1.292c.229.417.201.944-.095 1.334l-.003.003-.003.004a5.763 5.763 0 0 0-.883 1.61c-.17.468-.61.778-1.1.778H2.5v2.47h1.367c.488 0 .934.305 1.1.782a5.88 5.88 0 0 0 .885 1.608c.303.39.326.924.099 1.338l-.709 1.293 1.995 1.208.683-1.242a1.16 1.16 0 0 1 1.21-.6 5.3 5.3 0 0 0 1.743 0h.002a1.17 1.17 0 0 1 1.203.596l.002.004.683 1.242 1.995-1.208-.709-1.292a1.231 1.231 0 0 1 .095-1.334l.003-.003.003-.004a5.764 5.764 0 0 0 .883-1.61c.17-.468.61-.778 1.1-.778H17.5v-2.47h-1.367c-.488 0-.934-.305-1.1-.782a5.868 5.868 0 0 0-.884-1.608 1.23 1.23 0 0 1-.1-1.339l.709-1.292-1.995-1.208ZM10.43 7.535a2.502 2.502 0 0 0-.858 4.93m.858-4.93a2.501 2.501 0 1 1-.858 4.93M6.3 10.63a3.755 3.755 0 0 1 4.33-4.328 3.751 3.751 0 1 1-1.262 7.396 3.752 3.752 0 0 1-3.067-3.068Z" clip-rule="evenodd"/>
</svg>
