<svg xmlns="http://www.w3.org/2000/svg" width="20" height="20" fill="currentColor" viewBox="0 0 20 20">
  <path fill-rule="evenodd" d="M4.375 8.125a1.875 1.875 0 1 0 0 3.75 1.875 1.875 0 0 0 0-3.75ZM1.25 10a3.125 3.125 0 1 1 6.25 0 3.125 3.125 0 0 1-6.25 0Zm14.375-7.5a1.875 1.875 0 1 0 0 3.75 1.875 1.875 0 0 0 0-3.75ZM12.5 4.375a3.125 3.125 0 1 1 6.25 0 3.125 3.125 0 0 1-6.25 0Zm3.125 9.375a1.875 1.875 0 1 0 0 3.75 1.875 1.875 0 0 0 0-3.75ZM12.5 15.625a3.125 3.125 0 1 1 6.25 0 3.125 3.125 0 0 1-6.25 0Z" clip-rule="evenodd"/>
  <path fill-rule="evenodd" d="M14.286 5.928a.625.625 0 0 1-.214.858L8.715 10l5.357 3.214a.625.625 0 0 1-.644 1.072l-6.25-3.75a.625.625 0 0 1 0-1.072l6.25-3.75a.625.625 0 0 1 .858.214Z" clip-rule="evenodd"/>
</svg>
