<svg xmlns="http://www.w3.org/2000/svg" width="20" height="20" fill="currentColor" viewBox="0 0 20 20">
  <path fill-rule="evenodd" d="M11.25 13.125c0-1.036.84-1.875 1.875-1.875h3.75c1.035 0 1.875.84 1.875 1.875v3.75c0 1.035-.84 1.875-1.875 1.875h-3.75a1.875 1.875 0 0 1-1.875-1.875v-3.75Zm1.875-.625a.625.625 0 0 0-.625.625v3.75c0 .345.28.625.625.625h3.75c.345 0 .625-.28.625-.625v-3.75a.625.625 0 0 0-.625-.625h-3.75ZM3.75 10c.345 0 .625.28.625.625v5.374c0 .133.109.251.26.251H8.75a.625.625 0 1 1 0 1.25H4.636a1.504 1.504 0 0 1-1.511-1.501v-5.374c0-.345.28-.625.625-.625Z" clip-rule="evenodd"/>
  <path fill-rule="evenodd" d="M7.058 15.183a.625.625 0 0 1 .884 0l1.25 1.25a.625.625 0 0 1 0 .884l-1.25 1.25a.625.625 0 1 1-.884-.884l.808-.808-.808-.808a.625.625 0 0 1 0-.884Zm3.567-12.058c0-.345.28-.625.625-.625h4.031c.823 0 1.594.615 1.594 1.501v5.374a.625.625 0 1 1-1.25 0V4.001c0-.082-.092-.251-.344-.251H11.25a.625.625 0 0 1-.625-.625Z" clip-rule="evenodd"/>
  <path fill-rule="evenodd" d="M12.942 1.433a.625.625 0 0 1 0 .884l-.808.808.808.808a.625.625 0 1 1-.884.884l-1.25-1.25a.625.625 0 0 1 0-.884l1.25-1.25a.625.625 0 0 1 .884 0ZM5 2.5a2.5 2.5 0 1 0 0 5 2.5 2.5 0 0 0 0-5ZM1.25 5a3.75 3.75 0 1 1 7.5 0 3.75 3.75 0 0 1-7.5 0Z" clip-rule="evenodd"/>
</svg>
