<svg xmlns="http://www.w3.org/2000/svg" width="20" height="20" fill="currentColor" viewBox="0 0 20 20">
  <path fill-rule="evenodd" d="M13.75 4.375a1.875 1.875 0 1 1 3.75 0 1.875 1.875 0 0 1-3.75 0Zm1.875-3.125a3.125 3.125 0 0 0-2.67 4.749l-5.53 3.317a3.126 3.126 0 1 0 0 1.368l5.53 3.318a3.125 3.125 0 1 0 .874-.934L8.714 10l5.113-3.068a3.125 3.125 0 1 0 1.797-5.682ZM2.5 10a1.875 1.875 0 1 1 3.75 0 1.875 1.875 0 0 1-3.75 0Zm13.125 3.75a1.875 1.875 0 1 0 0 3.75 1.875 1.875 0 0 0 0-3.75Z" clip-rule="evenodd"/>
</svg>
