<svg xmlns="http://www.w3.org/2000/svg" width="20" height="20" fill="none" viewBox="0 0 20 20">
  <path fill="#3D3C3C" fill-rule="evenodd" d="M13.384 7.5h4.494a.625.625 0 0 1 0 1.25H12.5c-.69 0-1.25-.56-1.25-1.25V2.122a.625.625 0 1 1 1.25 0v4.494l5.183-5.183a.625.625 0 1 1 .884.884L13.384 7.5ZM8.125 18.503a.625.625 0 0 1-.625-.625v-4.494l-5.183 5.183a.625.625 0 0 1-.884-.884L6.616 12.5H2.122a.625.625 0 1 1 0-1.25H7.5c.69 0 1.25.56 1.25 1.25v5.378c0 .345-.28.625-.625.625Z" clip-rule="evenodd"/>
</svg>
