<svg xmlns="http://www.w3.org/2000/svg" width="20" height="20" fill="currentColor" viewBox="0 0 20 20">
  <path fill-rule="evenodd" d="M1.875 5c0-1.036.84-1.875 1.875-1.875h12.5c1.035 0 1.875.84 1.875 1.875v10c0 1.035-.84 1.875-1.875 1.875H3.75A1.875 1.875 0 0 1 1.875 15V5Zm1.875-.625A.625.625 0 0 0 3.125 5v10c0 .345.28.625.625.625h12.5c.345 0 .625-.28.625-.625V5a.625.625 0 0 0-.625-.625H3.75Z" clip-rule="evenodd"/>
  <path fill-rule="evenodd" d="M6.875 16.25V3.75h1.25v12.5h-1.25Zm3.308-5.808a.625.625 0 0 1 0-.884l2.5-2.5a.625.625 0 1 1 .884.884L11.509 10l2.058 2.058a.625.625 0 1 1-.884.884l-2.5-2.5Z" clip-rule="evenodd"/>
  <path fill-rule="evenodd" d="M10 10c0-.345.28-.625.625-.625h6.25a.625.625 0 1 1 0 1.25h-6.25A.625.625 0 0 1 10 10Z" clip-rule="evenodd"/>
</svg>
