<svg width="20" height="20" viewBox="0 0 20 20" fill="none" xmlns="http://www.w3.org/2000/svg">
<g clip-path="url(#clip0_437_5924)">
<path fill-rule="evenodd" clip-rule="evenodd" d="M6.42782 3.31336C6.66896 3.06639 7.06466 3.06167 7.31164 3.30282L8.56164 4.52334C8.68209 4.64095 8.75 4.80217 8.75 4.97052V6.25C8.75 6.59518 8.47018 6.875 8.125 6.875C7.77982 6.875 7.5 6.59518 7.5 6.25V5.23378L6.43836 4.19718C6.19139 3.95604 6.18667 3.56034 6.42782 3.31336Z" fill="black"/>
<path fill-rule="evenodd" clip-rule="evenodd" d="M13.5722 3.31336C13.331 3.06639 12.9353 3.06167 12.6884 3.30282L11.4384 4.52334C11.3179 4.64095 11.25 4.80217 11.25 4.97052V6.25C11.25 6.59518 11.5298 6.875 11.875 6.875C12.2202 6.875 12.5 6.59518 12.5 6.25V5.23378L13.5616 4.19718C13.8086 3.95604 13.8133 3.56034 13.5722 3.31336Z" fill="black"/>
<path fill-rule="evenodd" clip-rule="evenodd" d="M3.31386 6.42733C3.5611 6.18646 3.9568 6.19162 4.19767 6.43886L5.23147 7.5H6.25C6.59518 7.5 6.875 7.77982 6.875 8.125C6.875 8.47018 6.59518 8.75 6.25 8.75H4.9678C4.79921 8.75 4.63777 8.68189 4.52013 8.56114L3.30233 7.31114C3.06146 7.0639 3.06662 6.6682 3.31386 6.42733Z" fill="black"/>
<path fill-rule="evenodd" clip-rule="evenodd" d="M17.3111 6.42733C17.0639 6.18646 16.6682 6.19162 16.4273 6.43886L15.3935 7.5H14.375C14.0298 7.5 13.75 7.77982 13.75 8.125C13.75 8.47018 14.0298 8.75 14.375 8.75H15.6572C15.8258 8.75 15.9872 8.68189 16.1049 8.56114L17.3227 7.31114C17.5635 7.0639 17.5584 6.6682 17.3111 6.42733Z" fill="black"/>
<path fill-rule="evenodd" clip-rule="evenodd" d="M8.125 13.75C8.47018 13.75 8.75 14.0298 8.75 14.375V15.6545C8.75 15.8228 8.68209 15.9841 8.56164 16.1017L7.31164 17.3222C7.06466 17.5633 6.66896 17.5586 6.42782 17.3116C6.18667 17.0647 6.19139 16.669 6.43836 16.4278L7.5 15.3912V14.375C7.5 14.0298 7.77982 13.75 8.125 13.75Z" fill="black"/>
<path fill-rule="evenodd" clip-rule="evenodd" d="M11.875 13.75C11.5298 13.75 11.25 14.0298 11.25 14.375V15.6545C11.25 15.8228 11.3179 15.9841 11.4384 16.1017L12.6884 17.3222C12.9353 17.5633 13.331 17.5586 13.5722 17.3116C13.8133 17.0647 13.8086 16.669 13.5616 16.4278L12.5 15.3912V14.375C12.5 14.0298 12.2202 13.75 11.875 13.75Z" fill="black"/>
<path fill-rule="evenodd" clip-rule="evenodd" d="M4.52013 10.8139C4.63777 10.6931 4.79921 10.625 4.9678 10.625H6.25C6.59518 10.625 6.875 10.9048 6.875 11.25C6.875 11.5952 6.59518 11.875 6.25 11.875H5.23147L4.19767 12.9361C3.9568 13.1834 3.5611 13.1885 3.31386 12.9477C3.06662 12.7068 3.06146 12.3111 3.30233 12.0639L4.52013 10.8139Z" fill="black"/>
<path fill-rule="evenodd" clip-rule="evenodd" d="M16.1049 10.8139C15.9872 10.6931 15.8258 10.625 15.6572 10.625H14.375C14.0298 10.625 13.75 10.9048 13.75 11.25C13.75 11.5952 14.0298 11.875 14.375 11.875H15.3935L16.4273 12.9361C16.6682 13.1834 17.0639 13.1885 17.3111 12.9477C17.5584 12.7068 17.5635 12.3111 17.3227 12.0639L16.1049 10.8139Z" fill="black"/>
<path fill-rule="evenodd" clip-rule="evenodd" d="M2.5 13.125C2.15482 13.125 1.875 13.4048 1.875 13.75C1.875 14.0952 2.15482 14.375 2.5 14.375C2.84518 14.375 3.125 14.0952 3.125 13.75C3.125 13.4048 2.84518 13.125 2.5 13.125ZM0.625 13.75C0.625 12.7145 1.46447 11.875 2.5 11.875C3.53553 11.875 4.375 12.7145 4.375 13.75C4.375 14.7855 3.53553 15.625 2.5 15.625C1.46447 15.625 0.625 14.7855 0.625 13.75Z" fill="black"/>
<path fill-rule="evenodd" clip-rule="evenodd" d="M17.5 13.125C17.1548 13.125 16.875 13.4048 16.875 13.75C16.875 14.0952 17.1548 14.375 17.5 14.375C17.8452 14.375 18.125 14.0952 18.125 13.75C18.125 13.4048 17.8452 13.125 17.5 13.125ZM15.625 13.75C15.625 12.7145 16.4645 11.875 17.5 11.875C18.5355 11.875 19.375 12.7145 19.375 13.75C19.375 14.7855 18.5355 15.625 17.5 15.625C16.4645 15.625 15.625 14.7855 15.625 13.75Z" fill="black"/>
<path fill-rule="evenodd" clip-rule="evenodd" d="M5.625 16.875C5.27982 16.875 5 17.1548 5 17.5C5 17.8452 5.27982 18.125 5.625 18.125C5.97018 18.125 6.25 17.8452 6.25 17.5C6.25 17.1548 5.97018 16.875 5.625 16.875ZM3.75 17.5C3.75 16.4645 4.58947 15.625 5.625 15.625C6.66053 15.625 7.5 16.4645 7.5 17.5C7.5 18.5355 6.66053 19.375 5.625 19.375C4.58947 19.375 3.75 18.5355 3.75 17.5Z" fill="black"/>
<path fill-rule="evenodd" clip-rule="evenodd" d="M14.375 16.875C14.0298 16.875 13.75 17.1548 13.75 17.5C13.75 17.8452 14.0298 18.125 14.375 18.125C14.7202 18.125 15 17.8452 15 17.5C15 17.1548 14.7202 16.875 14.375 16.875ZM12.5 17.5C12.5 16.4645 13.3395 15.625 14.375 15.625C15.4105 15.625 16.25 16.4645 16.25 17.5C16.25 18.5355 15.4105 19.375 14.375 19.375C13.3395 19.375 12.5 18.5355 12.5 17.5Z" fill="black"/>
<path fill-rule="evenodd" clip-rule="evenodd" d="M2.5 5C2.15482 5 1.875 5.27982 1.875 5.625C1.875 5.97018 2.15482 6.25 2.5 6.25C2.84518 6.25 3.125 5.97018 3.125 5.625C3.125 5.27982 2.84518 5 2.5 5ZM0.625 5.625C0.625 4.58946 1.46447 3.75 2.5 3.75C3.53553 3.75 4.375 4.58946 4.375 5.625C4.375 6.66053 3.53553 7.5 2.5 7.5C1.46447 7.5 0.625 6.66053 0.625 5.625Z" fill="black"/>
<path fill-rule="evenodd" clip-rule="evenodd" d="M17.5 5C17.1548 5 16.875 5.27982 16.875 5.625C16.875 5.97018 17.1548 6.25 17.5 6.25C17.8452 6.25 18.125 5.97018 18.125 5.625C18.125 5.27982 17.8452 5 17.5 5ZM15.625 5.625C15.625 4.58946 16.4645 3.75 17.5 3.75C18.5355 3.75 19.375 4.58946 19.375 5.625C19.375 6.66053 18.5355 7.5 17.5 7.5C16.4645 7.5 15.625 6.66053 15.625 5.625Z" fill="black"/>
<path fill-rule="evenodd" clip-rule="evenodd" d="M6.25 1.875C5.90482 1.875 5.625 2.15482 5.625 2.5C5.625 2.84518 5.90482 3.125 6.25 3.125C6.59518 3.125 6.875 2.84518 6.875 2.5C6.875 2.15482 6.59518 1.875 6.25 1.875ZM4.375 2.5C4.375 1.46446 5.21447 0.625 6.25 0.625C7.28553 0.625 8.125 1.46446 8.125 2.5C8.125 3.53553 7.28553 4.375 6.25 4.375C5.21447 4.375 4.375 3.53553 4.375 2.5Z" fill="black"/>
<path fill-rule="evenodd" clip-rule="evenodd" d="M13.75 1.875C13.4048 1.875 13.125 2.15482 13.125 2.5C13.125 2.84518 13.4048 3.125 13.75 3.125C14.0952 3.125 14.375 2.84518 14.375 2.5C14.375 2.15482 14.0952 1.875 13.75 1.875ZM11.875 2.5C11.875 1.46446 12.7145 0.625 13.75 0.625C14.7855 0.625 15.625 1.46446 15.625 2.5C15.625 3.53553 14.7855 4.375 13.75 4.375C12.7145 4.375 11.875 3.53553 11.875 2.5Z" fill="black"/>
<path fill-rule="evenodd" clip-rule="evenodd" d="M7.17599 6.875C7.0183 6.875 6.875 7.00723 6.875 7.18956V12.8104C6.875 12.9928 7.0183 13.125 7.17599 13.125H12.824C12.9817 13.125 13.125 12.9928 13.125 12.8104V7.18956C13.125 7.00723 12.9817 6.875 12.824 6.875H7.17599ZM5.625 7.18956C5.625 6.33408 6.31086 5.625 7.17599 5.625H12.824C13.6891 5.625 14.375 6.33408 14.375 7.18956V12.8104C14.375 13.6659 13.6891 14.375 12.824 14.375H7.17599C6.31086 14.375 5.625 13.6659 5.625 12.8104V7.18956Z" fill="black"/>
</g>
<defs>
<clipPath id="clip0_437_5924">
<rect width="20" height="20" fill="white"/>
</clipPath>
</defs>
</svg>
