<svg width="20" height="20" viewBox="0 0 20 20" fill="none" xmlns="http://www.w3.org/2000/svg">
<path fill-rule="evenodd" clip-rule="evenodd" d="M14.1465 4.374C15.1904 5.27818 15.2882 6.86387 14.3767 7.89766C13.5021 8.90356 11.983 9.03656 10.9474 8.20372C10.9135 8.18386 10.8811 8.16052 10.8505 8.13369C9.81879 7.22727 9.7056 5.64283 10.6214 4.60439C11.529 3.56152 13.1121 3.45976 14.1465 4.374ZM13.3202 5.31201C12.8048 4.85493 12.015 4.90604 11.5634 5.42605L11.5598 5.43014L11.5598 5.43012C11.1241 5.92314 11.1539 6.67304 11.6126 7.13535C11.6373 7.15167 11.6612 7.16993 11.6841 7.19016C12.1981 7.646 12.9879 7.59111 13.4343 7.07641L13.4381 7.07203L13.4381 7.07205C13.8962 6.55373 13.8421 5.76257 13.3265 5.31749L13.3202 5.31205L13.3202 5.31201Z" fill="black"/>
<path fill-rule="evenodd" clip-rule="evenodd" d="M15.0363 3.66247C13.0256 1.89993 9.96103 2.09743 8.20024 4.10091C6.95086 5.52066 6.6861 7.46218 7.34782 9.10098C7.43632 9.32015 7.3936 9.5705 7.23743 9.74793L2.46411 15.1709V17.5475H4.93924L5.05413 15.9858C5.07653 15.6814 5.31554 15.4377 5.61947 15.4093L6.93078 15.2872V13.9142C6.93078 13.5968 7.16861 13.3298 7.48385 13.2933L9.15863 13.0993L9.9858 12.1595C10.1415 11.9826 10.3835 11.9084 10.6117 11.9675C12.3299 12.4125 14.2258 11.8994 15.4753 10.485C17.2421 8.47473 17.0448 5.42315 15.0363 3.66247ZM7.26132 3.27573C9.47886 0.752545 13.3326 0.50671 15.8603 2.7225C18.3899 4.93997 18.6361 8.78294 16.4135 11.311L16.4126 11.3121C14.931 12.9895 12.7301 13.6565 10.6795 13.2633L9.93826 14.1054C9.83612 14.2215 9.6946 14.2955 9.54104 14.3133L8.18078 14.4709V15.8567C8.18078 16.1794 7.93508 16.449 7.61376 16.479L6.26196 16.6049L6.14326 18.2183C6.11924 18.5448 5.84733 18.7975 5.51994 18.7975H1.83911C1.49393 18.7975 1.21411 18.5177 1.21411 18.1725V14.935C1.21411 14.783 1.26952 14.6361 1.36996 14.522L6.05375 9.20081C5.40047 7.22342 5.7804 4.95881 7.26132 3.27573Z" fill="black"/>
<path fill-rule="evenodd" clip-rule="evenodd" d="M7.29311 11.4104C7.54968 11.6414 7.57048 12.0365 7.33956 12.2931L4.52706 15.4181C4.29615 15.6747 3.90097 15.6955 3.6444 15.4646C3.38783 15.2337 3.36703 14.8385 3.59795 14.5819L6.41045 11.4569C6.64136 11.2003 7.03654 11.1795 7.29311 11.4104Z" fill="black"/>
</svg>
