<svg width="20" height="20" viewBox="0 0 20 20" fill="none" xmlns="http://www.w3.org/2000/svg">
<path fill-rule="evenodd" clip-rule="evenodd" d="M10 5C9.30917 5 8.75 5.55771 8.75 6.25C8.75 6.94229 9.30917 7.5 10 7.5C10.6898 7.5 11.25 6.93863 11.25 6.25C11.25 5.55771 10.6908 5 10 5ZM7.5 6.25C7.5 4.86623 8.61994 3.75 10 3.75C11.3801 3.75 12.5 4.86623 12.5 6.25C12.5 7.62808 11.3811 8.75 10 8.75C8.61994 8.75 7.5 7.63377 7.5 6.25Z" fill="black"/>
<path fill-rule="evenodd" clip-rule="evenodd" d="M5.625 10.3125C5.97018 10.3125 6.25 10.5923 6.25 10.9375V16.2621L10.1914 17.53C10.52 17.6357 10.7007 17.9878 10.595 18.3164C10.4893 18.645 10.1372 18.8257 9.80861 18.72L5.43361 17.3126C5.17521 17.2295 5 16.9891 5 16.7176V10.9375C5 10.5923 5.27982 10.3125 5.625 10.3125Z" fill="black"/>
<path fill-rule="evenodd" clip-rule="evenodd" d="M5.66443 10.0334C5.77567 9.99548 5.89534 9.98973 6.00969 10.0168L7.33132 10.3293C7.66723 10.4087 7.87516 10.7454 7.79573 11.0813C7.7163 11.4172 7.3796 11.6252 7.04368 11.5457L5.89708 11.2746L2.5 12.4313V17.252L5.66443 16.1745C5.99118 16.0632 6.34626 16.2379 6.45752 16.5647C6.56878 16.8914 6.39408 17.2465 6.06733 17.3578L2.07645 18.7166C1.8856 18.7816 1.67512 18.7506 1.51119 18.6332C1.34725 18.5158 1.25 18.3266 1.25 18.125V11.9839C1.25 11.7163 1.42029 11.4785 1.67355 11.3922L5.66443 10.0334Z" fill="black"/>
<path fill-rule="evenodd" clip-rule="evenodd" d="M13.9953 10.0167C14.1096 9.98973 14.2292 9.99554 14.3403 10.0334L18.3267 11.3923C18.5798 11.4786 18.75 11.7164 18.75 11.9839V18.125C18.75 18.3266 18.6527 18.5159 18.4887 18.6333C18.3248 18.7506 18.1142 18.7816 17.9234 18.7166L13.937 17.3577C13.6103 17.2463 13.4357 16.8912 13.5471 16.5645C13.6585 16.2378 14.0136 16.0632 14.3403 16.1746L17.5 17.2516V12.4311L14.1071 11.2746L12.9559 11.5458C12.6199 11.625 12.2834 11.4168 12.2042 11.0808C12.125 10.7449 12.3332 10.4083 12.6692 10.3292L13.9953 10.0167Z" fill="black"/>
<path fill-rule="evenodd" clip-rule="evenodd" d="M14.375 10.3125C14.7202 10.3125 15 10.5923 15 10.9375V16.7176C15 16.9891 14.8248 17.2295 14.5664 17.3126L10.1914 18.72C10.0012 18.7811 9.79332 18.7477 9.63189 18.6301C9.47047 18.5125 9.375 18.3247 9.375 18.125V14.375C9.375 14.0298 9.65482 13.75 10 13.75C10.3452 13.75 10.625 14.0298 10.625 14.375V17.2674L13.75 16.2621V10.9375C13.75 10.5923 14.0298 10.3125 14.375 10.3125Z" fill="black"/>
<path fill-rule="evenodd" clip-rule="evenodd" d="M10 2.5C7.9302 2.5 6.25001 4.1764 6.25001 6.24174L6.25 6.24275C6.24884 6.96045 6.48425 7.79753 6.87725 8.68005C7.26704 9.55537 7.79273 10.4333 8.32755 11.2211C8.8612 12.0071 9.39627 12.6922 9.79835 13.1811C9.87014 13.2684 9.9376 13.3493 9.99996 13.4233C10.0621 13.3495 10.1293 13.2689 10.2009 13.1819C10.6025 12.6935 11.1371 12.0089 11.6704 11.2232C12.2049 10.4358 12.7304 9.55795 13.1205 8.6823C13.5137 7.79952 13.75 6.96136 13.75 6.24174C13.75 4.1764 12.0698 2.5 10 2.5ZM10 14.375L10.4601 14.7981C10.3417 14.9268 10.1749 15 10 15C9.82517 15 9.65832 14.9268 9.53996 14.7981L10 14.375ZM5.00001 6.24123C5.00028 3.48302 7.24277 1.25 10 1.25C12.7574 1.25 15 3.48329 15 6.24174C15 7.2099 14.6894 8.23228 14.2623 9.19095C13.8321 10.1567 13.2639 11.1013 12.7046 11.9252C12.1442 12.7509 11.585 13.4667 11.1663 13.9758C10.9567 14.2307 10.7816 14.4347 10.6583 14.5756C10.5966 14.6461 10.5478 14.7008 10.5141 14.7384C10.4972 14.7572 10.4841 14.7717 10.475 14.7817L10.4644 14.7933L10.4614 14.7965L10.4606 14.7975C10.4604 14.7976 10.4601 14.7981 10 14.375C9.53996 14.7981 9.54007 14.7982 9.53996 14.7981L9.53947 14.7975L9.53561 14.7933L9.52501 14.7817C9.51591 14.7717 9.50278 14.7572 9.48588 14.7384C9.4521 14.7008 9.40326 14.6459 9.34151 14.5754C9.21803 14.4343 9.04276 14.2302 8.83293 13.9751C8.41386 13.4656 7.85415 12.7492 7.29337 11.9232C6.73376 11.0989 6.16536 10.1542 5.73535 9.18855C5.30863 8.2303 4.99855 7.2084 5.00001 6.24123Z" fill="black"/>
</svg>
