<svg width="20" height="20" viewBox="0 0 20 20" fill="none" xmlns="http://www.w3.org/2000/svg">
<rect width="20" height="20" fill="white"/>
<path fill-rule="evenodd" clip-rule="evenodd" d="M15 2.5H5V5H15V2.5ZM5 1.25C4.30964 1.25 3.75 1.80964 3.75 2.5V5C3.75 5.69036 4.30964 6.25 5 6.25H15C15.6904 6.25 16.25 5.69036 16.25 5V2.5C16.25 1.80964 15.6904 1.25 15 1.25H5Z" fill="black"/>
<path fill-rule="evenodd" clip-rule="evenodd" d="M15 8.75H5V11.25H15V8.75ZM5 7.5C4.30964 7.5 3.75 8.05964 3.75 8.75V11.25C3.75 11.9404 4.30964 12.5 5 12.5H15C15.6904 12.5 16.25 11.9404 16.25 11.25V8.75C16.25 8.05964 15.6904 7.5 15 7.5H5Z" fill="black"/>
<path fill-rule="evenodd" clip-rule="evenodd" d="M15 15H5V17.5H15V15ZM5 13.75C4.30964 13.75 3.75 14.3096 3.75 15V17.5C3.75 18.1904 4.30964 18.75 5 18.75H15C15.6904 18.75 16.25 18.1904 16.25 17.5V15C16.25 14.3096 15.6904 13.75 15 13.75H5Z" fill="black"/>
<path fill-rule="evenodd" clip-rule="evenodd" d="M6.25 3.75C6.25 3.40482 6.52982 3.125 6.875 3.125H7.5C7.84518 3.125 8.125 3.40482 8.125 3.75C8.125 4.09518 7.84518 4.375 7.5 4.375H6.875C6.52982 4.375 6.25 4.09518 6.25 3.75Z" fill="black"/>
<path fill-rule="evenodd" clip-rule="evenodd" d="M9.375 3.75C9.375 3.40482 9.65482 3.125 10 3.125H13.125C13.4702 3.125 13.75 3.40482 13.75 3.75C13.75 4.09518 13.4702 4.375 13.125 4.375H10C9.65482 4.375 9.375 4.09518 9.375 3.75Z" fill="black"/>
<path fill-rule="evenodd" clip-rule="evenodd" d="M6.25 10C6.25 9.65482 6.52982 9.375 6.875 9.375H7.5C7.84518 9.375 8.125 9.65482 8.125 10C8.125 10.3452 7.84518 10.625 7.5 10.625H6.875C6.52982 10.625 6.25 10.3452 6.25 10Z" fill="black"/>
<path fill-rule="evenodd" clip-rule="evenodd" d="M9.375 10C9.375 9.65482 9.65482 9.375 10 9.375H13.125C13.4702 9.375 13.75 9.65482 13.75 10C13.75 10.3452 13.4702 10.625 13.125 10.625H10C9.65482 10.625 9.375 10.3452 9.375 10Z" fill="black"/>
<path fill-rule="evenodd" clip-rule="evenodd" d="M6.25 16.25C6.25 15.9048 6.52982 15.625 6.875 15.625H7.5C7.84518 15.625 8.125 15.9048 8.125 16.25C8.125 16.5952 7.84518 16.875 7.5 16.875H6.875C6.52982 16.875 6.25 16.5952 6.25 16.25Z" fill="black"/>
<path fill-rule="evenodd" clip-rule="evenodd" d="M9.375 16.25C9.375 15.9048 9.65482 15.625 10 15.625H13.125C13.4702 15.625 13.75 15.9048 13.75 16.25C13.75 16.5952 13.4702 16.875 13.125 16.875H10C9.65482 16.875 9.375 16.5952 9.375 16.25Z" fill="black"/>
</svg>
