<svg width="20" height="20" viewBox="0 0 20 20" fill="none" xmlns="http://www.w3.org/2000/svg">
<path fill-rule="evenodd" clip-rule="evenodd" d="M2.69907 5.21068C2.57141 5.31453 2.5 5.45293 2.5 5.6407V16.7308C2.5 17.1184 2.83464 17.4769 3.30634 17.4769H9.82301C10.1682 17.4769 10.448 17.7567 10.448 18.1019C10.448 18.447 10.1682 18.7269 9.82301 18.7269H3.30634C2.19542 18.7269 1.25 17.8588 1.25 16.7308V5.6407C1.25 5.07641 1.49109 4.58196 1.9103 4.24097C2.31903 3.9085 2.85917 3.75 3.4375 3.75H3.75C4.09518 3.75 4.375 4.02982 4.375 4.375C4.375 4.72018 4.09518 5 3.75 5H3.4375C3.07833 5 2.83722 5.09832 2.69907 5.21068Z" fill="black"/>
<path fill-rule="evenodd" clip-rule="evenodd" d="M13.125 4.375C13.125 4.02982 13.4048 3.75 13.75 3.75H14.0625C15.1861 3.75 16.25 4.5259 16.25 5.69025V8.75C16.25 9.09518 15.9702 9.375 15.625 9.375C15.2798 9.375 15 9.09518 15 8.75V5.69025C15 5.40177 14.6972 5 14.0625 5H13.75C13.4048 5 13.125 4.72018 13.125 4.375Z" fill="black"/>
<path fill-rule="evenodd" clip-rule="evenodd" d="M1.25 7.5C1.25 7.15482 1.52982 6.875 1.875 6.875H15C15.3452 6.875 15.625 7.15482 15.625 7.5C15.625 7.84518 15.3452 8.125 15 8.125H1.875C1.52982 8.125 1.25 7.84518 1.25 7.5Z" fill="black"/>
<path fill-rule="evenodd" clip-rule="evenodd" d="M5.6554 4.36469C5.6554 4.01951 5.93522 3.73969 6.2804 3.73969H11.2552C11.6004 3.73969 11.8802 4.01951 11.8802 4.36469C11.8802 4.70986 11.6004 4.98969 11.2552 4.98969H6.2804C5.93522 4.98969 5.6554 4.70986 5.6554 4.36469Z" fill="black"/>
<path fill-rule="evenodd" clip-rule="evenodd" d="M6.25 2.5C6.59518 2.5 6.875 2.78137 6.875 3.12846V5.62154C6.875 5.96863 6.59518 6.25 6.25 6.25C5.90482 6.25 5.625 5.96863 5.625 5.62154V3.12846C5.625 2.78137 5.90482 2.5 6.25 2.5Z" fill="black"/>
<path fill-rule="evenodd" clip-rule="evenodd" d="M11.25 2.5C11.5952 2.5 11.875 2.78137 11.875 3.12846V5.62154C11.875 5.96863 11.5952 6.25 11.25 6.25C10.9048 6.25 10.625 5.96863 10.625 5.62154V3.12846C10.625 2.78137 10.9048 2.5 11.25 2.5Z" fill="black"/>
<path fill-rule="evenodd" clip-rule="evenodd" d="M10 14.375C10 11.9619 11.9548 10 14.375 10C16.7951 10 18.75 11.9619 18.75 14.375C18.75 16.7887 16.7887 18.75 14.375 18.75C11.9548 18.75 10 16.7881 10 14.375ZM14.375 11.25C12.6465 11.25 11.25 12.651 11.25 14.375C11.25 16.099 12.6465 17.5 14.375 17.5C16.0984 17.5 17.5 16.0984 17.5 14.375C17.5 12.651 16.1035 11.25 14.375 11.25Z" fill="black"/>
<path fill-rule="evenodd" clip-rule="evenodd" d="M15.9838 12.6132C16.2664 12.8113 16.335 13.201 16.1369 13.4837L14.3848 15.9837C14.2676 16.1508 14.0763 16.2503 13.8721 16.25C13.668 16.2497 13.4769 16.1498 13.3602 15.9823L12.6123 14.9092C12.4149 14.626 12.4845 14.2364 12.7677 14.0391C13.0509 13.8417 13.4405 13.9113 13.6378 14.1945L13.8744 14.5339L15.1132 12.7663C15.3113 12.4836 15.7011 12.4151 15.9838 12.6132Z" fill="black"/>
<path d="M5.16018 10H4.83982C4.58229 10 4.375 10.1937 4.375 10.4312V10.8188C4.375 11.0563 4.58229 11.25 4.83982 11.25H5.16018C5.41771 11.25 5.625 11.0563 5.625 10.8188V10.4312C5.625 10.1937 5.41771 10 5.16018 10Z" fill="black"/>
<path d="M7.66018 10H7.33982C7.08229 10 6.875 10.1937 6.875 10.4312V10.8188C6.875 11.0563 7.08229 11.25 7.33982 11.25H7.66018C7.91771 11.25 8.125 11.0563 8.125 10.8188V10.4312C8.125 10.1937 7.91771 10 7.66018 10Z" fill="black"/>
<path d="M5.16018 12.5H4.83982C4.58229 12.5 4.375 12.6938 4.375 12.9313V13.3187C4.375 13.5562 4.58229 13.75 4.83982 13.75H5.16018C5.41771 13.75 5.625 13.5562 5.625 13.3187V12.9313C5.625 12.6938 5.41771 12.5 5.16018 12.5Z" fill="black"/>
<path d="M7.66018 12.5H7.33982C7.08229 12.5 6.875 12.6938 6.875 12.9313V13.3187C6.875 13.5562 7.08229 13.75 7.33982 13.75H7.66018C7.91771 13.75 8.125 13.5562 8.125 13.3187V12.9313C8.125 12.6938 7.91771 12.5 7.66018 12.5Z" fill="black"/>
<path d="M5.16018 15H4.83982C4.58229 15 4.375 15.1938 4.375 15.4313V15.8187C4.375 16.0562 4.58229 16.25 4.83982 16.25H5.16018C5.41771 16.25 5.625 16.0562 5.625 15.8187V15.4313C5.625 15.1938 5.41771 15 5.16018 15Z" fill="black"/>
<path d="M7.66018 15H7.33982C7.08229 15 6.875 15.1938 6.875 15.4313V15.8187C6.875 16.0562 7.08229 16.25 7.33982 16.25H7.66018C7.91771 16.25 8.125 16.0562 8.125 15.8187V15.4313C8.125 15.1938 7.91771 15 7.66018 15Z" fill="black"/>
</svg>
