<svg width="20" height="20" viewBox="0 0 20 20" fill="none" xmlns="http://www.w3.org/2000/svg">
<path fill-rule="evenodd" clip-rule="evenodd" d="M10 5C8.96447 5 8.125 5.83947 8.125 6.875C8.125 7.91053 8.96447 8.75 10 8.75C11.0355 8.75 11.875 7.91053 11.875 6.875C11.875 5.83947 11.0355 5 10 5ZM6.875 6.875C6.875 5.14911 8.27411 3.75 10 3.75C11.7259 3.75 13.125 5.14911 13.125 6.875C13.125 8.60089 11.7259 10 10 10C8.27411 10 6.875 8.60089 6.875 6.875Z" fill="black"/>
<path fill-rule="evenodd" clip-rule="evenodd" d="M5.62502 13.5991L5.64384 16.2456C5.64629 16.5907 5.36847 16.8725 5.0233 16.875C4.67813 16.8774 4.39632 16.5996 4.39387 16.2544L4.37505 13.6077C4.36636 12.2847 5.46548 11.25 6.7815 11.25H11.5625C11.9077 11.25 12.1875 11.5298 12.1875 11.875C12.1875 12.2202 11.9077 12.5 11.5625 12.5H6.7815C6.11546 12.5 5.62136 13.0128 5.62502 13.5991Z" fill="black"/>
<path fill-rule="evenodd" clip-rule="evenodd" d="M10 2.5C5.85945 2.5 2.5 5.8634 2.5 10.003C2.5 14.1421 5.85884 17.5 10 17.5C10.6434 17.5 11.2616 17.4211 11.8497 17.2699C12.1841 17.1839 12.5247 17.3853 12.6107 17.7196C12.6966 18.0539 12.4953 18.3946 12.1609 18.4805C11.4691 18.6583 10.7463 18.75 10 18.75C5.16892 18.75 1.25 14.8329 1.25 10.003C1.25 5.17382 5.16831 1.25 10 1.25C14.8311 1.25 18.75 5.16711 18.75 9.99695C18.75 10.7526 18.6513 11.4803 18.475 12.1789C18.3905 12.5136 18.0507 12.7164 17.716 12.6319C17.3813 12.5474 17.1785 12.2076 17.263 11.8729C17.4158 11.2676 17.5 10.6427 17.5 9.99695C17.5 5.85791 14.1412 2.5 10 2.5Z" fill="black"/>
<path fill-rule="evenodd" clip-rule="evenodd" d="M14.6875 11.25C12.789 11.25 11.25 12.789 11.25 14.6875C11.25 16.586 12.789 18.125 14.6875 18.125C16.586 18.125 18.125 16.586 18.125 14.6875C18.125 12.789 16.586 11.25 14.6875 11.25ZM10 14.6875C10 12.0987 12.0987 10 14.6875 10C17.2763 10 19.375 12.0987 19.375 14.6875C19.375 17.2763 17.2763 19.375 14.6875 19.375C12.0987 19.375 10 17.2763 10 14.6875Z" fill="black"/>
<path fill-rule="evenodd" clip-rule="evenodd" d="M16.6616 13.2797C16.9214 13.507 16.9477 13.9019 16.7203 14.1616L14.5322 16.6616C14.4135 16.7972 14.2421 16.875 14.0619 16.875C13.8817 16.875 13.7103 16.7972 13.5916 16.6616L12.6547 15.5912C12.4274 15.3314 12.4536 14.9366 12.7134 14.7092C12.9731 14.4819 13.368 14.5082 13.5953 14.7679L14.0619 15.301L15.7797 13.3384C16.007 13.0786 16.4019 13.0524 16.6616 13.2797Z" fill="black"/>
</svg>
