<svg width="20" height="20" viewBox="0 0 20 20" fill="none" xmlns="http://www.w3.org/2000/svg">
<path fill-rule="evenodd" clip-rule="evenodd" d="M5.625 8.75C5.625 8.40482 5.90482 8.125 6.25 8.125H13.75C14.0952 8.125 14.375 8.40482 14.375 8.75C14.375 9.09518 14.0952 9.375 13.75 9.375H6.25C5.90482 9.375 5.625 9.09518 5.625 8.75Z" fill="black"/>
<path fill-rule="evenodd" clip-rule="evenodd" d="M5.625 11.25C5.625 10.9048 5.90482 10.625 6.25 10.625H13.75C14.0952 10.625 14.375 10.9048 14.375 11.25C14.375 11.5952 14.0952 11.875 13.75 11.875H6.25C5.90482 11.875 5.625 11.5952 5.625 11.25Z" fill="black"/>
<path fill-rule="evenodd" clip-rule="evenodd" d="M5.625 13.75C5.625 13.4048 5.90482 13.125 6.25 13.125H11.25C11.5952 13.125 11.875 13.4048 11.875 13.75C11.875 14.0952 11.5952 14.375 11.25 14.375H6.25C5.90482 14.375 5.625 14.0952 5.625 13.75Z" fill="black"/>
<path fill-rule="evenodd" clip-rule="evenodd" d="M3.125 3.58644C3.125 2.28217 4.20201 1.25 5.50119 1.25H12.5L12.9419 1.43306L17.3169 5.80806L17.5 6.25V16.4136C17.5 17.7178 16.423 18.75 15.1238 18.75H5.50119C4.20201 18.75 3.125 17.7178 3.125 16.4136V3.58644ZM5.50119 2.5C4.86516 2.5 4.375 2.99942 4.375 3.58644V16.4136C4.375 17.0006 4.86516 17.5 5.50119 17.5H15.1238C15.7598 17.5 16.25 17.0006 16.25 16.4136V6.50888L12.2411 2.5H5.50119Z" fill="black"/>
<path fill-rule="evenodd" clip-rule="evenodd" d="M12.5 1.25C12.8452 1.25 13.125 1.52982 13.125 1.875V5.37619C13.125 5.5125 13.2375 5.625 13.3738 5.625H16.875C17.2202 5.625 17.5 5.90482 17.5 6.25C17.5 6.59518 17.2202 6.875 16.875 6.875H13.3738C12.5471 6.875 11.875 6.20285 11.875 5.37619V1.875C11.875 1.52982 12.1548 1.25 12.5 1.25Z" fill="black"/>
</svg>
