<svg width="20" height="20" viewBox="0 0 20 20" fill="none" xmlns="http://www.w3.org/2000/svg">
<path fill-rule="evenodd" clip-rule="evenodd" d="M13.5412 1.71969C13.55 1.72854 13.5586 1.73718 13.5669 1.74556L14.8169 2.99556C15.165 3.34358 15.3997 3.66418 15.5199 4.05973C15.6255 4.40737 15.6253 4.7718 15.625 5.13006C15.625 5.14728 15.625 5.16448 15.625 5.18167V9.375C15.625 9.72018 15.3452 10 15 10C14.6548 10 14.375 9.72018 14.375 9.375V5.18167C14.375 4.74981 14.3694 4.573 14.3239 4.42318C14.2878 4.30457 14.21 4.15642 13.9331 3.87944L12.6831 2.62944C12.6151 2.56147 12.5849 2.53243 12.5676 2.51739C12.5442 2.5135 12.4955 2.50791 12.3996 2.50448C12.2767 2.50009 12.1141 2.5 11.875 2.5H5.66981C5.57556 2.5175 5.41147 2.5765 5.27285 2.70438C5.13977 2.82715 5 3.03918 5 3.4375V11.25C5 11.5952 4.72018 11.875 4.375 11.875C4.02982 11.875 3.75 11.5952 3.75 11.25V3.4375C3.75 2.69249 4.03398 2.1466 4.42527 1.78562C4.79654 1.44312 5.23734 1.29076 5.55302 1.25416L5.58889 1.25H11.8867C12.1111 1.25 12.2962 1.25 12.4442 1.25528C12.5919 1.26056 12.7426 1.27187 12.886 1.30772C13.2137 1.38965 13.4034 1.5808 13.5412 1.71969Z" fill="black"/>
<path fill-rule="evenodd" clip-rule="evenodd" d="M1.77228 6.69923C2.10972 6.33779 2.51648 6.25 2.77484 6.25H4.06366C4.40883 6.25 4.68866 6.52982 4.68866 6.875C4.68866 7.22018 4.40883 7.5 4.06366 7.5H2.77484C2.77503 7.5 2.77504 7.49998 2.77484 7.5C2.772 7.50024 2.73135 7.50366 2.68597 7.55227C2.63662 7.60512 2.49999 7.79902 2.49999 8.3531V16.6352C2.49999 16.9647 2.51201 17.1755 2.58216 17.3142C2.60633 17.362 2.63421 17.3925 2.6802 17.4177C2.7331 17.4467 2.84706 17.4883 3.07092 17.4883H4.21493L6.04951 11.0113C6.06913 10.935 6.08919 10.8538 6.10882 10.7745C6.13699 10.6606 6.16425 10.5503 6.18803 10.463C6.23113 10.3048 6.28795 10.1202 6.38229 9.95461C6.48752 9.7699 6.64221 9.60297 6.87023 9.49624C7.07926 9.39839 7.30039 9.375 7.49999 9.375H8.92577C9.39442 9.375 9.76796 9.47463 10.083 9.64712C10.3824 9.81108 10.5974 10.026 10.751 10.1796C11.1667 10.5816 11.6173 10.625 12.1875 10.625H17.5C17.8315 10.625 18.1325 10.7358 18.3604 10.9609C18.5744 11.1724 18.6736 11.4348 18.7187 11.6567C18.8062 12.0873 18.7295 12.5517 18.6295 12.8471L18.624 12.8632L18.6176 12.8791C18.3113 13.6438 17.556 15.1345 16.8215 16.584L16.8015 16.6235C16.4364 17.3469 16.1339 17.8826 15.7881 18.2243C15.6002 18.4099 15.392 18.5476 15.1487 18.6332C14.9125 18.7162 14.6759 18.7383 14.4497 18.7383H3.07092C2.69681 18.7383 2.3623 18.6691 2.07884 18.5135C1.78848 18.3542 1.59212 18.1262 1.46679 17.8785C1.24839 17.4469 1.24939 16.946 1.24994 16.6727C1.24996 16.6597 1.24999 16.6471 1.24999 16.6352V8.3531C1.24999 7.60504 1.43556 7.05989 1.77228 6.69923ZM5.5141 17.4883H14.4497C14.5979 17.4883 14.6799 17.473 14.7342 17.4539C14.7813 17.4373 14.8354 17.4083 14.9096 17.3351C15.0877 17.1591 15.3077 16.8091 15.6856 16.0603L15.6861 16.0594C16.4367 14.5778 17.1622 13.1446 17.4501 12.432C17.4704 12.3682 17.4906 12.2779 17.5006 12.1781C17.5115 12.0695 17.5077 11.9745 17.4937 11.9056C17.4912 11.8935 17.4887 11.8834 17.4863 11.875H12.1875C11.5631 11.875 10.6679 11.8417 9.87698 11.0733L9.87374 11.0701L9.87054 11.0669C9.71188 10.9083 9.60894 10.8127 9.48259 10.7435C9.36959 10.6816 9.20603 10.625 8.92577 10.625H7.49999C7.47813 10.625 7.46001 10.6256 7.44519 10.6264C7.43242 10.6607 7.41554 10.7128 7.39409 10.7915C7.37183 10.8733 7.3522 10.9531 7.32893 11.0477C7.30922 11.1279 7.2869 11.2187 7.25814 11.3303L7.25628 11.3376L5.5141 17.4883Z" fill="black"/>
<path fill-rule="evenodd" clip-rule="evenodd" d="M6.875 4.375C6.875 4.02982 7.15482 3.75 7.5 3.75H11.875C12.2202 3.75 12.5 4.02982 12.5 4.375C12.5 4.72018 12.2202 5 11.875 5H7.5C7.15482 5 6.875 4.72018 6.875 4.375ZM6.875 6.875C6.875 6.52982 7.15482 6.25 7.5 6.25H11.875C12.2202 6.25 12.5 6.52982 12.5 6.875C12.5 7.22018 12.2202 7.5 11.875 7.5H7.5C7.15482 7.5 6.875 7.22018 6.875 6.875Z" fill="black"/>
</svg>
