<svg width="20" height="20" viewBox="0 0 20 20" fill="none" xmlns="http://www.w3.org/2000/svg">
<path fill-rule="evenodd" clip-rule="evenodd" d="M2.60248 3.10607L7.94781 8.30203C8.06887 8.41971 8.13717 8.58136 8.13717 8.75019V17.1371C8.13717 17.2304 8.21201 17.4022 8.54725 17.4768C8.87425 17.5497 9.17205 17.4491 9.31116 17.272L9.31688 17.2649L11.8629 14.1202L11.8629 9.06082C11.8629 8.89827 11.9262 8.74212 12.0394 8.62549L17.3883 3.11539L17.3951 3.10853C17.47 3.03369 17.492 2.96992 17.498 2.9261C17.5043 2.87914 17.4963 2.82317 17.4635 2.76262C17.3985 2.64256 17.2268 2.5 16.9312 2.5H3.06882C2.77325 2.5 2.60151 2.64256 2.53649 2.76262C2.5037 2.82317 2.49567 2.87914 2.50203 2.9261C2.50791 2.96944 2.52952 3.0323 2.60248 3.10607ZM16.9312 1.25C17.6515 1.25 18.2634 1.6148 18.5627 2.16735C18.8708 2.7363 18.8128 3.4561 18.2822 3.98916L13.1129 9.31428L13.1129 14.3415C13.1129 14.4846 13.0637 14.6235 12.9736 14.7347L10.291 18.0482C9.77384 18.7027 8.92851 18.8423 8.27558 18.697C7.62958 18.5531 6.88717 18.047 6.88717 17.1371V9.01428L1.72151 3.99296C1.18747 3.45953 1.12848 2.73764 1.43733 2.16735C1.7348 1.61807 2.34127 1.25433 3.05602 1.25004C3.05835 1.25001 3.06068 1.25 3.06302 1.25H16.9312Z" fill="black"/>
</svg>
