<svg width="20" height="20" viewBox="0 0 20 20" fill="none" xmlns="http://www.w3.org/2000/svg">
<path fill-rule="evenodd" clip-rule="evenodd" d="M14.7174 2.97801C14.7174 2.97807 14.7175 2.97796 14.7174 2.97801L6.85764 10.8399L6.26369 13.2037C6.26363 13.2039 6.26358 13.2041 6.26352 13.2044C6.18504 13.5226 6.47676 13.8152 6.79639 13.7365C6.79662 13.7364 6.79686 13.7364 6.79709 13.7363L9.16202 13.1426L17.0219 5.28642C17.6594 4.64923 17.6594 3.6152 17.0219 2.97801L17.0204 2.97654C16.3898 2.34202 15.3559 2.34001 14.7174 2.97801ZM17.9063 2.09466C16.7852 0.967389 14.9585 0.96975 13.8338 2.09392L5.85156 10.0782C5.77167 10.1581 5.71494 10.2582 5.6874 10.3678L5.05094 12.9008L5.05051 12.9025C4.74425 14.1363 5.86491 15.2554 7.09798 14.9496L7.09971 14.9491L9.63388 14.313C9.7435 14.2855 9.84361 14.2287 9.92354 14.1488L17.9056 6.17051C19.0313 5.04536 19.0315 3.22011 17.9063 2.09466Z" fill="black"/>
<path fill-rule="evenodd" clip-rule="evenodd" d="M1.25 4.45164C1.25 3.02683 2.40183 1.875 3.82664 1.875H8.71464C9.05982 1.875 9.33965 2.15482 9.33965 2.5C9.33965 2.84518 9.05982 3.125 8.71464 3.125H3.82664C3.09219 3.125 2.5 3.71719 2.5 4.45164V16.1734C2.5 16.9078 3.09219 17.5 3.82664 17.5H15.5484C16.2828 17.5 16.875 16.9078 16.875 16.1734V11.2854C16.875 10.9402 17.1548 10.6604 17.5 10.6604C17.8452 10.6604 18.125 10.9402 18.125 11.2854V16.1734C18.125 17.5982 16.9732 18.75 15.5484 18.75H3.82664C2.40183 18.75 1.25 17.5982 1.25 16.1734V4.45164Z" fill="black"/>
</svg>
