<svg width="20" height="20" viewBox="0 0 20 20" fill="none" xmlns="http://www.w3.org/2000/svg">
<path fill-rule="evenodd" clip-rule="evenodd" d="M3.06548 2.5C2.78156 2.5 2.5 2.75074 2.5 3.125V5C2.5 5.37426 2.78156 5.625 3.06548 5.625H6.93452C7.21844 5.625 7.5 5.37426 7.5 5V3.125C7.5 2.75074 7.21844 2.5 6.93452 2.5H3.06548ZM1.25 3.125C1.25 2.11855 2.03443 1.25 3.06548 1.25H6.93452C7.96557 1.25 8.75 2.11855 8.75 3.125V5C8.75 6.00645 7.96557 6.875 6.93452 6.875H3.06548C2.03443 6.875 1.25 6.00645 1.25 5V3.125Z" fill="black"/>
<path fill-rule="evenodd" clip-rule="evenodd" d="M3.06548 9.375C2.75317 9.375 2.5 9.62817 2.5 9.94048V16.9345C2.5 17.2468 2.75317 17.5 3.06548 17.5H6.93452C7.24683 17.5 7.5 17.2468 7.5 16.9345V9.94048C7.5 9.62817 7.24683 9.375 6.93452 9.375H3.06548ZM1.25 9.94048C1.25 8.93782 2.06282 8.125 3.06548 8.125H6.93452C7.93718 8.125 8.75 8.93782 8.75 9.94048V16.9345C8.75 17.9372 7.93718 18.75 6.93452 18.75H3.06548C2.06282 18.75 1.25 17.9372 1.25 16.9345V9.94048Z" fill="black"/>
<path fill-rule="evenodd" clip-rule="evenodd" d="M16.9345 17.5C17.2184 17.5 17.5 17.2493 17.5 16.875V15C17.5 14.6257 17.2184 14.375 16.9345 14.375H13.0655C12.7816 14.375 12.5 14.6257 12.5 15V16.875C12.5 17.2493 12.7816 17.5 13.0655 17.5H16.9345ZM18.75 16.875C18.75 17.8814 17.9656 18.75 16.9345 18.75H13.0655C12.0344 18.75 11.25 17.8814 11.25 16.875V15C11.25 13.9936 12.0344 13.125 13.0655 13.125H16.9345C17.9656 13.125 18.75 13.9936 18.75 15V16.875Z" fill="black"/>
<path fill-rule="evenodd" clip-rule="evenodd" d="M16.9345 10.625C17.2468 10.625 17.5 10.3718 17.5 10.0595V3.06548C17.5 2.75317 17.2468 2.5 16.9345 2.5H13.0655C12.7532 2.5 12.5 2.75317 12.5 3.06548V10.0595C12.5 10.3718 12.7532 10.625 13.0655 10.625H16.9345ZM18.75 10.0595C18.75 11.0622 17.9372 11.875 16.9345 11.875H13.0655C12.0628 11.875 11.25 11.0622 11.25 10.0595V3.06548C11.25 2.06282 12.0628 1.25 13.0655 1.25H16.9345C17.9372 1.25 18.75 2.06282 18.75 3.06548V10.0595Z" fill="black"/>
</svg>
