<svg width="20" height="20" viewBox="0 0 20 20" fill="none" xmlns="http://www.w3.org/2000/svg">
<path fill-rule="evenodd" clip-rule="evenodd" d="M17.5 3.75H2.5V16.25H17.5V3.75ZM2.5 2.5C1.80964 2.5 1.25 3.05964 1.25 3.75V16.25C1.25 16.9404 1.80964 17.5 2.5 17.5H17.5C18.1904 17.5 18.75 16.9404 18.75 16.25V3.75C18.75 3.05964 18.1904 2.5 17.5 2.5H2.5Z" fill="black"/>
<path fill-rule="evenodd" clip-rule="evenodd" d="M7.5 8.75C8.19036 8.75 8.75 8.19036 8.75 7.5C8.75 6.80964 8.19036 6.25 7.5 6.25C6.80964 6.25 6.25 6.80964 6.25 7.5C6.25 8.19036 6.80964 8.75 7.5 8.75ZM7.5 10C8.88071 10 10 8.88071 10 7.5C10 6.11929 8.88071 5 7.5 5C6.11929 5 5 6.11929 5 7.5C5 8.88071 6.11929 10 7.5 10Z" fill="black"/>
<path fill-rule="evenodd" clip-rule="evenodd" d="M5.1805 12.0617C5.03242 12.1737 4.99934 12.2777 4.99995 12.3413L5.00001 12.3473L4.99998 13.125H9.99989V12.2846C10.0008 12.1884 9.96261 12.1033 9.8657 12.0262C9.76034 11.9424 9.58729 11.875 9.37128 11.875H5.74972C5.5419 11.875 5.32945 11.949 5.1805 12.0617ZM4.4264 11.0648C4.79525 10.7857 5.2732 10.625 5.74972 10.625H9.37128C10.2481 10.625 11.2585 11.1942 11.2499 12.2934V13.75C11.2499 14.0952 10.9701 14.375 10.6249 14.375H4.37498C4.0298 14.375 3.74998 14.0952 3.74998 13.75V12.3499C3.74583 11.7873 4.05742 11.3439 4.4264 11.0648Z" fill="black"/>
<path fill-rule="evenodd" clip-rule="evenodd" d="M11.875 6.25C11.875 5.90482 12.1548 5.625 12.5 5.625H15.625C15.9702 5.625 16.25 5.90482 16.25 6.25C16.25 6.59518 15.9702 6.875 15.625 6.875H12.5C12.1548 6.875 11.875 6.59518 11.875 6.25Z" fill="black"/>
<path fill-rule="evenodd" clip-rule="evenodd" d="M11.875 8.75C11.875 8.40482 12.1548 8.125 12.5 8.125H15.625C15.9702 8.125 16.25 8.40482 16.25 8.75C16.25 9.09518 15.9702 9.375 15.625 9.375H12.5C12.1548 9.375 11.875 9.09518 11.875 8.75Z" fill="black"/>
</svg>
