<svg width="20" height="20" viewBox="0 0 20 20" fill="none" xmlns="http://www.w3.org/2000/svg">
<path fill-rule="evenodd" clip-rule="evenodd" d="M17.4569 8.2958C13.5981 3.9014 6.40187 3.9014 2.54315 8.2958L17.4569 8.2958ZM17.4569 8.2958L18.5944 9.58939C18.8019 9.8254 18.8019 10.1788 18.5944 10.4148L17.4569 11.7084C13.5926 16.0965 6.40204 16.0974 2.54312 11.7084L1.40565 10.4148C1.19812 10.1788 1.19812 9.8254 1.40565 9.58939L2.54315 8.2958M16.5178 9.12089C13.1569 5.29304 6.84305 5.29304 3.48216 9.12089L2.70727 10.0021L3.48185 10.883C6.84256 14.7054 13.1514 14.706 16.5184 10.8827C16.5184 10.8827 16.5184 10.8827 16.5184 10.8827L17.2927 10.0021L16.5178 9.12089Z" fill="black"/>
<path fill-rule="evenodd" clip-rule="evenodd" d="M10 8.75C9.30964 8.75 8.75 9.30964 8.75 10C8.75 10.6904 9.30964 11.25 10 11.25C10.6904 11.25 11.25 10.6904 11.25 10C11.25 9.30964 10.6904 8.75 10 8.75ZM7.5 10C7.5 8.61929 8.61929 7.5 10 7.5C11.3807 7.5 12.5 8.61929 12.5 10C12.5 11.3807 11.3807 12.5 10 12.5C8.61929 12.5 7.5 11.3807 7.5 10Z" fill="black"/>
</svg>
