<svg width="20" height="20" viewBox="0 0 20 20" fill="none" xmlns="http://www.w3.org/2000/svg">
<path fill-rule="evenodd" clip-rule="evenodd" d="M10 2.45834C5.83489 2.45834 2.45837 5.83486 2.45837 10C2.45837 14.1652 5.83489 17.5417 10 17.5417C14.1652 17.5417 17.5417 14.1652 17.5417 10C17.5417 5.83486 14.1652 2.45834 10 2.45834ZM1.20837 10C1.20837 5.14451 5.14454 1.20834 10 1.20834C14.8555 1.20834 18.7917 5.14451 18.7917 10C18.7917 14.8555 14.8555 18.7917 10 18.7917C5.14454 18.7917 1.20837 14.8555 1.20837 10Z" fill="black"/>
<path fill-rule="evenodd" clip-rule="evenodd" d="M7.1875 6.25C6.66973 6.25 6.25 6.66973 6.25 7.1875C6.25 7.70527 6.66973 8.125 7.1875 8.125C7.70527 8.125 8.125 7.70527 8.125 7.1875C8.125 6.66973 7.70527 6.25 7.1875 6.25ZM5 7.1875C5 5.97938 5.97938 5 7.1875 5C8.39562 5 9.375 5.97938 9.375 7.1875C9.375 8.39562 8.39562 9.375 7.1875 9.375C5.97938 9.375 5 8.39562 5 7.1875Z" fill="black"/>
<path fill-rule="evenodd" clip-rule="evenodd" d="M12.8125 11.875C12.2947 11.875 11.875 12.2947 11.875 12.8125C11.875 13.3303 12.2947 13.75 12.8125 13.75C13.3303 13.75 13.75 13.3303 13.75 12.8125C13.75 12.2947 13.3303 11.875 12.8125 11.875ZM10.625 12.8125C10.625 11.6044 11.6044 10.625 12.8125 10.625C14.0206 10.625 15 11.6044 15 12.8125C15 14.0206 14.0206 15 12.8125 15C11.6044 15 10.625 14.0206 10.625 12.8125Z" fill="black"/>
<path fill-rule="evenodd" clip-rule="evenodd" d="M14.1919 5.80806C14.436 6.05214 14.436 6.44786 14.1919 6.69194L6.69194 14.1919C6.44786 14.436 6.05214 14.436 5.80806 14.1919C5.56398 13.9479 5.56398 13.5521 5.80806 13.3081L13.3081 5.80806C13.5521 5.56398 13.9479 5.56398 14.1919 5.80806Z" fill="black"/>
</svg>
