<svg width="20" height="20" viewBox="0 0 20 20" fill="none" xmlns="http://www.w3.org/2000/svg">
<path fill-rule="evenodd" clip-rule="evenodd" d="M10 6.875C9.30964 6.875 8.75 7.43464 8.75 8.125C8.75 8.81536 9.30964 9.375 10 9.375C10.6904 9.375 11.25 8.81536 11.25 8.125C11.25 7.43464 10.6904 6.875 10 6.875ZM7.5 8.125C7.5 6.74429 8.61929 5.625 10 5.625C11.3807 5.625 12.5 6.74429 12.5 8.125C12.5 9.50571 11.3807 10.625 10 10.625C8.61929 10.625 7.5 9.50571 7.5 8.125Z" fill="black"/>
<path fill-rule="evenodd" clip-rule="evenodd" d="M7.50003 12.9987L7.51249 14.3693C7.51562 14.7145 7.23836 14.9968 6.89319 15C6.54803 15.0031 6.26568 14.7258 6.26254 14.3807L6.25 13.0008C6.25 11.9674 7.16019 11.25 8.13625 11.25H11.8637C12.8354 11.25 13.76 11.9705 13.7499 13.0065M13.7499 13.0071L13.7375 14.3807C13.7343 14.7258 13.452 15.0031 13.1068 15C12.7616 14.9968 12.4844 14.7145 12.4875 14.3693L12.5 12.9945C12.502 12.7947 12.2905 12.5 11.8637 12.5H8.13625C7.71511 12.5 7.50142 12.7852 7.50003 12.9987" fill="black"/>
<path fill-rule="evenodd" clip-rule="evenodd" d="M10 5C7.23858 5 5 7.23858 5 10C5 12.7614 7.23858 15 10 15C12.7614 15 15 12.7614 15 10C15 7.23858 12.7614 5 10 5ZM3.75 10C3.75 6.54822 6.54822 3.75 10 3.75C13.4518 3.75 16.25 6.54822 16.25 10C16.25 13.4518 13.4518 16.25 10 16.25C6.54822 16.25 3.75 13.4518 3.75 10Z" fill="black"/>
<path fill-rule="evenodd" clip-rule="evenodd" d="M3.56081 3.56788C3.80452 3.32343 4.20025 3.32284 4.4447 3.56655L6.37882 5.49488C6.62327 5.73859 6.62386 6.13432 6.38015 6.37876C6.13644 6.62321 5.74071 6.6238 5.49627 6.38009L3.56214 4.45176C3.3177 4.20805 3.3171 3.81232 3.56081 3.56788Z" fill="black"/>
<path fill-rule="evenodd" clip-rule="evenodd" d="M3.125 2.5C2.77982 2.5 2.5 2.77982 2.5 3.125C2.5 3.47018 2.77982 3.75 3.125 3.75C3.47018 3.75 3.75 3.47018 3.75 3.125C3.75 2.77982 3.47018 2.5 3.125 2.5ZM1.25 3.125C1.25 2.08947 2.08947 1.25 3.125 1.25C4.16053 1.25 5 2.08947 5 3.125C5 4.16053 4.16053 5 3.125 5C2.08947 5 1.25 4.16053 1.25 3.125Z" fill="black"/>
<path fill-rule="evenodd" clip-rule="evenodd" d="M16.4596 3.64096C16.6984 3.89021 16.6899 4.28585 16.4407 4.52464L14.4949 6.38881C14.2456 6.6276 13.85 6.61912 13.6112 6.36987C13.3724 6.12062 13.3809 5.72499 13.6301 5.48619L15.5759 3.62203C15.8252 3.38323 16.2208 3.39171 16.4596 3.64096Z" fill="black"/>
<path fill-rule="evenodd" clip-rule="evenodd" d="M16.875 2.5C16.5298 2.5 16.25 2.77982 16.25 3.125C16.25 3.47018 16.5298 3.75 16.875 3.75C17.2202 3.75 17.5 3.47018 17.5 3.125C17.5 2.77982 17.2202 2.5 16.875 2.5ZM15 3.125C15 2.08947 15.8395 1.25 16.875 1.25C17.9105 1.25 18.75 2.08947 18.75 3.125C18.75 4.16053 17.9105 5 16.875 5C15.8395 5 15 4.16053 15 3.125Z" fill="black"/>
<path fill-rule="evenodd" clip-rule="evenodd" d="M6.37944 13.6206C6.62352 13.8646 6.62352 14.2604 6.37944 14.5044L4.50444 16.3794C4.26036 16.6235 3.86464 16.6235 3.62056 16.3794C3.37648 16.1354 3.37648 15.7396 3.62056 15.4956L5.49556 13.6206C5.73964 13.3765 6.13536 13.3765 6.37944 13.6206Z" fill="black"/>
<path fill-rule="evenodd" clip-rule="evenodd" d="M3.125 16.25C2.77982 16.25 2.5 16.5298 2.5 16.875C2.5 17.2202 2.77982 17.5 3.125 17.5C3.47018 17.5 3.75 17.2202 3.75 16.875C3.75 16.5298 3.47018 16.25 3.125 16.25ZM1.25 16.875C1.25 15.8395 2.08947 15 3.125 15C4.16053 15 5 15.8395 5 16.875C5 17.9105 4.16053 18.75 3.125 18.75C2.08947 18.75 1.25 17.9105 1.25 16.875Z" fill="black"/>
<path fill-rule="evenodd" clip-rule="evenodd" d="M13.6206 13.6206C13.8646 13.3765 14.2604 13.3765 14.5044 13.6206L16.3794 15.4956C16.6235 15.7396 16.6235 16.1354 16.3794 16.3794C16.1354 16.6235 15.7396 16.6235 15.4956 16.3794L13.6206 14.5044C13.3765 14.2604 13.3765 13.8646 13.6206 13.6206Z" fill="black"/>
<path fill-rule="evenodd" clip-rule="evenodd" d="M16.875 16.25C16.5298 16.25 16.25 16.5298 16.25 16.875C16.25 17.2202 16.5298 17.5 16.875 17.5C17.2202 17.5 17.5 17.2202 17.5 16.875C17.5 16.5298 17.2202 16.25 16.875 16.25ZM15 16.875C15 15.8395 15.8395 15 16.875 15C17.9105 15 18.75 15.8395 18.75 16.875C18.75 17.9105 17.9105 18.75 16.875 18.75C15.8395 18.75 15 17.9105 15 16.875Z" fill="black"/>
</svg>
