<svg width="20" height="20" viewBox="0 0 20 20" fill="none" xmlns="http://www.w3.org/2000/svg">
<path fill-rule="evenodd" clip-rule="evenodd" d="M10.5392 1.34828C13.2341 2.7897 15.7079 3.58544 16.6503 3.85793L16.6576 3.86004L16.6576 3.86008C17.1344 4.00422 17.5217 4.43112 17.5217 4.98334V11.9775C17.5217 12.9314 17.0901 13.798 16.5059 14.5379C15.9196 15.2804 15.1414 15.9449 14.3524 16.5094C12.7735 17.6389 11.0549 18.4351 10.4576 18.6979L10.4463 18.7028C10.1524 18.8252 9.82767 18.8252 9.53382 18.7028L9.52355 18.6984C8.92225 18.4351 7.20359 17.6389 5.62535 16.5093C4.83666 15.9448 4.05903 15.2803 3.47324 14.5377C2.88947 13.7977 2.45837 12.9312 2.45837 11.9775V4.98917C2.45837 4.44823 2.83475 4.00429 3.33009 3.86366C4.28041 3.58299 6.75762 2.79262 9.43664 1.34744L9.73337 1.8975L9.42985 1.35116C9.77438 1.15975 10.1939 1.15879 10.5392 1.34828ZM9.98729 2.47062C7.24059 3.94661 4.7121 4.75786 3.70837 5.0553V11.9775C3.70837 12.5463 3.96707 13.1454 4.45463 13.7635C4.94017 14.379 5.6154 14.965 6.35286 15.4928C7.79792 16.5271 9.38974 17.2734 9.98995 17.538C10.5892 17.2726 12.1801 16.5265 13.6251 15.4927C14.363 14.9649 15.0388 14.3788 15.5248 13.7633C16.0128 13.1452 16.2717 12.5461 16.2717 11.9775V5.04964C15.2611 4.75565 12.741 3.93865 9.98729 2.47062Z" fill="black"/>
<path fill-rule="evenodd" clip-rule="evenodd" d="M7.5 9.47798V13.0219C9.02024 13.1593 10.9856 13.1593 12.5 13.022V9.47809C10.9798 9.34066 9.01442 9.34065 7.5 9.47798ZM7.08433 8.26289C8.81056 8.07903 11.1823 8.07906 12.9154 8.26286L12.9269 8.26418C13.3752 8.32014 13.75 8.69152 13.75 9.18298V13.317C13.75 13.82 13.3564 14.1797 12.9305 14.2354L12.9157 14.2371C11.1894 14.421 8.81772 14.4209 7.08461 14.2371L7.07312 14.2358C6.62477 14.1799 6.25 13.8085 6.25 13.317V9.18298C6.25 8.68001 6.64362 8.32033 7.0695 8.26465L7.08433 8.26289Z" fill="black"/>
<path fill-rule="evenodd" clip-rule="evenodd" d="M10 5.625C9.18562 5.625 8.75 6.14416 8.75 6.5267V6.875C8.75 7.22018 8.47018 7.5 8.125 7.5C7.77982 7.5 7.5 7.22018 7.5 6.875V6.5267C7.5 5.22581 8.74782 4.375 10 4.375C10.6513 4.375 11.2572 4.58734 11.718 4.96216L11.722 4.96547L11.722 4.96548C12.1692 5.33555 12.5 5.87775 12.5 6.5267V6.875C12.5 7.22018 12.2202 7.5 11.875 7.5C11.5298 7.5 11.25 7.22018 11.25 6.875V6.5267C11.25 6.32873 11.1518 6.11696 10.9271 5.93016C10.7029 5.74861 10.3808 5.625 10 5.625Z" fill="black"/>
</svg>
