<svg width="20" height="20" viewBox="0 0 20 20" fill="none" xmlns="http://www.w3.org/2000/svg">
<path fill-rule="evenodd" clip-rule="evenodd" d="M7.8125 3.4375C7.8125 2.22898 8.79147 1.25 10 1.25C11.2085 1.25 12.1875 2.22898 12.1875 3.4375C12.1875 4.64603 11.2085 5.625 10 5.625C8.79148 5.625 7.8125 4.64603 7.8125 3.4375ZM10 2.5C9.48183 2.5 9.0625 2.91933 9.0625 3.4375C9.0625 3.95567 9.48183 4.375 10 4.375C10.5182 4.375 10.9375 3.95567 10.9375 3.4375C10.9375 2.91933 10.5182 2.5 10 2.5Z" fill="black"/>
<path fill-rule="evenodd" clip-rule="evenodd" d="M2.8125 12.1875C2.8125 10.979 3.79147 10 5 10C6.20853 10 7.1875 10.979 7.1875 12.1875C7.1875 13.396 6.20852 14.375 5 14.375C3.79148 14.375 2.8125 13.396 2.8125 12.1875ZM5 11.25C4.48183 11.25 4.0625 11.6693 4.0625 12.1875C4.0625 12.7057 4.48183 13.125 5 13.125C5.51817 13.125 5.9375 12.7057 5.9375 12.1875C5.9375 11.6693 5.51817 11.25 5 11.25Z" fill="black"/>
<path fill-rule="evenodd" clip-rule="evenodd" d="M12.8125 12.1875C12.8125 10.979 13.7915 10 15 10C16.2085 10 17.1875 10.979 17.1875 12.1875C17.1875 13.396 16.2085 14.375 15 14.375C13.7915 14.375 12.8125 13.396 12.8125 12.1875ZM15 11.25C14.4818 11.25 14.0625 11.6693 14.0625 12.1875C14.0625 12.7057 14.4818 13.125 15 13.125C15.5182 13.125 15.9375 12.7057 15.9375 12.1875C15.9375 11.6693 15.5182 11.25 15 11.25Z" fill="black"/>
<path fill-rule="evenodd" clip-rule="evenodd" d="M7.68056 7.68666C7.53249 7.79867 7.4994 7.90265 7.50001 7.96626L7.50007 7.97229L7.50004 8.75H12.5V7.90964C12.5009 7.81343 12.4627 7.72829 12.3658 7.65122C12.2604 7.56744 12.0874 7.5 11.8713 7.5H8.24978C8.04196 7.5 7.82951 7.57399 7.68056 7.68666ZM6.92646 6.68975C7.29531 6.41074 7.77326 6.25 8.24978 6.25H11.8713C12.7481 6.25 13.7586 6.81922 13.75 7.91842V9.375C13.75 9.72018 13.4701 10 13.125 10H6.87504C6.52986 10 6.25004 9.72018 6.25004 9.375V7.9749C6.24589 7.4123 6.55748 6.96886 6.92646 6.68975Z" fill="black"/>
<path fill-rule="evenodd" clip-rule="evenodd" d="M2.68056 16.4679C2.53249 16.5799 2.4994 16.6839 2.50001 16.7475L2.50007 16.7535L2.50004 17.5312H7.49995V16.6909C7.50089 16.5946 7.46267 16.5095 7.36576 16.4324C7.2604 16.3487 7.08735 16.2812 6.87134 16.2812H3.24978C3.04196 16.2812 2.82951 16.3552 2.68056 16.4679ZM1.92646 15.471C2.29531 15.192 2.77326 15.0312 3.24978 15.0312H6.87134C7.74813 15.0312 8.75857 15.6004 8.74995 16.6996V18.1562C8.74995 18.5014 8.47013 18.7812 8.12495 18.7812H1.87504C1.52986 18.7812 1.25004 18.5014 1.25004 18.1562V16.7561C1.24589 16.1935 1.55748 15.7501 1.92646 15.471Z" fill="black"/>
<path fill-rule="evenodd" clip-rule="evenodd" d="M12.6806 16.4679C12.5325 16.5799 12.4994 16.6839 12.5 16.7475L12.5001 16.7535L12.5 17.5312H17.5V16.6909C17.5009 16.5946 17.4627 16.5095 17.3658 16.4324C17.2604 16.3487 17.0874 16.2812 16.8713 16.2812H13.2498C13.042 16.2812 12.8295 16.3552 12.6806 16.4679ZM11.9265 15.471C12.2953 15.192 12.7733 15.0312 13.2498 15.0312H16.8713C17.7481 15.0312 18.7586 15.6004 18.75 16.6996V18.1562C18.75 18.5014 18.4701 18.7812 18.125 18.7812H11.875C11.5299 18.7812 11.25 18.5014 11.25 18.1562V16.7561C11.2459 16.1935 11.5575 15.7501 11.9265 15.471Z" fill="black"/>
<path fill-rule="evenodd" clip-rule="evenodd" d="M10 10.625C10.3452 10.625 10.625 10.9048 10.625 11.25V12.5C10.625 12.8452 10.3452 13.125 10 13.125C9.65482 13.125 9.375 12.8452 9.375 12.5V11.25C9.375 10.9048 9.65482 10.625 10 10.625Z" fill="black"/>
<path fill-rule="evenodd" clip-rule="evenodd" d="M9.65326 11.98C9.86319 11.84 10.1367 11.84 10.3466 11.98L12.2216 13.23C12.5088 13.4214 12.5864 13.8095 12.395 14.0967C12.2035 14.3839 11.8155 14.4615 11.5283 14.27L9.99994 13.2512L8.47163 14.27C8.18443 14.4615 7.79638 14.3839 7.60491 14.0967C7.41344 13.8095 7.49105 13.4214 7.77826 13.23L9.65326 11.98Z" fill="black"/>
</svg>
