<svg width="20" height="20" viewBox="0 0 20 20" fill="none" xmlns="http://www.w3.org/2000/svg">
<path fill-rule="evenodd" clip-rule="evenodd" d="M3.125 3.125C3.125 2.08947 3.96447 1.25 5 1.25H15C16.0355 1.25 16.875 2.08947 16.875 3.125V16.875C16.875 17.9105 16.0355 18.75 15 18.75H5C3.96447 18.75 3.125 17.9105 3.125 16.875V3.125ZM5 2.5C4.65482 2.5 4.375 2.77982 4.375 3.125V16.875C4.375 17.2202 4.65482 17.5 5 17.5H15C15.3452 17.5 15.625 17.2202 15.625 16.875V3.125C15.625 2.77982 15.3452 2.5 15 2.5H5Z" fill="black"/>
<path fill-rule="evenodd" clip-rule="evenodd" d="M7.5 5.625C7.5 4.24381 8.61881 3.125 10 3.125C11.3812 3.125 12.5 4.24381 12.5 5.625C12.5 7.0062 11.3812 8.125 10 8.125C8.61881 8.125 7.5 7.0062 7.5 5.625ZM10 4.375C9.30916 4.375 8.75 4.93416 8.75 5.625C8.75 6.31584 9.30916 6.875 10 6.875C10.6908 6.875 11.25 6.31584 11.25 5.625C11.25 4.93416 10.6908 4.375 10 4.375Z" fill="black"/>
<path fill-rule="evenodd" clip-rule="evenodd" d="M7.68056 10.1867C7.53249 10.2987 7.4994 10.4027 7.50001 10.4663L7.50007 10.4723L7.50004 11.25H12.5V10.4096C12.5009 10.3134 12.4627 10.2283 12.3658 10.1512C12.2604 10.0674 12.0874 10 11.8713 10H8.24978C8.04196 10 7.82951 10.074 7.68056 10.1867ZM6.92646 9.18975C7.29531 8.91074 7.77326 8.75 8.24978 8.75H11.8713C12.7481 8.75 13.7586 9.31922 13.75 10.4184V11.875C13.75 12.2202 13.4701 12.5 13.125 12.5H6.87504C6.52986 12.5 6.25004 12.2202 6.25004 11.875V10.4749C6.24589 9.9123 6.55748 9.46886 6.92646 9.18975Z" fill="black"/>
<path fill-rule="evenodd" clip-rule="evenodd" d="M6.25 14.375C6.25 14.0298 6.52982 13.75 6.875 13.75H13.125C13.4702 13.75 13.75 14.0298 13.75 14.375C13.75 14.7202 13.4702 15 13.125 15H6.875C6.52982 15 6.25 14.7202 6.25 14.375Z" fill="black"/>
<path fill-rule="evenodd" clip-rule="evenodd" d="M6.25 16.25C6.25 15.9048 6.52982 15.625 6.875 15.625H13.125C13.4702 15.625 13.75 15.9048 13.75 16.25C13.75 16.5952 13.4702 16.875 13.125 16.875H6.875C6.52982 16.875 6.25 16.5952 6.25 16.25Z" fill="black"/>
</svg>
