<svg width="20" height="20" viewBox="0 0 20 20" fill="none" xmlns="http://www.w3.org/2000/svg">
<path fill-rule="evenodd" clip-rule="evenodd" d="M3.90625 2.5C3.13134 2.5 2.5 3.13134 2.5 3.90625V16.0938C2.5 16.8687 3.13134 17.5 3.90625 17.5H16.0938C16.8687 17.5 17.5 16.8687 17.5 16.0938V6.77902C17.5 6.41273 17.3525 6.05464 17.0853 5.78748L14.2091 2.91134C13.9505 2.64869 13.5949 2.5 13.221 2.5H3.90625ZM1.25 3.90625C1.25 2.44098 2.44098 1.25 3.90625 1.25H13.221C13.9257 1.25 14.6023 1.53011 15.098 2.03239C15.0986 2.033 15.0992 2.03361 15.0998 2.03421L17.9692 4.90359C18.4681 5.4025 18.75 6.07745 18.75 6.77902V16.0938C18.75 17.559 17.559 18.75 16.0938 18.75H3.90625C2.44098 18.75 1.25 17.559 1.25 16.0938V3.90625Z" fill="black"/>
<path fill-rule="evenodd" clip-rule="evenodd" d="M6.25 1.25C6.59518 1.25 6.875 1.52982 6.875 1.875V6.78571C6.875 7.57096 7.39552 8.125 8.125 8.125H11.875C12.2828 8.125 12.5863 7.98383 12.7875 7.77984C12.99 7.57452 13.125 7.26859 13.125 6.875V2.5C13.125 2.15482 13.4048 1.875 13.75 1.875C14.0952 1.875 14.375 2.15482 14.375 2.5V6.875C14.375 7.56457 14.1325 8.19614 13.6775 8.65754C13.2212 9.12025 12.5873 9.375 11.875 9.375H8.125C6.6143 9.375 5.625 8.1668 5.625 6.78571V1.875C5.625 1.52982 5.90482 1.25 6.25 1.25Z" fill="black"/>
<path fill-rule="evenodd" clip-rule="evenodd" d="M8.125 15C7.43625 15 6.875 15.5612 6.875 16.25V18.125C6.875 18.4702 6.59518 18.75 6.25 18.75C5.90482 18.75 5.625 18.4702 5.625 18.125V16.25C5.625 14.8709 6.74589 13.75 8.125 13.75H11.875C13.2541 13.75 14.375 14.8709 14.375 16.25V18.125C14.375 18.4702 14.0952 18.75 13.75 18.75C13.4048 18.75 13.125 18.4702 13.125 18.125V16.25C13.125 15.5612 12.5638 15 11.875 15H8.125Z" fill="black"/>
</svg>
