<svg width="20" height="20" viewBox="0 0 20 20" fill="none" xmlns="http://www.w3.org/2000/svg">
<path fill-rule="evenodd" clip-rule="evenodd" d="M1.25 3.125C1.25 2.08947 2.08947 1.25 3.125 1.25H7.5C8.53553 1.25 9.375 2.08947 9.375 3.125V7.5C9.375 8.53553 8.53553 9.375 7.5 9.375H3.125C2.08947 9.375 1.25 8.53553 1.25 7.5V3.125ZM3.125 2.5C2.77982 2.5 2.5 2.77982 2.5 3.125V7.5C2.5 7.84518 2.77982 8.125 3.125 8.125H7.5C7.84518 8.125 8.125 7.84518 8.125 7.5V3.125C8.125 2.77982 7.84518 2.5 7.5 2.5H3.125Z" fill="black"/>
<path fill-rule="evenodd" clip-rule="evenodd" d="M1.25 12.5C1.25 11.4645 2.08947 10.625 3.125 10.625H7.5C8.53553 10.625 9.375 11.4645 9.375 12.5V16.875C9.375 17.9105 8.53553 18.75 7.5 18.75H3.125C2.08947 18.75 1.25 17.9105 1.25 16.875V12.5ZM3.125 11.875C2.77982 11.875 2.5 12.1548 2.5 12.5V16.875C2.5 17.2202 2.77982 17.5 3.125 17.5H7.5C7.84518 17.5 8.125 17.2202 8.125 16.875V12.5C8.125 12.1548 7.84518 11.875 7.5 11.875H3.125Z" fill="black"/>
<path fill-rule="evenodd" clip-rule="evenodd" d="M10.625 12.5C10.625 11.4645 11.4645 10.625 12.5 10.625H16.875C17.9105 10.625 18.75 11.4645 18.75 12.5V16.875C18.75 17.9105 17.9105 18.75 16.875 18.75H12.5C11.4645 18.75 10.625 17.9105 10.625 16.875V12.5ZM12.5 11.875C12.1548 11.875 11.875 12.1548 11.875 12.5V16.875C11.875 17.2202 12.1548 17.5 12.5 17.5H16.875C17.2202 17.5 17.5 17.2202 17.5 16.875V12.5C17.5 12.1548 17.2202 11.875 16.875 11.875H12.5Z" fill="black"/>
<path fill-rule="evenodd" clip-rule="evenodd" d="M14.6875 2.5C13.1342 2.5 11.875 3.7592 11.875 5.3125C11.875 6.8658 13.1342 8.125 14.6875 8.125C16.2408 8.125 17.5 6.8658 17.5 5.3125C17.5 3.7592 16.2408 2.5 14.6875 2.5ZM10.625 5.3125C10.625 3.06884 12.4438 1.25 14.6875 1.25C16.9312 1.25 18.75 3.06884 18.75 5.3125C18.75 7.55616 16.9312 9.375 14.6875 9.375C12.4438 9.375 10.625 7.55616 10.625 5.3125Z" fill="black"/>
</svg>
