<svg width="20" height="20" viewBox="0 0 20 20" fill="none" xmlns="http://www.w3.org/2000/svg">
<path fill-rule="evenodd" clip-rule="evenodd" d="M6.65674 8.90048C6.91882 9.12511 6.94917 9.51968 6.72454 9.78176L5.19817 11.5625L6.72454 13.3433C6.94917 13.6053 6.91882 13.9999 6.65674 14.2245C6.39467 14.4492 6.0001 14.4188 5.77546 14.1568L3.90046 11.9693C3.69985 11.7352 3.69985 11.3898 3.90046 11.1558L5.77546 8.96827C6.0001 8.70619 6.39467 8.67584 6.65674 8.90048Z" fill="black"/>
<path fill-rule="evenodd" clip-rule="evenodd" d="M13.3433 8.90048C13.6053 8.67584 13.9999 8.70619 14.2245 8.96827L16.0995 11.1558C16.3002 11.3898 16.3002 11.7352 16.0995 11.9693L14.2245 14.1568C13.9999 14.4188 13.6053 14.4492 13.3433 14.2245C13.0812 13.9999 13.0508 13.6053 13.2755 13.3433L14.8018 11.5625L13.2755 9.78176C13.0508 9.51968 13.0812 9.12511 13.3433 8.90048Z" fill="black"/>
<path fill-rule="evenodd" clip-rule="evenodd" d="M11.1799 6.89365C11.5147 6.97737 11.7183 7.3167 11.6346 7.65158L9.75961 15.1516C9.6759 15.4864 9.33656 15.69 9.00169 15.6063C8.66682 15.5226 8.46322 15.1833 8.54694 14.8484L10.4219 7.34841C10.5057 7.01354 10.845 6.80993 11.1799 6.89365Z" fill="black"/>
<path fill-rule="evenodd" clip-rule="evenodd" d="M1.25 5H18.75V16.2931C18.75 17.6003 17.7618 18.75 16.4354 18.75H3.56458C2.23823 18.75 1.25 17.6003 1.25 16.2931V5ZM2.5 6.25V16.2931C2.5 17.0079 3.02265 17.5 3.56458 17.5H16.4354C16.9774 17.5 17.5 17.0079 17.5 16.2931V6.25H2.5Z" fill="black"/>
<path fill-rule="evenodd" clip-rule="evenodd" d="M1.25 3.74381C1.25 2.42833 2.2274 1.25 3.565 1.25H16.435C17.7726 1.25 18.75 2.42833 18.75 3.74381V6.25H1.25V3.74381ZM3.565 2.5C3.03384 2.5 2.5 2.99658 2.5 3.74381V5H17.5V3.74381C17.5 2.99658 16.9662 2.5 16.435 2.5H3.565Z" fill="black"/>
<path d="M4.52915 3.125H4.22085C3.96081 3.125 3.75 3.31846 3.75 3.5571V3.9429C3.75 4.18154 3.96081 4.375 4.22085 4.375H4.52915C4.78919 4.375 5 4.18154 5 3.9429V3.5571C5 3.31846 4.78919 3.125 4.52915 3.125Z" fill="black"/>
<path d="M6.40415 3.125H6.09585C5.83581 3.125 5.625 3.31846 5.625 3.5571V3.9429C5.625 4.18154 5.83581 4.375 6.09585 4.375H6.40415C6.66419 4.375 6.875 4.18154 6.875 3.9429V3.5571C6.875 3.31846 6.66419 3.125 6.40415 3.125Z" fill="black"/>
<path d="M8.27915 3.125H7.97085C7.71081 3.125 7.5 3.31846 7.5 3.5571V3.9429C7.5 4.18154 7.71081 4.375 7.97085 4.375H8.27915C8.53919 4.375 8.75 4.18154 8.75 3.9429V3.5571C8.75 3.31846 8.53919 3.125 8.27915 3.125Z" fill="black"/>
</svg>
