<svg width="20" height="20" viewBox="0 0 20 20" fill="none" xmlns="http://www.w3.org/2000/svg">
<path fill-rule="evenodd" clip-rule="evenodd" d="M1.25 10C1.25 8.62154 2.37154 7.5 3.75 7.5C5.12846 7.5 6.25 8.62154 6.25 10C6.25 11.3785 5.12846 12.5 3.75 12.5C2.37154 12.5 1.25 11.3785 1.25 10ZM3.75 8.75C3.0619 8.75 2.5 9.3119 2.5 10C2.5 10.6881 3.0619 11.25 3.75 11.25C4.4381 11.25 5 10.6881 5 10C5 9.3119 4.4381 8.75 3.75 8.75Z" fill="black"/>
<path fill-rule="evenodd" clip-rule="evenodd" d="M5.02771 10C5.02771 9.65482 5.30753 9.375 5.65271 9.375H14.3705C14.7157 9.375 14.9955 9.65482 14.9955 10C14.9955 10.3452 14.7157 10.625 14.3705 10.625H5.65271C5.30753 10.625 5.02771 10.3452 5.02771 10Z" fill="black"/>
<path fill-rule="evenodd" clip-rule="evenodd" d="M8.12498 3.74593C8.12722 3.40076 8.40884 3.12277 8.75402 3.12502L13.7398 3.15752C14.0849 3.15977 14.3629 3.44141 14.3607 3.78658C14.3585 4.13175 14.0768 4.40974 13.7317 4.40749L8.74593 4.37499C8.40076 4.37274 8.12275 4.0911 8.12498 3.74593Z" fill="black"/>
<path fill-rule="evenodd" clip-rule="evenodd" d="M8.125 16.25C8.125 15.9048 8.40482 15.625 8.75 15.625H13.7598C14.105 15.625 14.3848 15.9048 14.3848 16.25C14.3848 16.5952 14.105 16.875 13.7598 16.875H8.75C8.40482 16.875 8.125 16.5952 8.125 16.25Z" fill="black"/>
<path fill-rule="evenodd" clip-rule="evenodd" d="M13.75 10C13.75 8.62154 14.8715 7.5 16.25 7.5C17.6285 7.5 18.75 8.62154 18.75 10C18.75 11.3785 17.6285 12.5 16.25 12.5C14.8715 12.5 13.75 11.3785 13.75 10ZM16.25 8.75C15.5619 8.75 15 9.3119 15 10C15 10.6881 15.5619 11.25 16.25 11.25C16.9381 11.25 17.5 10.6881 17.5 10C17.5 9.3119 16.9381 8.75 16.25 8.75Z" fill="black"/>
<path fill-rule="evenodd" clip-rule="evenodd" d="M13.75 3.75C13.75 2.37154 14.8715 1.25 16.25 1.25C17.6285 1.25 18.75 2.37154 18.75 3.75C18.75 5.12846 17.6285 6.25 16.25 6.25C14.8715 6.25 13.75 5.12846 13.75 3.75ZM16.25 2.5C15.5619 2.5 15 3.0619 15 3.75C15 4.4381 15.5619 5 16.25 5C16.9381 5 17.5 4.4381 17.5 3.75C17.5 3.0619 16.9381 2.5 16.25 2.5Z" fill="black"/>
<path fill-rule="evenodd" clip-rule="evenodd" d="M8.76208 3.125C9.10726 3.125 9.38708 3.40482 9.38708 3.75V16.25C9.38708 16.5952 9.10726 16.875 8.76208 16.875C8.41691 16.875 8.13708 16.5952 8.13708 16.25V3.75C8.13708 3.40482 8.41691 3.125 8.76208 3.125Z" fill="black"/>
<path fill-rule="evenodd" clip-rule="evenodd" d="M13.75 16.25C13.75 14.8715 14.8715 13.75 16.25 13.75C17.6285 13.75 18.75 14.8715 18.75 16.25C18.75 17.6285 17.6285 18.75 16.25 18.75C14.8715 18.75 13.75 17.6285 13.75 16.25ZM16.25 15C15.5619 15 15 15.5619 15 16.25C15 16.9381 15.5619 17.5 16.25 17.5C16.9381 17.5 17.5 16.9381 17.5 16.25C17.5 15.5619 16.9381 15 16.25 15Z" fill="black"/>
</svg>
