<svg width="20" height="20" viewBox="0 0 20 20" fill="none" xmlns="http://www.w3.org/2000/svg">
<path fill-rule="evenodd" clip-rule="evenodd" d="M1.96474 4.67727C2.14298 4.38167 2.52711 4.28653 2.8227 4.46477L9.82014 8.6841C9.82911 8.68951 9.83794 8.69514 9.84662 8.70099C9.94362 8.76634 10.1179 8.76634 10.2149 8.70099C10.2229 8.69559 10.2311 8.69039 10.2393 8.68537L17.1751 4.46604C17.47 4.28665 17.8545 4.38028 18.0339 4.67517C18.2133 4.97007 18.1197 5.35456 17.8248 5.53396L10.8996 9.74681C10.3864 10.0841 9.67661 10.0844 9.1631 9.74757L2.17724 5.53523C1.88164 5.35699 1.7865 4.97287 1.96474 4.67727Z" fill="black"/>
<path fill-rule="evenodd" clip-rule="evenodd" d="M2.5 5V15H17.5V5H2.5ZM1.25 4.9654C1.25 4.29145 1.79809 3.75 2.46812 3.75H17.5319C18.2019 3.75 18.75 4.29145 18.75 4.9654V15.0346C18.75 15.7086 18.2019 16.25 17.5319 16.25H2.46812C1.79809 16.25 1.25 15.7086 1.25 15.0346V4.9654Z" fill="black"/>
</svg>
