<svg width="20" height="20" viewBox="0 0 20 20" fill="none" xmlns="http://www.w3.org/2000/svg">
<path fill-rule="evenodd" clip-rule="evenodd" d="M8.01551 11.25C7.75246 11.25 7.5 11.4811 7.5 11.8033V17.5H12.5V11.8033C12.5 11.4811 12.2475 11.25 11.9845 11.25H8.01551ZM6.25 11.8033C6.25 10.8294 7.024 10 8.01551 10H11.9845C12.976 10 13.75 10.8294 13.75 11.8033V18.125C13.75 18.4702 13.4702 18.75 13.125 18.75H6.875C6.52982 18.75 6.25 18.4702 6.25 18.125V11.8033Z" fill="black"/>
<path fill-rule="evenodd" clip-rule="evenodd" d="M2.5 6.875C2.84518 6.875 3.125 7.15482 3.125 7.5V16.3422C3.125 17.0172 3.63157 17.5 4.1784 17.5H15.8216C16.3684 17.5 16.875 17.0172 16.875 16.3422V7.5C16.875 7.15482 17.1548 6.875 17.5 6.875C17.8452 6.875 18.125 7.15482 18.125 7.5V16.3422C18.125 17.6349 17.1292 18.75 15.8216 18.75H4.1784C2.87078 18.75 1.875 17.6349 1.875 16.3422V7.5C1.875 7.15482 2.15482 6.875 2.5 6.875Z" fill="black"/>
<path fill-rule="evenodd" clip-rule="evenodd" d="M3.04572 3.33534C3.04568 3.33553 3.04576 3.33515 3.04572 3.33534L2.50426 6.15979C2.54635 6.4971 2.89907 6.875 3.5 6.875C3.74512 6.875 3.9631 6.80498 4.13385 6.69479C4.73586 6.30025 5.51415 6.30026 6.11616 6.6948C6.28691 6.80498 6.50488 6.875 6.75 6.875C6.99512 6.875 7.2131 6.80497 7.38386 6.69478C7.98586 6.30026 8.76414 6.30026 9.36614 6.69478C9.5369 6.80497 9.75488 6.875 10 6.875C10.2451 6.875 10.4631 6.80497 10.6339 6.69478C11.2359 6.30025 12.0142 6.30026 12.6162 6.69481C12.7869 6.80498 13.0049 6.875 13.25 6.875C13.4951 6.875 13.7131 6.80498 13.8838 6.69481C14.4858 6.30025 15.2642 6.30025 15.8662 6.69481C16.0369 6.80498 16.2549 6.875 16.5 6.875C17.1125 6.875 17.4671 6.48243 17.4978 6.14039L16.9601 3.33534C16.9601 3.33528 16.9601 3.3354 16.9601 3.33534C16.8664 2.8524 16.4401 2.5 15.9429 2.5H4.06295C3.56587 2.5 3.13958 2.8526 3.04572 3.33534ZM1.28287 5.89183L1.81857 3.09744C2.02671 2.02379 2.97004 1.25 4.06295 1.25H15.9429C17.0358 1.25 17.9791 2.02379 18.1872 3.09744L18.1875 3.09872L18.7388 5.9747C18.7463 6.01348 18.75 6.05288 18.75 6.09237C18.75 7.29689 17.6577 8.125 16.5 8.125C16.0146 8.125 15.5598 7.98565 15.1853 7.74308L15.1817 7.74074C14.9954 7.61829 14.7546 7.61828 14.5683 7.74072L14.5647 7.74309C14.1902 7.98566 13.7354 8.125 13.25 8.125C12.7646 8.125 12.3098 7.98565 11.9353 7.74308L11.9317 7.74074C11.7454 7.61829 11.5046 7.61828 11.3183 7.74072L11.3147 7.74309C10.9402 7.98566 10.4854 8.125 10 8.125C9.51455 8.125 9.05984 7.98565 8.68527 7.74308L8.68166 7.74074C8.4954 7.61829 8.25459 7.61828 8.06834 7.74072L8.06474 7.74309C7.69017 7.98566 7.23545 8.125 6.75 8.125C6.26455 8.125 5.80984 7.98565 5.43527 7.74308L5.43165 7.74074C5.2454 7.61829 5.00459 7.61828 4.81834 7.74072L4.81474 7.74309C4.44017 7.98566 3.98545 8.125 3.5 8.125C2.34227 8.125 1.25 7.29689 1.25 6.09237C1.25 6.02223 1.26156 5.95478 1.28287 5.89183Z" fill="black"/>
</svg>
