<svg width="20" height="20" viewBox="0 0 20 20" fill="none" xmlns="http://www.w3.org/2000/svg">
<path fill-rule="evenodd" clip-rule="evenodd" d="M10 2.45834C5.83489 2.45834 2.45837 5.83486 2.45837 10C2.45837 14.1652 5.83489 17.5417 10 17.5417C14.1652 17.5417 17.5417 14.1652 17.5417 10C17.5417 5.83486 14.1652 2.45834 10 2.45834ZM1.20837 10C1.20837 5.14451 5.14454 1.20834 10 1.20834C14.8555 1.20834 18.7917 5.14451 18.7917 10C18.7917 14.8555 14.8555 18.7917 10 18.7917C5.14454 18.7917 1.20837 14.8555 1.20837 10Z" fill="black"/>
<path fill-rule="evenodd" clip-rule="evenodd" d="M14.152 5.84802C14.3325 6.02861 14.3851 6.30089 14.2847 6.5357L12.0622 11.7332C11.9806 11.924 11.8097 12.0618 11.606 12.1011C11.4022 12.1405 11.1923 12.0761 11.0456 11.9294L8.07058 8.95441C7.92387 8.8077 7.85953 8.59774 7.89885 8.39402C7.93817 8.1903 8.07602 8.01937 8.26679 7.9378L13.4643 5.7153C13.6991 5.61489 13.9714 5.66744 14.152 5.84802ZM9.6078 8.72386L11.2761 10.3922L12.5225 7.47752L9.6078 8.72386Z" fill="black"/>
<path fill-rule="evenodd" clip-rule="evenodd" d="M8.39405 7.89882C8.59777 7.8595 8.80773 7.92384 8.95444 8.07055L11.9294 11.0455C12.0761 11.1923 12.1405 11.4022 12.1012 11.6059C12.0619 11.8097 11.924 11.9806 11.7332 12.0622L6.53573 14.2847C6.30092 14.3851 6.02864 14.3325 5.84805 14.1519C5.66747 13.9714 5.61492 13.6991 5.71533 13.4643L7.93783 8.26676C8.01941 8.07599 8.19033 7.93814 8.39405 7.89882ZM8.72389 9.60777L7.47755 12.5224L10.3922 11.2761L8.72389 9.60777Z" fill="black"/>
</svg>
