<svg width="20" height="20" viewBox="0 0 20 20" fill="none" xmlns="http://www.w3.org/2000/svg">
<path fill-rule="evenodd" clip-rule="evenodd" d="M5.00035 7.07241C5.00036 7.07266 5.00038 7.07292 5.0004 7.07318L5.54062 15.1617C5.62953 16.5052 6.73728 17.5417 8.06049 17.5417H11.7037C13.0269 17.5417 14.1346 16.5056 14.2235 15.1621L14.7638 7.06101C14.7638 7.06117 14.7638 7.06085 14.7638 7.06101C14.7701 6.95816 14.6872 6.88 14.6031 6.88H5.16686C5.08273 6.88 4.99354 6.95774 5.00035 7.07241ZM11.7223 18.7916C11.7199 18.7917 11.7176 18.7917 11.7153 18.7917H8.06049C6.07185 18.7917 4.42548 17.238 4.2934 15.245L3.75287 7.15183C3.70202 6.34525 4.33312 5.63 5.16686 5.63H14.6031C15.4253 5.63 16.0628 6.33376 16.0112 7.14066L16.0111 7.14243L15.4708 15.2446C15.4708 15.2447 15.4708 15.2445 15.4708 15.2446C15.3391 17.2314 13.7026 18.782 11.7223 18.7916Z" fill="black"/>
<path fill-rule="evenodd" clip-rule="evenodd" d="M8.125 8.75C8.47018 8.75 8.75 9.02982 8.75 9.375V14.9342C8.75 15.2793 8.47018 15.5592 8.125 15.5592C7.77982 15.5592 7.5 15.2793 7.5 14.9342V9.375C7.5 9.02982 7.77982 8.75 8.125 8.75Z" fill="black"/>
<path fill-rule="evenodd" clip-rule="evenodd" d="M11.875 8.75C12.2202 8.75 12.5 9.02982 12.5 9.375V14.9342C12.5 15.2793 12.2202 15.5592 11.875 15.5592C11.5298 15.5592 11.25 15.2793 11.25 14.9342V9.375C11.25 9.02982 11.5298 8.75 11.875 8.75Z" fill="black"/>
<path fill-rule="evenodd" clip-rule="evenodd" d="M3.75 3.75C3.75 3.40482 4.02982 3.125 4.375 3.125H15.625C15.9702 3.125 16.25 3.40482 16.25 3.75C16.25 4.09518 15.9702 4.375 15.625 4.375H4.375C4.02982 4.375 3.75 4.09518 3.75 3.75Z" fill="black"/>
<path fill-rule="evenodd" clip-rule="evenodd" d="M9.51165 2.65785C9.40469 2.74492 9.375 2.832 9.375 2.89522V3.125C9.375 3.47018 9.09518 3.75 8.75 3.75C8.40482 3.75 8.125 3.47018 8.125 3.125V2.89522C8.125 1.87073 9.09339 1.25 10 1.25C10.4818 1.25 10.9318 1.4107 11.2753 1.6861C11.6328 1.97278 11.875 2.40141 11.875 2.89522V3.125C11.875 3.47018 11.5952 3.75 11.25 3.75C10.9048 3.75 10.625 3.47018 10.625 3.125V2.89522C10.625 2.82836 10.5943 2.7423 10.4933 2.66132C10.3783 2.56908 10.206 2.5 10 2.5C9.79106 2.5 9.62007 2.56959 9.51165 2.65785Z" fill="black"/>
</svg>
