<svg width="20" height="20" viewBox="0 0 20 20" fill="none" xmlns="http://www.w3.org/2000/svg">
<path d="M10.1602 13.75H9.83982C9.58229 13.75 9.375 13.9437 9.375 14.1812V14.5687C9.375 14.8062 9.58229 15 9.83982 15H10.1602C10.4177 15 10.625 14.8062 10.625 14.5687V14.1812C10.625 13.9437 10.4177 13.75 10.1602 13.75Z" fill="black"/>
<path fill-rule="evenodd" clip-rule="evenodd" d="M10.0898 6.253C9.37126 6.20347 8.75 6.78931 8.75 7.54452C8.75 7.8897 8.47018 8.16952 8.125 8.16952C7.77982 8.16952 7.5 7.8897 7.5 7.54452C7.5 6.10202 8.69867 4.90354 10.1767 5.00603L10.1777 5.0061C11.4167 5.09396 12.41 6.11034 12.4936 7.36036C12.562 8.33544 12.0791 9.2149 11.3266 9.69319L11.3262 9.69343C10.888 9.97152 10.6225 10.4479 10.6225 10.9719V11.875C10.6225 12.2202 10.3427 12.5 9.99752 12.5C9.65234 12.5 9.37252 12.2202 9.37252 11.875V10.9719C9.37252 10.0163 9.86006 9.1436 10.656 8.63826M10.0898 6.253C10.6913 6.29591 11.2038 6.80201 11.2464 7.44442L11.2464 7.44442L11.2466 7.44714C11.2822 7.95127 11.033 8.39863 10.6561 8.63824" fill="black"/>
<path fill-rule="evenodd" clip-rule="evenodd" d="M10 17.5C14.1421 17.5 17.5 14.1421 17.5 10C17.5 5.85786 14.1421 2.5 10 2.5C5.85786 2.5 2.5 5.85786 2.5 10C2.5 14.1421 5.85786 17.5 10 17.5ZM10 18.75C14.8325 18.75 18.75 14.8325 18.75 10C18.75 5.16751 14.8325 1.25 10 1.25C5.16751 1.25 1.25 5.16751 1.25 10C1.25 14.8325 5.16751 18.75 10 18.75Z" fill="black"/>
</svg>
