<svg width="20" height="20" viewBox="0 0 20 20" fill="none" xmlns="http://www.w3.org/2000/svg">
<path fill-rule="evenodd" clip-rule="evenodd" d="M2.5 4.375C2.5 4.02982 2.77982 3.75 3.125 3.75H16.875C17.2202 3.75 17.5 4.02982 17.5 4.375C17.5 4.72018 17.2202 5 16.875 5H3.125C2.77982 5 2.5 4.72018 2.5 4.375Z" fill="black"/>
<path fill-rule="evenodd" clip-rule="evenodd" d="M2.5 8.125C2.5 7.77982 2.77982 7.5 3.125 7.5H16.875C17.2202 7.5 17.5 7.77982 17.5 8.125C17.5 8.47018 17.2202 8.75 16.875 8.75H3.125C2.77982 8.75 2.5 8.47018 2.5 8.125Z" fill="black"/>
<path fill-rule="evenodd" clip-rule="evenodd" d="M2.5 11.875C2.5 11.5298 2.77982 11.25 3.125 11.25H16.875C17.2202 11.25 17.5 11.5298 17.5 11.875C17.5 12.2202 17.2202 12.5 16.875 12.5H3.125C2.77982 12.5 2.5 12.2202 2.5 11.875Z" fill="black"/>
<path fill-rule="evenodd" clip-rule="evenodd" d="M2.5 15.625C2.5 15.2798 2.77982 15 3.125 15H16.875C17.2202 15 17.5 15.2798 17.5 15.625C17.5 15.9702 17.2202 16.25 16.875 16.25H3.125C2.77982 16.25 2.5 15.9702 2.5 15.625Z" fill="black"/>
</svg>
