<svg width="20" height="20" viewBox="0 0 20 20" fill="none" xmlns="http://www.w3.org/2000/svg">
<path fill-rule="evenodd" clip-rule="evenodd" d="M8.43449 5.05554C8.62858 4.94409 8.86745 4.94492 9.06075 5.05773L12.8291 7.2569C13.021 7.36892 13.1391 7.57445 13.1391 7.7967C13.1391 8.01895 13.021 8.22448 12.8291 8.3365L9.06075 10.5357C8.86745 10.6485 8.62858 10.6493 8.43449 10.5379C8.2404 10.4264 8.12073 10.2197 8.12073 9.99587V5.59753C8.12073 5.37372 8.2404 5.16699 8.43449 5.05554ZM9.37073 6.68592V8.90748L11.2741 7.7967L9.37073 6.68592Z" fill="black"/>
<path fill-rule="evenodd" clip-rule="evenodd" d="M1.25 4.69789C1.25 3.46885 2.26287 2.5 3.48259 2.5H16.5232C17.7386 2.5 18.75 3.47031 18.75 4.69789V13.4271C18.75 14.6532 17.7459 15.625 16.5232 15.625H3.48259C2.26287 15.625 1.25 14.6561 1.25 13.4271V4.69789ZM3.48259 3.75C2.92642 3.75 2.5 4.18572 2.5 4.69789V13.4271C2.5 13.9393 2.92642 14.375 3.48259 14.375H16.5232C17.0764 14.375 17.5 13.9422 17.5 13.4271V4.69789C17.5 4.18426 17.0721 3.75 16.5232 3.75H3.48259Z" fill="black"/>
<path fill-rule="evenodd" clip-rule="evenodd" d="M10 14.4225C10.3452 14.4225 10.625 14.7024 10.625 15.0475V17.7717C10.625 18.1169 10.3452 18.3967 10 18.3967C9.65482 18.3967 9.375 18.1169 9.375 17.7717V15.0475C9.375 14.7024 9.65482 14.4225 10 14.4225Z" fill="black"/>
<path fill-rule="evenodd" clip-rule="evenodd" d="M5.625 18.125C5.625 17.7798 5.90482 17.5 6.25 17.5H13.75C14.0952 17.5 14.375 17.7798 14.375 18.125C14.375 18.4702 14.0952 18.75 13.75 18.75H6.25C5.90482 18.75 5.625 18.4702 5.625 18.125Z" fill="black"/>
<path fill-rule="evenodd" clip-rule="evenodd" d="M1.20825 12.5042C1.20825 12.159 1.48807 11.8792 1.83325 11.8792H17.7524C18.0976 11.8792 18.3774 12.159 18.3774 12.5042C18.3774 12.8494 18.0976 13.1292 17.7524 13.1292H1.83325C1.48807 13.1292 1.20825 12.8494 1.20825 12.5042Z" fill="black"/>
</svg>
