<svg xmlns="http://www.w3.org/2000/svg" width="20" height="20" fill="currentColor" viewBox="0 0 20 20">
  <path d="M13.125 7.5a1.875 1.875 0 0 1 .625 3.64v1.36h1.358a1.874 1.874 0 1 1 0 1.25H13.75v1.358a1.874 1.874 0 1 1-1.25 0v-3.967a1.873 1.873 0 0 1 .625-3.641Zm0 8.75a.625.625 0 1 0 0 1.25.625.625 0 0 0 0-1.25Zm2.143-15c1.566 0 2.857 1.25 2.857 2.814V8.75a.625.625 0 1 1-1.25 0V4.064c0-.852-.708-1.564-1.607-1.564H4.108c-.9 0-1.608.712-1.608 1.564v7.117c0 .426.162.737.412.95.26.221.654.369 1.15.369H5c.345 0 .625.28.625.625v1.79l2.725-2.27a.626.626 0 0 1 .4-.145h1.875a.625.625 0 1 1 0 1.25H8.977l-2.729 2.273a.637.637 0 0 1-.056.041c-.441.292-.931.192-1.254-.025A1.27 1.27 0 0 1 4.375 15v-1.25h-.313c-.736 0-1.436-.22-1.961-.668-.536-.457-.851-1.119-.851-1.901V4.064C1.25 2.5 2.54 1.25 4.107 1.25h11.16Zm1.607 11.25a.625.625 0 1 0 0 1.25.625.625 0 0 0 0-1.25Zm-3.75-3.75a.625.625 0 1 0 0 1.25.625.625 0 0 0 0-1.25Z"/>
</svg>
