<svg width="20" height="20" viewBox="0 0 20 20" fill="none" xmlns="http://www.w3.org/2000/svg">
<path fill-rule="evenodd" clip-rule="evenodd" d="M1.25 5C1.25 4.65482 1.52982 4.375 1.875 4.375H18.125C18.4702 4.375 18.75 4.65482 18.75 5C18.75 5.34518 18.4702 5.625 18.125 5.625H1.875C1.52982 5.625 1.25 5.34518 1.25 5Z" fill="black"/>
<path fill-rule="evenodd" clip-rule="evenodd" d="M1.25 16.25C1.25 15.9048 1.52982 15.625 1.875 15.625H18.125C18.4702 15.625 18.75 15.9048 18.75 16.25C18.75 16.5952 18.4702 16.875 18.125 16.875H1.875C1.52982 16.875 1.25 16.5952 1.25 16.25Z" fill="black"/>
<path fill-rule="evenodd" clip-rule="evenodd" d="M1.875 4.375C2.22018 4.375 2.5 4.65482 2.5 5L2.5 8.75C2.5 9.09518 2.22018 9.375 1.875 9.375C1.52982 9.375 1.25 9.09518 1.25 8.75L1.25 5C1.25 4.65482 1.52982 4.375 1.875 4.375Z" fill="black"/>
<path fill-rule="evenodd" clip-rule="evenodd" d="M1.875 11.875C2.22018 11.875 2.5 12.1548 2.5 12.5V16.25C2.5 16.5952 2.22018 16.875 1.875 16.875C1.52982 16.875 1.25 16.5952 1.25 16.25V12.5C1.25 12.1548 1.52982 11.875 1.875 11.875Z" fill="black"/>
<path fill-rule="evenodd" clip-rule="evenodd" d="M18.125 4.375C18.4702 4.375 18.75 4.65482 18.75 5V8.125C18.75 8.47018 18.4702 8.75 18.125 8.75C17.7798 8.75 17.5 8.47018 17.5 8.125V5C17.5 4.65482 17.7798 4.375 18.125 4.375Z" fill="black"/>
<path fill-rule="evenodd" clip-rule="evenodd" d="M18.126 11.25C18.4712 11.2506 18.7506 11.5309 18.75 11.8761L18.7428 16.0427C18.7422 16.3879 18.4619 16.6673 18.1167 16.6667C17.7715 16.6661 17.4922 16.3858 17.4928 16.0406L17.5 11.8739C17.5006 11.5287 17.7809 11.2494 18.126 11.25Z" fill="black"/>
<path fill-rule="evenodd" clip-rule="evenodd" d="M1.25 8.75C1.25 8.40482 1.52982 8.125 1.875 8.125C3.31672 8.125 4.375 9.39628 4.375 10.625C4.375 11.8537 3.31672 13.125 1.875 13.125C1.52982 13.125 1.25 12.8452 1.25 12.5C1.25 12.1548 1.52982 11.875 1.875 11.875C2.5635 11.875 3.125 11.228 3.125 10.625C3.125 10.022 2.5635 9.375 1.875 9.375C1.52982 9.375 1.25 9.09518 1.25 8.75Z" fill="black"/>
<path fill-rule="evenodd" clip-rule="evenodd" d="M18.125 8.75C17.4333 8.75 16.875 9.31119 16.875 10C16.875 10.6888 17.4333 11.25 18.125 11.25C18.4702 11.25 18.75 11.5298 18.75 11.875C18.75 12.2202 18.4702 12.5 18.125 12.5C16.7408 12.5 15.625 11.377 15.625 10C15.625 8.62302 16.7408 7.5 18.125 7.5C18.4702 7.5 18.75 7.77982 18.75 8.125C18.75 8.47018 18.4702 8.75 18.125 8.75Z" fill="black"/>
<path fill-rule="evenodd" clip-rule="evenodd" d="M6.25 6.25C6.59518 6.25 6.875 6.52982 6.875 6.875V8.125C6.875 8.47018 6.59518 8.75 6.25 8.75C5.90482 8.75 5.625 8.47018 5.625 8.125V6.875C5.625 6.52982 5.90482 6.25 6.25 6.25Z" fill="black"/>
<path fill-rule="evenodd" clip-rule="evenodd" d="M6.25 9.375C6.59518 9.375 6.875 9.65482 6.875 10V11.25C6.875 11.5952 6.59518 11.875 6.25 11.875C5.90482 11.875 5.625 11.5952 5.625 11.25V10C5.625 9.65482 5.90482 9.375 6.25 9.375Z" fill="black"/>
<path fill-rule="evenodd" clip-rule="evenodd" d="M6.25 12.5C6.59518 12.5 6.875 12.7798 6.875 13.125V14.375C6.875 14.7202 6.59518 15 6.25 15C5.90482 15 5.625 14.7202 5.625 14.375V13.125C5.625 12.7798 5.90482 12.5 6.25 12.5Z" fill="black"/>
</svg>
