<svg width="20" height="20" viewBox="0 0 20 20" fill="none" xmlns="http://www.w3.org/2000/svg">
<path fill-rule="evenodd" clip-rule="evenodd" d="M10 2.45834C5.83489 2.45834 2.45837 5.83486 2.45837 10C2.45837 14.1652 5.83489 17.5417 10 17.5417C14.1652 17.5417 17.5417 14.1652 17.5417 10C17.5417 5.83486 14.1652 2.45834 10 2.45834ZM1.20837 10C1.20837 5.14451 5.14454 1.20834 10 1.20834C14.8555 1.20834 18.7917 5.14451 18.7917 10C18.7917 14.8555 14.8555 18.7917 10 18.7917C5.14454 18.7917 1.20837 14.8555 1.20837 10Z" fill="black"/>
<path fill-rule="evenodd" clip-rule="evenodd" d="M13.6678 7.70891C13.9119 7.95298 13.9119 8.34871 13.6678 8.59279L9.15278 13.1078C8.9087 13.3519 8.51297 13.3519 8.26889 13.1078L6.33223 11.1711C6.08815 10.927 6.08815 10.5313 6.33223 10.2872C6.57631 10.0432 6.97203 10.0432 7.21611 10.2872L8.71084 11.782L12.7839 7.70891C13.028 7.46483 13.4237 7.46483 13.6678 7.70891Z" fill="black"/>
</svg>
