<svg width="20" height="20" viewBox="0 0 20 20" fill="none" xmlns="http://www.w3.org/2000/svg">
<path fill-rule="evenodd" clip-rule="evenodd" d="M10.5478 1.39096C13.2302 2.82451 15.6924 3.61591 16.6304 3.88692L16.6377 3.88902L16.6377 3.88906C17.1131 4.03268 17.5 4.45828 17.5 5.00954V7.5C17.5 7.84518 17.2202 8.125 16.875 8.125C16.5298 8.125 16.25 7.84518 16.25 7.5V5.0781C15.2426 4.78517 12.7361 3.97281 9.99727 2.514C7.26537 3.98072 4.75054 4.78738 3.75 5.08373V11.9662C3.75 12.772 4.31494 13.6405 5.28197 14.5091C6.22484 15.3559 7.42524 16.0912 8.42541 16.6394C8.7281 16.8053 8.83898 17.1852 8.67307 17.4879C8.50716 17.7906 8.12728 17.9015 7.82459 17.7356C6.79633 17.172 5.49673 16.3821 4.44671 15.439C3.42085 14.5176 2.5 13.3314 2.5 11.9662V5.01534C2.5 4.47536 2.87594 4.03275 3.3699 3.89262C4.31546 3.61358 6.77977 2.82795 9.44524 1.39157C9.78818 1.20302 10.2047 1.20281 10.5478 1.39096Z" fill="black"/>
<path fill-rule="evenodd" clip-rule="evenodd" d="M14.4566 8.45529C14.6184 8.15282 14.9937 8.03721 15.2976 8.19624L17.4846 9.34069C17.7894 9.50019 17.908 9.87603 17.75 10.1816L17.3546 10.9459C17.5532 11.2061 17.721 11.4848 17.8582 11.7762L18.7795 11.8197C19.1129 11.8355 19.375 12.1103 19.375 12.444V14.8404C19.375 15.1776 19.1074 15.454 18.7704 15.465L17.9613 15.4914C17.9038 15.6327 17.8384 15.7735 17.7638 15.9135L17.7615 15.9178L17.7615 15.9178C17.6864 16.0561 17.6047 16.1926 17.5155 16.3253L18.009 17.1749C18.093 17.3195 18.1155 17.4918 18.0715 17.6532C18.0275 17.8146 17.9207 17.9516 17.7749 18.0336L15.5323 19.2948C15.3829 19.3788 15.2057 19.3977 15.0419 19.3473C14.8782 19.2969 14.7423 19.1814 14.6661 19.0279L14.3022 18.2949C14.0147 18.3318 13.7217 18.3409 13.4283 18.3203L13.0434 19.0401C12.8816 19.3425 12.5064 19.4582 12.2025 19.2991L9.99504 18.144C9.8469 18.0665 9.736 17.9328 9.68712 17.773C9.63824 17.6131 9.65546 17.4403 9.73493 17.2932L10.1403 16.5428C9.95142 16.2944 9.79057 16.0291 9.6575 15.7521L8.84587 15.7785C8.67995 15.7839 8.5187 15.7231 8.39769 15.6094C8.27669 15.4958 8.20586 15.3387 8.20085 15.1727L8.12529 12.6739C8.11488 12.3294 8.38522 12.0416 8.72963 12.0303L9.53804 12.004C9.59588 11.861 9.6622 11.7181 9.73854 11.5775C9.81186 11.4425 9.89146 11.3092 9.97821 11.1794L9.55072 10.4832C9.371 10.1905 9.46116 9.80759 9.7526 9.62584L11.8637 8.30924C12.0049 8.22119 12.1754 8.19308 12.3374 8.23112C12.4993 8.26917 12.6395 8.37023 12.7267 8.51193L13.1541 9.20633C13.4556 9.16452 13.7634 9.15343 14.0717 9.1751L14.4566 8.45529ZM15.2668 9.59097L14.9723 10.1419C14.8447 10.3805 14.5781 10.5099 14.3117 10.4625C13.8713 10.3842 13.4219 10.4027 12.9979 10.5076C12.734 10.5729 12.4581 10.4601 12.3155 10.2285L11.9918 9.70255L10.9407 10.358L11.2648 10.886C11.4055 11.1151 11.3839 11.4084 11.2112 11.6145C11.074 11.7782 10.95 11.966 10.837 12.1741C10.7327 12.3662 10.65 12.5758 10.584 12.795C10.5066 13.0518 10.274 13.2306 10.0059 13.2394L9.39356 13.2593L9.43134 14.5088L10.0453 14.4889C10.3148 14.4801 10.5596 14.6452 10.6524 14.8984C10.8075 15.3215 11.0402 15.7095 11.3485 16.0388C11.5321 16.235 11.5698 16.5266 11.4421 16.763L11.1357 17.3301L12.2332 17.9044L12.5277 17.3535C12.6553 17.1149 12.9219 16.9855 13.1883 17.0328C13.6288 17.1112 14.0781 17.0927 14.5021 16.9878C14.7865 16.9174 15.0817 17.0541 15.212 17.3165L15.4931 17.8827L16.6098 17.2547L16.2273 16.5962C16.0951 16.3686 16.1197 16.0826 16.2888 15.8809C16.4255 15.7177 16.5491 15.5307 16.6618 15.3235C16.7687 15.1225 16.8512 14.9156 16.916 14.7004C16.9934 14.4436 17.226 14.2647 17.4941 14.256L18.125 14.2354V13.0402L17.4049 13.0061C17.1538 12.9943 16.9342 12.833 16.8476 12.5969C16.6925 12.1739 16.4598 11.7859 16.1515 11.4565C15.9707 11.2634 15.9311 10.9773 16.0526 10.7423L16.3539 10.1598L15.2668 9.59097Z" fill="black"/>
<path fill-rule="evenodd" clip-rule="evenodd" d="M13.75 14.6875C14.2678 14.6875 14.6875 14.2678 14.6875 13.75C14.6875 13.2322 14.2678 12.8125 13.75 12.8125C13.2322 12.8125 12.8125 13.2322 12.8125 13.75C12.8125 14.2678 13.2322 14.6875 13.75 14.6875ZM13.75 15.9375C14.9581 15.9375 15.9375 14.9581 15.9375 13.75C15.9375 12.5419 14.9581 11.5625 13.75 11.5625C12.5419 11.5625 11.5625 12.5419 11.5625 13.75C11.5625 14.9581 12.5419 15.9375 13.75 15.9375Z" fill="black"/>
</svg>
