<svg width="20" height="20" viewBox="0 0 20 20" fill="none" xmlns="http://www.w3.org/2000/svg">
<path d="M7.8125 18.75C8.33027 18.75 8.75 18.3303 8.75 17.8125C8.75 17.2947 8.33027 16.875 7.8125 16.875C7.29473 16.875 6.875 17.2947 6.875 17.8125C6.875 18.3303 7.29473 18.75 7.8125 18.75Z" fill="black"/>
<path d="M12.1875 18.75C12.7053 18.75 13.125 18.3303 13.125 17.8125C13.125 17.2947 12.7053 16.875 12.1875 16.875C11.6697 16.875 11.25 17.2947 11.25 17.8125C11.25 18.3303 11.6697 18.75 12.1875 18.75Z" fill="black"/>
<path fill-rule="evenodd" clip-rule="evenodd" d="M4.375 5C4.375 4.65482 4.65482 4.375 5 4.375H15.9982C17.0335 4.375 17.7771 5.39533 17.4033 6.37995C17.3998 6.38914 17.3961 6.39824 17.3922 6.40726L15.7993 10.0727L15.7993 10.0728C15.1605 11.5418 13.7218 12.5 12.1194 12.5H5C4.65482 12.5 4.375 12.2202 4.375 11.875V5ZM5.625 5.625V11.25H12.1194C13.2163 11.25 14.2094 10.5942 14.6529 9.57449C14.6529 9.57445 14.6529 9.57441 14.6529 9.57436L16.238 5.92705C16.2822 5.79197 16.1867 5.625 15.9982 5.625H5.625Z" fill="black"/>
<path fill-rule="evenodd" clip-rule="evenodd" d="M1.875 1.875C1.875 1.52982 2.15482 1.25 2.5 1.25H3.33134C4.55824 1.25 5.625 2.1918 5.625 3.4375V5C5.625 5.34518 5.34518 5.625 5 5.625C4.65482 5.625 4.375 5.34518 4.375 5V3.4375C4.375 2.95829 3.94655 2.5 3.33134 2.5H2.5C2.15482 2.5 1.875 2.22018 1.875 1.875Z" fill="black"/>
<path fill-rule="evenodd" clip-rule="evenodd" d="M5 11.25C5.34518 11.25 5.625 11.5298 5.625 11.875V13.75C5.625 14.497 6.16365 15 6.7051 15H14.375C14.7202 15 15 15.2798 15 15.625C15 15.9702 14.7202 16.25 14.375 16.25H6.7051C5.36422 16.25 4.375 15.0729 4.375 13.75V11.875C4.375 11.5298 4.65482 11.25 5 11.25Z" fill="black"/>
</svg>
