<svg width="20" height="20" viewBox="0 0 20 20" fill="none" xmlns="http://www.w3.org/2000/svg">
<path fill-rule="evenodd" clip-rule="evenodd" d="M15.625 1.25C15.9702 1.25 16.25 1.52982 16.25 1.875V4.375C16.25 4.72018 15.9702 5 15.625 5H13.125C12.7798 5 12.5 4.72018 12.5 4.375C12.5 4.02982 12.7798 3.75 13.125 3.75H15V1.875C15 1.52982 15.2798 1.25 15.625 1.25Z" fill="black"/>
<path fill-rule="evenodd" clip-rule="evenodd" d="M3.75 15.625C3.75 15.2798 4.02982 15 4.375 15H6.875C7.22018 15 7.5 15.2798 7.5 15.625C7.5 15.9702 7.22018 16.25 6.875 16.25H5V18.125C5 18.4702 4.72018 18.75 4.375 18.75C4.02982 18.75 3.75 18.4702 3.75 18.125V15.625Z" fill="black"/>
<path fill-rule="evenodd" clip-rule="evenodd" d="M10 2.5C5.85612 2.5 2.5 5.85612 2.5 10C2.5 11.3693 2.8673 12.6471 3.50481 13.7496C3.6776 14.0485 3.57543 14.4308 3.27661 14.6036C2.97779 14.7763 2.59548 14.6742 2.42269 14.3754C1.67895 13.0891 1.25 11.5964 1.25 10C1.25 5.16576 5.16576 1.25 10 1.25C12.3851 1.25 14.4637 2.01733 16.0669 3.62056C16.311 3.86464 16.311 4.26036 16.0669 4.50444C15.8229 4.74852 15.4271 4.74852 15.1831 4.50444C13.845 3.16642 12.0999 2.5 10 2.5Z" fill="black"/>
<path fill-rule="evenodd" clip-rule="evenodd" d="M16.7234 5.39645C17.0222 5.22367 17.4045 5.32584 17.5773 5.62465C18.321 6.91088 18.75 8.40366 18.75 10C18.75 14.8343 14.8342 18.75 9.99999 18.75C7.61485 18.75 5.53628 17.9827 3.93306 16.3795C3.68898 16.1354 3.68898 15.7396 3.93306 15.4956C4.17714 15.2515 4.57286 15.2515 4.81694 15.4956C6.15497 16.8336 7.90014 17.5 9.99999 17.5C14.1439 17.5 17.5 14.1439 17.5 10C17.5 8.63074 17.1327 7.35289 16.4952 6.25037C16.3224 5.95155 16.4246 5.56924 16.7234 5.39645Z" fill="black"/>
<path fill-rule="evenodd" clip-rule="evenodd" d="M8.37346 4.55902C8.49075 4.44123 8.65012 4.37502 8.81635 4.37502L11.2403 4.37502C11.5811 4.37502 11.8591 4.64809 11.8652 4.98887L11.8804 5.8441C12.1613 5.97548 12.4254 6.13465 12.6708 6.31699L13.3496 5.92678C13.4936 5.844 13.6647 5.82195 13.825 5.86551C13.9853 5.90907 14.1216 6.01465 14.2039 6.15894L15.4357 8.31807C15.6064 8.61717 15.5029 8.99795 15.2044 9.1696L14.5271 9.55905C14.543 9.70766 14.552 9.85948 14.5529 10.0149L14.5529 10.0197L14.5529 10.0197C14.5526 10.1726 14.546 10.327 14.5314 10.4816L15.2278 10.8977C15.5197 11.072 15.6186 11.4477 15.4505 11.7433L14.241 13.869C14.158 14.015 14.0197 14.1214 13.8573 14.1643C13.6949 14.2071 13.5221 14.1828 13.3778 14.0969L12.6914 13.6878C12.4552 13.8584 12.2003 14.0061 11.9303 14.1268L11.9337 14.9284C11.9345 15.0961 11.8678 15.2571 11.7486 15.3751C11.6295 15.4931 11.4679 15.5583 11.3002 15.556L8.85895 15.5227C8.51817 15.518 8.24395 15.2412 8.2425 14.9004L8.23901 14.0844C7.9603 13.9535 7.69806 13.7952 7.45432 13.6141L6.7755 14.0043C6.63149 14.0871 6.46044 14.1092 6.30014 14.0656C6.13984 14.0221 6.00347 13.9165 5.92116 13.7722L4.68938 11.613C4.51875 11.3139 4.62219 10.9332 4.92071 10.7615L5.59744 10.3724C5.58108 10.2221 5.57188 10.068 5.57222 9.91142C5.57255 9.75852 5.57915 9.60416 5.59367 9.44956L4.89726 9.03347C4.60539 8.85908 4.50646 8.48337 4.6746 8.18786L5.88409 6.06208C5.96714 5.91611 6.10544 5.8097 6.26782 5.76685C6.4302 5.72399 6.60299 5.74828 6.74726 5.83425L7.43371 6.24332C7.66987 6.07268 7.92477 5.925 8.19477 5.80434L8.19135 5.00269C8.19064 4.83646 8.25618 4.67681 8.37346 4.55902ZM9.44402 5.62502L9.4466 6.23012C9.44777 6.50284 9.27197 6.74483 9.01224 6.82801C8.59829 6.96059 8.22151 7.18155 7.9064 7.46642C7.70284 7.65045 7.40305 7.68017 7.16732 7.53969L6.65518 7.2345L6.06362 8.27422L6.59241 8.59016C6.82023 8.72627 6.93725 8.99142 6.88426 9.25147C6.84221 9.45785 6.82272 9.67953 6.82222 9.91409C6.82175 10.1308 6.8482 10.3529 6.8935 10.5759C6.94708 10.8396 6.82584 11.108 6.59255 11.2421L6.08378 11.5347L6.69618 12.6081L7.20515 12.3156C7.44008 12.1805 7.73527 12.2122 7.93614 12.3941C8.26798 12.6946 8.6501 12.9281 9.06928 13.0753C9.31874 13.1629 9.48609 13.3979 9.48722 13.6623L9.48986 14.2812L10.681 14.2975L10.6785 13.701C10.6773 13.4283 10.8531 13.1863 11.1129 13.1031C11.5268 12.9705 11.9036 12.7496 12.2187 12.4647C12.4223 12.2807 12.722 12.251 12.9578 12.3914L13.4699 12.6966L14.0615 11.6569L13.5327 11.341C13.3049 11.2048 13.1879 10.9397 13.2408 10.6797C13.2827 10.474 13.3022 10.2531 13.3029 10.0195C13.3014 9.79393 13.2761 9.57421 13.2316 9.35524C13.178 9.09152 13.2993 8.82312 13.5325 8.68898L14.0413 8.39644L13.4289 7.32299L12.92 7.61556C12.685 7.75061 12.3898 7.71888 12.189 7.53699C11.8571 7.23651 11.475 7.00303 11.0558 6.85585C10.8093 6.76929 10.6426 6.53852 10.638 6.27729L10.6263 5.62502L9.44402 5.62502Z" fill="black"/>
<path fill-rule="evenodd" clip-rule="evenodd" d="M10 10.9375C10.5178 10.9375 10.9375 10.5178 10.9375 10C10.9375 9.48223 10.5178 9.0625 10 9.0625C9.48223 9.0625 9.0625 9.48223 9.0625 10C9.0625 10.5178 9.48223 10.9375 10 10.9375ZM10 12.1875C11.2081 12.1875 12.1875 11.2081 12.1875 10C12.1875 8.79188 11.2081 7.8125 10 7.8125C8.79188 7.8125 7.8125 8.79188 7.8125 10C7.8125 11.2081 8.79188 12.1875 10 12.1875Z" fill="black"/>
</svg>
