<svg width="20" height="20" viewBox="0 0 20 20" fill="none" xmlns="http://www.w3.org/2000/svg">
<path fill-rule="evenodd" clip-rule="evenodd" d="M13.333 1.42002C13.3337 1.42045 13.3344 1.42088 13.3352 1.42131L15.4346 2.69305C15.435 2.69333 15.4355 2.6936 15.436 2.69388C15.9989 3.03241 16.1736 3.7639 15.8641 4.3262C15.864 4.32641 15.8639 4.32663 15.8638 4.32685L15.1506 5.62743C15.5844 6.18966 15.938 6.82552 16.1919 7.51473H17.5682C18.2533 7.51473 18.75 8.09042 18.75 8.72462V11.2754C18.75 11.9196 18.2435 12.4853 17.5682 12.4853H16.1919C15.9392 13.1718 15.59 13.8081 15.1507 14.3727L15.8633 15.6723C16.1777 16.2376 15.9924 16.964 15.4406 17.3033L15.437 17.3055L13.3316 18.5809L13.3292 18.5823C12.7493 18.93 12.0229 18.7107 11.7044 18.1327L11.008 16.8667C10.6805 16.9176 10.3444 16.9451 10 16.9451C9.65563 16.9451 9.31955 16.9176 8.99204 16.8667L8.29715 18.1299C7.98425 18.7086 7.25058 18.9373 6.66697 18.58C6.66626 18.5796 6.66556 18.5791 6.66485 18.5787L4.56542 17.307C4.56499 17.3067 4.56455 17.3064 4.56412 17.3062C4.0012 16.9677 3.82643 16.2363 4.13576 15.674C4.13591 15.6737 4.13606 15.6734 4.13621 15.6732L4.84941 14.3726C4.41556 13.8103 4.06201 13.1745 3.8081 12.4853H2.43184C1.74674 12.4853 1.25 11.9096 1.25 11.2754V8.72462C1.25 8.08043 1.75645 7.51473 2.43184 7.51473H3.80809C4.06083 6.82826 4.40995 6.19187 4.84935 5.62733L4.13661 4.32757C3.82237 3.76233 4.00768 3.036 4.55942 2.6967L4.56299 2.6945L6.67085 1.41766C7.25069 1.06999 7.97707 1.28927 8.29563 1.86731L8.99204 3.13335C9.31955 3.08236 9.65563 3.05494 10 3.05494C10.3444 3.05494 10.6805 3.08236 11.008 3.13335L11.7028 1.87009C12.0157 1.29136 12.7494 1.06275 13.333 1.42002ZM9.01545 16.8241C9.01542 16.8242 9.01552 16.824 9.01545 16.8241V16.8241ZM15.1448 14.3619C15.1447 14.3618 15.1448 14.3621 15.1448 14.3619V14.3619ZM12.7631 2.5362L12.0801 3.7778C11.8546 4.18802 11.3881 4.4688 10.8692 4.37709C10.586 4.3301 10.2963 4.30494 10 4.30494C9.70243 4.30494 9.41162 4.33031 9.12719 4.37768L9.12537 4.37798C8.62019 4.46059 8.15112 4.1984 7.92005 3.77808L7.23694 2.5362L5.24242 3.7444L5.95079 5.03618C6.17968 5.45321 6.15196 5.98041 5.85557 6.36968L5.85276 6.37338L5.84989 6.37703C5.47847 6.85009 5.18092 7.39192 4.96671 7.98613L4.96608 7.98789C4.79621 8.4547 4.35665 8.76473 3.86662 8.76473H2.5V11.2353H3.86662C4.35457 11.2353 4.80077 11.5401 4.96782 12.017C5.18119 12.6078 5.48213 13.1499 5.85152 13.6251C6.15493 14.0149 6.17834 14.5492 5.95103 14.9634C5.95095 14.9635 5.95111 14.9632 5.95103 14.9634L5.24242 16.2556L7.23694 17.4638L7.9199 16.2222C7.91984 16.2223 7.91995 16.2221 7.9199 16.2222C8.14542 15.812 8.61194 15.5312 9.1308 15.6229C9.41408 15.6699 9.70369 15.6951 10 15.6951C10.2976 15.6951 10.5884 15.6697 10.8728 15.6223L10.8746 15.622C11.386 15.5384 11.85 15.8115 12.0776 16.2176L12.08 16.2219L12.7631 17.4638L14.7576 16.2556L14.0492 14.9638C14.0491 14.9637 14.0493 14.964 14.0492 14.9638C13.8203 14.5468 13.848 14.0196 14.1444 13.6303L14.1472 13.6266L14.1501 13.623C14.5215 13.1499 14.8191 12.6081 15.0333 12.0139L15.0339 12.0121C15.2038 11.5453 15.6433 11.2353 16.1334 11.2353H17.5V8.76473H16.1334C15.6454 8.76473 15.1992 8.45985 15.0322 7.983C14.8188 7.39215 14.5179 6.85012 14.1485 6.37494C13.845 5.98503 13.8217 5.45052 14.0491 5.03633C14.0491 5.03639 14.0492 5.03628 14.0491 5.03633L14.7576 3.7444L12.7631 2.5362ZM2.5 8.7246C2.5 8.7246 2.5 8.72458 2.5 8.7246V8.7246ZM10.4287 7.53504C8.71197 7.25433 7.25395 8.71207 7.53515 10.4282C7.70289 11.4557 8.54126 12.2947 9.57088 12.4649M10.4287 7.53504C11.4585 7.70506 12.297 8.54381 12.4648 9.57144C12.746 11.2877 11.2878 12.7459 9.57088 12.4649M6.30154 10.63C5.88225 8.06961 8.07151 5.88258 10.631 6.30152L10.6318 6.30165C12.1893 6.55858 13.444 7.81121 13.6985 9.37004C14.1177 11.9304 11.9285 14.1174 9.36897 13.6985L9.3682 13.6984C7.81081 13.4415 6.55616 12.1886 6.30154 10.63Z" fill="black"/>
</svg>
