<svg width="20" height="20" viewBox="0 0 20 20" fill="none" xmlns="http://www.w3.org/2000/svg">
<path fill-rule="evenodd" clip-rule="evenodd" d="M10 5.625C9.65482 5.625 9.375 5.90482 9.375 6.25C9.375 6.59518 9.65482 6.875 10 6.875C10.3452 6.875 10.625 6.59518 10.625 6.25C10.625 5.90482 10.3452 5.625 10 5.625ZM8.125 6.25C8.125 5.21447 8.96447 4.375 10 4.375C11.0355 4.375 11.875 5.21447 11.875 6.25C11.875 7.28553 11.0355 8.125 10 8.125C8.96447 8.125 8.125 7.28553 8.125 6.25Z" fill="black"/>
<path fill-rule="evenodd" clip-rule="evenodd" d="M9.07539 7.40861L6.8537 8.76358L6.20284 7.6964L8.42453 6.34143L9.07539 7.40861Z" fill="black"/>
<path fill-rule="evenodd" clip-rule="evenodd" d="M10.9246 7.49595L13.1463 8.85092L13.7972 7.78374L11.5755 6.42877L10.9246 7.49595Z" fill="black"/>
<path fill-rule="evenodd" clip-rule="evenodd" d="M14.375 8.125C14.0298 8.125 13.75 8.40482 13.75 8.75C13.75 9.09518 14.0298 9.375 14.375 9.375C14.7202 9.375 15 9.09518 15 8.75C15 8.40482 14.7202 8.125 14.375 8.125ZM12.5 8.75C12.5 7.71447 13.3395 6.875 14.375 6.875C15.4105 6.875 16.25 7.71447 16.25 8.75C16.25 9.78553 15.4105 10.625 14.375 10.625C13.3395 10.625 12.5 9.78553 12.5 8.75Z" fill="black"/>
<path fill-rule="evenodd" clip-rule="evenodd" d="M5.625 8.125C5.27982 8.125 5 8.40482 5 8.75C5 9.09518 5.27982 9.375 5.625 9.375C5.97018 9.375 6.25 9.09518 6.25 8.75C6.25 8.40482 5.97018 8.125 5.625 8.125ZM3.75 8.75C3.75 7.71447 4.58947 6.875 5.625 6.875C6.66053 6.875 7.5 7.71447 7.5 8.75C7.5 9.78553 6.66053 10.625 5.625 10.625C4.58947 10.625 3.75 9.78553 3.75 8.75Z" fill="black"/>
<path fill-rule="evenodd" clip-rule="evenodd" d="M3.47969 3.75C2.9274 3.75 2.5 4.18625 2.5 4.69956V13.4254C2.5 13.9388 2.9274 14.375 3.47969 14.375H16.5203C17.0726 14.375 17.5 13.9388 17.5 13.4254V4.69956C17.5 4.18625 17.0726 3.75 16.5203 3.75H3.47969ZM1.25 4.69956C1.25 3.47366 2.25948 2.5 3.47969 2.5H16.5203C17.7405 2.5 18.75 3.47366 18.75 4.69956V13.4254C18.75 14.6513 17.7405 15.625 16.5203 15.625H3.47969C2.25948 15.625 1.25 14.6513 1.25 13.4254V4.69956Z" fill="black"/>
<path fill-rule="evenodd" clip-rule="evenodd" d="M10 14.402C10.3452 14.402 10.625 14.6818 10.625 15.027V17.7388C10.625 18.0839 10.3452 18.3638 10 18.3638C9.65482 18.3638 9.375 18.0839 9.375 17.7388V15.027C9.375 14.6818 9.65482 14.402 10 14.402Z" fill="black"/>
<path fill-rule="evenodd" clip-rule="evenodd" d="M5.625 18.125C5.625 17.7798 5.90482 17.5 6.25 17.5L13.75 17.5C14.0952 17.5 14.375 17.7798 14.375 18.125C14.375 18.4702 14.0952 18.75 13.75 18.75L6.25 18.75C5.90482 18.75 5.625 18.4702 5.625 18.125Z" fill="black"/>
<path fill-rule="evenodd" clip-rule="evenodd" d="M1.25 12.5C1.25 12.1548 1.52982 11.875 1.875 11.875H17.711C18.0562 11.875 18.336 12.1548 18.336 12.5C18.336 12.8452 18.0562 13.125 17.711 13.125H1.875C1.52982 13.125 1.25 12.8452 1.25 12.5Z" fill="black"/>
</svg>
