<svg width="20" height="20" viewBox="0 0 20 20" fill="none" xmlns="http://www.w3.org/2000/svg">
<path fill-rule="evenodd" clip-rule="evenodd" d="M11.25 13.125C11.25 12.0895 12.0895 11.25 13.125 11.25H16.875C17.9105 11.25 18.75 12.0895 18.75 13.125V16.875C18.75 17.9105 17.9105 18.75 16.875 18.75H13.125C12.0895 18.75 11.25 17.9105 11.25 16.875V13.125ZM13.125 12.5C12.7798 12.5 12.5 12.7798 12.5 13.125V16.875C12.5 17.2202 12.7798 17.5 13.125 17.5H16.875C17.2202 17.5 17.5 17.2202 17.5 16.875V13.125C17.5 12.7798 17.2202 12.5 16.875 12.5H13.125Z" fill="black"/>
<path fill-rule="evenodd" clip-rule="evenodd" d="M3.75 10C4.09518 10 4.375 10.2798 4.375 10.625V15.9989C4.375 16.1324 4.48384 16.25 4.63571 16.25H8.75C9.09518 16.25 9.375 16.5298 9.375 16.875C9.375 17.2202 9.09518 17.5 8.75 17.5H4.63571C3.80473 17.5 3.125 16.834 3.125 15.9989V10.625C3.125 10.2798 3.40482 10 3.75 10Z" fill="black"/>
<path fill-rule="evenodd" clip-rule="evenodd" d="M7.05806 15.1831C7.30214 14.939 7.69786 14.939 7.94194 15.1831L9.19194 16.4331C9.30915 16.5503 9.375 16.7092 9.375 16.875C9.375 17.0408 9.30915 17.1997 9.19194 17.3169L7.94194 18.5669C7.69786 18.811 7.30214 18.811 7.05806 18.5669C6.81398 18.3229 6.81398 17.9271 7.05806 17.6831L7.86612 16.875L7.05806 16.0669C6.81398 15.8229 6.81398 15.4271 7.05806 15.1831Z" fill="black"/>
<path fill-rule="evenodd" clip-rule="evenodd" d="M10.625 3.125C10.625 2.77982 10.9048 2.5 11.25 2.5H15.2813C16.1042 2.5 16.875 3.11476 16.875 4.00109V9.375C16.875 9.72018 16.5952 10 16.25 10C15.9048 10 15.625 9.72018 15.625 9.375V4.00109C15.625 3.91882 15.5333 3.75 15.2813 3.75H11.25C10.9048 3.75 10.625 3.47018 10.625 3.125Z" fill="black"/>
<path fill-rule="evenodd" clip-rule="evenodd" d="M12.9419 1.43306C13.186 1.67714 13.186 2.07286 12.9419 2.31694L12.1339 3.125L12.9419 3.93306C13.186 4.17714 13.186 4.57286 12.9419 4.81694C12.6979 5.06102 12.3021 5.06102 12.0581 4.81694L10.8081 3.56694C10.6908 3.44973 10.625 3.29076 10.625 3.125C10.625 2.95924 10.6908 2.80027 10.8081 2.68306L12.0581 1.43306C12.3021 1.18898 12.6979 1.18898 12.9419 1.43306Z" fill="black"/>
<path fill-rule="evenodd" clip-rule="evenodd" d="M5 2.5C3.61929 2.5 2.5 3.61929 2.5 5C2.5 6.38071 3.61929 7.5 5 7.5C6.38071 7.5 7.5 6.38071 7.5 5C7.5 3.61929 6.38071 2.5 5 2.5ZM1.25 5C1.25 2.92893 2.92893 1.25 5 1.25C7.07107 1.25 8.75 2.92893 8.75 5C8.75 7.07107 7.07107 8.75 5 8.75C2.92893 8.75 1.25 7.07107 1.25 5Z" fill="black"/>
</svg>
