<svg width="20" height="20" viewBox="0 0 20 20" fill="none" xmlns="http://www.w3.org/2000/svg">
<path fill-rule="evenodd" clip-rule="evenodd" d="M2.5 7.5C2.5 7.15482 2.77982 6.875 3.125 6.875L5.62546 6.875C5.97064 6.875 6.25046 7.15482 6.25046 7.5C6.25046 7.84518 5.97064 8.125 5.62546 8.125L3.125 8.125C2.77982 8.125 2.5 7.84518 2.5 7.5Z" fill="black"/>
<path fill-rule="evenodd" clip-rule="evenodd" d="M2.5 11.25C2.5 10.9048 2.77982 10.625 3.125 10.625H5.625C5.97018 10.625 6.25 10.9048 6.25 11.25C6.25 11.5952 5.97018 11.875 5.625 11.875H3.125C2.77982 11.875 2.5 11.5952 2.5 11.25Z" fill="black"/>
<path fill-rule="evenodd" clip-rule="evenodd" d="M4.375 8.75C4.72018 8.75 5 9.02982 5 9.375V11.25C5 11.5952 4.72018 11.875 4.375 11.875C4.02982 11.875 3.75 11.5952 3.75 11.25V9.375C3.75 9.02982 4.02982 8.75 4.375 8.75Z" fill="black"/>
<path fill-rule="evenodd" clip-rule="evenodd" d="M2.5 15C2.5 14.6548 2.77982 14.375 3.125 14.375L5.62546 14.375C5.97064 14.375 6.25046 14.6548 6.25046 15C6.25046 15.3452 5.97064 15.625 5.62546 15.625L3.125 15.625C2.77982 15.625 2.5 15.3452 2.5 15Z" fill="black"/>
<path fill-rule="evenodd" clip-rule="evenodd" d="M4.375 12.5C4.72018 12.5 5 12.7798 5 13.125V14.7115C5 15.0567 4.72018 15.3365 4.375 15.3365C4.02982 15.3365 3.75 15.0567 3.75 14.7115V13.125C3.75 12.7798 4.02982 12.5 4.375 12.5Z" fill="black"/>
<path fill-rule="evenodd" clip-rule="evenodd" d="M5.6833 4.375C5.3406 4.375 5 4.68506 5 5.13V6.97539C5 7.32056 4.72018 7.60039 4.375 7.60039C4.02982 7.60039 3.75 7.32056 3.75 6.97539V5.13C3.75 4.05838 4.58823 3.125 5.6833 3.125H14.3167C15.4118 3.125 16.25 4.05838 16.25 5.13V16.745C16.25 17.8166 15.4118 18.75 14.3167 18.75H5.6833C4.67079 18.75 3.75 18.0278 3.75 16.875C3.75 16.5298 4.02982 16.25 4.375 16.25C4.72018 16.25 5 16.5298 5 16.875C5 17.2387 5.25804 17.5 5.6833 17.5H14.3167C14.6594 17.5 15 17.1899 15 16.745V5.13C15 4.68506 14.6594 4.375 14.3167 4.375H5.6833Z" fill="black"/>
<path fill-rule="evenodd" clip-rule="evenodd" d="M5 1.875C5 1.52982 5.2671 1.25 5.59659 1.25H15.9582C17.1323 1.25 18.125 2.22868 18.125 3.46792V16.875C18.125 17.2202 17.8579 17.5 17.5284 17.5C17.1989 17.5 16.9318 17.2202 16.9318 16.875V3.46792C16.9318 2.95661 16.5097 2.5 15.9582 2.5H5.59659C5.2671 2.5 5 2.22018 5 1.875Z" fill="black"/>
<path fill-rule="evenodd" clip-rule="evenodd" d="M7.5 7.5C7.5 7.15482 7.77982 6.875 8.125 6.875L12.5 6.875C12.8452 6.875 13.125 7.15482 13.125 7.5C13.125 7.84518 12.8452 8.125 12.5 8.125L8.125 8.125C7.77982 8.125 7.5 7.84518 7.5 7.5Z" fill="black"/>
<path fill-rule="evenodd" clip-rule="evenodd" d="M7.5 10C7.5 9.65482 7.77982 9.375 8.125 9.375L12.5 9.375C12.8452 9.375 13.125 9.65482 13.125 10C13.125 10.3452 12.8452 10.625 12.5 10.625L8.125 10.625C7.77982 10.625 7.5 10.3452 7.5 10Z" fill="black"/>
<path fill-rule="evenodd" clip-rule="evenodd" d="M7.5 12.5C7.5 12.1548 7.77982 11.875 8.125 11.875L12.5 11.875C12.8452 11.875 13.125 12.1548 13.125 12.5C13.125 12.8452 12.8452 13.125 12.5 13.125L8.125 13.125C7.77982 13.125 7.5 12.8452 7.5 12.5Z" fill="black"/>
</svg>
