<svg width="20" height="20" viewBox="0 0 20 20" fill="none" xmlns="http://www.w3.org/2000/svg">
<path fill-rule="evenodd" clip-rule="evenodd" d="M13.9333 3.0851C13.9333 3.08514 13.9334 3.08505 13.9333 3.0851L4.48111 12.1455L3.78548 14.806C3.78205 14.834 3.7767 14.8619 3.76938 14.8896C3.66677 15.278 4.03918 15.7315 4.56448 15.6042L4.56592 15.6038L7.44282 14.9135L16.9006 5.85332C17.6987 5.08875 17.7009 3.85727 16.9006 3.08513C16.0794 2.30399 14.7467 2.3061 13.9333 3.0851ZM2.53719 14.6703C2.54035 14.6373 2.54616 14.6044 2.55467 14.5719L3.31645 11.6584C3.34566 11.5467 3.40526 11.4452 3.48863 11.3653L13.0685 2.18258C14.367 0.93868 16.4615 0.9402 17.7641 2.18127L17.7665 2.18362C19.0772 3.44601 19.0789 5.49754 17.7653 6.75597L8.18542 15.9332C8.10546 16.0098 8.00658 16.0637 7.8989 16.0896L4.85901 16.819C4.85869 16.8191 4.85837 16.8191 4.85805 16.8192C3.54595 17.1366 2.25352 16.0279 2.53719 14.6703Z" fill="black"/>
<path fill-rule="evenodd" clip-rule="evenodd" d="M1.25 18.125C1.25 17.7798 1.52982 17.5 1.875 17.5H18.125C18.4702 17.5 18.75 17.7798 18.75 18.125C18.75 18.4702 18.4702 18.75 18.125 18.75H1.875C1.52982 18.75 1.25 18.4702 1.25 18.125Z" fill="black"/>
</svg>
