<svg width="20" height="20" viewBox="0 0 20 20" fill="none" xmlns="http://www.w3.org/2000/svg">
<path fill-rule="evenodd" clip-rule="evenodd" d="M7.87037 2.32672C7.87037 1.73504 8.35439 1.25 8.94676 1.25H9.375C9.72018 1.25 10 1.52982 10 1.875C10 2.22018 9.72018 2.5 9.375 2.5H9.12037V3.86258C9.12037 4.14986 8.92454 4.40014 8.6457 4.46923C8.07371 4.61097 7.53743 4.83372 7.05201 5.13058C6.80559 5.28128 6.48799 5.24349 6.28382 5.03917L5.32361 4.07824L4.08263 5.32014L5.04349 6.28172C5.24744 6.48581 5.28517 6.80299 5.1348 7.04923C4.83812 7.53507 4.6155 8.07184 4.47383 8.64438C4.40481 8.92332 4.15448 9.11926 3.86713 9.11926H2.5V10.8807H3.86111C4.14847 10.8807 4.39879 11.0767 4.46781 11.3556C4.60948 11.9282 4.8321 12.4649 5.12878 12.9508C5.27915 13.197 5.24142 13.5142 5.03748 13.7183L4.07661 14.6799L5.31759 15.9218L6.2778 14.9608C6.48198 14.7565 6.79957 14.7187 7.04599 14.8694C7.53141 15.1663 8.06769 15.389 8.63968 15.5308C8.91852 15.5999 9.11435 15.8501 9.11435 16.1374V17.5H9.375C9.72018 17.5 10 17.7798 10 18.125C10 18.4702 9.72018 18.75 9.375 18.75H8.94074C8.34837 18.75 7.86435 18.265 7.86435 17.6733V16.6089C7.50593 16.4933 7.15922 16.3499 6.82736 16.1793L6.07868 16.9285C5.66003 17.3475 4.97516 17.3475 4.55651 16.9285L3.06993 15.4409C2.65154 15.0221 2.65154 14.3376 3.06993 13.9189L3.81907 13.1692C3.64847 12.8369 3.50499 12.4897 3.38939 12.1307H2.32639C1.73402 12.1307 1.25 11.6457 1.25 11.054V8.94598C1.25 8.35429 1.73402 7.86926 2.32639 7.86926H3.39541C3.51101 7.51034 3.65449 7.16314 3.82509 6.83083L3.07595 6.08114C2.65755 5.66243 2.65755 4.97786 3.07595 4.55915L4.56252 3.07147C4.98118 2.65251 5.66605 2.65251 6.0847 3.07147L6.83338 3.82071C7.16524 3.65015 7.51195 3.50667 7.87037 3.39106V2.32672Z" fill="black"/>
<path fill-rule="evenodd" clip-rule="evenodd" d="M13.125 5.625C13.125 5.27982 13.4048 5 13.75 5H15C15.3452 5 15.625 5.27982 15.625 5.625C15.625 5.97018 15.3452 6.25 15 6.25H14.375V8.125C14.375 8.47018 14.0952 8.75 13.75 8.75H9.375C9.02982 8.75 8.75 8.47018 8.75 8.125C8.75 7.77982 9.02982 7.5 9.375 7.5H13.125V5.625Z" fill="black"/>
<path fill-rule="evenodd" clip-rule="evenodd" d="M11.875 4.375C12.2202 4.375 12.5 4.65482 12.5 5V6.25C12.5 6.59518 12.2202 6.875 11.875 6.875H9.375C8.18373 6.875 7.42462 7.39218 6.94531 8.03125C6.44609 8.69688 6.25 9.50063 6.25 10C6.25 10.5431 6.38953 11.3416 6.84014 11.9853C7.26548 12.593 8.00832 13.125 9.375 13.125H11.875C12.2202 13.125 12.5 13.4048 12.5 13.75V15C12.5 15.3452 12.2202 15.625 11.875 15.625C11.5298 15.625 11.25 15.3452 11.25 15V14.375H9.375C7.61668 14.375 6.48452 13.657 5.81611 12.7022C5.17297 11.7834 5 10.7069 5 10C5 9.24937 5.27266 8.17812 5.94531 7.28125C6.63788 6.35782 7.75377 5.625 9.375 5.625H11.25V5C11.25 4.65482 11.5298 4.375 11.875 4.375Z" fill="black"/>
<path fill-rule="evenodd" clip-rule="evenodd" d="M7.38757 8.43739C7.82448 7.87934 8.54324 7.5 9.6 7.5C9.94518 7.5 10.225 7.77982 10.225 8.125C10.225 8.47018 9.94518 8.75 9.6 8.75C8.86926 8.75 8.53802 8.99566 8.3718 9.20796C8.18247 9.44979 8.125 9.75606 8.125 9.9564C8.125 10.1596 8.18388 10.4944 8.38185 10.7616C8.55475 10.995 8.8854 11.25 9.6 11.25H13.75C14.0952 11.25 14.375 11.5298 14.375 11.875V13.75H15.625C15.9702 13.75 16.25 14.0298 16.25 14.375C16.25 14.7202 15.9702 15 15.625 15H13.75C13.4048 15 13.125 14.7202 13.125 14.375V12.5H9.6C8.5271 12.5 7.80775 12.0864 7.37752 11.5058C6.97237 10.959 6.875 10.3346 6.875 9.9564C6.875 9.57533 6.97378 8.96591 7.38757 8.43739Z" fill="black"/>
<path fill-rule="evenodd" clip-rule="evenodd" d="M8.75 10C8.75 9.65482 9.02982 9.375 9.375 9.375H15.3125C15.6577 9.375 15.9375 9.65482 15.9375 10C15.9375 10.3452 15.6577 10.625 15.3125 10.625H9.375C9.02982 10.625 8.75 10.3452 8.75 10Z" fill="black"/>
<path fill-rule="evenodd" clip-rule="evenodd" d="M11.875 2.5C11.5298 2.5 11.25 2.77982 11.25 3.125C11.25 3.47018 11.5298 3.75 11.875 3.75C12.2202 3.75 12.5 3.47018 12.5 3.125C12.5 2.77982 12.2202 2.5 11.875 2.5ZM10 3.125C10 2.08947 10.8395 1.25 11.875 1.25C12.9105 1.25 13.75 2.08947 13.75 3.125C13.75 4.16053 12.9105 5 11.875 5C10.8395 5 10 4.16053 10 3.125Z" fill="black"/>
<path fill-rule="evenodd" clip-rule="evenodd" d="M16.875 5C16.5298 5 16.25 5.27982 16.25 5.625C16.25 5.97018 16.5298 6.25 16.875 6.25C17.2202 6.25 17.5 5.97018 17.5 5.625C17.5 5.27982 17.2202 5 16.875 5ZM15 5.625C15 4.58947 15.8395 3.75 16.875 3.75C17.9105 3.75 18.75 4.58947 18.75 5.625C18.75 6.66053 17.9105 7.5 16.875 7.5C15.8395 7.5 15 6.66053 15 5.625Z" fill="black"/>
<path fill-rule="evenodd" clip-rule="evenodd" d="M16.875 9.375C16.5298 9.375 16.25 9.65482 16.25 10C16.25 10.3452 16.5298 10.625 16.875 10.625C17.2202 10.625 17.5 10.3452 17.5 10C17.5 9.65482 17.2202 9.375 16.875 9.375ZM15 10C15 8.96447 15.8395 8.125 16.875 8.125C17.9105 8.125 18.75 8.96447 18.75 10C18.75 11.0355 17.9105 11.875 16.875 11.875C15.8395 11.875 15 11.0355 15 10Z" fill="black"/>
<path fill-rule="evenodd" clip-rule="evenodd" d="M11.875 16.25C11.5298 16.25 11.25 16.5298 11.25 16.875C11.25 17.2202 11.5298 17.5 11.875 17.5C12.2202 17.5 12.5 17.2202 12.5 16.875C12.5 16.5298 12.2202 16.25 11.875 16.25ZM10 16.875C10 15.8395 10.8395 15 11.875 15C12.9105 15 13.75 15.8395 13.75 16.875C13.75 17.9105 12.9105 18.75 11.875 18.75C10.8395 18.75 10 17.9105 10 16.875Z" fill="black"/>
<path fill-rule="evenodd" clip-rule="evenodd" d="M16.875 13.75C16.5298 13.75 16.25 14.0298 16.25 14.375C16.25 14.7202 16.5298 15 16.875 15C17.2202 15 17.5 14.7202 17.5 14.375C17.5 14.0298 17.2202 13.75 16.875 13.75ZM15 14.375C15 13.3395 15.8395 12.5 16.875 12.5C17.9105 12.5 18.75 13.3395 18.75 14.375C18.75 15.4105 17.9105 16.25 16.875 16.25C15.8395 16.25 15 15.4105 15 14.375Z" fill="black"/>
</svg>
