<svg width="20" height="20" viewBox="0 0 20 20" fill="none" xmlns="http://www.w3.org/2000/svg">
<path fill-rule="evenodd" clip-rule="evenodd" d="M1.25 6.25C1.25 5.90482 1.52982 5.625 1.875 5.625H10C10.3452 5.625 10.625 5.90482 10.625 6.25C10.625 6.59518 10.3452 6.875 10 6.875H1.875C1.52982 6.875 1.25 6.59518 1.25 6.25Z" fill="black"/>
<path fill-rule="evenodd" clip-rule="evenodd" d="M15 6.25C15 5.90482 15.2798 5.625 15.625 5.625H18.125C18.4702 5.625 18.75 5.90482 18.75 6.25C18.75 6.59518 18.4702 6.875 18.125 6.875H15.625C15.2798 6.875 15 6.59518 15 6.25Z" fill="black"/>
<path fill-rule="evenodd" clip-rule="evenodd" d="M1.25 14.375C1.25 14.0298 1.52982 13.75 1.875 13.75H3.33572C3.6809 13.75 3.96072 14.0298 3.96072 14.375C3.96072 14.7202 3.6809 15 3.33572 15H1.875C1.52982 15 1.25 14.7202 1.25 14.375Z" fill="black"/>
<path fill-rule="evenodd" clip-rule="evenodd" d="M8.75 14.375C8.75 14.0298 9.02982 13.75 9.375 13.75H18.125C18.4702 13.75 18.75 14.0298 18.75 14.375C18.75 14.7202 18.4702 15 18.125 15H9.375C9.02982 15 8.75 14.7202 8.75 14.375Z" fill="black"/>
<path fill-rule="evenodd" clip-rule="evenodd" d="M12.8125 3.75C11.6044 3.75 10.625 4.72938 10.625 5.9375C10.625 7.14562 11.6044 8.125 12.8125 8.125C14.0206 8.125 15 7.14562 15 5.9375C15 4.72938 14.0206 3.75 12.8125 3.75ZM9.375 5.9375C9.375 4.03902 10.914 2.5 12.8125 2.5C14.711 2.5 16.25 4.03902 16.25 5.9375C16.25 7.83598 14.711 9.375 12.8125 9.375C10.914 9.375 9.375 7.83598 9.375 5.9375Z" fill="black"/>
<path fill-rule="evenodd" clip-rule="evenodd" d="M6.5625 11.875C5.35438 11.875 4.375 12.8544 4.375 14.0625C4.375 15.2706 5.35438 16.25 6.5625 16.25C7.77062 16.25 8.75 15.2706 8.75 14.0625C8.75 12.8544 7.77062 11.875 6.5625 11.875ZM3.125 14.0625C3.125 12.164 4.66402 10.625 6.5625 10.625C8.46098 10.625 10 12.164 10 14.0625C10 15.961 8.46098 17.5 6.5625 17.5C4.66402 17.5 3.125 15.961 3.125 14.0625Z" fill="black"/>
</svg>
