<svg xmlns="http://www.w3.org/2000/svg" width="20" height="20" fill="currentColor" viewBox="0 0 20 20">
  <path fill-rule="evenodd" d="M2.5 15V3.125h2.135c.14 0 .285.06.392.166l1.082 1.094c.337.34.8.536 1.28.536H17.5v4.454a.625.625 0 1 0 1.25 0V4.891c0-.665-.54-1.22-1.214-1.22H7.39a.559.559 0 0 1-.392-.166L5.915 2.412a1.81 1.81 0 0 0-1.28-.537H2.464a1.22 1.22 0 0 0-1.214 1.22V15.03c0 .666.54 1.22 1.214 1.22h5.661a.625.625 0 1 0 0-1.25H2.5Zm11.04-3.592c.258.23.282.624.052.882l-2.13 2.398 2.13 2.397a.625.625 0 1 1-.934.83l-2.5-2.812a.625.625 0 0 1 0-.83l2.5-2.813a.625.625 0 0 1 .882-.052Zm1.67 0a.625.625 0 0 1 .882.052l2.5 2.812c.21.237.21.594 0 .83l-2.5 2.813a.625.625 0 1 1-.934-.83l2.13-2.398-2.13-2.397a.625.625 0 0 1 .052-.882Z" clip-rule="evenodd"/>
</svg>
