<svg xmlns="http://www.w3.org/2000/svg" width="20" height="20" fill="currentColor" viewBox="0 0 20 20">
  <path fill-rule="evenodd" d="M2.94 1.875c-.935 0-1.69.766-1.69 1.696V16.43c0 .93.755 1.696 1.69 1.696h5.185a.625.625 0 1 0 0-1.25H5V8.553c0-.231.193-.428.433-.428h11.634c.24 0 .433.197.433.428v.197a.625.625 0 1 0 1.25 0v-.197c0-.927-.759-1.678-1.683-1.678h-.192V6.25c0-.503-.256-.964-.57-1.284-.315-.32-.778-.591-1.305-.591H9.774l-.67-1.448A1.69 1.69 0 0 0 7.54 1.875h-4.6Zm12.685 5V6.25c0-.086-.056-.25-.212-.408-.153-.157-.315-.217-.413-.217H9.375a.625.625 0 0 1-.567-.362l-.845-1.825a.629.629 0 0 1-.015-.035.44.44 0 0 0-.408-.278h-4.6a.446.446 0 0 0-.44.446V16.43c0 .247.203.446.44.446h.81V8.553c0-.927.759-1.678 1.683-1.678h10.192Zm-2.085 4.533c.258.23.282.624.052.882l-2.13 2.398 2.13 2.397a.625.625 0 1 1-.934.83l-2.5-2.812a.625.625 0 0 1 0-.83l2.5-2.813a.625.625 0 0 1 .882-.052Zm2.552.052a.625.625 0 1 0-.934.83l2.13 2.398-2.13 2.397a.625.625 0 1 0 .934.83l2.5-2.812a.625.625 0 0 0 0-.83l-2.5-2.813Z" clip-rule="evenodd"/>
</svg>
