<svg xmlns="http://www.w3.org/2000/svg" width="20" height="20" fill="currentColor" viewBox="0 0 20 20">
  <path d="M16.875 11.25a.625.625 0 1 1 0 1.25h-6.25v4.116l1.434-1.432a.625.625 0 1 1 .883.883l-2.496 2.494a.62.62 0 0 1-.256.156c-.018.006-.036.012-.054.016a.739.739 0 0 1-.12.015L10 18.75c-.014 0-.027-.004-.04-.005-.021-.001-.042-.002-.063-.006a.625.625 0 0 1-.215-.079.632.632 0 0 1-.059-.039l-.018-.012-.028-.026-.03-.027-2.488-2.489-.043-.047a.624.624 0 0 1 .879-.88l.047.044 1.433 1.432V12.5h-6.25a.625.625 0 1 1 0-1.25h13.75Zm-6.836-9.995c.021.001.042.002.063.006a.617.617 0 0 1 .215.079.63.63 0 0 1 .059.039c.006.004.013.007.019.012l.036.033.015.014 2.495 2.495.043.047a.625.625 0 0 1-.879.88l-.047-.044-1.433-1.432V7.5h6.25a.625.625 0 1 1 0 1.25H3.125a.625.625 0 1 1 0-1.25h6.25V3.383L7.941 4.816a.625.625 0 1 1-.883-.883l2.5-2.5a.62.62 0 0 1 .252-.15c.018-.006.035-.012.053-.016a.502.502 0 0 1 .054-.008c.022-.003.044-.006.066-.007L10 1.25c.013 0 .026.004.04.005Z"/>
</svg>
