<svg xmlns="http://www.w3.org/2000/svg" width="20" height="20" fill="currentColor" viewBox="0 0 20 20">
  <path d="M11.109 17.5c-.094 0-.194 0-.287-.012-1.056-.094-1.806-.745-2.006-1.744-.4-1.968 1.118-3.817 2.056-4.742a8.523 8.523 0 0 1 2.524-1.706 1.986 1.986 0 0 0-.207-.578 2.488 2.488 0 0 0-.3-.39c-.405-.429-.85-.615-1.343-.565-.762.08-1.637.732-2.186 1.62-.394.639-.681 1.346-.988 2.097-.15.372-.3.739-.468 1.105-.456 1.011-1.05 2.327-2.312 2.88-.924.403-2.005.248-2.693-.385-.387-.36-.65-.863-.75-1.453-.424-2.364 1.244-4.14 2.581-5.566.356-.379.694-.739.968-1.08l.12-.15c.405-.496.755-.924.805-1.402a.812.812 0 0 0-.231-.67c-.25-.26-.662-.403-1.062-.385C4.21 4.45 3.38 5.485 2.98 6.1A.942.942 0 0 1 1.4 5.075c1.012-1.557 2.362-2.47 3.792-2.569.95-.068 1.906.286 2.543.95a2.65 2.65 0 0 1 .75 2.16c-.113 1.023-.694 1.743-1.212 2.376l-.113.143c-.318.397-.693.794-1.055 1.185-1.163 1.242-2.368 2.526-2.112 3.972.031.186.1.335.187.416.138.124.419.143.656.043.6-.26 1.006-1.166 1.337-1.886.175-.391.319-.739.463-1.086.318-.782.65-1.595 1.124-2.365.862-1.402 2.237-2.364 3.593-2.507 1.093-.118 2.086.28 2.899 1.142.193.205.368.434.524.683.17.266.3.595.394.974.175-.037.344-.068.519-.1a9.549 9.549 0 0 1 2.193-.092.929.929 0 0 1 .868.993.926.926 0 0 1-1 .862 8.372 8.372 0 0 0-1.768.075 6.653 6.653 0 0 0-.612.124c0 1.738-.45 3.723-1.268 5.04-.763 1.228-1.818 1.886-3 1.886l.007.006Zm2.355-6.156c-.468.273-.9.601-1.274.974-.544.534-1.774 1.899-1.537 3.053.025.112.05.23.337.255.213.018.856.074 1.525-1 .55-.887.856-2.14.956-3.289l-.007.007Z"/>
</svg>
