<svg xmlns="http://www.w3.org/2000/svg" width="20" height="20" fill="currentColor" viewBox="0 0 20 20">
  <path d="M11.156 17.5c-.094 0-.181 0-.275-.012-.931-.088-1.593-.663-1.775-1.544-.381-1.9 1.113-3.725 2.038-4.644a8.51 8.51 0 0 1 2.768-1.825c-.068-.425-.175-.769-.312-1a3.543 3.543 0 0 0-.356-.469c-.494-.531-1.069-.768-1.688-.7-.906.094-1.906.825-2.537 1.863-.425.694-.731 1.444-1.05 2.243-.156.382-.313.77-.481 1.144-.45 1-1.038 2.313-2.225 2.838-.838.368-1.813.231-2.42-.338-.35-.325-.58-.781-.674-1.325-.406-2.306 1.187-4.018 2.594-5.531.375-.4.725-.781 1.025-1.15l.125-.156c.437-.538.85-1.044.912-1.65a1.196 1.196 0 0 0-.337-.981c-.338-.35-.863-.544-1.382-.507-1.312.094-2.262 1.269-2.712 1.963a.626.626 0 0 1-.863.187.626.626 0 0 1-.187-.862c.581-.894 1.825-2.406 3.681-2.538.888-.062 1.775.269 2.369.888.519.537.762 1.244.681 1.981-.106.969-.675 1.675-1.181 2.3l-.125.15c-.325.406-.694.8-1.088 1.219C4.413 10.406 3.1 11.812 3.4 13.5c.05.269.156.494.3.631.244.225.688.269 1.063.107.743-.332 1.2-1.344 1.562-2.157.188-.412.338-.781.488-1.15.325-.806.668-1.643 1.143-2.418.838-1.382 2.169-2.32 3.475-2.457 1.019-.106 1.957.269 2.725 1.082.181.193.35.412.506.662.207.331.357.763.45 1.256a9.88 9.88 0 0 1 .85-.181 9.903 9.903 0 0 1 2.2-.1.625.625 0 0 1 .582.669c-.025.344-.325.618-.669.581a8.509 8.509 0 0 0-1.919.081c-.312.05-.618.119-.918.207.05 1.8-.413 3.956-1.275 5.362-.732 1.188-1.7 1.813-2.813 1.813l.006.012Zm2.838-6.7a7.084 7.084 0 0 0-1.963 1.381c-.6.6-1.969 2.138-1.694 3.513.044.212.157.5.663.55.744.075 1.381-.338 1.912-1.207.732-1.18 1.057-2.843 1.088-4.23l-.006-.007Z"/>
</svg>
