<svg xmlns="http://www.w3.org/2000/svg" width="20" height="20" fill="currentColor" viewBox="0 0 20 20">
  <path fill-rule="evenodd" d="M2.5 10c0-4.144 3.356-7.5 7.5-7.5 1.659 0 3.096.416 4.286 1.25h-1.161a.625.625 0 1 0 0 1.25h2.5c.345 0 .625-.28.625-.625v-2.5a.625.625 0 1 0-1.25 0v.849c-1.42-.994-3.114-1.474-5-1.474a8.748 8.748 0 0 0-7.577 13.125.625.625 0 0 0 1.082-.625A7.46 7.46 0 0 1 2.5 10Zm1.25 5.625c0-.345.28-.625.625-.625h2.5a.625.625 0 1 1 0 1.25H5.714c1.19.834 2.627 1.25 4.286 1.25a7.498 7.498 0 0 0 6.495-11.25.625.625 0 0 1 1.082-.625A8.748 8.748 0 0 1 10 18.75c-1.886 0-3.58-.48-5-1.474v.849a.625.625 0 1 1-1.25 0v-2.5Zm3.125-7.5c0-.69.56-1.25 1.25-1.25h3.75c.69 0 1.25.56 1.25 1.25v3.75c0 .69-.56 1.25-1.25 1.25h-3.75c-.69 0-1.25-.56-1.25-1.25v-3.75Zm1.25 0h3.75v3.75h-3.75v-3.75Z" clip-rule="evenodd"/>
</svg>
