<svg xmlns="http://www.w3.org/2000/svg" width="20" height="20" fill="currentColor" viewBox="0 0 20 20">
  <path d="M10 12.5c.197 0 .382.093.5.25L12.187 15h3.438a.625.625 0 1 1 0 1.25h-3.75a.625.625 0 0 1-.5-.25L10 14.166 8.625 16a.625.625 0 0 1-.5.25h-3.75a.625.625 0 1 1 0-1.25h3.438L9.5 12.75l.047-.056A.626.626 0 0 1 10 12.5Zm0-5a5.002 5.002 0 0 1 4.947 5.715.625.625 0 0 1-1.237-.18A3.752 3.752 0 0 0 10 8.75a3.752 3.752 0 0 0-3.71 4.288.625.625 0 1 1-1.237.174A5.002 5.002 0 0 1 10 7.5Zm-6.875 4.375a.625.625 0 1 1 0 1.25h-1.25a.625.625 0 1 1 0-1.25h1.25Zm15 0a.625.625 0 1 1 0 1.25h-1.25a.625.625 0 1 1 0-1.25h1.25ZM3.934 6.434a.625.625 0 0 1 .883 0l.625.625a.625.625 0 0 1-.883.883l-.625-.625a.625.625 0 0 1 0-.883Zm11.25 0a.625.625 0 1 1 .883.883l-.625.625a.625.625 0 0 1-.883-.883l.625-.625ZM10 3.75c.345 0 .625.28.625.625v1.25a.625.625 0 1 1-1.25 0v-1.25c0-.345.28-.625.625-.625Z"/>
</svg>
