<svg xmlns="http://www.w3.org/2000/svg" width="20" height="20" fill="currentColor" viewBox="0 0 20 20">
  <path fill-rule="evenodd" d="M10 2.5c-2.685 0-5 2.515-5 5.804v.446h1.25v5c0 1.52.96 2.5 1.876 2.5h.624v-.097c0-.057-.002-.13 0-.188.003-.087.01-.222.056-.362a.85.85 0 0 1 .345-.456.973.973 0 0 1 .537-.147h3.124c.16 0 .356.03.537.147a.849.849 0 0 1 .345.456c.045.14.053.275.056.362.002.057.001.13 0 .188v1.66a.93.93 0 0 1-.167.55.883.883 0 0 1-.448.32 1.396 1.396 0 0 1-.363.063c-.084.004-.175.004-.248.004H9.976c-.073 0-.164 0-.248-.004a1.397 1.397 0 0 1-.363-.062.882.882 0 0 1-.448-.321.93.93 0 0 1-.167-.55V17.5h-.624c-1.65 0-2.842-1.442-3.082-3.125H3.75c-1.466 0-2.5-1.352-2.5-2.813 0-1.46 1.034-2.812 2.5-2.812v-.446C3.75 4.487 6.473 1.25 10 1.25s6.25 3.237 6.25 7.054v.446c1.466 0 2.5 1.352 2.5 2.813 0 1.46-1.034 2.812-2.5 2.812h-2.5V8.75H15v-.446C15 5.015 12.685 2.5 10 2.5ZM3.75 10c-.603 0-1.25.605-1.25 1.563 0 .957.647 1.562 1.25 1.562H5V10H3.75ZM10 16.25h2.5v1.25H10v-1.25Zm6.25-3.125H15V10h1.25c.603 0 1.25.605 1.25 1.563 0 .957-.647 1.562-1.25 1.562Z" clip-rule="evenodd"/>
</svg>
