<svg xmlns="http://www.w3.org/2000/svg" width="20" height="20" fill="currentColor" viewBox="0 0 20 20">
  <path fill-rule="evenodd" d="M9.685 16.25h.002-.002Zm.315 0h2.5v1.25H10v-1.25Zm2.815 0h-.002.002ZM9.15 15.147A.973.973 0 0 1 9.688 15h3.125c.159 0 .355.03.536.147a.85.85 0 0 1 .345.456c.045.14.053.275.056.362.002.057.001.13 0 .188v1.66a.93.93 0 0 1-.167.55.882.882 0 0 1-.448.32 1.396 1.396 0 0 1-.363.063c-.084.004-.174.004-.248.004H9.976c-.073 0-.164 0-.248-.004a1.397 1.397 0 0 1-.363-.062.882.882 0 0 1-.448-.321.93.93 0 0 1-.167-.55v-1.661c0-.057-.002-.13 0-.188.003-.087.01-.222.056-.362a.85.85 0 0 1 .345-.456ZM3.75 10c-.603 0-1.25.605-1.25 1.563 0 .957.647 1.562 1.25 1.562H5V10H3.75Zm-2.5 1.563c0-1.461 1.034-2.813 2.5-2.813h2.5v5.625h-2.5c-1.466 0-2.5-1.352-2.5-2.813Zm12.5-2.813h2.5c1.466 0 2.5 1.352 2.5 2.813 0 1.46-1.034 2.812-2.5 2.812h-2.5V8.75ZM15 10v3.125h1.25c.603 0 1.25-.605 1.25-1.563 0-.957-.647-1.562-1.25-1.562H15Z" clip-rule="evenodd"/>
  <path fill-rule="evenodd" d="M10 2.5c-2.685 0-5 2.515-5 5.804v1.071H3.75V8.304C3.75 4.487 6.473 1.25 10 1.25s6.25 3.237 6.25 7.054v1.071H15V8.304C15 5.015 12.685 2.5 10 2.5Zm-1.874 15C6.274 17.5 5 15.685 5 13.75h1.25c0 1.52.96 2.5 1.876 2.5h1.249v1.25h-1.25Z" clip-rule="evenodd"/>
</svg>
