<svg xmlns="http://www.w3.org/2000/svg" width="20" height="20" fill="currentColor" viewBox="0 0 20 20">
  <path d="M10 15a1.875 1.875 0 1 1 0 3.75A1.875 1.875 0 0 1 10 15Zm0 1.25a.625.625 0 1 0 0 1.25.625.625 0 0 0 0-1.25Zm-6.25-4.375a1.875 1.875 0 1 1 0 3.75 1.875 1.875 0 0 1 0-3.75Zm12.5 0a1.875 1.875 0 1 1 0 3.75 1.875 1.875 0 0 1 0-3.75Zm-4.373-6.256c.42 0 .805.21 1.039.544l.045.068 1.866 3.119.001.002.042.075c.194.384.18.845-.042 1.219v.002l-1.862 3.117v-.001c-.23.385-.642.617-1.085.617H8.119a1.27 1.27 0 0 1-1.083-.612l-.003-.004-1.861-3.117v-.002a1.268 1.268 0 0 1 0-1.294V9.35L7.03 6.236l.046-.071a1.262 1.262 0 0 1 1.04-.546h3.761ZM3.75 13.125a.625.625 0 1 0 0 1.25.625.625 0 0 0 0-1.25Zm12.5 0a.625.625 0 1 0 0 1.25.625.625 0 0 0 0-1.25ZM8.114 6.883 6.256 9.997V10l1.86 3.114a.02.02 0 0 0 .005.006h3.76v-.002L13.745 10v-.003l-1.863-3.11-.005-.005h-3.76l-.002.002ZM3.75 4.375a1.875 1.875 0 1 1 0 3.75 1.875 1.875 0 0 1 0-3.75Zm12.5 0a1.875 1.875 0 1 1 0 3.75 1.875 1.875 0 0 1 0-3.75Zm-12.5 1.25a.625.625 0 1 0 0 1.25.625.625 0 0 0 0-1.25Zm12.5 0a.625.625 0 1 0 0 1.25.625.625 0 0 0 0-1.25ZM10 1.25A1.875 1.875 0 1 1 10 5a1.875 1.875 0 0 1 0-3.75Zm0 1.25a.625.625 0 1 0 0 1.25.625.625 0 0 0 0-1.25Z"/>
</svg>
