<svg xmlns="http://www.w3.org/2000/svg" width="20" height="20" fill="currentColor" viewBox="0 0 20 20">
  <path fill-rule="evenodd" d="M1.25 3.75c0-.69.56-1.25 1.25-1.25h15c.69 0 1.25.56 1.25 1.25v12.5c0 .69-.56 1.25-1.25 1.25h-15c-.69 0-1.25-.56-1.25-1.25V3.75Zm16.25 0H7.143v2.5H17.5v-2.5Zm0 3.75H7.143v1.875H17.5V7.5Zm-11.607 0v1.875H2.5V7.5h3.393Zm0 3.125H2.5V12.5h3.393v-1.875Zm0 3.125H2.5v2.5h3.393v-2.5Zm1.25 0H17.5v2.5H7.143v-2.5ZM17.5 12.5H7.143v-1.875H17.5V12.5ZM5.893 6.25v-2.5H2.5v2.5h3.393Z" clip-rule="evenodd"/>
</svg>
