<svg xmlns="http://www.w3.org/2000/svg" width="20" height="20" fill="currentColor" viewBox="0 0 20 20">
  <path fill-rule="evenodd" d="M6.438 16.246c-.194 0-.394-.056-.563-.156l-1.781-1.075a1.135 1.135 0 0 1-.394-1.512l.575-1.044a6.248 6.248 0 0 1-.831-1.512h-1.1c-.606 0-1.094-.5-1.094-1.118V7.673c0-.618.494-1.118 1.094-1.118h1.1a6 6 0 0 1 .831-1.512L3.7 3.999a1.138 1.138 0 0 1 .394-1.506L5.88 1.406c.256-.156.55-.193.838-.118.287.075.525.268.675.53l.556 1.013a5.72 5.72 0 0 1 1.6 0l.556-1.012a1.1 1.1 0 0 1 .675-.538 1.09 1.09 0 0 1 .838.119L13.4 2.475c.506.306.688.98.394 1.512l-.575 1.043c.344.456.625.969.831 1.512h1.1c1.044 0 1.094.794 1.094.95a.627.627 0 0 1-1.175.3H13.93c-.462 0-.875-.294-1.025-.731a5.033 5.033 0 0 0-.731-1.331 1.152 1.152 0 0 1-.094-1.237l.556-1.012-1.524-.925-.532.962a1.079 1.079 0 0 1-1.131.556 4.439 4.439 0 0 0-1.438 0c-.45.075-.9-.15-1.125-.556l-.53-.962-1.526.925.556 1.012a1.13 1.13 0 0 1-.087 1.23c-.313.4-.563.85-.737 1.344a1.097 1.097 0 0 1-1.02.725h-1.06v1.9h1.063c.462 0 .875.293 1.025.73.175.475.418.925.731 1.331.269.344.306.844.094 1.238l-.556 1.012 1.524.924.532-.962a.625.625 0 0 1 1.093.606l-.606 1.106a1.1 1.1 0 0 1-.95.575l.006-.006Zm3.685-1.551 4.69-4.687 2.239.438.437 2.238-4.69 4.689-2.676-2.679Zm3.86-5.625a1.118 1.118 0 0 1 1.038-.294l2.36.46a1.155 1.155 0 0 1 .875.852l.003.016.003.013.46 2.359c.082.365-.016.759-.294 1.037l-4.964 4.962c-.395.395-.995.327-1.341-.01l-.005-.006-3.082-3.084c-.351-.351-.403-.949-.021-1.34l.005-.006 4.964-4.959Zm1.33 2.177a.937.937 0 1 0 0 1.875.937.937 0 0 0 0-1.875Zm-7.113.725c.181.031.369.044.55.044l.006.006a3.24 3.24 0 0 0 2.306-.962 3.234 3.234 0 0 0 .913-2.856c-.219-1.35-1.319-2.449-2.675-2.674a3.248 3.248 0 0 0-2.863.912 3.234 3.234 0 0 0-.912 2.856c.219 1.35 1.319 2.45 2.675 2.674Zm-.881-4.649a2.005 2.005 0 0 1 1.775-.562 2.02 2.02 0 1 1-.694 3.98 2.02 2.02 0 0 1-1.081-3.418Z" clip-rule="evenodd"/>
</svg>
