<svg xmlns="http://www.w3.org/2000/svg" width="20" height="20" fill="currentColor" viewBox="0 0 20 20">
  <path fill-rule="evenodd" d="M5 1.25a3.125 3.125 0 0 0-3.125 3.125v10c0 1.726 1.4 3.125 3.125 3.125h1.389a.625.625 0 1 0 0-1.25H5a1.875 1.875 0 0 1-1.875-1.875V12.5H7.5a.625.625 0 1 0 0-1.25H3.125V7.5h8.75a.625.625 0 1 0 1.25 0V4.375c0-1.726-1.4-3.125-3.125-3.125H5Zm6.875 5V4.375c0-1.036-.84-1.875-1.875-1.875H5c-1.036 0-1.875.84-1.875 1.875V6.25h8.75ZM5 4.375a.625.625 0 1 0 0 1.25.625.625 0 0 0 0-1.25Zm-.625 5a.625.625 0 1 1 1.25 0 .625.625 0 0 1-1.25 0ZM5 13.75A.625.625 0 1 0 5 15a.625.625 0 0 0 0-1.25Zm8.563-3.74-4.69 4.688 2.676 2.68 4.69-4.691-.437-2.239-2.239-.437Zm.208-1.232a1.118 1.118 0 0 0-1.037.294l-4.963 4.96-.006.006c-.382.392-.33.99.02 1.34v.001h.001l3.082 3.085.005.005c.346.338.946.406 1.341.01l4.964-4.963c.278-.278.376-.672.294-1.037l-.46-2.36a1.156 1.156 0 0 0-.881-.881l-2.36-.46Zm.291 2.472a.937.937 0 1 0 0 1.875.937.937 0 0 0 0-1.875Z" clip-rule="evenodd"/>
</svg>
