<svg xmlns="http://www.w3.org/2000/svg" width="20" height="20" fill="currentColor" viewBox="0 0 20 20">
  <path fill-rule="evenodd" d="M11.654 2.532a.296.296 0 0 1 .282-.067.615.615 0 0 0 .024.005l4.383.856c.12.034.217.13.25.25l.856 4.383a.492.492 0 0 0 .005.024.296.296 0 0 1-.066.283L8.193 17.46a.07.07 0 0 1-.01-.008l-5.721-5.727a.048.048 0 0 1-.004-.004l9.196-9.19Zm-.88-.88c.38-.38.923-.517 1.435-.401l4.39.857.03.007a1.608 1.608 0 0 1 1.182 1.205l.857 4.39a1.538 1.538 0 0 1-.4 1.435l-9.221 9.221c-.499.499-1.274.426-1.734-.024l-.006-.005-5.725-5.731c-.462-.463-.52-1.236-.034-1.733l.005-.006 9.221-9.215Zm1.674 4.575a1.244 1.244 0 1 1 2.489 0 1.244 1.244 0 0 1-2.489 0Zm1.245-2.489a2.488 2.488 0 1 0 0 4.977 2.488 2.488 0 0 0 0-4.977Z" clip-rule="evenodd"/>
</svg>
