<svg xmlns="http://www.w3.org/2000/svg" width="20" height="20" fill="currentColor" viewBox="0 0 20 20">
  <path fill-rule="evenodd" d="M11.985 2.47a.297.297 0 0 0-.283.068L2.464 11.77a.047.047 0 0 0 .004.005l5.748 5.753a.064.064 0 0 0 .009.008l9.237-9.238a.297.297 0 0 0 .067-.283.653.653 0 0 1-.005-.024l-.86-4.404a.366.366 0 0 0-.252-.251l-4.403-.86a.663.663 0 0 1-.024-.005Zm.274-1.219a1.545 1.545 0 0 0-1.44.403L1.554 10.91l-.006.006c-.487.5-.43 1.277.035 1.741l5.751 5.758.006.005c.462.452 1.24.525 1.742.024l9.263-9.263c.381-.381.52-.927.403-1.442l-.861-4.41a1.615 1.615 0 0 0-1.217-1.217l-4.412-.862Z" clip-rule="evenodd"/>
  <path fill-rule="evenodd" d="M13.75 5a1.25 1.25 0 1 0 0 2.5 1.25 1.25 0 0 0 0-2.5Zm-2.5 1.25a2.5 2.5 0 1 1 5 0 2.5 2.5 0 0 1-5 0Z" clip-rule="evenodd"/>
</svg>
