<svg xmlns="http://www.w3.org/2000/svg" width="20" height="20" fill="currentColor" viewBox="0 0 20 20">
  <path fill-rule="evenodd" d="M6.875 2.5h3.75V5h-3.75V2.5Zm-1.25 0c0-.69.56-1.25 1.25-1.25h3.75c.69 0 1.25.56 1.25 1.25v.625h1.875c1.036 0 1.875.84 1.875 1.875v.625a.625.625 0 1 1-1.25 0V5a.625.625 0 0 0-.625-.625h-1.875V5c0 .69-.56 1.25-1.25 1.25h-3.75c-.69 0-1.25-.56-1.25-1.25v-.625H3.75A.625.625 0 0 0 3.125 5v11.875c0 .345.28.625.625.625h1.875a.625.625 0 1 1 0 1.25H3.75a1.875 1.875 0 0 1-1.875-1.875V5c0-1.036.84-1.875 1.875-1.875h1.875V2.5Zm8.207 5.33a.625.625 0 0 1 .84-.259l2.188 1.145c.304.16.423.535.265.84l-.395.765c.198.26.366.539.503.83l.921.044c.334.016.596.29.596.624v2.396a.625.625 0 0 1-.605.625l-.809.027a4.53 4.53 0 0 1-.197.422l-.002.004a5.065 5.065 0 0 1-.247.407l.494.85a.625.625 0 0 1-.234.859l-2.243 1.26a.625.625 0 0 1-.866-.266l-.364-.733a4.43 4.43 0 0 1-.874.025l-.385.72a.625.625 0 0 1-.84.26L9.37 17.518a.625.625 0 0 1-.26-.85l.405-.751a4.592 4.592 0 0 1-.482-.79l-.812.026a.625.625 0 0 1-.645-.606L7.5 12.049a.625.625 0 0 1 .605-.644l.808-.026a4.18 4.18 0 0 1 .2-.426c.074-.135.153-.269.24-.398l-.427-.697a.625.625 0 0 1 .185-.846l2.104-1.407a.625.625 0 0 1 .89.21l.439.764c.296-.04.6-.05.903-.029l.385-.72Zm.81 1.136-.295.551a.625.625 0 0 1-.66.32 3.17 3.17 0 0 0-1.314.046.625.625 0 0 1-.692-.296l-.328-.57-1.047.7.334.544c.14.23.119.523-.054.729a3.378 3.378 0 0 0-.627 1.18.625.625 0 0 1-.578.444l-.612.02.037 1.25.614-.02a.625.625 0 0 1 .607.41c.155.423.388.81.697 1.14a.625.625 0 0 1 .093.724l-.306.567 1.097.575.295-.551a.625.625 0 0 1 .66-.321c.44.078.89.06 1.314-.045.284-.07.58.066.71.329l.281.566 1.117-.628-.383-.659a.625.625 0 0 1 .062-.715 3.376 3.376 0 0 0 .627-1.18.625.625 0 0 1 .578-.445l.631-.02v-1.196l-.72-.034a.625.625 0 0 1-.557-.409 3.347 3.347 0 0 0-.696-1.14.625.625 0 0 1-.1-.715l.302-.582-1.087-.569Zm-.58 4.16a.937.937 0 1 1-1.874 0 .937.937 0 0 1 1.874 0Zm1.25 0a2.188 2.188 0 1 1-4.375-.001 2.188 2.188 0 0 1 4.376 0Z" clip-rule="evenodd"/>
</svg>
