<svg xmlns="http://www.w3.org/2000/svg" width="20" height="20" fill="none" viewBox="0 0 20 20">
  <path fill="#3D3C3C" fill-rule="evenodd" d="M11.875 2.5h-3.75V5h3.75V2.5Zm-3.75-1.25c-.69 0-1.25.56-1.25 1.25v.625H5c-1.036 0-1.875.84-1.875 1.875v11.875c0 1.035.84 1.875 1.875 1.875h10c1.035 0 1.875-.84 1.875-1.875V5c0-1.036-.84-1.875-1.875-1.875h-1.875V2.5c0-.69-.56-1.25-1.25-1.25h-3.75ZM5 4.375h1.875V5c0 .69.56 1.25 1.25 1.25h3.75c.69 0 1.25-.56 1.25-1.25v-.625H15c.345 0 .625.28.625.625v11.875c0 .345-.28.625-.625.625H5a.625.625 0 0 1-.625-.625V5c0-.345.28-.625.625-.625Zm8.618 4.134a.625.625 0 1 0-.986-.768l-3.88 4.99-1.384-1.777a.625.625 0 0 0-.986.767l1.876 2.413a.625.625 0 0 0 .987 0l4.373-5.625Z" clip-rule="evenodd"/>
</svg>
