<svg xmlns="http://www.w3.org/2000/svg" width="20" height="20" fill="currentColor" viewBox="0 0 20 20">
  <path fill-rule="evenodd" d="M11.875 5.625a1.875 1.875 0 1 1 3.75 0 1.875 1.875 0 0 1-3.75 0ZM13.75 2.5a3.125 3.125 0 1 0 0 6.25 3.125 3.125 0 0 0 0-6.25ZM4.375 8.125a1.875 1.875 0 1 1 3.75 0 1.875 1.875 0 0 1-3.75 0ZM6.25 5a3.125 3.125 0 1 0 0 6.25 3.125 3.125 0 0 0 0-6.25ZM2.5 14.808l.012 1.442h7.476L10 14.809c.003-.556-.475-1.059-1.14-1.059H3.64c-.665 0-1.143.503-1.14 1.058Zm8.734 1.927.016-1.917v-.002c.008-1.308-1.093-2.316-2.39-2.316H3.64c-1.297 0-2.398 1.008-2.39 2.316v.002l.017 2.062c.003.343.282.62.625.62h8.733a.625.625 0 0 0 .61-.765Zm-.842-5.227a1.19 1.19 0 0 1 .749-.258h5.218c.665 0 1.144.503 1.141 1.058l-.012 1.442h-4.363a.625.625 0 1 0 0 1.25h5a.625.625 0 0 0 .61-.765l.015-1.917v-.002C18.758 11.008 17.657 10 16.36 10h-5.22a2.44 2.44 0 0 0-1.532.534.625.625 0 1 0 .784.974Z" clip-rule="evenodd"/>
</svg>
