<svg xmlns="http://www.w3.org/2000/svg" width="20" height="20" fill="currentColor" viewBox="0 0 20 20">
  <path d="M9.958 1.208a8.75 8.75 0 1 1-1.707 17.334.626.626 0 0 1 .243-1.227 7.5 7.5 0 1 0 0-14.714.626.626 0 0 1-.243-1.226 8.793 8.793 0 0 1 1.707-.167ZM2.854 13.953a.625.625 0 0 1 .867.172 7.548 7.548 0 0 0 2.07 2.07.626.626 0 0 1-.694 1.04 8.798 8.798 0 0 1-2.414-2.415.625.625 0 0 1 .171-.867Zm7.104-9.62c.345 0 .625.28.625.625v4.688l2.25 1.687a.625.625 0 0 1-.749 1l-2.5-1.875a.626.626 0 0 1-.251-.5v-5c0-.345.28-.625.625-.625ZM2.109 7.759c.339.067.56.397.493.735a7.539 7.539 0 0 0 0 2.929.626.626 0 0 1-1.227.242 8.794 8.794 0 0 1 0-3.414.626.626 0 0 1 .734-.492Zm2.988-5.076A.625.625 0 0 1 5.79 3.72a7.546 7.546 0 0 0-2.07 2.07.625.625 0 1 1-1.038-.694 8.797 8.797 0 0 1 2.414-2.414Z"/>
</svg>
