<svg xmlns="http://www.w3.org/2000/svg" width="20" height="20" fill="currentColor" viewBox="0 0 20 20">
  <path fill-rule="evenodd" d="M3.53 1.208c-1.317 0-2.322 1.12-2.322 2.422v12.693c0 1.31.99 2.469 2.323 2.469h12.938c1.332 0 2.323-1.152 2.323-2.469V3.63c0-1.302-1.005-2.422-2.323-2.422H3.531Zm14.012 3.769V3.63c0-.68-.512-1.172-1.073-1.172H3.531c-.56 0-1.073.491-1.073 1.172v1.347h15.084ZM2.458 6.227h15.084v10.096c0 .725-.526 1.219-1.073 1.219H3.531c-.546 0-1.073-.498-1.073-1.219V6.227ZM4.5 3.087h-.31c-.262 0-.472.193-.472.432v.385c0 .24.21.432.472.432h.31c.262 0 .472-.193.472-.432V3.52c0-.239-.21-.431-.473-.431Zm1.599.038h.309c.262 0 .472.193.472.432v.385c0 .239-.21.431-.472.431h-.31c-.262 0-.472-.192-.472-.431v-.385c0-.24.21-.432.473-.432Zm2.184 0h-.31c-.262 0-.472.193-.472.432v.385c0 .239.21.431.473.431h.309c.262 0 .472-.192.472-.431v-.385c0-.24-.21-.432-.472-.432ZM5 8.752V8.75h3.125l.001.001V15H5V8.751ZM5.002 7.5c-.692 0-1.252.56-1.252 1.252v6.246c0 .691.56 1.252 1.252 1.252h3.121c.692 0 1.252-.56 1.252-1.252V8.752c0-.691-.56-1.252-1.252-1.252H5.002Zm6.877 5.643v1.881l.002.002.001.001h3.144l.001-.003v-1.883l-.003-.002h-3.142l-.001.002-.002.002Zm-1.25.001c0-.693.562-1.255 1.255-1.255h3.139c.693 0 1.255.562 1.255 1.255v1.879c0 .693-.562 1.255-1.255 1.255h-3.139a1.255 1.255 0 0 1-1.255-1.255v-1.879Zm.625-5.653a.625.625 0 1 0 0 1.25h4.41a.625.625 0 1 0 0-1.25h-4.41Zm-.004 1.884a.625.625 0 0 0 0 1.25h4.41a.625.625 0 1 0 0-1.25h-4.41Z" clip-rule="evenodd"/>
</svg>
