<svg xmlns="http://www.w3.org/2000/svg" width="20" height="20" fill="currentColor" viewBox="0 0 20 20">
  <path fill-rule="evenodd" d="M1.208 4.977h17.584v11.346c0 1.317-.991 2.469-2.323 2.469H3.531c-1.333 0-2.323-1.16-2.323-2.469V4.977Zm1.25 1.25v10.096c0 .72.527 1.219 1.073 1.219h12.938c.547 0 1.073-.494 1.073-1.219V6.227H2.458Z" clip-rule="evenodd"/>
  <path fill-rule="evenodd" d="M1.208 3.63c0-1.302 1.005-2.422 2.323-2.422h12.938c1.318 0 2.323 1.12 2.323 2.422v2.597H1.208V3.63Zm2.323-1.172c-.56 0-1.073.491-1.073 1.172v1.347h15.084V3.63c0-.68-.512-1.172-1.073-1.172H3.531Z" clip-rule="evenodd"/>
  <path d="M4.5 3.087h-.31c-.262 0-.472.193-.472.432v.385c0 .24.21.432.472.432h.31c.262 0 .472-.193.472-.432V3.52c0-.239-.21-.432-.473-.432Zm1.907.038h-.31c-.262 0-.472.192-.472.432v.385c0 .239.21.431.473.431h.309c.262 0 .472-.192.472-.431v-.385c0-.24-.21-.432-.472-.432Zm1.875 0h-.31c-.262 0-.472.192-.472.432v.385c0 .239.21.431.473.431h.309c.262 0 .472-.192.472-.431v-.385c0-.24-.21-.432-.472-.432Z"/>
  <path fill-rule="evenodd" d="M5 8.751V15h3.125l.001-.001V8.75H5v.001Zm-1.25 0c0-.69.56-1.251 1.252-1.251h3.121c.692 0 1.252.56 1.252 1.252v6.246c0 .691-.56 1.252-1.252 1.252H5.002c-.692 0-1.252-.56-1.252-1.252V8.752Zm8.13 4.392v1.882l.002.001h3.142l.002-.001.001-.002v-1.882l-.001-.001-.002-.002h-3.142l-.001.002-.002.001Zm-1.25.001c0-.693.561-1.255 1.254-1.255h3.139c.693 0 1.255.562 1.255 1.255v1.879c0 .693-.562 1.255-1.255 1.255h-3.139a1.255 1.255 0 0 1-1.255-1.255v-1.879Zm0-5.028c0-.345.279-.625.624-.625h4.41a.625.625 0 0 1 0 1.25h-4.41a.625.625 0 0 1-.625-.625ZM10.624 10c0-.345.28-.625.625-.625h4.41a.625.625 0 1 1 0 1.25h-4.41a.625.625 0 0 1-.625-.625Z" clip-rule="evenodd"/>
</svg>
