<svg xmlns="http://www.w3.org/2000/svg" width="20" height="20" fill="currentColor" viewBox="0 0 20 20">
  <path fill-rule="evenodd" d="M15.376 10.596a1.985 1.985 0 0 1 2.794 0c.773.773.773 2.02 0 2.793l-4.778 4.775a.604.604 0 0 1-.287.162l-1.516.38a1.335 1.335 0 0 1-.311.038v.006c-.331 0-.65-.13-.886-.368a1.236 1.236 0 0 1-.331-1.197h-.006l.38-1.515a.597.597 0 0 1 .162-.287l4.779-4.787Zm1.915.885a.723.723 0 0 0-1.03 0l-4.659 4.657-.337 1.347v.006l1.372-.33 4.654-4.651a.734.734 0 0 0 0-1.029ZM14.166 1.25c1.157 0 2.049.97 2.049 2.11v6.037a.624.624 0 0 1-1.247 0V5.615H2.498v8.421c0 .565.408.931.801.932h5.475a.624.624 0 0 1 0 1.247H3.299c-1.184 0-2.049-1.032-2.049-2.179V3.36c0-1.14.891-2.11 2.049-2.11h10.867ZM3.299 2.497c-.42 0-.802.362-.802.863v1.008h12.47V3.36c0-.501-.382-.863-.801-.863H3.299Z" clip-rule="evenodd"/>
  <path fill-rule="evenodd" d="M6.954 6.28c.624 0 1.16.496 1.16 1.144v5.193c0 .649-.536 1.145-1.16 1.145h-2.67a1.152 1.152 0 0 1-1.159-1.145V7.424c0-.648.535-1.144 1.16-1.144h2.669Zm-2.582 6.235h2.494V7.5H4.372v5.015Z" clip-rule="evenodd"/>
  <path d="M13.138 10.02a.624.624 0 1 1 0 1.248h-2.494v1.247h.63a.624.624 0 0 1 0 1.247h-.732c-.608 0-1.145-.48-1.145-1.124v-1.493c0-.644.537-1.124 1.145-1.124h2.596Zm.579-1.887a.624.624 0 0 1 0 1.247H9.98a.624.624 0 0 1 0-1.247h3.737Zm.003-1.87a.624.624 0 0 1 0 1.247H9.983a.624.624 0 0 1 0-1.247h3.737Z"/>
</svg>
