<svg xmlns="http://www.w3.org/2000/svg" width="20" height="20" fill="currentColor" viewBox="0 0 20 20">
  <path fill-rule="evenodd" d="M12.272 7.748h4.24a.67.67 0 0 1 .102.008 2.248 2.248 0 0 1 2.123 2.494v.002l-.717 6.494v.002a2.239 2.239 0 0 1-2.23 2.002H7.332c-.412 0-.79-.147-1.085-.391a1.713 1.713 0 0 1-1.092.391H2.97c-.95 0-1.72-.77-1.72-1.72v-6.56c0-.95.77-1.72 1.72-1.72h2.185c.376 0 .724.12 1.007.326L7.68 5.277a1.53 1.53 0 0 0 .11-.57V2.96a1.71 1.71 0 0 1 1.878-1.7c.111.013.251.045.41.112.321.136.682.402 1.013.885.606.884 1.12 2.5 1.182 5.49Zm-6.647 2.795v6.486a.47.47 0 0 1-.47.471H2.97a.47.47 0 0 1-.47-.47v-6.56c0-.26.21-.47.47-.47h2.185c.26 0 .47.21.47.47v.073Zm1.25 6.497v-6.377l1.962-4.916c.135-.333.202-.691.202-1.04V2.96a.46.46 0 0 1 .456-.46h.017a.29.29 0 0 1 .077.023c.083.035.262.137.47.441.432.63.97 2.1.97 5.408a.625.625 0 0 0 .624.625h4.769a.628.628 0 0 0 .085.006.997.997 0 0 1 .987 1.11v.002l-.717 6.496v.003a.99.99 0 0 1-.987.885H7.332a.46.46 0 0 1-.457-.46ZM4.687 15a.625.625 0 1 0-1.25 0v1.25a.625.625 0 1 0 1.25 0V15Z" clip-rule="evenodd"/>
</svg>
