<svg xmlns="http://www.w3.org/2000/svg" width="20" height="20" fill="currentColor" viewBox="0 0 20 20">
  <path fill-rule="evenodd" d="M2.97 2.5a.47.47 0 0 0-.47.471v6.558c0 .26.21.471.47.471h2.185c.26 0 .47-.21.47-.471V2.971a.47.47 0 0 0-.47-.471H2.97Zm-1.72.471c0-.95.77-1.721 1.72-1.721h2.185c.95 0 1.72.77 1.72 1.721v6.558c0 .95-.77 1.721-1.72 1.721H2.97c-.95 0-1.72-.77-1.72-1.721V2.971Z" clip-rule="evenodd"/>
  <path fill-rule="evenodd" d="M7.332 2.5a.46.46 0 0 0-.457.46v6.374l1.961 4.916.001.002c.135.333.202.69.202 1.04v1.747a.46.46 0 0 0 .473.46.343.343 0 0 0 .077-.023c.083-.035.262-.137.47-.441.432-.63.97-2.101.97-5.41 0-.346.28-.625.624-.625h4.854a.998.998 0 0 0 .987-1.113l-.717-6.498v-.004a.99.99 0 0 0-.987-.885H7.332Zm9.18 9.75h.007-.006Zm.007 0a2.248 2.248 0 0 0 2.218-2.497l-.717-6.498v-.002a2.24 2.24 0 0 0-2.23-2.003H7.332a1.71 1.71 0 0 0-1.707 1.71v6.494c0 .08.015.158.045.232l2.007 5.031.002.005c.072.177.11.375.11.57v1.747a1.71 1.71 0 0 0 1.878 1.7c.111-.013.252-.045.41-.112.321-.136.682-.402 1.013-.886.606-.884 1.12-2.501 1.182-5.491h4.235M4.063 3.125c.345 0 .625.28.625.625V5a.625.625 0 1 1-1.25 0V3.75c0-.345.28-.625.624-.625Z" clip-rule="evenodd"/>
</svg>
