<svg xmlns="http://www.w3.org/2000/svg" width="20" height="20" fill="currentColor" viewBox="0 0 20 20">
  <path fill-rule="evenodd" d="M11.938 8.248h5.115l-.006.006c1.017 0 1.802.906 1.693 1.943l-.755 6.997a1.714 1.714 0 0 1-1.693 1.556H7.389c-.627 0-1.139-.525-1.139-1.168v-6.998l2.113-5.416c.11-.275.165-.575.165-.869V2.42c0-.643.511-1.168 1.138-1.168 0 0 2.272-.219 2.272 6.997ZM2.345 9.375H4.53c.605 0 1.095.526 1.095 1.174v7.027c0 .648-.49 1.174-1.095 1.174H2.345c-.605 0-1.095-.526-1.095-1.174v-7.027c0-.648.49-1.174 1.095-1.174Z" clip-rule="evenodd"/>
</svg>
