<svg xmlns="http://www.w3.org/2000/svg" width="20" height="20" fill="currentColor" viewBox="0 0 20 20">
  <path fill-rule="evenodd" d="M2.345 1.25H4.53c.605 0 1.095.526 1.095 1.174v7.027c0 .648-.49 1.174-1.095 1.174H2.345c-.605 0-1.095-.526-1.095-1.174V2.424c0-.648.49-1.174 1.095-1.174Zm9.593 10.5h5.109c1.017 0 1.802-.907 1.693-1.944l-.755-7c-.092-.887-.822-1.556-1.693-1.556H7.389c-.627 0-1.139.525-1.139 1.169v6.993l2.113 5.419c.11.275.165.575.165.868v1.882c0 .643.511 1.168 1.138 1.168 0 0 2.272.219 2.272-7Z" clip-rule="evenodd"/>
</svg>
