<svg xmlns="http://www.w3.org/2000/svg" width="20" height="20" fill="currentColor" viewBox="0 0 20 20">
  <path fill-rule="evenodd" d="M1.25 5c0-.345.28-.625.625-.625h16.25a.625.625 0 1 1 0 1.25H1.875A.625.625 0 0 1 1.25 5Zm0 11.25c0-.345.28-.625.625-.625h16.25a.625.625 0 1 1 0 1.25H1.875a.625.625 0 0 1-.625-.625Z" clip-rule="evenodd"/>
  <path fill-rule="evenodd" d="M1.875 4.375c.345 0 .625.28.625.625v3.75a.625.625 0 1 1-1.25 0V5c0-.345.28-.625.625-.625Zm0 7.5c.345 0 .625.28.625.625v3.75a.625.625 0 1 1-1.25 0V12.5c0-.345.28-.625.625-.625Zm16.25-7.5c.345 0 .625.28.625.625v3.125a.625.625 0 1 1-1.25 0V5c0-.345.28-.625.625-.625Zm.001 6.875c.345 0 .625.28.624.626l-.007 4.167a.625.625 0 0 1-1.25-.002l.007-4.167c0-.345.28-.625.626-.624Z" clip-rule="evenodd"/>
  <path fill-rule="evenodd" d="M1.25 8.75c0-.345.28-.625.625-.625 1.442 0 2.5 1.271 2.5 2.5s-1.058 2.5-2.5 2.5a.625.625 0 1 1 0-1.25c.688 0 1.25-.647 1.25-1.25s-.562-1.25-1.25-1.25a.625.625 0 0 1-.625-.625Zm16.875 0a1.25 1.25 0 0 0 0 2.5.625.625 0 1 1 0 1.25 2.5 2.5 0 0 1 0-5 .625.625 0 1 1 0 1.25ZM6.25 6.25c.345 0 .625.28.625.625v1.25a.625.625 0 1 1-1.25 0v-1.25c0-.345.28-.625.625-.625Zm0 3.125c.345 0 .625.28.625.625v1.25a.625.625 0 1 1-1.25 0V10c0-.345.28-.625.625-.625Zm0 3.125c.345 0 .625.28.625.625v1.25a.625.625 0 1 1-1.25 0v-1.25c0-.345.28-.625.625-.625Z" clip-rule="evenodd"/>
</svg>
