<svg xmlns="http://www.w3.org/2000/svg" width="20" height="20" fill="currentColor" viewBox="0 0 20 20">
  <path d="M6.875 6.875a.625.625 0 1 0-1.25 0v1.25a.625.625 0 1 0 1.25 0v-1.25Zm-.625 2.5c.345 0 .625.28.625.625v1.25a.625.625 0 1 1-1.25 0V10c0-.345.28-.625.625-.625Zm.625 3.75a.625.625 0 1 0-1.25 0v1.25a.625.625 0 1 0 1.25 0v-1.25Z"/>
  <path fill-rule="evenodd" d="M1.25 5c0-.345.28-.625.625-.625h16.25c.345 0 .625.28.625.625v3.125c0 .345-.28.625-.625.625a1.25 1.25 0 0 0 0 2.5h.001a.625.625 0 0 1 .624.626l-.007 4.167a.631.631 0 0 1-.006.082.625.625 0 0 1-.612.75H1.875a.625.625 0 0 1-.625-.625V12.5c0-.345.28-.625.625-.625.688 0 1.25-.647 1.25-1.25s-.562-1.25-1.25-1.25a.625.625 0 0 1-.625-.625V5Zm16.25.625v1.954a2.502 2.502 0 0 0 0 4.842l-.006 3.204H2.5v-2.583c1.112-.3 1.875-1.374 1.875-2.417 0-1.043-.763-2.117-1.875-2.417V5.625h15Z" clip-rule="evenodd"/>
</svg>
