<svg xmlns="http://www.w3.org/2000/svg" width="20" height="20" fill="currentColor" viewBox="0 0 20 20">
  <path d="M14.354 9.958a4.375 4.375 0 1 1 0 8.75 4.375 4.375 0 0 1 0-8.75Zm0 1.25a3.125 3.125 0 1 0 0 6.25 3.125 3.125 0 0 0 0-6.25Zm.884 1.357a.625.625 0 0 1 .884.884l-.884.884.884.884a.626.626 0 0 1-.884.885l-.883-.885-.884.885a.626.626 0 0 1-.885-.885l.884-.885-.883-.883a.625.625 0 1 1 .884-.884l.883.883.884-.883ZM8.741 1.208c3.933 0 7.162 3.016 7.486 6.858a.626.626 0 1 1-1.246.105c-.27-3.198-2.96-5.713-6.24-5.713-3.46 0-6.261 2.797-6.262 6.243 0 3.255 2.537 5.97 5.735 6.26a.625.625 0 0 1-.113 1.245c-3.832-.348-6.872-3.593-6.872-7.505 0-4.14 3.365-7.493 7.512-7.493ZM8.73 4.333c.345 0 .625.28.625.625v3.125l1.126 1.501a.625.625 0 0 1-1 .749L8.23 8.667a.628.628 0 0 1-.126-.376V4.958c0-.345.28-.625.625-.625Z"/>
</svg>
