<svg xmlns="http://www.w3.org/2000/svg" width="20" height="20" fill="currentColor" viewBox="0 0 20 20">
  <path fill-rule="evenodd" d="M8.75 6.875c.345 0 .625.28.625.625v3.75a.625.625 0 1 1-1.25 0V7.5c0-.345.28-.625.625-.625Z" clip-rule="evenodd"/>
  <path fill-rule="evenodd" d="M11.145 12.847a.625.625 0 0 1-.867.173l-1.875-1.25a.625.625 0 1 1 .694-1.04l1.875 1.25c.287.191.364.58.173.867Z" clip-rule="evenodd"/>
  <path fill-rule="evenodd" d="M9.374 3.73a.625.625 0 0 1-.597.651 6.563 6.563 0 1 0 6.842 6.842.625.625 0 0 1 1.249.054 7.813 7.813 0 1 1-8.145-8.145.625.625 0 0 1 .651.598ZM15 2.5c.345 0 .625.28.625.625v3.75a.625.625 0 1 1-1.25 0v-3.75c0-.345.28-.625.625-.625Z" clip-rule="evenodd"/>
  <path fill-rule="evenodd" d="M17.5 5c0 .345-.28.625-.625.625h-3.75a.625.625 0 1 1 0-1.25h3.75c.345 0 .625.28.625.625Z" clip-rule="evenodd"/>
  <path fill-rule="evenodd" d="M10.625 5a4.375 4.375 0 1 1 8.75 0 4.375 4.375 0 0 1-8.75 0ZM15 1.875a3.125 3.125 0 1 0 0 6.25 3.125 3.125 0 0 0 0-6.25Z" clip-rule="evenodd"/>
</svg>
