<svg xmlns="http://www.w3.org/2000/svg" width="20" height="20" fill="currentColor" viewBox="0 0 20 20">
  <path fill-rule="evenodd" d="M4.25 1.25c-.264 0-.5.166-.588.414L2.537 4.797a.625.625 0 0 0 .124.63l.777.862V10H2.5a.625.625 0 1 0 0 1.25h.625v5.501c0 .49.171 1 .527 1.392a1.8 1.8 0 0 0 2.696 0 2.06 2.06 0 0 0 .527-1.392V11.25H7.5a.625.625 0 1 0 0-1.25h-.937V6.29l.776-.863a.625.625 0 0 0 .124-.63L6.338 1.664a.625.625 0 0 0-.588-.414h-1.5Zm.125 15.501V11.25h1.25v5.501a.812.812 0 0 1-.202.551.551.551 0 0 1-.846 0 .827.827 0 0 1-.202-.55ZM4.688 10h.625V6.05c0-.155.057-.304.16-.42l.687-.762L5.31 2.5h-.62l-.85 2.368.687.763c.103.115.16.264.16.418V10Zm5.53-8.552a.125.125 0 0 0-.004.003l.007-.005-.002.002Zm1.115-.082a1.086 1.086 0 0 0-1.114.082c-1.26.88-2.094 2.319-2.094 3.965 0 1.83 1.036 3.409 2.552 4.236v6.711c0 1.34 1.111 2.39 2.448 2.39s2.448-1.05 2.448-2.39V9.65c1.516-.829 2.552-2.412 2.552-4.237a.627.627 0 0 0-.014-.131c-.043-1.586-.866-2.977-2.092-3.834a1.086 1.086 0 0 0-1.114-.082 1.067 1.067 0 0 0-.588.953v3.094a.071.071 0 0 1-.025.051.113.113 0 0 1-.08.032h-2.187a.113.113 0 0 1-.079-.032.072.072 0 0 1-.025-.051V2.319c0-.41-.234-.774-.588-.953Zm5.53 4.047a.59.59 0 0 0 .01.112c-.045 1.395-.916 2.605-2.178 3.165a.625.625 0 0 0-.372.571v7.1c0 .611-.514 1.139-1.198 1.139-.684 0-1.198-.528-1.198-1.14V9.261a.625.625 0 0 0-.372-.571c-1.296-.575-2.18-1.83-2.18-3.277a3.56 3.56 0 0 1 1.296-2.738v2.738c0 .75.626 1.333 1.354 1.333h2.188c.728 0 1.354-.582 1.354-1.333V2.675a3.568 3.568 0 0 1 1.296 2.738Z" clip-rule="evenodd"/>
</svg>
