<svg xmlns="http://www.w3.org/2000/svg" width="20" height="20" fill="currentColor" viewBox="0 0 20 20">
  <path fill-rule="evenodd" d="M5.96 1.326A5.629 5.629 0 0 1 10.872 2.9a.631.631 0 0 1 .05.055 5.612 5.612 0 0 1 1.37 5.51l5.66 5.659h.001a2.706 2.706 0 0 1 0 3.837 2.717 2.717 0 0 1-3.833-.002l-5.662-5.66a5.626 5.626 0 0 1-7.132-6.33c.066-.424.371-.779.782-.907.4-.125.846-.026 1.154.282l2.575 2.58a.219.219 0 0 0 .307.002l1.774-1.773a.219.219 0 0 0 .002-.307L5.337 3.262a1.145 1.145 0 0 1-.282-1.154 1.15 1.15 0 0 1 .895-.78l.01-.002Zm.4 1.2 2.44 2.44c.57.57.564 1.488.004 2.059l-.004.004-1.777 1.776c-.57.57-1.489.564-2.06.004l-.004-.005-2.434-2.439a4.385 4.385 0 0 0 5.885 4.638.622.622 0 0 1 .657.144l5.932 5.932c.57.569 1.5.571 2.077-.002a1.462 1.462 0 0 0 0-2.072l-.002-.001-5.932-5.932a.622.622 0 0 1-.143-.656 4.373 4.373 0 0 0-1.006-4.63.624.624 0 0 1-.046-.052A4.381 4.381 0 0 0 6.36 2.525Z" clip-rule="evenodd"/>
</svg>
