<svg xmlns="http://www.w3.org/2000/svg" width="20" height="20" fill="currentColor" viewBox="0 0 20 20">
  <path d="M10 1.875a1.875 1.875 0 0 1 1.851 2.16l3.772 2.695a1.875 1.875 0 1 1 1.417 3.26l-1.364 4.91a1.875 1.875 0 1 1-3.067 1.975H7.391a1.874 1.874 0 1 1-2.835-2.165L2.984 9.992A1.873 1.873 0 1 1 4.376 6.73l3.772-2.695A1.875 1.875 0 0 1 10 1.875Zm-4.375 13.75a.625.625 0 1 0 0 1.25.625.625 0 0 0 0-1.25Zm8.75 0a.625.625 0 1 0 0 1.25.625.625 0 0 0 0-1.25Zm-7.32-.586c.146.172.26.37.337.586h5.216c.023-.063.048-.124.077-.184a.614.614 0 0 1-.072-.083l-2.06-2.942a1.872 1.872 0 0 1-1.13-.008L7.056 15.04Zm4.813-4.284c-.023.337-.134.65-.312.914l2.02 2.887a1.864 1.864 0 0 1 .945-.174l1.306-4.702a1.915 1.915 0 0 1-.286-.237l-3.673 1.312Zm-7.41-1.312c-.081.082-.17.155-.266.221l1.572 4.718c.06.004.12.011.18.021l2.484-2.758a1.861 1.861 0 0 1-.297-.89L4.458 9.443ZM10 10a.625.625 0 1 0 0 1.25.625.625 0 0 0 0-1.25ZM4.976 7.839c.014.093.024.189.024.286 0 .061-.004.122-.01.182l3.476 1.24c.222-.315.539-.558.909-.689V5.516a1.87 1.87 0 0 1-.627-.372L4.976 7.839Zm6.275-2.695a1.87 1.87 0 0 1-.626.372v3.342c.37.131.686.374.908.69l3.476-1.241a1.88 1.88 0 0 1 .014-.468l-3.772-2.695ZM3.125 7.5a.625.625 0 1 0 0 1.25.625.625 0 0 0 0-1.25Zm13.75 0a.625.625 0 1 0 0 1.25.625.625 0 0 0 0-1.25ZM10 3.125a.625.625 0 1 0 0 1.25.625.625 0 0 0 0-1.25Z"/>
</svg>
