<svg xmlns="http://www.w3.org/2000/svg" width="20" height="20" fill="currentColor" viewBox="0 0 20 20">
  <path d="M12.806 9.706c-.632 0-1.153.444-1.153.994v-.356c0-.55-.514-.994-1.146-.994-.632 0-1.146.444-1.146.994V5.369c0-.55-.514-.994-1.153-.994s-1.145.444-1.145.994v7.694l-1.035-2.22c-.243-.518-.882-.806-1.48-.637-.624.175-.944.757-.722 1.282l1 2.443s.153.469.542 1.157c.896 1.575 1.611 2.337 2.167 2.837.61.556 1.514.825 2.423.825h2.452c1.333 0 2.555-.656 3.146-1.694.32-.562.701-1.144.701-3.081l-2.299-2.925v-.356c0-.55-.514-.994-1.145-.994l-.007.006Z"/>
  <path d="M16.25 11.05c0-.55-.514-.994-1.153-.994s-1.146.444-1.146.994l2.299 2.925V11.05Z"/>
  <path fill-rule="evenodd" d="M8.438 1.25c.345 0 .625.28.625.625v1.25a.625.625 0 1 1-1.25 0v-1.25c0-.345.28-.625.625-.625Zm3.077 1.171c.261.226.29.621.063.882l-.843.971a.625.625 0 1 1-.944-.819l.843-.971a.625.625 0 0 1 .881-.063ZM5.278 2.42a.625.625 0 0 1 .882.065l.837.972a.625.625 0 1 1-.947.816L5.213 3.3a.625.625 0 0 1 .065-.881ZM3.753 5.485a.625.625 0 0 1 .682-.562l1.276.123a.625.625 0 1 1-.12 1.244l-1.276-.123a.625.625 0 0 1-.562-.682Zm9.286 0a.625.625 0 0 1-.562.682L11.2 6.29a.625.625 0 0 1-.12-1.244l1.276-.123a.625.625 0 0 1 .682.562Z" clip-rule="evenodd"/>
</svg>
