<svg xmlns="http://www.w3.org/2000/svg" width="20" height="20" fill="currentColor" viewBox="0 0 20 20">
  <path fill-rule="evenodd" d="M12.821 10.613a.316.316 0 0 0-.317.316v.01l-.017.947a.612.612 0 1 1-1.224-.022l.016-.941a1.541 1.541 0 0 1 3.084.006v.333a.612.612 0 1 1-1.226 0v-.333a.316.316 0 0 0-.316-.316Z" clip-rule="evenodd"/>
  <path fill-rule="evenodd" d="M14.688 10.613a.332.332 0 0 0-.325.338.613.613 0 0 1-1.226 0c0-.857.688-1.564 1.55-1.564.863 0 1.55.707 1.55 1.564v2.799a.612.612 0 1 1-1.224 0v-2.799a.332.332 0 0 0-.325-.338Z" clip-rule="evenodd"/>
  <path fill-rule="evenodd" d="M4.914 9.459a1.732 1.732 0 0 1 2.065.94l.002.005 1.08 2.476a.613.613 0 1 1-1.122.49l-1.08-2.474a.507.507 0 0 0-.596-.263H5.26a.39.39 0 0 0-.243.182.244.244 0 0 0-.011.213l.01.028.642 1.845.007.016a25.854 25.854 0 0 0 .699 1.454c.776 1.434 1.381 2.103 1.832 2.529l.002.002c.407.39 1.051.61 1.758.61h2.206c.997 0 1.878-.516 2.292-1.28l.036-.067c.133-.243.244-.45.337-.777.102-.363.184-.899.184-1.778a.613.613 0 0 1 1.226 0c0 .952-.09 1.607-.231 2.11-.13.464-.302.778-.437 1.026l-.037.069c-.649 1.197-1.967 1.922-3.37 1.922H9.957c-.93 0-1.91-.286-2.603-.948-.55-.52-1.232-1.293-2.067-2.836v-.001a20.891 20.891 0 0 1-.517-1.045 31.46 31.46 0 0 1-.224-.495l-.014-.03-.005-.011a.612.612 0 0 1-.017-.045l-.646-1.855c-.34-.87.193-1.76 1.052-2.013l.172.588-.174-.587Z" clip-rule="evenodd"/>
  <path fill-rule="evenodd" d="M10.625 9.988c-.448 0-.637.29-.637.452v.81a.612.612 0 1 1-1.225 0v-.81c0-1.017.931-1.678 1.862-1.678s1.863.661 1.863 1.678v.381a.612.612 0 1 1-1.226 0v-.381c0-.162-.19-.452-.637-.452Z" clip-rule="evenodd"/>
  <path fill-rule="evenodd" d="M8.438 5.612a.32.32 0 0 0-.325.317v7.196a.612.612 0 1 1-1.225 0V5.929c0-.858.7-1.542 1.55-1.542.85 0 1.55.684 1.55 1.542v4.998a.613.613 0 0 1-1.225 0V5.93a.32.32 0 0 0-.325-.317Zm5.312 5.025c.338 0 .613.275.613.613v1.25a.612.612 0 1 1-1.226 0v-1.25c0-.338.275-.613.613-.613ZM8.438 1.25c.345 0 .625.28.625.625v1.25a.625.625 0 1 1-1.25 0v-1.25c0-.345.28-.625.625-.625Zm3.077 1.171c.261.226.29.621.063.882l-.843.971a.625.625 0 1 1-.944-.819l.843-.971a.625.625 0 0 1 .881-.063ZM5.278 2.42a.625.625 0 0 1 .882.065l.837.972a.625.625 0 1 1-.947.816L5.213 3.3a.625.625 0 0 1 .065-.881ZM3.753 5.485a.625.625 0 0 1 .682-.562l1.276.123a.625.625 0 1 1-.12 1.244l-1.276-.123a.625.625 0 0 1-.562-.682Zm9.286 0a.625.625 0 0 1-.562.682L11.2 6.29a.625.625 0 0 1-.12-1.244l1.276-.123a.625.625 0 0 1 .682.562Z" clip-rule="evenodd"/>
</svg>
