<svg xmlns="http://www.w3.org/2000/svg" width="20" height="20" fill="currentColor" viewBox="0 0 20 20">
  <path fill-rule="evenodd" d="M5.625 2.5a1.875 1.875 0 1 0 0 3.75 1.875 1.875 0 0 0 0-3.75ZM2.5 4.375a3.125 3.125 0 1 1 6.25 0 3.125 3.125 0 0 1-6.25 0Zm11.875 9.375a1.875 1.875 0 1 0 0 3.75 1.875 1.875 0 0 0 0-3.75Zm-3.125 1.875a3.125 3.125 0 1 1 6.25 0 3.125 3.125 0 0 1-6.25 0Z" clip-rule="evenodd"/>
  <path fill-rule="evenodd" d="M7.917 4.375c0-.345.28-.625.625-.625h5.416c1.937 0 3.542 1.516 3.542 3.438 0 1.921-1.605 3.437-3.542 3.437H7.292c-1.29 0-2.292.998-2.292 2.188C5 14.002 6.002 15 7.292 15h4.583a.625.625 0 1 1 0 1.25H7.292c-1.937 0-3.542-1.516-3.542-3.438 0-1.921 1.605-3.437 3.542-3.437h6.666c1.29 0 2.292-.998 2.292-2.188C16.25 5.998 15.248 5 13.958 5H8.542a.625.625 0 0 1-.625-.625Z" clip-rule="evenodd"/>
</svg>
