<svg xmlns="http://www.w3.org/2000/svg" width="20" height="20" fill="currentColor" viewBox="0 0 20 20">
  <path fill-rule="evenodd" d="M5.625 2.5a1.875 1.875 0 1 0 0 3.75 1.875 1.875 0 0 0 0-3.75ZM2.5 4.375a3.125 3.125 0 0 1 6.187-.625h5.271c1.937 0 3.542 1.516 3.542 3.438 0 1.921-1.605 3.437-3.542 3.437H7.292c-1.29 0-2.292.998-2.292 2.188C5 14.002 6.002 15 7.292 15h4.02a3.126 3.126 0 1 1 0 1.25h-4.02c-1.937 0-3.542-1.516-3.542-3.438 0-1.921 1.605-3.437 3.542-3.437h6.666c1.29 0 2.292-.998 2.292-2.188C16.25 5.998 15.248 5 13.958 5h-5.27A3.126 3.126 0 0 1 2.5 4.375Zm11.875 9.375a1.875 1.875 0 1 0 0 3.75 1.875 1.875 0 0 0 0-3.75Z" clip-rule="evenodd"/>
</svg>
