<svg xmlns="http://www.w3.org/2000/svg" width="20" height="20" fill="currentColor" viewBox="0 0 20 20">
  <path fill-rule="evenodd" d="M12.747 15c.88 0 1.633.691 1.628 1.666v1.459c0 .345-.28.625-.625.625h-5a.625.625 0 0 1-.625-.625v-1.403C8.12 15.713 8.995 15 9.85 15h2.897ZM9.85 16.25c-.239 0-.477.224-.475.468v.782h3.75v-.84c.002-.266-.174-.41-.378-.41H9.85Z" clip-rule="evenodd"/>
  <path d="M17.686 15c.877 0 1.695.657 1.689 1.666v1.459c0 .345-.28.625-.625.625h-2.983a.625.625 0 1 1 0-1.25h2.358v-.84c.002-.232-.166-.41-.439-.41h-2.061a.625.625 0 1 1 0-1.25h2.061Zm-7.389-8.75c.853 0 1.578.676 1.578 1.546 0 .837-.67 1.579-1.563 1.579H7.5V17.1c0 .518-.394 1.025-1.008 1.025H3.438a.9.9 0 0 1-.754-.384 1.113 1.113 0 0 1-.184-.638V11.25a.625.625 0 1 1 1.25 0v5.625h2.5V9.062c0-.517.42-.937.938-.937h3.125a.325.325 0 0 0 .312-.329c0-.143-.127-.296-.328-.296H2.984c-.634 0-1.109.489-1.109 1.05v3.325a.625.625 0 1 1-1.25 0V8.55c0-1.292 1.076-2.3 2.359-2.3h7.313Z"/>
  <path fill-rule="evenodd" d="M11.25 10.625a1.875 1.875 0 1 1 0 3.75 1.875 1.875 0 0 1 0-3.75Zm0 1.25a.625.625 0 1 0 0 1.25.625.625 0 0 0 0-1.25Zm4.554-1.25a1.875 1.875 0 1 1 0 3.75 1.875 1.875 0 0 1 0-3.75Zm0 1.25a.625.625 0 1 0 0 1.25.625.625 0 0 0 0-1.25Z" clip-rule="evenodd"/>
  <path d="M17.288 3.75c.464 0 .837.37.837.834v4.791a.625.625 0 1 1-1.25 0V5H10a.625.625 0 1 1 0-1.25h7.288Z"/>
  <path fill-rule="evenodd" d="M5.313 1.25a2.188 2.188 0 1 1 0 4.375 2.188 2.188 0 0 1 0-4.375Zm0 1.25a.937.937 0 1 0 0 1.875.937.937 0 0 0 0-1.875Z" clip-rule="evenodd"/>
</svg>
