<svg xmlns="http://www.w3.org/2000/svg" width="20" height="20" fill="currentColor" viewBox="0 0 20 20">
  <path fill-rule="evenodd" d="M6.091 3.54a.625.625 0 0 0-.934-.83l-2.5 2.812a.625.625 0 0 0 0 .83l2.5 2.813a.625.625 0 1 0 .934-.83L4.516 6.563h7.358c.512 0 .993.154 1.363.28 1.88.634 3.176 2.896 2.997 5.164-.159 1.947-1.42 3.585-3.08 4.116h.002-.005c-.01.002-.039.008-.093.015-.075.01-.172.02-.288.03-.23.019-.512.034-.788.047a48.27 48.27 0 0 1-.971.033l-.065.002H3.124a.625.625 0 1 0 0 1.25h7.85l.067-.002a41.96 41.96 0 0 0 .997-.034c.282-.013.582-.03.835-.05.22-.019.493-.046.664-.101 2.19-.702 3.747-2.805 3.943-5.205v-.002c.213-2.706-1.303-5.59-3.843-6.448-.368-.124-1.024-.345-1.763-.345H4.516L6.091 3.54Z" clip-rule="evenodd"/>
</svg>
