<svg xmlns="http://www.w3.org/2000/svg" width="20" height="20" fill="none" viewBox="0 0 20 20">
  <path fill="#3D3C3C" fill-rule="evenodd" d="M6.875 6.576c0-1.955 1.449-3.451 3.122-3.451.842 0 1.62.373 2.193.995.321.348.576.773.738 1.25a.625.625 0 0 0 1.183-.403 4.758 4.758 0 0 0-1.001-1.694c-.787-.854-1.889-1.398-3.113-1.398-2.46 0-4.372 2.157-4.372 4.7V7.5c0 .06.009.12.025.176-.29.025-.572.053-.845.083l-.01.002A1.195 1.195 0 0 0 3.75 8.944v7.737c0 .601.444 1.118 1.056 1.185 3.078.346 7.312.345 10.389 0l.01-.002a1.195 1.195 0 0 0 1.045-1.183V8.944c0-.601-.444-1.118-1.056-1.185-2.434-.273-5.59-.33-8.325-.171a.63.63 0 0 0 .006-.088v-.924ZM5 16.629V8.995c2.962-.327 7.038-.327 10 0v7.635c-2.962.327-7.038.327-10 0Z" clip-rule="evenodd"/>
</svg>
