<svg xmlns="http://www.w3.org/2000/svg" width="20" height="20" fill="currentColor" viewBox="0 0 20 20">
  <path d="M15 8.995c-2.962-.327-7.038-.327-10 0v7.634c2.962.327 7.038.327 10 0V8.995Zm1.25 7.686c0 .603-.45 1.106-1.045 1.183l-.01.002c-3.078.346-7.312.346-10.39 0A1.186 1.186 0 0 1 3.75 16.68V8.944c0-.603.45-1.106 1.045-1.183l.01-.002c3.078-.345 7.312-.345 10.39 0v.001a1.185 1.185 0 0 1 1.055 1.184v7.737Z"/>
  <path d="M5.625 7.5v-.924c0-2.544 1.912-4.701 4.372-4.701.578 0 1.144.087 1.669.332.53.248.984.64 1.354 1.196a.625.625 0 1 1-1.04.694c-.255-.382-.537-.614-.843-.757-.312-.146-.685-.215-1.14-.215-1.673 0-3.122 1.496-3.122 3.45V7.5a.625.625 0 1 1-1.25 0Z"/>
</svg>
