<svg xmlns="http://www.w3.org/2000/svg" width="21" height="20" fill="currentColor" viewBox="0 0 21 20">
  <path d="M7.303 2.5a.625.625 0 1 1 0 1.25h-.937c-1.036 0-1.875.84-1.875 1.875v8.75c0 1.036.84 1.875 1.875 1.875h8.75c1.035 0 1.875-.84 1.875-1.875v-8.75c0-1.036-.84-1.875-1.875-1.875h-.938a.625.625 0 1 1 0-1.25h.938c1.726 0 3.125 1.4 3.125 3.125v8.75c0 1.726-1.4 3.125-3.125 3.125h-8.75a3.125 3.125 0 0 1-3.125-3.125v-8.75A3.124 3.124 0 0 1 6.366 2.5h.937Zm6.002 11.253a.625.625 0 0 1 0 1.244l-.064.003h-5a.625.625 0 1 1 0-1.25h5l.064.003Zm1.186-1.878a.625.625 0 1 1 0 1.25h-7.5a.625.625 0 1 1 0-1.25h7.5ZM10.74 2.5c.345 0 .625.28.625.625l-.002 5.367 2.06-2.058.047-.043a.624.624 0 0 1 .88.879l-.044.047-3.125 3.124-.02.018-.005.006-.02.018c-.017.014-.036.025-.053.037l-.02.012a.621.621 0 0 1-.077.04l-.025.011a.619.619 0 0 1-.069.02c-.014.004-.029.009-.044.011a.631.631 0 0 1-.108.011l-.001-.001-.001.001a.617.617 0 0 1-.179-.03l-.037-.01a.617.617 0 0 1-.063-.028l-.035-.018c-.021-.012-.04-.027-.06-.042-.007-.005-.014-.008-.02-.014l-.01-.008-.032-.03-.005-.004-3.125-3.124a.625.625 0 0 1 .884-.883l2.057 2.055.002-5.364c0-.345.28-.625.625-.625Z"/>
</svg>
