<svg xmlns="http://www.w3.org/2000/svg" width="20" height="20" fill="currentColor" viewBox="0 0 20 20">
  <path fill-rule="evenodd" d="M10 2.5a7.498 7.498 0 0 0-6.495 11.25.625.625 0 0 1-1.082.625A8.748 8.748 0 0 1 10 1.25c1.886 0 3.58.48 5 1.474v-.849a.625.625 0 1 1 1.25 0v2.5c0 .345-.28.625-.625.625h-2.5a.625.625 0 1 1 0-1.25h1.161C13.096 2.916 11.66 2.5 10 2.5ZM4.375 15a.625.625 0 0 0-.625.625v2.5a.625.625 0 1 0 1.25 0v-.849c1.42.994 3.114 1.474 5 1.474a8.748 8.748 0 0 0 7.577-13.125.625.625 0 1 0-1.082.625A7.498 7.498 0 0 1 10 17.5c-1.659 0-3.096-.416-4.286-1.25h1.161a.625.625 0 1 0 0-1.25h-2.5Z" clip-rule="evenodd"/>
</svg>
