<svg xmlns="http://www.w3.org/2000/svg" width="20" height="20" fill="currentColor" viewBox="0 0 20 20">
  <path d="M0 0h20v20H0z"/>
  <path fill-rule="evenodd" d="M15.625 1.25c.345 0 .625.28.625.625v2.5c0 .345-.28.625-.625.625h-2.5a.625.625 0 1 1 0-1.25H15V1.875c0-.345.28-.625.625-.625ZM3.75 15.625c0-.345.28-.625.625-.625h2.5a.625.625 0 1 1 0 1.25H5v1.875a.625.625 0 1 1-1.25 0v-2.5Z" clip-rule="evenodd"/>
  <path fill-rule="evenodd" d="M10 2.5a7.498 7.498 0 0 0-6.495 11.25.625.625 0 0 1-1.082.625A8.748 8.748 0 0 1 10 1.25c2.385 0 4.464.767 6.067 2.37a.625.625 0 1 1-.884.884C13.845 3.166 12.1 2.5 10 2.5Zm6.723 2.896a.625.625 0 0 1 .854.229A8.748 8.748 0 0 1 10 18.75c-2.385 0-4.464-.767-6.067-2.37a.625.625 0 0 1 .884-.884C6.155 16.834 7.9 17.5 10 17.5a7.498 7.498 0 0 0 6.495-11.25.625.625 0 0 1 .228-.854Z" clip-rule="evenodd"/>
</svg>
