<svg xmlns="http://www.w3.org/2000/svg" width="20" height="20" fill="currentColor" viewBox="0 0 20 20">
  <path fill-rule="evenodd" d="M10 6.25A1.875 1.875 0 1 0 10 10a1.875 1.875 0 0 0 0-3.75ZM6.875 8.125a3.125 3.125 0 1 1 6.25 0 3.125 3.125 0 0 1-6.25 0Zm-.625 6.684.017 2.06a.625.625 0 0 1-1.25.011L5 14.818v-.002C4.992 13.508 6.093 12.5 7.39 12.5h5.22c1.297 0 2.398 1.008 2.39 2.316l-.017 2.064a.625.625 0 1 1-1.25-.01l.017-2.061c.003-.556-.476-1.059-1.14-1.059H7.39c-.665 0-1.143.503-1.14 1.059Z" clip-rule="evenodd"/>
  <path fill-rule="evenodd" d="M10 2.458a7.542 7.542 0 1 0 0 15.084 7.542 7.542 0 0 0 0-15.084ZM1.208 10a8.792 8.792 0 1 1 17.584 0 8.792 8.792 0 0 1-17.584 0Z" clip-rule="evenodd"/>
</svg>
