<svg xmlns="http://www.w3.org/2000/svg" width="20" height="20" fill="currentColor" viewBox="0 0 20 20">
  <path fill-rule="evenodd" d="M2.5 10.003C2.5 5.863 5.86 2.5 10 2.5a7.503 7.503 0 0 1 7.412 6.345.625.625 0 1 0 1.236-.19A8.753 8.753 0 0 0 10 1.25c-4.832 0-8.75 3.924-8.75 8.753 0 4.136 2.873 7.601 6.731 8.513a.625.625 0 0 0 .288-1.217 7.467 7.467 0 0 1-2.626-1.194L5.625 13.6c-.004-.586.49-1.099 1.157-1.099H8.75a.625.625 0 1 0 0-1.25H6.782c-1.317 0-2.416 1.035-2.407 2.358l.01 1.364a7.468 7.468 0 0 1-1.885-4.97ZM10 5a1.875 1.875 0 1 0 0 3.75A1.875 1.875 0 0 0 10 5ZM6.875 6.875a3.125 3.125 0 1 1 6.25 0 3.125 3.125 0 0 1-6.25 0Zm8.05 2.83a.625.625 0 0 1 .84-.259l1.914 1.002c.305.16.423.535.265.84l-.323.626c.155.208.288.428.399.658l.76.036c.333.016.595.29.595.624v2.097a.625.625 0 0 1-.605.625l-.657.021a3.99 3.99 0 0 1-.157.33l-.002.004c-.06.109-.123.217-.192.322l.407.702a.625.625 0 0 1-.234.858l-1.962 1.104a.625.625 0 0 1-.866-.267l-.294-.592a3.944 3.944 0 0 1-.674.02l-.313.585a.625.625 0 0 1-.841.259l-1.932-1.011a.625.625 0 0 1-.26-.85l.331-.613a4.1 4.1 0 0 1-.378-.62l-.66.022a.625.625 0 0 1-.645-.606l-.066-2.186a.625.625 0 0 1 .605-.644l.656-.021a3.914 3.914 0 0 1 .346-.647l-.348-.567a.625.625 0 0 1 .202-.857l1.847-1.152a.625.625 0 0 1 .863.203l.348.564c.236-.03.476-.038.717-.024l.313-.586Zm.81 1.136-.222.414a.625.625 0 0 1-.66.32 2.696 2.696 0 0 0-1.117.039.625.625 0 0 1-.683-.28l-.242-.393-.787.491.243.396c.14.23.12.523-.053.729a2.883 2.883 0 0 0-.534 1.005.625.625 0 0 1-.579.444l-.457.015.028.937.459-.015a.625.625 0 0 1 .607.41c.132.36.33.691.593.971a.625.625 0 0 1 .093.724l-.23.427.821.43.222-.414a.625.625 0 0 1 .66-.32c.374.066.757.05 1.117-.039.285-.07.58.066.71.329l.21.422.836-.47-.295-.508a.625.625 0 0 1 .061-.716 2.874 2.874 0 0 0 .534-1.005.625.625 0 0 1 .578-.444l.477-.016v-.896l-.556-.026a.625.625 0 0 1-.557-.409 2.851 2.851 0 0 0-.593-.971.625.625 0 0 1-.099-.715l.228-.44-.813-.426ZM15 14.375a.625.625 0 1 1-1.25 0 .625.625 0 0 1 1.25 0Zm1.25 0a1.875 1.875 0 1 1-3.75 0 1.875 1.875 0 0 1 3.75 0Z" clip-rule="evenodd"/>
</svg>
