<svg xmlns="http://www.w3.org/2000/svg" width="20" height="20" fill="currentColor" viewBox="0 0 20 20">
  <path fill-rule="evenodd" d="M8.125 8.75c0-.345.28-.625.625-.625h2.377c1.106 0 1.997.902 1.997 2.002V12.5c0 .117.092.208.207.208h.419c.345 0 .625.28.625.625V15c0 .345-.28.625-.625.625h-5A.625.625 0 0 1 8.125 15v-1.667c0-.345.28-.625.625-.625h.626V11.25a.206.206 0 0 0-.207-.208H8.75a.625.625 0 0 1-.625-.625V8.75Zm3.749 3.767v-2.39a.751.751 0 0 0-.747-.752H9.375v.431c.706.1 1.251.705 1.251 1.444v2.083c0 .345-.28.625-.625.625h-.626v.417h3.75v-.431a1.456 1.456 0 0 1-1.251-1.427ZM8.75 5.628c0-1.028.832-1.878 1.875-1.878 1.03 0 1.875.83 1.875 1.872a1.876 1.876 0 0 1-3.75.006ZM10.625 5a.626.626 0 1 0 .002 1.248A.626.626 0 0 0 10.625 5ZM2.5 5.625c0-.345.28-.625.625-.625h2.5a.625.625 0 1 1 0 1.25h-2.5a.625.625 0 0 1-.625-.625ZM2.5 10c0-.345.28-.625.625-.625h2.5a.625.625 0 1 1 0 1.25h-2.5A.625.625 0 0 1 2.5 10Z" clip-rule="evenodd"/>
  <path fill-rule="evenodd" d="M4.375 6.875c.345 0 .625.28.625.625V10a.625.625 0 1 1-1.25 0V7.5c0-.345.28-.625.625-.625Zm-1.875 7.5c0-.345.28-.625.625-.625h2.5a.625.625 0 1 1 0 1.25h-2.5a.625.625 0 0 1-.625-.625Z" clip-rule="evenodd"/>
  <path fill-rule="evenodd" d="M4.375 11.25c.345 0 .625.28.625.625v1.875a.625.625 0 1 1-1.25 0v-1.875c0-.345.28-.625.625-.625Z" clip-rule="evenodd"/>
  <path fill-rule="evenodd" d="M5.901 2.5c-.48 0-.901.41-.901.935v2.086a.625.625 0 1 1-1.25 0V3.435c0-1.19.955-2.185 2.151-2.185h10.073c1.196 0 2.151.996 2.151 2.185v13.13c0 1.19-.955 2.185-2.151 2.185H5.9c-1.196 0-2.151-.996-2.151-2.185v-.347a.625.625 0 1 1 1.25 0v.347c0 .525.42.935.901.935h10.073c.48 0 .901-.41.901-.935V3.435c0-.525-.42-.935-.901-.935H5.9Z" clip-rule="evenodd"/>
</svg>
