<svg xmlns="http://www.w3.org/2000/svg" width="20" height="20" fill="currentColor" viewBox="0 0 20 20">
  <path fill-rule="evenodd" d="M2.458 10a7.542 7.542 0 1 1 12.535 5.652l.007-.836c.008-1.308-1.093-2.316-2.39-2.316H7.39c-1.297 0-2.398 1.008-2.39 2.316v.002l.007.834A7.523 7.523 0 0 1 2.458 10Zm3.806 6.553a7.507 7.507 0 0 0 3.736.989 7.51 7.51 0 0 0 3.736-.989l.014-1.744c.003-.556-.475-1.059-1.14-1.059H7.39c-.664 0-1.143.503-1.14 1.059l.014 1.744ZM10 1.208a8.792 8.792 0 1 0 0 17.584 8.792 8.792 0 0 0 0-17.584Zm0 5.042A1.875 1.875 0 1 0 10 10a1.875 1.875 0 0 0 0-3.75ZM6.875 8.125a3.125 3.125 0 1 1 6.25 0 3.125 3.125 0 0 1-6.25 0Z" clip-rule="evenodd"/>
</svg>
