<svg xmlns="http://www.w3.org/2000/svg" width="20" height="20" fill="currentColor" viewBox="0 0 20 20">
  <path d="M10.452 1.22A8.792 8.792 0 0 1 10 18.792l-.22-.003a8.82 8.82 0 0 1-1.495-.165.625.625 0 0 1 .242-1.226c.357.07.724.116 1.097.134l.376.01a7.542 7.542 0 0 0 .388-15.074L10 2.458l-.376.01c-.373.018-.74.063-1.097.134l-.063.01a.626.626 0 0 1-.179-1.236l.21-.04A8.886 8.886 0 0 1 10 1.208l.452.012Zm-7.59 12.799a.625.625 0 0 1 .867.17 7.59 7.59 0 0 0 1.778 1.87l.304.212.05.04a.625.625 0 0 1-.691 1.033l-.056-.034-.177-.122a8.84 8.84 0 0 1-2.248-2.303.625.625 0 0 1 .172-.866Zm9.792-6.93a.625.625 0 0 1 .942.822l-4.374 5a.626.626 0 0 1-.942 0l-1.876-2.144-.039-.05a.626.626 0 0 1 .936-.819l.045.045L8.75 11.55l3.903-4.461ZM2.11 7.793a.625.625 0 0 1 .493.734l-.063.36a7.618 7.618 0 0 0 0 2.225l.063.36.01.064a.626.626 0 0 1-1.22.241l-.016-.062-.04-.21a8.848 8.848 0 0 1 .04-3.22l.016-.062a.625.625 0 0 1 .717-.43Zm3.005-5.104a.625.625 0 0 1 .697 1.04A7.587 7.587 0 0 0 3.729 5.81a.625.625 0 0 1-1.04-.697A8.837 8.837 0 0 1 5.114 2.69Z"/>
</svg>
