<svg xmlns="http://www.w3.org/2000/svg" width="20" height="20" fill="currentColor" viewBox="0 0 20 20">
  <path d="M17.5 10.024c0-.232-.024-.32-.1-.471-.072-.136-.14-.232-.58-.67a8.761 8.761 0 0 1-.59-.624l-.006-.009a3.04 3.04 0 0 1-.441-.898c-.083-.297-.08-.622-.064-1.477.003-.26 0-.376-.01-.456a.744.744 0 0 0-.067-.215l-.004-.007c-.136-.328-.468-.588-.777-.636l-.055-.003a19.926 19.926 0 0 0-.73-.014c-.387 0-.65-.002-.856-.024a2.078 2.078 0 0 1-.582-.147h-.002a2.829 2.829 0 0 1-.77-.46l-.002-.002c-.21-.172-.356-.34-.806-.874-.233-.274-.466-.426-.7-.5l-.144-.023-.032-.005-.032-.008a.93.93 0 0 0-.121-.002c-.082.004-.17.016-.24.027-.14.025-.348.11-.492.206l-.01.007-.014.01-.042.035c-.035.03-.078.071-.13.122a6.825 6.825 0 0 0-.355.39l-.005.006c-.441.505-.798.826-1.282 1.038l-.004.002c-.174.074-.332.146-.59.18-.206.027-.49.03-.95.039-.482.01-.696.016-.825.03a.471.471 0 0 0-.19.056l-.006.003c-.273.119-.516.403-.597.763a.674.674 0 0 0-.01.114c-.004.085-.004.207-.004.426.005.269.011.546.011.607a2.75 2.75 0 0 1-.02.395 3.156 3.156 0 0 1-.075.43c-.13.494-.382.867-.79 1.29l-.187.186c-.402.388-.511.525-.587.653a.997.997 0 0 0-.057.883l.066.128c.023.038.048.074.082.116.04.05.091.107.163.184l.288.292c.514.512.681.715.873 1.124.073.148.14.352.172.475.03.11.054.212.064.362.008.12.006.275.003.499v.004c-.014.695-.01.923.003 1.026l.015.074.002.008c.1.378.38.643.768.726.014.003.056.009.17.012.117.004.287.006.551.006.674 0 .969.011 1.327.118l.158.052h.001c.38.135.78.385 1.094.683l.012.01c.047.045.113.115.182.191l.219.244.001.002c.306.349.518.543.598.594.358.22.8.229 1.13.047l.003-.002c.176-.096.296-.183.705-.662.136-.161.32-.362.424-.46l.14-.126a3.045 3.045 0 0 1 1.16-.605c.288-.077.414-.075 1.192-.092.453-.009.636-.013.747-.025a.604.604 0 0 0 .194-.056c.234-.09.47-.319.56-.554l.003-.006a.863.863 0 0 0 .066-.222c.01-.075.014-.18.011-.398l-.006-.38c-.004-.349 0-.612.025-.827.037-.326.118-.542.238-.783l.006-.012c.207-.396.412-.643.91-1.12.237-.23.356-.359.43-.46a.98.98 0 0 0 .146-.3c.021-.065.021-.074.022-.077.002-.02.004-.056.004-.183Zm1.25 0c0 .117 0 .23-.014.338a1.58 1.58 0 0 1-.076.313 2.214 2.214 0 0 1-.32.642 5.052 5.052 0 0 1-.574.626l-.003.003c-.446.426-.547.568-.662.785l-.045.098a.856.856 0 0 0-.07.27 5.79 5.79 0 0 0-.018.665l.007.376v.005c.003.223.001.412-.023.589a2.299 2.299 0 0 1-1.415 1.777l-.004.001a1.8 1.8 0 0 1-.511.131c-.179.02-.434.024-.852.033-.415.008-.607.012-.725.02a.654.654 0 0 0-.17.028 1.781 1.781 0 0 0-.754.424l-.009.009a5.803 5.803 0 0 0-.331.36l-.001.002c-.438.514-.678.742-1.059.95v-.001c-.749.411-1.672.363-2.391-.08l-.003-.003c-.257-.16-.579-.49-.876-.83a19.464 19.464 0 0 0-.283-.314l-.034-.034-.005-.006-.006-.005a1.987 1.987 0 0 0-.656-.417c-.222-.078-.307-.098-1.069-.098-.5 0-.764-.003-.958-.04h-.005l-.005-.002a2.23 2.23 0 0 1-1.73-1.631c-.08-.295-.077-.622-.061-1.451a6.775 6.775 0 0 0 0-.398.548.548 0 0 0-.026-.127 1.879 1.879 0 0 0-.07-.209l-.011-.025-.008-.014-.006-.014a1.312 1.312 0 0 0-.167-.282 5.93 5.93 0 0 0-.457-.486c-.43-.43-.623-.641-.783-.943l-.067-.136c-.3-.645-.245-1.434.115-2.045l.002-.003c.168-.282.384-.518.793-.913.454-.44.573-.653.635-.893l.001-.003a2.08 2.08 0 0 0 .055-.395c.002-.044.001-.064.001-.064l-.001-.024V6.56l-.011-.595-.001-.006v-.006c0-.394-.003-.594.043-.81l.001-.006c.162-.713.648-1.338 1.311-1.63.168-.074.314-.13.564-.157.201-.022.487-.028.94-.037.502-.009.694-.014.81-.029.066-.008.08-.013.255-.088.235-.104.448-.262.842-.714.268-.315.57-.633.8-.785.273-.183.645-.344.98-.401h.002c.104-.018.243-.037.388-.044.118-.005.28-.003.442.03l.19.03.039.006.037.01c.456.133.852.39 1.193.745l.142.158.001.001c.473.56.54.63.641.713.168.135.299.21.438.265a.844.844 0 0 0 .259.069c.126.013.318.017.725.017.307 0 .616.005.81.016l.15.013h.004l.006.001c.767.116 1.45.683 1.745 1.39.074.173.13.334.157.54.024.183.024.386.021.633v.005c-.014.713-.009.945.004 1.05l.014.073.002.007c.034.129.144.352.237.48l.04.045.114.123.319.324.002.002c.39.388.587.599.744.865l.066.119.003.006c.179.35.236.637.236 1.036Z"/>
  <path d="M12.654 7.104a.626.626 0 0 1 .942.822L9.222 12.92a.626.626 0 0 1-.941 0l-1.877-2.142a.624.624 0 1 1 .942-.821L8.75 11.56l3.903-4.456Z"/>
</svg>
