<svg xmlns="http://www.w3.org/2000/svg" width="20" height="20" fill="currentColor" viewBox="0 0 20 20">
  <path fill-rule="evenodd" d="M8.434 5.056a.625.625 0 0 1 .627.002l3.768 2.199a.625.625 0 0 1 0 1.08l-3.768 2.199a.625.625 0 0 1-.94-.54V5.598c0-.224.12-.431.313-.542Zm.937 1.63v2.221l1.903-1.11-1.903-1.111Z" clip-rule="evenodd"/>
  <path fill-rule="evenodd" d="M1.25 4.698c0-1.23 1.013-2.198 2.233-2.198h13.04c1.216 0 2.227.97 2.227 2.198v8.73c0 1.225-1.004 2.197-2.227 2.197H3.483c-1.22 0-2.233-.969-2.233-2.198v-8.73Zm2.233-.948c-.557 0-.983.436-.983.948v8.73c0 .511.426.947.983.947h13.04a.96.96 0 0 0 .977-.948v-8.73a.963.963 0 0 0-.977-.947H3.483Z" clip-rule="evenodd"/>
  <path fill-rule="evenodd" d="M10 14.422c.345 0 .625.28.625.625v2.725a.625.625 0 1 1-1.25 0v-2.724c0-.346.28-.626.625-.626Z" clip-rule="evenodd"/>
  <path fill-rule="evenodd" d="M5.625 18.125c0-.345.28-.625.625-.625h7.5a.625.625 0 1 1 0 1.25h-7.5a.625.625 0 0 1-.625-.625Zm-4.417-5.621c0-.345.28-.625.625-.625h15.92a.625.625 0 1 1 0 1.25H1.832a.625.625 0 0 1-.625-.625Z" clip-rule="evenodd"/>
</svg>
