<svg xmlns="http://www.w3.org/2000/svg" width="20" height="20" fill="currentColor" viewBox="0 0 20 20">
  <path fill-rule="evenodd" d="M1.25 4.698c0-1.23 1.013-2.198 2.233-2.198h13.04c1.216 0 2.227.97 2.227 2.198v8.73c0 1.225-1.004 2.197-2.227 2.197h-5.898V17.5h3.125a.625.625 0 1 1 0 1.25h-7.5a.625.625 0 1 1 0-1.25h3.125v-1.875H3.483c-1.22 0-2.233-.969-2.233-2.198v-.698a.624.624 0 0 1 0-.45V4.698Zm1.25 8.431v.298c0 .512.426.948.983.948h13.04a.96.96 0 0 0 .977-.948v-.298h-15Zm15-1.25h-15V4.698c0-.512.426-.948.983-.948h13.04c.55 0 .977.434.977.948v7.181ZM8.434 5.056a.625.625 0 0 1 .627.002l3.768 2.199a.625.625 0 0 1 0 1.08l-3.768 2.199a.625.625 0 0 1-.94-.54V5.598c0-.224.12-.431.313-.542Zm.937 3.851 1.903-1.11-1.903-1.111v2.221Z" clip-rule="evenodd"/>
</svg>
