<svg xmlns="http://www.w3.org/2000/svg" width="20" height="20" fill="none" viewBox="0 0 20 20">
  <path fill="#3D3C3C" fill-rule="evenodd" d="M10 3.125c-2.204 0-4.013 1.737-4.14 3.938l.016.003a.625.625 0 1 1-.228 1.23l-.45-.084a.626.626 0 0 1-.033-.007c-.489-.119-.815-.082-1.113.037l.588-.53-.588.53A2.483 2.483 0 0 0 2.5 10.52c0 1.43 1.122 2.589 2.502 2.589a.625.625 0 1 1 0 1.25c-2.112 0-3.752-1.76-3.752-3.839 0-1.477.914-2.865 2.335-3.437.332-.134.67-.2 1.035-.2.217-2.8 2.538-5.008 5.38-5.008 2.398 0 4.425 1.573 5.129 3.74.958.06 1.837.555 2.478 1.25.686.742 1.143 1.76 1.143 2.847 0 1.213-.27 2.36-.887 3.223-.636.888-1.608 1.424-2.863 1.424a.625.625 0 1 1 0-1.25c.856 0 1.448-.345 1.846-.902.417-.583.654-1.446.654-2.495 0-.739-.314-1.461-.812-2-.5-.542-1.14-.853-1.754-.853-.605 0-1.022.178-1.33.403a.625.625 0 1 1-.739-1.008 3.25 3.25 0 0 1 .989-.493A4.147 4.147 0 0 0 10 3.125Zm-1.875 6.25c-.69 0-1.25.56-1.25 1.25v6.25c0 .69.56 1.25 1.25 1.25h3.75c.69 0 1.25-.56 1.25-1.25v-6.25c0-.69-.56-1.25-1.25-1.25h-3.75Zm3.75 5v-1.25h-3.75v1.25h3.75Zm-3.75 1.25h3.75v1.25h-3.75v-1.25Zm0-3.75h3.75v-1.25h-3.75v1.25Z" clip-rule="evenodd"/>
</svg>
