<svg xmlns="http://www.w3.org/2000/svg" width="20" height="20" fill="currentColor" viewBox="0 0 20 20">
  <path d="M8.75 2.5a.625.625 0 1 1 0 1.25H3.48a.965.965 0 0 0-.98.95v7.175h15v-.625a.625.625 0 1 1 1.25 0v2.176c0 1.225-1.01 2.199-2.23 2.199h-5.895V17.5h3.125a.625.625 0 1 1 0 1.25h-7.5a.625.625 0 1 1 0-1.25h3.125v-1.875H3.479c-1.22 0-2.229-.974-2.229-2.2V4.7c0-1.226 1.01-2.2 2.23-2.2h5.27ZM2.5 13.426c0 .513.427.949.98.949h13.04c.553 0 .98-.436.98-.95v-.3h-15v.3ZM8.457 5a.626.626 0 0 1 .57.415l1.413 3.96h1.435a.625.625 0 1 1 0 1.25H10a.625.625 0 0 1-.588-.415L8.385 7.334l-1.248 2.912a.625.625 0 0 1-.574.379H3.75a.625.625 0 1 1 0-1.25h2.4l1.713-3.996.044-.085A.626.626 0 0 1 8.457 5Zm5.293-3.75a3.75 3.75 0 0 1 3.056 5.92l1.761 1.763a.625.625 0 0 1-.883.883l-1.762-1.761A3.75 3.75 0 1 1 13.75 1.25Zm0 1.25a2.5 2.5 0 1 0 0 5 2.5 2.5 0 0 0 0-5Z"/>
</svg>
