<svg xmlns="http://www.w3.org/2000/svg" width="20" height="20" fill="currentColor" viewBox="0 0 20 20">
  <path d="M12.5 8.125c.69 0 1.25.56 1.25 1.25V17.5c0 .69-.56 1.25-1.25 1.25h-5c-.69 0-1.25-.56-1.25-1.25V9.375c0-.69.56-1.25 1.25-1.25h5Zm-5 9.375h5v-1.875h-5V17.5Zm0-3.125h5V12.5h-5v1.875ZM10.08 1.25c2.284 0 4.175 1.602 4.827 3.75h.028c1.013 0 1.963.463 2.653 1.148.69.686 1.162 1.637 1.162 2.666 0 1.129-.274 2.2-.902 3.005-.645.826-1.614 1.306-2.848 1.306a.625.625 0 1 1 0-1.25c.878 0 1.471-.327 1.861-.826.406-.52.639-1.29.639-2.235 0-.644-.3-1.289-.793-1.779-.494-.49-1.14-.785-1.772-.785-.618 0-1.043.167-1.352.375a.625.625 0 0 1-.696-1.038 3.31 3.31 0 0 1 .772-.383c-.552-1.601-1.967-2.704-3.58-2.704-2.036 0-3.77 1.766-3.827 4.067a.622.622 0 0 1-.595 1l-.449-.076a.648.648 0 0 1-.031-.006c-.498-.11-.835-.076-1.142.036C3.073 7.876 2.5 8.72 2.5 9.555c0 1.233 1.07 2.32 2.502 2.32a.625.625 0 0 1 0 1.25c-2.06 0-3.752-1.587-3.752-3.57 0-1.409.948-2.688 2.353-3.206a2.98 2.98 0 0 1 1.418-.156C5.253 3.46 7.39 1.25 10.08 1.25Zm-2.58 10h5V9.375h-5v1.875Z"/>
</svg>
