<svg xmlns="http://www.w3.org/2000/svg" width="20" height="20" fill="currentColor" viewBox="0 0 20 20">
  <path fill-rule="evenodd" d="M9.045 2.184c.65-1.3 2.51-1.3 3.16 0l7.023 14.052a1.765 1.765 0 0 1-1.58 2.556H3.602a1.767 1.767 0 0 1-1.58-2.556L9.045 2.184Zm1.118.559L3.14 16.795a.517.517 0 0 0 .462.747h14.046a.515.515 0 0 0 .462-.747L11.087 2.743a.517.517 0 0 0-.924 0Zm.462 4.132c.345 0 .625.28.625.625v5a.625.625 0 1 1-1.25 0v-5c0-.345.28-.625.625-.625Zm0 8.75a.625.625 0 1 0 0-1.25.625.625 0 0 0 0 1.25Z" clip-rule="evenodd"/>
</svg>
