<svg xmlns="http://www.w3.org/2000/svg" width="20" height="20" fill="currentColor" viewBox="0 0 20 20">
  <path fill-rule="evenodd" d="M8.425 2.222c.648-1.296 2.501-1.296 3.15 0l6.986 13.981a1.759 1.759 0 0 1-1.575 2.547H3.013a1.761 1.761 0 0 1-1.575-2.547l6.987-13.98Zm1.118.56-6.987 13.98a.511.511 0 0 0 .457.738h13.973a.509.509 0 0 0 .457-.738l-6.987-13.98a.511.511 0 0 0-.913 0ZM10 6.254c.431 0 .781.35.781.781v4.683a.781.781 0 0 1-1.562 0V7.036c0-.431.35-.781.781-.781Zm.013 9.371a.937.937 0 1 0 0-1.875.937.937 0 0 0 0 1.875Z" clip-rule="evenodd"/>
</svg>
