<svg xmlns="http://www.w3.org/2000/svg" width="21" height="20" fill="currentColor" viewBox="0 0 21 20">
  <path d="M16.879 1.25c1.337 0 2.315 1.179 2.315 2.494V8.75a.625.625 0 1 1-1.25 0v-2.5h-15v10.043c0 .715.523 1.207 1.065 1.207h5.81a.625.625 0 1 1 0 1.25H4.01c-1.327 0-2.315-1.15-2.315-2.457V3.744c0-1.315.978-2.494 2.316-2.494H16.88Zm-3.28 8.753c.03.001.06.003.09.009a.62.62 0 0 1 .095.028c.007.003.014.003.02.006.023.01.045.021.066.033.015.008.03.015.044.024.016.011.03.024.046.037.016.013.033.025.048.04s.028.033.042.05c.011.014.024.027.035.043a.62.62 0 0 1 .11.351v2.242l.624.625.625-.625v-2.241a.626.626 0 0 1 .86-.578c1.377.56 2.265 1.805 2.265 3.39 0 1.26-.58 2.447-1.562 3.15l.003 1.537-.003.064a.626.626 0 0 1-1.244.002l-.003-.064-.003-1.875c0-.226.121-.435.318-.546.744-.418 1.244-1.284 1.244-2.268 0-.673-.227-1.237-.625-1.656v1.344a.626.626 0 0 1-.182.442l-1.25 1.25c-.016.016-.035.028-.052.042l-.043.035c-.016.01-.033.017-.049.026-.019.01-.037.022-.057.03-.015.007-.032.01-.048.016a.467.467 0 0 1-.064.018c-.017.004-.035.006-.053.008a.6.6 0 0 1-.061.006c-.02 0-.039-.002-.058-.003a.642.642 0 0 1-.173-.035.623.623 0 0 1-.156-.085l-.023-.016-.048-.043-1.25-1.25a.625.625 0 0 1-.183-.441v-1.321c-.39.42-.625.978-.625 1.633 0 .972.53 1.849 1.254 2.273l.067.047a.625.625 0 0 1 .242.493v1.875a.625.625 0 1 1-1.25 0v-1.542c-.944-.698-1.563-1.876-1.563-3.145 0-1.596.943-2.829 2.25-3.386a.617.617 0 0 1 .25-.052l.03.003ZM4.008 2.5c-.53 0-1.065.497-1.065 1.244V5h15V3.744c0-.747-.534-1.244-1.065-1.244H4.009Zm8.464.625c.26 0 .471.194.471.433v.385l-.002.044c0 .01-.005.018-.007.027a.405.405 0 0 1-.082.181c-.008.011-.018.021-.028.032l-.026.027a.574.574 0 0 1-.05.036l-.017.012a.477.477 0 0 1-.051.026l-.03.014c-.017.006-.034.01-.05.014-.013.004-.024.008-.037.01a.514.514 0 0 1-.09.009h-.31l-.094-.009a.498.498 0 0 1-.08-.023l-.022-.009a.476.476 0 0 1-.06-.031l-.013-.008a.468.468 0 0 1-.051-.038l-.018-.015c-.014-.013-.025-.027-.037-.042a.42.42 0 0 1-.066-.114.455.455 0 0 1-.021-.076l-.005-.023-.003-.044v-.385c0-.028.003-.056.009-.082l.008-.027a.468.468 0 0 1 .017-.053l.013-.025a.426.426 0 0 1 .046-.071l.015-.018.03-.03.012-.01a.476.476 0 0 1 .046-.035l.017-.01a.49.49 0 0 1 .163-.063l.095-.009h.309Zm1.875 0c.26 0 .471.194.471.433v.385l-.002.044c0 .01-.005.018-.007.027a.405.405 0 0 1-.082.181c-.008.011-.018.021-.028.032l-.026.027a.574.574 0 0 1-.05.036l-.017.012a.477.477 0 0 1-.051.026l-.03.014c-.017.006-.034.01-.05.014-.013.004-.024.008-.037.01a.514.514 0 0 1-.09.009h-.31l-.094-.009a.498.498 0 0 1-.08-.023l-.022-.009a.476.476 0 0 1-.06-.031l-.013-.008a.468.468 0 0 1-.051-.038l-.018-.015a.448.448 0 0 1-.104-.156l-.014-.043a.455.455 0 0 1-.007-.033l-.004-.023-.003-.044v-.385c0-.028.003-.056.009-.082l.008-.027a.468.468 0 0 1 .017-.053l.013-.025a.426.426 0 0 1 .046-.071l.015-.018.03-.03.012-.01a.476.476 0 0 1 .046-.035l.017-.01a.49.49 0 0 1 .163-.063l.095-.009h.309Zm1.876 0c.26 0 .47.194.47.433v.385l-.002.044c0 .01-.005.018-.007.027a.405.405 0 0 1-.082.181c-.008.011-.018.021-.028.032l-.026.027a.574.574 0 0 1-.05.036l-.017.012a.477.477 0 0 1-.052.026l-.03.014c-.016.006-.033.01-.05.014-.012.004-.023.008-.036.01a.514.514 0 0 1-.09.009h-.31l-.094-.009a.498.498 0 0 1-.08-.023l-.022-.009a.476.476 0 0 1-.06-.031l-.013-.008a.468.468 0 0 1-.051-.038l-.018-.015a.448.448 0 0 1-.104-.156l-.014-.043a.455.455 0 0 1-.007-.033l-.004-.023-.003-.044v-.385c0-.028.003-.056.009-.082l.008-.027a.468.468 0 0 1 .017-.053l.013-.025a.426.426 0 0 1 .046-.071l.015-.018.03-.03.012-.01a.476.476 0 0 1 .046-.035l.017-.01a.49.49 0 0 1 .163-.063l.095-.009h.309Z"/>
</svg>
