<svg xmlns="http://www.w3.org/2000/svg" width="20" height="20" fill="currentColor" viewBox="0 0 20 20">
  <path d="M8.125 3.125A.625.625 0 0 0 7.5 2.5H3.125a.625.625 0 0 0-.625.625V7.5c0 .345.28.625.625.625H7.5c.345 0 .625-.28.625-.625V3.125ZM9.375 7.5c0 1.036-.84 1.875-1.875 1.875H3.125A1.875 1.875 0 0 1 1.25 7.5V3.125c0-1.036.84-1.875 1.875-1.875H7.5c1.036 0 1.875.84 1.875 1.875V7.5Zm-1.25 5a.625.625 0 0 0-.625-.625H3.125a.625.625 0 0 0-.625.625v4.375c0 .345.28.625.625.625H7.5c.345 0 .625-.28.625-.625V12.5Zm1.25 4.375c0 1.035-.84 1.875-1.875 1.875H3.125a1.875 1.875 0 0 1-1.875-1.875V12.5c0-1.036.84-1.875 1.875-1.875H7.5c1.036 0 1.875.84 1.875 1.875v4.375ZM17.5 12.5a.625.625 0 0 0-.625-.625H12.5a.625.625 0 0 0-.625.625v4.375c0 .345.28.625.625.625h4.375c.345 0 .625-.28.625-.625V12.5Zm1.25 4.375c0 1.035-.84 1.875-1.875 1.875H12.5a1.875 1.875 0 0 1-1.875-1.875V12.5c0-1.036.84-1.875 1.875-1.875h4.375c1.035 0 1.875.84 1.875 1.875v4.375ZM15.313 8.75a.625.625 0 1 1-1.25 0V1.875a.625.625 0 1 1 1.25 0V8.75Z"/>
  <path d="M11.25 5.938a.625.625 0 1 1 0-1.25h6.875a.625.625 0 1 1 0 1.25H11.25Z"/>
</svg>
