<svg xmlns="http://www.w3.org/2000/svg" width="20" height="20" fill="currentColor" viewBox="0 0 20 20">
  <path fill-rule="evenodd" d="M15.625 1.25c.345 0 .625.28.625.625v2.5c0 .345-.28.625-.625.625h-2.5a.625.625 0 1 1 0-1.25H15V1.875c0-.345.28-.625.625-.625ZM3.75 15.625c0-.345.28-.625.625-.625h2.5a.625.625 0 1 1 0 1.25H5v1.875a.625.625 0 1 1-1.25 0v-2.5Z" clip-rule="evenodd"/>
  <path fill-rule="evenodd" d="M10 2.5a7.498 7.498 0 0 0-6.495 11.25.625.625 0 0 1-1.082.625A8.748 8.748 0 0 1 10 1.25c2.385 0 4.464.767 6.067 2.37a.625.625 0 1 1-.884.884C13.845 3.166 12.1 2.5 10 2.5Zm6.723 2.896a.625.625 0 0 1 .854.229A8.748 8.748 0 0 1 10 18.75c-2.385 0-4.464-.767-6.067-2.37a.625.625 0 0 1 .884-.884C6.155 16.834 7.9 17.5 10 17.5a7.498 7.498 0 0 0 6.495-11.25.625.625 0 0 1 .228-.854Z" clip-rule="evenodd"/>
  <path fill-rule="evenodd" d="M8.373 4.559a.625.625 0 0 1 .443-.184h2.424c.341 0 .62.273.625.614l.015.855c.281.131.545.29.79.473l.68-.39a.625.625 0 0 1 .854.232l1.232 2.16a.624.624 0 0 1-.232.85l-.677.39c.016.149.025.3.026.456v.005c0 .153-.007.307-.022.462l.697.416c.292.174.39.55.223.845l-1.21 2.126a.625.625 0 0 1-.863.228l-.687-.41c-.236.171-.49.32-.76.44l.003.801a.624.624 0 0 1-.634.628l-2.441-.033a.625.625 0 0 1-.617-.623l-.003-.816a4.582 4.582 0 0 1-.785-.47l-.678.39a.625.625 0 0 1-.855-.232L4.69 11.613a.625.625 0 0 1 .232-.851l.676-.39a4.178 4.178 0 0 1-.025-.46c0-.153.007-.308.022-.462l-.697-.417a.625.625 0 0 1-.222-.845l1.21-2.126a.625.625 0 0 1 .862-.228l.687.41c.236-.171.49-.319.76-.44l-.003-.801c0-.167.065-.326.182-.444Zm1.071 1.066.003.605a.625.625 0 0 1-.435.598c-.414.133-.79.354-1.106.638a.625.625 0 0 1-.739.074l-.512-.306-.591 1.04.528.316a.625.625 0 0 1 .292.661 3.361 3.361 0 0 0 .01 1.325.625.625 0 0 1-.301.666l-.51.293.613 1.073.51-.292a.625.625 0 0 1 .73.078c.332.3.714.534 1.133.681.25.088.417.323.418.587l.003.62 1.191.015-.002-.596a.625.625 0 0 1 .434-.598c.414-.133.79-.353 1.106-.638a.625.625 0 0 1 .739-.074l.512.306.591-1.04-.528-.316a.625.625 0 0 1-.292-.661 3.365 3.365 0 0 0-.01-1.325.625.625 0 0 1 .302-.666l.508-.293-.612-1.073-.509.293a.625.625 0 0 1-.731-.079 3.337 3.337 0 0 0-1.133-.681.625.625 0 0 1-.418-.579l-.012-.652H9.444Z" clip-rule="evenodd"/>
  <path fill-rule="evenodd" d="M10 10.938a.937.937 0 1 0 0-1.875.937.937 0 0 0 0 1.874Zm0 1.25a2.188 2.188 0 1 0 0-4.376 2.188 2.188 0 0 0 0 4.375Z" clip-rule="evenodd"/>
</svg>
