<svg xmlns="http://www.w3.org/2000/svg" width="21" height="20" fill="currentColor" viewBox="0 0 21 20">
  <g clip-path="url(#a)">
    <path fill-rule="evenodd" d="M15.19 12.5a1.875 1.875 0 1 1 0 3.75 1.875 1.875 0 0 1 0-3.75Zm0 1.25a.625.625 0 1 0 0 1.25.625.625 0 0 0 0-1.25Z" clip-rule="evenodd"/>
    <path fill-rule="evenodd" d="M15.772 9.65a.625.625 0 0 1 .808-.204l1.913 1.001c.305.16.424.536.266.842l-.324.625a4.1 4.1 0 0 1 .398.658l.76.036c.334.016.596.29.596.624v2.097a.625.625 0 0 1-.541.62l-.063.005-.659.02c-.046.11-.097.221-.156.33l-.002.005a4.52 4.52 0 0 1-.192.321l.407.703a.625.625 0 0 1-.233.858l-1.963 1.104a.626.626 0 0 1-.866-.267l-.294-.594a3.946 3.946 0 0 1-.674.02l-.313.587a.625.625 0 0 1-.84.259l-1.932-1.01a.626.626 0 0 1-.26-.852l.33-.614a4.093 4.093 0 0 1-.377-.618l-.66.022a.626.626 0 0 1-.64-.544l-.005-.062-.066-2.186a.625.625 0 0 1 .604-.644l.658-.022c.046-.111.1-.223.159-.333.057-.106.119-.21.185-.312l-.347-.567a.625.625 0 0 1 .202-.858l1.847-1.152.054-.03a.625.625 0 0 1 .809.233l.348.565a3.88 3.88 0 0 1 .716-.025l.314-.586.033-.054Zm.556 1.605a.625.625 0 0 1-.66.32 2.692 2.692 0 0 0-.981.009l-.137.03a.625.625 0 0 1-.682-.28l-.243-.393-.787.49.243.397.046.088a.626.626 0 0 1-.099.64 2.877 2.877 0 0 0-.489.867l-.045.139a.625.625 0 0 1-.578.444l-.458.015.028.937.46-.015.099.005c.229.03.426.183.507.405.132.36.331.691.593.972.16.171.21.416.134.632l-.04.091-.23.427.82.43.222-.414.054-.084a.625.625 0 0 1 .606-.237c.375.067.757.051 1.117-.038l.107-.017a.625.625 0 0 1 .604.346l.209.421.836-.47-.294-.507a.625.625 0 0 1 .06-.715 2.878 2.878 0 0 0 .535-1.006l.036-.092a.626.626 0 0 1 .542-.353l.476-.016v-.895l-.555-.026a.625.625 0 0 1-.557-.41 2.873 2.873 0 0 0-.498-.863l-.096-.107a.626.626 0 0 1-.098-.715l.227-.44-.813-.426-.221.414Z" clip-rule="evenodd"/>
    <path d="M9.577 1.25c3.81 0 6.96 2.83 7.447 6.5l.038.358.002.064a.625.625 0 0 1-1.239.104l-.008-.063-.033-.298A6.257 6.257 0 0 0 9.578 2.5c-3.46 0-6.263 2.797-6.263 6.243 0 3.153 2.38 5.799 5.437 6.225l.298.034.063.01A.625.625 0 0 1 9 16.25l-.064-.002-.357-.041c-3.662-.511-6.515-3.675-6.515-7.464 0-4.14 3.365-7.493 7.513-7.493Z"/>
    <path d="M9.746 4.375c.345 0 .625.28.625.625v2.952l.848 1.414.03.057a.625.625 0 0 1-1.066.64l-.036-.054-.937-1.562a.625.625 0 0 1-.09-.322V5c0-.345.28-.625.626-.625Z"/>
  </g>
  <defs>
    <clipPath id="a">
      <path d="M.814 0h20v20h-20z"/>
    </clipPath>
  </defs>
</svg>
