<svg xmlns="http://www.w3.org/2000/svg" width="20" height="20" fill="currentColor" viewBox="0 0 20 20">
  <path fill-rule="evenodd" d="M3.931 3.75c-.305 0-.59.15-.766.4l-1.744 2.5a.938.938 0 0 0 .765 1.475H3.77v6.622a.66.66 0 0 0 0 .018v2.11a.624.624 0 1 0 1.246 0v-1.76l5.13-3.001 4.84 2.697v2.064a.624.624 0 1 0 1.246 0v-8.75h1.583c.756 0 1.2-.854.765-1.475l-1.744-2.5a.934.934 0 0 0-.766-.4H3.931Zm10.557 4.375H5.552l4.577 2.55 4.36-2.55Zm-3.092 3.256 3.589 2v-4.1l-3.589 2.1Zm-2.519.027L5.015 9.256v4.412l3.862-2.26ZM2.785 6.875 4.093 5h11.814l1.308 1.875H2.785Z" clip-rule="evenodd"/>
  <path fill-rule="evenodd" d="M3.931 3.75c-.305 0-.59.15-.766.4l-1.744 2.5a.938.938 0 0 0 .765 1.475H3.77v6.622a.66.66 0 0 0 0 .018v2.11a.624.624 0 1 0 1.246 0v-1.76l5.13-3.001 4.84 2.697v2.064a.624.624 0 1 0 1.246 0v-8.75h1.583c.756 0 1.2-.854.765-1.475l-1.744-2.5a.934.934 0 0 0-.766-.4H3.931Zm10.557 4.375H5.552l4.577 2.55 4.36-2.55Zm-3.092 3.256 3.589 2v-4.1l-3.589 2.1Zm-2.519.027L5.015 9.256v4.412l3.862-2.26ZM2.785 6.875 4.093 5h11.814l1.308 1.875H2.785Z" clip-rule="evenodd"/>
</svg>
