<svg xmlns="http://www.w3.org/2000/svg" width="20" height="20" fill="currentColor" viewBox="0 0 20 20">
  <path fill-rule="evenodd" d="M1.094 3.107a2.02 2.02 0 0 1 2.03-2.013h6.554c.138 0 .262.06.348.154l3.744 4.12a.47.47 0 0 1 .122.316V8.28a.468.468 0 1 1-.936 0V6.406h-2.457c-.738 0-1.29-.63-1.29-1.342V2.03H3.125c-.61 0-1.094.487-1.094 1.077l-.02 11.424a.469.469 0 1 1-.936-.002l.02-11.423Zm9.052 1.957v-2.29l2.45 2.695h-2.097c-.167 0-.353-.155-.353-.405ZM4.06 9.844c-.603 0-1.092.49-1.092 1.094v6.874c0 .605.489 1.094 1.092 1.094h13.735c.604 0 1.093-.49 1.093-1.093v-6.875c0-.605-.49-1.094-1.093-1.094H4.06Zm-.156 1.094c0-.087.07-.157.156-.157h13.735c.086 0 .156.07.156.156v6.876c0 .086-.07.156-.156.156H4.06a.156.156 0 0 1-.156-.157v-6.875Zm9.558 1.401a.602.602 0 0 0-.212.238l-.85 1.643-.848-1.656a.654.654 0 0 0-.213-.237.504.504 0 0 0-.636.062.469.469 0 0 0-.113.313v3.337c0 .113.038.219.113.306h.006a.432.432 0 0 0 .624.007.462.462 0 0 0 .125-.313v-1.844l.45.875c.05.094.118.17.2.225a.568.568 0 0 0 .58 0 .544.544 0 0 0 .2-.225l.443-.868v1.837a.47.47 0 0 0 .125.319.43.43 0 0 0 .325.137c.124 0 .237-.05.318-.143a.45.45 0 0 0 .125-.313V12.72a.424.424 0 0 0-.131-.318c-.169-.188-.45-.182-.637-.063h.006Zm-6.037-.031c.056.031.1.081.131.144v.006a.367.367 0 0 1 0 .375l-1.08 1.9v1.306a.47.47 0 0 1-.131.325.464.464 0 0 1-.325.138.443.443 0 0 1-.318-.132.508.508 0 0 1-.131-.33v-1.307l-1.08-1.9a.383.383 0 0 1-.013-.375c.144-.25.462-.244.668-.113a.639.639 0 0 1 .231.25l.65 1.213.649-1.213a.625.625 0 0 1 .225-.25c.156-.1.368-.137.524-.037Zm9.877 3.475a.427.427 0 0 0-.3-.131h-1.299V12.72a.425.425 0 0 0-.13-.318.435.435 0 0 0-.65 0 .465.465 0 0 0-.125.318v3.244c0 .144.05.275.15.375.1.106.231.169.375.169H17a.427.427 0 0 0 .418-.425.428.428 0 0 0-.118-.294v-.006ZM8.985 12.37a.548.548 0 0 1 .2.27l1.105 3.33a.42.42 0 0 1-.05.357.378.378 0 0 1-.325.175.545.545 0 0 1-.325-.107.562.562 0 0 1-.193-.28l-.219-.707H8.117l-.225.719a.572.572 0 0 1-.187.275c-.187.15-.487.143-.63-.07a.386.386 0 0 1-.05-.355l1.105-3.332a.555.555 0 0 1 .2-.275c.2-.15.468-.15.655 0Zm-.337 1.332-.275.88h.55l-.275-.88Z" clip-rule="evenodd"/>
</svg>
