<svg xmlns="http://www.w3.org/2000/svg" width="20" height="20" fill="currentColor" viewBox="0 0 20 20">
  <path fill-rule="evenodd" d="M8.396 2.458a5.938 5.938 0 1 0 0 11.875 5.938 5.938 0 0 0 0-11.875ZM1.208 8.396a7.188 7.188 0 1 1 12.693 4.621l4.624 4.624a.625.625 0 1 1-.884.884l-4.624-4.624A7.188 7.188 0 0 1 1.208 8.396Zm7.855-2.771a.625.625 0 1 0-1.25 0v2.187H5.625a.625.625 0 1 0 0 1.25h2.188v2.188a.625.625 0 1 0 1.25 0V9.062h2.187a.625.625 0 1 0 0-1.25H9.063V5.625Z" clip-rule="evenodd"/>
</svg>
