<svg xmlns="http://www.w3.org/2000/svg" width="21" height="20" fill="currentColor" viewBox="0 0 21 20">
  <path d="M3.357 1.25c.345 0 .625.28.625.625v2.302C5.287 2.804 7.11 1.875 9.178 1.875c4.023 0 7.304 3.208 7.304 7.188 0 1.755-.64 3.36-1.698 4.605l4.015 4.015.042.047a.625.625 0 0 1-.879.88l-.047-.044-4.02-4.02a7.348 7.348 0 0 1-4.717 1.704c-3.257 0-6.024-2.1-6.963-5.01l-.086-.284-.014-.062a.625.625 0 0 1 1.199-.332l.02.061.07.234C4.18 13.254 6.467 15 9.178 15c3.354 0 6.054-2.669 6.054-5.938 0-3.268-2.7-5.937-6.054-5.937-1.952 0-3.68 1.023-4.788 2.5h3.342a.625.625 0 1 1 0 1.25H3.357a.625.625 0 0 1-.625-.625V1.875c0-.345.28-.625.625-.625Z"/>
</svg>
