<svg xmlns="http://www.w3.org/2000/svg" width="16" height="16" fill="currentColor" viewBox="0 0 16 16">
  <path fill-rule="evenodd" d="M8 4a1.5 1.5 0 1 0 0 3 1.5 1.5 0 0 0 0-3ZM5.5 5.5a2.5 2.5 0 1 1 5 0 2.5 2.5 0 0 1-5 0Zm-1 5.38.015 2.116a.5.5 0 0 1-1 .008L3.5 10.886C3.493 9.828 4.372 9 5.425 9H9.25a.5.5 0 0 1 0 1H5.425c-.533 0-.928.41-.925.88Z" clip-rule="evenodd"/>
  <path fill-rule="evenodd" d="M8 2a6 6 0 1 0 1.48 11.816.5.5 0 1 1 .249.968 7 7 0 1 1 5.051-5.041.5.5 0 1 1-.97-.245A6 6 0 0 0 8 2Z" clip-rule="evenodd"/>
  <path fill-rule="evenodd" d="M11.75 9a2.75 2.75 0 1 0 0 5.5 2.75 2.75 0 0 0 0-5.5ZM8 11.75a3.75 3.75 0 1 1 7.5 0 3.75 3.75 0 0 1-7.5 0Z" clip-rule="evenodd"/>
  <path fill-rule="evenodd" d="M13.33 10.624a.5.5 0 0 1 .046.705l-1.75 2a.5.5 0 0 1-.753 0l-.75-.856a.5.5 0 1 1 .753-.659l.373.427 1.375-1.57a.5.5 0 0 1 .705-.047Z" clip-rule="evenodd"/>
</svg>
