<svg xmlns="http://www.w3.org/2000/svg" width="16" height="16" fill="currentColor" viewBox="0 0 16 16">
  <path fill-rule="evenodd" d="M2 8.002a6 6 0 1 1 11.956.715A3.733 3.733 0 0 0 11.75 8c-.985 0-1.88.38-2.55 1H5.425c-1.053 0-1.932.828-1.925 1.886l.008 1.092A5.973 5.973 0 0 1 2 8.002Zm13-.004a7.08 7.08 0 0 1-.183 1.593 3.75 3.75 0 0 1-5.224 5.227A7 7 0 1 1 15 7.998ZM8 11.75c0 .825.267 1.588.719 2.208a5.974 5.974 0 0 1-4.204-1.074L4.5 10.88c-.003-.469.392-.879.925-.879h3.008A3.734 3.734 0 0 0 8 11.75ZM8 4a1.5 1.5 0 1 0 0 3 1.5 1.5 0 0 0 0-3ZM5.5 5.5a2.5 2.5 0 1 1 5 0 2.5 2.5 0 0 1-5 0ZM11.75 9a2.75 2.75 0 1 0 0 5.5 2.75 2.75 0 0 0 0-5.5Zm1.626 2.33a.5.5 0 0 0-.752-.66l-1.375 1.57-.373-.426a.5.5 0 0 0-.752.659l.75.856a.5.5 0 0 0 .752 0l1.75-2Z" clip-rule="evenodd"/>
</svg>
