<svg xmlns="http://www.w3.org/2000/svg" width="16" height="16" fill="currentColor" viewBox="0 0 16 16">
  <path d="M5 2a.5.5 0 0 1 0 1H2.784A.772.772 0 0 0 2 3.76V9.5h12V3.76c0-.41-.342-.76-.783-.76H11a.5.5 0 0 1 0-1h2.217C14.193 2 15 2.78 15 3.76v6.98c0 .98-.807 1.76-1.783 1.76H8.5V14H11a.5.5 0 0 1 0 1H5a.5.5 0 0 1 0-1h2.5v-1.5H2.784C1.808 12.5 1 11.72 1 10.74V3.76C1 2.78 1.808 2 2.784 2H5Zm-3 8.74c0 .41.342.76.784.76h10.433c.441 0 .783-.35.783-.76v-.24H2v.24ZM9.907 5c.766 0 1.364.63 1.364 1.38v.003l-.01 1.358a.757.757 0 0 1-.756.755H10.5c-.918-.01-4.027.004-4.959.004a.761.761 0 0 1-.76-.762l-.01-1.355A1.369 1.369 0 0 1 6.135 5h3.772ZM6.135 6a.368.368 0 0 0-.363.336l-.001.039v.001l.007 1.123c1.038-.002 3.436-.009 4.485-.004l.008-1.115-.002-.04A.37.37 0 0 0 9.907 6H6.135ZM8 1a1.75 1.75 0 1 1 0 3.5A1.75 1.75 0 0 1 8 1Zm0 1a.75.75 0 1 0 0 1.5A.75.75 0 0 0 8 2Z"/>
</svg>
