<svg xmlns="http://www.w3.org/2000/svg" width="16" height="16" fill="currentColor" viewBox="0 0 16 16">
  <path fill-rule="evenodd" d="M14 3H2v10h12V3ZM2 2a1 1 0 0 0-1 1v10a1 1 0 0 0 1 1h12a1 1 0 0 0 1-1V3a1 1 0 0 0-1-1H2Zm4 5a1 1 0 1 0 0-2 1 1 0 0 0 0 2Zm0 1a2 2 0 1 0 0-4 2 2 0 0 0 0 4ZM4 9.873c0-.05.026-.134.144-.224.12-.09.29-.149.456-.149h2.897c.173 0 .311.054.396.121.077.062.108.13.107.207v.672H4v-.627ZM4.6 8.5a1.78 1.78 0 0 0-1.059.352c-.295.223-.544.578-.541 1.028V11a.5.5 0 0 0 .5.5h5A.5.5 0 0 0 9 11V9.835c.007-.88-.802-1.335-1.503-1.335H4.6ZM9.5 5a.5.5 0 0 1 .5-.5h2.5a.5.5 0 0 1 0 1H10a.5.5 0 0 1-.5-.5Zm.5 1.5a.5.5 0 0 0 0 1h2.5a.5.5 0 0 0 0-1H10Z" clip-rule="evenodd"/>
</svg>
