<svg xmlns="http://www.w3.org/2000/svg" width="16" height="16" fill="currentColor" viewBox="0 0 16 16">
  <path d="M10.514 8.001a.5.5 0 0 1 .084.008c.012.002.023.007.035.01.02.006.039.01.057.018a.535.535 0 0 1 .224.183l.007.011a.5.5 0 0 1 .04.074l.007.023c.02.054.032.111.032.172v1.793l.5.5.5-.5V8.5a.5.5 0 0 1 .688-.463c1.102.448 1.812 1.444 1.812 2.713 0 1.008-.465 1.957-1.25 2.52l.002 1.229a.5.5 0 0 1-1 .002l-.002-1.5c0-.181.097-.349.255-.438.595-.334.995-1.026.995-1.813 0-.539-.182-.99-.5-1.325V10.5a.5.5 0 0 1-.146.354l-1 1a.498.498 0 0 1-.63.064l-.078-.064-1-1A.5.5 0 0 1 10 10.5V9.441c-.313.336-.5.784-.5 1.309 0 .777.424 1.479 1.003 1.818a.5.5 0 0 1 .247.432v1.5a.5.5 0 0 1-1 0v-1.234A3.155 3.155 0 0 1 8.5 10.75c0-1.278.757-2.266 1.805-2.71A.499.499 0 0 1 10.5 8l.014.001ZM13 1a1.5 1.5 0 0 1 1.5 1.5v4.25a.5.5 0 0 1-1 0V2.5A.5.5 0 0 0 13 2H2.5a.5.5 0 0 0-.5.5V11a.5.5 0 0 0 .5.5h3.567a.5.5 0 0 1 0 1H2.5A1.5 1.5 0 0 1 1 11V2.5A1.5 1.5 0 0 1 2.5 1H13ZM7.097 7c.7 0 1.408.5 1.403 1.333V9.5a.5.5 0 0 1-.5.5H3.5a.5.5 0 0 1-.5-.5V8.378a1.312 1.312 0 0 1 .486-1.01A1.58 1.58 0 0 1 4.49 7h2.608ZM4.489 8a.58.58 0 0 0-.36.134c-.095.08-.13.167-.129.24V9h3.5v-.672a.28.28 0 0 0-.098-.224A.463.463 0 0 0 7.097 8H4.489ZM5.75 3a1.75 1.75 0 1 1 0 3.5 1.75 1.75 0 0 1 0-3.5Zm5.75 2a.5.5 0 0 1 0 1h-2a.5.5 0 0 1 0-1h2ZM5.75 4a.75.75 0 1 0 0 1.5.75.75 0 0 0 0-1.5Zm5.75-.5a.5.5 0 0 1 0 1h-2a.5.5 0 0 1 0-1h2Z"/>
</svg>
