<svg xmlns="http://www.w3.org/2000/svg" width="16" height="16" fill="currentColor" viewBox="0 0 16 16">
  <path fill-rule="evenodd" d="M5.75 7.25a1.75 1.75 0 1 1 3.5 0 1.75 1.75 0 0 1-3.5 0ZM7.5 6.5a.75.75 0 1 0 0 1.5.75.75 0 0 0 0-1.5ZM6.38 9.525c-.685 0-1.385.571-1.38 1.38v1.12a.5.5 0 0 0 .5.5h4a.5.5 0 0 0 .5-.5v-1.166a1.297 1.297 0 0 0-1.302-1.334H6.38ZM6 10.899c-.001-.195.189-.374.38-.374h2.318c.163 0 .304.115.302.329v.671H6v-.626Z" clip-rule="evenodd"/>
  <path d="M10 6.5a.5.5 0 0 1 .5-.5h2a.5.5 0 0 1 0 1h-2a.5.5 0 0 1-.5-.5Zm.5 1a.5.5 0 0 0 0 1h2a.5.5 0 0 0 0-1h-2Z"/>
  <path fill-rule="evenodd" d="M2.5 1A1.5 1.5 0 0 0 1 2.5v8A1.5 1.5 0 0 0 2.5 12H3v1a1.5 1.5 0 0 0 1.5 1.5h9A1.5 1.5 0 0 0 15 13V5a1.5 1.5 0 0 0-1.5-1.5H13v-1A1.5 1.5 0 0 0 11.5 1h-9ZM12 3.5v-1a.5.5 0 0 0-.5-.5h-9a.5.5 0 0 0-.5.5v8a.5.5 0 0 0 .5.5H3V5a1.5 1.5 0 0 1 1.5-1.5H12ZM4 5a.5.5 0 0 1 .5-.5h9a.5.5 0 0 1 .5.5v8a.5.5 0 0 1-.5.5h-9A.5.5 0 0 1 4 13V5Z" clip-rule="evenodd"/>
</svg>
