<svg xmlns="http://www.w3.org/2000/svg" width="16" height="16" fill="currentColor" viewBox="0 0 16 16">
  <path fill-rule="evenodd" d="M14 3H2v10h12V3ZM2 2a1 1 0 0 0-1 1v10a1 1 0 0 0 1 1h12a1 1 0 0 0 1-1V3a1 1 0 0 0-1-1H2Z" clip-rule="evenodd"/>
  <path fill-rule="evenodd" d="M6 7a1 1 0 1 0 0-2 1 1 0 0 0 0 2Zm0 1a2 2 0 1 0 0-4 2 2 0 0 0 0 4ZM4.144 9.65c-.118.089-.145.172-.144.223v.627h4v-.672a.253.253 0 0 0-.107-.207.642.642 0 0 0-.396-.121H4.6a.781.781 0 0 0-.456.15Zm-.603-.798A1.78 1.78 0 0 1 4.6 8.5h2.897c.701 0 1.51.455 1.503 1.335V11a.5.5 0 0 1-.5.5h-5A.5.5 0 0 1 3 11V9.88c-.003-.45.246-.805.541-1.028ZM9.5 5a.5.5 0 0 1 .5-.5h2.5a.5.5 0 0 1 0 1H10a.5.5 0 0 1-.5-.5Zm0 2a.5.5 0 0 1 .5-.5h2.5a.5.5 0 0 1 0 1H10a.5.5 0 0 1-.5-.5Z" clip-rule="evenodd"/>
</svg>
