<svg xmlns="http://www.w3.org/2000/svg" width="16" height="16" fill="currentColor" viewBox="0 0 16 16">
  <path d="M6.67 4.53a.5.5 0 1 1 .339.94C5.97 5.844 5.179 6.82 5.179 8c0 .666.449 1.385.96 1.948l.11.13c.438.564.562 1.293.59 1.922h2.257c.04-.731.264-1.48.793-2.066l.097-.116a2.61 2.61 0 0 0 .253-.383.5.5 0 0 1 .88.477 3.63 3.63 0 0 1-.482.686l-.003.004c-.374.413-.545.998-.545 1.648v.25a.5.5 0 0 1-.41.49v1.276c0 .715-.611 1.233-1.288 1.234h-.922c-.678 0-1.29-.519-1.29-1.234V12.97a.499.499 0 0 1-.333-.47v-.17c0-.715-.106-1.336-.446-1.708C4.85 10.016 4.18 9.056 4.18 8c0-1.651 1.103-2.97 2.49-3.47Zm.51 9.736c0 .096.095.234.289.234h.922c.194 0 .288-.138.289-.234V13h-1.5v1.266ZM12.148 1.22a.5.5 0 0 1 .647-.163l1.53.802a.5.5 0 0 1 .211.673l-.26.5c.123.167.23.343.319.526l.608.03a.5.5 0 0 1 .477.499v1.677a.5.5 0 0 1-.484.5l-.53.017a3.155 3.155 0 0 1-.124.264l-.01.017a3.64 3.64 0 0 1-.146.241l.326.563a.5.5 0 0 1-.188.685l-1.567.884a.502.502 0 0 1-.693-.213l-.237-.473a3.13 3.13 0 0 1-.54.016l-.25.468a.5.5 0 0 1-.672.207L9.02 8.132a.502.502 0 0 1-.21-.68l.267-.493a3.342 3.342 0 0 1-.3-.495l-.529.018a.501.501 0 0 1-.517-.484l-.052-1.75a.5.5 0 0 1 .483-.515l.528-.018a2.948 2.948 0 0 1 .276-.516l-.279-.454a.501.501 0 0 1 .163-.687l1.477-.92.043-.025a.501.501 0 0 1 .648.186l.278.453c.188-.024.381-.032.574-.02l.251-.469.026-.043ZM3 7a.5.5 0 0 1 0 1H1.5a.5.5 0 0 1 0-1H3Zm9.593-4.496a.501.501 0 0 1-.53.255 2.143 2.143 0 0 0-.893.032.501.501 0 0 1-.546-.224l-.194-.315-.63.392.196.319a.5.5 0 0 1-.046.585 2.193 2.193 0 0 0-.253.378c-.07.13-.126.271-.176.428a.5.5 0 0 1-.46.35l-.367.011.023.751.367-.012.08.004a.5.5 0 0 1 .405.322c.107.29.266.556.475.782a.5.5 0 0 1 .073.577l-.184.342.656.343.178-.33.043-.068a.501.501 0 0 1 .487-.188c.296.054.601.04.893-.031a.5.5 0 0 1 .567.262l.167.336.669-.377-.237-.407a.5.5 0 0 1 .053-.575c.091-.107.174-.233.253-.378l.005-.008c.069-.131.123-.269.17-.418l.03-.072a.5.5 0 0 1 .43-.276l.383-.014v-.717l-.446-.02a.5.5 0 0 1-.445-.327 2.343 2.343 0 0 0-.474-.78.501.501 0 0 1-.078-.571l.182-.352-.65-.34-.176.33Zm-.913.996a1.5 1.5 0 1 1-.002 3.001A1.5 1.5 0 0 1 11.68 3.5Zm0 1a.5.5 0 1 0 0 1 .5.5 0 0 0 0-1Zm-8.354-.854a.5.5 0 0 1 .707 0l1 1 .034.038a.5.5 0 0 1-.703.703l-.038-.034-1-1a.5.5 0 0 1 0-.707ZM7 1.5a.5.5 0 0 1 .5.5v1.5l-.002.051a.5.5 0 0 1-.995 0L6.5 3.5V2a.5.5 0 0 1 .5-.5Z"/>
</svg>
