<svg xmlns="http://www.w3.org/2000/svg" width="16" height="16" fill="currentColor" viewBox="0 0 16 16">
  <g clip-path="url(#a)">
    <path fill-rule="evenodd" d="M8 1.967a6.033 6.033 0 1 0 0 12.066A6.033 6.033 0 0 0 8 1.967ZM.967 8a7.033 7.033 0 1 1 14.066 0A7.033 7.033 0 0 1 .967 8ZM4.5 8a.5.5 0 0 1 .5-.5h2.5V5a.5.5 0 0 1 1 0v2.5H11a.5.5 0 1 1 0 1H8.5V11a.5.5 0 0 1-1 0V8.5H5a.5.5 0 0 1-.5-.5Z" clip-rule="evenodd"/>
  </g>
  <defs>
    <clipPath id="a">
      <path d="M0 0h16v16H0z"/>
    </clipPath>
  </defs>
</svg>
