<svg xmlns="http://www.w3.org/2000/svg" width="16" height="16" fill="currentColor" viewBox="0 0 16 16">
  <path fill-rule="evenodd" d="M7.5 2a5.5 5.5 0 0 0-3.495 9.747L4 11.129v-.001A1.622 1.622 0 0 1 5.63 9.5H8a.5.5 0 0 1 0 1H5.63a.622.622 0 0 0-.63.622l.01 1.283c.748.38 1.594.595 2.49.595a.5.5 0 0 1 0 1 6.5 6.5 0 1 1 6.41-7.583.5.5 0 0 1-.986.166A5.502 5.502 0 0 0 7.5 2Zm-1 4.25a1.25 1.25 0 1 1 2.5 0 1.25 1.25 0 0 1-2.5 0ZM7.75 4a2.25 2.25 0 1 0 0 4.5 2.25 2.25 0 0 0 0-4.5Zm2.75 6.5V9.442c-.312.336-.5.783-.5 1.308 0 .777.424 1.48 1.003 1.819a.5.5 0 0 1 .247.431v1.5a.5.5 0 0 1-1 0v-1.232A3.157 3.157 0 0 1 9 10.75c0-1.274.751-2.258 1.793-2.705a.498.498 0 0 1 .632.191.496.496 0 0 1 .075.275v1.782l.5.5.5-.5V8.5a.5.5 0 0 1 .689-.463C14.289 8.485 15 9.48 15 10.75c0 1.008-.463 1.96-1.25 2.523l.002 1.226a.5.5 0 0 1-1 .002L12.75 13a.5.5 0 0 1 .255-.437c.595-.334.995-1.027.995-1.814 0-.539-.182-.99-.5-1.325V10.5a.5.5 0 0 1-.146.354l-1 1a.5.5 0 0 1-.708 0l-1-1a.5.5 0 0 1-.146-.354Z" clip-rule="evenodd"/>
</svg>
