<svg xmlns="http://www.w3.org/2000/svg" width="16" height="16" fill="currentColor" viewBox="0 0 16 16">
  <path d="M7.06 1.5a.5.5 0 0 1 0 1C4.525 2.5 2.483 4.522 2.483 7s2.042 4.5 4.577 4.5c2.146 0 3.942-1.451 4.439-3.401a.5.5 0 0 1 .969.247 5.46 5.46 0 0 1-1.204 2.265c.01.01.023.018.034.029l3.546 3.545a.478.478 0 0 1-.675.675l-3.546-3.545c-.016-.016-.029-.035-.042-.052A5.6 5.6 0 0 1 7.06 12.5c-3.073 0-5.577-2.455-5.577-5.5S3.987 1.5 7.06 1.5ZM11.983 5a.5.5 0 0 1 0 1h-3a.5.5 0 0 1 0-1h3Zm2.5-2a.5.5 0 0 1 0 1h-5.5a.5.5 0 0 1 0-1h5.5Zm0-2a.5.5 0 0 1 0 1h-5.5a.5.5 0 0 1 0-1h5.5Z"/>
</svg>
