<svg xmlns="http://www.w3.org/2000/svg" width="16" height="16" fill="currentColor" viewBox="0 0 16 16">
  <path d="m11.227 10.278 1.413.08.038.003c.006 0 .011.003.017.004a.402.402 0 0 1 .16.077l.01.007c.012.01.023.021.033.033l.008.01.006.006a.372.372 0 0 1 .053.095l.008.018a.372.372 0 0 1 .02.142l-.08 1.412a.375.375 0 0 1-.748-.043l.028-.508-1.562 1.396a.375.375 0 0 1-.5-.56l1.562-1.395-.508-.028a.375.375 0 0 1 .042-.749Z"/>
  <path fill-rule="evenodd" d="M11.5 8.231a3.5 3.5 0 1 1 0 7 3.5 3.5 0 0 1 0-7Zm0 1a2.5 2.5 0 1 0 0 5 2.5 2.5 0 0 0 0-5Z" clip-rule="evenodd"/>
  <path fill-rule="evenodd" d="M3.738.6a.5.5 0 0 1 .7.1l.87 1.16L6.177.7a.5.5 0 0 1 .8.6l-.698.931H9.5a2 2 0 0 1 2 2v.5l.077.002a1.5 1.5 0 0 1-.077 2.998H11l-.051-.003a.5.5 0 0 1-.449-.497v-3a1 1 0 0 0-1-1h-5a1 1 0 0 0-1 1v4.5a1 1 0 0 0 1 1H7a.5.5 0 1 1 0 1H4.5a2 2 0 0 1-2-2v-1l-.077-.002a1.5 1.5 0 0 1 0-2.996l.077-.002v-.5a2 2 0 0 1 1.841-1.994L3.638 1.3a.5.5 0 0 1 .1-.7Zm-1.29 5.134a.5.5 0 0 0 0 .994l.052.003v-1l-.051.003Zm9.052.997.051-.003a.5.5 0 0 0-.051-.997v1Z" clip-rule="evenodd"/>
  <path d="M8.085 6.951a.5.5 0 0 1 .83.56c-.5.74-1.16 1.22-1.915 1.22-.756 0-1.415-.48-1.915-1.22a.5.5 0 0 1 .83-.56c.4.593.79.78 1.085.78.294 0 .685-.187 1.085-.78ZM5.25 4.231a.75.75 0 1 1 0 1.5.75.75 0 0 1 0-1.5Zm3.5 0a.75.75 0 1 1 0 1.5.75.75 0 0 1 0-1.5Z"/>
</svg>
