<svg xmlns="http://www.w3.org/2000/svg" width="16" height="16" fill="currentColor" viewBox="0 0 16 16">
  <path d="M14 7.967a6 6 0 1 0-12 0 6 6 0 0 0 12 0Zm1 0a7 7 0 1 1-14 0 7 7 0 0 1 14 0Z"/>
  <path d="M10.474 3.59c.007-.024.045-.024.052 0 .074.244.299.917.633 1.251.334.334 1.007.56 1.25.633.025.007.025.045 0 .052-.243.074-.916.299-1.25.633-.334.334-.56 1.007-.633 1.25-.007.025-.045.025-.052 0-.074-.243-.299-.916-.633-1.25-.334-.334-1.007-.56-1.25-.633-.025-.007-.025-.045 0-.052.243-.073.916-.299 1.25-.633.334-.334.56-1.007.633-1.25Zm.249 5.5c.008-.024.046-.024.054 0 .054.174.19.553.385.748.195.195.575.331.748.386.024.007.024.045 0 .053-.173.054-.553.19-.748.385-.195.195-.33.575-.385.748-.008.024-.046.024-.054 0-.054-.173-.19-.553-.385-.748-.195-.195-.575-.33-.748-.385-.024-.008-.024-.046 0-.053.173-.055.553-.19.748-.386.195-.195.33-.574.385-.748ZM6.227 5.052a.025.025 0 0 1 .046 0c.115.255.642 1.381 1.218 1.957.576.576 1.702 1.103 1.957 1.218.02.009.02.037 0 .046-.255.115-1.38.642-1.957 1.218-.576.576-1.103 1.703-1.218 1.957a.025.025 0 0 1-.046 0c-.115-.254-.642-1.38-1.218-1.957-.576-.576-1.702-1.103-1.957-1.218a.025.025 0 0 1 0-.046c.255-.115 1.38-.642 1.957-1.218.576-.576 1.103-1.702 1.218-1.957Z"/>
</svg>
