<svg xmlns="http://www.w3.org/2000/svg" width="16" height="16" fill="currentColor" viewBox="0 0 16 16">
  <path fill-rule="evenodd" d="M2 7.25a5.25 5.25 0 0 0 5.25 5.25c.275 0 .5.225.5.5s-.225.5-.5.5A6.252 6.252 0 0 1 1 7.25 6.252 6.252 0 0 1 7.25 1a6.252 6.252 0 0 1 6.25 6.25c0 .275-.225.5-.5.5a.501.501 0 0 1-.5-.5 5.25 5.25 0 1 0-10.5 0Zm9.5.75c-.745 0-1.435.235-2 .63V4.96a.434.434 0 0 0-.15-.325.539.539 0 0 0-.705 0 .432.432 0 0 0-.145.33V9.04c0 .125.05.24.14.33l.01.01.05.03c-.44.585-.7 1.31-.7 2.095a3.5 3.5 0 1 0 3.5-3.5V8Zm0 6C10.115 14 9 12.88 9 11.5S10.115 9 11.5 9s2.5 1.12 2.5 2.5a2.5 2.5 0 0 1-2.5 2.5Zm1.96-2.69a.502.502 0 0 0-.11-.165l-1-1a.498.498 0 1 0-.705.705l.145.145H9.995c-.275 0-.5.225-.5.5s.225.5.5.5h1.795l-.145.145a.498.498 0 1 0 .705.705l1-1a.5.5 0 0 0 .11-.545v.01ZM6.555 4.89a.562.562 0 0 0-.22-.28.563.563 0 0 0-.665 0 .575.575 0 0 0-.215.28l-1.43 4.105v.01a.361.361 0 0 0 .05.34.346.346 0 0 0 .295.155c.12 0 .22-.03.315-.095a.58.58 0 0 0 .2-.275l.32-.97h1.59l.31.96c.04.115.105.205.19.275l.015.01c.1.065.205.105.33.105.125 0 .225-.05.3-.155.075-.11.09-.23.05-.355L6.565 4.895l-.01-.005ZM5.46 7.36 6 5.715l.54 1.645H5.46Zm3.89-2.725V4.63l.005.005H9.35Z" clip-rule="evenodd"/>
</svg>
