<svg xmlns="http://www.w3.org/2000/svg" width="16" height="16" fill="currentColor" viewBox="0 0 16 16">
  <path fill-rule="evenodd" d="M12.294 8.46a1.592 1.592 0 0 1 2.24 0c.62.62.62 1.62 0 2.24l-3.83 3.83a.485.485 0 0 1-.23.13l-1.216.305c-.085.02-.165.03-.25.03V15c-.265 0-.52-.105-.71-.295a.991.991 0 0 1-.266-.96h-.005l.306-1.215c.02-.09.07-.17.13-.23l3.83-3.84Zm1.536.71a.58.58 0 0 0-.826 0l-3.736 3.735-.27 1.08v.005l1.1-.265 3.732-3.729a.589.589 0 0 0 0-.825Z" clip-rule="evenodd"/>
  <path d="M11.5 1A1.5 1.5 0 0 1 13 2.5v1a.5.5 0 0 1-1 0v-1a.5.5 0 0 0-.5-.5h-9a.5.5 0 0 0-.5.5v9a.5.5 0 0 0 .5.5H7a.5.5 0 0 1 0 1H2.5A1.5 1.5 0 0 1 1 11.5v-9A1.5 1.5 0 0 1 2.5 1h9Z"/>
  <path d="M8.25 8a.5.5 0 0 1 .5.5v.25H9a.5.5 0 0 1 0 1h-.25V10a.5.5 0 0 1-1 0v-.25H7.5a.5.5 0 0 1 0-1h.25V8.5a.5.5 0 0 1 .5-.5Zm3.25-1a.5.5 0 0 1 .5.5V8a.5.5 0 0 1-1 0v-.5a.5.5 0 0 1 .5-.5Z"/>
  <path fill-rule="evenodd" d="M7.128 2.5a.5.5 0 0 1 .418.236c.305.492.559.827.846 1.112.288.286.626.54 1.118.851a.5.5 0 0 1 .013.836C8.56 6.19 8.15 6.616 7.535 7.523a.5.5 0 0 1-.828-.001c-.605-.898-1.04-1.31-1.998-1.994a.5.5 0 0 1 .01-.82c.993-.674 1.4-1.097 1.985-1.983a.5.5 0 0 1 .424-.225Zm-.017 1.381c-.367.48-.738.85-1.264 1.25.51.398.889.762 1.273 1.255a6.43 6.43 0 0 1 1.25-1.252 5.88 5.88 0 0 1-.683-.576 5.632 5.632 0 0 1-.576-.677Z" clip-rule="evenodd"/>
  <path d="M10.5 6a.5.5 0 0 1 0 1H10a.5.5 0 0 1 0-1h.5ZM13 6a.5.5 0 0 1 0 1h-.5a.5.5 0 0 1 0-1h.5Zm-1.5-1.5a.5.5 0 0 1 .5.5v.5a.5.5 0 0 1-1 0V5a.5.5 0 0 1 .5-.5Z"/>
</svg>
