<svg xmlns="http://www.w3.org/2000/svg" width="16" height="16" fill="currentColor" viewBox="0 0 16 16">
  <path d="M8.645 4.634a.54.54 0 0 1 .705 0c.095.085.15.2.15.325v3.668a3.483 3.483 0 0 1 2-.63v.006a3.5 3.5 0 1 1-2.8 1.404l-.05-.03-.01-.01a.462.462 0 0 1-.14-.33V4.964c0-.13.05-.245.145-.33ZM11.5 8.997c-1.385 0-2.5 1.12-2.5 2.5a2.5 2.5 0 0 0 5 0 2.497 2.497 0 0 0-2.5-2.5ZM7.25 1a6.252 6.252 0 0 1 6.25 6.248c0 .275-.225.5-.5.5a.502.502 0 0 1-.5-.5A5.248 5.248 0 0 0 7.25 2a5.248 5.248 0 1 0 0 10.496c.275 0 .5.225.5.5a.501.501 0 0 1-.5.5A6.25 6.25 0 0 1 1 7.247 6.251 6.251 0 0 1 7.25 1Zm3.4 9.151a.499.499 0 0 1 .704.705l-.144.145h1.795c.275 0 .5.225.5.5s-.225.5-.5.5H11.21l.144.146a.498.498 0 0 1-.705.704l-1-1a.502.502 0 0 1-.109-.165v.01a.5.5 0 0 1 .11-.545l1-1ZM5.67 4.608a.563.563 0 0 1 .665 0c.1.065.175.16.22.28l.01.006L7.99 8.997a.39.39 0 0 1-.05.355.349.349 0 0 1-.3.155.589.589 0 0 1-.33-.105l-.015-.01a.606.606 0 0 1-.19-.275l-.31-.96h-1.59l-.32.97a.581.581 0 0 1-.2.275.533.533 0 0 1-.315.095c-.12 0-.22-.05-.295-.155a.361.361 0 0 1-.05-.34v-.01l1.43-4.103a.575.575 0 0 1 .215-.28Zm-.21 2.75h1.08L6 5.712l-.54 1.644Zm3.894-2.724H9.35v-.005l.004.005Z"/>
</svg>
