<svg xmlns="http://www.w3.org/2000/svg" width="16" height="16" fill="currentColor" viewBox="0 0 16 16">
  <path d="M5.524 1.5a.5.5 0 0 0-1 0v1.983a.5.5 0 0 0 1 0v-.491h2.99v.491a.5.5 0 0 0 1 0V1.5a.5.5 0 0 0-1 0v.492h-2.99V1.5Z"/>
  <path d="M2 3.513c0-.15.057-.261.16-.344.11-.09.303-.169.59-.169H3a.5.5 0 0 0 0-1h-.25c-.463 0-.895.127-1.222.393A1.417 1.417 0 0 0 1 3.513v8.872c0 .902.755 1.596 1.643 1.597h.002L5.497 14a.5.5 0 1 0 .006-1l-2.855-.018h-.003c-.377 0-.645-.287-.645-.597V5.5h10a.5.5 0 0 0 1 0V3.552C13 2.621 12.149 2 11.25 2H11a.5.5 0 0 0 0 1h.25c.508 0 .75.321.75.552V4.5H2v-.987Z"/>
  <path fill-rule="evenodd" d="M10.3 9.095c.08.05.146.131.182.222l1 2.737a.32.32 0 0 1-.045.293.338.338 0 0 1-.293.147.538.538 0 0 1-.293-.086.48.48 0 0 1-.177-.232l-.197-.581H9.51l-.202.59a.48.48 0 0 1-.172.228c-.166.126-.44.121-.57-.056-.066-.09-.087-.196-.046-.292l1.006-2.743a.47.47 0 0 1 .182-.227.509.509 0 0 1 .59 0Zm-.308 1.096-.248.727h.495l-.247-.727Z" clip-rule="evenodd"/>
  <path d="M12.383 9c.105 0 .194.035.267.106.074.07.1.162.1.258v2.772a.352.352 0 0 1-.11.258.39.39 0 0 1-.53.005l-.005-.01a.357.357 0 0 1-.105-.253V9.364c0-.096.037-.187.11-.258A.407.407 0 0 1 12.383 9Z"/>
  <path fill-rule="evenodd" d="M10.75 6.5a4.25 4.25 0 1 0-.001 8.499A4.25 4.25 0 0 0 10.75 6.5ZM7.5 10.75a3.25 3.25 0 1 1 6.499-.001 3.25 3.25 0 0 1-6.499.001Z" clip-rule="evenodd"/>
</svg>
