<svg xmlns="http://www.w3.org/2000/svg" width="16" height="16" fill="currentColor" viewBox="0 0 16 16">
  <path d="M9.5 2c.136 0 .258.055.348.143h.002l3.5 3.42.068.164a.496.496 0 0 1 .068.162l.014.032V7a.5.5 0 0 1-1 0v-.5h-2.3A1.2 1.2 0 0 1 9 5.3V3H3.901C3.393 3 3 3.4 3 3.87v10.26c0 .47.393.87.901.87H6.5a.5.5 0 0 1 0 1H3.901C2.862 16 2 15.174 2 14.13V3.87C2 2.825 2.862 2 3.901 2H9.5Zm1.75 5.5a4.25 4.25 0 1 1 0 8.5 4.25 4.25 0 1 1 0-8.5Zm0 1a3.25 3.25 0 1 0-.001 6.499A3.25 3.25 0 0 0 11.25 8.5Zm1.633 1.5c.105 0 .194.036.267.106h-.01c.073.071.11.162.11.257v2.774a.352.352 0 0 1-.11.257.39.39 0 0 1-.53.005l-.005-.01a.357.357 0 0 1-.105-.252v-2.774c0-.095.037-.186.11-.257a.406.406 0 0 1 .273-.106Zm-2.674.095a.509.509 0 0 1 .59 0c.082.05.147.131.182.222l1.001 2.738a.32.32 0 0 1-.044.293.34.34 0 0 1-.294.146.538.538 0 0 1-.293-.086.48.48 0 0 1-.177-.232l-.197-.581h-.965l-.202.59a.482.482 0 0 1-.172.228c-.167.126-.44.121-.572-.056-.065-.09-.086-.197-.045-.292l1.005-2.743a.473.473 0 0 1 .183-.227Zm.035 1.823h.495l-.248-.728-.247.728ZM10 5.301a.2.2 0 0 0 .2.199h1.655L10 3.687V5.3Z"/>
</svg>
