<svg xmlns="http://www.w3.org/2000/svg" width="16" height="16" fill="none" viewBox="0 0 16 16">
  <path fill="#3D3C3C" fill-rule="evenodd" d="M5 5.288C5.03 3.43 6.424 2 8.063 2c1.292 0 2.426.883 2.867 2.166a2.642 2.642 0 0 0-.628.322.5.5 0 0 0 .571.821c.247-.172.584-.309 1.074-.309.5 0 1.015.241 1.412.65.396.408.641.948.641 1.495 0 .482-.07.788-.217 1.177a.5.5 0 1 0 .934.356c.187-.491.283-.917.283-1.533 0-.842-.372-1.624-.923-2.192-.55-.566-1.312-.953-2.13-.953h-.02c-.522-1.719-2.036-3-3.864-3C5.9 1 4.184 2.785 4.013 4.988a2.321 2.321 0 0 0-1.137.131C1.746 5.553 1 6.612 1 7.76c0 1.204.74 2.247 1.804 2.7a.5.5 0 1 0 .392-.919A1.947 1.947 0 0 1 2 7.76c0-.713.47-1.414 1.233-1.706.243-.093.51-.12.905-.03a.488.488 0 0 0 .025.005l.36.064A.5.5 0 0 0 5 5.289ZM5.5 6.5a1 1 0 0 0-1 1V14a1 1 0 0 0 1 1h8a1 1 0 0 0 1-1v-3.498a1 1 0 0 0-1.28-.96l-2.72.792V7.5a1 1 0 0 0-1-1h-4Zm5 4.875V14h3v-3.498l-3 .873Zm-1-.75V10h-4v1.5h4v-.875Zm0 1.875h-4V14h4v-1.5Zm0-5V9h-4V7.5h4Z" clip-rule="evenodd"/>
</svg>
