<svg xmlns="http://www.w3.org/2000/svg" width="16" height="16" fill="none" viewBox="0 0 16 16">
  <path fill="#3D3C3C" fill-rule="evenodd" d="M8.553 9.66a.5.5 0 0 1 .672-.222l2.75 1.385a.5.5 0 0 1-.45.893l-2.75-1.385a.5.5 0 0 1-.222-.671Z" clip-rule="evenodd"/>
  <path fill="#3D3C3C" fill-rule="evenodd" d="M14.947 9.66a.5.5 0 0 1-.222.671l-2.75 1.385a.5.5 0 1 1-.45-.893l2.75-1.385a.5.5 0 0 1 .672.222Zm-2.736-1.382a.5.5 0 0 1-.226.67l-2.763 1.37a.5.5 0 1 1-.444-.896l2.763-1.37a.5.5 0 0 1 .67.226Z" clip-rule="evenodd"/>
  <path fill="#3D3C3C" fill-rule="evenodd" d="M11.303 8.275a.5.5 0 0 1 .672-.222l2.75 1.385a.5.5 0 0 1-.45.893l-2.75-1.384a.5.5 0 0 1-.222-.672ZM9 9.385a.5.5 0 0 1 .5.5v3.23a.5.5 0 0 1-1 0v-3.23a.5.5 0 0 1 .5-.5Z" clip-rule="evenodd"/>
  <path fill="#3D3C3C" fill-rule="evenodd" d="M14.5 9.385a.5.5 0 0 1 .5.5v3.23a.5.5 0 0 1-1 0v-3.23a.5.5 0 0 1 .5-.5Zm-2.75 1.385a.5.5 0 0 1 .5.5v3.23a.5.5 0 0 1-1 0v-3.23a.5.5 0 0 1 .5-.5Z" clip-rule="evenodd"/>
  <path fill="#3D3C3C" fill-rule="evenodd" d="M8.553 12.89a.5.5 0 0 1 .672-.221l2.75 1.384a.5.5 0 0 1-.45.894l-2.75-1.385a.5.5 0 0 1-.222-.671Z" clip-rule="evenodd"/>
  <path fill="#3D3C3C" fill-rule="evenodd" d="M14.947 12.89a.5.5 0 0 1-.222.672l-2.75 1.385a.5.5 0 1 1-.45-.894l2.75-1.384a.5.5 0 0 1 .672.222ZM9.981 1.131l.002.001 1.55.94h.001a.942.942 0 0 1 .33 1.256m0 .001-.515.939c.31.406.565.863.75 1.358h.99c.529 0 .911.445.911.932V7a.5.5 0 0 1-1 0v-.374h-.97a.9.9 0 0 1-.85-.603 4.293 4.293 0 0 0-.647-1.176.947.947 0 0 1-.077-1.03l.506-.923-1.407-.852-.485.882a.893.893 0 0 1-.935.462 3.877 3.877 0 0 0-1.273 0H6.86a.897.897 0 0 1-.93-.462l-.485-.882-1.407.852.506.922a.947.947 0 0 1-.074 1.026l-.002.003-.002.003c-.272.346-.49.743-.647 1.178v.001a.905.905 0 0 1-.848.6H2v1.747h.97a.9.9 0 0 1 .85.603c.156.432.377.829.647 1.176a.946.946 0 0 1 .077 1.03l-.506.923 1.407.852.485-.882a.893.893 0 0 1 .939-.46.5.5 0 0 1-.09.991l-.503.915a.896.896 0 0 1-1.257.347l-.002-.001-1.55-.94h-.001a.942.942 0 0 1-.33-1.257l.515-.938a5.294 5.294 0 0 1-.75-1.36h-.99C1.382 9.374 1 8.93 1 8.443V6.558c0-.495.39-.932.911-.932h.99c.184-.493.435-.95.75-1.359l-.515-.937a.943.943 0 0 1 .326-1.256l.003-.002 1.557-.943a.899.899 0 0 1 1.253.347l.501.911a4.867 4.867 0 0 1 1.448 0l.5-.909a.896.896 0 0 1 1.257-.347M6.807 12.558Zm0-10.116Z" clip-rule="evenodd"/>
  <path fill="#3D3C3C" fill-rule="evenodd" d="M7.81 5.718A1.812 1.812 0 0 0 5.718 7.81c.126.775.688 1.387 1.402 1.504a.5.5 0 1 1-.163.987c-1.197-.197-2.04-1.194-2.226-2.33m3.08-2.253c.776.128 1.387.69 1.503 1.401a.5.5 0 1 0 .987-.161c-.196-1.198-1.194-2.04-2.328-2.227A2.812 2.812 0 0 0 4.73 7.97" clip-rule="evenodd"/>
</svg>
