<svg xmlns="http://www.w3.org/2000/svg" width="16" height="16" fill="currentColor" viewBox="0 0 16 16">
  <path d="M13.5 6.5a1 1 0 0 1 1 1V14a1 1 0 0 1-1 1h-8a1 1 0 0 1-1-1v-3.498a1 1 0 0 1 1.28-.96l2.72.791V7.5a1 1 0 0 1 1-1h4Zm-8 7.5h3v-2.625l-3-.873V14Zm4 0h4V7.5h-4V14Zm1-3a.5.5 0 0 1 .5.5v1a.5.5 0 0 1-1 0v-1a.5.5 0 0 1 .5-.5Zm2 0a.5.5 0 0 1 .5.5v1a.5.5 0 0 1-1 0v-1a.5.5 0 0 1 .5-.5ZM8.063 1c1.828 0 3.338 1.282 3.86 3h.024c.699 0 1.357.283 1.874.716a.5.5 0 0 1-.641.767C12.812 5.175 12.374 5 11.947 5c-.49 0-.827.138-1.074.31a.5.5 0 0 1-.571-.822c.183-.127.391-.236.627-.32C10.489 2.884 9.355 2 8.063 2 6.423 2 5.03 3.432 5.001 5.292a.498.498 0 0 1-.478.8l-.36-.063-.025-.005c-.346-.08-.593-.068-.812-.002l-.093.032C2.47 6.346 2 7.047 2 7.76c0 .782.482 1.475 1.196 1.78a.5.5 0 0 1-.392.92A2.947 2.947 0 0 1 1 7.76c0-1.149.747-2.208 1.877-2.64.357-.136.724-.18 1.138-.13C4.185 2.786 5.9 1 8.063 1ZM10.5 8.5a.5.5 0 0 1 .5.5v1a.5.5 0 0 1-1 0V9a.5.5 0 0 1 .5-.5Zm2 0a.5.5 0 0 1 .5.5v1a.5.5 0 0 1-1 0V9a.5.5 0 0 1 .5-.5Z"/>
</svg>
