<svg xmlns="http://www.w3.org/2000/svg" width="16" height="16" fill="currentColor" viewBox="0 0 16 16">
  <path fill-rule="evenodd" d="M1.5 1a.5.5 0 0 1 .5.5v12a.5.5 0 0 0 .5.5h12a.5.5 0 0 1 0 1h-12A1.5 1.5 0 0 1 1 13.5v-12a.5.5 0 0 1 .5-.5Zm11.858 2.614.141 1.432a.5.5 0 0 0 .995-.097l-.236-2.405a.75.75 0 0 0-.836-.671l-2.483.299a.5.5 0 0 0 .12.993l1.52-.183-3.182 4.771-2.52-2.16a1 1 0 0 0-1.592.423l-2.256 6.316a.5.5 0 0 0 .942.336l2.255-6.315L8.96 8.696a.75.75 0 0 0 1.112-.153l3.287-4.93Z" clip-rule="evenodd"/>
</svg>
