<svg xmlns="http://www.w3.org/2000/svg" width="16" height="16" fill="currentColor" viewBox="0 0 16 16">
  <g clip-path="url(#a)">
    <path fill-rule="evenodd" d="M6.847 1.967a4.88 4.88 0 1 0 0 9.761 4.88 4.88 0 0 0 0-9.761Zm-5.88 4.88a5.88 5.88 0 1 1 10.377 3.79l3.543 3.543a.5.5 0 0 1-.707.707l-3.543-3.543a5.88 5.88 0 0 1-9.67-4.497ZM7.72 4.332a.5.5 0 0 0-.93-.029L5.42 7.5H3.5a.5.5 0 0 0 0 1h2.25a.5.5 0 0 0 .46-.303l.998-2.329.821 2.3A.5.5 0 0 0 8.5 8.5h2a.5.5 0 0 0 0-1H8.852L7.721 4.332Z" clip-rule="evenodd"/>
  </g>
  <defs>
    <clipPath id="a">
      <path d="M0 0h16v16H0z"/>
    </clipPath>
  </defs>
</svg>
