<svg xmlns="http://www.w3.org/2000/svg" width="16" height="16" fill="none" viewBox="0 0 16 16">
  <path fill="#3D3C3C" fill-rule="evenodd" d="M6.966 2.089a6.005 6.005 0 0 0-4.13 2.853h3.689a.51.51 0 0 1 .018 0h2.064L6.966 2.09Zm-5.347 3.03a.498.498 0 0 0-.116.271A6.98 6.98 0 0 0 1 8c0 1.527.489 2.94 1.318 4.09a.503.503 0 0 0 .207.273 7.002 7.002 0 0 0 11.856-1.481.498.498 0 0 0 .116-.272A6.981 6.981 0 0 0 15 8c0-1.527-.489-2.94-1.318-4.09a.498.498 0 0 0-.207-.273A7.001 7.001 0 0 0 1.619 5.118Zm10.967-.989A5.987 5.987 0 0 0 8.069 2l.364.635 2.507 4.358 1.646-2.863Zm.632.906-1.815 3.156a.504.504 0 0 1-.063.111l-1.01 1.755h3.308A5.99 5.99 0 0 0 14 8c0-1.078-.284-2.09-.782-2.964Zm-.055 6.022H7.398l1.043 1.813.495.885a.5.5 0 0 1 .057.162 6.005 6.005 0 0 0 4.17-2.86ZM7.927 14l-.357-.637-1.44-2.503a.5.5 0 0 1-.063-.11L5.063 9.002l-1.038 1.804-.61 1.063A5.987 5.987 0 0 0 7.926 14Zm-5.145-3.036 2.887-5.022H2.362A5.989 5.989 0 0 0 2 8c0 1.078.284 2.09.782 2.964Zm4.041-5.022h2.359l1.18 2.054-1.185 2.062H6.823L5.64 8l1.183-2.058Z" clip-rule="evenodd"/>
</svg>
