<svg xmlns="http://www.w3.org/2000/svg" width="16" height="16" fill="currentColor" viewBox="0 0 16 16">
  <g clip-path="url(#a)">
    <path fill-rule="evenodd" d="M4.5 2a.5.5 0 1 1 1 0 .5.5 0 0 1-1 0ZM5 .5a1.5 1.5 0 1 0 .271 2.976L6 4.187V4.5h-.26c-.691 0-1.24.567-1.24 1.252V6h-.315l-.827-.849-.004-.004a1.5 1.5 0 1 0-.707.707l.97.995A.5.5 0 0 0 3.973 7H4.5v1.5h-.526a.5.5 0 0 0-.358.151l-.97.995a1.5 1.5 0 1 0 .707.707l.005-.004.827-.849H4.5v.748c0 .685.549 1.252 1.24 1.252H6v.813l-.544.531a1.5 1.5 0 1 0 .52.89l.873-.853A.5.5 0 0 0 7 12.524V11.5h2v1.024a.5.5 0 0 0 .15.357l.874.853a1.5 1.5 0 1 0 .52-.89L10 12.313V11.5h.26c.691 0 1.24-.567 1.24-1.252V9.5h.815l.53.544a1.5 1.5 0 1 0 .89-.52l-.851-.873a.5.5 0 0 0-.358-.151H11.5V7h1.026a.5.5 0 0 0 .358-.151l.85-.873a1.5 1.5 0 1 0-.89-.52l-.53.544H11.5v-.248c0-.685-.549-1.252-1.24-1.252H10v-.313l.729-.711a1.5 1.5 0 1 0-.891-.527l-.687.67A.5.5 0 0 0 9 3.976V4.5H7v-.524a.5.5 0 0 0-.15-.357l-.688-.671A1.5 1.5 0 0 0 5 .5Zm4.5 5H5.74a.246.246 0 0 0-.24.252v4.496c0 .146.115.252.24.252h4.52c.125 0 .24-.106.24-.252V5.752a.246.246 0 0 0-.24-.252H9.5Zm-8 5.5a.5.5 0 1 1 1 0 .5.5 0 0 1-1 0Zm12.5-.5a.5.5 0 1 0 0 1 .5.5 0 0 0 0-1ZM4 14a.5.5 0 1 1 1 0 .5.5 0 0 1-1 0Zm7.5-.5a.5.5 0 1 0 0 1 .5.5 0 0 0 0-1Zm-10-9a.5.5 0 1 1 1 0 .5.5 0 0 1-1 0ZM14 4a.5.5 0 1 0 0 1 .5.5 0 0 0 0-1Zm-3-2.5a.5.5 0 1 0 0 1 .5.5 0 0 0 0-1Z" clip-rule="evenodd"/>
  </g>
  <defs>
    <clipPath id="a">
      <path d="M0 0h16v16H0z"/>
    </clipPath>
  </defs>
</svg>
