<svg xmlns="http://www.w3.org/2000/svg" width="16" height="16" fill="currentColor" viewBox="0 0 16 16">
  <path d="M8 1a1.5 1.5 0 0 1 .491 2.915A.5.5 0 0 1 8.5 4v.5H10l.077.002A1.5 1.5 0 0 1 11.5 6v1.5h.587a1.5 1.5 0 1 1 0 1H11.5V10a1.5 1.5 0 0 1-1.5 1.5H8.5v.587a1.5 1.5 0 1 1-1 0V11.5H6a1.5 1.5 0 0 1-1.498-1.423L4.5 10V8.5h-.587a1.5 1.5 0 1 1 0-1H4.5V6A1.5 1.5 0 0 1 6 4.5h1.5V4a.48.48 0 0 1 .008-.085A1.499 1.499 0 0 1 8 1Zm0 12a.5.5 0 1 0 0 1 .5.5 0 0 0 0-1ZM6 5.5a.5.5 0 0 0-.5.5v4l.003.052A.5.5 0 0 0 6 10.5h4a.5.5 0 0 0 .5-.5V6a.5.5 0 0 0-.448-.497L10 5.5H6Zm3.103.506A1 1 0 0 1 10 7v2a1 1 0 0 1-1 1H7a1 1 0 0 1-.994-.897L6 9V7a1 1 0 0 1 1-1h2l.103.006ZM7 9h2V7H7v2ZM2.5 7.5a.5.5 0 1 0 0 1 .5.5 0 0 0 0-1Zm11 0a.5.5 0 1 0 0 1 .5.5 0 0 0 0-1ZM8 2a.5.5 0 1 0 0 1 .5.5 0 0 0 0-1Z"/>
</svg>
