<svg xmlns="http://www.w3.org/2000/svg" width="16" height="16" fill="currentColor" viewBox="0 0 16 16">
  <g clip-path="url(#a)">
    <path fill-rule="evenodd" d="M5.142 2.65a.5.5 0 0 1 .707-.008l1 .977A.5.5 0 0 1 7 3.976V5a.5.5 0 0 1-1 0v-.813l-.85-.83a.5.5 0 0 1-.008-.706Zm5.716 0a.5.5 0 0 0-.707-.008l-1 .977A.5.5 0 0 0 9 3.976V5a.5.5 0 0 0 1 0v-.813l.85-.83a.5.5 0 0 0 .008-.706ZM2.651 5.142a.5.5 0 0 1 .707.01L4.185 6H5a.5.5 0 0 1 0 1H3.974a.5.5 0 0 1-.358-.151l-.974-1a.5.5 0 0 1 .01-.707Zm11.198 0a.5.5 0 0 0-.707.01L12.315 6H11.5a.5.5 0 0 0 0 1h1.026a.5.5 0 0 0 .358-.151l.974-1a.5.5 0 0 0-.01-.707ZM6.5 11a.5.5 0 0 1 .5.5v1.024a.5.5 0 0 1-.15.357l-1 .977a.5.5 0 1 1-.7-.716l.85-.829V11.5a.5.5 0 0 1 .5-.5Zm3 0a.5.5 0 0 0-.5.5v1.024a.5.5 0 0 0 .15.357l1 .977a.5.5 0 1 0 .7-.716l-.85-.829V11.5a.5.5 0 0 0-.5-.5ZM3.616 8.651a.5.5 0 0 1 .358-.151H5a.5.5 0 0 1 0 1h-.815l-.827.849a.5.5 0 0 1-.716-.698l.974-1Zm9.268 0a.5.5 0 0 0-.358-.151H11.5a.5.5 0 0 0 0 1h.815l.827.849a.5.5 0 1 0 .716-.698l-.974-1Z" clip-rule="evenodd"/>
    <path fill-rule="evenodd" d="M2 10.5a.5.5 0 1 0 0 1 .5.5 0 0 0 0-1ZM.5 11a1.5 1.5 0 1 1 3 0 1.5 1.5 0 0 1-3 0Zm13.5-.5a.5.5 0 1 0 0 1 .5.5 0 0 0 0-1Zm-1.5.5a1.5 1.5 0 1 1 3 0 1.5 1.5 0 0 1-3 0Zm-8 2.5a.5.5 0 1 0 0 1 .5.5 0 0 0 0-1ZM3 14a1.5 1.5 0 1 1 3 0 1.5 1.5 0 0 1-3 0Zm8.5-.5a.5.5 0 1 0 0 1 .5.5 0 0 0 0-1ZM10 14a1.5 1.5 0 1 1 3 0 1.5 1.5 0 0 1-3 0ZM2 4a.5.5 0 1 0 0 1 .5.5 0 0 0 0-1Zm-1.5.5a1.5 1.5 0 1 1 3 0 1.5 1.5 0 0 1-3 0ZM14 4a.5.5 0 1 0 0 1 .5.5 0 0 0 0-1Zm-1.5.5a1.5 1.5 0 1 1 3 0 1.5 1.5 0 0 1-3 0ZM5 1.5a.5.5 0 1 0 0 1 .5.5 0 0 0 0-1ZM3.5 2a1.5 1.5 0 1 1 3 0 1.5 1.5 0 0 1-3 0Zm7.5-.5a.5.5 0 1 0 0 1 .5.5 0 0 0 0-1ZM9.5 2a1.5 1.5 0 1 1 3 0 1.5 1.5 0 0 1-3 0ZM5.74 5.5a.246.246 0 0 0-.24.252v4.496c0 .146.115.252.24.252h4.52c.125 0 .24-.106.24-.252V5.752a.246.246 0 0 0-.24-.252H5.74Zm-1.24.252c0-.685.549-1.252 1.24-1.252h4.52c.691 0 1.24.567 1.24 1.252v4.496c0 .685-.549 1.252-1.24 1.252H5.74c-.691 0-1.24-.567-1.24-1.252V5.752Z" clip-rule="evenodd"/>
  </g>
  <defs>
    <clipPath id="a">
      <path d="M0 0h16v16H0z"/>
    </clipPath>
  </defs>
</svg>
