<svg xmlns="http://www.w3.org/2000/svg" width="16" height="16" fill="currentColor" viewBox="0 0 16 16">
  <path fill-rule="evenodd" d="M8.438 1.113a26.427 26.427 0 0 0 4.866 1.997l.006.001c.38.115.69.456.69.897v5.565c0 .76-.344 1.45-.81 2.04-.467.59-1.086 1.12-1.715 1.568-1.257.9-2.626 1.533-3.102 1.742l-.009.004a.942.942 0 0 1-.728 0l-.008-.004c-.48-.21-1.848-.843-3.105-1.742-.628-.449-1.248-.978-1.714-1.57C2.344 11.024 2 10.334 2 9.574v-5.56c0-.433.3-.787.696-.899a26.285 26.285 0 0 0 4.86-2 .917.917 0 0 1 .882-.001Zm-.44.898A27.304 27.304 0 0 1 3 4.067v5.506c0 .452.206.928.594 1.42.386.489.924.955 1.51 1.375 1.15.822 2.417 1.416 2.896 1.627.478-.212 1.744-.805 2.894-1.627.587-.42 1.125-.886 1.512-1.376.388-.492.594-.968.594-1.42v-5.51a27.46 27.46 0 0 1-5.002-2.05Z" clip-rule="evenodd"/>
  <path fill-rule="evenodd" d="M10.854 5.646a.5.5 0 0 1 0 .708l-3.5 3.5a.5.5 0 0 1-.707 0l-1.5-1.502a.5.5 0 1 1 .707-.707L7 8.793l3.145-3.147a.5.5 0 0 1 .707 0Z" clip-rule="evenodd"/>
</svg>
