<svg xmlns="http://www.w3.org/2000/svg" width="16" height="16" fill="currentColor" viewBox="0 0 16 16">
  <path fill-rule="evenodd" d="M13.304 3.11a26.45 26.45 0 0 1-4.866-1.997.917.917 0 0 0-.882 0 26.285 26.285 0 0 1-4.86 2.001.942.942 0 0 0-.696.898v5.56c0 .76.344 1.45.809 2.04.466.591 1.086 1.12 1.714 1.57 1.257.898 2.626 1.532 3.105 1.741l.008.004a.942.942 0 0 0 .728 0l.01-.004c.475-.21 1.844-.843 3.101-1.742.629-.449 1.248-.978 1.715-1.569.466-.589.81-1.28.81-2.04V4.009c0-.441-.31-.782-.69-.897l-.006-.001ZM3 4.067c.8-.237 2.812-.882 4.998-2.056A27.46 27.46 0 0 0 13 4.062v5.51c0 .452-.206.929-.594 1.42-.387.49-.925.956-1.512 1.376-1.15.822-2.416 1.415-2.894 1.627-.479-.211-1.745-.805-2.895-1.627-.587-.42-1.125-.886-1.511-1.376-.388-.491-.594-.967-.594-1.42V4.068Zm7.854 2.287a.5.5 0 0 0-.708-.708L7.001 8.793 5.854 7.645a.5.5 0 1 0-.708.707l1.501 1.502a.5.5 0 0 0 .707 0l3.5-3.5Z" clip-rule="evenodd"/>
</svg>
