<svg xmlns="http://www.w3.org/2000/svg" width="17" height="16" fill="currentColor" viewBox="0 0 17 16">
  <path d="M9.628 1.005a1 1 0 0 1 .898.995v.5h1.5a1.5 1.5 0 0 1 1.5 1.5v3a.5.5 0 0 1-1 0V4a.5.5 0 0 0-.5-.5h-1.5V4l-.005.103a1 1 0 0 1-.893.892L9.526 5h-3l-.102-.005A1 1 0 0 1 5.526 4v-.5h-1.5a.5.5 0 0 0-.5.5v9.5a.5.5 0 0 0 .5.5h3a.5.5 0 0 1 0 1h-3a1.5 1.5 0 0 1-1.5-1.5V4a1.5 1.5 0 0 1 1.5-1.5h1.5V2a1 1 0 0 1 .898-.995L6.526 1h3l.102.005ZM11.526 8a3.5 3.5 0 1 1 0 7 3.5 3.5 0 0 1 0-7Zm0 1a2.5 2.5 0 1 0 0 5 2.5 2.5 0 0 0 0-5Zm.622 1.173a.5.5 0 0 1 .814.571l-.026.043-1.402 2a.5.5 0 0 1-.82 0l-.598-.86a.5.5 0 0 1 .82-.572l.19.272.99-1.414.032-.04ZM6.526 4h3V2h-3v2Z"/>
</svg>
