<svg xmlns="http://www.w3.org/2000/svg" width="16" height="16" fill="currentColor" viewBox="0 0 16 16">
  <g clip-path="url(#a)">
    <path fill-rule="evenodd" d="M12.596 2.904a.5.5 0 0 1 .5.5v7.778a.5.5 0 1 1-1 0V3.904H4.818a.5.5 0 1 1 0-1h7.778Z" clip-rule="evenodd"/>
    <path fill-rule="evenodd" d="M12.95 3.05a.5.5 0 0 1 0 .707L3.757 12.95a.5.5 0 0 1-.707-.707l9.193-9.193a.5.5 0 0 1 .707 0Z" clip-rule="evenodd"/>
  </g>
  <defs>
    <clipPath id="a">
      <path d="M0 0h16v16H0z"/>
    </clipPath>
  </defs>
</svg>
