<svg xmlns="http://www.w3.org/2000/svg" width="17" height="17" fill="currentColor" viewBox="0 0 17 17">
  <path d="m8.551 1.885.018.001a.735.735 0 0 1 .21.046c.013.005.026.007.038.012a.74.74 0 0 1 .232.157l4.483 4.5.051.058a.755.755 0 0 1-.048 1.004.74.74 0 0 1-.996.053l-.057-.051-3.214-3.227v9.195c0 .414-.333.75-.743.75a.747.747 0 0 1-.744-.75V4.438L4.567 7.665a.74.74 0 0 1-1.053-.002.756.756 0 0 1 .003-1.062l4.482-4.5.057-.05c.01-.008.02-.013.03-.02a.741.741 0 0 1 .252-.12c.027-.007.054-.015.081-.019l.012-.002a.747.747 0 0 1 .094-.007l.026.002Z"/>
</svg>
