<svg xmlns="http://www.w3.org/2000/svg" width="16" height="16" fill="currentColor" viewBox="0 0 16 16">
  <path fill-rule="evenodd" d="M2.5 1A1.5 1.5 0 0 0 1 2.5V6a1.5 1.5 0 0 0 1.5 1.5H6A1.5 1.5 0 0 0 7.5 6V2.5A1.5 1.5 0 0 0 6 1H2.5ZM2 2.5a.5.5 0 0 1 .5-.5H6a.5.5 0 0 1 .5.5V6a.5.5 0 0 1-.5.5H2.5A.5.5 0 0 1 2 6V2.5Zm.5 6A1.5 1.5 0 0 0 1 10v3.5A1.5 1.5 0 0 0 2.5 15H6a1.5 1.5 0 0 0 1.5-1.5V10A1.5 1.5 0 0 0 6 8.5H2.5ZM2 10a.5.5 0 0 1 .5-.5H6a.5.5 0 0 1 .5.5v3.5a.5.5 0 0 1-.5.5H2.5a.5.5 0 0 1-.5-.5V10Zm6.5 0A1.5 1.5 0 0 1 10 8.5h3.5A1.5 1.5 0 0 1 15 10v3.5a1.5 1.5 0 0 1-1.5 1.5H10a1.5 1.5 0 0 1-1.5-1.5V10Zm1.5-.5a.5.5 0 0 0-.5.5v3.5a.5.5 0 0 0 .5.5h3.5a.5.5 0 0 0 .5-.5V10a.5.5 0 0 0-.5-.5H10Zm-.5-5.25a2.25 2.25 0 1 1 4.5 0 2.25 2.25 0 0 1-4.5 0ZM11.75 1a3.25 3.25 0 1 0 0 6.5 3.25 3.25 0 0 0 0-6.5Z" clip-rule="evenodd"/>
</svg>
