<svg xmlns="http://www.w3.org/2000/svg" width="16" height="16" fill="currentColor" viewBox="0 0 16 16">
  <path d="M9 10.5v-7c0-.476-.213-.832-.561-1.084C8.077 2.153 7.561 2 7 2s-1.076.153-1.437.416A1.29 1.29 0 0 0 5 3.502v7.452C5 12.643 6.349 14 8 14s3-1.357 3-3.046V5.046a.5.5 0 0 1 1 0v5.908C12 13.183 10.216 15 8 15s-4-1.817-4-4.046V3.498l.005-.153c.048-.754.427-1.344.97-1.739C5.541 1.196 6.274 1 7 1s1.46.195 2.026.606c.58.421.974 1.065.974 1.894v7c0 .481-.22.916-.53 1.225-.31.308-.744.525-1.22.525-.9 0-1.75-.758-1.75-1.71V5.045a.5.5 0 0 1 1 0v5.493c0 .356.357.711.75.711.17 0 .36-.08.515-.234A.75.75 0 0 0 9 10.5Z"/>
</svg>
