<svg xmlns="http://www.w3.org/2000/svg" width="16" height="16" fill="currentColor" viewBox="0 0 16 16">
  <path fill-rule="evenodd" d="M13.844 2.139C12.309.623 9.805.619 8.27 2.13l-.773.703a.5.5 0 0 0 .672.74l.78-.71a.51.51 0 0 0 .017-.014c1.143-1.133 3.025-1.134 4.174 0a2.88 2.88 0 0 1 0 4.103l-1.72 1.695a2.942 2.942 0 0 1-4.08.058.5.5 0 0 0-.682.732 3.942 3.942 0 0 0 5.465-.078l1.72-1.696a3.879 3.879 0 0 0 0-5.525ZM9.34 6.562a3.942 3.942 0 0 0-5.465.078l-1.72 1.696a3.879 3.879 0 0 0 0 5.525c1.535 1.516 4.039 1.52 5.573.007l.773-.702a.5.5 0 0 0-.672-.74l-.78.71a.522.522 0 0 0-.017.014c-1.143 1.133-3.025 1.134-4.174 0a2.88 2.88 0 0 1 0-4.103l1.72-1.695a2.942 2.942 0 0 1 4.08-.058.5.5 0 0 0 .682-.732Z" clip-rule="evenodd"/>
</svg>
