<svg xmlns="http://www.w3.org/2000/svg" width="16" height="16" fill="none" viewBox="0 0 16 16">
  <path fill="#3D3C3C" fill-rule="evenodd" d="M4.4 1c-1.038 0-1.9.826-1.9 1.87v10.26c0 1.044.862 1.87 1.901 1.87h7.698c1.04 0 1.901-.826 1.901-1.87V4.92l-.011-.026a.499.499 0 0 0-.071-.169l-.068-.162-3.5-3.42L10 1H4.4Zm5.1 1H4.4c-.508 0-.9.4-.9.87v10.26c0 .47.392.87.9.87h7.7c.509 0 .901-.4.901-.87V5.5H10.7a1.2 1.2 0 0 1-1.2-1.199V2Zm2.854 2.5L10.5 2.688V4.3a.2.2 0 0 0 .199.199h1.655ZM6 5a.501.501 0 0 0 0 1 1.501 1.501 0 0 1 .493 2.917A.504.504 0 0 1 6.5 9v.5a.5.5 0 0 1-1 0V9c0-.028.002-.056.007-.083A1.5 1.5 0 0 1 4.5 7.5a.5.5 0 0 1 1 0 .501.501 0 0 0 1 0c0-.275-.225-.5-.5-.5a1.501 1.501 0 0 1-.493-2.917A.504.504 0 0 1 5.5 4v-.5a.5.5 0 0 1 1 0V4a.503.503 0 0 1-.007.083A1.5 1.5 0 0 1 7.5 5.5a.5.5 0 0 1-1 0c0-.275-.225-.5-.5-.5Zm2.503 5a.5.5 0 0 0 0 1H11.5a.5.5 0 0 0 0-1H8.503ZM8.5 12a.5.5 0 0 0 0 1h2.997a.5.5 0 0 0 0-1H8.5Z" clip-rule="evenodd"/>
</svg>
