<svg xmlns="http://www.w3.org/2000/svg" width="16" height="16" fill="currentColor" viewBox="0 0 16 16">
  <path fill-rule="evenodd" d="M9.447.973a.5.5 0 0 1 .416.57l-.749 4.724 2.673-.73a.5.5 0 0 1 .712.436v.014a.497.497 0 0 1-.12.334l-5.46 8.418c0 .002-.002.003-.003.005l-.014.02-.015.02-.003.004a.497.497 0 0 1-.306.172l-.025.004h-.01a.474.474 0 0 1-.039.003h-.016a.46.46 0 0 1-.033-.002H6.45l-.011-.002a.495.495 0 0 1-.085-.017l-.013-.004a.448.448 0 0 1-.033-.013l-.017-.007-.027-.014c-.006-.002-.01-.006-.016-.009-.007-.004-.014-.007-.02-.012l-.007-.004-.018-.013-.021-.016-.01-.009a.496.496 0 0 1-.171-.42v-.006l.44-4.415-2.392.24a.5.5 0 0 1-.55-.509.496.496 0 0 1 .078-.273l5.25-8.231a.499.499 0 0 1 .349-.225.499.499 0 0 1 .27-.033ZM4.962 9.15l1.988-.2a.501.501 0 0 1 .547.546l-.296 2.972 3.66-5.644-2.23.61a.501.501 0 0 1-.625-.56l.526-3.321-3.57 5.597Z" clip-rule="evenodd"/>
</svg>
