<svg xmlns="http://www.w3.org/2000/svg" width="16" height="16" fill="currentColor" viewBox="0 0 16 16">
  <path d="M15.5 2a.5.5 0 0 1 .5.5v13a.5.5 0 0 1-.5.5H6.477C5.655 16 5 15.32 5 14.5V3.643C5 2.793 5.621 2 6.515 2H15.5ZM6.432 14.002A.493.493 0 0 0 6 14.5c0 .286.226.5.477.5H15v-.995H6.477l-.045-.003ZM6.515 3C6.282 3 6 3.23 6 3.643v9.438A1.47 1.47 0 0 1 6.477 13c.022 0 .045.002.067.005h.406c.017-.002.033-.005.05-.005h8V3H6.515Zm5.537 3.003a.5.5 0 0 1 0 .995L12 7H9a.5.5 0 0 1 0-1h3l.052.003Zm1-1.5a.5.5 0 0 1 0 .995L13 5.5H8a.5.5 0 0 1 0-1h5l.052.003Z"/>
</svg>
