<svg xmlns="http://www.w3.org/2000/svg" width="16" height="16" fill="currentColor" viewBox="0 0 16 16">
  <path fill-rule="evenodd" d="M5.144 2C4.224 2 3.5 2.726 3.5 3.59v9.513c0 .744.918 1.194 1.54.675l1.69-1.413A1.82 1.82 0 0 1 8 11.836c.7 0 1.15.411 1.265.526l1.695 1.415c.62.519 1.54.066 1.54-.674V3.589C12.5 2.726 11.776 2 10.856 2H5.144ZM2.5 3.59C2.5 2.15 3.695 1 5.144 1h5.712C12.305 1 13.5 2.15 13.5 3.59v9.513c0 1.636-1.946 2.474-3.18 1.442l-1.713-1.43a.527.527 0 0 1-.035-.032.83.83 0 0 0-.572-.247.785.785 0 0 0-.393.109.874.874 0 0 0-.122.084.203.203 0 0 0-.043.04.512.512 0 0 1-.049.046l-1.712 1.43c-1.234 1.031-3.181.2-3.181-1.442V3.589Z" clip-rule="evenodd"/>
</svg>
