<svg xmlns="http://www.w3.org/2000/svg" width="16" height="16" fill="none" viewBox="0 0 16 16">
  <path fill="#3D3C3C" fill-rule="evenodd" d="M4 1a1.5 1.5 0 0 0-1.5 1.5v11A1.5 1.5 0 0 0 4 15h8.5a1 1 0 0 0 1-1V2a1 1 0 0 0-1-1H4Zm.535 1H4a.5.5 0 0 0-.5.5v11a.5.5 0 0 0 .5.5h8.5V2H8.965c.023.098.035.2.035.304v3.659c0 .422-.237.77-.57.935a.968.968 0 0 1-1.094-.16L6.75 6.2l-.586.538a.968.968 0 0 1-1.094.16 1.032 1.032 0 0 1-.57-.935v-3.66c0-.103.012-.205.035-.303ZM7.75 2h-2c-.106 0-.25.104-.25.304v3.659a.09.09 0 0 0 .003.023v.001l.567-.52c.087-.092.32-.3.68-.3.373 0 .609.225.679.299l.568.521v-.001A.083.083 0 0 0 8 5.963v-3.66C8 2.104 7.856 2 7.75 2Zm-.25 8a.5.5 0 0 1 .5-.5h3a.5.5 0 0 1 0 1H8a.5.5 0 0 1-.5-.5Zm.5 1.5a.5.5 0 0 0 0 1h3a.5.5 0 0 0 0-1H8Z" clip-rule="evenodd"/>
</svg>
