<svg xmlns="http://www.w3.org/2000/svg" width="16" height="16" fill="currentColor" viewBox="0 0 16 16">
  <path fill-rule="evenodd" d="M6.214 1.054a.5.5 0 0 1 .62.139L8 2.687l1.166-1.494a.5.5 0 0 1 .62-.14l4.94 2.5a.5.5 0 0 1 .168.755l-1.332 1.708 1.347 1.919a.5.5 0 0 1-.164.723l-4.94 2.778a.5.5 0 0 1-.654-.149L8 9.648l-1.15 1.64a.5.5 0 0 1-.655.148l-4.94-2.778a.5.5 0 0 1-.164-.723l1.347-1.92-1.332-1.707a.5.5 0 0 1 .168-.754l4.94-2.5Zm-2.093 4.97L8 4.06l3.879 1.963L8 8.204l-3.879-2.18ZM2.268 4.171l.933 1.196 4.031-2.04-.933-1.196-4.031 2.04Zm7.433-2.04-.933 1.196 4.03 2.04.934-1.196-4.03-2.04Zm-.974 6.81.982 1.4 4.064-2.285-.982-1.4-4.064 2.286Zm-6.5-.885.982-1.4 4.064 2.286-.982 1.4-4.064-2.286Zm10.806 1.976a.5.5 0 0 1 .5.5v1.409a.5.5 0 0 1-.27.444L8.27 14.974a.5.5 0 0 1-.473 0l-4.994-2.588a.5.5 0 0 1-.27-.444v-1.409a.5.5 0 1 1 1 0v1.105L7.5 13.694V12a.5.5 0 0 1 1 0v1.728l4.033-2.09v-1.105a.5.5 0 0 1 .5-.5Z" clip-rule="evenodd"/>
</svg>
