<svg xmlns="http://www.w3.org/2000/svg" width="16" height="16" fill="currentColor" viewBox="0 0 16 16">
  <path fill-rule="evenodd" d="M6.947 1.04a.5.5 0 0 0-.394 0l-5.25 2.25A.5.5 0 0 0 1 3.75v5.931a.5.5 0 0 0 .297.457l5.227 2.319a.5.5 0 0 0 .214.043h.012a.5.5 0 0 0 .5-.5V6.33l4.25-1.822v2.493a.5.5 0 0 0 1 0V4a.502.502 0 0 0-.016-.125.498.498 0 0 0-.287-.585l-5.25-2.25ZM6.25 6.33v4.912L2 9.354V4.508l1.5.643V7a.5.5 0 0 0 1 0V5.58l1.75.75ZM3.934 4.249 2.769 3.75 6.75 2.044l1.051.45L3.934 4.25Zm1.244.533 1.572.674 3.98-1.706-1.684-.722-3.868 1.754ZM8 11.5a3.5 3.5 0 1 1 7 0 3.5 3.5 0 0 1-7 0ZM11.5 9a2.5 2.5 0 1 0 0 5 2.5 2.5 0 0 0 0-5Zm1.41 1.787a.5.5 0 1 0-.82-.574l-.99 1.414-.19-.271a.5.5 0 1 0-.82.571l.598.859a.5.5 0 0 0 .82.001l1.402-2Z" clip-rule="evenodd"/>
</svg>
