<svg xmlns="http://www.w3.org/2000/svg" width="16" height="16" fill="currentColor" viewBox="0 0 16 16">
  <path fill-rule="evenodd" d="M6.553 1.04a.5.5 0 0 1 .394 0l5.25 2.25a.5.5 0 0 1 .287.585c.01.04.016.082.016.125v3a.5.5 0 0 1-1 0V4.509L7.25 6.33V12a.5.5 0 0 1-.5.5h-.012a.5.5 0 0 1-.214-.043l-5.227-2.32A.5.5 0 0 1 1 9.682V3.75c0-.2.12-.38.303-.46l5.25-2.25ZM6.25 11.241V6.33L4.5 5.58V7a.5.5 0 0 1-1 0V5.151L2 4.508v4.847l4.25 1.886ZM2.77 3.75l1.164.499L7.8 2.495l-1.05-.451L2.77 3.75Zm3.98 1.706-1.572-.674 3.868-1.754 1.685.722L6.75 5.456ZM12 10a.5.5 0 0 0-1 0v1h-1a.5.5 0 0 0 0 1h1v1a.5.5 0 0 0 1 0v-1h1a.5.5 0 0 0 0-1h-1v-1Zm-.5-2a3.5 3.5 0 1 0 0 7 3.5 3.5 0 0 0 0-7ZM9 11.5a2.5 2.5 0 1 1 5 0 2.5 2.5 0 0 1-5 0Z" clip-rule="evenodd"/>
</svg>
