<svg xmlns="http://www.w3.org/2000/svg" width="16" height="16" fill="currentColor" viewBox="0 0 16 16">
  <path fill-rule="evenodd" d="M1.237 8.075a.5.5 0 0 1 .485-.023l3 1.49A.5.5 0 0 1 5 9.99V14a.5.5 0 0 1-.722.448l-3-1.49A.5.5 0 0 1 1 12.51V8.5a.5.5 0 0 1 .237-.425ZM2 9.307V12.2l2 .994V10.3l-2-.993Z" clip-rule="evenodd"/>
  <path fill-rule="evenodd" d="M8.275 8.083A.5.5 0 0 1 8.5 8.5v4.01a.5.5 0 0 1-.304.46l-3.5 1.49a.5.5 0 0 1-.392-.92L7.5 12.18V9.258L4.697 10.46a.5.5 0 1 1-.394-.92l3.5-1.5a.5.5 0 0 1 .472.043Z" clip-rule="evenodd"/>
  <path fill-rule="evenodd" d="M4.276 6.553a.5.5 0 0 1 .421-.013l3.5 1.5a.5.5 0 0 1-.394.92L4.516 7.55 1.724 8.948a.5.5 0 1 1-.448-.894l3-1.5Z" clip-rule="evenodd"/>
  <path fill-rule="evenodd" d="M7.54 8.304a.5.5 0 0 1 .656-.264l3.5 1.49a.5.5 0 0 1 .304.46V14a.5.5 0 0 1-.696.46l-3.5-1.49a.5.5 0 0 1 .392-.92L11 13.244V10.32L7.804 8.96a.5.5 0 0 1-.264-.656Z" clip-rule="evenodd"/>
  <path fill-rule="evenodd" d="M14.763 8.075A.5.5 0 0 1 15 8.5v4.01a.5.5 0 0 1-.278.448l-3 1.49a.5.5 0 0 1-.444-.896L14 12.2V9.307l-2.278 1.13a.5.5 0 1 1-.444-.895l3-1.49a.5.5 0 0 1 .485.023Z" clip-rule="evenodd"/>
  <path fill-rule="evenodd" d="M11.303 6.54a.5.5 0 0 1 .42.013l3 1.5a.5.5 0 1 1-.447.894l-2.792-1.396L8.197 8.96a.5.5 0 0 1-.394-.92l3.5-1.5Z" clip-rule="evenodd"/>
  <path fill-rule="evenodd" d="M4.224 2.583a.5.5 0 0 1 .472-.043l3.5 1.49a.5.5 0 0 1 .304.46V8.5a.5.5 0 0 1-1 0V4.82L5 3.756V6.85a.5.5 0 1 1-1 0V3a.5.5 0 0 1 .224-.417Z" clip-rule="evenodd"/>
  <path fill-rule="evenodd" d="M11.776 2.583A.5.5 0 0 1 12 3v4a.5.5 0 0 1-1 0V3.755L8.195 4.946a.5.5 0 1 1-.39-.92l3.5-1.486a.5.5 0 0 1 .471.043Z" clip-rule="evenodd"/>
  <path fill-rule="evenodd" d="M7.795 1.04a.5.5 0 0 1 .394 0l3.508 1.5a.5.5 0 0 1-.394.92l-3.31-1.416-3.296 1.415a.5.5 0 0 1-.394-.918l3.492-1.5Z" clip-rule="evenodd"/>
</svg>
