<svg xmlns="http://www.w3.org/2000/svg" width="16" height="16" fill="none" viewBox="0 0 16 16">
  <path fill="#3D3C3C" fill-rule="evenodd" d="M2 5a1 1 0 1 1 2 0 1 1 0 0 1-2 0Zm1-2a2 2 0 1 0 1.903 2.616l.476.12c.447.111.701.257.852.403.144.139.23.312.278.555.05.256.054.568.038.967-.004.108-.01.224-.016.345-.014.305-.031.644-.031.994 0 .44.16 1.064.628 1.585.483.536 1.251.915 2.372.915h1.563a2 2 0 1 0 0-1H9.5c-.879 0-1.361-.288-1.628-.584A1.44 1.44 0 0 1 7.5 9c0-.324.015-.623.03-.918.005-.128.012-.255.016-.382.016-.405.02-.818-.055-1.199A2.009 2.009 0 0 0 7.004 5.5h4.059a2 2 0 1 0 0-1H4.937A2 2 0 0 0 3 3Zm9 2a1 1 0 1 1 2 0 1 1 0 0 1-2 0Zm1 5a1 1 0 1 0 0 2 1 1 0 0 0 0-2Z" clip-rule="evenodd"/>
</svg>
