<svg xmlns="http://www.w3.org/2000/svg" width="16" height="16" fill="currentColor" viewBox="0 0 16 16">
  <path d="M7.5 1.5c1.422 0 2.73.201 3.701.541.483.169.91.382 1.225.643.312.258.574.616.574 1.066 0 .053-.005.105-.012.156a.52.52 0 0 1 .01.148l-.34 3.13c.426.362.748.684.967.973.219.289.397.624.373.97-.029.425-.331.666-.628.772-.277.1-.613.115-.95.09-.021-.001-.043-.005-.066-.007l-.357 3.301a.5.5 0 0 1-.316.412c-3.748 1.454-7.128.618-8.404-.018a.502.502 0 0 1-.274-.394l-1-9.23A.5.5 0 0 1 2.01 3.9 1.14 1.14 0 0 1 2 3.75c0-.45.262-.808.574-1.066.316-.262.743-.474 1.226-.643.97-.34 2.279-.541 3.7-.541Zm4.37 3.675c-.205.106-.43.201-.669.285-.855.3-1.974.489-3.2.53-.746.045-1.535.022-2.323-.107A9.53 9.53 0 0 1 3.8 5.46a5.244 5.244 0 0 1-.67-.284l.837 7.716c1.2.5 3.966 1.083 7.07-.025l.33-3.055c-1.04-.254-2.286-.752-3.412-1.423A1 1 0 1 1 8.5 7.5c0 .016-.002.031-.003.047a12.108 12.108 0 0 0 2.979 1.262l.394-3.634Zm.592 3.813.031.004c.22.016.374.003.47-.016a1.359 1.359 0 0 0-.136-.215 3.603 3.603 0 0 0-.304-.343l-.061.57ZM7.5 2.5c-1.34 0-2.531.19-3.37.484-.422.148-.728.313-.918.47-.19.157-.211.259-.212.294.86.63 1.853.987 2.87 1.15a13.094 13.094 0 0 0 2.083.093c.29-.017.576-.044.855-.083.97-.135 1.825-.381 2.431-.633.297-.123.52-.243.665-.341.085-.097.096-.16.096-.184 0-.033-.018-.136-.212-.296-.19-.157-.496-.322-.918-.47-.839-.293-2.03-.484-3.37-.484Z"/>
</svg>
