<svg xmlns="http://www.w3.org/2000/svg" width="16" height="16" fill="none" viewBox="0 0 16 16">
  <path fill="#3D3C3C" fill-rule="evenodd" d="M4.747 1.569a.5.5 0 0 1 .684.178l.511.872.411.228c.044-.051.09-.1.135-.147C6.896 2.282 7.411 2 8 2s1.104.282 1.512.7c.046.047.091.096.135.147l.413-.228.508-.871a.5.5 0 0 1 .864.504l-.578.99a.5.5 0 0 1-.19.186l-.467.258c.08.158.152.323.218.494a5.166 5.166 0 0 1 1.5 1.399l1.102-1.836a.5.5 0 0 1 .429-.243H14.5a.5.5 0 0 1 0 1h-.771l-1.243 2.071a6.004 6.004 0 0 1 .328 3.919l1.428.788a.5.5 0 0 1 .258.438V13.5a.5.5 0 0 1-1 0v-1.489l-1.022-.564C11.667 13.24 9.988 14.5 8 14.5c-1.988 0-3.667-1.259-4.478-3.053L2.5 12.01v1.49a.5.5 0 0 1-1 0v-1.785a.5.5 0 0 1 .258-.438l1.429-.788a6.005 6.005 0 0 1 .327-3.919L2.271 4.5H1.5a.5.5 0 0 1 0-1h1.054a.5.5 0 0 1 .429.242l1.102 1.836a5.166 5.166 0 0 1 1.5-1.399 5.49 5.49 0 0 1 .218-.494l-.465-.259a.5.5 0 0 1-.19-.184l-.58-.99a.5.5 0 0 1 .18-.684ZM8.5 13.465C10.437 13.19 12 11.338 12 9c0-.6-.103-1.17-.29-1.688-1.136.745-2.223 1.08-3.21 1.165v4.988Zm-1-4.984v4.984C5.563 13.19 4 11.338 4 9c0-.592.1-1.154.282-1.666a6.97 6.97 0 0 0 1.972.922c.382.11.8.19 1.246.225Zm.506-.98a.424.424 0 0 0-.017 0 5.257 5.257 0 0 1-1.461-.206A5.97 5.97 0 0 1 4.72 6.42C5.452 5.25 6.665 4.501 8 4.501c1.329 0 2.536.742 3.269 1.904-1.194.81-2.302 1.089-3.263 1.095Zm-.98-3.898c.058-.075.117-.143.177-.204C7.48 3.117 7.751 3 8 3s.521.117.797.399c.06.061.12.13.177.204a4.615 4.615 0 0 0-1.948 0Z" clip-rule="evenodd"/>
</svg>
