<svg xmlns="http://www.w3.org/2000/svg" width="16" height="16" fill="currentColor" viewBox="0 0 16 16">
  <path fill-rule="evenodd" d="M9.357 1C8.597 1 8 1.626 8 2.375V5.22c0 .335.097.666.335.916.242.254.571.364.915.364h.036v.285c0 .159.044.404.248.573a.61.61 0 0 0 .413.142.681.681 0 0 0 .388-.144l1.088-.856h2.327c.345 0 .674-.112.915-.366.238-.25.335-.581.335-.916V2.375C15 1.625 14.402 1 13.643 1H9.357ZM9 2.375C9 2.158 9.17 2 9.357 2h4.286c.188 0 .357.158.357.375v2.843c0 .148-.041.208-.06.228-.015.016-.061.054-.19.054h-2.5a.5.5 0 0 0-.31.107l-.654.516V6a.5.5 0 0 0-.5-.5H9.25c-.13 0-.176-.038-.19-.054C9.04 5.427 9 5.368 9 5.22V2.375Z" clip-rule="evenodd"/>
  <path d="M2 3.76c0-.411.342-.76.784-.76H6.5a.5.5 0 0 0 0-1H2.784C1.808 2 1 2.779 1 3.76v6.98c0 .981.808 1.76 1.784 1.76H7.5V14H5a.5.5 0 0 0 0 1h6a.5.5 0 0 0 0-1H8.5v-1.5h4.716c.976 0 1.784-.779 1.784-1.76V8a.5.5 0 0 0-1 0v2.74c0 .411-.342.76-.784.76H2.784A.772.772 0 0 1 2 10.74V3.76Z"/>
  <path fill-rule="evenodd" d="M5.5 3.5a1.75 1.75 0 1 0 0 3.5 1.75 1.75 0 0 0 0-3.5Zm-.75 1.75a.75.75 0 1 1 1.5 0 .75.75 0 0 1-1.5 0ZM3 8.905c-.005-.809.695-1.38 1.38-1.38h2.318c.704 0 1.307.554 1.302 1.334v1.166a.5.5 0 0 1-.5.5h-4a.5.5 0 0 1-.5-.5v-1.12Zm1.38-.38c-.191 0-.381.179-.38.374v.626h3v-.671c.002-.214-.14-.329-.302-.329H4.38Z" clip-rule="evenodd"/>
</svg>
