<svg xmlns="http://www.w3.org/2000/svg" width="16" height="16" fill="currentColor" viewBox="0 0 16 16">
  <path fill-rule="evenodd" d="M6 1a.5.5 0 0 1 .5.5v.492h2.99V1.5a.5.5 0 0 1 1 0v1.983a.5.5 0 0 1-1 0v-.491H6.5v.491a.5.5 0 0 1-1 0V1.5A.5.5 0 0 1 6 1ZM2 5.5V4.43c0-.54.407-.93.851-.93H4a.5.5 0 0 0 0-1H2.851C1.801 2.5 1 3.392 1 4.43v8.823C1 14.252 1.865 15 2.851 15H13.15c.985 0 1.851-.743 1.851-1.747V4.43c0-1.038-.8-1.93-1.851-1.93H12a.5.5 0 0 0 0 1h1.149c.444 0 .851.39.851.93V5.5H2Zm12 1H2v6.753c0 .374.342.747.851.747H13.15c.51 0 .851-.37.851-.747V6.5Z" clip-rule="evenodd"/>
</svg>
