<svg xmlns="http://www.w3.org/2000/svg" width="16" height="16" fill="currentColor" viewBox="0 0 16 16">
  <path fill-rule="evenodd" d="M5.024 1a.5.5 0 0 1 .5.5v.492h2.99V1.5a.5.5 0 0 1 1 0v1.983a.5.5 0 0 1-1 0v-.491h-2.99v.491a.5.5 0 0 1-1 0V1.5a.5.5 0 0 1 .5-.5ZM2 3.513c0-.15.057-.261.16-.344.11-.09.303-.169.59-.169H3a.5.5 0 0 0 0-1h-.25c-.463 0-.895.127-1.222.393A1.417 1.417 0 0 0 1 3.513v8.872c0 .902.756 1.597 1.645 1.597H6.25a.5.5 0 0 0 0-1H2.645c-.377 0-.645-.287-.645-.597V5.5h10.5A.5.5 0 0 0 13 5V3.552C13 2.621 12.149 2 11.25 2H11a.5.5 0 0 0 0 1h.25c.508 0 .75.321.75.552V4.5H2v-.987Zm9.565 2.751a.5.5 0 0 1 .673-.207l1.75.916a.5.5 0 0 1 .212.672l-.316.612c.159.208.293.43.402.664l.738.035a.5.5 0 0 1 .476.5v1.916a.5.5 0 0 1-.484.5l-.647.021a3.587 3.587 0 0 1-.158.338l-.002.003c-.06.11-.125.22-.197.326l.395.68a.5.5 0 0 1-.187.687l-1.794 1.009a.5.5 0 0 1-.693-.214l-.291-.586c-.23.03-.465.037-.7.02l-.307.576a.5.5 0 0 1-.673.207l-1.766-.924a.5.5 0 0 1-.208-.68l.324-.6a3.673 3.673 0 0 1-.386-.633l-.65.02a.5.5 0 0 1-.515-.484L6.5 9.64a.5.5 0 0 1 .483-.515l.646-.02a3.645 3.645 0 0 1 .353-.66l-.342-.557a.5.5 0 0 1 .161-.686L9.49 6.148a.5.5 0 0 1 .69.163l.342.555a3.54 3.54 0 0 1 .734-.025l.308-.576Zm.649.909-.236.44a.5.5 0 0 1-.529.257 2.536 2.536 0 0 0-1.05.036.5.5 0 0 1-.547-.223l-.259-.42-.84.523.259.423a.5.5 0 0 1-.043.583 2.702 2.702 0 0 0-.502.944.5.5 0 0 1-.462.355l-.49.017.03 1 .491-.017a.5.5 0 0 1 .486.328c.124.338.31.649.557.912a.5.5 0 0 1 .075.58l-.245.453.878.46.235-.441a.5.5 0 0 1 .529-.257c.352.063.711.048 1.05-.036a.5.5 0 0 1 .569.263l.225.453.893-.502-.306-.527a.5.5 0 0 1 .049-.572 2.699 2.699 0 0 0 .502-.945.5.5 0 0 1 .462-.355l.505-.017v-.956l-.576-.027a.5.5 0 0 1-.446-.327 2.678 2.678 0 0 0-.557-.913.5.5 0 0 1-.079-.571l.241-.466-.87-.455ZM11.75 10.5a.75.75 0 1 1-1.5 0 .75.75 0 0 1 1.5 0Zm1 0a1.75 1.75 0 1 1-3.5 0 1.75 1.75 0 0 1 3.5 0Z" clip-rule="evenodd"/>
</svg>
