<svg xmlns="http://www.w3.org/2000/svg" width="16" height="16" fill="currentColor" viewBox="0 0 16 16">
  <path fill-rule="evenodd" d="M5.024 1a.5.5 0 0 1 .5.5v.492h2.99V1.5a.5.5 0 0 1 1 0v1.983a.5.5 0 0 1-1 0v-.491h-2.99v.491a.5.5 0 0 1-1 0V1.5a.5.5 0 0 1 .5-.5ZM2 3.513c0-.15.057-.261.16-.344.11-.09.303-.169.59-.169H3a.5.5 0 0 0 0-1h-.25c-.463 0-.895.127-1.222.393A1.417 1.417 0 0 0 1 3.513v8.872c0 .902.756 1.597 1.645 1.597H6.5a.5.5 0 0 0 0-1H2.645c-.377 0-.645-.287-.645-.597V5.5h10v1a.5.5 0 0 0 1 0V3.552C13 2.621 12.149 2 11.25 2H11a.5.5 0 0 0 0 1h.25c.508 0 .75.321.75.552V4.5H2v-.987ZM13.5 11.5a.5.5 0 0 1-.5.5h-3a.5.5 0 0 1 0-1h3a.5.5 0 0 1 .5.5Zm-2-3.5a3.5 3.5 0 1 0 0 7 3.5 3.5 0 0 0 0-7ZM9 11.5a2.5 2.5 0 1 1 5 0 2.5 2.5 0 0 1-5 0Z" clip-rule="evenodd"/>
</svg>
