<svg xmlns="http://www.w3.org/2000/svg" width="16" height="16" fill="none" viewBox="0 0 16 16">
  <path fill="#3D3C3C" fill-rule="evenodd" d="M5.524 1.5a.5.5 0 0 0-1 0v1.983a.5.5 0 0 0 1 0v-.491h2.99v.491a.5.5 0 0 0 1 0V1.5a.5.5 0 0 0-1 0v.492h-2.99V1.5ZM2.16 3.169a.418.418 0 0 0-.16.344V4.5h10v-.948c0-.23-.242-.552-.75-.552H11a.5.5 0 0 1 0-1h.25c.899 0 1.75.62 1.75 1.552V6.5a.5.5 0 0 1-1 0v-1H2v6.885c0 .31.268.597.645.597H6.5a.5.5 0 1 1 0 1H2.645c-.889 0-1.645-.695-1.645-1.597V3.513c0-.452.193-.847.528-1.12C1.855 2.127 2.288 2 2.75 2H3a.5.5 0 0 1 0 1h-.25c-.287 0-.48.079-.59.169ZM12 10a.5.5 0 0 0-1 0v1h-1a.5.5 0 0 0 0 1h1v1a.5.5 0 0 0 1 0v-1h1a.5.5 0 0 0 0-1h-1v-1Zm-.5-2a3.5 3.5 0 1 0 0 7 3.5 3.5 0 0 0 0-7ZM9 11.5a2.5 2.5 0 1 1 5 0 2.5 2.5 0 0 1-5 0Z" clip-rule="evenodd"/>
</svg>
