<svg xmlns="http://www.w3.org/2000/svg" width="16" height="16" fill="none" viewBox="0 0 16 16">
  <path fill="#3D3C3C" d="M12.433 6.467a.467.467 0 1 1-.933 0 .467.467 0 0 1 .933 0Z"/>
  <path fill="#3D3C3C" fill-rule="evenodd" d="M4.746 2.604A.5.5 0 0 1 5.05 2.5h3.545a.5.5 0 0 1 .371.165l.755.835h3.528c.505 0 .943.264 1.24.592.299.328.51.779.51 1.248v6.992A1.674 1.674 0 0 1 13.316 14H2.684C1.759 14 1 13.26 1 12.332V5.335c0-.47.212-.919.51-1.246.298-.328.736-.589 1.24-.589h.83l1.166-.896Zm.475.896-1.166.896a.5.5 0 0 1-.305.104h-1c-.15 0-.338.083-.5.262-.164.18-.25.397-.25.573v6.997c0 .363.299.668.684.668h10.633a.675.675 0 0 0 .683-.668V5.34c0-.176-.086-.396-.25-.576-.164-.18-.35-.264-.5-.264H9.5a.5.5 0 0 1-.371-.165L8.374 3.5H5.221Z" clip-rule="evenodd"/>
  <path fill="#3D3C3C" fill-rule="evenodd" d="M6.75 6.5a2.25 2.25 0 1 0 0 4.5 2.25 2.25 0 0 0 0-4.5ZM3.5 8.75a3.25 3.25 0 1 1 6.5 0 3.25 3.25 0 0 1-6.5 0Z" clip-rule="evenodd"/>
</svg>
