<svg xmlns="http://www.w3.org/2000/svg" width="16" height="16" fill="currentColor" viewBox="0 0 16 16">
  <path fill-rule="evenodd" d="M2 3a1 1 0 0 1 1-1h4a.5.5 0 0 1 0 1H3v4a.5.5 0 0 1-1 0V3Zm6.5-.5A.5.5 0 0 1 9 2h4a1 1 0 0 1 1 1v4a.5.5 0 0 1-1 0V3H9a.5.5 0 0 1-.5-.5ZM14 9a.5.5 0 0 0-1 0v4H9a.5.5 0 0 0 0 1h4a1 1 0 0 0 1-1V9ZM2.5 8.5A.5.5 0 0 1 3 9v4h4a.5.5 0 0 1 0 1H3a1 1 0 0 1-1-1V9a.5.5 0 0 1 .5-.5ZM6 6h4v4H6V6ZM5 6a1 1 0 0 1 1-1h4a1 1 0 0 1 1 1v4a1 1 0 0 1-1 1H6a1 1 0 0 1-1-1V6Z" clip-rule="evenodd"/>
</svg>
