<svg xmlns="http://www.w3.org/2000/svg" width="16" height="16" fill="currentColor" viewBox="0 0 16 16">
  <path fill-rule="evenodd" d="M1.5 1.5A.5.5 0 0 1 2 1h.665C3.647 1 4.5 1.753 4.5 2.75v.75h8.299c.828 0 1.423.816 1.124 1.604a.56.56 0 0 1-.01.022L12.64 8.058A3.213 3.213 0 0 1 9.695 10H4.5v1c0 .598.43 1 .864 1H11.5a.5.5 0 0 1 0 1H5.364C4.291 13 3.5 12.058 3.5 11V2.75c0-.383-.343-.75-.835-.75H2a.5.5 0 0 1-.5-.5Zm3 7.5V4.5h8.299c.15 0 .227.134.191.242l-1.268 2.917A2.213 2.213 0 0 1 9.695 9H4.5Zm1.75 6a.75.75 0 1 0 0-1.5.75.75 0 0 0 0 1.5Zm3.5 0a.75.75 0 1 0 0-1.5.75.75 0 0 0 0 1.5Z" clip-rule="evenodd"/>
</svg>
