<svg xmlns="http://www.w3.org/2000/svg" width="16" height="16" fill="currentColor" viewBox="0 0 16 16">
  <g clip-path="url(#a)">
    <path fill-rule="evenodd" d="M4.721 2A.74.74 0 0 0 4 2.748V4h.5a.5.5 0 0 1 0 1h-2a.5.5 0 0 1 0-1H3V2.748C3 1.796 3.764 1 4.721 1h8.058c.957 0 1.721.796 1.721 1.748v10.504c0 .952-.764 1.748-1.721 1.748H4.72C3.764 15 3 14.204 3 13.252v-.277a.5.5 0 1 1 1 0v.277c0 .42.336.748.721.748h8.058a.74.74 0 0 0 .721-.748V2.748A.74.74 0 0 0 12.779 2H4.72ZM2 8a.5.5 0 0 1 .5-.5H3V6a.5.5 0 0 1 1 0v1.5h.5a.5.5 0 0 1 0 1h-2A.5.5 0 0 1 2 8Zm0 3.5a.5.5 0 0 1 .5-.5H3V9.5a.5.5 0 0 1 1 0V11h.5a.5.5 0 0 1 0 1h-2a.5.5 0 0 1-.5-.5Zm5-6.967c0-.018.015-.033.033-.033h1.934c.018 0 .033.015.033.033v1.934a.033.033 0 0 1-.033.033H7.033A.033.033 0 0 1 7 6.467V4.533ZM7.033 3.5C6.463 3.5 6 3.962 6 4.533v1.934c0 .57.462 1.033 1.033 1.033h1.934C9.537 7.5 10 7.038 10 6.467V4.533c0-.57-.462-1.033-1.033-1.033H7.033ZM12 18a1 1 0 0 1 1-1h10a1 1 0 1 1 0 2H13a1 1 0 0 1-1-1Zm1 3a1 1 0 1 0 0 2h10a1 1 0 1 0 0-2H13Z" clip-rule="evenodd"/>
  </g>
  <defs>
    <clipPath id="a">
      <path d="M0 0h16v16H0z"/>
    </clipPath>
  </defs>
</svg>
