<svg xmlns="http://www.w3.org/2000/svg" width="16" height="16" fill="currentColor" viewBox="0 0 16 16">
  <path fill-rule="evenodd" d="M2 6a.5.5 0 0 1 .5-.5h2a.5.5 0 0 1 0 1h-2A.5.5 0 0 1 2 6Zm0 3a.5.5 0 0 1 .5-.5h2a.5.5 0 0 1 0 1h-2A.5.5 0 0 1 2 9Z" clip-rule="evenodd"/>
  <path fill-rule="evenodd" d="M3.5 7a.5.5 0 0 1 .5.5V9a.5.5 0 0 1-1 0V7.5a.5.5 0 0 1 .5-.5ZM2 12a.5.5 0 0 1 .5-.5h2a.5.5 0 0 1 0 1h-2A.5.5 0 0 1 2 12Z" clip-rule="evenodd"/>
  <path fill-rule="evenodd" d="M3.5 10a.5.5 0 0 1 .5.5v1.27a.5.5 0 1 1-1 0V10.5a.5.5 0 0 1 .5-.5Z" clip-rule="evenodd"/>
  <path fill-rule="evenodd" d="M4.547 3.5c-.275 0-.547.248-.547.604V5.58a.5.5 0 0 1-1 0V4.104C3 3.247 3.67 2.5 4.547 2.5h6.906C12.33 2.5 13 3.247 13 4.104v9.292c0 .857-.67 1.604-1.547 1.604H4.547C3.737 15 3 14.422 3 13.5a.5.5 0 0 1 1 0c0 .291.206.5.547.5h6.906c.274 0 .547-.248.547-.604V4.104c0-.356-.273-.604-.547-.604H4.547Z" clip-rule="evenodd"/>
  <path fill-rule="evenodd" d="M4 1.5c0-.276.214-.5.477-.5h8.29c.939 0 1.733.783 1.733 1.774V13.5a.49.49 0 0 1-.477.5.489.489 0 0 1-.477-.5V2.774a.781.781 0 0 0-.78-.774H4.478A.489.489 0 0 1 4 1.5Z" clip-rule="evenodd"/>
  <path fill-rule="evenodd" d="M6 6a.5.5 0 0 1 .5-.5H10a.5.5 0 0 1 0 1H6.5A.5.5 0 0 1 6 6Zm0 2a.5.5 0 0 1 .5-.5H10a.5.5 0 0 1 0 1H6.5A.5.5 0 0 1 6 8Zm0 2a.5.5 0 0 1 .5-.5H10a.5.5 0 0 1 0 1H6.5A.5.5 0 0 1 6 10Z" clip-rule="evenodd"/>
</svg>
