<svg xmlns="http://www.w3.org/2000/svg" width="16" height="16" fill="currentColor" viewBox="0 0 16 16">
  <path fill-rule="evenodd" d="M1 3a1.5 1.5 0 0 1 1.5-1.5h11A1.5 1.5 0 0 1 15 3v3.5a.5.5 0 0 1-1 0V3a.5.5 0 0 0-.5-.5h-11A.5.5 0 0 0 2 3v9a.5.5 0 0 0 .5.5h4a.5.5 0 0 1 0 1h-4A1.5 1.5 0 0 1 1 12V3Zm10.5 5a3.5 3.5 0 1 0 0 7 3.5 3.5 0 0 0 0-7ZM9 11.5a2.5 2.5 0 1 1 5 0 2.5 2.5 0 0 1-5 0Zm3.91-.713a.5.5 0 0 0-.82-.574l-.99 1.414-.19-.271a.5.5 0 1 0-.82.571l.598.859a.5.5 0 0 0 .82.001l1.402-2ZM3.5 4a.5.5 0 0 0 0 1h5a.5.5 0 0 0 0-1h-5ZM3 6.5a.5.5 0 0 1 .5-.5h4a.5.5 0 0 1 0 1h-4a.5.5 0 0 1-.5-.5ZM3.5 8a.5.5 0 0 0 0 1h2.25a.5.5 0 0 0 0-1H3.5Z" clip-rule="evenodd"/>
</svg>
