<svg xmlns="http://www.w3.org/2000/svg" width="16" height="16" fill="currentColor" viewBox="0 0 16 16">
  <path d="M2.5 3a.5.5 0 0 1 .5.5V15h12a.5.5 0 0 1 0 1H2.5a.5.5 0 0 1-.5-.5v-12a.5.5 0 0 1 .5-.5ZM14 6.25a1.5 1.5 0 1 1-.608 2.87l-1.537 1.488a1.5 1.5 0 1 1-2.787.192l-1.09-.915a1.492 1.492 0 0 1-1.588.234l-2.002 2.447a.501.501 0 0 1-.775-.632l2.05-2.506a1.5 1.5 0 1 1 2.814-.43L9.67 10a1.494 1.494 0 0 1 1.48-.1l1.515-1.468A1.5 1.5 0 0 1 14 6.25Zm-3.5 4.5a.5.5 0 1 0 0 1 .5.5 0 0 0 0-1ZM7 8.25a.5.5 0 1 0 0 1 .5.5 0 0 0 0-1Zm7-1a.5.5 0 1 0 0 1 .5.5 0 0 0 0-1Z"/>
</svg>
