<svg xmlns="http://www.w3.org/2000/svg" width="16" height="16" fill="currentColor" viewBox="0 0 16 16">
  <path d="M6 4a.5.5 0 0 1 0 1h-.5v.794c.578.595 1.222 1.603 1.43 2.741.116.633.1 1.32-.15 1.998-.229.616-.643 1.196-1.28 1.71V15H6a.5.5 0 0 1 0 1H4a.5.5 0 0 1 0-1h.5v-2.756c-.637-.514-1.051-1.095-1.28-1.71a3.76 3.76 0 0 1-.15-1.999c.207-1.139.851-2.147 1.43-2.742V5H4a.5.5 0 0 1 0-1h2Zm4.5 0a.5.5 0 0 1 0 1H10v2.793c.578.595 1.222 1.603 1.43 2.742.116.633.1 1.32-.15 1.998-.229.616-.643 1.196-1.28 1.71V15h.5a.5.5 0 0 1 0 1h-2a.5.5 0 0 1 0-1H9v-.756c-.637-.514-1.051-1.095-1.28-1.71a3.76 3.76 0 0 1-.15-1.999c.206-1.139.85-2.148 1.43-2.743V5h-.5a.5.5 0 0 1 0-1h2ZM15 4a.5.5 0 0 1 0 1h-.5v.793c.578.595 1.222 1.603 1.43 2.742.116.633.1 1.32-.15 1.998-.229.616-.643 1.196-1.28 1.71V15h.5a.5.5 0 0 1 0 1h-2a.5.5 0 0 1 0-1h.5v-2.756c-.637-.514-1.051-1.095-1.28-1.71a3.76 3.76 0 0 1-.15-1.999c.207-1.139.851-2.147 1.43-2.742V5H13a.5.5 0 0 1 0-1h2Zm-6.46 7.75c.027.146.065.292.118.435.146.394.408.795.842 1.175.434-.38.696-.78.842-1.175a2.52 2.52 0 0 0 .116-.435H8.54Zm-4.5-2c.027.147.065.292.118.435.146.394.408.795.842 1.175.434-.38.696-.78.842-1.175a2.52 2.52 0 0 0 .116-.435H4.04Zm9 0c.027.147.065.292.118.435.146.394.408.795.842 1.175.434-.38.696-.78.842-1.175a2.52 2.52 0 0 0 .116-.435H13.04ZM9.5 8.73c-.4.489-.805 1.208-.947 1.985-.003.011-.004.023-.006.035h1.906l-.006-.035C10.305 9.938 9.9 9.219 9.5 8.73Zm-4.5-2c-.4.489-.805 1.208-.947 1.985l-.006.035h1.906l-.006-.035C5.805 7.938 5.4 7.219 5 6.73Zm9 0c-.4.489-.805 1.208-.947 1.985l-.006.035h1.906l-.006-.035C14.805 7.938 14.4 7.219 14 6.73Z"/>
</svg>
