<svg xmlns="http://www.w3.org/2000/svg" width="16" height="16" fill="currentColor" viewBox="0 0 16 16">
  <path d="M1.5 1.5A.5.5 0 0 1 2 2v11.5h12a.5.5 0 0 1 0 1H1.5A.5.5 0 0 1 1 14V2a.5.5 0 0 1 .5-.5Zm4.25 6a2.75 2.75 0 1 1 0 5.5 2.75 2.75 0 0 1 0-5.5Zm5.25 2a1.5 1.5 0 1 1 0 3 1.5 1.5 0 0 1 0-3Zm-5.25-1a1.75 1.75 0 1 0 0 3.5 1.75 1.75 0 0 0 0-3.5Zm5.25 2a.5.5 0 1 0 0 1 .5.5 0 0 0 0-1Zm-.25-9a3.25 3.25 0 1 1 0 6.5 3.25 3.25 0 0 1 0-6.5Zm0 1a2.25 2.25 0 1 0 0 4.5 2.25 2.25 0 0 0 0-4.5Zm-6.25 1a1.5 1.5 0 1 1 0 3 1.5 1.5 0 0 1 0-3Zm0 1a.5.5 0 1 0 0 1 .5.5 0 0 0 0-1Z"/>
</svg>
