<svg xmlns="http://www.w3.org/2000/svg" width="16" height="16" fill="currentColor" viewBox="0 0 16 16">
  <path d="M9.467 12.22a3.76 3.76 0 0 1 1.998-.15c1.139.207 2.147.851 2.742 1.43H15V13a.5.5 0 0 1 1 0v2a.5.5 0 0 1-1 0v-.5h-.793c-.595.578-1.604 1.222-2.742 1.43a3.76 3.76 0 0 1-1.998-.15c-.616-.23-1.197-.643-1.711-1.28H5v.5a.5.5 0 0 1-1 0v-2a.5.5 0 0 1 1 0v.5h2.756c.514-.637 1.095-1.051 1.71-1.28Zm.783.82a2.511 2.511 0 0 0-.436.118c-.393.146-.794.408-1.174.842.38.434.78.696 1.174.842.144.053.29.089.436.115V13.04Zm1 1.912.035-.005c.777-.142 1.496-.548 1.985-.947-.489-.4-1.208-.805-1.985-.947-.011-.003-.023-.004-.035-.006v1.905ZM7.467 7.721a3.76 3.76 0 0 1 1.998-.152c1.139.208 2.147.852 2.742 1.43H15v-.5a.5.5 0 0 1 1 0v2a.5.5 0 0 1-1 0V10h-2.793c-.595.58-1.604 1.223-2.742 1.431a3.76 3.76 0 0 1-1.998-.15c-.616-.23-1.197-.643-1.711-1.28H5v.5a.5.5 0 0 1-1 0v-2a.5.5 0 0 1 1 0V9h.756c.514-.637 1.095-1.051 1.71-1.28Zm.783.82a2.509 2.509 0 0 0-.436.117c-.393.146-.794.408-1.174.842.38.434.78.696 1.174.842.144.053.29.089.436.115V8.54Zm1 1.911.035-.005c.777-.142 1.496-.548 1.985-.947-.489-.4-1.208-.805-1.985-.947l-.035-.006v1.905Zm.217-7.231a3.76 3.76 0 0 1 1.998-.152c1.139.208 2.147.852 2.742 1.43H15V4a.5.5 0 0 1 1 0v2a.5.5 0 0 1-1 0v-.5h-.793c-.595.58-1.604 1.223-2.742 1.431a3.76 3.76 0 0 1-1.998-.15C8.85 6.55 8.27 6.136 7.756 5.5H5V6a.5.5 0 0 1-1 0V4a.5.5 0 0 1 1 0v.5h2.756c.514-.637 1.095-1.051 1.71-1.28Zm.783.82a2.507 2.507 0 0 0-.436.117c-.393.146-.794.408-1.174.842.38.434.78.696 1.174.842.144.053.29.089.436.115V4.042Zm1 1.911.035-.005c.777-.142 1.496-.548 1.985-.947-.489-.4-1.208-.805-1.985-.947-.011-.003-.023-.003-.035-.005v1.904Z"/>
</svg>
