<svg xmlns="http://www.w3.org/2000/svg" width="16" height="16" fill="currentColor" viewBox="0 0 16 16">
  <path d="M9 2a7 7 0 1 1-5.978 3.354.497.497 0 0 1 .145-.226A6.993 6.993 0 0 1 9 2ZM5.126 13.58A5.97 5.97 0 0 0 8.5 14.977v-2.01a3.978 3.978 0 0 1-1.953-.808L5.126 13.58Zm7.033-7.033a3.998 3.998 0 0 1-2.66 6.42v2.01a5.998 5.998 0 0 0 4.081-9.851l-1.42 1.42Zm-8.466-.348A5.973 5.973 0 0 0 3 9c0 1.477.534 2.828 1.419 3.873l1.42-1.42A3.983 3.983 0 0 1 5 9c0-.636.149-1.237.412-1.77L3.693 6.2ZM9 6C7.342 6 6 7.342 6 9s1.342 3 3 3 3-1.342 3-3-1.342-3-3-3Zm0-3a5.99 5.99 0 0 0-4.767 2.356l1.73 1.039A3.99 3.99 0 0 1 9 5c.925 0 1.775.314 2.452.84l1.421-1.421A5.974 5.974 0 0 0 9 3Z"/>
</svg>
