<svg xmlns="http://www.w3.org/2000/svg" width="16" height="16" fill="currentColor" viewBox="0 0 16 16">
  <path d="M6 4a.5.5 0 0 1 0 1h-.5v1.5h1A.5.5 0 0 1 7 7v6a.5.5 0 0 1-.5.5h-1V15H6a.5.5 0 0 1 0 1H4a.5.5 0 0 1 0-1h.5v-1.5h-1A.5.5 0 0 1 3 13V7a.5.5 0 0 1 .5-.5h1V5H4a.5.5 0 0 1 0-1h2Zm4.5 0a.5.5 0 0 1 0 1H10v1.5h1a.5.5 0 0 1 .5.5v4.5a.5.5 0 0 1-.5.5h-1v3h.5a.5.5 0 0 1 0 1h-2a.5.5 0 0 1 0-1H9v-3H8a.5.5 0 0 1-.5-.5V7a.5.5 0 0 1 .5-.5h1V5h-.5a.5.5 0 0 1 0-1h2ZM15 4a.5.5 0 0 1 0 1h-.5v.5h1a.5.5 0 0 1 .5.5v8a.5.5 0 0 1-.5.5h-1v.5h.5a.5.5 0 0 1 0 1h-2a.5.5 0 0 1 0-1h.5v-.5h-1a.5.5 0 0 1-.5-.5V6a.5.5 0 0 1 .5-.5h1V5H13a.5.5 0 0 1 0-1h2Zm-2 9.5h2v-7h-2v7Zm-9-1h2v-5H4v5ZM8.5 11h2V7.5h-2V11Z"/>
</svg>
