<svg xmlns="http://www.w3.org/2000/svg" width="16" height="16" fill="currentColor" viewBox="0 0 16 16">
  <path d="M14 12a.5.5 0 0 1 .5.5v1h.5V13a.5.5 0 0 1 1 0v2a.5.5 0 0 1-1 0v-.5h-.5v1a.5.5 0 0 1-.5.5H6a.5.5 0 0 1-.5-.5v-1H5v.5a.5.5 0 0 1-1 0v-2a.5.5 0 0 1 1 0v.5h.5v-1A.5.5 0 0 1 6 12h8Zm-7.5 3h7v-2h-7v2ZM13 7.5a.5.5 0 0 1 .5.5v1H15v-.5a.5.5 0 0 1 1 0v2a.5.5 0 0 1-1 0V10h-1.5v1a.5.5 0 0 1-.5.5H8.5A.5.5 0 0 1 8 11v-1H5v.5a.5.5 0 0 1-1 0v-2a.5.5 0 0 1 1 0V9h3V8a.5.5 0 0 1 .5-.5H13Zm-4 3h3.5v-2H9v2ZM13 3a.5.5 0 0 1 .5.5v1H15V4a.5.5 0 0 1 1 0v2a.5.5 0 0 1-1 0v-.5h-1.5v1a.5.5 0 0 1-.5.5H7a.5.5 0 0 1-.5-.5v-1H5V6a.5.5 0 0 1-1 0V4a.5.5 0 0 1 1 0v.5h1.5v-1A.5.5 0 0 1 7 3h6ZM7.5 6h5V4h-5v2Z"/>
</svg>
