<svg xmlns="http://www.w3.org/2000/svg" width="16" height="16" fill="currentColor" viewBox="0 0 16 16">
  <path d="M2.5 3a.5.5 0 0 1 .5.5V15h12a.5.5 0 0 1 0 1H2.5a.5.5 0 0 1-.5-.5v-12a.5.5 0 0 1 .5-.5Zm12.026 1.502A.5.5 0 0 1 15.06 5v1.666a.5.5 0 0 1-1 0v-.33c-.627.958-1.212 2.366-1.309 4.191-.049.911-.236 1.647-.527 2.158-.28.49-.76.916-1.377.78-.557-.122-.933-.656-1.163-1.281-.244-.66-.389-1.579-.389-2.757 0-.922-.188-1.507-.407-1.826-.207-.302-.416-.347-.578-.315-.199.04-.491.232-.746.714-.25.473-.438 1.18-.438 2.127 0 2.132-.701 3.275-1.523 3.856a2.843 2.843 0 0 1-1.464.515 1.815 1.815 0 0 1-.148.001h-.018l-.001-.001H3.97a.5.5 0 1 1 .06-.998h.004l.055-.001a1.845 1.845 0 0 0 .936-.332c.49-.347 1.1-1.14 1.1-3.04 0-1.07.21-1.947.554-2.596.338-.638.838-1.104 1.431-1.224.63-.128 1.214.164 1.6.728.376.547.584 1.357.584 2.392 0 1.108.138 1.9.327 2.41.201.546.404.645.439.652.002 0 .018.007.062-.021a.795.795 0 0 0 .232-.278c.187-.328.353-.896.397-1.716.113-2.12.822-3.758 1.589-4.863l-.585.054a.5.5 0 0 1-.09-.996l1.729-.157a.501.501 0 0 1 .132-.01Z"/>
</svg>
