<svg xmlns="http://www.w3.org/2000/svg" width="16" height="16" fill="currentColor" viewBox="0 0 16 16">
  <path d="M1.5 1.5A.5.5 0 0 1 2 2v11.5h12a.5.5 0 0 1 0 1H1.5A.5.5 0 0 1 1 14V2a.5.5 0 0 1 .5-.5Zm3 8.5a1.5 1.5 0 1 1 0 3 1.5 1.5 0 0 1 0-3Zm6.5-.5a1.5 1.5 0 1 1 0 3 1.5 1.5 0 0 1 0-3ZM4.5 11a.5.5 0 1 0 0 1 .5.5 0 0 0 0-1Zm6.5-.5a.5.5 0 1 0 0 1 .5.5 0 0 0 0-1ZM9 6a1.5 1.5 0 1 1 0 3 1.5 1.5 0 0 1 0-3ZM4.5 5a1.5 1.5 0 1 1 0 3 1.5 1.5 0 0 1 0-3ZM9 7a.5.5 0 1 0 0 1 .5.5 0 0 0 0-1ZM4.5 6a.5.5 0 1 0 0 1 .5.5 0 0 0 0-1Zm8-3.5a1.5 1.5 0 1 1 0 3 1.5 1.5 0 0 1 0-3Zm0 1a.5.5 0 1 0 0 1 .5.5 0 0 0 0-1Z"/>
</svg>
