<svg xmlns="http://www.w3.org/2000/svg" width="16" height="16" fill="currentColor" viewBox="0 0 16 16">
  <path d="M15 5a.5.5 0 0 1 .5.5V14a.5.5 0 0 1 0 1h-13a.5.5 0 0 1 0-1v-3a.5.5 0 0 1 .5-.5h3a.5.5 0 0 1 .5.5v3H7V9a.5.5 0 0 1 .5-.5h3a.5.5 0 0 1 .5.5v5h.5V5.5A.5.5 0 0 1 12 5h3ZM3.5 14h2v-2.5h-2V14ZM8 14h2V9.5H8V14Zm4.5 0h2V6h-2v8Zm-.75-12c.692 0 1.25.558 1.25 1.25a1.248 1.248 0 0 1-1.501 1.225L9.911 6.289a1.25 1.25 0 0 1-2.314.946l-2.1-.233A1.244 1.244 0 0 1 4.5 7.5c-.022 0-.044-.003-.066-.004v.002l-1 1.75a.5.5 0 0 1-.869-.496l.973-1.703A1.248 1.248 0 0 1 4.5 5c.614 0 1.12.44 1.228 1.021l1.884.21A1.247 1.247 0 0 1 9.2 5.584l1.48-1.69A1.248 1.248 0 0 1 11.75 2Zm-3 4.5c-.14 0-.25.11-.25.25s.11.25.25.25.25-.11.25-.25-.11-.25-.25-.25ZM4.5 6c-.14 0-.25.11-.25.25s.11.25.25.25.25-.11.25-.25S4.64 6 4.5 6Zm7.25-3c-.14 0-.25.11-.25.25s.11.25.25.25.25-.11.25-.25-.11-.25-.25-.25Z"/>
</svg>
