<svg xmlns="http://www.w3.org/2000/svg" width="16" height="16" fill="currentColor" viewBox="0 0 16 16">
  <path d="M7 2a1.5 1.5 0 0 1 1.5 1.5v11A1.5 1.5 0 0 1 7 16H3.5A1.5 1.5 0 0 1 2 14.5v-11A1.5 1.5 0 0 1 3.5 2H7Zm7.5 7.5A1.5 1.5 0 0 1 16 11v3.5a1.5 1.5 0 0 1-1.5 1.5H11a1.5 1.5 0 0 1-1.5-1.5V11A1.5 1.5 0 0 1 11 9.5h3.5ZM3.5 3a.5.5 0 0 0-.5.5v11a.5.5 0 0 0 .5.5H7a.5.5 0 0 0 .5-.5v-11A.5.5 0 0 0 7 3H3.5Zm7 11.5a.5.5 0 0 0 .5.5h3.5a.5.5 0 0 0 .5-.5V14h-4.5v.5Zm.5-4a.5.5 0 0 0-.5.5v2H15v-2a.5.5 0 0 0-.5-.5H11ZM14.5 2A1.5 1.5 0 0 1 16 3.5V7a1.5 1.5 0 0 1-1.5 1.5H11A1.5 1.5 0 0 1 9.5 7V3.5A1.5 1.5 0 0 1 11 2h3.5ZM13 7.5h1.5A.5.5 0 0 0 15 7V3.5a.5.5 0 0 0-.5-.5H13v4.5ZM11 3a.5.5 0 0 0-.5.5V7a.5.5 0 0 0 .5.5h1V3h-1Z"/>
</svg>
