<svg xmlns="http://www.w3.org/2000/svg" width="16" height="16" fill="currentColor" viewBox="0 0 16 16">
  <path d="M9 9c3.826 0 7 2.871 7 6.5a.5.5 0 0 1-.5.5h-3.129a.5.5 0 0 1-.5-.5c0-.736-.344-1.416-.902-1.898l-1.563 2.189-.015.017a.505.505 0 0 1-.124.113c-.01.007-.022.012-.033.018-.016.008-.033.018-.05.025-.015.005-.03.01-.044.013-.017.005-.034.011-.052.014-.017.003-.034.004-.05.005-.013.001-.025.004-.038.004l-.006-.001c-.02 0-.04-.003-.06-.006-.014-.002-.027-.002-.04-.005-.014-.003-.027-.008-.041-.012-.018-.006-.036-.01-.052-.018-.013-.005-.024-.013-.036-.02a.346.346 0 0 1-.05-.027l-.006-.004c-.01-.007-.019-.017-.028-.025a.492.492 0 0 1-.103-.115l-.017-.033a.34.34 0 0 1-.026-.05l-.014-.044c-.004-.017-.01-.034-.013-.052-.003-.017-.004-.034-.005-.05L8.5 15.5v-.014c0-.017.004-.035.006-.052.002-.013.002-.027.005-.04.002-.012.008-.024.011-.037a.496.496 0 0 1 .068-.143c0-.002.002-.003.003-.004l1.513-2.12A3.11 3.11 0 0 0 9 12.889c-1.624 0-2.87 1.204-2.87 2.611a.5.5 0 0 1-.5.5H2.5a.5.5 0 0 1-.5-.5C2 11.871 5.174 9 9 9Zm-5.415 4.135A5.126 5.126 0 0 0 3.025 15h2.142c.04-.275.113-.538.215-.788l-1.797-1.077Zm9.032 1.077c.102.25.176.513.216.788h2.142a5.126 5.126 0 0 0-.56-1.865l-1.798 1.077ZM9.5 11.92c.424.051.829.168 1.201.338l.392-.548a.5.5 0 1 1 .813.581l-.354.496c.206.169.391.36.555.565l1.764-1.058c-.992-1.267-2.558-2.137-4.371-2.274v1.9Zm-1-1.9c-1.813.137-3.38 1.007-4.372 2.274l1.764 1.058A3.938 3.938 0 0 1 8.5 11.92v-1.9Z"/>
</svg>
