<svg xmlns="http://www.w3.org/2000/svg" width="16" height="16" fill="currentColor" viewBox="0 0 16 16">
  <path d="M2.5 3a.5.5 0 0 1 .5.5v4.83l3.479-2.25.04-.023a.5.5 0 0 1 .624.134l2.354 2.997 3.108-3.995.037-.042a.502.502 0 0 1 .737.024l1.5 1.75.032.04a.5.5 0 0 1-.756.647l-.035-.037-1.1-1.285-3.124 4.018a.501.501 0 0 1-.789.002L6.638 7.168 3 9.521v3.16l2.118-2.503.032-.034a.5.5 0 0 1 .616-.068l3.688 2.306 3.22-2.76.037-.03a.5.5 0 0 1 .61.024l1.5 1.25.037.034a.501.501 0 0 1-.637.765l-.041-.03-1.176-.98-3.179 2.725a.5.5 0 0 1-.59.044l-3.632-2.27-2.471 2.92A.496.496 0 0 1 3 14.18V15h12a.5.5 0 0 1 0 1H2.5a.5.5 0 0 1-.5-.5v-12a.5.5 0 0 1 .5-.5Z"/>
</svg>
