<svg xmlns="http://www.w3.org/2000/svg" width="16" height="16" fill="none" viewBox="0 0 16 16">
  <path fill="#3D3C3C" fill-rule="evenodd" d="M4.429 2C3.273 2 2.5 3.108 2.5 4.251V5A1.5 1.5 0 0 0 1 6.5v1A1.5 1.5 0 0 0 2.5 9v.945c0 1.143.69 2.15 1.846 2.15h.077v.935a.99.99 0 0 0 .449.82c.244.16.65.25.99-.03a.454.454 0 0 0 .013-.012l1.93-1.714h3.849c1.157 0 1.846-1.012 1.846-2.153V9A1.5 1.5 0 0 0 15 7.5v-1A1.5 1.5 0 0 0 13.5 5v-.749C13.5 3.108 12.727 2 11.571 2H4.43ZM13.5 6v2a.5.5 0 0 0 .5-.5v-1a.5.5 0 0 0-.5-.5Zm-11 2V6a.5.5 0 0 0-.5.5v1a.5.5 0 0 0 .5.5Zm1-3.749c0-.79.506-1.251.929-1.251h7.142c.423 0 .929.46.929 1.251v5.69c0 .792-.425 1.153-.846 1.153H7.615a.5.5 0 0 0-.332.126l-1.86 1.652v-1.278a.5.5 0 0 0-.5-.5h-.577c-.423 0-.846-.358-.846-1.15V4.252ZM6 6.5a1 1 0 1 0 0-2 1 1 0 0 0 0 2Zm.372 1.166C6.897 8.249 7.469 8.5 8 8.5c.53 0 1.103-.25 1.628-.834a.5.5 0 0 1 .744.668C9.697 9.084 8.869 9.5 8 9.5c-.87 0-1.697-.416-2.372-1.166a.5.5 0 0 1 .744-.668ZM11 5.5a1 1 0 1 1-2 0 1 1 0 0 1 2 0Z" clip-rule="evenodd"/>
</svg>
