<svg xmlns="http://www.w3.org/2000/svg" width="16" height="16" fill="currentColor" viewBox="0 0 16 16">
  <path fill-rule="evenodd" d="M3.357 2C2.083 2 1 2.98 1 4.251v5.694c0 .617.236 1.148.663 1.518.419.363.982.537 1.587.537h.25v1.03c0 .427.304.716.565.848.265.134.664.198 1.009-.022a.538.538 0 0 0 .023-.015L7.661 12h5.089c.606 0 1.169-.175 1.588-.54.426-.37.662-.902.662-1.52V4.252C15 2.981 13.917 2 12.643 2H3.357ZM2 4.251C2 3.587 2.58 3 3.357 3h9.286C13.42 3 14 3.587 14 4.251v5.69c0 .35-.126.598-.318.765-.2.173-.512.294-.932.294H7.5a.5.5 0 0 0-.292.094l-2.653 1.905a.158.158 0 0 1-.055-.022V11.5A.5.5 0 0 0 4 11h-.75c-.42 0-.733-.12-.932-.293-.192-.166-.318-.413-.318-.762V4.25ZM4.372 6.5h.256c.206 0 .372.155.372.345v.31c0 .19-.166.345-.372.345h-.256C4.166 7.5 4 7.345 4 7.155v-.31c0-.19.166-.345.372-.345Zm3.5 0h.256c.206 0 .372.155.372.345v.31c0 .19-.166.345-.372.345h-.256c-.206 0-.372-.155-.372-.345v-.31c0-.19.166-.345.372-.345Zm3.756 0h-.256c-.206 0-.372.155-.372.345v.31c0 .19.166.345.372.345h.256c.206 0 .372-.155.372-.345v-.31c0-.19-.166-.345-.372-.345Z" clip-rule="evenodd"/>
</svg>
