<svg xmlns="http://www.w3.org/2000/svg" width="16" height="16" fill="currentColor" viewBox="0 0 16 16">
  <path d="M4.628 6.5h-.256c-.206 0-.372.155-.372.345v.31c0 .19.166.345.372.345h.256c.206 0 .372-.155.372-.345v-.31c0-.19-.166-.345-.372-.345Zm3.5 0h-.256c-.206 0-.372.155-.372.345v.31c0 .19.166.345.372.345h.256c.206 0 .372-.155.372-.345v-.31c0-.19-.166-.345-.372-.345Zm3.5 0h-.256c-.206 0-.372.155-.372.345v.31c0 .19.166.345.372.345h.256c.206 0 .372-.155.372-.345v-.31c0-.19-.166-.345-.372-.345Z"/>
  <path fill-rule="evenodd" d="M1 4.251C1 2.981 2.083 2 3.357 2h9.286C13.917 2 15 2.98 15 4.251v5.69c0 .617-.236 1.148-.662 1.52-.419.364-.982.539-1.588.539H7.66l-2.563 1.84a.538.538 0 0 1-.023.016c-.345.22-.744.156-1.01.022-.26-.132-.564-.42-.564-.848V12h-.25c-.605 0-1.168-.174-1.587-.537-.427-.37-.663-.9-.663-1.518V4.25ZM3.357 3C2.58 3 2 3.587 2 4.251v5.694c0 .35.126.596.318.762.199.173.511.293.932.293H4a.5.5 0 0 1 .5.5v1.477a.167.167 0 0 0 .055.022l2.653-1.905A.5.5 0 0 1 7.5 11h5.25c.42 0 .732-.12.932-.294.192-.167.318-.416.318-.765V4.25C14 3.587 13.42 3 12.643 3H3.357Z" clip-rule="evenodd"/>
</svg>
