<svg xmlns="http://www.w3.org/2000/svg" width="16" height="16" fill="none" viewBox="0 0 16 16">
  <path fill="#3D3C3C" fill-rule="evenodd" d="M7.086 1.06a7.062 7.062 0 0 1 1.828 0 .5.5 0 1 1-.13.99 6.062 6.062 0 0 0-1.568 0 .5.5 0 1 1-.13-.99Zm-1.112.742a.5.5 0 0 1-.27.653 5.993 5.993 0 0 0-1.356.784.5.5 0 1 1-.61-.793 6.993 6.993 0 0 1 1.582-.915.5.5 0 0 1 .654.27Zm4.052 0a.5.5 0 0 1 .654-.27c.569.235 1.1.544 1.582.914a.5.5 0 0 1-.61.793 5.993 5.993 0 0 0-1.355-.784.5.5 0 0 1-.27-.653ZM3.148 3.646a.5.5 0 0 1 .091.702 5.993 5.993 0 0 0-.784 1.355.5.5 0 1 1-.924-.383c.236-.569.545-1.1.915-1.582a.5.5 0 0 1 .702-.092Zm9.704 0a.5.5 0 0 1 .702.092c.37.482.678 1.013.915 1.582a.5.5 0 1 1-.924.383 5.994 5.994 0 0 0-.784-1.355.5.5 0 0 1 .091-.702ZM1.62 6.656a.5.5 0 0 1 .43.56 6.062 6.062 0 0 0 0 1.568.5.5 0 1 1-.99.13 7.062 7.062 0 0 1 0-1.828.5.5 0 0 1 .56-.43Zm12.76 0a.5.5 0 0 1 .56.43 7.067 7.067 0 0 1 0 1.828.5.5 0 0 1-.99-.13 6.071 6.071 0 0 0 0-1.568.5.5 0 0 1 .43-.56Zm-12.578 3.37a.5.5 0 0 1 .653.27c.202.488.467.943.784 1.356a.5.5 0 0 1-.793.61 6.994 6.994 0 0 1-.915-1.582.5.5 0 0 1 .27-.654Zm12.396 0a.5.5 0 0 1 .27.654 7.004 7.004 0 0 1-.914 1.582.5.5 0 0 1-.793-.61c.317-.413.582-.868.784-1.355a.5.5 0 0 1 .653-.27ZM3.646 12.852a.5.5 0 0 1 .702-.091c.413.317.868.582 1.355.784a.5.5 0 0 1-.383.924 6.994 6.994 0 0 1-1.582-.915.5.5 0 0 1-.092-.702Zm8.708 0a.5.5 0 0 1-.092.702 6.995 6.995 0 0 1-1.582.915.5.5 0 1 1-.383-.924 5.994 5.994 0 0 0 1.355-.784.5.5 0 0 1 .702.091ZM6.655 14.38a.5.5 0 0 1 .56-.43 6.071 6.071 0 0 0 1.57 0 .5.5 0 1 1 .129.99 7.067 7.067 0 0 1-1.828 0 .5.5 0 0 1-.43-.56Z" clip-rule="evenodd"/>
</svg>
