<svg xmlns="http://www.w3.org/2000/svg" width="16" height="16" fill="currentColor" viewBox="0 0 16 16">
  <mask id="a">
    <path fill-rule="evenodd" d="M8 2a6 6 0 1 0 0 12A6 6 0 0 0 8 2ZM1 8a7 7 0 1 1 14 0A7 7 0 0 1 1 8Z" clip-rule="evenodd"/>
    <path d="M12.5 8a4.5 4.5 0 1 1-9 0 4.5 4.5 0 0 1 9 0Z"/>
  </mask>
  <path fill-rule="evenodd" d="M8 2a6 6 0 1 0 0 12A6 6 0 0 0 8 2ZM1 8a7 7 0 1 1 14 0A7 7 0 0 1 1 8Z" clip-rule="evenodd"/>
  <path d="M12.5 8a4.5 4.5 0 1 1-9 0 4.5 4.5 0 0 1 9 0Z"/>
  <path d="M3 8a5 5 0 0 1 5-5V1a7 7 0 0 0-7 7h2Zm5 5a5 5 0 0 1-5-5H1a7 7 0 0 0 7 7v-2Zm5-5a5 5 0 0 1-5 5v2a7 7 0 0 0 7-7h-2ZM8 3a5 5 0 0 1 5 5h2a7 7 0 0 0-7-7v2Zm0-3a8 8 0 0 0-8 8h2a6 6 0 0 1 6-6V0Zm8 8a8 8 0 0 0-8-8v2a6 6 0 0 1 6 6h2Zm-8 8a8 8 0 0 0 8-8h-2a6 6 0 0 1-6 6v2ZM0 8a8 8 0 0 0 8 8v-2a6 6 0 0 1-6-6H0Zm11.5 0A3.5 3.5 0 0 1 8 11.5v2A5.5 5.5 0 0 0 13.5 8h-2ZM8 11.5A3.5 3.5 0 0 1 4.5 8h-2A5.5 5.5 0 0 0 8 13.5v-2ZM4.5 8A3.5 3.5 0 0 1 8 4.5v-2A5.5 5.5 0 0 0 2.5 8h2ZM8 4.5A3.5 3.5 0 0 1 11.5 8h2A5.5 5.5 0 0 0 8 2.5v2Z" mask="url(#a)"/>
</svg>
