<svg xmlns="http://www.w3.org/2000/svg" width="16" height="16" fill="currentColor" viewBox="0 0 16 16">
  <path d="M8.957 13.81a.5.5 0 0 1 .383.924A3.491 3.491 0 0 1 8 15c-.474 0-.926-.094-1.34-.266a.5.5 0 0 1 .383-.924 2.49 2.49 0 0 0 1.914 0Zm-4.191-3.65a.5.5 0 0 1 .923.383 2.49 2.49 0 0 0-.189.957c0 .34.067.663.19.957a.5.5 0 0 1-.924.383A3.49 3.49 0 0 1 4.5 11.5c0-.474.094-.927.266-1.34Zm5.815-.27a.5.5 0 0 1 .653.27c.172.413.266.866.266 1.34 0 .474-.094.927-.266 1.34a.5.5 0 0 1-.924-.383 2.49 2.49 0 0 0 .19-.957c0-.34-.068-.663-.19-.957a.5.5 0 0 1 .271-.653ZM7.817 1c1.95 0 3.65 1.167 4.162 2.831a.496.496 0 0 1 .019.17c.798.016 1.54.397 2.078.95.551.566.924 1.347.924 2.188 0 1.428-.529 2.784-1.806 3.322a.5.5 0 0 1-.388-.922C13.55 9.225 14 8.375 14 7.14c0-.545-.244-1.084-.64-1.49-.396-.41-.912-.65-1.413-.65-.49 0-.827.137-1.074.309a.5.5 0 0 1-.57-.823c.207-.144.447-.266.722-.352l-.002-.009C10.655 2.937 9.39 2 7.817 2 5.924 2 4.5 3.34 4.5 4.868V5c0 .023-.004.046-.007.068l.203.036a.5.5 0 0 1-.173.986l-.359-.064-.025-.005c-.347-.08-.595-.067-.814-.001l-.092.03C2.47 6.343 2 7.043 2 7.752c0 .779.482 1.47 1.196 1.774a.5.5 0 0 1-.391.92C1.742 9.993 1 8.952 1 7.751c0-1.147.748-2.204 1.877-2.635l.169-.056a2.23 2.23 0 0 1 .454-.084v-.108C3.5 2.674 5.493 1 7.817 1ZM8 8c.474 0 .927.094 1.34.266a.5.5 0 0 1-.383.923A2.492 2.492 0 0 0 8 9c-.34 0-.663.068-.957.19a.5.5 0 0 1-.383-.924A3.491 3.491 0 0 1 8 8Z"/>
</svg>
