<svg xmlns="http://www.w3.org/2000/svg" width="16" height="16" fill="currentColor" viewBox="0 0 16 16">
  <path fill-rule="evenodd" d="M10.292 6.516c.412-.301.951-.516 1.655-.516.827 0 1.591.411 2.138 1.004.55.595.915 1.409.915 2.279C15 11.293 13.709 13 11.674 13H4.002C2.312 13 1 11.592 1 9.93c0-1.183.73-2.293 1.868-2.75.455-.183.927-.211 1.486-.078l.347.064a.5.5 0 1 1-.183.983l-.36-.066a.501.501 0 0 1-.026-.006c-.391-.095-.652-.066-.89.03A1.986 1.986 0 0 0 2 9.929C2 11.074 2.897 12 4.002 12h7.672C13.017 12 14 10.89 14 9.283c0-.591-.252-1.17-.65-1.6-.4-.434-.911-.683-1.403-.683-.484 0-.817.142-1.064.323a.5.5 0 0 1-.59-.807Z" clip-rule="evenodd"/>
  <path fill-rule="evenodd" d="M7.818 4C5.988 4 4.5 5.495 4.5 7.35v.15a.5.5 0 0 1-1 0v-.15C3.5 4.95 5.428 3 7.818 3a4.322 4.322 0 0 1 4.165 3.202.5.5 0 0 1-.966.26A3.321 3.321 0 0 0 7.817 4Z" clip-rule="evenodd"/>
</svg>
