<svg xmlns="http://www.w3.org/2000/svg" width="16" height="16" fill="currentColor" viewBox="0 0 16 16">
  <path fill-rule="evenodd" d="M8 7.487a.5.5 0 0 1 .5.5v6a.5.5 0 0 1-1 0v-6a.5.5 0 0 1 .5-.5Z" clip-rule="evenodd"/>
  <path fill-rule="evenodd" d="M5.646 11.646a.5.5 0 0 1 .708 0L8 13.293l1.646-1.647a.5.5 0 0 1 .708.708l-2 2a.5.5 0 0 1-.708 0l-2-2a.5.5 0 0 1 0-.708Zm4.646-6.643c.412-.302.951-.516 1.655-.516.827 0 1.591.411 2.138 1.004.55.595.915 1.409.915 2.279 0 .97-.216 1.888-.71 2.578-.509.71-1.286 1.139-2.29 1.139a.5.5 0 0 1 0-1c.685 0 1.158-.276 1.477-.721.334-.467.523-1.157.523-1.996 0-.591-.252-1.17-.65-1.6-.4-.434-.911-.683-1.403-.683-.484 0-.817.142-1.064.323a.5.5 0 0 1-.59-.807Zm-5.938.586.347.064a.5.5 0 1 1-.183.983l-.36-.067a.501.501 0 0 1-.026-.005c-.391-.095-.652-.066-.89.03m1.112-1.005c-.559-.133-1.031-.105-1.486.077A2.986 2.986 0 0 0 1 8.416c0 1.663 1.312 3.07 3.002 3.07a.5.5 0 0 0 0-1C2.898 10.487 2 9.562 2 8.417c0-.776.485-1.518 1.241-1.822" clip-rule="evenodd"/>
  <path fill-rule="evenodd" d="M8 2.5c-1.829 0-3.318 1.495-3.318 3.35V6a.5.5 0 1 1-1 0v-.15C3.682 3.45 5.611 1.5 8 1.5a4.321 4.321 0 0 1 4.165 3.202.5.5 0 1 1-.965.26A3.321 3.321 0 0 0 8 2.5Z" clip-rule="evenodd"/>
</svg>
