<svg xmlns="http://www.w3.org/2000/svg" width="16" height="16" fill="currentColor" viewBox="0 0 16 16">
  <path fill-rule="evenodd" d="M8 2.5c-1.763 0-3.21 1.39-3.312 3.15l.013.003a.5.5 0 1 1-.183.983l-.36-.067a.501.501 0 0 1-.026-.005c-.391-.095-.652-.066-.89.03l.47-.425-.47.425A1.986 1.986 0 0 0 2 8.416c0 1.145.897 2.07 2.002 2.07a.5.5 0 1 1 0 1C2.312 11.487 1 10.08 1 8.417c0-1.182.73-2.292 1.868-2.75.265-.106.537-.16.828-.16C3.869 3.267 5.726 1.5 8 1.5a4.32 4.32 0 0 1 4.103 2.992c.767.047 1.47.444 1.982 1 .55.594.915 1.408.915 2.278 0 .97-.216 1.888-.71 2.578-.509.71-1.286 1.139-2.29 1.139a.5.5 0 0 1 0-1c.685 0 1.158-.276 1.477-.721.334-.467.523-1.157.523-1.996 0-.591-.252-1.17-.65-1.6-.4-.434-.911-.683-1.403-.683-.484 0-.817.142-1.064.323a.5.5 0 0 1-.59-.807c.223-.164.485-.302.79-.394A3.318 3.318 0 0 0 8 2.5Zm2.489 6.485a11.634 11.634 0 0 1-2.157-.899.687.687 0 0 0-.667 0c-.944.517-1.819.8-2.154.901A.703.703 0 0 0 5 9.66v2.566c0 .431.192.806.424 1.105.234.3.537.562.834.777a8.571 8.571 0 0 0 1.46.833l.01.003c.174.074.37.074.545 0l.009-.004c.222-.099.865-.4 1.46-.832.296-.215.6-.476.834-.777.232-.298.424-.674.424-1.105V9.657a.705.705 0 0 0-.505-.67l-.006-.002ZM10 9.88a12.832 12.832 0 0 1-2-.839c-.821.434-1.574.703-2 .84v2.344c0 .128.058.29.213.491.155.198.377.396.633.582.427.31.895.55 1.154.67a7.5 7.5 0 0 0 1.154-.67c.256-.186.478-.384.632-.582.156-.2.214-.363.214-.491V9.881Z" clip-rule="evenodd"/>
</svg>
