<svg xmlns="http://www.w3.org/2000/svg" width="16" height="16" fill="currentColor" viewBox="0 0 16 16">
  <path d="M7.973 7.002a.498.498 0 0 1 .154.035l.012.004 3.486 1.494.012.004a.496.496 0 0 1 .12.076c.012.01.024.018.035.029l.006.005c.01.01.017.02.025.03l.03.036.01.014.012.025a.495.495 0 0 1 .067.246v4a.49.49 0 0 1-.065.241c-.006.011-.012.023-.019.033l-.02.028a.498.498 0 0 1-.196.155l-.003.003-3.501 1.5c-.003.001-.006 0-.008.002l-.016.005a.507.507 0 0 1-.094.025l-.045.004-.033.003V15l-.005-.001-.013-.001c-.014 0-.027-.002-.041-.004-.012-.001-.024-.001-.036-.004l-.02-.005c-.014-.003-.027-.008-.04-.012l-.032-.01-.024-.01-.012-.006-3-1.5c-.01-.004-.018-.011-.027-.016l-.042-.027a.514.514 0 0 1-.156-.185.508.508 0 0 1-.05-.19L4.442 13V9l.001-.017a.497.497 0 0 1 .013-.098l.008-.028a.497.497 0 0 1 .025-.067l.006-.014.006-.01.018-.032a.497.497 0 0 1 .016-.024l.023-.03c.005-.007.013-.013.02-.02a.166.166 0 0 1 .026-.027l.018-.018.03-.022a.501.501 0 0 1 .025-.017l.032-.017c.003-.002.006-.005.01-.006l3-1.5.021-.01a.5.5 0 0 1 .041-.015l.051-.015c.015-.004.031-.005.047-.007S7.91 7 7.928 7h.045Zm.47 3.827v2.913l2.5-1.072V9.758l-2.5 1.071Zm-3 1.861 2 1v-2.88l-2-1v2.881ZM8 1a4.317 4.317 0 0 1 4.099 2.99c.768.047 1.473.445 1.987 1.001.548.595.914 1.409.914 2.279 0 1.242-.357 2.422-1.215 3.119a.501.501 0 0 1-.63-.777c.528-.429.845-1.251.845-2.342 0-.591-.252-1.169-.65-1.6-.4-.433-.912-.683-1.403-.683-.484 0-.817.143-1.064.324a.5.5 0 0 1-.591-.808c.223-.163.484-.3.788-.392A3.315 3.315 0 0 0 8 2C6.237 2 4.79 3.39 4.687 5.15l.014.003a.5.5 0 1 1-.182.984l-.36-.068a.517.517 0 0 1-.026-.006c-.391-.094-.653-.065-.89.03A1.987 1.987 0 0 0 2 7.917a2.08 2.08 0 0 0 1.205 1.901.5.5 0 0 1-.41.912A3.08 3.08 0 0 1 1 7.916c0-1.182.731-2.292 1.868-2.75l.173-.062c.21-.065.428-.098.656-.098C3.871 2.767 5.727 1 8 1ZM6.06 9l1.899.95L10.173 9l-2.215-.95L6.061 9Z"/>
</svg>
