<svg xmlns="http://www.w3.org/2000/svg" width="16" height="16" fill="currentColor" viewBox="0 0 16 16">
  <path fill-rule="evenodd" d="M10.292 4.516c.412-.301.951-.516 1.655-.516.827 0 1.591.411 2.138 1.004.55.595.915 1.409.915 2.279C15 9.293 13.709 11 11.674 11H4.002C2.312 11 1 9.592 1 7.93c0-1.183.73-2.293 1.868-2.75.455-.183.927-.211 1.486-.078l.347.064a.5.5 0 1 1-.183.983l-.36-.066a.501.501 0 0 1-.026-.006c-.391-.095-.652-.066-.89.03A1.986 1.986 0 0 0 2 7.929C2 9.074 2.897 10 4.002 10h7.672C13.017 10 14 8.89 14 7.283c0-.591-.252-1.17-.65-1.6-.4-.434-.911-.683-1.403-.683-.484 0-.817.142-1.064.323a.5.5 0 0 1-.59-.807Z" clip-rule="evenodd"/>
  <path fill-rule="evenodd" d="M8 2.013c-1.829 0-3.318 1.495-3.318 3.35v.15a.5.5 0 1 1-1 0v-.15c0-2.4 1.929-4.35 4.318-4.35a4.321 4.321 0 0 1 4.165 3.202.5.5 0 1 1-.965.26A3.321 3.321 0 0 0 8 2.013ZM8 10a.5.5 0 0 1 .5.5v1.703a.5.5 0 1 1-1 0V10.5A.5.5 0 0 1 8 10Zm-5 3.5a.5.5 0 0 1 .5-.5h3a.5.5 0 0 1 0 1h-3a.5.5 0 0 1-.5-.5Zm6 0a.5.5 0 0 1 .5-.5h3a.5.5 0 0 1 0 1h-3a.5.5 0 0 1-.5-.5Z" clip-rule="evenodd"/>
  <path fill-rule="evenodd" d="M8 13a.5.5 0 1 0 0 1 .5.5 0 0 0 0-1Zm1.5.5a1.5 1.5 0 1 1-3 0 1.5 1.5 0 0 1 3 0Z" clip-rule="evenodd"/>
</svg>
