<svg xmlns="http://www.w3.org/2000/svg" width="16" height="16" fill="currentColor" viewBox="0 0 16 16">
  <path fill-rule="evenodd" d="M4.688 5.65C4.79 3.89 6.237 2.5 8 2.5c1.398 0 2.596.873 3.083 2.109-.305.092-.567.23-.79.394a.5.5 0 1 0 .59.807c.247-.18.58-.323 1.064-.323.492 0 1.004.25 1.404.682.397.432.649 1.01.649 1.6 0 .84-.19 1.53-.523 1.997-.319.445-.792.72-1.477.72a.5.5 0 1 0 0 1c1.004 0 1.781-.428 2.29-1.138.494-.69.71-1.608.71-2.578 0-.87-.366-1.684-.915-2.279-.512-.555-1.215-.952-1.982-1A4.32 4.32 0 0 0 8 1.5c-2.274 0-4.13 1.767-4.304 4.006-.291 0-.563.054-.828.16A2.986 2.986 0 0 0 1 8.416c0 1.663 1.312 3.07 3.002 3.07a.5.5 0 0 0 0-1C2.898 10.487 2 9.562 2 8.417c0-.776.485-1.518 1.241-1.822l.47-.425-.47.425c.239-.096.5-.125.891-.03a.501.501 0 0 0 .027.005l.36.067a.5.5 0 1 0 .182-.983l-.013-.003ZM8.5 7.987a.5.5 0 1 0-1 0v4.806l-1.146-1.147a.5.5 0 0 0-.708.708l2 2a.5.5 0 0 0 .708 0l2-2a.5.5 0 0 0-.708-.708L8.5 12.793V7.987Z" clip-rule="evenodd"/>
</svg>
