<svg xmlns="http://www.w3.org/2000/svg" width="16" height="16" fill="currentColor" viewBox="0 0 16 16">
  <path fill-rule="evenodd" d="M4.507 5.63c.112-1.751 1.554-3.13 3.31-3.13 1.423 0 2.64.904 3.109 2.175a2.601 2.601 0 0 0-.634.341.5.5 0 1 0 .59.807c.248-.18.581-.323 1.065-.323.492 0 1.004.25 1.404.683.397.43.649 1.009.649 1.6 0 .839-.19 1.53-.523 1.996-.319.445-.792.721-1.477.721a.5.5 0 0 0 0 1c1.004 0 1.781-.429 2.29-1.14.494-.69.71-1.607.71-2.577 0-.87-.366-1.684-.915-2.279-.547-.593-1.31-1.004-2.138-1.004h-.024a4.32 4.32 0 0 0-4.105-3c-2.281 0-4.142 1.778-4.306 4.026a2.21 2.21 0 0 0-.644.153A2.986 2.986 0 0 0 1 8.43c0 1.662 1.312 3.07 3.002 3.07a.5.5 0 0 0 0-1C2.898 10.5 2 9.574 2 8.43c0-.777.485-1.519 1.241-1.823l.351-.317-.35.317c.238-.096.499-.125.89-.03a.501.501 0 0 0 .027.006l.36.066a.5.5 0 1 0 .182-.983l-.194-.036Zm1.847 3.724a.5.5 0 1 1-.708-.708l2-2a.5.5 0 0 1 .708 0l2 2a.5.5 0 0 1-.708.708L8.5 8.207V14a.5.5 0 0 1-1 0V8.207L6.354 9.354Z" clip-rule="evenodd"/>
</svg>
