<svg xmlns="http://www.w3.org/2000/svg" width="16" height="16" fill="currentColor" viewBox="0 0 16 16">
  <path fill-rule="evenodd" d="M4.507 7.13C4.619 5.379 6.061 4 7.817 4c1.423 0 2.64.904 3.109 2.175a2.601 2.601 0 0 0-.634.341.5.5 0 1 0 .59.807c.248-.18.581-.323 1.065-.323.492 0 1.004.25 1.404.683.397.43.649 1.009.649 1.6C14 10.891 13.017 12 11.674 12H4.002C2.898 12 2 11.074 2 9.93c0-.777.485-1.519 1.241-1.823.239-.096.5-.125.891-.03a.501.501 0 0 0 .027.006l.36.066a.5.5 0 1 0 .182-.983l-.194-.036Zm-.995-.104C3.676 4.778 5.537 3 7.818 3a4.32 4.32 0 0 1 4.105 3h.024c.827 0 1.591.411 2.138 1.004.55.595.915 1.409.915 2.279C15 11.293 13.709 13 11.674 13H4.002C2.312 13 1 11.592 1 9.93c0-1.183.73-2.293 1.868-2.75.209-.085.421-.136.644-.154Z" clip-rule="evenodd"/>
</svg>
