<svg xmlns="http://www.w3.org/2000/svg" width="16" height="16" fill="currentColor" viewBox="0 0 16 16">
  <path fill-rule="evenodd" d="M4.688 5.164C4.79 3.402 6.237 2.014 8 2.014c1.398 0 2.596.872 3.083 2.108-.305.092-.567.23-.79.394a.5.5 0 1 0 .59.807c.247-.18.58-.323 1.064-.323.492 0 1.004.25 1.404.683.397.431.649 1.009.649 1.6C14 8.891 13.017 10 11.674 10H4.002C2.898 10 2 9.074 2 7.93c0-.777.485-1.518 1.241-1.823.239-.096.5-.125.891-.03a.501.501 0 0 0 .027.006l.36.066a.5.5 0 0 0 .182-.983l-.013-.002ZM11.674 11H8.5v1.085c.428.152.768.492.917.922A.504.504 0 0 1 9.5 13h3a.5.5 0 1 1 0 1h-3a.504.504 0 0 1-.083-.007 1.5 1.5 0 0 1-2.834 0A.504.504 0 0 1 6.5 14h-3a.5.5 0 0 1 0-1h3c.028 0 .056.002.083.007.15-.43.489-.77.917-.922V11H4.002C2.312 11 1 9.592 1 7.93c0-1.183.73-2.293 1.868-2.75.265-.107.537-.161.828-.161C3.869 2.78 5.726 1.013 8 1.013a4.32 4.32 0 0 1 4.103 2.992c.767.048 1.47.444 1.982 1 .55.594.915 1.408.915 2.278C15 9.293 13.709 11 11.674 11ZM7.5 13.5a.5.5 0 1 1 1 0 .5.5 0 0 1-1 0Z" clip-rule="evenodd"/>
</svg>
