<svg xmlns="http://www.w3.org/2000/svg" width="16" height="16" fill="currentColor" viewBox="0 0 16 16">
  <path d="M9.647 8a.95.95 0 0 1 .828.495l1.397 2.51c.17.306.17.684 0 .99l-1.397 2.51a.95.95 0 0 1-.828.495H6.853a.95.95 0 0 1-.828-.495l-1.397-2.51a1.023 1.023 0 0 1 0-.99l1.397-2.51A.95.95 0 0 1 6.853 8h2.794Zm-4.19 3.5 1.396 2.509h2.794l1.397-2.509-1.397-2.509H6.853L5.456 11.5ZM7.816 1c1.95 0 3.65 1.167 4.162 2.831a.496.496 0 0 1 .019.17c.798.016 1.54.397 2.078.95.551.566.924 1.347.924 2.188 0 1.428-.529 2.784-1.806 3.322a.5.5 0 0 1-.388-.922C13.55 9.225 14 8.375 14 7.14c0-.545-.244-1.084-.64-1.49-.396-.41-.912-.65-1.413-.65-.49 0-.827.137-1.074.309a.5.5 0 0 1-.57-.823c.207-.144.447-.266.722-.352l-.002-.009C10.655 2.937 9.39 2 7.817 2 5.924 2 4.5 3.34 4.5 4.868V5c0 .023-.004.046-.007.068l.203.036a.5.5 0 0 1-.173.986l-.359-.064-.025-.005c-.347-.08-.595-.067-.814-.001l-.092.03C2.47 6.343 2 7.043 2 7.752c0 .779.482 1.47 1.196 1.774a.5.5 0 0 1-.391.92C1.742 9.993 1 8.952 1 7.751c0-1.147.748-2.204 1.877-2.635l.169-.056a2.23 2.23 0 0 1 .454-.084v-.108C3.5 2.674 5.493 1 7.817 1Z"/>
</svg>
