<svg xmlns="http://www.w3.org/2000/svg" width="17" height="16" fill="currentColor" viewBox="0 0 17 16">
  <path fill-rule="evenodd" d="M13.99 1a1.75 1.75 0 1 1-.662 3.37l-2.042 2.042c.288.46.455 1.005.455 1.588 0 .648-.207 1.247-.556 1.737l1.973 1.973a1.75 1.75 0 1 1-.707.707l-1.973-1.973A2.98 2.98 0 0 1 8.741 11a2.985 2.985 0 0 1-1.589-.455L5.11 12.587a1.75 1.75 0 1 1-.632-.782L6.403 9.88A2.987 2.987 0 0 1 5.741 8c0-.583.166-1.128.454-1.588L4.153 4.37a1.75 1.75 0 1 1 .782-.632L6.86 5.662A2.987 2.987 0 0 1 8.74 5a2.98 2.98 0 0 1 1.88.663l1.926-1.926A1.75 1.75 0 0 1 13.99 1ZM3.49 12.5a.75.75 0 1 0 0 1.5.75.75 0 0 0 0-1.5Zm10.5 0a.75.75 0 1 0 0 1.5.75.75 0 0 0 0-1.5ZM8.74 6a2 2 0 1 0 0 4 2 2 0 0 0 0-4ZM3.49 2a.75.75 0 1 0 0 1.5.75.75 0 0 0 0-1.5Zm10.5 0a.75.75 0 1 0 0 1.5.75.75 0 0 0 0-1.5Z" clip-rule="evenodd"/>
  <path fill-rule="evenodd" d="M8.884 11.5a1.75 1.75 0 1 1 0 3.5 1.75 1.75 0 0 1 0-3.5Zm0 1a.75.75 0 1 0 0 1.5.75.75 0 0 0 0-1.5ZM3.49 6.25a1.75 1.75 0 1 1 0 3.5 1.75 1.75 0 0 1 0-3.5Zm0 1a.75.75 0 1 0 0 1.5.75.75 0 0 0 0-1.5Zm10.5-1a1.75 1.75 0 1 1 0 3.5 1.75 1.75 0 0 1 0-3.5Zm0 1a.75.75 0 1 0 0 1.5.75.75 0 0 0 0-1.5ZM8.884 1a1.75 1.75 0 1 1 0 3.5 1.75 1.75 0 0 1 0-3.5Zm0 1a.75.75 0 1 0 0 1.5.75.75 0 0 0 0-1.5Z" clip-rule="evenodd"/>
</svg>
