<svg xmlns="http://www.w3.org/2000/svg" width="16" height="16" fill="currentColor" viewBox="0 0 16 16">
  <path fill-rule="evenodd" d="m10.833 1.376.02.02 1 1c.279.279.467.535.563.852.085.278.084.57.084.856V7.5a.5.5 0 0 1-1 0V4.145c0-.345-.004-.487-.04-.606-.03-.095-.092-.214-.314-.435l-1-1a2.343 2.343 0 0 0-.092-.09 1.134 1.134 0 0 0-.134-.01A13.264 13.264 0 0 0 9.5 2H4.536a.68.68 0 0 0-.318.163c-.106.1-.218.268-.218.587V9a.5.5 0 0 1-1 0V6h-.78c-.002 0-.035.003-.071.042-.04.042-.149.197-.149.64v6.626c0 .264.01.432.066.543.02.039.041.063.078.083a.661.661 0 0 0 .313.057h.915L4.84 8.809l.047-.19.064-.249c.034-.126.08-.274.155-.406a.868.868 0 0 1 .39-.367A1.18 1.18 0 0 1 6 7.5h1.14c.376 0 .674.08.926.218.24.13.412.303.535.426.332.321.693.356 1.15.356H14c.264 0 .505.089.687.269.172.169.25.379.287.556.07.345.009.716-.071.953l-.005.013-.005.012c-.245.612-.85 1.804-1.437 2.964l-.016.032c-.292.579-.534 1.007-.81 1.28a1.36 1.36 0 0 1-.512.327 1.662 1.662 0 0 1-.56.085h-9.1c-.3 0-.567-.056-.794-.18a1.176 1.176 0 0 1-.49-.508C1 13.957 1 13.557 1 13.338V6.682c0-.598.149-1.034.418-1.323.27-.289.595-.359.802-.359H3V2.75c0-.596.227-1.033.54-1.321.297-.274.65-.396.902-.426L4.472 1h5.037c.18 0 .328 0 .446.004.119.004.24.014.354.042.262.066.414.219.524.33ZM4.411 13.99h7.149a.688.688 0 0 0 .227-.028.367.367 0 0 0 .14-.095c.143-.14.32-.42.622-1.02.6-1.186 1.18-2.332 1.411-2.902a1.04 1.04 0 0 0 .04-.204.761.761 0 0 0-.01-.242H9.75c-.5 0-1.216-.027-1.848-.641l-.003-.003-.002-.002a1.403 1.403 0 0 0-.31-.26.886.886 0 0 0-.446-.094H6l-.045.001c-.01.028-.023.07-.04.132a8.41 8.41 0 0 0-.053.205l-.056.226-.002.006-1.394 4.92ZM6.001 3a.5.5 0 0 0 0 1h3.5a.5.5 0 1 0 0-1H6Zm0 2a.5.5 0 0 0 0 1h3.5a.5.5 0 1 0 0-1H6Z" clip-rule="evenodd"/>
</svg>
