<svg xmlns="http://www.w3.org/2000/svg" width="16" height="16" fill="currentColor" viewBox="0 0 16 16">
  <path fill-rule="evenodd" d="m10.833 1.376.02.02 1 1c.279.279.467.535.563.852.084.278.084.57.084.856V7.5a.5.5 0 0 1-1 0V4.145c0-.345-.005-.487-.04-.606-.03-.095-.092-.214-.314-.435l-1-1a2.268 2.268 0 0 0-.092-.09 1.131 1.131 0 0 0-.134-.01A13.263 13.263 0 0 0 9.5 2H4.536a.68.68 0 0 0-.318.163c-.106.1-.218.268-.218.587V9a.5.5 0 0 1-1 0V2.75c0-.596.227-1.033.54-1.321.297-.274.65-.396.902-.426L4.472 1h5.037c.18 0 .328 0 .446.004s.239.014.354.042c.262.066.414.219.524.33Z" clip-rule="evenodd"/>
  <path fill-rule="evenodd" d="M1.418 5.36c.27-.29.595-.36.802-.36h1.03a.5.5 0 0 1 0 1H2.22c-.002 0-.035.003-.071.042-.04.042-.149.197-.149.64v6.626c0 .264.01.432.066.543a.17.17 0 0 0 .078.083c.042.023.134.057.313.057h.915L4.84 8.809l.047-.19c.023-.09.044-.179.063-.249a1.75 1.75 0 0 1 .156-.406.868.868 0 0 1 .39-.367A1.18 1.18 0 0 1 6 7.5h1.14c.376 0 .674.08.926.218.24.13.412.303.535.426.332.321.693.356 1.149.356H14c.265 0 .506.089.688.269.171.169.25.379.287.556.07.345.009.716-.072.953l-.004.013-.005.012c-.245.612-.85 1.805-1.437 2.964l-.016.032c-.292.579-.534 1.007-.81 1.28-.15.149-.318.26-.512.327a1.662 1.662 0 0 1-.56.085H2.458c-.3 0-.567-.056-.794-.18a1.176 1.176 0 0 1-.49-.508C1 13.957 1 13.557 1 13.338V6.682c0-.598.148-1.034.418-1.323Zm2.993 8.63h7.149a.688.688 0 0 0 .227-.027.368.368 0 0 0 .14-.095c.143-.14.32-.42.622-1.02.6-1.186 1.18-2.332 1.411-2.902.016-.051.032-.124.04-.204a.761.761 0 0 0-.011-.242H9.75c-.5 0-1.216-.027-1.848-.641l-.003-.003-.003-.002a1.403 1.403 0 0 0-.31-.26.886.886 0 0 0-.445-.094H6l-.044.001c-.01.028-.024.07-.04.132-.019.066-.034.13-.053.205a19.76 19.76 0 0 1-.057.226l-.001.006-1.394 4.92Z" clip-rule="evenodd"/>
  <path fill-rule="evenodd" d="M5.5 3.5A.5.5 0 0 1 6 3h3.5a.5.5 0 0 1 0 1H6a.5.5 0 0 1-.5-.5Zm0 2A.5.5 0 0 1 6 5h3.5a.5.5 0 0 1 0 1H6a.5.5 0 0 1-.5-.5Z" clip-rule="evenodd"/>
</svg>
