<svg xmlns="http://www.w3.org/2000/svg" width="16" height="16" fill="none" viewBox="0 0 16 16">
  <path fill="#3D3C3C" fill-rule="evenodd" d="M2.944 5.458c.594-.594 1.565-.62 2.167-.019l1.45 1.45c.602.602.575 1.573-.019 2.167l-1.486 1.486c-.594.594-1.565.62-2.167.019L1.44 9.11c-.602-.602-.575-1.573.019-2.167l1.486-1.486Zm1.46.688a.533.533 0 0 0-.753.019L2.165 7.65a.533.533 0 0 0-.019.753l1.45 1.45a.533.533 0 0 0 .753-.019L5.835 8.35a.533.533 0 0 0 .019-.752l-1.45-1.45Zm2.538-4.689c.594-.593 1.565-.62 2.167-.018l1.451 1.45c.603.602.576 1.573-.018 2.167L9.054 6.543c-.594.593-1.565.62-2.167.018L5.44 5.115c-.585-.584-.577-1.52-.033-2.118a.5.5 0 0 1 .046-.053l1.489-1.487Zm-.74 2.152a.501.501 0 0 1-.037.043.538.538 0 0 0-.018.756l1.446 1.445a.535.535 0 0 0 .754-.018l1.488-1.487a.532.532 0 0 0 .019-.751l-1.452-1.45a.535.535 0 0 0-.754.018L6.203 3.609Zm.742 5.849c.594-.594 1.565-.62 2.167-.019l1.45 1.45c.602.602.575 1.573-.019 2.167l-1.486 1.486c-.594.594-1.565.62-2.167.019l-1.45-1.45c-.602-.602-.575-1.573.019-2.167l1.486-1.486Zm1.46.688a.533.533 0 0 0-.753.019L6.165 11.65a.533.533 0 0 0-.019.752l1.45 1.45a.533.533 0 0 0 .753-.018l1.486-1.486a.533.533 0 0 0 .019-.752l-1.45-1.45Zm2.54-4.688c.594-.594 1.565-.62 2.167-.019l1.45 1.45c.602.602.575 1.573-.019 2.167l-1.486 1.486c-.594.594-1.565.62-2.167.019L9.44 9.11c-.602-.602-.575-1.573.019-2.167l1.486-1.486Zm1.46.688a.533.533 0 0 0-.753.019L10.165 7.65a.533.533 0 0 0-.019.753l1.45 1.45a.533.533 0 0 0 .753-.019l1.486-1.486a.533.533 0 0 0 .019-.752l-1.45-1.45Z" clip-rule="evenodd"/>
</svg>
