<svg xmlns="http://www.w3.org/2000/svg" width="16" height="16" fill="none" viewBox="0 0 16 16">
  <path fill="#3D3C3C" fill-rule="evenodd" d="M1 2a1 1 0 0 1 1-1h2a1 1 0 0 1 1 1v2c0 .09-.012.176-.034.259l1.296 1.296A2.98 2.98 0 0 1 8 5a2.98 2.98 0 0 1 1.738.555l1.408-1.409a.5.5 0 0 1 .148-.102 2 2 0 1 1 .662.662.498.498 0 0 1-.102.148l-1.409 1.408c.35.49.555 1.09.555 1.738a2.98 2.98 0 0 1-.555 1.738l1.296 1.296A1 1 0 0 1 12 11h2a1 1 0 0 1 1 1v2a1 1 0 0 1-1 1h-2a1 1 0 0 1-1-1v-2a1 1 0 0 1 .034-.259l-1.296-1.296A2.98 2.98 0 0 1 8 11a2.988 2.988 0 0 1-1.97-.737L4.876 11.42a.5.5 0 0 1-.134.096 2 2 0 1 1-.655-.695.5.5 0 0 1 .082-.109l1.225-1.225A2.986 2.986 0 0 1 5 8c0-.648.205-1.248.555-1.738L4.259 4.966A1.01 1.01 0 0 1 4 5H2a1 1 0 0 1-1-1V2Zm3 0H2v2h2V2Zm4 4a2 2 0 1 0 0 4 2 2 0 0 0 0-4Zm-5 5.5a1 1 0 1 0 0 2 1 1 0 0 0 0-2Zm9 2.5v-2h2v2h-2Zm0-11a1 1 0 1 1 2 0 1 1 0 0 1-2 0Z" clip-rule="evenodd"/>
</svg>
