<svg xmlns="http://www.w3.org/2000/svg" width="16" height="16" fill="currentColor" viewBox="0 0 16 16">
  <path fill-rule="evenodd" d="M11.25 2a2.75 2.75 0 1 0 0 5.5 2.75 2.75 0 0 0 0-5.5ZM7.5 4.75a3.75 3.75 0 1 1 7.5 0 3.75 3.75 0 0 1-7.5 0Zm-.527-.413a.5.5 0 0 1-.31.636C5.567 5.352 4.75 6.333 4.75 7.5c0 .658.464 1.375.999 1.94.566.596.72 1.363.746 2.06h2.021c.05-.395.211-.76.4-1.073A6.07 6.07 0 0 1 9.7 9.425c.14-.15.262-.315.365-.497a.5.5 0 1 1 .87.491 3.643 3.643 0 0 1-.502.687l-.003.003c-.241.256-.48.54-.657.834-.18.297-.273.568-.273.807v2.016C9.5 14.56 8.727 15 8.053 15H6.947c-.674 0-1.447-.441-1.447-1.234V11.75c0-.69-.115-1.24-.476-1.621C4.454 9.527 3.75 8.564 3.75 7.5c0-1.664 1.157-2.978 2.587-3.473a.5.5 0 0 1 .636.31Zm-.473 9.43V12.5h2v1.266c0 .018-.008.065-.083.124a.6.6 0 0 1-.364.11H6.947a.6.6 0 0 1-.364-.11c-.075-.059-.083-.107-.083-.124ZM3.354 2.646a.5.5 0 1 0-.708.707l1 1a.5.5 0 1 0 .708-.708l-1-1ZM1.01 6.151a.5.5 0 0 1 .588-.392l1.25.25a.5.5 0 0 1-.196.98l-1.25-.25a.5.5 0 0 1-.392-.588ZM7 1.5a.5.5 0 0 0-1 0V3a.5.5 0 0 0 1 0V1.5Zm5.91 2.287a.5.5 0 1 0-.82-.574l-1.34 1.914-.339-.486a.5.5 0 0 0-.82.572l.748 1.073a.5.5 0 0 0 .82.001l1.751-2.5Z" clip-rule="evenodd"/>
</svg>
