<svg xmlns="http://www.w3.org/2000/svg" width="16" height="16" fill="currentColor" viewBox="0 0 16 16">
  <path d="M10.514 8.001a.5.5 0 0 1 .084.008c.012.002.023.007.035.01.02.006.039.01.057.018a.499.499 0 0 1 .12.073.497.497 0 0 1 .19.39v1.793l.5.5.5-.5V8.5a.501.501 0 0 1 .688-.463c1.102.448 1.812 1.444 1.812 2.713 0 1.008-.465 1.957-1.25 2.52l.003 1.229a.5.5 0 0 1-1 .002l-.003-1.5c0-.181.097-.349.255-.438.595-.334.995-1.026.995-1.813 0-.539-.182-.99-.5-1.325V10.5a.5.5 0 0 1-.146.354l-1 1a.502.502 0 0 1-.629.064l-.079-.064-1-1A.5.5 0 0 1 10 10.5V9.441c-.313.336-.5.784-.5 1.309 0 .777.424 1.479 1.003 1.818a.5.5 0 0 1 .247.432v1.5a.5.5 0 0 1-1 0v-1.234A3.155 3.155 0 0 1 8.5 10.75c0-1.278.757-2.266 1.805-2.71A.499.499 0 0 1 10.5 8l.014.001ZM6 8.5A1.5 1.5 0 0 1 7.5 10v3A1.5 1.5 0 0 1 6 14.5H3A1.5 1.5 0 0 1 1.5 13v-3A1.5 1.5 0 0 1 3 8.5h3Zm-3 1a.5.5 0 0 0-.5.5v3a.5.5 0 0 0 .5.5h3a.5.5 0 0 0 .5-.5v-3a.5.5 0 0 0-.5-.5H3ZM6 1a1.5 1.5 0 0 1 1.5 1.5v3A1.5 1.5 0 0 1 6 7H3a1.5 1.5 0 0 1-1.5-1.5v-3A1.5 1.5 0 0 1 3 1h3Zm7 0a1.5 1.5 0 0 1 1.5 1.5v3A1.5 1.5 0 0 1 13 7h-3a1.5 1.5 0 0 1-1.5-1.5v-3A1.5 1.5 0 0 1 10 1h3ZM3 2a.5.5 0 0 0-.5.5v3A.5.5 0 0 0 3 6h3a.5.5 0 0 0 .5-.5v-3A.5.5 0 0 0 6 2H3Zm7 0a.5.5 0 0 0-.5.5v3a.5.5 0 0 0 .5.5h3a.5.5 0 0 0 .5-.5v-3A.5.5 0 0 0 13 2h-3Z"/>
</svg>
