<svg xmlns="http://www.w3.org/2000/svg" width="16" height="16" fill="currentColor" viewBox="0 0 16 16">
  <path fill-rule="evenodd" d="M2.512.967A1.55 1.55 0 0 0 .967 2.512v4.181a1.55 1.55 0 0 0 1.045 1.462V9.83a.5.5 0 0 0 .777.416l.791-.527v1.68c0 .854.69 1.545 1.545 1.545h4.553l3.01 2.006a.5.5 0 0 0 .777-.416V12.86a1.544 1.544 0 0 0 1.046-1.463V7.216c0-.855-.69-1.545-1.546-1.545h-1.068V2.512A1.55 1.55 0 0 0 10.352.967h-7.84Zm8.88 5.704a.364.364 0 0 0 .01 0h1.563c.303 0 .546.242.546.545v4.181a.544.544 0 0 1-.546.546.5.5 0 0 0-.5.5v1.156l-2.358-1.572a.5.5 0 0 0-.278-.084H5.125a.544.544 0 0 1-.545-.546V7.216c0-.303.243-.545.545-.545h6.268Zm-.495-1V2.512a.55.55 0 0 0-.545-.545h-7.84a.55.55 0 0 0-.545.545v4.181a.55.55 0 0 0 .545.546.5.5 0 0 1 .5.5v1.156l.568-.379v-1.3c0-.855.69-1.545 1.545-1.545h5.772Z" clip-rule="evenodd"/>
</svg>
