<svg xmlns="http://www.w3.org/2000/svg" width="16" height="16" fill="currentColor" viewBox="0 0 16 16">
  <path fill-rule="evenodd" d="M.967 2.512c0-.85.695-1.545 1.545-1.545h7.84c.85 0 1.545.695 1.545 1.545v3.659a.5.5 0 1 1-1 0V2.512a.55.55 0 0 0-.545-.545h-7.84a.55.55 0 0 0-.545.545v4.181a.55.55 0 0 0 .545.546.5.5 0 0 1 .5.5v1.156l.79-.527a.5.5 0 0 1 .555.832L2.79 10.245a.5.5 0 0 1-.777-.416V8.155A1.551 1.551 0 0 1 .967 6.693V2.512Z" clip-rule="evenodd"/>
  <path fill-rule="evenodd" d="M5.125 6.67a.544.544 0 0 0-.545.546v4.181c0 .303.243.546.545.546H9.83a.5.5 0 0 1 .278.084l2.358 1.572v-1.156a.5.5 0 0 1 .5-.5.544.544 0 0 0 .546-.546V7.216a.544.544 0 0 0-.546-.545h-7.84Zm-1.545.546c0-.855.69-1.545 1.545-1.545h7.84c.855 0 1.546.69 1.546 1.545v4.181c0 .68-.437 1.256-1.046 1.463v1.673a.5.5 0 0 1-.777.416l-3.01-2.006H5.125c-.854 0-1.545-.69-1.545-1.546V7.216Z" clip-rule="evenodd"/>
</svg>
