<svg xmlns="http://www.w3.org/2000/svg" width="16" height="16" fill="currentColor" viewBox="0 0 16 16">
  <g clip-path="url(#a)">
    <path fill-rule="evenodd" d="M2.825.967C1.757.967.967 1.895.967 2.946v10.108c0 1.051.79 1.98 1.858 1.98h10.35c1.068 0 1.858-.929 1.858-1.98V2.946c0-1.051-.79-1.98-1.858-1.98H2.825Zm11.208 2.968v-.989c0-.582-.422-.98-.858-.98H2.825c-.436 0-.858.398-.858.98v.989h12.066Zm-12.066 1h12.066v8.119c0 .582-.422.98-.858.98H2.825c-.436 0-.858-.398-.858-.98v-8.12ZM3.623 2.5h-.246c-.208 0-.377.155-.377.346v.308c0 .191.169.346.377.346h.246c.208 0 .377-.155.377-.346v-.308c0-.191-.169-.346-.377-.346Zm1.5 0h-.246c-.208 0-.377.155-.377.346v.308c0 .191.169.346.377.346h.246c.208 0 .377-.155.377-.346v-.308c0-.191-.169-.346-.377-.346Zm1.254 0h.246c.208 0 .377.155.377.346v.308c0 .191-.169.346-.377.346h-.246C6.169 3.5 6 3.345 6 3.154v-.308c0-.191.169-.346.377-.346Zm1.56 7A2 2 0 1 1 5.5 7.063V8.5a1 1 0 0 0 1 1h1.437ZM6.5 7.063c.703.18 1.256.734 1.437 1.437H6.5V7.063ZM6 12a3 3 0 1 0 0-6 3 3 0 0 0 0 6Zm4-2a.5.5 0 0 1 .5-.5h2a.5.5 0 0 1 0 1h-2a.5.5 0 0 1-.5-.5Zm.5-2.5a.5.5 0 0 0 0 1h2a.5.5 0 0 0 0-1h-2Z" clip-rule="evenodd"/>
  </g>
  <defs>
    <clipPath id="a">
      <path d="M0 0h16v16H0z"/>
    </clipPath>
  </defs>
</svg>
