<svg xmlns="http://www.w3.org/2000/svg" width="16" height="16" fill="currentColor" viewBox="0 0 16 16">
  <path d="M14.13 7.006c.666.053 1.375.504 1.37 1.327v1.917c0 .28-.082.682-.29 1.031a1.457 1.457 0 0 1-.71.627V15a1 1 0 0 1-1 1h-2a1 1 0 0 1-1-1v-3.086a1.406 1.406 0 0 1-.705-.586A2.091 2.091 0 0 1 9.5 10.25V8.378c0-.486.226-.857.563-1.087C10.377 7.076 10.76 7 11.1 7h2.896l.133.006ZM11.1 8a.881.881 0 0 0-.473.116c-.076.052-.127.12-.127.262v1.872c0 .181.048.396.143.548.08.13.183.202.357.202a.5.5 0 0 1 .5.5V15h2v-3.5a.5.5 0 0 1 .5-.5c.148 0 .256-.07.352-.23.104-.177.148-.4.148-.52V8.328a.253.253 0 0 0-.107-.207.616.616 0 0 0-.333-.118L13.997 8h-2.896ZM6.63 6.006c.666.053 1.375.504 1.37 1.327V9h.5l.052.002a.5.5 0 0 1 0 .995L8.5 10h-7a.5.5 0 0 1 0-1H2V7.378c-.003-.45.246-.803.541-1.026A1.78 1.78 0 0 1 3.6 6h2.897l.133.006ZM3.6 7a.781.781 0 0 0-.455.15c-.119.089-.145.172-.145.223V9h4V7.328a.253.253 0 0 0-.107-.207.618.618 0 0 0-.333-.118L6.497 7H3.6Zm8.9-4a1.75 1.75 0 1 1 0 3.5 1.75 1.75 0 0 1 0-3.5ZM5 2a1.75 1.75 0 1 1 0 3.5A1.75 1.75 0 0 1 5 2Zm7.5 2a.75.75 0 1 0 0 1.5.75.75 0 0 0 0-1.5ZM5 3a.75.75 0 1 0 0 1.5A.75.75 0 0 0 5 3Z"/>
</svg>
