<svg xmlns="http://www.w3.org/2000/svg" width="16" height="16" fill="currentColor" viewBox="0 0 16 16">
  <g clip-path="url(#a)">
    <path d="M3.623 2.5h-.246c-.208 0-.377.155-.377.346v.308c0 .191.169.346.377.346h.246c.208 0 .377-.155.377-.346v-.308c0-.191-.169-.346-.377-.346Zm1.5 0h-.246c-.208 0-.377.155-.377.346v.308c0 .191.169.346.377.346h.246c.208 0 .377-.155.377-.346v-.308c0-.191-.169-.346-.377-.346Zm1.5 0h-.246c-.208 0-.377.155-.377.346v.308c0 .191.169.346.377.346h.246c.208 0 .377-.155.377-.346v-.308c0-.191-.169-.346-.377-.346Z"/>
    <path fill-rule="evenodd" d="M.967 3.935h14.066v9.119c0 1.051-.79 1.98-1.858 1.98H2.825c-1.068 0-1.858-.929-1.858-1.98v-9.12Zm1 1v8.119c0 .582.422.98.858.98h10.35c.436 0 .858-.398.858-.98v-8.12H1.967Z" clip-rule="evenodd"/>
    <path fill-rule="evenodd" d="M.967 2.946c0-1.051.79-1.98 1.858-1.98h10.35c1.068 0 1.858.929 1.858 1.98v1.989H.967V2.946Zm1.858-.98c-.436 0-.858.398-.858.98v.989h12.066v-.989c0-.582-.422-.98-.858-.98H2.825ZM6 11a2 2 0 1 0 0-4 2 2 0 0 0 0 4Zm0 1a3 3 0 1 0 0-6 3 3 0 0 0 0 6Z" clip-rule="evenodd"/>
    <path fill-rule="evenodd" d="M6 6.5a.5.5 0 0 1 .5.5v1.5H8a.5.5 0 0 1 0 1H6.5a1 1 0 0 1-1-1V7a.5.5 0 0 1 .5-.5Zm4 3.5a.5.5 0 0 1 .5-.5h2a.5.5 0 0 1 0 1h-2a.5.5 0 0 1-.5-.5Zm0-2a.5.5 0 0 1 .5-.5h2a.5.5 0 0 1 0 1h-2A.5.5 0 0 1 10 8Z" clip-rule="evenodd"/>
  </g>
  <defs>
    <clipPath id="a">
      <path d="M0 0h16v16H0z"/>
    </clipPath>
  </defs>
</svg>
