<svg xmlns="http://www.w3.org/2000/svg" width="16" height="16" fill="currentColor" viewBox="0 0 16 16">
  <path d="M13.426 9.5c.645 0 1.074.567 1.074 1.144v2.713c0 .577-.43 1.143-1.074 1.143h-2.852c-.645 0-1.074-.566-1.074-1.143v-2.713c0-.577.43-1.144 1.074-1.144h2.852Zm-2.005-8c1.2 0 2.079 1.071 2.079 2.27V8a.5.5 0 0 1-1 0V3.77c0-.756-.535-1.27-1.08-1.27H3.58c-.545 0-1.08.514-1.08 1.27v7.461c0 .756.535 1.269 1.08 1.269H8a.5.5 0 0 1 0 1H3.58c-1.2 0-2.08-1.07-2.08-2.269V3.77c0-1.199.88-2.27 2.08-2.27h7.84Zm-.88 9.021a.185.185 0 0 0-.041.123v2.713c0 .057.02.099.041.122.02.021.032.021.033.021h2.852c.001 0 .014 0 .033-.021a.183.183 0 0 0 .041-.122v-2.713c0-.057-.02-.1-.041-.123-.02-.021-.032-.021-.033-.021h-2.852c-.001 0-.014 0-.033.021ZM9.282 4.5c.725 0 1.218.64 1.218 1.305v2.258a.5.5 0 0 1-1 0V5.804c0-.223-.15-.305-.218-.305H5.718c-.069 0-.218.082-.218.305v3.391c0 .223.15.304.218.304H8a.5.5 0 0 1 0 1H5.718c-.724 0-1.218-.639-1.218-1.304v-3.39c0-.666.493-1.305 1.218-1.305h3.564Z"/>
</svg>
