<svg xmlns="http://www.w3.org/2000/svg" width="17" height="16" fill="currentColor" viewBox="0 0 17 16">
  <g clip-path="url(#a)">
    <path d="M9.142 1c3.85 0 6.97 3.134 6.97 7s-3.12 7-6.97 7c-3.848 0-6.968-3.134-6.968-7s3.12-7 6.968-7Zm0 1C5.843 2 3.17 4.686 3.17 8s2.674 6 5.973 6c3.3 0 5.974-2.686 5.974-6s-2.675-6-5.974-6ZM6.653 5a.5.5 0 0 1 .498.5v5a.499.499 0 1 1-.995 0v-5c0-.276.222-.5.497-.5Zm1.253.063a.496.496 0 0 1 .505.013l3.982 2.5a.5.5 0 0 1 0 .848l-3.982 2.5a.496.496 0 0 1-.762-.424v-5l.004-.067a.502.502 0 0 1 .253-.37Zm.738 4.535L11.19 8 8.644 6.402v3.196Z"/>
  </g>
  <defs>
    <clipPath id="a">
      <path d="M.963 0h16v16h-16z"/>
    </clipPath>
  </defs>
</svg>
