<svg xmlns="http://www.w3.org/2000/svg" width="16" height="16" fill="currentColor" viewBox="0 0 16 16">
  <path fill-rule="evenodd" d="M8 5a1 1 0 1 0 0 2 1 1 0 0 0 0-2ZM6 6a2 2 0 1 1 4 0 2 2 0 0 1-4 0ZM3.236 1.1a.5.5 0 0 1 .102.7A6.809 6.809 0 0 0 2 5.877c0 1.545.505 2.963 1.338 4.079a.5.5 0 1 1-.801.598A7.808 7.808 0 0 1 1 5.878c0-1.765.577-3.392 1.537-4.677a.5.5 0 0 1 .7-.102Zm9.461.002a.5.5 0 0 1 .7.095A7.906 7.906 0 0 1 15 6a7.906 7.906 0 0 1-1.602 4.803.5.5 0 0 1-.796-.606A6.907 6.907 0 0 0 14 6c0-1.59-.523-3.049-1.398-4.197a.5.5 0 0 1 .095-.7ZM5.105 2.68a.5.5 0 0 1 .12.697A4.035 4.035 0 0 0 4.5 5.712c0 .885.272 1.694.725 2.335a.5.5 0 0 1-.817.577A5.035 5.035 0 0 1 3.5 5.712c0-1.091.335-2.101.908-2.912a.5.5 0 0 1 .697-.12Zm5.606 0a.5.5 0 0 1 .697.12c.574.81.909 1.82.909 2.912a5.035 5.035 0 0 1-.909 2.912.5.5 0 0 1-.816-.577c.453-.641.725-1.45.725-2.335s-.272-1.694-.725-2.335a.5.5 0 0 1 .12-.697Z" clip-rule="evenodd"/>
  <path fill-rule="evenodd" d="M8.25 7.567a.5.5 0 0 1 .183.683l-3.75 6.5a.5.5 0 0 1-.866-.5l3.75-6.5a.5.5 0 0 1 .683-.183Z" clip-rule="evenodd"/>
  <path fill-rule="evenodd" d="M7.75 7.567a.5.5 0 0 1 .683.183l3.75 6.5a.5.5 0 0 1-.866.5l-3.75-6.5a.5.5 0 0 1 .183-.683Z" clip-rule="evenodd"/>
  <path fill-rule="evenodd" d="M5 12.5c0-.276.175-.5.391-.5h5.218c.216 0 .391.224.391.5s-.175.5-.391.5H5.39c-.215 0-.39-.224-.39-.5Z" clip-rule="evenodd"/>
</svg>
