<svg xmlns="http://www.w3.org/2000/svg" width="16" height="16" fill="currentColor" viewBox="0 0 16 16">
  <path fill-rule="evenodd" d="M3.338 1.8a.5.5 0 1 0-.801-.599A7.808 7.808 0 0 0 1 5.878c0 1.765.577 3.391 1.537 4.677a.5.5 0 1 0 .801-.598A6.809 6.809 0 0 1 2 5.877c0-1.544.505-2.962 1.338-4.078ZM7 6a1 1 0 1 1 2 0 1 1 0 0 1-2 0Zm1-2a2 2 0 0 0-.535 3.928L3.817 14.25a.5.5 0 1 0 .866.5L5.693 13h4.614l1.01 1.75a.5.5 0 0 0 .866-.5L8.535 7.928A2 2 0 0 0 8 4Zm1.73 8L8 9l-1.73 3h3.46Zm2.967-10.898a.5.5 0 0 1 .7.095A7.907 7.907 0 0 1 15 6a7.907 7.907 0 0 1-1.602 4.803.5.5 0 0 1-.796-.606A6.907 6.907 0 0 0 14 6c0-1.59-.523-3.049-1.398-4.197a.5.5 0 0 1 .095-.7ZM5.225 3.377a.5.5 0 0 0-.817-.577A5.035 5.035 0 0 0 3.5 5.712c0 1.091.335 2.101.908 2.912a.5.5 0 1 0 .817-.577A4.035 4.035 0 0 1 4.5 5.712c0-.885.272-1.694.725-2.335Zm5.486-.697a.5.5 0 0 1 .697.12c.574.81.909 1.82.909 2.912a5.035 5.035 0 0 1-.909 2.912.5.5 0 1 1-.816-.577c.453-.641.725-1.45.725-2.335s-.272-1.694-.725-2.335a.5.5 0 0 1 .12-.697Z" clip-rule="evenodd"/>
</svg>
