<svg xmlns="http://www.w3.org/2000/svg" width="16" height="16" fill="currentColor" viewBox="0 0 16 16">
  <path d="M3.623 2.5c.208 0 .377.155.377.346v.308c0 .191-.169.346-.377.346h-.246C3.169 3.5 3 3.345 3 3.154v-.308c0-.191.169-.346.377-.346h.246Zm1.5 0c.208 0 .377.155.377.346v.308c0 .191-.169.346-.377.346h-.246c-.208 0-.377-.155-.377-.346v-.308c0-.191.169-.346.377-.346h.246Zm1.5 0c.208 0 .377.155.377.346v.308c0 .191-.169.346-.377.346h-.246C6.169 3.5 6 3.345 6 3.154v-.308c0-.191.169-.346.377-.346h.246Z"/>
  <path fill-rule="evenodd" d="M1 2.995C1 1.943 1.782 1 2.852 1h10.296C14.218 1 15 1.943 15 2.995V8a.5.5 0 0 1-1 0V5H2v8.034c0 .572.418.966.852.966H7.5a.5.5 0 0 1 0 1H2.852C1.79 15 1 14.08 1 13.034V2.995Zm13 0V4H2V2.995C2 2.397 2.427 2 2.852 2h10.296c.425 0 .852.397.852.995Z" clip-rule="evenodd"/>
  <path d="M10.75 13a.5.5 0 0 0-1 0v.25H9.5a.5.5 0 0 0 0 1h.25v.25a.5.5 0 0 0 1 0v-.25H11a.5.5 0 0 0 0-1h-.25V13Zm1.75-3a.5.5 0 0 0 1 0v-.5a.5.5 0 0 0-1 0v.5Zm1 1a.5.5 0 0 1 .5-.5h.5a.5.5 0 0 1 0 1H14a.5.5 0 0 1-.5-.5Zm-2-.5a.5.5 0 0 0 0 1h.5a.5.5 0 0 0 0-1h-.5ZM13 13a.5.5 0 0 1-.5-.5V12a.5.5 0 0 1 1 0v.5a.5.5 0 0 1-.5.5Z"/>
  <path fill-rule="evenodd" d="M7.465 11.773a.5.5 0 0 0 .828-.001c.605-.898 1.04-1.31 1.998-1.994a.5.5 0 0 0-.01-.82c-.993-.674-1.4-1.097-1.985-1.983a.5.5 0 0 0-.842.012c-.305.492-.559.826-.846 1.112-.288.286-.626.538-1.118.85a.5.5 0 0 0-.013.836c.964.654 1.373 1.081 1.988 1.988Zm.424-3.64a6.27 6.27 0 0 0 1.262 1.246 6.85 6.85 0 0 0-1.271 1.257 6.431 6.431 0 0 0-1.25-1.253c.252-.184.474-.37.682-.576.207-.205.393-.425.576-.675Z" clip-rule="evenodd"/>
</svg>
