<svg xmlns="http://www.w3.org/2000/svg" width="16" height="16" fill="currentColor" viewBox="0 0 16 16">
  <path fill-rule="evenodd" d="M8 2a.5.5 0 1 0 0 1 .5.5 0 0 0 0-1Zm-1.5.5a1.5 1.5 0 1 1 2 1.415V5.55c.317.064.612.189.873.36l1.255-1.304a1.5 1.5 0 1 1 .687.728l-1.233 1.282c.176.264.303.563.368.884h1.635a1.5 1.5 0 1 1 0 1H10.45c-.065.32-.19.616-.364.879l1.267 1.267a1.5 1.5 0 1 1-.707.707L9.38 10.086c-.263.174-.56.3-.879.364v1.635a1.5 1.5 0 1 1-1 0V10.45a2.486 2.486 0 0 1-.879-.364L5.357 11.35a1.5 1.5 0 1 1-.714-.7l1.271-1.271c-.174-.263-.3-.56-.364-.879H3.915a1.5 1.5 0 1 1 0-1H5.55c.065-.32.19-.618.365-.88L4.66 5.347a1.5 1.5 0 1 1 .7-.714l1.263 1.28A2.5 2.5 0 0 1 7.5 5.55V3.915a1.5 1.5 0 0 1-1-1.415ZM8 13a.5.5 0 1 0 0 1 .5.5 0 0 0 0-1ZM2 8a.5.5 0 1 1 1 0 .5.5 0 0 1-1 0Zm11.5-.5a.5.5 0 1 0 0 1 .5.5 0 0 0 0-1ZM3.5 4a.5.5 0 1 1 1 0 .5.5 0 0 1-1 0Zm8.5-.5a.5.5 0 0 0-.406.791.483.483 0 0 1 .076.085A.498.498 0 0 0 12.5 4a.5.5 0 0 0-.5-.5Zm-8.49 8.505a.5.5 0 1 1 1 .01.5.5 0 0 1-1-.01ZM12 11.5a.5.5 0 1 0 0 1 .5.5 0 0 0 0-1ZM6.5 8a1.5 1.5 0 1 1 3 0 1.5 1.5 0 0 1-3 0Z" clip-rule="evenodd"/>
</svg>
