<svg xmlns="http://www.w3.org/2000/svg" width="16" height="16" fill="currentColor" viewBox="0 0 16 16">
  <path fill-rule="evenodd" d="M8 2a.5.5 0 1 0 0 1 .5.5 0 0 0 0-1Zm-1.5.5a1.5 1.5 0 1 1 3 0 1.5 1.5 0 0 1-3 0ZM8 13a.5.5 0 1 0 0 1 .5.5 0 0 0 0-1Zm-1.5.5a1.5 1.5 0 1 1 3 0 1.5 1.5 0 0 1-3 0Zm-4-6a.5.5 0 1 0 0 1 .5.5 0 0 0 0-1ZM1 8a1.5 1.5 0 1 1 3 0 1.5 1.5 0 0 1-3 0Zm12.5-.5a.5.5 0 1 0 0 1 .5.5 0 0 0 0-1ZM12 8a1.5 1.5 0 1 1 3 0 1.5 1.5 0 0 1-3 0ZM4 3.5a.5.5 0 1 0 0 1 .5.5 0 0 0 0-1ZM2.5 4a1.5 1.5 0 1 1 3 0 1.5 1.5 0 0 1-3 0Zm9.5-.5a.5.5 0 1 0 0 1 .5.5 0 0 0 0-1Zm-1.5.5a1.5 1.5 0 1 1 3 0 1.5 1.5 0 0 1-3 0Zm-6.485 7.51a.5.5 0 1 0-.01 1 .5.5 0 0 0 .01-1Zm-1.505.485a1.5 1.5 0 1 1 3 .03 1.5 1.5 0 0 1-3-.03ZM12 11.5a.5.5 0 1 0 0 1 .5.5 0 0 0 0-1Zm-1.5.5a1.5 1.5 0 1 1 3 0 1.5 1.5 0 0 1-3 0Z" clip-rule="evenodd"/>
  <path fill-rule="evenodd" d="M9.16 9.16a.5.5 0 0 1 .707 0l1.726 1.726a.5.5 0 1 1-.707.708L9.16 9.867a.5.5 0 0 1 0-.707ZM4.382 4.354a.5.5 0 0 1 .707.005l1.754 1.776a.5.5 0 1 1-.712.703L4.378 5.06a.5.5 0 0 1 .004-.707Zm7.228-.048a.5.5 0 0 1 .014.707l-1.75 1.82a.5.5 0 1 1-.721-.693l1.75-1.82a.5.5 0 0 1 .707-.014ZM6.84 9.16a.5.5 0 0 1 0 .707l-1.776 1.776a.5.5 0 1 1-.708-.707L6.133 9.16a.5.5 0 0 1 .707 0ZM8 3.25a.5.5 0 0 1 .5.5v2.107a.5.5 0 0 1-1 0V3.75a.5.5 0 0 1 .5-.5Zm0 6.393a.5.5 0 0 1 .5.5v2.107a.5.5 0 0 1-1 0v-2.107a.5.5 0 0 1 .5-.5ZM9.643 8a.5.5 0 0 1 .5-.5h2.107a.5.5 0 0 1 0 1h-2.107a.5.5 0 0 1-.5-.5ZM3 8a.5.5 0 0 1 .5-.5h2.357a.5.5 0 0 1 0 1H3.5A.5.5 0 0 1 3 8Z" clip-rule="evenodd"/>
  <path fill-rule="evenodd" d="M8 6.5a1.5 1.5 0 1 0 0 3 1.5 1.5 0 0 0 0-3ZM5.5 8a2.5 2.5 0 1 1 5 0 2.5 2.5 0 0 1-5 0Z" clip-rule="evenodd"/>
</svg>
