<svg xmlns="http://www.w3.org/2000/svg" width="16" height="16" fill="currentColor" viewBox="0 0 16 16">
  <path fill-rule="evenodd" d="M2.1 2a.1.1 0 0 0-.1.1v1.8a.1.1 0 0 0 .1.1h1.8a.1.1 0 0 0 .1-.1V2.1a.1.1 0 0 0-.1-.1H2.1ZM1 2.1A1.1 1.1 0 0 1 2.1 1h1.8A1.1 1.1 0 0 1 5 2.1v1.8A1.1 1.1 0 0 1 3.9 5H2.1A1.1 1.1 0 0 1 1 3.9V2.1ZM2.1 12a.1.1 0 0 0-.1.1v1.8a.1.1 0 0 0 .1.1h1.8a.1.1 0 0 0 .1-.1v-1.8a.1.1 0 0 0-.1-.1H2.1Zm-1.1.1A1.1 1.1 0 0 1 2.1 11h1.8A1.1 1.1 0 0 1 5 12.1v1.8A1.1 1.1 0 0 1 3.9 15H2.1A1.1 1.1 0 0 1 1 13.9v-1.8ZM2.517 8a.5.5 0 0 1 .5-.5h5.814a.5.5 0 0 1 0 1H3.017a.5.5 0 0 1-.5-.5Z" clip-rule="evenodd"/>
  <path fill-rule="evenodd" d="M3.017 4.178a.5.5 0 0 1 .5.5v6.644a.5.5 0 1 1-1 0V4.678a.5.5 0 0 1 .5-.5ZM9.629 2c-.056 0-.129.051-.129.15v11.7c0 .099.073.15.129.15h4.242c.056 0 .129-.051.129-.15V2.15c0-.099-.073-.15-.129-.15H9.63ZM8.5 2.15C8.5 1.53 8.99 1 9.629 1h4.242C14.511 1 15 1.53 15 2.15v11.7c0 .62-.49 1.15-1.129 1.15H9.63c-.64 0-1.129-.53-1.129-1.15V2.15Z" clip-rule="evenodd"/>
  <path fill-rule="evenodd" d="M10.5 4a.5.5 0 0 1 .5-.5h1.5a.5.5 0 0 1 0 1H11a.5.5 0 0 1-.5-.5Zm0 2a.5.5 0 0 1 .5-.5h1.5a.5.5 0 0 1 0 1H11a.5.5 0 0 1-.5-.5Z" clip-rule="evenodd"/>
</svg>
