<svg xmlns="http://www.w3.org/2000/svg" width="16" height="16" fill="currentColor" viewBox="0 0 16 16">
  <path fill-rule="evenodd" d="M2.1 2a.1.1 0 0 0-.1.1v1.8a.1.1 0 0 0 .1.1h1.8a.1.1 0 0 0 .1-.1V2.1a.1.1 0 0 0-.1-.1H2.1ZM1 2.1A1.1 1.1 0 0 1 2.1 1h1.8A1.1 1.1 0 0 1 5 2.1v1.8A1.1 1.1 0 0 1 3.9 5h-.383v2.5H8.5V2.15C8.5 1.53 8.99 1 9.629 1h4.242C14.511 1 15 1.53 15 2.15v11.7c0 .62-.49 1.15-1.129 1.15H9.63c-.64 0-1.129-.53-1.129-1.15V8.5H3.517V11H3.9A1.1 1.1 0 0 1 5 12.1v1.8A1.1 1.1 0 0 1 3.9 15H2.1A1.1 1.1 0 0 1 1 13.9v-1.8A1.1 1.1 0 0 1 2.1 11h.417V5H2.1A1.1 1.1 0 0 1 1 3.9V2.1ZM2.1 12a.1.1 0 0 0-.1.1v1.8a.1.1 0 0 0 .1.1h1.8a.1.1 0 0 0 .1-.1v-1.8a.1.1 0 0 0-.1-.1H2.1Zm7.4-9.85c0-.099.073-.15.129-.15h4.242c.056 0 .129.051.129.15v11.7c0 .099-.073.15-.129.15H9.63c-.056 0-.129-.051-.129-.15V2.15Zm1 1.85a.5.5 0 0 1 .5-.5h1.5a.5.5 0 0 1 0 1H11a.5.5 0 0 1-.5-.5Zm.5 1.5a.5.5 0 0 0 0 1h1.5a.5.5 0 0 0 0-1H11Z" clip-rule="evenodd"/>
</svg>
