<svg xmlns="http://www.w3.org/2000/svg" width="16" height="16" fill="currentColor" viewBox="0 0 16 16">
  <path fill-rule="evenodd" d="M13.555 1.503a.5.5 0 0 1 .442.552l-.25 2.25a.5.5 0 0 1-.552.442l-2.25-.25a.5.5 0 1 1 .11-.994l1.753.195.195-1.753a.5.5 0 0 1 .552-.442Z" clip-rule="evenodd"/>
  <path fill-rule="evenodd" d="M3.05 3.05a7.004 7.004 0 0 1 9.9 0 .5.5 0 1 1-.706.707 6.004 6.004 0 0 0-8.488 0 6.004 6.004 0 0 0 0 8.487 6.004 6.004 0 0 0 8.488 0 5.996 5.996 0 0 0 1.516-5.926.5.5 0 1 1 .96-.28 6.996 6.996 0 0 1-1.77 6.913 7.004 7.004 0 0 1-9.9 0 7.004 7.004 0 0 1 0-9.902Z" clip-rule="evenodd"/>
  <path fill-rule="evenodd" d="M8 5.5c-.551 0-1 .449-1 1 0 .551.449 1 1 1 1.103 0 2 .897 2 2s-.897 2-2 2a2 2 0 0 1-2-2 .5.5 0 0 1 1 0c0 .551.449 1 1 1 .551 0 1-.449 1-1 0-.551-.449-1-1-1-1.103 0-2-.897-2-2s.897-2 2-2c1.102 0 2 .891 2 2a.5.5 0 0 1-1 0c0-.551-.449-1-1-1Z" clip-rule="evenodd"/>
  <path fill-rule="evenodd" d="M8 3a.5.5 0 0 1 .5.5v1a.5.5 0 0 1-1 0v-1A.5.5 0 0 1 8 3Zm0 8a.5.5 0 0 1 .5.5v1a.5.5 0 0 1-1 0v-1A.5.5 0 0 1 8 11Z" clip-rule="evenodd"/>
</svg>
