<svg xmlns="http://www.w3.org/2000/svg" width="16" height="16" fill="currentColor" viewBox="0 0 16 16">
  <path fill-rule="evenodd" d="M3.05 3.05a7.004 7.004 0 0 1 9.837-.063l.116-1.042a.5.5 0 1 1 .994.11l-.25 2.25a.5.5 0 0 1-.552.442l-2.25-.25a.5.5 0 1 1 .11-.994l1.047.116a6.004 6.004 0 0 0-8.346.138 6.004 6.004 0 0 0 0 8.487 6.004 6.004 0 0 0 8.488 0 5.996 5.996 0 0 0 1.516-5.926.5.5 0 1 1 .96-.28 6.996 6.996 0 0 1-1.77 6.913 7.004 7.004 0 0 1-9.9 0 7.004 7.004 0 0 1 0-9.902ZM7 6.5c0-.551.449-1 1-1 .551 0 1 .449 1 1a.5.5 0 0 0 1 0 2 2 0 0 0-1.504-1.938A.505.505 0 0 0 8.5 4.5v-1a.5.5 0 0 0-1 0v1c0 .021.001.042.004.062A2.003 2.003 0 0 0 6 6.5c0 1.103.897 2 2 2 .551 0 1 .449 1 1 0 .551-.449 1-1 1-.551 0-1-.449-1-1a.5.5 0 0 0-1 0 2 2 0 0 0 1.504 1.938.505.505 0 0 0-.004.062v1a.5.5 0 0 0 1 0v-1a.505.505 0 0 0-.004-.062A2.003 2.003 0 0 0 10 9.5c0-1.103-.897-2-2-2-.551 0-1-.449-1-1Z" clip-rule="evenodd"/>
</svg>
