<svg xmlns="http://www.w3.org/2000/svg" width="16" height="16" fill="currentColor" viewBox="0 0 16 16">
  <g clip-path="url(#a)">
    <path fill-rule="evenodd" d="M1.967 8a6.033 6.033 0 1 1 12.066 0A6.033 6.033 0 0 1 1.967 8ZM8 .967a7.033 7.033 0 1 0 0 14.066A7.033 7.033 0 0 0 8 .967ZM7 6.5c0-.551.449-1 1-1 .551 0 1 .449 1 1a.5.5 0 0 0 1 0 2 2 0 0 0-1.504-1.938A.505.505 0 0 0 8.5 4.5v-1a.5.5 0 0 0-1 0v1c0 .021.001.042.004.062A2.003 2.003 0 0 0 6 6.5c0 1.103.897 2 2 2 .551 0 1 .449 1 1 0 .551-.449 1-1 1-.551 0-1-.449-1-1a.5.5 0 0 0-1 0 2 2 0 0 0 1.504 1.938.505.505 0 0 0-.004.062v1a.5.5 0 0 0 1 0v-1a.505.505 0 0 0-.004-.062A2.003 2.003 0 0 0 10 9.5c0-1.103-.897-2-2-2-.551 0-1-.449-1-1Z" clip-rule="evenodd"/>
  </g>
  <defs>
    <clipPath id="a">
      <path d="M0 0h16v16H0z"/>
    </clipPath>
  </defs>
</svg>
