<svg xmlns="http://www.w3.org/2000/svg" width="16" height="16" fill="currentColor" viewBox="0 0 16 16">
  <path fill-rule="evenodd" d="M13.982 7.956 8.044 2.018a.063.063 0 0 0-.088 0L2.018 7.956a.063.063 0 0 0 0 .088l5.938 5.938a.063.063 0 0 0 .088 0l5.938-5.938a.063.063 0 0 0 0-.088ZM8.752 1.31a1.063 1.063 0 0 0-1.504 0L1.311 7.248a1.063 1.063 0 0 0 0 1.504l5.937 5.937a1.063 1.063 0 0 0 1.504 0l5.937-5.937a1.063 1.063 0 0 0 0-1.504L8.752 1.311ZM8 4a.5.5 0 0 1 .5.5v4a.5.5 0 0 1-1 0v-4A.5.5 0 0 1 8 4Zm0 7a.5.5 0 1 0 0-1 .5.5 0 0 0 0 1Z" clip-rule="evenodd"/>
</svg>
