<svg xmlns="http://www.w3.org/2000/svg" width="16" height="16" fill="currentColor" viewBox="0 0 16 16">
  <path fill-rule="evenodd" d="M3.962 2.691a1.445 1.445 0 0 1 1.24-.697h5.582c.508 0 .975.267 1.237.694l.002.002 2.77 4.566a1.43 1.43 0 0 1 0 1.472l-.001.001-2.764 4.569a1.445 1.445 0 0 1-1.239.696H5.206c-.507 0-.975-.267-1.237-.693l-.002-.003-2.764-4.569a1.428 1.428 0 0 1 0-1.473v-.001l2.76-4.564Zm1.24.312a.436.436 0 0 0-.376.21L2.067 7.776a.42.42 0 0 0 0 .432l2.762 4.564v.002a.446.446 0 0 0 .377.211h5.583c.155 0 .296-.08.375-.21l2.764-4.567a.42.42 0 0 0 0-.431v-.001l-2.767-4.56a.446.446 0 0 0-.377-.213H5.201Zm3.543 8.24a.75.75 0 1 1-1.5 0 .75.75 0 0 1 1.5 0ZM8.62 4.625a.624.624 0 0 0-1.249 0v4.246a.624.624 0 0 0 1.25 0V4.625Z" clip-rule="evenodd"/>
</svg>
