<svg xmlns="http://www.w3.org/2000/svg" width="16" height="16" fill="currentColor" viewBox="0 0 16 16">
  <path fill-rule="evenodd" d="M5.201 1.995c-.503 0-.975.26-1.24.697L1.202 7.26H1.2a1.43 1.43 0 0 0 0 1.474v.002l2.766 4.572.002.003c.262.427.73.694 1.238.694h5.588c.504 0 .975-.26 1.24-.697L14.8 8.736v-.002a1.43 1.43 0 0 0 0-1.473L12.03 2.69l-.002-.002a1.456 1.456 0 0 0-1.238-.694H5.201Zm-.375 1.22c.079-.13.22-.21.375-.21h5.588c.152 0 .296.08.377.212l2.769 4.565a.42.42 0 0 1 0 .432l-2.766 4.571a.436.436 0 0 1-.375.21H5.206a.446.446 0 0 1-.377-.212l-2.764-4.57a.42.42 0 0 1 0-.431l2.761-4.567ZM8 4a.5.5 0 0 1 .5.5v4a.5.5 0 0 1-1 0v-4A.5.5 0 0 1 8 4Zm.5 6.5a.5.5 0 1 1-1 0 .5.5 0 0 1 1 0Z" clip-rule="evenodd"/>
</svg>
