<svg xmlns="http://www.w3.org/2000/svg" width="16" height="16" fill="none" viewBox="0 0 16 16">
  <path fill="#3D3C3C" fill-rule="evenodd" d="m1.78 4.02 5.904-2.907A.502.502 0 0 1 8.014 1a.502.502 0 0 1 .334.115l5.866 2.933a.505.505 0 0 1 .286.452v6.99a.507.507 0 0 1-.216.421.504.504 0 0 1-.07.041l-5.98 2.99a.497.497 0 0 1-.467 0l-5.98-2.99a.5.5 0 0 1-.287-.463V4.484a.5.5 0 0 1 .28-.465Zm6.72 9.67 5-2.5V5.309l-5 2.5v5.882Zm-1-5.882v5.882l-5-2.5V5.309l5 2.5Zm.513-5.744L12.882 4.5 8 6.941 3.093 4.487l4.92-2.422Z" clip-rule="evenodd"/>
</svg>
