<svg xmlns="http://www.w3.org/2000/svg" width="16" height="16" fill="currentColor" viewBox="0 0 16 16">
  <path fill-rule="evenodd" d="M3 2a1 1 0 0 0-1 1v4a.5.5 0 0 0 1 0V3h4a.5.5 0 0 0 0-1H3Zm6 0a.5.5 0 0 0 0 1h4v4a.5.5 0 0 0 1 0V3a1 1 0 0 0-1-1H9Zm4.5 6.5a.5.5 0 0 1 .5.5v4a1 1 0 0 1-1 1H9a.5.5 0 0 1 0-1h4V9a.5.5 0 0 1 .5-.5ZM3 9a.5.5 0 0 0-1 0v4a1 1 0 0 0 1 1h4a.5.5 0 0 0 0-1H3V9Zm5 0a1 1 0 1 0 0-2 1 1 0 0 0 0 2Zm-3.4-.09a4.403 4.403 0 0 0 3.396 1.59c1.321 0 2.562-.58 3.397-1.59l.49-.59a.498.498 0 0 0 0-.64l-.49-.59A4.395 4.395 0 0 0 7.996 5.5c-1.32 0-2.561.58-3.397 1.59 0 0-.355.41-.49.59-.133.177-.154.445-.008.63l.498.6Zm.77-.64L5.145 8l.225-.27A3.402 3.402 0 0 1 7.996 6.5c1.02 0 1.982.45 2.627 1.23l.225.27-.225.27a3.397 3.397 0 0 1-2.627 1.225A3.39 3.39 0 0 1 5.37 8.27Z" clip-rule="evenodd"/>
</svg>
