<svg xmlns="http://www.w3.org/2000/svg" width="16" height="16" fill="none" viewBox="0 0 16 16">
  <path fill="#3D3C3C" fill-rule="evenodd" d="M1.146 1.146a.5.5 0 0 1 .708 0l2.272 2.272A5.976 5.976 0 0 1 8 2c1.477 0 2.83.534 3.874 1.418l2.272-2.272a.5.5 0 0 1 .708.708l-2.272 2.272A5.976 5.976 0 0 1 14 8c0 1.477-.534 2.83-1.418 3.874l2.272 2.272a.5.5 0 0 1-.708.708l-2.272-2.272A5.976 5.976 0 0 1 8 14a5.976 5.976 0 0 1-3.874-1.418l-2.272 2.272a.5.5 0 0 1-.708-.708l2.272-2.272A5.976 5.976 0 0 1 2 8c0-1.477.534-2.83 1.418-3.874L1.146 1.854a.5.5 0 0 1 0-.708ZM3 8a5 5 0 1 1 10 0A5 5 0 0 1 3 8Z" clip-rule="evenodd"/>
</svg>
