<svg xmlns="http://www.w3.org/2000/svg" width="16" height="16" fill="currentColor" viewBox="0 0 16 16">
  <path fill-rule="evenodd" d="M3.721 2A.74.74 0 0 0 3 2.748V4h.5a.5.5 0 0 1 0 1h-2a.5.5 0 0 1 0-1H2V2.748C2 1.796 2.764 1 3.721 1h8.058c.957 0 1.721.796 1.721 1.748V6.5a.5.5 0 0 1-1 0V2.748A.74.74 0 0 0 11.779 2H3.72ZM2.5 12.475a.5.5 0 0 1 .5.5v.277c0 .42.336.748.721.748H6.5a.5.5 0 0 1 0 1H3.721C2.764 15 2 14.204 2 13.252v-.277a.5.5 0 0 1 .5-.5ZM1 8a.5.5 0 0 1 .5-.5H2V6a.5.5 0 0 1 1 0v1.5h.5a.5.5 0 0 1 0 1h-2A.5.5 0 0 1 1 8Zm0 3.5a.5.5 0 0 1 .5-.5H2V9.5a.5.5 0 0 1 1 0V11h.5a.5.5 0 0 1 0 1h-2a.5.5 0 0 1-.5-.5Zm7.298 3.205c.19.19.445.295.71.295v-.005c.085 0 .165-.01.25-.03l1.215-.305a.484.484 0 0 0 .23-.13l3.832-3.83a1.58 1.58 0 0 0 0-2.239 1.592 1.592 0 0 0-2.241 0l-3.831 3.84c-.06.06-.11.14-.13.23l-.306 1.214h.005a.99.99 0 0 0 .266.96Zm.7-.715v-.005l.27-1.08 3.736-3.734a.58.58 0 0 1 .826 0c.225.23.225.6 0 .825l-3.732 3.73-1.1.264Z" clip-rule="evenodd"/>
</svg>
