<svg xmlns="http://www.w3.org/2000/svg" width="16" height="16" fill="currentColor" viewBox="0 0 16 16">
  <path fill-rule="evenodd" d="M3 9.5a.5.5 0 0 1 .5.5v2.8c0 .106.087.2.209.2H7a.5.5 0 0 1 0 1H3.709A1.203 1.203 0 0 1 2.5 12.8V10a.5.5 0 0 1 .5-.5Z" clip-rule="evenodd"/>
  <path fill-rule="evenodd" d="M5.646 12.146a.5.5 0 0 1 .708 0l1 1a.5.5 0 0 1 0 .708l-1 1a.5.5 0 0 1-.708-.708l.647-.646-.647-.646a.5.5 0 0 1 0-.708ZM8.5 2.5A.5.5 0 0 1 9 2h3.225c.658 0 1.275.492 1.275 1.2V6a.5.5 0 0 1-1 0V3.2c0-.065-.073-.2-.275-.2H9a.5.5 0 0 1-.5-.5Z" clip-rule="evenodd"/>
  <path fill-rule="evenodd" d="M10.354 1.146a.5.5 0 0 1 0 .708l-.647.646.647.646a.5.5 0 0 1-.708.708l-1-1a.5.5 0 0 1 0-.708l1-1a.5.5 0 0 1 .708 0ZM4.25 2a.75.75 0 1 0 0 1.5.75.75 0 0 0 0-1.5Zm-1.75.75a1.75 1.75 0 1 1 3.5 0 1.75 1.75 0 0 1-3.5 0ZM1 6.384A1.369 1.369 0 0 1 2.364 5h3.772C6.902 5 7.5 5.63 7.5 6.38v.003L7.49 7.74a.756.756 0 0 1-.756.755H6.73c-.626-.006-2.274-.001-3.554.002L1.771 8.5a.761.761 0 0 1-.761-.76v-.002h.5l-.5.003V7.74L1 6.384l.5-.005-.5.004ZM2.364 6A.369.369 0 0 0 2 6.374v.002L2.008 7.5l1.15-.003c1.14-.003 2.583-.007 3.334-.003L6.5 6.378A.372.372 0 0 0 6.136 6H2.364Zm9.386 2.5a.75.75 0 1 0 0 1.5.75.75 0 0 0 0-1.5ZM10 9.25a1.75 1.75 0 1 1 3.5 0 1.75 1.75 0 0 1-3.5 0Zm-1.5 3.634A1.369 1.369 0 0 1 9.864 11.5h3.772c.765 0 1.364.63 1.364 1.38v.001l-.005 1.184v.008a.94.94 0 0 1-.937.922h-.002c-.651-.002-1.931 0-3.04.003L9.442 15a.933.933 0 0 1-.932-.93l-.01-1.186Zm1.364-.384a.369.369 0 0 0-.364.374v.001L9.509 14l1.497-.002c1.076-.003 2.318-.005 2.99-.003L14 12.88a.372.372 0 0 0-.364-.379H9.864Z" clip-rule="evenodd"/>
</svg>
