<svg xmlns="http://www.w3.org/2000/svg" width="16" height="16" fill="currentColor" viewBox="0 0 16 16">
  <path fill-rule="evenodd" d="M2.452 2C2.225 2 2 2.2 2 2.5V4c0 .3.225.5.452.5h3.096C5.775 4.5 6 4.3 6 4V2.5c0-.3-.225-.5-.452-.5H2.452ZM1 2.5C1 1.695 1.628 1 2.452 1h3.096C6.372 1 7 1.695 7 2.5V4c0 .805-.628 1.5-1.452 1.5H2.452C1.628 5.5 1 4.805 1 4V2.5Zm1.452 5A.452.452 0 0 0 2 7.952v5.596c0 .25.203.452.452.452h3.096c.25 0 .452-.203.452-.452V7.952a.452.452 0 0 0-.452-.452H2.452ZM1 7.952C1 7.15 1.65 6.5 2.452 6.5h3.096C6.35 6.5 7 7.15 7 7.952v5.596C7 14.35 6.35 15 5.548 15H2.452C1.65 15 1 14.35 1 13.548V7.952ZM13.548 14c.227 0 .452-.2.452-.5V12c0-.3-.225-.5-.452-.5h-3.096c-.227 0-.452.2-.452.5v1.5c0 .3.225.5.452.5h3.096ZM15 13.5c0 .805-.627 1.5-1.452 1.5h-3.096C9.628 15 9 14.305 9 13.5V12c0-.805.628-1.5 1.452-1.5h3.096c.825 0 1.452.695 1.452 1.5v1.5Zm-1.452-5c.25 0 .452-.203.452-.452V2.452A.452.452 0 0 0 13.548 2h-3.096a.452.452 0 0 0-.452.452v5.596c0 .25.203.452.452.452h3.096ZM15 8.048c0 .802-.65 1.452-1.452 1.452h-3.096C9.65 9.5 9 8.85 9 8.048V2.452C9 1.65 9.65 1 10.452 1h3.096C14.35 1 15 1.65 15 2.452v5.596Z" clip-rule="evenodd"/>
</svg>
