<svg xmlns="http://www.w3.org/2000/svg" width="16" height="16" fill="currentColor" viewBox="0 0 16 16">
  <path fill-rule="evenodd" d="M2 2.5c0-.3.225-.5.452-.5h3.096c.227 0 .452.2.452.5V4c0 .3-.225.5-.452.5H2.452C2.225 4.5 2 4.3 2 4V2.5ZM2.452 1C1.628 1 1 1.695 1 2.5V4c0 .805.628 1.5 1.452 1.5h3.096C6.372 5.5 7 4.805 7 4V2.5C7 1.695 6.372 1 5.548 1H2.452ZM2 7.952c0-.25.203-.452.452-.452h3.096c.25 0 .452.203.452.452v5.596c0 .25-.203.452-.452.452H2.452A.452.452 0 0 1 2 13.548V7.952ZM2.452 6.5C1.65 6.5 1 7.15 1 7.952v5.596C1 14.35 1.65 15 2.452 15h3.096C6.35 15 7 14.35 7 13.548V7.952C7 7.15 6.35 6.5 5.548 6.5H2.452ZM13.548 14c.227 0 .452-.2.452-.5V12c0-.3-.225-.5-.452-.5h-3.096c-.227 0-.452.2-.452.5v1.5c0 .3.225.5.452.5h3.096ZM15 13.5c0 .805-.627 1.5-1.452 1.5h-3.096C9.628 15 9 14.305 9 13.5V12c0-.805.628-1.5 1.452-1.5h3.096c.825 0 1.452.695 1.452 1.5v1.5Zm-1-5.452c0 .25-.203.452-.452.452h-3.096A.452.452 0 0 1 10 8.048V2.452c0-.25.203-.452.452-.452h3.096c.25 0 .452.203.452.452v5.596ZM13.548 9.5C14.35 9.5 15 8.85 15 8.048V2.452C15 1.65 14.35 1 13.548 1h-3.096C9.65 1 9 1.65 9 2.452v5.596C9 8.85 9.65 9.5 10.452 9.5h3.096Z" clip-rule="evenodd"/>
</svg>
