<svg xmlns="http://www.w3.org/2000/svg" width="16" height="16" fill="currentColor" viewBox="0 0 16 16">
  <path fill-rule="evenodd" d="M3.5 1A2.5 2.5 0 0 0 1 3.5v9A2.5 2.5 0 0 0 3.5 15h4a.5.5 0 0 0 0-1h-4A1.5 1.5 0 0 1 2 12.5v-2h5a.5.5 0 0 0 0-1H2v-3h8V7a.5.5 0 0 0 1 0V3.5A2.5 2.5 0 0 0 8.5 1h-5ZM2 5.5h8v-2A1.5 1.5 0 0 0 8.5 2h-5A1.5 1.5 0 0 0 2 3.5v2Zm1.5-2a.5.5 0 1 0 0 1 .5.5 0 0 0 0-1ZM3 8a.5.5 0 1 1 1 0 .5.5 0 0 1-1 0Zm.5 3.5a.5.5 0 1 0 0 1 .5.5 0 0 0 0-1ZM11 9a2 2 0 1 0 0 4 2 2 0 0 0 0-4Zm-3 2a3 3 0 1 1 5.445 1.738l1.409 1.408a.5.5 0 0 1-.708.708l-1.408-1.409A3 3 0 0 1 8 11Z" clip-rule="evenodd"/>
</svg>
