<svg xmlns="http://www.w3.org/2000/svg" width="16" height="16" fill="currentColor" viewBox="0 0 16 16">
  <path d="M7.75 1c1.489 0 2.858.2 3.871.538.504.168.948.38 1.277.639.147.116.285.256.392.417.127.09.21.238.21.406v9.7c0 .46-.272.827-.597 1.09-.328.267-.773.484-1.278.657C10.61 14.795 9.24 15 7.75 15c-1.49 0-2.86-.206-3.875-.555-.505-.173-.95-.391-1.277-.657C2.274 13.525 2 13.16 2 12.7V3a.5.5 0 0 1 .209-.406c.107-.161.246-.3.395-.417.328-.259.772-.47 1.276-.639C4.893 1.2 6.262 1 7.75 1ZM3 12.7c0 .035.021.144.228.312.203.164.527.334.971.487.885.304 2.14.501 3.551.501 1.41 0 2.666-.196 3.55-.499.445-.152.77-.323.973-.487.205-.167.227-.277.227-.315v-1.733a4.95 4.95 0 0 1-.858.417c-1.02.388-2.397.617-3.892.617s-2.87-.23-3.89-.62a4.98 4.98 0 0 1-.86-.417v1.736Zm1-.7a.5.5 0 1 1 0 1 .5.5 0 0 1 0-1Zm8.5-4.296a5.53 5.53 0 0 1-.9.339c-1.007.287-2.368.457-3.852.457s-2.845-.171-3.85-.459A5.543 5.543 0 0 1 3 7.704V9.5c0 .084.043.223.247.406.204.184.526.372.968.54.88.336 2.13.554 3.535.554 1.406 0 2.656-.217 3.535-.552.441-.168.764-.355.968-.539.203-.183.247-.323.247-.409V7.704ZM4 8.75a.5.5 0 1 1 0 1 .5.5 0 0 1 0-1Zm8.5-4.166c-.259.144-.556.27-.879.378C10.608 5.3 9.24 5.5 7.75 5.5c-1.488 0-2.857-.2-3.87-.538A5.199 5.199 0 0 1 3 4.584v1.902l.037.055a.833.833 0 0 0 .155.129c.204.138.531.281.98.41.894.256 2.158.42 3.576.42 1.419 0 2.683-.164 3.577-.419.45-.128.779-.272.983-.41.155-.105.187-.17.192-.183V4.584ZM4 5.5a.5.5 0 1 1 0 1 .5.5 0 0 1 0-1ZM7.75 2c-1.41 0-2.667.192-3.554.487-.445.149-.77.315-.973.475-.209.164-.223.265-.223.288 0 .023.014.125.223.29.203.159.528.325.973.474.887.295 2.143.486 3.554.486 1.41 0 2.668-.19 3.555-.486.445-.149.77-.315.973-.475.209-.164.222-.266.222-.289 0-.023-.014-.124-.222-.288-.203-.16-.528-.326-.973-.475C10.418 2.192 9.16 2 7.75 2Z"/>
</svg>
