<svg xmlns="http://www.w3.org/2000/svg" width="16" height="16" fill="currentColor" viewBox="0 0 16 16">
  <path d="M8.5 1A2.5 2.5 0 0 1 11 3.5v4a.5.5 0 0 1-1 0v-1H2v3h5a.5.5 0 0 1 0 1H2v2A1.5 1.5 0 0 0 3.5 14H5a.5.5 0 0 1 0 1H3.5A2.5 2.5 0 0 1 1 12.5v-9A2.5 2.5 0 0 1 3.5 1h5Zm2.291 7.5c1.273 0 2.323.882 2.666 2.058.375.099.708.32.961.597.348.382.582.905.582 1.469 0 1.25-.806 2.376-2.13 2.376H8.442C7.34 15 6.5 14.073 6.5 13.001c0-.77.47-1.497 1.209-1.797l.114-.042c.063-.02.126-.034.19-.045C8.15 9.667 9.323 8.5 10.79 8.5Zm0 1c-.911 0-1.696.738-1.782 1.725a.5.5 0 0 1-.307.942l-.207-.04a.511.511 0 0 1-.027-.005.644.644 0 0 0-.312-.015l-.07.023A.952.952 0 0 0 7.5 13c0 .565.436.999.943.999h4.426c.624 0 1.13-.517 1.131-1.376 0-.288-.122-.578-.32-.795-.2-.22-.442-.329-.653-.329a.778.778 0 0 0-.487.146.5.5 0 1 1-.595-.803c.135-.1.29-.185.467-.245-.288-.657-.915-1.098-1.621-1.098Zm-7.291 2a.5.5 0 1 1 0 1 .5.5 0 0 1 0-1Zm0-4a.5.5 0 1 1 0 1 .5.5 0 0 1 0-1Zm0-5.5A1.5 1.5 0 0 0 2 3.5v2h8v-2A1.5 1.5 0 0 0 8.5 2h-5Zm0 1.5a.5.5 0 1 1 0 1 .5.5 0 0 1 0-1Z"/>
</svg>
