<svg xmlns="http://www.w3.org/2000/svg" width="16" height="16" fill="currentColor" viewBox="0 0 16 16">
  <path fill-rule="evenodd" d="M1 3.5A2.5 2.5 0 0 1 3.5 1h5A2.5 2.5 0 0 1 11 3.5V7a.5.5 0 0 1-1 0v-.5H2v3h5a.5.5 0 0 1 0 1H2v2A1.5 1.5 0 0 0 3.5 14h4a.5.5 0 0 1 0 1h-4A2.5 2.5 0 0 1 1 12.5v-9Zm9 2H2v-2A1.5 1.5 0 0 1 3.5 2h5A1.5 1.5 0 0 1 10 3.5v2ZM3 4a.5.5 0 1 1 1 0 .5.5 0 0 1-1 0Zm.5 3.5a.5.5 0 1 0 0 1 .5.5 0 0 0 0-1ZM3 12a.5.5 0 1 1 1 0 .5.5 0 0 1-1 0Zm5.102-3.52A.942.942 0 0 1 8.934 8h5.125c.358 0 .679.183.84.48a.828.828 0 0 1-.152.993l-.001.001L13 11.208V13a.5.5 0 0 1-.11.314l-1.072 1.33a.89.89 0 0 1-.972.316.86.86 0 0 1-.596-.835v-2.888l-.889-.728a.475.475 0 0 1-.025-.022L8.265 9.484l-.012-.011a.828.828 0 0 1-.151-.993Zm5.702.52H9.211l.797.746 1.059.867a.5.5 0 0 1 .183.387v2.755l.75-.931V11a.5.5 0 0 1 .148-.355L13.804 9Z" clip-rule="evenodd"/>
</svg>
