<svg xmlns="http://www.w3.org/2000/svg" width="16" height="16" fill="none" viewBox="0 0 16 16">
  <path fill="#3D3C3C" fill-rule="evenodd" d="M4 1a2.5 2.5 0 0 0-2.5 2.5v9A2.5 2.5 0 0 0 4 15h2a.5.5 0 0 0 0-1H4a1.5 1.5 0 0 1-1.5-1.5v-2h4a.5.5 0 0 0 0-1h-4v-3h9a.5.5 0 0 0 1 0v-3A2.5 2.5 0 0 0 10 1H4ZM2.5 5.5h9v-2A1.5 1.5 0 0 0 10 2H4a1.5 1.5 0 0 0-1.5 1.5v2Zm2-2a.5.5 0 1 0 0 1 .5.5 0 0 0 0-1ZM4 8a.5.5 0 1 1 1 0 .5.5 0 0 1-1 0Zm.5 3.5a.5.5 0 1 0 0 1 .5.5 0 0 0 0-1Zm3.5 0a3.5 3.5 0 1 1 7 0 3.5 3.5 0 0 1-7 0ZM11.5 9a2.5 2.5 0 1 0 0 5 2.5 2.5 0 0 0 0-5Zm1.41 1.787a.5.5 0 1 0-.82-.574l-.99 1.414-.19-.271a.5.5 0 1 0-.82.571l.598.859a.5.5 0 0 0 .82.001l1.401-2Z" clip-rule="evenodd"/>
</svg>
