<svg xmlns="http://www.w3.org/2000/svg" width="16" height="16" fill="currentColor" viewBox="0 0 16 16">
  <path fill-rule="evenodd" d="M11 2H5a1 1 0 0 0-1 1v10a1 1 0 0 0 1 1h6a1 1 0 0 0 1-1V3a1 1 0 0 0-1-1ZM5 1a2 2 0 0 0-2 2v10a2 2 0 0 0 2 2h6a2 2 0 0 0 2-2V3a2 2 0 0 0-2-2H5Z" clip-rule="evenodd"/>
  <path fill-rule="evenodd" d="M12.5 6.5h-9v-1h9v1Zm0 4h-9v-1h9v1Z" clip-rule="evenodd"/>
  <path d="M5 4a.5.5 0 1 1 1 0 .5.5 0 0 1-1 0Zm0 4a.5.5 0 1 1 1 0 .5.5 0 0 1-1 0Zm0 4a.5.5 0 1 1 1 0 .5.5 0 0 1-1 0Z"/>
</svg>
