<svg xmlns="http://www.w3.org/2000/svg" width="16" height="16" fill="currentColor" viewBox="0 0 16 16">
  <path fill-rule="evenodd" d="m4 5.658.433 6.471a2.03 2.03 0 0 0 2.015 1.904h2.915a2.03 2.03 0 0 0 2.016-1.903l.432-6.481a.135.135 0 0 0-.129-.145H4.133c-.067 0-.138.062-.133.154Zm5.378 9.375h-2.93a3.03 3.03 0 0 1-3.013-2.837l-.433-6.475a1.14 1.14 0 0 1 1.131-1.217h7.55c.657 0 1.167.563 1.126 1.209v.001l-.432 6.482a3.03 3.03 0 0 1-3 2.837Z" clip-rule="evenodd"/>
  <path fill-rule="evenodd" d="M6.5 7a.5.5 0 0 1 .5.5v4.447a.5.5 0 1 1-1 0V7.5a.5.5 0 0 1 .5-.5Zm3 0a.5.5 0 0 1 .5.5v4.447a.5.5 0 1 1-1 0V7.5a.5.5 0 0 1 .5-.5ZM3 3a.5.5 0 0 1 .5-.5h9a.5.5 0 0 1 0 1h-9A.5.5 0 0 1 3 3Z" clip-rule="evenodd"/>
  <path fill-rule="evenodd" d="M7.61 2.126c-.086.07-.11.14-.11.19V2.5a.5.5 0 0 1-1 0v-.184C6.5 1.496 7.275 1 8 1c.385 0 .745.129 1.02.349.286.23.48.572.48.967V2.5a.5.5 0 0 1-1 0v-.184c0-.053-.025-.122-.105-.187A.633.633 0 0 0 8 2a.623.623 0 0 0-.39.126Z" clip-rule="evenodd"/>
</svg>
