<svg xmlns="http://www.w3.org/2000/svg" width="16" height="16" fill="currentColor" viewBox="0 0 16 16">
  <path fill-rule="evenodd" d="M7.5 2.316c0-.05.024-.12.11-.19A.623.623 0 0 1 8 2c.165 0 .303.055.395.13.08.064.105.133.105.186V2.5h-1v-.184Zm-1 .184v-.184C6.5 1.496 7.275 1 8 1c.385 0 .745.129 1.02.349.286.23.48.572.48.967V2.5h3a.5.5 0 0 1 0 1h-9a.5.5 0 0 1 0-1h3ZM4 5.658l.433 6.471a2.03 2.03 0 0 0 2.015 1.904h2.915a2.03 2.03 0 0 0 2.016-1.903l.432-6.481a.135.135 0 0 0-.129-.145H4.133c-.067 0-.138.062-.133.154Zm5.378 9.375h-2.93a3.03 3.03 0 0 1-3.013-2.837l-.433-6.475a1.14 1.14 0 0 1 1.131-1.217h7.55c.657 0 1.167.563 1.126 1.209l-.432 6.483a3.03 3.03 0 0 1-3 2.837ZM6.5 7a.5.5 0 0 1 .5.5v4.447a.5.5 0 1 1-1 0V7.5a.5.5 0 0 1 .5-.5Zm3.5.5a.5.5 0 0 0-1 0v4.447a.5.5 0 1 0 1 0V7.5Z" clip-rule="evenodd"/>
</svg>
