<svg xmlns="http://www.w3.org/2000/svg" width="16" height="16" fill="none" viewBox="0 0 16 16">
  <path fill="#3D3C3C" fill-rule="evenodd" d="M4.5 11a1 1 0 1 0 0 2 1 1 0 0 0 0-2Zm-2 1a2 2 0 1 1 4 0 2 2 0 0 1-4 0Zm9-1a1 1 0 1 0 0 2 1 1 0 0 0 0-2Zm-2 1a2 2 0 1 1 4 0 2 2 0 0 1-4 0Z" clip-rule="evenodd"/>
  <path fill="#3D3C3C" fill-rule="evenodd" d="M5.5 12.5A.5.5 0 0 1 6 12h3.621a.5.5 0 0 1 0 1H6a.5.5 0 0 1-.5-.5Zm9-5a.5.5 0 0 1 .5.5v3.067a.5.5 0 0 1-1 0V8a.5.5 0 0 1 .5-.5ZM1.5 2a.5.5 0 0 1 .5.5V11a.5.5 0 0 1-1 0V2.5a.5.5 0 0 1 .5-.5Z" clip-rule="evenodd"/>
  <path fill="#3D3C3C" fill-rule="evenodd" d="M1 2.5a.5.5 0 0 1 .5-.5h7a.5.5 0 1 1 0 1h-7a.5.5 0 0 1-.5-.5Zm7 1a.5.5 0 0 1 .5-.5h5a.5.5 0 0 1 0 1h-5a.5.5 0 0 1-.5-.5Z" clip-rule="evenodd"/>
  <path fill="#3D3C3C" fill-rule="evenodd" d="M8.5 2a.5.5 0 0 1 .5.5v5.52a.5.5 0 1 1-1 0V2.5a.5.5 0 0 1 .5-.5Zm-7.416 8.723a.5.5 0 0 1 .693-.139l1.5 1a.5.5 0 1 1-.554.832l-1.5-1a.5.5 0 0 1-.139-.693ZM12.5 12.5a.5.5 0 0 1 .5-.5h.625a.5.5 0 0 1 0 1H13a.5.5 0 0 1-.5-.5Zm-2-4.5a.5.5 0 0 1 .5-.5h3.5a.5.5 0 0 1 0 1H11a.5.5 0 0 1-.5-.5Z" clip-rule="evenodd"/>
  <path fill="#3D3C3C" fill-rule="evenodd" d="M13.392 3.012a.5.5 0 0 1 .596.38l1 4.5a.5.5 0 1 1-.976.216l-1-4.5a.5.5 0 0 1 .38-.596ZM11 3a.5.5 0 0 1 .5.5V8a.5.5 0 0 1-1 0V3.5A.5.5 0 0 1 11 3Zm3.5 7.5a.5.5 0 0 1 .5.5c0 .498-.134.972-.376 1.337-.24.36-.628.663-1.124.663a.5.5 0 1 1 0-1c.057 0 .17-.035.291-.217.12-.18.21-.455.21-.783a.5.5 0 0 1 .5-.5Z" clip-rule="evenodd"/>
</svg>
