<svg xmlns="http://www.w3.org/2000/svg" width="16" height="16" fill="currentColor" viewBox="0 0 16 16">
  <path fill-rule="evenodd" d="M7.685 1.112a.5.5 0 0 1 .668.034l1 1 .035.038a.5.5 0 0 1-.703.704l-.039-.035-.146-.146v2.335a2.97 2.97 0 0 1 1.238.513L11.793 3.5H11.5a.5.5 0 0 1 0-1H13a.5.5 0 0 1 .498.449l.002.05v1.5a.5.5 0 0 1-1 0v-.293l-2.056 2.056c.258.362.437.783.513 1.24A.504.504 0 0 1 11 7.5h2.293l-.147-.147-.034-.038a.5.5 0 0 1 .703-.703l.039.034 1 1c0 .002.002.003.003.005.02.02.038.042.054.065l.01.014.015.026.008.014a.56.56 0 0 1 .036.09.499.499 0 0 1-.06.408l-.01.017-.018.024a.345.345 0 0 1-.032.036l-.006.008-1 1a.5.5 0 0 1-.708-.707l.147-.146H11l-.042-.003a2.982 2.982 0 0 1-.514 1.24l2.056 2.056V11.5a.5.5 0 1 1 1 0V13l-.002.051A.5.5 0 0 1 13 13.5h-1.5a.5.5 0 0 1 0-1h.293l-2.056-2.056a2.981 2.981 0 0 1-1.24.513A.31.31 0 0 1 8.5 11v2.293l.146-.147a.5.5 0 1 1 .707.707l-1 1a.5.5 0 0 1-.668.035l-.039-.035-1-1-.034-.038a.5.5 0 0 1 .703-.703l.038.034.147.147V11c0-.014 0-.029.002-.043a2.981 2.981 0 0 1-1.24-.513L4.207 12.5H4.5a.5.5 0 0 1 0 1H3a.5.5 0 0 1-.498-.449L2.5 13v-1.5a.5.5 0 1 1 1 0v.292l2.055-2.055A2.982 2.982 0 0 1 5.042 8.5H2.707l.146.146.035.038a.5.5 0 0 1-.703.704l-.039-.035-1-1a.5.5 0 0 1 0-.707l1-1 .039-.034a.5.5 0 0 1 .703.703l-.035.038-.146.147h2.335c.077-.456.256-.876.513-1.238L3.5 4.207V4.5a.5.5 0 0 1-1 0V3l.002-.051A.5.5 0 0 1 3 2.499h1.5a.5.5 0 0 1 0 1h-.293l2.055 2.056A2.983 2.983 0 0 1 7.5 5.042V2.707l-.147.146a.5.5 0 0 1-.707-.707l1-1 .039-.034ZM8 6a2 2 0 1 0 0 4 2 2 0 0 0 0-4Z" clip-rule="evenodd"/>
</svg>
