<svg xmlns="http://www.w3.org/2000/svg" width="16" height="16" fill="currentColor" viewBox="0 0 16 16">
  <path fill-rule="evenodd" d="M2.784 3A.772.772 0 0 0 2 3.76V9.5h12V3.76a.772.772 0 0 0-.784-.76H2.784ZM14 10.5H2v.24c0 .411.342.76.784.76h10.432a.772.772 0 0 0 .784-.76v-.24ZM1 10v.74c0 .981.808 1.76 1.784 1.76H7.5V14H5a.5.5 0 0 0 0 1h6a.5.5 0 0 0 0-1H8.5v-1.5h4.716c.976 0 1.784-.779 1.784-1.76V3.76C15 2.779 14.192 2 13.216 2H2.784C1.808 2 1 2.779 1 3.76V10Zm8.434-5.258a.494.494 0 0 0-.185-.678.506.506 0 0 0-.683.194l-2 3.5a.494.494 0 0 0 .185.679c.24.133.546.046.683-.195l2-3.5ZM5.812 4.61a.5.5 0 0 1 .078.702l-.75.938.75.938a.5.5 0 1 1-.78.624l-1-1.25a.5.5 0 0 1 0-.624l1-1.25a.5.5 0 0 1 .702-.078Zm4.376 0a.5.5 0 0 1 .702.078l1 1.25a.5.5 0 0 1 0 .624l-1 1.25a.5.5 0 0 1-.78-.624l.75-.938-.75-.938a.5.5 0 0 1 .078-.702Z" clip-rule="evenodd"/>
</svg>
