<svg xmlns="http://www.w3.org/2000/svg" width="16" height="16" fill="currentColor" viewBox="0 0 16 16">
  <path fill-rule="evenodd" d="M5.94 6.973c-.516 0-.968.44-.968 1.027s.452 1.028.968 1.028c.274 0 .537-.108.784-.285a.473.473 0 0 1 .551.767c-.352.253-.805.463-1.335.463-1.074 0-1.913-.9-1.913-1.973s.84-1.972 1.913-1.972c.81 0 1.442.487 1.834.895a4.588 4.588 0 0 1 .626.824l.01.017.002.005.001.002v.001s-.17-.422-.585-.194c-.414.227-.242.65-.242.65l-.005-.009a3.23 3.23 0 0 0-.119-.186 3.646 3.646 0 0 0-.37-.455c-.329-.343-.728-.605-1.152-.605Zm1.646 1.255v.001l.002.002.003.005.01.017.033.057c.03.048.07.114.125.192.107.156.265.365.467.576.392.407 1.023.895 1.834.895 1.073 0 1.912-.9 1.912-1.973s-.838-1.972-1.912-1.972c-.576 0-1.098.341-1.394.638a.472.472 0 1 0 .668.668c.204-.203.498-.361.726-.361.516 0 .967.44.967 1.027s-.45 1.028-.967 1.028c-.424 0-.823-.263-1.153-.605a3.646 3.646 0 0 1-.488-.642l-.005-.009s-.172-.422-.586-.194c-.414.227-.242.65-.242.65Z" clip-rule="evenodd"/>
  <path d="M5.802 15a.855.855 0 0 1-.462-.13l-1.694-1.027a.953.953 0 0 1-.331-1.265l.578-1.055a5.924 5.924 0 0 1-.854-1.577l-1.124.014A.927.927 0 0 1 1 9.022V6.973c0-.518.41-.938.915-.938h1.152a5.235 5.235 0 0 1 .831-1.549l-.583-1.069a.953.953 0 0 1 .331-1.264L5.34 1.13a.905.905 0 0 1 1.26.35l.579 1.05c.476-.112 1.129-.103 1.684-.01L9.4 1.476a.905.905 0 0 1 1.26-.35l1.694 1.027a.953.953 0 0 1 .331 1.264l-.578 1.055a5.95 5.95 0 0 1 .854 1.577l1.124-.014c.504 0 .915.42.915.938v2.049c0 .518-.41.938-.915.938h-1.152a5.178 5.178 0 0 1-.831 1.55l.583 1.068a.953.953 0 0 1-.331 1.265l-1.694 1.026a.904.904 0 0 1-1.26-.35l-.579-1.05c-.485.108-1.124.103-1.684.005L6.6 14.519a.904.904 0 0 1-.798.481Zm3.052-2.455a.91.91 0 0 1 .789.476l.578 1.05 1.652-1.031-.583-1.073a.94.94 0 0 1 .08-1.036c.303-.388.54-.826.718-1.307a.911.911 0 0 1 .854-.602h1.153l-.019-2.053h-1.13a.916.916 0 0 1-.853-.602 4.68 4.68 0 0 0-.719-1.307.95.95 0 0 1-.08-1.036l.58-1.055-1.69-1.045-.537 1.05a.9.9 0 0 1-.933.467 4.203 4.203 0 0 0-1.41 0 .9.9 0 0 1-.937-.467l-.579-1.05-1.652 1.031.583 1.074a.94.94 0 0 1-.079 1.036 4.8 4.8 0 0 0-.719 1.306.911.911 0 0 1-.854.602H1.915l.018 2.054h1.13c.378 0 .723.242.854.606.172.481.415.92.718 1.307a.95.95 0 0 1 .08 1.036l-.579 1.055 1.69 1.045.536-1.05a.903.903 0 0 1 .938-.467c.457.08.952.08 1.41 0a.762.762 0 0 1 .144-.014Z"/>
</svg>
