<svg xmlns="http://www.w3.org/2000/svg" width="16" height="16" fill="currentColor" viewBox="0 0 16 16">
  <path fill-rule="evenodd" d="M5.34 14.87a.855.855 0 0 0 .695.097.904.904 0 0 0 .565-.448l.537-1.045c.56.098 1.199.103 1.684-.005l.579 1.05a.904.904 0 0 0 1.26.35l1.694-1.026a.953.953 0 0 0 .331-1.265l-.583-1.069a5.13 5.13 0 0 0 .83-1.549h1.153c.504 0 .915-.42.915-.938V6.973a.927.927 0 0 0-.915-.938l-1.124.014a5.927 5.927 0 0 0-.854-1.577l.578-1.055a.953.953 0 0 0-.331-1.264L10.66 1.126a.905.905 0 0 0-1.26.35l-.537 1.045c-.555-.093-1.208-.102-1.684.01L6.6 1.48a.905.905 0 0 0-1.26-.35L3.646 2.153a.953.953 0 0 0-.331 1.264l.583 1.069c-.36.467-.649.994-.83 1.55H1.914A.927.927 0 0 0 1 6.972v2.049c0 .518.41.938.915.938l1.124-.014a5.95 5.95 0 0 0 .854 1.577l-.578 1.055a.953.953 0 0 0 .331 1.265l1.694 1.026Zm4.303-1.849a.91.91 0 0 0-.789-.476.762.762 0 0 0-.145.014c-.457.08-.952.08-1.409 0a.903.903 0 0 0-.938.467l-.537 1.05-1.689-1.045.579-1.055a.95.95 0 0 0-.08-1.036 4.677 4.677 0 0 1-.718-1.307.914.914 0 0 0-.854-.606h-1.13l-.018-2.054h1.152a.911.911 0 0 0 .854-.602 4.8 4.8 0 0 1 .719-1.306.94.94 0 0 0 .08-1.036l-.584-1.074 1.652-1.031.579 1.05a.9.9 0 0 0 .938.467c.452-.08.952-.08 1.409 0a.9.9 0 0 0 .933-.467l.537-1.05 1.69 1.045-.58 1.055a.95.95 0 0 0 .08 1.036c.303.387.546.826.719 1.307.13.359.476.602.854.602h1.129l.019 2.053h-1.153a.911.911 0 0 0-.854.602 4.78 4.78 0 0 1-.719 1.307.94.94 0 0 0-.079 1.036l.583 1.073-1.652 1.031-.578-1.05ZM4.973 8c0-.587.45-1.027.967-1.027.424 0 .823.262 1.153.605a3.646 3.646 0 0 1 .488.641l.005.009v.001l.002.002.003.005.01.017.033.057c.03.048.071.114.125.192.107.156.265.365.467.576.392.407 1.023.895 1.834.895 1.074 0 1.912-.9 1.912-1.973s-.838-1.973-1.912-1.973c-.576 0-1.098.342-1.394.639a.472.472 0 1 0 .668.668c.204-.203.498-.361.726-.361.516 0 .967.44.967 1.027s-.45 1.027-.967 1.027c-.424 0-.823-.262-1.153-.605a3.646 3.646 0 0 1-.488-.641l-.005-.009V7.77l-.002-.002-.003-.005-.01-.017a2.893 2.893 0 0 0-.044-.075 4.588 4.588 0 0 0-.581-.75c-.392-.407-1.023-.895-1.834-.895-1.074 0-1.912.9-1.912 1.973s.838 1.973 1.912 1.973c.53 0 .983-.21 1.335-.463a.472.472 0 1 0-.55-.767c-.248.177-.51.284-.785.284-.516 0-.967-.44-.967-1.027Z" clip-rule="evenodd"/>
</svg>
