<svg xmlns="http://www.w3.org/2000/svg" width="16" height="16" fill="currentColor" viewBox="0 0 16 16">
  <path fill-rule="evenodd" d="M2.784 3A.772.772 0 0 0 2 3.76V9.5h12V3.76a.772.772 0 0 0-.784-.76H2.784ZM14 10.5H2v.24c0 .411.342.76.784.76h10.432a.772.772 0 0 0 .784-.76v-.24ZM1 10v.74c0 .981.808 1.76 1.784 1.76H7.5V14H5a.5.5 0 0 0 0 1h6a.5.5 0 0 0 0-1H8.5v-1.5h4.716c.976 0 1.784-.779 1.784-1.76V3.76C15 2.779 14.192 2 13.216 2H2.784C1.808 2 1 2.779 1 3.76V10Zm7-5.5a.5.5 0 1 0 0 1 .5.5 0 0 0 0-1ZM6.5 5a1.5 1.5 0 1 1 2.975.274l1.014.618a1.5 1.5 0 1 1-.472.883L8.975 6.14a1.497 1.497 0 0 1-1.996-.041l-1.007.613a1.5 1.5 0 1 1-.508-.861l1.05-.64A1.513 1.513 0 0 1 6.5 5Zm5 1.5a.5.5 0 1 0 0 1 .5.5 0 0 0 0-1ZM4 7a.5.5 0 1 1 1 0 .5.5 0 0 1-1 0Z" clip-rule="evenodd"/>
</svg>
