<svg xmlns="http://www.w3.org/2000/svg" width="16" height="16" fill="currentColor" viewBox="0 0 16 16">
  <path fill-rule="evenodd" d="M8 4.5a.5.5 0 1 0 0 1 .5.5 0 0 0 0-1ZM6.5 5a1.5 1.5 0 1 1 3 0 1.5 1.5 0 0 1-3 0Z" clip-rule="evenodd"/>
  <path fill-rule="evenodd" d="M7.26 5.927 5.483 7.01l-.52-.854L6.74 5.073l.52.854Zm1.48.07 1.777 1.084.52-.854L9.26 5.143l-.52.854Z" clip-rule="evenodd"/>
  <path fill-rule="evenodd" d="M11.5 6.5a.5.5 0 1 0 0 1 .5.5 0 0 0 0-1ZM10 7a1.5 1.5 0 1 1 3 0 1.5 1.5 0 0 1-3 0Zm-5.5-.5a.5.5 0 1 0 0 1 .5.5 0 0 0 0-1ZM3 7a1.5 1.5 0 1 1 3 0 1.5 1.5 0 0 1-3 0Z" clip-rule="evenodd"/>
  <path fill-rule="evenodd" d="M2.784 3A.772.772 0 0 0 2 3.76v6.98c0 .411.342.76.784.76h10.432a.772.772 0 0 0 .784-.76V3.76a.772.772 0 0 0-.784-.76H2.784ZM1 3.76C1 2.779 1.808 2 2.784 2h10.432C14.192 2 15 2.779 15 3.76v6.98c0 .981-.808 1.76-1.784 1.76H2.784C1.808 12.5 1 11.721 1 10.74V3.76Z" clip-rule="evenodd"/>
  <path fill-rule="evenodd" d="M8 11.522a.5.5 0 0 1 .5.5v2.169a.5.5 0 0 1-1 0v-2.17a.5.5 0 0 1 .5-.5Z" clip-rule="evenodd"/>
  <path fill-rule="evenodd" d="M4.5 14.5A.5.5 0 0 1 5 14h6a.5.5 0 0 1 0 1H5a.5.5 0 0 1-.5-.5ZM1 10a.5.5 0 0 1 .5-.5h12.669a.5.5 0 0 1 0 1H1.5A.5.5 0 0 1 1 10Z" clip-rule="evenodd"/>
</svg>
