<svg xmlns="http://www.w3.org/2000/svg" width="16" height="16" fill="currentColor" viewBox="0 0 16 16">
  <g clip-path="url(#a)">
    <path fill-rule="evenodd" d="M8 1.967a6.033 6.033 0 1 0 0 12.066A6.033 6.033 0 0 0 8 1.967ZM.967 8a7.033 7.033 0 1 1 14.066 0A7.033 7.033 0 0 1 .967 8Z" clip-rule="evenodd"/>
    <path fill-rule="evenodd" d="M5.75 5a.75.75 0 1 0 0 1.5.75.75 0 0 0 0-1.5ZM4 5.75a1.75 1.75 0 1 1 3.5 0 1.75 1.75 0 0 1-3.5 0Zm6.25 3.75a.75.75 0 1 0 0 1.5.75.75 0 0 0 0-1.5Zm-1.75.75a1.75 1.75 0 1 1 3.5 0 1.75 1.75 0 0 1-3.5 0Zm2.854-5.604a.5.5 0 0 1 0 .708l-6 6a.5.5 0 0 1-.708-.708l6-6a.5.5 0 0 1 .708 0Z" clip-rule="evenodd"/>
  </g>
  <defs>
    <clipPath id="a">
      <path d="M0 0h16v16H0z"/>
    </clipPath>
  </defs>
</svg>
