<svg xmlns="http://www.w3.org/2000/svg" width="16" height="16" fill="currentColor" viewBox="0 0 16 16">
  <g clip-path="url(#a)">
    <path fill-rule="evenodd" d="M1.967 8a6.033 6.033 0 1 1 12.066 0A6.033 6.033 0 0 1 1.967 8ZM8 .967a7.033 7.033 0 1 0 0 14.066A7.033 7.033 0 0 0 8 .967ZM5 5.75a.75.75 0 1 1 1.5 0 .75.75 0 0 1-1.5 0ZM5.75 4a1.75 1.75 0 1 0 0 3.5 1.75 1.75 0 0 0 0-3.5Zm4.5 5.5a.75.75 0 1 0 0 1.5.75.75 0 0 0 0-1.5Zm-1.75.75a1.75 1.75 0 1 1 3.5 0 1.75 1.75 0 0 1-3.5 0Zm2.854-4.896a.5.5 0 0 0-.708-.708l-6 6a.5.5 0 0 0 .708.708l6-6Z" clip-rule="evenodd"/>
  </g>
  <defs>
    <clipPath id="a">
      <path d="M0 0h16v16H0z"/>
    </clipPath>
  </defs>
</svg>
