<svg xmlns="http://www.w3.org/2000/svg" width="16" height="16" fill="currentColor" viewBox="0 0 16 16">
  <g clip-path="url(#a)">
    <path d="M14 .5A1.5 1.5 0 0 1 15.5 2v12a1.5 1.5 0 0 1-1.5 1.5H2A1.5 1.5 0 0 1 .5 14V2A1.5 1.5 0 0 1 2 .5h12Zm-12 1a.5.5 0 0 0-.5.5v12a.5.5 0 0 0 .5.5h12a.5.5 0 0 0 .5-.5V2a.5.5 0 0 0-.5-.5H2Zm1.655 4.632a1.36 1.36 0 0 1-.14 2.712h-.64V10a.375.375 0 0 1-.75 0V6.864a.74.74 0 0 1 .74-.739h.65l.14.007Zm3 0a1.36 1.36 0 0 1-.14 2.712h-.64V10a.375.375 0 0 1-.75 0V6.864a.74.74 0 0 1 .74-.739h.65l.14.007Zm3.845-.007a.375.375 0 0 1 0 .75h-.625V10a.375.375 0 0 1-.75 0V6.875H8.5a.375.375 0 1 1 0-.75h2Zm.813.049a.376.376 0 0 1 .492.107l.02.032.675 1.18.674-1.18a.376.376 0 0 1 .651.373l-.893 1.564.893 1.564.018.035a.376.376 0 0 1-.648.37l-.021-.032-.674-1.181-.675 1.18a.376.376 0 0 1-.651-.372l.893-1.564-.893-1.564-.017-.035a.375.375 0 0 1 .156-.477Zm-8.438 1.92h.64a.61.61 0 0 0 .063-1.216l-.062-.003h-.641v1.219Zm3 0h.64a.61.61 0 0 0 .063-1.216l-.062-.003h-.641v1.219Z"/>
  </g>
  <defs>
    <clipPath id="a">
      <path d="M0 0h16v16H0z"/>
    </clipPath>
  </defs>
</svg>
