<svg xmlns="http://www.w3.org/2000/svg" width="16" height="16" fill="currentColor" viewBox="0 0 16 16">
  <g clip-path="url(#a)">
    <path d="M9.5.5c.145 0 .274.063.365.161l.005.002 3 3.298.03.035a.5.5 0 0 1 .1.3V7.5h1.5a1 1 0 0 1 1 1v6a1 1 0 0 1-1 1h-13a1 1 0 0 1-1-1v-6a1 1 0 0 1 1-1h1V2.236C2.5 1.272 3.29.5 4.251.5H9.5Zm-8 14h13v-6h-13v6ZM3 9.625a1.875 1.875 0 0 1 0 3.75h-.277a.598.598 0 0 1-.598-.597v-2.555c0-.33.268-.598.598-.598H3Zm3.5 0c.44 0 .794.268 1.02.606.227.341.355.791.355 1.269 0 .478-.128.928-.355 1.269-.226.338-.58.606-1.02.606-.44 0-.793-.268-1.019-.606-.227-.342-.356-.791-.356-1.269 0-.478.13-.927.356-1.269.226-.338.579-.606 1.019-.606Zm3.172 0c.402 0 .782.186 1.067.516l.056.068.022.031a.376.376 0 0 1-.588.46l-.025-.03-.063-.073a.65.65 0 0 0-.47-.222c-.17 0-.366.083-.532.296-.352.45-.352 1.21 0 1.66.166.212.362.294.533.294.17 0 .366-.082.532-.295a.375.375 0 0 1 .59.462c-.29.372-.694.583-1.122.583-.429 0-.833-.21-1.124-.583-.564-.721-.563-1.862 0-2.583.29-.373.695-.584 1.124-.584Zm3.516.167a.374.374 0 0 1 .624.416l-.86 1.292.86 1.292.02.033a.376.376 0 0 1-.621.414l-.023-.031-.688-1.032-.688 1.032a.376.376 0 0 1-.623-.416l.86-1.292-.86-1.292-.02-.033a.374.374 0 0 1 .62-.413l.024.03.687 1.032.688-1.032ZM2.875 12.625H3a1.125 1.125 0 0 0 0-2.25h-.125v2.25Zm3.625-2.25c-.112 0-.258.068-.395.273a1.56 1.56 0 0 0-.23.852c0 .35.096.65.23.852.137.205.283.273.395.273.112 0 .26-.068.396-.273.134-.201.229-.502.229-.852s-.095-.65-.23-.852c-.136-.205-.283-.273-.395-.273ZM4.251 1.5c-.42 0-.75.335-.751.736V7.5H12V5h-1.843C9.49 5 9 4.433 9 3.8V1.5H4.251ZM10 3.8c0 .14.1.2.157.2h1.397L10 2.292v1.509Z"/>
  </g>
  <defs>
    <clipPath id="a">
      <path d="M0 0h16v16H0z"/>
    </clipPath>
  </defs>
</svg>
