<svg xmlns="http://www.w3.org/2000/svg" width="16" height="16" fill="currentColor" viewBox="0 0 16 16">
  <g clip-path="url(#a)">
    <path fill-rule="evenodd" d="M2.501.875c-.894 0-1.626.717-1.626 1.611v9.389a.375.375 0 0 0 .75 0V2.486c0-.472.388-.861.876-.861h4.874v2.426c0 .57.442 1.074 1.032 1.074h1.968v1.766a.375.375 0 0 0 .75 0V4.547a.375.375 0 0 0-.098-.252L8.028.999A.374.374 0 0 0 7.75.875H2.501Zm5.624 1.344v1.832c0 .2.149.324.282.324h1.68L8.124 2.219ZM2.875 8.75c0-.483.392-.875.875-.875h10.5c.483 0 .875.392.875.875v5.5a.875.875 0 0 1-.875.875H3.75a.875.875 0 0 1-.875-.875v-5.5Zm.875-.125a.125.125 0 0 0-.125.125v5.5c0 .069.056.125.125.125h10.5a.125.125 0 0 0 .125-.125v-5.5a.125.125 0 0 0-.125-.125H3.75Zm.75.96a4.69 4.69 0 0 1 .615-.035l-.005.005c.635 0 1.12.165 1.45.485.33.32.495.77.495 1.42 0 .65-.17 1.15-.495 1.485-.325.34-.815.51-1.45.51-.22 0-.425-.01-.615-.035a.5.5 0 0 1-.32-.165.517.517 0 0 1-.13-.34v-2.83c0-.12.04-.23.115-.32l.01-.01a.518.518 0 0 1 .33-.17Zm.62 3.155c.41 0 .71-.1.89-.29.185-.195.28-.525.28-.995 0-.42-.095-.725-.28-.91-.18-.19-.48-.285-.89-.285-.1 0-.19.005-.275.015v2.45c.085.015.175.015.275.015ZM9.1 9.55c-.54 0-.975.18-1.29.53-.305.34-.465.82-.465 1.42s.155 1.08.46 1.425c.315.345.75.525 1.29.525s.97-.175 1.285-.525c.31-.345.47-.825.47-1.425 0-.6-.16-1.08-.465-1.42-.315-.35-.745-.53-1.285-.53Zm.95 1.95c0 .425-.085.74-.255.95-.155.195-.385.29-.695.29-.31 0-.54-.095-.7-.29-.165-.205-.25-.525-.25-.945 0-.42.085-.74.25-.945.16-.195.39-.29.705-.29.315 0 .54.095.695.29.17.205.255.525.255.95l-.005-.01Zm3.58 1.15a.3.3 0 0 1 .18.06h.015c.09.055.14.15.14.255a.431.431 0 0 1-.32.405 3.29 3.29 0 0 1-.74.08c-.53 0-.96-.175-1.28-.52-.32-.345-.48-.83-.48-1.43s.15-1.075.455-1.42c.31-.35.745-.53 1.285-.53.265 0 .51.025.725.075.095.025.175.08.23.155.06.07.09.16.09.255 0 .105-.05.2-.14.26a.325.325 0 0 1-.28.04 2.139 2.139 0 0 0-.59-.075c-.31 0-.545.1-.715.305-.18.21-.27.53-.27.93s.09.715.275.93c.18.21.415.31.72.31.21 0 .405-.02.58-.075h.035l.085-.025v.015Z" clip-rule="evenodd"/>
  </g>
  <defs>
    <clipPath id="a">
      <path d="M0 0h16v16H0z"/>
    </clipPath>
  </defs>
</svg>
