<svg xmlns="http://www.w3.org/2000/svg" width="16" height="16" fill="currentColor" viewBox="0 0 16 16">
  <path d="M9.5.5c.145 0 .274.063.365.161l.005.002 3 3.298.03.035a.5.5 0 0 1 .1.3V7.5h1.5a1 1 0 0 1 1 1v6a1 1 0 0 1-1 1h-13a1 1 0 0 1-1-1v-6a1 1 0 0 1 1-1h1V2.236C2.5 1.272 3.29.5 4.251.5H9.5Zm-8 14h13v-6h-13v6Zm2.688-4.708a.375.375 0 0 1 .625.416L3.95 11.5l.861 1.292.02.033a.376.376 0 0 1-.621.414l-.023-.031-.688-1.032-.688 1.032a.376.376 0 0 1-.624-.416L3.05 11.5l-.862-1.292-.02-.033a.374.374 0 0 1 .621-.413l.023.03.688 1.032.688-1.032ZM5.5 9.625c.207 0 .375.168.375.375v2.625H7.5l.04.002a.375.375 0 0 1 0 .746l-.04.002h-2A.375.375 0 0 1 5.125 13v-3c0-.207.168-.375.375-.375Zm4 0c.337 0 .608.07.826.2.164.096.28.216.367.333l.078.116.018.034a.375.375 0 0 1-.638.387l-.021-.03-.04-.06a.484.484 0 0 0-.146-.135c-.079-.047-.211-.095-.444-.095a.767.767 0 0 0-.487.16c-.107.09-.145.188-.137.277l.004.02c.015.049.077.126.273.201a1.645 1.645 0 0 0 .358.091l.022.003h.006l.016.002a1.678 1.678 0 0 1 .166.026 2.4 2.4 0 0 1 .394.113c.262.1.712.34.756.857l.004.07a1.08 1.08 0 0 1-.408.847 1.492 1.492 0 0 1-.831.328l-.136.005c-.338 0-.61-.07-.827-.198a1.233 1.233 0 0 1-.366-.335l-.078-.115-.018-.035a.375.375 0 0 1 .638-.387l.06.09a.477.477 0 0 0 .147.136c.079.047.212.094.444.094l.075-.003a.745.745 0 0 0 .412-.156c.094-.079.134-.164.137-.244v-.034c-.004-.046-.053-.133-.278-.22a1.647 1.647 0 0 0-.358-.091l-.021-.003-.005-.001H9.46l-.055-.007a2.39 2.39 0 0 1-.522-.133c-.246-.094-.656-.312-.742-.764l-.014-.093c-.032-.377.146-.701.404-.917.257-.214.603-.334.968-.334Zm3.688.167a.374.374 0 0 1 .624.416l-.86 1.292.86 1.292.02.033a.376.376 0 0 1-.621.414l-.023-.031-.688-1.032-.688 1.032a.376.376 0 0 1-.623-.416l.86-1.292-.86-1.292-.02-.033a.374.374 0 0 1 .62-.413l.024.03.687 1.032.688-1.032ZM4.252 1.5c-.42 0-.75.335-.751.736V7.5H12V5h-1.843C9.49 5 9 4.433 9 3.8V1.5H4.251ZM10 3.8c0 .14.1.2.157.2h1.397L10 2.292v1.509Z"/>
</svg>
