<svg xmlns="http://www.w3.org/2000/svg" width="16" height="16" fill="currentColor" viewBox="0 0 16 16">
  <g clip-path="url(#a)">
    <path fill-rule="evenodd" d="M2.501.875c-.894 0-1.626.717-1.626 1.611v9.389a.375.375 0 0 0 .75 0V2.486c0-.472.388-.861.876-.861h4.874v2.426c0 .57.442 1.074 1.032 1.074h1.964l-.012 1.763a.375.375 0 1 0 .75.005l.014-2.108a.36.36 0 0 0 0-.065l.002-.17a.375.375 0 0 0-.098-.255L8.028.999A.374.374 0 0 0 7.75.875H2.501Zm5.624 1.344v1.832c0 .2.149.324.282.324h1.68L8.124 2.219ZM2.391 8.75c0-.483.391-.875.875-.875H14.25c.483 0 .875.392.875.875v5.5a.875.875 0 0 1-.875.875H3.266a.875.875 0 0 1-.875-.875v-5.5Zm.875-.125a.125.125 0 0 0-.125.125v5.5c0 .069.056.125.125.125H14.25a.125.125 0 0 0 .125-.125v-5.5a.125.125 0 0 0-.125-.125H3.266Zm1.657.875c.514 0 .914.109 1.194.322v.005c.295.223.446.55.446.96 0 .44-.15.783-.446 1.016-.28.224-.685.338-1.194.338-.14 0-.285-.005-.43-.016v.976a.382.382 0 0 1-.125.285.426.426 0 0 1-.29.114.388.388 0 0 1-.29-.12h-.006a.41.41 0 0 1-.114-.28v-3.04c0-.13.047-.249.14-.347a.53.53 0 0 1 .332-.171c.275-.026.54-.042.783-.042Zm.628 1.743c.13-.098.192-.239.192-.43h.005c0-.192-.062-.327-.186-.42-.146-.11-.364-.162-.665-.162-.134 0-.27.006-.399.021v1.142c.125.01.26.015.4.015.29 0 .513-.057.653-.166Zm4.464-1.612a.427.427 0 0 0-.566 0 .396.396 0 0 0-.119.286v2.018L7.981 9.797a.555.555 0 0 0-.498-.27.426.426 0 0 0-.29.115.398.398 0 0 0-.13.29v3.15a.37.37 0 0 0 .13.29c.16.135.41.135.555 0a.364.364 0 0 0 .13-.29v-2.019l1.348 2.143c.11.176.28.27.498.27a.426.426 0 0 0 .29-.115.398.398 0 0 0 .13-.29v-3.15a.381.381 0 0 0-.13-.29Zm3.675 1.489c.102.1.158.225.158.365h-.005v1.295a.62.62 0 0 1-.424.595c-.27.085-.571.125-.902.125-.541 0-1-.18-1.352-.55-.357-.375-.52-.865-.52-1.45s.163-1.08.525-1.45c.357-.375.847-.55 1.423-.55.26 0 .505.025.73.075h.005c.102.02.188.08.25.155.005.005.005.01.005.01 0 .005.005.01.005.01a.414.414 0 0 1 .097.265c0 .125-.062.23-.159.3a.406.406 0 0 1-.331.055 2.194 2.194 0 0 0-.577-.075c-.362 0-.622.105-.8.3-.179.19-.286.495-.286.895s.102.69.28.895c.18.195.409.3.725.3.153 0 .29-.025.423-.055v-.875h-.714a.405.405 0 0 1-.29-.115v-.01a.391.391 0 0 1 .005-.545h.005a.39.39 0 0 1 .285-.12h1.066c.148 0 .27.055.373.155Z" clip-rule="evenodd"/>
  </g>
  <defs>
    <clipPath id="a">
      <path d="M0 0h16v16H0z"/>
    </clipPath>
  </defs>
</svg>
