<svg xmlns="http://www.w3.org/2000/svg" width="16" height="16" fill="currentColor" viewBox="0 0 16 16">
  <path d="M4.5 7a.5.5 0 0 1 .5-.5h6a.5.5 0 0 1 0 1H5a.5.5 0 0 1-.5-.5Zm0 2a.5.5 0 0 1 .5-.5h6a.5.5 0 0 1 0 1H5a.5.5 0 0 1-.5-.5Zm.5 1.5a.5.5 0 0 0 0 1h4a.5.5 0 0 0 0-1H5Z"/>
  <path fill-rule="evenodd" d="M2.5 2.87C2.5 1.825 3.362 1 4.401 1H10c.138 0 .263.056.354.147l3.5 3.5c.09.09.146.215.146.353v8.13c0 1.044-.862 1.87-1.901 1.87H4.401c-1.04 0-1.901-.826-1.901-1.87V2.87Zm9.793 1.63L10.5 2.707v1.594a.2.2 0 0 0 .199.199h1.594ZM9.5 2v2.301A1.2 1.2 0 0 0 10.699 5.5H13v7.63c0 .47-.392.87-.901.87H4.401a.885.885 0 0 1-.901-.87V2.87c0-.47.392-.87.9-.87h5.1Z" clip-rule="evenodd"/>
</svg>
