<svg xmlns="http://www.w3.org/2000/svg" width="16" height="16" fill="currentColor" viewBox="0 0 16 16">
  <g clip-path="url(#a)">
    <path fill-rule="evenodd" d="M.875 2.486c0-.894.732-1.611 1.626-1.611H7.75c.11 0 .21.048.278.124l3 3.296a.375.375 0 0 1 .097.252v2.2a.375.375 0 0 1-.75 0V5.125H8.407c-.59 0-1.032-.504-1.032-1.074V1.625H2.501a.868.868 0 0 0-.876.861v9.264a.375.375 0 0 1-.75 0V2.486Zm7.25 1.565V2.219l1.961 2.156H8.407c-.133 0-.282-.124-.282-.324ZM3.25 7.875a.875.875 0 0 0-.875.875v5.5c0 .483.392.875.875.875h11a.875.875 0 0 0 .875-.875v-5.5a.875.875 0 0 0-.875-.875h-11Zm-.125.875c0-.069.056-.125.125-.125h11c.069 0 .125.056.125.125v5.5a.125.125 0 0 1-.125.125h-11a.125.125 0 0 1-.125-.125v-5.5Zm1.3 1.07c-.175 0-.34.01-.485.03a.407.407 0 0 0-.275.155.436.436 0 0 0-.095.285v2.425a.45.45 0 0 0 .105.29c.07.08.16.13.265.145.15.02.31.03.485.03.505 0 .89-.15 1.155-.445.255-.29.385-.72.385-1.275 0-.555-.13-.94-.385-1.22-.26-.28-.645-.42-1.15-.42h-.005Zm.885 1.64c0 .4-.075.69-.215.855-.135.16-.355.235-.67.235-.07 0-.13 0-.19-.01v-2.085c.06-.005.125-.01.19-.01.31 0 .535.08.67.235.145.155.215.42.215.78Zm5.94.845.01.035-.005.015c.05.01.09.025.13.055.09.055.145.16.145.27a.41.41 0 0 1-.31.4c-.195.045-.4.065-.61.065-.445 0-.805-.145-1.08-.44-.27-.29-.405-.695-.405-1.195 0-.5.13-.9.385-1.19.27-.3.635-.45 1.09-.45.22 0 .425.02.6.06.095.025.175.08.23.155.055.07.085.16.085.25 0 .11-.05.21-.145.275a.345.345 0 0 1-.295.045c-.13-.04-.285-.06-.45-.06-.225 0-.39.07-.51.215-.13.16-.195.395-.195.695 0 .3.065.53.2.69.13.145.295.215.515.215.165 0 .315-.02.445-.055l.03-.01.14-.04Zm2.64.405-.695-1.23.675-1.185.015-.015v-.015a.266.266 0 0 0-.005-.255.273.273 0 0 0-.245-.145.466.466 0 0 0-.415.25l-.42.775-.415-.77a.44.44 0 0 0-.18-.19c-.12-.075-.28-.1-.39-.03a.304.304 0 0 0-.1.11.307.307 0 0 0 0 .28l.675 1.195-.705 1.24a.287.287 0 0 0 0 .27v.01c.06.09.145.14.25.14.09 0 .175-.025.245-.065a.45.45 0 0 0 .17-.19l.43-.805.43.805a.492.492 0 0 0 .425.255c.105 0 .195-.05.245-.14a.283.283 0 0 0 0-.29l.01-.005Zm-7.395-2.43c.255-.304.599-.46 1.028-.46.428 0 .772.156 1.022.46.24.295.365.71.365 1.22s-.125.925-.365 1.22c-.25.305-.595.46-1.025.46-.43 0-.775-.155-1.025-.46-.24-.295-.36-.7-.36-1.22s.12-.925.36-1.22Zm1.028-.46h.002-.005.003Zm.002 2.735c.235 0 .4-.08.52-.24v-.005c.135-.18.2-.455.2-.815 0-.36-.065-.635-.195-.81-.12-.16-.285-.24-.52-.24-.235 0-.405.08-.525.24-.13.175-.195.45-.195.815 0 .365.065.64.195.815.115.16.285.24.52.24Z" clip-rule="evenodd"/>
  </g>
  <defs>
    <clipPath id="a">
      <path d="M0 0h16v16H0z"/>
    </clipPath>
  </defs>
</svg>
