<svg xmlns="http://www.w3.org/2000/svg" width="16" height="16" fill="currentColor" viewBox="0 0 16 16">
  <g clip-path="url(#a)">
    <path d="M14 .5A1.5 1.5 0 0 1 15.5 2v12a1.5 1.5 0 0 1-1.5 1.5H2A1.5 1.5 0 0 1 .5 14V2A1.5 1.5 0 0 1 2 .5h12Zm-12 1a.5.5 0 0 0-.5.5v12a.5.5 0 0 0 .5.5h12a.5.5 0 0 0 .5-.5V2a.5.5 0 0 0-.5-.5H2Zm1 4.625a1.875 1.875 0 0 1 0 3.75h-.277a.598.598 0 0 1-.598-.597V6.723c0-.33.268-.598.598-.598H3Zm3.5 0c.44 0 .794.268 1.02.606.227.342.355.791.355 1.269 0 .478-.128.927-.355 1.269-.226.338-.58.606-1.02.606-.44 0-.793-.268-1.019-.606-.227-.342-.356-.791-.356-1.269 0-.478.13-.927.356-1.269.226-.338.579-.606 1.019-.606Zm3.172 0c.402 0 .782.186 1.067.516l.056.068.022.031a.376.376 0 0 1-.588.46l-.025-.03-.063-.073a.651.651 0 0 0-.47-.222c-.17 0-.366.083-.532.296-.352.45-.352 1.21 0 1.66.166.212.362.294.533.294.17 0 .366-.082.532-.295a.375.375 0 0 1 .59.462c-.29.372-.694.583-1.122.583-.429 0-.833-.21-1.124-.583-.564-.721-.563-1.862 0-2.583.29-.373.695-.584 1.124-.584Zm3.516.167a.374.374 0 0 1 .624.416L12.953 8l.86 1.292.02.033a.376.376 0 0 1-.621.414l-.023-.031-.688-1.032-.688 1.032a.376.376 0 0 1-.623-.416L12.048 8l-.86-1.292-.02-.033a.374.374 0 0 1 .62-.413l.024.03.687 1.032.688-1.032ZM2.875 9.125H3a1.125 1.125 0 0 0 0-2.25h-.125v2.25ZM6.5 6.875c-.112 0-.258.068-.395.272a1.56 1.56 0 0 0-.23.853c0 .35.096.65.23.853.137.204.283.272.395.272.112 0 .26-.068.396-.272.134-.202.229-.503.229-.853s-.095-.65-.23-.853c-.136-.204-.283-.272-.395-.272Z"/>
  </g>
  <defs>
    <clipPath id="a">
      <path d="M0 0h16v16H0z"/>
    </clipPath>
  </defs>
</svg>
