<svg xmlns="http://www.w3.org/2000/svg" width="16" height="16" fill="currentColor" viewBox="0 0 16 16">
  <path fill-rule="evenodd" d="M1.5 2.87C1.5 1.825 2.362 1 3.401 1H9l.35.142v.001l3.5 3.42.068.162c.033.05.057.108.07.169L13 4.92V6.5a.5.5 0 0 1-1 0v-1H9.699A1.2 1.2 0 0 1 8.5 4.301V2H3.4c-.508 0-.9.4-.9.87v10.26c0 .47.392.87.9.87h3.1a.5.5 0 0 1 0 1H3.401c-1.04 0-1.901-.826-1.901-1.87V2.87Zm8 1.431V2.688L11.354 4.5H9.7a.2.2 0 0 1-.199-.199ZM8.298 14.705c.19.19.445.295.71.295v-.005c.085 0 .165-.01.25-.03l1.215-.305a.484.484 0 0 0 .23-.13l3.832-3.83a1.58 1.58 0 0 0 0-2.239 1.592 1.592 0 0 0-2.241 0l-3.831 3.84c-.06.06-.11.14-.13.23l-.306 1.214h.005a.99.99 0 0 0 .266.96Zm.7-.715v-.005l.27-1.08 3.736-3.734a.58.58 0 0 1 .826 0c.225.23.225.6 0 .825l-3.732 3.73-1.1.264Z" clip-rule="evenodd"/>
</svg>
