<svg xmlns="http://www.w3.org/2000/svg" width="16" height="16" fill="currentColor" viewBox="0 0 16 16">
  <g clip-path="url(#a)">
    <path d="M14 .5A1.5 1.5 0 0 1 15.5 2v12a1.5 1.5 0 0 1-1.5 1.5H2A1.5 1.5 0 0 1 .5 14V2A1.5 1.5 0 0 1 2 .5h12Zm-12 1a.5.5 0 0 0-.5.5v12a.5.5 0 0 0 .5.5h12a.5.5 0 0 0 .5-.5V2a.5.5 0 0 0-.5-.5H2Zm2.188 4.792a.375.375 0 0 1 .625.416L3.95 8l.861 1.292.02.033a.376.376 0 0 1-.621.414l-.023-.031L3.5 8.676l-.688 1.032a.376.376 0 0 1-.624-.416L3.05 8l-.862-1.292-.02-.033a.374.374 0 0 1 .621-.413l.023.03.688 1.032.688-1.032ZM5.5 6.125c.207 0 .375.168.375.375v2.625H7.5l.04.002a.375.375 0 0 1 0 .746l-.04.002h-2a.375.375 0 0 1-.375-.375v-3c0-.207.168-.375.375-.375Zm4 0c.337 0 .608.07.826.2.164.096.28.216.367.333l.078.116.018.034a.375.375 0 0 1-.638.387l-.021-.03-.04-.06a.483.483 0 0 0-.146-.135c-.079-.047-.211-.095-.444-.095a.768.768 0 0 0-.487.16c-.107.09-.145.188-.137.277l.004.02c.015.049.077.126.273.201a1.645 1.645 0 0 0 .38.094h.006l.016.002a1.717 1.717 0 0 1 .166.026 2.4 2.4 0 0 1 .394.113c.262.1.712.34.756.857l.004.07a1.08 1.08 0 0 1-.408.847 1.492 1.492 0 0 1-.831.328l-.136.005c-.338 0-.61-.07-.827-.198a1.232 1.232 0 0 1-.366-.335l-.078-.115-.018-.035a.375.375 0 0 1 .638-.387l.06.09a.477.477 0 0 0 .147.136c.079.047.212.094.444.094l.075-.003a.745.745 0 0 0 .412-.156c.094-.078.134-.164.137-.244v-.034c-.004-.046-.053-.133-.278-.22a1.652 1.652 0 0 0-.358-.091l-.021-.003-.005-.001H9.46l-.055-.007a2.437 2.437 0 0 1-.522-.133c-.246-.094-.656-.312-.742-.764l-.014-.093c-.032-.377.146-.701.404-.917.257-.214.603-.334.968-.334Zm3.688.167a.374.374 0 0 1 .624.416L12.953 8l.86 1.292.02.033a.376.376 0 0 1-.621.414l-.023-.031-.688-1.032-.688 1.032a.376.376 0 0 1-.623-.416L12.048 8l-.86-1.292-.02-.033a.374.374 0 0 1 .62-.413l.024.03.687 1.032.688-1.032Z"/>
  </g>
  <defs>
    <clipPath id="a">
      <path d="M0 0h16v16H0z"/>
    </clipPath>
  </defs>
</svg>
