<svg xmlns="http://www.w3.org/2000/svg" width="16" height="16" fill="currentColor" viewBox="0 0 16 16">
  <path fill-rule="evenodd" d="M4.4 1c-1.038 0-1.9.826-1.9 1.87v10.26c0 1.044.862 1.87 1.901 1.87h7.698c1.04 0 1.901-.826 1.901-1.87V4.92l-.011-.026a.499.499 0 0 0-.071-.169l-.068-.162-3.5-3.42A.499.499 0 0 0 10 1H4.4Zm5.1 1H4.4c-.508 0-.9.4-.9.87v10.26c0 .47.392.87.9.87h7.7c.509 0 .901-.4.901-.87V5.5H10.7a1.2 1.2 0 0 1-1.2-1.199V2Zm2.854 2.5L10.5 2.688V4.3a.2.2 0 0 0 .199.199h1.655Z" clip-rule="evenodd"/>
</svg>
