<svg xmlns="http://www.w3.org/2000/svg" width="16" height="16" fill="currentColor" viewBox="0 0 16 16">
  <g clip-path="url(#a)">
    <path d="M14 .5A1.5 1.5 0 0 1 15.5 2v12a1.5 1.5 0 0 1-1.5 1.5H2A1.5 1.5 0 0 1 .5 14V2A1.5 1.5 0 0 1 2 .5h12Zm-12 1a.5.5 0 0 0-.5.5v12a.5.5 0 0 0 .5.5h12a.5.5 0 0 0 .5-.5V2a.5.5 0 0 0-.5-.5H2Zm1.875 4a1.625 1.625 0 0 1 0 3.25H3V10a.5.5 0 0 1-1 0V6.455c0-.527.428-.955.955-.955h.92ZM9 5.5a.5.5 0 0 1 .5.5v4l-.007.082a.5.5 0 0 1-.917.184L7 7.743V10a.5.5 0 0 1-1 0V6l.007-.082a.5.5 0 0 1 .917-.183L8.5 8.257V6a.5.5 0 0 1 .5-.5Zm3.006 0c.53 0 1.024.254 1.392.694l.072.091.028.043a.5.5 0 0 1-.795.598l-.033-.04-.081-.098c-.193-.21-.404-.288-.583-.288-.206 0-.451.103-.665.387-.218.29-.341.69-.341 1.113 0 .423.123.825.34 1.114.215.284.46.386.666.386.205 0 .45-.102.664-.386a1.68 1.68 0 0 0 .28-.614h-.944a.5.5 0 1 1 0-1h1.316c.472 0 .679.423.678.735l-.003.062a2.8 2.8 0 0 1-.527 1.418c-.374.496-.9.785-1.464.785-.565 0-1.09-.289-1.464-.785C10.172 9.223 10 8.6 10 8s.172-1.223.542-1.715c.374-.496.899-.785 1.464-.785ZM3 7.75h.875a.625.625 0 1 0 0-1.25H3v1.25Z"/>
  </g>
  <defs>
    <clipPath id="a">
      <path d="M0 0h16v16H0z"/>
    </clipPath>
  </defs>
</svg>
