<svg xmlns="http://www.w3.org/2000/svg" width="16" height="16" fill="currentColor" viewBox="0 0 16 16">
  <path fill-rule="evenodd" d="M2 2.87C2 1.825 2.862 1 3.901 1H9.5l.35.142 3.5 3.421.15.358V8a.5.5 0 0 1-1 0V5.131L9.296 2H3.901C3.392 2 3 2.4 3 2.87v10.26c0 .47.392.87.9.87h3.6a.5.5 0 0 1 0 1H3.901C2.861 15 2 14.174 2 13.13V2.87Z" clip-rule="evenodd"/>
  <path fill-rule="evenodd" d="M9.5 1a.5.5 0 0 1 .5.5v2.801a.2.2 0 0 0 .199.199H13a.5.5 0 0 1 0 1h-2.801A1.2 1.2 0 0 1 9 4.301V1.5a.5.5 0 0 1 .5-.5Zm5.307 8.605a.5.5 0 0 1 .088.702l-3.5 4.5a.5.5 0 0 1-.789 0l-1.5-1.93a.5.5 0 1 1 .789-.614L11 13.685l3.104-3.992a.5.5 0 0 1 .702-.088Z" clip-rule="evenodd"/>
</svg>
