<svg xmlns="http://www.w3.org/2000/svg" width="16" height="16" fill="currentColor" viewBox="0 0 16 16">
  <path fill-rule="evenodd" d="M3.401 1C2.361 1 1.5 1.826 1.5 2.87v10.26c0 1.044.862 1.87 1.901 1.87H8a.5.5 0 0 0 0-1H3.4c-.508 0-.9-.4-.9-.87V2.87c0-.47.392-.87.9-.87h5.1v2.301A1.2 1.2 0 0 0 9.699 5.5H12v.75a.5.5 0 0 0 1 0V4.92l-.011-.026a.499.499 0 0 0-.071-.169l-.068-.162-3.5-3.42A.498.498 0 0 0 9 1H3.4ZM9.5 2.688V4.3a.2.2 0 0 0 .199.199h1.655L9.5 2.688Z" clip-rule="evenodd"/>
  <path fill-rule="evenodd" d="M12 9c-.513 0-1 .467-1 1.129v.396c.957-.05 2.036-.026 2.881.072l.01.002c.365.05.609.363.609.704v2.894a.71.71 0 0 1-.618.706c-1.116.13-2.644.13-3.763 0l-.01-.002a.706.706 0 0 1-.609-.704v-2.894c0-.32.213-.6.514-.685A.503.503 0 0 1 10 10.5v-.371C10 8.994 10.86 8 12 8a1.93 1.93 0 0 1 1.426.638l.003.003a2.2 2.2 0 0 1 .42.677.5.5 0 0 1-.932.364 1.201 1.201 0 0 0-.227-.368A.931.931 0 0 0 12 9Zm-1.5 4.937v-2.374a17.815 17.815 0 0 1 3 0v2.374c-.919.084-2.078.084-3 0Z" clip-rule="evenodd"/>
</svg>
