<svg xmlns="http://www.w3.org/2000/svg" width="16" height="16" fill="currentColor" viewBox="0 0 16 16">
  <path fill-rule="evenodd" d="M3.901 1C2.861 1 2 1.826 2 2.87v10.26C2 14.175 2.862 15 3.901 15H8.5a.5.5 0 0 0 0-1H3.9c-.508 0-.9-.4-.9-.87V2.87c0-.47.392-.87.9-.87H9v2.301A1.2 1.2 0 0 0 10.199 5.5H12.5v.75a.5.5 0 0 0 1 0V4.92l-.011-.026a.499.499 0 0 0-.071-.169l-.068-.162-3.5-3.42A.498.498 0 0 0 9.5 1H3.9ZM10 2.688V4.3a.2.2 0 0 0 .199.199h1.655L10 2.688Z" clip-rule="evenodd"/>
  <path fill-rule="evenodd" d="M14.486 10.618a.505.505 0 0 0 .014-.118v-.371c0-.582-.222-1.103-.57-1.488l-.004-.003A1.93 1.93 0 0 0 12.5 8c-1.14 0-2 .994-2 2.129v.371c0 .04.005.08.014.118a.712.712 0 0 0-.514.685v2.894c0 .341.244.655.609.704l.01.002a18.215 18.215 0 0 0 3.775-.002.71.71 0 0 0 .606-.704v-2.894a.709.709 0 0 0-.514-.685ZM12.5 9c-.513 0-1 .467-1 1.129v.396a19.673 19.673 0 0 1 2 0v-.396c0-.322-.121-.606-.31-.815A.931.931 0 0 0 12.5 9ZM11 13.937v-2.374a17.815 17.815 0 0 1 3 0v2.374c-.919.084-2.078.084-3 0Z" clip-rule="evenodd"/>
</svg>
