<svg xmlns="http://www.w3.org/2000/svg" width="16" height="16" fill="currentColor" viewBox="0 0 16 16">
  <g clip-path="url(#a)">
    <path d="M14 .5A1.5 1.5 0 0 1 15.5 2v12a1.5 1.5 0 0 1-1.5 1.5H2A1.5 1.5 0 0 1 .5 14V2A1.5 1.5 0 0 1 2 .5h12Zm-12 1a.5.5 0 0 0-.5.5v12a.5.5 0 0 0 .5.5h12a.5.5 0 0 0 .5-.5V2a.5.5 0 0 0-.5-.5H2Zm2.375 4a1.625 1.625 0 0 1 0 3.25H3.5V10a.5.5 0 0 1-1 0V6.455c0-.527.428-.955.955-.955h.92Zm3.254.004A2.5 2.5 0 0 1 7.5 10.5h-.222a.778.778 0 0 1-.778-.777V6.278c0-.43.349-.778.778-.778H7.5l.129.004Zm5.923-.001a.5.5 0 0 1 0 .995L13.5 6.5h-2v1h1.584l.05.003a.5.5 0 0 1 0 .995l-.05.002H11.5V10a.5.5 0 0 1-1 0V6l.003-.05A.5.5 0 0 1 11 5.5h2.5l.052.003ZM7.5 9.5a1.5 1.5 0 1 0 0-3v3Zm-4-1.75h.875a.625.625 0 1 0 0-1.25H3.5v1.25Z"/>
  </g>
  <defs>
    <clipPath id="a">
      <path d="M0 0h16v16H0z"/>
    </clipPath>
  </defs>
</svg>
