<svg xmlns="http://www.w3.org/2000/svg" width="16" height="16" fill="currentColor" viewBox="0 0 16 16">
  <g clip-path="url(#a)">
    <path fill-rule="evenodd" d="M.875 2.486c0-.894.732-1.611 1.626-1.611H7.75c.11 0 .21.048.278.124l3 3.296a.375.375 0 0 1 .097.252V6.39a.375.375 0 0 1-.75 0V5.126H8.407c-.59 0-1.032-.504-1.032-1.074V1.625H2.501a.868.868 0 0 0-.876.861v9.389a.375.375 0 0 1-.75 0V2.486Zm7.25-.267v1.832c0 .2.149.324.282.324h1.68L8.124 2.219ZM2.375 8.75c0-.483.392-.875.875-.875h11c.483 0 .875.392.875.875v5.5a.875.875 0 0 1-.875.875h-11a.875.875 0 0 1-.875-.875v-5.5Zm.875-.125a.125.125 0 0 0-.125.125v5.5c0 .069.056.125.125.125h11a.125.125 0 0 0 .125-.125v-5.5a.125.125 0 0 0-.125-.125h-11Zm2.312 1.455c-.23-.185-.555-.28-.975-.28-.195 0-.405.01-.63.035a.462.462 0 0 0-.405.46v2.545c0 .095.035.18.1.25h.005c.07.075.16.11.26.11s.19-.04.255-.11a.36.36 0 0 0 .11-.255v-.79c.105.005.21.01.305.01.415 0 .745-.095.975-.29.24-.2.365-.495.365-.865 0-.35-.125-.63-.365-.82Zm-.5 1.185c-.105.085-.275.13-.495.13-.1 0-.195 0-.28-.01v-.91c.095-.01.19-.015.28-.015.23 0 .395.04.505.13.095.07.135.18.135.335 0 .155-.045.265-.145.34ZM7.267 9.8c.42 0 .745.095.975.28.24.19.365.47.365.82 0 .37-.125.665-.365.865-.23.195-.56.29-.975.29-.095 0-.2-.005-.305-.01v.79a.36.36 0 0 1-.11.255.344.344 0 0 1-.255.11c-.1 0-.19-.035-.26-.11h-.005a.36.36 0 0 1-.1-.25v-2.545a.462.462 0 0 1 .405-.46c.225-.025.435-.035.63-.035Zm-.025 1.595c.22 0 .39-.045.495-.13.1-.075.145-.185.145-.34 0-.155-.04-.265-.135-.335-.105-.09-.275-.13-.505-.13-.09 0-.185.005-.28.015v.91c.085.01.18.01.28.01Zm6.66 1.308-.74-1.23.715-1.18.01-.02.01-.02c.02-.04.03-.085.03-.13a.265.265 0 0 0-.045-.15.304.304 0 0 0-.11-.116.325.325 0 0 0-.155-.04c-.19 0-.35.09-.45.26l-.45.786-.445-.775a.444.444 0 0 0-.2-.195c-.13-.075-.295-.1-.42-.03a.272.272 0 0 0-.11.114c-.05.095-.05.2 0 .31l.725 1.195-.75 1.245a.319.319 0 0 0 0 .3v.01c.115.175.37.175.535.08a.549.549 0 0 0 .16-.145l.495-.864.465.81c.05.08.115.145.195.195.085.045.17.07.265.07.11 0 .21-.056.27-.146.03-.05.05-.11.045-.165a.3.3 0 0 0-.05-.155l.005-.014Zm-4.82-2.88h1.84v-.005c.09 0 .175.034.24.1a.337.337 0 0 1 0 .48.337.337 0 0 1-.24.1h-.555v2.32a.355.355 0 0 1-.105.255.363.363 0 0 1-.52 0h-.005a.36.36 0 0 1-.1-.25v-2.32h-.555a.337.337 0 0 1-.24-.1.337.337 0 0 1 0-.48c.065-.066.15-.1.24-.1Z" clip-rule="evenodd"/>
  </g>
  <defs>
    <clipPath id="a">
      <path d="M0 0h16v16H0z"/>
    </clipPath>
  </defs>
</svg>
