<svg xmlns="http://www.w3.org/2000/svg" width="16" height="16" fill="currentColor" viewBox="0 0 16 16">
  <path fill-rule="evenodd" d="M3.401 1C2.361 1 1.5 1.826 1.5 2.87v10.26c0 1.044.862 1.87 1.901 1.87H7a.5.5 0 0 0 0-1H3.401a.885.885 0 0 1-.901-.87V2.87c0-.47.392-.87.9-.87h5.1v2.301A1.2 1.2 0 0 0 9.699 5.5H12v1a.5.5 0 0 0 1 0V4.92l-.011-.026a.499.499 0 0 0-.071-.169l-.068-.162-3.5-3.42L9 1H3.4ZM9.5 2.688V4.3a.2.2 0 0 0 .199.199h1.655L9.5 2.688Zm.703 7.074a2.5 2.5 0 0 0 3.04 3.908l-3.04-3.908Zm3.792 3.245L11.03 9.195a2.5 2.5 0 0 1 2.965 3.812ZM12 8a3.5 3.5 0 1 0 0 7 3.5 3.5 0 0 0 0-7Z" clip-rule="evenodd"/>
</svg>
