<svg xmlns="http://www.w3.org/2000/svg" width="16" height="16" fill="currentColor" viewBox="0 0 16 16">
  <g clip-path="url(#a)">
    <path d="M9.5.5c.145 0 .274.063.365.161l.005.002 3 3.298.03.035a.5.5 0 0 1 .1.3V7.5h1.5a1 1 0 0 1 1 1v6a1 1 0 0 1-1 1h-13a1 1 0 0 1-1-1v-6a1 1 0 0 1 1-1h1V2.236C2.5 1.272 3.29.5 4.251.5H9.5Zm-8 14h13v-6h-13v6ZM4.375 9a1.625 1.625 0 0 1 0 3.25H3.5v1.25a.5.5 0 0 1-1 0V9.955c0-.527.428-.955.955-.955h.92Zm3.254.004A2.5 2.5 0 0 1 7.5 14h-.222a.778.778 0 0 1-.778-.777V9.778c0-.43.349-.778.778-.778H7.5l.129.004Zm5.923-.001a.5.5 0 0 1 0 .995L13.5 10h-2v1h1.584l.05.003a.5.5 0 0 1 0 .995l-.05.002H11.5v1.5a.5.5 0 0 1-1 0v-4l.003-.05A.5.5 0 0 1 11 9h2.5l.052.003ZM7.5 13a1.5 1.5 0 0 0 0-3v3Zm-4-1.75h.875a.625.625 0 1 0 0-1.25H3.5v1.25Zm.751-9.75c-.42 0-.75.335-.751.736V7.5H12V5h-1.843C9.49 5 9 4.433 9 3.8V1.5H4.251ZM10 3.8c0 .14.1.2.157.2h1.397L10 2.292v1.509Z"/>
  </g>
  <defs>
    <clipPath id="a">
      <path d="M0 0h16v16H0z"/>
    </clipPath>
  </defs>
</svg>
