<svg xmlns="http://www.w3.org/2000/svg" width="16" height="16" fill="currentColor" viewBox="0 0 16 16">
  <path fill-rule="evenodd" d="M4.5 7a.5.5 0 0 1 .5-.5h6a.5.5 0 0 1 0 1H5a.5.5 0 0 1-.5-.5Zm0 2a.5.5 0 0 1 .5-.5h6a.5.5 0 0 1 0 1H5a.5.5 0 0 1-.5-.5Zm0 2a.5.5 0 0 1 .5-.5h4a.5.5 0 0 1 0 1H5a.5.5 0 0 1-.5-.5Z" clip-rule="evenodd"/>
  <path fill-rule="evenodd" d="M2.5 2.87C2.5 1.825 3.362 1 4.401 1H10l.354.146 3.5 3.5L14 5v8.13c0 1.044-.862 1.87-1.901 1.87H4.401c-1.04 0-1.901-.826-1.901-1.87V2.87ZM4.401 2c-.509 0-.901.4-.901.87v10.26c0 .47.392.87.9.87h7.7c.509 0 .901-.4.901-.87V5.208L9.793 2H4.4Z" clip-rule="evenodd"/>
  <path fill-rule="evenodd" d="M10 1a.5.5 0 0 1 .5.5v2.801a.2.2 0 0 0 .199.199H13.5a.5.5 0 0 1 0 1h-2.801A1.2 1.2 0 0 1 9.5 4.301V1.5A.5.5 0 0 1 10 1Z" clip-rule="evenodd"/>
</svg>
