<svg xmlns="http://www.w3.org/2000/svg" width="16" height="16" fill="currentColor" viewBox="0 0 16 16">
  <path d="M9.749.51a.498.498 0 0 1 .265.152l.004.001 3 3.298.03.035a.5.5 0 0 1 .1.3V7.5h1.5a1 1 0 0 1 1 1v6a1 1 0 0 1-1 1h-13a1 1 0 0 1-1-1v-6a1 1 0 0 1 1-1h1V2.236C2.648 1.272 3.438.5 4.4.5h5.25l.1.01Zm-8.1 13.99h13v-6h-13v6Zm3.576-5.265a.5.5 0 1 1 .847.53L4.987 11.5l1.085 1.734.025.045a.5.5 0 0 1-.843.528l-.03-.042-.826-1.323-.826 1.323a.5.5 0 0 1-.847-.53L3.809 11.5 2.725 9.766l-.026-.045a.5.5 0 0 1 .844-.528l.03.042.825 1.322.827-1.322ZM7.148 9a.5.5 0 0 1 .5.5V13h2a.5.5 0 0 1 0 1h-2.5a.5.5 0 0 1-.5-.5v-4a.5.5 0 0 1 .5-.5Zm4.75 0c.432 0 .781.096 1.061.272.278.176.448.407.562.606a.5.5 0 0 1-.87.495.682.682 0 0 0-.225-.255c-.091-.057-.247-.118-.528-.118-.521 0-.768.346-.749.586l.006.03c.02.074.1.17.332.266a1.91 1.91 0 0 0 .434.117l.026.004h.012l.015.003a1.989 1.989 0 0 1 .213.036c.131.027.313.075.503.152.342.141.9.468.954 1.142l.004.093c.017.922-.818 1.53-1.665 1.569l-.085.002c-.431 0-.781-.096-1.061-.273a1.673 1.673 0 0 1-.56-.604l-.024-.046a.5.5 0 0 1 .892-.45l.05.08a.61.61 0 0 0 .176.175c.091.057.247.118.527.118l.095-.004c.426-.036.642-.315.655-.535l-.002-.046c-.006-.076-.071-.187-.336-.296a1.92 1.92 0 0 0-.328-.098c-.045-.01-.082-.015-.107-.019a1.656 1.656 0 0 0-.026-.004h-.006l-.005-.002h-.016a2.013 2.013 0 0 1-.213-.038 2.89 2.89 0 0 1-.502-.151c-.321-.132-.832-.428-.939-1.02l-.016-.122C10.072 9.66 10.995 9 11.898 9ZM4.4 1.5c-.42 0-.75.335-.75.736V7.5h8.5V5h-1.843c-.667 0-1.158-.567-1.158-1.2V1.5H4.4Zm5.75 2.3c0 .14.099.2.157.2h1.396l-1.554-1.708v1.509Z"/>
</svg>
