<svg xmlns="http://www.w3.org/2000/svg" width="16" height="16" fill="currentColor" viewBox="0 0 16 16">
  <g clip-path="url(#a)">
    <path fill-rule="evenodd" d="M2.501.875c-.894 0-1.626.717-1.626 1.611v9.389a.375.375 0 0 0 .75 0V2.486c0-.472.388-.861.876-.861h4.874v2.426c0 .57.442 1.074 1.032 1.074h1.968v1.266a.375.375 0 0 0 .75 0V4.547a.375.375 0 0 0-.098-.252L8.028.999A.374.374 0 0 0 7.75.875H2.501Zm5.624 1.344v1.832c0 .2.149.324.282.324h1.68L8.124 2.219ZM2.375 8.75c0-.483.392-.875.875-.875h11c.483 0 .875.392.875.875v5.5a.875.875 0 0 1-.875.875h-11a.875.875 0 0 1-.875-.875v-5.5Zm.875-.125a.125.125 0 0 0-.125.125v5.5c0 .069.056.125.125.125h11a.125.125 0 0 0 .125-.125v-5.5a.125.125 0 0 0-.125-.125h-11Zm1.84.927c.525 0 .935.105 1.22.31v-.01c.31.22.465.535.465.94 0 .435-.155.765-.46.995-.29.215-.7.325-1.225.325-.15 0-.305-.005-.46-.014v.96a.37.37 0 0 1-.13.28.414.414 0 0 1-.285.11.431.431 0 0 1-.29-.106.373.373 0 0 1-.125-.28v-2.97c0-.13.05-.245.145-.34a.557.557 0 0 1 .335-.16 9.33 9.33 0 0 1 .81-.04Zm-.03 1.866c.305 0 .54-.055.69-.17l.005.005c.135-.095.2-.226.2-.415 0-.19-.065-.32-.195-.41-.15-.11-.385-.166-.7-.166-.14 0-.285.005-.425.02v1.12c.13.01.27.016.425.016Zm8.52-1.748a.38.38 0 0 0-.26-.095h-2.39c-.1 0-.19.035-.26.095a.34.34 0 0 0-.12.265c0 .105.04.195.12.265.07.065.16.1.26.1h.78v2.74c0 .105.04.2.125.28.08.07.18.105.29.105.11 0 .21-.04.285-.11a.37.37 0 0 0 .13-.28v-2.74h.78c.1 0 .19-.035.26-.1a.34.34 0 0 0 .12-.265.356.356 0 0 0-.12-.265v.005Zm-5.03-.118c.525 0 .935.105 1.22.31v-.01c.31.22.465.535.465.94 0 .435-.155.765-.46.995-.29.215-.7.325-1.225.325-.15 0-.305-.005-.46-.014v.96a.37.37 0 0 1-.13.28.414.414 0 0 1-.285.11.431.431 0 0 1-.29-.106.373.373 0 0 1-.125-.28v-2.97c0-.13.05-.245.145-.34.09-.09.2-.145.335-.16a9.33 9.33 0 0 1 .81-.04Zm.662 1.704-.002-.004c-.15.11-.38.165-.69.165-.155 0-.3-.005-.425-.014v-1.12c.14-.015.285-.02.425-.02.315 0 .55.055.7.165.13.09.19.22.19.41a.479.479 0 0 1-.198.418Z" clip-rule="evenodd"/>
  </g>
  <defs>
    <clipPath id="a">
      <path d="M0 0h16v16H0z"/>
    </clipPath>
  </defs>
</svg>
