<svg xmlns="http://www.w3.org/2000/svg" width="16" height="16" fill="currentColor" viewBox="0 0 16 16">
  <g clip-path="url(#a)">
    <path fill-rule="evenodd" d="M2.5.875c-.893 0-1.625.717-1.625 1.611v9.389a.375.375 0 1 0 .75 0V2.486c0-.472.387-.861.875-.861h4.871v2.426c0 .57.442 1.074 1.032 1.074h1.967v1.734a.375.375 0 1 0 .75 0V4.547a.375.375 0 0 0-.098-.252L8.024.999a.374.374 0 0 0-.278-.124H2.5Zm5.621 1.344v1.832c0 .2.149.324.282.324h1.678l-1.96-2.156ZM2.881 8.75c0-.483.392-.875.875-.875h10.495c.482 0 .874.392.874.875v5.5a.875.875 0 0 1-.874.875H3.756a.875.875 0 0 1-.874-.875v-5.5Zm.875-.125a.125.125 0 0 0-.125.125v5.5c0 .069.056.125.125.125h10.495a.125.125 0 0 0 .124-.125v-5.5a.125.125 0 0 0-.124-.125H3.756Zm2.208 1.334c0-.105.045-.205.125-.28l-.01.005c.16-.15.414-.15.57 0 .08.07.124.17.124.28v2.1c0 .46-.115.805-.35 1.03-.23.22-.58.335-1.034.335-.25 0-.505-.03-.755-.095H4.63a.487.487 0 0 1-.23-.15.444.444 0 0 1-.094-.27c0-.11.054-.205.144-.265a.32.32 0 0 1 .3-.04c.205.065.425.1.645.1.205 0 .345-.05.43-.15.065-.075.14-.24.14-.6v-2Zm3.683-.076c-.27-.205-.655-.31-1.155-.31-.24 0-.495.015-.76.04a.511.511 0 0 0-.324.165.477.477 0 0 0-.135.335v2.93c0 .08.025.155.07.215v.01l.05.05a.41.41 0 0 0 .56 0c.08-.075.12-.17.12-.275v-.94c.144.01.284.014.414.014.495 0 .885-.11 1.155-.325.284-.224.43-.554.43-.98 0-.394-.146-.71-.435-.924l.01-.005Zm-.545 1.365c-.135.11-.35.16-.635.16a4.5 4.5 0 0 1-.385-.015v-1.096c.13-.014.26-.02.385-.02.29 0 .505.05.645.155.12.09.18.22.18.405a.49.49 0 0 1-.185.415l-.005-.005Zm4.442-.128c.102.1.158.225.158.365h-.005v1.295a.62.62 0 0 1-.423.595 3 3 0 0 1-.902.125c-.54 0-1-.18-1.351-.55-.357-.375-.52-.865-.52-1.45s.163-1.08.525-1.45c.357-.375.846-.55 1.422-.55.26 0 .505.025.73.075h.004c.102.02.189.08.25.155.005.005.005.01.005.01 0 .005.005.01.005.01a.414.414 0 0 1 .097.265c0 .125-.061.23-.158.3a.406.406 0 0 1-.331.055 2.191 2.191 0 0 0-.576-.075c-.362 0-.622.105-.8.3-.18.19-.286.495-.286.895s.102.69.28.895c.179.195.408.3.724.3.153 0 .29-.025.423-.055v-.875h-.713a.404.404 0 0 1-.291-.115v-.01a.392.392 0 0 1 .005-.545h.005a.39.39 0 0 1 .286-.12h1.065c.148 0 .27.055.372.155Z" clip-rule="evenodd"/>
  </g>
  <defs>
    <clipPath id="a">
      <path d="M0 0h16v16H0z"/>
    </clipPath>
  </defs>
</svg>
