<svg xmlns="http://www.w3.org/2000/svg" width="16" height="16" fill="currentColor" viewBox="0 0 16 16">
  <path d="M9.5.5c.145 0 .274.063.365.161l.005.002 3 3.298.03.035a.5.5 0 0 1 .1.3V7.5h1.5a1 1 0 0 1 1 1v6a1 1 0 0 1-1 1h-13a1 1 0 0 1-1-1v-6a1 1 0 0 1 1-1h1V2.236C2.5 1.272 3.29.5 4.251.5H9.5Zm-8 14h13v-6h-13v6Zm2.156-4.875a1.219 1.219 0 0 1 0 2.438h-.781V13a.375.375 0 0 1-.75 0v-2.636a.74.74 0 0 1 .74-.739h.791Zm3 0a1.219 1.219 0 0 1 0 2.438h-.781V13a.375.375 0 0 1-.75 0v-2.636a.74.74 0 0 1 .74-.739h.791Zm3.844 0a.375.375 0 0 1 0 .75h-.625V13a.375.375 0 0 1-.75 0v-2.625H8.5a.375.375 0 0 1 0-.75h2Zm2.688.167a.375.375 0 0 1 .623.416l-.86 1.292.86 1.292.02.033a.375.375 0 0 1-.62.414l-.024-.031-.687-1.032-.688 1.032a.375.375 0 1 1-.624-.416l.86-1.292-.86-1.292-.02-.033a.375.375 0 0 1 .621-.413l.023.03.688 1.032.688-1.032Zm-10.313 1.52h.781a.469.469 0 0 0 0-.937h-.781v.938Zm3 0h.781a.469.469 0 0 0 0-.937h-.781v.938ZM4.251 1.5c-.42 0-.75.335-.751.736V7.5H12V5h-1.843C9.49 5 9 4.433 9 3.8V1.5H4.251ZM10 3.8c0 .14.1.2.157.2h1.397L10 2.292v1.509Z"/>
</svg>
