<svg xmlns="http://www.w3.org/2000/svg" width="16" height="16" fill="currentColor" viewBox="0 0 16 16">
  <g clip-path="url(#a)">
    <path d="M14 .5A1.5 1.5 0 0 1 15.5 2v12a1.5 1.5 0 0 1-1.5 1.5H2A1.5 1.5 0 0 1 .5 14V2A1.5 1.5 0 0 1 2 .5h12Zm-12 1a.5.5 0 0 0-.5.5v12a.5.5 0 0 0 .5.5h12a.5.5 0 0 0 .5-.5V2a.5.5 0 0 0-.5-.5H2Zm1.875 4a1.625 1.625 0 0 1 0 3.25H3V10a.5.5 0 0 1-1 0V6.455c0-.527.428-.955.955-.955h.92Zm4 0a1.625 1.625 0 0 1 0 3.25H7V10a.5.5 0 0 1-1 0V6.455c0-.527.428-.955.955-.955h.92Zm5.702.003a.5.5 0 0 1 0 .995l-.05.002h-1.08V10a.5.5 0 0 1-1 0V6.5h-1.079a.5.5 0 0 1 0-1h3.158l.051.003ZM3 7.75h.875a.625.625 0 1 0 0-1.25H3v1.25Zm4 0h.875a.625.625 0 1 0 0-1.25H7v1.25Z"/>
  </g>
  <defs>
    <clipPath id="a">
      <path d="M0 0h16v16H0z"/>
    </clipPath>
  </defs>
</svg>
