<svg xmlns="http://www.w3.org/2000/svg" width="16" height="16" fill="currentColor" viewBox="0 0 16 16">
  <path fill-rule="evenodd" d="M1.125 2.736c0-.894.732-1.611 1.626-1.611H8c.11 0 .21.048.278.124l3 3.296a.375.375 0 0 1 .097.252V6.64a.375.375 0 0 1-.75 0V5.376H8.657c-.59 0-1.032-.504-1.032-1.074V1.875H2.751a.868.868 0 0 0-.876.861v9.389a.375.375 0 0 1-.75 0V2.736Zm7.25-.267v1.832c0 .2.149.324.282.324h1.68L8.374 2.469ZM4.5 8.125A.875.875 0 0 0 3.625 9v5.5c0 .483.392.875.875.875h10a.875.875 0 0 0 .875-.875V9a.875.875 0 0 0-.875-.875h-10ZM4.375 9c0-.069.056-.125.125-.125h10c.069 0 .125.056.125.125v5.5a.125.125 0 0 1-.125.125h-10a.125.125 0 0 1-.125-.125V9Zm5.13 4.135H10.8l.005.005c.1 0 .185.035.255.105.07.07.105.155.105.255s-.035.185-.105.255a.355.355 0 0 1-.255.105H9.18a.462.462 0 0 1-.33-.14.462.462 0 0 1-.14-.33v-2.945c0-.105.04-.2.115-.275a.39.39 0 0 1 .56 0c.08.07.12.165.12.275v2.69Zm-2.16-1.205.835-1.395c.03-.05.05-.11.05-.165a.31.31 0 0 0-.045-.16.33.33 0 0 0-.115-.12.31.31 0 0 0-.16-.045.54.54 0 0 0-.49.285l-.535.945-.535-.935a.524.524 0 0 0-.215-.215c-.14-.08-.315-.115-.45-.035-.05.03-.09.07-.115.125a.34.34 0 0 0 0 .325l.835 1.395-.77 1.28v-.01l-.095.17c-.055.1-.055.21.005.32.12.19.395.185.565.08a.549.549 0 0 0 .175-.165h.045v-.075l.54-.955.55.975a.591.591 0 0 0 .505.295c.12 0 .22-.055.28-.155a.322.322 0 0 0 .05-.175c0-.055-.02-.11-.05-.16l-.855-1.435-.005.005Zm5.365-.425c.425.14.72.3.9.49l-.005.01c.19.2.29.46.29.77 0 .365-.115.65-.345.845-.22.19-.535.285-.94.285-.295 0-.57-.055-.81-.16l-.02-.01a.483.483 0 0 1-.19-.17.51.51 0 0 1-.07-.265c0-.06.015-.11.04-.155a.309.309 0 0 1 .41-.11c.19.11.39.16.615.16.2 0 .345-.04.43-.11.08-.06.115-.165.115-.31 0-.12-.035-.21-.105-.285-.08-.085-.235-.17-.445-.24-.355-.12-.625-.275-.81-.47-.2-.205-.3-.455-.3-.74 0-.32.11-.575.325-.76.205-.18.49-.27.84-.27.305 0 .59.045.85.14a.457.457 0 0 1 .295.43c0 .105-.055.2-.145.26a.331.331 0 0 1-.29.02 1.662 1.662 0 0 0-.69-.155.545.545 0 0 0-.335.09c-.04.025-.09.085-.09.235 0 .105.03.185.1.26.08.085.21.155.38.215Z" clip-rule="evenodd"/>
</svg>
