<svg xmlns="http://www.w3.org/2000/svg" width="16" height="16" fill="currentColor" viewBox="0 0 16 16">
  <path d="M9.5.5c.145 0 .274.063.365.161l.005.002 3 3.298.03.035a.5.5 0 0 1 .1.3V7.5h1.5a1 1 0 0 1 1 1v6a1 1 0 0 1-1 1h-13a1 1 0 0 1-1-1v-6a1 1 0 0 1 1-1h1V2.236C2.5 1.272 3.29.5 4.251.5H9.5Zm-8 14h13v-6h-13v6ZM3.875 9a1.625 1.625 0 0 1 0 3.25H3v1.25a.5.5 0 0 1-1 0V9.955C2 9.428 2.428 9 2.955 9h.92Zm4 0a1.625 1.625 0 0 1 0 3.25H7v1.25a.5.5 0 0 1-1 0V9.955C6 9.428 6.428 9 6.955 9h.92Zm5.702.003a.5.5 0 0 1 0 .995l-.05.002h-1.08v3.5a.5.5 0 0 1-1 0V10h-1.079a.5.5 0 0 1 0-1h3.158l.051.003ZM3 11.25h.875a.625.625 0 1 0 0-1.25H3v1.25Zm4 0h.875a.625.625 0 1 0 0-1.25H7v1.25ZM4.251 1.5c-.42 0-.75.335-.751.736V7.5H12V5h-1.843C9.49 5 9 4.433 9 3.8V1.5H4.251ZM10 3.8c0 .14.1.2.157.2h1.397L10 2.292v1.509Z"/>
</svg>
