<svg xmlns="http://www.w3.org/2000/svg" width="16" height="16" fill="currentColor" viewBox="0 0 16 16">
  <path fill-rule="evenodd" d="M1 2.87C1 1.825 1.862 1 2.901 1H8.5a.498.498 0 0 1 .5.5v1.188L10.854 4.5H12a.5.5 0 0 1 .418.225l-.068-.162-3.5-3.42m3.639 3.75A.5.5 0 0 1 12 5.5h-.5v1.001a.5.5 0 0 0 1 0V4.92l-.011-.026ZM8 2H2.9c-.508 0-.9.4-.9.87v10.26c0 .47.392.87.9.87H6a.5.5 0 0 1 0 1H2.901C1.86 15 1 14.174 1 13.13V2.87M11 8a3.5 3.5 0 1 0 0 7 3.5 3.5 0 0 0 0-7Zm-2.5 3.5a2.5 2.5 0 1 1 5 0 2.5 2.5 0 0 1-5 0Zm2.5-2a.5.5 0 0 1 .5.5v1h1a.5.5 0 0 1 0 1h-1v1a.5.5 0 0 1-1 0v-1h-1a.5.5 0 0 1 0-1h1v-1a.5.5 0 0 1 .5-.5Z" clip-rule="evenodd"/>
</svg>
