<svg xmlns="http://www.w3.org/2000/svg" width="16" height="16" fill="currentColor" viewBox="0 0 16 16">
  <g clip-path="url(#a)">
    <path fill-rule="evenodd" d="M2.501.875c-.894 0-1.626.717-1.626 1.611v9.389a.375.375 0 0 0 .75 0V2.486c0-.472.388-.861.876-.861h4.874v2.426c0 .57.442 1.074 1.032 1.074h1.968v1.766a.375.375 0 0 0 .75 0V4.547a.375.375 0 0 0-.098-.252L8.028.999A.374.374 0 0 0 7.75.875H2.501Zm5.624 1.344v1.832c0 .2.149.324.282.324h1.68L8.124 2.219ZM2.875 8.75c0-.483.392-.875.875-.875h10.5c.483 0 .875.392.875.875v5.5a.875.875 0 0 1-.875.875H3.75a.875.875 0 0 1-.875-.875v-5.5Zm.875-.125a.125.125 0 0 0-.125.125v5.5c0 .069.056.125.125.125h10.5a.125.125 0 0 0 .125-.125v-5.5a.125.125 0 0 0-.125-.125H3.75Zm1.975.925c.475 0 .85.105 1.11.315v.01c.275.215.415.525.415.92 0 .42-.14.75-.415.975-.265.215-.64.325-1.115.325-.125 0-.255 0-.39-.01v.94c0 .1-.04.195-.115.27a.366.366 0 0 1-.275.115.37.37 0 0 1-.28-.12h-.005a.39.39 0 0 1-.105-.27v-2.93c0-.125.045-.24.13-.33a.483.483 0 0 1 .315-.17c.26-.025.5-.04.73-.04Zm.565 1.68c.125-.095.18-.225.18-.415h-.005c0-.185-.055-.315-.17-.405-.13-.105-.33-.155-.605-.155-.12 0-.24.005-.36.02v1.095c.11.01.23.015.36.015.27 0 .47-.05.6-.155Zm6.71-.165h-1.165v-.755h1.25a.36.36 0 0 0 .36-.36.35.35 0 0 0-.11-.25.377.377 0 0 0-.255-.105h-1.56a.457.457 0 0 0-.33.135.442.442 0 0 0-.14.33v2.955c0 .1.035.195.105.27h.005c.075.08.17.12.28.12.11 0 .205-.04.275-.115a.379.379 0 0 0 .115-.27v-1.25h1.165a.355.355 0 0 0 .255-.105.344.344 0 0 0 .095-.245.32.32 0 0 0-.1-.24.344.344 0 0 0-.255-.11l.01-.005Zm-4.895-1.48c.185-.025.39-.035.605-.035h-.005c.62 0 1.1.165 1.42.485.32.32.485.77.485 1.42 0 .65-.16 1.15-.48 1.485-.325.34-.8.51-1.425.51-.22 0-.42-.01-.605-.035a.488.488 0 0 1-.315-.165.49.49 0 0 1-.125-.335v-2.83c0-.125.04-.24.12-.33a.506.506 0 0 1 .325-.17ZM9.58 12.45c.18-.19.27-.525.27-.995l.005-.005c0-.42-.095-.725-.275-.91-.18-.185-.47-.28-.87-.28-.095 0-.185.005-.265.015v2.445c.08.015.17.015.265.015.405 0 .695-.095.87-.285Z" clip-rule="evenodd"/>
  </g>
  <defs>
    <clipPath id="a">
      <path d="M0 0h16v16H0z"/>
    </clipPath>
  </defs>
</svg>
