<svg xmlns="http://www.w3.org/2000/svg" width="16" height="16" fill="currentColor" viewBox="0 0 16 16">
  <g clip-path="url(#a)">
    <path d="M14 .5A1.5 1.5 0 0 1 15.5 2v12a1.5 1.5 0 0 1-1.5 1.5H2A1.5 1.5 0 0 1 .5 14V2A1.5 1.5 0 0 1 2 .5h12Zm-12 1a.5.5 0 0 0-.5.5v12a.5.5 0 0 0 .5.5h12a.5.5 0 0 0 .5-.5V2a.5.5 0 0 0-.5-.5H2Zm1.129 4.004A2.5 2.5 0 0 1 3 10.5h-.222A.778.778 0 0 1 2 9.723V6.278c0-.43.349-.778.778-.778H3l.129.004ZM8 5.5c.607 0 1.118.33 1.46.786C9.804 6.743 10 7.35 10 8c0 .65-.197 1.258-.54 1.715-.342.456-.853.785-1.46.785s-1.117-.329-1.46-.785C6.198 9.258 6 8.65 6 8c0-.65.198-1.257.54-1.714C6.883 5.83 7.393 5.5 8 5.5Zm4.464 0c.525 0 1.01.259 1.369.7l.07.091.029.042a.5.5 0 0 1-.803.588l-.032-.04-.08-.098c-.187-.21-.388-.283-.553-.283-.19 0-.424.098-.632.382-.212.29-.332.693-.332 1.118 0 .426.12.83.332 1.12.208.283.443.38.632.38s.424-.096.633-.38a.5.5 0 1 1 .806.59c-.363.496-.879.79-1.44.79-.56 0-1.074-.294-1.438-.79-.36-.491-.525-1.112-.525-1.71 0-.598.166-1.218.525-1.709.364-.496.879-.79 1.439-.791ZM3 9.5a1.5 1.5 0 1 0 0-3v3Zm5-3c-.221 0-.46.119-.66.386S7 7.546 7 8c0 .455.14.847.34 1.114.2.267.439.386.66.386.222 0 .46-.119.661-.386C8.861 8.847 9 8.454 9 8c0-.454-.138-.847-.339-1.114-.2-.267-.44-.386-.661-.386Z"/>
  </g>
  <defs>
    <clipPath id="a">
      <path d="M0 0h16v16H0z"/>
    </clipPath>
  </defs>
</svg>
