<svg xmlns="http://www.w3.org/2000/svg" width="16" height="16" fill="currentColor" viewBox="0 0 16 16">
  <path fill-rule="evenodd" d="M3.401 1C2.361 1 1.5 1.826 1.5 2.87v10.26c0 1.044.862 1.87 1.901 1.87H6.5a.5.5 0 0 0 0-1H3.401a.885.885 0 0 1-.901-.87V2.87c0-.47.392-.87.9-.87h5.1v2.301A1.2 1.2 0 0 0 9.699 5.5H12v1a.5.5 0 0 0 1 0V4.92l-.011-.026a.499.499 0 0 0-.071-.169l-.068-.162-3.5-3.42L9 1H3.4ZM9.5 2.688V4.3a.2.2 0 0 0 .199.199h1.655L9.5 2.688Zm3.16 4.946a.5.5 0 0 1 .706.026l1.5 1.615a.5.5 0 0 1-.027.708l-1.5 1.384a.5.5 0 1 1-.678-.734l.684-.632L10 10a.5.5 0 1 1 0-1h3.247l-.613-.66a.5.5 0 0 1 .026-.706Zm-1.82 7.232a.5.5 0 0 1-.706-.026l-1.5-1.615a.5.5 0 0 1 .027-.708l1.5-1.384a.5.5 0 1 1 .678.734l-.684.632 3.345.001a.5.5 0 1 1 0 1h-3.247l.613.66a.5.5 0 0 1-.026.706Z" clip-rule="evenodd"/>
</svg>
