<svg xmlns="http://www.w3.org/2000/svg" width="16" height="16" fill="currentColor" viewBox="0 0 16 16">
  <path fill-rule="evenodd" d="M1.5 2.87C1.5 1.825 2.362 1 3.401 1H9l.35.142 3.5 3.421.15.358V6.5a.5.5 0 0 1-1 0V5.131L8.796 2H3.401c-.509 0-.901.4-.901.87v10.26c0 .47.392.87.9.87H7a.5.5 0 0 1 0 1H3.401c-1.04 0-1.901-.826-1.901-1.87V2.87Z" clip-rule="evenodd"/>
  <path fill-rule="evenodd" d="M9 1a.5.5 0 0 1 .5.5v2.801a.2.2 0 0 0 .199.199H12.5a.5.5 0 0 1 0 1H9.699A1.2 1.2 0 0 1 8.5 4.301V1.5A.5.5 0 0 1 9 1Zm.5 8.183v3.544c0 .599.666 1.273 1.75 1.273S13 13.326 13 12.727V9.773a.5.5 0 0 1 1 0v2.954C14 14.087 12.651 15 11.25 15s-2.75-.913-2.75-2.273V9.18c.005-1.031 1.015-1.68 2.002-1.68.986 0 1.999.648 1.999 1.681v3.249c0 .708-.677 1.092-1.251 1.092-.574 0-1.251-.384-1.251-1.092V9.773a.5.5 0 0 1 1 0v2.652c.003.005.01.016.03.03a.365.365 0 0 0 .221.067.37.37 0 0 0 .222-.066.107.107 0 0 0 .029-.031V9.181c0-.271-.33-.681-.999-.681-.667 0-1 .409-1.002.683Z" clip-rule="evenodd"/>
</svg>
