<svg xmlns="http://www.w3.org/2000/svg" width="16" height="16" fill="currentColor" viewBox="0 0 16 16">
  <path fill-rule="evenodd" d="M1.5 2.87C1.5 1.825 2.362 1 3.401 1H9l.35.142v.001l3.5 3.42.068.162c.033.05.057.108.07.169L13 4.92V6.5a.5.5 0 0 1-1 0v-1H9.699A1.2 1.2 0 0 1 8.5 4.301V2H3.4c-.508 0-.9.4-.9.87v10.26c0 .47.392.87.9.87h3.1a.5.5 0 0 1 0 1H3.401c-1.04 0-1.901-.826-1.901-1.87V2.87Zm8 1.431V2.688L11.354 4.5H9.7a.2.2 0 0 1-.199-.199ZM11.5 8a3.5 3.5 0 1 0 0 7 3.5 3.5 0 0 0 0-7ZM9 11.5a2.5 2.5 0 1 1 5 0 2.5 2.5 0 0 1-5 0Zm2.854-1.854 1 1a.5.5 0 0 1-.708.708L12 11.207V13a.5.5 0 0 1-1 0v-1.793l-.146.147a.5.5 0 0 1-.708-.708l1-1A.499.499 0 0 1 11.5 9.5m.354.146a.499.499 0 0 0-.163-.108Zm-.351-.146a.49.49 0 0 1 .188.038Z" clip-rule="evenodd"/>
</svg>
