<svg xmlns="http://www.w3.org/2000/svg" width="16" height="16" fill="currentColor" viewBox="0 0 16 16">
  <path fill-rule="evenodd" d="M1.125 2.736c0-.894.732-1.611 1.626-1.611H8c.11 0 .21.048.278.124l3 3.296a.375.375 0 0 1 .097.252V6.64a.375.375 0 0 1-.75 0V5.376H8.657c-.59 0-1.032-.504-1.032-1.074V1.875H2.751a.868.868 0 0 0-.876.861v9.389a.375.375 0 0 1-.75 0V2.736Zm7.25-.267v1.832c0 .2.149.324.282.324h1.68L8.374 2.469ZM3.5 8.125A.875.875 0 0 0 2.625 9v5.5c0 .483.392.875.875.875h11a.875.875 0 0 0 .875-.875V9a.875.875 0 0 0-.875-.875h-11ZM3.375 9c0-.069.056-.125.125-.125h11c.069 0 .125.056.125.125v5.5a.125.125 0 0 1-.125.125h-11a.125.125 0 0 1-.125-.125V9Zm6.847 2.34a.591.591 0 0 1-.275-.18.288.288 0 0 1-.075-.205c0-.11.03-.155.065-.185.05-.04.125-.07.245-.07.18 0 .36.04.54.125.085.035.18.035.265-.015h.005l.005-.005a.285.285 0 0 0 .13-.245.432.432 0 0 0-.07-.235.387.387 0 0 0-.19-.155c-.22-.08-.46-.12-.71-.12-.28 0-.53.07-.715.24-.19.17-.275.405-.275.67 0 .25.085.47.25.65.16.18.395.315.675.415.185.065.295.135.35.2.05.055.08.125.08.225 0 .14-.04.21-.085.25-.05.045-.145.085-.325.085a.89.89 0 0 1-.475-.13l-.005-.005a.285.285 0 0 0-.425.25.42.42 0 0 0 .245.405c.205.095.435.145.68.145.32 0 .595-.075.795-.255.205-.185.29-.445.29-.745a.974.974 0 0 0-.245-.68c-.16-.18-.42-.32-.75-.43Zm3.43 1.605-.695-1.22.675-1.185a.305.305 0 0 0 .04-.15c0-.055-.015-.1-.04-.145v-.01a.346.346 0 0 0-.1-.11.306.306 0 0 0-.155-.045c-.19 0-.34.095-.43.26l-.405.75-.4-.74a.452.452 0 0 0-.185-.19.515.515 0 0 0-.255-.07c-.05 0-.105.01-.155.045a.267.267 0 0 0-.105.12.303.303 0 0 0 0 .285l.675 1.2-.695 1.225v.005h-.005a.299.299 0 0 0 0 .29v.01c.055.09.145.15.26.15a.484.484 0 0 0 .44-.265l.415-.775.415.77a.52.52 0 0 0 .44.27c.11 0 .205-.055.265-.15a.283.283 0 0 0 .04-.16.35.35 0 0 0-.04-.165Zm-6.01-.21h1.025c.09 0 .18.045.24.11a.32.32 0 0 1 .095.235c0 .09-.035.17-.095.235a.317.317 0 0 1-.235.1H7.347c-.12 0-.22-.05-.3-.13a.446.446 0 0 1-.12-.3V10.46c0-.095.035-.185.1-.255a.35.35 0 0 1 .26-.115c.1 0 .185.045.25.11v.005l.005.005c.06.065.1.15.1.245v2.28Zm-1.065.21-.695-1.22.68-1.185a.305.305 0 0 0 .04-.15c0-.055-.015-.1-.04-.145v-.01a.346.346 0 0 0-.1-.11.306.306 0 0 0-.155-.045c-.19 0-.34.095-.43.26l-.405.745-.4-.74a.452.452 0 0 0-.185-.19.515.515 0 0 0-.255-.07c-.05 0-.105.01-.155.045a.267.267 0 0 0-.105.12c-.05.095-.065.21-.02.3l.675 1.185-.69 1.215v.005h-.005a.299.299 0 0 0 0 .29c.055.09.145.16.26.16a.484.484 0 0 0 .44-.265l.415-.775.415.77a.52.52 0 0 0 .44.27c.11 0 .205-.055.265-.15a.283.283 0 0 0 .04-.16.289.289 0 0 0-.03-.15Zm-.855-1.22-.055.03.05-.03h.005Zm.325-1.285-.09-.055.095.055h-.005Z" clip-rule="evenodd"/>
</svg>
