<svg xmlns="http://www.w3.org/2000/svg" width="16" height="16" fill="currentColor" viewBox="0 0 16 16">
  <path d="M9 1c.135 0 .258.054.348.142h.002l3.5 3.421.068.164a.5.5 0 0 1 .07.166L13 4.92V6.5a.5.5 0 0 1-1 0v-1H9.7a1.2 1.2 0 0 1-1.2-1.2V2H3.401c-.508 0-.901.4-.901.87v10.26c0 .47.393.87.901.87H4a.5.5 0 0 1 0 1h-.599C2.362 15 1.5 14.174 1.5 13.13V2.87C1.5 1.825 2.362 1 3.401 1H9Zm4.5 7a.5.5 0 0 1 .5.5V14a.5.5 0 0 1 0 1H5.5a.5.5 0 0 1 0-1v-2a.5.5 0 0 1 .5-.5h1.5a.5.5 0 0 1 .5.5v2h.5v-3.5A.5.5 0 0 1 9 10h1.5a.5.5 0 0 1 .5.5V14h.5V8.5A.5.5 0 0 1 12 8h1.5Zm-7 6H7v-1.5h-.5V14Zm3 0h.5v-3h-.5v3Zm3 0h.5V9h-.5v5Zm-3-9.7c0 .11.09.2.2.2h1.655L9.5 2.687V4.3Z"/>
</svg>
