<svg xmlns="http://www.w3.org/2000/svg" width="16" height="16" fill="currentColor" viewBox="0 0 16 16">
  <path fill-rule="evenodd" d="M1.5 2.87C1.5 1.825 2.362 1 3.401 1H9l.35.142v.001l3.5 3.42.068.162c.033.05.057.108.07.169L13 4.92V6.5a.5.5 0 0 1-1 0v-1H9.699A1.2 1.2 0 0 1 8.5 4.301V2H3.4c-.508 0-.9.4-.9.87v10.26c0 .47.392.87.9.87h3.1a.5.5 0 0 1 0 1H3.401c-1.04 0-1.901-.826-1.901-1.87V2.87Zm8 1.431V2.688L11.354 4.5H9.7a.2.2 0 0 1-.199-.199ZM9 9a1 1 0 0 0-1 1v4a1 1 0 0 0 1 1h5a1 1 0 0 0 1-1v-4a1 1 0 0 0-1-1H9Zm0 1h5v1.306l-.842-.28a.5.5 0 0 0-.435.058l-1.259.839-.74-.37a.5.5 0 0 0-.448 0L9 12.19V10Zm3.494 2.438 1.506.753v-.83l-.926-.31-.58.387Zm-1.994.121L13.382 14H9v-.691l1.5-.75Z" clip-rule="evenodd"/>
</svg>
