<svg xmlns="http://www.w3.org/2000/svg" width="16" height="16" fill="currentColor" viewBox="0 0 16 16">
  <g clip-path="url(#a)">
    <path d="M14 .5A1.5 1.5 0 0 1 15.5 2v12a1.5 1.5 0 0 1-1.5 1.5H2A1.5 1.5 0 0 1 .5 14V2A1.5 1.5 0 0 1 2 .5h12Zm-12 1a.5.5 0 0 0-.5.5v12a.5.5 0 0 0 .5.5h12a.5.5 0 0 0 .5-.5V2a.5.5 0 0 0-.5-.5H2Zm3.076 4.235a.5.5 0 1 1 .848.53L4.839 8l1.085 1.734.024.045a.5.5 0 0 1-.843.528l-.029-.042-.826-1.323-.826 1.323a.5.5 0 0 1-.848-.53L3.66 8 2.576 6.266l-.025-.045a.5.5 0 0 1 .844-.528l.029.042.826 1.322.826-1.322ZM7 5.5a.5.5 0 0 1 .5.5v3.5h2a.5.5 0 0 1 0 1H7a.5.5 0 0 1-.5-.5V6a.5.5 0 0 1 .5-.5Zm4.75 0c.432 0 .78.096 1.06.272.279.176.449.407.562.606a.5.5 0 0 1-.87.495.68.68 0 0 0-.225-.255c-.09-.057-.246-.118-.527-.118-.522 0-.768.346-.749.586l.006.03c.02.074.1.17.332.266a1.904 1.904 0 0 0 .434.117l.026.004h.012l.014.003a2.141 2.141 0 0 1 .213.036c.132.027.314.075.503.152.343.141.9.468.954 1.142l.005.093c.017.922-.818 1.53-1.665 1.569l-.085.002c-.432 0-.781-.096-1.062-.273a1.674 1.674 0 0 1-.56-.604l-.024-.046a.5.5 0 0 1 .892-.45l.05.08c.05.074.107.13.177.175.09.057.246.118.527.118l.095-.004c.426-.036.641-.315.654-.535l-.001-.046c-.006-.076-.071-.187-.337-.296a1.916 1.916 0 0 0-.327-.098c-.045-.01-.083-.015-.107-.02-.013 0-.022-.002-.027-.003h-.006l-.005-.002h-.015a2.323 2.323 0 0 1-.213-.038 2.898 2.898 0 0 1-.502-.151c-.322-.132-.833-.428-.94-1.02l-.015-.122C9.924 6.16 10.847 5.5 11.75 5.5Z"/>
  </g>
  <defs>
    <clipPath id="a">
      <path d="M0 0h16v16H0z"/>
    </clipPath>
  </defs>
</svg>
