<svg xmlns="http://www.w3.org/2000/svg" width="16" height="16" fill="none" viewBox="0 0 16 16">
  <path fill="#3D3C3C" fill-rule="evenodd" d="M2 2.87C2 1.825 2.862 1 3.901 1H9.5a.498.498 0 0 1 .5.5v1.188L11.854 4.5H13a.5.5 0 0 1 .418.225l-.068-.162-3.5-3.42m3.639 3.75A.5.5 0 0 1 13 5.5h-.5v3.001a.5.5 0 0 0 1 0V4.92l-.011-.026ZM9 2H3.9c-.508 0-.9.4-.9.87v10.26c0 .47.392.87.9.87h2.6a.5.5 0 0 1 0 1H3.901C2.861 15 2 14.174 2 13.13V2.87m12.885 9.312-.49-.591c-1.755-2.12-5.035-2.12-6.79 0l-.49.59a.5.5 0 0 0 0 .639l.49.591c1.755 2.119 5.033 2.118 6.79 0l.49-.591a.5.5 0 0 0 0-.638Zm-6.51.046c1.355-1.637 3.895-1.637 5.25 0l.226.273-.226.272c-1.358 1.636-3.895 1.636-5.25 0l-.226-.272.226-.273ZM11 11.5a1 1 0 1 0 0 2 1 1 0 0 0 0-2Z" clip-rule="evenodd"/>
</svg>
