<svg xmlns="http://www.w3.org/2000/svg" width="16" height="16" fill="currentColor" viewBox="0 0 16 16">
  <path d="M3 10.5a.5.5 0 0 1 0 1h-.5a.5.5 0 0 0-.5.5v1.5a.5.5 0 0 0 .5.5h11a.5.5 0 0 0 .5-.5V12a.5.5 0 0 0-.5-.5H13a.5.5 0 0 1 0-1h.5A1.5 1.5 0 0 1 15 12v1.5a1.5 1.5 0 0 1-1.5 1.5h-11A1.5 1.5 0 0 1 1 13.5V12a1.5 1.5 0 0 1 1.5-1.5H3Zm.5 1.75a.5.5 0 1 1 0 1 .5.5 0 0 1 0-1ZM9.532 1.16l2.334 2.5L12 4v6c0 .796-.61 1.5-1.434 1.5H5.435C4.61 11.5 4 10.796 4 10V2.501C4 1.705 4.61 1 5.435 1h3.732l.365.16ZM5.435 2C5.227 2 5 2.191 5 2.501V10c0 .31.227.5.435.5h5.131c.208 0 .434-.19.434-.5V5.5H9.4c-.33 0-.567-.201-.699-.398a1.27 1.27 0 0 1-.201-.7V2H5.435ZM9.5 4.401c0 .041.006.074.014.099H11v-.303L9.5 2.59V4.4Z"/>
</svg>
