<svg xmlns="http://www.w3.org/2000/svg" width="16" height="16" fill="currentColor" viewBox="0 0 16 16">
  <g clip-path="url(#a)">
    <path d="M9.5.5c.145 0 .274.063.365.161l.005.002 3 3.298.03.035a.5.5 0 0 1 .1.3V7.5h1.5a1 1 0 0 1 1 1v6a1 1 0 0 1-1 1h-13a1 1 0 0 1-1-1v-6a1 1 0 0 1 1-1h1V2.236C2.5 1.272 3.29.5 4.251.5H9.5Zm-8 14h13v-6h-13v6Zm1.629-5.496A2.5 2.5 0 0 1 3 14h-.222A.778.778 0 0 1 2 13.223V9.778c0-.43.349-.778.778-.778H3l.129.004ZM8 9c.607 0 1.118.33 1.46.786.343.457.54 1.064.54 1.714 0 .65-.197 1.258-.54 1.715C9.119 13.67 8.608 14 8 14s-1.117-.329-1.46-.785C6.198 12.758 6 12.15 6 11.5c0-.65.198-1.257.54-1.714C6.883 9.33 7.393 9 8 9Zm4.464 0c.525 0 1.01.259 1.369.7l.07.091.029.042a.5.5 0 0 1-.803.588l-.032-.04-.08-.098c-.187-.21-.388-.283-.553-.283-.19 0-.424.098-.632.382-.212.29-.332.693-.332 1.118 0 .426.12.83.332 1.12.208.283.443.38.632.38s.424-.097.633-.38a.5.5 0 1 1 .806.59c-.363.496-.879.79-1.44.79-.56 0-1.074-.294-1.438-.79-.36-.491-.525-1.112-.525-1.71 0-.598.166-1.218.525-1.709.364-.496.879-.79 1.439-.791ZM3 13a1.5 1.5 0 0 0 0-3v3Zm5-3c-.221 0-.46.119-.66.386S7 11.046 7 11.5c0 .455.14.847.34 1.114.2.267.439.386.66.386.222 0 .46-.119.661-.386.2-.267.339-.66.339-1.114 0-.454-.138-.847-.339-1.114-.2-.267-.44-.386-.661-.386ZM4.251 1.5c-.42 0-.75.335-.751.736V7.5H12V5h-1.843C9.49 5 9 4.433 9 3.8V1.5H4.251ZM10 3.8c0 .14.1.2.157.2h1.397L10 2.292v1.509Z"/>
  </g>
  <defs>
    <clipPath id="a">
      <path d="M0 0h16v16H0z"/>
    </clipPath>
  </defs>
</svg>
