<svg xmlns="http://www.w3.org/2000/svg" width="16" height="16" fill="currentColor" viewBox="0 0 16 16">
  <path d="M9.5.5c.145 0 .274.063.365.161l.005.002 3 3.298.03.035a.5.5 0 0 1 .1.3V7.5h1.5a1 1 0 0 1 1 1v6a1 1 0 0 1-1 1h-13a1 1 0 0 1-1-1v-6a1 1 0 0 1 1-1h1V2.236C2.5 1.272 3.29.5 4.251.5H9.5Zm-8 14h13v-6h-13v6ZM3.875 9a1.625 1.625 0 0 1 0 3.25H3v1.25a.5.5 0 0 1-1 0V9.955C2 9.428 2.428 9 2.955 9h.92ZM9 9a.5.5 0 0 1 .5.5v4l-.007.082a.5.5 0 0 1-.917.184L7 11.243V13.5a.5.5 0 0 1-1 0v-4l.007-.082a.5.5 0 0 1 .917-.183L8.5 11.757V9.5A.5.5 0 0 1 9 9Zm3.006 0c.53 0 1.024.254 1.392.694l.072.091.028.043a.5.5 0 0 1-.795.598l-.033-.04-.081-.098c-.193-.21-.404-.288-.583-.288-.206 0-.451.102-.665.387-.218.29-.341.69-.341 1.113 0 .423.123.825.34 1.114.215.284.46.386.666.386.205 0 .45-.102.664-.386a1.68 1.68 0 0 0 .28-.614h-.944a.5.5 0 1 1 0-1h1.316c.472 0 .679.423.678.735l-.003.062a2.8 2.8 0 0 1-.527 1.418c-.374.496-.9.785-1.464.785-.565 0-1.09-.289-1.464-.785C10.172 12.723 10 12.1 10 11.5s.172-1.223.542-1.715c.374-.496.899-.785 1.464-.785ZM3 11.25h.875a.625.625 0 1 0 0-1.25H3v1.25ZM4.251 1.5c-.42 0-.75.335-.751.736V7.5H12V5h-1.843C9.49 5 9 4.433 9 3.8V1.5H4.251ZM10 3.8c0 .14.1.2.157.2h1.397L10 2.292v1.509Z"/>
</svg>
