<svg xmlns="http://www.w3.org/2000/svg" width="16" height="16" fill="currentColor" viewBox="0 0 16 16">
  <path fill-rule="evenodd" d="M2 2.87C2 1.825 2.862 1 3.901 1H9.5a.5.5 0 0 1 .35.143l3.5 3.42.068.162c.033.05.057.108.07.169l.012.027V8.5a.5.5 0 0 1-1 0v-3h-2.301A1.2 1.2 0 0 1 9 4.301V2H3.9c-.508 0-.9.4-.9.87v10.26c0 .47.392.87.9.87h2.6a.5.5 0 0 1 0 1H3.901C2.861 15 2 14.174 2 13.13V2.87Zm8-.182V4.3a.2.2 0 0 0 .199.199h1.655L10 2.688Z" clip-rule="evenodd"/>
  <path d="M11 11.5a1 1 0 1 0 0 2 1 1 0 0 0 0-2Z"/>
  <path fill-rule="evenodd" d="m14.885 12.182-.49-.591c-1.755-2.12-5.035-2.12-6.79 0l-.49.59a.5.5 0 0 0 0 .639l.49.591c1.755 2.119 5.033 2.118 6.79 0l.49-.591a.5.5 0 0 0 0-.638Zm-6.51.046c1.355-1.637 3.895-1.637 5.25 0l.226.273-.226.272c-1.358 1.636-3.895 1.636-5.25 0l-.226-.272.226-.273Z" clip-rule="evenodd"/>
</svg>
