<svg xmlns="http://www.w3.org/2000/svg" width="16" height="16" fill="currentColor" viewBox="0 0 16 16">
  <path fill-rule="evenodd" d="M2.5 1a.5.5 0 0 1 .5.5v6a.5.5 0 0 1-1 0v-6a.5.5 0 0 1 .5-.5Zm4 0a.5.5 0 0 1 .5.5v6a.5.5 0 0 1-1 0v-6a.5.5 0 0 1 .5-.5Z" clip-rule="evenodd"/>
  <path fill-rule="evenodd" d="M8 6.5a.5.5 0 0 0-.5-.5h-6a.5.5 0 0 0 0 1h6a.5.5 0 0 0 .5-.5Zm0-4a.5.5 0 0 0-.5-.5h-6a.5.5 0 0 0 0 1h6a.5.5 0 0 0 .5-.5ZM9.5 8a.5.5 0 0 1 .5.5v6a.5.5 0 0 1-1 0v-6a.5.5 0 0 1 .5-.5Zm4 0a.5.5 0 0 1 .5.5v6a.5.5 0 0 1-1 0v-6a.5.5 0 0 1 .5-.5Z" clip-rule="evenodd"/>
  <path fill-rule="evenodd" d="M15 13.5a.5.5 0 0 0-.5-.5h-6a.5.5 0 0 0 0 1h6a.5.5 0 0 0 .5-.5Zm0-4a.5.5 0 0 0-.5-.5h-6a.5.5 0 0 0 0 1h6a.5.5 0 0 0 .5-.5Z" clip-rule="evenodd"/>
</svg>
