<svg xmlns="http://www.w3.org/2000/svg" width="16" height="16" fill="currentColor" viewBox="0 0 16 16">
  <path fill-rule="evenodd" d="M3 1.5a.5.5 0 0 0-1 0V2h-.5a.5.5 0 0 0 0 1H2v3h-.5a.5.5 0 0 0 0 1H2v.5a.5.5 0 0 0 1 0V7h3v.5a.5.5 0 0 0 1 0V7h.5a.5.5 0 0 0 0-1H7V3h.5a.5.5 0 0 0 0-1H7v-.5a.5.5 0 0 0-1 0V2H3v-.5ZM3 3v3h3V3H3Zm6.5 5a.5.5 0 0 1 .5.5V9h3v-.5a.5.5 0 0 1 1 0V9h.5a.5.5 0 0 1 0 1H14v3h.5a.5.5 0 0 1 0 1H14v.5a.5.5 0 0 1-1 0V14h-3v.5a.5.5 0 0 1-1 0V14h-.5a.5.5 0 0 1 0-1H9v-3h-.5a.5.5 0 0 1 0-1H9v-.5a.5.5 0 0 1 .5-.5Zm.5 2v3h3v-3h-3Z" clip-rule="evenodd"/>
</svg>
