<svg xmlns="http://www.w3.org/2000/svg" width="16" height="16" fill="currentColor" viewBox="0 0 16 16">
  <path fill-rule="evenodd" d="M13.5 10a.5.5 0 0 1 .5.5v2.668C14 14.195 13.148 15 12.126 15H3.874C2.852 15 2 14.195 2 13.168V10.5a.5.5 0 0 1 1 0v2.668c0 .446.375.832.874.832h8.252c.499 0 .874-.386.874-.832V10.5a.5.5 0 0 1 .5-.5Z" clip-rule="evenodd"/>
  <path fill-rule="evenodd" d="M8 11a.5.5 0 0 1-.5-.5v-9a.5.5 0 0 1 1 0v9a.5.5 0 0 1-.5.5Z" clip-rule="evenodd"/>
  <path fill-rule="evenodd" d="M6.94 11.146a1.5 1.5 0 0 0 2.12 0l3.794-3.792a.5.5 0 0 0-.708-.708L8.354 10.44a.5.5 0 0 1-.708 0L3.854 6.646a.5.5 0 1 0-.708.708l3.793 3.792Z" clip-rule="evenodd"/>
</svg>
