<svg xmlns="http://www.w3.org/2000/svg" width="16" height="16" fill="currentColor" viewBox="0 0 16 16">
  <path fill-rule="evenodd" d="M7.5 10.293 3.854 6.646a.5.5 0 1 0-.708.708l3.793 3.792a1.5 1.5 0 0 0 2.122 0l3.793-3.792a.5.5 0 0 0-.708-.708L8.5 10.293V1.5a.5.5 0 0 0-1 0v8.793Zm6-.293a.5.5 0 0 1 .5.5v2.668C14 14.195 13.148 15 12.126 15H3.874C2.852 15 2 14.195 2 13.168V10.5a.5.5 0 0 1 1 0v2.668c0 .446.375.832.874.832h8.252c.499 0 .874-.386.874-.832V10.5a.5.5 0 0 1 .5-.5Z" clip-rule="evenodd"/>
</svg>
