<svg xmlns="http://www.w3.org/2000/svg" width="16" height="16" fill="currentColor" viewBox="0 0 16 16">
  <path fill-rule="evenodd" d="M8 2a6 6 0 1 0 0 12A6 6 0 0 0 8 2ZM1 8a7 7 0 1 1 14 0A7 7 0 0 1 1 8Z" clip-rule="evenodd"/>
  <path fill-rule="evenodd" d="M5.004 2.062a.5.5 0 0 1 .679.197l.263.48c.452.303.52.948.133 1.34L4.918 5.25a.798.798 0 0 1-.625.235l-.193.431-.154.64 1.066-.083a1 1 0 0 1 .695.211l.852.67a.84.84 0 0 1 .31.525l.81.147a1 1 0 0 1 .821.984v.263a1 1 0 0 1-.036.265l-.222.809a1 1 0 0 1-.812.723l-.229.036v.094a1 1 0 0 1-.324.737l-.231.212-.092.251v.438l.004.014a.713.713 0 0 1-1.24.64l-.461-.565a.51.51 0 0 1-.017-.022l-.23-.317A1 1 0 0 1 4.419 12v-.514l-.243-.9-.267-.12a1 1 0 0 1-.495-.49l-.36-.774a1 1 0 0 1-.092-.42v-.835c0-.122.025-.242.074-.352l-.096-.131-.696-.51a1 1 0 0 1-.18-.171l-.45-.546a.5.5 0 0 1 .772-.635l.449.545.154.112.139-.577a1 1 0 0 1 .059-.173l.257-.576a.799.799 0 0 1 .841-.466l.982-.99a.874.874 0 0 1-.182-.23l-.279-.507a.5.5 0 0 1 .198-.68ZM4.055 7.55a.875.875 0 0 1-.093.427v.804l.359.773.267.12a1 1 0 0 1 .554.652l.242.9a1 1 0 0 1 .035.26V12l.153.212a1 1 0 0 1 .042-.153l.092-.251a1 1 0 0 1 .263-.396l.232-.212v-.094a1 1 0 0 1 .848-.989l.229-.035.222-.81V9.01l-.93-.17a.84.84 0 0 1-.686-.745l-.795-.625-1.034.08Zm7.524-5.266a.5.5 0 0 1-.235.667l-.776.373-.308.417.347.168a.5.5 0 0 1 .128.81L10 5.427v.64l.512.793h1.062a.5.5 0 0 1 .402.202l.74.997a.5.5 0 0 1 .098.298V9.79a.502.502 0 0 1-.016.125l-.251.974.131-.021a.495.495 0 0 1 .078-.006h.744a.5.5 0 1 1 0 1h-.705l-.845.133a.5.5 0 0 1-.562-.619l.426-1.65V8.521l-.491-.662h-1.084a.5.5 0 0 1-.42-.228L9.08 6.485a.5.5 0 0 1-.08-.27V5.212a.5.5 0 0 1 .154-.361l.37-.356-.242-.118a.5.5 0 0 1-.184-.747l.74-1.001a.5.5 0 0 1 .185-.154l.889-.427a.5.5 0 0 1 .667.235Z" clip-rule="evenodd"/>
</svg>
