<svg xmlns="http://www.w3.org/2000/svg" width="16" height="16" fill="currentColor" viewBox="0 0 16 16">
  <path fill-rule="evenodd" d="M11.147 2.468 3.585 9.716l-.557 2.129a.5.5 0 0 1-.013.067c-.082.31.216.673.637.571l2.302-.552 7.566-7.248a1.518 1.518 0 0 0 0-2.215 1.74 1.74 0 0 0-2.373 0ZM2.03 11.736a.5.5 0 0 1 .014-.079l.61-2.33a.5.5 0 0 1 .137-.235l7.664-7.346c1.038-.995 2.714-.994 3.756-.001l.002.002a2.518 2.518 0 0 1 0 3.658l-7.665 7.341a.5.5 0 0 1-.229.126l-2.432.583c-1.05.254-2.084-.633-1.857-1.719ZM1 14.5a.5.5 0 0 1 .5-.5h13a.5.5 0 0 1 0 1h-13a.5.5 0 0 1-.5-.5Z" clip-rule="evenodd"/>
</svg>
