<svg xmlns="http://www.w3.org/2000/svg" width="16" height="16" fill="currentColor" viewBox="0 0 16 16">
  <path fill-rule="evenodd" d="m5.486 8.672 6.288-6.29a1.302 1.302 0 0 1 1.842 0h.002c.51.51.51 1.337 0 1.847L7.33 10.514l-1.892.475a.353.353 0 0 1-.427-.426l.475-1.891Zm5.581-6.997a2.306 2.306 0 0 1 3.258 3.261L7.939 11.32a.5.5 0 0 1-.232.131l-2.027.51h-.002a1.353 1.353 0 0 1-1.638-1.638v-.001l.51-2.027a.5.5 0 0 1 .131-.231l6.386-6.388ZM3.061 1.5A2.06 2.06 0 0 0 1 3.561v9.378A2.06 2.06 0 0 0 3.061 15h9.378a2.06 2.06 0 0 0 2.061-2.061v-3.91a.5.5 0 0 0-1 0v3.91A1.06 1.06 0 0 1 12.439 14H3.06A1.06 1.06 0 0 1 2 12.939V3.56A1.06 1.06 0 0 1 3.061 2.5h3.91a.5.5 0 0 0 0-1h-3.91Z" clip-rule="evenodd"/>
</svg>
