<svg xmlns="http://www.w3.org/2000/svg" width="16" height="16" fill="currentColor" viewBox="0 0 16 16">
  <path fill-rule="evenodd" d="m3.585 9.716 7.562-7.248a1.739 1.739 0 0 1 2.373 0c.64.618.639 1.603 0 2.215L5.955 11.93l-2.301.552h-.001c-.42.102-.719-.26-.637-.571a.5.5 0 0 0 .013-.067l.557-2.129Zm-1.541 1.941a.501.501 0 0 0-.014.08c-.227 1.085.807 1.972 1.856 1.718h.001l2.432-.583a.5.5 0 0 0 .23-.126l7.663-7.341a2.518 2.518 0 0 0 .001-3.658l-.002-.002a2.738 2.738 0 0 0-3.756.001L2.79 9.092a.5.5 0 0 0-.138.235l-.61 2.33ZM1.5 14a.5.5 0 0 0 0 1h13a.5.5 0 1 0 0-1h-13Z" clip-rule="evenodd"/>
</svg>
