<svg xmlns="http://www.w3.org/2000/svg" width="16" height="16" fill="currentColor" viewBox="0 0 16 16">
  <path fill-rule="evenodd" d="m11.774 2.382-6.288 6.29-.475 1.89v.002a.353.353 0 0 0 .426.425l1.893-.475 6.287-6.285c.51-.51.51-1.337 0-1.847a1.302 1.302 0 0 0-1.843 0Zm2.551-.706a2.302 2.302 0 0 0-3.258 0L4.681 8.062a.5.5 0 0 0-.131.231l-.51 2.027v.001a1.353 1.353 0 0 0 1.638 1.638h.002l2.027-.51a.5.5 0 0 0 .232-.13l6.385-6.384c.901-.9.901-2.36.001-3.26Z" clip-rule="evenodd"/>
  <path fill-rule="evenodd" d="M1 3.561A2.06 2.06 0 0 1 3.061 1.5h3.91a.5.5 0 0 1 0 1h-3.91A1.06 1.06 0 0 0 2 3.561v9.378A1.06 1.06 0 0 0 3.061 14h9.378a1.06 1.06 0 0 0 1.061-1.061v-3.91a.5.5 0 0 1 1 0v3.91A2.06 2.06 0 0 1 12.439 15H3.06A2.06 2.06 0 0 1 1 12.939V3.56Z" clip-rule="evenodd"/>
</svg>
