<svg xmlns="http://www.w3.org/2000/svg" width="16" height="16" fill="currentColor" viewBox="0 0 16 16">
  <path d="M7.865 3.018a.5.5 0 0 1 .314.015l6.5 2.488a.5.5 0 0 1 .002.934l-2.181.842v3.305c0 .83-.69 1.43-1.456 1.794C10.24 12.778 9.163 13 8 13s-2.239-.222-3.043-.604c-.767-.363-1.457-.964-1.457-1.794V7.297l-1-.387v3.395a.5.5 0 0 1-1 0v-3.78l-.18-.07a.501.501 0 0 1 .001-.934l6.5-2.488.044-.015ZM4.5 10.602c0 .22.205.569.885.891C6.027 11.798 6.95 12 8 12c1.049 0 1.973-.202 2.615-.507.68-.322.885-.67.885-.89v-2.92L8.18 8.967a.5.5 0 0 1-.36 0L4.5 7.683v2.92ZM2.893 5.99 8 7.964l5.107-1.974L8 4.035 2.893 5.99Z"/>
</svg>
