<svg xmlns="http://www.w3.org/2000/svg" width="16" height="16" fill="currentColor" viewBox="0 0 16 16">
  <path d="M3.146 12.146a.5.5 0 1 1 .708.707L2.707 14H3a.5.5 0 0 1 0 1H1.5a.5.5 0 0 1-.5-.5V13a.5.5 0 0 1 1 0v.293l1.146-1.146Zm9 0a.5.5 0 0 1 .707 0L14 13.293V13a.5.5 0 0 1 1 0v1.5a.5.5 0 0 1-.5.5H13a.5.5 0 0 1 0-1h.293l-1.146-1.146a.5.5 0 0 1 0-.707Z"/>
  <path fill-rule="evenodd" d="M7.25 2.855a1.5 1.5 0 0 1 1.5 0l3.33 1.923a1.5 1.5 0 0 1 .75 1.3v3.845a1.5 1.5 0 0 1-.75 1.299l-3.33 1.923a1.5 1.5 0 0 1-1.5 0l-3.33-1.923a1.5 1.5 0 0 1-.75-1.3V6.078a1.5 1.5 0 0 1 .75-1.299l3.33-1.923Zm1 .867a.5.5 0 0 0-.5 0L4.42 5.645a.5.5 0 0 0-.25.432v3.846a.5.5 0 0 0 .25.432l3.33 1.923a.5.5 0 0 0 .5 0l3.33-1.923a.5.5 0 0 0 .25-.432V6.077a.5.5 0 0 0-.25-.432L8.25 3.722Z" clip-rule="evenodd"/>
  <path d="M3 1a.5.5 0 0 1 0 1h-.293l1.147 1.146a.5.5 0 0 1-.708.708L2 2.707V3a.5.5 0 0 1-1 0V1.5a.5.5 0 0 1 .5-.5H3Zm11.5 0a.5.5 0 0 1 .5.5V3a.5.5 0 0 1-1 0v-.293l-1.146 1.147a.5.5 0 1 1-.707-.708L13.293 2H13a.5.5 0 0 1 0-1h1.5Z"/>
</svg>
