<svg xmlns="http://www.w3.org/2000/svg" width="16" height="16" fill="currentColor" viewBox="0 0 16 16">
  <path d="M3.146 12.146a.5.5 0 1 1 .708.707L2.707 14H3a.5.5 0 0 1 0 1H1.5a.5.5 0 0 1-.5-.5V13a.5.5 0 0 1 1 0v.293l1.146-1.146Zm9 0a.5.5 0 0 1 .707 0L14 13.293V13a.5.5 0 0 1 1 0v1.5a.5.5 0 0 1-.5.5H13a.5.5 0 0 1 0-1h.293l-1.146-1.146a.5.5 0 0 1 0-.707Z"/>
  <path fill-rule="evenodd" d="M8 3c1.008 0 1.943.145 2.643.395.348.124.665.284.904.486.06.051.119.108.173.17A.5.5 0 0 1 12 4.5v6.747c0 .377-.214.669-.452.87-.24.203-.556.363-.904.487-.7.25-1.635.396-2.644.396-1.01 0-1.944-.146-2.644-.396-.348-.125-.665-.286-.904-.488-.237-.201-.452-.492-.452-.869V4.5a.5.5 0 0 1 .28-.449 1.63 1.63 0 0 1 .173-.17c.24-.202.556-.362.904-.486C6.057 3.145 6.992 3 8 3Zm3 2.958a4.014 4.014 0 0 1-.357.147c-.7.25-1.635.395-2.643.395-1.008 0-1.943-.145-2.643-.395A4.012 4.012 0 0 1 5 5.958v5.28c.003.01.02.05.098.114.115.098.31.208.595.31C6.26 11.865 7.075 12 8 12c.926 0 1.741-.134 2.307-.337.285-.102.48-.212.595-.309.102-.086.1-.127.098-.115V5.958ZM8 4c-.925 0-1.74.135-2.307.337-.285.102-.48.212-.595.309a.373.373 0 0 0-.095.104.373.373 0 0 0 .095.104c.114.097.31.207.595.31.567.2 1.382.336 2.307.336s1.74-.135 2.307-.337c.285-.102.48-.212.595-.309a.37.37 0 0 0 .094-.104.37.37 0 0 0-.094-.104c-.114-.097-.31-.207-.595-.31C9.74 4.136 8.925 4 8 4Z" clip-rule="evenodd"/>
  <path d="M3 1a.5.5 0 0 1 0 1h-.293l1.147 1.146a.5.5 0 0 1-.708.708L2 2.707V3a.5.5 0 0 1-1 0V1.5a.5.5 0 0 1 .5-.5H3Zm11.5 0a.5.5 0 0 1 .5.5V3a.5.5 0 0 1-1 0v-.293l-1.146 1.147a.5.5 0 1 1-.707-.708L13.293 2H13a.5.5 0 0 1 0-1h1.5Z"/>
</svg>
