<svg xmlns="http://www.w3.org/2000/svg" width="16" height="16" fill="currentColor" viewBox="0 0 16 16">
  <path d="M11.5 8a3.5 3.5 0 1 1 0 7 3.5 3.5 0 0 1 0-7Zm0 1a2.5 2.5 0 1 0 0 5 2.5 2.5 0 0 0 0-5ZM3 2a.5.5 0 0 1 0 1h-.25c-.287 0-.48.08-.59.169a.418.418 0 0 0-.16.344V4.5h10v-.947c0-.231-.242-.553-.75-.553H11a.5.5 0 0 1 0-1h.25c.899 0 1.75.621 1.75 1.553V6.5a.5.5 0 0 1-1 0v-1H2v6.885c0 .31.268.596.646.596H6.5a.5.5 0 0 1 0 1H2.646c-.89 0-1.646-.694-1.646-1.596V3.513c0-.452.193-.848.528-1.12C1.855 2.127 2.288 2 2.75 2H3Zm9.207 8.086a.5.5 0 0 1 .707.707l-.707.707.707.707a.5.5 0 0 1-.707.707l-.707-.707-.707.707a.5.5 0 0 1-.707-.707l.707-.707-.707-.707a.5.5 0 0 1 .707-.707l.707.707.707-.707ZM9.014 1a.5.5 0 0 1 .5.5v1.983a.5.5 0 0 1-1 0v-.49h-2.99v.49a.5.5 0 0 1-1 0V1.5a.5.5 0 0 1 1 0v.492h2.99V1.5a.5.5 0 0 1 .5-.5Z"/>
</svg>
