<svg xmlns="http://www.w3.org/2000/svg" width="16" height="16" fill="currentColor" viewBox="0 0 16 16">
  <path fill-rule="evenodd" d="M4.5 2a1 1 0 0 1 1-1H13a1 1 0 0 1 1 1v12.5a.5.5 0 0 1-.5.5h-11a.5.5 0 0 1-.5-.5V7.058a1 1 0 0 1 1.11-.993l1.39.154V2ZM3 14h4.5V7.557L3 7.058V14Zm5.5 0H13V2H5.5v4.33l2.11.233a1 1 0 0 1 .89.994V14Zm2-11a.5.5 0 0 0 0 1h1a.5.5 0 0 0 0-1h-1ZM10 5.5a.5.5 0 0 1 .5-.5h1a.5.5 0 0 1 0 1h-1a.5.5 0 0 1-.5-.5Zm.5 1.5a.5.5 0 0 0 0 1h1a.5.5 0 0 0 0-1h-1ZM10 9.5a.5.5 0 0 1 .5-.5h1a.5.5 0 0 1 0 1h-1a.5.5 0 0 1-.5-.5Zm.5 1.5a.5.5 0 0 0 0 1h1a.5.5 0 0 0 0-1h-1Zm-4-7.5A.5.5 0 0 1 7 3h1a.5.5 0 0 1 0 1H7a.5.5 0 0 1-.5-.5ZM4 8.5a.5.5 0 0 0 0 1h.5a.5.5 0 0 0 0-1H4ZM3.5 11a.5.5 0 0 1 .5-.5h.5a.5.5 0 0 1 0 1H4a.5.5 0 0 1-.5-.5ZM6 8.5a.5.5 0 0 0 0 1h.5a.5.5 0 0 0 0-1H6ZM5.5 11a.5.5 0 0 1 .5-.5h.5a.5.5 0 0 1 0 1H6a.5.5 0 0 1-.5-.5ZM7 5a.5.5 0 0 0 0 1h1a.5.5 0 0 0 0-1H7Z" clip-rule="evenodd"/>
</svg>
