<svg xmlns="http://www.w3.org/2000/svg" width="16" height="16" fill="currentColor" viewBox="0 0 16 16">
  <path d="M2.5 12.475a.5.5 0 0 1 .5.5v.277c0 .135.086.316.306.486.216.168.485.262.694.262a.5.5 0 0 1 0 1c-.462 0-.943-.188-1.309-.472-.363-.282-.691-.725-.691-1.276v-.277a.5.5 0 0 1 .5-.5Zm8-5.975a1 1 0 0 1 1 1v2.833l2.72-.791a1 1 0 0 1 1.28.96V14a1 1 0 0 1-1 1h-8a1 1 0 0 1-1-1V7.5a1 1 0 0 1 1-1h4Zm-4 6V14h4v-1.5h-4Zm5-1.125V14h3v-3.498l-3 .873ZM2.5 9a.5.5 0 0 1 .5.5V11h.5a.5.5 0 0 1 0 1h-2a.5.5 0 0 1 0-1H2V9.5a.5.5 0 0 1 .5-.5Zm4 2.5h4V10h-4v1.5Zm0-2.5h4V7.5h-4V9Zm-4-3.5A.5.5 0 0 1 3 6v1.5h.5a.5.5 0 0 1 0 1h-2a.5.5 0 0 1 0-1H2V6a.5.5 0 0 1 .5-.5ZM11.78 1c.956 0 1.72.797 1.72 1.748V7a.5.5 0 0 1-1 0V2.748A.74.74 0 0 0 11.78 2H3.721A.74.74 0 0 0 3 2.748V4h.5l.052.003a.5.5 0 0 1 0 .995L3.5 5h-2a.5.5 0 0 1 0-1H2V2.748C2 1.796 2.764 1 3.722 1h8.057Z"/>
</svg>
