<svg xmlns="http://www.w3.org/2000/svg" width="16" height="16" fill="currentColor" viewBox="0 0 16 16">
  <path fill-rule="evenodd" d="M2 14.5a.5.5 0 0 1 .5-.5h11a.5.5 0 0 1 0 1h-11a.5.5 0 0 1-.5-.5ZM14.044 4.324a1.5 1.5 0 0 1 .02 2.132l-6.546 6.602a1.5 1.5 0 0 1-2.118.011l-2.952-2.913a1.5 1.5 0 0 1-.014-2.121l6.51-6.591a1.5 1.5 0 0 1 2.112-.022l2.988 2.902Zm-.69 1.428a.5.5 0 0 0-.007-.71l-2.988-2.903a.5.5 0 0 0-.704.008l-6.51 6.59a.5.5 0 0 0 .005.707l2.952 2.913a.5.5 0 0 0 .706-.003l6.546-6.602Z" clip-rule="evenodd"/>
  <path fill-rule="evenodd" d="m8.632 11.37-4.531-4.5.704-.71 4.532 4.5-.705.71Z" clip-rule="evenodd"/>
</svg>
