<svg xmlns="http://www.w3.org/2000/svg" width="16" height="16" fill="currentColor" viewBox="0 0 16 16">
  <path fill-rule="evenodd" d="M5.692 1c-.376 0-.742.149-1.01.422L1.42 4.684A1.42 1.42 0 0 0 1 5.692v4.615c0 .377.149.743.422 1.01l3.262 3.263c.268.268.627.42 1.008.42h4.615c.377 0 .743-.149 1.01-.422l3.263-3.262a1.42 1.42 0 0 0 .42-1.009V5.692c0-.376-.149-.742-.422-1.01L11.316 1.42A1.42 1.42 0 0 0 10.307 1H5.692Zm-.296 1.123A.413.413 0 0 1 5.692 2h4.615c.111 0 .217.043.302.127l3.264 3.264.004.005a.413.413 0 0 1 .123.296v4.615a.42.42 0 0 1-.127.302l-3.264 3.264-.005.004a.413.413 0 0 1-.296.123H5.692a.42.42 0 0 1-.302-.127l-3.264-3.264-.004-.005A.413.413 0 0 1 2 10.308V5.692a.42.42 0 0 1 .127-.302l3.264-3.264.005-.004Zm.25 3.523a.5.5 0 0 1 .708 0L8 7.293l1.646-1.647a.5.5 0 0 1 .708.708L8.707 8l1.647 1.646a.5.5 0 0 1-.708.708L8 8.707l-1.646 1.647a.5.5 0 0 1-.708-.708L7.293 8 5.646 6.354a.5.5 0 0 1 0-.708Z" clip-rule="evenodd"/>
</svg>
