<svg xmlns="http://www.w3.org/2000/svg" width="16" height="16" fill="currentColor" viewBox="0 0 16 16">
  <path fill-rule="evenodd" d="M5.515 1h4.97c.265 0 .515.105.705.295l3.515 3.515c.19.185.295.44.295.705v4.97a.992.992 0 0 1-.295.705l-3.515 3.515a.983.983 0 0 1-.705.295h-4.97a.992.992 0 0 1-.705-.295L1.295 11.19A.983.983 0 0 1 1 10.485v-4.97c0-.265.105-.515.295-.705L4.81 1.295A.983.983 0 0 1 5.515 1Zm.131 4.646a.5.5 0 0 1 .708 0L8 7.293l1.646-1.647a.5.5 0 0 1 .708.708L8.707 8l1.647 1.646a.5.5 0 0 1-.708.708L8 8.707l-1.646 1.647a.5.5 0 0 1-.708-.708L7.293 8 5.646 6.354a.5.5 0 0 1 0-.708Z" clip-rule="evenodd"/>
</svg>
