<svg xmlns="http://www.w3.org/2000/svg" width="16" height="16" fill="currentColor" viewBox="0 0 16 16">
  <g clip-path="url(#a)">
    <path fill-rule="evenodd" d="M10.18.967a.5.5 0 0 0 0 1h3.146l-3.68 3.68a.5.5 0 1 0 .708.707l3.68-3.68V5.82a.5.5 0 0 0 1 0V1.967a1 1 0 0 0-1-1h-3.855ZM1.466 9.679a.5.5 0 0 1 .5.5v3.147l3.68-3.68a.5.5 0 1 1 .707.708l-3.68 3.68H5.82a.5.5 0 0 1 0 1H1.967a1 1 0 0 1-1-1v-3.855a.5.5 0 0 1 .5-.5Z" clip-rule="evenodd"/>
  </g>
  <defs>
    <clipPath id="a">
      <path d="M0 0h16v16H0z"/>
    </clipPath>
  </defs>
</svg>
