<svg xmlns="http://www.w3.org/2000/svg" width="16" height="16" fill="currentColor" viewBox="0 0 16 16">
  <g clip-path="url(#a)">
    <path fill-rule="evenodd" d="M8 1.967a6.033 6.033 0 1 0 0 12.066A6.033 6.033 0 0 0 8 1.967ZM.967 8a7.033 7.033 0 1 1 14.066 0A7.033 7.033 0 0 1 .967 8Z" clip-rule="evenodd"/>
    <path fill-rule="evenodd" d="M11.322 4.678a.5.5 0 0 1 .106.55L9.65 9.388a.5.5 0 0 1-.814.157l-2.38-2.38a.5.5 0 0 1 .157-.814l4.158-1.778a.5.5 0 0 1 .55.106ZM7.686 6.98l1.335 1.335.997-2.332-2.332.997Z" clip-rule="evenodd"/>
    <path fill-rule="evenodd" d="M6.715 6.32a.5.5 0 0 1 .449.136l2.38 2.38a.5.5 0 0 1-.157.814l-4.158 1.778a.5.5 0 0 1-.657-.657L6.35 6.613a.5.5 0 0 1 .365-.294Zm.264 1.366-.997 2.332 2.332-.997-1.335-1.335Z" clip-rule="evenodd"/>
  </g>
  <defs>
    <clipPath id="a">
      <path d="M0 0h16v16H0z"/>
    </clipPath>
  </defs>
</svg>
