<svg xmlns="http://www.w3.org/2000/svg" width="16" height="16" fill="currentColor" viewBox="0 0 16 16">
  <g clip-path="url(#a)">
    <path d="M11.322 4.678a.5.5 0 0 1 .106.55L9.65 9.386"/>
    <path fill-rule="evenodd" d="M9.65 9.387a.5.5 0 0 1-.263.263l-4.158 1.778a.5.5 0 0 1-.657-.657L6.35 6.615a.5.5 0 0 1 .263-.265h.002l4.156-1.778a.5.5 0 0 1 .55.106M7.687 6.98l1.335 1.335.997-2.332-2.332.997Zm-.707.707-.997 2.332 2.332-.997L6.98 7.687Z" clip-rule="evenodd"/>
    <path fill-rule="evenodd" d="M.967 8a7.033 7.033 0 1 1 14.066 0A7.033 7.033 0 0 1 .967 8ZM8 1.967a6.033 6.033 0 1 0 0 12.066A6.033 6.033 0 0 0 8 1.967Z" clip-rule="evenodd"/>
  </g>
  <defs>
    <clipPath id="a">
      <path d="M0 0h16v16H0z"/>
    </clipPath>
  </defs>
</svg>
