<svg xmlns="http://www.w3.org/2000/svg" width="16" height="16" fill="currentColor" viewBox="0 0 16 16">
  <path d="M13.148 1C14.218 1 15 1.943 15 2.995V6a.5.5 0 0 1-1 0V5H2v8.035c0 .572.418.965.852.965H7.5a.5.5 0 0 1 0 1H2.852C1.79 15 1 14.08 1 13.035V2.995C1 1.943 1.782 1 2.853 1h10.295ZM13 7a.5.5 0 0 1 .5.5v1h1a.5.5 0 0 1 0 1H14v.994c0 1.21-.859 2.223-2 2.455V14.5a.5.5 0 0 1-1 0v-1.55a2.507 2.507 0 0 1-2-2.456V9.5h-.5a.5.5 0 0 1 0-1h1v-1a.5.5 0 0 1 1 0v1h2v-1A.5.5 0 0 1 13 7Zm-3 3.494c0 .832.674 1.506 1.5 1.506s1.5-.674 1.5-1.506V9.5h-3v.994Zm-7.228-8.49c-.397.047-.772.43-.772.991V4h12V2.995c0-.56-.375-.944-.773-.99L13.148 2H2.853a.702.702 0 0 0-.08.005Zm6.852.496c.208 0 .376.155.376.346v.308c0 .191-.168.346-.376.346h-.247L9.3 3.493a.393.393 0 0 1-.228-.136l-.015-.02a.335.335 0 0 1-.02-.033l-.012-.022A.32.32 0 0 1 9 3.154v-.308a.32.32 0 0 1 .008-.07.37.37 0 0 1 .369-.276h.247Zm1.5 0c.208 0 .376.155.376.346v.308c0 .191-.168.346-.376.346h-.247l-.076-.007a.394.394 0 0 1-.228-.136l-.015-.02a.35.35 0 0 1-.02-.033l-.012-.022a.32.32 0 0 1-.026-.128v-.308c0-.024.003-.047.008-.07a.37.37 0 0 1 .369-.276h.247Zm1.5 0c.208 0 .376.155.376.346v.308c0 .191-.168.346-.376.346h-.247l-.076-.007a.394.394 0 0 1-.228-.136l-.015-.02a.35.35 0 0 1-.02-.033l-.012-.022A.32.32 0 0 1 12 3.154v-.308c0-.024.003-.047.008-.07a.37.37 0 0 1 .369-.276h.247Z"/>
</svg>
