<svg xmlns="http://www.w3.org/2000/svg" width="16" height="16" fill="currentColor" viewBox="0 0 16 16">
  <path d="M12.294 8.46a1.592 1.592 0 0 1 2.241 0c.62.62.62 1.621 0 2.241l-3.832 3.83a.484.484 0 0 1-.23.13l-1.215.304c-.085.02-.165.03-.25.03V15c-.265 0-.52-.105-.71-.295a.991.991 0 0 1-.266-.96h-.005l.306-1.215c.02-.09.07-.17.13-.23l3.83-3.84Zm1.535.71a.58.58 0 0 0-.825 0l-3.736 3.735-.27 1.08v.005l1.1-.264 3.731-3.73a.589.589 0 0 0 0-.825ZM12.215 1C13.468 1 14.5 2 14.5 3.252V7a.5.5 0 0 1-1 0V3.252C13.5 2.57 12.934 2 12.215 2H3.286C2.566 2 2 2.57 2 3.252v5.693c0 .341.13.59.33.76.208.177.523.295.92.295H4a.5.5 0 0 1 .5.5v1.433l2.18-1.817A.5.5 0 0 1 7 10h1.5a.5.5 0 0 1 0 1H7.182l-2.183 1.818a.517.517 0 0 1-.045.034c-.353.233-.745.153-1.003-.02A1.016 1.016 0 0 1 3.5 12v-1h-.25c-.59 0-1.149-.176-1.57-.534A1.958 1.958 0 0 1 1 8.946V3.251C1 2 2.033 1 3.286 1h8.929Z"/>
</svg>
