<svg xmlns="http://www.w3.org/2000/svg" width="16" height="16" fill="currentColor" viewBox="0 0 16 16">
  <path d="M9.051 2.003a.5.5 0 0 1 0 .995L9.001 3H2.38c-.204 0-.318.099-.359.175A.162.162 0 0 0 2 3.272c.002.018.01.045.035.079l.03.036.01.01 3.788 4.015A.5.5 0 0 1 6 7.755v6.006c0 .002-.004.027.057.077a.783.783 0 0 0 .334.142c.15.029.295.025.404-.002.096-.023.127-.054.131-.06l.002-.004 1.573-2.548V7.755a.5.5 0 0 1 .145-.353l1-1.005a.5.5 0 0 1 .708.706l-.853.858v3.547a.501.501 0 0 1-.076.263l-1.643 2.664-.072.104c-.182.23-.44.352-.675.41a1.96 1.96 0 0 1-.838.011 1.774 1.774 0 0 1-.775-.349 1.094 1.094 0 0 1-.422-.85V7.953l-3.65-3.87v-.001a1.156 1.156 0 0 1-.208-1.383c.226-.418.686-.693 1.226-.698L2.378 2H9l.05.003ZM12.5 1a2.5 2.5 0 1 1-.002 5.002A2.5 2.5 0 0 1 12.5 1Z"/>
</svg>
