<svg xmlns="http://www.w3.org/2000/svg" width="16" height="16" fill="currentColor" viewBox="0 0 16 16">
  <path d="M12.145 1.49a1.671 1.671 0 0 1 2.365 0l.059.063a1.674 1.674 0 0 1-.06 2.304l-4.15 4.15a.5.5 0 0 1-.232.13l-1.318.331h-.001A1.055 1.055 0 0 1 7.53 7.193v-.001l.332-1.318a.5.5 0 0 1 .131-.231l4.15-4.152Zm1.656.706a.672.672 0 0 0-.95 0L8.798 6.252l-.297 1.182a.048.048 0 0 0 0 .026.06.06 0 0 0 .04.039h.026l1.182-.297 4.054-4.05a.674.674 0 0 0 0-.954H13.8Z"/>
  <path d="M8.5 10a.5.5 0 0 1 1 0v1.508a.5.5 0 0 1-.074.263L7.78 14.434h.001c-.18.299-.48.449-.747.515a1.96 1.96 0 0 1-.838.011 1.773 1.773 0 0 1-.774-.349 1.094 1.094 0 0 1-.423-.85V7.953l-3.651-3.87v-.001a1.156 1.156 0 0 1-.207-1.383c.226-.418.686-.694 1.225-.699H9l.051.002a.5.5 0 0 1 0 .996L9.001 3H2.38c-.205 0-.318.098-.359.174A.161.161 0 0 0 2 3.272a.17.17 0 0 0 .034.079l.031.035.01.01 3.788 4.016A.5.5 0 0 1 6 7.755v6.006c0 .002-.004.027.057.077a.784.784 0 0 0 .334.141c.15.03.295.026.404 0 .098-.025.127-.057.131-.061l.002-.004L8.5 11.366V10Z"/>
</svg>
