<svg xmlns="http://www.w3.org/2000/svg" width="16" height="16" fill="currentColor" viewBox="0 0 16 16">
  <path fill-rule="evenodd" d="m2.082 2.485 4.276 4.157A.5.5 0 0 1 6.51 7v6.71c0 .074.06.212.328.271.261.059.5-.022.61-.163l.006-.006 2.036-2.516V7.25a.5.5 0 0 1 .142-.349l4.279-4.408.005-.005c.06-.06.078-.111.082-.146a.213.213 0 0 0-.027-.13c-.052-.097-.19-.211-.426-.211H2.455c-.236 0-.374.114-.426.21a.213.213 0 0 0-.027.13.254.254 0 0 0 .08.145ZM13.545 1c.576 0 1.066.292 1.305.734a1.21 1.21 0 0 1-.224 1.457l-4.136 4.26v4.022a.5.5 0 0 1-.111.315l-2.146 2.65c-.414.524-1.09.636-1.613.52-.516-.116-1.11-.52-1.11-1.248v-6.5L1.377 3.194a1.21 1.21 0 0 1-.227-1.46c.238-.44.723-.73 1.295-.734h11.1Z" clip-rule="evenodd"/>
</svg>
