<svg xmlns="http://www.w3.org/2000/svg" width="16" height="16" fill="currentColor" viewBox="0 0 16 16">
  <path d="M13.119 1.5c.545 0 1.01.277 1.238.699.236.435.19.987-.216 1.394l-.012.011L10 7.471v3.537a.5.5 0 0 1-.075.263l-1.644 2.663c-.18.299-.479.449-.747.515a1.96 1.96 0 0 1-.838.011 1.773 1.773 0 0 1-.774-.349 1.094 1.094 0 0 1-.423-.85V7.453l-3.65-3.87v-.001a1.156 1.156 0 0 1-.207-1.383c.226-.418.685-.694 1.225-.699h10.25ZM6.5 13.26c0 .003-.004.028.057.078a.784.784 0 0 0 .335.141c.149.03.294.026.403 0 .098-.025.127-.057.131-.061l.003-.004L9 10.866V7.255a.5.5 0 0 1 .159-.365l4.277-4.008c.047-.048.06-.086.063-.11a.161.161 0 0 0-.022-.098c-.04-.076-.154-.174-.358-.174H2.88c-.204 0-.318.098-.359.174a.161.161 0 0 0-.021.098.17.17 0 0 0 .035.079l.03.035.01.01 3.788 4.016a.5.5 0 0 1 .136.343v6.006Z"/>
</svg>
