<svg xmlns="http://www.w3.org/2000/svg" width="16" height="16" fill="none" viewBox="0 0 16 16">
  <path fill="#3D3C3C" fill-rule="evenodd" d="m6.349 6.634-4.267-4.15a.254.254 0 0 1-.08-.144.213.213 0 0 1 .027-.131c.052-.096.19-.21.427-.21H10.5a.5.5 0 1 0 0-.999H2.446c-.572.003-1.058.294-1.296.733-.247.456-.2 1.033.228 1.46L5.5 7.201v6.53c0 .736.611 1.129 1.13 1.233.524.106 1.2-.016 1.61-.535l2.148-2.63a.501.501 0 0 0 .112-.315V9.488a.5.5 0 0 0-1 0v1.819l-2.037 2.495-.005.007c-.115.146-.363.231-.631.177-.276-.055-.327-.19-.327-.255v-6.74a.499.499 0 0 0-.151-.357Zm1.949 1.071c.19.19.445.295.71.295v-.005c.085 0 .165-.01.25-.03l1.215-.305a.484.484 0 0 0 .23-.13l3.832-3.83a1.58 1.58 0 0 0 0-2.239 1.592 1.592 0 0 0-2.241 0l-3.831 3.84c-.06.06-.11.14-.13.23l-.306 1.214h.005a.99.99 0 0 0 .266.96Zm.7-.715v-.005l.27-1.08 3.736-3.734a.58.58 0 0 1 .826 0c.225.23.225.6 0 .825l-3.732 3.73-1.1.264Z" clip-rule="evenodd"/>
</svg>
