<svg xmlns="http://www.w3.org/2000/svg" width="16" height="16" fill="currentColor" viewBox="0 0 16 16">
  <path fill-rule="evenodd" d="M1 14.5a.5.5 0 0 1 .5-.5h13a.5.5 0 0 1 0 1h-13a.5.5 0 0 1-.5-.5ZM8.977 1.328l5.473 4.199c.543.416.67 1.056.442 1.587-.221.519-.755.886-1.42.886H2.525c-.663 0-1.195-.369-1.416-.886-.227-.53-.103-1.169.437-1.586h.001l5.43-4.166a1.63 1.63 0 0 1 2.001-.034Zm-1.318.768a.503.503 0 0 1-.03.025L2.157 6.32c-.17.131-.18.28-.129.4.058.135.217.28.497.28h10.949c.283 0 .443-.147.5-.28.051-.119.041-.267-.131-.4l-5.477-4.2a.635.635 0 0 0-.706-.024Z" clip-rule="evenodd"/>
  <path fill-rule="evenodd" d="M8 7a.5.5 0 0 1 .5.5v7a.5.5 0 0 1-1 0v-7A.5.5 0 0 1 8 7ZM3 7a.5.5 0 0 1 .5.5v7a.5.5 0 0 1-1 0v-7A.5.5 0 0 1 3 7Zm10 0a.5.5 0 0 1 .5.5v7a.5.5 0 0 1-1 0v-7A.5.5 0 0 1 13 7Z" clip-rule="evenodd"/>
</svg>
