<svg xmlns="http://www.w3.org/2000/svg" width="16" height="16" fill="currentColor" viewBox="0 0 16 16">
  <path fill-rule="evenodd" d="m8.977 1.328 5.473 4.199c.543.416.67 1.056.442 1.587-.218.512-.74.876-1.392.886v6h1a.5.5 0 0 1 0 1h-13a.5.5 0 0 1 0-1h1V8c-.652-.009-1.173-.375-1.392-.886-.227-.53-.103-1.169.437-1.586h.001l5.43-4.166a1.63 1.63 0 0 1 2.001-.034ZM12.5 14V8h-4v6h4Zm.5-7h.473c.283 0 .443-.147.5-.28.051-.119.041-.267-.131-.4l-5.477-4.2a.635.635 0 0 0-.706-.024.503.503 0 0 1-.03.025L2.157 6.32c-.17.131-.18.28-.129.4.058.135.217.28.497.28H13Zm-5.5 7h-4V8h4v6Z" clip-rule="evenodd"/>
</svg>
