<svg xmlns="http://www.w3.org/2000/svg" width="16" height="16" fill="currentColor" viewBox="0 0 16 16">
  <path fill-rule="evenodd" d="M5.521 1c1.166.008 2.17.686 2.864 1.677.563.805.942 1.84 1.068 2.981.039-.054.082-.115.129-.185.216-.324.593-.943 1.365-.97A.5.5 0 0 1 11.5 5c0 1.113.32 1.644.679 2.242.39.652.821 1.371.821 2.757l-.006.257a4.995 4.995 0 0 1-4.736 4.736L8 15h-.5l-.258-.007a4.995 4.995 0 0 1-4.736-4.736L2.5 10c0-1.906 1.211-3.14 1.992-4.225.407-.566.725-1.108.857-1.736.13-.617.088-1.365-.312-2.35a.5.5 0 0 1 .25-.64c.007-.004.015-.009.023-.012h.002l.017-.007.022-.008.009-.002a.498.498 0 0 1 .083-.017l.008-.001A.498.498 0 0 1 5.52 1Zm2.837 8.069A2.998 2.998 0 0 0 6 12l.002.104c.045 1.004.731 1.79 1.778 1.886.547-.036.977-.173 1.268-.354.297-.185.42-.387.447-.563L9.5 13c0-.716-.318-1-.718-1.649a2.989 2.989 0 0 1-.45-1.192c-.046-.322-.04-.68.026-1.09ZM6.243 2.143c.206.783.216 1.472.084 2.102-.175.832-.59 1.512-1.024 2.114C4.403 7.612 3.5 8.505 3.5 10l.005.206a3.992 3.992 0 0 0 1.788 3.131c-.17-.36-.27-.76-.29-1.184L5 12a3.997 3.997 0 0 1 4.049-3.998l.012.002a.498.498 0 0 1 .035.005l.023.006.02.005.01.002.032.012.007.003.032.014.015.008.023.013.02.012.011.009a.497.497 0 0 1 .205.333c0 .006.002.011.003.017l.001.025.002.028V8.5l-.001.016-.001.028a.498.498 0 0 1-.015.081c0 .005-.002.01-.003.014-.181.627-.203 1.06-.158 1.381.044.316.158.559.31.805.295.477.868 1.092.868 2.175l-.004.118-.002.01a3.988 3.988 0 0 0 1.5-2.922L12 10c0-1.114-.32-1.645-.679-2.243-.305-.509-.633-1.06-.763-1.937a7.12 7.12 0 0 0-.144.207C10.195 6.356 9.806 7 9 7a.5.5 0 0 1-.498-.45L8.5 6.5c0-1.292-.367-2.439-.934-3.25-.38-.542-.836-.917-1.323-1.107Z" clip-rule="evenodd"/>
</svg>
