<svg xmlns="http://www.w3.org/2000/svg" width="16" height="16" fill="none" viewBox="0 0 16 16">
  <path fill="#3D3C3C" d="M12.993 2H3.006a.503.503 0 0 0-.506.5v6.401h10.482a.5.5 0 0 0 .37-.84l-1.98-2.098a.495.495 0 0 1-.023-.655l2.038-2.494A.5.5 0 0 0 12.993 2Z"/>
  <path fill="#3D3C3C" fill-rule="evenodd" d="M2 2.5c0-.552.453-1 1.012-1h9.975c.85 0 1.32.974.787 1.628l-2.036 2.494 1.978 2.097c.602.64.144 1.781-.74 1.781H3.012v5c0 .276-.227.5-.506.5A.503.503 0 0 1 2 14.5v-12Zm1.012 5.901h9.964l-1.978-2.097a.991.991 0 0 1-.047-1.31L12.987 2.5H3.012v5.901Z" clip-rule="evenodd"/>
</svg>
