<svg xmlns="http://www.w3.org/2000/svg" width="16" height="16" fill="currentColor" viewBox="0 0 16 16">
  <path d="M11.145 8a3.145 3.145 0 1 0-6.29 0 3.145 3.145 0 0 0 6.29 0Zm1 0a4.145 4.145 0 1 1-8.29 0 4.145 4.145 0 0 1 8.29 0ZM12 1.5a.5.5 0 0 1 1 0v2a.5.5 0 0 1-.5.5h-2a.5.5 0 0 1 0-1H12V1.5Zm-9 13v-2a.5.5 0 0 1 .5-.5h2a.5.5 0 0 1 0 1H4v1.5a.5.5 0 0 1-1 0Z"/>
  <path d="M1 8c0-3.867 3.133-7 7-7 1.908 0 3.57.614 4.854 1.896a.5.5 0 1 1-.707.708C11.076 2.534 9.68 2 8 2a5.998 5.998 0 0 0-5.196 9 .5.5 0 0 1-.866.5A6.97 6.97 0 0 1 1 8Zm13 0a5.97 5.97 0 0 0-.804-3 .5.5 0 0 1 .866-.5A6.998 6.998 0 0 1 8 15c-1.908 0-3.57-.614-4.854-1.896a.5.5 0 1 1 .708-.707C4.924 13.466 6.32 14 8 14c3.315 0 6-2.685 6-6Z"/>
  <path d="M10.5 8a.5.5 0 0 1-.25.433l-3 1.732a.5.5 0 0 1-.75-.433V6.268a.5.5 0 0 1 .75-.433l3 1.732A.5.5 0 0 1 10.5 8Zm-3-.866v1.732L9 8l-1.5-.866Z"/>
</svg>
