<svg xmlns="http://www.w3.org/2000/svg" width="16" height="16" fill="currentColor" viewBox="0 0 16 16">
  <path fill-rule="evenodd" d="M4 3a1 1 0 1 0 0 2 1 1 0 0 0 0-2ZM2 4a2 2 0 0 1 3.937-.5h4.126a2 2 0 1 1 1.261 2.383l-5.81 5.81a2 2 0 0 1 .423.807H10V12a1 1 0 0 1 1-1h2a1 1 0 0 1 1 1v2a1 1 0 0 1-1 1h-2a1 1 0 0 1-1-1v-.5H5.937a2 2 0 1 1-1.261-2.383l5.81-5.81a1.995 1.995 0 0 1-.423-.807H5.937A2 2 0 0 1 2 4Zm9 9.5v.5h2v-2h-2v1.5ZM11 4a1 1 0 1 0 2 0 1 1 0 0 0-2 0Zm-8 9a1 1 0 1 1 2 0 1 1 0 0 1-2 0Z" clip-rule="evenodd"/>
</svg>
