<svg xmlns="http://www.w3.org/2000/svg" width="16" height="16" fill="currentColor" viewBox="0 0 16 16">
  <path fill-rule="evenodd" d="M2.352 1.5C1.604 1.5 1 2.112 1 2.857v10.286c0 .744.604 1.357 1.352 1.357H6.5a.5.5 0 0 0 0-1H4V6.842c0-.185.155-.342.346-.342h9.308c.191 0 .346.157.346.342V7a.5.5 0 0 0 1 0v-.158c0-.741-.607-1.342-1.346-1.342H13.5V5c0-.402-.205-.771-.456-1.027-.252-.257-.623-.473-1.044-.473H7.82l-.537-1.158A1.352 1.352 0 0 0 6.032 1.5h-3.68Zm10.148 4V5c0-.069-.045-.2-.17-.327-.122-.125-.251-.173-.33-.173H7.5a.5.5 0 0 1-.454-.29L6.37 2.75a.503.503 0 0 1-.011-.027.352.352 0 0 0-.327-.223h-3.68A.357.357 0 0 0 2 2.857v10.286c0 .198.162.357.352.357H3V6.842C3 6.101 3.607 5.5 4.346 5.5H12.5Zm.16 2.134a.5.5 0 0 1 .706.026l1.5 1.615a.5.5 0 0 1-.027.708l-1.5 1.384a.5.5 0 1 1-.678-.734l.684-.632L10 10a.5.5 0 1 1 0-1h3.247l-.613-.66a.5.5 0 0 1 .026-.706Zm-1.82 7.232a.5.5 0 0 1-.706-.026l-1.5-1.615a.5.5 0 0 1 .027-.708l1.5-1.384a.5.5 0 1 1 .678.734l-.684.632 3.345.001a.5.5 0 1 1 0 1h-3.247l.613.66a.5.5 0 0 1-.026.706Z" clip-rule="evenodd"/>
</svg>
