<svg xmlns="http://www.w3.org/2000/svg" width="16" height="16" fill="currentColor" viewBox="0 0 16 16">
  <path fill-rule="evenodd" d="M1 2.857C1 2.112 1.604 1.5 2.352 1.5h3.68a1.35 1.35 0 0 1 1.251.842L7.82 3.5H12c.421 0 .792.216 1.044.473.251.256.456.625.456 1.027v.5h.154c.74 0 1.346.6 1.346 1.342V7a.5.5 0 0 1-1 0v-.158a.347.347 0 0 0-.346-.342H4.346A.347.347 0 0 0 4 6.842V13.5h3a.5.5 0 0 1 0 1H2.352A1.357 1.357 0 0 1 1 13.143V2.857ZM12.5 5v.5H4.346C3.606 5.5 3 6.1 3 6.842V13.5h-.648A.357.357 0 0 1 2 13.143V2.857c0-.198.162-.357.352-.357h3.68c.144 0 .274.089.327.223l.011.027.676 1.46a.5.5 0 0 0 .454.29H12c.079 0 .208.048.33.173.125.127.17.258.17.327Zm-3 7.727V9.183c.002-.274.335-.683 1.002-.683.669 0 .999.41.999.681v3.244a.107.107 0 0 1-.03.03.365.365 0 0 1-.221.067.365.365 0 0 1-.222-.066.107.107 0 0 1-.029-.031V9.773a.5.5 0 1 0-1 0v2.657c0 .708.677 1.092 1.251 1.092.574 0 1.251-.384 1.251-1.092V9.181c0-1.033-1.013-1.681-1.999-1.681-.987 0-1.997.649-2.002 1.679v3.548C8.5 14.087 9.849 15 11.25 15S14 14.087 14 12.727V10a.5.5 0 0 0-1 0v2.727c0 .599-.666 1.273-1.75 1.273s-1.75-.674-1.75-1.273Z" clip-rule="evenodd"/>
</svg>
