<svg xmlns="http://www.w3.org/2000/svg" width="16" height="16" fill="currentColor" viewBox="0 0 16 16">
  <path fill-rule="evenodd" d="M2.15 3c-.08 0-.15.066-.15.154v9.187c0 .095.072.159.15.159h11.7c.075 0 .15-.066.15-.159V4.695a.153.153 0 0 0-.15-.158H6.408c-.366 0-.714-.152-.967-.404L5.44 4.13 4.43 3.106A.356.356 0 0 0 4.174 3H2.15ZM15 4.695c0-.64-.513-1.158-1.15-1.158H6.408a.376.376 0 0 1-.259-.11l-1.005-1.02A1.356 1.356 0 0 0 4.174 2H2.15C1.515 2 1 2.516 1 3.154v9.187c0 .64.513 1.159 1.15 1.159h11.7A1.156 1.156 0 0 0 15 12.35V4.696Z" clip-rule="evenodd"/>
</svg>
