<svg xmlns="http://www.w3.org/2000/svg" width="16" height="16" fill="currentColor" viewBox="0 0 16 16">
  <path fill-rule="evenodd" d="M1 2.857C1 2.112 1.604 1.5 2.352 1.5h3.68a1.35 1.35 0 0 1 1.251.842L7.82 3.5H12c.421 0 .792.216 1.044.473.251.256.456.625.456 1.027v.5h.154c.74 0 1.346.6 1.346 1.342V7a.5.5 0 0 1-1 0v-.158a.347.347 0 0 0-.346-.342H4.346A.347.347 0 0 0 4 6.842V13.5h2.5a.5.5 0 0 1 0 1H2.352A1.357 1.357 0 0 1 1 13.143V2.857ZM3 13.5V6.842C3 6.101 3.607 5.5 4.346 5.5H12.5V5c0-.069-.045-.2-.17-.327-.122-.125-.251-.173-.33-.173H7.5a.5.5 0 0 1-.454-.29L6.37 2.75a.503.503 0 0 1-.011-.027.352.352 0 0 0-.327-.223h-3.68A.357.357 0 0 0 2 2.857v10.286c0 .198.162.357.352.357H3Zm8.03-4.305a2.5 2.5 0 0 1 2.965 3.812L11.03 9.195Zm-.827.567a2.5 2.5 0 0 0 3.04 3.908l-3.04-3.908ZM12 8a3.5 3.5 0 1 0 0 7 3.5 3.5 0 0 0 0-7Z" clip-rule="evenodd"/>
</svg>
