<svg xmlns="http://www.w3.org/2000/svg" width="16" height="16" fill="currentColor" viewBox="0 0 16 16">
  <path fill-rule="evenodd" d="M4.346 1C3.592 1 3 1.628 3 2.37V3a.5.5 0 0 0 1 0v-.63c0-.216.17-.37.346-.37h2.962c.13 0 .182.03.227.067.066.057.15.17.268.407l.5 1a.5.5 0 0 0 .447.276h4.75c.139 0 .247.065.344.226.106.175.156.406.156.567V10.5a.5.5 0 0 0 1 0V4.543c0-.316-.087-.732-.3-1.084-.222-.367-.614-.709-1.2-.709H9.059l-.362-.724c-.131-.262-.287-.525-.512-.718A1.298 1.298 0 0 0 7.308 1H4.346Zm-2 3C1.592 4 1 4.628 1 5.37v8.26c0 .742.592 1.37 1.346 1.37h9.308c.754 0 1.346-.628 1.346-1.37V7.543c0-.316-.087-.732-.3-1.084-.222-.367-.614-.709-1.2-.709H7.059l-.362-.724c-.131-.262-.287-.525-.512-.718A1.298 1.298 0 0 0 5.308 4H2.346ZM2 5.37c0-.216.17-.37.346-.37h2.962c.13 0 .182.03.227.067.066.057.15.17.268.407l.5 1a.5.5 0 0 0 .447.276h4.75c.139 0 .247.065.344.226.106.175.156.406.156.567v6.087c0 .215-.17.37-.346.37H2.346A.361.361 0 0 1 2 13.63V5.37Z" clip-rule="evenodd"/>
</svg>
