<svg xmlns="http://www.w3.org/2000/svg" width="16" height="16" fill="currentColor" viewBox="0 0 16 16">
  <path fill-rule="evenodd" d="M2.352 1.5C1.604 1.5 1 2.112 1 2.857v10.286c0 .744.604 1.357 1.352 1.357H8.5a.5.5 0 0 0 0-1H4V6.842c0-.185.155-.342.346-.342h9.308c.191 0 .346.157.346.342V7a.5.5 0 0 0 1 0v-.158c0-.741-.607-1.342-1.346-1.342H13.5V5c0-.402-.205-.771-.456-1.027-.252-.257-.623-.473-1.044-.473H7.82l-.537-1.158A1.352 1.352 0 0 0 6.032 1.5h-3.68Zm10.148 4V5c0-.069-.045-.2-.17-.327-.122-.125-.251-.173-.33-.173H7.5a.5.5 0 0 1-.454-.29L6.37 2.75a.503.503 0 0 1-.011-.027.352.352 0 0 0-.327-.223h-3.68A.357.357 0 0 0 2 2.857v10.286c0 .198.162.357.352.357H3V6.842C3 6.101 3.607 5.5 4.346 5.5H12.5Zm0 3.5c-.513 0-1 .467-1 1.129v.396a19.673 19.673 0 0 1 2 0v-.396c0-.322-.121-.606-.31-.815A.931.931 0 0 0 12.5 9Zm1.986 1.618a.505.505 0 0 0 .014-.118v-.371c0-.582-.222-1.103-.57-1.488l-.004-.003A1.93 1.93 0 0 0 12.5 8c-1.14 0-2 .994-2 2.129v.371c0 .04.005.08.014.118a.712.712 0 0 0-.514.685v2.894c0 .341.244.655.609.704l.01.002c1.12.13 2.647.13 3.763 0l.012-.002a.71.71 0 0 0 .606-.704v-2.894a.709.709 0 0 0-.514-.685ZM11 13.937v-2.374a17.815 17.815 0 0 1 3 0v2.374c-.919.084-2.078.084-3 0Z" clip-rule="evenodd"/>
</svg>
