<svg xmlns="http://www.w3.org/2000/svg" width="16" height="16" fill="currentColor" viewBox="0 0 16 16">
  <path fill-rule="evenodd" d="M4.346 1.5C3.592 1.5 3 2.128 3 2.87v8.26c0 .742.592 1.37 1.346 1.37h9.308c.754 0 1.346-.628 1.346-1.37V5.043c0-.335-.104-.715-.354-1.022-.263-.321-.663-.531-1.174-.531H8.655v-.62c0-.742-.592-1.37-1.346-1.37H4.346ZM4 2.87c0-.216.17-.37.346-.37h2.962c.176 0 .346.155.346.37v1.12a.5.5 0 0 0 .5.5h5.319c.214 0 .328.078.398.164.082.1.129.247.129.39v6.086c0 .215-.17.37-.346.37H4.346A.361.361 0 0 1 4 11.13V2.87ZM2 3.5a.5.5 0 0 0-1 0v9.587c0 .745.575 1.413 1.352 1.413H13a.5.5 0 0 0 0-1H2.352c-.16 0-.352-.154-.352-.413V3.5Z" clip-rule="evenodd"/>
</svg>
