<svg xmlns="http://www.w3.org/2000/svg" width="16" height="16" fill="currentColor" viewBox="0 0 16 16">
  <path fill-rule="evenodd" d="M1 2.857C1 2.112 1.604 1.5 2.352 1.5h3.68a1.35 1.35 0 0 1 1.251.842L7.82 3.5H12c.421 0 .792.216 1.044.473.251.256.456.625.456 1.027v.5h.154c.74 0 1.346.6 1.346 1.342V7a.5.5 0 0 1-1 0v-.158a.347.347 0 0 0-.346-.342H4.346A.347.347 0 0 0 4 6.842V13.5h2.5a.5.5 0 0 1 0 1H2.352A1.357 1.357 0 0 1 1 13.143V2.857ZM12.5 5v.5H4.346C3.606 5.5 3 6.1 3 6.842V13.5h-.648A.357.357 0 0 1 2 13.143V2.857c0-.198.162-.357.352-.357h3.68c.144 0 .274.089.327.223l.011.027.676 1.46a.5.5 0 0 0 .454.29H12c.079 0 .208.048.33.173.125.127.17.258.17.327Zm-.5 5a.5.5 0 0 0-1 0v1h-1a.5.5 0 0 0 0 1h1v1a.5.5 0 0 0 1 0v-1h1a.5.5 0 0 0 0-1h-1v-1Zm-.5-2a3.5 3.5 0 1 0 0 7 3.5 3.5 0 0 0 0-7ZM9 11.5a2.5 2.5 0 1 1 5 0 2.5 2.5 0 0 1-5 0Z" clip-rule="evenodd"/>
</svg>
