<svg xmlns="http://www.w3.org/2000/svg" width="16" height="16" fill="currentColor" viewBox="0 0 16 16">
  <path fill-rule="evenodd" d="M1 2.857C1 2.112 1.604 1.5 2.352 1.5h3.68a1.35 1.35 0 0 1 1.251.842L7.82 3.5H12c.421 0 .792.216 1.044.473.251.256.456.625.456 1.027v.5h.154c.74 0 1.346.6 1.346 1.342V7a.5.5 0 0 1-1 0v-.158a.347.347 0 0 0-.346-.342H4.346A.347.347 0 0 0 4 6.842V13.5h2.5a.5.5 0 0 1 0 1H2.352A1.357 1.357 0 0 1 1 13.143V2.857ZM12.5 5v.5H4.346C3.606 5.5 3 6.1 3 6.842V13.5h-.648A.357.357 0 0 1 2 13.143V2.857c0-.198.162-.357.352-.357h3.68c.144 0 .274.089.327.223l.011.027.676 1.46a.5.5 0 0 0 .454.29H12c.079 0 .208.048.33.173.125.127.17.258.17.327Zm-4.202 9.705c.19.19.445.295.71.295v-.005c.085 0 .165-.01.25-.03l1.215-.305a.484.484 0 0 0 .23-.13l3.832-3.83a1.58 1.58 0 0 0 0-2.239 1.592 1.592 0 0 0-2.241 0l-3.831 3.84c-.06.06-.11.14-.13.23l-.306 1.214h.005a.99.99 0 0 0 .266.96Zm.7-.715v-.005l.27-1.08 3.736-3.734a.58.58 0 0 1 .826 0c.225.23.225.6 0 .825l-3.732 3.73-1.1.264Z" clip-rule="evenodd"/>
</svg>
