<svg xmlns="http://www.w3.org/2000/svg" width="16" height="16" fill="currentColor" viewBox="0 0 16 16">
  <path fill-rule="evenodd" d="M6.98 2.232c-.144-.502-.37-.865-.736-1.063C5.929 1 5.58 1 5.354 1h-2.93C1.668 1 1 1.588 1 2.37v9.13a.5.5 0 1 0 1 0V2.37c0-.175.163-.37.423-.37h2.895c.284 0 .38.011.45.049.035.019.145.09.251.458l.25.88a.5.5 0 0 0 .481.363h5.761c.179 0 .27.037.314.063a.25.25 0 0 1 .099.117c.068.145.076.352.076.614V5.5a.5.5 0 0 0 1 0v-.983c0-.225.001-.645-.17-1.012a1.248 1.248 0 0 0-.489-.548 1.582 1.582 0 0 0-.83-.207H7.128l-.147-.517v-.001ZM4.347 4.5C3.616 4.5 3 5.084 3 5.826v7.848C3 14.416 3.616 15 4.346 15h9.308c.73 0 1.346-.584 1.346-1.326V7.891c0-.324-.099-.682-.367-.962-.274-.285-.667-.429-1.133-.429H9.339l-.375-.936-.005-.013c-.358-.823-1.09-1.05-1.709-1.05H4.346ZM4 5.826a.34.34 0 0 1 .346-.326H7.25c.38 0 .645.119.789.443l.497 1.243A.5.5 0 0 0 9 7.5h4.5c.26 0 .367.075.411.122.05.052.089.14.089.27v5.782a.339.339 0 0 1-.346.326H4.346A.34.34 0 0 1 4 13.674V5.826Z" clip-rule="evenodd"/>
</svg>
