<svg xmlns="http://www.w3.org/2000/svg" width="16" height="16" fill="currentColor" viewBox="0 0 16 16">
  <path fill-rule="evenodd" d="M2.389 1.5C1.64 1.5 1 2.093 1 2.857v10.286c0 .764.641 1.357 1.389 1.357h.889a.502.502 0 0 0 .11-.012.502.502 0 0 0 .112.012h10.154c.74 0 1.346-.6 1.346-1.342V6.842c0-.622-.427-1.144-1-1.297V5c0-.315-.082-.688-.332-.993-.263-.322-.663-.507-1.168-.507H8.066l-.554-1.164A1.39 1.39 0 0 0 6.23 1.5H2.39ZM13 5.5V5a.575.575 0 0 0-.106-.36c-.049-.06-.149-.14-.394-.14H7.75a.5.5 0 0 1-.452-.285l-.694-1.46a.39.39 0 0 0-.375-.255h-3.84c-.23 0-.389.179-.389.357v10.286c0 .178.159.357.389.357H3V6.842C3 6.101 3.607 5.5 4.346 5.5H13ZM4 6.842c0-.185.155-.342.346-.342h9.308c.191 0 .346.157.346.342v6.316a.347.347 0 0 1-.346.342H4V6.842Z" clip-rule="evenodd"/>
</svg>
