<svg xmlns="http://www.w3.org/2000/svg" width="16" height="16" fill="currentColor" viewBox="0 0 16 16">
  <g clip-path="url(#a)">
    <path fill-rule="evenodd" d="M14 1.5a.5.5 0 1 0 0 1 .5.5 0 0 0 0-1Zm-1.5.5a1.5 1.5 0 1 1 .853 1.354L12.066 4.64l2.261 2.262c.565.564.565 1.48 0 2.043l-2.336 2.337 1.362 1.363a1.5 1.5 0 1 1-.707.707l-1.363-1.362-2.337 2.337a1.445 1.445 0 0 1-2.043 0L4.64 12.066l-1.287 1.287a1.5 1.5 0 1 1-.707-.707l1.287-1.287-2.412-2.413a1.445 1.445 0 0 1 0-2.043l2.337-2.337-1.212-1.212a1.5 1.5 0 1 1 .707-.707l1.212 1.212 2.337-2.337a1.445 1.445 0 0 1 2.043 0l2.413 2.412 1.287-1.287A1.494 1.494 0 0 1 12.5 2ZM2.203 8.265a.482.482 0 0 1 0-.681l5.381-5.381a.482.482 0 0 1 .681 0l5.381 5.381a.482.482 0 0 1 0 .681l-5.38 5.381a.482.482 0 0 1-.682 0l-5.381-5.38Zm8.286-2.78a11.634 11.634 0 0 1-2.157-.899.687.687 0 0 0-.667 0c-.944.517-1.819.8-2.154.901A.703.703 0 0 0 5 6.16v2.566c0 .431.192.806.424 1.105.234.3.537.562.834.777a8.571 8.571 0 0 0 1.46.833l.01.003c.174.074.37.074.545 0l.009-.004c.222-.099.865-.4 1.46-.832.296-.215.6-.476.834-.777.232-.298.424-.674.424-1.105V6.157a.705.705 0 0 0-.505-.67l-.006-.002ZM10 6.38a12.832 12.832 0 0 1-2-.839c-.821.434-1.574.703-2 .84v2.344c0 .128.058.29.213.491.155.198.377.396.633.582.427.31.895.55 1.154.67.258-.121.726-.36 1.154-.67a3.16 3.16 0 0 0 .632-.582c.156-.2.214-.363.214-.491V6.381ZM13.5 14a.5.5 0 1 1 1 0 .5.5 0 0 1-1 0ZM2 13.5a.5.5 0 1 0 0 1 .5.5 0 0 0 0-1ZM1.5 2a.5.5 0 1 1 1 0 .5.5 0 0 1-1 0Z" clip-rule="evenodd"/>
  </g>
  <defs>
    <clipPath id="a">
      <path d="M0 0h16v16H0z"/>
    </clipPath>
  </defs>
</svg>
