<svg xmlns="http://www.w3.org/2000/svg" width="16" height="16" fill="currentColor" viewBox="0 0 16 16">
  <g clip-path="url(#a)">
    <path d="M7.5 3a.5.5 0 0 1 0 1H3a.5.5 0 0 0-.5.5v9a.5.5 0 0 0 .5.5h9a.5.5 0 0 0 .5-.5V8.542a.5.5 0 0 1 1 0V13.5A1.5 1.5 0 0 1 12 15H3a1.5 1.5 0 0 1-1.5-1.5v-9A1.5 1.5 0 0 1 3 3h4.5Zm3.25 5a.5.5 0 0 1 .5.5v.25h.25a.5.5 0 0 1 0 1h-.25V10a.5.5 0 0 1-1 0v-.25H10a.5.5 0 0 1 0-1h.25V8.5a.5.5 0 0 1 .5-.5ZM7.5 7a.5.5 0 0 1 .5.5V8a.5.5 0 0 1-1 0v-.5a.5.5 0 0 1 .5-.5Zm-1-1a.5.5 0 0 1 0 1H6a.5.5 0 0 1 0-1h.5ZM9 6a.5.5 0 0 1 0 1h-.5a.5.5 0 0 1 0-1H9Zm7.25-4.5c.17.003.328.092.418.236.305.492.558.828.845 1.113.288.286.626.538 1.119.85a.501.501 0 0 1 .012.836c-.964.654-1.373 1.081-1.988 1.988a.5.5 0 0 1-.828 0c-.604-.898-1.039-1.31-1.997-1.995a.501.501 0 0 1 .01-.821c.992-.673 1.4-1.096 1.984-1.982a.501.501 0 0 1 .425-.225Zm-8.75 3A.5.5 0 0 1 8 5v.5a.5.5 0 0 1-1 0V5a.5.5 0 0 1 .5-.5Zm8.732-1.618c-.367.48-.737.849-1.263 1.249.51.398.888.762 1.272 1.256.374-.489.74-.86 1.25-1.253a5.877 5.877 0 0 1-.682-.576 5.627 5.627 0 0 1-.577-.676Z"/>
  </g>
  <defs>
    <clipPath id="a">
      <path d="M0 0h16v16H0z"/>
    </clipPath>
  </defs>
</svg>
