<svg xmlns="http://www.w3.org/2000/svg" width="16" height="16" fill="currentColor" viewBox="0 0 16 16">
  <path d="M7.5 3a.5.5 0 0 1 0 1H3a.5.5 0 0 0-.5.5v9a.5.5 0 0 0 .5.5h9a.5.5 0 0 0 .5-.5V8.542a.5.5 0 0 1 1 0V13.5A1.5 1.5 0 0 1 12 15H3a1.5 1.5 0 0 1-1.5-1.5v-9A1.5 1.5 0 0 1 3 3h4.5Z"/>
  <path d="M10.75 8a.5.5 0 0 1 .5.5v.25h.25a.5.5 0 0 1 0 1h-.25V10a.5.5 0 1 1-1 0v-.25H10a.5.5 0 0 1 0-1h.25V8.5a.5.5 0 0 1 .5-.5ZM7.5 7a.5.5 0 0 1 .5.5V8a.5.5 0 0 1-1 0v-.5a.5.5 0 0 1 .5-.5Zm-1-1a.5.5 0 0 1 0 1H6a.5.5 0 0 1 0-1h.5ZM9 6a.5.5 0 0 1 0 1h-.5a.5.5 0 0 1 0-1H9Z"/>
  <path fill-rule="evenodd" d="M12.128 1.5a.5.5 0 0 1 .418.237c.305.492.559.826.846 1.111.288.286.626.54 1.118.851a.5.5 0 0 1 .013.836c-.964.654-1.373 1.081-1.988 1.988a.5.5 0 0 1-.829-.001c-.604-.898-1.038-1.31-1.997-1.994a.5.5 0 0 1 .01-.82c.993-.674 1.4-1.096 1.985-1.983a.5.5 0 0 1 .424-.225Zm-.017 1.381c-.367.48-.738.85-1.264 1.25.51.398.889.762 1.273 1.255.374-.488.74-.858 1.25-1.252a5.887 5.887 0 0 1-.683-.576 5.642 5.642 0 0 1-.576-.677Z" clip-rule="evenodd"/>
  <path d="M7.5 4.5A.5.5 0 0 1 8 5v.5a.5.5 0 0 1-1 0V5a.5.5 0 0 1 .5-.5Z"/>
</svg>
