<svg xmlns="http://www.w3.org/2000/svg" width="16" height="16" fill="currentColor" viewBox="0 0 16 16">
  <path d="M9 1c.136 0 .258.055.348.143h.002l3.5 3.42.068.164a.496.496 0 0 1 .068.162L13 4.92V6a.5.5 0 0 1-1 0v-.5H9.7a1.2 1.2 0 0 1-1.2-1.2V2H3.401c-.508 0-.901.4-.901.87v10.26c0 .47.393.87.901.87H6a.5.5 0 0 1 0 1H3.401C2.362 15 1.5 14.174 1.5 13.13V2.87C1.5 1.825 2.362 1 3.401 1H9Zm4.602 7c.105 0 .249.015.388.08a.716.716 0 0 1 .343.352c.056.118.081.244.094.35.025.213.01.455-.015.674-.04.341-.119.701-.188.956a3 3 0 0 1 .276 1.251C14.5 13.57 12.752 15 10.75 15S7 13.569 7 11.663c0-.446.097-.874.277-1.265l-.002-.007a6.97 6.97 0 0 1-.181-.935 2.966 2.966 0 0 1-.014-.674c.013-.106.038-.231.094-.35a.715.715 0 0 1 .345-.354l.104-.039A1.02 1.02 0 0 1 7.904 8c.112 0 .228.012.336.03.218.037.458.102.677.171.22.07.435.147.607.213l.188.074a4.163 4.163 0 0 1 2.077.002l.193-.076c.173-.065.387-.143.607-.213.219-.069.459-.134.677-.17A1.99 1.99 0 0 1 13.602 8Zm-.172 1.017a4.23 4.23 0 0 0-.54.138c-.398.125-.781.282-.881.324h-.004a.274.274 0 0 1-.04.015l-.007.002-.032.009-.017.003a.498.498 0 0 1-.186 0l-.004-.001a.515.515 0 0 1-.022-.005l-.024-.006-.11-.031a3.168 3.168 0 0 0-1.705.021.501.501 0 0 1-.4-.023 11.334 11.334 0 0 0-.84-.308c-.2-.063-.39-.113-.542-.138l-.01-.001c0 .087.006.197.02.323.045.374.146.782.203.956a.499.499 0 0 1-.063.44 2.019 2.019 0 0 0-.226.928C8 12.893 9.167 14 10.75 14s2.75-1.107 2.75-2.337c0-.3-.069-.59-.195-.858l-.058-.114-.022-.046a.5.5 0 0 1 .006-.402c.06-.194.148-.563.188-.904.015-.127.021-.236.02-.323h-.01ZM9.5 4.3a.2.2 0 0 0 .2.199h1.655L9.5 2.687V4.3Z"/>
</svg>
