<svg xmlns="http://www.w3.org/2000/svg" width="16" height="16" fill="none" viewBox="0 0 16 16">
  <path fill="#3D3C3C" fill-rule="evenodd" d="M8 1.995C4.694 1.995 1.995 4.694 1.995 8S4.694 14.005 8 14.005 14.005 11.306 14.005 8 11.306 1.995 8 1.995ZM1 8c0-3.856 3.144-7 7-7s7 3.144 7 7-3.144 7-7 7-7-3.144-7-7Z" clip-rule="evenodd"/>
  <path fill="#3D3C3C" fill-rule="evenodd" d="M6.413 3.605c-.489 1.1-.804 2.653-.804 4.395 0 1.742.315 3.296.804 4.395.245.55.523.966.807 1.236.281.268.544.374.78.374s.499-.106.78-.374c.284-.27.562-.685.807-1.236.489-1.1.804-2.653.804-4.395 0-1.742-.315-3.296-.804-4.395-.245-.55-.523-.966-.807-1.236-.281-.268-.544-.374-.78-.374s-.499.106-.78.374c-.284.27-.562.685-.807 1.236Zm.12-1.957C6.943 1.258 7.44 1 8 1s1.057.258 1.467.648c.407.388.751.926 1.03 1.552.557 1.254.89 2.952.89 4.8 0 1.848-.333 3.546-.89 4.8-.279.626-.623 1.164-1.03 1.552-.41.39-.907.648-1.467.648s-1.057-.258-1.467-.648c-.407-.388-.751-.926-1.03-1.552-.557-1.254-.89-2.952-.89-4.8 0-1.848.333-3.546.89-4.8.279-.626.623-1.164 1.03-1.552Z" clip-rule="evenodd"/>
  <path fill="#3D3C3C" fill-rule="evenodd" d="M1.725 8c0-.275.222-.498.497-.498h12.262a.498.498 0 0 1 0 .996H2.222A.498.498 0 0 1 1.725 8Z" clip-rule="evenodd"/>
</svg>
