<svg xmlns="http://www.w3.org/2000/svg" width="16" height="16" fill="currentColor" viewBox="0 0 16 16">
  <path d="M8 1.013a5.245 5.245 0 0 1 5.237 5.237A5.245 5.245 0 0 1 8.5 11.462V12a.5.5 0 0 1-.009.084 1.5 1.5 0 0 1 .924.924A.506.506 0 0 1 9.5 13h3l.052.003a.5.5 0 0 1 0 .995L12.5 14h-3a.496.496 0 0 1-.085-.009 1.498 1.498 0 0 1-2.831 0A.495.495 0 0 1 6.5 14h-3a.5.5 0 0 1 0-1h3a.46.46 0 0 1 .084.008c.15-.432.492-.774.924-.924A.502.502 0 0 1 7.5 12v-.538A5.245 5.245 0 0 1 2.763 6.25 5.245 5.245 0 0 1 8 1.013ZM8 13a.5.5 0 1 0 0 1 .5.5 0 0 0 0-1ZM6.515 6.987c.066.959.255 1.802.52 2.432.166.394.352.682.532.864.148.149.274.206.374.222.02-.002.04-.005.059-.005.02 0 .039.003.058.005.1-.016.226-.073.375-.222.18-.181.366-.47.532-.864.265-.63.454-1.473.52-2.432h-2.97Zm-2.712 0a4.28 4.28 0 0 0 2.503 3.172 5.08 5.08 0 0 1-.17-.361c-.32-.762-.53-1.738-.598-2.81H3.803Zm6.659 0c-.067 1.073-.278 2.05-.599 2.81a4.64 4.64 0 0 1-.17.362 4.28 4.28 0 0 0 2.504-3.172h-1.735ZM6.306 2.34a4.275 4.275 0 0 0-2.562 3.673h1.774c.025-1.268.249-2.432.619-3.31a5.27 5.27 0 0 1 .169-.363ZM8 1.987c-.108 0-.254.05-.433.23-.18.182-.366.47-.532.864-.31.737-.518 1.767-.543 2.932h3.016c-.025-1.165-.233-2.195-.543-2.932-.166-.394-.352-.682-.532-.863-.18-.18-.325-.23-.433-.23Zm1.693.353c.06.116.117.238.17.363.37.878.594 2.042.62 3.31h1.773A4.274 4.274 0 0 0 9.693 2.34Z"/>
</svg>
