<svg xmlns="http://www.w3.org/2000/svg" width="16" height="16" fill="currentColor" viewBox="0 0 16 16">
  <path fill-rule="evenodd" d="M7.976 2C4.673 2 2 4.639 2 7.864c0 .54.043 1.05.15 1.526a.5.5 0 1 1-.975.22A7.931 7.931 0 0 1 1 7.864C1 4.07 4.137 1 7.976 1c1.493 0 3.308.564 4.523 1.382a1.502 1.502 0 0 1 2.062.057 1.502 1.502 0 0 1 0 2.122 1.502 1.502 0 0 1-2.543-1.296C10.985 2.54 9.315 2 7.976 2Zm5.878 1.146a.502.502 0 0 0-.708 0 .502.502 0 0 0 0 .708.502.502 0 0 0 .708 0 .502.502 0 0 0 0-.708Zm-11 9a.502.502 0 0 0-.708 0 .502.502 0 0 0 0 .708.502.502 0 0 0 .708 0 .502.502 0 0 0 0-.708Zm-1.415-.707a1.502 1.502 0 0 1 2.493 1.51C4.944 13.67 6.454 14 7.914 14 11.293 14 14 11.387 14 8.225c0-.582-.034-1.119-.146-1.615a.5.5 0 0 1 .976-.22c.134.6.17 1.22.17 1.835C15 11.984 11.799 15 7.914 15c-1.571 0-3.33-.35-4.582-1.251a1.502 1.502 0 0 1-1.893-2.31ZM4.019 7.5a4.027 4.027 0 0 1 2.23-3.11 4.9 4.9 0 0 0-.108.23c-.345.775-.565 1.78-.617 2.88H4.02Zm0 1a4.027 4.027 0 0 0 2.23 3.11 4.887 4.887 0 0 1-.108-.23c-.345-.775-.565-1.78-.617-2.88H4.02Zm2.481 0c.051.984.25 1.85.532 2.483.164.37.347.64.526.81.176.168.325.22.442.22.117 0 .266-.052.442-.22.179-.17.362-.44.527-.81.281-.633.48-1.499.53-2.483H6.5Zm3.976 0c-.052 1.1-.272 2.105-.617 2.88a4.887 4.887 0 0 1-.109.23 4.027 4.027 0 0 0 2.231-3.11h-1.505Zm1.505-1h-1.505c-.052-1.1-.272-2.105-.617-2.88a4.9 4.9 0 0 0-.109-.23 4.027 4.027 0 0 1 2.231 3.11Zm1.005.381A4.995 4.995 0 0 0 8 3.013 4.995 4.995 0 0 0 3.013 8 4.995 4.995 0 0 0 8 12.988a4.995 4.995 0 0 0 4.986-4.87.51.51 0 0 0 0-.237ZM9.5 7.5h-3c.051-.984.25-1.85.532-2.484.164-.37.347-.639.526-.81.176-.167.325-.218.442-.218.117 0 .266.051.442.219.179.17.362.44.527.81.281.633.48 1.499.53 2.483Z" clip-rule="evenodd"/>
</svg>
