<svg xmlns="http://www.w3.org/2000/svg" width="16" height="16" fill="currentColor" viewBox="0 0 16 16">
  <path d="M0 0h16v16H0z"/>
  <path fill-rule="evenodd" d="M13.854 3.146a.502.502 0 0 0-.708 0 .502.502 0 0 0 0 .708.502.502 0 0 0 .708 0 .502.502 0 0 0 0-.708Zm-1.415-.707a1.502 1.502 0 0 1 2.122 0 1.502 1.502 0 0 1 0 2.122 1.502 1.502 0 0 1-2.122 0 1.502 1.502 0 0 1 0-2.122Zm-9.585 9.707a.502.502 0 0 0-.708 0 .502.502 0 0 0 0 .708.502.502 0 0 0 .708 0 .502.502 0 0 0 0-.708Zm-1.415-.707a1.502 1.502 0 0 1 2.122 0 1.502 1.502 0 0 1 0 2.122 1.502 1.502 0 0 1-2.122 0 1.502 1.502 0 0 1 0-2.122Z" clip-rule="evenodd"/>
  <path fill-rule="evenodd" d="M14.232 6.012a.5.5 0 0 1 .598.378c.134.6.17 1.22.17 1.835C15 11.984 11.799 15 7.914 15c-1.63 0-3.464-.376-4.721-1.355a.5.5 0 0 1 .614-.79C4.817 13.643 6.393 14 7.914 14 11.293 14 14 11.387 14 8.225c0-.582-.034-1.119-.146-1.615a.5.5 0 0 1 .378-.598ZM7.976 2C4.673 2 2 4.639 2 7.864c0 .54.043 1.05.15 1.526a.5.5 0 1 1-.975.22A7.931 7.931 0 0 1 1 7.864C1 4.07 4.137 1 7.976 1c1.626 0 3.633.67 4.832 1.606a.5.5 0 0 1-.616.788C11.18 2.604 9.393 2 7.976 2Z" clip-rule="evenodd"/>
  <path fill-rule="evenodd" d="M8 3.988A4.02 4.02 0 0 0 3.987 8 4.02 4.02 0 0 0 8 12.012 4.02 4.02 0 0 0 12.012 8 4.02 4.02 0 0 0 8 3.988ZM3.012 8A4.995 4.995 0 0 1 8 3.013 4.995 4.995 0 0 1 12.988 8 4.995 4.995 0 0 1 8 12.988 4.995 4.995 0 0 1 3.012 8Z" clip-rule="evenodd"/>
  <path fill-rule="evenodd" d="M7.031 5.016c-.328.74-.544 1.794-.544 2.984s.216 2.245.544 2.983c.165.37.348.64.527.81.176.168.325.22.442.22.117 0 .266-.052.442-.22.179-.17.362-.44.526-.81.329-.738.544-1.793.544-2.983 0-1.19-.215-2.245-.544-2.984-.164-.37-.347-.639-.526-.81-.176-.167-.325-.218-.442-.218-.117 0-.266.051-.442.219-.179.17-.362.44-.527.81Zm-.145-1.515c.302-.288.68-.488 1.114-.488.435 0 .812.2 1.114.488.3.285.548.675.745 1.12.396.89.629 2.085.629 3.379s-.233 2.49-.629 3.38c-.197.444-.445.834-.745 1.12-.302.287-.68.488-1.114.488-.435 0-.812-.201-1.114-.489-.3-.285-.548-.675-.746-1.12-.395-.89-.628-2.085-.628-3.379s.233-2.49.628-3.38c.198-.444.446-.834.746-1.12Z" clip-rule="evenodd"/>
  <path fill-rule="evenodd" d="M3.512 8c0-.27.219-.487.488-.487h8.487a.488.488 0 0 1 0 .975H4A.487.487 0 0 1 3.512 8Z" clip-rule="evenodd"/>
</svg>
