<svg xmlns="http://www.w3.org/2000/svg" width="16" height="16" fill="currentColor" viewBox="0 0 16 16">
  <path fill-rule="evenodd" d="M6.25 2.75a1.75 1.75 0 1 1 3.5 0 1.75 1.75 0 0 1-3.5 0ZM8 2a.75.75 0 1 0 0 1.5A.75.75 0 0 0 8 2ZM2.25 9.75a1.75 1.75 0 1 1 3.5 0 1.75 1.75 0 0 1-3.5 0ZM4 9a.75.75 0 1 0 0 1.5A.75.75 0 0 0 4 9Zm6.25.75a1.75 1.75 0 1 1 3.5 0 1.75 1.75 0 0 1-3.5 0ZM12 9a.75.75 0 1 0 0 1.5.75.75 0 0 0 0-1.5ZM6.144 6.15c-.118.089-.144.172-.144.223V7h4v-.672a.253.253 0 0 0-.107-.207A.642.642 0 0 0 9.497 6H6.6a.781.781 0 0 0-.456.15Zm-.603-.798A1.78 1.78 0 0 1 6.6 5h2.897c.701 0 1.51.455 1.503 1.335V7.5a.5.5 0 0 1-.5.5h-5a.5.5 0 0 1-.5-.5V6.38c-.003-.45.246-.805.541-1.028Zm-3.397 7.822c-.118.09-.144.173-.144.224v.627h4v-.672a.253.253 0 0 0-.107-.207.642.642 0 0 0-.396-.121H2.6a.782.782 0 0 0-.456.15Zm-.603-.797a1.78 1.78 0 0 1 1.059-.352h2.897c.702 0 1.51.455 1.503 1.335v1.165a.5.5 0 0 1-.5.5h-5a.5.5 0 0 1-.5-.5v-1.12c-.003-.45.246-.805.541-1.028Zm8.604.797c-.119.09-.145.173-.145.224v.627h4v-.672a.253.253 0 0 0-.107-.207.642.642 0 0 0-.396-.121H10.6a.781.781 0 0 0-.455.15Zm-.604-.797a1.78 1.78 0 0 1 1.059-.352h2.897c.701 0 1.51.455 1.503 1.335v1.165a.5.5 0 0 1-.5.5h-5a.5.5 0 0 1-.5-.5v-1.12c-.003-.45.246-.805.541-1.028ZM8 8.5a.5.5 0 0 1 .5.5v1a.5.5 0 0 1-1 0V9a.5.5 0 0 1 .5-.5Z" clip-rule="evenodd"/>
  <path fill-rule="evenodd" d="M7.723 9.584a.5.5 0 0 1 .554 0l1.5 1a.5.5 0 1 1-.554.832L8 10.601l-1.223.815a.5.5 0 1 1-.554-.832l1.5-1Z" clip-rule="evenodd"/>
</svg>
