<svg xmlns="http://www.w3.org/2000/svg" width="16" height="16" fill="currentColor" viewBox="0 0 16 16">
  <path fill-rule="evenodd" d="M4 3a1 1 0 1 0 0 2 1 1 0 0 0 0-2ZM2 4a2 2 0 1 1 4 0 2 2 0 0 1-4 0Zm9 0a1 1 0 1 1 2 0 1 1 0 0 1-2 0Zm1-2a2 2 0 1 0 0 4 2 2 0 0 0 0-4ZM7 8a1 1 0 1 1 2 0 1 1 0 0 1-2 0Zm1-2a2 2 0 1 0 0 4 2 2 0 0 0 0-4Zm-2.493 7.5-.007-.878c-.002-.307.277-.622.71-.622h3.58c.433 0 .712.315.71.622l-.007.878H5.507Zm5.993-.87-.01 1.266a.5.5 0 0 1-.49.604H5.012a.5.5 0 0 1-.5-.496L4.5 12.628C4.494 11.693 5.299 11 6.21 11h3.58c.911 0 1.716.693 1.71 1.628v.001Zm-1-5.13A.5.5 0 0 1 11 7h2.305c.91 0 1.7.698 1.695 1.628v.001l-.01 1.268a.499.499 0 0 1-.49.603H11a.5.5 0 0 1 0-1h2.993L14 8.622c.002-.314-.276-.622-.695-.622H11a.5.5 0 0 1-.5-.5ZM5 7a.5.5 0 1 1 0 1H2.695c-.419 0-.697.308-.695.621l.007.879H5a.5.5 0 1 1 0 1H1.5a.5.5 0 0 1-.49-.603L1 8.63C.994 7.698 1.785 7 2.695 7H5Z" clip-rule="evenodd"/>
</svg>
