<svg xmlns="http://www.w3.org/2000/svg" width="16" height="16" fill="currentColor" viewBox="0 0 16 16">
  <path fill-rule="evenodd" d="M8 1a1.75 1.75 0 1 0 0 3.5A1.75 1.75 0 0 0 8 1Zm-.75 1.75a.75.75 0 1 1 1.5 0 .75.75 0 0 1-1.5 0ZM4 8a1.75 1.75 0 1 0 0 3.5A1.75 1.75 0 0 0 4 8Zm-.75 1.75a.75.75 0 1 1 1.5 0 .75.75 0 0 1-1.5 0Zm7 0a1.75 1.75 0 1 1 3.5 0 1.75 1.75 0 0 1-3.5 0ZM12 9a.75.75 0 1 0 0 1.5.75.75 0 0 0 0-1.5ZM6 6.373c0-.05.026-.134.144-.224.12-.09.29-.149.456-.149h2.897c.173 0 .311.054.396.121.077.062.108.13.107.207V7H6v-.627ZM6.6 5a1.78 1.78 0 0 0-1.059.352c-.295.223-.544.578-.541 1.028V7.5a.5.5 0 0 0 .5.5h5a.5.5 0 0 0 .5-.5V6.335C11.007 5.455 10.198 5 9.497 5H6.6Zm-4.456 8.174c-.118.09-.144.173-.144.224v.627h4v-.672a.253.253 0 0 0-.107-.207.642.642 0 0 0-.396-.121H2.6a.782.782 0 0 0-.456.15Zm-.603-.797a1.78 1.78 0 0 1 1.059-.352h2.897c.702 0 1.51.455 1.503 1.335v1.165a.5.5 0 0 1-.5.5h-5a.5.5 0 0 1-.5-.5v-1.12c-.003-.45.246-.805.541-1.028ZM10 13.398c0-.05.026-.134.145-.224s.289-.149.455-.149h2.897c.173 0 .311.054.396.12.077.063.108.13.107.208v.672h-4v-.627Zm.6-1.373a1.78 1.78 0 0 0-1.059.352c-.295.223-.544.578-.541 1.028v1.12a.5.5 0 0 0 .5.5h5a.5.5 0 0 0 .5-.5V13.36c.007-.88-.802-1.335-1.503-1.335H10.6ZM8 8.5a.5.5 0 0 1 .5.5v.732l1.277.852a.5.5 0 1 1-.554.832L8 10.601l-1.223.815a.5.5 0 1 1-.554-.832L7.5 9.732V9a.5.5 0 0 1 .5-.5Z" clip-rule="evenodd"/>
</svg>
