<svg xmlns="http://www.w3.org/2000/svg" width="16" height="16" fill="none" viewBox="0 0 16 16">
  <path fill="#3D3C3C" fill-rule="evenodd" d="M12.983 2.006c-2.438.23-3.84 1.419-4.622 2.796-.6 1.058-.843 2.245-.877 3.23a14.515 14.515 0 0 1 .016.454c2.424-.115 3.813-1.119 4.592-2.331.838-1.305 1.018-2.927.89-4.149ZM6.5 9.5v3l.001.034c-1.014.139-2.027.692-3.284 1.554a.5.5 0 0 0 .566.824C5.237 13.915 6.146 13.5 7 13.5c.854 0 1.763.415 3.217 1.412a.5.5 0 0 0 .566-.824c-1.257-.862-2.27-1.415-3.284-1.554A.51.51 0 0 0 7.5 12.5V9.49c2.729-.118 4.435-1.264 5.411-2.784 1.01-1.573 1.194-3.474 1.042-4.857a.945.945 0 0 0-1.02-.845c-2.785.25-4.478 1.635-5.42 3.294a7.44 7.44 0 0 0-.536 1.18 4.83 4.83 0 0 0-.19-.407c-.308-.585-.753-1.121-1.392-1.502-.64-.382-1.443-.59-2.434-.567-.552.012-.943.473-.95.976l-.004.2c-.018 1.054-.04 2.31.477 3.326.59 1.162 1.804 1.897 3.995 1.995H6.5ZM4.883 4.43c-.448-.268-1.05-.442-1.872-.428l-.002.096c-.018 1.144-.034 2.166.366 2.952.369.725 1.164 1.355 3.124 1.447-.017-.884-.114-2.04-.597-2.96-.239-.453-.566-.838-1.02-1.108Z" clip-rule="evenodd"/>
</svg>
