<svg xmlns="http://www.w3.org/2000/svg" width="16" height="16" fill="currentColor" viewBox="0 0 16 16">
  <path fill-rule="evenodd" d="M7.5 2.5a.5.5 0 1 1 1 0 .5.5 0 0 1-1 0ZM8 1a1.5 1.5 0 1 0 1.051 2.57L13 5.325V8.5a.5.5 0 0 0 1 0V5a.5.5 0 0 0-.297-.457L9.49 2.671A1.5 1.5 0 0 0 8 1ZM5.429 3.243a.5.5 0 0 1-.172.686L3 5.283v4.802a1.5 1.5 0 1 1-1 0V5a.5.5 0 0 1 .243-.429l2.5-1.5a.5.5 0 0 1 .686.172Zm2.193 1.399a.75.75 0 0 1 .756 0l2.75 1.604a.75.75 0 0 1 .372.648v3.212a.75.75 0 0 1-.372.648l-2.75 1.604a.75.75 0 0 1-.756 0l-2.75-1.604a.75.75 0 0 1-.372-.648V6.894a.75.75 0 0 1 .372-.648l2.75-1.604ZM8 5.579 5.5 7.037v2.926L8 11.42l2.5-1.458V7.037L8 5.58ZM2 11.5a.5.5 0 1 1 1 0 .5.5 0 0 1-1 0Zm11.5-.5a.5.5 0 1 0 0 1 .5.5 0 0 0 0-1Zm-1.5.5a1.5 1.5 0 1 1 .649 1.235l-4.329 2.21a.5.5 0 0 1-.405.022l-2.593-.987a.5.5 0 0 1 .356-.935l2.385.909 3.995-2.04A1.502 1.502 0 0 1 12 11.5Z" clip-rule="evenodd"/>
</svg>
