<svg xmlns="http://www.w3.org/2000/svg" width="16" height="16" fill="currentColor" viewBox="0 0 16 16">
  <path fill-rule="evenodd" d="M4.505 2.52c.797-.137 1.53.178 2.111.594.58.413.948.883.986.933a.5.5 0 0 0 .796 0 4.94 4.94 0 0 1 .983-.909c.582-.405 1.316-.714 2.114-.579.62.106 1.13.453 1.529.878.4.428.666.91.794 1.224.43 1.063.203 2.332-.736 3.846A.503.503 0 0 0 13 8.5H8.852L7.721 5.332a.5.5 0 0 0-.93-.029L5.42 8.5H3a.5.5 0 0 0-.127.016c-.91-1.488-1.121-2.74-.691-3.802.13-.32.399-.827.802-1.278.403-.45.91-.812 1.52-.916h.001ZM3.55 9.5c1.025 1.347 2.52 2.807 4.413 4.366 1.884-1.552 3.386-3.014 4.426-4.366H8.5a.5.5 0 0 1-.47-.332l-.821-2.3-.998 2.329a.5.5 0 0 1-.46.303h-2.2Zm3.647-7.2c.331.236.604.487.807.694.203-.203.476-.446.805-.676.69-.481 1.692-.941 2.854-.745.897.153 1.591.648 2.09 1.18.498.53.825 1.122.991 1.53v.002c.637 1.57.16 3.289-.995 5.033-1.158 1.75-3.056 3.623-5.471 5.582a.5.5 0 0 1-.63 0c-2.413-1.956-4.294-3.817-5.434-5.555C1.076 7.61.62 5.905 1.255 4.338a5.647 5.647 0 0 1 .983-1.569c.496-.553 1.192-1.08 2.098-1.235 1.168-.2 2.172.274 2.861.766Z" clip-rule="evenodd"/>
</svg>
