<svg xmlns="http://www.w3.org/2000/svg" width="16" height="16" fill="currentColor" viewBox="0 0 16 16">
  <path fill-rule="evenodd" d="M7.265 5a.5.5 0 0 1 .456.332L8.852 8.5H13a.5.5 0 0 1 0 1H8.5a.5.5 0 0 1-.47-.332l-.822-2.3-.998 2.329a.5.5 0 0 1-.46.303H3a.5.5 0 0 1 0-1h2.42l1.37-3.197A.5.5 0 0 1 7.265 5Z" clip-rule="evenodd"/>
  <path fill-rule="evenodd" d="M6.616 3.114c-.582-.416-1.314-.73-2.11-.594h-.001c-.61.104-1.118.466-1.521.916a4.65 4.65 0 0 0-.802 1.278c-.457 1.127-.19 2.47.868 4.082 1.009 1.538 2.685 3.236 4.913 5.07 2.23-1.838 3.926-3.549 4.952-5.1 1.078-1.628 1.358-2.982.903-4.105a4.206 4.206 0 0 0-.794-1.224c-.4-.425-.909-.772-1.528-.878-.799-.135-1.533.174-2.115.58-.58.403-.949.864-.983.908a.5.5 0 0 1-.796 0 4.978 4.978 0 0 0-.986-.933Zm1.388-.12a6.074 6.074 0 0 0-.807-.694c-.69-.492-1.693-.966-2.86-.766-.907.155-1.603.682-2.098 1.235a5.647 5.647 0 0 0-.983 1.569c-.636 1.568-.18 3.272.958 5.007 1.14 1.737 3.021 3.599 5.434 5.555a.5.5 0 0 0 .63 0c2.415-1.959 4.314-3.833 5.471-5.582 1.154-1.744 1.633-3.463.996-5.033v-.001c-.167-.409-.494-1-.991-1.53-.5-.533-1.194-1.028-2.09-1.18h-.001c-1.162-.198-2.163.263-2.854.744a6.01 6.01 0 0 0-.805.676Z" clip-rule="evenodd"/>
</svg>
