<svg xmlns="http://www.w3.org/2000/svg" width="16" height="16" fill="currentColor" viewBox="0 0 16 16">
  <path d="M4.571 1.517c1.072-.11 1.99.334 2.634.795.329.235.6.485.8.691a6.01 6.01 0 0 1 .8-.673c.645-.45 1.563-.883 2.629-.774l.214.03h.001c.894.153 1.586.647 2.083 1.178.433.463.736.973.916 1.367l.07.161c.633 1.568.158 3.283-.99 5.024-1.153 1.746-3.043 3.617-5.447 5.572a.5.5 0 0 1-.632 0c-2.401-1.952-4.274-3.81-5.408-5.545C1.108 7.612.654 5.911 1.287 4.346a5.642 5.642 0 0 1 .978-1.566c.493-.552 1.187-1.078 2.09-1.233l.216-.03Zm2.052 1.608c-.58-.415-1.307-.729-2.099-.593-.606.104-1.111.464-1.512.914s-.669.956-.799 1.276c-.454 1.124-.188 2.465.865 4.074 1.003 1.533 2.671 3.226 4.887 5.057 2.22-1.834 3.906-3.54 4.928-5.088 1.072-1.624 1.35-2.976.898-4.097a4.196 4.196 0 0 0-.79-1.22c-.397-.426-.904-.771-1.52-.877-.793-.134-1.523.173-2.103.578a4.863 4.863 0 0 0-.977.907.5.5 0 0 1-.797 0 4.966 4.966 0 0 0-.98-.931Z"/>
</svg>
