<svg xmlns="http://www.w3.org/2000/svg" width="16" height="16" fill="currentColor" viewBox="0 0 16 16">
  <path d="M13.021 5.267a.516.516 0 0 0-.245-.443L8.245 2.091a.471.471 0 0 0-.49 0L3.224 4.824a.516.516 0 0 0-.245.443v5.466c0 .183.093.351.245.443l4.531 2.733a.472.472 0 0 0 .49 0l4.531-2.733a.516.516 0 0 0 .245-.443V5.267ZM14 10.733c0 .548-.28 1.054-.734 1.328l-4.532 2.734a1.415 1.415 0 0 1-1.468 0L2.734 12.06A1.548 1.548 0 0 1 2 10.733V5.267c0-.548.28-1.054.734-1.328l4.532-2.734a1.414 1.414 0 0 1 1.468 0l4.532 2.734c.454.274.734.78.734 1.328v5.466Z"/>
</svg>
