<svg xmlns="http://www.w3.org/2000/svg" width="16" height="16" fill="currentColor" viewBox="0 0 16 16">
  <path d="M9.378 13.226a.478.478 0 0 1 .668.186.524.524 0 0 1-.179.699l-1.133.684a1.415 1.415 0 0 1-1.468 0l-1.133-.684a.524.524 0 0 1-.18-.699.478.478 0 0 1 .67-.186l1.132.683a.472.472 0 0 0 .49 0l1.133-.683ZM2 10.733V9.367a.5.5 0 0 1 .49-.512.5.5 0 0 1 .489.512v1.366c0 .183.093.351.245.443l1.133.683a.524.524 0 0 1 .179.699.478.478 0 0 1-.669.186l-1.133-.683A1.548 1.548 0 0 1 2 10.733Zm11.021 0V9.367a.5.5 0 0 1 .49-.512.5.5 0 0 1 .489.512v1.366c0 .548-.28 1.054-.734 1.328l-1.133.683a.478.478 0 0 1-.669-.186.524.524 0 0 1 .18-.699l1.132-.683a.516.516 0 0 0 .245-.443ZM2 6.633V5.267c0-.548.28-1.054.734-1.328l1.133-.683a.478.478 0 0 1 .669.186.524.524 0 0 1-.18.699l-1.132.683a.516.516 0 0 0-.245.443v1.366a.5.5 0 0 1-.49.512A.5.5 0 0 1 2 6.633Zm11.021 0V5.267a.516.516 0 0 0-.245-.443l-1.133-.683a.524.524 0 0 1-.179-.699.478.478 0 0 1 .669-.186l1.133.683c.454.274.734.78.734 1.328v1.366a.5.5 0 0 1-.49.512.5.5 0 0 1-.489-.512ZM7.266 1.205a1.414 1.414 0 0 1 1.468 0l1.133.684a.524.524 0 0 1 .18.699.478.478 0 0 1-.67.186l-1.132-.683a.471.471 0 0 0-.49 0l-1.133.683a.478.478 0 0 1-.668-.186.524.524 0 0 1 .179-.699l1.133-.684Z"/>
</svg>
