<svg xmlns="http://www.w3.org/2000/svg" width="16" height="16" fill="currentColor" viewBox="0 0 16 16">
  <path fill-rule="evenodd" d="M15 8A7.001 7.001 0 0 0 3.058 3.042L3 3.095V1.5a.5.5 0 0 0-1 0v3a.5.5 0 0 0 .5.5h3a.5.5 0 0 0 0-1H3.492l.249-.227A5.98 5.98 0 0 1 8 2a6 6 0 0 1 5.999 6 5.961 5.961 0 0 1-1.174 3.56v.001A5.993 5.993 0 0 1 8 14a6 6 0 0 1-6-6 .5.5 0 0 0-1 0c0 3.865 3.135 7 7 7a6.993 6.993 0 0 0 5.63-2.844A6.962 6.962 0 0 0 15 8ZM8.5 5.5a.5.5 0 0 0-1 0v3A.5.5 0 0 0 8 9h3a.5.5 0 0 0 0-1H8.5V5.5Z" clip-rule="evenodd"/>
</svg>
