<svg xmlns="http://www.w3.org/2000/svg" width="16" height="16" fill="currentColor" viewBox="0 0 16 16">
  <g clip-path="url(#a)">
    <path fill-rule="evenodd" d="M1.257 6.117a7.004 7.004 0 0 1 8.436-4.91 7.004 7.004 0 0 1 5.1 8.486 7.004 7.004 0 0 1-8.486 5.1A6.996 6.996 0 0 1 1.228 9.78a.5.5 0 1 1 .967-.254 5.996 5.996 0 0 0 4.352 4.298 6.004 6.004 0 0 0 7.275-4.37 6.004 6.004 0 0 0-4.37-7.276 6.004 6.004 0 0 0-7.244 4.249l.708-.608a.5.5 0 1 1 .651.76l-1.622 1.39a.5.5 0 0 1-.744-.106L.082 6.145A.5.5 0 1 1 .918 5.6l.338.518ZM8 4.5a.5.5 0 0 1 .5.5v2.5H11a.5.5 0 1 1 0 1H8c-.017 0-.034 0-.051-.003A.5.5 0 0 1 7.5 8V5a.5.5 0 0 1 .5-.5Z" clip-rule="evenodd"/>
  </g>
  <defs>
    <clipPath id="a">
      <path d="M0 0h16v16H0z"/>
    </clipPath>
  </defs>
</svg>
