<svg xmlns="http://www.w3.org/2000/svg" width="16" height="16" fill="currentColor" viewBox="0 0 16 16">
  <g clip-path="url(#a)">
    <path d="M0 0h16v16H0z"/>
    <path fill-rule="evenodd" d="M.227 5.453a.5.5 0 0 0-.146.692l1.121 1.717a.5.5 0 0 0 .744.106l1.622-1.39a.5.5 0 1 0-.65-.76l-1.19 1.02-.81-1.24a.5.5 0 0 0-.691-.145Z" clip-rule="evenodd"/>
    <path fill-rule="evenodd" d="M9.693 1.207a7.004 7.004 0 0 0-8.486 5.1.5.5 0 0 0 .97.241 6.004 6.004 0 0 1 7.275-4.37 6.004 6.004 0 0 1 4.37 7.274 6.004 6.004 0 0 1-7.274 4.37 5.996 5.996 0 0 1-4.352-4.297.5.5 0 0 0-.967.254 6.996 6.996 0 0 0 5.077 5.014 7.004 7.004 0 0 0 8.487-5.1 7.004 7.004 0 0 0-5.1-8.486Z" clip-rule="evenodd"/>
    <path fill-rule="evenodd" d="M8 4.5a.5.5 0 0 1 .5.5v3a.5.5 0 0 1-1 0V5a.5.5 0 0 1 .5-.5Z" clip-rule="evenodd"/>
    <path fill-rule="evenodd" d="M11.5 8a.5.5 0 0 1-.5.5H8a.5.5 0 0 1 0-1h3a.5.5 0 0 1 .5.5Z" clip-rule="evenodd"/>
  </g>
  <defs>
    <clipPath id="a">
      <path d="M0 0h16v16H0z"/>
    </clipPath>
  </defs>
</svg>
