<svg xmlns="http://www.w3.org/2000/svg" width="16" height="16" fill="currentColor" viewBox="0 0 16 16">
  <path fill-rule="evenodd" d="M8.405 1.12a.5.5 0 0 0-.648-.003L1.18 6.637a.5.5 0 0 0 .327.882l.994-.013V14.5a.5.5 0 0 0 .5.5h10a.5.5 0 0 0 .5-.5V7.506l.994.013a.5.5 0 0 0 .332-.879L8.405 1.12ZM10.5 14h2V7a.5.5 0 0 1 .506-.5l.125.002-5.056-4.346L2.895 6.5l.099-.001A.5.5 0 0 1 3.5 7v7h2v-3.714C5.5 9.613 6.018 9 6.73 9h2.54c.712 0 1.23.613 1.23 1.286V14Zm-4 0h3v-3.714c0-.192-.139-.286-.23-.286H6.73c-.091 0-.23.094-.23.286V14Z" clip-rule="evenodd"/>
</svg>
