<svg xmlns="http://www.w3.org/2000/svg" width="16" height="16" fill="currentColor" viewBox="0 0 16 16">
  <path fill-rule="evenodd" d="M7.757 1.117a.5.5 0 0 1 .648.004l6.42 5.519a.5.5 0 0 1-.331.88l-.994-.014V14.5a.5.5 0 0 1-.5.5H3a.5.5 0 0 1-.5-.5V7.506l-.994.013a.5.5 0 0 1-.327-.883l6.578-5.52ZM2.895 6.501l.099-.001A.5.5 0 0 1 3.5 7v7h9V7a.5.5 0 0 1 .506-.5l.125.002-5.056-4.346L2.895 6.5Z" clip-rule="evenodd"/>
  <path fill-rule="evenodd" d="M6.73 10c-.091 0-.23.094-.23.286V14h3v-3.714c0-.192-.139-.286-.23-.286H6.73Zm-1.23.286C5.5 9.613 6.018 9 6.73 9h2.54c.712 0 1.23.613 1.23 1.286V14.5a.5.5 0 0 1-.5.5H6a.5.5 0 0 1-.5-.5v-4.214Z" clip-rule="evenodd"/>
</svg>
