<svg xmlns="http://www.w3.org/2000/svg" width="16" height="16" fill="currentColor" viewBox="0 0 16 16">
  <path fill-rule="evenodd" d="M2 1.5a.5.5 0 0 1 .5-.5h11a.5.5 0 0 1 0 1h-11a.5.5 0 0 1-.5-.5Zm0 13a.5.5 0 0 1 .5-.5h11a.5.5 0 0 1 0 1h-11a.5.5 0 0 1-.5-.5Z" clip-rule="evenodd"/>
  <path fill-rule="evenodd" d="M4.5 1a.5.5 0 0 1 .5.5v2.888C5 6.123 6.358 7.5 8 7.5c2.223 0 4 1.854 4 4.112V14.5a.5.5 0 0 1-1 0v-2.888C11 9.877 9.642 8.5 8 8.5c-2.223 0-4-1.854-4-4.112V1.5a.5.5 0 0 1 .5-.5Z" clip-rule="evenodd"/>
  <path fill-rule="evenodd" d="M11.5 1a.5.5 0 0 1 .5.5v2.888C12 6.646 10.223 8.5 8 8.5c-1.642 0-3 1.377-3 3.112V14.5a.5.5 0 0 1-1 0v-2.888C4 9.354 5.777 7.5 8 7.5c1.642 0 3-1.377 3-3.112V1.5a.5.5 0 0 1 .5-.5Z" clip-rule="evenodd"/>
</svg>
