<svg xmlns="http://www.w3.org/2000/svg" width="16" height="16" fill="currentColor" viewBox="0 0 16 16">
  <path fill-rule="evenodd" d="M2.5 1a.5.5 0 0 0 0 1H4v2.388C4 5.939 4.839 7.3 6.085 8A4.133 4.133 0 0 0 4 11.612V14H2.5a.5.5 0 0 0 0 1h11a.5.5 0 0 0 0-1H12v-2.388A4.133 4.133 0 0 0 9.915 8 4.133 4.133 0 0 0 12 4.388V2h1.5a.5.5 0 0 0 0-1h-11ZM11 2H5v2.388C5 6.123 6.358 7.5 8 7.5s3-1.377 3-3.112V2ZM8 8.5c-1.642 0-3 1.377-3 3.112V14h6v-2.388C11 9.877 9.642 8.5 8 8.5Z" clip-rule="evenodd"/>
</svg>
