<svg xmlns="http://www.w3.org/2000/svg" width="16" height="16" fill="currentColor" viewBox="0 0 16 16">
  <path fill-rule="evenodd" d="M3.511 6.034C3.672 3.781 5.545 2 7.82 2a4.324 4.324 0 0 1 4.105 3h.022C13.546 5 15 6.565 15 8.285c0 .48-.07.94-.21 1.375a.503.503 0 0 1-.475.345l-.01-.005a.499.499 0 0 1-.475-.655c.11-.33.165-.69.165-1.06 0-1.175-1-2.285-2.054-2.285-.54 0-.985.28-1.15.405a.498.498 0 0 1-.7-.11.498.498 0 0 1 .11-.7c.16-.118.41-.276.73-.4A3.32 3.32 0 0 0 7.813 3C6.056 3 4.612 4.385 4.502 6.134l.602.126c.27.055.444.325.384.595a.505.505 0 0 1-.594.385l-.75-.16c-.415-.075-.665-.07-.905.025-.74.3-1.24 1.03-1.24 1.82 0 1.14.9 2.07 2 2.07h1.75c.274 0 .5.225.5.5s-.226.5-.5.5V12h-1.75C2.345 12 1 10.625 1 8.93c0-1.195.75-2.3 1.87-2.75a2.03 2.03 0 0 1 .641-.146ZM10.25 14a.73.73 0 0 1-.365-.096l-2-1.124a.756.756 0 0 1-.385-.664V9.883c0-.274.15-.532.385-.664l2-1.124c.23-.127.5-.127.73 0l2 1.124c.24.132.385.39.385.664v2.233c0 .274-.15.532-.385.664l-2 1.124a.73.73 0 0 1-.365.096ZM8.5 11.964l1.75.988 1.75-.988V10.03l-1.75-.988-1.75.988v1.934Z" clip-rule="evenodd"/>
</svg>
