<svg xmlns="http://www.w3.org/2000/svg" width="16" height="16" fill="none" viewBox="0 0 16 16">
  <path fill="#3D3C3C" fill-rule="evenodd" d="M1 2.5A1.5 1.5 0 0 1 2.5 1h8A1.5 1.5 0 0 1 12 2.5V6a.5.5 0 0 1-1 0V2.5a.5.5 0 0 0-.5-.5h-8a.5.5 0 0 0-.5.5v11a.5.5 0 0 0 .5.5h4a.5.5 0 0 1 0 1h-4A1.5 1.5 0 0 1 1 13.5v-11Zm3.5 2a2 2 0 1 1 3.999-.001A2 2 0 0 1 4.5 4.5Zm2-1a1 1 0 1 0-.001 1.999A1 1 0 0 0 6.5 3.5Zm-2 4.873c0-.05.026-.134.144-.224.12-.09.29-.149.456-.149H7a.5.5 0 0 0 0-1H5.1a1.78 1.78 0 0 0-1.059.352c-.295.223-.544.578-.541 1.028V9.5a.5.5 0 0 0 .5.5h2a.5.5 0 0 0 0-1H4.5v-.627Zm-1 3.127A.5.5 0 0 1 4 11h1.5a.5.5 0 0 1 0 1H4a.5.5 0 0 1-.5-.5Zm.5 1a.5.5 0 0 0 0 1h1.5a.5.5 0 0 0 0-1H4Zm7.44-5.236a.5.5 0 0 1 .672-.207l1.531.801a.5.5 0 0 1 .212.673l-.258.5c.124.166.23.343.319.527l.608.028a.5.5 0 0 1 .476.5v1.677a.5.5 0 0 1-.484.5l-.526.017a3.2 3.2 0 0 1-.125.264l-.002.003a3.612 3.612 0 0 1-.154.258l.326.561a.5.5 0 0 1-.187.687l-1.57.883a.5.5 0 0 1-.693-.214l-.235-.473c-.178.02-.358.025-.54.015l-.25.469a.5.5 0 0 1-.672.207l-1.545-.809a.5.5 0 0 1-.209-.68l.265-.49a3.278 3.278 0 0 1-.302-.496l-.528.017a.5.5 0 0 1-.516-.484L7 10.248a.5.5 0 0 1 .484-.514l.525-.017a2.976 2.976 0 0 1 .277-.518l-.279-.453a.5.5 0 0 1 .162-.686l1.478-.922a.5.5 0 0 1 .69.163l.278.451a3.16 3.16 0 0 1 .574-.02l.25-.468Zm.648.909-.177.33a.5.5 0 0 1-.529.257c-.3-.053-.605-.04-.893.031a.5.5 0 0 1-.546-.223l-.194-.315-.63.393.195.316a.5.5 0 0 1-.043.583 2.304 2.304 0 0 0-.427.805.5.5 0 0 1-.463.355l-.366.012.023.75.367-.012a.5.5 0 0 1 .485.327c.106.29.265.553.475.777a.5.5 0 0 1 .074.58l-.184.341.657.344.177-.331a.5.5 0 0 1 .529-.257c.3.054.605.041.893-.03a.5.5 0 0 1 .568.263l.168.337.669-.376-.236-.406a.5.5 0 0 1 .05-.572 2.294 2.294 0 0 0 .426-.805.5.5 0 0 1 .463-.355l.381-.013v-.716l-.444-.021a.5.5 0 0 1-.446-.328 2.28 2.28 0 0 0-.475-.777.5.5 0 0 1-.079-.571l.183-.353-.651-.34ZM11.5 11a.5.5 0 1 1-1 0 .5.5 0 0 1 1 0Zm1 0a1.5 1.5 0 1 1-3 0 1.5 1.5 0 0 1 3 0Z" clip-rule="evenodd"/>
</svg>
