<svg xmlns="http://www.w3.org/2000/svg" width="16" height="16" fill="currentColor" viewBox="0 0 16 16">
  <path fill-rule="evenodd" d="M2.5 2.5A1.5 1.5 0 0 1 4 1h8a1.5 1.5 0 0 1 1.5 1.5v11A1.5 1.5 0 0 1 12 15H4a1.5 1.5 0 0 1-1.5-1.5v-11ZM4 2a.5.5 0 0 0-.5.5v11a.5.5 0 0 0 .5.5h8a.5.5 0 0 0 .5-.5v-11A.5.5 0 0 0 12 2H4Zm2 2.5a2 2 0 1 1 3.999-.001A2 2 0 0 1 6 4.5Zm2-1a1 1 0 1 0-.001 1.999A1 1 0 0 0 8 3.5ZM6 8.373c0-.05.026-.134.144-.224.12-.09.29-.149.456-.149h2.897c.173 0 .311.054.396.121.077.062.108.13.107.207V9H6v-.627ZM6.6 7a1.78 1.78 0 0 0-1.059.352c-.295.223-.544.578-.541 1.028V9.5a.5.5 0 0 0 .5.5h5a.5.5 0 0 0 .5-.5V8.335C11.007 7.455 10.198 7 9.497 7H6.6ZM5 11.5a.5.5 0 0 1 .5-.5h5a.5.5 0 0 1 0 1h-5a.5.5 0 0 1-.5-.5Zm.5 1a.5.5 0 0 0 0 1h5a.5.5 0 0 0 0-1h-5Z" clip-rule="evenodd"/>
</svg>
