<svg xmlns="http://www.w3.org/2000/svg" width="16" height="16" fill="currentColor" viewBox="0 0 16 16">
  <path fill-rule="evenodd" d="M2.5 2.5A1.5 1.5 0 0 1 4 1h8a1.5 1.5 0 0 1 1.5 1.5v11A1.5 1.5 0 0 1 12 15H4a1.5 1.5 0 0 1-1.5-1.5v-11ZM4 2a.5.5 0 0 0-.5.5v11a.5.5 0 0 0 .5.5h8a.5.5 0 0 0 .5-.5v-11A.5.5 0 0 0 12 2H4Z" clip-rule="evenodd"/>
  <path fill-rule="evenodd" d="M6 4.5a2 2 0 1 1 3.999-.001A2 2 0 0 1 6 4.5Zm2-1a1 1 0 1 0-.001 1.999A1 1 0 0 0 8 3.5ZM6.144 8.15c-.118.089-.144.172-.144.223V9h4v-.672a.253.253 0 0 0-.107-.207A.642.642 0 0 0 9.497 8H6.6a.781.781 0 0 0-.456.15Zm-.603-.798A1.78 1.78 0 0 1 6.6 7h2.897c.701 0 1.51.455 1.503 1.335V9.5a.5.5 0 0 1-.5.5h-5a.5.5 0 0 1-.5-.5V8.38c-.003-.45.246-.805.541-1.028ZM5 11.5a.5.5 0 0 1 .5-.5h5a.5.5 0 0 1 0 1h-5a.5.5 0 0 1-.5-.5ZM5 13a.5.5 0 0 1 .5-.5h5a.5.5 0 0 1 0 1h-5A.5.5 0 0 1 5 13Z" clip-rule="evenodd"/>
</svg>
