<svg xmlns="http://www.w3.org/2000/svg" width="16" height="16" fill="currentColor" viewBox="0 0 16 16">
  <path d="M9.171 13.886a.5.5 0 0 1 .195.98 7.03 7.03 0 0 1-2.732 0 .5.5 0 1 1 .195-.98 6.029 6.029 0 0 0 2.342 0Zm-6.854-2.69a.5.5 0 0 1 .662.097l.031.04.17.241c.352.474.772.894 1.246 1.245l.24.17.042.031a.5.5 0 0 1-.554.827l-.044-.026-.142-.098a7.036 7.036 0 0 1-1.691-1.691l-.098-.142-.026-.044a.5.5 0 0 1 .164-.65Zm10.704.097a.5.5 0 0 1 .8.597l-.098.142a7.036 7.036 0 0 1-1.833 1.789l-.044.026a.5.5 0 0 1-.512-.857l.24-.17a6.033 6.033 0 0 0 1.416-1.486l.03-.041ZM1 8c0-.467.046-.924.133-1.366a.5.5 0 1 1 .981.195 6.031 6.031 0 0 0 0 2.342.5.5 0 0 1-.98.195A7.033 7.033 0 0 1 1 8Zm13 0c0-.401-.04-.793-.114-1.171l.98-.195a7.03 7.03 0 0 1 0 2.732.5.5 0 1 1-.98-.195C13.96 8.793 14 8.401 14 8Zm.28-1.76a.5.5 0 0 1 .587.394l-.981.195a.5.5 0 0 1 .393-.588ZM4.153 2.154a.5.5 0 0 1 .513.857l-.241.17A6.036 6.036 0 0 0 3.01 4.667l-.03.042a.5.5 0 0 1-.8-.598l.097-.142A7.037 7.037 0 0 1 4.11 2.18l.044-.026Zm7.042.164a.5.5 0 0 1 .65-.164l.044.026.142.098a7.036 7.036 0 0 1 1.691 1.691l.098.142.026.044a.5.5 0 0 1-.826.554l-.031-.042-.17-.24a6.035 6.035 0 0 0-1.246-1.245l-.24-.17-.041-.032a.5.5 0 0 1-.097-.662ZM8 1c.467 0 .924.046 1.366.133a.5.5 0 1 1-.195.981 6.031 6.031 0 0 0-2.342 0 .5.5 0 0 1-.195-.98A7.033 7.033 0 0 1 8 1Z"/>
</svg>
