<svg xmlns="http://www.w3.org/2000/svg" width="16" height="16" fill="currentColor" viewBox="0 0 16 16">
  <path fill-rule="evenodd" d="M2 1a1 1 0 0 0-1 1v11.5A1.5 1.5 0 0 0 2.5 15h11a1.5 1.5 0 0 0 1.5-1.5V4.224a1 1 0 0 0-1.5-.865L10 5.383V4.247a1 1 0 0 0-1.52-.854L5.25 5.36V2a1 1 0 0 0-1-1H2Zm10.5 13h1a.5.5 0 0 0 .5-.5V4.224L10.5 6.25A1 1 0 0 1 9 5.383V4.247L5.77 6.214a1 1 0 0 1-1.52-.854V2H2v11.5a.5.5 0 0 0 .5.5H8v-4a1 1 0 0 1 1-1h2.5a1 1 0 0 1 1 1v4ZM9 14h2.5v-4H9v4Z" clip-rule="evenodd"/>
</svg>
