<svg xmlns="http://www.w3.org/2000/svg" width="16" height="16" fill="currentColor" viewBox="0 0 16 16">
  <path fill-rule="evenodd" d="M6.296 1.861c0-.473.388-.861.861-.861H7.5a.5.5 0 0 1 0 1h-.204v1.09a.5.5 0 0 1-.38.485 4.525 4.525 0 0 0-1.274.53.5.5 0 0 1-.615-.074l-.768-.768-.993.993.769.77a.5.5 0 0 1 .073.613 4.533 4.533 0 0 0-.529 1.276.5.5 0 0 1-.485.38H2v1.41h1.089a.5.5 0 0 1 .485.38c.114.458.292.887.529 1.276a.5.5 0 0 1-.073.614l-.769.769.993.993.768-.768a.5.5 0 0 1 .615-.073c.388.237.817.415 1.275.529a.5.5 0 0 1 .38.485V14H7.5a.5.5 0 0 1 0 1h-.347a.864.864 0 0 1-.862-.861v-.852a5.52 5.52 0 0 1-.83-.344l-.598.6a.863.863 0 0 1-1.218 0l-1.189-1.19a.864.864 0 0 1 0-1.218l.6-.6a5.53 5.53 0 0 1-.344-.83h-.85A.864.864 0 0 1 1 8.843V7.157c0-.474.387-.862.861-.862h.855a5.53 5.53 0 0 1 .344-.83l-.6-.6a.864.864 0 0 1 0-1.218l1.19-1.19a.863.863 0 0 1 1.218 0l.599.6c.265-.137.543-.252.83-.344V1.86Z" clip-rule="evenodd"/>
  <path fill-rule="evenodd" d="M10.5 4.5A.5.5 0 0 1 11 4h1a.5.5 0 0 1 0 1h-.5v1.5a.5.5 0 0 1-.5.5H7.5a.5.5 0 0 1 0-1h3V4.5Z" clip-rule="evenodd"/>
  <path fill-rule="evenodd" d="M9.5 3.5a.5.5 0 0 1 .5.5v1a.5.5 0 0 1-.5.5h-2c-.953 0-1.56.414-1.944.925C5.156 6.957 5 7.601 5 8c0 .434.112 1.073.472 1.588.34.486.935.912 2.028.912h2a.5.5 0 0 1 .5.5v1a.5.5 0 0 1-1 0v-.5H7.5c-1.407 0-2.312-.574-2.847-1.338C4.138 9.427 4 8.566 4 8c0-.6.218-1.457.756-2.175C5.31 5.086 6.203 4.5 7.5 4.5H9V4a.5.5 0 0 1 .5-.5Z" clip-rule="evenodd"/>
  <path fill-rule="evenodd" d="M5.91 6.75c.35-.447.925-.75 1.77-.75a.5.5 0 0 1 0 1c-.585 0-.85.197-.983.366a1.01 1.01 0 0 0-.197.6c0 .162.047.43.205.643.139.187.403.391.975.391H11a.5.5 0 0 1 .5.5V11h1a.5.5 0 0 1 0 1H11a.5.5 0 0 1-.5-.5V10H7.68c-.858 0-1.434-.33-1.778-.795a2.137 2.137 0 0 1-.402-1.24c0-.305.079-.792.41-1.215Z" clip-rule="evenodd"/>
  <path fill-rule="evenodd" d="M7 8a.5.5 0 0 1 .5-.5h4.75a.5.5 0 0 1 0 1H7.5A.5.5 0 0 1 7 8Zm2.5-6a.5.5 0 1 0 0 1 .5.5 0 0 0 0-1ZM8 2.5a1.5 1.5 0 1 1 3 0 1.5 1.5 0 0 1-3 0ZM13.5 4a.5.5 0 1 0 0 1 .5.5 0 0 0 0-1Zm-1.5.5a1.5 1.5 0 1 1 3 0 1.5 1.5 0 0 1-3 0Z" clip-rule="evenodd"/>
  <path fill-rule="evenodd" d="M13.5 7.5a.5.5 0 1 0 0 1 .5.5 0 0 0 0-1ZM12 8a1.5 1.5 0 1 1 3 0 1.5 1.5 0 0 1-3 0Zm-2.5 5a.5.5 0 1 0 0 1 .5.5 0 0 0 0-1Zm-1.5.5a1.5 1.5 0 1 1 3 0 1.5 1.5 0 0 1-3 0Zm5.5-2.5a.5.5 0 1 0 0 1 .5.5 0 0 0 0-1Zm-1.5.5a1.5 1.5 0 1 1 3 0 1.5 1.5 0 0 1-3 0Z" clip-rule="evenodd"/>
</svg>
