<svg xmlns="http://www.w3.org/2000/svg" width="16" height="16" fill="currentColor" viewBox="0 0 16 16">
  <path d="M9.363 1.494a.929.929 0 0 1 1.296-.361l.001-.001 1.594.937.043.028a.5.5 0 0 1-.505.857l-.045-.023-1.536-.903-.547.995a.926.926 0 0 1-.973.478 4.248 4.248 0 0 0-1.39.001.927.927 0 0 1-.928-.418l-.037-.061-.546-.994-1.597.966.568 1.034.06.128a.984.984 0 0 1-.136.939l-.005.006a4.61 4.61 0 0 0-.706 1.287h-.001a.94.94 0 0 1-.88.623H2v1.976h1.094c.39 0 .745.244.88.624l.067.175c.164.406.38.78.64 1.113.243.311.262.74.08 1.07l-.568 1.034 1.597.967.546-.993.036-.06a.922.922 0 0 1 .938-.419h-.001a4.238 4.238 0 0 0 1.39 0l.001-.002.076-.008a.935.935 0 0 1 .85.425l.036.06.002.004.547.994 1.536-.903a.5.5 0 0 1 .507.862l-1.594.937a.932.932 0 0 1-1.297-.362l-.557-1.014a5.236 5.236 0 0 1-1.612 0l-.555 1.01a.93.93 0 0 1-1.304.362l-1.683-1.02v.002a.979.979 0 0 1-.342-1.308l.57-1.04a5.695 5.695 0 0 1-.832-1.51H1.945c-.548 0-.945-.46-.945-.967V6.98c0-.516.405-.968.945-.968h1.103c.202-.549.48-1.058.832-1.51L3.309 3.46l-.042-.086a.98.98 0 0 1 .38-1.217l.003-.002 1.685-1.02.002-.001.088-.047a.931.931 0 0 1 1.16.323l.052.083v.001l.557 1.013a5.234 5.234 0 0 1 1.612 0l.557-1.013Zm1.689 7.508a.5.5 0 0 1 .448.498V11h.587a1.5 1.5 0 1 1 0 1H11a.5.5 0 0 1-.5-.5V10h-4a.5.5 0 0 1 0-1H11l.052.002ZM13.5 11a.5.5 0 1 0 0 1 .5.5 0 0 0 0-1Zm0-4.5a1.5 1.5 0 1 1-1.413 2H8.5a.5.5 0 0 1 0-1h3.587a1.5 1.5 0 0 1 1.413-1Zm0 1a.5.5 0 1 0 0 1 .5.5 0 0 0 0-1Zm0-4.5a1.5 1.5 0 1 1-1.416 1.991.5.5 0 0 1-.084.01h-.5v1.5a.5.5 0 0 1-.5.5H6.5a.5.5 0 0 1 0-1h4V4.5l.003-.053A.5.5 0 0 1 11 4h1a.46.46 0 0 1 .084.008A1.5 1.5 0 0 1 13.5 3Zm0 1a.5.5 0 1 0 0 1 .5.5 0 0 0 0-1Z"/>
</svg>
