<svg xmlns="http://www.w3.org/2000/svg" width="16" height="16" fill="currentColor" viewBox="0 0 16 16">
  <path fill-rule="evenodd" d="M7.157 1a.864.864 0 0 0-.86.861v.852a5.523 5.523 0 0 0-.83.344l-.6-.6a.863.863 0 0 0-1.217 0l-1.19 1.19a.864.864 0 0 0 0 1.218l.6.6a5.53 5.53 0 0 0-.344.83h-.855A.864.864 0 0 0 1 7.157v1.686c0 .474.387.862.861.862h.85c.093.287.208.565.344.83l-.6.6a.864.864 0 0 0 .001 1.218l1.19 1.19a.863.863 0 0 0 1.217 0l.599-.6c.265.137.543.252.83.344v.852c0 .473.387.861.86.861H7.5a.5.5 0 0 0 0-1h-.209v-1.09a.5.5 0 0 0-.38-.485 4.526 4.526 0 0 1-1.274-.53.5.5 0 0 0-.615.074l-.768.768-.993-.993.769-.77a.5.5 0 0 0 .073-.613 4.533 4.533 0 0 1-.529-1.277.5.5 0 0 0-.485-.38H2V7.296h1.094a.5.5 0 0 0 .485-.38c.113-.458.291-.887.529-1.276a.5.5 0 0 0-.073-.614l-.769-.769.993-.993.768.768a.5.5 0 0 0 .615.073 4.525 4.525 0 0 1 1.275-.529.5.5 0 0 0 .38-.485V2H7.5a.5.5 0 0 0 0-1h-.343ZM11 4a.5.5 0 0 0-.5.5V6h-3a.501.501 0 0 0-.113.013c-.687.062-1.17.344-1.477.737-.331.423-.41.91-.41 1.215 0 .303.078.802.402 1.24.344.464.92.795 1.778.795h2.82v1.5a.5.5 0 0 0 .5.5h1.085a1.5 1.5 0 1 0 0-1H11.5V9.5A.5.5 0 0 0 11 9H7.68c-.572 0-.836-.204-.975-.39a1.14 1.14 0 0 1-.205-.645c0-.16.046-.405.197-.599.133-.17.398-.366.983-.366H11a.5.5 0 0 0 .5-.5V5h.5a.503.503 0 0 0 .083-.007 1.5 1.5 0 1 0 0-.986A.503.503 0 0 0 12 4h-1Zm2 7.5a.5.5 0 1 0 1 0 .5.5 0 0 0-1 0ZM9.993 3.917A.503.503 0 0 1 10 4v1a.5.5 0 0 1-.5.5h-2c-.953 0-1.56.414-1.944.925C5.156 6.957 5 7.601 5 8c0 .434.112 1.073.472 1.588.34.486.935.912 2.028.912h2a.5.5 0 0 1 .5.5v1a.503.503 0 0 1-.007.083 1.5 1.5 0 1 1-.986 0A.503.503 0 0 1 9 12v-.5H7.5c-1.407 0-2.312-.574-2.847-1.338C4.138 9.427 4 8.566 4 8c0-.6.218-1.457.756-2.175C5.31 5.086 6.203 4.5 7.5 4.5H9V4c0-.028.002-.056.007-.083a1.5 1.5 0 1 1 .986 0ZM7 8a.5.5 0 0 1 .5-.5h4.585a1.5 1.5 0 1 1 0 1H7.5A.5.5 0 0 1 7 8Zm2-5.5a.5.5 0 1 1 1 0 .5.5 0 0 1-1 0ZM13.5 4a.5.5 0 1 0 0 1 .5.5 0 0 0 0-1ZM13 8a.5.5 0 1 1 1 0 .5.5 0 0 1-1 0Zm-3.5 5a.5.5 0 1 0 0 1 .5.5 0 0 0 0-1Z" clip-rule="evenodd"/>
</svg>
