<svg xmlns="http://www.w3.org/2000/svg" width="16" height="16" fill="currentColor" viewBox="0 0 16 16">
  <path d="M5.5 2a.5.5 0 0 1 0 1H2.784A.772.772 0 0 0 2 3.76V9.5h12V9a.5.5 0 0 1 1 0v1.74c0 .98-.807 1.76-1.783 1.76H8.5V14H11a.5.5 0 0 1 0 1H5a.5.5 0 0 1 0-1h2.5v-1.5H2.784C1.808 12.5 1 11.72 1 10.74V3.76C1 2.78 1.808 2 2.784 2H5.5ZM2 10.74c0 .41.342.76.784.76h10.433c.441 0 .783-.35.783-.76v-.24H2v.24ZM10.5 1c2.204 0 4 1.796 4 4 0 2.204-1.796 4-4 4-2.204 0-4-1.796-4-4 0-2.204 1.796-4 4-4Zm-.982 4.5c.046.707.187 1.325.381 1.778.12.28.25.474.37.591.116.115.194.131.231.131.037 0 .116-.016.232-.13.119-.118.249-.312.369-.592.194-.453.335-1.071.381-1.778H9.518Zm-1.975 0a3.008 3.008 0 0 0 1.39 2.052C8.707 6.98 8.56 6.27 8.516 5.5h-.973Zm4.941 0c-.044.77-.192 1.48-.418 2.052A3.008 3.008 0 0 0 13.457 5.5h-.973ZM8.933 2.447A3.01 3.01 0 0 0 7.543 4.5h.973c.044-.77.19-1.48.417-2.053ZM10.5 2c-.037 0-.115.016-.231.13-.12.118-.25.313-.37.593-.194.453-.335 1.07-.381 1.777h1.964c-.046-.707-.187-1.324-.381-1.777-.12-.28-.25-.475-.369-.592C10.616 2.016 10.538 2 10.5 2Zm1.566.447c.226.573.374 1.282.418 2.053h.973a3.009 3.009 0 0 0-1.39-2.053Z"/>
</svg>
