<svg xmlns="http://www.w3.org/2000/svg" width="16" height="16" fill="currentColor" viewBox="0 0 16 16">
  <path d="M5.5 9A1.5 1.5 0 0 1 7 10.5v3A1.5 1.5 0 0 1 5.5 15h-3A1.5 1.5 0 0 1 1 13.5v-3A1.5 1.5 0 0 1 2.5 9h3ZM13 9a1.5 1.5 0 0 1 1.5 1.5v3A1.5 1.5 0 0 1 13 15h-3a1.5 1.5 0 0 1-1.5-1.5v-3A1.5 1.5 0 0 1 10 9h3ZM2.5 10a.5.5 0 0 0-.5.5v3a.5.5 0 0 0 .5.5h3a.5.5 0 0 0 .5-.5v-3a.5.5 0 0 0-.5-.5h-1v1a.5.5 0 0 1-1 0v-1h-1Zm7.5 0a.5.5 0 0 0-.5.5v3a.5.5 0 0 0 .5.5h3a.5.5 0 0 0 .5-.5v-3a.5.5 0 0 0-.5-.5h-1v1a.5.5 0 0 1-1 0v-1h-1Zm4-8.5a.5.5 0 0 1 .5.5v1.5a.5.5 0 0 1-.5.5h-1.5a.5.5 0 0 1 0-1h.497A2.5 2.5 0 1 0 14 5a.5.5 0 0 1 1 0 3.5 3.5 0 1 1-1.5-2.873V2a.5.5 0 0 1 .5-.5ZM5.5 2A1.5 1.5 0 0 1 7 3.5v3A1.5 1.5 0 0 1 5.5 8h-3A1.5 1.5 0 0 1 1 6.5v-3A1.5 1.5 0 0 1 2.5 2h3Zm-3 1a.5.5 0 0 0-.5.5v3a.5.5 0 0 0 .5.5h3a.5.5 0 0 0 .5-.5v-3a.5.5 0 0 0-.5-.5h-1v1a.5.5 0 0 1-1 0V3h-1Z"/>
</svg>
