<svg xmlns="http://www.w3.org/2000/svg" width="16" height="16" fill="currentColor" viewBox="0 0 16 16">
  <path d="M5.5 9A1.5 1.5 0 0 1 7 10.5v3A1.5 1.5 0 0 1 5.5 15h-3A1.5 1.5 0 0 1 1 13.5v-3A1.5 1.5 0 0 1 2.5 9h3ZM13 9a1.5 1.5 0 0 1 1.5 1.5v3A1.5 1.5 0 0 1 13 15h-3a1.5 1.5 0 0 1-1.5-1.5v-3A1.5 1.5 0 0 1 10 9h3ZM2.5 10a.5.5 0 0 0-.5.5v3a.5.5 0 0 0 .5.5h3a.5.5 0 0 0 .5-.5v-3a.5.5 0 0 0-.5-.5h-1v1a.5.5 0 0 1-1 0v-1h-1Zm7.5 0a.5.5 0 0 0-.5.5v3a.5.5 0 0 0 .5.5h3a.5.5 0 0 0 .5-.5v-3a.5.5 0 0 0-.5-.5h-1v1a.5.5 0 0 1-1 0v-1h-1Zm1.5-8.5a3.5 3.5 0 1 1 0 7 3.5 3.5 0 0 1 0-7Zm-6 .5A1.5 1.5 0 0 1 7 3.5v3A1.5 1.5 0 0 1 5.5 8h-3A1.5 1.5 0 0 1 1 6.5v-3A1.5 1.5 0 0 1 2.5 2h3Zm6 .5a2.5 2.5 0 1 0 0 5 2.5 2.5 0 0 0 0-5Zm-9 .5a.5.5 0 0 0-.5.5v3a.5.5 0 0 0 .5.5h3a.5.5 0 0 0 .5-.5v-3a.5.5 0 0 0-.5-.5h-1v1a.5.5 0 0 1-1 0V3h-1Zm9.59.713a.501.501 0 0 1 .82.574l-1.402 2a.5.5 0 0 1-.82 0l-.598-.86a.5.5 0 0 1 .82-.572l.189.272.99-1.414Z"/>
</svg>
