<svg xmlns="http://www.w3.org/2000/svg" width="16" height="16" fill="currentColor" viewBox="0 0 16 16">
  <path fill-rule="evenodd" d="M5.5 8.5A1.5 1.5 0 0 1 7 10v3a1.5 1.5 0 0 1-1.5 1.5h-3A1.5 1.5 0 0 1 1 13v-3a1.5 1.5 0 0 1 1.5-1.5h3Zm-3 1a.5.5 0 0 0-.5.5v3a.5.5 0 0 0 .5.5h3A.5.5 0 0 0 6 13v-3a.5.5 0 0 0-.5-.5h-1v1a.5.5 0 0 1-1 0v-1h-1Zm10.5-1a1.5 1.5 0 0 1 1.5 1.5v3a1.5 1.5 0 0 1-1.5 1.5h-3A1.5 1.5 0 0 1 8.5 13v-3A1.5 1.5 0 0 1 10 8.5h3Zm-3 1a.5.5 0 0 0-.5.5v3a.5.5 0 0 0 .5.5h3a.5.5 0 0 0 .5-.5v-3a.5.5 0 0 0-.5-.5h-1v1a.5.5 0 0 1-1 0v-1h-1Zm-4.5-8A1.5 1.5 0 0 1 7 3v3a1.5 1.5 0 0 1-1.5 1.5h-3A1.5 1.5 0 0 1 1 6V3a1.5 1.5 0 0 1 1.5-1.5h3Zm-3 1A.5.5 0 0 0 2 3v3a.5.5 0 0 0 .5.5h3A.5.5 0 0 0 6 6V3a.5.5 0 0 0-.5-.5h-1v1a.5.5 0 0 1-1 0v-1h-1Z" clip-rule="evenodd"/>
  <path d="M11.5 3.75a.75.75 0 1 1 0 1.5.75.75 0 0 1 0-1.5Z"/>
  <path fill-rule="evenodd" d="M11.5 2c1.127 0 2.232.556 2.987 1.62l.42.591a.5.5 0 0 1 0 .58l-.42.59v.001C13.731 6.445 12.626 7 11.5 7c-1.056 0-2.094-.488-2.841-1.425l-.146-.193-.42-.591a.5.5 0 0 1 0-.58l.42-.59C9.267 2.554 10.372 2 11.5 2Zm0 1c-.786 0-1.595.384-2.172 1.199l-.215.302.215.302C9.905 5.616 10.713 6 11.499 6c.786 0 1.595-.384 2.173-1.197l.214-.302-.214-.302C13.095 3.385 12.286 3 11.5 3Z" clip-rule="evenodd"/>
</svg>
