<svg xmlns="http://www.w3.org/2000/svg" width="16" height="16" fill="currentColor" viewBox="0 0 16 16">
  <path fill-rule="evenodd" d="M5.5 9A1.5 1.5 0 0 1 7 10.5v3A1.5 1.5 0 0 1 5.5 15h-3A1.5 1.5 0 0 1 1 13.5v-3A1.5 1.5 0 0 1 2.5 9h3Zm-3 1a.5.5 0 0 0-.5.5v3a.5.5 0 0 0 .5.5h3a.5.5 0 0 0 .5-.5v-3a.5.5 0 0 0-.5-.5h-1v1a.5.5 0 0 1-1 0v-1h-1Zm10-1a1.5 1.5 0 0 1 1.5 1.5v3a1.5 1.5 0 0 1-1.5 1.5h-3A1.5 1.5 0 0 1 8 13.5v-3A1.5 1.5 0 0 1 9.5 9h3Zm-3 1a.5.5 0 0 0-.5.5v3a.5.5 0 0 0 .5.5h3a.5.5 0 0 0 .5-.5v-3a.5.5 0 0 0-.5-.5h-1v1a.5.5 0 0 1-1 0v-1h-1Zm2-7a1.5 1.5 0 1 1 0 3 1.5 1.5 0 0 1 0-3Zm0 1a.5.5 0 1 0 0 1 .5.5 0 0 0 0-1Z" clip-rule="evenodd"/>
  <path fill-rule="evenodd" d="M11.966.72a.5.5 0 0 1 .646-.163l1.531.8a.5.5 0 0 1 .212.674l-.259.5c.124.166.23.343.319.527l.608.028a.5.5 0 0 1 .477.5v1.677a.5.5 0 0 1-.484.5l-.527.017a3.218 3.218 0 0 1-.124.264l-.002.003a3.667 3.667 0 0 1-.154.257l.326.562a.5.5 0 0 1-.187.687l-1.57.883a.5.5 0 0 1-.693-.214l-.235-.474c-.178.02-.358.026-.539.015l-.25.47a.5.5 0 0 1-.673.207l-1.545-.81a.5.5 0 0 1-.209-.68l.265-.492a3.274 3.274 0 0 1-.301-.494l-.529.017a.5.5 0 0 1-.516-.484L7.5 3.748a.5.5 0 0 1 .484-.514l.526-.018a2.96 2.96 0 0 1 .276-.516l-.279-.454a.5.5 0 0 1 .162-.686l1.477-.921a.5.5 0 0 1 .69.162l.28.451c.188-.023.38-.03.572-.02l.252-.468.026-.043Zm.445 1.284a.5.5 0 0 1-.529.256c-.3-.053-.605-.04-.893.031a.5.5 0 0 1-.546-.223l-.194-.315-.63.392.194.317a.5.5 0 0 1-.042.583 2.305 2.305 0 0 0-.427.805.5.5 0 0 1-.463.355l-.366.012.023.75.367-.012.08.003a.5.5 0 0 1 .405.324c.106.289.265.553.475.778a.5.5 0 0 1 .074.579l-.184.341.657.344.177-.33.044-.068a.5.5 0 0 1 .485-.19c.3.054.605.04.893-.03a.5.5 0 0 1 .569.263l.167.337.668-.376-.235-.406a.5.5 0 0 1 .049-.572 2.301 2.301 0 0 0 .427-.805l.03-.074a.5.5 0 0 1 .433-.282l.381-.012v-.717l-.444-.02a.5.5 0 0 1-.446-.328 2.282 2.282 0 0 0-.475-.777.5.5 0 0 1-.079-.571l.182-.353-.65-.34-.177.33ZM5.5 2A1.5 1.5 0 0 1 7 3.5v3A1.5 1.5 0 0 1 5.5 8h-3A1.5 1.5 0 0 1 1 6.5v-3A1.5 1.5 0 0 1 2.5 2h3Zm-3 1a.5.5 0 0 0-.5.5v3a.5.5 0 0 0 .5.5h3a.5.5 0 0 0 .5-.5v-3a.5.5 0 0 0-.5-.5h-1v1a.5.5 0 0 1-1 0V3h-1Z" clip-rule="evenodd"/>
</svg>
