<svg xmlns="http://www.w3.org/2000/svg" width="16" height="16" fill="currentColor" viewBox="0 0 16 16">
  <path d="M5.5 9A1.5 1.5 0 0 1 7 10.5v3A1.5 1.5 0 0 1 5.5 15h-3A1.5 1.5 0 0 1 1 13.5v-3A1.5 1.5 0 0 1 2.5 9h3Zm7 0a1.5 1.5 0 0 1 1.5 1.5v3a1.5 1.5 0 0 1-1.5 1.5h-3A1.5 1.5 0 0 1 8 13.5v-3A1.5 1.5 0 0 1 9.5 9h3Zm-10 1a.5.5 0 0 0-.5.5v3a.5.5 0 0 0 .5.5h3a.5.5 0 0 0 .5-.5v-3a.5.5 0 0 0-.5-.5h-1v1a.5.5 0 0 1-1 0v-1h-1Zm7 0a.5.5 0 0 0-.5.5v3a.5.5 0 0 0 .5.5h3a.5.5 0 0 0 .5-.5v-3a.5.5 0 0 0-.5-.5h-1v1a.5.5 0 0 1-1 0v-1h-1ZM11 1.5a3 3 0 0 1 2.443 4.736l1.41 1.41a.5.5 0 1 1-.707.708l-1.41-1.41A3 3 0 1 1 11 1.5ZM5.5 2A1.5 1.5 0 0 1 7 3.5v3A1.5 1.5 0 0 1 5.5 8h-3A1.5 1.5 0 0 1 1 6.5v-3A1.5 1.5 0 0 1 2.5 2h3Zm-3 1a.5.5 0 0 0-.5.5v3a.5.5 0 0 0 .5.5h3a.5.5 0 0 0 .5-.5v-3a.5.5 0 0 0-.5-.5h-1v1a.5.5 0 0 1-1 0V3h-1Zm8.5-.5a2 2 0 1 0 0 4 2 2 0 0 0 0-4Z"/>
</svg>
