<svg xmlns="http://www.w3.org/2000/svg" width="16" height="16" fill="currentColor" viewBox="0 0 16 16">
  <path d="M8.5 1A2.5 2.5 0 0 1 11 3.5V5a.5.5 0 0 1-1 0V3.5A1.5 1.5 0 0 0 8.5 2h-5A1.5 1.5 0 0 0 2 3.5v2h6a.5.5 0 0 1 0 1H2v3h6l.052.003a.5.5 0 0 1 0 .995L8 10.5H2v2A1.5 1.5 0 0 0 3.5 14H8a.5.5 0 0 1 0 1H3.5A2.5 2.5 0 0 1 1 12.5v-9A2.5 2.5 0 0 1 3.5 1h5Zm2 5a1.5 1.5 0 0 1 .5 2.912V10h1.087a1.5 1.5 0 1 1 0 1H11v1.087a1.5 1.5 0 1 1-1 0V8.912A1.498 1.498 0 0 1 10.5 6Zm0 7a.5.5 0 1 0 0 1 .5.5 0 0 0 0-1Zm-7-1.5a.5.5 0 1 1 0 1 .5.5 0 0 1 0-1Zm10-1.5a.5.5 0 1 0 0 1 .5.5 0 0 0 0-1Zm-10-2.5a.5.5 0 1 1 0 1 .5.5 0 0 1 0-1Zm7-.5a.5.5 0 1 0 0 1 .5.5 0 0 0 0-1Zm-7-3.5a.5.5 0 1 1 0 1 .5.5 0 0 1 0-1Z"/>
</svg>
