<svg xmlns="http://www.w3.org/2000/svg" width="16" height="16" fill="none" viewBox="0 0 16 16">
  <path fill="#3D3C3C" fill-rule="evenodd" d="M12.171 2.96c-1.628-1.406-4.112-1.248-5.537.348a3.783 3.783 0 0 0-.688 3.97.5.5 0 0 1-.09.523L2 12.115V14h2.01l.093-1.24a.5.5 0 0 1 .453-.461L5.62 12.2v-1.09a.5.5 0 0 1 .433-.495l.965-.13a.5.5 0 1 1 .134.99l-.532.073v1.108a.5.5 0 0 1-.454.498l-1.097.1-.096 1.282a.5.5 0 0 1-.498.463H1.5a.5.5 0 0 1-.5-.5v-2.576a.5.5 0 0 1 .127-.333L4.91 7.359a4.782 4.782 0 0 1 .978-4.717c1.79-2.006 4.898-2.2 6.937-.44 1.635 1.411 2.093 3.62 1.285 5.496a.5.5 0 1 1-.918-.396c.637-1.48.28-3.22-1.02-4.343Zm-.854.54a1.99 1.99 0 0 1 .184 2.818 1.99 1.99 0 0 1-2.743.245.503.503 0 0 1-.078-.056 2.002 2.002 0 0 1-.183-2.823 1.991 1.991 0 0 1 2.82-.185Zm-.66.75a.991.991 0 0 0-1.406.09l-.003.004a1 1 0 0 0 .042 1.364c.02.013.039.028.057.044a.99.99 0 0 0 1.4-.09l.004-.004a.99.99 0 0 0-.09-1.404l-.005-.004ZM5.871 9.834a.5.5 0 0 0-.744-.668l-2.25 2.5a.5.5 0 0 0 .744.668l2.25-2.5ZM13.5 11.5a.5.5 0 0 1-.5.5h-3a.5.5 0 0 1 0-1h3a.5.5 0 0 1 .5.5Zm-2-3.5a3.5 3.5 0 1 0 0 7 3.5 3.5 0 0 0 0-7ZM9 11.5a2.5 2.5 0 1 1 5 0 2.5 2.5 0 0 1-5 0Z" clip-rule="evenodd"/>
</svg>
