<svg xmlns="http://www.w3.org/2000/svg" width="16" height="16" fill="currentColor" viewBox="0 0 16 16">
  <path fill-rule="evenodd" d="M6.634 3.308c1.425-1.596 3.909-1.754 5.537-.349 1.301 1.123 1.658 2.863 1.021 4.343a.5.5 0 0 0 .918.396c.808-1.876.35-4.085-1.285-5.496-2.04-1.76-5.146-1.566-6.937.44A4.782 4.782 0 0 0 4.91 7.36l-3.783 4.232a.5.5 0 0 0-.127.333V14.5a.5.5 0 0 0 .5.5h2.975a.5.5 0 0 0 .498-.463l.096-1.281 1.097-.1a.5.5 0 0 0 .454-.499V11.55l.532-.072a.5.5 0 1 0-.134-.991l-.965.13a.5.5 0 0 0-.433.496v1.09l-1.064.097a.5.5 0 0 0-.453.46L4.011 14H2v-1.885L5.856 7.8a.5.5 0 0 0 .09-.523 3.783 3.783 0 0 1 .688-3.97Zm4.867 3.01a1.99 1.99 0 0 0-.184-2.819 1.991 1.991 0 0 0-2.82.185 2.002 2.002 0 0 0 .183 2.823.53.53 0 0 0 .078.056 1.99 1.99 0 0 0 2.743-.245Zm-2.25-1.977a.991.991 0 0 1 1.405-.091l.005.004a.99.99 0 0 1 .09 1.404l-.004.003a.99.99 0 0 1-1.4.091.505.505 0 0 0-.057-.044c-.367-.37-.39-.97-.042-1.364l.003-.003ZM5.87 9.834a.5.5 0 0 0-.743-.668l-2.25 2.5a.5.5 0 0 0 .744.668l2.25-2.5ZM11.5 9.5a.5.5 0 0 1 .5.5v1h1a.5.5 0 0 1 0 1h-1v1a.5.5 0 0 1-1 0v-1h-1a.5.5 0 0 1 0-1h1v-1a.5.5 0 0 1 .5-.5Zm-3.5 2a3.5 3.5 0 1 1 7 0 3.5 3.5 0 0 1-7 0ZM11.5 9a2.5 2.5 0 1 0 0 5 2.5 2.5 0 0 0 0-5Z" clip-rule="evenodd"/>
</svg>
