<svg xmlns="http://www.w3.org/2000/svg" width="16" height="16" fill="currentColor" viewBox="0 0 16 16">
  <path fill-rule="evenodd" d="M11.317 3.5a1.99 1.99 0 0 1 .184 2.818 1.99 1.99 0 0 1-2.743.245.503.503 0 0 1-.078-.056 2.002 2.002 0 0 1-.183-2.823 1.991 1.991 0 0 1 2.82-.185Zm-.66.75a.991.991 0 0 0-1.406.09l-.003.004a1 1 0 0 0 .042 1.364c.02.013.039.028.057.044a.99.99 0 0 0 1.4-.09l.004-.004a.99.99 0 0 0-.09-1.404l-.005-.004Z" clip-rule="evenodd"/>
  <path fill-rule="evenodd" d="M12.03 2.93a3.882 3.882 0 0 0-5.47.35 3.86 3.86 0 0 0-.682 4 .5.5 0 0 1-.088.518l-3.819 4.339v1.901h1.98l.092-1.25a.5.5 0 0 1 .453-.46l1.049-.098v-1.1a.5.5 0 0 1 .442-.496l1.34-.156.662-.751a.5.5 0 0 1 .5-.154 3.886 3.886 0 0 0 3.891-1.186 3.862 3.862 0 0 0-.35-5.458Zm-6.22-.31a4.881 4.881 0 0 1 6.878-.442 4.862 4.862 0 0 1 .443 6.87v.002a4.883 4.883 0 0 1-4.587 1.56l-.593.674a.5.5 0 0 1-.318.167l-1.088.126v1.108a.5.5 0 0 1-.454.498l-1.081.1-.095 1.292a.5.5 0 0 1-.499.463H1.471a.5.5 0 0 1-.5-.5v-2.59a.5.5 0 0 1 .125-.33L4.843 7.36a4.857 4.857 0 0 1 .966-4.74Z" clip-rule="evenodd"/>
  <path fill-rule="evenodd" d="M5.834 9.128a.5.5 0 0 1 .038.706l-2.25 2.5a.5.5 0 0 1-.744-.668l2.25-2.5a.5.5 0 0 1 .706-.038Z" clip-rule="evenodd"/>
</svg>
