<svg xmlns="http://www.w3.org/2000/svg" width="16" height="16" fill="currentColor" viewBox="0 0 16 16">
  <path d="M11.411 7.587a.709.709 0 0 1 .675-.002c.921.492 1.777.793 2.222.93l.164.05.005.001c.28.085.523.342.523.688v2.783c0 .457-.206.855-.458 1.174a4.486 4.486 0 0 1-.91.833 9.37 9.37 0 0 1-1.595.896l-.009.004a.721.721 0 0 1-.556 0c-.003 0-.006-.002-.008-.003a9.428 9.428 0 0 1-1.598-.897 4.478 4.478 0 0 1-.908-.833c-.252-.319-.458-.717-.458-1.174v-2.78c0-.338.236-.609.533-.692.375-.11 1.338-.418 2.378-.978Zm.338.951a13.94 13.94 0 0 1-2.249.929v2.57c0 .149.069.334.243.555.173.219.422.436.705.638a8.307 8.307 0 0 0 1.302.742 8.34 8.34 0 0 0 1.302-.742 3.47 3.47 0 0 0 .705-.64c.175-.22.243-.404.243-.553v-2.57a14.159 14.159 0 0 1-2.251-.929ZM1.5 7.5A.5.5 0 0 1 2 8v4h4a.5.5 0 0 1 0 1H2a1 1 0 0 1-1-1V8a.5.5 0 0 1 .5-.5Zm11.124 2.67a.5.5 0 0 1 .753.66l-1.751 2a.5.5 0 0 1-.753 0l-.749-.857a.5.5 0 1 1 .753-.659l.373.426 1.374-1.57ZM7.5 7.5a.5.5 0 0 1 0 1H5.21c-.433 0-.711.314-.71.621l.007.879H7.5a.5.5 0 0 1 0 1H4.012a.5.5 0 0 1-.5-.495L3.5 9.13v-.002C3.494 8.192 4.299 7.5 5.21 7.5H7.5ZM7 3a2 2 0 1 1 0 4 2 2 0 0 1 0-4ZM6 1a.5.5 0 0 1 0 1H2v4a.5.5 0 0 1-1 0V2a1 1 0 0 1 1-1h4Zm6 0a1 1 0 0 1 1 1v4a.5.5 0 0 1-1 0V2H8a.5.5 0 0 1 0-1h4ZM7 4a1 1 0 1 0 0 2 1 1 0 0 0 0-2Z"/>
</svg>
