<svg xmlns="http://www.w3.org/2000/svg" width="16" height="16" fill="currentColor" viewBox="0 0 16 16">
  <path d="M4.893 1.515c.71-.09 1.527.225 1.903 1.155.971 2.407 2.787 7.231 3.822 9.98.171.455.458.719.772.81.312.091.761.043 1.32-.353a.5.5 0 0 1 .58.816c-.736.521-1.498.696-2.18.497-.68-.198-1.171-.737-1.427-1.417-.69-1.832-1.724-4.573-2.622-6.908l-3.604 8.109a.5.5 0 0 1-.914-.407l4-9 .02.01a161.07 161.07 0 0 0-.695-1.763c-.185-.457-.533-.577-.848-.537a.8.8 0 0 0-.41.17c-.092.079-.11.144-.11.18a.5.5 0 0 1-1 0c0-.398.205-.723.46-.941.257-.218.589-.357.933-.4Z"/>
</svg>
