<svg xmlns="http://www.w3.org/2000/svg" width="16" height="16" fill="currentColor" viewBox="0 0 16 16">
  <path d="M3 9h10V3.5H3V9Zm11 .5a.5.5 0 0 1-.5.5h-11a.5.5 0 0 1-.5-.5V3.242c0-.39.31-.742.732-.742h10.536c.422 0 .732.351.732.742V9.5Z"/>
  <path d="M8.5 4a.5.5 0 0 1 0 1h-1a.5.5 0 0 1 0-1h1Zm4.878 5a.5.5 0 0 1 .469.327l1.095 2.965c.223.6-.23 1.163-.797 1.204l-.01.002-.051.002H1.92c-.598 0-1.094-.588-.863-1.207l1.095-2.966.033-.07A.5.5 0 0 1 2.622 9h10.756ZM2.047 12.5h11.906L13.03 10H2.97l-.923 2.5Z"/>
</svg>
