<svg xmlns="http://www.w3.org/2000/svg" width="16" height="16" fill="currentColor" viewBox="0 0 16 16">
  <path fill-rule="evenodd" d="M1 3.999C1 2.894 1.894 2 2.999 2H6a.5.5 0 0 1 0 1H3a.997.997 0 0 0-1 .999V13c0 .553.446.999.999.999H12a.997.997 0 0 0 .999-.999v-3a.5.5 0 0 1 1 0v3a1.997 1.997 0 0 1-1.998 2H3a1.997 1.997 0 0 1-2-1.999V4Z" clip-rule="evenodd"/>
  <path fill-rule="evenodd" d="M14.354 1.646a.5.5 0 0 1 0 .708l-6.5 6.5a.5.5 0 1 1-.708-.708l6.5-6.5a.5.5 0 0 1 .708 0Z" clip-rule="evenodd"/>
  <path fill-rule="evenodd" d="M8.5 1.5A.5.5 0 0 1 9 1h4.5A1.5 1.5 0 0 1 15 2.5V7a.5.5 0 0 1-1 0V2.5a.5.5 0 0 0-.5-.5H9a.5.5 0 0 1-.5-.5Z" clip-rule="evenodd"/>
</svg>
