<svg xmlns="http://www.w3.org/2000/svg" width="16" height="16" fill="currentColor" viewBox="0 0 16 16">
  <path fill-rule="evenodd" d="M13 8a.5.5 0 0 1 .5-.5h1a.5.5 0 0 1 0 1h-1A.5.5 0 0 1 13 8ZM1 8a.5.5 0 0 1 .5-.5h1a.5.5 0 0 1 0 1h-1A.5.5 0 0 1 1 8Zm7-7a.5.5 0 0 1 .5.5v1a.5.5 0 0 1-1 0v-1A.5.5 0 0 1 8 1Zm5.079 2.153a.5.5 0 0 1-.012.707l-.72.694a.5.5 0 1 1-.694-.719l.719-.695a.5.5 0 0 1 .707.013Zm0 9.389a.5.5 0 0 0-.012-.707l-.72-.695a.5.5 0 1 0-.694.72l.719.694a.5.5 0 0 0 .707-.012ZM2.64 3.153a.5.5 0 0 0 .013.707l.719.694a.5.5 0 0 0 .695-.719l-.72-.695a.5.5 0 0 0-.707.013Zm0 9.389a.5.5 0 0 1 .013-.707l.719-.695a.5.5 0 1 1 .695.72l-.72.694a.5.5 0 0 1-.707-.012ZM7.969 3.5C10.176 3.483 12 5.216 12 7.39c0 1.168-.533 2.21-1.36 2.917a1.674 1.674 0 0 0-.591 1.269.93.93 0 0 1-.939.925H6.884a.93.93 0 0 1-.94-.925c0-.48-.212-.942-.59-1.268A3.833 3.833 0 0 1 4 7.402M7.977 4.5C6.317 4.514 4.995 5.831 5 7.4c.003.85.387 1.619 1.004 2.147l.001.001c.576.495.917 1.2.939 1.952H9.05a2.676 2.676 0 0 1 .939-1.952A2.838 2.838 0 0 0 11 7.387C11 5.802 9.659 4.488 7.977 4.5m-.008-1Zm0 0C5.79 3.518 3.993 5.254 4 7.403L7.969 3.5Z" clip-rule="evenodd"/>
  <path fill-rule="evenodd" d="M6.5 11.5a.5.5 0 0 1 .5.5v1.583c0 .216.185.417.447.417h1.106A.432.432 0 0 0 9 13.583V12a.5.5 0 0 1 1 0v1.583C10 14.38 9.338 15 8.553 15H7.447C6.662 15 6 14.38 6 13.583V12a.5.5 0 0 1 .5-.5Z" clip-rule="evenodd"/>
</svg>
