<svg xmlns="http://www.w3.org/2000/svg" width="16" height="16" fill="currentColor" viewBox="0 0 16 16">
  <path d="M8.5 1.5a.5.5 0 0 0-1 0v1a.5.5 0 0 0 1 0v-1ZM1 8a.5.5 0 0 1 .5-.5h1a.5.5 0 0 1 0 1h-1A.5.5 0 0 1 1 8Zm12 0a.5.5 0 0 1 .5-.5h1a.5.5 0 0 1 0 1h-1A.5.5 0 0 1 13 8Zm.079-4.847a.5.5 0 0 1-.012.707l-.72.694a.5.5 0 1 1-.694-.719l.719-.695a.5.5 0 0 1 .707.013Zm-.012 8.682a.5.5 0 0 1-.695.72l-.72-.695a.5.5 0 1 1 .695-.72l.72.695ZM2.64 3.153a.5.5 0 0 0 .013.707l.719.694a.5.5 0 0 0 .695-.719l-.72-.695a.5.5 0 0 0-.707.013Zm.013 8.682a.5.5 0 1 0 .694.72l.72-.695a.5.5 0 0 0-.695-.72l-.72.695Z"/>
  <path fill-rule="evenodd" d="M7.969 3.5C10.176 3.483 12 5.216 12 7.39c0 1.168-.533 2.21-1.36 2.917a1.674 1.674 0 0 0-.591 1.269.89.89 0 0 1-.059.325c.007.032.01.066.01.1v1.583C10 14.38 9.338 15 8.553 15H7.447C6.662 15 6 14.38 6 13.583V12c0-.03.003-.06.008-.089a.915.915 0 0 1-.063-.336c0-.48-.213-.942-.592-1.268A3.833 3.833 0 0 1 4 7.402l1.312-1.29c-.201.39-.314.827-.312 1.286.003.852.387 1.62 1.004 2.148l.001.001c.576.495.917 1.2.939 1.952H9.05a2.676 2.676 0 0 1 .939-1.952A2.838 2.838 0 0 0 11 7.387C11 5.802 9.659 4.488 7.977 4.5c-.49.004-.95.122-1.357.326L7.97 3.5ZM9 12.5H7v1.083c0 .216.185.417.447.417h1.106A.432.432 0 0 0 9 13.583V12.5Z" clip-rule="evenodd"/>
  <path fill-rule="evenodd" d="M6.62 4.826 7.97 3.5C5.79 3.518 3.993 5.254 4 7.403l1.312-1.29A2.98 2.98 0 0 1 6.62 4.826Z" clip-rule="evenodd"/>
</svg>
