<svg xmlns="http://www.w3.org/2000/svg" width="16" height="16" fill="currentColor" viewBox="0 0 16 16">
  <path fill-rule="evenodd" d="M3.955 6.04C3.955 3.789 5.77 1.967 8 1.967s4.046 1.822 4.046 4.073c0 1.796-1.056 3.81-2.184 5.431A23.37 23.37 0 0 1 8 13.804a23.372 23.372 0 0 1-1.862-2.333C5.01 9.851 3.955 7.836 3.955 6.04Zm3.69 8.846L8 14.533l.355.353a.5.5 0 0 1-.71 0Zm0 0L8 14.533l.355.352h.001l.003-.004.011-.01.04-.043a21.551 21.551 0 0 0 .677-.743 24.37 24.37 0 0 0 1.596-2.043c1.145-1.646 2.363-3.878 2.363-6.002C13.046 3.242 10.788.967 8 .967c-2.788 0-5.045 2.275-5.045 5.073 0 2.124 1.217 4.356 2.362 6.002a24.371 24.371 0 0 0 2.272 2.787l.041.041.01.011.004.003.001.002ZM6.5 5.5a1.5 1.5 0 1 1 3 0 1.5 1.5 0 0 1-3 0ZM8 3a2.5 2.5 0 1 0 0 5 2.5 2.5 0 0 0 0-5Z" clip-rule="evenodd"/>
</svg>
