<svg xmlns="http://www.w3.org/2000/svg" width="16" height="16" fill="currentColor" viewBox="0 0 16 16">
  <path fill-rule="evenodd" d="M8 1.967c-2.23 0-4.045 1.822-4.045 4.073 0 1.796 1.055 3.81 2.183 5.431A23.372 23.372 0 0 0 8 13.804a23.37 23.37 0 0 0 1.862-2.333c1.128-1.62 2.184-3.635 2.184-5.431 0-2.251-1.816-4.073-4.046-4.073Zm0 12.566-.355.353-.001-.002-.003-.003-.011-.01a7.692 7.692 0 0 1-.19-.2 24.371 24.371 0 0 1-2.123-2.629C4.172 10.396 2.955 8.164 2.955 6.04 2.955 3.242 5.212.967 8 .967s5.046 2.275 5.046 5.073c0 2.124-1.218 4.356-2.363 6.002a24.37 24.37 0 0 1-2.272 2.787 7.692 7.692 0 0 1-.04.041l-.012.011-.003.003v.001L8 14.533Zm0 0 .355.353a.5.5 0 0 1-.71 0L8 14.533Z" clip-rule="evenodd"/>
  <path fill-rule="evenodd" d="M8 4a1.5 1.5 0 1 0 0 3 1.5 1.5 0 0 0 0-3ZM5.5 5.5a2.5 2.5 0 1 1 5 0 2.5 2.5 0 0 1-5 0Z" clip-rule="evenodd"/>
</svg>
