<svg xmlns="http://www.w3.org/2000/svg" width="16" height="16" fill="currentColor" viewBox="0 0 16 16">
  <path fill-rule="evenodd" d="M4.5 8.177v5.646c2.08.236 4.92.236 7 0V8.177c-2.08-.236-4.92-.236-7 0Zm7.202-.983c-2.194-.259-5.21-.259-7.405 0l-.009.001a.919.919 0 0 0-.788.917v5.776c0 .445.316.863.798.918 2.194.259 5.21.259 7.405 0l.009-.001a.919.919 0 0 0 .788-.917V8.112c0-.445-.316-.863-.798-.918ZM7.998 2.5C6.886 2.5 6 3.382 6 4.446V5a.5.5 0 0 1-1 0v-.554C5 2.81 6.354 1.5 7.998 1.5c.824 0 1.574.33 2.118.86A2.91 2.91 0 0 1 11 4.446V5a.5.5 0 0 1-1 0v-.554c0-.533-.22-1.017-.583-1.37a2.028 2.028 0 0 0-1.42-.576Z" clip-rule="evenodd"/>
</svg>
