<svg xmlns="http://www.w3.org/2000/svg" width="16" height="16" fill="currentColor" viewBox="0 0 16 16">
  <path fill-rule="evenodd" d="M5.5 5.26c0-1.563 1.159-2.76 2.497-2.76.674 0 1.297.298 1.755.796A2.89 2.89 0 0 1 10.5 5.26V6c0 .024.002.047.005.07-1.61-.093-3.4-.093-5.01 0A.504.504 0 0 0 5.5 6v-.74Zm-.98.88A.5.5 0 0 1 4.5 6v-.74c0-2.034 1.53-3.76 3.497-3.76.98 0 1.861.435 2.49 1.118A3.89 3.89 0 0 1 11.5 5.261V6a.5.5 0 0 1-.02.14c.231.02.457.043.675.067.49.054.845.467.845.948v6.19c0 .482-.36.885-.836.946l-.008.002c-2.462.276-5.849.276-8.31 0A.949.949 0 0 1 3 13.345v-6.19c0-.482.36-.885.836-.946l.008-.001c.219-.025.444-.047.676-.068ZM4 13.304V7.196c2.37-.261 5.63-.261 8 0v6.108c-2.37.261-5.63.261-8 0Z" clip-rule="evenodd"/>
</svg>
