<svg xmlns="http://www.w3.org/2000/svg" width="16" height="16" fill="currentColor" viewBox="0 0 16 16">
  <path d="M12.1 13.796c-2.425.272-5.775.272-8.2 0a.449.449 0 0 1-.4-.451v-6.19c0-.228.17-.42.4-.45 2.425-.273 5.775-.273 8.2 0 .23.024.4.217.4.45v6.19c0 .228-.17.42-.4.45Z"/>
  <path d="M12 7.196c-2.37-.262-5.63-.262-8 0v6.107c2.37.262 5.63.262 8 0V7.196Zm1 6.149c0 .482-.36.885-.836.946l-.008.002c-2.462.276-5.85.276-8.312 0A.949.949 0 0 1 3 13.345v-6.19c0-.482.36-.885.836-.947h.008c2.462-.277 5.85-.277 8.312 0a.948.948 0 0 1 .844.947v6.19Z"/>
  <path d="M10.5 6v-.74a2.89 2.89 0 0 0-.748-1.964c-.458-.498-1.08-.796-1.754-.796C6.659 2.5 5.5 3.697 5.5 5.26V6a.5.5 0 0 1-1 0v-.74c0-2.034 1.53-3.76 3.498-3.76.979 0 1.86.435 2.49 1.118A3.89 3.89 0 0 1 11.5 5.261V6a.5.5 0 0 1-1 0Z"/>
</svg>
