<svg xmlns="http://www.w3.org/2000/svg" width="16" height="16" fill="currentColor" viewBox="0 0 16 16">
  <path fill-rule="evenodd" d="M3 3.5A2.5 2.5 0 0 1 5.5 1h5A2.5 2.5 0 0 1 13 3.5V4a.5.5 0 0 1-1 0v-.5A1.5 1.5 0 0 0 10.5 2h-5A1.5 1.5 0 0 0 4 3.5v9A1.5 1.5 0 0 0 5.5 14h5a1.5 1.5 0 0 0 1.5-1.5V12a.5.5 0 0 1 1 0v.5a2.5 2.5 0 0 1-2.5 2.5h-5A2.5 2.5 0 0 1 3 12.5v-9Z" clip-rule="evenodd"/>
  <path fill-rule="evenodd" d="M8 8.022a.5.5 0 0 1 .5-.5h5.441a.5.5 0 0 1 0 1H8.5a.5.5 0 0 1-.5-.5Z" clip-rule="evenodd"/>
  <path fill-rule="evenodd" d="M11.664 5.13a.5.5 0 0 1 .706.034l2.273 2.502a.5.5 0 0 1 0 .672l-2.273 2.498a.5.5 0 1 1-.74-.672l1.967-2.162-1.967-2.166a.5.5 0 0 1 .034-.706Z" clip-rule="evenodd"/>
</svg>
