<svg xmlns="http://www.w3.org/2000/svg" width="16" height="16" fill="currentColor" viewBox="0 0 16 16">
  <path d="M7 2a.5.5 0 0 1 0 1H2.784A.772.772 0 0 0 2 3.76V9.5h12V9a.5.5 0 0 1 1 0v1.74c0 .98-.807 1.76-1.783 1.76H8.5V14H11a.5.5 0 0 1 0 1H5a.5.5 0 0 1 0-1h2.5v-1.5H2.784C1.808 12.5 1 11.72 1 10.74V3.76C1 2.78 1.808 2 2.784 2H7Zm-5 8.5v.24c0 .41.342.76.784.76h10.433c.441 0 .783-.35.783-.76v-.24H2ZM12 5a.5.5 0 0 1 0 1H9a.5.5 0 0 1 0-1h3Zm2.5-2a.5.5 0 0 1 0 1H9a.5.5 0 0 1 0-1h5.5Zm0-2a.5.5 0 0 1 0 1H9a.5.5 0 0 1 0-1h5.5Z"/>
</svg>
