<svg xmlns="http://www.w3.org/2000/svg" width="16" height="16" fill="currentColor" viewBox="0 0 16 16">
  <path d="M4 8.5A1.5 1.5 0 0 1 5.5 10v2.5a1.5 1.5 0 0 1-3 0V10A1.5 1.5 0 0 1 4 8.5Z"/>
  <path fill-rule="evenodd" d="M8 6.5A1.5 1.5 0 0 1 9.5 8v4.5a1.5 1.5 0 0 1-3 0V8A1.5 1.5 0 0 1 8 6.5Zm0 1a.5.5 0 0 0-.5.5v4.5a.5.5 0 0 0 1 0V8a.5.5 0 0 0-.5-.5ZM12 3a1.5 1.5 0 0 1 1.5 1.5v8a1.5 1.5 0 0 1-3 0v-8A1.5 1.5 0 0 1 12 3Zm0 1a.5.5 0 0 0-.5.5v8a.5.5 0 0 0 1 0v-8A.5.5 0 0 0 12 4Z" clip-rule="evenodd"/>
</svg>
