<svg xmlns="http://www.w3.org/2000/svg" width="16" height="16" fill="currentColor" viewBox="0 0 16 16">
  <path fill-rule="evenodd" d="M1.572 3.742a.5.5 0 0 1 .686-.17l5.598 3.375a.296.296 0 0 0 .335.001l5.55-3.375a.5.5 0 1 1 .519.854l-5.54 3.37c-.41.27-.979.27-1.39.001l-5.588-3.37a.5.5 0 0 1-.17-.686Z" clip-rule="evenodd"/>
  <path fill-rule="evenodd" d="M2 4v8h12V4H2Zm-1-.028C1 3.433 1.438 3 1.974 3h12.051c.537 0 .975.433.975.972v8.056a.973.973 0 0 1-.975.972H1.975A.973.973 0 0 1 1 12.028V3.972Z" clip-rule="evenodd"/>
</svg>
