<svg xmlns="http://www.w3.org/2000/svg" width="16" height="16" fill="currentColor" viewBox="0 0 16 16">
  <path d="M6 2.5a.5.5 0 0 1 0 1H2.5A.5.5 0 0 0 2 4v9.5a.5.5 0 0 0 .5.5h11a.5.5 0 0 0 .5-.5V10a.5.5 0 0 1 1 0v3.5a1.5 1.5 0 0 1-1.5 1.5h-11A1.5 1.5 0 0 1 1 13.5V4a1.5 1.5 0 0 1 1.5-1.5H6Zm.997 7c.7 0 1.508.454 1.503 1.332V12a.5.5 0 0 1-.5.5H3a.5.5 0 0 1-.5-.5v-1.122c-.003-.45.246-.803.541-1.026A1.78 1.78 0 0 1 4.1 9.5h2.897Zm6.003 2a.5.5 0 0 1 0 1h-3a.5.5 0 0 1 0-1h3Zm-8.9-1a.782.782 0 0 0-.455.15c-.119.089-.145.172-.145.223v.627h4v-.673c0-.077-.03-.144-.107-.206a.642.642 0 0 0-.396-.121H4.1Zm8.9-1a.5.5 0 0 1 0 1h-2.5a.5.5 0 0 1 0-1H13ZM5.5 5a2 2 0 1 1 0 4 2 2 0 0 1 0-4ZM11.969.72a.5.5 0 0 1 .646-.163l1.53.802a.5.5 0 0 1 .211.673l-.26.5c.124.167.23.343.319.527l.608.029a.5.5 0 0 1 .477.499v1.677a.5.5 0 0 1-.483.5l-.53.017a3.154 3.154 0 0 1-.125.264l-.01.017c-.045.08-.094.161-.146.24l.326.563a.501.501 0 0 1-.187.687l-1.568.884a.5.5 0 0 1-.693-.213l-.236-.475a3.24 3.24 0 0 1-.54.017l-.25.468a.5.5 0 0 1-.673.206L8.84 7.632a.502.502 0 0 1-.21-.68l.267-.494a3.336 3.336 0 0 1-.3-.493l-.529.017a.501.501 0 0 1-.516-.484L7.5 3.748a.5.5 0 0 1 .483-.515l.529-.018a2.942 2.942 0 0 1 .275-.517l-.278-.454a.5.5 0 0 1 .162-.685l1.477-.922.043-.025A.501.501 0 0 1 10.84.8l.278.453a3.14 3.14 0 0 1 .574-.02l.251-.468.027-.044ZM5.5 6a1 1 0 1 0 0 2 1 1 0 0 0 0-2Zm6.913-3.997a.5.5 0 0 1-.53.256 2.142 2.142 0 0 0-.893.031.5.5 0 0 1-.546-.224l-.194-.315-.629.393.195.318a.5.5 0 0 1-.045.586 2.125 2.125 0 0 0-.253.378c-.07.129-.127.272-.176.428a.5.5 0 0 1-.46.35l-.367.012.022.75.367-.012.08.003c.182.023.34.147.406.323.107.29.265.556.474.782a.5.5 0 0 1 .073.577l-.184.341.656.344.178-.33.043-.068a.501.501 0 0 1 .487-.189c.297.054.601.04.893-.03a.5.5 0 0 1 .567.262l.167.337.67-.377-.237-.408a.5.5 0 0 1 .053-.576c.09-.106.174-.233.252-.378l.005-.007c.069-.131.123-.269.17-.417l.03-.074a.501.501 0 0 1 .43-.276l.383-.013v-.717l-.445-.02a.501.501 0 0 1-.446-.326 2.345 2.345 0 0 0-.474-.782.5.5 0 0 1-.077-.57l.181-.351-.65-.341-.176.33ZM11.417 3a1.5 1.5 0 1 1-.001 3.001A1.5 1.5 0 0 1 11.417 3Zm0 1a.5.5 0 1 0 0 1 .5.5 0 0 0 0-1Z"/>
</svg>
