<svg xmlns="http://www.w3.org/2000/svg" width="16" height="16" fill="currentColor" viewBox="0 0 16 16">
  <path fill-rule="evenodd" d="M8 4a.999.999 0 1 0 0 2 1.001 1.001 0 0 0 0-2ZM6 5c0-1.107.896-2 2-2a1.999 1.999 0 1 1 0 4c-1.104 0-2-.893-2-2ZM4.5 8.25a.5.5 0 0 1 .5.5v4.26l3.153 1.014a.5.5 0 0 1-.306.952l-3.5-1.126A.5.5 0 0 1 4 13.374V8.75a.5.5 0 0 1 .5-.5Z" clip-rule="evenodd"/>
  <path fill-rule="evenodd" d="M4.532 8.027a.5.5 0 0 1 .276-.014l1.057.25a.5.5 0 1 1-.23.974l-.917-.217L2 9.945v3.857l2.532-.862a.5.5 0 1 1 .322.946L1.66 14.973A.5.5 0 0 1 1 14.5V9.587a.5.5 0 0 1 .339-.473l3.193-1.087Zm6.664-.014a.5.5 0 0 1 .276.014l3.19 1.087a.5.5 0 0 1 .338.473V14.5a.5.5 0 0 1-.661.473l-3.19-1.087a.5.5 0 0 1 .323-.946L14 13.8V9.945l-2.714-.925-.921.217a.5.5 0 0 1-.23-.974l1.061-.25Z" clip-rule="evenodd"/>
  <path fill-rule="evenodd" d="M11.5 8.25a.5.5 0 0 1 .5.5v4.624a.5.5 0 0 1-.347.476l-3.5 1.126A.5.5 0 0 1 7.5 14.5v-3a.5.5 0 0 1 1 0v2.314l2.5-.804V8.75a.5.5 0 0 1 .5-.5Z" clip-rule="evenodd"/>
  <path fill-rule="evenodd" d="M8 2C6.344 2 5 3.341 5 4.993v.001c0 .574.187 1.244.502 1.95.312.7.732 1.403 1.16 2.033A21.702 21.702 0 0 0 8 10.739l.16-.194c.322-.39.75-.938 1.176-1.566.428-.63.848-1.333 1.16-2.033.315-.706.504-1.377.504-1.953A2.998 2.998 0 0 0 8 2Zm0 9.5.368.338a.5.5 0 0 1-.736 0L8 11.5ZM4 4.993A3.998 3.998 0 0 1 8 1c2.206 0 4 1.787 4 3.993 0 .775-.248 1.593-.59 2.36-.344.772-.799 1.528-1.246 2.187a22.685 22.685 0 0 1-1.753 2.25l-.031.035-.008.01-.003.002v.001L8 11.5l-.368.338-.004-.003-.008-.01-.031-.034-.116-.13a22.707 22.707 0 0 1-1.639-2.122c-.447-.66-.902-1.416-1.246-2.188-.341-.767-.59-1.584-.588-2.358Z" clip-rule="evenodd"/>
</svg>
