<svg xmlns="http://www.w3.org/2000/svg" width="16" height="16" fill="currentColor" viewBox="0 0 16 16">
  <path fill-rule="evenodd" d="M5 4.993A2.998 2.998 0 0 1 8 2c1.656 0 3 1.341 3 2.993 0 .576-.189 1.247-.504 1.953-.312.7-.732 1.403-1.16 2.033A21.668 21.668 0 0 1 8 10.739a21.391 21.391 0 0 1-1.338-1.762 13.509 13.509 0 0 1-1.16-2.033c-.315-.706-.503-1.376-.502-1.95Zm2.5 6.698-.027-.03a22.707 22.707 0 0 1-1.84-2.424L5 9.086v3.923l2.5.804V11.69ZM4.926 8.04a11.32 11.32 0 0 1-.338-.69c-.341-.767-.59-1.584-.588-2.358A3.998 3.998 0 0 1 8 1c2.206 0 4 1.787 4 3.993 0 .775-.248 1.593-.59 2.36-.104.232-.217.462-.337.69l.123-.03a.5.5 0 0 1 .276.014l3.19 1.087a.5.5 0 0 1 .338.473V14.5a.5.5 0 0 1-.661.473l-3-1.022-3.18 1.023a.497.497 0 0 1-.301.005l-.013-.004-3.183-1.024-3 1.022A.5.5 0 0 1 1 14.5V9.587a.5.5 0 0 1 .339-.473l3.193-1.087a.5.5 0 0 1 .276-.014l.118.028Zm5.44 1.195a22.685 22.685 0 0 1-1.84 2.424l-.026.03v2.124l2.5-.804V9.087l-.634.15ZM7 5a.999.999 0 1 1 2 0 1.001 1.001 0 0 1-2 0Zm1-2c-1.104 0-2 .893-2 2a1.999 1.999 0 1 0 4 0c0-1.107-.896-2-2-2Zm4 10.12V9.262l2 .682V13.8l-2-.681ZM2 9.945l2-.681v3.857l-2 .68V9.946Z" clip-rule="evenodd"/>
</svg>
