<svg xmlns="http://www.w3.org/2000/svg" width="16" height="16" fill="currentColor" viewBox="0 0 16 16">
  <path fill-rule="evenodd" d="M1.11 5.686A.5.5 0 0 1 1.5 5.5h13a.5.5 0 0 1 .492.59l-1.18 6.425C13.65 13.399 12.84 14 11.945 14H4.188c-.82 0-1.574-.54-1.75-1.349L1.011 6.106a.5.5 0 0 1 .1-.42Zm1.01.814 1.295 5.939c.065.299.37.561.773.561h7.757c.466 0 .818-.308.883-.665L13.9 6.5H2.12Z" clip-rule="evenodd"/>
  <path fill-rule="evenodd" d="M4.867 7.518a.5.5 0 0 1 .615.35l.826 3a.5.5 0 0 1-.964.265l-.826-3a.5.5 0 0 1 .35-.615Zm6.617 0a.5.5 0 0 1 .35.615l-.827 3a.5.5 0 0 1-.964-.266l.826-3a.5.5 0 0 1 .615-.349ZM8.25 7.5a.5.5 0 0 1 .5.5v3a.5.5 0 0 1-1 0V8a.5.5 0 0 1 .5-.5Zm1.87-6.444a.5.5 0 0 1 .674.213l1.3 2.5a.5.5 0 1 1-.888.462l-1.3-2.5a.5.5 0 0 1 .213-.675Zm-4.09 0a.5.5 0 0 1 .214.675l-1.3 2.5a.5.5 0 1 1-.888-.462l1.3-2.5a.5.5 0 0 1 .675-.213Z" clip-rule="evenodd"/>
</svg>
