<svg xmlns="http://www.w3.org/2000/svg" width="16" height="16" fill="currentColor" viewBox="0 0 16 16">
  <path fill-rule="evenodd" d="m2.003 4.928.434-2.26A.829.829 0 0 1 3.25 2h9.504c.398 0 .74.282.814.668l.43 2.244c-.024.274-.308.588-.798.588a.934.934 0 0 1-.507-.144 1.446 1.446 0 0 0-1.586 0 .934.934 0 0 1-.507.144.934.934 0 0 1-.507-.144 1.446 1.446 0 0 0-1.586 0A.934.934 0 0 1 8 5.5a.934.934 0 0 1-.507-.144 1.446 1.446 0 0 0-1.586 0A.934.934 0 0 1 5.4 5.5a.934.934 0 0 1-.507-.144 1.446 1.446 0 0 0-1.586 0A.934.934 0 0 1 2.8 5.5c-.48 0-.763-.302-.797-.572Zm-.548-2.45-.429 2.235a.5.5 0 0 0-.026.16c0 .457.196.845.5 1.128v7.073C1.5 14.108 2.297 15 3.343 15h9.314c1.046 0 1.843-.892 1.843-1.926V6c.304-.283.5-.671.5-1.127a.504.504 0 0 0-.009-.094l-.441-2.301v-.001A1.828 1.828 0 0 0 12.754 1H3.25c-.874 0-1.629.619-1.795 1.478ZM13.5 6.477a1.96 1.96 0 0 1-1.352-.283l-.003-.001a.446.446 0 0 0-.49 0l-.003.001c-.3.195-.664.306-1.052.306s-.752-.111-1.052-.306l-.003-.001a.446.446 0 0 0-.49 0l-.003.001c-.3.195-.664.306-1.052.306s-.752-.111-1.052-.306l-.003-.001a.446.446 0 0 0-.49 0l-.003.001c-.3.195-.664.306-1.052.306s-.752-.111-1.052-.306l-.003-.001a.446.446 0 0 0-.49 0l-.003.001a1.933 1.933 0 0 1-1.352.283v6.597c0 .54.405.926.843.926H5V9.443C5 8.663 5.62 8 6.412 8h3.176C10.38 8 11 8.664 11 9.443V14h1.657c.438 0 .843-.386.843-.926V6.477ZM10 9.443V14H6V9.443C6 9.185 6.202 9 6.412 9h3.176c.21 0 .412.185.412.443Z" clip-rule="evenodd"/>
</svg>
