<svg xmlns="http://www.w3.org/2000/svg" width="16" height="16" fill="currentColor" viewBox="0 0 16 16">
  <path fill-rule="evenodd" d="M11.658 1.526a.5.5 0 0 1 .316.632l-.5 1.5a.5.5 0 1 1-.948-.316l.5-1.5a.5.5 0 0 1 .632-.316ZM8.481 2a.5.5 0 0 1 .474.292l1.684 3.705c.017.023.03.048.043.074l1.77 3.713a.5.5 0 0 1-.622.685c-.558-.201-1.343-.308-2.202-.294-.853.015-1.742.15-2.5.404h-.001l1.23 2.1c.285.457.131 1.088-.36 1.338l-.003.002-.769.387h-.001a.871.871 0 0 1-1.028-.183L4.38 12.342l-.109-.111-.008-.009-.005-.005-.337-.339a1.645 1.645 0 0 1-2.109-.824v-.001L1.154 9.65a1.64 1.64 0 0 1 .764-2.164c.84-.411 2.178-1.083 3.016-1.593.678-.412 1.35-1.014 1.91-1.668.561-.658.983-1.339 1.186-1.896a.5.5 0 0 1 .45-.328Zm-3.574 9.45a50.05 50.05 0 0 1 1.267-.518l1.305 2.226-.62.312-1.76-1.825-.11-.111-.006-.007a.92.92 0 0 0-.01-.01l-.066-.067Zm1.959-1.837c.857-.28 1.828-.422 2.745-.437a9.018 9.018 0 0 1 1.487.092l-1.28-2.687a.5.5 0 0 1-.052-.088L8.482 3.668a9.181 9.181 0 0 1-.878 1.206c-.613.718-1.364 1.395-2.15 1.873l-.017.01a.509.509 0 0 1 .01.02l1.419 2.837Zm-2.299-2.36c-.763.415-1.62.843-2.208 1.13l-.22-.448.22.448a.64.64 0 0 0-.299.845l-.453.212.453-.21.656 1.396-.452.214.453-.212v-.001c.151.32.525.459.844.318.616-.273 1.53-.665 2.36-.987l.008.015.138.277m-1.5-2.997L5.92 9.958 4.567 7.253Zm9.85-3.03a.5.5 0 0 1-.14.693l-1.5 1a.5.5 0 1 1-.554-.832l1.5-1a.5.5 0 0 1 .693.139Zm-1.891 3.119a.5.5 0 0 1 .632-.316l1.5.5a.5.5 0 0 1-.316.948l-1.5-.5a.5.5 0 0 1-.316-.632Z" clip-rule="evenodd"/>
</svg>
