<svg xmlns="http://www.w3.org/2000/svg" width="16" height="16" fill="currentColor" viewBox="0 0 16 16">
  <path d="M11.565 1c1.072 0 1.935.876 1.935 1.947v6.106A1.942 1.942 0 0 1 11.565 11H8.5v.587a1.5 1.5 0 0 1 .913.913H12.5a.5.5 0 0 1 0 1H9.413a1.5 1.5 0 0 1-2.826 0H3.5a.5.5 0 0 1 0-1h3.087a1.5 1.5 0 0 1 .913-.913V11H4.436A1.942 1.942 0 0 1 2.5 9.053V2.947C2.5 1.876 3.363 1 4.436 1h7.129ZM8 12.5a.5.5 0 1 0 0 1 .5.5 0 0 0 0-1ZM3.5 9.053c0 .527.423.947.936.947h7.129c.512 0 .935-.42.935-.947V6.5h-9v2.553ZM4.5 8a.5.5 0 1 1 0 1 .5.5 0 0 1 0-1Zm-.064-6a.942.942 0 0 0-.936.947V5.5h9V2.947A.942.942 0 0 0 11.565 2h-7.13ZM4.5 3.5a.5.5 0 1 1 0 1 .5.5 0 0 1 0-1Z"/>
</svg>
