<svg xmlns="http://www.w3.org/2000/svg" width="16" height="16" fill="none" viewBox="0 0 16 16">
  <path fill="#3D3C3C" fill-rule="evenodd" d="M3.5 2a.5.5 0 0 0 0 1h9a.5.5 0 0 0 0-1h-9ZM2 4a.5.5 0 0 1 .5-.5h11a.5.5 0 0 1 0 1h-11A.5.5 0 0 1 2 4ZM1 5.5a.5.5 0 0 1 .5-.5h13a.5.5 0 0 1 .5.5v8a.5.5 0 0 1-.5.5h-13a.5.5 0 0 1-.5-.5v-8ZM2 6v7h12V6H2Zm3 3a.5.5 0 0 0 0 1h.5a.5.5 0 0 0 0-1H5Zm5 .5a.5.5 0 0 1 .5-.5h.5a.5.5 0 0 1 0 1h-.5a.5.5 0 0 1-.5-.5Zm-5.749-3a.5.5 0 0 0-.5.5c0 .229-.06.336-.097.378-.032.037-.077.062-.154.062a.5.5 0 0 0-.5.5v3.125a.5.5 0 0 0 .5.5c.03 0 .084.014.142.086.06.074.11.195.11.349a.5.5 0 0 0 .5.5h7.497a.5.5 0 0 0 .5-.5.56.56 0 0 1 .11-.348c.06-.074.113-.087.141-.087a.5.5 0 0 0 .5-.5V7.94a.5.5 0 0 0-.5-.5c-.074 0-.12-.025-.153-.063-.038-.044-.098-.152-.098-.377a.5.5 0 0 0-.5-.5H4.25Zm.157 1.535a1.34 1.34 0 0 0 .28-.535h6.625c.055.2.147.38.278.532.117.135.257.236.409.304v2.343c-.327.16-.557.473-.67.821H4.67c-.113-.35-.344-.662-.671-.822V8.337a1.17 1.17 0 0 0 .408-.302ZM8 9a.5.5 0 1 0 0 1 .5.5 0 0 0 0-1Zm-1.5.5a1.5 1.5 0 1 1 3 0 1.5 1.5 0 0 1-3 0Z" clip-rule="evenodd"/>
</svg>
