<svg xmlns="http://www.w3.org/2000/svg" width="16" height="16" fill="currentColor" viewBox="0 0 16 16">
  <path fill-rule="evenodd" d="M2.784 3A.772.772 0 0 0 2 3.76V9.5h12V3.76a.772.772 0 0 0-.784-.76H2.784ZM1 3.76v6.98c0 .981.808 1.76 1.784 1.76H7.5V14H5a.5.5 0 0 0 0 1h6a.5.5 0 0 0 0-1H8.5v-1.5h4.716c.976 0 1.784-.779 1.784-1.76V3.76C15 2.779 14.192 2 13.216 2H2.784C1.808 2 1 2.779 1 3.76Zm13 6.74H2v.24c0 .411.342.76.784.76h10.432a.772.772 0 0 0 .784-.76v-.24ZM8.467 4.322a.5.5 0 0 0-.922-.03L6.08 7.5H4a.5.5 0 0 0 0 1h2.4a.5.5 0 0 0 .455-.292l1.103-2.414.908 2.384a.5.5 0 0 0 .467.322H12a.5.5 0 0 0 0-1H9.678l-1.21-3.178Z" clip-rule="evenodd"/>
</svg>
