<svg xmlns="http://www.w3.org/2000/svg" width="16" height="16" fill="currentColor" viewBox="0 0 16 16">
  <path d="M12.634 1.5A2.358 2.358 0 0 1 15 3.85v7.801A2.358 2.358 0 0 1 12.634 14H3.366A2.358 2.358 0 0 1 1 11.651V3.85A2.358 2.358 0 0 1 3.366 1.5h9.268Zm-9.268 1C2.607 2.5 2 3.109 2 3.85v7.801C2 12.391 2.607 13 3.366 13h9.268c.758 0 1.366-.608 1.366-1.349V3.85c0-.741-.607-1.35-1.366-1.35H3.366Zm3.134 2a.5.5 0 0 1 0 1c-.235 0-.337.163-.337.255v.901c0 .418-.172.803-.455 1.094.288.297.455.684.455 1.095v.901c0 .094.1.254.337.254a.5.5 0 0 1 0 1c-.688 0-1.337-.511-1.337-1.254v-.901a.574.574 0 0 0-.18-.408l-.335-.332a.502.502 0 0 1 0-.71l.334-.33v-.002a.575.575 0 0 0 .181-.407v-.901c0-.736.647-1.255 1.337-1.255Zm3 0c.688 0 1.337.512 1.337 1.255v.901a.56.56 0 0 0 .138.36l.044.048.333.332a.5.5 0 0 1 0 .71l-.333.33h-.001a.576.576 0 0 0-.181.409v.901c0 .736-.647 1.254-1.337 1.254a.5.5 0 0 1 0-1c.235 0 .337-.162.337-.254v-.901c0-.418.172-.804.455-1.095a1.57 1.57 0 0 1-.455-1.094v-.901c0-.094-.1-.255-.337-.255a.5.5 0 0 1 0-1Z"/>
</svg>
