<svg xmlns="http://www.w3.org/2000/svg" width="16" height="16" fill="currentColor" viewBox="0 0 16 16">
  <path fill-rule="evenodd" d="M8 1a1 1 0 1 0 0 2 1 1 0 0 0 0-2Zm3 7a3 3 0 1 1-6 0 3 3 0 0 1 6 0Zm1 0a4 4 0 1 1-8 0 4 4 0 0 1 8 0ZM3 3.5a1 1 0 1 1 2 0 1 1 0 0 1-2 0Zm9-1a1 1 0 1 0 0 2 1 1 0 0 0 0-2Zm-1 10a1 1 0 1 1 2 0 1 1 0 0 1-2 0Zm-7-1a1 1 0 1 0 0 2 1 1 0 0 0 0-2ZM7 14a1 1 0 1 1 2 0 1 1 0 0 1-2 0Zm1-7a1 1 0 1 0 0 2 1 1 0 0 0 0-2ZM1 8a1 1 0 1 1 2 0 1 1 0 0 1-2 0Zm13-1a1 1 0 1 0 0 2 1 1 0 0 0 0-2Z" clip-rule="evenodd"/>
</svg>
