<svg xmlns="http://www.w3.org/2000/svg" width="16" height="16" fill="currentColor" viewBox="0 0 16 16">
  <path fill-rule="evenodd" d="M1.84 5.367C3.414 3.907 5.59 3 8 3c2.409 0 4.585.907 6.16 2.367a.5.5 0 0 0 .68-.734C13.08 3.003 10.66 2 8 2 5.339 2 2.92 3.003 1.16 4.633a.5.5 0 1 0 .68.734ZM3.866 7.84C4.93 6.698 6.393 6 8 6c1.607 0 3.069.698 4.134 1.84a.5.5 0 1 0 .732-.68C11.627 5.83 9.907 5 8 5c-1.907 0-3.627.83-4.866 2.16a.5.5 0 1 0 .732.68ZM8 9a3.09 3.09 0 0 0-2.153.86.5.5 0 1 1-.694-.72A4.087 4.087 0 0 1 8 8c1.109 0 2.116.434 2.847 1.14a.5.5 0 1 1-.694.72A3.087 3.087 0 0 0 8 9Zm-.352 2.148a.494.494 0 0 1 .7-.004l.004.004a.494.494 0 0 1 .148.352.5.5 0 0 1-1 0 .48.48 0 0 1 .144-.348l.004-.004ZM8 10c-.413 0-.786.17-1.057.439A1.48 1.48 0 0 0 6.5 11.5a1.5 1.5 0 0 0 3 0c0-.413-.17-.786-.439-1.057A1.487 1.487 0 0 0 8 10Z" clip-rule="evenodd"/>
</svg>
