<svg xmlns="http://www.w3.org/2000/svg" width="16" height="16" fill="currentColor" viewBox="0 0 16 16">
  <path fill-rule="evenodd" d="M2.75 1a1.75 1.75 0 0 1 1.379 2.827l1.118 1.862a2.74 2.74 0 0 1 2.89.56l1.978-1.582a2 2 0 1 1 .562.832L8.729 7.057a2.74 2.74 0 0 1 .123 2.081l2.52 1.833a2.25 2.25 0 1 1-.636.773l-2.378-1.729a2.743 2.743 0 0 1-3.256.733l-.96 1.441a1.75 1.75 0 1 1-.809-.59l.951-1.427A2.74 2.74 0 0 1 3.5 8.25c0-.805.346-1.53.897-2.032l-1.086-1.81A1.75 1.75 0 1 1 2.75 1Zm0 11.5a.75.75 0 1 0 0 1.5.75.75 0 0 0 0-1.5Zm10-1a1.25 1.25 0 1 0 0 2.5 1.25 1.25 0 0 0 0-2.5Zm-6.5-5a1.75 1.75 0 1 0 0 3.5 1.75 1.75 0 0 0 0-3.5ZM12 3a1 1 0 1 0 0 2 1 1 0 0 0 0-2ZM2.75 2a.75.75 0 1 0 0 1.5.75.75 0 0 0 0-1.5Z" clip-rule="evenodd"/>
</svg>
