<svg xmlns="http://www.w3.org/2000/svg" width="16" height="16" fill="currentColor" viewBox="0 0 16 16">
  <path fill-rule="evenodd" d="M2 4.5c0-.542.447-1 .944-1h10.112c.527 0 .944.422.944.928v7.144c0 .51-.416.928-.944.928H10.5a.5.5 0 1 0 0 1h2.556c1.07 0 1.944-.855 1.944-1.928V4.428A1.937 1.937 0 0 0 13.056 2.5H2.944C1.844 2.5 1 3.46 1 4.5a.5.5 0 0 0 1 0Zm-.997 1.95a.5.5 0 0 1 .547-.448 8.333 8.333 0 0 1 7.448 7.449.5.5 0 1 1-.996.098A7.334 7.334 0 0 0 1.45 6.998a.5.5 0 0 1-.447-.548Zm.58 2.557a.5.5 0 1 0-.166.986 4.386 4.386 0 0 1 3.59 3.59.5.5 0 1 0 .986-.166 5.386 5.386 0 0 0-4.41-4.41Zm.178 3.066a.5.5 0 1 0-.522.854c.347.212.63.494.833.83a.5.5 0 0 0 .857-.514 3.459 3.459 0 0 0-1.168-1.17Z" clip-rule="evenodd"/>
</svg>
