<svg xmlns="http://www.w3.org/2000/svg" width="16" height="16" fill="currentColor" viewBox="0 0 16 16">
  <path fill-rule="evenodd" d="M1.073 12.24a.5.5 0 0 1 .688-.167c.478.293.879.689 1.168 1.17a.5.5 0 0 1-.858.515 2.46 2.46 0 0 0-.832-.831.5.5 0 0 1-.166-.688Zm-.066-2.823a.5.5 0 0 1 .576-.41 5.386 5.386 0 0 1 4.41 4.41.5.5 0 1 1-.986.166 4.386 4.386 0 0 0-3.59-3.59.5.5 0 0 1-.41-.576Z" clip-rule="evenodd"/>
  <path fill-rule="evenodd" d="M1.002 6.45a.5.5 0 0 1 .548-.448 8.333 8.333 0 0 1 7.448 7.449.5.5 0 1 1-.996.098A7.333 7.333 0 0 0 1.45 6.998a.5.5 0 0 1-.448-.548Z" clip-rule="evenodd"/>
  <path fill-rule="evenodd" d="M2.944 3.5c-.497 0-.944.458-.944 1a.5.5 0 0 1-1 0c0-1.04.843-2 1.944-2h10.112c1.07 0 1.944.86 1.944 1.928v7.144a1.934 1.934 0 0 1-1.944 1.928H10.5a.5.5 0 0 1 0-1h2.556a.934.934 0 0 0 .944-.928V4.428a.937.937 0 0 0-.944-.928H2.944Z" clip-rule="evenodd"/>
</svg>
