<svg xmlns="http://www.w3.org/2000/svg" width="16" height="16" fill="currentColor" viewBox="0 0 16 16">
  <path fill-rule="evenodd" d="M8 3c-2.409 0-4.586.907-6.16 2.367a.5.5 0 1 1-.68-.734C2.92 3.003 5.34 2 8 2c2.661 0 5.08 1.003 6.84 2.633a.5.5 0 0 1-.68.734C12.585 3.907 10.41 3 8 3Z" clip-rule="evenodd"/>
  <path fill-rule="evenodd" d="M8 6c-1.607 0-3.069.698-4.134 1.84a.5.5 0 1 1-.732-.68C4.373 5.83 6.093 5 8 5c1.907 0 3.627.83 4.866 2.16a.5.5 0 0 1-.732.68C11.07 6.699 9.607 6 8 6Z" clip-rule="evenodd"/>
  <path fill-rule="evenodd" d="M8 9a3.09 3.09 0 0 0-2.153.86.5.5 0 1 1-.694-.72A4.087 4.087 0 0 1 8 8c1.109 0 2.116.434 2.847 1.14a.5.5 0 1 1-.694.72A3.087 3.087 0 0 0 8 9Z" clip-rule="evenodd"/>
  <path fill-rule="evenodd" d="M8 11a.494.494 0 0 0-.352.148l-.004.004a.48.48 0 0 0-.144.348.5.5 0 0 0 1 0 .494.494 0 0 0-.148-.352l-.004-.004A.487.487 0 0 0 8 11Zm-1.057-.561a1.495 1.495 0 0 1 2.118.004c.27.271.439.644.439 1.057a1.5 1.5 0 0 1-3 0c0-.415.168-.79.443-1.061Z" clip-rule="evenodd"/>
</svg>
