<svg xmlns="http://www.w3.org/2000/svg" width="16" height="16" fill="currentColor" viewBox="0 0 16 16">
  <path fill-rule="evenodd" d="M5.169 2.167A.484.484 0 0 0 5 2.5v10.337A2.3 2.3 0 0 1 4.686 14h8.879a.443.443 0 0 0 .435-.451V2.451A.443.443 0 0 0 13.565 2H5.539a.57.57 0 0 0-.37.167ZM4 2.5V7H1.5a.5.5 0 0 0-.5.5v5.337C1 13.986 1.851 15 3 15h10.565c.804 0 1.435-.661 1.435-1.451V2.451C15 1.653 14.361 1 13.565 1H5.539a1.57 1.57 0 0 0-1.058.44C4.21 1.699 4 2.073 4 2.5Zm0 10.337C4 13.528 3.507 14 3 14c-.504 0-1-.47-1-1.163V8h2v4.837ZM6 9.5a.5.5 0 0 1 .5-.5h6a.5.5 0 0 1 0 1h-6a.5.5 0 0 1-.5-.5Zm.5 2a.5.5 0 0 0 0 1h6a.5.5 0 0 0 0-1h-6ZM7 3a1 1 0 0 0-1 1v2.5a1 1 0 0 0 1 1h5a1 1 0 0 0 1-1V4a1 1 0 0 0-1-1H7Zm0 1h5v2.5H7V4Z" clip-rule="evenodd"/>
</svg>
