<svg xmlns="http://www.w3.org/2000/svg" width="16" height="16" fill="currentColor" viewBox="0 0 16 16">
  <path d="M13.146 2.146a.5.5 0 0 1 .707.708l-11 11a.5.5 0 0 1-.707-.707l.494-.495A3.083 3.083 0 0 1 1 9.916c0-1.182.731-2.292 1.868-2.75a2.18 2.18 0 0 1 .828-.16C3.87 4.769 5.726 3 8 3c1.194 0 2.25.489 3.023 1.27l2.123-2.124ZM12 6c1.641 0 3 1.581 3 3.27 0 2.009-1.291 3.716-3.326 3.716H6a.5.5 0 1 1 0-1h5.674c1.343 0 2.326-1.109 2.326-2.716C14 8.035 12.995 7 12 7a.5.5 0 0 1 0-1ZM8 4C6.237 4 4.79 5.389 4.688 7.15l.013.002a.5.5 0 0 1-.182.984l-.36-.067a.11.11 0 0 1-.026-.006c-.391-.094-.653-.065-.89.03A1.987 1.987 0 0 0 2 9.917c0 .866.518 1.613 1.249 1.92.048.02.09.048.127.08l6.94-6.94A3.227 3.227 0 0 0 8 4Z"/>
</svg>
