<svg xmlns="http://www.w3.org/2000/svg" width="16" height="16" fill="currentColor" viewBox="0 0 16 16">
  <path d="M10 1a2.5 2.5 0 0 1 2.5 2.5v3.778a.5.5 0 0 1-1 0V6.5h-9v3H6a.5.5 0 0 1 0 1H2.5v2A1.5 1.5 0 0 0 4 14h2a.5.5 0 0 1 0 1H4a2.5 2.5 0 0 1-2.5-2.5v-9A2.5 2.5 0 0 1 4 1h6Zm.5 7a3.5 3.5 0 1 1 0 7 3.5 3.5 0 0 1 0-7ZM8.704 9.763A2.5 2.5 0 0 0 10.5 14c.452 0 .875-.123 1.241-.333L8.704 9.763ZM10.5 9c-.344 0-.672.07-.97.195l2.962 3.809c.317-.419.508-.938.508-1.504A2.5 2.5 0 0 0 10.5 9Zm-6 2.5a.5.5 0 1 1 0 1 .5.5 0 0 1 0-1Zm0-4a.5.5 0 1 1 0 1 .5.5 0 0 1 0-1ZM4 2a1.5 1.5 0 0 0-1.5 1.5v2h9v-2A1.5 1.5 0 0 0 10 2H4Zm.5 1.5a.5.5 0 1 1 0 1 .5.5 0 0 1 0-1Z"/>
</svg>
