<svg xmlns="http://www.w3.org/2000/svg" width="16" height="16" fill="none" viewBox="0 0 16 16">
  <path fill="#3D3C3C" fill-rule="evenodd" d="M2.146 13.146a.5.5 0 1 0 .708.708l11-11a.5.5 0 1 0-.708-.708L11.14 4.154C8.072 2.748 4.283 3.635 2.015 6.56l-.91 1.171a.5.5 0 0 0 0 .614l.91 1.171a7.842 7.842 0 0 0 1.96 1.8l-1.829 1.83Zm2.556-2.555L5.914 9.38a2.5 2.5 0 0 1 3.464-3.464l.998-.998c-2.569-.992-5.664-.202-7.57 2.257l-.673.865.672.865a6.81 6.81 0 0 0 1.897 1.687Zm3.945-3.945a1.5 1.5 0 0 0-2 2l2-2Zm3.525-1.2a.5.5 0 0 1 .705-.053c.398.342.77.731 1.108 1.168l.91 1.171a.5.5 0 0 1 0 .614l-.91 1.171c-1.792 2.304-4.495 3.279-7.057 2.905a.5.5 0 1 1 .144-.989c2.212.322 4.557-.515 6.123-2.53l.672-.864-.672-.865a6.993 6.993 0 0 0-.97-1.022.5.5 0 0 1-.053-.705ZM10 7.5a.5.5 0 0 1 .5.5A2.5 2.5 0 0 1 8 10.5a.5.5 0 0 1 0-1A1.5 1.5 0 0 0 9.5 8a.5.5 0 0 1 .5-.5Z" clip-rule="evenodd"/>
</svg>
