<svg xmlns="http://www.w3.org/2000/svg" width="16" height="16" fill="currentColor" viewBox="0 0 16 16">
  <path d="M13.146 2.146a.5.5 0 0 1 .707.708l-11 11a.5.5 0 0 1-.707-.707l2.914-2.915a.498.498 0 0 1 .093-.591 4.046 4.046 0 0 1 1.365-.867L8.74 6.551A5.492 5.492 0 0 0 8 6.5c-1.607 0-3.07.698-4.135 1.84a.5.5 0 0 1-.731-.68C4.372 6.33 6.093 5.5 8 5.5c.548 0 1.081.07 1.593.2l1.627-1.628A9.28 9.28 0 0 0 8 3.5c-2.409 0-4.586.907-6.16 2.366a.5.5 0 1 1-.68-.733C2.92 3.503 5.34 2.5 8 2.5c1.42 0 2.771.287 3.99.802l1.156-1.156ZM8 10.5c.408 0 .788.166 1.059.441.27.271.441.645.441 1.059a1.5 1.5 0 0 1-3 0c0-.414.167-.789.441-1.059A1.494 1.494 0 0 1 8 10.5Zm0 1a.495.495 0 0 0-.353.148l-.003.004A.48.48 0 0 0 7.5 12a.5.5 0 0 0 1 0 .496.496 0 0 0-.148-.352l-.004-.004A.487.487 0 0 0 8 11.5Zm1.137-2.843c.654.186 1.24.529 1.71.984a.5.5 0 0 1-.694.718 3.061 3.061 0 0 0-1.29-.74.5.5 0 0 1 .274-.962Zm1.955-1.821a.5.5 0 0 1 .697-.12c.389.276.75.592 1.076.943a.5.5 0 1 1-.731.682 6.017 6.017 0 0 0-.923-.809.5.5 0 0 1-.12-.696Zm2.19-2.303a.5.5 0 0 1 .697-.108c.302.22.59.456.86.708a.5.5 0 0 1-.679.733 8.601 8.601 0 0 0-.77-.634.501.501 0 0 1-.109-.699Z"/>
</svg>
