<svg xmlns="http://www.w3.org/2000/svg" width="16" height="16" fill="currentColor" viewBox="0 0 16 16">
  <path fill-rule="evenodd" d="M6.5 2.535C6.5 1.705 7.156 1 8 1s1.5.705 1.5 1.535v.828c1.142.57 2 1.754 2 3.137v2.343l1.278 1.842c.269.366.275.814.117 1.163a1.08 1.08 0 0 1-.984.652H4.085c-.475 0-.826-.3-.983-.653a1.165 1.165 0 0 1 .12-1.162L4.5 8.845V6.5c0-1.383.859-2.567 2-3.137v-.828Zm2 0v.505a3.192 3.192 0 0 0-1 0v-.505A.52.52 0 0 1 8 2c.259 0 .5.224.5.535ZM8 4C6.73 4 5.5 5.13 5.5 6.5v2.656l-1.464 2.11-.004.007a.165.165 0 0 0-.017.167.123.123 0 0 0 .038.05c.009.007.017.01.032.01h7.826a.05.05 0 0 0 .032-.01.132.132 0 0 0 .041-.053.158.158 0 0 0-.013-.163l-.005-.006L10.5 9.157V6.5C10.5 5.13 9.272 4 8 4Zm1.967 9.678a.5.5 0 0 0-.934-.356C8.886 13.706 8.489 14 8 14c-.488 0-.886-.295-1.033-.679a.5.5 0 0 0-.934.358C6.331 14.457 7.106 15 8 15c.893 0 1.669-.54 1.967-1.322Z" clip-rule="evenodd"/>
</svg>
