<svg xmlns="http://www.w3.org/2000/svg" width="16" height="16" fill="currentColor" viewBox="0 0 16 16">
  <path fill-rule="evenodd" d="M6.5 2.535C6.5 1.705 7.156 1 8 1s1.5.705 1.5 1.535V3.5a.5.5 0 0 1-1 0v-.965A.52.52 0 0 0 8 2a.52.52 0 0 0-.5.535V3.5a.5.5 0 0 1-1 0v-.965Z" clip-rule="evenodd"/>
  <path fill-rule="evenodd" d="M4.75 6.5C4.75 4.609 6.149 3 8 3c1.853 0 3.25 1.609 3.25 3.5v2.321l1.516 1.847.007.01c.274.367.28.819.123 1.17a1.08 1.08 0 0 1-.985.652H4.085c-.475 0-.826-.3-.983-.653a1.165 1.165 0 0 1 .125-1.168l.008-.01L4.75 8.82V6.5ZM8 4C6.785 4 5.75 5.074 5.75 6.5v2.679l-1.723 2.1a.165.165 0 0 0-.012.161.123.123 0 0 0 .038.05c.009.007.017.01.032.01h7.826a.05.05 0 0 0 .032-.01.132.132 0 0 0 .041-.053.159.159 0 0 0-.009-.156L10.25 9.179V6.5C10.25 5.074 9.217 4 8 4Zm1.678 9.033a.5.5 0 0 1 .29.645C9.667 14.461 8.892 15 8 15c-.894 0-1.669-.543-1.967-1.321a.5.5 0 1 1 .934-.358c.147.384.545.679 1.033.679.489 0 .886-.294 1.033-.678a.5.5 0 0 1 .645-.29Z" clip-rule="evenodd"/>
</svg>
