<svg xmlns="http://www.w3.org/2000/svg" width="16" height="16" fill="currentColor" viewBox="0 0 16 16">
  <path fill-rule="evenodd" d="M8 1c-.844 0-1.5.705-1.5 1.535v.828c-1.141.57-2 1.754-2 3.137v2.344l-1.278 1.841a1.165 1.165 0 0 0-.12 1.162c.157.353.508.653.983.653h7.826c.474 0 .826-.3.985-.652a1.16 1.16 0 0 0-.123-1.17.5.5 0 1 0-.802.596.16.16 0 0 1 .013.163.131.131 0 0 1-.04.053.05.05 0 0 1-.033.01H4.085a.048.048 0 0 1-.032-.01.123.123 0 0 1-.038-.05.165.165 0 0 1 .017-.167l.004-.006L5.5 9.157V6.5C5.5 5.13 6.729 4 8 4c.383 0 .567.003.749.048.17.042.368.131.724.368a.5.5 0 1 0 .554-.832A5.02 5.02 0 0 0 9.5 3.27v-.735C9.5 1.705 8.844 1 8 1Zm.5 2.008v-.473A.52.52 0 0 0 8 2a.52.52 0 0 0-.5.535v.505c.165-.026.332-.04.5-.04h.035c.161 0 .315 0 .465.008Zm1.178 10.025a.5.5 0 0 1 .29.645C9.667 14.461 8.892 15 8 15c-.894 0-1.669-.543-1.967-1.321a.5.5 0 1 1 .934-.358c.147.384.545.679 1.033.679.489 0 .886-.294 1.033-.678a.5.5 0 0 1 .645-.29ZM15 7a3.001 3.001 0 0 1-6 0 3.001 3.001 0 0 1 6 0Z" clip-rule="evenodd"/>
</svg>
