<svg xmlns="http://www.w3.org/2000/svg" width="16" height="16" fill="currentColor" viewBox="0 0 16 16">
  <path fill-rule="evenodd" d="M12.698 12.025c.704 0 1.306.553 1.302 1.332v1.168a.5.5 0 0 1-.5.5h-4a.5.5 0 0 1-.5-.5v-1.122c-.004-.808.696-1.378 1.38-1.378h2.318Zm-2.318 1c-.191 0-.381.179-.38.374v.626h3v-.671c.002-.214-.14-.33-.302-.33H10.38Z" clip-rule="evenodd"/>
  <path fill-rule="evenodd" d="M9 1a1 1 0 0 1 1 1v.5h1.5A1.5 1.5 0 0 1 13 4v3a.5.5 0 0 1-1 0V4a.5.5 0 0 0-.5-.5H10V4a1 1 0 0 1-1 1H6l-.102-.005A1 1 0 0 1 5 4v-.5H3.5A.5.5 0 0 0 3 4v9.5a.5.5 0 0 0 .5.5h4a.5.5 0 0 1 0 1h-4A1.5 1.5 0 0 1 2 13.5V4a1.5 1.5 0 0 1 1.5-1.5H5V2a1 1 0 0 1 1-1h3ZM6 4h3V2H6v2Z" clip-rule="evenodd"/>
  <path d="M6.09 10.213a.5.5 0 0 1 .82.574l-1.402 2a.5.5 0 0 1-.82-.001l-.598-.859a.5.5 0 0 1 .82-.572l.19.272.99-1.414Z"/>
  <path fill-rule="evenodd" d="M11.5 8a1.75 1.75 0 1 1 0 3.5 1.75 1.75 0 0 1 0-3.5Zm0 1a.75.75 0 1 0 0 1.5.75.75 0 0 0 0-1.5Z" clip-rule="evenodd"/>
  <path d="M6.09 6.213a.5.5 0 0 1 .82.574l-1.402 2a.5.5 0 0 1-.82-.001l-.598-.859a.5.5 0 0 1 .82-.572l.19.272.99-1.414Z"/>
</svg>
