<svg xmlns="http://www.w3.org/2000/svg" width="16" height="16" fill="currentColor" viewBox="0 0 16 16">
  <path fill-rule="evenodd" d="M1 2.995C1 1.943 1.782 1 2.852 1h10.296C14.218 1 15 1.943 15 2.995v10.039C15 14.08 14.21 15 13.148 15H2.852C1.79 15 1 14.08 1 13.034V2.995Zm13 0V4H2V2.995C2 2.397 2.427 2 2.852 2h10.296c.425 0 .852.397.852.995ZM2 5h12v8.034c0 .572-.418.966-.852.966H2.852C2.418 14 2 13.606 2 13.034V5Zm6.944.515a.5.5 0 0 1 .364.606l-1.5 6a.5.5 0 1 1-.97-.242l1.5-6a.5.5 0 0 1 .606-.364ZM5.38 7.825a.5.5 0 1 0-.76-.65l-1.5 1.75a.5.5 0 0 0 0 .65l1.5 1.75a.5.5 0 1 0 .76-.65L4.159 9.25l1.22-1.425Zm6-.65a.5.5 0 1 0-.76.65l1.222 1.425-1.222 1.425a.5.5 0 0 0 .76.65l1.5-1.75a.5.5 0 0 0 0-.65l-1.5-1.75ZM3.377 2.5h.246c.208 0 .377.155.377.346v.308c0 .191-.169.346-.377.346h-.246C3.169 3.5 3 3.345 3 3.154v-.308c0-.191.169-.346.377-.346Zm1.746 0h-.246c-.208 0-.377.155-.377.346v.308c0 .191.169.346.377.346h.246c.208 0 .377-.155.377-.346v-.308c0-.191-.169-.346-.377-.346Zm1.254 0h.246c.208 0 .377.155.377.346v.308c0 .191-.169.346-.377.346h-.246C6.169 3.5 6 3.345 6 3.154v-.308c0-.191.169-.346.377-.346Z" clip-rule="evenodd"/>
</svg>
