<svg xmlns="http://www.w3.org/2000/svg" width="16" height="16" fill="currentColor" viewBox="0 0 16 16">
  <path fill-rule="evenodd" d="M5.325 7.12a.5.5 0 0 1 .055.705L4.159 9.25l1.22 1.425a.5.5 0 1 1-.759.65l-1.5-1.75a.5.5 0 0 1 0-.65l1.5-1.75a.5.5 0 0 1 .705-.055Zm5.35 0a.5.5 0 0 1 .705.055l1.5 1.75a.5.5 0 0 1 0 .65l-1.5 1.75a.5.5 0 1 1-.76-.65l1.222-1.425-1.222-1.425a.5.5 0 0 1 .055-.705ZM8.944 5.515a.5.5 0 0 1 .364.606l-1.5 6a.5.5 0 1 1-.97-.242l1.5-6a.5.5 0 0 1 .606-.364Z" clip-rule="evenodd"/>
  <path fill-rule="evenodd" d="M1 4h14v9.034C15 14.08 14.21 15 13.148 15H2.852C1.79 15 1 14.08 1 13.034V4Zm1 1v8.034c0 .572.418.966.852.966h10.296c.434 0 .852-.394.852-.966V5H2Z" clip-rule="evenodd"/>
  <path fill-rule="evenodd" d="M1 2.995C1 1.943 1.782 1 2.852 1h10.296C14.218 1 15 1.943 15 2.995V5H1V2.995ZM2.852 2C2.427 2 2 2.397 2 2.995V4h12V2.995c0-.598-.427-.995-.852-.995H2.852Z" clip-rule="evenodd"/>
  <path d="M3.623 2.5h-.246c-.208 0-.377.155-.377.346v.308c0 .191.169.346.377.346h.246c.208 0 .377-.155.377-.346v-.308c0-.191-.169-.346-.377-.346Zm1.5 0h-.246c-.208 0-.377.155-.377.346v.308c0 .191.169.346.377.346h.246c.208 0 .377-.155.377-.346v-.308c0-.191-.169-.346-.377-.346Zm1.5 0h-.246c-.208 0-.377.155-.377.346v.308c0 .191.169.346.377.346h.246c.208 0 .377-.155.377-.346v-.308c0-.191-.169-.346-.377-.346Z"/>
</svg>
