<svg xmlns="http://www.w3.org/2000/svg" width="16" height="16" fill="currentColor" viewBox="0 0 16 16">
  <path fill-rule="evenodd" d="M3 2.748A.74.74 0 0 1 3.721 2h8.058a.74.74 0 0 1 .721.748V6a.5.5 0 0 0 1 0V2.748C13.5 1.796 12.736 1 11.779 1H3.72C2.764 1 2 1.796 2 2.748V4h-.5a.5.5 0 0 0 0 1h2a.5.5 0 0 0 0-1H3V2.748Zm0 10.227a.5.5 0 1 0-1 0v.277C2 14.204 2.764 15 3.721 15H6a.5.5 0 0 0 0-1H3.721A.74.74 0 0 1 3 13.252v-.277ZM1.5 11a.5.5 0 0 0 0 1h2a.5.5 0 0 0 0-1H3V9.5a.5.5 0 0 0-1 0V11h-.5ZM1 8a.5.5 0 0 1 .5-.5H2V6a.5.5 0 0 1 1 0v1.5h.5a.5.5 0 0 1 0 1h-2A.5.5 0 0 1 1 8Zm13-.5a.5.5 0 0 1 .5.5v1.5a.5.5 0 0 1-.5.5h-1.5a.5.5 0 0 1 0-1h.41c-.445-.33-.998-.5-1.66-.5C9.683 8.5 8.5 9.585 8.5 11a.5.5 0 0 1-1 0c0-2.058 1.726-3.5 3.75-3.5.846 0 1.614.222 2.25.692V8a.5.5 0 0 1 .5-.5Zm-5.5 5a.5.5 0 0 0-.5.5v1.5a.5.5 0 0 0 1 0v-.251a3.732 3.732 0 0 0 2.25.751c2.033 0 3.75-1.53 3.75-3.5a.5.5 0 0 0-1 0c0 1.344-1.192 2.5-2.75 2.5-.6 0-1.131-.188-1.579-.5H10a.5.5 0 0 0 0-1H8.5Z" clip-rule="evenodd"/>
</svg>
