<svg xmlns="http://www.w3.org/2000/svg" width="16" height="16" fill="currentColor" viewBox="0 0 16 16">
  <path d="M14.5 14a.5.5 0 1 1 0 1h-5a.5.5 0 0 1 0-1h5ZM8.086 1.459a.863.863 0 0 1 1.209-.332l1.425.863a.905.905 0 0 1 .317 1.207l-.46.838c.274.363.5.769.667 1.207h.879c.51 0 .877.428.877.896v1.705a1.37 1.37 0 0 1-.058.408.734.734 0 0 1-.237.345.74.74 0 0 1-.436.155 12.588 12.588 0 0 1-.694.001h-.084a.501.501 0 0 1 .019-1h.08l.195.002H12V6.241h-.848a.866.866 0 0 1-.817-.577l-.056-.147a3.896 3.896 0 0 0-.441-.803l-.09-.12a.91.91 0 0 1-.074-.991l.443-.81L8.9 2.055l-.423.77a.86.86 0 0 1-.898.445 3.513 3.513 0 0 0-1.156 0H6.42a.862.862 0 0 1-.862-.388l-.035-.056-.423-.77-1.218.737.443.81a.91.91 0 0 1-.07.986l-.005.006a3.829 3.829 0 0 0-.586 1.069.872.872 0 0 1-.816.577H2v1.518h.849c.36 0 .691.226.816.578.142.393.342.754.588 1.07l.04.055c.186.283.19.648.033.935l-.443.81 1.218.738.423-.77.035-.055a.856.856 0 0 1 .863-.39c.188.031.381.049.578.049a.5.5 0 0 1 0 1c-.219 0-.432-.018-.64-.048l-.444.807a.863.863 0 0 1-1.21.336l-1.426-.863-.075-.05a.907.907 0 0 1-.241-1.158l.459-.837a4.895 4.895 0 0 1-.666-1.207h-.88c-.51 0-.877-.427-.877-.895V6.137c0-.475.374-.896.877-.896h.88a4.82 4.82 0 0 1 .665-1.207l-.46-.838-.038-.08a.906.906 0 0 1 .353-1.125l.003-.002 1.425-.864h.002a.864.864 0 0 1 1.16.255l.047.078.445.811a4.497 4.497 0 0 1 1.282 0l.445-.81ZM14.5 12.001a.5.5 0 1 1 0 1h-5a.5.5 0 0 1 0-1h5Zm0-2a.5.5 0 1 1 0 1h-5a.5.5 0 0 1 0-1h5ZM4.534 7.419a2.501 2.501 0 0 1 4.932-.839l.021.16A2.504 2.504 0 0 1 6.58 9.466l-.186-.039a2.505 2.505 0 0 1-1.841-1.91l-.019-.098Zm2.532-1.918a1.503 1.503 0 0 0-1.545 1.757l.024.115c.14.562.619 1.01 1.197 1.106l.19.02a1.503 1.503 0 0 0 1.547-1.757A1.502 1.502 0 0 0 7.258 5.52l-.192-.02Z"/>
</svg>
