<svg xmlns="http://www.w3.org/2000/svg" width="16" height="16" fill="none" viewBox="0 0 16 16">
  <path fill="#3D3C3C" fill-rule="evenodd" d="m10.666 1.136.002.001 1.68 1.017v.001c.451.27.59.856.343 1.306l-2.025-2.325Zm0 0 2.025 2.325-.57 1.041c.346.45.63.958.832 1.51h1.102c.548 0 .945.46.945.968V8.5a.5.5 0 0 1-1 0V7.012h-1.093a.933.933 0 0 1-.881-.626 4.694 4.694 0 0 0-.707-1.286.984.984 0 0 1-.08-1.07l.567-1.034-1.595-.967-.547.993a.926.926 0 0 1-.969.48 4.242 4.242 0 0 0-1.393 0H7.3a.93.93 0 0 1-.964-.48L5.79 2.03l-1.596.967.567 1.033a.985.985 0 0 1-.077 1.067l-.002.003-.002.003a4.61 4.61 0 0 0-.707 1.287v.001a.939.939 0 0 1-.88.622H2v1.976h1.093c.39 0 .748.244.881.626.171.472.412.906.707 1.286.243.312.262.74.08 1.071l-.567 1.034 1.596.966.546-.993a.926.926 0 0 1 .968-.48c.227.038.459.058.696.058.257 0 .705-.023.918-.058a.5.5 0 1 1 .164.986A8.239 8.239 0 0 1 8 13.556c-.275 0-.544-.022-.806-.063l-.556 1.01a.929.929 0 0 1-1.304.361l-.002-.001-1.68-1.017v-.001a.978.978 0 0 1-.343-1.306l.57-1.04a5.693 5.693 0 0 1-.833-1.51h-1.1C1.396 9.988 1 9.527 1 9.02V6.98c0-.516.405-.968.945-.968h1.101a5.62 5.62 0 0 1 .833-1.51l-.57-1.04a.98.98 0 0 1 .339-1.305l.002-.001 1.687-1.022a.932.932 0 0 1 1.3.36l.557 1.013a5.235 5.235 0 0 1 1.612 0l.556-1.01a.929.929 0 0 1 1.304-.361ZM10.5 10.5a.5.5 0 0 1 .5-.5h3.5a.5.5 0 0 1 0 1H11a.5.5 0 0 1-.5-.5Zm0 2a.5.5 0 0 1 .5-.5h3.5a.5.5 0 0 1 0 1H11a.5.5 0 0 1-.5-.5ZM11 14a.5.5 0 0 0 0 1h3.5a.5.5 0 0 0 0-1H11ZM6.028 8.343a2.001 2.001 0 1 1 3.944-.685 2.001 2.001 0 1 1-3.944.685ZM8.505 5.04a3.001 3.001 0 0 0-1.01 5.917 3 3 0 1 0 1.01-5.917Z" clip-rule="evenodd"/>
</svg>
