<svg xmlns="http://www.w3.org/2000/svg" width="16" height="16" fill="currentColor" viewBox="0 0 16 16">
  <path fill-rule="evenodd" d="M8.438 1.113a26.427 26.427 0 0 0 4.866 1.997l.006.001c.38.115.69.456.69.897V6a.5.5 0 0 1-1 0V4.062a27.46 27.46 0 0 1-5.002-2.05A27.304 27.304 0 0 1 3 4.066v5.506c0 .645.452 1.34 1.226 2.034.754.678 1.714 1.266 2.514 1.705a.5.5 0 0 1-.48.877c-.823-.451-1.863-1.083-2.703-1.838C2.737 11.614 2 10.665 2 9.573v-5.56c0-.433.3-.787.696-.899a26.285 26.285 0 0 0 4.86-2 .917.917 0 0 1 .882-.001Z" clip-rule="evenodd"/>
  <path fill-rule="evenodd" d="M11.565 6.764a.5.5 0 0 1 .673-.207l1.75.916a.5.5 0 0 1 .212.672l-.316.612c.159.208.293.43.402.664l.738.035a.5.5 0 0 1 .476.5v1.916a.5.5 0 0 1-.484.5l-.647.021a3.6 3.6 0 0 1-.158.338l-.002.003c-.06.11-.125.22-.197.326l.395.68a.5.5 0 0 1-.187.687l-1.794 1.009a.5.5 0 0 1-.693-.214l-.291-.586c-.23.03-.465.037-.7.02l-.307.576a.5.5 0 0 1-.673.207l-1.766-.924a.5.5 0 0 1-.208-.68l.324-.6a3.673 3.673 0 0 1-.386-.633l-.65.02a.5.5 0 0 1-.515-.484L6.5 10.14a.5.5 0 0 1 .483-.515l.646-.02a3.645 3.645 0 0 1 .353-.66l-.342-.557a.5.5 0 0 1 .161-.686L9.49 6.648a.5.5 0 0 1 .69.163l.342.555a3.54 3.54 0 0 1 .734-.025l.308-.576Zm.649.909-.236.44a.5.5 0 0 1-.529.257 2.536 2.536 0 0 0-1.05.036.5.5 0 0 1-.547-.223l-.259-.421-.84.524.259.423a.5.5 0 0 1-.043.583 2.702 2.702 0 0 0-.502.944.5.5 0 0 1-.462.355l-.49.016.03 1 .491-.016a.5.5 0 0 1 .486.328c.124.338.31.649.557.912a.5.5 0 0 1 .075.58l-.245.453.878.46.235-.441a.5.5 0 0 1 .529-.257c.352.063.711.048 1.05-.036a.5.5 0 0 1 .569.263l.225.453.893-.502-.306-.527a.5.5 0 0 1 .049-.572 2.699 2.699 0 0 0 .502-.945.5.5 0 0 1 .462-.355l.505-.017v-.956l-.576-.027a.5.5 0 0 1-.446-.327 2.679 2.679 0 0 0-.557-.913.5.5 0 0 1-.079-.571l.241-.466-.87-.455Z" clip-rule="evenodd"/>
  <path fill-rule="evenodd" d="M11 11.75a.75.75 0 1 0 0-1.5.75.75 0 0 0 0 1.5Zm0 1a1.75 1.75 0 1 0 0-3.5 1.75 1.75 0 0 0 0 3.5Z" clip-rule="evenodd"/>
</svg>
