<svg xmlns="http://www.w3.org/2000/svg" width="16" height="16" fill="currentColor" viewBox="0 0 16 16">
  <path d="M11.5 8a3.5 3.5 0 1 1 0 7 3.5 3.5 0 0 1 0-7Zm0 1a2.5 2.5 0 1 0 0 5 2.5 2.5 0 0 0 0-5ZM8.086 1.458a.863.863 0 0 1 1.209-.332v-.001l1.425.863a.905.905 0 0 1 .317 1.207l-.46.838c.274.363.5.77.667 1.207h.879c.51 0 .877.429.877.897v.07l-.02.068-.25.864a.5.5 0 0 1-.96-.279l.18-.62h-.798a.866.866 0 0 1-.817-.577l-.056-.146a3.897 3.897 0 0 0-.441-.803l-.09-.121a.91.91 0 0 1-.074-.99l.443-.81L8.9 2.055l-.423.77a.86.86 0 0 1-.898.445 3.514 3.514 0 0 0-1.156 0H6.42a.862.862 0 0 1-.862-.388l-.035-.057-.423-.77-1.218.738.443.81a.91.91 0 0 1-.07.986l-.005.006a3.829 3.829 0 0 0-.586 1.068v.001a.871.871 0 0 1-.816.576H2v1.52h.849c.36 0 .691.226.816.578.142.393.342.753.588 1.07l.04.055c.187.283.19.648.033.934l-.443.81 1.218.738.423-.77.035-.055a.857.857 0 0 1 .863-.39c.188.032.381.05.578.05a.5.5 0 0 1 0 1c-.219 0-.432-.019-.64-.049l-.444.807a.862.862 0 0 1-1.21.337l-1.426-.863-.075-.051a.907.907 0 0 1-.241-1.157l.459-.837a4.895 4.895 0 0 1-.666-1.207h-.88c-.51 0-.877-.428-.877-.896V6.137c0-.476.374-.897.877-.897h.88a4.82 4.82 0 0 1 .665-1.207l-.46-.838-.038-.08a.907.907 0 0 1 .353-1.125l.003-.002 1.425-.863.002-.001a.864.864 0 0 1 1.16.256l.047.077v.001l.445.81a4.499 4.499 0 0 1 1.282 0l.445-.81Zm4.004 8.755a.501.501 0 0 1 .82.574l-1.402 2a.5.5 0 0 1-.82-.002l-.598-.858a.5.5 0 0 1 .82-.572l.189.272.99-1.414ZM4.534 7.419a2.501 2.501 0 0 1 4.932-.839l.021.16A2.504 2.504 0 0 1 6.58 9.465l-.186-.038a2.506 2.506 0 0 1-1.841-1.912l-.019-.097ZM7.066 5.5a1.503 1.503 0 0 0-1.545 1.757l.024.114c.14.563.619 1.011 1.197 1.107l.19.02A1.504 1.504 0 0 0 8.48 6.741a1.502 1.502 0 0 0-1.221-1.22l-.192-.02Z"/>
</svg>
