<svg xmlns="http://www.w3.org/2000/svg" width="16" height="16" fill="currentColor" viewBox="0 0 16 16">
  <path fill-rule="evenodd" d="M5 11.5a.5.5 0 0 1 .5-.5H7a.5.5 0 0 1 0 1H5.5a.5.5 0 0 1-.5-.5ZM5 8a.5.5 0 0 1 .5-.5H7a.5.5 0 0 1 0 1H5.5A.5.5 0 0 1 5 8Z" clip-rule="evenodd"/>
  <path fill-rule="evenodd" d="M4.857 3.5C4.41 3.5 4 3.892 4 4.437v8.626c0 .546.408.937.857.937h6.786c.446 0 .857-.392.857-.937V4.437c0-.547-.408-.937-.857-.937H10.5a.5.5 0 0 1 0-1h1.143c1.055 0 1.857.894 1.857 1.937v8.626c0 1.044-.807 1.937-1.857 1.937H4.857C3.802 15 3 14.106 3 13.063V4.437C3 3.393 3.807 2.5 4.857 2.5h.893a.5.5 0 0 1 0 1h-.893Z" clip-rule="evenodd"/>
  <path fill-rule="evenodd" d="M6.5 2v2H10V2H6.5Zm-1-.018A.98.98 0 0 1 6.477 1h3.546a.98.98 0 0 1 .977.982v2.036a.98.98 0 0 1-.977.982H6.477a.98.98 0 0 1-.977-.982V1.982Zm5.787 4.108a.5.5 0 0 1 .122.697l-1.401 2a.5.5 0 0 1-.82-.001l-.598-.859a.5.5 0 0 1 .82-.571l.19.271.99-1.414a.5.5 0 0 1 .697-.122Zm0 3.5a.5.5 0 0 1 .122.697l-1.401 2a.5.5 0 0 1-.82-.001l-.598-.859a.5.5 0 0 1 .82-.571l.19.271.99-1.414a.5.5 0 0 1 .697-.122Z" clip-rule="evenodd"/>
</svg>
