<svg xmlns="http://www.w3.org/2000/svg" width="16" height="16" fill="currentColor" viewBox="0 0 16 16">
  <path fill-rule="evenodd" d="M6.5 2h3v2h-3V2Zm-1 0a1 1 0 0 1 1-1h3a1 1 0 0 1 1 1v.5H12A1.5 1.5 0 0 1 13.5 4v9.5A1.5 1.5 0 0 1 12 15H4a1.5 1.5 0 0 1-1.5-1.5V4A1.5 1.5 0 0 1 4 2.5h1.5V2Zm0 1.5H4a.5.5 0 0 0-.5.5v9.5a.5.5 0 0 0 .5.5h8a.5.5 0 0 0 .5-.5V4a.5.5 0 0 0-.5-.5h-1.5V4a1 1 0 0 1-1 1h-3a1 1 0 0 1-1-1v-.5Zm5.787 2.59a.5.5 0 0 1 .122.697l-1.401 2a.5.5 0 0 1-.82-.001l-.598-.859a.5.5 0 0 1 .82-.571l.19.271.99-1.414a.5.5 0 0 1 .697-.122ZM5 7.5a.5.5 0 0 0 0 1h2a.5.5 0 0 0 0-1H5ZM5 11a.5.5 0 0 0 0 1h2a.5.5 0 0 0 0-1H5Zm6.41-.713a.5.5 0 1 0-.82-.574l-.99 1.414-.19-.271a.5.5 0 1 0-.82.571l.598.859a.5.5 0 0 0 .82.001l1.401-2Z" clip-rule="evenodd"/>
</svg>
