<svg xmlns="http://www.w3.org/2000/svg" width="16" height="16" fill="currentColor" viewBox="0 0 16 16">
  <path fill-rule="evenodd" d="M6 3a1 1 0 0 1 1-1h2a1 1 0 0 1 1 1v2a1 1 0 0 1-1 1h-.5v1.5H13a.5.5 0 0 1 .5.5v2h.5a1 1 0 0 1 1 1v2a1 1 0 0 1-1 1h-2a1 1 0 0 1-1-1v-2a1 1 0 0 1 1-1h.5V8.5h-4V10H9a1 1 0 0 1 1 1v2a1 1 0 0 1-1 1H7a1 1 0 0 1-1-1v-2a1 1 0 0 1 1-1h.5V8.5h-4V10H4a1 1 0 0 1 1 1v2a1 1 0 0 1-1 1H2a1 1 0 0 1-1-1v-2a1 1 0 0 1 1-1h.5V8a.5.5 0 0 1 .5-.5h4.5V6H7a1 1 0 0 1-1-1V3Zm3 0H7v2h2V3Zm-7 8v2h2v-2H2Zm5 0h2v2H7v-2Zm5 0v2h2v-2h-2Z" clip-rule="evenodd"/>
</svg>
