<svg xmlns="http://www.w3.org/2000/svg" width="16" height="16" fill="currentColor" viewBox="0 0 16 16">
  <path fill-rule="evenodd" d="M6.537 6.637a2 2 0 1 0 2.927 2.727 2 2 0 0 0-2.927-2.727ZM7 8a1 1 0 1 1 2 0 1 1 0 0 1-2 0Z" clip-rule="evenodd"/>
  <path fill-rule="evenodd" d="M2.035 6.637c3.087-3.516 8.844-3.516 11.93 0l.91 1.035a.5.5 0 0 1 0 .66l-.91 1.035c-3.09 3.51-8.843 3.51-11.93 0l-.91-1.035a.5.5 0 0 1 0-.66l.91-1.035Zm10.51 0c.236.201.46.421.67.66l.62.705-.62.704c-2.694 3.059-7.74 3.058-10.43 0l-.62-.704.62-.705c.21-.239.434-.459.67-.66 2.556-2.183 6.534-2.183 9.09 0Z" clip-rule="evenodd"/>
</svg>
