<svg xmlns="http://www.w3.org/2000/svg" width="16" height="16" fill="currentColor" viewBox="0 0 16 16">
  <path fill-rule="evenodd" d="m14.896 7.697-.91-1.182c-3.088-4.02-8.885-4.02-11.973 0l-.91 1.182a.5.5 0 0 0 0 .61l.91 1.182c3.089 4.015 8.88 4.014 11.973 0l.91-1.182a.5.5 0 0 0 0-.61Zm-12.09-.573c2.688-3.499 7.7-3.499 10.387 0l.676.878-.675.878c-2.693 3.494-7.7 3.493-10.388 0l-.675-.878.676-.878ZM6.5 8a1.5 1.5 0 1 1 3 0 1.5 1.5 0 0 1-3 0ZM8 5.5a2.5 2.5 0 1 0 0 5 2.5 2.5 0 0 0 0-5Z" clip-rule="evenodd"/>
</svg>
