<svg xmlns="http://www.w3.org/2000/svg" width="16" height="16" fill="currentColor" viewBox="0 0 16 16">
  <path fill-rule="evenodd" d="M13.966 6.637c-3.087-3.516-8.845-3.516-11.931 0h11.93Zm0 0 .91 1.035a.5.5 0 0 1 0 .66l-.91 1.035c-3.092 3.51-8.844 3.51-11.931 0l-.91-1.035a.5.5 0 0 1 0-.66l.91-1.035m11.18.66c-2.69-3.063-7.74-3.063-10.43 0l-.62.705.62.704c2.689 3.058 7.736 3.059 10.43 0l.62-.704-.62-.705Z" clip-rule="evenodd"/>
  <path fill-rule="evenodd" d="M8 7a1 1 0 1 0 0 2 1 1 0 0 0 0-2ZM6 8a2 2 0 1 1 4 0 2 2 0 0 1-4 0Z" clip-rule="evenodd"/>
</svg>
