<svg xmlns="http://www.w3.org/2000/svg" width="16" height="16" fill="currentColor" viewBox="0 0 16 16">
  <path fill-rule="evenodd" d="M13.382 4.988 9.787 2.132l-.67.88 3.596 2.856.67-.88Zm-4.194-3.72c.225-.29.66-.37.973-.116l4.077 3.238.007.006c.28.23.348.656.112.962l-1.045 1.374a.698.698 0 0 1-.545.268l-1.218 2.87c-.11.248-.306.442-.55.552h-.002l-6.784 3.031a.506.506 0 0 1-.52-.057.498.498 0 0 1-.181-.504L4.92 5.86c.057-.264.215-.494.427-.647l.005-.003 2.696-1.893a.69.69 0 0 1 .095-.676l1.045-1.374ZM5.623 11.727l2.272-2.92a.5.5 0 0 0-.79-.614L4.907 11.02l.991-4.95a.087.087 0 0 1 .033-.043l2.72-1.91 3.235 2.4-1.253 2.95a.087.087 0 0 1-.045.042l-4.964 2.218ZM2.5 14a.5.5 0 0 0 0 1h11a.5.5 0 1 0 0-1h-11Z" clip-rule="evenodd"/>
</svg>
