<svg xmlns="http://www.w3.org/2000/svg" width="16" height="16" fill="currentColor" viewBox="0 0 16 16">
  <path d="M0 0h16v16H0z"/>
  <path fill-rule="evenodd" d="M8.438 1.113a26.427 26.427 0 0 0 4.866 1.997l.006.001c.38.115.69.456.69.897V7a.5.5 0 0 1-1 0V4.062a27.46 27.46 0 0 1-5.002-2.05A27.304 27.304 0 0 1 3 4.066v5.506c0 .748.568 1.545 1.477 2.31.883.742 1.968 1.354 2.747 1.745a.5.5 0 0 1-.448.894c-.808-.405-1.972-1.058-2.943-1.874C2.89 11.854 2 10.798 2 9.573v-5.56c0-.433.3-.787.696-.899a26.285 26.285 0 0 0 4.86-2 .917.917 0 0 1 .882-.001Z" clip-rule="evenodd"/>
  <path d="M9.01 15c-.265 0-.52-.105-.71-.295a.991.991 0 0 1-.265-.96H8.03l.305-1.215c.02-.09.07-.17.13-.23l3.83-3.84a1.59 1.59 0 0 1 2.24 0c.62.62.62 1.62 0 2.24l-3.83 3.83a.484.484 0 0 1-.23.13l-1.215.305c-.085.02-.165.03-.25.03V15ZM9 13.985v.005l1.1-.265 3.73-3.73a.589.589 0 0 0 0-.825.58.58 0 0 0-.825 0L9.27 12.905 9 13.985Z"/>
</svg>
