<svg xmlns="http://www.w3.org/2000/svg" width="16" height="16" fill="currentColor" viewBox="0 0 16 16">
  <path fill-rule="evenodd" d="M13.304 3.11a26.45 26.45 0 0 1-4.866-1.997.917.917 0 0 0-.882 0 26.285 26.285 0 0 1-4.86 2.001.942.942 0 0 0-.696.898v5.56c0 1.226.889 2.282 1.833 3.076.97.816 2.135 1.469 2.943 1.874a.5.5 0 1 0 .448-.894c-.779-.391-1.864-1.003-2.747-1.745C3.567 11.117 3 10.32 3 9.572V4.067c.8-.237 2.812-.882 4.998-2.056A27.46 27.46 0 0 0 13 4.062V7a.5.5 0 0 0 1 0V4.008c0-.441-.31-.782-.69-.897l-.006-.001ZM8.3 14.705c.19.19.445.295.71.295v-.005c.085 0 .165-.01.25-.03l1.215-.305a.484.484 0 0 0 .23-.13l3.83-3.83c.62-.62.62-1.62 0-2.24a1.59 1.59 0 0 0-2.24 0l-3.83 3.84c-.06.06-.11.14-.13.23l-.305 1.215h.005c-.09.35.01.705.265.96Zm.7-.715v-.005l.27-1.08 3.735-3.735a.58.58 0 0 1 .825 0c.225.23.225.6 0 .825l-3.73 3.73-1.1.265Z" clip-rule="evenodd"/>
</svg>
