<svg xmlns="http://www.w3.org/2000/svg" width="16" height="16" fill="currentColor" viewBox="0 0 16 16">
  <path fill-rule="evenodd" d="M4.185 1.504h-.001a.5.5 0 0 0-.56.55l.19 1.744a5.49 5.49 0 0 0-1.488 2.347H1.5a.5.5 0 0 0-.5.5v2.66a.5.5 0 0 0 .5.5h1.014c.332.761.84 1.437 1.47 1.982v1.437c0 .716.586 1.276 1.294 1.276H5.7c.548 0 1.05-.34 1.23-.87l.147-.43a6.432 6.432 0 0 0 1.926 0l.147.43c.18.53.682.87 1.23.87h.423c.701 0 1.294-.558 1.294-1.276v-1.437c1.13-.98 1.858-2.37 1.901-3.93.295-.137.598-.376.796-.788.255-.524.237-.99.14-1.332a1.69 1.69 0 0 0-.27-.54l-.009-.013-.004-.005-.002-.002v-.001h-.001a.5.5 0 0 0-.767.641l.002.002a.688.688 0 0 1 .09.193c.037.132.057.342-.079.62l-.001.004-.003.005c-.537-2.58-2.978-4.49-5.85-4.49-.66 0-1.292.097-1.888.283a3.517 3.517 0 0 0-1.175-.72 4.12 4.12 0 0 0-.77-.207l-.015-.002h-.007Zm1.847 2.994c-.019-.526-.19-.893-.41-1.167-.258-.316-.606-.521-.924-.651l.137 1.265a.5.5 0 0 1-.172.434 4.478 4.478 0 0 0-1.468 2.379.5.5 0 0 1-.487.387H2v1.66h.853a.5.5 0 0 1 .471.331 4.572 4.572 0 0 0 1.471 2.026.5.5 0 0 1 .189.39v1.672c0 .143.118.276.294.276H5.7a.294.294 0 0 0 .283-.192l.287-.84a.5.5 0 0 1 .581-.328 5.463 5.463 0 0 0 2.377 0 .5.5 0 0 1 .582.327l.287.841a.294.294 0 0 0 .283.192h.423a.286.286 0 0 0 .294-.276v-1.671a.5.5 0 0 1 .189-.391C12.343 10.319 13 9.082 13 7.712c0-2.483-2.183-4.561-4.96-4.561-.442 0-.867.051-1.27.15.149.33.245.714.262 1.16a.5.5 0 0 1-1 .037Zm2.118.532c.127-.04.522-.058.967.064.437.121.783.34.94.64a.5.5 0 1 0 .885-.468c-.342-.647-.996-.98-1.559-1.135-.555-.154-1.16-.172-1.533-.054a.5.5 0 1 0 .3.953ZM5.447 6.56a.698.698 0 0 1-.7.697.698.698 0 0 1-.7-.696c0-.385.314-.697.7-.697.387 0 .7.312.7.697Z" clip-rule="evenodd"/>
</svg>
