<svg xmlns="http://www.w3.org/2000/svg" width="16" height="16" fill="currentColor" viewBox="0 0 16 16">
  <path fill-rule="evenodd" d="m14.854 5.146-4-4a.5.5 0 0 0-.708 0L5.505 5.788C4.922 5.27 4.218 5 3.498 5c-.882 0-1.74.407-2.379 1.176a.497.497 0 0 0 .03.68L4.794 10.5l-3.68 3.68a.5.5 0 1 0 .707.707l3.68-3.68 3.643 3.643a.494.494 0 0 0 .337.15.499.499 0 0 0 .343-.118c.77-.64 1.177-1.498 1.177-2.38 0-.72-.27-1.424-.788-2.007l4.642-4.641a.5.5 0 0 0 0-.708ZM10.5 2.207 13.793 5.5 9.5 9.793 6.207 6.5 10.5 2.207Zm-5.35 4.65a.515.515 0 0 1-.039-.042C4.645 6.256 4.06 6 3.498 6a2 2 0 0 0-1.295.496l7.3 7.3c.339-.399.497-.854.497-1.294 0-.561-.256-1.147-.815-1.613a.484.484 0 0 1-.027-.024M5.15 6.857l3.993 3.993.014.014" clip-rule="evenodd"/>
</svg>
