<svg xmlns="http://www.w3.org/2000/svg" width="16" height="16" fill="currentColor" viewBox="0 0 16 16">
  <path d="M2.126 14h-.252c-.207 0-.374.155-.374.347v.306c0 .191.167.347.374.347h.252c.207 0 .374-.155.374-.347v-.306c0-.191-.167-.347-.374-.347Zm1.5 0h-.252c-.207 0-.374.155-.374.347v.306c0 .191.167.347.374.347h.252c.207 0 .374-.155.374-.347v-.306c0-.191-.167-.347-.374-.347Zm1.5 0h-.252c-.207 0-.374.155-.374.347v.306c0 .191.167.347.374.347h.252c.207 0 .374-.155.374-.347v-.306c0-.191-.167-.347-.374-.347Zm1.5 0h-.252c-.207 0-.374.155-.374.347v.306c0 .191.167.347.374.347h.252c.207 0 .374-.155.374-.347v-.306c0-.191-.167-.347-.374-.347Zm1.5 0h-.252c-.207 0-.374.155-.374.347v.306c0 .191.167.347.374.347h.252c.207 0 .374-.155.374-.347v-.306c0-.191-.167-.347-.374-.347Zm1.5 0h-.252c-.207 0-.374.155-.374.347v.306c0 .191.167.347.374.347h.252c.207 0 .374-.155.374-.347v-.306c0-.191-.167-.347-.374-.347Zm1.5 0h-.252c-.207 0-.374.155-.374.347v.306c0 .191.167.347.374.347h.252c.207 0 .374-.155.374-.347v-.306c0-.191-.167-.347-.374-.347Zm1.5 0h-.252c-.207 0-.374.155-.374.347v.306c0 .191.167.347.374.347h.252c.207 0 .374-.155.374-.347v-.306c0-.191-.167-.347-.374-.347Zm1.5 0h-.252c-.207 0-.374.155-.374.347v.306c0 .191.167.347.374.347h.252c.207 0 .374-.155.374-.347v-.306c0-.191-.167-.347-.374-.347Zm-12-13h-.252c-.207 0-.374.156-.374.347v.306c0 .191.167.347.374.347h.252c.207 0 .374-.156.374-.347v-.306C2.5 1.156 2.333 1 2.126 1Zm1.5 0h-.252C3.167 1 3 1.156 3 1.347v.306c0 .191.167.347.374.347h.252C3.833 2 4 1.844 4 1.653v-.306C4 1.156 3.833 1 3.626 1Zm1.5 0h-.252c-.207 0-.374.156-.374.347v.306c0 .191.167.347.374.347h.252c.207 0 .374-.156.374-.347v-.306C5.5 1.156 5.333 1 5.126 1Zm1.5 0h-.252C6.167 1 6 1.156 6 1.347v.306c0 .191.167.347.374.347h.252C6.833 2 7 1.844 7 1.653v-.306C7 1.156 6.833 1 6.626 1Zm1.5 0h-.252c-.207 0-.374.156-.374.347v.306c0 .191.167.347.374.347h.252c.207 0 .374-.156.374-.347v-.306C8.5 1.156 8.333 1 8.126 1Zm1.5 0h-.252C9.167 1 9 1.156 9 1.347v.306c0 .191.167.347.374.347h.252c.207 0 .374-.156.374-.347v-.306C10 1.156 9.833 1 9.626 1Zm1.5 0h-.252c-.207 0-.374.156-.374.347v.306c0 .191.167.347.374.347h.252c.207 0 .374-.156.374-.347v-.306c0-.191-.167-.347-.374-.347Zm1.5 0h-.252c-.207 0-.374.156-.374.347v.306c0 .191.167.347.374.347h.252c.207 0 .374-.156.374-.347v-.306c0-.191-.167-.347-.374-.347Zm1.5 0h-.252c-.207 0-.374.156-.374.347v.306c0 .191.167.347.374.347h.252c.207 0 .374-.156.374-.347v-.306c0-.191-.167-.347-.374-.347Zm-12.5 2h-.252C1.167 3 1 3.156 1 3.347v.306c0 .191.167.347.374.347h.252C1.833 4 2 3.844 2 3.653v-.306C2 3.156 1.833 3 1.626 3Zm0 1.5h-.252c-.207 0-.374.156-.374.347v.306c0 .191.167.347.374.347h.252c.207 0 .374-.156.374-.347v-.306c0-.191-.167-.347-.374-.347Zm0 1.5h-.252C1.167 6 1 6.156 1 6.347v.306c0 .191.167.347.374.347h.252C1.833 7 2 6.844 2 6.653v-.306C2 6.156 1.833 6 1.626 6Zm0 1.5h-.252c-.207 0-.374.156-.374.347v.306c0 .191.167.347.374.347h.252c.207 0 .374-.156.374-.347v-.306c0-.191-.167-.347-.374-.347Zm0 1.5h-.252C1.167 9 1 9.156 1 9.347v.306c0 .191.167.347.374.347h.252C1.833 10 2 9.844 2 9.653v-.306C2 9.156 1.833 9 1.626 9Zm0 1.5h-.252c-.207 0-.374.155-.374.347v.306c0 .191.167.347.374.347h.252c.207 0 .374-.155.374-.347v-.306c0-.191-.167-.347-.374-.347Zm0 1.5h-.252c-.207 0-.374.155-.374.347v.306c0 .191.167.347.374.347h.252c.207 0 .374-.155.374-.347v-.306c0-.191-.167-.347-.374-.347Zm13-9h-.252c-.207 0-.374.156-.374.347v.306c0 .191.167.347.374.347h.252c.207 0 .374-.156.374-.347v-.306c0-.191-.167-.347-.374-.347Zm0 1.5h-.252c-.207 0-.374.156-.374.347v.306c0 .191.167.347.374.347h.252c.207 0 .374-.156.374-.347v-.306c0-.191-.167-.347-.374-.347Zm0 1.5h-.252c-.207 0-.374.156-.374.347v.306c0 .191.167.347.374.347h.252c.207 0 .374-.156.374-.347v-.306c0-.191-.167-.347-.374-.347Zm0 1.5h-.252c-.207 0-.374.156-.374.347v.306c0 .191.167.347.374.347h.252c.207 0 .374-.156.374-.347v-.306c0-.191-.167-.347-.374-.347Zm0 1.5h-.252c-.207 0-.374.156-.374.347v.306c0 .191.167.347.374.347h.252c.207 0 .374-.156.374-.347v-.306c0-.191-.167-.347-.374-.347Zm0 1.5h-.252c-.207 0-.374.155-.374.347v.306c0 .191.167.347.374.347h.252c.207 0 .374-.155.374-.347v-.306c0-.191-.167-.347-.374-.347Zm0 1.5h-.252c-.207 0-.374.155-.374.347v.306c0 .191.167.347.374.347h.252c.207 0 .374-.155.374-.347v-.306c0-.191-.167-.347-.374-.347Z"/>
  <path fill-rule="evenodd" d="M5.686 5.5a.186.186 0 0 0-.186.186v4.628c0 .103.083.186.186.186h4.628a.186.186 0 0 0 .186-.186V5.686a.186.186 0 0 0-.186-.186H5.686ZM4.5 5.686c0-.655.53-1.186 1.186-1.186h4.628c.655 0 1.186.53 1.186 1.186v4.628c0 .655-.53 1.186-1.186 1.186H5.686c-.655 0-1.186-.53-1.186-1.186V5.686Z" clip-rule="evenodd"/>
</svg>
