<svg xmlns="http://www.w3.org/2000/svg" width="16" height="16" fill="currentColor" viewBox="0 0 16 16">
  <path fill-rule="evenodd" d="M2.126 1h-.252c-.207 0-.374.156-.374.347v.306c0 .191.167.347.374.347h.252c.207 0 .374-.156.374-.347v-.306C2.5 1.156 2.333 1 2.126 1ZM2.5 14.347c0-.191-.167-.347-.374-.347h-.252c-.207 0-.374.155-.374.347v.306c0 .191.167.347.374.347h.252c.207 0 .374-.155.374-.347v-.306ZM3.626 14h-.252c-.207 0-.374.155-.374.347v.306c0 .191.167.347.374.347h.252c.207 0 .374-.155.374-.347v-.306c0-.191-.167-.347-.374-.347Zm1.248 0h.252c.207 0 .374.155.374.347v.306c0 .191-.167.347-.374.347h-.252c-.207 0-.374-.155-.374-.347v-.306c0-.191.167-.347.374-.347Zm1.752 0h-.252c-.207 0-.374.155-.374.347v.306c0 .191.167.347.374.347h.252c.207 0 .374-.155.374-.347v-.306c0-.191-.167-.347-.374-.347Zm1.248 0h.252c.207 0 .374.155.374.347v.306c0 .191-.167.347-.374.347h-.252c-.207 0-.374-.155-.374-.347v-.306c0-.191.167-.347.374-.347Zm1.752 0h-.252c-.207 0-.374.155-.374.347v.306c0 .191.167.347.374.347h.252c.207 0 .374-.155.374-.347v-.306c0-.191-.167-.347-.374-.347Zm1.248 0h.252c.207 0 .374.155.374.347v.306c0 .191-.167.347-.374.347h-.252c-.207 0-.374-.155-.374-.347v-.306c0-.191.167-.347.374-.347Zm1.752 0h-.252c-.207 0-.374.155-.374.347v.306c0 .191.167.347.374.347h.252c.207 0 .374-.155.374-.347v-.306c0-.191-.167-.347-.374-.347Zm1.5 0c.207 0 .374.155.374.347v.306c0 .191-.167.347-.374.347h-.252c-.207 0-.374-.155-.374-.347v-.306c0-.191.167-.347.374-.347h.252ZM3.374 1h.252c.207 0 .374.156.374.347v.306C4 1.844 3.833 2 3.626 2h-.252C3.167 2 3 1.844 3 1.653v-.306C3 1.156 3.167 1 3.374 1Zm1.752 0h-.252c-.207 0-.374.156-.374.347v.306c0 .191.167.347.374.347h.252c.207 0 .374-.156.374-.347v-.306C5.5 1.156 5.333 1 5.126 1Zm1.248 0h.252c.207 0 .374.156.374.347v.306C7 1.844 6.833 2 6.626 2h-.252C6.167 2 6 1.844 6 1.653v-.306C6 1.156 6.167 1 6.374 1Zm1.752 0h-.252c-.207 0-.374.156-.374.347v.306c0 .191.167.347.374.347h.252c.207 0 .374-.156.374-.347v-.306C8.5 1.156 8.333 1 8.126 1Zm1.248 0h.252c.207 0 .374.156.374.347v.306c0 .191-.167.347-.374.347h-.252C9.167 2 9 1.844 9 1.653v-.306C9 1.156 9.167 1 9.374 1Zm1.752 0h-.252c-.207 0-.374.156-.374.347v.306c0 .191.167.347.374.347h.252c.207 0 .374-.156.374-.347v-.306c0-.191-.167-.347-.374-.347Zm1.248 0h.252c.207 0 .374.156.374.347v.306c0 .191-.167.347-.374.347h-.252C12.167 2 12 1.844 12 1.653v-.306c0-.191.167-.347.374-.347Zm1.752 0h-.252c-.207 0-.374.156-.374.347v.306c0 .191.167.347.374.347h.252c.207 0 .374-.156.374-.347v-.306c0-.191-.167-.347-.374-.347Zm-12.5 2c.207 0 .374.156.374.347v.306C2 3.844 1.833 4 1.626 4h-.252C1.167 4 1 3.844 1 3.653v-.306C1 3.156 1.167 3 1.374 3h.252Zm-.252 1.5c-.207 0-.374.156-.374.347v.306c0 .191.167.347.374.347h.252c.207 0 .374-.156.374-.347v-.306c0-.191-.167-.347-.374-.347h-.252ZM1 6.347C1 6.156 1.167 6 1.374 6h.252c.207 0 .374.156.374.347v.306C2 6.844 1.833 7 1.626 7h-.252C1.167 7 1 6.844 1 6.653v-.306ZM1.374 7.5c-.207 0-.374.156-.374.347v.306c0 .191.167.347.374.347h.252c.207 0 .374-.156.374-.347v-.306c0-.191-.167-.347-.374-.347h-.252ZM1 9.347C1 9.156 1.167 9 1.374 9h.252c.207 0 .374.156.374.347v.306c0 .191-.167.347-.374.347h-.252C1.167 10 1 9.844 1 9.653v-.306Zm.374 1.153c-.207 0-.374.155-.374.347v.306c0 .191.167.347.374.347h.252c.207 0 .374-.155.374-.347v-.306c0-.191-.167-.347-.374-.347h-.252ZM1 12.347c0-.191.167-.347.374-.347h.252c.207 0 .374.155.374.347v.306c0 .191-.167.347-.374.347h-.252C1.167 13 1 12.845 1 12.653v-.306ZM14.626 3h-.252c-.207 0-.374.156-.374.347v.306c0 .191.167.347.374.347h.252c.207 0 .374-.156.374-.347v-.306c0-.191-.167-.347-.374-.347Zm-.252 1.5h.252c.207 0 .374.156.374.347v.306c0 .191-.167.347-.374.347h-.252c-.207 0-.374-.156-.374-.347v-.306c0-.191.167-.347.374-.347Zm.252 1.5h-.252c-.207 0-.374.156-.374.347v.306c0 .191.167.347.374.347h.252c.207 0 .374-.156.374-.347v-.306c0-.191-.167-.347-.374-.347Zm-.252 1.5h.252c.207 0 .374.156.374.347v.306c0 .191-.167.347-.374.347h-.252c-.207 0-.374-.156-.374-.347v-.306c0-.191.167-.347.374-.347Zm.252 1.5h-.252c-.207 0-.374.156-.374.347v.306c0 .191.167.347.374.347h.252c.207 0 .374-.156.374-.347v-.306c0-.191-.167-.347-.374-.347Zm-.252 1.5h.252c.207 0 .374.155.374.347v.306c0 .191-.167.347-.374.347h-.252c-.207 0-.374-.155-.374-.347v-.306c0-.191.167-.347.374-.347Zm.252 1.5h-.252c-.207 0-.374.155-.374.347v.306c0 .191.167.347.374.347h.252c.207 0 .374-.155.374-.347v-.306c0-.191-.167-.347-.374-.347ZM5.5 5.686c0-.103.083-.186.186-.186h4.628c.103 0 .186.083.186.186v4.628a.186.186 0 0 1-.186.186H5.686a.186.186 0 0 1-.186-.186V5.686ZM5.686 4.5C5.03 4.5 4.5 5.03 4.5 5.686v4.628c0 .655.53 1.186 1.186 1.186h4.628c.655 0 1.186-.53 1.186-1.186V5.686c0-.655-.53-1.186-1.186-1.186H5.686Z" clip-rule="evenodd"/>
</svg>
