<svg xmlns="http://www.w3.org/2000/svg" width="16" height="16" fill="currentColor" viewBox="0 0 16 16">
  <path d="M9.603 1.005A1 1 0 0 1 10.5 2v.5H12A1.5 1.5 0 0 1 13.5 4v3a.5.5 0 0 1-1 0V4a.5.5 0 0 0-.5-.5h-1.5V4l-.005.103a1 1 0 0 1-.892.892L9.5 5h-3l-.102-.005A1 1 0 0 1 5.5 4v-.5H4a.5.5 0 0 0-.5.5v9.5a.5.5 0 0 0 .5.5h3a.5.5 0 0 1 0 1H4a1.5 1.5 0 0 1-1.5-1.5V4A1.5 1.5 0 0 1 4 2.5h1.5V2a1 1 0 0 1 .898-.995L6.5 1h3l.103.005ZM11.5 8a3.5 3.5 0 1 1 0 7 3.5 3.5 0 0 1 0-7Zm0 1a2.5 2.5 0 1 0 0 5 2.5 2.5 0 0 0 0-5Zm.622 1.173a.5.5 0 0 1 .815.57l-.027.044-1.402 2a.5.5 0 0 1-.82-.002l-.598-.858a.5.5 0 0 1 .82-.572l.19.272.99-1.414.032-.04ZM6.5 4h3V2h-3v2Z"/>
</svg>
