<svg xmlns="http://www.w3.org/2000/svg" width="17" height="16" fill="currentColor" viewBox="0 0 17 16">
  <path d="M9.563 1.005A1 1 0 0 1 10.46 2v.5h1.5a1.5 1.5 0 0 1 1.5 1.5v3a.5.5 0 0 1-1 0V4a.5.5 0 0 0-.5-.5h-1.5V4l-.006.103a1 1 0 0 1-.892.892L9.46 5h-3l-.102-.005A1 1 0 0 1 5.46 4v-.5h-1.5a.5.5 0 0 0-.5.5v9.5a.5.5 0 0 0 .5.5h3a.5.5 0 0 1 0 1h-3a1.5 1.5 0 0 1-1.5-1.5V4a1.5 1.5 0 0 1 1.5-1.5h1.5V2a1 1 0 0 1 .898-.995L6.46 1h3l.102.005Zm2.692 7.456a1.591 1.591 0 0 1 2.24 0c.62.62.62 1.62 0 2.24l-3.83 3.83a.486.486 0 0 1-.231.13l-1.215.304c-.085.02-.165.03-.25.03V15c-.265 0-.52-.105-.711-.295a.991.991 0 0 1-.265-.96h-.005l.305-1.215c.02-.09.07-.17.13-.23l3.832-3.84Zm1.535.71a.58.58 0 0 0-.825 0l-3.736 3.734-.27 1.08v.005l1.1-.264 3.731-3.73a.589.589 0 0 0 0-.825ZM6.461 4h3V2h-3v2Z"/>
</svg>
