<svg xmlns="http://www.w3.org/2000/svg" width="16" height="16" fill="currentColor" viewBox="0 0 16 16">
  <path fill-rule="evenodd" d="M8.5 1.142h.001l5.428 3.176a.504.504 0 0 1 .054.027c.693.4.684 1.4.005 1.803L8.543 9.357c-.323.19-.72.19-1.043 0h-.001L2.016 6.15c-.692-.401-.683-1.401-.004-1.802h.001l5.444-3.205c.323-.19.72-.19 1.043 0Zm4.995 4.08-.014-.008-5.488-3.21A.027.027 0 0 0 7.979 2c-.003 0-.008 0-.014.004L2.521 5.21a.038.038 0 0 0-.015.014.056.056 0 0 0-.006.026c0 .011.003.02.005.024a.027.027 0 0 0 .012.011l.002.002 5.488 3.21a.03.03 0 0 0 .014.004c.003 0 .008 0 .013-.004l5.445-3.21a.037.037 0 0 0 .015-.014.055.055 0 0 0 .006-.026.051.051 0 0 0-.005-.024Zm-.596 4.522a.5.5 0 0 1 .686-.173l.386.23c.687.404.678 1.405.002 1.809l-5.445 3.245a1.02 1.02 0 0 1-1.047 0H7.48l-5.482-3.243h-.002c-.688-.404-.679-1.406-.003-1.81l.389-.231a.5.5 0 1 1 .512.858l-.388.232a.04.04 0 0 0-.016.016.067.067 0 0 0-.007.03c0 .014.004.024.007.03a.03.03 0 0 0 .012.012l.003.001 5.487 3.246.012.004c.002 0 .006 0 .012-.004l5.444-3.244a.042.042 0 0 0 .016-.017.068.068 0 0 0 .007-.03.062.062 0 0 0-.006-.03.03.03 0 0 0-.013-.012l-.004-.002-.388-.232a.5.5 0 0 1-.173-.685Zm.678-2.738a.5.5 0 0 0-.459.888l.344.178-5.379 2.87a.094.094 0 0 1-.071.001L2.547 8.12l.343-.181a.5.5 0 0 0-.466-.884l-.389.204a.964.964 0 0 0 .009 1.726l5.503 2.845c.317.166.697.156.997 0l5.43-2.897a.964.964 0 0 0-.009-1.726l-.388-.2Z" clip-rule="evenodd"/>
</svg>
