<svg xmlns="http://www.w3.org/2000/svg" width="16" height="16" fill="currentColor" viewBox="0 0 16 16">
  <path fill-rule="evenodd" d="m8.5 1.142.001.001 5.428 3.175a.496.496 0 0 1 .054.027c.693.4.684 1.401.005 1.803L8.543 9.357c-.323.19-.72.19-1.043 0h-.001L2.016 6.15c-.692-.401-.683-1.4-.004-1.802h.001l5.444-3.205c.323-.19.72-.19 1.043 0Zm4.995 4.08a.618.618 0 0 1-.014-.008l-5.488-3.21A.027.027 0 0 0 7.979 2c-.003 0-.008 0-.014.004L2.521 5.21a.038.038 0 0 0-.015.014.056.056 0 0 0-.006.026c0 .011.003.02.005.024a.027.027 0 0 0 .012.011l.002.002 5.488 3.21a.03.03 0 0 0 .014.004c.003 0 .008 0 .014-.004l5.444-3.21a.038.038 0 0 0 .015-.014.056.056 0 0 0 .006-.026.051.051 0 0 0-.005-.024Z" clip-rule="evenodd"/>
  <path fill-rule="evenodd" d="M12.9 9.744a.5.5 0 0 1 .685-.173l.386.23c.687.404.678 1.405.002 1.809l-5.445 3.245a1.02 1.02 0 0 1-1.047 0H7.48l-5.482-3.242-.002-.001c-.688-.404-.679-1.406-.003-1.81l.389-.231a.5.5 0 1 1 .512.858l-.388.232a.04.04 0 0 0-.016.016.066.066 0 0 0-.007.03c0 .014.004.024.007.03a.029.029 0 0 0 .012.012l.003.001 5.487 3.246.012.004c.002 0 .006 0 .012-.004l5.444-3.244a.041.041 0 0 0 .016-.017.068.068 0 0 0 .007-.03.062.062 0 0 0-.006-.03.03.03 0 0 0-.013-.012l-.004-.002-.388-.232a.5.5 0 0 1-.173-.685Z" clip-rule="evenodd"/>
  <path fill-rule="evenodd" d="M12.903 7.22a.5.5 0 0 1 .674-.214l.388.2a.964.964 0 0 1 .009 1.726l-5.43 2.898c-.3.155-.68.165-.997-.001L2.044 8.985a.964.964 0 0 1-.009-1.726l.389-.205a.5.5 0 1 1 .466.884l-.343.181 5.465 2.824a.092.092 0 0 0 .071-.001l5.38-2.87-.345-.178a.5.5 0 0 1-.215-.674Z" clip-rule="evenodd"/>
</svg>
