<svg xmlns="http://www.w3.org/2000/svg" width="16" height="16" fill="currentColor" viewBox="0 0 16 16">
  <path fill-rule="evenodd" d="M1 8C1 3.964 4.45.746 8.531 1.001c1.991.127 3.665 1.129 4.859 2.559.927 1.1 1.518 2.37 1.609 3.91.175 2.846-1.331 5.517-3.668 6.772-1.73.934-3.831-.319-3.831-2.286v-.504c-1.124-.22-2-1.17-2-2.346V8.48c-.56-.099-1-.576-1-1.174v-.114C4.5 6.522 5.056 6 5.712 6H6.5V4.5a.5.5 0 0 1 1 0V6h1V4.5a.5.5 0 0 1 1 0V6h.788c.656 0 1.212.522 1.212 1.193v.114c0 .598-.44 1.075-1 1.174v.625c0 1.176-.876 2.125-2 2.346v.504a1.597 1.597 0 0 0 2.356 1.406h.001c1.984-1.066 3.296-3.363 3.144-5.831V7.53c-.077-1.295-.567-2.366-1.376-3.326l-.002-.002C11.578 2.948 10.146 2.106 8.468 2 4.953 1.78 2 4.55 2 8c0 2.525 1.494 4.638 3.69 5.537a.5.5 0 0 1-.38.926C2.747 13.413 1 10.938 1 8Zm5.5 1.106c0 .743.647 1.394 1.5 1.394s1.5-.65 1.5-1.394V8.5h-3v.606ZM5.712 7c-.13 0-.212.1-.212.193v.114c0 .094.082.193.212.193h4.576c.13 0 .212-.1.212-.193v-.114c0-.094-.082-.193-.212-.193H5.712Z" clip-rule="evenodd"/>
</svg>
