<svg xmlns="http://www.w3.org/2000/svg" width="16" height="16" fill="currentColor" viewBox="0 0 16 16">
  <g clip-path="url(#a)">
    <path d="M2.65 8.5c.34 0 .653.185.822.484l1.15 2.032c.17.3.17.669 0 .968l-1.15 2.032a.947.947 0 0 1-.822.484H.35a.946.946 0 0 1-.822-.484l-1.15-2.032a.986.986 0 0 1 0-.968l1.15-2.032A.946.946 0 0 1 .349 8.5H2.65Zm-3.451 3 1.15 2.031H2.65L3.8 11.5 2.65 9.469H.35L-.802 11.5Zm13.201-6c.34 0 .653.185.822.484l1.15 2.032c.17.3.17.669 0 .968l-1.15 2.032a.947.947 0 0 1-.822.484h-2.3a.946.946 0 0 1-.822-.484l-1.15-2.032a.986.986 0 0 1 0-.968l1.15-2.032a.946.946 0 0 1 .821-.484H12.4Zm-3.451 3 1.15 2.031H12.4L13.55 8.5 12.4 6.469h-2.3L8.948 8.5ZM6.4 1.5c.34 0 .653.185.822.484l1.15 2.032c.17.3.17.669 0 .968l-1.15 2.032A.947.947 0 0 1 6.4 7.5H4.1a.946.946 0 0 1-.822-.484l-1.15-2.032a.986.986 0 0 1 0-.968l1.15-2.032a.946.946 0 0 1 .821-.484H6.4Zm-3.451 3 1.15 2.031H6.4L7.55 4.5 6.4 2.469H4.1L2.948 4.5Z"/>
  </g>
  <defs>
    <clipPath id="a">
      <path d="M0 0h16v16H0z"/>
    </clipPath>
  </defs>
</svg>
