<svg xmlns="http://www.w3.org/2000/svg" width="16" height="16" fill="currentColor" viewBox="0 0 16 16">
  <path fill-rule="evenodd" d="M13.32 3.086A26.54 26.54 0 0 1 8.431 1.08a.919.919 0 0 0-.884 0 26.397 26.397 0 0 1-4.883 2.012.944.944 0 0 0-.697.9v5.591c0 .763.345 1.456.812 2.048.468.594 1.09 1.126 1.721 1.577 1.263.904 2.638 1.541 3.119 1.752l.008.003a.944.944 0 0 0 .73 0l.009-.004c.478-.21 1.853-.847 3.116-1.75.631-.452 1.254-.984 1.723-1.578.467-.592.812-1.285.812-2.048V3.987c0-.442-.31-.784-.691-.899l-.006-.002ZM7.547 1.08a.95.95 0 0 1-.003.002l.243.437-.238-.44-.002.001Zm-4.58 2.965A27.414 27.414 0 0 0 7.99 1.977a27.57 27.57 0 0 0 5.027 2.063v5.542c0 .455-.207.934-.597 1.429-.389.492-.93.961-1.52 1.383-1.156.827-2.429 1.424-2.908 1.636-.48-.211-1.754-.808-2.91-1.636-.59-.422-1.13-.89-1.518-1.383-.39-.495-.597-.974-.597-1.429V4.044Zm5.736.407c-.243-.65-1.163-.65-1.405 0L6.66 6.156l-1.818.08c-.693.03-.977.904-.434 1.336l1.424 1.132-.486 1.754c-.186.669.558 1.209 1.136.826L8 10.28l1.518 1.004c.578.383 1.322-.157 1.136-.826l-.486-1.754 1.424-1.132c.543-.432.26-1.306-.434-1.337l-1.818-.08-.637-1.704Zm-1.164 2.21L8 5.428l.461 1.233a.75.75 0 0 0 .67.487l1.316.057-1.031.82a.75.75 0 0 0-.256.787l.352 1.27-1.098-.728a.75.75 0 0 0-.828 0l-1.098.727.352-1.269a.75.75 0 0 0-.256-.787l-1.03-.82 1.315-.057a.75.75 0 0 0 .67-.487Z" clip-rule="evenodd"/>
</svg>
