<svg xmlns="http://www.w3.org/2000/svg" width="16" height="16" fill="currentColor" viewBox="0 0 16 16">
  <path fill-rule="evenodd" d="M8.431 1.079a26.54 26.54 0 0 0 4.89 2.007l.005.002c.381.115.691.457.691.899v5.595c0 .763-.345 1.456-.812 2.048-.47.594-1.092 1.126-1.723 1.577-1.263.904-2.638 1.541-3.116 1.751l-.009.004a.943.943 0 0 1-.73 0l-.008-.003c-.481-.21-1.856-.848-3.119-1.752-.63-.451-1.253-.983-1.721-1.577-.467-.592-.812-1.285-.812-2.048v-5.59c0-.433.3-.789.697-.901.76-.225 2.742-.857 4.885-2.013l.238.44-.243-.437a.919.919 0 0 1 .887-.002Zm-.441.898a27.414 27.414 0 0 1-5.023 2.067v5.538c0 .455.207.934.597 1.429.388.492.928.961 1.518 1.383 1.156.828 2.43 1.425 2.91 1.636.48-.212 1.752-.809 2.908-1.636.59-.422 1.131-.89 1.52-1.383.39-.495.597-.974.597-1.429V4.04A27.571 27.571 0 0 1 7.99 1.977Z" clip-rule="evenodd"/>
  <path fill-rule="evenodd" d="M7.298 4.451c.242-.65 1.162-.65 1.405 0l.637 1.705 1.818.08c.693.03.977.904.434 1.335l-1.424 1.133.486 1.754c.186.669-.558 1.209-1.136.826L8 10.28l-1.518 1.004c-.578.383-1.322-.157-1.136-.826l.486-1.754-1.424-1.133c-.543-.431-.26-1.305.434-1.336l1.818-.08.638-1.704ZM8 5.428 7.539 6.66a.75.75 0 0 1-.67.487l-1.316.057 1.031.82a.75.75 0 0 1 .256.787l-.352 1.27 1.098-.728a.75.75 0 0 1 .828 0l1.098.727-.352-1.269a.75.75 0 0 1 .256-.787l1.03-.82-1.315-.057a.75.75 0 0 1-.67-.487L8 5.428Z" clip-rule="evenodd"/>
</svg>
