<svg xmlns="http://www.w3.org/2000/svg" width="16" height="16" fill="currentColor" viewBox="0 0 16 16">
  <path fill-rule="evenodd" d="M2.92 5a.917.917 0 0 0-.92.912v6.176c0 .5.41.912.92.912h10.16c.51 0 .92-.411.92-.912V5.912A.917.917 0 0 0 13.08 5H2.92ZM1 5.912C1 4.853 1.863 4 2.92 4h10.16C14.136 4 15 4.853 15 5.912v6.176A1.917 1.917 0 0 1 13.08 14H2.92A1.917 1.917 0 0 1 1 12.088V5.912Z" clip-rule="evenodd"/>
  <path fill-rule="evenodd" d="M7.333 3a.832.832 0 0 0-.833.833V4.5a.5.5 0 0 1-1 0v-.667C5.5 2.82 6.32 2 7.333 2h1.334C9.68 2 10.5 2.82 10.5 3.833V4.5a.5.5 0 0 1-1 0v-.667A.832.832 0 0 0 8.667 3H7.333ZM1.5 7a.5.5 0 0 1 .5.5C2 8.293 2.707 9 3.667 9h8.666C13.293 9 14 8.293 14 7.5a.5.5 0 0 1 1 0c0 1.42-1.233 2.5-2.667 2.5H3.667C2.233 10 1 8.92 1 7.5a.5.5 0 0 1 .5-.5Z" clip-rule="evenodd"/>
</svg>
