<svg xmlns="http://www.w3.org/2000/svg" width="16" height="16" fill="currentColor" viewBox="0 0 16 16">
  <path fill-rule="evenodd" d="M7.333 3a.832.832 0 0 0-.833.833V4h3v-.167A.832.832 0 0 0 8.667 3H7.333ZM5.5 3.833V4H2.92C1.864 4 1 4.853 1 5.912v6.176C1 13.147 1.863 14 2.92 14h10.16c1.057 0 1.92-.853 1.92-1.912V5.912A1.917 1.917 0 0 0 13.08 4H10.5v-.167C10.5 2.82 9.68 2 8.667 2H7.333C6.32 2 5.5 2.82 5.5 3.833ZM14 7.5V5.912A.917.917 0 0 0 13.08 5H2.92a.917.917 0 0 0-.92.912V7.5C2 8.293 2.707 9 3.667 9h8.666C13.293 9 14 8.293 14 7.5ZM2 9.452A2.787 2.787 0 0 0 3.667 10h8.666A2.79 2.79 0 0 0 14 9.452v2.636c0 .5-.41.912-.92.912H2.92a.917.917 0 0 1-.92-.912V9.452Z" clip-rule="evenodd"/>
</svg>
