<svg xmlns="http://www.w3.org/2000/svg" width="16" height="16" fill="none" viewBox="0 0 16 16">
  <path fill="#3D3C3C" fill-rule="evenodd" d="M3 2.748A.74.74 0 0 1 3.721 2h8.058a.74.74 0 0 1 .721.748V6.5a.5.5 0 0 0 1 0V2.748C13.5 1.796 12.736 1 11.779 1H3.72C2.764 1 2 1.796 2 2.748V4h-.5a.5.5 0 0 0 0 1h2a.5.5 0 0 0 0-1H3V2.748Zm0 10.227a.5.5 0 1 0-1 0v.277C2 14.204 2.764 15 3.721 15H6.5a.5.5 0 0 0 0-1H3.721A.74.74 0 0 1 3 13.252v-.277ZM1.5 7.5a.5.5 0 0 0 0 1h2a.5.5 0 0 0 0-1H3V6a.5.5 0 0 0-1 0v1.5h-.5Zm0 3.5a.5.5 0 0 0 0 1h2a.5.5 0 0 0 0-1H3V9.5a.5.5 0 0 0-1 0V11h-.5Zm6.5.5a3.5 3.5 0 1 1 7 0 3.5 3.5 0 0 1-7 0ZM11.5 9a2.5 2.5 0 1 0 0 5 2.5 2.5 0 0 0 0-5Zm1.41 1.787a.5.5 0 1 0-.82-.574l-.99 1.414-.19-.271a.5.5 0 1 0-.82.571l.598.859a.5.5 0 0 0 .82.001l1.401-2Z" clip-rule="evenodd"/>
</svg>
