<svg xmlns="http://www.w3.org/2000/svg" width="16" height="16" fill="none" viewBox="0 0 16 16">
  <path fill="#3D3C3C" fill-rule="evenodd" d="M3.5 2.748A.74.74 0 0 1 4.221 2h8.058a.74.74 0 0 1 .721.748V6.5a.5.5 0 0 0 1 0V2.748C14 1.796 13.236 1 12.279 1H4.22c-.956 0-1.72.796-1.72 1.748V4H2a.5.5 0 0 0 0 1h2a.5.5 0 0 0 0-1h-.5V2.748Zm0 10.227a.5.5 0 1 0-1 0v.277c0 .952.764 1.748 1.721 1.748H7.5a.5.5 0 0 0 0-1H4.221a.74.74 0 0 1-.721-.748v-.277Zm0-3.475a.5.5 0 0 0-1 0V11H2a.5.5 0 0 0 0 1h2a.5.5 0 0 0 0-1h-.5V9.5ZM2 7.5a.5.5 0 0 0 0 1h2a.5.5 0 0 0 0-1h-.5V6a.5.5 0 0 0-1 0v1.5H2ZM12 9c-.513 0-1 .467-1 1.129v.396a19.673 19.673 0 0 1 2 0v-.396c0-.322-.121-.606-.31-.815A.931.931 0 0 0 12 9Zm1.986 1.618A.505.505 0 0 0 14 10.5v-.371c0-.582-.222-1.103-.57-1.488l-.004-.003A1.93 1.93 0 0 0 12 8c-1.14 0-2 .994-2 2.129v.371c0 .04.005.08.014.118a.712.712 0 0 0-.514.685v2.894c0 .341.244.655.609.704l.01.002c1.12.13 2.647.13 3.763 0l.012-.002a.71.71 0 0 0 .606-.704v-2.894a.709.709 0 0 0-.514-.685ZM10.5 13.937v-2.374a17.815 17.815 0 0 1 3 0v2.374c-.919.084-2.078.084-3 0Z" clip-rule="evenodd"/>
</svg>
