<svg xmlns="http://www.w3.org/2000/svg" width="16" height="16" fill="none" viewBox="0 0 16 16">
  <path fill="#3D3C3C" fill-rule="evenodd" d="M4.688 5.65C4.79 3.89 6.237 2.5 8 2.5c1.398 0 2.596.873 3.083 2.109-.305.092-.567.23-.79.394a.5.5 0 1 0 .59.807c.247-.18.58-.323 1.064-.323.492 0 1.004.25 1.404.682.397.432.649 1.01.649 1.6 0 .84-.19 1.53-.523 1.997-.319.445-.792.72-1.477.72a.5.5 0 1 0 0 1c1.004 0 1.781-.428 2.29-1.138.494-.69.71-1.608.71-2.578 0-.87-.366-1.684-.915-2.279-.512-.555-1.215-.952-1.982-1A4.32 4.32 0 0 0 8 1.5c-2.274 0-4.13 1.767-4.304 4.006-.291 0-.563.054-.828.16A2.987 2.987 0 0 0 1 8.416c0 1.663 1.312 3.07 3.002 3.07a.5.5 0 0 0 0-1C2.898 10.487 2 9.562 2 8.417c0-.776.485-1.518 1.241-1.822.239-.096.5-.125.891-.03a.501.501 0 0 0 .027.005l.36.067a.5.5 0 1 0 .182-.983l-.013-.003ZM6.5 11.063v2.374c.922.084 2.081.084 3 0v-2.374a17.815 17.815 0 0 0-3 0Zm3.486-.945A.501.501 0 0 0 10 10v-.372c0-.581-.222-1.102-.57-1.487l-.004-.003A1.93 1.93 0 0 0 8 7.5c-1.14 0-2 .994-2 2.128V10c0 .04.005.08.014.118a.712.712 0 0 0-.514.685v2.894c0 .341.244.655.609.704l.01.002c1.12.13 2.647.13 3.763 0l.012-.002a.71.71 0 0 0 .606-.704v-2.894a.709.709 0 0 0-.514-.685Zm-.985-.093A.51.51 0 0 1 9 10v-.372c0-.321-.121-.605-.31-.814A.931.931 0 0 0 8 8.5c-.513 0-1 .467-1 1.128V10a.51.51 0 0 1 0 .025 19.683 19.683 0 0 1 2 0Z" clip-rule="evenodd"/>
</svg>
