<svg xmlns="http://www.w3.org/2000/svg" width="16" height="16" fill="currentColor" viewBox="0 0 16 16">
  <path fill-rule="evenodd" d="M2 8a.5.5 0 0 1 .5-.5h2a.5.5 0 0 1 0 1h-2A.5.5 0 0 1 2 8Z" clip-rule="evenodd"/>
  <path fill-rule="evenodd" d="M3.5 5.5A.5.5 0 0 1 4 6v2a.5.5 0 0 1-1 0V6a.5.5 0 0 1 .5-.5ZM2 4.5a.5.5 0 0 1 .5-.5h2a.5.5 0 0 1 0 1h-2a.5.5 0 0 1-.5-.5Zm0 7a.5.5 0 0 1 .5-.5h2a.5.5 0 0 1 0 1h-2a.5.5 0 0 1-.5-.5Z" clip-rule="evenodd"/>
  <path fill-rule="evenodd" d="M3.5 9a.5.5 0 0 1 .5.5V11a.5.5 0 0 1-1 0V9.5a.5.5 0 0 1 .5-.5Zm2-2.5A.5.5 0 0 1 6 6h1.5a.5.5 0 0 1 0 1H6a.5.5 0 0 1-.5-.5Zm0 4.5a.5.5 0 0 1 .5-.5h1.5a.5.5 0 0 1 0 1H6a.5.5 0 0 1-.5-.5Zm0-1.5A.5.5 0 0 1 6 9h1.5a.5.5 0 0 1 0 1H6a.5.5 0 0 1-.5-.5Zm0-4.5a.5.5 0 0 1 .5-.5h1.5a.5.5 0 0 1 0 1H6a.5.5 0 0 1-.5-.5Z" clip-rule="evenodd"/>
  <path fill-rule="evenodd" d="M4.721 2A.74.74 0 0 0 4 2.748v1.669a.5.5 0 0 1-1 0V2.748C3 1.796 3.764 1 4.721 1h8.058c.957 0 1.721.796 1.721 1.748v10.504c0 .952-.764 1.748-1.721 1.748H4.72C3.764 15 3 14.204 3 13.252v-.277a.5.5 0 1 1 1 0v.277c0 .42.336.748.721.748h8.058a.74.74 0 0 0 .721-.748V2.748A.74.74 0 0 0 12.779 2H4.72Z" clip-rule="evenodd"/>
  <path fill-rule="evenodd" d="M9.533 4.5a.033.033 0 0 0-.033.033v1.934c0 .018.015.033.033.033h1.934a.033.033 0 0 0 .033-.033V4.533a.033.033 0 0 0-.033-.033H9.533ZM8.5 4.533c0-.57.462-1.033 1.033-1.033h1.934c.57 0 1.033.462 1.033 1.033v1.934c0 .57-.463 1.033-1.033 1.033H9.533c-.57 0-1.033-.462-1.033-1.033V4.533ZM9.533 9.5a.033.033 0 0 0-.033.033v1.934c0 .018.015.033.033.033h1.934a.033.033 0 0 0 .033-.033V9.533a.033.033 0 0 0-.033-.033H9.533ZM8.5 9.533c0-.57.462-1.033 1.033-1.033h1.934c.57 0 1.033.462 1.033 1.033v1.934c0 .57-.463 1.033-1.033 1.033H9.533c-.57 0-1.033-.463-1.033-1.033V9.533Z" clip-rule="evenodd"/>
</svg>
