<svg xmlns="http://www.w3.org/2000/svg" width="16" height="16" fill="currentColor" viewBox="0 0 16 16">
  <path fill-rule="evenodd" d="M2.272 3.47a.3.3 0 0 0-.308.293v2.974a.3.3 0 0 0 .308.292h.978c.266 0 .482.218.482.486A.484.484 0 0 1 3.25 8h-.978A1.268 1.268 0 0 1 1 6.737V3.763C1 3.055 1.58 2.5 2.272 2.5h2.746c.266 0 .482.217.482.485a.484.484 0 0 1-.482.486H2.272Z" clip-rule="evenodd"/>
  <path fill-rule="evenodd" d="M2.528 6.178a.59.59 0 0 1 .748.017l1.087.987a.413.413 0 0 1 0 .63l-1.087.987a.59.59 0 0 1-.748.017.414.414 0 0 1-.02-.645l.742-.674-.741-.674a.414.414 0 0 1 .02-.645Zm11.19 2.292c.144 0 .282.12.282.293v2.974a.288.288 0 0 1-.282.292h-.968c-.276 0-.5.218-.5.486s.224.485.5.485h.968c.719 0 1.282-.576 1.282-1.263V8.763c0-.687-.563-1.263-1.282-1.263H11c-.276 0-.5.217-.5.485s.224.486.5.486h2.718Z" clip-rule="evenodd"/>
  <path fill-rule="evenodd" d="M13.45 11.162a.566.566 0 0 0-.744.017l-1.054 1.003a.444.444 0 0 0 0 .656l1.054 1.004c.2.19.533.198.744.017a.445.445 0 0 0 .019-.673l-.71-.676.71-.675a.445.445 0 0 0-.02-.673ZM5 2a1 1 0 0 1 1-1h4a1 1 0 0 1 1 1v2a1 1 0 0 1-1 1H6a1 1 0 0 1-1-1V2Zm5 0H6v2h4V2ZM5 7a1 1 0 0 1 1-1h4a1 1 0 0 1 1 1v2a1 1 0 0 1-1 1H6a1 1 0 0 1-1-1V7Zm5 0H6v2h4V7Zm-5 5a1 1 0 0 1 1-1h4a1 1 0 0 1 1 1v2a1 1 0 0 1-1 1H6a1 1 0 0 1-1-1v-2Zm5 0H6v2h4v-2Z" clip-rule="evenodd"/>
</svg>
