<svg xmlns="http://www.w3.org/2000/svg" width="16" height="16" fill="currentColor" viewBox="0 0 16 16">
  <path fill-rule="evenodd" d="M6 1a1 1 0 0 0-1 1v.5H2.272C1.581 2.5 1 3.055 1 3.763v2.974C1 7.445 1.58 8 2.272 8h.425l-.188.17a.414.414 0 0 0 .02.646.59.59 0 0 0 .747-.017l1.087-.988a.413.413 0 0 0 0-.629l-1.087-.987a.59.59 0 0 0-.748-.017.414.414 0 0 0-.02.645l.228.206h-.464a.3.3 0 0 1-.308-.292V3.763a.3.3 0 0 1 .308-.292H5V4a1 1 0 0 0 1 1h4a1 1 0 0 0 1-1V2a1 1 0 0 0-1-1H6Zm0 1h4v2H6V2Zm8 6.763a.288.288 0 0 0-.282-.292H11V9a1 1 0 0 1-1 1H6a1 1 0 0 1-1-1V7a1 1 0 0 1 1-1h4a1 1 0 0 1 1 1v.5h2.718c.719 0 1.282.576 1.282 1.263v2.974c0 .687-.563 1.263-1.282 1.263h-.445l.196.186c.2.191.192.492-.02.673a.566.566 0 0 1-.743-.017l-1.054-1.004a.444.444 0 0 1 0-.655l1.054-1.004c.2-.19.533-.199.744-.017.21.18.22.482.019.673l-.205.194h.454c.144 0 .282-.12.282-.292V8.763ZM10 7H6v2h4V7Zm-4 4a1 1 0 0 0-1 1v2a1 1 0 0 0 1 1h4a1 1 0 0 0 1-1v-2a1 1 0 0 0-1-1H6Zm0 1h4v2H6v-2Z" clip-rule="evenodd"/>
</svg>
