<svg xmlns="http://www.w3.org/2000/svg" width="16" height="16" fill="currentColor" viewBox="0 0 16 16">
  <path fill-rule="evenodd" d="M10 11a1 1 0 0 1 1 1v2a1 1 0 0 1-1 1H6a1 1 0 0 1-.995-.898L5 14v-2a1 1 0 0 1 1-1h4Zm-4 3h4v-2H6v2Z" clip-rule="evenodd"/>
  <path fill-rule="evenodd" d="M10 6a1 1 0 0 1 1 1v.5h2.718c.75 0 1.282.653 1.282 1.358v3.284c0 .705-.532 1.358-1.282 1.358h-.511l.146.146a.5.5 0 1 1-.707.707l-1-1a.5.5 0 0 1 0-.707l1-1 .039-.034a.5.5 0 0 1 .703.703l-.034.039-.147.146h.511c.113 0 .282-.116.282-.358V8.858c0-.242-.17-.358-.282-.358H11V9a1 1 0 0 1-1 1H6a1 1 0 0 1-.995-.898L5 9V7a1 1 0 0 1 1-1h4ZM6 9h4V7H6v2Z" clip-rule="evenodd"/>
  <path fill-rule="evenodd" d="M10 1a1 1 0 0 1 1 1v2a1 1 0 0 1-1 1H6a1 1 0 0 1-.995-.898L5 4v-.5H2.282c-.113 0-.282.116-.282.358v3.284c0 .242.17.358.282.358h.511l-.147-.146-.034-.039a.5.5 0 0 1 .703-.703l.039.034 1 1a.5.5 0 0 1 0 .708l-1 1a.5.5 0 1 1-.708-.708l.147-.146h-.511C1.532 8.5 1 7.847 1 7.142V3.858C1 3.153 1.532 2.5 2.282 2.5H5V2a1 1 0 0 1 1-1h4ZM6 4h4V2H6v2Z" clip-rule="evenodd"/>
</svg>
