<svg xmlns="http://www.w3.org/2000/svg" width="16" height="16" fill="currentColor" viewBox="0 0 16 16">
  <path d="M11.5 8a3.5 3.5 0 1 1 0 7 3.5 3.5 0 0 1 0-7ZM1.85 9.567a.5.5 0 1 1 .5.866l-.336.194 5.006 2.871a.522.522 0 0 1 .067-.032l.243-.092a.5.5 0 0 1 .355.936l-.215.08a.99.99 0 0 1-.948-.024l-5.027-2.883h.001a.986.986 0 0 1-.002-1.71l.356-.206ZM11.5 9a2.5 2.5 0 1 0 0 5 2.5 2.5 0 0 0 0-5Zm.707 1.085a.5.5 0 0 1 .707.708l-.707.706.707.708a.5.5 0 0 1-.707.707l-.707-.707-.707.707a.5.5 0 0 1-.707-.707l.706-.708-.706-.706a.501.501 0 0 1 .707-.708l.707.707.707-.707ZM1.867 6.61a.5.5 0 1 1 .49.871l-.334.188 5.132 2.829a.5.5 0 1 1-.483.875L1.51 8.528a.978.978 0 0 1-.01-1.714l.365-.204Zm4.73-5.53a.973.973 0 0 1 .885.06v-.001l4.979 2.965a.515.515 0 0 1 .049.025c.657.387.648 1.347.004 1.735h-.001L7.523 8.86a.974.974 0 0 1-1.005.001L1.489 5.865l-.115-.079a1.017 1.017 0 0 1 .113-1.655L6.48 1.14l.119-.06ZM2.003 4.986 2 5l.001.007 5.018 2.99 4.979-2.99.002-.01v-.003l-5.019-2.99-4.979 2.984Z"/>
</svg>
