<svg xmlns="http://www.w3.org/2000/svg" width="16" height="16" fill="currentColor" viewBox="0 0 16 16">
  <path fill-rule="evenodd" d="M4.702 12.875c.135.08.295.125.45.125h.005a.88.88 0 0 0 .76-.46l.445-.81c.215.03.43.045.64.045.22 0 .33-.019.47-.043l.01-.002.1-.02a.502.502 0 0 0 .41-.574.496.496 0 0 0-.574-.41l-.11.02c-.13.025-.17.03-.31.03-.19 0-.386-.015-.57-.045a.87.87 0 0 0-.906.445l-.425.77-1.22-.74.444-.81a.92.92 0 0 0-.075-.99 4.026 4.026 0 0 1-.585-1.065.867.867 0 0 0-.82-.584h-.85v-1.52h.85c.36 0 .69-.235.815-.58.14-.395.34-.754.59-1.074a.904.904 0 0 0 .07-.985l-.445-.81 1.22-.74.426.77a.87.87 0 0 0 .9.445 3.55 3.55 0 0 1 1.15 0 .863.863 0 0 0 .906-.445l.425-.77 1.22.74-.444.81c-.17.315-.14.71.075.99.25.325.445.684.585 1.064.12.35.45.585.82.585h.796l-.18.62a.497.497 0 0 0 .34.62.497.497 0 0 0 .62-.34l.25-.865.02-.14a.884.884 0 0 0-.875-.895h-.88a4.907 4.907 0 0 0-.666-1.21l.46-.834a.908.908 0 0 0-.315-1.21l-1.426-.86a.872.872 0 0 0-.67-.094.88.88 0 0 0-.54.43l-.445.81a4.579 4.579 0 0 0-1.28 0l-.446-.81a.882.882 0 0 0-.54-.425.854.854 0 0 0-.67.095l-1.431.87a.91.91 0 0 0-.315 1.204l.46.835c-.275.365-.5.77-.665 1.21h-.88c-.48 0-.876.4-.876.894v1.725c0 .494.39.894.875.894h.88c.166.435.39.84.666 1.21l-.46.835a.908.908 0 0 0 .315 1.21l1.426.859Zm2.556-7.354a1.5 1.5 0 1 0 1.22 1.221 1.5 1.5 0 0 0-1.22-1.22ZM4.534 7.42A2.5 2.5 0 1 1 6.58 9.465 2.5 2.5 0 0 1 4.533 7.42Zm8.832.74a.5.5 0 1 0-.732.681l.613.66H10a.5.5 0 0 0 0 1h3.345l-.684.633a.5.5 0 1 0 .678.734l1.5-1.384a.5.5 0 0 0 .027-.708l-1.5-1.615Zm-2.526 6.707a.5.5 0 0 1-.706-.026l-1.5-1.615a.5.5 0 0 1 .027-.708l1.5-1.384a.5.5 0 1 1 .678.734l-.684.632 3.345.001a.5.5 0 0 1 0 1h-3.247l.613.66a.5.5 0 0 1-.026.706Z" clip-rule="evenodd"/>
</svg>
