<svg xmlns="http://www.w3.org/2000/svg" width="17" height="16" fill="currentColor" viewBox="0 0 17 16">
  <path d="M5.546 2a.5.5 0 0 1 0 1h-.75a1.5 1.5 0 0 0-1.5 1.5v7a1.5 1.5 0 0 0 1.5 1.5h7a1.5 1.5 0 0 0 1.5-1.5v-7a1.5 1.5 0 0 0-1.5-1.5h-.75a.5.5 0 0 1 0-1h.75a2.5 2.5 0 0 1 2.5 2.5v7a2.5 2.5 0 0 1-2.5 2.5h-7a2.5 2.5 0 0 1-2.5-2.5v-7a2.5 2.5 0 0 1 2.5-2.5h.75Zm4.802 9.003a.5.5 0 0 1 0 .995l-.052.002h-4a.5.5 0 0 1 0-1h4l.052.003Zm.948-1.503a.5.5 0 1 1 0 1h-6a.5.5 0 0 1 0-1h6ZM8.344 2.005l.038.004c.017.003.033.008.05.012.013.004.027.007.04.012a.495.495 0 0 1 .126.07l.016.01.005.007a.49.49 0 0 1 .027.025l.004.001 2.5 2.5a.5.5 0 0 1-.707.708L8.796 3.708V8a.5.5 0 0 1-1 0V3.707L6.15 5.354l-.038.034a.5.5 0 0 1-.704-.703l.035-.039 2.5-2.5.037-.033.04-.028.017-.012a.498.498 0 0 1 .059-.029c.008-.004.015-.008.023-.01.016-.007.032-.01.048-.014.014-.004.027-.009.041-.011A.498.498 0 0 1 8.296 2v.001L8.297 2c.016 0 .032.003.047.005Z"/>
</svg>
