<svg xmlns="http://www.w3.org/2000/svg" width="16" height="16" fill="currentColor" viewBox="0 0 16 16">
  <path d="M8 1c.555 0 1.096.065 1.615.188a.5.5 0 0 1-.23.973 6 6 0 1 0 4.454 4.454.5.5 0 1 1 .974-.23A7 7 0 1 1 8 1Zm.128 10c.206 0 .372.155.372.345v.31c0 .19-.166.345-.372.345h-.256c-.206 0-.372-.155-.372-.345v-.31c0-.19.166-.345.372-.345h.256ZM6 6.036c0-1.154.96-2.113 2.143-2.031.99.07 1.786.884 1.852 1.885l.005.144c0 .721-.374 1.362-.938 1.72l-.125.092a1.204 1.204 0 0 0-.439.931V9.5a.5.5 0 0 1-1 0v-.723c0-.764.39-1.462 1.027-1.866l.055-.038c.27-.199.444-.537.417-.915v-.002a1.022 1.022 0 0 0-.926-.954C7.497 4.962 7 5.432 7 6.036a.5.5 0 0 1-1 0ZM12.5 1a2.5 2.5 0 1 1-.002 5.002A2.5 2.5 0 0 1 12.5 1Z"/>
</svg>
