<svg xmlns="http://www.w3.org/2000/svg" width="16" height="16" fill="currentColor" viewBox="0 0 16 16">
  <path fill-rule="evenodd" d="M14 8A6 6 0 1 1 2 8a6 6 0 0 1 12 0Zm1 0A7 7 0 1 1 1 8a7 7 0 0 1 14 0ZM8.072 5.002C7.497 4.962 7 5.432 7 6.036a.5.5 0 0 1-1 0c0-1.154.959-2.113 2.141-2.031h.001c.991.07 1.786.883 1.853 1.883a2.04 2.04 0 0 1-.934 1.867c-.35.222-.563.603-.563 1.023V9.5a.5.5 0 0 1-1 0v-.722c0-.765.39-1.463 1.027-1.867l-.453-1.909Zm0 0c.481.035.891.44.925.954v.002a1.04 1.04 0 0 1-.472.953l-.453-1.909Zm.428 6.343c0-.19-.166-.345-.372-.345h-.256c-.206 0-.372.155-.372.345v.31c0 .19.166.345.372.345h.256c.206 0 .372-.155.372-.345v-.31Z" clip-rule="evenodd"/>
</svg>
