<svg xmlns="http://www.w3.org/2000/svg" width="16" height="16" fill="currentColor" viewBox="0 0 16 16">
  <path d="M11.5 8a3.5 3.5 0 1 1 0 7 3.5 3.5 0 0 1 0-7Zm0 1a2.5 2.5 0 1 0 0 5 2.5 2.5 0 0 0 0-5Zm.707 1.086a.5.5 0 0 1 .707.707l-.707.707.707.707a.5.5 0 0 1-.707.707l-.707-.707-.707.707a.5.5 0 0 1-.707-.707l.707-.707-.707-.707a.5.5 0 0 1 .707-.707l.707.707.707-.707ZM12.215 1C13.468 1 14.5 2 14.5 3.252V7a.5.5 0 0 1-1 0V3.252C13.5 2.57 12.934 2 12.215 2H3.286C2.566 2 2 2.57 2 3.252v5.693c0 .341.13.59.33.76.208.177.523.295.92.295H4a.5.5 0 0 1 .5.5v1.433l2.18-1.817a.501.501 0 0 1 .64.769L5 12.818a.517.517 0 0 1-.045.034c-.353.233-.745.153-1.003-.02A1.016 1.016 0 0 1 3.5 12v-1h-.25c-.59 0-1.149-.176-1.57-.534A1.958 1.958 0 0 1 1 8.946V3.251C1 2 2.033 1 3.286 1h8.929Z"/>
</svg>
