<svg xmlns="http://www.w3.org/2000/svg" width="16" height="16" fill="currentColor" viewBox="0 0 16 16">
  <path d="M9.01 15c-.265 0-.52-.105-.71-.295a.991.991 0 0 1-.265-.96H8.03l.305-1.215c.02-.09.07-.17.13-.23l3.83-3.84a1.59 1.59 0 0 1 2.24 0c.62.62.62 1.62 0 2.24l-3.83 3.83a.484.484 0 0 1-.23.13l-1.215.305c-.085.02-.165.03-.25.03V15ZM9 13.985v.005l1.1-.265 3.73-3.73a.589.589 0 0 0 0-.825.58.58 0 0 0-.825 0L9.27 12.905 9 13.985Z"/>
  <path fill-rule="evenodd" d="M2 2.87C2 1.825 2.862 1 3.901 1H9.5l.35.142 3.5 3.421.15.358V6.75a.5.5 0 0 1-1 0V5.131L9.296 2H3.901C3.392 2 3 2.4 3 2.87v10.26c0 .47.392.87.9.87h2.6a.5.5 0 0 1 0 1H3.901C2.861 15 2 14.174 2 13.13V2.87Z" clip-rule="evenodd"/>
  <path fill-rule="evenodd" d="M9.5 1a.5.5 0 0 1 .5.5v2.801a.2.2 0 0 0 .199.199H13a.5.5 0 0 1 0 1h-2.801A1.2 1.2 0 0 1 9 4.301V1.5a.5.5 0 0 1 .5-.5ZM4 4a.5.5 0 0 1 .5-.5h3a.5.5 0 0 1 0 1h-3A.5.5 0 0 1 4 4Zm0 2a.5.5 0 0 1 .5-.5h3a.5.5 0 0 1 0 1h-3A.5.5 0 0 1 4 6Zm0 2a.5.5 0 0 1 .5-.5h1.75a.5.5 0 0 1 0 1H4.5A.5.5 0 0 1 4 8Z" clip-rule="evenodd"/>
</svg>
