<svg xmlns="http://www.w3.org/2000/svg" width="16" height="16" fill="currentColor" viewBox="0 0 16 16">
  <path fill-rule="evenodd" d="M3.901 1C2.861 1 2 1.826 2 2.87v10.26C2 14.175 2.862 15 3.901 15H6.5a.5.5 0 0 0 0-1H3.901A.885.885 0 0 1 3 13.13V2.87c0-.47.392-.87.9-.87H9v2.301A1.2 1.2 0 0 0 10.199 5.5H12.5v1.25a.5.5 0 0 0 1 0V4.92l-.011-.026a.499.499 0 0 0-.071-.169l-.068-.162-3.5-3.42A.498.498 0 0 0 9.5 1H3.9ZM10 4.301V2.688L11.854 4.5H10.2a.2.2 0 0 1-.2-.199Z" clip-rule="evenodd"/>
  <path fill-rule="evenodd" d="M8.298 14.705c.19.19.445.295.71.295v-.005c.085 0 .165-.01.25-.03l1.215-.305a.484.484 0 0 0 .23-.13l3.832-3.83a1.58 1.58 0 0 0 0-2.239 1.592 1.592 0 0 0-2.241 0l-3.831 3.84c-.06.06-.11.14-.13.23l-.306 1.214h.005a.99.99 0 0 0 .266.96Zm.7-.715v-.005l.27-1.08 3.736-3.734a.58.58 0 0 1 .826 0c.225.23.225.6 0 .825l-3.732 3.73-1.1.264Z" clip-rule="evenodd"/>
  <path d="M4.5 3.5a.5.5 0 0 0 0 1h3a.5.5 0 0 0 0-1h-3Zm0 2a.5.5 0 0 0 0 1h3a.5.5 0 0 0 0-1h-3Zm0 2a.5.5 0 0 0 0 1h1.75a.5.5 0 0 0 0-1H4.5Z"/>
</svg>
