<svg xmlns="http://www.w3.org/2000/svg" width="16" height="16" fill="currentColor" viewBox="0 0 16 16">
  <path fill-rule="evenodd" d="m7.711 2.663-1.619 3.01a.5.5 0 0 1-.36.256l-3.46.553H2.27c-.278.046-.339.339-.18.494-.001 0 0 0 0 0l2.467 2.407a.5.5 0 0 1 .145.435l-.524 3.343v.002c-.033.206.201.43.462.303l3.147-1.517a.5.5 0 0 1 .434 0l3.144 1.516c.26.123.496-.099.465-.305l-.524-3.342a.5.5 0 0 1 .144-.435l2.459-2.402c.162-.158.093-.451-.178-.494h-.001l-3.462-.554a.5.5 0 0 1-.361-.256L8.307 2.7a.5.5 0 0 1-.023-.037c-.117-.217-.455-.217-.573 0Zm1.43-.515c-.512-.877-1.821-.864-2.309.04L5.329 4.98l-3.217.515H2.11c-1.039.17-1.498 1.434-.719 2.196L3.676 9.92l-.484 3.086c-.17 1.071.959 1.81 1.886 1.361l2.928-1.411 2.929 1.412h.002c.927.443 2.046-.297 1.883-1.36l-.485-3.089 2.275-2.222c.776-.76.325-2.032-.721-2.197l-3.217-.514L9.17 2.193a.498.498 0 0 0-.028-.045Z" clip-rule="evenodd"/>
</svg>
