<svg xmlns="http://www.w3.org/2000/svg" width="16" height="16" fill="none" viewBox="0 0 16 16">
  <path fill="#3D3C3C" fill-rule="evenodd" d="M4.883 2.322a.5.5 0 1 0-.766-.644c-.415.494-.832.989-1.25 1.483l-1.25 1.485a.5.5 0 0 0-.003.639l1.25 1.517c.418.505.834 1.01 1.25 1.515a.5.5 0 0 0 .772-.634c-.416-.507-.833-1.013-1.25-1.518l-.55-.665h7.201c.314 0 .609.033.881.119 1.78.56 2.977 2.378 2.818 4.257-.144 1.64-1.287 3.05-2.837 3.512h-.003a2.893 2.893 0 0 1-.837.112H2a.5.5 0 0 0 0 1h8.31c.365 0 .75-.04 1.126-.154 1.949-.582 3.368-2.341 3.546-4.383V9.96c.198-2.334-1.275-4.592-3.514-5.296a3.92 3.92 0 0 0-1.181-.165h-7.24l.585-.694 1.25-1.484Z" clip-rule="evenodd"/>
</svg>
