<svg xmlns="http://www.w3.org/2000/svg" width="16" height="16" fill="currentColor" viewBox="0 0 16 16">
  <path fill-rule="evenodd" d="M11.126 2.832a.5.5 0 1 1 .748-.664l2 2.25a.5.5 0 0 1 0 .664l-2 2.25a.5.5 0 0 1-.748-.664l1.26-1.418H6.5c-.41 0-.795.124-1.09.224-1.504.508-2.54 2.317-2.398 4.132.127 1.557 1.136 2.867 2.464 3.292h-.001.003a.918.918 0 0 0 .075.013c.06.008.138.016.23.023.185.015.41.028.63.038a38.422 38.422 0 0 0 .778.027h.052l.012.001H13.5a.5.5 0 0 1 0 1H7.22l-.054-.002a43.142 43.142 0 0 1-.797-.027c-.226-.01-.465-.023-.668-.04a2.733 2.733 0 0 1-.531-.08c-1.752-.562-2.998-2.245-3.154-4.165-.171-2.166 1.042-4.474 3.074-5.16.294-.099.82-.276 1.41-.276h5.887l-1.26-1.418Z" clip-rule="evenodd"/>
</svg>
