<svg xmlns="http://www.w3.org/2000/svg" width="16" height="16" fill="currentColor" viewBox="0 0 16 16">
  <path fill-rule="evenodd" d="M11.069 3.52a.503.503 0 0 1-.084.006L7.51 3.503V7.5h3.553A2.004 2.004 0 0 1 13 6c1.103 0 2 .897 2 2s-.897 2-2 2c-.93 0-1.714-.638-1.937-1.5H7.51v4h3.498c.018 0 .037.001.055.003A2.004 2.004 0 0 1 13 11c1.103 0 2 .897 2 2s-.897 2-2 2c-.931 0-1.716-.64-1.938-1.503a.493.493 0 0 1-.054.003H7a.5.5 0 0 1-.49-.598V8.5H4.937A2.004 2.004 0 0 1 3 10c-1.103 0-2-.897-2-2s.897-2 2-2c.93 0 1.714.638 1.937 1.5H6.51V3.098a.502.502 0 0 1 .493-.598h.019l3.97.026c.021 0 .043.002.064.004A2.004 2.004 0 0 1 13 1c1.103 0 2 .897 2 2s-.897 2-2 2a2.004 2.004 0 0 1-1.931-1.48ZM12 3c0-.55.45-1 1-1s1 .45 1 1-.45 1-1 1-1-.45-1-1ZM2 8c0-.55.45-1 1-1s1 .45 1 1-.45 1-1 1-1-.45-1-1Zm11-1c-.55 0-1 .45-1 1s.45 1 1 1 1-.45 1-1-.45-1-1-1Zm-1 6c0-.55.45-1 1-1s1 .45 1 1-.45 1-1 1-1-.45-1-1Z" clip-rule="evenodd"/>
</svg>
