<svg xmlns="http://www.w3.org/2000/svg" width="16" height="16" fill="currentColor" viewBox="0 0 16 16">
  <path fill-rule="evenodd" d="M1 8c0-1.103.897-2 2-2s2 .897 2 2-.897 2-2 2-2-.897-2-2Zm2-1c-.55 0-1 .45-1 1s.45 1 1 1 1-.45 1-1-.45-1-1-1Z" clip-rule="evenodd"/>
  <path fill-rule="evenodd" d="M4.022 8a.5.5 0 0 1 .5-.5h6.974a.5.5 0 0 1 0 1H4.522a.5.5 0 0 1-.5-.5ZM6.5 2.997a.5.5 0 0 1 .503-.497l3.989.026a.5.5 0 0 1-.007 1L6.997 3.5a.5.5 0 0 1-.497-.503ZM6.5 13a.5.5 0 0 1 .5-.5h4.008a.5.5 0 0 1 0 1H7a.5.5 0 0 1-.5-.5Z" clip-rule="evenodd"/>
  <path fill-rule="evenodd" d="M11 8c0-1.103.897-2 2-2s2 .897 2 2-.897 2-2 2-2-.897-2-2Zm2-1c-.55 0-1 .45-1 1s.45 1 1 1 1-.45 1-1-.45-1-1-1Zm-2-4c0-1.103.897-2 2-2s2 .897 2 2-.897 2-2 2-2-.897-2-2Zm2-1c-.55 0-1 .45-1 1s.45 1 1 1 1-.45 1-1-.45-1-1-1Zm-5.99.5a.5.5 0 0 1 .5.5v10a.5.5 0 0 1-1 0V3a.5.5 0 0 1 .5-.5ZM11 13c0-1.103.897-2 2-2s2 .897 2 2-.897 2-2 2-2-.897-2-2Zm2-1c-.55 0-1 .45-1 1s.45 1 1 1 1-.45 1-1-.45-1-1-1Z" clip-rule="evenodd"/>
</svg>
