<svg xmlns="http://www.w3.org/2000/svg" width="16" height="16" fill="currentColor" viewBox="0 0 16 16">
  <g clip-path="url(#a)">
    <path fill-rule="evenodd" d="M8 .967A7.035 7.035 0 0 0 .967 8c0 1.562.512 3.01 1.376 4.175A7.026 7.026 0 0 0 8 15.033 7.034 7.034 0 0 0 15.033 8a.5.5 0 1 0-1 0A6.034 6.034 0 0 1 8 14.033a6.026 6.026 0 0 1-4.853-2.452c-.741-1-1.18-2.24-1.18-3.581a6.035 6.035 0 0 1 10.3-4.267l.266.267H10.5a.5.5 0 0 0 0 1h3a.5.5 0 0 0 .5-.5v-.123a.503.503 0 0 0 0-.212V1.5a.5.5 0 0 0-1 0v1.553l-.026-.027A7.014 7.014 0 0 0 8 .966Z" clip-rule="evenodd"/>
  </g>
  <defs>
    <clipPath id="a">
      <path fill="#fff" d="M0 0h16v16H0z"/>
    </clipPath>
  </defs>
</svg>
