<svg xmlns="http://www.w3.org/2000/svg" width="16" height="16" fill="currentColor" viewBox="0 0 16 16">
  <path fill-rule="evenodd" d="M8 6a.5.5 0 0 1-.5-.5V4.03A4.002 4.002 0 0 0 4.031 7.5H5.5a.5.5 0 0 1 0 1H4.03a4.002 4.002 0 0 0 3.47 3.47V10.5a.5.5 0 0 1 1 0v1.47a4.002 4.002 0 0 0 3.47-3.47H10.5a.5.5 0 0 1 0-1h1.47A4.002 4.002 0 0 0 8.5 4.031V5.5A.5.5 0 0 1 8 6Zm.5 6.975A5.002 5.002 0 0 0 12.975 8.5H14.5a.5.5 0 0 0 0-1h-1.525A5.002 5.002 0 0 0 8.5 3.025V1.5a.5.5 0 0 0-1 0v1.525A5.002 5.002 0 0 0 3.025 7.5H1.5a.5.5 0 0 0 0 1h1.525A5.002 5.002 0 0 0 7.5 12.975V14.5a.5.5 0 0 0 1 0v-1.525Z" clip-rule="evenodd"/>
</svg>
