<svg xmlns="http://www.w3.org/2000/svg" width="16" height="16" fill="currentColor" viewBox="0 0 16 16">
  <path fill-rule="evenodd" d="M2 2h2v2H2V2ZM1 2a1 1 0 0 1 1-1h2a1 1 0 0 1 1 1v2a1 1 0 0 1-1 1H2a1 1 0 0 1-1-1V2Zm11 0h2v2h-2V2Zm-1 0a1 1 0 0 1 1-1h2a1 1 0 0 1 1 1v2a1 1 0 0 1-1 1h-2a1 1 0 0 1-1-1V2ZM2 12v2h2v-2H2Zm0-1a1 1 0 0 0-1 1v2a1 1 0 0 0 1 1h2a1 1 0 0 0 1-1v-2a1 1 0 0 0-1-1H2Zm9 1a1 1 0 0 1 1-1h2a1 1 0 0 1 1 1v2a1 1 0 0 1-1 1h-2a1 1 0 0 1-1-1v-2ZM3 5.5a.5.5 0 0 1 .5.5v4a.5.5 0 0 1-1 0V6a.5.5 0 0 1 .5-.5Zm7-2a.5.5 0 0 0 0-1H6a.5.5 0 0 0 0 1h4Zm.5 9.5a.5.5 0 0 1-.5.5H6a.5.5 0 0 1 0-1h4a.5.5 0 0 1 .5.5Zm1.5-1h2v2h-2v-2Zm1.5-6a.5.5 0 0 0-1 0v4a.5.5 0 0 0 1 0V6Z" clip-rule="evenodd"/>
</svg>
