<svg xmlns="http://www.w3.org/2000/svg" width="16" height="16" fill="currentColor" viewBox="0 0 16 16">
  <path d="M1.48 6.501a.5.5 0 0 1 .527.47 4.7 4.7 0 0 0 9.032 1.54.5.5 0 1 1 .922.385A5.701 5.701 0 0 1 1.01 7.028a.5.5 0 0 1 .471-.527ZM6.7 1a5.7 5.7 0 0 1 5.166 3.288.5.5 0 0 1-.906.424 4.701 4.701 0 0 0-7.57-1.35.5.5 0 1 1-.703-.71A5.683 5.683 0 0 1 6.7 1Z"/>
  <path d="M10.024 10.024a.5.5 0 0 1 .707 0l4.123 4.123a.5.5 0 0 1-.707.707l-4.123-4.123a.5.5 0 0 1 0-.707Zm.488-3.52a.493.493 0 0 0-.494-.492.493.493 0 0 0-.506.48.493.493 0 0 0 .494.493.493.493 0 0 0 .506-.48Zm1 .013a1.493 1.493 0 0 1-1.518 1.468A1.493 1.493 0 0 1 8.512 6.48a1.493 1.493 0 0 1 1.518-1.468c.822.01 1.492.677 1.482 1.505ZM7 8.5a.5.5 0 1 0-1 0 .5.5 0 0 0 1 0Zm1 0a1.5 1.5 0 1 1-3 0 1.5 1.5 0 0 1 3 0Zm-3.5-3a.5.5 0 1 0-1 0 .5.5 0 0 0 1 0Zm1 0a1.5 1.5 0 1 1-3 0 1.5 1.5 0 0 1 3 0Z"/>
  <path d="M8.68 6.366a.5.5 0 0 1 .64.768l-1.5 1.25a.5.5 0 0 1-.64-.768l1.5-1.25Zm-4.299-.04a.5.5 0 0 1 .707.014l1.023 1.064a.5.5 0 0 1-.722.693L4.367 7.034a.5.5 0 0 1 .014-.708Zm6.155.238a.5.5 0 0 1 .65-.278l2.5 1a.5.5 0 0 1-.372.928l-2.5-1a.5.5 0 0 1-.278-.65ZM.79 4.303a.5.5 0 0 1 .657-.262l1.75.75a.5.5 0 1 1-.394.918l-1.75-.75a.5.5 0 0 1-.262-.656Z"/>
</svg>
