<svg xmlns="http://www.w3.org/2000/svg" width="16" height="16" fill="currentColor" viewBox="0 0 16 16">
  <path d="M13.5 9a.5.5 0 0 1 0 1h-5v3.293l1.146-1.146a.5.5 0 1 1 .707.707l-2 2a.5.5 0 0 1-.105.078.444.444 0 0 1-.053.028l-.021.007a.507.507 0 0 1-.067.02c-.014.003-.028.004-.043.006-.017.002-.033.005-.05.005L8 15c-.013 0-.025-.003-.038-.004a.49.49 0 0 1-.18-.049c-.013-.006-.026-.012-.038-.02a.478.478 0 0 1-.044-.029l-.015-.01-.039-.034-2-2-.034-.039a.5.5 0 0 1 .703-.703l.039.034L7.5 13.293V10h-5a.5.5 0 0 1 0-1h11ZM8.037 1.004c.014 0 .027.002.04.004a.492.492 0 0 1 .178.064c.015.01.03.019.044.03l.016.01.039.034 2 2 .034.039a.5.5 0 0 1-.703.703l-.039-.034L8.5 2.707V6h5a.5.5 0 0 1 0 1h-11a.5.5 0 0 1 0-1h5V2.707L6.354 3.854a.5.5 0 1 1-.708-.708l2-2a.503.503 0 0 1 .074-.06c.014-.01.03-.017.046-.025.012-.007.024-.015.038-.021l.021-.007a.495.495 0 0 1 .067-.02c.014-.003.028-.004.043-.006a.498.498 0 0 1 .05-.005L8 1c.013 0 .025.003.037.004Z"/>
</svg>
