<svg xmlns="http://www.w3.org/2000/svg" width="16" height="16" fill="currentColor" viewBox="0 0 16 16">
  <path d="M11.5 8a3.5 3.5 0 1 1 0 7 3.5 3.5 0 0 1 0-7ZM11 1a.5.5 0 0 1 .5.5V7a.5.5 0 0 1-1 0V2H2.516A.53.53 0 0 0 2 2.547v8.51c.119-.036.246-.057.38-.057.022 0 .045.002.066.005H7a.5.5 0 0 1 .052.997L7 12.005H2.38l-.026-.002c-.15.017-.354.18-.354.497 0 .338.23.5.38.5H7a.5.5 0 0 1 0 1H2.38C1.564 14 1 13.269 1 12.5V2.547C1 1.707 1.661 1 2.516 1H11Zm.5 8a2.5 2.5 0 1 0 0 5 2.5 2.5 0 0 0 0-5Zm.014.501c.017 0 .034.003.05.005.015.002.03.003.043.006a.494.494 0 0 1 .067.02l.021.007c.014.006.026.015.04.022.015.008.03.015.045.025a.59.59 0 0 1 .074.06l1 1 .034.039a.5.5 0 0 1-.703.703l-.039-.034-.146-.147V13l-.002.052a.5.5 0 0 1-.995 0L11 13v-1.793l-.146.146a.5.5 0 1 1-.707-.707l1-1 .038-.034.015-.011a.513.513 0 0 1 .222-.094l.04-.004c.013-.001.025-.003.038-.003l.014.001ZM8 4.5a.5.5 0 0 1 0 1H4.5a.5.5 0 0 1 0-1H8ZM8.5 3a.5.5 0 0 1 0 1H4a.5.5 0 0 1 0-1h4.5Z"/>
</svg>
