<svg xmlns="http://www.w3.org/2000/svg" width="16" height="16" fill="currentColor" viewBox="0 0 16 16">
  <path fill-rule="evenodd" d="M9.5 2h-3v2h3V2Zm-3-1a1 1 0 0 0-1 1v.5H4A1.5 1.5 0 0 0 2.5 4v9.5A1.5 1.5 0 0 0 4 15h8a1.5 1.5 0 0 0 1.5-1.5V4A1.5 1.5 0 0 0 12 2.5h-1.5V2a1 1 0 0 0-1-1h-3ZM4 3.5h1.5V4a1 1 0 0 0 1 1h3a1 1 0 0 0 1-1v-.5H12a.5.5 0 0 1 .5.5v9.5a.5.5 0 0 1-.5.5H4a.5.5 0 0 1-.5-.5V4a.5.5 0 0 1 .5-.5Zm.5 8a.5.5 0 0 0 1 0V7a.5.5 0 0 0-1 0v4.5ZM8 12a.5.5 0 0 1-.5-.5V9.25a.5.5 0 0 1 1 0v2.25a.5.5 0 0 1-.5.5Zm2.5-.5a.5.5 0 0 0 1 0V8.25a.5.5 0 0 0-1 0v3.25Z" clip-rule="evenodd"/>
</svg>
