<svg xmlns="http://www.w3.org/2000/svg" width="16" height="16" fill="currentColor" viewBox="0 0 16 16">
  <path d="M6.5 2a.5.5 0 0 1 .5.5v11a.5.5 0 0 1-1 0v-5H2.707l1.147 1.146a.5.5 0 1 1-.708.707l-2-2a.507.507 0 0 1-.086-.116l-.01-.02a.497.497 0 0 1-.036-.333l.007-.03a.497.497 0 0 1 .125-.208l2-2a.5.5 0 1 1 .708.708L2.707 7.5H6v-5a.5.5 0 0 1 .5-.5Zm3 0a.5.5 0 0 1 .5.5v5h3.293l-1.146-1.146a.5.5 0 1 1 .707-.708l2 2a.503.503 0 0 1 .124.208l.001.003a.5.5 0 0 1-.125.497l-2 2a.5.5 0 1 1-.707-.708L13.293 8.5H10v5a.5.5 0 0 1-1 0v-11a.5.5 0 0 1 .5-.5Z"/>
</svg>
