<svg xmlns="http://www.w3.org/2000/svg" width="16" height="16" fill="currentColor" viewBox="0 0 16 16">
  <path fill-rule="evenodd" d="M7.9 2.8a.5.5 0 1 0-.8-.6L6 3.667 4.9 2.2a.5.5 0 0 0-.8.6L5 4h-.5a2 2 0 0 0-2 2v1A1.5 1.5 0 0 0 1 8.5v1A1.5 1.5 0 0 0 2.5 11v1a2 2 0 0 0 2 2h7a2 2 0 0 0 2-2v-1A1.5 1.5 0 0 0 15 9.5v-1A1.5 1.5 0 0 0 13.5 7V6a2 2 0 0 0-2-2H7l.9-1.2ZM13.5 8v2a.5.5 0 0 0 .5-.5v-1a.5.5 0 0 0-.5-.5ZM2 8.5a.5.5 0 0 1 .5-.5v2a.5.5 0 0 1-.5-.5v-1ZM11.5 5h-7a1 1 0 0 0-1 1v6a1 1 0 0 0 1 1h7a1 1 0 0 0 1-1V6a1 1 0 0 0-1-1ZM8 10.5c-.53 0-1.103-.25-1.628-.834a.5.5 0 0 0-.744.668C6.303 11.085 7.131 11.5 8 11.5c.87 0 1.697-.416 2.372-1.165a.5.5 0 0 0-.744-.67c-.525.584-1.097.835-1.628.835Zm-2-2a1 1 0 1 0 0-2 1 1 0 0 0 0 2Zm5-1a1 1 0 1 1-2 0 1 1 0 0 1 2 0Z" clip-rule="evenodd"/>
</svg>
