<svg xmlns="http://www.w3.org/2000/svg" width="16" height="16" fill="currentColor" viewBox="0 0 16 16">
  <path d="M6.214 12.59a.5.5 0 0 1 .665.084l.031.04.84 1.203.022.021a.397.397 0 0 0 .235.062c.165 0 .243-.065.254-.081l.829-1.192a.5.5 0 0 1 .821.57l-.828 1.192h-.001c-.261.376-.71.51-1.073.511-.364 0-.814-.132-1.078-.509H6.93l-.84-1.205-.027-.043a.5.5 0 0 1 .15-.653ZM8.07 1.003c.163.016.31.081.418.14.137.074.28.175.421.29.285.234.604.56.915.95.621.78 1.253 1.864 1.542 3.077l.055.257c.088.488.095.98.056 1.456l.27.152.002.002.197.121c.963.637 1.554 1.686 1.554 2.827v2.931a.79.79 0 0 1-.51.737.825.825 0 0 1-.818-.125l-.049-.043L10.238 12H5.762l-1.885 1.775a.824.824 0 0 1-.866.168.79.79 0 0 1-.511-.737v-2.93c0-1.218.673-2.33 1.751-2.949l.003-.002.271-.153a5.395 5.395 0 0 1 .108-1.712c.29-1.213.922-2.297 1.543-3.076a6.41 6.41 0 0 1 .914-.95c.142-.117.285-.217.422-.291C7.635 1.076 7.809 1 8 1l.07.003Zm-3.415 7.25C3.927 8.712 3.5 9.47 3.5 10.275v2.48l1.546-1.454-.39-3.048Zm6.294 3.043 1.551 1.46v-2.48c0-.808-.429-1.569-1.16-2.027l-.39 3.047ZM9.623 3.85a1.75 1.75 0 1 1-3.247 0 6.666 6.666 0 0 0-.77 1.843l-.038.176a4.63 4.63 0 0 0-.043 1.287l.024.217L6.016 11h3.963l.466-3.627.01-.046.001-.01a4.803 4.803 0 0 0-.02-1.421l-.041-.203h-.001a6.665 6.665 0 0 0-.771-1.843ZM8 3.75a.75.75 0 1 0 0 1.5.75.75 0 0 0 0-1.5Zm-.013-1.727a1.775 1.775 0 0 0-.263.185c-.22.18-.49.452-.766.799a5.24 5.24 0 0 0-.193.253c.316-.315.753-.51 1.235-.51.482 0 .918.195 1.234.51a7.455 7.455 0 0 0-.192-.253 5.419 5.419 0 0 0-.766-.799c-.11-.09-.2-.15-.263-.185L8 2.017l-.013.006Z"/>
</svg>
