<svg xmlns="http://www.w3.org/2000/svg" width="16" height="16" fill="currentColor" viewBox="0 0 16 16">
  <path fill-rule="evenodd" d="M8 5.5a1 1 0 1 0 0 2 1 1 0 0 0 0-2Zm-2 1a2 2 0 1 1 4 0 2 2 0 0 1-4 0Zm0 3.899.01 1.097a.5.5 0 1 1-1 .008L5 10.402C5 9.574 5.728 9 6.509 9h2.982c.777 0 1.517.576 1.509 1.405m0 0-.01 1.1a.5.5 0 0 1-1-.01l.01-1.1c.002-.16-.168-.395-.509-.395H6.509c-.337 0-.508.228-.509.399" clip-rule="evenodd"/>
  <path fill-rule="evenodd" d="M8 4a4 4 0 1 0 0 8 4 4 0 0 0 0-8ZM3 8a5 5 0 1 1 10 0A5 5 0 0 1 3 8Z" clip-rule="evenodd"/>
  <path fill-rule="evenodd" d="M2.849 2.854a.5.5 0 0 1 .707 0l1.547 1.542a.5.5 0 1 1-.706.708L2.85 3.561a.5.5 0 0 1-.001-.707Z" clip-rule="evenodd"/>
  <path fill-rule="evenodd" d="M2.5 2a.5.5 0 1 0 0 1 .5.5 0 0 0 0-1ZM1 2.5a1.5 1.5 0 1 1 3 0 1.5 1.5 0 0 1-3 0Zm12.168.413a.5.5 0 0 1-.015.707l-1.558 1.49a.5.5 0 1 1-.692-.722l1.557-1.491a.5.5 0 0 1 .707.015Z" clip-rule="evenodd"/>
  <path fill-rule="evenodd" d="M13.5 2a.5.5 0 1 0 0 1 .5.5 0 0 0 0-1Zm-1.5.5a1.5 1.5 0 1 1 3 0 1.5 1.5 0 0 1-3 0Zm-6.896 8.396a.5.5 0 0 1 0 .708l-1.5 1.5a.5.5 0 0 1-.708-.708l1.5-1.5a.5.5 0 0 1 .708 0Z" clip-rule="evenodd"/>
  <path fill-rule="evenodd" d="M2.5 13a.5.5 0 1 0 0 1 .5.5 0 0 0 0-1Zm-1.5.5a1.5 1.5 0 1 1 3 0 1.5 1.5 0 0 1-3 0Zm9.896-2.604a.5.5 0 0 1 .708 0l1.5 1.5a.5.5 0 0 1-.708.708l-1.5-1.5a.5.5 0 0 1 0-.708Z" clip-rule="evenodd"/>
  <path fill-rule="evenodd" d="M13.5 13a.5.5 0 1 0 0 1 .5.5 0 0 0 0-1Zm-1.5.5a1.5 1.5 0 1 1 3 0 1.5 1.5 0 0 1-3 0Z" clip-rule="evenodd"/>
</svg>
