<svg xmlns="http://www.w3.org/2000/svg" width="16" height="16" fill="currentColor" viewBox="0 0 16 16">
  <path fill-rule="evenodd" d="M2 2.5a.5.5 0 1 1 .879.326.51.51 0 0 0-.055.055A.5.5 0 0 1 2 2.5Zm1.144 1.355a1.5 1.5 0 1 1 .708-.706l.983.98A4.98 4.98 0 0 1 8 3a4.98 4.98 0 0 1 3.17 1.134l.994-.952a1.5 1.5 0 1 1 .727.689l-1.014.971A4.98 4.98 0 0 1 13 8a4.98 4.98 0 0 1-1.129 3.164l.982.982a1.5 1.5 0 1 1-.707.707l-.982-.982A4.98 4.98 0 0 1 8 13a4.98 4.98 0 0 1-3.164-1.129l-.982.982a1.5 1.5 0 1 1-.707-.707l.982-.982A4.98 4.98 0 0 1 3 8c0-1.2.423-2.302 1.128-3.164l-.984-.981ZM4 8a4 4 0 1 1 6.998 2.648l.002-.242-1-.002 1 .001C11.008 9.576 10.268 9 9.491 9H6.509C5.729 9 5 9.574 5 10.4l.002.248A3.985 3.985 0 0 1 4 8Zm2 2.399c.001-.17.172-.399.509-.399h2.982c.341 0 .51.236.509.396v.008l-4-.005Zm0 0 .01 1.072a3.998 3.998 0 0 0 3.98-.001l.01-1.066-4-.005ZM8 5.5a1 1 0 1 0 0 2 1 1 0 0 0 0-2Zm-2 1a2 2 0 1 1 4 0 2 2 0 0 1-4 0Zm7-4a.5.5 0 1 1 1 0 .5.5 0 0 1-1 0Zm-11 11a.5.5 0 1 1 1 0 .5.5 0 0 1-1 0Zm11 0a.5.5 0 1 1 1 0 .5.5 0 0 1-1 0Z" clip-rule="evenodd"/>
</svg>
