<svg xmlns="http://www.w3.org/2000/svg" width="16" height="16" fill="currentColor" viewBox="0 0 16 16">
  <path fill-rule="evenodd" d="M3.125 2C2.505 2 2 2.505 2 3.125v9.75C2 13.495 2.505 14 3.125 14h9.75c.62 0 1.125-.505 1.125-1.125V5.423c0-.293-.118-.58-.332-.793l-2.3-2.3a1.108 1.108 0 0 0-.791-.33H3.125ZM1 3.125C1 1.953 1.953 1 3.125 1h7.452c.564 0 1.105.224 1.501.626l.002.001 2.295 2.296c.4.399.625.939.625 1.5v7.452A2.127 2.127 0 0 1 12.875 15h-9.75A2.127 2.127 0 0 1 1 12.875v-9.75Z" clip-rule="evenodd"/>
  <path fill-rule="evenodd" d="M5 1a.5.5 0 0 1 .5.5v3.929c0 .628.416 1.071 1 1.071h3c.326 0 .57-.113.73-.276.162-.164.27-.41.27-.724V2a.5.5 0 0 1 1 0v3.5c0 .552-.194 1.057-.558 1.426-.365.37-.872.574-1.442.574h-3c-1.209 0-2-.967-2-2.071V1.5A.5.5 0 0 1 5 1Zm1.5 11c-.551 0-1 .449-1 1v1.5a.5.5 0 0 1-1 0V13c0-1.103.897-2 2-2h3c1.103 0 2 .897 2 2v1.5a.5.5 0 0 1-1 0V13c0-.551-.449-1-1-1h-3Z" clip-rule="evenodd"/>
</svg>
