<svg xmlns="http://www.w3.org/2000/svg" width="16" height="16" fill="currentColor" viewBox="0 0 16 16">
  <path fill-rule="evenodd" d="M3.125 2C2.505 2 2 2.505 2 3.125v9.75C2 13.495 2.505 14 3.125 14H4.5v-1c0-1.103.897-2 2-2h3c1.103 0 2 .897 2 2v1h1.375c.62 0 1.125-.505 1.125-1.125V5.423c0-.293-.118-.58-.332-.793L11.5 2.462V5.5c0 .552-.194 1.057-.558 1.426-.365.37-.872.574-1.442.574h-3c-1.209 0-2-.967-2-2.071V2H3.125ZM10.5 14v-1c0-.551-.449-1-1-1h-3c-.551 0-1 .449-1 1v1h5ZM5 15H3.125A2.127 2.127 0 0 1 1 12.875v-9.75C1 1.953 1.953 1 3.125 1h7.452c.564 0 1.105.224 1.501.626l.002.001 2.295 2.296c.4.399.625.939.625 1.5v7.452A2.127 2.127 0 0 1 12.875 15H5Zm.5-13h5v3.5c0 .315-.108.56-.27.724-.16.163-.404.276-.73.276h-3c-.584 0-1-.443-1-1.071V2Z" clip-rule="evenodd"/>
</svg>
