<svg xmlns="http://www.w3.org/2000/svg" width="16" height="16" fill="currentColor" viewBox="0 0 16 16">
  <path fill-rule="evenodd" d="M13.001 14A1.997 1.997 0 0 0 15 12.001V3a1.997 1.997 0 0 0-1.999-2H4a1.997 1.997 0 0 0-2 1.999V5.5a.5.5 0 0 0 1 0V2.999C3 2.446 3.446 2 3.999 2H13c.553 0 .999.446.999.999V12a.997.997 0 0 1-.999.999h-2.5a.5.5 0 0 0 0 1h2.501ZM2.5 7A1.5 1.5 0 0 0 1 8.5v5A1.5 1.5 0 0 0 2.5 15h5A1.5 1.5 0 0 0 9 13.5v-5A1.5 1.5 0 0 0 7.5 7h-5ZM2 8.5a.5.5 0 0 1 .5-.5h5a.5.5 0 0 1 .5.5v5a.5.5 0 0 1-.5.5h-5a.5.5 0 0 1-.5-.5v-5Z" clip-rule="evenodd"/>
</svg>
