<svg xmlns="http://www.w3.org/2000/svg" width="16" height="16" fill="currentColor" viewBox="0 0 16 16">
  <path fill-rule="evenodd" d="M15 12.001A1.997 1.997 0 0 1 13.001 14H10.5a.5.5 0 0 1 0-1h2.501a.997.997 0 0 0 .999-.999V3a.997.997 0 0 0-.999-1H4a.997.997 0 0 0-1 .999V5.5a.5.5 0 0 1-1 0V2.999C2 1.894 2.894 1 3.999 1H13c1.106 0 2 .894 2 1.999V12Z" clip-rule="evenodd"/>
  <path fill-rule="evenodd" d="M1 8.5A1.5 1.5 0 0 1 2.5 7h5A1.5 1.5 0 0 1 9 8.5v5A1.5 1.5 0 0 1 7.5 15h-5A1.5 1.5 0 0 1 1 13.5v-5ZM2.5 8a.5.5 0 0 0-.5.5v5a.5.5 0 0 0 .5.5h5a.5.5 0 0 0 .5-.5v-5a.5.5 0 0 0-.5-.5h-5Z" clip-rule="evenodd"/>
</svg>
