<svg xmlns="http://www.w3.org/2000/svg" width="16" height="16" fill="currentColor" viewBox="0 0 16 16">
  <path fill-rule="evenodd" d="M2.16 4.169a.418.418 0 0 0-.16.344v8.872c0 .31.268.597.645.597h5.213a.5.5 0 1 1 0 1H2.645c-.889 0-1.645-.695-1.645-1.597V4.513c0-.452.193-.847.528-1.12C1.855 3.127 2.288 3 2.75 3H3a.5.5 0 0 1 0 1h-.25c-.287 0-.48.079-.59.169ZM10.5 3.5A.5.5 0 0 1 11 3h.25c.899 0 1.75.62 1.75 1.552V7a.5.5 0 0 1-1 0V4.552c0-.23-.242-.552-.75-.552H11a.5.5 0 0 1-.5-.5Z" clip-rule="evenodd"/>
  <path fill-rule="evenodd" d="M1 6a.5.5 0 0 1 .5-.5H12a.5.5 0 0 1 0 1H1.5A.5.5 0 0 1 1 6Zm3.524-2.508a.5.5 0 0 1 .5-.5h3.98a.5.5 0 0 1 0 1h-3.98a.5.5 0 0 1-.5-.5Z" clip-rule="evenodd"/>
  <path fill-rule="evenodd" d="M5 2c.276 0 .5.225.5.503v1.994A.501.501 0 0 1 5 5a.501.501 0 0 1-.5-.503V2.503C4.5 2.225 4.724 2 5 2Zm4 0c.276 0 .5.225.5.503v1.994A.501.501 0 0 1 9 5a.501.501 0 0 1-.5-.503V2.503C8.5 2.225 8.724 2 9 2Zm-1 9.5a3.5 3.5 0 1 1 7 0 3.5 3.5 0 0 1-7 0ZM11.5 9a2.5 2.5 0 1 0 0 5 2.5 2.5 0 0 0 0-5Z" clip-rule="evenodd"/>
  <path fill-rule="evenodd" d="M12.787 10.09a.5.5 0 0 1 .122.697l-1.401 2a.5.5 0 0 1-.82-.001l-.598-.859a.5.5 0 0 1 .82-.571l.19.271.99-1.414a.5.5 0 0 1 .697-.122Z" clip-rule="evenodd"/>
  <path d="M4.128 8h-.256c-.206 0-.372.155-.372.345v.31c0 .19.166.345.372.345h.256c.206 0 .372-.155.372-.345v-.31c0-.19-.166-.345-.372-.345Zm2 0h-.256c-.206 0-.372.155-.372.345v.31c0 .19.166.345.372.345h.256c.206 0 .372-.155.372-.345v-.31c0-.19-.166-.345-.372-.345Zm-2 2h-.256c-.206 0-.372.155-.372.345v.31c0 .19.166.345.372.345h.256c.206 0 .372-.155.372-.345v-.31c0-.19-.166-.345-.372-.345Zm2 0h-.256c-.206 0-.372.155-.372.345v.31c0 .19.166.345.372.345h.256c.206 0 .372-.155.372-.345v-.31c0-.19-.166-.345-.372-.345Zm-2 2h-.256c-.206 0-.372.155-.372.345v.31c0 .19.166.345.372.345h.256c.206 0 .372-.155.372-.345v-.31c0-.19-.166-.345-.372-.345Zm2 0h-.256c-.206 0-.372.155-.372.345v.31c0 .19.166.345.372.345h.256c.206 0 .372-.155.372-.345v-.31c0-.19-.166-.345-.372-.345Z"/>
</svg>
