<svg xmlns="http://www.w3.org/2000/svg" width="16" height="16" fill="currentColor" viewBox="0 0 16 16">
  <path fill-rule="evenodd" d="M8.431 1.079a26.54 26.54 0 0 0 4.89 2.007l.005.002c.381.115.691.457.691.899v5.595c0 .763-.345 1.456-.812 2.048-.47.594-1.092 1.126-1.723 1.577-1.263.904-2.638 1.541-3.116 1.751l-.009.004a.943.943 0 0 1-.73 0l-.008-.003c-.481-.21-1.856-.848-3.119-1.752-.63-.451-1.253-.983-1.721-1.577-.467-.592-.812-1.285-.812-2.048v-5.59c0-.433.3-.789.697-.901.76-.225 2.742-.857 4.885-2.013l.238.44-.243-.437a.919.919 0 0 1 .887-.002Zm-.441.898a27.414 27.414 0 0 1-5.023 2.067v5.538c0 .455.207.934.597 1.429.388.492.928.961 1.518 1.383 1.156.828 2.43 1.425 2.91 1.636.48-.212 1.752-.809 2.908-1.636.59-.422 1.131-.89 1.52-1.383.39-.495.597-.974.597-1.429V4.04A27.571 27.571 0 0 1 7.99 1.977Z" clip-rule="evenodd"/>
  <path fill-rule="evenodd" d="M6 7.582v2.836c1.216.11 2.788.11 4 0V7.582a24.305 24.305 0 0 0-4 0Zm-.333-.972a24.716 24.716 0 0 1 4.665 0l.01.001a.743.743 0 0 1 .658.735v3.308c0 .402-.315.69-.656.734l-.011.002a24.71 24.71 0 0 1-4.665 0l-.01-.001A.743.743 0 0 1 5 10.654V7.346c0-.402.315-.69.656-.734l.011-.002ZM8 4.5c-.652 0-1 .415-1 .721V5.5a.5.5 0 0 1-1 0v-.279C6 4.181 6.998 3.5 8 3.5c.521 0 1.006.17 1.374.47l.004.002c.357.296.622.73.622 1.25V5.5a.5.5 0 0 1-1 0v-.279c0-.158-.079-.327-.258-.477A1.175 1.175 0 0 0 8 4.5Z" clip-rule="evenodd"/>
</svg>
