<svg xmlns="http://www.w3.org/2000/svg" width="16" height="16" fill="currentColor" viewBox="0 0 16 16">
  <path fill-rule="evenodd" d="M8.431 1.079a26.54 26.54 0 0 0 4.89 2.007l.005.002c.381.115.691.457.691.899v5.595c0 .763-.345 1.456-.812 2.048-.47.594-1.092 1.126-1.723 1.578-1.263.903-2.638 1.54-3.116 1.75l-.009.004a.944.944 0 0 1-.73 0l-.008-.003c-.481-.21-1.856-.848-3.119-1.752-.63-.451-1.253-.983-1.721-1.577-.467-.592-.812-1.285-.812-2.048v-5.59c0-.433.3-.788.697-.901.76-.224 2.74-.856 4.883-2.012l-.003.002.243.437-.238-.44-.002.001a.919.919 0 0 1 .884 0Zm-.441.898a27.414 27.414 0 0 1-5.023 2.067v5.538c0 .455.207.934.597 1.429.388.492.928.961 1.518 1.383 1.156.828 2.43 1.425 2.91 1.636.48-.212 1.752-.809 2.908-1.636.59-.422 1.131-.89 1.52-1.383.39-.495.597-.974.597-1.429V4.04A27.57 27.57 0 0 1 7.99 1.977ZM6 7.582v2.836c1.216.11 2.788.11 4 0V7.583a24.305 24.305 0 0 0-4 0Zm-.333-.972a24.716 24.716 0 0 1 4.665 0l.01.001a.743.743 0 0 1 .658.735v3.308c0 .402-.315.69-.656.734l-.011.002a24.727 24.727 0 0 1-4.665 0l-.01-.001A.743.743 0 0 1 5 10.654V7.346c0-.402.315-.69.656-.734l.011-.002ZM7 5.221c0-.306.348-.72 1-.72.305 0 .562.098.742.243.18.15.258.319.258.477v.28a.5.5 0 0 0 1 0v-.28c0-.519-.265-.952-.622-1.249l-.004-.002A2.17 2.17 0 0 0 8 3.5c-1.002 0-2 .68-2 1.721v.28a.5.5 0 0 0 1 0v-.28Z" clip-rule="evenodd"/>
</svg>
