<svg xmlns="http://www.w3.org/2000/svg" width="16" height="16" fill="currentColor" viewBox="0 0 16 16">
  <path fill-rule="evenodd" d="M2.46 1.108a.989.989 0 0 0-1.175.21 1.034 1.034 0 0 0-.175 1.175l2.726 5.508-2.722 5.507c-.41.833.43 1.838 1.347 1.387l5.781-2.88 6.192-3.085a.505.505 0 0 0 .075-.046c.327-.198.49-.54.491-.882v-.007a1.019 1.019 0 0 0-.565-.918L8.242 3.991 2.46 1.108ZM13.041 7.5 7.796 4.886 2.013 2.003l-.002.002a.043.043 0 0 0-.01.02v.008c0 .003.001.01.006.019L4.704 7.5h8.337Zm-8.336 1-2.694 5.45a.064.064 0 0 0-.006.019v.007a.04.04 0 0 0 .014.022h.001l5.776-2.878 5.258-2.62H4.705Z" clip-rule="evenodd"/>
</svg>
