<svg xmlns="http://www.w3.org/2000/svg" width="16" height="16" fill="currentColor" viewBox="0 0 16 16">
  <path fill-rule="evenodd" d="M2.5 1A1.5 1.5 0 0 0 1 2.5v4A1.5 1.5 0 0 0 2.5 8h4A1.5 1.5 0 0 0 8 6.5v-4A1.5 1.5 0 0 0 6.5 1h-4ZM2 2.5a.5.5 0 0 1 .5-.5h4a.5.5 0 0 1 .5.5v4a.5.5 0 0 1-.5.5h-4a.5.5 0 0 1-.5-.5v-4ZM4 9a1.5 1.5 0 0 0-1.5 1.5V13A1.5 1.5 0 0 0 4 14.5h2.5A1.5 1.5 0 0 0 8 13v-2.5A1.5 1.5 0 0 0 6.5 9H4Zm-.5 1.5A.5.5 0 0 1 4 10h2.5a.5.5 0 0 1 .5.5V13a.5.5 0 0 1-.5.5H4a.5.5 0 0 1-.5-.5v-2.5ZM9 4a1.5 1.5 0 0 1 1.5-1.5H13A1.5 1.5 0 0 1 14.5 4v2.5A1.5 1.5 0 0 1 13 8h-2.5A1.5 1.5 0 0 1 9 6.5V4Zm1.5-.5a.5.5 0 0 0-.5.5v2.5a.5.5 0 0 0 .5.5H13a.5.5 0 0 0 .5-.5V4a.5.5 0 0 0-.5-.5h-2.5Zm0 5.5A1.5 1.5 0 0 0 9 10.5V13a1.5 1.5 0 0 0 1.5 1.5H13a1.5 1.5 0 0 0 1.5-1.5v-2.5A1.5 1.5 0 0 0 13 9h-2.5Zm-.5 1.5a.5.5 0 0 1 .5-.5H13a.5.5 0 0 1 .5.5V13a.5.5 0 0 1-.5.5h-2.5a.5.5 0 0 1-.5-.5v-2.5Z" clip-rule="evenodd"/>
</svg>
