<svg xmlns="http://www.w3.org/2000/svg" width="16" height="16" fill="currentColor" viewBox="0 0 16 16">
  <path fill-rule="evenodd" d="M9.238.557a.5.5 0 0 0-.673.207l-.308.576a3.54 3.54 0 0 0-.734.025L7.181.81a.5.5 0 0 0-.69-.163L4.802 1.701a.5.5 0 0 0-.161.686l.342.557a4.05 4.05 0 0 0-.192.318 3.342 3.342 0 0 0-.16.341l-.647.021a.5.5 0 0 0-.484.515l.06 2a.5.5 0 0 0 .517.484l.649-.021c.106.221.235.434.386.632l-.324.6a.5.5 0 0 0 .208.681l1.766.924a.5.5 0 0 0 .673-.207l.308-.576c.234.017.469.01.699-.02l.29.586a.5.5 0 0 0 .694.214l1.794-1.01a.5.5 0 0 0 .187-.686l-.395-.68a4.04 4.04 0 0 0 .197-.326l.002-.003c.06-.112.112-.225.158-.338l.647-.02a.5.5 0 0 0 .484-.5V3.954a.5.5 0 0 0-.476-.5l-.737-.034a3.667 3.667 0 0 0-.403-.664l.316-.612a.5.5 0 0 0-.212-.672L9.238.557Zm-.26 1.557.235-.441.87.455-.24.466a.5.5 0 0 0 .078.571c.247.264.433.574.557.913a.5.5 0 0 0 .446.327l.576.027v.956l-.505.017a.5.5 0 0 0-.462.355 2.699 2.699 0 0 1-.502.944.5.5 0 0 0-.05.573l.307.527-.894.502-.224-.453a.5.5 0 0 0-.568-.263 2.53 2.53 0 0 1-1.051.036.5.5 0 0 0-.529.257l-.235.44-.878-.459.245-.453a.5.5 0 0 0-.075-.58 2.678 2.678 0 0 1-.557-.912.5.5 0 0 0-.486-.328l-.49.016-.031-1 .49-.015a.5.5 0 0 0 .462-.356 2.63 2.63 0 0 1 .502-.944.5.5 0 0 0 .043-.583l-.26-.422.841-.525.26.42a.5.5 0 0 0 .545.224 2.53 2.53 0 0 1 1.051-.036.5.5 0 0 0 .529-.256ZM9 5a1 1 0 1 1-2 0 1 1 0 0 1 2 0Zm1 0a2 2 0 1 1-4 0 2 2 0 0 1 4 0Zm2.72 5.127c.634-.315 1.382-.024 1.666.622.272.614.046 1.384-.587 1.698h-.002l-4.815 2.421a1.19 1.19 0 0 1-.817.1l-4.196-.98-.744.375a.5.5 0 1 1-.45-.893l.906-.456a.5.5 0 0 1 .338-.04l4.375 1.02.003.002a.187.187 0 0 0 .13-.019l.004-.002 4.823-2.424c.112-.056.192-.23.118-.397l-.001-.002c-.064-.146-.204-.18-.306-.13l-.005.004-3.193 1.553a1.174 1.174 0 0 1-1.551.848l-1.81-.67a.5.5 0 1 1 .349-.938l1.807.67c.082.03.187-.007.225-.118.043-.124-.025-.238-.11-.27l-1.972-.727-.006-.002-.026-.01a.929.929 0 0 1-.089-.038l-1.44-.716a.994.994 0 0 0-.895-.002l-.009.004-2.223 1.07a.5.5 0 1 1-.434-.902l2.22-1.067a1.994 1.994 0 0 1 1.783 0h.002l1.435.715h.002l.01.004.003.001.01.004 1.975.728c.224.083.407.226.538.404l2.959-1.44Z" clip-rule="evenodd"/>
</svg>
