<svg xmlns="http://www.w3.org/2000/svg" width="16" height="16" fill="currentColor" viewBox="0 0 16 16">
  <path d="M11 8.5a3 3 0 0 1 2.443 4.736l1.41 1.41a.5.5 0 1 1-.707.707l-1.41-1.41A3 3 0 1 1 11 8.5Zm-5.5 0A1.5 1.5 0 0 1 7 10v2a1.5 1.5 0 0 1-1.5 1.5h-2A1.5 1.5 0 0 1 2 12v-2a1.5 1.5 0 0 1 1.5-1.5h2Zm5.5 1a2 2 0 1 0 0 4 2 2 0 0 0 0-4Zm-7.5 0a.5.5 0 0 0-.5.5v2a.5.5 0 0 0 .5.5h2A.5.5 0 0 0 6 12v-2a.5.5 0 0 0-.5-.5h-2ZM6 1a1.5 1.5 0 0 1 1.5 1.5V6A1.5 1.5 0 0 1 6 7.5H2.5A1.5 1.5 0 0 1 1 6V2.5A1.5 1.5 0 0 1 2.5 1H6Zm6 1.5A1.5 1.5 0 0 1 13.5 4v2A1.5 1.5 0 0 1 12 7.5h-2A1.5 1.5 0 0 1 8.5 6V4A1.5 1.5 0 0 1 10 2.5h2ZM2.5 2a.5.5 0 0 0-.5.5V6a.5.5 0 0 0 .5.5H6a.5.5 0 0 0 .5-.5V2.5A.5.5 0 0 0 6 2H2.5ZM10 3.5a.5.5 0 0 0-.5.5v2a.5.5 0 0 0 .5.5h2a.5.5 0 0 0 .5-.5V4a.5.5 0 0 0-.5-.5h-2Z"/>
</svg>
