<svg xmlns="http://www.w3.org/2000/svg" width="16" height="16" fill="currentColor" viewBox="0 0 16 16">
  <path fill-rule="evenodd" d="M3.5 1A1.5 1.5 0 0 0 2 2.5v11A1.5 1.5 0 0 0 3.5 15h9a1.5 1.5 0 0 0 1.5-1.5v-11A1.5 1.5 0 0 0 12.5 1h-9ZM3 2.5a.5.5 0 0 1 .5-.5h9a.5.5 0 0 1 .5.5v11a.5.5 0 0 1-.5.5h-9a.5.5 0 0 1-.5-.5v-11Zm6.112.057a.5.5 0 0 0-.672.207l-.25.469a3.16 3.16 0 0 0-.575.02L7.337 2.8a.5.5 0 0 0-.69-.162l-1.478.921a.5.5 0 0 0-.162.686l.279.453a3.644 3.644 0 0 0-.149.25c-.048.089-.09.178-.128.268l-.525.017A.5.5 0 0 0 4 5.749l.053 1.749a.5.5 0 0 0 .516.485l.528-.018c.085.173.186.339.302.496l-.265.49a.5.5 0 0 0 .209.68l1.545.809a.5.5 0 0 0 .672-.207l.251-.469c.18.01.361.005.54-.015l.234.473a.5.5 0 0 0 .693.214l1.57-.883a.5.5 0 0 0 .187-.687l-.326-.561a3.64 3.64 0 0 0 .154-.258l.002-.003c.046-.088.088-.176.125-.264l.526-.017a.5.5 0 0 0 .484-.5V5.586a.5.5 0 0 0-.476-.5l-.608-.028a3.274 3.274 0 0 0-.32-.527l.26-.5a.5.5 0 0 0-.213-.673l-1.53-.8Zm-.201 1.447.177-.331.65.34-.182.353a.5.5 0 0 0 .08.571c.21.224.368.489.474.777a.5.5 0 0 0 .446.328l.444.02v.717l-.381.013a.5.5 0 0 0-.463.355 2.324 2.324 0 0 1-.427.805.5.5 0 0 0-.049.572l.236.406-.67.376-.167-.337a.5.5 0 0 0-.568-.263 2.157 2.157 0 0 1-.893.03.5.5 0 0 0-.529.257l-.177.331-.657-.344.184-.341a.5.5 0 0 0-.074-.58 2.28 2.28 0 0 1-.475-.777.5.5 0 0 0-.485-.327l-.367.012-.023-.75.366-.012a.5.5 0 0 0 .463-.355 2.24 2.24 0 0 1 .427-.805.5.5 0 0 0 .043-.582l-.195-.317.63-.393.194.315a.5.5 0 0 0 .546.223c.288-.071.594-.084.893-.03a.5.5 0 0 0 .529-.257ZM5 11.5a.5.5 0 0 1 .5-.5h5a.5.5 0 0 1 0 1h-5a.5.5 0 0 1-.5-.5ZM5 13a.5.5 0 0 1 .5-.5h5a.5.5 0 0 1 0 1h-5A.5.5 0 0 1 5 13Zm3-6a.5.5 0 1 0 0-1 .5.5 0 0 0 0 1Zm0 1a1.5 1.5 0 1 0 0-3 1.5 1.5 0 0 0 0 3Z" clip-rule="evenodd"/>
</svg>
