<svg xmlns="http://www.w3.org/2000/svg" width="16" height="16" fill="currentColor" viewBox="0 0 16 16">
  <path fill-rule="evenodd" d="M11.5 10a1.5 1.5 0 1 1 0 3 1.5 1.5 0 0 1 0-3Zm0 1a.5.5 0 1 0 0 1 .5.5 0 0 0 0-1Z" clip-rule="evenodd"/>
  <path fill-rule="evenodd" d="M11.966 7.72a.5.5 0 0 1 .646-.163l1.531.8a.5.5 0 0 1 .212.674l-.259.5c.124.167.23.343.319.527l.608.028a.5.5 0 0 1 .477.5v1.677a.5.5 0 0 1-.484.5l-.527.017a3.214 3.214 0 0 1-.124.264l-.002.003a3.683 3.683 0 0 1-.154.257l.326.562a.5.5 0 0 1-.187.687l-1.57.883a.5.5 0 0 1-.693-.214l-.235-.474a3.17 3.17 0 0 1-.539.015l-.25.47a.5.5 0 0 1-.673.207l-1.545-.809a.501.501 0 0 1-.209-.68l.265-.492a3.27 3.27 0 0 1-.301-.494l-.529.017a.501.501 0 0 1-.516-.484l-.053-1.75a.5.5 0 0 1 .484-.514l.526-.018a2.96 2.96 0 0 1 .276-.516l-.279-.454a.5.5 0 0 1 .162-.686l1.477-.921a.5.5 0 0 1 .69.162l.28.451c.188-.023.38-.03.572-.02l.252-.468.026-.043Zm.445 1.284a.5.5 0 0 1-.529.256 2.164 2.164 0 0 0-.893.031.5.5 0 0 1-.546-.223l-.194-.315-.63.393.194.316a.5.5 0 0 1-.042.583 2.304 2.304 0 0 0-.427.805.5.5 0 0 1-.463.355l-.366.012.023.75.367-.012.08.004a.5.5 0 0 1 .405.323c.106.289.265.553.475.778a.5.5 0 0 1 .074.579l-.184.341.657.344.177-.33.044-.068a.5.5 0 0 1 .485-.19c.299.054.605.04.893-.03a.5.5 0 0 1 .569.263l.167.337.668-.376-.235-.406a.5.5 0 0 1 .049-.572 2.301 2.301 0 0 0 .427-.804l.03-.075a.5.5 0 0 1 .433-.282l.381-.012v-.716l-.444-.022a.5.5 0 0 1-.446-.327 2.28 2.28 0 0 0-.475-.777.5.5 0 0 1-.079-.571l.182-.353-.65-.34-.177.33ZM5 8a1.5 1.5 0 0 1 1.5 1.5v2A1.5 1.5 0 0 1 5 13H3a1.5 1.5 0 0 1-1.5-1.5v-2A1.5 1.5 0 0 1 3 8h2ZM3 9a.5.5 0 0 0-.5.5v2a.5.5 0 0 0 .5.5h2a.5.5 0 0 0 .5-.5v-2A.5.5 0 0 0 5 9H3ZM5.5.5A1.5 1.5 0 0 1 7 2v3.5A1.5 1.5 0 0 1 5.5 7H2A1.5 1.5 0 0 1 .5 5.5V2A1.5 1.5 0 0 1 2 .5h3.5ZM2 1.5a.5.5 0 0 0-.5.5v3.5A.5.5 0 0 0 2 6h3.5a.5.5 0 0 0 .5-.5V2a.5.5 0 0 0-.5-.5H2Zm9.5 0A1.5 1.5 0 0 1 13 3v2a1.5 1.5 0 0 1-1.5 1.5h-2A1.5 1.5 0 0 1 8 5V3a1.5 1.5 0 0 1 1.5-1.5h2Zm-2 1A.5.5 0 0 0 9 3v2a.5.5 0 0 0 .5.5h2A.5.5 0 0 0 12 5V3a.5.5 0 0 0-.5-.5h-2Z" clip-rule="evenodd"/>
</svg>
