<svg xmlns="http://www.w3.org/2000/svg" width="16" height="16" fill="currentColor" viewBox="0 0 16 16">
  <path fill-rule="evenodd" d="M3 2.748A.74.74 0 0 1 3.721 2h8.058a.74.74 0 0 1 .721.748V4.5a.5.5 0 0 0 1 0V2.748C13.5 1.796 12.736 1 11.779 1H3.72C2.764 1 2 1.796 2 2.748V4h-.5a.5.5 0 0 0 0 1h2a.5.5 0 0 0 0-1H3V2.748Zm0 10.227a.5.5 0 1 0-1 0v.277C2 14.204 2.764 15 3.721 15H4.5a.5.5 0 0 0 0-1h-.779A.74.74 0 0 1 3 13.252v-.277ZM1.5 7.5a.5.5 0 0 0 0 1h2a.5.5 0 0 0 0-1H3V6a.5.5 0 0 0-1 0v1.5h-.5Zm0 3.5a.5.5 0 0 0 0 1h2a.5.5 0 0 0 0-1H3V9.5a.5.5 0 0 0-1 0V11h-.5Zm10.533-4a.033.033 0 0 0-.033.033v1.934c0 .018.015.033.033.033h1.934A.033.033 0 0 0 14 8.967V7.033A.033.033 0 0 0 13.967 7h-1.934ZM11 7.033C11 6.463 11.463 6 12.033 6h1.934C14.537 6 15 6.462 15 7.033v1.934c0 .57-.463 1.033-1.033 1.033h-1.934C11.463 10 11 9.538 11 8.967V7.033ZM6 6.21A.21.21 0 0 1 6.21 6h2.58a.21.21 0 0 1 .21.21v2.58a.21.21 0 0 1-.21.21H6.21A.21.21 0 0 1 6 8.79V6.21ZM6.21 5A1.21 1.21 0 0 0 5 6.21v2.58C5 9.457 5.542 10 6.21 10h2.58A1.21 1.21 0 0 0 10 8.79V6.21A1.21 1.21 0 0 0 8.79 5H6.21Zm5.823 7a.033.033 0 0 0-.033.033v1.934c0 .018.015.033.033.033h1.934a.033.033 0 0 0 .033-.033v-1.934a.033.033 0 0 0-.033-.033h-1.934ZM11 12.033c0-.57.463-1.033 1.033-1.033h1.934c.57 0 1.033.463 1.033 1.033v1.934c0 .57-.463 1.033-1.033 1.033h-1.934c-.57 0-1.033-.463-1.033-1.033v-1.934Zm-4 0c0-.018.015-.033.033-.033h1.934c.018 0 .033.015.033.033v1.934a.033.033 0 0 1-.033.033H7.033A.033.033 0 0 1 7 13.967v-1.934ZM7.033 11C6.463 11 6 11.463 6 12.033v1.934C6 14.537 6.462 15 7.033 15h1.934c.57 0 1.033-.463 1.033-1.033v-1.934C10 11.463 9.538 11 8.967 11H7.033Z" clip-rule="evenodd"/>
</svg>
