<svg xmlns="http://www.w3.org/2000/svg" width="16" height="16" fill="currentColor" viewBox="0 0 16 16">
  <path fill-rule="evenodd" d="M1 2.5A1.5 1.5 0 0 1 2.5 1H6a1.5 1.5 0 0 1 1.5 1.5V6A1.5 1.5 0 0 1 6 7.5H2.5A1.5 1.5 0 0 1 1 6V2.5ZM2.5 2a.5.5 0 0 0-.5.5V6a.5.5 0 0 0 .5.5H6a.5.5 0 0 0 .5-.5V2.5A.5.5 0 0 0 6 2H2.5ZM1 10a1.5 1.5 0 0 1 1.5-1.5H6A1.5 1.5 0 0 1 7.5 10v3.5A1.5 1.5 0 0 1 6 15H2.5A1.5 1.5 0 0 1 1 13.5V10Zm1.5-.5a.5.5 0 0 0-.5.5v3.5a.5.5 0 0 0 .5.5H6a.5.5 0 0 0 .5-.5V10a.5.5 0 0 0-.5-.5H2.5Zm6-7A1.5 1.5 0 0 1 10 1h3.5A1.5 1.5 0 0 1 15 2.5V6a1.5 1.5 0 0 1-1.5 1.5H10A1.5 1.5 0 0 1 8.5 6V2.5ZM10 2a.5.5 0 0 0-.5.5V6a.5.5 0 0 0 .5.5h3.5A.5.5 0 0 0 14 6V2.5a.5.5 0 0 0-.5-.5H10Zm-1.5 8A1.5 1.5 0 0 1 10 8.5h3.5A1.5 1.5 0 0 1 15 10v3.5a1.5 1.5 0 0 1-1.5 1.5H10a1.5 1.5 0 0 1-1.5-1.5V10Zm1.5-.5a.5.5 0 0 0-.5.5v3.5a.5.5 0 0 0 .5.5h3.5a.5.5 0 0 0 .5-.5V10a.5.5 0 0 0-.5-.5H10Z" clip-rule="evenodd"/>
</svg>
