<svg xmlns="http://www.w3.org/2000/svg" width="16" height="16" fill="none" viewBox="0 0 16 16">
  <path fill="#3D3C3C" fill-rule="evenodd" d="M11.44.764a.5.5 0 0 1 .672-.207l1.531.801a.5.5 0 0 1 .212.673l-.258.5c.124.166.23.343.319.527l.608.028a.5.5 0 0 1 .476.5v1.677a.5.5 0 0 1-.484.5l-.526.017a3.191 3.191 0 0 1-.125.264l-.002.003a3.64 3.64 0 0 1-.154.258l.326.561a.5.5 0 0 1-.187.687l-1.57.883a.5.5 0 0 1-.693-.214l-.235-.473a3.16 3.16 0 0 1-.54.015l-.25.469a.5.5 0 0 1-.672.207l-1.545-.81a.5.5 0 0 1-.209-.68l.265-.49a3.275 3.275 0 0 1-.302-.496l-.528.018a.5.5 0 0 1-.516-.485L7 3.748a.5.5 0 0 1 .484-.514l.525-.017a3.167 3.167 0 0 1 .277-.517l-.279-.454a.5.5 0 0 1 .162-.686L9.647.64a.5.5 0 0 1 .69.162l.278.451a3.16 3.16 0 0 1 .574-.02l.25-.468Zm.648.909-.177.33a.5.5 0 0 1-.529.257c-.3-.053-.605-.04-.893.031a.5.5 0 0 1-.546-.223l-.194-.315-.63.393.195.317a.5.5 0 0 1-.043.582 2.304 2.304 0 0 0-.427.805.5.5 0 0 1-.463.355l-.366.012.023.75.367-.012a.5.5 0 0 1 .485.327c.106.29.265.554.475.778a.5.5 0 0 1 .074.579l-.184.341.657.344.177-.33a.5.5 0 0 1 .529-.257c.3.053.605.04.893-.031a.5.5 0 0 1 .568.263l.168.337.669-.376-.236-.406a.5.5 0 0 1 .05-.572 2.294 2.294 0 0 0 .426-.805.5.5 0 0 1 .463-.355L14 4.779v-.716l-.444-.021a.5.5 0 0 1-.446-.328 2.28 2.28 0 0 0-.475-.777.5.5 0 0 1-.079-.571l.183-.353-.651-.34ZM2 3.76c0-.41.342-.76.784-.76H5.5a.5.5 0 0 0 0-1H2.784C1.808 2 1 2.78 1 3.76v6.98c0 .981.808 1.76 1.784 1.76H7.5V14H5a.5.5 0 1 0 0 1h6a.5.5 0 0 0 0-1H8.5v-1.5h4.716c.976 0 1.784-.779 1.784-1.76V9a.5.5 0 0 0-1 0v.5H2V3.76Zm0 6.74v.24c0 .411.342.76.784.76h10.432a.772.772 0 0 0 .784-.76v-.24H2Zm9.5-6a.5.5 0 1 1-1 0 .5.5 0 0 1 1 0Zm1 0a1.5 1.5 0 1 1-3 0 1.5 1.5 0 0 1 3 0Z" clip-rule="evenodd"/>
</svg>
