<svg xmlns="http://www.w3.org/2000/svg" width="16" height="16" fill="currentColor" viewBox="0 0 16 16">
  <path fill-rule="evenodd" d="M2.21 1.5a.21.21 0 0 0-.21.21v2.58c0 .116.094.21.21.21h2.58A.21.21 0 0 0 5 4.29V1.71a.21.21 0 0 0-.21-.21H2.21ZM1 1.71C1 1.043 1.542.5 2.21.5h2.58C5.457.5 6 1.042 6 1.71v2.58A1.21 1.21 0 0 1 4.79 5.5H2.21A1.21 1.21 0 0 1 1 4.29V1.71Zm7.033.79A.033.033 0 0 0 8 2.533v1.934c0 .018.015.033.033.033h1.934A.033.033 0 0 0 10 4.467V2.533a.033.033 0 0 0-.033-.033H8.033ZM7 2.533c0-.57.462-1.033 1.033-1.033h1.934c.57 0 1.033.462 1.033 1.033v1.934c0 .57-.463 1.033-1.033 1.033H8.033C7.463 5.5 7 5.038 7 4.467V2.533Zm-4.5 5c0-.018.015-.033.033-.033h1.934c.018 0 .033.015.033.033v1.934a.033.033 0 0 1-.033.033H2.533a.033.033 0 0 1-.033-.033V7.533ZM2.533 6.5c-.57 0-1.033.462-1.033 1.033v1.934c0 .57.462 1.033 1.033 1.033h1.934c.57 0 1.033-.463 1.033-1.033V7.533c0-.57-.462-1.033-1.033-1.033H2.533Zm8.532-.236a.5.5 0 0 1 .673-.207l1.75.916a.5.5 0 0 1 .212.672l-.316.612c.159.208.293.43.402.664l.738.035a.5.5 0 0 1 .476.5v1.916a.5.5 0 0 1-.484.5l-.647.021a3.587 3.587 0 0 1-.158.338l-.002.003c-.06.11-.125.22-.197.326l.395.68a.5.5 0 0 1-.187.687l-1.794 1.009a.5.5 0 0 1-.693-.214l-.291-.586c-.23.03-.465.037-.7.02l-.307.576a.5.5 0 0 1-.673.207l-1.766-.924a.5.5 0 0 1-.208-.68l.324-.6a3.673 3.673 0 0 1-.386-.633l-.65.02a.5.5 0 0 1-.515-.484L6 9.64a.5.5 0 0 1 .483-.515l.646-.02a3.645 3.645 0 0 1 .353-.66l-.342-.557a.5.5 0 0 1 .161-.686L8.99 6.148a.5.5 0 0 1 .69.163l.342.555a3.54 3.54 0 0 1 .734-.025l.308-.576Zm.649.909-.236.44a.5.5 0 0 1-.529.257 2.536 2.536 0 0 0-1.05.036.5.5 0 0 1-.547-.223l-.259-.42-.84.523.259.423a.5.5 0 0 1-.043.583 2.702 2.702 0 0 0-.502.944.5.5 0 0 1-.462.355l-.49.017.03 1 .491-.017a.5.5 0 0 1 .486.328c.124.338.31.649.557.912a.5.5 0 0 1 .075.58l-.245.453.878.46.235-.441a.5.5 0 0 1 .529-.257c.352.063.711.048 1.05-.036a.5.5 0 0 1 .569.263l.225.453.893-.502-.306-.527a.5.5 0 0 1 .049-.572 2.699 2.699 0 0 0 .502-.945.5.5 0 0 1 .462-.355l.505-.017v-.956l-.576-.027a.5.5 0 0 1-.446-.327 2.678 2.678 0 0 0-.557-.913.5.5 0 0 1-.079-.571l.241-.466-.87-.455ZM11.25 10.5a.75.75 0 1 1-1.5 0 .75.75 0 0 1 1.5 0Zm1 0a1.75 1.75 0 1 1-3.5 0 1.75 1.75 0 0 1 3.5 0Z" clip-rule="evenodd"/>
</svg>
