<svg xmlns="http://www.w3.org/2000/svg" width="16" height="16" fill="currentColor" viewBox="0 0 16 16">
  <path fill-rule="evenodd" d="M1 5a.5.5 0 0 1 .5-.5H8a.5.5 0 0 1 0 1H1.5A.5.5 0 0 1 1 5Zm11 0a.5.5 0 0 1 .5-.5h2a.5.5 0 0 1 0 1h-2A.5.5 0 0 1 12 5ZM1 11.5a.5.5 0 0 1 .5-.5h1.169a.5.5 0 0 1 0 1H1.5a.5.5 0 0 1-.5-.5Zm6 0a.5.5 0 0 1 .5-.5h7a.5.5 0 0 1 0 1h-7a.5.5 0 0 1-.5-.5Z" clip-rule="evenodd"/>
  <path fill-rule="evenodd" d="M10.25 3a1.75 1.75 0 1 0 0 3.5 1.75 1.75 0 0 0 0-3.5ZM7.5 4.75a2.75 2.75 0 1 1 5.5 0 2.75 2.75 0 0 1-5.5 0ZM5.25 9.5a1.75 1.75 0 1 0 0 3.5 1.75 1.75 0 0 0 0-3.5ZM2.5 11.25a2.75 2.75 0 1 1 5.5 0 2.75 2.75 0 0 1-5.5 0Z" clip-rule="evenodd"/>
</svg>
