<svg xmlns="http://www.w3.org/2000/svg" width="16" height="16" fill="currentColor" viewBox="0 0 16 16">
  <path fill-rule="evenodd" d="m10.666 1.136.002.001 1.68 1.017v.001c.451.27.59.856.343 1.306l-.57 1.041c.346.45.63.958.832 1.51h1.102c.548 0 .945.46.945.968v2.04c0 .516-.405.968-.945.968h-1.101a5.606 5.606 0 0 1-.834 1.51l.57 1.04a.98.98 0 0 1-.338 1.305l-.002.001-1.685 1.02-.002.002a.932.932 0 0 1-1.3-.36l-.557-1.013a5.234 5.234 0 0 1-1.612 0l-.556 1.01a.929.929 0 0 1-1.304.361l-.002-.001-1.68-1.017v-.001a.978.978 0 0 1-.343-1.306l.57-1.04a5.693 5.693 0 0 1-.833-1.51h-1.1C1.396 9.988 1 9.527 1 9.02V6.98c0-.516.405-.968.945-.968h1.101a5.62 5.62 0 0 1 .833-1.51l-.57-1.04a.98.98 0 0 1 .339-1.305l.002-.001 1.687-1.022a.932.932 0 0 1 1.3.36l.557 1.013a5.235 5.235 0 0 1 1.612 0l.556-1.01a.929.929 0 0 1 1.304-.361Zm-.456.893-.546.993a.926.926 0 0 1-.969.48 4.242 4.242 0 0 0-1.393 0H7.3a.93.93 0 0 1-.964-.48L5.79 2.03l-1.596.967.567 1.033a.985.985 0 0 1-.077 1.067l-.002.003-.002.003a4.61 4.61 0 0 0-.707 1.287v.001a.939.939 0 0 1-.88.622H2v1.976h1.093c.39 0 .748.244.881.626.171.472.412.906.707 1.286.243.312.262.74.08 1.07l-.567 1.034 1.596.967.546-.993a.926.926 0 0 1 .969-.48 4.24 4.24 0 0 0 1.393 0H8.7a.934.934 0 0 1 .962.476l.002.003.546.994 1.596-.966-.567-1.034a.985.985 0 0 1 .076-1.067l.003-.003.002-.003a4.61 4.61 0 0 0 .707-1.287V9.61a.939.939 0 0 1 .88-.622H14V7.012h-1.093a.933.933 0 0 1-.881-.626 4.694 4.694 0 0 0-.707-1.286.984.984 0 0 1-.08-1.07l.567-1.034-1.595-.967ZM8.343 6.028a2.001 2.001 0 0 0-.686 3.944m.686-3.944a2.001 2.001 0 1 1-.686 3.944M5.04 8.504a3 3 0 1 1 2.454 2.455A3.001 3.001 0 0 1 5.04 8.504Z" clip-rule="evenodd"/>
</svg>
