<svg xmlns="http://www.w3.org/2000/svg" width="16" height="16" fill="currentColor" viewBox="0 0 16 16">
  <path fill-rule="evenodd" d="M10.25 3a1.75 1.75 0 1 0 0 3.5 1.75 1.75 0 0 0 0-3.5ZM1.5 5.5h6.104a2.751 2.751 0 0 0 5.292 0H14.5a.5.5 0 0 0 0-1h-1.511a2.75 2.75 0 0 0-5.478 0H1.5a.5.5 0 0 0 0 1Zm-.5 6a.5.5 0 0 1 .5-.5h1.011a2.75 2.75 0 0 1 5.478 0H14.5a.5.5 0 0 1 0 1H7.896a2.751 2.751 0 0 1-5.292 0H1.5a.5.5 0 0 1-.5-.5Zm2.5-.25a1.75 1.75 0 1 1 3.5 0 1.75 1.75 0 0 1-3.5 0Z" clip-rule="evenodd"/>
</svg>
