<svg xmlns="http://www.w3.org/2000/svg" width="16" height="16" fill="currentColor" viewBox="0 0 16 16">
  <path fill-rule="evenodd" d="M9 10.5A1.5 1.5 0 0 1 10.5 9h3a1.5 1.5 0 0 1 1.5 1.5v3a1.5 1.5 0 0 1-1.5 1.5h-3A1.5 1.5 0 0 1 9 13.5v-3Zm1.5-.5a.5.5 0 0 0-.5.5v3a.5.5 0 0 0 .5.5h3a.5.5 0 0 0 .5-.5v-3a.5.5 0 0 0-.5-.5h-3ZM3 8a.5.5 0 0 1 .5.5v4.3c0 .106.087.2.209.2H7a.5.5 0 0 1 0 1H3.709A1.203 1.203 0 0 1 2.5 12.8V8.5A.5.5 0 0 1 3 8Z" clip-rule="evenodd"/>
  <path fill-rule="evenodd" d="M5.646 12.146a.5.5 0 0 1 .708 0l1 1a.5.5 0 0 1 0 .708l-1 1a.5.5 0 0 1-.708-.708l.647-.646-.647-.646a.5.5 0 0 1 0-.708ZM8.5 2.5A.5.5 0 0 1 9 2h3.225c.658 0 1.275.492 1.275 1.2v4.3a.5.5 0 0 1-1 0V3.2c0-.065-.073-.2-.275-.2H9a.5.5 0 0 1-.5-.5Z" clip-rule="evenodd"/>
  <path fill-rule="evenodd" d="M10.354 1.146a.5.5 0 0 1 0 .708l-.647.646.647.646a.5.5 0 0 1-.708.708l-1-1a.5.5 0 0 1 0-.708l1-1a.5.5 0 0 1 .708 0ZM4 2a2 2 0 1 0 0 4 2 2 0 0 0 0-4ZM1 4a3 3 0 1 1 6 0 3 3 0 0 1-6 0Z" clip-rule="evenodd"/>
</svg>
