<svg xmlns="http://www.w3.org/2000/svg" width="16" height="16" fill="currentColor" viewBox="0 0 16 16">
  <path fill-rule="evenodd" d="M3.5 6.5a1.5 1.5 0 1 0 0 3 1.5 1.5 0 0 0 0-3ZM1 8a2.5 2.5 0 1 1 5 0 2.5 2.5 0 0 1-5 0Zm11.5-6a1.5 1.5 0 1 0 0 3 1.5 1.5 0 0 0 0-3ZM10 3.5a2.5 2.5 0 1 1 5 0 2.5 2.5 0 0 1-5 0Zm2.5 7.5a1.5 1.5 0 1 0 0 3 1.5 1.5 0 0 0 0-3ZM10 12.5a2.5 2.5 0 1 1 5 0 2.5 2.5 0 0 1-5 0Z" clip-rule="evenodd"/>
  <path fill-rule="evenodd" d="M11.429 4.743a.5.5 0 0 1-.172.686L6.972 8l4.285 2.571a.5.5 0 1 1-.514.858l-5-3a.5.5 0 0 1 0-.858l5-3a.5.5 0 0 1 .686.172Z" clip-rule="evenodd"/>
</svg>
