<svg xmlns="http://www.w3.org/2000/svg" width="16" height="16" fill="currentColor" viewBox="0 0 16 16">
  <path fill-rule="evenodd" d="M1.5 4A1.5 1.5 0 0 1 3 2.5h10A1.5 1.5 0 0 1 14.5 4v8a1.5 1.5 0 0 1-1.5 1.5H3A1.5 1.5 0 0 1 1.5 12V4ZM3 3.5a.5.5 0 0 0-.5.5v8a.5.5 0 0 0 .5.5h10a.5.5 0 0 0 .5-.5V4a.5.5 0 0 0-.5-.5H3Z" clip-rule="evenodd"/>
  <path fill-rule="evenodd" d="M5.5 13V3h1v10h-1Zm2.646-4.646a.5.5 0 0 1 0-.708l2-2a.5.5 0 0 1 .708.708L9.207 8l1.647 1.646a.5.5 0 0 1-.708.708l-2-2Z" clip-rule="evenodd"/>
  <path fill-rule="evenodd" d="M8 8a.5.5 0 0 1 .5-.5h5a.5.5 0 0 1 0 1h-5A.5.5 0 0 1 8 8Z" clip-rule="evenodd"/>
</svg>
