<svg xmlns="http://www.w3.org/2000/svg" width="16" height="16" fill="none" viewBox="0 0 16 16">
  <path fill="#3D3C3C" fill-rule="evenodd" d="M1.5 4A1.5 1.5 0 0 1 3 2.5h10A1.5 1.5 0 0 1 14.5 4v8a1.5 1.5 0 0 1-1.5 1.5H3A1.5 1.5 0 0 1 1.5 12V4ZM3 3.5a.5.5 0 0 0-.5.5v8a.5.5 0 0 0 .5.5h10a.5.5 0 0 0 .5-.5V4a.5.5 0 0 0-.5-.5H3Z" clip-rule="evenodd"/>
  <path fill="#3D3C3C" fill-rule="evenodd" d="M5.5 13V3h1v10h-1Zm5.854-5.354a.5.5 0 0 1 0 .708l-2 2a.5.5 0 0 1-.708-.708L10.293 8 8.646 6.354a.5.5 0 1 1 .708-.708l2 2Z" clip-rule="evenodd"/>
  <path fill="#3D3C3C" fill-rule="evenodd" d="M11.5 8a.5.5 0 0 1-.5.5H6a.5.5 0 0 1 0-1h5a.5.5 0 0 1 .5.5Z" clip-rule="evenodd"/>
</svg>
