<svg width="16" height="16" viewBox="0 0 16 16" fill="none" xmlns="http://www.w3.org/2000/svg">
<path fill-rule="evenodd" clip-rule="evenodd" d="M5 11.5C5 11.2239 5.22386 11 5.5 11L7 11C7.27614 11 7.5 11.2239 7.5 11.5C7.5 11.7762 7.27614 12 7 12L5.5 12C5.22386 12 5 11.7762 5 11.5Z" fill="black"/>
<path fill-rule="evenodd" clip-rule="evenodd" d="M5 8.00003C5 7.72389 5.22386 7.50003 5.5 7.50003H7C7.27614 7.50003 7.5 7.72389 7.5 8.00003C7.5 8.27617 7.27614 8.50003 7 8.50003H5.5C5.22386 8.50003 5 8.27617 5 8.00003Z" fill="black"/>
<path fill-rule="evenodd" clip-rule="evenodd" d="M4.85653 3.5C4.41135 3.5 4 3.89156 4 4.43692V13.0631C4 13.6095 4.40804 14 4.85653 14H11.6435C12.0886 14 12.5 13.6084 12.5 13.0631V4.43692C12.5 3.89049 12.092 3.5 11.6435 3.5H10.5C10.2239 3.5 10 3.27614 10 3C10 2.72386 10.2239 2.5 10.5 2.5H11.6435C12.6984 2.5 13.5 3.39396 13.5 4.43692V13.0631C13.5 14.1071 12.6931 15 11.6435 15H4.85653C3.8016 15 3 14.106 3 13.0631V4.43692C3 3.3929 3.80693 2.5 4.85653 2.5H5.75C6.02614 2.5 6.25 2.72386 6.25 3C6.25 3.27614 6.02614 3.5 5.75 3.5H4.85653Z" fill="black"/>
<path fill-rule="evenodd" clip-rule="evenodd" d="M6.5 2V4H10V2H6.5ZM5.5 1.98232C5.5 1.44484 5.9325 1 6.4772 1H10.0228C10.5675 1 11 1.44484 11 1.98232V4.01768C11 4.55516 10.5675 5 10.0228 5H6.4772C5.9325 5 5.5 4.55516 5.5 4.01768V1.98232Z" fill="black"/>
<path fill-rule="evenodd" clip-rule="evenodd" d="M11.287 6.09059C11.5131 6.24907 11.568 6.56087 11.4095 6.787L10.0078 8.787C9.91411 8.92072 9.761 9.00026 9.59771 9.00004C9.43442 8.99983 9.28152 8.91989 9.18816 8.78592L8.58983 7.92739C8.43195 7.70083 8.48761 7.38918 8.71416 7.2313C8.94072 7.07341 9.25237 7.12907 9.41025 7.35563L9.59952 7.6272L10.5906 6.21308C10.7491 5.98695 11.0609 5.9321 11.287 6.09059Z" fill="black"/>
<path fill-rule="evenodd" clip-rule="evenodd" d="M11.287 9.59059C11.5131 9.74907 11.568 10.0609 11.4095 10.287L10.0078 12.287C9.91411 12.4207 9.761 12.5003 9.59771 12.5C9.43442 12.4998 9.28152 12.4199 9.18816 12.2859L8.58983 11.4274C8.43195 11.2008 8.48761 10.8892 8.71416 10.7313C8.94072 10.5734 9.25237 10.6291 9.41025 10.8556L9.59952 11.1272L10.5906 9.71308C10.7491 9.48695 11.0609 9.4321 11.287 9.59059Z" fill="black"/>
</svg>
