<svg width="16" height="16" viewBox="0 0 16 16" fill="none" xmlns="http://www.w3.org/2000/svg">
<path fill-rule="evenodd" clip-rule="evenodd" d="M11.3172 3.4992C12.1523 4.22254 12.2306 5.49109 11.5014 6.31813C10.8017 7.12285 9.58639 7.22925 8.75793 6.56298C8.73083 6.54709 8.70486 6.52842 8.68042 6.50695C7.85504 5.78182 7.76448 4.51427 8.49708 3.68351C9.22318 2.84922 10.4896 2.76781 11.3172 3.4992ZM10.6562 4.24961C10.2438 3.88394 9.61197 3.92483 9.25069 4.34084L9.24785 4.34411L9.24783 4.3441C8.89927 4.73851 8.92316 5.33843 9.29005 5.70828C9.30987 5.72133 9.32899 5.73595 9.34725 5.75213C9.75849 6.1168 10.3903 6.07289 10.7475 5.66113L10.7505 5.65763L10.7505 5.65764C11.117 5.24298 11.0737 4.61005 10.6612 4.25399L10.6562 4.24964L10.6562 4.24961Z" fill="black"/>
<path fill-rule="evenodd" clip-rule="evenodd" d="M12.0291 2.92999C10.4205 1.51995 7.96885 1.67795 6.56021 3.28074C5.56071 4.41653 5.3489 5.96976 5.87828 7.28079C5.94908 7.45613 5.9149 7.65641 5.78996 7.79836L1.97131 12.1367V14.038H3.95141L4.04333 12.7886C4.06124 12.5451 4.25245 12.3501 4.4956 12.3275L5.54465 12.2298V11.1313C5.54465 10.8774 5.73491 10.6639 5.9871 10.6347L7.32693 10.4794L7.98866 9.72764C8.11324 9.58611 8.30684 9.52669 8.48936 9.57397C9.86393 9.93004 11.3806 9.51954 12.3802 8.38803C13.7937 6.7798 13.6359 4.33853 12.0291 2.92999ZM5.80908 2.62059C7.58311 0.602045 10.6661 0.405377 12.6882 2.17801C14.7119 3.95199 14.9089 7.02636 13.1308 9.04881L13.1301 9.04966C11.9448 10.3916 10.1841 10.9252 8.5436 10.6107L7.95063 11.2844C7.86892 11.3772 7.7557 11.4364 7.63285 11.4507L6.54465 11.5767V12.6853C6.54465 12.9435 6.34809 13.1592 6.09103 13.1832L5.00959 13.2839L4.91463 14.5747C4.89542 14.8359 4.67789 15.038 4.41598 15.038H1.47131C1.19517 15.038 0.971313 14.8141 0.971313 14.538V11.948C0.971313 11.8264 1.01564 11.7089 1.096 11.6176L4.84303 7.36066C4.3204 5.77875 4.62434 3.96705 5.80908 2.62059Z" fill="black"/>
<path fill-rule="evenodd" clip-rule="evenodd" d="M5.83449 9.12835C6.03974 9.31308 6.05638 9.62922 5.87165 9.83448L3.62165 12.3345C3.43692 12.5397 3.12078 12.5564 2.91552 12.3716C2.71027 12.1869 2.69363 11.8708 2.87836 11.6655L5.12836 9.16551C5.31309 8.96026 5.62923 8.94362 5.83449 9.12835Z" fill="black"/>
</svg>
