<svg width="16" height="16" viewBox="0 0 16 16" fill="none" xmlns="http://www.w3.org/2000/svg">
<g clip-path="url(#clip0_437_6553)">
<path d="M3.62332 2.5H3.37668C3.16865 2.5 3 2.65477 3 2.84568V3.15432C3 3.34523 3.16865 3.5 3.37668 3.5H3.62332C3.83135 3.5 4 3.34523 4 3.15432V2.84568C4 2.65477 3.83135 2.5 3.62332 2.5Z" fill="black"/>
<path d="M5.12332 2.5H4.87668C4.66865 2.5 4.5 2.65477 4.5 2.84568V3.15432C4.5 3.34523 4.66865 3.5 4.87668 3.5H5.12332C5.33135 3.5 5.5 3.34523 5.5 3.15432V2.84568C5.5 2.65477 5.33135 2.5 5.12332 2.5Z" fill="black"/>
<path d="M6.62332 2.5H6.37668C6.16865 2.5 6 2.65477 6 2.84568V3.15432C6 3.34523 6.16865 3.5 6.37668 3.5H6.62332C6.83135 3.5 7 3.34523 7 3.15432V2.84568C7 2.65477 6.83135 2.5 6.62332 2.5Z" fill="black"/>
<path fill-rule="evenodd" clip-rule="evenodd" d="M0.966675 3.93466H15.0333V13.054C15.0333 14.1053 14.2426 15.0333 13.1753 15.0333H2.82467C1.7574 15.0333 0.966675 14.1053 0.966675 13.054V3.93466ZM1.96667 4.93466V13.054C1.96667 13.6361 2.38928 14.0333 2.82467 14.0333H13.1753C13.6107 14.0333 14.0333 13.6361 14.0333 13.054V4.93466H1.96667Z" fill="black"/>
<path fill-rule="evenodd" clip-rule="evenodd" d="M0.966675 2.94601C0.966675 1.89475 1.7574 0.966675 2.82467 0.966675H13.1753C14.2426 0.966675 15.0333 1.89475 15.0333 2.94601V4.93468H0.966675V2.94601ZM2.82467 1.96667C2.38928 1.96667 1.96667 2.36393 1.96667 2.94601V3.93468H14.0333V2.94601C14.0333 2.36393 13.6107 1.96667 13.1753 1.96667H2.82467Z" fill="black"/>
<path fill-rule="evenodd" clip-rule="evenodd" d="M6 11C7.10457 11 8 10.1046 8 9C8 7.89543 7.10457 7 6 7C4.89543 7 4 7.89543 4 9C4 10.1046 4.89543 11 6 11ZM6 12C7.65685 12 9 10.6569 9 9C9 7.34315 7.65685 6 6 6C4.34315 6 3 7.34315 3 9C3 10.6569 4.34315 12 6 12Z" fill="black"/>
<path fill-rule="evenodd" clip-rule="evenodd" d="M6 6.5C6.27614 6.5 6.5 6.72386 6.5 7V8.5H8C8.27614 8.5 8.5 8.72386 8.5 9C8.5 9.27614 8.27614 9.5 8 9.5H6.5C5.94772 9.5 5.5 9.05228 5.5 8.5V7C5.5 6.72386 5.72386 6.5 6 6.5Z" fill="black"/>
<path fill-rule="evenodd" clip-rule="evenodd" d="M10 10C10 9.72386 10.2239 9.5 10.5 9.5H12.5C12.7761 9.5 13 9.72386 13 10C13 10.2761 12.7761 10.5 12.5 10.5H10.5C10.2239 10.5 10 10.2761 10 10Z" fill="black"/>
<path fill-rule="evenodd" clip-rule="evenodd" d="M10 8C10 7.72386 10.2239 7.5 10.5 7.5H12.5C12.7761 7.5 13 7.72386 13 8C13 8.27614 12.7761 8.5 12.5 8.5H10.5C10.2239 8.5 10 8.27614 10 8Z" fill="black"/>
</g>
<defs>
<clipPath id="clip0_437_6553">
<rect width="16" height="16" fill="white"/>
</clipPath>
</defs>
</svg>
