<svg width="16" height="16" viewBox="0 0 16 16" fill="none" xmlns="http://www.w3.org/2000/svg">
<g clip-path="url(#clip0_437_6643)">
<path fill-rule="evenodd" clip-rule="evenodd" d="M8.00001 1.96667C4.66789 1.96667 1.96667 4.66789 1.96667 8.00001C1.96667 11.3321 4.66789 14.0333 8.00001 14.0333C11.3321 14.0333 14.0333 11.3321 14.0333 8.00001C14.0333 4.66789 11.3321 1.96667 8.00001 1.96667ZM0.966675 8.00001C0.966675 4.11561 4.11561 0.966675 8.00001 0.966675C11.8844 0.966675 15.0333 4.11561 15.0333 8.00001C15.0333 11.8844 11.8844 15.0333 8.00001 15.0333C4.11561 15.0333 0.966675 11.8844 0.966675 8.00001Z" fill="black"/>
<path fill-rule="evenodd" clip-rule="evenodd" d="M5.75 5C5.33579 5 5 5.33579 5 5.75C5 6.16421 5.33579 6.5 5.75 6.5C6.16421 6.5 6.5 6.16421 6.5 5.75C6.5 5.33579 6.16421 5 5.75 5ZM4 5.75C4 4.7835 4.7835 4 5.75 4C6.7165 4 7.5 4.7835 7.5 5.75C7.5 6.7165 6.7165 7.5 5.75 7.5C4.7835 7.5 4 6.7165 4 5.75Z" fill="black"/>
<path fill-rule="evenodd" clip-rule="evenodd" d="M10.25 9.5C9.83579 9.5 9.5 9.83579 9.5 10.25C9.5 10.6642 9.83579 11 10.25 11C10.6642 11 11 10.6642 11 10.25C11 9.83579 10.6642 9.5 10.25 9.5ZM8.5 10.25C8.5 9.2835 9.2835 8.5 10.25 8.5C11.2165 8.5 12 9.2835 12 10.25C12 11.2165 11.2165 12 10.25 12C9.2835 12 8.5 11.2165 8.5 10.25Z" fill="black"/>
<path fill-rule="evenodd" clip-rule="evenodd" d="M11.3536 4.64645C11.5488 4.84171 11.5488 5.15829 11.3536 5.35355L5.35355 11.3536C5.15829 11.5488 4.84171 11.5488 4.64645 11.3536C4.45118 11.1583 4.45118 10.8417 4.64645 10.6464L10.6464 4.64645C10.8417 4.45118 11.1583 4.45118 11.3536 4.64645Z" fill="black"/>
</g>
<defs>
<clipPath id="clip0_437_6643">
<rect width="16" height="16" fill="white"/>
</clipPath>
</defs>
</svg>
