<svg width="16" height="16" viewBox="0 0 16 16" fill="none" xmlns="http://www.w3.org/2000/svg">
<path fill-rule="evenodd" clip-rule="evenodd" d="M8.43133 1.07862C10.5873 2.23176 12.5663 2.86835 13.3202 3.08634L13.326 3.08803L13.326 3.08806C13.7075 3.20338 14.0173 3.54489 14.0173 3.98667V9.582C14.0173 10.3451 13.672 11.0384 13.2047 11.6303C12.7357 12.2244 12.1131 12.7559 11.4819 13.2075C10.2188 14.1111 8.8439 14.7481 8.36604 14.9583L8.35698 14.9622C8.12191 15.0602 7.86211 15.0602 7.62703 14.9622L7.61881 14.9587C7.13778 14.7481 5.76285 14.1111 4.50025 13.2074C3.8693 12.7558 3.2472 12.2242 2.77856 11.6302C2.31155 11.0381 1.96667 10.345 1.96667 9.582V3.99133C1.96667 3.55858 2.26777 3.20343 2.66405 3.09092C3.42431 2.86639 5.40607 2.23409 7.54929 1.07795L7.78667 1.518L7.54385 1.08092C7.81948 0.927796 8.15511 0.92703 8.43133 1.07862ZM7.98981 1.97649C5.79245 3.15729 3.76966 3.80629 2.96667 4.04424V9.582C2.96667 10.037 3.17363 10.5164 3.56368 11.0108C3.95211 11.5032 4.4923 11.972 5.08226 12.3942C6.23831 13.2216 7.51177 13.8187 7.99194 14.0304C8.47132 13.8181 9.74407 13.2212 10.9001 12.3942C11.4904 11.9719 12.031 11.5031 12.4198 11.0106C12.8102 10.5161 13.0173 10.0369 13.0173 9.582V4.03971C12.2089 3.80452 10.1927 3.15092 7.98981 1.97649Z" fill="black"/>
<path fill-rule="evenodd" clip-rule="evenodd" d="M6 7.58239V10.4175C7.21619 10.5275 8.78846 10.5275 10 10.4176V7.58247C8.78381 7.47253 7.21154 7.47252 6 7.58239ZM5.66746 6.61031C7.04845 6.46322 8.94583 6.46325 10.3323 6.61029L10.3415 6.61135C10.7002 6.65611 11 6.95322 11 7.34638V10.6536C11 11.056 10.6851 11.3437 10.3444 11.3883L10.3325 11.3897C8.95155 11.5368 7.05417 11.5368 5.66769 11.3897L5.6585 11.3887C5.29982 11.3439 5 11.0468 5 10.6536V7.34638C5 6.94401 5.3149 6.65626 5.6556 6.61172L5.66746 6.61031Z" fill="black"/>
<path fill-rule="evenodd" clip-rule="evenodd" d="M8 4.5C7.3485 4.5 7 4.91533 7 5.22136V5.5C7 5.77614 6.77614 6 6.5 6C6.22386 6 6 5.77614 6 5.5V5.22136C6 4.18065 6.99825 3.5 8 3.5C8.52107 3.5 9.00579 3.66987 9.37437 3.96973L9.37762 3.97237L9.37761 3.97239C9.73534 4.26844 10 4.7022 10 5.22136V5.5C10 5.77614 9.77614 6 9.5 6C9.22386 6 9 5.77614 9 5.5V5.22136C9 5.06299 8.92148 4.89357 8.74167 4.74413C8.56232 4.59889 8.30464 4.5 8 4.5Z" fill="black"/>
</svg>
