<svg width="16" height="16" viewBox="0 0 16 16" fill="none" xmlns="http://www.w3.org/2000/svg">
<path fill-rule="evenodd" clip-rule="evenodd" d="M2.08201 2.48486L6.35827 6.64163C6.45512 6.73577 6.50976 6.86509 6.50976 7.00015V13.7097C6.50976 13.7843 6.56963 13.9218 6.83782 13.9815C7.09942 14.0397 7.33766 13.9593 7.44895 13.8176L7.45353 13.8119L9.49034 11.2961L9.49034 7.24865C9.49034 7.11862 9.541 6.99369 9.63158 6.90039L13.9107 2.49232L13.9161 2.48683C13.976 2.42696 13.9937 2.37593 13.9984 2.34088C14.0035 2.30331 13.9971 2.25854 13.9708 2.21009C13.9188 2.11405 13.7814 2 13.545 2H2.45508C2.21862 2 2.08123 2.11405 2.02922 2.21009C2.00299 2.25854 1.99656 2.30331 2.00165 2.34088C2.00635 2.37555 2.02364 2.42584 2.08201 2.48486ZM13.545 1C14.1212 1 14.6108 1.29184 14.8502 1.73388C15.0967 2.18904 15.0502 2.76488 14.6258 3.19133L10.4903 7.45143L10.4903 11.4732C10.4903 11.5877 10.451 11.6988 10.3789 11.7878L8.23281 14.4386C7.8191 14.9622 7.14283 15.0739 6.62049 14.9576C6.10369 14.8425 5.50976 14.4376 5.50976 13.7097V7.21142L1.37723 3.19437C0.949997 2.76762 0.902809 2.19011 1.14989 1.73388C1.38787 1.29446 1.87304 1.00347 2.44484 1.00003C2.4467 1.00001 2.44857 1 2.45044 1H13.545Z" fill="black"/>
</svg>
