<svg width="16" height="16" viewBox="0 0 16 16" fill="none" xmlns="http://www.w3.org/2000/svg">
<path fill-rule="evenodd" clip-rule="evenodd" d="M4.5 7C4.5 6.72386 4.72386 6.5 5 6.5H11C11.2761 6.5 11.5 6.72386 11.5 7C11.5 7.27614 11.2761 7.5 11 7.5H5C4.72386 7.5 4.5 7.27614 4.5 7Z" fill="black"/>
<path fill-rule="evenodd" clip-rule="evenodd" d="M4.5 9C4.5 8.72386 4.72386 8.5 5 8.5H11C11.2761 8.5 11.5 8.72386 11.5 9C11.5 9.27614 11.2761 9.5 11 9.5H5C4.72386 9.5 4.5 9.27614 4.5 9Z" fill="black"/>
<path fill-rule="evenodd" clip-rule="evenodd" d="M4.5 11C4.5 10.7239 4.72386 10.5 5 10.5H9C9.27614 10.5 9.5 10.7239 9.5 11C9.5 11.2761 9.27614 11.5 9 11.5H5C4.72386 11.5 4.5 11.2761 4.5 11Z" fill="black"/>
<path fill-rule="evenodd" clip-rule="evenodd" d="M2.5 2.86915C2.5 1.82574 3.36161 1 4.40095 1H10L10.3536 1.14645L13.8536 4.64645L14 5V13.1308C14 14.1743 13.1384 15 12.099 15H4.40095C3.36161 15 2.5 14.1743 2.5 13.1308V2.86915ZM4.40095 2C3.89212 2 3.5 2.39954 3.5 2.86915V13.1308C3.5 13.6005 3.89213 14 4.40095 14H12.099C12.6079 14 13 13.6005 13 13.1308V5.20711L9.79289 2H4.40095Z" fill="black"/>
<path fill-rule="evenodd" clip-rule="evenodd" d="M10 1C10.2761 1 10.5 1.22386 10.5 1.5V4.30095C10.5 4.41 10.59 4.5 10.699 4.5H13.5C13.7761 4.5 14 4.72386 14 5C14 5.27614 13.7761 5.5 13.5 5.5H10.699C10.0377 5.5 9.5 4.96228 9.5 4.30095V1.5C9.5 1.22386 9.72386 1 10 1Z" fill="black"/>
</svg>
