<svg width="16" height="16" viewBox="0 0 16 16" fill="none" xmlns="http://www.w3.org/2000/svg">
<path fill-rule="evenodd" clip-rule="evenodd" d="M2.27196 3.47059C2.09229 3.47059 1.96429 3.61189 1.96429 3.76271V6.73729C1.96429 6.88811 2.09229 7.02941 2.27196 7.02941H3.25C3.51628 7.02941 3.73214 7.24669 3.73214 7.51471C3.73214 7.78273 3.51628 8 3.25 8H2.27196C1.58061 8 1 7.44493 1 6.73729V3.76271C1 3.05507 1.58061 2.5 2.27196 2.5H5.01786C5.28414 2.5 5.5 2.71727 5.5 2.98529C5.5 3.25331 5.28414 3.47059 5.01786 3.47059H2.27196Z" fill="black"/>
<path fill-rule="evenodd" clip-rule="evenodd" d="M2.52818 6.17791C2.73995 6.00427 3.07468 6.01171 3.27582 6.19453L4.36274 7.18249C4.55657 7.35868 4.55659 7.63507 4.36276 7.81127L3.27585 8.79937C3.07473 8.9822 2.74 8.98967 2.52822 8.81604C2.31643 8.64242 2.30778 8.35345 2.5089 8.17061L3.24997 7.49692L2.50892 6.82334C2.30778 6.64052 2.3164 6.35155 2.52818 6.17791Z" fill="black"/>
<path fill-rule="evenodd" clip-rule="evenodd" d="M13.7182 8.47059C13.862 8.47059 14 8.5906 14 8.76271V11.7373C14 11.9094 13.862 12.0294 13.7182 12.0294H12.75C12.4739 12.0294 12.25 12.2467 12.25 12.5147C12.25 12.7827 12.4739 13 12.75 13H13.7182C14.4365 13 15 12.4236 15 11.7373V8.76271C15 8.07636 14.4365 7.5 13.7182 7.5H11C10.7239 7.5 10.5 7.71727 10.5 7.98529C10.5 8.25331 10.7239 8.47059 11 8.47059H13.7182Z" fill="black"/>
<path fill-rule="evenodd" clip-rule="evenodd" d="M13.4497 11.1616C13.2389 10.9805 12.9058 10.9883 12.7056 11.1789L11.6516 12.1825C11.4587 12.3662 11.4587 12.6544 11.6516 12.8382L12.7055 13.8419C12.9057 14.0326 13.2389 14.0404 13.4497 13.8593C13.6605 13.6783 13.6691 13.377 13.4689 13.1863L12.7592 12.5104L13.4689 11.8346C13.6691 11.644 13.6605 11.3427 13.4497 11.1616Z" fill="black"/>
<path fill-rule="evenodd" clip-rule="evenodd" d="M5 2C5 1.44772 5.44772 1 6 1H10C10.5523 1 11 1.44772 11 2V4C11 4.55228 10.5523 5 10 5H6C5.44772 5 5 4.55228 5 4V2ZM10 2H6V4H10V2Z" fill="black"/>
<path fill-rule="evenodd" clip-rule="evenodd" d="M5 7C5 6.44772 5.44772 6 6 6H10C10.5523 6 11 6.44772 11 7V9C11 9.55228 10.5523 10 10 10H6C5.44772 10 5 9.55228 5 9V7ZM10 7H6V9H10V7Z" fill="black"/>
<path fill-rule="evenodd" clip-rule="evenodd" d="M5 12C5 11.4477 5.44772 11 6 11H10C10.5523 11 11 11.4477 11 12V14C11 14.5523 10.5523 15 10 15H6C5.44772 15 5 14.5523 5 14V12ZM10 12H6V14H10V12Z" fill="black"/>
</svg>
