<svg width="16" height="16" viewBox="0 0 16 16" fill="none" xmlns="http://www.w3.org/2000/svg">
<path fill-rule="evenodd" clip-rule="evenodd" d="M10.2922 4.51612C10.7042 4.21457 11.2432 4 11.9473 4C12.7742 4 13.5384 4.41148 14.0854 5.00438C14.6342 5.59912 15 6.41277 15 7.28296C15 9.29256 13.7087 11 11.6735 11H4.00161C2.31171 11 1 9.59188 1 7.92926C1 6.74731 1.73089 5.63691 2.86813 5.17924L2.86838 5.17914C3.32255 4.99664 3.79548 4.96871 4.35398 5.10167L4.70072 5.16593C4.97224 5.21625 5.15155 5.47715 5.10123 5.74867C5.05091 6.02019 4.79001 6.19951 4.51849 6.14918L4.15888 6.08254C4.14998 6.08089 4.14113 6.079 4.13233 6.07687C3.74071 5.98204 3.47952 6.01128 3.24123 6.10703C2.485 6.41148 2 7.1531 2 7.92926C2 9.07371 2.8975 10 4.00161 10H11.6735C13.0171 10 14 8.89072 14 7.28296C14 6.69173 13.7485 6.11391 13.3505 5.68251C12.9507 5.24929 12.4386 5 11.9473 5C11.4633 5 11.1298 5.14234 10.8828 5.3231C10.6599 5.48619 10.3471 5.43774 10.184 5.2149C10.0209 4.99206 10.0693 4.67921 10.2922 4.51612Z" fill="black"/>
<path fill-rule="evenodd" clip-rule="evenodd" d="M7.99994 2.01311C6.17089 2.01311 4.68237 3.50799 4.68237 5.36226V5.51311C4.68237 5.78925 4.45852 6.01311 4.18237 6.01311C3.90623 6.01311 3.68237 5.78925 3.68237 5.51311V5.36226C3.68237 2.96348 5.61085 1.01311 7.99994 1.01311C9.99537 1.01311 11.6692 2.37434 12.1652 4.21516C12.237 4.48179 12.0791 4.75618 11.8124 4.82801C11.5458 4.89984 11.2714 4.74193 11.1996 4.47529C10.8171 3.05577 9.52768 2.01311 7.99994 2.01311Z" fill="black"/>
<path fill-rule="evenodd" clip-rule="evenodd" d="M8 10C8.27614 10 8.5 10.2239 8.5 10.5V12.2033C8.5 12.4795 8.27614 12.7033 8 12.7033C7.72386 12.7033 7.5 12.4795 7.5 12.2033V10.5C7.5 10.2239 7.72386 10 8 10Z" fill="black"/>
<path fill-rule="evenodd" clip-rule="evenodd" d="M3 13.5C3 13.2239 3.22386 13 3.5 13H6.5C6.77614 13 7 13.2239 7 13.5C7 13.7761 6.77614 14 6.5 14H3.5C3.22386 14 3 13.7761 3 13.5Z" fill="black"/>
<path fill-rule="evenodd" clip-rule="evenodd" d="M9 13.5C9 13.2239 9.22386 13 9.5 13H12.5C12.7761 13 13 13.2239 13 13.5C13 13.7761 12.7761 14 12.5 14H9.5C9.22386 14 9 13.7761 9 13.5Z" fill="black"/>
<path fill-rule="evenodd" clip-rule="evenodd" d="M8 13C7.72386 13 7.5 13.2239 7.5 13.5C7.5 13.7761 7.72386 14 8 14C8.27614 14 8.5 13.7761 8.5 13.5C8.5 13.2239 8.27614 13 8 13ZM9.5 13.5C9.5 14.3284 8.82843 15 8 15C7.17157 15 6.5 14.3284 6.5 13.5C6.5 12.6716 7.17157 12 8 12C8.82843 12 9.5 12.6716 9.5 13.5Z" fill="black"/>
</svg>
