<svg width="16" height="16" viewBox="0 0 16 16" fill="none" xmlns="http://www.w3.org/2000/svg">
<path fill-rule="evenodd" clip-rule="evenodd" d="M8 5.5C7.44772 5.5 7 5.94772 7 6.5C7 7.05228 7.44772 7.5 8 7.5C8.55228 7.5 9 7.05228 9 6.5C9 5.94772 8.55228 5.5 8 5.5ZM6 6.5C6 5.39543 6.89543 4.5 8 4.5C9.10457 4.5 10 5.39543 10 6.5C10 7.60457 9.10457 8.5 8 8.5C6.89543 8.5 6 7.60457 6 6.5Z" fill="black"/>
<path fill-rule="evenodd" clip-rule="evenodd" d="M6.00003 10.399L6.00999 11.4955C6.0125 11.7716 5.79068 11.9975 5.51455 12C5.23842 12.0025 5.01254 11.7807 5.01003 11.5045L5 10.4007C5 9.57391 5.72815 9 6.509 9H9.491C10.2683 9 11.008 9.57639 11 10.4052M11 10.4057L10.99 11.5045C10.9875 11.7807 10.7616 12.0025 10.4854 12C10.2093 11.9975 9.9875 11.7716 9.99001 11.4955L10 10.3956C10.0016 10.2357 9.83238 10 9.491 10H6.509C6.17209 10 6.00114 10.2281 6.00003 10.399" fill="black"/>
<path fill-rule="evenodd" clip-rule="evenodd" d="M8 4C5.79086 4 4 5.79086 4 8C4 10.2091 5.79086 12 8 12C10.2091 12 12 10.2091 12 8C12 5.79086 10.2091 4 8 4ZM3 8C3 5.23858 5.23858 3 8 3C10.7614 3 13 5.23858 13 8C13 10.7614 10.7614 13 8 13C5.23858 13 3 10.7614 3 8Z" fill="black"/>
<path fill-rule="evenodd" clip-rule="evenodd" d="M2.84855 2.85431C3.04352 2.65876 3.3601 2.65828 3.55566 2.85325L5.10296 4.39592C5.29852 4.59089 5.29899 4.90747 5.10402 5.10302C4.90905 5.29858 4.59247 5.29905 4.39692 5.10408L2.84961 3.56142C2.65406 3.36645 2.65358 3.04987 2.84855 2.85431Z" fill="black"/>
<path fill-rule="evenodd" clip-rule="evenodd" d="M2.5 2C2.22386 2 2 2.22386 2 2.5C2 2.77614 2.22386 3 2.5 3C2.77614 3 3 2.77614 3 2.5C3 2.22386 2.77614 2 2.5 2ZM1 2.5C1 1.67157 1.67157 1 2.5 1C3.32843 1 4 1.67157 4 2.5C4 3.32843 3.32843 4 2.5 4C1.67157 4 1 3.32843 1 2.5Z" fill="black"/>
<path fill-rule="evenodd" clip-rule="evenodd" d="M13.1677 2.91277C13.3587 3.11217 13.3519 3.42868 13.1525 3.61971L11.5959 5.11105C11.3965 5.30208 11.08 5.2953 10.889 5.0959C10.6979 4.8965 10.7047 4.57999 10.9041 4.38895L12.4607 2.89762C12.6601 2.70659 12.9767 2.71337 13.1677 2.91277Z" fill="black"/>
<path fill-rule="evenodd" clip-rule="evenodd" d="M13.5 2C13.2239 2 13 2.22386 13 2.5C13 2.77614 13.2239 3 13.5 3C13.7761 3 14 2.77614 14 2.5C14 2.22386 13.7761 2 13.5 2ZM12 2.5C12 1.67157 12.6716 1 13.5 1C14.3284 1 15 1.67157 15 2.5C15 3.32843 14.3284 4 13.5 4C12.6716 4 12 3.32843 12 2.5Z" fill="black"/>
<path fill-rule="evenodd" clip-rule="evenodd" d="M5.10355 10.8964C5.29882 11.0917 5.29882 11.4083 5.10355 11.6036L3.60355 13.1036C3.40829 13.2988 3.09171 13.2988 2.89645 13.1036C2.70118 12.9083 2.70118 12.5917 2.89645 12.3964L4.39645 10.8964C4.59171 10.7012 4.90829 10.7012 5.10355 10.8964Z" fill="black"/>
<path fill-rule="evenodd" clip-rule="evenodd" d="M2.5 13C2.22386 13 2 13.2239 2 13.5C2 13.7761 2.22386 14 2.5 14C2.77614 14 3 13.7761 3 13.5C3 13.2239 2.77614 13 2.5 13ZM1 13.5C1 12.6716 1.67157 12 2.5 12C3.32843 12 4 12.6716 4 13.5C4 14.3284 3.32843 15 2.5 15C1.67157 15 1 14.3284 1 13.5Z" fill="black"/>
<path fill-rule="evenodd" clip-rule="evenodd" d="M10.8964 10.8964C11.0917 10.7012 11.4083 10.7012 11.6036 10.8964L13.1036 12.3964C13.2988 12.5917 13.2988 12.9083 13.1036 13.1036C12.9083 13.2988 12.5917 13.2988 12.3964 13.1036L10.8964 11.6036C10.7012 11.4083 10.7012 11.0917 10.8964 10.8964Z" fill="black"/>
<path fill-rule="evenodd" clip-rule="evenodd" d="M13.5 13C13.2239 13 13 13.2239 13 13.5C13 13.7761 13.2239 14 13.5 14C13.7761 14 14 13.7761 14 13.5C14 13.2239 13.7761 13 13.5 13ZM12 13.5C12 12.6716 12.6716 12 13.5 12C14.3284 12 15 12.6716 15 13.5C15 14.3284 14.3284 15 13.5 15C12.6716 15 12 14.3284 12 13.5Z" fill="black"/>
</svg>
