<svg width="16" height="16" viewBox="0 0 16 16" fill="none" xmlns="http://www.w3.org/2000/svg">
<path fill-rule="evenodd" clip-rule="evenodd" d="M2 8C2 7.72386 2.22386 7.5 2.5 7.5H4.5C4.77614 7.5 5 7.72386 5 8C5 8.27614 4.77614 8.5 4.5 8.5H2.5C2.22386 8.5 2 8.27614 2 8Z" fill="black"/>
<path fill-rule="evenodd" clip-rule="evenodd" d="M3.5 5.5C3.77614 5.5 4 5.72386 4 6V8C4 8.27614 3.77614 8.5 3.5 8.5C3.22386 8.5 3 8.27614 3 8V6C3 5.72386 3.22386 5.5 3.5 5.5Z" fill="black"/>
<path fill-rule="evenodd" clip-rule="evenodd" d="M2 4.5C2 4.22386 2.22386 4 2.5 4H4.5C4.77614 4 5 4.22386 5 4.5C5 4.77614 4.77614 5 4.5 5H2.5C2.22386 5 2 4.77614 2 4.5Z" fill="black"/>
<path fill-rule="evenodd" clip-rule="evenodd" d="M2 11.5C2 11.2239 2.22386 11 2.5 11H4.5C4.77614 11 5 11.2239 5 11.5C5 11.7761 4.77614 12 4.5 12H2.5C2.22386 12 2 11.7761 2 11.5Z" fill="black"/>
<path fill-rule="evenodd" clip-rule="evenodd" d="M3.5 9C3.77614 9 4 9.22386 4 9.5V11C4 11.2761 3.77614 11.5 3.5 11.5C3.22386 11.5 3 11.2761 3 11V9.5C3 9.22386 3.22386 9 3.5 9Z" fill="black"/>
<path fill-rule="evenodd" clip-rule="evenodd" d="M5.5 6.5C5.5 6.22386 5.72386 6 6 6H7.5C7.77614 6 8 6.22386 8 6.5C8 6.77614 7.77614 7 7.5 7H6C5.72386 7 5.5 6.77614 5.5 6.5Z" fill="black"/>
<path fill-rule="evenodd" clip-rule="evenodd" d="M5.5 11C5.5 10.7239 5.72386 10.5 6 10.5H7.5C7.77614 10.5 8 10.7239 8 11C8 11.2761 7.77614 11.5 7.5 11.5H6C5.72386 11.5 5.5 11.2761 5.5 11Z" fill="black"/>
<path fill-rule="evenodd" clip-rule="evenodd" d="M5.5 9.5C5.5 9.22386 5.72386 9 6 9H7.5C7.77614 9 8 9.22386 8 9.5C8 9.77614 7.77614 10 7.5 10H6C5.72386 10 5.5 9.77614 5.5 9.5Z" fill="black"/>
<path fill-rule="evenodd" clip-rule="evenodd" d="M5.5 5C5.5 4.72386 5.72386 4.5 6 4.5L7.5 4.5C7.77614 4.5 8 4.72386 8 5.00001C8 5.27615 7.77614 5.5 7.5 5.5L6 5.5C5.72386 5.5 5.5 5.27614 5.5 5Z" fill="black"/>
<path fill-rule="evenodd" clip-rule="evenodd" d="M4.72108 2C4.33649 2 4 2.32806 4 2.748V4.41687C4 4.69301 3.77614 4.91687 3.5 4.91687C3.22386 4.91687 3 4.69301 3 4.41687V2.748C3 1.79644 3.76376 1 4.72108 1H12.7789C13.7362 1 14.5 1.79644 14.5 2.748V13.252C14.5 14.2036 13.7362 15 12.7789 15H4.72108C3.76376 15 3 14.2036 3 13.252V12.9748C3 12.6986 3.22386 12.4748 3.5 12.4748C3.77614 12.4748 4 12.6986 4 12.9748V13.252C4 13.6719 4.33649 14 4.72108 14H12.7789C13.1635 14 13.5 13.6719 13.5 13.252V2.748C13.5 2.32806 13.1635 2 12.7789 2H4.72108Z" fill="black"/>
<path fill-rule="evenodd" clip-rule="evenodd" d="M9.53292 4.5C9.51474 4.5 9.5 4.51474 9.5 4.53292V6.46708C9.5 6.48526 9.51474 6.5 9.53292 6.5H11.4671C11.4853 6.5 11.5 6.48526 11.5 6.46708V4.53292C11.5 4.51474 11.4853 4.5 11.4671 4.5H9.53292ZM8.5 4.53292C8.5 3.96245 8.96245 3.5 9.53292 3.5H11.4671C12.0375 3.5 12.5 3.96245 12.5 4.53292V6.46708C12.5 7.03755 12.0375 7.5 11.4671 7.5H9.53292C8.96245 7.5 8.5 7.03755 8.5 6.46708V4.53292Z" fill="black"/>
<path fill-rule="evenodd" clip-rule="evenodd" d="M9.53292 9.5C9.51474 9.5 9.5 9.51474 9.5 9.53292V11.4671C9.5 11.4853 9.51474 11.5 9.53292 11.5H11.4671C11.4853 11.5 11.5 11.4853 11.5 11.4671V9.53292C11.5 9.51474 11.4853 9.5 11.4671 9.5H9.53292ZM8.5 9.53292C8.5 8.96245 8.96245 8.5 9.53292 8.5H11.4671C12.0375 8.5 12.5 8.96245 12.5 9.53292V11.4671C12.5 12.0375 12.0375 12.5 11.4671 12.5H9.53292C8.96245 12.5 8.5 12.0375 8.5 11.4671V9.53292Z" fill="black"/>
</svg>
