<svg width="16" height="16" viewBox="0 0 16 16" fill="none" xmlns="http://www.w3.org/2000/svg">
<path fill-rule="evenodd" clip-rule="evenodd" d="M1 2.5C1 1.67157 1.67157 1 2.5 1H6C6.82843 1 7.5 1.67157 7.5 2.5V6C7.5 6.82843 6.82843 7.5 6 7.5H2.5C1.67157 7.5 1 6.82843 1 6V2.5ZM2.5 2C2.22386 2 2 2.22386 2 2.5V6C2 6.27614 2.22386 6.5 2.5 6.5H6C6.27614 6.5 6.5 6.27614 6.5 6V2.5C6.5 2.22386 6.27614 2 6 2H2.5Z" fill="black"/>
<path fill-rule="evenodd" clip-rule="evenodd" d="M1 10C1 9.17157 1.67157 8.5 2.5 8.5H6C6.82843 8.5 7.5 9.17157 7.5 10V13.5C7.5 14.3284 6.82843 15 6 15H2.5C1.67157 15 1 14.3284 1 13.5V10ZM2.5 9.5C2.22386 9.5 2 9.72386 2 10V13.5C2 13.7761 2.22386 14 2.5 14H6C6.27614 14 6.5 13.7761 6.5 13.5V10C6.5 9.72386 6.27614 9.5 6 9.5H2.5Z" fill="black"/>
<path fill-rule="evenodd" clip-rule="evenodd" d="M8.5 2.5C8.5 1.67157 9.17157 1 10 1H13.5C14.3284 1 15 1.67157 15 2.5V6C15 6.82843 14.3284 7.5 13.5 7.5H10C9.17157 7.5 8.5 6.82843 8.5 6V2.5ZM10 2C9.72386 2 9.5 2.22386 9.5 2.5V6C9.5 6.27614 9.72386 6.5 10 6.5H13.5C13.7761 6.5 14 6.27614 14 6V2.5C14 2.22386 13.7761 2 13.5 2H10Z" fill="black"/>
<path fill-rule="evenodd" clip-rule="evenodd" d="M8.5 10C8.5 9.17157 9.17157 8.5 10 8.5H13.5C14.3284 8.5 15 9.17157 15 10V13.5C15 14.3284 14.3284 15 13.5 15H10C9.17157 15 8.5 14.3284 8.5 13.5V10ZM10 9.5C9.72386 9.5 9.5 9.72386 9.5 10V13.5C9.5 13.7761 9.72386 14 10 14H13.5C13.7761 14 14 13.7761 14 13.5V10C14 9.72386 13.7761 9.5 13.5 9.5H10Z" fill="black"/>
</svg>
