<svg width="16" height="16" viewBox="0 0 16 16" fill="none" xmlns="http://www.w3.org/2000/svg">
<path fill-rule="evenodd" clip-rule="evenodd" d="M2.15926 4.16855C2.05713 4.25162 2 4.36235 2 4.51256V13.3846C2 13.6947 2.26771 13.9815 2.64507 13.9815H7.85841C8.13455 13.9815 8.35841 14.2053 8.35841 14.4815C8.35841 14.7576 8.13455 14.9815 7.85841 14.9815H2.64507C1.75634 14.9815 1 14.2871 1 13.3846V4.51256C1 4.06113 1.19287 3.66557 1.52824 3.39278C1.85523 3.1268 2.28734 3 2.75 3H3C3.27614 3 3.5 3.22386 3.5 3.5C3.5 3.77614 3.27614 4 3 4H2.75C2.46266 4 2.26977 4.07865 2.15926 4.16855Z" fill="black"/>
<path fill-rule="evenodd" clip-rule="evenodd" d="M10.5 3.5C10.5 3.22386 10.7239 3 11 3H11.25C12.1489 3 13 3.62072 13 4.5522V7C13 7.27614 12.7761 7.5 12.5 7.5C12.2239 7.5 12 7.27614 12 7V4.5522C12 4.32142 11.7577 4 11.25 4H11C10.7239 4 10.5 3.77614 10.5 3.5Z" fill="black"/>
<path fill-rule="evenodd" clip-rule="evenodd" d="M1 6C1 5.72386 1.22386 5.5 1.5 5.5H12C12.2761 5.5 12.5 5.72386 12.5 6C12.5 6.27614 12.2761 6.5 12 6.5H1.5C1.22386 6.5 1 6.27614 1 6Z" fill="black"/>
<path fill-rule="evenodd" clip-rule="evenodd" d="M4.52429 3.49174C4.52429 3.21559 4.74815 2.99174 5.02429 2.99174H9.00412C9.28026 2.99174 9.50412 3.21559 9.50412 3.49174C9.50412 3.76788 9.28026 3.99174 9.00412 3.99174H5.02429C4.74815 3.99174 4.52429 3.76788 4.52429 3.49174Z" fill="black"/>
<path fill-rule="evenodd" clip-rule="evenodd" d="M5 2C5.27614 2 5.5 2.2251 5.5 2.50277V4.49723C5.5 4.7749 5.27614 5 5 5C4.72386 5 4.5 4.7749 4.5 4.49723V2.50277C4.5 2.2251 4.72386 2 5 2Z" fill="black"/>
<path fill-rule="evenodd" clip-rule="evenodd" d="M9 2C9.27614 2 9.5 2.2251 9.5 2.50277V4.49723C9.5 4.7749 9.27614 5 9 5C8.72386 5 8.5 4.7749 8.5 4.49723V2.50277C8.5 2.2251 8.72386 2 9 2Z" fill="black"/>
<path fill-rule="evenodd" clip-rule="evenodd" d="M8 11.5C8 9.56951 9.56388 8 11.5 8C13.4361 8 15 9.56951 15 11.5C15 13.431 13.431 15 11.5 15C9.56388 15 8 13.4305 8 11.5ZM11.5 9C10.1172 9 9 10.1208 9 11.5C9 12.8792 10.1172 14 11.5 14C12.8787 14 14 12.8787 14 11.5C14 10.1208 12.8828 9 11.5 9Z" fill="black"/>
<path fill-rule="evenodd" clip-rule="evenodd" d="M12.787 10.0905C13.0131 10.249 13.068 10.5608 12.9095 10.787L11.5078 12.787C11.4141 12.9207 11.261 13.0002 11.0977 13C10.9344 12.9998 10.7815 12.9198 10.6882 12.7859L10.0898 11.9273C9.93195 11.7008 9.98761 11.3891 10.2142 11.2313C10.4407 11.0734 10.7524 11.129 10.9103 11.3556L11.0995 11.6272L12.0906 10.213C12.2491 9.9869 12.5609 9.93206 12.787 10.0905Z" fill="black"/>
<path d="M4.12814 8H3.87186C3.66583 8 3.5 8.155 3.5 8.345V8.655C3.5 8.845 3.66583 9 3.87186 9H4.12814C4.33417 9 4.5 8.845 4.5 8.655V8.345C4.5 8.155 4.33417 8 4.12814 8Z" fill="black"/>
<path d="M6.12814 8H5.87186C5.66583 8 5.5 8.155 5.5 8.345V8.655C5.5 8.845 5.66583 9 5.87186 9H6.12814C6.33417 9 6.5 8.845 6.5 8.655V8.345C6.5 8.155 6.33417 8 6.12814 8Z" fill="black"/>
<path d="M4.12814 10H3.87186C3.66583 10 3.5 10.155 3.5 10.345V10.655C3.5 10.845 3.66583 11 3.87186 11H4.12814C4.33417 11 4.5 10.845 4.5 10.655V10.345C4.5 10.155 4.33417 10 4.12814 10Z" fill="black"/>
<path d="M6.12814 10H5.87186C5.66583 10 5.5 10.155 5.5 10.345V10.655C5.5 10.845 5.66583 11 5.87186 11H6.12814C6.33417 11 6.5 10.845 6.5 10.655V10.345C6.5 10.155 6.33417 10 6.12814 10Z" fill="black"/>
<path d="M4.12814 12H3.87186C3.66583 12 3.5 12.155 3.5 12.345V12.655C3.5 12.845 3.66583 13 3.87186 13H4.12814C4.33417 13 4.5 12.845 4.5 12.655V12.345C4.5 12.155 4.33417 12 4.12814 12Z" fill="black"/>
<path d="M6.12814 12H5.87186C5.66583 12 5.5 12.155 5.5 12.345V12.655C5.5 12.845 5.66583 13 5.87186 13H6.12814C6.33417 13 6.5 12.845 6.5 12.655V12.345C6.5 12.155 6.33417 12 6.12814 12Z" fill="black"/>
</svg>
