<svg width="16" height="16" viewBox="0 0 16 16" fill="none" xmlns="http://www.w3.org/2000/svg">
<path fill-rule="evenodd" clip-rule="evenodd" d="M6.25 2.75C6.25 1.78318 7.03318 1 8 1C8.96682 1 9.75 1.78318 9.75 2.75C9.75 3.71682 8.96682 4.5 8 4.5C7.03318 4.5 6.25 3.71682 6.25 2.75ZM8 2C7.58546 2 7.25 2.33546 7.25 2.75C7.25 3.16454 7.58546 3.5 8 3.5C8.41454 3.5 8.75 3.16454 8.75 2.75C8.75 2.33546 8.41454 2 8 2Z" fill="black"/>
<path fill-rule="evenodd" clip-rule="evenodd" d="M2.25 9.75001C2.25 8.78319 3.03318 8.00001 4 8.00001C4.96682 8.00001 5.75 8.78319 5.75 9.75001C5.75 10.7168 4.96682 11.5 4 11.5C3.03318 11.5 2.25 10.7168 2.25 9.75001ZM4 9.00001C3.58546 9.00001 3.25 9.33547 3.25 9.75001C3.25 10.1645 3.58546 10.5 4 10.5C4.41454 10.5 4.75 10.1645 4.75 9.75001C4.75 9.33547 4.41454 9.00001 4 9.00001Z" fill="black"/>
<path fill-rule="evenodd" clip-rule="evenodd" d="M10.25 9.75001C10.25 8.78319 11.0332 8.00001 12 8.00001C12.9668 8.00001 13.75 8.78319 13.75 9.75001C13.75 10.7168 12.9668 11.5 12 11.5C11.0332 11.5 10.25 10.7168 10.25 9.75001ZM12 9.00001C11.5855 9.00001 11.25 9.33547 11.25 9.75001C11.25 10.1645 11.5855 10.5 12 10.5C12.4145 10.5 12.75 10.1645 12.75 9.75001C12.75 9.33547 12.4145 9.00001 12 9.00001Z" fill="black"/>
<path fill-rule="evenodd" clip-rule="evenodd" d="M6.14445 6.14933C6.02599 6.23894 5.99952 6.32212 6.00001 6.37301L6.00006 6.37783L6.00003 7H9.99996V6.32771C10.0007 6.25074 9.97014 6.18263 9.89261 6.12098C9.80832 6.05395 9.66988 6 9.49707 6H6.59982C6.43357 6 6.26361 6.05919 6.14445 6.14933ZM5.54117 5.3518C5.83625 5.12859 6.21861 5 6.59982 5H9.49707C10.1985 5 11.0069 5.45537 11 6.33473V7.5C11 7.77614 10.7761 8 10.5 8H5.50003C5.22389 8 5.00003 7.77614 5.00003 7.5V6.37992C4.99671 5.92984 5.24599 5.57509 5.54117 5.3518Z" fill="black"/>
<path fill-rule="evenodd" clip-rule="evenodd" d="M2.14445 13.1743C2.02599 13.2639 1.99952 13.3471 2.00001 13.398L2.00006 13.4028L2.00003 14.025H5.99996V13.3527C6.00071 13.2757 5.97014 13.2076 5.89261 13.146C5.80832 13.0789 5.66988 13.025 5.49707 13.025H2.59982C2.43357 13.025 2.26361 13.0842 2.14445 13.1743ZM1.54117 12.3768C1.83625 12.1536 2.21861 12.025 2.59982 12.025H5.49707C6.19851 12.025 7.00685 12.4804 6.99996 13.3597V14.525C6.99996 14.8011 6.77611 15.025 6.49996 15.025H1.50003C1.22389 15.025 1.00003 14.8011 1.00003 14.525V13.4049C0.996709 12.9548 1.24599 12.6001 1.54117 12.3768Z" fill="black"/>
<path fill-rule="evenodd" clip-rule="evenodd" d="M10.1445 13.1743C10.026 13.2639 9.99952 13.3471 10 13.398L10.0001 13.4028L10 14.025H14V13.3527C14.0007 13.2757 13.9701 13.2076 13.8926 13.146C13.8083 13.0789 13.6699 13.025 13.4971 13.025H10.5998C10.4336 13.025 10.2636 13.0842 10.1445 13.1743ZM9.54117 12.3768C9.83625 12.1536 10.2186 12.025 10.5998 12.025H13.4971C14.1985 12.025 15.0069 12.4804 15 13.3597V14.525C15 14.8011 14.7761 15.025 14.5 15.025H9.50003C9.22389 15.025 9.00003 14.8011 9.00003 14.525V13.4049C8.99671 12.9548 9.24599 12.6001 9.54117 12.3768Z" fill="black"/>
<path fill-rule="evenodd" clip-rule="evenodd" d="M8 8.5C8.27614 8.5 8.5 8.72386 8.5 9V10C8.5 10.2761 8.27614 10.5 8 10.5C7.72386 10.5 7.5 10.2761 7.5 10V9C7.5 8.72386 7.72386 8.5 8 8.5Z" fill="black"/>
<path fill-rule="evenodd" clip-rule="evenodd" d="M7.7227 9.58397C7.89065 9.47201 8.10945 9.47201 8.2774 9.58397L9.7774 10.584C10.0072 10.7372 10.0693 11.0476 9.91608 11.2774C9.7629 11.5071 9.45247 11.5692 9.2227 11.416L8.00005 10.6009L6.7774 11.416C6.54764 11.5692 6.2372 11.5071 6.08403 11.2774C5.93085 11.0476 5.99294 10.7372 6.2227 10.584L7.7227 9.58397Z" fill="black"/>
</svg>
