<svg width="16" height="16" viewBox="0 0 16 16" fill="none" xmlns="http://www.w3.org/2000/svg">
<path d="M4.62814 6.5H4.37186C4.16583 6.5 4 6.655 4 6.845V7.155C4 7.345 4.16583 7.5 4.37186 7.5H4.62814C4.83417 7.5 5 7.345 5 7.155V6.845C5 6.655 4.83417 6.5 4.62814 6.5Z" fill="black"/>
<path d="M8.12814 6.5H7.87186C7.66583 6.5 7.5 6.655 7.5 6.845V7.155C7.5 7.345 7.66583 7.5 7.87186 7.5H8.12814C8.33417 7.5 8.5 7.345 8.5 7.155V6.845C8.5 6.655 8.33417 6.5 8.12814 6.5Z" fill="black"/>
<path d="M11.6281 6.5H11.3719C11.1658 6.5 11 6.655 11 6.845V7.155C11 7.345 11.1658 7.5 11.3719 7.5H11.6281C11.8342 7.5 12 7.345 12 7.155V6.845C12 6.655 11.8342 6.5 11.6281 6.5Z" fill="black"/>
<path fill-rule="evenodd" clip-rule="evenodd" d="M1 4.25123C1 2.98082 2.08291 2 3.35714 2H12.6429C13.9171 2 15 2.98082 15 4.25123V9.94056C15 10.558 14.7643 11.0894 14.3379 11.4602C13.919 11.8245 13.3564 12 12.75 12H7.6609L5.09731 13.8405C5.08962 13.846 5.08178 13.8513 5.07379 13.8564C4.72857 14.0756 4.33027 14.0119 4.06462 13.878C3.80372 13.7465 3.5 13.4574 3.5 13.0302V12H3.25C2.64452 12 2.082 11.8261 1.66285 11.463C1.2359 11.0932 1 10.5625 1 9.94492V4.25123ZM3.35714 3C2.57923 3 2 3.58745 2 4.25123V9.94492C2 10.2944 2.12606 10.5413 2.3176 10.7072C2.51692 10.8799 2.82941 11 3.25 11H4C4.27614 11 4.5 11.2239 4.5 11.5V12.9766C4.50433 12.9794 4.50927 12.9823 4.51476 12.9851C4.52499 12.9902 4.53542 12.9941 4.54508 12.9966C4.54877 12.9976 4.55208 12.9983 4.55498 12.9988L7.2084 11.0938C7.29339 11.0328 7.39538 11 7.5 11H12.75C13.1697 11 13.482 10.8793 13.6816 10.7057C13.8738 10.5386 14 10.2903 14 9.94056V4.25123C14 3.58745 13.4208 3 12.6429 3H3.35714Z" fill="black"/>
</svg>
