<svg width="16" height="16" viewBox="0 0 16 16" fill="none" xmlns="http://www.w3.org/2000/svg">
<path fill-rule="evenodd" clip-rule="evenodd" d="M12.5 1C12.7761 1 13 1.22386 13 1.5V3.5C13 3.77614 12.7761 4 12.5 4H10.5C10.2239 4 10 3.77614 10 3.5C10 3.22386 10.2239 3 10.5 3H12V1.5C12 1.22386 12.2239 1 12.5 1Z" fill="black"/>
<path fill-rule="evenodd" clip-rule="evenodd" d="M3 12.5C3 12.2239 3.22386 12 3.5 12H5.5C5.77614 12 6 12.2239 6 12.5C6 12.7761 5.77614 13 5.5 13H4V14.5C4 14.7761 3.77614 15 3.5 15C3.22386 15 3 14.7761 3 14.5V12.5Z" fill="black"/>
<path fill-rule="evenodd" clip-rule="evenodd" d="M8 2C4.68489 2 2 4.68489 2 8C2 9.09542 2.29384 10.1177 2.80385 10.9997C2.94208 11.2388 2.86034 11.5446 2.62129 11.6828C2.38223 11.8211 2.07638 11.7393 1.93815 11.5003C1.34316 10.4713 1 9.27708 1 8C1 4.13261 4.13261 1 8 1C9.90812 1 11.571 1.61387 12.8536 2.89645C13.0488 3.09171 13.0488 3.40829 12.8536 3.60355C12.6583 3.79882 12.3417 3.79882 12.1464 3.60355C11.076 2.53313 9.67988 2 8 2Z" fill="black"/>
<path fill-rule="evenodd" clip-rule="evenodd" d="M13.3787 4.31716C13.6178 4.17893 13.9236 4.26067 14.0618 4.49972C14.6568 5.5287 15 6.72292 15 8.00001C15 11.8674 11.8674 15 8 15C6.09188 15 4.42903 14.3861 3.14645 13.1036C2.95118 12.9083 2.95118 12.5917 3.14645 12.3965C3.34171 12.2012 3.65829 12.2012 3.85355 12.3965C4.92397 13.4669 6.32011 14 8 14C11.3151 14 14 11.3151 14 8.00001C14 6.90459 13.7062 5.88231 13.1961 5.00029C13.0579 4.76124 13.1397 4.45539 13.3787 4.31716Z" fill="black"/>
<path fill-rule="evenodd" clip-rule="evenodd" d="M6.69877 3.64721C6.7926 3.55298 6.9201 3.50001 7.05308 3.50001L8.99223 3.50001C9.26489 3.50001 9.48729 3.71847 9.49215 3.99109L9.50435 4.67527C9.72901 4.78038 9.94032 4.90771 10.1366 5.05358L10.6797 4.74142C10.7949 4.67519 10.9317 4.65756 11.06 4.6924C11.1882 4.72725 11.2973 4.81171 11.3632 4.92714L12.3486 6.65445C12.4851 6.89373 12.4023 7.19835 12.1635 7.33567L11.6217 7.64723C11.6344 7.76612 11.6416 7.88758 11.6423 8.01189L11.6423 8.01575L11.6423 8.01575C11.642 8.13807 11.6368 8.26156 11.6251 8.38524L12.1823 8.71811C12.4158 8.85762 12.4949 9.15819 12.3604 9.3946L11.3928 11.0952C11.3264 11.212 11.2157 11.2971 11.0858 11.3314C10.9559 11.3657 10.8177 11.3463 10.7023 11.2775L10.1531 10.9502C9.96419 11.0867 9.76026 11.2049 9.54426 11.3014L9.547 11.9427C9.54757 12.0769 9.4942 12.2057 9.39889 12.3001C9.30358 12.3945 9.17432 12.4467 9.04017 12.4448L7.08716 12.4181C6.81454 12.4144 6.59516 12.193 6.594 11.9203L6.59121 11.2675C6.36824 11.1628 6.15844 11.0362 5.96345 10.8913L5.4204 11.2035C5.30519 11.2697 5.16835 11.2873 5.04011 11.2525C4.91187 11.2176 4.80278 11.1332 4.73692 11.0177L3.75151 9.29043C3.615 9.05115 3.69775 8.74653 3.93657 8.60921L4.47795 8.29793C4.46486 8.17771 4.45751 8.05443 4.45778 7.92913C4.45804 7.80681 4.46332 7.68332 4.47494 7.55964L3.91781 7.22677C3.68431 7.08726 3.60517 6.78669 3.73968 6.55028L4.70727 4.84965C4.77371 4.73288 4.88435 4.64776 5.01425 4.61347C5.14416 4.57918 5.28239 4.59862 5.39781 4.6674L5.94697 4.99465C6.13589 4.85814 6.33982 4.73999 6.55582 4.64347L6.55308 4.00214C6.55251 3.86917 6.60494 3.74144 6.69877 3.64721ZM7.55522 4.50001L7.55728 4.98409C7.55822 5.20227 7.41757 5.39586 7.20979 5.4624C6.87864 5.56846 6.5772 5.74524 6.32512 5.97313C6.16228 6.12035 5.92244 6.14413 5.73386 6.03175L5.32415 5.78759L4.8509 6.61937L5.27393 6.87212C5.45618 6.98101 5.5498 7.19313 5.50741 7.40117C5.47377 7.56627 5.45817 7.74362 5.45777 7.93126C5.4574 8.1046 5.47856 8.28233 5.5148 8.4607C5.55766 8.67167 5.46067 8.88639 5.27404 8.99371L4.86703 9.22773L5.35694 10.0865L5.76412 9.85244C5.95207 9.7444 6.18822 9.76979 6.34891 9.9153C6.61438 10.1557 6.92008 10.3425 7.25543 10.4602C7.45499 10.5303 7.58887 10.7183 7.58978 10.9298L7.59189 11.4249L8.54483 11.438L8.5428 10.9608C8.54187 10.7426 8.68251 10.549 8.89029 10.4825C9.22145 10.3764 9.52288 10.1996 9.77496 9.97175C9.93781 9.82453 10.1776 9.80075 10.3662 9.91314L10.7759 10.1573L11.2492 9.32551L10.8262 9.07276C10.6439 8.96387 10.5503 8.75175 10.5927 8.54372C10.6262 8.37919 10.6418 8.20251 10.6423 8.01559C10.6412 7.83513 10.6209 7.65936 10.5853 7.48418C10.5424 7.27321 10.6394 7.05849 10.826 6.95118L11.2331 6.71715L10.7431 5.85839L10.336 6.09244C10.148 6.20048 9.91186 6.1751 9.75117 6.02959C9.4857 5.7892 9.18 5.60242 8.84465 5.48467C8.64744 5.41543 8.51411 5.23081 8.51038 5.02183L8.50107 4.50001L7.55522 4.50001Z" fill="black"/>
<path fill-rule="evenodd" clip-rule="evenodd" d="M8 8.75C8.41421 8.75 8.75 8.41421 8.75 8C8.75 7.58579 8.41421 7.25 8 7.25C7.58579 7.25 7.25 7.58579 7.25 8C7.25 8.41421 7.58579 8.75 8 8.75ZM8 9.75C8.9665 9.75 9.75 8.9665 9.75 8C9.75 7.0335 8.9665 6.25 8 6.25C7.0335 6.25 6.25 7.0335 6.25 8C6.25 8.9665 7.0335 9.75 8 9.75Z" fill="black"/>
</svg>
