<svg xmlns="http://www.w3.org/2000/svg" width="16" height="16" fill="currentColor" viewBox="0 0 16 16">
  <path d="M10.5 6a1.5 1.5 0 0 1 .5 2.912V10h1.087a1.5 1.5 0 1 1 0 1H11v1.087a1.5 1.5 0 1 1-1 0V8.912A1.498 1.498 0 0 1 10.5 6Zm0 7a.5.5 0 1 0 0 1 .5.5 0 0 0 0-1Zm1.715-12C13.468 1 14.5 2 14.5 3.252V7a.5.5 0 0 1-1 0V3.252C13.5 2.57 12.934 2 12.215 2H3.286C2.566 2 2 2.57 2 3.252v5.693c0 .341.13.59.33.76.208.177.523.295.92.295H4a.5.5 0 0 1 .5.5v1.433l2.18-1.817A.5.5 0 0 1 7 10h1.5a.5.5 0 0 1 0 1H7.182l-2.183 1.818a.517.517 0 0 1-.045.034c-.353.233-.745.153-1.003-.02A1.016 1.016 0 0 1 3.5 12v-1h-.25c-.59 0-1.149-.176-1.57-.534A1.958 1.958 0 0 1 1 8.946V3.251C1 2 2.033 1 3.286 1h8.929Zm1.285 9a.5.5 0 1 0 0 1 .5.5 0 0 0 0-1Zm-3-3a.5.5 0 1 0 0 1 .5.5 0 0 0 0-1Z"/>
</svg>
