<svg width="16" height="16" viewBox="0 0 16 16" fill="none" xmlns="http://www.w3.org/2000/svg">
<path fill-rule="evenodd" clip-rule="evenodd" d="M8 4C7.44734 4 7 4.44617 7 5C7 5.55383 7.44734 6 8 6C8.55185 6 9 5.5509 9 5C9 4.44617 8.55266 4 8 4ZM6 5C6 3.89298 6.89595 3 8 3C9.10405 3 10 3.89298 10 5C10 6.10246 9.10486 7 8 7C6.89595 7 6 6.10701 6 5Z" fill="black"/>
<path fill-rule="evenodd" clip-rule="evenodd" d="M4.5 8.25C4.77614 8.25 5 8.47386 5 8.75V13.0097L8.15312 14.024C8.41599 14.1086 8.56054 14.3902 8.47598 14.6531C8.39142 14.916 8.10976 15.0605 7.84688 14.976L4.34688 13.8501C4.14016 13.7836 4 13.5913 4 13.3741V8.75C4 8.47386 4.22386 8.25 4.5 8.25Z" fill="black"/>
<path fill-rule="evenodd" clip-rule="evenodd" d="M4.53154 8.02668C4.62054 7.99638 4.71627 7.99178 4.80776 8.01342L5.86505 8.26342C6.13379 8.32696 6.30013 8.59632 6.23658 8.86505C6.17304 9.13379 5.90368 9.30013 5.63495 9.23658L4.71766 9.01969L2 9.94503V13.8016L4.53154 12.9396C4.79295 12.8506 5.07701 12.9903 5.16602 13.2517C5.25502 13.5132 5.11527 13.7972 4.85386 13.8862L1.66116 14.9733C1.50848 15.0253 1.3401 15.0004 1.20895 14.9066C1.0778 14.8127 1 14.6613 1 14.5V9.58709C1 9.37306 1.13623 9.18276 1.33884 9.11378L4.53154 8.02668Z" fill="black"/>
<path fill-rule="evenodd" clip-rule="evenodd" d="M11.1962 8.01333C11.2877 7.99178 11.3833 7.99643 11.4722 8.02674L14.6613 9.11383C14.8638 9.18287 15 9.37312 15 9.58709V14.5C15 14.6613 14.9222 14.8127 14.791 14.9066C14.6598 15.0005 14.4914 15.0253 14.3387 14.9733L11.1496 13.8862C10.8882 13.7971 10.7486 13.513 10.8377 13.2516C10.9268 12.9902 11.2109 12.8506 11.4722 12.9396L14 13.8013V9.9449L11.2857 9.01964L10.3647 9.23667C10.0959 9.30001 9.82666 9.13346 9.76332 8.86468C9.69998 8.5959 9.86653 8.32667 10.1353 8.26333L11.1962 8.01333Z" fill="black"/>
<path fill-rule="evenodd" clip-rule="evenodd" d="M11.5 8.25C11.7761 8.25 12 8.47386 12 8.75V13.3741C12 13.5913 11.8598 13.7836 11.6531 13.8501L8.15312 14.976C8.001 15.0249 7.83465 14.9982 7.70552 14.9041C7.57638 14.81 7.5 14.6598 7.5 14.5V11.5C7.5 11.2239 7.72386 11 8 11C8.27614 11 8.5 11.2239 8.5 11.5V13.8139L11 13.0097V8.75C11 8.47386 11.2239 8.25 11.5 8.25Z" fill="black"/>
<path fill-rule="evenodd" clip-rule="evenodd" d="M8 2C6.34416 2 5 3.34112 5 4.99339L5 4.9942C4.99908 5.56836 5.1874 6.23803 5.5018 6.94404C5.81363 7.64429 6.23418 8.34664 6.66204 8.97686C7.08896 9.6057 7.51701 10.1538 7.83868 10.5449C7.89611 10.6147 7.95008 10.6794 7.99997 10.7386C8.04969 10.6796 8.10346 10.6151 8.16068 10.5455C8.48201 10.1548 8.90965 9.60712 9.3363 8.97855C9.76388 8.34862 10.1843 7.64636 10.4964 6.94584C10.811 6.23962 11 5.56909 11 4.99339C11 3.34112 9.65585 2 8 2ZM8 11.5L8.36805 11.8384C8.27337 11.9414 8.13989 12 8.00001 12C7.86014 12 7.72665 11.9414 7.63197 11.8385L8 11.5ZM4 4.99299C4.00022 2.78641 5.79421 1 8 1C10.2059 1 12 2.78663 12 4.99339C12 5.76792 11.7515 6.58582 11.4099 7.35276C11.0657 8.12539 10.6111 8.88101 10.1637 9.54017C9.71535 10.2007 9.268 10.7734 8.93307 11.1807C8.76538 11.3846 8.62531 11.5477 8.52664 11.6605C8.47729 11.7169 8.43826 11.7607 8.41127 11.7907C8.39777 11.8058 8.38727 11.8173 8.38 11.8253L8.37153 11.8346L8.36915 11.8372L8.36844 11.838C8.36836 11.8381 8.36805 11.8384 8 11.5C7.63197 11.8385 7.63206 11.8385 7.63197 11.8385L7.63158 11.838L7.62849 11.8347L7.62001 11.8254C7.61273 11.8173 7.60222 11.8057 7.58871 11.7907C7.56168 11.7606 7.52261 11.7168 7.4732 11.6603C7.37443 11.5475 7.23421 11.3842 7.06635 11.1801C6.73108 10.7724 6.28332 10.1994 5.83469 9.53855C5.38701 8.87913 4.93229 8.12333 4.58828 7.35084C4.2469 6.58424 3.99884 5.76672 4 4.99299Z" fill="black"/>
</svg>
