<svg width="16" height="16" viewBox="0 0 16 16" fill="none" xmlns="http://www.w3.org/2000/svg">
<path fill-rule="evenodd" clip-rule="evenodd" d="M1 8C1 6.89723 1.89723 6 3 6C4.10277 6 5 6.89723 5 8C5 9.10277 4.10277 10 3 10C1.89723 10 1 9.10277 1 8ZM3 7C2.44952 7 2 7.44952 2 8C2 8.55048 2.44952 9 3 9C3.55048 9 4 8.55048 4 8C4 7.44952 3.55048 7 3 7Z" fill="black"/>
<path fill-rule="evenodd" clip-rule="evenodd" d="M4.02216 8C4.02216 7.72386 4.24601 7.5 4.52216 7.5H11.4964C11.7726 7.5 11.9964 7.72386 11.9964 8C11.9964 8.27614 11.7726 8.5 11.4964 8.5H4.52216C4.24601 8.5 4.02216 8.27614 4.02216 8Z" fill="black"/>
<path fill-rule="evenodd" clip-rule="evenodd" d="M6.5 2.99674C6.50179 2.7206 6.72709 2.49821 7.00322 2.50001L10.9918 2.52601C11.268 2.52781 11.4904 2.75312 11.4886 3.02926C11.4868 3.3054 11.2615 3.52779 10.9854 3.52599L6.99675 3.49999C6.72062 3.49819 6.49821 3.27288 6.5 2.99674Z" fill="black"/>
<path fill-rule="evenodd" clip-rule="evenodd" d="M6.5 13C6.5 12.7239 6.72386 12.5 7 12.5H11.0079C11.284 12.5 11.5079 12.7239 11.5079 13C11.5079 13.2761 11.284 13.5 11.0079 13.5H7C6.72386 13.5 6.5 13.2761 6.5 13Z" fill="black"/>
<path fill-rule="evenodd" clip-rule="evenodd" d="M11 8C11 6.89723 11.8972 6 13 6C14.1028 6 15 6.89723 15 8C15 9.10277 14.1028 10 13 10C11.8972 10 11 9.10277 11 8ZM13 7C12.4495 7 12 7.44952 12 8C12 8.55048 12.4495 9 13 9C13.5505 9 14 8.55048 14 8C14 7.44952 13.5505 7 13 7Z" fill="black"/>
<path fill-rule="evenodd" clip-rule="evenodd" d="M11 3C11 1.89723 11.8972 1 13 1C14.1028 1 15 1.89723 15 3C15 4.10277 14.1028 5 13 5C11.8972 5 11 4.10277 11 3ZM13 2C12.4495 2 12 2.44952 12 3C12 3.55048 12.4495 4 13 4C13.5505 4 14 3.55048 14 3C14 2.44952 13.5505 2 13 2Z" fill="black"/>
<path fill-rule="evenodd" clip-rule="evenodd" d="M7.00964 2.5C7.28579 2.5 7.50964 2.72386 7.50964 3V13C7.50964 13.2761 7.28579 13.5 7.00964 13.5C6.7335 13.5 6.50964 13.2761 6.50964 13V3C6.50964 2.72386 6.7335 2.5 7.00964 2.5Z" fill="black"/>
<path fill-rule="evenodd" clip-rule="evenodd" d="M11 13C11 11.8972 11.8972 11 13 11C14.1028 11 15 11.8972 15 13C15 14.1028 14.1028 15 13 15C11.8972 15 11 14.1028 11 13ZM13 12C12.4495 12 12 12.4495 12 13C12 13.5505 12.4495 14 13 14C13.5505 14 14 13.5505 14 13C14 12.4495 13.5505 12 13 12Z" fill="black"/>
</svg>
