<svg width="16" height="16" viewBox="0 0 16 16" fill="none" xmlns="http://www.w3.org/2000/svg">
<path fill-rule="evenodd" clip-rule="evenodd" d="M8 3C5.59141 3 3.41448 3.9074 1.83988 5.36672C1.63734 5.55443 1.32099 5.54241 1.13328 5.33987C0.945572 5.13734 0.957593 4.82098 1.16013 4.63328C2.91909 3.0031 5.3386 2 8 2C10.6614 2 13.0809 3.0031 14.8399 4.63328C15.0424 4.82098 15.0544 5.13734 14.8667 5.33987C14.679 5.54241 14.3627 5.55443 14.1601 5.36672C12.5855 3.9074 10.4086 3 8 3Z" fill="black"/>
<path fill-rule="evenodd" clip-rule="evenodd" d="M8 6C6.39293 6 4.93098 6.69823 3.86573 7.84094C3.67744 8.04293 3.36105 8.05403 3.15906 7.86573C2.95707 7.67744 2.94597 7.36105 3.13427 7.15906C4.37271 5.83057 6.09297 5 8 5C9.90703 5 11.6273 5.83057 12.8657 7.15906C13.054 7.36105 13.0429 7.67744 12.8409 7.86573C12.639 8.05403 12.3226 8.04293 12.1343 7.84094C11.069 6.69823 9.60707 6 8 6Z" fill="black"/>
<path fill-rule="evenodd" clip-rule="evenodd" d="M8 9C7.1557 9 6.39574 9.32988 5.84739 9.85961C5.64879 10.0515 5.33225 10.046 5.14039 9.84739C4.94853 9.64879 4.954 9.33225 5.15261 9.14039C5.88356 8.43427 6.89117 8 8 8C9.10883 8 10.1164 8.43427 10.8474 9.14039C11.046 9.33225 11.0515 9.64879 10.8596 9.84739C10.6677 10.046 10.3512 10.0515 10.1526 9.85961C9.60426 9.32988 8.8443 9 8 9Z" fill="black"/>
<path fill-rule="evenodd" clip-rule="evenodd" d="M8 11C7.86594 11 7.74218 11.0541 7.64816 11.1482L7.6441 11.1522L7.64407 11.1522C7.5555 11.2388 7.5 11.3597 7.5 11.5C7.5 11.7757 7.72428 12 8 12C8.27572 12 8.5 11.7757 8.5 11.5C8.5 11.3659 8.44586 11.2422 8.35184 11.1482L8.34778 11.1441L8.3478 11.1441C8.26204 11.0563 8.13725 11 8 11ZM6.94308 10.439C7.21404 10.1691 7.58737 10 8 10C8.40945 10 8.79001 10.1669 9.06097 10.4431C9.33092 10.714 9.5 11.0874 9.5 11.5C9.5 12.328 8.82801 13 8 13C7.17199 13 6.5 12.328 6.5 11.5C6.5 11.0853 6.66772 10.7092 6.94308 10.439Z" fill="black"/>
</svg>
