<svg width="16" height="16" viewBox="0 0 16 16" fill="none" xmlns="http://www.w3.org/2000/svg">
<path fill-rule="evenodd" clip-rule="evenodd" d="M4.00028 5.65792C4.00029 5.65813 4.0003 5.65833 4.00032 5.65854L4.4325 12.1293C4.50362 13.2042 5.38982 14.0333 6.44839 14.0333H9.36293C10.4215 14.0333 11.3077 13.2045 11.3788 12.1297L11.811 5.6488C11.811 5.64893 11.811 5.64867 11.811 5.6488C11.8161 5.56652 11.7497 5.504 11.6825 5.504H4.13349C4.06619 5.504 3.99483 5.56619 4.00028 5.65792ZM9.3778 15.0333C9.37595 15.0333 9.37409 15.0333 9.37223 15.0333H6.44839C4.85748 15.0333 3.54038 13.7904 3.43472 12.196L3.0023 5.72146C2.96162 5.07619 3.4665 4.504 4.13349 4.504H11.6825C12.3403 4.504 12.8502 5.067 12.809 5.71253L12.8089 5.71394L12.3766 12.1957C12.3766 12.1958 12.3766 12.1956 12.3766 12.1957C12.2713 13.7851 10.9621 15.0256 9.3778 15.0333Z" fill="black"/>
<path fill-rule="evenodd" clip-rule="evenodd" d="M6.5 7C6.77614 7 7 7.22386 7 7.5V11.9473C7 12.2235 6.77614 12.4473 6.5 12.4473C6.22386 12.4473 6 12.2235 6 11.9473V7.5C6 7.22386 6.22386 7 6.5 7Z" fill="black"/>
<path fill-rule="evenodd" clip-rule="evenodd" d="M9.5 7C9.77614 7 10 7.22386 10 7.5V11.9473C10 12.2235 9.77614 12.4473 9.5 12.4473C9.22386 12.4473 9 12.2235 9 11.9473V7.5C9 7.22386 9.22386 7 9.5 7Z" fill="black"/>
<path fill-rule="evenodd" clip-rule="evenodd" d="M3 3C3 2.72386 3.22386 2.5 3.5 2.5H12.5C12.7761 2.5 13 2.72386 13 3C13 3.27614 12.7761 3.5 12.5 3.5H3.5C3.22386 3.5 3 3.27614 3 3Z" fill="black"/>
<path fill-rule="evenodd" clip-rule="evenodd" d="M7.60932 2.12628C7.52375 2.19593 7.5 2.2656 7.5 2.31618V2.5C7.5 2.77614 7.27614 3 7 3C6.72386 3 6.5 2.77614 6.5 2.5V2.31618C6.5 1.49659 7.27471 1 8 1C8.3854 1 8.74543 1.12856 9.0202 1.34888C9.30623 1.57822 9.5 1.92113 9.5 2.31618V2.5C9.5 2.77614 9.27614 3 9 3C8.72386 3 8.5 2.77614 8.5 2.5V2.31618C8.5 2.26269 8.47543 2.19384 8.39464 2.12906C8.30261 2.05526 8.16482 2 8 2C7.83285 2 7.69606 2.05568 7.60932 2.12628Z" fill="black"/>
</svg>
