<svg width="16" height="16" viewBox="0 0 16 16" fill="none" xmlns="http://www.w3.org/2000/svg">
<path fill-rule="evenodd" clip-rule="evenodd" d="M2.5 2.5C2.5 1.67157 3.17157 1 4 1H12C12.8284 1 13.5 1.67157 13.5 2.5V13.5C13.5 14.3284 12.8284 15 12 15H4C3.17157 15 2.5 14.3284 2.5 13.5V2.5ZM4 2C3.72386 2 3.5 2.22386 3.5 2.5V13.5C3.5 13.7761 3.72386 14 4 14H12C12.2761 14 12.5 13.7761 12.5 13.5V2.5C12.5 2.22386 12.2761 2 12 2H4Z" fill="black"/>
<path fill-rule="evenodd" clip-rule="evenodd" d="M6 4.5C6 3.39504 6.89504 2.5 8 2.5C9.10496 2.5 10 3.39504 10 4.5C10 5.60496 9.10496 6.5 8 6.5C6.89504 6.5 6 5.60496 6 4.5ZM8 3.5C7.44733 3.5 7 3.94733 7 4.5C7 5.05267 7.44733 5.5 8 5.5C8.55267 5.5 9 5.05267 9 4.5C9 3.94733 8.55267 3.5 8 3.5Z" fill="black"/>
<path fill-rule="evenodd" clip-rule="evenodd" d="M6.14445 8.14933C6.02599 8.23894 5.99952 8.32212 6.00001 8.37301L6.00006 8.37783L6.00003 9H9.99996V8.32771C10.0007 8.25074 9.97014 8.18263 9.89261 8.12098C9.80832 8.05395 9.66988 8 9.49707 8H6.59982C6.43357 8 6.26361 8.05919 6.14445 8.14933ZM5.54117 7.3518C5.83625 7.12859 6.21861 7 6.59982 7H9.49707C10.1985 7 11.0069 7.45537 11 8.33473V9.5C11 9.77614 10.7761 10 10.5 10H5.50003C5.22389 10 5.00003 9.77614 5.00003 9.5V8.37992C4.99671 7.92984 5.24599 7.57509 5.54117 7.3518Z" fill="black"/>
<path fill-rule="evenodd" clip-rule="evenodd" d="M5 11.5C5 11.2239 5.22386 11 5.5 11H10.5C10.7761 11 11 11.2239 11 11.5C11 11.7761 10.7761 12 10.5 12H5.5C5.22386 12 5 11.7761 5 11.5Z" fill="black"/>
<path fill-rule="evenodd" clip-rule="evenodd" d="M5 13C5 12.7239 5.22386 12.5 5.5 12.5H10.5C10.7761 12.5 11 12.7239 11 13C11 13.2761 10.7761 13.5 10.5 13.5H5.5C5.22386 13.5 5 13.2761 5 13Z" fill="black"/>
</svg>
