<svg width="16" height="16" viewBox="0 0 16 16" fill="none" xmlns="http://www.w3.org/2000/svg">
<path fill-rule="evenodd" clip-rule="evenodd" d="M12.5 1C12.7761 1 13 1.22386 13 1.5V3.5C13 3.77614 12.7761 4 12.5 4H10.5C10.2239 4 10 3.77614 10 3.5C10 3.22386 10.2239 3 10.5 3H12V1.5C12 1.22386 12.2239 1 12.5 1Z" fill="black"/>
<path fill-rule="evenodd" clip-rule="evenodd" d="M3 12.5C3 12.2239 3.22386 12 3.5 12H5.5C5.77614 12 6 12.2239 6 12.5C6 12.7761 5.77614 13 5.5 13H4V14.5C4 14.7761 3.77614 15 3.5 15C3.22386 15 3 14.7761 3 14.5V12.5Z" fill="black"/>
<path fill-rule="evenodd" clip-rule="evenodd" d="M8 2C4.68489 2 2 4.68489 2 8C2 9.09542 2.29384 10.1177 2.80385 10.9997C2.94208 11.2388 2.86034 11.5446 2.62129 11.6828C2.38223 11.8211 2.07638 11.7393 1.93815 11.5003C1.34316 10.4713 1 9.27708 1 8C1 4.13261 4.13261 1 8 1C9.90812 1 11.571 1.61387 12.8536 2.89645C13.0488 3.09171 13.0488 3.40829 12.8536 3.60355C12.6583 3.79882 12.3417 3.79882 12.1464 3.60355C11.076 2.53313 9.67988 2 8 2Z" fill="black"/>
<path fill-rule="evenodd" clip-rule="evenodd" d="M13.3787 4.31715C13.6178 4.17892 13.9236 4.26066 14.0618 4.49971C14.6568 5.52869 15 6.72292 15 8C15 11.8674 11.8674 15 8 15C6.09188 15 4.42903 14.3861 3.14645 13.1036C2.95118 12.9083 2.95118 12.5917 3.14645 12.3964C3.34171 12.2012 3.65829 12.2012 3.85355 12.3964C4.92397 13.4669 6.32011 14 8 14C11.3151 14 14 11.3151 14 8C14 6.90458 13.7062 5.8823 13.1961 5.00029C13.0579 4.76123 13.1397 4.45538 13.3787 4.31715Z" fill="black"/>
<path fill-rule="evenodd" clip-rule="evenodd" d="M9.5 6.5H6.5L6.5 9.5H9.5V6.5ZM6.5 5.5C5.94772 5.5 5.5 5.94772 5.5 6.5V9.5C5.5 10.0523 5.94772 10.5 6.5 10.5H9.5C10.0523 10.5 10.5 10.0523 10.5 9.5V6.5C10.5 5.94772 10.0523 5.5 9.5 5.5H6.5Z" fill="black"/>
</svg>
