<svg width="16" height="16" viewBox="0 0 16 16" fill="none" xmlns="http://www.w3.org/2000/svg">
<g clip-path="url(#clip0_437_6669)">
<path fill-rule="evenodd" clip-rule="evenodd" d="M8.00001 1.96667C4.66789 1.96667 1.96667 4.66789 1.96667 8.00001C1.96667 11.3321 4.66789 14.0333 8.00001 14.0333C11.3321 14.0333 14.0333 11.3321 14.0333 8.00001C14.0333 4.66789 11.3321 1.96667 8.00001 1.96667ZM0.966675 8.00001C0.966675 4.11561 4.11561 0.966675 8.00001 0.966675C11.8844 0.966675 15.0333 4.11561 15.0333 8.00001C15.0333 11.8844 11.8844 15.0333 8.00001 15.0333C4.11561 15.0333 0.966675 11.8844 0.966675 8.00001Z" fill="black"/>
<path fill-rule="evenodd" clip-rule="evenodd" d="M4.5 8C4.5 7.72386 4.72386 7.5 5 7.5L11 7.5C11.2761 7.5 11.5 7.72386 11.5 8C11.5 8.27614 11.2761 8.5 11 8.5L5 8.5C4.72386 8.5 4.5 8.27614 4.5 8Z" fill="black"/>
<path fill-rule="evenodd" clip-rule="evenodd" d="M8 4.5C8.27614 4.5 8.5 4.72386 8.5 5V11C8.5 11.2761 8.27614 11.5 8 11.5C7.72386 11.5 7.5 11.2761 7.5 11V5C7.5 4.72386 7.72386 4.5 8 4.5Z" fill="black"/>
</g>
<defs>
<clipPath id="clip0_437_6669">
<rect width="16" height="16" fill="white"/>
</clipPath>
</defs>
</svg>
