<svg width="16" height="16" viewBox="0 0 16 16" fill="none" xmlns="http://www.w3.org/2000/svg">
<path fill-rule="evenodd" clip-rule="evenodd" d="M8.43826 1.11276C10.5841 2.25961 12.554 2.89273 13.3043 3.10953L13.3101 3.11121L13.3101 3.11125C13.6905 3.22614 14 3.56662 14 4.00763V6C14 6.27614 13.7761 6.5 13.5 6.5C13.2239 6.5 13 6.27614 13 6V4.06248C12.1941 3.82814 10.1889 3.17825 7.99781 2.0112C5.8123 3.18458 3.80043 3.8299 3 4.06698V9.57293C3 10.2176 3.45195 10.9124 4.22558 11.6072C4.97987 12.2847 5.94019 12.873 6.74033 13.3115C6.98248 13.4443 7.07118 13.7482 6.93846 13.9903C6.80573 14.2325 6.50183 14.3212 6.25967 14.1885C5.43706 13.7376 4.39738 13.1057 3.55736 12.3512C2.73668 11.6141 2 10.6651 2 9.57293V4.01227C2 3.58028 2.30076 3.2262 2.69592 3.11409C3.45237 2.89086 5.42382 2.26236 7.55619 1.11326C7.83055 0.962412 8.16378 0.962247 8.43826 1.11276Z" fill="black"/>
<path fill-rule="evenodd" clip-rule="evenodd" d="M11.5653 6.76423C11.6947 6.52225 11.9949 6.42976 12.238 6.55699L13.9877 7.47255C14.2315 7.60015 14.3264 7.90082 14.2 8.14527L13.8837 8.75669C14.0426 8.96486 14.1768 9.18781 14.2865 9.42093L15.0236 9.45577C15.2903 9.46838 15.5 9.68825 15.5 9.95522V11.8723C15.5 12.1421 15.286 12.3632 15.0163 12.372L14.369 12.3931C14.3231 12.5061 14.2707 12.6188 14.211 12.7308L14.2092 12.7343L14.2092 12.7343C14.1491 12.8449 14.0838 12.9541 14.0124 13.0602L14.4072 13.7399C14.4744 13.8556 14.4924 13.9935 14.4572 14.1226C14.422 14.2517 14.3365 14.3613 14.2199 14.4269L12.4258 15.4358C12.3063 15.503 12.1645 15.5182 12.0335 15.4778C11.9025 15.4375 11.7938 15.3451 11.7329 15.2223L11.4417 14.6359C11.2117 14.6655 10.9774 14.6727 10.7426 14.6562L10.4347 15.232C10.3053 15.474 10.0051 15.5665 9.76196 15.4393L7.99603 14.5152C7.87752 14.4532 7.7888 14.3463 7.74969 14.2184C7.71059 14.0904 7.72437 13.9522 7.78795 13.8345L8.11224 13.2343C7.96113 13.0355 7.83246 12.8233 7.726 12.6017L7.07669 12.6228C6.94396 12.6271 6.81496 12.5784 6.71815 12.4875C6.62135 12.3966 6.56469 12.2709 6.56068 12.1382L6.50023 10.1391C6.4919 9.86355 6.70817 9.63325 6.9837 9.62426L7.63043 9.60316C7.67671 9.48883 7.72976 9.37449 7.79083 9.26202C7.84949 9.15401 7.91316 9.04737 7.98257 8.94355L7.64057 8.38654C7.4968 8.15237 7.56893 7.84607 7.80208 7.70067L9.49097 6.64739C9.60392 6.57695 9.7403 6.55446 9.86988 6.58489C9.99947 6.61533 10.1116 6.69618 10.1814 6.80954L10.5233 7.36506C10.7645 7.33161 11.0107 7.32274 11.2574 7.34008L11.5653 6.76423ZM12.2135 7.67277L11.9778 8.11349C11.8758 8.30437 11.6625 8.4079 11.4494 8.37001C11.097 8.30735 10.7375 8.32213 10.3983 8.40608C10.1872 8.45833 9.96647 8.36807 9.85243 8.18283L9.59341 7.76204L8.75256 8.28644L9.01188 8.70879C9.1244 8.89206 9.10713 9.12675 8.969 9.29157C8.85922 9.42256 8.75999 9.57282 8.66962 9.73924C8.58613 9.89297 8.52001 10.0607 8.46719 10.236C8.40529 10.4414 8.21921 10.5845 8.00475 10.5915L7.51485 10.6075L7.54507 11.607L8.03621 11.5911C8.25183 11.5841 8.44764 11.7162 8.5219 11.9187C8.64597 12.2572 8.83219 12.5676 9.07881 12.8311C9.22572 12.988 9.25587 13.2213 9.15369 13.4104L8.90859 13.8641L9.78653 14.3235L10.0222 13.8828C10.1243 13.6919 10.3375 13.5884 10.5506 13.6263C10.903 13.6889 11.2625 13.6741 11.6017 13.5902C11.8292 13.5339 12.0654 13.6432 12.1696 13.8532L12.3945 14.3061L13.2878 13.8038L12.9819 13.277C12.8761 13.0949 12.8958 12.8661 13.031 12.7047C13.1404 12.5742 13.2393 12.4245 13.3294 12.2588C13.415 12.098 13.4809 11.9325 13.5328 11.7603C13.5947 11.5548 13.7808 11.4118 13.9953 11.4048L14.5 11.3883V10.4321L13.9239 10.4049C13.723 10.3954 13.5473 10.2664 13.4781 10.0776C13.354 9.7391 13.1678 9.42868 12.9212 9.16522C12.7765 9.01069 12.7449 8.78182 12.8421 8.59382L13.0831 8.12785L12.2135 7.67277Z" fill="black"/>
<path fill-rule="evenodd" clip-rule="evenodd" d="M11 11.75C11.4142 11.75 11.75 11.4142 11.75 11C11.75 10.5858 11.4142 10.25 11 10.25C10.5858 10.25 10.25 10.5858 10.25 11C10.25 11.4142 10.5858 11.75 11 11.75ZM11 12.75C11.9665 12.75 12.75 11.9665 12.75 11C12.75 10.0335 11.9665 9.25 11 9.25C10.0335 9.25 9.25 10.0335 9.25 11C9.25 11.9665 10.0335 12.75 11 12.75Z" fill="black"/>
</svg>
