<svg width="16" height="16" viewBox="0 0 16 16" fill="none" xmlns="http://www.w3.org/2000/svg">
<path fill-rule="evenodd" clip-rule="evenodd" d="M8.00004 1.96667C5.76996 1.96667 3.95459 3.78861 3.95459 6.04001C3.95459 7.83638 5.01021 9.85047 6.13775 11.4711C6.69311 12.2694 7.24943 12.9491 7.6671 13.4294C7.79195 13.573 7.90419 13.6984 8.00004 13.8037C8.0959 13.6984 8.20814 13.573 8.33299 13.4294C8.75066 12.9491 9.30698 12.2694 9.86233 11.4711C10.9899 9.85047 12.0455 7.83638 12.0455 6.04001C12.0455 3.78861 10.2301 1.96667 8.00004 1.96667ZM8.00004 14.5333C7.64541 14.8858 7.64532 14.8857 7.64521 14.8856L7.64399 14.8844L7.64092 14.8813L7.62996 14.8701C7.62054 14.8605 7.60694 14.8466 7.58944 14.8285C7.55443 14.7922 7.50381 14.7393 7.43979 14.671C7.31179 14.5343 7.13008 14.3358 6.91253 14.0856C6.47793 13.5859 5.89789 12.8773 5.31688 12.0422C4.17169 10.3962 2.95459 8.16363 2.95459 6.04001C2.95459 3.24207 5.21195 0.966675 8.00004 0.966675C10.7881 0.966675 13.0455 3.24207 13.0455 6.04001C13.0455 8.16363 11.8284 10.3962 10.6832 12.0422C10.1022 12.8773 9.52216 13.5859 9.08756 14.0856C8.87001 14.3358 8.6883 14.5343 8.5603 14.671C8.49628 14.7393 8.44566 14.7922 8.41065 14.8285C8.39315 14.8466 8.37955 14.8605 8.37013 14.8701L8.35916 14.8813L8.3561 14.8844L8.35518 14.8853C8.35507 14.8854 8.35468 14.8858 8.00004 14.5333ZM8.00004 14.5333L8.35468 14.8858C8.26082 14.9802 8.13318 15.0333 8.00004 15.0333C7.86691 15.0333 7.73907 14.98 7.64521 14.8856L8.00004 14.5333Z" fill="black"/>
<path fill-rule="evenodd" clip-rule="evenodd" d="M8 4C7.17157 4 6.5 4.67157 6.5 5.5C6.5 6.32843 7.17157 7 8 7C8.82843 7 9.5 6.32843 9.5 5.5C9.5 4.67157 8.82843 4 8 4ZM5.5 5.5C5.5 4.11929 6.61929 3 8 3C9.38071 3 10.5 4.11929 10.5 5.5C10.5 6.88071 9.38071 8 8 8C6.61929 8 5.5 6.88071 5.5 5.5Z" fill="black"/>
</svg>
