<svg width="16" height="16" viewBox="0 0 16 16" fill="none" xmlns="http://www.w3.org/2000/svg">
<path d="M6.25 15C6.66421 15 7 14.6642 7 14.25C7 13.8358 6.66421 13.5 6.25 13.5C5.83579 13.5 5.5 13.8358 5.5 14.25C5.5 14.6642 5.83579 15 6.25 15Z" fill="black"/>
<path d="M9.75 15C10.1642 15 10.5 14.6642 10.5 14.25C10.5 13.8358 10.1642 13.5 9.75 13.5C9.33579 13.5 9 13.8358 9 14.25C9 14.6642 9.33579 15 9.75 15Z" fill="black"/>
<path fill-rule="evenodd" clip-rule="evenodd" d="M3.5 4C3.5 3.72386 3.72386 3.5 4 3.5H12.7986C13.6268 3.5 14.2216 4.31627 13.9227 5.10396C13.9199 5.11131 13.9169 5.11859 13.9138 5.1258L12.6395 8.05815L12.6394 8.05825C12.1284 9.23343 10.9774 10 9.69549 10H4C3.72386 10 3.5 9.77614 3.5 9.5V4ZM4.5 4.5V9H9.69549C10.573 9 11.3675 8.47539 11.7223 7.65959C11.7223 7.65956 11.7223 7.65952 11.7224 7.65949L12.9904 4.74164C13.0257 4.63358 12.9494 4.5 12.7986 4.5H4.5Z" fill="black"/>
<path fill-rule="evenodd" clip-rule="evenodd" d="M1.5 1.5C1.5 1.22386 1.72386 1 2 1H2.66507C3.64659 1 4.5 1.75344 4.5 2.75V4C4.5 4.27614 4.27614 4.5 4 4.5C3.72386 4.5 3.5 4.27614 3.5 4V2.75C3.5 2.36663 3.15724 2 2.66507 2H2C1.72386 2 1.5 1.77614 1.5 1.5Z" fill="black"/>
<path fill-rule="evenodd" clip-rule="evenodd" d="M4 9C4.27614 9 4.5 9.22386 4.5 9.5V11C4.5 11.5976 4.93092 12 5.36408 12H11.5C11.7761 12 12 12.2239 12 12.5C12 12.7761 11.7761 13 11.5 13H5.36408C4.29137 13 3.5 12.0583 3.5 11V9.5C3.5 9.22386 3.72386 9 4 9Z" fill="black"/>
</svg>
