<svg width="16" height="16" viewBox="0 0 16 16" fill="none" xmlns="http://www.w3.org/2000/svg">
<g clip-path="url(#clip0_437_6528)">
<path fill-rule="evenodd" clip-rule="evenodd" d="M9.58827 1.9766C9.48936 1.95322 9.40853 1.9832 9.3615 2.03022L1.97094 9.41613C1.97181 9.41727 1.97287 9.41849 1.97417 9.41978L6.57243 14.0227C6.57506 14.0252 6.57752 14.027 6.57973 14.0285L13.9697 6.63845C14.0168 6.59142 14.0467 6.51059 14.0234 6.41168C14.0219 6.40531 14.0205 6.39891 14.0192 6.39249L13.3314 2.86996C13.3043 2.77299 13.227 2.69568 13.13 2.66851L9.60747 1.98074C9.60104 1.97948 9.59464 1.9781 9.58827 1.9766ZM9.80758 1.00093C9.39631 0.90738 8.95949 1.0181 8.65451 1.32301C8.65447 1.32304 8.65454 1.32297 8.65451 1.32301L1.24384 8.72901L1.23928 8.73362C0.849278 9.13363 0.895231 9.75488 1.26688 10.1267L5.86822 14.7327L5.87258 14.737C6.24278 15.0986 6.86546 15.1569 7.26617 14.7562L14.6768 7.34556C14.9818 7.04057 15.0926 6.60368 14.999 6.19237L14.31 2.66352C14.3085 2.65562 14.3067 2.64776 14.3048 2.63994C14.1904 2.17462 13.8253 1.80956 13.36 1.69514C13.3522 1.69321 13.3443 1.69148 13.3364 1.68994L9.80758 1.00093Z" fill="black"/>
<path fill-rule="evenodd" clip-rule="evenodd" d="M11 4C10.4477 4 10 4.44772 10 5C10 5.55228 10.4477 6 11 6C11.5523 6 12 5.55228 12 5C12 4.44772 11.5523 4 11 4ZM9 5C9 3.89543 9.89543 3 11 3C12.1046 3 13 3.89543 13 5C13 6.10457 12.1046 7 11 7C9.89543 7 9 6.10457 9 5Z" fill="black"/>
</g>
<defs>
<clipPath id="clip0_437_6528">
<rect width="16" height="16" fill="white"/>
</clipPath>
</defs>
</svg>
