<svg width="16" height="16" viewBox="0 0 16 16" fill="none" xmlns="http://www.w3.org/2000/svg">
<g clip-path="url(#clip0_437_6832)">
<path fill-rule="evenodd" clip-rule="evenodd" d="M8 5C7.17157 5 6.5 5.67157 6.5 6.5C6.5 7.32843 7.17157 8 8 8C8.82843 8 9.5 7.32843 9.5 6.5C9.5 5.67157 8.82843 5 8 5ZM5.5 6.5C5.5 5.11929 6.61929 4 8 4C9.38071 4 10.5 5.11929 10.5 6.5C10.5 7.88071 9.38071 9 8 9C6.61929 9 5.5 7.88071 5.5 6.5Z" fill="black"/>
<path fill-rule="evenodd" clip-rule="evenodd" d="M5.00002 11.847C5.00001 11.8468 5.00002 11.8471 5.00002 11.847L5.01355 13.4959C5.01581 13.772 4.7938 13.9977 4.51767 14C4.24153 14.0022 4.01585 13.7802 4.01358 13.5041L4.00004 11.8541L4.00003 11.853C3.9937 10.8061 4.87452 10 5.91265 10H10.0873C11.1255 10 12.0063 10.8061 12 11.853L11.9864 13.5041C11.9842 13.7802 11.7585 14.0022 11.4823 14C11.2062 13.9977 10.9842 13.772 10.9865 13.4959L11 11.847C11 11.8471 11 11.8468 11 11.847C11.0024 11.4026 10.6196 11 10.0873 11H5.91265C5.38039 11 4.99761 11.4026 5.00002 11.847Z" fill="black"/>
<path fill-rule="evenodd" clip-rule="evenodd" d="M8.00001 1.96667C4.66789 1.96667 1.96667 4.66789 1.96667 8.00001C1.96667 11.3321 4.66789 14.0333 8.00001 14.0333C11.3321 14.0333 14.0333 11.3321 14.0333 8.00001C14.0333 4.66789 11.3321 1.96667 8.00001 1.96667ZM0.966675 8.00001C0.966675 4.11561 4.11561 0.966675 8.00001 0.966675C11.8844 0.966675 15.0333 4.11561 15.0333 8.00001C15.0333 11.8844 11.8844 15.0333 8.00001 15.0333C4.11561 15.0333 0.966675 11.8844 0.966675 8.00001Z" fill="black"/>
</g>
<defs>
<clipPath id="clip0_437_6832">
<rect width="16" height="16" fill="white"/>
</clipPath>
</defs>
</svg>
