<svg width="16" height="16" viewBox="0 0 16 16" fill="none" xmlns="http://www.w3.org/2000/svg">
<path fill-rule="evenodd" clip-rule="evenodd" d="M11.1466 2.46808C11.1466 2.46811 11.1467 2.46804 11.1466 2.46808L3.58485 9.71636L3.02835 11.8448C3.0256 11.8672 3.02132 11.8895 3.01547 11.9117C2.93338 12.2224 3.23131 12.5852 3.65155 12.4833L3.6527 12.4831L5.95422 11.9308L13.5204 4.68265C14.1589 4.071 14.1607 3.08582 13.5205 2.4681C12.8635 1.84319 11.7973 1.84488 11.1466 2.46808ZM2.02972 11.7363C2.03225 11.7099 2.03689 11.6835 2.0437 11.6575L2.65312 9.3267C2.67649 9.23732 2.72417 9.15616 2.79087 9.09223L10.4548 1.74606C11.4935 0.750941 13.1691 0.752157 14.2112 1.74501L14.2132 1.74689C15.2617 2.7568 15.2631 4.39803 14.2122 5.40477L6.5483 12.7465C6.48433 12.8078 6.40522 12.851 6.31908 12.8717L3.88717 13.4552C3.88692 13.4552 3.88666 13.4553 3.8864 13.4554C2.83673 13.7093 1.80278 12.8223 2.02972 11.7363Z" fill="black"/>
<path fill-rule="evenodd" clip-rule="evenodd" d="M1 14.5C1 14.2239 1.22386 14 1.5 14H14.5C14.7761 14 15 14.2239 15 14.5C15 14.7761 14.7761 15 14.5 15H1.5C1.22386 15 1 14.7761 1 14.5Z" fill="black"/>
</svg>
