<svg width="16" height="16" viewBox="0 0 16 16" fill="none" xmlns="http://www.w3.org/2000/svg">
<path fill-rule="evenodd" clip-rule="evenodd" d="M1 4C1 3.72386 1.22386 3.5 1.5 3.5H14.5C14.7761 3.5 15 3.72386 15 4C15 4.27614 14.7761 4.5 14.5 4.5H1.5C1.22386 4.5 1 4.27614 1 4Z" fill="black"/>
<path fill-rule="evenodd" clip-rule="evenodd" d="M1 13C1 12.7239 1.22386 12.5 1.5 12.5H14.5C14.7761 12.5 15 12.7239 15 13C15 13.2761 14.7761 13.5 14.5 13.5H1.5C1.22386 13.5 1 13.2761 1 13Z" fill="black"/>
<path fill-rule="evenodd" clip-rule="evenodd" d="M1.5 3.5C1.77614 3.5 2 3.72386 2 4L2 7C2 7.27614 1.77614 7.5 1.5 7.5C1.22386 7.5 1 7.27614 1 7L1 4C1 3.72386 1.22386 3.5 1.5 3.5Z" fill="black"/>
<path fill-rule="evenodd" clip-rule="evenodd" d="M1.5 9.5C1.77614 9.5 2 9.72386 2 10V13C2 13.2761 1.77614 13.5 1.5 13.5C1.22386 13.5 1 13.2761 1 13V10C1 9.72386 1.22386 9.5 1.5 9.5Z" fill="black"/>
<path fill-rule="evenodd" clip-rule="evenodd" d="M14.5 3.5C14.7761 3.5 15 3.72386 15 4V6.5C15 6.77614 14.7761 7 14.5 7C14.2239 7 14 6.77614 14 6.5V4C14 3.72386 14.2239 3.5 14.5 3.5Z" fill="black"/>
<path fill-rule="evenodd" clip-rule="evenodd" d="M14.5009 9C14.777 9.00048 15.0005 9.22472 15 9.50086L14.9943 12.8342C14.9938 13.1103 14.7695 13.3338 14.4934 13.3333C14.2173 13.3329 13.9938 13.1086 13.9943 12.8325L14 9.49914C14.0005 9.223 14.2247 8.99953 14.5009 9Z" fill="black"/>
<path fill-rule="evenodd" clip-rule="evenodd" d="M1 7C1 6.72386 1.22386 6.5 1.5 6.5C2.65338 6.5 3.5 7.51703 3.5 8.5C3.5 9.48297 2.65338 10.5 1.5 10.5C1.22386 10.5 1 10.2761 1 10C1 9.72386 1.22386 9.5 1.5 9.5C2.0508 9.5 2.5 8.98236 2.5 8.5C2.5 8.01764 2.0508 7.5 1.5 7.5C1.22386 7.5 1 7.27614 1 7Z" fill="black"/>
<path fill-rule="evenodd" clip-rule="evenodd" d="M14.5 7C13.9467 7 13.5 7.44895 13.5 8C13.5 8.55105 13.9467 9 14.5 9C14.7761 9 15 9.22386 15 9.5C15 9.77614 14.7761 10 14.5 10C13.3926 10 12.5 9.10158 12.5 8C12.5 6.89842 13.3926 6 14.5 6C14.7761 6 15 6.22386 15 6.5C15 6.77614 14.7761 7 14.5 7Z" fill="black"/>
<path fill-rule="evenodd" clip-rule="evenodd" d="M5 5C5.27614 5 5.5 5.22386 5.5 5.5V6.5C5.5 6.77614 5.27614 7 5 7C4.72386 7 4.5 6.77614 4.5 6.5V5.5C4.5 5.22386 4.72386 5 5 5Z" fill="black"/>
<path fill-rule="evenodd" clip-rule="evenodd" d="M5 7.5C5.27614 7.5 5.5 7.72386 5.5 8V9C5.5 9.27614 5.27614 9.5 5 9.5C4.72386 9.5 4.5 9.27614 4.5 9V8C4.5 7.72386 4.72386 7.5 5 7.5Z" fill="black"/>
<path fill-rule="evenodd" clip-rule="evenodd" d="M5 10C5.27614 10 5.5 10.2239 5.5 10.5V11.5C5.5 11.7761 5.27614 12 5 12C4.72386 12 4.5 11.7761 4.5 11.5V10.5C4.5 10.2239 4.72386 10 5 10Z" fill="black"/>
</svg>
