<svg width="16" height="16" viewBox="0 0 16 16" fill="none" xmlns="http://www.w3.org/2000/svg">
<path fill-rule="evenodd" clip-rule="evenodd" d="M5.14417 2C4.22389 2 3.5 2.72571 3.5 3.58931V13.1026C3.5 13.8465 4.41794 14.297 5.03926 13.7776L6.73075 12.3652C6.86727 12.2267 7.31554 11.8365 8 11.8365C8.70077 11.8365 9.14947 12.2474 9.26527 12.3619L10.9605 13.7774C11.5806 14.2958 12.5 13.8434 12.5 13.1026V3.58931C12.5 2.72571 11.7761 2 10.8558 2H5.14417ZM2.5 3.58931C2.5 2.15002 3.6953 1 5.14417 1H10.8558C12.3047 1 13.5 2.15002 13.5 3.58931V13.1026C13.5 14.739 11.5542 15.5771 10.3193 14.5448L8.60699 13.115C8.5948 13.1048 8.5831 13.094 8.57194 13.0828C8.53132 13.0417 8.32092 12.8365 8 12.8365C7.84101 12.8365 7.70832 12.8861 7.60652 12.9446C7.55568 12.9739 7.51475 13.0042 7.48539 13.0286C7.45548 13.0534 7.44048 13.0697 7.44183 13.0683C7.42663 13.0849 7.41032 13.1005 7.39301 13.115L5.68066 14.5448C4.44707 15.5761 2.5 14.7452 2.5 13.1026V3.58931Z" fill="black"/>
</svg>
