<svg width="16" height="16" viewBox="0 0 16 16" fill="none" xmlns="http://www.w3.org/2000/svg">
<g clip-path="url(#clip0_437_6422)">
<path fill-rule="evenodd" clip-rule="evenodd" d="M5.14225 2.65069C5.33517 2.45311 5.65173 2.44933 5.84931 2.64225L6.84931 3.61867C6.94567 3.71276 7 3.84174 7 3.97642V5C7 5.27614 6.77614 5.5 6.5 5.5C6.22386 5.5 6 5.27614 6 5V4.18703L5.15069 3.35775C4.95311 3.16483 4.94933 2.84827 5.14225 2.65069Z" fill="black"/>
<path fill-rule="evenodd" clip-rule="evenodd" d="M10.8577 2.65069C10.6648 2.45311 10.3483 2.44933 10.1507 2.64225L9.15069 3.61867C9.05433 3.71276 9 3.84174 9 3.97642V5C9 5.27614 9.22386 5.5 9.5 5.5C9.77614 5.5 10 5.27614 10 5V4.18703L10.8493 3.35775C11.0469 3.16483 11.0507 2.84827 10.8577 2.65069Z" fill="black"/>
<path fill-rule="evenodd" clip-rule="evenodd" d="M2.65109 5.14186C2.84888 4.94917 3.16544 4.9533 3.35814 5.15109L4.18518 6H5C5.27614 6 5.5 6.22386 5.5 6.5C5.5 6.77614 5.27614 7 5 7H3.97424C3.83937 7 3.71022 6.94551 3.6161 6.84891L2.64186 5.84891C2.44917 5.65112 2.4533 5.33456 2.65109 5.14186Z" fill="black"/>
<path fill-rule="evenodd" clip-rule="evenodd" d="M13.8489 5.14186C13.6511 4.94917 13.3346 4.9533 13.1419 5.15109L12.3148 6H11.5C11.2239 6 11 6.22386 11 6.5C11 6.77614 11.2239 7 11.5 7H12.5258C12.6606 7 12.7898 6.94551 12.8839 6.84891L13.8581 5.84891C14.0508 5.65112 14.0467 5.33456 13.8489 5.14186Z" fill="black"/>
<path fill-rule="evenodd" clip-rule="evenodd" d="M6.5 11C6.77614 11 7 11.2239 7 11.5V12.5236C7 12.6583 6.94567 12.7872 6.84931 12.8813L5.84931 13.8577C5.65173 14.0507 5.33517 14.0469 5.14225 13.8493C4.94933 13.6517 4.95311 13.3352 5.15069 13.1423L6 12.313V11.5C6 11.2239 6.22386 11 6.5 11Z" fill="black"/>
<path fill-rule="evenodd" clip-rule="evenodd" d="M9.5 11C9.22386 11 9 11.2239 9 11.5V12.5236C9 12.6583 9.05433 12.7872 9.15069 12.8813L10.1507 13.8577C10.3483 14.0507 10.6648 14.0469 10.8577 13.8493C11.0507 13.6517 11.0469 13.3352 10.8493 13.1423L10 12.313V11.5C10 11.2239 9.77614 11 9.5 11Z" fill="black"/>
<path fill-rule="evenodd" clip-rule="evenodd" d="M3.6161 8.65109C3.71022 8.55449 3.83937 8.5 3.97424 8.5H5C5.27614 8.5 5.5 8.72386 5.5 9C5.5 9.27614 5.27614 9.5 5 9.5H4.18518L3.35814 10.3489C3.16544 10.5467 2.84888 10.5508 2.65109 10.3581C2.4533 10.1654 2.44917 9.84888 2.64186 9.65109L3.6161 8.65109Z" fill="black"/>
<path fill-rule="evenodd" clip-rule="evenodd" d="M12.8839 8.65109C12.7898 8.55449 12.6606 8.5 12.5258 8.5H11.5C11.2239 8.5 11 8.72386 11 9C11 9.27614 11.2239 9.5 11.5 9.5H12.3148L13.1419 10.3489C13.3346 10.5467 13.6511 10.5508 13.8489 10.3581C14.0467 10.1654 14.0508 9.84888 13.8581 9.65109L12.8839 8.65109Z" fill="black"/>
<path fill-rule="evenodd" clip-rule="evenodd" d="M2 10.5C1.72386 10.5 1.5 10.7239 1.5 11C1.5 11.2761 1.72386 11.5 2 11.5C2.27614 11.5 2.5 11.2761 2.5 11C2.5 10.7239 2.27614 10.5 2 10.5ZM0.5 11C0.5 10.1716 1.17157 9.5 2 9.5C2.82843 9.5 3.5 10.1716 3.5 11C3.5 11.8284 2.82843 12.5 2 12.5C1.17157 12.5 0.5 11.8284 0.5 11Z" fill="black"/>
<path fill-rule="evenodd" clip-rule="evenodd" d="M14 10.5C13.7239 10.5 13.5 10.7239 13.5 11C13.5 11.2761 13.7239 11.5 14 11.5C14.2761 11.5 14.5 11.2761 14.5 11C14.5 10.7239 14.2761 10.5 14 10.5ZM12.5 11C12.5 10.1716 13.1716 9.5 14 9.5C14.8284 9.5 15.5 10.1716 15.5 11C15.5 11.8284 14.8284 12.5 14 12.5C13.1716 12.5 12.5 11.8284 12.5 11Z" fill="black"/>
<path fill-rule="evenodd" clip-rule="evenodd" d="M4.5 13.5C4.22386 13.5 4 13.7239 4 14C4 14.2761 4.22386 14.5 4.5 14.5C4.77614 14.5 5 14.2761 5 14C5 13.7239 4.77614 13.5 4.5 13.5ZM3 14C3 13.1716 3.67157 12.5 4.5 12.5C5.32843 12.5 6 13.1716 6 14C6 14.8284 5.32843 15.5 4.5 15.5C3.67157 15.5 3 14.8284 3 14Z" fill="black"/>
<path fill-rule="evenodd" clip-rule="evenodd" d="M11.5 13.5C11.2239 13.5 11 13.7239 11 14C11 14.2761 11.2239 14.5 11.5 14.5C11.7761 14.5 12 14.2761 12 14C12 13.7239 11.7761 13.5 11.5 13.5ZM10 14C10 13.1716 10.6716 12.5 11.5 12.5C12.3284 12.5 13 13.1716 13 14C13 14.8284 12.3284 15.5 11.5 15.5C10.6716 15.5 10 14.8284 10 14Z" fill="black"/>
<path fill-rule="evenodd" clip-rule="evenodd" d="M2 4C1.72386 4 1.5 4.22386 1.5 4.5C1.5 4.77614 1.72386 5 2 5C2.27614 5 2.5 4.77614 2.5 4.5C2.5 4.22386 2.27614 4 2 4ZM0.5 4.5C0.5 3.67157 1.17157 3 2 3C2.82843 3 3.5 3.67157 3.5 4.5C3.5 5.32843 2.82843 6 2 6C1.17157 6 0.5 5.32843 0.5 4.5Z" fill="black"/>
<path fill-rule="evenodd" clip-rule="evenodd" d="M14 4C13.7239 4 13.5 4.22386 13.5 4.5C13.5 4.77614 13.7239 5 14 5C14.2761 5 14.5 4.77614 14.5 4.5C14.5 4.22386 14.2761 4 14 4ZM12.5 4.5C12.5 3.67157 13.1716 3 14 3C14.8284 3 15.5 3.67157 15.5 4.5C15.5 5.32843 14.8284 6 14 6C13.1716 6 12.5 5.32843 12.5 4.5Z" fill="black"/>
<path fill-rule="evenodd" clip-rule="evenodd" d="M5 1.5C4.72386 1.5 4.5 1.72386 4.5 2C4.5 2.27614 4.72386 2.5 5 2.5C5.27614 2.5 5.5 2.27614 5.5 2C5.5 1.72386 5.27614 1.5 5 1.5ZM3.5 2C3.5 1.17157 4.17157 0.5 5 0.5C5.82843 0.5 6.5 1.17157 6.5 2C6.5 2.82843 5.82843 3.5 5 3.5C4.17157 3.5 3.5 2.82843 3.5 2Z" fill="black"/>
<path fill-rule="evenodd" clip-rule="evenodd" d="M11 1.5C10.7239 1.5 10.5 1.72386 10.5 2C10.5 2.27614 10.7239 2.5 11 2.5C11.2761 2.5 11.5 2.27614 11.5 2C11.5 1.72386 11.2761 1.5 11 1.5ZM9.5 2C9.5 1.17157 10.1716 0.5 11 0.5C11.8284 0.5 12.5 1.17157 12.5 2C12.5 2.82843 11.8284 3.5 11 3.5C10.1716 3.5 9.5 2.82843 9.5 2Z" fill="black"/>
<path fill-rule="evenodd" clip-rule="evenodd" d="M5.74079 5.5C5.61464 5.5 5.5 5.60579 5.5 5.75165V10.2484C5.5 10.3942 5.61464 10.5 5.74079 10.5H10.2592C10.3854 10.5 10.5 10.3942 10.5 10.2484V5.75165C10.5 5.60579 10.3854 5.5 10.2592 5.5H5.74079ZM4.5 5.75165C4.5 5.06726 5.04869 4.5 5.74079 4.5H10.2592C10.9513 4.5 11.5 5.06726 11.5 5.75165V10.2484C11.5 10.9327 10.9513 11.5 10.2592 11.5H5.74079C5.04869 11.5 4.5 10.9327 4.5 10.2484V5.75165Z" fill="black"/>
</g>
<defs>
<clipPath id="clip0_437_6422">
<rect width="16" height="16" fill="white"/>
</clipPath>
</defs>
</svg>
