<svg width="16" height="16" viewBox="0 0 16 16" fill="none" xmlns="http://www.w3.org/2000/svg">
<path fill-rule="evenodd" clip-rule="evenodd" d="M2.45238 2C2.22525 2 2 2.20059 2 2.5V4C2 4.29941 2.22525 4.5 2.45238 4.5H5.54762C5.77475 4.5 6 4.29941 6 4V2.5C6 2.20059 5.77475 2 5.54762 2H2.45238ZM1 2.5C1 1.69484 1.62754 1 2.45238 1H5.54762C6.37246 1 7 1.69484 7 2.5V4C7 4.80516 6.37246 5.5 5.54762 5.5H2.45238C1.62754 5.5 1 4.80516 1 4V2.5Z" fill="black"/>
<path fill-rule="evenodd" clip-rule="evenodd" d="M2.45238 7.5C2.20254 7.5 2 7.70254 2 7.95238V13.5476C2 13.7975 2.20254 14 2.45238 14H5.54762C5.79746 14 6 13.7975 6 13.5476V7.95238C6 7.70254 5.79746 7.5 5.54762 7.5H2.45238ZM1 7.95238C1 7.15025 1.65025 6.5 2.45238 6.5H5.54762C6.34975 6.5 7 7.15025 7 7.95238V13.5476C7 14.3497 6.34975 15 5.54762 15H2.45238C1.65025 15 1 14.3497 1 13.5476V7.95238Z" fill="black"/>
<path fill-rule="evenodd" clip-rule="evenodd" d="M13.5476 14C13.7748 14 14 13.7994 14 13.5V12C14 11.7006 13.7748 11.5 13.5476 11.5H10.4524C10.2252 11.5 10 11.7006 10 12V13.5C10 13.7994 10.2252 14 10.4524 14H13.5476ZM15 13.5C15 14.3052 14.3725 15 13.5476 15H10.4524C9.62754 15 9 14.3052 9 13.5V12C9 11.1948 9.62754 10.5 10.4524 10.5H13.5476C14.3725 10.5 15 11.1948 15 12V13.5Z" fill="black"/>
<path fill-rule="evenodd" clip-rule="evenodd" d="M13.5476 8.5C13.7975 8.5 14 8.29746 14 8.04762V2.45238C14 2.20254 13.7975 2 13.5476 2L10.4524 2C10.2025 2 10 2.20254 10 2.45238V8.04762C10 8.29746 10.2025 8.5 10.4524 8.5H13.5476ZM15 8.04762C15 8.84975 14.3497 9.5 13.5476 9.5H10.4524C9.65025 9.5 9 8.84975 9 8.04762V2.45238C9 1.65025 9.65025 1 10.4524 1H13.5476C14.3497 1 15 1.65025 15 2.45238V8.04762Z" fill="black"/>
</svg>
