<svg width="16" height="16" viewBox="0 0 16 16" fill="none" xmlns="http://www.w3.org/2000/svg">
<path fill-rule="evenodd" clip-rule="evenodd" d="M9 10.5C9 9.67157 9.67157 9 10.5 9H13.5C14.3284 9 15 9.67157 15 10.5V13.5C15 14.3284 14.3284 15 13.5 15H10.5C9.67157 15 9 14.3284 9 13.5V10.5ZM10.5 10C10.2239 10 10 10.2239 10 10.5V13.5C10 13.7761 10.2239 14 10.5 14H13.5C13.7761 14 14 13.7761 14 13.5V10.5C14 10.2239 13.7761 10 13.5 10H10.5Z" fill="black"/>
<path fill-rule="evenodd" clip-rule="evenodd" d="M3 8C3.27614 8 3.5 8.22386 3.5 8.5V12.7991C3.5 12.906 3.58707 13 3.70857 13H7C7.27614 13 7.5 13.2239 7.5 13.5C7.5 13.7761 7.27614 14 7 14H3.70857C3.04378 14 2.5 13.4672 2.5 12.7991V8.5C2.5 8.22386 2.72386 8 3 8Z" fill="black"/>
<path fill-rule="evenodd" clip-rule="evenodd" d="M5.64645 12.1464C5.84171 11.9512 6.15829 11.9512 6.35355 12.1464L7.35355 13.1464C7.44732 13.2402 7.5 13.3674 7.5 13.5C7.5 13.6326 7.44732 13.7598 7.35355 13.8536L6.35355 14.8536C6.15829 15.0488 5.84171 15.0488 5.64645 14.8536C5.45118 14.6583 5.45118 14.3417 5.64645 14.1464L6.29289 13.5L5.64645 12.8536C5.45118 12.6583 5.45118 12.3417 5.64645 12.1464Z" fill="black"/>
<path fill-rule="evenodd" clip-rule="evenodd" d="M8.5 2.5C8.5 2.22386 8.72386 2 9 2H12.225C12.8834 2 13.5 2.49181 13.5 3.20087V7.5C13.5 7.77614 13.2761 8 13 8C12.7239 8 12.5 7.77614 12.5 7.5V3.20087C12.5 3.13505 12.4266 3 12.225 3H9C8.72386 3 8.5 2.77614 8.5 2.5Z" fill="black"/>
<path fill-rule="evenodd" clip-rule="evenodd" d="M10.3536 1.14645C10.5488 1.34171 10.5488 1.65829 10.3536 1.85355L9.70711 2.5L10.3536 3.14645C10.5488 3.34171 10.5488 3.65829 10.3536 3.85355C10.1583 4.04882 9.84171 4.04882 9.64645 3.85355L8.64645 2.85355C8.55268 2.75979 8.5 2.63261 8.5 2.5C8.5 2.36739 8.55268 2.24021 8.64645 2.14645L9.64645 1.14645C9.84171 0.951184 10.1583 0.951184 10.3536 1.14645Z" fill="black"/>
<path fill-rule="evenodd" clip-rule="evenodd" d="M4 2C2.89543 2 2 2.89543 2 4C2 5.10457 2.89543 6 4 6C5.10457 6 6 5.10457 6 4C6 2.89543 5.10457 2 4 2ZM1 4C1 2.34315 2.34315 1 4 1C5.65685 1 7 2.34315 7 4C7 5.65685 5.65685 7 4 7C2.34315 7 1 5.65685 1 4Z" fill="black"/>
</svg>
