<svg width="16" height="16" viewBox="0 0 16 16" fill="none" xmlns="http://www.w3.org/2000/svg">
<path fill-rule="evenodd" clip-rule="evenodd" d="M3 3.5C3 2.11929 4.11929 1 5.5 1H10.5C11.8807 1 13 2.11929 13 3.5V4C13 4.27614 12.7761 4.5 12.5 4.5C12.2239 4.5 12 4.27614 12 4V3.5C12 2.67157 11.3284 2 10.5 2H5.5C4.67157 2 4 2.67157 4 3.5V12.5C4 13.3284 4.67157 14 5.5 14H10.5C11.3284 14 12 13.3284 12 12.5V12C12 11.7239 12.2239 11.5 12.5 11.5C12.7761 11.5 13 11.7239 13 12V12.5C13 13.8807 11.8807 15 10.5 15H5.5C4.11929 15 3 13.8807 3 12.5V3.5Z" fill="black"/>
<path fill-rule="evenodd" clip-rule="evenodd" d="M8 8.02241C8 7.74627 8.22386 7.52241 8.5 7.52241H13.9413C14.2174 7.52241 14.4413 7.74627 14.4413 8.02241C14.4413 8.29855 14.2174 8.52241 13.9413 8.52241H8.5C8.22386 8.52241 8 8.29855 8 8.02241Z" fill="black"/>
<path fill-rule="evenodd" clip-rule="evenodd" d="M11.6638 5.1299C11.8682 4.94423 12.1844 4.95941 12.3701 5.16381L14.6428 7.66578C14.8161 7.85655 14.816 8.14781 14.6426 8.33845L12.3698 10.8365C12.184 11.0407 11.8678 11.0557 11.6635 10.8698C11.4593 10.684 11.4443 10.3678 11.6302 10.1635L13.597 8.0017L11.6299 5.8362C11.4442 5.63179 11.4594 5.31558 11.6638 5.1299Z" fill="black"/>
</svg>
