<svg width="16" height="16" viewBox="0 0 16 16" fill="none" xmlns="http://www.w3.org/2000/svg">
<g clip-path="url(#clip0_437_6535)">
<path fill-rule="evenodd" clip-rule="evenodd" d="M0.966675 3.98133H15.0333V13.0587C15.0333 14.1121 14.2407 15.0333 13.1753 15.0333H2.82467C1.75838 15.0333 0.966675 14.1063 0.966675 13.0587V3.98133ZM1.96667 4.98133V13.0587C1.96667 13.635 2.3883 14.0333 2.82467 14.0333H13.1753C13.6127 14.0333 14.0333 13.6386 14.0333 13.0587V4.98133H1.96667Z" fill="black"/>
<path fill-rule="evenodd" clip-rule="evenodd" d="M0.966675 2.904C0.966675 1.86209 1.77042 0.966667 2.82467 0.966667H13.1753C14.2296 0.966667 15.0333 1.86209 15.0333 2.904V4.98133H0.966675V2.904ZM2.82467 1.96667C2.37627 1.96667 1.96667 2.35924 1.96667 2.904V3.98133H14.0333V2.904C14.0333 2.35924 13.6237 1.96667 13.1753 1.96667H2.82467Z" fill="black"/>
<path d="M3.59933 2.47H3.352C3.142 2.47 2.974 2.624 2.974 2.81533V3.12333C2.974 3.31467 3.142 3.46867 3.352 3.46867H3.59933C3.80933 3.46867 3.97733 3.31467 3.97733 3.12333V2.81533C3.97733 2.624 3.80933 2.47 3.59933 2.47Z" fill="black"/>
<path d="M5.12533 2.5H4.878C4.668 2.5 4.5 2.654 4.5 2.84533V3.15333C4.5 3.34467 4.668 3.49867 4.878 3.49867H5.12533C5.33533 3.49867 5.50333 3.34467 5.50333 3.15333V2.84533C5.50333 2.654 5.33533 2.5 5.12533 2.5Z" fill="black"/>
<path d="M6.62533 2.5H6.378C6.168 2.5 6 2.654 6 2.84533V3.15333C6 3.34467 6.168 3.49867 6.378 3.49867H6.62533C6.83533 3.49867 7.00333 3.34467 7.00333 3.15333V2.84533C7.00333 2.654 6.83533 2.5 6.62533 2.5Z" fill="black"/>
<path fill-rule="evenodd" clip-rule="evenodd" d="M4.00002 7.0009C4.00001 7.00105 4 7.00126 4 7.00155V11.9985C4 11.9987 4.00001 11.999 4.00002 11.9991C4.00011 11.9992 4.00025 11.9994 4.00047 11.9996C4.00063 11.9998 4.00077 11.9999 4.00088 12C4.001 12 4.00115 12 4.00133 12H6.49867C6.49885 12 6.499 12 6.49912 12C6.49923 11.9999 6.49937 11.9998 6.49953 11.9996C6.49975 11.9994 6.49989 11.9992 6.49998 11.9991C6.49999 11.999 6.5 11.9987 6.5 11.9985V7.00155C6.5 7.00126 6.49999 7.00105 6.49998 7.0009C6.49989 7.00077 6.49975 7.00059 6.49953 7.00038C6.49937 7.00021 6.49923 7.00009 6.49912 7.00001C6.499 7 6.49885 7 6.49867 7H4.00133C4.00115 7 4.001 7 4.00088 7.00001C4.00077 7.00009 4.00063 7.00021 4.00047 7.00038C4.00025 7.00059 4.00011 7.00077 4.00002 7.0009ZM3 7.00155C3 6.44862 3.4481 6 4.00133 6H6.49867C7.0519 6 7.5 6.44862 7.5 7.00155V11.9985C7.5 12.5514 7.0519 13 6.49867 13H4.00133C3.4481 13 3 12.5514 3 11.9985V7.00155Z" fill="black"/>
<path fill-rule="evenodd" clip-rule="evenodd" d="M9.50338 10.514C9.50338 10.514 9.5033 10.5144 9.5033 10.5153V12.018C9.5033 12.0189 9.50338 12.0193 9.50338 12.0193L9.5034 12.0194C9.50345 12.0195 9.50374 12.0201 9.50447 12.0208C9.50519 12.0216 9.50578 12.0218 9.50589 12.0219L9.50596 12.0219C9.50597 12.0219 9.50636 12.022 9.5073 12.022H12.018C12.0189 12.022 12.0193 12.0219 12.0193 12.0219L12.0194 12.0219C12.0195 12.0218 12.0201 12.0216 12.0208 12.0208C12.0215 12.0201 12.0218 12.0195 12.0219 12.0194L12.0219 12.0193L12.0219 12.0193C12.0219 12.0193 12.022 12.0189 12.022 12.018V10.5153C12.022 10.5144 12.0219 10.514 12.0219 10.514L12.0219 10.514L12.0219 10.5139C12.0218 10.5138 12.0215 10.5132 12.0208 10.5125C12.0201 10.5118 12.0195 10.5115 12.0194 10.5114L12.0193 10.5114C12.0193 10.5114 12.0189 10.5113 12.018 10.5113H9.5073C9.50636 10.5113 9.50597 10.5114 9.50596 10.5114L9.50589 10.5114C9.50578 10.5115 9.50519 10.5118 9.50447 10.5125C9.50374 10.5132 9.50345 10.5138 9.5034 10.5139L9.50338 10.514ZM8.5033 10.5153C8.5033 9.96084 8.9528 9.51134 9.5073 9.51134H12.018C12.5725 9.51134 13.022 9.96084 13.022 10.5153V12.018C13.022 12.5725 12.5725 13.022 12.018 13.022H9.5073C8.9528 13.022 8.5033 12.5725 8.5033 12.018V10.5153Z" fill="black"/>
<path fill-rule="evenodd" clip-rule="evenodd" d="M8.50333 6.49267C8.50333 6.21653 8.72718 5.99267 9.00333 5.99267H12.5313C12.8075 5.99267 13.0313 6.21653 13.0313 6.49267C13.0313 6.76881 12.8075 6.99267 12.5313 6.99267H9.00333C8.72718 6.99267 8.50333 6.76881 8.50333 6.49267ZM8.5 8C8.5 7.72386 8.72386 7.5 9 7.5H12.528C12.8041 7.5 13.028 7.72386 13.028 8C13.028 8.27614 12.8041 8.5 12.528 8.5H9C8.72386 8.5 8.5 8.27614 8.5 8Z" fill="black"/>
</g>
<defs>
<clipPath id="clip0_437_6535">
<rect width="16" height="16" fill="white"/>
</clipPath>
</defs>
</svg>
