<svg width="16" height="16" viewBox="0 0 16 16" fill="none" xmlns="http://www.w3.org/2000/svg">
<path fill-rule="evenodd" clip-rule="evenodd" d="M2 6C2 5.72386 2.22386 5.5 2.5 5.5L4.50037 5.5C4.77651 5.5 5.00037 5.72386 5.00037 6C5.00037 6.27614 4.77651 6.5 4.50037 6.5L2.5 6.5C2.22386 6.5 2 6.27614 2 6Z" fill="black"/>
<path fill-rule="evenodd" clip-rule="evenodd" d="M2 9C2 8.72386 2.22386 8.5 2.5 8.5H4.5C4.77614 8.5 5 8.72386 5 9C5 9.27614 4.77614 9.5 4.5 9.5H2.5C2.22386 9.5 2 9.27614 2 9Z" fill="black"/>
<path fill-rule="evenodd" clip-rule="evenodd" d="M3.5 7C3.77614 7 4 7.22386 4 7.5V9C4 9.27614 3.77614 9.5 3.5 9.5C3.22386 9.5 3 9.27614 3 9V7.5C3 7.22386 3.22386 7 3.5 7Z" fill="black"/>
<path fill-rule="evenodd" clip-rule="evenodd" d="M2 12C2 11.7239 2.22386 11.5 2.5 11.5L4.50037 11.5C4.77651 11.5 5.00037 11.7239 5.00037 12C5.00037 12.2761 4.77651 12.5 4.50037 12.5L2.5 12.5C2.22386 12.5 2 12.2761 2 12Z" fill="black"/>
<path fill-rule="evenodd" clip-rule="evenodd" d="M3.5 10C3.77614 10 4 10.2239 4 10.5V11.7692C4 12.0454 3.77614 12.2692 3.5 12.2692C3.22386 12.2692 3 12.0454 3 11.7692V10.5C3 10.2239 3.22386 10 3.5 10Z" fill="black"/>
<path fill-rule="evenodd" clip-rule="evenodd" d="M4.54664 3.5C4.27248 3.5 4 3.74804 4 4.104V5.58031C4 5.85645 3.77614 6.08031 3.5 6.08031C3.22386 6.08031 3 5.85645 3 5.58031V4.104C3 3.24671 3.67059 2.5 4.54664 2.5H11.4534C12.3294 2.5 13 3.24671 13 4.104V13.396C13 14.2533 12.3294 15 11.4534 15H4.54664C3.73663 15 3 14.4223 3 13.5C3 13.2239 3.22386 13 3.5 13C3.77614 13 4 13.2239 4 13.5C4 13.791 4.20644 14 4.54664 14H11.4534C11.7275 14 12 13.752 12 13.396V4.104C12 3.74804 11.7275 3.5 11.4534 3.5H4.54664Z" fill="black"/>
<path fill-rule="evenodd" clip-rule="evenodd" d="M4 1.5C4 1.22386 4.21368 1 4.47727 1H12.7666C13.7058 1 14.5 1.78294 14.5 2.77434V13.5C14.5 13.7761 14.2863 14 14.0227 14C13.7591 14 13.5455 13.7761 13.5455 13.5V2.77434C13.5455 2.36529 13.2078 2 12.7666 2H4.47727C4.21368 2 4 1.77614 4 1.5Z" fill="black"/>
<path fill-rule="evenodd" clip-rule="evenodd" d="M6 6C6 5.72386 6.22386 5.5 6.5 5.5L10 5.5C10.2761 5.5 10.5 5.72386 10.5 6C10.5 6.27614 10.2761 6.5 10 6.5L6.5 6.5C6.22386 6.5 6 6.27614 6 6Z" fill="black"/>
<path fill-rule="evenodd" clip-rule="evenodd" d="M6 8C6 7.72386 6.22386 7.5 6.5 7.5L10 7.5C10.2761 7.5 10.5 7.72386 10.5 8C10.5 8.27614 10.2761 8.5 10 8.5L6.5 8.5C6.22386 8.5 6 8.27614 6 8Z" fill="black"/>
<path fill-rule="evenodd" clip-rule="evenodd" d="M6 10C6 9.72386 6.22386 9.5 6.5 9.5L10 9.5C10.2761 9.5 10.5 9.72386 10.5 10C10.5 10.2761 10.2761 10.5 10 10.5L6.5 10.5C6.22386 10.5 6 10.2761 6 10Z" fill="black"/>
</svg>
