<svg width="16" height="16" viewBox="0 0 16 16" fill="none" xmlns="http://www.w3.org/2000/svg">
<path fill-rule="evenodd" clip-rule="evenodd" d="M1.11062 5.68635C1.20553 5.56852 1.3487 5.5 1.5 5.5H14.5C14.6484 5.5 14.7892 5.56593 14.8842 5.67996C14.9792 5.79399 15.0186 5.94433 14.9918 6.0903L13.8121 12.5149C13.65 13.3987 12.8387 14 11.9455 14H4.18775C3.3683 14 2.61386 13.4606 2.43817 12.6514C2.43816 12.6513 2.43819 12.6515 2.43817 12.6514L1.01148 6.10649C0.979251 5.95866 1.0157 5.80418 1.11062 5.68635ZM2.12074 6.5L3.41528 12.4387C3.48018 12.7378 3.78529 13 4.18775 13H11.9455C12.4108 13 12.763 12.6916 12.8285 12.3345L13.8998 6.5H2.12074Z" fill="black"/>
<path fill-rule="evenodd" clip-rule="evenodd" d="M4.86721 7.51795C5.13344 7.44461 5.40871 7.60098 5.48205 7.8672L6.30848 10.8672C6.38182 11.1334 6.22545 11.4087 5.95922 11.482C5.693 11.5554 5.41773 11.399 5.34439 11.1328L4.51796 8.13279C4.44462 7.86656 4.60099 7.59129 4.86721 7.51795Z" fill="black"/>
<path fill-rule="evenodd" clip-rule="evenodd" d="M11.4842 7.51795C11.7505 7.59129 11.9068 7.86656 11.8335 8.13279L11.0071 11.1328C10.9337 11.399 10.6585 11.5554 10.3922 11.482C10.126 11.4087 9.96965 11.1334 10.043 10.8672L10.8694 7.8672C10.9428 7.60098 11.218 7.44461 11.4842 7.51795Z" fill="black"/>
<path fill-rule="evenodd" clip-rule="evenodd" d="M8.25 7.5C8.52614 7.5 8.75 7.72386 8.75 8V11C8.75 11.2761 8.52614 11.5 8.25 11.5C7.97386 11.5 7.75 11.2761 7.75 11V8C7.75 7.72386 7.97386 7.5 8.25 7.5Z" fill="black"/>
<path fill-rule="evenodd" clip-rule="evenodd" d="M10.1193 1.05639C10.3643 0.928989 10.6662 1.02432 10.7936 1.26932L12.0936 3.76932C12.221 4.01432 12.1256 4.31621 11.8806 4.4436C11.6356 4.571 11.3337 4.47567 11.2063 4.23067L9.90635 1.73067C9.77895 1.48567 9.87428 1.18379 10.1193 1.05639Z" fill="black"/>
<path fill-rule="evenodd" clip-rule="evenodd" d="M6.03066 1.05639C6.27566 1.18379 6.37099 1.48567 6.24359 1.73067L4.94359 4.23067C4.81619 4.47567 4.5143 4.571 4.2693 4.4436C4.02431 4.31621 3.92897 4.01432 4.05637 3.76932L5.35637 1.26932C5.48377 1.02432 5.78566 0.928989 6.03066 1.05639Z" fill="black"/>
</svg>
