<svg width="16" height="16" viewBox="0 0 16 16" fill="none" xmlns="http://www.w3.org/2000/svg">
<path fill-rule="evenodd" clip-rule="evenodd" d="M8 4C7.17157 4 6.5 4.67157 6.5 5.5C6.5 6.32843 7.17157 7 8 7C8.82843 7 9.5 6.32843 9.5 5.5C9.5 4.67157 8.82843 4 8 4ZM5.5 5.5C5.5 4.11929 6.61929 3 8 3C9.38071 3 10.5 4.11929 10.5 5.5C10.5 6.88071 9.38071 8 8 8C6.61929 8 5.5 6.88071 5.5 5.5Z" fill="black"/>
<path fill-rule="evenodd" clip-rule="evenodd" d="M4.50002 10.8793L4.51507 12.9964C4.51703 13.2726 4.29477 13.498 4.01864 13.5C3.7425 13.502 3.51706 13.2797 3.5151 13.0036L3.50004 10.8862C3.49309 9.82775 4.37239 9 5.4252 9H9.25C9.52614 9 9.75 9.22386 9.75 9.5C9.75 9.77614 9.52614 10 9.25 10H5.4252C4.89237 10 4.49709 10.4102 4.50002 10.8793Z" fill="black"/>
<path fill-rule="evenodd" clip-rule="evenodd" d="M8 2C4.68756 2 2 4.69072 2 8.00244C2 11.3137 4.68707 14 8 14C8.51472 14 9.00925 13.9368 9.4798 13.8159C9.74725 13.7471 10.0198 13.9082 10.0885 14.1757C10.1573 14.4431 9.9962 14.7157 9.72875 14.7844C9.1753 14.9267 8.59706 15 8 15C4.13514 15 1 11.8663 1 8.00244C1 4.13905 4.13465 1 8 1C11.8649 1 15 4.13369 15 7.99756C15 8.60209 14.9211 9.18425 14.78 9.74311C14.7124 10.0109 14.4406 10.1731 14.1728 10.1055C13.9051 10.0379 13.7428 9.7661 13.8104 9.49836C13.9326 9.0141 14 8.51415 14 7.99756C14 4.68633 11.3129 2 8 2Z" fill="black"/>
<path fill-rule="evenodd" clip-rule="evenodd" d="M11.75 9C10.2312 9 9 10.2312 9 11.75C9 13.2688 10.2312 14.5 11.75 14.5C13.2688 14.5 14.5 13.2688 14.5 11.75C14.5 10.2312 13.2688 9 11.75 9ZM8 11.75C8 9.67893 9.67893 8 11.75 8C13.8211 8 15.5 9.67893 15.5 11.75C15.5 13.8211 13.8211 15.5 11.75 15.5C9.67893 15.5 8 13.8211 8 11.75Z" fill="black"/>
<path fill-rule="evenodd" clip-rule="evenodd" d="M13.3293 10.6238C13.5371 10.8056 13.5581 11.1215 13.3763 11.3293L11.6258 13.3293C11.5308 13.4378 11.3937 13.5 11.2495 13.5C11.1054 13.5 10.9682 13.4378 10.8733 13.3293L10.1238 12.4729C9.94189 12.2651 9.96291 11.9493 10.1707 11.7674C10.3785 11.5855 10.6944 11.6065 10.8763 11.8143L11.2495 12.2408L12.6238 10.6707C12.8056 10.4629 13.1215 10.4419 13.3293 10.6238Z" fill="black"/>
</svg>
