<svg width="16" height="16" viewBox="0 0 16 16" fill="none" xmlns="http://www.w3.org/2000/svg">
<path d="M9.01002 15C8.74502 15 8.49002 14.895 8.30002 14.705C8.04502 14.45 7.94502 14.095 8.03502 13.745H8.03002L8.33502 12.53C8.35502 12.44 8.40502 12.36 8.46502 12.3L12.295 8.46C12.91 7.845 13.915 7.845 14.535 8.46C15.155 9.08 15.155 10.08 14.535 10.7L10.705 14.53C10.64 14.595 10.56 14.64 10.475 14.66L9.26002 14.965C9.17502 14.985 9.09502 14.995 9.01002 14.995V15ZM9.00002 13.985C9.00002 13.985 9.00002 13.985 9.00002 13.99L10.1 13.725L13.83 9.995C14.055 9.77 14.055 9.4 13.83 9.17C13.6 8.94 13.23 8.94 13.005 9.17L9.27002 12.905L9.00002 13.985Z" fill="black"/>
<path fill-rule="evenodd" clip-rule="evenodd" d="M2 2.86915C2 1.82574 2.86161 1 3.90095 1H9.5L9.84947 1.14241L13.3495 4.56298L13.5 4.92056V6.75C13.5 7.02614 13.2761 7.25 13 7.25C12.7239 7.25 12.5 7.02614 12.5 6.75V5.13104L9.29625 2H3.90095C3.39212 2 3 2.39954 3 2.86915V13.1308C3 13.6005 3.39213 14 3.90095 14H6.5C6.77614 14 7 14.2239 7 14.5C7 14.7761 6.77614 15 6.5 15H3.90095C2.86161 15 2 14.1743 2 13.1308V2.86915Z" fill="black"/>
<path fill-rule="evenodd" clip-rule="evenodd" d="M9.5 1C9.77614 1 10 1.22386 10 1.5V4.30095C10 4.41 10.09 4.5 10.199 4.5H13C13.2761 4.5 13.5 4.72386 13.5 5C13.5 5.27614 13.2761 5.5 13 5.5H10.199C9.53772 5.5 9 4.96228 9 4.30095V1.5C9 1.22386 9.22386 1 9.5 1Z" fill="black"/>
<path fill-rule="evenodd" clip-rule="evenodd" d="M4 4C4 3.72386 4.22386 3.5 4.5 3.5H7.5C7.77614 3.5 8 3.72386 8 4C8 4.27614 7.77614 4.5 7.5 4.5H4.5C4.22386 4.5 4 4.27614 4 4ZM4 6C4 5.72386 4.22386 5.5 4.5 5.5H7.5C7.77614 5.5 8 5.72386 8 6C8 6.27614 7.77614 6.5 7.5 6.5H4.5C4.22386 6.5 4 6.27614 4 6ZM4 8C4 7.72386 4.22386 7.5 4.5 7.5H6.25C6.52614 7.5 6.75 7.72386 6.75 8C6.75 8.27614 6.52614 8.5 6.25 8.5H4.5C4.22386 8.5 4 8.27614 4 8Z" fill="black"/>
</svg>
