<svg width="16" height="16" viewBox="0 0 16 16" fill="none" xmlns="http://www.w3.org/2000/svg">
<path fill-rule="evenodd" clip-rule="evenodd" d="M6.41241 9C6.20197 9 6 9.18484 6 9.44266V14H10V9.44266C10 9.18484 9.79803 9 9.58759 9H6.41241ZM5 9.44266C5 8.66355 5.6192 8 6.41241 8H9.58759C10.3808 8 11 8.66355 11 9.44266V14.5C11 14.7761 10.7761 15 10.5 15H5.5C5.22386 15 5 14.7761 5 14.5V9.44266Z" fill="black"/>
<path fill-rule="evenodd" clip-rule="evenodd" d="M2 5.5C2.27614 5.5 2.5 5.72386 2.5 6V13.0738C2.5 13.6137 2.90526 14 3.34272 14H12.6573C13.0947 14 13.5 13.6137 13.5 13.0738V6C13.5 5.72386 13.7239 5.5 14 5.5C14.2761 5.5 14.5 5.72386 14.5 6V13.0738C14.5 14.1079 13.7034 15 12.6573 15H3.34272C2.29662 15 1.5 14.1079 1.5 13.0738V6C1.5 5.72386 1.72386 5.5 2 5.5Z" fill="black"/>
<path fill-rule="evenodd" clip-rule="evenodd" d="M2.43658 2.66827C2.43655 2.66842 2.4366 2.66812 2.43658 2.66827L2.00341 4.92784C2.03708 5.19768 2.31925 5.5 2.8 5.5C2.9961 5.5 3.17048 5.44398 3.30708 5.35583C3.78869 5.0402 4.41132 5.04021 4.89293 5.35584C5.02953 5.44398 5.20391 5.5 5.4 5.5C5.5961 5.5 5.77048 5.44398 5.90709 5.35583C6.38869 5.04021 7.01131 5.04021 7.49291 5.35583C7.62952 5.44398 7.8039 5.5 8 5.5C8.1961 5.5 8.37048 5.44398 8.50709 5.35583C8.9887 5.0402 9.61134 5.04021 10.0929 5.35585C10.2295 5.44399 10.4039 5.5 10.6 5.5C10.7961 5.5 10.9705 5.44399 11.1071 5.35585C11.5887 5.0402 12.2113 5.0402 12.6929 5.35585C12.8295 5.44399 13.0039 5.5 13.2 5.5C13.69 5.5 13.9737 5.18595 13.9983 4.91231L13.5681 2.66827C13.5681 2.66823 13.5681 2.66832 13.5681 2.66827C13.4931 2.28192 13.1521 2 12.7543 2H3.25036C2.8527 2 2.51167 2.28208 2.43658 2.66827ZM1.02629 4.71347L1.45485 2.47795C1.62137 1.61903 2.37603 1 3.25036 1H12.7543C13.6286 1 14.3833 1.61903 14.5498 2.47795L14.55 2.47897L14.9911 4.77976C14.997 4.81078 15 4.8423 15 4.8739C15 5.83751 14.1262 6.5 13.2 6.5C12.8116 6.5 12.4479 6.38852 12.1482 6.19446L12.1453 6.19259C11.9963 6.09463 11.8037 6.09462 11.6547 6.19258L11.6518 6.19447C11.3521 6.38853 10.9884 6.5 10.6 6.5C10.2116 6.5 9.84787 6.38852 9.54821 6.19446L9.54532 6.19259C9.39632 6.09463 9.20367 6.09462 9.05467 6.19258L9.05179 6.19447C8.75213 6.38853 8.38836 6.5 8 6.5C7.61164 6.5 7.24787 6.38852 6.94822 6.19446L6.94532 6.19259C6.79632 6.09463 6.60367 6.09462 6.45467 6.19258L6.45179 6.19447C6.15213 6.38853 5.78836 6.5 5.4 6.5C5.01164 6.5 4.64787 6.38852 4.34822 6.19446L4.34532 6.19259C4.19632 6.09463 4.00367 6.09462 3.85467 6.19258L3.85179 6.19447C3.55213 6.38853 3.18836 6.5 2.8 6.5C1.87382 6.5 1 5.83751 1 4.8739C1 4.81778 1.00924 4.76382 1.02629 4.71347Z" fill="black"/>
</svg>
