<svg width="16" height="16" viewBox="0 0 16 16" fill="none" xmlns="http://www.w3.org/2000/svg">
<path fill-rule="evenodd" clip-rule="evenodd" d="M8.43827 1.11277C10.5841 2.25961 12.554 2.89273 13.3043 3.10953L13.3101 3.11121L13.3101 3.11125C13.6905 3.22614 14 3.56662 14 4.00763V9.57293C14 10.3329 13.6559 11.023 13.1904 11.6121C12.7234 12.2032 12.1035 12.7321 11.4751 13.1812C10.2176 14.0801 8.84882 14.7138 8.37311 14.9229L8.36405 14.9268C8.12957 15.0244 7.87043 15.0244 7.63595 14.9268L7.62773 14.9233C7.14885 14.7138 5.78007 14.0801 4.52307 13.1812C3.89492 12.732 3.27547 12.203 2.80878 11.6119C2.34372 11.0228 2 10.3328 2 9.57293V4.01227C2 3.58028 2.30076 3.2262 2.69592 3.11409C3.45237 2.89086 5.42382 2.26236 7.55619 1.11326C7.83055 0.962412 8.16378 0.962247 8.43827 1.11277ZM7.99781 2.0112C5.8123 3.18458 3.80043 3.8299 3 4.06698V9.57293C3 10.0246 3.20558 10.5007 3.59366 10.9922C3.9801 11.4817 4.51761 11.9479 5.10478 12.3678C6.25471 13.1902 7.5214 13.7837 7.99993 13.9946C8.47767 13.7831 9.74366 13.1897 10.8936 12.3677C11.4811 11.9478 12.019 11.4816 12.4058 10.9921C12.7943 10.5005 13 10.0244 13 9.57293V4.06248C12.1941 3.82814 10.1889 3.17825 7.99781 2.0112Z" fill="black"/>
<path fill-rule="evenodd" clip-rule="evenodd" d="M10.8535 5.6464C11.0488 5.84164 11.0488 6.15822 10.8536 6.35351L7.3545 9.85351C7.26073 9.9473 7.13353 10 7.0009 10C6.86827 10 6.74108 9.9473 6.6473 9.85351L5.1464 8.35222C4.95116 8.15693 4.9512 7.84035 5.14649 7.64511C5.34178 7.44987 5.65836 7.44991 5.8536 7.6452L7.0009 8.7928L10.1464 5.64649C10.3416 5.4512 10.6582 5.45116 10.8535 5.6464Z" fill="black"/>
</svg>
