<svg width="16" height="16" viewBox="0 0 16 16" fill="none" xmlns="http://www.w3.org/2000/svg">
<path fill-rule="evenodd" clip-rule="evenodd" d="M4 2H2V4H4V2ZM2 1C1.44772 1 1 1.44772 1 2V4C1 4.55228 1.44772 5 2 5H4C4.55228 5 5 4.55228 5 4V2C5 1.44772 4.55228 1 4 1H2Z" fill="black"/>
<path fill-rule="evenodd" clip-rule="evenodd" d="M9 2H7V4H9V2ZM7 1C6.44772 1 6 1.44772 6 2V4C6 4.55228 6.44772 5 7 5H9C9.55228 5 10 4.55228 10 4V2C10 1.44772 9.55228 1 9 1H7Z" fill="black"/>
<path fill-rule="evenodd" clip-rule="evenodd" d="M14 2H12V4H14V2ZM12 1C11.4477 1 11 1.44772 11 2V4C11 4.55228 11.4477 5 12 5H14C14.5523 5 15 4.55228 15 4V2C15 1.44772 14.5523 1 14 1H12Z" fill="black"/>
<path fill-rule="evenodd" clip-rule="evenodd" d="M4 7H2V9H4V7ZM2 6C1.44772 6 1 6.44772 1 7V9C1 9.55228 1.44772 10 2 10H4C4.55228 10 5 9.55228 5 9V7C5 6.44772 4.55228 6 4 6H2Z" fill="black"/>
<path fill-rule="evenodd" clip-rule="evenodd" d="M9 7H7V9H9V7ZM7 6C6.44772 6 6 6.44772 6 7V9C6 9.55228 6.44772 10 7 10H9C9.55228 10 10 9.55228 10 9V7C10 6.44772 9.55228 6 9 6H7Z" fill="black"/>
<path fill-rule="evenodd" clip-rule="evenodd" d="M14 7H12V9H14V7ZM12 6C11.4477 6 11 6.44772 11 7V9C11 9.55228 11.4477 10 12 10H14C14.5523 10 15 9.55228 15 9V7C15 6.44772 14.5523 6 14 6H12Z" fill="black"/>
<path fill-rule="evenodd" clip-rule="evenodd" d="M4 12H2V14H4V12ZM2 11C1.44772 11 1 11.4477 1 12V14C1 14.5523 1.44772 15 2 15H4C4.55228 15 5 14.5523 5 14V12C5 11.4477 4.55228 11 4 11H2Z" fill="black"/>
<path fill-rule="evenodd" clip-rule="evenodd" d="M9 12H7V14H9V12ZM7 11C6.44772 11 6 11.4477 6 12V14C6 14.5523 6.44772 15 7 15H9C9.55228 15 10 14.5523 10 14V12C10 11.4477 9.55228 11 9 11H7Z" fill="black"/>
<path fill-rule="evenodd" clip-rule="evenodd" d="M14 12H12V14H14V12ZM12 11C11.4477 11 11 11.4477 11 12V14C11 14.5523 11.4477 15 12 15H14C14.5523 15 15 14.5523 15 14V12C15 11.4477 14.5523 11 14 11H12Z" fill="black"/>
</svg>
