<svg width="16" height="16" viewBox="0 0 16 16" fill="none" xmlns="http://www.w3.org/2000/svg">
<path fill-rule="evenodd" clip-rule="evenodd" d="M7.75747 1.11695C7.94506 0.959565 8.21904 0.961204 8.40474 1.12082L14.8259 6.64C14.9854 6.77707 15.0421 6.99927 14.9677 7.19597C14.8934 7.39267 14.7039 7.52183 14.4936 7.51914L13.5 7.50643L13.5 14.5C13.5 14.6326 13.4473 14.7598 13.3536 14.8536C13.2598 14.9473 13.1326 15 13 15H3.00003C2.72388 15 2.50003 14.7761 2.50003 14.5L2.50003 7.50643L1.50642 7.51914C1.29506 7.52184 1.10483 7.39134 1.03127 7.19317C0.957719 6.995 1.01673 6.77198 1.17867 6.63613L7.75747 1.11695ZM2.89529 6.5013L2.99363 6.50004C3.12734 6.49833 3.25616 6.55025 3.35131 6.64419C3.44647 6.73814 3.50003 6.86628 3.50003 7L3.50003 14H12.5L12.5 7C12.5 6.86628 12.5536 6.73814 12.6487 6.64419C12.7439 6.55025 12.8727 6.49833 13.0064 6.50004L13.1308 6.50163L8.0749 2.15594L2.89529 6.5013Z" fill="black"/>
<path fill-rule="evenodd" clip-rule="evenodd" d="M6.72993 10C6.63855 10 6.5 10.0944 6.5 10.2855V14H9.5V10.2855C9.5 10.0944 9.36145 10 9.27007 10H6.72993ZM5.5 10.2855C5.5 9.61257 6.01838 9 6.72993 9H9.27007C9.98162 9 10.5 9.61257 10.5 10.2855V14.5C10.5 14.7761 10.2761 15 10 15H6C5.72386 15 5.5 14.7761 5.5 14.5V10.2855Z" fill="black"/>
</svg>
