<svg width="16" height="16" viewBox="0 0 16 16" fill="none" xmlns="http://www.w3.org/2000/svg">
<path fill-rule="evenodd" clip-rule="evenodd" d="M1.57177 3.74181C1.71436 3.50533 2.02166 3.42922 2.25814 3.57182L7.85608 6.94727C7.86326 6.9516 7.87033 6.95611 7.87727 6.96079C7.95487 7.01307 8.09433 7.01307 8.17192 6.96079C8.17833 6.95647 8.18484 6.9523 8.19144 6.94829L13.7401 3.57283C13.976 3.42931 14.2836 3.50422 14.4271 3.74014C14.5706 3.97605 14.4957 4.28365 14.2598 4.42717L8.71968 7.79744C8.30911 8.06731 7.74126 8.06752 7.33045 7.79806L1.74177 4.42818C1.50529 4.28559 1.42918 3.97829 1.57177 3.74181Z" fill="black"/>
<path fill-rule="evenodd" clip-rule="evenodd" d="M2 4V12H14V4H2ZM1 3.97232C1 3.43316 1.43847 3 1.9745 3H14.0255C14.5615 3 15 3.43316 15 3.97232V12.0277C15 12.5668 14.5615 13 14.0255 13H1.9745C1.43847 13 1 12.5668 1 12.0277V3.97232Z" fill="black"/>
</svg>
