<svg width="16" height="16" viewBox="0 0 16 16" fill="none" xmlns="http://www.w3.org/2000/svg">
<g clip-path="url(#clip0_437_6615)">
<path fill-rule="evenodd" clip-rule="evenodd" d="M8.00001 1.96667C4.66789 1.96667 1.96667 4.66789 1.96667 8.00001C1.96667 11.3321 4.66789 14.0333 8.00001 14.0333C11.3321 14.0333 14.0333 11.3321 14.0333 8.00001C14.0333 4.66789 11.3321 1.96667 8.00001 1.96667ZM0.966675 8.00001C0.966675 4.11561 4.11561 0.966675 8.00001 0.966675C11.8844 0.966675 15.0333 4.11561 15.0333 8.00001C15.0333 11.8844 11.8844 15.0333 8.00001 15.0333C4.11561 15.0333 0.966675 11.8844 0.966675 8.00001Z" fill="black"/>
<path fill-rule="evenodd" clip-rule="evenodd" d="M8 5.5C7.449 5.5 7 5.949 7 6.5C7 7.051 7.449 7.5 8 7.5C9.10329 7.5 10 8.39671 10 9.5C10 10.6033 9.10329 11.5 8 11.5C6.89765 11.5 6 10.6085 6 9.5C6 9.22386 6.22386 9 6.5 9C6.77614 9 7 9.22386 7 9.5C7 10.051 7.449 10.5 8 10.5C8.551 10.5 9 10.051 9 9.5C9 8.949 8.551 8.5 8 8.5C6.89671 8.5 6 7.60329 6 6.5C6 5.39671 6.89671 4.5 8 4.5C9.10235 4.5 10 5.3915 10 6.5C10 6.77614 9.77614 7 9.5 7C9.22386 7 9 6.77614 9 6.5C9 5.949 8.551 5.5 8 5.5Z" fill="black"/>
<path fill-rule="evenodd" clip-rule="evenodd" d="M8 3C8.27614 3 8.5 3.22386 8.5 3.5V4.5C8.5 4.77614 8.27614 5 8 5C7.72386 5 7.5 4.77614 7.5 4.5V3.5C7.5 3.22386 7.72386 3 8 3Z" fill="black"/>
<path fill-rule="evenodd" clip-rule="evenodd" d="M8 11C8.27614 11 8.5 11.2239 8.5 11.5V12.5C8.5 12.7761 8.27614 13 8 13C7.72386 13 7.5 12.7761 7.5 12.5V11.5C7.5 11.2239 7.72386 11 8 11Z" fill="black"/>
</g>
<defs>
<clipPath id="clip0_437_6615">
<rect width="16" height="16" fill="white"/>
</clipPath>
</defs>
</svg>
