<svg width="16" height="16" viewBox="0 0 16 16" fill="none" xmlns="http://www.w3.org/2000/svg">
<path fill-rule="evenodd" clip-rule="evenodd" d="M6.5 2.5355C6.5 1.70494 7.15613 1 8 1C8.84387 1 9.5 1.70494 9.5 2.5355V3.5C9.5 3.77614 9.27614 4 9 4C8.72386 4 8.5 3.77614 8.5 3.5V2.5355C8.5 2.22405 8.25899 2 8 2C7.74101 2 7.5 2.22405 7.5 2.5355V3.5C7.5 3.77614 7.27614 4 7 4C6.72386 4 6.5 3.77614 6.5 3.5V2.5355Z" fill="black"/>
<path fill-rule="evenodd" clip-rule="evenodd" d="M4.75002 6.5C4.75002 4.60875 6.14859 3 8.0006 3C9.85288 3 11.25 4.60904 11.25 6.5V8.82107L12.7658 10.6677L12.7729 10.6773C13.0465 11.0449 13.0538 11.497 12.8955 11.8479C12.737 12.1993 12.3854 12.5 11.9109 12.5H4.08456C3.6102 12.5 3.25903 12.2001 3.10175 11.8467C2.94501 11.4945 2.9568 11.0448 3.22724 10.6787L3.23477 10.6685L4.75002 8.82117V6.5ZM8.0006 4C6.7839 4 5.75002 5.07418 5.75002 6.5V9.17883L4.02673 11.2798C3.99527 11.3273 3.9915 11.3865 4.01536 11.4401C4.02738 11.4671 4.04273 11.4831 4.05347 11.4907C4.06178 11.4966 4.07003 11.5 4.08456 11.5H11.9109C11.9249 11.5 11.9338 11.4967 11.9433 11.49C11.9552 11.4815 11.9715 11.4644 11.984 11.4366C12.0091 11.381 12.004 11.3239 11.9751 11.2806L10.25 9.17893V6.5C10.25 5.07389 9.21704 4 8.0006 4Z" fill="black"/>
<path fill-rule="evenodd" clip-rule="evenodd" d="M9.67817 13.0328C9.93619 13.1312 10.0656 13.4201 9.96719 13.6782C9.66877 14.4607 8.89257 15 8.00001 15C7.10637 15 6.33126 14.457 6.03311 13.6789C5.93431 13.421 6.06326 13.1319 6.32112 13.0331C6.57898 12.9343 6.86811 13.0632 6.96691 13.3211C7.11385 13.7046 7.51216 14 8.00001 14C8.48896 14 8.88617 13.7064 9.03283 13.3218C9.13123 13.0638 9.42016 12.9344 9.67817 13.0328Z" fill="black"/>
</svg>
