<svg width="16" height="16" viewBox="0 0 16 16" fill="none" xmlns="http://www.w3.org/2000/svg">
<path fill-rule="evenodd" clip-rule="evenodd" d="M8 5C7.44772 5 7 5.44772 7 6C7 6.55228 7.44772 7 8 7C8.55228 7 9 6.55228 9 6C9 5.44772 8.55228 5 8 5ZM6 6C6 4.89543 6.89543 4 8 4C9.10457 4 10 4.89543 10 6C10 7.10457 9.10457 8 8 8C6.89543 8 6 7.10457 6 6Z" fill="black"/>
<path fill-rule="evenodd" clip-rule="evenodd" d="M3.23636 1.09928C3.45768 1.26443 3.50321 1.57772 3.33806 1.79903C2.50522 2.91509 2 4.33249 2 5.87788C2 7.42327 2.50522 8.84067 3.33806 9.95673C3.50321 10.178 3.45768 10.4913 3.23636 10.6565C3.01505 10.8216 2.70176 10.7761 2.53661 10.5548C1.57744 9.26944 1 7.64308 1 5.87788C1 4.11268 1.57744 2.48632 2.53661 1.20097C2.70176 0.979654 3.01505 0.934125 3.23636 1.09928Z" fill="black"/>
<path fill-rule="evenodd" clip-rule="evenodd" d="M12.6971 1.10222C12.9168 0.934909 13.2305 0.97737 13.3978 1.19706C14.4032 2.51718 15 4.18765 15 6C15 7.81234 14.4032 9.48281 13.3978 10.8029C13.2305 11.0226 12.9168 11.0651 12.6971 10.8978C12.4774 10.7305 12.4349 10.4167 12.6022 10.1971C13.4767 9.04879 14 7.59059 14 6C14 4.4094 13.4767 2.95121 12.6022 1.80293C12.4349 1.58325 12.4774 1.26953 12.6971 1.10222Z" fill="black"/>
<path fill-rule="evenodd" clip-rule="evenodd" d="M5.10524 2.67992C5.33075 2.83929 5.38436 3.1513 5.22499 3.37681C4.77155 4.0184 4.5 4.82669 4.5 5.712C4.5 6.59732 4.77155 7.4056 5.22499 8.04719C5.38436 8.2727 5.33075 8.58471 5.10524 8.74409C4.87973 8.90346 4.56772 8.84985 4.40835 8.62434C3.83511 7.81323 3.5 6.80316 3.5 5.712C3.5 4.62085 3.83511 3.61077 4.40835 2.79966C4.56772 2.57416 4.87973 2.52054 5.10524 2.67992Z" fill="black"/>
<path fill-rule="evenodd" clip-rule="evenodd" d="M10.7115 2.67992C10.937 2.52054 11.249 2.57416 11.4084 2.79966C11.9816 3.61077 12.3167 4.62085 12.3167 5.712C12.3167 6.80316 11.9816 7.81323 11.4084 8.62434C11.249 8.84985 10.937 8.90346 10.7115 8.74409C10.486 8.58471 10.4323 8.2727 10.5917 8.04719C11.0452 7.4056 11.3167 6.59732 11.3167 5.712C11.3167 4.82669 11.0452 4.0184 10.5917 3.37681C10.4323 3.1513 10.486 2.83929 10.7115 2.67992Z" fill="black"/>
<path fill-rule="evenodd" clip-rule="evenodd" d="M8.24982 7.56691C8.48901 7.70491 8.57105 8.01068 8.43305 8.24987L4.68305 14.7499C4.54506 14.9891 4.23929 15.0711 4.0001 14.9331C3.76091 14.7951 3.67887 14.4893 3.81687 14.2501L7.56687 7.75015C7.70486 7.51096 8.01063 7.42892 8.24982 7.56691Z" fill="black"/>
<path fill-rule="evenodd" clip-rule="evenodd" d="M7.7501 7.56691C7.98929 7.42892 8.29506 7.51096 8.43305 7.75015L12.1831 14.2501C12.321 14.4893 12.239 14.7951 11.9998 14.9331C11.7606 15.0711 11.4549 14.9891 11.3169 14.7499L7.56687 8.24987C7.42887 8.01068 7.51091 7.70491 7.7501 7.56691Z" fill="black"/>
<path fill-rule="evenodd" clip-rule="evenodd" d="M5 12.5C5 12.2239 5.17519 12 5.3913 12H10.6087C10.8248 12 11 12.2239 11 12.5C11 12.7761 10.8248 13 10.6087 13H5.3913C5.17519 13 5 12.7761 5 12.5Z" fill="black"/>
</svg>
