<svg xmlns="http://www.w3.org/2000/svg" width="16" height="16" fill="currentColor" viewBox="0 0 16 16">
  <path fill-rule="evenodd" d="M2 12V2.5h1.708c.112 0 .228.047.313.133l.866.875c.27.272.64.43 1.024.43H14V7.5a.5.5 0 0 0 1 0V3.913a.976.976 0 0 0-.971-.976H5.911a.447.447 0 0 1-.313-.133l-.866-.875A1.448 1.448 0 0 0 3.708 1.5H1.971A.976.976 0 0 0 1 2.476v9.548c0 .533.432.976.971.976H6.5a.5.5 0 0 0 0-1H2Zm8.832-2.874a.5.5 0 0 1 .042.706L9.169 11.75l1.705 1.918a.5.5 0 1 1-.748.664l-2-2.25a.5.5 0 0 1 0-.664l2-2.25a.5.5 0 0 1 .706-.042Zm1.336 0a.5.5 0 0 1 .706.042l2 2.25a.5.5 0 0 1 0 .664l-2 2.25a.5.5 0 1 1-.748-.664l1.705-1.918-1.705-1.918a.5.5 0 0 1 .042-.706Z" clip-rule="evenodd"/>
</svg>
