<svg xmlns="http://www.w3.org/2000/svg" width="16" height="16" fill="currentColor" viewBox="0 0 16 16">
  <path d="M8.925 14c-.075 0-.145 0-.22-.01-.745-.07-1.275-.53-1.42-1.235-.305-1.52.89-2.98 1.63-3.715a6.807 6.807 0 0 1 2.215-1.46c-.055-.34-.14-.615-.25-.8a2.834 2.834 0 0 0-.285-.375c-.395-.425-.855-.615-1.35-.56-.725.075-1.525.66-2.03 1.49-.34.555-.585 1.155-.84 1.795-.125.305-.25.615-.385.915-.36.8-.83 1.85-1.78 2.27-.67.295-1.45.185-1.935-.27-.28-.26-.465-.625-.54-1.06C1.41 9.14 2.685 7.77 3.81 6.56c.3-.32.58-.625.82-.92l.1-.125c.35-.43.68-.835.73-1.32a.956.956 0 0 0-.27-.785c-.27-.28-.69-.435-1.105-.405-1.05.075-1.81 1.015-2.17 1.57a.5.5 0 0 1-.69.15.5.5 0 0 1-.15-.69c.465-.715 1.46-1.925 2.945-2.03.71-.05 1.42.215 1.895.71.415.43.61.995.545 1.585-.085.775-.54 1.34-.945 1.84l-.1.12c-.26.325-.555.64-.87.975C3.53 8.325 2.48 9.45 2.72 10.8c.04.215.125.395.24.505.195.18.55.215.85.085.595-.265.96-1.075 1.25-1.725.15-.33.27-.625.39-.92.26-.645.535-1.315.915-1.935.67-1.105 1.735-1.855 2.78-1.965.815-.085 1.565.215 2.18.865.145.155.28.33.405.53.165.265.285.61.36 1.005.225-.06.45-.105.68-.145.57-.09 1.165-.12 1.76-.08a.5.5 0 0 1 .465.535.496.496 0 0 1-.535.465 6.807 6.807 0 0 0-1.535.065c-.25.04-.495.095-.735.165.04 1.44-.33 3.165-1.02 4.29-.585.95-1.36 1.45-2.25 1.45l.005.01Zm2.27-5.36a5.667 5.667 0 0 0-1.57 1.105c-.48.48-1.575 1.71-1.355 2.81.035.17.125.4.53.44.595.06 1.105-.27 1.53-.965.585-.945.845-2.275.87-3.385l-.005-.005Z"/>
</svg>
