<svg xmlns="http://www.w3.org/2000/svg" width="16" height="16" fill="currentColor" viewBox="0 0 16 16">
  <path d="M8.887 14c-.075 0-.155 0-.23-.01-.844-.074-1.444-.596-1.604-1.395-.32-1.574.895-3.053 1.644-3.793a6.819 6.819 0 0 1 2.02-1.366c-.04-.193-.1-.347-.165-.461a1.99 1.99 0 0 0-.24-.313c-.325-.343-.68-.492-1.075-.452-.61.065-1.31.586-1.75 1.296-.314.511-.544 1.077-.789 1.678-.12.298-.24.59-.375.884-.365.81-.84 1.862-1.85 2.303-.739.323-1.604.2-2.153-.307-.31-.288-.52-.69-.6-1.162-.34-1.892.994-3.312 2.064-4.454.285-.302.555-.59.775-.863l.095-.12c.325-.397.605-.74.644-1.122a.65.65 0 0 0-.184-.536c-.2-.208-.53-.323-.85-.308-.895.06-1.56.89-1.88 1.38A.754.754 0 0 1 1.12 4.06c.81-1.246 1.89-1.976 3.034-2.055.76-.055 1.524.228 2.034.76a2.12 2.12 0 0 1 .6 1.727c-.09.82-.555 1.395-.97 1.902l-.09.114c-.255.318-.554.636-.844.948-.93.993-1.895 2.021-1.69 3.178.025.149.08.268.15.332.11.1.335.115.525.035.48-.208.805-.933 1.07-1.51.14-.312.255-.59.37-.868.254-.625.52-1.276.9-1.892.689-1.122 1.789-1.891 2.873-2.005.875-.095 1.67.223 2.32.913.154.164.294.348.42.546.134.214.24.477.314.78a7.639 7.639 0 0 1 2.17-.154c.414.03.724.382.694.794a.74.74 0 0 1-.8.69c-.48-.03-.954-.01-1.414.06a5.34 5.34 0 0 0-.49.1c0 1.39-.36 2.978-1.015 4.03-.61.984-1.454 1.51-2.399 1.51l.005.005Zm1.884-4.925c-.374.218-.72.481-1.02.78-.434.426-1.419 1.519-1.229 2.442.02.09.04.184.27.204.17.014.685.06 1.22-.8.44-.71.685-1.713.764-2.631l-.005.005Z"/>
</svg>
