<svg xmlns="http://www.w3.org/2000/svg" width="16" height="16" fill="currentColor" viewBox="0 0 16 16">
  <path fill-rule="evenodd" d="M12.5 1a.5.5 0 0 1 .5.5v2a.5.5 0 0 1-.5.5h-2a.5.5 0 0 1 0-1H12V1.5a.5.5 0 0 1 .5-.5ZM3 12.5a.5.5 0 0 1 .5-.5h2a.5.5 0 0 1 0 1H4v1.5a.5.5 0 0 1-1 0v-2Z" clip-rule="evenodd"/>
  <path fill-rule="evenodd" d="M8 2a5.998 5.998 0 0 0-5.196 9 .5.5 0 1 1-.866.5A6.998 6.998 0 0 1 8 1c1.908 0 3.571.614 4.854 1.896a.5.5 0 0 1-.708.708C11.076 2.534 9.68 2 8 2Zm5.379 2.317a.5.5 0 0 1 .683.183A6.998 6.998 0 0 1 8 15c-1.908 0-3.571-.614-4.854-1.896a.5.5 0 1 1 .708-.707C4.924 13.466 6.32 14 8 14a5.998 5.998 0 0 0 5.196-9 .5.5 0 0 1 .183-.683Z" clip-rule="evenodd"/>
  <path fill-rule="evenodd" d="M9.5 6.5h-3v3h3v-3Zm-3-1a1 1 0 0 0-1 1v3a1 1 0 0 0 1 1h3a1 1 0 0 0 1-1v-3a1 1 0 0 0-1-1h-3Z" clip-rule="evenodd"/>
</svg>
