<svg xmlns="http://www.w3.org/2000/svg" width="16" height="16" fill="currentColor" viewBox="0 0 16 16">
  <path fill-rule="evenodd" d="M2 8c0-3.315 2.685-6 6-6 1.327 0 2.477.333 3.429 1H10.5a.5.5 0 0 0 0 1h2a.5.5 0 0 0 .5-.5v-2a.5.5 0 0 0-1 0v.679C10.865 1.384 9.509 1 8 1a6.998 6.998 0 0 0-6.062 10.5.5.5 0 0 0 .866-.5A5.969 5.969 0 0 1 2 8Zm1 4.5a.5.5 0 0 1 .5-.5h2a.5.5 0 0 1 0 1h-.929c.952.667 2.102 1 3.429 1a5.998 5.998 0 0 0 5.196-9 .5.5 0 0 1 .866-.5A6.998 6.998 0 0 1 8 15c-1.509 0-2.865-.384-4-1.179v.679a.5.5 0 0 1-1 0v-2Zm2.5-6a1 1 0 0 1 1-1h3a1 1 0 0 1 1 1v3a1 1 0 0 1-1 1h-3a1 1 0 0 1-1-1v-3Zm1 0h3v3h-3v-3Z" clip-rule="evenodd"/>
</svg>
