<svg xmlns="http://www.w3.org/2000/svg" width="16" height="16" fill="currentColor" viewBox="0 0 16 16">
  <path d="M8 10a.5.5 0 0 1 .4.2L9.75 12h2.75a.5.5 0 0 1 0 1h-3a.5.5 0 0 1-.4-.2L8 11.333 6.9 12.8a.5.5 0 0 1-.4.2h-3a.5.5 0 0 1 0-1h2.751l1.35-1.8.037-.045A.5.5 0 0 1 8 10Zm0-4a4.002 4.002 0 0 1 3.958 4.572.5.5 0 0 1-.99-.143A3.002 3.002 0 0 0 8 7a3.002 3.002 0 0 0-2.967 3.43.5.5 0 0 1-.99.14A4.002 4.002 0 0 1 8 6ZM2.5 9.5a.5.5 0 0 1 0 1h-1a.5.5 0 0 1 0-1h1Zm12 0a.5.5 0 0 1 0 1h-1a.5.5 0 0 1 0-1h1ZM3.146 5.146a.5.5 0 0 1 .708 0l.5.5a.5.5 0 1 1-.708.708l-.5-.5a.5.5 0 0 1 0-.708Zm9 0a.5.5 0 1 1 .707.708l-.5.5a.5.5 0 1 1-.707-.708l.5-.5ZM8 3a.5.5 0 0 1 .5.5v1a.5.5 0 0 1-1 0v-1A.5.5 0 0 1 8 3Z"/>
</svg>
