<svg xmlns="http://www.w3.org/2000/svg" width="16" height="16" fill="currentColor" viewBox="0 0 16 16">
  <path fill-rule="evenodd" d="M7.748 13h.001ZM8 13h2v1H8v-1Zm2.252 0h-.001Zm-2.931-.882A.778.778 0 0 1 7.75 12h2.5c.127 0 .284.023.43.118a.68.68 0 0 1 .275.365c.037.111.043.22.045.289v1.478a.74.74 0 0 1-.134.44.706.706 0 0 1-.358.257 1.122 1.122 0 0 1-.29.05c-.068.003-.14.003-.198.003H7.98c-.058 0-.13 0-.198-.003a1.122 1.122 0 0 1-.29-.05.706.706 0 0 1-.358-.257.744.744 0 0 1-.134-.44v-1.478a1.01 1.01 0 0 1 .045-.29.68.68 0 0 1 .276-.364ZM3 8c-.482 0-1 .484-1 1.25s.518 1.25 1 1.25h1V8H3ZM1 9.25C1 8.082 1.827 7 3 7h2v4.5H3c-1.173 0-2-1.082-2-2.25ZM11 7h2c1.173 0 2 1.082 2 2.25s-.827 2.25-2 2.25h-2V7Zm1 1v2.5h1c.482 0 1-.484 1-1.25S13.482 8 13 8h-1Z" clip-rule="evenodd"/>
  <path fill-rule="evenodd" d="M8 2C5.852 2 4 4.012 4 6.643V7.5H3v-.857C3 3.589 5.179 1 8 1s5 2.59 5 5.643V7.5h-1v-.857C12 4.013 10.148 2 8 2ZM6.5 14C5.02 14 4 12.548 4 11h1c0 1.215.768 2 1.5 2h1v1h-1Z" clip-rule="evenodd"/>
</svg>
