<svg xmlns="http://www.w3.org/2000/svg" width="16" height="16" fill="currentColor" viewBox="0 0 16 16">
  <path d="M8 12a1.5 1.5 0 1 1 0 3 1.5 1.5 0 0 1 0-3Zm0 1a.5.5 0 1 0 0 1 .5.5 0 0 0 0-1ZM3 9.5a1.5 1.5 0 1 1 0 3 1.5 1.5 0 0 1 0-3Zm10 0a1.5 1.5 0 1 1 0 3 1.5 1.5 0 0 1 0-3ZM9.502 4.495c.336 0 .644.168.831.436l.035.054 1.493 2.494.001.002.034.061c.156.308.144.676-.034.975l-1.489 2.495a1.01 1.01 0 0 1-.87.493H6.496c-.358 0-.685-.191-.866-.49l-.002-.003-1.49-2.494v-.001a1.016 1.016 0 0 1 0-1.036l1.487-2.492.036-.056c.19-.275.5-.438.833-.438h3.009ZM3 10.5a.5.5 0 1 0 0 1 .5.5 0 0 0 0-1Zm10 0a.5.5 0 1 0 0 1 .5.5 0 0 0 0-1ZM6.491 5.507 5.005 7.998V8l1.487 2.491a.014.014 0 0 0 .004.004h3.009L10.996 8v-.003L9.504 5.51 9.5 5.505H6.492v.002ZM3 3.5a1.5 1.5 0 1 1 0 3 1.5 1.5 0 0 1 0-3Zm10 0a1.5 1.5 0 1 1 0 3 1.5 1.5 0 0 1 0-3Zm-10 1a.5.5 0 1 0 0 1 .5.5 0 0 0 0-1Zm10 0a.5.5 0 1 0 0 1 .5.5 0 0 0 0-1ZM8 1a1.5 1.5 0 1 1 0 3 1.5 1.5 0 0 1 0-3Zm0 1a.5.5 0 1 0 0 1 .5.5 0 0 0 0-1Z"/>
</svg>
