<svg xmlns="http://www.w3.org/2000/svg" width="16" height="16" fill="currentColor" viewBox="0 0 16 16">
  <path fill-rule="evenodd" d="M5.15 12.997a.897.897 0 0 1-.45-.125l-1.425-.86a.908.908 0 0 1-.315-1.21l.46-.834a5 5 0 0 1-.665-1.21h-.88A.883.883 0 0 1 1 7.863V6.14c0-.495.395-.895.875-.895h.88c.165-.44.39-.845.665-1.21L2.96 3.2a.91.91 0 0 1 .315-1.204l1.43-.87a.853.853 0 0 1 .67-.095c.23.06.42.215.54.425l.445.81c.425-.06.855-.06 1.28 0l.445-.81a.88.88 0 0 1 .54-.43.871.871 0 0 1 .67.095l1.425.86c.405.245.55.785.315 1.21l-.46.834c.275.365.5.775.665 1.21h.88c.835 0 .875.635.875.76a.501.501 0 0 1-.94.24h-.91c-.37 0-.7-.235-.82-.585-.14-.38-.335-.74-.585-1.065a.922.922 0 0 1-.075-.99l.445-.81-1.22-.74-.425.77a.863.863 0 0 1-.905.445 3.55 3.55 0 0 0-1.15 0 .87.87 0 0 1-.9-.444l-.425-.77-1.22.74.445.81c.175.314.145.7-.07.984-.25.32-.45.68-.59 1.075a.877.877 0 0 1-.815.58h-.85v1.52h.85c.37 0 .7.234.82.584.14.38.335.74.585 1.065a.921.921 0 0 1 .075.99l-.445.81 1.22.739.425-.77a.5.5 0 0 1 .875.485l-.485.885a.88.88 0 0 1-.76.46l.005-.005Zm2.948-1.241 3.752-3.75 1.792.35.35 1.791-3.753 3.751-2.14-2.142Zm3.089-4.5a.894.894 0 0 1 .83-.235l1.887.368a.924.924 0 0 1 .705.705l.369 1.887a.894.894 0 0 1-.236.83l-3.97 3.969c-.317.316-.797.262-1.074-.008l-.004-.005L7.23 12.3a.763.763 0 0 1-.017-1.072l.004-.005 3.971-3.967Zm1.063 1.742a.75.75 0 1 0 0 1.5.75.75 0 0 0 0-1.5Zm-5.69.58c.145.025.295.035.44.035l.005.005c.69 0 1.345-.27 1.845-.77.605-.6.87-1.435.73-2.284a2.625 2.625 0 0 0-2.14-2.14 2.599 2.599 0 0 0-2.29.73c-.605.6-.87 1.435-.73 2.284a2.625 2.625 0 0 0 2.14 2.14Zm-.705-3.72a1.604 1.604 0 0 1 1.42-.45 1.616 1.616 0 1 1-1.42.45Z" clip-rule="evenodd"/>
</svg>
