<svg xmlns="http://www.w3.org/2000/svg" width="16" height="16" fill="currentColor" viewBox="0 0 16 16">
  <path fill-rule="evenodd" d="M9.323 2.025a.237.237 0 0 1 .226-.053.515.515 0 0 0 .019.004l3.506.685a.291.291 0 0 1 .2.2l.685 3.507a.62.62 0 0 0 .005.019.237.237 0 0 1-.054.225L6.554 13.97a.062.062 0 0 1-.007-.006L1.97 9.38a.038.038 0 0 1-.004-.004l7.357-7.352Zm-.704-.704a1.23 1.23 0 0 1 1.148-.32l3.513.686a1.286 1.286 0 0 1 .97.97l.685 3.511a1.23 1.23 0 0 1-.321 1.148l-7.377 7.377c-.398.399-1.018.34-1.387-.02l-.004-.004-4.58-4.584c-.37-.37-.416-.989-.028-1.387l.005-.005 7.376-7.372Zm1.34 3.66a.995.995 0 1 1 1.99 0 .995.995 0 0 1-1.99 0Zm.995-1.99a1.99 1.99 0 1 0 0 3.981 1.99 1.99 0 0 0 0-3.981Z" clip-rule="evenodd"/>
</svg>
