<svg xmlns="http://www.w3.org/2000/svg" width="16" height="16" fill="currentColor" viewBox="0 0 16 16">
  <g clip-path="url(#a)">
    <path fill-rule="evenodd" d="M9.588 1.977a.238.238 0 0 0-.226.053L1.97 9.416l.003.004 4.598 4.603a.055.055 0 0 0 .008.005l7.39-7.39a.238.238 0 0 0 .053-.226.618.618 0 0 1-.004-.02L13.33 2.87a.292.292 0 0 0-.201-.201L9.607 1.98a.482.482 0 0 1-.019-.004ZM9.808 1a1.236 1.236 0 0 0-1.153.322L1.244 8.729l-.005.005c-.39.4-.344 1.02.028 1.393l4.601 4.606.005.004c.37.362.992.42 1.393.02l7.41-7.411c.306-.305.417-.742.323-1.154l-.689-3.528a1.292 1.292 0 0 0-.974-.974L9.808 1Z" clip-rule="evenodd"/>
    <path fill-rule="evenodd" d="M11 4a1 1 0 1 0 0 2 1 1 0 0 0 0-2ZM9 5a2 2 0 1 1 4 0 2 2 0 0 1-4 0Z" clip-rule="evenodd"/>
  </g>
  <defs>
    <clipPath id="a">
      <path d="M0 0h16v16H0z"/>
    </clipPath>
  </defs>
</svg>
