<svg xmlns="http://www.w3.org/2000/svg" width="16" height="16" fill="currentColor" viewBox="0 0 16 16">
  <path fill-rule="evenodd" d="M5.5 2h3v2h-3V2Zm-1 0a1 1 0 0 1 1-1h3a1 1 0 0 1 1 1v.5H11A1.5 1.5 0 0 1 12.5 4v.5a.5.5 0 0 1-1 0V4a.5.5 0 0 0-.5-.5H9.5V4a1 1 0 0 1-1 1h-3a1 1 0 0 1-1-1v-.5H3a.5.5 0 0 0-.5.5v9.5a.5.5 0 0 0 .5.5h1.5a.5.5 0 0 1 0 1H3a1.5 1.5 0 0 1-1.5-1.5V4A1.5 1.5 0 0 1 3 2.5h1.5V2Zm6.565 4.264a.5.5 0 0 1 .673-.207l1.75.916a.5.5 0 0 1 .212.672l-.316.612c.159.208.293.43.402.664l.738.035a.5.5 0 0 1 .476.5v1.916a.5.5 0 0 1-.484.5l-.647.021a3.587 3.587 0 0 1-.158.338l-.002.003c-.06.111-.125.22-.197.326l.395.68a.5.5 0 0 1-.187.687l-1.794 1.009a.5.5 0 0 1-.693-.214l-.291-.586c-.23.03-.465.037-.7.02l-.307.576a.5.5 0 0 1-.673.207l-1.766-.924a.5.5 0 0 1-.208-.68l.324-.6a3.673 3.673 0 0 1-.386-.633l-.65.02a.5.5 0 0 1-.515-.484L6 9.64a.5.5 0 0 1 .483-.515l.646-.02a3.645 3.645 0 0 1 .353-.66l-.342-.557a.5.5 0 0 1 .148-.678l1.683-1.125a.5.5 0 0 1 .712.167l.351.613c.237-.033.48-.04.722-.024l.308-.576Zm.649.909-.236.44a.5.5 0 0 1-.529.257 2.536 2.536 0 0 0-1.05.036.5.5 0 0 1-.554-.236l-.262-.457-.838.56.267.436a.5.5 0 0 1-.043.583 2.703 2.703 0 0 0-.502.944.5.5 0 0 1-.462.356l-.49.016.03 1 .491-.017a.5.5 0 0 1 .486.328c.124.338.31.649.557.912a.5.5 0 0 1 .075.58l-.245.453.878.46.235-.441a.5.5 0 0 1 .529-.257c.352.063.711.048 1.05-.036a.5.5 0 0 1 .569.263l.225.453.893-.502-.306-.527a.5.5 0 0 1 .049-.572 2.699 2.699 0 0 0 .502-.945.5.5 0 0 1 .462-.355l.505-.017v-.956l-.576-.027a.5.5 0 0 1-.446-.327 2.678 2.678 0 0 0-.557-.913.5.5 0 0 1-.079-.571l.241-.466-.87-.455ZM11.25 10.5a.75.75 0 1 1-1.5 0 .75.75 0 0 1 1.5 0Zm1 0a1.75 1.75 0 1 1-3.5 0 1.75 1.75 0 0 1 3.5 0Z" clip-rule="evenodd"/>
</svg>
