<svg xmlns="http://www.w3.org/2000/svg" width="16" height="16" fill="currentColor" viewBox="0 0 16 16">
  <path fill-rule="evenodd" d="M9.5 4.5a1.5 1.5 0 1 1 3 0 1.5 1.5 0 0 1-3 0ZM11 2a2.5 2.5 0 1 0 0 5 2.5 2.5 0 0 0 0-5ZM3.5 6.5a1.5 1.5 0 1 1 3 0 1.5 1.5 0 0 1-3 0ZM5 4a2.5 2.5 0 1 0 0 5 2.5 2.5 0 0 0 0-5Zm-3 7.847L2.01 13h5.98L8 11.847c.002-.445-.38-.847-.913-.847H2.913c-.533 0-.915.402-.913.847Zm6.987 1.54L9 11.855v-.001C9.006 10.806 8.125 10 7.087 10H2.913c-1.038 0-1.92.806-1.913 1.853v.001l.014 1.65a.5.5 0 0 0 .5.496H8.5a.5.5 0 0 0 .487-.612Zm-.674-4.18a.952.952 0 0 1 .6-.207h4.174c.533 0 .915.402.913.846v.001L13.99 11H10.5a.5.5 0 1 0 0 1h4a.5.5 0 0 0 .487-.612L15 9.854v-.001C15.006 8.806 14.126 8 13.087 8H8.913c-.464 0-.892.159-1.226.427a.5.5 0 1 0 .626.78Z" clip-rule="evenodd"/>
</svg>
