<svg xmlns="http://www.w3.org/2000/svg" width="16" height="16" fill="currentColor" viewBox="0 0 16 16">
  <g clip-path="url(#a)">
    <path fill-rule="evenodd" d="M2.825.967C1.77.967.967 1.862.967 2.904v10.155c0 1.047.791 1.974 1.858 1.974h10.35c1.066 0 1.858-.921 1.858-1.974V2.904c0-1.042-.803-1.937-1.858-1.937H2.825ZM14.033 3.98V2.904c0-.545-.41-.937-.858-.937H2.825c-.449 0-.858.392-.858.937v1.077h12.066Zm-12.066 1h12.066v8.078c0 .58-.42.974-.858.974H2.825c-.437 0-.858-.398-.858-.974V4.98Zm1.632-2.51h-.247c-.21 0-.378.154-.378.345v.308c0 .192.168.346.378.346h.247c.21 0 .378-.154.378-.346v-.308c0-.191-.168-.345-.378-.345Zm1.279.03h.247c.21 0 .378.154.378.345v.308c0 .192-.168.346-.378.346h-.247c-.21 0-.378-.154-.378-.346v-.308c0-.191.168-.345.378-.345Zm1.747 0h-.247c-.21 0-.378.154-.378.345v.308c0 .192.168.346.378.346h.247c.21 0 .378-.154.378-.346v-.308c0-.191-.168-.345-.378-.345ZM4 7.002V7h2.5v5H4V7.001ZM4.001 6C3.448 6 3 6.449 3 7.002v4.997C3 12.55 3.448 13 4.001 13H6.5c.553 0 1.001-.449 1.001-1.002V7.002A1.003 1.003 0 0 0 6.499 6H4Zm5.502 4.514v1.505l.002.002h.001l.001.001h2.512l.002-.001v-.002l.001-.001v-1.504l-.001-.002H9.504v.002Zm-1 .001c0-.554.45-1.004 1.004-1.004h2.511c.554 0 1.004.45 1.004 1.004v1.503c0 .554-.45 1.004-1.004 1.004h-2.51c-.555 0-1.005-.45-1.005-1.004v-1.503Zm.5-4.522a.5.5 0 1 0 0 1h3.528a.5.5 0 1 0 0-1H9.003ZM9 7.5a.5.5 0 0 0 0 1h3.528a.5.5 0 0 0 0-1H9Z" clip-rule="evenodd"/>
  </g>
  <defs>
    <clipPath id="a">
      <path d="M0 0h16v16H0z"/>
    </clipPath>
  </defs>
</svg>
