<svg xmlns="http://www.w3.org/2000/svg" width="16" height="16" fill="currentColor" viewBox="0 0 16 16">
  <g clip-path="url(#a)">
    <path fill-rule="evenodd" d="M.967 3.981h14.066v9.078c0 1.053-.792 1.974-1.858 1.974H2.825c-1.067 0-1.858-.927-1.858-1.974V3.98Zm1 1v8.078c0 .576.421.974.858.974h10.35c.438 0 .858-.394.858-.974V4.98H1.967Z" clip-rule="evenodd"/>
    <path fill-rule="evenodd" d="M.967 2.904c0-1.042.803-1.937 1.858-1.937h10.35c1.055 0 1.858.895 1.858 1.937v2.077H.967V2.904Zm1.858-.937c-.449 0-.858.392-.858.937v1.077h12.066V2.904c0-.545-.41-.937-.858-.937H2.825Z" clip-rule="evenodd"/>
    <path d="M3.6 2.47h-.248c-.21 0-.378.154-.378.345v.308c0 .192.168.346.378.346h.247c.21 0 .378-.154.378-.346v-.308c0-.191-.168-.345-.378-.345Zm1.525.03h-.247c-.21 0-.378.154-.378.345v.308c0 .192.168.346.378.346h.247c.21 0 .378-.154.378-.346v-.308c0-.191-.168-.345-.378-.345Zm1.5 0h-.247c-.21 0-.378.154-.378.345v.308c0 .192.168.346.378.346h.247c.21 0 .378-.154.378-.346v-.308c0-.191-.168-.345-.378-.345Z"/>
    <path fill-rule="evenodd" d="M4 7v5h2.5V7H4Zm-1 .002C3 6.449 3.448 6 4.001 6H6.5c.552 0 1 .449 1 1.002v4.997C7.5 12.55 7.052 13 6.499 13H4a1.001 1.001 0 0 1-1-1.002V7.002Zm6.503 3.512v1.505l.001.002h.002l.001.001h2.512l.002-.001v-.002l.001-.001v-1.504l-.001-.002H9.504v.002Zm-1 .001c0-.554.45-1.004 1.004-1.004h2.511c.554 0 1.004.45 1.004 1.004v1.503c0 .554-.45 1.004-1.004 1.004h-2.51c-.555 0-1.005-.45-1.005-1.004v-1.503Zm0-4.022a.5.5 0 0 1 .5-.5h3.528a.5.5 0 1 1 0 1H9.003a.5.5 0 0 1-.5-.5ZM8.5 8a.5.5 0 0 1 .5-.5h3.528a.5.5 0 0 1 0 1H9a.5.5 0 0 1-.5-.5Z" clip-rule="evenodd"/>
  </g>
  <defs>
    <clipPath id="a">
      <path d="M0 0h16v16H0z"/>
    </clipPath>
  </defs>
</svg>
