<svg xmlns="http://www.w3.org/2000/svg" width="16" height="16" fill="currentColor" viewBox="0 0 16 16">
  <path fill-rule="evenodd" d="M12.3 8.476a1.588 1.588 0 0 1 2.236 0 1.577 1.577 0 0 1 0 2.235l-3.822 3.82a.483.483 0 0 1-.23.13l-1.213.304c-.084.02-.164.03-.249.03V15a1 1 0 0 1-.709-.294.989.989 0 0 1-.264-.958h-.005l.304-1.212c.02-.09.07-.17.13-.23l3.822-3.83Zm1.532.709a.579.579 0 0 0-.823 0L9.282 12.91l-.27 1.078v.005l1.098-.265 3.723-3.72a.587.587 0 0 0 0-.823ZM11.332 1c.927 0 1.64.776 1.64 1.688v4.83a.499.499 0 0 1-.998 0V4.492H1.998v6.737c0 .452.326.745.641.745h4.38a.499.499 0 0 1 0 .998h-4.38c-.947 0-1.639-.825-1.639-1.743V2.688C1 1.776 1.713 1 2.64 1h8.692Zm-8.693.998c-.335 0-.641.289-.641.69v.806h9.976v-.806c0-.401-.306-.69-.642-.69H2.64Z" clip-rule="evenodd"/>
  <path fill-rule="evenodd" d="M5.563 5.024c.5 0 .928.397.928.916v4.154a.922.922 0 0 1-.928.916H3.428a.922.922 0 0 1-.928-.916V5.94a.92.92 0 0 1 .928-.916h2.135Zm-2.065 4.988h1.995V6H3.498v4.012Z" clip-rule="evenodd"/>
  <path d="M10.51 8.017a.499.499 0 0 1 0 .997H8.516v.998h.504a.499.499 0 0 1 0 .998h-.585a.908.908 0 0 1-.916-.9V8.916c0-.515.429-.9.916-.9h2.077Zm.464-1.51a.499.499 0 0 1 0 .997h-2.99a.499.499 0 0 1 0-.997h2.99Zm.002-1.497a.499.499 0 0 1 0 .998h-2.99a.499.499 0 0 1 0-.998h2.99Z"/>
</svg>
