<svg xmlns="http://www.w3.org/2000/svg" width="16" height="16" fill="currentColor" viewBox="0 0 16 16">
  <path d="M8.327.976a7 7 0 0 1-.36 13.99l-.349-.008a7.014 7.014 0 0 1-1.017-.125.5.5 0 0 1 .194-.98 6 6 0 1 0 1.48-11.878l-.308-.008-.299.007c-.297.014-.59.05-.873.107A.5.5 0 0 1 6.6 1.1 6.992 6.992 0 0 1 7.966.967l.36.009ZM2.283 11.162a.5.5 0 0 1 .694.138 6.04 6.04 0 0 0 1.656 1.656.5.5 0 0 1-.556.831 7.036 7.036 0 0 1-1.931-1.93.501.501 0 0 1 .137-.695Zm5.684-7.695a.5.5 0 0 1 .5.5v3.75l1.8 1.35a.5.5 0 0 1-.6.8l-2-1.5a.5.5 0 0 1-.2-.4v-4a.5.5 0 0 1 .5-.5Zm-6.28 2.74a.5.5 0 0 1 .394.588 6.037 6.037 0 0 0 0 2.343.5.5 0 0 1-.981.194 7.034 7.034 0 0 1 0-2.731.5.5 0 0 1 .587-.394Zm2.39-4.061a.5.5 0 0 1 .556.83 6.037 6.037 0 0 0-1.656 1.657.5.5 0 0 1-.831-.556 7.04 7.04 0 0 1 1.931-1.931Z"/>
</svg>
