<svg xmlns="http://www.w3.org/2000/svg" width="16" height="16" fill="none" viewBox="0 0 16 16">
  <path fill="#3D3C3C" fill-rule="evenodd" d="M9.818 6.198h3.392a.5.5 0 0 1 .082.007A1.798 1.798 0 0 1 14.989 8.2v.001l-.573 5.196v.001A1.791 1.791 0 0 1 12.631 15H5.865c-.33 0-.632-.118-.868-.313a1.37 1.37 0 0 1-.873.313H2.376C1.616 15 1 14.383 1 13.623V8.377C1 7.617 1.616 7 2.376 7h1.748c.301 0 .58.097.806.26l1.213-3.038c.058-.142.088-.3.088-.457V2.368a1.368 1.368 0 0 1 1.503-1.36c.089.011.2.037.327.09.257.11.546.322.81.709.486.707.896 2 .947 4.391ZM4.5 8.434v5.19a.376.376 0 0 1-.376.376H2.376A.376.376 0 0 1 2 13.623V8.377C2 8.168 2.169 8 2.376 8h1.748c.207 0 .376.168.376.377v.057Zm1 5.198V8.53l1.57-3.933a2.22 2.22 0 0 0 .16-.832V2.368c0-.203.167-.367.366-.367h.014c.008 0 .03.005.061.018.066.028.21.11.376.353.346.504.776 1.68.776 4.326a.5.5 0 0 0 .5.5h3.814a.501.501 0 0 0 .069.005.8.8 0 0 1 .79.889l-.575 5.197v.003a.791.791 0 0 1-.79.708H5.866a.368.368 0 0 1-.365-.368ZM3.75 12a.5.5 0 0 0-1 0v1a.5.5 0 0 0 1 0v-1Z" clip-rule="evenodd"/>
</svg>
