<svg xmlns="http://www.w3.org/2000/svg" width="16" height="16" fill="none" viewBox="0 0 16 16">
  <path fill="#3D3C3C" fill-rule="evenodd" d="M2.376 2A.376.376 0 0 0 2 2.377v5.246c0 .209.169.377.376.377h1.748a.376.376 0 0 0 .376-.377V2.377A.376.376 0 0 0 4.124 2H2.376ZM1 2.377C1 1.617 1.616 1 2.376 1h1.748c.76 0 1.376.617 1.376 1.377v5.246C5.5 8.383 4.884 9 4.124 9H2.376C1.616 9 1 8.383 1 7.623V2.377Z" clip-rule="evenodd"/>
  <path fill="#3D3C3C" fill-rule="evenodd" d="M5.865 2a.368.368 0 0 0-.365.368v5.1L7.069 11.4v.002c.109.266.162.552.162.832v1.397A.369.369 0 0 0 7.61 14a.27.27 0 0 0 .061-.02c.066-.027.21-.11.376-.352.346-.505.776-1.68.776-4.328a.5.5 0 0 1 .5-.5h3.883a.8.8 0 0 0 .79-.89l-.575-5.2v-.002a.791.791 0 0 0-.79-.708H5.866Zm7.345 7.8h.005-.005Zm.005 0a1.798 1.798 0 0 0 1.774-1.998l-.573-5.198v-.002A1.791 1.791 0 0 0 12.631 1H5.865C5.111 1 4.5 1.615 4.5 2.368v5.195a.5.5 0 0 0 .036.186l1.606 4.025.001.003c.058.142.088.3.088.457v1.397a1.369 1.369 0 0 0 1.503 1.36c.089-.01.2-.036.327-.09.257-.108.546-.321.81-.708.486-.707.896-2.001.947-4.393h3.388M3.25 2.5a.5.5 0 0 1 .5.5v1a.5.5 0 0 1-1 0V3a.5.5 0 0 1 .5-.5Z" clip-rule="evenodd"/>
</svg>
