<svg xmlns="http://www.w3.org/2000/svg" width="16" height="16" fill="currentColor" viewBox="0 0 16 16">
  <path fill-rule="evenodd" d="M9.55 6.598h4.092l-.005.005c.814 0 1.442.725 1.355 1.555l-.604 5.598A1.37 1.37 0 0 1 13.033 15H5.911A.925.925 0 0 1 5 14.065V8.468l1.69-4.334c.088-.22.132-.46.132-.694V1.935c0-.515.41-.934.911-.934 0 0 1.817-.175 1.817 5.597ZM1.876 7.5h1.748c.484 0 .876.42.876.94v5.62c0 .52-.392.94-.876.94H1.876C1.392 15 1 14.58 1 14.06V8.44c0-.52.392-.94.876-.94Z" clip-rule="evenodd"/>
</svg>
