<svg xmlns="http://www.w3.org/2000/svg" width="16" height="16" fill="currentColor" viewBox="0 0 16 16">
  <path d="M5.5 5.5a.5.5 0 0 0-1 0v1a.5.5 0 0 0 1 0v-1Zm-.5 2a.5.5 0 0 1 .5.5v1a.5.5 0 0 1-1 0V8a.5.5 0 0 1 .5-.5Zm.5 3a.5.5 0 0 0-1 0v1a.5.5 0 0 0 1 0v-1Z"/>
  <path fill-rule="evenodd" d="M1 4a.5.5 0 0 1 .5-.5h13a.5.5 0 0 1 .5.5v2.5a.5.5 0 0 1-.5.5 1 1 0 0 0 0 2 .5.5 0 0 1 .5.5l-.006 3.334a.522.522 0 0 1-.004.066.5.5 0 0 1-.49.6h-13A.5.5 0 0 1 1 13v-3a.5.5 0 0 1 .5-.5c.55 0 1-.518 1-1s-.45-1-1-1A.5.5 0 0 1 1 7V4Zm13 .5v1.563a2.001 2.001 0 0 0 0 3.874l-.005 2.563H2v-2.066c.89-.24 1.5-1.1 1.5-1.934 0-.834-.61-1.693-1.5-1.934V4.5h12Z" clip-rule="evenodd"/>
</svg>
