<svg xmlns="http://www.w3.org/2000/svg" width="16" height="16" fill="currentColor" viewBox="0 0 16 16">
  <path fill-rule="evenodd" d="M1 4a.5.5 0 0 1 .5-.5h13a.5.5 0 0 1 0 1h-13A.5.5 0 0 1 1 4Zm0 9a.5.5 0 0 1 .5-.5h13a.5.5 0 0 1 0 1h-13A.5.5 0 0 1 1 13Z" clip-rule="evenodd"/>
  <path fill-rule="evenodd" d="M1.5 3.5A.5.5 0 0 1 2 4v3a.5.5 0 0 1-1 0V4a.5.5 0 0 1 .5-.5Zm0 6a.5.5 0 0 1 .5.5v3a.5.5 0 0 1-1 0v-3a.5.5 0 0 1 .5-.5Zm13-6a.5.5 0 0 1 .5.5v2.5a.5.5 0 0 1-1 0V4a.5.5 0 0 1 .5-.5Zm0 5.5a.5.5 0 0 1 .5.5l-.006 3.334a.5.5 0 0 1-1-.002L14 9.5a.5.5 0 0 1 .5-.5Z" clip-rule="evenodd"/>
  <path fill-rule="evenodd" d="M1 7a.5.5 0 0 1 .5-.5c1.153 0 2 1.017 2 2 0 .983-.847 2-2 2a.5.5 0 0 1 0-1c.55 0 1-.518 1-1s-.45-1-1-1A.5.5 0 0 1 1 7Zm13.5 0a1 1 0 0 0 0 2 .5.5 0 0 1 0 1 2 2 0 0 1 0-4 .5.5 0 0 1 0 1ZM5 5a.5.5 0 0 1 .5.5v1a.5.5 0 0 1-1 0v-1A.5.5 0 0 1 5 5Zm0 2.5a.5.5 0 0 1 .5.5v1a.5.5 0 0 1-1 0V8a.5.5 0 0 1 .5-.5ZM5 10a.5.5 0 0 1 .5.5v1a.5.5 0 0 1-1 0v-1A.5.5 0 0 1 5 10Z" clip-rule="evenodd"/>
</svg>
