<svg xmlns="http://www.w3.org/2000/svg" width="16" height="16" fill="currentColor" viewBox="0 0 16 16">
  <path d="M11.483 7.967a3.5 3.5 0 1 1 .001 7 3.5 3.5 0 0 1 0-7Zm0 1a2.5 2.5 0 1 0 0 5 2.5 2.5 0 0 0 0-5Zm.707 1.086a.5.5 0 0 1 .708.707l-.708.707.708.707a.5.5 0 0 1-.708.707l-.707-.707-.707.707a.5.5 0 0 1-.707-.707l.707-.707-.707-.707a.5.5 0 0 1 .707-.707l.707.707.707-.707ZM6.993.967a6.004 6.004 0 0 1 5.988 5.486.5.5 0 1 1-.996.084 5.005 5.005 0 0 0-4.992-4.57c-2.768 0-5.01 2.237-5.01 4.994 0 2.603 2.03 4.775 4.587 5.008a.5.5 0 0 1-.09.996C3.415 12.686.983 10.09.983 6.96c0-3.312 2.692-5.994 6.01-5.994Zm-.01 2.5a.5.5 0 0 1 .5.5v2.5l.9 1.2a.5.5 0 1 1-.8.6l-1-1.333a.502.502 0 0 1-.1-.301V3.967a.5.5 0 0 1 .5-.5Z"/>
</svg>
