<svg xmlns="http://www.w3.org/2000/svg" width="16" height="16" fill="currentColor" viewBox="0 0 16 16">
  <path fill-rule="evenodd" d="M3.4 1a.5.5 0 0 0-.47.331l-.9 2.507a.5.5 0 0 0 .099.503l.621.69V8H2a.5.5 0 0 0 0 1h.5v4.4c0 .393.137.801.422 1.114a1.44 1.44 0 0 0 2.156 0 1.65 1.65 0 0 0 .422-1.113V9H6a.5.5 0 0 0 0-1h-.75V5.031l.622-.69a.5.5 0 0 0 .099-.503l-.9-2.507A.5.5 0 0 0 4.6 1H3.4Zm.1 12.4V9h1v4.4a.65.65 0 0 1-.162.442.441.441 0 0 1-.676 0A.662.662 0 0 1 3.5 13.4ZM3.75 8h.5V4.84a.5.5 0 0 1 .129-.335l.55-.61L4.248 2h-.497l-.68 1.894.55.61a.5.5 0 0 1 .128.335V8Zm4.425-6.841-.003.002.005-.004-.002.002Zm.891-.066a.869.869 0 0 0-.891.066C7.167 1.863 6.5 3.013 6.5 4.33c0 1.465.83 2.728 2.042 3.39v5.368C8.542 14.16 9.43 15 10.5 15c1.07 0 1.958-.84 1.958-1.912V7.72c1.213-.663 2.042-1.93 2.042-3.39a.502.502 0 0 0-.011-.105 3.873 3.873 0 0 0-1.674-3.066.869.869 0 0 0-.89-.066.854.854 0 0 0-.471.762V4.33a.058.058 0 0 1-.02.041.09.09 0 0 1-.064.026H9.62a.09.09 0 0 1-.063-.026.057.057 0 0 1-.02-.04V1.854a.854.854 0 0 0-.47-.762ZM13.49 4.33c0 .03.003.061.009.09-.036 1.116-.733 2.084-1.743 2.532a.5.5 0 0 0-.298.457v5.68c0 .489-.411.911-.958.911-.547 0-.958-.422-.958-.912V7.41a.5.5 0 0 0-.298-.457C8.207 6.492 7.5 5.488 7.5 4.33c0-.874.399-1.656 1.037-2.19v2.19c0 .601.5 1.067 1.083 1.067h1.75c.583 0 1.084-.466 1.084-1.067V2.14a2.855 2.855 0 0 1 1.036 2.19Z" clip-rule="evenodd"/>
</svg>
