<svg xmlns="http://www.w3.org/2000/svg" width="16" height="16" fill="currentColor" viewBox="0 0 16 16">
  <path fill-rule="evenodd" d="M4.768 1.061a4.503 4.503 0 0 1 3.93 1.258.5.5 0 0 1 .039.044 4.489 4.489 0 0 1 1.097 4.408l4.528 4.527c.85.846.85 2.226 0 3.07a2.174 2.174 0 0 1-3.066-.001l-4.53-4.53a4.5 4.5 0 0 1-5.705-5.062.91.91 0 0 1 .626-.726c.32-.1.676-.021.923.225l2.06 2.064c.072.07.181.066.245.002l1.42-1.419a.175.175 0 0 0 .001-.245L4.27 2.609a.916.916 0 0 1-.226-.922.918.918 0 0 1 .716-.625l.008-.001Zm.32.96 1.952 1.95a1.17 1.17 0 0 1 .003 1.648l-.003.003-1.421 1.42a1.17 1.17 0 0 1-1.648.004l-.004-.003L2.02 5.092a3.508 3.508 0 0 0 4.708 3.71.498.498 0 0 1 .525.115L12 13.663a1.18 1.18 0 0 0 1.662-.001 1.17 1.17 0 0 0 0-1.658h-.002L8.915 7.257a.497.497 0 0 1-.115-.525 3.498 3.498 0 0 0-.804-3.705.496.496 0 0 1-.037-.04 3.505 3.505 0 0 0-2.87-.968Z" clip-rule="evenodd"/>
</svg>
