<svg xmlns="http://www.w3.org/2000/svg" width="16" height="16" fill="currentColor" viewBox="0 0 16 16">
  <path d="M8 1.5a1.5 1.5 0 0 1 1.48 1.728l3.02 2.156a1.5 1.5 0 1 1 1.132 2.61L12.54 11.92a1.5 1.5 0 1 1-2.453 1.58H5.913a1.5 1.5 0 1 1-2.267-1.734L2.388 7.994A1.499 1.499 0 1 1 3.5 5.384L6.519 3.23A1.5 1.5 0 0 1 8 1.5Zm-3.5 11a.5.5 0 1 0 0 1 .5.5 0 0 0 0-1Zm7 0a.5.5 0 1 0 0 1 .5.5 0 0 0 0-1Zm-5.856-.469c.116.138.208.296.27.469h4.173a1.47 1.47 0 0 1 .06-.146.499.499 0 0 1-.057-.067L8.442 9.934a1.5 1.5 0 0 1-.904-.007L5.644 12.03Zm3.85-3.427a1.49 1.49 0 0 1-.249.733l1.615 2.308a1.492 1.492 0 0 1 .757-.14l1.045-3.76a1.506 1.506 0 0 1-.228-.191l-2.94 1.05Zm-5.929-1.05a1.505 1.505 0 0 1-.211.178l1.257 3.773c.049.003.097.01.144.018l1.987-2.207a1.49 1.49 0 0 1-.237-.712l-2.94-1.05ZM8 8a.5.5 0 1 0 0 1 .5.5 0 0 0 0-1ZM3.98 6.27a1.507 1.507 0 0 1 .012.375l2.78.993c.178-.253.432-.446.728-.551V4.412a1.495 1.495 0 0 1-.501-.298L3.98 6.271Zm5.021-2.156c-.145.13-.314.232-.501.298v2.675c.296.105.549.299.727.55l2.78-.992a1.534 1.534 0 0 1 .012-.375L9 4.114ZM2.5 6a.5.5 0 1 0 0 1 .5.5 0 0 0 0-1Zm11 0a.5.5 0 1 0 0 1 .5.5 0 0 0 0-1ZM8 2.5a.5.5 0 1 0 0 1 .5.5 0 0 0 0-1Z"/>
</svg>
