<svg xmlns="http://www.w3.org/2000/svg" width="16" height="16" fill="currentColor" viewBox="0 0 16 16">
  <path fill-rule="evenodd" d="M10.257 8.49a.253.253 0 0 0-.253.253v.009l-.014.757a.49.49 0 0 1-.98-.018l.014-.753a1.233 1.233 0 0 1 2.466.005v.266a.49.49 0 1 1-.98 0v-.266a.253.253 0 0 0-.253-.253Z" clip-rule="evenodd"/>
  <path fill-rule="evenodd" d="M11.75 8.49a.265.265 0 0 0-.26.27.49.49 0 1 1-.98 0c0-.685.55-1.25 1.24-1.25s1.24.565 1.24 1.25V11a.49.49 0 1 1-.98 0V8.76a.265.265 0 0 0-.26-.27Z" clip-rule="evenodd"/>
  <path fill-rule="evenodd" d="M3.931 7.567a1.385 1.385 0 0 1 1.652.752l.002.004.864 1.981a.49.49 0 1 1-.898.392l-.863-1.979a.406.406 0 0 0-.478-.21.312.312 0 0 0-.195.145.195.195 0 0 0-.01.17.495.495 0 0 1 .009.023l.513 1.475.006.013a14.802 14.802 0 0 0 .172.38c.111.24.254.536.387.784.621 1.147 1.105 1.682 1.465 2.023l.002.002c.326.311.841.488 1.406.488H9.73c.798 0 1.503-.413 1.834-1.025l.03-.053c.105-.195.194-.36.268-.622.082-.29.148-.719.148-1.422a.49.49 0 1 1 .98 0c0 .762-.071 1.286-.184 1.688a3.676 3.676 0 0 1-.35.82l-.03.056c-.518.958-1.574 1.538-2.696 1.538H7.965c-.744 0-1.528-.23-2.082-.759-.44-.416-.985-1.034-1.653-2.268v-.002a16.63 16.63 0 0 1-.554-1.142l-.04-.09-.01-.024-.004-.008a.507.507 0 0 1-.014-.036l-.517-1.484c-.271-.696.154-1.408.841-1.61l.139.47-.14-.47Z" clip-rule="evenodd"/>
  <path fill-rule="evenodd" d="M8.5 7.99c-.358 0-.51.232-.51.362V9a.49.49 0 0 1-.98 0v-.648c0-.814.745-1.342 1.49-1.342s1.49.528 1.49 1.342v.305a.49.49 0 0 1-.98 0v-.305c0-.13-.152-.362-.51-.362Z" clip-rule="evenodd"/>
  <path fill-rule="evenodd" d="M6.75 4.49a.257.257 0 0 0-.26.254V10.5a.49.49 0 0 1-.98 0V4.744c0-.687.56-1.234 1.24-1.234.68 0 1.24.547 1.24 1.234v3.998a.49.49 0 0 1-.98 0V4.744a.257.257 0 0 0-.26-.254ZM11 8.51c.27 0 .49.22.49.49v1a.49.49 0 1 1-.98 0V9c0-.27.22-.49.49-.49ZM6.75 1a.5.5 0 0 1 .5.5v1a.5.5 0 0 1-1 0v-1a.5.5 0 0 1 .5-.5Zm2.462.937a.5.5 0 0 1 .05.705l-.674.778a.5.5 0 1 1-.755-.656l.674-.777a.5.5 0 0 1 .705-.05Zm-4.989-.001a.5.5 0 0 1 .705.052l.67.778a.5.5 0 0 1-.758.652l-.67-.777a.5.5 0 0 1 .053-.705ZM3.002 4.388a.5.5 0 0 1 .546-.45l1.02.098a.5.5 0 0 1-.095.996l-1.02-.099a.5.5 0 0 1-.45-.545Zm7.429 0a.5.5 0 0 1-.45.545l-1.02.099a.5.5 0 1 1-.096-.996l1.02-.098a.5.5 0 0 1 .546.45Z" clip-rule="evenodd"/>
</svg>
