<svg xmlns="http://www.w3.org/2000/svg" width="16" height="16" fill="currentColor" viewBox="0 0 16 16">
  <path d="M10.245 7.765c-.506 0-.923.355-.923.795v-.285c0-.44-.41-.795-.916-.795s-.917.355-.917.795v-3.98c0-.44-.411-.795-.922-.795-.511 0-.917.355-.917.795v6.155l-.828-1.775c-.194-.415-.705-.645-1.183-.51-.5.14-.756.605-.578 1.025l.8 1.955s.122.375.433.925c.717 1.26 1.29 1.87 1.734 2.27.489.445 1.21.66 1.939.66h1.96c1.068 0 2.045-.525 2.518-1.355.255-.45.56-.915.56-2.465l-1.838-2.34v-.285c0-.44-.411-.795-.917-.795l-.005.005Z"/>
  <path d="M13 8.84c0-.44-.411-.795-.922-.795-.511 0-.917.355-.917.795L13 11.18V8.84Z"/>
  <path fill-rule="evenodd" d="M6.75 1a.5.5 0 0 1 .5.5v1a.5.5 0 0 1-1 0v-1a.5.5 0 0 1 .5-.5Zm2.462.937a.5.5 0 0 1 .05.705l-.674.778a.5.5 0 1 1-.755-.656l.674-.777a.5.5 0 0 1 .705-.05Zm-4.989-.001a.5.5 0 0 1 .705.052l.67.778a.5.5 0 0 1-.758.652l-.67-.777a.5.5 0 0 1 .053-.705ZM3.002 4.388a.5.5 0 0 1 .546-.45l1.02.098a.5.5 0 0 1-.095.996l-1.02-.099a.5.5 0 0 1-.45-.545Zm7.429 0a.5.5 0 0 1-.45.545l-1.02.099a.5.5 0 1 1-.096-.996l1.02-.098a.5.5 0 0 1 .546.45Z" clip-rule="evenodd"/>
</svg>
