<svg xmlns="http://www.w3.org/2000/svg" width="16" height="16" fill="currentColor" viewBox="0 0 16 16">
  <path fill-rule="evenodd" d="M4.5 2a1.5 1.5 0 1 0 0 3 1.5 1.5 0 0 0 0-3ZM2 3.5a2.5 2.5 0 1 1 5 0 2.5 2.5 0 0 1-5 0Zm9.5 7.5a1.5 1.5 0 1 0 0 3 1.5 1.5 0 0 0 0-3ZM9 12.5a2.5 2.5 0 1 1 5 0 2.5 2.5 0 0 1-5 0Z" clip-rule="evenodd"/>
  <path fill-rule="evenodd" d="M6.333 3.5a.5.5 0 0 1 .5-.5h4.334C12.716 3 14 4.212 14 5.75S12.716 8.5 11.167 8.5H5.833C4.802 8.5 4 9.299 4 10.25S4.802 12 5.833 12H9.5a.5.5 0 0 1 0 1H5.833C4.284 13 3 11.787 3 10.25 3 8.712 4.284 7.5 5.833 7.5h5.334C12.198 7.5 13 6.701 13 5.75S12.198 4 11.167 4H6.833a.5.5 0 0 1-.5-.5Z" clip-rule="evenodd"/>
</svg>
