<svg xmlns="http://www.w3.org/2000/svg" width="16" height="16" fill="currentColor" viewBox="0 0 16 16">
  <path fill-rule="evenodd" d="M10.198 12c.704 0 1.306.553 1.302 1.332V14.5a.5.5 0 0 1-.5.5H7a.5.5 0 0 1-.5-.5v-1.122C6.496 12.57 7.196 12 7.88 12h2.318ZM7.88 13c-.191 0-.381.18-.38.374V14h3v-.671c.002-.214-.14-.329-.302-.329H7.88Z" clip-rule="evenodd"/>
  <path d="M14.149 12c.702 0 1.355.525 1.351 1.332V14.5a.5.5 0 0 1-.5.5h-2.387a.5.5 0 1 1 0-1H14.5v-.671c.002-.186-.133-.329-.351-.329H12.5a.5.5 0 0 1 0-1h1.649ZM8.238 5C8.92 5 9.5 5.54 9.5 6.237c0 .67-.536 1.263-1.25 1.263H6v6.18c0 .415-.315.82-.806.82H2.75a.72.72 0 0 1-.603-.308.89.89 0 0 1-.147-.51V9a.5.5 0 0 1 1 0v4.5h2V7.25a.75.75 0 0 1 .75-.75h2.5a.26.26 0 0 0 .25-.263C8.5 6.123 8.398 6 8.238 6h-5.85c-.508 0-.888.39-.888.84V9.5a.5.5 0 0 1-1 0V6.84C.5 5.806 1.36 5 2.387 5h5.85Z"/>
  <path fill-rule="evenodd" d="M9 8.5a1.5 1.5 0 1 1 0 3 1.5 1.5 0 0 1 0-3Zm0 1a.5.5 0 1 0 0 1 .5.5 0 0 0 0-1Zm3.644-1a1.5 1.5 0 1 1 0 3 1.5 1.5 0 0 1 0-3Zm0 1a.5.5 0 1 0 0 1 .5.5 0 0 0 0-1Z" clip-rule="evenodd"/>
  <path d="M13.83 3c.372 0 .67.296.67.667V7.5a.5.5 0 0 1-1 0V4H8a.5.5 0 0 1 0-1h5.83Z"/>
  <path fill-rule="evenodd" d="M4.25 1a1.75 1.75 0 1 1 0 3.5 1.75 1.75 0 0 1 0-3.5Zm0 1a.75.75 0 1 0 0 1.5.75.75 0 0 0 0-1.5Z" clip-rule="evenodd"/>
</svg>
