<svg xmlns="http://www.w3.org/2000/svg" width="16" height="16" fill="currentColor" viewBox="0 0 16 16">
  <path fill-rule="evenodd" d="M4.873 2.832a.5.5 0 0 0-.747-.664l-2 2.25a.5.5 0 0 0 0 .664l2 2.25a.5.5 0 1 0 .747-.664L3.613 5.25H9.5c.409 0 .794.124 1.09.224 1.504.508 2.54 2.317 2.397 4.132-.127 1.557-1.135 2.867-2.463 3.292h-.003a.78.78 0 0 1-.074.013c-.06.008-.138.016-.23.023-.185.015-.41.028-.631.038a38.422 38.422 0 0 1-.777.027h-.052L8.744 13H2.5a.5.5 0 0 0 0 1h6.28l.053-.002a43.223 43.223 0 0 0 .798-.027c.225-.01.465-.023.668-.04.176-.015.394-.036.53-.08 1.752-.562 2.999-2.245 3.155-4.165.17-2.166-1.043-4.474-3.075-5.16-.293-.099-.819-.276-1.41-.276H3.614l1.26-1.418Z" clip-rule="evenodd"/>
</svg>
