<svg xmlns="http://www.w3.org/2000/svg" width="16" height="16" fill="currentColor" viewBox="0 0 16 16">
  <path d="M12 7.196c-2.37-.262-5.63-.262-8 0v6.107c2.37.262 5.63.262 8 0V7.196Zm1 6.149c0 .482-.36.885-.836.946l-.008.002c-2.462.276-5.85.276-8.312 0A.949.949 0 0 1 3 13.345v-6.19c0-.482.36-.885.836-.947h.008c2.462-.277 5.85-.277 8.312 0a.948.948 0 0 1 .844.947v6.19Z"/>
  <path d="M4.5 6v-.74c0-2.034 1.53-3.76 3.498-3.76.462 0 .915.07 1.335.266.424.198.787.512 1.083.957a.5.5 0 1 1-.832.554 1.648 1.648 0 0 0-.674-.605c-.25-.117-.548-.172-.912-.172C6.659 2.5 5.5 3.697 5.5 5.26V6a.5.5 0 0 1-1 0Z"/>
</svg>
