<svg xmlns="http://www.w3.org/2000/svg" width="16" height="16" fill="currentColor" viewBox="0 0 16 16">
  <path fill-rule="evenodd" d="M5.5 5.26c0-1.563 1.159-2.76 2.497-2.76.674 0 1.297.298 1.755.796a2.8 2.8 0 0 1 .59 1 .5.5 0 1 0 .947-.322 3.806 3.806 0 0 0-.801-1.356C9.858 1.935 8.977 1.5 7.998 1.5 6.028 1.5 4.5 3.226 4.5 5.26V6a.5.5 0 0 0 .02.14c-.232.02-.457.043-.676.068h-.008A.956.956 0 0 0 3 7.156v6.19c0 .48.355.894.845.948 2.462.276 5.85.276 8.31 0l.01-.002a.956.956 0 0 0 .835-.946v-6.19a.949.949 0 0 0-.845-.948c-1.947-.218-4.471-.264-6.66-.137A.504.504 0 0 0 5.5 6v-.74ZM4 13.305V7.196c2.37-.261 5.63-.261 8 0v6.108c-2.37.261-5.63.261-8 0Z" clip-rule="evenodd"/>
</svg>
