<svg xmlns="http://www.w3.org/2000/svg" width="17" height="16" fill="currentColor" viewBox="0 0 17 16">
  <path d="M5.99 2a.5.5 0 1 1 0 1h-.75a1.5 1.5 0 0 0-1.5 1.5v7a1.5 1.5 0 0 0 1.5 1.5h7a1.5 1.5 0 0 0 1.5-1.5v-7a1.5 1.5 0 0 0-1.5-1.5h-.75a.5.5 0 0 1 0-1h.75a2.5 2.5 0 0 1 2.5 2.5v7a2.5 2.5 0 0 1-2.5 2.5h-7a2.5 2.5 0 0 1-2.5-2.5v-7A2.5 2.5 0 0 1 5.24 2h.75Zm4.803 9.003a.5.5 0 0 1 0 .995L10.74 12h-4a.5.5 0 0 1 0-1h4l.052.003ZM11.74 9.5a.5.5 0 1 1 0 1h-6a.5.5 0 0 1 0-1h6Zm-3-7.5a.5.5 0 0 1 .5.5v4.293l1.647-1.647.038-.034a.5.5 0 0 1 .703.703l-.034.039-2.5 2.5-.037.033c-.013.01-.028.019-.042.028L9 8.427a.497.497 0 0 1-.06.029c-.007.004-.014.008-.023.01-.015.007-.031.01-.047.014-.014.004-.027.009-.041.011a.498.498 0 0 1-.087.009l-.001-.001V8.5c-.016 0-.032-.003-.048-.005l-.038-.004c-.017-.003-.034-.008-.05-.012-.013-.004-.027-.007-.04-.012l-.041-.019a.496.496 0 0 1-.085-.052l-.015-.01-.007-.006a.501.501 0 0 1-.029-.026l-2.5-2.5a.5.5 0 1 1 .707-.708L8.24 6.792V2.5a.5.5 0 0 1 .5-.5Z"/>
</svg>
