<svg xmlns="http://www.w3.org/2000/svg" width="16" height="16" fill="currentColor" viewBox="0 0 16 16">
  <path fill-rule="evenodd" d="M8 2a5.998 5.998 0 0 0-5.196 9 .5.5 0 1 1-.866.5A6.998 6.998 0 0 1 8 1c1.509 0 2.865.384 4 1.179V1.5a.5.5 0 0 1 1 0v2a.5.5 0 0 1-.5.5h-2a.5.5 0 0 1 0-1h.929C10.477 2.333 9.327 2 8 2ZM3.5 12a.5.5 0 0 0-.5.5v2a.5.5 0 0 0 1 0v-.679C5.135 14.616 6.491 15 8 15a6.998 6.998 0 0 0 6.062-10.5.5.5 0 1 0-.866.5A5.998 5.998 0 0 1 8 14c-1.327 0-2.477-.333-3.429-1H5.5a.5.5 0 0 0 0-1h-2Z" clip-rule="evenodd"/>
</svg>
