<svg xmlns="http://www.w3.org/2000/svg" width="16" height="16" fill="currentColor" viewBox="0 0 16 16">
  <path fill-rule="evenodd" d="M6.94 1.932a1.518 1.518 0 0 1 2.12 0l3.794 3.729a.486.486 0 0 1 0 .695.506.506 0 0 1-.708 0L8.5 2.771V11.5a.5.5 0 0 1-1 0V2.771L3.854 6.356a.506.506 0 0 1-.708 0 .486.486 0 0 1 0-.695L6.94 1.93ZM13.5 10a.5.5 0 0 1 .5.5v2.668C14 14.195 13.148 15 12.126 15H3.874C2.852 15 2 14.195 2 13.168V10.5a.5.5 0 0 1 1 0v2.668c0 .446.375.832.874.832h8.252c.499 0 .874-.386.874-.832V10.5a.5.5 0 0 1 .5-.5Z" clip-rule="evenodd"/>
</svg>
