<svg xmlns="http://www.w3.org/2000/svg" width="16" height="16" fill="currentColor" viewBox="0 0 16 16">
  <path fill-rule="evenodd" d="M4 2.748A.74.74 0 0 1 4.721 2h8.058a.74.74 0 0 1 .721.748v10.504a.74.74 0 0 1-.721.748H4.72a.74.74 0 0 1-.72-.748v-.277a.5.5 0 1 0-1 0v.277C3 14.204 3.764 15 4.721 15h8.058c.957 0 1.721-.796 1.721-1.748V2.748C14.5 1.796 13.736 1 12.779 1H4.72C3.764 1 3 1.796 3 2.748V4h-.5a.5.5 0 0 0 0 1h2a.5.5 0 0 0 0-1H4V2.748ZM2.5 7.5a.5.5 0 0 0 0 1h2a.5.5 0 0 0 0-1H4V6a.5.5 0 0 0-1 0v1.5h-.5Zm0 3.5a.5.5 0 0 0 0 1h2a.5.5 0 0 0 0-1H4V9.5a.5.5 0 0 0-1 0V11h-.5Z" clip-rule="evenodd"/>
  <path fill-rule="evenodd" d="M9 6.5a.5.5 0 0 1 .5.5v4a.5.5 0 0 1-1 0V7a.5.5 0 0 1 .5-.5Z" clip-rule="evenodd"/>
  <path d="M9.5 5a.5.5 0 1 1-1 0 .5.5 0 0 1 1 0Z"/>
</svg>
