<svg xmlns="http://www.w3.org/2000/svg" width="16" height="16" fill="currentColor" viewBox="0 0 16 16">
  <g clip-path="url(#a)">
    <path fill-rule="evenodd" d="M1.967 8a6.033 6.033 0 1 1 10.027 4.522l.006-.669c.006-1.047-.874-1.853-1.913-1.853H5.913c-1.038 0-1.92.806-1.913 1.853v.001l.006.668A6.019 6.019 0 0 1 1.966 8Zm3.044 5.242A6.001 6.001 0 0 0 8 14.033a6.006 6.006 0 0 0 2.989-.79L11 11.846c.002-.444-.38-.847-.913-.847H5.913c-.533 0-.915.403-.913.847l.011 1.395ZM8 .967a7.033 7.033 0 1 0 0 14.066A7.033 7.033 0 0 0 8 .967ZM8 5a1.5 1.5 0 1 0 0 3 1.5 1.5 0 0 0 0-3ZM5.5 6.5a2.5 2.5 0 1 1 5 0 2.5 2.5 0 0 1-5 0Z" clip-rule="evenodd"/>
  </g>
  <defs>
    <clipPath id="a">
      <path d="M0 0h16v16H0z"/>
    </clipPath>
  </defs>
</svg>
