<svg xmlns="http://www.w3.org/2000/svg" width="16" height="16" fill="currentColor" viewBox="0 0 16 16">
  <path fill-rule="evenodd" d="M6.5 7a.5.5 0 0 1 .5-.5h1.901c.885 0 1.598.722 1.598 1.602V10c0 .094.074.167.166.167H11a.5.5 0 0 1 .5.5V12a.5.5 0 0 1-.5.5H7a.5.5 0 0 1-.5-.5v-1.333a.5.5 0 0 1 .5-.5h.501V9a.165.165 0 0 0-.166-.167H7a.5.5 0 0 1-.5-.5V7Zm2.999 3.013V8.102A.601.601 0 0 0 8.9 7.5H7.5v.345c.565.08 1.001.564 1.001 1.155v1.667a.5.5 0 0 1-.5.5H7.5v.333h3v-.345a1.165 1.165 0 0 1-1.001-1.142ZM7 4.502C7 3.68 7.666 3 8.5 3c.824 0 1.5.665 1.5 1.498a1.5 1.5 0 0 1-3 .005ZM8.5 4a.5.5 0 1 0 .002.998A.5.5 0 0 0 8.5 4ZM2 4.5a.5.5 0 0 1 .5-.5h2a.5.5 0 0 1 0 1h-2a.5.5 0 0 1-.5-.5ZM2 8a.5.5 0 0 1 .5-.5h2a.5.5 0 0 1 0 1h-2A.5.5 0 0 1 2 8Z" clip-rule="evenodd"/>
  <path fill-rule="evenodd" d="M3.5 5.5A.5.5 0 0 1 4 6v2a.5.5 0 0 1-1 0V6a.5.5 0 0 1 .5-.5Zm-1.5 6a.5.5 0 0 1 .5-.5h2a.5.5 0 0 1 0 1h-2a.5.5 0 0 1-.5-.5Z" clip-rule="evenodd"/>
  <path fill-rule="evenodd" d="M3.5 9a.5.5 0 0 1 .5.5V11a.5.5 0 0 1-1 0V9.5a.5.5 0 0 1 .5-.5Z" clip-rule="evenodd"/>
  <path fill-rule="evenodd" d="M4.721 2A.74.74 0 0 0 4 2.748v1.669a.5.5 0 0 1-1 0V2.748C3 1.796 3.764 1 4.721 1h8.058c.957 0 1.721.796 1.721 1.748v10.504c0 .952-.764 1.748-1.721 1.748H4.72C3.764 15 3 14.204 3 13.252v-.277a.5.5 0 1 1 1 0v.277c0 .42.336.748.721.748h8.058a.74.74 0 0 0 .721-.748V2.748A.74.74 0 0 0 12.779 2H4.72Z" clip-rule="evenodd"/>
</svg>
