<svg xmlns="http://www.w3.org/2000/svg" width="16" height="16" fill="currentColor" viewBox="0 0 16 16">
  <path fill-rule="evenodd" d="M2 8.002A6.004 6.004 0 0 1 8 2c3 0 5.486 2.202 5.93 5.076a.5.5 0 1 0 .988-.152A7.002 7.002 0 0 0 8 1C4.135 1 1 4.139 1 8.002a7.002 7.002 0 0 0 5.385 6.81.5.5 0 0 0 .23-.973 5.971 5.971 0 0 1-2.1-.955L4.5 10.88c-.003-.469.392-.879.925-.879H7a.5.5 0 0 0 0-1H5.425c-1.053 0-1.932.828-1.925 1.886l.008 1.092A5.974 5.974 0 0 1 2 8.002ZM8 4a1.5 1.5 0 1 0 0 3 1.5 1.5 0 0 0 0-3ZM5.5 5.5a2.5 2.5 0 1 1 5 0 2.5 2.5 0 0 1-5 0Zm6.44 2.264a.5.5 0 0 1 .672-.207l1.531.801a.5.5 0 0 1 .212.673l-.258.5c.124.166.23.343.319.527l.608.028a.5.5 0 0 1 .476.5v1.677a.5.5 0 0 1-.484.5l-.526.017a3.2 3.2 0 0 1-.125.264l-.002.003a3.612 3.612 0 0 1-.154.258l.326.561a.5.5 0 0 1-.187.687l-1.57.883a.5.5 0 0 1-.693-.214l-.235-.473c-.178.02-.358.025-.54.015l-.25.469a.5.5 0 0 1-.672.207l-1.545-.809a.5.5 0 0 1-.209-.68l.265-.49a3.278 3.278 0 0 1-.302-.496l-.528.017a.5.5 0 0 1-.516-.484l-.053-1.75a.5.5 0 0 1 .484-.514l.525-.017a2.976 2.976 0 0 1 .277-.518l-.279-.453a.5.5 0 0 1 .162-.686l1.477-.922a.5.5 0 0 1 .69.163l.279.451a3.16 3.16 0 0 1 .574-.02l.25-.468Zm.648.909-.177.33a.5.5 0 0 1-.529.257c-.3-.053-.605-.04-.893.031a.5.5 0 0 1-.546-.223l-.194-.315-.63.393.195.316a.5.5 0 0 1-.043.583 2.302 2.302 0 0 0-.427.805.5.5 0 0 1-.463.355l-.366.012.023.75.367-.012a.5.5 0 0 1 .485.327c.106.29.265.553.475.777a.5.5 0 0 1 .074.58l-.184.341.657.344.177-.331a.5.5 0 0 1 .529-.257c.3.054.605.041.893-.03a.5.5 0 0 1 .568.263l.168.337.669-.376-.236-.406a.5.5 0 0 1 .05-.572 2.294 2.294 0 0 0 .426-.805.5.5 0 0 1 .463-.355l.381-.013v-.716l-.444-.021a.5.5 0 0 1-.446-.328 2.28 2.28 0 0 0-.475-.777.5.5 0 0 1-.079-.571l.183-.353-.651-.34ZM12 11.5a.5.5 0 1 1-1 0 .5.5 0 0 1 1 0Zm1 0a1.5 1.5 0 1 1-3 0 1.5 1.5 0 0 1 3 0Z" clip-rule="evenodd"/>
</svg>
