<svg xmlns="http://www.w3.org/2000/svg" width="16" height="16" fill="currentColor" viewBox="0 0 16 16">
  <path d="M14 8.019c0-.186-.019-.256-.08-.377-.057-.108-.112-.185-.464-.535a7.027 7.027 0 0 1-.472-.5l-.005-.007a2.43 2.43 0 0 1-.353-.718c-.066-.238-.064-.498-.05-1.182.002-.209 0-.3-.01-.365a.596.596 0 0 0-.053-.172l-.002-.005a.878.878 0 0 0-.622-.51l-.044-.002a15.95 15.95 0 0 0-.584-.011c-.31 0-.52-.002-.685-.019-.191-.02-.32-.06-.466-.117h-.002a2.263 2.263 0 0 1-.615-.368l-.002-.002c-.168-.138-.284-.273-.645-.7-.186-.219-.373-.34-.56-.4l-.115-.018-.025-.004-.026-.006-.018-.002a.743.743 0 0 0-.079 0 1.699 1.699 0 0 0-.192.022c-.112.02-.278.087-.393.165l-.008.005-.012.009a2.084 2.084 0 0 0-.137.125 5.46 5.46 0 0 0-.284.312l-.004.004c-.353.405-.639.661-1.026.83l-.003.002c-.14.06-.266.118-.472.145-.165.021-.393.024-.76.03a9.06 9.06 0 0 0-.66.025.377.377 0 0 0-.152.045l-.005.002a.879.879 0 0 0-.477.61.54.54 0 0 0-.009.092 12.362 12.362 0 0 0 .007.826c.003.103-.006.221-.017.316a2.603 2.603 0 0 1-.06.345v-.001c-.103.395-.305.694-.632 1.031l-.15.15c-.321.31-.408.42-.469.522a.798.798 0 0 0-.046.707l.053.102a.8.8 0 0 0 .066.092c.032.04.073.087.13.148l.23.234c.412.41.546.571.7.899h-.002c.06.118.113.281.139.38.023.088.043.169.05.29.007.096.005.22.003.398v.004c-.01.556-.007.738.003.82l.011.06.002.006c.08.303.304.515.615.581.011.002.044.007.136.01.094.003.23.004.44.004.54 0 .775.01 1.062.095l.127.041c.304.109.625.308.876.547l.009.008c.038.036.09.092.146.153l.175.194v.002c.245.28.415.435.479.475a.91.91 0 0 0 .904.038l.002-.001c.141-.077.238-.147.564-.53a5.48 5.48 0 0 1 .34-.367l.112-.102c.271-.228.598-.396.927-.484.23-.062.332-.06.954-.073.362-.007.509-.01.598-.02a.482.482 0 0 0 .155-.045.845.845 0 0 0 .449-.444l.002-.005a.691.691 0 0 0 .052-.177c.008-.06.011-.144.01-.318l-.006-.304c-.003-.28 0-.49.02-.662.03-.26.095-.434.19-.626l.005-.01c.166-.316.33-.514.728-.895a3.15 3.15 0 0 0 .344-.37.783.783 0 0 0 .117-.24c.017-.051.017-.058.018-.06.002-.016.003-.045.003-.147Zm1 0c0 .094 0 .184-.011.27a1.26 1.26 0 0 1-.06.251 1.767 1.767 0 0 1-.258.513 4.04 4.04 0 0 1-.458.502l-.002.002h-.001c-.357.34-.437.454-.529.628l-.036.078a.683.683 0 0 0-.056.217 4.52 4.52 0 0 0-.014.532l.005.3v.004c.002.178.001.33-.018.47a1.838 1.838 0 0 1-1.132 1.422l-.004.002c-.12.045-.226.085-.408.105-.144.015-.348.019-.682.026-.332.006-.486.01-.58.016a.527.527 0 0 0-.136.022 1.4 1.4 0 0 0-.603.34l-.007.006a4.63 4.63 0 0 0-.265.289l-.001.001c-.35.411-.543.594-.847.76a1.915 1.915 0 0 1-1.913-.065l-.003-.002c-.205-.128-.462-.393-.7-.664a15.187 15.187 0 0 0-.162-.181l-.064-.07a.775.775 0 0 0-.028-.028l-.004-.004-.004-.004a1.59 1.59 0 0 0-.526-.334c-.177-.062-.245-.078-.854-.078-.4 0-.612-.002-.767-.032h-.004l-.004-.002a1.784 1.784 0 0 1-1.384-1.305c-.065-.236-.062-.497-.049-1.16a5.413 5.413 0 0 0 0-.32 1.487 1.487 0 0 0-.077-.268l-.009-.02-.006-.01-.004-.012a1.024 1.024 0 0 0-.134-.225 4.743 4.743 0 0 0-.365-.39c-.345-.343-.499-.512-.627-.754l-.054-.109a1.795 1.795 0 0 1 .092-1.636L1.25 7.1c.134-.226.307-.414.634-.73.364-.353.459-.523.508-.715l.001-.002a1.664 1.664 0 0 0 .044-.316c.002-.035.001-.051.001-.051l-.001-.02v-.018c0-.036-.004-.246-.01-.476v-.01c0-.314-.002-.475.035-.647l.001-.005c.13-.57.518-1.07 1.049-1.304.133-.06.25-.104.451-.126a9.62 9.62 0 0 1 .75-.03c.403-.007.557-.01.65-.023.052-.007.063-.01.204-.07.188-.083.358-.21.673-.571.215-.252.457-.507.64-.629.219-.146.516-.274.784-.32h.002c.083-.015.194-.03.31-.035a1.44 1.44 0 0 1 .354.024v-.001l.152.024.03.005.03.009c.365.106.682.31.955.595l.114.127c.379.448.433.504.514.57.134.11.238.17.35.213a.674.674 0 0 0 .207.055c.1.01.254.014.58.014.246 0 .493.004.647.013l.12.01h.008c.613.094 1.16.547 1.396 1.112.06.14.103.268.125.433.02.146.02.309.017.506v.004c-.01.57-.007.757.003.84l.011.059.002.005c.028.103.116.282.19.384l.031.036.092.098.255.26.002.002c.312.31.47.478.595.692l.053.095.003.004c.142.28.188.51.188.829Z"/>
  <path d="M10.124 5.684a.5.5 0 0 1 .752.657l-3.499 3.995a.5.5 0 0 1-.752 0L5.124 8.622a.5.5 0 1 1 .753-.657L7 9.248l3.123-3.564Z"/>
</svg>
