<svg xmlns="http://www.w3.org/2000/svg" width="16" height="16" fill="currentColor" viewBox="0 0 16 16">
  <g clip-path="url(#a)">
    <path d="M8.362.976A7.034 7.034 0 0 1 8 15.033l-.176-.002a7.048 7.048 0 0 1-1.196-.132.5.5 0 0 1 .194-.981c.286.056.578.093.877.107l.301.008a6.033 6.033 0 0 0 .31-12.058L8 1.967l-.3.007a6.042 6.042 0 0 0-.878.107l-.05.008a.5.5 0 0 1-.144-.988l.167-.032A7.08 7.08 0 0 1 8 .967l.362.009ZM2.29 11.215a.5.5 0 0 1 .693.137 6.073 6.073 0 0 0 1.423 1.495l.243.17.041.03a.5.5 0 0 1-.553.828l-.044-.026-.143-.099a7.07 7.07 0 0 1-1.798-1.842.5.5 0 0 1 .138-.693Zm7.835-5.544a.5.5 0 0 1 .753.658l-3.5 4a.502.502 0 0 1-.752 0L5.124 8.613l-.032-.04a.501.501 0 0 1 .749-.655l.036.037L7 9.24l3.123-3.57Zm-8.437.563a.5.5 0 0 1 .394.588l-.05.287a6.093 6.093 0 0 0 0 1.78l.05.289.008.05a.5.5 0 0 1-.976.194l-.012-.05-.032-.167a7.078 7.078 0 0 1 .032-2.577l.012-.05a.5.5 0 0 1 .575-.344Zm2.405-4.083a.5.5 0 0 1 .556.831 6.073 6.073 0 0 0-1.666 1.666.5.5 0 0 1-.83-.556 7.072 7.072 0 0 1 1.94-1.94Z"/>
  </g>
  <defs>
    <clipPath id="a">
      <path d="M0 0h16v16H0z"/>
    </clipPath>
  </defs>
</svg>
