<svg xmlns="http://www.w3.org/2000/svg" width="16" height="16" fill="currentColor" viewBox="0 0 16 16">
  <path fill-rule="evenodd" d="M6.748 4.044a.5.5 0 0 1 .5.002l3.015 1.76a.5.5 0 0 1 0 .863L7.25 8.43a.5.5 0 0 1-.752-.432v-3.52a.5.5 0 0 1 .25-.434Zm.749 1.305v1.777l1.522-.889-1.522-.888Z" clip-rule="evenodd"/>
  <path fill-rule="evenodd" d="M1 3.758C1 2.775 1.81 2 2.786 2H13.22c.97 0 1.78.776 1.78 1.758v6.984c0 .98-.803 1.758-1.781 1.758H2.786C1.81 12.5 1 11.725 1 10.742V3.758ZM2.786 3A.772.772 0 0 0 2 3.758v6.984c0 .41.341.758.786.758H13.22a.767.767 0 0 0 .781-.758V3.758A.77.77 0 0 0 13.219 3H2.786Z" clip-rule="evenodd"/>
  <path fill-rule="evenodd" d="M8 11.538a.5.5 0 0 1 .5.5v2.18a.5.5 0 0 1-1 0v-2.18a.5.5 0 0 1 .5-.5Z" clip-rule="evenodd"/>
  <path fill-rule="evenodd" d="M4.5 14.5A.5.5 0 0 1 5 14h6a.5.5 0 0 1 0 1H5a.5.5 0 0 1-.5-.5ZM.967 10.003a.5.5 0 0 1 .5-.5h12.735a.5.5 0 0 1 0 1H1.467a.5.5 0 0 1-.5-.5Z" clip-rule="evenodd"/>
</svg>
