<svg xmlns="http://www.w3.org/2000/svg" width="16" height="16" fill="currentColor" viewBox="0 0 16 16">
  <path fill-rule="evenodd" d="M1 3.758C1 2.775 1.81 2 2.786 2H13.22c.97 0 1.78.776 1.78 1.758v6.984c0 .98-.803 1.758-1.781 1.758H8.5V14H11a.5.5 0 0 1 0 1H5a.5.5 0 0 1 0-1h2.5v-1.5H2.786C1.81 12.5 1 11.725 1 10.742v-.559a.498.498 0 0 1 0-.36V3.758Zm1 6.745v.239c0 .41.341.758.786.758H13.22a.767.767 0 0 0 .781-.758v-.239H2Zm12-1H2V3.758c0-.41.341-.758.786-.758H13.22a.77.77 0 0 1 .781.758v5.745ZM6.748 4.044a.5.5 0 0 1 .5.002l3.015 1.76a.5.5 0 0 1 0 .863L7.25 8.43a.5.5 0 0 1-.752-.432v-3.52a.5.5 0 0 1 .25-.434Zm.749 3.082 1.522-.889-1.522-.888v1.777Z" clip-rule="evenodd"/>
</svg>
