<svg xmlns="http://www.w3.org/2000/svg" width="16" height="16" fill="currentColor" viewBox="0 0 16 16">
  <path d="M7 2a.5.5 0 0 1 0 1H2.784A.772.772 0 0 0 2 3.76V9.5h12V9a.5.5 0 0 1 1 0v1.74c0 .98-.807 1.76-1.783 1.76H8.5V14H11a.5.5 0 0 1 0 1H5a.5.5 0 0 1 0-1h2.5v-1.5H2.784C1.808 12.5 1 11.72 1 10.74V3.76C1 2.78 1.808 2 2.784 2H7Zm-5 8.74c0 .41.342.76.784.76h10.433c.441 0 .783-.35.783-.76v-.24H2v.24ZM6.766 4a.5.5 0 0 1 .455.332L8.353 7.5H9.5a.5.5 0 0 1 0 1H8a.5.5 0 0 1-.47-.332l-.822-2.3-.998 2.328a.501.501 0 0 1-.46.304H3a.5.5 0 0 1 0-1h1.92l1.371-3.197.035-.068A.5.5 0 0 1 6.766 4ZM11 1a3 3 0 0 1 2.443 4.736l1.41 1.41a.5.5 0 1 1-.707.708l-1.41-1.41A3 3 0 1 1 11 1Zm0 1a2 2 0 1 0 0 4 2 2 0 0 0 0-4Z"/>
</svg>
