<svg xmlns="http://www.w3.org/2000/svg" width="16" height="16" fill="currentColor" viewBox="0 0 16 16">
  <path d="M10 6.5a1 1 0 0 1 1 1V14a1 1 0 0 1-1 1H6a1 1 0 0 1-1-1V7.5a1 1 0 0 1 1-1h4ZM6 14h4v-1.5H6V14Zm0-2.5h4V10H6v1.5ZM8.063 1c1.828 0 3.338 1.282 3.86 3h.024c.812 0 1.572.37 2.123.919.552.548.93 1.31.93 2.133 0 .902-.22 1.76-.722 2.403-.515.66-1.291 1.045-2.278 1.045a.5.5 0 0 1 0-1c.702 0 1.177-.26 1.49-.66.324-.416.51-1.033.51-1.788 0-.516-.24-1.032-.634-1.424-.395-.393-.912-.628-1.419-.628-.494 0-.833.134-1.08.3a.5.5 0 1 1-.557-.83c.18-.122.386-.227.618-.307C10.486 2.882 9.354 2 8.063 2 6.435 2 5.05 3.412 5.002 5.253a.499.499 0 0 1-.476.802l-.36-.062a.495.495 0 0 1-.024-.005c-.399-.088-.668-.06-.913.03C2.459 6.3 2 6.975 2 7.644 2 8.63 2.857 9.5 4.002 9.5a.5.5 0 0 1 0 1C2.353 10.5 1 9.23 1 7.644c0-1.127.758-2.15 1.882-2.565a2.384 2.384 0 0 1 1.135-.124C4.202 2.767 5.91 1 8.063 1ZM6 9h4V7.5H6V9Z"/>
</svg>
