<svg xmlns="http://www.w3.org/2000/svg" width="16" height="16" fill="currentColor" viewBox="0 0 16 16">
  <path fill-rule="evenodd" d="M6.74 1.778c.519-1.037 2-1.037 2.52 0l5.589 11.184A1.407 1.407 0 0 1 13.589 15H2.41a1.409 1.409 0 0 1-1.26-2.037L6.74 1.777Zm.894.447L2.044 13.41a.41.41 0 0 0 .366.59h11.18a.407.407 0 0 0 .364-.59L8.365 2.225c-.15-.3-.58-.3-.73 0ZM8 5.004c.345 0 .625.28.625.625v3.746a.625.625 0 0 1-1.25 0V5.629c0-.345.28-.625.625-.625Zm.01 7.497a.75.75 0 1 0 0-1.5.75.75 0 0 0 0 1.5Z" clip-rule="evenodd"/>
</svg>
