<svg xmlns="http://www.w3.org/2000/svg" width="16" height="16" fill="currentColor" viewBox="0 0 16 16">
  <path fill-rule="evenodd" d="M7.236 1.747c.52-1.04 2.008-1.04 2.528 0l5.619 11.242a1.412 1.412 0 0 1-1.264 2.044H2.88a1.413 1.413 0 0 1-1.264-2.044l5.62-11.242Zm.895.447L2.51 13.436a.413.413 0 0 0 .37.597h11.24a.412.412 0 0 0 .37-.597L8.868 2.194a.414.414 0 0 0-.738 0Z" clip-rule="evenodd"/>
  <path fill-rule="evenodd" d="M8.5 5.5A.5.5 0 0 1 9 6v4a.5.5 0 0 1-1 0V6a.5.5 0 0 1 .5-.5Z" clip-rule="evenodd"/>
  <path d="M9 12a.5.5 0 1 1-1 0 .5.5 0 0 1 1 0Z"/>
</svg>
