<svg xmlns="http://www.w3.org/2000/svg" width="17" height="16" fill="currentColor" viewBox="0 0 17 16">
  <path d="M13.593 1c1.07 0 1.851.943 1.851 1.995V7a.5.5 0 1 1-1 0V5h-12v8.035c0 .572.418.965.852.965h4.648a.5.5 0 0 1 0 1H3.296c-1.061 0-1.851-.92-1.852-1.965V2.995C1.444 1.943 2.227 1 3.297 1h10.296Zm-2.635 7.001a.5.5 0 0 1 .084.008c.012.002.023.007.035.01.02.006.04.01.058.018a.497.497 0 0 1 .119.073.499.499 0 0 1 .191.39v1.793l.5.5.5-.5V8.5a.501.501 0 0 1 .688-.463c1.1.448 1.811 1.444 1.811 2.713 0 1.008-.464 1.957-1.25 2.52l.003 1.229-.003.052a.5.5 0 0 1-.995 0l-.002-.05-.003-1.5a.5.5 0 0 1 .255-.436c.595-.335.995-1.028.995-1.815 0-.539-.182-.99-.5-1.325V10.5a.5.5 0 0 1-.146.354l-1 1a.5.5 0 0 1-.163.107l-.018.006a.506.506 0 0 1-.068.021c-.016.004-.033.004-.05.006a.484.484 0 0 1-.099.002l-.03-.003a.51.51 0 0 1-.18-.064.465.465 0 0 1-.044-.03l-.017-.011-.038-.034-1-1a.5.5 0 0 1-.147-.354V9.441c-.312.336-.5.784-.5 1.309 0 .777.424 1.479 1.003 1.818l.055.037a.5.5 0 0 1 .192.395v1.5a.5.5 0 1 1-1 0v-1.234a3.155 3.155 0 0 1-1.25-2.516c0-1.278.757-2.266 1.805-2.71.01-.005.022-.007.032-.01a.497.497 0 0 1 .163-.03l.014.001ZM3.297 2c-.425 0-.853.397-.853.995V4h12V2.995c0-.597-.427-.995-.851-.995H3.297Zm6.771.5a.401.401 0 0 1 .266.102c.068.062.11.148.11.244v.308l-.002.035c0 .007-.004.013-.005.02a.311.311 0 0 1-.048.123l-.015.022a.35.35 0 0 1-.045.047c-.01.009-.02.016-.03.023a.382.382 0 0 1-.23.076H9.82l-.076-.007a.396.396 0 0 1-.066-.02l-.018-.007a.385.385 0 0 1-.099-.062l-.011-.01a.347.347 0 0 1-.074-.097l-.003-.008-.005-.013a.322.322 0 0 1-.016-.047l-.003-.015a.318.318 0 0 1-.004-.025l-.002-.035v-.308c0-.046.01-.09.027-.13l.011-.02a.338.338 0 0 1 .02-.034l.015-.02a.356.356 0 0 1 .033-.035l.01-.01a.372.372 0 0 1 .036-.029l.022-.014a.394.394 0 0 1 .127-.047L9.82 2.5h.247Zm1.5 0a.401.401 0 0 1 .266.102c.068.062.11.148.11.244v.308l-.002.035c0 .007-.004.013-.005.02a.311.311 0 0 1-.048.123l-.015.022a.35.35 0 0 1-.045.047c-.01.009-.02.016-.03.023a.382.382 0 0 1-.23.076h-.248l-.076-.007a.394.394 0 0 1-.066-.02l-.018-.007a.394.394 0 0 1-.102-.065l-.008-.006a.347.347 0 0 1-.074-.098l-.004-.008-.006-.02a.323.323 0 0 1-.014-.04l-.003-.02-.004-.02-.002-.035v-.308a.32.32 0 0 1 .027-.13l.011-.02a.352.352 0 0 1 .02-.034l.015-.02a.347.347 0 0 1 .033-.035l.01-.01a.38.38 0 0 1 .058-.043.395.395 0 0 1 .127-.047l.076-.007h.247Zm1.5 0a.401.401 0 0 1 .266.102c.068.062.11.148.11.244v.308l-.002.035c0 .007-.004.013-.005.02a.311.311 0 0 1-.048.123l-.015.022a.35.35 0 0 1-.045.047c-.01.009-.02.016-.03.023a.382.382 0 0 1-.23.076h-.248l-.076-.007a.394.394 0 0 1-.066-.02l-.018-.007a.394.394 0 0 1-.102-.065l-.008-.006a.347.347 0 0 1-.074-.098l-.004-.008-.006-.02a.323.323 0 0 1-.014-.04l-.003-.02-.004-.02-.002-.035v-.308a.32.32 0 0 1 .027-.13l.011-.02a.352.352 0 0 1 .02-.034l.015-.02a.347.347 0 0 1 .033-.035l.01-.01a.38.38 0 0 1 .058-.043.395.395 0 0 1 .127-.047l.076-.007h.247Z"/>
</svg>
