<svg xmlns="http://www.w3.org/2000/svg" width="16" height="16" fill="currentColor" viewBox="0 0 16 16">
  <path d="M6.5 2.5A.5.5 0 0 0 6 2H2.5a.5.5 0 0 0-.5.5V6a.5.5 0 0 0 .5.5H6a.5.5 0 0 0 .5-.5V2.5Zm1 3.5A1.5 1.5 0 0 1 6 7.5H2.5A1.5 1.5 0 0 1 1 6V2.5A1.5 1.5 0 0 1 2.5 1H6a1.5 1.5 0 0 1 1.5 1.5V6Zm-1 4a.5.5 0 0 0-.5-.5H2.5a.5.5 0 0 0-.5.5v3.5a.5.5 0 0 0 .5.5H6a.5.5 0 0 0 .5-.5V10Zm1 3.5A1.5 1.5 0 0 1 6 15H2.5A1.5 1.5 0 0 1 1 13.5V10a1.5 1.5 0 0 1 1.5-1.5H6A1.5 1.5 0 0 1 7.5 10v3.5ZM14 10a.5.5 0 0 0-.5-.5H10a.5.5 0 0 0-.5.5v3.5a.5.5 0 0 0 .5.5h3.5a.5.5 0 0 0 .5-.5V10Zm1 3.5a1.5 1.5 0 0 1-1.5 1.5H10a1.5 1.5 0 0 1-1.5-1.5V10A1.5 1.5 0 0 1 10 8.5h3.5A1.5 1.5 0 0 1 15 10v3.5ZM12.25 7a.5.5 0 0 1-1 0V1.5a.5.5 0 0 1 1 0V7Z"/>
  <path d="M9 4.75a.5.5 0 0 1 0-1h5.5a.5.5 0 0 1 0 1H9Z"/>
</svg>
