<svg xmlns="http://www.w3.org/2000/svg" width="16" height="16" fill="currentColor" viewBox="0 0 16 16">
  <path fill-rule="evenodd" d="M12.5 1a.5.5 0 0 1 .5.5v2a.5.5 0 0 1-.5.5h-2a.5.5 0 0 1 0-1H12V1.5a.5.5 0 0 1 .5-.5ZM3 12.5a.5.5 0 0 1 .5-.5h2a.5.5 0 0 1 0 1H4v1.5a.5.5 0 0 1-1 0v-2Z" clip-rule="evenodd"/>
  <path fill-rule="evenodd" d="M8 2a5.998 5.998 0 0 0-5.196 9 .5.5 0 1 1-.866.5A6.998 6.998 0 0 1 8 1c1.908 0 3.571.614 4.854 1.896a.5.5 0 0 1-.708.708C11.076 2.534 9.68 2 8 2Zm5.379 2.317a.5.5 0 0 1 .683.183A6.998 6.998 0 0 1 8 15c-1.908 0-3.571-.614-4.854-1.896a.5.5 0 1 1 .708-.707C4.924 13.466 6.32 14 8 14a5.998 5.998 0 0 0 5.196-9 .5.5 0 0 1 .183-.683Z" clip-rule="evenodd"/>
  <path fill-rule="evenodd" d="M6.699 3.647a.5.5 0 0 1 .354-.147h1.94a.5.5 0 0 1 .5.491l.011.684c.225.105.436.233.633.379l.543-.313a.5.5 0 0 1 .683.186l.986 1.727a.5.5 0 0 1-.185.682l-.542.311c.012.12.02.24.02.365v.004c0 .122-.005.246-.017.37l.557.332a.5.5 0 0 1 .178.677l-.967 1.7a.5.5 0 0 1-.69.182l-.55-.327a3.427 3.427 0 0 1-.609.351l.003.642a.5.5 0 0 1-.507.502l-1.953-.027a.5.5 0 0 1-.493-.498l-.003-.652a3.663 3.663 0 0 1-.628-.377l-.543.312a.5.5 0 0 1-.683-.185L3.752 9.29a.5.5 0 0 1 .185-.68l.541-.312a3.342 3.342 0 0 1-.02-.369c0-.122.005-.246.017-.37l-.557-.332a.5.5 0 0 1-.178-.677l.967-1.7a.5.5 0 0 1 .69-.183l.55.328c.189-.137.393-.255.609-.352l-.003-.64a.5.5 0 0 1 .146-.356Zm.856.853.002.484a.5.5 0 0 1-.347.478 2.425 2.425 0 0 0-.885.511.5.5 0 0 1-.591.059l-.41-.244-.473.831.423.253a.5.5 0 0 1 .233.53 2.69 2.69 0 0 0 .008 1.059.5.5 0 0 1-.241.533l-.407.234.49.858.407-.234a.5.5 0 0 1 .585.063c.265.24.571.427.906.545a.5.5 0 0 1 .335.47l.002.495.953.013-.002-.477a.5.5 0 0 1 .347-.479c.331-.106.633-.282.885-.51a.5.5 0 0 1 .591-.059l.41.244.473-.832-.423-.252a.5.5 0 0 1-.233-.53 2.688 2.688 0 0 0-.008-1.059.5.5 0 0 1 .241-.533l.407-.234-.49-.859-.407.234a.5.5 0 0 1-.585-.062 2.669 2.669 0 0 0-.906-.545.5.5 0 0 1-.335-.463L8.501 4.5h-.946Z" clip-rule="evenodd"/>
  <path fill-rule="evenodd" d="M8 8.75a.75.75 0 1 0 0-1.5.75.75 0 0 0 0 1.5Zm0 1a1.75 1.75 0 1 0 0-3.5 1.75 1.75 0 0 0 0 3.5Z" clip-rule="evenodd"/>
</svg>
