<svg xmlns="http://www.w3.org/2000/svg" width="17" height="16" fill="currentColor" viewBox="0 0 17 16">
  <g clip-path="url(#a)">
    <path fill-rule="evenodd" d="M12.315 10a1.5 1.5 0 1 1 0 3 1.5 1.5 0 0 1 0-3Zm0 1a.5.5 0 1 0 0 1 .5.5 0 0 0 0-1Z" clip-rule="evenodd"/>
    <path fill-rule="evenodd" d="M12.78 7.72a.5.5 0 0 1 .647-.163l1.53.8a.5.5 0 0 1 .213.674l-.26.5c.124.167.23.343.32.527l.608.028a.5.5 0 0 1 .476.5v1.677a.5.5 0 0 1-.433.496l-.05.004-.527.017a3.18 3.18 0 0 1-.125.264l-.002.003a3.584 3.584 0 0 1-.154.257l.327.562a.5.5 0 0 1-.187.687l-1.57.883a.5.5 0 0 1-.693-.214l-.236-.474a3.17 3.17 0 0 1-.538.015l-.251.47a.5.5 0 0 1-.673.207l-1.545-.809a.5.5 0 0 1-.208-.68l.265-.492a3.275 3.275 0 0 1-.302-.494l-.528.017a.5.5 0 0 1-.512-.435l-.004-.05-.054-1.748a.5.5 0 0 1 .484-.515l.526-.018A2.958 2.958 0 0 1 9.6 9.7l-.278-.454a.5.5 0 0 1 .161-.686l1.478-.921.043-.025a.5.5 0 0 1 .647.187l.279.451c.188-.023.38-.03.573-.02l.25-.468.027-.043Zm.445 1.284a.5.5 0 0 1-.528.256 2.154 2.154 0 0 0-.785.007l-.109.024a.5.5 0 0 1-.546-.223l-.194-.315-.63.393.195.316.036.071a.5.5 0 0 1-.079.512 2.309 2.309 0 0 0-.39.693l-.037.112a.5.5 0 0 1-.462.355l-.367.012.023.75.367-.012.08.004a.5.5 0 0 1 .406.323c.105.289.264.553.474.778a.5.5 0 0 1 .107.506l-.032.073-.185.341.658.344.177-.33.043-.068a.5.5 0 0 1 .485-.19c.3.054.605.04.894-.03l.085-.014a.5.5 0 0 1 .483.277l.167.337.669-.376-.235-.406a.5.5 0 0 1 .049-.572 2.297 2.297 0 0 0 .427-.804l.028-.075a.5.5 0 0 1 .434-.282l.382-.012v-.716l-.445-.022a.5.5 0 0 1-.446-.327 2.298 2.298 0 0 0-.398-.691l-.076-.085a.5.5 0 0 1-.08-.572l.183-.353-.651-.34-.177.33Z" clip-rule="evenodd"/>
    <path d="M7.824 1a6.006 6.006 0 0 1 5.958 5.2l.03.286.003.052a.5.5 0 0 1-.992.083l-.007-.05-.026-.239A5.006 5.006 0 0 0 7.824 2a5.002 5.002 0 0 0-5.01 4.995c0 2.522 1.905 4.638 4.35 4.98l.238.027.05.007a.5.5 0 0 1-.09.991l-.05-.002-.286-.033c-2.93-.408-5.212-2.939-5.212-5.97C1.814 3.683 4.506 1 7.824 1Z"/>
    <path d="M7.96 3.5a.5.5 0 0 1 .5.5v2.361l.678 1.132.024.045a.5.5 0 0 1-.853.512l-.028-.043-.75-1.25a.5.5 0 0 1-.072-.257V4a.5.5 0 0 1 .5-.5Z"/>
  </g>
  <defs>
    <clipPath id="a">
      <path d="M.814 0h16v16h-16z"/>
    </clipPath>
  </defs>
</svg>
