<svg xmlns="http://www.w3.org/2000/svg" width="16" height="16" fill="currentColor" viewBox="0 0 16 16">
  <path fill-rule="evenodd" d="M3.145 3a.747.747 0 0 0-.613.32l-1.396 2A.75.75 0 0 0 1.75 6.5h1.266v7a.5.5 0 1 0 .997 0v-1.408l4.103-2.4 3.873 2.157V13.5a.5.5 0 1 0 .997 0v-7h1.266a.75.75 0 0 0 .613-1.18l-1.396-2a.747.747 0 0 0-.613-.32h-9.71Zm8.446 3.5H4.44l3.662 2.04L11.59 6.5ZM9.117 9.105l2.87 1.6v-3.28l-2.87 1.68Zm-2.015.021-3.09-1.721v3.53l3.09-1.809ZM2.228 5.5 3.275 4h9.45l1.047 1.5H2.228Z" clip-rule="evenodd"/>
  <path fill-rule="evenodd" d="M3.145 3a.747.747 0 0 0-.613.32l-1.396 2A.75.75 0 0 0 1.75 6.5h1.266v7a.5.5 0 1 0 .997 0v-1.408l4.103-2.4 3.873 2.157V13.5a.5.5 0 1 0 .997 0v-7h1.266a.75.75 0 0 0 .613-1.18l-1.396-2a.747.747 0 0 0-.613-.32h-9.71Zm8.446 3.5H4.44l3.662 2.04L11.59 6.5ZM9.117 9.105l2.87 1.6v-3.28l-2.87 1.68Zm-2.015.021-3.09-1.721v3.53l3.09-1.809ZM2.228 5.5 3.275 4h9.45l1.047 1.5H2.228Z" clip-rule="evenodd"/>
</svg>
