<svg xmlns="http://www.w3.org/2000/svg" width="16" height="16" fill="currentColor" viewBox="0 0 16 16">
  <g clip-path="url(#a)">
    <path fill-rule="evenodd" d="M.875 2.486c0-.894.731-1.611 1.624-1.611h5.243c.11 0 .21.048.279.124l2.995 3.296a.375.375 0 0 1 .098.252v2.078a.375.375 0 1 1-.75 0v-1.5H8.4c-.59 0-1.031-.504-1.031-1.074V1.625h-4.87a.868.868 0 0 0-.875.861l-.015 9.14a.375.375 0 1 1-.75-.002l.016-9.138ZM8.117 4.05V2.219l1.96 2.156H8.398c-.133 0-.282-.124-.282-.324Zm-4.87 3.824a.875.875 0 0 0-.874.875v5.5c0 .483.392.875.874.875h10.988a.875.875 0 0 0 .874-.875v-5.5a.875.875 0 0 0-.874-.875H3.247Zm-.124.875c0-.069.055-.125.124-.125h10.988c.07 0 .125.056.125.125v5.5a.125.125 0 0 1-.125.125H3.247a.125.125 0 0 1-.124-.125v-5.5Zm7.646 1.121a.483.483 0 0 0-.17.19l-.68 1.315-.678-1.325a.523.523 0 0 0-.17-.19.403.403 0 0 0-.51.05.375.375 0 0 0-.09.25v2.67c0 .09.03.175.09.245h.005c.135.145.37.145.5.005a.37.37 0 0 0 .1-.25v-1.475l.36.7c.04.075.094.135.16.18a.454.454 0 0 0 .464 0c.064-.04.12-.1.16-.18l.354-.695v1.47c0 .09.03.175.1.255.07.075.16.11.26.11s.19-.04.254-.115a.36.36 0 0 0 .1-.25v-2.655a.34.34 0 0 0-.105-.255c-.134-.15-.36-.145-.51-.05h.006Zm-4.83-.025c.045.025.08.065.105.115v.005a.294.294 0 0 1 0 .3l-.864 1.52v1.045a.376.376 0 0 1-.105.26.371.371 0 0 1-.26.11.355.355 0 0 1-.254-.105.406.406 0 0 1-.105-.265v-1.045l-.864-1.52a.306.306 0 0 1-.01-.3c.115-.2.37-.195.534-.09.075.045.14.115.185.2l.52.97.519-.97a.5.5 0 0 1 .18-.2c.125-.08.294-.11.42-.03Zm7.902 2.78a.342.342 0 0 0-.24-.105h-1.039v-2.345a.34.34 0 0 0-.105-.255.348.348 0 0 0-.52 0c-.064.07-.1.16-.1.255v2.595c0 .115.04.22.12.3a.41.41 0 0 0 .3.135h1.344a.342.342 0 0 0 .335-.34c0-.09-.036-.17-.095-.235v-.005Zm-6.653-2.73c.07.05.13.125.16.215l.884 2.665c.03.1.015.2-.04.285a.302.302 0 0 1-.26.14.437.437 0 0 1-.26-.085.45.45 0 0 1-.154-.225l-.175-.565h-.85l-.18.575a.458.458 0 0 1-.149.22c-.15.12-.39.115-.504-.055a.31.31 0 0 1-.04-.285l.884-2.665a.443.443 0 0 1 .16-.22c.16-.12.374-.12.524 0Zm-.27 1.065-.22.705h.44l-.22-.705Z" clip-rule="evenodd"/>
  </g>
  <defs>
    <clipPath id="a">
      <path d="M0 0h16v16H0z"/>
    </clipPath>
  </defs>
</svg>
