<svg xmlns="http://www.w3.org/2000/svg" width="17" height="16" fill="currentColor" viewBox="0 0 17 16">
  <path d="M2.767 1a.5.5 0 0 1 .5.5v1.842C4.31 2.243 5.769 1.5 7.423 1.5c3.219 0 5.844 2.566 5.844 5.75a5.668 5.668 0 0 1-1.359 3.685l3.212 3.211.035.039a.5.5 0 0 1-.704.703l-.038-.034-3.216-3.216A5.88 5.88 0 0 1 7.423 13c-2.605 0-4.819-1.68-5.57-4.008l-.069-.226-.01-.051a.5.5 0 0 1 .959-.265l.015.048.057.188C3.424 10.603 5.255 12 7.423 12c2.683 0 4.844-2.135 4.844-4.75S10.107 2.5 7.423 2.5c-1.561 0-2.942.819-3.829 2h2.673a.5.5 0 0 1 0 1h-3.5a.5.5 0 0 1-.5-.5V1.5a.5.5 0 0 1 .5-.5Z"/>
</svg>
